<svg id="Layer_1" data-name="Layer 1" xmlns="http://www.w3.org/2000/svg" viewBox="0 0 2000 1396.96"><path d="M38.63,437.07,62.15,583.93A33.28,33.28,0,0,0,93.51,606h744a33.3,33.3,0,0,0,31.37-22.1l23.52-146.86" style="fill:#fff;stroke:#231f20;stroke-linecap:round;stroke-linejoin:round;stroke-width:9.27102255821228px"/><path d="M905.51,433.64,762,346.28a17.4,17.4,0,0,0-9.47-2.81H178.47a17.38,17.38,0,0,0-9.47,2.81L25.53,433.64a17.32,17.32,0,0,0-7.86,14.52v3.95A17.33,17.33,0,0,0,35,469.45H896a17.34,17.34,0,0,0,17.34-17.34v-3.95A17.34,17.34,0,0,0,905.51,433.64Z" style="fill:#fff;stroke:#231f20;stroke-linecap:round;stroke-linejoin:round;stroke-width:9.27102255821228px"/><line x1="62.51" y1="438.77" x2="868.53" y2="438.77" style="fill:#fff;stroke:#231f20;stroke-linecap:round;stroke-linejoin:round;stroke-width:9.27102255821228px"/><line x1="182.01" y1="369.28" x2="195.09" y2="437.07" style="fill:#fff;stroke:#231f20;stroke-linecap:round;stroke-linejoin:round;stroke-width:9.27102255821228px"/><line x1="749.03" y1="369.28" x2="735.95" y2="437.07" style="fill:#fff;stroke:#231f20;stroke-linecap:round;stroke-linejoin:round;stroke-width:9.27102255821228px"/><polygon points="747.39 382.61 179.37 382.61 90.87 437.44 834.9 437.44 747.39 382.61" style="fill:#ead39a;stroke:#231f20;stroke-linecap:round;stroke-linejoin:round;stroke-width:9.27102255821228px"/><path d="M653.43,410.24c-24.82,5.21-53.79,5.81-81.24,4.25s-54-5.17-80.82-8c-70.66-7.54-147.37-9.84-214.88,1.79-7.14,1.22-15.42,3.57-14,6.78,1,2.22,6.38,3.54,11.42,4.27,23.91,3.49,50,.35,74.48-2.34s51.83-4.78,73.95.42" style="fill:none;stroke:#231f20;stroke-linecap:round;stroke-linejoin:round;stroke-width:9.27102255821228px"/><path d="M1010.15,260.94V76.61c0-21.81,16.94-39.49,37.84-39.49h841.94c20.9,0,37.84,17.68,37.84,39.49V260.94" style="fill:#fff;stroke:#000;stroke-miterlimit:15.118109703064;stroke-width:24px"/><circle cx="1130.18" cy="131.63" r="34.98" style="fill:none;stroke:#000;stroke-miterlimit:15.118109703064;stroke-width:24px"/><circle cx="1246.32" cy="131.63" r="34.98" style="fill:none;stroke:#000;stroke-miterlimit:15.118109703064;stroke-width:24px"/><circle cx="1795.82" cy="131.63" r="34.98" style="fill:none;stroke:#000;stroke-miterlimit:15.118109703064;stroke-width:24px"/><circle cx="1681.36" cy="131.63" r="34.98" style="fill:none;stroke:#000;stroke-miterlimit:15.118109703064;stroke-width:24px"/><circle cx="1462.25" cy="131.63" r="34.98" style="fill:none;stroke:#000;stroke-miterlimit:15.118109703064;stroke-width:24px"/><rect x="956.66" y="260.94" width="1011.17" height="1098.9" rx="35.35" style="fill:#fff;stroke:#000;stroke-miterlimit:15.118109703064;stroke-width:24px"/><line x1="960.42" y1="1154" x2="1964.07" y2="1154" style="fill:none;stroke:#000;stroke-miterlimit:15.118109703064;stroke-width:24px"/><rect x="1019.81" y="413.37" width="884.87" height="61.37" rx="13.16" style="fill:none;stroke:#000;stroke-miterlimit:15.118109703064;stroke-width:24px"/><line x1="960.42" y1="343.17" x2="1964.07" y2="343.17" style="fill:none;stroke:#000;stroke-miterlimit:15.118109703064;stroke-width:24px"/><line x1="1096.84" y1="239.01" x2="1389.43" y2="239.01" style="fill:none;stroke:#000;stroke-linecap:round;stroke-miterlimit:15.118109703064;stroke-width:23.5644733840131px"/><line x1="1535.07" y1="239.01" x2="1827.65" y2="239.01" style="fill:none;stroke:#000;stroke-linecap:round;stroke-miterlimit:15.118109703064;stroke-width:23.5644733840131px"/><rect x="1095.19" y="544.96" width="734.11" height="538.84" rx="70.69" style="fill:#fff;stroke:#000;stroke-miterlimit:15.118109703064;stroke-width:24px"/><line x1="1097.34" y1="920.23" x2="1830.8" y2="920.23" style="fill:none;stroke:#000;stroke-linecap:round;stroke-miterlimit:15.118109703064;stroke-width:24px"/><line x1="1167.31" y1="920.23" x2="1167.31" y2="1075.64" style="fill:none;stroke:#000;stroke-linecap:round;stroke-miterlimit:15.118109703064;stroke-width:24px"/><line x1="1266.23" y1="920.23" x2="1266.23" y2="1075.64" style="fill:none;stroke:#000;stroke-linecap:round;stroke-miterlimit:15.118109703064;stroke-width:24px"/><line x1="1365.15" y1="920.23" x2="1365.15" y2="1075.64" style="fill:none;stroke:#000;stroke-linecap:round;stroke-miterlimit:15.118109703064;stroke-width:24px"/><line x1="1464.07" y1="920.23" x2="1464.07" y2="1075.64" style="fill:none;stroke:#000;stroke-linecap:round;stroke-miterlimit:15.118109703064;stroke-width:24px"/><line x1="1562.99" y1="920.23" x2="1562.99" y2="1075.64" style="fill:none;stroke:#000;stroke-linecap:round;stroke-miterlimit:15.118109703064;stroke-width:24px"/><line x1="1661.91" y1="920.23" x2="1661.91" y2="1075.64" style="fill:none;stroke:#000;stroke-linecap:round;stroke-miterlimit:15.118109703064;stroke-width:24px"/><line x1="1760.84" y1="920.23" x2="1760.84" y2="1075.64" style="fill:none;stroke:#000;stroke-linecap:round;stroke-miterlimit:15.118109703064;stroke-width:24px"/><g id="layer5"><g id="g986"><path id="rect981" d="M1232.07,731.79H946.31a199.93,199.93,0,0,1-167.26-90.4h0m379.32,16.7,86.87,73.7-86.87,73.7" style="fill:none;stroke:#231f20;stroke-linecap:round;stroke-linejoin:round;stroke-width:24px"/></g></g></svg>