<svg id="Layer_1" data-name="Layer 1" xmlns="http://www.w3.org/2000/svg" viewBox="0 0 1237 2000"><rect x="386.7" y="14" width="328.93" height="60.67" style="fill:#dedede;stroke:#231f20;stroke-miterlimit:10;stroke-width:8px"/><polygon points="920.44 60.64 181.89 60.64 193.94 218.58 908.4 218.58 920.44 60.64" style="fill:gray;stroke:#231f20;stroke-miterlimit:10;stroke-width:8px"/><path d="M105.16,115l59.94,66.28a111.62,111.62,0,0,1,28.5,66.36l65.53,859.3a32.78,32.78,0,0,0,32.68,30.29H809.55a32.77,32.77,0,0,0,32.68-30.29L915.76,115" style="fill:none;stroke:#231f20;stroke-miterlimit:10;stroke-width:12px"/><path d="M201,344.69l8.59,112.69,21.61,283.43,27.92,366.08a32.78,32.78,0,0,0,32.68,30.29H809.55a32.77,32.77,0,0,0,32.68-30.29l26.11-352.28L890,462.85c2.85-38.49,8.8-118.16,8.8-118.16s-45.2,20-82.56,20-51.22-20-97-20-63.68,20-91.08,20-46.71-20-82.2-20-54.18,20-87.8,20-49.82-20-84.07-20-59.78,20-93.41,20S201,344.69,201,344.69Z" style="fill:#fff;stroke:#0c0d18;stroke-linecap:round;stroke-linejoin:round;stroke-width:12px"/><path d="M861.76,1265.7v-40.64H239.6v40.64a103.73,103.73,0,0,1-31.66,74.61l-90.55,87.49a245.54,245.54,0,0,0-74.93,176.59V1976.6H1058.9V1604.39A245.54,245.54,0,0,0,984,1427.8l-90.55-87.49A103.73,103.73,0,0,1,861.76,1265.7Z" style="fill:#dedede;stroke:#231f20;stroke-miterlimit:10;stroke-width:24px"/><rect x="328.45" y="1600.83" width="81.7" height="137.26" style="fill:#231f20"/><rect x="449.37" y="1600.83" width="81.7" height="137.26" style="fill:#231f20"/><rect x="570.29" y="1600.83" width="81.7" height="137.26" style="fill:#231f20"/><rect x="691.21" y="1600.83" width="81.7" height="137.26" style="fill:#ed1c24"/><path d="M1217.43,420.76c-6.08-51.36-26.72-90.17-61.35-115.33-23.41-17-52.88-27.24-87.59-30.37-29.93-2.7-54.53-2.75-93.21,4.94l12.58-165H18.26l80.26,91.5a109.26,109.26,0,0,1,26.82,63.76L193.4,1162.7a67.49,67.49,0,0,0,67.3,62.36h580A67.49,67.49,0,0,0,908,1162.7l30.46-399.46C1016,730,1102.84,669.43,1150.16,611.85c24.33-29.59,42.53-60.43,54.09-91.65C1216.79,486.34,1221.22,452.88,1217.43,420.76ZM945.3,673.07l24.08-315.7c61.18-12.16,117.32-10.8,143.15,8,17.48,12.7,27.73,33.68,31.33,64.12C1154.28,517.55,1079.22,615.68,945.3,673.07Z" style="fill:none;stroke:#231f20;stroke-linejoin:round;stroke-width:24px"/><line x1="675.57" y1="114.95" x2="641.08" y2="1137.18" style="fill:none;stroke:#231f20;stroke-miterlimit:10;stroke-width:12px"/><line x1="673.46" y1="280.82" x2="726.67" y2="280.82" style="fill:none;stroke:#231f20;stroke-linecap:round;stroke-miterlimit:10;stroke-width:12px"/><line x1="670.98" y1="344.69" x2="724.19" y2="344.69" style="fill:none;stroke:#231f20;stroke-linecap:round;stroke-miterlimit:10;stroke-width:12px"/><line x1="668.5" y1="408.56" x2="721.71" y2="408.56" style="fill:none;stroke:#231f20;stroke-linecap:round;stroke-miterlimit:10;stroke-width:12px"/><line x1="666.01" y1="472.44" x2="719.22" y2="472.44" style="fill:none;stroke:#231f20;stroke-linecap:round;stroke-miterlimit:10;stroke-width:12px"/><line x1="663.53" y1="536.31" x2="716.74" y2="536.31" style="fill:none;stroke:#231f20;stroke-linecap:round;stroke-miterlimit:10;stroke-width:12px"/><line x1="661.05" y1="600.18" x2="714.26" y2="600.18" style="fill:none;stroke:#231f20;stroke-linecap:round;stroke-miterlimit:10;stroke-width:12px"/><line x1="658.57" y1="664.05" x2="711.78" y2="664.05" style="fill:none;stroke:#231f20;stroke-linecap:round;stroke-miterlimit:10;stroke-width:12px"/><line x1="656.09" y1="727.92" x2="709.3" y2="727.92" style="fill:none;stroke:#231f20;stroke-linecap:round;stroke-miterlimit:10;stroke-width:12px"/><line x1="653.6" y1="791.79" x2="706.81" y2="791.79" style="fill:none;stroke:#231f20;stroke-linecap:round;stroke-miterlimit:10;stroke-width:12px"/><line x1="651.12" y1="855.67" x2="704.33" y2="855.67" style="fill:none;stroke:#231f20;stroke-linecap:round;stroke-miterlimit:10;stroke-width:12px"/><line x1="648.64" y1="919.54" x2="701.85" y2="919.54" style="fill:none;stroke:#231f20;stroke-linecap:round;stroke-miterlimit:10;stroke-width:12px"/><line x1="646.16" y1="983.41" x2="699.37" y2="983.41" style="fill:none;stroke:#231f20;stroke-linecap:round;stroke-miterlimit:10;stroke-width:12px"/><line x1="643.68" y1="1047.28" x2="696.89" y2="1047.28" style="fill:none;stroke:#231f20;stroke-linecap:round;stroke-miterlimit:10;stroke-width:12px"/><path d="M370.28,1443.91v32.81h50.08v-32.81q0-7,3.16-10.55a10.66,10.66,0,0,1,8.32-3.51,11.05,11.05,0,0,1,8.48,3.48q3.24,3.47,3.24,10.58v90.24q0,7.11-3.28,10.62a11,11,0,0,1-8.44,3.52,10.57,10.57,0,0,1-8.36-3.56q-3.12-3.56-3.12-10.58v-38.52H370.28v38.52q0,7.11-3.28,10.62a11,11,0,0,1-8.44,3.52,10.57,10.57,0,0,1-8.36-3.56q-3.12-3.56-3.12-10.58v-90.24q0-7,3.08-10.55a10.62,10.62,0,0,1,8.4-3.51,11.05,11.05,0,0,1,8.48,3.48Q370.28,1436.8,370.28,1443.91Z" style="fill:#231f20"/><path d="M469.42,1534.15v-90.24q0-7,3.2-10.55a10.71,10.71,0,0,1,8.28-3.51,11.05,11.05,0,0,1,8.48,3.48q3.24,3.47,3.24,10.58v90.24q0,7.11-3.24,10.62a11,11,0,0,1-8.48,3.52,10.67,10.67,0,0,1-8.24-3.56Q469.42,1541.17,469.42,1534.15Z" style="fill:#231f20"/><path d="M623.17,1499.77v22a23.23,23.23,0,0,1-.86,7,11.07,11.07,0,0,1-3.16,4.72,29.84,29.84,0,0,1-5.9,4.06,93.06,93.06,0,0,1-20,8.21,80.62,80.62,0,0,1-20.94,2.58,68.17,68.17,0,0,1-24.06-4.07,50.63,50.63,0,0,1-18.52-11.79A52.28,52.28,0,0,1,518,1513.68a70.23,70.23,0,0,1-4.1-24.61,71.84,71.84,0,0,1,4-24.46,50,50,0,0,1,11.72-18.82A51.3,51.3,0,0,1,548.4,1434a72.36,72.36,0,0,1,25.16-4.1,62.62,62.62,0,0,1,20.47,3.08,45,45,0,0,1,14.45,7.78,34.47,34.47,0,0,1,8.36,9.92,20.09,20.09,0,0,1,2.81,9.3,9.94,9.94,0,0,1-3.24,7.46,10.85,10.85,0,0,1-7.77,3.08,10.5,10.5,0,0,1-4.81-1.17A10.88,10.88,0,0,1,600,1466a93.8,93.8,0,0,0-7.27-10.16,23.57,23.57,0,0,0-8-5.78q-5-2.34-12.85-2.34a35.62,35.62,0,0,0-14.37,2.77,29.62,29.62,0,0,0-10.82,8,36.31,36.31,0,0,0-6.88,12.93,56.82,56.82,0,0,0-2.38,17q0,20.16,9.26,31t25.82,10.86a52.8,52.8,0,0,0,15.11-2.11,76.2,76.2,0,0,0,14.34-6V1503.6H584q-6.48,0-9.8-1.95c-2.22-1.31-3.32-3.52-3.32-6.65a8.12,8.12,0,0,1,2.77-6.32,10.83,10.83,0,0,1,7.54-2.5h26.33a33.21,33.21,0,0,1,8.2.86,9.27,9.27,0,0,1,5.43,3.82Q623.17,1493.83,623.17,1499.77Z" style="fill:#231f20"/><path d="M668.64,1443.91v32.81h50.08v-32.81q0-7,3.16-10.55a10.66,10.66,0,0,1,8.32-3.51,11.05,11.05,0,0,1,8.48,3.48q3.24,3.47,3.24,10.58v90.24q0,7.11-3.28,10.62a11,11,0,0,1-8.44,3.52,10.57,10.57,0,0,1-8.36-3.56q-3.12-3.56-3.12-10.58v-38.52H668.64v38.52q0,7.11-3.28,10.62a11,11,0,0,1-8.44,3.52,10.57,10.57,0,0,1-8.36-3.56q-3.12-3.56-3.12-10.58v-90.24q0-7,3.08-10.55a10.62,10.62,0,0,1,8.4-3.51,11.07,11.07,0,0,1,8.48,3.48Q668.64,1436.8,668.64,1443.91Z" style="fill:#231f20"/></svg>