<svg id="Layer_1" data-name="Layer 1" xmlns="http://www.w3.org/2000/svg" viewBox="0 0 1237 2000"><rect x="386.7" y="14" width="328.93" height="60.67" style="fill:#dedede;stroke:#231f20;stroke-miterlimit:10;stroke-width:8px"/><polygon points="920.44 60.64 181.89 60.64 193.94 218.58 908.4 218.58 920.44 60.64" style="fill:gray;stroke:#231f20;stroke-miterlimit:10;stroke-width:8px"/><path d="M105.16,115l59.94,66.28a111.62,111.62,0,0,1,28.5,66.36l65.53,859.3a32.78,32.78,0,0,0,32.68,30.29H809.55a32.77,32.77,0,0,0,32.68-30.29L915.76,115" style="fill:none;stroke:#231f20;stroke-miterlimit:10;stroke-width:12px"/><path d="M201,344.69l8.59,112.69,21.61,283.43,27.92,366.08a32.78,32.78,0,0,0,32.68,30.29H809.55a32.77,32.77,0,0,0,32.68-30.29l26.11-352.28L890,462.85c2.85-38.49,8.8-118.16,8.8-118.16s-45.2,20-82.56,20-51.22-20-97-20-63.68,20-91.08,20-46.71-20-82.2-20-54.18,20-87.8,20-49.82-20-84.07-20-59.78,20-93.41,20S201,344.69,201,344.69Z" style="fill:#fff;stroke:#0c0d18;stroke-linecap:round;stroke-linejoin:round;stroke-width:12px"/><path d="M861.76,1265.7v-40.64H239.6v40.64a103.73,103.73,0,0,1-31.66,74.61l-90.55,87.49a245.54,245.54,0,0,0-74.93,176.59V1976.6H1058.9V1604.39A245.54,245.54,0,0,0,984,1427.8l-90.55-87.49A103.73,103.73,0,0,1,861.76,1265.7Z" style="fill:#dedede;stroke:#231f20;stroke-miterlimit:10;stroke-width:24px"/><rect x="328.45" y="1600.83" width="81.7" height="137.26" style="fill:#231f20"/><rect x="449.37" y="1600.83" width="81.7" height="137.26" style="fill:#ed1c24"/><rect x="570.29" y="1600.83" width="81.7" height="137.26" style="fill:#231f20"/><rect x="691.21" y="1600.83" width="81.7" height="137.26" style="fill:#231f20"/><path d="M1217.43,420.76c-6.08-51.36-26.72-90.17-61.35-115.33-23.41-17-52.88-27.24-87.59-30.37-29.93-2.7-54.53-2.75-93.21,4.94l12.58-165H18.26l80.26,91.5a109.26,109.26,0,0,1,26.82,63.76L193.4,1162.7a67.49,67.49,0,0,0,67.3,62.36h580A67.49,67.49,0,0,0,908,1162.7l30.46-399.46C1016,730,1102.84,669.43,1150.16,611.85c24.33-29.59,42.53-60.43,54.09-91.65C1216.79,486.34,1221.22,452.88,1217.43,420.76ZM945.3,673.07l24.08-315.7c61.18-12.16,117.32-10.8,143.15,8,17.48,12.7,27.73,33.68,31.33,64.12C1154.28,517.55,1079.22,615.68,945.3,673.07Z" style="fill:none;stroke:#231f20;stroke-linejoin:round;stroke-width:24px"/><line x1="675.57" y1="114.95" x2="641.08" y2="1137.18" style="fill:none;stroke:#231f20;stroke-miterlimit:10;stroke-width:12px"/><line x1="673.46" y1="280.82" x2="726.67" y2="280.82" style="fill:none;stroke:#231f20;stroke-linecap:round;stroke-miterlimit:10;stroke-width:12px"/><line x1="670.98" y1="344.69" x2="724.19" y2="344.69" style="fill:none;stroke:#231f20;stroke-linecap:round;stroke-miterlimit:10;stroke-width:12px"/><line x1="668.5" y1="408.56" x2="721.71" y2="408.56" style="fill:none;stroke:#231f20;stroke-linecap:round;stroke-miterlimit:10;stroke-width:12px"/><line x1="666.01" y1="472.44" x2="719.22" y2="472.44" style="fill:none;stroke:#231f20;stroke-linecap:round;stroke-miterlimit:10;stroke-width:12px"/><line x1="663.53" y1="536.31" x2="716.74" y2="536.31" style="fill:none;stroke:#231f20;stroke-linecap:round;stroke-miterlimit:10;stroke-width:12px"/><line x1="661.05" y1="600.18" x2="714.26" y2="600.18" style="fill:none;stroke:#231f20;stroke-linecap:round;stroke-miterlimit:10;stroke-width:12px"/><line x1="658.57" y1="664.05" x2="711.78" y2="664.05" style="fill:none;stroke:#231f20;stroke-linecap:round;stroke-miterlimit:10;stroke-width:12px"/><line x1="656.09" y1="727.92" x2="709.3" y2="727.92" style="fill:none;stroke:#231f20;stroke-linecap:round;stroke-miterlimit:10;stroke-width:12px"/><line x1="653.6" y1="791.79" x2="706.81" y2="791.79" style="fill:none;stroke:#231f20;stroke-linecap:round;stroke-miterlimit:10;stroke-width:12px"/><line x1="651.12" y1="855.67" x2="704.33" y2="855.67" style="fill:none;stroke:#231f20;stroke-linecap:round;stroke-miterlimit:10;stroke-width:12px"/><line x1="648.64" y1="919.54" x2="701.85" y2="919.54" style="fill:none;stroke:#231f20;stroke-linecap:round;stroke-miterlimit:10;stroke-width:12px"/><line x1="646.16" y1="983.41" x2="699.37" y2="983.41" style="fill:none;stroke:#231f20;stroke-linecap:round;stroke-miterlimit:10;stroke-width:12px"/><line x1="643.68" y1="1047.28" x2="696.89" y2="1047.28" style="fill:none;stroke:#231f20;stroke-linecap:round;stroke-miterlimit:10;stroke-width:12px"/><path d="M395.9,1443.91v83.36h47c3.75,0,6.62.91,8.63,2.73a8.94,8.94,0,0,1,3,6.88,8.7,8.7,0,0,1-3,6.84q-3,2.61-8.67,2.61h-56q-7.57,0-10.9-3.36c-2.21-2.23-3.32-5.86-3.32-10.86v-88.2q0-7,3.17-10.55a10.65,10.65,0,0,1,8.32-3.51,11,11,0,0,1,8.47,3.48Q395.9,1436.8,395.9,1443.91Z" style="fill:#231f20"/><path d="M512.23,1429.85q17.82,0,30.59,7.23a46.78,46.78,0,0,1,19.33,20.54q6.57,13.32,6.57,31.29a76.38,76.38,0,0,1-3.6,24.14,52.15,52.15,0,0,1-10.78,18.83,47.26,47.26,0,0,1-17.65,12.19,63.86,63.86,0,0,1-24,4.22,63.19,63.19,0,0,1-24.06-4.34,47.59,47.59,0,0,1-17.74-12.23,52.13,52.13,0,0,1-10.74-19,76.72,76.72,0,0,1-3.63-24,73.88,73.88,0,0,1,3.79-24.21,51.78,51.78,0,0,1,11-18.75,47.49,47.49,0,0,1,17.5-11.84A63.13,63.13,0,0,1,512.23,1429.85Zm33,58.9q0-12.57-4.06-21.79a30.41,30.41,0,0,0-11.6-14,31.92,31.92,0,0,0-17.31-4.72,31.41,31.41,0,0,0-12.85,2.61,28.39,28.39,0,0,0-10.16,7.62,36.32,36.32,0,0,0-6.71,12.77,57.8,57.8,0,0,0-2.47,17.46,59.16,59.16,0,0,0,2.47,17.66,36.18,36.18,0,0,0,6.95,13.09,29.21,29.21,0,0,0,10.31,7.77,32.57,32.57,0,0,0,29.14-1.87q7.46-4.45,11.88-13.75T545.2,1488.75Z" style="fill:#231f20"/><path d="M671.61,1528.29l-18.52-68.68-18.75,68.68q-2.19,7.82-3.47,11.21a14.89,14.89,0,0,1-4.5,6.09,12.75,12.75,0,0,1-8.51,2.7,13.93,13.93,0,0,1-7.07-1.61,12.23,12.23,0,0,1-4.5-4.53,28.7,28.7,0,0,1-2.81-7q-1.1-4-2-7.46l-19.06-77.11a44.91,44.91,0,0,1-1.72-10.23,10.07,10.07,0,0,1,3.12-7.5,10.63,10.63,0,0,1,7.74-3.05q6.33,0,8.51,4.06a45.67,45.67,0,0,1,3.83,11.8l15,66.87,16.8-62.58a100.52,100.52,0,0,1,3.36-10.93,15.83,15.83,0,0,1,4.84-6.49q3.36-2.73,9.14-2.73t9.1,2.85a15.66,15.66,0,0,1,4.5,6.21q1.24,3.36,3.35,11.09l17,62.58,15-66.87a81.29,81.29,0,0,1,2.07-8.21,13.17,13.17,0,0,1,3.36-5.31q2.39-2.34,6.91-2.34a10.75,10.75,0,0,1,7.7,3,10,10,0,0,1,3.16,7.54,48.74,48.74,0,0,1-1.72,10.23l-19.06,77.11q-1.95,7.82-3.24,11.44a15.17,15.17,0,0,1-4.38,6.37c-2.06,1.82-5,2.74-8.71,2.74a12.9,12.9,0,0,1-8.51-2.66,14.37,14.37,0,0,1-4.46-6Q673.88,1536.34,671.61,1528.29Z" style="fill:#231f20"/></svg>