<svg id="Layer_1" data-name="Layer 1" xmlns="http://www.w3.org/2000/svg" width="1885.51" height="2000" viewBox="0 0 1885.51 2000">
  <g>
    <g>
      <g>
        <path d="M379.48,671.76c150.28,0,326.73-80,326.73-261.59,0-42.79-146.28-82.11-326.73-82.11H379c-180.45,0-326.73,39.32-326.73,82.11C52.25,591.8,228.7,671.76,379,671.76Z" style="fill: #fff;stroke: #3a3632;stroke-miterlimit: 10;stroke-width: 20px"/>
        <path d="M379.48,328.06H379c-180.45,0-326.73,39.32-326.73,82.11" style="fill: #fff;stroke: #3a3632;stroke-miterlimit: 10;stroke-width: 20px"/>
        <path d="M406.57,566q4.44,5.89,4.44,14.64,0,12-8.88,19.2t-24,7.16a52.21,52.21,0,0,1-16.56-2.65,39.9,39.9,0,0,1-13.51-7.42,8,8,0,0,1-3-6.23,7.62,7.62,0,0,1,1.66-5,4.89,4.89,0,0,1,3.9-2.06,5.89,5.89,0,0,1,2.39.47,32.2,32.2,0,0,1,2.91,1.52,57.6,57.6,0,0,0,10.6,5.7,29.8,29.8,0,0,0,11,2q8.73,0,13-3.51t4.24-10.66q0-7-4.44-10.4t-13.71-3.38H369a5.7,5.7,0,0,1-4.71-2,7.31,7.31,0,0,1-1.65-4.7,7.21,7.21,0,0,1,1.65-4.77,5.78,5.78,0,0,1,4.71-2h5.3q18.14,0,18.14-13.64,0-6.36-3.84-9.8T378,525q-9.66,0-20.66,7.68-1.86,1.07-2.91,1.53a5.92,5.92,0,0,1-2.39.46,4.91,4.91,0,0,1-3.91-2,7.69,7.69,0,0,1-1.65-5,7.15,7.15,0,0,1,.73-3.38,10.77,10.77,0,0,1,2.32-2.85A42.38,42.38,0,0,1,362.86,514a47.51,47.51,0,0,1,15.83-2.71q13.77,0,21.92,6.75t8.15,18a24.19,24.19,0,0,1-4,13.44A22.39,22.39,0,0,1,393.79,558Q402.13,560.08,406.57,566Z" style="fill: #3a3632"/>
        <path d="M379.48,328.06H379c-180.45,0-326.73,39.32-326.73,82.11,0,0-19,23.82-17.16,31.77,30,133.23,677.3,104.58,689.08,0,1.21-10.7-18-31.77-18-31.77,0-42.79-146.28-82.11-326.73-82.11H379c-180.45,0-326.73,39.32-326.73,82.11" style="fill: #e6e7e8;stroke: #3a3632;stroke-linecap: round;stroke-linejoin: round;stroke-width: 20px"/>
        <path d="M685.07,407.68c0,20.5-136.81,50.88-305.57,50.88H379c-168.76,0-305.57-30.38-305.57-50.88" style="fill: none;stroke: #3a3632;stroke-linecap: round;stroke-miterlimit: 10;stroke-width: 20px"/>
      </g>
      <path d="M119.56,445.25a52.23,52.23,0,0,1-12.08,24.45" style="fill: none;stroke: #3a3632;stroke-linecap: round;stroke-linejoin: round;stroke-width: 20px"/>
      <path d="M214.62,462a229.48,229.48,0,0,0-2.14,37.41" style="fill: none;stroke: #3a3632;stroke-linecap: round;stroke-linejoin: round;stroke-width: 20px"/>
      <path d="M425,473.33a63,63,0,0,0,5.18,28.26" style="fill: none;stroke: #3a3632;stroke-linecap: round;stroke-linejoin: round;stroke-width: 20px"/>
      <path d="M541.73,469.94q6.64,9.66,14,18.8" style="fill: none;stroke: #3a3632;stroke-linecap: round;stroke-linejoin: round;stroke-width: 20px"/>
      <path d="M678.73,431a48.68,48.68,0,0,0,13.72,19.79" style="fill: none;stroke: #3a3632;stroke-linecap: round;stroke-linejoin: round;stroke-width: 20px"/>
      <path d="M144,380.08c-7,1.93-15.43,5.47-15.6,12.11,3.62,2,8.2,1.84,12.46,1.53,55.62-4.06,111.09-15.28,166.69-11l-15.72,34c19.74,6.35,40.69-3.86,59.86-11.48A255.33,255.33,0,0,1,456,387.7a68.07,68.07,0,0,0-13.78,35.74c38.53-1.55,72.6-26.07,111.16-27,17.43-.41,37,3.55,50.7-6.23,1-.75,2.12-1.79,1.89-3s-1.65-1.83-2.91-2.24c-32.57-10.46-68.46,15.92-101.8,7.65-1.8-.45-3.74-1.11-4.63-2.59-1.25-2.08.13-4.57.83-6.85,2.49-8-4.33-16.46-12.85-19.62s-18.15-2.33-27.28-1.22A511.13,511.13,0,0,0,404,371.84c-17.56,4.08-36.19,9.1-53.43,4-2.15-.63-4.56-1.76-4.84-3.78-.32-2.25,2.18-4,2.9-6.14,1.72-5.2-6.49-8.12-12.5-8.25a261.67,261.67,0,0,0-68.93,7.65c-.47-2.86-.14-9.49-3.39-11.2s-11.73,1.32-15.32,2q-17.84,3.3-35.54,7.11t-35.28,8.11C167.72,373.78,154.16,380.08,144,380.08Z" style="fill: #fff"/>
    </g>
    <g id="layer5">
      <g id="g986">
        <path id="rect981" d="M777.3,1061.67H658c-116.22,0-210.43-94.21-210.43-210.43V731.58M659.77,944.15l138.52,117.52L659.77,1179.2" style="fill: none;stroke: #231f20;stroke-linecap: round;stroke-linejoin: round;stroke-width: 24px"/>
      </g>
    </g>
    <g>
      <rect x="903.51" y="1620.21" width="932.09" height="326.06" rx="57.26" style="fill: #231f20"/>
      <rect x="903.51" y="57.13" width="932.09" height="1809.19" rx="57.26" style="fill: #fff;stroke: #231f20;stroke-miterlimit: 15.118109703064;stroke-width: 24px"/>
      <g>
        <rect x="993.52" y="769.55" width="68.62" height="641.52" rx="9.54" style="fill: none;stroke: #231f20;stroke-miterlimit: 15.118109703064;stroke-width: 24px"/>
        <rect x="993.52" y="193.69" width="68.62" height="400.23" rx="9.54" style="fill: none;stroke: #231f20;stroke-miterlimit: 15.118109703064;stroke-width: 24px"/>
      </g>
      <line x1="903.51" y1="686.77" x2="1835.6" y2="686.77" style="fill: #fff;stroke: #231f20;stroke-miterlimit: 15.118109703064;stroke-width: 24px"/>
    </g>
  </g>
</svg>
