<?xml version="1.0" encoding="UTF-8"?>
<svg width="1924" height="1484.3" data-name="Layer 1" version="1.1" viewBox="0 0 1924.0016 1484.298" xmlns="http://www.w3.org/2000/svg" xmlns:cc="http://creativecommons.org/ns#" xmlns:dc="http://purl.org/dc/elements/1.1/" xmlns:rdf="http://www.w3.org/1999/02/22-rdf-syntax-ns#">
<path d="m1249.3 89.703-33.17-56.4c-15.35-26.35-55.34-24.93-81.29-13.57l-7.48 3.45c-4.27 1.57-8.31 4.78-11.67 9.82l-199.33 299.14c-13.08 19.63-6 52.79 13.07 60.86l268.42 113.75 13.75 0.59 229.25-67.06z" fill="#915524"/>
<path d="m1197.9 506.23-268.43-113.76c-19-8.06-26.15-41.22-13.07-60.86l199.33-299.13c14.07-21.12 40-10.12 44.91 19l69.1 412.89c4.54 27.13-12.82 49.92-31.84 41.86z" fill="none" stroke="#231f20" stroke-miterlimit="10" stroke-width="24px"/>
<path d="m1211.6 506.82 229.23-66.54-224.7-407.51c-15.35-26.35-62.84-20.95-88.8-9.59" fill="none" stroke="#231f20" stroke-linejoin="round" stroke-width="24px"/>
<path d="m649.05 120.24-33.18-56.4c-15.35-26.35-55.33-24.93-81.28-13.57l-7.49 3.46c-4.27 1.57-8.31 4.78-11.67 9.82l-199.32 299.13c-13.09 19.63-6 52.79 13.06 60.86l268.43 113.75 13.74 0.59 229.26-67.06z" fill="#915524"/>
<path d="m597.62 536.77-268.42-113.76c-19-8.06-26.15-41.22-13.07-60.86l199.32-299.13c14.07-21.12 40-10.12 44.92 19l69.1 412.89c4.53 27.13-12.82 49.92-31.85 41.86z" fill="none" stroke="#231f20" stroke-miterlimit="10" stroke-width="24px"/>
<path d="m611.37 537.36 229.23-66.54-224.71-407.51c-15.34-26.35-62.84-20.95-88.79-9.59" fill="none" stroke="#231f20" stroke-linejoin="round" stroke-width="24px"/>
<path d="m1e3 329.74-50.52-80c-23.39-37.35-80.08-35.33-116.24-19.23l-10.42 4.9c-6 2.22-11.51 6.77-16 13.92l-264.82 424.07c-17.39 27.83-5.27 74.83 22.24 86.26l388 161.25 19.56 0.84 321.47-95.07z" fill="#915524"/>
<path d="m952.21 920.14-388-161.25c-27.51-11.43-39.63-58.44-22.24-86.27l264.93-424c18.7-29.94 56.24-14.34 64.93 27l123.09 585.27c8.08 38.41-15.2 70.71-42.71 59.25z" fill="none" stroke="#231f20" stroke-miterlimit="10" stroke-width="24px"/>
<path d="m971.77 921.01 321.47-94.33-343.72-577.64c-23.39-37.35-90.5-29.69-126.66-13.59" fill="none" stroke="#231f20" stroke-linejoin="round" stroke-width="24px"/>
<path d="m1640 450.57-47.11-80.1c-21.79-37.41-78.57-35.39-115.42-19.26l-10.62 4.93c-6.06 2.22-11.8 6.79-16.57 13.95l-283 424.75c-18.58 27.88-8.47 75 18.55 86.41l381.17 161.5 19.51 0.84 325.49-95.24z" fill="#915524"/>
<path d="m1567 1042-381.15-161.53c-27-11.45-37.13-58.53-18.55-86.41l283-424.75c20-30 56.85-14.36 63.78 27l98.12 586.27c6.45 38.56-18.2 70.87-45.2 59.42z" fill="none" stroke="#231f20" stroke-miterlimit="10" stroke-width="24px"/>
<path d="m1586.5 1042.8 325.5-94.49-319.07-578.63c-21.79-37.41-89.23-29.74-126.08-13.61" fill="none" stroke="#231f20" stroke-linejoin="round" stroke-width="24px"/>
<path d="m444.32 688.4-57.26-75.26c-26.53-35.18-82.83-28.26-117.46-9.09l-10 5.79c-5.75 2.73-10.87 7.75-14.71 15.26l-227.16 445.35c-14.91 29.23 1.23 75 29.63 84l400.53 127 19.55-0.85 312-122.57z" fill="#915524"/>
<path d="m447.83 1280.8-400.54-127c-28.39-9-44.54-54.78-29.63-84l227.2-445.39c16-31.44 54.78-19.15 67 21.26l173.34 572.41c11.4 37.53-8.98 71.72-37.37 62.72z" fill="none" stroke="#231f20" stroke-miterlimit="10" stroke-width="24px"/>
<path d="m467.38 1279.9 312.09-121.82-392.47-545.69c-26.54-35.18-92.73-21.74-127.37-2.57" fill="none" stroke="#231f20" stroke-linejoin="round" stroke-width="24px"/>
<path d="m1185.9 801.97-63.25-82.95c-29.31-38.77-92.32-28.9-131.22-6l-11.19 6.89c-6.46 3.3-12.24 9.15-16.6 17.78l-258.44 511.45c-17 33.57 0.63 84.69 32.28 93.82l446.54 128.83 21.86-1.68 350-149.84z" fill="#915524"/>
<path d="m1183.9 1471-446.48-128.87c-31.66-9.13-49.24-60.25-32.28-93.82l258.43-511.39c18.24-36.1 61.43-23.64 74.71 21.56l188 640.27c12.39 42.02-10.72 81.44-42.38 72.25z" fill="none" stroke="#231f20" stroke-miterlimit="10" stroke-width="24px"/>
<path d="m1205.8 1469.3 350.1-149-433.29-602.08c-29.31-38.78-103.44-21.18-142.35 1.74" fill="none" stroke="#231f20" stroke-linejoin="round" stroke-width="24px"/>
</svg>
