<?xml version="1.0" encoding="UTF-8"?>
<svg width="1904.6" height="1931.3" data-name="Layer 1" version="1.1" viewBox="0 0 1904.59 1931.3462" xmlns="http://www.w3.org/2000/svg" xmlns:cc="http://creativecommons.org/ns#" xmlns:dc="http://purl.org/dc/elements/1.1/" xmlns:rdf="http://www.w3.org/1999/02/22-rdf-syntax-ns#">
<path d="m953.02 1919.3c432.16 0 939.57-229.94 939.57-752.27 0-123-420.67-236.12-939.58-236.12h-1.43c-518.91 0-939.58 113.09-939.58 236.12 0 522.33 507.42 752.27 939.58 752.27" fill="#fff" stroke="#231f20" stroke-miterlimit="10" stroke-width="24px"/>
<path d="m947.34 1711.3v-169.26q-47.25 36.27-63.61 36.27-7.81 0-13.86-6.23a20.08 20.08 0 0 1 -6 -14.42q0-9.48 6-14t21-11.53q22.5-10.61 36-22.32a152.5 152.5 0 0 0 23.9 -26.22q10.41-14.52 13.58-17.86t11.9-3.35a19 19 0 0 1 15.81 7.63q6 7.62 6 21v213q0 37.38-25.48 37.38-11.34 0-18.23-7.62t-7.01-22.47z" fill="#231f20"/>
<path d="m1831.8 1159.9c0 59-393.42 146.31-878.73 146.31h-1.54c-485.31 0.03-878.72-87.31-878.72-146.31" fill="none" stroke="#231f20" stroke-linecap="round" stroke-miterlimit="10" stroke-width="24px"/>
<g transform="translate(-18.42 -18.104)">
<path d="m1065 508.76c133.31-68.72 284.43-49.82 284.43-49.82l-47.22 217c-123.67 144.28-62.5 284-131.49 419.65-88.22 173.5-314.82 147.13-396.54 8.79-45.54-77.07-39.86-197.49-10.52-290.61 48.82-154.77 168.05-236.3 301.34-305.01z" fill="#fff" stroke="#231f20" stroke-miterlimit="10" stroke-width="24px"/>
<path d="m707 651-68.4-126.17 143.88-39.27-62-110 111.18-59.8l-74.66-148.61 114.11-0.05-41.35-114.68c-5.54-1.94-11-4-16.6-5.84-104.97-28.58-204.97-20.99-296.38 30.72-96.28 54.45-148.61 135.33-146.14 244.26 3.36 147.13 129.9 290.14 305.76 324.8 10.19 2.01 30.6 4.64 30.6 4.64z" fill="#fff" stroke="#010101" stroke-miterlimit="10" stroke-width="24px"/>
<path d="m1575.6 226.5c-24.38-45.15-66-70-115.3-84.92-61-18.44-124.67-20-189.34-13.36-93.07 9.52-182.36 33.66-266.27 79.24l112.7 46.48-76.66 84.52 160.25 44.6-30.46 122.51 123.09 28-67.63 132.97 139.35 34.17c52-42.63 96.67-91.76 134.74-146.56 42.88-61.69 76.72-126.79 90.24-199.27 8.32-45 6.81-88.68-14.72-128.38z" fill="#fff" stroke="#010101" stroke-miterlimit="10" stroke-width="24px"/>
<path d="m1060.2 914c-12.71 74.39-25.35 180.66-126.27 159-86.5-14.42-93.71-115.33-86.5-187.42 14.42-79.29 64.88-173 157.69-174.8 18.92 0 36.94 5.4 51.36 16.22 21.62 21.62 30.25 41 30.25 60.17s-10.85 35-26.53 126.83z" fill="#f7d220"/>
</g>
</svg>
