<?xml version="1.0" encoding="UTF-8"?>
<svg width="1904.6" height="1931.3" data-name="Layer 1" version="1.1" viewBox="0 0 1904.59 1931.3462" xmlns="http://www.w3.org/2000/svg" xmlns:cc="http://creativecommons.org/ns#" xmlns:dc="http://purl.org/dc/elements/1.1/" xmlns:rdf="http://www.w3.org/1999/02/22-rdf-syntax-ns#">
<path d="m953.02 1919.3c432.16 0 939.57-229.94 939.57-752.27 0-123-420.67-236.12-939.58-236.12h-1.43c-518.91 0-939.58 113.09-939.58 236.12 0 522.33 507.42 752.27 939.58 752.27" fill="#fff" stroke="#231f20" stroke-miterlimit="10" stroke-width="24px"/>
<path d="m944.18 1572.2q17.11 0 29.48-10t12.37-28.83a34.46 34.46 0 0 0 -9.86 -24.65q-9.86-10.32-26.6-10.32-11.34 0-18.69 3.16a30.11 30.11 0 0 0 -11.63 8.37 63.18 63.18 0 0 0 -8.09 13.39q-3.81 8.19-7 15.44a13.09 13.09 0 0 1 -6.7 6.14 26.31 26.31 0 0 1 -11.16 2.23q-7.44 0-13.67-6t-6.23-16.09q0-9.67 5.86-20.37a74.27 74.27 0 0 1 17.11 -20.37q11.25-9.66 28-15.53a112.83 112.83 0 0 1 37.41 -5.89 104.39 104.39 0 0 1 32.92 4.93 77 77 0 0 1 25.86 14.23 61.47 61.47 0 0 1 16.55 21.58 63.06 63.06 0 0 1 5.58 26.41q0 18.6-8.09 31.9t-23.16 26a102.24 102.24 0 0 1 24.46 17.85 66.71 66.71 0 0 1 20 48.55 82.21 82.21 0 0 1 -6.79 32.73 83.35 83.35 0 0 1 -20 28.18 95.24 95.24 0 0 1 -31.34 19.35 110.8 110.8 0 0 1 -40.08 7q-22.32 0-40-8t-29.11-20a91.15 91.15 0 0 1 -17.3 -24.83q-5.87-12.84-5.86-21.21 0-10.79 7-17.39a24.31 24.31 0 0 1 17.39 -6.6 18.44 18.44 0 0 1 10 3.07 14.59 14.59 0 0 1 6.33 7.35q9.66 25.85 20.74 38.41t31.15 12.55a46.86 46.86 0 0 0 22.23 -5.67 46.34 46.34 0 0 0 17.67 -16.84q7-11.16 7-25.85 0-21.76-11.9-34.13t-33.11-12.37q-3.72 0-11.53 0.74t-10 0.75q-10.23 0-15.81-5.12t-5.58-14.23a17.74 17.74 0 0 1 6.7 -14.41q6.69-5.49 19.9-5.49z" fill="#231f20"/>
<path d="m1831.8 1159.9c0 59-393.42 146.31-878.73 146.31h-1.54c-485.31 0.03-878.72-87.31-878.72-146.31" fill="none" stroke="#231f20" stroke-linecap="round" stroke-miterlimit="10" stroke-width="24px"/>
<g transform="translate(-18.42 -18.104)">
<path d="m1065 508.76c133.31-68.72 284.43-49.82 284.43-49.82l-47.22 217c-123.67 144.28-62.5 284-131.49 419.65-88.22 173.5-314.82 147.13-396.54 8.79-45.54-77.07-39.86-197.49-10.52-290.61 48.82-154.77 168.05-236.3 301.34-305.01z" fill="#fff" stroke="#231f20" stroke-miterlimit="10" stroke-width="24px"/>
<path d="m707 651-68.4-126.17 143.88-39.27-62-110 111.18-59.8l-74.66-148.61 114.11-0.05-41.35-114.68c-5.54-1.94-11-4-16.6-5.84-104.97-28.58-204.97-20.99-296.38 30.72-96.28 54.45-148.61 135.33-146.14 244.26 3.36 147.13 129.9 290.14 305.76 324.8 10.19 2.01 30.6 4.64 30.6 4.64z" fill="#fff" stroke="#010101" stroke-miterlimit="10" stroke-width="24px"/>
<path d="m1575.6 226.5c-24.38-45.15-66-70-115.3-84.92-61-18.44-124.67-20-189.34-13.36-93.07 9.52-182.36 33.66-266.27 79.24l112.7 46.48-76.66 84.52 160.25 44.6-30.46 122.51 123.09 28-67.63 132.97 139.35 34.17c52-42.63 96.67-91.76 134.74-146.56 42.88-61.69 76.72-126.79 90.24-199.27 8.32-45 6.81-88.68-14.72-128.38z" fill="#fff" stroke="#010101" stroke-miterlimit="10" stroke-width="24px"/>
<path d="m1060.2 914c-12.71 74.39-25.35 180.66-126.27 159-86.5-14.42-93.71-115.33-86.5-187.42 14.42-79.29 64.88-173 157.69-174.8 18.92 0 36.94 5.4 51.36 16.22 21.62 21.62 30.25 41 30.25 60.17s-10.85 35-26.53 126.83z" fill="#f7d220"/>
</g>
</svg>
