<svg id="Layer_1" data-name="Layer 1" xmlns="http://www.w3.org/2000/svg" viewBox="0 0 2000 1735.22"><g id="layer3"><path id="path916" d="M302.7,636.61,84.18,660.89c-85.41,9.49-86,140.45-9.34,168.09L302.7,911.16Zm1394.6,0,218.52,24.28c85.41,9.49,86,140.45,9.34,168.09L1697.3,911.16Zm0-209.61V1517.68a200.2,200.2,0,0,1-200.64,200.63H503.34A200.2,200.2,0,0,1,302.7,1517.68V427Z" style="fill:#fff;stroke:#231f20;stroke-linecap:round;stroke-linejoin:round;stroke-width:24px"/></g><g id="g864"><path id="path1510" d="M998.37,176.08c-255.81.41-502.79,97.31-695.18,250H1697.3c-192.89-153.08-440.62-250-697.06-250Z" style="fill:#fff;fill-opacity:0.995950996875763;stroke:#221f1f;stroke-linecap:round;stroke-linejoin:round;stroke-width:24px;opacity:0.990000009536743;isolation:isolate"/><path id="path1507" d="M1166.92,188.06c11.6-83.36-53.61-159.45-145.64-170a187.16,187.16,0,0,0-21-1.19h-1.19c-92.76.58-167.44,69.16-166.8,153.18a138.59,138.59,0,0,0,1.32,18" style="fill:none;stroke:#221f1f;stroke-linecap:round;stroke-linejoin:round;stroke-width:24px;opacity:0.990000009536743;isolation:isolate"/></g><circle cx="729.2" cy="1109.28" r="49.18" style="fill:#fff;stroke:#221f1f;stroke-linecap:round;stroke-linejoin:round;stroke-width:22.8227448868813px"/><circle cx="1044.87" cy="808.4" r="57.61" style="fill:#fff;stroke:#221f1f;stroke-linecap:round;stroke-linejoin:round;stroke-width:22.8227448868813px"/><circle cx="1242.11" cy="978.16" r="26.79" style="fill:#221f1f"/><circle cx="970.58" cy="1165.2" r="26.79" style="fill:#221f1f"/><circle cx="795.89" cy="856.74" r="26.79" style="fill:#221f1f"/><circle cx="1200.01" cy="1254.65" r="42.1" style="fill:#fff;stroke:#221f1f;stroke-linecap:round;stroke-linejoin:round;stroke-width:22.8227448868813px"/><path d="M475.19,626.26c43.24,59,107.45,59,150.7,0h0c43.24-59,107.45-59,150.69,0h0c43.24,59,107.45,59,150.69,0h0c43.24-59,107.45-59,150.69,0h0c43.25,59,107.46,59,150.7,0h0c43.24-59,107.45-59,150.69,0h0c43.24,59,107.45,59,150.69,0" style="fill:none;stroke:#221f1f;stroke-linecap:round;stroke-linejoin:round;stroke-width:24px"/></svg>