<svg xmlns="http://www.w3.org/2000/svg" height="1438.381" width="1981.381"  xmlns:v="https://vecta.io/nano"><style><![CDATA[.B{stroke:#231f20}.C{stroke-linejoin:round}.D{stroke-width:22.823}.E{stroke-linecap:round}]]></style><g fill="#fff" class="B C"><path d="M1640.04 589.1l253.4 28.15c99 11 99.72 162.87 10.83 194.93l-264.23 95.3zm-1298.7 0l-253.4 28.15c-99 11-99.72 162.87-10.83 194.93l264.23 95.3zm1298.7-195.2v845.65a186.43 186.43 0 0 1-186.84 186.84h-925a186.43 186.43 0 0 1-186.86-186.84V393.9z" stroke-width="24"/><path d="M989.17 160.23c-238.2.38-468.2 90.62-647.38 232.8h1298.25c-179.62-142.5-410.35-232.8-649.12-232.8z" opacity="1" fill-opacity=".996" class="D"/></g><path d="M1146.13 171.38c10.8-77.62-49.92-148.48-135.63-158.26A170.72 170.72 0 0 0 990.92 12h-1.12c-86.38.54-155.92 64.4-155.32 142.65a128.3 128.3 0 0 0 1.21 16.72" opacity="1" fill="none" class="B C D E"/><g fill="#fff" class="B C D"><circle cx="734.35" cy="1017.11" r="46.11"/><circle cx="1030.31" cy="735.02" r="54.02"/></g><g fill="#231f20"><circle cx="1215.22" cy="894.17" r="25.12"/><circle cx="960.65" cy="1069.53" r="25.12"/><circle cx="796.87" cy="780.34" r="25.12"/></g><g class="B C"><circle cx="1175.75" cy="1153.4" r="39.47" fill="#fff" class="D"/><path d="M496.2 564.25c40.54 55.28 100.74 55.28 141.3 0h0c40.54-55.27 100.74-55.27 141.28 0h0c40.54 55.28 100.74 55.28 141.28 0h0c40.54-55.27 100.74-55.27 141.28 0h0c40.54 55.28 100.74 55.28 141.28 0h0c40.54-55.27 100.74-55.27 141.28 0h0c40.55 55.28 100.75 55.28 141.3 0" fill="none" stroke-width="24" class="E"/></g></svg>