<svg id="Layer_1" data-name="Layer 1" xmlns="http://www.w3.org/2000/svg" viewBox="0 0 2000 2000"><path d="M350.6,371.51V106.73C350.6,75.4,374.93,50,405,50H1614.33c30,0,54.36,25.4,54.36,56.73V371.51" style="fill:#fff;stroke:#3a3632;stroke-miterlimit:15.118109703064;stroke-width:20px"/><circle cx="523" cy="185.76" r="50.25" style="fill:#e6e7e8;stroke:#3a3632;stroke-miterlimit:15.118109703064;stroke-width:20px"/><circle cx="689.84" cy="185.76" r="50.25" style="fill:#e6e7e8;stroke:#3a3632;stroke-miterlimit:15.118109703064;stroke-width:20px"/><circle cx="1479.15" cy="185.76" r="50.25" style="fill:#e6e7e8;stroke:#3a3632;stroke-miterlimit:15.118109703064;stroke-width:20px"/><circle cx="1314.74" cy="185.76" r="50.25" style="fill:#e6e7e8;stroke:#3a3632;stroke-miterlimit:15.118109703064;stroke-width:20px"/><circle cx="1000" cy="185.76" r="50.25" style="fill:#e6e7e8;stroke:#3a3632;stroke-miterlimit:15.118109703064;stroke-width:20px"/><rect x="273.76" y="371.51" width="1452.47" height="1578.49" rx="56.73" style="fill:#fff;stroke:#3a3632;stroke-miterlimit:15.118109703064;stroke-width:20px"/><line x1="279.16" y1="1654.33" x2="1720.84" y2="1654.33" style="fill:none;stroke:#3a3632;stroke-miterlimit:15.118109703064;stroke-width:20px"/><rect x="364.47" y="590.47" width="1271.06" height="88.16" rx="18.91" style="fill:none;stroke:#3a3632;stroke-miterlimit:15.118109703064;stroke-width:20px"/><line x1="279.16" y1="489.62" x2="1720.84" y2="489.62" style="fill:none;stroke:#3a3632;stroke-miterlimit:15.118109703064;stroke-width:20px"/><line x1="475.12" y1="340.01" x2="895.4" y2="340.01" style="fill:none;stroke:#3a3632;stroke-linecap:round;stroke-miterlimit:15.118109703064;stroke-width:37.8187366634573px"/><line x1="1104.6" y1="340.01" x2="1524.88" y2="340.01" style="fill:none;stroke:#3a3632;stroke-linecap:round;stroke-miterlimit:15.118109703064;stroke-width:37.8187366634573px"/><rect x="472.75" y="779.47" width="1054.5" height="774.01" rx="113.46" style="fill:#a6a8ab;stroke:#3a3632;stroke-linecap:round;stroke-linejoin:round;stroke-width:20px;isolation:isolate;opacity:0.991999983787537"/><line x1="475.84" y1="1318.54" x2="1527.25" y2="1318.54" style="fill:none;stroke:#3a3632;stroke-linecap:round;stroke-miterlimit:15.118109703064;stroke-width:20px"/><line x1="576.34" y1="1318.54" x2="576.34" y2="1541.77" style="fill:none;stroke:#3a3632;stroke-linecap:round;stroke-miterlimit:15.118109703064;stroke-width:20px"/><line x1="718.43" y1="1318.54" x2="718.43" y2="1541.77" style="fill:none;stroke:#3a3632;stroke-linecap:round;stroke-miterlimit:15.118109703064;stroke-width:20px"/><line x1="860.53" y1="1318.54" x2="860.53" y2="1541.77" style="fill:none;stroke:#3a3632;stroke-linecap:round;stroke-miterlimit:15.118109703064;stroke-width:20px"/><line x1="1002.62" y1="1318.54" x2="1002.62" y2="1541.77" style="fill:none;stroke:#3a3632;stroke-linecap:round;stroke-miterlimit:15.118109703064;stroke-width:20px"/><line x1="1144.72" y1="1318.54" x2="1144.72" y2="1541.77" style="fill:none;stroke:#3a3632;stroke-linecap:round;stroke-miterlimit:15.118109703064;stroke-width:20px"/><line x1="1286.81" y1="1318.54" x2="1286.81" y2="1541.77" style="fill:none;stroke:#3a3632;stroke-linecap:round;stroke-miterlimit:15.118109703064;stroke-width:20px"/><line x1="1428.9" y1="1318.54" x2="1428.9" y2="1541.77" style="fill:none;stroke:#3a3632;stroke-linecap:round;stroke-miterlimit:15.118109703064;stroke-width:20px"/><path d="M702.51,1025.61H647.83q-11.85,0-16.91-5.31t-5.07-16.9V868.87q0-11.83,5.19-17t16.79-5.19h58A136.28,136.28,0,0,1,728,848.24a47.39,47.39,0,0,1,16.84,6.11,44.18,44.18,0,0,1,11.23,9.58,42.27,42.27,0,0,1,7.45,12.82,42.85,42.85,0,0,1,2.56,14.83q0,26.85-26.85,39.31,35.28,11.22,35.28,43.7a49.18,49.18,0,0,1-7.69,27,46.24,46.24,0,0,1-20.76,17.76,73.88,73.88,0,0,1-18.8,4.82A190.89,190.89,0,0,1,702.51,1025.61Zm-40.4-151.73v46.26h33.2q13.56,0,20.94-2.56a20,20,0,0,0,11.29-9.77,22,22,0,0,0,3.05-11.47q0-13.55-9.64-18t-29.42-4.45Zm37.72,72.26H662.11v52.25h38.94q36.74,0,36.74-26.49,0-13.54-9.52-19.65T699.83,946.14Z" style="fill:#fff"/><path d="M854.61,949.07H841.92v57.5q0,11.35-5,16.72a17,17,0,0,1-13.06,5.37q-8.67,0-13.43-5.61t-4.76-16.48V868.87q0-11.72,5.25-17t17-5.25h59a179.46,179.46,0,0,1,20.87,1,52.63,52.63,0,0,1,15.63,4.22A45.06,45.06,0,0,1,938.23,862a44.39,44.39,0,0,1,9.83,15.32,51,51,0,0,1,3.36,18.49q0,20-11.3,32t-34.24,17a66.4,66.4,0,0,1,18.44,15.14A153.24,153.24,0,0,1,940,981.24a156.8,156.8,0,0,1,10.74,20.39q3.85,9.09,3.85,12.51a12.76,12.76,0,0,1-2.26,7,15.78,15.78,0,0,1-6.16,5.49,19.51,19.51,0,0,1-9,2,17.61,17.61,0,0,1-10.25-2.86,27.61,27.61,0,0,1-7.14-7.27q-3-4.39-8.12-12.94l-14.53-24.17q-7.8-13.3-14-20.26t-12.51-9.52Q864.25,949.08,854.61,949.07Zm20.76-75.19H841.92v49.19h32.47a90.69,90.69,0,0,0,22-2.26q8.91-2.25,13.61-7.69t4.7-15a23.11,23.11,0,0,0-3.78-13.12,22.87,22.87,0,0,0-10.5-8.49Q894,873.89,875.37,873.88Z" style="fill:#fff"/><path d="M1064.45,843.61q27.84,0,47.79,11.29a73.23,73.23,0,0,1,30.22,32.1q10.24,20.82,10.25,48.89a119.36,119.36,0,0,1-5.62,37.72,81.51,81.51,0,0,1-16.84,29.42,73.54,73.54,0,0,1-27.59,19q-16.37,6.6-37.47,6.59t-37.6-6.77a74.54,74.54,0,0,1-27.71-19.1,81.64,81.64,0,0,1-16.79-29.67,119.84,119.84,0,0,1-5.67-37.47,115.66,115.66,0,0,1,5.92-37.85,81,81,0,0,1,17.15-29.29,74.19,74.19,0,0,1,27.34-18.5Q1043.94,843.61,1064.45,843.61Zm51.52,92q0-19.67-6.35-34.06t-18.13-21.79a49.86,49.86,0,0,0-27-7.39,49.08,49.08,0,0,0-20.08,4.09,44.25,44.25,0,0,0-15.87,11.91q-6.65,7.8-10.5,20a90.38,90.38,0,0,0-3.84,27.29,92.48,92.48,0,0,0,3.84,27.58,56.57,56.57,0,0,0,10.87,20.45A45.75,45.75,0,0,0,1045,995.83a50.87,50.87,0,0,0,45.53-2.93q11.67-7,18.56-21.49T1116,935.65Z" style="fill:#fff"/><path d="M1185.18,1006.57v-141q0-11,5-16.48a16.68,16.68,0,0,1,12.93-5.49,17.28,17.28,0,0,1,13.25,5.43q5.07,5.43,5.07,16.54v141q0,11.11-5.07,16.6a17.19,17.19,0,0,1-13.25,5.49,16.66,16.66,0,0,1-12.87-5.55Q1185.18,1017.56,1185.18,1006.57Z" style="fill:#fff"/><path d="M1297.49,865.58V995.83H1371q8.79,0,13.49,4.27a13.92,13.92,0,0,1,4.7,10.74,13.55,13.55,0,0,1-4.64,10.68q-4.63,4.1-13.55,4.09h-87.52q-11.85,0-17-5.25t-5.19-17V865.58q0-11,4.94-16.48a16.67,16.67,0,0,1,13-5.49,17.28,17.28,0,0,1,13.25,5.43Q1297.49,854.47,1297.49,865.58Z" style="fill:#fff"/><path d="M768,1075.58v130.25h73.49q8.79,0,13.49,4.27a13.92,13.92,0,0,1,4.7,10.74,13.55,13.55,0,0,1-4.64,10.68q-4.63,4.1-13.55,4.09H754q-11.85,0-17-5.25t-5.19-17V1075.58q0-11,4.94-16.48a16.67,16.67,0,0,1,13-5.49,17.28,17.28,0,0,1,13.25,5.43Q768,1064.47,768,1075.58Z" style="fill:#fff"/><path d="M949.77,1053.61q27.83,0,47.79,11.29a73.22,73.22,0,0,1,30.21,32.1q10.26,20.82,10.25,48.89a119.65,119.65,0,0,1-5.61,37.72,81.53,81.53,0,0,1-16.85,29.42,73.5,73.5,0,0,1-27.58,19q-16.37,6.6-37.48,6.59t-37.6-6.77a74.62,74.62,0,0,1-27.71-19.1,81.62,81.62,0,0,1-16.78-29.67,119.55,119.55,0,0,1-5.68-37.47,115.66,115.66,0,0,1,5.92-37.85,81.13,81.13,0,0,1,17.15-29.29,74.22,74.22,0,0,1,27.35-18.5Q929.26,1053.61,949.77,1053.61Zm51.51,92q0-19.67-6.35-34.06t-18.12-21.79a49.89,49.89,0,0,0-27-7.39,49,49,0,0,0-20.08,4.09,44.08,44.08,0,0,0-15.87,11.91q-6.66,7.8-10.5,19.95a90.37,90.37,0,0,0-3.85,27.29,92.47,92.47,0,0,0,3.85,27.58,56.41,56.41,0,0,0,10.86,20.45,45.69,45.69,0,0,0,16.12,12.15,50.87,50.87,0,0,0,45.53-2.93q11.65-7,18.55-21.49T1001.28,1145.65Z" style="fill:#fff"/><path d="M1198.79,1207.41l-28.93-107.3-29.3,107.3q-3.42,12.21-5.43,17.52a23.12,23.12,0,0,1-7,9.52q-5,4.21-13.3,4.21a21.85,21.85,0,0,1-11-2.5,19.23,19.23,0,0,1-7-7.08,44.09,44.09,0,0,1-4.39-10.86q-1.71-6.29-3.06-11.66l-29.78-120.48q-2.68-10.5-2.69-16a15.7,15.7,0,0,1,4.89-11.71,16.59,16.59,0,0,1,12.08-4.76q9.89,0,13.31,6.34t6,18.44l23.44,104.49,26.24-97.78A155.9,155.9,0,0,1,1148,1068a24.59,24.59,0,0,1,7.57-10.13q5.25-4.28,14.28-4.27t14.22,4.45a24.29,24.29,0,0,1,7,9.71q2,5.25,5.25,17.33l26.49,97.78,23.44-104.49a123.82,123.82,0,0,1,3.23-12.82,20.62,20.62,0,0,1,5.25-8.3q3.72-3.66,10.8-3.66a16.8,16.8,0,0,1,12,4.7,15.58,15.58,0,0,1,4.94,11.77q0,5-2.68,16l-29.79,120.48q-3,12.21-5.07,17.88a23.79,23.79,0,0,1-6.83,10q-4.83,4.27-13.61,4.27-8.31,0-13.31-4.15a22.36,22.36,0,0,1-7-9.34Q1202.33,1220,1198.79,1207.41Z" style="fill:#fff"/></svg>