<svg id="Layer_1" data-name="Layer 1" xmlns="http://www.w3.org/2000/svg" viewBox="0 0 2000 2000"><circle cx="1000" cy="1003.59" r="720.08" style="fill:#e6e7e8;stroke:#3a3632;stroke-linecap:round;stroke-miterlimit:10;stroke-width:20px"/><rect x="796.38" y="261.01" width="407.21" height="1485.15" rx="74.15" transform="translate(2003.57 3.6) rotate(90)" style="fill:#e6e7e8;stroke:#3a3632;stroke-linecap:round;stroke-miterlimit:10;stroke-width:20px"/><line x1="1602.17" y1="1003.59" x2="1441.66" y2="1003.59" style="fill:#e6e7e8;stroke:#3a3632;stroke-linecap:round;stroke-miterlimit:10;stroke-width:20px"/><line x1="1409.57" y1="1712.98" x2="1485.03" y2="1843.69" style="fill:none;stroke:#3a3632;stroke-linecap:round;stroke-miterlimit:10;stroke-width:20px"/><line x1="159.91" y1="518.56" x2="290.62" y2="594.03" style="fill:none;stroke:#3a3632;stroke-linecap:round;stroke-miterlimit:10;stroke-width:20px"/><line x1="1709.39" y1="1413.15" x2="1840.1" y2="1488.62" style="fill:none;stroke:#3a3632;stroke-linecap:round;stroke-miterlimit:10;stroke-width:20px"/><line x1="159.91" y1="1488.62" x2="290.62" y2="1413.15" style="fill:none;stroke:#3a3632;stroke-linecap:round;stroke-miterlimit:10;stroke-width:20px"/><line x1="1709.39" y1="594.03" x2="1840.1" y2="518.56" style="fill:none;stroke:#3a3632;stroke-linecap:round;stroke-miterlimit:10;stroke-width:20px"/><line x1="514.97" y1="1843.69" x2="590.44" y2="1712.98" style="fill:none;stroke:#3a3632;stroke-linecap:round;stroke-miterlimit:10;stroke-width:20px"/><path d="M851.45,166.16A58.75,58.75,0,0,1,828.19,141Q820,124.63,820,102.67t8.08-38.23a58.13,58.13,0,0,1,23.26-25.06q15.18-8.78,35.74-8.78t35.64,8.78a58.27,58.27,0,0,1,23.16,25.06Q954,80.72,954,102.67T945.79,141a58.75,58.75,0,0,1-23.26,25.15Q907.46,175,887.09,175,866.53,175,851.45,166.16ZM917.34,141q10.88-13.38,10.88-38.34T917.34,64.44q-10.89-13.27-30.25-13.28-19.56,0-30.45,13.28t-10.88,38.23q0,25,10.88,38.34t30.45,13.37Q906.46,154.38,917.34,141Z" style="fill:#3a3632"/><path d="M983.42,170.76a12.91,12.91,0,0,1-3.49-9.39V44.57q0-5.79,3.29-9t9.09-3.2h70.08q12.18,0,12.18,10.39,0,10.17-12.18,10.18h-57.1V91.29h53.11q12.16,0,12.17,10.39,0,10.17-12.17,10.18h-53.11v49.51a13.15,13.15,0,0,1-3.4,9.39,12,12,0,0,1-9.18,3.59A12.39,12.39,0,0,1,983.42,170.76Z" style="fill:#3a3632"/><path d="M1096.43,170.76a12.91,12.91,0,0,1-3.5-9.39V44.57q0-5.79,3.3-9t9.08-3.2h70.08q12.18,0,12.18,10.39,0,10.17-12.18,10.18h-57.1V91.29h53.11q12.18,0,12.18,10.39,0,10.17-12.18,10.18h-53.11v49.51a13.14,13.14,0,0,1-3.39,9.39,12.07,12.07,0,0,1-9.19,3.59A12.37,12.37,0,0,1,1096.43,170.76Z" style="fill:#3a3632"/><path d="M931.12,1824.52a12.78,12.78,0,0,1,3.39,9.29V1952c0,3.73-1.07,6.66-3.19,8.79a11.35,11.35,0,0,1-8.39,3.19,10.69,10.69,0,0,1-8.19-3.19q-3-3.19-3-8.79v-82.25L877.81,1934a19.81,19.81,0,0,1-5.19,6.49,10.68,10.68,0,0,1-6.59,2.1,11,11,0,0,1-6.59-2,18.24,18.24,0,0,1-5.19-6.59l-34.14-63.29V1952a12.15,12.15,0,0,1-3.1,8.69,10.83,10.83,0,0,1-8.28,3.29,10.67,10.67,0,0,1-8.19-3.19c-2-2.13-3-5.06-3-8.79V1833.81a13,13,0,0,1,3.29-9.29,11.67,11.67,0,0,1,8.89-3.49q7.78,0,12.17,8.58l44.33,84.46,44.12-84.46q4.39-8.58,11.78-8.58A12,12,0,0,1,931.12,1824.52Z" style="fill:#3a3632"/><path d="M968.35,1959.59q-3.3-3.19-3.29-9v-116.4q0-5.79,3.29-9t9.08-3.19h72.08c3.86,0,6.85.87,9,2.59a9,9,0,0,1,3.2,7.39,9.51,9.51,0,0,1-3.2,7.69q-3.2,2.68-9,2.69h-59.3v38.74h55.31q5.79,0,9,2.59t3.2,7.59a9,9,0,0,1-3.2,7.39q-3.2,2.6-9,2.59H990.21v41.13h59.3q5.79,0,9,2.7a9.49,9.49,0,0,1,3.2,7.68,9,9,0,0,1-3.2,7.39q-3.2,2.6-9,2.59H977.43Q971.64,1962.78,968.35,1959.59Z" style="fill:#3a3632"/><path d="M1085.94,1959.59q-3.29-3.19-3.29-9v-116.4q0-5.79,3.29-9T1095,1822h39.53q34.55,0,53.61,18.47t19.07,51.81q0,33.54-19.07,52t-53.61,18.46H1095Q1089.24,1962.78,1085.94,1959.59Zm47-17.77q48.52,0,48.52-49.51,0-49.32-48.52-49.32h-24.55v98.83Z" style="fill:#3a3632"/><path d="M538.18,167.42a12.72,12.72,0,0,1,3.4,9.28V293.9a12.87,12.87,0,0,1-3.5,9.38,13.38,13.38,0,0,1-18.26,0,13.06,13.06,0,0,1-3.4-9.38V244.58H444.35V293.9a12.87,12.87,0,0,1-3.5,9.38,12.34,12.34,0,0,1-9.28,3.6,12.1,12.1,0,0,1-9.09-3.6A12.87,12.87,0,0,1,419,293.9V176.7a12.76,12.76,0,0,1,3.39-9.28,12.24,12.24,0,0,1,9.19-3.5,12,12,0,0,1,12.78,12.78v47.12h72.07V176.7a12.72,12.72,0,0,1,3.4-9.28,13.79,13.79,0,0,1,18.36,0Z" style="fill:#3a3632"/><path d="M575.42,303.28a12.87,12.87,0,0,1-3.5-9.38V176.7a12,12,0,0,1,12.78-12.78q6,0,9.49,3.5a12.57,12.57,0,0,1,3.49,9.28V293.9a12.91,12.91,0,0,1-3.49,9.38q-3.5,3.6-9.49,3.6A12.34,12.34,0,0,1,575.42,303.28Z" style="fill:#3a3632"/><path d="M1391.75,302.48c-2.13-2.13-3.2-5.05-3.2-8.78v-117a12,12,0,0,1,12.78-12.78q6,0,9.49,3.5a12.57,12.57,0,0,1,3.49,9.28V284.51h56.1q12,0,12,10.59t-12,10.58h-69.68Q1394.94,305.68,1391.75,302.48Z" style="fill:#3a3632"/><path d="M1518.83,298.69a58.77,58.77,0,0,1-23.26-25.16q-8.19-16.36-8.19-38.33t8.09-38.24a58.1,58.1,0,0,1,23.26-25.05q15.16-8.79,35.74-8.79t35.64,8.79A58.3,58.3,0,0,1,1613.27,197q8.09,16.28,8.08,38.24t-8.18,38.33a58.77,58.77,0,0,1-23.26,25.16q-15.08,8.79-35.44,8.78Q1533.91,307.47,1518.83,298.69Zm65.89-25.16q10.88-13.36,10.88-38.33T1584.72,197q-10.89-13.28-30.25-13.27-19.58,0-30.45,13.27t-10.88,38.24q0,25,10.88,38.33t30.45,13.38Q1573.84,286.91,1584.72,273.53Z" style="fill:#3a3632"/><line x1="29.94" y1="1003.59" x2="180.88" y2="1003.59" style="fill:none;stroke:#3a3632;stroke-linecap:round;stroke-miterlimit:10;stroke-width:20px"/><line x1="1819.13" y1="1003.59" x2="1970.06" y2="1003.59" style="fill:none;stroke:#3a3632;stroke-linecap:round;stroke-miterlimit:10;stroke-width:20px"/></svg>