<svg id="Layer_1" data-name="Layer 1" xmlns="http://www.w3.org/2000/svg" viewBox="0 0 2000 2000"><path d="M1010.15,260.94V76.61c0-21.81,16.94-39.49,37.84-39.49h841.94c20.9,0,37.84,17.68,37.84,39.49V260.94" style="fill:#fff;stroke:#000;stroke-miterlimit:15.118109703064;stroke-width:24px"/><circle cx="1130.18" cy="131.63" r="34.98" style="fill:none;stroke:#000;stroke-miterlimit:15.118109703064;stroke-width:24px"/><circle cx="1246.32" cy="131.63" r="34.98" style="fill:none;stroke:#000;stroke-miterlimit:15.118109703064;stroke-width:24px"/><circle cx="1795.82" cy="131.63" r="34.98" style="fill:none;stroke:#000;stroke-miterlimit:15.118109703064;stroke-width:24px"/><circle cx="1681.36" cy="131.63" r="34.98" style="fill:none;stroke:#000;stroke-miterlimit:15.118109703064;stroke-width:24px"/><circle cx="1462.25" cy="131.63" r="34.98" style="fill:none;stroke:#000;stroke-miterlimit:15.118109703064;stroke-width:24px"/><rect x="956.66" y="260.94" width="1011.17" height="1098.9" rx="35.35" style="fill:#fff;stroke:#000;stroke-miterlimit:15.118109703064;stroke-width:24px"/><line x1="960.42" y1="1154" x2="1964.07" y2="1154" style="fill:none;stroke:#000;stroke-miterlimit:15.118109703064;stroke-width:24px"/><rect x="1019.81" y="413.37" width="884.87" height="61.37" rx="13.16" style="fill:none;stroke:#000;stroke-miterlimit:15.118109703064;stroke-width:24px"/><line x1="960.42" y1="343.17" x2="1964.07" y2="343.17" style="fill:none;stroke:#000;stroke-miterlimit:15.118109703064;stroke-width:24px"/><line x1="1096.84" y1="239.01" x2="1389.43" y2="239.01" style="fill:none;stroke:#000;stroke-linecap:round;stroke-miterlimit:15.118109703064;stroke-width:23.5644733840131px"/><line x1="1535.07" y1="239.01" x2="1827.65" y2="239.01" style="fill:none;stroke:#000;stroke-linecap:round;stroke-miterlimit:15.118109703064;stroke-width:23.5644733840131px"/><rect x="1095.19" y="544.96" width="734.11" height="538.84" rx="70.69" style="fill:#fff;stroke:#000;stroke-miterlimit:15.118109703064;stroke-width:24px"/><line x1="1097.34" y1="920.23" x2="1830.8" y2="920.23" style="fill:none;stroke:#000;stroke-linecap:round;stroke-miterlimit:15.118109703064;stroke-width:24px"/><line x1="1167.31" y1="920.23" x2="1167.31" y2="1075.64" style="fill:none;stroke:#000;stroke-linecap:round;stroke-miterlimit:15.118109703064;stroke-width:24px"/><line x1="1266.23" y1="920.23" x2="1266.23" y2="1075.64" style="fill:none;stroke:#000;stroke-linecap:round;stroke-miterlimit:15.118109703064;stroke-width:24px"/><line x1="1365.15" y1="920.23" x2="1365.15" y2="1075.64" style="fill:none;stroke:#000;stroke-linecap:round;stroke-miterlimit:15.118109703064;stroke-width:24px"/><line x1="1464.07" y1="920.23" x2="1464.07" y2="1075.64" style="fill:none;stroke:#000;stroke-linecap:round;stroke-miterlimit:15.118109703064;stroke-width:24px"/><line x1="1562.99" y1="920.23" x2="1562.99" y2="1075.64" style="fill:none;stroke:#000;stroke-linecap:round;stroke-miterlimit:15.118109703064;stroke-width:24px"/><line x1="1661.91" y1="920.23" x2="1661.91" y2="1075.64" style="fill:none;stroke:#000;stroke-linecap:round;stroke-miterlimit:15.118109703064;stroke-width:24px"/><line x1="1760.84" y1="920.23" x2="1760.84" y2="1075.64" style="fill:none;stroke:#000;stroke-linecap:round;stroke-miterlimit:15.118109703064;stroke-width:24px"/><g id="layer5"><g id="g986"><path id="rect981" d="M1232.07,731.79H946.31a199.93,199.93,0,0,1-167.26-90.4h0m379.32,16.7,86.87,73.7-86.87,73.7" style="fill:none;stroke:#231f20;stroke-linecap:round;stroke-linejoin:round;stroke-width:24px"/></g></g><path d="M882.69,541.61l-28.45,21.78a19.24,19.24,0,0,1-11.75,4.07H75.26a19.26,19.26,0,0,1-11.58-3.94L37,543.51" style="fill:#f1f1f2;stroke:#231f20;stroke-miterlimit:10;stroke-width:16.8836891491864px"/><path d="M855.92,551.9h-794c-24.09,0-37.35-15.84-29.84-34.76L132.22,264.57c4.26-10.75,21.78-19.27,39.23-19.27h575c17.45,0,35,8.52,39.23,19.27L885.76,517.14C893.26,536.06,880,551.9,855.92,551.9Z" style="fill:#f1f1f2;stroke:#231f20;stroke-miterlimit:10;stroke-width:26.0069017410278px"/><path d="M52.76,526.48,146.53,283c3.48-9,18.12-16.23,32.76-16.23H738.55c14.65,0,29.29,7.19,32.77,16.23l92.8,240.13" style="fill:none;stroke:#231f20;stroke-linecap:round;stroke-linejoin:round;stroke-width:8.44184457459322px"/><polygon points="403.81 258.72 337.94 258.72 293.83 293.3 293.83 336.15 319.15 376.38 395.79 376.38 435.53 336.15 435.53 293.3 403.81 258.72" style="fill:#ead39a;stroke:#231f20;stroke-linejoin:round;stroke-width:12px"/><polygon points="624.03 293.3 579.92 258.72 514.05 258.72 482.33 293.3 482.33 336.15 522.07 376.38 598.71 376.38 624.03 336.15 624.03 293.3" style="fill:#ead39a;stroke:#231f20;stroke-linejoin:round;stroke-width:12px"/><polygon points="392.41 365.72 311.21 365.72 253.34 419.19 253.34 462.04 281.54 526.72 379.75 526.72 431.13 462.04 431.13 419.19 392.41 365.72" style="fill:#ead39a;stroke:#231f20;stroke-linejoin:round;stroke-width:12px"/><polygon points="664.52 419.19 606.64 365.72 525.45 365.72 486.73 419.19 486.73 462.04 538.11 526.72 636.32 526.72 664.52 462.04 664.52 419.19" style="fill:#ead39a;stroke:#231f20;stroke-linejoin:round;stroke-width:12px"/><polygon points="403.81 258.72 337.94 258.72 293.83 293.3 319.15 333.53 395.79 333.53 435.53 293.3 403.81 258.72" style="fill:#f9f1c0;stroke:#231f20;stroke-linejoin:round;stroke-width:12px"/><polygon points="579.92 258.72 514.05 258.72 482.33 293.3 522.07 333.53 598.71 333.53 624.03 293.3 579.92 258.72" style="fill:#f9f1c0;stroke:#231f20;stroke-linejoin:round;stroke-width:12px"/><polygon points="392.41 365.72 311.21 365.72 253.34 419.19 281.54 483.87 379.75 483.87 431.13 419.19 392.41 365.72" style="fill:#f9f1c0;stroke:#231f20;stroke-linejoin:round;stroke-width:12px"/><polygon points="606.64 365.72 525.45 365.72 486.73 419.19 538.11 483.87 636.32 483.87 664.52 419.19 606.64 365.72" style="fill:#f9f1c0;stroke:#231f20;stroke-linejoin:round;stroke-width:12px"/><path d="M406,293.3c-1.35,14.23-22,26.39-46.06,26.39s-40.35-12.16-36.61-26.39c3.54-13.46,23.89-23.84,45.61-23.84S407.29,279.84,406,293.3Z" style="fill:#ead39a;stroke:#231f20;stroke-linejoin:round;stroke-width:12px"/><path d="M594.51,293.3c3.75,14.23-12.55,26.39-36.6,26.39s-44.71-12.16-46.06-26.39c-1.28-13.46,15.34-23.84,37.06-23.84S591,279.84,594.51,293.3Z" style="fill:#ead39a;stroke:#231f20;stroke-linejoin:round;stroke-width:12px"/><path d="M394.09,419.19c-2.14,22.58-28.81,42.13-59.41,42.13s-50.25-19.55-44.31-42.13c5.54-21,31.58-37.07,58.5-37.07S396.09,398.15,394.09,419.19Z" style="fill:#ead39a;stroke:#231f20;stroke-miterlimit:10;stroke-width:12px"/><path d="M627.49,419.19c5.94,22.58-13.72,42.13-44.32,42.13s-57.26-19.55-59.4-42.13c-2-21,18.29-37.07,45.22-37.07S622,398.15,627.49,419.19Z" style="fill:#ead39a;stroke:#231f20;stroke-miterlimit:10;stroke-width:12px"/><path d="M331.62,312.12c6.62,4.65,16.54,7.57,28.33,7.57,15.08,0,28.82-4.77,37.31-11.85-6.74-4.73-16.81-7.64-28.31-7.64C354.3,300.2,340.28,304.92,331.62,312.12Z" style="fill:none;stroke:#231f20;stroke-linejoin:round;stroke-width:12px"/><path d="M586.24,312.12c-8.67-7.2-22.68-11.92-37.33-11.92-11.5,0-21.57,2.91-28.31,7.64,8.49,7.08,22.23,11.85,37.31,11.85C569.7,319.69,579.62,316.77,586.24,312.12Z" style="fill:none;stroke:#231f20;stroke-linejoin:round;stroke-width:12px"/><path d="M348.87,412.86c-23.45,0-46.24,12.17-55.38,29.21,6.9,11.45,21.86,19.25,41.19,19.25,24.49,0,46.46-12.52,55.36-29.1C382.94,420.53,367.49,412.86,348.87,412.86Z" style="fill:none;stroke:#231f20;stroke-miterlimit:10;stroke-width:12px"/><path d="M569,412.86c-18.62,0-34.07,7.67-41.17,19.36,8.9,16.58,30.86,29.1,55.35,29.1,19.34,0,34.3-7.8,41.2-19.25C615.23,425,592.44,412.86,569,412.86Z" style="fill:none;stroke:#231f20;stroke-miterlimit:10;stroke-width:12px"/><path d="M282.22,499.33a106.38,106.38,0,0,1,17.88-3.13c6-.59,11.91-.86,17.87-.87s11.92.27,17.88.86a105.41,105.41,0,0,1,17.88,3.14,106.44,106.44,0,0,1-17.88,3.15q-8.94.87-17.88.85t-17.87-.86A107.43,107.43,0,0,1,282.22,499.33Z" style="fill:#231f20"/><path d="M377.66,511.42a61.94,61.94,0,0,1-13.33,3.14,102.87,102.87,0,0,1-13.33.86,101,101,0,0,1-13.33-.85,61.24,61.24,0,0,1-13.33-3.15,60.64,60.64,0,0,1,13.33-3.14,101,101,0,0,1,13.33-.86,102.88,102.88,0,0,1,13.33.87A61.91,61.91,0,0,1,377.66,511.42Z" style="fill:#231f20"/><path d="M622.3,499.33a75.12,75.12,0,0,1-14.81,3.14,126.68,126.68,0,0,1-14.81.86,124.76,124.76,0,0,1-14.81-.85,74.59,74.59,0,0,1-14.81-3.15,73.86,73.86,0,0,1,14.81-3.14,124.78,124.78,0,0,1,14.81-.86,126.69,126.69,0,0,1,14.81.87A74.38,74.38,0,0,1,622.3,499.33Z" style="fill:#231f20"/><path d="M543.23,511.42a44,44,0,0,1,11-3.13,70.94,70.94,0,0,1,11.05-.87,69.6,69.6,0,0,1,11,.86,43.2,43.2,0,0,1,11,3.14,43.64,43.64,0,0,1-11,3.15,69.58,69.58,0,0,1-11,.85,70.92,70.92,0,0,1-11.05-.86A44.07,44.07,0,0,1,543.23,511.42Z" style="fill:#231f20"/><path d="M385.45,496.88A78.59,78.59,0,0,1,392.3,483a133,133,0,0,1,8.63-12.48,130.34,130.34,0,0,1,10-11.43,77.54,77.54,0,0,1,11.8-10A77.6,77.6,0,0,1,415.89,463a135.25,135.25,0,0,1-18.65,23.9A77.45,77.45,0,0,1,385.45,496.88Z" style="fill:#231f20"/><path d="M535.65,501.8a85.48,85.48,0,0,1-12.37-10.48,145.2,145.2,0,0,1-10.6-11.89,143.65,143.65,0,0,1-9.25-13,84.82,84.82,0,0,1-7.47-14.4,84.51,84.51,0,0,1,12.38,10.48,141.78,141.78,0,0,1,10.59,11.9,145.08,145.08,0,0,1,9.25,13A85.87,85.87,0,0,1,535.65,501.8Z" style="fill:#231f20"/><path d="M530.53,351a74.1,74.1,0,0,1,14.78-3.13,126.18,126.18,0,0,1,14.78-.87,124.28,124.28,0,0,1,14.78.86A73.73,73.73,0,0,1,589.65,351a74.46,74.46,0,0,1-14.78,3.15,124.26,124.26,0,0,1-14.78.85,126.18,126.18,0,0,1-14.78-.87A74.1,74.1,0,0,1,530.53,351Z" style="fill:#231f20"/><path d="M319.27,344A49,49,0,0,1,331,340.86a79.55,79.55,0,0,1,11.71-.86,78.19,78.19,0,0,1,11.71.85A48.52,48.52,0,0,1,366.11,344a48,48,0,0,1-11.71,3.14,78.21,78.21,0,0,1-11.71.86,79.57,79.57,0,0,1-11.71-.87A48.46,48.46,0,0,1,319.27,344Z" style="fill:#231f20"/><path d="M493.7,327a12.93,12.93,0,0,1,5.68,1.22,14.17,14.17,0,0,1,4.08,2.83,13.81,13.81,0,0,1,2.87,4.05,12.67,12.67,0,0,1,1.26,5.67,12.81,12.81,0,0,1-5.69-1.2,14,14,0,0,1-4.07-2.84,14.15,14.15,0,0,1-2.86-4.06A12.8,12.8,0,0,1,493.7,327Z" style="fill:#231f20"/><path d="M399.71,355.13a20.6,20.6,0,0,1,2.7-7.18,28.3,28.3,0,0,1,4.31-5.59,27.57,27.57,0,0,1,5.53-4.38,20.65,20.65,0,0,1,7.17-2.77,20.77,20.77,0,0,1-2.69,7.19,28,28,0,0,1-4.32,5.58,29,29,0,0,1-5.55,4.38A20.54,20.54,0,0,1,399.71,355.13Z" style="fill:#231f20"/><path d="M516.06,294.74a17.28,17.28,0,0,1,4.53-7.95,25.45,25.45,0,0,1,15.88-7.49,18.9,18.9,0,0,1,9,1.26,48.87,48.87,0,0,1-7.23,4.78c-2.34,1.31-4.64,2.44-7,3.52s-4.65,2.09-7.1,3.08A76,76,0,0,1,516.06,294.74Z" style="fill:#231f20"/><path d="M557.35,286.3a19.48,19.48,0,0,1,8.89-2.49,26.65,26.65,0,0,1,9,1.07,25.69,25.69,0,0,1,8.12,4,18.37,18.37,0,0,1,6,7.11,61.81,61.81,0,0,1-8.66-1.43c-2.66-.6-5.18-1.28-7.7-2s-5-1.57-7.58-2.54A50.66,50.66,0,0,1,557.35,286.3Z" style="fill:#231f20"/><path d="M532,296.84A12.29,12.29,0,0,1,536.4,292,15.78,15.78,0,0,1,548,289.77a12.48,12.48,0,0,1,5.89,2.86,20.12,20.12,0,0,1-5.3,3.4,22.1,22.1,0,0,1-5.09,1.58,22.58,22.58,0,0,1-5.31.39A20.59,20.59,0,0,1,532,296.84Z" style="fill:#231f20"/><path d="M328.07,294.74a17.17,17.17,0,0,1,4.52-7.95,25.45,25.45,0,0,1,15.88-7.49,18.9,18.9,0,0,1,9,1.26,48.87,48.87,0,0,1-7.23,4.78c-2.34,1.31-4.64,2.44-7,3.52s-4.65,2.09-7.1,3.08A76.57,76.57,0,0,1,328.07,294.74Z" style="fill:#231f20"/><path d="M369.35,286.3a19.48,19.48,0,0,1,8.89-2.49,26.65,26.65,0,0,1,9,1.07,25.59,25.59,0,0,1,8.12,4,18.29,18.29,0,0,1,6,7.11,62.05,62.05,0,0,1-8.66-1.43c-2.66-.6-5.18-1.28-7.7-2s-5-1.57-7.58-2.54A50.66,50.66,0,0,1,369.35,286.3Z" style="fill:#231f20"/><path d="M344,296.84A12.29,12.29,0,0,1,348.4,292a15.32,15.32,0,0,1,5.57-2.23,15.15,15.15,0,0,1,6,0,12.43,12.43,0,0,1,5.89,2.86,20,20,0,0,1-5.3,3.4,22,22,0,0,1-5.09,1.58,22.58,22.58,0,0,1-5.31.39A20.59,20.59,0,0,1,344,296.84Z" style="fill:#231f20"/><path d="M302.41,408.52a20.83,20.83,0,0,1,5.5-8.77,30.19,30.19,0,0,1,8.41-5.81,31.13,31.13,0,0,1,9.77-2.76,23.18,23.18,0,0,1,10.24,1,67.64,67.64,0,0,1-8.48,5.05c-2.75,1.41-5.44,2.72-8.15,4s-5.41,2.47-8.21,3.71S305.82,407.38,302.41,408.52Z" style="fill:#231f20"/><path d="M350.05,398.79a24.23,24.23,0,0,1,10.19-2.4,33.16,33.16,0,0,1,10.24,1.35,31.94,31.94,0,0,1,9.34,4.48A22.29,22.29,0,0,1,386.9,410a92.08,92.08,0,0,1-9.78-2.1c-3-.79-6-1.61-8.91-2.49s-5.86-1.79-8.86-2.81A71.69,71.69,0,0,1,350.05,398.79Z" style="fill:#231f20"/><path d="M320.79,411a14.61,14.61,0,0,1,5.22-5.13,19.82,19.82,0,0,1,13.26-2.55A14.78,14.78,0,0,1,346,406.1a24.7,24.7,0,0,1-6.16,3.44,32.35,32.35,0,0,1-5.94,1.7,33.32,33.32,0,0,1-6.15.59A25.2,25.2,0,0,1,320.79,411Z" style="fill:#231f20"/><path d="M530.53,408a20.87,20.87,0,0,1,5.5-8.77,30,30,0,0,1,8.41-5.81,31.14,31.14,0,0,1,9.77-2.77,23.23,23.23,0,0,1,10.25,1,67.51,67.51,0,0,1-8.48,5c-2.76,1.42-5.45,2.72-8.16,4s-5.41,2.48-8.21,3.71S534,406.89,530.53,408Z" style="fill:#231f20"/><path d="M578.17,398.31a24.13,24.13,0,0,1,10.19-2.41,32.83,32.83,0,0,1,10.24,1.36,31.62,31.62,0,0,1,9.35,4.48,22.45,22.45,0,0,1,7.08,7.77,89.94,89.94,0,0,1-9.79-2.09c-3-.8-6-1.62-8.91-2.49s-5.86-1.8-8.86-2.82A72.14,72.14,0,0,1,578.17,398.31Z" style="fill:#231f20"/><path d="M548.91,410.47a14.64,14.64,0,0,1,5.22-5.14,19.89,19.89,0,0,1,13.26-2.54,14.76,14.76,0,0,1,6.75,2.82,24.53,24.53,0,0,1-6.16,3.44,32.35,32.35,0,0,1-5.94,1.7,33.31,33.31,0,0,1-6.15.6A25.63,25.63,0,0,1,548.91,410.47Z" style="fill:#231f20"/></svg>