<svg id="Layer_1" data-name="Layer 1" xmlns="http://www.w3.org/2000/svg" viewBox="0 0 2000 2000"><g id="layer1"><path id="rect1518" d="M1824.56,659.42V1735.35A139.34,139.34,0,0,1,1684.91,1875H315.09a139.34,139.34,0,0,1-139.65-139.65V659.42Z" style="fill:#e6e7e8;stroke:#3a3632;stroke-linecap:round;stroke-linejoin:round;stroke-width:20px;isolation:isolate;opacity:0.990000009536743"/><path id="rect1552" d="M115.88,659.06A88.7,88.7,0,0,0,27,747.94V829.6a88.7,88.7,0,0,0,88.9,88.88h59.56V659.41H224c-2.38-.18-4.79-.36-7.22-.36Z" style="fill:none;stroke:#3a3632;stroke-linecap:round;stroke-linejoin:round;stroke-width:20px;isolation:isolate;opacity:0.990000009536743"/><path id="path1558" d="M1884.12,659.07a88.7,88.7,0,0,1,88.9,88.87v81.67a88.7,88.7,0,0,1-88.9,88.88h-59.56V659.42H1776c2.38-.18,4.79-.36,7.22-.36Z" style="fill:none;stroke:#3a3632;stroke-linecap:round;stroke-linejoin:round;stroke-width:20px;isolation:isolate;opacity:0.990000009536743"/><g id="g864"><path id="path1510" d="M997.79,332.89C695.19,333.43,403,460,175.44,659.42H1824.56C1596.4,459.49,1303.37,332.89,1000,332.89Z" style="fill:#e6e7e8;fill-opacity:0.995950996875763;stroke:#3a3632;stroke-linecap:round;stroke-linejoin:round;stroke-width:20px;isolation:isolate;opacity:0.990000009536743"/><path id="path1507" d="M1197.17,348.53a201.63,201.63,0,0,0,1.56-24.8C1198.72,214,1109.75,125,1000,125h-1.41c-109.2.78-197.32,89.52-197.32,198.73a199.69,199.69,0,0,0,1.56,24.8" style="fill:none;stroke:#3a3632;stroke-linecap:round;stroke-linejoin:round;stroke-width:20px;isolation:isolate;opacity:0.990000009536743"/></g><circle cx="1000" cy="1116.16" r="207.91" style="fill:#fff;stroke:#3a3632;stroke-miterlimit:10;stroke-width:20px"/><line x1="1000" y1="1116.16" x2="1000" y2="975.31" style="fill:#fff;stroke:#3a3632;stroke-linecap:round;stroke-miterlimit:10;stroke-width:20px"/></g><path d="M821.63,1579.3q12.11,16.26,12.11,39.76,0,33.62-25.3,52.59t-70.12,19q-44.82,0-70.12-19t-25.3-52.59q0-23.49,12.29-39.94t34.69-22.23q-19.15-7.23-30-22.59t-10.84-36q0-31.8,23.86-50.24t65.42-18.43q41.56,0,65.42,18.43t23.86,50.24q0,21-10.85,36.51a58.4,58.4,0,0,1-29.64,22.05Q809.52,1563,821.63,1579.3ZM790,1615.44q0-38.67-51.69-38.67t-51.69,38.67q0,38.68,51.69,38.68T790,1615.44ZM693.14,1503q0,18.43,11.38,28t33.8,9.58q22.41,0,33.79-9.58t11.39-28q0-36.87-45.18-36.86T693.14,1503Z" style="fill:#3a3632"/><path d="M872.41,1553.46a26.58,26.58,0,0,1-7.59-19.34q0-11.56,7.59-19.16t19.16-7.59q11.56,0,19.16,7.59t7.59,19.16a26.58,26.58,0,0,1-7.59,19.34q-7.59,7.77-19.16,7.77T872.41,1553.46Zm0,128.67a28.42,28.42,0,0,1,0-38.67q7.59-7.77,19.16-7.77t19.16,7.77a28.42,28.42,0,0,1,0,38.67q-7.59,7.78-19.16,7.77T872.41,1682.13Z" style="fill:#3a3632"/><path d="M1118.74,1578.76q12.1,16.08,12.11,39.94,0,32.9-24.22,52.41t-65.42,19.52A142.11,142.11,0,0,1,996,1683.4q-21.69-7.23-36.87-20.24-8.32-7.23-8.32-17a21,21,0,0,1,4.52-13.56q4.51-5.59,10.66-5.6a16,16,0,0,1,6.51,1.27q2.9,1.26,8,4.15A155.42,155.42,0,0,0,1009.4,1648a80.84,80.84,0,0,0,30,5.43q23.85,0,35.42-9.58t11.57-29.1q0-19.15-12.11-28.37t-37.41-9.22h-20.6q-8.32,0-12.84-5.6a20.77,20.77,0,0,1,0-25.85q4.53-5.42,12.84-5.42h14.45q49.52,0,49.52-37.23,0-17.34-10.48-26.74t-28.92-9.4q-26.38,0-56.38,21-5.07,2.89-8,4.16a16,16,0,0,1-6.51,1.26q-6.15,0-10.66-5.6a20.85,20.85,0,0,1-4.52-13.55,19.6,19.6,0,0,1,2-9.22,29.3,29.3,0,0,1,6.32-7.77,116.12,116.12,0,0,1,36.33-20.06,129.67,129.67,0,0,1,43.19-7.41q37.59,0,59.82,18.43t22.23,49.16q-.36,21-11,36.69t-29.82,23Q1106.63,1562.68,1118.74,1578.76Z" style="fill:#3a3632"/><path d="M1192.65,1657.55q-23.85-33.42-23.86-97.41,0-63.62,23.86-97.05t69-33.43q45.18,0,69,33.43t23.86,97.05q0,63.63-23.86,97.23t-69,33.62Q1216.49,1691,1192.65,1657.55Zm104.82-25.66q11.21-22.59,11.21-71.75,0-49.52-11.21-71.75t-35.78-22.22q-24.59,0-35.79,22.41t-11.2,71.56q0,49.17,11.2,71.75t35.79,22.59Q1286.26,1654.48,1297.47,1631.89Z" style="fill:#3a3632"/></svg>