<svg xmlns="http://www.w3.org/2000/svg" xmlns:xlink="http://www.w3.org/1999/xlink" width="2000" height="1103.64" xmlns:v="https://vecta.io/nano"><style><![CDATA[.B{stroke:#231f20}.C{stroke-miterlimit:10}.D{fill:none}.E{stroke-linecap:round}.F{fill:#cda87a}.G{stroke-width:7.79}.H{stroke-width:3.895}.I{stroke-linejoin:round}]]></style><g fill="#f1f2f2" class="B C"><path d="M1938.9 1010l-63 41.08a47.74 47.74 0 0 1-26 7.68H150.6a47.73 47.73 0 0 1-25.67-7.44l-59.08-37.74" stroke-width="15.581"/><path d="M1879.6 1029.4H121.1c-53.36 0-82.72-29.87-66.1-65.56l221.75-476.4c9.44-20.3 48.24-36.34 86.9-36.34h1273.44c38.64 0 77.44 16 86.88 36.34l221.75 476.4c16.62 35.7-12.7 65.56-66.1 65.56z" stroke-width="24"/></g><g class="G B"><path d="M100.75 981.45l207.7-459.26c7.7-17.06 40.13-30.62 72.57-30.62h1238.65c32.44 0 64.86 13.56 72.57 30.62l205.53 452.9" class="D E I"/><path d="M921.1 562.24c0-37.6-34.9-79.32-78-79.32s-77.94 41.73-77.94 79.32 34.9 56.82 77.94 56.82 78-19.23 78-56.82z" class="C F"/></g><path d="M799.34 534.84l.65.14a2.61 2.61 0 0 0 3.15-2.07l.4-2.1a2.62 2.62 0 0 1 4.4-1.4h0a2.63 2.63 0 0 0 4.4-1.4h0a2.62 2.62 0 0 1 4.4-1.4l1.53 1.47A2.62 2.62 0 0 0 822 528l.45-.5m31.6 36.03l.57.33a2.62 2.62 0 0 0 3.63-1l1-1.88a2.62 2.62 0 0 1 4.61 0h0a2.63 2.63 0 0 0 4.62 0h0a2.63 2.63 0 0 1 4.62 0l1 1.88a2.62 2.62 0 0 0 3.63 1l.58-.33m-29.88-49.8l.47.47a2.62 2.62 0 0 0 3.77 0l1.47-1.55a2.62 2.62 0 0 1 4.45 1.2h0a2.63 2.63 0 0 0 4.46 1.21h0a2.63 2.63 0 0 1 4.46 1.2l.5 2.07a2.62 2.62 0 0 0 3.24 1.93l.64-.17" class="D E H B C"/><path d="M1263.86 562.24c0-37.6-34.9-79.32-77.95-79.32s-77.9 41.73-77.9 79.32 34.9 56.82 77.94 56.82 77.92-19.23 77.92-56.82z" class="B C F G"/><g class="D E H B C"><path d="M1142.1 534.84l.65.14a2.61 2.61 0 0 0 3.15-2.07l.4-2.1a2.62 2.62 0 0 1 4.4-1.4h0a2.63 2.63 0 0 0 4.4-1.4h0a2.62 2.62 0 0 1 4.4-1.4l1.53 1.47a2.62 2.62 0 0 0 3.77-.13l.45-.5m31.55 36.08l.57.33a2.62 2.62 0 0 0 3.63-1l1-1.88a2.62 2.62 0 0 1 4.61 0h0a2.63 2.63 0 0 0 4.62 0h0a2.62 2.62 0 0 1 4.61 0l1 1.88a2.62 2.62 0 0 0 3.63 1l.57-.33"/><use xlink:href="#B"/></g><path d="M1606.6 562.24c0-37.6-34.9-79.32-77.95-79.32s-77.94 41.73-77.94 79.32 34.9 56.82 77.94 56.82 77.95-19.23 77.95-56.82z" class="B C F G"/><g class="D E H B C"><path d="M1484.84 534.84l.65.14a2.62 2.62 0 0 0 3.15-2.07l.4-2.1a2.62 2.62 0 0 1 4.4-1.4h0a2.63 2.63 0 0 0 4.4-1.4h0a2.62 2.62 0 0 1 4.4-1.4l1.53 1.47a2.62 2.62 0 0 0 3.77-.13l.45-.5m31.57 36.08l.57.33a2.62 2.62 0 0 0 3.63-1l1-1.88a2.62 2.62 0 0 1 4.61 0h0a2.63 2.63 0 0 0 4.62 0h0a2.62 2.62 0 0 1 4.61 0l1 1.88a2.62 2.62 0 0 0 3.63 1l.57-.33"/><use xlink:href="#B" x="342.74"/></g><path d="M516.8,721.42c0-42.55-39.5-89.78-88.22-89.78s-88.22,47.23-88.22,89.78,39.5,64.3,88.22,64.3S516.8,764,516.8,721.42Z" class="B C F G"/><g class="D E H B C"><use xlink:href="#C"/><path d="M440.9 722.87l.65.38a3 3 0 0 0 4.11-1.15l1.15-2.12a3 3 0 0 1 5.22 0h0a3 3 0 0 0 5.23 0h0a3 3 0 0 1 5.22 0l1.15 2.12a3 3 0 0 0 4.11 1.15l.65-.38m-33.84-56.37l.53.53a3 3 0 0 0 4.27 0l1.66-1.74a3 3 0 0 1 5 1.36h0a3 3 0 0 0 5.09 1.35h0a3 3 0 0 1 5 1.36l.56 2.35a3 3 0 0 0 3.67 2.18l.72-.2"/></g><use xlink:href="#D" class="B C F G"/><g class="D E H B C"><use xlink:href="#C" x="387.92"/><path d="M828.84 722.87l.65.38a3 3 0 0 0 4.11-1.15l1.15-2.12a3 3 0 0 1 5.23 0h0a3 3 0 0 0 5.22 0h0a3 3 0 0 1 5.22 0l1.15 2.12a3 3 0 0 0 4.12 1.15l.64-.38M822.5 666.5l.52.53a3 3 0 0 0 4.27 0l1.66-1.74a3 3 0 0 1 5 1.36h0a3 3 0 0 0 5 1.36h0a3 3 0 0 1 5.05 1.36l.55 2.35a3 3 0 0 0 3.67 2.18l.73-.2"/></g><path d="M1292.67 721.42c0-42.55-39.5-89.78-88.22-89.78s-88.23 47.23-88.23 89.78 39.5 64.3 88.23 64.3 88.22-21.72 88.22-64.3z" class="B C F G"/><g class="D E H B C"><path d="M1154.85 690.4l.73.17a3 3 0 0 0 3.57-2.35l.45-2.37a3 3 0 0 1 5-1.58h0a3 3 0 0 0 5-1.59h0a3 3 0 0 1 5-1.58l1.74 1.67a3 3 0 0 0 4.26-.15l.5-.56m35.68 40.8l.64.38a3 3 0 0 0 4.12-1.15l1.15-2.12a3 3 0 0 1 5.22 0h0a3 3 0 0 0 5.22 0h0a3 3 0 0 1 5.23 0l1.15 2.12a3 3 0 0 0 4.11 1.15l.65-.38"/><use xlink:href="#E"/></g><use xlink:href="#D" x="775.86" class="B C F G"/><g class="D E H B C"><path d="M1542.8 690.4l.73.17a3 3 0 0 0 3.57-2.35l.45-2.37a3 3 0 0 1 5-1.58h0a3 3 0 0 0 5-1.59h0a3 3 0 0 1 5-1.58l1.74 1.67a3 3 0 0 0 4.27-.15l.5-.56m35.64 40.8l.65.38a3 3 0 0 0 4.11-1.15l1.15-2.12a3 3 0 0 1 5.22 0h0a3 3 0 0 0 5.23 0h0a3 3 0 0 1 5.22 0l1.15 2.12a3 3 0 0 0 4.12 1.15l.64-.38"/><use xlink:href="#E" x="387.93"/></g><use xlink:href="#F" class="B C F G"/><path d="M308.66 871.78l.8.18a3.25 3.25 0 0 0 3.91-2.57l.5-2.6a3.25 3.25 0 0 1 5.45-1.73h0a3.25 3.25 0 0 0 5.45-1.74h0a3.26 3.26 0 0 1 5.46-1.74l1.9 1.83a3.26 3.26 0 0 0 4.68-.16l.54-.6m39.15 44.7l.7.42a3.26 3.26 0 0 0 4.51-1.26l1.26-2.33a3.25 3.25 0 0 1 5.72 0h0a3.25 3.25 0 0 0 5.72 0h0a3.25 3.25 0 0 1 5.72 0l1.26 2.33a3.26 3.26 0 0 0 4.51 1.26l.7-.42m-37.07-61.74l.58.6a3.25 3.25 0 0 0 4.67 0l1.82-1.92a3.26 3.26 0 0 1 5.53 1.49h0a3.25 3.25 0 0 0 5.52 1.49h0a3.26 3.26 0 0 1 5.53 1.49l.6 2.58a3.26 3.26 0 0 0 4 2.39l.8-.22" class="D E H B C"/><use xlink:href="#F" x="424.92" class="B C F G"/><g class="D E H B C"><path d="M733.58 871.78l.8.18a3.25 3.25 0 0 0 3.91-2.57l.5-2.6a3.25 3.25 0 0 1 5.45-1.73h0a3.25 3.25 0 0 0 5.45-1.74h0a3.25 3.25 0 0 1 5.45-1.74l1.9 1.83a3.25 3.25 0 0 0 4.67-.16l.55-.6m39.14 44.7l.7.42a3.24 3.24 0 0 0 4.5-1.26l1.26-2.33a3.26 3.26 0 0 1 5.73 0h0a3.25 3.25 0 0 0 5.72 0h0a3.25 3.25 0 0 1 5.72 0l1.26 2.33a3.26 3.26 0 0 0 4.51 1.26l.7-.42"/><use xlink:href="#G"/></g><use xlink:href="#F" x="849.84" class="B C F G"/><g class="D E H B C"><path d="M1158.5 871.78l.8.18a3.26 3.26 0 0 0 3.91-2.57l.5-2.6a3.25 3.25 0 0 1 5.45-1.73h0a3.25 3.25 0 0 0 5.45-1.74h0a3.25 3.25 0 0 1 5.45-1.74l1.9 1.83a3.25 3.25 0 0 0 4.67-.16l.55-.6m39.15 44.7l.7.42a3.24 3.24 0 0 0 4.5-1.26l1.26-2.33a3.25 3.25 0 0 1 5.72 0h0a3.26 3.26 0 0 0 5.73 0h0a3.25 3.25 0 0 1 5.72 0l1.26 2.33a3.25 3.25 0 0 0 4.5 1.26l.7-.42"/><use xlink:href="#G" x="424.92"/></g><path d="M1734.38 905.75c0-46.6-43.27-98.34-96.64-98.34s-96.63 51.73-96.63 98.34 43.26 70.43 96.63 70.43 96.64-23.83 96.64-70.43z" class="B C F G"/><path d="M1583.42 871.78l.8.18a3.26 3.26 0 0 0 3.91-2.57l.5-2.6a3.25 3.25 0 0 1 5.46-1.73h0a3.25 3.25 0 0 0 5.45-1.74h0a3.25 3.25 0 0 1 5.45-1.74l1.9 1.83a3.25 3.25 0 0 0 4.67-.16l.55-.6m39.14 44.7l.7.42a3.25 3.25 0 0 0 4.5-1.26l1.26-2.33a3.25 3.25 0 0 1 5.72 0h0a3.26 3.26 0 0 0 5.73 0h0a3.25 3.25 0 0 1 5.72 0l1.26 2.33a3.24 3.24 0 0 0 4.5 1.26l.7-.42m-37.04-61.74l.57.6a3.26 3.26 0 0 0 4.68 0l1.82-1.92a3.25 3.25 0 0 1 5.52 1.49h0a3.25 3.25 0 0 0 5.53 1.49h0a3.25 3.25 0 0 1 5.52 1.49l.6 2.58a3.27 3.27 0 0 0 4 2.39l.8-.22" class="D E H B C"/><path d="M869.64 58.84c-8.6 1.6-14.4 9.53-11.9 17.9 4.94 16.57 16.53 44.56 43.3 76.8 0 0 31 40.5 83.3 62.78 0 0 39.2 17.72 91.63 18 0 0 57 1.2 88.12-4 9.9-2 38.5-14.3 53.26-32 0 0 22.75-22.22 38.45-63.75 9.1-30.13 9.43-35.28 9.43-35.28 1.14-9.63 8.58-12.22 11.92-12.25 0 0 10.66-3.42 28.7-.9 0 0 52 4.28 76.2 9.74 0 0 43.42 5.9 69.62 21.05 0 0 22.6 11.38 49.1 43.26 0 0 18.86 19.88 35.26 67.17 0 0 14 3.22 24.7-2.87-17.08-48-38-74.5-38-74.5-28.36-39.85-61.87-54.27-61.87-54.27-33.54-19.1-80.34-25.4-80.34-25.4-55.35-6.9-110-15.16-165.57-19.8-47.2-3.93-94.55-6.6-141.93-7.17-57.77-.7-115.77 1.6-172.94 10.33-10.18 1.5-20.33 3.25-30.45 5.15z" fill="#231f20"/><path d="M505.23 332v-88.55a156.19 156.19 0 0 1 156.19-156.2h88.82m-157.78 157.5l-87.23 102.8L418 244.76" stroke-width="24" class="B D E I"/><path d="M1182.93 69.23c-6.13 1-12 3.43-18.26 3.4-10.85 0-20.32-7.6-31.06-9.17-19.95-2.94-39.06 15.1-58.73 10.65-9.87-2.23-17.72-9.82-27.32-13-17.7-5.93-36.62 4-55.3 4.3-12 .2-23.65-3.53-35.58-4.1a68.6 68.6 0 0 0-51.31 20.09c23.33 14.44 102.8 26.54 163.47 26.47 75.54-.08 130.76-8.64 163.48-21.47-14.98-10.25-31.72-19.96-49.4-17.17z" class="F"/><defs ><path id="B" d="M1191.2 513.72l.46.47a2.64 2.64 0 0 0 3.78 0l1.47-1.55a2.62 2.62 0 0 1 4.45 1.2h0a2.63 2.63 0 0 0 4.46 1.21h0a2.63 2.63 0 0 1 4.46 1.2l.5 2.07a2.62 2.62 0 0 0 3.24 1.93l.64-.17"/><path id="C" d="M379,690.4l.73.17a3,3,0,0,0,3.57-2.35l.45-2.37a3,3,0,0,1,5-1.58h0a3,3,0,0,0,5-1.59h0a3,3,0,0,1,5-1.58l1.74,1.67a3,3,0,0,0,4.27-.15l.5-.56"/><path id="D" d="M904.74 721.42c0-42.55-39.5-89.78-88.23-89.78s-88.22 47.23-88.22 89.78 39.5 64.3 88.22 64.3 88.23-21.72 88.23-64.3z"/><path id="E" d="M1210.42,666.5l.53.53a3,3,0,0,0,4.27,0l1.66-1.74a3,3,0,0,1,5,1.36h0a3,3,0,0,0,5,1.36h0a3,3,0,0,1,5,1.36l.56,2.35a3,3,0,0,0,3.67,2.18l.72-.2"/><path id="F" d="M459.62 905.75c0-46.6-43.26-98.34-96.63-98.34s-96.64 51.73-96.64 98.34 43.27 70.43 96.64 70.43 96.63-23.83 96.63-70.43z"/><path id="G" d="M794.45 845.6l.57.6a3.26 3.26 0 0 0 4.68 0l1.82-1.92a3.26 3.26 0 0 1 5.53 1.49h0a3.25 3.25 0 0 0 5.52 1.49h0a3.26 3.26 0 0 1 5.53 1.49l.6 2.58a3.25 3.25 0 0 0 4 2.39l.8-.22"/></defs></svg>