<svg xmlns="http://www.w3.org/2000/svg" xmlns:xlink="http://www.w3.org/1999/xlink" height="1213.14" width="1924.004" xmlns:v="https://vecta.io/nano"><style><![CDATA[.B{stroke:#231f20}.C{fill:none}.D{stroke-linecap:round}.E{stroke-width:5.917}.F{fill:#cda87a}.G{stroke-width:2.959}.H{stroke-miterlimit:15.1181}.I{stroke-width:24}.J{stroke-miterlimit:10}]]></style><g stroke="#010101"><g class="I"><path d="M1051.044 213.22V47.5c0-19.6 15.23-35.5 34-35.5h756.9c18.78 0 34 15.9 34 35.5v165.7" fill="#fff" class="H"/><g class="C"><circle r="31.45" cy="96.97" cx="1158.944"/><circle r="31.45" cy="96.97" cx="1263.364"/><circle r="31.45" cy="96.97" cx="1757.364"/><circle r="31.45" cy="96.97" cx="1654.464"/><circle r="31.45" cy="96.97" cx="1457.484"/></g><g class="H"><rect rx="35.5" height="987.92" width="909.05" y="213.22" x="1002.954" fill="#fff"/><g class="C"><path d="M1006.334 1016.1h902.3"/><rect rx="11.83" height="55.17" width="795.51" y="350.26" x="1059.724"/><path d="M1006.334 287.15h902.3"/></g></g></g><path d="M1128.974 193.5h263.04m130.93 0h263.04" stroke-width="23.669" class="D C H"/><g class="I H"><rect rx="71.01" height="484.42" width="659.97" y="468.56" x="1127.494" fill="#fff"/><g class="C D"><path d="M1129.424 805.94h659.4m-596.5 0v139.7m88.93-139.7v139.7m88.93-139.7v139.7"/><path d="M1459.124 805.94v139.7m88.93-139.7v139.7m88.93-139.7v139.7m88.93-139.7v139.7"/></g></g></g><g fill="#f1f2f2" class="B J"><path d="M931.194 471.05l-30.66 20a23.27 23.27 0 0 1-12.63 3.73h-827.1a23.26 23.26 0 0 1-12.49-3.62l-28.75-18.36" stroke-width="11.835"/><path d="M902.334 480.5h-855.9c-26 0-40.26-14.53-32.17-31.9l107.93-231.87c4.6-9.87 23.48-17.68 42.3-17.68h619.8c18.8 0 37.7 7.8 42.3 17.68l107.93 231.87c8.08 17.4-6.2 31.9-32.18 31.9z" stroke-width="17.752"/></g><g stroke-linejoin="round" class="C D B"><path d="M36.534 457.16l101.1-223.53c3.75-8.3 19.53-14.9 35.32-14.9h602.88c15.8 0 31.57 6.6 35.32 14.9l100 220.44" class="E"/><path d="M1259.014 631.34h-256.9c-60.622.003-117.162-30.55-150.38-81.26h0m341 15l78.1 66.25-78.1 66.26" class="I"/></g><g class="J B"><use xlink:href="#B" class="E F"/><path d="M209.734 239.8l.3.07a1.29 1.29 0 0 0 1.54-1l.2-1a1.27 1.27 0 0 1 2.14-.68h0a1.28 1.28 0 0 0 2.14-.68h0a1.29 1.29 0 0 1 2.15-.69l.74.72a1.29 1.29 0 0 0 1.84-.06l.2-.24m15.38 17.5l.28.16a1.28 1.28 0 0 0 1.77-.49l.5-.9a1.27 1.27 0 0 1 2.25 0h0a1.27 1.27 0 0 0 2.24 0h0a1.27 1.27 0 0 1 2.25 0l.5.9a1.28 1.28 0 0 0 1.77.49l.28-.16m-14.57-24.25l.22.23a1.29 1.29 0 0 0 1.84 0l.7-.75a1.28 1.28 0 0 1 2.17.58h0a1.28 1.28 0 0 0 2.17.59h0a1.28 1.28 0 0 1 2.17.58l.24 1a1.27 1.27 0 0 0 1.58.94l.3-.08" class="C D G"/><path d="M435.824 253.12c0-18.3-17-38.6-37.94-38.6s-37.98 20.3-37.98 38.6 17 27.66 37.94 27.66 37.98-9.36 37.98-27.66z" class="E F"/><path d="M376.554 239.8l.32.07a1.28 1.28 0 0 0 1.53-1l.2-1a1.27 1.27 0 0 1 2.14-.68h0a1.28 1.28 0 0 0 2.14-.68h0a1.28 1.28 0 0 1 2.14-.69l.75.72a1.28 1.28 0 0 0 1.83-.06l.22-.24m15.36 17.5l.28.16a1.28 1.28 0 0 0 1.77-.49l.5-.9a1.27 1.27 0 0 1 2.25 0h0a1.28 1.28 0 0 0 2.25 0h0a1.27 1.27 0 0 1 2.24 0l.5.9a1.28 1.28 0 0 0 1.77.49l.27-.16m-14.56-24.25l.22.23a1.29 1.29 0 0 0 1.84 0l.72-.75a1.28 1.28 0 0 1 2.17.58h0a1.27 1.27 0 0 0 2.16.59h0a1.28 1.28 0 0 1 2.17.58l.24 1a1.27 1.27 0 0 0 1.58.94l.3-.08" class="C D G"/><use xlink:href="#B" x="333.64" class="E F"/><path d="M543.384 239.8l.3.07a1.28 1.28 0 0 0 1.53-1l.2-1a1.27 1.27 0 0 1 2.14-.68h0a1.28 1.28 0 0 0 2.14-.68h0a1.28 1.28 0 0 1 2.14-.69l.75.72a1.28 1.28 0 0 0 1.83-.06l.22-.24m15.38 17.5l.27.16a1.28 1.28 0 0 0 1.77-.49l.5-.9a1.27 1.27 0 0 1 2.24 0h0a1.28 1.28 0 0 0 2.25 0h0a1.27 1.27 0 0 1 2.25 0l.5.9a1.28 1.28 0 0 0 1.77.49l.28-.16m-14.57-24.25l.23.23a1.28 1.28 0 0 0 1.83 0l.72-.75a1.28 1.28 0 0 1 2.17.58h0a1.28 1.28 0 0 0 2.17.59h0a1.28 1.28 0 0 1 2.17.58l.24 1a1.26 1.26 0 0 0 1.57.94l.3-.08" class="C D G"/><use xlink:href="#B" x="500.47" class="E F"/><path d="M710.204 239.8l.3.07a1.29 1.29 0 0 0 1.54-1l.2-1a1.27 1.27 0 0 1 2.14-.68h0a1.28 1.28 0 0 0 2.14-.68h0a1.28 1.28 0 0 1 2.14-.69l.75.72a1.29 1.29 0 0 0 1.84-.06l.2-.24m15.38 17.5l.28.16a1.27 1.27 0 0 0 1.76-.49l.5-.9a1.27 1.27 0 0 1 2.25 0h0a1.27 1.27 0 0 0 2.24 0h0a1.27 1.27 0 0 1 2.25 0l.5.9a1.28 1.28 0 0 0 1.77.49l.28-.16m-14.57-24.25l.23.23a1.29 1.29 0 0 0 1.84 0l.74-.75a1.28 1.28 0 0 1 2.17.58h0a1.28 1.28 0 0 0 2.17.59h0a1.28 1.28 0 0 1 2.17.58l.24 1a1.27 1.27 0 0 0 1.58.94l.3-.08" class="C D G"/><use xlink:href="#C" class="E F"/><g class="C D G"><use xlink:href="#D"/><use xlink:href="#E"/><use xlink:href="#F"/></g><path d="M427.904 326.8c0-20.7-19.23-43.7-42.94-43.7s-42.94 23-42.94 43.7 19.22 31.3 42.94 31.3 42.94-10.6 42.94-31.3z" class="E F"/><g class="C D G"><path d="M360.774 311.7l.36.08a1.44 1.44 0 0 0 1.73-1.14l.22-1.15a1.46 1.46 0 0 1 2.43-.78h0a1.44 1.44 0 0 0 2.39-.73h0a1.44 1.44 0 0 1 2.42-.77l.85.82a1.44 1.44 0 0 0 2.07-.08l.25-.27"/><use xlink:href="#G"/><use xlink:href="#H"/></g><use xlink:href="#C" x="377.63" class="E F"/><g class="C D G"><use xlink:href="#D" x="377.63"/><use xlink:href="#E" x="377.63"/><use xlink:href="#F" x="377.63"/></g><path d="M805.484 326.8c0-20.7-19.22-43.7-42.94-43.7s-42.94 23-42.94 43.7 19.22 31.3 42.94 31.3 42.94-10.6 42.94-31.3z" class="E F"/><g class="C D G"><path d="M738.404 311.7l.36.08a1.44 1.44 0 0 0 1.73-1.14l.22-1.15a1.46 1.46 0 0 1 2.43-.78h0a1.44 1.44 0 0 0 2.42-.77h0a1.44 1.44 0 0 1 2.42-.77l.85.82a1.45 1.45 0 0 0 2.08-.08l.24-.27"/><use xlink:href="#G" x="377.64"/><use xlink:href="#H" x="377.63"/></g><path d="M211.204 412.73c0-22.68-21.05-47.86-47-47.86s-47 25.18-47 47.86 21 34.28 47 34.28 47-11.6 47-34.28z" class="E F"/><path d="M137.734 396.2l.4.08a1.58 1.58 0 0 0 1.9-1.24l.24-1.27a1.59 1.59 0 0 1 2.66-.84h0a1.58 1.58 0 0 0 2.65-.85h0a1.58 1.58 0 0 1 2.65-.84l.93.9a1.59 1.59 0 0 0 2.28-.08l.26-.3m19.04 21.74l.35.2a1.59 1.59 0 0 0 2.19-.61l.62-1.1a1.59 1.59 0 0 1 2.79 0h0a1.58 1.58 0 0 0 2.78 0h0a1.59 1.59 0 0 1 2.79 0l.6 1.13a1.59 1.59 0 0 0 2.19.61l.35-.2m-18.05-30.08l.28.3a1.59 1.59 0 0 0 2.28 0l.9-.94a1.59 1.59 0 0 1 2.69.73h0a1.59 1.59 0 0 0 2.69.73h0a1.57 1.57 0 0 1 2.72.73l.3 1.25a1.59 1.59 0 0 0 2 1.17l.38-.1" class="C D G"/><use xlink:href="#I" class="E F"/><path d="M344.544 396.2l.4.08a1.59 1.59 0 0 0 1.91-1.24l.24-1.27a1.58 1.58 0 0 1 2.65-.84h0a1.59 1.59 0 0 0 2.66-.85h0a1.57 1.57 0 0 1 2.65-.84l.93.9a1.58 1.58 0 0 0 2.27-.08l.27-.3m19.04 21.74l.34.2a1.6 1.6 0 0 0 2.2-.61l.6-1.13a1.58 1.58 0 0 1 2.78 0h0a1.59 1.59 0 0 0 2.79 0h0a1.58 1.58 0 0 1 2.78 0l.62 1.13a1.59 1.59 0 0 0 2.19.61l.34-.2m-18.03-30.05l.28.3a1.59 1.59 0 0 0 2.28 0l.88-.94a1.59 1.59 0 0 1 2.69.73h0a1.59 1.59 0 0 0 2.69.73h0a1.58 1.58 0 0 1 2.69.72l.3 1.25a1.58 1.58 0 0 0 1.95 1.17l.4-.1" class="C D G"/><path d="M624.844 412.73c0-22.68-21.06-47.86-47-47.86s-47 25.18-47 47.86 21 34.26 46.96 34.26 47.04-11.58 47.04-34.26z" class="E F"/><path d="M551.364 396.2l.4.08a1.58 1.58 0 0 0 1.9-1.24l.24-1.27a1.59 1.59 0 0 1 2.66-.84h0a1.58 1.58 0 0 0 2.65-.85h0a1.58 1.58 0 0 1 2.66-.84l.92.9a1.59 1.59 0 0 0 2.28-.08l.27-.3m19.04 21.74l.34.2a1.59 1.59 0 0 0 2.19-.61l.62-1.13a1.58 1.58 0 0 1 2.78 0h0a1.59 1.59 0 0 0 2.79 0h0a1.58 1.58 0 0 1 2.78 0l.6 1.13a1.6 1.6 0 0 0 2.2.61l.34-.2m-18.03-30.05l.28.3a1.58 1.58 0 0 0 2.27 0l.9-.94a1.59 1.59 0 0 1 2.69.73h0a1.59 1.59 0 0 0 2.69.73h0a1.58 1.58 0 0 1 2.69.72l.3 1.25a1.59 1.59 0 0 0 2 1.17l.4-.1" class="C D G"/><use xlink:href="#I" x="413.63" class="E F"/><path d="M758.184 396.2l.4.08a1.58 1.58 0 0 0 1.9-1.24l.24-1.27a1.58 1.58 0 0 1 2.65-.84h0a1.59 1.59 0 0 0 2.66-.85h0a1.58 1.58 0 0 1 2.65-.84l.93.9a1.58 1.58 0 0 0 2.27-.08l.27-.3m19.04 21.74l.35.2a1.59 1.59 0 0 0 2.19-.61l.6-1.13a1.59 1.59 0 0 1 2.79 0h0a1.58 1.58 0 0 0 2.78 0h0a1.59 1.59 0 0 1 2.79 0l.6 1.13a1.59 1.59 0 0 0 2.19.61l.35-.2m-18.03-30.05l.28.3a1.59 1.59 0 0 0 2.28 0l.9-.94a1.58 1.58 0 0 1 2.68.73h0a1.59 1.59 0 0 0 2.69.73h0a1.58 1.58 0 0 1 2.69.72l.3 1.25a1.59 1.59 0 0 0 2 1.17l.38-.1" class="C D G"/></g><defs ><path id="B" d="M269.004 253.12c0-18.3-17-38.6-37.94-38.6s-37.94 20.3-37.94 38.6 17 27.66 37.94 27.66 37.94-9.36 37.94-27.66z"/><path id="C" d="M239.034 326.8c0-20.7-19.22-43.7-42.94-43.7s-42.94 23-42.94 43.7 19.23 31.3 42.94 31.3 42.94-10.6 42.94-31.3z"/><path id="D" d="M171.954 311.7l.36.08a1.45 1.45 0 0 0 1.74-1.14l.22-1.15a1.45 1.45 0 0 1 2.42-.78h0a1.44 1.44 0 0 0 2.42-.77h0a1.45 1.45 0 0 1 2.43-.77l.84.82a1.45 1.45 0 0 0 2.08-.08l.24-.27"/><path id="E" d="M202.104 327.52l.3.18a1.44 1.44 0 0 0 2-.56l.56-1a1.44 1.44 0 0 1 2.54 0h0a1.45 1.45 0 0 0 2.55 0h0a1.44 1.44 0 0 1 2.54 0l.56 1a1.45 1.45 0 0 0 2 .56l.32-.18"/><path id="F" d="M199.004 300.08l.26.26a1.45 1.45 0 0 0 2.08 0l.8-.85a1.45 1.45 0 0 1 2.46.66h0a1.44 1.44 0 0 0 2.45.66h0a1.45 1.45 0 0 1 2.46.66l.27 1.15a1.46 1.46 0 0 0 1.79 1.06l.35-.1"/><path id="G" d="M390.904 327.52l.3.18a1.46 1.46 0 0 0 2-.56l.56-1a1.44 1.44 0 0 1 2.54 0h0a1.44 1.44 0 0 0 2.54 0h0a1.44 1.44 0 0 1 2.54 0l.56 1a1.46 1.46 0 0 0 2 .56l.3-.18"/><path id="H" d="M387.824 300.08l.25.26a1.45 1.45 0 0 0 2.08 0l.8-.85a1.44 1.44 0 0 1 2.45.66h0a1.45 1.45 0 0 0 2.46.66h0a1.44 1.44 0 0 1 2.45.66l.28 1.15a1.44 1.44 0 0 0 1.78 1.06l.35-.1"/><path id="I" d="M418.024 412.73c0-22.68-21.06-47.86-47-47.86s-47 25.18-47 47.86 21.06 34.28 47 34.28 47-11.6 47-34.28z"/></defs></svg>