<svg id="Layer_1" data-name="Layer 1" xmlns="http://www.w3.org/2000/svg" viewBox="0 0 2000 2000"><g id="layer1"><path id="rect1518" d="M1824.56,659.42V1735.35A139.34,139.34,0,0,1,1684.91,1875H315.09a139.34,139.34,0,0,1-139.65-139.65V659.42Z" style="fill:#e6e7e8;stroke:#3a3632;stroke-linecap:round;stroke-linejoin:round;stroke-width:20px;isolation:isolate;opacity:0.990000009536743"/><path id="rect1552" d="M115.88,659.06A88.7,88.7,0,0,0,27,747.94V829.6a88.7,88.7,0,0,0,88.9,88.88h59.56V659.41H224c-2.38-.18-4.79-.36-7.22-.36Z" style="fill:none;stroke:#3a3632;stroke-linecap:round;stroke-linejoin:round;stroke-width:20px;isolation:isolate;opacity:0.990000009536743"/><path id="path1558" d="M1884.12,659.07a88.7,88.7,0,0,1,88.9,88.87v81.67a88.7,88.7,0,0,1-88.9,88.88h-59.56V659.42H1776c2.38-.18,4.79-.36,7.22-.36Z" style="fill:none;stroke:#3a3632;stroke-linecap:round;stroke-linejoin:round;stroke-width:20px;isolation:isolate;opacity:0.990000009536743"/><g id="g864"><path id="path1510" d="M997.79,332.89C695.19,333.43,403,460,175.44,659.42H1824.56C1596.4,459.49,1303.37,332.89,1000,332.89Z" style="fill:#e6e7e8;fill-opacity:0.995950996875763;stroke:#3a3632;stroke-linecap:round;stroke-linejoin:round;stroke-width:20px;isolation:isolate;opacity:0.990000009536743"/><path id="path1507" d="M1197.17,348.53a201.63,201.63,0,0,0,1.56-24.8C1198.72,214,1109.75,125,1000,125h-1.41c-109.2.78-197.32,89.52-197.32,198.73a199.69,199.69,0,0,0,1.56,24.8" style="fill:none;stroke:#3a3632;stroke-linecap:round;stroke-linejoin:round;stroke-width:20px;isolation:isolate;opacity:0.990000009536743"/></g><circle cx="1000" cy="1116.16" r="207.91" style="fill:#fff;stroke:#3a3632;stroke-miterlimit:10;stroke-width:20px"/><line x1="1000" y1="1116.16" x2="1000" y2="975.31" style="fill:#fff;stroke:#3a3632;stroke-linecap:round;stroke-miterlimit:10;stroke-width:20px"/></g><path d="M793.8,1535a72.3,72.3,0,0,1,28.37,28.74q10.13,18.43,10.12,42.29,0,24.93-11.38,44.09A77.73,77.73,0,0,1,788.74,1680q-20.79,10.66-47.89,10.67a134.18,134.18,0,0,1-43.92-7.41q-21.51-7.41-36.69-20.06-8.31-7.23-8.31-17a20.89,20.89,0,0,1,4.52-13.56q4.51-5.59,10.66-5.6a18.66,18.66,0,0,1,6.87,1.27,41.13,41.13,0,0,1,7.59,4.15A137.36,137.36,0,0,0,709.76,1648,78.94,78.94,0,0,0,739,1653.4q23.87,0,36.51-11.93t12.65-34q0-21.32-12.83-33.79t-35.25-12.47a73.82,73.82,0,0,0-25.12,4q-11,4-22.59,13.38a24.7,24.7,0,0,1-14.09,4.69,18.22,18.22,0,0,1-12.29-4.33,14.45,14.45,0,0,1-5.06-11.57V1454.6q0-10.12,5.78-15.91t16.27-5.78H803.38q21.69,0,21.69,18.07t-21.69,18.08H706.51v68.67q18.43-13,45.18-13Q775.56,1524.72,793.8,1535Z" style="fill:#3a3632"/><path d="M872.41,1553.46a26.58,26.58,0,0,1-7.59-19.34q0-11.56,7.59-19.16t19.16-7.59q11.56,0,19.16,7.59t7.59,19.16a26.58,26.58,0,0,1-7.59,19.34q-7.59,7.77-19.16,7.77T872.41,1553.46Zm0,128.67a28.42,28.42,0,0,1,0-38.67q7.59-7.77,19.16-7.77t19.16,7.77a28.42,28.42,0,0,1,0,38.67q-7.59,7.78-19.16,7.77T872.41,1682.13Z" style="fill:#3a3632"/><path d="M1118.74,1578.76q12.1,16.08,12.11,39.94,0,32.9-24.22,52.41t-65.42,19.52A142.22,142.22,0,0,1,996,1683.4q-21.67-7.23-36.86-20.24-8.32-7.23-8.32-17a21,21,0,0,1,4.52-13.56q4.51-5.59,10.66-5.6a16,16,0,0,1,6.51,1.27c1.93.84,4.57,2.23,8,4.15A155.42,155.42,0,0,0,1009.4,1648a80.84,80.84,0,0,0,30,5.43q23.85,0,35.42-9.58t11.57-29.1q0-19.15-12.11-28.37t-37.41-9.22h-20.6q-8.32,0-12.84-5.6a20.77,20.77,0,0,1,0-25.85q4.52-5.42,12.84-5.42h14.45q49.52,0,49.52-37.23,0-17.34-10.48-26.74t-28.92-9.4q-26.38,0-56.38,21-5.07,2.89-8,4.16a16,16,0,0,1-6.51,1.26q-6.15,0-10.66-5.6a20.85,20.85,0,0,1-4.52-13.55,19.6,19.6,0,0,1,2-9.22,29.3,29.3,0,0,1,6.32-7.77,116.12,116.12,0,0,1,36.33-20.06,129.67,129.67,0,0,1,43.19-7.41q37.59,0,59.82,18.43t22.23,49.16q-.36,21-11,36.69t-29.82,23Q1106.63,1562.68,1118.74,1578.76Z" style="fill:#3a3632"/><path d="M1192.65,1657.55q-23.85-33.42-23.86-97.41,0-63.62,23.86-97.05t69-33.43q45.18,0,69,33.43t23.86,97.05q0,63.63-23.86,97.23t-69,33.62Q1216.49,1691,1192.65,1657.55Zm104.82-25.66q11.21-22.59,11.21-71.75,0-49.52-11.21-71.75t-35.78-22.23q-24.59,0-35.79,22.41t-11.2,71.57q0,49.17,11.2,71.75t35.79,22.59Q1286.26,1654.48,1297.47,1631.89Z" style="fill:#3a3632"/></svg>