<svg xmlns="http://www.w3.org/2000/svg" width="342.02" height="250"  xmlns:v="https://vecta.io/nano"><style><![CDATA[.K{stroke:#231f20}.L{fill:none}.M{stroke-linecap:round}.N{fill:#f1decd}.O{stroke:#010101}.P{stroke-miterlimit:15.12}.Q{stroke-width:4}.R{stroke-width:2}.S{stroke-miterlimit:10}]]></style><g fill="#fff" class="O P Q"><path d="M193 10.1h130.4a6.7 6.7 0 0 1 6.7 6.7v38.07a0 0 0 0 1 0 0H186.33a0 0 0 0 1 0 0V16.8a6.7 6.7 0 0 1 6.7-6.7z"/><rect x="181.62" y="53.69" width="153.62" height="187.95" rx="6.7"/></g><g class="L O P"><path d="M181.62 71.33h153.62M182.2 194.48h152.48" class="R"/><path d="M202.9 50.36h44.45m22.15 0h44.45" class="M Q"/></g><rect x="202.66" y="91.98" width="111.53" height="81.86" rx="12" fill="#fff" class="O P Q"/><path d="M203 149h111.43m-100.8 0v23.6m15.03-23.6v23.6m15.03-23.6v23.6M258.7 149v23.6m15.03-23.6v23.6m15.03-23.6v23.6M303.8 149v23.6" class="L M R O P"/><g fill="#f1f2f2" class="K S"><path d="M159.63 154.14l-5.18 3.38a3.94 3.94 0 0 1-2.14.63H12.54a4 4 0 0 1-2.11-.61l-4.86-3.1" class="R"/><path d="M154.75 155.73H10.1c-4.4 0-6.8-2.45-5.44-5.4l18.24-39.18c.78-1.67 4-3 7.15-3H134.8c3.17 0 6.37 1.32 7.14 3l18.24 39.18c1.37 2.94-1.05 5.4-5.44 5.4z" stroke-width="3"/></g><path d="M8.44 151.8L25.52 114c.64-1.4 3.3-2.5 6-2.5h101.85c2.67 0 5.34 1.1 6 2.5l16.9 37.26" stroke-linejoin="round" class="K L M"/><g class="S K"><g class="N"><path d="M41.72 128.9c6.9 0 12.57-2.14 14.4-4.95l2-4.84c0-4-7.36-7.24-16.43-7.24s-16.43 3.24-16.43 7.24c0 0-.16-.34 2.17 4.84 1.86 2.8 7.37 4.95 14.28 4.95z"/><path d="M41.72 111.12c1 0 2-1.13 2.9-1.07s1.8 1.3 2.72 1.42 2-.85 2.9-.66 1.2 1.28 1.9 1.48 1.93-.44 2.62-.17.9 1.45 1.53 1.8 1.7.2 2.2.6-.08 1.5.3 2 1.24.87 1.24 1.6-.95.9-1.4 1.58.37 1.34-.24 1.82-1.52.24-2.18.6-.27 1.5-1 1.8-2-.4-2.8-.16-1.12 1.7-1.9 1.85-2.1-1-3.1-.83-1.77 1.55-2.75 1.6-2-1.25-2.94-1.25-2 1.3-2.94 1.25-1.8-1.46-2.8-1.58-2.18 1-3.1.83-1.17-1.64-1.9-1.85-2.1.42-2.8.16-.4-1.47-1-1.8-1.67-.2-2.17-.6.1-1.28-.24-1.82-1.4-.85-1.4-1.58.78-.92 1.24-1.6-.34-1.54.3-2 1.54-.24 2.2-.6.6-1.5 1.38-1.8 2 .4 2.78.17 1.13-1.32 1.9-1.48 1.9.8 2.9.66 1.75-1.36 2.73-1.42 1.92 1.04 2.9 1.04z"/></g><path d="M53.38 119c-2.45-1.74-6.76-2.9-11.66-2.9s-9.2 1.16-11.67 2.9m24.8-4c-2.77-1.6-7.6-2.64-13.13-2.64s-10.36 1-13.13 2.64m28.4 2.6c0 3.17-6.84 5.74-15.28 5.74s-15.28-2.57-15.28-5.74" class="L M"/><g class="N"><path d="M82.77 128.9c6.9 0 12.58-2.14 14.42-4.95l2-4.84c0-4-7.36-7.24-16.44-7.24s-16.43 3.24-16.43 7.24l2.17 4.84c1.86 2.8 7.37 4.95 14.28 4.95z"/><path d="M82.77 111.12c1 0 2-1.13 2.9-1.07s1.8 1.3 2.73 1.42 2-.85 2.9-.66 1.2 1.28 1.9 1.48 1.94-.44 2.62-.17.9 1.45 1.54 1.8 1.7.2 2.2.6-.07 1.5.3 2 1.24.87 1.24 1.6-.94.9-1.38 1.58.36 1.34-.25 1.82-1.52.24-2.17.6-.27 1.5-1 1.8-2-.4-2.8-.16-1.13 1.7-1.9 1.85c-.92.2-2.1-1-3.1-.83s-1.76 1.55-2.75 1.6-1.95-1.25-2.94-1.25-2 1.3-2.93 1.25-1.83-1.5-2.76-1.6-2.18 1-3.1.83-1.2-1.65-1.9-1.85-2.1.42-2.8.16-.4-1.47-1-1.8-1.68-.2-2.18-.6.12-1.28-.24-1.82-1.4-.85-1.4-1.58.8-.92 1.24-1.6-.33-1.54.3-2 1.54-.24 2.2-.6.6-1.5 1.37-1.8 2 .4 2.78.17 1.13-1.32 1.9-1.48 1.92.8 2.9.66 1.75-1.36 2.73-1.42 1.86 1.07 2.83 1.07z"/></g><path d="M94.44 119c-2.46-1.74-6.77-2.9-11.67-2.9s-9.2 1.16-11.66 2.9m24.8-4c-2.76-1.6-7.6-2.64-13.13-2.64s-10.36 1-13.12 2.64m28.4 2.6c0 3.17-6.84 5.74-15.28 5.74s-15.28-2.57-15.28-5.74" class="L M"/><g class="N"><path d="M123.83 128.9c6.9 0 12.57-2.14 14.4-4.95l2-4.84c0-4-7.36-7.24-16.43-7.24s-16.44 3.24-16.44 7.24l2.18 4.84c1.85 2.8 7.37 4.95 14.28 4.95z"/><path d="M123.83 111.12c1 0 2-1.13 2.9-1.07s1.8 1.3 2.72 1.42 2-.85 2.9-.66 1.2 1.28 1.9 1.48 1.93-.44 2.6-.17.9 1.45 1.54 1.8 1.7.2 2.2.6-.08 1.5.3 2 1.24.87 1.24 1.6-1 .9-1.4 1.58.37 1.34-.24 1.82-1.53.24-2.18.6-.27 1.5-1 1.8-2-.4-2.8-.16-1.12 1.7-1.9 1.85-2.1-1-3.1-.83-1.77 1.55-2.76 1.6-2-1.25-2.93-1.25-2 1.3-2.94 1.25-1.82-1.5-2.75-1.6-2.18 1-3.1.83-1.2-1.65-1.9-1.85-2.1.42-2.8.16-.4-1.47-1-1.8-1.67-.2-2.17-.6.1-1.28-.24-1.82-1.4-.85-1.4-1.58.78-.92 1.24-1.6-.34-1.54.3-2 1.54-.24 2.2-.6.6-1.5 1.38-1.8 2 .4 2.78.17 1.13-1.32 1.9-1.48 1.9.8 2.9.66 1.75-1.36 2.73-1.42 1.86 1.07 2.84 1.07z"/></g><path d="M135.5 119c-2.45-1.74-6.76-2.9-11.66-2.9s-9.2 1.16-11.67 2.9m24.83-4c-2.76-1.6-7.6-2.64-13.12-2.64s-10.36 1-13.13 2.64m28.35 2.6c0 3.17-6.84 5.74-15.28 5.74s-15.28-2.57-15.28-5.74" class="L M"/><g class="N"><path d="M34.94 152c8.06 0 14.65-2.5 16.8-5.77l2.35-5.63c0-4.66-8.57-8.44-19.15-8.44S15.8 136 15.8 140.64l2.53 5.63c2.14 3.28 8.56 5.73 16.6 5.73z"/><path d="M34.94 131.33c1.14 0 2.3-1.3 3.4-1.24s2.1 1.52 3.18 1.66 2.3-1 3.37-.77c.9.2 1.4 1.48 2.2 1.72s2.26-.5 3-.2 1 1.7 1.8 2.1 2 .22 2.57.7-.1 1.74.33 2.37c.53.8 1.45 1 1.45 1.87s-1.1 1.06-1.62 1.83.43 1.56-.28 2.13-1.78.27-2.54.7-.3 1.76-1.2 2.1-2.36-.45-3.26-.2-1.3 2-2.2 2.16c-1.07.23-2.45-1.12-3.6-1s-2 1.8-3.2 1.88-2.28-1.46-3.43-1.46-2.32 1.53-3.42 1.46-2.12-1.74-3.2-1.88-2.53 1.2-3.6 1c-.9-.2-1.4-1.92-2.2-2.16s-2.46.5-3.26.2-.46-1.7-1.2-2.1-2-.23-2.53-.7.13-1.5-.28-2.13-1.62-1-1.62-1.83.92-1.08 1.45-1.87c.42-.63-.4-1.8.33-2.37s1.8-.27 2.57-.7.7-1.75 1.6-2.1 2.34.45 3.24.2 1.37-1.53 2.26-1.7 2.23.92 3.37.77 2-1.6 3.18-1.66 2.26 1.22 3.4 1.22z"/></g><path d="M48.53 140.57c-2.86-2-7.88-3.4-13.6-3.4s-10.72 1.35-13.58 3.4m28.9-4.74c-3.22-1.85-8.87-3.07-15.3-3.07s-12.07 1.24-15.3 3.07m33.1 3.05c0 3.7-8 6.7-17.8 6.7s-17.8-3-17.8-6.7" class="L M"/><g class="N"><path d="M82.77 152c8 0 14.65-2.5 16.8-5.77l2.35-5.63c0-4.66-8.57-8.44-19.15-8.44s-19.14 3.84-19.14 8.48l2.53 5.63c2.14 3.28 8.56 5.73 16.6 5.73z"/><path d="M82.77 131.33c1.14 0 2.3-1.3 3.4-1.24s2.1 1.52 3.18 1.66 2.3-1 3.37-.77c.9.2 1.4 1.48 2.2 1.72s2.26-.5 3-.2 1 1.7 1.8 2.1 2 .22 2.57.7-.1 1.74.33 2.37c.53.8 1.45 1 1.45 1.87s-1.1 1.06-1.62 1.83.43 1.56-.28 2.13-1.78.27-2.54.7-.3 1.76-1.2 2.1-2.36-.45-3.26-.2-1.3 2-2.22 2.16c-1.06.23-2.44-1.12-3.6-1s-2.05 1.8-3.2 1.88-2.28-1.46-3.43-1.46-2.32 1.53-3.42 1.46-2.12-1.74-3.2-1.88-2.53 1.2-3.6 1c-.9-.2-1.4-1.92-2.22-2.16s-2.45.5-3.25.2-.46-1.7-1.2-2.1-2-.23-2.53-.7.13-1.5-.28-2.13-1.62-1-1.62-1.83.92-1.08 1.45-1.87c.42-.63-.4-1.8.33-2.37s1.8-.27 2.57-.7.7-1.75 1.6-2.1 2.34.45 3.24.2 1.32-1.53 2.22-1.72 2.23.92 3.37.77 2-1.6 3.18-1.66 2.3 1.24 3.43 1.24z"/></g><path d="M96.36 140.57c-2.86-2-7.88-3.4-13.6-3.4s-10.72 1.35-13.6 3.4m28.9-4.74c-3.22-1.85-8.87-3.07-15.3-3.07s-12.07 1.24-15.3 3.07m33.1 3.05c0 3.7-8 6.7-17.8 6.7s-17.8-3-17.8-6.7" class="L M"/><g class="N"><path d="M130.6 152c8.05 0 14.65-2.5 16.8-5.77l2.36-5.63c0-4.66-8.57-8.44-19.15-8.44s-19.14 3.78-19.14 8.44l2.53 5.63c2.14 3.32 8.56 5.77 16.6 5.77z"/><path d="M130.6 131.33c1.14 0 2.3-1.3 3.4-1.24s2.1 1.52 3.18 1.66 2.3-1 3.37-.77c.9.2 1.4 1.48 2.2 1.72s2.26-.5 3.05-.2 1 1.7 1.8 2.1 2 .22 2.56.7-.1 1.74.34 2.37c.53.8 1.44 1 1.44 1.87s-1.1 1.06-1.6 1.83.43 1.56-.28 2.13-1.78.27-2.54.7-.3 1.76-1.2 2.1-2.35-.45-3.25-.2-1.3 2-2.22 2.16c-1.06.23-2.44-1.12-3.6-1s-2 1.8-3.2 1.88-2.27-1.46-3.42-1.46-2.32 1.53-3.42 1.46-2.12-1.74-3.2-1.88-2.53 1.2-3.6 1c-.9-.2-1.4-1.92-2.22-2.16s-2.45.5-3.25.2-.46-1.7-1.2-2.1-2-.23-2.53-.7.13-1.5-.28-2.13-1.62-1-1.62-1.83.92-1.08 1.44-1.87c.43-.63-.4-1.8.34-2.37s1.8-.27 2.57-.7.7-1.75 1.6-2.1 2.34.45 3.24.2 1.3-1.53 2.22-1.72 2.23.92 3.37.77 2-1.6 3.17-1.66 2.26 1.24 3.4 1.24z"/></g><path d="M144.2 140.57c-2.86-2-7.88-3.4-13.6-3.4s-10.72 1.35-13.6 3.4m28.9-4.74c-3.22-1.85-8.87-3.07-15.3-3.07s-12.07 1.22-15.3 3.07m33.1 3.05c0 3.7-8 6.7-17.8 6.7s-17.8-3-17.8-6.7" class="L M"/></g><path d="M175.78 152.83l19.62-11.37 19.7-11.37-19.63-11.38-19.68-11.37v14.9h-14.92v16.58h14.92v14.02z" fill="#f69274" fill-rule="evenodd"/></svg>