<svg xmlns="http://www.w3.org/2000/svg" height="1935.516" width="1935.59"  xmlns:v="https://vecta.io/nano"><circle r="852.48" cy="1071.036" cx="864.48" fill="#fff" stroke="#231f20" stroke-width="32"/><path d="M1913.84 111.296l-89.54-89.55a33.31 33.31 0 0 0-44.46-2.36l-2.14 1.72a543.11 543.11 0 0 0-56 52.12l-169.85 183.23a669.56 669.56 0 0 0-56.46 69.34l-73.12 97.4 90.25 90.25 97.17-73a669.77 669.77 0 0 0 69.7-56.84l183.82-170.74a541.65 541.65 0 0 0 50.42-54l2.47-3a33.28 33.28 0 0 0-2.26-44.57z" fill="#231f20"/><circle r="675.28" cy="1071.036" cx="864.48" fill="none" stroke="#231f20" stroke-width="16"/><g transform="rotate(315)" fill="#231f20"><ellipse ry="18.02" rx="12.27" cy="1285.454" cx="598.378"/><ellipse ry="18.02" rx="12.27" cy="1451.776" cx="598.374"/></g><path d="M1343.06 1389.686c-48.44 188.68-294.6 260.3-446.75 282.67-250.57 36.85-368.72-70.22-512-209.08-234.56-227.23-168.67-610.28 71.3-831.7 115.45-106.53 260.94-152.2 412.7-147.84s315.73 48.45 441.3 161.26c265.92 238.8 103.2 473 33.44 744.74z" opacity=".992" fill="#ecdaba" stroke="#231f20" stroke-width="32" stroke-linejoin="round"/><g fill="#231f20"><circle r="15.61" cy="1193.506" cx="1125.37"/><circle r="15.61" cy="997.286" cx="1196.72"/><circle r="15.61" cy="966.076" cx="1018.34"/><circle r="15.61" cy="805.526" cx="906.85"/><circle r="15.61" cy="818.906" cx="728.47"/><circle r="15.61" cy="988.366" cx="639.28"/><circle r="15.61" cy="1001.746" cx="826.58"/><circle r="15.61" cy="1189.046" cx="567.93"/><circle r="15.61" cy="1197.966" cx="755.23"/><circle r="15.61" cy="1383.036" cx="686.1"/><circle r="15.61" cy="1349.586" cx="880.09"/><circle r="15.61" cy="1166.746" cx="942.53"/></g></svg>