<svg id="Layer_1" data-name="Layer 1" xmlns="http://www.w3.org/2000/svg" viewBox="0 0 1299.97 2000"><path d="M1278.51,1458.06c0-32.45-8-68.71-29.53-98.74-43.48-60.51-124.57-88.87-209.34-73.32l-13,2.38V1180.71c0-85.08-177.8-154-397.13-154s-397.12,69-397.12,154v653.15c0,85.08,177.8,154,397.12,154s397.13-69,397.13-154v-72.11C1091.19,1735.78,1278.51,1643.73,1278.51,1458.06Zm-251.85,192.39V1388.34a244.82,244.82,0,0,1,38.4-10.6c45.27-9.11,97.89,8,115.92,30.44,17.07,21.2,19.63,45.45,19.63,59.86C1200.61,1564,1092.43,1626.05,1026.66,1650.45Z" style="fill:#fff;stroke:#33302d;stroke-miterlimit:10;stroke-width:12px"/><path d="M629.53,996.84c-161.06,0-351.75,76.27-335.18,192.22.74,1.11,1.52,2.21,2.33,3.31,52.2,51.51,181.54,88,332.85,88s280.66-36.46,332.85-88c.82-1.1,1.6-2.2,2.34-3.31C973.49,1077.1,790.6,996.84,629.53,996.84Z" style="fill:#e1b15b;stroke:#33302d;stroke-miterlimit:10;stroke-width:12px;isolation:isolate;opacity:0.991999983787537"/><path d="M283.52,1176.67c40,59.64,179.74,103.67,346,103.67s306-44,346-103.67" style="fill:none;stroke:#33302d;stroke-linecap:round;stroke-miterlimit:10;stroke-width:12px"/><path d="M526.29,1046.27l2.47,1.8a12.12,12.12,0,0,0,17.18-3l5.54-8.15a12.13,12.13,0,0,1,21.23,2.13h0a12.14,12.14,0,0,0,21.24,2.13h0a12.13,12.13,0,0,1,21.23,2.14l3.81,9.09a12.13,12.13,0,0,0,16.24,6.35l2.78-1.27" style="fill:#e1b15b;stroke:#33302d;stroke-linecap:round;stroke-miterlimit:10;stroke-width:8px;isolation:isolate;opacity:0.991999983787537"/><path d="M609.93,1114.06l2.47,1.8a12.14,12.14,0,0,0,17.19-3l5.53-8.16a12.14,12.14,0,0,1,21.24,2.13h0a12.13,12.13,0,0,0,21.23,2.14h0a12.14,12.14,0,0,1,21.24,2.13l3.8,9.09a12.13,12.13,0,0,0,16.25,6.35l2.78-1.27" style="fill:none;stroke:#33302d;stroke-linecap:round;stroke-miterlimit:10;stroke-width:8px"/><path d="M686.66,1209.15l2.62,1.58a12.13,12.13,0,0,0,16.86-4.45l4.82-8.6a12.13,12.13,0,0,1,21.34.3h0a12.13,12.13,0,0,0,21.34.3h0a12.14,12.14,0,0,1,21.34.31l4.57,8.73a12.13,12.13,0,0,0,16.73,4.93l2.66-1.5" style="fill:none;stroke:#33302d;stroke-linecap:round;stroke-miterlimit:10;stroke-width:8px"/><path d="M779.4,1103l2.06,2.26a12.13,12.13,0,0,0,17.43.54l7.07-6.87a12.14,12.14,0,0,1,20.37,6.38h0a12.14,12.14,0,0,0,20.37,6.38h0a12.13,12.13,0,0,1,20.36,6.37l1.89,9.68a12.13,12.13,0,0,0,14.63,9.49l3-.68" style="fill:none;stroke:#33302d;stroke-linecap:round;stroke-miterlimit:10;stroke-width:8px"/><path d="M485,1153.68l-2.49,1.77a12.14,12.14,0,0,1-17.15-3.2l-5.44-8.22a12.13,12.13,0,0,0-21.25,1.88h0a12.14,12.14,0,0,1-21.26,1.87h0a12.13,12.13,0,0,0-21.26,1.88l-3.92,9a12.13,12.13,0,0,1-16.32,6.15l-2.76-1.3" style="fill:none;stroke:#33302d;stroke-linecap:round;stroke-miterlimit:10;stroke-width:8px"/><path d="M542.56,1189l2.34,2a12.15,12.15,0,0,0,17.35-1.86l6.06-7.78a12.14,12.14,0,0,1,21.05,3.52h0" style="fill:none;stroke:#33302d;stroke-linecap:round;stroke-miterlimit:10;stroke-width:8px"/><path d="M413.75,1092.13h0a12.14,12.14,0,0,0,21.29-1.51h0a12.14,12.14,0,0,1,21.29-1.5l5.29,8.31a12.14,12.14,0,0,0,17.09,3.5l2.52-1.72" style="fill:none;stroke:#33302d;stroke-linecap:round;stroke-miterlimit:10;stroke-width:8px"/><path d="M716.93,1051.39h0a12.14,12.14,0,0,0,21.29-1.51h0a12.14,12.14,0,0,1,21.29-1.5l5.29,8.31a12.14,12.14,0,0,0,17.09,3.5l2.52-1.73" style="fill:none;stroke:#33302d;stroke-linecap:round;stroke-miterlimit:10;stroke-width:8px"/><path d="M564,717.53A29.88,29.88,0,0,1,561.85,734c-2.23,5.36-6,9.65-8.32,14.06a25.61,25.61,0,0,0-3.61,13.51c0,4.79.72,9.52,2.7,13.36s5.19,7.24,8.84,11.76,7.3,10.57,8.43,17a42.2,42.2,0,0,1-.71,19.1c-1.72,6.55-5.85,12.11-9.17,16.29s-5.83,7.46-6.94,11.42a31.69,31.69,0,0,0-.75,12.91c.51,4.27,2.25,7.88,5.16,11.92s7,8.82,9.14,15a37.57,37.57,0,0,1,1.75,18.34,33.47,33.47,0,0,1-7.06,16.59c-3.67,4.56-7.73,7.91-10.61,12.1A32.11,32.11,0,0,0,545.21,952a29.86,29.86,0,0,1,2.1-16.46c2.23-5.37,6-9.67,8.31-14.07a25.56,25.56,0,0,0,3.61-13.51c0-4.79-.7-9.52-2.67-13.36s-5.16-7.26-8.8-11.76-7.32-10.54-8.47-17a42.47,42.47,0,0,1,.67-19.1c1.69-6.55,5.79-12.16,9.14-16.33s5.87-7.48,7-11.43a31.84,31.84,0,0,0,.8-12.91c-.51-4.27-2.21-7.88-5.13-11.92s-7-8.8-9.15-15a37.29,37.29,0,0,1-1.78-18.33,33.31,33.31,0,0,1,7-16.59c3.67-4.56,7.73-7.91,10.61-12.1A31.88,31.88,0,0,0,564,717.53Z" style="fill:#231f20"/><path d="M659.37,717.53A29.88,29.88,0,0,1,657.25,734c-2.23,5.36-6,9.65-8.32,14.06a25.61,25.61,0,0,0-3.61,13.51c0,4.79.72,9.52,2.7,13.36s5.19,7.24,8.84,11.76,7.31,10.57,8.43,17a42.06,42.06,0,0,1-.71,19.1c-1.71,6.55-5.84,12.11-9.17,16.29s-5.83,7.46-6.93,11.42a31.69,31.69,0,0,0-.76,12.91c.52,4.27,2.25,7.88,5.16,11.92s7,8.82,9.14,15a37.57,37.57,0,0,1,1.75,18.34,33.47,33.47,0,0,1-7.06,16.59c-3.67,4.56-7.73,7.91-10.6,12.1a32,32,0,0,0-5.5,14.59,30,30,0,0,1,2.1-16.46c2.23-5.37,6-9.67,8.32-14.07a25.75,25.75,0,0,0,3.61-13.51c0-4.79-.71-9.52-2.68-13.36s-5.15-7.26-8.8-11.76-7.32-10.54-8.46-17a42.32,42.32,0,0,1,.66-19.1c1.69-6.55,5.79-12.16,9.14-16.33s5.88-7.48,7-11.43a31.84,31.84,0,0,0,.8-12.91c-.5-4.27-2.21-7.88-5.13-11.92s-7-8.8-9.15-15a37.29,37.29,0,0,1-1.78-18.33,33.31,33.31,0,0,1,7-16.59c3.67-4.56,7.73-7.91,10.61-12.1A31.88,31.88,0,0,0,659.37,717.53Z" style="fill:#231f20"/><path d="M754.77,717.53A29.88,29.88,0,0,1,752.65,734c-2.23,5.36-6,9.65-8.32,14.06a25.7,25.7,0,0,0-3.61,13.51c0,4.79.72,9.52,2.71,13.36s5.19,7.24,8.83,11.76,7.31,10.57,8.43,17a42.06,42.06,0,0,1-.71,19.1c-1.71,6.55-5.84,12.11-9.16,16.29s-5.84,7.46-6.94,11.42a31.69,31.69,0,0,0-.76,12.91c.52,4.27,2.25,7.88,5.17,11.92s7,8.82,9.13,15a37.45,37.45,0,0,1,1.75,18.34,33.47,33.47,0,0,1-7.06,16.59c-3.67,4.56-7.73,7.91-10.6,12.1A31.88,31.88,0,0,0,736,952a29.77,29.77,0,0,1,2.1-16.46c2.22-5.37,6-9.67,8.31-14.07A25.75,25.75,0,0,0,750,907.91c0-4.79-.71-9.52-2.68-13.36s-5.15-7.26-8.8-11.76-7.32-10.54-8.46-17a42.46,42.46,0,0,1,.66-19.1c1.69-6.55,5.79-12.16,9.14-16.33s5.88-7.48,7-11.43a31.84,31.84,0,0,0,.8-12.91c-.5-4.27-2.21-7.88-5.13-11.92s-7-8.8-9.15-15a37.17,37.17,0,0,1-1.77-18.33,33.2,33.2,0,0,1,7-16.59c3.67-4.56,7.73-7.91,10.61-12.1A31.88,31.88,0,0,0,754.77,717.53Z" style="fill:#231f20"/><path d="M511.3,610.68l-23.6-24.84a465.92,465.92,0,0,1-68.76-93.66c-20-35.81-47.57-81-67.15-96.6-34.23-27.32-30.6-44.7-22.79-51.43,10.8-9.31,21.2-9.59,37.25-9.59a75.35,75.35,0,0,1,9,.54c36.35,4.37,80,57.46,91.55,67.71,3.69,3.28,7.37,6.55,11.07,9.77A9.78,9.78,0,0,0,494,405.19l4.9-299c0-20,11.35-36.21,31.32-36.21s31.33,16.25,31.33,36.21l4.89,207.63a9.78,9.78,0,1,0,19.56,0l4.89-263.62c0-20,11.36-36.22,31.33-36.22s31.32,16.25,31.32,36.22l4.89,262.58a9.79,9.79,0,0,0,19.57,0l4.89-216.59c0-20,11.35-36.21,31.32-36.21s31.32,16.25,31.32,36.21l4.9,227.14a9.78,9.78,0,1,0,19.56,0l4.89-155.14c0-20,11.35-36.22,31.32-36.22s31.33,16.25,31.33,36.22l3.88,142.06q1,36.8-1.41,73.55l-4.34,65.75A460.58,460.58,0,0,1,791,619.18h0a87.55,87.55,0,0,1-77.86,49.52l-62.78.73A188.84,188.84,0,0,1,511.3,610.68Z" style="fill:#fff;stroke:#33302d;stroke-miterlimit:10;stroke-width:12px"/></svg>