<svg xmlns="http://www.w3.org/2000/svg" xmlns:xlink="http://www.w3.org/1999/xlink" height="1914.76" width="1956.76" xmlns:v="https://vecta.io/nano"><style><![CDATA[.B{stroke:#231f20}.C{stroke-miterlimit:10}.D{fill:#fff}.E{stroke-width:8}.F{stroke-width:8.179}.G{stroke-width:24}]]></style><g fill="#ba946a" class="B C G"><path d="M1871.1 1679.97c0-48.3-91.63-113.15-162.54-113.15s-162.55 63.56-162.55 113.15c0 62.5 72.78 44.43 162.55 44.43s162.54 18.06 162.54-44.43z"/><use xlink:href="#B"/><path d="M892.32 1679.97c0-48.3-91.63-113.15-162.54-113.15s-162.54 63.56-162.54 113.15c0 62.5 72.77 44.43 162.54 44.43s162.54 18.06 162.54-44.43z"/><use xlink:href="#B" x="-978.78"/></g><path d="M353.02 1888.75l65.07-188.1-29.62-21.85-29.62 21.85-29.6-21.85-29.62 21.85L270 1678.8l-29.62 21.85-29.62-21.85-29.6 21.85-29.62-21.85-29.62 21.85-29.62-21.85-29.6 21.85 65.07 188.1z" class="B C D E"/><path d="M240.38 1700.64v188.1m59.24-188.1l-21.7 188.1m80.93-188.1l-43.38 188.1m-134.32-188.1l21.7 188.1m-80.95-188.1l43.38 188.1" fill="none" class="F B C"/><path d="M842.4 1888.75l65.07-188.1-29.6-21.85-29.62 21.85-29.62-21.85-29.62 21.85-29.62-21.85-29.6 21.85-29.62-21.85-29.62 21.85-29.62-21.85-29.6 21.85-29.62-21.85-29.62 21.85 65.07 188.1z" class="B C D E"/><path d="M729.78 1700.64v188.1m59.22-188.1l-21.7 188.1m80.95-188.1l-43.38 188.1m-134.33-188.1l21.7 188.1m-80.94-188.1l43.38 188.1" fill="none" class="F B C"/><path d="M1331.8 1888.75l65.07-188.1-29.62-21.85-29.62 21.85-29.62-21.85-29.6 21.85-29.62-21.85-29.62 21.85-29.62-21.85-29.6 21.85-29.62-21.85-29.62 21.85-29.62-21.85-29.6 21.85 65.06 188.1z" class="B C D E"/><path d="M1219.17 1700.64v188.1m59.23-188.1l-21.7 188.1m80.94-188.1l-43.38 188.1m-134.32-188.1l21.7 188.1m-80.94-188.1l43.38 188.1" fill="none" class="F B C"/><path d="M1821.2 1888.75l65.07-188.1-29.62-21.85-29.6 21.85-29.62-21.85-29.62 21.85-29.62-21.85-29.6 21.85-29.62-21.85-29.62 21.85-29.62-21.85-29.62 21.85-29.6-21.85-29.62 21.85 65.07 188.1z" class="B C D E"/><path d="M1708.57 1700.64v188.1m59.23-188.1l-21.7 188.1m80.94-188.1l-43.38 188.1m-134.33-188.1l21.7 188.1m-80.93-188.1l43.37 188.1" fill="none" class="F B C"/><g class="D G B C"><path d="M12 1758.76h1932.76" stroke-linecap="round" opacity="1"/><path d="M571.63 1758.76h316.3l-30.92 144H602.56zm-489.4 0h316.3l-30.93 144H113.16zm978.8 0h316.34l-30.93 144h-254.5zm489.4 0h316.3l-30.92 144H1581.4z" opacity="1"/></g><path d="M848.22 1075.63a51.74 51.74 0 0 1-3.67 28.6c-3.88 9.3-10.47 16.77-14.47 24.42a44.61 44.61 0 0 0-6.26 23.48c0 8.32 1.25 16.54 4.7 23.2 3.22 6.83 9 12.6 15.36 20.44 6.47 7.66 12.7 18.36 14.64 29.58a73.13 73.13 0 0 1-1.23 33.17c-3 11.4-10.15 21-15.93 28.3s-10.13 13-12.05 19.84c-2.1 6.72-2.28 15.12-1.3 22.45s3.9 13.68 9 20.7 12.12 15.32 15.88 26a65.26 65.26 0 0 1 3 31.87 58.17 58.17 0 0 1-12.26 28.82c-6.38 7.92-13.43 13.74-18.43 21a55.45 55.45 0 0 0-9.54 25.35 51.87 51.87 0 0 1 3.65-28.61c3.86-9.3 10.44-16.8 14.44-24.44a44.52 44.52 0 0 0 6.27-23.47c0-8.3-1.23-16.54-4.65-23.22-3.22-6.82-9-12.6-15.3-20.42s-12.68-18.27-14.68-29.5a73.85 73.85 0 0 1 1.16-33.18c2.94-11.4 10.06-21.12 15.88-28.37s10.2-13 12.15-19.86c2.1-6.7 2.3-15.1 1.4-22.43s-3.85-13.7-8.92-20.72-12.1-15.3-15.9-26a64.85 64.85 0 0 1-3.08-31.85 57.81 57.81 0 0 1 12.22-28.82c6.38-7.92 13.43-13.74 18.44-21a55.24 55.24 0 0 0 9.5-25.37zm165.78 0a51.84 51.84 0 0 1-3.68 28.6c-3.87 9.3-10.47 16.77-14.47 24.42a44.61 44.61 0 0 0-6.26 23.48c0 8.32 1.25 16.54 4.7 23.2 3.22 6.83 9 12.6 15.36 20.44 6.48 7.66 12.7 18.36 14.64 29.58a73.13 73.13 0 0 1-1.23 33.17c-3 11.4-10.15 21-15.92 28.3s-10.14 13-12.06 19.84c-2.1 6.72-2.28 15.12-1.3 22.45s3.9 13.68 9 20.7 12.12 15.32 15.88 26a65.26 65.26 0 0 1 3 31.87 58.17 58.17 0 0 1-12.26 28.82c-6.38 7.92-13.43 13.74-18.43 21a55.56 55.56 0 0 0-9.54 25.35 51.87 51.87 0 0 1 3.65-28.61c3.87-9.3 10.44-16.8 14.44-24.44a44.52 44.52 0 0 0 6.27-23.47c0-8.3-1.22-16.54-4.65-23.22-3.22-6.82-9-12.6-15.3-20.42s-12.72-18.33-14.7-29.55a73.71 73.71 0 0 1 1.15-33.18c2.94-11.4 10.06-21.12 15.88-28.37s10.2-13 12.15-19.86c2.1-6.7 2.3-15.1 1.4-22.43s-3.85-13.7-8.92-20.72-12.1-15.3-15.9-26a64.85 64.85 0 0 1-3.08-31.85 57.82 57.82 0 0 1 12.23-28.82c6.37-7.92 13.43-13.74 18.43-21a55.36 55.36 0 0 0 9.54-25.31zm165.75 0a51.84 51.84 0 0 1-3.68 28.6c-3.87 9.3-10.47 16.77-14.46 24.42a44.53 44.53 0 0 0-6.23 23.44c0 8.32 1.25 16.54 4.7 23.2 3.2 6.83 9 12.6 15.35 20.44 6.48 7.66 12.7 18.36 14.64 29.58a73.13 73.13 0 0 1-1.23 33.17c-3 11.4-10.15 21-15.92 28.3s-10.14 13-12.06 19.84c-2.08 6.72-2.28 15.12-1.3 22.45s3.9 13.68 9 20.7 12.12 15.32 15.88 26a65.26 65.26 0 0 1 3 31.87 58.08 58.08 0 0 1-12.26 28.82c-6.38 7.92-13.43 13.74-18.43 21a55.56 55.56 0 0 0-9.54 25.35 51.87 51.87 0 0 1 3.65-28.61c3.87-9.3 10.45-16.8 14.44-24.44a44.63 44.63 0 0 0 6.28-23.47c0-8.3-1.23-16.54-4.66-23.22-3.22-6.82-9-12.6-15.3-20.42s-12.72-18.33-14.7-29.55a73.85 73.85 0 0 1 1.15-33.18c2.94-11.4 10.06-21.12 15.88-28.37s10.2-13 12.15-19.86c2.12-6.7 2.3-15.1 1.4-22.43s-3.85-13.7-8.92-20.72-12.1-15.3-15.9-26a64.74 64.74 0 0 1-3.09-31.85 57.82 57.82 0 0 1 12.23-28.82c6.37-7.92 13.43-13.74 18.43-21a55.36 55.36 0 0 0 9.5-25.27z" fill="#231f20"/><path d="M806.52 861.93l-33.6-35.38a663.46 663.46 0 0 1-97.95-133.41c-28.5-51-67.77-115.35-95.65-137.6-48.76-38.92-43.6-63.68-32.47-73.26 15.4-13.27 30.2-13.66 53.06-13.66a105.73 105.73 0 0 1 12.78.77c51.78 6.23 114 81.84 130.4 96.44l15.76 13.92a13.93 13.93 0 0 0 23.07-10.52l7-425.88c0-28.44 16.17-51.6 44.62-51.6s44.63 23.15 44.63 51.6l7 295.76a13.94 13.94 0 0 0 27.87 0l7-375.53c0-28.44 16.17-51.58 44.62-51.58s44.62 23.14 44.62 51.58l7 374a13.94 13.94 0 1 0 27.87 0l7-308.5c0-28.45 16.17-51.6 44.62-51.6s44.62 23.14 44.62 51.6l7 323.54a13.94 13.94 0 1 0 27.87 0l7-221c0-28.45 16.17-51.6 44.62-51.6s44.62 23.14 44.62 51.6l5.53 202.36q1.44 52.4-2 104.76l-6.18 93.65a655.67 655.67 0 0 1-63.9 241.71h0a124.71 124.71 0 0 1-110.9 70.54l-89.43 1a269 269 0 0 1-198.1-83.7z" class="B C D G"/><defs ><path id="B" d="M1381.7 1679.97c0-48.3-91.62-113.15-162.54-113.15s-162.54 63.56-162.54 113.15c0 62.5 72.77 44.43 162.54 44.43s162.54 18.06 162.54-44.43z"/></defs></svg>