<svg xmlns="http://www.w3.org/2000/svg" xmlns:xlink="http://www.w3.org/1999/xlink" height="1976.12" width="1886.244" xmlns:v="https://vecta.io/nano"><style><![CDATA[.B{stroke-width:8}.C{stroke:#000}.D{fill:#fcf5e9}.E{stroke:#050507}.F{stroke-linecap:round}.G{fill:#ebd39b}.H{fill:#775d42}.I{stroke:#231f20}.J{stroke-miterlimit:10}]]></style><g fill="#f1f2f2" stroke-width="16" class="I J"><path d="M1863.022 1916.33l-61.76 40.27a46.75 46.75 0 0 1-25.51 7.52h-1665.5a46.8 46.8 0 0 1-25.15-7.29l-57.9-37"/><path d="M1804.902 1935.34H81.342c-52.3 0-81.08-29.27-64.8-64.26l217.34-466.92c9.26-19.88 47.3-35.62 85.16-35.62h1248.14c37.87 0 75.9 15.74 85.16 35.62l217.34 466.92c16.3 35-12.5 64.26-64.8 64.26z"/></g><g stroke-linejoin="round"><path d="M61.402 1888.36l203.56-450.14c7.55-16.72 39.33-30 71.13-30h1214.03c31.8 0 63.57 13.3 71.13 30l201.44 443.9" fill="none" stroke-width="5.891" class="F I"/><g class="B C G"><use xlink:href="#B"/><g class="F"><use xlink:href="#C"/><use xlink:href="#D"/><use xlink:href="#D" x="30.96"/><use xlink:href="#C" x="92.87"/><use xlink:href="#D" x="92.87"/><use xlink:href="#D" x="123.83"/><use xlink:href="#E"/><use xlink:href="#C" x="216.7"/><use xlink:href="#D" x="216.7"/><path d="M748.572 1741.5c-.8-9.9-.28-22 8.16-28 5.1-3.57 18.45-5.43 21 3"/><use xlink:href="#F"/><use xlink:href="#G"/><use xlink:href="#H"/><use xlink:href="#I"/><use xlink:href="#J"/><use xlink:href="#K"/><use xlink:href="#L"/><use xlink:href="#M"/><use xlink:href="#N"/><use xlink:href="#O"/><use xlink:href="#P"/><path d="M721.852 1851.78c1.9 13.34 12.55 19.76 21.13 20.17 9.46.45 20-5.88 22.4-20.17"/><use xlink:href="#Q"/><use xlink:href="#Q" x="43.52"/><use xlink:href="#R"/><use xlink:href="#S"/><use xlink:href="#Q" x="174.09"/><use xlink:href="#R" x="130.57"/><use xlink:href="#S" x="130.57"/><use xlink:href="#Q" x="304.66"/></g></g><path d="M1094.932 1837.54h-360.8c-10.95 0-17-6.73-13.56-14.78l45.56-107.4c1.94-4.57 9.9-8.2 17.83-8.2h261.26c7.93 0 15.9 3.62 17.82 8.2l45.5 107.4c3.37 8.05-2.66 14.78-13.6 14.78z" class="B C H"/><g class="G B C"><path d="M1650.442 1857.43h-392.74c-11.92 0-18.47-7.33-14.76-16.1l49.52-116.9c2.1-5 10.78-8.92 19.4-8.92h284.4c8.63 0 17.3 3.94 19.4 8.92l49.52 116.9c3.7 8.76-2.85 16.1-14.76 16.1z"/><g class="F"><use xlink:href="#C" x="539.53"/><use xlink:href="#D" x="539.53"/><path d="M1379.122 1720.66a16.21 16.21 0 0 1 15-14.31c6.72-.32 14.22 4.17 15.92 14.3"/><use xlink:href="#C" x="632.4"/><use xlink:href="#D" x="632.45"/><use xlink:href="#D" x="663.36"/><use xlink:href="#E" x="539.53"/><path d="M1533.952 1720.66a16.21 16.21 0 0 1 15-14.31c6.72-.32 14.22 4.17 15.92 14.3"/><use xlink:href="#D" x="756.23"/><path d="M1288.122 1741.5c-.8-9.9-.27-22 8.17-28 5.1-3.57 18.44-5.43 21 3"/><use xlink:href="#F" x="539.53"/><use xlink:href="#G" x="539.53"/><use xlink:href="#H" x="539.58"/><use xlink:href="#I" x="539.53"/><use xlink:href="#J" x="539.53"/><use xlink:href="#K" x="539.53"/><use xlink:href="#L" x="539.53"/><use xlink:href="#M" x="539.53"/><use xlink:href="#N" x="539.53"/><use xlink:href="#O" x="539.5"/><use xlink:href="#P" x="539.53"/><use xlink:href="#R" x="408.96"/><use xlink:href="#S" x="408.96"/><use xlink:href="#Q" x="583.05"/><use xlink:href="#R" x="539.53"/><use xlink:href="#S" x="539.53"/><use xlink:href="#Q" x="713.62"/><use xlink:href="#R" x="670.1"/><path d="M1566.042 1851.78c1.9 13.34 12.55 19.76 21.13 20.17 9.46.45 20-5.88 22.4-20.17"/><use xlink:href="#Q" x="844.19"/></g></g><path d="M1634.462 1837.54h-360.78c-11 0-17-6.73-13.56-14.78l45.5-107.4c1.94-4.57 9.9-8.2 17.83-8.2h261.26c7.93 0 15.9 3.62 17.82 8.2l45.5 107.4c3.4 8.05-2.62 14.78-13.56 14.78z" class="B C H"/><g class="G B C"><use xlink:href="#B" x="-510.16"/><g class="F"><use xlink:href="#C" x="-510.16"/><use xlink:href="#D" x="-510.16"/><use xlink:href="#D" x="-479.2"/><use xlink:href="#C" x="-417.29"/><use xlink:href="#D" x="-417.29"/><use xlink:href="#D" x="-386.33"/><use xlink:href="#E" x="-510.16"/><use xlink:href="#C" x="-293.46"/><use xlink:href="#D" x="-293.46"/><path d="M238.412 1741.5c-.8-9.9-.28-22 8.16-28 5.1-3.57 18.44-5.43 21 3"/><use xlink:href="#F" x="-510.16"/><use xlink:href="#G" x="-510.16"/><use xlink:href="#H" x="-510.16"/><use xlink:href="#I" x="-510.16"/><use xlink:href="#J" x="-510.16"/><use xlink:href="#K" x="-510.18"/><use xlink:href="#L" x="-510.16"/><use xlink:href="#M" x="-510.16"/><use xlink:href="#N" x="-510.11"/><use xlink:href="#O" x="-510.19"/><use xlink:href="#P" x="-510.16"/><use xlink:href="#R" x="-640.73"/><use xlink:href="#Q" x="-510.16"/><use xlink:href="#Q" x="-466.64"/><use xlink:href="#R" x="-510.16"/><use xlink:href="#S" x="-510.16"/><use xlink:href="#Q" x="-336.07"/><use xlink:href="#R" x="-379.59"/><use xlink:href="#S" x="-379.59"/><use xlink:href="#Q" x="-205.5"/></g></g><path d="M584.772 1837.54h-360.78c-10.95 0-17-6.73-13.56-14.78l45.5-107.4c1.94-4.57 9.9-8.2 17.83-8.2h261.26c7.93 0 15.9 3.62 17.82 8.2l45.5 107.4c3.4 8.05-2.62 14.78-13.56 14.78z" class="B C H"/><g class="G B C"><use xlink:href="#T"/><g class="F"><path d="M799.122 1540.37a14 14 0 0 1 13-12.37c5.8-.28 12.26 3.6 13.72 12.34"/><use xlink:href="#U"/><use xlink:href="#U" x="26.7"/><path d="M879.202 1540.37a14 14 0 0 1 12.92-12.37c5.8-.28 12.27 3.6 13.73 12.34"/><use xlink:href="#V"/><use xlink:href="#U" x="106.77"/><use xlink:href="#U" x="133.47"/><use xlink:href="#U" x="160.16"/><use xlink:href="#V" x="106.77"/><path d="M773.992 1558.35c-.7-8.54-.24-19 7-24.12 4.38-3.08 15.9-4.68 18.1 2.58"/><use xlink:href="#W"/><use xlink:href="#W" x="-9.07" y="20.36"/><path d="M762.762 1591.4c-8.8-2.73-18.45 3.86-21.48 10.36-3.34 7.15-3.28 17.06 3.86 23"/><path d="M754.342 1610.8c-8.8-2.73-18.55 3.8-21.48 10.36-5.9 13.16 2.53 15.2 9.67 21.1"/><path d="M745.022 1633.16c-11.35-2-20 12.07-13.75 23.63a15.71 15.71 0 0 0 7.21 7c7.1 3.16 16.7.7 22.58-4.7m301.55-100.74c.68-8.54 1-20.68-7-24.12-7-3-19.1-.57-21.28 6.7"/><path d="M1055.782 1550.3c8.8-2.73 18.45 3.86 21.48 10.36 3.34 7.15 3.28 17.06-3.86 23"/><path d="M1064.122 1570.66c8.8-2.73 19.2 3.86 22.23 10.36 3.34 7.15 3.28 17.06-3.86 23"/><path d="M1072.902 1591.4c8.8-2.73 19.38 3.86 22.42 10.36 3.34 7.15 3.28 17.06-3.86 23"/><path d="M1082.262 1610.8c8.8-2.73 18.55 3.8 21.48 10.36 5.9 13.16-2.53 15.2-9.67 21.1"/><path d="M1091.582 1633.16c11.35-2 20 12.07 13.74 23.63a15.62 15.62 0 0 1-7.21 7c-7.1 3.16-16.7.7-22.58-4.7"/><use xlink:href="#X"/><use xlink:href="#Y"/><use xlink:href="#Z"/><use xlink:href="#Z" x="37.53"/><use xlink:href="#a"/><path d="M938.582 1653.43a19.69 19.69 0 0 0 18.23 17.39c8.15.4 17.24-5.07 19.3-17.4"/><use xlink:href="#Z" x="150.12"/><use xlink:href="#X" x="262.69"/><use xlink:href="#Y" x="262.69"/></g></g><path d="M1072.632 1641.15h-311.07c-9.44 0-14.63-5.8-11.7-12.75l39.25-92.6c1.67-3.94 8.54-7.06 15.37-7.06h225.27c6.84 0 13.7 3.12 15.37 7.06l39.23 92.6c2.9 6.94-2.24 12.75-11.73 12.75z" class="B C H"/><g class="G B C"><path d="M1555.912 1662.2h-338.64c-10.27 0-15.93-6.32-12.73-13.87l42.7-100.8c1.8-4.3 9.28-7.7 16.73-7.7h245.22c7.44 0 14.9 3.4 16.73 7.7l42.7 100.8c3.2 7.55-2.46 13.87-12.73 13.87z"/><g class="F"><use xlink:href="#U" x="442.81" y="3.89"/><use xlink:href="#U" x="469.5" y="3.89"/><path d="M1322.002 1544.26a14 14 0 0 1 13-12.34c5.8-.28 12.27 3.6 13.73 12.34"/><use xlink:href="#V" x="442.8" y="3.89"/><use xlink:href="#U" x="549.57" y="3.89"/><use xlink:href="#U" x="576.31" y="3.89"/><use xlink:href="#U" x="602.96" y="3.89"/><use xlink:href="#V" x="549.57" y="3.89"/><use xlink:href="#U" x="656.31" y="3.89"/><path d="M1243.482 1562.24c-.68-8.54-.24-19 7-24.12 4.4-3.08 15.9-4.68 18.1 2.58"/><path d="M1250.312 1554.2c-8.8-2.73-18.45 3.87-21.48 10.36-3.34 7.15-3.28 17.07 3.85 23"/><path d="M1241.242 1574.56c-8.8-2.73-18.45 3.86-21.48 10.35-3.34 7.15-3.28 17.07 3.85 23"/><path d="M1232.252 1595.3c-8.8-2.73-18.44 3.86-21.48 10.35-3.34 7.15-3.28 17.07 3.86 23"/><path d="M1223.832 1614.7c-8.8-2.73-18.55 3.8-21.48 10.35-5.9 13.16 2.53 15.2 9.67 21.1"/><path d="M1214.512 1637.06c-11.35-2-20 12.06-13.74 23.63a15.65 15.65 0 0 0 7.21 7c7.1 3.16 16.7.7 22.57-4.7m301.57-100.75c.68-8.54 1-20.68-7-24.12-7-3-19.1-.57-21.28 6.7"/><path d="M1525.272 1554.2c8.8-2.73 18.45 3.87 21.48 10.36 3.35 7.15 3.28 17.07-3.85 23"/><path d="M1533.592 1574.56c8.8-2.73 19.2 3.86 22.23 10.35 3.34 7.15 3.28 17.07-3.85 23"/><path d="M1542.392 1595.3c8.8-2.73 19.38 3.86 22.42 10.35 3.34 7.15 3.28 17.07-3.86 23"/><path d="M1551.752 1614.7c8.8-2.73 18.55 3.8 21.48 10.35 5.9 13.16-2.53 15.2-9.67 21.1"/><path d="M1561.122 1637.06c11.35-2 20 12.06 13.75 23.63a15.71 15.71 0 0 1-7.22 7c-7.1 3.16-16.7.7-22.57-4.7"/><use xlink:href="#Z" x="394.44" y="3.89"/><path d="M1257.972 1657.32a19.68 19.68 0 0 0 18.22 17.39c8.16.4 17.24-5.07 19.3-17.4"/><use xlink:href="#Y" x="507.02" y="3.89"/><use xlink:href="#Z" x="507.02" y="3.89"/><use xlink:href="#X" x="619.6" y="3.89"/><use xlink:href="#a" x="507.06" y="3.89"/><path d="M1445.602 1657.32a19.69 19.69 0 0 0 18.23 17.39c8.15.4 17.24-5.07 19.3-17.4"/><use xlink:href="#Z" x="657.12" y="3.89"/><use xlink:href="#X" x="769.71" y="3.89"/></g></g><path d="M1542.122 1645h-311.07c-9.44 0-14.63-5.8-11.7-12.74l39.23-92.6c1.67-3.94 8.53-7.06 15.37-7.06h225.26c6.84 0 13.7 3.12 15.37 7.06l39.23 92.6c2.94 6.97-2.25 12.74-11.7 12.74z" class="B C H"/><g class="G B C"><use xlink:href="#T" x="-439.88"/><g class="F"><use xlink:href="#U" x="-466.57"/><use xlink:href="#U" x="-439.87"/><use xlink:href="#U" x="-413.18"/><path d="M439.322 1540.37a14 14 0 0 1 13-12.34c5.8-.28 12.27 3.6 13.73 12.34"/><use xlink:href="#U" x="-359.8"/><use xlink:href="#U" x="-333.1"/><use xlink:href="#U" x="-306.41"/><path d="M546.122 1540.37a14 14 0 0 1 13-12.34c5.8-.28 12.27 3.6 13.73 12.34"/><use xlink:href="#V" x="-333.11"/><path d="M334.122 1558.35c-.7-8.54-.24-19 7-24.12 4.4-3.08 15.9-4.68 18.1 2.58"/><use xlink:href="#W" x="-439.88"/><use xlink:href="#W" x="-448.95" y="20.36"/><path d="M322.882 1591.4c-8.8-2.73-18.45 3.86-21.48 10.36-3.34 7.15-3.28 17.06 3.86 23"/><path d="M314.462 1610.8c-8.8-2.73-18.55 3.8-21.48 10.36-5.9 13.16 2.53 15.2 9.67 21.1"/><path d="M305.122 1633.16c-11.35-2-20 12.07-13.75 23.63a15.69 15.69 0 0 0 7.22 7c7.1 3.16 16.7.7 22.57-4.7m301.57-100.74c.68-8.54 1-20.68-7-24.12-7-3-19.1-.57-21.3 6.7"/><path d="M615.902 1550.3c8.8-2.73 18.45 3.86 21.48 10.36 3.34 7.15 3.28 17.06-3.86 23"/><path d="M624.222 1570.66c8.8-2.73 19.2 3.86 22.23 10.36 3.34 7.15 3.28 17.06-3.86 23"/><path d="M633.022 1591.4c8.8-2.73 19.38 3.86 22.42 10.36 3.34 7.15 3.28 17.06-3.86 23"/><path d="M642.382 1610.8c8.8-2.73 18.55 3.8 21.48 10.36 5.9 13.16-2.53 15.2-9.67 21.1"/><path d="M651.702 1633.16c11.35-2 20 12.07 13.74 23.63a15.62 15.62 0 0 1-7.21 7c-7.1 3.16-16.7.7-22.57-4.7"/><use xlink:href="#X" x="-439.83"/><use xlink:href="#Y" x="-439.88"/><use xlink:href="#Z" x="-439.88"/><use xlink:href="#Z" x="-402.35"/><path d="M461.182 1653.43a19.68 19.68 0 0 0 18.22 17.39c8.16.4 17.24-5.07 19.3-17.4"/><use xlink:href="#Y" x="-289.77"/><use xlink:href="#Z" x="-289.77"/><use xlink:href="#X" x="-177.19"/><use xlink:href="#a" x="-289.77"/></g></g><path d="M632.752 1641.15h-311.07c-9.44 0-14.63-5.8-11.7-12.75l39.22-92.6c1.67-3.94 8.54-7.06 15.37-7.06h225.27c6.84 0 13.7 3.12 15.37 7.06l39.23 92.6c2.94 6.94-2.26 12.75-11.7 12.75z" class="B C H"/><g class="G B C"><path d="M1061.992 1481.78h-284.68c-8.64 0-13.4-5.3-10.7-11.66l35.9-84.74c1.53-3.6 7.8-6.47 14.07-6.47h206.15c6.26 0 12.54 2.86 14.07 6.47l35.9 84.74c2.7 6.35-2.06 11.66-10.7 11.66z"/><g class="F"><use xlink:href="#b"/><use xlink:href="#b" x="22.44"/><use xlink:href="#b" x="44.88"/><use xlink:href="#b" x="67.32"/><use xlink:href="#b" x="89.76"/><use xlink:href="#b" x="112.2"/><use xlink:href="#b" x="134.65"/><use xlink:href="#b" x="157.08"/><use xlink:href="#b" x="179.52"/><path d="M799.342 1397.75c-.58-7.17-.2-16 5.92-20.27 3.68-2.6 13.37-3.94 15.2 2.16"/><use xlink:href="#c"/><path d="M797.452 1408.1c-7.4-2.3-15.5 3.24-18.05 8.7-2.8 6-2.76 14.35 3.24 19.3"/><path d="M789.902 1425.54c-7.4-2.3-15.5 3.25-18.06 8.7-2.8 6-2.76 14.34 3.24 19.3"/><path d="M782.822 1441.85c-7.4-2.3-15.6 3.2-18.06 8.7-5 11.06 2.13 12.78 8.13 17.74"/><path d="M774.982 1460.65c-9.54-1.7-16.8 10.14-11.55 19.86a13.2 13.2 0 0 0 6.06 5.88c6 2.65 14 .6 19-4m253.5-84.64c.57-7.17.84-17.38-5.93-20.27-5.88-2.52-16-.48-17.9 5.62"/><path d="M1036.232 1391c7.4-2.3 15.5 3.24 18.06 8.7 2.8 6 2.76 14.35-3.24 19.3"/><use xlink:href="#d"/><path d="M1050.632 1425.54c7.4-2.3 16.3 3.25 18.84 8.7 2.8 6 2.76 14.34-3.24 19.3"/><path d="M1058.502 1441.85c7.4-2.3 15.6 3.2 18 8.7 5 11.06-2.13 12.78-8.12 17.74"/><path d="M1066.332 1460.65c9.54-1.7 16.82 10.14 11.55 19.86a13.1 13.1 0 0 1-6.06 5.88c-6 2.65-14 .6-19-4"/><use xlink:href="#e"/><use xlink:href="#e" x="31.55"/><path d="M843.122 1477.7a16.53 16.53 0 0 0 15.32 14.61c6.85.33 14.5-4.26 16.22-14.6"/><path d="M874.612 1477.7a16.55 16.55 0 0 0 15.33 14.61c6.85.33 14.5-4.26 16.22-14.6"/><path d="M906.122 1477.7a16.54 16.54 0 0 0 15.33 14.61c6.85.33 14.5-4.26 16.22-14.6"/><use xlink:href="#f"/><use xlink:href="#f" x="31.55"/><path d="M1000.812 1477.7a16.53 16.53 0 0 0 15.31 14.61c6.85.33 14.5-4.26 16.23-14.6"/><use xlink:href="#e" x="252.39"/></g></g><path d="M1050.402 1467.36h-261.5c-7.94 0-12.3-4.88-9.83-10.7l33-77.84c1.4-3.32 7.17-5.94 12.92-5.94h189.38c5.74 0 11.5 2.62 12.92 5.94l33 77.84c2.43 5.83-1.94 10.7-9.88 10.7z" class="B C H"/><g class="G B C"><path d="M1456.682 1485.05h-284.68c-8.64 0-13.4-5.3-10.7-11.66l35.9-84.74c1.52-3.6 7.8-6.46 14.06-6.46h206.16c6.25 0 12.54 2.85 14.06 6.46l35.9 84.74c2.74 6.35-2.06 11.66-10.7 11.66z"/><g class="F"><use xlink:href="#g"/><use xlink:href="#g" x="22.48"/><use xlink:href="#g" x="44.92"/><use xlink:href="#g" x="67.36"/><use xlink:href="#g" x="89.8"/><use xlink:href="#g" x="112.24"/><use xlink:href="#h"/><use xlink:href="#h" x="22.44"/><use xlink:href="#h" x="44.88"/><path d="M1194.032 1401c-.57-7.18-.2-16 5.92-20.28 3.7-2.6 13.37-3.94 15.2 2.17"/><path d="M1199.772 1394.27c-7.4-2.3-15.5 3.25-18.06 8.7-2.8 6-2.75 14.35 3.25 19.3"/><use xlink:href="#c" x="387" y="20.38"/><path d="M1184.592 1428.8c-7.4-2.3-15.5 3.25-18.06 8.7-2.8 6-2.75 14.35 3.25 19.3"/><path d="M1177.512 1445.12c-7.4-2.3-15.6 3.2-18.06 8.7-4.95 11.06 2.13 12.78 8.13 17.74"/><path d="M1169.682 1463.92c-9.54-1.7-16.82 10.14-11.56 19.87a13.22 13.22 0 0 0 6.06 5.87c6 2.65 14 .6 19-4m253.5-84.66c.57-7.18.85-17.4-5.92-20.28-5.9-2.52-16.05-.48-17.9 5.62"/><path d="M1430.932 1394.27c7.4-2.3 15.5 3.25 18.06 8.7 2.8 6 2.75 14.35-3.25 19.3"/><use xlink:href="#d" x="394.69" y="3.28"/><path d="M1445.322 1428.8c7.4-2.3 16.3 3.25 18.85 8.7 2.8 6 2.75 14.35-3.25 19.3"/><path d="M1453.192 1445.12c7.4-2.3 15.6 3.2 18.06 8.7 4.95 11.06-2.13 12.78-8.13 17.74"/><path d="M1461.022 1463.92c9.55-1.7 16.82 10.14 11.56 19.87a13.22 13.22 0 0 1-6.06 5.87c-6 2.65-14.05.6-19-4m-272.86-4.66a16.53 16.53 0 0 0 15.33 14.61c6.85.33 14.5-4.26 16.22-14.6"/><use xlink:href="#i"/><use xlink:href="#i" x="31.55"/><path d="M1269.312 1481a16.52 16.52 0 0 0 15.32 14.61c6.85.33 14.5-4.26 16.23-14.6"/><path d="M1300.862 1481a16.52 16.52 0 0 0 15.32 14.61c6.85.33 14.5-4.26 16.23-14.6"/><path d="M1332.412 1481a16.52 16.52 0 0 0 15.32 14.61c6.85.33 14.5-4.26 16.22-14.6"/><path d="M1363.952 1481a16.53 16.53 0 0 0 15.33 14.61c6.85.33 14.5-4.26 16.22-14.6"/><use xlink:href="#i" x="189.29"/><use xlink:href="#i" x="220.84"/></g></g><path d="M1445.122 1470.63h-261.54c-7.93 0-12.3-4.88-9.83-10.7l33-77.84c1.4-3.32 7.17-5.94 12.92-5.94h189.38c5.75 0 11.52 2.62 12.92 5.94l33 77.84c2.43 5.83-1.94 10.7-9.85 10.7z" class="B C H"/><g class="G B C"><path d="M692.192 1481.78h-284.68c-8.64 0-13.4-5.3-10.7-11.66l35.9-84.74c1.53-3.6 7.8-6.47 14.07-6.47h206.16c6.25 0 12.53 2.86 14.06 6.47l35.9 84.74c2.7 6.35-2.06 11.66-10.7 11.66z"/><g class="F"><path d="M450.672 1382.64a11.77 11.77 0 0 1 10.9-10.38c4.87-.23 10.3 3 11.54 10.38"/><use xlink:href="#b" x="-347.35"/><use xlink:href="#b" x="-324.92"/><use xlink:href="#b" x="-302.48"/><use xlink:href="#b" x="-280.04"/><use xlink:href="#b" x="-257.6"/><use xlink:href="#b" x="-235.16"/><use xlink:href="#b" x="-212.72"/><use xlink:href="#b" x="-190.28"/><path d="M429.542 1397.75c-.57-7.17-.2-16 5.92-20.27 3.7-2.6 13.37-3.94 15.2 2.16"/><use xlink:href="#c" x="-369.84"/><use xlink:href="#c" x="-377.46" y="17.1"/><path d="M420.122 1425.54c-7.4-2.3-15.5 3.25-18.06 8.7-2.8 6-2.76 14.34 3.24 19.3"/><path d="M413.022 1441.85c-7.4-2.3-15.6 3.2-18.06 8.7-4.95 11.06 2.13 12.78 8.13 17.74"/><path d="M405.192 1460.65c-9.55-1.7-16.82 10.14-11.56 19.86a13.2 13.2 0 0 0 6.06 5.88c6 2.65 14 .6 19-4m253.5-84.64c.57-7.17.85-17.38-5.92-20.27-5.9-2.52-16-.48-17.9 5.62"/><path d="M666.442 1391c7.4-2.3 15.5 3.24 18.06 8.7 2.8 6 2.75 14.35-3.25 19.3"/><use xlink:href="#d" x="-369.8"/><path d="M680.832 1425.54c7.4-2.3 16.3 3.25 18.84 8.7 2.8 6 2.76 14.34-3.24 19.3"/><path d="M688.702 1441.85c7.4-2.3 15.6 3.2 18.06 8.7 5 11.06-2.13 12.78-8.13 17.74"/><path d="M696.532 1460.65c9.54-1.7 16.82 10.14 11.56 19.86a13.17 13.17 0 0 1-6.07 5.88c-6 2.65-14 .6-19-4"/><use xlink:href="#f" x="-527.54"/><use xlink:href="#f" x="-495.99"/><use xlink:href="#e" x="-306.7"/><path d="M504.822 1477.7a16.53 16.53 0 0 0 15.3 14.61c6.85.33 14.5-4.26 16.23-14.6m.02-.01a16.53 16.53 0 0 0 15.32 14.61c6.85.33 14.5-4.26 16.22-14.6"/><path d="M567.912 1477.7a16.54 16.54 0 0 0 15.33 14.61c6.85.33 14.5-4.26 16.22-14.6"/><use xlink:href="#f" x="-338.25"/><use xlink:href="#f" x="-306.7"/><use xlink:href="#e" x="-117.41"/></g></g><path d="M680.612 1467.36h-261.5c-7.93 0-12.3-4.88-9.83-10.7l33-77.84c1.4-3.32 7.17-5.94 12.92-5.94h189.33c5.74 0 11.5 2.62 12.92 5.94l33 77.84c2.45 5.83-1.92 10.7-9.85 10.7z" class="B C H"/><g class="D E F B"><path d="M970.662 1485c16.4 0 29.7 29 29.7 64.66h0c0 35.7-13.3 64.66-29.7 64.66h0c-16.4 0-29.7-29-29.7-64.66h0c0-35.7 13.3-64.66 29.7-64.66h0"/><path d="M971.332 1485h-100.92l-.67 129.26h100.92"/></g><path d="M868.122 1485c16.4 0 29.7 29 29.7 64.66s-13.3 64.66-29.7 64.66-29.7-29-29.7-64.66 13.28-64.66 29.7-64.66z" class="B D E"/><g class="F B D E"><path d="M963.532 1335.35c14 0 25.3 24.68 25.3 55.1h0c0 30.44-11.33 55.1-25.3 55.1h0c-14 0-25.32-24.67-25.32-55.1h0c0-30.43 11.34-55.1 25.32-55.1h0"/><path d="M964.122 1335.35h-86l-.57 110.17h86"/></g><path d="M876.122 1335.35c14 0 25.32 24.68 25.32 55.1s-11.32 55.1-25.32 55.1-25.3-24.67-25.3-55.1 11.3-55.1 25.3-55.1z" class="B D E"/><g class="F B D E"><path d="M976.422 1653.43c19.8 0 35.85 34.93 35.85 78h0c0 43.1-16.05 78-35.85 78h0c-19.8 0-35.84-34.94-35.84-78h0c0-43.1 16-78 35.84-78h0"/><path d="M977.232 1653.43h-121.78l-.8 156h121.78"/></g><path d="M852.652 1653.43c19.8 0 35.85 34.93 35.85 78s-16 78-35.85 78-35.84-34.94-35.84-78 16.05-78 35.84-78z" class="B D E"/><g class="F B D E"><path d="M535.122 1485c16.4 0 29.7 29 29.7 64.66h0c0 35.7-13.3 64.66-29.7 64.66h0c-16.4 0-29.7-28.95-29.7-64.66h0c0-35.7 13.3-64.66 29.7-64.66h0"/><path d="M535.762 1485h-100.92l-.66 129.26h100.94"/></g><path d="M432.532 1485c16.4 0 29.7 29 29.7 64.66s-13.3 64.66-29.7 64.66-29.7-28.95-29.7-64.66 13.3-64.66 29.7-64.66z" class="B D E"/><g class="F B D E"><path d="M584.122 1335.35c14 0 25.3 24.68 25.3 55.1h0c0 30.44-11.33 55.1-25.3 55.1h0c-14 0-25.32-24.67-25.32-55.1h0c0-30.43 11.33-55.1 25.32-55.1h0"/><path d="M584.702 1335.35h-86l-.58 110.17h86"/></g><path d="M496.722 1335.35c14 0 25.32 24.68 25.32 55.1s-11.34 55.1-25.32 55.1-25.3-24.67-25.3-55.1 11.33-55.1 25.3-55.1z" class="B D E"/><g class="F B D E"><path d="M466.262 1648.84c19.8 0 35.85 34.93 35.85 78h0c0 43.1-16 78-35.85 78h0c-19.8 0-35.84-34.93-35.84-78h0c0-43.1 16.05-78 35.84-78h0"/><path d="M467.122 1648.84h-121.83l-.8 156h121.78"/></g><path d="M342.492 1648.84c19.8 0 35.85 34.93 35.85 78s-16.05 78-35.85 78-35.84-34.93-35.84-78 16.05-78 35.84-78z" class="B D E"/><g class="F B D E"><path d="M1313.772 1485c-17.2 0-31.16 29-31.16 64.66h0c0 35.7 14 64.66 31.16 64.66h0c17.2 0 31.16-28.95 31.16-64.66h0c0-35.7-14-64.66-31.16-64.66h0"/><path d="M1313.122 1485h105.87l.7 129.25h-105.92"/></g><path d="M1421.372 1485c-17.2 0-31.16 29-31.16 64.66s14 64.66 31.16 64.66 31.16-28.95 31.16-64.66-13.95-64.66-31.16-64.66z" class="B D E"/><g class="F B D E"><path d="M1263.232 1335.36c-14.67 0-26.56 24.67-26.56 55.1h0c0 30.43 11.9 55.1 26.56 55.1h0c14.67 0 26.56-24.68 26.56-55.1h0c0-30.44-11.9-55.1-26.56-55.1h0"/><path d="M1262.632 1335.36h90.23l.6 110.16h-90.23"/></g><path d="M1354.932 1335.36c-14.66 0-26.55 24.67-26.55 55.1s11.9 55.1 26.55 55.1 26.56-24.68 26.56-55.1-11.9-55.1-26.56-55.1z" class="B D E"/><g class="F B D E"><path d="M1386.892 1648.84c-20.77 0-37.6 34.94-37.6 78h0c0 43.1 16.84 78 37.6 78h0c20.76 0 37.6-34.94 37.6-78h0c0-43.1-16.84-78-37.6-78h0"/><path d="M1386.042 1648.84h127.76l.84 156h-127.75"/></g><path d="M1516.732 1648.84c-20.77 0-37.6 34.94-37.6 78s16.83 78 37.6 78 37.6-34.94 37.6-78-16.83-78-37.6-78z" class="B D E"/><g class="C G B"><path d="M1129.062 1703.92c4.1-3.66 6.12-8.16 1.94-17.5a21.88 21.88 0 0 0-7.46-8.54 26 26 0 0 0-2.31-14 22.24 22.24 0 0 0-8.33-8.77 25.69 25.69 0 0 0-2.09-15.28 22.5 22.5 0 0 0-8.34-8.84 25.91 25.91 0 0 0-2.18-14.77c-2.57-5.5-9.25-11.07-16.65-12.42-.2-7.76-2-15.45-8.5-18.24-5.83-2.5-14.7-1.74-20.17 2h-.17a15 15 0 0 0-14.38-9.18 16.12 16.12 0 0 0-13.51 9.18h-3.06a15 15 0 0 0-14.39-9.18 16.12 16.12 0 0 0-13.51 9.18h-3.06a15 15 0 0 0-14.39-9.18 16.11 16.11 0 0 0-13.5 9.18h-3.07a15 15 0 0 0-14.38-9.18 16.12 16.12 0 0 0-13.51 9.18h-3.07a15 15 0 0 0-14.38-9.18 16.12 16.12 0 0 0-13.46 9.21h-3.06a15 15 0 0 0-14.39-9.18 16.09 16.09 0 0 0-13.5 9.18h-3.07a15 15 0 0 0-14.38-9.18 16.11 16.11 0 0 0-13.6 9.18h-3a15 15 0 0 0-14.38-9.18 16.12 16.12 0 0 0-13.51 9.18h-3.1a15 15 0 0 0-14.39-9.18 16.12 16.12 0 0 0-13.51 9.18h-1.9c-3.28-7.25-15.73-5.4-20.6-2-5.78 4.06-7.84 11-8.3 18.2-7.48 1.3-14.25 6.9-16.85 12.46a26 26 0 0 0-2.21 14.56 23.14 23.14 0 0 0-8.31 9.05 25.8 25.8 0 0 0-2.13 15 23 23 0 0 0-8.29 9 26 26 0 0 0-2.3 14 21.91 21.91 0 0 0-7.47 8.54c-4.17 9.33-2.15 13.83 1.94 17.5a19.64 19.64 0 0 0-3.77 23.84 18.18 18.18 0 0 0 8.36 8.1c5.74 2.55 12.9 1.94 19-.8a22.64 22.64 0 0 0 16.59 9c8.1.4 17-4.22 20.87-14.52h3a22.64 22.64 0 0 0 19.68 14.48c8.1.4 17-4.22 20.86-14.52h3a22.62 22.62 0 0 0 19.66 14.52c8.1.4 17-4.22 20.86-14.52h3a22.63 22.63 0 0 0 19.66 14.52c8.1.4 17-4.22 20.86-14.52h3a22.63 22.63 0 0 0 19.71 14.52c8.1.4 17-4.22 20.86-14.52h3a22.62 22.62 0 0 0 19.66 14.52c8.1.4 17-4.22 20.86-14.52h3a22.63 22.63 0 0 0 19.62 14.52c8.1.4 17-4.22 20.86-14.52h3a22.63 22.63 0 0 0 19.67 14.52c8.1.4 17-4.22 20.86-14.52h3a22.62 22.62 0 0 0 19.66 14.52 20.71 20.71 0 0 0 17.12-7.88c5.42 1.76 11.3 1.9 16.18-.28a18.16 18.16 0 0 0 8.37-8.1 19.65 19.65 0 0 0-3.78-23.82zm539.53 0c4.1-3.66 6.12-8.16 1.94-17.5a21.88 21.88 0 0 0-7.46-8.54 26 26 0 0 0-2.31-14 22.24 22.24 0 0 0-8.33-8.77 25.69 25.69 0 0 0-2.09-15.28 22.5 22.5 0 0 0-8.34-8.84 25.91 25.91 0 0 0-2.18-14.77c-2.57-5.5-9.25-11.07-16.65-12.42-.2-7.76-2-15.45-8.5-18.24-5.83-2.5-14.7-1.74-20.17 2h-.17a15 15 0 0 0-14.38-9.18 16.12 16.12 0 0 0-13.51 9.18h-3.06a15 15 0 0 0-14.39-9.18 16.12 16.12 0 0 0-13.51 9.18h-3.06a15 15 0 0 0-14.39-9.18 16.09 16.09 0 0 0-13.5 9.18h-3.07a15 15 0 0 0-14.38-9.18 16.12 16.12 0 0 0-13.51 9.18h-3.07a15 15 0 0 0-14.38-9.18 16.12 16.12 0 0 0-13.51 9.18h-3.06a15 15 0 0 0-14.39-9.18 16.09 16.09 0 0 0-13.5 9.18h-3.07a15 15 0 0 0-14.39-9.18 16.11 16.11 0 0 0-13.5 9.18h-3.07a15 15 0 0 0-14.38-9.18 16.12 16.12 0 0 0-13.51 9.18h-3.06a15 15 0 0 0-14.39-9.18 16.12 16.12 0 0 0-13.51 9.18h-1.9c-3.28-7.25-15.73-5.4-20.6-2-5.78 4.06-7.84 11-8.3 18.2-7.48 1.3-14.25 6.9-16.85 12.46a26 26 0 0 0-2.21 14.56 23.06 23.06 0 0 0-8.31 9.05 25.8 25.8 0 0 0-2.13 15 23 23 0 0 0-8.29 9 26 26 0 0 0-2.3 14 21.83 21.83 0 0 0-7.47 8.54c-4.17 9.33-2.15 13.83 1.94 17.5a19.64 19.64 0 0 0-3.77 23.84 18.18 18.18 0 0 0 8.36 8.1c5.74 2.55 12.9 1.94 19-.8a22.62 22.62 0 0 0 16.59 9c8.1.4 17-4.22 20.86-14.52h3a22.63 22.63 0 0 0 19.67 14.52c8.1.4 17-4.22 20.86-14.52h3a22.62 22.62 0 0 0 19.66 14.52c8.1.4 17-4.22 20.86-14.52h3a22.63 22.63 0 0 0 19.7 14.51c8.1.4 17-4.22 20.86-14.52h3a22.63 22.63 0 0 0 19.67 14.52c8.1.4 17-4.22 20.86-14.52h3a22.62 22.62 0 0 0 19.61 14.52c8.1.4 17-4.22 20.86-14.52h3a22.63 22.63 0 0 0 19.66 14.52c8.1.4 17-4.22 20.86-14.52h3a22.63 22.63 0 0 0 19.67 14.52c8.1.4 17-4.22 20.86-14.52h3a22.62 22.62 0 0 0 19.66 14.52 20.71 20.71 0 0 0 17.12-7.88c5.4 1.76 11.3 1.9 16.18-.28a18.16 18.16 0 0 0 8.37-8.1 19.65 19.65 0 0 0-3.77-23.82zm-1049.7 0c4.1-3.66 6.12-8.16 1.94-17.5a21.88 21.88 0 0 0-7.46-8.54 26 26 0 0 0-2.31-14 22.24 22.24 0 0 0-8.33-8.77 25.69 25.69 0 0 0-2.09-15.28 22.5 22.5 0 0 0-8.34-8.84 25.91 25.91 0 0 0-2.18-14.77c-2.57-5.5-9.25-11.07-16.64-12.42-.22-7.76-2-15.45-8.52-18.24-5.83-2.5-14.7-1.74-20.17 2h-.17a15 15 0 0 0-14.38-9.18 16.12 16.12 0 0 0-13.51 9.18h-3.06a15 15 0 0 0-14.39-9.18 16.12 16.12 0 0 0-13.51 9.18h-3.06a15 15 0 0 0-14.39-9.18 16.11 16.11 0 0 0-13.5 9.18h-3.07a15 15 0 0 0-14.38-9.18 16.12 16.12 0 0 0-13.51 9.18h-3.07a15 15 0 0 0-14.38-9.18 16.12 16.12 0 0 0-13.51 9.18h-3.06a15 15 0 0 0-14.39-9.18 16.09 16.09 0 0 0-13.5 9.18h-3.07a15 15 0 0 0-14.38-9.18 16.11 16.11 0 0 0-13.51 9.18h-3.07a15 15 0 0 0-14.38-9.18 16.12 16.12 0 0 0-13.51 9.18h-3.06a15 15 0 0 0-14.39-9.18 16.12 16.12 0 0 0-13.47 9.21h-1.9c-3.28-7.25-15.73-5.4-20.6-2-5.78 4.06-7.84 11-8.3 18.2-7.48 1.3-14.25 6.9-16.85 12.46a26 26 0 0 0-2.21 14.56 23.06 23.06 0 0 0-8.31 9.05 25.8 25.8 0 0 0-2.13 15 23 23 0 0 0-8.29 9 26 26 0 0 0-2.3 14 21.83 21.83 0 0 0-7.47 8.54c-4.17 9.33-2.15 13.83 1.94 17.5a19.64 19.64 0 0 0-3.77 23.84 18.18 18.18 0 0 0 8.36 8.1c5.74 2.55 12.9 1.94 19-.8a22.64 22.64 0 0 0 16.59 9c8.1.4 17-4.22 20.87-14.52h3a22.63 22.63 0 0 0 19.62 14.48c8.1.4 17-4.22 20.86-14.52h3a22.62 22.62 0 0 0 19.66 14.52c8.1.4 17-4.22 20.86-14.52h3a22.63 22.63 0 0 0 19.66 14.52c8.1.4 17-4.22 20.86-14.52h3a22.63 22.63 0 0 0 19.67 14.52c8.1.4 17-4.22 20.86-14.52h3a22.62 22.62 0 0 0 19.66 14.52c8.1.4 17-4.22 20.86-14.52h3a22.63 22.63 0 0 0 19.66 14.52c8.1.4 17-4.22 20.86-14.52h3a22.63 22.63 0 0 0 19.67 14.52c8.1.4 17-4.22 20.86-14.52h3a22.62 22.62 0 0 0 19.66 14.52 20.71 20.71 0 0 0 17.12-7.88c5.42 1.76 11.3 1.9 16.18-.28a18.16 18.16 0 0 0 8.37-8.1 19.65 19.65 0 0 0-3.78-23.82zm112.37-165.22a15.74 15.74 0 0 0 7.21 7c4.95 2.2 11.12 1.67 16.4-.68a19.54 19.54 0 0 0 14.31 7.72c7 .33 14.63-3.64 18-12.52h2.6a19.52 19.52 0 0 0 17 12.52c7 .33 14.64-3.64 18-12.52h2.6a19.52 19.52 0 0 0 17 12.52c7 .33 14.63-3.64 18-12.52h2.58a19.54 19.54 0 0 0 17 12.52c7 .33 14.63-3.64 18-12.52h2.6a19.52 19.52 0 0 0 16.95 12.52c7 .33 14.64-3.64 18-12.52h2.6a19.52 19.52 0 0 0 17 12.52c7 .33 14.64-3.64 18-12.52h2.6a19.52 19.52 0 0 0 17 12.52c7 .33 14.63-3.64 18-12.52h2.58a19.52 19.52 0 0 0 17 12.52c7 .33 14.63-3.64 18-12.52h2.6a19.52 19.52 0 0 0 17 12.52 17.87 17.87 0 0 0 14.77-6.79c4.67 1.5 9.75 1.62 14-.25a15.65 15.65 0 0 0 7.21-7 16.93 16.93 0 0 0-3.25-20.55c3.52-3.16 5.27-7.05 1.67-15.1a18.8 18.8 0 0 0-6.44-7.34 22.48 22.48 0 0 0-2-12.06 19.34 19.34 0 0 0-7.19-7.56 22.13 22.13 0 0 0-1.8-13.18 19.39 19.39 0 0 0-7.19-7.61 22.3 22.3 0 0 0-1.88-12.74c-2.22-4.75-8-9.54-14.36-10.7-.18-6.7-1.72-13.34-7.34-15.74a20 20 0 0 0-17.39 1.71h-.14a13 13 0 0 0-12.4-7.91 13.88 13.88 0 0 0-11.65 7.91h-2.64a13 13 0 0 0-12.41-7.91 13.88 13.88 0 0 0-11.64 7.91h-2.65a13 13 0 0 0-12.4-7.91 13.86 13.86 0 0 0-11.64 7.91h-2.65a13 13 0 0 0-12.4-7.91 13.89 13.89 0 0 0-11.65 7.91h-2.64a13 13 0 0 0-12.4-7.91 13.89 13.89 0 0 0-11.65 7.91h-2.64a13 13 0 0 0-12.41-7.91 13.88 13.88 0 0 0-11.64 7.91h-2.65a13 13 0 0 0-12.4-7.91 13.86 13.86 0 0 0-11.64 7.91h-2.65a13 13 0 0 0-12.4-7.91 13.89 13.89 0 0 0-11.65 7.91h-2.64a13 13 0 0 0-12.4-7.91 13.89 13.89 0 0 0-11.65 7.91h-1.67c-2.84-6.22-13.54-4.65-17.74-1.7-5 3.5-6.76 9.52-7.17 15.7-6.45 1.12-12.3 6-14.52 10.74a22.26 22.26 0 0 0-1.91 12.55 19.9 19.9 0 0 0-7.16 7.8 22.19 22.19 0 0 0-1.84 13 19.75 19.75 0 0 0-7.15 7.78 22.49 22.49 0 0 0-2 12.06 18.77 18.77 0 0 0-6.43 7.34c-3.6 8-1.86 11.93 1.67 15.1a16.93 16.93 0 0 0-3.72 20.51z"/><path d="M1238.672 1556.62c7 .34 14.63-3.64 18-12.52h2.58a19.5 19.5 0 0 0 17 12.52c7 .34 14.64-3.64 18-12.52h2.6a19.5 19.5 0 0 0 16.95 12.52c7 .34 14.64-3.64 18-12.52h2.6a19.5 19.5 0 0 0 17 12.52c7 .34 14.63-3.64 18-12.52h2.58a19.53 19.53 0 0 0 17 12.52c7 .34 14.63-3.64 18-12.52h2.6a19.5 19.5 0 0 0 17 12.52c7 .34 14.64-3.64 18-12.52h2.6a19.5 19.5 0 0 0 17 12.52c7 .34 14.64-3.64 18-12.52h2.58a19.53 19.53 0 0 0 17 12.52c7 .34 14.63-3.64 18-12.52h2.58a19.5 19.5 0 0 0 17 12.52 17.86 17.86 0 0 0 14.76-6.79c4.67 1.5 9.75 1.63 14-.25a15.71 15.71 0 0 0 7.22-7 17 17 0 0 0-3.26-20.55c3.53-3.16 5.27-7 1.67-15.08a18.82 18.82 0 0 0-6.44-7.35 22.48 22.48 0 0 0-2-12.06 19.22 19.22 0 0 0-7.18-7.55 22.24 22.24 0 0 0-1.81-13.19 19.39 19.39 0 0 0-7.19-7.61 22.3 22.3 0 0 0-1.88-12.74c-2.22-4.75-8-9.53-14.35-10.7-.2-6.7-1.72-13.33-7.34-15.74a20 20 0 0 0-17.4 1.72h-.14a12.93 12.93 0 0 0-12.4-7.91 13.87 13.87 0 0 0-11.65 7.91h-2.64a12.93 12.93 0 0 0-12.4-7.91 13.86 13.86 0 0 0-11.65 7.91h-3.1a12.94 12.94 0 0 0-12.41-7.91 13.86 13.86 0 0 0-11.64 7.91h-2.65a12.92 12.92 0 0 0-12.4-7.91 13.84 13.84 0 0 0-11.64 7.91h-2.65a12.93 12.93 0 0 0-12.4-7.91 13.87 13.87 0 0 0-11.65 7.91h-2.64a12.93 12.93 0 0 0-12.4-7.91 13.87 13.87 0 0 0-11.65 7.91h-2.64a12.94 12.94 0 0 0-12.41-7.91 13.86 13.86 0 0 0-11.64 7.91h-2.65a12.92 12.92 0 0 0-12.4-7.91 13.84 13.84 0 0 0-11.64 7.91h-2.65a12.93 12.93 0 0 0-12.4-7.91 13.87 13.87 0 0 0-11.65 7.91h-1.67c-2.84-6.23-13.54-4.66-17.74-1.72-5 3.5-6.76 9.52-7.17 15.7-6.44 1.1-12.28 5.94-14.52 10.73a22.37 22.37 0 0 0-1.91 12.56 19.81 19.81 0 0 0-7.16 7.79 22.21 22.21 0 0 0-1.84 13 19.9 19.9 0 0 0-7.15 7.78 22.48 22.48 0 0 0-2 12.06 18.82 18.82 0 0 0-6.44 7.35c-3.6 8-1.86 11.92 1.67 15.08a16.93 16.93 0 0 0-3.25 20.55 15.65 15.65 0 0 0 7.21 7c5 2.2 11.1 1.67 16.38-.68a19.51 19.51 0 0 0 14.35 7.68zm-576.48-38.46c3.52-3.16 5.27-7.05 1.67-15.1a18.8 18.8 0 0 0-6.44-7.34 22.48 22.48 0 0 0-2-12.06 19.34 19.34 0 0 0-7.19-7.56 22.13 22.13 0 0 0-1.8-13.18 19.39 19.39 0 0 0-7.19-7.61 22.3 22.3 0 0 0-1.88-12.74c-2.22-4.75-8-9.54-14.36-10.7-.18-6.7-1.72-13.34-7.33-15.74a20 20 0 0 0-17.4 1.71h-.15a13 13 0 0 0-12.4-7.91 13.89 13.89 0 0 0-11.65 7.91h-2.64a13 13 0 0 0-12.41-7.91 13.88 13.88 0 0 0-11.64 7.91h-2.65a13 13 0 0 0-12.4-7.91 13.86 13.86 0 0 0-11.64 7.91h-2.57a13 13 0 0 0-12.4-7.91 13.89 13.89 0 0 0-11.65 7.91h-2.64a13 13 0 0 0-12.4-7.91 13.89 13.89 0 0 0-11.65 7.91h-2.64a13 13 0 0 0-12.41-7.91 13.88 13.88 0 0 0-11.64 7.91h-2.64a13 13 0 0 0-12.41-7.91 13.86 13.86 0 0 0-11.64 7.91h-2.65a13 13 0 0 0-12.4-7.91 13.89 13.89 0 0 0-11.65 7.91h-2.64a13 13 0 0 0-12.4-7.91 13.89 13.89 0 0 0-11.65 7.91h-1.67c-2.84-6.22-13.54-4.65-17.74-1.7-5 3.5-6.76 9.52-7.17 15.7-6.45 1.12-12.28 6-14.52 10.74a22.26 22.26 0 0 0-1.91 12.55 19.9 19.9 0 0 0-7.16 7.8 22.19 22.19 0 0 0-1.84 13 19.83 19.83 0 0 0-7.15 7.78 22.49 22.49 0 0 0-2 12.06 18.77 18.77 0 0 0-6.43 7.34c-3.6 8-1.86 11.93 1.67 15.1a16.94 16.94 0 0 0-3.26 20.55 15.71 15.71 0 0 0 7.22 7c4.95 2.2 11.1 1.67 16.38-.68a19.54 19.54 0 0 0 14.31 7.72c7 .33 14.63-3.64 18-12.52h2.6a19.52 19.52 0 0 0 16.95 12.52c7 .33 14.64-3.64 18-12.52h2.6a19.52 19.52 0 0 0 17 12.52c7 .33 14.63-3.64 18-12.52h2.58a19.54 19.54 0 0 0 17 12.52c7 .33 14.63-3.64 18-12.52h2.58a19.52 19.52 0 0 0 16.95 12.52c7 .33 14.64-3.64 18-12.52h2.6a19.52 19.52 0 0 0 16.95 12.52c7 .33 14.64-3.64 18-12.52h2.6a19.52 19.52 0 0 0 17 12.52c7 .33 14.63-3.64 18-12.52h2.58a19.53 19.53 0 0 0 17 12.52c7 .33 14.63-3.64 18-12.52h2.6a19.52 19.52 0 0 0 16.95 12.52 17.87 17.87 0 0 0 14.77-6.79c4.67 1.5 9.75 1.62 14-.25a15.65 15.65 0 0 0 7.21-7 16.93 16.93 0 0 0-3.62-20.59zm101.24-136.06a13.17 13.17 0 0 0 6.06 5.87c4.16 1.85 9.34 1.4 13.78-.58a16.41 16.41 0 0 0 12 6.5c5.87.28 12.3-3.06 15.12-10.53h2.18a16.41 16.41 0 0 0 14.25 10.53c5.87.28 12.3-3.06 15.12-10.53h2.18a16.4 16.4 0 0 0 14.25 10.53c5.87.28 12.3-3.06 15.12-10.53h2.18a16.39 16.39 0 0 0 14.25 10.53c5.87.28 12.3-3.06 15.12-10.53h2.17a16.41 16.41 0 0 0 14.26 10.53c5.86.28 12.3-3.06 15.12-10.53h2.17a16.41 16.41 0 0 0 14.25 10.53c5.87.28 12.3-3.06 15.13-10.53h2.17a16.41 16.41 0 0 0 14.25 10.53c5.87.28 12.3-3.06 15.12-10.53h2.18a16.41 16.41 0 0 0 14.26 10.53c5.87.28 12.3-3.06 15.12-10.53h2.18a16.41 16.41 0 0 0 14.25 10.53 15 15 0 0 0 12.41-5.71 16.64 16.64 0 0 0 11.73-.21 13.08 13.08 0 0 0 6.06-5.87 14.23 14.23 0 0 0-2.73-17.28c3-2.65 4.43-5.92 1.4-12.68a15.81 15.81 0 0 0-5.42-6.15 18.8 18.8 0 0 0-1.67-10.14 16.21 16.21 0 0 0-6-6.35 18.68 18.68 0 0 0-1.51-11.08 16.29 16.29 0 0 0-6-6.4 18.7 18.7 0 0 0-1.58-10.71 17.53 17.53 0 0 0-12.07-9c-.15-5.63-1.44-11.2-6.17-13.23a16.79 16.79 0 0 0-14.59 1.44h-.15a10.88 10.88 0 0 0-10.42-6.65 11.66 11.66 0 0 0-9.79 6.65h-2.23a10.88 10.88 0 0 0-10.42-6.65 11.66 11.66 0 0 0-9.79 6.65h-2.23a10.88 10.88 0 0 0-10.42-6.65 11.66 11.66 0 0 0-9.79 6.65h-2.23a10.88 10.88 0 0 0-10.42-6.65 11.66 11.66 0 0 0-9.79 6.65h-2.23a10.88 10.88 0 0 0-10.42-6.65 11.66 11.66 0 0 0-9.79 6.65h-2.3a10.88 10.88 0 0 0-10.42-6.65 11.66 11.66 0 0 0-9.79 6.65h-2.23a10.87 10.87 0 0 0-10.42-6.65 11.66 11.66 0 0 0-9.79 6.65h-2.23a10.87 10.87 0 0 0-10.42-6.65 11.66 11.66 0 0 0-9.79 6.65h-2.23a10.87 10.87 0 0 0-10.42-6.65 11.66 11.66 0 0 0-9.79 6.65h-1.4c-2.4-5.24-11.38-3.9-14.9-1.44-4.2 2.94-5.7 8-6 13.2a17.57 17.57 0 0 0-12.21 9 18.76 18.76 0 0 0-1.6 10.55 16.65 16.65 0 0 0-6 6.56 18.72 18.72 0 0 0-1.55 10.89 16.65 16.65 0 0 0-6 6.54 18.9 18.9 0 0 0-1.67 10.14 15.89 15.89 0 0 0-5.41 6.17c-3 6.76-1.56 10 1.4 12.68a14.24 14.24 0 0 0-2.81 17.29zm441.7 4.55h2.17a16.42 16.42 0 0 0 14.25 10.52c5.87.28 12.3-3.06 15.13-10.52h2.17a16.42 16.42 0 0 0 14.25 10.52c5.87.28 12.3-3.06 15.12-10.52h2.18a16.42 16.42 0 0 0 14.25 10.52c5.87.28 12.3-3.06 15.12-10.52h2.18a16.42 16.42 0 0 0 14.25 10.52c5.87.28 12.3-3.06 15.12-10.52h2.18a16.39 16.39 0 0 0 14.25 10.52c5.87.28 12.3-3.06 15.12-10.52h2.17a16.42 16.42 0 0 0 14.26 10.52c5.87.28 12.3-3.06 15.12-10.52h2.17a16.42 16.42 0 0 0 14.25 10.52c5.87.28 12.3-3.06 15.13-10.52h2.16a16.42 16.42 0 0 0 14.25 10.52 15.05 15.05 0 0 0 12.42-5.71 16.59 16.59 0 0 0 11.73-.21 13.17 13.17 0 0 0 6.06-5.87 14.24 14.24 0 0 0-2.74-17.28c3-2.65 4.43-5.92 1.4-12.68a15.89 15.89 0 0 0-5.41-6.17 19 19 0 0 0-1.67-10.14 16.28 16.28 0 0 0-6-6.35 18.62 18.62 0 0 0-1.52-11.08 16.22 16.22 0 0 0-6-6.4 18.78 18.78 0 0 0-1.57-10.71 17.6 17.6 0 0 0-12.07-9c-.16-5.63-1.45-11.2-6.17-13.23a16.81 16.81 0 0 0-14.6 1.44h-.14a10.89 10.89 0 0 0-10.43-6.65 11.66 11.66 0 0 0-9.79 6.65h-2.22a10.89 10.89 0 0 0-10.43-6.65 11.66 11.66 0 0 0-9.79 6.65h-2.32a10.89 10.89 0 0 0-10.43-6.65 11.66 11.66 0 0 0-9.79 6.65h-2.22a10.89 10.89 0 0 0-10.43-6.65 11.66 11.66 0 0 0-9.79 6.65h-2.22a10.89 10.89 0 0 0-10.43-6.65 11.66 11.66 0 0 0-9.79 6.65h-2.22a10.88 10.88 0 0 0-10.43-6.65 11.66 11.66 0 0 0-9.79 6.65h-2.22a10.88 10.88 0 0 0-10.43-6.65 11.67 11.67 0 0 0-9.79 6.65h-2.22a10.88 10.88 0 0 0-10.43-6.65 11.67 11.67 0 0 0-9.79 6.65h-2.22a10.88 10.88 0 0 0-10.43-6.65 11.67 11.67 0 0 0-9.79 6.65h-1.4c-2.38-5.23-11.38-3.9-14.9-1.44-4.2 3-5.68 8-6 13.2a17.59 17.59 0 0 0-12.21 9 18.84 18.84 0 0 0-1.6 10.55 16.72 16.72 0 0 0-6 6.56 18.72 18.72 0 0 0-1.55 10.89 16.79 16.79 0 0 0-6 6.54 18.91 18.91 0 0 0-1.66 10.14 15.84 15.84 0 0 0-5.42 6.17c-3 6.76-1.56 10 1.4 12.68a14.24 14.24 0 0 0-2.74 17.28 13.17 13.17 0 0 0 6.06 5.87c4.17 1.85 9.35 1.4 13.78-.57a16.45 16.45 0 0 0 12 6.49c5.84.3 12.28-3.03 15.1-10.5zm-503.1 1.35a13.15 13.15 0 0 0 6.07-5.87 14.24 14.24 0 0 0-2.74-17.28c3-2.65 4.43-5.92 1.4-12.68a15.92 15.92 0 0 0-5.42-6.17 18.8 18.8 0 0 0-1.67-10.14 16.25 16.25 0 0 0-6-6.35 18.61 18.61 0 0 0-1.52-11.08 16.29 16.29 0 0 0-6-6.4 18.78 18.78 0 0 0-1.57-10.71 17.57 17.57 0 0 0-12.07-9c-.16-5.63-1.45-11.2-6.17-13.23a16.81 16.81 0 0 0-14.6 1.44h-.15a10.87 10.87 0 0 0-10.42-6.65 11.66 11.66 0 0 0-9.79 6.65h-2.26a10.87 10.87 0 0 0-10.42-6.65 11.66 11.66 0 0 0-9.79 6.65h-2.23a10.87 10.87 0 0 0-10.42-6.65 11.66 11.66 0 0 0-9.79 6.65h-2.23a10.87 10.87 0 0 0-10.42-6.65 11.66 11.66 0 0 0-9.79 6.65h-2.22a10.89 10.89 0 0 0-10.43-6.65 11.66 11.66 0 0 0-9.79 6.65h-2.27a10.89 10.89 0 0 0-10.43-6.65 11.66 11.66 0 0 0-9.79 6.65h-2.22a10.89 10.89 0 0 0-10.43-6.65 11.66 11.66 0 0 0-9.79 6.65h-2.22a10.89 10.89 0 0 0-10.43-6.65 11.66 11.66 0 0 0-9.79 6.65h-2.22a10.89 10.89 0 0 0-10.43-6.65 11.66 11.66 0 0 0-9.79 6.65h-1.4c-2.38-5.24-11.38-3.9-14.9-1.44-4.2 2.94-5.7 8-6 13.2a17.57 17.57 0 0 0-12.21 9 18.76 18.76 0 0 0-1.6 10.55 16.65 16.65 0 0 0-6 6.56 18.72 18.72 0 0 0-1.55 10.89 16.65 16.65 0 0 0-6 6.54 19 19 0 0 0-1.67 10.14 15.89 15.89 0 0 0-5.41 6.17c-3 6.76-1.56 10 1.4 12.68a14.24 14.24 0 0 0-2.74 17.28 13.17 13.17 0 0 0 6.06 5.87c4.16 1.85 9.35 1.4 13.78-.58a16.41 16.41 0 0 0 12 6.5c5.87.28 12.3-3.06 15.13-10.53h2.17a16.41 16.41 0 0 0 14.25 10.53c5.87.28 12.3-3.06 15.12-10.53h2.18a16.41 16.41 0 0 0 14.25 10.53c5.87.28 12.3-3.06 15.12-10.53h2.18a16.41 16.41 0 0 0 14.19 10.54c5.87.28 12.3-3.06 15.12-10.53h2.17a16.41 16.41 0 0 0 14.26 10.53c5.87.28 12.3-3.06 15.12-10.53h2.17a16.41 16.41 0 0 0 14.26 10.53c5.87.28 12.3-3.06 15.12-10.53h2.17a16.41 16.41 0 0 0 14.25 10.53c5.87.28 12.3-3.06 15.13-10.53h2.23a16.41 16.41 0 0 0 14.25 10.53c5.87.28 12.3-3.06 15.12-10.53h2.18a16.41 16.41 0 0 0 14.25 10.53 15 15 0 0 0 12.41-5.71 16.64 16.64 0 0 0 11.69-.19z"/></g></g><path d="M887.362 922.47a30.78 30.78 0 0 1-2.19 17c-2.3 5.56-6.24 10-8.62 14.57a26.54 26.54 0 0 0-3.74 14c0 5 .75 9.86 2.8 13.84s5.38 7.5 9.16 12.18 7.57 11 8.73 17.65a43.77 43.77 0 0 1-.73 19.78c-1.78 6.8-6.06 12.56-9.5 16.88s-6 7.74-7.2 11.84a32.78 32.78 0 0 0-.78 13.39c.53 4.42 2.32 8.15 5.34 12.35s7.23 9.14 9.47 15.53a38.82 38.82 0 0 1 1.81 19 34.53 34.53 0 0 1-7.31 17.19c-3.8 4.73-8 8.2-11 12.54a33.05 33.05 0 0 0-5.69 15.12 30.91 30.91 0 0 1 2.18-17.06c2.3-5.56 6.23-10 8.6-14.58a26.58 26.58 0 0 0 3.74-14c0-5-.73-9.86-2.77-13.84s-5.34-7.52-9.12-12.2-7.6-10.92-8.77-17.62a43.89 43.89 0 0 1 .68-19.78c1.76-6.8 6-12.6 9.48-16.93s6.1-7.75 7.24-11.84a33.07 33.07 0 0 0 .83-13.38c-.52-4.43-2.3-8.17-5.32-12.36s-7.2-9.1-9.48-15.5a38.71 38.71 0 0 1-1.84-19 34.55 34.55 0 0 1 7.29-17.19c3.8-4.73 8-8.2 11-12.54a33 33 0 0 0 5.69-15.06zm98.87 0a30.87 30.87 0 0 1-2.2 17c-2.3 5.56-6.24 10-8.62 14.57a26.54 26.54 0 0 0-3.74 14c0 5 .75 9.86 2.8 13.84s5.38 7.5 9.16 12.18 7.57 11 8.73 17.65a43.77 43.77 0 0 1-.73 19.78c-1.78 6.8-6.06 12.56-9.5 16.88s-6 7.74-7.2 11.84a32.78 32.78 0 0 0-.78 13.39c.53 4.42 2.33 8.15 5.35 12.35s7.22 9.14 9.47 15.53a39.05 39.05 0 0 1 1.81 19 34.64 34.64 0 0 1-7.32 17.19c-3.8 4.73-8 8.2-11 12.54a33.17 33.17 0 0 0-5.69 15.12 30.91 30.91 0 0 1 2.18-17.06c2.3-5.56 6.23-10 8.6-14.58a26.49 26.49 0 0 0 3.74-14c0-5-.73-9.86-2.77-13.84s-5.34-7.52-9.12-12.2-7.6-10.92-8.77-17.62a44 44 0 0 1 .68-19.78c1.76-6.8 6-12.6 9.48-16.93s6.1-7.75 7.24-11.84a33.07 33.07 0 0 0 .83-13.38c-.52-4.43-2.3-8.17-5.32-12.36s-7.2-9.1-9.48-15.5a38.71 38.71 0 0 1-1.84-19 34.55 34.55 0 0 1 7.29-17.19c3.8-4.73 8-8.2 11-12.54a33.05 33.05 0 0 0 5.7-15.06zm98.9 0a30.87 30.87 0 0 1-2.2 17c-2.3 5.56-6.24 10-8.62 14.57a26.54 26.54 0 0 0-3.74 14c0 5 .75 9.86 2.8 13.84s5.38 7.5 9.16 12.18 7.57 11 8.73 17.65a43.63 43.63 0 0 1-.73 19.78c-1.78 6.8-6.06 12.56-9.5 16.88s-6 7.74-7.2 11.84a33 33 0 0 0-.78 13.39c.53 4.42 2.33 8.15 5.35 12.35s7.22 9.14 9.47 15.53a39.05 39.05 0 0 1 1.81 19 34.71 34.71 0 0 1-7.31 17.19c-3.8 4.73-8 8.2-11 12.54a33.17 33.17 0 0 0-5.69 15.12 31 31 0 0 1 2.18-17.06c2.3-5.56 6.23-10 8.6-14.58a26.49 26.49 0 0 0 3.74-14c0-5-.73-9.86-2.77-13.84s-5.34-7.52-9.12-12.2-7.6-10.92-8.77-17.62a44 44 0 0 1 .69-19.78c1.75-6.8 6-12.6 9.47-16.93s6.1-7.75 7.24-11.84a32.89 32.89 0 0 0 .83-13.38c-.52-4.43-2.3-8.17-5.32-12.36s-7.2-9.1-9.48-15.5a38.71 38.71 0 0 1-1.84-19 34.47 34.47 0 0 1 7.3-17.19c3.8-4.73 8-8.2 11-12.54a33.05 33.05 0 0 0 5.68-15.06z" fill="#231f20"/><path d="M819.122 761.43l-29.63-31.2a584 584 0 0 1-86.37-117.63c-25.14-45-59.76-101.7-84.35-121.33-43-34.3-38.44-56.14-28.63-64.6 13.58-11.7 26.64-12 46.8-12a93 93 0 0 1 11.27.68c45.65 5.48 100.53 72.16 115 85l13.9 12.27a12.28 12.28 0 0 0 20.34-9.28l6.15-375.5c0-25.08 14.26-45.5 39.34-45.5s39.35 20.4 39.35 45.5l6.14 260.77a12.29 12.29 0 1 0 24.57 0l6.13-331.1c0-25.08 14.28-45.52 39.37-45.52s39.34 20.4 39.34 45.5l6.14 329.8a12.29 12.29 0 0 0 24.57 0l6.14-272c0-25.08 14.26-45.5 39.35-45.5s39.34 20.4 39.34 45.5l6.14 285.28a12.29 12.29 0 0 0 24.57 0l6.14-194.86c0-25.08 14.26-45.48 39.35-45.48s39.34 20.4 39.34 45.48l4.88 178.43q1.26 46.2-1.78 92.37l-5.45 82.57a578.07 578.07 0 0 1-56.12 213h0a110 110 0 0 1-97.78 62.2l-78.85.9a237.15 237.15 0 0 1-174.69-73.76z" fill="#fff" stroke-width="24" class="I J"/><defs ><path id="B" d="M1110.912 1857.43h-392.74c-11.92 0-18.47-7.33-14.76-16.1l49.52-116.9c2.1-5 10.78-8.92 19.4-8.92h284.4c8.63 0 17.3 3.94 19.4 8.92l49.52 116.9c3.7 8.76-2.84 16.1-14.76 16.1z"/><path id="C" d="M777.722 1720.66a16.21 16.21 0 0 1 15-14.31c6.73-.32 14.22 4.17 15.92 14.3"/><path id="D" d="M808.672 1720.66a16.22 16.22 0 0 1 15-14.31c6.72-.32 14.22 4.17 15.92 14.3"/><path id="E" d="M963.462 1720.66a16.21 16.21 0 0 1 15-14.31c6.73-.32 14.22 4.17 15.93 14.3"/><path id="F" d="M756.482 1732.2c-10.2-3.16-21.4 4.48-24.9 12-3.87 8.3-3.8 19.8 4.47 26.64"/><path id="G" d="M745.972 1755.8c-10.22-3.16-21.4 4.48-24.92 12-3.87 8.3-3.8 19.8 4.48 26.64"/><path id="H" d="M735.542 1779.85c-10.2-3.17-21.4 4.48-24.9 12-3.88 8.3-3.8 19.8 4.47 26.64"/><path id="I" d="M725.772 1802.35c-10.2-3.17-21.5 4.4-24.9 12-6.83 15.26 2.94 17.63 11.22 24.47"/><path id="J" d="M714.972 1828.28c-13.17-2.36-23.2 14-15.94 27.4a18.23 18.23 0 0 0 8.36 8.1c8.23 3.66 19.37.8 26.18-5.47"/><path id="K" d="M1083.302 1741.5c.8-9.9 1.17-24-8.17-28-8.12-3.47-22.14-.66-24.68 7.76"/><path id="L" d="M1075.382 1732.2c10.22-3.16 21.4 4.48 24.9 12 3.88 8.3 3.8 19.8-4.47 26.64"/><path id="M" d="M1085.032 1755.8c10.2-3.16 22.26 4.48 25.78 12 3.88 8.3 3.8 19.8-4.47 26.64"/><path id="N" d="M1095.232 1779.85c10.22-3.17 22.48 4.48 26 12 3.88 8.3 3.8 19.8-4.47 26.64"/><path id="O" d="M1106.122 1802.35c10.22-3.17 21.5 4.4 24.9 12 6.84 15.26-2.94 17.63-11.2 24.47"/><path id="P" d="M1116.902 1828.28c13.16-2.36 23.2 14 15.94 27.4a18.21 18.21 0 0 1-8.37 8.1c-8.23 3.66-19.37.8-26.18-5.47"/><path id="Q" d="M765.372 1851.78c1.9 13.34 12.56 19.76 21.14 20.17 9.45.45 20-5.88 22.38-20.17"/><path id="R" d="M852.412 1851.78c1.9 13.34 12.56 19.76 21.14 20.17 9.46.45 20-5.88 22.4-20.17"/><path id="S" d="M895.942 1851.78c1.9 13.34 12.55 19.76 21.14 20.17 9.45.45 20-5.88 22.38-20.17"/><path id="T" d="M1086.412 1658.3h-338.63c-10.28 0-15.93-6.32-12.73-13.87l42.7-100.8c1.82-4.3 9.3-7.7 16.73-7.7h245.23c7.44 0 14.9 3.4 16.73 7.7l42.7 100.8c3.2 7.57-2.45 13.87-12.73 13.87z"/><path id="U" d="M825.812 1540.37a14 14 0 0 1 13-12.34c5.8-.28 12.26 3.6 13.73 12.34"/><path id="V" d="M905.892 1540.37a14 14 0 0 1 13-12.34c5.8-.28 12.26 3.6 13.72 12.34"/><path id="W" d="M780.822 1550.3c-8.8-2.73-18.45 3.86-21.48 10.36-3.35 7.15-3.28 17.06 3.85 23"/><path id="X" d="M750.952 1653.43a19.68 19.68 0 0 0 18.23 17.39c8.15.4 17.23-5.07 19.3-17.4"/><path id="Y" d="M788.482 1653.43a19.67 19.67 0 0 0 18.22 17.39c8.15.4 17.24-5.07 19.3-17.4"/><path id="Z" d="M826.002 1653.43a19.68 19.68 0 0 0 18.23 17.39c8.15.4 17.24-5.07 19.3-17.4"/><path id="a" d="M901.062 1653.43a19.67 19.67 0 0 0 18.22 17.39c8.16.4 17.24-5.07 19.3-17.4"/><path id="b" d="M820.472 1382.64a11.76 11.76 0 0 1 10.9-10.38c4.87-.23 10.3 3 11.54 10.38"/><path id="c" d="M805.122 1391c-7.4-2.3-15.5 3.24-18.06 8.7-2.8 6-2.76 14.35 3.24 19.3"/><path id="d" d="M1043.232 1408.1c7.4-2.3 16.14 3.24 18.7 8.7 2.8 6 2.76 14.35-3.24 19.3"/><path id="e" d="M779.972 1477.7a16.53 16.53 0 0 0 15.32 14.61c6.85.33 14.5-4.26 16.23-14.6"/><path id="f" d="M937.712 1477.7a16.53 16.53 0 0 0 15.32 14.61c6.86.33 14.5-4.26 16.23-14.6"/><path id="g" d="M1215.122 1385.9a11.76 11.76 0 0 1 10.9-10.37c4.87-.24 10.3 3 11.54 10.37"/><path id="h" d="M1349.802 1385.9a11.75 11.75 0 0 1 10.9-10.37c4.87-.24 10.3 3 11.54 10.37"/><path id="i" d="M1206.212 1481a16.52 16.52 0 0 0 15.32 14.61c6.86.33 14.5-4.26 16.23-14.6"/></defs></svg>