<svg xmlns="http://www.w3.org/2000/svg" height="1983.04" width="1592.06"  xmlns:v="https://vecta.io/nano"><path d="M706.36 1095.77a43.82 43.82 0 0 1-3.12 24.19c-3.27 7.88-8.85 14.2-12.23 20.66a37.75 37.75 0 0 0-5.3 19.87c0 7 1.06 14 4 19.63 2.72 5.78 7.63 10.65 13 17.3 5.48 6.48 10.74 15.54 12.4 25a62.06 62.06 0 0 1-1 28.06c-2.52 9.64-8.6 17.8-13.48 24s-8.57 11-10.2 16.8-1.93 12.8-1.1 19 3.3 11.57 7.6 17.52 10.26 13 13.44 22a55.07 55.07 0 0 1 2.56 27 49.12 49.12 0 0 1-10.37 24.39c-5.4 6.7-11.36 11.62-15.6 17.78a46.94 46.94 0 0 0-8.07 21.45 43.9 43.9 0 0 1 3.08-24.2c3.28-7.9 8.84-14.2 12.22-20.7a37.76 37.76 0 0 0 5.31-19.85c0-7-1-14-3.94-19.64-2.72-5.77-7.57-10.67-12.94-17.28s-10.75-15.5-12.43-25a62.37 62.37 0 0 1 1-28.07c2.5-9.64 8.5-17.87 13.44-24s8.64-11 10.28-16.8c1.8-5.68 2-12.77 1.17-19s-3.25-11.6-7.54-17.53-10.24-12.93-13.45-22a54.85 54.85 0 0 1-2.61-27 49 49 0 0 1 10.34-24.38c5.4-6.7 11.36-11.63 15.6-17.8a46.79 46.79 0 0 0 7.96-21.41zm140.24 0a43.72 43.72 0 0 1-3.11 24.19c-3.27 7.88-8.85 14.2-12.23 20.66a37.75 37.75 0 0 0-5.25 19.92c0 7 1.06 14 4 19.63 2.72 5.78 7.63 10.65 13 17.3 5.48 6.48 10.74 15.54 12.4 25a62.06 62.06 0 0 1-1 28.06c-2.52 9.64-8.6 17.8-13.48 24s-8.58 11-10.2 16.8-1.93 12.8-1.1 19 3.3 11.57 7.6 17.52 10.25 13 13.44 22a55.07 55.07 0 0 1 2.56 27 49.12 49.12 0 0 1-10.37 24.39c-5.4 6.7-11.36 11.62-15.6 17.78a46.94 46.94 0 0 0-8.07 21.45 43.9 43.9 0 0 1 3.08-24.2c3.27-7.9 8.84-14.2 12.22-20.7a37.76 37.76 0 0 0 5.31-19.85c0-7-1-14-3.94-19.64-2.72-5.77-7.57-10.67-12.94-17.28s-10.76-15.5-12.43-25a62.37 62.37 0 0 1 1-28.07c2.5-9.64 8.5-17.87 13.44-24s8.64-11 10.28-16.8 1.94-12.77 1.17-19-3.25-11.6-7.55-17.53-10.23-12.93-13.44-22a54.73 54.73 0 0 1-2.61-27 48.91 48.91 0 0 1 10.34-24.38c5.4-6.7 11.36-11.63 15.6-17.8a46.78 46.78 0 0 0 7.9-21.46zm140.23 0a43.72 43.72 0 0 1-3.11 24.19c-3.28 7.88-8.85 14.2-12.23 20.66a37.66 37.66 0 0 0-5.3 19.87c0 7 1 14 4 19.63 2.72 5.78 7.63 10.65 13 17.3 5.48 6.48 10.73 15.54 12.4 25a61.92 61.92 0 0 1-1 28.06c-2.52 9.64-8.6 17.8-13.47 24s-8.58 11-10.2 16.8-1.93 12.8-1.1 19 3.3 11.57 7.6 17.52 10.25 13 13.43 22a55.2 55.2 0 0 1 2.57 27 49.21 49.21 0 0 1-10.37 24.39c-5.4 6.7-11.37 11.62-15.6 17.78a46.94 46.94 0 0 0-8.07 21.45 43.72 43.72 0 0 1 3.08-24.2c3.27-7.9 8.84-14.2 12.22-20.7a37.76 37.76 0 0 0 5.31-19.85c0-7-1-14-3.94-19.64-2.72-5.77-7.57-10.67-12.94-17.28s-10.76-15.5-12.44-25a62.51 62.51 0 0 1 1-28.07c2.5-9.64 8.5-17.87 13.44-24s8.63-11 10.27-16.8 2-12.77 1.18-19-3.25-11.6-7.55-17.53-10.23-12.93-13.44-22a54.73 54.73 0 0 1-2.61-27 48.91 48.91 0 0 1 10.34-24.38c5.4-6.7 11.36-11.63 15.6-17.8a46.78 46.78 0 0 0 7.95-21.41z" fill="#231f20"/><g fill="#fff" stroke="#231f20" stroke-width="24"><path d="M618.65 889.14L584 852.63a684.8 684.8 0 0 1-101.12-137.67c-29.42-52.64-69.93-119-98.7-142-50.32-40.16-45-65.7-33.5-75.6 15.9-13.7 31.17-14.1 54.77-14.1a110.56 110.56 0 0 1 13.18.79c53.4 6.42 117.66 84.48 134.58 99.48l16.27 14.36a14.37 14.37 0 0 0 23.8-10.86l7.2-439.5c0-29.35 16.7-53.24 46-53.24s46 23.9 46 53.24l7.2 305.2a14.38 14.38 0 1 0 28.76 0l7.2-387.52c0-29.36 16.7-53.24 46-53.24s46 23.88 46 53.24l7.2 386a14.38 14.38 0 0 0 28.76 0l7.2-318.38c0-29.35 16.7-53.24 46-53.24s46 23.9 46 53.24l7.2 333.9a14.38 14.38 0 0 0 28.76 0l7.2-228.06c0-29.35 16.7-53.23 46-53.23s46 23.88 46 53.23l6.13 208.85q1.48 54.08-2.08 108.1l-6.38 96.65a676.68 676.68 0 0 1-65.68 249.33h0a128.72 128.72 0 0 1-114.44 72.8l-92.34 1.1a277.57 277.57 0 0 1-204.43-86.4z" stroke-miterlimit="10"/><g stroke-linejoin="round"><path d="M49.42 1693.68l42 237.88a59.47 59.47 0 0 0 56 39.48h1297.1c25.15 0 47.76-15.92 56-38.48l42-237.88" stroke-linecap="round"/><path d="M1566 1687.54l-256.3-167.27a30.91 30.91 0 0 0-16.92-5H299.24a30.91 30.91 0 0 0-16.92 5L26 1687.54a31 31 0 0 0-14 26v7a31 31 0 0 0 31 31h1506.06c17.1 0 31-12.86 31-30v-8a31 31 0 0 0-14.06-26z"/></g></g><path d="M142.24 1696.72c14.58-10 29.62-19.93 41.5-33.2 12.2-13.63 22.2-29.53 37.4-40.16 21.2-14.82 48.6-17.55 68.7-34.82 15.1-13 25.23-22.2 46.58-23.14 18.87-.83 37.77 3.43 56.57 1.68 17.53-1.64 34.18-8.43 51.6-11 41.64-6 79.38 18.38 120.48 8.43 15.45-3.73 31.25-8.66 46.95-6.1 14.8 2.42 27.8 10.8 42.57 13.34 16.63 2.85 24.92-4 40.32-8.26 14.07-3.85 29.17-.75 42.8 4.48 5.9 2.26 11 5.1 17.13 6.36 8.07 1.65 16 4.12 24.07 5.76 3.82.78 8.66 2.7 12.53 2.4 4.93-.36 10.8-3.72 15.5-5.3 10.9-3.7 21.9-7.1 33.12-9.7 21.58-5 44.25-7 66-1.6 15.4 3.85 30.5 11.38 46.28 9.78 20.06-2.05 36.45-18.44 56.5-20.52 29.46-3.06 54.92 25.36 84.5 23.68 25.78-1.47 48.27-25.7 73.54-20.4 16.93 3.55 29.8 19.87 47.08 20.63 10.73.46 20.6-5.25 30.63-9.06 17.77-6.74 40.78-5.43 55.13 8 6.24 5.86 10.8 13.54 18 18.23 9.37 6.14 21.7 6.15 31.3 11.94 11.48 6.9 16.82 20.52 25.83 30.45 10.4 11.46 25 17.46 37.66 25.93 6.62 4.43 10.4 9.9 15.9 15.14 6.85 6.54 15.6 11.5 23.4 16.78l.23.16" fill="#d8a628" stroke="#050303" stroke-width="8"/><path d="M92.08 1696.72h1407.84" fill="#fff" stroke="#231f20" stroke-width="16" stroke-linecap="round" stroke-linejoin="round"/></svg>