<svg id="Layer_1" data-name="Layer 1" xmlns="http://www.w3.org/2000/svg" viewBox="0 0 1034.52 2000"><path d="M470.09,879a35.41,35.41,0,0,1-2.51,19.53c-2.65,6.36-7.15,11.45-9.88,16.68a30.43,30.43,0,0,0-4.28,16c0,5.68.86,11.29,3.21,15.85,2.2,4.67,6.16,8.6,10.49,14s8.66,12.54,10,20.2a50,50,0,0,1-.84,22.66c-2,7.78-6.94,14.37-10.88,19.33s-6.93,8.86-8.24,13.55a37.81,37.81,0,0,0-.89,15.33c.61,5.07,2.67,9.35,6.13,14.15s8.27,10.46,10.84,17.79a44.51,44.51,0,0,1,2.07,21.76,39.6,39.6,0,0,1-8.37,19.68c-4.36,5.41-9.18,9.39-12.59,14.36a37.86,37.86,0,0,0-6.51,17.31,35.32,35.32,0,0,1,2.49-19.53c2.64-6.37,7.13-11.47,9.86-16.7a30.48,30.48,0,0,0,4.29-16c0-5.67-.84-11.29-3.18-15.85s-6.12-8.61-10.45-13.95-8.68-12.52-10-20.18a50.41,50.41,0,0,1,.79-22.66c2-7.78,6.87-14.43,10.85-19.38s7-8.88,8.29-13.56,1.58-10.31.95-15.33-2.62-9.35-6.09-14.15-8.26-10.44-10.86-17.74a44.3,44.3,0,0,1-2.1-21.76A39.43,39.43,0,0,1,451,910.72c4.35-5.41,9.17-9.39,12.59-14.36A37.9,37.9,0,0,0,470.09,879Z" style="fill:#231f20"/><path d="M583.3,879a35.41,35.41,0,0,1-2.51,19.53c-2.64,6.36-7.15,11.45-9.88,16.68a30.52,30.52,0,0,0-4.27,16c0,5.68.85,11.29,3.2,15.85,2.2,4.67,6.16,8.6,10.49,14s8.67,12.54,10,20.2a50,50,0,0,1-.84,22.66c-2,7.78-6.94,14.37-10.88,19.33s-6.92,8.86-8.23,13.55a37.64,37.64,0,0,0-.9,15.33c.61,5.07,2.67,9.35,6.13,14.15s8.27,10.46,10.84,17.79a44.39,44.39,0,0,1,2.07,21.76,39.6,39.6,0,0,1-8.37,19.68c-4.36,5.41-9.17,9.39-12.59,14.36a37.86,37.86,0,0,0-6.51,17.31,35.32,35.32,0,0,1,2.49-19.53c2.64-6.37,7.13-11.47,9.86-16.7a30.48,30.48,0,0,0,4.29-16c0-5.67-.84-11.29-3.18-15.85s-6.12-8.61-10.45-13.95-8.68-12.52-10-20.18a50.41,50.41,0,0,1,.79-22.66c2-7.78,6.87-14.43,10.85-19.38s7-8.88,8.3-13.56,1.57-10.31.95-15.33-2.63-9.35-6.1-14.15-8.26-10.44-10.85-17.74a44.31,44.31,0,0,1-2.11-21.76,39.43,39.43,0,0,1,8.35-19.68c4.35-5.41,9.17-9.39,12.59-14.36A37.79,37.79,0,0,0,583.3,879Z" style="fill:#231f20"/><path d="M696.51,879A35.23,35.23,0,0,1,694,898.57c-2.64,6.36-7.15,11.45-9.88,16.68a30.52,30.52,0,0,0-4.27,16c0,5.68.85,11.29,3.2,15.85s6.16,8.6,10.49,14,8.67,12.54,10,20.2a50,50,0,0,1-.84,22.66c-2,7.78-6.94,14.37-10.88,19.33s-6.92,8.86-8.23,13.55a37.64,37.64,0,0,0-.9,15.33c.61,5.07,2.67,9.35,6.13,14.15s8.28,10.46,10.84,17.79a44.51,44.51,0,0,1,2.08,21.76,39.7,39.7,0,0,1-8.38,19.68c-4.35,5.41-9.17,9.39-12.58,14.36a37.76,37.76,0,0,0-6.52,17.31,35.32,35.32,0,0,1,2.49-19.53c2.64-6.37,7.14-11.47,9.87-16.7a30.56,30.56,0,0,0,4.28-16c0-5.67-.84-11.29-3.18-15.85s-6.11-8.61-10.44-13.95-8.69-12.52-10-20.18a50.27,50.27,0,0,1,.78-22.66c2-7.78,6.87-14.43,10.85-19.38s7-8.88,8.3-13.56,1.57-10.31,1-15.33-2.63-9.35-6.1-14.15-8.26-10.44-10.85-17.74a44.31,44.31,0,0,1-2.11-21.76,39.52,39.52,0,0,1,8.35-19.68c4.36-5.41,9.17-9.39,12.59-14.36A37.79,37.79,0,0,0,696.51,879Z" style="fill:#231f20"/><path d="M399.29,728.57l-28-29.47A552.46,552.46,0,0,1,289.69,588c-23.75-42.5-56.46-96.1-79.69-114.64-40.62-32.42-36.32-53.05-27.06-61,12.83-11.05,25.17-11.38,44.22-11.38a88.81,88.81,0,0,1,10.64.64c43.13,5.19,95,68.18,108.64,80.34,4.38,3.9,8.74,7.79,13.13,11.6a11.61,11.61,0,0,0,19.22-8.77l5.81-354.79c0-23.7,13.47-43,37.17-43s37.18,19.28,37.18,43l5.8,246.39a11.61,11.61,0,1,0,23.22,0l5.8-312.84c0-23.7,13.48-43,37.17-43s37.18,19.28,37.18,43l5.8,311.61a11.61,11.61,0,0,0,23.22,0l5.8-257c0-23.69,13.47-43,37.17-43s37.17,19.28,37.17,43l5.81,269.55a11.61,11.61,0,1,0,23.21,0l5.81-184.11c0-23.7,13.47-43,37.17-43s37.17,19.28,37.17,43l4.61,168.59q1.2,43.65-1.68,87.27l-5.15,78a546.27,546.27,0,0,1-53,201.28h0a103.92,103.92,0,0,1-92.39,58.77l-74.5.86A224.06,224.06,0,0,1,399.29,728.57Z" style="fill:#fff;stroke:#231f20;stroke-miterlimit:10;stroke-width:24px"/><g id="layer3"><g id="g877"><path id="rect869" d="M985.88,1409.84l-486.11,190L42.71,1541.09" style="fill:none;stroke:#231f20;stroke-linecap:round;stroke-linejoin:round;stroke-width:24px"/><path id="path864" d="M69.8,1544.58l24,338.49,399.72,96.43,6.16-379.33Z" style="fill:#fff;stroke:#231f20;stroke-linecap:round;stroke-linejoin:round;stroke-width:24px"/><path id="rect866" d="M499.69,1600.17,965.52,1417.8l-29.67,311.12L493.53,1979.5Z" style="fill:#fff;stroke:#231f20;stroke-linecap:round;stroke-linejoin:round;stroke-width:24px"/></g></g><path id="path1603" d="M42.71,1541.09s-38.51-103,41-153.28c98.79-62.52,429.24-147.39,559.48-152.6,36.43-1.45,293.05,19.58,340.23,54.33,31.87,23.48,11.06,116.94,11.06,116.94l-495.64,194Z" style="fill:#ecdaba;stroke:#231f20;stroke-linecap:round;stroke-linejoin:round;stroke-width:24px;isolation:isolate;opacity:0.991999983787537"/><path d="M593.12,1460.86a4.25,4.25,0,1,0-4.25-4.25,4.3,4.3,0,0,0,4.25,4.25Z" style="fill:#231f20"/><path d="M485.45,1427a4.25,4.25,0,1,0-4.25-4.25,4.3,4.3,0,0,0,4.25,4.25Z" style="fill:#231f20"/><path d="M550.33,1392.53a4.25,4.25,0,1,0-4.25-4.25,4.3,4.3,0,0,0,4.25,4.25Z" style="fill:#231f20"/><path d="M620,1423.59a4.25,4.25,0,1,0-4.25-4.25,4.3,4.3,0,0,0,4.25,4.25Z" style="fill:#231f20"/><path d="M687.68,1366.31a4.25,4.25,0,1,0-4.25-4.25,4.31,4.31,0,0,0,4.25,4.25Z" style="fill:#231f20"/><path d="M798.8,1400.13a4.25,4.25,0,1,0-4.25-4.25,4.29,4.29,0,0,0,4.25,4.25Z" style="fill:#231f20"/><path d="M712.53,1456a4.25,4.25,0,1,0-4.25-4.25,4.3,4.3,0,0,0,4.25,4.25Z" style="fill:#231f20"/><path d="M689.75,1417.38a4.25,4.25,0,1,0-4.25-4.25,4.3,4.3,0,0,0,4.25,4.25Z" style="fill:#231f20"/><path d="M577.94,1514a4.25,4.25,0,1,0-4.25-4.25,4.3,4.3,0,0,0,4.25,4.25Z" style="fill:#231f20"/><path d="M473.71,1532a4.25,4.25,0,1,0-4.25-4.25,4.29,4.29,0,0,0,4.25,4.25Z" style="fill:#231f20"/><path d="M432.3,1480.19a4.25,4.25,0,1,0-4.25-4.25,4.3,4.3,0,0,0,4.25,4.25Z" style="fill:#231f20"/><path d="M332.22,1510.56a4.25,4.25,0,1,0-4.25-4.25,4.31,4.31,0,0,0,4.25,4.25Z" style="fill:#231f20"/><path d="M212.12,1477.43a4.25,4.25,0,1,0-4.25-4.25,4.29,4.29,0,0,0,4.25,4.25Z" style="fill:#231f20"/><path d="M143.79,1507.11a4.25,4.25,0,1,0-4.25-4.25,4.29,4.29,0,0,0,4.25,4.25Z" style="fill:#231f20"/><path d="M94.79,1471.22a4.25,4.25,0,1,0-4.25-4.25,4.31,4.31,0,0,0,4.25,4.25Z" style="fill:#231f20"/><path d="M164.5,1430.5a4.25,4.25,0,1,0-4.25-4.25,4.31,4.31,0,0,0,4.25,4.25Z" style="fill:#231f20"/><path d="M283.91,1391.15a4.25,4.25,0,1,0-4.25-4.25,4.3,4.3,0,0,0,4.25,4.25Z" style="fill:#231f20"/><path d="M308.75,1427.73a4.25,4.25,0,1,0-4.25-4.25,4.29,4.29,0,0,0,4.25,4.25Z" style="fill:#231f20"/><path d="M395,1416a4.25,4.25,0,1,0-4.25-4.25A4.3,4.3,0,0,0,395,1416Z" style="fill:#231f20"/><path d="M359.14,1360.09a4.25,4.25,0,1,0-4.25-4.25,4.3,4.3,0,0,0,4.25,4.25Z" style="fill:#231f20"/><path d="M440.58,1307.64a4.25,4.25,0,1,0-4.25-4.25,4.29,4.29,0,0,0,4.25,4.25Z" style="fill:#231f20"/><path d="M463.36,1359.4a4.25,4.25,0,1,0-4.25-4.25,4.3,4.3,0,0,0,4.25,4.25Z" style="fill:#231f20"/><path d="M214.19,1362.16a4.25,4.25,0,1,0-4.25-4.25,4.29,4.29,0,0,0,4.25,4.25Z" style="fill:#231f20"/><path d="M548.26,1298.67a4.25,4.25,0,1,0-4.25-4.25,4.31,4.31,0,0,0,4.25,4.25Z" style="fill:#231f20"/><path d="M622.8,1274.51a4.25,4.25,0,1,0-4.25-4.25,4.31,4.31,0,0,0,4.25,4.25Z" style="fill:#231f20"/><path d="M618,1337.32a4.25,4.25,0,1,0-4.25-4.25,4.31,4.31,0,0,0,4.25,4.25Z" style="fill:#231f20"/><path d="M733.23,1299.36a4.25,4.25,0,1,0-4.25-4.25,4.29,4.29,0,0,0,4.25,4.25Z" style="fill:#231f20"/><path d="M755.32,1346.29a4.25,4.25,0,1,0-4.25-4.25,4.31,4.31,0,0,0,4.25,4.25Z" style="fill:#231f20"/><path d="M869.89,1324.2a4.25,4.25,0,1,0-4.25-4.25,4.29,4.29,0,0,0,4.25,4.25Z" style="fill:#231f20"/><path d="M859.54,1425a4.25,4.25,0,1,0-4.25-4.25,4.3,4.3,0,0,0,4.25,4.25Z" style="fill:#231f20"/><path d="M957.55,1398.75a4.25,4.25,0,1,0-4.25-4.25,4.31,4.31,0,0,0,4.25,4.25Z" style="fill:#231f20"/><path d="M944.44,1327.65a4.25,4.25,0,1,0-4.25-4.25,4.3,4.3,0,0,0,4.25,4.25Z" style="fill:#231f20"/><path d="M796.73,1296.59a4.25,4.25,0,1,0-4.25-4.25,4.3,4.3,0,0,0,4.25,4.25Z" style="fill:#231f20"/><path d="M838.14,1360.09a4.25,4.25,0,1,0-4.25-4.25,4.29,4.29,0,0,0,4.25,4.25Z" style="fill:#231f20"/><path d="M758.77,1474.67a4.25,4.25,0,1,0-4.25-4.25,4.31,4.31,0,0,0,4.25,4.25Z" style="fill:#231f20"/><path d="M633.15,1509.18a4.25,4.25,0,1,0-4.25-4.25,4.3,4.3,0,0,0,4.25,4.25Z" style="fill:#231f20"/></svg>