<svg xmlns="http://www.w3.org/2000/svg" xmlns:xlink="http://www.w3.org/1999/xlink" height="1983.02" width="991.75" xmlns:v="https://vecta.io/nano"><path d="M448.704 870.56a35.41 35.41 0 0 1-2.51 19.53c-2.64 6.36-7.15 11.45-9.88 16.68a30.52 30.52 0 0 0-4.27 16c0 5.68.85 11.3 3.2 15.85s6.16 8.6 10.5 14 8.67 12.54 10 20.2a50 50 0 0 1-.84 22.66c-2 7.78-6.94 14.37-10.88 19.33s-6.92 8.86-8.23 13.55a37.64 37.64 0 0 0-.9 15.33c.6 5.07 2.67 9.35 6.13 14.15s8.27 10.46 10.84 17.8a44.39 44.39 0 0 1 2.07 21.76 39.6 39.6 0 0 1-8.37 19.68c-4.36 5.4-9.17 9.4-12.6 14.36a37.86 37.86 0 0 0-6.51 17.31 35.32 35.32 0 0 1 2.49-19.53c2.64-6.37 7.13-11.47 9.86-16.7a30.48 30.48 0 0 0 4.29-16c0-5.67-.84-11.3-3.18-15.85s-6.12-8.6-10.45-14-8.68-12.52-10-20.18a50.41 50.41 0 0 1 .79-22.66c2-7.78 6.87-14.43 10.85-19.38s7-8.88 8.3-13.56 1.58-10.3 1-15.33-2.63-9.35-6.1-14.15-8.26-10.44-10.85-17.75a44.26 44.26 0 0 1-2.11-21.75 39.43 39.43 0 0 1 8.27-19.66c4.35-5.4 9.17-9.4 12.6-14.36a37.79 37.79 0 0 0 6.51-17.32zm113.17 0a35.23 35.23 0 0 1-2.51 19.53c-2.64 6.36-7.15 11.45-9.88 16.68a30.52 30.52 0 0 0-4.27 16c0 5.68.85 11.3 3.2 15.85s6.16 8.6 10.5 14 8.67 12.54 10 20.2a50 50 0 0 1-.84 22.66c-2 7.78-6.94 14.37-10.88 19.33s-6.92 8.86-8.23 13.55a37.64 37.64 0 0 0-.9 15.33c.6 5.07 2.67 9.35 6.13 14.15s8.28 10.46 10.84 17.8a44.51 44.51 0 0 1 2.08 21.76 39.7 39.7 0 0 1-8.38 19.68c-4.35 5.4-9.17 9.4-12.58 14.36a37.76 37.76 0 0 0-6.52 17.31 35.32 35.32 0 0 1 2.49-19.53c2.64-6.37 7.13-11.47 9.87-16.7a30.56 30.56 0 0 0 4.28-16c0-5.67-.84-11.3-3.18-15.85s-6.1-8.6-10.44-14-8.7-12.52-10-20.18a50.27 50.27 0 0 1 .78-22.66c2-7.78 6.87-14.43 10.85-19.38s7-8.88 8.3-13.56 1.57-10.3 1-15.33-2.63-9.35-6.1-14.15-8.26-10.44-10.85-17.75a44.26 44.26 0 0 1-2.11-21.75 39.52 39.52 0 0 1 8.35-19.68c4.36-5.4 9.17-9.4 12.6-14.36a37.79 37.79 0 0 0 6.42-17.3zm113.26 0a35.33 35.33 0 0 1-2.52 19.53c-2.64 6.36-7.14 11.45-9.87 16.68a30.43 30.43 0 0 0-4.28 16c0 5.68.85 11.3 3.2 15.85s6.16 8.6 10.5 14 8.67 12.54 10 20.2a50 50 0 0 1-.84 22.66c-2 7.78-6.93 14.37-10.88 19.33s-6.92 8.86-8.23 13.55a37.64 37.64 0 0 0-.89 15.33c.6 5.07 2.66 9.35 6.12 14.15s8.28 10.46 10.85 17.8a44.62 44.62 0 0 1 2.07 21.76 39.78 39.78 0 0 1-8.37 19.68c-4.36 5.4-9.18 9.4-12.6 14.36a38 38 0 0 0-6.52 17.31 35.5 35.5 0 0 1 2.49-19.53c2.64-6.37 7.14-11.47 9.87-16.7a30.38 30.38 0 0 0 4.28-16c0-5.67-.84-11.3-3.18-15.85s-6.1-8.6-10.44-14-8.7-12.52-10-20.18a50.55 50.55 0 0 1 .78-22.66c2-7.78 6.87-14.43 10.85-19.38s7-8.88 8.3-13.56 1.57-10.3.95-15.33-2.63-9.35-6.1-14.15-8.27-10.44-10.86-17.75a44.26 44.26 0 0 1-2.11-21.75 39.61 39.61 0 0 1 8.35-19.68c4.36-5.4 9.18-9.4 12.6-14.36a37.8 37.8 0 0 0 6.48-17.3z" fill="#231f20"/><g stroke="#231f20" stroke-width="24"><path d="M377.874 720.1l-28-29.47a552.12 552.12 0 0 1-81.6-111.14c-23.75-42.5-56.46-96.1-79.7-114.64-40.62-32.42-36.32-53.05-27-61 12.82-11.05 25.16-11.38 44.2-11.38a88.81 88.81 0 0 1 10.64.64c43.14 5.2 95 68.18 108.64 80.34l13.14 11.6a11.61 11.61 0 0 0 19.2-8.8l5.8-354.8c0-23.7 13.47-43 37.17-43s37.18 19.28 37.18 43l5.8 246.4a11.61 11.61 0 1 0 23.22 0l5.8-312.84c0-23.7 13.48-43 37.18-43s37.17 19.28 37.17 43l5.8 311.6a11.61 11.61 0 0 0 23.22 0l5.8-257c0-23.7 13.48-43 37.17-43s37.18 19.28 37.18 43l5.8 269.55a11.61 11.61 0 1 0 23.22 0l5.8-184.1c0-23.7 13.47-43 37.17-43s37.17 19.28 37.17 43l4.6 168.6q1.2 43.65-1.68 87.27l-5.15 78a546.27 546.27 0 0 1-53 201.28h0a103.92 103.92 0 0 1-92.39 58.77l-74.5.86a224.06 224.06 0 0 1-165.08-69.73z" fill="#fff" stroke-miterlimit="10"/><g stroke-linejoin="round"><path d="M964.494 1401.36l-486.1 190-457.07-58.8" fill="none" stroke-linecap="round"/><g fill="#fff"><path d="M48.414 1536.1l24 338.5 399.72 96.43 6.17-379.33z"/><path d="M478.314 1591.7l465.83-182.37-29.68 311.12-442.32 250.58z"/></g><path d="M21.324 1532.6s-38.5-103 41-153.28c98.8-62.52 429.24-147.4 559.5-152.6 36.42-1.45 293 19.57 340.23 54.33 31.86 23.48 11 116.94 11 116.94l-495.64 194z" opacity=".992" fill="#ecdaba"/></g></g><g fill="#231f20"><use xlink:href="#B"/><use xlink:href="#B" x="376.43" y="-120.06"/><path d="M397.134 1347.78a15.21 15.21 0 0 1-30.42 0h0a15.21 15.21 0 0 1 15.21-15.21h0a15.21 15.21 0 0 1 15.21 15.21"/><use xlink:href="#B" x="261.23" y="16.46"/><use xlink:href="#B" x="458.16" y="-38.3"/><path d="M845.194 1319.12a15.21 15.21 0 1 1-15.21-15.2 15.21 15.21 0 0 1 15.21 15.2"/></g><defs ><path id="B" d="M210.244 1416.4a15.21 15.21 0 1 1-15.21-15.21 15.21 15.21 0 0 1 15.21 15.21"/></defs></svg>