<svg xmlns="http://www.w3.org/2000/svg" viewBox="0 0 2000 2000"><g id="Layer_2" data-name="Layer 2"><path d="M946.85,806.83a29.5,29.5,0,0,1-2.09,16.25c-2.2,5.3-6,9.54-8.23,13.89A25.4,25.4,0,0,0,933,850.32c0,4.73.71,9.4,2.67,13.2s5.13,7.15,8.73,11.61,7.22,10.44,8.33,16.82a41.71,41.71,0,0,1-.7,18.86c-1.7,6.48-5.78,12-9.06,16.1s-5.76,7.37-6.85,11.28a31.31,31.31,0,0,0-.75,12.76c.51,4.22,2.22,7.78,5.1,11.78s6.89,8.71,9,14.8a37.15,37.15,0,0,1,1.73,18.12,33.15,33.15,0,0,1-7,16.39c-3.63,4.5-7.64,7.81-10.48,12a31.49,31.49,0,0,0-5.43,14.41,29.42,29.42,0,0,1,2.08-16.26c2.19-5.3,5.93-9.55,8.21-13.9a25.41,25.41,0,0,0,3.56-13.34c0-4.73-.69-9.41-2.64-13.2s-5.09-7.17-8.7-11.62-7.23-10.42-8.36-16.8a42,42,0,0,1,.66-18.86c1.67-6.48,5.72-12,9-16.13s5.8-7.39,6.91-11.29a31.64,31.64,0,0,0,.79-12.76c-.5-4.22-2.19-7.79-5.07-11.78s-6.88-8.69-9-14.77A36.88,36.88,0,0,1,924,849.58a32.87,32.87,0,0,1,7-16.39c3.62-4.5,7.63-7.81,10.48-12A31.53,31.53,0,0,0,946.85,806.83Z" style="fill:#231f20"/><path d="M1041.09,806.83a29.41,29.41,0,0,1-2.09,16.25c-2.2,5.3-6,9.54-8.22,13.89a25.3,25.3,0,0,0-3.56,13.35c0,4.73.71,9.4,2.67,13.2s5.12,7.15,8.73,11.61,7.21,10.44,8.32,16.82a41.71,41.71,0,0,1-.7,18.86c-1.69,6.48-5.77,12-9,16.1s-5.77,7.37-6.86,11.28a31.31,31.31,0,0,0-.74,12.76c.5,4.22,2.22,7.78,5.1,11.78s6.89,8.71,9,14.8a37,37,0,0,1,1.73,18.12,33.06,33.06,0,0,1-7,16.39c-3.63,4.5-7.64,7.81-10.48,12a31.48,31.48,0,0,0-5.42,14.41,29.42,29.42,0,0,1,2.07-16.26c2.2-5.3,5.94-9.55,8.21-13.9a25.33,25.33,0,0,0,3.57-13.34c0-4.73-.7-9.41-2.65-13.2s-5.09-7.17-8.69-11.62-7.23-10.42-8.36-16.8a42,42,0,0,1,.65-18.86c1.68-6.48,5.72-12,9-16.13s5.8-7.39,6.9-11.29a31.64,31.64,0,0,0,.79-12.76c-.5-4.22-2.19-7.79-5.07-11.78s-6.88-8.69-9-14.77a36.87,36.87,0,0,1-1.75-18.11,32.94,32.94,0,0,1,7-16.39c3.63-4.5,7.64-7.81,10.48-12A31.41,31.41,0,0,0,1041.09,806.83Z" style="fill:#231f20"/><path d="M1135.34,806.83a29.5,29.5,0,0,1-2.09,16.25c-2.21,5.3-6,9.54-8.23,13.89a25.4,25.4,0,0,0-3.56,13.35c0,4.73.71,9.4,2.67,13.2s5.13,7.15,8.73,11.61,7.22,10.44,8.33,16.82a41.71,41.71,0,0,1-.7,18.86c-1.7,6.48-5.78,12-9.06,16.1s-5.76,7.37-6.85,11.28a31.31,31.31,0,0,0-.75,12.76c.51,4.22,2.22,7.78,5.1,11.78s6.89,8.71,9,14.8a37,37,0,0,1,1.72,18.12,33,33,0,0,1-7,16.39c-3.62,4.5-7.63,7.81-10.47,12a31.49,31.49,0,0,0-5.43,14.41,29.51,29.51,0,0,1,2.07-16.26c2.2-5.3,5.94-9.55,8.22-13.9a25.41,25.41,0,0,0,3.56-13.34c0-4.73-.7-9.41-2.64-13.2s-5.09-7.17-8.7-11.62-7.23-10.42-8.36-16.8a42,42,0,0,1,.66-18.86c1.67-6.48,5.72-12,9-16.13s5.8-7.39,6.91-11.29a31.64,31.64,0,0,0,.79-12.76c-.5-4.22-2.19-7.79-5.08-11.78s-6.87-8.69-9-14.77a36.88,36.88,0,0,1-1.76-18.11,32.94,32.94,0,0,1,7-16.39c3.63-4.5,7.64-7.81,10.49-12A31.53,31.53,0,0,0,1135.34,806.83Z" style="fill:#231f20"/><path d="M887.93,685.79,861.7,658.18a517.33,517.33,0,0,1-76.44-104.12c-22.25-39.81-52.89-90-74.65-107.38-38.05-30.38-34-49.7-25.34-57.18,12-10.35,23.57-10.66,41.42-10.66a83.86,83.86,0,0,1,10,.6c40.4,4.86,89,63.87,101.77,75.27,4.1,3.65,8.19,7.29,12.3,10.86a10.88,10.88,0,0,0,18-8.21L874.17,125c0-22.2,12.62-40.26,34.82-40.26S943.82,102.8,943.82,125l5.44,230.81a10.88,10.88,0,1,0,21.75,0l5.43-293.06c0-22.2,12.62-40.26,34.82-40.26s34.82,18.06,34.82,40.26l5.44,291.9a10.88,10.88,0,1,0,21.75,0l5.44-240.77c0-22.19,12.62-40.25,34.82-40.25s34.82,18.06,34.82,40.25l5.44,252.5a10.88,10.88,0,1,0,21.75,0L1181,193.92c0-22.2,12.62-40.26,34.82-40.26s34.82,18.06,34.82,40.26l4.32,157.92q1.13,40.89-1.57,81.76l-4.83,73.09a511.73,511.73,0,0,1-49.66,188.55h0a97.33,97.33,0,0,1-86.54,55l-69.79.8A209.92,209.92,0,0,1,887.93,685.79Z" style="fill:#fff;stroke:#231f20;stroke-miterlimit:10;stroke-width:24px"/><g id="layer3"><path id="path916" d="M1389.27,1167.6v661.15a137.46,137.46,0,0,1-137.21,137.71H159.47A137.45,137.45,0,0,1,21.71,1829.31V1167.55Z" style="fill:#fff;stroke:#221f1f;stroke-linecap:round;stroke-linejoin:round;stroke-width:24px"/></g><path d="M1980.29,1395.63,1477.69,1379a61.24,61.24,0,0,0-58.22,37.41L1389.25,1488V1270.37l591-19.27Z" style="fill:#fff;stroke:#221f1f;stroke-linecap:round;stroke-linejoin:round;stroke-width:24px"/></g></svg>