<svg id="Layer_1" data-name="Layer 1" xmlns="http://www.w3.org/2000/svg" viewBox="0 0 1696.14 2000"><g id="layer3"><path id="path916" d="M1395.89,1127.29,1609.68,1151c83.55,9.28,84.13,137.4,9.14,164.45l-222.93,80.4Zm-1095.65,0L86.46,1151c-83.56,9.28-84.13,137.4-9.14,164.45l222.92,80.4ZM1395.89,962.61v856.88a157.28,157.28,0,0,1-157.62,157.63H457.87a157.29,157.29,0,0,1-157.63-157.63V962.61Z" style="fill:#fff;stroke:#231f20;stroke-linecap:round;stroke-linejoin:round;stroke-width:25.5585894970287px"/></g><path d="M796.67,699.36a28.94,28.94,0,0,1-2,15.94c-2.16,5.18-5.84,9.34-8.06,13.61A24.72,24.72,0,0,0,783.07,742c0,4.64.69,9.22,2.61,12.94s5,7,8.56,11.38,7.07,10.24,8.16,16.49a40.81,40.81,0,0,1-.69,18.49c-1.66,6.34-5.66,11.73-8.87,15.77s-5.65,7.23-6.72,11.06a30.79,30.79,0,0,0-.73,12.51c.5,4.13,2.17,7.62,5,11.54s6.75,8.54,8.85,14.51a36.4,36.4,0,0,1,1.69,17.76,32.46,32.46,0,0,1-6.83,16.06c-3.56,4.42-7.49,7.66-10.28,11.72a31,31,0,0,0-5.31,14.13,28.87,28.87,0,0,1,2-16c2.16-5.19,5.82-9.35,8.05-13.62a24.9,24.9,0,0,0,3.49-13.08c0-4.63-.68-9.22-2.59-12.94s-5-7-8.52-11.38-7.09-10.21-8.19-16.46a41.07,41.07,0,0,1,.64-18.49c1.64-6.35,5.6-11.78,8.85-15.82s5.69-7.24,6.77-11.06a31.13,31.13,0,0,0,.78-12.51c-.5-4.13-2.15-7.63-5-11.54S778.1,765,776,759a36.13,36.13,0,0,1-1.71-17.75,32.13,32.13,0,0,1,6.81-16.06c3.55-4.42,7.48-7.66,10.27-11.72A30.86,30.86,0,0,0,796.67,699.36Z" style="fill:#231f20"/><path d="M889,699.36a28.85,28.85,0,0,1-2,15.94c-2.16,5.18-5.83,9.34-8.06,13.61A24.9,24.9,0,0,0,875.44,742c0,4.64.7,9.22,2.62,12.94s5,7,8.56,11.38,7.07,10.24,8.16,16.49a40.81,40.81,0,0,1-.69,18.49c-1.66,6.34-5.66,11.73-8.88,15.77s-5.65,7.23-6.71,11.06a30.45,30.45,0,0,0-.73,12.51c.49,4.13,2.17,7.62,5,11.54s6.76,8.54,8.85,14.51a36.28,36.28,0,0,1,1.69,17.76,32.37,32.37,0,0,1-6.83,16.06c-3.55,4.42-7.49,7.66-10.27,11.72a31.09,31.09,0,0,0-5.32,14.13,29,29,0,0,1,2-16c2.15-5.19,5.82-9.35,8.05-13.62a24.9,24.9,0,0,0,3.49-13.08c0-4.63-.68-9.22-2.59-12.94s-5-7-8.52-11.38-7.09-10.21-8.2-16.46a41.21,41.21,0,0,1,.64-18.49c1.64-6.35,5.61-11.78,8.86-15.82s5.69-7.24,6.77-11.06a31.13,31.13,0,0,0,.77-12.51c-.49-4.13-2.14-7.63-5-11.54S870.48,765,868.36,759a36.13,36.13,0,0,1-1.72-17.75,32.14,32.14,0,0,1,6.82-16.06c3.55-4.42,7.48-7.66,10.27-11.72A30.85,30.85,0,0,0,889,699.36Z" style="fill:#231f20"/><path d="M981.42,699.36a28.85,28.85,0,0,1-2,15.94c-2.16,5.18-5.83,9.34-8.06,13.61A24.81,24.81,0,0,0,967.82,742c0,4.64.7,9.22,2.61,12.94s5,7,8.56,11.38,7.07,10.24,8.16,16.49a40.8,40.8,0,0,1-.68,18.49c-1.66,6.34-5.66,11.73-8.88,15.77s-5.65,7.23-6.72,11.06a30.79,30.79,0,0,0-.73,12.51c.5,4.13,2.18,7.62,5,11.54s6.75,8.54,8.85,14.51a36.4,36.4,0,0,1,1.69,17.76,32.37,32.37,0,0,1-6.83,16.06c-3.56,4.42-7.49,7.66-10.27,11.72a30.86,30.86,0,0,0-5.32,14.13,29,29,0,0,1,2-16c2.16-5.19,5.82-9.35,8.05-13.62a24.82,24.82,0,0,0,3.5-13.08c0-4.63-.69-9.22-2.6-12.94s-5-7-8.52-11.38-7.09-10.21-8.19-16.46a41.21,41.21,0,0,1,.64-18.49c1.64-6.35,5.61-11.78,8.85-15.82s5.69-7.24,6.77-11.06a31,31,0,0,0,.78-12.51c-.49-4.13-2.15-7.63-5-11.54S962.85,765,960.74,759A36,36,0,0,1,959,741.27a32.13,32.13,0,0,1,6.81-16.06c3.56-4.42,7.49-7.66,10.28-11.72A31,31,0,0,0,981.42,699.36Z" style="fill:#231f20"/><path d="M738.89,603.25l-22.85-24a451.07,451.07,0,0,1-66.58-90.69c-19.38-34.68-46.07-78.41-65-93.54-33.15-26.46-29.64-43.29-22.07-49.8,10.46-9,20.53-9.28,36.07-9.28a72.74,72.74,0,0,1,8.69.52c35.19,4.23,77.5,55.63,88.64,65.55,3.58,3.19,7.13,6.36,10.72,9.47a9.47,9.47,0,0,0,15.68-7.15l4.74-289.5c0-19.34,11-35.07,30.33-35.07s30.33,15.73,30.33,35.07l4.74,201a9.47,9.47,0,0,0,18.94,0L816,60.57c0-19.34,11-35.07,30.33-35.07s30.33,15.73,30.33,35.07l4.74,254.25a9.47,9.47,0,1,0,18.94,0l4.74-209.72c0-19.33,11-35.06,30.33-35.06s30.33,15.73,30.33,35.06L970.46,325a9.48,9.48,0,0,0,18.95,0l4.73-150.22c0-19.34,11-35.07,30.33-35.07s30.33,15.73,30.33,35.07l3.77,137.56q1,35.61-1.38,71.21l-4.2,63.66a445.83,445.83,0,0,1-43.26,164.24h0a84.79,84.79,0,0,1-75.39,48l-60.79.7A182.85,182.85,0,0,1,738.89,603.25Z" style="fill:#fff;stroke:#231f20;stroke-miterlimit:10;stroke-width:24px"/></svg>