<svg id="Layer_1" data-name="Layer 1" xmlns="http://www.w3.org/2000/svg" viewBox="0 0 2000 1739.97"><path d="M65.71,1338.69l51.48,321.4a72.86,72.86,0,0,0,68.65,48.37H1814.16a72.86,72.86,0,0,0,68.65-48.37l51.48-321.4" style="fill:#fff;stroke:#231f20;stroke-linecap:round;stroke-linejoin:round;stroke-width:24.265392854091175px"/><path d="M1963,1331.18,1649,1140a38,38,0,0,0-20.73-6.17H371.77A38,38,0,0,0,351,1140l-314,191.19A37.91,37.91,0,0,0,19.84,1363v8.66a37.94,37.94,0,0,0,37.94,37.94H1942.22a37.94,37.94,0,0,0,37.94-37.94V1363A37.91,37.91,0,0,0,1963,1331.18Z" style="fill:#fff;stroke:#231f20;stroke-linecap:round;stroke-linejoin:round;stroke-width:24.265392854091175px"/><line x1="117.98" y1="1342.41" x2="1882.02" y2="1342.41" style="fill:#fff;stroke:#231f20;stroke-linecap:round;stroke-linejoin:round;stroke-width:24.265392854091175px"/><line x1="379.51" y1="1190.32" x2="408.15" y2="1338.69" style="fill:#fff;stroke:#231f20;stroke-linecap:round;stroke-linejoin:round;stroke-width:24.265392854091175px"/><line x1="1620.49" y1="1190.32" x2="1591.85" y2="1338.69" style="fill:#fff;stroke:#231f20;stroke-linecap:round;stroke-linejoin:round;stroke-width:24.265392854091175px"/><polygon points="1616.89 1219.49 373.75 1219.49 180.05 1339.49 1808.42 1339.49 1616.89 1219.49" style="fill:#ead39a;stroke:#231f20;stroke-linecap:round;stroke-linejoin:round;stroke-width:14.840239350218306px"/><path d="M1411.27,1280c-54.33,11.4-117.74,12.71-177.8,9.29s-118.13-11.31-176.9-17.58c-154.65-16.51-322.52-21.54-470.28,3.9-15.61,2.68-33.73,7.82-30.55,14.84,2.2,4.86,14,7.74,25,9.35,52.33,7.63,109.44.77,163-5.12s113.43-10.47,161.83.91" style="fill:none;stroke:#231f20;stroke-linecap:round;stroke-linejoin:round;stroke-width:12.347827721058067px"/><path d="M946.85,835.85a29.52,29.52,0,0,1-2.09,16.26c-2.2,5.29-6,9.53-8.23,13.88A25.44,25.44,0,0,0,933,879.34c0,4.73.71,9.4,2.67,13.2s5.13,7.16,8.73,11.62,7.22,10.44,8.33,16.82a41.72,41.72,0,0,1-.7,18.86c-1.7,6.47-5.78,12-9.06,16.09s-5.76,7.38-6.85,11.28a31.32,31.32,0,0,0-.75,12.76c.51,4.22,2.22,7.78,5.1,11.78s6.89,8.71,9,14.81a37.11,37.11,0,0,1,1.73,18.11,33.11,33.11,0,0,1-7,16.39c-3.63,4.5-7.64,7.81-10.48,12a31.54,31.54,0,0,0-5.43,14.41,29.45,29.45,0,0,1,2.08-16.26c2.19-5.3,5.93-9.55,8.21-13.9a25.39,25.39,0,0,0,3.56-13.34c0-4.73-.69-9.41-2.64-13.2s-5.09-7.17-8.7-11.62-7.23-10.41-8.36-16.79a42,42,0,0,1,.66-18.87c1.67-6.47,5.72-12,9-16.13s5.8-7.39,6.91-11.29a31.6,31.6,0,0,0,.79-12.75c-.5-4.23-2.19-7.79-5.07-11.78s-6.88-8.69-9-14.78A36.88,36.88,0,0,1,924,878.6a32.8,32.8,0,0,1,7-16.38c3.62-4.51,7.63-7.82,10.48-12A31.48,31.48,0,0,0,946.85,835.85Z" style="fill:#231f20"/><path d="M1041.09,835.85a29.43,29.43,0,0,1-2.09,16.26c-2.2,5.29-6,9.53-8.22,13.88a25.35,25.35,0,0,0-3.56,13.35c0,4.73.71,9.4,2.67,13.2s5.12,7.16,8.73,11.62,7.21,10.44,8.32,16.82a41.72,41.72,0,0,1-.7,18.86c-1.69,6.47-5.77,12-9,16.09s-5.77,7.38-6.86,11.28a31.32,31.32,0,0,0-.74,12.76c.5,4.22,2.22,7.78,5.1,11.78s6.89,8.71,9,14.81a37,37,0,0,1,1.73,18.11,33,33,0,0,1-7,16.39c-3.63,4.5-7.64,7.81-10.48,12a31.53,31.53,0,0,0-5.42,14.41,29.44,29.44,0,0,1,2.07-16.26c2.2-5.3,5.94-9.55,8.21-13.9a25.3,25.3,0,0,0,3.57-13.34c0-4.73-.7-9.41-2.65-13.2s-5.09-7.17-8.69-11.62-7.23-10.41-8.36-16.79a42,42,0,0,1,.65-18.87c1.68-6.47,5.72-12,9-16.13s5.8-7.39,6.9-11.29a31.6,31.6,0,0,0,.79-12.75c-.5-4.23-2.19-7.79-5.07-11.78s-6.88-8.69-9-14.78a36.87,36.87,0,0,1-1.75-18.11,32.87,32.87,0,0,1,7-16.38c3.63-4.51,7.64-7.82,10.48-12A31.37,31.37,0,0,0,1041.09,835.85Z" style="fill:#231f20"/><path d="M1135.34,835.85a29.52,29.52,0,0,1-2.09,16.26c-2.21,5.29-6,9.53-8.23,13.88a25.44,25.44,0,0,0-3.56,13.35c0,4.73.71,9.4,2.67,13.2s5.13,7.16,8.73,11.62,7.22,10.44,8.33,16.82a41.72,41.72,0,0,1-.7,18.86c-1.7,6.47-5.78,12-9.06,16.09s-5.76,7.38-6.85,11.28a31.32,31.32,0,0,0-.75,12.76c.51,4.22,2.22,7.78,5.1,11.78s6.89,8.71,9,14.81a37,37,0,0,1,1.72,18.11,32.93,32.93,0,0,1-7,16.39c-3.62,4.5-7.63,7.81-10.47,12a31.54,31.54,0,0,0-5.43,14.41,29.53,29.53,0,0,1,2.07-16.26c2.2-5.3,5.94-9.55,8.22-13.9a25.39,25.39,0,0,0,3.56-13.34c0-4.73-.7-9.41-2.64-13.2s-5.09-7.17-8.7-11.62-7.23-10.41-8.36-16.79a42,42,0,0,1,.66-18.87c1.67-6.47,5.72-12,9-16.13s5.8-7.39,6.91-11.29a31.6,31.6,0,0,0,.79-12.75c-.5-4.23-2.19-7.79-5.08-11.78s-6.87-8.69-9-14.78a36.88,36.88,0,0,1-1.76-18.11,32.87,32.87,0,0,1,7-16.38c3.63-4.51,7.64-7.82,10.49-12A31.48,31.48,0,0,0,1135.34,835.85Z" style="fill:#231f20"/><path d="M887.93,694.81,861.7,667.2a517.54,517.54,0,0,1-76.44-104.11c-22.25-39.81-52.89-90-74.65-107.39-38.05-30.37-34-49.69-25.34-57.17,12-10.36,23.57-10.66,41.42-10.66a83.86,83.86,0,0,1,10,.6c40.4,4.86,89,63.87,101.77,75.26,4.1,3.65,8.19,7.29,12.3,10.86a10.88,10.88,0,0,0,18-8.21L874.17,134c0-22.19,12.62-40.26,34.82-40.26s34.83,18.07,34.83,40.26l5.44,230.82a10.88,10.88,0,0,0,21.75,0l5.43-293.07c0-22.2,12.62-40.26,34.82-40.26s34.82,18.06,34.82,40.26l5.44,291.91a10.88,10.88,0,0,0,21.75,0l5.44-240.77c0-22.2,12.62-40.26,34.82-40.26s34.82,18.06,34.82,40.26l5.44,252.5a10.88,10.88,0,0,0,21.75,0L1181,202.94c0-22.2,12.62-40.26,34.82-40.26s34.82,18.06,34.82,40.26l4.32,157.93q1.13,40.89-1.57,81.75l-4.83,73.09a511.68,511.68,0,0,1-49.66,188.55h0a97.3,97.3,0,0,1-86.54,55l-69.79.81A209.93,209.93,0,0,1,887.93,694.81Z" style="fill:#fff;stroke:#231f20;stroke-miterlimit:10;stroke-width:24px"/></svg>