<svg xmlns="http://www.w3.org/2000/svg" height="1956.32" width="1817.92"  xmlns:v="https://vecta.io/nano"><g stroke="#231f20"><ellipse ry="316.84" rx="896.96" cy="328.84" cx="908.96" fill="#fff" stroke-width="24"/><ellipse ry="179.23" rx="590.24" cy="322.62" cx="908.96" fill="#f1f2f2" stroke-width="16"/><path d="M909.58 1944.32c371.56 0 807.8-197.7 807.8-646.77 0-105.78-361.67-203-807.8-203h-1.24c-446.14 0-807.8 97.23-807.8 203 0 449.08 436.25 646.77 807.8 646.77" fill="#fff" stroke-width="24" stroke-miterlimit="10"/></g><path d="M885.36 1749.7h83.48q12.46 0 19 5.12a16.7 16.7 0 0 1 6.55 13.91 18.45 18.45 0 0 1-5.2 13.27q-5.2 5.44-15.75 5.44H855.77q-12 0-18.7-6.63a21.23 21.23 0 0 1-6.71-15.6q0-5.75 4.3-15.27a54.79 54.79 0 0 1 9.44-14.95q21.27-22.07 38.38-37.82 17.1-15.75 24.48-20.7a141.34 141.34 0 0 0 21.83-18.63 74.33 74.33 0 0 0 13.27-19.19 45.62 45.62 0 0 0 4.56-19.27 34.73 34.73 0 0 0-4.88-18.31 33.9 33.9 0 0 0-13.27-12.56 38.4 38.4 0 0 0-18.32-4.47q-20.94 0-32.94 18.4-1.6 2.4-5.36 13.1-3.75 10.7-8.47 16.47-4.73 5.76-13.83 5.76a18 18 0 0 1-13.28-5.28q-5.26-5.28-5.27-14.4a60.3 60.3 0 0 1 5-23 66.09 66.09 0 0 1 14.8-21.75q9.83-9.75 24.94-15.75 15.1-6 35.42-6 24.48 0 41.74 7.68a62.77 62.77 0 0 1 19.67 14.07 66 66 0 0 1 17.91 45.1 68.2 68.2 0 0 1-9.83 36.06q-9.84 16.23-20.07 25.43-10.23 9.2-34.3 28.86-24.07 19.68-33 30.55a89.33 89.33 0 0 0-7.92 10.36z" fill="#231f20"/><g stroke="#231f20" stroke-width="24" fill="none" stroke-linecap="round"><path d="M1665.12 1291.43c0 50.68-338.25 125.8-755.5 125.8h-1.33c-417.25 0-755.5-75.1-755.5-125.8" stroke-miterlimit="10"/><path d="M908.96 1010.13V734.67m98.18 177.28l-98.18 115.7-98.18-115.7" stroke-linejoin="round"/></g></svg>