<svg xmlns="http://www.w3.org/2000/svg" height="1956.32" width="1817.92"  xmlns:v="https://vecta.io/nano"><g stroke="#231f20"><ellipse ry="316.84" rx="896.96" cy="328.84" cx="908.96" fill="#fff" stroke-width="24"/><ellipse ry="179.23" rx="590.24" cy="322.62" cx="908.96" fill="#f1f2f2" stroke-width="16"/><path d="M909.58 1944.32c371.56 0 807.8-197.7 807.8-646.77 0-105.78-361.67-203-807.8-203h-1.24c-446.14 0-807.8 97.23-807.8 203 0 449.08 436.25 646.77 807.8 646.77" fill="#fff" stroke-width="24" stroke-miterlimit="10"/></g><path d="M901.96 1645.9q14.72 0 25.35-8.63 10.63-8.63 10.63-24.8a29.66 29.66 0 0 0-8.47-21.19q-8.5-8.87-22.87-8.87-9.76 0-16.08 2.72a25.85 25.85 0 0 0-10 7.19 54.73 54.73 0 0 0-7 11.52q-3.27 7-6 13.27a11.28 11.28 0 0 1-5.76 5.28 22.66 22.66 0 0 1-9.6 1.92q-6.4 0-11.75-5.2-5.36-5.2-5.27-13.8 0-8.33 5-17.52a64.15 64.15 0 0 1 14.71-17.51 74.13 74.13 0 0 1 24.11-13.38 96.81 96.81 0 0 1 32.14-5 89.81 89.81 0 0 1 28.31 4.24 66.2 66.2 0 0 1 22.23 12.23 52.93 52.93 0 0 1 14.23 18.56 54.15 54.15 0 0 1 4.8 22.7q0 16-7 27.43-7 11.43-19.87 22.25a88 88 0 0 1 21 15.35 57.3 57.3 0 0 1 17.19 41.74 70.62 70.62 0 0 1-5.83 28.14 72 72 0 0 1-17.19 24.23 82.17 82.17 0 0 1-27 16.63 95.24 95.24 0 0 1-34.46 6q-19.2 0-34.4-6.88a78.91 78.91 0 0 1-25-17.19 78.11 78.11 0 0 1-14.88-21.35q-5-11-5-18.23 0-9.27 6-15a20.93 20.93 0 0 1 15-5.68 15.88 15.88 0 0 1 8.63 2.64 12.52 12.52 0 0 1 5.44 6.32q8.3 22.23 17.83 33 9.52 10.77 26.8 10.8a40.32 40.32 0 0 0 19.11-4.88 39.88 39.88 0 0 0 15.19-14.47 41.06 41.06 0 0 0 6-22.23q0-18.72-10.24-29.35-10.24-10.63-28.47-10.63-3.2 0-9.9.64l-8.63.64q-8.8 0-13.6-4.4-4.8-4.4-4.8-12.23a15.26 15.26 0 0 1 5.76-12.4q5.76-4.7 17.1-4.72z" fill="#231f20"/><g stroke="#231f20" stroke-width="24" fill="none" stroke-linecap="round"><path d="M1665.12 1291.43c0 50.68-338.25 125.8-755.5 125.8h-1.33c-417.25 0-755.5-75.1-755.5-125.8" stroke-miterlimit="10"/><path d="M908.96 1010.13V734.67m98.18 177.28l-98.18 115.7-98.18-115.7" stroke-linejoin="round"/></g></svg>