<svg id="Layer_1" data-name="Layer 1" xmlns="http://www.w3.org/2000/svg" width="2000" height="1041.32" viewBox="0 0 2000 1041.32">
  <g>
    <g>
      <path d="M1000.58,997.29c416.8,0,906.17-221.76,906.17-725.53C1906.75,153.1,1501,44,1000.58,44h-1.4C498.72,44,93,153.1,93,271.76c0,503.77,489.38,725.53,906.17,725.53Z" style="fill: #fff;stroke: #3a3632;stroke-miterlimit: 10;stroke-width: 20px"/>
      <path d="M1000.58,44h-1.4C498.72,44,93,153.1,93,271.76" style="fill: #fff;stroke: #3a3632;stroke-miterlimit: 10;stroke-width: 20px"/>
      <path d="M1075.71,703.88Q1088,720.23,1088,744.47q0,33.43-24.61,53.27t-66.5,19.84A144.45,144.45,0,0,1,951,810.24q-22.05-7.35-37.48-20.58-8.44-7.33-8.45-17.27a21.26,21.26,0,0,1,4.59-13.77q4.59-5.7,10.84-5.7a16.36,16.36,0,0,1,6.62,1.29q2.92,1.29,8.08,4.22a157.9,157.9,0,0,0,29.39,15.8,82.17,82.17,0,0,0,30.49,5.51q24.25,0,36-9.73t11.75-29.58q0-19.47-12.3-28.84t-38-9.37H971.56q-8.46,0-13-5.69a20.16,20.16,0,0,1-4.6-13,19.94,19.94,0,0,1,4.6-13.23q4.59-5.5,13-5.51h14.69q50.34,0,50.34-37.84,0-17.64-10.66-27.19t-29.39-9.55q-26.82,0-57.31,21.31a90.68,90.68,0,0,1-8.08,4.22,16.36,16.36,0,0,1-6.62,1.29c-4.16,0-7.78-1.9-10.83-5.7a21.18,21.18,0,0,1-4.6-13.77,19.93,19.93,0,0,1,2-9.37,30.07,30.07,0,0,1,6.43-7.9Q933,567.4,954.48,559.86a131.83,131.83,0,0,1,43.9-7.53q38.21,0,60.8,18.73t22.6,50q-.37,21.32-11.21,37.29t-30.31,23.33Q1063.41,687.53,1075.71,703.88Z" style="fill: #3a3632"/>
      <path d="M1000.58,44h-1.4C498.72,44,93,153.1,93,271.76c0,0-52.56,66.09-47.6,88.13,83.16,369.52,1878.47,290,1911.16,0,3.35-29.67-49.82-88.13-49.82-88.13C1906.75,153.1,1501,44,1000.58,44h-1.4C498.72,44,93,153.1,93,271.76" style="fill: #e6e7e8;stroke: #3a3632;stroke-linecap: round;stroke-linejoin: round;stroke-width: 20px"/>
      <path d="M1848.11,264.86c0,56.86-379.43,141.12-847.48,141.12h-1.49c-468,0-847.49-84.26-847.49-141.12" style="fill: none;stroke: #3a3632;stroke-linecap: round;stroke-miterlimit: 10;stroke-width: 20px"/>
    </g>
    <path d="M279.7,369.06a144.8,144.8,0,0,1-33.52,67.82" style="fill: none;stroke: #3a3632;stroke-linecap: round;stroke-linejoin: round;stroke-width: 20px"/>
    <path d="M543.34,415.61a636,636,0,0,0-5.93,103.75" style="fill: none;stroke: #3a3632;stroke-linecap: round;stroke-linejoin: round;stroke-width: 20px"/>
    <path d="M1126.88,446.94a175,175,0,0,0,14.36,78.39" style="fill: none;stroke: #3a3632;stroke-linecap: round;stroke-linejoin: round;stroke-width: 20px"/>
    <path d="M1450.58,437.53q18.4,26.82,38.86,52.16" style="fill: none;stroke: #3a3632;stroke-linecap: round;stroke-linejoin: round;stroke-width: 20px"/>
    <path d="M1830.53,329.6a135.3,135.3,0,0,0,38,54.89" style="fill: none;stroke: #3a3632;stroke-linecap: round;stroke-linejoin: round;stroke-width: 20px"/>
    <path d="M347.46,188.32c-19.53,5.35-42.81,15.17-43.27,33.59,10,5.65,22.75,5.1,34.54,4.24C493,214.9,646.84,183.77,801.05,195.74l-43.59,94.34c54.75,17.6,112.83-10.7,166-31.85,90.53-36,190.34-52.84,289.17-48.77-22.15,29.21-35.48,63.8-38.2,99.11,106.85-4.29,201.36-72.29,308.29-74.8,48.33-1.14,102.75,9.85,140.63-17.28,2.89-2.07,5.87-5,5.22-8.24s-4.56-5.07-8-6.19c-90.35-29-189.89,44.14-282.36,21.21-5-1.24-10.36-3.08-12.83-7.19-3.46-5.77.35-12.67,2.32-19,6.89-22.22-12-45.66-35.67-54.42s-50.32-6.49-75.64-3.38a1412,1412,0,0,0-147.87,26.16c-48.71,11.33-100.35,25.24-148.17,11.17-6-1.76-12.64-4.9-13.43-10.51-.88-6.23,6.05-11,8-17,4.78-14.43-18-22.53-34.68-22.89A726.74,726.74,0,0,0,689.1,147.44c-1.33-7.92-.4-26.31-9.4-31-9.32-4.91-32.54,3.65-42.5,5.5q-49.46,9.17-98.58,19.73t-97.85,22.49C413.26,170.85,375.66,188.32,347.46,188.32Z" style="fill: #fff"/>
  </g>
</svg>
