<svg xmlns="http://www.w3.org/2000/svg" xmlns:xlink="http://www.w3.org/1999/xlink" height="1902" width="1902" xmlns:v="https://vecta.io/nano"><style><![CDATA[.B{stroke:#231f20}.C{fill:#fcfad8}.D{stroke-width:8}.E{stroke-linecap:round}.F{fill:#fcf7b9}.G{stroke-width:7.825}.H{stroke-width:9.846}.I{stroke-width:9.781}.J{stroke-width:7.259}]]></style><g fill="#fff" class="B"><circle cx="951" cy="951" r="939" stroke-width="24"/><g stroke-width="16"><circle cx="951" cy="951" r="847.76"/><circle cx="951" cy="951" r="366.5"/></g></g><g class="C D B"><path d="M587.7 802.45s-22.07-101.72-4.36-151.06c40.26-41.56 83.3-78 141.34-71.56 12 26.56 10.9-82.48 28.62-100.2 7.6-10.12 44.6-11.87 57.25-23.26 13.92-11.38 47.65-62.6 59-62.6 72.1 2.53 95.87 112.54 99.66 145.43 0 0 125.1-5.5 136.5 8.42 39.2 48.08-56.7 185.1-76.93 191.43 0 0-73.44 2.93-82.3 14.32-13.92 22.77-46.8 83.1-67 94.47l-171.23 9.92c-6.33-7.6-43.92-37-63.44-34.93-16.07 1.43-34.33 12.52-57.1-20.38z"/><path d="M681.33 677.9c-15.8 24.67 0 68.3 0 68.3" class="E"/><path d="M922.8 1175.93c-7.36 66.74-57.1 127.5-127.5 127.5s-118.3-58.93-127.5-127.5c-9.36-69.8 57.5-135 127.5-127.5 68.58 7.36 135.23 57.5 127.5 127.5z"/></g><g class="E F B"><path d="M809.06 1207.86L829.3 1252" class="H"/><path d="M809.06 1207.86L829.3 1252m-64.98-58l-30.72 22.8m86.46-54.67l37.55-12.27m-96.4-39.52l14.72 31.28" class="I"/></g><g class="C"><use xlink:href="#B"/><use xlink:href="#C"/><use xlink:href="#B"/><use xlink:href="#C"/><use xlink:href="#B"/><use xlink:href="#C"/><use xlink:href="#B"/><use xlink:href="#C"/><g class="B D"><use xlink:href="#B"/><use xlink:href="#C"/></g></g><g fill="none" class="G B"><use xlink:href="#B"/><use xlink:href="#C"/><use xlink:href="#B" class="E"/><use xlink:href="#C"/><use xlink:href="#B" class="E"/><use xlink:href="#C"/><use xlink:href="#B" class="E"/><use xlink:href="#C"/></g><path d="M1078.6 1110c-7.36 66.74-57.1 127.5-127.5 127.5s-118.3-58.92-127.5-127.5c-9.36-69.8 57.5-135 127.5-127.5 68.57 7.36 135.22 57.5 127.5 127.5z" class="B C D"/><g class="E B"><g class="F"><path d="M964.87 1141.93l20.24 44.16" class="H"/><path d="M964.87 1141.93l20.24 44.16m-64.97-58l-30.73 22.8m86.46-54.7l37.55-12.27M917 1044.4l14.72 31.28" class="I"/></g><path d="M1021.67 1057.6c-2.85 34.86-49.42 70.1-120.9 57.1s-126.5-54.57-143.3-94.34c-8.54-20.24 8.08-46.07 8.08-46.07" class="C D"/></g><path d="M1025.9 1044.66c-.22 35.7-44.1 60.23-115.6 47.22s-126.5-54.57-143.3-94.34c-17.08-40.48 43.7-64.33 115.6-47.22 70.42 16.76 143.52 56.9 143.28 94.34z" class="B C D"/><g class="E B"><g class="F"><path d="M917 1044.4l25.34 28.25" class="J"/><path d="M917 1044.4l25.34 28.25m-72.24-44.2l-28.72 7m81.85-14.4l36.8.13m-102.15-39.75l18.34 20.1" class="G"/></g><path d="M1315.47 1045.53c16.52 30.82-3.47 85.7-70.6 113.57s-135.87 22.8-171.55-1.5c-18.15-12.36-18.2-43.08-18.2-43.08" class="C D"/></g><path d="M1312 1032.36c19.18 30.1-4.37 74.53-71.48 102.4s-135.88 22.8-171.55-1.5c-36.3-24.73 1.8-77.75 71.5-102.4 68.24-24.13 151.44-30.06 171.54 1.5z" class="B C D"/><g class="E B"><g class="F"><path d="M1220.42 1091.22l36.6 10" class="J"/><path d="M1220.42 1091.22l36.6 10m-84.67 2.06l-20.35 21.44m61-56.48l31-19.86m-107.44 22.04l26.3 6.92" class="G"/></g><path d="M1468.34 1061.52c-3.88 34.75-51.47 68.62-122.55 53.5s-124.84-58.28-140.44-98.52c-7.94-20.48 9.43-45.82 9.43-45.82" class="C D"/></g><path d="M1473 1048.7c-1.28 35.66-45.87 58.9-117 43.8s-124.84-58.27-140.44-98.52c-15.88-41 45.58-63 116.94-43.8 69.9 18.82 141.8 61.1 140.45 98.52z" class="B C D"/><g class="E F B"><path d="M1364.13 1045.25l24.5 29" class="J"/><path d="M1364.13 1045.25l24.5 29m-70.93-46.33l-28.9 6.13m82.2-11.97l36.77 1.2m-100.9-42.73l17.74 20.62" class="G"/></g><path d="M1308.28 894.6c-7.36 66.74-57.08 127.5-127.5 127.5s-118.3-58.92-127.5-127.5c-9.36-69.8 57.5-135 127.5-127.5 68.58 7.36 135.22 57.5 127.5 127.5z" class="B C D"/><g class="E F B"><path d="M1194.54 926.54l20.24 44.15" class="H"/><path d="M1194.54 926.54l20.24 44.15m-64.98-58l-30.73 22.8m86.47-54.7l37.55-12.27M1146.7 829l14.72 31.28" class="I"/></g><path d="M1379.05 1240.28c-7.36 66.73-57.1 127.5-127.5 127.5s-118.3-58.93-127.5-127.5c-9.36-69.8 57.5-135 127.5-127.5 68.58 7.36 135.23 57.5 127.5 127.5z" class="B C D"/><g class="E B"><g class="F"><path d="M1265.3 1272.2l20.24 44.16" class="H"/><path d="M1265.3 1272.2l20.24 44.16m-64.97-58l-30.72 22.8m86.45-54.7l37.55-12.27m-96.38-39.5l14.72 31.28" class="I"/></g><path d="M982.08 1253.93l28.2 16.56m45.52 3l44.02-13.2m-42.87 36.36l36.8 21.25m-111.45-4.3l30.63-18.6" fill="none" class="G"/></g><path d="M707.5 615.17a12.9 12.9 0 0 0-4.91 17h0a12.9 12.9 0 0 0 17.55 5.46L911.9 539a11.79 11.79 0 0 1 15.88 5.07h0a11.79 11.79 0 0 1-4.93 15.8L732.1 662.12a12.91 12.91 0 0 0-5.22 17.21h0a12.9 12.9 0 0 0 17.23 5.67L938 589.14a11.79 11.79 0 0 1 15.73 5.15l.07.15a11.78 11.78 0 0 1-4.92 15.8L758.33 712.57a12.91 12.91 0 0 0-5.39 17.3h0a12.91 12.91 0 0 0 17 5.73l193.93-96.1a11.8 11.8 0 0 1 15.73 5.15h0a11.78 11.78 0 0 1-5.07 15.88L783 759.56a12.9 12.9 0 0 0-5.74 17.44h0a12.9 12.9 0 0 0 16.74 5.9l312.66-144a92.38 92.38 0 0 0 44.34-50.14l19.78-53.6a37.7 37.7 0 0 1 19-20.91L1854 196.33c29.2-14.08 43-49.05 29.42-78.48a58.9 58.9 0 0 0-81.86-26.91l-645.7 357.62a37.68 37.68 0 0 1-28 3.35l-55.14-15a92.38 92.38 0 0 0-66.52 7z" fill="#231f20"/><defs ><path id="B" d="M1163.54 1278.48c7.85 34.07-25.84 81.8-97.9 91.06s-137.1-13.64-165.15-46.45c-14.27-16.7-6.26-46.35-6.26-46.35"/><path id="C" d="M1163.66 1264.86c10.6 34.07-23.78 70.77-95.85 80s-137.1-13.65-165.14-46.45c-28.55-33.4 22.14-74.56 95.84-80 72.2-5.38 154 10.72 165.15 46.46z"/></defs></svg>