<svg id="Layer_1" data-name="Layer 1" xmlns="http://www.w3.org/2000/svg" viewBox="0 0 2000 1752.49"><path d="M1000.75,1724.2c444.53,0,966.47-236.52,966.47-773.81,0-126.56-432.71-242.88-966.47-242.88h-1.5c-533.76,0-966.47,116.32-966.47,242.88,0,537.29,521.94,773.81,966.47,773.81" style="fill:#fff;stroke:#3a3632;stroke-miterlimit:10;stroke-width:20px"/><path d="M1207.89,1172.46c83-10,167.64-25.21,244.23-54.61,26.74-10.26,53.24-22.47,75.28-38.93,7.41-5.53,19.51-13.62,23.15-21.6a26.26,26.26,0,0,0,1.73-5.13,134.12,134.12,0,0,0-21.41-21.06c-6.39-5-15.18-9.34-20.19-15.2-3.54-4.14-5.2-9.54-9-13.79-8-9-19-15.94-29.93-22.36-21.33-12.52-46.4-23.55-59.35-43.34-10-15.25-11.15-34.18-23.92-47.9-34.17-36.74-120.61-10-150.39-49.32-6.53-8.61-8.78-19.05-14.92-27.86-13.46-19.29-43.21-26.93-69.89-25.06s-51.58,11.29-76.8,18.77-52.75,13.11-78.55,7.16c-14.33-3.31-27.13-10-40.05-16.09-26.35-12.48-54.51-23.11-84.5-26.73s-62.18.37-86.89,15c-27.47,16.26-45.8,45.06-78.66,51.25-18.76,3.54-38.19-1.35-57.42-1.68-32.79-.56-65.45,13.17-84.41,35.48-23.24,27.34-28.82,67.56-64.6,82.8-13,5.52-27.89,6.61-41.84,10s-28.25,10.53-32.18,22.21c-2.18,6.51-.79,13.42-1,20.17-.41,12.64-7,25-17.58,34-11.37,9.73-24.57,10.93-10.69,25.65,13.39,14.2,31.66,25.35,49.91,34.82,64.64,33.5,141.77,50.65,215.67,63.12,101,17,204.56,23.84,307.53,23.84C1050.34,1186.09,1129.57,1181.93,1207.89,1172.46Z" style="fill:#b0e077;stroke:#3a3632;stroke-linecap:round;stroke-linejoin:round;stroke-width:20px"/><path d="M787.59,863.42l4,2.91a19.6,19.6,0,0,0,27.75-4.83l8.95-13.17a19.6,19.6,0,0,1,34.29,3.44h0a19.6,19.6,0,0,0,34.29,3.45h0a19.6,19.6,0,0,1,34.29,3.44l6.14,14.69a19.61,19.61,0,0,0,26.24,10.25l4.48-2.06" style="fill:none;stroke:#3a3632;stroke-linecap:round;stroke-miterlimit:10;stroke-width:10px;isolation:isolate;opacity:0.991999983787537"/><path d="M844.64,1012.71l4.25,2.49a19.6,19.6,0,0,0,27.13-7.58l7.59-14a19.6,19.6,0,0,1,34.46,0h0a19.59,19.59,0,0,0,34.46,0h0a19.6,19.6,0,0,1,34.46,0l7.58,14a19.6,19.6,0,0,0,27.13,7.58l4.26-2.49" style="fill:none;stroke:#3a3632;stroke-linecap:round;stroke-miterlimit:10;stroke-width:10px"/><path d="M1179.67,995.48l3.57,3.4a19.61,19.61,0,0,0,28.15-1.14L1222,985.86a19.59,19.59,0,0,1,33.54,7.91h0a19.59,19.59,0,0,0,33.54,7.91h0a19.6,19.6,0,0,1,33.54,7.92l4.17,15.36a19.6,19.6,0,0,0,24.66,13.61l4.72-1.45" style="fill:none;stroke:#3a3632;stroke-linecap:round;stroke-miterlimit:10;stroke-width:10px"/><path d="M721,1028.56l-3.75,3.21a19.6,19.6,0,0,1-28.05-2.63l-9.95-12.42a19.59,19.59,0,0,0-33.91,6.12h0a19.59,19.59,0,0,1-33.91,6.12h0a19.6,19.6,0,0,0-33.91,6.13l-5,15.13a19.59,19.59,0,0,1-25.34,12.28l-4.64-1.69" style="fill:none;stroke:#3a3632;stroke-linecap:round;stroke-miterlimit:10;stroke-width:10px"/><path d="M1386.44,983.41l1.54,4.69a19.58,19.58,0,0,0,25.32,12.32l15-5.44a19.6,19.6,0,0,1,25.79,22.86h0" style="fill:none;stroke:#3a3632;stroke-linecap:round;stroke-miterlimit:10;stroke-width:10px"/><path d="M612.48,966.81h0a19.6,19.6,0,0,0,27.83-20.32h0a19.6,19.6,0,0,1,27.83-20.33L682.52,933a19.59,19.59,0,0,0,26.37-9.88l2-4.52" style="fill:none;stroke:#3a3632;stroke-linecap:round;stroke-miterlimit:10;stroke-width:10px"/><path d="M95.32,943c0,60.65,404.68,150.51,903.89,150.51h1.59c499.2,0,903.88-89.86,903.88-150.51,0,0,32.2,740.9-904.68,740.9S95.32,943,95.32,943Z" style="fill:#fff"/><path d="M1103,1508.64q0,20.77-23.51,20.77H947.06q-23.89,0-23.9-20.77,0-20,23.9-20h40.76V1310l-37.62,23.12q-5.49,3.15-9.8,3.14-8.22,0-13.91-7.06a24.35,24.35,0,0,1-5.68-15.67q0-11.36,10.19-17.63l60.73-37.62q11.76-7.05,22.34-7,11,0,17.63,6.66t6.66,18.42v212.37h41.15Q1103,1488.65,1103,1508.64Z" style="fill:#3a3632"/><path d="M1904.68,943c0,60.65-404.68,150.51-903.88,150.51h-1.59C500,1093.54,95.32,1003.68,95.32,943" style="fill:none;stroke:#3a3632;stroke-linecap:round;stroke-miterlimit:10;stroke-width:20px"/><path d="M997.47,909a10.48,10.48,0,0,0,4.53,13.67h0a10.48,10.48,0,0,0,14.28-4.4l83.27-154.3a9.59,9.59,0,0,1,13-3.9h0a9.59,9.59,0,0,1,4,12.86l-80.94,156.24a10.49,10.49,0,0,0,4.41,13.94h0a10.49,10.49,0,0,0,14.14-4.13l86-153.36a9.58,9.58,0,0,1,12.91-3.78l.12.07a9.59,9.59,0,0,1,4,12.86l-80.73,156.17a10.49,10.49,0,0,0,4.33,14.08h0a10.48,10.48,0,0,0,14.06-4l85.89-153.57a9.6,9.6,0,0,1,12.92-3.77h0a9.58,9.58,0,0,1,3.89,13l-83,154.45a10.49,10.49,0,0,0,4.19,14.35h0a10.48,10.48,0,0,0,13.91-3.75L1276,741.43a75.08,75.08,0,0,0,6.7-54l-11.37-45a30.59,30.59,0,0,1,3.13-22.75l299.39-518.49c13.12-22.87,6.32-52.68-16.34-66.14a47.87,47.87,0,0,0-67.26,19.57L1221.59,591.19a30.65,30.65,0,0,1-17.27,15.14l-43.86,15.3a75.07,75.07,0,0,0-41.37,35.29Z" style="fill:#e6e7e8;stroke:#3a3632;stroke-miterlimit:10;stroke-width:10px"/></svg>