<svg id="Layer_1" data-name="Layer 1" xmlns="http://www.w3.org/2000/svg" width="2000" height="1572.87" viewBox="0 0 2000 1572.87">
  <g>
    <path d="M1362.79,505.92s-299.37,110.4-585.07,175.72c-333,76.13-662.93,99.26-687.23,23.63C74.35,655,1259.92,229.82,1259.92,229.82Z" style="fill: #e6e7e8;stroke: #3a3632;stroke-miterlimit: 10;stroke-width: 20px"/>
    <path d="M1830.34,215.91l-442.6,87.5a43.61,43.61,0,0,0-34.67,36.31h0a43.62,43.62,0,0,1-31.89,35.66l-6.39,1.71L1259,227.26l42.82-15.95,17-6.33L1751.06,43.92c13.54-5.05,29.09,3.14,34.73,18.28l60.48,116.62C1852.18,194.67,1844.87,211.68,1830.34,215.91Z" style="fill: #3a3632"/>
  </g>
  <g>
    <g>
      <path d="M104.44,1468.79h1794c56.48,0,88.59-45.56,72.24-100.08l-93-309.81c-13-43.18-62.27-77.25-110.48-77.25H235.65c-48.22,0-97.53,34.07-110.49,77.25l-93,309.81C15.85,1423.23,48,1468.79,104.44,1468.79Z" style="fill: #fff;stroke: #3a3632;stroke-miterlimit: 10;stroke-width: 24px"/>
      <path d="M184.26,1312.91c26.52,0,53-20.54,59.06-45.53l35.81-147.8c5.41-22.33-10.19-40.19-34.76-40.19s-49.37,17.86-55.45,40.19l-40.29,147.8C141.82,1292.37,157.73,1312.91,184.26,1312.91Z" style="fill: #fff;stroke: #3a3632;stroke-miterlimit: 10;stroke-width: 24px"/>
    </g>
    <path d="M707,1082.6q73.21-3,146.51-3.08c38.27,0,78.17,1.24,116.45,1.9,55.69.88,111.28.67,166.79-2.21C1206,1076,1275.06,1067,1344.67,1064a217.9,217.9,0,0,1,26.66,1.14,203.88,203.88,0,0,1,26.71,4c8.65,1.88,17.8,4.45,26.47,6.06,6.56,1.28,13.09,2,19.64,2.8,19.53,2.33,39,5.31,58.33,8.28-21.57-2.64-43.42-2.62-65-1.17a126,126,0,0,0-13,1.66c-10.8,2-21.4,5.69-32,8.56a417.58,417.58,0,0,1-57.13,11.09c-77.63,10.17-155.26,26.54-233.78,32-48.4,3.74-97.06,4.69-145.43,4A1558.15,1558.15,0,0,1,799,1133c-26.42-3-53-5.26-79-11.77-6.52-1.66-13-2.84-19.42-4.14Z" style="fill: #518737;stroke: #3a3632;stroke-linecap: round;stroke-linejoin: round;stroke-width: 10px"/>
    <path d="M692,1207.51a625.57,625.57,0,0,1,62.78-3.45c41.86.29,83.29,6.24,125.22,9.33,114.22,9.3,229.51,15.27,343.9,22.47a256.27,256.27,0,0,0,32.65-1.27c7.36-.72,14.76-2.15,22.07-3.41,10.84-2.09,21.86-2.13,32.76-1.75,14.43.34,28.84,1,43.15,2.45-14.26-1.9-28.42-4.64-42.57-7.54-10.7-2.1-21.43-4.63-31.56-9-6.86-2.84-13.77-5.91-20.81-8.2-10.42-3.27-20.94-6.4-31.7-8.27-99.74-15.1-199.93-29-300.44-37.71-51-4.2-102.24-9.57-153.62-5-30.51,2.9-63,8.64-89.24,25.06Z" style="fill: #518737;stroke: #3a3632;stroke-linecap: round;stroke-linejoin: round;stroke-width: 10px"/>
    <path d="M688.9,1230c44.53-6.78,90.21-2.31,135,.23,59.94,4,119.37,12.35,179.17,16.72,29.17,2.14,58.79,3.52,88,3.55,11.5.06,25.92-.21,37.47-.68,64.44-1.51,127.9-18.26,194.33-18.65,6.62-.14,13.33-.16,19.94.24a319.65,319.65,0,0,1,32.77,4.16c10.87,1.89,21.84,5.34,32.69,7.45,10.78,2.28,21.83,2.25,32.7,2.14q13-.14,26-1c8.67-.59,17.34-1.37,25.93-2.64-8.56,1.46-17.08,3.2-25.62,4.9-15.81,3.48-36.14,6.74-51.4,11.15-8.66,2.61-17.19,6.23-25.75,9.27a175,175,0,0,1-19.47,5.74,269.27,269.27,0,0,1-38.55,6.93c-6.2.64-12.76,1.29-18.87,2.07-48.42,5.5-95.59,21-146.15,28.75-10.95,1.7-22.72,3.32-33.73,4.46-53.67,5.81-107.72,5.21-161.42,1.27-70-4.76-139.22-16.39-207.65-31.27-12-2.51-26.11-5.43-38-8.57-14.76-3.78-29.43-8.13-43.78-13.33Z" style="fill: #518737;stroke: #3a3632;stroke-linecap: round;stroke-linejoin: round;stroke-width: 10px"/>
    <path d="M762.06,1348.6c10.84.14,21.74.41,32.56,1,17.71.75,35.91,2.09,53.67,2.62,79.42,1.86,160.31,4.63,239.64,8,69.22,2.85,138.76,6.33,208.09,8.37a235,235,0,0,1,32.91,2.81c3.67.56,7.33,1.1,11,1.77,7.37,1.35,14.72,3.35,22,5.18,10.81,2.93,22,3.94,33,4.53,14.66,1,29.33,1.55,44,1.44-18.3.73-36.62,2.54-54.85,4.57a135.3,135.3,0,0,0-21.92,4.48c-7.25,2-14.56,4.3-21.92,5.79-5.47,1.1-11,2.05-16.48,2.94-12.34,2.14-26,2.39-38.5,3-99.07,4.31-198.38,6.83-297.51,3.81-40.66-1.17-81.31-2.67-121.74-8.11-14.61-1.9-29.94-4.42-44.43-7.24-22.18-4.18-44.44-10-65.17-19.33Z" style="fill: #518737;stroke: #3a3632;stroke-linecap: round;stroke-linejoin: round;stroke-width: 10px"/>
    <path d="M786.59,1032.75c6.89-.19,13.78-.31,20.63-.32,17.73-.16,36,.25,53.74-.12,79.42-2.21,160.33-3.58,239.74-4.29,69.27-.69,138.9-.77,208.24-2.28a235.09,235.09,0,0,1,33,1.13c3.69.37,7.38.72,11.07,1.2,7.43,1,14.87,2.6,22.25,4,10.94,2.37,22.12,2.81,33.2,2.83,14.7.21,29.37,0,44-.8-18.24,1.66-36.44,4.41-54.55,7.36a136.46,136.46,0,0,0-21.66,5.59c-7.13,2.43-14.31,5-21.59,6.91-5.41,1.38-10.85,2.61-16.31,3.78-12.21,2.76-25.8,3.72-38.3,4.94-98.71,9.37-197.77,17-296.93,19-40.66.91-81.34,1.49-122-1.88-14.69-1.14-30.13-2.88-44.74-4.95-18.63-2.53-37.37-6.23-55.35-12.14Z" style="fill: #518737;stroke: #3a3632;stroke-linecap: round;stroke-linejoin: round;stroke-width: 10px"/>
    <path d="M724.58,1171c4.42,1.22,8.9,2.28,13.4,3.21a281.69,281.69,0,0,0,38.37,5.2c65.62,3.73,131-3.17,196.32-3,39.9.07,81.94,2.39,121.87,3.71,82.33,2.71,165,3.75,247.44,4.87a213.88,213.88,0,0,0,24.88-1.87c4.17-.52,8.33-1,12.49-1.69,8.4-1.33,16.79-3.55,25.1-5.53,12.26-3.2,24.9-4,37.41-4.32,16.52-.57,33.05-.88,49.55-.18-16.47-1.22-32.85-3.46-49.2-5.94-8.18-1.32-16.37-2.37-24.5-4.69s-16.25-5.55-24.28-8.43c-11.91-4.32-24.23-7.21-36.58-9.81a239.94,239.94,0,0,0-24.58-3.37c-94.39-9.39-188.88-19.73-283.48-26.39-27.15-1.87-54.9-3.3-82.1-3.35-40.17-.24-80.44,3.8-119.83,9.68-20.38,3-40.22,6.17-60.38,8.91q-13.44,1.85-26.86,4c-6.6,1-23.15,4.12-37.12,6.93Z" style="fill: #629e42;stroke: #3a3632;stroke-linecap: round;stroke-linejoin: round;stroke-width: 10px"/>
    <path d="M724.52,1247.71c19.93-2.42,39.84-3.7,60-4.21,41.87-.44,83.39,4.81,125.36,7.18,114.37,7.34,229.75,11.32,344.25,16.55a258,258,0,0,0,32.62-1.83c7.35-.86,14.72-2.42,22-3.81,10.8-2.28,21.82-2.51,32.72-2.32,14.44.09,28.85.52,43.19,1.71-14.29-1.66-28.5-4.16-42.69-6.82-10.74-1.92-21.51-4.27-31.71-8.52-6.91-2.73-13.87-5.69-21-7.86-10.47-3.09-21-6-31.84-7.74-100-13.4-200.39-25.59-301-32.58-51.1-3.33-102.39-7.81-153.69-2.3-29.91,3.37-61.67,9.52-87.41,25.77Z" style="fill: #629e42;stroke: #3a3632;stroke-linecap: round;stroke-linejoin: round;stroke-width: 10px"/>
    <path d="M725.51,1310.85C758.66,1323.21,794,1329,828.58,1336c49.22,9.27,99.52,14.85,149.36,19.79,89.15,9.07,179,13.25,268.52,16.56a204,204,0,0,0,21.56,0c5.43-.31,10.86-.89,16.27-1.47,9.2-.87,18.26-2.95,27.28-5,10.69-2.55,21.65-3.09,32.5-3.21,14.36-.38,28.7-.51,43,.16-14.26-1.14-28.47-3.09-42.65-5.29-10.73-1.61-21.49-3.65-31.72-7.64-6.92-2.54-13.89-5.31-21-7.37-5.24-1.49-10.52-2.83-15.8-4.1a212.67,212.67,0,0,0-26.5-4.44c-81.43-9.56-162.89-21.1-244.24-30.83-70.73-8.69-141.71-17.5-213-20.66-21.58-1.38-43.18-1.83-64.81,0Z" style="fill: #629e42;stroke: #3a3632;stroke-linecap: round;stroke-linejoin: round;stroke-width: 10px"/>
    <g>
      <g>
        <path d="M582.12,1078.56a3.74,3.74,0,0,1-2.12.89l-2.16.42c-7.18,1.37-14.52,2.41-21.78,3.16-5.91.52-11.78.86-17.73,1.33a36.21,36.21,0,0,1-17.87-3.74c-2.88-1.52-6.15-3.64-7.19-6.94a.55.55,0,0,1,.79-.62c2.76.91,5.37.67,8.17.71,5.54,0,11.11-.3,16.64.7,11.18,2,23.13,2.21,34.48,3.11l4.36.28,2.19.12a4,4,0,0,1,2.22.58Z" style="fill: #3a3632"/>
        <line x1="574.73" y1="1068.22" x2="571.78" y2="1088.46" style="fill: #009444;stroke: #3a3632;stroke-linecap: round;stroke-linejoin: round;stroke-width: 10px"/>
      </g>
      <path d="M611.76,1099.76q-5.41-1.79-10.73-3.84a165.52,165.52,0,0,1-21-9.56,7.88,7.88,0,0,1,3.07-14.71h0c7.45-.9,14.8-1.15,22.23-1.52q6-.23,11.93-.39Z" style="fill: #518737;stroke: #3a3632;stroke-linecap: round;stroke-linejoin: round;stroke-width: 10px"/>
    </g>
    <g>
      <path d="M552.37,1134.4c-11.25-1.17-22.25-2.72-32.88-7.76.09-3.2,1.94-19.56,2.23-22.33h0q16.83-2.47,33.71-4.8Z" style="fill: #518737;stroke: #3a3632;stroke-linecap: round;stroke-linejoin: round;stroke-width: 10px"/>
      <g>
        <path d="M520.26,1114.86a3.51,3.51,0,0,1-2,.83l-2,.36c-2.53.48-9.53,1.76-12.16,2.24q-8.07,1.44-16.1,3c-5.29,1-10.42,3-15.81,3.22a160.42,160.42,0,0,1-16.42.06.56.56,0,0,1-.44-.88,20.61,20.61,0,0,1,7-5.77,36.69,36.69,0,0,1,16.36-4.51c2.82,0,5.62,0,8.39-.07a253.53,253.53,0,0,1,29,.75l2.07.17a3.53,3.53,0,0,1,2.08.65Z" style="fill: #3a3632"/>
        <line x1="512.41" y1="1104.87" x2="510.38" y2="1125.22" style="fill: #009444;stroke: #3a3632;stroke-linecap: round;stroke-linejoin: round;stroke-width: 10px"/>
      </g>
    </g>
    <g>
      <g>
        <path d="M573.15,1160.65a3.51,3.51,0,0,1-2.09.71l-2.1.23a193.38,193.38,0,0,1-21.11,1c-2.83,0-5.67-.16-8.51-.31-5.73-.35-11.67-.11-17.14-2.35s-11.63-5.74-13.93-11.59a.56.56,0,0,1,.7-.72,67.13,67.13,0,0,0,8.1,1.53c4.69.71,11,1.41,15.51,3A107.74,107.74,0,0,0,548.5,1156c6.74,1.33,13.7,2.46,20.51,3.57l2.07.31a3.65,3.65,0,0,1,2.07.76Z" style="fill: #3a3632"/>
        <line x1="565.48" y1="1170.78" x2="563.09" y2="1150.47" style="fill: #009444;stroke: #3a3632;stroke-linecap: round;stroke-linejoin: round;stroke-width: 10px"/>
      </g>
      <path d="M596.64,1141.63c-9.27,1.87-17.39,3.61-20.71,4.56a10.14,10.14,0,0,0-1.39,18.92h0a166.51,166.51,0,0,0,24.17,8.57Z" style="fill: #629e42;stroke: #3a3632;stroke-linecap: round;stroke-linejoin: round;stroke-width: 10px"/>
    </g>
    <g>
      <g>
        <path d="M530.66,1205.74a3.51,3.51,0,0,1-1.91,1.12l-2,.64a195.21,195.21,0,0,1-20.48,5.26c-2.78.51-5.57,1-8.39,1.4-5.69.81-11.45,2.23-17.26,1.14s-12.54-3.29-16-8.56a.56.56,0,0,1,.54-.84,65.59,65.59,0,0,0,8.25-.13c4.73-.24,11.1-.84,15.79-.21a108.93,108.93,0,0,0,16.36.59c6.88-.06,13.92-.34,20.81-.63l2.1-.11a3.7,3.7,0,0,1,2.18.33Z" style="fill: #3a3632"/>
        <line x1="525.18" y1="1217.21" x2="518.76" y2="1197.79" style="fill: #009444;stroke: #3a3632;stroke-linecap: round;stroke-linejoin: round;stroke-width: 10px"/>
      </g>
      <path d="M546.68,1182.83a108.12,108.12,0,0,0-19.61,15.76,8.45,8.45,0,0,0,7.81,14h0c7-1.15,14-2.13,21-3Z" style="fill: #629e42;stroke: #3a3632;stroke-linecap: round;stroke-linejoin: round;stroke-width: 10px"/>
    </g>
    <g>
      <g>
        <path d="M487.52,1279.31a3.5,3.5,0,0,1-1.93,1.08l-2,.61a193.16,193.16,0,0,1-20.56,4.89c-2.79.47-5.59.89-8.42,1.25-5.7.71-11.49,2-17.28.85s-12.48-3.5-15.82-8.82a.55.55,0,0,1,.55-.83,68.73,68.73,0,0,0,8.25,0c4.74-.17,11.12-.65,15.79.06a108.79,108.79,0,0,0,16.35.87c6.88.07,13.92-.09,20.82-.26l2.1-.07a3.68,3.68,0,0,1,2.17.37Z" style="fill: #3a3632"/>
        <line x1="481.85" y1="1290.65" x2="475.75" y2="1271.18" style="fill: #009444;stroke: #3a3632;stroke-linecap: round;stroke-linejoin: round;stroke-width: 10px"/>
      </g>
      <path d="M507.19,1256a107.28,107.28,0,0,0-18.46,14.51,8.43,8.43,0,0,0,7.57,14.11h0q9.17-1.33,18.3-2.32Z" style="fill: #518737;stroke: #3a3632;stroke-linecap: round;stroke-linejoin: round;stroke-width: 10px"/>
    </g>
    <g>
      <g>
        <path d="M546.73,1305.59a3.69,3.69,0,0,1-2.12.59l-2.09.15c-6.88.57-13.9,1.16-20.73,2a107.25,107.25,0,0,0-16.17,2.61c-4.55,1.2-11,1.4-15.7,1.73a68.42,68.42,0,0,0-8.19.9.57.57,0,0,1-.65-.77c2.76-5.65,9.14-8.72,14.8-10.47s11.53-1.1,17.27-1c2.85.07,5.68.18,8.51.35a194.33,194.33,0,0,1,21,2.69l2.08.38a3.48,3.48,0,0,1,2,.88Z" style="fill: #3a3632"/>
        <line x1="539.88" y1="1294.88" x2="535.9" y2="1314.94" style="fill: #009444;stroke: #3a3632;stroke-linecap: round;stroke-linejoin: round;stroke-width: 10px"/>
      </g>
      <path d="M568.45,1325.66q-4.83-1.76-9.62-3.64c-3.26-1.31-6.47-2.63-9.66-4.19-8.84-4.33-7.92-17.58,1.9-20.3h0c7.87-2,15.79-3.58,23.75-4.79Z" style="fill: #518737;stroke: #3a3632;stroke-linecap: round;stroke-linejoin: round;stroke-width: 10px"/>
    </g>
    <g>
      <g>
        <path d="M565.1,1253.9a3.56,3.56,0,0,1-2.19.33l-2.1-.15a194.1,194.1,0,0,1-21-2.73q-4.17-.84-8.32-1.82c-5.58-1.37-11.46-2.18-16.45-5.36s-10.42-7.71-11.65-13.88a.56.56,0,0,1,.82-.58,68.22,68.22,0,0,0,7.7,3c4.48,1.52,10.62,3.34,14.74,5.66a106.44,106.44,0,0,0,15,6.63c6.41,2.51,13.05,4.86,19.55,7.16l2,.67a3.69,3.69,0,0,1,1.9,1.12Z" style="fill: #3a3632"/>
        <line x1="555.75" y1="1262.51" x2="559.04" y2="1242.26" style="fill: #009444;stroke: #3a3632;stroke-linecap: round;stroke-linejoin: round;stroke-width: 10px"/>
      </g>
      <path d="M592,1243.57a201.9,201.9,0,0,0-22.05,2.9,8.49,8.49,0,0,0-2.27,15.88h0A239.88,239.88,0,0,0,590,1272Z" style="fill: #629e42;stroke: #3a3632;stroke-linecap: round;stroke-linejoin: round;stroke-width: 10px"/>
    </g>
    <g>
      <g>
        <path d="M519,1350.3a3.85,3.85,0,0,1-2.17.78l-2.17.3c-7.24,1-14.63,1.67-21.92,2-5.92.22-11.81.26-17.77.43a36,36,0,0,1-17.65-4.65c-2.81-1.66-6-4-6.83-7.3a.54.54,0,0,1,.81-.58c2.72,1,5.34,1,8.13,1.13,5.53.26,11.11.27,16.58,1.55,11.07,2.57,23,3.39,34.28,4.86l4.34.51,2.18.24a3.91,3.91,0,0,1,2.19.69Z" style="fill: #3a3632"/>
        <line x1="512.16" y1="1339.59" x2="508.19" y2="1359.65" style="fill: #009444;stroke: #3a3632;stroke-linecap: round;stroke-linejoin: round;stroke-width: 10px"/>
      </g>
      <path d="M537,1368.6A165.13,165.13,0,0,1,516.57,1358a7.88,7.88,0,0,1,3.82-14.54h0c7.48-.51,14.84-.38,22.28-.37Z" style="fill: #518737;stroke: #3a3632;stroke-linecap: round;stroke-linejoin: round;stroke-width: 10px"/>
    </g>
  </g>
</svg>
