<svg xmlns="http://www.w3.org/2000/svg" height="1240.14" width="1971.021"  xmlns:v="https://vecta.io/nano"><style><![CDATA[.B{fill:#1c7d3e}.C{fill:#f3f9f1}.D{stroke-linecap:round}.E{stroke-width:24}.F{opacity:.998}.G{stroke-miterlimit:10}.H{stroke-linejoin:round}]]></style><g fill="#fff" stroke="#231f20" class="E G"><path d="M88.52 1228.14h1794c56.48 0 88.6-45.57 72.24-100.1l-93-309.8c-13-43.17-62.27-77.25-110.48-77.25H219.73c-48.22 0-97.53 34.08-110.5 77.25l-93 309.8c-16.3 54.52 15.84 100.1 72.28 100.1z"/><path d="M168.34 1072.26c26.52 0 53-20.55 59.06-45.54l35.8-147.8c5.4-22.34-10.2-40.2-34.76-40.2s-49.37 17.85-55.45 40.2l-40.3 147.8c-6.8 25 9.1 45.54 35.63 45.54z"/></g><g class="H"><path d="M311.08 324.68l-42.57 59.64 297.83 241.24 65.54-53.72-78.73-91.9L308 42.1 238.2 76.3z" stroke="#080505" class="B E F"/><g stroke="#010101"><path d="M566.32 625.56l184.32 225.88c41.48 50.84 118-9.1 72.77-60.77L631.88 571.84z" class="C E F"/><g stroke-width="8" class="D"><path d="M398.57 421.32L98.5 75.57 174.63 12l191.12 232.28" class="B F"/><path d="M805.2 860.22l7.7 26.23m5.78-32.17l22.5 25.23m-14.48-36.9l26.95 10.16" class="F" fill="none"/></g></g></g><path d="M1540.92 576.5s-254.73 164.12-506.1 283.64c-293 139.3-594 228.85-632.2 163.75-25.33-43.24 985.94-682.1 985.94-682.1z" fill="#d1d3d4" stroke="#231f20" class="E G"/><path d="M1914.5 211.15l-392.24 172.47a41.42 41.42 0 0 0-24.65 40.81h0a41.4 41.4 0 0 1-22.19 39.64l-5.58 2.9-82.67-127.37L1805.5 68.08c11.5-7.47 27.62-3.1 36 9.78l80.14 95.62c8.72 13.47 5.45 30.75-7.14 37.67z" fill="#231f20"/><g stroke="#010101" stroke-width="8" class="H"><path d="M1011.9 1005.67l27-9.34c11.82-13.87-6.56-23.7-6.56-23.7l-27.9 8.58" class="B D"/><path d="M984.13 1000.9c-2.1-6.8 6.53-16.5 19.84-19.55 9.24-2.1 14.82 2.2 16.9 9s-1.86 12.56-9.36 15.6c-12.65 5.1-25.3 1.74-27.4-5.04z" class="C"/><path d="M992.27 953.77l-26.57-10.53c-18 2.82-10.48 22.26-10.48 22.26l26.75 11.68" class="B D"/><path d="M1010.23 975.5c-2.84 6.5-15.72 8.26-27.8 1.9-8.38-4.42-9.82-11.32-7-17.82s9.6-8.3 17.26-5.73c12.95 4.36 20.38 15.16 17.53 21.66z" class="C"/><path d="M1046.47 994.56l-12.9 25.5c1.16 18.18 21.2 12.46 21.2 12.46l14.07-25.57" class="B D"/><path d="M1069.74 978.67c6.22 3.42 6.8 16.4-.65 27.84-5.17 7.95-12.18 8.74-18.4 5.32s-7.4-10.3-4.13-17.7c5.5-12.48 16.95-18.87 23.17-15.45z" class="C"/><path d="M1062.78 966.77l21.3 19.07c17.86 3.63 17.56-17.22 17.56-17.22l-21-20.25" class="B D"/><path d="M1053.5 940.16c4.92-5.1 17.6-2.28 26.7 7.9 6.32 7.06 5.26 14 .34 19.14s-11.88 4.45-18.17-.64c-10.6-8.58-13.8-21.28-8.88-26.4z" class="C"/><path d="M1012 963l23.8 15.83c18.2 1 14.9-19.58 14.9-19.58l-23.73-17" class="B D"/><path d="M998.96 938.02c4.13-5.77 17.1-4.8 27.57 3.94 7.27 6.07 7.24 13.12 3.1 18.9s-11.1 6.12-18.07 2c-11.74-6.96-16.74-19.07-12.6-24.83z" class="C"/><path d="M877.4 981.7l28.38-3.4c14.5-11-1.4-24.56-1.4-24.56l-29.1 2.48" class="B D"/><path d="M851.28 971.15c-.6-7.07 9.88-14.75 23.53-14.9 9.48-.1 14 5.28 14.62 12.35s-4.48 11.88-12.44 13.25c-13.45 2.33-25.1-3.63-25.7-10.7z" class="C"/><path d="M963.08 992.98l-7.87-27.48c-13.2-12.55-24 5.27-24 5.27l7.06 28.32" class="B D"/><path d="M956.82 1020.46c-6.9 1.7-16.13-7.42-18.45-20.87-1.6-9.34 3-14.7 9.88-16.4s12.43 2.54 15.06 10.18c4.43 12.9.4 25.37-6.5 27.1z" class="C"/><path d="M1125.9 1011.1l26.8-10c11.5-14.14-7.1-23.55-7.1-23.55l-27.7 9.2" class="B D"/><path d="M1098.08 1006.96c-2.24-6.74 6.16-16.65 19.4-20 9.2-2.32 14.87 1.85 17.1 8.6s-1.57 12.6-9 15.8c-12.57 5.4-25.3 2.34-27.5-4.4z" class="C"/><path d="M1098.08 981.38l-28.56 1c-15.38 9.78-.7 24.6-.7 24.6h29.26" class="B D"/><path d="M1123.25 994.1c0 7.1-11.1 13.85-24.7 12.85-9.45-.7-13.53-6.45-13.53-13.55s5.48-11.45 13.53-12.15c13.6-1.18 24.7 5.75 24.7 12.85z" class="C"/><path d="M1045.97 908.37l-26.6 10.47c-11.22 14.36 7.56 23.4 7.56 23.4l27.5-9.76" class="B D"/><path d="M1073.93 911.97c2.37 6.68-5.83 16.76-19 20.36-9.14 2.5-14.9-1.56-17.27-8.25s1.33-12.62 8.7-16c12.42-5.62 25.2-2.8 27.58 3.9z" class="C"/><path d="M859.08 1003.65l18.3-22c3-18-17.86-16.9-17.86-16.9l-19.44 21.8" class="B D"/><path d="M832.86 1013.9c-5.3-4.73-2.93-17.5 6.9-27 6.82-6.58 13.83-5.8 19.12-1.06s4.9 11.72 0 18.2c-8.14 10.94-20.72 14.6-26 9.87z" class="C"/><path d="M1230.08 947.7l-26.4 11.13c-10.9 14.6 8.1 23.23 8.1 23.23l27.3-10.43" class="B D"/><path d="M1258.08 950.66c2.52 6.63-5.44 16.9-18.52 20.8-9.08 2.7-14.94-1.22-17.46-7.85s1-12.65 8.32-16.17c12.26-5.94 25.1-3.4 27.66 3.22z" class="C"/><path d="M1196.27 961.05l11.2-26.3c-2.35-18.07-22-11.05-22-11.05l-12.37 26.44" class="B D"/><path d="M1174.08 978.44c-6.43-3-7.84-15.93-1.16-27.83 4.63-8.27 11.57-9.52 18-6.5s8.05 9.8 5.27 17.4c-4.7 12.8-15.68 19.94-22.1 16.94z" class="C"/><path d="M1181.8 989.84l-22.46-17.67c-18.06-2.44-16.4 18.34-16.4 18.34l22.3 18.83" class="B D"/><path d="M1192.8 1015.84c-4.58 5.43-17.42 3.43-27.17-6.12-6.77-6.63-6.17-13.66-1.6-19.08s11.56-5.22 18.17-.56c11.15 7.84 15.17 20.3 10.6 25.76z" class="C"/><path d="M1232.74 990.3l-24.78-14.25c-18.23.2-13.58 20.52-13.58 20.52l24.8 15.4" class="B D"/><path d="M1247.37 1014.37c-3.74 6-16.74 5.9-27.77-2.13-7.65-5.6-8.08-12.62-4.33-18.65s10.7-6.83 17.9-3.17c12.17 6.17 17.9 17.93 14.2 23.95z" class="C"/><path d="M1115.9 949.75l-26.08 11.7c-10.55 14.86 8.62 23 8.62 23l27-11" class="B D"/><path d="M1144 952.06c2.68 6.57-5.05 17-18 21.22-9 2.9-15-.88-17.64-7.45s.75-12.67 8-16.35c12.06-6.22 24.97-4 27.64 2.58z" class="C"/><path d="M1145.6 977.6l28.44-2.86c14.7-10.77-.9-24.58-.9-24.58l-29.13 1.9" class="B D"/><path d="M1119.68 966.53c-.47-7.08 10.17-14.55 23.8-14.44 9.48.08 13.92 5.55 14.4 12.64s-4.7 11.78-12.7 13c-13.5 2.1-25.03-4.12-25.5-11.2z" class="C"/></g></svg>