<svg id="Layer_1" data-name="Layer 1" xmlns="http://www.w3.org/2000/svg" xmlns:xlink="http://www.w3.org/1999/xlink" viewBox="0 0 2000 1217.71"><defs><linearGradient id="linear-gradient" x1="19732.43" y1="-8936.44" x2="19732.43" y2="-9326.51" gradientTransform="translate(-5813.61 -19997.36) rotate(97.9)" gradientUnits="userSpaceOnUse"><stop offset="0" stop-color="#81be66"/><stop offset="1" stop-color="#006838"/></linearGradient><linearGradient id="linear-gradient-2" x1="19706.16" y1="-9106.34" x2="19685.08" y2="-9226.33" gradientTransform="translate(-5813.61 -19997.36) rotate(97.9)" gradientUnits="userSpaceOnUse"><stop offset="0" stop-color="#6d9957"/><stop offset="1" stop-color="#006838"/></linearGradient><linearGradient id="linear-gradient-3" x1="19665.9" y1="-9791.13" x2="19665.9" y2="-10063.93" gradientTransform="translate(-8987.18 -18559.37) rotate(89.09)" gradientUnits="userSpaceOnUse"><stop offset="0.22" stop-color="#3e914e"/><stop offset="0.36" stop-color="#2c8548"/><stop offset="0.58" stop-color="#177740"/><stop offset="0.8" stop-color="#0a6f3c"/><stop offset="1" stop-color="#066c3a"/></linearGradient><linearGradient id="linear-gradient-4" x1="1516.07" y1="783.09" x2="1516.07" y2="684.91" gradientTransform="matrix(0, 1, -1.1, 0, 2181.43, -572.07)" xlink:href="#linear-gradient"/><linearGradient id="linear-gradient-5" x1="19747.65" y1="-9830.76" x2="19760.16" y2="-9930.81" gradientTransform="translate(-5813.61 -19997.36) rotate(97.9)" gradientUnits="userSpaceOnUse"><stop offset="0" stop-color="#608c50"/><stop offset="1" stop-color="#006838"/></linearGradient><linearGradient id="linear-gradient-6" x1="19804.83" y1="-9888.49" x2="19804.83" y2="-10330.1" gradientTransform="translate(-10230.13 -17805.35) rotate(84.98)" gradientUnits="userSpaceOnUse"><stop offset="0" stop-color="#0f723d"/><stop offset="1" stop-color="#006838"/></linearGradient><linearGradient id="linear-gradient-7" x1="19772.85" y1="-9920.8" x2="19774.47" y2="-10039.17" gradientTransform="translate(-10230.13 -17805.35) rotate(84.98)" gradientUnits="userSpaceOnUse"><stop offset="0" stop-color="#53804a"/><stop offset="1" stop-color="#006838"/></linearGradient><linearGradient id="linear-gradient-8" x1="19837.23" y1="-9919.91" x2="19838.85" y2="-10038.29" xlink:href="#linear-gradient-7"/><linearGradient id="linear-gradient-9" x1="19832.63" y1="-9570.77" x2="19832.63" y2="-9861.49" gradientTransform="translate(-431.61 -21073.15) rotate(112.44)" xlink:href="#linear-gradient-3"/><linearGradient id="linear-gradient-10" x1="19865.38" y1="-9657.26" x2="19878.36" y2="-9761.04" gradientTransform="translate(-431.61 -21073.15) rotate(112.44)" xlink:href="#linear-gradient-5"/><linearGradient id="linear-gradient-11" x1="1341.54" y1="964.74" x2="1341.54" y2="860.11" gradientTransform="matrix(0, 1, -1.1, 0, 2105.48, -326.59)" xlink:href="#linear-gradient"/></defs><path d="M93.44,1190.71h1794c56.48,0,88.59-45.56,72.24-100.08l-93-309.81c-13-43.17-62.27-77.25-110.48-77.25H224.65c-48.22,0-97.53,34.08-110.49,77.25l-93,309.81C4.85,1145.14,37,1190.71,93.44,1190.71Z" style="fill:#fff;stroke:#231f20;stroke-miterlimit:10;stroke-width:24px"/><path d="M173.26,1034.83c26.52,0,53-20.55,59.06-45.54L268.13,841.5c5.41-22.34-10.19-40.2-34.76-40.2S184,819.16,177.92,841.5L137.63,989.29C130.82,1014.28,146.73,1034.83,173.26,1034.83Z" style="fill:#fff;stroke:#231f20;stroke-miterlimit:10;stroke-width:24px"/><path d="M614.2,878.48,341.87,843.1c-38.55-41.8-13-106.91,34.94-119l343.54,42" style="stroke:#231f20;stroke-linejoin:round;stroke-width:24px;fill:url(#linear-gradient)"/><path d="M502.94,799c21.77,4.52,45.27,7.82,67.26,4.23,36.13-5.91,54.32-27.45,54-29.15.45-1.67-16.39-24.29-52.09-32.39-21.73-4.93-45.38-3.08-67.39.1" style="stroke:#231f20;stroke-linecap:round;stroke-linejoin:round;stroke-width:24px;fill:url(#linear-gradient-2)"/><path d="M1153.72,893l232.18-1.67L1367.33,998l-240.92,5.91C1103.14,969.9,1113.6,912.89,1153.72,893Z" style="stroke:#231f20;stroke-linejoin:round;stroke-width:24px;fill:url(#linear-gradient-3)"/><ellipse cx="1371.89" cy="944" rx="54.13" ry="21.66" transform="translate(242.05 2167.39) rotate(-81.81)" style="stroke:#231f20;stroke-linejoin:round;stroke-width:24px;fill:url(#linear-gradient-4)"/><path d="M1202.86,948c20.43,4.24,42.48,7.34,63.12,4,33.9-5.53,51-25.75,50.64-27.35.42-1.57-15.38-22.79-48.88-30.39-20.39-4.63-42.59-2.89-63.24.1" style="stroke:#231f20;stroke-linecap:round;stroke-linejoin:round;stroke-width:24px;fill:url(#linear-gradient-5)"/><path d="M1545.84,539.07s-254.73,164.12-506.1,283.64c-293,139.31-594,228.84-632.19,163.75-25.33-43.24,985.94-682.11,985.94-682.11Z" style="fill:#d0d2d3;stroke:#231f20;stroke-miterlimit:10;stroke-width:24px"/><path d="M1919.41,173.72,1527.17,346.19A41.42,41.42,0,0,0,1502.52,387h0a41.4,41.4,0,0,1-22.19,39.64l-5.58,2.9-82.67-127.36,36.41-23.64,14.43-9.36L1810.41,30.65c11.51-7.47,27.62-3.09,36,9.78l80.14,95.62C1935.27,149.52,1932,166.8,1919.41,173.72Z" style="fill:#231f20"/><path d="M1379.83,999.18l207.22-16.38,205.24,37h0L1596.64,1092,1368.25,1114C1343.53,1077.21,1350.73,1027.93,1379.83,999.18Z" style="stroke:#231f20;stroke-linejoin:round;stroke-width:24px;fill:url(#linear-gradient-6)"/><path d="M1713.14,1054.93c22.11,1.48,45.81,1.69,67.27-4,35.25-9.32,51-30.34,50.47-31.79.26-1.52-18.9-19.47-55.24-22.5-22.12-1.85-45.41,2.49-66.93,7.8" style="fill:#006838;stroke:#231f20;stroke-linecap:round;stroke-linejoin:round;stroke-width:24px"/><path d="M1646.24,1037.78c22.48-.38,46.45-2.17,67.7-9.63,34.89-12.25,49.12-34.53,48.48-35.93.14-1.54-20.68-17.82-57.67-17.79-22.51,0-45.72,6.3-67,13.41" style="fill:#006838;stroke:#231f20;stroke-linecap:round;stroke-linejoin:round;stroke-width:24px"/><path d="M1636.39,1085.24c24.12,3,50.07,4.77,74,.56,39.36-6.93,58.24-26.83,57.78-28.32.41-1.5-19.2-20.7-58.78-26.17-24.1-3.34-50-.58-74,3.27" style="fill:#006838;stroke:#231f20;stroke-linecap:round;stroke-linejoin:round;stroke-width:24px"/><path d="M1587.53,1063.19c22.11,1.48,45.81,1.69,67.27-4,35.25-9.32,51-30.34,50.47-31.79.26-1.52-18.91-19.47-55.24-22.5-22.12-1.85-45.42,2.49-66.93,7.8" style="fill:#006838;stroke:#231f20;stroke-linecap:round;stroke-linejoin:round;stroke-width:24px"/><path d="M1519.28,1037.61c25.36-2.22,52.35-6,76.09-15.19,39-15.14,54.38-38.66,53.61-40,.12-1.55-23.87-16.19-65.59-13.14-25.41,1.86-51.4,10.06-75.25,18.93" style="fill:#006838;stroke:#231f20;stroke-linecap:round;stroke-linejoin:round;stroke-width:24px"/><path d="M1486.24,1101.3c23.89,3.46,63.82,12.55,105.21,5.45,39.12-6.72,58.38-25.64,58-27.14.43-1.49-18.64-21.08-57.83-27.36-23.86-3.83-81.32-5-105.22-1.62" style="fill:#006838;stroke:#231f20;stroke-linecap:round;stroke-linejoin:round;stroke-width:24px"/><path d="M1486,1072.11c22.11,1.48,45.8,1.69,67.26-4,35.25-9.32,51-30.34,50.47-31.79.27-1.52-18.9-19.47-55.23-22.5-22.12-1.85-45.42,2.49-66.94,7.8" style="fill:#006838;stroke:#231f20;stroke-linecap:round;stroke-linejoin:round;stroke-width:24px"/><path d="M1415.29,1054.85c22.23-.47,45.87-2.5,66.51-10.92,33.89-13.83,46.8-38.9,46.09-40.48.06-1.73-21.41-20-58-19.93-22.28.06-44.92,7.15-65.66,15.17" style="stroke:#231f20;stroke-linecap:round;stroke-linejoin:round;stroke-width:24px;fill:url(#linear-gradient-7)"/><path d="M1391.34,1110.55c21.73,4.61,45.2,8,67.22,4.79,36.17-5.35,54.53-26,54.2-27.69.46-1.62-16.19-23.7-51.82-31.92-21.69-5-45.36-3.44-67.39-.59" style="stroke:#231f20;stroke-linecap:round;stroke-linejoin:round;stroke-width:24px;fill:url(#linear-gradient-8)"/><path d="M907.26,872.91l227.88,96.42-63.23,96.56-238.22-96C825.29,926.8,859.6,875.44,907.26,872.91Z" style="stroke:#231f20;stroke-linejoin:round;stroke-width:24px;fill:url(#linear-gradient-9)"/><path d="M890,993.17c17.16,14.1,36.4,28,57.44,35.23,34.57,11.94,60.4,2,60.87.43,1.15-1.23-3.44-28.51-31.27-52.22-16.95-14.44-38.66-24-59.53-31.59" style="stroke:#231f20;stroke-linecap:round;stroke-linejoin:round;stroke-width:24px;fill:url(#linear-gradient-10)"/><ellipse cx="1099.19" cy="1014.95" rx="57.69" ry="23.09" transform="matrix(0.52, -0.85, 0.85, 0.52, -340.78, 1420.93)" style="stroke:#231f20;stroke-linejoin:round;stroke-width:24px;fill:url(#linear-gradient-11)"/></svg>