<svg xmlns="http://www.w3.org/2000/svg" height="1187.705" width="1971.021"  xmlns:v="https://vecta.io/nano"><style><![CDATA[.B{stroke-width:24}.C{stroke-miterlimit:10}]]></style><g fill="#fff" stroke="#231f20" class="B C"><path d="M88.52 1175.705h1794c56.48 0 88.6-45.57 72.24-100.1l-93-309.8c-13-43.17-62.27-77.25-110.48-77.25H219.73c-48.22 0-97.53 34.08-110.5 77.25l-93 309.8c-16.3 54.52 15.84 100.1 72.28 100.1z"/><path d="M168.34 1019.825c26.52 0 53-20.55 59.06-45.54l35.8-147.8c5.4-22.34-10.2-40.2-34.76-40.2s-49.37 17.85-55.45 40.2l-40.3 147.8c-6.8 25 9.1 45.54 35.63 45.54z"/></g><g fill="#fffef3" stroke="#010101" class="B"><path d="M822.45 696.835c14.92-34.43 22.38-80.33-1.72-106.15-12-12.9-35.57-24.67-80.62-8.6-72 25.54-99 70-109 102.7-10.9 35.86-4.3 66-4 67.13l.86 3.73 2.3 3.15c17.8 24.67 31 35.58 45.9 37.58a24.42 24.42 0 0 0 4.59.29c13.48 0 23.52-8.32 31.56-14.92 9.46-7.74 18.07-14.9 34.42-14.9 33.57 0 61.1-36.15 75.74-70z"/><path d="M772.42 780.465c2-17.2-4-43-45-67.4-65.67-38.72-117.3-31-148.84-17.5-34.42 14.63-53.35 39-53.92 40.15l-2.3 3.16-.86 3.73c-7.75 29.53-7.46 46.46.57 59.07 8.6 13.48 22.94 16.35 34.4 18.36 11.76 2.3 23.23 4.3 33.56 16.63 12.33 14.92 33 20.37 55.06 20.37 15.78 0 32.4-2.87 47.32-7.17 35.85-10.62 75.72-34.42 80-69.4z"/><path d="M673.08 605.865l-1.78-3.55c-10.93-23.05-20.4-34.28-33.1-38.4-13.9-4.44-25.4 1.77-34 6.5-8.28 4.73-15.07 8.27-26 6.2-28.37-5.32-56.74 20.1-73.88 45.5-17.43 26-30.44 62.66-14.18 88.07 6.8 10.64 20.4 22.16 47.58 22.16a147.88 147.88 0 0 0 18.61-1.47c95.75-15.37 118.2-86 116.74-121.17z"/><path d="M384.75 794.285a144.86 144.86 0 0 0 18.2-1.44c93.63-15 115.6-84.1 114.14-118.48l-.3-3.76-1.73-3.46c-10.7-22.54-19.94-33.52-32.37-37.57-13.58-4.33-24.85 1.74-33.23 6.36-8.1 4.62-14.73 8.1-25.42 6.07-27.75-5.2-55.5 19.65-72.25 44.5-17 25.43-29.76 61.26-13.87 86.1 7.23 10.4 20.52 21.67 46.82 21.67z"/><path d="M516.8 670.605c-93 26.78-106.23 99.47-100.34 133.9l.58 3.83 2.06 3.23c13.54 21.48 24.43 31.5 37.38 33.84a43.07 43.07 0 0 0 6.18.59c11.47 0 20-6.47 26.77-11.18 7.66-5.6 13.84-10 25-9.42 28.54 1.77 53.56-26.78 67.4-54.14 14.12-27.67 22.36-65.63 3.23-88.87-10-11.2-29.72-23-68.27-11.78z"/></g><path d="M1540.92 524.065s-254.73 164.12-506.1 283.64c-293 139.3-594 228.85-632.2 163.75-25.33-43.24 985.94-682.1 985.94-682.1z" fill="#d1d3d4" stroke="#231f20" class="B C"/><path d="M1914.5 158.715l-392.24 172.47a41.42 41.42 0 0 0-24.65 40.81h0a41.4 41.4 0 0 1-22.19 39.64l-5.58 2.9-82.67-127.37 418.33-271.53c11.5-7.47 27.62-3.1 36 9.78l80.14 95.62c8.72 13.47 5.45 30.75-7.14 37.67z" fill="#231f20"/><g fill="#fffef3" stroke="#010101" stroke-width="12" stroke-linejoin="round"><path d="M1176.08 896.305s-36.46 1.36-20.12 34.38c9.9 18.7-3.7 35.42 43.57 17.7 14.13-27.66 44.35-11.38 24.9-34.36-19.88-23.5-14.64-16.4-48.35-17.7zm-211.66-51.22s-27.45-24-38.22 11.2c-5.64 20.4-27 23.24 19.56 42.77 29.25-10.43 40.07 22.15 41.7-7.9 1.63-30.74.63-21.98-23.03-46.06zm-118.22 24.66s-36.46 1.37-20.13 34.38c9.9 18.7-3.68 35.43 43.58 17.7 14.12-27.66 44.35-11.38 24.9-34.36-19.9-23.48-14.64-16.4-48.35-17.7zm234.94 9.84s33-15.52 5.07-39.5c-16.42-13.34-10.46-34-47 .76-2.18 31-36.37 27.82-9.48 41.36 27.5 13.84 19.9 9.38 51.43-2.6z"/><path d="M1021.25 852.845s-25.62-26-38.94 8.38c-7.1 19.93-28.6 21.2 16.38 44.08 29.94-8.26 38.35 25 42.16-4.84 3.9-30.53 2.22-21.88-19.6-47.62zM915 810.695s-36.46 1.36-20.13 34.37c9.9 18.7-3.68 35.43 43.58 17.7 14.12-27.66 44.35-11.38 24.9-34.35-19.88-23.5-14.64-16.42-48.35-17.7z"/><path d="M1066.08 896.965s-25.34 26.26 9.32 38.73c20.1 6.62 21.9 28.1 43.67-17.45-9-29.73 24.1-38.95-5.86-42-30.67-3.17-21.98-1.7-47.13 20.72zm-195.6-3.8s-8.93 35.38 27.35 29c20.72-4.24 33 13.48 29.2-36.85-22.6-21.32 1.52-45.77-26-33.55-28.12 12.46-19.85 9.4-30.56 41.4z"/><path d="M1030.43 890.135s-34.8-11-30.5 25.6c3 20.94-15.4 32.12 35.08 31.32 22.6-21.3 45.6 4.2 35-24-10.83-28.8-8.27-20.38-39.58-33zm-103.35-4.87s-32 17.46-2.7 39.74c17.2 12.33 12.5 33.35 46.9-3.58.32-31.06 34.64-30 7-41.85-28.27-12.17-20.42-8.17-51.18 5.7zm346.17-16.3s-24.08-27.4-39.36 6.1c-8.26 19.5-29.8 19.52 13.8 45 30.37-6.52 36.83 27.2 42.36-2.4 5.66-30.26 3.48-21.75-16.8-48.7z"/></g></svg>