<svg id="Layer_1" data-name="Layer 1" xmlns="http://www.w3.org/2000/svg" width="2000" height="975.53" viewBox="0 0 2000 975.53">
  <g>
    <path d="M200.46,625.08l899.23-371.19,1.3-.52a111.68,111.68,0,0,0-42.32-215l-41.55,8L114.19,390.18" style="fill: #e6e7e8;stroke: #3a3632;stroke-linecap: round;stroke-linejoin: round;stroke-width: 20px"/>
    <path d="M177.73,563.2l22.73,61.88,899.23-371.19,1.3-.52A111.69,111.69,0,0,0,1170.33,150" style="fill: #c0b8a7;stroke: #000;stroke-linecap: round;stroke-linejoin: round;stroke-width: 24px"/>
    <circle cx="152.46" cy="509.41" r="125.2" style="fill: #e6e7e8;stroke: #3a3632;stroke-linecap: round;stroke-linejoin: round;stroke-width: 20px"/>
    <circle cx="152.46" cy="509.41" r="83.88" style="fill: #676560;stroke: #3a3632;stroke-linecap: round;stroke-linejoin: round;stroke-width: 12px"/>
    <path d="M1170.33,147.43s1.13,109.31,58.6,154.38S1967,538.27,1967,538.27l-818.71,401s-733.93-198.91-801.62-252-69-181.82-69-181.82" style="fill: #e6e7e8;stroke: #3a3632;stroke-linecap: round;stroke-linejoin: round;stroke-width: 20px"/>
    <g>
      <line x1="394.22" y1="676.76" x2="399.69" y2="674.3" style="fill: none;stroke: #231f20;stroke-linecap: round;stroke-miterlimit: 10;stroke-width: 12px"/>
      <line x1="434.18" y1="658.81" x2="1188.34" y2="320.01" style="fill: none;stroke: #231f20;stroke-linecap: round;stroke-miterlimit: 10;stroke-width: 12px;stroke-dasharray: 11.938775062561035,37.80611801147461"/>
      <line x1="1205.58" y1="312.27" x2="1211.05" y2="309.81" style="fill: none;stroke: #231f20;stroke-linecap: round;stroke-miterlimit: 10;stroke-width: 12px"/>
    </g>
  </g>
  <path d="M1134.94,123.55A96.17,96.17,0,0,0,1044.53,62l-35.73,7.13L213.12,372.64c23.16,1.68,68.63,37.15,85.52,80.53Z" style="fill: #fff"/>
  <polygon points="1663.3 473.28 1857.47 528.53 1068 886.71 868.94 837.9 1663.3 473.28" style="fill: #fff"/>
</svg>
