<svg id="Layer_1" data-name="Layer 1" xmlns="http://www.w3.org/2000/svg" width="2000" height="1275.85" viewBox="0 0 2000 1275.85">
  <g>
    <path d="M104.44,1214.64h1794c56.48,0,88.59-45.56,72.24-100.08l-93-309.81c-13-43.18-62.27-77.25-110.48-77.25H235.65c-48.22,0-97.53,34.07-110.49,77.25l-93,309.81C15.85,1169.08,48,1214.64,104.44,1214.64Z" style="fill: #fff;stroke: #3a3632;stroke-miterlimit: 10;stroke-width: 24px"/>
    <path d="M184.26,1058.76c26.52,0,53-20.54,59.06-45.53l35.81-147.8c5.41-22.34-10.19-40.19-34.76-40.19S195,843.09,188.92,865.43l-40.29,147.8C141.82,1038.22,157.73,1058.76,184.26,1058.76Z" style="fill: #fff;stroke: #3a3632;stroke-miterlimit: 10;stroke-width: 24px"/>
  </g>
  <g id="layer5">
    <path id="path863" d="M660.2,432.69c-75.06-13-167.33-2.69-215.58,85.15-47.74,86.92-14,214.58,103.2,281,118.95,63.21,244.8,23.23,292.53-63.69C888.6,647.35,847.8,564,796.56,507.58Z" style="fill: #d87598;stroke: #3a3632;stroke-linecap: round;stroke-linejoin: round;stroke-opacity: 0.983806014060974;stroke-width: 24px"/>
  </g>
  <g>
    <path d="M1556.84,563s-254.73,164.13-506.1,283.65c-293,139.3-594,228.84-632.19,163.75-25.33-43.24,985.94-682.12,985.94-682.12Z" style="fill: #d0d2d3;stroke: #3a3632;stroke-miterlimit: 10;stroke-width: 24px"/>
    <path d="M1930.41,197.66,1538.17,370.12a41.43,41.43,0,0,0-24.65,40.82h0a41.42,41.42,0,0,1-22.19,39.64l-5.58,2.9-82.67-127.37,36.41-23.63,14.43-9.37L1821.41,54.58c11.51-7.47,27.62-3.09,36,9.78L1937.52,160C1946.27,173.46,1943,190.74,1930.41,197.66Z" style="fill: #231f20"/>
  </g>
  <g id="layer4">
    <g id="g4908">
      <path id="path4902" d="M929.49,1003.14c-7.42-15.08,46.19-39.52,46.19-39.52,21.2,1.25,13.6,23.68,25.74,30.72s-45.36,49.47-52.13,32c-5-13-19.8-23.18-19.8-23.18Z" style="fill: #f9d9de;stroke: #3a3632;stroke-linecap: round;stroke-linejoin: round;stroke-width: 8.38138059202766px"/>
      <path id="path4904" d="M955.57,1013.49s29.31-12,35.26-23.31" style="fill: #f9d9de;stroke: #3a3632;stroke-linecap: round;stroke-linejoin: round;stroke-width: 8.38138059202766px"/>
    </g>
    <g id="g4914">
      <path id="path4910" d="M1105.93,955c-7.43-15.08,46.18-39.51,46.18-39.51,21.21,1.24,13.61,23.67,25.75,30.71s-45.37,49.48-52.13,32c-5-13-19.8-23.18-19.8-23.18Z" style="fill: #f9d9de;stroke: #3a3632;stroke-linecap: round;stroke-linejoin: round;stroke-width: 8.38138059202766px"/>
      <path id="path4912" d="M1132,965.36s29.3-12,35.26-23.3" style="fill: #f9d9de;stroke: #3a3632;stroke-linecap: round;stroke-linejoin: round;stroke-width: 8.38138059202766px"/>
    </g>
    <g id="g4920">
      <path id="path4916" d="M1228.85,944.31c16.55-2.94,25.13,55.35,25.13,55.35-7.09,20-26.53,6.49-36.66,16.19s-34.92-57.33-16.24-59c13.93-1.22,27.77-12.58,27.77-12.58Z" style="fill: #f9d9de;stroke: #3a3632;stroke-linecap: round;stroke-linejoin: round;stroke-width: 8.38138096301547px"/>
      <path id="path4918" d="M1211.66,966.49s3.39,31.49,12.59,40.34" style="fill: #f9d9de;stroke: #3a3632;stroke-linecap: round;stroke-linejoin: round;stroke-width: 8.38138096301547px"/>
    </g>
    <g id="g4926">
      <path id="path4922" d="M1030.91,954.12c-7.43-15.08,46.18-39.51,46.18-39.51,21.21,1.24,13.61,23.67,25.75,30.71s-45.37,49.48-52.13,32c-5-13-19.81-23.19-19.81-23.19Z" style="fill: #f9d9de;stroke: #3a3632;stroke-linecap: round;stroke-linejoin: round;stroke-width: 8.38138059202766px"/>
      <path id="path4924" d="M1057,964.47s29.3-12,35.26-23.3" style="fill: #f9d9de;stroke: #3a3632;stroke-linecap: round;stroke-linejoin: round;stroke-width: 8.38138059202766px"/>
    </g>
    <g id="g4932">
      <path id="path4928" d="M1202.68,993.79c-11.1,12.62-54.17-27.58-54.17-27.58-7-20.07,16.69-21.62,18.55-35.53s63.06,23,49.48,36c-10.13,9.64-13.86,27.16-13.86,27.16Z" style="fill: #f9d9de;stroke: #3a3632;stroke-linecap: round;stroke-linejoin: round;stroke-width: 8.38138061361778px"/>
      <path id="path4930" d="M1202.28,965.73s-22.3-22.49-35-23.67" style="fill: #f9d9de;stroke: #3a3632;stroke-linecap: round;stroke-linejoin: round;stroke-width: 8.38138061361778px"/>
    </g>
    <g id="g4938">
      <path id="path4934" d="M1101.2,966.33c4.51-16.2,60.77,1.29,60.77,1.29,15,15-5.62,26.72-1.26,40.06s-66.79,6.68-60.18-10.87c4.92-13.09.67-30.48.67-30.48Z" style="fill: #f9d9de;stroke: #3a3632;stroke-linecap: round;stroke-linejoin: round;stroke-width: 8.38138056051732px"/>
      <path id="path4936" d="M1113.76,991.42s29.86,10.57,41.82,6.1" style="fill: #f9d9de;stroke: #3a3632;stroke-linecap: round;stroke-linejoin: round;stroke-width: 8.38138056051732px"/>
    </g>
    <g id="g4944">
      <path id="path4940" d="M1067.25,979.48c-7.43-15.08,46.18-39.52,46.18-39.52,21.21,1.25,13.61,23.68,25.75,30.72s-45.37,49.47-52.13,32c-5-13-19.81-23.18-19.81-23.18Z" style="fill: #f9d9de;stroke: #3a3632;stroke-linecap: round;stroke-linejoin: round;stroke-width: 8.38138059202766px"/>
      <path id="path4942" d="M1093.33,989.83s29.3-12,35.26-23.31" style="fill: #f9d9de;stroke: #3a3632;stroke-linecap: round;stroke-linejoin: round;stroke-width: 8.38138059202766px"/>
    </g>
    <g id="g4950">
      <g id="g5068">
        <path id="path4946" d="M1025,967.8c16.38-3.8,28,54,28,54-6,20.36-26.15,7.86-35.77,18.07s-37.84-55.44-19.27-58c13.85-1.94,27.08-14,27.08-14Z" style="fill: #f9d9de;stroke: #3a3632;stroke-linecap: round;stroke-linejoin: round;stroke-width: 8.38138078728924px"/>
        <path id="path4948" d="M1008.94,990.84s5,31.27,14.67,39.64" style="fill: #f9d9de;stroke: #3a3632;stroke-linecap: round;stroke-linejoin: round;stroke-width: 8.38138078728924px"/>
      </g>
    </g>
    <g id="g4956">
      <path id="path4952" d="M907.13,861.92c16.73-1.66,20.8,57.12,20.8,57.12-8.6,19.42-26.94,4.43-37.79,13.33s-30.42-59.84-11.66-60c14-.15,28.65-10.42,28.65-10.42Z" style="fill: #f9d9de;stroke: #3a3632;stroke-linecap: round;stroke-linejoin: round;stroke-width: 8.38138020710393px"/>
      <path id="path4954" d="M888.29,882.72s1,31.65,9.46,41.19" style="fill: #f9d9de;stroke: #3a3632;stroke-linecap: round;stroke-linejoin: round;stroke-width: 8.38138020710393px"/>
    </g>
    <g id="g4962">
      <path id="path4958" d="M991.68,953.42c2.47-16.62,60.46-6.2,60.46-6.2,16.73,13.1-2.29,27.21,3.69,39.91s-65.46,14.86-61.07-3.38c3.28-13.59-3.08-30.33-3.08-30.33Z" style="fill: #f9d9de;stroke: #3a3632;stroke-linecap: round;stroke-linejoin: round;stroke-width: 8.38138069294263px"/>
      <path id="path4960" d="M1007.23,976.78s30.93,6.81,42.26.9" style="fill: #f9d9de;stroke: #3a3632;stroke-linecap: round;stroke-linejoin: round;stroke-width: 8.38138069294263px"/>
    </g>
  </g>
</svg>
