<svg id="Layer_1" data-name="Layer 1" xmlns="http://www.w3.org/2000/svg" viewBox="0 0 2000 2000"><path d="M104.44,1606.3h1794c56.48,0,88.59-45.57,72.24-100.09l-93-309.81c-13-43.17-62.27-77.25-110.48-77.25H235.65c-48.22,0-97.53,34.08-110.49,77.25l-93,309.81C15.85,1560.73,48,1606.3,104.44,1606.3Z" style="fill:#fff;stroke:#231f20;stroke-miterlimit:10;stroke-width:24px"/><path d="M184.26,1450.42c26.52,0,53-20.55,59.06-45.54l35.81-147.79c5.41-22.34-10.19-40.19-34.76-40.19s-49.37,17.85-55.45,40.19l-40.29,147.79C141.82,1429.87,157.73,1450.42,184.26,1450.42Z" style="fill:#fff;stroke:#231f20;stroke-miterlimit:10;stroke-width:24px"/><g id="layer5"><path id="path881-9" d="M488.63,887.72c-24.29,15.54-29.61,34.42-35.41,48-38.28,89.87,3.42,162.08,42.43,216.1,70,92.63,203,210.11,281.25,169.63,10.33-6.35,20.67-13.49,28.53-20.54,29.16,6.33,58.08,1.38,86.16-14.52a11.06,11.06,0,0,0,1.69-1.13l.35-.21.47-.27.71-.41.58-.34.12-.06c27.81-16.37,46.61-39.12,55.76-67.73a165.25,165.25,0,0,0,32.66-14.47c88.32-72.2,34.68-237.19-5.82-328.66C951,812.29,913.32,742.82,816.19,725.25c-12.83-2.32-32.68-4.1-54.43,8.55-19.17,11.14-62.86,46.65-62.86,46.65l-72.29,41.74-72.29,41.74s-41.4,8.25-65.69,23.79Z" style="fill:#d12027;stroke:#000;stroke-width:24px"/><path id="path915-1" d="M776.87,668.78a16,16,0,0,0-16.67-13.7c-3.21.13-79.94,5-127.94,59.31-15.88-22.48-16.7-52.7-25.67-71.59-8.68-18.27-33.71-22.33-57.74-13.78-23,8.24-46.15,30.4-42.83,59.48,3.64,32.33,17.58,62.17,28.6,81.79C462.07,787,423.28,848,421.68,850.69a16.12,16.12,0,0,0,4.14,21.55c28,15.87,77.32,11.21,77.32,11.21C617.29,842.59,652,829.36,740.26,756.91c0,0,27.27-48.81,36.61-88.13Z" style="fill:#12a34a;stroke:#000;stroke-width:24px"/><path id="rect908-1" d="M634.48,1117.82c-18.43-23.47-35.81-44.08-51.94-71.5s-29.69-55.11-37.78-79.68c-11.16-33.87-12.73-85.07,8.79-113.51,31.09-41.1,101.21-77.93,138.89-80.19C728,770.8,780,798.71,821,858.35M870.9,953.3c54.09,106.53,125.61,272.33,26.68,331.11-54.6,32.45-144.15-4-204.79-89.61" style="fill:#d12027;stroke:#000;stroke-linecap:round;stroke-linejoin:round;stroke-width:24px"/><path id="path911-3" d="M619.4,887.61c-15.06,9.91-20,32.9-16.11,51.57,9.16,44.14,66.26,118.9,66.26,118.9" style="fill:none;stroke:#000;stroke-linecap:round;stroke-linejoin:round;stroke-width:24px"/></g><path d="M1556.84,954.66s-254.73,164.12-506.1,283.64c-293,139.31-594,228.85-632.19,163.75-25.33-43.24,985.94-682.11,985.94-682.11Z" style="fill:#d0d2d3;stroke:#231f20;stroke-miterlimit:10;stroke-width:24px"/><path d="M1930.41,589.31,1538.17,761.78a41.42,41.42,0,0,0-24.65,40.81h0a41.4,41.4,0,0,1-22.19,39.64l-5.58,2.91-82.67-127.37,36.41-23.63,14.43-9.37,367.49-238.53c11.51-7.47,27.62-3.09,36,9.78l80.14,95.62C1946.27,565.11,1943,582.39,1930.41,589.31Z" style="fill:#231f20"/><g id="layer4"><path id="rect7041" d="M799.44,1294.61c7.55,13.07,57.17,26.64,57.17,26.64,5.9,2.75,10.89,11.7,5.69,15.61-8.4,6.32-16.72,35.87-16.72,35.87a11.72,11.72,0,0,1-15.61,5.69s-46.49-30.53-57.17-26.64c-6.12,2.23-8.44-9.71-5.69-15.61,0,0,21.09-27.69,16.71-35.87C780.75,1294.56,796.18,1289,799.44,1294.61Z" style="fill:#d12027;stroke:#0c0d18;stroke-linecap:round;stroke-linejoin:round;stroke-width:12px"/><path id="path7049" d="M845.58,1372.73c14-5.57,34.67-52.69,34.67-52.69,3.58-5.44,13.16-9.07,16.27-3.36,5,9.24,33.07,21.76,33.07,21.76a11.72,11.72,0,0,1,3.35,16.27s-37,41.56-34.66,52.69c1.31,6.38-10.84,6.94-16.28,3.36,0,0-24.33-24.89-33.06-21.75-6.12,2.2-9.41-13.87-3.36-16.28Z" style="fill:#d12027;stroke:#0c0d18;stroke-linecap:round;stroke-linejoin:round;stroke-width:12px"/><path id="path7051" d="M929.68,1383.86c15.05,1.16,54.29-32.11,54.29-32.11,5.6-3.31,15.81-2.37,16.09,4.13.47,10.5,20.15,34.06,20.15,34.06a11.72,11.72,0,0,1-4.13,16.1s-51.46,21.1-54.28,32.11c-1.62,6.31-12.78,1.47-16.1-4.13,0,0-10.93-33-20.15-34.06-6.47-.71-2.36-16.59,4.13-16.1Z" style="fill:#d12027;stroke:#0c0d18;stroke-linecap:round;stroke-linejoin:round;stroke-width:12px"/><path id="path7053" d="M1041,1325.74c7.55,13.07,57.17,26.64,57.17,26.64,5.9,2.74,10.89,11.69,5.69,15.61-8.4,6.32-16.71,35.87-16.71,35.87a11.72,11.72,0,0,1-15.61,5.69s-46.5-30.53-57.18-26.64c-6.11,2.23-8.43-9.71-5.69-15.61,0,0,21.09-27.7,16.72-35.87C1022.31,1325.69,1037.73,1320.1,1041,1325.74Z" style="fill:#d12027;stroke:#0c0d18;stroke-linecap:round;stroke-linejoin:round;stroke-width:12px"/><path id="path7055" d="M1043.8,1264.45c11.6,9.67,62.85,5.3,62.85,5.3,6.49.54,14.26,7.23,10.72,12.69-5.7,8.83-3.32,39.44-3.32,39.44a11.73,11.73,0,0,1-12.69,10.72s-54.17-12.63-62.85-5.3c-5,4.2-11.27-6.2-10.73-12.69,0,0,10.25-33.27,3.33-39.44C1026.25,1270.84,1038.8,1260.29,1043.8,1264.45Z" style="fill:#d12027;stroke:#0c0d18;stroke-linecap:round;stroke-linejoin:round;stroke-width:12px"/><path id="path7057" d="M1156.94,1328.09c-14.8,2.94-43.63,45.54-43.63,45.54-4.51,4.7-14.59,6.54-16.62.36-3.27-10-28.57-27.38-28.57-27.38a11.74,11.74,0,0,1-.36-16.62s43.89-34.17,43.64-45.54c-.14-6.5,11.92-4.86,16.62-.35,0,0,19.42,28.89,28.57,27.38,6.42-1.06,6.74,15.34.35,16.61Z" style="fill:#d12027;stroke:#0c0d18;stroke-linecap:round;stroke-linejoin:round;stroke-width:12px"/><path id="path7059" d="M1082.13,1375.46c14.59,3.9,59.26-21.6,59.26-21.6,6.12-2.23,16,.57,15.07,7-1.48,10.41,13.55,37.19,13.55,37.19a11.72,11.72,0,0,1-7,15.06s-54.46,11.29-59.26,21.6c-2.74,5.9-12.83-.9-15.06-7,0,0-4.67-34.49-13.55-37.18C1068.89,1388.64,1075.84,1373.78,1082.13,1375.46Z" style="fill:#d12027;stroke:#0c0d18;stroke-linecap:round;stroke-linejoin:round;stroke-width:12px"/><path id="path7061" d="M1180.48,1279.69c-4.48,14.41,19.18,60.08,19.18,60.08,2,6.2-1.22,15.94-7.62,14.77-10.34-1.89-37.7,12-37.7,12a11.73,11.73,0,0,1-14.77-7.62s-9.07-54.87-19.18-60.09c-5.78-3,1.42-12.78,7.63-14.76,0,0,34.65-3.27,37.7-12,2.13-6.14,16.7,1.41,14.76,7.63Z" style="fill:#d12027;stroke:#0c0d18;stroke-linecap:round;stroke-linejoin:round;stroke-width:12px"/></g><g id="layer4-2" data-name="layer4"><path id="rect7041-2" data-name="rect7041" d="M1541.21,1441.28c-7.56-13.07-57.18-26.63-57.18-26.63-5.9-2.75-10.89-11.7-5.69-15.61,8.41-6.32,16.72-35.88,16.72-35.88a11.73,11.73,0,0,1,15.61-5.69s46.49,30.53,57.17,26.64c6.12-2.23,8.44,9.71,5.69,15.61,0,0-21.09,27.7-16.71,35.88C1559.89,1441.34,1544.46,1446.92,1541.21,1441.28Z" style="fill:#d12027;stroke:#0c0d18;stroke-linecap:round;stroke-linejoin:round;stroke-width:12px"/><path id="path7049-2" data-name="path7049" d="M1458.07,1385.69c-14,5.57-34.67,52.69-34.67,52.69-3.58,5.44-13.16,9.07-16.27,3.36-5-9.24-33.06-21.76-33.06-21.76a11.71,11.71,0,0,1-3.36-16.27s37-41.56,34.67-52.69c-1.32-6.38,10.83-6.94,16.27-3.36,0,0,24.33,24.89,33.06,21.75,6.13-2.2,9.41,13.87,3.36,16.28Z" style="fill:#d12027;stroke:#0c0d18;stroke-linecap:round;stroke-linejoin:round;stroke-width:12px"/><path id="path7053-2" data-name="path7053" d="M1299.65,1410.16c-7.55-13.07-57.17-26.64-57.17-26.64-5.9-2.75-10.89-11.7-5.69-15.61,8.4-6.32,16.71-35.87,16.71-35.87a11.73,11.73,0,0,1,15.62-5.69s46.49,30.53,57.17,26.64c6.12-2.23,8.44,9.71,5.69,15.61,0,0-21.09,27.69-16.72,35.87C1318.33,1410.21,1302.91,1415.79,1299.65,1410.16Z" style="fill:#d12027;stroke:#0c0d18;stroke-linecap:round;stroke-linejoin:round;stroke-width:12px"/><path id="path7055-2" data-name="path7055" d="M1296.84,1471.44c-11.6-9.66-62.85-5.29-62.85-5.29-6.49-.55-14.26-7.23-10.72-12.7,5.71-8.82,3.32-39.43,3.32-39.43a11.72,11.72,0,0,1,12.69-10.72s54.17,12.63,62.86,5.29c5-4.2,11.26,6.21,10.72,12.7,0,0-10.25,33.26-3.33,39.43C1314.39,1465.05,1301.84,1475.61,1296.84,1471.44Z" style="fill:#d12027;stroke:#0c0d18;stroke-linecap:round;stroke-linejoin:round;stroke-width:12px"/><path id="path7059-2" data-name="path7059" d="M1258.51,1360.44c-14.59-3.9-59.26,21.6-59.26,21.6-6.12,2.23-16-.57-15.06-7,1.47-10.41-13.56-37.18-13.56-37.18a11.72,11.72,0,0,1,7-15.06s54.46-11.3,59.26-21.6c2.75-5.9,12.83.9,15.06,7,0,0,4.68,34.5,13.55,37.19C1271.75,1347.26,1264.8,1362.12,1258.51,1360.44Z" style="fill:#d12027;stroke:#0c0d18;stroke-linecap:round;stroke-linejoin:round;stroke-width:12px"/><path id="path7061-2" data-name="path7061" d="M1160.16,1456.21c4.49-14.41-19.18-60.09-19.18-60.09-2-6.2,1.22-15.93,7.62-14.76,10.34,1.89,37.7-12,37.7-12a11.73,11.73,0,0,1,14.77,7.63s9.07,54.87,19.18,60.08c5.78,3-1.42,12.79-7.62,14.77,0,0-34.66,3.27-37.71,12-2.13,6.15-16.7-1.4-14.76-7.62Z" style="fill:#d12027;stroke:#0c0d18;stroke-linecap:round;stroke-linejoin:round;stroke-width:12px"/></g></svg>