<svg id="Layer_1" data-name="Layer 1" xmlns="http://www.w3.org/2000/svg" width="2000" height="2000" viewBox="0 0 2000 2000">
  <g>
    <g id="layer1">
      <path id="path60" d="M555.11,1158.09c-28.24,69.05-28.2,147.25-28.2,174.06,0,317.77,123.46,486.44,330.69,459.33,63.62-9,74.73-43.91,102.45-66.31,19.26,18.93,84.88,58.42,125.73,66.31,219.36,25.6,341.71-144.58,341.71-459.33,0-281.63-168.65-510.55-450.84-510.55-66.13,0-122.85,3.78-178.57,34.64-112.33,62.23-188.06,150.13-243,301.85Z" style="fill: #ba2115;stroke: #3a3632;stroke-linecap: round;stroke-width: 18.9983723292979px"/>
    </g>
    <g id="layer1-2" data-name="layer1">
      <path id="path60-2" data-name="path60" d="M601,1224.9c-27.22,69.59-25.13,121.48-25.13,143.6,0,262.15,110,401.3,294.75,378.94,56.7-7.39,66.6-36.22,91.31-54.71,17.17,15.62,75.65,48.2,112.07,54.71,195.52,21.12,304.57-119.27,304.57-378.94,0-232.34-150.32-421.19-401.84-421.19-59,0-109.5,3.11-159.16,28.58-100.12,51.33-167.62,123.85-216.57,249Z" style="fill: #c93c27"/>
    </g>
    <g id="layer2">
      <path id="path920" d="M956.48,1781.32s109.83,112.17,128.53,177.6c2.34-23.37-2.34-107.49-44.4-168.25,0,0,191.62-9.35,217.32-37.39,0,0-179.93-28-224.33-4.67,0,0,21-156.57-9.35-208,0,0-86.46,135.53-77.11,172.92,0,0-208-58.42-264.07-42.06,16.36,28,165.92,91.14,219.67,88.8-60.23,26.51-100.49,105.16-100.49,105.16s130.86-72.44,154.23-84.13Z" style="fill: #07a44a"/>
    </g>
    <circle cx="752.64" cy="1559.68" r="58.07" style="fill: #fff"/>
    <circle cx="669.37" cy="1423.25" r="38.04" style="fill: #fff;opacity: 0.4"/>
    <circle cx="677.98" cy="1289.77" r="29.42" style="fill: #fff;opacity: 0.2"/>
  </g>
  <g>
    <path d="M1438.51,599.19s-333.65,123-652,195.83C415.34,879.87,47.64,905.65,20.55,821.36c-18-56,1303.31-529.88,1303.31-529.88Z" style="fill: #e6e7e8;stroke: #3a3632;stroke-miterlimit: 10;stroke-width: 20px"/>
    <path d="M1959.59,276,1466.31,373.5A48.61,48.61,0,0,0,1427.67,414h0a48.59,48.59,0,0,1-35.53,39.75l-7.13,1.9-62.21-167,47.73-17.78,18.92-7.05L1871.23,84.3c15.09-5.62,32.42,3.5,38.7,20.38l67.41,130C1983.92,252.31,1975.78,271.27,1959.59,276Z" style="fill: #3a3632"/>
  </g>
  <line x1="978.14" y1="820.62" x2="978.14" y2="1080.53" style="fill: none;stroke: #3a3632;stroke-linecap: round;stroke-width: 18.9983723292979px"/>
</svg>
