<svg id="Layer_1" data-name="Layer 1" xmlns="http://www.w3.org/2000/svg" width="2000" height="2000" viewBox="0 0 2000 2000">
  <g>
    <g>
      <path d="M103,1177.88H1897c56.48,0,88.59-45.57,72.24-100.09l-93-309.81c-13-43.17-62.27-77.25-110.49-77.25H234.21c-48.22,0-97.54,34.08-110.49,77.25l-93,309.81C14.41,1132.31,46.52,1177.88,103,1177.88Z" style="fill: #fff;stroke: #3a3632;stroke-miterlimit: 10;stroke-width: 24px"/>
      <path d="M182.82,1022c26.52,0,53-20.55,59.06-45.54l35.81-147.79c5.41-22.34-10.19-40.2-34.76-40.2s-49.37,17.86-55.45,40.2L147.19,976.46C140.38,1001.45,156.29,1022,182.82,1022Z" style="fill: #fff;stroke: #3a3632;stroke-miterlimit: 10;stroke-width: 24px"/>
    </g>
    <g>
      <g>
        <path d="M575.31,779.16c-40-3.29-115-28.13-128.34-32.63a9.45,9.45,0,0,0-4.63-1.19c-4.74,0-8.58,3.34-8.58,7.45a6.4,6.4,0,0,0,.23,1.7,9.78,9.78,0,0,0-3.54-.67c-4.74,0-8.58,3.33-8.58,7.45a6.72,6.72,0,0,0,1.19,3.78,9.45,9.45,0,0,0-1.61-.14c-4.74,0-8.58,3.33-8.58,7.45,0,3.42,2.67,6.29,6.29,7.16-3.62.87-6.29,3.75-6.29,7.17,0,4.11,3.84,7.45,8.58,7.45a9.45,9.45,0,0,0,1.61-.14,6.72,6.72,0,0,0-1.19,3.78c0,4.11,3.84,7.45,8.58,7.45a9.78,9.78,0,0,0,3.54-.67,6.34,6.34,0,0,0-.23,1.7c0,4.11,3.84,7.45,8.58,7.45a9.52,9.52,0,0,0,4.58-1.16c13.27-4.42,89.15-29.27,128.39-32.64Z" style="fill: #39b54a;stroke: #3a3632;stroke-width: 10px"/>
        <g>
          <path d="M574.9,779.52c-28.36,16.6-91.7,36.57-103,40.08a8.5,8.5,0,0,0-3.73,1.44c-3.14,2.19-3.85,6-1.59,8.38a5.61,5.61,0,0,0,1.09.91,8.25,8.25,0,0,0-2.72,1.24c-3.14,2.19-3.85,5.95-1.59,8.38a6.11,6.11,0,0,0,2.87,1.69,7.83,7.83,0,0,0-1.15.67c-3.14,2.19-3.85,6-1.59,8.38,1.88,2,5.23,2.5,8.11,1.34-1.92,2.2-2.11,5.13-.23,7.16,2.26,2.44,6.64,2.64,9.78.44a7.41,7.41,0,0,0,1-.82,4.84,4.84,0,0,0,1.28,2.79c2.26,2.44,6.64,2.64,9.78.44a7.09,7.09,0,0,0,2-2,5,5,0,0,0,.78,1.12c2.26,2.44,6.64,2.64,9.78.45a7.15,7.15,0,0,0,2.41-2.81c6.36-8.77,43-58.62,67.17-78.79Z" style="fill: #39b54a;stroke: #3a3632;stroke-width: 10px"/>
          <path d="M574.9,779.52c-28.36-16.59-91.7-36.56-103-40.07a8.5,8.5,0,0,1-3.73-1.44c-3.14-2.19-3.85-6-1.59-8.39a5.93,5.93,0,0,1,1.09-.9,8.25,8.25,0,0,1-2.72-1.24c-3.14-2.19-3.85-6-1.59-8.39a6.17,6.17,0,0,1,2.87-1.68,7.83,7.83,0,0,1-1.15-.67c-3.14-2.19-3.85-6-1.59-8.38,1.88-2,5.23-2.5,8.11-1.34-1.92-2.2-2.11-5.14-.23-7.16,2.26-2.44,6.64-2.64,9.78-.45a8.31,8.31,0,0,1,1,.83,4.81,4.81,0,0,1,1.28-2.79c2.26-2.44,6.64-2.64,9.78-.44a7.18,7.18,0,0,1,2,2,5.19,5.19,0,0,1,.78-1.11c2.26-2.44,6.64-2.64,9.78-.45a7.08,7.08,0,0,1,2.41,2.81c6.36,8.77,43,58.62,67.17,78.79Z" style="fill: #39b54a;stroke: #3a3632;stroke-width: 10px"/>
        </g>
      </g>
      <g>
        <path d="M622.53,803.35c-35,17.17-112.88,34-126.79,36.92a9.48,9.48,0,0,0-4.58,1.32c-3.89,2.35-4.85,7-2.14,10.37a8.41,8.41,0,0,0,1.32,1.28,9.32,9.32,0,0,0-3.35,1.21c-3.89,2.35-4.84,7-2.13,10.36a8.27,8.27,0,0,0,3.47,2.51,9.2,9.2,0,0,0-1.41.69c-3.89,2.35-4.85,7-2.14,10.37a9.35,9.35,0,0,0,9.89,2.75,6.7,6.7,0,0,0-.44,9A9.45,9.45,0,0,0,506.18,892a8.21,8.21,0,0,0,1.23-.92,6.79,6.79,0,0,0,1.51,3.7,9.44,9.44,0,0,0,11.94,1.85,8,8,0,0,0,2.47-2.31,7.08,7.08,0,0,0,.93,1.51,9.41,9.41,0,0,0,11.94,1.85,7.63,7.63,0,0,0,3-3.22c8-10.21,53.85-68.25,83.81-90.49Z" style="fill: #39b54a;stroke: #3a3632;stroke-width: 10px"/>
        <g>
          <path d="M622.43,803.85c-12.33,27.68-51.13,75.5-58.11,84a6.73,6.73,0,0,0-2.11,3,5.87,5.87,0,0,0,4.22,7.67,7.72,7.72,0,0,0,1.49.2,6.57,6.57,0,0,0-1.41,2.36,5.88,5.88,0,0,0,4.22,7.68,6.91,6.91,0,0,0,3.47,0,6.6,6.6,0,0,0-.5,1.12,5.86,5.86,0,0,0,4.21,7.67,7.1,7.1,0,0,0,7.54-2.93,5.86,5.86,0,0,0,4.53,6,7.05,7.05,0,0,0,8.31-4.49,6.21,6.21,0,0,0,.28-1.17,6.07,6.07,0,0,0,2.89,1.65,7.07,7.07,0,0,0,8.32-4.49,6.13,6.13,0,0,0,.28-2.66,5.57,5.57,0,0,0,1.38.53,7.05,7.05,0,0,0,8.31-4.49,6,6,0,0,0,.12-3.49c-.55-10.35-3.34-69.44,3.18-98Z" style="fill: #39b54a;stroke: #3a3632;stroke-width: 10px"/>
          <path d="M622.43,803.85c-34.2.46-99.32,15.51-110.92,18.25a9,9,0,0,1-4,.67c-4-.24-7.08-3-6.83-6.09a4.2,4.2,0,0,1,.3-1.28,9.2,9.2,0,0,1-3.05.33c-4-.25-7.08-3-6.83-6.09a4.77,4.77,0,0,1,1.24-2.81,9,9,0,0,1-1.38,0c-4-.24-7.08-3-6.83-6.09.2-2.6,2.64-4.64,5.77-5.12-3-.84-5.11-3.16-4.91-5.76.25-3.12,3.71-5.46,7.74-5.22a10.12,10.12,0,0,1,1.36.19,4.63,4.63,0,0,1-.79-2.93c.25-3.12,3.71-5.46,7.73-5.22a9,9,0,0,1,3,.69,4.7,4.7,0,0,1-.1-1.3c.25-3.13,3.71-5.46,7.74-5.22a8.7,8.7,0,0,1,3.82,1.11c11,4,73.91,26.74,107,31.3Z" style="fill: #39b54a;stroke: #3a3632;stroke-width: 10px"/>
        </g>
      </g>
      <g>
        <path d="M672.84,788.67c-32.54-23.52-84.69-84.21-93.94-95.09a9.78,9.78,0,0,0-3.39-3.44c-4-2.43-8.86-1.43-10.78,2.24a6.46,6.46,0,0,0-.6,1.64,9.69,9.69,0,0,0-2.7-2.42c-4-2.44-8.86-1.44-10.79,2.23a7.25,7.25,0,0,0-.75,4,10.71,10.71,0,0,0-1.31-1c-4-2.43-8.86-1.43-10.78,2.24-1.6,3-.68,7,2,9.63-3.49-1.09-7.11.11-8.71,3.16-1.92,3.67-.21,8.62,3.82,11.06a10,10,0,0,0,1.43.71,6.42,6.42,0,0,0-2.78,2.75c-1.93,3.67-.22,8.62,3.81,11.06a9.11,9.11,0,0,0,3.33,1.22,6.67,6.67,0,0,0-1,1.4c-1.93,3.67-.22,8.62,3.81,11.06a9.07,9.07,0,0,0,4.45,1.32c13.36,2.87,89.55,19.7,124.52,36.85Z" style="fill: #39b54a;stroke: #3a3632;stroke-width: 10px"/>
        <g>
          <path d="M672.33,788.78c-31.9.23-95.15-14.49-106.42-17.18a8,8,0,0,0-3.85-.63c-3.7.34-6.06,3.33-5.28,6.67a6,6,0,0,0,.51,1.36,7.84,7.84,0,0,0-2.9-.29c-3.7.35-6.06,3.33-5.28,6.67a6.64,6.64,0,0,0,1.66,3,7.94,7.94,0,0,0-1.29,0c-3.7.34-6.06,3.32-5.28,6.66a7.49,7.49,0,0,0,6.28,5.36,5.3,5.3,0,0,0-3.55,6.28c.78,3.34,4.42,5.76,8.12,5.42a6.87,6.87,0,0,0,1.23-.23,5.26,5.26,0,0,0-.22,3.16c.79,3.33,4.42,5.76,8.12,5.42a6.86,6.86,0,0,0,2.64-.8A5.69,5.69,0,0,0,567,821c.78,3.33,4.42,5.76,8.12,5.42a6.52,6.52,0,0,0,3.36-1.28c9.52-4.55,64-30.21,94-35.8Z" style="fill: #39b54a;stroke: #3a3632;stroke-width: 10px"/>
          <path d="M672.33,788.78C656,759.4,611.4,709,603.41,700.07a9.15,9.15,0,0,1-2.5-3.2c-1.64-3.58-.49-7.29,2.57-8.31a5.17,5.17,0,0,1,1.35-.24,9,9,0,0,1-1.73-2.51c-1.65-3.57-.5-7.29,2.57-8.3a5.55,5.55,0,0,1,3.23,0,8.6,8.6,0,0,1-.66-1.19c-1.65-3.57-.5-7.29,2.56-8.3,2.56-.84,5.62.46,7.53,3-.61-2.94.61-5.66,3.16-6.5,3.06-1,6.88,1,8.53,4.63a8.56,8.56,0,0,1,.46,1.25,4.54,4.54,0,0,1,2.4-1.84c3.06-1,6.88,1.06,8.53,4.64a8,8,0,0,1,.73,2.83,4.72,4.72,0,0,1,1.19-.59c3.06-1,6.88,1.06,8.53,4.63a7.78,7.78,0,0,1,.73,3.74c1.31,11.1,9.17,74.43,20.29,104.85Z" style="fill: #39b54a;stroke: #3a3632;stroke-width: 10px"/>
        </g>
      </g>
      <path d="M826.42,747.86a246.81,246.81,0,0,0-45.33,1c-40.65,4.92-59.83,24.57-59.83,24.57-33.53-6.57-95.94-32.61-106.88-37.37a8.8,8.8,0,0,0-3.83-1.36c-4.09-.47-7.81,1.72-8.3,4.9a4.3,4.3,0,0,0,0,1.34,9.08,9.08,0,0,0-3-.88c-4.1-.48-7.82,1.72-8.31,4.89a4.71,4.71,0,0,0,.58,3,9.91,9.91,0,0,0-1.38-.27c-4.09-.48-7.81,1.71-8.31,4.89-.41,2.65,1.56,5.14,4.59,6.18-3.24.31-5.89,2.26-6.3,4.91-.49,3.18,2.43,6.14,6.53,6.62a9.56,9.56,0,0,0,1.41.06,5,5,0,0,0-1.49,2.8c-.49,3.18,2.43,6.14,6.53,6.62a9.41,9.41,0,0,0,3.15-.16,4.52,4.52,0,0,0-.41,1.29c-.49,3.18,2.43,6.15,6.53,6.63a9.33,9.33,0,0,0,4.15-.45c12-2.12,77.91-13.52,113.21-12.29-37.63,15.35-116.42,27.79-130.74,30a9.75,9.75,0,0,0-4.79,1.09c-4.15,2.18-5.48,6.88-3,10.48a7.9,7.9,0,0,0,1.25,1.39,9.65,9.65,0,0,0-3.52,1c-4.16,2.19-5.49,6.88-3,10.49a8.3,8.3,0,0,0,3.36,2.76,9.74,9.74,0,0,0-1.5.63c-4.16,2.18-5.49,6.87-3,10.48a9.43,9.43,0,0,0,9.9,3.39,6.87,6.87,0,0,0-1.13,9.19c2.51,3.6,7.92,4.76,12.08,2.57a8.66,8.66,0,0,0,1.33-.86,6.93,6.93,0,0,0,1.26,3.87c2.52,3.61,7.93,4.76,12.08,2.58a8.51,8.51,0,0,0,2.7-2.22,7.68,7.68,0,0,0,.84,1.6c2.51,3.61,7.92,4.76,12.08,2.58a8.16,8.16,0,0,0,3.31-3.13c8.84-9.88,58.76-65.14,91.17-86.7-15.15,27.72-57.26,73.18-65,81.39a7.06,7.06,0,0,0-2.38,3,5.92,5.92,0,0,0,3.73,8.09,6.6,6.6,0,0,0,1.51.29,7,7,0,0,0-1.63,2.34,5.92,5.92,0,0,0,3.73,8.09,7,7,0,0,0,3.55.16,7.35,7.35,0,0,0-.59,1.11,5.91,5.91,0,0,0,3.73,8.09,7.41,7.41,0,0,0,7.93-2.56,5.89,5.89,0,0,0,4.18,6.39,7.39,7.39,0,0,0,8.85-4.12,6.79,6.79,0,0,0,.37-1.19,6.09,6.09,0,0,0,2.83,1.86,7.37,7.37,0,0,0,8.85-4.11,6.24,6.24,0,0,0,.49-2.71,6.33,6.33,0,0,0,1.37.63,7.38,7.38,0,0,0,8.85-4.12,6.11,6.11,0,0,0,.39-3.57c.23-10.62,2.65-70.61,11.49-99.44,0,0,32.28-21.56,59.61-25.88S826.42,747.86,826.42,747.86Z" style="fill: #39b54a;stroke: #3a3632;stroke-width: 10px"/>
    </g>
    <g>
      <path d="M1555.4,526.24s-254.73,164.12-506.1,283.64c-293,139.31-594,228.85-632.19,163.75-25.33-43.24,985.94-682.11,985.94-682.11Z" style="fill: #d0d2d3;stroke: #3a3632;stroke-miterlimit: 10;stroke-width: 24px"/>
      <path d="M1929,160.89,1536.73,333.36a41.42,41.42,0,0,0-24.65,40.81h0a41.4,41.4,0,0,1-22.19,39.64l-5.58,2.9-82.67-127.36,36.41-23.64,14.43-9.36L1820,17.82c11.51-7.47,27.62-3.09,36,9.78l80.14,95.62C1944.83,136.69,1941.56,154,1929,160.89Z" style="fill: #3a3632"/>
    </g>
    <g>
      <path d="M720.37,937.75c18.35,1.29,36.56,2.81,43.09,4.09a11.16,11.16,0,0,1,5,1.33c4.63,2.46,6.94,7.43,5.16,11.11a5.7,5.7,0,0,1-1,1.4,11.49,11.49,0,0,1,3.75,1.24c4.62,2.45,6.94,7.42,5.16,11.1a6,6,0,0,1-2.8,2.76,12.78,12.78,0,0,1,1.63.71c4.63,2.46,6.94,7.43,5.16,11.11-1.48,3.06-5.32,4.25-9.24,3.15,3.16,2.66,4.52,6.61,3,9.67-1.77,3.68-7,4.67-11.59,2.22a13,13,0,0,1-1.52-1,6.42,6.42,0,0,1-.46,4c-1.78,3.68-7,4.68-11.6,2.22a11.92,11.92,0,0,1-3.17-2.43,5.68,5.68,0,0,1-.51,1.64c-1.77,3.68-7,4.67-11.59,2.22a11.86,11.86,0,0,1-4-3.46c-6.86-6.78-17.07-18.76-31.35-34.37Z" style="fill: #39b54a;stroke: #3a3632;stroke-width: 12.6970802767433px"/>
      <path d="M827.54,924.17c15.78,12.57,31.28,25.25,36.38,30.46a12.27,12.27,0,0,1,3.67,4.3c2.65,5.09,1.65,11-2.24,13.23a6.39,6.39,0,0,1-1.74.67,12.62,12.62,0,0,1,2.62,3.45c2.65,5.09,1.65,11-2.24,13.23a6.55,6.55,0,0,1-4.25.75,13.27,13.27,0,0,1,1,1.66c2.65,5.09,1.65,11-2.24,13.24-3.24,1.84-7.45.53-10.3-2.89,1.2,4.36,0,8.77-3.26,10.62-3.89,2.22-9.2-.11-11.85-5.2a13,13,0,0,1-.78-1.81,7,7,0,0,1-2.9,3.33c-3.89,2.21-9.2-.11-11.85-5.2a13,13,0,0,1-1.35-4.17,7,7,0,0,1-1.48,1.17c-3.89,2.21-9.2-.11-11.85-5.2a12.81,12.81,0,0,1-1.48-5.62c-2-10.38-3.76-27.54-7-50.52Z" style="fill: #39b54a;stroke: #3a3632;stroke-width: 13.9172165752517px"/>
      <path d="M910.67,927.4c-11.28,7.26-22.58,14.33-26.95,16.43a8.12,8.12,0,0,1-3.5,1.4c-3.77.58-7.29-1.31-7.86-4.24a4.3,4.3,0,0,1-.05-1.24,8.38,8.38,0,0,1-2.73.92c-3.77.59-7.29-1.31-7.86-4.23a4.36,4.36,0,0,1,.43-2.84,8.41,8.41,0,0,1-1.27.3c-3.77.59-7.29-1.31-7.86-4.23-.47-2.44,1.25-4.81,4-5.88-3-.17-5.53-1.89-6-4.32-.57-2.93,2-5.77,5.8-6.36a9.78,9.78,0,0,1,1.31-.11,4.6,4.6,0,0,1-1.48-2.53c-.57-2.93,2-5.78,5.81-6.36a8.59,8.59,0,0,1,2.91,0A4.37,4.37,0,0,1,865,903c-.57-2.92,2-5.77,5.81-6.36a8.49,8.49,0,0,1,3.85.27c7,1,18.17,3.5,33.33,6.39Z" style="fill: #39b54a;stroke: #3a3632;stroke-width: 9.26033361877146px"/>
      <path d="M947.25,910.27c.44,18.34.64,36.56,0,43.16a11.16,11.16,0,0,1-.86,5.07c-2,4.82-6.72,7.58-10.54,6.16a5.49,5.49,0,0,1-1.48-.83,11.35,11.35,0,0,1-.88,3.84c-2,4.82-6.72,7.58-10.54,6.16a6,6,0,0,1-3-2.52,11.15,11.15,0,0,1-.56,1.69c-2,4.82-6.72,7.58-10.53,6.16-3.18-1.18-4.73-4.89-4-8.88-2.34,3.39-6.14,5.11-9.32,3.93-3.81-1.42-5.28-6.48-3.28-11.31a11.86,11.86,0,0,1,.81-1.59,6.42,6.42,0,0,1-4-.09c-3.82-1.42-5.29-6.48-3.28-11.3a11.75,11.75,0,0,1,2.12-3.38,5.72,5.72,0,0,1-1.68-.35c-3.82-1.42-5.29-6.48-3.29-11.3a11.71,11.71,0,0,1,3.06-4.31c6.08-7.44,17-18.7,31.19-34.33Z" style="fill: #39b54a;stroke: #3a3632;stroke-width: 12.6593851973434px"/>
      <path d="M939.89,950.56c11.84-.42,23.61-.68,27.88-.31a7.24,7.24,0,0,1,3.27.52c3.13,1.26,5,4.29,4.06,6.76a3.92,3.92,0,0,1-.52,1,7.52,7.52,0,0,1,2.48.53c3.13,1.26,5,4.29,4.06,6.76a3.88,3.88,0,0,1-1.61,2,7.78,7.78,0,0,1,1.1.35c3.13,1.25,4.94,4.28,4,6.76-.74,2.06-3.12,3.08-5.7,2.64,2.21,1.49,3.34,3.93,2.6,6-.88,2.48-4.14,3.46-7.27,2.21a8.36,8.36,0,0,1-1-.51,4.1,4.1,0,0,1,0,2.59c-.89,2.47-4.15,3.46-7.28,2.2a7.66,7.66,0,0,1-2.19-1.34,4.14,4.14,0,0,1-.22,1.09c-.89,2.47-4.14,3.46-7.27,2.2a7.55,7.55,0,0,1-2.81-1.94c-4.85-3.87-12.2-10.85-22.4-19.89Z" style="fill: #39b54a;stroke: #3a3632;stroke-width: 8.17574189091168px"/>
      <path d="M1033.65,924.49c-3.74,13.16-7.62,26.17-9.55,30.73a8.37,8.37,0,0,1-1.73,3.41c-2.5,3-6.47,3.92-8.87,2.06a4,4,0,0,1-.87-.92,8.51,8.51,0,0,1-1.48,2.55c-2.49,3-6.46,3.91-8.86,2a4.4,4.4,0,0,1-1.58-2.46,9.71,9.71,0,0,1-.77,1.08c-2.49,3-6.46,3.92-8.87,2.06-2-1.54-2.28-4.52-.88-7.2-2.42,1.89-5.5,2.28-7.5.73-2.41-1.85-2.33-5.78.16-8.77a8.46,8.46,0,0,1,.93-1,4.67,4.67,0,0,1-2.84-1c-2.41-1.85-2.34-5.78.16-8.77a8.73,8.73,0,0,1,2.25-1.94,4.25,4.25,0,0,1-1.12-.62c-2.4-1.85-2.33-5.78.16-8.77a8.63,8.63,0,0,1,3.13-2.39c6-4,16.25-9.56,29.8-17.56Z" style="fill: #39b54a;stroke: #3a3632;stroke-width: 9.43849440236612px"/>
      <path d="M845,900.43c-1.37,14.53-2.92,29-4.06,34.1a8.84,8.84,0,0,1-1.15,3.93c-2,3.62-6,5.36-8.9,3.88a4.41,4.41,0,0,1-1.1-.79,9.11,9.11,0,0,1-1,3c-2,3.63-6,5.36-8.9,3.89a4.74,4.74,0,0,1-2.14-2.28,9.86,9.86,0,0,1-.6,1.28c-2,3.63-6,5.37-8.9,3.89-2.4-1.23-3.28-4.31-2.33-7.39-2.17,2.46-5.33,3.46-7.73,2.23-2.89-1.48-3.57-5.62-1.54-9.24a9.82,9.82,0,0,1,.79-1.19,5.07,5.07,0,0,1-3.17-.44c-2.88-1.48-3.57-5.62-1.54-9.24a9.59,9.59,0,0,1,2-2.47,4.67,4.67,0,0,1-1.29-.43c-2.89-1.48-3.58-5.62-1.54-9.24a9.18,9.18,0,0,1,2.82-3.12c5.5-5.32,15.2-13.19,27.86-24.22Z" style="fill: #39b54a;stroke: #3a3632;stroke-width: 10.0747042966791px"/>
      <path d="M797,884.93c8.36,16.24,16.46,32.46,18.74,38.66a11.15,11.15,0,0,1,1.43,4.91c.31,5.19-2.72,9.71-6.76,10.1a5.54,5.54,0,0,1-1.68-.09,11.32,11.32,0,0,1,.88,3.81c.31,5.19-2.72,9.71-6.76,10.1a6,6,0,0,1-3.78-.95,12.29,12.29,0,0,1,.24,1.75c.3,5.19-2.73,9.71-6.76,10.1-3.36.32-6.36-2.32-7.44-6.21-.62,4-3.28,7.24-6.63,7.56-4,.39-7.56-3.5-7.86-8.69a11.71,11.71,0,0,1,0-1.78,6.37,6.37,0,0,1-3.63,1.67c-4,.39-7.56-3.5-7.86-8.69a11.91,11.91,0,0,1,.43-3.95,5.87,5.87,0,0,1-1.66.42c-4,.39-7.55-3.5-7.85-8.69a11.71,11.71,0,0,1,.86-5.19c2.21-9.31,7.12-24.15,13-44.31Z" style="fill: #39b54a;stroke: #3a3632;stroke-width: 12.6013128995672px"/>
      <path d="M765.6,978.88c-9.65,4.52-19.3,8.87-23,10.06a6.45,6.45,0,0,1-2.9.73c-3,.06-5.6-1.81-5.73-4.17a3.17,3.17,0,0,1,.09-1,6.77,6.77,0,0,1-2.25.43c-3,.06-5.6-1.81-5.74-4.17a3.49,3.49,0,0,1,.65-2.19,7,7,0,0,1-1,.1c-3,.06-5.61-1.81-5.74-4.17-.11-2,1.5-3.66,3.79-4.2-2.35-.46-4.15-2.07-4.26-4-.14-2.36,2.21-4.33,5.25-4.39a7,7,0,0,1,1,.06,3.74,3.74,0,0,1-.89-2.16c-.13-2.36,2.22-4.32,5.25-4.38a6.83,6.83,0,0,1,2.29.34,3.63,3.63,0,0,1-.2-1c-.14-2.36,2.21-4.33,5.24-4.39a6.71,6.71,0,0,1,3,.63c5.38,1.5,13.92,4.69,25.55,8.58Z" style="fill: #39b54a;stroke: #3a3632;stroke-width: 7.35627722133437px"/>
      <path d="M769.33,1006.15c13.06,1.57,26,3.29,30.64,4.43a8,8,0,0,1,3.51,1.13c3.22,1.91,4.7,5.55,3.3,8.11a4,4,0,0,1-.74,1,8.06,8.06,0,0,1,2.64,1c3.21,1.91,4.69,5.54,3.29,8.11a4.25,4.25,0,0,1-2.1,1.87,9.45,9.45,0,0,1,1.15.57c3.22,1.91,4.69,5.55,3.29,8.11-1.16,2.14-3.95,2.86-6.71,1.93,2.17,2,3,4.88,1.84,7-1.4,2.56-5.14,3.09-8.36,1.18a9.32,9.32,0,0,1-1.05-.74,4.61,4.61,0,0,1-.48,2.84c-1.4,2.57-5.14,3.09-8.36,1.18A8.58,8.58,0,0,1,789,1052a4.49,4.49,0,0,1-.42,1.16c-1.4,2.56-5.14,3.09-8.36,1.17a8.42,8.42,0,0,1-2.75-2.61c-4.66-5.08-11.54-14-21.19-25.66Z" style="fill: #39b54a;stroke: #3a3632;stroke-width: 9.08182653219654px"/>
      <path d="M859.52,1016.53c-10.68,11.53-21.41,22.84-25.76,26.5a9.58,9.58,0,0,1-3.55,2.6c-4.11,1.77-8.65.65-10.15-2.5a5,5,0,0,1-.42-1.4,9.62,9.62,0,0,1-2.82,1.84c-4.11,1.77-8.65.65-10.15-2.5a5.07,5.07,0,0,1-.34-3.34,10.76,10.76,0,0,1-1.35.71c-4.11,1.77-8.65.65-10.15-2.5-1.25-2.62,0-5.82,2.84-7.84-3.46.69-6.82-.52-8.07-3.14-1.49-3.15.62-7.14,4.73-8.91a9.9,9.9,0,0,1,1.45-.49,5.46,5.46,0,0,1-2.42-2.45c-1.5-3.15.62-7.14,4.72-8.91a10.4,10.4,0,0,1,3.32-.81,4.78,4.78,0,0,1-.82-1.21c-1.5-3.15.61-7.14,4.72-8.91a10.14,10.14,0,0,1,4.45-.82c8.17-.94,21.61-1.34,39.63-2.49Z" style="fill: #39b54a;stroke: #3a3632;stroke-width: 10.8391092957921px"/>
      <path d="M888.07,986.88c-17.57,8.35-35.11,16.41-41.79,18.63a11.84,11.84,0,0,1-5.27,1.35c-5.54.15-10.24-3.23-10.52-7.53a6,6,0,0,1,.16-1.8,12,12,0,0,1-4.1.81c-5.53.15-10.24-3.23-10.51-7.53a6.25,6.25,0,0,1,1.14-4,12.6,12.6,0,0,1-1.87.19c-5.54.15-10.25-3.23-10.52-7.54-.23-3.58,2.69-6.68,6.86-7.7-4.29-.8-7.59-3.74-7.82-7.32-.28-4.31,4-7.92,9.52-8.07a13.07,13.07,0,0,1,1.89.1,6.87,6.87,0,0,1-1.65-3.93c-.27-4.31,4-7.92,9.52-8.06a12.72,12.72,0,0,1,4.19.59,6.29,6.29,0,0,1-.39-1.78c-.27-4.31,4-7.92,9.52-8.06a12.43,12.43,0,0,1,5.49,1.1c9.84,2.67,25.46,8.39,46.72,15.35Z" style="fill: #39b54a;stroke: #3a3632;stroke-width: 13.4195632660889px"/>
      <path d="M885.86,957.63c13,9.42,25.77,18.92,30,22.88a9.63,9.63,0,0,1,3.07,3.28c2.3,4,1.72,8.69-1.29,10.6a5.1,5.1,0,0,1-1.36.59,10.31,10.31,0,0,1,2.21,2.64c2.29,4,1.71,8.69-1.3,10.6a5.18,5.18,0,0,1-3.34.75,12,12,0,0,1,.88,1.28c2.29,4,1.71,8.69-1.3,10.6-2.5,1.58-5.9.69-8.29-1.92,1.12,3.42.3,7-2.2,8.56-3,1.9-7.31.24-9.61-3.7a11.4,11.4,0,0,1-.68-1.41,5.53,5.53,0,0,1-2.19,2.75c-3,1.9-7.31.24-9.6-3.7a10.54,10.54,0,0,1-1.23-3.27,5.09,5.09,0,0,1-1.13,1c-3,1.9-7.31.25-9.6-3.7a10.21,10.21,0,0,1-1.38-4.41c-2-8.18-4-21.75-7.37-39.89Z" style="fill: #39b54a;stroke: #3a3632;stroke-width: 11.0695536933702px"/>
      <path d="M904.7,999c12.95,9.9,25.68,19.89,29.89,24a9.88,9.88,0,0,1,3,3.41c2.23,4.07,1.52,8.87-1.59,10.73a5.13,5.13,0,0,1-1.4.56,10.5,10.5,0,0,1,2.18,2.74c2.22,4.07,1.51,8.88-1.6,10.73a5.35,5.35,0,0,1-3.41.68,11.1,11.1,0,0,1,.86,1.32c2.22,4.07,1.51,8.87-1.6,10.73-2.58,1.54-6,.55-8.37-2.17,1.05,3.5.13,7.09-2.46,8.63-3.1,1.86-7.43.06-9.65-4a10.89,10.89,0,0,1-.66-1.44,5.69,5.69,0,0,1-2.29,2.73c-3.11,1.85-7.43.06-9.66-4a10.87,10.87,0,0,1-1.16-3.35,5,5,0,0,1-1.17,1c-3.11,1.86-7.43.06-9.66-4a10.38,10.38,0,0,1-1.28-4.51c-1.78-8.36-3.49-22.19-6.44-40.7Z" style="fill: #39b54a;stroke: #3a3632;stroke-width: 11.2445280723141px"/>
      <path d="M944.08,1007.74c13,7.57,25.84,15.25,30.18,18.55a9.08,9.08,0,0,1,3.17,2.77c2.52,3.47,2.42,8-.21,10a5.06,5.06,0,0,1-1.22.68,9.32,9.32,0,0,1,2.31,2.26c2.52,3.47,2.42,8-.21,10a4.84,4.84,0,0,1-3.05,1,9.43,9.43,0,0,1,.94,1.12c2.51,3.47,2.42,7.95-.22,10-2.19,1.72-5.44,1.21-7.92-1,1.36,3.09.94,6.48-1.25,8.2-2.63,2.06-6.81.91-9.32-2.56a9.55,9.55,0,0,1-.77-1.25,5.25,5.25,0,0,1-1.78,2.77c-2.63,2.06-6.8.92-9.32-2.55a9.89,9.89,0,0,1-1.45-2.93,4.69,4.69,0,0,1-1,1c-2.63,2.06-6.8.92-9.31-2.55a9.55,9.55,0,0,1-1.7-4c-2.6-7.45-5.77-19.93-10.63-36.55Z" style="fill: #39b54a;stroke: #3a3632;stroke-width: 10.3885824699303px"/>
      <path d="M929.41,987.17c13.19-1.88,26.3-3.58,31.12-3.66a8.09,8.09,0,0,1,3.73.18c3.65,1,6,4.2,5.34,7.08a4.09,4.09,0,0,1-.47,1.14,8.59,8.59,0,0,1,2.85.3c3.65,1,6,4.2,5.34,7.07a4.31,4.31,0,0,1-1.56,2.39,8.26,8.26,0,0,1,1.26.25c3.65,1,6,4.2,5.35,7.08-.59,2.39-3.13,3.82-6.07,3.64,2.65,1.39,4.21,4,3.63,6.38-.7,2.87-4.22,4.37-7.87,3.33a9.81,9.81,0,0,1-1.22-.44,4.61,4.61,0,0,1,.28,2.9c-.7,2.87-4.22,4.37-7.87,3.33a8.45,8.45,0,0,1-2.62-1.24,4,4,0,0,1-.1,1.24c-.7,2.88-4.23,4.37-7.87,3.34a8.47,8.47,0,0,1-3.37-1.84c-5.89-3.75-14.94-10.68-27.43-19.56Z" style="fill: #39b54a;stroke: #3a3632;stroke-width: 9.19311370691037px"/>
      <path d="M1019.49,984.57c6.73,13.46,13.24,26.89,15.06,32a9.24,9.24,0,0,1,1.13,4.06c.2,4.28-2.34,8-5.67,8.25a4.89,4.89,0,0,1-1.38-.09,9.55,9.55,0,0,1,.69,3.15c.2,4.28-2.34,8-5.67,8.25a4.86,4.86,0,0,1-3.1-.82,9.59,9.59,0,0,1,.17,1.45c.2,4.27-2.33,8-5.66,8.25-2.77.23-5.21-2-6.07-5.19-.55,3.33-2.76,5.93-5.53,6.16-3.33.28-6.19-3-6.39-7.23a11.92,11.92,0,0,1,0-1.47,5.18,5.18,0,0,1-3,1.34c-3.33.28-6.19-3-6.39-7.23a9.87,9.87,0,0,1,.39-3.25,4.83,4.83,0,0,1-1.36.33c-3.33.28-6.19-3-6.39-7.24a9.72,9.72,0,0,1,.76-4.26c1.91-7.65,6.1-19.82,11.14-36.36Z" style="fill: #39b54a;stroke: #3a3632;stroke-width: 10.3783936521259px"/>
      <path d="M1075.46,960.83c5.45,19.11,10.63,38.14,11.73,45.24a12,12,0,0,1,.48,5.54c-.79,5.6-5,9.78-9.37,9.33a6.31,6.31,0,0,1-1.78-.46,12.31,12.31,0,0,1,.13,4.26c-.78,5.6-5,9.77-9.36,9.33a6.48,6.48,0,0,1-3.84-1.83,12.53,12.53,0,0,1-.12,1.92c-.79,5.6-5,9.78-9.37,9.33-3.65-.37-6.28-3.84-6.6-8.22-1.53,4.19-5,7-8.7,6.65-4.38-.44-7.3-5.35-6.52-11a13,13,0,0,1,.42-1.89,6.94,6.94,0,0,1-4.24,1c-4.38-.44-7.3-5.35-6.52-10.95a12.78,12.78,0,0,1,1.31-4.11,6.8,6.8,0,0,1-1.86.09c-4.39-.45-7.31-5.35-6.52-11a12.61,12.61,0,0,1,2-5.35c4.35-9.46,12.74-24.23,23.33-44.47Z" style="fill: #39b54a;stroke: #3a3632;stroke-width: 13.7073861559393px"/>
      <path d="M1116.93,1019.17c-9.66,6.51-19.33,12.85-23.08,14.75a7.2,7.2,0,0,1-3,1.28c-3.26.58-6.35-1-6.9-3.53a3.57,3.57,0,0,1-.06-1.08,7.28,7.28,0,0,1-2.36.85c-3.26.58-6.35-1-6.9-3.53a3.77,3.77,0,0,1,.33-2.47,6.56,6.56,0,0,1-1.1.28c-3.26.58-6.35-1-6.9-3.52-.45-2.11,1-4.2,3.38-5.18-2.61-.09-4.83-1.53-5.28-3.63-.55-2.53,1.65-5,4.91-5.63a7.44,7.44,0,0,1,1.13-.11,4.07,4.07,0,0,1-1.32-2.18c-.55-2.53,1.65-5,4.92-5.62a7.42,7.42,0,0,1,2.53,0,3.71,3.71,0,0,1-.39-1c-.55-2.53,1.66-5,4.92-5.63a7.48,7.48,0,0,1,3.35.16c6.06.71,15.82,2.71,29,4.93Z" style="fill: #39b54a;stroke: #3a3632;stroke-width: 8.03631739043649px"/>
      <path d="M1141.36,977.86c10.08,7.64,20,15.35,23.26,18.55a7.62,7.62,0,0,1,2.37,2.64c1.74,3.15,1.2,6.88-1.21,8.33a3.72,3.72,0,0,1-1.08.44,7.79,7.79,0,0,1,1.69,2.12c1.75,3.16,1.21,6.88-1.2,8.33a4.1,4.1,0,0,1-2.65.54,9,9,0,0,1,.67,1c1.74,3.16,1.2,6.89-1.2,8.33-2,1.21-4.66.45-6.51-1.65.83,2.72.12,5.5-1.88,6.71-2.4,1.45-5.76.07-7.51-3.09a8,8,0,0,1-.51-1.12,4.37,4.37,0,0,1-1.77,2.13c-2.41,1.45-5.77.07-7.51-3.08a8.41,8.41,0,0,1-.91-2.6,3.72,3.72,0,0,1-.91.76c-2.4,1.45-5.76.07-7.51-3.08a8.11,8.11,0,0,1-1-3.5c-1.41-6.48-2.78-17.21-5.13-31.57Z" style="fill: #39b54a;stroke: #3a3632;stroke-width: 8.72799792923249px"/>
      <path d="M1188.07,981.81c-1.85,16.45-3.88,32.75-5.28,38.57a10,10,0,0,1-1.39,4.42c-2.37,4.07-6.92,6-10.16,4.23a5.34,5.34,0,0,1-1.23-.92,10,10,0,0,1-1.25,3.32c-2.37,4.07-6.92,6-10.16,4.22a5.33,5.33,0,0,1-2.38-2.62,11.33,11.33,0,0,1-.7,1.45c-2.38,4.06-6.93,6-10.17,4.22-2.7-1.44-3.62-4.94-2.49-8.42-2.5,2.74-6.11,3.82-8.8,2.38-3.24-1.74-3.94-6.44-1.56-10.51a10.28,10.28,0,0,1,.91-1.32,5.75,5.75,0,0,1-3.57-.57c-3.24-1.73-3.94-6.43-1.56-10.5a10.57,10.57,0,0,1,2.3-2.76,5.2,5.2,0,0,1-1.46-.52c-3.24-1.73-3.94-6.43-1.56-10.5a10.58,10.58,0,0,1,3.26-3.47c6.34-5.92,17.49-14.64,32-26.89Z" style="fill: #39b54a;stroke: #3a3632;stroke-width: 11.4172471009451px"/>
      <path d="M1244.23,990.11c-8.32,10.11-16.71,20-20.15,23.3a7.84,7.84,0,0,1-2.83,2.33c-3.33,1.67-7.16,1-8.56-1.59a3.92,3.92,0,0,1-.42-1.14,8.1,8.1,0,0,1-2.26,1.67c-3.33,1.67-7.17,1-8.57-1.59a4.21,4.21,0,0,1-.44-2.76,9,9,0,0,1-1.09.65c-3.33,1.67-7.17,1-8.57-1.59-1.16-2.12-.27-4.84,2-6.66-2.85.74-5.7-.1-6.87-2.22-1.4-2.55.17-6,3.5-7.64a9.74,9.74,0,0,1,1.18-.48,4.6,4.6,0,0,1-2.12-1.92c-1.4-2.55.16-6,3.49-7.64a8.54,8.54,0,0,1,2.72-.84,4,4,0,0,1-.74-1c-1.4-2.55.17-6,3.5-7.64a8.25,8.25,0,0,1,3.66-.89c6.76-1.19,17.92-2.16,32.86-4Z" style="fill: #39b54a;stroke: #3a3632;stroke-width: 9.03428998105373px"/>
      <path d="M1276.89,1005.59c-7.64,12.33-15.38,24.47-18.68,28.56a8.73,8.73,0,0,1-2.76,3c-3.41,2.32-7.72,2.11-9.64-.48a4.83,4.83,0,0,1-.62-1.19,9.06,9.06,0,0,1-2.24,2.16c-3.41,2.33-7.73,2.11-9.64-.48a4.78,4.78,0,0,1-.9-3,9.52,9.52,0,0,1-1.09.88c-3.41,2.33-7.73,2.11-9.64-.48-1.59-2.16-1-5.28,1.19-7.6-3,1.23-6.27.72-7.86-1.43-1.91-2.59-.7-6.58,2.71-8.9a8.49,8.49,0,0,1,1.23-.71,5,5,0,0,1-2.62-1.79c-1.91-2.59-.7-6.58,2.71-8.91a9.42,9.42,0,0,1,2.86-1.31,5.13,5.13,0,0,1-1-1c-1.91-2.59-.69-6.58,2.72-8.9a9.26,9.26,0,0,1,3.88-1.53c7.25-2.3,19.35-5,35.49-9.24Z" style="fill: #39b54a;stroke: #3a3632;stroke-width: 10.0078311050308px"/>
      <path d="M1281.49,992.86c19.33,3,38.48,6.21,45.28,8.15a11.93,11.93,0,0,1,5.16,1.86c4.68,3,6.69,8.48,4.48,12.22a6.51,6.51,0,0,1-1.15,1.4,12.45,12.45,0,0,1,3.87,1.64c4.68,3,6.69,8.48,4.48,12.22a6.35,6.35,0,0,1-3.22,2.67,12.93,12.93,0,0,1,1.67.91c4.69,3,6.69,8.48,4.48,12.22-1.84,3.11-6,4-10.07,2.52,3.12,3.09,4.21,7.4,2.37,10.51-2.21,3.74-7.8,4.33-12.48,1.32a13.46,13.46,0,0,1-1.52-1.15,6.84,6.84,0,0,1-.85,4.2c-2.21,3.74-7.79,4.33-12.48,1.32a12.72,12.72,0,0,1-3.14-2.86,6.4,6.4,0,0,1-.69,1.7c-2.2,3.73-7.79,4.33-12.48,1.32a12.49,12.49,0,0,1-3.94-4c-6.67-7.78-16.42-21.38-30.16-39.19Z" style="fill: #39b54a;stroke: #3a3632;stroke-width: 13.4967985313399px"/>
    </g>
  </g>
</svg>
