<svg xmlns="http://www.w3.org/2000/svg" height="1187.705" width="1971.021"  xmlns:v="https://vecta.io/nano"><style><![CDATA[.B{stroke:#231f20}.C{stroke-miterlimit:10}.D{stroke:#0d0e19}.E{stroke-linejoin:round}.F{stroke-linecap:round}]]></style><defs><linearGradient gradientUnits="userSpaceOnUse" y2="825.965" x2="927.35" y1="1003.045" x1="1058.97" id="A"><stop stop-color="#fffde5" offset="0"/><stop stop-color="#f7f1df" offset=".11"/><stop stop-color="#e3d2d0" offset=".3"/><stop stop-color="#c39fb7" offset=".56"/><stop stop-color="#965995" offset=".86"/><stop stop-color="#813885" offset="1"/></linearGradient><linearGradient gradientUnits="userSpaceOnUse" y2="925.277" x2="1328.556" y1="1043.087" x1="1183.614" id="B"><stop stop-color="#fffde5" offset="0"/><stop stop-color="#faf5e1" offset=".1"/><stop stop-color="#ebded6" offset=".26"/><stop stop-color="#d3b9c4" offset=".47"/><stop stop-color="#b285ab" offset=".7"/><stop stop-color="#89448b" offset=".96"/><stop stop-color="#813885" offset="1"/></linearGradient><linearGradient gradientUnits="userSpaceOnUse" y2="961.755" x2="791.93" y1="1051.085" x1="613.27" id="C"><stop stop-color="#fffde5" offset="0"/><stop stop-color="#faf5e1" offset=".1"/><stop stop-color="#ecdfd6" offset=".26"/><stop stop-color="#d5bbc5" offset=".46"/><stop stop-color="#b589ac" offset=".69"/><stop stop-color="#8c4a8e" offset=".94"/><stop stop-color="#813885" offset="1"/></linearGradient></defs><g fill="#fff" stroke-width="24" class="B C"><path d="M88.52 1175.705h1794c56.48 0 88.6-45.56 72.24-100.08l-93-309.8c-13-43.18-62.27-77.25-110.48-77.25H219.73c-48.22 0-97.53 34.07-110.5 77.25l-93 309.8c-16.3 54.52 15.84 100.08 72.28 100.08z"/><path d="M168.34 1019.855c26.52 0 53-20.54 59.06-45.53l35.8-147.8c5.4-22.34-10.2-40.2-34.76-40.2s-49.37 17.82-55.45 40.16l-40.3 147.8c-6.8 25 9.1 45.56 35.63 45.56z"/></g><g fill="#813885" stroke-width="12.572" class="D E"><path d="M761.3 496.215c-.74-9-4.93-17.36-9.7-25-6.9-11.06-15.38-21.43-26.38-28.4a51.36 51.36 0 0 0-24.34-8.09c-10.45-2.55-21-4.4-31.72-3.64-14.77 1-30 8-37 21.07-3.23 6-4.93 13.5-10.68 17.2-6.5 4.2-15.4 1.7-22.56 4.68-6.92 2.87-10.8 10.24-13.2 17.34s-4 14.75-8.56 20.68c-6.16 8-16.44 11.27-25 16.67-22.82 14.5-31.68 47.32-19.26 71.34 3.4 6.55 8.2 12.64 9.36 19.94 1 5.9-.63 12 0 17.9a24 24 0 0 0 34.85 18.69c2.38-1.22 4.64-2.88 7.3-3.2 2.46-.3 4.9.62 7.18 1.56 18.87 7.74 36.48 19 56.37 23.5s43.9.1 54.67-17.22c4.93-8 6.48-17.63 11.27-25.66 11.93-20 39.54-24.14 55.66-40.9a47.81 47.81 0 0 0 13-37c-.4-4.25-1.42-8.58-4-12-2.26-2.93-5.5-4.9-8.25-7.38a29.6 29.6 0 0 1-9.43-17.56c-1.12-8.1 1.1-16.34.43-24.48z"/><path d="M639.16 569.315c-.47-9-4.4-17.5-9-25.3-6.56-11.26-14.73-21.87-25.52-29.18a51.45 51.45 0 0 0-24.09-8.81c-10.36-2.86-20.9-5-31.6-4.58-14.8.6-30.22 7.1-37.6 19.95-3.4 5.94-5.33 13.34-11.2 16.88-6.63 4-15.44 1.24-22.68 4-7 2.67-11.12 9.9-13.72 16.94s-4.4 14.62-9.18 20.4c-6.4 7.78-16.77 10.77-25.43 15.92-23.25 13.8-33.1 46.36-21.38 70.73 3.2 6.66 7.8 12.9 8.76 20.2.77 5.93-1 11.93-.5 17.9a24 24 0 0 0 34.28 19.72c2.4-1.15 4.73-2.74 7.4-3 2.47-.22 4.87.76 7.14 1.77 18.63 8.3 35.88 20.1 55.64 25.17s43.9 1.42 55.15-15.6c5.17-7.8 7-17.42 12-25.3 12.5-19.6 40.24-22.95 56.86-39.23a47.82 47.82 0 0 0 14.07-36.63c-.26-4.25-1.17-8.6-3.66-12.07-2.17-3-5.35-5.07-8-7.62a29.68 29.68 0 0 1-8.9-17.84c-.93-8.1 1.57-16.27 1.15-24.43z"/><path d="M625 781.505c2.05-10.88.12-22.32-2.68-33.2-4-15.68-10-31.15-19.88-43.63-6.5-8.25-14.87-15.07-24.08-18.93-10.64-7-21.66-13.3-33.6-16.56-16.5-4.48-35.38-2.17-47.18 10.5-5.45 5.85-9.67 14-17.15 16.1-8.46 2.42-17.4-4-26.18-3.23-10.4.86-16.7 11.32-24.15 17.8-9.48 8.25-20.53 12.8-30.54 20.07-11 8-18.63 20.12-26 32-3.7 5.93-7.44 12-9.3 18.9s-1.6 15 2.34 21c2.32 3.57 5.75 6.26 7.66 10.1 6 12-6.06 25.8-3.72 39.12 2.1 12 15.1 19.3 17.65 31.25 1.25 5.9-.27 12.13 1.38 17.92 2.44 8.55 17.92 25.74 26.38 26.1 5.25.22 10.35-2.58 15.54-1.53 9 1.8 15.7 14.55 24.43 12.12 5.4-1.5 8.17-8.43 13.5-10.18 5.76-1.9 11.56 2.86 17.27 5.34a24.08 24.08 0 0 0 18.68.26c4-1.64 7.42-4.33 11.1-6.6 26.38-16.23 60-10.24 86.48-25.75 13.33-7.82 23.06-22.27 26-38.55.92-5.15 1.16-10.65-.6-15.63-1.55-4.32-4.47-7.9-6.7-11.87a40.2 40.2 0 0 1-4.75-24.31c1.18-9.95 6.24-18.8 8.1-28.63zm114.08-305.58c-8 2.8-15.76 6.48-22.88 13.4-9.34 9.1-17.67 19.58-22.15 31.82a51.38 51.38 0 0 0-2.72 25.5c-.27 10.75.2 21.5 3.2 31.77 4.17 14.2 14.22 27.6 28.46 31.64 6.6 1.87 14.23 1.94 19.08 6.77 5.5 5.47 4.94 14.7 9.37 21 4.28 6.15 12.3 8.4 19.76 9.2s15.25.74 22 4c9.1 4.33 14.5 13.67 21.6 20.83 19 19.2 53 20.9 73.8 3.63 5.7-4.7 10.62-10.7 17.5-13.4 5.57-2.17 11.8-1.93 17.48-3.83a24 24 0 0 0 10.85-38c-1.7-2.06-3.8-3.92-4.68-6.45-.8-2.34-.44-4.9 0-7.35 3.55-20.1 10.8-39.68 11-60.08s-9.24-42.93-28.46-49.75c-8.82-3.13-18.6-2.58-27.48-5.55-18.54-6.25-29.06-35.77-49.7-33.1-7 .9-14 3.75-20.85 2.3-5.8-1.22-10.7-5.36-16.57-6.24-8.44-1.28-16.13 4.36-23.46 8.73-11.76 7.05-23.74 9.17-35.12 13.12z"/><path d="M1073 669.855a7.38 7.38 0 0 0-.56-4c-1.54-3.63-4.6-6.85-4.64-10.8-.06-4.85 4.5-9.57 3.7-14.32-1.26-7.42-13.73-8.8-17.85-15.3-2-3.14-1.7-7-2.4-10.6-1.45-7.35-7.5-13.68-15.64-16.4-5.85-1.94-12.87-2.23-17.37-5.83-5.15-4.12-6.2-10-14.47-10.62-6.7-.52-16.6 4.53-18.83-3-.68-2.35-.42-4.9-1-7.26a11.62 11.62 0 0 0-6.61-7.44c-6.2-2.8-15-1.56-19.8-5.87-3.34-3-4-8.3-8.62-9.77a12.27 12.27 0 0 0-6 0c-7.76 1.57-15.24 6.2-22.9 5.2-10.48-1.38-16-12.75-26.7-12.54-6.16.1-11.44 4.1-16.28 7.62s-10.9 7-16.8 5.9c-2.8-.53-5.15-2.06-8-2.5-4-.64-8.25 1-11.7 3.14-5 3.08-9.88 8.43-15.9 9.82-5 1.16-9.93-.8-14.93-1.35a27.94 27.94 0 0 0-16.11 3.22c-9.75 5.36-14.23 15.73-23.6 21.56-3.25 2-7 3.4-10.17 5.48s-5.95 5.16-5.78 8.4a8.94 8.94 0 0 0 2.11 4.78c4.33 5.7 11.75 10.6 11 17.62-.6 5.7-6.44 10.16-9.95 15.24s-4.7 11-3.07 16.32c1.45 4.73 5 8.67 7.73 12.9 8.8 13.58-3.48 29.16-.9 44.12 1.3 7.55 4.46 15 2.84 22.7-1.8 8.5-9 16.3-9.45 24.9a19.49 19.49 0 0 0 12.57 19 26.55 26.55 0 0 1 5.35 2.33c4.88 3.37 3.77 10.66 8.67 14 3.22 2.2 8 2 12.3 1.66l15.4-1.17a10.82 10.82 0 0 1 4.7.33 7.29 7.29 0 0 1 3.11 2.8c2.87 4 5.15 8.34 8.34 12.16a23.23 23.23 0 0 0 13 8.29c6.2 1.25 13.6-.4 18.8 2.56 5 2.84 5.9 8.8 9.76 12.7a16.07 16.07 0 0 0 11.8 4.26c5.26-.2 10.2-2.58 15.1-4.52 14.3-5.7 30-5.3 42.5-14.54 5.27-3.9 8.45-8.9 14.4-12.36a19.07 19.07 0 0 1 4.63-2.06c4.24-1.13 8.62.12 13 0 5.62-.18 11.07-2.73 15.3-6.1s7.4-7.57 10.36-11.76c2.6-3.68 5.4-7.67 10-9.46a25.4 25.4 0 0 1 6.24-1.31c6.8-.82 13.67-1.4 20.24-3.3s13-5.28 16.6-10.34 4.17-11.12 8.43-15.7c3.73-4 9.77-6.27 13.08-10.5 4-5.1 2.95-11.58 1-17.12-3.2-9.28-9.45-16.13-7.1-26.54 1.24-5.5 4-11.1 7-16.24 1.7-3 3.74-5.56 4.15-8.4z"/><path d="M912.37 646.125l.64-1.4c5-11.64.24-24.13-2.92-35.63-4.7-17.1-12.3-33.8-25.67-46.9-9-8.84-19.36-12.6-30.14-18.3-10.3-5.46-18.22-10.56-30.64-8.6-4.6.73-9.2 2.3-13.82 1.66-7.4-1-12.94-7.4-20.07-9.6-17.2-5.3-33.92 15.06-51.53 11.38-6.32-1.33-11.8-5.68-18.23-6.28-14.1-1.3-23.67 15.13-37.5 18.1-7.64 1.64-15.67-1.07-23.35.33-18 3.27-26.17 26.65-43.78 31.6-7.7 2.16-16.7.6-23.06 5.46-5.88 4.5-7.23 12.9-12.3 18.33-8.92 9.54-24.87 6.22-36.77 11.62a26.7 26.7 0 0 0-15.27 21.62c-.3 3.47 0 7.27-2 10.12-2.14 3.06-6.17 4-9.68 5.25-21.33 7.87-22.6 30.48-19.32 49.5 1.7 9.9 5.87 19.65 3.68 29.74-1.76 8.17-7.55 15.66-9.8 23.78a27.88 27.88 0 0 0 9.42 28.98c8.07 6.74 19.53 9.66 29.82 8.37 12.3-1.56 20.15-.82 30.8 7 9.07 6.66 17.76 15.05 28.9 16.68 4.4.65 9.38.32 12.74 3.25 2.1 1.8 3.1 4.54 4.67 6.82 6.2 9 19.3 9.2 30.1 7.6 4.5-.67 10.25-.9 12.28 3.17a26.18 26.18 0 0 1 1.17 4.34c1.62 5.35 8 8 13.54 7.56s10.72-3 16-4.72 11.42-2.65 16.25.15 7.55 8.48 12.8 9.78c3 .74 6.2-.25 9.08-1.46a57.58 57.58 0 0 0 25.61-21.29c4.82-7.32 9.7-12.15 19.12-11.34 4 .35 8 1.32 12 1 7-.62 13.12-5.2 18.18-10.15 2.6-2.56 5.15-5.33 8.44-6.93 8.6-4.2 19 .8 28.4-1.12 8-1.63 14.1-8.06 18.33-15a28.89 28.89 0 0 1 4.24-6c3.8-3.64 9.46-4.3 14.65-5.14a105.66 105.66 0 0 0 25.21-7.47c2-.85 4-1.85 5.2-3.62 2.06-3 1.07-7.12 2.07-10.63 1.87-6.63 9.94-9.3 13.83-15 2.55-3.72 3.1-8.52 2.45-13-.62-4.3-2-9.54-4.7-12.94-2.5-3.12-6.52-4.77-8.83-8.1-3.27-4.68-1.94-11.1.2-16.4s5-10.7 4.32-16.37c-.4-3.42-2-6.6-2.35-10-.6-7.16 4.45-13.26 7.6-19.77z"/></g><path d="M1540.92 524.065s-254.73 164.13-506.1 283.65c-293 139.3-594 228.84-632.2 163.75-25.33-43.24 985.94-682.12 985.94-682.12z" fill="#d1d3d4" stroke-width="24" class="B C"/><path d="M1914.5 158.725l-392.24 172.46a41.43 41.43 0 0 0-24.65 40.82h0a41.42 41.42 0 0 1-22.19 39.64l-5.58 2.9-82.67-127.37 418.33-271.53c11.5-7.47 27.62-3.1 36 9.78l80.14 95.63c8.72 13.47 5.45 30.8-7.14 37.67z" fill="#231f20"/><g stroke-width="8"><path d="M1095.45 978.855a128.31 128.31 0 0 1-55.1-69.9c-3.38-10.56-5-23.15 1.83-31.86 2.6-3.32 6.54-6.86 5.2-10.85-.75-2.26-3-3.62-4.34-5.6-3.72-5.5.9-12.8 5.86-17.2 5.4-4.76 11.5-8.78 16.08-14.33s7.42-13.3 4.83-20c-3.45-9-14.36-12-23.8-13.9 4.34-15.1-12.6-29.38-28.3-28.76s-29.14 10.82-41.44 20.57c-5.65-10.84-18.2-17.2-30.43-16.6s-23.6 7.57-30.84 17.4c-3.64 4.95-6.4 10.65-10.94 14.8-11.3 10.3-31.65 9.2-38.86 22.67s4.1 33.7-7.1 44.17c-2.55 2.4-5.94 3.77-8.4 6.26-6.9 7-3.6 19 2 27s13.25 15.54 14.42 25.3c.68 5.68-1 11.4-.72 17.12a25 25 0 0 0 43.68 15.34c2.7-3 4.75-6.84 8.3-8.8 2.76-1.54 6-1.74 9.2-1.9l55.12-2.83c4.27-.22 8.62-.43 12.76.65 13.45 3.53 19.67 18.7 23.6 32 4.86 16.48 3.38 50.53 3.38 50.53s34.8-1 50.7-13.62 24.24-30.36 25.2-32.52.13-3.92-1.9-5.12z" fill="url(#A)" class="B C"/><path d="M976.02 855.385l30.3 38 5.62-51.1m-55.52 30.4l25.35 35.37-51.86 1.26" fill="none" class="D E F"/><path d="M1184.98 1081.285a105.11 105.11 0 0 1 57.26-45.19c8.65-2.78 19-4.13 26.1 1.48 2.72 2.13 5.63 5.36 8.9 4.26 1.84-.62 3-2.47 4.57-3.56 4.5-3.05 10.5.72 14.1 4.8 3.9 4.42 7.2 9.43 11.75 13.18s10.9 6.07 16.4 3.95c7.34-2.84 9.84-11.78 11.37-19.5 12.36 3.54 24.07-10.35 23.55-23.2s-8.88-23.88-16.88-34c8.86-4.64 14.06-15 13.57-24.95s-6.22-19.34-14.27-25.26c-4-3-8.73-5.24-12.12-9-8.44-9.27-7.55-25.94-18.6-31.84s-27.6 3.38-36.2-5.8c-2-2.1-3.1-4.87-5.13-6.88-5.73-5.66-15.54-3-22.16 1.62s-12.73 10.87-20.72 11.83c-4.65.56-9.35-.8-14-.58a20.5 20.5 0 0 0-12.52 35.86c2.5 2.2 5.6 3.88 7.22 6.8 1.26 2.26 1.43 5 1.56 7.54l2.35 45.17c.18 3.5.36 7.07-.53 10.46-2.9 11-15.32 16.13-26.25 19.36-13.5 4-28.14 7.53-41.4 2.8a57.65 57.65 0 0 0-3.13 18.66c-.05 9.34 6.8 17.3 14.3 22.9s16.1 9.86 22.34 16.8c1.3 1.44 2.55 3 4.33 3.82s3.2.17 4.22-1.5z" fill="url(#B)" class="B C"/><path d="M1279.74 998.145l-24.8 10.05 41.9 4.58m-38.38-52.87l-14 31.97-.94-37.8" fill="none" class="D E F"/><path d="M632.08 1076.565a105.14 105.14 0 0 1 65.52-32.07c9-.88 19.4 0 25.2 7 2.2 2.66 4.37 6.43 7.8 6.05 1.94-.22 3.42-1.8 5.23-2.5 5-2 10.1 2.92 12.77 7.66 2.88 5.14 5 10.74 8.7 15.36s9.36 8.24 15.2 7.33c7.78-1.22 12.1-9.43 15.24-16.66 11.33 6.08 25.7-5 27.92-17.7s-3.63-25.2-9.32-36.75c9.64-2.66 16.9-11.65 18.54-21.5s-2-20.22-8.6-27.7c-3.33-3.78-7.42-7-9.95-11.32-6.3-10.84-1.9-27-11.45-35.06s-27.7-2.53-34.16-13.32c-1.47-2.46-2-5.42-3.56-7.82-4.4-6.74-14.56-6.17-22-3.1s-14.73 7.93-22.75 7.18c-4.67-.43-9-2.77-13.6-3.53a20.5 20.5 0 0 0-19.82 32.4c2 2.68 4.66 5 5.63 8.17.75 2.48.34 5.14-.07 7.7l-7.26 44.64c-.56 3.46-1.14 7-2.73 10.1-5.15 10.16-18.38 12.53-29.75 13.38-14 1.05-29.1 1.4-41.06-6 .7 6.6-5.56 11.1-7 17.57-2 9.13 3 18.36 9.15 25.4s13.65 13 18.28 21.16c1 1.68 1.85 3.5 3.42 4.64s3.14.72 4.5-.7z" fill="url(#C)" class="B C"/><path d="M742.26 1015.345l-26.35 4.58 39.97 13.33m-26.33-59.8l-20.44 28.3 7.07-37.14" fill="none" class="D E F"/></g></svg>