<svg id="Layer_1" data-name="Layer 1" xmlns="http://www.w3.org/2000/svg" viewBox="0 0 1978 1185"><path d="M93.44,1170.35h1794c56.48,0,88.59-45.56,72.24-100.08l-93-309.81c-13-43.18-62.27-77.25-110.48-77.25H224.65c-48.22,0-97.53,34.07-110.49,77.25l-93,309.81C4.85,1124.79,37,1170.35,93.44,1170.35Z" style="fill:#fff;stroke:#231f20;stroke-miterlimit:10;stroke-width:24px"/><path d="M173.26,1014.47c26.52,0,53-20.54,59.06-45.53l35.81-147.8C273.54,798.8,257.94,781,233.37,781S184,798.8,177.92,821.14l-40.29,147.8C130.82,993.93,146.73,1014.47,173.26,1014.47Z" style="fill:#fff;stroke:#231f20;stroke-miterlimit:10;stroke-width:24px"/><g id="layer1"><path id="path863" d="M674.48,919.3c-159.2-15.53-370.58-211.1-355.4-269.6s387.88-19.63,464,46.76C809.21,783,746.85,890.22,674.48,919.3Z" style="fill:#f37820;stroke:#231f20;stroke-linecap:round;stroke-linejoin:round;stroke-width:24px;isolation:isolate"/></g><path id="path863-2" data-name="path863" d="M668.11,901.87c-24.73-75.81,28.16-171.36,91.37-198.19" style="fill:#f37820;stroke:#231f20;stroke-linecap:round;stroke-linejoin:round;stroke-width:24px;isolation:isolate"/><path d="M1545.84,518.71s-254.73,164.13-506.1,283.65c-293,139.3-594,228.84-632.19,163.75C382.22,922.87,1393.49,284,1393.49,284Z" style="fill:#d0d2d3;stroke:#231f20;stroke-miterlimit:10;stroke-width:24px"/><path d="M1919.41,153.37,1527.17,325.83a41.43,41.43,0,0,0-24.65,40.82h0a41.42,41.42,0,0,1-22.19,39.64l-5.58,2.9-82.67-127.37,36.41-23.63,14.43-9.37L1810.41,10.29c11.51-7.47,27.62-3.09,36,9.78l80.14,95.63C1935.27,129.17,1932,146.45,1919.41,153.37Z" style="fill:#231f20"/><g id="layer1-2" data-name="layer1"><path id="path863-3" data-name="path863" d="M1099.57,878.1c45.32,29,60.5,71.63,60.5,98.8,0,72-72.18,133.3-130,140.37-30.24,2.74-63.16-7.89-97-27C855.15,991.89,990.09,832.63,1099.57,878.1Z" style="fill:#f37820;stroke:#231f20;stroke-linecap:round;stroke-linejoin:round;stroke-width:24px;isolation:isolate"/></g><path d="M1099.57,997.13c-32.28,2.72-54.78,28.5-58.16,56.83" style="fill:none;stroke:#231f20;stroke-linecap:round;stroke-linejoin:round;stroke-width:24px"/></svg>