<svg xmlns="http://www.w3.org/2000/svg" height="1187.705" width="1971.021"  xmlns:v="https://vecta.io/nano"><g fill="#fff" stroke="#231f20" stroke-width="24" stroke-miterlimit="10"><path d="M88.52 1175.705h1794c56.48 0 88.6-45.57 72.24-100.1l-93-309.8c-13-43.17-62.27-77.25-110.48-77.25H219.73c-48.22 0-97.53 34.08-110.5 77.25l-93 309.8c-16.3 54.52 15.84 100.1 72.28 100.1z"/><path d="M168.34 1019.825c26.52 0 53-20.55 59.06-45.54l35.8-147.8c5.4-22.34-10.2-40.2-34.76-40.2s-49.37 17.85-55.45 40.2l-40.3 147.8c-6.8 25 9.1 45.54 35.63 45.54z"/></g><g fill="#16a44a" stroke="#010101" stroke-width="8"><path d="M466.97 473.465c-24.3 15.54-29.6 34.42-35.4 48-38.28 89.87 3.4 162.08 42.43 216.1 70 92.63 203 210.1 281.24 169.64 10.34-6.36 20.68-13.5 28.53-20.55 29.17 6.33 58.1 1.38 86.16-14.52a10.68 10.68 0 0 0 1.7-1.13l.35-.2.47-.27.7-.4.6-.33.12-.07c27.8-16.37 46.6-39.12 55.76-67.73a165.43 165.43 0 0 0 32.65-14.47c88.32-72.2 34.68-237.2-5.82-328.66-27.15-60.86-64.78-130.33-161.9-147.9-12.83-2.33-32.68-4.1-54.44 8.54-19.16 11.14-62.85 46.65-62.85 46.65l-144.6 83.48s-41.4 8.25-65.7 23.8z"/><path d="M755.2 254.525c-1.18-8.194-8.413-14.136-16.68-13.7-3.2.13-79.93 5-127.93 59.3-15.88-22.48-16.7-52.7-25.68-71.6-8.67-18.27-33.7-22.33-57.73-13.78-23 8.24-46.16 30.4-42.83 59.48 3.64 32.34 17.57 62.17 28.6 81.8-72.55 16.68-111.34 77.74-112.94 80.36-4.47 7.162-2.66 16.56 4.15 21.55 28 15.87 77.32 11.2 77.32 11.2 114.14-40.86 148.82-54.1 237.1-126.54 0 0 27.28-48.8 36.62-88.13z"/><path d="M612.82 703.565c-18.43-23.47-35.8-44.08-52-71.5s-29.63-55.1-37.74-79.66c-11.15-33.87-12.72-85.07 8.8-113.5 31.1-41.1 101.22-77.93 138.9-80.2 35.6-2.14 87.54 25.77 128.5 85.4m49.95 94.95c54.08 106.53 125.6 272.33 26.68 331.1-54.6 32.45-144.16-4-204.8-89.6" stroke-linecap="round" stroke-linejoin="round"/></g><path d="M597.73 473.405c-15 9.9-20 32.9-16.1 51.57 9.16 44.15 66.26 118.9 66.26 118.9" fill="none" stroke="#010101" stroke-width="8" stroke-linecap="round" stroke-linejoin="round"/><path d="M1540.92 524.065s-254.73 164.12-506.1 283.64c-293 139.3-594 228.85-632.2 163.75-25.33-43.24 985.94-682.1 985.94-682.1z" fill="#d1d3d4" stroke="#231f20" stroke-width="24" stroke-miterlimit="10"/><path d="M1914.5 158.715l-392.24 172.47a41.42 41.42 0 0 0-24.65 40.81h0a41.4 41.4 0 0 1-22.19 39.64l-5.58 2.9-82.67-127.37 418.33-271.53c11.5-7.47 27.62-3.1 36 9.78l80.14 95.62c8.72 13.47 5.45 30.75-7.14 37.67z" fill="#231f20"/><g fill="#16a44a" stroke-width="8" stroke-linejoin="round" stroke="#0d0e19"><path d="M835.43 830.275c12.07 20.9 91.38 42.58 91.38 42.58 9.43 4.4 17.4 18.7 9.1 25-13.43 10.1-26.7 57.34-26.7 57.34a18.74 18.74 0 0 1-25 9.09c0 0-74.3-48.8-91.38-42.57-9.77 3.56-13.48-15.53-9.1-25 0 0 33.7-44.26 26.7-57.33-4.86-9.2 19.8-18.1 25-9.1z"/><path d="M909.2 955.145c22.42-8.9 55.4-84.22 55.4-84.22 5.72-8.7 21-14.5 26-5.37 8 14.76 52.84 34.77 52.84 34.77a18.74 18.74 0 0 1 5.37 26s-59.08 66.43-55.4 84.22c2.1 10.2-17.32 11.1-26 5.37 0 0-38.9-39.8-52.85-34.77-9.8 3.52-15-22.17-5.36-26zm134.4 17.8c24 1.85 86.76-51.33 86.76-51.33 9-5.3 25.27-3.8 25.73 6.6.74 16.8 32.2 54.44 32.2 54.44a18.74 18.74 0 0 1-6.6 25.73s-82.25 33.73-86.76 51.33c-2.6 10.08-20.43 2.35-25.73-6.6 0 0-17.47-52.83-32.2-54.44-10.34-1.14-3.77-26.52 6.6-25.73z"/><path d="M1221.5 880.025c12.08 20.9 91.38 42.58 91.38 42.58 9.44 4.4 17.4 18.7 9.1 25-13.43 10.1-26.72 57.34-26.72 57.34a18.73 18.73 0 0 1-25 9.09s-74.3-48.8-91.38-42.57c-9.78 3.56-13.5-15.53-9.1-25 0 0 33.7-44.26 26.7-57.33-4.86-9.2 19.8-18.1 25-9.1z"/><path d="M1226 782.075c18.53 15.45 100.46 8.46 100.46 8.46 10.36.88 22.78 11.56 17.13 20.3-9.12 14.1-5.3 63-5.3 63a18.74 18.74 0 0 1-20.29 17.13s-86.57-20.2-100.46-8.46c-7.94 6.7-18-9.93-17.13-20.3 0 0 16.38-53.17 5.3-63-7.77-6.9 12.3-23.8 20.3-17.13z"/><path d="M1406.85 883.795c-23.67 4.7-69.75 72.8-69.75 72.8-7.2 7.5-23.3 10.45-26.55.56-5.24-16-45.68-43.76-45.68-43.76a18.74 18.74 0 0 1-.56-26.55c0 0 70.14-54.63 69.75-72.8-.22-10.4 19-7.77 26.55-.57 0 0 31 46.17 45.67 43.76 10.27-1.7 10.77 24.53.57 26.56z"/><path d="M1287.27 959.505c23.3 6.23 94.72-34.53 94.72-34.53 9.78-3.56 25.53.9 24.08 11.2-2.36 16.64 21.66 59.43 21.66 59.43a18.75 18.75 0 0 1-11.21 24.08s-87 18-94.72 34.52c-4.4 9.43-20.5-1.43-24.08-11.2 0 0-7.47-55.13-21.66-59.43-9.98-3 1.16-26.76 11.2-24.07z"/><path d="M1444.47 806.405c-7.17 23 30.65 96 30.65 96 3.17 9.9-1.94 25.47-12.18 23.6-16.53-3-60.26 19.23-60.26 19.23a18.74 18.74 0 0 1-23.6-12.18s-14.5-87.7-30.65-96c-9.25-4.77 2.27-20.44 12.18-23.6 0 0 55.4-5.23 60.26-19.23 3.42-9.83 26.7 2.24 23.6 12.18z"/></g></svg>