<?xml version="1.0" encoding="UTF-8"?>
<svg id="Layer_2" data-name="Layer 2" xmlns="http://www.w3.org/2000/svg" width="2000" height="2000" viewBox="0 0 2000 2000">
  <g>
    <path d="m1557.6,1364.4c-361.22-44.91-696.76-102.7-976.69-216.5-17.73-7.21-36.09-10.72-54.23-10.87-24.39,52.95-82.46,166.7-85.05,171.86-4.68,7.84-19.05,35.44-21.64,40.6-3.99,6.95-30.58,58.34-40.2,76.38,11.34,15.17,25.78,28.38,43.05,38.57,291.39,171.98,663.41,269.49,1078.39,327.31,61.11,8.51,120.21-9.56,165.11-45.77,4.24-22.99,7.69-46.21,12.02-69.54,10.32-70.35,24.97-138.41,39.16-206.11-32.5-56.08-89.87-97.23-159.92-105.94Z" style="fill: #629e42; stroke: #3a3632; stroke-linecap: round; stroke-linejoin: round; stroke-width: 20px;"/>
    <path d="m1823.96,1661.91c2.81,23.56,6.43,46.75,9.22,69.96,26.07-38.96,39.62-86.56,35.73-136.55h0c-4.43-56.84-30.37-106.4-68.91-141.83,6.61,68.85,12.88,138.18,23.96,208.42Z" style="fill: #629e42; stroke: #3a3632; stroke-linecap: round; stroke-linejoin: round; stroke-width: 20px;"/>
    <path d="m451.04,1366.89c-8.16-3.39-15.27-4.88-21.21-4.9-3.36,3.99-6.88,7.98-8.79,12.69-2.41,6.22-4.94,12.38-7.59,18.46,3.27,5.62,8.49,11.4,15.84,16.78,36.19,26.48,62.35,42.56,102.24,62.51,80.28,40.15,342.28,144.75,391.28,160.29,173.1,54.91,351.51,98.48,531.34,123.57,47.41,6.62,97.68,10.74,141.64-9.39,43.96-20.12,77.78-72.53,62.05-118.83-419.18-14.72-819.37-100.34-1206.81-261.18Z" style="fill: #558937;"/>
    <path d="m1524.25,1382.19c-63.93-19.93-136.27-18.06-202.56-24.99-72.05-7.53-143.76-18.05-214.91-31.54-166.08-31.47-326.55-84.97-488.53-133.59-16.72-5.02-83.63-5.59-46.73,23.14,31.36,24.41,67.45,43.01,102,60.72,69.54,35.66,296.49,125.74,338.92,138.59,149.92,45.39,304.42,79.23,460.13,94.61,30.08,2.97,71.07,8.32,99.76-6.31,25.86-13.19,27.37-51.25,13.81-75.58-13.07-23.44-37.25-37.37-61.9-45.06Z" style="fill: #558937;"/>
    <g>
      <ellipse cx="939" cy="1516.41" rx="6.48" ry="10.27" transform="translate(-734.74 2132.69) rotate(-78.45)" style="fill: #d8ed96;"/>
      <ellipse cx="884.26" cy="1475.09" rx="5.5" ry="8.72" transform="translate(-738.05 2046.01) rotate(-78.45)" style="fill: #d8ed96;"/>
      <ellipse cx="884.82" cy="1426.76" rx="6.18" ry="9.79" transform="translate(-690.24 2007.9) rotate(-78.45)" style="fill: #d8ed96;"/>
      <ellipse cx="816.24" cy="1405.86" rx="3.17" ry="5.03" transform="translate(-724.61 1924) rotate(-78.45)" style="fill: #d8ed96;"/>
      <ellipse cx="734.99" cy="1325.75" rx="6.25" ry="9.9" transform="translate(-711.1 1780.33) rotate(-78.45)" style="fill: #d8ed96;"/>
      <ellipse cx="683.84" cy="1308.83" rx="5.18" ry="8.2" transform="translate(-735.43 1716.69) rotate(-78.45)" style="fill: #d8ed96;"/>
      <ellipse cx="548.41" cy="1305.41" rx="4.02" ry="6.37" transform="translate(-840.39 1581.26) rotate(-78.45)" style="fill: #d8ed96;"/>
      <ellipse cx="491.04" cy="1332.92" rx="5.23" ry="8.28" transform="translate(-913.21 1547.06) rotate(-78.45)" style="fill: #d8ed96;"/>
      <ellipse cx="565.04" cy="1421.85" rx="4.66" ry="7.38" transform="translate(-941.17 1690.68) rotate(-78.45)" style="fill: #d8ed96;"/>
      <ellipse cx="699.01" cy="1534.96" rx="3.36" ry="5.32" transform="translate(-944.85 1912.39) rotate(-78.45)" style="fill: #d8ed96;"/>
      <ellipse cx="803.43" cy="1536.53" rx="3.98" ry="6.31" transform="translate(-862.88 2015.95) rotate(-78.45)" style="fill: #d8ed96;"/>
      <ellipse cx="927.86" cy="1622.58" rx="5.6" ry="8.87" transform="translate(-847.67 2206.67) rotate(-78.45)" style="fill: #d8ed96;"/>
      <ellipse cx="1064.4" cy="1603.98" rx="3.74" ry="5.93" transform="translate(-720.26 2325.57) rotate(-78.45)" style="fill: #d8ed96;"/>
      <ellipse cx="1176.58" cy="1651.86" rx="4.43" ry="7.01" transform="translate(-677.46 2473.77) rotate(-78.45)" style="fill: #d8ed96;"/>
      <ellipse cx="1349.65" cy="1662.57" rx="5.87" ry="9.3" transform="translate(-549.54 2651.89) rotate(-78.45)" style="fill: #d8ed96;"/>
      <ellipse cx="1372.19" cy="1644.14" rx="3.38" ry="5.36" transform="translate(-513.45 2659.24) rotate(-78.45)" style="fill: #d8ed96;"/>
      <ellipse cx="1458.76" cy="1620.68" rx="3.01" ry="4.77" transform="translate(-421.24 2725.29) rotate(-78.45)" style="fill: #d8ed96;"/>
      <path d="m1549.42,1689.66c.56-2.72-2.49-5.65-6.8-6.53-4.31-.88-8.26.61-8.82,3.33-.56,2.72,2.49,5.65,6.8,6.53,4.31.88,8.26-.61,8.82-3.33Z" style="fill: #d8ed96;"/>
      <path d="m1666.42,1636.5c.47-2.32-2.12-4.8-5.78-5.55s-7.02.52-7.5,2.83c-.47,2.32,2.12,4.8,5.78,5.55,3.67.75,7.02-.52,7.5-2.84Z" style="fill: #d8ed96;"/>
      <path d="m1681.84,1574.45c.74-3.61-3.3-7.47-9.01-8.64-5.71-1.17-10.94.81-11.68,4.41-.74,3.61,3.3,7.48,9.01,8.64,5.71,1.17,10.94-.81,11.68-4.42Z" style="fill: #d8ed96;"/>
      <path d="m1590.59,1489.44c.69-3.39-3.1-7.03-8.47-8.13-5.37-1.1-10.29.76-10.98,4.15-.69,3.39,3.1,7.03,8.47,8.13,5.37,1.1,10.29-.76,10.98-4.15Z" style="fill: #d8ed96;"/>
      <ellipse cx="1445.16" cy="1576.97" rx="5" ry="7.92" transform="translate(-389.29 2677.02) rotate(-78.45)" style="fill: #d8ed96;"/>
      <ellipse cx="1334.61" cy="1533.39" rx="6.31" ry="10" transform="translate(-435.01 2533.86) rotate(-78.45)" style="fill: #d8ed96;"/>
      <ellipse cx="1290.79" cy="1495.88" rx="5.61" ry="8.89" transform="translate(-433.3 2460.92) rotate(-78.45)" style="fill: #d8ed96;"/>
      <ellipse cx="1195.94" cy="1538.4" rx="3.83" ry="6.06" transform="translate(-550.81 2402) rotate(-78.45)" style="fill: #d8ed96;"/>
      <ellipse cx="1054.06" cy="1523.03" rx="5.44" ry="8.62" transform="translate(-649.22 2250.71) rotate(-78.45)" style="fill: #d8ed96;"/>
      <ellipse cx="1018.57" cy="1362.99" rx="5.32" ry="8.43" transform="translate(-520.81 2087.95) rotate(-78.45)" style="fill: #d8ed96;"/>
      <ellipse cx="1088.22" cy="1436.53" rx="3.3" ry="5.22" transform="translate(-537.15 2215) rotate(-78.45)" style="fill: #d8ed96;"/>
      <ellipse cx="1155.94" cy="1415.32" rx="4.33" ry="6.86" transform="translate(-462.21 2264.38) rotate(-78.45)" style="fill: #d8ed96;"/>
      <ellipse cx="1210.57" cy="1451.37" rx="2.86" ry="4.54" transform="translate(-453.84 2346.74) rotate(-78.45)" style="fill: #d8ed96;"/>
      <ellipse cx="1265.41" cy="1406.26" rx="6.11" ry="9.68" transform="translate(-365.79 2364.38) rotate(-78.45)" style="fill: #d8ed96;"/>
      <ellipse cx="1332.09" cy="1395.29" rx="5.18" ry="8.21" transform="translate(-301.72 2420.94) rotate(-78.45)" style="fill: #d8ed96;"/>
      <ellipse cx="1495.7" cy="1413" rx="4.49" ry="7.12" transform="translate(-188.23 2595.4) rotate(-78.45)" style="fill: #d8ed96;"/>
      <ellipse cx="1499.98" cy="1486.02" rx="3.29" ry="5.21" transform="translate(-256.34 2657.99) rotate(-78.45)" style="fill: #d8ed96;"/>
      <ellipse cx="1617.94" cy="1422.58" rx="5.16" ry="8.17" transform="translate(-99.85 2722.83) rotate(-78.45)" style="fill: #d8ed96;"/>
      <path d="m1555.01,1571.75c.53-2.6-2.38-5.39-6.5-6.23-4.12-.84-7.89.58-8.42,3.18-.53,2.6,2.38,5.39,6.5,6.23,4.12.84,7.89-.58,8.42-3.18Z" style="fill: #d8ed96;"/>
      <ellipse cx="687.6" cy="1401.37" rx="5.07" ry="8.03" transform="translate(-823.09 1794.38) rotate(-78.45)" style="fill: #d8ed96;"/>
      <ellipse cx="595.44" cy="1363.3" rx="4.05" ry="6.42" transform="translate(-859.5 1673.64) rotate(-78.45)" style="fill: #d8ed96;"/>
    </g>
    <g>
      <path d="m410.21,1092.89c-54.17-.46-106.19,29.07-132.5,79.83l-27.19,52.46c-26.82,51.76-20.16,112.47,12.79,156.56,9.62-18.04,122.5-235.9,146.89-288.85Z" style="fill: #629e42; stroke: #3a3632; stroke-linecap: round; stroke-linejoin: round; stroke-width: 20px;"/>
      <path d="m234.52,1312.17l69.23-158.28c2.57-18.39-3.39-33.63-16.07-47.2-12.68-13.57-34.25-20.17-52.78-21.35-15.86-1.01-63.22,2.5-80.88,2.54-12.75,57.21-30.42,113.33-52.75,167.53,0,0,38.64,37.45,68.66,52,15.34,7.44,49.86,13.35,64.59,4.76Z" style="fill: #629e42; stroke: #3a3632; stroke-linecap: round; stroke-linejoin: round; stroke-width: 20px;"/>
      <path d="m233.47,1260.51c-17.75,3.03-35.61-3.76-51.97-11.3-8.86-4.08-41.14-23.3-47.93-12.6,10.83,12.13,28.21,22.32,43.42,28.03,18.39,6.91,40.43,7.22,56.47-4.13Z" style="fill: #558937;"/>
      <path d="m162.53,1156.12c-.07-3.56,3.04-6.55,6.45-7.56,3.41-1.01,7.07-.5,10.59.02,12.73,1.87,71.37,9.69,64.2,32.35-4.86-1.41-81.35-30.29-81.25-24.81Z" style="fill: #558937;"/>
    </g>
  </g>
  <g>
    <path d="m1438.51,599.19s-333.64,123.03-652.05,195.83c-371.11,84.85-738.82,110.62-765.9,26.34C2.56,765.37,1323.86,291.48,1323.86,291.48l114.65,307.71Z" style="fill: #e6e7e8; stroke: #3a3632; stroke-miterlimit: 10; stroke-width: 20px;"/>
    <path d="m1959.59,275.98l-493.28,97.52c-20.13,3.98-35.59,20.17-38.64,40.47h0c-2.87,19.14-16.83,34.76-35.53,39.75l-7.13,1.9-62.21-166.98,47.73-17.78,18.92-7.05,481.78-179.5c15.09-5.62,32.42,3.5,38.71,20.38l67.41,129.97c6.58,17.66-1.56,36.62-17.75,41.34Z" style="fill: #3a3632;"/>
  </g>
</svg>