<svg id="Layer_1" data-name="Layer 1" xmlns="http://www.w3.org/2000/svg" width="2000" height="2000" viewBox="0 0 2000 2000">
  <g>
    <path d="M104.44,1895.93h1794c56.48,0,88.59-45.57,72.24-100.09l-93-309.81c-13-43.17-62.27-77.25-110.48-77.25H235.65c-48.22,0-97.53,34.08-110.49,77.25l-93,309.81C15.85,1850.36,48,1895.93,104.44,1895.93Z" style="fill: #fff;stroke: #3a3632;stroke-miterlimit: 10;stroke-width: 24px"/>
    <path d="M184.26,1740.05c26.52,0,53-20.55,59.06-45.54l35.81-147.79c5.41-22.34-10.19-40.19-34.76-40.19s-49.37,17.85-55.45,40.19l-40.29,147.79C141.82,1719.5,157.73,1740.05,184.26,1740.05Z" style="fill: #fff;stroke: #3a3632;stroke-miterlimit: 10;stroke-width: 24px"/>
  </g>
  <path d="M636.55,1926.47c6-7.62,11-18,17.91-22.58,7.86-5.24,14.79-3.28,21-15.3,5.07-9.75,6.36-27.71,15.92-26.46,3,.39,5.49,2.32,8.43,2.83,3.93.69,8.5-1.32,12.37-5.42,7.17-7.59,5.48-16.48,13.27-21,5.46-3.19,16.53,6.42,25-.07S763,1809.83,770.2,1805s37.57,22.6,57.77-2.15c9.28-11.36,15.28-26.39,24.42-37.93,19.11-24.1,57.65-22,68.71-54.69,3.74-11,5.41-23.26,11.6-32.73,5.2-8,12.92-12.85,17.8-21.11,7-11.91,6.22-26.9,6.5-40.56s-2.58-27.42,8-45.23,31.47-3.9,46.32-16.21a99,99,0,0,0,25-31.67c9.75-14.16,18.85-29,25.24-45.47,8.83-22.83,11.66-49.92,2.45-68.33-4.25-8.51-11-15.58-11.12-26.48-.09-12.33,8.56-24.17,10.21-36.72,1.6-12.15-3.62-22.46-9.58-30.37-4.09-5.43-8.72-10.44-12.25-16.45l.09-.16c10-13.85,19.42-28.38,26.15-44.71,9.33-22.6,12.77-49.72,4.06-68.58-4-8.72-10.62-16.09-10.44-27,.21-12.39,9.08-24,11-36.51,1.88-12.15-3.07-22.71-8.8-30.89s-12.6-15.48-15.56-26.16c-4-14.33-.17-31.73.18-47.87.94-43.3-27.09-77.81-60.93-75" style="fill: #006838;stroke: #3a3632;stroke-linecap: round;stroke-miterlimit: 10;stroke-width: 20px"/>
  <path d="M1241.58,1726.6c-47.34-12.26-51.79-8.42-98-12.09-124.12-9.86-340.18,125.25-324.46,125.69L810,1808.69l128.3-99.09-174.92,24.28,3.6-28.61s296.13-66.36,277.15-88c-23.37-26.62-246.59-11.85-246.59-11.85l9.77-30.61s133.2-2,136-18.8-136.22-39.12-136.22-39.12l9.24-41.84s179.1,58.93,180.95,25.49-163.68-66.72-163.68-66.72l9.23-41.79s131,32.4,135.26,19.14-112.83-64.57-112.83-64.57l5-27.61s206.18,121.64,245,99.78C1141.15,1404.18,954.94,1168,954.94,1168l31.11-75.82s141.47,262,242,316.79c40.28,22,39.84,17.72,83.14,25.14Z" style="fill: #82c14c;stroke: #3a3632;stroke-linecap: round;stroke-linejoin: round;stroke-width: 20px"/>
  <path d="M932.37,815.31c-7.78-3.89-11.37-14.65-19.65-17.34-12.93-4.19-25.93,13.56-39.84,14.45-6.73.43-12.67-3.16-19-5-13-3.85-28.32.09-39.68,10.19-8.17,7.26-14.7,17.65-24.35,21.51-11,4.41-21.27,1.19-29.45,13.17-6.63,9.7-7.16,28.86-21.15,26-4.35-.88-8.17-3.36-12.48-4.38a22,22,0,0,0-17.6,3.89c-9.84,7.06-6.71,16.9-17.7,20.56-7.71,2.58-24.53-9.53-36.3-3.86S639,923.31,629,927.42s-56.38-30.28-83.9-6.79c-12.63,10.78-20.22,26-32.65,37-26,23-82.2,14.61-95.81,48.1-4.6,11.31-6.11,24.2-14.38,33.44-7,7.76-17.83,11.8-24.3,19.93-9.34,11.73-7,28-6.38,42.69s5.83,30-8.17,47.48-45.49-.76-66.15,10.16c-13.67,7.22-25.82,17.63-34,30.18-13.1,13.72-25.22,28.24-33.26,45-11.12,23.21-13.17,52,1.61,73.25,6.84,9.84,17.26,18.53,18.2,30.28,1.06,13.3-10.62,24.7-12.07,38-1.41,12.85,7,24.78,16.24,34.24,6.37,6.5,13.47,12.63,19.08,19.66l-.12.16c-13.54,13.35-26.1,27.52-34.66,44-11.85,22.89-14.81,51.56-.7,73.26,6.52,10,16.67,19,17.24,30.79.64,13.32-11.39,24.38-13.26,37.6-1.81,12.8,6.19,25,15.15,34.68s19.5,18.67,24.62,30.64c6.87,16.07,2.66,34.23,3.37,51.56,1.91,46.52,45.32,88.12,94.34,90.43,13.38.62,27.31-1.25,39.82,3.33,10.11,3.71,18.17,11.29,28.09,15.45,7.64,3.22,16.51-2.58,29.3,10.35s-4.09,21.38-2.06,36c9.12,65.76,61,81.07,122.33,75.14,39.85-3.84,78.89-15.5,118.92-15.87,23.35-.22,48.86,2.87,68-10.42,12.61-8.72,20.3-23.32,33.12-31.74,14.46-9.5,32.92-9.65,49.45-14.75,35.08-10.83,31.3-48,25.69-77.61-2.17-11.47-10.16-22.75-22.08-25.61-5.75-1.38-12.21-.81-17.21-3.85-13.9-8.44,5.78-32.77-4.33-45.15-8.72-10.67-28.18-6.45-38.41-15.83-12.77-11.71-1.26-32.51-5.91-48.77-2-7-13-10.25-7.19-20.61,2.46-4.39,13.7-3.88,19-4.3,20.92-1.66,22.54-16.77,29.4-34.43,2.85-7.33-8.08-20.68.67-20.27,2.9.13,5.63,1.36,8.47,1.93,10.6,2.14,20.71-5.19,25-13.92s4.46-18.68,6.16-28.17.87-27.88,10-32.77c8.83-4.75,19.81-10.51,24.64-18.8,17.52-30.07,3.12-40-7.48-57.37-8.25-13.52-4.5-22.92,5.29-36.43,4.17-5.75,9.38-10.94,12.35-17.29,5.23-11.15,2.79-24.2-1.19-36-2.06-6.13-4.54-12.32-4.36-18.65.29-10.26,22.25-20.46,29.37-22.61s20,5.62,26.31,4.4c8.86-1.7,10.65-11.85,17.17-19.27,7.37-8.36,11.15-20.89,20.36-26.33,8.88-5.25,19.15-1.67,28.71-4.34,6.93-1.93,13.33-7.33,17-14.35,4.24-8.13,4.72-17.55,5.86-26.56,3.31-26.31,17.52-49.81,13.58-76.21-1.67-11.19-6.9-20.12-7.25-32a31.48,31.48,0,0,1,.72-8.69c1.87-7.35,7.66-12.94,11.21-19.66,4.58-8.66,5.23-19,3.49-28.16s-5.68-17.39-9.81-25.33c-3.62-7-7.55-14.49-6.41-22.92a41.94,41.94,0,0,1,3.31-10.51c4.57-10.95,9.58-21.84,12.26-33.34s2.81-24-2.13-33.58c-4.86-9.47-14.14-15.44-17.76-25.66-3.17-8.93-1.54-19.93-5.44-28.43-4.69-10.22-15.92-14-26.42-15.61-17.59-2.76-33.91,1.06-48.49-11-7.71-6.4-14.24-15.23-19.89-23.85-3.28-5-5.57-10.2-9.8-13.18a13.84,13.84,0,0,0-6.91-2.45C946.48,816.51,938.7,818.47,932.37,815.31Z" style="fill: #009444;stroke: #3a3632;stroke-linecap: round;stroke-miterlimit: 10;stroke-width: 20px"/>
  <path d="M530.93,1485.52c-43.94,20.68-19.64,43.37-26.84,74.13-3.14,13.43-23.8,27.94-25,46.77-.83,12.9,11,25.51,15.8,37.75,8.41,21.6-20.23,38.33-12.82,65.31s35.88,47.66,39,53.11c3.33,5.84,1,24.75.05,31.14-5.51,38.85,32.39,48,67.85,59.31" style="fill: #009444;stroke: #3a3632;stroke-linecap: round;stroke-miterlimit: 10;stroke-width: 20px"/>
  <path d="M468.87,1151.93c-48.89,3.67-35.26,33.31-54,59.31-8.19,11.35-33.06,17.52-41.58,34.57-5.83,11.68.23,27.57-.16,40.62-.68,23-33.83,28.42-37.55,56.07s14.58,56.91,15.33,63.06c.8,6.6-8.84,23.31-12.19,28.92-20.37,34.1,11.21,56,39.67,79" style="fill: #009444;stroke: #3a3632;stroke-linecap: round;stroke-miterlimit: 10;stroke-width: 20px"/>
  <g>
    <path d="M1352.46,507.93s-299.37,110.4-585.07,175.72c-333,76.13-662.93,99.26-687.23,23.63C64,657,1249.59,231.83,1249.59,231.83Z" style="fill: #e6e7e8;stroke: #3a3632;stroke-miterlimit: 10;stroke-width: 20px"/>
    <path d="M1820,217.92l-442.61,87.5a43.61,43.61,0,0,0-34.67,36.31h0a43.62,43.62,0,0,1-31.88,35.66l-6.4,1.71-55.82-149.83,42.83-16,17-6.32L1740.73,45.93c13.54-5,29.09,3.14,34.73,18.28L1836,180.83C1841.85,196.68,1834.55,213.69,1820,217.92Z" style="fill: #3a3632"/>
  </g>
  <path d="M1438.76,1451.3c10.25,1.75,122.94,23,133.35,24.53,7.41,1.09,14.87,2.14,22.36,3.21,48.59,6.9,157.2,21.31,209.41,40,52.69,65.38-16.23,283.5-100.58,317.29-50.09-6.72-189.86-56.12-238.26-68.9-11.09-2.93-84.91-20.77-95.93-23.62,0,0-21.29-85.76-.31-167.79S1438.76,1451.3,1438.76,1451.3Z" style="fill: #82c14c;stroke: #3a3632;stroke-linecap: round;stroke-linejoin: round;stroke-width: 20px"/>
  <path d="M1311.23,1434.13s18.62,44.87-5.09,151.78c-22.66,102.2-64.56,140.69-64.56,140.69s-19.65-86.14,3.24-166.9S1311.23,1434.13,1311.23,1434.13Z" style="fill: #c1db79;stroke: #3a3632;stroke-linecap: round;stroke-linejoin: round;stroke-width: 20px"/>
  <path d="M1699.08,1792s-14-75.51,9.16-135,68.43-105.28,68.43-105.28,16.73,57-7.79,132.5S1699.08,1792,1699.08,1792Z" style="fill: #c1db79"/>
  <path d="M1699.08,1792s-14-75.51,9.16-135,68.43-105.28,68.43-105.28" style="fill: none;stroke: #3a3632;stroke-linecap: round;stroke-linejoin: round;stroke-width: 20px"/>
  <path d="M883.13,956.34c-33.43-7.52-45.42-13.44-79.75-4.47-23.15,6-24,28.55-43.37,39.9-18.54,10.86-49.06,8.27-56.77,28.66-2.86,7.55-4.26,15.81-9.46,22.22-8.33,10.25-24.19,13.16-34.29,22-24.36,21.38-4.4,64-26.37,87.35-7.89,8.38-20.22,12.94-27,22.1-14.77,20.1,4.83,48.58-2.4,71.94-4,12.9-20.51,22.89-11.69,42.8" style="fill: #009444;stroke: #3a3632;stroke-linecap: round;stroke-miterlimit: 10;stroke-width: 20px"/>
</svg>
