<svg xmlns="http://www.w3.org/2000/svg" height="1187.705" width="1971.021"  xmlns:v="https://vecta.io/nano"><style><![CDATA[.B{stroke-linecap:round}.C{stroke:#231f20}.D{stroke-width:24}.E{stroke-miterlimit:10}]]></style><g fill="#fff" class="C D E"><path d="M88.52 1175.705h1794c56.48 0 88.6-45.56 72.24-100.08l-93-309.8c-13-43.18-62.27-77.25-110.48-77.25H219.73c-48.22 0-97.53 34.07-110.5 77.25l-93 309.8c-16.3 54.52 15.84 100.08 72.28 100.08z"/><path d="M168.34 1019.855c26.52 0 53-20.54 59.06-45.53l35.8-147.8c5.4-22.34-10.2-40.2-34.76-40.2s-49.37 17.82-55.45 40.16l-40.3 147.8c-6.8 25 9.1 45.56 35.63 45.56z"/></g><path d="M691.37 542.855c31 10.16 57 21.35 81.06 43.9 17.12 16 32.5 34 51.07 48.48 18.36 14.32 30.53 31.23 39.8 53 16.44 38.5 17.3 76.23 3 115.05-13.08 35.57-39.17 67.57-74.84 82.26-25.38 10.44-55.33 28.3-83.46 27.9-13.2-.2-25.88-4.46-39-5.53s-26.14.42-39.12.93c-20.07.8-36.87-1.9-55.76-8.08-27.5-9-56.23-19.62-78.7-38.15-22.9-18.86-41-42.72-58.77-66.26l-28.1-37.2c-13-17.2-26.4-35.46-29.18-56.83-3.68-28.52 11.35-53.45 23.7-77.54 7.7-14.9 16.16-24.9 28-36.9 4.2-4.3 8.42-8.6 13.36-12 12.62-8.74 28.52-10.76 43.3-14.9 21.14-5.9 40.68-16.4 61.18-24.23 45.46-17.48 97.22-8.73 142.44 6.12z" fill="#fffabe" class="C D E"/><path d="M1540.92 524.065s-254.73 164.13-506.1 283.65c-293 139.3-594 228.84-632.2 163.75-25.33-43.24 985.94-682.12 985.94-682.12z" fill="#d1d3d4" class="C D E"/><path d="M1914.5 158.725l-392.24 172.46a41.43 41.43 0 0 0-24.65 40.82h0a41.42 41.42 0 0 1-22.19 39.64l-5.58 2.9-82.67-127.37 418.33-271.53c11.5-7.47 27.62-3.1 36 9.78l80.14 95.63c8.72 13.47 5.45 30.8-7.14 37.67z" fill="#231f20"/><g fill="#fffabe" stroke="#0d0e19" stroke-width="12.572" stroke-linejoin="round"><path d="M933.58 813.605l124.2-27.3 56.25 22.4 14.84 138.24-137.84 21.46-56.26-22.4z"/><g class="B"><path d="M1007.65 897.035v-40.23l38.46-10.05"/><path d="M1007.65 856.805l-32.18-13.23"/></g><path d="M724.04 870.335l112.47-17.82 49.1 23 5.94 124.35-124.35 11.87-49.1-23z"/><g class="B"><path d="M783.14 959.625l8.74-43.88 38.47-10.05"/><path d="M791.88 915.755l-32.17-17.44"/></g><path d="M850.8 948.195l124.2-27.3 56.25 22.4 14.84 138.24-137.85 21.46-56.25-22.4z"/><g class="B"><path d="M928.22 1048.475v-62.03l59.32-15.5"/><path d="M928.22 986.445l-49.6-20.4"/></g><path d="M1091.8 911.265l87.1-19.14 39.45 15.7 10.4 96.94-96.67 15.05-39.45-15.7z"/><g class="B"><path d="M1152 984.765v-40.23l38.47-10.05"/><path d="M1152 944.535l-32.17-13.22"/></g><path d="M1075.75 993.855l96.98-21.3 43.92 17.5 11.6 107.93-107.63 16.76-43.92-17.5z"/><g class="B"><path d="M1142.78 1075.685v-44.78l42.83-11.2"/><path d="M1142.78 1030.905l-35.82-14.73"/></g></g></svg>