<svg id="Layer_1" data-name="Layer 1" xmlns="http://www.w3.org/2000/svg" xmlns:xlink="http://www.w3.org/1999/xlink" width="2000" height="2000" viewBox="0 0 2000 2000">
  <defs>
    <radialGradient id="radial-gradient" cx="1291.66" cy="1692.04" fy="2028.876095918834" r="336.85" gradientTransform="translate(2483.98 156.36) rotate(90)" gradientUnits="userSpaceOnUse">
      <stop offset="0" stop-color="#ffa084"/>
      <stop offset="0.14" stop-color="#fd997f"/>
      <stop offset="0.34" stop-color="#f68671"/>
      <stop offset="0.58" stop-color="#eb675b"/>
      <stop offset="0.85" stop-color="#db3c3c"/>
      <stop offset="1" stop-color="#d12027"/>
    </radialGradient>
    <radialGradient id="radial-gradient-4" cx="1292.21" cy="1615.17" fy="1782.8653557410094" r="167.69" xlink:href="#radial-gradient"/>
  </defs>
  <g>
    <path d="M104.44,1902.15h1794c56.48,0,88.59-45.57,72.24-100.09l-93-309.81c-13-43.17-62.27-77.24-110.48-77.24H235.65c-48.22,0-97.53,34.07-110.49,77.25l-93,309.8C15.85,1856.58,48,1902.15,104.44,1902.15Z" style="fill: #fff;stroke: #3a3632;stroke-miterlimit: 10;stroke-width: 24px"/>
    <path d="M184.26,1746.27c26.52,0,53-20.54,59.06-45.54l35.81-147.79c5.41-22.34-10.19-40.19-34.76-40.19s-49.37,17.85-55.45,40.19l-40.29,147.79C141.82,1725.73,157.73,1746.27,184.26,1746.27Z" style="fill: #fff;stroke: #3a3632;stroke-miterlimit: 10;stroke-width: 24px"/>
  </g>
  <g>
    <path d="M1438.51,599.19s-333.65,123-652,195.83C415.34,879.87,47.64,905.65,20.55,821.36c-18-56,1303.31-529.88,1303.31-529.88Z" style="fill: #e6e7e8;stroke: #3a3632;stroke-miterlimit: 10;stroke-width: 20px"/>
    <path d="M1959.59,276,1466.31,373.5A48.61,48.61,0,0,0,1427.67,414h0a48.59,48.59,0,0,1-35.53,39.75l-7.13,1.9-62.21-167,47.73-17.78,18.92-7.05L1871.23,84.3c15.09-5.62,32.42,3.5,38.7,20.38l67.41,130C1983.92,252.31,1975.78,271.27,1959.59,276Z" style="fill: #3a3632"/>
  </g>
  <g>
    <g style="isolation: isolate;opacity: 0.986000001430512">
      <g id="layer1">
        <path id="path60" d="M777.53,1742.84c48.07,19.65,102.5,19.63,121.16,19.63,221.19,0,338.59-85.94,319.72-230.19-6.23-44.27-5.49-130.38,0-158.82,17.82-152.69-100.63-237.86-319.72-237.86-196,0-355.37,117.4-355.37,313.82,0,46,2.62,85.52,24.11,124.3,43.31,78.18,104.5,130.9,210.1,169.12Z" style="fill: url(#radial-gradient)"/>
        <path d="M627.32,1449.42c0-35.36,6.76-67.8,20.1-96.42a201.91,201.91,0,0,1,54-69.76c49-41,119-63.64,197.26-63.64,106.75,0,163.3,22,191.94,40.51,31.5,20.33,45.54,46.24,45.54,84a165.52,165.52,0,0,1-.94,17.3c-4.52,26.79-5.22,66.48-5.22,88.4,0,21.21.67,61.49,5.16,93.68a142.27,142.27,0,0,1,1.21,18.11c0,33.76-13.69,57.43-44.4,76.74-29.1,18.29-86.25,40.1-193.29,40.1-14.08,0-56.65,0-89.37-13.38l-1.59-.65-1.61-.58C723.74,1634,675.87,1596.13,640.91,1533,629.42,1512.28,627.32,1488.59,627.32,1449.42Z" style="fill: url(#radial-gradient)"/>
      </g>
      <g id="layer1-2" data-name="layer1">
        <path id="path60-2" data-name="path60" d="M777.53,1742.84c48.07,19.65,102.5,19.63,121.16,19.63,221.19,0,338.59-85.94,319.72-230.19-6.23-44.27-5.49-130.38,0-158.82,17.82-152.69-100.63-237.86-319.72-237.86-196,0-355.37,117.4-355.37,313.82,0,46,2.62,85.52,24.11,124.3,43.31,78.18,104.5,130.9,210.1,169.12Z" style="stroke: #3a3632;stroke-width: 20px;isolation: isolate;opacity: 0.986000001430512;fill: url(#radial-gradient)"/>
        <path d="M627.32,1449.42c0-35.36,6.76-67.8,20.1-96.42a201.91,201.91,0,0,1,54-69.76c49-41,119-63.64,197.26-63.64,106.75,0,163.3,22,191.94,40.51,31.5,20.33,45.54,46.24,45.54,84a165.52,165.52,0,0,1-.94,17.3c-4.52,26.79-5.22,66.48-5.22,88.4,0,21.21.67,61.49,5.16,93.68a142.27,142.27,0,0,1,1.21,18.11c0,33.76-13.69,57.43-44.4,76.74-29.1,18.29-86.25,40.1-193.29,40.1-14.08,0-56.65,0-89.37-13.38l-1.59-.65-1.61-.58C723.74,1634,675.87,1596.13,640.91,1533,629.42,1512.28,627.32,1488.59,627.32,1449.42Z" style="fill: #ba2115"/>
      </g>
    </g>
    <path id="path60-3" data-name="path60" d="M860.73,1582.65c26.92,8.94,57.39,8.92,67.84,8.92,123.84,0,189.57-39.08,179-104.68-3.49-20.13-3.08-59.29,0-72.22,10-69.44-56.35-108.17-179-108.17-109.76,0-199,53.38-199,142.71,0,20.94,1.47,38.89,13.5,56.53,24.25,35.55,58.51,59.53,117.63,76.91Z" style="isolation: isolate;opacity: 0.986000001430512;fill: url(#radial-gradient-4)"/>
    <g id="path60-4" data-name="path60" style="isolation: isolate;opacity: 0.986000001430512">
      <path d="M1060,1306.47c.41,2.32.9,4.55,1.33,6.85s.85,4.56,1.27,6.79c.21,1.11.41,2.21.62,3.31a.54.54,0,0,0,.37.41.62.62,0,0,0,.7-.13,15.26,15.26,0,0,1,2.17-1.43c1.18-.69,2.39-1.32,3.62-2l3.39-1.65c1.33-.64,2.64-1.38,4-2.15s2.58-1.59,3.85-2.49a33.2,33.2,0,0,0,3.62-2.86,16.33,16.33,0,0,0,5-7.58,10.69,10.69,0,0,0,.24-4.55,11.43,11.43,0,0,0-1.82-4.43,17.24,17.24,0,0,0-4.77-4.58,29.86,29.86,0,0,0-6.13-2.83,23.91,23.91,0,0,0-5.3-1.27,13.6,13.6,0,0,0-5.15.53,11,11,0,0,0-6.79,6.71C1058.55,1297.39,1059.21,1302.19,1060,1306.47Z" style="fill: #f27769"/>
      <path d="M1008.77,1292.18c1.81,4.35,3.8,8.68,5.75,12.8.5,1,1,2.08,1.47,3.11a.62.62,0,0,0,.49.32.68.68,0,0,0,.68-.29,14.28,14.28,0,0,1,1.83-1.88c1-.94,2.08-1.86,3.16-2.77l2.94-2.44c1.15-1,2.24-2,3.31-3.07a40.46,40.46,0,0,0,5.78-7.2,16.64,16.64,0,0,0,2.69-8.69,11,11,0,0,0-3.71-8.12,16.13,16.13,0,0,0-5.46-3.15,27.85,27.85,0,0,0-6.32-1.24,23.86,23.86,0,0,0-5.21,0,14.58,14.58,0,0,0-2.48.53,10.7,10.7,0,0,0-2.28,1.05,11.4,11.4,0,0,0-5.19,8C1005.5,1283.62,1007.09,1288.16,1008.77,1292.18Z" style="fill: #f27769"/>
      <path d="M955.42,1286.35c2.36,4.09,4.93,8.11,7.47,12l1.93,2.89a.6.6,0,0,0,.54.25.66.66,0,0,0,.64-.37,14.94,14.94,0,0,1,1.58-2.1c.9-1.09,1.84-2.2,2.79-3.24l2.59-2.83a40.29,40.29,0,0,0,2.84-3.51c3.48-4.78,6.89-10.79,5.93-17a11.24,11.24,0,0,0-4.8-7.51,14.83,14.83,0,0,0-5.72-2.3,30.12,30.12,0,0,0-6.29-.35c-3.43.16-6.91.78-9.51,2.89a11.54,11.54,0,0,0-4.13,8.58C951.1,1278.26,953.24,1282.56,955.42,1286.35Z" style="fill: #f27769"/>
      <path d="M901.7,1286.45c2.81,3.76,5.8,7.49,8.71,11l2.2,2.65a.6.6,0,0,0,.56.2.67.67,0,0,0,.59-.45,14.62,14.62,0,0,1,1.32-2.26c.77-1.16,1.58-2.31,2.41-3.47l2.27-3.09c.88-1.21,1.68-2.5,2.45-3.81a39.86,39.86,0,0,0,3.79-8.42,16.84,16.84,0,0,0,.38-9.07,11.1,11.1,0,0,0-5.57-7,15.76,15.76,0,0,0-6-1.68,27.25,27.25,0,0,0-6.38.33c-3.45.54-6.87,1.56-9.25,4a11.36,11.36,0,0,0-3.11,9C896.46,1278.92,899.1,1282.94,901.7,1286.45Z" style="fill: #f27769"/>
      <path d="M848.84,1294.3c3.4,3.31,6.93,6.45,10.35,9.46l2.57,2.25a.61.61,0,0,0,.58.11.62.62,0,0,0,.51-.51,15,15,0,0,1,.94-2.41c.57-1.28,1.18-2.55,1.81-3.82s1.15-2.28,1.74-3.43c.68-1.34,1.26-2.74,1.81-4.16,2.12-5.52,3.94-12.12,1.44-17.87a11.05,11.05,0,0,0-6.62-6,15.64,15.64,0,0,0-6.22-.67,24.86,24.86,0,0,0-3.2.44c-1.06.23-2.1.55-3.11.87-3.34,1.12-6.58,2.72-8.56,5.45a11.35,11.35,0,0,0-1.58,9.42C842.43,1287.77,845.71,1291.27,848.84,1294.3Z" style="fill: #f27769"/>
      <path d="M798.55,1311.63c3.93,2.45,8.05,4.94,12,7.22l2.94,1.73a.56.56,0,0,0,.57,0,.63.63,0,0,0,.38-.62,13.17,13.17,0,0,1,.43-2.54c.31-1.36.66-2.71,1-4.07s.69-2.45,1-3.68c.41-1.44.72-2.92,1-4.42a41.49,41.49,0,0,0,.76-9.15,16.64,16.64,0,0,0-2.65-8.69,10.92,10.92,0,0,0-7.68-4.68c-4.17-.56-8.56.94-12.33,3.11a24.38,24.38,0,0,0-4.36,3,12.52,12.52,0,0,0-3.05,4.09,11.12,11.12,0,0,0,.35,9.54C790.92,1306.53,794.88,1309.3,798.55,1311.63Z" style="fill: #f27769"/>
      <path d="M754,1339.94c4.52,1.43,9,2.67,13.29,3.91l3.28,1a.55.55,0,0,0,.55-.14.6.6,0,0,0,.21-.67,14.84,14.84,0,0,1-.25-2.55c-.06-1.39-.08-2.79-.08-4.21,0-1.26,0-2.57.06-3.82.05-1.47,0-3-.09-4.46-.4-5.84-1.44-12.73-6.06-16.91a11.15,11.15,0,0,0-8.64-2.68,14.26,14.26,0,0,0-6.1,2.16,32.3,32.3,0,0,0-5.34,4c-2.59,2.59-4.85,5.63-5.47,9a11.14,11.14,0,0,0,2.9,9.18,17.3,17.3,0,0,0,5.45,3.85A51.77,51.77,0,0,0,754,1339.94Z" style="fill: #f27769"/>
      <path d="M720.48,1380.07c4.75-.18,9.35-.49,13.78-.68l3.39-.08a.52.52,0,0,0,.47-.29.6.6,0,0,0,0-.69A14.88,14.88,0,0,1,737,1376c-.53-1.27-1-2.58-1.49-3.91s-.81-2.39-1.16-3.59c-.42-1.4-1-2.79-1.52-4.18-2.24-5.4-5.34-11.69-11-14.22a11,11,0,0,0-9.09.26,15.09,15.09,0,0,0-2.82,1.72,19.83,19.83,0,0,0-2.37,2.39,34.38,34.38,0,0,0-3.82,5.7c-1.62,3.4-2.77,7.09-2.23,10.47a11,11,0,0,0,5.87,7.66C711.37,1380.4,716.11,1380.23,720.48,1380.07Z" style="fill: #f27769"/>
      <path d="M704,1429.46c4.33-2,8.49-4,12.51-5.8l3.12-1.34a.53.53,0,0,0,.32-.45.57.57,0,0,0-.28-.62,14.38,14.38,0,0,1-1.87-1.73c-1-1-1.9-2-2.84-3.07s-1.68-1.92-2.44-2.89c-.91-1.13-1.92-2.23-3-3.3-4.08-4.16-9.28-8.87-15.5-9.12a11,11,0,0,0-8.37,3.65,12.63,12.63,0,0,0-2,2.67,20.3,20.3,0,0,0-1.31,3.1,33.29,33.29,0,0,0-1.42,6.74c-.23,3.74.1,7.59,1.85,10.52a11.09,11.09,0,0,0,8.3,4.9,17.28,17.28,0,0,0,6.62-.8A56.94,56.94,0,0,0,704,1429.46Z" style="fill: #f27769"/>
      <path d="M705,1482c3.46-3.14,6.86-6.25,10.23-9.18l2.53-2.2a.51.51,0,0,0,.17-.52.63.63,0,0,0-.47-.52,14.35,14.35,0,0,1-2.29-1.11c-1.21-.67-2.41-1.38-3.61-2.12l-3.18-2.08c-1.23-.82-2.56-1.56-3.88-2.28-5.19-2.77-11.56-5.45-17.57-3.71a11.08,11.08,0,0,0-6.81,5.88c-1.84,3.84-1.66,8.64-.7,13.13a25,25,0,0,0,1.78,5.36,14,14,0,0,0,3.2,4.35,10.53,10.53,0,0,0,9.39,2.18C698.19,1488.12,701.74,1484.89,705,1482Z" style="fill: #f27769"/>
      <path d="M727.92,1527.77c1.57-4.48,3-9,4.32-13.23.32-1.07.7-2.18,1.06-3.25a.59.59,0,0,0-.12-.56.63.63,0,0,0-.67-.24,14.64,14.64,0,0,1-2.57.17c-1.39,0-2.8,0-4.21-.05l-3.84-.16c-1.46,0-2.91,0-4.41.07s-3,.17-4.53.34a37.7,37.7,0,0,0-4.57.71,16.11,16.11,0,0,0-8.11,4.1,10.16,10.16,0,0,0-2.39,3.92,12,12,0,0,0-.44,5,14.36,14.36,0,0,0,.29,1.72c.12.51.27,1,.44,1.53a19,19,0,0,0,1.33,3,28,28,0,0,0,3.87,5.38c2.48,2.64,5.37,5,8.72,5.67a11.15,11.15,0,0,0,9.23-2.58C724.77,1536.35,726.49,1531.87,727.92,1527.77Z" style="fill: #f27769"/>
      <path d="M766.34,1563.84c.12-2.36.2-4.71.25-7s.07-4.55.18-6.86c0-1.15.09-2.29.13-3.42a.57.57,0,0,0-.27-.5.62.62,0,0,0-.71,0,15.31,15.31,0,0,1-2.42.89c-1.33.41-2.68.79-4.06,1.15s-2.45.61-3.69.88c-1.43.33-2.87.76-4.29,1.23-5.56,1.88-12,4.63-14.86,10.15a11.07,11.07,0,0,0-.37,9,14.52,14.52,0,0,0,1.48,2.88,18,18,0,0,0,2.14,2.49,33.15,33.15,0,0,0,5.25,4.11c3.1,1.9,6.61,3.22,10,3a9.6,9.6,0,0,0,2.47-.51,10.62,10.62,0,0,0,2.23-1.13,12,12,0,0,0,3.41-3.4C765.69,1573,766.07,1568.26,766.34,1563.84Z" style="fill: #f27769"/>
      <path d="M813.06,1589.12c-.81-4.68-1.83-9.27-2.83-13.71-.27-1.11-.52-2.22-.75-3.35a.57.57,0,0,0-.39-.43.63.63,0,0,0-.71.12,15.51,15.51,0,0,1-2.17,1.4c-1.21.7-2.45,1.37-3.7,2l-3.42,1.76c-1.34.68-2.64,1.48-3.92,2.29-4.92,3.15-10.36,7.42-11.75,13.51a11.19,11.19,0,0,0,1.8,8.84,15.65,15.65,0,0,0,4.68,4.21,25.92,25.92,0,0,0,5.9,2.68c3.35,1,6.94,1.6,10.12.6a11.32,11.32,0,0,0,6.8-6.68C814.4,1598.18,813.77,1593.5,813.06,1589.12Z" style="fill: #f27769"/>
      <path d="M863.75,1606.18l-4.59-13.06c-.39-1-.72-2.15-1.06-3.21a.55.55,0,0,0-.42-.36.58.58,0,0,0-.65.23,14.59,14.59,0,0,1-1.91,1.7c-.54.44-1.08.87-1.64,1.29l-.42.32-.21.15,0,0h0l-.5-.16h0l0,0-.11.08-.86.62-3.13,2.22a41.12,41.12,0,0,0-3.52,2.83c-4.42,3.93-9,9.09-9.41,15.31a11.33,11.33,0,0,0,3.1,8.35,14.13,14.13,0,0,0,2.37,2c.43.29.87.55,1.33.8l.35.19.08,0h0l-.65-.21h0l0,0,.19.09.77.35a31.19,31.19,0,0,0,6.56,2,26.71,26.71,0,0,0,5.47.42,13.28,13.28,0,0,0,5-1.26,10.94,10.94,0,0,0,5.7-7.67,17.21,17.21,0,0,0-.07-6.67A45.74,45.74,0,0,0,863.75,1606.18Z" style="fill: #f27769"/>
      <path d="M916.53,1612.37c-2.47-4-5.12-7.92-7.69-11.72l-1.93-2.85a.59.59,0,0,0-.53-.25.65.65,0,0,0-.62.39,14.3,14.3,0,0,1-1.51,2.11c-.87,1.1-1.77,2.18-2.7,3.26s-1.67,1.93-2.53,2.89a44.24,44.24,0,0,0-2.78,3.54c-3.42,4.82-6.88,10.76-5.91,17a11.09,11.09,0,0,0,4.93,7.51c3.51,2.35,8.08,2.74,12.33,2.51,3.5-.21,7-1,9.6-3.16a11.34,11.34,0,0,0,3.87-8.69C921.09,1620.36,918.8,1616.11,916.53,1612.37Z" style="fill: #f27769"/>
      <path d="M970.32,1610.76c-2.86-3.71-5.93-7.4-9-10.88l-2.29-2.61a.57.57,0,0,0-.56-.18.64.64,0,0,0-.59.45,16.39,16.39,0,0,1-1.3,2.29c-.76,1.2-1.55,2.4-2.35,3.57l-2.22,3.15a41.71,41.71,0,0,0-2.36,3.85c-2.84,5.19-5.4,11.6-3.62,17.58a11.33,11.33,0,0,0,5.72,6.82c3.65,1.93,8.1,1.76,12.21,1.07,3.38-.59,6.74-1.67,9.06-4.1a11.47,11.47,0,0,0,3-9C975.65,1618.24,973,1614.24,970.32,1610.76Z" style="fill: #f27769"/>
      <path d="M1023.35,1603.07c-3.34-3.31-6.8-6.41-10.22-9.56l-2.57-2.32a.59.59,0,0,0-.58-.11.64.64,0,0,0-.51.52,16,16,0,0,1-1,2.42c-.59,1.28-1.22,2.56-1.86,3.84s-1.17,2.29-1.78,3.41a41,41,0,0,0-1.87,4.09c-2.18,5.48-4,12.14-1.57,17.88a11.33,11.33,0,0,0,6.54,6.1,13.8,13.8,0,0,0,3,.73,18.4,18.4,0,0,0,3.15,0,30.59,30.59,0,0,0,6.29-1.24,16.19,16.19,0,0,0,8.6-5.36,11.15,11.15,0,0,0,1.72-9.34C1029.69,1609.76,1026.45,1606.17,1023.35,1603.07Z" style="fill: #f27769"/>
      <path d="M1073.49,1586c-2-1.23-4-2.41-6-3.57l-3-1.71-3-1.77-2.92-1.76a.55.55,0,0,0-.57,0,.59.59,0,0,0-.36.6,14.68,14.68,0,0,1-.39,2.55c-.27,1.37-.59,2.74-.93,4.12s-.67,2.42-1,3.64c-.41,1.42-.72,2.89-1,4.37-1,5.79-1.66,12.73,1.82,17.9a11.11,11.11,0,0,0,7.71,4.66c4.25.7,8.68-1.14,12.56-3.22a20,20,0,0,0,4.43-3.21,13.67,13.67,0,0,0,3.09-4.18,10.83,10.83,0,0,0-.56-9.55,17,17,0,0,0-4.36-5A49,49,0,0,0,1073.49,1586Z" style="fill: #f27769"/>
    </g>
  </g>
  <g id="layer1-3" data-name="layer1">
    <path id="path60-5" data-name="path60" d="M1153.35,1826.84c48.07,19.66,102.51,19.63,121.16,19.63,221.19,0,338.6-85.94,319.73-230.19-6.24-44.27-5.5-130.38,0-158.82,17.82-152.69-100.64-237.86-319.73-237.86-196,0-355.37,117.4-355.37,313.82,0,46,2.63,85.52,24.11,124.3,43.32,78.18,104.5,130.9,210.1,169.12Z" style="fill: #ba2115;stroke: #3a3632;stroke-linecap: round;stroke-width: 19px"/>
  </g>
</svg>
