<svg id="Layer_1" data-name="Layer 1" xmlns="http://www.w3.org/2000/svg" xmlns:xlink="http://www.w3.org/1999/xlink" width="2000" height="2000" viewBox="0 0 2000 2000">
  <defs>
    <radialGradient id="radial-gradient" cx="757.06" cy="1458.35" fx="962.352218924249" fy="1635.0053549462436" r="270.84" gradientTransform="translate(-740.22 31.57) rotate(-24.91) scale(1 1.32)" gradientUnits="userSpaceOnUse">
      <stop offset="0.01" stop-color="#e0ffb0"/>
      <stop offset="0.17" stop-color="#d1f6a6"/>
      <stop offset="0.46" stop-color="#a9de8c"/>
      <stop offset="0.87" stop-color="#6ab862"/>
      <stop offset="1" stop-color="#55ab54"/>
    </radialGradient>
  </defs>
  <g>
    <g>
      <g id="layer2">
        <path id="path863" d="M1095.24,1934.12c-56.52,58.49-255.25-19.64-441.93-231.7C428.7,1447.3,313.41,1057.84,440.88,986.14c61-34.31,143.38-71.59,143.38-71.59s91.16-22.78,157.41-34.67c139.06-25,156.33,293.48,247.69,601.59C1073.6,1765.57,1151.76,1875.63,1095.24,1934.12Z" style="fill: #009b4e"/>
        <path id="path863-2" data-name="path863" d="M1095.24,1934.12c-56.52,58.49-255.25-19.64-441.93-231.7C428.7,1447.3,313.41,1057.84,440.88,986.14c61-34.31,143.38-71.59,143.38-71.59s91.16-22.78,157.41-34.67c139.06-25,156.33,293.48,247.69,601.59C1073.6,1765.57,1151.76,1875.63,1095.24,1934.12Z" style="fill: none;stroke: #3a3632;stroke-linecap: round;stroke-linejoin: round;stroke-width: 22.1524369263235px;isolation: isolate;opacity: 0.986000001430512"/>
        <path id="path863-3" data-name="path863" d="M1095.24,1934.12c-56.52,58.49-255.25-19.64-441.93-231.7C428.7,1447.3,313.41,1057.84,440.88,986.14c61-34.31,143.38-71.59,143.38-71.59s91.16-22.78,157.41-34.67c139.06-25,156.33,293.48,247.69,601.59C1073.6,1765.57,1151.76,1875.63,1095.24,1934.12Z" style="fill: none;stroke: #3a3632;stroke-linecap: round;stroke-width: 22.9263402394123px"/>
      </g>
      <g id="layer2-2" data-name="layer2">
        <path id="path863-4" data-name="path863" d="M908.39,1671.22c-9.17,27.26-180.31-37.59-298.08-183.18-141.69-175.17-225.43-472.43-141.09-525.11,40.36-25.22,94.7-52.9,94.7-52.9s56.06,1.26,99.44-8.3c77.09-17.25,100.25,184.44,154.18,399.25C867.27,1499,918.37,1641.55,908.39,1671.22Z" style="fill: #55ab54"/>
      </g>
      <path id="path915" d="M610.94,839.89C583.05,800,582.72,661.64,572.74,627c-9.64-33.48-27-45.63-70.22-37.81-41.31,7.6-66.07,23.3-72.06,53.67s90.17,186,88,233.24-104.19,79-105.66,114.52c14.48-1.25,47.19-4.82,90.67,9.46,49.93-37.77,169.13-78.22,210.31-72.84,0,0,26.41-36,57-58.14C744.1,837.92,638.82,879.78,610.94,839.89Z" style="fill: #1f8441"/>
    </g>
    <g>
      <g id="layer2-3" data-name="layer2">
        <path id="path863-5" data-name="path863" d="M513.77,1042.77c-75.63,46.84.18,312.27,127.8,468.86C747.64,1641.79,901.47,1700,909.65,1675.7c8.9-26.46-37.28-153.72-82.35-330.56C778.42,1153.35,757.2,973.33,688,988.57" style="fill: url(#radial-gradient)"/>
      </g>
      <g>
        <path d="M718.9,1043.78c1.7-.34,3.5-.69,5-.84s2.72-.26,3.32-.35c4.51-.59,8.57-1.16,12-1.89a41,41,0,0,0,8.75-2.79c4.8-2.2,7.5-5.18,8.84-7.82a13.67,13.67,0,0,0,1.46-4.87,17.54,17.54,0,0,0-.35-5.27,22.91,22.91,0,0,0-2.12-5.4,26.68,26.68,0,0,0-3.76-5.16,45.92,45.92,0,0,0-9.83-8.21,38.69,38.69,0,0,0-5.11-2.56,30.66,30.66,0,0,0-5-1.47,24.08,24.08,0,0,0-4.57-.37,16,16,0,0,0-4,.67,12.55,12.55,0,0,0-6.07,4c-3,3.51-3.1,7.91-2.87,12.31.12,2.22.38,4.38.53,6.62s.31,4.3.29,6.4a56.69,56.69,0,0,1-4,19.7A26.42,26.42,0,0,1,718.9,1043.78Z" style="fill: #f4eea2"/>
        <path d="M483.51,1112a17.48,17.48,0,0,0,6.34,3.09,24.81,24.81,0,0,0,9.75.31,72.36,72.36,0,0,0,9.57-2.17c6.55-1.86,13.07-3.7,19.26-4.88,1.56-.3,3.14-.5,4.66-.71a.56.56,0,0,0,.51-.43c.11-.23,0-.53-.3-.84a19.69,19.69,0,0,1-2.3-2.62c-1.17-1.49-2.3-3.09-3.3-4.65-.9-1.41-1.83-3-2.65-4.48-1-1.75-2-3.58-3.1-5.46-2-3.54-4.28-7.7-6.79-11.38s-5.61-7.12-10-8.78a13.48,13.48,0,0,0-6.86-.7,17.83,17.83,0,0,0-7.37,3,27.36,27.36,0,0,0-2.21,1.72l-1.05,1c-.33.33-.63.67-.94,1a32.82,32.82,0,0,0-3.38,4.58,49.88,49.88,0,0,0-2.55,5.06c-.69,1.72-1.27,3.47-1.79,5.21a31.2,31.2,0,0,0-1,4.27,25.57,25.57,0,0,0-.42,4.22,19.36,19.36,0,0,0,1.35,7.77A14.79,14.79,0,0,0,483.51,1112Z" style="fill: #f4eea2"/>
        <path d="M506.55,1167.55c5.75-3.78,11.33-7.88,16.7-11.87l4-3a.85.85,0,0,0,.32-.78.94.94,0,0,0-.6-.89,21.76,21.76,0,0,1-3.18-2c-1.66-1.18-3.31-2.41-5-3.67l-4.36-3.43c-1.7-1.34-3.54-2.59-5.37-3.77a59.62,59.62,0,0,0-11.93-6.13,24.33,24.33,0,0,0-13.21-1.39,16.32,16.32,0,0,0-10.65,7.63,22,22,0,0,0-2.84,8.61,39.38,39.38,0,0,0-.29,4.62c0,1.53.13,3.06.28,4.56a29.94,29.94,0,0,0,1.54,7.22,17.78,17.78,0,0,0,3.58,6.16,17,17,0,0,0,12.84,5.17C495.06,1174.46,501.17,1171,506.55,1167.55Z" style="fill: #f4eea2"/>
        <path d="M497.78,1231.87c6.52-1,12.16-5.13,17-9.36,5.23-4.57,10-9.5,14.75-14.45q1.77-1.87,3.48-3.76a.91.91,0,0,0,.18-.87,1,1,0,0,0-.73-.82,24.07,24.07,0,0,1-3.49-1.59c-1.86-1-3.7-1.94-5.55-2.94l-4.94-2.74a59.63,59.63,0,0,0-6-2.8c-8-3.25-17.71-5.8-26.11-2.27a16.61,16.61,0,0,0-9,9.2c-2.17,5.43-1.41,11.58.1,17.15,1.22,4.59,3.3,9,6.93,12A17.51,17.51,0,0,0,497.78,1231.87Z" style="fill: #f4eea2"/>
        <path d="M513.07,1287.41c6.4-1.54,11.65-6.2,16.07-10.87a199.85,199.85,0,0,0,13.25-15.89l3.09-4.12a1.14,1.14,0,0,0-.72-1.66,23.36,23.36,0,0,1-3.66-1.27c-2-.77-3.91-1.58-5.84-2.4L530,1249a56.71,56.71,0,0,0-6.28-2.16c-8.32-2.39-18.26-3.73-26.2.73a16.81,16.81,0,0,0-7.93,10c-1.58,5.54-.19,11.44,1.82,16.76,1.68,4.36,4.1,8.55,8,11.09A17.48,17.48,0,0,0,513.07,1287.41Z" style="fill: #f4eea2"/>
        <path d="M548,1329.33a192.14,192.14,0,0,0,12-16.89c.94-1.45,1.85-2.9,2.74-4.37a1,1,0,0,0,0-.91,1,1,0,0,0-.88-.7,22.37,22.37,0,0,1-3.74-1c-2-.62-4-1.28-6-2l-5.4-1.82a52.29,52.29,0,0,0-6.43-1.66c-8.54-1.7-18.5-2.19-26.06,2.92a16.76,16.76,0,0,0-7.07,10.61,19.71,19.71,0,0,0,.22,8.41,37.23,37.23,0,0,0,2.88,8,30.38,30.38,0,0,0,3.61,5.94,17.9,17.9,0,0,0,5.19,4.45,17.58,17.58,0,0,0,13.72.95C539,1339.34,543.89,1334.33,548,1329.33Z" style="fill: #f4eea2"/>
        <path d="M570.49,1380.69c2-2.84,3.86-5.75,5.64-8.71s3.52-6,5.16-9q1.25-2.26,2.43-4.55a1,1,0,0,0-.12-1,.91.91,0,0,0-.48-.42l-.08,0-.12,0a.85.85,0,0,0-.17,0,24.28,24.28,0,0,1-3.81-.74c-2.05-.48-4.09-1-6.14-1.53l-5.51-1.44a55.58,55.58,0,0,0-6.53-1.21c-8.64-1.09-18.62-.86-25.79,4.78a16.76,16.76,0,0,0-6.3,11.07,19.71,19.71,0,0,0,.8,8.36,38,38,0,0,0,3.43,7.8c2.27,4,5.27,7.8,9.49,9.74a17.6,17.6,0,0,0,13.75,0C562.26,1391.3,566.79,1386,570.49,1380.69Z" style="fill: #f4eea2"/>
        <path d="M596.51,1430.36a192.94,192.94,0,0,0,9.55-18.38l2.11-4.71a1,1,0,0,0-.18-1,1,1,0,0,0-.51-.39l-.08,0h-.13c-.06,0-.1,0-.17,0a23.57,23.57,0,0,1-3.85-.47c-2.08-.33-4.16-.71-6.24-1.1l-5.59-1.06a54,54,0,0,0-6.6-.75c-8.69-.5-18.62.41-25.39,6.53a16.82,16.82,0,0,0-5.54,11.48c-.36,5.72,2.27,11.12,5.34,15.85,2.57,3.87,5.8,7.43,10.16,9.07a17.63,17.63,0,0,0,13.72-.95C589,1441.52,593.2,1435.86,596.51,1430.36Z" style="fill: #f4eea2"/>
        <path d="M626.06,1478a193,193,0,0,0,8.13-19c.6-1.61,1.2-3.24,1.78-4.86a.93.93,0,0,0-.18-.89,1,1,0,0,0-1-.49,24.22,24.22,0,0,1-3.88-.17c-2.09-.18-4.2-.39-6.28-.63l-5.65-.64a56.7,56.7,0,0,0-6.65-.26c-8.67.13-18.54,1.76-24.84,8.35a16.78,16.78,0,0,0-4.69,11.86,20.49,20.49,0,0,0,2,8.2,40.79,40.79,0,0,0,4.54,7.27c2.86,3.68,6.37,7,10.85,8.32a17.58,17.58,0,0,0,13.62-2C619.5,1489.66,623.19,1483.68,626.06,1478Z" style="fill: #f4eea2"/>
        <path d="M665.87,1503.14c.45-1.67.91-3.32,1.35-5a.93.93,0,0,0-.24-.87,1,1,0,0,0-1-.39,23.56,23.56,0,0,1-3.86.19c-2.11,0-4.21,0-6.3-.07l-5.68-.14a54.77,54.77,0,0,0-6.64.32c-8.61.85-18.34,3.28-24.06,10.36a16.79,16.79,0,0,0-3.67,12.25,21,21,0,0,0,2.72,8,41.7,41.7,0,0,0,5.21,6.89c3.21,3.45,7,6.47,11.64,7.4a17.39,17.39,0,0,0,13.39-3.24c5.34-3.86,8.44-10.17,10.78-16.14C662,1516.37,664.06,1509.68,665.87,1503.14Z" style="fill: #f4eea2"/>
        <path d="M701.51,1543.62c.27-1.7.54-3.39.8-5.07a.93.93,0,0,0-.33-.84,1,1,0,0,0-1.07-.27,24.33,24.33,0,0,1-3.81.6c-2.08.24-4.18.45-6.26.62l-5.65.47a60.22,60.22,0,0,0-6.55,1c-8.48,1.77-17.92,5.17-22.89,12.8a16.82,16.82,0,0,0-2.34,12.6,20.85,20.85,0,0,0,3.6,7.74,40.41,40.41,0,0,0,5.93,6.33,31.46,31.46,0,0,0,5.77,4.06,18.38,18.38,0,0,0,6.61,2,17.54,17.54,0,0,0,13-4.69c4.9-4.41,7.3-11,9-17.19C699.06,1557.15,700.37,1550.36,701.51,1543.62Z" style="fill: #f4eea2"/>
        <path d="M741.6,1575.08a1,1,0,0,0-.42-.8,1,1,0,0,0-1.1-.17,23.74,23.74,0,0,1-3.74,1c-2.05.46-4.09.85-6.16,1.24l-5.59,1.06a57.51,57.51,0,0,0-6.41,1.67c-8.27,2.66-17.26,7-21.42,15.13a16.7,16.7,0,0,0-1,12.75c1.76,5.51,6.23,9.67,10.88,13a31.42,31.42,0,0,0,6.14,3.43,18,18,0,0,0,6.78,1.36,17.54,17.54,0,0,0,12.42-6c4.43-4.89,6.15-11.68,7.19-18,1.12-6.83,1.73-13.74,2.17-20.55C741.41,1578.49,741.5,1576.78,741.6,1575.08Z" style="fill: #f4eea2"/>
        <path d="M784.4,1607.53a.91.91,0,0,0-.5-.75,1,1,0,0,0-1.1-.06,24,24,0,0,1-3.62,1.36c-2,.65-4,1.27-6,1.86l-5.44,1.6a59.47,59.47,0,0,0-6.22,2.31c-8,3.46-16.49,8.7-19.81,17.19a16.78,16.78,0,0,0,.25,12.79c2.32,5.28,7.15,9,12.14,11.83a28.91,28.91,0,0,0,6.46,2.82,16.37,16.37,0,0,0,18.64-6.51c3.92-5.31,4.93-12.23,5.34-18.64.42-6.9.35-13.85.11-20.67C784.58,1611,784.5,1609.23,784.4,1607.53Z" style="fill: #f4eea2"/>
        <path d="M830.85,1640.32c-.25-1.7-.51-3.39-.76-5.06a.91.91,0,0,0-.57-.69,1,1,0,0,0-1.1.07,21.41,21.41,0,0,1-3.43,1.75c-1.89.87-3.82,1.69-5.75,2.51l-5.23,2.17a60.67,60.67,0,0,0-5.93,3c-7.54,4.27-15.49,10.36-17.91,19.15a16.73,16.73,0,0,0,1.61,12.72c2.88,5,8.15,8.23,13.45,10.53,4.38,1.88,9.18,3.07,13.8,2a17.27,17.27,0,0,0,10.89-8.49c3.25-5.74,3.42-12.74,3.1-19.15C832.64,1653.93,831.82,1647.05,830.85,1640.32Z" style="fill: #f4eea2"/>
        <path d="M887,1690.26l-2.21-5.19c-.72-1.71-1.39-3.35-2-5a39.26,39.26,0,0,1-2.29-9.77,21.79,21.79,0,0,1-.1-2.27c0-.37,0-.74,0-1.1,0-.19.07-.35,0-.56l-.18-.6c-.46-1.62-.93-3.22-1.39-4.81l-1.41-4.8a.84.84,0,0,0-.61-.56.92.92,0,0,0-1,.27,20.59,20.59,0,0,1-3,2.31c-1.68,1.18-3.4,2.32-5.14,3.42l-4.76,3a61.61,61.61,0,0,0-5.39,3.79c-6.81,5.3-14,12.34-15.17,21.39a16.41,16.41,0,0,0,3.5,12.44c3.72,4.65,9.68,7.14,15.69,8.61,1.25.3,2.5.55,3.77.74l1,.11.48,0,.24,0c.07,0,.25,0,.37.06,1.08.18,2.15.33,3.18.43a50.35,50.35,0,0,0,5.94.18,22.42,22.42,0,0,0,5.19-.78,11.9,11.9,0,0,0,4.09-1.84,10.06,10.06,0,0,0,2.64-2.65,10.69,10.69,0,0,0,1.58-6.65C889.77,1697.16,888.42,1693.69,887,1690.26Z" style="fill: #f4eea2"/>
        <path d="M937.41,1664a21.63,21.63,0,0,0-3.14-4.39,17.33,17.33,0,0,0-3.51-3,13.93,13.93,0,0,0-7.24-2.24,24.14,24.14,0,0,0-9.41,2.22c-3,1.21-5.81,2.5-8.52,3.38a26.15,26.15,0,0,1-17.69-.06,29.46,29.46,0,0,1-4.44-2.06l-.35-.2h0s0,0,0,0l.41.25.16.11a35.16,35.16,0,0,1,3.41,2.48,40.37,40.37,0,0,1,5.15,5,35.46,35.46,0,0,1,3.94,5.5,63.34,63.34,0,0,1,3.4,6.86c1,2.27,1.8,4.64,2.61,7.06l1.21,3.66.3.93c.11.32.14.5.22.77.13.49.27,1,.41,1.48,1.21,4,3.06,8.4,7,12a16.26,16.26,0,0,0,15.79,3.7,19.63,19.63,0,0,0,8.12-5.27,22.91,22.91,0,0,0,5-8.45,40.6,40.6,0,0,0,1.39-6.16A39.64,39.64,0,0,0,937.41,1664Z" style="fill: #f4eea2"/>
        <path d="M910,1597.25c-6.47,1.25-11.93,5.63-16.52,10.13a176.19,176.19,0,0,0-13.83,15.5q-1.64,2-3.21,4.07a1,1,0,0,0-.12.91,1,1,0,0,0,.8.79,23.89,23.89,0,0,1,3.63,1.41c1.93.84,3.84,1.72,5.76,2.61l5.17,2.39a54.58,54.58,0,0,0,6.21,2.34c8.27,2.6,18.15,4.25,26.22,0a16.81,16.81,0,0,0,8.19-9.83c1.73-5.49.55-11.37-1.28-16.65-1.49-4.35-3.76-8.52-7.52-11.17A17.87,17.87,0,0,0,910,1597.25Z" style="fill: #f4eea2"/>
        <path d="M894.6,1542.63c-6.45,1.34-11.86,5.79-16.37,10.38a158.27,158.27,0,0,0-13.48,15.89c-1,1.39-2.08,2.8-3.09,4.21a1,1,0,0,0-.08.94,1,1,0,0,0,.72.76l.09,0h0a25,25,0,0,1,3.68,1.36c2,.81,3.91,1.65,5.86,2.5l5.27,2.27a50.57,50.57,0,0,0,6.32,2.15c8.4,2.32,18.34,3.35,26.18-1.27a17.1,17.1,0,0,0,7.8-10c1.54-5.4.21-11.07-1.71-16.19-1.58-4.22-3.9-8.26-7.69-10.81A18.11,18.11,0,0,0,894.6,1542.63Z" style="fill: #f4eea2"/>
        <path d="M879,1488.27c-6.45,1.32-11.87,5.76-16.39,10.35a152.66,152.66,0,0,0-13.46,15.92c-1.05,1.4-2.07,2.81-3.08,4.24a1.21,1.21,0,0,0,.65,1.7l.08,0h0a24.06,24.06,0,0,1,3.69,1.36c2,.81,3.92,1.66,5.88,2.5l5.29,2.27a52.3,52.3,0,0,0,6.33,2.13c8.42,2.29,18.37,3.2,26.17-1.47a17.15,17.15,0,0,0,7.74-10c1.52-5.37.19-11-1.73-16.08-1.58-4.19-3.89-8.21-7.68-10.74A18.12,18.12,0,0,0,879,1488.27Z" style="fill: #f4eea2"/>
        <path d="M852.55,1474.32c8.4,2.34,18.35,3.29,26.17-1.34a17.18,17.18,0,0,0,7.8-9.93c1.55-5.35.26-11-1.62-16-1.54-4.19-3.82-8.21-7.58-10.77a18.14,18.14,0,0,0-13.49-2.35c-6.47,1.26-11.93,5.65-16.48,10.2a152,152,0,0,0-13.59,15.84q-1.57,2.08-3.1,4.22a1,1,0,0,0-.09.94,1.06,1.06,0,0,0,.72.78l.09,0h0a25,25,0,0,1,3.68,1.39c2,.83,3.92,1.69,5.87,2.55l5.27,2.31A51.91,51.91,0,0,0,852.55,1474.32Z" style="fill: #f4eea2"/>
        <path d="M849.24,1379.39c-6.48,1.18-12,5.49-16.61,10a149.83,149.83,0,0,0-13.78,15.67c-1.07,1.39-2.12,2.78-3.15,4.2a1,1,0,0,0-.1.94,1,1,0,0,0,.71.78l.09,0h0a24.7,24.7,0,0,1,3.66,1.44c2,.85,3.9,1.74,5.84,2.62l5.25,2.37a52.43,52.43,0,0,0,6.3,2.24c8.39,2.43,18.32,3.48,26.19-1.07a17.16,17.16,0,0,0,7.9-9.83c1.62-5.32.39-10.93-1.42-16-1.49-4.2-3.72-8.24-7.45-10.84A18.17,18.17,0,0,0,849.24,1379.39Z" style="fill: #f4eea2"/>
        <path d="M835.52,1324.73c-6.51,1.06-12.1,5.27-16.79,9.68a147.1,147.1,0,0,0-14.05,15.45c-1.1,1.36-2.17,2.75-3.22,4.15a1,1,0,0,0-.11.94,1,1,0,0,0,.7.8l.08,0h0a25.06,25.06,0,0,1,3.64,1.5c2,.89,3.87,1.81,5.8,2.73,1.74.83,3.48,1.66,5.22,2.46a51.91,51.91,0,0,0,6.27,2.34c8.35,2.56,18.27,3.74,26.2-.7a17.31,17.31,0,0,0,8.05-9.7c1.69-5.28.57-10.88-1.16-16-1.41-4.21-3.57-8.28-7.24-10.94A18.17,18.17,0,0,0,835.52,1324.73Z" style="fill: #f4eea2"/>
        <path d="M798.24,1304.7c1.72.85,3.44,1.71,5.17,2.54a51.24,51.24,0,0,0,6.23,2.44c8.29,2.71,18.19,4.08,26.21-.21a17.17,17.17,0,0,0,8.21-9.57c1.8-5.27.75-10.91-.9-16.08-1.36-4.25-3.46-8.38-7.11-11.1a18.13,18.13,0,0,0-13.37-3c-6.52,1-12.16,5.14-16.91,9.49a151,151,0,0,0-14.27,15.21q-1.66,2-3.29,4.09a1.07,1.07,0,0,0-.13.94,1.08,1.08,0,0,0,.69.8l.08,0h0a24.77,24.77,0,0,1,3.62,1.55C794.42,1302.81,796.33,1303.75,798.24,1304.7Z" style="fill: #f4eea2"/>
        <path d="M796.94,1254.48c8.27,2.75,18.15,4.22,26.21,0a17.14,17.14,0,0,0,8.28-9.54c1.83-5.28.8-11-.84-16.18-1.35-4.28-3.45-8.44-7.1-11.19a18.08,18.08,0,0,0-13.38-3c-6.52,1-12.15,5.15-16.9,9.49a156.35,156.35,0,0,0-14.31,15.15q-1.68,2-3.31,4a1,1,0,0,0-.13.94,1,1,0,0,0,.68.8l.08,0h0a24.18,24.18,0,0,1,3.61,1.55c1.92.92,3.83,1.87,5.73,2.82l5.15,2.56A52.86,52.86,0,0,0,796.94,1254.48Z" style="fill: #f4eea2"/>
        <path d="M797,1159.34c-6.5,1.12-12.05,5.4-16.73,9.81a164.43,164.43,0,0,0-14.1,15.29c-1.1,1.34-2.19,2.7-3.26,4.06a1.2,1.2,0,0,0,.56,1.71l.09,0h0a23.6,23.6,0,0,1,3.61,1.5c1.93.89,3.85,1.81,5.76,2.74l5.16,2.49a53.35,53.35,0,0,0,6.22,2.42c8.29,2.69,18.18,4.13,26.22-.15a17,17,0,0,0,8.21-9.62c1.78-5.33.69-11.07-1-16.31-1.4-4.31-3.59-8.49-7.29-11.21A17.93,17.93,0,0,0,797,1159.34Z" style="fill: #f4eea2"/>
        <path d="M781.79,1104.17c-6.41,1.48-11.72,6.08-16.17,10.7a191.35,191.35,0,0,0-13.42,15.79c-1.05,1.37-2.09,2.74-3.11,4.13a1.15,1.15,0,0,0,.72,1.69,24.37,24.37,0,0,1,3.66,1.32q2.94,1.2,5.83,2.48l5.24,2.29a53.64,53.64,0,0,0,6.28,2.19c8.36,2.41,18.28,3.63,26.2-.87a16.92,16.92,0,0,0,7.92-9.93c1.59-5.45.29-11.26-1.68-16.53-1.61-4.34-4-8.52-7.87-11.12A17.62,17.62,0,0,0,781.79,1104.17Z" style="fill: #f4eea2"/>
        <path d="M746.45,1062.79c-4,5.56-7.8,11.32-11.41,17l-2.7,4.3a.9.9,0,0,0,0,1,.93.93,0,0,0,.46.41l.07,0a.5.5,0,0,0,.12,0,.48.48,0,0,0,.17,0,22.55,22.55,0,0,1,3.73.83c2,.54,4,1.12,6,1.74l5.38,1.71a63.34,63.34,0,0,0,6.42,1.59c8.51,1.64,18.49,2.24,26.06-2.87a16.59,16.59,0,0,0,7.05-10.73c1-5.75-.87-11.71-3.58-17a31.8,31.8,0,0,0-4-6.21,18.81,18.81,0,0,0-5.6-4.61,16.66,16.66,0,0,0-13.94-.3C754.62,1052.17,750.23,1057.64,746.45,1062.79Z" style="fill: #f4eea2"/>
      </g>
    </g>
  </g>
  <g>
    <g id="layer2-4" data-name="layer2">
      <path id="path863-6" data-name="path863" d="M1769,1934.12c-56.52,58.49-255.25-19.64-441.93-231.7-224.61-255.12-339.9-644.58-212.43-716.28,61-34.31,143.38-71.59,143.38-71.59s91.16-22.78,157.41-34.67c139.06-25,156.33,293.48,247.69,601.59C1747.32,1765.57,1825.48,1875.63,1769,1934.12Z" style="fill: #009b4e"/>
      <path id="path863-7" data-name="path863" d="M1769,1934.12c-56.52,58.49-255.25-19.64-441.93-231.7-224.61-255.12-339.9-644.58-212.43-716.28,61-34.31,143.38-71.59,143.38-71.59s91.16-22.78,157.41-34.67c139.06-25,156.33,293.48,247.69,601.59C1747.32,1765.57,1825.48,1875.63,1769,1934.12Z" style="fill: none;stroke: #3a3632;stroke-linecap: round;stroke-linejoin: round;stroke-width: 22.1524369263235px;isolation: isolate;opacity: 0.986000001430512"/>
      <path id="path863-8" data-name="path863" d="M1769,1934.12c-56.52,58.49-255.25-19.64-441.93-231.7-224.61-255.12-339.9-644.58-212.43-716.28,61-34.31,143.38-71.59,143.38-71.59s91.16-22.78,157.41-34.67c139.06-25,156.33,293.48,247.69,601.59C1747.32,1765.57,1825.48,1875.63,1769,1934.12Z" style="fill: none;stroke: #3a3632;stroke-linecap: round;stroke-width: 22.9263402394123px"/>
    </g>
    <g id="layer2-5" data-name="layer2">
      <path id="path863-9" data-name="path863" d="M1582.11,1671.22c-9.17,27.26-180.31-37.59-298.08-183.18-141.69-175.17-225.43-472.43-141.1-525.11,40.37-25.22,94.71-52.9,94.71-52.9s56.06,1.26,99.44-8.3c77.09-17.25,100.25,184.44,154.18,399.25C1541,1499,1592.09,1641.55,1582.11,1671.22Z" style="fill: #55ab54"/>
    </g>
    <circle cx="1219.76" cy="1133.12" r="73.06" style="fill: #fff"/>
    <circle cx="1419.22" cy="1181.02" r="47.89" style="fill: #6dcc6a"/>
    <path id="path915-2" data-name="path915" d="M1284.66,839.89c-27.89-39.89-28.23-178.25-38.2-212.87-9.64-33.48-27-45.63-70.22-37.81-41.31,7.6-66.07,23.3-72.06,53.67s90.17,186,88,233.24-104.2,79-105.66,114.52c14.47-1.25,47.18-4.82,90.67,9.46,49.93-37.77,169.13-78.22,210.31-72.84,0,0,26.41-36,57-58.14C1417.82,837.92,1312.54,879.78,1284.66,839.89Z" style="fill: #1f8441"/>
  </g>
  <g>
    <path d="M1393.46,499.64S1094.09,610,808.39,675.35c-333,76.14-662.93,99.26-687.23,23.63C105,648.75,1290.59,223.53,1290.59,223.53Z" style="fill: #e6e7e8;stroke: #3a3632;stroke-miterlimit: 10;stroke-width: 20px"/>
    <path d="M1861,209.63l-442.61,87.5a43.61,43.61,0,0,0-34.67,36.31h0a43.62,43.62,0,0,1-31.88,35.66l-6.4,1.71L1289.64,221l42.83-16,17-6.32L1781.73,37.64c13.54-5,29.09,3.14,34.73,18.28L1877,172.54C1882.85,188.39,1875.55,205.4,1861,209.63Z" style="fill: #3a3632"/>
  </g>
</svg>
