<svg xmlns="http://www.w3.org/2000/svg" xmlns:xlink="http://www.w3.org/1999/xlink" height="1147.697" width="1970.999" xmlns:v="https://vecta.io/nano"><style><![CDATA[.B{stroke-linecap:round}.C{stroke-width:12}.D{stroke-linejoin:round}.E{stroke-miterlimit:10}]]></style><defs><clipPath id="A"><path d="M1185.72 613c-1.65-52.08-40.63-97.12-86.9-121.06s-99.23-30.75-150.94-37.17l-178.52-22.2L500 480c-60.74 54.4-123.2 111.1-156.4 185.6-33.7 75.64-32.92 165.87 2.1 240.9 12.08 25.88 28.4 50.4 51.16 67.64 56.6 42.9 137.5 31 203.58 5 20.22-8 40-17.08 59.65-26.32a4196.28 4196.28 0 0 0 482.13-266.55c10.82-7 21.83-14.15 29.7-24.33 10.52-13.73 14.36-31.67 13.8-48.94z" fill="none"/></clipPath><path id="B" d="M1046.378 954.597l-43.92-17.5-.94-103.38 96.98-21.3 43.92 17.5 11.6 107.93z"/></defs><g fill="#fff" stroke="#231f20" stroke-width="24" class="E"><path d="M88.498 1135.697h1794c56.48 0 88.6-45.56 72.24-100.08l-93-309.8c-13-43.17-62.27-77.25-110.48-77.25H219.708c-48.22 0-97.53 34.08-110.5 77.25l-92.96 309.84c-16.35 54.5 15.8 100.05 72.24 100.05z"/><path d="M168.318 979.817c26.52 0 53-20.54 59.06-45.53l35.8-147.8c5.4-22.33-10.2-40.2-34.76-40.2s-49.37 17.86-55.45 40.2l-40.3 147.8c-6.8 25 9.1 45.53 35.63 45.53z"/></g><g transform="translate(-15.942 -7.353)" clip-path="url(#A)"><path d="M1244.8 772.9h-.07a111.73 111.73 0 0 0-6.63-41.71c-36.84-103.54-222-175-419-175s-382.2 71.47-419 175a111.73 111.73 0 0 0-6.63 41.71h-.07v47.47c2.75 110.35 175.65 208.5 425.7 208.5 251.64 0 425.15-99.77 425.74-211h0z" fill="#e58d76" stroke="#000" class="C D"/><path d="M1230.58 733.3c43.9 123.38-136.2 244.55-411.52 244.55S363.64 856.7 407.54 733.3c36.18-101.68 218-171.86 411.52-171.86s375.34 70.18 411.52 171.86z" fill="#f9c1c7"/><path d="M1226.07 818.44c-41.55 88.54-196.42 159.42-407 159.42-209.8 0-364.3-70.36-406.54-158.43" fill="none" stroke="#000" class="B C D"/><g fill="#fbd1d9"><path d="M610.7 610.07c-14.54 5.37-29.42 12.62-36 24.7s-.07 29.63 15.57 32c10.94 1.64 21.17-4.28 31.6-7.5 10.17-3.16 21.2-3.8 32.06-3.82a302.94 302.94 0 0 1 50.48 4.12c10 1.67 21.52 5.2 23.8 13.48 1.95 7-5.7 14.7-14.33 14.35-.54 9.34 14.06 14.1 25.07 12.43s21.46-6.88 32.6-6c9 .7 16.72 5.25 24 9.63 11.73 7 24 14.62 29.75 25.68.92 1.77 1.66 3.84.67 5.6-.86 1.53-2.8 2.4-4.68 3-11.63 3.95-24.66 3.13-37.2 3.9-29.9 1.86-58.85 13.67-78.57 32.54a10.31 10.31 0 0 0-3 4.15c-.6 2.06.25 4.23 1.47 6.1 5.18 7.88 16.3 11.9 27 12.67s21.43-1.08 32.13-2.08c15.46-1.43 32.06-.8 45.1 6.25s20.74 22.25 13.3 33.66c-3.12 4.8-8.42 8.37-14.1 11.07-12 5.73-25.93 8-39.56 10.1-13.84 2.14-28 4.23-41.9 2.13-17.62-2.68-33.27-12-51.1-13.43-17.48-1.47-34.38 4.72-51 9.42-14.88 4.2-30.6 7.45-43.08 15.4S560 892 566.34 904c6.06 11.44 22.37 16.1 37.13 18.24 21.52 3.1 44.45 3.7 63.08 13.22 6.4 3.27 12.12 7.53 19 10 7.86 2.83 16.64 3.14 25.18 3.4l64.18 2a41.19 41.19 0 0 0 10.83-.62 17.39 17.39 0 0 0 11.87-23.75c-4.1-9-14.66-15-25.6-18s-22.6-3.8-33.88-5.82-22.78-5.57-30.3-12.9c21.2-14.44 51.9-11.6 79-8.35s58.16 5.1 78.22-10.44 19.45-44.2 4.16-63.35-41.55-30.25-68-36.7c-2.28-.56-4.68-1.14-6.35-2.56-5.36-4.55 1.7-12.24 9.1-13.8s16-.74 21.88-4.84c4.4-3.06 6-8.1 6.53-12.86 3.5-29-25-58-59.77-60.73a24 24 0 0 1-6.31-1 9.06 9.06 0 0 1-5.77-10.37c.9-4 4.2-7.47 8-10.1 10.4-7.3 24.3-9.72 37.16-13.4s26.23-9.83 30.66-20.55c4.32-10.47-1.7-22.5-11.8-29.66s-23.55-10.3-36.67-11.74a182.86 182.86 0 0 0-52.34 1.79c-12.2 2.2-24.1 5.65-36.53 6.63-16.1 1.28-33.9-1.6-48 6.44-12.66 7.27-26 10.6-40.3 15.87zm362.66-9.42a107.27 107.27 0 0 0-66 3.26c-5.2 2-10.3 4.6-13.66 8.47s-4.6 9.36-1.76 13.52c1.56 2.28 4.13 4 6.72 5.43 17.92 10.28 40.33 14.95 61.93 12.92 7.23-.68 14.4-2.08 21.67-1.77 12.52.52 24.54 6.47 31.1 15.4 4.27 5.8 6 13.9.63 19.06-3.08 3-7.8 4.3-11.7 6.5s-7.26 6.26-5.4 9.86a9.37 9.37 0 0 0 3.7 3.42c12.4 7.35 29.3 4.18 44.43 5.42a69.11 69.11 0 0 1 29 8.93c10.15 5.92 18.43 17.25 12.42 26.3-2.78 4.18-8.2 7.06-9.9 11.64-2.43 6.56 4.45 13.46 12.37 15.28s16.32 0 24.25-1.8l36.74-8.37a34.62 34.62 0 0 1 10-1.28c6.93.43 12.46 4.75 18.5 7.6s15 3.8 18.88-1c1.56-2 1.86-4.42 1.88-6.78.15-18.12-15.1-35.6-35.8-41-5.78-1.52-12.12-2.27-16.8-5.48-3.7-2.52-5.86-6.24-7.92-9.84l-10.3-18a11.44 11.44 0 0 0-3.75-4.47 14.36 14.36 0 0 0-6.45-1.52 104.47 104.47 0 0 0-34.65 3.47c-11.06 3-24 7.73-33.37 1.95a11.82 11.82 0 0 1-1.46-19.32c7-5.6 20.42-5.82 23.2-13.6 1.62-4.53-1.6-9.23-5.17-12.88-13.6-14-34.75-22.56-56.3-22.94-8-.13-16.3.8-24-1.2-5.74-1.5-10.76-4.54-16.44-6.18a36 36 0 0 0-21.61.64"/><path d="M480.44 715.38c-16.3 2.23-31.4 10.1-40.95 21.4-2.82 3.34-5.24 7.14-5.28 11.23-.13 11.32 16.86 17.94 19.6 29 2.63 10.68-8.75 20.1-11.3 30.8a23.63 23.63 0 0 0 1.08 13.57c3.84 10.5 14 19.26 26.52 22.75 10.13 2.84 22 2.6 30.08 8.46 4.24 3.08 6.92 7.55 11.62 10.1 5.78 3.15 14.12 2.5 19.1-1.5a11.67 11.67 0 0 0 2.52-15.88c-1.9-2.64-4.86-4.62-7.82-6.45-9.2-5.7-19.2-10.7-26.72-17.93s-12.17-17.46-8.28-26.46c4.55-10.53 18.68-15.63 31.66-18.45 8.94-1.95 19.26-3.17 26.74 1.37 6.18 3.74 8.6 10.32 11.9 16.06s9.25 11.6 16.86 11.14c4.33-.26 8.1-2.6 11.07-5.23a31.82 31.82 0 0 0 10.79-19.85c.34-2.9.17-6-1.68-8.5-1.7-2.25-4.53-3.7-7.3-5a247.51 247.51 0 0 0-41.73-15.17c-8.68-2.3-19.2-5.72-20.23-13.28-.9-6.58 6.4-12.16 6.88-18.77a6.13 6.13 0 0 0-2-5.29 11.58 11.58 0 0 0-4.38-1.91c-22.9-6.16-49.6-1.1-67.08 12.7m562.4 75.63c-6-.57-12.93-.32-17 3.44-3.73 3.45-3.72 8.77-2.13 13.23 2.92 8.2 10.1 14.77 15.8 21.9s10 16.1 6.43 24.12c-4.27 9.48-17.82 13.52-29.94 14s-24.6-1.2-36.2 1.75c-8.56 2.18-16.3 7.12-20 13.9a17.52 17.52 0 0 0 2.89 21.09c5.83 5.68 16.72 7.54 24.25 3.5 4.58-2.46 7.47-6.57 11.35-9.76 10.63-8.73 29.46-9.14 40.62-.9 4 3 7.6 7.1 13 7.56 3.25.3 6.4-.88 9.38-2 11.95-4.63 25.17-10.47 28.72-21.06.86-2.57 1.15-5.43 3.23-7.45a11.4 11.4 0 0 1 4.21-2.35c10.8-3.73 23.92.44 34.44-3.78a32 32 0 0 0 10.25-7.24 80 80 0 0 0 17.39-24.75c1.58-3.58 2.87-7.5 1.7-11.2-1.5-4.66-6.5-7.85-11.2-10.66-8.47-5.08-17.28-10.3-27.5-12s-22.3.88-27.46 8.45c5.27-7.87-48.2-19.44-52.22-19.82z"/></g></g><path d="M1570.898 524.057s-254.73 164.13-506.1 283.65c-293 139.3-594 228.84-632.2 163.75-25.33-43.24 985.94-682.1 985.94-682.1z" fill="#d1d3d4" stroke="#231f20" stroke-width="24" class="E"/><path d="M1944.468 158.717l-392.24 172.47a41.41 41.41 0 0 0-24.65 40.81h0a41.4 41.4 0 0 1-22.19 39.65l-5.58 2.9-82.67-127.37 418.33-271.53c11.5-7.47 27.62-3.1 36 9.78l80.14 95.62c8.72 13.47 5.45 30.75-7.14 37.67z" fill="#231f20"/><g fill="#f9c1c7" stroke="#0d0e19" class="C D"><path d="M1057.848 859.697l-39.44-15.7-.85-92.85 87.1-19.14 39.44 15.7 10.4 96.94z"/><g class="B"><path d="M1077.768 824.637v-40.23l38.46-10.05"/><path d="M1077.768 784.407l-32.18-13.23"/></g><path d="M965.008 887.167l-39.45-15.7-.84-92.85 87.1-19.14 39.45 15.7 10.4 96.95z"/><g class="B"><path d="M984.928 852.107v-40.22l38.46-10.06"/><path d="M984.918 811.887l-32.17-13.23"/></g><path d="M872.168 914.647l-39.45-15.7-.84-92.85 87.1-19.14 39.45 15.7 10.4 96.94z"/><g class="B"><path d="M892.078 879.587v-40.23l38.47-10.05"/><path d="M892.078 839.357l-32.17-13.22"/></g><path d="M779.328 942.127l-39.45-15.7-.84-92.85 87.1-19.14 39.45 15.7 10.4 96.94z"/><g class="B"><path d="M799.238 907.067v-40.23l38.47-10.05"/><path d="M799.238 866.837l-32.17-13.23"/></g><use xlink:href="#B"/><g class="B"><path d="M1068.548 915.557v-44.8l42.83-11.2"/><path d="M1068.548 870.767l-35.82-14.72"/></g><path d="M1205.698 910.977l-43.92-17.48-.94-103.38 96.98-21.3 43.92 17.5 11.6 107.93z"/><g class="B"><path d="M1227.868 871.947v-44.8l42.83-11.2"/><path d="M1227.868 827.157l-35.82-14.73"/></g><use xlink:href="#B" x="98.39" y="59.53"/><g class="B"><path d="M1166.938 975.087v-44.8l42.82-11.2"/><path d="M1166.938 930.297l-35.82-14.72"/></g><path d="M953.538 982.067l-43.92-17.5-.94-103.37 96.98-21.3 43.92 17.48 11.6 107.94z"/><g class="B"><path d="M975.708 943.037v-44.8l42.83-11.2"/><path d="M975.708 898.247l-35.82-14.73"/></g><use xlink:href="#B" x="-185.68" y="54.95"/><g class="B"><path d="M882.868 970.507v-44.78l42.83-11.2"/><path d="M882.868 925.727l-35.82-14.73"/></g><use xlink:href="#B" x="-278.52" y="82.43"/><g class="B"><path d="M790.028 997.987v-44.8l42.82-11.2"/><path d="M790.028 953.197l-35.82-14.73"/></g><path d="M1001.348 1085.207l-43.92-17.48-.94-103.38 96.98-21.3 43.92 17.5 11.58 107.93z"/><g class="B"><path d="M1023.518 1046.177v-44.8l42.82-11.2"/><path d="M1023.518 1001.387l-35.82-14.73"/></g></g></svg>