<?xml version="1.0" encoding="UTF-8"?>
<svg id="Layer_1" data-name="Layer 1" xmlns="http://www.w3.org/2000/svg" width="2000" height="1635.81" viewBox="0 0 2000 1635.81">
  <g>
    <path d="m104.44,1606.3h1794c56.48,0,88.59-45.57,72.24-100.08l-92.96-309.81c-12.95-43.18-62.27-77.25-110.49-77.25H235.65c-48.22,0-97.53,34.07-110.49,77.25l-92.96,309.81c-16.36,54.52,15.76,100.08,72.24,100.08Z" style="fill: #fff; stroke: #3a3632; stroke-miterlimit: 10; stroke-width: 24px;"/>
    <path d="m184.26,1450.42c26.53,0,53.01-20.54,59.06-45.53l35.81-147.8c5.41-22.34-10.19-40.19-34.76-40.19-24.57,0-49.37,17.85-55.45,40.19l-40.28,147.8c-6.81,24.99,9.1,45.53,35.62,45.53Z" style="fill: #fff; stroke: #3a3632; stroke-miterlimit: 10; stroke-width: 24px;"/>
  </g>
  <g>
    <path d="m1322.46,476.93s-299.37,110.4-585.07,175.72c-332.99,76.13-662.93,99.26-687.23,23.63-16.14-50.24,1169.43-475.45,1169.43-475.45l102.87,276.1Z" style="fill: #e6e7e8; stroke: #3a3632; stroke-miterlimit: 10; stroke-width: 20px;"/>
    <path d="m1790.02,186.92l-442.61,87.5c-18.06,3.57-31.94,18.1-34.67,36.31h0c-2.58,17.18-15.1,31.18-31.88,35.66l-6.39,1.71-55.82-149.83,42.83-15.96,16.97-6.32L1710.73,14.93c13.54-5.04,29.09,3.14,34.73,18.28l60.48,116.62c5.91,15.85-1.4,32.86-15.93,37.09Z" style="fill: #3a3632; stroke-width: 0px;"/>
  </g>
  <g id="layer2">
    <path id="path920" d="m983.81,869.61c29.06-147.16-96.28-147.94-147.48-193.33-22.67,40,5.95,191.46,147.48,193.33Z" style="fill: #218541; stroke: #010101; stroke-width: 24px;"/>
    <path id="path902" d="m968.18,944.68c-15-159.33,119.97-174.34,132.16-174.34-10.31,16.87,5.62,32.81,5.62,32.81,0,0-123.74,9.37-106.87,142.47l-30.91-.94Z" style="fill: #734d2f; stroke: #010101; stroke-linecap: round; stroke-linejoin: round; stroke-width: 24px;"/>
    <path id="path837-1" d="m929.75,1396.19c-19.69,5.75-36.49,11.04-50.13,5.78,32.67-208.24,27.99-270.6-6.55-512.55,17.79,1.91,30.94,7.32,42.16,13.7,22.45,12.76,37.23,29.77,66.21,29.59,32.46-.2,54.74-14.03,80.69-25.35,12.98-5.66,26.88-10.7,43.42-13.09-57.66,245.1-58.64,304.42-17.56,507.71-4.04,1.48-8.32,2.19-12.62,2.1-11.04,0-23.36-3.64-37.27-7.89-16.3-4.95-34.64-10.63-54.06-10.52-19.69.13-38.06,5.75-54.33,10.52h.02Z" style="fill: #f2e8d9; stroke: #010101; stroke-linecap: round; stroke-linejoin: round; stroke-width: 24px;"/>
    <path id="path837-7" d="m988.49,1131c-2.16-4.32-8.2-4.32-10.57,0-9.47,18.34-26.11,56.96,5.18,56.96s14.89-38.84,5.4-56.96Z" style="fill: #983a20; stroke-width: 0px;"/>
  </g>
  <g id="layer3">
    <path id="path1498" d="m1046.89,1222.95c-8.94,82.34,277.19,403.29,471.19,130.79-143.11-56.43-458.85-132.75-471.19-130.79Z" style="fill: #f2e8d9; stroke: #010101; stroke-linecap: round; stroke-linejoin: round; stroke-width: 24px;"/>
    <path id="path1494" d="m973.67,1255.4c-11.48,82.03-367.47,323.18-488.87,11.48,152.57-19.69,477.39-16.41,488.87-11.48Z" style="fill: #f2e8d9; stroke: #010101; stroke-linecap: round; stroke-linejoin: round; stroke-width: 24px;"/>
  </g>
</svg>