<svg id="Layer_1" data-name="Layer 1" xmlns="http://www.w3.org/2000/svg" viewBox="0 0 2000 1192.05"><path d="M104.44,1177.88h1794c56.48,0,88.59-45.57,72.24-100.09l-93-309.81c-13-43.17-62.27-77.25-110.48-77.25H235.65c-48.22,0-97.53,34.08-110.49,77.25l-93,309.81C15.85,1132.31,48,1177.88,104.44,1177.88Z" style="fill:#fff;stroke:#3a3632;stroke-miterlimit:10;stroke-width:20px"/><path d="M184.26,1022c26.52,0,53-20.55,59.06-45.54l35.81-147.79c5.41-22.34-10.19-40.2-34.76-40.2s-49.37,17.86-55.45,40.2L148.63,976.46C141.82,1001.45,157.73,1022,184.26,1022Z" style="fill:#fff;stroke:#3a3632;stroke-miterlimit:10;stroke-width:20px"/><path d="M704.64,555.68c110.13,27.26,222.07,128.18,177.61,249.69C869.14,841,843.05,873,807.38,887.72,782,898.16,752.05,916,723.92,915.61c-25.74-.38-48.77-2.37-74.94-1.85A208,208,0,0,1,484.68,839c-23.26-28-66.6-50.54-76.35-147.51-13.18-131,130-133.65,199.87-140.38,21.95-2.11,44.12-3.73,66-1.07A255.76,255.76,0,0,1,704.64,555.68Z" style="fill:#c93c27;stroke:#3a3632;stroke-miterlimit:10;stroke-width:20px"/><path d="M1556.84,526.24s-254.73,164.12-506.1,283.64c-293,139.31-594,228.85-632.19,163.75-25.33-43.24,985.94-682.11,985.94-682.11Z" style="fill:#e6e7e8;stroke:#3a3632;stroke-miterlimit:10;stroke-width:20px"/><path d="M1930.41,160.89,1538.17,333.36a41.42,41.42,0,0,0-24.65,40.81h0a41.4,41.4,0,0,1-22.19,39.64l-5.58,2.9-82.67-127.36,36.41-23.64,14.43-9.36L1821.41,17.82c11.51-7.47,27.62-3.09,36,9.78l80.14,95.62C1946.27,136.69,1943,154,1930.41,160.89Z" style="fill:#3a3632"/><polygon points="1129.96 810.87 1144.8 949.11 1006.96 970.57 950.7 948.17 949.5 815.77 1073.71 788.47 1129.96 810.87" style="fill:#c93c27;stroke:#3a3632;stroke-linecap:round;stroke-linejoin:round;stroke-width:20px"/><polyline points="1023.57 899.2 1023.57 858.98 1062.03 848.92" style="fill:#c93c27;stroke:#3a3632;stroke-linecap:round;stroke-linejoin:round;stroke-width:20px"/><line x1="1023.57" y1="858.98" x2="991.39" y2="845.75" style="fill:#fcac42;stroke:#3a3632;stroke-linecap:round;stroke-linejoin:round;stroke-width:20px"/><polygon points="901.52 877.69 907.46 1002.04 783.11 1013.92 734.02 990.92 739.96 872.5 852.43 854.69 901.52 877.69" style="fill:#c93c27;stroke:#3a3632;stroke-linecap:round;stroke-linejoin:round;stroke-width:20px"/><polyline points="799.06 961.79 807.8 917.92 846.27 907.87" style="fill:#c93c27;stroke:#3a3632;stroke-linecap:round;stroke-linejoin:round;stroke-width:20px"/><line x1="807.8" y1="917.92" x2="775.63" y2="900.49" style="fill:#fcac42;stroke:#3a3632;stroke-linecap:round;stroke-linejoin:round;stroke-width:20px"/><polygon points="1047.19 945.46 1062.03 1083.7 924.18 1105.16 867.93 1082.77 866.73 950.36 990.94 923.07 1047.19 945.46" style="fill:#c93c27;stroke:#3a3632;stroke-linecap:round;stroke-linejoin:round;stroke-width:20px"/><polyline points="944.14 1050.64 944.14 988.61 1003.46 973.11" style="fill:#c93c27;stroke:#3a3632;stroke-linecap:round;stroke-linejoin:round;stroke-width:20px"/><line x1="944.14" y1="988.61" x2="894.53" y2="968.21" style="fill:#fcac42;stroke:#3a3632;stroke-linecap:round;stroke-linejoin:round;stroke-width:20px"/><polygon points="1234.26 910 1244.67 1006.95 1148 1022 1108.55 1006.29 1107.71 913.44 1194.81 894.3 1234.26 910" style="fill:#c93c27;stroke:#3a3632;stroke-linecap:round;stroke-linejoin:round;stroke-width:20px"/><polyline points="1167.91 986.93 1167.91 946.71 1206.38 936.65" style="fill:#c93c27;stroke:#3a3632;stroke-linecap:round;stroke-linejoin:round;stroke-width:20px"/><line x1="1167.91" y1="946.71" x2="1135.74" y2="933.48" style="fill:#fcac42;stroke:#3a3632;stroke-linecap:round;stroke-linejoin:round;stroke-width:20px"/><polygon points="1232.57 992.21 1244.16 1100.14 1136.53 1116.89 1092.61 1099.4 1091.67 996.03 1188.65 974.72 1232.57 992.21" style="fill:#c93c27;stroke:#3a3632;stroke-linecap:round;stroke-linejoin:round;stroke-width:20px"/><polyline points="1158.7 1077.86 1158.7 1033.07 1201.53 1021.88" style="fill:#c93c27;stroke:#3a3632;stroke-linecap:round;stroke-linejoin:round;stroke-width:20px"/><line x1="1158.7" y1="1033.07" x2="1122.88" y2="1018.34" style="fill:#fcac42;stroke:#3a3632;stroke-linecap:round;stroke-linejoin:round;stroke-width:20px"/><circle cx="549.21" cy="633.74" r="37.72" style="fill:#fff"/></svg>