<?xml version="1.0" encoding="utf-8"?>
<!-- Generator: Adobe Illustrator 26.3.1, SVG Export Plug-In . SVG Version: 6.00 Build 0)  -->
<svg version="1.1" id="Layer_1" xmlns="http://www.w3.org/2000/svg" xmlns:xlink="http://www.w3.org/1999/xlink" x="0px" y="0px"
	 viewBox="0 0 2000 1203.1" style="enable-background:new 0 0 2000 1203.1;" xml:space="preserve">
<style type="text/css">
	.st0{fill:#FFFFFF;stroke:#3A3632;stroke-width:20;stroke-miterlimit:10;}
	.st1{fill:#C93C27;stroke:#3A3632;stroke-width:20;stroke-miterlimit:10;}
	.st2{fill:#E6E7E8;stroke:#3A3632;stroke-width:20;stroke-miterlimit:10;}
	.st3{fill:#3A3632;}
	.st4{fill:#C93C27;stroke:#3A3632;stroke-width:10;stroke-linecap:round;stroke-linejoin:round;}
	.st5{fill:none;stroke:#3A3632;stroke-width:10;stroke-linecap:round;stroke-linejoin:round;}
</style>
<g>
	<path class="st0" d="M104.4,1177.9h1794c56.5,0,88.6-45.6,72.2-100.1l-93-309.8c-12.9-43.2-62.3-77.2-110.5-77.2H235.6
		c-48.2,0-97.5,34.1-110.5,77.2l-93,309.8C15.8,1132.3,48,1177.9,104.4,1177.9z"/>
	<path class="st0" d="M184.3,1022c26.5,0,53-20.5,59.1-45.5l35.8-147.8c5.4-22.3-10.2-40.2-34.8-40.2s-49.4,17.8-55.4,40.2
		l-40.3,147.8C141.8,1001.5,157.7,1022,184.3,1022L184.3,1022z"/>
</g>
<path class="st1" d="M704.6,555.7c110.1,27.3,222.1,128.2,177.6,249.7C869.2,841,843,873,807.4,887.7C782,898.2,752,916,723.9,915.6
	c-25.7-0.4-48.8-2.4-74.9-1.8c-28.6,0.6-57.4-4.7-83.9-15.7c-30.9-12.8-59-33.3-80.4-59.1c-23.2-28.1-66.6-50.5-76.4-147.5
	c-13.2-131,130-133.7,199.9-140.4c22-2.1,44.1-3.7,66-1.1C684.2,551.2,694.4,553.1,704.6,555.7L704.6,555.7z"/>
<g>
	<path class="st2" d="M1557.3,527.8c0,0-255.2,162.5-506.5,282.1c-293,139.3-594,228.8-632.2,163.8
		c-25.3-43.2,985.9-682.1,985.9-682.1L1557.3,527.8z"/>
	<path class="st3" d="M1930.4,160.9l-392.2,172.5c-16,7-25.9,23.4-24.7,40.8l0,0c1.2,16.5-7.6,32-22.2,39.6l-5.6,2.9l-82.7-127.4
		l36.4-23.6l14.4-9.4l367.5-238.5c11.5-7.5,27.6-3.1,36,9.8l80.1,95.6C1946.3,136.7,1943,154,1930.4,160.9z"/>
</g>
<g>
	<g>
		<polygon class="st4" points="1133.8,807.9 1141,874.5 1074.6,884.8 1047.5,874 1046.9,810.2 1106.7,797.1 		"/>
		<g>
			<polyline class="st4" points="1082.6,850.4 1082.6,831.1 1101.1,826.2 			"/>
			<line class="st5" x1="1082.6" y1="831.1" x2="1067.1" y2="824.7"/>
		</g>
	</g>
	<g>
		<polygon class="st4" points="1023.8,840.1 1026.6,900 966.7,905.7 943.1,894.6 945.9,837.6 1000.1,829 		"/>
		<g>
			<polyline class="st4" points="974.4,880.6 978.6,859.5 997.2,854.6 			"/>
			<line class="st5" x1="978.6" y1="859.5" x2="963.1" y2="851.1"/>
		</g>
	</g>
	<g>
		<polygon class="st4" points="1094,872.7 1101.1,939.3 1034.7,949.7 1007.6,938.9 1007,875.1 1066.9,861.9 		"/>
		<polyline class="st4" points="1044.3,923.4 1044.3,893.5 1072.9,886 		"/>
		<line class="st5" x1="1044.3" y1="893.5" x2="1020.4" y2="883.7"/>
	</g>
	<g>
		<polygon class="st4" points="1184.1,855.7 1189.1,902.4 1142.5,909.6 1123.5,902 1123.1,857.3 1165.1,848.1 		"/>
		<g>
			<polyline class="st4" points="1152.1,892.7 1152.1,873.3 1170.7,868.5 			"/>
			<line class="st5" x1="1152.1" y1="873.3" x2="1136.6" y2="867"/>
		</g>
	</g>
	<g>
		<polygon class="st4" points="1183.3,895.2 1188.9,947.3 1137,955.3 1115.8,946.9 1115.4,897.1 1162.1,886.8 		"/>
		<g>
			<polyline class="st4" points="1147.7,936.5 1147.7,914.9 1168.3,909.5 			"/>
			<line class="st5" x1="1147.7" y1="914.9" x2="1130.4" y2="907.8"/>
		</g>
	</g>
</g>
<g>
	<g>
		<polygon class="st4" points="963.2,892.2 970.3,958.8 903.9,969.2 876.8,958.4 876.2,894.6 936,881.4 		"/>
		<g>
			<polyline class="st4" points="911.9,934.8 911.9,915.4 930.4,910.6 			"/>
			<line class="st5" x1="911.9" y1="915.4" x2="896.4" y2="909"/>
		</g>
	</g>
	<g>
		<polygon class="st4" points="853.1,924.4 855.9,984.3 796,990 772.4,979 775.2,921.9 829.4,913.3 		"/>
		<g>
			<polyline class="st4" points="803.7,964.9 807.9,943.8 826.5,939 			"/>
			<line class="st5" x1="807.9" y1="943.8" x2="792.4" y2="935.4"/>
		</g>
	</g>
	<g>
		<polygon class="st4" points="923.3,957.1 930.4,1023.7 864,1034 836.9,1023.2 836.3,959.4 896.2,946.3 		"/>
		<polyline class="st4" points="873.6,1007.8 873.6,977.9 902.2,970.4 		"/>
		<line class="st5" x1="873.6" y1="977.9" x2="849.7" y2="968"/>
	</g>
	<g>
		<polygon class="st4" points="1013.4,940 1018.4,986.7 971.8,993.9 952.8,986.4 952.4,941.6 994.4,932.4 		"/>
		<g>
			<polyline class="st4" points="981.4,977 981.4,957.7 1000,952.8 			"/>
			<line class="st5" x1="981.4" y1="957.7" x2="965.9" y2="951.3"/>
		</g>
	</g>
	<g>
		<polygon class="st4" points="1012.6,979.6 1018.2,1031.6 966.3,1039.7 945.2,1031.2 944.7,981.4 991.4,971.2 		"/>
		<g>
			<polyline class="st4" points="977,1020.9 977,999.3 997.6,993.9 			"/>
			<line class="st5" x1="977" y1="999.3" x2="959.7" y2="992.2"/>
		</g>
	</g>
</g>
<g>
	<g>
		<polygon class="st4" points="1230.3,929.9 1237.5,996.5 1171.1,1006.8 1143.9,996 1143.4,932.2 1203.2,919.1 		"/>
		<g>
			<polyline class="st4" points="1179.1,972.5 1179.1,953.1 1197.6,948.2 			"/>
			<line class="st5" x1="1179.1" y1="953.1" x2="1163.6" y2="946.7"/>
		</g>
	</g>
	<g>
		<polygon class="st4" points="1120.3,962.1 1123.1,1022 1063.2,1027.7 1039.6,1016.6 1042.4,959.6 1096.6,951 		"/>
		<g>
			<polyline class="st4" points="1070.9,1002.6 1075.1,981.5 1093.6,976.6 			"/>
			<line class="st5" x1="1075.1" y1="981.5" x2="1059.6" y2="973.1"/>
		</g>
	</g>
	<g>
		<polygon class="st4" points="1190.4,994.7 1197.6,1061.3 1131.2,1071.7 1104.1,1060.9 1103.5,997.1 1163.3,983.9 		"/>
		<polyline class="st4" points="1140.8,1045.4 1140.8,1015.5 1169.4,1008.1 		"/>
		<line class="st5" x1="1140.8" y1="1015.5" x2="1116.9" y2="1005.7"/>
	</g>
	<g>
		<polygon class="st4" points="1280.6,977.7 1285.6,1024.4 1239,1031.6 1220,1024 1219.6,979.3 1261.6,970.1 		"/>
		<g>
			<polyline class="st4" points="1248.6,1014.7 1248.6,995.3 1267.1,990.5 			"/>
			<line class="st5" x1="1248.6" y1="995.3" x2="1233.1" y2="989"/>
		</g>
	</g>
	<g>
		<polygon class="st4" points="1279.8,1017.3 1285.3,1069.3 1233.5,1077.3 1212.3,1068.9 1211.9,1019.1 1258.6,1008.8 		"/>
		<g>
			<polyline class="st4" points="1244.2,1058.5 1244.2,1036.9 1264.8,1031.6 			"/>
			<line class="st5" x1="1244.2" y1="1036.9" x2="1226.9" y2="1029.8"/>
		</g>
	</g>
</g>
</svg>
