<svg xmlns="http://www.w3.org/2000/svg" xmlns:xlink="http://www.w3.org/1999/xlink" height="1993.898" width="1929.105" xmlns:v="https://vecta.io/nano"><g fill="#fff" stroke="#231f20" stroke-linejoin="round"><path d="M525.695 532.048h1329.06a62.22 62.22 0 0 1 62.35 62.36v1325.13a62.22 62.22 0 0 1-62.35 62.36h-1329a62.22 62.22 0 0 1-62.36-62.36V594.408a62.23 62.23 0 0 1 62.3-62.36z" opacity=".99" stroke-width="24"/><path d="M586.025 630.808h1208.37a27.85 27.85 0 0 1 27.91 27.92v1200.4a27.85 27.85 0 0 1-27.91 27.91H586.025a27.86 27.86 0 0 1-27.92-27.91v-1200.4a27.86 27.86 0 0 1 27.92-27.92z" opacity=".99" stroke-width="12"/></g><path d="M620.055 675.708c-56.2 0 4.25 69.1-21.16 263.2-14.14 107.72 14.08 319.78 12.52 428.38-1.47 101.73-5.88 231.26 0 332.83 5.28 91.34 20.46 131.23 69.16 147 62.92 20.33 277.46-21.94 343.54-24.43 94.9-3.58 127.9 31.8 222.7 37.4 169.2 10 488.8-14.72 523-69.16 36.86-58.62-1-402.06 4.32-587.86 3.33-115.36-34.3-192.7 8.36-388.33s-57.6-145-155.33-143.34c-38.07.64-434.4 30.16-510 30.26-123.97.17-387.4-25.93-497.1-25.93z" fill="#e1c98b" stroke="#231f20" stroke-width="24" stroke-miterlimit="15.1181"/><g fill="#231f20"><path d="M655.485 1047.158h20.75v16.6h-20.75z"/><use xlink:href="#B"/><path d="M1704.185 1047.158h20.75v16.6h-20.75zm-1048.7 408.66h20.75v16.6h-20.75z"/><use xlink:href="#B" y="408.65"/><path d="M1704.185 1455.818h20.75v16.6h-20.75zm-317.95-730.76h16.6v20.75h-16.6z"/><use xlink:href="#C"/><path d="M1386.235 1773.768h16.6v20.75h-16.6zm-408.66-1048.7h16.6v20.75h-16.6z"/><use xlink:href="#C" x="-408.65"/><path d="M977.575 1773.768h16.6v20.75h-16.6z"/></g><path d="M305.175 566.078s212.35 212.1 430.75 380.3c254.56 196.06 527.36 345.62 577.88 290.56 33.56-36.57-812.12-866.3-812.12-866.3z" fill="#d1d3d4" stroke="#231f20" stroke-width="24" stroke-miterlimit="10"/><path d="M19.755 134.348l343.77 248.93a41 41 0 0 1 15.34 44.66h0a41 41 0 0 0 13.21 43l4.8 4 106.64-106-348.3-350.25c-9.6-9.64-26.1-8.76-36.87 2l-97.57 75.7c-11.27 11.22-11.72 28.63-1 37.96z" fill="#231f20"/><defs ><path id="B" d="M1663.065 1063.768h-41.1v-16.6h41.1zm-82.23 0h-41.08v-16.6h41.12zm-82.24 0h-41.12v-16.6h41.12zm-82.24 0h-41.12v-16.6h41.12zm-82.23 0h-41.12v-16.6h41.12zm-82.24 0h-41.13v-16.6h41.1zm-82.23 0h-41.12v-16.6h41.12zm-82.24 0h-41.1v-16.6h41.1zm-82.23 0h-41.13v-16.6h41.13zm-82.24 0h-41.12v-16.6h41.12zm-82.24 0h-41.12v-16.6h41.17zm-82.23 0h-41.12v-16.6h41.12z"/><path id="C" d="M1402.835 1732.648h-16.6v-41.12h16.6zm0-82.24h-16.6v-41.13h16.6zm0-82.23h-16.6v-41.12h16.6zm0-82.24h-16.6v-41.12h16.6zm0-82.24h-16.6v-41.1h16.6zm0-82.23h-16.6v-41.12h16.6zm0-82.24h-16.6v-41.1h16.6zm0-82.24h-16.6v-41.1h16.6zm0-82.23h-16.6v-41.12h16.6zm0-82.24h-16.6v-41.1h16.6zm0-82.23h-16.6v-41.12h16.6zm0-82.24h-16.6v-41.12h16.6z"/></defs></svg>