<svg xmlns="http://www.w3.org/2000/svg" xmlns:xlink="http://www.w3.org/1999/xlink" height="1187.705" width="1971.021" xmlns:v="https://vecta.io/nano"><style><![CDATA[.B{stroke-linecap:round}.C{stroke-width:24}.D{stroke-miterlimit:10}.E{stroke-linejoin:round}]]></style><g fill="#fff" stroke="#231f20" class="C D"><path d="M88.52 1175.705h1794c56.48 0 88.6-45.57 72.24-100.1l-93-309.8c-13-43.17-62.27-77.25-110.48-77.25H219.73c-48.22 0-97.53 34.08-110.5 77.25l-93 309.8c-16.3 54.52 15.84 100.1 72.28 100.1z"/><path d="M168.34 1019.825c26.52 0 53-20.55 59.06-45.54l35.8-147.8c5.4-22.34-10.2-40.2-34.76-40.2s-49.37 17.85-55.45 40.2l-40.3 147.8c-6.8 25 9.1 45.54 35.63 45.54z"/></g><path d="M644.28 393.745c-75.06-13-167.33-2.68-215.58 85.16-47.74 86.92-14 214.57 103.2 281 118.95 63.2 244.8 23.23 292.53-63.7 48.25-87.84 7.45-171.24-43.8-227.6z" fill="#fcfbf3" stroke="#010101" stroke-opacity=".984" class="C E"/><path d="M1540.92 524.065s-254.73 164.12-506.1 283.64c-293 139.3-594 228.85-632.2 163.75-25.33-43.24 985.94-682.1 985.94-682.1z" fill="#d1d3d4" stroke="#231f20" class="C D"/><path d="M1914.5 158.715l-392.24 172.47a41.42 41.42 0 0 0-24.65 40.81h0a41.4 41.4 0 0 1-22.19 39.64l-5.58 2.9-82.67-127.37 418.33-271.53c11.5-7.47 27.62-3.1 36 9.78l80.14 95.62c8.72 13.47 5.45 30.75-7.14 37.67z" fill="#231f20"/><g stroke="#010101" fill="#faf9f3" stroke-width="8.381" class="E"><path d="M913.57 964.195c-7.42-15.07 46.2-39.5 46.2-39.5 21.2 1.25 13.6 23.68 25.74 30.72s-45.36 49.47-52.13 32c-5-13-19.8-23.2-19.8-23.2z"/><path d="M939.65 974.545s29.3-12 35.26-23.3" class="B"/><use xlink:href="#B"/><path d="M1116.08 926.405s29.3-12 35.26-23.3" class="B"/><path d="M1212.93 905.405c16.55-2.94 25.13 55.35 25.13 55.35-7.1 20-26.53 6.5-36.66 16.2s-34.92-57.33-16.24-59c13.93-1.22 27.77-12.58 27.77-12.58z"/><path d="M1195.74 927.545s3.4 31.5 12.6 40.35" class="B"/><use xlink:href="#B" x="-75" y="-0.89"/><path d="M1041.08 925.535s29.3-12 35.26-23.3" class="B"/><path d="M1186.76 954.855c-11.1 12.62-54.17-27.6-54.17-27.6-7-20.07 16.7-21.62 18.55-35.53s63.06 23 49.48 36c-10.13 9.64-13.86 27.16-13.86 27.16z"/><path d="M1186.36 926.795s-22.3-22.5-35-23.68" class="B"/><path d="M1085.28 927.405c4.5-16.2 60.77 1.3 60.77 1.3 15 15-5.62 26.72-1.26 40s-66.8 6.7-60.18-10.87c4.92-13.08.67-30.48.67-30.48z"/><path d="M1097.84 952.485s29.86 10.56 41.82 6.1" class="B"/><path d="M1051.33 940.535c-7.43-15.08 46.18-39.5 46.18-39.5 21.2 1.24 13.6 23.67 25.75 30.7s-45.37 49.48-52.13 32c-5-13-19.8-23.18-19.8-23.18z"/><path d="M1077.4 950.885s29.3-12 35.26-23.3" class="B"/><path d="M1009.08 928.855c16.38-3.8 28 54 28 54-6 20.36-26.15 7.85-35.77 18.07s-37.84-55.44-19.27-58c13.85-1.93 27.08-14 27.08-14z"/><path d="M993.02 951.895s5 31.27 14.67 39.64" class="B"/><path d="M891.2 822.985c16.73-1.66 20.8 57.1 20.8 57.1-8.6 19.42-26.94 4.44-37.8 13.34s-30.42-59.84-11.66-60c14-.15 28.65-10.4 28.65-10.4z"/><path d="M872.37 843.775s1 31.66 9.46 41.2" class="B"/><path d="M975.76 914.485c2.47-16.63 60.46-6.2 60.46-6.2 16.73 13.1-2.3 27.2 3.7 39.9s-65.46 14.85-61.07-3.38c3.28-13.6-3.08-30.33-3.08-30.33z"/><path d="M991.3 937.835s30.93 6.8 42.26.9" class="B"/></g><defs ><path id="B" d="M1090 916.075c-7.43-15.08 46.18-39.52 46.18-39.52 21.2 1.25 13.6 23.68 25.75 30.72s-45.37 49.47-52.13 32c-5-13-19.8-23.18-19.8-23.18z"/></defs></svg>