<svg id="Layer_1" data-name="Layer 1" xmlns="http://www.w3.org/2000/svg" viewBox="0 0 2000 1192.05"><path d="M103,1177.88H1897c56.48,0,88.59-45.57,72.24-100.09l-93-309.81c-13-43.17-62.27-77.25-110.49-77.25H234.21c-48.22,0-97.54,34.08-110.49,77.25l-93,309.81C14.41,1132.31,46.52,1177.88,103,1177.88Z" style="fill:#fff;stroke:#3a3632;stroke-miterlimit:10;stroke-width:24px"/><path d="M182.82,1022c26.52,0,53-20.55,59.06-45.54l35.81-147.79c5.41-22.34-10.19-40.2-34.76-40.2s-49.37,17.86-55.45,40.2L147.19,976.46C140.38,1001.45,156.29,1022,182.82,1022Z" style="fill:#fff;stroke:#231f20;stroke-miterlimit:10;stroke-width:24px"/><path d="M600.28,478.54a5,5,0,0,0-1.76,2.59,7.42,7.42,0,0,0-.84-.95c-2.72-2.59-7.08-3-9.74-.87a5.25,5.25,0,0,0-1,7.11,7.51,7.51,0,0,0-8.25.24c-2.67,2.11-2.63,5.92.09,8.5a8.53,8.53,0,0,0,1,.81,6.4,6.4,0,0,0-3.13,1.29c-2.67,2.11-2.63,5.91.09,8.5l.07.05a5.08,5.08,0,0,0-1.09,1.77,4.61,4.61,0,0,0,.35,3.72,5.55,5.55,0,0,0,.43,3.11,6,6,0,0,0-4.34,3.64c-1,3,1.29,6.23,5.15,7.23a9.3,9.3,0,0,0,1.35.23,5.18,5.18,0,0,0-1.91,2.51,5,5,0,0,0,1.4,5.14c-10.8-5.12-19-9.2-22.53-11a9.12,9.12,0,0,0-4.37-1.79c-4.68-.63-9.06,2.15-9.79,6.21a6.65,6.65,0,0,0-.07,1.72,9.26,9.26,0,0,0-3.38-1.14c-4.69-.63-9.07,2.16-9.8,6.22a6.52,6.52,0,0,0,.52,3.89,11.21,11.21,0,0,0-1.57-.35c-4.69-.63-9.07,2.16-9.8,6.22-.6,3.38,1.52,6.58,4.95,7.92a8.52,8.52,0,0,0-6.94,4.57c-1.51-3.83-6.28-5.93-10.74-4.68a8.73,8.73,0,0,0-3.78,2.14,7,7,0,0,0-.34-1.37c-1.46-3.91-6.29-6.07-10.8-4.81-3.75,1-6.09,4.13-5.94,7.39a9.28,9.28,0,0,0-9.79-3c-4.51,1.26-7,5.46-5.54,9.37a6.5,6.5,0,0,0,.65,1.29,9.91,9.91,0,0,0-4.52.17c-4.51,1.26-7,5.45-5.54,9.37a7.31,7.31,0,0,0,1.83,2.72,10,10,0,0,0-1.94.33c-4.52,1.26-7,5.45-5.55,9.37a7.52,7.52,0,0,0,2.68,3.43c2.69,2.9,9.18,10,17.35,19.24a6.49,6.49,0,0,0-3.73,1.34,5.12,5.12,0,0,0-1.77,2.59,7.33,7.33,0,0,0-.83-.95c-2.72-2.59-7.08-3-9.75-.86a5.37,5.37,0,0,0-1.3,1.49l-.06-.08a7.33,7.33,0,0,0-2.72-2.63c-3.37-1.92-7.71-1.36-9.69,1.25a4.57,4.57,0,0,0-.65,1.18,7.81,7.81,0,0,0-2.2-1.87c-3.37-1.92-7.71-1.36-9.69,1.25a4.77,4.77,0,0,0-1,2.89,7.61,7.61,0,0,0-1.08-.74c-3.37-1.92-7.71-1.36-9.69,1.25-1.65,2.18-1.14,5.09,1,7.11-3-.92-6.28-.17-7.93,2-2,2.62-.86,6.3,2.51,8.22a9.51,9.51,0,0,0,1.21.57,5.9,5.9,0,0,0-2.67,1.92c-2,2.61-.86,6.29,2.51,8.21a8.61,8.61,0,0,0,2.85,1,5.46,5.46,0,0,0-1,1c-1.62,2.14-1.17,5,.89,7-3.9.24-7.23,2.78-7.85,6.28a6.17,6.17,0,0,0-.07,1.71,9.36,9.36,0,0,0-3.39-1.13c-4.68-.63-9.06,2.15-9.79,6.21a6.55,6.55,0,0,0,.51,3.9,8.75,8.75,0,0,0-1.57-.35c-4.68-.63-9.06,2.15-9.79,6.21-.61,3.38,1.52,6.58,4.95,7.92-3.74.38-6.88,2.87-7.49,6.25-.72,4.06,2.48,7.87,7.17,8.5a10.92,10.92,0,0,0,1.61.08,7,7,0,0,0-1.85,3.57c-.72,4.07,2.48,7.87,7.17,8.5a9.72,9.72,0,0,0,3.62-.19,6.65,6.65,0,0,0-.54,1.65c-.72,4.07,2.48,7.87,7.17,8.5a9.65,9.65,0,0,0,4.06-.31,5,5,0,0,0-.28.63c-1,3,1.29,6.24,5.15,7.23a9.34,9.34,0,0,0,1.35.24,5.18,5.18,0,0,0-1.91,2.51c-1,3,1.28,6.23,5.15,7.22a9.17,9.17,0,0,0,3.06.26,4.47,4.47,0,0,0-.61,1.19,4.67,4.67,0,0,0,.47,3.95,5,5,0,0,0-.33,5.82,5.66,5.66,0,0,0,2.54,2,8,8,0,0,0-1.25.5c-3.49,1.75-4.86,5.37-3.06,8.08a5.56,5.56,0,0,0,1.47,1.47c-4.75.13-8.4.2-10.55.23a9.66,9.66,0,0,0-4.8.44c-4.38,1.56-6.47,5.91-4.67,9.71a7.24,7.24,0,0,0,1,1.5,10,10,0,0,0-3.57.55c-4.38,1.57-6.47,5.92-4.67,9.72a7.6,7.6,0,0,0,2.77,3.1,9.58,9.58,0,0,0-1.55.41c-4.39,1.56-6.48,5.91-4.67,9.72,1.5,3.16,5.22,4.94,9,4.55a6.86,6.86,0,0,0-2.68,8.71c1.81,3.8,6.82,5.61,11.2,4a9.45,9.45,0,0,0,1.44-.66,6.42,6.42,0,0,0,.55,3.89c1.8,3.8,6.81,5.62,11.19,4a8.64,8.64,0,0,0,3-1.79,6.35,6.35,0,0,0,.53,1.65,6.8,6.8,0,0,0,.62,1,4.86,4.86,0,0,0,.7,1.08,6,6,0,0,0,2.79,1.79,7.82,7.82,0,0,0-1.18.62c-3.24,2.08-4.12,5.81-2,8.33,1.79,2.09,5.11,2.68,8,1.62-2,2.12-2.34,5.05-.56,7.14,2.15,2.52,6.51,2.87,9.75.79a8.42,8.42,0,0,0,1-.8,4.76,4.76,0,0,0,1.15,2.84c2.15,2.52,6.51,2.87,9.75.78a7.4,7.4,0,0,0,2.08-2,4.68,4.68,0,0,0,.73,1.14c2.14,2.52,6.51,2.87,9.75.78a7.48,7.48,0,0,0,1.68-1.46,5.53,5.53,0,0,0,2.6,7.55,7.44,7.44,0,0,0,8.09-1.44,5.53,5.53,0,0,0,.54,4.58c-4,5-7.13,8.75-8.77,10.71a7.29,7.29,0,0,0-2.5,3.59,7.06,7.06,0,0,0,3.88,8.26,5.41,5.41,0,0,0,2.29,5.88,6.63,6.63,0,0,0,.46,2.29c-.15.19-.3.39-.44.59a5.58,5.58,0,0,0,2,8.32,6.81,6.81,0,0,0,3.38.66,7.53,7.53,0,0,0-.79,1,5.58,5.58,0,0,0,2,8.32,7.43,7.43,0,0,0,8.11-1.32,5.45,5.45,0,0,0,2.8,6.74,7.48,7.48,0,0,0,9.29-2.68,7.55,7.55,0,0,0,.58-1.08,5.55,5.55,0,0,0,2.37,2.19,7.47,7.47,0,0,0,9.29-2.68,6.24,6.24,0,0,0,1-2.52,5.94,5.94,0,0,0,1.2.79,7.47,7.47,0,0,0,9.29-2.68,6.29,6.29,0,0,0,.77-1.59,8.1,8.1,0,0,0,6.2-5.33,6.51,6.51,0,0,0,.15-3.15,9.72,9.72,0,0,0,1.84.63c4.3,1,8.68-1,10.2-4.59l.82.37c-3.06,14.61-5.88,26.14-7,30.49a6.51,6.51,0,0,0-.62,4.16c.74,4.06,5.14,6.83,9.82,6.18a9.77,9.77,0,0,0,1.9-.46,6.38,6.38,0,0,0-.21,3.14c.74,4.06,5.14,6.83,9.82,6.19a9.21,9.21,0,0,0,4.11-1.62,6,6,0,0,0,.1,1.4c.74,4.06,5.14,6.84,9.81,6.19,3.9-.53,6.76-3.27,7.18-6.51a8.93,8.93,0,0,0,9.14,4.27c4.68-.65,7.87-4.46,7.13-8.52a6.27,6.27,0,0,0-.4-1.36,9.71,9.71,0,0,0,4.48.43c4.68-.64,7.88-4.46,7.13-8.52a6.83,6.83,0,0,0-1.31-2.93,10.07,10.07,0,0,0,2-.07c4.68-.64,7.87-4.46,7.13-8.52a7,7,0,0,0-2-3.74c-.22-.32-.46-.69-.73-1.1q4.54.59,9.17,1c2.21,9.38,3.75,16.55,4.42,19.79a6.7,6.7,0,0,0,1.26,4c2.48,3.51,7.76,4.61,11.8,2.46a8.34,8.34,0,0,0,1.55-1.07,6.86,6.86,0,0,0,1.19,3c2.48,3.5,7.76,4.6,11.8,2.45a7.87,7.87,0,0,0,3.09-2.86,7.21,7.21,0,0,0,.71,1.26c2.48,3.51,7.76,4.61,11.8,2.46a7,7,0,0,0,3.75-8.41,9.59,9.59,0,0,0,10.33.91c4-2.15,5.31-6.74,2.83-10.24a7.49,7.49,0,0,0-1-1.12,9.77,9.77,0,0,0,1.62-.16,5.76,5.76,0,0,0,2.27,1.93,6.67,6.67,0,0,0,1.41.47,7.27,7.27,0,0,0-2,2.05,5.59,5.59,0,0,0,2.2,8.28,6.76,6.76,0,0,0,3.4.61,7.59,7.59,0,0,0-.77,1,5.59,5.59,0,0,0,2.2,8.28,7.43,7.43,0,0,0,8.09-1.44,5.47,5.47,0,0,0,2.93,6.69,7.46,7.46,0,0,0,9.24-2.82,7,7,0,0,0,.56-1.09,5.65,5.65,0,0,0,2.41,2.16,7.47,7.47,0,0,0,9.24-2.82,6.24,6.24,0,0,0,.93-2.54,6.31,6.31,0,0,0,1.22.77,7.46,7.46,0,0,0,9.24-2.82,6.21,6.21,0,0,0,1-3.39c1.21-6.07,6-29.15,12.46-52.45q8-4.1,15.5-8.75a9.65,9.65,0,0,0,3.4.13,9.88,9.88,0,0,0,1.91-.47,6.39,6.39,0,0,0-.21,3.14c.74,4.07,5.13,6.84,9.81,6.19a9,9,0,0,0,4.12-1.62,6.69,6.69,0,0,0,.09,1.41c.75,4.06,5.14,6.83,9.82,6.19,3.9-.54,6.75-3.27,7.18-6.52a8.89,8.89,0,0,0,9.14,4.27c4.68-.64,7.87-4.45,7.13-8.52a7.11,7.11,0,0,0-.41-1.36,9.75,9.75,0,0,0,4.49.44c4.68-.65,7.87-4.46,7.13-8.52a6.83,6.83,0,0,0-1.32-2.94,9.41,9.41,0,0,0,2-.06c4.68-.65,7.87-4.46,7.13-8.52a7,7,0,0,0-2-3.75c-2-2.92-6.38-9.64-12-18.53a7.33,7.33,0,0,0,7.28-.85,5.24,5.24,0,0,0,.87-7.12,8.06,8.06,0,0,0,5.91.79l2,3.22a6.83,6.83,0,0,0,2.22,3c3,2.35,7.38,2.38,9.8.06a5.39,5.39,0,0,0,.85-1.08,7.08,7.08,0,0,0,1.84,2.14c3,2.34,7.38,2.37,9.8,0a5,5,0,0,0,1.47-2.73,7.09,7.09,0,0,0,.93.88c3,2.35,7.38,2.37,9.8.06a5.24,5.24,0,0,0,.25-7.17c2.8,1.31,6.17,1,8.19-.92,2.42-2.32,2-6.1-1-8.45a7.77,7.77,0,0,0-1.1-.73,6.26,6.26,0,0,0,3-1.53c2.42-2.32,2-6.11-1-8.46a8.5,8.5,0,0,0-2.63-1.38,5.31,5.31,0,0,0,1.15-.84c2.42-2.32,2-6.1-1-8.45a8.33,8.33,0,0,0-3.57-1.62c-1.38-.51-3.57-1.34-6.41-2.42a7.47,7.47,0,0,0,4.08-5.38,6.13,6.13,0,0,0,0-1.71,9.67,9.67,0,0,0,3.41,1.07c4.7.55,9-2.31,9.65-6.39a6.51,6.51,0,0,0-.61-3.88,9,9,0,0,0,1.58.32c4.7.55,9-2.31,9.65-6.39.52-3.39-1.68-6.55-5.14-7.83,3.73-.44,6.81-3,7.34-6.38.63-4.07-2.67-7.82-7.36-8.37a11.14,11.14,0,0,0-1.63,0,6.92,6.92,0,0,0,1.77-3.61c.63-4.07-2.66-7.82-7.36-8.37a9.91,9.91,0,0,0-3.62.26,6.78,6.78,0,0,0,.5-1.66c.63-4.08-2.67-7.83-7.36-8.37a9.62,9.62,0,0,0-4.72.62l-1.47.3c0-.06.07-.11.1-.16,1.52-2.84-.21-6.33-3.87-7.81a9.06,9.06,0,0,0-3-.64,5.48,5.48,0,0,0,.81-1.1c1.52-2.84-.22-6.33-3.87-7.81a9,9,0,0,0-4-.62l-1-.09a4.39,4.39,0,0,0-.56-1.07c-.07-.1-.15-.19-.23-.29,0-.28-.07-.56-.1-.84a8.69,8.69,0,0,0,2.27-.81c3.45-1.81,4.74-5.45,2.87-8.12a5.83,5.83,0,0,0-2.59-2,8.41,8.41,0,0,0,1.24-.53,5.3,5.3,0,0,0,.57-.33c9.34.88,16.4,1.65,19.77,2a9.7,9.7,0,0,0,4.83.19c4.6-1,7.4-5,6.26-9a6.53,6.53,0,0,0-.7-1.6,9.88,9.88,0,0,0,3.63-.09c4.6-1,7.4-5,6.26-9a7.19,7.19,0,0,0-2.2-3.42,9.86,9.86,0,0,0,1.6-.2c4.6-1,7.4-5,6.27-9-.95-3.32-4.34-5.56-8.1-5.64,3.28-1.61,5.07-4.95,4.12-8.28-1.13-4-5.79-6.42-10.39-5.43a8.39,8.39,0,0,0-1.52.47,6.54,6.54,0,0,0,.11-3.92c-1.14-4-5.79-6.43-10.39-5.44a9,9,0,0,0-3.25,1.39,6.72,6.72,0,0,0-.25-1.7c-1.14-4-5.79-6.43-10.39-5.44a8.94,8.94,0,0,0-4.13,2.08c-3.61,2.19-12.54,7.55-24.24,14.24q-2.93-5.54-6.24-10.87c1.54-1.74,3.06-3.45,4.55-5.1a7.86,7.86,0,0,0,3-2.08,6.44,6.44,0,0,0,1.48-2.84c8.35-9.15,15.09-16.19,17.69-18.89a7,7,0,0,0,2.35-2.85,5.74,5.74,0,0,0-3.48-7.94,6.75,6.75,0,0,0-1.47-.31,6.72,6.72,0,0,0,1.63-2.26,5.74,5.74,0,0,0-3.47-7.94,6.81,6.81,0,0,0-3.46-.21,6.55,6.55,0,0,0,.6-1.07,5.75,5.75,0,0,0-3.48-8,7.25,7.25,0,0,0-7.79,2.38,5.71,5.71,0,0,0-4-6.29A7.23,7.23,0,0,0,832,573a6.2,6.2,0,0,0-.38,1.15,6,6,0,0,0-2.73-1.86,7.23,7.23,0,0,0-8.71,3.89,6.19,6.19,0,0,0-.53,2.63,5.74,5.74,0,0,0-1.32-.63,7.24,7.24,0,0,0-8.3,3.1c-1.22-2.88-5.2-4.31-9-3.19a8.2,8.2,0,0,0-2.66,1.33,4.49,4.49,0,0,0-.3-1.28,6.16,6.16,0,0,0-4.78-3.54c.19-3.29.36-5.83.47-7.43a6.49,6.49,0,0,0-.12-4.19,8.29,8.29,0,0,0-6.55-5l5-3.21a8.37,8.37,0,0,0,3.63-2.77c2.53-3.48,1.33-8.08-2.67-10.27a9.93,9.93,0,0,0-1.79-.74,7.94,7.94,0,0,0,2.55-2.24c2.53-3.48,1.33-8.08-2.68-10.27a9.44,9.44,0,0,0-4.32-1.14,8.09,8.09,0,0,0,1-1.11c2.53-3.48,1.33-8.08-2.68-10.27a9.59,9.59,0,0,0-10.34.79,7,7,0,0,0-3.63-8.45c-4-2.19-9.3-1.15-11.83,2.32a6.74,6.74,0,0,0-.73,1.26,8,8,0,0,0-3-2.9c-4-2.19-9.31-1.15-11.84,2.33a6.8,6.8,0,0,0-1.24,2.95,8.71,8.71,0,0,0-1.53-1.08c-4-2.19-9.31-1.15-11.84,2.32a7.69,7.69,0,0,0-.8,1.41,6,6,0,0,0-2.12-1.23,7.22,7.22,0,0,0-8.71,3.89,6.19,6.19,0,0,0-.54,2.62,6.16,6.16,0,0,0-1.32-.62,7.24,7.24,0,0,0-8.71,3.88,6.14,6.14,0,0,0-.45,1.52,6.78,6.78,0,0,0-5.59-2.08,6.41,6.41,0,0,0-1.47.32,5.91,5.91,0,0,0,.24-2.66,6.72,6.72,0,0,0-9-5.26c.18-2.95.33-5.25.43-6.73a6.49,6.49,0,0,0-.12-4.19c-1.45-3.92-6.28-6.07-10.79-4.81a9.26,9.26,0,0,0-1.8.72,6.44,6.44,0,0,0-.35-3.14c-1.45-3.91-6.28-6.06-10.79-4.8a8.67,8.67,0,0,0-3.78,2.14,6.73,6.73,0,0,0-.35-1.37c-1.45-3.92-6.28-6.07-10.79-4.81-3.76,1.05-6.1,4.13-5.94,7.39a9.27,9.27,0,0,0-9.79-3,8.24,8.24,0,0,0-5.15,4c-3.48-6.63-6-11.68-7.19-14a6.58,6.58,0,0,0-1.88-3.09c-2.71-2.59-7.08-3-9.74-.87a5.38,5.38,0,0,0-1,1,6.83,6.83,0,0,0-1.6-2.28C607.31,476.82,602.94,476.43,600.28,478.54Z" style="fill:#39b54a;stroke:#3a3632;stroke-width:10px"/><path d="M583.94,731.08c-40.05-3.3-115-28.13-128.34-32.64a9.42,9.42,0,0,0-4.63-1.18c-4.74,0-8.58,3.33-8.58,7.44a6.35,6.35,0,0,0,.24,1.7,9.83,9.83,0,0,0-3.55-.67c-4.74,0-8.58,3.34-8.58,7.45a6.66,6.66,0,0,0,1.2,3.78,9.48,9.48,0,0,0-1.62-.14c-4.73,0-8.57,3.34-8.57,7.45,0,3.42,2.66,6.3,6.29,7.17-3.63.87-6.29,3.74-6.29,7.16,0,4.12,3.84,7.45,8.57,7.45a9.48,9.48,0,0,0,1.62-.14,6.66,6.66,0,0,0-1.2,3.78c0,4.12,3.84,7.45,8.58,7.45a9.83,9.83,0,0,0,3.55-.67,6.4,6.4,0,0,0-.24,1.7c0,4.11,3.84,7.45,8.58,7.45a9.46,9.46,0,0,0,4.58-1.16c13.28-4.42,89.15-29.26,128.39-32.64Z" style="fill:#39b54a;stroke:#3a3632;stroke-width:10px"/><path d="M583.54,731.44c-28.37,16.59-91.71,36.56-103,40.07a8.41,8.41,0,0,0-3.72,1.44c-3.14,2.19-3.86,5.95-1.6,8.39a6.36,6.36,0,0,0,1.1.9,8.16,8.16,0,0,0-2.72,1.24c-3.14,2.19-3.86,5.95-1.6,8.39a6,6,0,0,0,2.87,1.68,7.73,7.73,0,0,0-1.14.67c-3.14,2.19-3.86,5.95-1.6,8.38,1.88,2,5.23,2.51,8.11,1.34-1.92,2.2-2.11,5.14-.22,7.16,2.26,2.44,6.63,2.64,9.78.45a9,9,0,0,0,1-.83,4.87,4.87,0,0,0,1.28,2.79c2.27,2.44,6.64,2.64,9.79.45a7.64,7.64,0,0,0,2-2,5.14,5.14,0,0,0,.78,1.12c2.26,2.43,6.64,2.63,9.78.44a7,7,0,0,0,2.4-2.81c6.37-8.77,43-58.62,67.17-78.79Z" style="fill:#39b54a;stroke:#3a3632;stroke-width:10px"/><path d="M583.54,731.44c-28.37-16.6-91.71-36.57-103-40.08a8.41,8.41,0,0,1-3.72-1.44c-3.14-2.19-3.86-5.95-1.6-8.38a5.55,5.55,0,0,1,1.1-.9,8.39,8.39,0,0,1-2.72-1.25c-3.14-2.19-3.86-5.95-1.6-8.38a6.11,6.11,0,0,1,2.87-1.69,7.73,7.73,0,0,1-1.14-.67c-3.14-2.19-3.86-5.95-1.6-8.38,1.88-2,5.23-2.5,8.11-1.34-1.92-2.19-2.11-5.13-.22-7.16,2.26-2.44,6.63-2.64,9.78-.44a8,8,0,0,1,1,.82,4.9,4.9,0,0,1,1.28-2.79c2.27-2.44,6.64-2.64,9.79-.44a7.36,7.36,0,0,1,2,2,4.91,4.91,0,0,1,.78-1.12c2.26-2.44,6.64-2.64,9.78-.44a7,7,0,0,1,2.4,2.8c6.37,8.77,43,58.62,67.17,78.8Z" style="fill:#39b54a;stroke:#3a3632;stroke-width:10px"/><path d="M642,782.14c-35,17.18-112.87,34-126.79,36.92a9.39,9.39,0,0,0-4.58,1.33c-3.89,2.35-4.84,7-2.13,10.36a7.55,7.55,0,0,0,1.31,1.28,9.32,9.32,0,0,0-3.35,1.21c-3.89,2.35-4.84,7-2.13,10.37a8.33,8.33,0,0,0,3.47,2.5,9.67,9.67,0,0,0-1.41.69c-3.89,2.35-4.84,7-2.13,10.37a9.33,9.33,0,0,0,9.88,2.76,6.68,6.68,0,0,0-.44,9,9.45,9.45,0,0,0,11.95,1.85,8.16,8.16,0,0,0,1.23-.91,6.79,6.79,0,0,0,1.51,3.69,9.45,9.45,0,0,0,12,1.85,7.93,7.93,0,0,0,2.46-2.31,7.86,7.86,0,0,0,.93,1.52,9.45,9.45,0,0,0,12,1.85,7.68,7.68,0,0,0,3-3.23c8-10.21,53.85-68.24,83.82-90.49Z" style="fill:#39b54a;stroke:#3a3632;stroke-width:10px"/><path d="M641.91,782.64c-12.33,27.68-51.13,75.5-58.11,84a6.76,6.76,0,0,0-2.1,3,5.87,5.87,0,0,0,4.22,7.67,6.29,6.29,0,0,0,1.49.2,6.7,6.7,0,0,0-1.42,2.37,5.87,5.87,0,0,0,4.22,7.67,7,7,0,0,0,3.47,0,6.17,6.17,0,0,0-.5,1.11,5.87,5.87,0,0,0,4.22,7.67,7.09,7.09,0,0,0,7.53-2.93,5.86,5.86,0,0,0,4.53,6,7.07,7.07,0,0,0,8.32-4.49,6.18,6.18,0,0,0,.27-1.17,6.07,6.07,0,0,0,2.89,1.65,7.07,7.07,0,0,0,8.32-4.49,6.08,6.08,0,0,0,.28-2.65,6.69,6.69,0,0,0,1.38.53,7.07,7.07,0,0,0,8.31-4.49,5.92,5.92,0,0,0,.12-3.5c-.55-10.35-3.34-69.44,3.18-98Z" style="fill:#39b54a;stroke:#3a3632;stroke-width:10px"/><path d="M641.91,782.64c-34.2.46-99.32,15.51-110.92,18.25a9,9,0,0,1-4,.67c-4-.24-7.09-3-6.84-6.09a4.6,4.6,0,0,1,.3-1.28,9.2,9.2,0,0,1-3.05.33c-4-.24-7.08-3-6.83-6.09a4.83,4.83,0,0,1,1.24-2.81,8.93,8.93,0,0,1-1.37,0c-4-.24-7.09-3-6.84-6.09.21-2.59,2.64-4.64,5.77-5.12-3-.84-5.11-3.16-4.9-5.76.24-3.12,3.71-5.46,7.73-5.22a9.9,9.9,0,0,1,1.36.19,4.69,4.69,0,0,1-.79-2.93c.25-3.12,3.71-5.46,7.73-5.22a9,9,0,0,1,3,.69,4.34,4.34,0,0,1-.09-1.3c.24-3.12,3.71-5.46,7.73-5.22a8.8,8.8,0,0,1,3.82,1.11c11,4,73.91,26.75,107,31.31Z" style="fill:#39b54a;stroke:#3a3632;stroke-width:10px"/><path d="M682.68,611c-30.28-23-74.36-81.15-82.16-91.57a7.61,7.61,0,0,0-3-3.32,9.46,9.46,0,0,0-12,1.69,7.17,7.17,0,0,0-1,1.5,8,8,0,0,0-2.42-2.34,9.45,9.45,0,0,0-12,1.69,6.8,6.8,0,0,0-1.57,3.67,8.85,8.85,0,0,0-1.22-.92,9.44,9.44,0,0,0-12,1.69,6.67,6.67,0,0,0,.28,9,9.36,9.36,0,0,0-9.93,2.63c-2.77,3.34-1.9,8,1.94,10.39a8.77,8.77,0,0,0,1.4.71,8.43,8.43,0,0,0-3.51,2.46c-2.77,3.34-1.9,8,1.94,10.39a9.51,9.51,0,0,0,3.33,1.26,7.56,7.56,0,0,0-1.33,1.26c-2.77,3.34-1.9,8,1.94,10.39a9.34,9.34,0,0,0,4.5,1.39c13.75,3.14,92,21.47,126.16,38.63Z" style="fill:#39b54a;stroke:#3a3632;stroke-width:10px"/><path d="M682.11,611.05c-34.19-.93-99-16.85-110.58-19.74a8.87,8.87,0,0,0-4-.72c-4,.18-7.13,2.87-6.94,6a4.64,4.64,0,0,0,.28,1.29,9.17,9.17,0,0,0-3-.37c-4,.19-7.14,2.87-7,6a4.8,4.8,0,0,0,1.2,2.83,9,9,0,0,0-1.38,0c-4,.19-7.13,2.87-6.94,6,.16,2.6,2.56,4.69,5.68,5.2-3,.81-5.17,3.1-5,5.7.19,3.12,3.61,5.5,7.64,5.32a8.57,8.57,0,0,0,1.36-.17,4.69,4.69,0,0,0-.84,2.92c.2,3.12,3.62,5.51,7.64,5.32a8.89,8.89,0,0,0,3-.65,4.71,4.71,0,0,0-.12,1.3c.2,3.13,3.62,5.51,7.64,5.32a8.59,8.59,0,0,0,3.84-1.06c11.07-3.88,74.38-25.75,107.57-29.86Z" style="fill:#39b54a;stroke:#3a3632;stroke-width:10px"/><path d="M682.11,611.05c-11.84-27.85-49.78-76.19-56.61-84.77a6.81,6.81,0,0,1-2-3.06,5.91,5.91,0,0,1,4.35-7.62,7,7,0,0,1,1.5-.17,6.55,6.55,0,0,1-1.37-2.39,5.9,5.9,0,0,1,4.35-7.61,6.9,6.9,0,0,1,3.47.08,6.19,6.19,0,0,1-.48-1.12,5.9,5.9,0,0,1,4.35-7.61,7.06,7.06,0,0,1,7.48,3,5.9,5.9,0,0,1,4.64-5.93,7,7,0,0,1,8.23,4.6,5.52,5.52,0,0,1,.25,1.18,6.2,6.2,0,0,1,2.93-1.62,7,7,0,0,1,8.23,4.6,6.11,6.11,0,0,1,.24,2.66,6.88,6.88,0,0,1,1.38-.51,7,7,0,0,1,8.24,4.6,6,6,0,0,1,0,3.5c-.73,10.34-4.57,69.38,1.44,98Z" style="fill:#39b54a;stroke:#3a3632;stroke-width:10px"/><path d="M734.35,621.78c-2.28-34.86,14.74-102.89,17.86-115a6.57,6.57,0,0,0,.66-4.15c-.72-4.07-5.09-6.86-9.78-6.24a9.08,9.08,0,0,0-1.9.45,6.5,6.5,0,0,0,.23-3.14c-.71-4.06-5.09-6.86-9.77-6.24a9.16,9.16,0,0,0-4.13,1.6,6.15,6.15,0,0,0-.09-1.41c-.71-4.06-5.08-6.86-9.77-6.24-3.9.52-6.77,3.24-7.22,6.48a8.89,8.89,0,0,0-9.11-4.32c-4.69.62-7.91,4.41-7.19,8.48a6.86,6.86,0,0,0,.39,1.36,9.69,9.69,0,0,0-4.48-.45c-4.68.61-7.9,4.41-7.19,8.48a6.91,6.91,0,0,0,1.3,2.94,9.4,9.4,0,0,0-2,.05c-4.68.62-7.9,4.42-7.19,8.48a7,7,0,0,0,2,3.76c7,10.72,46.75,72.08,56.5,105.24Z" style="fill:#39b54a;stroke:#3a3632;stroke-width:10px"/><path d="M733.87,621.48c-23.17-21.83-55.45-73.17-61.15-82.36a6.78,6.78,0,0,0-2.2-3c-3-2.37-7.36-2.42-9.79-.11a5.44,5.44,0,0,0-.87,1.07A7,7,0,0,0,658,535c-3-2.37-7.36-2.42-9.79-.11a4.9,4.9,0,0,0-1.49,2.72,8,8,0,0,0-.94-.89c-3-2.36-7.35-2.41-9.79-.1a5.21,5.21,0,0,0-.3,7.16c-2.79-1.32-6.17-1-8.2.88-2.43,2.31-2,6.09,1,8.46a10,10,0,0,0,1.1.73,6.1,6.1,0,0,0-3,1.52c-2.44,2.3-2,6.09,1,8.46a8.38,8.38,0,0,0,2.62,1.39A5.84,5.84,0,0,0,629,566c-2.44,2.3-2,6.09,1,8.45a8.16,8.16,0,0,0,3.56,1.64c10.94,4.15,73.25,28.09,99.86,45.78Z" style="fill:#39b54a;stroke:#3a3632;stroke-width:10px"/><path d="M733.87,621.48c14.64-26.83,27.86-84.17,30.15-94.41a6.24,6.24,0,0,1,1.08-3.42,7.51,7.51,0,0,1,9.32-2.63,6.35,6.35,0,0,1,1.19.8,6.28,6.28,0,0,1,1-2.52,7.5,7.5,0,0,1,9.31-2.63,5.6,5.6,0,0,1,2.35,2.21,6.74,6.74,0,0,1,.59-1.08,7.5,7.5,0,0,1,9.31-2.63,5.45,5.45,0,0,1,2.75,6.76,7.42,7.42,0,0,1,8.12-1.27,5.57,5.57,0,0,1,2,8.32,7.6,7.6,0,0,1-.8,1,6.69,6.69,0,0,1,3.38.68,5.56,5.56,0,0,1,2,8.32,7.29,7.29,0,0,1-2,2,6.78,6.78,0,0,1,1.39.5,5.58,5.58,0,0,1,2,8.33,7.53,7.53,0,0,1-2.84,2.48c-9,6.78-60.31,45.72-79.65,69.48Z" style="fill:#39b54a;stroke:#3a3632;stroke-width:10px"/><path d="M721.32,690.47c-39.91,4.36-119.29-5.71-133.45-7.58a9.75,9.75,0,0,0-4.82-.28c-4.62.9-7.53,4.88-6.5,8.89a6.73,6.73,0,0,0,.66,1.62,9.85,9.85,0,0,0-3.63,0C569,694,566,698,567.08,702a7.12,7.12,0,0,0,2.11,3.46,9.92,9.92,0,0,0-1.61.18c-4.62.89-7.53,4.87-6.5,8.89.86,3.34,4.18,5.64,7.94,5.8-3.32,1.54-5.2,4.85-4.34,8.19,1,4,5.62,6.54,10.24,5.64a8.65,8.65,0,0,0,1.55-.44,6.45,6.45,0,0,0-.22,3.92c1,4,5.61,6.54,10.24,5.64a9.25,9.25,0,0,0,3.29-1.32,6.22,6.22,0,0,0,.2,1.7c1,4,5.62,6.54,10.24,5.65a9,9,0,0,0,4.18-2c11.85-6.82,79.66-45.42,117.11-56.14Z" style="fill:#39b54a;stroke:#3a3632;stroke-width:10px"/><path d="M721,690.9c-23.52,21.55-80.32,53-90.49,58.59a7.92,7.92,0,0,0-3.27,2.11c-2.51,2.74-2.27,6.54.55,8.49a5.86,5.86,0,0,0,1.29.67,7.86,7.86,0,0,0-2.34,1.73c-2.51,2.73-2.27,6.53.55,8.48a6.52,6.52,0,0,0,3.23,1.11,7.76,7.76,0,0,0-.95.86c-2.52,2.74-2.27,6.54.55,8.49a7.51,7.51,0,0,0,8.25-.23,5.29,5.29,0,0,0,1.57,7c2.82,2,7.15,1.32,9.66-1.41a7,7,0,0,0,.76-1,5.2,5.2,0,0,0,2,2.48c2.82,2,7.14,1.32,9.65-1.41a6.78,6.78,0,0,0,1.43-2.37,5,5,0,0,0,1,.94c2.82,2,7.14,1.32,9.66-1.41a6.5,6.5,0,0,0,1.63-3.2c4-9.76,27.26-65.35,45.77-89.6Z" style="fill:#39b54a;stroke:#3a3632;stroke-width:10px"/><path d="M721,690.9c-31.85-10.83-98.68-18.35-110.61-19.63a8.79,8.79,0,0,1-4-.7c-3.62-1.55-5.26-5.08-3.66-7.88a4.89,4.89,0,0,1,.84-1.09,9,9,0,0,1-3-.7c-3.62-1.55-5.26-5.07-3.66-7.88a5.56,5.56,0,0,1,2.38-2.19,8.49,8.49,0,0,1-1.29-.43c-3.62-1.55-5.26-5.08-3.66-7.89,1.33-2.33,4.47-3.43,7.58-2.84-2.43-1.77-3.35-4.61-2-6.94,1.59-2.81,5.81-3.83,9.43-2.28a8.78,8.78,0,0,1,1.18.62,4.59,4.59,0,0,1,.55-3c1.6-2.81,5.82-3.83,9.44-2.29a8.24,8.24,0,0,1,2.44,1.62,5,5,0,0,1,.48-1.24c1.6-2.81,5.82-3.83,9.44-2.28A7.59,7.59,0,0,1,636,626.2c8.41,7.35,56.7,49.07,85.34,64.19Z" style="fill:#39b54a;stroke:#3a3632;stroke-width:10px"/><path d="M774.29,796.28c-21.6,29.46-81.19,76.07-91.88,84.33a8,8,0,0,0-3.33,3c-2.16,3.67-.48,8.15,3.74,10a9.51,9.51,0,0,0,1.85.6,7.74,7.74,0,0,0-2.3,2.43c-2.16,3.66-.48,8.15,3.74,10a9.58,9.58,0,0,0,4.42.79,7.26,7.26,0,0,0-.87,1.19c-2.16,3.66-.49,8.14,3.73,10a9.54,9.54,0,0,0,10.22-1.59c-.76,3.19,1,6.56,4.49,8.12,4.22,1.87,9.39.42,11.55-3.24a7.24,7.24,0,0,0,.59-1.31,8.24,8.24,0,0,0,3.34,2.64c4.21,1.87,9.38.42,11.54-3.24A6.7,6.7,0,0,0,736,917a8.82,8.82,0,0,0,1.64,1c4.22,1.87,9.39.42,11.55-3.24a6.51,6.51,0,0,0,.89-4.07c1.51-12.27,10.54-82.2,24.93-114.07Z" style="fill:#39b54a;stroke:#3a3632;stroke-width:10px"/><path d="M774.47,796.76c4.12,29.47-4.2,87.51-5.76,97.85a5.94,5.94,0,0,0-.21,3.53,6.89,6.89,0,0,0,7.88,5.05,6.51,6.51,0,0,0,1.42-.43,6,6,0,0,0,0,2.67,6.89,6.89,0,0,0,7.88,5,6.3,6.3,0,0,0,3-1.45,5.48,5.48,0,0,0,.16,1.19,6.89,6.89,0,0,0,7.88,5,6,6,0,0,0,5.06-5.66,7,7,0,0,0,7.25,3.43,6,6,0,0,0,4.9-7.35,6.52,6.52,0,0,0-.4-1.15,6.71,6.71,0,0,0,3.45.28,6,6,0,0,0,4.91-7.36,6.62,6.62,0,0,0-1.19-2.46,6.34,6.34,0,0,0,1.5-.09,6,6,0,0,0,4.9-7.36,6.51,6.51,0,0,0-1.79-3.13c-6.09-8.91-40.57-59.91-50.28-87.76Z" style="fill:#39b54a;stroke:#3a3632;stroke-width:10px"/><path d="M774.47,796.76c-29.93,14.37-79.24,54.23-88,61.38a7.76,7.76,0,0,1-3.18,2.23c-3.68,1.43-7.85.27-9.33-2.59a4.88,4.88,0,0,1-.43-1.25,8,8,0,0,1-2.51,1.53c-3.68,1.43-7.86.28-9.33-2.58a4.58,4.58,0,0,1-.42-3,10.41,10.41,0,0,1-1.21.58c-3.68,1.43-7.85.27-9.33-2.59-1.22-2.37-.18-5.18,2.32-6.87-3.13.49-6.23-.71-7.45-3.09-1.48-2.85.31-6.33,4-7.75a9,9,0,0,1,1.31-.4,5.49,5.49,0,0,1-2.29-2.26c-1.47-2.86.32-6.33,4-7.76a9,9,0,0,1,3-.6,5.15,5.15,0,0,1-.79-1.12c-1.47-2.85.32-6.33,4-7.76a9,9,0,0,1,4-.57c11.89-.94,79.72-6.57,111.41-16.06Z" style="fill:#39b54a;stroke:#3a3632;stroke-width:10px"/><path d="M746.24,661.45a246.81,246.81,0,0,1-45.33-1c-40.65-4.91-59.83-24.57-59.83-24.57-33.53,6.57-95.94,32.62-106.88,37.37a8.8,8.8,0,0,1-3.83,1.36c-4.09.47-7.81-1.72-8.31-4.9a4.63,4.63,0,0,1,0-1.34,9.08,9.08,0,0,1-3,.88c-4.1.48-7.82-1.71-8.31-4.89a4.71,4.71,0,0,1,.58-3.05,8.64,8.64,0,0,1-1.38.27c-4.09.48-7.81-1.71-8.31-4.89-.41-2.65,1.55-5.14,4.59-6.18-3.24-.31-5.89-2.26-6.3-4.91-.49-3.18,2.43-6.14,6.53-6.62a9.56,9.56,0,0,1,1.41-.06,5,5,0,0,1-1.49-2.8c-.49-3.18,2.43-6.14,6.53-6.62a9.34,9.34,0,0,1,3.14.16,4.83,4.83,0,0,1-.4-1.29c-.49-3.18,2.43-6.15,6.53-6.62a9.05,9.05,0,0,1,4.15.45c12,2.11,77.91,13.51,113.21,12.28-37.63-15.35-116.42-27.79-130.74-30a9.76,9.76,0,0,1-4.79-1.1c-4.15-2.18-5.48-6.87-3-10.48a7.53,7.53,0,0,1,1.25-1.39,9.65,9.65,0,0,1-3.52-1c-4.16-2.19-5.49-6.88-3-10.49a8.3,8.3,0,0,1,3.36-2.76,9.3,9.3,0,0,1-1.5-.62c-4.16-2.19-5.49-6.88-3-10.49a9.45,9.45,0,0,1,9.9-3.39,6.86,6.86,0,0,1-1.13-9.18c2.51-3.61,7.92-4.77,12.08-2.58a8.66,8.66,0,0,1,1.33.86,6.93,6.93,0,0,1,1.26-3.87c2.52-3.6,7.92-4.76,12.08-2.58a8.41,8.41,0,0,1,2.7,2.23,7.51,7.51,0,0,1,.84-1.61c2.51-3.6,7.92-4.76,12.08-2.58a8.16,8.16,0,0,1,3.31,3.13c8.84,9.89,58.76,65.14,91.16,86.7-15.14-27.71-57.25-73.18-65-81.39a7.06,7.06,0,0,1-2.38-3,5.91,5.91,0,0,1,3.73-8.09,7.75,7.75,0,0,1,1.51-.29,7,7,0,0,1-1.63-2.34,5.92,5.92,0,0,1,3.73-8.09,7,7,0,0,1,3.55-.16,6.55,6.55,0,0,1-.59-1.11,5.91,5.91,0,0,1,3.73-8.09,7.41,7.41,0,0,1,7.93,2.56,5.87,5.87,0,0,1,4.18-6.38A7.37,7.37,0,0,1,608,521a6.79,6.79,0,0,1,.37,1.19,6.09,6.09,0,0,1,2.83-1.86,7.36,7.36,0,0,1,8.85,4.12,6.17,6.17,0,0,1,.49,2.7,6.3,6.3,0,0,1,1.37-.62,7.37,7.37,0,0,1,8.85,4.11,6.11,6.11,0,0,1,.39,3.57c.23,10.62,2.64,70.61,11.49,99.45,0,0,32.28,21.55,59.61,25.87S746.24,661.45,746.24,661.45Z" style="fill:#39b54a;stroke:#3a3632;stroke-width:10px"/><path d="M916.84,730.8a247.37,247.37,0,0,0-45.33,1c-40.65,4.91-59.83,24.57-59.83,24.57-33.54-6.58-95.94-32.62-106.88-37.37a8.8,8.8,0,0,0-3.83-1.36c-4.1-.48-7.82,1.71-8.31,4.89a4.63,4.63,0,0,0,0,1.34,8.84,8.84,0,0,0-3-.87c-4.1-.48-7.82,1.71-8.31,4.89a4.67,4.67,0,0,0,.58,3,8.64,8.64,0,0,0-1.38-.26c-4.1-.48-7.82,1.71-8.31,4.89-.41,2.64,1.55,5.14,4.58,6.18-3.24.3-5.88,2.26-6.29,4.9-.5,3.18,2.43,6.15,6.52,6.63a9.68,9.68,0,0,0,1.42.05,5,5,0,0,0-1.49,2.81c-.49,3.18,2.43,6.14,6.53,6.62a9.61,9.61,0,0,0,3.14-.16,4.72,4.72,0,0,0-.4,1.29c-.5,3.18,2.43,6.14,6.52,6.62a9.3,9.3,0,0,0,4.15-.45c12-2.12,77.92-13.52,113.22-12.28-37.63,15.34-116.42,27.79-130.74,30a9.76,9.76,0,0,0-4.79,1.1c-4.16,2.18-5.49,6.87-3,10.48a8.23,8.23,0,0,0,1.25,1.39,9.65,9.65,0,0,0-3.52,1c-4.16,2.18-5.49,6.88-3,10.48a8.5,8.5,0,0,0,3.37,2.77,8.94,8.94,0,0,0-1.5.62c-4.16,2.18-5.49,6.88-3,10.48a9.41,9.41,0,0,0,9.9,3.39,6.87,6.87,0,0,0-1.13,9.19c2.51,3.61,7.92,4.76,12.07,2.58a9,9,0,0,0,1.34-.86,6.75,6.75,0,0,0,1.26,3.86c2.51,3.61,7.92,4.77,12.08,2.58a8.38,8.38,0,0,0,2.7-2.22,6.78,6.78,0,0,0,.83,1.6c2.52,3.61,7.93,4.77,12.08,2.58a8.1,8.1,0,0,0,3.32-3.12c8.84-9.89,58.76-65.14,91.16-86.7-15.14,27.71-57.25,73.17-65,81.38a7.12,7.12,0,0,0-2.38,3,5.91,5.91,0,0,0,3.73,8.09,6.5,6.5,0,0,0,1.51.29,6.94,6.94,0,0,0-1.63,2.35,5.92,5.92,0,0,0,3.73,8.09,7.14,7.14,0,0,0,3.55.15,7.4,7.4,0,0,0-.6,1.11,5.93,5.93,0,0,0,3.73,8.1,7.4,7.4,0,0,0,7.94-2.57,5.88,5.88,0,0,0,4.18,6.39,7.38,7.38,0,0,0,8.85-4.12,6.64,6.64,0,0,0,.36-1.18,6.2,6.2,0,0,0,2.84,1.86,7.38,7.38,0,0,0,8.85-4.12,6.2,6.2,0,0,0,.49-2.7,6.58,6.58,0,0,0,1.37.62,7.38,7.38,0,0,0,8.85-4.12,6.19,6.19,0,0,0,.39-3.57c.22-10.62,2.64-70.61,11.49-99.44,0,0,32.28-21.55,59.6-25.87S916.84,730.8,916.84,730.8Z" style="fill:#39b54a;stroke:#3a3632;stroke-width:10px"/><path d="M962.58,705.09a246.71,246.71,0,0,1-45.32-1c-40.65-4.92-59.83-24.58-59.83-24.58-33.54,6.58-95.94,32.62-106.89,37.38a8.76,8.76,0,0,1-3.82,1.36c-4.1.47-7.82-1.72-8.31-4.9a4.63,4.63,0,0,1,0-1.34,9.14,9.14,0,0,1-3,.88c-4.09.47-7.81-1.72-8.31-4.9a4.76,4.76,0,0,1,.59-3,9.91,9.91,0,0,1-1.38.27c-4.1.48-7.82-1.71-8.31-4.89-.41-2.65,1.55-5.14,4.58-6.18-3.24-.31-5.89-2.26-6.3-4.91-.49-3.18,2.43-6.14,6.53-6.62a9.62,9.62,0,0,1,1.41-.06,5,5,0,0,1-1.48-2.8c-.5-3.18,2.43-6.15,6.52-6.62a9.4,9.4,0,0,1,3.15.16A4.85,4.85,0,0,1,732,672c-.49-3.18,2.43-6.15,6.53-6.63a9.31,9.31,0,0,1,4.15.45c12,2.12,77.92,13.52,113.22,12.29-37.64-15.35-116.43-27.79-130.74-30a9.75,9.75,0,0,1-4.79-1.09c-4.16-2.18-5.49-6.88-3-10.48a7.85,7.85,0,0,1,1.24-1.39,9.71,9.71,0,0,1-3.52-1c-4.15-2.19-5.48-6.88-3-10.49a8.36,8.36,0,0,1,3.36-2.76,9.24,9.24,0,0,1-1.49-.63c-4.16-2.18-5.49-6.87-3-10.48a9.45,9.45,0,0,1,9.91-3.39,6.88,6.88,0,0,1-1.14-9.19c2.52-3.6,7.93-4.76,12.08-2.58a9.08,9.08,0,0,1,1.34.87,6.78,6.78,0,0,1,1.26-3.87c2.51-3.61,7.92-4.76,12.08-2.58a8.38,8.38,0,0,1,2.7,2.22,7,7,0,0,1,.83-1.6c2.52-3.61,7.93-4.76,12.08-2.58a8.1,8.1,0,0,1,3.31,3.13c8.85,9.88,58.77,65.14,91.17,86.7-15.14-27.72-57.25-73.18-65-81.39a7.08,7.08,0,0,1-2.39-3,5.92,5.92,0,0,1,3.73-8.09,6.71,6.71,0,0,1,1.51-.29,7,7,0,0,1-1.62-2.34,5.92,5.92,0,0,1,3.73-8.09,7,7,0,0,1,3.55-.16,7.4,7.4,0,0,1-.6-1.11,5.92,5.92,0,0,1,3.73-8.09,7.4,7.4,0,0,1,7.94,2.56,5.88,5.88,0,0,1,4.18-6.39,7.39,7.39,0,0,1,8.85,4.12,6.5,6.5,0,0,1,.36,1.19,6,6,0,0,1,2.84-1.86,7.38,7.38,0,0,1,8.85,4.11,6.22,6.22,0,0,1,.49,2.71,6.12,6.12,0,0,1,1.37-.63,7.39,7.39,0,0,1,8.85,4.12,6.19,6.19,0,0,1,.39,3.57c.22,10.62,2.64,70.61,11.49,99.44,0,0,32.28,21.56,59.6,25.88S962.58,705.09,962.58,705.09Z" style="fill:#39b54a;stroke:#3a3632;stroke-width:10px"/><path d="M1555.4,526.24s-254.73,164.12-506.1,283.64c-293,139.31-594,228.85-632.19,163.75-25.33-43.24,985.94-682.11,985.94-682.11Z" style="fill:#d0d2d3;stroke:#3a3632;stroke-miterlimit:10;stroke-width:24px"/><path d="M1929,160.89,1536.73,333.36a41.42,41.42,0,0,0-24.65,40.81h0a41.4,41.4,0,0,1-22.19,39.64l-5.58,2.9-82.67-127.36,36.41-23.64,14.43-9.36L1820,17.82c11.51-7.47,27.62-3.09,36,9.78l80.14,95.62C1944.83,136.69,1941.56,154,1929,160.89Z" style="fill:#231f20"/><path d="M720.37,937.75c18.35,1.29,36.56,2.81,43.09,4.09a11.16,11.16,0,0,1,5,1.33c4.63,2.46,6.94,7.43,5.16,11.11a5.7,5.7,0,0,1-1,1.4,11.49,11.49,0,0,1,3.75,1.24c4.62,2.45,6.94,7.42,5.16,11.1a6,6,0,0,1-2.8,2.76,12.78,12.78,0,0,1,1.63.71c4.63,2.46,6.94,7.43,5.16,11.11-1.48,3.06-5.32,4.25-9.24,3.15,3.16,2.66,4.52,6.61,3,9.67-1.77,3.68-7,4.67-11.59,2.22a13,13,0,0,1-1.52-1,6.42,6.42,0,0,1-.46,4c-1.78,3.68-7,4.68-11.6,2.22a11.92,11.92,0,0,1-3.17-2.43,5.68,5.68,0,0,1-.51,1.64c-1.77,3.68-7,4.67-11.59,2.22a11.86,11.86,0,0,1-4-3.46c-6.86-6.78-17.07-18.76-31.35-34.37Z" style="fill:#39b54a;stroke:#3a3632;stroke-width:12.697080276743336px"/><path d="M827.54,924.17c15.78,12.57,31.28,25.25,36.38,30.46a12.27,12.27,0,0,1,3.67,4.3c2.65,5.09,1.65,11-2.24,13.23a6.39,6.39,0,0,1-1.74.67,12.62,12.62,0,0,1,2.62,3.45c2.65,5.09,1.65,11-2.24,13.23a6.55,6.55,0,0,1-4.25.75,13.27,13.27,0,0,1,1,1.66c2.65,5.09,1.65,11-2.24,13.24-3.24,1.84-7.45.53-10.3-2.89,1.2,4.36,0,8.77-3.26,10.62-3.89,2.22-9.2-.11-11.85-5.2a13,13,0,0,1-.78-1.81,7,7,0,0,1-2.9,3.33c-3.89,2.21-9.2-.11-11.85-5.2a13,13,0,0,1-1.35-4.17,7,7,0,0,1-1.48,1.17c-3.89,2.21-9.2-.11-11.85-5.2a12.81,12.81,0,0,1-1.48-5.62c-2-10.38-3.76-27.54-7-50.52Z" style="fill:#39b54a;stroke:#3a3632;stroke-width:13.917216575251658px"/><path d="M910.67,927.4c-11.28,7.26-22.58,14.33-26.95,16.43a8.12,8.12,0,0,1-3.5,1.4c-3.77.58-7.29-1.31-7.86-4.24a4.3,4.3,0,0,1-.05-1.24,8.38,8.38,0,0,1-2.73.92c-3.77.59-7.29-1.31-7.86-4.23a4.36,4.36,0,0,1,.43-2.84,8.41,8.41,0,0,1-1.27.3c-3.77.59-7.29-1.31-7.86-4.23-.47-2.44,1.25-4.81,4-5.88-3-.17-5.53-1.89-6-4.32-.57-2.93,2-5.77,5.8-6.36a9.78,9.78,0,0,1,1.31-.11,4.6,4.6,0,0,1-1.48-2.53c-.57-2.93,2-5.78,5.81-6.36a8.59,8.59,0,0,1,2.91,0A4.37,4.37,0,0,1,865,903c-.57-2.92,2-5.77,5.81-6.36a8.49,8.49,0,0,1,3.85.27c7,1,18.17,3.5,33.33,6.39Z" style="fill:#39b54a;stroke:#3a3632;stroke-width:9.260333618771455px"/><path d="M947.25,910.27c.44,18.34.64,36.56,0,43.16a11.16,11.16,0,0,1-.86,5.07c-2,4.82-6.72,7.58-10.54,6.16a5.49,5.49,0,0,1-1.48-.83,11.35,11.35,0,0,1-.88,3.84c-2,4.82-6.72,7.58-10.54,6.16a6,6,0,0,1-3-2.52,11.15,11.15,0,0,1-.56,1.69c-2,4.82-6.72,7.58-10.53,6.16-3.18-1.18-4.73-4.89-4-8.88-2.34,3.39-6.14,5.11-9.32,3.93-3.81-1.42-5.28-6.48-3.28-11.31a11.86,11.86,0,0,1,.81-1.59,6.42,6.42,0,0,1-4-.09c-3.82-1.42-5.29-6.48-3.28-11.3a11.75,11.75,0,0,1,2.12-3.38,5.72,5.72,0,0,1-1.68-.35c-3.82-1.42-5.29-6.48-3.29-11.3a11.71,11.71,0,0,1,3.06-4.31c6.08-7.44,17-18.7,31.19-34.33Z" style="fill:#39b54a;stroke:#3a3632;stroke-width:12.659385197343394px"/><path d="M939.89,950.56c11.84-.42,23.61-.68,27.88-.31a7.24,7.24,0,0,1,3.27.52c3.13,1.26,5,4.29,4.06,6.76a3.92,3.92,0,0,1-.52,1,7.52,7.52,0,0,1,2.48.53c3.13,1.26,5,4.29,4.06,6.76a3.88,3.88,0,0,1-1.61,2,7.78,7.78,0,0,1,1.1.35c3.13,1.25,4.94,4.28,4,6.76-.74,2.06-3.12,3.08-5.7,2.64,2.21,1.49,3.34,3.93,2.6,6-.88,2.48-4.14,3.46-7.27,2.21a8.36,8.36,0,0,1-1-.51,4.1,4.1,0,0,1,0,2.59c-.89,2.47-4.15,3.46-7.28,2.2a7.66,7.66,0,0,1-2.19-1.34,4.14,4.14,0,0,1-.22,1.09c-.89,2.47-4.14,3.46-7.27,2.2a7.55,7.55,0,0,1-2.81-1.94c-4.85-3.87-12.2-10.85-22.4-19.89Z" style="fill:#39b54a;stroke:#3a3632;stroke-width:8.17574189091168px"/><path d="M1033.65,924.49c-3.74,13.16-7.62,26.17-9.55,30.73a8.37,8.37,0,0,1-1.73,3.41c-2.5,3-6.47,3.92-8.87,2.06a4,4,0,0,1-.87-.92,8.51,8.51,0,0,1-1.48,2.55c-2.49,3-6.46,3.91-8.86,2a4.4,4.4,0,0,1-1.58-2.46,9.71,9.71,0,0,1-.77,1.08c-2.49,3-6.46,3.92-8.87,2.06-2-1.54-2.28-4.52-.88-7.2-2.42,1.89-5.5,2.28-7.5.73-2.41-1.85-2.33-5.78.16-8.77a8.46,8.46,0,0,1,.93-1,4.67,4.67,0,0,1-2.84-1c-2.41-1.85-2.34-5.78.16-8.77a8.73,8.73,0,0,1,2.25-1.94,4.25,4.25,0,0,1-1.12-.62c-2.4-1.85-2.33-5.78.16-8.77a8.63,8.63,0,0,1,3.13-2.39c6-4,16.25-9.56,29.8-17.56Z" style="fill:#39b54a;stroke:#3a3632;stroke-width:9.438494402366118px"/><path d="M1121.16,937.32c-10.09,13.44-20.29,26.66-24.51,31a10.25,10.25,0,0,1-3.5,3.16c-4.18,2.33-9.14,1.64-11.08-1.55a5.27,5.27,0,0,1-.59-1.44,11,11,0,0,1-2.81,2.27c-4.18,2.33-9.14,1.63-11.08-1.55a5.51,5.51,0,0,1-.73-3.52,12.33,12.33,0,0,1-1.36.9c-4.18,2.33-9.14,1.63-11.08-1.55-1.61-2.66-.62-6.2,2.17-8.66-3.61,1.11-7.32.19-8.93-2.46-1.94-3.19-.13-7.67,4-10a11.72,11.72,0,0,1,1.49-.69,5.85,5.85,0,0,1-2.84-2.34c-1.94-3.19-.13-7.66,4.05-10a10.76,10.76,0,0,1,3.45-1.23,5.41,5.41,0,0,1-1-1.21c-1.94-3.18-.12-7.66,4.06-10a10.69,10.69,0,0,1,4.64-1.36c8.6-1.91,22.86-3.79,41.93-7Z" style="fill:#39b54a;stroke:#3a3632;stroke-width:11.600501667593175px"/><path d="M1118.26,951.21c2.38,9.93,4.61,19.82,5,23.49a6.33,6.33,0,0,1,.13,2.86c-.53,2.85-2.78,4.9-5,4.58a3.37,3.37,0,0,1-.9-.28,6.46,6.46,0,0,1,0,2.19c-.53,2.86-2.77,4.91-5,4.58a3.32,3.32,0,0,1-1.92-1,8.4,8.4,0,0,1-.11,1c-.53,2.86-2.77,4.91-5,4.59-1.86-.28-3.13-2.11-3.21-4.37-.87,2.12-2.74,3.5-4.61,3.22-2.24-.32-3.63-2.9-3.1-5.76a7.1,7.1,0,0,1,.25-1,3.59,3.59,0,0,1-2.19.42c-2.25-.33-3.64-2.91-3.11-5.77a6.77,6.77,0,0,1,.76-2.09,3.09,3.09,0,0,1-1,0c-2.24-.33-3.63-2.91-3.1-5.77a6.47,6.47,0,0,1,1.16-2.7c2.44-4.76,7.08-12.16,13-22.32Z" style="fill:#39b54a;stroke:#3a3632;stroke-width:7.044827758502485px"/><path d="M1111.4,890c15.25-1.59,30.39-3,35.94-2.88a9.34,9.34,0,0,1,4.27.38c4.15,1.34,6.77,5.08,5.84,8.36a5,5,0,0,1-.59,1.29,9.44,9.44,0,0,1,3.26.47c4.15,1.34,6.76,5.08,5.83,8.36a5,5,0,0,1-1.89,2.67,11.1,11.1,0,0,1,1.44.34c4.15,1.35,6.76,5.09,5.84,8.36-.77,2.73-3.75,4.26-7.12,3.93,3,1.72,4.66,4.76,3.89,7.49-.92,3.27-5,4.84-9.19,3.49a9.27,9.27,0,0,1-1.38-.56,5.35,5.35,0,0,1,.2,3.35c-.93,3.27-5,4.83-9.19,3.49a10,10,0,0,1-3-1.54,5,5,0,0,1-.17,1.43c-.93,3.27-5,4.83-9.19,3.49a9.59,9.59,0,0,1-3.79-2.26c-6.61-4.56-16.72-12.91-30.69-23.65Z" style="fill:#39b54a;stroke:#3a3632;stroke-width:10.573288379851604px"/><path d="M1011.36,878.13c-8.94,13.82-18,27.43-21.8,32a10.11,10.11,0,0,1-3.2,3.33c-3.92,2.56-8.81,2.23-10.92-.75a5.13,5.13,0,0,1-.69-1.36,10.27,10.27,0,0,1-2.58,2.4c-3.92,2.57-8.81,2.23-10.93-.75a5.3,5.3,0,0,1-1-3.38,11.47,11.47,0,0,1-1.27,1c-3.92,2.57-8.81,2.23-10.92-.75-1.76-2.48-1-6,1.51-8.6-3.44,1.33-7.13.69-8.89-1.79-2.11-3-.65-7.47,3.27-10a10.88,10.88,0,0,1,1.41-.78,5.7,5.7,0,0,1-2.94-2.09c-2.11-3-.65-7.47,3.27-10a10.64,10.64,0,0,1,3.28-1.43,5.12,5.12,0,0,1-1.07-1.11c-2.12-3-.66-7.48,3.26-10a10.45,10.45,0,0,1,4.45-1.65c8.26-2.46,22.06-5.28,40.45-9.73Z" style="fill:#39b54a;stroke:#3a3632;stroke-width:11.356682673408596px"/><path d="M941,873.1c-8.73,18.21-17.62,36.16-21.57,42.31a12.41,12.41,0,0,1-3.37,4.54c-4.37,3.73-10.38,4.07-13.41.78a6.07,6.07,0,0,1-1-1.56,12.56,12.56,0,0,1-2.78,3.33c-4.37,3.73-10.37,4.08-13.41.78a6.55,6.55,0,0,1-1.68-4,14,14,0,0,1-1.39,1.38c-4.37,3.73-10.37,4.07-13.41.78-2.52-2.75-2.19-7.15.51-10.7-4,2.15-8.56,1.94-11.09-.8-3-3.3-2-9,2.42-12.73a14.3,14.3,0,0,1,1.59-1.16,7,7,0,0,1-3.89-2.09c-3-3.3-2-9,2.42-12.72a13,13,0,0,1,3.77-2.25,7,7,0,0,1-1.48-1.18c-3-3.3-2-9,2.42-12.73a12.89,12.89,0,0,1,5.16-2.69c9.68-4.27,26-9.84,47.72-18.1Z" style="fill:#39b54a;stroke:#3a3632;stroke-width:13.928856325616044px"/><path d="M845,900.43c-1.37,14.53-2.92,29-4.06,34.1a8.84,8.84,0,0,1-1.15,3.93c-2,3.62-6,5.36-8.9,3.88a4.41,4.41,0,0,1-1.1-.79,9.11,9.11,0,0,1-1,3c-2,3.63-6,5.36-8.9,3.89a4.74,4.74,0,0,1-2.14-2.28,9.86,9.86,0,0,1-.6,1.28c-2,3.63-6,5.37-8.9,3.89-2.4-1.23-3.28-4.31-2.33-7.39-2.17,2.46-5.33,3.46-7.73,2.23-2.89-1.48-3.57-5.62-1.54-9.24a9.82,9.82,0,0,1,.79-1.19,5.07,5.07,0,0,1-3.17-.44c-2.88-1.48-3.57-5.62-1.54-9.24a9.59,9.59,0,0,1,2-2.47,4.67,4.67,0,0,1-1.29-.43c-2.89-1.48-3.58-5.62-1.54-9.24a9.18,9.18,0,0,1,2.82-3.12c5.5-5.32,15.2-13.19,27.86-24.22Z" style="fill:#39b54a;stroke:#3a3632;stroke-width:10.07470429667908px"/><path d="M797,884.93c8.36,16.24,16.46,32.46,18.74,38.66a11.15,11.15,0,0,1,1.43,4.91c.31,5.19-2.72,9.71-6.76,10.1a5.54,5.54,0,0,1-1.68-.09,11.32,11.32,0,0,1,.88,3.81c.31,5.19-2.72,9.71-6.76,10.1a6,6,0,0,1-3.78-.95,12.29,12.29,0,0,1,.24,1.75c.3,5.19-2.73,9.71-6.76,10.1-3.36.32-6.36-2.32-7.44-6.21-.62,4-3.28,7.24-6.63,7.56-4,.39-7.56-3.5-7.86-8.69a11.71,11.71,0,0,1,0-1.78,6.37,6.37,0,0,1-3.63,1.67c-4,.39-7.56-3.5-7.86-8.69a11.91,11.91,0,0,1,.43-3.95,5.87,5.87,0,0,1-1.66.42c-4,.39-7.55-3.5-7.85-8.69a11.71,11.71,0,0,1,.86-5.19c2.21-9.31,7.12-24.15,13-44.31Z" style="fill:#39b54a;stroke:#3a3632;stroke-width:12.601312899567176px"/><path d="M765.6,978.88c-9.65,4.52-19.3,8.87-23,10.06a6.45,6.45,0,0,1-2.9.73c-3,.06-5.6-1.81-5.73-4.17a3.17,3.17,0,0,1,.09-1,6.77,6.77,0,0,1-2.25.43c-3,.06-5.6-1.81-5.74-4.17a3.49,3.49,0,0,1,.65-2.19,7,7,0,0,1-1,.1c-3,.06-5.61-1.81-5.74-4.17-.11-2,1.5-3.66,3.79-4.2-2.35-.46-4.15-2.07-4.26-4-.14-2.36,2.21-4.33,5.25-4.39a7,7,0,0,1,1,.06,3.74,3.74,0,0,1-.89-2.16c-.13-2.36,2.22-4.32,5.25-4.38a6.83,6.83,0,0,1,2.29.34,3.63,3.63,0,0,1-.2-1c-.14-2.36,2.21-4.33,5.24-4.39a6.71,6.71,0,0,1,3,.63c5.38,1.5,13.92,4.69,25.55,8.58Z" style="fill:#39b54a;stroke:#3a3632;stroke-width:7.356277221334366px"/><path d="M769.33,1006.15c13.06,1.57,26,3.29,30.64,4.43a8,8,0,0,1,3.51,1.13c3.22,1.91,4.7,5.55,3.3,8.11a4,4,0,0,1-.74,1,8.06,8.06,0,0,1,2.64,1c3.21,1.91,4.69,5.54,3.29,8.11a4.25,4.25,0,0,1-2.1,1.87,9.45,9.45,0,0,1,1.15.57c3.22,1.91,4.69,5.55,3.29,8.11-1.16,2.14-3.95,2.86-6.71,1.93,2.17,2,3,4.88,1.84,7-1.4,2.56-5.14,3.09-8.36,1.18a9.32,9.32,0,0,1-1.05-.74,4.61,4.61,0,0,1-.48,2.84c-1.4,2.57-5.14,3.09-8.36,1.18A8.58,8.58,0,0,1,789,1052a4.49,4.49,0,0,1-.42,1.16c-1.4,2.56-5.14,3.09-8.36,1.17a8.42,8.42,0,0,1-2.75-2.61c-4.66-5.08-11.54-14-21.19-25.66Z" style="fill:#39b54a;stroke:#3a3632;stroke-width:9.081826532196544px"/><path d="M859.52,1016.53c-10.68,11.53-21.41,22.84-25.76,26.5a9.58,9.58,0,0,1-3.55,2.6c-4.11,1.77-8.65.65-10.15-2.5a5,5,0,0,1-.42-1.4,9.62,9.62,0,0,1-2.82,1.84c-4.11,1.77-8.65.65-10.15-2.5a5.07,5.07,0,0,1-.34-3.34,10.76,10.76,0,0,1-1.35.71c-4.11,1.77-8.65.65-10.15-2.5-1.25-2.62,0-5.82,2.84-7.84-3.46.69-6.82-.52-8.07-3.14-1.49-3.15.62-7.14,4.73-8.91a9.9,9.9,0,0,1,1.45-.49,5.46,5.46,0,0,1-2.42-2.45c-1.5-3.15.62-7.14,4.72-8.91a10.4,10.4,0,0,1,3.32-.81,4.78,4.78,0,0,1-.82-1.21c-1.5-3.15.61-7.14,4.72-8.91a10.14,10.14,0,0,1,4.45-.82c8.17-.94,21.61-1.34,39.63-2.49Z" style="fill:#39b54a;stroke:#3a3632;stroke-width:10.839109295792078px"/><path d="M888.07,986.88c-17.57,8.35-35.11,16.41-41.79,18.63a11.84,11.84,0,0,1-5.27,1.35c-5.54.15-10.24-3.23-10.52-7.53a6,6,0,0,1,.16-1.8,12,12,0,0,1-4.1.81c-5.53.15-10.24-3.23-10.51-7.53a6.25,6.25,0,0,1,1.14-4,12.6,12.6,0,0,1-1.87.19c-5.54.15-10.25-3.23-10.52-7.54-.23-3.58,2.69-6.68,6.86-7.7-4.29-.8-7.59-3.74-7.82-7.32-.28-4.31,4-7.92,9.52-8.07a13.07,13.07,0,0,1,1.89.1,6.87,6.87,0,0,1-1.65-3.93c-.27-4.31,4-7.92,9.52-8.06a12.72,12.72,0,0,1,4.19.59,6.29,6.29,0,0,1-.39-1.78c-.27-4.31,4-7.92,9.52-8.06a12.43,12.43,0,0,1,5.49,1.1c9.84,2.67,25.46,8.39,46.72,15.35Z" style="fill:#39b54a;stroke:#3a3632;stroke-width:13.419563266088904px"/><path d="M885.86,957.63c13,9.42,25.77,18.92,30,22.88a9.63,9.63,0,0,1,3.07,3.28c2.3,4,1.72,8.69-1.29,10.6a5.1,5.1,0,0,1-1.36.59,10.31,10.31,0,0,1,2.21,2.64c2.29,4,1.71,8.69-1.3,10.6a5.18,5.18,0,0,1-3.34.75,12,12,0,0,1,.88,1.28c2.29,4,1.71,8.69-1.3,10.6-2.5,1.58-5.9.69-8.29-1.92,1.12,3.42.3,7-2.2,8.56-3,1.9-7.31.24-9.61-3.7a11.4,11.4,0,0,1-.68-1.41,5.53,5.53,0,0,1-2.19,2.75c-3,1.9-7.31.24-9.6-3.7a10.54,10.54,0,0,1-1.23-3.27,5.09,5.09,0,0,1-1.13,1c-3,1.9-7.31.25-9.6-3.7a10.21,10.21,0,0,1-1.38-4.41c-2-8.18-4-21.75-7.37-39.89Z" style="fill:#39b54a;stroke:#3a3632;stroke-width:11.069553693370242px"/><path d="M904.7,999c12.95,9.9,25.68,19.89,29.89,24a9.88,9.88,0,0,1,3,3.41c2.23,4.07,1.52,8.87-1.59,10.73a5.13,5.13,0,0,1-1.4.56,10.5,10.5,0,0,1,2.18,2.74c2.22,4.07,1.51,8.88-1.6,10.73a5.35,5.35,0,0,1-3.41.68,11.1,11.1,0,0,1,.86,1.32c2.22,4.07,1.51,8.87-1.6,10.73-2.58,1.54-6,.55-8.37-2.17,1.05,3.5.13,7.09-2.46,8.63-3.1,1.86-7.43.06-9.65-4a10.89,10.89,0,0,1-.66-1.44,5.69,5.69,0,0,1-2.29,2.73c-3.11,1.85-7.43.06-9.66-4a10.87,10.87,0,0,1-1.16-3.35,5,5,0,0,1-1.17,1c-3.11,1.86-7.43.06-9.66-4a10.38,10.38,0,0,1-1.28-4.51c-1.78-8.36-3.49-22.19-6.44-40.7Z" style="fill:#39b54a;stroke:#3a3632;stroke-width:11.244528072314122px"/><path d="M944.08,1007.74c13,7.57,25.84,15.25,30.18,18.55a9.08,9.08,0,0,1,3.17,2.77c2.52,3.47,2.42,8-.21,10a5.06,5.06,0,0,1-1.22.68,9.32,9.32,0,0,1,2.31,2.26c2.52,3.47,2.42,8-.21,10a4.84,4.84,0,0,1-3.05,1,9.43,9.43,0,0,1,.94,1.12c2.51,3.47,2.42,7.95-.22,10-2.19,1.72-5.44,1.21-7.92-1,1.36,3.09.94,6.48-1.25,8.2-2.63,2.06-6.81.91-9.32-2.56a9.55,9.55,0,0,1-.77-1.25,5.25,5.25,0,0,1-1.78,2.77c-2.63,2.06-6.8.92-9.32-2.55a9.89,9.89,0,0,1-1.45-2.93,4.69,4.69,0,0,1-1,1c-2.63,2.06-6.8.92-9.31-2.55a9.55,9.55,0,0,1-1.7-4c-2.6-7.45-5.77-19.93-10.63-36.55Z" style="fill:#39b54a;stroke:#3a3632;stroke-width:10.388582469930263px"/><path d="M929.41,987.17c13.19-1.88,26.3-3.58,31.12-3.66a8.09,8.09,0,0,1,3.73.18c3.65,1,6,4.2,5.34,7.08a4.09,4.09,0,0,1-.47,1.14,8.59,8.59,0,0,1,2.85.3c3.65,1,6,4.2,5.34,7.07a4.31,4.31,0,0,1-1.56,2.39,8.26,8.26,0,0,1,1.26.25c3.65,1,6,4.2,5.35,7.08-.59,2.39-3.13,3.82-6.07,3.64,2.65,1.39,4.21,4,3.63,6.38-.7,2.87-4.22,4.37-7.87,3.33a9.81,9.81,0,0,1-1.22-.44,4.61,4.61,0,0,1,.28,2.9c-.7,2.87-4.22,4.37-7.87,3.33a8.45,8.45,0,0,1-2.62-1.24,4,4,0,0,1-.1,1.24c-.7,2.88-4.23,4.37-7.87,3.34a8.47,8.47,0,0,1-3.37-1.84c-5.89-3.75-14.94-10.68-27.43-19.56Z" style="fill:#39b54a;stroke:#3a3632;stroke-width:9.193113706910374px"/><path d="M1019.49,984.57c6.73,13.46,13.24,26.89,15.06,32a9.24,9.24,0,0,1,1.13,4.06c.2,4.28-2.34,8-5.67,8.25a4.89,4.89,0,0,1-1.38-.09,9.55,9.55,0,0,1,.69,3.15c.2,4.28-2.34,8-5.67,8.25a4.86,4.86,0,0,1-3.1-.82,9.59,9.59,0,0,1,.17,1.45c.2,4.27-2.33,8-5.66,8.25-2.77.23-5.21-2-6.07-5.19-.55,3.33-2.76,5.93-5.53,6.16-3.33.28-6.19-3-6.39-7.23a11.92,11.92,0,0,1,0-1.47,5.18,5.18,0,0,1-3,1.34c-3.33.28-6.19-3-6.39-7.23a9.87,9.87,0,0,1,.39-3.25,4.83,4.83,0,0,1-1.36.33c-3.33.28-6.19-3-6.39-7.24a9.72,9.72,0,0,1,.76-4.26c1.91-7.65,6.1-19.82,11.14-36.36Z" style="fill:#39b54a;stroke:#3a3632;stroke-width:10.378393652125872px"/><path d="M1054.27,980.41c-13.74,12.77-27.54,25.28-33,29.25a11.38,11.38,0,0,1-4.46,2.78c-5,1.74-10.36,0-11.86-3.89a5.89,5.89,0,0,1-.37-1.69,11.77,11.77,0,0,1-3.53,1.93c-5,1.74-10.36,0-11.86-3.88a6.07,6.07,0,0,1-.11-4,12.54,12.54,0,0,1-1.67.72c-5,1.74-10.36,0-11.86-3.89-1.25-3.23.54-6.92,4.08-9.08-4.18.51-8.07-1.23-9.32-4.46-1.5-3.88,1.37-8.44,6.42-10.18a12.81,12.81,0,0,1,1.77-.46,6.58,6.58,0,0,1-2.66-3.13c-1.5-3.89,1.37-8.45,6.42-10.18a12,12,0,0,1,4-.67,6.22,6.22,0,0,1-.88-1.52c-1.5-3.89,1.37-8.45,6.42-10.18a11.85,11.85,0,0,1,5.37-.58c9.83-.4,25.86.34,47.43.57Z" style="fill:#39b54a;stroke:#3a3632;stroke-width:12.94384858320698px"/><path d="M1075.46,960.83c5.45,19.11,10.63,38.14,11.73,45.24a12,12,0,0,1,.48,5.54c-.79,5.6-5,9.78-9.37,9.33a6.31,6.31,0,0,1-1.78-.46,12.31,12.31,0,0,1,.13,4.26c-.78,5.6-5,9.77-9.36,9.33a6.48,6.48,0,0,1-3.84-1.83,12.53,12.53,0,0,1-.12,1.92c-.79,5.6-5,9.78-9.37,9.33-3.65-.37-6.28-3.84-6.6-8.22-1.53,4.19-5,7-8.7,6.65-4.38-.44-7.3-5.35-6.52-11a13,13,0,0,1,.42-1.89,6.94,6.94,0,0,1-4.24,1c-4.38-.44-7.3-5.35-6.52-10.95a12.78,12.78,0,0,1,1.31-4.11,6.8,6.8,0,0,1-1.86.09c-4.39-.45-7.31-5.35-6.52-11a12.61,12.61,0,0,1,2-5.35c4.35-9.46,12.74-24.23,23.33-44.47Z" style="fill:#39b54a;stroke:#3a3632;stroke-width:13.707386155939334px"/><path d="M1116.93,1019.17c-9.66,6.51-19.33,12.85-23.08,14.75a7.2,7.2,0,0,1-3,1.28c-3.26.58-6.35-1-6.9-3.53a3.57,3.57,0,0,1-.06-1.08,7.28,7.28,0,0,1-2.36.85c-3.26.58-6.35-1-6.9-3.53a3.77,3.77,0,0,1,.33-2.47,6.56,6.56,0,0,1-1.1.28c-3.26.58-6.35-1-6.9-3.52-.45-2.11,1-4.2,3.38-5.18-2.61-.09-4.83-1.53-5.28-3.63-.55-2.53,1.65-5,4.91-5.63a7.44,7.44,0,0,1,1.13-.11,4.07,4.07,0,0,1-1.32-2.18c-.55-2.53,1.65-5,4.92-5.62a7.42,7.42,0,0,1,2.53,0,3.71,3.71,0,0,1-.39-1c-.55-2.53,1.66-5,4.92-5.63a7.48,7.48,0,0,1,3.35.16c6.06.71,15.82,2.71,29,4.93Z" style="fill:#39b54a;stroke:#3a3632;stroke-width:8.036317390436487px"/><path d="M1141.36,977.86c10.08,7.64,20,15.35,23.26,18.55a7.62,7.62,0,0,1,2.37,2.64c1.74,3.15,1.2,6.88-1.21,8.33a3.72,3.72,0,0,1-1.08.44,7.79,7.79,0,0,1,1.69,2.12c1.75,3.16,1.21,6.88-1.2,8.33a4.1,4.1,0,0,1-2.65.54,9,9,0,0,1,.67,1c1.74,3.16,1.2,6.89-1.2,8.33-2,1.21-4.66.45-6.51-1.65.83,2.72.12,5.5-1.88,6.71-2.4,1.45-5.76.07-7.51-3.09a8,8,0,0,1-.51-1.12,4.37,4.37,0,0,1-1.77,2.13c-2.41,1.45-5.77.07-7.51-3.08a8.41,8.41,0,0,1-.91-2.6,3.72,3.72,0,0,1-.91.76c-2.4,1.45-5.76.07-7.51-3.08a8.11,8.11,0,0,1-1-3.5c-1.41-6.48-2.78-17.21-5.13-31.57Z" style="fill:#39b54a;stroke:#3a3632;stroke-width:8.727997929232494px"/><path d="M1188.07,981.81c-1.85,16.45-3.88,32.75-5.28,38.57a10,10,0,0,1-1.39,4.42c-2.37,4.07-6.92,6-10.16,4.23a5.34,5.34,0,0,1-1.23-.92,10,10,0,0,1-1.25,3.32c-2.37,4.07-6.92,6-10.16,4.22a5.33,5.33,0,0,1-2.38-2.62,11.33,11.33,0,0,1-.7,1.45c-2.38,4.06-6.93,6-10.17,4.22-2.7-1.44-3.62-4.94-2.49-8.42-2.5,2.74-6.11,3.82-8.8,2.38-3.24-1.74-3.94-6.44-1.56-10.51a10.28,10.28,0,0,1,.91-1.32,5.75,5.75,0,0,1-3.57-.57c-3.24-1.73-3.94-6.43-1.56-10.5a10.57,10.57,0,0,1,2.3-2.76,5.2,5.2,0,0,1-1.46-.52c-3.24-1.73-3.94-6.43-1.56-10.5a10.58,10.58,0,0,1,3.26-3.47c6.34-5.92,17.49-14.64,32-26.89Z" style="fill:#39b54a;stroke:#3a3632;stroke-width:11.417247100945076px"/><path d="M1244.23,990.11c-8.32,10.11-16.71,20-20.15,23.3a7.84,7.84,0,0,1-2.83,2.33c-3.33,1.67-7.16,1-8.56-1.59a3.92,3.92,0,0,1-.42-1.14,8.1,8.1,0,0,1-2.26,1.67c-3.33,1.67-7.17,1-8.57-1.59a4.21,4.21,0,0,1-.44-2.76,9,9,0,0,1-1.09.65c-3.33,1.67-7.17,1-8.57-1.59-1.16-2.12-.27-4.84,2-6.66-2.85.74-5.7-.1-6.87-2.22-1.4-2.55.17-6,3.5-7.64a9.74,9.74,0,0,1,1.18-.48,4.6,4.6,0,0,1-2.12-1.92c-1.4-2.55.16-6,3.49-7.64a8.54,8.54,0,0,1,2.72-.84,4,4,0,0,1-.74-1c-1.4-2.55.17-6,3.5-7.64a8.25,8.25,0,0,1,3.66-.89c6.76-1.19,17.92-2.16,32.86-4Z" style="fill:#39b54a;stroke:#3a3632;stroke-width:9.034289981053725px"/><path d="M1276.89,1005.59c-7.64,12.33-15.38,24.47-18.68,28.56a8.73,8.73,0,0,1-2.76,3c-3.41,2.32-7.72,2.11-9.64-.48a4.83,4.83,0,0,1-.62-1.19,9.06,9.06,0,0,1-2.24,2.16c-3.41,2.33-7.73,2.11-9.64-.48a4.78,4.78,0,0,1-.9-3,9.52,9.52,0,0,1-1.09.88c-3.41,2.33-7.73,2.11-9.64-.48-1.59-2.16-1-5.28,1.19-7.6-3,1.23-6.27.72-7.86-1.43-1.91-2.59-.7-6.58,2.71-8.9a8.49,8.49,0,0,1,1.23-.71,5,5,0,0,1-2.62-1.79c-1.91-2.59-.7-6.58,2.71-8.91a9.42,9.42,0,0,1,2.86-1.31,5.13,5.13,0,0,1-1-1c-1.91-2.59-.69-6.58,2.72-8.9a9.26,9.26,0,0,1,3.88-1.53c7.25-2.3,19.35-5,35.49-9.24Z" style="fill:#39b54a;stroke:#3a3632;stroke-width:10.007831105030753px"/><path d="M1281.49,992.86c19.33,3,38.48,6.21,45.28,8.15a11.93,11.93,0,0,1,5.16,1.86c4.68,3,6.69,8.48,4.48,12.22a6.51,6.51,0,0,1-1.15,1.4,12.45,12.45,0,0,1,3.87,1.64c4.68,3,6.69,8.48,4.48,12.22a6.35,6.35,0,0,1-3.22,2.67,12.93,12.93,0,0,1,1.67.91c4.69,3,6.69,8.48,4.48,12.22-1.84,3.11-6,4-10.07,2.52,3.12,3.09,4.21,7.4,2.37,10.51-2.21,3.74-7.8,4.33-12.48,1.32a13.46,13.46,0,0,1-1.52-1.15,6.84,6.84,0,0,1-.85,4.2c-2.21,3.74-7.79,4.33-12.48,1.32a12.72,12.72,0,0,1-3.14-2.86,6.4,6.4,0,0,1-.69,1.7c-2.2,3.73-7.79,4.33-12.48,1.32a12.49,12.49,0,0,1-3.94-4c-6.67-7.78-16.42-21.38-30.16-39.19Z" style="fill:#39b54a;stroke:#3a3632;stroke-width:13.49679853133987px"/></svg>