<svg xmlns="http://www.w3.org/2000/svg" height="1187.705" width="1971.021"  xmlns:v="https://vecta.io/nano"><style><![CDATA[.B{stroke-width:24}.C{fill:#f7d220}.D{stroke-miterlimit:10}.E{stroke-linejoin:round}]]></style><g fill="#fff" stroke="#231f20" class="B D"><path d="M88.52 1175.705h1794c56.48 0 88.6-45.57 72.24-100.1l-93-309.8c-13-43.17-62.27-77.25-110.48-77.25H219.73c-48.22 0-97.53 34.08-110.5 77.25l-93 309.8c-16.3 54.52 15.84 100.1 72.28 100.1z"/><path d="M168.34 1019.825c26.52 0 53-20.55 59.06-45.54l35.8-147.8c5.4-22.34-10.2-40.2-34.76-40.2s-49.37 17.85-55.45 40.2l-40.3 147.8c-6.8 25 9.1 45.54 35.63 45.54z"/></g><g stroke="#010101" class="B"><path d="M460.4 429.535c-24.3 15.55-29.6 34.43-35.4 48-38.28 89.88 3.4 162.08 42.43 216.1 70 92.64 203 210.1 281.24 169.64 10.33-6.36 20.67-13.5 28.53-20.54 29.17 6.33 58.08 1.37 86.16-14.53a9.06 9.06 0 0 0 1.69-1.13l.36-.2.47-.27.7-.4.6-.34.1-.07c27.8-16.36 46.6-39.1 55.76-67.72a165.89 165.89 0 0 0 32.66-14.48c88.32-72.2 34.68-237.18-5.82-328.65-27.16-60.83-64.8-130.3-161.92-147.86-12.83-2.32-32.67-4.1-54.43 8.54-19.17 11.15-62.86 46.66-62.86 46.66l-144.6 83.47s-41.4 8.25-65.7 23.8z" class="C"/><path d="M748.64 210.605c-1.178-8.2-8.407-14.13-16.67-13.7-3.2.13-79.93 5-127.93 59.3-15.88-22.48-16.7-52.7-25.68-71.58-8.68-18.27-33.7-22.33-57.73-13.8-22.95 8.24-46.16 30.4-42.84 59.48 3.65 32.34 17.58 62.18 28.6 81.8-72.55 16.68-111.3 77.74-112.94 80.4-4.47 7.166-2.66 16.566 4.15 21.56 28 15.86 77.32 11.2 77.32 11.2 114.16-40.86 148.8-54.1 237.16-126.53 0 0 27.27-48.82 36.6-88.13z" fill="#16a44a"/><g stroke-linecap="round" class="E"><path d="M606.25 659.645c-18.42-23.48-35.8-44.1-51.94-71.5s-29.7-55.12-37.78-79.7c-11.15-33.86-12.73-85.07 8.8-113.5 31.1-41.1 101.2-77.93 138.9-80.2 35.6-2.14 87.54 25.77 128.5 85.42m49.94 95c54.1 106.52 125.62 272.32 26.7 331.1-54.6 32.44-144.16-4-204.8-89.6" class="C"/><path d="M591.17 429.405c-15.05 9.92-20 32.9-16.1 51.58 9.17 44.14 66.27 118.9 66.27 118.9" fill="none"/></g></g><path d="M1540.92 524.065s-254.73 164.12-506.1 283.64c-293 139.3-594 228.85-632.2 163.75-25.33-43.24 985.94-682.1 985.94-682.1z" fill="#d1d3d4" stroke="#231f20" class="B D"/><path d="M1914.5 158.715l-392.24 172.47a41.42 41.42 0 0 0-24.65 40.81h0a41.4 41.4 0 0 1-22.19 39.64l-5.58 2.9-82.67-127.37 418.33-271.53c11.5-7.47 27.62-3.1 36 9.78l80.14 95.62c8.72 13.47 5.45 30.75-7.14 37.67z" fill="#231f20"/><g stroke="#0d0e19" stroke-width="12.572" class="C E"><path d="M828.87 836.405c12.07 20.9 91.38 42.57 91.38 42.57 9.43 4.4 17.4 18.7 9.1 25-13.43 10.1-26.7 57.33-26.7 57.33a18.75 18.75 0 0 1-25 9.1s-74.3-48.8-91.38-42.58c-9.77 3.56-13.48-15.52-9.1-24.95 0 0 33.7-44.27 26.7-57.34-4.87-9.22 19.8-18.13 25-9.13z"/><path d="M902.63 961.255c22.45-8.85 55.45-84.22 55.45-84.22 5.72-8.7 21-14.5 26-5.36 8 14.75 52.84 34.77 52.84 34.77a18.74 18.74 0 0 1 5.37 26s-59.1 66.42-55.4 84.22c2.1 10.18-17.32 11.08-26 5.36 0 0-38.9-39.78-52.85-34.77-9.8 3.53-15-22.16-5.36-26zm134.45 17.8c24.06 1.84 86.77-51.33 86.77-51.33 9-5.3 25.27-3.8 25.73 6.6.74 16.78 32.2 54.44 32.2 54.44a18.72 18.72 0 0 1-6.6 25.72s-82.25 33.73-86.77 51.33c-2.58 10.08-20.42 2.36-25.72-6.6 0 0-17.47-52.82-32.2-54.44-10.34-1.14-3.77-26.52 6.6-25.72z"/><path d="M1214.95 886.145c12.08 20.9 91.38 42.57 91.38 42.57 9.43 4.4 17.4 18.7 9.1 25-13.42 10.1-26.7 57.34-26.7 57.34a18.74 18.74 0 0 1-25 9.09c0 0-74.3-48.8-91.38-42.58-9.78 3.56-13.5-15.52-9.1-24.95 0 0 33.7-44.27 26.72-57.34-4.87-9.2 19.8-18.14 25-9.13z"/><path d="M1219.45 788.185c18.53 15.45 100.45 8.47 100.45 8.47 10.37.87 22.8 11.55 17.14 20.3-9.12 14.1-5.3 63-5.3 63a18.74 18.74 0 0 1-20.29 17.14s-86.58-20.2-100.46-8.47c-8 6.7-18-9.92-17.13-20.3 0 0 16.38-53.17 5.3-63-7.77-6.92 12.3-23.8 20.3-17.14z"/><path d="M1400.3 889.905c-23.67 4.7-69.75 72.8-69.75 72.8-7.2 7.5-23.3 10.45-26.55.57-5.24-16-45.68-43.77-45.68-43.77a18.74 18.74 0 0 1-.56-26.55s70.13-54.62 69.75-72.8c-.23-10.4 19-7.76 26.55-.57 0 0 31 46.18 45.67 43.77 10.27-1.7 10.77 24.52.57 26.55z"/><path d="M1280.7 965.615c23.3 6.23 94.72-34.53 94.72-34.53 9.77-3.56 25.53.92 24.07 11.22-2.35 16.63 21.67 59.43 21.67 59.43a18.74 18.74 0 0 1-11.22 24.07c0 0-87 18.06-94.7 34.53-4.4 9.43-20.5-1.44-24.08-11.22 0 0-7.47-55.13-21.66-59.43-9.96-3 1.16-26.76 11.2-24.07z"/><path d="M1437.9 812.535c-7.17 23 30.65 96 30.65 96 3.16 9.9-2 25.47-12.18 23.6-16.53-3-60.26 19.23-60.26 19.23a18.72 18.72 0 0 1-23.6-12.18s-14.5-87.7-30.65-96c-9.25-4.77 2.27-20.43 12.18-23.6 0 0 55.4-5.23 60.26-19.23 3.4-9.83 26.7 2.25 23.6 12.18z"/></g></svg>