<svg xmlns="http://www.w3.org/2000/svg" height="1187.705" width="1971.021"  xmlns:v="https://vecta.io/nano"><style><![CDATA[.B{fill:#fcfad8}.C{stroke-linecap:round}.D{stroke:#231f20}.E{fill:#fcf7b9}.F{stroke-width:8.381}.G{stroke-width:5.835}.H{stroke-miterlimit:10}]]></style><g fill="#fff" stroke-width="24" class="D H"><path d="M88.52 1175.705h1794c56.48 0 88.6-45.57 72.24-100.1l-93-309.8c-13-43.17-62.27-77.25-110.48-77.25H219.73c-48.22 0-97.53 34.08-110.5 77.25l-93 309.8c-16.3 54.52 15.84 100.1 72.28 100.1z"/><path d="M168.34 1019.825c26.52 0 53-20.55 59.06-45.54l35.8-147.8c5.4-22.34-10.2-40.2-34.76-40.2s-49.37 17.85-55.45 40.2l-40.3 147.8c-6.8 25 9.1 45.54 35.63 45.54z"/></g><g stroke-width="16.763" class="D"><path d="M224.5 276.185c-15.95 9.28-28.18 73.6-33.9 111.32-33.53 221.24 263.56 506.23 497.86 450.6 75.52-17.94 122.9-78.57 126.38-125.13.65-8.62-3.1-21.17-10.5-27.7-9.5-8.34-24.38-10.7-36.86-8.8-272.22 41.92-415.4-198-481.35-395.18-6.4-19.13-43.8-15.47-61.64-5.12z" class="B"/><path d="M308.54 514.775s70.8 206.45 345.08 247" fill="none" class="C"/></g><path d="M1540.92 524.065s-254.73 164.12-506.1 283.64c-293 139.3-594 228.85-632.2 163.75-25.33-43.24 985.94-682.1 985.94-682.1z" fill="#d1d3d4" stroke-width="24" class="D H"/><path d="M1914.5 158.715l-392.24 172.47a41.42 41.42 0 0 0-24.65 40.81h0a41.4 41.4 0 0 1-22.19 39.64l-5.58 2.9-82.67-127.37 418.33-271.53c11.5-7.47 27.62-3.1 36 9.78l80.14 95.62c8.72 13.47 5.45 30.75-7.14 37.67z" fill="#231f20"/><g class="D"><g class="F"><path d="M1047.76 786.255c-5.74 52.12-44.57 99.57-99.56 99.57s-92.38-46-99.57-99.57c-7.3-54.5 44.9-105.43 99.57-99.57 53.55 5.72 105.6 44.9 99.56 99.57z" class="B"/><g class="C E"><path d="M958.95 811.185l15.8 34.5"/><path d="M958.95 811.185l15.8 34.5M924 800.405l-24 17.8m67.54-42.73l29.32-9.58m-75.26-30.86l11.5 24.43"/></g><g class="B"><path d="M1558.08 880.325c5.78 25.12-19.06 60.3-72.2 67.15s-101.08-10.07-121.8-34.26c-10.53-12.3-4.62-34.18-4.62-34.18"/><path d="M1558.17 870.275c7.82 25.13-17.53 52.2-70.68 59s-101.1-10.06-121.78-34.26c-21.05-24.62 16.33-55 70.68-59 53.23-3.97 113.58 7.9 121.78 34.26z"/></g></g><g class="C E G"><path d="M1481.6 894.405l24.13 14.2"/><path d="M1481.6 894.405l24.13 14.2m-60.65-14.88l-18.62 11.33m54.28-28.4l25.88-8.14m-80.66-5.1l17.37 10"/></g><g class="B F"><path d="M1588.57 1000.205c5.78 25.13-19.06 60.32-72.2 67.16s-101.1-10.07-121.78-34.26c-10.53-12.3-4.62-34.18-4.62-34.18"/><path d="M1588.65 990.165c7.82 25.13-17.53 52.2-70.68 59s-101.1-10.07-121.78-34.26c-21-24.63 16.33-55 70.68-59 53.2-3.97 113.58 7.9 121.78 34.26z"/></g><g class="C E G"><path d="M1512.08 1014.325l24.13 14.2"/><path d="M1512.08 1014.325l24.13 14.2m-60.66-14.9l-18.62 11.32m54.3-28.4l25.86-8.12m-80.64-5.1l17.37 10"/></g><g class="B F"><path d="M1393.5 872.195c5.8 25.13-19.06 60.3-72.2 67.15s-101.1-10.06-121.78-34.26c-10.52-12.3-4.62-34.18-4.62-34.18"/><path d="M1393.6 862.145c7.8 25.13-17.54 52.2-70.68 59s-101.1-10.06-121.8-34.26c-21-24.62 16.33-55 70.68-59 53.28-3.96 113.58 7.9 121.8 34.26z"/></g><g class="C E G"><path d="M1317.02 886.315l24.12 14.2"/><path d="M1317.02 886.315l24.12 14.2m-60.66-14.92l-18.62 11.33m54.3-28.4l25.93-8.1m-80.7-5.13l17.38 10"/></g><g class="B F"><path d="M1249.23 981.915c5.8 25.13-19.06 60.32-72.2 67.16s-101.1-10.07-121.8-34.26c-10.52-12.3-4.62-34.18-4.62-34.18"/><path d="M1249.32 971.875c7.82 25.13-17.54 52.2-70.68 59s-101.1-10.07-121.8-34.26c-21-24.62 16.33-55 70.68-59 53.24-3.97 113.55 7.9 121.8 34.26z"/></g><g class="C E G"><path d="M1172.75 996.045l24.12 14.18"/><path d="M1172.75 996.045l24.12 14.18m-60.67-14.9l-18.62 11.32m54.3-28.4l25.9-8.14m-80.7-5.1l17.38 10"/></g></g></svg>