<svg id="Layer_1" data-name="Layer 1" xmlns="http://www.w3.org/2000/svg" viewBox="0 0 2000 1225"><path d="M93.44,1190.71h1794c56.48,0,88.59-45.56,72.24-100.08l-93-309.81c-13-43.17-62.27-77.25-110.48-77.25H224.65c-48.22,0-97.53,34.08-110.49,77.25l-93,309.81C4.85,1145.14,37,1190.71,93.44,1190.71Z" style="fill:#fff;stroke:#231f20;stroke-miterlimit:10;stroke-width:24px"/><path d="M173.26,1034.83c26.52,0,53-20.55,59.06-45.54L268.13,841.5c5.41-22.34-10.19-40.2-34.76-40.2S184,819.16,177.92,841.5L137.63,989.29C130.82,1014.28,146.73,1034.83,173.26,1034.83Z" style="fill:#fff;stroke:#231f20;stroke-miterlimit:10;stroke-width:24px"/><path id="path60" d="M668,651.63C653.06,627,628,609,597.12,606a99.71,99.71,0,0,0-50.28,8c-28.34,12.72-47,38.61-57.88,66.88-11.41,29.73-7.43,61.26,11.18,87.23,35.58,49.66,104.34,54.08,148.2,13.43a111.12,111.12,0,0,0,22.27-28.74A101.14,101.14,0,0,0,668,651.63Z" style="fill:#c93c27;stroke:#000;stroke-width:6.080573492199051px"/><g id="layer2"><path id="path920" d="M529.68,655.67s-51,7.53-71.95-.13c5.76,5.13,29,20.12,53.24,20.67,0,0-34.48,52.68-32,64.92,0,0,42.16-42.37,44.52-58.67,0,0,37.52,35.79,57,37.64,0,0-19.31-49.1-31-53.83,0,0,55.63-44,62.11-62-10.61-1.07-56.21,26.47-66,41.19,4.58-21.11-8.53-47-8.53-47s-6,48.73-7.42,57.18Z" style="fill:#07a44a"/></g><path id="path60-2" data-name="path60" d="M744.62,874c25.47-12.94,45.16-36.48,50.46-66.81a99,99,0,0,0-4.25-50.4c-10.5-29-34.77-49.45-62-62.29-28.6-13.5-60.13-11.89-87.24,4.63C589.78,730.71,580.32,798.5,617.35,845a110.26,110.26,0,0,0,26.83,24.19A100.45,100.45,0,0,0,744.62,874Z" style="fill:#c93c27;stroke:#000;stroke-width:6.080573492199051px"/><path id="path924" d="M639.15,727.07c-2.61-3.27-17.62,13.19-28.17,35.14-6.1,10.76,16.85,28.8,18,9.49C630.44,749.86,644.19,733.22,639.15,727.07Z" style="fill:#fff"/><g id="layer2-2" data-name="layer2"><path id="path920-2" data-name="path920" d="M736.31,758.63s-3.69-51.06,5.45-71.28c-5.51,5.32-22.07,27.24-24.41,51.22,0,0-49.65-38.06-62-36.5,0,0,38.86,44.9,54.83,48.44,0,0-38.23,34.53-41.51,53.72,0,0,50.08-15.5,55.63-26.77,0,0,39.44,58.36,56.84,66.11,1.84-10.42-22.08-57.64-35.94-68.38,20.57,6.09,47.16-5,47.16-5s-47.82-9.56-56.1-11.57Z" style="fill:#07a44a"/></g><path id="path60-3" data-name="path60" d="M526.68,878c25.48-12.94,45.17-36.49,50.46-66.81a99,99,0,0,0-4.24-50.41c-10.5-29-34.78-49.45-62-62.29-28.6-13.5-60.13-11.88-87.24,4.63-51.83,31.58-61.29,99.38-24.26,145.83a110.09,110.09,0,0,0,26.83,24.2A100.45,100.45,0,0,0,526.68,878Z" style="fill:#c93c27;stroke:#000;stroke-width:6.080573492199051px"/><path id="path924-2" data-name="path924" d="M421.22,731.06c-2.62-3.27-17.63,13.18-28.18,35.13-6.1,10.76,16.85,28.8,18,9.5C412.5,753.85,426.25,737.2,421.22,731.06Z" style="fill:#fff"/><g id="layer2-3" data-name="layer2"><path id="path920-3" data-name="path920" d="M499.59,757.56s16,48.63,12,70.46c4.05-6.49,14.8-31.77,11.26-55.61,0,0,57.39,24.88,68.95,20.38,0,0-48.59-34.13-64.94-33.69,0,0,28.71-42.76,27.23-62.18,0,0-44.82,27.19-47.47,39.47,0,0-52.42-47.06-71.18-50.35.75,10.56,35.4,50.56,51.46,57.62-21.44-.92-44.55,16.28-44.55,16.28s48.72-2.33,57.24-2.38Z" style="fill:#07a44a"/></g><path id="path60-4" data-name="path60" d="M430.89,824.05c-4.57-28.4-21.07-54.51-48.51-68.91a99.58,99.58,0,0,0-49.61-11.44c-31,1.14-58.09,18.12-78.77,40.24-21.74,23.27-29.89,54-22.4,85,14.33,59.39,76.39,89.31,132.31,68.12a111.11,111.11,0,0,0,31.43-18.28,101.1,101.1,0,0,0,35.55-94.77Z" style="fill:#c93c27;stroke:#000;stroke-width:6.080573492199051px"/><g id="layer2-4" data-name="layer2"><path id="path920-4" data-name="path920" d="M301.22,775.87s-50.07-12.17-66.63-27.15c3.4,6.91,19.31,29.53,41.57,39.15,0,0-51.74,35.87-54,48.15,0,0,55-23.43,63.29-37.65,0,0,21.33,47.26,38.71,56.3,0,0,.55-52.76-8.54-61.55,0,0,68.06-19.84,80.84-34.13-9.42-5-62,3.42-76.59,13.4,12.17-17.84,9.73-46.73,9.73-46.73s-23.87,42.9-28.35,50.21Z" style="fill:#07a44a"/></g><path d="M1545.84,539.07s-254.73,164.12-506.1,283.64c-293,139.31-594,228.84-632.19,163.75-25.33-43.24,985.94-682.11,985.94-682.11Z" style="fill:#d0d2d3;stroke:#231f20;stroke-miterlimit:10;stroke-width:24px"/><path d="M1919.41,173.72,1527.17,346.19A41.42,41.42,0,0,0,1502.52,387h0a41.4,41.4,0,0,1-22.19,39.64l-5.58,2.9-82.67-127.36,36.41-23.64,14.43-9.36L1810.41,30.65c11.51-7.47,27.62-3.09,36,9.78l80.14,95.62C1935.27,149.52,1932,166.8,1919.41,173.72Z" style="fill:#231f20"/><path id="path60-5" data-name="path60" d="M883.3,971.56c-11.53,38.76-44.35,69.79-87.68,78.36a125.84,125.84,0,0,1-41.16,1.27,114.53,114.53,0,0,1-90.93-69.78,109.31,109.31,0,0,1-7.48-59.74Z" style="fill:#c93c27;stroke:#000;stroke-width:6.868961867675514px"/><path id="path60-6" data-name="path60" d="M845.33,967.52c-8.15,27.41-31.36,49.36-62,55.41a88.91,88.91,0,0,1-29.11.9,81,81,0,0,1-64.3-49.34,77.31,77.31,0,0,1-5.29-42.25Z" style="fill:#dd694a"/><path d="M681.72,960.59c2.73,14.32,10.29,27.55,20.67,37.8a91.41,91.41,0,0,0,37.41,21.84c19.36,6,40.68,6.07,59.67-1a84.54,84.54,0,0,0,36.68-26.58" style="fill:none;stroke:#000;stroke-width:6.868961867675514px"/><path d="M815.33,986c2,6,.45,11.8-5.51,13.75s-10.64-1.85-12.59-7.81S801,973,801,973,813.38,980.07,815.33,986Z" style="fill:#f49662"/><path d="M766.56,992.47c-1.63,7.6-6.91,12.9-14.51,11.27s-10.22-8.65-8.58-16.25S759.4,969.6,759.4,969.6,768.2,984.87,766.56,992.47Z" style="fill:#f49662"/><path d="M720.31,974.29c-3.72,5.14-9.41,7.37-14.55,3.64s-4.79-9.83-1.06-15,17.8-8.12,17.8-8.12S724,969.16,720.31,974.29Z" style="fill:#f49662"/><path id="path60-7" data-name="path60" d="M1392.08,984.87c-11.53,38.76-44.34,69.79-87.68,78.36a125.79,125.79,0,0,1-41.15,1.27,114.49,114.49,0,0,1-90.94-69.78,109.31,109.31,0,0,1-7.48-59.74Z" style="fill:#c93c27;stroke:#000;stroke-width:6.868961867675514px"/><path id="path60-8" data-name="path60" d="M1354.11,980.83c-8.15,27.41-31.36,49.36-62,55.41a88.86,88.86,0,0,1-29.1.9,81,81,0,0,1-64.31-49.34,77.31,77.31,0,0,1-5.29-42.25Z" style="fill:#dd694a"/><path d="M1190.5,973.9c2.74,14.32,10.3,27.55,20.67,37.8a91.47,91.47,0,0,0,37.41,21.84c19.36,6,40.68,6.07,59.67-1a84.46,84.46,0,0,0,36.68-26.58" style="fill:none;stroke:#000;stroke-width:6.868961867675514px"/><path d="M1324.12,999.34c2,5.95.44,11.8-5.52,13.75s-10.64-1.85-12.59-7.81,3.81-18.95,3.81-18.95S1322.16,993.38,1324.12,999.34Z" style="fill:#f49662"/><path d="M1275.34,1005.78c-1.63,7.6-6.91,12.9-14.51,11.27s-10.22-8.65-8.58-16.24,15.94-17.9,15.94-17.9S1277,998.18,1275.34,1005.78Z" style="fill:#f49662"/><path d="M1229.1,987.6c-3.73,5.14-9.42,7.37-14.56,3.64s-4.79-9.82-1.06-15,17.8-8.12,17.8-8.12S1232.82,982.47,1229.1,987.6Z" style="fill:#f49662"/><path id="path60-9" data-name="path60" d="M1088.92,869.1c-.77,40.43-24.12,79.09-63.59,98.91A125.57,125.57,0,0,1,986,980.22a114.56,114.56,0,0,1-106.25-43,109.31,109.31,0,0,1-23.15-55.59Z" style="fill:#c93c27;stroke:#000;stroke-width:6.868961867675514px"/><path id="path60-10" data-name="path60" d="M1051.25,875.34c-.54,28.59-17,55.93-45,69.94a88.75,88.75,0,0,1-27.81,8.64,81,81,0,0,1-75.14-30.4A77.3,77.3,0,0,1,887,884.21Z" style="fill:#dd694a"/><path d="M891.72,912.31c6.46,13.08,17.28,23.81,30,30.92a91.58,91.58,0,0,0,41.88,11.07c20.24.57,40.82-5,57.25-16.85A84.5,84.5,0,0,0,1049.12,902" style="fill:none;stroke:#000;stroke-width:6.868961867675514px"/><path d="M1027.28,901.18c3.47,5.22,3.57,11.25-1.64,14.73s-10.75,1-14.23-4.18-1.38-19.28-1.38-19.28S1023.81,896,1027.28,901.18Z" style="fill:#f49662"/><path d="M982,920.4c.45,7.76-3.21,14.28-11,14.73s-12.16-5.6-12.61-13.36S969,900.27,969,900.27,981.54,912.64,982,920.4Z" style="fill:#f49662"/><path d="M932.57,915.22c-2.22,5.95-7.11,9.61-13.05,7.39s-7.24-8.19-5-14.14,15-12.57,15-12.57S934.79,909.28,932.57,915.22Z" style="fill:#f49662"/><path id="path60-11" data-name="path60" d="M1145,1024.24c-5.36,40.09-33,75.85-74.42,91a125.93,125.93,0,0,1-40.46,7.66,114.55,114.55,0,0,1-100.68-54.78,109.31,109.31,0,0,1-16.68-57.85Z" style="fill:#c93c27;stroke:#000;stroke-width:6.868961867675514px"/><path id="path60-12" data-name="path60" d="M1106.87,1026.16c-3.79,28.35-23.3,53.64-52.63,64.39a89.28,89.28,0,0,1-28.61,5.42,81,81,0,0,1-71.2-38.74,77.39,77.39,0,0,1-11.8-40.92Z" style="fill:#dd694a"/><path d="M944.17,1044.77a73.06,73.06,0,0,0,26.3,34.12,91.3,91.3,0,0,0,40.35,15.76c20,2.87,41.13-.34,58.8-10.23a84.5,84.5,0,0,0,32.09-32" style="fill:none;stroke:#000;stroke-width:6.868961867675514px"/><path d="M1080.12,1049.11c2.85,5.58,2.27,11.59-3.31,14.45s-10.8-.18-13.66-5.76.82-19.31.82-19.31S1077.26,1043.53,1080.12,1049.11Z" style="fill:#f49662"/><path d="M1032.94,1063.06c-.44,7.76-4.82,13.83-12.58,13.39s-11.44-7-11-14.71,13-20.15,13-20.15S1033.37,1055.3,1032.94,1063.06Z" style="fill:#f49662"/><path d="M984.43,1052.3c-2.88,5.66-8.16,8.74-13.81,5.86s-6.26-9-3.38-14.61,16.32-10.79,16.32-10.79S987.31,1046.65,984.43,1052.3Z" style="fill:#f49662"/></svg>