<svg id="Layer_1" data-name="Layer 1" xmlns="http://www.w3.org/2000/svg" xmlns:xlink="http://www.w3.org/1999/xlink" viewBox="0 0 1858 2000"><defs><radialGradient id="radial-gradient" cx="589.38" cy="1413.25" r="597.95" gradientTransform="translate(-458.15 2002.63) rotate(-90) scale(1 0.74)" gradientUnits="userSpaceOnUse"><stop offset="0.17" stop-color="#f8ffd2"/><stop offset="0.55" stop-color="#f7fed0"/><stop offset="0.69" stop-color="#f1fcc9"/><stop offset="0.79" stop-color="#e8f8be"/><stop offset="0.86" stop-color="#daf2ad"/><stop offset="0.93" stop-color="#c9eb97"/><stop offset="0.99" stop-color="#b4e27c"/><stop offset="1" stop-color="#b0e077"/></radialGradient></defs><path d="M1322.46,505.78S1023.09,616.18,737.39,681.5c-333,76.13-662.93,99.26-687.23,23.63C34,654.89,1219.59,229.68,1219.59,229.68Z" style="fill:#e6e7e8;stroke:#3a3632;stroke-miterlimit:10;stroke-width:20px"/><path d="M1790,215.78l-442.61,87.49a43.61,43.61,0,0,0-34.67,36.31h0a43.62,43.62,0,0,1-31.88,35.67l-6.4,1.7-55.82-149.82,42.83-16,17-6.33L1710.73,43.78c13.54-5,29.09,3.14,34.73,18.29L1806,178.68C1811.85,194.53,1804.55,211.54,1790,215.78Z" style="fill:#3a3632"/><path d="M903.37,1074.6c-36.51-79.47-142.58-299.17-318.46-299.17S303,995.13,266.45,1074.6,149.67,1356.65,149.67,1529c0,239.75,194.86,408.87,435.24,408.87s435.23-169.12,435.23-408.87C1020.14,1356.65,939.87,1154.07,903.37,1074.6Z" style="stroke:#3a3632;stroke-linecap:round;stroke-linejoin:round;stroke-width:20px;fill:url(#radial-gradient)"/><path d="M798.92,1488c0,118.2-95.82,214-214,214s-214-95.81-214-214,95.81-246.34,214-246.34S798.92,1369.84,798.92,1488Z" style="fill:#af7d64;stroke:#3a3632;stroke-miterlimit:10;stroke-width:20px"/><path d="M1643.61,1094.45C1607.1,1015,1501,795.28,1325.15,795.28s-282,219.7-318.46,299.17-116.78,282-116.78,454.38c0,239.75,194.86,408.88,435.24,408.88s435.23-169.13,435.23-408.88C1760.38,1376.49,1680.11,1173.91,1643.61,1094.45Z" style="fill:#505e29;stroke:#3a3632;stroke-miterlimit:10;stroke-width:20.5293569223174px"/><path d="M1600.81,1070.9c-31.87-66.79-124.48-251.43-278-251.43s-246.16,184.64-278,251.43-101.95,237-101.95,381.89c0,201.49,170.12,343.63,380,343.63s380-142.14,380-343.63C1702.76,1307.94,1632.68,1137.69,1600.81,1070.9Z" style="fill:#5c8431"/><ellipse cx="1325.5" cy="892.1" rx="32.46" ry="23.55" style="fill:#809b5d;stroke:#3a3632;stroke-miterlimit:10;stroke-width:20.5293569223174px"/><path d="M992.36,1336.45l2-1.85a10.8,10.8,0,0,0,.26-15.51l-6.19-6.2a10.79,10.79,0,0,1,5.42-18.19h0a10.78,10.78,0,0,0,5.41-18.18h0a10.8,10.8,0,0,1,5.42-18.19l8.58-1.8a10.78,10.78,0,0,0,8.26-13.12l-.64-2.64" style="fill:none;stroke:#3a3632;stroke-linecap:round;stroke-miterlimit:10;stroke-width:10.2646784611587px;isolation:isolate;opacity:0.991999983787537"/><path d="M1084.48,1272.38l2-1.85a10.8,10.8,0,0,0,.26-15.51l-6.19-6.2a10.8,10.8,0,0,1,5.42-18.19h0a10.78,10.78,0,0,0,5.41-18.18h0a10.8,10.8,0,0,1,5.42-18.19l8.58-1.8a10.78,10.78,0,0,0,8.26-13.12l-.64-2.64" style="fill:none;stroke:#3a3632;stroke-linecap:round;stroke-miterlimit:10;stroke-width:10.2646784611587px"/><path d="M1208.9,1189.1l1.82-2a10.78,10.78,0,0,0-1.07-15.47L1203,1166a10.79,10.79,0,0,1,3.83-18.59h0a10.79,10.79,0,0,0,3.84-18.58h0a10.79,10.79,0,0,1,3.84-18.58l8.39-2.53a10.79,10.79,0,0,0,7.1-13.79l-.87-2.57" style="fill:none;stroke:#3a3632;stroke-linecap:round;stroke-miterlimit:10;stroke-width:10.2646784611587px"/><path d="M1131.73,1090.35l2.32-1.42a10.79,10.79,0,0,0,3.39-15.13l-4.82-7.32a10.79,10.79,0,0,1,9-16.72h0a10.79,10.79,0,0,0,9-16.72h0a10.79,10.79,0,0,1,9-16.72l8.77,0a10.78,10.78,0,0,0,10.74-11.18l-.1-2.72" style="fill:none;stroke:#3a3632;stroke-linecap:round;stroke-miterlimit:10;stroke-width:10.2646784611587px"/><path d="M1116.41,1413.76l1.12,2.47a10.78,10.78,0,0,1-5.66,14.44l-8.09,3.37a10.79,10.79,0,0,0-1.92,18.88h0a10.78,10.78,0,0,1-1.92,18.87h0a10.79,10.79,0,0,0-1.92,18.88l7.24,4.93a10.8,10.8,0,0,1,2.64,15.29l-1.6,2.19" style="fill:none;stroke:#3a3632;stroke-linecap:round;stroke-miterlimit:10;stroke-width:10.2646784611587px"/><path d="M1167.21,1311.57l2.1-1.72a10.79,10.79,0,0,0,1.28-15.46l-5.78-6.59a10.79,10.79,0,0,1,6.59-17.79h0" style="fill:none;stroke:#3a3632;stroke-linecap:round;stroke-miterlimit:10;stroke-width:10.2646784611587px"/><path d="M1024.14,1447.38h0a10.79,10.79,0,0,0,2.25-18.84h0a10.79,10.79,0,0,1,2.25-18.85l8.14-3.23a10.79,10.79,0,0,0,5.92-14.33l-1.09-2.5" style="fill:none;stroke:#3a3632;stroke-linecap:round;stroke-miterlimit:10;stroke-width:10.2646784611587px"/><path d="M1065.31,1136.26h0a10.79,10.79,0,0,0,2.25-18.84h0a10.79,10.79,0,0,1,2.25-18.84l8.15-3.23a10.79,10.79,0,0,0,5.91-14.34l-1.08-2.49" style="fill:none;stroke:#3a3632;stroke-linecap:round;stroke-miterlimit:10;stroke-width:10.2646784611587px"/><path d="M1592.31,1122.68l-1,2.51a10.8,10.8,0,0,0,6.22,14.21l8.22,3a10.79,10.79,0,0,1,2.66,18.79h0A10.79,10.79,0,0,0,1611,1180h0a10.78,10.78,0,0,1,2.66,18.78l-7,5.22a10.78,10.78,0,0,0-2,15.37l1.69,2.13" style="fill:none;stroke:#3a3632;stroke-linecap:round;stroke-miterlimit:10;stroke-width:10.2646784611587px;isolation:isolate;opacity:0.991999983787537"/><path d="M1535.3,1219.33l-1,2.51a10.8,10.8,0,0,0,6.23,14.21l8.21,3a10.79,10.79,0,0,1,2.66,18.79h0a10.79,10.79,0,0,0,2.66,18.79h0a10.78,10.78,0,0,1,2.66,18.78l-7,5.22a10.79,10.79,0,0,0-2,15.37l1.69,2.13" style="fill:none;stroke:#3a3632;stroke-linecap:round;stroke-miterlimit:10;stroke-width:10.2646784611587px"/><path d="M1457,1346.91l-.81,2.59a10.8,10.8,0,0,0,7.42,13.62l8.45,2.34a10.79,10.79,0,0,1,4.26,18.49h0a10.79,10.79,0,0,0,4.27,18.49h0a10.79,10.79,0,0,1,4.26,18.49l-6.57,5.8a10.78,10.78,0,0,0-.71,15.49l1.86,2" style="fill:none;stroke:#3a3632;stroke-linecap:round;stroke-miterlimit:10;stroke-width:10.2646784611587px"/><path d="M1568.27,1404.48l-1.51,2.25a10.79,10.79,0,0,0,3.23,15.17l7.43,4.65a10.79,10.79,0,0,1-1.19,18.94h0a10.79,10.79,0,0,0-1.19,18.94h0a10.79,10.79,0,0,1-1.18,18.94l-8,3.68a10.8,10.8,0,0,0-5.1,14.65l1.23,2.42" style="fill:none;stroke:#3a3632;stroke-linecap:round;stroke-miterlimit:10;stroke-width:10.2646784611587px"/><path d="M1447.33,1104.15l-2.06-1.77a10.8,10.8,0,0,1-.87-15.49l5.94-6.44a10.79,10.79,0,0,0-6.12-18h0a10.79,10.79,0,0,1-6.13-18h0a10.79,10.79,0,0,0-6.12-18l-8.65-1.46a10.79,10.79,0,0,1-8.77-12.79l.54-2.66" style="fill:none;stroke:#3a3632;stroke-linecap:round;stroke-miterlimit:10;stroke-width:10.2646784611587px"/><path d="M1443.77,1218.21l-1.19,2.44a10.79,10.79,0,0,0,5.28,14.58l8,3.59a10.79,10.79,0,0,1,1.43,18.92h0" style="fill:none;stroke:#3a3632;stroke-linecap:round;stroke-miterlimit:10;stroke-width:10.2646784611587px"/><path d="M1517.17,1035.11h0a10.8,10.8,0,0,0,5.81,18.07h0a10.78,10.78,0,0,1,5.81,18.06l-6,6.33a10.79,10.79,0,0,0,.6,15.5l2,1.81" style="fill:none;stroke:#3a3632;stroke-linecap:round;stroke-miterlimit:10;stroke-width:10.2646784611587px"/><path d="M1609.5,1335.05h0a10.79,10.79,0,0,0,5.81,18.07h0a10.79,10.79,0,0,1,5.81,18.06l-6.06,6.33a10.79,10.79,0,0,0,.61,15.5l2,1.81" style="fill:none;stroke:#3a3632;stroke-linecap:round;stroke-miterlimit:10;stroke-width:10.2646784611587px"/><path d="M1686.07,1581.87l-2,1.85a10.78,10.78,0,0,0-.26,15.51l6.19,6.2a10.79,10.79,0,0,1-5.41,18.19h0a10.78,10.78,0,0,0-5.41,18.18h0a10.8,10.8,0,0,1-5.42,18.19l-8.57,1.8a10.79,10.79,0,0,0-8.26,13.13l.64,2.64" style="fill:none;stroke:#3a3632;stroke-linecap:round;stroke-miterlimit:10;stroke-width:10.2646784611587px;isolation:isolate;opacity:0.991999983787537"/><path d="M1581.74,1612.41l-2,1.86a10.79,10.79,0,0,0-.26,15.5l6.2,6.2a10.8,10.8,0,0,1-5.41,18.19h0a10.79,10.79,0,0,0-5.42,18.19h0a10.78,10.78,0,0,1-5.41,18.18l-8.58,1.81a10.78,10.78,0,0,0-8.26,13.12l.65,2.64" style="fill:none;stroke:#3a3632;stroke-linecap:round;stroke-miterlimit:10;stroke-width:10.2646784611587px"/><path d="M1533.09,1780.56l-2.68.47a10.8,10.8,0,0,0-8.68,12.86l1.81,8.57a10.79,10.79,0,0,1-14.46,12.29h0a10.79,10.79,0,0,0-14.46,12.28h0a10.8,10.8,0,0,1-14.47,12.29l-8.17-3.17a10.78,10.78,0,0,0-14.08,6.49l-.9,2.56" style="fill:none;stroke:#3a3632;stroke-linecap:round;stroke-miterlimit:10;stroke-width:10.2646784611587px"/><path d="M1471,1612.41l-1.13-2.47a10.8,10.8,0,0,1,5.66-14.44l8.09-3.38a10.78,10.78,0,0,0,1.92-18.87h0a10.79,10.79,0,0,1,1.92-18.88h0a10.79,10.79,0,0,0,1.91-18.88l-7.24-4.93a10.79,10.79,0,0,1-2.64-15.28l1.6-2.2" style="fill:none;stroke:#3a3632;stroke-linecap:round;stroke-miterlimit:10;stroke-width:10.2646784611587px"/><path d="M1626.48,1761.7l-2.68.44a10.79,10.79,0,0,0-8.81,12.76l1.71,8.6a10.79,10.79,0,0,1-14.59,12.13h0" style="fill:none;stroke:#3a3632;stroke-linecap:round;stroke-miterlimit:10;stroke-width:10.2646784611587px"/><path d="M1666.18,1471h0a10.79,10.79,0,0,0-2.25,18.84h0a10.79,10.79,0,0,1-2.24,18.84l-8.15,3.23a10.79,10.79,0,0,0-5.91,14.34l1.08,2.49" style="fill:none;stroke:#3a3632;stroke-linecap:round;stroke-miterlimit:10;stroke-width:10.2646784611587px"/><path d="M944.63,1608.25l2,1.86a10.78,10.78,0,0,1,.26,15.51l-6.19,6.2a10.78,10.78,0,0,0,5.41,18.18h0a10.79,10.79,0,0,1,5.41,18.19h0a10.8,10.8,0,0,0,5.42,18.19l8.57,1.8a10.8,10.8,0,0,1,8.27,13.13l-.65,2.64" style="fill:none;stroke:#3a3632;stroke-linecap:round;stroke-miterlimit:10;stroke-width:10.2646784611587px;isolation:isolate;opacity:0.991999983787537"/><path d="M1067.24,1612.41l2,1.86a10.77,10.77,0,0,1,.26,15.5l-6.19,6.2a10.79,10.79,0,0,0,5.41,18.19h0a10.79,10.79,0,0,1,5.41,18.19h0a10.79,10.79,0,0,0,5.42,18.18l8.57,1.81a10.79,10.79,0,0,1,8.27,13.12l-.65,2.64" style="fill:none;stroke:#3a3632;stroke-linecap:round;stroke-miterlimit:10;stroke-width:10.2646784611587px"/><path d="M1115.89,1780.56l2.68.47a10.8,10.8,0,0,1,8.68,12.86l-1.81,8.57a10.79,10.79,0,0,0,14.46,12.29h0a10.79,10.79,0,0,1,14.46,12.28h0a10.79,10.79,0,0,0,14.46,12.29l8.18-3.17a10.78,10.78,0,0,1,14.08,6.49l.9,2.56" style="fill:none;stroke:#3a3632;stroke-linecap:round;stroke-miterlimit:10;stroke-width:10.2646784611587px"/><path d="M1178,1612.41l1.12-2.47a10.78,10.78,0,0,0-5.66-14.44l-8.09-3.38a10.78,10.78,0,0,1-1.91-18.87h0a10.79,10.79,0,0,0-1.92-18.88h0a10.79,10.79,0,0,1-1.92-18.88l7.25-4.93a10.79,10.79,0,0,0,2.64-15.28l-1.6-2.2" style="fill:none;stroke:#3a3632;stroke-linecap:round;stroke-miterlimit:10;stroke-width:10.2646784611587px"/><path d="M1022.5,1761.7l2.68.44a10.79,10.79,0,0,1,8.81,12.76l-1.71,8.6a10.79,10.79,0,0,0,14.58,12.13h0" style="fill:none;stroke:#3a3632;stroke-linecap:round;stroke-miterlimit:10;stroke-width:10.2646784611587px"/><path d="M947.23,1474.67h0a10.79,10.79,0,0,1,2.24,18.84h0a10.79,10.79,0,0,0,2.25,18.84l8.14,3.23a10.79,10.79,0,0,1,5.91,14.34l-1.08,2.49" style="fill:none;stroke:#3a3632;stroke-linecap:round;stroke-miterlimit:10;stroke-width:10.2646784611587px"/></svg>