<svg xmlns="http://www.w3.org/2000/svg" viewBox="0 0 2000 1279.16"><g id="Isolation_Mode" data-name="Isolation Mode"><path d="M104.44,1221.43h1794c56.48,0,88.59-45.56,72.24-100.08l-93-309.81c-13-43.18-62.27-77.25-110.48-77.25H235.65c-48.22,0-97.53,34.07-110.49,77.25l-93,309.81C15.85,1175.87,48,1221.43,104.44,1221.43Z" style="fill:#fff;stroke:#33302d;stroke-miterlimit:10;stroke-width:12px"/><path d="M184.26,1065.55c26.52,0,53-20.54,59.06-45.53l35.81-147.8c5.41-22.34-10.19-40.19-34.76-40.19S195,849.88,188.92,872.22L148.63,1020C141.82,1045,157.73,1065.55,184.26,1065.55Z" style="fill:#fff;stroke:#33302d;stroke-miterlimit:10;stroke-width:12px"/><path id="path900" d="M551.72,662.46c68,19.41,126.75,57.13,206.62,61,51.78,2.49,127.42-5.32,208.28-26.65h0c120.83,130.79-60.22,222.49-224.29,188C611.44,857.18,457.86,769.32,551.72,662.46Z" style="fill:#fff2df;stroke:#33302d;stroke-linecap:round;stroke-linejoin:round;stroke-width:12px"/><path id="path900-2" data-name="path900" d="M551.72,662.46c68,19.41,126.75,57.13,206.62,61,51.78,2.49,127.42-5.32,208.28-26.65,24.37,124.8-101.46,188.16-221.69,175C597.73,855.74,457.05,764.38,551.72,662.46Z" style="fill:#fff2df;stroke:#33302d;stroke-linecap:round;stroke-linejoin:round;stroke-width:12px"/><path id="path900-3" data-name="path900" d="M387,690.17c68.47,30.05,124.68,78,207.84,93.42,53.91,10,134.31,12.63,222.11,1.82h0C924.86,939.76,722,1010,555,950.36c-133.26-47.57-281.66-161.6-168-260.19Z" style="fill:#fff2df;stroke:#33302d;stroke-linecap:round;stroke-linejoin:round;stroke-width:12px"/><path id="path900-4" data-name="path900" d="M387,690.17c68.47,30.05,124.68,78,207.84,93.42,53.91,10,134.31,12.63,222.11,1.82,7.7,134.28-133.23,182.72-257.36,151.78C407.56,899.32,273.18,783.47,387,690.17Z" style="fill:#fff2df;stroke:#33302d;stroke-linecap:round;stroke-linejoin:round;stroke-width:12px"/><path d="M1556.84,569.79s-254.73,164.13-506.1,283.65c-293,139.3-594,228.84-632.19,163.75C393.22,974,1404.49,335.07,1404.49,335.07Z" style="fill:#d0d2d3;stroke:#33302d;stroke-miterlimit:10;stroke-width:12px"/><path d="M1930.41,204.45,1538.17,376.91a41.43,41.43,0,0,0-24.65,40.82h0a41.42,41.42,0,0,1-22.19,39.64l-5.58,2.9L1403.08,332.9l36.41-23.63,14.43-9.37L1821.41,61.37c11.51-7.47,27.62-3.09,36,9.78l80.14,95.63C1946.27,180.25,1943,197.53,1930.41,204.45Z" style="fill:#33302d"/><path d="M1224.85,893.48l19.33,95.65s-81.72,43.14-116.88,35.5-57.7-30.33-57.7-30.33l5.11-96.74,103.34-22.71Z" style="fill:#fff2df;stroke:#33302d;stroke-linecap:round;stroke-linejoin:round;stroke-width:12px"/><polyline points="1139.12 980.99 1139.12 929.38 1188.46 916.48" style="fill:#fff2df;stroke:#33302d;stroke-linecap:round;stroke-linejoin:round;stroke-width:12px"/><line x1="1139.12" y1="929.38" x2="1097.84" y2="912.41" style="fill:#fff2df;stroke:#33302d;stroke-linecap:round;stroke-linejoin:round;stroke-width:12px"/><polygon points="948.01 899.29 953.95 1023.64 829.6 1035.52 780.51 1012.51 786.45 894.1 898.92 876.29 948.01 899.29" style="fill:#fff2df;stroke:#33302d;stroke-linecap:round;stroke-linejoin:round;stroke-width:12px"/><polyline points="845.55 983.39 854.29 939.52 892.75 929.46" style="fill:#fff2df;stroke:#33302d;stroke-linecap:round;stroke-linejoin:round;stroke-width:12px"/><line x1="854.29" y1="939.52" x2="822.11" y2="922.09" style="fill:#fff2df;stroke:#33302d;stroke-linecap:round;stroke-linejoin:round;stroke-width:12px"/><path d="M1079.36,961.92l23.23,114.95s-98.22,51.86-140.48,42.68-69.36-36.45-69.36-36.45l6.15-116.29,124.21-27.29Z" style="fill:#fff2df;stroke:#33302d;stroke-linecap:round;stroke-linejoin:round;stroke-width:12px"/><polyline points="976.32 1067.1 976.32 1005.06 1035.63 989.56" style="fill:#fff2df;stroke:#33302d;stroke-linecap:round;stroke-linejoin:round;stroke-width:12px"/><line x1="976.31" y1="1005.06" x2="926.7" y2="984.66" style="fill:#fff2df;stroke:#33302d;stroke-linecap:round;stroke-linejoin:round;stroke-width:12px"/><path d="M1361.45,951.52s-.66,69.65-76.65,85.88c-40.69,8.68-54.82-1.05-54.82-1.05l-16.19-71.43,62.33-26.3Z" style="fill:#fff2df;stroke:#33302d;stroke-linecap:round;stroke-linejoin:round;stroke-width:12px"/><line x1="1239.32" y1="972.81" x2="1334.82" y2="962.46" style="fill:#fff2df;stroke:#33302d;stroke-linecap:round;stroke-linejoin:round;stroke-width:12px"/><path d="M1336.52,1043.37s-21.78,95.87-131.45,95.5c-58.72-.2-75.3-17.87-75.3-17.87l-1-103.37,93.85-17.62Z" style="fill:#fff2df;stroke:#33302d;stroke-linecap:round;stroke-linejoin:round;stroke-width:12px"/><line x1="1161.69" y1="1036.15" x2="1296.51" y2="1050.48" style="fill:#fff2df;stroke:#33302d;stroke-linecap:round;stroke-linejoin:round;stroke-width:12px"/></g></svg>