<svg xmlns="http://www.w3.org/2000/svg" viewBox="0 0 2000 1576.02"><g id="Layer_2" data-name="Layer 2"><g id="layer1"><g id="g1056"><path id="path1050" d="M343.46,1183.86c44.65-57.48,127.3-62.72,198.91-75.68,165.81-30,195.06-258.62,336.11-350.83,115.71-75.65,526.92,52.49,609.44-58.43,45.85-61.65-95.87-211-113.2-285.84-12.11-52.29-47.84-95.83-86.27-133.29C1196.52,190.21,1082.24,124,959.22,87.63,903.06,71,843,57.49,785.82,47.2,739,38.78,678.16,25,631.85,42.39,590.7,57.87,549.62,102.58,523.56,135c-50.49,62.87-97.84,128.29-144.47,194C328.15,400.93,284.21,478.5,241,555.68q-46.14,82.41-86.11,168.22C130.41,776.53,108.8,822.42,58.21,856" style="fill:#fff;stroke:#000;stroke-linecap:round;stroke-width:16px"/></g><path d="M760.25,547.92c-9.18-46.06-36.06-173.37-46.12-219.26C708.5,303,702.22,277.4,694.39,252.3c-8.53-27.32-31.55-45-53.61-62.64" style="fill:none;stroke:#000;stroke-linecap:round;stroke-linejoin:round;stroke-width:16px"/><path d="M701.27,272.09c18.14,35.11,248,22.72,294.18,32.4" style="fill:none;stroke:#000;stroke-linecap:round;stroke-width:16px"/><path d="M736,429.71c13.7,25.93,223.12,19,257.57,26.35" style="fill:none;stroke:#000;stroke-width:16px"/></g><path d="M688.82,240.38a252.12,252.12,0,0,1-10.59-82.84" style="fill:none;stroke:#000;stroke-linecap:round;stroke-linejoin:round;stroke-width:8.999828338623047px"/><path d="M603.71,470.47c-12.84-32.72-28.65-90.46-50.09-124" style="fill:none;stroke:#000;stroke-linecap:round;stroke-linejoin:round;stroke-width:8.999828338623047px"/><path id="path900" d="M905.31,466.1c-21.6,50.39,149.3,200.09,394.18,305.08s470,124.93,491.58,74.66" style="fill:#adadad;stroke:#000;stroke-linecap:round;stroke-linejoin:round;stroke-width:30.928015776255656px"/><path id="path900-2" data-name="path900" d="M1791.07,845.84l157.37-367.08h0c21.55-50.27-143.29-213.91-388.17-318.9S1084.3,48.62,1062.69,99h0L905.31,466.1" style="fill:#47bac9;stroke:#000;stroke-linecap:round;stroke-linejoin:round;stroke-width:24px"/><path id="path900-3" data-name="path900" d="M1791.07,845.84c21.55-50.27-153-191.2-397.91-296.18s-466.24-134-487.85-83.56l11.26-4.31c34.24,75.14,186.14,200.67,391.76,288.82,205.13,87.94,399.58,111.08,477.67,84.29" style="fill:#db8282;stroke:#000;stroke-linecap:round;stroke-linejoin:round;stroke-width:14.175340564117175px"/><path id="path900-4" data-name="path900" d="M916.79,439.32c21.61-50.4,243-21.43,487.85,83.56s419.46,245.91,397.91,296.18" style="fill:none;stroke:#000;stroke-linecap:round;stroke-linejoin:round;stroke-width:14.175340564117175px"/><path d="M1253.69,239.57c52.06,35.84,94.18,84,139,128.55s94.45,87.05,154.4,107.07c61.53,20.56,131.25,14.78,188.87-14.88-42.2-26.8-58.68-47.53-58.68-47.53s25.7,4.89,62.6,15.47c-48.62-69.75-126.14-118.84-208.48-140.87C1440.69,263.11,1341.51,272.75,1253.69,239.57Z" style="fill:#fff"/><path d="M1544.31,468s-30.64,32.66-66.56,34.56c2.68-35.07-46.18-97.89-46.18-97.89Z" style="fill:#fff"/><path d="M1427,394.76s-58.49,19.48-93,3.93c63.48-22.46,47.53-45.86,47.53-45.86Z" style="fill:#fff"/><path d="M1450.05,278.08s-20.24-55.65-52.28-71.35c21,61.23-5.88,64.25-5.88,64.25Z" style="fill:#fff"/><path d="M1631.33,337s6.86-13.92,6.33-29.31c-.81-23.62-12.6-41.36-26.68-61.36-2.23,38.16-31.1,42.15-36,65.36C1593.28,309.64,1631.33,337,1631.33,337Z" style="fill:#fff"/><path d="M1278.3,252.52c5.91-29.4,1.11-81-12.26-102.27,1.73,17.45-6.32,58.76-18.24,85.8s-45.21,61.8-72,75.09C1221.74,300.85,1251.36,279.18,1278.3,252.52Z" style="fill:#fff"/><path id="path900-5" data-name="path900" d="M905.31,466.1c21.61-50.4,243-21.43,487.85,83.56s419.46,245.91,397.91,296.18" style="fill:none;stroke:#000;stroke-linecap:round;stroke-linejoin:round;stroke-width:24px"/><path d="M1182.14,613.26c-24.64-.52-64.68-15.44-91.23-34.54s-48.36-39.49-40.93-59.3,50.91-20.62,92.46-5.95c26.44,9.33,81,41.64,73.76,64.39-5.6,17.62-44.26,10.83-70.16,1.36s-51.35-27.05-47.89-38.79,43.22,1.22,69.13,16.42" style="fill:none;stroke:#000;stroke-linecap:round;stroke-linejoin:round;stroke-width:14.175340564117175px"/><path d="M1212.87,626.14c12.54,5.58,24.64,2.61,34.93-5s18.42-19.71,19.78-32.22c1.22-11.26-3-21.7-9.45-29.56s-15.15-14.27-24.82-16.57" style="fill:none;stroke:#000;stroke-linecap:round;stroke-linejoin:round;stroke-width:14.175340564117175px"/><path d="M1258.63,642c14.85-.21,30.13-9,38.86-22,15.92-23.79,6.86-50.63-12.6-64.3" style="fill:none;stroke:#000;stroke-linecap:round;stroke-linejoin:round;stroke-width:14.175340564117175px"/><path d="M1142,634.75c27.18,18.1,58.53,34.52,90.12,41.76,23.92,5.49,49.57,4.23,66.4-8.11,10.25-7.52,16.72-18.65,27.88-25.17a38.19,38.19,0,0,1,5.14-2.5c16.8-6.69,39.3-2,57.11,7.45,16.23,8.61,29.57,23.88,26.87,39.76-4.09,24.07-39,22.33-60,8.6-21.69-14.16-12.69-42,13-34,20.45,6.36,21.67,25.18-.12,17.75" style="fill:none;stroke:#000;stroke-linecap:round;stroke-linejoin:round;stroke-width:14.175340564117175px"/><path d="M1313.38,694.92c28.41,27.22,72.06,44.62,111.78,35.45,17-3.93,36.1-15.44,40.56-33.68,6.18-25.31-15.29-48.53-36.43-62.66-11.57-7.72-25.59-18.79-60.53-23.28" style="fill:none;stroke:#000;stroke-linecap:round;stroke-linejoin:round;stroke-width:14.175340564117175px"/><path d="M1023,545.68c-38.87-30-43.26-69.26,22.06-62.67" style="fill:none;stroke:#000;stroke-linecap:round;stroke-linejoin:round;stroke-width:14.175340564117175px"/><path d="M1594.77,818.81a244.8,244.8,0,0,1-97.12-89.46" style="fill:none;stroke:#000;stroke-linecap:round;stroke-linejoin:round;stroke-width:14.175340564117175px"/><path d="M1509.28,790.4a193.44,193.44,0,0,1-40.88-59.55" style="fill:none;stroke:#000;stroke-linecap:round;stroke-linejoin:round;stroke-width:14.175340564117175px"/><path id="path900-6" data-name="path900" d="M913.72,473.13c22.72-43.56,233.73,5.25,464.25,125.47S1770.21,864.52,1747.54,908s-237.66,2.46-468.18-117.76S891,516.7,913.72,473.13Z" style="fill:#6d6e70;stroke:#000;stroke-linecap:round;stroke-linejoin:round;stroke-width:24px"/><path d="M1427.68,1480.51c21.38,0,61.84-19,61.84-64s-42.74-73.09-61.84-145c-19.1,71.89-61.84,99.94-61.84,145S1406.3,1480.51,1427.68,1480.51Z" style="fill:#bfe4ed;stroke:#000;stroke-miterlimit:10;stroke-width:17.948693402093404px"/><path d="M1693.52,1538c21.38,0,61.84-19,61.84-64s-42.75-73.08-61.84-145c-19.1,71.89-61.85,99.94-61.85,145S1672.13,1538,1693.52,1538Z" style="fill:#bfe4ed;stroke:#000;stroke-miterlimit:10;stroke-width:17.948693402093404px"/><path d="M1803.29,1139.61c21.38,0,61.85-19,61.85-64s-42.75-73.09-61.85-145c-19.09,71.89-61.84,99.94-61.84,145S1781.91,1139.61,1803.29,1139.61Z" style="fill:#bfe4ed;stroke:#000;stroke-miterlimit:10;stroke-width:17.948693402093404px"/><path d="M1340.9,1111.92c21.38,0,61.85-19,61.85-64s-42.75-73.09-61.85-145c-19.09,71.89-61.84,99.94-61.84,145S1319.52,1111.92,1340.9,1111.92Z" style="fill:#bfe4ed;stroke:#000;stroke-miterlimit:10;stroke-width:17.948693402093404px"/><path d="M1575.36,1198.5c21.38,0,61.84-19,61.84-64s-42.75-73.08-61.84-145c-19.1,71.89-61.85,99.94-61.85,145S1554,1198.5,1575.36,1198.5Z" style="fill:#bfe4ed;stroke:#000;stroke-miterlimit:10;stroke-width:17.948693402093404px"/><g id="layer4"><path id="path896" d="M421.5,1059.49c57.17-6.62,114.06-26.34,154.36-53s75.84-60.11,116.68-85.93C744.08,888,814.18,869.7,871.93,852.59c116.32-34.45,216.1-73,329.69-115.3,83.47-31.11,93.75-57.15,91.16-81.13-6.26-58-78.65-70.29-126.52-68.43-59.64,2.31-111.62,2-171.13.69-43.6-1-212.94-8.66-336.64-27-45.72-6.79-91.54-24.15-116.09-52.63" style="fill:#fff;stroke:#000;stroke-linecap:round;stroke-linejoin:round;stroke-width:16px"/><path d="M1214.37,707.12c45.18-8.76,77.32-39,71.78-67.55s-46.65-44.59-91.83-35.83-52.79,34.25-47.26,62.8S1169.18,715.89,1214.37,707.12Z" style="fill:#fff;stroke:#000;stroke-linecap:round;stroke-linejoin:round;stroke-width:8.999828338623047px"/><path d="M1039.27,663.7,1049,725" style="fill:none;stroke:#000;stroke-linecap:round;stroke-linejoin:round;stroke-width:8.999828338623047px"/></g></g></svg>