<svg id="Layer_1" data-name="Layer 1" xmlns="http://www.w3.org/2000/svg" xmlns:xlink="http://www.w3.org/1999/xlink" viewBox="0 0 2000 1596.97"><defs><linearGradient id="linear-gradient" x1="14586.46" y1="-14319.67" x2="14586.46" y2="-14478.53" gradientTransform="translate(-15696.01 -11252.23) rotate(80.31)" gradientUnits="userSpaceOnUse"><stop offset="0.22" stop-color="#3e914e"/><stop offset="0.36" stop-color="#2c8548"/><stop offset="0.58" stop-color="#177740"/><stop offset="0.8" stop-color="#0a6f3c"/><stop offset="1" stop-color="#066c3a"/></linearGradient><linearGradient id="linear-gradient-2" x1="163.78" y1="1169.36" x2="163.78" y2="1112.19" gradientTransform="translate(858.48 -567.84) scale(1 1.1)" gradientUnits="userSpaceOnUse"><stop offset="0" stop-color="#81be66"/><stop offset="1" stop-color="#006838"/></linearGradient><linearGradient id="linear-gradient-3" x1="13953.99" y1="-14416.46" x2="13961.28" y2="-14474.72" gradientTransform="translate(-13703.28 -13043.14) rotate(89.12)" gradientUnits="userSpaceOnUse"><stop offset="0" stop-color="#608c50"/><stop offset="1" stop-color="#006838"/></linearGradient><linearGradient id="linear-gradient-4" x1="14493.1" y1="-13843.33" x2="14493.1" y2="-14002.19" xlink:href="#linear-gradient"/><linearGradient id="linear-gradient-5" x1="-321.33" y1="1154.08" x2="-321.33" y2="1096.9" gradientTransform="translate(858.33 -562.84) scale(1 1.1)" xlink:href="#linear-gradient-2"/><linearGradient id="linear-gradient-6" x1="13934.67" y1="-13931.44" x2="13941.95" y2="-13989.7" xlink:href="#linear-gradient-3"/><linearGradient id="linear-gradient-7" x1="14741.87" y1="-13254.93" x2="14741.87" y2="-13413.79" gradientTransform="matrix(0.55, 0.83, -0.83, 0.55, -18842.88, -4280.81)" xlink:href="#linear-gradient"/><linearGradient id="linear-gradient-8" x1="-862.98" y1="1461.24" x2="-862.98" y2="1404.07" gradientTransform="translate(1332.65 -959.07) scale(1 1.1)" xlink:href="#linear-gradient-2"/><linearGradient id="linear-gradient-9" x1="14270.62" y1="-13388.07" x2="14277.9" y2="-13446.33" gradientTransform="translate(-17741.78 -6723.34) rotate(65.33)" xlink:href="#linear-gradient-3"/><linearGradient id="linear-gradient-10" x1="13617.94" y1="-14010.57" x2="13617.94" y2="-14169.44" gradientTransform="matrix(-0.1, 1, -1, -0.1, -12154.69, -14275.08)" xlink:href="#linear-gradient"/><linearGradient id="linear-gradient-11" x1="-294.6" y1="346.41" x2="-294.6" y2="289.23" gradientTransform="matrix(0, 1, -1.1, 0, 966.86, 947.95)" xlink:href="#linear-gradient-2"/><linearGradient id="linear-gradient-12" x1="13044.23" y1="-13962.69" x2="13051.51" y2="-14020.96" gradientTransform="translate(-9760.77 -15478.2) rotate(104.38)" xlink:href="#linear-gradient-3"/><linearGradient id="linear-gradient-13" x1="14863.21" y1="-13914.22" x2="14863.21" y2="-14171.39" gradientTransform="translate(-19579.65 -2558.01) rotate(52.41)" gradientUnits="userSpaceOnUse"><stop offset="0" stop-color="#0f723d"/><stop offset="1" stop-color="#006838"/></linearGradient><linearGradient id="linear-gradient-14" x1="14844.59" y1="-13933.03" x2="14845.54" y2="-14001.97" gradientTransform="translate(-19579.65 -2558.01) rotate(52.41)" gradientUnits="userSpaceOnUse"><stop offset="0" stop-color="#53804a"/><stop offset="1" stop-color="#006838"/></linearGradient><linearGradient id="linear-gradient-15" x1="14882.08" y1="-13932.52" x2="14883.03" y2="-14001.45" xlink:href="#linear-gradient-14"/><linearGradient id="linear-gradient-16" x1="13301.63" y1="-13763.55" x2="13301.63" y2="-13932.84" gradientTransform="translate(-13086.52 -13064.45) rotate(91.57)" xlink:href="#linear-gradient"/><linearGradient id="linear-gradient-17" x1="13320.71" y1="-13813.92" x2="13328.26" y2="-13874.35" gradientTransform="translate(-13086.52 -13064.45) rotate(91.57)" xlink:href="#linear-gradient-3"/><linearGradient id="linear-gradient-18" x1="-578.82" y1="99.03" x2="-578.82" y2="38.1" gradientTransform="matrix(0, 1, -1.1, 0, 542.56, 1192.32)" xlink:href="#linear-gradient-2"/><linearGradient id="linear-gradient-19" x1="14423.35" y1="-14224.74" x2="14423.35" y2="-14383.61" gradientTransform="translate(-14991.19 -12045.99) rotate(83.72)" xlink:href="#linear-gradient"/><linearGradient id="linear-gradient-20" x1="44.26" y1="1036.92" x2="44.26" y2="979.74" gradientTransform="matrix(0, 1, -1.1, 0, 1987.51, 672.92)" xlink:href="#linear-gradient-2"/><linearGradient id="linear-gradient-21" x1="13807.34" y1="-14297.67" x2="13814.62" y2="-14355.94" gradientTransform="translate(-12895.54 -13715.29) rotate(92.53)" xlink:href="#linear-gradient-3"/><linearGradient id="linear-gradient-22" x1="14403.74" y1="-13449.77" x2="14403.74" y2="-13608.64" gradientTransform="matrix(-0.34, 0.94, -0.94, -0.34, -7519.26, -17472.67)" xlink:href="#linear-gradient"/><linearGradient id="linear-gradient-23" x1="-724.06" y1="1130.51" x2="-724.06" y2="1073.33" gradientTransform="matrix(0, 1, -1.1, 0, 1587.55, 1420.85)" xlink:href="#linear-gradient-2"/><linearGradient id="linear-gradient-24" x1="13906.63" y1="-13528.84" x2="13913.92" y2="-13587.1" gradientTransform="translate(-4902.29 -18046.96) rotate(118.69)" xlink:href="#linear-gradient-3"/><linearGradient id="linear-gradient-25" x1="14289.11" y1="-14197.04" x2="14289.11" y2="-14355.9" gradientTransform="translate(-14991.19 -12045.99) rotate(83.72)" xlink:href="#linear-gradient"/><linearGradient id="linear-gradient-26" x1="-4.33" y1="920.68" x2="-4.33" y2="863.51" gradientTransform="matrix(0, 1, -1.1, 0, 1817.12, 591.11)" xlink:href="#linear-gradient-2"/><linearGradient id="linear-gradient-27" x1="13678.93" y1="-14249.74" x2="13686.21" y2="-14308" gradientTransform="translate(-12895.54 -13715.29) rotate(92.53)" xlink:href="#linear-gradient-3"/><linearGradient id="linear-gradient-28" x1="14363.32" y1="-13942.64" x2="14363.32" y2="-14101.5" gradientTransform="translate(-14991.19 -12045.99) rotate(83.72)" xlink:href="#linear-gradient"/><linearGradient id="linear-gradient-29" x1="-243.79" y1="1023.62" x2="-243.79" y2="966.45" gradientTransform="matrix(0, 1, -1.1, 0, 1685.87, 932.17)" xlink:href="#linear-gradient-2"/><linearGradient id="linear-gradient-30" x1="13791.22" y1="-14009.7" x2="13798.5" y2="-14067.97" gradientTransform="translate(-12895.54 -13715.29) rotate(92.53)" xlink:href="#linear-gradient-3"/><linearGradient id="linear-gradient-31" x1="15096.91" y1="-14363.79" x2="15096.91" y2="-14620.96" gradientTransform="translate(-19896 1602.15) rotate(41.15)" xlink:href="#linear-gradient-13"/><linearGradient id="linear-gradient-32" x1="15078.28" y1="-14382.6" x2="15079.23" y2="-14451.54" gradientTransform="translate(-19896 1602.15) rotate(41.15)" xlink:href="#linear-gradient-14"/><linearGradient id="linear-gradient-33" x1="15115.77" y1="-14382.09" x2="15116.72" y2="-14451.02" gradientTransform="translate(-19896 1602.15) rotate(41.15)" xlink:href="#linear-gradient-14"/><linearGradient id="linear-gradient-34" x1="15635.52" y1="-13927.9" x2="15635.52" y2="-14185.06" gradientTransform="translate(1105.08 21645.23) rotate(-49.44)" xlink:href="#linear-gradient-13"/><linearGradient id="linear-gradient-35" x1="15616.89" y1="-13946.71" x2="15617.84" y2="-14015.64" gradientTransform="translate(1105.08 21645.23) rotate(-49.44)" xlink:href="#linear-gradient-14"/><linearGradient id="linear-gradient-36" x1="15654.39" y1="-13946.19" x2="15655.33" y2="-14015.13" gradientTransform="translate(1105.08 21645.23) rotate(-49.44)" xlink:href="#linear-gradient-14"/><linearGradient id="linear-gradient-37" x1="12494.07" y1="-14260.64" x2="12494.07" y2="-14429.94" gradientTransform="translate(-9157.16 -15504.03) rotate(107.06)" xlink:href="#linear-gradient"/><linearGradient id="linear-gradient-38" x1="12513.14" y1="-14311.01" x2="12520.7" y2="-14371.45" gradientTransform="translate(-9157.16 -15504.03) rotate(107.06)" xlink:href="#linear-gradient-3"/><linearGradient id="linear-gradient-39" x1="-215.7" y1="-695.42" x2="-215.7" y2="-756.35" gradientTransform="matrix(0, 1, -1.1, 0, 162.53, 886.49)" xlink:href="#linear-gradient-2"/><linearGradient id="linear-gradient-40" x1="12530" y1="-14138.15" x2="12530" y2="-14307.45" gradientTransform="translate(-9157.16 -15504.03) rotate(107.06)" xlink:href="#linear-gradient"/><linearGradient id="linear-gradient-41" x1="12549.08" y1="-14188.52" x2="12556.63" y2="-14248.95" gradientTransform="translate(-9157.16 -15504.03) rotate(107.06)" xlink:href="#linear-gradient-3"/><linearGradient id="linear-gradient-42" x1="-330.96" y1="-645.67" x2="-330.96" y2="-706.6" gradientTransform="matrix(0, 1, -1.1, 0, 89.75, 1000.17)" xlink:href="#linear-gradient-2"/><linearGradient id="linear-gradient-43" x1="13758.68" y1="-14042.99" x2="13758.68" y2="-14212.29" gradientTransform="translate(-14652.97 -11730.1) rotate(84.86)" xlink:href="#linear-gradient"/><linearGradient id="linear-gradient-44" x1="13777.76" y1="-14093.36" x2="13785.31" y2="-14153.79" gradientTransform="translate(-14652.97 -11730.1) rotate(84.86)" xlink:href="#linear-gradient-3"/><linearGradient id="linear-gradient-45" x1="-230.61" y1="468.23" x2="-230.61" y2="407.29" gradientTransform="matrix(0, 1, -1.1, 0, 1208.24, 930.81)" xlink:href="#linear-gradient-2"/><linearGradient id="linear-gradient-46" x1="14569.84" y1="-14386.69" x2="14569.84" y2="-14545.56" gradientTransform="translate(-19809.31 523.58) rotate(45.26)" xlink:href="#linear-gradient"/><linearGradient id="linear-gradient-47" x1="227.34" y1="1144.87" x2="227.34" y2="1087.69" gradientTransform="translate(544.12 -592.14) scale(1 1.1)" xlink:href="#linear-gradient-2"/><linearGradient id="linear-gradient-48" x1="13927.31" y1="-14480.15" x2="13934.59" y2="-14538.41" gradientTransform="translate(-19206.62 -2086.99) rotate(54.06)" xlink:href="#linear-gradient-3"/><linearGradient id="linear-gradient-49" x1="14237.94" y1="-14482.28" x2="14237.94" y2="-14739.45" gradientTransform="translate(-16812.97 -9119.53) rotate(74.44)" xlink:href="#linear-gradient-13"/><linearGradient id="linear-gradient-50" x1="14219.32" y1="-14501.09" x2="14220.27" y2="-14570.02" gradientTransform="translate(-16812.97 -9119.53) rotate(74.44)" xlink:href="#linear-gradient-14"/><linearGradient id="linear-gradient-51" x1="14256.81" y1="-14500.58" x2="14257.76" y2="-14569.51" gradientTransform="translate(-16812.97 -9119.53) rotate(74.44)" xlink:href="#linear-gradient-14"/><linearGradient id="linear-gradient-52" x1="14856.84" y1="-13923.2" x2="14856.84" y2="-14180.37" gradientTransform="translate(-17249.97 -8947.68) rotate(71.53)" xlink:href="#linear-gradient-13"/><linearGradient id="linear-gradient-53" x1="14838.21" y1="-13942.02" x2="14839.16" y2="-14010.95" gradientTransform="translate(-17249.97 -8947.68) rotate(71.53)" xlink:href="#linear-gradient-14"/><linearGradient id="linear-gradient-54" x1="14875.7" y1="-13941.5" x2="14876.65" y2="-14010.44" gradientTransform="translate(-17249.97 -8947.68) rotate(71.53)" xlink:href="#linear-gradient-14"/></defs><path d="M1353.47,471.92h534.68A61.85,61.85,0,0,1,1950,533.77h0a61.85,61.85,0,0,1-61.85,61.85H1353.47" style="fill:#fff;stroke:#231f20;stroke-miterlimit:10;stroke-width:24px"/><path d="M712.65,1073.9C407.86,1073.9,50,911.73,50,543.34c0-142,296.68-257,662.65-257s662.65,115.08,662.65,257C1375.31,911.73,1017.44,1073.9,712.65,1073.9Z" style="fill:#fff;stroke:#231f20;stroke-miterlimit:10;stroke-width:24px"/><ellipse cx="712.65" cy="843.44" rx="18.16" ry="18.09" style="fill:#929497"/><ellipse cx="712.65" cy="915.48" rx="18.16" ry="18.09" style="fill:#929497"/><ellipse cx="712.65" cy="987.53" rx="18.16" ry="18.09" style="fill:#929497"/><path d="M817.35,968.07c8.41,6,10.89,18.61,5.1,27.86s-17.24,11.26-25.22,4.65a21.75,21.75,0,0,1-4.7-27.54A17.06,17.06,0,0,1,817.35,968.07Z" style="fill:#929497"/><path d="M852.92,900.17c8.88,5.06,12.44,17.34,7.53,27.14s-16,13.1-24.66,7.43-11.72-17.63-7.15-26.91S844,895.06,852.92,900.17Z" style="fill:#929497"/><path d="M881.47,828.33c9.57,3.63,14.42,15.4,10.59,26s-14.64,15.23-23.78,10.6-13.48-16.12-9.89-25.72A17.75,17.75,0,0,1,881.47,828.33Z" style="fill:#929497"/><path d="M938.56,955.79c7.11,7,7.72,18.12.91,24.53s-17.8,5.38-24.43-2.27-6.78-18.34-.52-24.12S931.36,948.72,938.56,955.79Z" style="fill:#929497"/><path d="M981.29,907.51c7.93,6.21,9.55,17,3.68,24.18s-17.06,7.26-24.5.62-8.84-17.25-3.36-23.91S973.44,901.36,981.29,907.51Z" style="fill:#929497"/><path d="M1018.3,854.72c8.58,5.19,11.68,15.95,6.44,23.65-5,7.84-16.09,9.21-24.27,3.38s-10.67-16.18-6-23.38C999.27,851.27,1009.72,849.53,1018.3,854.72Z" style="fill:#929497"/><path d="M1047.34,797.22c9.42,3.42,14.09,13.46,10.38,22.4-4.11,8.61-14.73,11.78-23.61,7.15s-13.14-14.49-9.53-22C1027.7,797.17,1037.91,793.8,1047.34,797.22Z" style="fill:#929497"/><path d="M1096.38,908.88c6.58,7.56,5.89,18.76-1.58,25-7.57,6-18.65,4.44-24.77-3.53s-5.27-19,1.86-24.64C1078.84,899.89,1089.79,901.31,1096.38,908.88Z" style="fill:#929497"/><path d="M1144.36,861.21c7.62,6.45,8.62,17.83,1.91,25.07a17.34,17.34,0,0,1-25.1-.23c-6.92-7.12-7.61-18.2-1.4-24.6C1125.82,854.93,1136.67,854.7,1144.36,861.21Z" style="fill:#929497"/><path d="M1183.58,806.17c8.72,5,11.91,16.07,6.37,24.34-5.25,8.46-16.71,10.09-24.8,4.2s-10.33-16.4-5.7-23.91C1164.38,803.48,1174.87,801.22,1183.58,806.17Z" style="fill:#929497"/><path d="M1211.69,744.72c9.4,3.19,14.73,13.51,11,22.7a17.28,17.28,0,0,1-23.47,8.89c-9.08-4.26-13.67-14.3-10.23-22.42S1202.1,741.46,1211.69,744.72Z" style="fill:#929497"/><path d="M606.44,968.07a17,17,0,0,1,24.81,5,21.73,21.73,0,0,1-4.7,27.54c-8,6.61-19.57,4.69-25.22-4.65S598,974.09,606.44,968.07Z" style="fill:#929497"/><path d="M570.87,900.17c9-5.11,19.64-1.57,24.27,7.66s1.47,21.27-7.15,26.91-19.81,2.41-24.65-7.43S562,905.23,570.87,900.17Z" style="fill:#929497"/><path d="M542.31,828.33a17.74,17.74,0,0,1,23.08,10.91c3.59,9.6-.77,21.11-9.88,25.72s-19.85-.06-23.78-10.6S532.74,832,542.31,828.33Z" style="fill:#929497"/><path d="M485.23,955.79c7.19-7.07,17.81-7.7,24-1.86s6,16.61-.52,24.12-17.54,8.63-24.42,2.27S478.11,962.77,485.23,955.79Z" style="fill:#929497"/><path d="M442.5,907.51c7.85-6.15,18.72-5.79,24.18.89s4.16,17.2-3.37,23.91-18.61,6.53-24.5-.62S434.56,913.72,442.5,907.51Z" style="fill:#929497"/><path d="M405.48,854.72c8.59-5.19,19-3.45,23.86,3.65,4.64,7.2,2.13,17.57-6,23.38s-19.21,4.46-24.27-3.38C393.81,870.67,396.9,859.91,405.48,854.72Z" style="fill:#929497"/><path d="M376.44,797.22c9.43-3.42,19.64-.05,22.76,7.54,3.61,7.52-.63,17.37-9.53,22s-19.49,1.46-23.6-7.15C362.35,810.68,367,800.64,376.44,797.22Z" style="fill:#929497"/><path d="M327.4,908.88c6.59-7.57,17.55-9,24.49-3.18,7.14,5.65,7.95,16.7,1.86,24.64s-17.19,9.54-24.77,3.53C321.52,927.64,320.82,916.44,327.4,908.88Z" style="fill:#929497"/><path d="M279.42,861.21c7.69-6.51,18.55-6.28,24.6.24,6.21,6.4,5.51,17.48-1.4,24.6a17.34,17.34,0,0,1-25.1.23C270.8,879,271.81,867.66,279.42,861.21Z" style="fill:#929497"/><path d="M240.2,806.17c8.72-4.95,19.2-2.69,24.13,4.63,4.63,7.51,2.42,18-5.7,23.91s-19.54,4.26-24.8-4.2C228.29,822.24,231.48,811.13,240.2,806.17Z" style="fill:#929497"/><path d="M212.09,744.72c9.59-3.26,19.38,1,22.75,9.17s-1.14,18.16-10.22,22.42a17.28,17.28,0,0,1-23.47-8.89C197.36,758.23,202.7,747.91,212.09,744.72Z" style="fill:#929497"/><path d="M712.65,375.83A11.79,11.79,0,1,1,724.75,364,12,12,0,0,1,712.65,375.83Z" style="fill:#929497"/><path d="M712.65,422.76A11.79,11.79,0,1,1,724.75,411,11.95,11.95,0,0,1,712.65,422.76Z" style="fill:#929497"/><path d="M712.65,469.69a11.78,11.78,0,1,1,12.1-11.78A11.95,11.95,0,0,1,712.65,469.69Z" style="fill:#929497"/><path d="M712.65,516.62a11.78,11.78,0,1,1,12.1-11.78A11.94,11.94,0,0,1,712.65,516.62Z" style="fill:#929497"/><path d="M712.65,563.55a11.78,11.78,0,1,1,12.1-11.78A11.94,11.94,0,0,1,712.65,563.55Z" style="fill:#929497"/><path d="M712.65,610.48a11.78,11.78,0,1,1,12.1-11.78A11.94,11.94,0,0,1,712.65,610.48Z" style="fill:#929497"/><path d="M712.65,657.42a11.79,11.79,0,1,1,12.1-11.79A12,12,0,0,1,712.65,657.42Z" style="fill:#929497"/><path d="M712.65,704.35a11.79,11.79,0,1,1,12.1-11.78A11.95,11.95,0,0,1,712.65,704.35Z" style="fill:#929497"/><path d="M799.55,684.73c6.24,2.55,8.91,9.86,6.06,16.36-3.11,6.48-10.5,9.17-16.46,6a12.32,12.32,0,0,1,10.4-22.32Z" style="fill:#929497"/><path d="M816.35,638.65A12.32,12.32,0,1,1,801,646.41,12.19,12.19,0,0,1,816.35,638.65Z" style="fill:#929497"/><path d="M830.58,591.7a12.32,12.32,0,1,1-15,8.45A12.17,12.17,0,0,1,830.58,591.7Z" style="fill:#929497"/><path d="M843.3,544.32a12.32,12.32,0,1,1-14.8,8.86A12.19,12.19,0,0,1,843.3,544.32Z" style="fill:#929497"/><path d="M855,496.68a12.32,12.32,0,1,1-14.63,9.14A12.18,12.18,0,0,1,855,496.68Z" style="fill:#929497"/><path d="M866,448.86a12.32,12.32,0,1,1-14.5,9.36A12.18,12.18,0,0,1,866,448.86Z" style="fill:#929497"/><path d="M876.3,400.9a12.32,12.32,0,1,1-14.38,9.54A12.2,12.2,0,0,1,876.3,400.9Z" style="fill:#929497"/><path d="M886.11,352.83a12.32,12.32,0,1,1-14.28,9.69A12.2,12.2,0,0,1,886.11,352.83Z" style="fill:#929497"/><path d="M922.07,681.3a11.67,11.67,0,1,1-14.66,18.11c-4.85-4.54-5.6-11.73-1.86-16.44S916.6,677.37,922.07,681.3Z" style="fill:#929497"/><path d="M947,642.16a11.67,11.67,0,1,1-12,20c-5.59-3.58-7.52-10.8-4.28-16.15A12,12,0,0,1,947,642.16Z" style="fill:#929497"/><path d="M968.68,601.12a11.67,11.67,0,1,1-10.59,20.77,12,12,0,0,1-5.43-15.83C955.5,600.4,962.69,598.2,968.68,601.12Z" style="fill:#929497"/><path d="M988.23,559a11.66,11.66,0,1,1-9.61,21.23A11.66,11.66,0,1,1,988.23,559Z" style="fill:#929497"/><path d="M1006.18,516.2a11.67,11.67,0,1,1-8.83,21.58,11.67,11.67,0,1,1,8.83-21.58Z" style="fill:#929497"/><path d="M1022.72,472.82a11.66,11.66,0,1,1-8.12,21.85c-6.23-2.38-9.49-9.16-7.25-15.13A11.94,11.94,0,0,1,1022.72,472.82Z" style="fill:#929497"/><path d="M1037.8,428.92a11.66,11.66,0,1,1-15.12,7.24C1024.67,430.12,1031.45,426.88,1037.8,428.92Z" style="fill:#929497"/><path d="M1050.88,384.38a11.67,11.67,0,1,1-6.24,22.46c-6.42-1.92-10.14-8.39-8.44-14.46S1044.42,382.74,1050.88,384.38Z" style="fill:#929497"/><path d="M1080.64,639.06a11.72,11.72,0,1,1-16.61-2.27C1069,632.85,1076.43,633.86,1080.64,639.06Z" style="fill:#929497"/><path d="M1115.77,608.34a11.73,11.73,0,1,1-17.29,15.81c-4.37-5.06-4.11-12.56.6-16.74A12,12,0,0,1,1115.77,608.34Z" style="fill:#929497"/><path d="M1147.77,574.38a11.73,11.73,0,1,1-15.6,17.49,12.2,12.2,0,0,1-1.16-16.71C1135.16,570.49,1142.69,570.17,1147.77,574.38Z" style="fill:#929497"/><path d="M1175.36,536.76a11.73,11.73,0,1,1-13.27,19.31c-5.36-4-6.75-11.32-3.1-16.36C1162.45,534.55,1169.69,533.18,1175.36,536.76Z" style="fill:#929497"/><path d="M1197.94,496a11.74,11.74,0,0,1,5.59,16c-2.87,6.1-10.46,8.12-16.26,4.87A12.22,12.22,0,0,1,1182,501C1184.71,495.4,1191.86,493.15,1197.94,496Z" style="fill:#929497"/><path d="M1215,452.51a11.72,11.72,0,1,1-7.82,22.09c-6.15-2.44-9.55-9.21-7.46-15.07S1208.67,450.54,1215,452.51Z" style="fill:#929497"/><path d="M624.24,684.73a12.32,12.32,0,0,1,10.39,22.32c-6,3.21-13.34.52-16.46-6C615.32,694.59,618,687.28,624.24,684.73Z" style="fill:#929497"/><path d="M607.43,638.65a12.32,12.32,0,1,1-7.55,15.61A12.26,12.26,0,0,1,607.43,638.65Z" style="fill:#929497"/><path d="M593.2,591.7a12.32,12.32,0,1,1-8.2,15.23A12.27,12.27,0,0,1,593.2,591.7Z" style="fill:#929497"/><path d="M580.48,544.32a12.32,12.32,0,1,1-8.61,15A12.26,12.26,0,0,1,580.48,544.32Z" style="fill:#929497"/><path d="M568.77,496.68a12.32,12.32,0,1,1-8.9,14.82A12.25,12.25,0,0,1,568.77,496.68Z" style="fill:#929497"/><path d="M557.82,448.86a12.32,12.32,0,1,1-9.12,14.68A12.24,12.24,0,0,1,557.82,448.86Z" style="fill:#929497"/><path d="M547.48,400.9a12.32,12.32,0,1,1-9.29,14.57A12.24,12.24,0,0,1,547.48,400.9Z" style="fill:#929497"/><path d="M537.67,352.83a12.32,12.32,0,1,1-9.45,14.47A12.23,12.23,0,0,1,537.67,352.83Z" style="fill:#929497"/><path d="M501.72,681.3c5.46-3.93,12.73-3,16.51,1.67s3,11.9-1.86,16.44a11.67,11.67,0,1,1-14.65-18.11Z" style="fill:#929497"/><path d="M476.79,642.16A12,12,0,0,1,493.05,646c3.24,5.35,1.31,12.57-4.28,16.15a11.67,11.67,0,1,1-12-20Z" style="fill:#929497"/><path d="M455.11,601.12c6-2.92,13.17-.72,16,4.94a12,12,0,0,1-5.43,15.83,11.67,11.67,0,1,1-10.58-20.77Z" style="fill:#929497"/><path d="M435.56,559a11.66,11.66,0,1,1,9.6,21.23,11.66,11.66,0,1,1-9.6-21.23Z" style="fill:#929497"/><path d="M417.61,516.2a11.66,11.66,0,1,1,8.82,21.58,11.67,11.67,0,1,1-8.82-21.58Z" style="fill:#929497"/><path d="M401.07,472.82a11.93,11.93,0,0,1,15.36,6.72c2.24,6-1,12.75-7.24,15.13a11.67,11.67,0,1,1-8.12-21.85Z" style="fill:#929497"/><path d="M386,428.92c6.35-2,13.13,1.2,15.12,7.24A12.11,12.11,0,1,1,386,428.92Z" style="fill:#929497"/><path d="M372.9,384.38c6.46-1.64,13,1.94,14.68,8s-2,12.54-8.44,14.46a11.67,11.67,0,1,1-6.24-22.46Z" style="fill:#929497"/><path d="M343.14,639.06c4.21-5.2,11.65-6.21,16.61-2.27a12.11,12.11,0,1,1-16.61,2.27Z" style="fill:#929497"/><path d="M308,608.34a12,12,0,0,1,16.7-.93c4.7,4.18,5,11.68.6,16.74A11.73,11.73,0,1,1,308,608.34Z" style="fill:#929497"/><path d="M276,574.38c5.09-4.21,12.62-3.89,16.76.78a12.2,12.2,0,0,1-1.16,16.71A11.73,11.73,0,1,1,276,574.38Z" style="fill:#929497"/><path d="M248.42,536.76c5.67-3.58,12.91-2.21,16.37,3,3.65,5,2.26,12.37-3.1,16.36a11.73,11.73,0,1,1-13.27-19.31Z" style="fill:#929497"/><path d="M225.85,496c6.07-2.8,13.23-.55,16,5a12.23,12.23,0,0,1-5.32,15.85c-5.8,3.25-13.39,1.23-16.26-4.87A11.74,11.74,0,0,1,225.85,496Z" style="fill:#929497"/><path d="M208.83,452.51c6.28-2,13.22,1.14,15.28,7s-1.31,12.63-7.46,15.07a11.72,11.72,0,1,1-7.82-22.09Z" style="fill:#929497"/><path d="M892.17,680.2l133.48-21.6-1.2,63.07L886.32,746.49C869.9,729,870.85,695.23,892.17,680.2Z" style="stroke:#231f20;stroke-linejoin:round;stroke-width:12px;fill:url(#linear-gradient)"/><ellipse cx="1022.27" cy="690.16" rx="12.62" ry="31.52" transform="translate(-7.06 10.57) rotate(-0.59)" style="stroke:#231f20;stroke-linejoin:round;stroke-width:12px;fill:url(#linear-gradient-2)"/><path d="M925.34,707.47c12.13.62,25.1.44,36.68-3.33,19-6.2,27-19.36,26.71-20.25.1-.94-10.88-11.75-30.83-13.14-12.15-.85-24.77,2.12-36.39,5.67" style="stroke:#231f20;stroke-linecap:round;stroke-linejoin:round;stroke-width:12px;fill:url(#linear-gradient-3)"/><path d="M406.91,668.35l133.48-21.6-1.2,63.06L401.06,734.63C384.64,717.11,385.59,683.37,406.91,668.35Z" style="stroke:#231f20;stroke-linejoin:round;stroke-width:12px;fill:url(#linear-gradient-4)"/><ellipse cx="537.01" cy="678.31" rx="12.62" ry="31.52" transform="translate(-6.96 5.57) rotate(-0.59)" style="stroke:#231f20;stroke-linejoin:round;stroke-width:12px;fill:url(#linear-gradient-5)"/><path d="M440.08,695.61c12.13.62,25.1.45,36.68-3.33,19-6.2,27-19.36,26.71-20.24.1-.94-10.88-11.76-30.83-13.15-12.15-.85-24.77,2.12-36.39,5.68" style="stroke:#231f20;stroke-linecap:round;stroke-linejoin:round;stroke-width:12px;fill:url(#linear-gradient-6)"/><path d="M346.61,664.15,460,590.54l24.34,58.19L368,727.16C345.9,717.75,333.16,686.5,346.61,664.15Z" style="stroke:#231f20;stroke-linejoin:round;stroke-width:12px;fill:url(#linear-gradient-7)"/><ellipse cx="469.67" cy="620.79" rx="12.62" ry="31.52" transform="translate(-214.36 249.2) rotate(-24.38)" style="stroke:#231f20;stroke-linejoin:round;stroke-width:12px;fill:url(#linear-gradient-8)"/><path d="M388,675.72c11.35-4.33,23.14-9.72,32.21-17.84,14.91-13.35,16.94-28.62,16.29-29.3-.29-.91-14.7-6.37-33.52.4-11.46,4.12-21.81,11.94-31,19.88" style="stroke:#231f20;stroke-linecap:round;stroke-linejoin:round;stroke-width:12px;fill:url(#linear-gradient-9)"/><path d="M493.42,609.5l134.45,14.3-17.75,60.52-139.8-12.41C459.1,650.68,468.89,618.38,493.42,609.5Z" style="stroke:#231f20;stroke-linejoin:round;stroke-width:12px;fill:url(#linear-gradient-10)"/><ellipse cx="616.3" cy="653.36" rx="31.52" ry="12.62" transform="translate(-171.86 1084.06) rotate(-75.33)" style="stroke:#231f20;stroke-linejoin:round;stroke-width:12px;fill:url(#linear-gradient-11)"/><path d="M518.24,644.53c11.54,3.8,24.1,7,36.26,6.45,20-1,31.19-11.56,31.1-12.5.35-.88-7.4-14.2-26.28-20.8-11.5-4-24.45-4.47-36.6-4.1" style="stroke:#231f20;stroke-linecap:round;stroke-linejoin:round;stroke-width:12px;fill:url(#linear-gradient-12)"/><path d="M507,694.9l96.56-73,112.32-46.19h0l-73.39,96.76L537.35,754.89C513.67,744.58,501.76,718.14,507,694.9Z" style="stroke:#231f20;stroke-linejoin:round;stroke-width:12px;fill:url(#linear-gradient-13)"/><path d="M688.08,617.78c11.32-6.21,23-13.54,31.77-23,14.38-15.62,15.52-30.87,14.8-31.42-.35-.83-15.38-3.63-34.16,6.27-11.43,6-21.51,15.46-30.4,24.82" style="fill:#006838;stroke:#231f20;stroke-linecap:round;stroke-linejoin:round;stroke-width:12px"/><path d="M649.87,630.33c10.92-7.23,22.12-15.63,30.21-26,13.28-17,13.28-32.34,12.53-32.83-.41-.8-15.74-2.26-33.88,9.35-11,7.07-20.46,17.42-28.7,27.6" style="fill:#006838;stroke:#231f20;stroke-linecap:round;stroke-linejoin:round;stroke-width:12px"/><path d="M659.92,656.71c12.77-6.11,26.07-13.36,36.51-22.93,17.14-15.74,20.17-31.43,19.48-32-.27-.87-15.92-4.15-37.06,5.58-12.87,5.92-24.7,15.38-35.27,24.79" style="fill:#006838;stroke:#231f20;stroke-linecap:round;stroke-linejoin:round;stroke-width:12px"/><path d="M629,661.21c11.31-6.21,23-13.53,31.76-23.05,14.38-15.62,15.52-30.87,14.81-31.42-.35-.83-15.39-3.63-34.17,6.27-11.43,6-21.51,15.46-30.4,24.82" style="fill:#006838;stroke:#231f20;stroke-linecap:round;stroke-linejoin:round;stroke-width:12px"/><path d="M587.52,670.05c11.74-9,23.82-19.34,32.58-31.31,14.39-19.66,14.56-36,13.76-36.45-.43-.8-16.79-.46-36.31,14.12-11.89,8.87-22.07,21-31,32.87" style="fill:#006838;stroke:#231f20;stroke-linecap:round;stroke-linejoin:round;stroke-width:12px"/><path d="M591.27,711.66c12.8-5.79,35.25-13.85,53.34-30.31,17.09-15.56,20.61-30.88,19.93-31.48-.25-.87-15.76-4.5-37,4.7-12.91,5.6-41.47,23-52.15,32.19" style="fill:#006838;stroke:#231f20;stroke-linecap:round;stroke-linejoin:round;stroke-width:12px"/><path d="M582,697.43c11.31-6.21,23-13.54,31.76-23,14.38-15.62,15.52-30.87,14.8-31.42-.34-.83-15.38-3.63-34.16,6.27-11.43,6-21.51,15.46-30.4,24.82" style="fill:#006838;stroke:#231f20;stroke-linecap:round;stroke-linejoin:round;stroke-width:12px"/><path d="M541.88,711.1c10.77-7.19,21.73-15.6,29.22-26.2,12.3-17.41,10.77-33.77,9.93-34.32-.51-.86-16.78-3.11-34.72,8.41-10.92,7-19.8,17.59-27.47,28" style="stroke:#231f20;stroke-linecap:round;stroke-linejoin:round;stroke-width:12px;fill:url(#linear-gradient-14)"/><path d="M547.59,746c12.11-4.55,24.7-10.22,34.49-18.72,16.08-14,18.6-29.88,17.92-30.58-.28-.94-15.38-6.56-35.44.58-12.21,4.35-23.34,12.53-33.25,20.84" style="stroke:#231f20;stroke-linecap:round;stroke-linejoin:round;stroke-width:12px;fill:url(#linear-gradient-15)"/><path d="M333,576l144,5.21-14.38,65.66L313,644.07C299.53,622.34,307.54,587.28,333,576Z" style="stroke:#231f20;stroke-linejoin:round;stroke-width:12px;fill:url(#linear-gradient-16)"/><path d="M348.51,645c12.27,4.11,25.61,7.67,38.57,7.26,21.28-.68,33.29-11.42,33.21-12.4.37-.9-7.79-14.79-27.85-21.92-12.21-4.35-26-5-38.94-4.85" style="stroke:#231f20;stroke-linecap:round;stroke-linejoin:round;stroke-width:12px;fill:url(#linear-gradient-17)"/><ellipse cx="466.85" cy="613.5" rx="33.59" ry="13.44" transform="translate(-222.49 958.67) rotate(-79.33)" style="stroke:#231f20;stroke-linejoin:round;stroke-width:12px;fill:url(#linear-gradient-18)"/><path d="M746.28,699.5,880.8,685.88l-4.94,62.88L736.5,765.33C721.15,746.86,724.1,713.24,746.28,699.5Z" style="stroke:#231f20;stroke-linejoin:round;stroke-width:12px;fill:url(#linear-gradient-19)"/><ellipse cx="875.55" cy="717.18" rx="31.52" ry="12.62" transform="translate(116.21 1556.43) rotate(-87.18)" style="stroke:#231f20;stroke-linejoin:round;stroke-width:12px;fill:url(#linear-gradient-20)"/><path d="M777.77,728.69c12.07,1.35,25,1.94,36.81-1.14,19.35-5.06,28.14-17.72,27.87-18.62.16-.94-10.16-12.38-30-15-12.07-1.57-24.85.65-36.66,3.51" style="stroke:#231f20;stroke-linecap:round;stroke-linejoin:round;stroke-width:12px;fill:url(#linear-gradient-21)"/><path d="M264.16,623.92,390.91,671l-32.16,54.26L226.36,678.69C220.72,655.34,238.2,626.47,264.16,623.92Z" style="stroke:#231f20;stroke-linejoin:round;stroke-width:12px;fill:url(#linear-gradient-22)"/><ellipse cx="372.4" cy="696.78" rx="31.52" ry="12.62" transform="translate(-417.57 684.97) rotate(-61.02)" style="stroke:#231f20;stroke-linejoin:round;stroke-width:12px;fill:url(#linear-gradient-23)"/><path d="M279.55,664c10.25,6.53,21.61,12.77,33.55,15.2,19.6,4,33.07-3.49,33.22-4.42.56-.77-3.66-15.59-20.33-26.65-10.14-6.73-22.59-10.37-34.45-13" style="stroke:#231f20;stroke-linecap:round;stroke-linejoin:round;stroke-width:12px;fill:url(#linear-gradient-24)"/><path d="M704.05,569.11l134.52-13.63-4.94,62.88L694.27,634.93C678.92,616.46,681.87,582.84,704.05,569.11Z" style="stroke:#231f20;stroke-linejoin:round;stroke-width:12px;fill:url(#linear-gradient-25)"/><ellipse cx="833.32" cy="586.78" rx="31.52" ry="12.62" transform="translate(206.3 1390.26) rotate(-87.18)" style="stroke:#231f20;stroke-linejoin:round;stroke-width:12px;fill:url(#linear-gradient-26)"/><path d="M735.54,598.29c12.07,1.35,25,1.94,36.81-1.14,19.35-5.06,28.14-17.72,27.87-18.62.16-.94-10.16-12.38-30-15-12.07-1.57-24.85.65-36.66,3.51" style="stroke:#231f20;stroke-linecap:round;stroke-linejoin:round;stroke-width:12px;fill:url(#linear-gradient-27)"/><path d="M459.3,670.71l134.52-13.63L588.88,720,449.52,736.53C434.17,718.06,437.12,684.44,459.3,670.71Z" style="stroke:#231f20;stroke-linejoin:round;stroke-width:12px;fill:url(#linear-gradient-28)"/><ellipse cx="588.57" cy="688.38" rx="31.52" ry="12.62" transform="translate(-127.9 1242.41) rotate(-87.18)" style="stroke:#231f20;stroke-linejoin:round;stroke-width:12px;fill:url(#linear-gradient-29)"/><path d="M490.79,699.89c12.07,1.35,25,1.94,36.81-1.14,19.35-5.06,28.14-17.71,27.87-18.62.16-.93-10.16-12.38-30-15-12.07-1.57-24.85.65-36.66,3.51" style="stroke:#231f20;stroke-linecap:round;stroke-linejoin:round;stroke-width:12px;fill:url(#linear-gradient-30)"/><path d="M910.92,683.36l80.43-90.46,101.14-67.24h0L1039.41,634.9l-87,101.38C927.14,730.78,910.29,707.18,910.92,683.36Z" style="stroke:#231f20;stroke-linejoin:round;stroke-width:12px;fill:url(#linear-gradient-31)"/><path d="M1073.42,572.35c9.88-8.3,19.92-17.76,26.65-28.8,11-18.13,9.18-33.31,8.38-33.71-.51-.75-15.8-.56-32.28,12.82-10,8.15-18.08,19.37-25,30.28" style="fill:#006838;stroke:#231f20;stroke-linecap:round;stroke-linejoin:round;stroke-width:12px"/><path d="M1038.39,592.13c9.29-9.23,18.64-19.65,24.56-31.35,9.71-19.22,6.71-34.32,5.87-34.65-.56-.7-15.87.86-31.4,15.79-9.45,9.09-16.66,21.09-22.75,32.67" style="fill:#006838;stroke:#231f20;stroke-linecap:round;stroke-linejoin:round;stroke-width:12px"/><path d="M1053.4,616c11.33-8.49,23-18.19,31.32-29.63,13.74-18.78,13.65-34.76,12.85-35.2-.43-.79-16.41-1-35.24,12.72-11.47,8.32-21.22,19.91-29.75,31.2" style="fill:#006838;stroke:#231f20;stroke-linecap:round;stroke-linejoin:round;stroke-width:12px"/><path d="M1024,626.48c9.89-8.29,19.93-17.76,26.65-28.8,11-18.13,9.19-33.31,8.38-33.71-.5-.74-15.79-.55-32.28,12.83-10,8.14-18.07,19.36-25,30.27" style="fill:#006838;stroke:#231f20;stroke-linecap:round;stroke-linejoin:round;stroke-width:12px"/><path d="M985,643.26c9.75-11.15,19.58-23.62,25.84-37.07,10.27-22.09,7.24-38.17,6.37-38.43-.58-.7-16.56,2.82-32.85,20.94-9.92,11-17.54,24.95-24,38.3" style="fill:#006838;stroke:#231f20;stroke-linecap:round;stroke-linejoin:round;stroke-width:12px"/><path d="M996.81,683.34c11.42-8.18,31.87-20.47,46.39-40.15,13.72-18.59,14.18-34.31,13.4-34.76-.42-.8-16.34-1.34-35.34,11.83-11.56,8-36.16,30.7-44.85,41.76" style="fill:#006838;stroke:#231f20;stroke-linecap:round;stroke-linejoin:round;stroke-width:12px"/><path d="M984.91,671.2c9.89-8.3,19.93-17.77,26.65-28.81,11.05-18.13,9.19-33.31,8.38-33.71-.5-.74-15.79-.55-32.28,12.83-10,8.15-18.07,19.36-25,30.27" style="fill:#006838;stroke:#231f20;stroke-linecap:round;stroke-linejoin:round;stroke-width:12px"/><path d="M948.27,692.44c9.15-9.16,18.26-19.55,23.53-31.41,8.66-19.47,4-35.21,3-35.59-.67-.75-17.06.23-32.4,15-9.34,9-16,21.12-21.47,32.86" style="stroke:#231f20;stroke-linecap:round;stroke-linejoin:round;stroke-width:12px;fill:url(#linear-gradient-32)"/><path d="M960.67,725.51c11-6.84,22.23-14.86,30.17-25.11,13-16.83,12.4-32.93,11.6-33.49-.46-.86-16.36-3.42-34.64,7.5-11.13,6.64-20.44,16.84-28.55,26.93" style="stroke:#231f20;stroke-linecap:round;stroke-linejoin:round;stroke-width:12px;fill:url(#linear-gradient-33)"/><path d="M653.34,723.07l-91.28-79.5L493.78,543.13h0l109.78,52,102.27,86C700.59,706.36,677.17,723.45,653.34,723.07Z" style="stroke:#231f20;stroke-linejoin:round;stroke-width:12px;fill:url(#linear-gradient-34)"/><path d="M540.66,561.72c-8.4-9.8-18-19.74-29.07-26.35-18.25-10.86-33.41-8.84-33.8-8-.74.51-.39,15.8,13.16,32.14,8.25,10,19.55,17.88,30.53,24.66" style="fill:#006838;stroke:#231f20;stroke-linecap:round;stroke-linejoin:round;stroke-width:12px"/><path d="M560.8,596.54c-9.32-9.19-19.84-18.44-31.6-24.23-19.32-9.52-34.38-6.36-34.7-5.52-.7.57,1,15.87,16.1,31.24,9.19,9.35,21.26,16.44,32.91,22.42" style="fill:#006838;stroke:#231f20;stroke-linecap:round;stroke-linejoin:round;stroke-width:12px"/><path d="M584.55,581.29c-8.6-11.24-18.42-22.77-29.94-31-18.92-13.54-34.9-13.28-35.33-12.49-.79.45-.78,16.43,13.07,35.12,8.44,11.38,20.13,21,31.51,29.42" style="fill:#006838;stroke:#231f20;stroke-linecap:round;stroke-linejoin:round;stroke-width:12px"/><path d="M595.3,610.6c-8.4-9.8-18-19.74-29.08-26.35-18.24-10.87-33.4-8.85-33.79-8-.74.51-.39,15.8,13.16,32.15,8.25,9.95,19.55,17.87,30.53,24.65" style="fill:#006838;stroke:#231f20;stroke-linecap:round;stroke-linejoin:round;stroke-width:12px"/><path d="M612.48,649.41c-11.26-9.64-23.82-19.34-37.33-25.46-22.2-10-38.25-6.85-38.5-6-.69.59,3,16.53,21.27,32.64,11.13,9.81,25.14,17.27,38.55,23.58" style="fill:#006838;stroke:#231f20;stroke-linecap:round;stroke-linejoin:round;stroke-width:12px"/><path d="M652.44,637.19c-8.3-11.35-20.8-31.66-40.63-46-18.73-13.53-34.45-13.83-34.9-13-.8.43-1.17,16.35,12.19,35.21,8.14,11.48,31.08,35.85,42.22,44.42" style="fill:#006838;stroke:#231f20;stroke-linecap:round;stroke-linejoin:round;stroke-width:12px"/><path d="M640.41,649.2c-8.39-9.8-18-19.74-29.07-26.35-18.25-10.86-33.4-8.84-33.79-8-.74.51-.4,15.8,13.15,32.15,8.25,9.95,19.55,17.87,30.53,24.65" style="fill:#006838;stroke:#231f20;stroke-linecap:round;stroke-linejoin:round;stroke-width:12px"/><path d="M662,685.63c-9.26-9.06-19.74-18.06-31.65-23.21-19.57-8.46-35.26-3.61-35.62-2.67-.75.68.4,17.07,15.36,32.25,9.11,9.25,21.28,15.77,33.07,21.13" style="stroke:#231f20;stroke-linecap:round;stroke-linejoin:round;stroke-width:12px;fill:url(#linear-gradient-35)"/><path d="M695,672.88C688,662,679.89,650.81,669.56,643c-17-12.87-33.06-12.07-33.61-11.26-.86.47-3.26,16.4,7.85,34.57,6.76,11.05,17.06,20.26,27.23,28.26" style="stroke:#231f20;stroke-linecap:round;stroke-linejoin:round;stroke-width:12px;fill:url(#linear-gradient-36)"/><path d="M843.82,598.91,981.2,642.38l-31.4,59.44L806.45,659.18C799.23,634.62,816.32,603,843.82,598.91Z" style="stroke:#231f20;stroke-linejoin:round;stroke-width:12px;fill:url(#linear-gradient-37)"/><path d="M840.38,669.57c10.72,7.24,22.63,14.23,35.23,17.3,20.69,5,35.13-2.12,35.31-3.08.6-.77-3.55-16.33-21-28.57-10.61-7.44-23.72-11.78-36.23-15.07" style="stroke:#231f20;stroke-linecap:round;stroke-linejoin:round;stroke-width:12px;fill:url(#linear-gradient-38)"/><ellipse cx="962.84" cy="670.79" rx="33.59" ry="13.44" transform="translate(-63.76 1239.23) rotate(-63.84)" style="stroke:#231f20;stroke-linejoin:round;stroke-width:12px;fill:url(#linear-gradient-39)"/><path d="M716.17,597.32,853.55,640.8l-31.39,59.43L678.81,657.59C671.59,633,688.67,601.39,716.17,597.32Z" style="stroke:#231f20;stroke-linejoin:round;stroke-width:12px;fill:url(#linear-gradient-40)"/><path d="M712.73,668c10.73,7.24,22.64,14.23,35.23,17.29,20.69,5,35.13-2.11,35.31-3.07.61-.77-3.55-16.34-21-28.57-10.61-7.45-23.72-11.79-36.23-15.07" style="stroke:#231f20;stroke-linecap:round;stroke-linejoin:round;stroke-width:12px;fill:url(#linear-gradient-41)"/><ellipse cx="835.19" cy="669.21" rx="33.59" ry="13.44" transform="translate(-133.7 1123.78) rotate(-63.84)" style="stroke:#231f20;stroke-linejoin:round;stroke-width:12px;fill:url(#linear-gradient-42)"/><path d="M588.07,678.62,731.69,667l-6.61,66.9L576.25,748.54C560.28,728.54,564.15,692.78,588.07,678.62Z" style="stroke:#231f20;stroke-linejoin:round;stroke-width:12px;fill:url(#linear-gradient-43)"/><path d="M611.59,745.34c12.66,2.66,26.33,4.63,39.15,2.7,21.06-3.15,31.72-15.23,31.53-16.19.27-.94-9.46-13.78-30.22-18.52-12.64-2.88-26.42-2-39.24-.26" style="stroke:#231f20;stroke-linecap:round;stroke-linejoin:round;stroke-width:12px;fill:url(#linear-gradient-44)"/><ellipse cx="725.43" cy="700.2" rx="33.59" ry="13.44" transform="translate(-23.19 1375.55) rotate(-86.04)" style="stroke:#231f20;stroke-linejoin:round;stroke-width:12px;fill:url(#linear-gradient-45)"/><path d="M659.24,705.42l96.86-94.34,35.24,52.31-98.82,99.66C669,758.13,650.42,730,659.24,705.42Z" style="stroke:#231f20;stroke-linejoin:round;stroke-width:12px;fill:url(#linear-gradient-46)"/><ellipse cx="771.46" cy="638.86" rx="12.62" ry="31.52" transform="translate(-227.76 569.25) rotate(-35.64)" style="stroke:#231f20;stroke-linejoin:round;stroke-width:12px;fill:url(#linear-gradient-47)"/><path d="M702.05,708.69c10.29-6.46,20.8-14.05,28.11-23.79,12-16,11-31.38,10.25-31.92-.46-.82-15.66-3.37-32.79,6.95-10.44,6.28-19.06,16-26.53,25.55" style="stroke:#231f20;stroke-linecap:round;stroke-linejoin:round;stroke-width:12px;fill:url(#linear-gradient-48)"/><path d="M966.9,674.84l116.89-31.46,121.45-.69h0l-104.33,62.17-128.4,37C954.43,723.38,953.3,694.4,966.9,674.84Z" style="stroke:#231f20;stroke-linejoin:round;stroke-width:12px;fill:url(#linear-gradient-49)"/><path d="M1163.67,671.25c12.82-1.51,26.4-3.92,38.08-9.45,19.19-9.09,26-22.8,25.51-23.58,0-.9-12.89-9.13-34-7-12.86,1.3-25.74,6.27-37.49,11.6" style="fill:#006838;stroke:#231f20;stroke-linecap:round;stroke-linejoin:round;stroke-width:12px"/><path d="M1123.53,668.55c12.83-2.61,26.37-6.19,37.74-12.72,18.67-10.73,24.45-25,23.93-25.74-.09-.89-13.74-8-34.91-4-12.89,2.41-25.51,8.48-37,14.82" style="fill:#006838;stroke:#231f20;stroke-linecap:round;stroke-linejoin:round;stroke-width:12px"/><path d="M1123,696.77c14.12-.87,29.17-2.6,42.44-7.56,21.79-8.16,30.48-21.57,30.06-22.37.08-.9-13.2-9.81-36.44-8.72-14.15.66-28.67,5-42,9.75" style="fill:#006838;stroke:#231f20;stroke-linecap:round;stroke-linejoin:round;stroke-width:12px"/><path d="M1092.63,689.36c12.82-1.51,26.41-3.92,38.09-9.45,19.19-9.09,26-22.8,25.51-23.58,0-.9-12.9-9.13-34-7-12.87,1.3-25.74,6.27-37.49,11.6" style="fill:#006838;stroke:#231f20;stroke-linecap:round;stroke-linejoin:round;stroke-width:12px"/><path d="M1050.84,682c14.27-4,29.33-9,41.94-16.8,20.71-12.83,27-27.93,26.43-28.62-.1-.91-15.39-6.73-39-.54-14.34,3.77-28.35,11.23-41.06,18.85" style="fill:#006838;stroke:#231f20;stroke-linecap:round;stroke-linejoin:round;stroke-width:12px"/><path d="M1038.7,722c14-.56,37.88.39,60.82-8.09,21.68-8,30.69-20.89,30.28-21.7.09-.9-12.92-10.09-36-9.51-14.07.35-47.09,5.82-60.42,10.29" style="fill:#006838;stroke:#231f20;stroke-linecap:round;stroke-linejoin:round;stroke-width:12px"/><path d="M1035.43,705.28c12.82-1.5,26.41-3.91,38.09-9.44,19.19-9.09,26-22.8,25.51-23.58,0-.9-12.9-9.13-34-7-12.86,1.3-25.73,6.27-37.49,11.6" style="fill:#006838;stroke:#231f20;stroke-linecap:round;stroke-linejoin:round;stroke-width:12px"/><path d="M993.13,702.93c12.68-2.63,26-6.32,36.92-13.34,17.93-11.53,22.65-27.25,22.07-28.08-.15-1-14.39-9.18-35.34-5.23-12.75,2.41-24.95,8.88-36,15.68" style="stroke:#231f20;stroke-linecap:round;stroke-linejoin:round;stroke-width:12px;fill:url(#linear-gradient-50)"/><path d="M985.36,737.37c12.93.32,26.73-.21,39-4.42,20.14-6.91,28.45-20.72,28.08-21.63.09-1-11.79-11.84-33.07-12.75-13-.55-26.33,2.86-38.64,6.84" style="stroke:#231f20;stroke-linecap:round;stroke-linejoin:round;stroke-width:12px;fill:url(#linear-gradient-51)"/><path d="M669.39,696.71l115.15-37.35,121.25-6.85h0l-101,67.39L678.38,763.32C659.4,745.82,656.8,716.93,669.39,696.71Z" style="stroke:#231f20;stroke-linejoin:round;stroke-width:12px;fill:url(#linear-gradient-52)"/><path d="M865.72,683.14c12.73-2.15,26.17-5.24,37.56-11.36,18.7-10.06,24.77-24.09,24.28-24.84-.06-.9-13.34-8.47-34.33-5.27-12.78,2-25.39,7.56-36.86,13.49" style="fill:#006838;stroke:#231f20;stroke-linecap:round;stroke-linejoin:round;stroke-width:12px"/><path d="M825.5,682.49c12.68-3.26,26-7.52,37-14.62,18.11-11.67,23.15-26.21,22.6-26.92-.13-.89-14.13-7.29-35.07-2.27-12.75,3.06-25.05,9.77-36.16,16.68" style="fill:#006838;stroke:#231f20;stroke-linecap:round;stroke-linejoin:round;stroke-width:12px"/><path d="M826.36,710.7c14.06-1.58,29-4.08,42-9.71,21.35-9.25,29.35-23.08,28.89-23.86,0-.91-13.68-9.13-36.84-6.87-14.1,1.38-28.37,6.45-41.44,11.88" style="fill:#006838;stroke:#231f20;stroke-linecap:round;stroke-linejoin:round;stroke-width:12px"/><path d="M795.7,704.83c12.72-2.16,26.17-5.25,37.55-11.36C852,683.41,858,669.38,857.53,668.63c0-.9-13.34-8.47-34.33-5.27-12.78,1.95-25.38,7.56-36.85,13.49" style="fill:#006838;stroke:#231f20;stroke-linecap:round;stroke-linejoin:round;stroke-width:12px"/><path d="M753.58,699.59c14.06-4.69,28.84-10.47,41-18.91,20-13.86,25.56-29.26,24.94-29.93-.15-.89-15.71-5.94-38.93,1.44-14.14,4.49-27.75,12.66-40.06,20.91" style="fill:#006838;stroke:#231f20;stroke-linecap:round;stroke-linejoin:round;stroke-width:12px"/><path d="M743.49,740.13c14-1.27,37.85-1.53,60.33-11.16,21.24-9.1,29.59-22.43,29.14-23.22,0-.9-13.41-9.42-36.46-7.66-14,1.06-46.73,8.19-59.81,13.33" style="fill:#006838;stroke:#231f20;stroke-linecap:round;stroke-linejoin:round;stroke-width:12px"/><path d="M739.37,723.64c12.73-2.16,26.18-5.25,37.56-11.37,18.71-10,24.78-24.08,24.28-24.84-.05-.89-13.34-8.46-34.33-5.26-12.78,2-25.38,7.56-36.85,13.48" style="fill:#006838;stroke:#231f20;stroke-linecap:round;stroke-linejoin:round;stroke-width:12px"/><path d="M697,723.43c12.53-3.27,25.64-7.63,36.19-15.19,17.32-12.42,21.24-28.37,20.62-29.17-.2-1-14.83-8.43-35.55-3.43-12.62,3.05-24.48,10.14-35.14,17.49" style="stroke:#231f20;stroke-linecap:round;stroke-linejoin:round;stroke-width:12px;fill:url(#linear-gradient-53)"/><path d="M691,758.23c12.93-.34,26.69-1.57,38.72-6.4,19.76-7.93,27.36-22.13,26.95-23,0-1-12.38-11.23-33.67-11.06-13,.11-26.16,4.19-38.25,8.79" style="stroke:#231f20;stroke-linecap:round;stroke-linejoin:round;stroke-width:12px;fill:url(#linear-gradient-54)"/><path d="M1375.3,538.3c0,122-296.68,221-662.65,221S50,660.33,50,538.3" style="fill:none;stroke:#231f20;stroke-miterlimit:10;stroke-width:24px"/><path d="M581.25,1252.38c9.43,0,27.28-8.37,27.28-28.23s-18.85-32.24-27.28-64c-8.42,31.71-27.27,44.08-27.27,64S571.82,1252.38,581.25,1252.38Z" style="fill:#bfe4ed;stroke:#231f20;stroke-miterlimit:10;stroke-width:7.91666666666667px"/><path d="M1039.13,1140.28c9.43,0,27.28-8.37,27.28-28.24s-18.85-32.23-27.28-63.94c-8.42,31.71-27.27,44.08-27.27,63.94S1029.7,1140.28,1039.13,1140.28Z" style="fill:#bfe4ed;stroke:#231f20;stroke-miterlimit:10;stroke-width:7.91666666666667px"/><path d="M725.82,1372.72c9.43,0,27.28-8.37,27.28-28.24s-18.85-32.23-27.28-63.94c-8.42,31.71-27.27,44.08-27.27,63.94S716.39,1372.72,725.82,1372.72Z" style="fill:#bfe4ed;stroke:#231f20;stroke-miterlimit:10;stroke-width:7.91666666666667px"/><path d="M475.56,1372.72c9.43,0,27.27-8.37,27.27-28.24s-18.85-32.23-27.27-63.94c-8.43,31.71-27.28,44.08-27.28,63.94S466.12,1372.72,475.56,1372.72Z" style="fill:#bfe4ed;stroke:#231f20;stroke-miterlimit:10;stroke-width:7.91666666666667px"/><path d="M926.49,1372.72c9.43,0,27.28-8.37,27.28-28.24s-18.86-32.23-27.28-63.94c-8.42,31.71-27.28,44.08-27.28,63.94S917.06,1372.72,926.49,1372.72Z" style="fill:#bfe4ed;stroke:#231f20;stroke-miterlimit:10;stroke-width:7.91666666666667px"/><path d="M626.42,1543.11c9.44,0,27.28-8.37,27.28-28.23s-18.85-32.24-27.28-64c-8.42,31.71-27.27,44.08-27.27,64S617,1543.11,626.42,1543.11Z" style="fill:#bfe4ed;stroke:#231f20;stroke-miterlimit:10;stroke-width:7.91666666666667px"/><path d="M818.53,1529.2c9.43,0,27.27-8.37,27.27-28.23s-18.85-32.24-27.27-64c-8.43,31.71-27.28,44.08-27.28,64S809.1,1529.2,818.53,1529.2Z" style="fill:#bfe4ed;stroke:#231f20;stroke-miterlimit:10;stroke-width:7.91666666666667px"/><path d="M874.63,1204.15c9.43,0,27.28-8.37,27.28-28.24s-18.86-32.23-27.28-63.94c-8.42,31.71-27.28,44.08-27.28,63.94S865.2,1204.15,874.63,1204.15Z" style="fill:#bfe4ed;stroke:#231f20;stroke-miterlimit:10;stroke-width:7.91666666666667px"/><path d="M701.64,1123.47c9.43,0,27.28-8.37,27.28-28.24s-18.86-32.23-27.28-63.94c-8.42,31.71-27.28,44.08-27.28,63.94S692.21,1123.47,701.64,1123.47Z" style="fill:#bfe4ed;stroke:#231f20;stroke-miterlimit:10;stroke-width:7.91666666666667px"/><path d="M407.75,1152.34c9.43,0,27.28-8.37,27.28-28.24s-18.86-32.23-27.28-63.94c-8.42,31.71-27.28,44.08-27.28,63.94S398.32,1152.34,407.75,1152.34Z" style="fill:#bfe4ed;stroke:#231f20;stroke-miterlimit:10;stroke-width:7.91666666666667px"/><g id="layer5"><line x1="627.41" y1="66.42" x2="627.41" y2="237.82" style="fill:none;stroke:#231f20;stroke-linecap:round;stroke-miterlimit:10;stroke-width:24px"/><polyline points="557.11 135.72 627.41 53.86 697.71 135.72" style="fill:none;stroke:#231f20;stroke-linecap:round;stroke-miterlimit:10;stroke-width:24px"/></g><g id="layer5-2" data-name="layer5"><line x1="840.66" y1="225.26" x2="840.66" y2="53.86" style="fill:none;stroke:#231f20;stroke-linecap:round;stroke-miterlimit:10;stroke-width:24px"/><polyline points="910.96 155.96 840.66 237.82 770.36 155.96" style="fill:none;stroke:#231f20;stroke-linecap:round;stroke-miterlimit:10;stroke-width:24px"/></g></svg>