<svg id="Layer_1" data-name="Layer 1" xmlns="http://www.w3.org/2000/svg" width="2000" height="1691.49" viewBox="0 0 2000 1691.49">
  <g>
    <path d="M670.16,1494.69c412.43,222.92,1015.28,265.22,1284.72-233.27,63.46-117.41-279.66-442.33-774.88-710l-1.38-.75C683.4,283,223.61,173.94,160.14,291.35-109.29,789.84,256.34,1271,668.77,1493.94" style="fill: #fff;stroke: #3a3632;stroke-miterlimit: 10;stroke-width: 24px"/>
    <g>
      <g id="layer1">
        <g id="g1056">
          <path id="path1050" d="M1834.85,299.49c-42.85,4.1-71.65,43.73-100.8,75.41-67.51,73.34-191,15.55-281.74,56.81-74.44,33.86-140.65,279.89-222.21,286-45.32,3.39-75-114.72-107-147.08-22.29-22.61-32.73-54.25-39.27-85.32-15.64-74.3-12.52-152.36,8.27-225.35a981.52,981.52,0,0,1,34.71-99.44c10.61-26,23-60.82,46.36-78.44,20.77-15.66,56.12-22,80.58-24.77,47.4-5.32,95.08-8.26,142.71-10.72,52-2.7,104.71-.08,157,2.77,37.19,2,74.39,5.44,111.32,10.26,34,4.44,63.82,8.17,96.64-6.46" style="fill: #fff;stroke: #000;stroke-linecap: round;stroke-width: 16px"/>
        </g>
        <path d="M1385.12,306.31c-20.1-19.17-75.2-72.92-94.94-92.48-11-11-21.84-22.18-31.9-34.05-11-12.91-12.46-30-14.32-46.62" style="fill: none;stroke: #000;stroke-linecap: round;stroke-linejoin: round;stroke-width: 16px"/>
        <path d="M1266,189.48c11.8,20.19-67.19,131.11-77,157.25" style="fill: none;stroke: #000;stroke-linecap: round;stroke-width: 16px"/>
        <path d="M1333.73,256.77c8.62,15.06-61.17,117.49-68.4,137" style="fill: none;stroke: #000;stroke-width: 16px"/>
      </g>
      <path d="M1254.09,173.22a149.4,149.4,0,0,0-38-31.53" style="fill: none;stroke: #000;stroke-linecap: round;stroke-linejoin: round;stroke-width: 8.99982833862305px"/>
      <path d="M1396,203.57c-12.28-16.77-36.12-43-46.1-64.3" style="fill: none;stroke: #000;stroke-linecap: round;stroke-linejoin: round;stroke-width: 8.99982833862305px"/>
      <g>
        <path d="M1469,479.67c-35.21-2.25-72.62-6.8-99.85-29.25-15-12.36-25.55-29.14-36.47-45.23A773.9,773.9,0,0,0,1181,239.69c-18.53-15.08-38.51-29.65-61.8-35-18.49-4.21-37.76-2.26-56.62-.3-89.19,9.29-181.43,19.55-258.94,64.66-31,18-59,41.33-91.63,56.11-83.88,37.94-180.81,13.74-272.47,5.11-57.34-5.4-121.35-2.06-163.17,37.55-43.67,41.36-48.82,111.06-30.23,168.26,9,27.68,22.93,55.11,20.64,84.12-2.36,30.1-21.94,56.46-26.33,86.34-8.09,55,36.72,104,84.49,132.47s103,47,141.2,87.42c17.31,18.31,30.19,40.25,44.87,60.73,54.43,76,135.61,132.33,225.8,156.81,50.62,13.74,103.45,17.66,154.33,30.42,75.67,19,145,56.89,217,86.87s150.85,52.41,227.53,38c35-6.56,68.17-20.57,102.8-28.88,85.12-20.43,175.13-5.7,261.33-21,8.27-1.47,16.69-3.28,23.85-7.67,10.25-6.28,16.77-17.1,22.17-27.85,53.67-106.9,24.86-248.78-66.26-326.28-24.66-21-53.93-38.45-69.64-66.77-37.39-67.42,6.89-155.7,8.21-226.79C1619.8,504.69,1542.68,484.36,1469,479.67Z" style="fill: #e6e7e8;stroke: #000;stroke-width: 20px"/>
        <path d="M676.33,654c-13-34.63-26-76.35-10.58-109.42,5.29-11.36,13.45-20.2,22.25-27.31,40.9-33,93.71-30.38,141.32-18.22s94.59,32.71,143.15,31.62c9.13-.2,19.1-1.66,25.48-9.89,4.77-6.16,6.57-14.91,8.89-23,11.35-39.58,40-70.46,72.79-78.4,24.33-5.89,41.92.67,60.85,16.94,48.68,41.84,106.12,54.74,163.94,56.33,43.56,1.19,114,21.07,149.66,52.55C1467.85,557.37,1478.22,578,1476,599c-1.92,17.87-12.17,32.16-20,47.28-12.77,24.78-9.91,53.34.74,78.55,13.85,32.77,35.08,64.63,32.28,101.59s-30.6,64.92-59.59,71S1370.91,892,1344,877.06s-52.79-33.48-81.22-42.92c-47.88-15.9-96.88-4.54-144.48,16" style="fill: none;stroke: #3a3632;stroke-linecap: round;stroke-width: 20px"/>
      </g>
      <g id="layer4">
        <g>
          <path id="path896" d="M1748,299.09c-21.41,26.46-49.29,48.64-75.38,60.32s-54,18.86-79.88,31.09c-32.6,15.43-63.93,44.67-90.77,68.11-54,47.2-104.89,84.86-162,128.2-42,31.85-58.25,28.74-69.41,19.85-27-21.51-10.21-61.56,5.88-84.89,20-29.06,36.35-55.13,54.55-85.28,13.33-22.08,63.11-109.13,93.11-176.75,11.09-25,16.93-53.38,10.48-74.67" style="fill: #fff;stroke: #000;stroke-linecap: round;stroke-linejoin: round;stroke-width: 16px"/>
          <path d="M1320.84,583.62c-18.69,19.8-44,26.28-56.49,14.47s-7.5-37.43,11.19-57.23,33.83-15.53,46.34-3.72S1339.53,563.82,1320.84,583.62Z" style="fill: #fff;stroke: #000;stroke-linecap: round;stroke-linejoin: round;stroke-width: 8.99982833862305px"/>
          <path d="M1354.6,482.39l27.52,24.28" style="fill: none;stroke: #000;stroke-linecap: round;stroke-linejoin: round;stroke-width: 8.99982833862305px"/>
        </g>
      </g>
    </g>
    <path d="M221.86,315.89C191.45,372.15,521.84,658.46,985,908.8l1.47.8c463.15,250.33,883.67,369.9,914.08,313.63,0,0-465.92,708.47-1230.22,192.42C-162.35,853.43,221.86,315.89,221.86,315.89Z" style="fill: #fff"/>
    <path d="M901.4,1244.59q3.44,22.76-9.53,46.75Q874,1324.43,839,1330.89T762.61,1315a161.93,161.93,0,0,1-41.51-31.83q-17.9-19-26.08-40.4-4.44-11.79.87-21.61a23.89,23.89,0,0,1,11.91-11.17q7.59-3.18,13.78.16a18.34,18.34,0,0,1,5.85,4.81q2.22,2.85,5.74,8.5a177.75,177.75,0,0,0,20.63,31.35A92.64,92.64,0,0,0,781,1276.53q24,13,40.83,9.62t27.46-23q10.41-19.26,3.24-35.12T820,1198.44l-20.73-11.2q-8.36-4.52-9.86-12.61a23.73,23.73,0,0,1,14-26q7.5-3,15.86,1.52l14.54,7.86q49.8,26.93,70-10.52,9.43-17.46,4-32.6t-24-25.18q-26.55-14.34-68.11-9.56a100.94,100.94,0,0,1-10.26-.15,18.17,18.17,0,0,1-7.23-2.26q-6.19-3.35-7.68-11.43a23.9,23.9,0,0,1,2.82-16.09,22.36,22.36,0,0,1,7-8.19,33.5,33.5,0,0,1,10.58-4.38q22.14-4.47,47.44-.43a148.45,148.45,0,0,1,47.47,16q37.82,20.45,50.15,51.06t-4.37,61.53q-11.76,20.89-31,30.91t-42.47,6.87Q898,1221.82,901.4,1244.59Z" style="fill: #3a3632"/>
    <path d="M1900.54,1223.23c-30.41,56.27-450.93-63.3-914.08-313.63l-1.47-.8C521.84,658.46,191.45,372.15,221.86,315.89" style="fill: none;stroke: #3a3632;stroke-linecap: round;stroke-miterlimit: 10;stroke-width: 24px"/>
  </g>
</svg>
