<svg id="Layer_1" data-name="Layer 1" xmlns="http://www.w3.org/2000/svg" viewBox="0 0 1620 2000"><path d="M676.77,1985.38c243.62,0,377.94-71.76,442.79-159.08,56.12-75.58,136.51-374.13,136.51-374.13,0-124.1-259.36-197.17-579.3-197.17S97.48,1328.07,97.48,1452.17c0,0,80.39,298.55,136.51,374.13C298.84,1913.62,433.15,1985.38,676.77,1985.38Z" style="fill:#fff;stroke:#231f20;stroke-linecap:round;stroke-miterlimit:10;stroke-width:24px"/><path d="M1184.6,1447.76c0,93.52-227.36,169.33-507.83,169.33S169,1541.28,169,1447.76" style="fill:none;stroke:#231f20;stroke-linecap:round;stroke-miterlimit:10;stroke-width:24px"/><path id="path3589" d="M1411.87,224.5,1352.28,328l-168.53-50.28-6.43,148.72L1028.76,417l22.43,184.41-105,5.35-30,140.57c4.35,5.39,8.47,10.88,13,16.19l0,0c87.28,94,192.13,148.63,315.86,153.78,130.3,5.44,233.07-43,298.44-153.57,88.24-149.41,50.61-371.4-103.89-515.61C1430.64,239.8,1411.87,224.5,1411.87,224.5Z" style="fill:#fff;stroke:#000;stroke-linejoin:round;stroke-width:24px"/><path id="path853" d="M794.18,728.79c153.8-93.06,394.1-49,394.1-49L1141.44,814.7,929.18,763.56c-37.89,184.5,119.41,311,58.56,488.9-74.28,217.16-301.31,243.16-379.85,70.75C497.6,1081.08,642.87,820.34,794.18,728.79Z" style="fill:#fff;stroke:#000;stroke-linecap:round;stroke-linejoin:round;stroke-width:24px"/><path id="path3589-2" data-name="path3589" d="M246.14,22.57l48.67,109,172.8-32.73-8.86,148.59,148.74,5.91L566.27,434.5l103.91,16.09L685.62,593.5c-4.87,4.92-9.53,10-14.58,14.77l0,0c-96.46,84.5-206.36,128.15-330,120.58-130.18-8-227.44-66.64-281.12-183.36C-12.52,387.83,47.67,170.87,216.14,43.26,225.91,35.86,246.14,22.57,246.14,22.57Z" style="fill:#fff;stroke:#000;stroke-linejoin:round;stroke-width:24px"/><path d="M671,608.29,454.17,592.81l11.55-190.57L313.08,434.47,279.19,277.58,149.86,233,246.14,22.57s-20.23,13.29-30,20.69C47.67,170.87-12.52,387.83,59.93,545.51c53.68,116.72,150.94,175.41,281.12,183.36C464.65,736.44,574.55,692.79,671,608.29Z" style="fill:#fff;stroke:#000;stroke-linejoin:round;stroke-width:24px"/><path id="path855" d="M1293.11,734.43c-93.59,42.39-223.59,108.6-266.74-11.59-41.7-100,68.83-182.64,156.09-229,100.35-44.27,241.43-62.13,305.92,32.23,12.72,19.51,18.67,42.12,16,65-10.18,38.43-26.54,61.78-48.45,76.08S1408.7,682.09,1293.11,734.43Z" style="fill:#f6d11e"/><path d="M929.18,763.56l217.28,6.84,8.06-190.75,148.53,47.71,49.8-152.59,133.21-31L1411.87,224.5s18.77,15.3,27.72,23.66c154.5,144.21,192.13,366.2,103.89,515.61-65.37,110.61-168.14,159-298.44,153.57C1121.31,912.19,1016.46,857.51,929.18,763.56Z" style="fill:#fff;stroke:#000;stroke-linejoin:round;stroke-width:24px"/></svg>