<svg id="Layer_1" data-name="Layer 1" xmlns="http://www.w3.org/2000/svg" width="2000" height="2000" viewBox="0 0 2000 2000">
  <g>
    <g>
      <path d="M875.53,1341.77h-41.9V989.1A103.49,103.49,0,0,0,730.26,885.73h7.85A103.49,103.49,0,0,0,634.74,989.1V1156h-41.9V989.1c0-80.11,65.17-145.28,145.27-145.28h-7.85c80.1,0,145.27,65.17,145.27,145.28Z" style="fill: #231f20"/>
      <rect x="582.36" y="1156.03" width="62.87" height="48.28" style="fill: #231f20"/>
      <rect x="802.19" y="1341.77" width="104.78" height="121.28" style="fill: #231f20"/>
      <rect x="906.98" y="1369.32" width="81.73" height="62.87" style="fill: #231f20"/>
      <rect x="945.79" y="1303.69" width="20.96" height="66.39" style="fill: #231f20"/>
    </g>
    <path d="M1639,1919.73H70.15c-41.11,0-67.84-43.29-49.42-80l162-323.36a55.29,55.29,0,0,1,49.42-30.51H1477a55.29,55.29,0,0,1,49.42,30.51l162,323.36C1706.85,1876.44,1680.12,1919.73,1639,1919.73Z" style="fill: #231f20"/>
    <path d="M106.26,1864.27H1602.9a28.6,28.6,0,0,0,25.88-40.78l-133.37-283.32a28.6,28.6,0,0,0-25.88-16.43H239.63a28.6,28.6,0,0,0-25.88,16.43L80.38,1823.49A28.6,28.6,0,0,0,106.26,1864.27Z" style="fill: #fff"/>
  </g>
  <g>
    <path d="M1888.5,765.62c106.72-212.5,119-518.79-137.87-647.78-60.5-30.38-220,148.54-348.14,403.69l-.36.71C1274,777.4,1225.7,1012.17,1286.2,1042.56c256.84,129,495.21-63.73,601.94-276.23" style="fill: #fff;stroke: #231f20;stroke-miterlimit: 10;stroke-width: 24px"/>
    <path d="M1809.71,665.66q9.93,5,4.29,16.22l-35.75,71.18a11.42,11.42,0,0,1-6.76,6.23,11.11,11.11,0,0,1-8.62-.82,16,16,0,0,1-8-9.39l-24.44-65.75q-4.67-12.2-10-19.47a35.25,35.25,0,0,0-12.5-10.85q-8.79-4.43-16-1.72T1680,663.37a44.08,44.08,0,0,0-4.57,16.35,83.55,83.55,0,0,0,.66,18.51,26,26,0,0,1,.28,4.83,10.18,10.18,0,0,1-1,4.17,7.71,7.71,0,0,1-5.77,4,12.5,12.5,0,0,1-8.3-1.24,12,12,0,0,1-4.35-3.47,14,14,0,0,1-2.29-5.25,72.71,72.71,0,0,1-.7-24.52,75,75,0,0,1,7.26-24q9.69-19.29,25.22-25.92t32,1.65a54.13,54.13,0,0,1,19,15.64q7.59,9.92,14.11,27.73l18.19,49.71,24.84-49.45Q1800.16,660.87,1809.71,665.66Z" style="fill: #231f20"/>
    <path d="M1732.09,146c29,14.56-25.21,229.58-145.06,468.22l-.38.76c-119.85,238.63-260,410.5-289,395.94" style="fill: none;stroke: #231f20;stroke-linecap: round;stroke-miterlimit: 10;stroke-width: 24px"/>
  </g>
  <g>
    <path d="M1888.5,765.62c106.72-212.5,119-518.79-137.87-647.78-60.5-30.38-220,148.54-348.14,403.69l-.36.71C1274,777.4,1225.7,1012.17,1286.2,1042.56c256.84,129,495.21-63.73,601.94-276.23" style="fill: #fff;stroke: #231f20;stroke-miterlimit: 10;stroke-width: 24px"/>
    <path d="M1758.18,652.21q11.49-2.09,23.85,4.12,17,8.56,20.86,26.19t-6.91,39A82.43,82.43,0,0,1,1780.47,743a62.91,62.91,0,0,1-20.09,13.83,12.68,12.68,0,0,1-11-.11,12.08,12.08,0,0,1-5.85-5.87,7.74,7.74,0,0,1-.13-7,9.33,9.33,0,0,1,2.35-3,51.81,51.81,0,0,1,4.22-3,90.55,90.55,0,0,0,15.58-10.94,47,47,0,0,0,10.62-14.14q6.21-12.36,4.26-20.85t-12.07-13.57q-9.93-5-17.86-1.11t-14.51,17l-5.36,10.68a9,9,0,0,1-6.24,5.19,11.5,11.5,0,0,1-7.83-1,11.37,11.37,0,0,1-5.57-5.73,9.15,9.15,0,0,1,.53-8.06l3.77-7.49q12.89-25.66-6.41-35.35-9-4.51-16.59-1.53t-12.39,12.54q-6.87,13.68-3.82,34.68a51.25,51.25,0,0,1,.09,5.2,9.36,9.36,0,0,1-1,3.7,7.78,7.78,0,0,1-5.68,4.07,12.12,12.12,0,0,1-8.2-1.19,11.41,11.41,0,0,1-4.26-3.43,16.87,16.87,0,0,1-2.38-5.3,67.44,67.44,0,0,1-.94-24.05,75.48,75.48,0,0,1,7.4-24.31q9.78-19.47,25.12-26.2t31.27,1.28a38.3,38.3,0,0,1,16.14,15.26,35.28,35.28,0,0,1,4.13,21.42Q1746.7,654.3,1758.18,652.21Z" style="fill: #231f20"/>
    <path d="M1732.09,146c29,14.56-25.21,229.58-145.06,468.22l-.38.76c-119.85,238.63-260,410.5-289,395.94" style="fill: none;stroke: #231f20;stroke-linecap: round;stroke-miterlimit: 10;stroke-width: 24px"/>
  </g>
  <g>
    <path d="M1104.4,1703.68V1150.27c0-250.31,236.22-277,236.22-277" style="fill: none;stroke: #221f1f;stroke-linecap: round;stroke-linejoin: round;stroke-width: 24px"/>
    <polyline points="1211.26 1585.3 1104.4 1711.24 997.55 1585.3" style="fill: none;stroke: #221f1f;stroke-linecap: round;stroke-linejoin: round;stroke-width: 24px"/>
  </g>
</svg>
