<svg id="Layer_1" data-name="Layer 1" xmlns="http://www.w3.org/2000/svg" xmlns:xlink="http://www.w3.org/1999/xlink" viewBox="0 0 1726.85 2000"><defs><radialGradient id="radial-gradient" cx="492.39" cy="609.52" r="455.4" gradientTransform="translate(40.6 1101.91) rotate(-90) scale(1 0.74)" gradientUnits="userSpaceOnUse"><stop offset="0.17" stop-color="#f8ffd2"/><stop offset="0.55" stop-color="#f7fed0"/><stop offset="0.69" stop-color="#f1fcc9"/><stop offset="0.79" stop-color="#e8f8be"/><stop offset="0.86" stop-color="#daf2ad"/><stop offset="0.93" stop-color="#c9eb97"/><stop offset="0.99" stop-color="#b4e27c"/><stop offset="1" stop-color="#b0e077"/></radialGradient><radialGradient id="radial-gradient-2" cx="484.75" cy="726.32" r="264.26" gradientTransform="translate(-294.04 1211.07) rotate(-90) scale(1 1.07)" gradientUnits="userSpaceOnUse"><stop offset="0.17" stop-color="#f8ffd2"/><stop offset="0.29" stop-color="#f1fcc9"/><stop offset="0.49" stop-color="#def4b1"/><stop offset="0.74" stop-color="#bfe68a"/><stop offset="0.84" stop-color="#b0e077"/></radialGradient></defs><path d="M864.06,1952.87c377.7,0,821.17-201,821.17-657.47,0-107.53-367.66-206.37-821.17-206.37h-1.27c-453.52,0-821.17,98.84-821.17,206.37,0,456.51,443.47,657.47,821.17,657.47" style="fill:#fff;stroke:#3a3632;stroke-miterlimit:10;stroke-width:20px"/><path d="M951,1769.72q0,17.65-20,17.65H818.45q-20.31,0-20.31-17.65,0-17,20.31-17h34.62V1600.93l-32,19.64a17.16,17.16,0,0,1-8.32,2.66c-4.66,0-8.61-2-11.82-6a20.71,20.71,0,0,1-4.83-13.32q0-9.64,8.66-15l51.6-32q10-6,19-6,9.32,0,15,5.66t5.66,15.64v180.45h35Q950.95,1752.74,951,1769.72Z" style="fill:#3a3632"/><path d="M1632.09,1289.15c0,51.52-343.84,127.88-768,127.88h-1.35c-424.15,0-768-76.36-768-127.88" style="fill:none;stroke:#3a3632;stroke-linecap:round;stroke-miterlimit:10;stroke-width:20px"/><path d="M731.52,351.61C703.72,291.08,622.93,123.75,489,123.75S274.24,291.08,246.44,351.61,157.5,566.41,157.5,697.67c0,182.6,148.41,311.4,331.48,311.4s331.48-128.8,331.48-311.4C820.46,566.41,759.32,412.13,731.52,351.61Z" style="stroke:#3a3632;stroke-linecap:round;stroke-linejoin:round;stroke-width:20px;fill:url(#radial-gradient)"/><path d="M652,666.48a163,163,0,0,1-326,0c0-90,73-187.62,163-187.62S652,576.46,652,666.48Z" style="stroke:#3a3632;stroke-linecap:round;stroke-linejoin:round;stroke-width:20px;fill:url(#radial-gradient-2)"/><path d="M371.8,501.67c36,36,157.84,25.9,186-28.16C585.61,420.25,600.25,393.62,581,311c-9.47-40.6-55-78.74-111.54-68.89C334.34,265.67,335.8,465.67,371.8,501.67Z" style="fill:#b0e077"/><path d="M336.66,568.19C315.51,491.7,443.12,386.26,561.94,353.4c34.51-9.54,72.18-14.4,108.24-8.69a167.87,167.87,0,0,1,53.18,17.59c17.9,9.62,32.44,24.26,50.36,33.84,8.49,4.54,17.78,6.59,42.67-.62L1564.56,165c18.76-6.13,54.14,10.88,64.53,43.1l1.42,5.15c7.64,33-14,65.75-33.22,70.13L837,469.88c-25.06,6.6-32,13.14-36.93,21.39-10.45,17.42-15.41,37.45-25.82,54.9a167.45,167.45,0,0,1-36.59,42.41c-28,23.43-62.82,38.61-97.33,48.16-118.82,32.85-282.47,7.94-303.62-68.55" style="fill:#e6e7e8;stroke:#3a3632;stroke-miterlimit:10;stroke-width:20px"/><path d="M392.5,599.12c0,.76-.09,1.53-.12,2.31-3.11,65.3,77.63,106.23,143.69,71.1C601.14,637.92,705.22,630,720.67,544.2c8.52-47.3-15.36-125.16-69.89-147.81C571,363.26,493.23,413.44,448,463.08,411.53,503.05,396,540,392.5,599.12Z" style="fill:#b0e077;stroke:#3a3632;stroke-linecap:round;stroke-linejoin:round;stroke-width:20px"/><path d="M918.5,828.18c67.73,55.32,117.65,143.27,117.65,275.13v114" style="fill:none;stroke:#3a3632;stroke-linecap:round;stroke-miterlimit:10;stroke-width:20px"/><polyline points="951.58 1149.02 1036.15 1233.59 1120.71 1149.02" style="fill:none;stroke:#3a3632;stroke-linecap:round;stroke-miterlimit:10;stroke-width:20px"/></svg>