<svg id="Layer_1" data-name="Layer 1" xmlns="http://www.w3.org/2000/svg" viewBox="0 0 2000 1650.57"><path d="M1938.55,1585.05l-63,41.08a47.71,47.71,0,0,1-26,7.68H150.25a47.7,47.7,0,0,1-25.66-7.44L65.5,1588.63" style="fill:#f1f2f2;stroke:#231f20;stroke-miterlimit:10;stroke-width:15.7845065363319px"/><path d="M1879.25,1604.45H120.75c-53.37,0-82.72-29.87-66.11-65.56L276.39,1062.5c9.45-20.28,48.25-36.34,86.89-36.34H1636.72c38.64,0,77.44,16.06,86.89,36.34l221.75,476.39C1962,1574.58,1932.62,1604.45,1879.25,1604.45Z" style="fill:#f1f2f2;stroke:#231f20;stroke-miterlimit:10;stroke-width:24px"/><path d="M100.4,1556.51l207.69-459.26c7.71-17.06,40.13-30.62,72.57-30.62H1619.32c32.44,0,64.86,13.56,72.56,30.62l205.54,452.91" style="fill:none;stroke:#231f20;stroke-linecap:round;stroke-linejoin:round;stroke-width:7.89225326816593px"/><path d="M1495,1278.16c84,0,152.88-26,175.24-60.27,26.42-63,24.55-58.74,24.55-58.74,0-48.65-89.45-88.09-199.79-88.09s-199.78,39.44-199.78,88.09c0,0-1.87-4.22,26.39,58.74C1344,1252.12,1411,1278.16,1495,1278.16Z" style="fill:#f1decd;stroke:#231f20;stroke-miterlimit:10;stroke-width:7.89225326816593px"/><path d="M1495,1062.05c11.85,0,24-13.69,35.36-13,11.89.74,21.91,15.85,33.14,17.31,11.93,1.56,24.18-10.33,35.19-8,9.41,2,14.49,15.5,23.11,18,9.38,2.67,23.52-5.32,31.83-2.12,9.3,3.58,10.92,17.72,18.7,21.89,8.11,4.34,20.58,2.31,26.82,7.2,7.6,6-1,18.1,3.5,24.72,5.52,8.2,15.07,10.55,15.07,19.48s-11.51,11.06-16.86,19.15c-4.33,6.55,4.48,16.25-2.94,22.17-6.09,4.85-18.52,2.88-26.46,7.2-7.76,4.23-3.27,18.39-12.59,22-8.32,3.25-24.56-4.67-34-2-8.64,2.49-13.69,20.58-23.13,22.57-11.11,2.35-25.53-11.76-37.59-10.17-11.33,1.5-21.46,18.89-33.48,19.65-11.47.72-23.74-15.22-35.71-15.22s-24.23,15.94-35.71,15.22c-12-.76-22.14-18.15-33.48-19.65-12.06-1.59-26.47,12.52-37.58,10.17-9.44-2-14.5-20.08-23.13-22.57-9.41-2.71-25.64,5.21-34,2-9.33-3.64-4.83-17.8-12.6-22-7.93-4.32-20.36-2.35-26.46-7.2-7.41-5.92,1.4-15.62-2.94-22.17-5.35-8.09-16.85-10.36-16.85-19.15s9.54-11.28,15.07-19.48c4.45-6.62-4.1-18.76,3.5-24.72,6.23-4.89,18.71-2.86,26.81-7.2,7.79-4.17,7.4-18.31,16.7-21.89,8.31-3.2,24.46,4.79,33.84,2.12,8.61-2.46,13.7-16,23.1-18,11-2.29,23.27,9.6,35.2,8,11.23-1.46,21.25-16.57,33.14-17.31C1471,1048.36,1483.15,1062.05,1495,1062.05Z" style="fill:#f1decd;stroke:#231f20;stroke-miterlimit:10;stroke-width:7.89225326816593px"/><path d="M1680.75,1140.83c0,38.54-83.16,69.77-185.76,69.77s-185.76-31.23-185.76-69.77" style="fill:none;stroke:#231f20;stroke-linecap:round;stroke-miterlimit:10;stroke-width:7.89225326816593px"/><path d="M1636.8,1158.41c-29.86-21.26-82.21-35.36-141.81-35.36s-111.94,14.1-141.8,35.36" style="fill:none;stroke:#231f20;stroke-linecap:round;stroke-miterlimit:10;stroke-width:7.89225326816593px"/><path d="M1654.59,1108.94c-33.61-19.25-92.53-32-159.6-32s-126,12.77-159.59,32" style="fill:none;stroke:#231f20;stroke-linecap:round;stroke-miterlimit:10;stroke-width:7.89225326816593px"/><path d="M1000,1278.16c84,0,152.87-26,175.24-60.27,26.42-63,24.54-58.74,24.54-58.74,0-48.65-89.44-88.09-199.78-88.09s-199.78,39.44-199.78,88.09c0,0-1.88-4.22,26.38,58.74C849,1252.12,916,1278.16,1000,1278.16Z" style="fill:#f1decd;stroke:#231f20;stroke-miterlimit:10;stroke-width:7.89225326816593px"/><path d="M1000,1062.05c11.84,0,24-13.69,35.35-13,11.9.74,21.92,15.85,33.15,17.31,11.93,1.56,24.18-10.33,35.19-8,9.41,2,14.49,15.5,23.11,18,9.37,2.67,23.51-5.32,31.82-2.12,9.31,3.58,10.93,17.72,18.71,21.89,8.1,4.34,20.58,2.31,26.81,7.2,7.6,6-1,18.1,3.51,24.72,5.52,8.2,15.07,10.55,15.07,19.48s-11.51,11.06-16.86,19.15c-4.33,6.55,4.48,16.25-2.94,22.17-6.09,4.85-18.53,2.88-26.46,7.2-7.77,4.23-3.27,18.39-12.6,22-8.31,3.25-24.55-4.67-33.95-2-8.64,2.49-13.7,20.58-23.14,22.57-11.11,2.35-25.52-11.76-37.58-10.17-11.34,1.5-21.46,18.89-33.48,19.65-11.48.72-23.75-15.22-35.71-15.22s-24.23,15.94-35.71,15.22c-12-.76-22.14-18.15-33.48-19.65-12.06-1.59-26.47,12.52-37.58,10.17-9.44-2-14.5-20.08-23.14-22.57-9.4-2.71-25.64,5.21-34,2-9.33-3.64-4.83-17.8-12.6-22-7.93-4.32-20.37-2.35-26.46-7.2-7.42-5.92,1.39-15.62-2.94-22.17-5.35-8.09-16.86-10.36-16.86-19.15s9.55-11.28,15.07-19.48c4.46-6.62-4.09-18.76,3.51-24.72,6.23-4.89,18.71-2.86,26.81-7.2,7.78-4.17,7.39-18.31,16.7-21.89,8.31-3.2,24.46,4.79,33.83,2.12,8.62-2.46,13.7-16,23.11-18,11-2.29,23.26,9.6,35.19,8,11.23-1.46,21.25-16.57,33.15-17.31C976,1048.36,988.16,1062.05,1000,1062.05Z" style="fill:#f1decd;stroke:#231f20;stroke-miterlimit:10;stroke-width:7.89225326816593px"/><path d="M1185.76,1140.83c0,38.54-83.17,69.77-185.76,69.77s-185.76-31.23-185.76-69.77" style="fill:none;stroke:#231f20;stroke-linecap:round;stroke-miterlimit:10;stroke-width:7.89225326816593px"/><path d="M1141.81,1158.41c-29.87-21.26-82.22-35.36-141.81-35.36s-111.94,14.1-141.81,35.36" style="fill:none;stroke:#231f20;stroke-linecap:round;stroke-miterlimit:10;stroke-width:7.89225326816593px"/><path d="M1159.59,1108.94c-33.61-19.25-92.52-32-159.59-32s-126,12.77-159.59,32" style="fill:none;stroke:#231f20;stroke-linecap:round;stroke-miterlimit:10;stroke-width:7.89225326816593px"/><path d="M505,1278.16c84,0,152.87-26,175.23-60.27,26.42-63,24.55-58.74,24.55-58.74,0-48.65-89.45-88.09-199.78-88.09s-199.79,39.44-199.79,88.09c0,0-1.87-4.22,26.39,58.74C354,1252.12,421,1278.16,505,1278.16Z" style="fill:#f1decd;stroke:#231f20;stroke-miterlimit:10;stroke-width:7.89225326816593px"/><path d="M505,1062.05c11.84,0,24-13.69,35.35-13,11.89.74,21.91,15.85,33.14,17.31,11.93,1.56,24.19-10.33,35.2-8,9.4,2,14.49,15.5,23.1,18,9.38,2.67,23.52-5.32,31.83-2.12,9.3,3.58,10.92,17.72,18.71,21.89,8.1,4.34,20.58,2.31,26.81,7.2,7.6,6-.95,18.1,3.5,24.72,5.53,8.2,15.07,10.55,15.07,19.48s-11.5,11.06-16.85,19.15c-4.34,6.55,4.47,16.25-2.94,22.17-6.1,4.85-18.53,2.88-26.46,7.2-7.77,4.23-3.27,18.39-12.6,22-8.32,3.25-24.55-4.67-34-2-8.63,2.49-13.69,20.58-23.13,22.57-11.11,2.35-25.52-11.76-37.58-10.17-11.34,1.5-21.46,18.89-33.48,19.65-11.48.72-23.75-15.22-35.71-15.22s-24.24,15.94-35.71,15.22c-12-.76-22.15-18.15-33.48-19.65-12.06-1.59-26.48,12.52-37.59,10.17-9.44-2-14.49-20.08-23.13-22.57-9.4-2.71-25.64,5.21-34,2-9.32-3.64-4.83-17.8-12.59-22-7.94-4.32-20.37-2.35-26.46-7.2-7.42-5.92,1.39-15.62-2.94-22.17-5.35-8.09-16.86-10.36-16.86-19.15s9.55-11.28,15.07-19.48c4.45-6.62-4.1-18.76,3.5-24.72,6.24-4.89,18.71-2.86,26.82-7.2,7.78-4.17,7.39-18.31,16.7-21.89,8.3-3.2,24.45,4.79,33.83,2.12,8.62-2.46,13.7-16,23.11-18,11-2.29,23.26,9.6,35.19,8,11.23-1.46,21.25-16.57,33.14-17.31C481,1048.36,493.16,1062.05,505,1062.05Z" style="fill:#f1decd;stroke:#231f20;stroke-miterlimit:10;stroke-width:7.89225326816593px"/><path d="M646.81,1158.41c-29.86-21.26-82.21-35.36-141.8-35.36s-111.95,14.1-141.81,35.36" style="fill:none;stroke:#231f20;stroke-linecap:round;stroke-miterlimit:10;stroke-width:7.89225326816593px"/><path d="M664.6,1108.94c-33.61-19.25-92.52-32-159.59-32s-126,12.77-159.6,32" style="fill:none;stroke:#231f20;stroke-linecap:round;stroke-miterlimit:10;stroke-width:7.89225326816593px"/><path d="M1577,1563.44c98,0,178.21-30.36,204.29-70.26,30.8-73.4,28.61-68.48,28.61-68.48,0-56.71-104.27-102.69-232.9-102.69s-232.9,46-232.9,102.69c0,0-2.18-4.92,30.77,68.48C1401,1533.08,1479.1,1563.44,1577,1563.44Z" style="fill:#f1decd;stroke:#231f20;stroke-miterlimit:10;stroke-width:7.89225326816593px"/><path d="M1577,1311.51c13.81,0,28-16,41.22-15.13,13.86.87,25.54,18.48,38.63,20.18,13.91,1.81,28.19-12,41-9.37,11,2.29,16.89,18.07,26.94,20.93,10.93,3.11,27.41-6.2,37.1-2.47,10.84,4.18,12.73,20.66,21.8,25.52,9.45,5.06,24,2.69,31.26,8.39,8.86,7-1.11,21.1,4.09,28.82,6.44,9.56,17.57,12.29,17.57,22.71,0,10.24-13.42,12.89-19.65,22.32-5.06,7.64,5.21,18.95-3.43,25.84-7.11,5.66-21.6,3.36-30.85,8.4-9,4.94-3.81,21.44-14.68,25.68-9.7,3.79-28.62-5.44-39.59-2.28-10.06,2.9-16,24-27,26.31-13,2.74-29.76-13.7-43.82-11.85-13.22,1.74-25,22-39,22.9-13.38.84-27.68-17.75-41.63-17.75s-28.25,18.59-41.63,17.75c-14-.89-25.81-21.16-39-22.9-14.06-1.85-30.86,14.59-43.81,11.85-11-2.32-16.9-23.41-27-26.31-11-3.16-29.89,6.07-39.58,2.28-10.88-4.24-5.63-20.74-14.69-25.68-9.25-5-23.74-2.74-30.84-8.4-8.65-6.89,1.62-18.2-3.43-25.84-6.24-9.43-19.65-12.08-19.65-22.32,0-10.42,11.13-13.15,17.57-22.71,5.19-7.72-4.78-21.87,4.08-28.82,7.27-5.7,21.81-3.33,31.26-8.39,9.07-4.86,8.62-21.34,19.46-25.52,9.69-3.73,28.52,5.58,39.45,2.47,10-2.86,16-18.64,26.94-20.93,12.83-2.68,27.12,11.18,41,9.37,13.09-1.7,24.77-19.31,38.64-20.18C1549.08,1295.55,1563.24,1311.51,1577,1311.51Z" style="fill:#f1decd;stroke:#231f20;stroke-miterlimit:10;stroke-width:7.89225326816593px"/><path d="M1793.59,1403.35c0,44.92-96.95,81.34-216.55,81.34s-216.55-36.42-216.55-81.34" style="fill:none;stroke:#231f20;stroke-linecap:round;stroke-miterlimit:10;stroke-width:7.89225326816593px"/><path d="M1742.35,1423.85c-34.81-24.79-95.84-41.23-165.31-41.23s-130.5,16.44-165.31,41.23" style="fill:none;stroke:#231f20;stroke-linecap:round;stroke-miterlimit:10;stroke-width:7.89225326816593px"/><path d="M1763.09,1366.17c-39.18-22.44-107.86-37.32-186-37.32s-146.87,14.88-186,37.32" style="fill:none;stroke:#231f20;stroke-linecap:round;stroke-miterlimit:10;stroke-width:7.89225326816593px"/><path d="M1000,1563.44c98,0,178.21-30.36,204.28-70.26,30.8-73.4,28.62-68.48,28.62-68.48C1232.9,1368,1128.63,1322,1000,1322s-232.9,46-232.9,102.69c0,0-2.18-4.92,30.76,68.48C823.93,1533.08,902.05,1563.44,1000,1563.44Z" style="fill:#f1decd;stroke:#231f20;stroke-miterlimit:10;stroke-width:7.89225326816593px"/><path d="M1000,1311.51c13.8,0,28-16,41.21-15.13,13.87.87,25.55,18.48,38.64,20.18,13.91,1.81,28.19-12,41-9.37,11,2.29,16.89,18.07,26.94,20.93,10.92,3.11,27.41-6.2,37.09-2.47,10.85,4.18,12.74,20.66,21.81,25.52,9.45,5.06,24,2.69,31.26,8.39,8.86,7-1.11,21.1,4.09,28.82,6.43,9.56,17.56,12.29,17.56,22.71,0,10.24-13.41,12.89-19.65,22.32-5,7.64,5.22,18.95-3.43,25.84-7.1,5.66-21.59,3.36-30.84,8.4-9,4.94-3.81,21.44-14.69,25.68-9.69,3.79-28.62-5.44-39.58-2.28-10.07,2.9-16,24-27,26.31-13,2.74-29.75-13.7-43.81-11.85-13.22,1.74-25,22-39,22.9-13.38.84-27.68-17.75-41.63-17.75s-28.25,18.59-41.63,17.75c-14-.89-25.81-21.16-39-22.9-14.06-1.85-30.86,14.59-43.81,11.85-11-2.32-16.9-23.41-27-26.31-11-3.16-29.89,6.07-39.58,2.28-10.88-4.24-5.64-20.74-14.69-25.68-9.25-5-23.74-2.74-30.84-8.4-8.65-6.89,1.62-18.2-3.43-25.84-6.24-9.43-19.65-12.08-19.65-22.32,0-10.42,11.13-13.15,17.56-22.71,5.2-7.72-4.77-21.87,4.09-28.82,7.27-5.7,21.81-3.33,31.26-8.39,9.07-4.86,8.61-21.34,19.46-25.52,9.69-3.73,28.52,5.58,39.44,2.47,10.05-2.86,16-18.64,26.94-20.93,12.84-2.68,27.12,11.18,41,9.37,13.09-1.7,24.77-19.31,38.64-20.18C972,1295.55,986.2,1311.51,1000,1311.51Z" style="fill:#f1decd;stroke:#231f20;stroke-miterlimit:10;stroke-width:7.89225326816593px"/><path d="M1216.55,1403.35c0,44.92-97,81.34-216.55,81.34s-216.55-36.42-216.55-81.34" style="fill:none;stroke:#231f20;stroke-linecap:round;stroke-miterlimit:10;stroke-width:7.89225326816593px"/><path d="M1165.31,1423.85c-34.81-24.79-95.84-41.23-165.31-41.23s-130.5,16.44-165.31,41.23" style="fill:none;stroke:#231f20;stroke-linecap:round;stroke-miterlimit:10;stroke-width:7.89225326816593px"/><path d="M1186.05,1366.17c-39.18-22.44-107.86-37.32-186-37.32s-146.87,14.88-186,37.32" style="fill:none;stroke:#231f20;stroke-linecap:round;stroke-miterlimit:10;stroke-width:7.89225326816593px"/><path d="M423,1563.44c97.94,0,178.21-30.36,204.28-70.26,30.8-73.4,28.62-68.48,28.62-68.48C655.86,1368,551.59,1322,423,1322s-232.9,46-232.9,102.69c0,0-2.19-4.92,30.76,68.48C246.89,1533.08,325,1563.44,423,1563.44Z" style="fill:#f1decd;stroke:#231f20;stroke-miterlimit:10;stroke-width:7.89225326816593px"/><path d="M423,1311.51c13.8,0,28-16,41.21-15.13,13.87.87,25.55,18.48,38.64,20.18,13.9,1.81,28.19-12,41-9.37,11,2.29,16.9,18.07,26.94,20.93,10.93,3.11,27.42-6.2,37.1-2.47,10.85,4.18,12.74,20.66,21.81,25.52,9.45,5.06,24,2.69,31.26,8.39,8.86,7-1.11,21.1,4.08,28.82,6.44,9.56,17.57,12.29,17.57,22.71,0,10.24-13.41,12.89-19.65,22.32-5.05,7.64,5.22,18.95-3.43,25.84-7.1,5.66-21.59,3.36-30.84,8.4-9.06,4.94-3.81,21.44-14.69,25.68-9.69,3.79-28.62-5.44-39.58-2.28-10.07,2.9-16,24-27,26.31-12.95,2.74-29.75-13.7-43.81-11.85-13.22,1.74-25,22-39,22.9-13.38.84-27.69-17.75-41.63-17.75s-28.25,18.59-41.63,17.75c-14-.89-25.81-21.16-39-22.9-14.06-1.85-30.86,14.59-43.82,11.85-11-2.32-16.9-23.41-27-26.31-11-3.16-29.89,6.07-39.59,2.28-10.87-4.24-5.63-20.74-14.68-25.68-9.25-5-23.74-2.74-30.85-8.4-8.64-6.89,1.63-18.2-3.43-25.84-6.23-9.43-19.65-12.08-19.65-22.32,0-10.42,11.13-13.15,17.57-22.71,5.2-7.72-4.77-21.87,4.09-28.82,7.26-5.7,21.81-3.33,31.26-8.39,9.07-4.86,8.61-21.34,19.46-25.52,9.69-3.73,28.51,5.58,39.44,2.47,10.05-2.86,16-18.64,26.94-20.93,12.84-2.68,27.12,11.18,41,9.37,13.09-1.7,24.77-19.31,38.63-20.18C395,1295.55,409.15,1311.51,423,1311.51Z" style="fill:#f1decd;stroke:#231f20;stroke-miterlimit:10;stroke-width:7.89225326816593px"/><path d="M639.51,1403.35c0,44.92-97,81.34-216.55,81.34s-216.55-36.42-216.55-81.34" style="fill:none;stroke:#231f20;stroke-linecap:round;stroke-miterlimit:10;stroke-width:7.89225326816593px"/><path d="M588.27,1423.85c-34.81-24.79-95.84-41.23-165.31-41.23s-130.5,16.44-165.31,41.23" style="fill:none;stroke:#231f20;stroke-linecap:round;stroke-miterlimit:10;stroke-width:7.89225326816593px"/><path d="M609,1366.17c-39.17-22.44-107.86-37.32-186-37.32s-146.87,14.88-186,37.32" style="fill:none;stroke:#231f20;stroke-linecap:round;stroke-miterlimit:10;stroke-width:7.89225326816593px"/><path d="M322.37,1153.53C338.28,1186,414,1210.6,505,1210.6s166.72-24.6,182.63-57.07c-39.57-31.64-106.56-52.48-182.63-52.48S362,1121.89,322.37,1153.53Z" style="fill:#915524"/><path d="M690.77,1140.83c0,38.54-83.17,69.77-185.76,69.77s-185.76-31.23-185.76-69.77" style="fill:none;stroke:#231f20;stroke-linecap:round;stroke-miterlimit:10;stroke-width:7.89225326816593px"/><path d="M1185.76,1140.83c0,38.54-83.17,69.77-185.76,69.77s-185.76-31.23-185.76-69.77" style="fill:none;stroke:#231f20;stroke-linecap:round;stroke-miterlimit:10;stroke-width:7.89225326816593px"/><g id="layer5"><g id="g986"><path id="rect981" d="M1002,953.31v-243M1099.33,856,1002,970.69,904.72,856" style="fill:none;stroke:#231f20;stroke-linecap:round;stroke-linejoin:round;stroke-width:24px"/></g></g><path d="M1119,594.35c-24.88,43.91-129.68,33.94-197.89-4.72-19.81-11.23-38.93-26-52.58-44.77a106.39,106.39,0,0,1-16-31.82c-3.72-12.38-3.68-25.5-7.43-37.86-1.78-5.86-5-11-19.47-18.91L385.56,223.51c-11.2-5.68-19.46-29.24-9.64-48.4l1.67-3c11.4-18.26,35.86-23.28,46.48-16.59l425.8,258c14.23,8.3,20.28,8.47,26.22,7,12.53-3.13,23.77-9.91,36.3-13.07a106.43,106.43,0,0,1,35.52-2.62c23.13,2.05,45.61,10.88,65.43,22.11,68.2,38.66,130.59,123.45,105.7,167.36" style="fill:#d0d2d3;stroke:#231f20;stroke-miterlimit:10;stroke-width:10.555352037320189px"/><path d="M1102.53,560.64l1.09-1c30.77-28,40.78-69.32,37.65-115.11-19.94,21.72-55.55,23.6-70.29,18.52-44.31-15.27-95.18-56.95-140.72-25.3-25.1,17.44-49.37,63.19-35,97.89,21,50.77,78.51,63.18,121.18,61.21C1050.77,595.28,1074.4,585.65,1102.53,560.64Z" style="fill:#915524;stroke:#231f20;stroke-miterlimit:10;stroke-width:10.001996230964219px"/><path d="M878.77,457.38c24.89,43.91,129.69,33.94,197.89-4.72,19.81-11.23,38.94-26,52.59-44.77a107,107,0,0,0,16-31.82c3.72-12.38,3.68-25.5,7.43-37.86,1.77-5.86,5-11,19.46-18.91L1612.26,86.54c11.19-5.68,19.45-29.24,9.64-48.4l-1.68-3c-11.39-18.26-35.85-23.28-46.47-16.59l-425.8,258c-14.24,8.31-20.28,8.48-26.22,7-12.54-3.13-23.77-9.91-36.3-13.07a106.49,106.49,0,0,0-35.53-2.62c-23.12,2-45.61,10.88-65.42,22.11-68.2,38.66-130.59,123.45-105.71,167.36" style="fill:#d0d2d3;stroke:#231f20;stroke-miterlimit:10;stroke-width:10.555352037320189px"/></svg>