<svg xmlns="http://www.w3.org/2000/svg" xmlns:xlink="http://www.w3.org/1999/xlink" height="1668.05" width="1924.013" xmlns:v="https://vecta.io/nano"><style><![CDATA[.B{stroke:#231f20}.C{fill:none}.D{stroke-linecap:round}.E{stroke-miterlimit:10}.F{fill:#f1decd}.G{stroke-width:24}.H{stroke-width:7.892}.I{fill:#915524}.J{stroke-width:15.785}]]></style><g fill="#f1f2f2" class="B E"><path d="M1900.55 1607.3l-63 41.08a47.71 47.71 0 0 1-26 7.68H112.25a47.7 47.7 0 0 1-25.66-7.44l-59.1-37.74" class="J"/><path d="M1841.25 1626.7H82.75c-53.37 0-82.72-29.87-66.1-65.56l221.75-476.4c9.45-20.28 48.25-36.34 86.9-36.34h1273.44c38.64 0 77.44 16.06 86.9 36.34l221.75 476.4c16.64 35.7-12.74 65.56-66.1 65.56z" class="G"/></g><g class="H B"><path d="M62.4 1578.75l207.7-459.26c7.7-17.06 40.13-30.62 72.57-30.62h1238.66c32.44 0 64.86 13.56 72.56 30.62l205.54 452.9" stroke-linejoin="round" class="C D"/><g class="E"><g class="F"><path d="M1457 1300.4c84 0 152.88-26 175.24-60.27l24.55-58.74c0-48.65-89.45-88.1-199.8-88.1s-199.78 39.44-199.78 88.1c0 0-1.87-4.22 26.4 58.74 22.4 34.23 89.4 60.27 173.4 60.27z"/><path d="M1457 1084.3c11.85 0 24-13.7 35.36-13 11.9.74 21.9 15.85 33.14 17.3 11.93 1.56 24.18-10.33 35.2-8 9.4 2 14.5 15.5 23.1 18 9.38 2.67 23.52-5.32 31.83-2.12 9.3 3.58 10.92 17.72 18.7 21.9 8.1 4.34 20.58 2.3 26.82 7.2 7.6 6-1 18.1 3.5 24.72 5.52 8.2 15.07 10.55 15.07 19.48s-11.5 11.06-16.86 19.15c-4.33 6.55 4.48 16.25-2.94 22.17-6.1 4.85-18.52 2.88-26.46 7.2-7.76 4.23-3.27 18.4-12.6 22-8.32 3.25-24.56-4.67-34-2-8.64 2.5-13.7 20.58-23.13 22.57-11.1 2.35-25.53-11.76-37.6-10.17-11.33 1.5-21.46 18.9-33.48 19.65-11.47.72-23.74-15.22-35.7-15.22s-24.23 15.94-35.7 15.22c-12-.76-22.14-18.15-33.48-19.65-12.06-1.6-26.47 12.52-37.58 10.17-9.44-2-14.5-20.08-23.13-22.57-9.4-2.7-25.64 5.2-34 2-9.33-3.64-4.83-17.8-12.6-22-7.93-4.32-20.36-2.35-26.46-7.2-7.4-5.92 1.4-15.62-2.94-22.17-5.35-8.1-16.85-10.36-16.85-19.15s9.54-11.28 15.07-19.48c4.45-6.62-4.1-18.76 3.5-24.72 6.23-4.9 18.7-2.86 26.8-7.2 7.8-4.17 7.4-18.3 16.7-21.9 8.3-3.2 24.46 4.8 33.84 2.12 8.6-2.46 13.7-16 23.1-18 11-2.3 23.27 9.6 35.2 8 11.23-1.46 21.25-16.57 33.14-17.3 11.43-.7 23.58 13 35.43 13z"/></g><path d="M1642.75 1163.07c0 38.54-83.16 69.77-185.76 69.77s-185.76-31.23-185.76-69.77m327.57 17.58c-29.86-21.26-82.2-35.36-141.8-35.36s-111.94 14.1-141.8 35.36m301.4-49.47c-33.6-19.25-92.53-32-159.6-32s-126 12.77-159.6 32" class="C D"/><g class="F"><path d="M962 1300.4c84 0 152.87-26 175.24-60.27l24.54-58.74c0-48.65-89.44-88.1-199.78-88.1s-199.78 39.44-199.78 88.1c0 0-1.88-4.22 26.38 58.74 22.4 34.23 89.4 60.27 173.4 60.27z"/><path d="M962 1084.3c11.84 0 24-13.7 35.35-13 11.9.74 21.92 15.85 33.15 17.3 11.93 1.56 24.18-10.33 35.2-8 9.4 2 14.5 15.5 23.1 18 9.37 2.67 23.5-5.32 31.82-2.12 9.3 3.58 10.93 17.72 18.7 21.9 8.1 4.34 20.58 2.3 26.8 7.2 7.6 6-1 18.1 3.5 24.72 5.52 8.2 15.07 10.55 15.07 19.48s-11.5 11.06-16.86 19.15c-4.33 6.55 4.48 16.25-2.94 22.17-6.1 4.85-18.53 2.88-26.46 7.2-7.77 4.23-3.27 18.4-12.6 22-8.3 3.25-24.55-4.67-33.95-2-8.64 2.5-13.7 20.58-23.14 22.57-11.1 2.35-25.52-11.76-37.58-10.17-11.34 1.5-21.46 18.9-33.48 19.65-11.48.72-23.75-15.22-35.7-15.22s-24.23 15.94-35.7 15.22c-12-.76-22.14-18.15-33.48-19.65-12.06-1.6-26.47 12.52-37.58 10.17-9.44-2-14.5-20.08-23.14-22.57-9.4-2.7-25.64 5.2-34 2-9.33-3.64-4.83-17.8-12.6-22-7.93-4.32-20.37-2.35-26.46-7.2-7.42-5.92 1.4-15.62-2.94-22.17-5.35-8.1-16.86-10.36-16.86-19.15s9.55-11.28 15.07-19.48c4.46-6.62-4.1-18.76 3.5-24.72 6.23-4.9 18.7-2.86 26.8-7.2 7.78-4.17 7.4-18.3 16.7-21.9 8.3-3.2 24.46 4.8 33.83 2.12 8.62-2.46 13.7-16 23.1-18 11-2.3 23.26 9.6 35.2 8 11.23-1.46 21.25-16.57 33.15-17.3 11.4-.7 23.56 13 35.4 13z"/></g><g class="C D"><use xlink:href="#B"/><path d="M1103.8 1180.65c-29.87-21.26-82.22-35.36-141.8-35.36s-111.94 14.1-141.8 35.36m301.38-49.47c-33.6-19.25-92.52-32-159.6-32s-126 12.77-159.6 32"/></g><g class="F"><path d="M467 1300.4c84 0 152.87-26 175.23-60.27l24.55-58.74c0-48.65-89.45-88.1-199.78-88.1s-199.8 39.44-199.8 88.1c0 0-1.87-4.22 26.4 58.74 22.4 34.23 89.4 60.27 173.4 60.27z"/><path d="M467 1084.3c11.84 0 24-13.7 35.35-13 11.9.74 21.9 15.85 33.14 17.3 11.93 1.56 24.2-10.33 35.2-8 9.4 2 14.5 15.5 23.1 18 9.38 2.67 23.52-5.32 31.83-2.12 9.3 3.58 10.92 17.72 18.7 21.9 8.1 4.34 20.58 2.3 26.8 7.2 7.6 6-.95 18.1 3.5 24.72 5.53 8.2 15.07 10.55 15.07 19.48s-11.5 11.06-16.85 19.15c-4.34 6.55 4.47 16.25-2.94 22.17-6.1 4.85-18.53 2.88-26.46 7.2-7.77 4.23-3.27 18.4-12.6 22-8.32 3.25-24.55-4.67-34-2-8.63 2.5-13.7 20.58-23.13 22.57-11.1 2.35-25.52-11.76-37.58-10.17-11.34 1.5-21.46 18.9-33.48 19.65-11.48.72-23.75-15.22-35.7-15.22s-24.24 15.94-35.7 15.22c-12-.76-22.15-18.15-33.48-19.65-12.06-1.6-26.48 12.52-37.6 10.17-9.44-2-14.5-20.08-23.13-22.57-9.4-2.7-25.64 5.2-34 2-9.32-3.64-4.83-17.8-12.6-22-7.94-4.32-20.37-2.35-26.46-7.2-7.42-5.92 1.4-15.62-2.94-22.17-5.35-8.1-16.86-10.36-16.86-19.15s9.55-11.28 15.07-19.48c4.45-6.62-4.1-18.76 3.5-24.72 6.24-4.9 18.7-2.86 26.82-7.2 7.78-4.17 7.4-18.3 16.7-21.9 8.3-3.2 24.45 4.8 33.83 2.12 8.62-2.46 13.7-16 23.1-18 11-2.3 23.26 9.6 35.2 8 11.23-1.46 21.25-16.57 33.14-17.3 11.44-.7 23.6 13 35.44 13z"/></g><path d="M608.8 1180.65c-29.86-21.26-82.2-35.36-141.8-35.36s-111.95 14.1-141.8 35.36m301.4-49.47c-33.6-19.25-92.52-32-159.6-32s-126 12.77-159.6 32" class="C D"/><g class="F"><path d="M1539 1585.68c98 0 178.2-30.36 204.3-70.26l28.6-68.48c0-56.7-104.27-102.7-232.9-102.7s-232.9 46-232.9 102.7c0 0-2.18-4.92 30.77 68.48 26.13 39.9 104.23 70.26 202.13 70.26z"/><path d="M1539 1333.75c13.8 0 28-16 41.22-15.13 13.86.87 25.54 18.48 38.63 20.18 13.9 1.8 28.2-12 41-9.37 11 2.3 16.9 18.07 26.94 20.93 10.93 3.1 27.4-6.2 37.1-2.47 10.84 4.18 12.73 20.66 21.8 25.52 9.45 5.06 24 2.7 31.26 8.4 8.86 7-1.1 21.1 4.1 28.82 6.44 9.56 17.57 12.3 17.57 22.7 0 10.24-13.42 12.9-19.65 22.32-5.06 7.64 5.2 18.95-3.43 25.84-7.1 5.66-21.6 3.36-30.85 8.4-9 4.94-3.8 21.44-14.68 25.68-9.7 3.8-28.62-5.44-39.6-2.28-10.06 2.9-16 24-27 26.3-13 2.74-29.76-13.7-43.82-11.85-13.22 1.74-25 22-39 22.9-13.38.84-27.68-17.75-41.63-17.75s-28.25 18.6-41.63 17.75c-14-.9-25.8-21.16-39-22.9-14.06-1.85-30.86 14.6-43.8 11.85-11-2.32-16.9-23.4-27-26.3-11-3.16-29.9 6.07-39.58 2.28-10.88-4.24-5.63-20.74-14.7-25.68-9.25-5-23.74-2.74-30.84-8.4-8.65-6.9 1.62-18.2-3.43-25.84-6.24-9.43-19.65-12.08-19.65-22.32 0-10.42 11.13-13.15 17.57-22.7 5.2-7.72-4.78-21.87 4.08-28.82 7.27-5.7 21.8-3.33 31.26-8.4 9.07-4.86 8.62-21.34 19.46-25.52 9.7-3.73 28.52 5.58 39.45 2.47 10-2.86 16-18.64 26.94-20.93 12.83-2.68 27.12 11.18 41 9.37 13.1-1.7 24.77-19.3 38.64-20.18 13.35-.83 27.5 15.13 41.27 15.13z"/></g><g class="C D"><path d="M1755.59 1425.6c0 44.92-96.95 81.34-216.55 81.34s-216.55-36.42-216.55-81.34"/><use xlink:href="#C"/><path d="M1725.09 1388.4c-39.18-22.44-107.86-37.32-186-37.32s-146.87 14.88-186 37.32"/></g><g class="F"><path d="M962 1585.68c98 0 178.2-30.36 204.28-70.26l28.62-68.48c0-56.7-104.27-102.7-232.9-102.7s-232.9 46-232.9 102.7c0 0-2.18-4.92 30.76 68.48 26.07 39.9 104.2 70.27 202.14 70.27z"/><path d="M962 1333.75c13.8 0 28-16 41.2-15.13 13.87.87 25.55 18.48 38.64 20.18 13.9 1.8 28.2-12 41-9.37 11 2.3 16.9 18.07 26.94 20.93 10.92 3.1 27.4-6.2 37.1-2.47 10.85 4.18 12.74 20.66 21.8 25.52 9.45 5.06 24 2.7 31.26 8.4 8.86 7-1.1 21.1 4.1 28.82 6.43 9.56 17.56 12.3 17.56 22.7 0 10.24-13.4 12.9-19.65 22.32-5 7.64 5.22 18.95-3.43 25.84-7.1 5.66-21.6 3.36-30.84 8.4-9 4.94-3.8 21.44-14.7 25.68-9.7 3.8-28.62-5.44-39.58-2.28-10.07 2.9-16 24-27 26.3-13 2.74-29.75-13.7-43.8-11.85-13.22 1.74-25 22-39 22.9-13.38.84-27.68-17.75-41.63-17.75s-28.25 18.6-41.63 17.75c-14-.9-25.8-21.16-39-22.9-14.06-1.85-30.86 14.6-43.8 11.85-11-2.32-16.9-23.4-27-26.3-11-3.16-29.9 6.07-39.58 2.28-10.88-4.24-5.64-20.74-14.7-25.68-9.25-5-23.74-2.74-30.84-8.4-8.65-6.9 1.62-18.2-3.43-25.84-6.24-9.43-19.65-12.08-19.65-22.32 0-10.42 11.13-13.15 17.56-22.7 5.2-7.72-4.77-21.87 4.1-28.82 7.27-5.7 21.8-3.33 31.26-8.4 9.07-4.86 8.6-21.34 19.46-25.52 9.7-3.73 28.52 5.58 39.44 2.47 10.05-2.86 16-18.64 26.94-20.93 12.84-2.68 27.12 11.18 41 9.37 13.1-1.7 24.77-19.3 38.64-20.18 13.27-.83 27.47 15.13 41.27 15.13z"/></g><g class="C D"><path d="M1178.55 1425.6c0 44.92-97 81.34-216.55 81.34s-216.55-36.42-216.55-81.34"/><use xlink:href="#C" x="-577.04"/><path d="M1148.05 1388.4c-39.18-22.44-107.86-37.32-186-37.32s-146.87 14.88-186 37.32"/></g><g class="F"><path d="M385 1585.68c97.94 0 178.2-30.36 204.28-70.26l28.62-68.48c-.04-56.7-104.3-102.7-232.9-102.7s-232.9 46-232.9 102.7c0 0-2.2-4.92 30.76 68.48 26.03 39.9 104.14 70.27 202.14 70.27z"/><path d="M385 1333.75c13.8 0 28-16 41.2-15.13 13.87.87 25.55 18.48 38.64 20.18 13.9 1.8 28.2-12 41-9.37 11 2.3 16.9 18.07 26.94 20.93 10.93 3.1 27.42-6.2 37.1-2.47 10.85 4.18 12.74 20.66 21.8 25.52 9.45 5.06 24 2.7 31.26 8.4 8.86 7-1.1 21.1 4.08 28.82 6.44 9.56 17.57 12.3 17.57 22.7 0 10.24-13.4 12.9-19.65 22.32-5.05 7.64 5.22 18.95-3.43 25.84-7.1 5.66-21.6 3.36-30.84 8.4-9.06 4.94-3.8 21.44-14.7 25.68-9.7 3.8-28.62-5.44-39.58-2.28-10.07 2.9-16 24-27 26.3-12.95 2.74-29.75-13.7-43.8-11.85-13.22 1.74-25 22-39 22.9-13.38.84-27.7-17.75-41.63-17.75s-28.25 18.6-41.63 17.75c-14-.9-25.8-21.16-39-22.9-14.06-1.85-30.86 14.6-43.82 11.85-11-2.32-16.9-23.4-27-26.3-11-3.16-29.9 6.07-39.6 2.28-10.87-4.24-5.63-20.74-14.68-25.68-9.25-5-23.74-2.74-30.85-8.4-8.64-6.9 1.63-18.2-3.43-25.84-6.23-9.43-19.65-12.08-19.65-22.32 0-10.42 11.13-13.15 17.57-22.7 5.2-7.72-4.77-21.87 4.1-28.82 7.26-5.7 21.8-3.33 31.26-8.4 9.07-4.86 8.6-21.34 19.46-25.52 9.7-3.73 28.5 5.58 39.44 2.47 10.05-2.86 16-18.64 26.94-20.93 12.84-2.68 27.12 11.18 41 9.37 13.1-1.7 24.77-19.3 38.63-20.18 13.28-.83 27.43 15.13 41.28 15.13z"/></g><g class="C D"><path d="M601.51 1425.6c0 44.92-97 81.34-216.55 81.34s-216.55-36.42-216.55-81.34"/><use xlink:href="#C" x="-1154.08"/><path d="M571 1388.4c-39.17-22.44-107.86-37.32-186-37.32s-146.87 14.88-186 37.32"/></g></g></g><path d="M284.37 1175.77c15.9 32.47 91.63 57.07 182.63 57.07s166.72-24.6 182.63-57.07c-39.57-31.64-106.56-52.48-182.63-52.48s-143 20.84-182.63 52.48z" class="I"/><use xlink:href="#B" x="-494.99" class="B C D E H"/><path d="M779.37 1175.77c15.9 32.47 91.63 57.07 182.63 57.07s166.73-24.6 182.63-57.07c-39.57-31.64-106.55-52.48-182.63-52.48s-143.06 20.84-182.63 52.48z" class="I"/><g class="B E"><use xlink:href="#B" class="C D H"/><path d="M1719.58 660.52c118.7-201.23 151-500.66-92.2-644.13-57.3-33.8-225.5 131-368 372.64l-.4.68c-142.53 241.62-205.4 468.56-148.13 502.35 243.16 143.48 489.63-29.63 608.34-230.82" fill="#fff" class="G"/></g><text y="1717.431" x="247.568" transform="rotate(300.669)" font-size="205.907" font-family="ArialRoundedMTBold, Arial Rounded MT Bold" fill="#231f20">1</text><path d="M1607.34 42.74c27.45 16.2-39.94 223.38-173.24 449.35l-.42.72c-133.3 226-282 385.17-309.5 369" class="B C D E G"/><path d="M1009.47 1186.6c-12.46-78.13 23.4-301.42 147.6-345.48 0 0 26.28-26.73 21.17-26-266.24 37.05-286.35 301.35-286.35 361.7" class="I"/><path d="M891.9 1176.83c0-61.52 17.4-343 298.5-371.8m-33.32 42.7c-124.2 44.06-160.06 260.73-147.6 338.86" class="B C D E J"/><defs ><path id="B" d="M1147.76 1163.07c0 38.54-83.17 69.77-185.76 69.77s-185.76-31.23-185.76-69.77"/><path id="C" d="M1704.35 1446.1c-34.8-24.8-95.84-41.23-165.3-41.23s-130.5 16.44-165.3 41.23"/></defs></svg>