<svg id="Layer_1" data-name="Layer 1" xmlns="http://www.w3.org/2000/svg" xmlns:xlink="http://www.w3.org/1999/xlink" viewBox="0 0 2000 1538"><defs><linearGradient id="linear-gradient" x1="-671.51" y1="5473.12" x2="-671.03" y2="5438.55" gradientTransform="translate(-2729.36 -3086.48) rotate(-45.53)" gradientUnits="userSpaceOnUse"><stop offset="0" stop-color="#53804a"/><stop offset="1" stop-color="#006838"/></linearGradient><linearGradient id="linear-gradient-2" x1="-652.7" y1="5473.38" x2="-652.23" y2="5438.81" xlink:href="#linear-gradient"/><linearGradient id="linear-gradient-3" x1="-6958.28" y1="-10090.73" x2="-6957.81" y2="-10125.3" gradientTransform="translate(-6652.3 10915.16) rotate(71.75)" xlink:href="#linear-gradient"/><linearGradient id="linear-gradient-4" x1="-6939.48" y1="-10090.47" x2="-6939.01" y2="-10125.04" gradientTransform="translate(-6652.3 10915.16) rotate(71.75)" xlink:href="#linear-gradient"/></defs><g id="layer2"><path id="path839" d="M1040.78,497.61c28.5,54.77,123.91,62.84,184.64,30.13s147.55-169,147.55-169L1920.32,73.9a30.24,30.24,0,0,0-27.92-53.64L1345,305.14c-73.92,2.71-158.56-9.2-222.94,24.09-73.37,37.94-109.8,113.62-81.3,168.38Z" style="fill:#231f20"/></g><path d="M1958.31,1448.81,1894,1498.06a43.61,43.61,0,0,1-26.58,9.2h-1735a43.6,43.6,0,0,1-26.2-8.91L45.83,1453.1" style="fill:#f1f1f2;stroke:#231f20;stroke-miterlimit:10;stroke-width:16.8836891491864px"/><path d="M1897.76,1472.06H102.24c-54.49,0-84.46-35.81-67.5-78.6L261.16,822.29c9.64-24.32,49.26-43.57,88.71-43.57H1650.13c39.45,0,79.07,19.25,88.71,43.57l226.42,571.17C1982.22,1436.25,1952.25,1472.06,1897.76,1472.06Z" style="fill:#f1f1f2;stroke:#231f20;stroke-miterlimit:10;stroke-width:26.0069017410278px"/><path d="M81.46,1414.59,293.53,864c7.87-20.45,41-36.7,74.09-36.7H1632.35c33.13,0,66.23,16.25,74.1,36.7l209.86,543" style="fill:none;stroke:#231f20;stroke-linecap:round;stroke-linejoin:round;stroke-width:8.44184457459322px"/><polygon points="875.34 809.07 726.38 809.07 626.63 887.25 626.63 984.15 683.89 1075.13 857.22 1075.13 947.08 984.15 947.08 887.25 875.34 809.07" style="fill:#ead39a;stroke:#231f20;stroke-linejoin:round;stroke-width:12px"/><polygon points="1373.37 887.25 1273.62 809.07 1124.66 809.07 1052.92 887.25 1052.92 984.15 1142.78 1075.13 1316.11 1075.13 1373.37 984.15 1373.37 887.25" style="fill:#ead39a;stroke:#231f20;stroke-linejoin:round;stroke-width:12px"/><polygon points="849.57 1051.03 665.95 1051.03 535.06 1171.96 535.06 1268.85 598.84 1415.13 820.94 1415.13 937.13 1268.85 937.13 1171.96 849.57 1051.03" style="fill:#ead39a;stroke:#231f20;stroke-linejoin:round;stroke-width:12px"/><polygon points="1464.94 1171.96 1334.05 1051.03 1150.43 1051.03 1062.87 1171.96 1062.87 1268.85 1179.06 1415.13 1401.16 1415.13 1464.94 1268.85 1464.94 1171.96" style="fill:#ead39a;stroke:#231f20;stroke-linejoin:round;stroke-width:12px"/><polygon points="875.34 809.07 726.38 809.07 626.63 887.25 683.89 978.23 857.22 978.23 947.08 887.25 875.34 809.07" style="fill:#f9f1c0;stroke:#231f20;stroke-linejoin:round;stroke-width:12px"/><polygon points="1273.62 809.07 1124.66 809.07 1052.92 887.25 1142.78 978.23 1316.11 978.23 1373.37 887.25 1273.62 809.07" style="fill:#f9f1c0;stroke:#231f20;stroke-linejoin:round;stroke-width:12px"/><polygon points="849.57 1051.03 665.95 1051.03 535.06 1171.96 598.84 1318.23 820.94 1318.23 937.13 1171.96 849.57 1051.03" style="fill:#f9f1c0;stroke:#231f20;stroke-linejoin:round;stroke-width:12px"/><polygon points="1334.05 1051.03 1150.43 1051.03 1062.87 1171.96 1179.06 1318.23 1401.16 1318.23 1464.94 1171.96 1334.05 1051.03" style="fill:#f9f1c0;stroke:#231f20;stroke-linejoin:round;stroke-width:12px"/><path d="M880.33,887.25c-3.06,32.2-49.78,59.7-104.17,59.7s-91.25-27.5-82.78-59.7c8-30.43,54-53.9,103.13-53.9S883.22,856.82,880.33,887.25Z" style="fill:#ead39a;stroke:#231f20;stroke-linejoin:round;stroke-width:12px"/><path d="M1306.62,887.25c8.47,32.2-28.39,59.7-82.78,59.7s-101.11-27.5-104.17-59.7c-2.89-30.43,34.7-53.9,83.82-53.9S1298.61,856.82,1306.62,887.25Z" style="fill:#ead39a;stroke:#231f20;stroke-linejoin:round;stroke-width:12px"/><path d="M853.38,1172c-4.86,51.06-65.16,95.27-134.35,95.27S605.37,1223,618.81,1172c12.52-47.58,71.42-83.84,132.3-83.84S857.9,1124.38,853.38,1172Z" style="fill:#ead39a;stroke:#231f20;stroke-miterlimit:10;stroke-width:12px"/><path d="M1381.19,1172c13.44,51.06-31,95.27-100.22,95.27S1151.48,1223,1146.62,1172c-4.52-47.58,41.39-83.84,102.27-83.84S1368.67,1124.38,1381.19,1172Z" style="fill:#ead39a;stroke:#231f20;stroke-miterlimit:10;stroke-width:12px"/><path d="M712.1,929.81c15,10.53,37.4,17.14,64.06,17.14,34.1,0,65.17-10.81,84.37-26.8-15.24-10.71-38-17.29-64-17.29C763.39,902.86,731.69,913.53,712.1,929.81Z" style="fill:none;stroke:#231f20;stroke-linejoin:round;stroke-width:12px"/><path d="M1287.9,929.81c-19.59-16.28-51.29-26.95-84.41-26.95-26,0-48.78,6.58-64,17.29,19.2,16,50.27,26.8,84.37,26.8C1250.5,947,1272.94,940.34,1287.9,929.81Z" style="fill:none;stroke:#231f20;stroke-linejoin:round;stroke-width:12px"/><path d="M751.11,1157.63c-53,0-104.57,27.52-125.24,66.07,15.6,25.88,49.44,43.53,93.16,43.53,55.38,0,105.06-28.33,125.18-65.82C828.16,1175,793.22,1157.63,751.11,1157.63Z" style="fill:none;stroke:#231f20;stroke-miterlimit:10;stroke-width:12px"/><path d="M1248.89,1157.63c-42.11,0-77.05,17.35-93.1,43.78,20.12,37.49,69.8,65.82,125.18,65.82,43.72,0,77.56-17.65,93.16-43.53C1353.46,1185.15,1301.93,1157.63,1248.89,1157.63Z" style="fill:none;stroke:#231f20;stroke-miterlimit:10;stroke-width:12px"/><path d="M600.39,1353.19c13.47-1.67,27-2.5,40.42-3.14s27-.86,40.43-.86,27,.27,40.42.85,27,1.47,40.43,3.15c-13.48,1.67-27,2.51-40.43,3.14s-26.95.86-40.42.86-27-.28-40.43-.87S613.86,1354.85,600.39,1353.19Z" style="fill:#231f20"/><path d="M816.22,1380.53a296.3,296.3,0,0,1-30.15,3.14q-15.08.87-30.15.86t-30.15-.85a293,293,0,0,1-30.14-3.15,290.24,290.24,0,0,1,30.14-3.14q15.08-.89,30.15-.86c10.05,0,20.1.28,30.15.87A296.27,296.27,0,0,1,816.22,1380.53Z" style="fill:#231f20"/><path d="M1369.47,1353.19c-11.17,1.65-22.33,2.51-33.5,3.13s-22.33.86-33.49.87-22.33-.27-33.5-.86-22.33-1.48-33.49-3.14c11.16-1.67,22.33-2.53,33.49-3.15s22.33-.86,33.5-.85,22.33.28,33.49.86S1358.3,1351.53,1369.47,1353.19Z" style="fill:#231f20"/><path d="M1190.64,1380.53a204.67,204.67,0,0,1,25-3.13c8.32-.59,16.65-.86,25-.87s16.66.27,25,.86a200.85,200.85,0,0,1,25,3.14,202.79,202.79,0,0,1-25,3.15q-12.48.87-25,.85t-25-.86A204.7,204.7,0,0,1,1190.64,1380.53Z" style="fill:#231f20"/><path d="M833.84,1347.65c5.72-10,12.06-19.57,18.6-29s13.37-18.55,20.39-27.56,14.25-17.86,21.74-26.51,15.21-17.12,23.55-25.1c-5.71,10-12,19.58-18.59,29S886.16,1287,879.13,1296s-14.26,17.86-21.75,26.51S842.17,1339.66,833.84,1347.65Z" style="fill:#231f20"/><path d="M1173.51,1358.78c-8.78-8.34-16.93-17.18-24.89-26.17S1133,1314.4,1125.5,1305s-14.75-18.91-21.77-28.65-13.81-19.67-20-30.09c8.78,8.34,16.93,17.17,24.9,26.16s15.63,18.21,23.1,27.59,14.75,18.92,21.77,28.66S1167.32,1348.37,1173.51,1358.78Z" style="fill:#231f20"/><path d="M1161.92,1017.81c11.14-1.65,22.28-2.51,33.42-3.13s22.28-.86,33.42-.87,22.29.27,33.43.86,22.28,1.48,33.42,3.14c-11.14,1.67-22.28,2.53-33.42,3.15s-22.29.86-33.43.85-22.28-.28-33.42-.86S1173.06,1019.47,1161.92,1017.81Z" style="fill:#231f20"/><path d="M684.17,1001.91a229.69,229.69,0,0,1,26.48-3.14q13.25-.87,26.48-.86t26.49.85a227.79,227.79,0,0,1,26.48,3.15,225.61,225.61,0,0,1-26.48,3.14c-8.83.59-17.66.86-26.49.86s-17.65-.28-26.48-.87A227.47,227.47,0,0,1,684.17,1001.91Z" style="fill:#231f20"/><path d="M1078.63,963.48a43.59,43.59,0,0,1,10.06,5.56,71.9,71.9,0,0,1,15.72,15.56,43.69,43.69,0,0,1,5.64,10,43.63,43.63,0,0,1-10.07-5.55,70.2,70.2,0,0,1-8.46-7.18,71,71,0,0,1-7.24-8.4A43.86,43.86,0,0,1,1078.63,963.48Z" style="fill:#231f20"/><path d="M866.08,1027.09a84.74,84.74,0,0,1,8.91-13.47,145.11,145.11,0,0,1,10.53-11.87,143.43,143.43,0,0,1,11.75-10.67A83.83,83.83,0,0,1,910.64,982a84.33,84.33,0,0,1-8.9,13.48A147.71,147.71,0,0,1,879.45,1018,85.47,85.47,0,0,1,866.08,1027.09Z" style="fill:#231f20"/><path d="M1129.21,890.51a53.2,53.2,0,0,1,12.5-14.73,74.77,74.77,0,0,1,16.37-10.37,79.41,79.41,0,0,1,18.38-6,62.68,62.68,0,0,1,19.23-.95c-6,2.55-11.77,4.67-17.46,7s-11.28,4.65-16.76,7.2-10.86,5.3-16.18,8.28S1134.74,887.14,1129.21,890.51Z" style="fill:#231f20"/><path d="M1222.56,871.44a65,65,0,0,1,19.55-1.73,83.8,83.8,0,0,1,19.41,3.35,80.05,80.05,0,0,1,18.1,7.83,58.41,58.41,0,0,1,15.18,12.51c-6.18-2.34-12-4.72-17.88-6.84s-11.74-4.07-17.67-5.84-11.93-3.34-18-4.81S1229,873.11,1222.56,871.44Z" style="fill:#231f20"/><path d="M1165.23,895.26a39.37,39.37,0,0,1,11.07-7.17,57.33,57.33,0,0,1,25.43-4.87,39.76,39.76,0,0,1,12.94,2.53,92.26,92.26,0,0,1-12.35,3.73c-4,1-8.06,1.82-12.08,2.58s-8.06,1.45-12.18,2A99.93,99.93,0,0,1,1165.23,895.26Z" style="fill:#231f20"/><path d="M704.06,890.51a53.37,53.37,0,0,1,12.5-14.73,74.6,74.6,0,0,1,16.38-10.37,79.17,79.17,0,0,1,18.37-6,62.68,62.68,0,0,1,19.23-.95c-6,2.55-11.77,4.67-17.46,7s-11.28,4.65-16.76,7.2-10.86,5.3-16.18,8.28S709.59,887.14,704.06,890.51Z" style="fill:#231f20"/><path d="M797.41,871.44A65,65,0,0,1,817,869.71a83.8,83.8,0,0,1,19.41,3.35,80.05,80.05,0,0,1,18.1,7.83,58.41,58.41,0,0,1,15.18,12.51c-6.18-2.34-12-4.72-17.88-6.84s-11.74-4.07-17.67-5.84-11.93-3.34-18-4.81S803.8,873.11,797.41,871.44Z" style="fill:#231f20"/><path d="M740.08,895.26a39.37,39.37,0,0,1,11.07-7.17,57.33,57.33,0,0,1,25.43-4.87,39.71,39.71,0,0,1,12.94,2.53,92.26,92.26,0,0,1-12.35,3.73c-4,1-8.06,1.82-12.08,2.58s-8.06,1.45-12.17,2A100.26,100.26,0,0,1,740.08,895.26Z" style="fill:#231f20"/><path d="M646,1147.83a65.15,65.15,0,0,1,14.7-16.59,89.67,89.67,0,0,1,18.88-11.81,95.8,95.8,0,0,1,21.08-7,77.83,77.83,0,0,1,22.06-1.56c-6.92,2.68-13.67,5-20.29,7.6s-13.11,5.26-19.46,8.22-12.58,6.18-18.69,9.71S652.23,1143.76,646,1147.83Z" style="fill:#231f20"/><path d="M753.77,1125.83a80.47,80.47,0,0,1,22.49-1.52,101.85,101.85,0,0,1,22.28,4,96.7,96.7,0,0,1,20.86,8.88,71.78,71.78,0,0,1,17.72,14c-7-2.92-13.65-5.78-20.42-8.32s-13.55-4.85-20.43-6.89-13.83-3.84-20.9-5.45S761.14,1127.49,753.77,1125.83Z" style="fill:#231f20"/><path d="M687.6,1153.32a49.36,49.36,0,0,1,12.92-7.81,69.89,69.89,0,0,1,14.33-4.35,71.11,71.11,0,0,1,14.92-1.26,50.24,50.24,0,0,1,14.89,2.45,134,134,0,0,1-14.3,3.82c-4.7,1-9.35,2-14,2.85s-9.33,1.72-14.07,2.5A145.06,145.06,0,0,1,687.6,1153.32Z" style="fill:#231f20"/><path d="M1161.93,1146.73a65.3,65.3,0,0,1,14.69-16.59,89.74,89.74,0,0,1,18.89-11.81,95.63,95.63,0,0,1,21.08-7,77.78,77.78,0,0,1,22.05-1.56c-6.91,2.68-13.66,5-20.28,7.6s-13.11,5.26-19.47,8.22-12.57,6.18-18.68,9.71S1168.12,1142.66,1161.93,1146.73Z" style="fill:#231f20"/><path d="M1269.65,1124.73a80.56,80.56,0,0,1,22.5-1.52,101.85,101.85,0,0,1,22.28,4,96.91,96.91,0,0,1,20.86,8.88,72,72,0,0,1,17.72,14c-7-2.92-13.65-5.78-20.43-8.32s-13.55-4.85-20.42-6.89-13.84-3.84-20.9-5.45S1277,1126.39,1269.65,1124.73Z" style="fill:#231f20"/><path d="M1203.49,1152.22a49.47,49.47,0,0,1,12.91-7.81,71.14,71.14,0,0,1,29.26-5.6,49.91,49.91,0,0,1,14.89,2.44,134,134,0,0,1-14.3,3.82c-4.7,1-9.35,2-14,2.85s-9.33,1.72-14.07,2.5A145.06,145.06,0,0,1,1203.49,1152.22Z" style="fill:#231f20"/><path d="M886.92,1182.14c-3.82,5.62-7.66,11.32-8.51,17.88-1.1,8.45,3,17.39.05,25.35-5.17,14.07-26.1,12.55-35.33,24.14-4,5-5.44,12.07-10.45,15.87-5.91,4.48-13,2.54-19.35.84-6.65-1.76-13.87,1-19.43,4.55-6.9,4.43-12.9,10.47-20.57,13.36a28.8,28.8,0,0,1-26.82-3.76c-7.09-5.27-13.93-14.46-22.36-11.81-7.18,2.25-9.38,11.91-16.07,15.36-10.43,5.39-19.53-5.58-26-12-3.25-3.2-6.8-4.35-11-2.29a35.17,35.17,0,0,0-6.14,4.25c-4.46,3.54-8.88,6.52-14.83,5.6a15.52,15.52,0,0,1-10.66-6.82c-3.18-5-3.44-11.31-5.3-17v0a16.21,16.21,0,0,0-15.92-11.18c-5,.17-9.74,2.16-14.73,2.23-7,.11-13.73-4.33-17.38-10.58-3.87-6.65-4.39-14.8-2.67-22.24,1.87-8.13,4.05-16.5,4.21-24.87a23,23,0,0,0-1.77-9.62c-2.75-6.6-7.43-12.08-10.74-18.36-5.58-10.61-5.72-25.21,2.54-33.71,6.17-6.36,15.64-8.2,21.87-14.49,5.44-5.51,7.58-13.52,10.54-20.8,5.07-12.47,12.89-16.91,24.43-18.78,5.79-.94,10.91-3.87,15.36-7.78,8.23-7.24,15.93-19.49,27.77-19.9,7.81-.27,15,5.33,22.8,5,8.1-.29,14.58-6.66,21.35-11.31s16.69-7.4,22.34-1.33c4.25,4.56,4.4,12.66,9.66,15.89,6.78,4.16,14.34-3.24,20.9-7.77a31.54,31.54,0,0,1,30.54-2.77,33.38,33.38,0,0,1,16.34,16.87c1.86,4.19.87,4.23.71,7.85s2.92,7,6,8.25c4.12,1.6,8.68,1,13.07,1.31a29.94,29.94,0,0,1,16,6.21,14.57,14.57,0,0,1,5.16,6.51c.83,2.4.69,5,.66,7.57a87.63,87.63,0,0,0,2.73,22.87c.88,3.43,1.64,7.32,3.86,10.08a54,54,0,0,0,8,7.59c7.07,5.8,16.44,11.85,17.56,22.08C896.18,1168.58,891.57,1175.3,886.92,1182.14Z" style="fill:#fff069;stroke:#231f20;stroke-miterlimit:10;stroke-width:12px"/><polygon points="706.45 1237.85 657.87 1189.32 627.15 1136.73 627.15 1136.73 680.29 1166.48 731.09 1215.49 706.45 1237.85" style="fill:#538049;stroke:#231f20;stroke-linejoin:round;stroke-width:8px"/><path d="M650,1147.64c-3.87-5.2-8.31-10.5-13.65-14.18-8.75-6.06-16.4-5.57-16.63-5.18-.39.23-.74,7.89,5.48,16.53,3.79,5.26,9.17,9.61,14.43,13.38" style="fill:#006838;stroke:#231f20;stroke-linecap:round;stroke-linejoin:round;stroke-width:8px"/><path d="M658.85,1165.75c-4.35-4.92-9.29-9.91-15-13.21-9.34-5.42-17-4.36-17.17-4-.37.26,0,8,7,16.18,4.27,5,10.07,9,15.69,12.35" style="fill:#006838;stroke:#231f20;stroke-linecap:round;stroke-linejoin:round;stroke-width:8px"/><path d="M671.26,1158.93c-3.92-5.92-8.44-12-13.92-16.55-9-7.42-17-7.84-17.25-7.45-.41.19-1,8.19,5.34,18,3.83,6,9.35,11.21,14.76,15.8" style="fill:#006838;stroke:#231f20;stroke-linecap:round;stroke-linejoin:round;stroke-width:8px"/><path d="M675.63,1174c-3.86-5.19-8.31-10.49-13.64-14.18-8.76-6.06-16.41-5.57-16.64-5.18-.38.23-.73,7.89,5.49,16.54,3.78,5.26,9.16,9.61,14.43,13.38" style="fill:#006838;stroke:#231f20;stroke-linecap:round;stroke-linejoin:round;stroke-width:8px"/><path d="M682.9,1194c-5.3-5.21-11.26-10.5-17.81-14-10.76-5.78-18.9-4.74-19.05-4.31-.37.27.93,8.37,9.52,17.06,5.23,5.29,12,9.5,18.48,13.12" style="fill:#006838;stroke:#231f20;stroke-linecap:round;stroke-linejoin:round;stroke-width:8px"/><path d="M703.31,1189.22c-3.77-6-9.32-16.55-18.75-24.39-8.91-7.42-16.77-8.1-17-7.72-.41.18-1.14,8.14,4.9,18,3.67,6,14.32,19,19.6,23.67" style="fill:#006838;stroke:#231f20;stroke-linecap:round;stroke-linejoin:round;stroke-width:8px"/><path d="M696.88,1194.82c-3.87-5.19-8.31-10.49-13.64-14.18-8.76-6.06-16.41-5.57-16.64-5.17-.38.23-.73,7.89,5.49,16.53,3.78,5.26,9.16,9.61,14.43,13.38" style="fill:#006838;stroke:#231f20;stroke-linecap:round;stroke-linejoin:round;stroke-width:8px"/><path d="M706.45,1213.79c-4.32-4.85-9.25-9.71-15-12.7-9.5-4.9-17.51-3-17.73-2.55-.39.31-.38,8.55,6.58,16.66,4.24,4.94,10.11,8.62,15.83,11.7" style="stroke:#231f20;stroke-linecap:round;stroke-linejoin:round;stroke-width:8px;fill:url(#linear-gradient)"/><path d="M723.37,1208.54c-3.11-5.7-6.79-11.56-11.69-15.83-8-7-16.13-7.17-16.43-6.79-.45.21-2.2,8.09,2.74,17.56,3,5.77,7.84,10.73,12.65,15.08" style="stroke:#231f20;stroke-linecap:round;stroke-linejoin:round;stroke-width:8px;fill:url(#linear-gradient-2)"/><polygon points="741.01 1141.86 806.41 1120.91 867.23 1117.7 867.23 1117.7 816.43 1151.31 749.6 1174 741.01 1141.86" style="fill:#538049;stroke:#231f20;stroke-linejoin:round;stroke-width:8px"/><path d="M847.08,1133c6.38-1.06,13.13-2.58,18.86-5.63,9.39-5,12.46-12,12.22-12.41,0-.45-6.68-4.27-17.21-2.71-6.41,1-12.74,3.75-18.51,6.7" style="fill:#006838;stroke:#231f20;stroke-linecap:round;stroke-linejoin:round;stroke-width:8px"/><path d="M826.91,1132.59c6.37-1.62,13.06-3.73,18.6-7.27,9.1-5.81,11.66-13.1,11.38-13.45-.06-.45-7.07-3.69-17.58-1.21-6.4,1.52-12.58,4.85-18.17,8.3" style="fill:#006838;stroke:#231f20;stroke-linecap:round;stroke-linejoin:round;stroke-width:8px"/><path d="M827.29,1146.74c7.05-.77,14.55-2,21.08-4.79,10.72-4.6,14.76-11.53,14.53-11.92,0-.45-6.84-4.6-18.46-3.51-7.07.67-14.24,3.18-20.8,5.88" style="fill:#006838;stroke:#231f20;stroke-linecap:round;stroke-linejoin:round;stroke-width:8px"/><path d="M811.92,1143.74c6.39-1.06,13.14-2.59,18.86-5.63,9.4-5,12.47-12,12.22-12.42,0-.45-6.68-4.27-17.21-2.7-6.41,1-12.74,3.74-18.5,6.69" style="fill:#006838;stroke:#231f20;stroke-linecap:round;stroke-linejoin:round;stroke-width:8px"/><path d="M790.81,1141c7.06-2.33,14.48-5.2,20.62-9.41,10.07-6.91,12.87-14.63,12.56-15-.07-.45-7.87-3-19.53.65-7.09,2.23-13.94,6.29-20.12,10.41" style="fill:#006838;stroke:#231f20;stroke-linecap:round;stroke-linejoin:round;stroke-width:8px"/><path d="M785.67,1161.34c7-.61,19-.7,30.28-5.48,10.67-4.53,14.88-11.2,14.66-11.59,0-.46-6.71-4.75-18.27-3.92-7,.51-23.45,4-30,6.58" style="fill:#006838;stroke:#231f20;stroke-linecap:round;stroke-linejoin:round;stroke-width:8px"/><path d="M783.64,1153.06c6.39-1,13.14-2.58,18.86-5.63,9.4-5,12.47-12,12.22-12.41,0-.45-6.68-4.27-17.21-2.7-6.41,1-12.74,3.74-18.5,6.69" style="fill:#006838;stroke:#231f20;stroke-linecap:round;stroke-linejoin:round;stroke-width:8px"/><path d="M762.4,1152.88c6.29-1.62,12.87-3.78,18.17-7.55,8.71-6.2,10.71-14.19,10.4-14.59-.1-.5-7.42-4.26-17.82-1.79-6.34,1.51-12.3,5-17.66,8.71" style="stroke:#231f20;stroke-linecap:round;stroke-linejoin:round;stroke-width:8px;fill:url(#linear-gradient-3)"/><path d="M759.31,1170.32c6.49-.15,13.39-.74,19.43-3.14,9.93-3.94,13.77-11,13.56-11.49,0-.49-6.19-5.66-16.87-5.61-6.5,0-13.12,2.05-19.19,4.34" style="stroke:#231f20;stroke-linecap:round;stroke-linejoin:round;stroke-width:8px;fill:url(#linear-gradient-4)"/><path d="M665.87,1078c6-3.39,13.23-3.7,20.13-3.94,4.53-.15,6,1.81,7.71,5.74,1.55,3.62,2.87,7.5,2.5,11.48-.46,4.9-2.56,10.08-7,12.67s-9.8,2.27-14.57,1.37c-6-1.12-13.18-3.26-16.15-9.11C655.08,1089.43,659.81,1081.43,665.87,1078Z" style="fill:#be1e2d;stroke:#231f20;stroke-linejoin:round;stroke-width:12px"/><path d="M775.75,1206.55c6-3.39,13.23-3.7,20.13-3.94,4.54-.15,6,1.81,7.72,5.74,1.54,3.62,2.86,7.5,2.49,11.48-.46,4.9-2.56,10.08-7,12.67s-9.79,2.27-14.56,1.37c-6-1.12-13.19-3.26-16.15-9.11C765,1218,769.69,1210,775.75,1206.55Z" style="fill:#be1e2d;stroke:#231f20;stroke-linejoin:round;stroke-width:12px"/><path d="M988.12,495.42c-63.58-12.7-190.81,19.44-190.81,163.51v53.39" style="fill:none;stroke:#231f20;stroke-linecap:round;stroke-linejoin:round;stroke-width:24px"/><polyline points="836.92 680.34 797.31 719.94 757.71 680.34" style="fill:none;stroke:#231f20;stroke-linecap:round;stroke-linejoin:round;stroke-width:24px"/></svg>