<svg xmlns="http://www.w3.org/2000/svg" height="1931.459" width="1932.036"  xmlns:v="https://vecta.io/nano"><style><![CDATA[.B{stroke:#231f20}.C{stroke-width:32}.D{fill:#231f20}.E{stroke-linejoin:round}.F{stroke-linecap:round}]]></style><circle r="737.26" cy="927.871" cx="1004.071" fill="#fff" class="B C"/><path d="M1911.6 97.84l-77.45-77.43a28.78 28.78 0 0 0-38.44-2l-1.85 1.5a468 468 0 0 0-48.41 45.07l-146.9 158.44a580.36 580.36 0 0 0-48.86 60l-63.24 84.24 78 78.05 84-63.1a579.63 579.63 0 0 0 60.33-49.2l159-147.66a468.2 468.2 0 0 0 43.6-46.68l2.17-2.66a28.8 28.8 0 0 0-1.95-38.57z" class="D"/><circle r="584.01" cy="927.871" cx="1004.071" fill="none" stroke-width="12" class="B"/><g transform="rotate(315)" class="D"><ellipse ry="15.58" rx="10.61" cy="1294.173" cx="697.701"/><ellipse ry="15.58" rx="10.61" cy="1438.012" cx="697.701"/></g><path d="M315.98 1668.94l151.63-151.53a15.4 15.4 0 0 1 21.78 0l20.5 20.5a38.43 38.43 0 0 0 49.2 4.32l215.4-150.7a57.72 57.72 0 0 0 7.74-88.1l-153.83-153.93a57.72 57.72 0 0 0-88.11 7.69l-150.8 215.32a38.41 38.41 0 0 0 4.29 49.2l20.5 20.5a15.4 15.4 0 0 1 0 21.77l-151.64 151.57" fill="#fff" class="B C E F"/><path d="M348.61 1663.28l-234.4 234.3c-25.17 25.16-60.75 30.74-85.9 5.57h0c-25.16-25.17-19.56-60.76 5.6-85.92l234.4-234.28a13.86 13.86 0 0 1 19.6 0l60.7 60.75a13.85 13.85 0 0 1 0 19.59z" class="D"/><path d="M658.56 1273.17l-134.53 134.65m78.76-190.45L482.94 1366.7m231.4-37.74L565.1 1448.93" fill="#fff" class="B C E F"/><path d="M1417.96 1203.41c-41.9 163.18-254.8 225.1-386.37 244.46-216.7 31.87-318.88-60.73-442.83-180.82-202.82-196.47-145.84-527.74 61.7-719.25 99.84-92.13 225.67-131.63 356.9-127.86s273.05 41.9 381.66 139.47c230 206.52 89.27 409.08 28.92 644.08z" opacity=".992" fill="#ecdaba" class="B C E"/><g class="D"><circle r="13.5" cy="1033.781" cx="1229.691"/><circle r="13.5" cy="864.091" cx="1291.401"/><circle r="13.5" cy="837.091" cx="1137.131"/><circle r="13.5" cy="698.251" cx="1040.711"/><circle r="13.5" cy="709.821" cx="886.441"/><circle r="13.5" cy="856.371" cx="809.301"/><circle r="13.5" cy="867.941" cx="971.291"/><circle r="13.5" cy="1029.931" cx="747.601"/><circle r="13.5" cy="1037.641" cx="909.581"/><circle r="13.5" cy="1197.701" cx="849.801"/><circle r="13.5" cy="1168.771" cx="1017.571"/><circle r="13.5" cy="1010.641" cx="1071.561"/></g><path d="M1288.85 915.65s236.07 110.23 259.3 300.18c17.86 145.9-80.06 269.8-225.4 294.3-83.16 14-166.16-12.54-222.66-66.68m217.67-404.4l-28.93-123.4 123.4-28.93" fill="none" class="B C E F"/></svg>