<svg xmlns="http://www.w3.org/2000/svg" height="1647.01" width="1946.639"  xmlns:v="https://vecta.io/nano"><style><![CDATA[.B{stroke-miterlimit:15.1181}.C{fill:none}.D{stroke-width:24}.E{stroke-linecap:round}]]></style><g stroke="#010101"><g class="D"><path d="M759.54 286.63V60.45c0-26.76 20.8-48.45 46.43-48.45h1033.08c25.64 0 46.43 21.7 46.43 48.45v226.18" fill="#fff" class="B"/><g class="C"><circle r="42.93" cy="127.96" cx="906.809"/><circle r="42.93" cy="127.96" cx="1049.329"/><circle r="42.93" cy="127.96" cx="1723.579"/><circle r="42.93" cy="127.96" cx="1583.129"/><circle r="42.93" cy="127.96" cx="1314.269"/></g><g class="B"><rect rx="48.46" height="1348.38" width="1240.73" y="286.63" x="693.909" fill="#fff"/><g class="C"><path d="M698.52 1382.45h1231.5"/><rect rx="16.15" height="75.31" width="1085.76" y="473.67" x="771.389"/><path d="M698.52 387.53h1231.5"/></g></g></g><path d="M865.9 259.72h359m178.72 0h359" stroke-width="32" class="E B C"/><g class="D B"><rect rx="96.92" height="661.17" width="900.77" y="635.13" x="863.889" fill="#fff"/><g class="C E"><path d="M866.52 1095.6h899.98m-814.12 0v190.7m121.38-190.7v190.7m121.37-190.7v190.7"/><path d="M1316.5 1095.6v190.7m121.38-190.7v190.7m121.38-190.7v190.7m121.38-190.7v190.7"/></g></g></g><path d="M237.02 599.07l-1.55 2.3h-.12l-.23-.08-.45-.16-.92-.33-1.82-.64-3.65-1.26-7.3-2.55-14.47-4.8c-9.6-3.16-19.3-6-28.88-8.86q-7.2-2.13-14.46-4l-14.42-3.93-28.58-7.1-29.68-7c-9.94-2.17-20-4-29.82-6.5a140.85 140.85 0 0 1-28.5-10.28c-4.6-2.2-9.06-4.76-13.5-7.42-2.3-1.08-4.2-3.34-5.4-7.77a32.41 32.41 0 0 1-.77-3.66l-.47-4.58v-.14a33.71 33.71 0 0 1 7.67-22.83v-.12l3.14-3.38a30.73 30.73 0 0 1 2.86-2.42c3.62-2.83 6.53-3.48 9-3 5.18.56 10.33 1.2 15.36 2.22a143.48 143.48 0 0 1 29.2 9c9.4 3.95 18.6 8.5 27.9 12.75l28 12.28c9.87 4.7 19 9.74 28.07 15.1q6.8 4 13.5 8.14 6.7 4.14 13.16 8.7c8.72 5.86 17.13 12.22 25.3 18.82 4.06 3.34 8.1 6.7 11.95 10.26 1.95 1.75 3.87 3.55 5.76 5.36l2.8 2.8 1.38 1.4.7.7.34.35.26.26c-.54 1.12 1.63-2.2-1.34 2.42z" fill="#231f20"/><g stroke="#231f20" stroke-miterlimit="10"><path d="M474.34 537.5h.55c178.54 0 323.28 28.38 323.28 70.72-8 32.8-30.88 78.83-58.5 99.92-22.15 15.2-150.75 36.38-264.75 36.38h-1.62c-114 0-242.6-21.2-264.75-36.38-27.63-21.1-50.52-67.13-58.5-99.92 0-42.34 144.74-70.72 323.28-70.72h.5" fill="#fff" class="D"/><path d="M776.17 605.76c0 20.28-135.36 50.34-302.34 50.34h-.54c-167 0-302.34-30.06-302.34-50.34" stroke-width="16" class="C E"/></g><g fill="#231f20"><circle r="6.4" cy="588.78" cx="246.649"/><circle r="6.4" cy="604.15" cx="206.229"/></g><path d="M1049.33 912.83H698.7c-82.738.003-159.905-41.698-205.24-110.9h0M958.9 822.4l106.58 90.43-106.58 90.44" stroke="#231f20" stroke-linejoin="round" class="C D E"/></svg>