<svg id="Layer_1" data-name="Layer 1" xmlns="http://www.w3.org/2000/svg" viewBox="0 0 2000 1840.47"><path d="M104.44,1823.28h1794c56.48,0,88.59-45.56,72.24-100.08l-93-309.81c-13-43.17-62.27-77.25-110.48-77.25H235.65c-48.22,0-97.53,34.08-110.49,77.25l-93,309.81C15.85,1777.72,48,1823.28,104.44,1823.28Z" style="fill:#fff;stroke:#231f20;stroke-miterlimit:10;stroke-width:24px"/><path d="M184.26,1667.4c26.52,0,53-20.54,59.06-45.53l35.81-147.8c5.41-22.33-10.19-40.19-34.76-40.19s-49.37,17.86-55.45,40.19l-40.29,147.8C141.82,1646.86,157.73,1667.4,184.26,1667.4Z" style="fill:#fff;stroke:#231f20;stroke-miterlimit:10;stroke-width:24px"/><polygon points="1264.99 1628.6 575.55 1628.6 612.71 324.81 1218.55 324.81 1264.99 1628.6" style="fill:#e6e7e8;stroke:#000;stroke-linejoin:round;stroke-width:24px"/><polygon points="399.2 1545 575.55 1628.6 612.71 324.81 470.13 324.81 399.2 1545" style="fill:#e6e7e8;stroke:#000;stroke-linejoin:round;stroke-width:24px"/><path d="M579.26,324.81l8-138.52c5.52-95,81.2-169.1,172.71-169.1H980.58c91.51,0,167.19,74.1,172.71,169.1l8,138.52h-61.12l-8-138.52c-5.52-95-81.2-169.1-172.71-169.1H698.88c-91.5,0-167.19,74.1-172.7,169.1l-8,138.52Z" style="fill:#e6e7e8;stroke:#000;stroke-miterlimit:15.118109703064;stroke-width:24px"/><path d="M705.48,421.62a108.4,108.4,0,0,1-.68,34.83,68.79,68.79,0,0,1-5.43,17.16,32.88,32.88,0,0,1-5.4,8.06,18.2,18.2,0,0,1-4.36,3.35,12.1,12.1,0,0,1-11.94,0,18.49,18.49,0,0,1-4.36-3.36,33.16,33.16,0,0,1-5.41-8.05,69.28,69.28,0,0,1-5.43-17.17,108.11,108.11,0,0,1-.67-34.83c1.69,11.43,3.61,22.65,6.78,33.35a79.73,79.73,0,0,0,6,15.14,27.38,27.38,0,0,0,4.33,6,10.88,10.88,0,0,0,2.43,1.85,4.83,4.83,0,0,0,2.25.61,4.71,4.71,0,0,0,2.25-.61,11.15,11.15,0,0,0,2.44-1.85,27.07,27.07,0,0,0,4.33-6A80.09,80.09,0,0,0,698.71,455C701.89,444.27,703.8,433.05,705.48,421.62Z"/><circle cx="683.64" cy="419.91" r="21.84"/><path d="M784.16,421.62a108.4,108.4,0,0,1-.68,34.83,69.18,69.18,0,0,1-5.42,17.16,32.93,32.93,0,0,1-5.41,8.06,18.2,18.2,0,0,1-4.36,3.35,12.1,12.1,0,0,1-11.94,0,18.49,18.49,0,0,1-4.36-3.36,33.16,33.16,0,0,1-5.41-8.05,69.28,69.28,0,0,1-5.43-17.17,108.11,108.11,0,0,1-.67-34.83c1.69,11.43,3.61,22.65,6.79,33.35a79.7,79.7,0,0,0,6,15.14,27.38,27.38,0,0,0,4.33,6,10.92,10.92,0,0,0,2.44,1.85,4.76,4.76,0,0,0,2.24.61,4.71,4.71,0,0,0,2.25-.61,11.15,11.15,0,0,0,2.44-1.85,27.07,27.07,0,0,0,4.33-6,80.09,80.09,0,0,0,6-15.15C780.57,444.27,782.48,433.05,784.16,421.62Z"/><circle cx="762.32" cy="419.91" r="21.84"/><path d="M862.84,421.62a108.4,108.4,0,0,1-.68,34.83,69.18,69.18,0,0,1-5.42,17.16,32.93,32.93,0,0,1-5.41,8.06A18.34,18.34,0,0,1,847,485a12.12,12.12,0,0,1-12,0,18.49,18.49,0,0,1-4.36-3.36,33.16,33.16,0,0,1-5.41-8.05,69.28,69.28,0,0,1-5.43-17.17,108.11,108.11,0,0,1-.67-34.83c1.69,11.43,3.61,22.65,6.79,33.35a79.7,79.7,0,0,0,6,15.14,27.38,27.38,0,0,0,4.33,6,11.15,11.15,0,0,0,2.44,1.85,4.76,4.76,0,0,0,2.24.61,4.71,4.71,0,0,0,2.25-.61,11.15,11.15,0,0,0,2.44-1.85,27.07,27.07,0,0,0,4.33-6A80.09,80.09,0,0,0,856.07,455C859.25,444.27,861.16,433.05,862.84,421.62Z"/><circle cx="841" cy="419.91" r="21.84"/><path d="M941.53,421.62a108.69,108.69,0,0,1-.69,34.83,69.18,69.18,0,0,1-5.42,17.16,32.93,32.93,0,0,1-5.41,8.06,18.34,18.34,0,0,1-4.35,3.35,12.12,12.12,0,0,1-11.95,0,18.69,18.69,0,0,1-4.36-3.36,33.16,33.16,0,0,1-5.41-8.05,69.28,69.28,0,0,1-5.43-17.17,108.11,108.11,0,0,1-.67-34.83c1.7,11.43,3.61,22.65,6.79,33.35a79.7,79.7,0,0,0,6,15.14,27.38,27.38,0,0,0,4.33,6,11.15,11.15,0,0,0,2.44,1.85,4.76,4.76,0,0,0,2.24.61,4.68,4.68,0,0,0,2.25-.61,11.15,11.15,0,0,0,2.44-1.85,27.07,27.07,0,0,0,4.33-6,79.43,79.43,0,0,0,6-15.15C937.93,444.27,939.84,433.05,941.53,421.62Z"/><circle cx="919.68" cy="419.91" r="21.84"/><path d="M1020.21,421.62a108.69,108.69,0,0,1-.69,34.83,69.18,69.18,0,0,1-5.42,17.16,32.93,32.93,0,0,1-5.41,8.06,18.34,18.34,0,0,1-4.35,3.35,12.12,12.12,0,0,1-12,0,18.9,18.9,0,0,1-4.36-3.36,33.16,33.16,0,0,1-5.41-8.05,69.28,69.28,0,0,1-5.43-17.17,108.39,108.39,0,0,1-.67-34.83c1.7,11.43,3.61,22.65,6.79,33.35a79.7,79.7,0,0,0,6,15.14,27.38,27.38,0,0,0,4.33,6,11.15,11.15,0,0,0,2.44,1.85,4.79,4.79,0,0,0,2.24.61,4.68,4.68,0,0,0,2.25-.61,11.15,11.15,0,0,0,2.44-1.85,27.07,27.07,0,0,0,4.33-6,79.43,79.43,0,0,0,6-15.15C1016.61,444.27,1018.52,433.05,1020.21,421.62Z"/><circle cx="998.36" cy="419.91" r="21.84"/><path d="M1098.89,421.62a108.69,108.69,0,0,1-.69,34.83,69.18,69.18,0,0,1-5.42,17.16,32.93,32.93,0,0,1-5.41,8.06A18.34,18.34,0,0,1,1083,485a12.12,12.12,0,0,1-12,0,18.63,18.63,0,0,1-4.35-3.36,32.92,32.92,0,0,1-5.42-8.05,69.28,69.28,0,0,1-5.43-17.17,108.68,108.68,0,0,1-.67-34.83c1.7,11.43,3.61,22.65,6.79,33.35a79.07,79.07,0,0,0,6,15.14,27,27,0,0,0,4.32,6,11.15,11.15,0,0,0,2.44,1.85,4.79,4.79,0,0,0,2.24.61,4.68,4.68,0,0,0,2.25-.61,11.15,11.15,0,0,0,2.44-1.85,26.76,26.76,0,0,0,4.33-6,79.43,79.43,0,0,0,6-15.15C1095.29,444.27,1097.2,433.05,1098.89,421.62Z"/><circle cx="1077.04" cy="419.91" r="21.84"/><path d="M1177.57,421.62a109,109,0,0,1-.68,34.83,69.63,69.63,0,0,1-5.43,17.16,32.93,32.93,0,0,1-5.41,8.06,18.34,18.34,0,0,1-4.35,3.35,12.12,12.12,0,0,1-12,0,18.63,18.63,0,0,1-4.35-3.36,32.92,32.92,0,0,1-5.42-8.05,69.28,69.28,0,0,1-5.43-17.17,108.68,108.68,0,0,1-.67-34.83c1.7,11.43,3.61,22.65,6.79,33.35a79.73,79.73,0,0,0,6,15.14,27,27,0,0,0,4.32,6,11.15,11.15,0,0,0,2.44,1.85,4.8,4.8,0,0,0,2.25.61A4.68,4.68,0,0,0,1158,478a10.92,10.92,0,0,0,2.44-1.85,26.76,26.76,0,0,0,4.33-6,79.43,79.43,0,0,0,6-15.15C1174,444.27,1175.88,433.05,1177.57,421.62Z"/><circle cx="1155.73" cy="419.91" r="21.84"/><path d="M751.11,530.63a108.68,108.68,0,0,1-.68,34.83A68.79,68.79,0,0,1,745,582.62a32.65,32.65,0,0,1-5.41,8.06,18.42,18.42,0,0,1-4.35,3.36,12.09,12.09,0,0,1-12,0,18.63,18.63,0,0,1-4.35-3.36,32.6,32.6,0,0,1-5.41-8,68.32,68.32,0,0,1-5.43-17.17,108.11,108.11,0,0,1-.67-34.83c1.69,11.43,3.6,22.65,6.78,33.35a80.09,80.09,0,0,0,6,15.15,27.28,27.28,0,0,0,4.32,6A11.15,11.15,0,0,0,727,587a4.71,4.71,0,0,0,2.25.61,4.65,4.65,0,0,0,2.24-.61,10.92,10.92,0,0,0,2.44-1.85,26.76,26.76,0,0,0,4.33-6A78.91,78.91,0,0,0,744.33,564C747.51,553.29,749.43,542.06,751.11,530.63Z"/><circle cx="729.27" cy="528.92" r="21.84"/><path d="M829.22,530.63a108.68,108.68,0,0,1-.68,34.83,68.79,68.79,0,0,1-5.43,17.16,32.65,32.65,0,0,1-5.41,8.06,18.42,18.42,0,0,1-4.35,3.36,12.09,12.09,0,0,1-12,0,18.63,18.63,0,0,1-4.35-3.36,32.6,32.6,0,0,1-5.41-8,68.73,68.73,0,0,1-5.43-17.17,108.11,108.11,0,0,1-.67-34.83c1.69,11.43,3.6,22.65,6.78,33.35a80.09,80.09,0,0,0,6,15.15,27,27,0,0,0,4.33,6,10.88,10.88,0,0,0,2.43,1.85,4.45,4.45,0,0,0,4.5,0,11.39,11.39,0,0,0,2.44-1.85,27.4,27.4,0,0,0,4.33-6A80.22,80.22,0,0,0,822.45,564C825.63,553.29,827.54,542.06,829.22,530.63Z"/><circle cx="807.38" cy="528.92" r="21.84"/><path d="M907.33,530.63a108.39,108.39,0,0,1-.68,34.83,68.79,68.79,0,0,1-5.43,17.16,32.65,32.65,0,0,1-5.41,8.06,18.22,18.22,0,0,1-4.35,3.36,12.84,12.84,0,0,1-6,1.58,12.65,12.65,0,0,1-6-1.58,18.49,18.49,0,0,1-4.36-3.36,32.6,32.6,0,0,1-5.41-8,68.73,68.73,0,0,1-5.43-17.17,108.11,108.11,0,0,1-.67-34.83c1.69,11.43,3.61,22.65,6.78,33.35a80.09,80.09,0,0,0,6.05,15.15,27.31,27.31,0,0,0,4.33,6,10.88,10.88,0,0,0,2.43,1.85,4.45,4.45,0,0,0,4.5,0,11.39,11.39,0,0,0,2.44-1.85,27.4,27.4,0,0,0,4.33-6,80.22,80.22,0,0,0,6-15.15C903.74,553.29,905.65,542.06,907.33,530.63Z"/><circle cx="885.49" cy="528.92" r="21.84"/><path d="M985.44,530.63a108.39,108.39,0,0,1-.68,34.83,68.79,68.79,0,0,1-5.43,17.16,32.88,32.88,0,0,1-5.4,8.06,18.49,18.49,0,0,1-4.36,3.36,12.07,12.07,0,0,1-11.94,0,18.49,18.49,0,0,1-4.36-3.36,33.16,33.16,0,0,1-5.41-8,69.15,69.15,0,0,1-5.43-17.17,108.11,108.11,0,0,1-.67-34.83c1.69,11.43,3.61,22.65,6.78,33.35a80.09,80.09,0,0,0,6.05,15.15,27.31,27.31,0,0,0,4.33,6,10.88,10.88,0,0,0,2.43,1.85,4.45,4.45,0,0,0,4.5,0,11.15,11.15,0,0,0,2.44-1.85,27.4,27.4,0,0,0,4.33-6,80.22,80.22,0,0,0,6-15.15C981.85,553.29,983.76,542.06,985.44,530.63Z"/><circle cx="963.6" cy="528.92" r="21.84"/><path d="M1063.55,530.63a108.39,108.39,0,0,1-.68,34.83,68.79,68.79,0,0,1-5.43,17.16,32.6,32.6,0,0,1-5.4,8.06,18.49,18.49,0,0,1-4.36,3.36,12.07,12.07,0,0,1-11.94,0,18.49,18.49,0,0,1-4.36-3.36,33.16,33.16,0,0,1-5.41-8,69.15,69.15,0,0,1-5.43-17.17,108.11,108.11,0,0,1-.67-34.83c1.69,11.43,3.61,22.65,6.79,33.35a79.41,79.41,0,0,0,6,15.15,27.31,27.31,0,0,0,4.33,6,10.92,10.92,0,0,0,2.44,1.85,4.65,4.65,0,0,0,2.24.61A4.71,4.71,0,0,0,1044,587a11.15,11.15,0,0,0,2.44-1.85,27.07,27.07,0,0,0,4.33-6,79.56,79.56,0,0,0,6-15.15C1060,553.29,1061.87,542.06,1063.55,530.63Z"/><circle cx="1041.71" cy="528.92" r="21.84"/><path d="M1141.66,530.63a108.39,108.39,0,0,1-.68,34.83,69.18,69.18,0,0,1-5.42,17.16,32.93,32.93,0,0,1-5.41,8.06,18.63,18.63,0,0,1-4.35,3.36,12.09,12.09,0,0,1-12,0,18.49,18.49,0,0,1-4.36-3.36,33.16,33.16,0,0,1-5.41-8,69.15,69.15,0,0,1-5.43-17.17,108.11,108.11,0,0,1-.67-34.83c1.69,11.43,3.61,22.65,6.79,33.35a80.07,80.07,0,0,0,6,15.15,27.31,27.31,0,0,0,4.33,6,11.15,11.15,0,0,0,2.44,1.85,4.65,4.65,0,0,0,2.24.61,4.71,4.71,0,0,0,2.25-.61,11.15,11.15,0,0,0,2.44-1.85,27.07,27.07,0,0,0,4.33-6,79.56,79.56,0,0,0,6.05-15.15C1138.07,553.29,1140,542.06,1141.66,530.63Z"/><circle cx="1119.82" cy="528.92" r="21.84"/><path d="M705.48,639.64a108.39,108.39,0,0,1-.68,34.83,68.73,68.73,0,0,1-5.43,17.17,32.83,32.83,0,0,1-5.4,8.05,18.23,18.23,0,0,1-4.36,3.36,12.07,12.07,0,0,1-11.94,0,18.72,18.72,0,0,1-4.36-3.35,33.4,33.4,0,0,1-5.41-8.06,69.15,69.15,0,0,1-5.43-17.17,108.11,108.11,0,0,1-.67-34.83c1.69,11.44,3.61,22.66,6.78,33.35a79.82,79.82,0,0,0,6,15.15,27.07,27.07,0,0,0,4.33,6,10.88,10.88,0,0,0,2.43,1.85,4.45,4.45,0,0,0,4.5,0,10.84,10.84,0,0,0,2.44-1.85,27.07,27.07,0,0,0,4.33-6A79.56,79.56,0,0,0,698.71,673C701.89,662.3,703.8,651.08,705.48,639.64Z"/><circle cx="683.64" cy="637.94" r="21.84"/><path d="M784.16,639.64a108.39,108.39,0,0,1-.68,34.83,69.12,69.12,0,0,1-5.42,17.17,32.88,32.88,0,0,1-5.41,8.05,18.23,18.23,0,0,1-4.36,3.36,12.07,12.07,0,0,1-11.94,0A18.72,18.72,0,0,1,752,699.7a33.4,33.4,0,0,1-5.41-8.06,69.15,69.15,0,0,1-5.43-17.17,108.11,108.11,0,0,1-.67-34.83c1.69,11.44,3.61,22.66,6.79,33.35a79.8,79.8,0,0,0,6,15.15,27.07,27.07,0,0,0,4.33,6,10.92,10.92,0,0,0,2.44,1.85,4.65,4.65,0,0,0,2.24.61,4.71,4.71,0,0,0,2.25-.61,10.84,10.84,0,0,0,2.44-1.85,27.07,27.07,0,0,0,4.33-6,79.56,79.56,0,0,0,6-15.15C780.57,662.3,782.48,651.08,784.16,639.64Z"/><circle cx="762.32" cy="637.94" r="21.84"/><path d="M862.84,639.64a108.39,108.39,0,0,1-.68,34.83,69.12,69.12,0,0,1-5.42,17.17,32.88,32.88,0,0,1-5.41,8.05,18.37,18.37,0,0,1-4.35,3.36,12.09,12.09,0,0,1-12,0,18.72,18.72,0,0,1-4.36-3.35,33.4,33.4,0,0,1-5.41-8.06,69.15,69.15,0,0,1-5.43-17.17,108.11,108.11,0,0,1-.67-34.83c1.69,11.44,3.61,22.66,6.79,33.35a79.8,79.8,0,0,0,6,15.15,27.07,27.07,0,0,0,4.33,6,11.15,11.15,0,0,0,2.44,1.85,4.65,4.65,0,0,0,2.24.61,4.71,4.71,0,0,0,2.25-.61,10.84,10.84,0,0,0,2.44-1.85,27.07,27.07,0,0,0,4.33-6A79.56,79.56,0,0,0,856.07,673C859.25,662.3,861.16,651.08,862.84,639.64Z"/><circle cx="841" cy="637.94" r="21.84"/><path d="M941.53,639.64a108.68,108.68,0,0,1-.69,34.83,69.12,69.12,0,0,1-5.42,17.17,32.88,32.88,0,0,1-5.41,8.05,18.37,18.37,0,0,1-4.35,3.36,12.09,12.09,0,0,1-11.95,0,18.93,18.93,0,0,1-4.36-3.35,33.4,33.4,0,0,1-5.41-8.06,69.15,69.15,0,0,1-5.43-17.17,108.11,108.11,0,0,1-.67-34.83c1.7,11.44,3.61,22.66,6.79,33.35a79.8,79.8,0,0,0,6,15.15,27.07,27.07,0,0,0,4.33,6,11.15,11.15,0,0,0,2.44,1.85,4.44,4.44,0,0,0,4.49,0,10.84,10.84,0,0,0,2.44-1.85,27.07,27.07,0,0,0,4.33-6,78.91,78.91,0,0,0,6-15.15C937.93,662.3,939.84,651.08,941.53,639.64Z"/><circle cx="919.68" cy="637.94" r="21.84"/><path d="M1020.21,639.64a108.68,108.68,0,0,1-.69,34.83,69.12,69.12,0,0,1-5.42,17.17,32.88,32.88,0,0,1-5.41,8.05,18.37,18.37,0,0,1-4.35,3.36,12.09,12.09,0,0,1-12,0A19.15,19.15,0,0,1,988,699.7a33.4,33.4,0,0,1-5.41-8.06,69.15,69.15,0,0,1-5.43-17.17,108.39,108.39,0,0,1-.67-34.83c1.7,11.44,3.61,22.66,6.79,33.35a79.8,79.8,0,0,0,6,15.15,27.07,27.07,0,0,0,4.33,6,11.15,11.15,0,0,0,2.44,1.85,4.44,4.44,0,0,0,4.49,0,10.84,10.84,0,0,0,2.44-1.85,27.07,27.07,0,0,0,4.33-6,78.91,78.91,0,0,0,6-15.15C1016.61,662.3,1018.52,651.08,1020.21,639.64Z"/><circle cx="998.36" cy="637.94" r="21.84"/><path d="M1098.89,639.64a108.68,108.68,0,0,1-.69,34.83,69.12,69.12,0,0,1-5.42,17.17,32.88,32.88,0,0,1-5.41,8.05,18.37,18.37,0,0,1-4.35,3.36,12.09,12.09,0,0,1-12,0,18.87,18.87,0,0,1-4.35-3.35,33.16,33.16,0,0,1-5.42-8.06,69.15,69.15,0,0,1-5.43-17.17,108.68,108.68,0,0,1-.67-34.83c1.7,11.44,3.61,22.66,6.79,33.35a79.17,79.17,0,0,0,6,15.15,26.73,26.73,0,0,0,4.32,6,11.15,11.15,0,0,0,2.44,1.85,4.44,4.44,0,0,0,4.49,0,10.84,10.84,0,0,0,2.44-1.85,26.76,26.76,0,0,0,4.33-6,78.91,78.91,0,0,0,6-15.15C1095.29,662.3,1097.2,651.08,1098.89,639.64Z"/><circle cx="1077.04" cy="637.94" r="21.84"/><path d="M1177.57,639.64a109,109,0,0,1-.68,34.83,69.57,69.57,0,0,1-5.43,17.17,32.88,32.88,0,0,1-5.41,8.05,18.37,18.37,0,0,1-4.35,3.36,12.09,12.09,0,0,1-12,0,18.87,18.87,0,0,1-4.35-3.35,33.16,33.16,0,0,1-5.42-8.06,69.15,69.15,0,0,1-5.43-17.17,108.68,108.68,0,0,1-.67-34.83c1.7,11.44,3.61,22.66,6.79,33.35a79.82,79.82,0,0,0,6,15.15,26.73,26.73,0,0,0,4.32,6,11.15,11.15,0,0,0,2.44,1.85,4.44,4.44,0,0,0,4.49,0,10.62,10.62,0,0,0,2.44-1.85,26.76,26.76,0,0,0,4.33-6,78.91,78.91,0,0,0,6-15.15C1174,662.3,1175.88,651.08,1177.57,639.64Z"/><circle cx="1155.73" cy="637.94" r="21.84"/><path d="M751.11,748.65a108.68,108.68,0,0,1-.68,34.83A68.73,68.73,0,0,1,745,800.65a32.6,32.6,0,0,1-5.41,8.05,18.17,18.17,0,0,1-4.35,3.36,12.09,12.09,0,0,1-12,0,18.6,18.6,0,0,1-4.35-3.35,32.83,32.83,0,0,1-5.41-8.06,68.32,68.32,0,0,1-5.43-17.17,108.11,108.11,0,0,1-.67-34.83c1.69,11.44,3.6,22.66,6.78,33.35a79.56,79.56,0,0,0,6,15.15,27,27,0,0,0,4.32,6A11.15,11.15,0,0,0,727,805a4.71,4.71,0,0,0,2.25.61,4.63,4.63,0,0,0,2.24-.6,11.23,11.23,0,0,0,2.44-1.85,27.05,27.05,0,0,0,4.33-6A79.07,79.07,0,0,0,744.33,782C747.51,771.31,749.43,760.09,751.11,748.65Z"/><circle cx="729.27" cy="746.95" r="21.84"/><path d="M829.22,748.65a108.68,108.68,0,0,1-.68,34.83,68.73,68.73,0,0,1-5.43,17.17,32.6,32.6,0,0,1-5.41,8.05,18.17,18.17,0,0,1-4.35,3.36,12.09,12.09,0,0,1-12,0,18.6,18.6,0,0,1-4.35-3.35,32.83,32.83,0,0,1-5.41-8.06,68.73,68.73,0,0,1-5.43-17.17,108.11,108.11,0,0,1-.67-34.83c1.69,11.44,3.6,22.66,6.78,33.35a79.56,79.56,0,0,0,6,15.15,26.76,26.76,0,0,0,4.33,6,10.88,10.88,0,0,0,2.43,1.85,4.49,4.49,0,0,0,4.5,0,11.73,11.73,0,0,0,2.44-1.85,27.71,27.71,0,0,0,4.33-6A80.39,80.39,0,0,0,822.45,782C825.63,771.31,827.54,760.09,829.22,748.65Z"/><circle cx="807.38" cy="746.95" r="21.84"/><path d="M907.33,748.65a108.39,108.39,0,0,1-.68,34.83,68.73,68.73,0,0,1-5.43,17.17,32.6,32.6,0,0,1-5.41,8.05,18,18,0,0,1-4.35,3.36,12.07,12.07,0,0,1-11.94,0,18.45,18.45,0,0,1-4.36-3.35,32.83,32.83,0,0,1-5.41-8.06,68.73,68.73,0,0,1-5.43-17.17,108.11,108.11,0,0,1-.67-34.83c1.69,11.44,3.61,22.66,6.78,33.35a79.56,79.56,0,0,0,6.05,15.15,27.07,27.07,0,0,0,4.33,6,10.88,10.88,0,0,0,2.43,1.85,4.49,4.49,0,0,0,4.5,0,11.73,11.73,0,0,0,2.44-1.85,27.71,27.71,0,0,0,4.33-6,80.39,80.39,0,0,0,6-15.14C903.74,771.31,905.65,760.09,907.33,748.65Z"/><circle cx="885.49" cy="746.95" r="21.84"/><path d="M985.44,748.65a108.39,108.39,0,0,1-.68,34.83,68.73,68.73,0,0,1-5.43,17.17,32.83,32.83,0,0,1-5.4,8.05,18.23,18.23,0,0,1-4.36,3.36,12.07,12.07,0,0,1-11.94,0,18.45,18.45,0,0,1-4.36-3.35,33.4,33.4,0,0,1-5.41-8.06,69.15,69.15,0,0,1-5.43-17.17,108.11,108.11,0,0,1-.67-34.83c1.69,11.44,3.61,22.66,6.78,33.35a79.56,79.56,0,0,0,6.05,15.15,27.07,27.07,0,0,0,4.33,6,10.88,10.88,0,0,0,2.43,1.85,4.49,4.49,0,0,0,4.5,0,11.47,11.47,0,0,0,2.44-1.85,27.71,27.71,0,0,0,4.33-6,80.39,80.39,0,0,0,6-15.14C981.85,771.31,983.76,760.09,985.44,748.65Z"/><circle cx="963.6" cy="746.95" r="21.84"/><path d="M1063.55,748.65a108.39,108.39,0,0,1-.68,34.83,68.73,68.73,0,0,1-5.43,17.17,32.55,32.55,0,0,1-5.4,8.05,18.23,18.23,0,0,1-4.36,3.36,12.07,12.07,0,0,1-11.94,0,18.45,18.45,0,0,1-4.36-3.35,33.4,33.4,0,0,1-5.41-8.06,69.15,69.15,0,0,1-5.43-17.17,108.11,108.11,0,0,1-.67-34.83c1.69,11.44,3.61,22.66,6.79,33.35a78.88,78.88,0,0,0,6,15.15,27.07,27.07,0,0,0,4.33,6,10.92,10.92,0,0,0,2.44,1.85,4.47,4.47,0,0,0,4.49,0,11.47,11.47,0,0,0,2.44-1.85,27.38,27.38,0,0,0,4.33-6,79.73,79.73,0,0,0,6-15.14C1060,771.31,1061.87,760.09,1063.55,748.65Z"/><circle cx="1041.71" cy="746.95" r="21.84"/><path d="M1141.66,748.65a108.39,108.39,0,0,1-.68,34.83,69.12,69.12,0,0,1-5.42,17.17,32.88,32.88,0,0,1-5.41,8.05,18.37,18.37,0,0,1-4.35,3.36,12.09,12.09,0,0,1-12,0,18.45,18.45,0,0,1-4.36-3.35,33.4,33.4,0,0,1-5.41-8.06,69.15,69.15,0,0,1-5.43-17.17,108.11,108.11,0,0,1-.67-34.83c1.69,11.44,3.61,22.66,6.79,33.35a79.54,79.54,0,0,0,6,15.15,27.07,27.07,0,0,0,4.33,6,11.15,11.15,0,0,0,2.44,1.85,4.47,4.47,0,0,0,4.49,0,11.47,11.47,0,0,0,2.44-1.85,27.38,27.38,0,0,0,4.33-6,79.73,79.73,0,0,0,6.05-15.14C1138.07,771.31,1140,760.09,1141.66,748.65Z"/><circle cx="1119.82" cy="746.95" r="21.84"/><path d="M705.48,857.66a108.39,108.39,0,0,1-.68,34.83,68.73,68.73,0,0,1-5.43,17.17,32.83,32.83,0,0,1-5.4,8.05,18.23,18.23,0,0,1-4.36,3.36,12.07,12.07,0,0,1-11.94,0,18.2,18.2,0,0,1-4.36-3.35,33.4,33.4,0,0,1-5.41-8.06,69.15,69.15,0,0,1-5.43-17.17,108.1,108.1,0,0,1-.67-34.83c1.69,11.44,3.61,22.66,6.78,33.36a79.73,79.73,0,0,0,6,15.14,27.07,27.07,0,0,0,4.33,6,10.94,10.94,0,0,0,2.43,1.86,4.81,4.81,0,0,0,2.25.6,4.69,4.69,0,0,0,2.25-.6,11.47,11.47,0,0,0,2.44-1.85,27.54,27.54,0,0,0,4.33-6A80.09,80.09,0,0,0,698.71,891C701.89,880.32,703.8,869.1,705.48,857.66Z"/><circle cx="683.64" cy="855.96" r="21.84"/><path d="M784.16,857.66a108.39,108.39,0,0,1-.68,34.83,69.12,69.12,0,0,1-5.42,17.17,32.88,32.88,0,0,1-5.41,8.05,18.23,18.23,0,0,1-4.36,3.36,12.07,12.07,0,0,1-11.94,0,18.2,18.2,0,0,1-4.36-3.35,33.4,33.4,0,0,1-5.41-8.06,69.15,69.15,0,0,1-5.43-17.17,108.1,108.1,0,0,1-.67-34.83c1.69,11.44,3.61,22.66,6.79,33.36a79.7,79.7,0,0,0,6,15.14,27.07,27.07,0,0,0,4.33,6,11,11,0,0,0,2.44,1.86,4.74,4.74,0,0,0,2.24.6,4.69,4.69,0,0,0,2.25-.6A11.47,11.47,0,0,0,767,912.2a27.54,27.54,0,0,0,4.33-6,80.09,80.09,0,0,0,6-15.15C780.57,880.32,782.48,869.1,784.16,857.66Z"/><circle cx="762.32" cy="855.96" r="21.84"/><path d="M862.84,857.66a108.39,108.39,0,0,1-.68,34.83,69.12,69.12,0,0,1-5.42,17.17,32.88,32.88,0,0,1-5.41,8.05,18.37,18.37,0,0,1-4.35,3.36,12.09,12.09,0,0,1-12,0,18.2,18.2,0,0,1-4.36-3.35,33.4,33.4,0,0,1-5.41-8.06,69.15,69.15,0,0,1-5.43-17.17,108.1,108.1,0,0,1-.67-34.83c1.69,11.44,3.61,22.66,6.79,33.36a79.7,79.7,0,0,0,6,15.14,27.07,27.07,0,0,0,4.33,6,11.22,11.22,0,0,0,2.44,1.86,4.74,4.74,0,0,0,2.24.6,4.69,4.69,0,0,0,2.25-.6,11.47,11.47,0,0,0,2.44-1.85,27.54,27.54,0,0,0,4.33-6A80.09,80.09,0,0,0,856.07,891C859.25,880.32,861.16,869.1,862.84,857.66Z"/><circle cx="841" cy="855.96" r="21.84"/><path d="M941.53,857.66a108.68,108.68,0,0,1-.69,34.83,69.12,69.12,0,0,1-5.42,17.17,32.88,32.88,0,0,1-5.41,8.05,18.37,18.37,0,0,1-4.35,3.36,12.09,12.09,0,0,1-11.95,0,18.4,18.4,0,0,1-4.36-3.35,33.4,33.4,0,0,1-5.41-8.06,69.15,69.15,0,0,1-5.43-17.17,108.1,108.1,0,0,1-.67-34.83c1.7,11.44,3.61,22.66,6.79,33.36a79.7,79.7,0,0,0,6,15.14,27.07,27.07,0,0,0,4.33,6,11.22,11.22,0,0,0,2.44,1.86,4.74,4.74,0,0,0,2.24.6,4.66,4.66,0,0,0,2.25-.6,11.47,11.47,0,0,0,2.44-1.85,27.54,27.54,0,0,0,4.33-6,79.43,79.43,0,0,0,6-15.15C937.93,880.32,939.84,869.1,941.53,857.66Z"/><circle cx="919.68" cy="855.96" r="21.84"/><path d="M1020.21,857.66a108.68,108.68,0,0,1-.69,34.83,69.12,69.12,0,0,1-5.42,17.17,32.88,32.88,0,0,1-5.41,8.05,18.37,18.37,0,0,1-4.35,3.36,12.09,12.09,0,0,1-12,0,18.6,18.6,0,0,1-4.36-3.35,33.4,33.4,0,0,1-5.41-8.06,69.15,69.15,0,0,1-5.43-17.17,108.39,108.39,0,0,1-.67-34.83c1.7,11.44,3.61,22.66,6.79,33.36a79.7,79.7,0,0,0,6,15.14,27.07,27.07,0,0,0,4.33,6,11.22,11.22,0,0,0,2.44,1.86,4.77,4.77,0,0,0,2.24.6,4.66,4.66,0,0,0,2.25-.6,11.47,11.47,0,0,0,2.44-1.85,27.54,27.54,0,0,0,4.33-6,79.43,79.43,0,0,0,6-15.15C1016.61,880.32,1018.52,869.1,1020.21,857.66Z"/><circle cx="998.36" cy="855.96" r="21.84"/><path d="M1098.89,857.66a108.68,108.68,0,0,1-.69,34.83,69.12,69.12,0,0,1-5.42,17.17,32.88,32.88,0,0,1-5.41,8.05,18.37,18.37,0,0,1-4.35,3.36,12.09,12.09,0,0,1-12,0,18.34,18.34,0,0,1-4.35-3.35,33.16,33.16,0,0,1-5.42-8.06,69.15,69.15,0,0,1-5.43-17.17,108.67,108.67,0,0,1-.67-34.83c1.7,11.44,3.61,22.66,6.79,33.36a79.07,79.07,0,0,0,6,15.14,26.73,26.73,0,0,0,4.32,6,11.22,11.22,0,0,0,2.44,1.86,4.77,4.77,0,0,0,2.24.6,4.66,4.66,0,0,0,2.25-.6,11.47,11.47,0,0,0,2.44-1.85,27.22,27.22,0,0,0,4.33-6,79.43,79.43,0,0,0,6-15.15C1095.29,880.32,1097.2,869.1,1098.89,857.66Z"/><circle cx="1077.04" cy="855.96" r="21.84"/><path d="M1177.57,857.66a109,109,0,0,1-.68,34.83,69.57,69.57,0,0,1-5.43,17.17,32.88,32.88,0,0,1-5.41,8.05,18.37,18.37,0,0,1-4.35,3.36,12.09,12.09,0,0,1-12,0,18.34,18.34,0,0,1-4.35-3.35,33.16,33.16,0,0,1-5.42-8.06,69.15,69.15,0,0,1-5.43-17.17,108.67,108.67,0,0,1-.67-34.83c1.7,11.44,3.61,22.66,6.79,33.36a79.73,79.73,0,0,0,6,15.14,26.73,26.73,0,0,0,4.32,6,11.22,11.22,0,0,0,2.44,1.86,4.78,4.78,0,0,0,2.25.6,4.66,4.66,0,0,0,2.24-.6,11.23,11.23,0,0,0,2.44-1.85,27.22,27.22,0,0,0,4.33-6,79.43,79.43,0,0,0,6-15.15C1174,880.32,1175.88,869.1,1177.57,857.66Z"/><circle cx="1155.73" cy="855.96" r="21.84"/><path d="M751.11,966.68a108.62,108.62,0,0,1-.68,34.82,68.73,68.73,0,0,1-5.43,17.17,32.83,32.83,0,0,1-5.41,8.06,18.39,18.39,0,0,1-4.35,3.35,12.09,12.09,0,0,1-12,0,18.34,18.34,0,0,1-4.35-3.35,32.46,32.46,0,0,1-5.41-8.06,68.25,68.25,0,0,1-5.43-17.16,108.11,108.11,0,0,1-.67-34.83c1.69,11.43,3.6,22.65,6.78,33.35a79.73,79.73,0,0,0,6,15.14,27,27,0,0,0,4.32,6,10.91,10.91,0,0,0,2.44,1.86,5,5,0,0,0,2.25.61,4.76,4.76,0,0,0,2.24-.61,11.23,11.23,0,0,0,2.44-1.85,27,27,0,0,0,4.33-6,79.43,79.43,0,0,0,6.05-15.15C747.51,989.33,749.43,978.11,751.11,966.68Z"/><circle cx="729.27" cy="964.97" r="21.84"/><path d="M829.22,966.68a108.62,108.62,0,0,1-.68,34.82,68.73,68.73,0,0,1-5.43,17.17,32.83,32.83,0,0,1-5.41,8.06,18.39,18.39,0,0,1-4.35,3.35,12.09,12.09,0,0,1-12,0,18.34,18.34,0,0,1-4.35-3.35,32.46,32.46,0,0,1-5.41-8.06,68.66,68.66,0,0,1-5.43-17.16,108.11,108.11,0,0,1-.67-34.83c1.69,11.43,3.6,22.65,6.78,33.35a79.73,79.73,0,0,0,6,15.14,26.76,26.76,0,0,0,4.33,6,10.65,10.65,0,0,0,2.43,1.86,5,5,0,0,0,2.25.61,4.83,4.83,0,0,0,2.25-.61,11.73,11.73,0,0,0,2.44-1.85,27.63,27.63,0,0,0,4.33-6,80.76,80.76,0,0,0,6.05-15.15C825.63,989.33,827.54,978.11,829.22,966.68Z"/><circle cx="807.38" cy="964.97" r="21.84"/><path d="M907.33,966.68a108.33,108.33,0,0,1-.68,34.82,68.73,68.73,0,0,1-5.43,17.17,32.83,32.83,0,0,1-5.41,8.06,18.19,18.19,0,0,1-4.35,3.35,12.6,12.6,0,0,1-6,1.58,12.43,12.43,0,0,1-6-1.58,18.2,18.2,0,0,1-4.36-3.35,32.46,32.46,0,0,1-5.41-8.06,68.66,68.66,0,0,1-5.43-17.16,108.11,108.11,0,0,1-.67-34.83c1.69,11.43,3.61,22.65,6.78,33.35a79.73,79.73,0,0,0,6.05,15.14,27.07,27.07,0,0,0,4.33,6,10.65,10.65,0,0,0,2.43,1.86,5,5,0,0,0,2.25.61,4.83,4.83,0,0,0,2.25-.61,11.73,11.73,0,0,0,2.44-1.85,27.63,27.63,0,0,0,4.33-6,80.76,80.76,0,0,0,6-15.15C903.74,989.33,905.65,978.11,907.33,966.68Z"/><circle cx="885.49" cy="964.97" r="21.84"/><path d="M985.44,966.68a108.33,108.33,0,0,1-.68,34.82,68.73,68.73,0,0,1-5.43,17.17,33.07,33.07,0,0,1-5.4,8.06,18.45,18.45,0,0,1-4.36,3.35,12.07,12.07,0,0,1-11.94,0,18.2,18.2,0,0,1-4.36-3.35,33,33,0,0,1-5.41-8.06,69.08,69.08,0,0,1-5.43-17.16,108.11,108.11,0,0,1-.67-34.83c1.69,11.43,3.61,22.65,6.78,33.35a79.73,79.73,0,0,0,6.05,15.14,27.07,27.07,0,0,0,4.33,6,10.65,10.65,0,0,0,2.43,1.86,5,5,0,0,0,2.25.61,4.83,4.83,0,0,0,2.25-.61,11.47,11.47,0,0,0,2.44-1.85,27.63,27.63,0,0,0,4.33-6,80.76,80.76,0,0,0,6-15.15C981.85,989.33,983.76,978.11,985.44,966.68Z"/><circle cx="963.6" cy="964.97" r="21.84"/><path d="M1063.55,966.68a108.33,108.33,0,0,1-.68,34.82,68.73,68.73,0,0,1-5.43,17.17,32.78,32.78,0,0,1-5.4,8.06,18.45,18.45,0,0,1-4.36,3.35,12.07,12.07,0,0,1-11.94,0,18.2,18.2,0,0,1-4.36-3.35,33,33,0,0,1-5.41-8.06,69.08,69.08,0,0,1-5.43-17.16,108.11,108.11,0,0,1-.67-34.83c1.69,11.43,3.61,22.65,6.79,33.35a79,79,0,0,0,6,15.14,27.07,27.07,0,0,0,4.33,6,10.69,10.69,0,0,0,2.44,1.86,4.88,4.88,0,0,0,2.24.61,4.83,4.83,0,0,0,2.25-.61,11.47,11.47,0,0,0,2.44-1.85,27.31,27.31,0,0,0,4.33-6,80.09,80.09,0,0,0,6-15.15C1060,989.33,1061.87,978.11,1063.55,966.68Z"/><circle cx="1041.71" cy="964.97" r="21.84"/><path d="M1141.66,966.68a108.33,108.33,0,0,1-.68,34.82,69.12,69.12,0,0,1-5.42,17.17,33.12,33.12,0,0,1-5.41,8.06,18.6,18.6,0,0,1-4.35,3.35,12.09,12.09,0,0,1-12,0,18.2,18.2,0,0,1-4.36-3.35,33,33,0,0,1-5.41-8.06,69.08,69.08,0,0,1-5.43-17.16,108.11,108.11,0,0,1-.67-34.83c1.69,11.43,3.61,22.65,6.79,33.35a79.7,79.7,0,0,0,6,15.14,27.07,27.07,0,0,0,4.33,6,10.91,10.91,0,0,0,2.44,1.86,4.88,4.88,0,0,0,2.24.61,4.83,4.83,0,0,0,2.25-.61,11.47,11.47,0,0,0,2.44-1.85,27.31,27.31,0,0,0,4.33-6,80.09,80.09,0,0,0,6.05-15.15C1138.07,989.33,1140,978.11,1141.66,966.68Z"/><circle cx="1119.82" cy="964.97" r="21.84"/><path d="M705.48,1075.69a108.39,108.39,0,0,1-.68,34.83,68.79,68.79,0,0,1-5.43,17.16,32.88,32.88,0,0,1-5.4,8.06,18.2,18.2,0,0,1-4.36,3.35,12,12,0,0,1-11.94,0,18.49,18.49,0,0,1-4.36-3.36,33.16,33.16,0,0,1-5.41-8,69.28,69.28,0,0,1-5.43-17.17,108.11,108.11,0,0,1-.67-34.83c1.69,11.43,3.61,22.65,6.78,33.35a79.73,79.73,0,0,0,6,15.14,27.38,27.38,0,0,0,4.33,6,10.88,10.88,0,0,0,2.43,1.85,4.83,4.83,0,0,0,2.25.61,4.71,4.71,0,0,0,2.25-.61,11.15,11.15,0,0,0,2.44-1.85,27.07,27.07,0,0,0,4.33-6,80.09,80.09,0,0,0,6.05-15.15C701.89,1098.34,703.8,1087.12,705.48,1075.69Z"/><circle cx="683.64" cy="1073.98" r="21.84"/><path d="M784.16,1075.69a108.39,108.39,0,0,1-.68,34.83,69.18,69.18,0,0,1-5.42,17.16,32.93,32.93,0,0,1-5.41,8.06,18.2,18.2,0,0,1-4.36,3.35,12,12,0,0,1-11.94,0,18.49,18.49,0,0,1-4.36-3.36,33.16,33.16,0,0,1-5.41-8,69.28,69.28,0,0,1-5.43-17.17,108.11,108.11,0,0,1-.67-34.83c1.69,11.43,3.61,22.65,6.79,33.35a79.7,79.7,0,0,0,6,15.14,27.38,27.38,0,0,0,4.33,6,10.92,10.92,0,0,0,2.44,1.85,4.76,4.76,0,0,0,2.24.61,4.71,4.71,0,0,0,2.25-.61,11.15,11.15,0,0,0,2.44-1.85,27.07,27.07,0,0,0,4.33-6,80.09,80.09,0,0,0,6-15.15C780.57,1098.34,782.48,1087.12,784.16,1075.69Z"/><circle cx="762.32" cy="1073.98" r="21.84"/><path d="M862.84,1075.69a108.39,108.39,0,0,1-.68,34.83,69.18,69.18,0,0,1-5.42,17.16,32.93,32.93,0,0,1-5.41,8.06,18.34,18.34,0,0,1-4.35,3.35,12.05,12.05,0,0,1-12,0,18.49,18.49,0,0,1-4.36-3.36,33.16,33.16,0,0,1-5.41-8,69.28,69.28,0,0,1-5.43-17.17,108.11,108.11,0,0,1-.67-34.83c1.69,11.43,3.61,22.65,6.79,33.35a79.7,79.7,0,0,0,6,15.14,27.38,27.38,0,0,0,4.33,6,11.15,11.15,0,0,0,2.44,1.85,4.76,4.76,0,0,0,2.24.61,4.71,4.71,0,0,0,2.25-.61,11.15,11.15,0,0,0,2.44-1.85,27.07,27.07,0,0,0,4.33-6,80.09,80.09,0,0,0,6.05-15.15C859.25,1098.34,861.16,1087.12,862.84,1075.69Z"/><circle cx="841" cy="1073.98" r="21.84"/><path d="M941.53,1075.69a108.68,108.68,0,0,1-.69,34.83,69.18,69.18,0,0,1-5.42,17.16,32.93,32.93,0,0,1-5.41,8.06,18.34,18.34,0,0,1-4.35,3.35,12.05,12.05,0,0,1-11.95,0,18.69,18.69,0,0,1-4.36-3.36,33.16,33.16,0,0,1-5.41-8,69.28,69.28,0,0,1-5.43-17.17,108.11,108.11,0,0,1-.67-34.83c1.7,11.43,3.61,22.65,6.79,33.35a79.7,79.7,0,0,0,6,15.14,27.38,27.38,0,0,0,4.33,6,11.15,11.15,0,0,0,2.44,1.85,4.76,4.76,0,0,0,2.24.61,4.68,4.68,0,0,0,2.25-.61,11.15,11.15,0,0,0,2.44-1.85,27.07,27.07,0,0,0,4.33-6,79.43,79.43,0,0,0,6-15.15C937.93,1098.34,939.84,1087.12,941.53,1075.69Z"/><circle cx="919.68" cy="1073.98" r="21.84"/><path d="M1020.21,1075.69a108.68,108.68,0,0,1-.69,34.83,69.18,69.18,0,0,1-5.42,17.16,32.93,32.93,0,0,1-5.41,8.06,18.34,18.34,0,0,1-4.35,3.35,12.05,12.05,0,0,1-12,0,18.9,18.9,0,0,1-4.36-3.36,33.16,33.16,0,0,1-5.41-8,69.28,69.28,0,0,1-5.43-17.17,108.39,108.39,0,0,1-.67-34.83c1.7,11.43,3.61,22.65,6.79,33.35a79.7,79.7,0,0,0,6,15.14,27.38,27.38,0,0,0,4.33,6,11.15,11.15,0,0,0,2.44,1.85,4.79,4.79,0,0,0,2.24.61,4.68,4.68,0,0,0,2.25-.61,11.15,11.15,0,0,0,2.44-1.85,27.07,27.07,0,0,0,4.33-6,79.43,79.43,0,0,0,6-15.15C1016.61,1098.34,1018.52,1087.12,1020.21,1075.69Z"/><circle cx="998.36" cy="1073.98" r="21.84"/><path d="M1098.89,1075.69a108.68,108.68,0,0,1-.69,34.83,69.18,69.18,0,0,1-5.42,17.16,32.93,32.93,0,0,1-5.41,8.06,18.34,18.34,0,0,1-4.35,3.35,12.05,12.05,0,0,1-12,0,18.63,18.63,0,0,1-4.35-3.36,32.92,32.92,0,0,1-5.42-8,69.28,69.28,0,0,1-5.43-17.17,108.68,108.68,0,0,1-.67-34.83c1.7,11.43,3.61,22.65,6.79,33.35a79.07,79.07,0,0,0,6,15.14,27,27,0,0,0,4.32,6,11.15,11.15,0,0,0,2.44,1.85,4.79,4.79,0,0,0,2.24.61,4.68,4.68,0,0,0,2.25-.61,11.15,11.15,0,0,0,2.44-1.85,26.76,26.76,0,0,0,4.33-6,79.43,79.43,0,0,0,6-15.15C1095.29,1098.34,1097.2,1087.12,1098.89,1075.69Z"/><circle cx="1077.04" cy="1073.98" r="21.84"/><path d="M1177.57,1075.69a109,109,0,0,1-.68,34.83,69.63,69.63,0,0,1-5.43,17.16,32.93,32.93,0,0,1-5.41,8.06,18.34,18.34,0,0,1-4.35,3.35,12.05,12.05,0,0,1-12,0,18.63,18.63,0,0,1-4.35-3.36,32.92,32.92,0,0,1-5.42-8,69.28,69.28,0,0,1-5.43-17.17,108.68,108.68,0,0,1-.67-34.83c1.7,11.43,3.61,22.65,6.79,33.35a79.73,79.73,0,0,0,6,15.14,27,27,0,0,0,4.32,6,11.15,11.15,0,0,0,2.44,1.85,4.8,4.8,0,0,0,2.25.61,4.68,4.68,0,0,0,2.24-.61,10.92,10.92,0,0,0,2.44-1.85,26.76,26.76,0,0,0,4.33-6,79.43,79.43,0,0,0,6-15.15C1174,1098.34,1175.88,1087.12,1177.57,1075.69Z"/><circle cx="1155.73" cy="1073.98" r="21.84"/><path d="M751.11,1184.7a108.68,108.68,0,0,1-.68,34.83,68.79,68.79,0,0,1-5.43,17.16,32.65,32.65,0,0,1-5.41,8.06,18.42,18.42,0,0,1-4.35,3.36,12.09,12.09,0,0,1-12,0,18.63,18.63,0,0,1-4.35-3.36,32.6,32.6,0,0,1-5.41-8,68.32,68.32,0,0,1-5.43-17.17,108.11,108.11,0,0,1-.67-34.83c1.69,11.43,3.6,22.65,6.78,33.35a80.09,80.09,0,0,0,6,15.15,27.28,27.28,0,0,0,4.32,6,11.15,11.15,0,0,0,2.44,1.85,4.71,4.71,0,0,0,2.25.61,4.65,4.65,0,0,0,2.24-.61,10.92,10.92,0,0,0,2.44-1.85,26.76,26.76,0,0,0,4.33-6,78.91,78.91,0,0,0,6.05-15.15C747.51,1207.36,749.43,1196.13,751.11,1184.7Z"/><circle cx="729.27" cy="1182.99" r="21.84"/><path d="M829.22,1184.7a108.68,108.68,0,0,1-.68,34.83,68.79,68.79,0,0,1-5.43,17.16,32.65,32.65,0,0,1-5.41,8.06,18.42,18.42,0,0,1-4.35,3.36,12.09,12.09,0,0,1-12,0,18.63,18.63,0,0,1-4.35-3.36,32.6,32.6,0,0,1-5.41-8,68.73,68.73,0,0,1-5.43-17.17,108.11,108.11,0,0,1-.67-34.83c1.69,11.43,3.6,22.65,6.78,33.35a80.09,80.09,0,0,0,6,15.15,27,27,0,0,0,4.33,6,10.88,10.88,0,0,0,2.43,1.85,4.45,4.45,0,0,0,4.5,0,11.39,11.39,0,0,0,2.44-1.85,27.4,27.4,0,0,0,4.33-6,80.22,80.22,0,0,0,6.05-15.15C825.63,1207.36,827.54,1196.13,829.22,1184.7Z"/><circle cx="807.38" cy="1182.99" r="21.84"/><path d="M907.33,1184.7a108.39,108.39,0,0,1-.68,34.83,68.79,68.79,0,0,1-5.43,17.16,32.65,32.65,0,0,1-5.41,8.06,18.22,18.22,0,0,1-4.35,3.36,12.84,12.84,0,0,1-6,1.58,12.65,12.65,0,0,1-6-1.58,18.49,18.49,0,0,1-4.36-3.36,32.6,32.6,0,0,1-5.41-8,68.73,68.73,0,0,1-5.43-17.17,108.11,108.11,0,0,1-.67-34.83c1.69,11.43,3.61,22.65,6.78,33.35a80.09,80.09,0,0,0,6.05,15.15,27.31,27.31,0,0,0,4.33,6,10.88,10.88,0,0,0,2.43,1.85,4.45,4.45,0,0,0,4.5,0,11.39,11.39,0,0,0,2.44-1.85,27.4,27.4,0,0,0,4.33-6,80.22,80.22,0,0,0,6-15.15C903.74,1207.36,905.65,1196.13,907.33,1184.7Z"/><circle cx="885.49" cy="1182.99" r="21.84"/><path d="M985.44,1184.7a108.39,108.39,0,0,1-.68,34.83,68.79,68.79,0,0,1-5.43,17.16,32.88,32.88,0,0,1-5.4,8.06,18.49,18.49,0,0,1-4.36,3.36,12.07,12.07,0,0,1-11.94,0,18.49,18.49,0,0,1-4.36-3.36,33.16,33.16,0,0,1-5.41-8,69.15,69.15,0,0,1-5.43-17.17,108.11,108.11,0,0,1-.67-34.83c1.69,11.43,3.61,22.65,6.78,33.35a80.09,80.09,0,0,0,6.05,15.15,27.31,27.31,0,0,0,4.33,6,10.88,10.88,0,0,0,2.43,1.85,4.45,4.45,0,0,0,4.5,0,11.15,11.15,0,0,0,2.44-1.85,27.4,27.4,0,0,0,4.33-6,80.22,80.22,0,0,0,6-15.15C981.85,1207.36,983.76,1196.13,985.44,1184.7Z"/><circle cx="963.6" cy="1182.99" r="21.84"/><path d="M1063.55,1184.7a108.39,108.39,0,0,1-.68,34.83,68.79,68.79,0,0,1-5.43,17.16,32.6,32.6,0,0,1-5.4,8.06,18.49,18.49,0,0,1-4.36,3.36,12.07,12.07,0,0,1-11.94,0,18.49,18.49,0,0,1-4.36-3.36,33.16,33.16,0,0,1-5.41-8,69.15,69.15,0,0,1-5.43-17.17,108.11,108.11,0,0,1-.67-34.83c1.69,11.43,3.61,22.65,6.79,33.35a79.41,79.41,0,0,0,6,15.15,27.31,27.31,0,0,0,4.33,6,10.92,10.92,0,0,0,2.44,1.85,4.65,4.65,0,0,0,2.24.61,4.71,4.71,0,0,0,2.25-.61,11.15,11.15,0,0,0,2.44-1.85,27.07,27.07,0,0,0,4.33-6,79.56,79.56,0,0,0,6-15.15C1060,1207.36,1061.87,1196.13,1063.55,1184.7Z"/><circle cx="1041.71" cy="1182.99" r="21.84"/><path d="M1141.66,1184.7a108.39,108.39,0,0,1-.68,34.83,69.18,69.18,0,0,1-5.42,17.16,32.93,32.93,0,0,1-5.41,8.06,18.63,18.63,0,0,1-4.35,3.36,12.09,12.09,0,0,1-12,0,18.49,18.49,0,0,1-4.36-3.36,33.16,33.16,0,0,1-5.41-8,69.15,69.15,0,0,1-5.43-17.17,108.11,108.11,0,0,1-.67-34.83c1.69,11.43,3.61,22.65,6.79,33.35a80.07,80.07,0,0,0,6,15.15,27.31,27.31,0,0,0,4.33,6,11.15,11.15,0,0,0,2.44,1.85,4.65,4.65,0,0,0,2.24.61,4.71,4.71,0,0,0,2.25-.61,11.15,11.15,0,0,0,2.44-1.85,27.07,27.07,0,0,0,4.33-6,79.56,79.56,0,0,0,6.05-15.15C1138.07,1207.36,1140,1196.13,1141.66,1184.7Z"/><circle cx="1119.82" cy="1182.99" r="21.84"/><path d="M705.48,1293.71a108.39,108.39,0,0,1-.68,34.83,68.73,68.73,0,0,1-5.43,17.17,32.83,32.83,0,0,1-5.4,8,18.23,18.23,0,0,1-4.36,3.36,12.07,12.07,0,0,1-11.94,0,18.72,18.72,0,0,1-4.36-3.35,33.4,33.4,0,0,1-5.41-8.06,69.15,69.15,0,0,1-5.43-17.17,108.11,108.11,0,0,1-.67-34.83c1.69,11.44,3.61,22.66,6.78,33.35a79.82,79.82,0,0,0,6,15.15,27.07,27.07,0,0,0,4.33,6,10.88,10.88,0,0,0,2.43,1.85,4.45,4.45,0,0,0,4.5,0,10.84,10.84,0,0,0,2.44-1.85,27.07,27.07,0,0,0,4.33-6,79.73,79.73,0,0,0,6.05-15.14C701.89,1316.37,703.8,1305.15,705.48,1293.71Z"/><circle cx="683.64" cy="1292.01" r="21.84"/><path d="M784.16,1293.71a108.39,108.39,0,0,1-.68,34.83,69.12,69.12,0,0,1-5.42,17.17,32.88,32.88,0,0,1-5.41,8,18.23,18.23,0,0,1-4.36,3.36,12.07,12.07,0,0,1-11.94,0,18.72,18.72,0,0,1-4.36-3.35,33.4,33.4,0,0,1-5.41-8.06,69.15,69.15,0,0,1-5.43-17.17,108.11,108.11,0,0,1-.67-34.83c1.69,11.44,3.61,22.66,6.79,33.35a79.8,79.8,0,0,0,6,15.15,27.07,27.07,0,0,0,4.33,6,10.92,10.92,0,0,0,2.44,1.85,4.65,4.65,0,0,0,2.24.61,4.71,4.71,0,0,0,2.25-.61,10.84,10.84,0,0,0,2.44-1.85,27.07,27.07,0,0,0,4.33-6,79.73,79.73,0,0,0,6-15.14C780.57,1316.37,782.48,1305.15,784.16,1293.71Z"/><circle cx="762.32" cy="1292.01" r="21.84"/><path d="M862.84,1293.71a108.39,108.39,0,0,1-.68,34.83,69.12,69.12,0,0,1-5.42,17.17,32.88,32.88,0,0,1-5.41,8,18.37,18.37,0,0,1-4.35,3.36,12.09,12.09,0,0,1-12,0,18.72,18.72,0,0,1-4.36-3.35,33.4,33.4,0,0,1-5.41-8.06,69.15,69.15,0,0,1-5.43-17.17,108.11,108.11,0,0,1-.67-34.83c1.69,11.44,3.61,22.66,6.79,33.35a79.8,79.8,0,0,0,6,15.15,27.07,27.07,0,0,0,4.33,6,11.15,11.15,0,0,0,2.44,1.85,4.65,4.65,0,0,0,2.24.61,4.71,4.71,0,0,0,2.25-.61,10.84,10.84,0,0,0,2.44-1.85,27.07,27.07,0,0,0,4.33-6,79.73,79.73,0,0,0,6.05-15.14C859.25,1316.37,861.16,1305.15,862.84,1293.71Z"/><circle cx="841" cy="1292.01" r="21.84"/><path d="M941.53,1293.71a108.68,108.68,0,0,1-.69,34.83,69.12,69.12,0,0,1-5.42,17.17,32.88,32.88,0,0,1-5.41,8,18.37,18.37,0,0,1-4.35,3.36,12.09,12.09,0,0,1-11.95,0,18.93,18.93,0,0,1-4.36-3.35,33.4,33.4,0,0,1-5.41-8.06,69.15,69.15,0,0,1-5.43-17.17,108.11,108.11,0,0,1-.67-34.83c1.7,11.44,3.61,22.66,6.79,33.35a79.8,79.8,0,0,0,6,15.15,27.07,27.07,0,0,0,4.33,6,11.15,11.15,0,0,0,2.44,1.85,4.44,4.44,0,0,0,4.49,0,10.84,10.84,0,0,0,2.44-1.85,27.07,27.07,0,0,0,4.33-6,79.07,79.07,0,0,0,6-15.14C937.93,1316.37,939.84,1305.15,941.53,1293.71Z"/><circle cx="919.68" cy="1292.01" r="21.84"/><path d="M1020.21,1293.71a108.68,108.68,0,0,1-.69,34.83,69.12,69.12,0,0,1-5.42,17.17,32.88,32.88,0,0,1-5.41,8,18.37,18.37,0,0,1-4.35,3.36,12.09,12.09,0,0,1-12,0,19.15,19.15,0,0,1-4.36-3.35,33.4,33.4,0,0,1-5.41-8.06,69.15,69.15,0,0,1-5.43-17.17,108.39,108.39,0,0,1-.67-34.83c1.7,11.44,3.61,22.66,6.79,33.35a79.8,79.8,0,0,0,6,15.15,27.07,27.07,0,0,0,4.33,6,11.15,11.15,0,0,0,2.44,1.85,4.44,4.44,0,0,0,4.49,0,10.84,10.84,0,0,0,2.44-1.85,27.07,27.07,0,0,0,4.33-6,79.07,79.07,0,0,0,6-15.14C1016.61,1316.37,1018.52,1305.15,1020.21,1293.71Z"/><circle cx="998.36" cy="1292.01" r="21.84"/><path d="M1098.89,1293.71a108.68,108.68,0,0,1-.69,34.83,69.12,69.12,0,0,1-5.42,17.17,32.88,32.88,0,0,1-5.41,8,18.37,18.37,0,0,1-4.35,3.36,12.09,12.09,0,0,1-12,0,18.87,18.87,0,0,1-4.35-3.35,33.16,33.16,0,0,1-5.42-8.06,69.15,69.15,0,0,1-5.43-17.17,108.68,108.68,0,0,1-.67-34.83c1.7,11.44,3.61,22.66,6.79,33.35a79.17,79.17,0,0,0,6,15.15,26.73,26.73,0,0,0,4.32,6,11.15,11.15,0,0,0,2.44,1.85,4.44,4.44,0,0,0,4.49,0,10.84,10.84,0,0,0,2.44-1.85,26.76,26.76,0,0,0,4.33-6,79.07,79.07,0,0,0,6-15.14C1095.29,1316.37,1097.2,1305.15,1098.89,1293.71Z"/><circle cx="1077.04" cy="1292.01" r="21.84"/><path d="M1177.57,1293.71a109,109,0,0,1-.68,34.83,69.57,69.57,0,0,1-5.43,17.17,32.88,32.88,0,0,1-5.41,8,18.37,18.37,0,0,1-4.35,3.36,12.09,12.09,0,0,1-12,0,18.87,18.87,0,0,1-4.35-3.35,33.16,33.16,0,0,1-5.42-8.06,69.15,69.15,0,0,1-5.43-17.17,108.68,108.68,0,0,1-.67-34.83c1.7,11.44,3.61,22.66,6.79,33.35a79.82,79.82,0,0,0,6,15.15,26.73,26.73,0,0,0,4.32,6,11.15,11.15,0,0,0,2.44,1.85,4.44,4.44,0,0,0,4.49,0,10.62,10.62,0,0,0,2.44-1.85,26.76,26.76,0,0,0,4.33-6,79.07,79.07,0,0,0,6-15.14C1174,1316.37,1175.88,1305.15,1177.57,1293.71Z"/><circle cx="1155.73" cy="1292.01" r="21.84"/><path d="M751.11,1402.72a108.68,108.68,0,0,1-.68,34.83,68.73,68.73,0,0,1-5.43,17.17,32.6,32.6,0,0,1-5.41,8,18.17,18.17,0,0,1-4.35,3.36,12.09,12.09,0,0,1-12,0,18.6,18.6,0,0,1-4.35-3.35,32.83,32.83,0,0,1-5.41-8.06,68.32,68.32,0,0,1-5.43-17.17,108.11,108.11,0,0,1-.67-34.83c1.69,11.44,3.6,22.66,6.78,33.35a79.56,79.56,0,0,0,6,15.15,27,27,0,0,0,4.32,6,11.15,11.15,0,0,0,2.44,1.85,4.71,4.71,0,0,0,2.25.61,4.63,4.63,0,0,0,2.24-.6,11.23,11.23,0,0,0,2.44-1.85,27.05,27.05,0,0,0,4.33-6,79.07,79.07,0,0,0,6.05-15.14C747.51,1425.38,749.43,1414.16,751.11,1402.72Z"/><circle cx="729.27" cy="1401.02" r="21.84"/><path d="M829.22,1402.72a108.68,108.68,0,0,1-.68,34.83,68.73,68.73,0,0,1-5.43,17.17,32.6,32.6,0,0,1-5.41,8,18.17,18.17,0,0,1-4.35,3.36,12.09,12.09,0,0,1-12,0,18.6,18.6,0,0,1-4.35-3.35,32.83,32.83,0,0,1-5.41-8.06,68.73,68.73,0,0,1-5.43-17.17,108.11,108.11,0,0,1-.67-34.83c1.69,11.44,3.6,22.66,6.78,33.35a79.56,79.56,0,0,0,6,15.15,26.76,26.76,0,0,0,4.33,6,10.88,10.88,0,0,0,2.43,1.85,4.49,4.49,0,0,0,4.5,0,11.73,11.73,0,0,0,2.44-1.85,27.71,27.71,0,0,0,4.33-6,80.39,80.39,0,0,0,6.05-15.14C825.63,1425.38,827.54,1414.16,829.22,1402.72Z"/><circle cx="807.38" cy="1401.02" r="21.84"/><path d="M907.33,1402.72a108.39,108.39,0,0,1-.68,34.83,68.73,68.73,0,0,1-5.43,17.17,32.6,32.6,0,0,1-5.41,8,18,18,0,0,1-4.35,3.36,12.07,12.07,0,0,1-11.94,0,18.45,18.45,0,0,1-4.36-3.35,32.83,32.83,0,0,1-5.41-8.06,68.73,68.73,0,0,1-5.43-17.17,108.11,108.11,0,0,1-.67-34.83c1.69,11.44,3.61,22.66,6.78,33.35a79.56,79.56,0,0,0,6.05,15.15,27.07,27.07,0,0,0,4.33,6,10.88,10.88,0,0,0,2.43,1.85,4.49,4.49,0,0,0,4.5,0,11.73,11.73,0,0,0,2.44-1.85,27.71,27.71,0,0,0,4.33-6,80.39,80.39,0,0,0,6-15.14C903.74,1425.38,905.65,1414.16,907.33,1402.72Z"/><circle cx="885.49" cy="1401.02" r="21.84"/><path d="M985.44,1402.72a108.39,108.39,0,0,1-.68,34.83,68.73,68.73,0,0,1-5.43,17.17,32.83,32.83,0,0,1-5.4,8,18.23,18.23,0,0,1-4.36,3.36,12.07,12.07,0,0,1-11.94,0,18.45,18.45,0,0,1-4.36-3.35,33.4,33.4,0,0,1-5.41-8.06,69.15,69.15,0,0,1-5.43-17.17,108.11,108.11,0,0,1-.67-34.83c1.69,11.44,3.61,22.66,6.78,33.35a79.56,79.56,0,0,0,6.05,15.15,27.07,27.07,0,0,0,4.33,6,10.88,10.88,0,0,0,2.43,1.85,4.49,4.49,0,0,0,4.5,0,11.47,11.47,0,0,0,2.44-1.85,27.71,27.71,0,0,0,4.33-6,80.39,80.39,0,0,0,6-15.14C981.85,1425.38,983.76,1414.16,985.44,1402.72Z"/><circle cx="963.6" cy="1401.02" r="21.84"/><path d="M1063.55,1402.72a108.39,108.39,0,0,1-.68,34.83,68.73,68.73,0,0,1-5.43,17.17,32.55,32.55,0,0,1-5.4,8,18.23,18.23,0,0,1-4.36,3.36,12.07,12.07,0,0,1-11.94,0,18.45,18.45,0,0,1-4.36-3.35,33.4,33.4,0,0,1-5.41-8.06,69.15,69.15,0,0,1-5.43-17.17,108.11,108.11,0,0,1-.67-34.83c1.69,11.44,3.61,22.66,6.79,33.35a78.88,78.88,0,0,0,6,15.15,27.07,27.07,0,0,0,4.33,6,10.92,10.92,0,0,0,2.44,1.85,4.47,4.47,0,0,0,4.49,0,11.47,11.47,0,0,0,2.44-1.85,27.38,27.38,0,0,0,4.33-6,79.73,79.73,0,0,0,6-15.14C1060,1425.38,1061.87,1414.16,1063.55,1402.72Z"/><circle cx="1041.71" cy="1401.02" r="21.84"/><path d="M1141.66,1402.72a108.39,108.39,0,0,1-.68,34.83,69.12,69.12,0,0,1-5.42,17.17,32.88,32.88,0,0,1-5.41,8,18.37,18.37,0,0,1-4.35,3.36,12.09,12.09,0,0,1-12,0,18.45,18.45,0,0,1-4.36-3.35,33.4,33.4,0,0,1-5.41-8.06,69.15,69.15,0,0,1-5.43-17.17,108.11,108.11,0,0,1-.67-34.83c1.69,11.44,3.61,22.66,6.79,33.35a79.54,79.54,0,0,0,6,15.15,27.07,27.07,0,0,0,4.33,6,11.15,11.15,0,0,0,2.44,1.85,4.47,4.47,0,0,0,4.49,0,11.47,11.47,0,0,0,2.44-1.85,27.38,27.38,0,0,0,4.33-6,79.73,79.73,0,0,0,6.05-15.14C1138.07,1425.38,1140,1414.16,1141.66,1402.72Z"/><circle cx="1119.82" cy="1401.02" r="21.84"/><path d="M705.48,1511.73a108.39,108.39,0,0,1-.68,34.83,68.73,68.73,0,0,1-5.43,17.17,32.83,32.83,0,0,1-5.4,8,18.23,18.23,0,0,1-4.36,3.36,12.07,12.07,0,0,1-11.94,0,18.2,18.2,0,0,1-4.36-3.35,33.4,33.4,0,0,1-5.41-8.06,69,69,0,0,1-5.43-17.17,108.1,108.1,0,0,1-.67-34.83c1.69,11.44,3.61,22.66,6.78,33.36a79.73,79.73,0,0,0,6,15.14,27.07,27.07,0,0,0,4.33,6,10.94,10.94,0,0,0,2.43,1.86,4.81,4.81,0,0,0,2.25.6,4.69,4.69,0,0,0,2.25-.6,11.47,11.47,0,0,0,2.44-1.85,27.54,27.54,0,0,0,4.33-6,80.09,80.09,0,0,0,6.05-15.15C701.89,1534.39,703.8,1523.17,705.48,1511.73Z"/><circle cx="683.64" cy="1510.03" r="21.84"/><path d="M784.16,1511.73a108.39,108.39,0,0,1-.68,34.83,69.12,69.12,0,0,1-5.42,17.17,32.88,32.88,0,0,1-5.41,8,18.23,18.23,0,0,1-4.36,3.36,12.07,12.07,0,0,1-11.94,0,18.2,18.2,0,0,1-4.36-3.35,33.4,33.4,0,0,1-5.41-8.06,69,69,0,0,1-5.43-17.17,108.1,108.1,0,0,1-.67-34.83c1.69,11.44,3.61,22.66,6.79,33.36a79.7,79.7,0,0,0,6,15.14,27.07,27.07,0,0,0,4.33,6,11,11,0,0,0,2.44,1.86,4.74,4.74,0,0,0,2.24.6,4.69,4.69,0,0,0,2.25-.6,11.47,11.47,0,0,0,2.44-1.85,27.54,27.54,0,0,0,4.33-6,80.09,80.09,0,0,0,6-15.15C780.57,1534.39,782.48,1523.17,784.16,1511.73Z"/><circle cx="762.32" cy="1510.03" r="21.84"/><path d="M862.84,1511.73a108.39,108.39,0,0,1-.68,34.83,69.12,69.12,0,0,1-5.42,17.17,32.88,32.88,0,0,1-5.41,8,18.37,18.37,0,0,1-4.35,3.36,12.09,12.09,0,0,1-12,0,18.2,18.2,0,0,1-4.36-3.35,33.4,33.4,0,0,1-5.41-8.06,69,69,0,0,1-5.43-17.17,108.1,108.1,0,0,1-.67-34.83c1.69,11.44,3.61,22.66,6.79,33.36a79.7,79.7,0,0,0,6,15.14,27.07,27.07,0,0,0,4.33,6,11.22,11.22,0,0,0,2.44,1.86,4.74,4.74,0,0,0,2.24.6,4.69,4.69,0,0,0,2.25-.6,11.47,11.47,0,0,0,2.44-1.85,27.54,27.54,0,0,0,4.33-6,80.09,80.09,0,0,0,6.05-15.15C859.25,1534.39,861.16,1523.17,862.84,1511.73Z"/><circle cx="841" cy="1510.03" r="21.84"/><path d="M941.53,1511.73a108.68,108.68,0,0,1-.69,34.83,69.12,69.12,0,0,1-5.42,17.17,32.88,32.88,0,0,1-5.41,8,18.37,18.37,0,0,1-4.35,3.36,12.09,12.09,0,0,1-11.95,0,18.4,18.4,0,0,1-4.36-3.35,33.4,33.4,0,0,1-5.41-8.06,69,69,0,0,1-5.43-17.17,108.1,108.1,0,0,1-.67-34.83c1.7,11.44,3.61,22.66,6.79,33.36a79.7,79.7,0,0,0,6,15.14,27.07,27.07,0,0,0,4.33,6,11.22,11.22,0,0,0,2.44,1.86,4.74,4.74,0,0,0,2.24.6,4.66,4.66,0,0,0,2.25-.6,11.47,11.47,0,0,0,2.44-1.85,27.54,27.54,0,0,0,4.33-6,79.43,79.43,0,0,0,6-15.15C937.93,1534.39,939.84,1523.17,941.53,1511.73Z"/><circle cx="919.68" cy="1510.03" r="21.84"/><path d="M1020.21,1511.73a108.68,108.68,0,0,1-.69,34.83,69.12,69.12,0,0,1-5.42,17.17,32.88,32.88,0,0,1-5.41,8,18.37,18.37,0,0,1-4.35,3.36,12.09,12.09,0,0,1-12,0,18.6,18.6,0,0,1-4.36-3.35,33.4,33.4,0,0,1-5.41-8.06,69,69,0,0,1-5.43-17.17,108.39,108.39,0,0,1-.67-34.83c1.7,11.44,3.61,22.66,6.79,33.36a79.7,79.7,0,0,0,6,15.14,27.07,27.07,0,0,0,4.33,6,11.22,11.22,0,0,0,2.44,1.86,4.77,4.77,0,0,0,2.24.6,4.66,4.66,0,0,0,2.25-.6,11.47,11.47,0,0,0,2.44-1.85,27.54,27.54,0,0,0,4.33-6,79.43,79.43,0,0,0,6-15.15C1016.61,1534.39,1018.52,1523.17,1020.21,1511.73Z"/><circle cx="998.36" cy="1510.03" r="21.84"/><path d="M1098.89,1511.73a108.68,108.68,0,0,1-.69,34.83,69.12,69.12,0,0,1-5.42,17.17,32.88,32.88,0,0,1-5.41,8,18.37,18.37,0,0,1-4.35,3.36,12.09,12.09,0,0,1-12,0,18.34,18.34,0,0,1-4.35-3.35,33.16,33.16,0,0,1-5.42-8.06,69,69,0,0,1-5.43-17.17,108.67,108.67,0,0,1-.67-34.83c1.7,11.44,3.61,22.66,6.79,33.36a79.07,79.07,0,0,0,6,15.14,26.73,26.73,0,0,0,4.32,6,11.22,11.22,0,0,0,2.44,1.86,4.77,4.77,0,0,0,2.24.6,4.66,4.66,0,0,0,2.25-.6,11.47,11.47,0,0,0,2.44-1.85,27.22,27.22,0,0,0,4.33-6,79.43,79.43,0,0,0,6-15.15C1095.29,1534.39,1097.2,1523.17,1098.89,1511.73Z"/><circle cx="1077.04" cy="1510.03" r="21.84"/><path d="M1177.57,1511.73a109,109,0,0,1-.68,34.83,69.57,69.57,0,0,1-5.43,17.17,32.88,32.88,0,0,1-5.41,8,18.37,18.37,0,0,1-4.35,3.36,12.09,12.09,0,0,1-12,0,18.34,18.34,0,0,1-4.35-3.35,33.16,33.16,0,0,1-5.42-8.06,69,69,0,0,1-5.43-17.17,108.67,108.67,0,0,1-.67-34.83c1.7,11.44,3.61,22.66,6.79,33.36a79.73,79.73,0,0,0,6,15.14,26.73,26.73,0,0,0,4.32,6,11.22,11.22,0,0,0,2.44,1.86,4.78,4.78,0,0,0,2.25.6,4.66,4.66,0,0,0,2.24-.6,11.23,11.23,0,0,0,2.44-1.85,27.22,27.22,0,0,0,4.33-6,79.43,79.43,0,0,0,6-15.15C1174,1534.39,1175.88,1523.17,1177.57,1511.73Z"/><circle cx="1155.73" cy="1510.03" r="21.84"/><g id="layer1"><path id="path863" d="M891.06,984.2c11.44,23.87,41.62,43.16,41.62,43.16s18-1.77,34-2.92c37.54-2.69,75-6.78,112.29-11.79,82.86-11.12,165.4-26.55,246.18-48.22,66.18-17.76,136.08-38.57,193.74-76.8,26.84-17.8,59.17-46.22,51.07-82.31-9.59-42.69-33.63-94.45-33.63-94.45s-20.46-53.27-42.52-88.53c-25.59-40.92-87.87-25.6-125-14-72.48,22.73-140.15,61.91-204.18,102.07a2044.34,2044.34,0,0,0-206,148.11c-22.6,18.44-44.8,37.39-66.28,57.12-8.94,8.21-10.73,10-10.73,10S880.25,961.67,891.06,984.2Z" style="fill:#f37820;stroke:#000;stroke-linecap:round;stroke-linejoin:round;stroke-width:24px;isolation:isolate"/></g><path d="M1527.05,820c-5.24-4.48-10.47-9-15.49-13.68-43.68-41-70-100.1-71.4-160.33" style="fill:none;stroke:#000;stroke-linecap:round;stroke-linejoin:round;stroke-width:24px"/></svg>