<svg xmlns="http://www.w3.org/2000/svg" viewBox="0 0 2000 2000"><g id="Layer_2" data-name="Layer 2"><g id="layer1"><path id="path923" d="M692.65,671.91,979.18,385,1057,474.15" style="fill:#fff;stroke:#231f20;stroke-linecap:round;stroke-linejoin:round;stroke-width:23.676759804498px"/><path id="rect882" d="M692.65,671.91,1088.57,456.7l218.78,337.4-401.25,217Z" style="fill:#fff;stroke:#231f20;stroke-linecap:round;stroke-linejoin:round;stroke-width:23.676759804498px;opacity:0.991999983787537;isolation:isolate"/><g id="g1630"><circle id="path887" cx="834.08" cy="708.04" r="7.55" style="fill:#231f20;opacity:0.991999983787537;isolation:isolate"/><circle id="circle889" cx="1183.01" cy="739.56" r="7.55" style="fill:#231f20;opacity:0.991999983787537;isolation:isolate"/><circle id="circle891" cx="1111.54" cy="776.41" r="7.55" style="fill:#231f20;opacity:0.991999983787537;isolation:isolate"/><circle id="circle893" cx="1043.17" cy="807.48" r="7.55" style="fill:#231f20;opacity:0.991999983787537;isolation:isolate"/><circle id="circle895" cx="970.81" cy="840.33" r="7.55" style="fill:#231f20;opacity:0.991999983787537;isolation:isolate"/><circle id="circle897" cx="897.57" cy="875.4" r="7.55" style="fill:#231f20;opacity:0.991999983787537;isolation:isolate"/><circle id="circle901" cx="1038.29" cy="744.89" r="7.55" style="fill:#231f20;opacity:0.991999983787537;isolation:isolate"/><circle id="circle899" cx="1109.76" cy="708.04" r="7.55" style="fill:#231f20;opacity:0.991999983787537;isolation:isolate"/><circle id="circle903" cx="970.37" cy="776.41" r="7.55" style="fill:#231f20;opacity:0.991999983787537;isolation:isolate"/><circle id="circle905" cx="897.57" cy="809.7" r="7.55" style="fill:#231f20;opacity:0.991999983787537;isolation:isolate"/><circle id="circle907" cx="1119.09" cy="637.01" r="7.55" style="fill:#231f20;opacity:0.991999983787537;isolation:isolate"/><circle id="circle909" cx="1047.61" cy="673.41" r="7.55" style="fill:#231f20;opacity:0.991999983787537;isolation:isolate"/><circle id="circle911" cx="979.69" cy="704.93" r="7.55" style="fill:#231f20;opacity:0.991999983787537;isolation:isolate"/><circle id="circle913" cx="906.89" cy="739.12" r="7.55" style="fill:#231f20;opacity:0.991999983787537;isolation:isolate"/><circle id="circle915" cx="834.53" cy="774.19" r="7.55" style="fill:#231f20;opacity:0.991999983787537;isolation:isolate"/><circle id="circle917" cx="1046.73" cy="605.94" r="7.55" style="fill:#231f20;opacity:0.991999983787537;isolation:isolate"/><circle id="circle919" cx="975.25" cy="642.34" r="7.55" style="fill:#231f20;opacity:0.991999983787537;isolation:isolate"/><circle id="circle921" cx="906.89" cy="673.86" r="7.55" style="fill:#231f20;opacity:0.991999983787537;isolation:isolate"/></g></g><path d="M62.78,1266.83l52.75,298.61A74.66,74.66,0,0,0,185.87,1615H1814.13a74.66,74.66,0,0,0,70.34-49.56l52.75-298.61" style="fill:#fff;stroke:#231f20;stroke-linecap:round;stroke-linejoin:round;stroke-width:24px"/><path d="M1966.6,1259.13l-321.75-210a38.91,38.91,0,0,0-21.25-6.32H376.4a38.91,38.91,0,0,0-21.25,6.32l-321.75,210a38.9,38.9,0,0,0-17.62,32.56v8.87a38.87,38.87,0,0,0,38.87,38.87h1890.7a38.87,38.87,0,0,0,38.87-38.87v-8.87A38.9,38.9,0,0,0,1966.6,1259.13Z" style="fill:#fff;stroke:#231f20;stroke-linecap:round;stroke-linejoin:round;stroke-width:24px"/><line x1="116.34" y1="1270.64" x2="1883.66" y2="1270.64" style="fill:#fff;stroke:#231f20;stroke-linecap:round;stroke-linejoin:round;stroke-width:15.0435986831265px"/></g></svg>