<svg xmlns="http://www.w3.org/2000/svg" viewBox="0 0 2000 1334"><g id="Layer_2" data-name="Layer 2"><path d="M579.47,936.92c-7.51,11.52-2.16,3.17-3.88,5.72l-.14,0-.29-.1-.57-.2-1.14-.4-2.29-.81-4.56-1.61-9.13-3.16L539.31,930c-12.16-4-24.08-8.26-36.21-12-24.06-7.91-48.27-15-72.27-22.18q-18-5.31-36.18-10.11c-12-3.39-24-6.72-36.09-9.82-24.17-6.11-48.43-12.36-71.52-17.73l-74.26-17.47c-24.87-5.45-50-10.12-74.6-16.31S89.69,810,66.85,798.65c-11.5-5.46-22.66-11.9-33.77-18.55-5.76-2.69-10.53-8.35-13.48-19.45a79.8,79.8,0,0,1-1.94-9.14L16.49,740l0-.35a84.31,84.31,0,0,1,19.11-57l.16-.21L43.6,674a80.74,80.74,0,0,1,7.08-6.14c9.08-7.07,16.35-8.71,22.62-7.4,13,1.39,25.87,3,38.44,5.56,25.29,4.72,49.53,12.59,73.07,22.47s46.55,21.29,69.81,31.9l70.15,30.74c24.68,11.74,47.54,24.39,70.22,37.76q17,10,33.78,20.38,16.64,10.65,32.94,21.76c21.81,14.67,42.85,30.58,63.28,47.08,10.15,8.37,20.24,16.75,29.91,25.68,4.88,4.38,9.67,8.89,14.4,13.43l7,7,3.47,3.5,1.73,1.74.87.87.43.44.21.22.11.11C581.47,933.66,586.9,925.36,579.47,936.92Z" style="fill:#231f20"/><path d="M1173.3,782.85h1.37c446.76,0,808.93,71,808.93,176.95-20,82.06-77.28,197.26-146.42,250-55.42,38-377.19,91-662.47,91h-4c-285.28,0-607.05-53.08-662.47-91-69.14-52.78-126.41-168-146.42-250,0-105.92,362.17-176.95,808.93-176.95H1172" style="fill:#fff;stroke:#231f20;stroke-miterlimit:10;stroke-width:24px"/><path d="M1928.55,953.64c0,50.76-338.72,126-756.54,126h-1.33c-417.83,0-756.55-75.22-756.55-126" style="fill:none;stroke:#231f20;stroke-linecap:round;stroke-miterlimit:10;stroke-width:24px"/><circle cx="603.55" cy="911.16" r="16.02" style="fill:#231f20"/><circle cx="502.41" cy="949.62" r="16.02" style="fill:#231f20"/><g id="layer1"><path id="path923" d="M892.54,295.53,1154.6,33.13l71.2,81.54" style="fill:#fff;stroke:#231f20;stroke-linecap:round;stroke-linejoin:round;stroke-width:23.676759804498px"/><path id="rect882" d="M892.54,295.53,1254.65,98.71l200.1,308.58-367,198.45Z" style="fill:#fff;stroke:#231f20;stroke-linecap:round;stroke-linejoin:round;stroke-width:23.676759804498px;opacity:0.991999983787537;isolation:isolate"/><g id="g1630"><circle id="path887" cx="1021.9" cy="328.58" r="6.9" style="fill:#231f20;opacity:0.991999983787537;isolation:isolate"/><circle id="circle889" cx="1341.03" cy="357.41" r="6.9" style="fill:#231f20;opacity:0.991999983787537;isolation:isolate"/><circle id="circle891" cx="1275.66" cy="391.11" r="6.9" style="fill:#231f20;opacity:0.991999983787537;isolation:isolate"/><circle id="circle893" cx="1213.13" cy="419.53" r="6.9" style="fill:#231f20;opacity:0.991999983787537;isolation:isolate"/><circle id="circle895" cx="1146.95" cy="449.58" r="6.9" style="fill:#231f20;opacity:0.991999983787537;isolation:isolate"/><circle id="circle897" cx="1079.96" cy="481.65" r="6.9" style="fill:#231f20;opacity:0.991999983787537;isolation:isolate"/><circle id="circle901" cx="1208.66" cy="362.28" r="6.9" style="fill:#231f20;opacity:0.991999983787537;isolation:isolate"/><circle id="circle899" cx="1274.03" cy="328.58" r="6.9" style="fill:#231f20;opacity:0.991999983787537;isolation:isolate"/><circle id="circle903" cx="1146.54" cy="391.11" r="6.9" style="fill:#231f20;opacity:0.991999983787537;isolation:isolate"/><circle id="circle905" cx="1079.96" cy="421.56" r="6.9" style="fill:#231f20;opacity:0.991999983787537;isolation:isolate"/><circle id="circle907" cx="1282.56" cy="263.62" r="6.9" style="fill:#231f20;opacity:0.991999983787537;isolation:isolate"/><circle id="circle909" cx="1217.19" cy="296.91" r="6.9" style="fill:#231f20;opacity:0.991999983787537;isolation:isolate"/><circle id="circle911" cx="1155.07" cy="325.74" r="6.9" style="fill:#231f20;opacity:0.991999983787537;isolation:isolate"/><circle id="circle913" cx="1088.48" cy="357.01" r="6.9" style="fill:#231f20;opacity:0.991999983787537;isolation:isolate"/><circle id="circle915" cx="1022.3" cy="389.08" r="6.9" style="fill:#231f20;opacity:0.991999983787537;isolation:isolate"/><circle id="circle917" cx="1216.38" cy="235.2" r="6.9" style="fill:#231f20;opacity:0.991999983787537;isolation:isolate"/><circle id="circle919" cx="1151.01" cy="268.49" r="6.9" style="fill:#231f20;opacity:0.991999983787537;isolation:isolate"/><circle id="circle921" cx="1088.48" cy="297.32" r="6.9" style="fill:#231f20;opacity:0.991999983787537;isolation:isolate"/></g></g></g></svg>