<svg xmlns="http://www.w3.org/2000/svg" height="1126.08" width="1924.013"  xmlns:v="https://vecta.io/nano"><style><![CDATA[.B{opacity:.992}.C{stroke:#231f20}.D{stroke-width:23.677}.E{stroke-linejoin:round}]]></style><g fill="#f1f2f2" stroke-miterlimit="10" class="C"><path d="M1900.55 1065.32l-63 41.1a47.7 47.7 0 0 1-26 7.67H112.25a47.7 47.7 0 0 1-25.66-7.44l-59.1-37.74" stroke-width="15.785"/><path d="M1841.25 1084.72H82.75c-53.37 0-82.72-29.87-66.1-65.56l221.75-476.4c9.45-20.28 48.25-36.34 86.9-36.34h1273.44c38.64 0 77.44 16.06 86.9 36.34l221.75 476.4c16.64 35.7-12.74 65.56-66.1 65.56z" class="D"/></g><g stroke-linecap="round" class="E C"><path d="M62.4 1036.78l207.7-459.26c7.7-17.06 40.13-30.62 72.57-30.62h1238.66c32.44 0 64.86 13.56 72.56 30.62l205.54 452.9" fill="none" stroke-width="16"/><path d="M680.9 274.4L943 12l71.2 81.53" fill="#fff" class="D"/></g><path d="M680.9 274.4L1043 77.57l200.1 308.6-367 198.45z" fill="#fff" class="B C D E"/><g fill="#231f20"><circle r="6.9" cy="307.45" cx="810.251" class="B"/><circle r="6.9" cy="336.28" cx="1129.381" class="B"/><circle r="6.9" cy="369.98" cx="1064.011" class="B"/><circle r="6.9" cy="398.4" cx="1001.491" class="B"/><circle r="6.9" cy="428.44" cx="935.311" class="B"/><circle r="6.9" cy="460.52" cx="868.311" class="B"/><circle r="6.9" cy="341.15" cx="997.021" class="B"/><circle r="6.9" cy="307.45" cx="1062.391" class="B"/><circle r="6.9" cy="369.98" cx="934.901" class="B"/><circle r="6.9" cy="400.43" cx="868.311" class="B"/><circle r="6.9" cy="242.49" cx="1070.921" class="B"/><circle r="6.9" cy="275.78" cx="1005.551" class="B"/><circle r="6.9" cy="304.61" cx="943.431" class="B"/><circle r="6.9" cy="335.87" cx="876.841" class="B"/><circle r="6.9" cy="367.95" cx="810.661" class="B"/><circle r="6.9" cy="214.07" cx="1004.731" class="B"/><circle r="6.9" cy="247.36" cx="939.371" class="B"/><circle r="6.9" cy="276.19" cx="876.841" class="B"/></g></svg>