<svg xmlns="http://www.w3.org/2000/svg" height="1490.9" width="1924"  xmlns:v="https://vecta.io/nano"><style><![CDATA[.B{opacity:.992}]]></style><g fill="#fff" stroke="#231f20" stroke-width="24" stroke-linejoin="round"><path d="M1269.57 266.13L1912 331.55 921.85 706.92 12 594.06z"/><path d="M47.44 594.45l48.83 688.36 812.85 196.1 12.54-771.4zM921.7 707.5L1869 336.63l-60.34 632.68-899.5 509.58z"/><path d="M633.1 198.82L819.68 12l50.7 58.05" stroke-linecap="round"/><path d="M633.1 198.82L890.9 58.7l142.45 219.7L772.1 419.67z" class="B"/></g><g fill="#231f20"><circle r="4.91" cy="222.35" cx="725.2" class="B"/><circle r="4.91" cy="242.87" cx="952.4" class="B"/><circle r="4.91" cy="266.87" cx="905.86" class="B"/><circle r="4.91" cy="287.1" cx="861.34" class="B"/><circle r="4.91" cy="308.49" cx="814.23" class="B"/><circle r="4.91" cy="331.33" cx="766.53" class="B"/><circle r="4.91" cy="246.34" cx="858.17" class="B"/><circle r="4.91" cy="222.35" cx="904.7" class="B"/><circle r="4.91" cy="266.87" cx="813.94" class="B"/><circle r="4.91" cy="288.55" cx="766.53" class="B"/><circle r="4.91" cy="176.1" cx="910.77" class="B"/><circle r="4.91" cy="199.8" cx="864.24" class="B"/><circle r="4.91" cy="220.33" cx="820.01" class="B"/><circle r="4.91" cy="242.59" cx="772.6" class="B"/><circle r="4.91" cy="265.42" cx="725.49" class="B"/><circle r="4.91" cy="155.87" cx="863.66" class="B"/><circle r="4.91" cy="179.57" cx="817.12" class="B"/><circle r="4.91" cy="200.09" cx="772.6" class="B"/></g></svg>