<svg xmlns="http://www.w3.org/2000/svg" viewBox="0 0 2000 1817"><g id="Layer_1" data-name="Layer 1"><path d="M1000,1783.29c389.83,0,666.48-78,770.24-236.82,122.59-292.13,156.71-272.54,156.71-272.54,0-225.73-415-408.71-926.95-408.71s-926.94,183-926.94,408.71c0,0,34.11-19.59,165.25,272.54C342.06,1705.29,610.17,1783.29,1000,1783.29Z" style="fill:#fff;stroke:#231f20;stroke-miterlimit:10;stroke-width:24px"/><ellipse cx="1000" cy="1212.99" rx="976.16" ry="402.07" style="fill:#fff;stroke:#231f20;stroke-miterlimit:10;stroke-width:24px"/><path d="M1861.87,1189c0,178.79-385.87,323.72-861.87,323.72S138.13,1367.74,138.13,1189" style="fill:#fff;stroke:#231f20;stroke-linecap:round;stroke-miterlimit:10;stroke-width:24px"/><path d="M1861.87,1189c0-178.79-385.87-323.73-861.87-323.73S138.13,1010.16,138.13,1189" style="fill:#fff;stroke:#231f20;stroke-linecap:round;stroke-miterlimit:10;stroke-width:24px"/><path d="M1628.52,1188.63C1463.3,1119.32,1242.53,1077,1000,1077c-253.23,0-482.73,46.16-650,121" style="fill:#fff;stroke:#231f20;stroke-linecap:round;stroke-miterlimit:10;stroke-width:12px"/></g><g id="Isolation_Mode" data-name="Isolation Mode"><g id="layer1"><path id="path923" d="M722.21,355.13l259-259.31,70.37,80.57" style="fill:#fff;stroke:#231f20;stroke-linecap:round;stroke-linejoin:round;stroke-width:24px"/><path id="rect882" d="M722.21,355.13l357.84-194.51,197.74,305L915.13,661.68Z" style="fill:#fff;stroke:#231f20;stroke-linecap:round;stroke-linejoin:round;stroke-width:24px;isolation:isolate;opacity:0.991999983787537"/><g id="g1630"><circle id="path887" cx="850.04" cy="387.79" r="6.82" style="fill:#231f20;isolation:isolate;opacity:0.991999983787537"/><circle id="circle889" cx="1165.41" cy="416.28" r="6.82" style="fill:#231f20;isolation:isolate;opacity:0.991999983787537"/><circle id="circle891" cx="1100.81" cy="449.58" r="6.82" style="fill:#231f20;isolation:isolate;opacity:0.991999983787537"/><circle id="circle893" cx="1039.02" cy="477.67" r="6.82" style="fill:#231f20;isolation:isolate;opacity:0.991999983787537"/><circle id="circle895" cx="973.62" cy="507.36" r="6.82" style="fill:#231f20;isolation:isolate;opacity:0.991999983787537"/><circle id="circle897" cx="907.42" cy="539.05" r="6.82" style="fill:#231f20;isolation:isolate;opacity:0.991999983787537"/><circle id="circle901" cx="1034.61" cy="421.09" r="6.82" style="fill:#231f20;isolation:isolate;opacity:0.991999983787537"/><circle id="circle899" cx="1099.21" cy="387.79" r="6.82" style="fill:#231f20;isolation:isolate;opacity:0.991999983787537"/><circle id="circle903" cx="973.22" cy="449.58" r="6.82" style="fill:#231f20;isolation:isolate;opacity:0.991999983787537"/><circle id="circle905" cx="907.42" cy="479.67" r="6.82" style="fill:#231f20;isolation:isolate;opacity:0.991999983787537"/><circle id="circle907" cx="1107.63" cy="323.59" r="6.82" style="fill:#231f20;isolation:isolate;opacity:0.991999983787537"/><circle id="circle909" cx="1043.03" cy="356.49" r="6.82" style="fill:#231f20;isolation:isolate;opacity:0.991999983787537"/><circle id="circle911" cx="981.65" cy="384.98" r="6.82" style="fill:#231f20;isolation:isolate;opacity:0.991999983787537"/><circle id="circle913" cx="915.84" cy="415.88" r="6.82" style="fill:#231f20;isolation:isolate;opacity:0.991999983787537"/><circle id="circle915" cx="850.44" cy="447.57" r="6.82" style="fill:#231f20;isolation:isolate;opacity:0.991999983787537"/><circle id="circle917" cx="1042.23" cy="295.51" r="6.82" style="fill:#231f20;isolation:isolate;opacity:0.991999983787537"/><circle id="circle919" cx="977.63" cy="328.41" r="6.82" style="fill:#231f20;isolation:isolate;opacity:0.991999983787537"/><circle id="circle921" cx="915.84" cy="356.9" r="6.82" style="fill:#231f20;isolation:isolate;opacity:0.991999983787537"/></g></g></g></svg>