<svg xmlns="http://www.w3.org/2000/svg" viewBox="0 0 2000 1632"><g id="Layer_2" data-name="Layer 2"><path d="M831.35,291.43v-221c0-26.15,20.31-47.34,45.37-47.34h1009.4c25.06,0,45.37,21.19,45.37,47.34v221" style="fill:#fff;stroke:#000;stroke-miterlimit:15.118109703064;stroke-width:24px"/><circle cx="975.25" cy="136.39" r="41.94" style="fill:none;stroke:#000;stroke-miterlimit:15.118109703064;stroke-width:24px"/><circle cx="1114.5" cy="136.39" r="41.94" style="fill:none;stroke:#000;stroke-miterlimit:15.118109703064;stroke-width:24px"/><circle cx="1773.29" cy="136.39" r="41.94" style="fill:none;stroke:#000;stroke-miterlimit:15.118109703064;stroke-width:24px"/><circle cx="1636.07" cy="136.39" r="41.94" style="fill:none;stroke:#000;stroke-miterlimit:15.118109703064;stroke-width:24px"/><circle cx="1373.37" cy="136.39" r="41.94" style="fill:none;stroke:#000;stroke-miterlimit:15.118109703064;stroke-width:24px"/><rect x="767.22" y="291.43" width="1212.3" height="1317.48" rx="47.35" style="fill:#fff;stroke:#000;stroke-miterlimit:15.118109703064;stroke-width:24px"/><line x1="771.73" y1="1362.13" x2="1975.02" y2="1362.13" style="fill:none;stroke:#000;stroke-miterlimit:15.118109703064;stroke-width:24px"/><rect x="842.93" y="474.19" width="1060.88" height="73.58" rx="15.78" style="fill:none;stroke:#000;stroke-miterlimit:15.118109703064;stroke-width:24px"/><line x1="771.73" y1="390.01" x2="1975.02" y2="390.01" style="fill:none;stroke:#000;stroke-miterlimit:15.118109703064;stroke-width:24px"/><line x1="935.29" y1="265.14" x2="1286.07" y2="265.14" style="fill:none;stroke:#000;stroke-linecap:round;stroke-miterlimit:15.118109703064;stroke-width:31.5652838830954px"/><line x1="1460.68" y1="265.14" x2="1811.46" y2="265.14" style="fill:none;stroke:#000;stroke-linecap:round;stroke-miterlimit:15.118109703064;stroke-width:31.5652838830954px"/><rect x="933.31" y="631.94" width="880.13" height="646.02" rx="94.7" style="fill:#fff;stroke:#000;stroke-miterlimit:15.118109703064;stroke-width:24px"/><line x1="935.88" y1="1081.87" x2="1815.24" y2="1081.87" style="fill:none;stroke:#000;stroke-linecap:round;stroke-miterlimit:15.118109703064;stroke-width:24px"/><line x1="1019.77" y1="1081.87" x2="1019.77" y2="1268.18" style="fill:none;stroke:#000;stroke-linecap:round;stroke-miterlimit:15.118109703064;stroke-width:24px"/><line x1="1138.36" y1="1081.87" x2="1138.36" y2="1268.18" style="fill:none;stroke:#000;stroke-linecap:round;stroke-miterlimit:15.118109703064;stroke-width:24px"/><line x1="1256.96" y1="1081.87" x2="1256.96" y2="1268.18" style="fill:none;stroke:#000;stroke-linecap:round;stroke-miterlimit:15.118109703064;stroke-width:24px"/><line x1="1375.56" y1="1081.87" x2="1375.56" y2="1268.18" style="fill:none;stroke:#000;stroke-linecap:round;stroke-miterlimit:15.118109703064;stroke-width:24px"/><line x1="1494.16" y1="1081.87" x2="1494.16" y2="1268.18" style="fill:none;stroke:#000;stroke-linecap:round;stroke-miterlimit:15.118109703064;stroke-width:24px"/><line x1="1612.76" y1="1081.87" x2="1612.76" y2="1268.18" style="fill:none;stroke:#000;stroke-linecap:round;stroke-miterlimit:15.118109703064;stroke-width:24px"/><line x1="1731.35" y1="1081.87" x2="1731.35" y2="1268.18" style="fill:none;stroke:#000;stroke-linecap:round;stroke-miterlimit:15.118109703064;stroke-width:24px"/><g id="layer5"><g id="g986"><path id="rect981" d="M1256.55,903.28H914A239.7,239.7,0,0,1,713.41,794.91h0m454.78,20,104.14,88.36-104.14,88.36" style="fill:none;stroke:#231f20;stroke-linecap:round;stroke-linejoin:round;stroke-width:24px"/></g></g><path d="M40.05,598.58,62,722.9a31.07,31.07,0,0,0,29.28,20.64h677.9a31.07,31.07,0,0,0,29.28-20.64l22-124.32" style="fill:#fff;stroke:#231f20;stroke-linecap:round;stroke-linejoin:round;stroke-width:24px"/><path d="M832.66,595.38,698.71,508a16.22,16.22,0,0,0-8.84-2.63H170.62a16.23,16.23,0,0,0-8.85,2.63l-134,87.43a16.16,16.16,0,0,0-7.34,13.55v3.69a16.18,16.18,0,0,0,16.18,16.19H823.82A16.18,16.18,0,0,0,840,612.62v-3.69A16.16,16.16,0,0,0,832.66,595.38Z" style="fill:#fff;stroke:#231f20;stroke-linecap:round;stroke-linejoin:round;stroke-width:24px"/><line x1="62.34" y1="600.17" x2="798.14" y2="600.17" style="fill:#fff;stroke:#231f20;stroke-linecap:round;stroke-linejoin:round;stroke-width:15.0435986831265px"/><polygon points="674.95 546.37 181.81 546.37 104.98 600.17 750.93 600.17 674.95 546.37" style="fill:#785d42;stroke:#231f20;stroke-linecap:round;stroke-linejoin:round;stroke-width:15.0435986831265px"/><path d="M593.38,573.37c-21.55,7.38-46.7,8.23-70.53,6S476,572.06,452.68,568c-61.34-10.69-127.94-13.94-186.55,2.53-6.2,1.74-13.38,5.06-12.12,9.61.87,3.14,5.54,5,9.92,6.05,20.75,4.94,43.41.5,64.66-3.31s45-6.78,64.19.59" style="fill:none;stroke:#231f20;stroke-linecap:round;stroke-linejoin:round;stroke-width:15.0435986831265px"/></g></svg>