<svg id="Layer_1" data-name="Layer 1" xmlns="http://www.w3.org/2000/svg" width="1671.19" height="1836" viewBox="0 0 1671.19 1836">
  <g>
    <path d="M796.3,1787.64c340,0,739.31-180.93,739.31-591.94,0-96.81-331-185.79-739.31-185.79h-1.14c-408.31,0-739.32,89-739.32,185.79,0,411,399.27,591.94,739.32,591.94" style="fill: #fff;stroke: #3a3632;stroke-miterlimit: 10;stroke-width: 24px"/>
    <path d="M857.59,1548.24q10,13.34,10,33.12,0,27.29-20.08,43.46T793.29,1641a117.55,117.55,0,0,1-37.46-6,90.23,90.23,0,0,1-30.58-16.78q-6.9-6-6.89-14.09a17.35,17.35,0,0,1,3.75-11.24q3.74-4.65,8.84-4.65a13.49,13.49,0,0,1,5.39,1c1.6.71,3.8,1.85,6.6,3.45a128.94,128.94,0,0,0,24,12.89,67.08,67.08,0,0,0,24.88,4.49q19.77,0,29.37-7.94t9.59-24.13q0-15.88-10-23.53t-31-7.64H772.61q-6.9,0-10.64-4.65a17.22,17.22,0,0,1,0-21.43q3.75-4.5,10.64-4.49h12q41.07,0,41.07-30.88,0-14.39-8.7-22.18t-24-7.79q-21.87,0-46.76,17.38a71,71,0,0,1-6.59,3.45,13.32,13.32,0,0,1-5.39,1q-5.1,0-8.85-4.65a17.3,17.3,0,0,1-3.74-11.24,16.18,16.18,0,0,1,1.65-7.64,24.13,24.13,0,0,1,5.24-6.44,96.15,96.15,0,0,1,30.12-16.64,107.74,107.74,0,0,1,35.82-6.14q31.17,0,49.61,15.28t18.43,40.77q-.3,17.38-9.14,30.42t-24.73,19Q847.55,1534.9,857.59,1548.24Z" style="fill: #3a3632"/>
    <path d="M1487.77,1190.07c0,46.39-309.57,115.13-691.43,115.13h-1.22c-381.87,0-691.43-68.74-691.43-115.13" style="fill: none;stroke: #3a3632;stroke-linecap: round;stroke-miterlimit: 10;stroke-width: 24px"/>
  </g>
  <g>
    <path d="M1287.79,80.77l33.67,127.49a27.53,27.53,0,0,1-18.33,33.28l-135,42.59a27.57,27.57,0,0,1-14.5.57l-48.79-11.31a27.53,27.53,0,0,1-21-22.42l-20-123.95a27.52,27.52,0,0,1,17.28-30.08l120.41-46.36a27.5,27.5,0,0,1,16.1-1.13L1267.39,61A27.53,27.53,0,0,1,1287.79,80.77Z" style="fill: #bfe4ed;stroke: #0c0d18;stroke-linecap: round;stroke-linejoin: round;stroke-width: 20px"/>
    <path d="M1209.73,67.62l43.72,7.9a24.86,24.86,0,0,1,19.77,18.67l25.84,107.53a24.87,24.87,0,0,1-17.54,29.78l-122.76,34.11a24.84,24.84,0,0,1-12.35.25l-32.66-7.67a24.87,24.87,0,0,1-18.91-20.47l-16-105.34a24.87,24.87,0,0,1,16.2-27.17l101.93-36.52A24.92,24.92,0,0,1,1209.73,67.62Z" style="fill: #e2ffff"/>
    <path d="M1103.32,107.27l61.84,15.88a3.57,3.57,0,0,0,2.49-.27l91.56-46.5a3.54,3.54,0,0,0-.81-6.61l-47.8-10.95a3.56,3.56,0,0,0-2.09.16l-105.6,41.56A3.54,3.54,0,0,0,1103.32,107.27Z" style="fill: #fff"/>
    <polygon points="1275.99 82.07 1283.77 112.37 1203.59 260.71 1175.29 269.4 1275.99 82.07" style="fill: #fff"/>
    <polygon points="1294.13 148.97 1301.3 172.75 1261.38 244.99 1235.87 252.44 1294.13 148.97" style="fill: #fff"/>
    <g>
      <polyline points="1168.11 194.59 1160.49 144.62 1206.37 124.85" style="fill: none;stroke: #0c0d18;stroke-linecap: round;stroke-linejoin: round;stroke-width: 20px"/>
      <line x1="1160.49" y1="144.62" x2="1118.02" y2="134.28" style="fill: #bfe4ed;stroke: #0c0d18;stroke-linecap: round;stroke-linejoin: round;stroke-width: 20px"/>
    </g>
  </g>
  <g>
    <path d="M1051,194.16l-20,112a28.05,28.05,0,0,1-31.23,22.89l-122-15.84a26.31,26.31,0,0,1-12.81-5.36l-34.09-26.6a26.34,26.34,0,0,1-9.16-27.91l29.8-105.79a26.34,26.34,0,0,1,27.13-19.15L992,136.08a26.33,26.33,0,0,1,14.44,5.51l34.82,27.17A26.36,26.36,0,0,1,1051,194.16Z" style="fill: #bfe4ed;stroke: #0c0d18;stroke-linecap: round;stroke-linejoin: round;stroke-width: 20px"/>
    <path d="M984,152.54l29.17,18.85A24.14,24.14,0,0,1,1024,195.14l-14,95.71a24.13,24.13,0,0,1-26.21,20.53l-103-10a24.16,24.16,0,0,1-11.85-4.5L848.1,281.73a24.12,24.12,0,0,1-9.34-24.88l20.8-91.13a24.13,24.13,0,0,1,24-18.75l87.83,1.7A24.13,24.13,0,0,1,984,152.54Z" style="fill: #e2ffff"/>
    <path d="M891.06,148.52l40.65,28.88a3.57,3.57,0,0,0,2.19.65l88.34-3.27a3.54,3.54,0,0,0,2.09-6.29l-28.61-23.1a3.56,3.56,0,0,0-2.14-.79L893.2,142.09A3.54,3.54,0,0,0,891.06,148.52Z" style="fill: #fff"/>
    <polygon points="1032.49 188.72 1029.1 215.31 920.86 308.94 896.25 307.13 1032.49 188.72" style="fill: #fff"/>
    <polygon points="1023.95 246.02 1022.11 267.22 968.72 312.54 946.64 310.6 1023.95 246.02" style="fill: #fff"/>
    <g>
      <polyline points="902.98 249.02 920.14 196.38 970.07 194.82" style="fill: none;stroke: #0c0d18;stroke-linecap: round;stroke-linejoin: round;stroke-width: 20px"/>
      <line x1="920.14" y1="196.38" x2="885.6" y2="166.03" style="fill: #bfe4ed;stroke: #0c0d18;stroke-linecap: round;stroke-linejoin: round;stroke-width: 20px"/>
    </g>
  </g>
  <g>
    <path d="M1201.09,211l45.5,123.77a27.53,27.53,0,0,1-15.13,34.86l-130.37,55.09a27.54,27.54,0,0,1-14.38,1.92L1037.08,420a27.54,27.54,0,0,1-23-20.35L982.5,278.09a27.52,27.52,0,0,1,14.38-31.57l115.51-57.47a27.5,27.5,0,0,1,15.93-2.64l50.6,6.8A27.53,27.53,0,0,1,1201.09,211Z" style="fill: #bfe4ed;stroke: #0c0d18;stroke-linecap: round;stroke-linejoin: round;stroke-width: 20px"/>
    <path d="M1118.46,210.22l38,4a24.9,24.9,0,0,1,21,16.8L1211,330.78a24.88,24.88,0,0,1-14.52,31.11L1092,402.74a24.83,24.83,0,0,1-13,1.4l-28.17-4.51a24.88,24.88,0,0,1-20.21-18.52L1006,282.48a24.88,24.88,0,0,1,13.3-28.45L1105,212.56A25,25,0,0,1,1118.46,210.22Z" style="fill: #e2ffff"/>
    <polyline points="1097.17 349.99 1079.35 278.81 1143.36 243.88" style="fill: none;stroke: #0c0d18;stroke-linecap: round;stroke-linejoin: round;stroke-width: 20px"/>
    <line x1="1079.35" y1="278.81" x2="1016.21" y2="269.75" style="fill: #bfe4ed;stroke: #0c0d18;stroke-linecap: round;stroke-linejoin: round;stroke-width: 20px"/>
    <path d="M1019.47,250.41l54.08,8.06a3.52,3.52,0,0,0,2.39-.5l75.82-47.14a3.54,3.54,0,0,0-1.44-6.52l-41.5-5.1a3.58,3.58,0,0,0-2,.35l-88.4,44.18A3.54,3.54,0,0,0,1019.47,250.41Z" style="fill: #fff"/>
    <polygon points="1190.42 213.66 1200.96 243.28 1138.49 398.4 1112.07 409.5 1190.42 213.66" style="fill: #fff"/>
    <polygon points="1208.53 268.47 1219.16 294.82 1182.88 381.08 1155.37 392.13 1208.53 268.47" style="fill: #fff"/>
  </g>
  <g>
    <path d="M1409.63,284.44,1377,357.12a27.54,27.54,0,0,1-35.19,14.34l-83-32.63a27.55,27.55,0,0,1-11.63-8.68l-16.82-21.56a27.52,27.52,0,0,1-2.19-30.62l37.68-65.82a27.53,27.53,0,0,1,32.37-12.51l77.33,25a27.44,27.44,0,0,1,13.23,9.25l17.43,22.32A27.54,27.54,0,0,1,1409.63,284.44Z" style="fill: #bfe4ed;stroke: #0c0d18;stroke-linecap: round;stroke-linejoin: round;stroke-width: 20px"/>
    <path d="M1372.33,243.12,1385,258.34A24.86,24.86,0,0,1,1388.2,285l-26.83,55.61a24.89,24.89,0,0,1-32.14,12.08l-63.8-27.1a24.82,24.82,0,0,1-10.27-8.08l-7.73-10.44a24.89,24.89,0,0,1-1.49-27.38l30.35-51.9a24.88,24.88,0,0,1,29.4-11l55.41,18.62A24.77,24.77,0,0,1,1372.33,243.12Z" style="fill: #e2ffff"/>
    <path d="M1307,219.84l20.84,27.5a3.54,3.54,0,0,0,2.05,1.32l57.66,12.78a3.54,3.54,0,0,0,3.53-5.67l-16.17-20.25a3.56,3.56,0,0,0-1.69-1.16l-62.31-20A3.54,3.54,0,0,0,1307,219.84Z" style="fill: #fff"/>
    <polygon points="1396.2 280.92 1387.78 299.19 1289.25 341.83 1272.05 334.99 1396.2 280.92" style="fill: #fff"/>
    <polygon points="1378.08 321.63 1372 336.39 1323.59 356.81 1308.23 350.45 1378.08 321.63" style="fill: #fff"/>
    <g>
      <polyline points="1295.66 310.68 1321.18 267.04 1369.28 280.53" style="fill: none;stroke: #0c0d18;stroke-linecap: round;stroke-linejoin: round;stroke-width: 20px"/>
      <line x1="1321.18" y1="267.04" x2="1294.66" y2="232.28" style="fill: #bfe4ed;stroke: #0c0d18;stroke-linecap: round;stroke-linejoin: round;stroke-width: 20px"/>
    </g>
  </g>
  <g>
    <path d="M1436.57,331.49,1496,403.75a27.54,27.54,0,0,1-2.78,37.9l-76.43,69.19a27.49,27.49,0,0,1-12.94,6.56l-32.72,6.72a27.56,27.56,0,0,1-28.4-11.64l-49.59-74a27.53,27.53,0,0,1,3.16-34.55l65.64-67.27a27.5,27.5,0,0,1,14.17-7.74l33.67-6.91A27.53,27.53,0,0,1,1436.57,331.49Z" style="fill: #bfe4ed;stroke: #0c0d18;stroke-linecap: round;stroke-linejoin: round;stroke-width: 20px"/>
    <path d="M1378.47,348.61l24.67-5.82a24.88,24.88,0,0,1,25.37,8.94l46,59.19a24.88,24.88,0,0,1-3.45,34.16l-62.5,53.59a25,25,0,0,1-11.81,5.61l-17.43,3.12a24.88,24.88,0,0,1-25.19-10.83l-39.94-60.79a24.87,24.87,0,0,1,3.18-31.24l49.19-49.29A25,25,0,0,1,1378.47,348.61Z" style="fill: #e2ffff"/>
    <path d="M1321.55,403.14l39.91-7.59a3.54,3.54,0,0,0,2.1-1.26l42.82-53.12a3.55,3.55,0,0,0-3.51-5.69l-30,6.53a3.58,3.58,0,0,0-1.79,1l-52.69,54.19A3.54,3.54,0,0,0,1321.55,403.14Z" style="fill: #fff"/>
    <polygon points="1429.64 343.21 1443.91 360.91 1437.61 482.11 1422.04 496.1 1429.64 343.21" style="fill: #fff"/>
    <g>
      <polyline points="1407.56 459.6 1376.66 412.56 1413.9 371.26" style="fill: none;stroke: #0c0d18;stroke-linecap: round;stroke-linejoin: round;stroke-width: 20px"/>
      <line x1="1376.66" y1="412.56" x2="1328.87" y2="421.82" style="fill: #bfe4ed;stroke: #0c0d18;stroke-linecap: round;stroke-linejoin: round;stroke-width: 20px"/>
    </g>
  </g>
  <g>
    <path d="M919.35,302.37,947.63,412.6a28.06,28.06,0,0,1-18.93,33.79L811.13,482.57a26.38,26.38,0,0,1-13.88.45L755.2,473a26.35,26.35,0,0,1-19.91-21.6L718.51,342.73a26.35,26.35,0,0,1,16.75-28.67L841.59,274A26.44,26.44,0,0,1,857,273l43,10.28A26.34,26.34,0,0,1,919.35,302.37Z" style="fill: #bfe4ed;stroke: #0c0d18;stroke-linecap: round;stroke-linejoin: round;stroke-width: 20px"/>
    <path d="M841.16,292.27l34.37,5.05a24.13,24.13,0,0,1,19.65,17.14l27,92.89a24.12,24.12,0,0,1-15.33,29.55L809,470.51a24.18,24.18,0,0,1-12.65.83l-25.23-5.13a24.15,24.15,0,0,1-18.82-18.78L733.4,355.89a24.11,24.11,0,0,1,14.05-27L828.07,294A24.07,24.07,0,0,1,841.16,292.27Z" style="fill: #e2ffff"/>
    <path d="M754.92,327.17l49,9.42a3.67,3.67,0,0,0,2.26-.31l79-39.63a3.54,3.54,0,0,0-.7-6.59l-35.62-9.15a3.47,3.47,0,0,0-2.27.17L754.2,320.44A3.54,3.54,0,0,0,754.92,327.17Z" style="fill: #fff"/>
    <polygon points="900.29 305.08 908.23 330.69 848.59 460.78 825.43 469.34 900.29 305.08" style="fill: #fff"/>
    <polygon points="916.28 360.76 923.4 380.81 893.63 444.2 872.73 451.59 916.28 360.76" style="fill: #fff"/>
    <g>
      <polyline points="807.45 413.67 801.24 358.66 846.02 336.53" style="fill: none;stroke: #0c0d18;stroke-linecap: round;stroke-linejoin: round;stroke-width: 20px"/>
      <line x1="801.24" y1="358.66" x2="757.21" y2="345.37" style="fill: #bfe4ed;stroke: #0c0d18;stroke-linecap: round;stroke-linejoin: round;stroke-width: 20px"/>
    </g>
  </g>
  <g>
    <path d="M1134.3,449l-32.1,127.89a27.53,27.53,0,0,1-32.13,20.29L931.32,569.31a27.49,27.49,0,0,1-13-6.5l-37.26-33.46a27.52,27.52,0,0,1-7.52-29.76l42.3-118.21a27.54,27.54,0,0,1,29.67-18l127.82,17.55a27.52,27.52,0,0,1,14.65,6.8l38,34.1A27.56,27.56,0,0,1,1134.3,449Z" style="fill: #bfe4ed;stroke: #0c0d18;stroke-linecap: round;stroke-linejoin: round;stroke-width: 20px"/>
    <path d="M1066.45,401.85l29.13,24.65a24.87,24.87,0,0,1,7.88,25.71L1075,553.58a24.88,24.88,0,0,1-29.52,17.54L936.19,546.06a24.9,24.9,0,0,1-11.53-6.17l-20.74-19.58a24.89,24.89,0,0,1-6.26-26.69l35.13-95.41a24.87,24.87,0,0,1,27-16l94.24,14A24.86,24.86,0,0,1,1066.45,401.85Z" style="fill: #e2ffff"/>
    <polyline points="970.15 505.36 995.5 436.5 1068.08 443.68" style="fill: none;stroke: #0c0d18;stroke-linecap: round;stroke-linejoin: round;stroke-width: 20px"/>
    <line x1="995.5" y1="436.5" x2="948.43" y2="393.46" style="fill: #bfe4ed;stroke: #0c0d18;stroke-linecap: round;stroke-linejoin: round;stroke-width: 20px"/>
    <path d="M962,379.32l40.15,37.11a3.58,3.58,0,0,0,2.25.94l89.21,3.73a3.54,3.54,0,0,0,2.48-6.2l-31.42-27.58a3.52,3.52,0,0,0-1.86-.84L964.9,373.21A3.54,3.54,0,0,0,962,379.32Z" style="fill: #fff"/>
    <polygon points="1123.98 445.22 1116.01 475.63 977.03 568.64 948.96 562.93 1123.98 445.22" style="fill: #fff"/>
    <polygon points="1108.08 500.7 1102.03 528.46 1023.47 579.32 994.51 572.96 1108.08 500.7" style="fill: #fff"/>
  </g>
  <g>
    <path d="M1336.19,399.77l8.5,79.21a27.53,27.53,0,0,1-23.14,30.14l-88.1,13.72a27.44,27.44,0,0,1-14.42-1.63l-25.4-10.11a27.55,27.55,0,0,1-17.35-25.33l-.69-75.84a27.52,27.52,0,0,1,21.62-27.14l79.39-17.45a27.58,27.58,0,0,1,16.09,1.31L1319,377.13A27.54,27.54,0,0,1,1336.19,399.77Z" style="fill: #bfe4ed;stroke: #0c0d18;stroke-linecap: round;stroke-linejoin: round;stroke-width: 20px"/>
    <path d="M1283.13,382.92l18.58,6.77a24.88,24.88,0,0,1,16.28,21.4l4.9,61.55a24.88,24.88,0,0,1-21.64,26.65l-68.76,8.82a24.88,24.88,0,0,1-13-1.81l-11.94-5.1a24.89,24.89,0,0,1-15.1-22.88V418.19a24.88,24.88,0,0,1,19.82-24.36l57.23-11.9A24.84,24.84,0,0,1,1283.13,382.92Z" style="fill: #e2ffff"/>
    <path d="M1215,395.8,1246.85,409a3.53,3.53,0,0,0,2.44.1l56.23-18.07a3.55,3.55,0,0,0,.19-6.68l-24.19-9.31a3.55,3.55,0,0,0-2-.15l-63.9,14.16A3.54,3.54,0,0,0,1215,395.8Z" style="fill: #fff"/>
    <polygon points="1322.82 403.51 1324.77 423.52 1261.24 510.07 1242.93 512.85 1322.82 403.51" style="fill: #fff"/>
    <polygon points="1327.73 447.8 1329.92 463.61 1298.44 505.67 1281.97 507.93 1327.73 447.8" style="fill: #fff"/>
    <g>
      <polyline points="1251.05 479.94 1251.05 429.39 1299.38 416.76" style="fill: none;stroke: #0c0d18;stroke-linecap: round;stroke-linejoin: round;stroke-width: 20px"/>
      <line x1="1251.04" y1="429.39" x2="1210.61" y2="412.77" style="fill: #bfe4ed;stroke: #0c0d18;stroke-linecap: round;stroke-linejoin: round;stroke-width: 20px"/>
    </g>
  </g>
  <g>
    <path d="M963.32,494.55l50.31,78.88a27.53,27.53,0,0,1-7.32,37.29l-84.19,59.5a27.43,27.43,0,0,1-13.64,5l-33.28,2.73a27.51,27.51,0,0,1-26.8-15l-40.34-79.42a27.53,27.53,0,0,1,7.3-33.92l73.25-58.89a27.51,27.51,0,0,1,15-6l34.25-2.81A27.53,27.53,0,0,1,963.32,494.55Z" style="fill: #bfe4ed;stroke: #0c0d18;stroke-linecap: round;stroke-linejoin: round;stroke-width: 20px"/>
    <path d="M903.58,504.56l25.2-2.81a24.87,24.87,0,0,1,24.1,11.93L991.44,578a24.88,24.88,0,0,1-7.53,33.49l-68.49,45.69A24.79,24.79,0,0,1,903,661.3l-17.68,1a24.87,24.87,0,0,1-23.7-13.77l-32.35-65.16a24.88,24.88,0,0,1,6.92-30.63l54.76-43A25,25,0,0,1,903.58,504.56Z" style="fill: #e2ffff"/>
    <path d="M840.52,551.86l40.53-2.75a3.52,3.52,0,0,0,2.23-1l48.91-47.59a3.54,3.54,0,0,0-2.8-6.06l-30.61,2.86a3.51,3.51,0,0,0-1.9.77l-58.82,47.47A3.54,3.54,0,0,0,840.52,551.86Z" style="fill: #fff"/>
    <polygon points="955.02 505.36 967.07 524.64 946.25 644.2 929.11 656.22 955.02 505.36" style="fill: #fff"/>
    <g>
      <polyline points="919.12 618.24 894.09 567.83 936.04 531.3" style="fill: none;stroke: #0c0d18;stroke-linecap: round;stroke-linejoin: round;stroke-width: 20px"/>
      <line x1="894.09" y1="567.83" x2="845.54" y2="571.27" style="fill: #bfe4ed;stroke: #0c0d18;stroke-linecap: round;stroke-linejoin: round;stroke-width: 20px"/>
    </g>
  </g>
  <g>
    <path d="M1307.4,565.75,1275.49,675A28.06,28.06,0,0,1,1242,694.39l-119.59-28.85a26.38,26.38,0,0,1-12.16-6.7l-31-30.11a26.34,26.34,0,0,1-6.1-28.73l41-102a26.35,26.35,0,0,1,29-16.12L1255,501.67a26.27,26.27,0,0,1,13.75,7l31.71,30.75A26.34,26.34,0,0,1,1307.4,565.75Z" style="fill: #bfe4ed;stroke: #0c0d18;stroke-linecap: round;stroke-linejoin: round;stroke-width: 20px"/>
    <path d="M1245.31,517.18l27,21.88a24.14,24.14,0,0,1,8.17,24.76l-24.17,93.66a24.14,24.14,0,0,1-28.27,17.6l-101.32-21a24.18,24.18,0,0,1-11.3-5.74L1096.31,631a24.13,24.13,0,0,1-6.62-25.74l30.47-88.37A24.13,24.13,0,0,1,1146,500.85L1233.16,512A24.17,24.17,0,0,1,1245.31,517.18Z" style="fill: #e2ffff"/>
    <path d="M1153.32,503.2l37.32,33.08a3.48,3.48,0,0,0,2.1.88l88.18,6.24a3.54,3.54,0,0,0,2.76-6l-26-26.05a3.6,3.6,0,0,0-2-1L1156.14,497A3.54,3.54,0,0,0,1153.32,503.2Z" style="fill: #fff"/>
    <polygon points="1289.62 558.36 1283.39 584.43 1165.72 665.9 1141.45 661.45 1289.62 558.36" style="fill: #fff"/>
    <polygon points="1274.97 614.41 1270.87 635.28 1212.92 674.62 1191.18 670.31 1274.97 614.41" style="fill: #fff"/>
    <g>
      <polyline points="1154.38 604.4 1177.1 553.91 1226.91 557.72" style="fill: none;stroke: #0c0d18;stroke-linecap: round;stroke-linejoin: round;stroke-width: 20px"/>
      <line x1="1177.09" y1="553.91" x2="1146.01" y2="520.03" style="fill: #bfe4ed;stroke: #0c0d18;stroke-linecap: round;stroke-linejoin: round;stroke-width: 20px"/>
    </g>
  </g>
  <g>
    <path d="M440.34,915.81V811c0-213.34,201.34-236.12,201.34-236.12" style="fill: none;stroke: #231f20;stroke-linecap: round;stroke-linejoin: round;stroke-width: 24px"/>
    <polyline points="531.42 814.9 440.35 922.25 349.27 814.9" style="fill: none;stroke: #231f20;stroke-linecap: round;stroke-linejoin: round;stroke-width: 24px"/>
  </g>
</svg>
