<svg xmlns="http://www.w3.org/2000/svg" height="1939.82" width="1002.86"  xmlns:v="https://vecta.io/nano"><path d="M294 728.62a29.84 29.84 0 0 1-2.12 16.45c-2.23 5.36-6 9.66-8.33 14.06a25.74 25.74 0 0 0-3.6 13.51c0 4.8.72 9.52 2.7 13.36s5.2 7.25 8.84 11.76 7.3 10.57 8.43 17a42.3 42.3 0 0 1-.71 19.09c-1.72 6.56-5.85 12.12-9.17 16.3s-5.83 7.47-6.94 11.42a31.74 31.74 0 0 0-.75 12.92c.5 4.27 2.25 7.87 5.16 11.92s7 8.82 9.14 15a37.69 37.69 0 0 1 1.75 18.34 33.55 33.55 0 0 1-7.06 16.59c-3.67 4.55-7.73 7.9-10.6 12.1a31.91 31.91 0 0 0-5.49 14.59 29.89 29.89 0 0 1 2.1-16.47c2.23-5.36 6-9.66 8.3-14.07a25.51 25.51 0 0 0 3.61-13.5c0-4.8-.7-9.52-2.67-13.37s-5.16-7.25-8.8-11.75-7.32-10.55-8.46-17a42.43 42.43 0 0 1 .67-19.09c1.7-6.56 5.8-12.16 9.14-16.33s5.87-7.48 7-11.43a32 32 0 0 0 .8-12.91c-.5-4.28-2.22-7.9-5.14-11.93s-7-8.8-9.14-14.95a37.34 37.34 0 0 1-1.78-18.34 33.27 33.27 0 0 1 7-16.58c3.67-4.56 7.73-7.9 10.6-12.1a31.88 31.88 0 0 0 5.52-14.58zm95.4 0a29.84 29.84 0 0 1-2.12 16.45c-2.23 5.36-6 9.66-8.32 14.06a25.66 25.66 0 0 0-3.61 13.49c0 4.8.72 9.52 2.7 13.36s5.2 7.25 8.84 11.76 7.3 10.57 8.43 17a42.16 42.16 0 0 1-.71 19.09c-1.7 6.56-5.85 12.12-9.17 16.3s-5.83 7.47-6.94 11.42a31.74 31.74 0 0 0-.75 12.92c.5 4.27 2.25 7.87 5.16 11.92s7 8.82 9.14 15a37.57 37.57 0 0 1 1.75 18.34 33.55 33.55 0 0 1-7.06 16.59c-3.67 4.55-7.73 7.9-10.6 12.1a32 32 0 0 0-5.49 14.59 29.89 29.89 0 0 1 2.1-16.47c2.23-5.36 6-9.66 8.32-14.07a25.69 25.69 0 0 0 3.61-13.5c0-4.8-.7-9.52-2.68-13.37s-5.16-7.25-8.8-11.75-7.32-10.55-8.47-17a42.43 42.43 0 0 1 .67-19.09c1.7-6.56 5.8-12.16 9.14-16.33s5.87-7.48 7-11.43a31.84 31.84 0 0 0 .8-12.91c-.5-4.28-2.2-7.9-5.13-11.93s-7-8.8-9.15-14.95a37.34 37.34 0 0 1-1.78-18.34 33.27 33.27 0 0 1 7-16.58c3.67-4.56 7.73-7.9 10.6-12.1a31.88 31.88 0 0 0 5.52-14.56zm95.4 0a29.84 29.84 0 0 1-2.12 16.45c-2.23 5.36-6 9.66-8.32 14.06a25.66 25.66 0 0 0-3.61 13.51c0 4.8.72 9.52 2.7 13.36s5.2 7.25 8.84 11.76 7.3 10.57 8.43 17a42 42 0 0 1-.71 19.09c-1.7 6.56-5.84 12.12-9.17 16.3s-5.83 7.47-6.93 11.42a31.74 31.74 0 0 0-.76 12.92c.52 4.27 2.25 7.87 5.16 11.92s7 8.82 9.14 15a37.45 37.45 0 0 1 1.75 18.34 33.55 33.55 0 0 1-7.04 16.58c-3.67 4.55-7.73 7.9-10.6 12.1a31.8 31.8 0 0 0-5.49 14.59 29.89 29.89 0 0 1 2.09-16.47c2.23-5.36 6-9.66 8.32-14.07a25.69 25.69 0 0 0 3.61-13.5c0-4.8-.7-9.52-2.68-13.37s-5.15-7.25-8.8-11.75-7.32-10.55-8.46-17a42.43 42.43 0 0 1 .66-19.09c1.7-6.56 5.8-12.16 9.14-16.33s5.88-7.48 7-11.43a31.84 31.84 0 0 0 .8-12.91c-.5-4.28-2.2-7.9-5.13-11.93s-7-8.8-9.15-14.95a37.34 37.34 0 0 1-1.78-18.34 33.27 33.27 0 0 1 7-16.58c3.67-4.56 7.73-7.9 10.6-12.1a31.88 31.88 0 0 0 5.5-14.57z" fill="#231f20"/><path d="M234.33 608.7l-23.6-24.83a465.82 465.82 0 0 1-68.76-93.66c-20-35.8-47.57-81-67.15-96.6-34.23-27.32-30.6-44.7-22.8-51.43 10.8-9.32 21.2-9.6 37.26-9.6a75.35 75.35 0 0 1 9 .54c36.35 4.37 80 57.45 91.55 67.7l11.07 9.78a9.78 9.78 0 0 0 16.19-7.39l4.9-299c0-20 11.36-36.22 31.33-36.22s31.33 16.25 31.33 36.22l4.9 207.63a9.78 9.78 0 1 0 19.56 0L314 48.2c0-20 11.36-36.2 31.33-36.2s31.32 16.24 31.32 36.2l4.9 262.6a9.78 9.78 0 1 0 19.56 0l4.9-216.6c0-20 11.35-36.2 31.32-36.2s31.32 16.24 31.32 36.2l4.9 227.14a9.79 9.79 0 0 0 19.57 0l4.9-155.14c0-20 11.35-36.22 31.32-36.22s31.33 16.25 31.33 36.22l3.88 142.06q1 36.78-1.42 73.54l-4.36 65.8a460.45 460.45 0 0 1-44.69 169.62h0a87.56 87.56 0 0 1-77.87 49.48l-62.78.72a188.81 188.81 0 0 1-139.05-58.75zm756.53 823.35c0-30.37-7.45-64.3-27.64-92.4-40.68-56.62-116.56-83.16-195.88-68.6l-12.14 2.23v-100.76c0-79.6-166.37-144.14-371.6-144.14S12 1092.92 12 1172.52v611.16c0 79.6 166.37 144.14 371.6 144.14s371.6-64.53 371.6-144.14v-67.47c60.38-24.3 235.66-110.43 235.66-284.16zm-235.66 180V1366.8a228.18 228.18 0 0 1 35.93-9.92c42.36-8.53 91.6 7.52 108.46 28.48 16 19.84 18.37 42.53 18.37 56 0 89.8-101.22 147.86-162.8 170.7z" fill="#fff" stroke="#231f20" stroke-width="24" stroke-miterlimit="10"/><path d="M59.83 1168.75c37.42 55.8 168.2 97 323.77 97s286.35-41.2 323.77-97" fill="none" stroke="#231f20" stroke-width="24" stroke-linecap="round" stroke-miterlimit="10"/></svg>