<?xml version="1.0" encoding="UTF-8"?>
<svg id="Layer_1" data-name="Layer 1" xmlns="http://www.w3.org/2000/svg" width="2000" height="1246" xmlns:xlink="http://www.w3.org/1999/xlink" viewBox="0 0 2000 1246">
  <defs>
    <radialGradient id="radial-gradient" cx="19079" cy="-3363.51" fx="19079" fy="-3363.51" r="384.28" gradientTransform="translate(-24501.72 5328.59) rotate(-3.14) scale(1.34 .98) skewX(-2.34)" gradientUnits="userSpaceOnUse">
      <stop offset="0" stop-color="#b2e57f"/>
      <stop offset="1" stop-color="#b1e57f"/>
    </radialGradient>
  </defs>
  <g>
    <path d="M1982.77,644.09c0,278.86-440,504.92-982.77,504.92-542.77,0-982.77-226.06-982.77-504.92,0-278.86,440-504.92,982.77-504.92,542.77,0,982.77,226.06,982.77,504.92Z" style="fill: #fff; stroke: #3a3632; stroke-miterlimit: 10; stroke-width: 20px;"/>
    <path d="M1618.31,644.09c0,149.59-276.83,270.86-618.31,270.86-341.48,0-618.31-121.27-618.31-270.86,0-149.59,276.83-270.86,618.31-270.86,341.48,0,618.31,121.27,618.31,270.86Z" style="fill: #fff; stroke: #3a3632; stroke-miterlimit: 10; stroke-width: 20px;"/>
  </g>
  <g>
    <path d="M1552.06,532.17c-8.65,6.93-22.97,12.2-21.38,38.01l24.61,374.63-2.33,85.67c1.09,17.67-16.01,32.04-38.19,32.04H486.17c-22.18,0-39.27-14.37-38.19-32.04l-2.33-85.68,24.75-371.69c1.76-28.59-17.93-34.88-24.85-40.67-30.82-26.02-46.74-38.28-48.45-75.69-.26-5.74-.19-67.56,.22-73.25,9.74-136.6,285.84-248.63,603.18-248.63,97.19,0,189.91,10.47,272.28,28.7,176.53,44.67,301.71,117.78,326.52,197.53,2.11,7.39,3.82,65.73,4.36,73.3,3.21,45.34-13.65,67.12-51.58,97.75Z" style="fill: #e2c4a6; stroke: #3a3632; stroke-miterlimit: 10; stroke-width: 20px;"/>
    <path d="M482.66,961.8c-14.26,0-25.33-9.04-24.66-20.12l27.8-433.08c1.9-31.68-20.71-50.07-28.12-56.09-33.17-27.23-49.62-34.99-46.88-74.16,2.16-30.91,19.49-61.09,51.37-89.71,31.15-27.97,74.58-53.15,129.03-74.9,54.66-21.83,117.29-38.95,186.24-50.93,71.54-12.44,146.53-18.73,223.06-18.73,92.04,0,184.79,9.56,268.53,27.71,85.56,21.24,159.97,49.5,215.17,81.83,27.52,16.11,50.18,33.16,67.34,50.66,17.27,17.62,28.93,35.71,34.63,53.76,2.35,8.15,3.59,14.42,4,20.34,2.89,41.67-14.59,50.93-50.09,78.8-9.96,7.76-26.52,25.1-24.81,53.64l27.67,430.88c.66,11.08-10.4,20.12-24.66,20.12H482.66Z" style="fill: #ffedd9;"/>
    <path d="M485.8,508.6c-1.92-19.94-11.41-36.06-26.73-48.72-4.21-3.48-10.92-8.65-15.31-12.18-24.89-19.68-40.69-35.22-32.96-69.35,2.29,25.91,7.22,36.14,27.7,52.36,6.38,5.15,12.9,10.2,19.22,15.47,5.21,4.32,10.55,8.92,14.81,14.22,11.16,13.15,17.07,31.16,13.29,48.2h0Z" style="fill: #3a3632;"/>
    <path d="M1542.94,941.68c.66,5.91-2.4,11.76-7.03,15.4-5.79,4.79-13.57,6.43-20.96,6.38-7.32,.26-22.67,.82-30.26,1.09-328.43,9.95-657.3,10.09-985.72-.61l-8.65-.31-4.32-.16c-7.39,.04-15.19-1.59-20.96-6.39-4.62-3.64-7.72-9.49-7.03-15.41-.02,12.05,12.88,19.06,23.72,18.57,322.62-11.06,645.71-11.1,968.38-2.31,21.03,.57,48.1,1.59,69.13,2.31,10.82,.49,23.78-6.53,23.72-18.58h0Z" style="fill: #3a3632;"/>
    <path d="M1586.16,358.03c6.53,14.29,8.94,29.97,6.53,45.71-3,20.44-20.01,34.71-35.45,46.34-5.1,3.88-12.98,9.54-17.91,13.46-6.86,5.71-12.67,12.71-16.8,20.64-2.9,5.71-5.01,11.88-6.13,18.19-.52,2.68-.82,5.7-1.14,8.43-.32-1.87-.62-3.78-.84-5.69-1.79-17.96,6.01-35.89,19.02-48.14,8.05-7.38,18.11-14.73,26.46-21.72,8.22-6.79,16.41-14,21.36-23.52,4.98-9.62,6.26-20.31,6.57-31.3,.36-7.49-.62-14.98-1.67-22.41h0Z" style="fill: #3a3632;"/>
    <g>
      <path d="M677.4,480.13c-19.8-.42-35.91-14.54-35.91-31.52s16.11-30.32,35.91-29.78c19.73,.54,35.67,14.65,35.67,31.52s-15.94,30.21-35.67,29.78Z" style="fill: #e2c4a6;"/>
      <path d="M677.4,480.13c-23.41-.16-46.11-20.82-36.09-45.19,13.07-28.85,58.46-27.45,71.48,.72,10.86,24.66-11.26,45.32-35.39,44.47h0Zm0,0c22.12,.82,42.23-20.08,29.2-41.13-12.73-19.37-46.22-20.76-59.07-.88-4.27,6.68-4.68,15.47-1.35,22.8,5.3,11.88,18.37,18.95,31.23,19.21h0Z" style="fill: #3a3632;"/>
    </g>
    <g>
      <path d="M1006.12,400.67c-16.6,.05-30.1-11.56-30.1-25.92s13.5-25.98,30.1-25.95c16.55,.03,29.93,11.64,29.93,25.92s-13.38,25.9-29.93,25.95Z" style="fill: #e2c4a6;"/>
      <path d="M1006.12,400.67c-20.13,.38-39.13-17.22-30.62-38.02,10.82-24.91,50.03-25.04,61.01-.2,8.68,20.77-10.23,38.48-30.38,38.22h0Zm0,0c18.25,.27,34.97-17.7,24.15-34.96-10.71-15.9-37.95-15.86-48.56,.13-10.67,17.38,6.12,35.17,24.42,34.83h0Z" style="fill: #3a3632;"/>
    </g>
    <g>
      <path d="M1280.98,617.08c-14.48,.33-26.24-9.3-26.24-21.5s11.77-22.32,26.24-22.59c14.44-.27,26.12,9.36,26.12,21.5s-11.68,22.26-26.12,22.59Z" style="fill: #e2c4a6;"/>
      <path d="M1280.98,617.08c-17.66,.71-34.65-13.96-26.9-32.42,9.49-21.47,44.05-22.5,53.84-.75,7.55,18.19-9.71,33.09-26.94,33.17h0Zm0,0c6.31-.17,12.61-2.51,17.16-6.71,6.56-5.66,8.88-16.06,3.57-23.14-9.58-12.91-32.14-12.04-41.5,.75-9.89,14.81,5.15,29.76,20.76,29.1h0Z" style="fill: #3a3632;"/>
    </g>
    <g>
      <path d="M929.56,788.6c-6.97-.03-12.62-4.71-12.62-10.46s5.65-10.37,12.62-10.33c6.96,.04,12.59,4.73,12.59,10.46s-5.63,10.36-12.59,10.33Z" style="fill: #e2c4a6;"/>
      <path d="M929.56,788.6c-8.84,.19-18.05-6.72-14.54-16.43,3.8-10.07,18.08-12.34,25.58-5.08,4.53,3.93,5.79,11.6,1.74,16.19-3.13,3.8-8.17,5.31-12.78,5.32h0Zm0,0c5.46,.22,11.8-4.6,10.08-10.36-2.55-7.17-17.72-7.35-20.21-.07-1.63,5.77,4.66,10.59,10.13,10.43h0Z" style="fill: #3a3632;"/>
    </g>
    <g>
      <path d="M1060.87,660.51c-11.2,.07-20.3-7.49-20.3-16.88s9.1-17.03,20.3-17.06c11.18-.03,20.23,7.52,20.23,16.88s-9.05,16.99-20.23,17.06Z" style="fill: #e2c4a6;"/>
      <path d="M1060.87,660.51c-13.72,.34-27.36-10.96-21.55-25.56,7.46-17.61,35.46-17.83,43.04-.19,5.85,14.55-7.82,25.93-21.49,25.75h0Zm0,0c9.15,.19,19.27-7.32,17.72-17.06-3.07-14.04-25.11-15.44-33.13-5.18-4.27,5.09-2.85,13.01,2.13,17.3,3.49,3.23,8.41,4.96,13.28,4.94h0Z" style="fill: #3a3632;"/>
    </g>
    <g>
      <path d="M618.14,819.49c-14.18-.36-25.71-9.96-25.71-21.44s11.53-20.46,25.71-20.05c14.15,.41,25.59,10.01,25.59,21.44s-11.44,20.41-25.59,20.05Z" style="fill: #e2c4a6;"/>
      <path d="M618.14,819.49c-16.48-.14-34.09-13.67-26.53-31.52,9.68-20.52,43.07-19.42,52.61,.66,8.1,18.16-8.96,31.58-26.08,30.87h0Zm0,0c8.87,.25,18.46-4.09,22.05-12.41,3.44-7.63-.9-16.01-7.69-19.91-10.54-6.35-26.77-5.9-34.79,4.21-5.3,6.69-2.62,16.69,3.79,21.87,4.5,3.92,10.57,6.07,16.65,6.25h0Z" style="fill: #3a3632;"/>
    </g>
    <g>
      <path d="M1194.68,909.22c-11.12,9.18-29.42,9.23-40.85,.08-11.43-9.15-11.6-23.99-.42-33.13,11.15-9.11,29.38-9.1,40.75,0,11.37,9.1,11.62,23.88,.53,33.04Z" style="fill: #e2c4a6;"/>
      <path d="M1194.68,909.22c-13.79,11.06-37.08,10.74-48.82-3.43-5.29-6.29-6.66-15.92-3.22-23.55,4.81-11.3,17.92-17.6,29.51-17.17,14.7,.08,30.67,10.5,31.27,26.06,.25,7.09-3.32,13.75-8.73,18.09h0Zm0,0c5.24-4.35,8.56-11.12,7.36-17.96-1.53-9.86-11.16-16.13-20.42-17.38-8.68-1.32-18.54,.8-25.13,6.24-9.8,7.77-8.9,20.9,.96,28.73,10.1,8.33,26.79,8.99,37.23,.37h0Z" style="fill: #3a3632;"/>
    </g>
    <g>
      <path d="M1368.47,823.48c-11.99,.34-21.72-7.38-21.72-17.25s9.74-18.1,21.72-18.4c11.96-.3,21.64,7.42,21.64,17.25s-9.68,18.06-21.64,18.4Z" style="fill: #e2c4a6;"/>
      <path d="M1368.47,823.48c-14.69,.68-29.23-10.94-22.69-26.58,7.96-18,37.25-19.06,45.5-.75,6.32,15.31-8.62,27.22-22.81,27.33h0Zm0,0c9.68-.06,20.45-7.86,19.11-18.22-2.9-15.3-27.38-15.85-35.73-4.94-4.62,5.54-3.18,13.78,2.35,18.31,3.81,3.33,9.09,4.98,14.26,4.84h0Z" style="fill: #3a3632;"/>
    </g>
    <g>
      <path d="M1279.31,315.07c-10.25,.22-18.56-6.83-18.56-15.77s8.32-16.34,18.56-16.54c10.23-.2,18.52,6.86,18.52,15.77s-8.29,16.31-18.52,16.54Z" style="fill: #e2c4a6;"/>
      <path d="M1279.31,315.07c-13.06,.49-25.04-10.49-19.99-24.07,6.68-17.13,33.25-17.85,40.1-.47,4.89,13.39-7.4,24.49-20.11,24.54h0Zm0,0c10.86,.05,20.91-11.51,13.83-21.37-7.6-9.71-26.9-7.28-29.9,5.47-1.81,9.02,7.46,16.36,16.07,15.9h0Z" style="fill: #3a3632;"/>
    </g>
    <g>
      <path d="M716.75,274.33c-9.18-.19-16.64-6.86-16.64-14.91s7.46-14.4,16.64-14.19c9.17,.21,16.59,6.89,16.59,14.91s-7.42,14.38-16.59,14.19Z" style="fill: #e2c4a6;"/>
      <path d="M716.75,274.33c-11.49-.01-22.63-10.05-18.41-22.19,4.76-13.09,23-15.69,32.42-6.12,11.9,12.41,1.97,28.76-14,28.31h0Zm0,0c7.71,.42,15.93-6.33,14.06-14.35-3.15-12.46-25.21-13.42-28.2-.41-1.52,7.99,6.42,14.8,14.14,14.76h0Z" style="fill: #3a3632;"/>
    </g>
  </g>
  <g>
    <g>
      <path d="M971.47,185.28c-36.37,6.71-72,16.46-106.42,29.38-76.16,28.59-145.97,72.55-204.04,130.24-20.01,19.88-145.37,160.72-64.49,182.19,24.88,6.6,184.46-51.66,170.66,17.36-2.42,12.11-11.31,21.03-20.42,28.39-49.43,39.93-100.5,83.47-140.82,133.64-29.53,36.74-102.31,156.83-30.52,197.95,9.33,5.35,19.88,7.27,30.15,7.84,58.31,3.22,120.86-23.2,171.84-46.35,48.37-21.97,108.22-67.75,162.34-72.32,14.81-1.25,32.12,6.47,38.01,21.51,4.75,12.14,1.07,25.28,2.25,38.07,13.57,146.41,396.69-100.43,442.62-147.8,27.6-28.47,50.68-73.9,12.64-110.68-24.84-24.02-65.2-33.76-96.41-40.3-14.09-2.95-28.96-7.11-39.5-18.03-34.23-35.47,44-89.23,62.95-104.94,31.19-25.86,73.95-53.68,75.34-101.53,1.53-52.55-46.68-94.69-89.38-114.05-113.08-51.26-263.31-51.48-376.78-30.55Z" style="fill: #ede1c0;"/>
      <path d="M971.47,185.28c-114.09,20.69-222.67,74.2-305.56,155.7-2.68,2.54-6.57,6.42-9.07,9.13-23.17,25.27-44.7,52.32-62.57,81.6-13.73,23.24-40.62,72.35-7.57,90.06,3.2,1.69,6.71,2.91,10.21,3.87,4.43,.91,9.18,.28,13.87-.23,25.5-3.59,50.54-9.97,76.1-13.73,21.67-2.91,68.89-10.61,81.03,13.09,4.08,8.55,2.93,18.64-.37,27.14-2.63,6.28-6.95,11.83-11.73,16.5-3.14,3.12-6.61,5.94-9.9,8.63-29.82,24.44-59.38,49.56-86.81,76.54-18.31,17.97-35.67,36.87-51.55,56.98-15.42,20.21-28.58,42.39-39.3,65.41-15.35,34.05-32.85,85.88-2.05,115.72,15.18,14.2,30.43,15.87,50.31,15.88,8.36-.27,16.85-.68,25.1-1.89,12.36-1.61,25.18-4.35,37.2-7.64,34.82-9.5,68.21-24.15,101.13-39.33,30.76-14.98,59.68-34.01,90.72-49.02,21.27-10.25,43.82-19.3,67.57-21.61,17.6-1.85,37.11,7.04,44.35,23.98,5.68,12.5,2.04,28.13,2.99,40.05,1.05,15.63,8.27,30.26,23.2,36.36,82.49,33.06,318.65-114.22,388.74-167.48,13.59-10.12,26.2-21.04,35.96-34.93,9.57-13.26,17.09-28.78,17.9-45.2,1.58-25.77-16.91-46.17-38.09-58.24-21.91-12.66-47.19-19.23-71.92-24.69-16.92-3.46-35.88-8.65-46.93-23.24-17.92-24.68,7.03-52.76,24.42-69.78,25.01-23.69,54.12-42.72,79.58-65.73,12.5-11.46,24.05-24.37,31.02-39.95,14.79-32.89,4.51-67.92-17.71-94.76-20.45-24.86-48.47-42.65-78.29-54.27-114.34-45.04-242.15-45.58-361.96-24.95h0Zm0,0c120.8-22.23,281.08-20.2,391.76,37.32,31.45,17.84,61.11,44.77,72,80.2,7.18,23.12,3.87,48.81-9.22,69.22-13.73,22.16-35.02,38.45-54.94,54.71-16.42,13.69-33.93,26.44-49.08,41.45-25.18,24.63-47.37,58.38-3.72,77.31,7.66,3.17,15.89,4.94,24.32,6.65,25.52,5.36,51,11.65,74.09,24.61,23.72,13.18,43.74,35.75,42.35,64.45-1.36,27.26-17.44,51.09-36.17,69.83-12.88,11.95-26.81,22.06-40.91,32.32-70.51,49.75-145.14,93.97-224.22,128.7-41.59,17.35-126.5,51.55-165.75,19.08-11.23-9.33-16.51-23.94-17.59-38.07-1.21-12.31,2.57-25.13-2.16-36.55-5.1-11.8-18.89-18.1-31.47-17.33-14.47,1.17-28.44,5.2-42.02,10.43-42.06,16.31-78.95,42.88-120.04,61.69-43.39,19.47-88.24,38.23-135.78,44.37-8.64,1.25-17.59,1.57-26.32,1.81-5.88-.24-14.01-.14-20.01-1.17-23.03-2.73-44.32-18.88-51.98-40.96-19.22-54.39,30.43-138.73,65.28-179.49,39.14-46.09,85.61-85.35,132.6-123.04,8.12-6.42,16.19-13.28,20.36-22.87,13.28-36.37-23.76-38.68-49.91-37.06-25.67,1.63-50.9,6.85-76.21,11.52-8.47,1.55-16.94,3.12-25.57,4.13-5.37,.49-11.18,1.35-16.59-.47-24.73-7.15-30.15-27.1-23.75-50.44,12.61-44.1,54.14-94.56,85.12-128.37,84.53-86.04,197.18-142.54,315.54-163.97h0Z" style="fill: #3a3632;"/>
    </g>
    <path d="M977.85,193.36c-34.23,6.28-67.76,15.4-100.17,27.49-71.69,26.75-141.49,70-196.17,123.96-18.84,18.59-136.74,142.04-60.64,162.13,23.41,6.18,146.24-48.81,158.47,18.16,2.32,12.73-1.21,27.26-9.16,37.78-40.68,53.84-96.61,77.83-134.58,124.76-36.55,45.18-87.38,104.15-62.07,162.04,4.03,9.22,15.04,22.01,46.12,23.66,58.54,3.1,119.76-26.23,171.22-49.46,45.54-20.55,101.89-63.37,152.81-67.66,13.93-1.17,42.08,8.73,48.15,37.67,2.49,11.85,.99,23.64,2.09,35.61,12.68,136.96,360.96-111.5,404.22-155.82,25.99-26.63,38.23-55.49,18.52-76.22-23.46-24.68-56.41-25.98-85.54-33.81-65.68-17.64-69.52-53.8-53.63-83.8,16.12-30.44,42.6-44.76,64.05-62.43,29.37-24.19,69.62-50.22,70.96-94.98,1.47-49.16-39.1-82.54-79.28-100.65-106.39-47.95-248.59-48.03-355.39-28.45Z" style="fill: #fff8ef; opacity: .7;"/>
    <path d="M627.63,873.58c56.27-13.02,105.01-39.89,150.84-73.45,20.5-14.63,40.12-31,61.47-44.99,31.3-19.58,70.04-28.72,106.85-22.69,34.09,5.5,74.92,27.78,79.25,65.88,1.65,13.12,.06,23.22-.47,34.73-.11,4.46-.16,7.23,.76,10.68,.08,.25,.27,.57,.49,.76,.77,.63,1.49,1.02,2.75,1.58,11.39,4.27,24.57,3.64,36.92,3.05,49.53-4.11,96.85-19.89,141.38-42.46-33.9,27.98-74.15,48.4-116.43,60.52-18.62,5.02-37.77,8.89-57.38,7.58-17.4-1.1-32.65-8.67-38.01-26.45-2.77-9.05-2.95-17.07-3.44-25.56-.82-11.33-.65-21.4-7.51-29.21-19.79-20.88-53.22-25-80.78-20.05-12.15,2.16-24.24,6.29-35.39,11.67-12.1,5.9-22.71,13.66-34.2,21.05-24.36,16.13-49.96,31.77-76.95,43.73-40.51,17.98-85.79,28.98-130.17,23.62h0Z" style="fill: #fff;"/>
    <path d="M795.92,293.18c51.92-32.57,107.77-58.95,166.08-77.95,55.49-17.92,113.95-28.43,172.38-28.31,55.15,.19,110.91,9.45,161.9,30.88,6.42,2.48,15.37,6.88,21.64,9.82,13.99,6.92,27.91,15.09,39.29,26.43,22.24,22.05,33.17,55.96,25.2,86.51-6.09,23.35-22.33,43.94-43.98,54.39,20.64-19.39,32.61-49.12,25.87-76.99-3.82-16.56-13.6-31.49-26.93-41.83-12.51-9.56-28.6-15.36-43.57-20.73-15.21-5.45-30.95-9.88-46.68-13.55-154-35.39-303.25,9.08-451.19,51.33h0Z" style="fill: #fff;"/>
    <g style="opacity: .6;">
      <path d="M994.21,350.85c8.99-9.37,18.89,4.25,20.07,13.18,.94,5.1-.87,10.25-2.65,14.98-5.71,13.87-16.49,25.01-27.79,34.42-15.25,12.46-32.33,22.31-50.21,30.45-9.07,4.05-18.42,7.77-28.07,10.34-24.36,6.02-53.62,8.72-77.09-2.81-13.93-6.79-24.46-21.53-25.38-37.25-1.06-14.87,5.23-29.07,13.1-40.92,22.58-32.64,57.5-57.71,90.91-78.14,12.98-7.65,26.68-15.3,41.11-20.5,60.22-21.48,153.43-39.84,193.44,25.18,11.67,19.68,16.05,43.95,14.61,66.58-3.8,53.47-48.17,90.6-88.89,119.03-64.41,45.77-133.3,84.5-198,129.7-10.66,7.16-21.6,15.06-30.39,24.29-4.74,5-10.06,11.4-11.36,17.29-.09-.49-.19-1-.53-1.59-.41-.89-1.22-1.6-1.51-1.78-.19-.1-.18-.11-.15-.06,.11,.03,.28,.13,.61,.22,1.27,.41,4.09,.65,7.21,.35,11.27-1.17,22.72-6.4,32.71-12.03,21.4-11.91,43.32-22.79,65.8-32.59,69.49-29.75,156.59-55.24,232.08-37.51,23.07,5.88,46.86,17.79,59.1,39.66,22.07,37.62,.8,82.39-34.41,102.61-15.38,9.02-33.56,13.65-51.35,11.51-7.75-.86-15.35-3.05-21.84-7.66-4.36-3.09-8.01-7.53-9.66-12.69-2.06-7.3-1.55-16.29,3.96-21.93,1.82-1.79,4.09-2.95,6.42-3.52-9.2,4.13-8.85,15.71-5.43,23.61,4.51,10.13,16.86,13.62,27.2,13.83,40.31,1.79,83.54-37.6,75.54-79.14-10.53-45.11-70.24-47.84-108.43-44.58-78.68,7.99-152.57,41.46-220.24,81.04-19.94,11.5-44.51,22.11-68.77,16.24-9.68-2.45-18.86-8.91-23.45-18.14-15.51-32.96,21.16-66.41,45.08-83.71,49.44-36.11,101.87-68.63,153.44-101.36,23.49-15.31,47.33-30.91,69.96-47.49,25.8-19.7,53.27-43.87,56.2-76.81,.69-7.62,.1-15.71-1.23-23.31-3.85-23.49-17.56-39.38-40.63-45.8-37.41-10.01-81.8-.64-118.73,10.54-37.05,13.06-121.66,63.92-129.9,103.48-4.05,26.62,27.75,32.94,48.43,32.87,18.2,.23,36.3-3.48,53.35-9.84,25.83-9.69,52.23-22.14,71.03-42.85,5.17-6,9.65-12.86,11.43-20.64,.71-5.47-1.18-11.4-4.67-15.68-3.19-3.96-8.06-4.64-12.03-1.09h0Z" style="fill: #ede1c0;"/>
    </g>
    <path d="M1122.88,700.83c1.2,4,8.58,1.79,11.71,1.65,14.65-1.72,28.5-7.99,38.87-18.45,10.7-10.64,16.67-24.91,18.96-39.83,1.42,4.41,1.94,9.13,1.83,13.86-.73,24.95-20.88,46.2-45.44,49.42-6.01,.82-11.91,.46-17.71-.72-3.08-.63-8.69-1.75-8.22-5.93h0Z" style="fill: #fff;"/>
    <path d="M838.08,408.94c24.87,12.46,52.1,6.42,77.23-1.49,25.59-8.31,50.34-18.41,70.26-37.28-.86,1.49-1.78,2.95-2.69,4.44-2.94,4.21-6.39,8.46-10.04,12.02-15.04,14.69-34.76,23.97-54.46,30.33-25.65,8.31-58.93,12.11-80.29-8.03h0Z" style="fill: #fff;"/>
    <path d="M731.64,333.46c-22.68,12.28-40.13,31.56-56.85,50.81-12.39,14.7-24.73,29.43-34.98,45.69-3.42,5.41-6.47,11.04-9.07,17.01,1.06-6.44,3.31-12.67,5.92-18.68,15.54-33.67,58.06-85.53,94.97-94.84h0Z" style="fill: #fff;"/>
    <path d="M691.5,668.31c-22.68,12.28-40.13,31.56-56.85,50.81-12.39,14.7-24.73,29.43-34.98,45.69-3.42,5.41-6.47,11.04-9.07,17.01,1.06-6.44,3.31-12.67,5.92-18.68,15.54-33.67,58.06-85.53,94.97-94.84h0Z" style="fill: #fff;"/>
  </g>
  <g>
    <path d="M944.17,1021.93c-15.48-57.84-57.01-77.79-128.77-75.97-74.52,1.9-148.46-2.16-219.93-12.05-7.43-1.03-15.02-2.17-21.1-5.32-17.65-9.14-15.3-30.57-6.29-46.98,8.93-16.26,22.89-31.84,24.23-48.51,1.92-23.84-22.15-41.28-44.31-55.61-30.14-19.5-59.92-38.75-89.33-57.78-29.82-19.29-61.17-41.48-60.14-71.81,1.53-44.91,71.35-79.64,92.71-122.02,23.52-46.66-13.86-98.04,29.43-136.27,23.03-20.34,62.12-29.55,88.46-47.52,28.72-19.6,38.01-46.3,49.84-70.59,11.64-23.91,30.74-49.51,66.41-59.78,15.44-4.44,32.26-5.45,48.37-8.33,81.51-14.59,123.46-70.26,189.47-101.17,10.59-4.96,22.51-9.45,35.56-10.22,20.12-1.19,38.14,6.72,50.73,15.96,12.68,9.3,22.17,20.37,36.94,28.71,27.9,15.76,68.88,19.08,106.84,23.85,38.14,4.79,79.93,13.77,98.14,35.41,19.29,22.92,5.39,52.46,23.97,76.58,25.79,33.48,96.12,39.29,147.77,59.08,58.84,22.55,97.1,69.06,92.06,113.84-3.24,28.7-22.54,56.72-14.28,86.64,7.35,26.63,35.07,49.53,57.57,73.59,20.51,21.93,37.61,46.49,41.89,72.39,4.35,26.3-6.25,54.13-34.07,69.99-33.78,19.26-91.51,22.54-101.94,54.3-4.17,12.7,1.16,26.72-.72,40.05-3.59,25.47-33.13,44-65.44,51.78-32.41,7.81-67.72,7.16-102.04,9.29-98.35,6.11-242.07,10.07-243.43,110.29l-148.59,8.15Z" style="fill: #82c14c; stroke: #3a3632; stroke-linecap: round; stroke-linejoin: round; stroke-width: 19.4px;"/>
    <path d="M955.89,1012.93c-12.44-73.85-113.24-164.34-210.8-170.41-28.93-1.8-63.88-1.51-76.67-18.62-10.05-13.45-.8-31.25,.28-47.12,2.15-31.66-28.85-55.78-61.63-73.53-22.87-12.38-49.04-24.92-52.65-45.23-3.5-19.67,15.39-40.01,29.3-59.2,17.1-23.58,27.53-48.17,30.71-72.03,2.49-18.66,1.66-38.8,20.99-54.32,14.06-11.3,35.72-17.42,53.39-26.31,69.54-34.99,62.43-101.91,127.39-136.14,35.93-18.93,87.48-24,119.25-44.71,18.49-12.05,29.19-28.77,53.06-36.19,25.68-7.98,55.33-1.54,77.7,7.14,51.45,19.95,90.04,51.41,147.71,67.67,24.26,6.84,51.69,10.92,72,21.54,33.45,17.5,40.22,48.84,72.75,68.13,30.26,17.94,81.68,25.22,94.04,50.7,8.36,17.24-5.48,35.47-11.34,53.56-8.38,25.85,.38,54.15,24.1,76.62,15.48,14.66,36.71,26.66,52.51,41.57,41.28,38.93,33.69,101.84-27.96,128.4-36.4,15.68-84.44,17.15-117.63,36.46-35.24,20.51-48.09,58.13-89.9,72.95-29.3,10.38-63.63,6.03-95.9,8.73-76.92,6.43-100.26,85.41-99.69,143.14l-131.01,7.19Z" style="fill: url(#radial-gradient); opacity: .5;"/>
    <g>
      <path d="M1477,612.86c-35.28,3.52-64,25.38-90.09,47.93-43.93,38-73.69,62.53-133.49,70.67-23.15,3.68-44.59,5.32-66.22,12.5-29.73,9.89-54.43,28.13-76.19,51.47-31.83,32.22-54.43,71.15-76.52,111.01l-58.46-34.53c19.72-31.09,40.86-63.01,65.29-91.48,25.2-30.75,56.35-57.4,92.83-74.35,39.69-18.57,72.78-18.8,114.7-19.95,22.4-.73,42.39-3.37,62.62-12.24,53.48-22.61,102.42-73.5,165.48-67.16l.04,6.13h0Z" style="fill: #82c14c;"/>
      <path d="M1351.69,390.43c-14.77,41.18-75.21,60.75-109.21,83.47-10.19,6.54-19.91,13.69-27.77,22.78-8.88,10.16-15.03,20.34-24.61,31.75-13.18,16.31-31.36,28.88-49.77,38.46-12.55,6.64-25.39,12.45-37.84,18.42-11.66,5.25-23.04,10.4-33.86,17.17-13.96,8.6-36.09,23.27-42.28,37.6-.2,.63-.24,1.04-.21,1.18l-56.75-12.86c1.91-7.89,5.34-14.95,9.52-21.33,16.07-23.46,39.48-38.17,63.09-51.37,12.91-6.82,26.26-13.4,39.79-18.8,12.41-4.73,25.58-9.29,37.38-14.26,14.51-6.18,27.75-12.68,39.3-23.72,9.11-8.51,19.31-20.61,29.83-29.55,19.05-16.54,42.98-25.81,66.13-33.65,25.24-8.85,51.8-14.95,74.25-29.57,7.2-4.77,13.54-10.67,18.27-17.98l4.74,2.26h0Z" style="fill: #82c14c;"/>
      <path d="M1228.92,279.18c12.03,30.33-8.73,61.49-18.73,88.92-5.58,14.64-8.65,27.53-4.84,43.04,3.32,14.87,8.52,30.86,8.56,47.12-.71,36.39-11.42,64.26-40.31,87.63-5.46,4.51-11.05,8.5-16.68,12.16l-25.05-41.52c9.11-4.95,17.26-10.6,23.31-16.74,6.08-6.3,9.86-12.43,12.12-21.02,1.34-5.98,2.77-15.14,3.97-22.01,1.38-13.54-1.97-26.85-2.52-41.28-3.13-45.92,26.8-68.56,47.72-103.49,4.14-7.26,7.25-14.95,8.12-23.26,.27-2.77,.31-5.6,.09-8.47l4.25-1.07h0Z" style="fill: #82c14c;"/>
      <path d="M588.52,515.53c10.69,31.03,70.12,64.21,100.69,73.63,2.36,.72,4.92,1.39,7.34,1.91,20.18,4.65,39.4,8.76,59.05,17.13,18.6,7.85,36.21,20.07,47.87,37.21,6.86,9.89,11.24,20.57,17.15,29.12,3.51,4.81,5.43,6.18,9.81,8.41,5.5,2.57,10.7,3.89,17.52,5.48,8.83,2.12,22.49,4.73,31.63,6.55,24.71,4.82,50.06,10.78,72.48,26.08,11.82,7.94,22.56,16.72,31.84,27.93,9.17,10.97,16.29,24.03,21.54,36.83,5,12.21,8.67,23.74,12.02,34.99l-62.34,16.4c-4.47-18.46-7.94-35.61-18.52-50.56-3.38-4.64-7.88-9.14-12.55-13.01-1.55-1.31-3.35-2.73-5.02-3.95-19.09-12.58-45.64-18.68-68.56-25.17-15.71-4.49-31.63-9.05-46.08-18.28-16.95-10.7-26.03-27.18-32.57-44.76-2.01-5.14-3.76-9.56-5.52-13.02-8.06-15.95-24.42-26.51-40.77-34.74-13.25-6.71-27.72-12.38-41.56-18.12-12.6-5.29-24.25-12.44-34.99-19.9-23.95-16.93-61.61-49.04-66.15-78.99l5.7-1.17h0Z" style="fill: #82c14c;"/>
      <path d="M742.7,300.59c-3.48,22.49,15.62,38.9,30.83,52.56,12.57,11.21,26.08,24.2,32.63,40.74,3.85,8.73,4.95,20.38,4.81,29.29,.14,6.11-.31,12.38,1.63,16.93,4.27,8.92,30.65,11.84,41.83,14.51,8.25,1.67,16.61,3.76,24.68,6.26,12.34,3.68,24.27,8.56,35.59,14.7,11.61,5.96,22.75,12.48,33.38,20.27,14.55,10.54,28.15,23.19,39.19,37.6l-47.33,33.86c-11.68-18.25-30.82-34.02-50.17-44.96-13.63-6.99-27.5-13.74-42.12-18.43-18.32-5.83-38.9-10.04-55.28-22.51-9.78-7.14-18.43-19.7-20.27-32.05-1.84-10.51-.28-19.96,1.31-29.03,1.07-6.53,1.91-10.27,.99-16.36-.93-5.78-3.46-11.55-6.42-16.99-7.07-12.89-17.9-25.48-25.04-38.92-7.87-14.38-13.33-33.78-5.21-49.16l4.97,1.69h0Z" style="fill: #82c14c;"/>
      <path d="M883.43,198.12c10.05,9.91,11.21,26.23,17.41,37.79,3.56,6.45,8.75,9.04,14.96,12.05,7.49,3.5,16.51,6.77,24.22,10.59,12.99,6.11,25.49,13.19,37.58,20.93,6.19,3.74,11.61,8.54,17.48,12.74,.74,.58,3.57,2.69,4.34,3.3,18.82,15.42,32.76,37.26,37.16,61.51l-48.01,6.85c-.06-.96-.29-2.44-.61-3.87-2.49-11.12-8.53-21.23-16.89-29.14l-4.45-4.13c-3.12-2.96-6.48-5.64-9.89-8.27-13.09-11.41-26.69-22.37-40.72-32.7-15.14-11.28-32.34-23.62-34.95-43.94-1.94-12.41,1.35-23.26,.06-35.12-.27-2.09-.72-4.17-1.4-6.25l3.7-2.34h0Z" style="fill: #82c14c;"/>
      <path d="M590.54,656.4c30.25,9.67,61.7,12.64,93.08,15.46,39.66,3.56,82.61,5.79,121.85,12.35,21.38,4.1,41.81,7.71,62.96,14.59l-16.97,45.43c-11.83-5.12-25.3-9.39-38.3-12.84-5.39-1.46-10.82-2.87-16.34-3.88-13.94-2.95-27.63-6.6-41.74-9.58-48.48-11.35-98.36-22.2-143.37-44.1-7.99-3.9-15.87-8.48-23.16-13.52l1.98-3.9h0Z" style="fill: #82c14c;"/>
    </g>
    <g>
      <path d="M946.98,711.79c-9.08-111.58-9.68-211.56,30.32-306.01,25.62-60.49,24.38-132.34,22.26-189.38-1.75-47.1-5.49-70.09,7.43-98.01,20.09,39.27,23.8,106.46,31.21,163.29,3.57,27.36,14.28,60.48,9.3,89.04-5.32,30.53-19.14,60.85-26.26,92.48-18.21,80.82,7.74,166.33,19.62,256.16,11.46,86.61,41.43,286.63,41.43,286.63l-129.94,7.13s3.75-189.07-5.38-301.34Z" style="fill: #c3ef95;"/>
      <path d="M1476.99,612.72c-46.54,5.12-80.49,36.1-117.78,62.63-20,14.16-41.63,27.06-65.64,34.65-43.32,13.71-89.63,9.99-130.54,29.27-18.36,8.19-35.1,19.43-50.3,32.78-16,13.41-30.68,28.56-43.69,45.25-13.44,16.84-25.91,35.03-38.16,53.92l-55.66-38.87c21.35-28.5,44.49-57.83,70.8-82.99,17.9-18.05,38.37-33.84,60.97-46.05,22.79-12.55,48.01-21.49,73.76-25.46,24.27-3.77,48.02-3.22,71.46-4.21,33.13-.51,60.8-8.82,91.33-24.48,40.33-20.45,85.55-47.62,133.37-42.57l.08,6.13h0Z" style="fill: #c3ef95;"/>
      <path d="M1351.6,390.6c-15.75,36.3-77,55.34-109.67,74.75-14.16,7.88-26.08,16.32-36.41,28.48-5.31,5.97-10.86,12.98-17.73,20.15-6.86,7.25-15.47,14.53-23.94,19.94-16.3,10.7-33.68,17.98-50.93,25.34-8.17,3.43-16.03,6.91-23.73,9.85-14.76,5.82-29.33,13.65-42.49,22.13-8.58,5.83-16.6,11.56-21.92,19.01-1.12,1.61-1.23,2.7-.79,1.76l-56.17-15.2c1.36-4.69,3.2-8.75,5.17-12.23,16.46-28.39,54.78-46.89,83.48-59.26,12.45-5.47,25.94-10.4,38.58-14.19,22.6-7.5,44.8-13.69,63.3-28.66,9.32-7.56,20.26-18.63,31.18-26.35,12.09-8.66,25.59-14.72,39.36-19.66,25.17-9,51.06-14.19,76.1-22.76,15.7-5.56,31.61-12.29,42.03-25.71l4.56,2.6h0Z" style="fill: #c3ef95;"/>
      <path d="M1228.55,276.96c10.38,24.72-5.98,50.7-17.23,72.03-7.14,13.66-15.82,28.26-16.55,43.44,.33,17.1,7.55,28.7,9.27,50.01,.48,5.63,.27,12.05-.62,17.88-1.08,8.49-2.61,16.24-5.91,25.5-9.51,28.67-34.97,48.4-60.26,62.27l-22.1-43.17c14.56-6.96,29.88-15.18,38.3-29.02,3.57-5.99,4.41-11.25,6.21-19.03,.57-2.54,1.4-6.31,1.7-7.38,2.86-13.86-3.19-32.68-2.01-50.52,1.45-38.35,34.95-61.99,55.14-90.14,6.41-9.05,10.98-19.48,9.83-30.73l4.23-1.14h0Z" style="fill: #c3ef95;"/>
      <path d="M588.78,511.33c11.06,29.23,77.08,61.29,107.11,67.02,37.61,7.38,79.29,14.41,105.36,46.15,6.93,8.2,12.6,20.2,18.37,27.96,3.99,5.26,7.24,6.75,13.94,9.05,3.48,1.11,7.62,2.11,12.29,3.03,9.53,1.96,19.64,3.67,30.34,5.48,23.51,4.06,47.38,8.25,69.65,21.01,18.16,10.14,35.05,23.68,46.59,41.43,10.46,15.62,17.53,35.42,22.9,52.07l-62,17.66c-2.4-9.75-4.91-19.05-7.92-26.75-2.64-6.79-5.86-13.15-10.63-18.59-7.65-8.61-17.56-15.65-28.66-19.84-13.32-5.45-26.4-9.08-41.31-12.77-10.24-2.59-21.11-5.12-32.29-8.54-13.21-4.17-26.48-9.09-38.06-19.14-10.59-8.73-18.2-23.38-22.89-34.91-2.04-4.7-3.71-8.45-5.48-11.35-6.35-10.67-17.14-18.21-28.16-24.35-15.61-8.55-32.9-14.77-49.62-21.22-32.27-12.03-66.55-36.38-89.09-62.14-7.2-8.77-14.18-18.34-16.12-29.94l5.67-1.31h0Z" style="fill: #c3ef95;"/>
      <path d="M742.39,296.1c-4.47,21.47,18.22,36.49,33.07,47.93,6.03,4.65,12.32,9.49,18.37,15.54,15.74,15.78,20.7,29.97,19.76,51.91,.09,4.68-.07,7.44,1.35,10.42,1.04,1.4,1.75,1.77,3.68,3,12.15,6.65,29.75,8.18,43.97,10.8,20.37,3.24,40.71,8.38,59.34,17.49,27.65,12.44,52.6,29.31,73.3,52.13l-44.48,37.52c-13.19-17.33-31.82-31.8-51.53-41.77-5-2.47-12.9-5.6-18.13-7.85-29.7-12.77-64.59-14.03-89.73-36.96-14.01-13.36-17.38-29.87-13.63-48.11,1-6.54,2.45-10.09,1.76-15.86-.76-5.25-3.42-10.57-6.53-15.39-3.54-5.49-8.05-11.09-12.85-16.79-10.4-12.37-21.01-24.87-25.3-41.03-2.09-8.23-1.57-17.46,2.7-24.91l4.89,1.93h0Z" style="fill: #c3ef95;"/>
      <path d="M883.19,192.78c3.77,3.25,6.64,7.77,8.68,12.37,3.58,7.82,5.22,17.29,9.89,23.62,4.06,5.32,10.37,7.28,16.47,9.67,7.95,2.83,16.92,5.49,25.03,8.86,15.33,6.07,30.24,13.23,44.58,21.39,5.69,3.69,11.47,7.44,17.2,11.08,19.83,13.46,36.17,34.49,40.89,58.74l-47.9,7.59c-.58-5.15-2.97-10.52-5.83-15.07-3.68-6.02-9.4-11.54-15.43-16.06-2.46-1.93-5.08-4.02-7.64-5.77-3.23-2.1-7.48-5.06-10.48-7.36-10.31-7.61-21.25-14.93-32.03-21.98-16.64-11.21-38.55-21.93-44.15-43.11-2.72-10.37-.79-19.56-.73-29.17,0-4.19-.5-8.22-2.09-12.17l3.53-2.59h0Z" style="fill: #c3ef95;"/>
      <path d="M590.22,656.14c33.74,4.76,67.55,4.54,101.48,4.68,19.41,.15,49.05,.23,68.23,.77,10.14,.39,24.44,.86,34.46,1.41,5.76,.21,11.52,1.27,17.3,1.7,4.97,.36,12.49,1.19,17.48,1.68,11.55,1.17,24.22,3.01,35.69,4.93l-10.82,47.27c-4.75-1.16-10.71-2.89-15.43-3.87-2.81-.58-9.25-1.96-11.92-2.52-4.57-.83-11.65-2.07-16.24-2.88-6.85-1.19-13.82-1.74-20.69-2.79-57.72-9.21-116.72-16.72-172.48-34.93-3.53-1.16-8.94-3.24-12.33-4.43-5.42-2.01-10.75-4.53-16.03-6.86l1.32-4.18h0Z" style="fill: #c3ef95;"/>
    </g>
    <g>
      <path d="M1517.47,537.77c-12.01,.81-23.62-5.05-31.42-13.98-14.95-16.89-14.89-45.18-.11-63.07,5.06-6.35,12.41-11.84,19.99-13.77,4.13-.95,7.95-2.24,11.84-4.86,2.2-1.49,4.43-3.43,6.91-6.06,2.92,2.12,5.01,5,6.43,8.22,5.98,13.72-.97,25.62-5.41,37.89-.81,3.26-1.6,6.96-2.39,9.89-.73,2.89-1.61,5.74-2.37,8.63-1.62,6.25-2.62,12.91-2.95,19.5-.46,5.83-.24,11.67-.53,17.6h0Z" style="fill: #73aa39;"/>
      <path d="M1469.99,810.35c-16.52-11.81-22.35-34.98-12.99-53.41,8.92-18.32,28.99-28.7,48.27-30.4,7.55-.75,14.78-.24,22.14,1.03,7.31-.55,14.61-.98,21.84-1.41,10.45-.73,20.82-1,30.97-3.27,3.43-.84,6.69-1.92,9.53-4.27-.52,3.93-3.03,7.48-5.59,10.44-7.9,8.6-18.39,14.67-28.4,19.98-6.66,3.47-13.38,6.54-20.08,9.41l-.63,.27c-1.38,.96-2.77,2.02-4.17,2.93-6.92,4.67-14.7,8.65-21.92,12.1-4.86,2.32-11.04,5.43-15.76,7.42-3.88,1.81-7.12,5.04-10.16,9.1-4.47,5.86-8.64,13.68-13.06,20.08h0Z" style="fill: #73aa39;"/>
      <path d="M617.63,849.39c-2.07-7.21-3.31-14.04-4.96-20.89-2.28-9.4-4.85-19.15-10.35-25.12-.73-.81-1.48-1.39-2.18-2.17-4.46-5-8.46-8.69-13.93-13.17-8.41-6.74-18.48-12.88-27.87-20.41-5.8-4.73-11.42-9.78-15.71-16.36,3.82-1.74,7.33-3,10.81-4.19,25.92-9.2,55.88-6.05,76.05,14.66,9.85,10,17.01,23.76,17.36,37.8,.66,20.92-11.11,40.33-29.22,49.83h0Z" style="fill: #73aa39;"/>
      <path d="M1287.93,252.59c3.96,5.27,7.42,10.6,11.87,15.34,4.91,5.18,8.06,7.02,13.06,9.12,1.19,.52,2.68,1.08,3.72,1.87,3.19,2.03,6.25,3.91,9.51,5.82,12.51,7.5,25.63,13.68,37.95,22.49,5.43,4.02,10.41,8.1,14.65,13.65-11.13,6.67-22.76,11.3-35.58,12.97-24.04,3.33-51.19-7.2-64.9-27.96-11.51-17.44-8.42-42.33,9.7-53.29h0Z" style="fill: #73aa39;"/>
      <path d="M497.94,547.25c.56-8.95,2.76-18.21,4.43-26.99,2.15-9.83,2.62-19.2,3.88-29.02,.55-4.79,.97-9.66,1.34-14.64-.15-1-.62-2.55-.7-3.62-.91-8.06,1-15.37,3.88-22.53,2.7-5.91,5.94-12.13,11.56-15.74,1.59,4.28,3.85,7.9,6.1,11.74,1.94,3.32,4.14,6.86,6.17,9.96,1.67,2.35,2.85,4.49,4.79,5.74,.13,.08,.25,.04,.36,.06,.05-.01,.09-.07,.14-.1,.06,0,.02-.17,.2,.07,15.59,16.11,18.35,42.61,6.57,61.93-9.81,16.7-29.62,26.22-48.72,23.13h0Z" style="fill: #73aa39;"/>
      <path d="M633.63,344.47c2.78-15.6,12.97-30.35,15.99-44.81,2.43-12.44,8.29-25.23,17.08-34.71,6.67-9.09,14.95-16.33,25.44-21,6.53-2.74,14.35-4.61,21.24-2.11-1.86,3.13-3,5.94-3.89,8.72-2.92,9.72-4.42,20.04-5.84,29.96-1.38,14.47-5.36,28.52-13.53,40.87-12.76,18.93-34.95,25.93-56.5,23.09h0Z" style="fill: #73aa39;"/>
    </g>
  </g>
</svg>