<svg xmlns="http://www.w3.org/2000/svg" xmlns:xlink="http://www.w3.org/1999/xlink" height="690.787" width="1974.197" xmlns:v="https://vecta.io/nano"><style><![CDATA[.B{stroke-width:8}.C{stroke:#000}.D{fill:#fcf5e9}.E{stroke:#050507}.F{stroke-linecap:round}.G{fill:#ebd39b}.H{fill:#775d42}]]></style><g fill="#f1f2f2" stroke="#231f20" stroke-miterlimit="10"><path d="M1950.434 628.737l-64.67 42.17a49 49 0 0 1-26.71 7.88H114.894a49 49 0 0 1-26.34-7.64l-60.64-38.73" stroke-width="15.581"/><path d="M1889.584 648.647H84.614c-54.77 0-84.9-30.66-67.85-67.3l227.6-489c9.7-20.82 49.52-37.3 89.18-37.3h1307.1c39.66 0 79.5 16.48 89.18 37.3l227.6 489c17.05 36.63-13.08 67.3-67.85 67.3z" stroke-width="24"/></g><g stroke-linejoin="round"><path d="M63.734 599.447l213.18-471.4c7.9-17.5 41.18-31.4 74.48-31.4h1271.38c33.3 0 66.58 13.9 74.48 31.42l211 464.88" fill="none" stroke="#231f20" stroke-width="7.79" class="F"/><g class="B C G"><path d="M1171.424 605.077h-399.1c-12.1 0-18.77-7.45-15-16.35l50.33-118.8c2.14-5.06 11-9.06 19.72-9.06h289c8.77 0 17.57 4 19.72 9.06l50.32 118.8c3.82 8.92-2.87 16.35-14.98 16.35z"/><g class="F"><path d="M832.834 466.087a16.45 16.45 0 0 1 15.27-14.54c6.84-.33 14.46 4.24 16.18 14.54"/><use xlink:href="#B"/><use xlink:href="#B" x="31.46"/><use xlink:href="#B" x="62.94"/><use xlink:href="#C"/><use xlink:href="#C" x="31.46"/><use xlink:href="#C" x="62.92"/><use xlink:href="#C" x="94.38"/><use xlink:href="#C" x="125.84"/><path d="M803.224 487.277c-.8-10.06-.28-22.4 8.3-28.43 5.17-3.62 18.74-5.5 21.33 3"/><use xlink:href="#D"/><path d="M800.564 501.797c-10.38-3.22-21.74 4.55-25.32 12.2-3.94 8.43-3.86 20.1 4.55 27.07"/><use xlink:href="#D" x="-21.25" y="48.43"/><path d="M780.044 549.107c-10.38-3.22-21.86 4.48-25.32 12.2-6.94 15.5 3 17.92 11.4 24.87"/><use xlink:href="#E"/><path d="M1143.364 487.277c.8-10.06 1.2-24.37-8.3-28.43-8.25-3.52-22.5-.67-25.08 7.9"/><path d="M1135.324 477.807c10.38-3.22 21.74 4.55 25.3 12.2 3.94 8.43 3.87 20.12-4.54 27.07"/><path d="M1145.124 501.797c10.38-3.22 22.63 4.55 26.2 12.2 3.94 8.43 3.87 20.1-4.54 27.07"/><path d="M1155.494 526.237c10.38-3.22 22.85 4.55 26.42 12.2 3.94 8.43 3.87 20.12-4.54 27.07"/><path d="M1166.524 549.107c10.4-3.22 21.87 4.48 25.32 12.2 7 15.5-3 17.92-11.4 24.87"/><use xlink:href="#F"/><use xlink:href="#G"/><use xlink:href="#G" x="44.23"/><path d="M864.514 599.337c1.92 13.55 12.76 20.08 21.48 20.5 9.6.46 20.3-6 22.75-20.5"/><path d="M908.744 599.337c1.92 13.55 12.76 20.08 21.48 20.5 9.6.46 20.3-6 22.74-20.5"/><use xlink:href="#H"/><path d="M997.224 599.337c1.93 13.55 12.76 20.08 21.48 20.5 9.6.46 20.32-6 22.75-20.5"/><use xlink:href="#G" x="265.37"/><use xlink:href="#G" x="309.6"/><use xlink:href="#G" x="353.83"/></g></g><path d="M1155.224 584.867h-366.67c-11.12 0-17.24-6.85-13.78-15l46.23-109.13c2-4.65 10.06-8.33 18.12-8.33h265.5c8 0 16.14 3.68 18.1 8.33l46.23 109.13c3.47 8.15-2.65 15-13.74 15z" class="B C H"/><g class="G B C"><path d="M1719.704 605.077h-399.1c-12.1 0-18.77-7.45-15-16.35l50.33-118.8c2.14-5.06 11-9.06 19.72-9.06h289c8.77 0 17.57 4 19.7 9.06l50.33 118.8c3.8 8.92-2.87 16.35-14.98 16.35z"/><g class="F"><path d="M1381.114 466.087a16.45 16.45 0 0 1 15.27-14.54c6.84-.33 14.46 4.24 16.18 14.54"/><use xlink:href="#B" x="548.28"/><use xlink:href="#B" x="579.74"/><use xlink:href="#B" x="611.2"/><use xlink:href="#C" x="548.28"/><use xlink:href="#C" x="579.74"/><use xlink:href="#C" x="611.2"/><use xlink:href="#C" x="642.66"/><path d="M1632.784 466.087a16.46 16.46 0 0 1 15.28-14.54c6.83-.33 14.45 4.24 16.18 14.54m-312.76 21.2c-.8-10.06-.28-22.4 8.3-28.43 5.17-3.62 18.74-5.5 21.33 3"/><use xlink:href="#D" x="548.31"/><path d="M1348.844 501.797c-10.38-3.22-21.74 4.55-25.32 12.2-3.94 8.43-3.86 20.1 4.55 27.07"/><use xlink:href="#D" x="527" y="48.43"/><path d="M1328.324 549.107c-10.38-3.22-21.86 4.48-25.32 12.2-6.94 15.5 3 17.92 11.4 24.87"/><use xlink:href="#E" x="548.28"/><path d="M1691.644 487.277c.8-10.06 1.2-24.37-8.3-28.43-8.25-3.52-22.5-.67-25.08 7.9"/><path d="M1683.604 477.807c10.38-3.22 21.74 4.55 25.3 12.2 3.94 8.43 3.87 20.12-4.54 27.07"/><path d="M1693.404 501.797c10.38-3.22 22.63 4.55 26.2 12.2 3.94 8.43 3.87 20.1-4.54 27.07"/><path d="M1703.774 526.237c10.38-3.22 22.85 4.55 26.42 12.2 3.94 8.43 3.87 20.12-4.54 27.07"/><path d="M1714.804 549.107c10.4-3.22 21.87 4.48 25.32 12.2 6.95 15.5-3 17.92-11.4 24.87"/><use xlink:href="#F" x="548.28"/><use xlink:href="#G" x="548.28"/><use xlink:href="#G" x="592.51"/><path d="M1412.794 599.337c1.92 13.55 12.76 20.08 21.48 20.5 9.6.46 20.3-6 22.74-20.5"/><use xlink:href="#H" x="504.05"/><path d="M1501.224 599.337c1.93 13.55 12.76 20.08 21.5 20.5 9.6.46 20.3-6 22.74-20.5"/><use xlink:href="#G" x="769.42"/><use xlink:href="#G" x="813.65"/><use xlink:href="#G" x="857.88"/><use xlink:href="#G" x="902.11"/></g></g><path d="M1703.464 584.867h-366.63c-11.12 0-17.24-6.85-13.78-15l46.23-109.13c2-4.65 10.06-8.33 18.12-8.33h265.5c8.06 0 16.15 3.68 18.12 8.33l46.2 109.1c3.5 8.17-2.63 15.02-13.76 15.02z" class="B C H"/><g class="G B C"><path d="M652.994 605.077h-399.1c-12.1 0-18.77-7.45-15-16.35l50.34-118.8c2.14-5.06 10.94-9.06 19.7-9.06h289c8.77 0 17.58 4 19.72 9.06l50.33 118.8c3.78 8.92-2.88 16.35-15 16.35z"/><g class="F"><use xlink:href="#C" x="-644.27"/><use xlink:href="#C" x="-612.81"/><use xlink:href="#C" x="-581.35"/><use xlink:href="#C" x="-549.89"/><path d="M440.224 466.087a16.46 16.46 0 0 1 15.28-14.54c6.83-.33 14.45 4.24 16.18 14.54"/><path d="M471.694 466.087a16.45 16.45 0 0 1 15.28-14.54c6.83-.33 14.45 4.24 16.18 14.54"/><path d="M503.154 466.087a16.45 16.45 0 0 1 15.28-14.54c6.83-.33 14.45 4.24 16.18 14.54"/><path d="M534.614 466.087a16.45 16.45 0 0 1 15.28-14.54c6.83-.33 14.45 4.24 16.17 14.54"/><path d="M566.064 466.087a16.47 16.47 0 0 1 15.28-14.54c6.84-.33 14.46 4.24 16.18 14.54m-312.75 21.2c-.8-10.06-.28-22.4 8.3-28.43 5.17-3.62 18.74-5.5 21.32 3"/><path d="M292.824 477.807c-10.4-3.22-21.74 4.55-25.32 12.2-3.94 8.43-3.87 20.12 4.54 27.07"/><path d="M282.134 501.797c-10.4-3.22-21.74 4.55-25.32 12.2-3.94 8.43-3.87 20.1 4.55 27.07"/><path d="M271.544 526.237c-10.4-3.22-21.75 4.55-25.32 12.2-3.94 8.43-3.87 20.12 4.54 27.07"/><path d="M261.614 549.107c-10.38-3.22-21.86 4.48-25.32 12.2-6.95 15.5 3 17.92 11.4 24.87"/><path d="M250.634 575.457c-13.38-2.4-23.58 14.2-16.2 27.85a18.5 18.5 0 0 0 8.49 8.23c8.37 3.72 19.7.83 26.6-5.55m355.4-118.7c.8-10.06 1.2-24.37-8.3-28.43-8.26-3.52-22.5-.67-25.08 7.9"/><path d="M616.884 477.807c10.38-3.22 21.74 4.55 25.32 12.2 3.94 8.43 3.86 20.12-4.55 27.07"/><path d="M626.694 501.797c10.38-3.22 22.62 4.55 26.2 12.2 3.94 8.43 3.86 20.1-4.55 27.07"/><path d="M637.064 526.237c10.38-3.22 22.84 4.55 26.42 12.2 3.94 8.43 3.87 20.12-4.54 27.07"/><path d="M648.094 549.107c10.38-3.22 21.86 4.48 25.32 12.2 6.94 15.5-3 17.92-11.4 24.87"/><path d="M659.074 575.457c13.38-2.4 23.58 14.2 16.2 27.85a18.48 18.48 0 0 1-8.5 8.23c-8.36 3.72-19.68.83-26.6-5.55"/><use xlink:href="#H" x="-695.35"/><path d="M301.844 599.337c1.93 13.55 12.76 20.08 21.5 20.5 9.6.46 20.3-6 22.74-20.5"/><use xlink:href="#G" x="-429.98"/><use xlink:href="#G" x="-385.75"/><use xlink:href="#G" x="-341.52"/><use xlink:href="#G" x="-297.29"/><use xlink:href="#G" x="-253.06"/><use xlink:href="#G" x="-208.83"/><path d="M611.454 599.337c1.92 13.55 12.76 20.08 21.48 20.5 9.6.46 20.3-6 22.75-20.5"/></g></g><path d="M636.754 584.867h-366.63c-11.12 0-17.25-6.85-13.78-15l46.23-109.13c2-4.65 10.06-8.33 18.12-8.33h265.53c8.06 0 16.15 3.68 18.12 8.33l46.23 109.13c3.42 8.15-2.7 15-13.82 15z" class="B C H"/><g class="G B C"><path d="M1146.534 402.717h-344.13c-10.44 0-16.18-6.43-12.93-14.1l43.4-102.43c1.85-4.36 9.44-7.82 17-7.82h249.2c7.56 0 15.15 3.46 17 7.82l43.4 102.46c3.25 7.64-2.5 14.07-12.94 14.07z"/><g class="F"><path d="M854.584 282.867a14.22 14.22 0 0 1 13.17-12.54c5.9-.28 12.46 3.66 14 12.54"/><use xlink:href="#I"/><path d="M908.834 282.867a14.22 14.22 0 0 1 13.17-12.54c5.9-.28 12.46 3.66 14 12.54"/><path d="M935.964 282.867a14.2 14.2 0 0 1 13.17-12.54c5.9-.28 12.46 3.66 14 12.54"/><path d="M963.084 282.867a14.22 14.22 0 0 1 13.14-12.54c5.9-.28 12.46 3.66 14 12.54"/><path d="M990.224 282.867a14.2 14.2 0 0 1 13.17-12.54c5.9-.28 12.46 3.66 13.95 12.54"/><use xlink:href="#I" x="135.63"/><path d="M1044.464 282.867a14.2 14.2 0 0 1 13.17-12.54c5.9-.28 12.46 3.66 13.95 12.54"/><use xlink:href="#I" x="189.88"/><path d="M829.044 301.147c-.7-8.68-.24-19.32 7.15-24.52 4.46-3.12 16.16-4.75 18.4 2.63"/><path d="M835.984 292.977c-9-2.77-18.75 3.92-21.83 10.52-3.4 7.27-3.34 17.35 3.92 23.34"/><path d="M826.764 313.647c-8.95-2.77-18.75 3.92-21.83 10.52-3.4 7.27-3.33 17.35 3.92 23.34"/><path d="M817.634 334.737c-9-2.78-18.75 3.92-21.83 10.52-3.4 7.27-3.34 17.34 3.92 23.34"/><path d="M809.074 354.447c-9-2.77-18.85 3.87-21.83 10.52-6 13.38 2.57 15.45 9.82 21.45"/><path d="M799.604 377.177c-11.54-2.07-20.33 12.25-14 24a15.9 15.9 0 0 0 7.33 7.09c7.2 3.2 17 .72 22.94-4.78m306.47-102.34c.7-8.68 1-21-7.16-24.52-7.12-3-19.4-.57-21.63 6.8"/><path d="M1115.404 292.977c9-2.77 18.74 3.92 21.83 10.52 3.4 7.27 3.33 17.35-3.92 23.34"/><path d="M1123.854 313.647c8.95-2.77 19.5 3.92 22.6 10.52 3.4 7.27 3.34 17.35-3.9 23.34"/><path d="M1132.794 334.737c9-2.78 19.7 3.92 22.8 10.52 3.4 7.27 3.33 17.34-3.92 23.34"/><path d="M1142.314 354.447c9-2.77 18.85 3.87 21.83 10.52 6 13.38-2.58 15.45-9.83 21.45"/><path d="M1151.784 377.177c11.53-2.07 20.33 12.25 14 24a16 16 0 0 1-7.33 7.09c-7.22 3.2-17 .72-23-4.78"/><use xlink:href="#J"/><use xlink:href="#K"/><use xlink:href="#L"/><use xlink:href="#K" x="76.27"/><use xlink:href="#L" x="76.32"/><use xlink:href="#J" x="190.68"/><use xlink:href="#K" x="190.68"/><use xlink:href="#L" x="190.68"/><path d="M1110.714 397.767a20 20 0 0 0 18.51 17.67c8.3.4 17.52-5.15 19.62-17.67"/></g></g><path d="M1132.534 385.287h-316.12c-9.6 0-14.87-5.9-11.9-12.95l39.87-94.1c1.7-4 8.67-7.18 15.62-7.18h228.92c6.94 0 13.92 3.18 15.62 7.18l39.86 94.1c3 7.05-2.3 12.95-11.88 12.95z" class="B C H"/><g class="G B C"><path d="M1623.644 406.647h-344.13c-10.44 0-16.2-6.42-12.94-14.1l43.4-102.43c1.85-4.36 9.44-7.8 17-7.8h249.25c7.57 0 15.16 3.45 17 7.8l43.4 102.43c3.2 7.7-2.53 14.1-12.97 14.1z"/><g class="F"><path d="M1331.694 286.827a14.2 14.2 0 0 1 13.17-12.54c5.9-.28 12.46 3.65 13.95 12.54"/><use xlink:href="#M"/><use xlink:href="#N"/><path d="M1413.064 286.827a14.22 14.22 0 0 1 13.16-12.54c5.9-.28 12.46 3.65 14 12.54"/><use xlink:href="#N" x="54.28"/><use xlink:href="#M" x="108.5"/><use xlink:href="#N" x="108.5"/><use xlink:href="#M" x="162.75"/><use xlink:href="#N" x="162.75"/><path d="M1306.144 305.097c-.7-8.67-.24-19.32 7.16-24.5 4.46-3.13 16.16-4.76 18.4 2.62"/><path d="M1313.084 296.937c-8.95-2.78-18.74 3.92-21.83 10.52-3.4 7.27-3.33 17.34 3.92 23.34"/><path d="M1303.874 317.647c-9-2.78-18.75 3.92-21.83 10.52-3.4 7.27-3.34 17.34 3.92 23.34"/><path d="M1294.734 338.647c-9-2.77-18.74 3.93-21.83 10.52-3.4 7.27-3.33 17.35 3.92 23.35"/><path d="M1286.224 358.407c-9-2.78-18.85 3.87-21.83 10.52-6 13.38 2.58 15.45 9.83 21.45"/><path d="M1276.704 381.127c-11.53-2.07-20.33 12.26-14 24a15.9 15.9 0 0 0 7.32 7.1c7.22 3.2 17 .7 23-4.8m306.42-102.33c.7-8.67 1-21-7.15-24.5-7.12-3-19.4-.58-21.63 6.8"/><path d="M1592.514 296.937c9-2.78 18.74 3.92 21.82 10.52 3.4 7.27 3.34 17.34-3.9 23.34"/><path d="M1600.964 317.647c9-2.78 19.5 3.92 22.6 10.52 3.4 7.27 3.33 17.34-3.92 23.34"/><path d="M1609.904 338.647c9-2.77 19.7 3.93 22.78 10.52 3.4 7.27 3.34 17.35-3.92 23.35"/><path d="M1619.414 358.407c9-2.78 18.85 3.87 21.83 10.52 6 13.38-2.57 15.45-9.82 21.45"/><path d="M1628.884 381.127c11.54-2.07 20.33 12.26 14 24a15.87 15.87 0 0 1-7.33 7.1c-7.2 3.2-17 .7-22.94-4.8m-329.88-5.7a20 20 0 0 0 18.49 17.67c8.3.4 17.52-5.15 19.62-17.67"/><use xlink:href="#L" x="438.97" y="3.95"/><use xlink:href="#K" x="515.24" y="3.95"/><use xlink:href="#L" x="515.24" y="3.95"/><use xlink:href="#J" x="629.65" y="3.95"/><use xlink:href="#K" x="629.65" y="3.95"/><use xlink:href="#L" x="629.65" y="3.95"/><path d="M1549.684 401.717a20 20 0 0 0 18.54 17.67c8.3.4 17.52-5.15 19.62-17.67"/><use xlink:href="#L" x="705.92" y="3.95"/></g></g><path d="M1609.634 389.237h-316.12c-9.6 0-14.87-5.9-11.88-13l39.86-94.1c1.7-4 8.68-7.18 15.62-7.18h228.92c7 0 13.93 3.17 15.62 7.18l39.87 94.1c2.98 7.1-2.3 13-11.9 13z" class="B C H"/><g class="G B C"><path d="M699.524 402.717h-344.13c-10.44 0-16.2-6.43-12.94-14.1l43.4-102.43c1.85-4.36 9.44-7.82 17-7.82h249.2c7.57 0 15.16 3.46 17 7.82l43.4 102.46c3.25 7.64-2.5 14.07-12.93 14.07z"/><g class="F"><path d="M407.574 282.867a14.2 14.2 0 0 1 13.17-12.54c5.9-.28 12.46 3.66 14 12.54"/><use xlink:href="#I" x="-447.01"/><use xlink:href="#O"/><use xlink:href="#I" x="-392.76"/><path d="M516.074 282.867a14.21 14.21 0 0 1 13.15-12.54c5.9-.28 12.46 3.66 14 12.54"/><use xlink:href="#I" x="-338.48"/><use xlink:href="#O" x="108.5"/><use xlink:href="#I" x="-284.26"/><use xlink:href="#O" x="162.75"/><path d="M382.024 301.147c-.7-8.68-.24-19.32 7.16-24.52 4.46-3.12 16.16-4.75 18.4 2.63"/><path d="M388.964 292.977c-8.95-2.77-18.74 3.92-21.83 10.52-3.4 7.27-3.33 17.35 3.92 23.34"/><path d="M379.754 313.647c-9-2.77-18.75 3.92-21.83 10.52-3.4 7.27-3.34 17.35 3.92 23.34"/><path d="M370.614 334.737c-8.95-2.78-18.74 3.92-21.83 10.52-3.4 7.27-3.33 17.34 3.92 23.34"/><path d="M362.054 354.447c-8.95-2.8-18.83 3.87-21.83 10.52-6 13.38 2.58 15.45 9.83 21.45"/><path d="M352.584 377.177c-11.53-2.07-20.33 12.25-14 24a15.93 15.93 0 0 0 7.32 7.09c7.22 3.2 17 .72 22.95-4.78m306.47-102.34c.7-8.68 1-21-7.15-24.52-7.12-3-19.4-.57-21.63 6.8"/><path d="M668.394 292.977c9-2.77 18.74 3.92 21.82 10.52 3.4 7.27 3.34 17.35-3.9 23.34"/><path d="M676.844 313.647c9-2.77 19.5 3.92 22.6 10.52 3.4 7.27 3.33 17.35-3.92 23.34"/><path d="M685.784 334.737c9-2.78 19.7 3.92 22.78 10.52 3.4 7.27 3.34 17.34-3.92 23.34"/><path d="M695.294 354.447c9-2.77 18.85 3.87 21.83 10.52 6 13.38-2.57 15.45-9.82 21.45"/><path d="M704.764 377.177c11.54-2.07 20.33 12.25 14 24a15.9 15.9 0 0 1-7.33 7.09c-7.2 3.2-17 .72-22.94-4.78"/><use xlink:href="#K" x="-485.15"/><use xlink:href="#L" x="-485.15"/><use xlink:href="#K" x="-408.88"/><use xlink:href="#L" x="-408.88"/><use xlink:href="#J" x="-294.47"/><use xlink:href="#K" x="-294.47"/><use xlink:href="#L" x="-294.47"/><use xlink:href="#K" x="-218.2"/><use xlink:href="#L" x="-218.2"/></g></g><path d="M685.514 385.287h-316.12c-9.6 0-14.87-5.9-11.88-12.95l39.86-94.1c1.7-4 8.68-7.18 15.62-7.18h228.92c6.95 0 13.93 3.18 15.62 7.18l39.87 94.1c2.98 7.05-2.3 12.95-11.9 12.95z" class="B C H"/><g class="G B C"><path d="M1121.714 223.327h-289.3c-8.78 0-13.6-5.4-10.88-11.85l36.48-86.1c1.56-3.67 7.94-6.57 14.3-6.57h209.5c6.36 0 12.74 2.9 14.3 6.57l36.48 86.1c2.74 6.46-2.1 11.85-10.87 11.85z"/><g class="F"><path d="M876.274 122.587a12 12 0 0 1 11.08-10.55c5-.23 10.47 3.08 11.73 10.55"/><use xlink:href="#P"/><use xlink:href="#P" x="22.8"/><path d="M944.684 122.587a12 12 0 0 1 11.08-10.55c5-.23 10.47 3.08 11.73 10.55"/><path d="M967.494 122.587a12 12 0 0 1 11.07-10.55c4.95-.23 10.48 3.08 11.73 10.55"/><use xlink:href="#Q"/><path d="M1013.094 122.587a12 12 0 0 1 11.13-10.55c5-.23 10.47 3.08 11.73 10.55"/><use xlink:href="#P" x="136.82"/><use xlink:href="#Q" x="68.41"/><path d="M854.804 137.947c-.6-7.3-.2-16.24 6-20.6 3.74-2.63 13.58-4 15.45 2.2"/><path d="M860.634 131.077c-7.52-2.33-15.76 3.3-18.35 8.85-2.85 6.1-2.8 14.58 3.3 19.62"/><path d="M852.884 148.467c-7.52-2.33-15.76 3.3-18.35 8.84-2.85 6.1-2.8 14.58 3.3 19.63"/><path d="M845.224 166.187c-7.53-2.34-15.76 3.3-18.36 8.84-2.85 6.1-2.8 14.58 3.3 19.62"/><path d="M838.014 182.757c-7.53-2.33-15.85 3.25-18.35 8.85-5 11.24 2.16 13 8.26 18"/><path d="M830.054 201.857c-9.7-1.74-17.1 10.3-11.74 20.2a13.42 13.42 0 0 0 6.16 6c6.06 2.7 14.27.6 19.28-4m257.62-86.1c.58-7.3.86-17.67-6-20.6-6-2.56-16.3-.5-18.18 5.72"/><path d="M1095.544 131.077c7.52-2.33 15.76 3.3 18.35 8.85 2.85 6.1 2.8 14.58-3.3 19.62"/><path d="M1102.644 148.467c7.53-2.33 16.4 3.3 19 8.84 2.85 6.1 2.8 14.58-3.3 19.63"/><path d="M1110.164 166.187c7.53-2.34 16.56 3.3 19.15 8.84 2.86 6.1 2.8 14.58-3.3 19.62"/><path d="M1118.164 182.757c7.52-2.33 15.85 3.25 18.35 8.85 5 11.24-2.16 13-8.26 18"/><path d="M1126.124 201.857c9.7-1.74 17.1 10.3 11.74 20.2a13.42 13.42 0 0 1-6.16 6c-6.06 2.7-14.27.6-19.3-4"/><use xlink:href="#R"/><use xlink:href="#R" x="32.1"/><use xlink:href="#R" x="64.1"/><use xlink:href="#R" x="96.18"/><use xlink:href="#R" x="128.24"/><use xlink:href="#R" x="160.3"/><use xlink:href="#R" x="192.36"/><use xlink:href="#R" x="224.42"/><path d="M1091.604 219.177a16.8 16.8 0 0 0 15.62 14.85c7 .33 14.72-4.33 16.5-14.85"/></g></g><path d="M1109.944 208.647h-265.72c-8.06 0-12.5-5-10-10.88l33.48-79.12c1.43-3.37 7.3-6 13.13-6h192.45c5.84 0 11.7 2.66 13.13 6l33.52 79.1c2.5 5.96-1.93 10.9-10 10.9z" class="B C H"/><g class="G B C"><use xlink:href="#S"/><g class="F"><path d="M1277.374 125.907a11.94 11.94 0 0 1 11.07-10.54c5-.24 10.48 3.07 11.73 10.54m.05 0a11.94 11.94 0 0 1 11-10.54c5-.24 10.47 3.07 11.72 10.54m.03 0a11.94 11.94 0 0 1 11.08-10.54c5-.24 10.47 3.07 11.73 10.54"/><path d="M1345.784 125.907a11.94 11.94 0 0 1 11.07-10.54c5-.24 10.48 3.07 11.73 10.54"/><path d="M1368.584 125.907a11.94 11.94 0 0 1 11.08-10.54c5-.24 10.47 3.07 11.72 10.54"/><path d="M1391.384 125.907a12 12 0 0 1 11.08-10.54c5-.24 10.47 3.07 11.73 10.54m.03 0a11.94 11.94 0 0 1 11-10.54c5-.24 10.48 3.07 11.73 10.54m.04 0a11.94 11.94 0 0 1 11.08-10.54c5-.24 10.47 3.07 11.73 10.54"/><path d="M1459.804 125.907a11.93 11.93 0 0 1 11.07-10.54c4.95-.24 10.48 3.07 11.73 10.54m-226.7 15.36c-.58-7.3-.2-16.24 6-20.6 3.75-2.63 13.58-4 15.46 2.2"/><path d="M1261.734 134.407c-7.53-2.34-15.76 3.3-18.35 8.84-2.86 6.1-2.8 14.58 3.3 19.62"/><use xlink:href="#T"/><use xlink:href="#T" x="-7.68" y="17.72"/><path d="M1239.104 186.087c-7.52-2.34-15.84 3.25-18.35 8.84-5 11.25 2.17 13 8.26 18"/><path d="M1231.144 205.187c-9.7-1.74-17.1 10.3-11.74 20.2a13.39 13.39 0 0 0 6.16 6c6.07 2.7 14.27.6 19.3-4m257.6-86.12c.58-7.3.86-17.67-6-20.6-6-2.56-16.3-.5-18.18 5.7"/><path d="M1496.634 134.407c7.53-2.34 15.76 3.3 18.35 8.84 2.86 6.1 2.8 14.58-3.3 19.62"/><path d="M1503.744 151.787c7.52-2.33 16.4 3.3 19 8.85 2.86 6.1 2.8 14.58-3.3 19.62"/><path d="M1511.224 169.507c7.52-2.33 16.56 3.3 19.15 8.85 2.85 6.1 2.8 14.58-3.3 19.62"/><path d="M1519.224 186.087c7.53-2.34 15.85 3.25 18.35 8.84 5 11.25-2.16 13-8.26 18"/><path d="M1527.224 205.187c9.7-1.74 17.1 10.3 11.75 20.2a13.39 13.39 0 0 1-6.16 6c-6.07 2.7-14.27.6-19.3-4"/><use xlink:href="#U"/><use xlink:href="#U" x="32.05"/><use xlink:href="#U" x="64.11"/><use xlink:href="#U" x="96.17"/><use xlink:href="#U" x="128.23"/><use xlink:href="#U" x="160.29"/><use xlink:href="#U" x="192.35"/><path d="M1460.634 222.497a16.8 16.8 0 0 0 15.59 14.85c7 .34 14.73-4.33 16.5-14.85"/><path d="M1492.694 222.497a16.8 16.8 0 0 0 15.53 14.85c7 .34 14.73-4.33 16.5-14.85"/></g></g><path d="M1511.034 212.007h-265.75c-8.07 0-12.5-5-10-10.9l33.52-79.1c1.42-3.37 7.3-6 13.13-6h192.45c5.84 0 11.7 2.67 13.13 6l33.5 79.1c2.5 5.93-1.93 10.9-10 10.9z" class="B C H"/><g class="G B C"><use xlink:href="#S" x="-776.89" y="-3.32"/><g class="F"><path d="M500.484 122.587a12 12 0 0 1 11.07-10.55c4.95-.23 10.48 3.08 11.73 10.55"/><use xlink:href="#P" x="-375.8"/><path d="M546.084 122.587a12 12 0 0 1 11.08-10.55c4.95-.23 10.47 3.08 11.73 10.55"/><use xlink:href="#P" x="-330.19"/><use xlink:href="#Q" x="-398.6"/><path d="M614.494 122.587a12 12 0 0 1 11.08-10.55c4.95-.23 10.47 3.08 11.73 10.55"/><use xlink:href="#P" x="-261.78"/><path d="M660.104 122.587a12 12 0 0 1 11.12-10.55c4.95-.23 10.47 3.08 11.73 10.55"/><use xlink:href="#P" x="-216.17"/><path d="M479.004 137.947c-.58-7.3-.2-16.24 6-20.6 3.74-2.63 13.58-4 15.46 2.2"/><use xlink:href="#T" x="-769.14" y="-20.71"/><path d="M477.094 148.467c-7.53-2.33-15.76 3.3-18.35 8.84-2.86 6.1-2.8 14.58 3.3 19.63"/><path d="M469.414 166.187c-7.53-2.34-15.76 3.3-18.35 8.84-2.84 6.1-2.84 14.62 3.3 19.62"/><path d="M462.224 182.757c-7.52-2.33-15.84 3.25-18.35 8.85-5 11.24 2.17 13 8.26 18"/><path d="M454.224 201.857c-9.7-1.74-17.1 10.3-11.74 20.2a13.46 13.46 0 0 0 6.16 6c6.07 2.7 14.27.6 19.3-4m257.64-86.1c.58-7.3.86-17.67-6-20.6-6-2.56-16.3-.5-18.18 5.72"/><path d="M719.744 131.077c7.53-2.33 15.76 3.3 18.35 8.85 2.86 6.1 2.8 14.58-3.3 19.62"/><path d="M726.854 148.467c7.52-2.33 16.4 3.3 19 8.84 2.86 6.1 2.8 14.58-3.3 19.63"/><path d="M734.374 166.187c7.52-2.34 16.56 3.3 19.15 8.84 2.85 6.1 2.8 14.58-3.3 19.62"/><path d="M742.364 182.757c7.53-2.33 15.85 3.25 18.35 8.85 5 11.24-2.16 13-8.26 18"/><path d="M750.324 201.857c9.7-1.74 17.1 10.3 11.75 20.2a13.46 13.46 0 0 1-6.16 6c-6.07 2.7-14.27.6-19.3-4"/><use xlink:href="#V"/><use xlink:href="#V" x="32.06"/><use xlink:href="#V" x="64.12"/><use xlink:href="#V" x="96.18"/><use xlink:href="#V" x="128.24"/><path d="M619.624 219.177a16.8 16.8 0 0 0 15.6 14.85c7 .33 14.73-4.33 16.5-14.85"/><path d="M651.684 219.177a16.8 16.8 0 0 0 15.54 14.85c7 .33 14.73-4.33 16.5-14.85"/><use xlink:href="#V" x="224.42"/><use xlink:href="#V" x="256.48"/></g></g><path d="M734.144 208.647h-265.76c-8.06 0-12.5-5-10-10.88l33.53-79.12c1.42-3.37 7.3-6 13.13-6h192.45c5.84 0 11.7 2.66 13.13 6l33.5 79.1c2.5 5.96-1.9 10.9-10 10.9z" class="B C H"/><g class="D E F B"><use xlink:href="#W"/><path d="M1029.584 226.647h-102.56l-.67 131.35h102.55"/></g><path d="M924.674 226.647c16.67 0 30.2 29.42 30.2 65.7s-13.52 65.7-30.2 65.7-30.18-29.42-30.18-65.75 13.5-65.67 30.18-65.67z" class="B D E"/><g class="F B D E"><path d="M1021.654 74.537c14.2 0 25.73 25.07 25.73 56h0c0 30.93-11.52 56-25.73 56h0c-14.2 0-25.72-25.07-25.72-56h0c0-30.93 11.5-56 25.72-56h0"/><path d="M1022.224 74.537h-87.4l-.6 111.94h87.4"/></g><path d="M932.824 74.537c14.2 0 25.73 25.07 25.73 56s-11.52 56-25.73 56-25.73-25.07-25.73-56 11.52-56 25.73-56z" class="B D E"/><g class="F B D E"><path d="M1034.764 397.767c20.1 0 36.42 35.5 36.42 79.3h0c0 43.8-16.3 79.3-36.42 79.3h0c-20.12 0-36.43-35.5-36.43-79.3h0c0-43.8 16.3-79.3 36.43-79.3h0"/><path d="M1035.574 397.767h-123.75l-.82 158.5h123.76"/></g><path d="M908.984 397.767c20.12 0 36.42 35.5 36.42 79.3s-16.3 79.3-36.42 79.3-36.43-35.5-36.43-79.3 16.3-79.3 36.43-79.3z" class="B D E"/><g class="F B D E"><use xlink:href="#W" x="-442.63"/><path d="M586.954 226.647h-102.56l-.67 131.35h102.55"/></g><path d="M482.044 226.647c16.67 0 30.18 29.4 30.18 65.7s-13.52 65.7-30.2 65.7-30.17-29.4-30.17-65.7 13.5-65.7 30.18-65.7z" class="B D E"/><g class="F B D E"><path d="M636.114 74.537c14.2 0 25.72 25.07 25.72 56h0c0 30.93-11.52 56-25.72 56h0c-14.2 0-25.73-25.07-25.73-56h0c0-30.93 11.52-56 25.73-56h0"/><path d="M636.684 74.537h-87.4l-.58 111.94h87.4"/></g><path d="M547.274 74.537c14.2 0 25.73 25.07 25.73 56s-11.52 56-25.73 56-25.72-25.07-25.72-56 11.52-56 25.72-56z" class="B D E"/><g class="F B D E"><path d="M516.324 393.097c20.12 0 36.43 35.5 36.43 79.3h0c0 43.8-16.3 79.3-36.43 79.3h0c-20.1 0-36.42-35.5-36.42-79.3h0c0-43.8 16.3-79.3 36.42-79.3h0"/><path d="M517.144 393.097h-123.76l-.8 158.55h123.75"/></g><path d="M390.544 393.097c20.12 0 36.43 35.5 36.43 79.3s-16.3 79.25-36.43 79.25-36.42-35.5-36.42-79.3 16.3-79.26 36.42-79.26z" class="B D E"/><g class="F B D E"><path d="M1377.574 226.647c-17.5 0-31.66 29.42-31.66 65.7h0c0 36.3 14.17 65.7 31.66 65.7h0c17.5 0 31.67-29.4 31.67-65.7h0c0-36.3-14.18-65.7-31.67-65.7h0"/><path d="M1376.864 226.647h107.6l.7 131.36h-107.6"/></g><path d="M1486.924 226.647c-17.5 0-31.67 29.42-31.67 65.7s14.18 65.7 31.67 65.7 31.66-29.4 31.66-65.7-14.17-65.7-31.66-65.7z" class="B D E"/><g class="F B D E"><path d="M1326.224 74.537c-14.9 0-27 25.07-27 56h0c0 30.93 12.1 56 27 56h0c14.9 0 27-25.07 27-56h0c0-30.93-12.08-56-27-56h0"/><path d="M1325.614 74.537h91.7l.6 112h-91.7"/></g><path d="M1419.404 74.537c-14.9 0-27 25.07-27 56s12.08 56 27 56 27-25.07 27-56-12.1-56-27-56z" class="B D E"/><g class="F B D E"><path d="M1451.874 393.107c-21.1 0-38.2 35.5-38.2 79.3h0c0 43.8 17.1 79.3 38.2 79.3h0c21.1 0 38.22-35.5 38.22-79.3h0c0-43.8-17.1-79.3-38.22-79.3h0"/><path d="M1451.024 393.107h129.83l.85 158.5h-129.83"/></g><path d="M1583.824 393.107c-21.1 0-38.2 35.5-38.2 79.3s17.1 79.3 38.2 79.3 38.22-35.5 38.22-79.3-17.1-79.3-38.22-79.3z" class="B D E"/><g class="C G B"><path d="M1189.874 449.077c4.16-3.72 6.2-8.3 2-17.77a22.2 22.2 0 0 0-7.65-8.66 26.45 26.45 0 0 0-2.35-14.19 22.81 22.81 0 0 0-8.46-8.92 26.1 26.1 0 0 0-2.13-15.52 22.8 22.8 0 0 0-8.48-9 26.19 26.19 0 0 0-2.21-15c-2.6-5.6-9.4-11.25-16.9-12.63-.22-7.88-2-15.7-8.66-18.53-5.92-2.53-14.93-1.77-20.5 2h-.16a15.26 15.26 0 0 0-14.62-9.32 16.35 16.35 0 0 0-13.73 9.32h-3.1a15.25 15.25 0 0 0-14.62-9.32 16.35 16.35 0 0 0-13.73 9.32h-3.1a15.24 15.24 0 0 0-14.62-9.32 16.36 16.36 0 0 0-13.73 9.32h-3.1a15.24 15.24 0 0 0-14.62-9.32 16.34 16.34 0 0 0-13.72 9.32h-3.12a15.24 15.24 0 0 0-14.62-9.32 16.34 16.34 0 0 0-13.68 9.33h-3.12a15.24 15.24 0 0 0-14.62-9.32 16.34 16.34 0 0 0-13.72 9.32h-3.12a15.24 15.24 0 0 0-14.62-9.32 16.35 16.35 0 0 0-13.72 9.32h-3.08a15.24 15.24 0 0 0-14.62-9.32 16.35 16.35 0 0 0-13.72 9.32h-3.16a15.24 15.24 0 0 0-14.62-9.32 16.35 16.35 0 0 0-13.72 9.32h-1.95c-3.33-7.36-16-5.5-20.93-2-5.87 4.13-8 11.2-8.45 18.5-7.6 1.3-14.48 7-17.12 12.66a26.35 26.35 0 0 0-2.24 14.8 23.36 23.36 0 0 0-8.45 9.19 26.24 26.24 0 0 0-2.17 15.27 23.45 23.45 0 0 0-8.42 9.17 26.54 26.54 0 0 0-2.34 14.19 22.23 22.23 0 0 0-7.59 8.68c-4.24 9.47-2.18 14.05 2 17.77a20 20 0 0 0-3.84 24.23 18.53 18.53 0 0 0 8.5 8.23c5.83 2.6 13.1 2 19.3-.8a23 23 0 0 0 16.86 9.1c8.23.4 17.25-4.28 21.2-14.75h3a23 23 0 0 0 20 14.75c8.23.4 17.25-4.28 21.2-14.75h3a23 23 0 0 0 20 14.75c8.23.4 17.25-4.28 21.2-14.75h3a23 23 0 0 0 20 14.75c8.23.4 17.25-4.28 21.2-14.75h3a23 23 0 0 0 20 14.75c8.22.4 17.24-4.28 21.2-14.75h3a23 23 0 0 0 20 14.75c8.23.4 17.25-4.28 21.2-14.75h3a23 23 0 0 0 20 14.75c8.23.4 17.25-4.28 21.2-14.75h3a23 23 0 0 0 20 14.75c8.23.4 17.25-4.28 21.2-14.75h3.05a23 23 0 0 0 20 14.75 21 21 0 0 0 17.4-8c5.5 1.8 11.5 1.92 16.45-.28a18.57 18.57 0 0 0 8.5-8.23 20 20 0 0 0-3.68-24.26zm548.28 0c4.16-3.72 6.2-8.3 2-17.77a22.2 22.2 0 0 0-7.58-8.68 26.45 26.45 0 0 0-2.35-14.19 22.81 22.81 0 0 0-8.46-8.92 26.1 26.1 0 0 0-2.13-15.52 22.8 22.8 0 0 0-8.48-9 26.19 26.19 0 0 0-2.21-15c-2.6-5.6-9.4-11.25-16.9-12.63-.22-7.88-2-15.7-8.66-18.53-5.92-2.53-14.93-1.77-20.5 2h-.16a15.26 15.26 0 0 0-14.62-9.32 16.35 16.35 0 0 0-13.73 9.32h-3.14a15.26 15.26 0 0 0-14.62-9.32 16.35 16.35 0 0 0-13.73 9.32h-3.1a15.25 15.25 0 0 0-14.62-9.32 16.36 16.36 0 0 0-13.73 9.32h-3.1a15.24 15.24 0 0 0-14.62-9.32 16.36 16.36 0 0 0-13.73 9.32h-3.1a15.24 15.24 0 0 0-14.62-9.29 16.34 16.34 0 0 0-13.72 9.32h-3.12a15.24 15.24 0 0 0-14.62-9.32 16.34 16.34 0 0 0-13.72 9.32h-3.12a15.24 15.24 0 0 0-14.62-9.32 16.34 16.34 0 0 0-13.72 9.32h-3.12a15.24 15.24 0 0 0-14.62-9.32 16.35 16.35 0 0 0-13.72 9.32h-3.12a15.24 15.24 0 0 0-14.62-9.32 16.35 16.35 0 0 0-13.72 9.32h-2c-3.33-7.36-16-5.5-20.93-2-5.87 4.13-8 11.2-8.45 18.5-7.6 1.3-14.48 7-17.12 12.66a26.35 26.35 0 0 0-2.24 14.8 23.36 23.36 0 0 0-8.45 9.19 26.24 26.24 0 0 0-2.17 15.27 23.45 23.45 0 0 0-8.42 9.17 26.54 26.54 0 0 0-2.34 14.19 22.23 22.23 0 0 0-7.59 8.68c-4.24 9.47-2.18 14.05 2 17.77a20 20 0 0 0-3.84 24.23 18.53 18.53 0 0 0 8.5 8.23c5.83 2.6 13.1 2 19.3-.8a23 23 0 0 0 16.86 9.1c8.23.4 17.25-4.28 21.2-14.75h3a23 23 0 0 0 20 14.75c8.23.4 17.25-4.28 21.2-14.75h3a23 23 0 0 0 20 14.75c8.23.4 17.25-4.28 21.2-14.75h3a23 23 0 0 0 20 14.75c8.22.4 17.24-4.28 21.2-14.75h3a23 23 0 0 0 20 14.75c8.22.4 17.24-4.28 21.2-14.75h3a23 23 0 0 0 20 14.75c8.23.4 17.25-4.28 21.2-14.75h3a23 23 0 0 0 20 14.75c8.23.4 17.25-4.28 21.2-14.75h3a23 23 0 0 0 20 14.75c8.23.4 17.25-4.28 21.2-14.75h3a23 23 0 0 0 20 14.75 21 21 0 0 0 17.4-8c5.5 1.8 11.5 1.92 16.45-.28a18.57 18.57 0 0 0 8.5-8.23 20 20 0 0 0-3.58-24.26zm-1066.7 0c4.15-3.72 6.2-8.3 2-17.77a22.23 22.23 0 0 0-7.62-8.66 26.45 26.45 0 0 0-2.34-14.19 22.81 22.81 0 0 0-8.46-8.92 26.26 26.26 0 0 0-2.13-15.52 22.8 22.8 0 0 0-8.48-9 26.27 26.27 0 0 0-2.21-15c-2.62-5.6-9.4-11.25-16.92-12.63-.22-7.88-2-15.7-8.65-18.53-5.92-2.53-14.93-1.77-20.5 2h-.17a15.24 15.24 0 0 0-14.62-9.32 16.35 16.35 0 0 0-13.72 9.32h-3.12a15.24 15.24 0 0 0-14.61-9.32 16.35 16.35 0 0 0-13.73 9.32h-3.12a15.24 15.24 0 0 0-14.61-9.32 16.35 16.35 0 0 0-13.73 9.32h-3.1a15.26 15.26 0 0 0-14.62-9.32 16.35 16.35 0 0 0-13.75 9.33h-3.1a15.26 15.26 0 0 0-14.62-9.32 16.35 16.35 0 0 0-13.73 9.32h-3.1a15.26 15.26 0 0 0-14.62-9.32 16.35 16.35 0 0 0-13.73 9.32h-3.08a15.25 15.25 0 0 0-14.62-9.32 16.35 16.35 0 0 0-13.73 9.32h-3.1a15.24 15.24 0 0 0-14.62-9.32 16.36 16.36 0 0 0-13.73 9.32h-3.1a15.24 15.24 0 0 0-14.62-9.32 16.34 16.34 0 0 0-13.72 9.32h-2c-3.33-7.36-16-5.5-20.93-2-5.87 4.13-8 11.2-8.45 18.5-7.6 1.3-14.48 7-17.12 12.66a26.35 26.35 0 0 0-2.25 14.8 23.41 23.41 0 0 0-8.44 9.19 26.24 26.24 0 0 0-2.17 15.27 23.3 23.3 0 0 0-8.42 9.17 26.36 26.36 0 0 0-2.3 14.19 22.23 22.23 0 0 0-7.59 8.68c-4.24 9.47-2.18 14.05 2 17.77a20 20 0 0 0-3.83 24.23 18.53 18.53 0 0 0 8.5 8.23c5.83 2.6 13.1 2 19.3-.8a23 23 0 0 0 16.86 9.1c8.22.4 17.24-4.28 21.2-14.75h3a23 23 0 0 0 20 14.75c8.23.4 17.25-4.28 21.2-14.75h3a23 23 0 0 0 20 14.75c8.23.4 17.25-4.28 21.2-14.75h3.05a23 23 0 0 0 20 14.75c8.23.4 17.25-4.28 21.2-14.75h3.05a23 23 0 0 0 20 14.75c8.23.4 17.25-4.28 21.2-14.75h2.98a23 23 0 0 0 20 14.75c8.23.4 17.25-4.28 21.2-14.75h3a23 23 0 0 0 20 14.75c8.23.4 17.25-4.28 21.2-14.75h3a23 23 0 0 0 20 14.75c8.23.4 17.25-4.28 21.2-14.75h3.05a23 23 0 0 0 20 14.75 21 21 0 0 0 17.4-8c5.5 1.8 11.5 1.92 16.44-.28a18.53 18.53 0 0 0 8.5-8.23 20 20 0 0 0-3.77-24.26zm114.2-167.9a15.9 15.9 0 0 0 7.33 7.09c5 2.24 11.3 1.7 16.65-.7a19.85 19.85 0 0 0 14.54 7.85c7.1.34 14.87-3.7 18.28-12.72h2.62a19.86 19.86 0 0 0 17.23 12.72c7.1.34 14.87-3.7 18.28-12.72h2.66a19.85 19.85 0 0 0 17.23 12.72c7.1.34 14.87-3.7 18.28-12.72h2.63a19.84 19.84 0 0 0 17.22 12.72c7.1.34 14.88-3.7 18.28-12.72h2.63a19.85 19.85 0 0 0 17.23 12.72c7.1.34 14.87-3.7 18.28-12.72h2.63a19.84 19.84 0 0 0 17.23 12.72c7.1.34 14.87-3.7 18.27-12.72h2.63a19.86 19.86 0 0 0 17.23 12.72c7.1.34 14.87-3.7 18.28-12.72h2.63a19.84 19.84 0 0 0 17.23 12.72c7.1.34 14.87-3.7 18.28-12.72h2.62a19.86 19.86 0 0 0 17.19 12.72 18.18 18.18 0 0 0 15-6.91c4.74 1.54 9.9 1.66 14.18-.25a16 16 0 0 0 7.33-7.09 17.23 17.23 0 0 0-3.31-20.89c3.58-3.2 5.35-7.16 1.7-15.33a19.18 19.18 0 0 0-6.55-7.46 22.77 22.77 0 0 0-2-12.25 19.59 19.59 0 0 0-7.3-7.68 22.61 22.61 0 0 0-1.84-13.4 19.68 19.68 0 0 0-7.31-7.74 22.65 22.65 0 0 0-1.9-12.94c-2.26-4.83-8.1-9.7-14.6-10.88-.2-6.8-1.75-13.55-7.46-16a20.31 20.31 0 0 0-17.68 1.74h-.14a13.18 13.18 0 0 0-12.6-8 14.14 14.14 0 0 0-11.84 8h-2.7a13.19 13.19 0 0 0-12.61-8 14.11 14.11 0 0 0-11.83 8h-2.7a13.18 13.18 0 0 0-12.6-8 14.14 14.14 0 0 0-11.84 8h-2.7a13.17 13.17 0 0 0-12.6-8 14.11 14.11 0 0 0-11.83 8h-2.7a13.18 13.18 0 0 0-12.61-8 14.12 14.12 0 0 0-11.83 8h-2.7a13.17 13.17 0 0 0-12.6-8 14.14 14.14 0 0 0-11.84 8h-2.68a13.18 13.18 0 0 0-12.61-8 14.12 14.12 0 0 0-11.83 8h-2.7a13.17 13.17 0 0 0-12.6-8 14.14 14.14 0 0 0-11.84 8h-2.68a13.19 13.19 0 0 0-12.61-8 14.12 14.12 0 0 0-11.83 8h-1.68c-2.9-6.33-13.76-4.73-18-1.74-5.06 3.56-6.87 9.67-7.28 16-6.55 1.13-12.5 6-14.76 10.9a22.72 22.72 0 0 0-1.96 12.73 20.1 20.1 0 0 0-7.28 7.92 22.57 22.57 0 0 0-1.87 13.17 20.09 20.09 0 0 0-7.26 7.91 22.87 22.87 0 0 0-2 12.25 19.15 19.15 0 0 0-6.54 7.46c-3.66 8.17-1.9 12.13 1.7 15.33a17.21 17.21 0 0 0-3.34 20.89z"/><path d="M1301.224 299.387c7.1.34 14.87-3.7 18.28-12.72h2.63a19.82 19.82 0 0 0 17.23 12.72c7.1.34 14.87-3.7 18.28-12.72h2.63a19.81 19.81 0 0 0 17.22 12.72c7.1.34 14.88-3.7 18.28-12.72h2.63a19.83 19.83 0 0 0 17.23 12.72c7.1.34 14.87-3.7 18.28-12.72h2.63a19.81 19.81 0 0 0 17.23 12.72c7.1.34 14.87-3.7 18.28-12.72h2.62a19.83 19.83 0 0 0 17.23 12.72c7.1.34 14.87-3.7 18.28-12.72h2.63a19.82 19.82 0 0 0 17.23 12.72c7.1.34 14.87-3.7 18.28-12.72h2.63a19.81 19.81 0 0 0 17.27 12.72c7.1.34 14.88-3.7 18.28-12.72h2.63a19.82 19.82 0 0 0 17.23 12.72 18.12 18.12 0 0 0 15-6.9c4.75 1.54 9.9 1.65 14.18-.25a15.87 15.87 0 0 0 7.33-7.1 17.2 17.2 0 0 0-3.31-20.88c3.6-3.2 5.36-7.16 1.7-15.33a19.15 19.15 0 0 0-6.54-7.46 22.73 22.73 0 0 0-2-12.26 19.58 19.58 0 0 0-7.3-7.68 22.5 22.5 0 0 0-1.83-13.39 19.75 19.75 0 0 0-7.31-7.74 22.63 22.63 0 0 0-1.91-12.94c-2.25-4.83-8.1-9.7-14.58-10.88-.2-6.8-1.75-13.55-7.46-16a20.31 20.31 0 0 0-17.68 1.74h-.14a13.16 13.16 0 0 0-12.61-8 14.08 14.08 0 0 0-11.83 8h-2.7a13.15 13.15 0 0 0-12.6-8 14.1 14.1 0 0 0-11.84 8h-2.72a13.16 13.16 0 0 0-12.61-8 14.08 14.08 0 0 0-11.83 8h-2.7a13.15 13.15 0 0 0-12.6-8 14.1 14.1 0 0 0-11.84 8h-2.68a13.16 13.16 0 0 0-12.61-8 14.08 14.08 0 0 0-11.83 8h-2.7a13.15 13.15 0 0 0-12.6-8 14.1 14.1 0 0 0-11.84 8h-2.68a13.16 13.16 0 0 0-12.61-8 14.07 14.07 0 0 0-11.83 8h-2.7a13.15 13.15 0 0 0-12.6-8 14.1 14.1 0 0 0-11.84 8h-2.7a13.14 13.14 0 0 0-12.6-8 14.07 14.07 0 0 0-11.83 8h-1.7c-2.88-6.33-13.76-4.73-18-1.74-5.07 3.56-6.87 9.67-7.3 16-6.55 1.13-12.48 6-14.76 10.9a22.68 22.68 0 0 0-1.93 12.75 20.19 20.19 0 0 0-7.28 7.93 22.55 22.55 0 0 0-1.87 13.16 20.18 20.18 0 0 0-7.27 7.91 22.82 22.82 0 0 0-2 12.26 19.26 19.26 0 0 0-6.55 7.46c-3.65 8.17-1.88 12.12 1.7 15.33a17.19 17.19 0 0 0-3.31 20.88 15.9 15.9 0 0 0 7.32 7.1c5 2.24 11.3 1.7 16.66-.7a19.83 19.83 0 0 0 14.47 7.82zm-585.8-39.1c3.6-3.2 5.36-7.16 1.7-15.33a19.15 19.15 0 0 0-6.54-7.46 22.68 22.68 0 0 0-2-12.25 19.51 19.51 0 0 0-7.3-7.68 22.53 22.53 0 0 0-1.83-13.4 19.75 19.75 0 0 0-7.31-7.74 22.66 22.66 0 0 0-1.92-12.94c-2.25-4.83-8.1-9.7-14.58-10.88-.2-6.8-1.75-13.55-7.46-16a20.31 20.31 0 0 0-17.68 1.74h-.14a13.19 13.19 0 0 0-12.61-8 14.12 14.12 0 0 0-11.83 8h-2.7a13.18 13.18 0 0 0-12.6-8 14.14 14.14 0 0 0-11.84 8h-2.68a13.19 13.19 0 0 0-12.61-8 14.12 14.12 0 0 0-11.83 8h-2.7a13.18 13.18 0 0 0-12.6-8 14.14 14.14 0 0 0-11.84 8h-2.68a13.19 13.19 0 0 0-12.61-8 14.12 14.12 0 0 0-11.83 8h-2.7a13.18 13.18 0 0 0-12.6-8 14.14 14.14 0 0 0-11.84 8h-2.68a13.19 13.19 0 0 0-12.61-8 14.11 14.11 0 0 0-11.83 8h-2.7a13.18 13.18 0 0 0-12.6-8 14.14 14.14 0 0 0-11.84 8h-2.7a13.17 13.17 0 0 0-12.6-8 14.11 14.11 0 0 0-11.83 8h-1.7c-2.88-6.33-13.76-4.73-18-1.74-5.07 3.56-6.87 9.67-7.3 16-6.55 1.13-12.48 6-14.76 10.9a22.72 22.72 0 0 0-1.95 12.73 20.1 20.1 0 0 0-7.28 7.92 22.57 22.57 0 0 0-1.87 13.17 20.05 20.05 0 0 0-7.27 7.91 22.77 22.77 0 0 0-2 12.25 19.26 19.26 0 0 0-6.55 7.46c-3.65 8.17-1.88 12.13 1.7 15.33a17.2 17.2 0 0 0-3.31 20.89 15.93 15.93 0 0 0 7.32 7.09c5 2.24 11.3 1.7 16.66-.7a19.85 19.85 0 0 0 14.53 7.85c7.1.34 14.87-3.7 18.28-12.72h2.63a19.85 19.85 0 0 0 17.23 12.72c7.1.34 14.87-3.7 18.28-12.72h2.64a19.84 19.84 0 0 0 17.22 12.72c7.1.34 14.88-3.7 18.28-12.72h2.63a19.86 19.86 0 0 0 17.23 12.72c7.1.34 14.87-3.7 18.28-12.72h2.63a19.84 19.84 0 0 0 17.23 12.72c7.1.34 14.87-3.7 18.28-12.72h2.62a19.86 19.86 0 0 0 17.23 12.72c7.1.34 14.87-3.7 18.28-12.72h2.63a19.85 19.85 0 0 0 17.23 12.72c7.1.34 14.87-3.7 18.28-12.72h2.63a19.84 19.84 0 0 0 17.22 12.72c7.1.34 14.88-3.7 18.28-12.72h2.63a19.85 19.85 0 0 0 17.19 12.72 18.16 18.16 0 0 0 15-6.91c4.75 1.54 9.9 1.66 14.18-.25a15.9 15.9 0 0 0 7.33-7.09 17.21 17.21 0 0 0-3.31-20.89zm102.9-138.25a13.42 13.42 0 0 0 6.16 6c4.23 1.88 9.5 1.42 14-.6a16.68 16.68 0 0 0 12.22 6.6c6 .3 12.5-3.1 15.36-10.7h2.17a16.69 16.69 0 0 0 14.49 10.7c6 .3 12.5-3.1 15.36-10.7h2.2a16.69 16.69 0 0 0 14.49 10.7c6 .3 12.5-3.1 15.36-10.7h2.2a16.69 16.69 0 0 0 14.49 10.7c6 .3 12.5-3.1 15.36-10.7h2.2a16.69 16.69 0 0 0 14.49 10.7c6 .3 12.5-3.1 15.36-10.7h2.2a16.69 16.69 0 0 0 14.49 10.7c6 .3 12.5-3.1 15.36-10.7h2.2a16.69 16.69 0 0 0 14.49 10.7c6 .3 12.5-3.1 15.36-10.7h2.2a16.69 16.69 0 0 0 14.49 10.7c6 .3 12.5-3.1 15.36-10.7h2.2a16.7 16.7 0 0 0 14.49 10.7 15.25 15.25 0 0 0 12.61-5.81 16.89 16.89 0 0 0 11.92-.2 13.42 13.42 0 0 0 6.16-6 14.46 14.46 0 0 0-2.78-17.56c3-2.7 4.5-6 1.43-12.88a16 16 0 0 0-5.5-6.28 19.18 19.18 0 0 0-1.7-10.3 16.5 16.5 0 0 0-6.13-6.46 19 19 0 0 0-1.54-11.26 16.66 16.66 0 0 0-6.15-6.5 19 19 0 0 0-1.6-10.88 17.89 17.89 0 0 0-12.27-9.15c-.15-5.72-1.47-11.4-6.27-13.44a17 17 0 0 0-14.83 1.46h-.15a11.06 11.06 0 0 0-10.59-6.76 11.87 11.87 0 0 0-10 6.76h-2.26a11.07 11.07 0 0 0-10.6-6.76 11.89 11.89 0 0 0-10 6.76h-2.25a11.08 11.08 0 0 0-10.6-6.76 11.87 11.87 0 0 0-10 6.76h-2.26a11.06 11.06 0 0 0-10.59-6.76 11.86 11.86 0 0 0-9.95 6.76h-2.26a11.08 11.08 0 0 0-10.6-6.76 11.89 11.89 0 0 0-10 6.76h-2.26a11.06 11.06 0 0 0-10.59-6.76 11.87 11.87 0 0 0-9.95 6.76h-2.26a11.07 11.07 0 0 0-10.6-6.76 11.86 11.86 0 0 0-9.94 6.76h-2.26a11.08 11.08 0 0 0-10.6-6.76 11.87 11.87 0 0 0-9.95 6.76h-2.26a11.06 11.06 0 0 0-10.59-6.76 11.87 11.87 0 0 0-10 6.76h-1.43c-2.43-5.32-11.57-4-15.15-1.46-4.26 3-5.78 8.13-6.13 13.4a17.83 17.83 0 0 0-12.41 9.18 19.08 19.08 0 0 0-1.34 10.72 17 17 0 0 0-6.12 6.66 19.08 19.08 0 0 0-1.57 11.07 17 17 0 0 0-6.11 6.65 19.27 19.27 0 0 0-1.69 10.3 16 16 0 0 0-5.5 6.28c-3.08 6.86-1.6 10.2 1.43 12.88a14.46 14.46 0 0 0-2.78 17.56zm448.84 4.6h2.2a16.65 16.65 0 0 0 14.48 10.69c6 .3 12.5-3.1 15.37-10.7h2.2a16.65 16.65 0 0 0 14.48 10.69c6 .3 12.5-3.1 15.37-10.7h2.2a16.65 16.65 0 0 0 14.48 10.69c6 .3 12.5-3.1 15.37-10.7h2.2a16.65 16.65 0 0 0 14.48 10.69c6 .3 12.5-3.1 15.37-10.7h2.2a16.65 16.65 0 0 0 14.48 10.69c6 .3 12.5-3.1 15.37-10.7h2.2a16.65 16.65 0 0 0 14.48 10.69c6 .3 12.5-3.1 15.37-10.7h2.2a16.65 16.65 0 0 0 14.5 10.7c6 .3 12.5-3.1 15.37-10.7h2.2a16.65 16.65 0 0 0 14.42 10.69 15.26 15.26 0 0 0 12.62-5.8 16.84 16.84 0 0 0 11.92-.21 13.39 13.39 0 0 0 6.16-6 14.49 14.49 0 0 0-2.78-17.56c3-2.7 4.5-6 1.42-12.9a16 16 0 0 0-5.5-6.27 19.09 19.09 0 0 0-1.69-10.3 16.54 16.54 0 0 0-6.14-6.46 19 19 0 0 0-1.54-11.26 16.58 16.58 0 0 0-6.14-6.51 19.12 19.12 0 0 0-1.61-10.88 17.81 17.81 0 0 0-12.26-9.14c-.16-5.72-1.47-11.4-6.27-13.44a17 17 0 0 0-14.83 1.46h-.15a11.07 11.07 0 0 0-10.6-6.76 11.86 11.86 0 0 0-10 6.76h-2.26a11 11 0 0 0-10.59-6.76 11.86 11.86 0 0 0-9.95 6.76h-2.26a11.06 11.06 0 0 0-10.6-6.76 11.87 11.87 0 0 0-10 6.76h-2.25a11.07 11.07 0 0 0-10.6-6.76 11.86 11.86 0 0 0-10 6.76h-2.1a11 11 0 0 0-10.59-6.76 11.86 11.86 0 0 0-10 6.76h-2.26a11.06 11.06 0 0 0-10.6-6.76 11.87 11.87 0 0 0-10 6.76h-2.26a11 11 0 0 0-10.59-6.76 11.86 11.86 0 0 0-9.95 6.76h-2.26a11.06 11.06 0 0 0-10.6-6.76 11.84 11.84 0 0 0-9.94 6.76h-2.26a11.07 11.07 0 0 0-10.6-6.76 11.86 11.86 0 0 0-10 6.76h-1.43c-2.42-5.32-11.57-4-15.15-1.46-4.26 3-5.78 8.12-6.13 13.4a17.85 17.85 0 0 0-12.4 9.17 19 19 0 0 0-1.63 10.73 16.82 16.82 0 0 0-6.12 6.66 19 19 0 0 0-1.58 11.07 16.81 16.81 0 0 0-6.1 6.65 19.18 19.18 0 0 0-1.55 10.33 16.17 16.17 0 0 0-5.5 6.27c-3.07 6.87-1.58 10.2 1.43 12.9a14.46 14.46 0 0 0-2.78 17.56 13.39 13.39 0 0 0 6.16 6c4.23 1.88 9.5 1.43 14-.6a16.67 16.67 0 0 0 12.22 6.6c6 .27 12.53-3.13 15.4-10.73zm-511.24 1.37a13.46 13.46 0 0 0 6.16-6 14.49 14.49 0 0 0-2.78-17.56c3-2.7 4.5-6 1.42-12.88a16 16 0 0 0-5.5-6.28 19.09 19.09 0 0 0-1.69-10.3 16.54 16.54 0 0 0-6.14-6.46 19 19 0 0 0-1.54-11.26 16.56 16.56 0 0 0-6.14-6.5 19.1 19.1 0 0 0-1.61-10.88 17.85 17.85 0 0 0-12.26-9.15c-.16-5.72-1.47-11.4-6.27-13.44a17 17 0 0 0-14.83 1.46h-.15a11.08 11.08 0 0 0-10.6-6.76 11.87 11.87 0 0 0-10 6.76h-2.26a11.06 11.06 0 0 0-10.5-6.73 11.87 11.87 0 0 0-10 6.76h-2.26a11.07 11.07 0 0 0-10.6-6.76 11.89 11.89 0 0 0-9.95 6.76h-2.2a11.08 11.08 0 0 0-10.6-6.76 11.87 11.87 0 0 0-10 6.76h-2.26a11.06 11.06 0 0 0-10.59-6.76 11.87 11.87 0 0 0-9.95 6.76h-2.26a11.07 11.07 0 0 0-10.6-6.76 11.89 11.89 0 0 0-10 6.76h-2.25a11.08 11.08 0 0 0-10.6-6.76 11.87 11.87 0 0 0-10 6.76h-2.26a11.07 11.07 0 0 0-10.6-6.76 11.86 11.86 0 0 0-9.94 6.76h-2.26a11.08 11.08 0 0 0-10.6-6.76 11.89 11.89 0 0 0-10 6.76h-1.23c-2.42-5.32-11.57-4-15.15-1.46-4.26 3-5.78 8.13-6.13 13.4a17.84 17.84 0 0 0-12.4 9.18 19 19 0 0 0-1.68 10.72 16.88 16.88 0 0 0-6.12 6.66 19 19 0 0 0-1.58 11.07 16.94 16.94 0 0 0-6.1 6.65 19.18 19.18 0 0 0-1.7 10.3 16.13 16.13 0 0 0-5.5 6.28c-3.07 6.86-1.58 10.2 1.43 12.88a14.46 14.46 0 0 0-2.78 17.56 13.46 13.46 0 0 0 6.16 6c4.23 1.88 9.5 1.42 14-.6a16.7 16.7 0 0 0 12.22 6.6c6 .3 12.5-3.1 15.37-10.7h2.2a16.68 16.68 0 0 0 14.48 10.7c6 .3 12.5-3.1 15.37-10.7h2.2a16.68 16.68 0 0 0 14.48 10.7c6 .3 12.5-3.1 15.37-10.7h2.2a16.68 16.68 0 0 0 14.48 10.7c6 .3 12.5-3.1 15.37-10.7h2.2a16.68 16.68 0 0 0 14.48 10.7c6 .3 12.5-3.1 15.37-10.7h2.2a16.68 16.68 0 0 0 14.51 10.67c6 .3 12.5-3.1 15.37-10.7h2.2a16.68 16.68 0 0 0 14.42 10.7c6 .3 12.5-3.1 15.37-10.7h2.2a16.68 16.68 0 0 0 14.48 10.7c6 .3 12.5-3.1 15.37-10.7h2.2a16.68 16.68 0 0 0 14.48 10.7 15.27 15.27 0 0 0 12.62-5.81 16.9 16.9 0 0 0 11.95-.2z"/></g></g><defs ><path id="B" d="M864.284 466.087a16.47 16.47 0 0 1 15.28-14.54c6.84-.33 14.45 4.24 16.18 14.54"/><path id="C" d="M958.664 466.087a16.47 16.47 0 0 1 15.28-14.54c6.83-.33 14.45 4.24 16.18 14.54"/><path id="D" d="M811.224 477.807c-10.38-3.22-21.74 4.55-25.32 12.2-3.94 8.43-3.86 20.12 4.55 27.07"/><path id="E" d="M769.064 575.457c-13.38-2.4-23.58 14.2-16.2 27.85a18.48 18.48 0 0 0 8.5 8.23c8.37 3.72 19.68.83 26.6-5.55"/><path id="F" d="M1177.514 575.457c13.37-2.4 23.58 14.2 16.2 27.85a18.53 18.53 0 0 1-8.5 8.23c-8.37 3.72-19.7.83-26.6-5.55"/><path id="G" d="M776.054 599.337c1.92 13.55 12.76 20.08 21.48 20.5 9.6.46 20.32-6 22.75-20.5"/><path id="H" d="M952.964 599.337c1.93 13.55 12.77 20.08 21.5 20.5 9.6.46 20.3-6 22.74-20.5"/><path id="I" d="M881.704 282.867a14.22 14.22 0 0 1 13.18-12.54c5.9-.28 12.46 3.66 14 12.54"/><path id="J" d="M805.624 397.767a20 20 0 0 0 18.53 17.67c8.28.4 17.5-5.15 19.6-17.67"/><path id="K" d="M843.764 397.767a20 20 0 0 0 18.52 17.67c8.3.4 17.52-5.15 19.62-17.67"/><path id="L" d="M881.904 397.767a20 20 0 0 0 18.52 17.67c8.28.4 17.52-5.15 19.6-17.67"/><path id="M" d="M1358.814 286.827a14.22 14.22 0 0 1 13.18-12.54c5.9-.28 12.46 3.65 14 12.54"/><path id="N" d="M1385.944 286.827a14.21 14.21 0 0 1 13.17-12.54c5.9-.28 12.46 3.65 13.95 12.54"/><path id="O" d="M461.824 282.867a14.21 14.21 0 0 1 13.17-12.54c5.9-.28 12.46 3.66 14 12.54"/><path id="P" d="M899.084 122.587a12 12 0 0 1 11.07-10.55c5-.23 10.48 3.08 11.73 10.55"/><path id="Q" d="M990.294 122.587a12 12 0 0 1 11.08-10.55c5-.23 10.47 3.08 11.72 10.55"/><path id="R" d="M835.124 219.177a16.8 16.8 0 0 0 15.57 14.85c7 .33 14.72-4.33 16.5-14.85"/><path id="S" d="M1522.804 226.647h-289.3c-8.78 0-13.6-5.4-10.87-11.85l36.48-86.1c1.55-3.67 7.94-6.57 14.3-6.57h209.5c6.36 0 12.74 2.9 14.3 6.57l36.48 86.1c2.73 6.46-2.1 11.85-10.88 11.85z"/><path id="T" d="M1253.984 151.787c-7.53-2.33-15.76 3.3-18.35 8.85-2.86 6.1-2.8 14.58 3.3 19.62"/><path id="U" d="M1236.224 222.497a16.8 16.8 0 0 0 15.57 14.85c7 .34 14.73-4.33 16.5-14.85"/><path id="V" d="M459.324 219.177a16.8 16.8 0 0 0 15.57 14.85c7 .33 14.73-4.33 16.5-14.85"/><path id="W" d="M1028.904 226.647c16.67 0 30.2 29.42 30.2 65.7h0c0 36.3-13.52 65.7-30.2 65.7h0c-16.67 0-30.18-29.42-30.18-65.7h0c0-36.3 13.5-65.7 30.18-65.7h0"/></defs></svg>