<svg id="Layer_1" data-name="Layer 1" xmlns="http://www.w3.org/2000/svg" viewBox="0 0 2000 2000"><g id="layer2"><path id="rect904" d="M31.73,647.2H1968.27V1818.69H31.73Z" style="fill:#e6e7e8;stroke:#3a3632;stroke-linecap:round;stroke-linejoin:round;stroke-width:20px;isolation:isolate;opacity:0.991999983787537"/><path id="rect921" d="M169.2,866.36H1253v727.2H169.2Z" style="fill:#a6a8ab;stroke:#3a3632;stroke-linecap:round;stroke-linejoin:round;stroke-width:20px;isolation:isolate;opacity:0.991999983787537"/><path id="rect923" d="M1571.8,866.36h261a33.79,33.79,0,0,1,33.87,33.87v386.51a33.8,33.8,0,0,1-33.87,33.87h-261a33.79,33.79,0,0,1-33.87-33.87V900.23a33.79,33.79,0,0,1,33.87-33.87Z" style="fill:#a6a8ab;stroke:#3a3632;stroke-linecap:round;stroke-linejoin:round;stroke-width:20px;isolation:isolate;opacity:0.991999983787537"/><path id="rect978" d="M1557.85,1436.16h286.89a23.86,23.86,0,0,1,23.91,23.91v109.58a23.86,23.86,0,0,1-23.91,23.91H1557.85a23.87,23.87,0,0,1-23.91-23.91V1460.07a23.87,23.87,0,0,1,23.91-23.91Z" style="fill:#a6a8ab;stroke:#3a3632;stroke-linecap:round;stroke-linejoin:round;stroke-width:20px;isolation:isolate;opacity:0.991999983787537"/><path id="rect886" d="M1406.43,647.2v0Z" style="fill:#e6e7e8;stroke:#3a3632;stroke-linecap:round;stroke-linejoin:round;stroke-width:20px;isolation:isolate;opacity:0.991999983787537"/><line x1="1541.62" y1="979.92" x2="1862.97" y2="979.92" style="fill:none;stroke:#3a3632;stroke-linecap:square;stroke-linejoin:round;stroke-width:20px"/><line x1="1541.62" y1="1093.48" x2="1862.97" y2="1093.48" style="fill:none;stroke:#3a3632;stroke-linecap:square;stroke-linejoin:round;stroke-width:20px"/><line x1="1541.62" y1="1207.05" x2="1862.97" y2="1207.05" style="fill:none;stroke:#3a3632;stroke-linecap:square;stroke-linejoin:round;stroke-width:20px"/><line x1="1647.5" y1="870.32" x2="1647.5" y2="1316.64" style="fill:none;stroke:#3a3632;stroke-linecap:square;stroke-linejoin:round;stroke-width:20px"/><line x1="1757.08" y1="870.32" x2="1757.08" y2="1316.64" style="fill:none;stroke:#3a3632;stroke-linecap:square;stroke-linejoin:round;stroke-width:20px"/></g><path d="M558.46,302.19a85,85,0,0,1,32.71,34.21q11.76,22,11.76,50.25,0,29.09-13,52A93.09,93.09,0,0,1,554,474.32q-22.89,12.82-52,12.83-57.31,0-88.31-38.71t-31-110.54q0-49.18,14.54-85.32t41.7-55.38Q466.08,178,502.86,178a145.2,145.2,0,0,1,49,8.77q24.58,8.78,41.7,23.74a32.33,32.33,0,0,1,7.91,9.19,23.34,23.34,0,0,1,2.35,10.9,24.76,24.76,0,0,1-5.35,16q-5.36,6.63-12.61,6.63a22,22,0,0,1-8.13-1.5,60.71,60.71,0,0,1-9.41-4.91Q532.8,222,505,222q-31.22,0-49.18,28.87t-18.82,81a73.46,73.46,0,0,1,29.51-30.58Q486.18,290,510.56,290,537.5,290,558.46,302.19ZM536.65,428.34q14.11-15.16,14.11-40t-14.11-39.77q-14.11-15-37.64-15-24,0-38.7,15.18t-14.75,39.56q0,24.81,14.75,40T499,443.53Q522.53,443.53,536.65,428.34Z" style="fill:#3a3632"/><path d="M667.08,447.59Q638.85,408,638.85,332.34q0-75.27,28.23-114.83T748.76,178q53.44,0,81.68,39.56t28.23,114.83q0,75.27-28.23,115t-81.68,39.78Q695.3,487.15,667.08,447.59Zm124-30.37q13.24-26.72,13.25-84.88,0-58.59-13.25-84.89t-42.34-26.3q-29.09,0-42.34,26.51t-13.26,84.68q0,58.16,13.26,84.88T748.76,444Q777.83,444,791.1,417.22Z" style="fill:#3a3632"/><path d="M1021.17,468.33q-13.7-8.11-13.69-23.09,0-8.55,4.71-13.9a14.79,14.79,0,0,1,11.54-5.35q7.27,0,20.1,6.84a186.81,186.81,0,0,0,25,9.84q11.33,3.43,28.87,3.42,18,0,28-6t10-16.67q0-7.28-4.06-11.55T1117.18,404q-10.48-3.63-31.86-8.34-38.07-7.69-54.53-21.81t-16.46-38.92a56.19,56.19,0,0,1,11.11-34q11.13-15.16,30.58-23.52t44.26-8.34a132.79,132.79,0,0,1,34.64,4.49,105.59,105.59,0,0,1,29.94,13.05q13.68,8.55,13.68,22.66a22,22,0,0,1-4.7,14.33,14.38,14.38,0,0,1-11.55,5.77,23.13,23.13,0,0,1-9.19-1.92,123.43,123.43,0,0,1-11.33-5.78,181.31,181.31,0,0,0-21.39-9.62q-9-3.21-22.23-3.21-15.84,0-25,6.42a20.25,20.25,0,0,0-9.2,17.53q0,10.69,9.41,16.25t36.35,11.12q28.65,6,44.91,13.69t23.3,19.24q7.06,11.55,7.06,29.51,0,29.08-24.16,46.61t-64.37,17.54Q1049.82,486.72,1021.17,468.33Z" style="fill:#3a3632"/><path d="M1405.41,431.55q4.48,5.56,4.49,15,0,13.26-15.83,22.24a142.46,142.46,0,0,1-32.92,13,136.22,136.22,0,0,1-35.07,4.92q-50.47,0-80-29.08t-29.51-79.55q0-32.07,12.83-56.87a93.28,93.28,0,0,1,36.14-38.49q23.29-13.68,52.81-13.69,28.23,0,49.18,12.41a84.1,84.1,0,0,1,32.5,35.06q11.55,22.68,11.55,53.46,0,18.39-16.25,18.39H1269.2q2.57,29.5,16.68,43.4t41,13.9a77.66,77.66,0,0,0,24.17-3.42,236.88,236.88,0,0,0,23.73-9.41q12.83-6.82,18.82-6.84A14.43,14.43,0,0,1,1405.41,431.55Zm-120.6-111.19q-13.05,13.69-15.61,39.35h96.65q-.86-26.08-12.83-39.56t-33.36-13.47Q1297.85,306.68,1284.81,320.36Z" style="fill:#3a3632"/><path d="M1493.07,473.46a90.3,90.3,0,0,1-36.56-37.63q-12.83-24.37-12.83-56.88t13.47-57.52a95.2,95.2,0,0,1,37.85-38.7q24.38-13.68,56-13.69a124.57,124.57,0,0,1,33.57,4.71,110.73,110.73,0,0,1,29.72,12.83q13.68,9,13.69,22.66,0,9.42-4.49,15.18a14.21,14.21,0,0,1-11.76,5.78,25.47,25.47,0,0,1-9.84-2.14,86.1,86.1,0,0,1-10.26-5.13,116.12,116.12,0,0,0-18-8.77A55.77,55.77,0,0,0,1554,311q-26.52,0-40.84,17.32t-14.32,49.82q0,32.09,14.32,49.4T1554,444.81a52.69,52.69,0,0,0,19-3.21,161.55,161.55,0,0,0,18.61-8.77,84.27,84.27,0,0,1,11.11-5.77,24.74,24.74,0,0,1,9.41-1.92q6.84,0,11.55,6t4.7,15a24.13,24.13,0,0,1-3.2,12.62q-3.21,5.35-10.48,9.62A112.08,112.08,0,0,1,1584,481.8a132.82,132.82,0,0,1-35.92,4.92Q1516.8,486.72,1493.07,473.46Z" style="fill:#3a3632"/><path d="M1037.74,1311.9c0-16.75-4.11-35.46-15.25-51-22.44-31.24-64.3-45.88-108-37.85l-6.7,1.23v-55.58c0-43.91-91.78-63-205-63s-205,19-205,63v337.14c0,43.91,91.78,63,205,63s205-19,205-63v-37.22C941.05,1455.25,1037.74,1407.74,1037.74,1311.9Zm-130,99.31V1275.92a124.9,124.9,0,0,1,19.82-5.48c23.37-4.7,50.53,4.15,59.84,15.71,8.8,10.95,10.13,23.47,10.13,30.9C997.53,1366.59,941.69,1398.61,907.74,1411.21Z" style="fill:#fff;stroke:#3a3632;stroke-miterlimit:10;stroke-width:20px"/><path d="M524.15,1166.66c28.08,20.24,92.78,37,178.61,37s154.65-18.48,178.6-37" style="fill:none;stroke:#3a3632;stroke-linecap:round;stroke-miterlimit:10;stroke-width:20px"/></svg>