<?xml version="1.0" encoding="UTF-8"?><svg id="a" xmlns="http://www.w3.org/2000/svg" viewBox="0 0 2000 2000"><g id="b"><path id="c" d="M31.73,647.2H1968.27V1818.69H31.73V647.2Z" style="fill:#e6e7e8; isolation:isolate; opacity:.99; stroke:#3a3632; stroke-linecap:round; stroke-linejoin:round; stroke-width:20px;"/><path id="d" d="M169.2,866.36H1253.03v727.2H169.2V866.36Z" style="fill:#a6a8ab; isolation:isolate; opacity:.99; stroke:#3a3632; stroke-linecap:round; stroke-linejoin:round; stroke-width:20px;"/><path id="e" d="M1571.8,866.36h260.99c18.76,0,33.87,15.11,33.87,33.87v386.51c0,18.76-15.11,33.87-33.87,33.87h-260.99c-18.76,0-33.87-15.11-33.87-33.87v-386.51c0-18.76,15.11-33.87,33.87-33.87h0Z" style="fill:#a6a8ab; isolation:isolate; opacity:.99; stroke:#3a3632; stroke-linecap:round; stroke-linejoin:round; stroke-width:20px;"/><path id="f" d="M1557.85,1436.16h286.89c13.24,0,23.91,10.66,23.91,23.91v109.58c0,13.25-10.66,23.91-23.91,23.91h-286.89c-13.25,0-23.91-10.66-23.91-23.91v-109.58c0-13.25,10.66-23.91,23.91-23.91h0Z" style="fill:#a6a8ab; isolation:isolate; opacity:.99; stroke:#3a3632; stroke-linecap:round; stroke-linejoin:round; stroke-width:20px;"/><path id="g" d="M1406.43,647.2v0Z" style="fill:#e6e7e8; isolation:isolate; opacity:.99; stroke:#3a3632; stroke-linecap:round; stroke-linejoin:round; stroke-width:20px;"/><g><line x1="1541.62" y1="979.92" x2="1862.97" y2="979.92" style="fill:none; stroke:#3a3632; stroke-linecap:square; stroke-linejoin:round; stroke-width:20px;"/><line x1="1541.62" y1="1093.48" x2="1862.97" y2="1093.48" style="fill:none; stroke:#3a3632; stroke-linecap:square; stroke-linejoin:round; stroke-width:20px;"/><line x1="1541.62" y1="1207.05" x2="1862.97" y2="1207.05" style="fill:none; stroke:#3a3632; stroke-linecap:square; stroke-linejoin:round; stroke-width:20px;"/><line x1="1647.5" y1="870.32" x2="1647.5" y2="1316.64" style="fill:none; stroke:#3a3632; stroke-linecap:square; stroke-linejoin:round; stroke-width:20px;"/><line x1="1757.08" y1="870.32" x2="1757.08" y2="1316.64" style="fill:none; stroke:#3a3632; stroke-linecap:square; stroke-linejoin:round; stroke-width:20px;"/></g></g><g><path d="M418.49,466.54c0,12.72-7.2,19.08-21.6,19.08h-121.68c-14.64,0-21.96-6.36-21.96-19.08s7.32-18.36,21.96-18.36h37.44v-164.16l-34.56,21.24c-3.36,1.92-6.36,2.88-9,2.88-5.04,0-9.3-2.16-12.78-6.48-3.48-4.32-5.22-9.12-5.22-14.4,0-6.96,3.12-12.36,9.36-16.2l55.8-34.56c7.2-4.32,14.04-6.48,20.52-6.48s12.12,2.04,16.2,6.12c4.08,4.08,6.12,9.72,6.12,16.92v195.12h37.8c14.4,0,21.6,6.12,21.6,18.36Z" style="fill:#3a3632;"/><path d="M682.01,376.78c6.8,7.6,10.2,19.88,10.2,36.84v59.04c0,4.64-1.4,8.2-4.2,10.68-2.8,2.48-6.44,3.72-10.92,3.72s-7.88-1.24-10.68-3.72c-2.8-2.48-4.2-6.04-4.2-10.68v-59.04c0-8.8-1.56-15.08-4.68-18.84-3.12-3.76-7.88-5.64-14.28-5.64-7.84,0-14.08,2.68-18.72,8.04-4.64,5.36-6.96,12.68-6.96,21.96v53.52c0,4.64-1.4,8.2-4.2,10.68-2.8,2.48-6.36,3.72-10.68,3.72s-7.92-1.24-10.8-3.72c-2.88-2.48-4.32-6.04-4.32-10.68v-59.04c0-8.8-1.56-15.08-4.68-18.84-3.12-3.76-7.88-5.64-14.28-5.64-7.84,0-14.04,2.68-18.6,8.04-4.56,5.36-6.84,12.68-6.84,21.96v53.52c0,4.64-1.44,8.2-4.32,10.68-2.88,2.48-6.48,3.72-10.8,3.72s-7.88-1.24-10.68-3.72c-2.8-2.48-4.2-6.04-4.2-10.68v-92.88c0-4.48,1.44-7.92,4.32-10.32,2.88-2.4,6.48-3.6,10.8-3.6s7.56,1.16,10.2,3.48c2.64,2.32,3.96,5.64,3.96,9.96v5.76c3.68-6.4,8.6-11.28,14.76-14.64,6.16-3.36,13.24-5.04,21.24-5.04,17.6,0,29.36,7.36,35.28,22.08,3.52-6.72,8.72-12.08,15.6-16.08,6.88-4,14.64-6,23.28-6,12.8,0,22.6,3.8,29.4,11.4Z" style="fill:#3a3632;"/><path d="M724.61,340.06c-3.2-2.96-4.8-6.84-4.8-11.64s1.6-8.64,4.8-11.52c3.2-2.88,7.52-4.32,12.96-4.32s9.56,1.44,12.84,4.32c3.28,2.88,4.92,6.72,4.92,11.52s-1.6,8.68-4.8,11.64c-3.2,2.96-7.52,4.44-12.96,4.44s-9.76-1.48-12.96-4.44Zm2.28,143.28c-2.8-2.48-4.2-6.04-4.2-10.68v-92.64c0-4.64,1.4-8.16,4.2-10.56,2.8-2.4,6.36-3.6,10.68-3.6s7.92,1.2,10.8,3.6c2.88,2.4,4.32,5.92,4.32,10.56v92.64c0,4.64-1.44,8.2-4.32,10.68-2.88,2.48-6.48,3.72-10.8,3.72s-7.88-1.24-10.68-3.72Z" style="fill:#3a3632;"/><path d="M883.25,377.38c6.88,8,10.32,20.08,10.32,36.24v59.04c0,4.48-1.32,8-3.96,10.56-2.64,2.56-6.28,3.84-10.92,3.84s-8.32-1.28-11.04-3.84c-2.72-2.56-4.08-6.08-4.08-10.56v-57.36c0-9.12-1.72-15.76-5.16-19.92-3.44-4.16-8.84-6.24-16.2-6.24-8.64,0-15.56,2.72-20.76,8.16-5.2,5.44-7.8,12.72-7.8,21.84v53.52c0,4.48-1.36,8-4.08,10.56-2.72,2.56-6.4,3.84-11.04,3.84s-8.28-1.28-10.92-3.84c-2.64-2.56-3.96-6.08-3.96-10.56v-92.88c0-4.16,1.36-7.52,4.08-10.08,2.72-2.56,6.4-3.84,11.04-3.84,4.16,0,7.56,1.24,10.2,3.72,2.64,2.48,3.96,5.72,3.96,9.72v6.48c4-6.56,9.36-11.6,16.08-15.12,6.72-3.52,14.32-5.28,22.8-5.28,14.08,0,24.56,4,31.44,12Z" style="fill:#3a3632;"/><path d="M1155.88,413.62c3.2,2.78,4.8,6.72,4.8,11.84,0,10.67-6.4,16-19.2,16h-16.32v25.28c0,6.62-1.87,11.74-5.6,15.36-3.74,3.62-8.59,5.44-14.56,5.44s-10.83-1.81-14.56-5.44c-3.73-3.62-5.6-8.75-5.6-15.36v-25.28h-83.84c-5.76,0-10.24-1.65-13.44-4.96-3.2-3.3-4.8-7.41-4.8-12.32s1.71-10.02,5.12-14.72l98.88-142.08c2.13-2.98,4.8-5.28,8-6.88,3.2-1.6,6.5-2.4,9.92-2.4,5.54,0,10.34,1.81,14.4,5.44,4.05,3.63,6.08,8.75,6.08,15.36v130.56h16.32c6.4,0,11.2,1.39,14.4,4.16Zm-130.56-4.16h59.52v-86.08l-59.52,86.08Z" style="fill:#3a3632;"/><path d="M1310.6,350.42c10.77,6.08,19.15,14.56,25.12,25.44,5.97,10.88,8.96,23.36,8.96,37.44s-3.36,27.74-10.08,39.04c-6.72,11.31-16.21,20.11-28.48,26.4-12.27,6.29-26.4,9.44-42.4,9.44-13.23,0-26.19-2.19-38.88-6.56-12.7-4.37-23.52-10.29-32.48-17.76-4.91-4.27-7.36-9.28-7.36-15.04,0-4.69,1.33-8.69,4-12,2.67-3.31,5.81-4.96,9.44-4.96,2.13,0,4.16,.38,6.08,1.12,1.92,.75,4.16,1.97,6.72,3.68,8.53,5.97,16.85,10.56,24.96,13.76,8.1,3.2,16.74,4.8,25.92,4.8,14.08,0,24.85-3.52,32.32-10.56,7.47-7.04,11.2-17.07,11.2-30.08s-3.79-22.56-11.36-29.92c-7.58-7.36-17.98-11.04-31.2-11.04-8.32,0-15.74,1.17-22.24,3.52-6.51,2.35-13.17,6.3-20,11.84-4.05,2.77-8.21,4.16-12.48,4.16s-7.89-1.28-10.88-3.84c-2.99-2.56-4.48-5.97-4.48-10.24v-99.84c0-5.97,1.71-10.67,5.12-14.08,3.41-3.41,8.21-5.12,14.4-5.12h106.56c12.8,0,19.2,5.33,19.2,16s-6.4,16-19.2,16h-85.76v60.8c10.88-7.68,24.21-11.52,40-11.52,14.08,0,26.51,3.04,37.28,9.12Z" style="fill:#3a3632;"/><path d="M1438.35,477.22c-5.12-3.04-7.68-7.36-7.68-12.96,0-3.2,.88-5.8,2.64-7.8,1.76-2,3.92-3,6.48-3,2.72,0,6.48,1.28,11.28,3.84,5.12,2.4,9.8,4.24,14.04,5.52,4.24,1.28,9.64,1.92,16.2,1.92s11.96-1.12,15.72-3.36c3.76-2.24,5.64-5.36,5.64-9.36,0-2.72-.76-4.88-2.28-6.48-1.52-1.6-4.24-3.08-8.16-4.44-3.92-1.36-9.88-2.92-17.88-4.68-14.24-2.88-24.44-6.96-30.6-12.24-6.16-5.28-9.24-12.56-9.24-21.84,0-7.04,2.08-13.4,6.24-19.08,4.16-5.68,9.88-10.08,17.16-13.2,7.28-3.12,15.56-4.68,24.84-4.68,6.72,0,13.2,.84,19.44,2.52,6.24,1.68,11.84,4.12,16.8,7.32,5.12,3.2,7.68,7.44,7.68,12.72,0,3.2-.88,5.88-2.64,8.04-1.76,2.16-3.92,3.24-6.48,3.24-1.76,0-3.48-.36-5.16-1.08-1.68-.72-3.8-1.8-6.36-3.24-4.64-2.4-8.64-4.2-12-5.4-3.36-1.2-7.52-1.8-12.48-1.8-5.92,0-10.6,1.2-14.04,3.6-3.44,2.4-5.16,5.68-5.16,9.84s1.76,7.04,5.28,9.12c3.52,2.08,10.32,4.16,20.4,6.24,10.72,2.24,19.12,4.8,25.2,7.68,6.08,2.88,10.44,6.48,13.08,10.8,2.64,4.32,3.96,9.84,3.96,16.56,0,10.88-4.52,19.6-13.56,26.16-9.04,6.56-21.08,9.84-36.12,9.84-17.44,0-31.52-3.44-42.24-10.32Z" style="fill:#3a3632;"/><path d="M1653.99,456.58c1.68,2.08,2.52,4.88,2.52,8.4,0,4.96-2.96,9.12-8.88,12.48-5.44,3.04-11.6,5.48-18.48,7.32-6.88,1.84-13.44,2.76-19.68,2.76-18.88,0-33.84-5.44-44.88-16.32-11.04-10.88-16.56-25.76-16.56-44.64,0-12,2.4-22.64,7.2-31.92,4.8-9.28,11.56-16.48,20.28-21.6,8.72-5.12,18.6-7.68,29.64-7.68s19.76,2.32,27.6,6.96c7.84,4.64,13.92,11.2,18.24,19.68,4.32,8.48,6.48,18.48,6.48,30,0,6.88-3.04,10.32-9.12,10.32h-70.8c.96,11.04,4.08,19.16,9.36,24.36,5.28,5.2,12.96,7.8,23.04,7.8,5.12,0,9.64-.64,13.56-1.92,3.92-1.28,8.36-3.04,13.32-5.28,4.8-2.56,8.32-3.84,10.56-3.84,2.72,0,4.92,1.04,6.6,3.12Zm-67.68-62.4c-4.88,5.12-7.8,12.48-8.76,22.08h54.24c-.32-9.76-2.72-17.16-7.2-22.2-4.48-5.04-10.72-7.56-18.72-7.56s-14.68,2.56-19.56,7.68Z" style="fill:#3a3632;"/><path d="M1703.19,480.1c-8.88-4.96-15.72-12-20.52-21.12s-7.2-19.76-7.2-31.92,2.52-22.92,7.56-32.28c5.04-9.36,12.12-16.6,21.24-21.72,9.12-5.12,19.6-7.68,31.44-7.68,6.24,0,12.52,.88,18.84,2.64,6.32,1.76,11.88,4.16,16.68,7.2,5.12,3.36,7.68,7.6,7.68,12.72,0,3.52-.84,6.36-2.52,8.52-1.68,2.16-3.88,3.24-6.6,3.24-1.76,0-3.6-.4-5.52-1.2-1.92-.8-3.84-1.76-5.76-2.88-3.52-2.08-6.88-3.72-10.08-4.92-3.2-1.2-6.88-1.8-11.04-1.8-9.92,0-17.56,3.24-22.92,9.72-5.36,6.48-8.04,15.8-8.04,27.96s2.68,21.24,8.04,27.72c5.36,6.48,13,9.72,22.92,9.72,4,0,7.56-.6,10.68-1.8,3.12-1.2,6.6-2.84,10.44-4.92,2.4-1.44,4.48-2.52,6.24-3.24,1.76-.72,3.52-1.08,5.28-1.08,2.56,0,4.72,1.12,6.48,3.36,1.76,2.24,2.64,5.04,2.64,8.4,0,2.72-.6,5.08-1.8,7.08-1.2,2-3.16,3.8-5.88,5.4-4.96,3.2-10.72,5.72-17.28,7.56-6.56,1.84-13.28,2.76-20.16,2.76-11.68,0-21.96-2.48-30.84-7.44Z" style="fill:#3a3632;"/></g><g><path d="M1037.74,1311.9c0-16.75-4.11-35.47-15.25-50.97-22.44-31.23-64.3-45.87-108.05-37.85l-6.7,1.23v-55.58c0-43.91-91.77-62.96-204.98-62.96s-204.98,19.05-204.98,62.96v337.14c0,43.91,91.77,62.96,204.98,62.96s204.98-19.05,204.98-62.96v-37.22c33.31-13.41,130-60.91,130-156.75Zm-130,99.31v-135.29c4.56-1.73,10.97-3.69,19.82-5.47,23.36-4.7,50.52,4.15,59.83,15.71,8.81,10.94,10.13,23.46,10.13,30.9,0,49.54-55.84,81.56-89.79,94.16Z" style="fill:#fff; stroke:#3a3632; stroke-miterlimit:10; stroke-width:20px;"/><path d="M524.15,1166.66c28.08,20.24,92.78,36.96,178.6,36.96s154.65-18.48,178.6-36.96" style="fill:none; stroke:#3a3632; stroke-linecap:round; stroke-miterlimit:10; stroke-width:20px;"/></g></svg>
