<svg xmlns="http://www.w3.org/2000/svg" height="1660.15" width="1960.54"  xmlns:v="https://vecta.io/nano"><g stroke="#231f20" stroke-width="24" stroke-linejoin="round"><path d="M12 476.66h1936.54v1171.5H12z" opacity=".992" fill="#fff"/><path d="M149.47 695.82h1083.8v727.2H149.47z" opacity=".992" fill="#a7a9ac"/><g fill="#fff"><path d="M1552.07 695.82h261a33.79 33.79 0 0 1 33.87 33.87v386.5a33.8 33.8 0 0 1-33.87 33.87h-261a33.79 33.79 0 0 1-33.87-33.87V729.7a33.79 33.79 0 0 1 33.87-33.87zm-13.95 569.8H1825a23.85 23.85 0 0 1 23.91 23.91v109.58a23.86 23.86 0 0 1-23.91 23.91h-286.9a23.87 23.87 0 0 1-23.91-23.91v-109.58a23.86 23.86 0 0 1 23.91-23.91z" opacity=".99"/><path d="M1386.7 476.66z" opacity=".992"/></g><g fill="none" stroke-linecap="square"><path d="M1521.9 809.38h321.35M1521.9 922.94h321.35M1521.9 1036.5h321.35"/><path d="M1627.77 699.78v446.32m109.58-446.32v446.32"/></g></g><path d="M380.14 154.87q14.2-16.92 30.9-25.06 16.7-8.14 37.38-8.15a89.89 89.89 0 0 1 36.65 7.42 88.18 88.18 0 0 1 29.44 21.09 96.27 96.27 0 0 1 19.52 32.22 110.7 110.7 0 0 1 6.89 38.84q0 29.44-13.46 53.45a95.84 95.84 0 0 1-37.59 37.49q-24.12 13.5-54.6 13.5-35.07 0-60.55-17.13-25.48-17.13-38.95-50.63-13.5-33.53-13.5-81.96 0-39.48 8.14-70.58 8.14-31.1 23.4-51.58a99.56 99.56 0 0 1 37-30.91q21.7-10.44 49.5-10.44 26.72 0 47.08 10.44 20.36 10.44 30.7 25.9 10.34 15.45 10.33 29.65 0 8.56-6.47 15.56a21.48 21.48 0 0 1-16.49 7 26.91 26.91 0 0 1-16.29-5.53 32 32 0 0 1-11.07-15.35 43.72 43.72 0 0 0-15.24-20.15 40 40 0 0 0-24.24-7.58 43.41 43.41 0 0 0-22 6.37 57.33 57.33 0 0 0-18.48 17.22q-15.27 22.1-17.98 78.9zm56.38 129.67q21.1 0 34.87-17.23 13.78-17.23 13.78-45.2 0-19-6.47-32.68-6.47-13.68-17.75-20.88a45.25 45.25 0 0 0-24.85-7.2 48.42 48.42 0 0 0-24.75 6.89 51.06 51.06 0 0 0-19 19.94q-7.2 13.05-7.2 30.6 0 28.2 14.62 47 14.62 18.8 36.75 18.78zm354.15-114.22q0 34.24-4.18 58.88a137.13 137.13 0 0 1-15.45 44.69q-14.2 24.64-36.75 38-22.54 13.36-50.12 13.37-31.74 0-56.9-18-25.16-18-37.9-49.7a183.79 183.79 0 0 1-9.5-38.32 318.37 318.37 0 0 1-3-45.41 436 436 0 0 1 3.34-56.8q3.35-25.26 10.44-43.43 12.3-30.08 35.8-45.84Q649.96 12 682.53 12q21.5 0 39 7a89.2 89.2 0 0 1 30.8 20.47q13.26 13.45 22.45 33.3 15.88 34.5 15.9 97.55zm-57.22-4.18q0-38.2-4.6-62.54-4.6-24.33-15.46-36.75-10.84-12.46-30.06-12.46-27.57 0-38.32 27.77-10.75 27.77-10.75 85.65 0 39.27 4.6 64.32 4.6 25.05 15.4 37.9 10.86 12.84 29.44 12.84 19.2 0 30.07-13.37 10.86-13.37 15.3-38.2 4.38-24.84 4.38-65.15zm397.38 85q0 23.6-11.5 40.4-11.5 16.8-33.93 25.48-22.46 8.65-54.6 8.67-30.7 0-52.62-9.4-21.93-9.4-32.36-23.5-10.45-14.1-10.44-28.3a21.92 21.92 0 0 1 6.68-16.1q6.68-6.67 16.9-6.68 9 0 13.78 4.4a47.94 47.94 0 0 1 9.19 12.32q8.77 15.24 21 22.76 12.23 7.52 33.3 7.52 17.13 0 28.1-7.63 10.96-7.63 11-17.43 0-15-11.38-21.93-11.38-6.93-37.48-13.15-29.45-7.3-47.92-15.35-18.47-8.04-29.55-21.2-11.07-13.15-11.07-32.36 0-17.1 10.23-32.37 10.23-15.26 30.1-24.3 19.93-9.07 48.13-9.08a158.31 158.31 0 0 1 39.78 4.6q17.64 4.6 29.44 12.32 11.8 7.73 18 17.12 6.15 9.4 6.16 18.37 0 9.82-6.58 16.08-6.58 6.26-18.7 6.27a22.92 22.92 0 0 1-14.93-5q-6.16-5-14.1-15a51.52 51.52 0 0 0-15.22-13.41q-8.76-5-23.8-5-15.47 0-25.7 6.58-10.22 6.58-10.23 16.4 0 9 7.52 14.73 7.52 5.73 20.2 9.45 12.74 3.75 35.08 9.18 26.52 6.48 43.33 15.46 16.8 8.98 25.48 21.2a47 47 0 0 1 8.67 27.91zm207.35-27.36h-111.5q.2 19.42 7.83 34.25 7.62 14.83 20.26 22.37a53.49 53.49 0 0 0 27.87 7.52 68.3 68.3 0 0 0 18.69-2.4 60.84 60.84 0 0 0 16.39-7.52 125.19 125.19 0 0 0 14.62-11q6.7-5.85 17.33-15.87 4.4-3.76 12.53-3.76 8.77 0 14.2 4.8 5.43 4.8 5.43 13.58 0 7.72-6 18.06-6 10.34-18.28 19.84-12.2 9.5-30.7 15.76-18.48 6.26-42.5 6.27-54.9 0-85.4-31.33-30.5-31.33-30.5-85a141.81 141.81 0 0 1 7.52-46.88 103.48 103.48 0 0 1 21.87-37.07 95.15 95.15 0 0 1 35.5-23.7q21.1-8.25 46.78-8.25 33.4 0 57.32 14.1 23.9 14.1 35.82 36.47 11.9 22.33 11.9 45.52 0 21.5-12.32 27.88-12.32 6.37-34.67 6.36zm-111.5-32.38h103.36q-2.1-29.24-15.76-43.75-13.67-14.5-36-14.5-21.3 0-35 14.72-13.7 14.72-16.6 43.54zm410.94 63.7q0 10.65-6.37 22.76-6.37 12.1-19.42 23.07-13.05 11-32.9 17.65-19.84 6.65-44.67 6.68-52.85 0-82.5-30.8-29.64-30.8-29.65-82.6 0-35.1 13.57-62a97.47 97.47 0 0 1 39.26-41.65q25.68-14.73 61.4-14.73a122 122 0 0 1 40.62 6.48q18.48 6.46 31.32 16.7 12.84 10.24 19.63 21.82 6.78 11.6 6.78 21.62a22.78 22.78 0 0 1-7.63 17.28 26.14 26.14 0 0 1-18.48 7.1 18.6 18.6 0 0 1-11.79-3.66q-4.7-3.64-10.55-11.8-10.44-15.85-21.82-23.8-11.38-7.95-28.92-7.93-25.27 0-40.72 19.73-15.45 19.73-15.45 54a104.39 104.39 0 0 0 4 29.54 67.23 67.23 0 0 0 11.49 23 49.09 49.09 0 0 0 18.17 14.41 55.2 55.2 0 0 0 23.38 4.91q17.13 0 29.34-7.94 12.2-7.94 21.55-24.24a55.7 55.7 0 0 1 11.28-15 21.42 21.42 0 0 1 14.83-5.43 22 22 0 0 1 17.33 7.93q6.9 7.9 6.9 16.9z" fill="#231f20"/><g stroke="#231f20" stroke-width="24" stroke-miterlimit="10"><path d="M695 1398.24c219.57 0 477.37-116.82 477.37-382.2 0-62.5-213.73-120-477.37-120h-.72c-263.64 0-477.37 57.46-477.37 120 0 265.4 257.8 382.2 477.37 382.2" fill="#fff"/><path d="M1141.47 1012.4c0 30-199.88 74.34-446.46 74.34h-.74c-246.57 0-446.46-44.4-446.46-74.34" fill="none" stroke-linecap="round"/></g></svg>