<svg xmlns="http://www.w3.org/2000/svg" height="1659.689" width="1960.54"  xmlns:v="https://vecta.io/nano"><g stroke="#231f20" stroke-width="24" stroke-linejoin="round"><path d="M12 476.2h1936.54v1171.5H12z" opacity=".992" fill="#fff"/><path d="M149.47 695.36h1083.8v727.2H149.47z" opacity=".992" fill="#a7a9ac"/><g fill="#fff"><path d="M1552.07 695.36h261a33.79 33.79 0 0 1 33.87 33.87v386.5a33.8 33.8 0 0 1-33.87 33.87h-261a33.79 33.79 0 0 1-33.87-33.87v-386.5a33.79 33.79 0 0 1 33.87-33.87zm-13.95 569.8H1825a23.85 23.85 0 0 1 23.91 23.91v109.58a23.86 23.86 0 0 1-23.91 23.91h-286.9a23.87 23.87 0 0 1-23.91-23.91v-109.58a23.86 23.86 0 0 1 23.91-23.91z" opacity=".99"/><path d="M1386.7 476.2z" opacity=".992"/></g><g fill="none" stroke-linecap="square"><path d="M1521.9 808.92h321.35M1521.9 922.48h321.35m-321.35 113.57h321.35"/><path d="M1627.77 699.32v446.32m109.58-446.32v446.32"/></g></g><path d="M423.36 291.4v-190q-53 40.7-71.4 40.72-8.78 0-15.56-7a22.57 22.57 0 0 1-6.79-16.18q0-10.65 6.7-15.66 6.7-5 23.6-12.95 25.26-11.9 40.4-25.06a171.16 171.16 0 0 0 26.83-29.44q11.68-16.3 15.24-20.05Q445.94 12 455.75 12a21.43 21.43 0 0 1 17.75 8.56q6.68 8.56 6.68 23.6v239.07q0 42-28.6 42-12.73 0-20.46-8.57-7.73-8.57-7.73-25.28zm331.4-225.94h-99.2l-11.9 67.66q29.6-15.87 54.7-15.87a93.66 93.66 0 0 1 37.48 7.51 95.74 95.74 0 0 1 51.27 52.18 101.14 101.14 0 0 1 7.51 39.05q0 30.27-13.57 55.12a100.17 100.17 0 0 1-39.15 39.47q-25.6 14.6-59 14.62-37.38 0-60.66-13.8-23.28-13.8-33-31.63-9.7-17.85-9.7-31.22 0-8.14 6.8-15.45a22.26 22.26 0 0 1 17-7.31q17.53 0 26.1 20.26 8.35 18.6 22.55 28.92a52.66 52.66 0 0 0 31.74 10.33q16.08 0 28.2-8.35a54.07 54.07 0 0 0 18.69-23q6.58-14.6 6.58-33.2 0-20.06-7.1-34.25-7.1-14.2-19-21.2a51.43 51.43 0 0 0-26.52-7q-18 0-25.7 4.4-7.7 4.4-22.2 15.4-14.52 10.95-23.9 11a25.86 25.86 0 0 1-18.17-7.41q-7.94-7.4-7.94-16.8 0-1.05 2.3-14.2l17.54-100q2.92-18 10.86-26.1 7.94-8.1 25.92-8.2H753.5q32.57 0 32.57 24.85a21.82 21.82 0 0 1-7.93 17.54q-7.93 6.68-23.4 6.68zm376.08 185.22q0 23.6-11.5 40.4-11.5 16.8-33.93 25.48-22.46 8.65-54.6 8.67-30.7 0-52.62-9.4-21.93-9.4-32.36-23.5-10.45-14.1-10.45-28.3a21.93 21.93 0 0 1 6.69-16.1q6.68-6.67 16.9-6.68 9 0 13.78 4.4a47.94 47.94 0 0 1 9.19 12.32q8.77 15.24 21 22.76 12.23 7.52 33.3 7.52 17.13 0 28.1-7.63 10.96-7.63 11-17.43 0-15-11.38-21.93-11.38-6.93-37.48-13.15-29.45-7.3-47.92-15.35-18.47-8.04-29.55-21.2-11.07-13.15-11.07-32.36 0-17.1 10.23-32.37 10.23-15.26 30.1-24.3 19.93-9.07 48.13-9.08a158.31 158.31 0 0 1 39.78 4.6q17.64 4.6 29.44 12.32 11.8 7.73 18 17.12 6.15 9.4 6.16 18.37 0 9.82-6.58 16.08-6.58 6.26-18.7 6.27a22.9 22.9 0 0 1-14.93-5q-6.16-5-14.1-15a51.52 51.52 0 0 0-15.22-13.41q-8.76-5-23.8-5-15.47 0-25.7 6.58-10.22 6.58-10.23 16.4 0 9 7.52 14.73 7.52 5.73 20.2 9.45 12.74 3.75 35.1 9.18 26.5 6.48 43.32 15.46 16.8 8.98 25.48 21.2a47.06 47.06 0 0 1 8.67 27.91zm207.35-27.36h-111.5q.2 19.42 7.83 34.25 7.62 14.83 20.26 22.37a53.49 53.49 0 0 0 27.87 7.52 68.36 68.36 0 0 0 18.69-2.4 60.84 60.84 0 0 0 16.39-7.52 125.19 125.19 0 0 0 14.62-11q6.7-5.85 17.33-15.87 4.4-3.76 12.53-3.76 8.77 0 14.2 4.8 5.43 4.8 5.43 13.58 0 7.72-6.06 18.06-6.06 10.34-18.27 19.84-12.2 9.5-30.7 15.76-18.48 6.26-42.5 6.27-54.9 0-85.4-31.33-30.5-31.33-30.5-85a141.81 141.81 0 0 1 7.52-46.88 103.48 103.48 0 0 1 21.92-37.07 95.15 95.15 0 0 1 35.5-23.7q21.1-8.25 46.78-8.25 33.4 0 57.32 14.1 23.9 14.1 35.82 36.47 11.9 22.33 11.9 45.52 0 21.5-12.32 27.88-12.32 6.37-34.67 6.36zm-111.5-32.38h103.36q-2.1-29.24-15.76-43.75-13.67-14.5-36-14.5-21.3 0-35 14.72-13.7 14.72-16.6 43.54zm410.94 63.7q0 10.65-6.37 22.76-6.37 12.1-19.42 23.07-13.05 11-32.9 17.65-19.84 6.65-44.67 6.68-52.85 0-82.5-30.8-29.64-30.8-29.65-82.6 0-35.1 13.57-62a97.47 97.47 0 0 1 39.26-41.65q25.68-14.73 61.4-14.73a122 122 0 0 1 40.62 6.48q18.48 6.46 31.32 16.7 12.84 10.24 19.63 21.82 6.78 11.6 6.78 21.62a22.78 22.78 0 0 1-7.63 17.28 26.14 26.14 0 0 1-18.48 7.1 18.6 18.6 0 0 1-11.79-3.66q-4.7-3.64-10.55-11.8-10.44-15.85-21.82-23.8-11.38-7.95-28.92-7.93-25.27 0-40.72 19.73-15.45 19.73-15.45 54a104.39 104.39 0 0 0 4 29.54 67.23 67.23 0 0 0 11.49 23 49.09 49.09 0 0 0 18.17 14.41 55.2 55.2 0 0 0 23.38 4.91q17.13 0 29.34-7.94 12.2-7.94 21.55-24.24a55.7 55.7 0 0 1 11.28-15 21.42 21.42 0 0 1 14.83-5.43 22 22 0 0 1 17.33 7.93q6.9 7.9 6.9 16.9z" fill="#231f20"/><g stroke="#231f20" stroke-width="24" stroke-miterlimit="10"><path d="M695 1397.78c219.57 0 477.37-116.82 477.37-382.2 0-62.5-213.73-120-477.37-120h-.72c-263.64 0-477.37 57.46-477.37 120 0 265.4 257.8 382.2 477.37 382.2" fill="#fff"/><path d="M1141.47 1011.93c0 30-199.88 74.34-446.46 74.34h-.74c-246.57 0-446.46-44.4-446.46-74.34" fill="none" stroke-linecap="round"/></g></svg>