<svg id="Layer_1" data-name="Layer 1" xmlns="http://www.w3.org/2000/svg" viewBox="0 0 2000 2000"><g id="layer2"><path id="rect904" d="M31.73,647.2H1968.27V1818.69H31.73Z" style="fill:#e6e7e8;stroke:#3a3632;stroke-linecap:round;stroke-linejoin:round;stroke-width:20px;isolation:isolate;opacity:0.991999983787537"/><path id="rect921" d="M169.2,866.36H1253v727.2H169.2Z" style="fill:#a6a8ab;stroke:#3a3632;stroke-linecap:round;stroke-linejoin:round;stroke-width:20px;isolation:isolate;opacity:0.991999983787537"/><path id="rect923" d="M1571.8,866.36h261a33.79,33.79,0,0,1,33.87,33.87v386.51a33.8,33.8,0,0,1-33.87,33.87h-261a33.79,33.79,0,0,1-33.87-33.87V900.23a33.79,33.79,0,0,1,33.87-33.87Z" style="fill:#a6a8ab;stroke:#3a3632;stroke-linecap:round;stroke-linejoin:round;stroke-width:20px;isolation:isolate;opacity:0.991999983787537"/><path id="rect978" d="M1557.85,1436.16h286.89a23.86,23.86,0,0,1,23.91,23.91v109.58a23.86,23.86,0,0,1-23.91,23.91H1557.85a23.87,23.87,0,0,1-23.91-23.91V1460.07a23.87,23.87,0,0,1,23.91-23.91Z" style="fill:#a6a8ab;stroke:#3a3632;stroke-linecap:round;stroke-linejoin:round;stroke-width:20px;isolation:isolate;opacity:0.991999983787537"/><path id="rect886" d="M1406.43,647.2v0Z" style="fill:#e6e7e8;stroke:#3a3632;stroke-linecap:round;stroke-linejoin:round;stroke-width:20px;isolation:isolate;opacity:0.991999983787537"/><line x1="1541.62" y1="979.92" x2="1862.97" y2="979.92" style="fill:none;stroke:#3a3632;stroke-linecap:square;stroke-linejoin:round;stroke-width:20px"/><line x1="1541.62" y1="1093.48" x2="1862.97" y2="1093.48" style="fill:none;stroke:#3a3632;stroke-linecap:square;stroke-linejoin:round;stroke-width:20px"/><line x1="1541.62" y1="1207.05" x2="1862.97" y2="1207.05" style="fill:none;stroke:#3a3632;stroke-linecap:square;stroke-linejoin:round;stroke-width:20px"/><line x1="1647.5" y1="870.32" x2="1647.5" y2="1316.64" style="fill:none;stroke:#3a3632;stroke-linecap:square;stroke-linejoin:round;stroke-width:20px"/><line x1="1757.08" y1="870.32" x2="1757.08" y2="1316.64" style="fill:none;stroke:#3a3632;stroke-linecap:square;stroke-linejoin:round;stroke-width:20px"/></g><path d="M714.72,1568.85c219.57,0,477.37-116.82,477.37-382.21,0-62.51-213.73-120-477.37-120H714c-263.64,0-477.37,57.46-477.37,120,0,265.39,257.8,382.21,477.37,382.21" style="fill:#fff;stroke:#3a3632;stroke-miterlimit:10;stroke-width:20px"/><path d="M1161.2,1183c0,30-199.88,74.34-446.46,74.34H714c-246.57,0-446.46-44.39-446.46-74.34" style="fill:none;stroke:#3a3632;stroke-linecap:round;stroke-miterlimit:10;stroke-width:20px"/><path d="M451.34,354.36q14.32,19,14.32,47.26,0,38.91-28.65,62t-77.4,23.1a168,168,0,0,1-53.46-8.55q-25.66-8.57-43.62-23.95-9.84-8.55-9.84-20.1a24.72,24.72,0,0,1,5.35-16q5.34-6.63,12.62-6.63a19,19,0,0,1,7.69,1.5q3.42,1.5,9.41,4.92A184.23,184.23,0,0,0,322,436.25a95.78,95.78,0,0,0,35.5,6.42q28.23,0,41.91-11.33t13.68-34.43q0-22.67-14.32-33.57t-44.27-10.9H330.1q-9.84,0-15.18-6.63a23.49,23.49,0,0,1-5.35-15.19,23.24,23.24,0,0,1,5.35-15.39q5.34-6.42,15.18-6.42h17.11q58.57,0,58.58-44,0-20.53-12.4-31.65T359.18,222q-31.23,0-66.72,24.81a104.28,104.28,0,0,1-9.4,4.91,18.86,18.86,0,0,1-7.7,1.5q-7.28,0-12.62-6.63a24.7,24.7,0,0,1-5.34-16,23.22,23.22,0,0,1,2.35-10.9,34.75,34.75,0,0,1,7.48-9.19q18-15,43-23.74A153.61,153.61,0,0,1,361.32,178q44.48,0,70.77,21.81t26.3,58.16q-.42,24.81-13,43.41t-35.28,27.16Q437,335.33,451.34,354.36Z" style="fill:#3a3632"/><path d="M538.79,447.59Q510.56,408,510.56,332.34q0-75.27,28.23-114.83T620.47,178q53.46,0,81.68,39.56t28.23,114.83q0,75.27-28.23,115t-81.68,39.78Q567,487.15,538.79,447.59Zm124-30.37q13.25-26.72,13.26-84.88,0-58.59-13.26-84.89t-42.34-26.3q-29.09,0-42.34,26.51t-13.25,84.68q0,58.16,13.25,84.88T620.47,444Q649.56,444,662.81,417.22Z" style="fill:#3a3632"/><path d="M795.38,447.59Q767.15,408,767.15,332.34q0-75.27,28.23-114.83T877.06,178q53.45,0,81.68,39.56T987,332.34q0,75.27-28.22,115t-81.68,39.78Q823.6,487.15,795.38,447.59Zm124-30.37q13.25-26.72,13.25-84.88,0-58.59-13.25-84.89t-42.34-26.3q-29.09,0-42.34,26.51t-13.26,84.68q0,58.16,13.26,84.88T877.06,444Q906.13,444,919.4,417.22Z" style="fill:#3a3632"/><path d="M1149.47,468.33q-13.7-8.11-13.69-23.09,0-8.55,4.71-13.9A14.79,14.79,0,0,1,1152,426q7.28,0,20.1,6.84a186.29,186.29,0,0,0,25,9.84q11.32,3.43,28.87,3.42,18,0,28-6t10-16.67q0-7.28-4.07-11.55T1245.47,404q-10.47-3.63-31.86-8.34-38.05-7.69-54.52-21.81t-16.47-38.92a56.2,56.2,0,0,1,11.12-34q11.12-15.16,30.58-23.52t44.26-8.34a132.79,132.79,0,0,1,34.64,4.49,105.59,105.59,0,0,1,29.94,13.05q13.68,8.55,13.68,22.66a22,22,0,0,1-4.7,14.33,14.38,14.38,0,0,1-11.55,5.77,23.13,23.13,0,0,1-9.19-1.92,123.4,123.4,0,0,1-11.34-5.78,180.53,180.53,0,0,0-21.38-9.62q-9-3.21-22.24-3.21-15.82,0-25,6.42a20.25,20.25,0,0,0-9.2,17.53q0,10.69,9.41,16.25T1238,360.13q28.65,6,44.9,13.69t23.31,19.24q7.07,11.55,7.06,29.51,0,29.08-24.16,46.61t-64.37,17.54Q1178.13,486.72,1149.47,468.33Z" style="fill:#3a3632"/><path d="M1533.71,431.55q4.49,5.56,4.49,15,0,13.26-15.83,22.24a142.37,142.37,0,0,1-32.93,13,136.08,136.08,0,0,1-35.06,4.92q-50.48,0-80-29.08t-29.51-79.55q0-32.07,12.83-56.87a93.32,93.32,0,0,1,36.13-38.49q23.31-13.68,52.82-13.69,28.23,0,49.18,12.41a84.16,84.16,0,0,1,32.5,35.06q11.55,22.68,11.55,53.46,0,18.39-16.25,18.39H1397.5q2.57,29.5,16.68,43.4t41,13.9a77.6,77.6,0,0,0,24.16-3.42,236,236,0,0,0,23.74-9.41Q1516,426,1522,426A14.43,14.43,0,0,1,1533.71,431.55Zm-120.6-111.19q-13,13.69-15.61,39.35h96.65q-.87-26.08-12.83-39.56T1448,306.68Q1426.15,306.68,1413.11,320.36Z" style="fill:#3a3632"/><path d="M1621.37,473.46a90.3,90.3,0,0,1-36.56-37.63Q1572,411.46,1572,379t13.47-57.52a95.17,95.17,0,0,1,37.84-38.7q24.39-13.68,56-13.69a124.57,124.57,0,0,1,33.57,4.71,110.73,110.73,0,0,1,29.72,12.83q13.68,9,13.68,22.66,0,9.42-4.49,15.18A14.19,14.19,0,0,1,1740,330.2a25.42,25.42,0,0,1-9.83-2.14,87,87,0,0,1-10.27-5.13,115.6,115.6,0,0,0-18-8.77,55.77,55.77,0,0,0-19.67-3.21q-26.52,0-40.84,17.32t-14.33,49.82q0,32.09,14.33,49.4t40.84,17.32a52.73,52.73,0,0,0,19-3.21,160.7,160.7,0,0,0,18.6-8.77,84.94,84.94,0,0,1,11.12-5.77,24.74,24.74,0,0,1,9.41-1.92q6.84,0,11.55,6t4.7,15a24.13,24.13,0,0,1-3.2,12.62q-3.21,5.35-10.48,9.62a112.08,112.08,0,0,1-30.79,13.47,132.84,132.84,0,0,1-35.93,4.92Q1645.11,486.72,1621.37,473.46Z" style="fill:#3a3632"/><g id="layer4"><ellipse cx="714.35" cy="1163.77" rx="503.17" ry="118.26" style="fill:#fff;stroke:#3a3632;stroke-miterlimit:10;stroke-width:20px"/><ellipse cx="714.35" cy="1161.45" rx="331.11" ry="66.9" style="fill:#f1f1f2;stroke:#3a3632;stroke-miterlimit:10;stroke-width:20px"/></g></svg>