<svg id="Layer_1" data-name="Layer 1" xmlns="http://www.w3.org/2000/svg" viewBox="0 0 2000 2000"><g id="layer2"><path id="rect904" d="M31.73,647.2H1968.27V1818.69H31.73Z" style="fill:#e6e7e8;stroke:#3a3632;stroke-linecap:round;stroke-linejoin:round;stroke-width:20px;isolation:isolate;opacity:0.991999983787537"/><path id="rect921" d="M169.2,866.36H1253v727.2H169.2Z" style="fill:#a6a8ab;stroke:#3a3632;stroke-linecap:round;stroke-linejoin:round;stroke-width:20px;isolation:isolate;opacity:0.991999983787537"/><path id="rect923" d="M1571.8,866.36h261a33.79,33.79,0,0,1,33.87,33.87v386.51a33.8,33.8,0,0,1-33.87,33.87h-261a33.79,33.79,0,0,1-33.87-33.87V900.23a33.79,33.79,0,0,1,33.87-33.87Z" style="fill:#a6a8ab;stroke:#3a3632;stroke-linecap:round;stroke-linejoin:round;stroke-width:20px;isolation:isolate;opacity:0.991999983787537"/><path id="rect978" d="M1557.85,1436.16h286.89a23.86,23.86,0,0,1,23.91,23.91v109.58a23.86,23.86,0,0,1-23.91,23.91H1557.85a23.87,23.87,0,0,1-23.91-23.91V1460.07a23.87,23.87,0,0,1,23.91-23.91Z" style="fill:#a6a8ab;stroke:#3a3632;stroke-linecap:round;stroke-linejoin:round;stroke-width:20px;isolation:isolate;opacity:0.991999983787537"/><path id="rect886" d="M1406.43,647.2v0Z" style="fill:#e6e7e8;stroke:#3a3632;stroke-linecap:round;stroke-linejoin:round;stroke-width:20px;isolation:isolate;opacity:0.991999983787537"/><line x1="1541.62" y1="979.92" x2="1862.97" y2="979.92" style="fill:none;stroke:#3a3632;stroke-linecap:square;stroke-linejoin:round;stroke-width:20px"/><line x1="1541.62" y1="1093.48" x2="1862.97" y2="1093.48" style="fill:none;stroke:#3a3632;stroke-linecap:square;stroke-linejoin:round;stroke-width:20px"/><line x1="1541.62" y1="1207.05" x2="1862.97" y2="1207.05" style="fill:none;stroke:#3a3632;stroke-linecap:square;stroke-linejoin:round;stroke-width:20px"/><line x1="1647.5" y1="870.32" x2="1647.5" y2="1316.64" style="fill:none;stroke:#3a3632;stroke-linecap:square;stroke-linejoin:round;stroke-width:20px"/><line x1="1757.08" y1="870.32" x2="1757.08" y2="1316.64" style="fill:none;stroke:#3a3632;stroke-linecap:square;stroke-linejoin:round;stroke-width:20px"/></g><path d="M1037.74,1311.9c0-16.75-4.11-35.46-15.25-51-22.44-31.24-64.3-45.88-108-37.85l-6.7,1.23v-55.58c0-43.91-91.78-63-205-63s-205,19-205,63v337.14c0,43.91,91.78,63,205,63s205-19,205-63v-37.22C941.05,1455.25,1037.74,1407.74,1037.74,1311.9Zm-130,99.31V1275.92a124.9,124.9,0,0,1,19.82-5.48c23.37-4.7,50.53,4.15,59.84,15.71,8.8,10.95,10.13,23.47,10.13,30.9C997.53,1366.59,941.69,1398.61,907.74,1411.21Z" style="fill:#fff;stroke:#3a3632;stroke-miterlimit:10;stroke-width:20px"/><path d="M524.15,1166.66c28.08,20.24,92.78,37,178.61,37s154.65-18.48,178.6-37" style="fill:none;stroke:#3a3632;stroke-linecap:round;stroke-miterlimit:10;stroke-width:20px"/><path d="M579.63,354.36Q594,373.4,594,401.62q0,38.91-28.65,62t-77.41,23.1a168,168,0,0,1-53.46-8.55q-25.65-8.57-43.62-23.95-9.84-8.55-9.83-20.1a24.71,24.71,0,0,1,5.34-16q5.34-6.63,12.62-6.63a19,19,0,0,1,7.7,1.5q3.41,1.5,9.4,4.92a184.29,184.29,0,0,0,34.22,18.38,95.72,95.72,0,0,0,35.49,6.42q28.23,0,41.91-11.33t13.69-34.43q0-22.67-14.33-33.57t-44.26-10.9H458.39q-9.84,0-15.18-6.63a23.48,23.48,0,0,1-5.34-15.19,23.24,23.24,0,0,1,5.34-15.39q5.34-6.42,15.18-6.42H475.5q58.59,0,58.59-44,0-20.53-12.41-31.65T487.47,222q-31.22,0-66.71,24.81a105.55,105.55,0,0,1-9.41,4.91,18.83,18.83,0,0,1-7.7,1.5q-7.27,0-12.61-6.63a24.7,24.7,0,0,1-5.35-16,23.22,23.22,0,0,1,2.35-10.9,35,35,0,0,1,7.49-9.19q18-15,43-23.74a153.59,153.59,0,0,1,51.1-8.77q44.48,0,70.78,21.81t26.3,58.16q-.44,24.81-13.05,43.41t-35.28,27.16Q565.3,335.33,579.63,354.36Z" style="fill:#3a3632"/><path d="M667.08,447.59Q638.87,408,638.86,332.34q0-75.27,28.22-114.83T748.76,178q53.46,0,81.69,39.56t28.22,114.83q0,75.27-28.22,115t-81.69,39.78Q695.3,487.15,667.08,447.59Zm124-30.37q13.26-26.72,13.26-84.88,0-58.59-13.26-84.89t-42.34-26.3q-29.09,0-42.33,26.51t-13.26,84.68q0,58.16,13.26,84.88T748.76,444Q777.85,444,791.1,417.22Z" style="fill:#3a3632"/><path d="M1021.17,468.33q-13.68-8.11-13.68-23.09,0-8.55,4.7-13.9a14.81,14.81,0,0,1,11.55-5.35q7.26,0,20.1,6.84a186.29,186.29,0,0,0,25,9.84q11.33,3.43,28.86,3.42,18,0,28-6t10-16.67q0-7.28-4.06-11.55T1117.18,404q-10.48-3.63-31.86-8.34-38.07-7.69-54.53-21.81t-16.46-38.92a56.14,56.14,0,0,1,11.12-34q11.11-15.16,30.58-23.52t44.26-8.34a132.85,132.85,0,0,1,34.64,4.49,105.52,105.52,0,0,1,29.93,13.05q13.7,8.55,13.69,22.66a21.92,21.92,0,0,1-4.71,14.33,14.36,14.36,0,0,1-11.54,5.77,23.21,23.21,0,0,1-9.2-1.92,124.73,124.73,0,0,1-11.33-5.78,180.53,180.53,0,0,0-21.38-9.62q-9-3.21-22.24-3.21-15.83,0-25,6.42a20.26,20.26,0,0,0-9.19,17.53q0,10.69,9.41,16.25t36.35,11.12q28.63,6,44.9,13.69t23.31,19.24q7,11.55,7,29.51,0,29.08-24.16,46.61t-64.36,17.54Q1049.82,486.72,1021.17,468.33Z" style="fill:#3a3632"/><path d="M1405.41,431.55q4.5,5.56,4.49,15,0,13.26-15.82,22.24a142.54,142.54,0,0,1-32.93,13,136.16,136.16,0,0,1-35.07,4.92q-50.46,0-80-29.08t-29.51-79.55q0-32.07,12.83-56.87a93.41,93.41,0,0,1,36.14-38.49q23.31-13.68,52.81-13.69,28.23,0,49.18,12.41a84.12,84.12,0,0,1,32.51,35.06q11.54,22.68,11.54,53.46,0,18.39-16.25,18.39H1269.21q2.57,29.5,16.67,43.4t41.06,13.9a77.6,77.6,0,0,0,24.16-3.42,236.88,236.88,0,0,0,23.73-9.41q12.84-6.82,18.82-6.84A14.4,14.4,0,0,1,1405.41,431.55Zm-120.6-111.19q-13.05,13.69-15.6,39.35h96.64q-.86-26.08-12.83-39.56t-33.35-13.47Q1297.86,306.68,1284.81,320.36Z" style="fill:#3a3632"/><path d="M1493.08,473.46a90.32,90.32,0,0,1-36.57-37.63q-12.83-24.37-12.83-56.88t13.47-57.52a95.2,95.2,0,0,1,37.85-38.7q24.38-13.68,56-13.69a124.52,124.52,0,0,1,33.57,4.71,110.93,110.93,0,0,1,29.73,12.83q13.68,9,13.68,22.66,0,9.42-4.49,15.18a14.2,14.2,0,0,1-11.76,5.78,25.51,25.51,0,0,1-9.84-2.14,86.1,86.1,0,0,1-10.26-5.13,115.6,115.6,0,0,0-18-8.77A55.81,55.81,0,0,0,1554,311q-26.52,0-40.84,17.32t-14.33,49.82q0,32.09,14.33,49.4T1554,444.81a52.73,52.73,0,0,0,19-3.21,160.7,160.7,0,0,0,18.6-8.77,84.94,84.94,0,0,1,11.12-5.77,24.7,24.7,0,0,1,9.41-1.92q6.84,0,11.54,6t4.71,15a24,24,0,0,1-3.21,12.62q-3.21,5.35-10.48,9.62A112,112,0,0,1,1584,481.8a132.71,132.71,0,0,1-35.92,4.92Q1516.82,486.72,1493.08,473.46Z" style="fill:#3a3632"/></svg>