<?xml version="1.0" encoding="UTF-8" standalone="no"?>
<svg
   xmlns:dc="http://purl.org/dc/elements/1.1/"
   xmlns:cc="http://creativecommons.org/ns#"
   xmlns:rdf="http://www.w3.org/1999/02/22-rdf-syntax-ns#"
   xmlns:svg="http://www.w3.org/2000/svg"
   xmlns="http://www.w3.org/2000/svg"
   xmlns:sodipodi="http://sodipodi.sourceforge.net/DTD/sodipodi-0.dtd"
   xmlns:inkscape="http://www.inkscape.org/namespaces/inkscape"
   inkscape:version="1.0beta1 (32d4812, 2019-09-19)"
   sodipodi:docname="microwave_bowl_plate_90.svg"
   id="svg4483"
   version="1.1"
   width="1960.54"
   height="1660.15">
  <metadata
     id="metadata4489">
    <rdf:RDF>
      <cc:Work
         rdf:about="">
        <dc:format>image/svg+xml</dc:format>
        <dc:type
           rdf:resource="http://purl.org/dc/dcmitype/StillImage" />
        <dc:title></dc:title>
      </cc:Work>
    </rdf:RDF>
  </metadata>
  <defs
     id="defs4487" />
  <sodipodi:namedview
     inkscape:current-layer="svg4483"
     inkscape:window-maximized="0"
     inkscape:window-y="25"
     inkscape:window-x="0"
     inkscape:cy="830.07501"
     inkscape:cx="220.38517"
     inkscape:zoom="0.16384061"
     showgrid="false"
     id="namedview4485"
     inkscape:window-height="733"
     inkscape:window-width="1602"
     inkscape:pageshadow="2"
     inkscape:pageopacity="0"
     guidetolerance="10"
     gridtolerance="10"
     objecttolerance="10"
     borderopacity="1"
     inkscape:document-rotation="0"
     bordercolor="#666666"
     pagecolor="#ffffff" />
  <g
     id="g4469"
     stroke-width="24"
     stroke="#231f20">
    <g
       id="g4465"
       stroke-linejoin="round">
      <path
         id="path4449"
         fill="#fff"
         opacity=".992"
         d="M12 476.66h1936.54v1171.5H12z" />
      <path
         id="path4451"
         fill="#a7a9ac"
         opacity=".992"
         d="M149.47 695.82h1083.8v727.2H149.47z" />
      <g
         id="g4457"
         fill="#fff">
        <path
           id="path4453"
           opacity=".99"
           d="M1552.07 695.82h261a33.79 33.79 0 0 1 33.87 33.87v386.5a33.8 33.8 0 0 1-33.87 33.87h-261a33.79 33.79 0 0 1-33.87-33.87V729.7a33.79 33.79 0 0 1 33.87-33.87zm-13.95 569.8H1825a23.86 23.86 0 0 1 23.91 23.91v109.58a23.86 23.86 0 0 1-23.91 23.91h-286.9a23.87 23.87 0 0 1-23.91-23.91v-109.58a23.87 23.87 0 0 1 23.91-23.91z" />
        <path
           id="path4455"
           opacity=".992"
           d="M1386.7 476.66z" />
      </g>
      <g
         id="g4463"
         stroke-linecap="square"
         fill="none">
        <path
           id="path4459"
           d="M1521.9 809.38h321.35M1521.9 922.94h321.35M1521.9 1036.5h321.35" />
        <path
           id="path4461"
           d="M1627.77 699.78v446.32m109.58-446.32v446.32" />
      </g>
    </g>
    <path
       id="path4467"
       stroke-miterlimit="10"
       fill="#fff"
       d="M695 1398.3c219.57 0 477.37-116.82 477.37-382.2 0-62.5-213.73-120-477.37-120h-.72c-263.64 0-477.37 57.46-477.37 120 0 265.4 257.8 382.2 477.37 382.2" />
  </g>
  <path
     id="path4473"
     stroke-miterlimit="10"
     stroke-linecap="round"
     stroke-width="24"
     stroke="#231f20"
     fill="none"
     d="M1141.47 1012.46c0 30-199.88 74.34-446.46 74.34h-.74c-246.57 0-446.46-44.4-446.46-74.34" />
  <path
     id="path4475"
     fill="#231f20"
     d="M476.82 183.27q-13.8 16.28-30.8 24.53a85.27 85.27 0 0 1-37.69 8.25 88.65 88.65 0 0 1-36.65-7.59 87.72 87.72 0 0 1-29.41-21.33 96.17 96.17 0 0 1-19.11-31.95 113.92 113.92 0 0 1 .84-79.14 97.51 97.51 0 0 1 21.51-33.51 98.78 98.78 0 0 1 33.3-22.14q19.32-7.94 42.7-7.93 26.94 0 48 9.8a94.81 94.81 0 0 1 35.5 28.5q14.42 18.7 22.13 47.1 7.7 28.4 7.73 64.32 0 40.08-8.14 70.68-8.14 30.6-23.7 51.37-15.57 20.78-37.28 30.9-21.7 10.12-49.28 10.13-27.15 0-47.2-10.34-20.04-10.34-30.5-25.68-10.44-15.34-10.44-29.55a22.25 22.25 0 0 1 6.48-15.66 21.64 21.64 0 0 1 16.49-6.89 28.11 28.11 0 0 1 16.5 5.12q7.3 5.1 11.07 15.34a41.88 41.88 0 0 0 15.24 20.15 40.2 40.2 0 0 0 24 7.63 44.86 44.86 0 0 0 22.55-6.06 54.37 54.37 0 0 0 18.17-17.12q15.06-22.35 17.97-78.93zm-4.8-63.9a85 85 0 0 0-3.87-26.21 64.64 64.64 0 0 0-10.88-20.77 51.35 51.35 0 0 0-16.71-13.79 45.53 45.53 0 0 0-21.19-5q-19.85 0-33.62 17-13.77 17-13.78 45 0 27.78 13.78 44.27 13.78 16.5 34.87 16.5a48.93 48.93 0 0 0 24.74-6.79 51.8 51.8 0 0 0 19.21-19.73q7.44-12.93 7.45-30.48zm318.65 50.95q0 34.25-4.18 58.9a136.92 136.92 0 0 1-15.45 44.68q-14.2 24.65-36.75 38-22.54 13.35-50.12 13.37-31.74 0-56.9-18-25.16-18-37.9-49.7a184.48 184.48 0 0 1-9.5-38.31 318.51 318.51 0 0 1-3-45.42 436 436 0 0 1 3.34-56.8q3.35-25.26 10.44-43.43 12.33-30.08 35.82-45.84Q649.96 12 682.53 12q21.5 0 39 7a89.2 89.2 0 0 1 30.82 20.46q13.26 13.47 22.45 33.3 15.87 34.5 15.87 97.56zm-57.22-4.18q0-38.2-4.6-62.54-4.6-24.33-15.45-36.75-10.86-12.4-30.07-12.4-27.57 0-38.32 27.77-10.75 27.77-10.75 85.58 0 39.27 4.6 64.32 4.6 25.05 15.4 37.9 10.86 12.84 29.45 12.84 19.2 0 30.06-13.36 10.86-13.36 15.25-38.22 4.42-24.83 4.42-65.15zm397.38 85q0 23.6-11.5 40.4-11.5 16.82-33.93 25.47-22.46 8.67-54.6 8.67-30.7 0-52.63-9.4-21.92-9.4-32.36-23.5-10.45-14.1-10.44-28.33a21.88 21.88 0 0 1 6.68-16q6.68-6.7 16.9-6.7 9 0 13.78 4.4a47.71 47.71 0 0 1 9.19 12.32q8.77 15.24 21 22.76 12.23 7.52 33.3 7.52 17.13 0 28.1-7.62 10.96-7.62 11-17.44 0-15-11.38-21.93-11.38-6.93-37.48-13.15-29.45-7.3-47.92-15.35-18.47-8.04-29.55-21.2-11.07-13.15-11.07-32.37 0-17.1 10.23-32.37 10.23-15.26 30.1-24.36 19.93-9.1 48.13-9.1a158.31 158.31 0 0 1 39.78 4.6q17.64 4.6 29.44 12.32 11.8 7.73 18 17.12 6.15 9.4 6.16 18.38 0 9.8-6.58 16.07-6.58 6.26-18.7 6.27a22.92 22.92 0 0 1-14.93-5q-6.15-5-14.1-15a51.75 51.75 0 0 0-15.22-13.41q-8.78-5-23.8-5-15.45 0-25.68 6.57-10.23 6.57-10.24 16.4 0 9 7.52 14.72 7.52 5.72 20.2 9.53 12.73 3.75 35.08 9.2 26.5 6.47 43.33 15.45 16.82 8.98 25.47 21.2a47 47 0 0 1 8.68 27.84zm207.35-27.35h-111.5q.2 19.4 7.83 34.24 7.62 14.83 20.26 22.34a53.41 53.41 0 0 0 27.88 7.52 68.28 68.28 0 0 0 18.68-2.4 60.73 60.73 0 0 0 16.4-7.52 124.23 124.23 0 0 0 14.61-11q6.7-5.85 17.33-15.87 4.4-3.75 12.53-3.76 8.77 0 14.2 4.8 5.43 4.8 5.43 13.58 0 7.72-6 18.06-6 10.34-18.27 19.84-12.23 9.5-30.7 15.76-18.47 6.27-42.58 6.3-54.93 0-85.4-31.32-30.48-31.32-30.5-85a141.85 141.85 0 0 1 7.52-46.88 103.36 103.36 0 0 1 21.97-37.02 95 95 0 0 1 35.49-23.7q21.1-8.24 46.78-8.24 33.4 0 57.32 14.1 23.9 14.1 35.82 36.4 11.9 22.35 11.9 45.52 0 21.5-12.32 27.88-12.32 6.37-34.67 6.37zm-111.5-32.32h103.37q-2.1-29.24-15.77-43.75-13.67-14.5-36-14.5-21.3 0-35 14.72-13.7 14.72-16.6 43.54zm410.94 63.64q0 10.65-6.37 22.76-6.37 12.1-19.42 23.07-13.05 11-32.9 17.65-19.84 6.65-44.67 6.68-52.83 0-82.48-30.8-29.65-30.8-29.66-82.6 0-35.07 13.58-62a97.36 97.36 0 0 1 39.25-41.66q25.7-14.73 61.4-14.72a122.27 122.27 0 0 1 40.61 6.47q18.48 6.48 31.32 16.7 12.84 10.22 19.62 21.8 6.78 11.58 6.8 21.6a22.79 22.79 0 0 1-7.63 17.39 26.13 26.13 0 0 1-18.47 7.1 18.61 18.61 0 0 1-11.8-3.66q-4.7-3.64-10.55-11.8-10.44-15.87-21.82-23.8-11.38-7.94-28.92-7.93-25.27 0-40.72 19.73-15.45 19.73-15.45 54a104.09 104.09 0 0 0 4 29.55 67.08 67.08 0 0 0 11.48 23 49.09 49.09 0 0 0 18.17 14.41 55.07 55.07 0 0 0 23.39 4.91q17.12 0 29.33-7.93 12.2-7.93 21.56-24.33a55.48 55.48 0 0 1 11.27-15 21.42 21.42 0 0 1 14.83-5.43 22 22 0 0 1 17.33 7.93q6.9 7.92 6.92 16.9z" />
  <g
     id="g4481"
     stroke="#231f20">
    <ellipse
       id="ellipse4477"
       stroke-width="24"
       fill="#fff"
       cx="694.62"
       cy="993.23"
       rx="503.17"
       ry="118.26" />
    <ellipse
       id="ellipse4479"
       stroke-width="8"
       fill="#f1f2f2"
       cx="694.62"
       cy="990.91"
       rx="331.11"
       ry="66.9" />
  </g>
</svg>
