<svg xmlns="http://www.w3.org/2000/svg" height="1923.988" width="995.956"  xmlns:v="https://vecta.io/nano"><g stroke="#231f20" stroke-width="24" stroke-miterlimit="10"><path d="M906.3 1459.048c0-27.75-6.8-58.74-25.24-84.4-37.17-51.73-106.5-76-179-62.68l-11.1 2v-92c0-72.73-152-131.68-339.48-131.68s-339.5 59-339.5 131.68v558.34c0 72.73 152 131.7 339.5 131.7s339.48-59 339.48-131.7v-61.64c55.2-22.2 215.33-100.9 215.33-259.6zM691 1623.508v-224.06a208.38 208.38 0 0 1 32.83-9.07c38.7-7.8 83.67 6.87 99.1 26 14.6 18.12 16.78 38.86 16.78 51.17 0 82.07-92.48 135.1-148.7 155.96z" fill="#fff"/><path d="M55.74 1218.498c34.2 51 153.65 88.62 295.8 88.62s261.6-37.64 295.8-88.62" fill="none" stroke-linecap="round"/></g><path d="M246.96 1125.228a13.26 13.26 0 0 0 5.73 17.28h0a13.25 13.25 0 0 0 18.05-5.56L376 941.868a12.1 12.1 0 0 1 16.4-4.92h0a12.13 12.13 0 0 1 5 16.26l-102.3 197.5a13.26 13.26 0 0 0 5.57 17.62h0a13.26 13.26 0 0 0 17.87-5.22l108.63-193.87a12.11 12.11 0 0 1 16.32-4.77l.15.08a12.13 12.13 0 0 1 5 16.26l-102 197.43a13.25 13.25 0 0 0 5.48 17.79h0a13.26 13.26 0 0 0 17.77-5l108.57-194.12a12.1 12.1 0 0 1 16.32-4.77h0a12.1 12.1 0 0 1 4.92 16.4l-104.9 195.24a13.26 13.26 0 0 0 5.29 18.13h0a13.26 13.26 0 0 0 17.59-4.73l181.4-303.74a94.93 94.93 0 0 0 8.46-68.23l-14.37-56.92a38.73 38.73 0 0 1 4-28.75l378.4-655.4c16.58-28.9 8-66.6-20.66-83.62a60.53 60.53 0 0 0-85 24.74l-339.66 678.26a38.74 38.74 0 0 1-21.82 19.13L453 761.978a95 95 0 0 0-52.3 44.62z" fill="#231f20"/></svg>