<svg xmlns="http://www.w3.org/2000/svg" height="1924.85" width="1591.953"  xmlns:v="https://vecta.io/nano"><path d="M794.52 1912.85c359.37 0 781.3-191.2 781.3-625.56 0-102.3-349.8-196.35-781.3-196.35h-1.2c-431.5 0-781.3 94-781.3 196.35 0 434.35 422 625.56 781.3 625.56" fill="#fff" stroke="#231f20" stroke-width="24" stroke-miterlimit="10"/><path d="M787.18 1624.22q14.22 0 24.5-8.35 10.3-8.35 10.3-24a28.61 28.61 0 0 0-8.2-20.49q-8.2-8.58-22.12-8.6-9.43 0-15.54 2.63a25.11 25.11 0 0 0-9.67 7 52.82 52.82 0 0 0-6.73 11.14q-3.17 6.8-5.8 12.84a10.83 10.83 0 0 1-5.57 5.1 21.85 21.85 0 0 1-9.27 1.86q-6.2 0-11.37-5-5.18-5-5.2-13.38 0-8 4.88-16.93a61.77 61.77 0 0 1 14.23-16.94 71.44 71.44 0 0 1 23.28-12.92 93.8 93.8 0 0 1 31.08-4.87 86.74 86.74 0 0 1 27.38 4.1 64 64 0 0 1 21.5 11.83 51.26 51.26 0 0 1 13.77 18 52.46 52.46 0 0 1 4.64 22q0 15.46-6.73 26.53-6.73 11.07-19.26 21.57a85.13 85.13 0 0 1 20.34 14.85 55.51 55.51 0 0 1 16.63 40.37 68.2 68.2 0 0 1-5.65 27.22 69.26 69.26 0 0 1-16.62 23.43 79.36 79.36 0 0 1-26.07 16.09 92 92 0 0 1-33.33 5.8q-18.56 0-33.25-6.65a76.48 76.48 0 0 1-24.21-16.77 75.45 75.45 0 0 1-14.38-20.65q-4.87-10.67-4.88-17.63 0-9 5.8-14.46a20.23 20.23 0 0 1 14.47-5.49 15.39 15.39 0 0 1 8.35 2.55 12.08 12.08 0 0 1 5.26 6.11q8 21.5 17.24 31.94 9.24 10.45 25.9 10.44a39 39 0 0 0 33.18-18.71 39.8 39.8 0 0 0 5.8-21.5q0-18.1-9.9-28.4-9.9-10.28-27.53-10.28c-2.07 0-5.26.2-9.6.62l-8.35.62q-8.52 0-13.15-4.26-4.63-4.26-4.64-11.83a14.74 14.74 0 0 1 5.57-12q5.57-4.56 16.55-4.56z" fill="#231f20"/><g stroke="#231f20" stroke-width="24" stroke-linecap="round"><path d="M1525.27 1281.37c0 49-327.15 121.67-730.7 121.67h-1.3c-403.56 0-730.7-72.65-730.7-121.67" fill="none" stroke-miterlimit="10"/><g fill="#fff" stroke-linejoin="round"><path d="M1286.72 570.5l-55.88 97.9a264.49 264.49 0 0 0-33.86 106.39c-11 117.3-45.56 284.8-103.4 386.14-114.27 200.2-223.72 230-309.7 180.92s-116-158.5-1.7-358.7c57.84-101.3 184.5-216.3 279.9-285.38a264.4 264.4 0 0 0 74.4-83.26l55.88-97.9"/><path d="M783.86 1341.85c33.6 19.17 100.55-34.9 214.83-235.1 67.26-117.82 127.1-274.48 162.4-379.23a265.73 265.73 0 0 1 21.04-46.97l73.1-128"/><path d="M1223.8 534.57l-73.1 128a265.72 265.72 0 0 1-29.7 42c-72.25 83.66-176.7 214.85-244 332.68-114.24 200.25-126.75 285.4-93.15 304.6"/></g></g><path d="M1147.13 524.36l260.22-455.88c28-49 79.84-72.45 128.8-44.5h0c49 27.94 55.12 84.57 27.17 133.53L1303.06 613.4a22 22 0 0 1-29.94 8.18l-117.86-67.28a21.94 21.94 0 0 1-8.13-29.93z" fill="#231f20"/></svg>