<svg xmlns="http://www.w3.org/2000/svg" height="1924.85" width="1591.953"  xmlns:v="https://vecta.io/nano"><path d="M794.52 1912.85c359.37 0 781.3-191.2 781.3-625.56 0-102.3-349.8-196.35-781.3-196.35h-1.2c-431.5 0-781.3 94-781.3 196.35 0 434.35 422 625.56 781.3 625.56" fill="#fff" stroke="#231f20" stroke-width="24" stroke-miterlimit="10"/><path d="M789.8 1739.9v-140.75q-39.3 30.17-52.9 30.16a15.6 15.6 0 0 1-11.52-5.18 16.66 16.66 0 0 1-5-12q0-7.9 4.95-11.6 4.95-3.72 17.48-9.6 18.7-8.8 29.93-18.56a126.5 126.5 0 0 0 19.87-21.8q8.65-12.07 11.3-14.85 2.64-2.78 9.9-2.8a15.86 15.86 0 0 1 13.15 6.34q5 6.35 5 17.48v177.1q0 31.1-21.2 31.1-9.43 0-15.16-6.34-5.73-6.34-5.8-18.7z" fill="#231f20"/><g stroke="#231f20" stroke-width="24" stroke-linecap="round"><path d="M1525.27 1281.37c0 49-327.15 121.67-730.7 121.67h-1.3c-403.56 0-730.7-72.65-730.7-121.67" fill="none" stroke-miterlimit="10"/><g fill="#fff" stroke-linejoin="round"><path d="M1286.72 570.5l-55.88 97.9a264.49 264.49 0 0 0-33.86 106.39c-11 117.3-45.56 284.8-103.4 386.14-114.27 200.2-223.72 230-309.7 180.92s-116-158.5-1.7-358.7c57.84-101.3 184.5-216.3 279.9-285.38a264.4 264.4 0 0 0 74.4-83.26l55.88-97.9"/><path d="M783.86 1341.85c33.6 19.17 100.55-34.9 214.83-235.1 67.26-117.82 127.1-274.48 162.4-379.23a265.73 265.73 0 0 1 21.04-46.97l73.1-128"/><path d="M1223.8 534.57l-73.1 128a265.72 265.72 0 0 1-29.7 42c-72.25 83.66-176.7 214.85-244 332.68-114.24 200.25-126.75 285.4-93.15 304.6"/></g></g><path d="M1147.13 524.36l260.22-455.88c28-49 79.84-72.45 128.8-44.5h0c49 27.94 55.12 84.57 27.17 133.53L1303.06 613.4a22 22 0 0 1-29.94 8.18l-117.86-67.28a21.94 21.94 0 0 1-8.13-29.93z" fill="#231f20"/></svg>