<svg xmlns="http://www.w3.org/2000/svg" height="1923.99" width="1826.92"  xmlns:v="https://vecta.io/nano"><path d="M864.02 1912c391.3 0 850.7-208.2 850.7-681.12 0-111.4-380.88-213.8-850.7-213.8h-1.3c-469.83 0-850.7 102.4-850.7 213.8C12 1703.8 471.42 1912 862.7 1912" fill="#fff" stroke="#231f20" stroke-width="24" stroke-miterlimit="10"/><path d="M858.88 1723.668v-153.254q-42.776 32.84-57.596 32.84-7.073 0-12.63-5.558-5.39-5.726-5.39-13.136 0-8.59 5.39-12.63 5.39-4.042 19.03-10.44 20.378-9.6 32.503-20.21 12.294-10.6 21.725-23.746 9.43-13.136 12.294-16.167 2.863-3.03 10.778-3.03 8.926 0 14.315 6.905 5.39 6.905 5.39 19.03v192.83q0 33.85-23.072 33.85-10.273 0-16.504-6.905-6.23-6.905-6.23-20.378z" fill="#231f20"/><g stroke="#231f20" stroke-width="24" stroke-miterlimit="10"><g fill="none"><path d="M1659.68 1224.4c0 53.38-356.2 132.48-795.6 132.48h-1.4c-439.4 0-795.62-79.1-795.62-132.48" stroke-linecap="round"/><rect rx="54.85" height="410.5" width="222.2" y="856.37" x="750.52"/></g><g fill="#fff"><path d="M1096.9 12h141.16v59.2H1096.9zm-214.36 0h141.16v59.2H882.54z"/><path d="M1737.2 648.92H747.72A77.73 77.73 0 0 1 670 571.19V212a140.8 140.8 0 0 1 140.8-140.8h863.32a140.8 140.8 0 0 1 140.8 140.8v359.2a77.73 77.73 0 0 1-77.73 77.73zm-366.72-307.54h264.77a77.73 77.73 0 0 0 77.73-77.72v-12.78a77.73 77.73 0 0 0-77.73-77.73h-264.77a77.73 77.73 0 0 0-77.73 77.73v12.78a77.73 77.73 0 0 0 77.73 77.72z"/></g><path d="M795.08 173.15h299m-299 79.83h299m-299 79.82h299" fill="none" stroke-linecap="round"/><path d="M861.62 648.92v617.96" fill="#fbb040"/></g></svg>