<?xml version="1.0" encoding="UTF-8"?>
<svg id="Layer_1" data-name="Layer 1" xmlns="http://www.w3.org/2000/svg" width="2000" height="2000" viewBox="0 0 2000 2000">
  <g>
    <path d="M1000.62,1969.03c371.56,0,807.81-197.69,807.81-646.77,0-105.78-361.67-203.01-807.81-203.01h-1.25c-446.14,0-807.81,97.23-807.81,203.01,0,449.08,436.25,646.77,807.81,646.77" style="fill: #fff; stroke: #3a3632; stroke-miterlimit: 10; stroke-width: 24px;"/>
    <path d="M1084.96,1788.86c0,11.57-6.55,17.36-19.65,17.36h-124.45c-5.68,0-10.15-1.69-13.43-5.08-3.28-3.38-4.91-7.58-4.91-12.61,0-6.55,2.51-12.45,7.53-17.69l74.67-80.24c9.17-10.04,15.88-19.27,20.14-27.67,4.26-8.4,6.39-16.75,6.39-25.05,0-10.26-2.95-18.12-8.84-23.58-5.89-5.46-14.3-8.19-25.22-8.19-8.96,0-17.63,1.69-26.04,5.08-8.41,3.39-16.87,8.02-25.38,13.92-2.18,1.53-4.37,2.78-6.55,3.77-2.19,.98-4.37,1.47-6.55,1.47-3.72,0-6.93-1.75-9.66-5.24-2.73-3.49-4.09-7.64-4.09-12.45,0-3.28,.6-6.11,1.8-8.52,1.2-2.4,3.11-4.69,5.73-6.88,9.6-7.64,20.85-13.7,33.73-18.18,12.88-4.47,25.76-6.71,38.65-6.71,22.49,0,40.45,5.68,53.88,17.03,13.43,11.36,20.14,26.64,20.14,45.85,0,13.32-2.84,25.82-8.52,37.5-5.68,11.68-15.29,24.73-28.82,39.14l-56.66,60.26h86.46c13.1,0,19.65,5.57,19.65,16.7Z" style="fill: #231f20;"/>
    <path d="M1756.16,1316.11c0,50.69-338.25,125.8-755.49,125.8h-1.33c-417.25,0-755.49-75.11-755.49-125.8" style="fill: none; stroke: #3a3632; stroke-linecap: round; stroke-miterlimit: 10; stroke-width: 24px;"/>
  </g>
  <g id="layer2">
    <path id="path839" d="M1728.1,978.74c-40.8,82.83-183.19,98.07-275.07,51.17-91.88-46.9-226.23-247.78-226.23-247.78L398.95,374.35c-22.4-11.03-31.62-38.14-20.58-60.54,11.04-22.4,38.14-31.62,60.54-20.58l827.91,407.8c110.61,1.61,236.77-19,334.14,28.64,110.97,54.3,167.94,166.23,127.14,249.07h0Z" style="fill: #3a3632;"/>
  </g>
</svg>