<svg id="Layer_1" data-name="Layer 1" xmlns="http://www.w3.org/2000/svg" xmlns:xlink="http://www.w3.org/1999/xlink" viewBox="0 0 2000 1787.49"><defs><linearGradient id="linear-gradient" x1="378.21" y1="2757.59" x2="378.83" y2="2712.48" gradientTransform="translate(-2079.57 703.82) rotate(-65.54)" gradientUnits="userSpaceOnUse"><stop offset="0" stop-color="#53804a"/><stop offset="1" stop-color="#006838"/></linearGradient><linearGradient id="linear-gradient-2" x1="402.74" y1="2757.93" x2="403.36" y2="2712.82" xlink:href="#linear-gradient"/><linearGradient id="linear-gradient-3" x1="-3967.44" y1="-6326.19" x2="-3966.72" y2="-6378.73" gradientTransform="translate(-3687.13 7216.36) rotate(71.75)" xlink:href="#linear-gradient"/><linearGradient id="linear-gradient-4" x1="-3938.87" y1="-6325.8" x2="-3938.15" y2="-6378.33" gradientTransform="translate(-3687.13 7216.36) rotate(71.75)" xlink:href="#linear-gradient"/><linearGradient id="linear-gradient-5" x1="12241.04" y1="-17174.16" x2="12241.04" y2="-17325.68" gradientTransform="translate(-20118.02 -1616) rotate(63.02)" gradientUnits="userSpaceOnUse"><stop offset="0.22" stop-color="#3e914e"/><stop offset="0.36" stop-color="#2c8548"/><stop offset="0.58" stop-color="#177740"/><stop offset="0.8" stop-color="#0a6f3c"/><stop offset="1" stop-color="#066c3a"/></linearGradient><linearGradient id="linear-gradient-6" x1="-688.58" y1="2370.71" x2="-688.58" y2="2316.17" gradientTransform="translate(1556.46 -1148.99) scale(1 1.1)" gradientUnits="userSpaceOnUse"><stop offset="0" stop-color="#81be66"/><stop offset="1" stop-color="#006838"/></linearGradient><linearGradient id="linear-gradient-7" x1="11136.02" y1="-17493.08" x2="11142.97" y2="-17548.65" gradientTransform="translate(-19314.18 -3664.56) rotate(71.83)" gradientUnits="userSpaceOnUse"><stop offset="0" stop-color="#608c50"/><stop offset="1" stop-color="#006838"/></linearGradient></defs><path d="M1417.21,1367.51c7.45,11.42,2.14,3.14,3.85,5.67l.14,0,.28-.1.57-.2,1.13-.4,2.27-.8L1430,1370l9.06-3.14,18-6.23c12.06-4,23.89-8.19,35.93-11.94,23.86-7.85,47.88-14.89,71.7-22q17.88-5.26,35.89-10c11.91-3.37,23.83-6.66,35.81-9.74,24-6.07,48-12.27,70.95-17.6L1781,1272c24.68-5.41,49.61-10,74-16.17s48.11-14.27,70.78-25.53c11.4-5.42,22.48-11.81,33.49-18.4,5.72-2.68,10.45-8.3,13.38-19.3a81.18,81.18,0,0,0,1.93-9.07l1.16-11.38v-.34a83.65,83.65,0,0,0-19-56.6l-.17-.2-7.79-8.39a82.67,82.67,0,0,0-7-6.09c-9-7-16.22-8.65-22.44-7.34-12.86,1.38-25.66,3-38.14,5.51-25.09,4.69-49.14,12.49-72.49,22.3s-46.18,21.12-69.26,31.65l-69.59,30.49c-24.49,11.65-47.16,24.2-69.67,37.47q-16.89,9.87-33.51,20.21-16.5,10.58-32.68,21.59c-21.64,14.55-42.51,30.34-62.79,46.71-10.07,8.3-20.07,16.61-29.67,25.47-4.84,4.35-9.59,8.83-14.28,13.33l-6.93,6.91-3.44,3.47-1.72,1.73-.85.86-.43.43-.22.22-.1.11C1415.22,1364.27,1409.83,1356,1417.21,1367.51Z" style="fill:#231f20"/><path d="M826.71,1180.88c-443.23,0-802.54,104.24-802.54,209.33,19.85,81.41,76.67,195.7,145.26,248.06,55,37.65,295.74,130,657.24,130s606.25-92.4,661.24-130c68.59-52.36,125.41-166.65,145.26-248.06C1633.17,1285.12,1269.94,1180.88,826.71,1180.88Z" style="fill:#fff;stroke:#231f20;stroke-miterlimit:10;stroke-width:24px"/><path d="M78.78,1384.1c0,50.35,300.83,164.71,750.57,164.71s751.89-114.36,751.89-164.71" style="fill:none;stroke:#231f20;stroke-linecap:round;stroke-miterlimit:10;stroke-width:24px"/><circle cx="1393.32" cy="1341.95" r="15.9" style="fill:#231f20"/><circle cx="1493.66" cy="1380.11" r="15.9" style="fill:#231f20"/><path d="M1386,1418.38a71.92,71.92,0,0,0-66.79,12.35c-4.69,3.83-9.1,8.39-14.89,10.17-15.64,4.82-30.84-12.74-47-10.27-7.49,1.15-13.94,6.51-21.49,7-14.9,1.07-25-16.2-39.59-19.26-20.77-4.35-36.92,20.84-58.07,22.42-19.8,1.47-34.15-17.3-49.93-29.35-23.56-18-57.06-22-84.17-10-22.19,9.81-42.28,29.73-66.35,26.63-19.94-2.57-36.06-20.91-56.17-20.35-20.84.59-36.08,21.17-56.55,25.2-41.64,8.19-74.71-53.72-115.55-42.17-12.63,3.58-22.16,13.68-33.18,20.81-23.92,15.5-56.6,16.24-81.19,1.84-9.63-5.63-19.2-13.68-30.3-12.62-12.75,1.21-21.07,13.77-32.44,19.67-19.55,10.16-43.08-1-61.6-13s-39.67-25.5-60.93-19.68c-15.43,4.22-26.91,18-42.4,22-19.4,5-43.41-5.46-58.25,8-5,4.55-7.81,11.13-12.79,15.72-10.73,9.9-27.68,7.69-41.64,3.4s-28.85-10.09-42.68-5.4a20.48,20.48,0,0,0-7.15,4.35c-8.49,7.79-12.93,24.59,1.43,27.25,13.44,2.49,26.05,6.88,39.2,10.84,28.88,8.71,58.11,16.3,87.51,23.06,162.3,37.32,330,51.71,496.35,51.71,255.44,0,463.26-36.89,595.16-78C1415.38,1448.33,1401.39,1423.47,1386,1418.38Z" style="fill:#fff069;stroke:#231f20;stroke-miterlimit:10;stroke-width:24px"/><g id="layer2"><path id="path839" d="M848.74,1090.49c65.9,41.14,174.47-11.11,219.37-85.39S1120,727.61,1120,727.61L1531.11,68.94a38,38,0,1,0-64.55-40.29L1055.42,687.37C977,737.57,877.69,778.78,829.2,856c-55.27,88-46.37,193.34,19.54,234.47Z" style="fill:#231f20"/></g><polygon points="592.79 1514.48 511.56 1476.67 450.41 1425.91 450.41 1425.91 528.85 1438.66 613.01 1476.06 592.79 1514.48" style="fill:#538049;stroke:#231f20;stroke-linejoin:round;stroke-width:8px"/><path d="M483.26,1429.09c-7.06-4.64-14.88-9.15-23.07-11.29-13.44-3.52-22.6.5-22.7,1.08-.37.45,2.62,10,14.11,17.82,7,4.76,15.53,7.69,23.66,10" style="fill:#006838;stroke:#231f20;stroke-linecap:round;stroke-linejoin:round;stroke-width:8px"/><path d="M502.23,1447.33c-7.53-4.09-15.81-8-24.26-9.5-13.87-2.48-22.77,2.24-22.82,2.83-.34.48,3.52,9.79,15.79,16.71,7.48,4.22,16.35,6.49,24.76,8.13" style="fill:#006838;stroke:#231f20;stroke-linecap:round;stroke-linejoin:round;stroke-width:8px"/><path d="M514.4,1433.43c-7.45-5.51-15.71-11-24.45-14.07-14.36-5.08-24.36-2-24.48-1.44-.42.42,2.49,10.47,14.59,19.71,7.37,5.62,16.47,9.56,25.15,12.78" style="fill:#006838;stroke:#231f20;stroke-linecap:round;stroke-linejoin:round;stroke-width:8px"/><path d="M526.47,1449.91c-7.05-4.64-14.87-9.15-23.06-11.29-13.44-3.52-22.6.5-22.7,1.08-.37.45,2.62,10,14.1,17.82,7,4.76,15.54,7.69,23.67,10" style="fill:#006838;stroke:#231f20;stroke-linecap:round;stroke-linejoin:round;stroke-width:8px"/><path d="M544.32,1471.19c-8.83-4-18.49-7.83-28.09-9.23-15.78-2.29-25.29,2.63-25.29,3.23-.33.49,4.88,9.84,19.29,16.66,8.78,4.14,18.94,6.3,28.51,7.83" style="fill:#006838;stroke:#231f20;stroke-linecap:round;stroke-linejoin:round;stroke-width:8px"/><path d="M567.22,1456.26c-7.27-5.62-18.82-16.13-33.88-21.53-14.24-5.11-24.17-2.45-24.31-1.87-.42.41,2.23,10.49,14.05,19.92,7.2,5.75,26,16.9,34.61,20.27" style="fill:#006838;stroke:#231f20;stroke-linecap:round;stroke-linejoin:round;stroke-width:8px"/><path d="M561.84,1466c-7.06-4.64-14.88-9.15-23.06-11.29-13.44-3.52-22.6.5-22.7,1.08-.38.45,2.62,10,14.1,17.82,7,4.76,15.53,7.69,23.67,10" style="fill:#006838;stroke:#231f20;stroke-linecap:round;stroke-linejoin:round;stroke-width:8px"/><path d="M582.05,1485c-7.47-4-15.69-7.77-24.11-8.85-13.84-1.77-22.82,4.13-22.88,4.78-.35.57,3.34,10.66,15.5,17.49,7.41,4.17,16.25,6.06,24.63,7.29" style="stroke:#231f20;stroke-linecap:round;stroke-linejoin:round;stroke-width:8px;fill:url(#linear-gradient)"/><path d="M600.44,1471c-6.35-5.6-13.49-11.14-21.4-14.19-13-5-23-1.59-23.18-1-.45.45.93,10.9,11.21,20.31,6.26,5.72,14.4,9.64,22.24,12.83" style="stroke:#231f20;stroke-linecap:round;stroke-linejoin:round;stroke-width:8px;fill:url(#linear-gradient-2)"/><polygon points="1062.77 1460.3 1162.14 1428.48 1254.56 1423.6 1254.56 1423.6 1177.38 1474.67 1075.81 1509.15 1062.77 1460.3" style="fill:#538049;stroke:#231f20;stroke-linejoin:round;stroke-width:8px"/><path d="M1223.94,1446.83c9.71-1.61,20-3.92,28.66-8.56,14.28-7.6,18.94-18.28,18.57-18.85,0-.69-10.15-6.5-26.15-4.11-9.74,1.45-19.37,5.69-28.12,10.17" style="fill:#006838;stroke:#231f20;stroke-linecap:round;stroke-linejoin:round;stroke-width:8px"/><path d="M1193.3,1446.22c9.67-2.45,19.85-5.66,28.26-11,13.83-8.84,17.72-19.91,17.3-20.45-.1-.68-10.75-5.6-26.72-1.82-9.73,2.29-19.11,7.36-27.61,12.6" style="fill:#006838;stroke:#231f20;stroke-linecap:round;stroke-linejoin:round;stroke-width:8px"/><path d="M1193.87,1467.72c10.72-1.17,22.11-3,32-7.28,16.3-7,22.44-17.51,22.09-18.1,0-.69-10.4-7-28.06-5.34-10.74,1-21.64,4.83-31.61,8.93" style="fill:#006838;stroke:#231f20;stroke-linecap:round;stroke-linejoin:round;stroke-width:8px"/><path d="M1170.52,1463.16c9.7-1.61,20-3.92,28.65-8.55,14.28-7.61,18.95-18.29,18.57-18.86,0-.69-10.14-6.5-26.14-4.11-9.75,1.45-19.37,5.69-28.13,10.17" style="fill:#006838;stroke:#231f20;stroke-linecap:round;stroke-linejoin:round;stroke-width:8px"/><path d="M1138.44,1459.05c10.72-3.54,22-7.9,31.32-14.3,15.31-10.5,19.57-22.23,19.1-22.73-.11-.69-12-4.57-29.68,1-10.78,3.39-21.18,9.57-30.58,15.83" style="fill:#006838;stroke:#231f20;stroke-linecap:round;stroke-linejoin:round;stroke-width:8px"/><path d="M1130.64,1489.91c10.67-.93,28.84-1.06,46-8.33,16.22-6.88,22.61-17,22.27-17.61,0-.69-10.19-7.22-27.76-6-10.7.78-35.63,6.12-45.62,10" style="fill:#006838;stroke:#231f20;stroke-linecap:round;stroke-linejoin:round;stroke-width:8px"/><path d="M1127.55,1477.33c9.7-1.6,20-3.92,28.65-8.55,14.28-7.61,19-18.29,18.57-18.86,0-.68-10.14-6.49-26.15-4.11-9.74,1.45-19.36,5.69-28.12,10.17" style="fill:#006838;stroke:#231f20;stroke-linecap:round;stroke-linejoin:round;stroke-width:8px"/><path d="M1095.27,1477.06c9.55-2.46,19.56-5.74,27.61-11.48,13.24-9.42,16.27-21.56,15.8-22.17-.15-.75-11.28-6.47-27.08-2.71-9.63,2.29-18.68,7.65-26.83,13.23" style="stroke:#231f20;stroke-linecap:round;stroke-linejoin:round;stroke-width:8px;fill:url(#linear-gradient-3)"/><path d="M1090.58,1503.55c9.85-.22,20.34-1.12,29.52-4.76,15.09-6,20.91-16.79,20.6-17.47,0-.74-9.4-8.59-25.63-8.52-9.87,0-19.94,3.12-29.17,6.59" style="stroke:#231f20;stroke-linecap:round;stroke-linejoin:round;stroke-width:8px;fill:url(#linear-gradient-4)"/><path d="M656.06,1450.19c14.15-4.59,31.1-5,47.33-5.33,10.66-.21,14.17,2.44,18.13,7.77,3.64,4.9,6.74,10.15,5.87,15.54-1.08,6.65-6,13.65-16.37,17.16s-23,3.07-34.24,1.86c-14-1.52-31-4.41-38-12.33C630.69,1465.65,641.8,1454.82,656.06,1450.19Z" style="fill:#be1e2d;stroke:#231f20;stroke-linejoin:round;stroke-width:12px"/><path d="M926.45,1460.53c14.2,0,28.65,5.83,42.45,11.49,9.06,3.72,10.68,8,11.33,15.58.59,6.93.56,14.06-2.89,19.88-4.25,7.16-11.92,13.32-22.38,13.47s-20.89-5-29.7-10.59c-11-6.94-23.83-16.53-25.71-28.14C897.36,1468.72,912.14,1460.52,926.45,1460.53Z" style="fill:#be1e2d;stroke:#231f20;stroke-linejoin:round;stroke-width:12px"/><path d="M342.14,1416.74c14.2,0,28.66,5.82,42.45,11.49,9.07,3.72,10.68,8,11.33,15.58.6,6.92.56,14-2.89,19.87-4.24,7.17-11.92,13.32-22.38,13.47s-20.89-5-29.7-10.59c-11-6.94-23.83-16.53-25.71-28.13C313.06,1424.93,327.83,1416.72,342.14,1416.74Z" style="fill:#be1e2d;stroke:#231f20;stroke-linejoin:round;stroke-width:12px"/><path d="M746.58,1463,862,1405.46l16.79,57.77L760,1525C740.12,1513.69,731.42,1482.7,746.58,1463Z" style="stroke:#231f20;stroke-linejoin:round;stroke-width:12px;fill:url(#linear-gradient-5)"/><ellipse cx="867.88" cy="1435.16" rx="12.03" ry="30.07" transform="translate(-398.76 335.83) rotate(-17.88)" style="stroke:#231f20;stroke-linejoin:round;stroke-width:12px;fill:url(#linear-gradient-6)"/><path d="M784.51,1478.39c11.23-2.87,23-6.71,32.46-13.43,15.56-11,19.14-25.29,18.59-26-.17-.88-13.24-7.61-31.8-3.23-11.31,2.67-22,9-31.53,15.49" style="stroke:#231f20;stroke-linecap:round;stroke-linejoin:round;stroke-width:12px;fill:url(#linear-gradient-7)"/></svg>