<?xml version="1.0" encoding="UTF-8"?>
<svg id="Layer_1" data-name="Layer 1" xmlns="http://www.w3.org/2000/svg" width="1853.16" height="2000" viewBox="0 0 1853.16 2000">
  <g>
    <path d="M882.94,1973.77c387.66,0,842.83-206.26,842.83-674.82,0-110.37-377.35-211.81-842.83-211.81h-1.3c-465.48,0-842.83,101.45-842.83,211.81,0,468.55,455.17,674.82,842.83,674.82h1.3Z" style="fill: #fff; stroke: #3a3632; stroke-miterlimit: 10; stroke-width: 20px;"/>
    <path d="M972.12,1785.78c0,12.08-6.83,18.11-20.5,18.11h-115.5c-13.9,0-20.84-6.03-20.84-18.11s6.95-17.43,20.84-17.43h35.54v-155.82l-32.8,20.16c-3.19,1.83-6.04,2.73-8.54,2.73-4.78,0-8.83-2.05-12.13-6.15-3.3-4.1-4.95-8.65-4.95-13.67,0-6.6,2.96-11.73,8.88-15.38l52.97-32.8c6.83-4.1,13.33-6.15,19.48-6.15s11.5,1.94,15.38,5.81c3.87,3.88,5.81,9.23,5.81,16.06v185.21h35.88c13.67,0,20.5,5.81,20.5,17.43Z" style="fill: #3a3632;"/>
    <path d="M1671.23,1292.54c0,52.89-352.91,131.25-788.25,131.25h-1.39c-435.34,0-788.25-78.37-788.25-131.25" style="fill: none; stroke: #3a3632; stroke-linecap: round; stroke-miterlimit: 10; stroke-width: 20px;"/>
  </g>
  <g id="layer2" transform="translate(-105.45367,-43.482405)">
    <path id="path839" d="M1001.44,1333.85c78.33,48.89,207.37-13.21,260.73-101.49,53.37-88.28,61.67-329.81,61.67-329.81L1812.46,119.7c13.22-21.19,6.77-49.08-14.42-62.3-21.19-13.22-49.08-6.77-62.3,14.42l-488.65,782.91c-93.15,59.67-211.23,108.64-268.87,200.45-65.69,104.63-55.11,229.78,23.22,278.67h0Z" style="fill: #3a3632;"/>
  </g>
</svg>