<svg xmlns="http://www.w3.org/2000/svg" height="1922.898" width="1587.82"  xmlns:v="https://vecta.io/nano"><path d="M794.5 1910.898c359.37 0 781.3-191.2 781.3-625.56 0-102.3-349.8-196.35-781.3-196.35h-1.2c-431.5 0-781.3 94-781.3 196.35 0 434.35 421.94 625.56 781.3 625.56" fill="#fff" stroke="#231f20" stroke-width="24" stroke-miterlimit="10"/><path d="M789.82 1737.898v-140.72q-39.3 30.17-52.9 30.17a15.63 15.63 0 0 1-11.53-5.19 16.67 16.67 0 0 1-5-12q0-7.9 5-11.6 5-3.7 17.47-9.6 18.72-8.82 29.93-18.56a127 127 0 0 0 19.88-21.81q8.65-12.08 11.3-14.85 2.64-2.77 9.9-2.8a15.87 15.87 0 0 1 13.15 6.35q5 6.35 5 17.47v177.12q0 31.1-21.2 31.1-9.45 0-15.16-6.34-5.7-6.34-5.84-18.75z" fill="#231f20"/><path d="M1525.26 1279.388c0 49-327.15 121.67-730.7 121.67h-1.28c-403.56 0-730.7-72.64-730.7-121.67" fill="none" stroke="#231f20" stroke-width="24" stroke-linecap="round" stroke-miterlimit="10"/><path d="M1118.82 777.298l403.7-625.5c27.4-46.27 22.42-100.34-23.85-127.73h0c-46.28-27.4-96.06-5.73-123.45 40.54l-354.15 654.85" fill="#231f20"/><g fill="#fff" stroke="#231f20" stroke-width="24" stroke-linejoin="round"><path d="M810.438 1296.953l-178.25-105.5a20.42 20.42 0 0 1-7.172-27.973l282.4-477.15a29.32 29.32 0 0 1 40.166-10.298l244.512 144.72a29.32 29.32 0 0 1 10.298 40.166l-234.12 395.558a115.22 115.22 0 0 1-157.841 40.468z"/><path d="M1033.3 957.898l-99.8 168.6a104.8 104.8 0 0 1-143.57 36.8l-36.3-21.4" stroke-linecap="round"/></g></svg>