<svg xmlns="http://www.w3.org/2000/svg" height="1924.85" width="1591.953"  xmlns:v="https://vecta.io/nano"><path d="M794.52 1912.85c359.37 0 781.3-191.2 781.3-625.56 0-102.3-349.8-196.35-781.3-196.35h-1.2c-431.5 0-781.3 94-781.3 196.35 0 434.35 422 625.56 781.3 625.56" fill="#fff" stroke="#231f20" stroke-width="24" stroke-miterlimit="10"/><path d="M771.13 1724.6h80.74q12.06 0 18.4 5a16.19 16.19 0 0 1 6.34 13.46 17.91 17.91 0 0 1-5 12.84q-5 5.25-15.23 5.25h-113.9q-11.6 0-18.1-6.4a20.54 20.54 0 0 1-6.5-15.09q0-5.57 4.18-14.77a53 53 0 0 1 9.13-14.46q20.57-21.35 37.12-36.58 16.55-15.23 23.66-20a136.94 136.94 0 0 0 21.12-18 71.84 71.84 0 0 0 12.83-18.56 44.09 44.09 0 0 0 4.41-18.64 33.56 33.56 0 0 0-4.72-17.71 32.72 32.72 0 0 0-12.83-12.14 37.16 37.16 0 0 0-17.71-4.33q-20.27 0-31.87 17.8-1.55 2.33-5.18 12.68-3.63 10.35-8.2 15.93-4.56 5.58-13.37 5.57a17.41 17.41 0 0 1-12.84-5.1q-5.12-5.12-5.1-13.92a58.22 58.22 0 0 1 4.8-22.28 63.64 63.64 0 0 1 14.31-21 70.87 70.87 0 0 1 24.12-15.24q14.63-5.8 34.26-5.8 23.67 0 40.37 7.43a60.68 60.68 0 0 1 19 13.61 63.86 63.86 0 0 1 17.32 43.62 66 66 0 0 1-9.51 34.87q-9.5 15.7-19.4 24.6-9.9 8.9-33.18 27.92-23.28 19-31.94 29.54a88 88 0 0 0-7.51 9.92z" fill="#231f20"/><g stroke="#231f20" stroke-width="24" stroke-linecap="round"><path d="M1525.27 1281.37c0 49-327.15 121.67-730.7 121.67h-1.3c-403.56 0-730.7-72.65-730.7-121.67" fill="none" stroke-miterlimit="10"/><g fill="#fff" stroke-linejoin="round"><path d="M1286.72 570.5l-55.88 97.9a264.49 264.49 0 0 0-33.86 106.39c-11 117.3-45.56 284.8-103.4 386.14-114.27 200.2-223.72 230-309.7 180.92s-116-158.5-1.7-358.7c57.84-101.3 184.5-216.3 279.9-285.38a264.4 264.4 0 0 0 74.4-83.26l55.88-97.9"/><path d="M783.86 1341.85c33.6 19.17 100.55-34.9 214.83-235.1 67.26-117.82 127.1-274.48 162.4-379.23a265.73 265.73 0 0 1 21.04-46.97l73.1-128"/><path d="M1223.8 534.57l-73.1 128a265.72 265.72 0 0 1-29.7 42c-72.25 83.66-176.7 214.85-244 332.68-114.24 200.25-126.75 285.4-93.15 304.6"/></g></g><path d="M1147.13 524.36l260.22-455.88c28-49 79.84-72.45 128.8-44.5h0c49 27.94 55.12 84.57 27.17 133.53L1303.06 613.4a22 22 0 0 1-29.94 8.18l-117.86-67.28a21.94 21.94 0 0 1-8.13-29.93z" fill="#231f20"/></svg>