<svg xmlns="http://www.w3.org/2000/svg" viewBox="0 0 2000 2000"><g id="Layer_2" data-name="Layer 2"><path d="M1171.5,451.91l-101.62,48.76A264.49,264.49,0,0,0,981.53,569c-75.71,90.25-199.4,208.39-304.6,258.87-207.82,99.72-314.81,62-357.65-27.25s-5.3-196.31,202.52-296c105.21-50.48,274.75-73,392.52-75.64a264.57,264.57,0,0,0,108.54-26.2l101.62-48.77" style="fill:#fff;stroke:#231f20;stroke-linecap:round;stroke-linejoin:round;stroke-width:24px"/><path d="M319.28,800.57C336,835.45,421.84,829,629.67,729.31,752,670.62,890.28,575.77,978.88,509.66a265.35,265.35,0,0,1,44-26.63l132.92-63.78" style="fill:#fff;stroke:#231f20;stroke-linecap:round;stroke-linejoin:round;stroke-width:24px"/><path d="M1140.15,386.59l-132.91,63.78a266.38,266.38,0,0,1-48.33,17.68c-107,27.75-267.52,76.29-389.84,135C361.25,702.76,302.55,765.7,319.28,800.57" style="fill:#fff;stroke:#231f20;stroke-linecap:round;stroke-linejoin:round;stroke-width:24px"/><path d="M1082.85,334.57l473.26-227.09c50.82-24.39,106.87-14.21,131.26,36.62h0c24.38,50.82-2.74,100.91-53.56,125.3L1160.55,496.49a21.94,21.94,0,0,1-29.28-10.29l-58.71-122.35A22,22,0,0,1,1082.85,334.57Z" style="fill:#231f20"/><g id="layer3"><path id="path916" d="M1389.27,1167.6v661.15a137.46,137.46,0,0,1-137.21,137.71H159.47A137.45,137.45,0,0,1,21.71,1829.31V1167.55Z" style="fill:#fff;stroke:#221f1f;stroke-linecap:round;stroke-linejoin:round;stroke-width:24px"/></g><path d="M1980.29,1395.63,1477.69,1379a61.24,61.24,0,0,0-58.22,37.41L1389.25,1488V1270.37l591-19.27Z" style="fill:#fff;stroke:#221f1f;stroke-linecap:round;stroke-linejoin:round;stroke-width:24px"/></g></svg>