<?xml version="1.0" encoding="UTF-8" standalone="no"?>
<svg
   xmlns:dc="http://purl.org/dc/elements/1.1/"
   xmlns:cc="http://creativecommons.org/ns#"
   xmlns:rdf="http://www.w3.org/1999/02/22-rdf-syntax-ns#"
   xmlns:svg="http://www.w3.org/2000/svg"
   xmlns="http://www.w3.org/2000/svg"
   xmlns:sodipodi="http://sodipodi.sourceforge.net/DTD/sodipodi-0.dtd"
   xmlns:inkscape="http://www.inkscape.org/namespaces/inkscape"
   inkscape:version="1.0beta1 (32d4812, 2019-09-19)"
   sodipodi:docname="mix_bowl_spoon.svg"
   id="svg843"
   version="1.1"
   width="1599.825"
   height="1924.219">
  <metadata
     id="metadata849">
    <rdf:RDF>
      <cc:Work
         rdf:about="">
        <dc:format>image/svg+xml</dc:format>
        <dc:type
           rdf:resource="http://purl.org/dc/dcmitype/StillImage" />
        <dc:title></dc:title>
      </cc:Work>
    </rdf:RDF>
  </metadata>
  <defs
     id="defs847" />
  <sodipodi:namedview
     inkscape:current-layer="svg843"
     inkscape:window-maximized="0"
     inkscape:window-y="25"
     inkscape:window-x="0"
     inkscape:cy="1131.4286"
     inkscape:cx="400"
     inkscape:zoom="0.35"
     showgrid="false"
     id="namedview845"
     inkscape:window-height="907"
     inkscape:window-width="1600"
     inkscape:pageshadow="2"
     inkscape:pageopacity="0"
     guidetolerance="10"
     gridtolerance="10"
     objecttolerance="10"
     borderopacity="1"
     inkscape:document-rotation="0"
     bordercolor="#666666"
     pagecolor="#ffffff" />
  <path
     id="path833"
     stroke-miterlimit="10"
     stroke-width="24"
     stroke="#231f20"
     fill="#fff"
     d="M794.52 1912.22c359.37 0 781.3-191.2 781.3-625.56 0-102.3-349.8-196.35-781.3-196.35h-1.2c-431.5 0-781.3 94-781.3 196.35 0 434.35 422 625.56 781.3 625.56" />
  <g
     id="g841"
     stroke-miterlimit="10"
     stroke-width="24"
     stroke="#231f20">
    <path
       id="path837"
       stroke-linecap="round"
       fill="none"
       d="M1525.27 1280.74c0 49-327.15 121.67-730.7 121.67h-1.3c-403.56 0-730.7-72.65-730.7-121.67" />
    <path
       id="path839"
       fill="#fff"
       d="M808.76 1317.22c79.7 46.43 206.65-19.5 257.24-109.3s51.52-331.18 51.52-331.18l464-796.56A45.17 45.17 0 0 0 1542.72 12a45.17 45.17 0 0 0-39.26 22.719l-464 796.62c-91.23 62.38-207.63 114.88-262.33 208.3-62.4 106.47-48 231.1 31.68 277.54z" />
  </g>
</svg>
