<svg xmlns="http://www.w3.org/2000/svg" height="1922.898" width="1587.82"  xmlns:v="https://vecta.io/nano"><path d="M794.5 1910.898c359.37 0 781.3-191.2 781.3-625.56 0-102.3-349.8-196.35-781.3-196.35h-1.2c-431.5 0-781.3 94-781.3 196.35 0 434.35 421.9 625.56 781.3 625.56" fill="#fff" stroke="#231f20" stroke-width="24" stroke-miterlimit="10"/><path d="M787.17 1622.238q14.22 0 24.5-8.35 10.3-8.35 10.3-24a28.68 28.68 0 0 0-8.2-20.5q-8.2-8.58-22.12-8.58-9.43 0-15.54 2.63a24.9 24.9 0 0 0-9.67 7 52.31 52.31 0 0 0-6.73 11.13q-3.16 6.8-5.8 12.84a10.82 10.82 0 0 1-5.57 5.1 21.87 21.87 0 0 1-9.28 1.86q-6.18 0-11.37-5-5.2-5-5.18-13.38 0-8 4.87-16.93a61.77 61.77 0 0 1 14.23-16.94 71.45 71.45 0 0 1 23.3-12.95 93.64 93.64 0 0 1 31.09-4.88 86.79 86.79 0 0 1 27.38 4.1 64.07 64.07 0 0 1 21.5 11.84 51 51 0 0 1 13.76 17.94 52.33 52.33 0 0 1 4.64 22q0 15.46-6.72 26.53-6.72 11.07-19.26 21.57a85.33 85.33 0 0 1 20.34 14.85 55.56 55.56 0 0 1 16.63 40.37 68.34 68.34 0 0 1-5.65 27.22 69.56 69.56 0 0 1-16.63 23.44 79.12 79.12 0 0 1-26.06 16.08 92.09 92.09 0 0 1-33.33 5.8q-18.57 0-33.26-6.65a76.17 76.17 0 0 1-38.59-37.27q-4.86-10.68-4.87-17.64 0-9 5.8-14.46a20.23 20.23 0 0 1 14.46-5.49 15.42 15.42 0 0 1 8.36 2.55 12 12 0 0 1 5.25 6.11q8.05 21.5 17.25 31.94 9.2 10.43 25.9 10.4a38.91 38.91 0 0 0 33.18-18.71 39.8 39.8 0 0 0 5.8-21.5q0-18.1-9.9-28.38-9.9-10.27-27.54-10.3-3.1 0-9.58.62l-8.36.62q-8.5 0-13.14-4.26-4.63-4.26-4.64-11.83a14.76 14.76 0 0 1 5.56-12q5.58-4.56 16.55-4.56z" fill="#231f20"/><path d="M1525.26 1279.388c0 49-327.15 121.67-730.7 121.67h-1.28c-403.56 0-730.7-72.64-730.7-121.67" fill="none" stroke="#231f20" stroke-width="24" stroke-linecap="round" stroke-miterlimit="10"/><path d="M1112.9 777.298l403.7-625.5c27.4-46.27 22.42-100.34-23.85-127.73h0c-46.28-27.4-96.06-5.73-123.45 40.54l-354.15 654.85" fill="#231f20"/><g fill="#fff" stroke="#231f20" stroke-width="24" stroke-linejoin="round"><path d="M804.528 1296.953l-178.25-105.5a20.42 20.42 0 0 1-7.172-27.973l282.4-477.15a29.32 29.32 0 0 1 40.166-10.298l244.512 144.72a29.32 29.32 0 0 1 10.298 40.166l-234.12 395.558a115.22 115.22 0 0 1-157.841 40.468z"/><path d="M1027.4 957.898l-99.8 168.6a104.8 104.8 0 0 1-143.57 36.8l-36.3-21.4" stroke-linecap="round"/></g></svg>