<svg xmlns="http://www.w3.org/2000/svg" height="1924.219" width="1599.825"  xmlns:v="https://vecta.io/nano"><path d="M794.52 1912.22c359.37 0 781.3-191.2 781.3-625.56 0-102.3-349.8-196.35-781.3-196.35h-1.2c-431.5 0-781.3 94-781.3 196.35 0 434.35 422 625.56 781.3 625.56" fill="#fff" stroke="#231f20" stroke-width="24" stroke-miterlimit="10"/><path d="M771.13 1723.97h80.74q12.06 0 18.4 5a16.19 16.19 0 0 1 6.34 13.46 17.91 17.91 0 0 1-5 12.84q-5 5.25-15.23 5.25h-113.9q-11.6 0-18.1-6.4a20.54 20.54 0 0 1-6.5-15.09q0-5.57 4.18-14.77a52.75 52.75 0 0 1 9.13-14.46q20.57-21.35 37.12-36.58 16.55-15.23 23.66-20a136.94 136.94 0 0 0 21.12-18 71.84 71.84 0 0 0 12.83-18.56 44.09 44.09 0 0 0 4.41-18.64 33.56 33.56 0 0 0-4.72-17.71 32.72 32.72 0 0 0-12.83-12.14 37.16 37.16 0 0 0-17.71-4.33q-20.27 0-31.87 17.8-1.55 2.33-5.18 12.68-3.63 10.35-8.2 15.93-4.56 5.58-13.37 5.57a17.41 17.41 0 0 1-12.84-5.1q-5.12-5.12-5.1-13.92a58.22 58.22 0 0 1 4.8-22.28 63.64 63.64 0 0 1 14.31-21 70.87 70.87 0 0 1 24.12-15.24q14.63-5.8 34.26-5.8 23.67 0 40.37 7.43a60.68 60.68 0 0 1 19 13.61 63.86 63.86 0 0 1 17.32 43.62 66 66 0 0 1-9.51 34.87q-9.5 15.7-19.4 24.6-9.9 8.9-33.18 27.92-23.28 19-31.94 29.54a88 88 0 0 0-7.51 9.92z" fill="#231f20"/><g stroke="#231f20" stroke-width="24" stroke-miterlimit="10"><path d="M1525.27 1280.74c0 49-327.15 121.67-730.7 121.67h-1.3c-403.56 0-730.7-72.65-730.7-121.67" fill="none" stroke-linecap="round"/><path d="M808.76 1317.22c79.7 46.43 206.65-19.5 257.24-109.3s51.52-331.18 51.52-331.18l464-796.56A45.17 45.17 0 0 0 1542.72 12a45.17 45.17 0 0 0-39.26 22.719l-464 796.62c-91.23 62.38-207.63 114.88-262.33 208.3-62.4 106.47-48 231.1 31.68 277.54z" fill="#fff"/></g></svg>