<svg xmlns="http://www.w3.org/2000/svg" height="1922.898" width="1587.82"  xmlns:v="https://vecta.io/nano"><path d="M794.5 1910.898c359.37 0 781.3-191.2 781.3-625.56 0-102.3-349.8-196.35-781.3-196.35h-1.2c-431.5 0-781.3 94-781.3 196.35 0 434.35 421.9 625.56 781.3 625.56" fill="#fff" stroke="#231f20" stroke-width="24" stroke-miterlimit="10"/><path d="M771.08 1722.618h80.74q12.06 0 18.4 5a16.17 16.17 0 0 1 6.35 13.46 17.91 17.91 0 0 1-5 12.84q-5 5.25-15.24 5.26H742.47q-11.6 0-18.1-6.42a20.54 20.54 0 0 1-6.5-15.08q0-5.58 4.18-14.77a52.9 52.9 0 0 1 9.12-14.47q20.58-21.35 37.13-36.58 16.55-15.23 23.66-20a136.28 136.28 0 0 0 21.11-18 71.48 71.48 0 0 0 12.84-18.66 44.09 44.09 0 0 0 4.41-18.63 33.51 33.51 0 0 0-4.72-17.71 32.7 32.7 0 0 0-12.84-12.15 37.1 37.1 0 0 0-17.71-4.33q-20.26 0-31.86 17.8-1.54 2.32-5.18 12.68-3.64 10.36-8.2 15.94-4.56 5.56-13.38 5.56a17.4 17.4 0 0 1-12.83-5.1q-5.12-5.1-5.1-13.92a58.14 58.14 0 0 1 4.8-22.27 63.7 63.7 0 0 1 14.3-21 70.74 70.74 0 0 1 24.13-15.23q14.63-5.8 34.26-5.8 23.67 0 40.37 7.43a60.84 60.84 0 0 1 19 13.61 63.86 63.86 0 0 1 17.32 43.62 66 66 0 0 1-9.51 34.88q-9.5 15.7-19.4 24.6-9.9 8.9-33.18 27.92-23.28 19-31.94 29.54a87.77 87.77 0 0 0-7.55 10.01z" fill="#231f20"/><path d="M1525.26 1279.388c0 49-327.15 121.67-730.7 121.67h-1.28c-403.56 0-730.7-72.64-730.7-121.67" fill="none" stroke="#231f20" stroke-width="24" stroke-linecap="round" stroke-miterlimit="10"/><path d="M1112.9 777.298l403.7-625.5c27.4-46.27 22.42-100.34-23.85-127.73h0c-46.28-27.4-96.06-5.73-123.45 40.54l-354.15 654.85" fill="#231f20"/><g fill="#fff" stroke="#231f20" stroke-width="24" stroke-linejoin="round"><path d="M804.528 1296.953l-178.25-105.5a20.42 20.42 0 0 1-7.172-27.973l282.4-477.15a29.32 29.32 0 0 1 40.166-10.298l244.512 144.72a29.32 29.32 0 0 1 10.298 40.166l-234.12 395.558a115.22 115.22 0 0 1-157.841 40.468z"/><path d="M1027.4 957.898l-99.8 168.6a104.8 104.8 0 0 1-143.57 36.8l-36.3-21.4" stroke-linecap="round"/></g></svg>