<svg xmlns="http://www.w3.org/2000/svg" height="1923.287" width="1829.643"  xmlns:v="https://vecta.io/nano"><path d="M873.14 919.076c55.4 34.6 146.7-9.34 184.44-71.8s43.63-233.3 43.63-233.3l345.6-553.77c8.787-14.95 4.07-34.178-10.64-43.36s-34.057-4.98-43.63 9.48l-345.64 553.82c-65.9 42.2-149.42 76.85-190.2 141.8-46.47 74-39 162.55 16.42 197.13z" fill="#231f20"/><path d="M1513.82 982.066l233.75 26c91.36 10.15 92 150.24 10 179.82l-243.75 87.87zm-1198 0l-233.75 26c-91.36 10.15-92 150.24-10 179.82l243.75 87.87zm1198-180.06v936.93a172 172 0 0 1-172.35 172.35h-853.3a172 172 0 0 1-172.35-172.35v-936.93z" fill="#fff" stroke="#231f20" stroke-width="24" stroke-linejoin="round"/></svg>