<svg xmlns="http://www.w3.org/2000/svg" xmlns:xlink="http://www.w3.org/1999/xlink" height="1609.83" width="1924" xmlns:v="https://vecta.io/nano"><style><![CDATA[.B{fill:none}.C{fill:#fff}.D{stroke-miterlimit:15.1181}.E{stroke-linecap:round}.F{stroke-width:24}.G{stroke-miterlimit:10}]]></style><g stroke="#010101"><g class="F"><path d="M763.83 280.35v-221c0-26.15 20.3-47.35 45.37-47.35h1009.4c25.06 0 45.37 21.2 45.37 47.35v221" class="C D"/><g class="B"><circle r="41.94" cy="125.32" cx="907.73"/><circle r="41.94" cy="125.32" cx="1046.98"/><circle r="41.94" cy="125.32" cx="1705.77"/><circle r="41.94" cy="125.32" cx="1568.55"/><circle r="41.94" cy="125.32" cx="1305.85"/></g><g class="D"><rect rx="47.35" height="1317.48" width="1212.3" y="280.35" x="699.7" class="C"/><g class="B"><path d="M704.2 1351.06H1907.5"/><rect rx="15.78" height="73.58" width="1060.88" y="463.11" x="775.41"/><path d="M704.2 378.93H1907.5"/></g></g></g><path d="M867.76 254.06h350.78m174.62 0h350.78" stroke-width="31.565" class="E B D"/><g class="F D"><rect rx="94.7" height="646.02" width="880.13" y="620.86" x="865.79" class="C"/><g class="B E"><path d="M868.36 1070.8h879.36m-795.48 0v186.32m118.6-186.32v186.32m118.6-186.32v186.32"/><path d="M1308.04 1070.8v186.32m118.6-186.32v186.32m118.6-186.32v186.32m118.6-186.32v186.32"/></g></g></g><g stroke="#231f20"><g stroke-width="7.891" class="G"><use xlink:href="#B" class="C"/><path d="M104.06 623.16v75.82m23.88-75.82l-8.75 75.82m32.6-75.82l-17.48 75.82m-54.14-75.82l8.75 75.82M56.3 623.16l17.48 75.82" class="B"/><use xlink:href="#B" x="197.27" class="C"/><path d="M301.33 623.16v75.82m23.87-75.82l-8.75 75.82m32.63-75.82l-17.48 75.82m-54.15-75.82l8.74 75.82m-32.62-75.82l17.5 75.82" class="B"/><path d="M544 698.98l26.23-75.82-11.94-8.8-11.94 8.8-11.94-8.8-11.93 8.8-11.94-8.8-11.94 8.8-11.94-8.8-11.94 8.8-11.94-8.8-11.94 8.8-11.93-8.8-11.94 8.8 26.22 75.82z" class="C"/><path d="M498.6 623.16v75.82m23.88-75.82l-8.75 75.82m32.62-75.82l-17.48 75.82m-54.15-75.82l8.74 75.82m-32.62-75.82l17.5 75.82" class="B"/><path d="M741.27 698.98l26.23-75.82-11.94-8.8-11.94 8.8-11.94-8.8-11.94 8.8-11.93-8.8-11.94 8.8-11.94-8.8-11.94 8.8-11.94-8.8-11.94 8.8-11.94-8.8-11.93 8.8 26.23 75.82z" class="C"/><path d="M695.87 623.16v75.82m23.87-75.82L711 698.98m32.62-75.82l-17.48 75.82M672 623.16l8.74 75.82m-32.64-75.82l17.5 75.82" class="B"/></g><g stroke-width="15.783" class="C G"><path d="M12 648.2h779.08" opacity="1" class="E"/><path d="M237.58 648.2h127.5l-12.46 58H250.05zm-197.28 0h127.5l-12.46 58H52.74zm394.56 0h127.5l-12.47 58H447.32zm197.27 0h127.5l-12.46 58H644.6z" opacity="1"/></g><path d="M1189.02 892.2h-342.6c-80.848 0-156.25-40.748-200.55-108.38h0m454.78 20l104.15 88.36-104.15 88.36" stroke-linejoin="round" class="B E F"/></g><defs ><path id="B" d="M149.46 698.98l26.23-75.82-11.94-8.8-11.94 8.8-11.94-8.8-11.93 8.8-11.94-8.8-11.94 8.8-11.94-8.8-11.94 8.8-11.94-8.8-11.94 8.8-11.93-8.8-11.94 8.8 26.23 75.82z"/></defs></svg>