<svg id="Layer_1" data-name="Layer 1" xmlns="http://www.w3.org/2000/svg" viewBox="0 0 2000 808.33"><path d="M1958.31,710,1894,759.24a43.67,43.67,0,0,1-26.58,9.2h-1735a43.61,43.61,0,0,1-26.2-8.92L45.83,714.27" style="fill:#f1f1f2;stroke:#3a3632;stroke-miterlimit:10;stroke-width:16.8836891491864px"/><path d="M1897.76,733.23H102.24c-54.49,0-84.46-35.8-67.5-78.6L261.16,83.46c9.64-24.32,49.26-43.57,88.71-43.57H1650.13c39.45,0,79.07,19.25,88.71,43.57l226.42,571.17C1982.22,697.43,1952.25,733.23,1897.76,733.23Z" style="fill:#f1f1f2;stroke:#3a3632;stroke-miterlimit:10;stroke-width:20px"/><path d="M81.46,675.76,293.53,125.13c7.87-20.46,41-36.71,74.09-36.71H1632.35c33.13,0,66.23,16.25,74.1,36.71l209.86,543" style="fill:none;stroke:#3a3632;stroke-linecap:round;stroke-linejoin:round;stroke-width:10px"/><ellipse cx="469.99" cy="539.55" rx="283.1" ry="157.46" style="fill:#ecdaba;stroke:#3a3632;stroke-linecap:round;stroke-linejoin:round;stroke-width:10px;isolation:isolate;opacity:0.991999983787537"/><path d="M469.82,673.85c-7.69.73-15.34,2.31-23,1.58-9.67-.92-18.88-5.48-28.59-5.24a89,89,0,0,0-10.78,1.38,42.51,42.51,0,0,1-5.4.5,38.54,38.54,0,0,1-4.92-.28q-4.65-.52-9.3-1.13c-2.91-.38-5.9-1-8.84-1.15-2-.08-3.53.19-5.44-.57-5.76-2.28-11.37-5-17-7.53a43,43,0,0,0-10-3.47c-4-.7-8.1-.25-12.16-.2a62.19,62.19,0,0,1-31.62-8.27c-5.82-3.36-11.45-7.8-18.15-8.31-3.35-.25-6.83.51-10-.51-6.9-2.2-9.65-11.57-16.65-13.44-4.09-1.09-8.82.7-12.49-1.42-3.27-1.9-4.26-6.07-6.31-9.24-2.63-4.07-7.07-6.52-11-9.37A22.7,22.7,0,0,1,222,601a14,14,0,0,1-1.59-3.87c-.47-1.7-1.41-3.13-1.9-4.86-.8-2.82-1.13-5.79-2.35-8.45-2.06-4.5-6.33-7.49-10-10.8a22.44,22.44,0,0,1-5.57-7,10.91,10.91,0,0,1-1.12-4.14c0-.58.15-1.14.14-1.69,0-1.79-.95-3.69-1.39-5.42q-.78-3.09-1.39-6.23c-.4-2.13-.75-4.26-1-6.4s-.52-4.38-.69-6.57c-.07-.94-.13-1.87-.18-2.81q-.16,3.26-.17,6.59C194.72,642.25,318,688.86,470,688.86S745.27,637.7,745.27,539.39c0-2.22-.07-4.42-.19-6.59a105.9,105.9,0,0,1-11,41.37A108.33,108.33,0,0,1,727,586.35c-1.33,2-2.78,3.87-4.17,5.8-.91,1.27-1.48,2.73-2.77,3.67-3.92,2.88-8.46,4.86-12.36,7.87A78.15,78.15,0,0,0,697,613.61c-2.86,3.21-5.48,6.69-8.84,9.38-9.21,7.41-22.25,7.77-32.6,13.49-7.19,4-13,10.49-20.8,13-8.49,2.76-18.13.37-26.41,3.72-3.86,1.57-7.1,4.26-10.51,6.6a5.94,5.94,0,0,1-1.42.83c-.24.09-.49.14-.73.24-.73.31-1.38.81-2.1,1.14a15.78,15.78,0,0,1-2.3.83,24.21,24.21,0,0,1-6.34.78c-3.91,0-7.82-.57-11.73-.4a30.45,30.45,0,0,0-11.88,3c-2.71,1.32-5.27,3-8.19,3.81a25.66,25.66,0,0,1-6.78.55l-18-.11c-4.7,0-9.57,0-13.83,2a5.73,5.73,0,0,1-1.79.75,7.43,7.43,0,0,0-1.14.23c-.88.2-1.77.38-2.66.52a46.12,46.12,0,0,1-5.37.57,92.21,92.21,0,0,1-10.9-.17c-3.66-.23-7.32-.55-11-.73-2.61-.12-5.23-.17-7.84-.06C472.55,673.62,471.18,673.72,469.82,673.85Z" style="fill:#cfb5a0;isolation:isolate;opacity:0.991999983787537"/><path d="M468.31,620.86c8.09-5.87,16.61-11.92,26.5-13.34,9.07-1.29,18.14,1.47,27.08,3.46s18.74,3.11,26.86-1.12c6.86-3.57,11.79-10.62,19.23-12.69,5-1.38,10.29-.26,15.48-.15s11.06-1.27,13.59-5.8" style="fill:none;stroke:#3a3632;stroke-linecap:round;stroke-linejoin:round;stroke-width:10px"/><path d="M263.67,522.13c4.38-9.9-1.19-23.11,5.79-31.37,8.76-10.38,28.34-2.56,37.63-12.47,4.1-4.38,5-11.2,9.4-15.22,5.07-4.57,12.78-3.91,19.57-3.2s14.7.77,19.13-4.41" style="fill:none;stroke:#3a3632;stroke-linecap:round;stroke-linejoin:round;stroke-width:10px"/><path d="M516.77,455.21c5,5.1,12,9.47,18.91,7.78,2.55-.62,4.84-2,7.25-3a35.2,35.2,0,0,1,10.16-2.41,15.57,15.57,0,0,0,3.81-.53,12.78,12.78,0,0,1,4.12-.8c5-.12,9.3,1.76,13.51,4.23s7.8,3.66,13.16,2.83" style="fill:none;stroke:#3a3632;stroke-linecap:round;stroke-linejoin:round;stroke-width:10px"/><path d="M289.68,578a20.53,20.53,0,0,1-.18,4.08c-.59,2.17-2.78,3.59-5,4a23.83,23.83,0,0,1-6.74-.14c-5.24-.5-11.71.57-13.64,5.47-1.71,4.37,1.55,9.42,5.85,11.3s9.21,1.43,13.85.83,9.49-1.29,13.94.19c4.22,1.4,7.59,4.59,11.54,6.64,6.17,3.19,13.4,3.42,20.35,3.57,3.06.07,6.28.11,9-1.35s4.54-4.94,3.13-7.65c-.91-1.76-2.84-2.68-4.44-3.84s-3.06-3.13-2.37-5c4.67-.1,6.81-6.64,4.58-10.73-1.9-3.48-5.53-5.46-9-7-4.44-2-9-3.67-13.47-5.54-3.07-1.28-6.06-3.11-9.29-4s-7-.3-10.14.62C294,570.57,289.68,573.81,289.68,578Z" style="fill:#864b37"/><path d="M679.92,520.72l-.53.42c-2.27,1.84-3.89,4.38-6.38,6a12.4,12.4,0,0,1-2.74,1.45c-3.12,1-6.76.76-8.2,4.43-1.3,3.31,1.18,7.15,4.44,8.58s7,1.08,10.52.63,7.21-1,10.59.14c3.2,1.06,5.76,3.49,8.76,5,4.69,2.43,10.18,2.6,15.46,2.72,2.32,0,4.76.07,6.8-1a4.79,4.79,0,0,0,2.3-6.09c-.89-2.24-3.06-3.82-3-6.45a2.78,2.78,0,0,1,.83-1.72,6,6,0,0,0,.51-6.41c-1.44-2.64-4.2-4.14-6.86-5.31-3.37-1.49-6.83-2.79-10.23-4.21-4.29-1.79-8-3.94-12.85-3.3a10.21,10.21,0,0,0-4,1.71C683.56,518.43,681.62,519.45,679.92,520.72Z" style="fill:#864b37"/><path d="M461.49,429.87a10.54,10.54,0,0,1,4.22-3.2c3.49-1.47,7.39-1.4,11.16-1.69a8.9,8.9,0,0,0,3.31-.72c2.6-1.28,3.42-4.53,2.89-7.19-.31-1.56-1.13-2.95-1.57-4.47a27.16,27.16,0,0,0-.78-3c-2.91-6.88-12.77-4.52-18.07-2.81-3.95,1.28-8,2.67-12.17,2.11-3.91-.54-7.36-2.77-11.13-3.91-5.9-1.78-12.24-.8-18.32.19-2.63.43-8.87,1.42-10.36,4.54a8.12,8.12,0,0,0,1.39,8.63,10.74,10.74,0,0,1,1.57,1.74c.91,1.54.36,3.47.36,5.26,0,6.29,6.87,9.72,12.1,10.95,4.19,1,8.43,1.74,12.64,2.64,2.88.62,5.78,1.72,8.73,1.94a17.51,17.51,0,0,0,8.74-2.19c1.18-.6,3.33-1.85,3.76-3.18.12-.38-.14-1.15-.11-1.58a6.84,6.84,0,0,1,.93-3A9.45,9.45,0,0,1,461.49,429.87Z" style="fill:#864b37"/><ellipse cx="998.89" cy="386.56" rx="268.3" ry="149.23" style="fill:#ecdaba;stroke:#3a3632;stroke-linecap:round;stroke-linejoin:round;stroke-width:10px;isolation:isolate;opacity:0.991999983787537"/><path d="M998.72,513.85c-7.28.69-14.54,2.19-21.8,1.5-9.17-.88-17.9-5.2-27.1-5a83.57,83.57,0,0,0-10.21,1.3,40.11,40.11,0,0,1-5.12.48,36.46,36.46,0,0,1-4.67-.27c-2.94-.33-5.87-.69-8.81-1.07-2.76-.36-5.59-1-8.38-1.09-1.87-.07-3.35.18-5.16-.54-5.45-2.16-10.77-4.76-16.14-7.13a40.79,40.79,0,0,0-9.47-3.3c-3.79-.65-7.67-.23-11.52-.18a59,59,0,0,1-30-7.84c-5.51-3.19-10.84-7.39-17.19-7.87-3.18-.25-6.48.47-9.52-.49-6.54-2.08-9.15-11-15.78-12.73-3.88-1-8.36.66-11.83-1.36-3.11-1.79-4-5.74-6-8.75-2.49-3.86-6.7-6.18-10.41-8.88a21.53,21.53,0,0,1-5.81-5.84,13.51,13.51,0,0,1-1.5-3.67c-.44-1.6-1.33-3-1.8-4.6-.76-2.67-1.07-5.49-2.23-8-1.95-4.26-6-7.1-9.49-10.23a21.47,21.47,0,0,1-5.29-6.62,10.49,10.49,0,0,1-1.06-3.92c0-.55.15-1.08.13-1.61,0-1.69-.9-3.49-1.31-5.13q-.74-2.94-1.31-5.91c-.39-2-.71-4-1-6.07s-.49-4.14-.65-6.22c-.07-.89-.13-1.78-.17-2.66q-.17,3.07-.17,6.24c0,97.49,116.8,141.66,260.89,141.66s260.88-48.49,260.88-141.66q0-3.15-.18-6.24a100.19,100.19,0,0,1-10.41,39.21,104.17,104.17,0,0,1-6.76,11.54c-1.26,1.87-2.64,3.66-4,5.5-.87,1.2-1.41,2.58-2.62,3.48-3.72,2.72-8,4.6-11.72,7.45a73.68,73.68,0,0,0-10.1,9.4c-2.71,3.05-5.19,6.34-8.37,8.9-8.73,7-21.09,7.36-30.9,12.78-6.81,3.76-12.31,9.94-19.71,12.35-8,2.61-17.18.34-25,3.52-3.66,1.49-6.73,4-10,6.26a6.46,6.46,0,0,1-1.34.79c-.23.08-.47.13-.69.23-.7.29-1.31.76-2,1.07a14.9,14.9,0,0,1-2.18.79,22.94,22.94,0,0,1-6,.74c-3.72,0-7.42-.54-11.13-.38a28.77,28.77,0,0,0-11.25,2.85c-2.57,1.25-5,2.89-7.76,3.61a24.28,24.28,0,0,1-6.43.52l-17-.1c-4.45,0-9.06,0-13.1,1.85a5.18,5.18,0,0,1-1.69.7,8.09,8.09,0,0,0-1.09.22c-.83.2-1.67.36-2.52.5a45.5,45.5,0,0,1-5.09.54,86.86,86.86,0,0,1-10.33-.16c-3.47-.22-6.94-.52-10.41-.69-2.48-.12-5-.17-7.43-.07C1001.31,513.63,1000,513.73,998.72,513.85Z" style="fill:#cfb5a0;isolation:isolate;opacity:0.991999983787537"/><path d="M997.29,463.63c7.66-5.57,15.74-11.31,25.12-12.65,8.59-1.22,17.19,1.4,25.66,3.28s17.76,2.95,25.46-1.06c6.49-3.38,11.17-10.07,18.22-12,4.74-1.31,9.76-.25,14.67-.15s10.49-1.21,12.88-5.49" style="fill:none;stroke:#3a3632;stroke-linecap:round;stroke-linejoin:round;stroke-width:10px"/><path d="M803.35,370.05c4.15-9.37-1.13-21.89,5.48-29.73,8.31-9.83,26.87-2.42,35.67-11.81,3.88-4.16,4.69-10.62,8.91-14.43,4.8-4.32,12.11-3.71,18.54-3s13.93.73,18.13-4.18" style="fill:none;stroke:#3a3632;stroke-linecap:round;stroke-linejoin:round;stroke-width:10px"/><path d="M1043.22,306.63c4.73,4.84,11.35,9,17.92,7.37,2.42-.58,4.58-1.9,6.87-2.87a33.25,33.25,0,0,1,9.63-2.28,15,15,0,0,0,3.61-.51,11.74,11.74,0,0,1,3.9-.75c4.72-.13,8.82,1.66,12.81,4s7.39,3.47,12.47,2.69" style="fill:none;stroke:#3a3632;stroke-linecap:round;stroke-linejoin:round;stroke-width:10px"/><path d="M828,423a19.83,19.83,0,0,1-.17,3.86c-.56,2.06-2.64,3.41-4.73,3.81a22.39,22.39,0,0,1-6.38-.13c-5-.47-11.11.54-12.93,5.19-1.63,4.13,1.47,8.92,5.54,10.7s8.72,1.36,13.13.79,9-1.22,13.2.18c4,1.33,7.2,4.35,10.94,6.29,5.85,3,12.71,3.24,19.29,3.39,2.9.07,6,.1,8.49-1.28s4.31-4.68,3-7.25c-.86-1.67-2.69-2.54-4.21-3.65s-2.9-3-2.24-4.72c4.42-.09,6.45-6.29,4.33-10.17-1.8-3.3-5.24-5.18-8.56-6.64-4.21-1.85-8.52-3.48-12.76-5.25-2.91-1.21-5.74-2.94-8.8-3.75a18.73,18.73,0,0,0-9.62.59C832.06,416,828,419,828,423Z" style="fill:#864b37"/><path d="M1197.84,368.72l-.5.39c-2.16,1.75-3.69,4.16-6,5.67a11.18,11.18,0,0,1-2.6,1.38c-3,.92-6.4.72-7.77,4.19-1.23,3.14,1.12,6.78,4.21,8.13s6.63,1,10,.6,6.83-.93,10,.14c3,1,5.46,3.3,8.31,4.77,4.44,2.3,9.64,2.47,14.65,2.58,2.2.05,4.51.07,6.44-1a4.53,4.53,0,0,0,2.18-5.78c-.84-2.12-2.89-3.61-2.8-6.11a2.63,2.63,0,0,1,.79-1.63,5.72,5.72,0,0,0,.48-6.07c-1.37-2.5-4-3.93-6.5-5-3.2-1.41-6.47-2.64-9.7-4-4.07-1.7-7.57-3.74-12.17-3.13a9.45,9.45,0,0,0-3.82,1.62C1201.29,366.54,1199.45,367.51,1197.84,368.72Z" style="fill:#864b37"/><path d="M990.83,282.62a10,10,0,0,1,4-3c3.3-1.38,7-1.33,10.57-1.6a8.57,8.57,0,0,0,3.14-.67c2.46-1.22,3.24-4.31,2.74-6.82-.29-1.48-1.07-2.8-1.49-4.24a24.33,24.33,0,0,0-.74-2.82c-2.76-6.53-12.1-4.28-17.12-2.66-3.75,1.21-7.64,2.52-11.54,2-3.7-.51-7-2.63-10.55-3.71-5.59-1.68-11.59-.75-17.36.19-2.49.4-8.41,1.34-9.82,4.3a7.7,7.7,0,0,0,1.32,8.18,10.11,10.11,0,0,1,1.49,1.65c.86,1.46.35,3.29.34,5,0,6,6.51,9.22,11.47,10.38,4,.94,8,1.65,12,2.5,2.73.59,5.47,1.64,8.27,1.84a16.53,16.53,0,0,0,8.29-2.08c1.11-.56,3.15-1.75,3.56-3a8.58,8.58,0,0,0-.11-1.49,6.74,6.74,0,0,1,.89-2.86A7.37,7.37,0,0,1,990.83,282.62Z" style="fill:#864b37"/><ellipse cx="1534.55" cy="539.55" rx="283.1" ry="157.46" style="fill:#ecdaba;stroke:#3a3632;stroke-linecap:round;stroke-linejoin:round;stroke-width:10px;isolation:isolate;opacity:0.991999983787537"/><path d="M1534.38,673.85c-7.69.73-15.34,2.31-23,1.58-9.67-.92-18.88-5.48-28.59-5.24a89,89,0,0,0-10.78,1.38,42.51,42.51,0,0,1-5.4.5,38.54,38.54,0,0,1-4.92-.28q-4.65-.52-9.3-1.13c-2.91-.38-5.9-1-8.84-1.15-2-.08-3.54.19-5.44-.57-5.76-2.28-11.37-5-17-7.53a43,43,0,0,0-10-3.47c-4-.7-8.1-.25-12.16-.2a62.19,62.19,0,0,1-31.62-8.27c-5.82-3.36-11.45-7.8-18.15-8.31-3.36-.25-6.83.51-10-.51-6.9-2.2-9.65-11.57-16.65-13.44-4.09-1.09-8.82.7-12.49-1.42-3.27-1.9-4.26-6.07-6.31-9.24-2.64-4.07-7.07-6.52-11-9.37a22.7,22.7,0,0,1-6.12-6.16,14,14,0,0,1-1.59-3.87c-.47-1.7-1.41-3.13-1.9-4.86-.8-2.82-1.13-5.79-2.35-8.45-2.06-4.5-6.33-7.49-10-10.8a22.44,22.44,0,0,1-5.57-7,10.91,10.91,0,0,1-1.12-4.14c0-.58.15-1.14.14-1.69,0-1.79-1-3.69-1.39-5.42q-.78-3.09-1.39-6.23c-.4-2.13-.75-4.26-1-6.4s-.52-4.38-.69-6.57c-.07-.94-.13-1.87-.18-2.81q-.17,3.26-.17,6.59c0,102.86,123.24,149.47,275.27,149.47s275.28-51.16,275.28-149.47c0-2.22-.07-4.42-.19-6.59a105.9,105.9,0,0,1-11,41.37,109.87,109.87,0,0,1-7.14,12.18c-1.33,2-2.78,3.87-4.17,5.8-.91,1.27-1.48,2.73-2.77,3.67-3.92,2.88-8.46,4.86-12.36,7.87a78.15,78.15,0,0,0-10.65,9.92c-2.86,3.21-5.49,6.69-8.84,9.38-9.21,7.41-22.25,7.77-32.6,13.49-7.19,4-13,10.49-20.8,13-8.49,2.76-18.13.37-26.41,3.72-3.86,1.57-7.1,4.26-10.51,6.6a5.94,5.94,0,0,1-1.42.83c-.24.09-.49.14-.73.24-.73.31-1.38.81-2.1,1.14a15.78,15.78,0,0,1-2.3.83,24.21,24.21,0,0,1-6.34.78c-3.91,0-7.82-.57-11.73-.4a30.45,30.45,0,0,0-11.88,3c-2.71,1.32-5.27,3-8.19,3.81a25.66,25.66,0,0,1-6.78.55l-18-.11c-4.7,0-9.57,0-13.83,2a5.73,5.73,0,0,1-1.79.75,7.43,7.43,0,0,0-1.14.23c-.88.2-1.77.38-2.66.52a46.12,46.12,0,0,1-5.37.57,92.21,92.21,0,0,1-10.9-.17c-3.67-.23-7.32-.55-11-.73-2.61-.12-5.23-.17-7.84-.06C1537.11,673.62,1535.74,673.72,1534.38,673.85Z" style="fill:#cfb5a0;isolation:isolate;opacity:0.991999983787537"/><path d="M1532.87,620.86c8.09-5.87,16.61-11.92,26.5-13.34,9.07-1.29,18.14,1.47,27.08,3.46s18.74,3.11,26.86-1.12c6.86-3.57,11.79-10.62,19.23-12.69,5-1.38,10.29-.26,15.48-.15s11.06-1.27,13.59-5.8" style="fill:none;stroke:#3a3632;stroke-linecap:round;stroke-linejoin:round;stroke-width:10px"/><path d="M1328.23,522.13c4.38-9.9-1.19-23.11,5.79-31.37,8.76-10.38,28.34-2.56,37.63-12.47,4.1-4.38,4.95-11.2,9.4-15.22,5.07-4.57,12.78-3.91,19.57-3.2s14.69.77,19.13-4.41" style="fill:none;stroke:#3a3632;stroke-linecap:round;stroke-linejoin:round;stroke-width:10px"/><path d="M1581.33,455.21c5,5.1,12,9.47,18.91,7.78,2.55-.62,4.83-2,7.25-3a35.2,35.2,0,0,1,10.16-2.41,15.57,15.57,0,0,0,3.81-.53,12.78,12.78,0,0,1,4.12-.8c5-.12,9.3,1.76,13.51,4.23s7.8,3.66,13.16,2.83" style="fill:none;stroke:#3a3632;stroke-linecap:round;stroke-linejoin:round;stroke-width:10px"/><path d="M1354.24,578a20.53,20.53,0,0,1-.18,4.08c-.59,2.17-2.78,3.59-5,4a23.83,23.83,0,0,1-6.74-.14c-5.24-.5-11.71.57-13.64,5.47-1.71,4.37,1.55,9.42,5.85,11.3s9.2,1.43,13.85.83,9.49-1.29,13.94.19c4.22,1.4,7.59,4.59,11.54,6.64,6.17,3.19,13.4,3.42,20.35,3.57,3.06.07,6.28.11,9-1.35s4.54-4.94,3.13-7.65c-.91-1.76-2.84-2.68-4.44-3.84s-3.06-3.13-2.37-5c4.67-.1,6.81-6.64,4.57-10.73-1.89-3.48-5.53-5.46-9-7-4.44-2-9-3.67-13.47-5.54-3.07-1.28-6.06-3.11-9.29-4s-7-.3-10.15.62C1358.52,570.57,1354.24,573.81,1354.24,578Z" style="fill:#864b37"/><path d="M1744.48,520.72l-.53.42c-2.27,1.84-3.89,4.38-6.38,6a12.4,12.4,0,0,1-2.74,1.45c-3.12,1-6.76.76-8.2,4.43-1.3,3.31,1.18,7.15,4.44,8.58s7,1.08,10.52.63,7.21-1,10.58.14c3.21,1.06,5.77,3.49,8.77,5,4.69,2.43,10.18,2.6,15.45,2.72,2.33,0,4.77.07,6.81-1a4.79,4.79,0,0,0,2.3-6.09c-.89-2.24-3.06-3.82-3-6.45a2.78,2.78,0,0,1,.83-1.72,6,6,0,0,0,.5-6.41c-1.44-2.64-4.19-4.14-6.85-5.31-3.37-1.49-6.83-2.79-10.23-4.21-4.29-1.79-8-3.94-12.85-3.3a10.21,10.21,0,0,0-4,1.71C1748.12,518.43,1746.18,519.45,1744.48,520.72Z" style="fill:#864b37"/><path d="M1526.05,429.87a10.54,10.54,0,0,1,4.22-3.2c3.49-1.47,7.39-1.4,11.16-1.69a8.9,8.9,0,0,0,3.31-.72c2.59-1.28,3.42-4.53,2.89-7.19-.31-1.56-1.13-2.95-1.57-4.47a27.16,27.16,0,0,0-.78-3c-2.92-6.88-12.77-4.52-18.07-2.81-4,1.28-8,2.67-12.17,2.11-3.91-.54-7.36-2.77-11.13-3.91-5.9-1.78-12.24-.8-18.32.19-2.63.43-8.88,1.42-10.36,4.54a8.12,8.12,0,0,0,1.39,8.63,10.74,10.74,0,0,1,1.57,1.74c.91,1.54.36,3.47.36,5.26,0,6.29,6.87,9.72,12.1,10.95,4.19,1,8.43,1.74,12.64,2.64,2.88.62,5.78,1.72,8.73,1.94a17.51,17.51,0,0,0,8.74-2.19c1.18-.6,3.33-1.85,3.76-3.18.12-.38-.14-1.15-.11-1.58a6.84,6.84,0,0,1,.93-3A9.45,9.45,0,0,1,1526.05,429.87Z" style="fill:#864b37"/><ellipse cx="539.5" cy="221.35" rx="243.68" ry="135.53" style="fill:#ecdaba;stroke:#3a3632;stroke-linecap:round;stroke-linejoin:round;stroke-width:10px;isolation:isolate;opacity:0.991999983787537"/><path d="M539.35,337c-6.62.63-13.2,2-19.81,1.36-8.32-.79-16.25-4.72-24.61-4.51a78.3,78.3,0,0,0-9.27,1.18,36.22,36.22,0,0,1-4.65.44,33.39,33.39,0,0,1-4.24-.25c-2.67-.3-5.33-.62-8-1-2.51-.32-5.08-.89-7.61-1-1.7-.06-3,.16-4.68-.49-5-2-9.79-4.32-14.67-6.48a37.42,37.42,0,0,0-8.59-3c-3.45-.6-7-.21-10.47-.17A53.47,53.47,0,0,1,395.53,316c-5-2.89-9.86-6.71-15.62-7.15-2.89-.22-5.88.44-8.64-.44-5.94-1.89-8.31-9.95-14.34-11.56-3.52-.94-7.59.6-10.74-1.23-2.82-1.63-3.67-5.22-5.44-7.95-2.27-3.51-6.08-5.61-9.46-8.06a19.72,19.72,0,0,1-5.27-5.31,12.25,12.25,0,0,1-1.37-3.33c-.4-1.46-1.21-2.69-1.63-4.18-.69-2.43-1-5-2-7.27-1.78-3.88-5.45-6.46-8.63-9.3a19.27,19.27,0,0,1-4.79-6,9.45,9.45,0,0,1-1-3.56c0-.5.13-1,.12-1.46,0-1.54-.82-3.17-1.19-4.66q-.68-2.67-1.19-5.37c-.35-1.83-.65-3.66-.89-5.51s-.45-3.76-.59-5.65c-.06-.81-.12-1.61-.16-2.42q-.15,2.81-.15,5.67c0,88.54,106.08,128.66,236.94,128.66s236.94-44,236.94-128.66c0-1.91-.06-3.8-.17-5.67a91.1,91.1,0,0,1-9.45,35.61,94.72,94.72,0,0,1-6.14,10.48c-1.15,1.71-2.4,3.33-3.59,5-.79,1.09-1.28,2.35-2.38,3.16-3.38,2.47-7.29,4.18-10.65,6.77a66.69,66.69,0,0,0-9.16,8.54c-2.47,2.76-4.72,5.75-7.61,8.07-7.92,6.38-19.15,6.69-28.06,11.61-6.18,3.42-11.18,9-17.9,11.22-7.31,2.37-15.61.31-22.73,3.2-3.33,1.35-6.12,3.67-9.05,5.68a5.37,5.37,0,0,1-1.22.72c-.21.07-.42.12-.63.21-.63.26-1.19.68-1.81,1a13.76,13.76,0,0,1-2,.72,20.87,20.87,0,0,1-5.45.67c-3.37,0-6.74-.49-10.11-.34a26.06,26.06,0,0,0-10.21,2.58c-2.34,1.14-4.54,2.63-7,3.29a22.87,22.87,0,0,1-5.84.47l-15.46-.1c-4,0-8.23,0-11.9,1.68a4.5,4.5,0,0,1-1.54.64,6.82,6.82,0,0,0-1,.2c-.76.18-1.52.33-2.29.46a44.66,44.66,0,0,1-4.62.49,79.33,79.33,0,0,1-9.38-.15c-3.16-.2-6.31-.47-9.46-.63-2.25-.11-4.5-.15-6.75-.06C541.7,336.75,540.52,336.84,539.35,337Z" style="fill:#cfb5a0;isolation:isolate;opacity:0.991999983787537"/><path d="M538.05,291.34c7-5,14.29-10.27,22.81-11.48,7.8-1.12,15.61,1.26,23.31,3s16.13,2.68,23.12-1c5.9-3.07,10.14-9.15,16.55-10.92,4.3-1.19,8.86-.22,13.32-.13s9.53-1.1,11.7-5" style="fill:none;stroke:#3a3632;stroke-linecap:round;stroke-linejoin:round;stroke-width:10px"/><path d="M361.91,206.35c3.77-8.51-1-19.88,5-27,7.55-8.93,24.4-2.2,32.39-10.73,3.53-3.77,4.26-9.64,8.1-13.1,4.36-3.93,11-3.37,16.84-2.76s12.65.67,16.46-3.79" style="fill:none;stroke:#3a3632;stroke-linecap:round;stroke-linejoin:round;stroke-width:10px"/><path d="M579.76,148.76c4.3,4.39,10.31,8.15,16.28,6.69,2.19-.53,4.16-1.73,6.24-2.61a30.28,30.28,0,0,1,8.75-2.07,13.72,13.72,0,0,0,3.27-.46,10.67,10.67,0,0,1,3.55-.69c4.28-.11,8,1.51,11.62,3.64s6.72,3.15,11.33,2.44" style="fill:none;stroke:#3a3632;stroke-linecap:round;stroke-linejoin:round;stroke-width:10px"/><path d="M384.3,254.44a17.85,17.85,0,0,1-.16,3.51,5.33,5.33,0,0,1-4.29,3.46,20.52,20.52,0,0,1-5.8-.12c-4.52-.43-10.08.49-11.74,4.71-1.48,3.76,1.33,8.1,5,9.72s7.92,1.23,11.93.72,8.16-1.11,12,.16c3.63,1.21,6.53,4,9.93,5.71,5.32,2.75,11.54,2.95,17.52,3.08,2.63.06,5.4.09,7.72-1.16s3.9-4.25,2.69-6.59c-.79-1.51-2.45-2.3-3.82-3.31s-2.64-2.69-2-4.29c4-.08,5.86-5.71,3.93-9.24-1.63-3-4.76-4.69-7.77-6-3.82-1.69-7.74-3.16-11.59-4.77-2.64-1.1-5.21-2.67-8-3.4a16.87,16.87,0,0,0-8.74.53C388,248.05,384.3,250.84,384.3,254.44Z" style="fill:#864b37"/><path d="M720.19,205.15l-.45.35c-2,1.59-3.35,3.78-5.5,5.15a10.07,10.07,0,0,1-2.36,1.25c-2.68.84-5.81.66-7,3.81-1.12,2.85,1,6.15,3.82,7.38s6,.94,9.06.55,6.2-.85,9.1.12,5,3,7.55,4.34c4,2.09,8.76,2.23,13.3,2.34,2,0,4.1.06,5.86-.89a4.12,4.12,0,0,0,2-5.24c-.77-1.93-2.64-3.28-2.55-5.55a2.37,2.37,0,0,1,.72-1.48,5.22,5.22,0,0,0,.43-5.52c-1.24-2.27-3.62-3.56-5.9-4.57-2.9-1.28-5.88-2.4-8.81-3.62-3.69-1.54-6.88-3.39-11.06-2.84a8.75,8.75,0,0,0-3.47,1.47C723.32,203.17,721.66,204.05,720.19,205.15Z" style="fill:#864b37"/><path d="M532.18,127a9,9,0,0,1,3.63-2.76c3-1.26,6.36-1.21,9.61-1.45a7.82,7.82,0,0,0,2.84-.62c2.24-1.1,3-3.9,2.5-6.19-.27-1.34-1-2.54-1.36-3.85a22.56,22.56,0,0,0-.67-2.57c-2.51-5.92-11-3.88-15.55-2.41-3.4,1.1-6.93,2.3-10.48,1.81-3.36-.46-6.33-2.38-9.58-3.36-5.08-1.54-10.53-.69-15.77.16-2.26.37-7.63,1.22-8.91,3.91a7,7,0,0,0,1.19,7.43,8.62,8.62,0,0,1,1.35,1.49c.78,1.33.32,3,.32,4.53,0,5.42,5.91,8.37,10.41,9.43,3.61.85,7.26,1.49,10.88,2.27,2.48.53,5,1.48,7.51,1.67a15.07,15.07,0,0,0,7.53-1.89c1-.51,2.87-1.59,3.23-2.74.11-.32-.12-1-.1-1.35a6,6,0,0,1,.81-2.59A7,7,0,0,1,532.18,127Z" style="fill:#864b37"/><ellipse cx="1465.05" cy="222.35" rx="243.68" ry="135.53" style="fill:#ecdaba;stroke:#3a3632;stroke-linecap:round;stroke-linejoin:round;stroke-width:10px;isolation:isolate;opacity:0.991999983787537"/><path d="M1464.9,338c-6.62.63-13.2,2-19.81,1.36-8.32-.79-16.25-4.72-24.61-4.51a78.3,78.3,0,0,0-9.27,1.18,36.22,36.22,0,0,1-4.65.44,33.28,33.28,0,0,1-4.24-.25c-2.67-.3-5.33-.62-8-1-2.51-.32-5.08-.89-7.61-1-1.7-.06-3,.16-4.69-.49-5-2-9.78-4.32-14.66-6.48a37.34,37.34,0,0,0-8.6-3c-3.44-.6-7-.21-10.46-.17a53.47,53.47,0,0,1-27.22-7.12c-5-2.89-9.86-6.71-15.62-7.15-2.89-.22-5.88.44-8.64-.44-6-1.89-8.31-9.95-14.34-11.56-3.52-.94-7.59.6-10.75-1.23-2.81-1.63-3.66-5.22-5.43-7.95-2.27-3.51-6.09-5.61-9.46-8.06a19.72,19.72,0,0,1-5.27-5.31,12.25,12.25,0,0,1-1.37-3.33c-.4-1.46-1.21-2.69-1.63-4.18-.69-2.43-1-5-2-7.27-1.78-3.88-5.45-6.46-8.63-9.3a19.44,19.44,0,0,1-4.8-6,9.62,9.62,0,0,1-1-3.56c0-.5.13-1,.12-1.46,0-1.54-.82-3.17-1.19-4.66q-.67-2.67-1.19-5.37c-.35-1.83-.65-3.66-.9-5.51s-.44-3.76-.58-5.65c-.07-.81-.12-1.61-.16-2.42q-.15,2.81-.15,5.67c0,88.54,106.08,128.66,236.94,128.66S1702,306.83,1702,222.21c0-1.91,0-3.8-.16-5.67a91.1,91.1,0,0,1-9.45,35.61,94.72,94.72,0,0,1-6.14,10.48c-1.15,1.71-2.4,3.33-3.59,5-.79,1.09-1.28,2.35-2.38,3.16-3.38,2.47-7.29,4.18-10.65,6.77a66.69,66.69,0,0,0-9.16,8.54c-2.47,2.76-4.72,5.75-7.61,8.07-7.93,6.38-19.15,6.69-28.06,11.61-6.19,3.42-11.18,9-17.9,11.22-7.31,2.37-15.61.31-22.73,3.2-3.33,1.35-6.12,3.67-9.05,5.68a5.37,5.37,0,0,1-1.22.72c-.21.07-.42.12-.63.21-.63.26-1.19.68-1.81,1a13.76,13.76,0,0,1-2,.72,20.87,20.87,0,0,1-5.45.67c-3.37,0-6.74-.49-10.11-.34a26.15,26.15,0,0,0-10.22,2.58c-2.33,1.14-4.53,2.63-7,3.29a22.8,22.8,0,0,1-5.84.47l-15.45-.1c-4,0-8.23,0-11.9,1.68a4.5,4.5,0,0,1-1.54.64,6.82,6.82,0,0,0-1,.2c-.76.18-1.52.33-2.29.46a44.66,44.66,0,0,1-4.62.49,79.33,79.33,0,0,1-9.38-.15c-3.16-.2-6.31-.47-9.46-.63-2.25-.11-4.5-.15-6.75-.06C1467.24,337.75,1466.07,337.84,1464.9,338Z" style="fill:#cfb5a0;isolation:isolate;opacity:0.991999983787537"/><path d="M1463.6,292.34c7-5,14.29-10.27,22.81-11.48,7.8-1.12,15.61,1.26,23.31,3s16.13,2.68,23.12-1c5.9-3.07,10.14-9.15,16.55-10.92,4.3-1.19,8.86-.22,13.32-.13s9.52-1.1,11.7-5" style="fill:none;stroke:#3a3632;stroke-linecap:round;stroke-linejoin:round;stroke-width:10px"/><path d="M1287.46,207.35c3.77-8.51-1-19.88,5-27,7.54-8.93,24.4-2.2,32.39-10.73,3.53-3.77,4.26-9.64,8.09-13.1,4.37-3.93,11-3.37,16.85-2.76s12.64.67,16.46-3.79" style="fill:none;stroke:#3a3632;stroke-linecap:round;stroke-linejoin:round;stroke-width:10px"/><path d="M1505.31,149.76c4.3,4.39,10.31,8.15,16.28,6.69,2.19-.53,4.16-1.73,6.24-2.61a30.14,30.14,0,0,1,8.74-2.07,13.73,13.73,0,0,0,3.28-.46,10.67,10.67,0,0,1,3.55-.69c4.28-.11,8,1.51,11.62,3.64s6.72,3.15,11.33,2.44" style="fill:none;stroke:#3a3632;stroke-linecap:round;stroke-linejoin:round;stroke-width:10px"/><path d="M1309.85,255.44a17.85,17.85,0,0,1-.16,3.51,5.33,5.33,0,0,1-4.3,3.46,20.46,20.46,0,0,1-5.79-.12c-4.52-.43-10.09.49-11.74,4.71-1.48,3.76,1.33,8.1,5,9.72s7.92,1.23,11.92.72,8.17-1.11,12,.16c3.63,1.21,6.53,4,9.93,5.71,5.32,2.75,11.54,2.95,17.52,3.08,2.63.06,5.4.09,7.71-1.16s3.91-4.25,2.7-6.59c-.79-1.51-2.45-2.3-3.83-3.31s-2.63-2.69-2-4.29c4-.08,5.85-5.71,3.93-9.24-1.63-3-4.76-4.69-7.77-6-3.82-1.69-7.74-3.16-11.59-4.77-2.64-1.1-5.22-2.67-8-3.4a16.87,16.87,0,0,0-8.74.53C1313.53,249.05,1309.85,251.84,1309.85,255.44Z" style="fill:#864b37"/><path d="M1645.74,206.15l-.45.35c-2,1.59-3.36,3.78-5.5,5.15a10.07,10.07,0,0,1-2.36,1.25c-2.68.84-5.82.66-7,3.81-1.12,2.85,1,6.15,3.82,7.38s6,.94,9,.55,6.2-.85,9.11.12,5,3,7.54,4.34c4,2.09,8.77,2.23,13.31,2.34,2,0,4.1.06,5.86-.89a4.1,4.1,0,0,0,2-5.24c-.76-1.93-2.63-3.28-2.54-5.55a2.35,2.35,0,0,1,.71-1.48,5.22,5.22,0,0,0,.44-5.52c-1.24-2.27-3.62-3.56-5.9-4.57-2.91-1.28-5.88-2.4-8.81-3.62-3.69-1.54-6.88-3.39-11.06-2.84a8.75,8.75,0,0,0-3.47,1.47C1648.87,204.17,1647.21,205.05,1645.74,206.15Z" style="fill:#864b37"/><path d="M1457.73,128a9,9,0,0,1,3.63-2.76c3-1.26,6.36-1.21,9.61-1.45a7.82,7.82,0,0,0,2.84-.62c2.24-1.1,3-3.9,2.5-6.19-.27-1.34-1-2.54-1.36-3.85a24.86,24.86,0,0,0-.67-2.57c-2.51-5.92-11-3.88-15.55-2.41-3.41,1.1-6.94,2.3-10.48,1.81-3.36-.46-6.33-2.38-9.58-3.36-5.08-1.54-10.53-.69-15.77.16-2.26.37-7.64,1.22-8.91,3.91a7,7,0,0,0,1.19,7.43,8.62,8.62,0,0,1,1.35,1.49c.78,1.33.32,3,.31,4.53,0,5.42,5.91,8.37,10.42,9.43,3.6.85,7.26,1.49,10.88,2.27,2.48.53,5,1.48,7.51,1.67a15.07,15.07,0,0,0,7.53-1.89c1-.51,2.86-1.59,3.23-2.74.11-.32-.12-1-.1-1.35a5.92,5.92,0,0,1,.81-2.59A7,7,0,0,1,1457.73,128Z" style="fill:#864b37"/></svg>