<svg xmlns="http://www.w3.org/2000/svg" xmlns:xlink="http://www.w3.org/1999/xlink" height="1913.42" width="1923.639" xmlns:v="https://vecta.io/nano"><style><![CDATA[.B{fill:#fff}.C{stroke-width:24}.D{stroke-linejoin:round}.E{stroke-width:15.565}.F{stroke:#010101}.G{fill:#ca3d27}.H{stroke-linecap:round}]]></style><use xlink:href="#B" fill="#9ca0aa"/><use xlink:href="#B" fill="#939598"/><path d="M1025.745 1609.83V959.3c0 48.84 192.86 103.07 430.77 103.07s429.76-54.1 429.76-103.07v650.54c0 49-191.86 125.14-429.76 125.14s-430.77-76.3-430.77-125.14z" class="B"/><use xlink:href="#B" fill="none" class="C D F"/><use xlink:href="#C" fill="#939598"/><g class="D"><path d="M1044.495 819.06c53.87 39.82 217.93 75.9 412 75.9s357.4-36 411.06-75.83c-53.82-42-218-83.75-412.13-83.75-193.94 0-357.22 41.77-410.93 83.67z" stroke="#040607" class="E G"/><g class="F"><g class="C"><use xlink:href="#C" fill="none"/><path d="M1911.285 722.35c9-24.45-154.36-115.56-369.35-195s-399.28-116.82-408.3-92.43 152.7 119.84 367.7 199.3 400.92 112.57 409.96 88.12z" fill="#6d6e71"/></g><path d="M1627.965 1433.57c18.82-38.06 17.38-66.44 17.38-78.53 0-143.37-76.1-219.47-203.85-207.24-39.2 4-46.06 19.8-63.15 29.92-11.87-8.54-52.32-26.36-77.5-29.92-135.22-11.55-210.64 65.23-210.64 207.24 0 127.06 104 230.35 277.9 230.35 40.76 0 75.73-1.7 110.07-15.63 69.24-28.08 115.93-67.74 149.78-136.2z" class="E G"/></g></g><path d="M1232.815 1212.95c-7.13-8.2-48.12 33-76.93 88-16.65 27 46 72.18 49.18 23.8 4-54.73 41.5-96.44 27.75-111.83z" class="B"/><path d="M1375.555 1163.8s-37.27-38.07-43.62-60.28c-.8 7.94.8 36.5 15.07 57.1 0 0-65 3.17-73.76 12.7 0 0 61.07 9.5 76.14 1.58 0 0-7.14 53.14 3.17 70.6 0 0 29.35-46 26.17-58.7 0 0 70.6 19.83 89.62 14.27-5.55-9.5-56.3-30.93-74.55-30.13 20.44-9 34.1-35.7 34.1-35.7l-52.35 28.55z" fill="#0da54a"/><g class="B D E"><path d="M1839.005 1445.32c-1.14 112.62-89.73 190.24-190.4 190.24s-195.46-81.93-196.15-193.07c-2.23-71.14 89.3-100.76 190-100.76s194.6 43.28 196.56 103.6z" stroke="#050507"/><path d="M1839.225 1446.34c.6 55.64-93 101.53-193.7 101.53s-193.14-45.92-193.7-101.53c-.77-74.1 91.5-106.15 192.17-106.15s194.47 35.1 195.24 106.15z" stroke="#040607"/></g><path d="M1781.815 1479.4c30 29.22-35.6 68.7-136.27 68.7s-167.8-41-147-71.78c35.38-41.54 105.7-49.85 147.93-49.85s98.46 13.7 135.38 52.93z" stroke="#050605" class="D E G"/><path d="M1558.015 1618.33c16.92 38.46 154.6 39.23 171.53.77" fill="none" class="D E F H"/><g stroke="#231f20"><g stroke-miterlimit="10"><path d="M476.265 505.95l494-493.95c357.55 221.16 183.88 380.54 97.05 440.45-89.3 14.58-149.74 42.5-179.73 100.58-35.38 68.5 6.4 129.1 100.45 104.38 7.77-2.05 13.28 7.54 7.56 13.2-29.7 29.34-92.8 73.2-178.9 32.47l-71.68 71.67-95.3-95.3a29.5 29.5 0 0 0 0-41.7l-36.43-36.44a29.5 29.5 0 0 0-41.7 0h0z" class="B C"/><path d="M31.717 950.54l444.516-444.516 95.304 95.304-444.516 444.516a67.39 67.39 0 0 1-95.283-.021h0a67.39 67.39 0 0 1 0-95.304zm173.44 173.442l444.544-444.544 95.3 95.3-444.544 444.544a67.39 67.39 0 0 1-95.304 0h0a67.39 67.39 0 0 1-.007-95.311z" fill="#231f20" stroke-width="31.043"/><g class="B"><g class="C H"><path d="M632.085 620.12l243.37-243.37"/><path d="M709.845 542.37L574.865 407.4"/></g><rect transform="rotate(357.709)" rx="24.96" height="120.176" width="666.663" y="288.294" x="586.028" stroke-width="24.019"/></g></g><g class="C B"><circle r="58.18" cy="314.7" cx="929.565"/><circle r="41.14" cy="157.59" cx="959.645"/></g></g><defs ><path id="B" d="M1025.745 1776.23V791.95c307.94 119.58 567 114.23 860.53 0v984.33c0 49-191.86 125.14-429.76 125.14s-430.77-76.3-430.77-125.14z"/><path id="C" d="M1886.275 791.95c0 49-191.86 103.07-429.76 103.07s-430.77-54.28-430.77-103.07 191.8-111.68 429.7-111.68 430.83 62.68 430.83 111.68z"/></defs></svg>