<?xml version="1.0" encoding="UTF-8"?>
<svg id="Layer_1" data-name="Layer 1" xmlns="http://www.w3.org/2000/svg" width="2000" height="2000" viewBox="0 0 2000 2000">
  <g>
    <path d="m440.73,527.59c-27.71,13.29-20.98,75.53-21.47,99.07-1.2,57.78-3.6,115.53-13.83,172.63-16.26,90.75-36.28,181.34-35.41,273.82,1.95,207.8,132.17,409.25,90.3,613.28-8.86,43.15-86.35,157.4-73.97,193.1,10.82,31.21,55.33,23.79,82.93,24.2,98.25,1.46,198.32,9.25,295.57-8.15,37.42-6.7,67.49-24.45,103.02-32.74,48.9-11.41,109.87-5.76,160.02-5.63,121.17.32,242.3,10.37,361.66,29.97,60.95,10.01,120.3,27.21,180.79,37.99,77.85,13.87,63.39-36.27,58.46-98.37-4.36-54.89-4.73-109.92-6.69-164.9-3.55-99.4.82-199.05,13.11-297.83,11.62-93.47,37.42-181.01,31.21-275.37-6.55-99.51-23.43-198.07-36.24-296.95-6.23-48.05,44.31-182.45,17.86-232.36-2.78-5.24-6.4-9.55-11.03-12.73-403.17-98.86-802.03-107.31-1196.27-19.05Z" style="fill: #bcbec0; opacity: .5;"/>
    <path d="m1637,546.64c-403.17-98.86-802.03-107.31-1196.27-19.05" style="fill: none; stroke: #383850; stroke-miterlimit: 11.34; stroke-width: 20px;"/>
  </g>
  <g>
    <g id="layer2">
      <path id="path1047" d="m1563.34,466.56c-33.11,3.31-67.02,35.26-67.02,35.26-18.14,17.84-20.47,39.21-20.97,73.22-.42,28.36,1.51,45.68,7.73,57.28,6.17,11.51,24.86,26.83,35.57,36.14,9.54,8.29,19.45,11.36,19.45,19.95,0,0,1.12,34.52,1.51,81.41,1.12,133.7,1.88,185.79-6.93,244.96-8.81,59.17-22.04,98.96-35.62,140.62l21.98,16.62c21.64-65.32,30.27-101.25,38.18-155.05s8.17-96.33,9.01-248.86c.48-87.88-.78-102.81-.87-154.22-.94-50.52-.23-96.83-2.03-147.32h0Z" style="fill: #f1f2f2; stroke: #3a3632; stroke-miterlimit: 11.34; stroke-width: 20px;"/>
    </g>
    <g id="layer2-2" data-name="layer2">
      <path d="m1505.69,1152.69c13.25-40.64,25.72-79.41,34.27-136.83,8.61-57.78,8.17-109.11,7.12-233.12l-.11-12.98c-.12-14.8-.33-29.78-.62-44.65l12.63.77c.01,12.85-.02,26.72-.11,42.18-.84,153.18-1.07,194.35-8.93,247.83-7.57,51.51-15.92,86.48-34.68,144.04l-9.58-7.25Z" style="fill: #ffde1a;"/>
    </g>
  </g>
  <g>
    <g id="layer2-3" data-name="layer2">
      <path id="path1047-2" data-name="path1047" d="m1503.83,427.12c-36.79,3.68-74.47,39.18-74.47,39.18-20.15,19.82-22.74,43.57-23.3,81.36-.47,31.51,1.68,50.75,8.59,63.65,6.85,12.79,27.62,29.81,39.53,40.15,10.6,9.21,21.61,12.62,21.61,22.16,0,0,1.24,38.36,1.68,90.46,1.25,148.55,2.09,206.43-7.7,272.17s-24.49,109.96-39.57,156.25l24.42,18.46c24.05-72.58,33.63-112.5,42.43-172.28,8.79-59.78,9.08-107.04,10.01-276.52.54-97.65-.86-114.23-.96-171.35-1.05-56.13-.25-107.59-2.26-163.69h0Z" style="fill: #f1f2f2; stroke: #3a3632; stroke-miterlimit: 11.34; stroke-width: 20px;"/>
    </g>
    <g id="layer2-4" data-name="layer2">
      <path d="m1439.77,1189.49c14.72-45.16,28.58-88.24,38.08-152.03,9.56-64.2,9.08-121.23,7.91-259.02l-.12-14.42c-.14-16.45-.37-33.09-.69-49.61l14.04.86c.01,14.28-.02,29.69-.12,46.86-.93,170.2-1.18,215.94-9.92,275.37-8.42,57.24-17.69,96.09-38.53,160.04l-10.65-8.05Z" style="fill: #a6db52;"/>
    </g>
  </g>
  <g>
    <g id="layer2-5" data-name="layer2">
      <path id="path1047-3" data-name="path1047" d="m1444.84,383.33c-40.87,4.09-82.74,43.53-82.74,43.53-22.39,22.03-25.27,48.41-25.89,90.4-.52,35.01,1.87,56.39,9.54,70.72,7.62,14.21,30.69,33.12,43.92,44.61,11.77,10.23,24.01,14.02,24.01,24.63,0,0,1.38,42.62,1.86,100.51,1.39,165.06,2.33,229.37-8.55,302.41s-27.21,122.18-43.97,173.61l27.14,20.52c26.72-80.64,37.37-125,47.14-191.42,9.77-66.42,10.09-118.93,11.12-307.24.6-108.5-.96-126.93-1.07-190.39-1.16-62.37-.28-119.54-2.51-181.88h0Z" style="fill: #f1f2f2; stroke: #3a3632; stroke-miterlimit: 11.34; stroke-width: 20px;"/>
    </g>
    <g id="layer2-6" data-name="layer2">
      <path d="m1373.66,1230.4c16.36-50.17,31.75-98.04,42.31-168.93,10.62-71.34,10.09-134.71,8.79-287.8l-.14-16.02c-.15-18.27-.41-36.77-.76-55.12l15.6.96c.02,15.87-.03,32.99-.13,52.07-1.04,189.11-1.32,239.94-11.03,305.97-9.35,63.6-19.66,106.77-42.81,177.83l-11.83-8.94Z" style="fill: #ef4136;"/>
    </g>
  </g>
  <g>
    <g id="layer2-7" data-name="layer2">
      <path id="path1047-4" data-name="path1047" d="m1386.43,334.7c-45.42,4.54-91.94,48.37-91.94,48.37-24.88,24.47-28.07,53.79-28.77,100.44-.58,38.9,2.07,62.66,10.6,78.57,8.46,15.79,34.1,36.8,48.8,49.57,13.08,11.37,26.68,15.58,26.68,27.36,0,0,1.53,47.36,2.07,111.67,1.54,183.4,2.58,254.86-9.5,336.02-12.09,81.16-30.23,135.75-48.86,192.9l30.15,22.8c29.69-89.6,41.52-138.88,52.38-212.69,10.85-73.8,11.21-132.14,12.36-341.38.66-120.55-1.07-141.03-1.19-211.54-1.29-69.3-.31-132.82-2.78-202.09h0Z" style="fill: #f1f2f2; stroke: #3a3632; stroke-miterlimit: 11.34; stroke-width: 20px;"/>
    </g>
    <g id="layer2-8" data-name="layer2">
      <path d="m1307.35,1275.89c18.17-55.75,35.28-108.93,47.01-187.7,11.81-79.26,11.21-149.67,9.76-319.78l-.15-17.81c-.17-20.3-.45-40.86-.85-61.25l17.33,1.06c.02,17.63-.03,36.66-.15,57.86-1.15,210.12-1.46,266.6-12.25,339.96-10.39,70.66-21.84,118.63-47.57,197.59l-13.15-9.94Z" style="fill: #92278f;"/>
    </g>
  </g>
  <g id="layer2-9" data-name="layer2">
    <path id="path1047-5" data-name="path1047" d="m1290.55,257.26s-67.83,8.53-131.68,68.86c0,0-50.07,43.72-74.7,113.53,0,0-19.78,52.44-15.75,120.64,0,0,3.18,74.17,12.58,114.24,3.38,12.71,21.8,48.85,46.04,66.58,0,0,30.78,27.74,86.08,44.7,39.92,9.34,46.65,9.33,46.65,9.33,12.62.69,16.61,10.15,16.92,14.48,0,0,5.34,13.57,3.55,37.25,0,0,2.28,137.43-2.8,169.34,0,0-8.23,75.66-25.76,110.98,0,0-20.76,49.33-60.01,86.4,0,0-24.29,26.17-84.4,51.43,0,0-.27,24.05,8.53,37.37,60.92-26.19,98.29-61.09,98.29-61.09,49.45-40.19,76.16-98.54,76.16-98.54,17.83-41.8,28.87-87.74,32.48-170.44,3.82-87.5-19.01-538.91-32.18-715.06h0Z" style="fill: #d1d3d4; stroke: #3a3632; stroke-miterlimit: 11.34; stroke-width: 20px;"/>
  </g>
  <g id="layer2-10" data-name="layer2">
    <path id="path1047-6" data-name="path1047" d="m1131.39,179.19s-66.46,16.71-141.67,87.79c0,0-58.98,51.51-88.01,133.76,0,0-23.3,61.78-18.56,142.12,0,0,3.75,87.38,14.82,134.58,3.98,14.97,25.69,57.55,54.24,78.44,0,0,36.26,32.69,101.41,52.66,47.04,11.01,54.95,10.99,54.95,10.99,14.87.81,19.56,11.95,19.93,17.06,0,0,6.29,15.99,4.18,43.89,0,0-1.32,107.69-7.32,145.3,0,0-8.96,85.8-29.6,127.42,0,0-15.22,35.75-61.46,79.44,0,0-28.61,30.83-99.44,60.59,0,0-3.57,21.84,6.81,37.53,71.77-30.85,110.39-65.48,110.39-65.48,58.25-47.35,81.32-101.09,81.32-101.09,40.26-90.7,38.06-179.78,38.06-179.78,13.56-120.74-40.07-805.2-40.07-805.2Z" style="fill: #ff926c; stroke: #3a3632; stroke-miterlimit: 11.34; stroke-width: 20px;"/>
  </g>
  <g id="layer2-11" data-name="layer2">
    <path id="path1047-7" data-name="path1047" d="m995.28,117.62s-76.59,8.83-164.99,86.8c0,0-69.16,56.34-105.42,148.82,0,0-28.94,69.42-26.68,161.06,0,0,.85,99.62,11.6,153.79,3.95,17.2,26.99,66.52,58.68,91.41,0,0,40,38.63,113.39,63.92,53.11,14.37,62.13,14.65,62.13,14.65,16.9,1.5,21.8,14.37,22.02,20.21,0,0,6.53,18.45,3.05,50.12,0,0-5.6,118.71-13.9,161.28,0,0-8.06,76.19-33.19,122.75,0,0-18.73,40.11-73.07,88.03,0,0-33.78,33.98-115.56,65.08,0,0-4.92,24.72,6.28,42.99,82.91-32.31,128.22-70.23,128.22-70.23,68.17-51.62,91.65-110.92,91.65-110.92,31.65-59.6,40.26-141.71,40.26-141.71,9.21-97.32,9.87-159.96,9.87-159.96,2.44-59.68,2.95-77.22,2.95-77.22-2.22-490.68-7.74-474.03-17.29-710.88h0Z" style="fill: #28cebe; stroke: #3a3632; stroke-miterlimit: 11.34; stroke-width: 20px;"/>
  </g>
  <g id="layer2-12" data-name="layer2">
    <path id="path1047-8" data-name="path1047" d="m874.3,76.44s-87.7,6.79-191.83,91.92c0,0-81.26,61.28-126.55,165.18,0,0-35.97,77.91-37.3,182.5,0,0-3.28,113.62,6.66,175.84,3.77,19.78,27.94,77,63,106.73,0,0,43.96,45.75,126.55,77.72,59.95,18.65,70.21,19.36,70.21,19.36,19.2,2.44,24.24,17.32,24.24,23.98,0,0,6.66,21.31,1.33,57.28,0,0-9.36,103.68-20.64,151.86,0,0-12.45,86.52-43.09,138.54,0,0-23.06,44.93-87.07,97.25,0,0-39.96,37.3-134.55,69.27,0,0-6.66,27.97,5.33,49.29,95.91-33.3,149.2-74.6,149.2-74.6,79.93-55.95,109.23-122.56,109.23-122.56,38.63-66.61,51.95-159.86,51.95-159.86,14.65-110.57,15.99-150.53,15.99-150.53,5.33-67.94,6.66-87.92,6.66-87.92,18.43-559.56,11.43-540.81,10.66-811.27h0Z" style="fill: #383850; stroke: #3a3632; stroke-miterlimit: 11.34; stroke-width: 20px;"/>
  </g>
  <path d="m440.73,527.59c-27.71,13.29-20.98,75.53-21.47,99.07-1.2,57.78-3.6,115.53-13.83,172.63-16.26,90.75-36.28,181.34-35.41,273.82,1.95,207.8,132.17,409.25,90.3,613.28-8.86,43.15-86.35,157.4-73.97,193.1,10.82,31.21,55.33,23.79,82.93,24.2,98.25,1.46,198.32,9.25,295.57-8.15,37.42-6.7,67.49-24.45,103.02-32.74,48.9-11.41,109.87-5.76,160.02-5.63,121.17.32,242.3,10.37,361.66,29.97,60.95,10.01,120.3,27.21,180.79,37.99,77.85,13.87,63.39-36.27,58.46-98.37-4.36-54.89-4.73-109.92-6.69-164.9-3.55-99.4.82-199.05,13.11-297.83,11.62-93.47,37.42-181.01,31.21-275.37-6.55-99.51-23.43-198.07-36.24-296.95-6.23-48.05,44.31-182.45,17.86-232.36-2.78-5.24-6.4-9.55-11.03-12.73-406.87,56.85-805.94,57.42-1196.27-19.05Z" style="fill: #fff; opacity: .5;"/>
  <path d="m1539.24,1521.05c4.8-9.73,8.02-23.38-2.18-28.85-11.92-6.4-25.16,6.4-32.26,17.13-33.63,50.78-78.19,95.98-130.58,132.45-11.14,7.75-23.28,15.36-37.29,17.07-14.01,1.72-30.16-4.5-33.75-16.5-4.09-13.67,8.7-26.36,15.25-39.36s-1.29-34.42-16.68-30.15c-4.92,1.37-8.43,5.13-11.64,8.71l-15.88,17.71c-11.47,12.79-33.74,11.84-43.42-1.86-12.35-17.48-32.57-30.73-55.64-34.61-37.37-6.27-78.55,12.67-94.34,43.38-6.76,13.16-9.14,27.76-15.69,41-6.55,13.24-19.24,25.83-35.55,26.72-18,.98-32.21-12.02-47.21-20.69-28.7-16.6-67.95-18-98.44-3.51-2.46,1.17-4.86,2.44-7.18,3.8-24.91,14.58-8.07,48.47,20.89,42.16.24-.05.48-.1.72-.15,23.88-5.06,51.38-1.91,68.47,13.41,17.55,15.73,25.81,43.94,50.88,45.68,20.58,1.43,35.15-17.04,45.06-33.11,15.05-24.42,30.1-48.85,45.15-73.27,6.66-10.8,13.73-22.02,25.2-29.02,11.48-7,28.75-8.22,38.22.65,12.07,11.3,5.55,31.5,16.7,43.52,15.08,16.25,44.79,4.03,63.89-8.87,11.01-7.44,37.02,43.73,38.6,49.75,1.82,6.94,1.82,13.75,1.16,20.47-1.93,19.43,22.23,32.21,40.83,21.49,38.66-22.28,76.13-57.91,102.16-83.16,43.27-41.95,78.94-90.04,104.56-141.98Z" style="fill: #fff;"/>
  <g>
    <path d="m440.73,527.59c-27.71,13.29-20.98,75.53-21.47,99.07-1.2,57.78-3.6,115.53-13.83,172.63-16.26,90.75-36.28,181.34-35.41,273.82,1.95,207.8,132.17,409.25,90.3,613.28-8.86,43.15-86.35,157.4-73.97,193.1,10.82,31.21,55.33,23.79,82.93,24.2,98.25,1.46,198.32,9.25,295.57-8.15,37.42-6.7,67.49-24.45,103.02-32.74,48.9-11.41,109.87-5.76,160.02-5.63,121.17.32,242.3,10.37,361.66,29.97,60.95,10.01,120.3,27.21,180.79,37.99,77.85,13.87,63.39-36.27,58.46-98.37-4.36-54.89-4.73-109.92-6.69-164.9-3.55-99.4.82-199.05,13.11-297.83,11.62-93.47,37.42-181.01,31.21-275.37-6.55-99.51-23.43-198.07-36.24-296.95-6.23-48.05,44.31-182.45,17.86-232.36-2.78-5.24-6.4-9.55-11.03-12.73-406.87,56.85-805.94,57.42-1196.27-19.05Z" style="fill: none; stroke: #383850; stroke-miterlimit: 11.34; stroke-width: 20px;"/>
    <path d="m440.28,951.36c-6.09,11.93-10.51,28.84,1.16,36.21,13.65,8.62,29.77-6.72,38.6-19.77,41.82-61.82,96.18-116.09,159.27-159.02,13.42-9.13,28-18.02,44.48-19.45,16.48-1.43,35.1,7.19,38.72,22.39,4.13,17.32-11.46,32.54-19.76,48.47-8.3,15.93-.15,43.14,18.07,38.59,5.83-1.45,10.12-5.99,14.05-10.3l19.45-21.35c14.04-15.42,40.07-13.08,50.75,4.57,13.62,22.51,36.65,40.14,63.48,46.18,43.45,9.78,92.58-11.8,112.55-49.43,8.55-16.12,12.04-34.26,20.35-50.5,8.31-16.23,23.77-31.34,42.91-31.61,21.12-.3,37.13,16.7,54.27,28.33,32.8,22.25,78.69,26.02,115.09,9.47,2.94-1.34,5.8-2.8,8.59-4.38,29.87-16.96,11.78-60.24-22.42-53.83-.28.05-.56.1-.85.16-28.2,5.1-60.25-.26-79.52-20.31-19.78-20.59-28.1-56.32-57.37-59.78-24.03-2.85-41.98,19.51-54.35,39.11-18.8,29.79-37.6,59.58-56.4,89.36-8.32,13.18-17.13,26.85-30.91,35.01-13.78,8.17-34.06,8.81-44.72-2.78-13.59-14.76-4.98-39.71-17.45-55.32-16.87-21.12-52.25-7.36-75.23,7.81-13.25,8.74-41.24-56.63-42.79-64.24-1.79-8.78-1.47-17.3-.37-25.67,3.2-24.22-24.47-41.45-46.76-29-46.34,25.89-91.93,68.55-123.63,98.8-52.68,50.27-96.77,108.61-129.27,172.29Z" style="fill: #fff; opacity: .9;"/>
  </g>
</svg>