<svg id="Layer_1" data-name="Layer 1" xmlns="http://www.w3.org/2000/svg" viewBox="0 0 2000 1530"><path id="path900" d="M1977.64,983.84c0-54.49-214.72-124.3-479.48-124.3s-478.22,69.94-478.22,124.3" style="fill:#adadad;stroke:#000;stroke-linecap:round;stroke-linejoin:round;stroke-width:24px"/><path id="path900-2" data-name="path900" d="M1019.94,983.84v396.89h0c0,54.36,214.64,139.27,479.4,139.27s478.3-84.78,478.3-139.27h0V983.84" style="fill:#47bac9;stroke:#000;stroke-linecap:round;stroke-linejoin:round;stroke-width:24px"/><path id="path900-3" data-name="path900" d="M1019.94,983.84c0,54.35,214.64,114.7,479.4,114.7s478.3-60.21,478.3-114.7l-8.6,8.34c-60.69-55.23-248.58-110.39-470.9-110.39-221.8,0-408.46,55-469.29,110.06" style="fill:#db8282;stroke:#000;stroke-linecap:round;stroke-linejoin:round;stroke-width:11px"/><path id="path900-4" data-name="path900" d="M1977.64,1012.79c0,54.49-213.53,114.71-478.3,114.71s-479.4-60.35-479.4-114.71" style="fill:none;stroke:#000;stroke-linecap:round;stroke-linejoin:round;stroke-width:11px"/><path d="M1748.15,1327.15c-61.58-12.35-118.89-39.81-177.27-63s-120.36-42.52-183-37.34c-64.25,5.32-125.67,37.9-166.68,87.55,49,8,72.21,20.44,72.21,20.44s-25.39,5.59-63.23,10.38c71.72,44.66,161.74,59.15,245.57,47C1568.14,1378.87,1654.94,1331.23,1748.15,1327.15Z" style="fill:#fff"/><path d="M1393.28,1232.34s15.19-41.83,47.26-57.63c11.28,33.08,80.5,71.33,80.5,71.33Z" style="fill:#fff"/><path d="M1529.05,1253.29s45.79-40.69,83.41-40c-49.19,45.38-25.46,60.51-25.46,60.51Z" style="fill:#fff"/><path d="M1553.73,1368.86s40.27,42.9,75.69,44.7c-43.15-47.71-19.8-61-19.8-61Z" style="fill:#fff"/><path d="M1365.08,1386s-.82,15.4,5.69,29.25c10,21.26,27.7,32.84,48.4,45.59-12.91-35.73,11.9-50.67,7.27-73.79C1410.55,1396.13,1365.08,1386,1365.08,1386Z" style="fill:#fff"/><path d="M1720.6,1325c6.12,29.17,30.71,74.46,51.24,88.61-8.41-15.26-17.23-56.14-16.94-85.51s17.1-74.14,36.36-96.76C1753.33,1258.66,1734.76,1290.06,1720.6,1325Z" style="fill:#fff"/><path id="path900-5" data-name="path900" d="M1977.64,983.84c0,54.49-213.53,114.7-478.3,114.7s-479.4-60.35-479.4-114.7" style="fill:none;stroke:#000;stroke-linecap:round;stroke-linejoin:round;stroke-width:24px"/><path id="path900-6" data-name="path900" d="M1964.36,880.76c10.18-27.56-174-130.26-416.32-219.84S1098,529.24,1087.82,556.73s172.12,135.08,414.45,224.66S1954.17,908.32,1964.36,880.76Z" style="fill:#6d6e70;stroke:#000;stroke-linecap:round;stroke-linejoin:round;stroke-width:24px"/><path d="M489.79,507.3,987.09,10c360,222.62,185.16,383.07,97.75,443.39-89.9,14.68-150.75,42.82-180.94,101.26-35.63,69,6.42,130,101.12,105.08,7.83-2.05,13.37,7.6,7.62,13.29-29.89,29.53-93.43,73.68-180.12,32.68l-72.16,72.17-96-96h0a29.69,29.69,0,0,0,0-42L646.67,622.2l-18.94-19a29.7,29.7,0,0,0-42,0h0Z" style="fill:#fff;stroke:#231f20;stroke-linecap:round;stroke-miterlimit:10;stroke-width:24px"/><path d="M7.46,735.19H640.4a0,0,0,0,1,0,0v135.7a0,0,0,0,1,0,0H7.46A67.85,67.85,0,0,1-60.39,803v0A67.85,67.85,0,0,1,7.46,735.19Z" transform="translate(-482.9 440.27) rotate(-45)" style="fill:#231f20;stroke:#231f20;stroke-linecap:round;stroke-miterlimit:10;stroke-width:31.0431965736899px"/><path d="M182.07,909.81H815a0,0,0,0,1,0,0v135.7a0,0,0,0,1,0,0H182.07a67.85,67.85,0,0,1-67.85-67.85v0a67.85,67.85,0,0,1,67.85-67.85Z" transform="translate(-555.22 614.88) rotate(-45)" style="fill:#231f20;stroke:#231f20;stroke-linecap:round;stroke-miterlimit:10;stroke-width:31.0431965736899px"/><line x1="646.67" y1="622.2" x2="891.68" y2="377.18" style="fill:#fff;stroke:#231f20;stroke-linecap:round;stroke-miterlimit:10;stroke-width:24px"/><line x1="724.95" y1="543.92" x2="589.06" y2="408.03" style="fill:#fff;stroke:#231f20;stroke-linecap:round;stroke-miterlimit:10;stroke-width:24px"/><rect x="611.87" y="254.23" width="670.63" height="120.9" rx="25.11" transform="translate(-10.81 34.63) rotate(-2.08)" style="fill:#fff;stroke:#231f20;stroke-linecap:round;stroke-miterlimit:10;stroke-width:24px"/><circle cx="946.16" cy="314.71" r="58.57" style="fill:#fff;stroke:#231f20;stroke-linecap:round;stroke-miterlimit:10;stroke-width:24px"/><circle cx="976.44" cy="156.53" r="41.41" style="fill:#fff;stroke:#231f20;stroke-linecap:round;stroke-miterlimit:10;stroke-width:24px"/><path d="M1667.17,957.82c22.71-9.17,65.12-11.22,96.86-4.17s59.63,17.13,60.59,38.14-38.42,38.76-82.11,41.63c-27.81,1.83-90.28-6.32-92.58-29.93-1.79-18.28,36.18-27.22,63.54-28.71s57.5,4.6,58.93,16.67-40,15.81-69.57,12.07" style="fill:none;stroke:#000;stroke-linecap:round;stroke-linejoin:round;stroke-width:11px"/><path d="M1634.06,958.09c-13.64-.18-23.52,7.26-29.94,18.26s-9.11,25.22-5.45,37.18c3.3,10.76,11.28,18.63,20.21,23.29s19.42,7.11,29.16,5.42" style="fill:none;stroke:#000;stroke-linecap:round;stroke-linejoin:round;stroke-width:11px"/><path d="M1586,961.49c-13.48,6-24,20-26.86,35.35-5.22,28,13.56,48.93,36.69,53.79" style="fill:none;stroke:#000;stroke-linecap:round;stroke-linejoin:round;stroke-width:11px"/><path d="M1695.38,922.5c-31.91-5.89-67-8.61-98.67-2.86-24,4.35-46.92,15.55-57.46,33.41-6.42,10.88-8,23.58-15.61,33.9a38.35,38.35,0,0,1-3.71,4.3c-12.73,12.69-35.12,17.22-55.09,15.56-18.19-1.51-36.35-10.23-40.1-25.79-5.69-23.59,26.85-35.67,51.45-31.36,25.35,4.44,28,33.41,1.47,36.17-21.17,2.2-29.65-14.51-6.84-16.26" style="fill:none;stroke:#000;stroke-linecap:round;stroke-linejoin:round;stroke-width:11px"/><path d="M1515.33,934.63c-36.61-13.74-83.29-12.54-116,11.39-14,10.24-26.94,28.24-23.86,46.65,4.26,25.53,33,38.33,57.81,43,13.59,2.52,30.73,7.14,64.39-2.44" style="fill:none;stroke:#000;stroke-linecap:round;stroke-linejoin:round;stroke-width:11px"/><path d="M1839,957.23c47.26,12.2,66.63,46.32,4.4,65.87" style="fill:none;stroke:#000;stroke-linecap:round;stroke-linejoin:round;stroke-width:11px"/><path d="M1532.4,1044.22c-59.72,28-133.12,21.53-188-16.55-13.8-9.57-26.41-20.92-40.25-30.42-40.52-27.8-93.07-44.1-140.76-30.77-9.49,2.65-18.78,7.57-24.6,15.85s-11.43,23.8,8.18,38.31c16.68,12.34,38.49,17.7,58.81,18.49,10.44.41,21.39-.68,31.32-4.11,8.17-2.83,21.85-9.15,21.89-19.34,0-12-16-18.54-25.29-21.82a119.7,119.7,0,0,0-38.25-7.08c-6.09-.08-25.11,0-25.89,9.41-.67,8.22,23.57,14.48,31,14.16" style="fill:none;stroke:#000;stroke-linecap:round;stroke-linejoin:round;stroke-width:11px"/><path d="M1209.81,931.66a243.22,243.22,0,0,1,123.73,43.68" style="fill:none;stroke:#000;stroke-linecap:round;stroke-linejoin:round;stroke-width:11px"/><path d="M1299,924.13a192.31,192.31,0,0,1,60.65,38.38" style="fill:none;stroke:#000;stroke-linecap:round;stroke-linejoin:round;stroke-width:11px"/></svg>