<svg xmlns="http://www.w3.org/2000/svg" xmlns:xlink="http://www.w3.org/1999/xlink" height="1913.42" width="1923.639" xmlns:v="https://vecta.io/nano"><style><![CDATA[.B{stroke-linejoin:round}.C{fill:#fff}.D{stroke-width:24}.E{stroke:#010101}.F{fill:#ca3d27}.G{stroke-width:17.169}.H{stroke-linecap:round}]]></style><defs><clipPath id="A"><path d="M1071.8 1661v-640.1c0 48.06 189.78 101.43 423.9 101.43s422.9-53.24 422.9-101.43V1661c0 48.2-188.8 123.14-422.9 123.14s-423.9-75.03-423.9-123.14z" fill="none"/></clipPath><path id="B" d="M1025.745 1776.23V791.95c307.94 119.58 567 114.23 860.53 0v984.33c0 49-191.86 125.14-429.76 125.14s-430.77-76.3-430.77-125.14z"/><path id="C" d="M1886.275 791.95c0 49-191.86 103.07-429.76 103.07s-430.77-54.28-430.77-103.07 191.8-111.68 429.7-111.68 430.83 62.68 430.83 111.68z"/></defs><use xlink:href="#B" fill="#9ca0aa"/><use xlink:href="#B" fill="#939598"/><use xlink:href="#B" fill="none" class="B D E"/><use xlink:href="#C" fill="#939598"/><g class="B"><path d="M1044.495 819.06c53.87 39.82 217.93 75.9 412 75.9s357.4-36 411.06-75.83c-53.82-42-218-83.75-412.13-83.75-193.94 0-357.22 41.77-410.93 83.67z" stroke="#040607" stroke-width="15.565" class="F"/><g class="D E"><use xlink:href="#C" fill="none"/><path d="M1911.285 722.35c9-24.45-154.36-115.56-369.35-195s-399.28-116.82-408.3-92.43 152.7 119.84 367.7 199.3 400.92 112.57 409.96 88.12z" fill="#6d6e71"/></g></g><g stroke="#231f20"><g stroke-miterlimit="10"><path d="M476.265 505.95l494-493.95c357.55 221.16 183.88 380.54 97.05 440.45-89.3 14.58-149.74 42.5-179.73 100.58-35.38 68.5 6.4 129.1 100.45 104.38 7.77-2.05 13.28 7.54 7.56 13.2-29.7 29.34-92.8 73.2-178.9 32.47l-71.68 71.67-95.3-95.3a29.5 29.5 0 0 0 0-41.7l-36.43-36.44a29.5 29.5 0 0 0-41.7 0h0z" class="C D"/><path d="M31.717 950.54l444.516-444.516 95.304 95.304-444.516 444.516a67.39 67.39 0 0 1-95.283-.021h0a67.39 67.39 0 0 1-.021-95.283zm173.44 173.442l444.544-444.544 95.3 95.3-444.544 444.544a67.39 67.39 0 0 1-95.304 0h0a67.39 67.39 0 0 1 0-95.304z" fill="#231f20" stroke-width="31.043"/><g class="C D H"><path d="M632.085 620.12l243.37-243.37"/><path d="M709.845 542.37L574.865 407.4"/></g><rect transform="rotate(357.709)" rx="24.96" height="120.176" width="666.663" y="288.294" x="586.028" stroke-width="24.019" class="C"/></g><g class="D"><circle r="58.18" cy="314.7" cx="929.565" class="C"/><circle r="41.14" cy="157.59" cx="959.645" class="C"/><path d="M1025.745 1622.12V971.58c0 48.84 192.86 103.07 430.77 103.07s429.76-54.1 429.76-103.07v650.54c0 49-191.86 125.14-429.76 125.14s-430.77-76.3-430.77-125.14z" class="B F"/></g></g><g transform="translate(-39.185 -45.05)" clip-path="url(#A)" class="B G"><g class="C"><path d="M1954.2 1401.8c-2.7 267.16-212.87 451.3-451.7 451.3s-463.67-194.36-465.3-458c-5.3-168.76 211.87-239 450.7-239s461.7 102.63 466.3 245.7z" stroke="#050507"/><path d="M1954.74 1404.2c1.43 132-220.7 240.87-459.54 240.87S1037 1536.2 1035.66 1404.2c-1.83-175.8 217-251.8 455.9-251.8s461.37 83.3 463.2 251.8z" stroke="#040607"/></g><path d="M1818.47 1482.6c71.17 69.34-84.43 163-323.27 163s-398.1-97.3-348.82-170.3c83.94-98.53 250.78-118.25 350.94-118.25s233.57 32.5 321.15 125.55z" stroke="#050605" class="F"/><path d="M1287.63 1812.22c40.15 91.23 366.78 93.06 406.92 1.82" fill="none" class="E H"/></g></svg>