<svg xmlns="http://www.w3.org/2000/svg" xmlns:xlink="http://www.w3.org/1999/xlink" height="1910.74" width="1927.98" xmlns:v="https://vecta.io/nano"><style><![CDATA[.B{fill:#fff}.C{stroke-width:24}.D{stroke-linejoin:round}.E{stroke-width:15.522}.F{stroke:#010101}.G{fill:#ca3d27}.H{stroke-linecap:round}]]></style><g stroke="#231f20"><g stroke-miterlimit="10"><path d="M480.265 505.95l494-493.95c357.55 221.16 183.88 380.54 97.05 440.45-89.3 14.58-149.74 42.5-179.73 100.58-35.38 68.5 6.4 129.1 100.45 104.38 7.77-2.05 13.28 7.54 7.56 13.2-29.7 29.34-92.8 73.2-178.9 32.47l-71.68 71.67-95.3-95.3a29.5 29.5 0 0 0 0-41.7l-36.43-36.44a29.5 29.5 0 0 0-41.7 0h0z" class="B C"/><path d="M35.717 950.54l444.516-444.516 95.304 95.304-444.516 444.516a67.39 67.39 0 0 1-95.283-.021h0a67.39 67.39 0 0 1-.021-95.283zm173.44 173.442l444.544-444.544 95.3 95.3-444.544 444.544a67.39 67.39 0 0 1-95.304 0h0a67.39 67.39 0 0 1 0-95.304z" fill="#231f20" stroke-width="31.043"/><g class="B"><g class="C H"><path d="M636.085 620.12l243.37-243.37"/><path d="M713.845 542.37L578.865 407.4"/></g><rect transform="rotate(357.709)" rx="24.96" height="120.176" width="666.663" y="288.454" x="590.024" stroke-width="24.019"/></g></g><g class="C B"><circle r="58.18" cy="314.7" cx="933.565"/><circle r="41.14" cy="157.59" cx="963.645"/></g></g><use xlink:href="#B" fill="#9ca0aa"/><use xlink:href="#B" fill="#939598"/><path d="M1032.535 1608.02V959.28c0 48.7 192.33 102.78 429.57 102.78s428.58-53.95 428.58-102.78v648.74c0 48.83-191.33 124.8-428.58 124.8s-429.57-76.1-429.57-124.8z" class="B"/><g class="F"><use xlink:href="#B" fill="none" class="C D"/><path d="M1622.605 1438.86c18.4-37.18 17-64.9 17-76.73 0-140.07-74.35-214.42-199.15-202.47-38.3 4-45 19.35-61.7 29.23-11.6-8.35-51.12-25.75-75.72-29.23-132.1-11.3-205.8 63.73-205.8 202.47 0 124.14 101.57 225 271.52 225 39.83 0 74-1.66 107.54-15.27 67.63-27.38 113.24-66.12 146.3-133z" class="E G"/></g><path d="M1236.535 1223.34c-7-8-47 32.28-75.16 86-16.27 26.35 44.94 70.5 48 23.25 3.88-53.47 40.55-94.22 27.12-109.26z" class="B"/><path d="M1376.005 1175.3s-36.4-37.2-42.6-58.9c-.78 7.75.77 35.65 14.72 55.8 0 0-63.54 3.1-72.06 12.4 0 0 59.66 9.3 74.38 1.55 0 0-7 51.92 3.1 69 0 0 28.67-44.94 25.57-57.34 0 0 69 19.37 87.56 14-5.42-9.3-55-30.22-72.83-29.44 20-8.8 33.3-34.87 33.3-34.87l-51.14 27.8z" fill="#0da54a"/><g class="B D E"><path d="M1828.815 1450.34c-1.1 110-87.67 185.86-186 185.86s-191-80-191.63-188.63c-2.18-69.5 87.25-98.44 185.62-98.44s190.1 42.3 192 101.2z" stroke="#050507"/><path d="M1829.015 1451.33c.6 54.37-90.9 99.2-189.26 99.2s-188.7-44.83-189.26-99.2c-.75-72.4 89.4-103.7 187.76-103.7s190 34.33 190.76 103.7z" stroke="#040607"/></g><path d="M1772.895 1483.62c29.3 28.55-34.77 67.12-133.14 67.12s-164-40.07-143.66-70.13c34.57-40.58 103.28-48.7 144.53-48.7s96.2 13.38 132.27 51.7z" stroke="#050605" class="D E G"/><g fill="none" class="F H"><path d="M1554.275 1619.37c16.53 37.57 151 38.32 167.58.75" class="D E"/><path d="M1572.335 1469.22c-19.12-14.3-32.93 4.9-32.93 4.9m119.35 40.94c-19.12-14.3-32.92 4.9-32.92 4.9m-27.95-4.52c-19.12-14.3-32.93 4.9-32.93 4.9m162.56-39.84c-19.12-14.3-32.92 4.9-32.92 4.9m-30.2 1.86c-19.1-14.3-32.92 4.9-32.92 4.9m-19.65-5.66c-19.12-14.3-32.92 4.92-32.92 4.92m-17.08 5.6c-19.12-14.3-32.93 4.9-32.93 4.9m153.54-40.23c-19.12-14.3-32.92 4.9-32.92 4.9m-23.82-7.9c-19.1-14.3-32.92 4.9-32.92 4.9m123.48 46.58c-19.12-14.3-32.92 4.9-32.92 4.9" stroke-width="7.773"/></g><use xlink:href="#C" fill="#939598"/><g class="D"><path d="M1051.235 819.44c53.72 39.7 217.32 75.7 410.87 75.7s356.4-35.9 409.93-75.62c-53.67-41.86-217.37-83.52-411-83.52-193.42 0-356.22 41.66-409.8 83.44z" stroke="#040607" class="E G"/><g class="C F"><use xlink:href="#C" fill="none"/><path d="M1915.625 722.95c9-24.38-153.93-115.24-368.33-194.5s-398.18-116.5-407.17-92.18 152.28 119.54 366.7 198.8 399.8 112.3 408.8 87.87z" fill="#6d6e71"/></g></g><defs ><path id="B" d="M1032.535 1773.95v-981.6c307.1 119.26 565.4 113.9 858.15 0v981.6c0 48.83-191.33 124.8-428.58 124.8s-429.57-76.08-429.57-124.8z"/><path id="C" d="M1890.685 792.35c0 48.83-191.33 102.8-428.58 102.8s-429.57-54.08-429.57-102.8 191.28-111.4 428.5-111.4 429.64 62.57 429.64 111.4z"/></defs></svg>