<svg xmlns="http://www.w3.org/2000/svg" xmlns:xlink="http://www.w3.org/1999/xlink" viewBox="0 0 2000 2000"><defs><clipPath id="clip-path"><path id="path900" d="M1968.43,810.39c0,50.77-199,106.87-445.64,106.87S1076.12,861,1076.12,810.39,1275,694.58,1521.69,694.58,1968.43,759.62,1968.43,810.39Z" style="fill:none"/></clipPath><clipPath id="clip-path-2"><path id="path900-2" data-name="path900" d="M1076.12,1668.51V994c0,50.64,200,106.87,446.67,106.87s445.64-56.1,445.64-106.87v674.55c0,50.78-199,129.76-445.64,129.76s-446.67-79.11-446.67-129.76Z" style="fill:none"/></clipPath></defs><g id="Layer_2" data-name="Layer 2"><path d="M485.29,526.07l497.3-497.3c360,222.62,185.16,383.07,97.74,443.39C990.44,486.83,929.58,515,899.39,573.42c-35.62,69,6.43,130,101.13,105.08,7.82-2,13.37,7.6,7.61,13.28-29.89,29.54-93.42,73.69-180.11,32.69l-72.17,72.16-96-96h0a29.69,29.69,0,0,0,0-42L642.17,641,623.22,622a29.69,29.69,0,0,0-42,0h0Z" style="fill:#fff;stroke:#000;stroke-linecap:round;stroke-miterlimit:10;stroke-width:24px"/><path d="M3,754H635.89a0,0,0,0,1,0,0v135.7a0,0,0,0,1,0,0H3a67.85,67.85,0,0,1-67.85-67.85v0A67.85,67.85,0,0,1,3,754Z" transform="translate(-497.49 442.58) rotate(-45)" style="fill:#231f20;stroke:#231f20;stroke-linecap:round;stroke-miterlimit:10;stroke-width:31.0431965736899px"/><path d="M177.57,928.57H810.51a0,0,0,0,1,0,0v135.7a0,0,0,0,1,0,0H177.57a67.85,67.85,0,0,1-67.85-67.85v0a67.85,67.85,0,0,1,67.85-67.85Z" transform="translate(-569.81 617.19) rotate(-45)" style="fill:#231f20;stroke:#231f20;stroke-linecap:round;stroke-miterlimit:10;stroke-width:31.0431965736899px"/><line x1="642.17" y1="640.96" x2="887.18" y2="395.95" style="fill:#fff;stroke:#231f20;stroke-linecap:round;stroke-miterlimit:10;stroke-width:24px"/><line x1="720.45" y1="562.69" x2="584.56" y2="426.8" style="fill:#fff;stroke:#231f20;stroke-linecap:round;stroke-miterlimit:10;stroke-width:24px"/><rect x="607.37" y="273" width="670.63" height="120.9" rx="25.11" transform="translate(-11.5 34.48) rotate(-2.08)" style="fill:#fff;stroke:#000;stroke-linecap:round;stroke-miterlimit:10;stroke-width:24px"/><circle cx="941.66" cy="333.48" r="58.57" style="fill:#fff;stroke:#231f20;stroke-linecap:round;stroke-miterlimit:10;stroke-width:24px"/><circle cx="971.94" cy="175.3" r="41.41" style="fill:#fff;stroke:#231f20;stroke-linecap:round;stroke-miterlimit:10;stroke-width:24px"/><path id="path900-3" data-name="path900" d="M1076.12,1841.06V820.39c319.32,124,587.9,118.44,892.31,0V1841.06h0c0,50.77-199,129.76-445.64,129.76s-446.67-79.12-446.67-129.76Z" style="fill:#929497;stroke:#000;stroke-linecap:round;stroke-linejoin:round;stroke-width:24px"/><path id="path900-4" data-name="path900" d="M1076.12,1668.51V994c0,50.64,200,106.87,446.67,106.87s445.64-56.1,445.64-106.87v674.55c0,50.78-199,129.76-445.64,129.76s-446.67-79.11-446.67-129.76Z" style="fill:#fff;stroke:#000;stroke-linecap:round;stroke-linejoin:round;stroke-width:24px"/><path id="path900-5" data-name="path900" d="M1968.43,820.39c0,50.77-199,106.87-445.64,106.87S1076.12,871,1076.12,820.39,1275,704.58,1521.69,704.58,1968.43,769.62,1968.43,820.39Z" style="fill:#d0d2d3;stroke:#000;stroke-linecap:round;stroke-linejoin:round;stroke-width:24px"/><g style="clip-path:url(#clip-path)"><path d="M1368.18,767.14c23,24.22,17.22,76.51,12.79,80.72s-57,7.31-80-16.92-24.29-51-3.38-70.82S1345.17,742.91,1368.18,767.14Z" style="fill:#ffc935;stroke:#231f20;stroke-miterlimit:10;stroke-width:9.600000381469727px"/><path d="M1376.29,842.93c-1,.72-7,2-16.64,1.71-6.15-.17-18-1.14-28.77-5.69-11.19-12-9.77-26.87,3.83-39.79s28.51-13.57,39.94-1.78c4,11,4.35,22.88,4.2,29C1378.62,836.1,1377.05,842,1376.29,842.93Z" style="fill:#fff6dd"/><path d="M1451.92,790.32c-12,31.19-61.67,48.44-67.38,46.25s-31.09-48.27-19.11-79.46,35.56-43.85,62.48-33.51S1463.9,759.12,1451.92,790.32Z" style="fill:#ffc935;stroke:#231f20;stroke-miterlimit:10;stroke-width:9.600000381469727px"/><path d="M1387,830.23c-1.06-.57-4.77-5.42-8.69-14.29-2.5-5.62-6.73-16.75-7.24-28.42,6-15.27,20.06-20.37,37.57-13.65s24.52,19.9,18.79,35.29c-8.2,8.32-18.79,13.76-24.41,16.27C1394.15,829.39,1388.14,830.52,1387,830.23Z" style="fill:#fff6dd"/><path d="M1784.37,838.89c-32.49,7.79-74.84-23.4-76.27-29.35s22.19-53,54.69-60.74,56.27,4.49,63,32.54S1816.87,831.11,1784.37,838.89Z" style="fill:#ffc935;stroke:#231f20;stroke-miterlimit:10;stroke-width:9.600000381469727px"/><path d="M1714.71,808c-.14-1.19,1.77-7,6.85-15.25,3.23-5.24,10-15,19.33-22.06,16-3.67,28.15,5,32.53,23.24s-2.53,31.48-18.46,35.47c-11.5-2.05-22-7.7-27.23-10.91C1719.46,813.39,1715.13,809.08,1714.71,808Z" style="fill:#fff6dd"/><path d="M1287.38,835.94c-22.8,24.43-75.33,21.8-79.8,17.63s-10.74-56.41,12.06-80.84,49.4-27.32,70.49-7.64S1310.18,811.5,1287.38,835.94Z" style="fill:#ffc935;stroke:#231f20;stroke-miterlimit:10;stroke-width:9.600000381469727px"/><path d="M1212.21,848.6c-.77-.92-2.39-6.82-2.71-16.5-.2-6.16,0-18.06,3.94-29.07,11.33-11.89,26.24-11.37,40,1.43s15.27,27.63,4.19,39.75c-10.71,4.65-22.57,5.72-28.72,5.95C1219.18,850.51,1213.18,849.31,1212.21,848.6Z" style="fill:#fff6dd"/><path d="M1500.53,797.21c32.2,8.93,54.13,56.74,52.5,62.64s-45.07,35.57-77.27,26.63-47-31.2-39.34-59S1468.33,788.27,1500.53,797.21Z" style="fill:#ffc935;stroke:#231f20;stroke-miterlimit:10;stroke-width:9.600000381469727px"/><path d="M1546.48,858c-.46,1.12-4.94,5.27-13.38,10-5.37,3-16,8.29-27.61,9.93-15.77-4.56-22.2-18-17.18-36.1s17.46-26.31,33.33-22.08c9.07,7.36,15.49,17.38,18.53,22.74C1545,851,1546.66,856.84,1546.48,858Z" style="fill:#fff6dd"/><path d="M1557.33,772.52c1,33.4-38.21,68.48-44.33,68.66s-47.3-32.54-48.28-65.94,15.9-54.17,44.72-55S1556.34,739.11,1557.33,772.52Z" style="fill:#ffc935;stroke:#231f20;stroke-miterlimit:10;stroke-width:9.600000381469727px"/><path d="M1512.8,834.39c-1.19-.11-6.49-3.16-13.53-9.82-4.47-4.23-12.67-12.87-17.64-23.43-.32-16.42,10.65-26.54,29.4-27.09s30.29,8.9,30.94,25.31c-4.35,10.84-12,19.94-16.24,24.43C1519.1,830.85,1514,834.21,1512.8,834.39Z" style="fill:#fff6dd"/><path d="M1443.92,846.4c-29.46,15.76-78.33-3.7-81.22-9.09s8.06-56.85,37.53-72.61,55.57-9.9,69.18,15.53S1473.39,830.64,1443.92,846.4Z" style="fill:#ffc935;stroke:#231f20;stroke-miterlimit:10;stroke-width:9.600000381469727px"/><path d="M1368.69,834.1c-.43-1.12-.06-7.22,2.77-16.49,1.79-5.89,5.87-17.07,13.11-26.23,14.56-7.6,28.51-2.29,37.35,14.25s5.53,31.09-8.87,39c-11.64.94-23.21-1.88-29.11-3.65C1374.66,838.16,1369.38,835.09,1368.69,834.1Z" style="fill:#fff6dd"/><path d="M1616.89,798c23.42,23.84,18.5,76.21,14.13,80.5s-56.81,8.26-80.23-15.58-25.14-50.54-4.56-70.75S1593.47,774.14,1616.89,798Z" style="fill:#ffc935;stroke:#231f20;stroke-miterlimit:10;stroke-width:9.600000381469727px"/><path d="M1626.26,873.63c-1,.74-6.91,2.1-16.6,2-6.16-.07-18-.83-28.87-5.2-11.38-11.84-10.21-26.71,3.17-39.86s28.28-14,39.9-2.45c4.18,10.91,4.73,22.8,4.69,29C1628.48,866.76,1627,872.69,1626.26,873.63Z" style="fill:#fff6dd"/><path d="M1750.8,856.27c-30.91,12.69-77.56-11.62-79.88-17.28s13.78-55.73,44.69-68.42,56.3-4.21,67.25,22.46S1781.71,843.58,1750.8,856.27Z" style="fill:#ffc935;stroke:#231f20;stroke-miterlimit:10;stroke-width:9.600000381469727px"/><path d="M1677.2,836.41c-.31-1.16.67-7.19,4.43-16.12,2.38-5.68,7.58-16.39,15.71-24.77,15.25-6.09,28.59.61,35.71,18s2.34,31.49-12.78,37.88c-11.68-.25-22.9-4.22-28.59-6.58C1682.73,841.06,1677.79,837.46,1677.2,836.41Z" style="fill:#fff6dd"/><path d="M1698.31,800.56c-16.69,29-68.47,38.25-73.77,35.19s-23.18-52.53-6.49-81.47,42-37.77,67-23.36S1715,771.62,1698.31,800.56Z" style="fill:#ffc935;stroke:#231f20;stroke-miterlimit:10;stroke-width:9.600000381469727px"/><path d="M1627.94,829.86c-1-.72-3.87-6.1-6.36-15.46-1.59-5.95-4-17.6-2.73-29.21,8.35-14.14,23-17,39.25-7.62s21.11,23.47,13.05,37.78c-9.39,6.95-20.7,10.67-26.64,12.27C1635.15,830.15,1629.05,830.33,1627.94,829.86Z" style="fill:#fff6dd"/><path d="M1720.51,823.38c3.24,33.26-33.48,70.92-39.57,71.51s-49.4-29.26-52.65-62.52,12.2-55.12,40.9-57.92S1717.26,790.12,1720.51,823.38Z" style="fill:#ffc935;stroke:#231f20;stroke-miterlimit:10;stroke-width:9.600000381469727px"/><path d="M1680.28,888.13c-1.21,0-6.7-2.72-14.17-8.88-4.75-3.92-13.51-12-19.19-22.19-1.43-16.36,8.82-27.19,27.5-29s30.82,6.83,32.58,23.15c-3.6,11.11-10.64,20.71-14.54,25.48C1686.32,884.17,1681.45,887.87,1680.28,888.13Z" style="fill:#fff6dd"/><path d="M1604.21,851c-23,24.23-17.22,76.51-12.78,80.73s57,7.31,80-16.92,24.29-51,3.38-70.83S1627.23,826.81,1604.21,851Z" style="fill:#ffc935;stroke:#231f20;stroke-miterlimit:10;stroke-width:9.600000381469727px"/><path d="M1596.11,926.84c1,.71,7,2,16.63,1.71,6.16-.17,18-1.14,28.78-5.69,11.19-12,9.77-26.87-3.83-39.79s-28.51-13.58-39.94-1.79c-4,11-4.35,22.88-4.2,29C1593.78,920,1595.34,925.91,1596.11,926.84Z" style="fill:#fff6dd"/><path d="M1520.48,874.22c12,31.2,61.67,48.45,67.38,46.26S1619,872.21,1607,841s-35.57-43.84-62.49-33.5S1508.5,843,1520.48,874.22Z" style="fill:#ffc935;stroke:#231f20;stroke-miterlimit:10;stroke-width:9.600000381469727px"/><path d="M1585.43,914.14c1.06-.57,4.77-5.43,8.69-14.29,2.49-5.63,6.72-16.76,7.24-28.42-6-15.27-20.06-20.38-37.58-13.65s-24.51,19.9-18.78,35.29c8.19,8.32,18.79,13.76,24.41,16.27C1578.25,913.3,1584.26,914.42,1585.43,914.14Z" style="fill:#fff6dd"/><path d="M1188,922.8c32.5,7.79,74.85-23.41,76.28-29.36s-22.19-53-54.69-60.74-56.27,4.5-63,32.54S1155.53,915,1188,922.8Z" style="fill:#ffc935;stroke:#231f20;stroke-miterlimit:10;stroke-width:9.600000381469727px"/><path d="M1257.69,891.86c.13-1.2-1.77-7-6.85-15.26-3.23-5.24-10-15-19.33-22.06-16-3.66-28.16,5-32.53,23.25s2.53,31.47,18.46,35.46c11.5-2,22-7.69,27.23-10.9C1252.94,897.3,1257.27,893,1257.69,891.86Z" style="fill:#fff6dd"/><path d="M1804.68,904.61c22.8,24.44,75.34,21.81,79.81,17.63s10.73-56.4-12.06-80.83-49.41-27.32-70.49-7.65S1781.89,880.18,1804.68,904.61Z" style="fill:#ffc935;stroke:#231f20;stroke-miterlimit:10;stroke-width:9.600000381469727px"/><path d="M1879.86,917.28c.77-.93,2.39-6.82,2.7-16.51.2-6.15,0-18-3.94-29.06-11.32-11.89-26.23-11.37-39.95,1.42s-15.27,27.64-4.19,39.76c10.72,4.65,22.57,5.72,28.73,5.94C1872.89,919.19,1878.88,918,1879.86,917.28Z" style="fill:#fff6dd"/><path d="M1471.86,881.11c-32.2,8.94-54.13,56.75-52.49,62.65s45.07,35.56,77.27,26.63,47-31.2,39.33-59S1504.06,872.18,1471.86,881.11Z" style="fill:#ffc935;stroke:#231f20;stroke-miterlimit:10;stroke-width:9.600000381469727px"/><path d="M1425.92,941.94c.46,1.11,4.94,5.27,13.38,10,5.37,3,16,8.3,27.6,9.93,15.78-4.55,22.21-18,17.19-36.09s-17.46-26.31-33.33-22.08c-9.07,7.36-15.5,17.38-18.54,22.73C1427.44,934.88,1425.74,940.75,1425.92,941.94Z" style="fill:#fff6dd"/><path d="M1415.07,856.42c-1,33.4,38.21,68.49,44.32,68.67s47.31-32.54,48.29-65.94-15.9-54.17-44.73-55S1416.05,823,1415.07,856.42Z" style="fill:#ffc935;stroke:#231f20;stroke-miterlimit:10;stroke-width:9.600000381469727px"/><path d="M1459.59,918.3c1.2-.11,6.5-3.16,13.54-9.82,4.47-4.24,12.66-12.87,17.64-23.44.32-16.42-10.65-26.53-29.4-27.09s-30.29,8.91-30.94,25.32c4.34,10.84,12,19.94,16.23,24.43C1453.3,914.76,1458.4,918.12,1459.59,918.3Z" style="fill:#fff6dd"/><path d="M1528.47,930.3c29.47,15.76,78.34-3.69,81.23-9.09s-8.06-56.84-37.53-72.6-55.58-9.9-69.18,15.53S1499,914.54,1528.47,930.3Z" style="fill:#ffc935;stroke:#231f20;stroke-miterlimit:10;stroke-width:9.600000381469727px"/><path d="M1603.71,918c.43-1.12.06-7.22-2.77-16.49-1.8-5.89-5.88-17.08-13.12-26.24-14.56-7.6-28.5-2.29-37.35,14.26s-5.52,31.08,8.88,39c11.64.94,23.21-1.87,29.1-3.65C1597.73,922.07,1603,919,1603.71,918Z" style="fill:#fff6dd"/><path d="M1742.61,919.41c29.47,15.76,78.34-3.7,81.23-9.09s-8.06-56.85-37.53-72.61-55.58-9.9-69.18,15.53S1713.15,903.65,1742.61,919.41Z" style="fill:#ffc935;stroke:#231f20;stroke-miterlimit:10;stroke-width:9.600000381469727px"/><path d="M1817.85,907.11c.43-1.12.06-7.22-2.77-16.49-1.8-5.89-5.88-17.07-13.12-26.23-14.56-7.6-28.5-2.29-37.35,14.25s-5.52,31.09,8.88,39c11.64.94,23.21-1.88,29.1-3.65C1811.87,911.17,1817.15,908.1,1817.85,907.11Z" style="fill:#fff6dd"/><path d="M1355.51,881.89c-23.42,23.84-18.5,76.21-14.14,80.5s56.82,8.26,80.23-15.58,25.14-50.55,4.57-70.76S1378.92,858.05,1355.51,881.89Z" style="fill:#ffc935;stroke:#231f20;stroke-miterlimit:10;stroke-width:9.600000381469727px"/><path d="M1346.13,957.54c1,.73,6.92,2.09,16.61,2,6.15-.07,18-.84,28.86-5.21,11.39-11.83,10.22-26.7-3.16-39.85s-28.28-14.05-39.91-2.45c-4.17,10.91-4.72,22.8-4.68,29C1343.92,950.66,1345.38,956.6,1346.13,957.54Z" style="fill:#fff6dd"/><path d="M1656,871.84c-23.41,23.84-18.5,76.21-14.13,80.5s56.81,8.26,80.23-15.58,25.14-50.55,4.56-70.76S1679.43,848,1656,871.84Z" style="fill:#ffc935;stroke:#231f20;stroke-miterlimit:10;stroke-width:9.600000381469727px"/><path d="M1646.64,947.49c.95.73,6.91,2.09,16.6,2,6.16-.07,18-.84,28.87-5.21,11.39-11.83,10.22-26.7-3.17-39.85s-28.27-14-39.9-2.45c-4.17,10.9-4.73,22.8-4.69,28.95C1644.42,940.61,1645.89,946.55,1646.64,947.49Z" style="fill:#fff6dd"/><path d="M1221.6,940.18c30.91,12.69,77.56-11.62,79.88-17.28s-13.78-55.74-44.7-68.43-56.29-4.21-67.25,22.47S1190.68,927.49,1221.6,940.18Z" style="fill:#ffc935;stroke:#231f20;stroke-miterlimit:10;stroke-width:9.600000381469727px"/><path d="M1295.2,920.32c.31-1.16-.68-7.19-4.43-16.13-2.38-5.67-7.58-16.39-15.71-24.77-15.26-6.08-28.59.62-35.71,18s-2.35,31.49,12.78,37.88c11.68-.25,22.9-4.22,28.58-6.59C1289.66,925,1294.6,921.37,1295.2,920.32Z" style="fill:#fff6dd"/><path d="M1274.09,884.47c16.69,28.95,68.46,38.24,73.76,35.18s23.19-52.52,6.49-81.47-42-37.76-66.94-23.35S1257.39,855.52,1274.09,884.47Z" style="fill:#ffc935;stroke:#231f20;stroke-miterlimit:10;stroke-width:9.600000381469727px"/><path d="M1344.46,913.77c1-.73,3.87-6.1,6.36-15.47,1.59-5.94,4-17.6,2.72-29.2-8.35-14.14-23-17-39.24-7.63s-21.11,23.48-13,37.79c9.39,6.94,20.7,10.66,26.64,12.27C1337.24,914.06,1343.35,914.24,1344.46,913.77Z" style="fill:#fff6dd"/></g><g style="clip-path:url(#clip-path-2)"><path d="M1122.38,1393.76c4-32-15.41-57.93-43.59-58.37-27.87-.44-43.27,24.14-46.71,54.93s7.31,45.17,34.58,46.79C1094.23,1438.74,1118.36,1425.72,1122.38,1393.76Z" style="fill:#ffc935;stroke:#000;stroke-miterlimit:10;stroke-width:8px"/><path d="M1165.34,1386.56c4.36-32.68-15.41-58.77-44-58.85-28.29-.08-44,25-47.8,56.28s6.91,45.79,34.58,47.22C1136.08,1432.65,1161,1419.18,1165.34,1386.56Z" style="fill:#ffc935;stroke:#000;stroke-miterlimit:10;stroke-width:8px"/><path d="M1210,1378.88c4.71-33.38-15.71-59.72-45.14-59.47-29.1.24-45.38,25.86-49.48,57.68s6.65,46.53,35.13,47.78C1179.3,1426.13,1205.29,1412.19,1210,1378.88Z" style="fill:#ffc935;stroke:#000;stroke-miterlimit:10;stroke-width:8px"/><path d="M1256.83,1370.77c5-34.08-16.33-60.72-46.93-60.21-30.24.5-47.23,26.66-51.69,59.08s6.56,47.36,36.22,48.45C1224.44,1419.19,1251.82,1404.78,1256.83,1370.77Z" style="fill:#ffc935;stroke:#000;stroke-miterlimit:10;stroke-width:8px"/><path d="M1306.32,1362.32c5.29-34.76-17.27-61.75-49.35-61.06-31.7.69-49.53,27.37-54.33,60.43s6.62,48.24,37.82,49.2C1272,1411.87,1301,1397,1306.32,1362.32Z" style="fill:#ffc935;stroke:#000;stroke-miterlimit:10;stroke-width:8px"/><path d="M1358.8,1353.69c5.47-35.39-18.55-62.79-52.36-62-33.41.75-52.16,27.91-57.3,61.62s6.86,49.17,39.91,50C1322.49,1404.22,1353.33,1389,1358.8,1353.69Z" style="fill:#ffc935;stroke:#000;stroke-miterlimit:10;stroke-width:8px"/><path d="M1414.43,1345.1c5.51-35.93-20.15-63.81-55.85-63.13-35.28.67-55,28.22-60.41,62.55s7.3,50.11,42.46,51C1376.19,1396.39,1408.93,1381,1414.43,1345.1Z" style="fill:#ffc935;stroke:#000;stroke-miterlimit:10;stroke-width:8px"/><path d="M1473.13,1336.81c5.35-36.32-22-64.76-59.64-64.35-37.18.4-57.83,28.21-63.41,63.11s8,51,45.35,52C1433.26,1388.56,1467.8,1373.06,1473.13,1336.81Z" style="fill:#ffc935;stroke:#000;stroke-miterlimit:10;stroke-width:8px"/><path d="M1534.45,1329.17c5-36.57-24-65.66-63.43-65.74-38.93-.08-60.36,27.83-66,63.22s8.89,51.83,48.45,53.08C1493.52,1381,1529.51,1365.66,1534.45,1329.17Z" style="fill:#ffc935;stroke:#000;stroke-miterlimit:10;stroke-width:8px"/><path d="M1597.57,1322.46c4.37-36.67-26-66.46-66.8-67.23-40.34-.76-62.31,27.07-67.76,62.81s10,52.55,51.44,54.25C1556.35,1374,1593.21,1359.06,1597.57,1322.46Z" style="fill:#ffc935;stroke:#000;stroke-miterlimit:10;stroke-width:8px"/><path d="M1661.41,1316.87c3.68-36.67-27.58-67.16-69.34-68.76-41.26-1.59-63.41,26-68.46,62s11.33,53.16,54,55.46C1620.75,1367.87,1657.75,1353.46,1661.41,1316.87Z" style="fill:#ffc935;stroke:#000;stroke-miterlimit:10;stroke-width:8px"/><path d="M1724.91,1312.38c3-36.58-28.71-67.69-70.81-70.17-41.59-2.44-63.55,24.8-68,60.87s12.65,53.63,55.74,56.61C1685.45,1362.71,1721.93,1348.87,1724.91,1312.38Z" style="fill:#ffc935;stroke:#000;stroke-miterlimit:10;stroke-width:8px"/><path d="M1787.24,1308.83c2.41-36.42-29.28-68-71.19-71.3-41.39-3.24-62.83,23.62-66.58,59.69s13.79,54,56.56,57.59C1749.34,1358.48,1784.84,1345.16,1787.24,1308.83Z" style="fill:#ffc935;stroke:#000;stroke-miterlimit:10;stroke-width:8px"/><path d="M1848,1306c2-36.23-29.37-68.16-70.7-72.07-40.82-3.87-61.53,22.64-64.55,58.64s14.6,54.16,56.49,58.29C1811.64,1355,1846,1342.11,1848,1306Z" style="fill:#ffc935;stroke:#000;stroke-miterlimit:10;stroke-width:8px"/><path d="M1907.1,1303.46c1.78-36-29.1-68.13-69.68-72.46-40.07-4.28-60,22-62.4,57.87s15.06,54.18,55.8,58.66C1872.06,1352.07,1905.32,1339.44,1907.1,1303.46Z" style="fill:#ffc935;stroke:#000;stroke-miterlimit:10;stroke-width:8px"/><path d="M1964.94,1301c1.8-36-28.62-68-68.5-72.51-39.38-4.43-58.63,21.67-60.57,57.45s15.19,54.09,54.76,58.73C1930.7,1349.39,1963.14,1336.88,1964.94,1301Z" style="fill:#ffc935;stroke:#000;stroke-miterlimit:10;stroke-width:8px"/><path d="M2022.2,1298.28c2.07-35.94-28.06-67.91-67.54-72.28-39-4.31-57.78,21.82-59.47,57.49s15,53.93,53.7,58.55C1988,1346.71,2020.14,1334.14,2022.2,1298.28Z" style="fill:#ffc935;stroke:#000;stroke-miterlimit:10;stroke-width:8px"/><path d="M1120.3,1483.67c3.19-32.29-16.5-59.51-44.17-60.93-27.38-1.4-42.2,23-45.18,53.8s7.92,45.68,35.06,48.46C1093.45,1527.82,1117.11,1515.89,1120.3,1483.67Z" style="fill:#ffc935;stroke:#000;stroke-miterlimit:10;stroke-width:8px"/><path d="M1162.74,1478.47c3.41-33.09-16.74-60.78-44.92-62-27.87-1.2-43,23.71-46.09,55.16s7.77,46.53,35.34,49.31C1134.94,1523.78,1159.34,1511.49,1162.74,1478.47Z" style="fill:#ffc935;stroke:#000;stroke-miterlimit:10;stroke-width:8px"/><path d="M1206.92,1472.94c3.68-34-17.24-62.17-46.32-63.18-28.75-1-44.32,24.53-47.65,56.66s7.74,47.52,36.13,50.3C1177.8,1519.53,1203.25,1506.84,1206.92,1472.94Z" style="fill:#ffc935;stroke:#000;stroke-miterlimit:10;stroke-width:8px"/><path d="M1253.38,1467.1c4-34.9-18-63.69-48.34-64.52-30-.83-46.25,25.37-49.82,58.27s7.82,48.64,37.42,51.4C1222.59,1515.05,1249.43,1501.92,1253.38,1467.1Z" style="fill:#ffc935;stroke:#000;stroke-miterlimit:10;stroke-width:8px"/><path d="M1302.63,1460.94c4.26-35.86-19-65.27-51-66-31.6-.69-48.69,26.2-52.54,60s8,49.85,39.2,52.6C1269.86,1510.31,1298.38,1496.72,1302.63,1460.94Z" style="fill:#ffc935;stroke:#000;stroke-miterlimit:10;stroke-width:8px"/><path d="M1355.09,1454.52c4.54-36.81-20.28-66.87-54.17-67.5-33.49-.62-51.58,27-55.73,61.61s8.34,51.15,41.44,53.89C1320.12,1505.29,1350.56,1491.25,1355.09,1454.52Z" style="fill:#ffc935;stroke:#000;stroke-miterlimit:10;stroke-width:8px"/><path d="M1411,1447.93c4.76-37.69-21.79-68.43-57.82-69.09-35.6-.64-54.8,27.61-59.24,63.16s8.79,52.51,44.08,55.24C1373.76,1500,1406.27,1485.54,1411,1447.93Z" style="fill:#ffc935;stroke:#000;stroke-miterlimit:10;stroke-width:8px"/><path d="M1470.42,1441.32c4.87-38.43-23.47-69.88-61.73-70.69-37.8-.81-58.14,28-62.85,64.48s9.39,53.85,47.05,56.61C1431,1494.51,1465.56,1479.68,1470.42,1441.32Z" style="fill:#ffc935;stroke:#000;stroke-miterlimit:10;stroke-width:8px"/><path d="M1532.89,1434.91c4.8-39-25.2-71.13-65.57-72.28-39.89-1.14-61.28,28.13-66.21,65.43s10.14,55.13,50.15,58C1491.75,1488.87,1528.09,1473.81,1532.89,1434.91Z" style="fill:#ffc935;stroke:#000;stroke-miterlimit:10;stroke-width:8px"/><path d="M1597.52,1428.93c4.53-39.28-26.77-72.09-68.86-73.77-41.59-1.66-63.83,27.85-68.84,65.86s11,56.26,53.08,59.21C1555.47,1483.23,1593,1468.12,1597.52,1428.93Z" style="fill:#ffc935;stroke:#000;stroke-miterlimit:10;stroke-width:8px"/><path d="M1663,1423.55c4.13-39.31-27.91-72.69-71.07-75-42.64-2.34-65.36,27.19-70.26,65.72s12,57.16,55.41,60.33C1621,1477.76,1658.85,1462.78,1663,1423.55Z" style="fill:#ffc935;stroke:#000;stroke-miterlimit:10;stroke-width:8px"/><path d="M1727.91,1418.83c3.68-39.13-28.49-72.9-71.94-76-42.91-3-65.64,26.29-70.23,65.11s12.89,57.76,56.76,61.19C1686.92,1472.61,1724.23,1457.88,1727.91,1418.83Z" style="fill:#ffc935;stroke:#000;stroke-miterlimit:10;stroke-width:8px"/><path d="M1791.34,1414.69c3.26-38.78-28.55-72.74-71.56-76.5-42.48-3.71-64.76,25.3-68.88,64.18s13.59,58,57,61.71C1751.81,1467.81,1788.08,1453.39,1791.34,1414.69Z" style="fill:#ffc935;stroke:#000;stroke-miterlimit:10;stroke-width:8px"/><path d="M1852.77,1411c2.93-38.34-28.22-72.29-70.3-76.57-41.57-4.22-63.09,24.41-66.69,63.15s14,58,56.27,61.83C1814.86,1463.36,1849.84,1449.26,1852.77,1411Z" style="fill:#ffc935;stroke:#000;stroke-miterlimit:10;stroke-width:8px"/><path d="M1912.15,1407.61c2.72-37.85-27.67-71.63-68.61-76.23-40.43-4.55-61.06,23.67-64.19,62.12s14.09,57.6,55,61.62C1875.72,1459.19,1909.44,1445.39,1912.15,1407.61Z" style="fill:#ffc935;stroke:#000;stroke-miterlimit:10;stroke-width:8px"/><path d="M1969.83,1404.34c2.65-37.41-27.06-70.9-66.91-75.63-39.34-4.67-59.13,23.2-61.88,61.25s14,57.06,53.45,61.14C1934.49,1455.23,1967.2,1441.66,1969.83,1404.34Z" style="fill:#ffc935;stroke:#000;stroke-miterlimit:10;stroke-width:8px"/><path d="M2026.51,1401c2.74-37-26.53-70.17-65.59-74.83-38.56-4.61-57.7,23-60.2,60.61s13.7,56.42,52.06,60.49C1991.63,1451.37,2023.78,1438,2026.51,1401Z" style="fill:#ffc935;stroke:#000;stroke-miterlimit:10;stroke-width:8px"/><path d="M1121.48,1577.85c2.24-32-18.13-60.45-45.63-63.13-27.2-2.65-41.47,21.19-43.88,51.89s8.8,45.86,36.15,49.82C1095.78,1620.44,1119.24,1609.82,1121.48,1577.85Z" style="fill:#ffc935;stroke:#000;stroke-miterlimit:10;stroke-width:8px"/><path d="M1163.8,1575c2.32-32.84-18.66-61.93-46.7-64.59-27.73-2.63-42.13,21.73-44.5,53s8.92,46.77,36.69,50.93C1137.38,1618.58,1161.48,1607.77,1163.8,1575Z" style="fill:#ffc935;stroke:#000;stroke-miterlimit:10;stroke-width:8px"/><path d="M1207.83,1572.08c2.46-33.73-19.4-63.55-48.38-66.19-28.64-2.61-43.41,22.36-45.82,54.35s9.14,47.84,37.73,52.17C1180.27,1616.78,1205.37,1605.74,1207.83,1572.08Z" style="fill:#ffc935;stroke:#000;stroke-miterlimit:10;stroke-width:8px"/><path d="M1254.12,1569c2.67-34.7-20.33-65.32-50.62-67.92-30-2.58-45.3,23.07-47.8,55.85s9.43,49,39.21,53.52C1225,1615,1251.46,1603.64,1254.12,1569Z" style="fill:#ffc935;stroke:#000;stroke-miterlimit:10;stroke-width:8px"/><path d="M1303.2,1565.77c2.94-35.73-21.43-67.17-53.41-69.75-31.61-2.55-47.75,23.85-50.41,57.53s9.8,50.37,41.14,55C1272.22,1613.14,1300.27,1601.42,1303.2,1565.77Z" style="fill:#ffc935;stroke:#000;stroke-miterlimit:10;stroke-width:8px"/><path d="M1355.51,1562.28c3.27-36.78-22.68-69.07-56.67-71.63-33.6-2.53-50.72,24.67-53.59,59.32s10.23,51.8,43.46,56.45C1322.31,1611.13,1352.25,1599,1355.51,1562.28Z" style="fill:#ffc935;stroke:#000;stroke-miterlimit:10;stroke-width:8px"/><path d="M1411.36,1558.51c3.64-37.81-24-70.93-60.28-73.49-35.85-2.54-54.12,25.49-57.26,61.17s10.73,53.29,46.11,58C1375.72,1608.87,1407.73,1596.23,1411.36,1558.51Z" style="fill:#ffc935;stroke:#000;stroke-miterlimit:10;stroke-width:8px"/><path d="M1470.79,1554.41c4-38.75-25.32-72.65-64-75.26-38.22-2.57-57.77,26.28-61.22,63s11.26,54.8,49,59.41C1432.66,1606.25,1466.77,1593.07,1470.79,1554.41Z" style="fill:#ffc935;stroke:#000;stroke-miterlimit:10;stroke-width:8px"/><path d="M1533.44,1550c4.4-39.51-26.45-74.09-67.46-76.8-40.52-2.68-61.36,26.94-65.16,64.71s11.81,56.27,51.79,60.73C1493.07,1603.14,1529.06,1589.41,1533.44,1550Z" style="fill:#ffc935;stroke:#000;stroke-miterlimit:10;stroke-width:8px"/><path d="M1598.44,1545.22c4.67-40-27.21-75.11-70.16-78-42.43-2.87-64.46,27.39-68.6,66.11s12.29,57.59,54.27,61.83C1556.43,1599.43,1593.79,1585.16,1598.44,1545.22Z" style="fill:#ffc935;stroke:#000;stroke-miterlimit:10;stroke-width:8px"/><path d="M1664.37,1540.22c4.78-40.21-27.43-75.58-71.56-78.77-43.59-3.16-66.51,27.53-71,67s12.67,58.65,56,62.58C1621.71,1595.05,1659.61,1580.34,1664.37,1540.22Z" style="fill:#ffc935;stroke:#000;stroke-miterlimit:10;stroke-width:8px"/><path d="M1729.78,1535.09c4.74-40.1-27.15-75.5-71.48-79-43.79-3.47-67.09,27.38-71.71,67.43s12.84,59.33,56.58,62.93C1687.45,1590.07,1725.06,1575.1,1729.78,1535.09Z" style="fill:#ffc935;stroke:#000;stroke-miterlimit:10;stroke-width:8px"/><path d="M1793.62,1530c4.6-39.75-26.55-75-70.22-78.79-43.14-3.77-66.24,27-70.9,67.25s12.78,59.55,56,62.88C1752.32,1584.67,1789,1569.62,1793.62,1530Z" style="fill:#ffc935;stroke:#000;stroke-miterlimit:10;stroke-width:8px"/><path d="M1855.35,1524.89c4.4-39.26-25.79-74.16-68.26-78.2-41.95-4-64.44,26.5-69,66.65s12.55,59.35,54.68,62.5C1815.44,1579,1851,1564.07,1855.35,1524.89Z" style="fill:#ffc935;stroke:#000;stroke-miterlimit:10;stroke-width:8px"/><path d="M1914.88,1520c4.21-38.7-25-73.18-66.07-77.36-40.54-4.12-62.19,26-66.55,65.77s12.22,58.84,52.93,61.9C1876.42,1573.36,1910.69,1558.57,1914.88,1520Z" style="fill:#ffc935;stroke:#000;stroke-miterlimit:10;stroke-width:8px"/><path d="M1972.57,1515.16c4-38.14-24.4-72.15-64.1-76.37-39.2-4.18-60,25.44-64.11,64.77s11.84,58.12,51.14,61.14C1935.3,1567.75,1968.52,1553.2,1972.57,1515.16Z" style="fill:#ffc935;stroke:#000;stroke-miterlimit:10;stroke-width:8px"/><path d="M2029.07,1510.47c4-37.62-24-71.16-62.7-75.35-38.18-4.13-58.19,25-62.12,63.78s11.51,57.32,49.65,60.34C1992.53,1562.3,2025.1,1548,2029.07,1510.47Z" style="fill:#ffc935;stroke:#000;stroke-miterlimit:10;stroke-width:8px"/><path d="M1131,1676c1.43-31.31-20-60.54-47.71-64.57-27.45-4-41.31,19.13-43.25,49.46s9.68,45.7,37.62,50.66C1105.88,1716.55,1129.54,1707.22,1131,1676Z" style="fill:#ffc935;stroke:#000;stroke-miterlimit:10;stroke-width:8px"/><path d="M1173.79,1675.44c1.37-32-20.78-61.93-49.11-66.14-28-4.16-41.89,19.32-43.6,50.12s10.08,46.5,38.43,51.82C1148.19,1716.62,1172.41,1707.32,1173.79,1675.44Z" style="fill:#ffc935;stroke:#000;stroke-miterlimit:10;stroke-width:8px"/><path d="M1218.27,1675.05c1.4-32.66-21.74-63.43-51-67.8-29-4.32-43.09,19.63-44.66,51s10.53,47.43,39.68,53.06C1191.72,1717,1216.86,1707.65,1218.27,1675.05Z" style="fill:#ffc935;stroke:#000;stroke-miterlimit:10;stroke-width:8px"/><path d="M1264.94,1674.73c1.55-33.45-22.81-65-53.47-69.53-30.31-4.45-44.91,20.06-46.43,52.1s11,48.48,41.34,54.36C1237,1717.6,1263.4,1708.1,1264.94,1674.73Z" style="fill:#ffc935;stroke:#000;stroke-miterlimit:10;stroke-width:8px"/><path d="M1314.3,1674.34c1.79-34.28-24-66.68-56.32-71.27-32-4.54-47.3,20.61-48.86,53.41s11.55,49.62,43.34,55.67C1284.61,1718.27,1312.51,1708.54,1314.3,1674.34Z" style="fill:#ffc935;stroke:#000;stroke-miterlimit:10;stroke-width:8px"/><path d="M1366.73,1673.74c2.18-35.12-25.08-68.31-59.48-73-34-4.58-50.22,21.29-51.91,54.91s12.07,50.82,45.62,57C1334.91,1718.87,1364.56,1708.79,1366.73,1673.74Z" style="fill:#ffc935;stroke:#000;stroke-miterlimit:10;stroke-width:8px"/><path d="M1422.48,1672.76c2.69-36-26.1-69.84-62.76-74.47-36.23-4.58-53.6,22.07-55.52,56.56s12.56,52.07,48.09,58.16C1388.23,1719.18,1419.8,1708.64,1422.48,1672.76Z" style="fill:#ffc935;stroke:#000;stroke-miterlimit:10;stroke-width:8px"/><path d="M1481.53,1671.18c3.32-36.73-26.86-71.18-65.89-75.73-38.57-4.49-57.24,23-59.51,58.37s13,53.29,50.56,59.19C1444.73,1719,1478.21,1707.83,1481.53,1671.18Z" style="fill:#ffc935;stroke:#000;stroke-miterlimit:10;stroke-width:8px"/><path d="M1543.48,1668.79c4-37.41-27.18-72.21-68.46-76.6-40.8-4.33-60.87,24-63.62,60.26s13.22,54.42,52.79,60C1504.24,1718,1539.44,1706.11,1543.48,1668.79Z" style="fill:#ffc935;stroke:#000;stroke-miterlimit:10;stroke-width:8px"/><path d="M1607.48,1665.42c4.77-38-26.9-72.88-70-77-42.6-4.09-64.06,25-67.38,62.15s13.24,55.41,54.46,60.38C1566.26,1716,1602.73,1703.28,1607.48,1665.42Z" style="fill:#ffc935;stroke:#000;stroke-miterlimit:10;stroke-width:8px"/><path d="M1672.34,1661c5.36-38.29-26.09-73.15-70.25-77-43.62-3.78-66.27,26.07-70.26,63.91s13,56.17,55.25,60.46C1629.89,1712.76,1667,1699.25,1672.34,1661Z" style="fill:#ffc935;stroke:#000;stroke-miterlimit:10;stroke-width:8px"/><path d="M1736.81,1655.79c5.73-38.45-25-73.07-69.19-76.62-43.68-3.49-67.1,26.91-71.75,65.32s12.38,56.68,55,60.24C1694,1708.33,1731.09,1694.14,1736.81,1655.79Z" style="fill:#ffc935;stroke:#000;stroke-miterlimit:10;stroke-width:8px"/><path d="M1799.93,1649.92c5.9-38.39-23.77-72.69-67.22-76-42.91-3.29-66.52,27.42-71.73,66.2s11.6,56.92,53.83,59.82C1757.57,1702.87,1794.05,1688.22,1799.93,1649.92Z" style="fill:#ffc935;stroke:#000;stroke-miterlimit:10;stroke-width:8px"/><path d="M1861.2,1643.7c5.89-38.17-22.69-72.08-64.85-75.27-41.64-3.15-64.95,27.61-70.5,66.51s10.78,56.89,52.08,59.31C1819.76,1696.69,1855.32,1681.78,1861.2,1643.7Z" style="fill:#ffc935;stroke:#000;stroke-miterlimit:10;stroke-width:8px"/><path d="M1920.52,1637.37c5.75-37.85-21.85-71.35-62.54-74.47-40.18-3.09-62.86,27.5-68.55,66.32s10,56.63,50.16,58.74C1880.21,1690.09,1914.77,1675.14,1920.52,1637.37Z" style="fill:#ffc935;stroke:#000;stroke-miterlimit:10;stroke-width:8px"/><path d="M1978.21,1631.15c5.56-37.5-21.35-70.62-60.68-73.72-38.83-3.07-60.74,27.19-66.4,65.75s9.47,56.21,48.4,58.2C1939,1683.39,1972.67,1668.56,1978.21,1631.15Z" style="fill:#ffc935;stroke:#000;stroke-miterlimit:10;stroke-width:8px"/><path d="M2034.94,1625.18c5.34-37.16-21.3-70-59.61-73.08-37.83-3.09-59,26.76-64.53,65s9.11,55.7,47.1,57.73C1996.39,1676.84,2029.61,1662.25,2034.94,1625.18Z" style="fill:#ffc935;stroke:#000;stroke-miterlimit:10;stroke-width:8px"/><path d="M1142.43,1770.57c1-30.31-21.31-59.73-49.63-64.84-28-5-41.84,17.25-43.64,47.13s10.17,45.29,38.94,50.8C1117.19,1809.23,1141.39,1800.82,1142.43,1770.57Z" style="fill:#ffc935;stroke:#000;stroke-miterlimit:10;stroke-width:8px"/><path d="M1186.08,1771.68c.88-30.67-22.31-60.74-51.21-66.18-28.57-5.38-42.25,17.06-43.65,47.17s10.8,45.8,39.9,51.77C1160.55,1810.49,1185.2,1802.3,1186.08,1771.68Z" style="fill:#ffc935;stroke:#000;stroke-miterlimit:10;stroke-width:8px"/><path d="M1231.23,1773.13c.85-31.1-23.36-61.83-53.21-67.55-29.51-5.66-43.32,17-44.43,47.45s11.42,46.42,41.23,52.77C1205,1812.23,1230.39,1804.16,1231.23,1773.13Z" style="fill:#ffc935;stroke:#000;stroke-miterlimit:10;stroke-width:8px"/><path d="M1278.39,1774.75c.95-31.57-24.44-62.93-55.59-68.88-30.8-5.88-45,17.13-45.93,48s12,47.11,42.87,53.75C1250.93,1814.32,1277.44,1806.25,1278.39,1774.75Z" style="fill:#ffc935;stroke:#000;stroke-miterlimit:10;stroke-width:8px"/><path d="M1328,1776.36c1.21-32.07-25.46-64-58.23-70.1-32.41-6-47.2,17.39-48.1,48.71s12.62,47.85,44.76,54.68C1298.9,1816.55,1326.75,1808.36,1328,1776.36Z" style="fill:#ffc935;stroke:#000;stroke-miterlimit:10;stroke-width:8px"/><path d="M1380.23,1777.74c1.64-32.59-26.32-65-61-71.14-34.27-6.07-49.92,17.84-50.91,49.69s13.13,48.61,46.81,55.47C1349.22,1818.7,1378.6,1810.25,1380.23,1777.74Z" style="fill:#ffc935;stroke:#000;stroke-miterlimit:10;stroke-width:8px"/><path d="M1435.37,1778.62c2.25-33.1-26.91-65.84-63.66-71.9-36.31-6-53,18.49-54.25,50.9s13.52,49.36,48.88,56.1C1402.12,1820.54,1433.13,1811.65,1435.37,1778.62Z" style="fill:#ffc935;stroke:#000;stroke-miterlimit:10;stroke-width:8px"/><path d="M1493.28,1778.71c3-33.62-27.1-66.51-66-72.31-38.39-5.74-56.36,19.38-58,52.36s13.72,50.07,50.78,56.49C1457.64,1821.75,1490.28,1812.26,1493.28,1778.71Z" style="fill:#ffc935;stroke:#000;stroke-miterlimit:10;stroke-width:8px"/><path d="M1553.58,1777.74c3.89-34.12-26.77-67-67.55-72.35-40.3-5.31-59.66,20.51-61.85,54.07s13.68,50.69,52.32,56.6C1515.6,1822,1549.69,1811.79,1553.58,1777.74Z" style="fill:#ffc935;stroke:#000;stroke-miterlimit:10;stroke-width:8px"/><path d="M1615.56,1775.49c4.79-34.6-25.88-67.28-68.16-72-41.78-4.71-62.56,21.87-65.48,56s13.32,51.22,53.25,56.43C1575.58,1821.14,1610.78,1810,1615.56,1775.49Z" style="fill:#ffc935;stroke:#000;stroke-miterlimit:10;stroke-width:8px"/><path d="M1678.33,1771.9c5.6-35-24.56-67.43-67.68-71.48-42.59-4-64.66,23.34-68.43,58s12.65,51.64,53.41,56C1636.89,1818.89,1672.74,1806.87,1678.33,1771.9Z" style="fill:#ffc935;stroke:#000;stroke-miterlimit:10;stroke-width:8px"/><path d="M1741,1767.09c6.23-35.4-23-67.5-66.22-70.85-42.63-3.3-65.67,24.78-70.33,60s11.69,52,52.75,55.5C1698.73,1815.27,1734.76,1802.41,1741,1767.09Z" style="fill:#ffc935;stroke:#000;stroke-miterlimit:10;stroke-width:8px"/><path d="M1802.71,1761.3c6.61-35.67-21.6-67.49-64.13-70.24-42-2.73-65.55,26-71,61.59s10.58,52.22,51.43,55C1760.35,1810.42,1796.11,1796.88,1802.71,1761.3Z" style="fill:#ffc935;stroke:#000;stroke-miterlimit:10;stroke-width:8px"/><path d="M1863.12,1754.87c6.77-35.82-20.4-67.42-61.84-69.76-40.92-2.32-64.52,26.82-70.62,62.77s9.5,52.42,49.74,54.56C1821.14,1804.62,1856.38,1790.61,1863.12,1754.87Z" style="fill:#ffc935;stroke:#000;stroke-miterlimit:10;stroke-width:8px"/><path d="M1922.14,1748.15c6.72-35.9-19.61-67.34-59.8-69.46-39.68-2.08-63,27.27-69.45,63.45s8.57,52.54,48,54.3C1880.82,1798.22,1915.43,1784,1922.14,1748.15Z" style="fill:#ffc935;stroke:#000;stroke-miterlimit:10;stroke-width:8px"/><path d="M1980,1741.49c6.52-35.94-19.32-67.32-58.36-69.38-38.55-2-61.3,27.34-68,63.63s7.91,52.61,46.56,54.23C1939.42,1791.6,1973.53,1777.35,1980,1741.49Z" style="fill:#ffc935;stroke:#000;stroke-miterlimit:10;stroke-width:8px"/><path d="M2037.45,1735.19c6.21-36-19.65-67.42-57.89-69.58-37.76-2.12-59.93,27.11-66.54,63.42s7.58,52.66,45.7,54.38C1997.33,1785.15,2031.25,1771.08,2037.45,1735.19Z" style="fill:#ffc935;stroke:#000;stroke-miterlimit:10;stroke-width:8px"/><path d="M1337.74,1178.72c28.88,30.41,21.61,96,16,101.32s-71.47,9.17-100.35-21.24-30.49-64-4.24-88.89S1308.86,1148.31,1337.74,1178.72Z" style="fill:#ffc935;stroke:#231f20;stroke-miterlimit:10;stroke-width:9.600000381469727px"/><path d="M1347.91,1273.85c-1.21.9-8.72,2.48-20.88,2.15-7.72-.22-22.61-1.43-36.11-7.14-14-15.09-12.26-33.73,4.81-49.94s35.78-17,50.12-2.24c5,13.77,5.46,28.71,5.28,36.43C1350.84,1265.27,1348.87,1272.69,1347.91,1273.85Z" style="fill:#fff6dd"/><path d="M1374.89,1393.84c-15,39.16-77.4,60.81-84.57,58.06s-39-60.59-24-99.74,44.64-55,78.43-42.05S1389.92,1354.69,1374.89,1393.84Z" style="fill:#ffc935;stroke:#231f20;stroke-miterlimit:10;stroke-width:9.600000381469727px"/><path d="M1293.37,1443.94c-1.33-.72-6-6.81-10.91-17.93-3.13-7.07-8.44-21-9.09-35.68,7.59-19.16,25.18-25.57,47.16-17.13s30.77,25,23.58,44.29c-10.28,10.45-23.58,17.27-30.63,20.43C1302.38,1442.89,1294.84,1444.3,1293.37,1443.94Z" style="fill:#fff6dd"/><path d="M1244.54,1497.21c-40.79,9.77-94-29.38-95.74-36.85s27.85-66.46,68.64-76.24,70.63,5.65,79.06,40.85S1285.32,1487.43,1244.54,1497.21Z" style="fill:#ffc935;stroke:#231f20;stroke-miterlimit:10;stroke-width:9.600000381469727px"/><path d="M1157.09,1458.37c-.16-1.5,2.23-8.79,8.61-19.14,4-6.58,12.56-18.87,24.26-27.69,20.09-4.6,35.33,6.28,40.82,29.18s-3.17,39.5-23.16,44.5c-14.44-2.56-27.59-9.65-34.18-13.68C1163.06,1465.2,1157.63,1459.79,1157.09,1458.37Z" style="fill:#fff6dd"/><path d="M1499.15,1486.08c-28.61,30.67-94.55,27.37-100.16,22.13s-13.47-70.79,15.14-101.46,62-34.28,88.47-9.59S1527.76,1455.42,1499.15,1486.08Z" style="fill:#ffc935;stroke:#231f20;stroke-miterlimit:10;stroke-width:9.600000381469727px"/><path d="M1404.8,1502c-1-1.16-3-8.56-3.39-20.71-.26-7.73.06-22.67,4.94-36.49,14.22-14.92,32.93-14.27,50.15,1.79s19.16,34.69,5.25,49.9c-13.44,5.83-28.33,7.18-36,7.46C1413.55,1504.38,1406,1502.86,1404.8,1502Z" style="fill:#fff6dd"/><path d="M1400.75,1270.09c40.41,11.22,67.94,71.22,65.88,78.63s-56.56,44.64-97,33.42-59-39.16-49.37-74S1360.34,1258.88,1400.75,1270.09Z" style="fill:#ffc935;stroke:#231f20;stroke-miterlimit:10;stroke-width:9.600000381469727px"/><path d="M1458.42,1346.44c-.58,1.39-6.2,6.61-16.8,12.57-6.73,3.8-20.13,10.42-34.64,12.47-19.81-5.72-27.87-22.62-21.57-45.31s21.91-33,41.83-27.7c11.38,9.23,19.45,21.81,23.26,28.53C1456.51,1337.57,1458.64,1344.94,1458.42,1346.44Z" style="fill:#fff6dd"/><path d="M1575.13,1185.47c1.24,41.93-48,86-55.63,86.19s-59.37-40.84-60.6-82.77,19.95-68,56.13-69.05S1573.9,1143.55,1575.13,1185.47Z" style="fill:#ffc935;stroke:#231f20;stroke-miterlimit:10;stroke-width:9.600000381469727px"/><path d="M1519.25,1263.14c-1.5-.15-8.15-4-17-12.34-5.61-5.31-15.9-16.15-22.15-29.4-.4-20.61,13.37-33.31,36.9-34s38,11.17,38.84,31.77c-5.46,13.6-15.09,25-20.38,30.66C1527.15,1258.69,1520.74,1262.9,1519.25,1263.14Z" style="fill:#fff6dd"/><path d="M1555.44,1352.73c-37,19.79-98.32-4.63-101.94-11.41s10.12-71.34,47.1-91.12,69.76-12.43,86.83,19.49S1592.43,1333,1555.44,1352.73Z" style="fill:#ffc935;stroke:#231f20;stroke-miterlimit:10;stroke-width:9.600000381469727px"/><path d="M1461,1337.3c-.54-1.41-.08-9.06,3.47-20.7,2.26-7.39,7.38-21.42,16.47-32.92,18.27-9.54,35.77-2.88,46.87,17.89s6.94,39-11.14,48.92c-14.61,1.17-29.13-2.36-36.53-4.59C1468.52,1342.4,1461.89,1338.54,1461,1337.3Z" style="fill:#fff6dd"/><path d="M1679.57,1292.14c29.39,29.92,23.22,95.65,17.74,101s-71.31,10.38-100.7-19.55-31.55-63.44-5.73-88.8S1650.18,1262.22,1679.57,1292.14Z" style="fill:#ffc935;stroke:#231f20;stroke-miterlimit:10;stroke-width:9.600000381469727px"/><path d="M1691.33,1387.09c-1.2.92-8.67,2.62-20.84,2.49-7.72-.08-22.63-1-36.23-6.53-14.29-14.85-12.82-33.52,4-50s35.49-17.63,50.08-3.07c5.24,13.69,5.93,28.61,5.88,36.34C1694.11,1378.46,1692.27,1385.91,1691.33,1387.09Z" style="fill:#fff6dd"/><path d="M1845.62,1386.9c-38.79,15.93-97.34-14.58-100.26-21.69s17.3-70,56.1-85.88,70.66-5.28,84.4,28.2S1884.42,1371,1845.62,1386.9Z" style="fill:#ffc935;stroke:#231f20;stroke-miterlimit:10;stroke-width:9.600000381469727px"/><path d="M1753.25,1362c-.4-1.46.84-9,5.56-20.24,3-7.13,9.51-20.58,19.71-31.09,19.15-7.64,35.88.77,44.83,22.55s2.94,39.52-16,47.54c-14.65-.31-28.74-5.3-35.88-8.27C1760.19,1367.8,1754,1363.29,1753.25,1362Z" style="fill:#fff6dd"/><path d="M1752.08,1220.67c-20.95,36.34-85.93,48-92.59,44.16s-29.09-65.92-8.14-102.25,52.67-47.4,84-29.31S1773,1184.34,1752.08,1220.67Z" style="fill:#ffc935;stroke:#231f20;stroke-miterlimit:10;stroke-width:9.600000381469727px"/><path d="M1663.75,1257.45c-1.2-.91-4.85-7.66-8-19.41-2-7.47-5.06-22.09-3.41-36.66,10.47-17.75,28.85-21.33,49.25-9.57s26.5,29.47,16.38,47.43c-11.78,8.71-26,13.38-33.44,15.4C1672.81,1257.81,1665.15,1258,1663.75,1257.45Z" style="fill:#fff6dd"/></g><path id="path900-6" data-name="path900" d="M1076.12,1668.51V994c0,50.64,200,106.87,446.67,106.87s445.64-56.1,445.64-106.87v674.55c0,50.78-199,129.76-445.64,129.76s-446.67-79.11-446.67-129.76Z" style="fill:none;stroke:#000;stroke-linecap:round;stroke-linejoin:round;stroke-width:24px"/><path id="path900-7" data-name="path900" d="M1993.32,735.1c10.18-27.56-147-120.28-355.88-197.49S1248,428.32,1237.8,455.81s145.15,125.11,354,202.32S1983.13,762.66,1993.32,735.1Z" style="fill:#6d6e70;stroke:#000;stroke-linecap:round;stroke-linejoin:round;stroke-width:24px"/></g></svg>