<svg xmlns="http://www.w3.org/2000/svg" xmlns:xlink="http://www.w3.org/1999/xlink" height="1911.32" width="1927.9" xmlns:v="https://vecta.io/nano"><style><![CDATA[.B{fill:#fff}.C{stroke-width:15.531}.D{stroke-width:24}.E{stroke-linejoin:round}.F{stroke:#010101}.G{fill:#ca3d27}.H{stroke-linecap:round}]]></style><use xlink:href="#B" fill="#9ca0aa"/><use xlink:href="#B" fill="#939598"/><path d="M1031.925 1608.4V959.28c0 48.74 192.45 102.85 429.84 102.85s428.83-54 428.83-102.85v649.13c0 48.86-191.44 124.87-428.83 124.87s-429.84-76.13-429.84-124.87z" class="B"/><use xlink:href="#B" fill="none" class="D E F"/><use xlink:href="#C" fill="#939598"/><g class="E"><path d="M1050.635 819.36c53.75 39.73 217.46 75.74 411.13 75.74s356.62-35.9 410.17-75.66c-53.7-41.9-217.5-83.58-411.24-83.58-193.54 0-356.46 41.7-410.06 83.5z" stroke="#040607" class="C G"/><g class="D F"><use xlink:href="#C" fill="none"/><path d="M1915.545 722.85c9-24.4-154-115.3-368.54-194.6s-398.43-116.57-407.42-92.24 152.37 119.58 366.9 198.9 400.04 112.36 409.06 87.96z" fill="#6d6e71"/></g></g><path d="M1629.215 1429.27c18.78-38 17.34-66.3 17.34-78.37 0-143.06-75.94-219-203.4-206.8-39.13 4-46 19.77-63 29.85-11.85-8.52-52.2-26.3-77.33-29.85-134.93-11.53-210.2 65.1-210.2 206.8 0 126.8 103.74 229.85 277.3 229.85 40.68 0 75.57-1.7 109.84-15.6 69.03-28.02 115.65-67.6 149.43-135.9z" class="C F G"/><path d="M1234.905 1209.15c-7.12-8.17-48 33-76.76 87.85-16.62 26.9 45.9 72 49.06 23.74 4-54.6 41.42-96.23 27.7-111.6z" class="B"/><path d="M1377.355 1160.1s-37.2-38-43.53-60.15c-.8 7.92.8 36.4 15 57 0 0-64.9 3.17-73.6 12.66 0 0 60.94 9.5 76 1.6 0 0-7.12 53 3.17 70.43 0 0 29.28-45.9 26.12-58.56 0 0 70.43 19.78 89.42 14.24-5.54-9.5-56.2-30.86-74.4-30.07 20.4-9 34-35.6 34-35.6l-52.2 28.47z" fill="#0da54a"/><g class="B C E"><path d="M1839.815 1440.95c-1.13 112.38-89.53 189.83-190 189.83s-195-81.76-195.72-192.65c-2.22-71 89.12-100.55 189.58-100.55s194.2 43.23 196.14 103.37z" stroke="#050507"/><path d="M1840.025 1442c.6 55.53-92.83 101.32-193.3 101.32s-192.7-45.8-193.3-101.32c-.77-74 91.3-105.92 191.76-105.92s194.06 35.04 194.83 105.92z" stroke="#040607"/></g><path d="M1782.705 1474.95c29.17 28.4-35.5 68.56-136 68.56s-167.44-40.93-146.72-71.63c17.66-20.72 47.68-36.2 75.86-36.57 82.48-1.12 20.77-55.26 41.82-54.62 25.12.77 29.6 34.72 54.43 42.66 41.34 8.5 71.23 18.24 110.6 51.6z" stroke="#050605" class="C E G"/><g fill="none" class="F H C"><path d="M1559.425 1613.63c16.88 38.37 154.27 39.14 171.16.76" class="E"/><path d="M1571.175 1475.05c39.05 38.7 85.37 20.82 85.37 20.82"/></g><g stroke="#231f20"><g stroke-miterlimit="10"><path d="M480.265 505.95l494-493.95c357.55 221.16 183.88 380.54 97.05 440.45-89.3 14.58-149.74 42.5-179.73 100.58-35.38 68.5 6.4 129.1 100.45 104.38 7.77-2.05 13.28 7.54 7.56 13.2-29.7 29.34-92.8 73.2-178.9 32.47l-71.68 71.67-95.3-95.3a29.5 29.5 0 0 0 0-41.7l-36.43-36.44a29.5 29.5 0 0 0-41.7 0h0z" class="B D"/><path d="M35.717 950.54l444.516-444.516 95.304 95.304-444.516 444.516a67.39 67.39 0 0 1-95.283-.021h0a67.39 67.39 0 0 1 0-95.304zm173.44 173.442l444.544-444.544 95.3 95.3-444.544 444.544a67.39 67.39 0 0 1-95.304 0h0a67.39 67.39 0 0 1 0-95.304z" fill="#231f20" stroke-width="31.043"/><g class="B"><g class="D H"><path d="M636.085 620.12l243.37-243.37"/><path d="M713.845 542.37L578.865 407.4"/></g><rect transform="rotate(357.709)" rx="24.96" height="120.176" width="666.663" y="288.454" x="590.024" stroke-width="24.019"/></g></g><g class="D B"><circle r="58.18" cy="314.7" cx="933.565"/><circle r="41.14" cy="157.59" cx="963.645"/></g></g><defs ><path id="B" d="M1031.925 1774.45v-982.2c307.28 119.32 565.74 114 858.67 0v982.2c0 48.86-191.44 124.87-428.83 124.87s-429.84-76.13-429.84-124.87z"/><path id="C" d="M1890.595 792.26c0 48.85-191.44 102.84-428.83 102.84s-429.84-54.15-429.84-102.84 191.38-111.45 428.77-111.45 429.9 62.6 429.9 111.45z"/></defs></svg>