<svg xmlns="http://www.w3.org/2000/svg" xmlns:xlink="http://www.w3.org/1999/xlink" height="1919.59" width="1953.106" xmlns:v="https://vecta.io/nano"><style><![CDATA[.I{stroke-width:24}.J{stroke:#231f20}.K{stroke-miterlimit:10}.L{stroke-linejoin:round}]]></style><g class="J"><g class="K"><path d="M480.26 505.95L974.26 12c357.55 221.16 183.88 380.54 97.05 440.45-89.3 14.58-149.74 42.5-179.73 100.58-35.38 68.5 6.4 129.1 100.45 104.38 7.77-2.05 13.28 7.54 7.56 13.2-29.7 29.35-92.78 73.2-178.9 32.47l-71.68 71.67-95.3-95.3a29.5 29.5 0 0 0 0-41.7l-36.43-36.44a29.5 29.5 0 0 0-41.7 0h0z" fill="#fff" class="I"/><path d="M35.717 950.538l444.516-444.516 95.304 95.304-444.516 444.516a67.39 67.39 0 0 1-95.283-.021h0a67.39 67.39 0 0 1 0-95.304zm173.44 173.44l444.544-444.544 95.3 95.3L304.47 1219.3a67.39 67.39 0 0 1-95.304 0h0a67.39 67.39 0 0 1-.007-95.311z" fill="#231f20" stroke-width="31.04"/><g fill="#fff" class="I"><g stroke-linecap="round"><path d="M636.08 620.12l243.37-243.37"/><path d="M713.84 542.37L578.86 407.4"/></g><rect transform="rotate(357.709)" rx="24.96" height="120.176" width="666.663" y="288.484" x="590.01"/></g></g><circle r="58.18" cy="314.7" cx="933.561" fill="#fff" class="I"/><circle r="41.14" cy="157.59" cx="963.641" fill="#fff" class="I"/></g><g class="L I"><path d="M1049.58 1782.45V798.12c307.94 119.6 567 114.23 860.53 0v984.33c0 49-191.86 125.14-429.77 125.14s-430.76-76.3-430.76-125.14z" fill="#a7a9ac" stroke="#010101"/><path d="M1049.58 1616.05V965.5c0 48.84 192.86 103.07 430.76 103.07s429.77-54.1 429.77-103.07v650.54c0 49-191.86 125.14-429.77 125.14s-430.76-76.3-430.76-125.14z" fill="#fff" class="J"/></g><use xlink:href="#B" fill="#939598"/><g fill="#9a1c22" stroke-width="8.58" class="J K"><path d="M1460.4 1250.28c33.85-15 60.5-7.85 54.58-42.33-4.9-28.52-47.44-32.9-81.3-17.9s-59.15 49.5-41.3 72.27c21.6 27.53 34.16 2.97 68-12.05zm-93.55 125.4c32.68 17.42 43.44 42.83 67 16.93 19.45-21.42-3.3-57.64-36-75.07s-75.43-16.1-82.37 12c-8.4 33.95 18.7 28.72 51.37 46.14zm230.84 202.46c32.67 17.42 43.44 42.83 67 16.93 19.45-21.42-3.3-57.65-36-75.07s-75.43-16.1-82.37 12c-8.4 33.95 18.7 28.72 51.37 46.14zm-88.35-77.5c35.78-9.53 61 1.73 60.53-33.26-.37-28.93-41.7-39.93-77.5-30.4s-66.17 39.63-52.1 64.9c17 30.57 33.27 8.28 69.06-1.25zM1246 1526.03c33.1-16.64 60-10.78 52.46-44.94-6.27-28.24-49-30.56-82.06-13.92s-56.68 52.32-37.74 74.2c22.9 26.45 34.26 1.3 67.34-15.34zm472.63 18.1c34 14.7 46.77 39.16 68.1 11.43 17.65-22.93-8-57.18-41.94-71.9s-76.5-9.94-81.13 18.62c-5.6 34.54 20.97 27.13 54.96 41.84zm-252.48-192.82c15.48 33.65 8.67 60.38 43.07 54 28.45-5.28 32.26-47.88 16.8-81.53s-50.3-58.47-72.82-40.3c-27.24 21.96-2.5 34.2 12.96 67.84zm.07 252.65c35.77 9.6 52 31.9 69 1.36 14.1-25.26-16.23-55.4-52-65s-77.12 1.36-77.54 30.3c-.45 34.94 24.76 23.73 60.54 33.35zm121.58-175.2c14.73 34 7.34 60.56 41.88 54.93 28.55-4.66 33.3-47.17 18.56-81.14s-49-59.57-71.92-41.9c-27.72 21.36-3.26 34.13 11.48 68.1zm-13.72-122.1c31.9 18.8 41.6 44.63 66.2 19.74 20.33-20.58-.86-57.73-32.77-76.5s-74.68-19.3-82.8 8.48c-9.82 33.58 17.47 29.5 49.4 48.3zm-270.7 222.02c-30.46 21.06-58 19-45.73 51.77 10.13 27.1 52.75 23.48 83.2 2.4s48.88-59.67 27.1-78.7c-26.35-23.02-34.15 3.46-64.57 24.53zm70.42-116.3c-33.13-16.56-44.56-41.68-67.4-15.17-18.88 21.93 4.8 57.54 37.93 74.1s75.83 14.12 82-14.14c7.57-34.17-19.38-28.22-52.54-44.8zm-305.5-591.2c53.87 39.8 217.93 75.9 412 75.9s357.4-36 411.06-75.83c-53.82-42-218-83.76-412.13-83.76-193.94 0-357.22 41.78-410.93 83.68z"/><path d="M1460.4 789.8c33.85-15 60.5-7.85 54.58-42.34-4.9-28.5-47.44-32.9-81.3-17.9s-59.15 49.5-41.3 72.27c21.6 27.54 34.16 2.97 68-12.04zm-164.78 19.7c33.85-15 60.5-7.85 54.57-42.33-4.9-28.52-47.44-32.9-81.3-17.9s-59.15 49.5-41.3 72.27c21.6 27.53 34.2 2.97 68.02-12.05zm388.18 3.74c33.85-15 60.5-7.85 54.58-42.33-4.9-28.52-47.44-32.9-81.3-17.9s-59.15 49.5-41.3 72.26c21.58 27.54 34.15 2.98 68-12.04z"/><path d="M1574.86 805.52c32.68 17.42 43.44 42.83 67 16.92 19.45-21.4-3.3-57.64-36-75.06s-75.43-16.12-82.37 12c-8.4 33.94 18.7 28.7 51.37 46.14z"/><path d="M1600.4 872.3c32.68 17.42 43.44 42.83 67 16.93 19.45-21.42-3.3-57.65-36-75.07s-75.43-16.1-82.37 12c-8.4 33.94 18.7 28.72 51.37 46.14z"/><path d="M1509.35 834.7c35.78-9.53 61 1.72 60.53-33.26-.37-28.93-41.7-39.93-77.5-30.4s-66.17 39.63-52.1 64.9c17 30.57 33.27 8.28 69.06-1.25zm-341.37-10.75c33.08-16.64 60-10.78 52.45-44.93-6.27-28.25-49-30.57-82.06-13.92s-56.68 52.3-37.74 74.2c22.9 26.44 34.26 1.3 67.35-15.34zm611.1 7.9c34 14.7 46.78 39.16 68.12 11.43 17.65-22.93-8-57.18-42-71.9s-76.5-9.94-81.12 18.62c-5.56 34.54 21.02 27.13 55 41.84zm-422.95-24.23c15.47 33.65 8.66 60.4 43.06 54 28.45-5.28 32.27-47.88 16.8-81.53s-50.3-58.47-72.82-40.3c-27.24 21.96-2.5 34.16 12.97 67.84z"/><path d="M1473.8 887.65c35.77 9.6 52 31.9 69.06 1.36 14.1-25.26-16.23-55.4-52-65s-77.13 1.35-77.54 30.28c-.52 35 24.7 23.78 60.48 33.36zm233.77-66.25c-35.4 10.9-61 .6-59.22 35.55 1.48 28.9 43.2 38.3 78.6 27.4s64.6-42.13 49.58-66.85c-18.17-29.9-33.57-7-68.96 3.9zm-412.72-.57c-30.45 21.06-58 19-45.72 51.77 10.13 27.1 52.75 23.48 83.2 2.4s48.88-59.67 27.1-78.7c-26.35-23.02-34.12 3.46-64.58 24.53z"/><path d="M1250.94 801.74c-33.12-16.56-44.55-41.68-67.38-15.16-18.9 21.92 4.8 57.53 37.93 74.1s75.82 14.12 82-14.14c7.52-34.17-19.42-28.24-52.55-44.8z"/></g><g stroke="#010101" class="I L"><use xlink:href="#B" fill="none"/><path d="M1940.75 732.8c9-24.45-154.35-115.56-369.34-195s-399.3-116.84-408.3-92.47 152.7 119.84 367.7 199.32 400.9 112.6 409.94 88.15z" fill="#6d6e71"/></g><defs ><path id="B" d="M1910.11 798.12c0 49-191.86 103.07-429.77 103.07s-430.76-54.24-430.76-103.07 191.8-111.68 429.7-111.68 430.83 62.72 430.83 111.68z"/></defs></svg>