<svg id="Layer_1" data-name="Layer 1" xmlns="http://www.w3.org/2000/svg" viewBox="0 0 2000 2000"><path d="M507.45,551l494-493.95C1359,278.21,1185.33,437.59,1098.5,497.5,1009.2,512.08,948.76,540,918.77,598.08c-35.38,68.5,6.39,129.1,100.45,104.38,7.77-2.05,13.28,7.54,7.56,13.19C997.09,745,934,788.84,847.88,748.12L776.2,819.79l-95.31-95.3h0a29.5,29.5,0,0,0,0-41.7l-17.62-17.62-18.81-18.82a29.5,29.5,0,0,0-41.7,0h0Z" style="fill:#fff;stroke:#231f20;stroke-linecap:round;stroke-miterlimit:10;stroke-width:24px"/><path d="M28.36,777.41H657a0,0,0,0,1,0,0V912.19a0,0,0,0,1,0,0H28.36A67.39,67.39,0,0,1-39,844.8v0a67.39,67.39,0,0,1,67.39-67.39Z" transform="translate(-506.86 465.93) rotate(-45)" style="fill:#231f20;stroke:#231f20;stroke-linecap:round;stroke-miterlimit:10;stroke-width:31.0431965736899px"/><path d="M201.8,950.85H830.48a0,0,0,0,1,0,0v134.79a0,0,0,0,1,0,0H201.8a67.39,67.39,0,0,1-67.39-67.39v0A67.39,67.39,0,0,1,201.8,950.85Z" transform="translate(-578.7 639.37) rotate(-45)" style="fill:#231f20;stroke:#231f20;stroke-linecap:round;stroke-miterlimit:10;stroke-width:31.0431965736899px"/><line x1="663.27" y1="665.17" x2="906.64" y2="421.8" style="fill:#fff;stroke:#231f20;stroke-linecap:round;stroke-miterlimit:10;stroke-width:24px"/><line x1="741.03" y1="587.42" x2="606.05" y2="452.44" style="fill:#fff;stroke:#231f20;stroke-linecap:round;stroke-miterlimit:10;stroke-width:24px"/><rect x="628.71" y="299.68" width="666.13" height="120.08" rx="24.94" transform="matrix(1, -0.04, 0.04, 1, -12.44, 35.19)" style="fill:#fff;stroke:#231f20;stroke-linecap:round;stroke-miterlimit:10;stroke-width:24px"/><circle cx="960.75" cy="359.75" r="58.18" style="fill:#fff;stroke:#231f20;stroke-linecap:round;stroke-miterlimit:10;stroke-width:24px"/><circle cx="990.83" cy="202.64" r="41.14" style="fill:#fff;stroke:#231f20;stroke-linecap:round;stroke-miterlimit:10;stroke-width:24px"/><path id="path900" d="M1076.77,1827.5V843.17c307.94,119.59,567,114.23,860.53,0V1827.5h0c0,49-191.86,125.14-429.77,125.14s-430.76-76.3-430.76-125.14Z" style="fill:#a6a8ab;stroke:#000;stroke-linecap:round;stroke-linejoin:round;stroke-width:24px"/><path id="path900-2" data-name="path900" d="M1076.77,1661.1V1010.56c0,48.84,192.86,103.07,430.76,103.07s429.77-54.11,429.77-103.07V1661.1c0,49-191.86,125.14-429.77,125.14s-430.76-76.3-430.76-125.14Z" style="fill:#fff;stroke:#231f20;stroke-linecap:round;stroke-linejoin:round;stroke-width:24px"/><path id="path900-3" data-name="path900" d="M1937.3,843.17c0,49-191.86,103.07-429.77,103.07S1076.77,892,1076.77,843.17s191.79-111.68,429.7-111.68S1937.3,794.21,1937.3,843.17Z" style="fill:#929497"/><path d="M1487.6,1295.33c33.85-15,60.5-7.85,54.58-42.33-4.9-28.52-47.44-32.91-81.3-17.89s-59.15,49.5-41.29,72.27C1441.18,1334.91,1453.75,1310.35,1487.6,1295.33Z" style="fill:#302226;stroke:#231f20;stroke-miterlimit:10;stroke-width:8.58447153875328px"/><path d="M1394.05,1420.73c32.68,17.42,43.44,42.83,67,16.93,19.45-21.42-3.29-57.64-36-75.07s-75.43-16.11-82.37,12C1334.28,1408.54,1361.37,1403.31,1394.05,1420.73Z" style="fill:#302226;stroke:#231f20;stroke-miterlimit:10;stroke-width:8.58447153875328px"/><path d="M1624.89,1623.19c32.67,17.42,43.44,42.83,67,16.93,19.45-21.42-3.29-57.65-36-75.07s-75.43-16.11-82.37,12C1565.11,1611,1592.21,1605.77,1624.89,1623.19Z" style="fill:#302226;stroke:#231f20;stroke-miterlimit:10;stroke-width:8.58447153875328px"/><path d="M1536.54,1545.7c35.78-9.53,61,1.73,60.53-33.26-.37-28.93-41.7-39.93-77.49-30.4s-66.17,39.63-52.1,64.91C1484.49,1577.52,1500.75,1555.23,1536.54,1545.7Z" style="fill:#302226;stroke:#231f20;stroke-miterlimit:10;stroke-width:8.58447153875328px"/><path d="M1273.2,1571.08c33.09-16.64,60-10.78,52.46-44.94-6.27-28.24-49-30.56-82.06-13.92s-56.68,52.32-37.74,74.2C1228.76,1612.87,1240.12,1587.72,1273.2,1571.08Z" style="fill:#302226;stroke:#231f20;stroke-miterlimit:10;stroke-width:8.58447153875328px"/><path d="M1745.83,1589.17c34,14.71,46.77,39.16,68.11,11.43,17.65-22.93-8-57.18-41.94-71.89s-76.49-9.94-81.13,18.62C1685.26,1581.87,1711.84,1574.46,1745.83,1589.17Z" style="fill:#302226;stroke:#231f20;stroke-miterlimit:10;stroke-width:8.58447153875328px"/><path d="M1493.35,1396.35c15.48,33.65,8.67,60.38,43.07,54,28.45-5.28,32.26-47.88,16.79-81.53s-50.3-58.47-72.82-40.31C1453.15,1350.47,1477.88,1362.7,1493.35,1396.35Z" style="fill:#302226;stroke:#231f20;stroke-miterlimit:10;stroke-width:8.58447153875328px"/><path d="M1493.42,1649c35.77,9.59,52,31.9,69,1.36,14.11-25.26-16.23-55.41-52-65s-77.12,1.36-77.54,30.29C1432.43,1650.59,1457.64,1639.38,1493.42,1649Z" style="fill:#302226;stroke:#231f20;stroke-miterlimit:10;stroke-width:8.58447153875328px"/><path d="M1615,1473.8c14.73,34,7.34,60.56,41.88,54.93,28.55-4.66,33.3-47.17,18.56-81.14s-49-59.57-71.92-41.9C1575.8,1427.05,1600.26,1439.82,1615,1473.8Z" style="fill:#302226;stroke:#231f20;stroke-miterlimit:10;stroke-width:8.58447153875328px"/><path d="M1601.28,1351.71c31.91,18.79,41.59,44.63,66.19,19.74,20.33-20.58-.86-57.73-32.77-76.51s-74.68-19.29-82.81,8.48C1542.07,1337,1569.36,1332.92,1601.28,1351.71Z" style="fill:#302226;stroke:#231f20;stroke-miterlimit:10;stroke-width:8.58447153875328px"/><path d="M1330.58,1573.73c-30.46,21.06-58,19-45.73,51.77,10.13,27.1,52.75,23.48,83.21,2.41s48.88-59.67,27.09-78.71C1368.8,1526.18,1361,1552.66,1330.58,1573.73Z" style="fill:#302226;stroke:#231f20;stroke-miterlimit:10;stroke-width:8.58447153875328px"/><path d="M1401,1457.43c-33.13-16.56-44.56-41.68-67.39-15.17-18.88,21.93,4.81,57.54,37.93,74.1s75.83,14.12,82-14.14C1461.11,1468.05,1434.16,1474,1401,1457.43Z" style="fill:#302226;stroke:#231f20;stroke-miterlimit:10;stroke-width:8.58447153875328px"/><path d="M1095.49,866.22c53.87,39.81,217.93,75.91,412,75.91s357.39-36,411.06-75.83c-53.82-42-218-83.76-412.13-83.76C1312.48,782.54,1149.2,824.32,1095.49,866.22Z" style="fill:#302226;stroke:#231f20;stroke-miterlimit:10;stroke-width:8.58447153875328px"/><path d="M1487.6,834.84c33.85-15,60.5-7.85,54.58-42.34-4.9-28.51-47.44-32.9-81.3-17.89s-59.15,49.5-41.29,72.27C1441.18,874.42,1453.75,849.85,1487.6,834.84Z" style="fill:#302226;stroke:#231f20;stroke-miterlimit:10;stroke-width:8.58447153875328px"/><path d="M1322.82,854.54c33.85-15,60.49-7.85,54.57-42.33-4.89-28.52-47.44-32.91-81.29-17.89s-59.15,49.5-41.3,72.27C1276.4,894.12,1289,869.56,1322.82,854.54Z" style="fill:#302226;stroke:#231f20;stroke-miterlimit:10;stroke-width:8.58447153875328px"/><path d="M1711,858.29c33.85-15,60.5-7.85,54.58-42.33-4.9-28.52-47.44-32.91-81.29-17.89s-59.15,49.5-41.3,72.26C1664.57,897.87,1677.14,873.31,1711,858.29Z" style="fill:#302226;stroke:#231f20;stroke-miterlimit:10;stroke-width:8.58447153875328px"/><path d="M1602.05,850.57c32.68,17.42,43.44,42.83,67,16.92,19.45-21.41-3.29-57.64-36-75.06s-75.43-16.12-82.37,12C1542.28,838.37,1569.37,833.14,1602.05,850.57Z" style="fill:#302226;stroke:#231f20;stroke-miterlimit:10;stroke-width:8.58447153875328px"/><path d="M1627.59,917.36c32.68,17.42,43.44,42.83,67,16.93,19.45-21.42-3.29-57.65-36-75.07s-75.43-16.11-82.37,12C1567.82,905.16,1594.91,899.94,1627.59,917.36Z" style="fill:#302226;stroke:#231f20;stroke-miterlimit:10;stroke-width:8.58447153875328px"/><path d="M1536.54,879.76c35.78-9.53,61,1.72,60.53-33.26-.37-28.93-41.7-39.93-77.49-30.4s-66.17,39.63-52.1,64.91C1484.49,911.58,1500.75,889.29,1536.54,879.76Z" style="fill:#302226;stroke:#231f20;stroke-miterlimit:10;stroke-width:8.58447153875328px"/><path d="M1195.17,869c33.08-16.64,60-10.78,52.45-44.93-6.27-28.25-49-30.57-82.06-13.92s-56.68,52.31-37.74,74.19C1150.72,910.78,1162.08,885.63,1195.17,869Z" style="fill:#302226;stroke:#231f20;stroke-miterlimit:10;stroke-width:8.58447153875328px"/><path d="M1806.28,876.91c34,14.71,46.78,39.16,68.12,11.43,17.65-22.93-8-57.18-42-71.89s-76.49-9.94-81.12,18.62C1745.72,869.61,1772.3,862.2,1806.28,876.91Z" style="fill:#302226;stroke:#231f20;stroke-miterlimit:10;stroke-width:8.58447153875328px"/><path d="M1383.33,852.68c15.47,33.65,8.66,60.39,43.06,54,28.45-5.28,32.27-47.88,16.79-81.53s-50.3-58.47-72.82-40.31C1343.12,806.8,1367.85,819,1383.33,852.68Z" style="fill:#302226;stroke:#231f20;stroke-miterlimit:10;stroke-width:8.58447153875328px"/><path d="M1501,932.7c35.77,9.59,52,31.91,69.06,1.36,14.11-25.26-16.23-55.41-52-65s-77.13,1.35-77.54,30.28C1440,934.33,1465.21,923.12,1501,932.7Z" style="fill:#302226;stroke:#231f20;stroke-miterlimit:10;stroke-width:8.58447153875328px"/><path d="M1734.77,866.46c-35.4,10.89-61,.61-59.22,35.55,1.48,28.9,43.2,38.31,78.6,27.41s64.6-42.13,49.58-66.85C1785.56,832.66,1770.16,855.56,1734.77,866.46Z" style="fill:#302226;stroke:#231f20;stroke-miterlimit:10;stroke-width:8.58447153875328px"/><path d="M1322.05,865.88c-30.45,21.06-58,19-45.72,51.77,10.13,27.1,52.75,23.48,83.2,2.41s48.88-59.67,27.1-78.71C1360.28,818.33,1352.51,844.81,1322.05,865.88Z" style="fill:#302226;stroke:#231f20;stroke-miterlimit:10;stroke-width:8.58447153875328px"/><path d="M1278.13,846.79c-33.12-16.56-44.55-41.68-67.38-15.16-18.89,21.92,4.8,57.53,37.93,74.09s75.82,14.12,82-14.14C1338.2,857.41,1311.26,863.34,1278.13,846.79Z" style="fill:#302226;stroke:#231f20;stroke-miterlimit:10;stroke-width:8.58447153875328px"/><path id="path900-4" data-name="path900" d="M1937.3,843.17c0,49-191.86,103.07-429.77,103.07S1076.77,892,1076.77,843.17s191.79-111.68,429.7-111.68S1937.3,794.21,1937.3,843.17Z" style="fill:none;stroke:#000;stroke-linecap:round;stroke-linejoin:round;stroke-width:24px"/><path id="path900-5" data-name="path900" d="M1967.94,777.84c9-24.45-154.35-115.56-369.34-195S1199.31,466,1190.29,490.37,1343,610.21,1558,689.69,1958.9,802.29,1967.94,777.84Z" style="fill:#6d6e70;stroke:#000;stroke-linecap:round;stroke-linejoin:round;stroke-width:24px"/></svg>