<svg xmlns="http://www.w3.org/2000/svg" xmlns:xlink="http://www.w3.org/1999/xlink" height="1909.11" width="1928.171" xmlns:v="https://vecta.io/nano"><style><![CDATA[.B{fill:#fff}.C{stroke-width:24}.D{stroke:#010101}.E{stroke-linejoin:round}.F{fill:#ca3d27}.G{stroke-width:15.495}]]></style><use xlink:href="#B" fill="#9ca0aa"/><use xlink:href="#B" fill="#939598"/><path d="M1034.285 1606.88v-647.6c0 48.62 192 102.6 428.83 102.6s427.83-53.86 427.83-102.6v647.6c0 48.75-191 124.58-427.83 124.58s-428.83-76-428.83-124.58z" class="B"/><use xlink:href="#B" fill="none" class="C D E"/><use xlink:href="#C" fill="#939598"/><g class="E"><path d="M1052.955 819.68c53.62 39.63 216.95 75.56 410.16 75.56s355.78-35.83 409.2-75.48c-53.58-41.8-217-83.38-410.27-83.38-193.1 0-355.63 41.57-409.1 83.3z" stroke="#040607" class="F G"/><use xlink:href="#C" fill="none" class="C D"/></g><path d="M1655.165 1454.05c19.06-38.55 17.6-67.3 17.6-79.55 0-145.22-77.1-222.3-206.48-209.92-39.72 4.1-46.66 20.06-64 30.3-12-8.65-53-26.7-78.5-30.3-137-11.7-213.37 66.07-213.37 209.92 0 128.7 105.3 233.32 281.5 233.32 41.3 0 76.7-1.72 111.5-15.83 70.16-28.44 117.45-68.6 151.74-137.94z" class="D F G"/><path d="M1254.895 1230.6c-7.23-8.3-48.75 33.47-77.93 89.18-16.87 27.3 46.6 73.1 49.8 24.1 4-55.43 42-97.7 28.12-113.28z" class="B"/><path d="M1399.495 1180.8s-37.76-38.56-44.2-61.06c-.8 8 .8 37 15.27 57.84 0 0-65.88 3.22-74.7 12.86 0 0 61.85 9.64 77.12 1.6 0 0-7.23 53.83 3.2 71.5 0 0 29.72-46.6 26.5-59.45 0 0 71.5 20.1 90.78 14.46-5.62-9.64-57-31.33-75.52-30.52 20.7-9.12 34.55-36.15 34.55-36.15l-53.02 28.92z" fill="#0da54a"/><g class="E"><g stroke="#050507" stroke-width="7.747" class="F"><path d="M1642.815 1419.26h84.14v84.15h-84.14z"/><path d="M1726.965 1419.26l45.18-25.74v84.14l-45.18 25.75z"/><path d="M1687.995 1393.52h84.15l-45.18 25.74h-84.15zm0 96.48h84.15v84.15h-84.15z"/><path d="M1772.145 1490l45.17-25.74v84.14l-45.17 25.75z"/><path d="M1733.175 1464.26h84.14l-45.17 25.74h-84.15zm-207.36 64.9h84.15v84.14h-84.15zm84.17 0l45.18-25.75v84.15l-45.18 25.74z"/><path d="M1571.015 1503.4h84.15l-45.18 25.75h-84.17z"/></g><path d="M1915.815 723.4c9-24.34-153.66-115-367.68-194.16s-397.5-116.3-406.47-92 152 119.3 366 198.42 399.15 112.08 408.15 87.74z" fill="#6d6e71" class="C D"/></g><g stroke="#231f20"><g stroke-miterlimit="10"><path d="M480.265 505.95l494-493.95c357.55 221.16 183.88 380.54 97.05 440.45-89.3 14.58-149.74 42.5-179.73 100.58-35.38 68.5 6.4 129.1 100.45 104.38 7.77-2.05 13.28 7.54 7.56 13.2-29.7 29.34-92.8 73.2-178.9 32.47l-71.68 71.67-95.3-95.3a29.5 29.5 0 0 0 0-41.7l-36.43-36.44a29.5 29.5 0 0 0-41.7 0h0z" class="B C"/><path d="M35.717 950.54l444.516-444.516 95.304 95.304-444.516 444.516a67.39 67.39 0 0 1-95.283-.021h0a67.39 67.39 0 0 1 0-95.304zm173.44 173.442l444.544-444.544 95.3 95.3-444.544 444.544a67.39 67.39 0 0 1-95.304 0h0a67.39 67.39 0 0 1 0-95.304z" fill="#231f20" stroke-width="31.043"/><g class="B"><g stroke-linecap="round" class="C"><path d="M636.085 620.12l243.37-243.37"/><path d="M713.845 542.37L578.865 407.4"/></g><rect transform="rotate(357.709)" rx="24.96" height="120.176" width="666.663" y="288.454" x="590.024" stroke-width="24.019"/></g></g><g class="C B"><circle r="58.18" cy="314.7" cx="933.565"/><circle r="41.14" cy="157.59" cx="963.645"/></g></g><defs ><path id="B" d="M1034.285 1772.53v-979.9c306.56 119 564.4 113.7 856.66 0v979.9c0 48.75-191 124.58-427.83 124.58s-428.83-76-428.83-124.58z"/><path id="C" d="M1890.945 792.64c0 48.74-191 102.6-427.83 102.6s-428.83-54-428.83-102.6 190.93-111.2 427.77-111.2 428.9 62.44 428.9 111.2z"/></defs></svg>