<svg xmlns="http://www.w3.org/2000/svg" height="1923.363" width="1923.994"  xmlns:v="https://vecta.io/nano"><g fill-rule="evenodd" stroke="#231f20" stroke-linecap="round" stroke-linejoin="round"><path d="M885.67 373.1l-453.52 683.82m-136.67-93.1l938.76 664.87c395.4 182 589.4-133.1 589.4-133.1s262.33-359.36-117-643.44l-209.15-150.18c-30.75-28.28-6.37-46.28 9.22-49.28l111.5-18.2c106.15-29.8 95.8-159.3 95.8-159.3s-14.58-122.84-137.16-133.73L953.5 399.14c-69.1-15.9-197.17-117.9-197.17-117.9z" fill="#231f20" stroke-width="31.667"/><path d="M824.53 423.8L82.17 783.52M12 633.78l469 1050.4c247.5 358 575 185.77 575 185.77s408.82-175.57 227.16-613.27l-103.45-235.8c-12.06-40 18.07-43 33.06-37.75l105.23 41.15c106.47 28.5 163.6-88.22 163.6-88.22s50-113.13-49.9-185l-565.78-267.9c-51.34-48.9-109.58-201.92-109.58-201.92z" fill="#fff" stroke-width="24"/></g><path d="M756.34 281.23s-98.16-133.14-82.83-203c19.06-86.86 137.2-89.06 159.92-2 18.43 70.67-77.1 205-77.1 205z" fill="#fff" stroke="#231f20" stroke-width="24"/></svg>