<svg xmlns="http://www.w3.org/2000/svg" height="1671.46" width="1924"  xmlns:v="https://vecta.io/nano"><style><![CDATA[.B{stroke-linejoin:round}.C{stroke-miterlimit:15.1181}.D{stroke-linecap:round}]]></style><g stroke="#231f20"><g stroke-width="24"><path d="M728.82 301.8V74.06c0-26.94 20.93-48.8 46.75-48.8h1040.2c25.82 0 46.75 21.85 46.75 48.8V301.8" fill="#fff" class="C"/><g fill="none"><circle r="43.22" cy="142.03" cx="877.11"/><circle r="43.22" cy="142.03" cx="1020.6"/><circle r="43.22" cy="142.03" cx="1699.49"/><circle r="43.22" cy="142.03" cx="1558.08"/><circle r="43.22" cy="142.03" cx="1287.37"/></g><g class="C"><rect rx="48.79" height="1357.66" width="1249.27" y="301.8" x="662.73" fill="#fff"/><g fill="none"><path d="M667.38 1405.15h1239.98"/><rect rx="16.26" height="75.82" width="1093.23" y="490.13" x="740.75"/><path d="M667.38 403.38h1239.98"/></g></g></g><path d="M835.92 274.7h361.48m179.94 0h361.47" fill="none" stroke-width="32.528" class="D C"/><g stroke-width="24"><rect rx="97.58" height="665.72" width="906.97" y="652.69" x="833.89" fill="#fff" class="C"/><g fill="none"><g class="D"><path d="M836.54 1116.34h906.17m-819.73 0v192m122.22-192v192m122.2-192v192" class="C"/><path d="M1289.62 1116.34v192m122.22-192v192m122.2-192v192m122.22-192v192" class="C"/><path d="M1045 932.3H692c-83.327.022-161.05-41.97-206.7-111.68h0m468.64 20.62l107.32 91.06-107.32 91" class="B"/></g><path d="M28.9 31.2c19.42-19.58 42.64-18.9 42.64-18.9l207.94-.3v104.6H12l.45-47.2A58.48 58.48 0 0 1 28.9 31.2zm250.58 503.76h267.48v104.6H279.48z" class="B"/><path d="M12 534.96h267.48v104.6H12z" class="B"/><path d="M279.48 430.37h267.48v104.6H279.48z" class="B"/><path d="M12 430.37h267.48v104.6H12z" class="B"/><path d="M279.48 325.77h267.48v104.6H279.48z" class="B"/><path d="M12 325.77h267.48v104.6H12z" class="B"/><path d="M279.48 221.18h267.48v104.6H279.48z" class="B"/><path d="M12 221.18h267.48v104.6H12z" class="B"/><path d="M279.48 116.6h267.48v104.6H279.48z" class="B"/><path d="M12 116.6h267.48v104.6H12z" class="B"/><path d="M530.06 31.2c-19.4-19.57-42.63-18.88-42.63-18.88L279.48 12v104.6h267.48l-.44-47.2a58.52 58.52 0 0 0-16.46-38.2zm0 693.75c-19.4 19.57-42.63 18.88-42.63 18.88l-207.95.3v-104.6h267.48l-.44 47.2a58.52 58.52 0 0 1-16.46 38.2z" class="B"/><path d="M28.9 724.95c19.42 19.57 42.64 18.88 42.64 18.88l207.94.3v-104.6H12l.45 47.2a58.48 58.48 0 0 0 16.45 38.2z" class="B"/></g></g></g></svg>