<svg xmlns="http://www.w3.org/2000/svg" viewBox="0 0 1839 1287"><g id="Layer_2" data-name="Layer 2"><path d="M62.32,948.66l48.24,273.12a68.29,68.29,0,0,0,64.34,45.32H1664.1a68.29,68.29,0,0,0,64.34-45.32l48.24-273.12" style="fill:#fff;stroke:#231f20;stroke-linecap:round;stroke-linejoin:round;stroke-width:24px"/><path d="M1803.55,941.63l-294.27-192a35.48,35.48,0,0,0-19.43-5.78H349.15a35.48,35.48,0,0,0-19.43,5.78l-294.27,192A35.54,35.54,0,0,0,19.33,971.4v8.11a35.56,35.56,0,0,0,35.55,35.56H1784.12a35.56,35.56,0,0,0,35.55-35.56V971.4A35.54,35.54,0,0,0,1803.55,941.63Z" style="fill:#fff;stroke:#231f20;stroke-linecap:round;stroke-linejoin:round;stroke-width:24px"/><line x1="111.3" y1="952.15" x2="1727.7" y2="952.15" style="fill:#fff;stroke:#231f20;stroke-linecap:round;stroke-linejoin:round;stroke-width:15.0435986831265px"/><path d="M1741,560.23s-44,77.15-296.64,77.15H369.64c-223,0-286.53-82.09-286.53-82.09L266.68,288.16s50.74,48.17,210.68,48.17h857.16c207.64,0,231-48.35,231-48.35Z" style="fill:#fff7de;stroke:#231f20;stroke-linecap:round;stroke-linejoin:round;stroke-width:24px"/><g id="layer5"><line x1="912.07" y1="404.67" x2="912.07" y2="19.9" style="fill:none;stroke:#231f20;stroke-linecap:round;stroke-miterlimit:10;stroke-width:24px"/><polyline points="1040.7 277.87 912.07 427.65 783.44 277.87" style="fill:none;stroke:#231f20;stroke-linecap:round;stroke-miterlimit:10;stroke-width:24px"/></g></g></svg>