<svg xmlns="http://www.w3.org/2000/svg" height="1303.507" width="1924.003"  xmlns:v="https://vecta.io/nano"><style><![CDATA[.B{opacity:1}.C{stroke-linejoin:round}.D{stroke-linecap:round}]]></style><g stroke="#231f20" class="C"><g stroke-width="24"><path d="M228.13 319.67s-103.67-35.5-216.13-2.9c11.25-35.87 26.13-82 100-117.2 0 0-55.14-118.36-25.06-187.56C153.2 119.77 230 156.62 230 156.62c22.8-36 75.3-109.28 146.23-97.86-71.94 90.2-63.64 206.77-63.64 206.77z" fill="#296331"/><path d="M947.38 1289.27c-75 49.66-1017.7-742.15-826.53-926.73 50-48.25 136.08-78.1 136.08-78.1s64.73-70.75 124.88-98.4c242.65-111.5 642.77 1052.07 565.57 1103.22z" opacity=".986" fill="#f47920"/><path d="M509.6 555.55c-28.8-124.78-209.72-302.68-209.72-302.68m-99.24 351.48l171.6-117.93M632.48 822.7l150.7-103.57M633 1092.16l119.4-82.05" class="B D" fill="#241c1c"/><path transform="matrix(.091502 -.995805 .995805 .091502 -79.669702 1712.229847)" d="M1062.22 1010.8h92.36v84.54h-92.36z" fill="#c8c4d2" stroke-opacity=".996" class="B"/><path d="M1126.18 628.43l714.9 65.7a77.88 77.88 0 0 1 70.58 84.87l-.57 6.23a77.88 77.88 0 0 1-84.87 70.59l-714.9-65.68z" fill="#ec1d24" class="B"/></g><path d="M1778 688.32l-14.86 161.7" fill="#41b649" fill-opacity=".607" stroke-width="31.667" class="B D"/><g stroke-width="24"><path d="M1038.63 588.58l-513.05-47.14S410.12 531.5 400 640.02c-10.88 116.3 104.95 126.2 104.95 126.2L1018 813.35z" fill="#c8c4d2" fill-opacity=".996" class="B"/><path d="M927.38 691.7l-386.9-35.55" fill="none" class="B D"/><path d="M540.48 656.15s65-368.47 378.45-383c177.26-8.24 203.58 125.88 152.4 208.1 0 0-13.63-140.47-158.83-95.57-129.4 40-187.36 290.75-187.36 290.75z" fill="#f47920" fill-opacity=".988"/><path d="M679.65 502.58l87.4 34.73" fill="#241c1c" class="B D"/></g></g></svg>