<svg xmlns="http://www.w3.org/2000/svg" height="1387.107" width="1924.002"  xmlns:v="https://vecta.io/nano"><style><![CDATA[.B{stroke-linejoin:round}.C{stroke-linecap:round}]]></style><g stroke="#231f20"><g stroke-width="24"><path d="M544.91 374.06C599.32 98.5 364.59 97 268.7 12c-42.47 74.9 11.14 358.5 276.2 362.06z" fill="#218541"/><path d="M515.59 514.65c-28.08-298.4 224.7-326.5 247.5-326.5-19.3 31.6 10.54 61.44 10.54 61.44S541.92 267.14 573.52 516.4z" fill="#734d2f" class="B"/><path d="M443.66 1360.24c-36.87 10.77-68.32 20.67-93.88 10.82-206.44-79.6-291.78-324.44-324.4-463.5C2.45 809.7 9.19 699.17 44.06 604.3c35.42-96.33 93.2-161.74 162.2-179.4 223.54-57.22 225.67 66.6 334.23 67.34 121.58-1.48 166.9-103.6 343.57-66.85 72.25 15 133.88 80.7 162.2 183.33 28.54 103.45 39.4 196.3 17.7 300.8-36.3 174.8-135.2 389.17-323.9 461.53a65 65 0 0 1-23.59 3.93c-20.64 0-43.76-6.82-69.8-14.75-30.5-9.28-64.88-19.9-101.25-19.66-36.87.25-71.3 10.77-101.75 19.66z" fill="#c52627"/><path d="M742 824.5c60.8-.2 9.9-312.44-50.4-379.63 67.74-31.78 104.1-37.88 192.44-19.5 72.25 15 133.88 80.7 162.2 183.33 28.54 103.45 25.9 165.5 23.47 254.58z" fill="#f2e8d9"/><g class="B"><path transform="matrix(.091502 -.995805 .995805 .091502 -43.261239 1946.810253)" d="M1194.06 1094.54h78.65v71.98h-78.65z" opacity="1" fill="#c8c4d2" stroke-opacity=".996"/><path d="M1242.87 756.98l608.74 55.93a66.31 66.31 0 0 1 60.1 72.27l-.48 5.3a66.32 66.32 0 0 1-72.27 60.11l-608.74-55.93z" opacity="1" fill="#ec1d24"/></g></g><path d="M1797.9 807.98l-12.65 137.68" opacity="1" fill="#41b649" fill-opacity=".607" stroke-width="31.667" class="B C"/><g stroke-width="24" class="B"><path d="M1168.33 723.05L731.47 682.9s-98.32-8.47-107 83.94c-9.26 99 89.37 107.45 89.37 107.45l436.87 40.14z" opacity="1" fill="#c8c4d2" fill-opacity=".996"/><path d="M1073.6 810.85l-329.44-30.27" opacity="1" fill="none" class="C"/><path d="M786.89 780.73s47-275.37 314.08-285.3c115.53-4.3 195.14 22.73 200.6 81.84 0 0-8.88-2.47-132.52 35.77-110.18 34.07-129.57 195.8-129.57 195.8z" fill="#c52627"/></g></g></svg>