<svg id="Layer_1" data-name="Layer 1" xmlns="http://www.w3.org/2000/svg" width="2000" height="1142.72" viewBox="0 0 2000 1142.72">
  <g id="layer2">
    <path id="path863" d="M1569,1048.7c-5.6-405.66-293.62-679.92-592.29-679.92-301.85,0-462.86,228.64-537.37,445.63C405.14,914.1,339.94,992.2,177.72,1048.7H331.4c87.25,0,293,23.52,626.1,23.52S1569,1048.7,1569,1048.7Z" style="fill: #d87598;stroke: #3a3632;stroke-linecap: round;stroke-linejoin: round;stroke-opacity: 0.983806014060974;stroke-width: 20px;isolation: isolate;opacity: 0.990000009536743"/>
    <g style="isolation: isolate;opacity: 0.990000009536743">
      <g>
        <g id="path887" style="isolation: isolate;opacity: 0.990000009536743">
          <path d="M1544.21,942.16c-527.33-787-1173.43-7.56-1173.43-7.56" style="fill: #d87598"/>
          <path d="M1544.21,942.16c-527.33-787-1173.43-7.56-1173.43-7.56" style="fill: none;stroke: #3a3632;stroke-linecap: round;stroke-linejoin: round;stroke-width: 20px;opacity: 0.983806014060974"/>
        </g>
        <g id="path889" style="isolation: isolate;opacity: 0.990000009536743">
          <path d="M1558,998c-512.23-381.3-1251.15-10.8-1251.15-10.8" style="fill: #d87598"/>
          <path d="M1558,998c-512.23-381.3-1251.15-10.8-1251.15-10.8" style="fill: none;stroke: #3a3632;stroke-linecap: round;stroke-linejoin: round;stroke-width: 20px;opacity: 0.983806014060974"/>
        </g>
      </g>
    </g>
    <g>
      <path id="path863-2" data-name="path863" d="M1571.33,1038.07c299.85-305.79,313.18-639.44,116.5-836.81-188.46-189.13-447.33-129.74-605.08-87-83,22.52-195,70.18-338.56,10.65,0,0,401.11,188.25,562.75,384.48C1482.64,722.72,1571.33,1038.07,1571.33,1038.07Z" style="fill: #bc515b;stroke: #3a3632;stroke-linecap: round;stroke-linejoin: round;stroke-opacity: 0.983806014060974;stroke-width: 20px;isolation: isolate;opacity: 0.990000009536743"/>
      <path id="path887-2" data-name="path887" d="M1589.65,1020.08c212.47-365.57,123.75-557.69,23.57-681.3C1418.61,98.65,1090.41,128.57,996.48,138.69" style="fill: none;stroke: #3a3632;stroke-linecap: round;stroke-linejoin: round;stroke-opacity: 0.983806014060974;stroke-width: 20px;isolation: isolate;opacity: 0.990000009536743"/>
      <path id="path889-2" data-name="path889" d="M1589.65,1020.08c122.22-688.52-525.4-844.19-692.14-866.54" style="fill: none;stroke: #3a3632;stroke-linecap: round;stroke-linejoin: round;stroke-opacity: 0.983806014060974;stroke-width: 20px;isolation: isolate;opacity: 0.990000009536743"/>
    </g>
    <g id="g908">
      <path id="path899" d="M1570.2,1047.08l161.25,1.62" style="fill: #cc6469;fill-opacity: 0.643724977970123;stroke: #3a3632;stroke-linecap: round;stroke-linejoin: round;stroke-opacity: 0.983806014060974;stroke-width: 20px;isolation: isolate;opacity: 0.990000009536743"/>
    </g>
    <path id="path912" d="M1574.56,1045.91l140.26-79.59" style="fill: #cc6469;fill-opacity: 0.643724977970123;stroke: #3a3632;stroke-linecap: round;stroke-linejoin: round;stroke-opacity: 0.983806014060974;stroke-width: 20px;isolation: isolate;opacity: 0.990000009536743"/>
  </g>
</svg>
