<svg xmlns="http://www.w3.org/2000/svg" height="1469.84" width="1923.998"  xmlns:v="https://vecta.io/nano"><style><![CDATA[.B{opacity:1}.C{stroke-opacity:.984}.D{fill-opacity:.644}.E{stroke-linecap:round}]]></style><g stroke="#231f20" stroke-width="24" stroke-linejoin="round"><path d="M1279.438 12.37c-52.56 150.92-125.22 211.57-218 243.42-201.84 69.32-414.55 219.14-414.55 499.93 0 277.87 255.15 545.83 632.55 551 377.4-5.2 632.56-273.17 632.56-551 0-280.82-212.7-430.6-414.6-499.93-92.74-31.86-165.4-92.5-217.97-243.42z" fill="#cd656a" class="B C"/><path d="M1280.998 1307.84L1279.488 12" fill="#c42026" class="B C D E"/><path d="M1259.828 1304.82c-199.1-234.34-214.58-511.15-180.64-733.14s117.27-389.2 115.8-404.27c0 0-16.4 46.2-130.9 88.52-707.46 261.6-436.48 1020.23 195.72 1048.9z" fill="#fceef1" class="B C"/><g class="E C"><path d="M1354.888 1303.93c763-462.65 51.3-1092.15 51.3-1092.15m-104.1 1095.15c398.22-468.65 64.92-1137.4 64.92-1137.4" class="B" fill="none"/><g fill="#c42026" class="D"><path d="M1280.998 1307.84l-1.5 150m-19.67-153.02l-74 130.5" class="B"/><path d="M1259.828 1304.82l-138 58.8m180.25-58.8l74 130.5" class="B"/><path d="M1302.078 1304.82l138 58.8" class="B"/></g></g><path d="M579.348 1256.54c-762.97-462.6-68.35-1081.48-51.3-1092.15-746.83 230.45-642.2 962 51.3 1092.15z" fill="#cd656a" stroke-opacity=".988" class="B"/></g></svg>