<svg xmlns="http://www.w3.org/2000/svg" xmlns:xlink="http://www.w3.org/1999/xlink" viewBox="0 0 2000 1455.91"><defs><linearGradient id="linear-gradient" x1="651.96" y1="1440.92" x2="651.96" y2="144.89" gradientUnits="userSpaceOnUse"><stop offset="0.51" stop-color="#fffce4"/><stop offset="0.65" stop-color="#d3b8c3"/><stop offset="0.9" stop-color="#803785"/><stop offset="1" stop-color="#3a3421"/></linearGradient><linearGradient id="linear-gradient-2" x1="1013.43" y1="715.17" x2="1013.43" y2="362.71" gradientUnits="userSpaceOnUse"><stop offset="0" stop-color="#fffce4"/><stop offset="0.5" stop-color="#d3b8c3"/><stop offset="1" stop-color="#a571a1"/></linearGradient></defs><g id="Layer_2" data-name="Layer 2"><path d="M694.79,26,549.23,28.28c-4.6,60.43,29.95,123.1,29.95,123.1H724.74S686.13,91.06,694.79,26Z" style="fill:#6dbe45;stroke:#231f20;stroke-miterlimit:10;stroke-width:24px"/><path d="M640.53,20,747.4,26c14.42,62.36-22,125.35-22,125.35H618.55S646.89,85.07,640.53,20Z" style="fill:#6dbe45;stroke:#231f20;stroke-miterlimit:10;stroke-width:24px"/><path id="path863" d="M680.11,1435.54c7.38-72.46,27.54-186.08,53.81-220.29s89.68-59.43,132.48-74.12c198.61-68.2,407.88-253,407.88-529.28,0-273.38-251-462.13-622.32-467.25C280.66,149.72,29.64,296.67,29.64,611.85c0,276.28,198.31,425.29,346.42,494.88,61.23,28.77,157.9,64.13,199.64,114s47.65,163.73,54.76,215.12Z" style="stroke:#231f20;stroke-miterlimit:10;stroke-width:24px;fill:url(#linear-gradient)"/><line x1="136.83" y1="446.16" x2="426.83" y2="446.16" style="fill:none;stroke:#231f20;stroke-linecap:round;stroke-miterlimit:10;stroke-width:16px"/><line x1="757.07" y1="937.29" x2="1012.88" y2="937.29" style="fill:none;stroke:#231f20;stroke-linecap:round;stroke-miterlimit:10;stroke-width:16px"/><line x1="668.45" y1="616.59" x2="1160.31" y2="616.59" style="fill:none;stroke:#231f20;stroke-linecap:round;stroke-miterlimit:10;stroke-width:16px"/><line x1="227.77" y1="774.61" x2="557.77" y2="774.61" style="fill:none;stroke:#231f20;stroke-linecap:round;stroke-miterlimit:10;stroke-width:16px"/><line x1="750.77" y1="291.23" x2="941.95" y2="291.23" style="fill:none;stroke:#231f20;stroke-linecap:round;stroke-miterlimit:10;stroke-width:16px"/><g id="layer1"><g id="g891"><rect id="rect1733" x="1146.86" y="690.98" width="85.67" height="78.41" transform="translate(353.73 1848.09) rotate(-84.75)" style="fill:#c7c2d1;stroke:#231f20;stroke-linecap:round;stroke-linejoin:round;stroke-opacity:0.995950996875763;stroke-width:24px;opacity:0.990000009536743;isolation:isolate"/><path id="rect1708" d="M1241.44,659.31l663.13,60.93A72.25,72.25,0,0,1,1970.05,799l-.53,5.78a72.25,72.25,0,0,1-78.73,65.48L1227.66,809.3Z" style="fill:#eb1d25;stroke:#231f20;stroke-linecap:round;stroke-linejoin:round;stroke-width:24px;opacity:0.990000009536743;isolation:isolate"/><path id="rect1725" d="M1846.06,714.87l-13.78,150" style="fill:#40b449;fill-opacity:0.607286989688873;stroke:#231f20;stroke-linecap:round;stroke-linejoin:round;stroke-width:31.6666666666659px;opacity:0.990000009536743;isolation:isolate"/><path id="path1729" d="M1160.24,622.35,684.33,578.62s-107.1-9.23-116.51,91.44c-10.09,107.87,97.36,117.06,97.36,117.06l475.9,43.73Z" style="fill:#c7c2d1;fill-opacity:0.996078014373779;stroke:#231f20;stroke-linecap:round;stroke-linejoin:round;stroke-width:24px;opacity:0.990000009536743;isolation:isolate"/><path id="path1731" d="M1057,718,698.16,685" style="fill:none;stroke:#231f20;stroke-linecap:round;stroke-linejoin:round;stroke-width:24px;opacity:0.990000009536743;isolation:isolate"/></g></g><path id="path3829" d="M734.6,688.37S787.82,374,1078.72,363.2c47.74-1.77,97.89-.12,143.66,14.92,21.49,7.06,83.3,34.55,67.27,66.67-7.49,15-41.57,18.41-57,22.76-26.7,7.52-53.26,15.57-79.76,23.77-120,37.12-141.58,222.47-141.58,222.47Z" style="stroke:#231f20;stroke-miterlimit:10;stroke-width:24px;fill:url(#linear-gradient-2)"/></g></svg>