<svg id="Layer_1" data-name="Layer 1" xmlns="http://www.w3.org/2000/svg" viewBox="0 0 1778.2 2000"><path d="M896.07,1031.28c0,200.44-18.75,376.2-113.64,551.86-44.16,81.76-96,166.42-150.19,241.31C591.29,1881.08,521.15,1990,454.5,1990s-137-157.21-166.79-220.29C234.26,1656.49,152,1565.91,113.31,1444c-23.56-74.15-36.92-150.79-49.1-227.48-10.62-66.89-12.39-110.63-12.39-180.82,0-92.57,12.93-202.3,38.88-289.05,32.59-109,60.61-215.22,113.26-315.59a1004.46,1004.46,0,0,1,145.82-208.5C376.38,193.3,426.73,30,496.16,30s160.3,241.32,196,290c76,103.61,93.71,226.69,146.18,344.19C888.45,776.42,896.07,910.18,896.07,1031.28Z" style="fill:#c88463;stroke:#231f20;stroke-miterlimit:10;stroke-width:10px"/><path d="M240.66,748.66c15.44-2.07,30.87-3.14,46.31-3.91s30.87-1.08,46.3-1.08,30.87.33,46.31,1.06,30.87,1.85,46.3,3.93c-15.43,2.09-30.87,3.17-46.3,3.94s-30.87,1.07-46.31,1.06-30.87-.34-46.3-1.08S256.1,750.74,240.66,748.66Z" style="fill:#231f20"/><path d="M647.56,1143c13.77-2.07,27.53-3.14,41.3-3.91s27.53-1.08,41.3-1.08,27.53.33,41.3,1.06S799,1141,812.76,1143c-13.77,2.09-27.54,3.17-41.3,3.94s-27.54,1.07-41.3,1.06-27.54-.34-41.3-1.08S661.33,1145.1,647.56,1143Z" style="fill:#231f20"/><path d="M259.25,1465.13c15.44-2.07,30.87-3.14,46.31-3.91s30.87-1.08,46.3-1.08,30.87.33,46.31,1.06,30.87,1.85,46.3,3.93c-15.43,2.09-30.87,3.17-46.3,3.94s-30.87,1.07-46.31,1.06-30.87-.34-46.3-1.08S274.69,1467.21,259.25,1465.13Z" style="fill:#231f20"/><path d="M504.54,433a151.37,151.37,0,0,1,23.78-3.92c7.93-.73,15.86-1.07,23.78-1.08s15.85.34,23.78,1.07A148.93,148.93,0,0,1,599.66,433a148.93,148.93,0,0,1-23.78,3.93C568,437.65,560,438,552.1,438s-15.85-.35-23.78-1.08A150.22,150.22,0,0,1,504.54,433Z" style="fill:#231f20"/><path d="M285.72,1055.16a151.06,151.06,0,0,1,23.77-3.92c7.93-.73,15.86-1.07,23.78-1.08s15.85.34,23.78,1.07a148.93,148.93,0,0,1,23.78,3.93,148.93,148.93,0,0,1-23.78,3.93c-7.93.74-15.85,1.08-23.78,1.07s-15.85-.35-23.78-1.08A149.91,149.91,0,0,1,285.72,1055.16Z" style="fill:#231f20"/><path d="M457,1686.59a149.84,149.84,0,0,1,23.78-3.92c7.92-.74,15.85-1.08,23.77-1.08s15.86.33,23.78,1.06a147.66,147.66,0,0,1,23.78,3.94,148.74,148.74,0,0,1-23.78,3.93q-11.88,1.1-23.78,1.06c-7.92,0-15.85-.34-23.77-1.08A151,151,0,0,1,457,1686.59Z" style="fill:#231f20"/><path d="M478.55,842.38C471.28,750.17,489.17,687,496.62,595c3-36.51,9.68-111.78,46.92-124.22,67.75-22.63,110.19,45.39,144.11,95.86,47.57,70.77,53.61,141.77,67.17,223.83,2.85,17.27,7.34,34.39,10,51.67a244.29,244.29,0,0,1-3.07,91.43" style="fill:#fcac42"/><g id="layer1"><g id="g891"><rect id="rect1733" x="908.89" y="935.02" width="85.67" height="78.41" transform="translate(-105.49 1832.82) rotate(-84.75)" style="fill:#c7c2d1;stroke:#231f20;stroke-linecap:round;stroke-linejoin:round;stroke-opacity:0.995950996875763;stroke-width:10px;isolation:isolate;opacity:0.990000009536743"/><path id="rect1708" d="M997.47,904.39l663.13,60.93a72.23,72.23,0,0,1,65.47,78.72l-.53,5.79a72.24,72.24,0,0,1-78.72,65.47l-663.13-60.93Z" style="fill:#eb1d25;stroke:#231f20;stroke-linecap:round;stroke-linejoin:round;stroke-width:10px;isolation:isolate;opacity:0.990000009536743"/><path id="rect1725" d="M1608.09,958.91l-13.78,150" style="fill:#40b449;fill-opacity:0.607286989688873;stroke:#231f20;stroke-linecap:round;stroke-linejoin:round;stroke-width:10px;isolation:isolate;opacity:0.990000009536743"/><path id="path1729" d="M922.26,866.39l-475.9-43.73s-107.1-9.23-116.51,91.44C319.76,1022,427.2,1031.16,427.2,1031.16l475.91,43.73Z" style="fill:#c7c2d1;fill-opacity:0.996078014373779;stroke:#231f20;stroke-linecap:round;stroke-linejoin:round;stroke-width:10px;isolation:isolate;opacity:0.990000009536743"/><path id="path1731" d="M819.07,962l-358.89-33" style="fill:none;stroke:#231f20;stroke-linecap:round;stroke-linejoin:round;stroke-width:40px;isolation:isolate;opacity:0.990000009536743"/></g></g><g id="layer5"><path id="path3829" d="M496.62,932.41s53.22-314.35,344.13-325.17c47.73-1.77,97.89-.12,143.66,14.92,21.49,7.06,83.29,34.55,67.26,66.68-7.48,15-41.56,18.4-57,22.75-26.71,7.52-53.26,15.57-79.76,23.77-120,37.12-141.59,222.48-141.59,222.48Z" style="fill:#c88463;stroke:#231f20;stroke-miterlimit:10;stroke-width:10px"/></g></svg>