<svg xmlns="http://www.w3.org/2000/svg" viewBox="0 0 2000 1392.9"><g id="Layer_1" data-name="Layer 1"><path d="M1010.15,260.94V76.61c0-21.81,16.94-39.49,37.84-39.49h841.94c20.9,0,37.84,17.68,37.84,39.49V260.94" style="fill:#fff;stroke:#000;stroke-miterlimit:15.118109703064;stroke-width:24px"/><circle cx="1130.18" cy="131.63" r="34.98" style="fill:none;stroke:#000;stroke-miterlimit:15.118109703064;stroke-width:24px"/><circle cx="1246.32" cy="131.63" r="34.98" style="fill:none;stroke:#000;stroke-miterlimit:15.118109703064;stroke-width:24px"/><circle cx="1795.82" cy="131.63" r="34.98" style="fill:none;stroke:#000;stroke-miterlimit:15.118109703064;stroke-width:24px"/><circle cx="1681.36" cy="131.63" r="34.98" style="fill:none;stroke:#000;stroke-miterlimit:15.118109703064;stroke-width:24px"/><circle cx="1462.25" cy="131.63" r="34.98" style="fill:none;stroke:#000;stroke-miterlimit:15.118109703064;stroke-width:24px"/><rect x="956.66" y="260.94" width="1011.17" height="1098.9" rx="35.35" style="fill:#fff;stroke:#000;stroke-miterlimit:15.118109703064;stroke-width:24px"/><line x1="960.42" y1="1154" x2="1964.07" y2="1154" style="fill:none;stroke:#000;stroke-miterlimit:15.118109703064;stroke-width:24px"/><rect x="1019.81" y="413.37" width="884.87" height="61.37" rx="13.16" style="fill:none;stroke:#000;stroke-miterlimit:15.118109703064;stroke-width:24px"/><line x1="960.42" y1="343.17" x2="1964.07" y2="343.17" style="fill:none;stroke:#000;stroke-miterlimit:15.118109703064;stroke-width:24px"/><line x1="1096.84" y1="239.01" x2="1389.43" y2="239.01" style="fill:none;stroke:#000;stroke-linecap:round;stroke-miterlimit:15.118109703064;stroke-width:23.5644733840131px"/><line x1="1535.07" y1="239.01" x2="1827.65" y2="239.01" style="fill:none;stroke:#000;stroke-linecap:round;stroke-miterlimit:15.118109703064;stroke-width:23.5644733840131px"/><rect x="1095.19" y="544.96" width="734.11" height="538.84" rx="70.69" style="fill:#fff;stroke:#000;stroke-miterlimit:15.118109703064;stroke-width:24px"/><line x1="1097.34" y1="920.23" x2="1830.8" y2="920.23" style="fill:none;stroke:#000;stroke-linecap:round;stroke-miterlimit:15.118109703064;stroke-width:24px"/><line x1="1167.31" y1="920.23" x2="1167.31" y2="1075.64" style="fill:none;stroke:#000;stroke-linecap:round;stroke-miterlimit:15.118109703064;stroke-width:24px"/><line x1="1266.23" y1="920.23" x2="1266.23" y2="1075.64" style="fill:none;stroke:#000;stroke-linecap:round;stroke-miterlimit:15.118109703064;stroke-width:24px"/><line x1="1365.15" y1="920.23" x2="1365.15" y2="1075.64" style="fill:none;stroke:#000;stroke-linecap:round;stroke-miterlimit:15.118109703064;stroke-width:24px"/><line x1="1464.07" y1="920.23" x2="1464.07" y2="1075.64" style="fill:none;stroke:#000;stroke-linecap:round;stroke-miterlimit:15.118109703064;stroke-width:24px"/><line x1="1562.99" y1="920.23" x2="1562.99" y2="1075.64" style="fill:none;stroke:#000;stroke-linecap:round;stroke-miterlimit:15.118109703064;stroke-width:24px"/><line x1="1661.91" y1="920.23" x2="1661.91" y2="1075.64" style="fill:none;stroke:#000;stroke-linecap:round;stroke-miterlimit:15.118109703064;stroke-width:24px"/><line x1="1760.84" y1="920.23" x2="1760.84" y2="1075.64" style="fill:none;stroke:#000;stroke-linecap:round;stroke-miterlimit:15.118109703064;stroke-width:24px"/><g id="layer5"><g id="g986"><path id="rect981" d="M1232.07,731.79H946.31a199.93,199.93,0,0,1-167.26-90.4h0m379.32,16.7,86.87,73.7-86.87,73.7" style="fill:none;stroke:#231f20;stroke-linecap:round;stroke-linejoin:round;stroke-width:24px"/></g></g></g><g id="Isolation_Mode" data-name="Isolation Mode"><path d="M463.53,605.74c170.7,0,291.85-34.15,337.29-103.7,53.68-127.93,68.62-119.35,68.62-119.35,0-98.85-181.73-179-405.91-179s-405.92,80.13-405.92,179c0,0,14.94-8.58,72.36,119.35C175.41,571.59,292.82,605.74,463.53,605.74Z" style="fill:#fff;stroke:#231f20;stroke-miterlimit:10;stroke-width:24px"/><ellipse cx="463.53" cy="356.01" rx="427.47" ry="176.07" style="fill:#fff;stroke:#231f20;stroke-miterlimit:10;stroke-width:24px"/><path d="M841,345.48c0,78.29-169,141.76-377.42,141.76S86.11,423.77,86.11,345.48" style="fill:#fff;stroke:#231f20;stroke-linecap:round;stroke-miterlimit:10;stroke-width:24px"/><path d="M841,345.48c0-78.3-169-141.77-377.42-141.77S86.11,267.18,86.11,345.48" style="fill:#fff;stroke:#231f20;stroke-linecap:round;stroke-miterlimit:10;stroke-width:24px"/><path d="M738.76,345.34c-72.35-30.36-169-48.9-275.23-48.9-110.89,0-211.39,20.22-284.66,53" style="fill:#fff;stroke:#231f20;stroke-linecap:round;stroke-miterlimit:10;stroke-width:12px"/><path d="M812.05,345.48C755.19,282.9,620.56,238.92,463.53,238.92S171.87,282.9,115,345.48a121.69,121.69,0,0,0-20.45,29.95c7.41,12.94,19.52,25.22,35.63,36.59,63.45,44.75,188.92,75.22,333.34,75.22S733.41,456.77,796.87,412c16.11-11.37,28.22-23.65,35.63-36.59A121.69,121.69,0,0,0,812.05,345.48Z" style="fill:#f9d375;stroke:#231f20;stroke-linecap:round;stroke-miterlimit:10;stroke-width:24px"/></g></svg>