<?xml version="1.0" encoding="UTF-8"?>
<svg id="Layer_1" data-name="Layer 1" xmlns="http://www.w3.org/2000/svg" width="2000" height="2000" viewBox="0 0 2000 2000">
  <g id="layer2">
    <path id="path1047" d="m280.4,1022.54s7.4,95.57,100.16,209.03c0,0,66.77,88.55,180,137.9,0,0,84.9,39.19,198.87,40.65,0,0,123.81,3.58,191.61-7.26,21.56-4.11,83.9-30.44,116.31-68.65,0,0,49.85-47.9,84.69-137.9,20.32-65.32,21.1-76.51,21.1-76.51,2.65-20.92,18.87-26.42,26.13-26.42,0,0,23.23-7.26,62.42-1.45,0,0,112.98,10.2,165.48,22.49,0,0,94.28,13.56,150.97,46.95,0,0,48.96,25.13,105.97,94.88,0,0,40.65,43.55,75.48,146.61,0,0,30.48,7.26,53.71-5.81-36.29-104.52-81.29-162.58-81.29-162.58-60.97-87.1-133.55-119.03-133.55-119.03-72.58-42.1-174.19-56.61-174.19-56.61-120.48-15.97-164.03-17.42-164.03-17.42-74.03-5.81-95.81-7.26-95.81-7.26-609.75-20.09-589.32-12.45-884.04-11.61h0Z" style="fill: #383850; stroke: #3a3632; stroke-miterlimit: 11.34; stroke-width: 20px;"/>
  </g>
  <g id="layer2-2" data-name="layer2">
    <path id="path1047-2" data-name="path1047" d="m280.4,128.24s7.4,95.57,100.16,209.03c0,0,66.77,88.55,180,137.9,0,0,84.9,39.19,198.87,40.65,0,0,123.81,3.58,191.61-7.26,21.56-4.11,83.9-30.44,116.31-68.65,0,0,49.85-47.9,84.69-137.9,20.32-65.32,21.1-76.51,21.1-76.51,2.65-20.92,18.87-26.42,26.13-26.42,0,0,23.23-7.26,62.42-1.45,0,0,112.98,10.2,165.48,22.49,0,0,94.28,13.56,150.97,46.95,0,0,48.96,25.13,105.97,94.88,0,0,40.65,43.55,75.48,146.61,0,0,30.48,7.26,53.71-5.81-36.29-104.52-81.29-162.58-81.29-162.58-60.97-87.1-133.55-119.03-133.55-119.03-72.58-42.1-174.19-56.61-174.19-56.61-120.48-15.97-164.03-17.42-164.03-17.42-74.03-5.81-95.81-7.26-95.81-7.26-609.75-20.09-589.32-12.45-884.04-11.61h0Z" style="fill: #383850; stroke: #3a3632; stroke-miterlimit: 11.34; stroke-width: 20px;"/>
  </g>
  <g id="layer5">
    <g id="g986">
      <path id="rect981" d="m788.43,909.66v-275.45m98.18,177.27l-98.18,115.72-98.18-115.72" style="fill: none; stroke: #3a3632; stroke-linecap: round; stroke-linejoin: round; stroke-width: 24px;"/>
    </g>
  </g>
  <g id="layer2-3" data-name="layer2">
    <path id="path1047-3" data-name="path1047" d="m280.4,1260.43s7.4,95.57,100.16,209.03c0,0,66.77,88.55,180,137.9,0,0,84.9,39.19,198.87,40.65,0,0,123.81,3.58,191.61-7.26,21.56-4.11,83.9-30.44,116.31-68.65,0,0,49.85-47.9,84.69-137.9,20.32-65.32,21.1-76.51,21.1-76.51,2.65-20.92,18.87-26.42,26.13-26.42,0,0,23.23-7.26,62.42-1.45,0,0,112.98,10.2,165.48,22.49,0,0,94.28,13.56,150.97,46.95,0,0,48.96,25.13,105.97,94.88,0,0,40.65,43.55,75.48,146.61,0,0,30.48,7.26,53.71-5.81-36.29-104.52-81.29-162.58-81.29-162.58-60.97-87.1-133.55-119.03-133.55-119.03-72.58-42.1-174.19-56.61-174.19-56.61-120.48-15.97-164.03-17.42-164.03-17.42-74.03-5.81-95.81-7.26-95.81-7.26-609.75-20.09-589.32-12.45-884.04-11.61h0Z" style="fill: #383850; stroke: #3a3632; stroke-miterlimit: 11.34; stroke-width: 20px;"/>
  </g>
  <g id="layer2-4" data-name="layer2">
    <path id="path1047-4" data-name="path1047" d="m280.4,1498.33s7.4,95.57,100.16,209.03c0,0,66.77,88.55,180,137.9,0,0,84.9,39.19,198.87,40.65,0,0,123.81,3.58,191.61-7.26,21.56-4.11,83.9-30.44,116.31-68.65,0,0,49.85-47.9,84.69-137.9,20.32-65.32,21.1-76.51,21.1-76.51,2.65-20.92,18.87-26.42,26.13-26.42,0,0,23.23-7.26,62.42-1.45,0,0,112.98,10.2,165.48,22.49,0,0,94.28,13.56,150.97,46.95,0,0,48.96,25.13,105.97,94.88,0,0,40.65,43.55,75.48,146.61,0,0,30.48,7.26,53.71-5.81-36.29-104.52-81.29-162.58-81.29-162.58-60.97-87.1-133.55-119.03-133.55-119.03-72.58-42.1-174.19-56.61-174.19-56.61-120.48-15.97-164.03-17.42-164.03-17.42-74.03-5.81-95.81-7.26-95.81-7.26-609.75-20.09-589.32-12.45-884.04-11.61h0Z" style="fill: #383850; stroke: #3a3632; stroke-miterlimit: 11.34; stroke-width: 20px;"/>
  </g>
</svg>