<?xml version="1.0" encoding="UTF-8"?>
<svg id="Layer_1" data-name="Layer 1" xmlns="http://www.w3.org/2000/svg" width="2000" height="2000" viewBox="0 0 2000 2000">
  <g id="layer2">
    <path id="path1047" d="m50,1044.04c8.19,81.91,87.24,165.82,87.24,165.82,44.14,44.87,97.02,50.63,181.15,51.88,70.15,1.04,113.01-3.74,141.72-19.13,28.48-15.26,66.37-61.5,89.41-88.01,20.5-23.59,28.1-48.12,49.35-48.12,0,0,85.41-2.76,201.42-3.73,330.78-2.78,399.67-21.7,440.46-20.43,128.48,3.99,166.33,10.57,243.94,28.83,214.56,50.48,232.9,111.53,318.38,178.19l96.91-4.25c-165.2-138.57-194.44-187.14-412.28-237.5-76.49-17.68-147.99-23.57-244.2-25.11-47.12-.75-70.08,16.46-447.45,14.39-217.43-1.19-254.36,1.93-381.54,2.15-124.98,2.33-239.56.56-364.49,5.02h0Z" style="fill: #383850; stroke: #3a3632; stroke-miterlimit: 11.34; stroke-width: 20px;"/>
  </g>
  <g id="layer2-2" data-name="layer2">
    <path id="path1047-2" data-name="path1047" d="m50,331.54c8.19,81.91,87.24,165.82,87.24,165.82,44.14,44.87,97.02,50.63,181.15,51.88,70.15,1.04,113.01-3.74,141.72-19.13,28.48-15.26,66.37-61.5,89.41-88.01,20.5-23.59,28.1-48.12,49.35-48.12,0,0,85.41-2.76,201.42-3.73,330.78-2.78,399.67-21.7,440.46-20.43,128.48,3.99,166.33,10.57,243.94,28.83,214.56,50.48,232.9,111.53,318.38,178.19l96.91-4.25c-165.2-138.57-194.44-187.14-412.28-237.5-76.49-17.68-147.99-23.57-244.2-25.11-47.12-.75-70.08,16.46-447.45,14.39-217.43-1.19-254.36,1.93-381.54,2.15-124.98,2.33-239.56.56-364.49,5.02h0Z" style="fill: #383850; stroke: #3a3632; stroke-miterlimit: 11.34; stroke-width: 20px;"/>
  </g>
  <g id="layer5">
    <g id="g986">
      <path id="rect981" d="m381.17,916.79v-275.45m98.18,177.27l-98.18,115.72-98.18-115.72" style="fill: none; stroke: #3a3632; stroke-linecap: round; stroke-linejoin: round; stroke-width: 24px;"/>
    </g>
  </g>
  <g id="layer2-3" data-name="layer2">
    <path id="path1047-3" data-name="path1047" d="m50,1221.55c8.19,81.91,87.24,165.82,87.24,165.82,44.14,44.87,97.02,50.63,181.15,51.88,70.15,1.04,113.01-3.74,141.72-19.13,28.48-15.26,66.37-61.5,89.41-88.01,20.5-23.59,28.1-48.12,49.35-48.12,0,0,85.41-2.76,201.42-3.73,330.78-2.78,399.67-21.7,440.46-20.43,128.48,3.99,166.33,10.57,243.94,28.83,214.56,50.48,232.9,111.53,318.38,178.19l96.91-4.25c-165.2-138.57-194.44-187.14-412.28-237.5-76.49-17.68-147.99-23.57-244.2-25.11-47.12-.75-70.08,16.46-447.45,14.39-217.43-1.19-254.36,1.93-381.54,2.15-124.98,2.33-239.56.56-364.49,5.02h0Z" style="fill: #383850; stroke: #3a3632; stroke-miterlimit: 11.34; stroke-width: 20px;"/>
  </g>
  <g id="layer2-4" data-name="layer2">
    <path id="path1047-4" data-name="path1047" d="m50,1399.05c8.19,81.91,87.24,165.82,87.24,165.82,44.14,44.87,97.02,50.63,181.15,51.88,70.15,1.04,113.01-3.74,141.72-19.13,28.48-15.26,66.37-61.5,89.41-88.01,20.5-23.59,28.1-48.12,49.35-48.12,0,0,85.41-2.76,201.42-3.73,330.78-2.78,399.67-21.7,440.46-20.43,128.48,3.99,166.33,10.57,243.94,28.83,214.56,50.48,232.9,111.53,318.38,178.19l96.91-4.25c-165.2-138.57-194.44-187.14-412.28-237.5-76.49-17.68-147.99-23.57-244.2-25.11-47.12-.75-70.08,16.46-447.45,14.39-217.43-1.19-254.36,1.93-381.54,2.15-124.98,2.33-239.56.56-364.49,5.02h0Z" style="fill: #383850; stroke: #3a3632; stroke-miterlimit: 11.34; stroke-width: 20px;"/>
  </g>
</svg>