<svg xmlns="http://www.w3.org/2000/svg" viewBox="0 0 1730 2000"><g id="Layer_2" data-name="Layer 2"><path d="M776.37,1985.38c347.11,0,754.65-184.69,754.65-604.22,0-98.82-337.87-189.65-754.65-189.65h-1.16c-416.79,0-754.66,90.83-754.66,189.65,0,419.53,407.55,604.22,754.66,604.22Z" style="fill:#fff;stroke:#231f20;stroke-miterlimit:10;stroke-width:24px"/><path d="M1482.19,1375.41c0,47.36-316,117.52-705.78,117.52h-1.24c-389.79,0-705.78-70.16-705.78-117.52" style="fill:none;stroke:#231f20;stroke-linecap:round;stroke-miterlimit:10;stroke-width:24px"/><g id="layer3"><path id="path1047" d="M947.37,776.94s57.83,30.14,156.72,17.44c0,0,75.15-6.66,144.4-54.24,0,0,53.19-34.9,95.07-100.16,0,0,46.64-70.18,64.79-113.22,5.39-13.92,12.64-59.39,2.25-91.85,0,0-9.7-46-49.11-98.53-30.38-35.25-36.56-39.73-36.56-39.73-11.12-9.06-8.46-20.4-5.84-24.59,0,0,4.17-16,21.63-36.56,0,0,46.57-61.53,72.56-87.42,0,0,41.78-49.54,81.46-70.24,0,0,32.13-19.21,92.92-27,0,0,39.77-7.78,111.8,9.21,0,0,15.17-15,16-33.09-73.4-16.68-123.11-11.61-123.11-11.61-72.23,3.83-116.79,34.23-116.79,34.23-50.43,26.74-95.4,80.16-95.4,80.16-52.59,63.8-69.11,88.41-69.11,88.41-30,40.65-38.68,52.69-38.68,52.69-231.13,344.73-219.37,335.69-325,506.1Z" style="fill:#231f20"/></g><path d="M678.08,1124V981c0-291.14,274.75-322.22,274.75-322.22" style="fill:none;stroke:#231f20;stroke-linecap:round;stroke-linejoin:round;stroke-width:24px"/><polyline points="802.37 986.32 678.08 1132.8 553.8 986.32" style="fill:none;stroke:#231f20;stroke-linecap:round;stroke-linejoin:round;stroke-width:24px"/></g></svg>