<svg id="Layer_1" data-name="Layer 1" xmlns="http://www.w3.org/2000/svg" viewBox="0 0 1509.99 2000"><path d="M1366.89,832.59c147.66-250.32,187.85-622.79-114.7-801.26-71.26-42-280.5,163-457.8,463.55l-.5.84c-177.3,300.56-255.53,582.86-184.26,624.9,302.55,178.47,609.11-36.87,756.77-287.19Z" style="fill:#fff;stroke:#33302d;stroke-miterlimit:10;stroke-width:12px"/><path d="M1279.48,703.4q11.68,6.9,3.88,20.14l-44,74.58q-7.95,13.46-19.64,6.56-11.25-6.64-3.31-20.1l13.54-23-100.62-59.35.52,28.86a13.21,13.21,0,0,1-1.48,6.56,11.3,11.3,0,0,1-8.6,5.49,15.94,15.94,0,0,1-10.71-2q-6.39-3.76-6.54-11.59l-1-46.7q-.07-9,3.45-14.92c2.42-4.11,5.63-6.68,9.6-7.71s8.17-.24,12.59,2.36l119.59,70.55L1260.41,710Q1268.22,696.77,1279.48,703.4Z" style="fill:#33302d"/><path d="M1227.27,64.1c34.15,20.15-49.67,277.88-215.49,559l-.53.89c-165.82,281.11-350.84,479.13-385,459" style="fill:none;stroke:#33302d;stroke-linecap:round;stroke-miterlimit:10;stroke-width:12px"/><path d="M912.63,1598.71c0-23.73-5.82-50.23-21.6-72.19-31.78-44.24-91.06-65-153-53.6l-9.49,1.74V1396c0-62.2-130-112.62-290.32-112.62S147.87,1333.75,147.87,1396v477.48c0,62.19,130,112.61,290.32,112.61s290.32-50.42,290.32-112.61v-52.72C775.69,1801.73,912.63,1734.44,912.63,1598.71ZM728.51,1739.35V1547.74a178.4,178.4,0,0,1,28.08-7.76c33.09-6.66,71.55,5.88,84.74,22.26,12.47,15.49,14.35,33.22,14.35,43.76C855.68,1676.16,776.59,1721.51,728.51,1739.35Z" style="fill:#fff;stroke:#33302d;stroke-miterlimit:10;stroke-width:12px"/><path d="M185.24,1393c29.24,43.6,131.4,75.78,253,75.78s223.72-32.18,253-75.78" style="fill:none;stroke:#33302d;stroke-linecap:round;stroke-miterlimit:10;stroke-width:12px"/><path d="M748.07,828.48c-108.44-21.66-325.45,33.15-325.45,278.89v91.07" style="fill:none;stroke:#33302d;stroke-linecap:round;stroke-miterlimit:10;stroke-width:24px"/><polyline points="490.17 1143.88 422.62 1211.44 355.06 1143.88" style="fill:none;stroke:#33302d;stroke-linecap:round;stroke-miterlimit:10;stroke-width:24px"/><g id="layer2"><path id="path839" d="M923.49,607.1c26.29-55.86-25.1-136.65-87.92-165.13s-223.85-15-223.85-15L53.44,164.23A30.24,30.24,0,0,0,27.69,219L586,481.73c47,57.16,88.78,131.7,154.28,162.74C814.93,679.84,897.2,663,923.49,607.1Z" style="fill:#33302d"/></g></svg>