<svg xmlns="http://www.w3.org/2000/svg" xmlns:xlink="http://www.w3.org/1999/xlink" height="1559.95" width="1924" xmlns:v="https://vecta.io/nano"><path d="M181.9 1435.9c12.18-82.2 67.37-409.46 360.38-495.65l-84.3 113.2c-127.2 71.14-151.36 337.06-141.75 382.46" fill="#fff"/><path d="M458 1053.43c-127.2 71.14-151.36 337.06-141.75 382.46m-134.35.01c12.18-82.2 67.37-409.46 360.38-495.65" fill="none" stroke="#231f20" stroke-width="24" stroke-linecap="round" stroke-linejoin="round"/><path d="M563 737.35l-134.18 348.2c110.26 55 266.9 7.4 307.9-99.52 35.93-93.7-7.6-200.12-98.26-255.5A1263.77 1263.77 0 0 1 516 644.68l-353.3-277.4a14.12 14.12 0 0 1-1.67-1.61 23.1 23.1 0 0 0-2.62-2.52c-19.3-15.8-50.3-51.8-37.7-79 15.94-34.5 61.7-17.54 84.95-1.63 11 7.45 23.36 17.3 35.85 12.87s15.9-21.73 9.87-33.66-18.08-19-29.9-24.8c-30-14.53-67.85-27.23-100.44-14.14a74.51 74.51 0 0 0-30.95 23.79h0a83 83 0 0 0-16.75 56.27c2.43 35.47 24.66 68.7 50.73 91.75a13.52 13.52 0 0 1 1.37 1.46 18.8 18.8 0 0 0 2.11 2.17z" fill="#231f20"/><path d="M1238.75 700.48c301 0 654.5-160.17 654.5-524 0-85.7-293-164.48-654.5-164.48h-1c-361.47 0-654.5 78.78-654.5 164.48 0 363.86 353.46 524 654.5 524" fill="#fff" stroke="#231f20" stroke-width="24" stroke-miterlimit="10"/><path d="M1234.8 555.6V437.7q-32.9 25.26-44.32 25.26a13.08 13.08 0 0 1-9.65-4.34 14 14 0 0 1-4.21-10q0-6.6 4.15-9.72 4.15-3.12 14.64-8 15.67-7.38 25.07-15.55a106.15 106.15 0 0 0 16.65-18.27q7.24-10.1 9.46-12.43c1.46-1.56 4.23-2.34 8.3-2.34a13.24 13.24 0 0 1 11 5.32q4.15 5.3 4.15 14.64v148.28q0 26-17.75 26a16.28 16.28 0 0 1-12.7-5.32q-4.8-5.26-4.78-15.63z" fill="#231f20"/><g stroke="#231f20" stroke-miterlimit="10"><path d="M1850.9 171.47c0 41.07-274.05 101.92-612.1 101.92h-1.08c-338.06 0-612.1-60.85-612.1-101.92" fill="none" stroke-width="24" stroke-linecap="round"/><g stroke-width="8.04"><use xlink:href="#B" fill="#fff"/><path d="M236.5 1345.32v184.92m58.24-184.92l-21.32 184.92m79.55-184.92l-42.64 184.92m-132.05-184.92l21.32 184.92m-79.55-184.92l42.64 184.92" fill="none"/><use xlink:href="#B" x="481.1" fill="#fff"/><path d="M717.6 1345.32v184.92m58.24-184.92l-21.32 184.92m79.55-184.92l-42.64 184.92m-132.05-184.92l21.32 184.92m-79.55-184.92l42.64 184.92" fill="none"/><path d="M1309.44 1530.24l63.96-184.92-29.1-21.48-29.12 21.48-29.1-21.48-29.12 21.48-29.1-21.48-29.12 21.48-29.12-21.48-29.1 21.48-29.12-21.48-29.1 21.48-29.12-21.48-29.1 21.48 63.96 184.92z" fill="#fff"/><path d="M1198.7 1345.32v184.92m58.24-184.92l-21.32 184.92m79.55-184.92l-42.64 184.92m-132.05-184.92l21.32 184.92m-79.55-184.92l42.64 184.92" fill="none"/><path d="M1790.54 1530.24l63.96-184.92-29.1-21.48-29.12 21.48-29.12-21.48-29.1 21.48-29.12-21.48-29.1 21.48-29.12-21.48-29.1 21.48-29.12-21.48-29.1 21.48-29.12-21.48-29.1 21.48 63.96 184.92z" fill="#fff"/><path d="M1679.8 1345.32v184.92m58.24-184.92l-21.32 184.92m79.55-184.92l-42.64 184.92m-132.05-184.92l21.32 184.92m-79.55-184.92l42.64 184.92" fill="none"/></g><g fill="#fff" stroke-width="24"><path d="M12 1406.38h1900" stroke-linecap="round" opacity="1"/><path d="M562.15 1406.38h310.92l-30.4 141.57H592.55zm-481.1 0H392l-30.4 141.57H111.45zm962.2 0h310.92l-30.4 141.57h-250.12zm481.1 0h310.92l-30.4 141.57h-250.12z" opacity="1"/></g></g><defs ><path id="B" d="M347.24 1530.24l63.96-184.92-29.1-21.48-29.12 21.48-29.1-21.48-29.12 21.48-29.1-21.48-29.12 21.48-29.1-21.48-29.12 21.48-29.12-21.48-29.1 21.48-29.12-21.48-29.1 21.48 63.96 184.92z"/></defs></svg>