<svg id="Layer_1" data-name="Layer 1" xmlns="http://www.w3.org/2000/svg" width="2000" height="2000" viewBox="0 0 2000 2000">
  <g>
    <g>
      <path d="M1817.24,628.17c85.18-161.06,84.7-274.95,49.64-348.35-30.34-63.52-199.61-221-199.61-221-82-43.39-239.24,92.9-351.1,304.42s-136,418.15-54,461.54c0,0,225.48,51.24,295.06,40.55C1637.66,852.94,1732.07,789.23,1817.24,628.17Z" style="fill: #fff;stroke: #3a3632;stroke-miterlimit: 10;stroke-width: 20px"/>
      <ellipse cx="1461.81" cy="440.21" rx="379.79" ry="126.64" transform="translate(389.28 1526.65) rotate(-62.13)" style="fill: #f1f1f2;stroke: #3a3632;stroke-miterlimit: 10;stroke-width: 20px"/>
    </g>
    <g>
      <path d="M914.4,1949.28c369,0,802.25-196.33,802.25-642.33,0-105-359.18-201.61-802.25-201.61h-1.24c-443.07,0-802.25,96.56-802.25,201.61,0,446,433.25,642.33,802.25,642.33Z" style="fill: #fff;stroke: #3a3632;stroke-miterlimit: 10;stroke-width: 20px"/>
      <path d="M980.92,1689.52q10.89,14.48,10.89,35.94,0,29.6-21.79,47.16t-58.87,17.56a127.89,127.89,0,0,1-40.66-6.5q-19.51-6.51-33.17-18.22-7.49-6.49-7.48-15.28a18.82,18.82,0,0,1,4.06-12.2q4.07-5,9.6-5a14.47,14.47,0,0,1,5.85,1.14c1.73.76,4.12,2,7.16,3.74a139.7,139.7,0,0,0,26,14,72.94,72.94,0,0,0,27,4.88q21.48,0,31.88-8.62t10.41-26.18q0-17.24-10.9-25.53t-33.66-8.3H888.71c-5,0-8.84-1.67-11.55-5a18.69,18.69,0,0,1,0-23.26q4.07-4.87,11.55-4.87h13q44.55,0,44.56-33.51,0-15.61-9.43-24.07t-26-8.45q-23.76,0-50.75,18.86a77.29,77.29,0,0,1-7.15,3.74,14.32,14.32,0,0,1-5.86,1.14q-5.54,0-9.59-5a18.83,18.83,0,0,1-4.07-12.2,17.72,17.72,0,0,1,1.79-8.29,26.31,26.31,0,0,1,5.69-7A104.63,104.63,0,0,1,873.58,1562a116.88,116.88,0,0,1,38.87-6.66q33.82,0,53.83,16.58t20,44.24q-.33,18.87-9.93,33t-26.83,20.66Q970,1675,980.92,1689.52Z" style="fill: #3a3632"/>
      <path d="M1664.74,1300.84c0,50.35-335.92,124.94-750.3,124.94h-1.32c-414.37,0-750.29-74.59-750.29-124.94" style="fill: none;stroke: #3a3632;stroke-linecap: round;stroke-miterlimit: 10;stroke-width: 20px"/>
    </g>
    <g>
      <path d="M902.2,1042.22V916.15c0-256.63,242.18-284,242.18-284" style="fill: none;stroke: #221f1f;stroke-linecap: round;stroke-linejoin: round;stroke-width: 24px"/>
      <polyline points="1011.76 920.84 902.2 1049.96 792.65 920.84" style="fill: none;stroke: #221f1f;stroke-linecap: round;stroke-linejoin: round;stroke-width: 24px"/>
    </g>
  </g>
</svg>
