<svg xmlns="http://www.w3.org/2000/svg" height="1924" width="1266.89"  xmlns:v="https://vecta.io/nano"><g stroke="#231f20" stroke-width="24"><g stroke-miterlimit="10"><path d="M977.64 1422.92c0-30-7.34-63.43-27.26-91.15-40.13-55.86-115-82-193.24-67.68l-12 2.2v-99.4c0-78.53-164.12-142.2-366.58-142.2S12 1088.34 12 1166.9v602.92c0 78.53 164.12 142.2 366.58 142.2s366.58-63.66 366.58-142.2v-66.57c59.57-23.97 232.48-108.9 232.48-280.32zm-232.48 177.6v-242a224.62 224.62 0 0 1 35.45-9.79c41.8-8.4 90.36 7.42 107 28.1 15.76 19.57 18.12 42 18.12 55.25 0 88.64-99.84 145.9-160.57 168.44z" fill="#fff"/><path d="M59.18 1163.17c36.92 55.05 165.92 95.7 319.4 95.7s282.48-40.64 319.4-95.7" fill="none" stroke-linecap="round"/></g><path d="M241.7 1226.06S225.64 803.68 640.13 691.9L533.48 810.7c-200.93 120.26-132 428.06-132 428.06" fill="#fff" stroke-linecap="round" stroke-linejoin="round"/></g><path d="M985.13 134.24c-35.3 32.34-62.32 66.45-95.12 114.7l-151 229-236.36 369.2c68.6 23 111.1 20.4 150.4 14.36 50.1-7.7 86.44-55.67 115-99.3s46.22-78.8 48.5-105c2.28-26-12.3-74.22-19.7-96.44s-19.08-42-9.7-56.36l135.4-232.17c44.9-63.73 61.14-80.52 97.12-113.2 99.47-90.38 139.7-77.34 205.36-96.3L1254.9 12c-132.4 33.1-169.26 30.15-269.76 122.24z" fill="#231f20"/></svg>