<svg id="Layer_1" data-name="Layer 1" xmlns="http://www.w3.org/2000/svg" viewBox="0 0 2000 2000"><g id="layer3"><g id="g877"><path id="rect869" d="M1001.92,1186l406.75,41.42L781.76,1465.07,205.7,1393.61Z" style="fill:#fff;stroke:#3a3632;stroke-linejoin:round;stroke-width:20px"/><path id="path864" d="M228.16,1393.86l30.91,435.83,514.65,124.15,7.94-488.4Z" style="fill:#fff;stroke:#3a3632;stroke-linejoin:round;stroke-width:20px"/><path id="rect866" d="M781.66,1465.44l599.77-234.81-38.2,400.58L773.72,1953.84Z" style="fill:#fff;stroke:#3a3632;stroke-linejoin:round;stroke-width:20px"/></g></g><path d="M1782.36,828.4C1923.11,589.8,1961.41,234.76,1673,64.64,1605.09,24.57,1405.65,220,1236.65,506.49l-.48.8c-169,286.5-243.57,555.59-175.64,595.66,288.39,170.12,580.6-35.14,721.36-273.75Z" style="fill:#fff;stroke:#3a3632;stroke-miterlimit:10;stroke-width:20px"/><path d="M1698.6,706q11.14,6.59,3.7,19.2l-47.14,79.92q-3.23,5.48-8.35,6.7a13,13,0,0,1-10-1.62,18.6,18.6,0,0,1-8.5-11.54l-23.24-78.35q-4.47-14.53-10.14-23.42a41,41,0,0,0-13.67-13.59q-9.88-5.84-18.5-3.25T1548,693.13a51.51,51.51,0,0,0-6.6,18.64,97.16,97.16,0,0,0-.68,21.57,30.14,30.14,0,0,1-.06,5.64,11.82,11.82,0,0,1-1.54,4.76q-2.1,3.59-7,4.22a14.54,14.54,0,0,1-9.54-2.08,13.94,13.94,0,0,1-4.79-4.39,16.17,16.17,0,0,1-2.25-6.28,84.73,84.73,0,0,1,1.11-28.55A87.37,87.37,0,0,1,1527,679.3q12.78-21.66,31.34-28.15t37.08,4.44a63.1,63.1,0,0,1,20.86,19.67q8,12.11,14.21,33.34l17.24,59.21,32.75-55.53Q1687.87,699.67,1698.6,706Z" style="fill:#3a3632"/><path d="M1649.27,95.88c32.55,19.2-47.35,264.87-205.41,532.81l-.5.86c-158.06,267.94-334.42,456.7-367,437.5" style="fill:none;stroke:#3a3632;stroke-linecap:round;stroke-miterlimit:10;stroke-width:20px"/><path d="M799.43,468,188.58,259.9c-43.5-16.72-69.2-56.15-52.48-99.65h0c16.73-43.5,62.22-55.56,105.72-38.83l592.93,254.7" style="fill:#3a3632"/><path d="M940.76,254.15h241.51a27.8,27.8,0,0,1,27.8,27.8V758.51a19.36,19.36,0,0,1-19.36,19.36h-168.5A109.26,109.26,0,0,1,913,668.62V282a27.8,27.8,0,0,1,27.8-27.8Z" transform="translate(198.96 1321.67) rotate(-68.97)" style="fill:#fff;stroke:#3a3632;stroke-linecap:round;stroke-linejoin:round;stroke-width:20px"/><path d="M954.69,544.8l158.53,61a90.84,90.84,0,0,0,117.39-52.19l13.11-34.12" style="fill:#fff;stroke:#3a3632;stroke-linecap:round;stroke-linejoin:round;stroke-width:20px"/><path d="M1151.19,964.19c-108.44-21.66-325.45,33.15-325.45,278.89v91.06" style="fill:none;stroke:#3a3632;stroke-linecap:round;stroke-linejoin:round;stroke-width:20px"/><polyline points="893.29 1279.59 825.74 1347.14 758.19 1279.59" style="fill:none;stroke:#231f20;stroke-linecap:round;stroke-linejoin:round;stroke-width:20px"/></svg>