<svg xmlns="http://www.w3.org/2000/svg" xmlns:xlink="http://www.w3.org/1999/xlink" height="1923.986" width="1695.616" xmlns:v="https://vecta.io/nano"><style><![CDATA[.B{stroke:#231f20}.C{stroke-width:24}.D{stroke-miterlimit:10}.E{stroke-linecap:round}]]></style><use xlink:href="#B" fill="#fff" class="B C D"/><path d="M1491.695 576.636l25.12-42.58q3.75-6.36 8.33-8.17a9.91 9.91 0 0 1 9.07.84 11 11 0 0 1 5.21 6.65q1.2 4.3-2 9.67l-35.4 60q-3.6 6.12-9 7.55a12.56 12.56 0 0 1-10-1.27q-2.94-1.72-6.5-6.8a32.16 32.16 0 0 1-4.79-9.31q-4.86-17.48-7.74-31-2.88-13.52-3.2-18.7a82.8 82.8 0 0 0-2.94-16.74 43.91 43.91 0 0 0-5.79-12.55 27 27 0 0 0-8.37-8.08 20.57 20.57 0 0 0-10.81-3 20.06 20.06 0 0 0-10.39 3 22.6 22.6 0 0 0-7.79 8q-6.32 10.7-.54 22.34a47.62 47.62 0 0 0 5.08 6.68 32.39 32.39 0 0 1 5.85 9.28q1.5 4.14-1.22 8.8a10.7 10.7 0 0 1-6.69 5.18 11.54 11.54 0 0 1-8.93-1.64 35.61 35.61 0 0 1-10.25-9.46 39.1 39.1 0 0 1-6.65-14.09 43.29 43.29 0 0 1-.52-17.46 56.49 56.49 0 0 1 7.6-19.87q7.35-12.48 16.47-19a37.22 37.22 0 0 1 13.09-5.8 39.13 39.13 0 0 1 28.4 4.43 40.47 40.47 0 0 1 15.43 15.87 66.1 66.1 0 0 1 6.93 17.89q1.6 8 4.4 26.18 2.8 18.18 5.65 26a53.38 53.38 0 0 0 2.89 7.18z" fill="#231f20"/><g class="B C D"><use xlink:href="#C" fill="none" class="E"/><use xlink:href="#B" fill="#fff"/></g><path d="M1505.595 571.526l-74.23-43.8q3.7 30.1-.55 37.28a9.55 9.55 0 0 1-6.32 4.47 10.23 10.23 0 0 1-7.88-1.08q-4.15-2.46-4.58-6.22a67.23 67.23 0 0 1 .38-12.2 80 80 0 0 0-.48-21.56 77.83 77.83 0 0 0-5.31-17.26q-3.67-8.32-4.32-10.58-.65-2.26 1.6-6.08a9.7 9.7 0 0 1 7.43-5q4.9-.64 10.76 2.82l93.4 55.1q16.4 9.66 9.8 20.84a11.89 11.89 0 0 1-8.06 6q-5.13 1.1-11.65-2.74z" fill="#231f20"/><use xlink:href="#C" fill="none" class="B C D E"/><g fill="#fff"><path d="M898.055 1095.916c-3.7-86.86 40.16-265.22 165.14-303.08 0 0 29-25.17 23.35-24.5-263.5 31.33-308.4 234.93-314.85 317.5"/><path d="M821.485 797.356l26.46 12.78a4.76 4.76 0 0 0 6.62-5.78l-8.68-26.06a4.8 4.8 0 0 0-7.45-2.34l-17.74 13.26a4.86 4.86 0 0 0 .83 8.14zm38.32-20a5.72 5.72 0 0 0 10.47 1.1l15.72-28.8a5.71 5.71 0 0 0-4-8.41l-26-4.82a5.67 5.67 0 0 0-6.48 7.3zm7.72 18.77l-4.28 19a3.23 3.23 0 0 0 4.83 3.44l15.57-9.5a3.17 3.17 0 0 0 .42-5.1l-11.17-9.5a3.27 3.27 0 0 0-5.37 1.68z"/></g><g class="B C"><path d="M771.395 1088.776c5.1-83.28 46.3-305.27 328.56-329.9m-36.76 40.2c-121.42 36.78-166.28 201.27-165.34 289.4" fill="none" class="D E"/><path d="M1234.455 1155.626l190.24 21.14c74.37 8.26 74.88 122.3 8.13 146.36l-198.4 71.56zm-975.15 0l-190.27 21.14c-74.37 8.26-74.88 122.3-8.13 146.36l198.4 71.56zm975.15-146.57v762.64a140 140 0 0 1-140.29 140.29h-694.57a140 140 0 0 1-140.29-140.29v-762.64z" fill="#fff" stroke-linejoin="round"/></g><defs ><path id="B" d="M1598.325 622.756c111.8-189.52 142.22-471.5-86.84-606.62-54-31.83-212.37 123.4-346.6 351l-.37.63c-134.24 227.56-193.46 441.3-139.5 473.1 229.06 135.12 461.15-27.9 573-217.42"/><path id="C" d="M1492.625 40.936c25.85 15.25-37.6 210.38-163.15 423.2l-.4.67c-125.54 212.83-265.62 362.75-291.48 347.5"/></defs></svg>