<svg xmlns="http://www.w3.org/2000/svg" height="1535.93" width="1923.981"  xmlns:v="https://vecta.io/nano"><path d="M554.76 1173.1l-3.74 5.5h-.14l-.27-.1-.55-.2-1.1-.4-2.2-.78-4.4-1.55-8.8-3-17.5-6.06-34.9-11.6c-23.2-7.62-46.53-14.46-69.66-21.37q-17.4-5.12-34.88-9.75l-34.8-9.46-68.94-17.1-71.6-16.84c-24-5.26-48.2-9.76-71.9-15.72s-46.75-13.86-68.77-24.8c-11.08-5.26-21.84-11.47-32.55-17.88-5.55-2.6-10.15-8.06-13-18.75a81.86 81.86 0 0 1-1.87-8.82l-1.12-11v-.33a81.28 81.28 0 0 1 18.42-55l.16-.2 7.57-8.15a78.11 78.11 0 0 1 6.83-5.91c8.75-6.83 15.76-8.4 21.8-7.14 12.5 1.34 24.94 2.88 37.06 5.36 24.38 4.55 47.74 12.13 70.43 21.66s44.87 20.52 67.3 30.75l67.62 29.63c23.8 11.32 45.82 23.5 67.7 36.4l32.56 19.65c10.75 6.73 21.28 13.84 31.76 21 21 14.14 41.3 29.48 61 45.4 9.78 8.06 19.5 16.14 28.83 24.74 4.7 4.23 9.3 8.58 13.88 13l6.73 6.72 3.34 3.37 1.67 1.68.83.84.42.42.2.2.1.1c-1.6 2.33 3.64-5.67-3.52 5.46z" fill="#231f20"/><g stroke="#231f20" stroke-width="24" stroke-miterlimit="10"><path d="M1127.18 1024.6h1.33c430.65 0 779.77 68.46 779.77 170.57-19.3 79.1-74.5 190.15-141.14 241-53.43 36.58-363.6 87.75-638.6 87.75h-3.9c-275 0-585.17-51.17-638.6-87.75-66.64-50.88-121.85-161.93-141.14-241 0-102.1 349.12-170.57 779.78-170.57h1.2" fill="#fff"/><path d="M1855.22 1189.24c0 48.93-326.5 121.44-729.28 121.44h-1.28c-402.77 0-729.28-72.5-729.28-121.44" fill="none" stroke-linecap="round"/></g><g fill="#231f20"><circle r="15.45" cy="1148.29" cx="577.971"/><circle r="15.45" cy="1185.37" cx="480.481"/></g><path d="M807.69 1208.45s8.57-447.4 438-537.73l-115.65 115.14c-212 111.23-159.22 429.32-159.22 429.32" fill="#fff" stroke="#231f20" stroke-width="24" stroke-linecap="round" stroke-linejoin="round"/><path d="M1629.72 121.33c-37.87 31-67.4 64.26-103.65 111.62l-167.2 225.07-262.37 363.26c68.7 27.35 112.2 27.2 152.66 23.27 51.6-5 91.4-51.86 123.05-94.77s51.68-77.8 55.52-104.36c3.82-26.36-8.3-76.45-14.6-99.55s-17.06-44-6.66-58.08l151.48-229.2c49.46-62.46 67-78.68 105.6-110 106.7-86.54 147-70.93 215.1-86.53L1911.98 12c-136.96 26.23-174.4 21.1-282.26 109.33z" fill="#231f20"/></svg>