<svg xmlns="http://www.w3.org/2000/svg" viewBox="0 0 2000 2000"><g id="Layer_1" data-name="Layer 1"><path d="M1157.63,1598.71c0-23.73-5.81-50.23-21.59-72.19-31.78-44.24-91.07-65-153-53.6l-9.49,1.74V1396c0-62.2-130-112.62-290.32-112.62S392.88,1333.75,392.88,1396v477.48c0,62.19,130,112.61,290.32,112.61s290.32-50.42,290.32-112.61v-52.72C1020.69,1801.73,1157.63,1734.44,1157.63,1598.71ZM973.52,1739.35V1547.74a178.54,178.54,0,0,1,28.07-7.76c33.09-6.66,71.56,5.88,84.74,22.26,12.48,15.49,14.35,33.22,14.35,43.76C1100.68,1676.16,1021.6,1721.51,973.52,1739.35Z" style="fill:#fff;stroke:#33302d;stroke-miterlimit:10;stroke-width:12px"/><path d="M430.24,1393c29.24,43.6,131.41,75.78,253,75.78S906.91,1436.6,936.15,1393" style="fill:none;stroke:#33302d;stroke-linecap:round;stroke-miterlimit:10;stroke-width:12px"/><path d="M1811.67,241,857.46,1305c-30,33.49-74.15,28.31-97.78-10.39l-134.3-219.92c-18.72-30.65-12.7-78,13-106.61L1453,59.72c25.65-28.6,72.09-39.72,104.58-24.44l233.19,109.65C1831.76,164.23,1841.71,207.51,1811.67,241Z" style="fill:#fff;stroke:#33302d;stroke-miterlimit:10;stroke-width:12px"/><path d="M1676.76,205.44c-14.11,15.73-40.38,20.51-58.42,10.81l-106.7-57.38c-16.13-8.67-18.42-27.41-5.35-42s36.85-19.78,53.33-11.51l109.09,54.72C1687.15,169.34,1690.87,189.7,1676.76,205.44Z" style="fill:#fff;stroke:#33302d;stroke-miterlimit:10;stroke-width:12px"/></g><g id="Isolation_Mode" data-name="Isolation Mode"><path d="M1055.34,672.45l61,37.87s-18.08,65.53-39.9,80.52a93.17,93.17,0,0,1-45.34,15.62l-49.25-51.52,39.93-66.81Z" style="fill:#fff2df;stroke:#33302d;stroke-linecap:round;stroke-linejoin:round;stroke-width:12px"/><polyline points="1059 762.5 1031.35 736.48 1049.32 703.54" style="fill:#fff2df;stroke:#33302d;stroke-linecap:round;stroke-linejoin:round;stroke-width:12px"/><line x1="1031.35" y1="736.48" x2="1001.45" y2="750.04" style="fill:#fff2df;stroke:#33302d;stroke-linecap:round;stroke-linejoin:round;stroke-width:12px"/><polygon points="918.88 823.69 988.49 883.2 932.16 955.81 895.09 970.51 834.65 907.63 881.81 838.4 918.88 823.69" style="fill:#fff2df;stroke:#33302d;stroke-linecap:round;stroke-linejoin:round;stroke-width:12px"/><polyline points="912.28 920.99 893.18 894.18 907.19 868.51" style="fill:#fff2df;stroke:#33302d;stroke-linecap:round;stroke-linejoin:round;stroke-width:12px"/><line x1="893.18" y1="894.18" x2="867.62" y2="902.63" style="fill:#fff2df;stroke:#33302d;stroke-linecap:round;stroke-linejoin:round;stroke-width:12px"/><path d="M1018.65,784.9l73.3,45.51s-21.74,78.76-48,96.78A111.88,111.88,0,0,1,989.49,946l-59.2-61.91,48-80.31Z" style="fill:#fff2df;stroke:#33302d;stroke-linecap:round;stroke-linejoin:round;stroke-width:12px"/><polyline points="1023.05 893.13 989.82 861.86 1011.41 822.26" style="fill:#fff2df;stroke:#33302d;stroke-linecap:round;stroke-linejoin:round;stroke-width:12px"/><line x1="989.82" y1="861.86" x2="953.87" y2="878.15" style="fill:#fff2df;stroke:#33302d;stroke-linecap:round;stroke-linejoin:round;stroke-width:12px"/><path d="M1155.3,628.53s37,35.47,7.36,84.36c-15.85,26.18-28.2,28.84-28.2,28.84L1088,714.39l17.34-46.65Z" style="fill:#fff2df;stroke:#33302d;stroke-linecap:round;stroke-linejoin:round;stroke-width:12px"/><line x1="1105.13" y1="704.69" x2="1147.74" y2="648.31" style="fill:#fff2df;stroke:#33302d;stroke-linecap:round;stroke-linejoin:round;stroke-width:12px"/><path d="M1191.94,688.19s40.38,60-15.11,118.57c-29.71,31.36-47.54,31.34-47.54,31.34l-55.85-51.62,37.87-59.15Z" style="fill:#fff2df;stroke:#33302d;stroke-linecap:round;stroke-linejoin:round;stroke-width:12px"/><line x1="1099.93" y1="778.22" x2="1175.58" y2="713.21" style="fill:#fff2df;stroke:#33302d;stroke-linecap:round;stroke-linejoin:round;stroke-width:12px"/><path d="M747,1013.75l61,37.87s-18.08,65.53-39.9,80.52a93,93,0,0,1-45.34,15.62l-49.26-51.51,39.94-66.82Z" style="fill:#fff2df;stroke:#33302d;stroke-linecap:round;stroke-linejoin:round;stroke-width:12px"/><polyline points="750.66 1103.8 723.01 1077.78 740.98 1044.84" style="fill:#fff2df;stroke:#33302d;stroke-linecap:round;stroke-linejoin:round;stroke-width:12px"/><line x1="723.01" y1="1077.78" x2="693.1" y2="1091.34" style="fill:#fff2df;stroke:#33302d;stroke-linecap:round;stroke-linejoin:round;stroke-width:12px"/><polygon points="636.38 1275.07 705.99 1334.58 649.66 1407.19 612.59 1421.89 552.14 1359.01 599.3 1289.78 636.38 1275.07" style="fill:#fff2df;stroke:#33302d;stroke-linecap:round;stroke-linejoin:round;stroke-width:12px"/><polyline points="629.78 1372.37 610.68 1345.56 624.68 1319.89" style="fill:#fff2df;stroke:#33302d;stroke-linecap:round;stroke-linejoin:round;stroke-width:12px"/><line x1="610.68" y1="1345.56" x2="585.12" y2="1354.01" style="fill:#fff2df;stroke:#33302d;stroke-linecap:round;stroke-linejoin:round;stroke-width:12px"/><path d="M773.05,1160.61l73.29,45.51s-21.73,78.77-48,96.78a111.93,111.93,0,0,1-54.49,18.78l-59.2-61.92,48-80.31Z" style="fill:#fff2df;stroke:#33302d;stroke-linecap:round;stroke-linejoin:round;stroke-width:12px"/><polyline points="777.44 1268.84 744.21 1237.57 765.81 1197.98" style="fill:#fff2df;stroke:#33302d;stroke-linecap:round;stroke-linejoin:round;stroke-width:12px"/><line x1="744.21" y1="1237.57" x2="708.27" y2="1253.87" style="fill:#fff2df;stroke:#33302d;stroke-linecap:round;stroke-linejoin:round;stroke-width:12px"/><path d="M858.86,922.81s37,35.48,7.35,84.36C850.36,1033.35,838,1036,838,1036l-46.43-27.33L808.92,962Z" style="fill:#fff2df;stroke:#33302d;stroke-linecap:round;stroke-linejoin:round;stroke-width:12px"/><line x1="808.68" y1="998.97" x2="851.29" y2="942.59" style="fill:#fff2df;stroke:#33302d;stroke-linecap:round;stroke-linejoin:round;stroke-width:12px"/><path d="M927.78,1028.85s40.39,60-15.11,118.57c-29.71,31.36-47.53,31.34-47.53,31.34l-55.86-51.62L847.16,1068Z" style="fill:#fff2df;stroke:#33302d;stroke-linecap:round;stroke-linejoin:round;stroke-width:12px"/><line x1="835.77" y1="1118.88" x2="911.42" y2="1053.87" style="fill:#fff2df;stroke:#33302d;stroke-linecap:round;stroke-linejoin:round;stroke-width:12px"/></g></svg>