<svg xmlns="http://www.w3.org/2000/svg" height="1923.986" width="1748.126"  xmlns:v="https://vecta.io/nano"><style><![CDATA[.B{fill:#f9f1c0}.C{stroke:#000}.D{stroke-width:8}.E{stroke-linejoin:round}.F{stroke-linecap:round}.G{stroke-miterlimit:10}]]></style><path d="M743.77 1911.986c336.06 0 730.64-178.8 730.64-585 0-95.67-327.12-183.62-730.64-183.62h-1.13c-403.52 0-730.64 87.95-730.64 183.62 0 406.18 394.58 585 730.64 585" fill="#fff" stroke="#231f20" stroke-width="24" class="G"/><path d="M739.34 1750.226v-131.63q-36.75 28.22-49.47 28.2a14.61 14.61 0 0 1-10.78-4.85 15.62 15.62 0 0 1-4.7-11.21q0-7.37 4.63-10.85 4.63-3.48 16.35-9 17.5-8.25 28-17.36a118.34 118.34 0 0 0 18.59-20.39q8.1-11.3 10.56-13.9c1.64-1.74 4.72-2.6 9.26-2.6a14.8 14.8 0 0 1 12.29 5.93q4.63 5.92 4.63 16.34v165.66q0 29.07-19.82 29.07-8.82 0-14.17-5.93-5.35-5.93-5.37-17.5z" fill="#231f20"/><g stroke="#231f20" stroke-width="24" class="G"><path d="M1427.13 1321.436c0 45.84-305.93 113.78-683.32 113.78h-1.2c-377.4 0-683.33-67.94-683.33-113.78" fill="none" class="F"/><g fill="#fff"><path d="M1245.24 865.276c-175.22 129.27-449.74 187.83-606-24-60.2-81.6 61.54-273.6 271.94-428.83s429.76-214.9 490-133.3c156.24 211.83 19.28 456.83-155.94 586.12z"/><path d="M1399.03 276.296c51.76 70.16-76.84 252.87-287.24 408.1s-422.92 224.2-474.68 154"/></g><path d="M1358.34 247.396l307.37-226.78a44.18 44.18 0 0 1 61.79 9.37h0a44.19 44.19 0 0 1-9.33 61.79l-307.38 226.74" fill="none"/></g><g transform="rotate(323.58)" fill="#939598"><ellipse ry="12.92" rx="12.97" cy="1270.903" cx="488.332"/><ellipse ry="12.92" rx="12.97" cy="1322.375" cx="488.336"/><ellipse ry="12.92" rx="12.97" cy="1373.845" cx="488.334"/></g><path d="M1260.55 759.986c7.4-.1 14.15 6.08 14.74 13.85s-5.13 13.8-12.52 13.38a15.54 15.54 0 0 1-14.38-13.85 12.18 12.18 0 0 1 12.16-13.38zm-8.35-54.08c7.24-.86 14.5 4.7 15.84 12.4s-3.64 14.3-11 14.73a15.33 15.33 0 0 1-15.52-12.44c-1.28-7.27 3.35-13.83 10.68-14.7zm-14.06-53.4c7-2 14.82 2.73 17.13 10.47s-2 15-9.18 16.18a15.07 15.07 0 0 1-16.59-10.59 12.67 12.67 0 0 1 8.64-16.06zm86.88 49.06c7 1 12.12 7.14 10.92 13.72s-7.94 10.64-15 9.05-11.67-7.67-10.53-13.64 7.47-10.14 14.6-9.13zm4.08-45.88c7.2.2 12.7 5.73 12.37 12.34s-6.73 11.4-13.82 10.75-12.4-6.17-12.08-12.32 6.4-10.98 13.53-10.77zm-1.1-46.05c7.14-.65 13.48 4.22 13.74 10.87.42 6.65-5.35 12.12-12.52 12.24s-13-4.78-13.38-10.9 5.03-11.56 12.16-12.22zm-7.66-45.37a12.1 12.1 0 0 1 15.47 8.48c1.3 6.7-3.47 13-10.54 14.12s-13.7-2.76-14.8-8.6c-1.47-5.7 2.97-11.96 9.88-14zm75.5 43.4a12.18 12.18 0 1 1-6 23.52c-6.87-2-11.1-8.7-9.38-15 1.5-6.24 8.4-10.07 15.38-8.52zm7.37-47.75a12.18 12.18 0 1 1-2.8 24.11c-7-1.15-12.1-7.23-11.24-13.54s6.86-11.05 14.04-10.57zm-.8-48.28c7.12-.85 13.67 4.18 14 11.3.57 7.1-5.33 12.9-12.48 12.93s-12.9-5-13.4-11.32c-.28-6.3 4.8-12.05 11.9-12.9zm-9.9-47.25c6.76-2.15 14.2 1.52 15.92 8.4a12.35 12.35 0 0 1-9.72 15.06c-7 1.4-13.93-2.42-15.4-8.55s2.3-12.73 9.2-14.92zm-253.18 385.12a12.19 12.19 0 0 1 16.38-7.67 15.54 15.54 0 0 1 9 17.83c-1.8 7.18-9.27 11-16.48 8s-11.23-11.13-8.9-18.16zm-49.3-23.95c3-6.74 10.62-9.23 17.2-5.9a15.32 15.32 0 0 1 7.3 18.5c-2.57 6.93-10.36 9.8-17.32 6.2s-10.14-12.13-7.18-18.8zm-46.9-29.2a12.68 12.68 0 0 1 17.9-3.52 15.09 15.09 0 0 1 5.22 19c-3.3 6.54-11.44 8.4-18.17 4s-8.9-13.34-4.95-19.48zm21.24 97.5c1.14-7.12 7-12 13-11.27s10.48 7 9.93 14.1-6.42 12.4-13.08 11.66-10.98-7.45-9.85-14.48zm-45.06-9.64c1.9-6.86 8.3-11.26 14.28-9.74s9.7 8.12 8.2 15.18-7.94 11.64-14.35 10-10.05-8.5-8.14-15.44zm-43.64-14.64c2.73-6.63 9.48-10.06 15.26-8 5.73 2.18 8.68 9.2 6.45 16s-9.15 10.72-15.38 8.36c-6.28-2.24-9.06-9.74-6.33-16.36zm-41.1-20.74c4-6 11.26-8.36 16.28-5.32 5.26 2.8 7 10.25 3.86 16.7s-10.6 9.1-16.6 5.9c-5.93-3.56-7.5-11.3-3.53-17.27zm19.17 85c.58-7.14 6.28-12.6 12.73-12.22 6.5.23 11.66 6.23 11.52 13.38a12.18 12.18 0 1 1-24.25-1.16zm-47.8-7.05c1.66-7 8-11.48 14.24-10.3s10.6 7.7 9.63 14.74a12.18 12.18 0 1 1-23.87-4.44zm-45.9-15c2.9-6.54 9.9-9.7 15.83-7.57 5.85 2.35 9 9.3 6.86 16.16s-9.42 10.74-16 8.1c-6.73-2.4-9.6-10.14-6.7-16.7zm-42.23-23.4c4.13-6 11.57-7.64 17-4.4s7 10.93 3.63 17.23a12.35 12.35 0 0 1-17.26 4.85c-6.1-3.68-7.4-11.88-3.37-17.7zm131.3-424.36a8.42 8.42 0 1 1 2-11.91 8.55 8.55 0 0 1-2 11.91zm19.9 27a8.42 8.42 0 1 1 2-11.91 8.53 8.53 0 0 1-2 11.91zm19.9 26.93a8.42 8.42 0 1 1 2-11.91 8.54 8.54 0 0 1-2 11.91zm19.9 26.98a8.42 8.42 0 1 1 2-11.91 8.54 8.54 0 0 1-2 11.91zm19.9 26.98a8.42 8.42 0 1 1 2-11.91 8.52 8.52 0 0 1-2 11.91zm19.92 26.98a8.42 8.42 0 1 1 2-11.9 8.54 8.54 0 0 1-2 11.9zm19.9 26.98a8.42 8.42 0 1 1 2-11.9 8.52 8.52 0 0 1-2 11.9zm19.9 27a8.42 8.42 0 1 1 2-11.91 8.55 8.55 0 0 1-2 11.91zm41.64-48.14c4.67-1.18 9.3 1.9 10.42 6.83 1 5.05-2.15 9.73-6.93 10.4a8.8 8.8 0 0 1-3.49-17.24zm-9.9-33.62a8.8 8.8 0 1 1-5.53 11 8.71 8.71 0 0 1 5.53-11zm-11.73-33.02a8.8 8.8 0 1 1-5.06 11.23 8.69 8.69 0 0 1 5.06-11.23zm-12.78-32.64a8.8 8.8 0 1 1-4.76 11.37 8.7 8.7 0 0 1 4.76-11.37zm-13.48-32.35a8.8 8.8 0 1 1-4.53 11.46 8.7 8.7 0 0 1 4.53-11.46zm-14-32.14a8.8 8.8 0 1 1-4.36 11.53 8.71 8.71 0 0 1 4.36-11.53zm-14.4-31.93a8.8 8.8 0 1 1-4.23 11.58 8.72 8.72 0 0 1 4.23-11.58zm-14.75-31.82a8.8 8.8 0 1 1-4.1 11.63 8.7 8.7 0 0 1 4.1-11.63zm160 173.6a8.34 8.34 0 1 1-.75 16.62c-4.7-.55-8.2-4.36-8-8.66a8.66 8.66 0 0 1 8.75-7.96zm-2.27-33.08a8.34 8.34 0 1 1 1.59 16.58 8.33 8.33 0 1 1-1.59-16.58zm-4.95-32.8a8.33 8.33 0 1 1 2.72 16.43 8.33 8.33 0 1 1-2.72-16.43zm-6.62-32.5a8.33 8.33 0 1 1 3.49 16.28 8.33 8.33 0 1 1-3.49-16.28zm-7.83-32.23a8.33 8.33 0 1 1-6.32 10.18 8.54 8.54 0 0 1 6.32-10.18zm-8.9-31.95a8.33 8.33 0 1 1-6 10.38 8.47 8.47 0 0 1 6-10.38zm-9.95-31.64a8.33 8.33 0 1 1-5.61 10.58 8.47 8.47 0 0 1 5.61-10.58zm-11.37-31.15a8.34 8.34 0 1 1 5.94 15.56 8.33 8.33 0 1 1-5.94-15.56zm125.1 133.8a8.37 8.37 0 1 1-10.51 5.74 8.48 8.48 0 0 1 10.51-5.74zm7.2-32.56a8.38 8.38 0 1 1-3.24 16.43 8.373 8.373 0 1 1 3.24-16.43zm4-33.1a8.38 8.38 0 1 1-1.55 16.67 8.71 8.71 0 0 1-7.75-9.11c.4-4.44 4.6-7.82 9.3-7.56zm-.1-33.32a8.38 8.38 0 1 1 .56 16.73c-4.77 0-8.68-3.65-8.72-8.1a8.52 8.52 0 0 1 8.16-8.63zm-4.33-33.05a8.41 8.41 0 0 1 10 6.83 8.32 8.32 0 0 1-7.29 9.69 8.72 8.72 0 0 1-9.77-6.85c-.78-4.37 2.38-8.7 7.06-9.67zm-8.65-32.2a8.37 8.37 0 1 1 4.88 16c-4.57 1.2-9.4-1.24-10.68-5.5s1.36-8.96 5.8-10.5zm-241.1 384.06a8.8 8.8 0 0 1 15.44 8.42c-2.06 4.37-7.45 6-12 3.55a8.65 8.65 0 0 1-3.44-11.97zm-29.2-19.37a8.8 8.8 0 1 1 2.28 12.18 8.76 8.76 0 0 1-2.28-12.18zm-28.1-20.95a8.8 8.8 0 1 1 1.74 12.26 8.75 8.75 0 0 1-1.74-12.26zm-27.4-21.84a8.8 8.8 0 1 1 1.41 12.26 8.75 8.75 0 0 1-1.41-12.26zm-26.94-22.43a8.8 8.8 0 1 1 1.17 12.3 8.75 8.75 0 0 1-1.17-12.3zm-26.58-22.84a8.8 8.8 0 1 1 1 12.3 8.74 8.74 0 0 1-1-12.3zm-26.28-23.2a8.8 8.8 0 1 1 .83 12.32 8.73 8.73 0 0 1-.83-12.32zm-26.04-23.44a8.8 8.8 0 1 1 .7 12.33 8.73 8.73 0 0 1-.7-12.33zm118.66 204.05a8.66 8.66 0 0 1 10.2-6c4.15 1.12 6.77 5.57 5.9 10.24a8.34 8.34 0 1 1-16.11-4.2zm-30.93-11.93a8.33 8.33 0 1 1 15.37 6.42 8.34 8.34 0 1 1-15.37-6.42zm-29.87-14.4a8.33 8.33 0 1 1 14.89 7.44 8.33 8.33 0 1 1-14.89-7.44zm-29.1-15.92a8.34 8.34 0 1 1 14.53 8.19 8.33 8.33 0 1 1-14.53-8.14zm-28.48-17a8.342 8.342 0 1 1 14.26 8.66 8.33 8.33 0 1 1-14.22-8.66zm-27.9-17.92a8.34 8.34 0 1 1 2.22 11.82 8.52 8.52 0 0 1-2.22-11.82zm-27.3-18.9a8.34 8.34 0 1 1 1.81 11.9 8.52 8.52 0 0 1-1.81-11.9zm-26.4-20a8.33 8.33 0 1 1 13.11 10.26 8.33 8.33 0 1 1-13.11-10.26zm90.87 159a8.38 8.38 0 1 1 8.14 8.94 8.52 8.52 0 0 1-8.14-8.94zm-33.2-2.74a8.37 8.37 0 1 1 16.65 1.74 8.38 8.38 0 1 1-16.65-1.76zm-32.8-5.95c1.14-4.57 5.6-7.6 10-6.66a8.73 8.73 0 0 1 6.43 10.1 8.393 8.393 0 1 1-16.43-3.44zm-31.8-9.92a8.51 8.51 0 0 1 10.66-5.25c4.23 1.35 6.54 6.15 5.16 10.72a8.38 8.38 0 1 1-15.82-5.47zm-30.3-13.9c2.3-4.18 7.38-5.93 11.32-3.9a8.73 8.73 0 0 1 3.67 11.39 8.32 8.32 0 0 1-11.42 4.1 8.41 8.41 0 0 1-3.57-11.6zm-28.2-17.76c2.78-3.8 8.08-4.94 11.76-2.44s4.6 7.82 2.1 11.83a8.38 8.38 0 1 1-13.87-9.39z" fill="#939598"/><path d="M539.57 1043.426a29.82 29.82 0 0 0 5.88-23c.45-.93 1.8-.9 2.8-.7l8.73 1.73c5.7 1.14 11.54 2.32 16.45 5.18s8.85 7.76 8.9 13.5m61.85 170.37a29.74 29.74 0 0 0-5.88 23c-.45.93-1.8.9-2.8.7l-8.73-1.73c-5.7-1.14-11.54-2.32-16.45-5.18s-8.85-7.76-8.9-13.5" class="B C D E F"/><path d="M532.2 1127.126a26.28 26.28 0 0 1 6.83-15.51c3-3.22 6.72-5.64 10.4-8a27.37 27.37 0 0 1 7.55-3.81 21.08 21.08 0 0 1 7.26-.38c5.4.5 10.9 2 15 5.53s6.65 9.27 5.22 14.5c-1 3.8-3.94 6.82-7 9.27-4.7 3.7-10 6.47-15.36 9.22a35.19 35.19 0 0 1-6.17 2.7c-6.7 1.94-13.93-.3-20-3.74-3.2-1.84-4.03-6.35-3.74-9.78zm23.14 35.08a26.22 26.22 0 0 1 6.83-15.51c3-3.23 6.72-5.65 10.4-8a27.51 27.51 0 0 1 7.55-3.81 21.08 21.08 0 0 1 7.26-.37c5.4.5 10.9 2 15 5.52s6.65 9.28 5.2 14.5c-1 3.8-3.93 6.82-7 9.26-4.7 3.7-10 6.48-15.36 9.22a35.19 35.19 0 0 1-6.17 2.7c-6.7 1.94-13.93-.3-20-3.74-3.2-1.85-4.04-6.36-3.73-9.78zm23.08 35.07a26.35 26.35 0 0 1 6.84-15.51c3-3.23 6.72-5.64 10.4-8a26.83 26.83 0 0 1 7.55-3.81 20.84 20.84 0 0 1 7.26-.38c5.4.5 10.9 2 15 5.53s6.65 9.27 5.2 14.5c-1 3.8-3.94 6.82-7 9.26-4.7 3.7-10.05 6.48-15.36 9.23a34.51 34.51 0 0 1-6.18 2.69c-6.68 2-13.92-.3-20-3.74-3.17-1.83-4-6.34-3.73-9.77zm-69.32-105.22a26.34 26.34 0 0 1 6.83-15.51c3-3.23 6.72-5.64 10.42-8a26.83 26.83 0 0 1 7.55-3.81 20.77 20.77 0 0 1 7.25-.38c5.4.5 10.9 2 15 5.53s6.65 9.27 5.22 14.5c-1.05 3.8-3.94 6.82-7 9.26-4.7 3.7-10 6.48-15.36 9.22a33.76 33.76 0 0 1-6.17 2.7c-6.7 1.94-13.93-.3-20-3.74-3.2-1.84-4.03-6.34-3.74-9.77z" class="B C D E"/><g class="F B C D E"><path d="M555.2 1088.526c2.8 2.2 6.86 1.5 10.2.27 13.1-4.8 23.5-15.88 28.42-28.93a15.75 15.75 0 0 0 1.3-7.35v-3.1a12.84 12.84 0 0 0-.28-1.4.28.28 0 0 0 0-.09 13.76 13.76 0 0 0-15.84-11.3l-23.44 4.25a59 59 0 0 1-13 .59c-6.08-.4-9.9-3.85-14.7-7.27a6.82 6.82 0 0 0-2.33-1.24 5.88 5.88 0 0 0-2.25 0c-8.17 1.35-14.14 7.3-20 12.64-2.7 2.47-12 9.9-11.66 13.78a4.71 4.71 0 0 0 1.56 2.67 30.91 30.91 0 0 0 18.59 9.15c12.57 1.4 25.37-.84 38-.07"/><path d="M510.4 1099.216c3.68 6.5 11.52 9.6 19 10.14 9.76.7 19.44-1.78 29.17-1.86 3.46 0 7.06.45 9.94 2.36s4.78 5.13 6.27 8.3c.86 1.83 1.7 3.76 3.28 5 2.8 2.2 6.86 1.5 10.2.27 13.1-4.78 23.52-15.87 28.42-28.92 1.37-3.64 1.5-6.66 0-9.8a15.62 15.62 0 0 0-1.41-2.36 20.75 20.75 0 0 0-12.72-8.21c-6.3-1.25-12.77.14-19 1l-17.32 2.53-33.9 5"/><path d="M533.5 1134.286c3.7 6.5 11.53 9.6 19 10.15 9.76.7 19.44-1.8 29.17-1.87 3.46 0 7.06.46 9.94 2.37s4.77 5.12 6.27 8.3c.86 1.83 1.7 3.77 3.28 5 2.8 2.2 6.86 1.5 10.2.28 13.1-4.8 23.5-15.88 28.42-28.93 1.37-3.64 1.5-6.65 0-9.8a15 15 0 0 0-1.41-2.36 20.78 20.78 0 0 0-12.71-8.21c-6.3-1.25-12.77.14-19 1.06l-51.17 7.47"/><path d="M556.6 1169.366c3.7 6.5 11.53 9.6 19 10.14 9.76.7 19.44-1.8 29.17-1.87 3.46 0 7.05.46 9.93 2.37s4.78 5.13 6.28 8.3c.86 1.82 1.7 3.76 3.28 5 2.8 2.2 6.86 1.5 10.2.27 13.1-4.78 23.5-15.87 28.42-28.93 1.37-3.63 1.5-6.65 0-9.8a14.83 14.83 0 0 0-1.41-2.36 20.72 20.72 0 0 0-12.71-8.21c-6.3-1.25-12.77.14-19 1l-51.18 7.46"/><path d="M579.72 1204.436c3.7 6.5 11.52 9.6 19 10.14 9.76.7 19.44-1.78 29.17-1.86 3.45 0 7.05.45 9.93 2.36s5.07 5.55 8.84 5.4a11.54 11.54 0 0 0 3.22-.76c10.83-3.83 19.1-11.06 28.86-16.77a4.76 4.76 0 0 0 2-1.75 4.35 4.35 0 0 0-.23-3.57c-2.5-6.16-8.2-10.53-14.3-13.17-12.7-5.5-25.25-2.33-38.27-.4q-13.12 1.93-26.27 3.83m193.35 32.35a29.76 29.76 0 0 0 23.41-3.65c1 .05 1.53 1.3 1.74 2.3l1.85 8.7c1.2 5.7 2.42 11.5 1.73 17.16s-3.65 11.2-8.9 13.5m-132.15 124a29.78 29.78 0 0 0-23.37 3.64c-1-.05-1.53-1.3-1.74-2.3l-1.85-8.7c-1.2-5.7-2.42-11.52-1.72-17.16s3.64-11.2 8.88-13.5"/></g><path d="M715.2 1246.466a26.38 26.38 0 0 1 16.95.17c4.14 1.47 7.83 3.95 11.47 6.4a26.94 26.94 0 0 1 6.48 5.43 21 21 0 0 1 3.25 6.51c1.68 5.16 2.44 10.82.85 16s-5.9 9.77-11.27 10.5c-3.9.54-7.82-.93-11.3-2.8-5.25-2.86-9.9-6.68-14.53-10.48a34.06 34.06 0 0 1-4.91-4.61c-4.42-5.38-5.2-12.92-4.44-19.84.36-3.65 4.18-6.2 7.44-7.3zm-23.13 35.07a26.28 26.28 0 0 1 16.94.16c4.15 1.47 7.84 4 11.48 6.4a26.75 26.75 0 0 1 6.48 5.44 20.78 20.78 0 0 1 3.21 6.52c1.68 5.16 2.44 10.8.85 16s-5.9 9.77-11.27 10.5c-3.9.54-7.82-.93-11.3-2.82-5.26-2.85-9.9-6.68-14.53-10.48a34.55 34.55 0 0 1-4.91-4.6c-4.42-5.38-5.2-12.92-4.44-19.84.4-3.66 4.2-6.22 7.48-7.3zm-23.13 35.06a26.38 26.38 0 0 1 16.95.17c4.14 1.47 7.84 4 11.48 6.4a26.94 26.94 0 0 1 6.48 5.43 21.21 21.21 0 0 1 3.21 6.52c1.68 5.16 2.43 10.8.85 16s-5.9 9.77-11.28 10.5c-3.9.54-7.82-.93-11.28-2.8-5.26-2.86-9.9-6.68-14.53-10.48a34.66 34.66 0 0 1-4.92-4.61c-4.42-5.38-5.2-12.92-4.44-19.84.4-3.66 4.22-6.2 7.48-7.3zm69.4-105.2a26.31 26.31 0 0 1 16.95.16c4.14 1.47 7.83 4 11.48 6.4a27.37 27.37 0 0 1 6.48 5.44 20.86 20.86 0 0 1 3.2 6.52c1.68 5.16 2.44 10.8.85 16s-5.9 9.77-11.27 10.5c-3.9.54-7.82-.93-11.3-2.82-5.25-2.85-9.9-6.68-14.53-10.48a35.66 35.66 0 0 1-4.91-4.6c-4.42-5.38-5.2-12.92-4.44-19.84.38-3.66 4.2-6.22 7.48-7.3z" class="B C D E"/><g class="F B C D E"><path d="M759.73 1252.376c-.9 3.44 1.34 6.9 3.78 9.48 9.56 10.15 23.85 15.35 37.78 14.7a15.62 15.62 0 0 0 7.27-1.7l2.86-1.2a14.15 14.15 0 0 0 1.17-.8l.08-.05a13.76 13.76 0 0 0 4.14-19l-13.14-19.84a57.48 57.48 0 0 1-5.68-11.73c-2-5.74-.36-10.6.9-16.37a6.91 6.91 0 0 0 .21-2.63 5.64 5.64 0 0 0-.91-2c-4.46-7-12.28-10.13-19.5-13.4-3.34-1.5-13.84-7.16-17.26-5.3a4.74 4.74 0 0 0-1.84 2.5 30.88 30.88 0 0 0-1.07 20.68c3.65 12.1 10.77 23 15 34.9"/><path d="M732.24 1215.416c-4.52 6-4.28 14.38-1.84 21.44 3.2 9.25 9.3 17.16 13.22 26.07 1.4 3.17 2.36 6.67 1.74 10.07s-2.83 6.4-5.16 9c-1.34 1.5-2.8 3-3.3 5-.92 3.44 1.33 6.9 3.77 9.48 9.56 10.15 23.86 15.35 37.8 14.7 3.88-.18 6.7-1.23 9-3.85a15.26 15.26 0 0 0 1.62-2.23 20.79 20.79 0 0 0 2.53-14.92c-1.33-6.28-5.16-11.68-8.46-17.06l-27.04-44.1"/><path d="M709.12 1250.486c-4.52 6-4.3 14.37-1.84 21.44 3.2 9.25 9.3 17.16 13.22 26.07 1.38 3.16 2.36 6.66 1.74 10.06s-2.83 6.4-5.16 9c-1.34 1.5-2.8 3.05-3.3 5-.92 3.44 1.33 6.9 3.77 9.48 9.56 10.16 23.86 15.36 37.78 14.72 3.9-.18 6.72-1.24 9-3.86a15.15 15.15 0 0 0 1.62-2.22 20.81 20.81 0 0 0 2.53-14.93c-1.34-6.28-5.17-11.67-8.47-17.06l-27.04-44.1"/><path d="M686 1285.546c-4.52 6-4.3 14.38-1.84 21.44 3.2 9.25 9.3 17.16 13.2 26.07 1.4 3.17 2.37 6.67 1.75 10.07s-2.83 6.4-5.17 9c-1.33 1.5-2.8 3-3.3 5-.92 3.44 1.34 6.9 3.78 9.48 9.56 10.15 23.85 15.35 37.78 14.7 3.88-.18 6.7-1.23 9-3.85a15.23 15.23 0 0 0 1.61-2.23 20.79 20.79 0 0 0 2.54-14.92c-1.34-6.28-5.17-11.68-8.47-17.06l-27.04-44.1"/><path d="M662.88 1320.616c-4.52 5.95-4.3 14.37-1.84 21.44 3.2 9.25 9.3 17.16 13.2 26.07 1.4 3.16 2.36 6.66 1.74 10.06s-3.1 6.85-1.46 10.25a11.07 11.07 0 0 0 2 2.65c7.78 8.45 17.7 13.2 26.78 19.9a4.91 4.91 0 0 0 2.41 1.17 4.35 4.35 0 0 0 3.19-1.63c4.66-4.73 6.44-11.68 6.46-18.33 0-13.83-7.8-24.12-14.73-35.33l-13.87-22.62m98.72-381.65a29.76 29.76 0 0 0 21.8-9.29c1-.2 1.8.88 2.26 1.8l3.93 8c2.57 5.22 5.18 10.56 5.9 16.2s-.78 11.74-5.3 15.27"/><path d="M716.44 1137.236a29.78 29.78 0 0 0-21.8 9.29c-1 .2-1.8-.88-2.25-1.8l-3.94-8c-2.57-5.23-5.17-10.57-5.9-16.2s.78-11.75 5.3-15.27"/></g><path d="M714.55 997.646a26.34 26.34 0 0 1 16.47-4c4.38.4 8.57 1.9 12.7 3.4a27.28 27.28 0 0 1 7.62 3.68 21.1 21.1 0 0 1 4.71 5.54c2.9 4.58 5 9.88 4.76 15.3s-3.32 10.9-8.35 13c-3.65 1.5-7.8 1-11.63 0-5.8-1.48-11.25-4-16.66-6.6a34.58 34.58 0 0 1-5.9-3.26c-5.6-4.13-8.22-11.24-9.18-18.14-.5-3.65 2.57-7.06 5.46-8.92zm-13.8 39.67a26.32 26.32 0 0 1 16.47-4c4.37.4 8.56 1.9 12.7 3.4a26.92 26.92 0 0 1 7.61 3.67 21 21 0 0 1 4.72 5.54c2.9 4.6 5 9.88 4.75 15.3s-3.3 10.92-8.34 13c-3.66 1.48-7.8 1-11.63 0-5.8-1.47-11.25-4-16.66-6.6a33.55 33.55 0 0 1-5.9-3.26c-5.6-4.12-8.22-11.24-9.18-18.13-.5-3.65 2.56-7.06 5.46-8.92zm-13.8 39.67a26.28 26.28 0 0 1 16.47-4c4.38.4 8.57 1.9 12.7 3.4a27 27 0 0 1 7.62 3.68 21.06 21.06 0 0 1 4.71 5.53c2.9 4.6 5 9.88 4.76 15.3s-3.32 10.92-8.35 13c-3.65 1.48-7.8 1-11.63 0-5.8-1.47-11.25-4-16.66-6.58a35.19 35.19 0 0 1-5.89-3.26c-5.6-4.13-8.23-11.24-9.18-18.14-.5-3.65 2.56-7.06 5.45-8.92zm41.38-119a26.3 26.3 0 0 1 16.46-4c4.38.4 8.57 1.9 12.7 3.4a27.08 27.08 0 0 1 7.61 3.68 20.87 20.87 0 0 1 4.71 5.53c2.9 4.6 5 9.88 4.76 15.3s-3.32 10.92-8.34 13c-3.66 1.48-7.8 1-11.64.05-5.8-1.48-11.24-4-16.66-6.6a35.19 35.19 0 0 1-5.89-3.26c-5.6-4.13-8.23-11.24-9.18-18.14-.54-3.7 2.57-7.12 5.46-8.96z" class="B C D E"/><g class="F B C D E"><path d="M759.18 992.426c0 3.56 3 6.35 6 8.26 11.76 7.5 26.9 9 40.24 5a15.5 15.5 0 0 0 6.63-3.44l2.48-1.85a15.33 15.33 0 0 0 .93-1.06l.07-.07a13.76 13.76 0 0 0-.66-19.45l-17.62-16a58.56 58.56 0 0 1-8.39-10c-3.37-5.07-3-10.18-3.16-16.1a6.75 6.75 0 0 0-.44-2.6 5.65 5.65 0 0 0-1.39-1.76c-6-5.67-14.4-6.8-22.2-8.2-3.6-.65-15.18-3.55-18-.9a4.81 4.81 0 0 0-1.18 2.87 31 31 0 0 0 4 20.32c6.5 10.83 16.1 19.63 23.16 30.13"/><path d="M723.45 963.356c-2.92 6.88-.62 15 3.5 21.24 5.37 8.17 13.23 14.34 19.2 22 2.13 2.72 3.93 5.88 4.17 9.32s-1.17 6.92-2.78 10c-.93 1.8-2 3.63-2 5.65 0 3.56 3 6.35 6 8.26 11.76 7.5 26.9 9 40.24 5 3.72-1.12 6.2-2.84 7.8-5.95a15.75 15.75 0 0 0 1-2.55 20.81 20.81 0 0 0-1.22-15.09c-2.84-5.76-7.87-10-12.4-14.46l-12.52-12.2-24.5-23.87"/><path d="M709.66 1002.986c-2.92 6.88-.62 15 3.48 21.24 5.38 8.18 13.24 14.34 19.22 22 2.12 2.73 3.93 5.88 4.16 9.33s-1.16 6.9-2.78 10c-.92 1.8-1.95 3.64-2 5.65 0 3.56 3 6.35 6 8.26 11.76 7.5 26.9 9 40.24 5 3.72-1.13 6.2-2.85 7.8-6a15.35 15.35 0 0 0 1-2.56 20.81 20.81 0 0 0-1.21-15.09c-2.84-5.76-7.88-10-12.4-14.45l-12.54-12.22-24.48-23.76"/><path d="M695.86 1042.706c-2.92 6.88-.62 15 3.5 21.23 5.37 8.18 13.24 14.35 19.22 22 2.12 2.73 3.92 5.88 4.16 9.33s-1.17 6.9-2.78 10c-.93 1.8-2 3.64-2 5.65 0 3.56 3 6.35 6 8.27 11.76 7.5 26.9 9 40.24 5 3.72-1.13 6.2-2.84 7.8-6a15.88 15.88 0 0 0 1-2.56 20.76 20.76 0 0 0-1.22-15.09c-2.83-5.76-7.87-10-12.4-14.45l-12.52-12.1-24.5-23.93"/><path d="M682.07 1082.376c-2.92 6.88-.62 15 3.48 21.23 5.38 8.18 13.24 14.35 19.22 22 2.13 2.72 3.93 5.87 4.16 9.32s-1.3 7.4 1.1 10.3a11 11 0 0 0 2.55 2.09c9.63 6.28 20.4 8.44 30.86 12.72a5 5 0 0 0 2.62.54 4.37 4.37 0 0 0 2.69-2.36c3.36-5.73 3.37-12.9 1.76-19.36-3.36-13.42-13.5-21.46-23-30.63q-9.53-9.23-19-18.52m66.75-342.2a29.74 29.74 0 0 0-6-22.93c-.06-1 1.14-1.66 2.1-2l8.48-2.7c5.55-1.77 11.22-3.56 16.9-3.43s11.6 2.54 14.36 7.54"/></g><path d="M913.6 766.276a26.34 26.34 0 0 1 1.53 16.88c-1 4.27-3.15 8.2-5.23 12.06a26.93 26.93 0 0 1-4.76 7 21.05 21.05 0 0 1-6.17 3.84c-5 2.2-10.5 3.5-15.84 2.45s-10.3-4.9-11.58-10.17c-.93-3.84.15-7.87 1.68-11.5 2.3-5.52 5.65-10.53 9-15.5a35 35 0 0 1 4.11-5.33c4.9-4.93 12.33-6.47 19.3-6.4 3.65 0 6.57 3.54 7.97 6.68zm-37.2-19.5a26.28 26.28 0 0 1 1.53 16.88c-1 4.27-3.15 8.2-5.23 12.07a27.1 27.1 0 0 1-4.76 7 21.05 21.05 0 0 1-6.17 3.84c-5 2.18-10.5 3.5-15.83 2.44s-10.3-4.9-11.6-10.17c-.92-3.83.15-7.87 1.68-11.5 2.3-5.5 5.65-10.53 9-15.5a34.49 34.49 0 0 1 4.1-5.35c4.9-4.94 12.33-6.47 19.3-6.4 3.66.03 6.58 3.57 7.98 6.7zm-37.2-19.5a26.27 26.27 0 0 1 1.52 16.88c-1 4.27-3.14 8.2-5.23 12.06a27.1 27.1 0 0 1-4.76 7 21.05 21.05 0 0 1-6.17 3.84c-5 2.2-10.5 3.5-15.83 2.45s-10.3-4.9-11.58-10.17c-.93-3.84.14-7.88 1.67-11.5 2.3-5.52 5.66-10.53 9-15.5a34.28 34.28 0 0 1 4.09-5.35c4.9-4.93 12.33-6.47 19.3-6.4 3.66.03 6.58 3.57 8 6.7z" class="B C D E"/><g class="F B C D E"><path d="M909 760.636c-6.37-3.9-14.73-2.83-21.5.3-8.9 4.1-16.15 11-24.63 15.76-3 1.7-6.4 3-9.83 2.73s-6.67-2.17-9.52-4.23c-1.63-1.18-3.3-2.47-5.3-2.8-3.5-.58-6.72 2-9.06 4.7-9.14 10.52-12.9 25.27-10.86 39.06.56 3.85 1.9 6.56 4.73 8.6a14.89 14.89 0 0 0 2.38 1.38 20.71 20.71 0 0 0 15.1 1c6.1-2 11.1-6.3 16.13-10.12l41.17-31.3"/><path d="M871.8 741.136c-6.37-3.9-14.73-2.83-21.5.3-8.88 4.1-16.15 11-24.62 15.75-3 1.7-6.4 3-9.84 2.74s-6.67-2.18-9.52-4.23c-1.63-1.18-3.3-2.48-5.3-2.8-3.5-.57-6.72 2-9.06 4.7-9.14 10.52-12.9 25.27-10.86 39.07.56 3.84 1.9 6.55 4.73 8.6a17.14 17.14 0 0 0 2.38 1.38 20.81 20.81 0 0 0 15.1 1c6.12-2 11.1-6.3 16.13-10.13l13.9-10.53 27.24-20.7"/><path d="M834.6 721.626c-6.38-3.9-14.74-2.83-21.52.3-8.88 4.1-16.15 11-24.62 15.75-3 1.7-6.4 3-9.84 2.74s-7.12-2.4-10.34-.43a11.49 11.49 0 0 0-2.45 2.22c-7.63 8.6-11.36 18.93-17.14 28.64a4.92 4.92 0 0 0-.91 2.51 4.32 4.32 0 0 0 1.93 3c5.18 4.17 12.27 5.24 18.9 4.6 13.76-1.34 23.22-10.18 33.68-18.18q10.54-8.05 21.13-16.06m-4.02 50.5a29.76 29.76 0 0 0 17.28 16.2c.6.85-.08 2-.73 2.8l-5.73 6.82c-3.74 4.46-7.58 9-12.46 11.93s-11.06 4-16.1 1.3m-179.06-27.8a29.77 29.77 0 0 0-17.25-16.2c-.6-.85.08-2 .73-2.8l5.73-6.82c3.75-4.46 7.58-9 12.46-11.93s11.06-4 16.1-1.3"/></g><path d="M749.57 750.476a26.31 26.31 0 0 1 10.31 13.45c1.4 4.17 1.7 8.6 2 13a27.19 27.19 0 0 1-.3 8.45 21.06 21.06 0 0 1-3.16 6.54c-3 4.5-7 8.58-12.1 10.52s-11.33 1.37-15.22-2.4c-2.83-2.75-4.08-6.74-4.73-10.63-1-5.9-.84-11.92-.7-17.9a35 35 0 0 1 .61-6.71c1.5-6.8 7-12.06 12.9-15.7 3.15-1.94 7.52-.5 10.38 1.4zm-41.87 3.37a26.26 26.26 0 0 1 10.31 13.45c1.4 4.17 1.7 8.6 2 13a27.24 27.24 0 0 1-.29 8.46 21.09 21.09 0 0 1-3.17 6.54c-3 4.5-7 8.58-12.08 10.52s-11.33 1.37-15.23-2.4c-2.83-2.75-4.08-6.74-4.73-10.63-1-5.9-.84-11.92-.7-17.9a35 35 0 0 1 .61-6.71c1.52-6.8 7-12.06 12.9-15.7 3.15-1.95 7.5-.47 10.37 1.4zm-41.86 3.37a26.29 26.29 0 0 1 10.3 13.45c1.4 4.17 1.72 8.6 2 13a27.24 27.24 0 0 1-.29 8.46 21.09 21.09 0 0 1-3.17 6.54c-3 4.5-7 8.58-12.08 10.52s-11.33 1.37-15.22-2.4c-2.83-2.75-4.08-6.74-4.73-10.63-1-5.9-.84-11.92-.7-17.9a34.25 34.25 0 0 1 .6-6.71c1.52-6.8 7-12.06 12.9-15.7 3.16-1.95 7.5-.5 10.38 1.4zm125.6-10.1a26.29 26.29 0 0 1 10.3 13.45c1.4 4.17 1.72 8.6 2 13a27.19 27.19 0 0 1-.29 8.45 21.09 21.09 0 0 1-3.17 6.54c-3 4.5-7 8.58-12.08 10.52s-11.33 1.37-15.22-2.4c-2.83-2.75-4.08-6.74-4.73-10.63-1-5.9-.84-11.92-.7-17.9a34.25 34.25 0 0 1 .6-6.71c1.52-6.8 7-12.06 12.9-15.7 3.16-1.94 7.5-.5 10.38 1.4z" class="B C D E"/><g class="F B C D E"><path d="M772.34 789.216c-3.27 1.4-4.6 5.3-5.14 8.8-2.12 13.78 2.6 28.25 11.67 38.83a15.69 15.69 0 0 0 5.82 4.68l2.7 1.52a14.05 14.05 0 0 0 1.35.43h.1a13.76 13.76 0 0 0 17.52-8.41l7.56-22.6a58.74 58.74 0 0 1 5.75-11.69c3.28-5.14 8.13-6.82 13.45-9.4a6.73 6.73 0 0 0 2.24-1.42 5.81 5.81 0 0 0 1-2c2.75-7.8.42-15.9-1.45-23.6-.86-3.57-2.88-15.32-6.46-16.86a4.78 4.78 0 0 0-3.1.08 31 31 0 0 0-17 11.9c-7.3 10.33-11.48 22.64-18.24 33.34"/><path d="M784.54 744.796c-7.47.1-14 5.47-18 11.75-5.3 8.22-7.8 17.9-12.4 26.47-1.64 3-3.8 6-6.86 7.56s-6.8 1.72-10.3 1.5c-2-.12-4.12-.32-6 .47-3.27 1.4-4.6 5.3-5.14 8.8-2.12 13.78 2.6 28.25 11.67 38.83 2.53 2.95 5.1 4.53 8.6 4.73a16.22 16.22 0 0 0 2.75-.09 20.81 20.81 0 0 0 13.32-7.2c4.12-4.92 6-11.26 8.23-17.17l6.12-16.4 12-32"/><path d="M742.67 748.166c-7.47.1-14 5.47-18 11.75-5.32 8.22-7.8 17.9-12.4 26.46-1.64 3.05-3.8 6-6.86 7.57s-6.8 1.72-10.3 1.5c-2-.12-4.12-.32-6 .47-3.28 1.4-4.6 5.3-5.15 8.8-2.1 13.78 2.6 28.25 11.67 38.83 2.53 2.95 5.1 4.53 8.6 4.73a16.19 16.19 0 0 0 2.75-.09 20.78 20.78 0 0 0 13.38-7.21c4.13-4.92 6-11.26 8.23-17.17l6.13-16.4 12-32"/><path d="M700.8 751.536c-7.48.1-14 5.47-18 11.75-5.32 8.22-7.8 17.9-12.4 26.46-1.64 3-3.8 6-6.85 7.57s-6.8 1.72-10.3 1.5c-2-.12-4.1-.32-6 .47-3.27 1.4-4.6 5.3-5.15 8.8-2.1 13.78 2.6 28.25 11.68 38.83 2.53 2.95 5.1 4.53 8.6 4.73a16.1 16.1 0 0 0 2.74-.09 20.78 20.78 0 0 0 13.32-7.2c4.13-4.92 6-11.26 8.23-17.17l6.13-16.4 12-32"/><path d="M658.94 754.906c-7.47.1-14 5.47-18 11.75-5.3 8.22-7.8 17.9-12.4 26.46-1.64 3-3.8 6-6.86 7.57s-7.3 1.78-9 5.16a11.21 11.21 0 0 0-.88 3.18c-1.86 11.34.5 22.07.8 33.37a4.93 4.93 0 0 0 .57 2.61 4.31 4.31 0 0 0 3.24 1.51c6.6.77 13.17-2.12 18.42-6.2 10.93-8.48 14.2-21 18.78-33.36l9.3-24.86m84.53 14.05a29.75 29.75 0 0 0 23.41-3.65c1 0 1.54 1.3 1.75 2.3l1.85 8.7c1.2 5.7 2.42 11.5 1.72 17.16s-3.64 11.2-8.88 13.5m-132.16 124a29.76 29.76 0 0 0-23.41 3.64c-1 0-1.53-1.3-1.74-2.3l-1.85-8.7c-1.2-5.7-2.42-11.52-1.73-17.16s3.65-11.2 8.9-13.5"/></g><path d="M667.6 822.376a26.31 26.31 0 0 1 17 .17c4.14 1.47 7.84 4 11.48 6.4a26.94 26.94 0 0 1 6.48 5.43 21.21 21.21 0 0 1 3.21 6.52c1.68 5.16 2.43 10.8.85 16s-5.9 9.77-11.28 10.5c-3.9.54-7.82-.93-11.28-2.8-5.26-2.86-9.9-6.68-14.53-10.48a34.66 34.66 0 0 1-4.92-4.61c-4.42-5.38-5.2-12.92-4.44-19.84.36-3.7 4.16-6.2 7.43-7.3zm-23.1 35.07a26.31 26.31 0 0 1 17 .16c4.14 1.47 7.84 4 11.48 6.4a26.94 26.94 0 0 1 6.48 5.44 20.75 20.75 0 0 1 3.2 6.52c1.68 5.16 2.44 10.8.85 16s-5.9 9.77-11.27 10.5c-3.9.54-7.82-.93-11.28-2.82-5.26-2.85-9.92-6.68-14.54-10.48a35.13 35.13 0 0 1-4.91-4.61c-4.42-5.38-5.2-12.9-4.44-19.83.36-3.66 4.17-6.22 7.43-7.3zm-23.16 35.06a26.31 26.31 0 0 1 17 .17c4.14 1.47 7.83 3.95 11.48 6.4a27.33 27.33 0 0 1 6.48 5.43 21.19 21.19 0 0 1 3.2 6.52c1.68 5.16 2.44 10.8.85 16s-5.9 9.77-11.27 10.5c-3.9.54-7.82-.93-11.3-2.8-5.25-2.86-9.9-6.68-14.53-10.48a35.13 35.13 0 0 1-4.91-4.61c-4.42-5.38-5.2-12.92-4.44-19.84.43-3.66 4.2-6.2 7.43-7.3zm69.4-105.2a26.31 26.31 0 0 1 17 .16c4.15 1.47 7.84 4 11.48 6.4a26.75 26.75 0 0 1 6.48 5.44 21 21 0 0 1 3.21 6.52c1.68 5.16 2.43 10.8.85 16s-5.9 9.77-11.28 10.5c-3.9.54-7.8-.93-11.28-2.82-5.26-2.85-9.9-6.68-14.53-10.48a34.66 34.66 0 0 1-4.92-4.61c-4.42-5.37-5.2-12.9-4.44-19.83.36-3.63 4.17-6.22 7.43-7.3z" class="B C D E"/><g class="F B C D E"><path d="M712.16 828.286c-.92 3.44 1.33 6.9 3.77 9.48 9.56 10.15 23.86 15.35 37.8 14.7a15.62 15.62 0 0 0 7.27-1.7l2.85-1.2a14.15 14.15 0 0 0 1.17-.8h.08a13.76 13.76 0 0 0 4.15-19l-13.15-19.87a58 58 0 0 1-5.67-11.73c-2-5.74-.37-10.6.88-16.37a6.72 6.72 0 0 0 .22-2.63 5.81 5.81 0 0 0-.91-2c-4.46-7-12.3-10.13-19.5-13.4-3.35-1.5-13.85-7.16-17.26-5.3a4.75 4.75 0 0 0-1.85 2.5 30.94 30.94 0 0 0-1.07 20.68c3.65 12.1 10.77 23 15 34.9"/><path d="M684.67 791.326c-4.52 5.95-4.3 14.38-1.84 21.44 3.2 9.25 9.3 17.16 13.2 26.07 1.4 3.17 2.36 6.67 1.74 10.07s-2.82 6.4-5.16 9c-1.33 1.5-2.8 3-3.3 5-.92 3.44 1.34 6.9 3.78 9.48 9.55 10.15 23.85 15.35 37.78 14.7 3.88-.18 6.7-1.23 9-3.85a15.23 15.23 0 0 0 1.61-2.23 20.74 20.74 0 0 0 2.53-14.92c-1.33-6.28-5.16-11.68-8.46-17.06l-27.02-44.05"/><path d="M661.55 826.396c-4.53 6-4.3 14.37-1.85 21.44 3.2 9.25 9.3 17.16 13.22 26.07 1.4 3.16 2.36 6.66 1.74 10.06s-2.83 6.4-5.16 9c-1.34 1.5-2.8 3.05-3.3 5-.92 3.44 1.33 6.9 3.77 9.48 9.56 10.15 23.86 15.35 37.8 14.72 3.88-.18 6.7-1.24 9-3.86a15.12 15.12 0 0 0 1.61-2.22 20.76 20.76 0 0 0 2.53-14.93c-1.33-6.28-5.16-11.67-8.46-17.06l-9.1-14.9-17.9-29.17"/><path d="M638.42 861.456c-4.52 5.95-4.28 14.38-1.84 21.44 3.2 9.25 9.3 17.16 13.22 26.07 1.4 3.17 2.36 6.67 1.74 10.07s-2.83 6.4-5.16 9c-1.34 1.5-2.8 3-3.3 5-.92 3.44 1.33 6.9 3.77 9.48 9.56 10.15 23.86 15.35 37.8 14.7 3.88-.18 6.7-1.23 9-3.85a16 16 0 0 0 1.61-2.23 20.79 20.79 0 0 0 2.53-14.92c-1.33-6.28-5.16-11.68-8.46-17.06l-9.16-14.93-17.8-29.14"/><path d="M615.34 896.526c-4.52 6-4.28 14.37-1.84 21.44 3.2 9.25 9.3 17.16 13.22 26.07 1.4 3.16 2.36 6.66 1.74 10.06s-3.1 6.85-1.46 10.25a10.77 10.77 0 0 0 2 2.65c7.8 8.45 17.7 13.2 26.8 19.9a4.83 4.83 0 0 0 2.4 1.17 4.34 4.34 0 0 0 3.19-1.63c4.67-4.73 6.44-11.68 6.46-18.33.05-13.83-7.8-24.12-14.72-35.33q-7-11.3-13.87-22.62"/></g></svg>