<svg xmlns="http://www.w3.org/2000/svg" height="1923.979" width="1627.31"  xmlns:v="https://vecta.io/nano"><path d="M280.93 1095.39s-23.8-475.55 571.6-611.66l-100.1 148c-297.02 111.98-242.93 470.43-242.93 470.43" fill="#fff"/><path d="M752.45 631.78c-297.02 111.93-242.93 470.38-242.93 470.38m-228.6-6.77s-23.8-475.55 571.6-611.66" fill="none" stroke="#231f20" stroke-width="24" stroke-linecap="round" stroke-linejoin="round"/><path d="M715.27 697.65s52 27.1 141 15.7c0 0 67.6-6 129.9-48.8 0 0 47.84-31.4 85.5-90.1 0 0 42-63.12 58.28-101.83 4.85-12.52 11.37-53.4 2-82.6 0 0-8.72-41.4-44.17-88.63-27.33-31.7-32.9-35.73-32.9-35.73-10-8.15-7.6-18.35-5.25-22.12 0 0 3.75-14.4 19.46-32.87 0 0 41.88-55.35 65.26-78.64 0 0 37.58-44.55 73.27-63.17 0 0 28.9-17.28 83.57-24.3 0 0 35.77-7 100.56 8.3 0 0 13.64-13.48 14.38-29.76-66-15-110.73-10.45-110.73-10.45-65 3.45-105 30.8-105 30.8-45.35 24-85.8 72.1-85.8 72.1-47.3 57.38-62.16 79.52-62.16 79.52l-34.8 47.4c-207.88 310.06-197.3 301.92-292.3 455.2z" fill="#231f20"/><g fill="#fff" stroke="#231f20" stroke-width="24" stroke-linejoin="round"><path d="M990.8 1095.39v675.77a140.51 140.51 0 0 1-140.82 140.82H152.82A140.51 140.51 0 0 1 12 1771.159v-675.77z"/><path d="M1615.3 1328.48l-534.14-17.07a62.61 62.61 0 0 0-59.51 38.25l-30.87 73.14v-222.37l624.52-19.68z"/></g></svg>