<svg xmlns="http://www.w3.org/2000/svg" xmlns:xlink="http://www.w3.org/1999/xlink" height="1924.001" width="1619.79" xmlns:v="https://vecta.io/nano"><style><![CDATA[.B{fill:none}.C{stroke-linecap:round}.D{fill:#ddeccb}.E{stroke:#231f20}.F{stroke-width:24}.G{stroke-miterlimit:10}]]></style><g fill="#fff" class="E F G"><path d="M1593.93 181.01l-758.58 845.86c-23.88 26.63-58.95 22.5-77.73-8.26L650.8 843.78c-14.88-24.37-10.1-62 10.3-84.76l647.7-722.13c20.4-22.74 57.3-31.58 83.14-19.43l185.38 87.17c32.58 15.34 40.48 49.75 16.6 76.38z"/><path d="M1486.7 152.73c-11.22 12.5-32.1 16.3-46.45 8.6l-84.82-45.6c-12.82-6.9-14.65-21.8-4.26-33.4s29.3-15.72 42.4-9.15l86.72 43.5c14.66 7.36 17.62 23.54 6.4 36.05z"/></g><g stroke="#010101" stroke-width="9.558" stroke-linejoin="round"><path d="M718.74 756.87c16.77-6.8 38.82 52.68 38.82 52.68-3 22.67-26.5 12.76-35 25.24S673 782.21 692.3 776.32c14.4-4.4 26.44-19.45 26.44-19.45z" class="D"/><path d="M705.6 784.07s10.6 32.4 22.27 39.68" class="B C"/><path d="M887.15 672.53c17-6.26 37.14 53.87 37.14 53.87-3.7 22.56-26.87 11.92-35.77 24.13s-47.9-54.1-28.4-59.4c14.53-3.94 27.04-18.6 27.04-18.6z" class="D"/><path d="M873.15 699.3s9.58 32.72 21 40.35" class="B C"/><path d="M606.2 847.47c16.92 6.4-7.3 65-7.3 65-17.6 14.6-28.1-8.63-42.82-5.24s-.68-72.25 17.5-63.47c13.55 6.62 32.62 3.7 32.62 3.7z" class="D"/><path d="M578.08 858.54s-14.23 31-10.6 44.25" class="B C"/><path d="M520.65 975.79c12.72-12.87 56.46 33.06 56.46 33.06 6.2 22-19.3 22.18-22.17 37s-66.3-28.7-50.9-41.75c11.5-9.73 16.6-28.3 16.6-28.3z" class="D"/><path d="M519.3 1005.96s22.54 25.58 36.13 27.66" class="B C"/><path d="M1181.9 394.6c10.82 14.5-41.1 50.87-41.1 50.87-22.7 2.84-19-22.4-33.27-27.47s38.32-61.25 48.9-44.06c7.85 12.82 25.46 20.66 25.46 20.66z" class="D"/><path d="M1152.28 388.76s-28.67 18.45-32.76 31.58" class="B C"/><path d="M663.38 968.4c12.72-12.86 56.43 33.07 56.43 33.07 6.2 22-19.3 22.18-22.18 37s-66.3-28.7-50.9-41.76c11.53-9.72 16.65-28.3 16.65-28.3z" class="D"/><path d="M662.04 998.58s22.54 25.58 36.13 27.65" class="B C"/><path d="M901.08 582.9c12.72-12.87 56.47 33.06 56.47 33.06 6.2 22-19.3 22.18-22.18 37s-66.3-28.72-50.9-41.76c11.48-9.73 16.6-28.3 16.6-28.3z" class="D"/><path d="M899.74 613.08s22.54 25.58 36.13 27.65" class="B C"/><path d="M1022.27 507.47c17.93-2.4 24.42 60.7 24.42 60.7-8.57 21.2-28.83 5.74-40.2 15.7s-34.86-63.3-14.7-64.18c15-.64 30.46-12.22 30.46-12.22z" class="D"/><path d="M1002.74 530.53s2.17 34 11.64 44" class="B C"/><path d="M797.03 733.91c2-18 64.8-9.14 64.8-9.14 18.53 13.4-1.35 29.36 5.6 42.78s-69.8 18.65-65.82-1.14c2.97-14.76-4.56-32.5-4.56-32.5z" class="D"/><path d="M814.72 758.4s33.55 6.06 45.5-.75" class="B C"/><path d="M939.34 546.7c0-18.1 63.4-16.17 63.4-16.17 19.88 11.3 1.87 29.33 10.24 41.9s-67.35 26.18-65.56 6.07c1.4-15-8.08-31.8-8.08-31.8z" class="D"/><path d="M959.6 569.1s34 2.36 45.14-5.72" class="B C"/><path d="M704.04 819.47c1.83-18 64.7-9.72 64.7-9.72 18.64 13.23-1.1 29.37 6 42.73s-69.63 19.27-65.83-.55c2.8-14.77-4.88-32.46-4.88-32.46z" class="D"/><path d="M721.95 843.81s33.6 5.76 45.48-1.16" class="B C"/><path d="M935.2 685.92c-6.74 16.8-64.86-8.6-64.86-8.6-14.25-17.9 9.18-27.93 6.1-42.7s72.26.77 63.1 18.76c-6.82 13.42-4.34 32.54-4.34 32.54z" class="D"/><path d="M924.73 657.58s-30.7-14.84-44-11.5" class="B C"/><path d="M986.9 608.87c15.9 8.65-16.08 63.42-16.08 63.42-19.42 12.07-26.67-12.37-41.7-11s9.18-71.67 26-60.5c12.5 8.3 31.8 8.07 31.8 8.07z" class="D"/><path d="M957.55 615.96s-18.32 28.75-16.54 42.38" class="B C"/><path d="M809.8 752.62c2.7 17.9-60.26 25.5-60.26 25.5-21.35-8.18-6.25-28.72-16.4-39.9s62.66-36 63.9-15.83c.93 15.02 12.77 30.24 12.77 30.24z" class="D"/><path d="M786.42 733.47s-34 2.78-43.77 12.43" class="B C"/><path d="M759.65 794.64c-7.82-16.32 50.16-42 50.16-42 22.8 1.58 14.38 25.64 27.37 33.35s-49.37 52.73-56.47 33.82c-5.28-14.1-21.06-25.17-21.06-25.17z" class="D"/><path d="M787.6 806.07s31.68-12.6 38.2-24.7" class="B C"/><use xlink:href="#B" class="D"/><path d="M664.14 840.93s22.54 25.57 36.13 27.65" class="B C"/><path d="M609 881.82c3.82-17.7 65.4-2.46 65.4-2.46 17 15.23-4.36 29.07 1.18 43.13s-71.36 11.4-65.37-7.88c4.47-14.37-1.2-32.8-1.2-32.8z" class="D"/><path d="M624.08 907.99s32.73 9.48 45.33 3.9" class="B C"/><use xlink:href="#B" x="34.79" y="57.83" class="D"/><path d="M698.93 898.76s22.54 25.58 36.13 27.65" class="B C"/><path d="M786.53 906.64c11.22 14.2-39.68 52-39.68 52-22.6 3.48-19.67-21.84-34-26.5s36.57-62.32 47.64-45.44c8.2 12.6 26.04 19.95 26.04 19.95z" class="D"/><path d="M756.74 901.64s-28.13 19.26-31.85 32.5" class="B C"/><path d="M1030.06 454.07c12.72-12.87 56.47 33.06 56.47 33.06 6.2 22-19.3 22.18-22.18 37s-66.3-28.72-50.9-41.76c11.5-9.72 16.6-28.3 16.6-28.3z" class="D"/><path d="M1028.72 484.25s22.54 25.57 36.13 27.65" class="B C"/><path d="M827.03 666.94C839.75 654.07 883.5 700 883.5 700c6.2 22-19.3 22.18-22.18 37s-66.3-28.72-50.9-41.76c11.5-9.7 16.6-28.3 16.6-28.3z" class="D"/><path d="M825.7 697.12s22.54 25.58 36.13 27.65" class="B C"/><path d="M567.9 970.15c-13.32-12.25 31-57.6 31-57.6 21.78-7 22.86 18.48 37.78 20.83s-26.32 67.3-39.9 52.36c-10.1-11.13-28.87-15.58-28.87-15.58z" class="D"/><path d="M598.1 970.41s24.76-23.44 26.35-37.1" class="B C"/><path d="M619.66 798.67c17.15-5.84 35.8 54.8 35.8 54.8-4.26 22.46-27.15 11.25-36.34 23.24s-46.56-55.26-27-60.06c14.68-3.62 27.53-17.98 27.53-17.98z" class="D"/><path d="M605 825.09s8.78 33 20 40.86" class="B C"/><path d="M625.2 741.79c3.44-17.77 65.32-3.85 65.32-3.85 17.38 14.86-3.73 29.15 2.1 43.1s-71.1 12.93-65.5-6.48c4.15-14.46-1.9-32.76-1.9-32.76z" class="D"/><path d="M640.8 767.63s33 8.76 45.4 2.94" class="B C"/></g><g fill="#fff" class="E F"><g class="G"><path d="M1213.8 1099.27v719.36a93.16 93.16 0 0 1-93.36 93.37H204.63a93.16 93.16 0 0 1-93.37-93.37v-719.36z"/><path d="M71.44 1099.03A59.31 59.31 0 0 0 12 1158.47v54.6a59.31 59.31 0 0 0 59.44 59.39h39.82v-173.2h32.46l-4.84-.24zm1182.24.01a59.3 59.3 0 0 1 59.43 59.43v54.6a59.3 59.3 0 0 1-59.43 59.42h-39.87v-173.22h-32.45l4.83-.24z"/></g><circle r="149.26" cy="1393.511" cx="662.56"/></g><path d="M662.56 1393.51v-100.92" class="B C E F G"/><defs ><path id="B" d="M665.48 810.75c12.72-12.87 56.47 33.06 56.47 33.06 6.2 22-19.3 22.18-22.18 37s-66.3-28.72-50.9-41.76c11.48-9.7 16.6-28.3 16.6-28.3z"/></defs></svg>