<svg xmlns="http://www.w3.org/2000/svg" height="1924.005" width="1884.83"  xmlns:v="https://vecta.io/nano"><path d="M939.27 1912.005c425.83 0 925.8-226.57 925.8-741.26 0-121.23-414.5-232.67-925.8-232.67h-1.45c-511.3 0-925.82 111.44-925.82 232.67 0 514.7 500 741.26 925.82 741.26" fill="#fff" stroke="#231f20" stroke-width="24" stroke-miterlimit="10"/><path d="M933.68 1707.035v-166.8q-46.56 35.74-62.7 35.74-7.7 0-13.65-6.14a19.8 19.8 0 0 1-6-14.2q0-9.36 5.87-13.75 5.87-4.4 20.7-11.36 22.17-10.45 35.46-22a149.63 149.63 0 0 0 23.55-25.84q10.27-14.3 13.38-17.6 3.1-3.3 11.73-3.3a18.77 18.77 0 0 1 15.58 7.51q5.87 7.52 5.87 20.7v209.86q0 36.84-25.1 36.84-11.2 0-18-7.52-6.8-7.52-6.7-22.16z" fill="#231f20"/><path d="M1805.17 1163.695c0 58.1-387.65 144.17-865.86 144.17h-1.5c-478.2 0-865.86-86.08-865.86-144.17" fill="none" stroke="#231f20" stroke-width="24" stroke-linecap="round" stroke-miterlimit="10"/><path d="M566.82 1269.535s-27.63-552 663.48-710l-116.16 171.87c-344.75 129.92-282 546-282 546" fill="#fff"/><path d="M1114.14 731.405c-344.75 129.92-282 546-282 546m-265.32-7.87s-27.63-552 663.48-710" stroke="#231f20" stroke-width="24" fill="none" stroke-linecap="round" stroke-linejoin="round"/><path d="M1071 807.865s60.37 31.46 163.6 18.2c0 0 78.46-7 150.77-56.63 0 0 55.53-36.43 99.24-104.57 0 0 48.7-73.27 67.65-118.2 5.63-14.53 13.2-62 2.35-95.9 0 0-10.13-48.05-51.27-102.87-31.73-36.8-38.18-41.48-38.18-41.48-11.6-9.46-8.82-21.3-6.1-25.67 0 0 4.36-16.73 22.6-38.16 0 0 48.62-64.25 75.76-91.27 0 0 43.6-51.72 85-73.33 0 0 33.54-20.06 97-28.2 0 0 41.52-8.13 116.72 9.62 0 0 15.83-15.65 16.7-34.55-76.62-17.42-128.53-12.13-128.53-12.13-75.4 4-121.93 35.74-121.93 35.74-52.55 27.9-99.55 83.74-99.55 83.74-54.9 66.6-72.16 92.3-72.16 92.3l-40.38 55c-241.3 359.9-229 350.46-339.3 528.37z" fill="#231f20"/></svg>