<svg xmlns="http://www.w3.org/2000/svg" height="1969.593" width="1728.071"  xmlns:v="https://vecta.io/nano"><style><![CDATA[.B{stroke-width:24}.C{stroke:#231f20}.D{stroke-linecap:round}.E{stroke-miterlimit:10}]]></style><g class="C E"><path d="M1629.863 629.683c113-191.67 143.78-476.85-87.87-613.5-54.57-32.2-214.77 124.8-350.52 354.92l-.38.64c-135.76 230.13-195.65 446.27-141.1 478.46 231.65 136.65 466.37-28.23 579.43-219.9" fill="#fff" class="B"/><g fill="none" class="D"><path d="M1522.913 41.273c26.14 15.42-38 212.76-165 428l-.4.7c-127 215.23-268.63 366.85-294.77 351.43" stroke-width="16.044"/><path d="M1522.913 41.273c26.14 15.42-38 212.76-165 428l-.4.7c-127 215.23-268.63 366.85-294.77 351.43" class="B"/></g></g><path d="M921.623 1108.183c-3.75-87.84 40.6-268.22 167-306.5 0 0 29.3-25.46 23.6-24.8-266.47 31.7-311.87 237.6-318.37 321.1" fill="#fff"/><path d="M793.523 1100.963c5.17-84.22 46.83-308.72 332.28-333.64m-37.17 40.66c-122.77 37.2-168.16 203.55-167.2 292.7" fill="none" class="B C D E"/><path d="M875.423 394.683l-403.56-239.37c-29.8-16.15-63.73-11.74-79.88 18.06h0c-16.15 29.8-1.32 60.64 28.47 76.8l420.86 207.52" fill="#231f20"/><g stroke-linejoin="round" fill="#fff" class="B C"><path transform="matrix(-.476545 .87915 -.87915 -.476545 2040.704245 -238.656733)" d="M1157.74 341.82H1235a20.88 20.88 0 0 1 20.88 20.88v330c0 16.57-13.43 30-30 30h-156c-16.57 0-30-13.43-30-30v-233c0-65.087 52.763-117.85 117.85-117.85z"/><path d="M991.223 444.263l108.58 58.85c32.072 17.385 43.98 57.476 26.6 89.55l-12.67 23.37" class="D"/><path d="M205.133 1222.063l-148.6 16.5c-58.08 6.45-58.48 95.5-6.35 114.3l154.94 55.88zm948.28 0l148.6 16.5c58.08 6.45 58.48 95.5 6.35 114.3l-154.94 55.88zm0-142.53v741.63a136.13 136.13 0 0 1-136.42 136.43h-675.43a136.13 136.13 0 0 1-136.43-136.43v-741.63z"/></g></svg>