<?xml version="1.0" encoding="UTF-8"?>
<svg xmlns="http://www.w3.org/2000/svg" width="2000" height="1716.67" viewBox="0 0 2000 1716.67">
  <g id="Layer_1" data-name="Layer 1">
    <g>
      <path d="M858.57,1685.7c371.56,0,807.81-197.69,807.81-646.77,0-105.78-361.67-203.01-807.81-203.01h-1.25c-446.14,0-807.81,97.23-807.81,203.01,0,449.08,436.25,646.77,807.81,646.77" style="fill: #fff; stroke: #3a3632; stroke-miterlimit: 10; stroke-width: 24px;"/>
      <path d="M942.91,1505.52c0,11.58-6.55,17.36-19.65,17.36h-124.45c-5.68,0-10.15-1.69-13.43-5.08-3.28-3.38-4.91-7.58-4.91-12.61,0-6.55,2.51-12.45,7.53-17.69l74.67-80.24c9.17-10.04,15.88-19.27,20.14-27.67,4.26-8.4,6.39-16.75,6.39-25.05,0-10.26-2.95-18.12-8.84-23.58-5.89-5.46-14.3-8.19-25.22-8.19-8.96,0-17.63,1.69-26.04,5.08-8.41,3.39-16.87,8.02-25.38,13.92-2.18,1.53-4.37,2.78-6.55,3.77-2.19,.98-4.37,1.47-6.55,1.47-3.72,0-6.93-1.75-9.66-5.24-2.73-3.49-4.09-7.64-4.09-12.45,0-3.28,.6-6.11,1.8-8.52,1.2-2.4,3.11-4.69,5.73-6.88,9.6-7.64,20.85-13.7,33.73-18.18,12.88-4.47,25.76-6.71,38.65-6.71,22.49,0,40.45,5.68,53.88,17.03,13.43,11.36,20.14,26.64,20.14,45.85,0,13.32-2.84,25.82-8.52,37.5-5.68,11.68-15.29,24.73-28.82,39.14l-56.66,60.26h86.46c13.1,0,19.65,5.57,19.65,16.7Z" style="fill: #231f20;"/>
      <path d="M1614.11,1032.77c0,50.69-338.25,125.8-755.49,125.8h-1.33c-417.25,0-755.49-75.11-755.49-125.8" style="fill: none; stroke: #3a3632; stroke-linecap: round; stroke-miterlimit: 10; stroke-width: 24px;"/>
    </g>
    <g>
      <path d="M794.18,584.17c30.77,27.77,77.56,27.77,108.33,0l20.84-18.81c30.77-27.77,77.56-27.77,108.33,0l20.84,18.81c30.77,27.77,77.56,27.77,108.33,0l20.84-18.81c30.77-27.77,77.56-27.77,108.33,0l20.84,18.81c30.77,27.77,77.56,27.77,108.33,0l20.84-18.81c30.77-27.77,77.56-27.77,108.33,0l20.84,18.81c30.77,27.77,77.56,27.77,108.33,0l20.84-18.81c30.77-27.77,77.56-27.77,108.33,0l20.84,18.81c30.77,27.77,77.56,27.77,108.33,0" style="fill: none; stroke: #a02021; stroke-linecap: round; stroke-width: 62.52px;"/>
      <path d="M794.18,491.72c30.77,27.77,77.56,27.77,108.33,0l20.84-18.81c30.77-27.77,77.56-27.77,108.33,0l20.84,18.81c30.77,27.77,77.56,27.77,108.33,0l20.84-18.81c30.77-27.77,77.56-27.77,108.33,0l20.84,18.81c30.77,27.77,77.56,27.77,108.33,0l20.84-18.81c30.77-27.77,77.56-27.77,108.33,0l20.84,18.81c30.77,27.77,77.56,27.77,108.33,0l20.84-18.81c30.77-27.77,77.56-27.77,108.33,0l20.84,18.81c30.77,27.77,77.56,27.77,108.33,0" style="fill: none; stroke: #a02021; stroke-linecap: round; stroke-width: 62.52px;"/>
      <path d="M794.18,399.27c30.77,27.77,77.56,27.77,108.33,0l20.84-18.81c30.77-27.77,77.56-27.77,108.33,0l20.84,18.81c30.77,27.77,77.56,27.77,108.33,0l20.84-18.81c30.77-27.77,77.56-27.77,108.33,0l20.84,18.81c30.77,27.77,77.56,27.77,108.33,0l20.84-18.81c30.77-27.77,77.56-27.77,108.33,0l20.84,18.81c30.77,27.77,77.56,27.77,108.33,0l20.84-18.81c30.77-27.77,77.56-27.77,108.33,0l20.84,18.81c30.77,27.77,77.56,27.77,108.33,0" style="fill: none; stroke: #a02021; stroke-linecap: round; stroke-width: 62.52px;"/>
      <path d="M794.18,214.37c30.77,27.77,77.56,27.77,108.33,0l20.84-18.81c30.77-27.77,77.56-27.77,108.33,0l20.84,18.81c30.77,27.77,77.56,27.77,108.33,0l20.84-18.81c30.77-27.77,77.56-27.77,108.33,0l20.84,18.81c30.77,27.77,77.56,27.77,108.33,0l20.84-18.81c30.77-27.77,77.56-27.77,108.33,0l20.84,18.81c30.77,27.77,77.56,27.77,108.33,0l20.84-18.81c30.77-27.77,77.56-27.77,108.33,0l20.84,18.81c30.77,27.77,77.56,27.77,108.33,0" style="fill: none; stroke: #a02021; stroke-linecap: round; stroke-width: 62.52px;"/>
      <path d="M794.18,306.82c30.77,27.77,77.56,27.77,108.33,0l20.84-18.81c30.77-27.77,77.56-27.77,108.33,0l20.84,18.81c30.77,27.77,77.56,27.77,108.33,0l20.84-18.81c30.77-27.77,77.56-27.77,108.33,0l20.84,18.81c30.77,27.77,77.56,27.77,108.33,0l20.84-18.81c30.77-27.77,77.56-27.77,108.33,0l20.84,18.81c30.77,27.77,77.56,27.77,108.33,0l20.84-18.81c30.77-27.77,77.56-27.77,108.33,0l20.84,18.81c30.77,27.77,77.56,27.77,108.33,0" style="fill: none; stroke: #a02021; stroke-linecap: round; stroke-width: 62.52px;"/>
      <path d="M794.18,121.92c30.77,27.77,77.56,27.77,108.33,0l20.84-18.81c30.77-27.77,77.56-27.77,108.33,0l20.84,18.81c30.77,27.77,77.56,27.77,108.33,0l20.84-18.81c30.77-27.77,77.56-27.77,108.33,0l20.84,18.81c30.77,27.77,77.56,27.77,108.33,0l20.84-18.81c30.77-27.77,77.56-27.77,108.33,0l20.84,18.81c30.77,27.77,77.56,27.77,108.33,0l20.84-18.81c30.77-27.77,77.56-27.77,108.33,0l20.84,18.81c30.77,27.77,77.56,27.77,108.33,0" style="fill: none; stroke: #a02021; stroke-linecap: round; stroke-width: 62.52px;"/>
      <path d="M794.18,541.79c30.77,27.77,77.56,27.77,108.33,0l20.84-18.81c30.77-27.77,77.56-27.77,108.33,0l20.84,18.81c30.77,27.77,77.56,27.77,108.33,0l20.84-18.81c30.77-27.77,77.56-27.77,108.33,0l20.84,18.81c30.77,27.77,77.56,27.77,108.33,0l20.84-18.81c30.77-27.77,77.56-27.77,108.33,0l20.84,18.81c30.77,27.77,77.56,27.77,108.33,0l20.84-18.81c30.77-27.77,77.56-27.77,108.33,0l20.84,18.81c30.77,27.77,77.56,27.77,108.33,0" style="fill: none; stroke: #dd576a; stroke-linecap: round; stroke-width: 42.38px;"/>
      <path d="M794.18,449.34c30.77,27.77,77.56,27.77,108.33,0l20.84-18.81c30.77-27.77,77.56-27.77,108.33,0l20.84,18.81c30.77,27.77,77.56,27.77,108.33,0l20.84-18.81c30.77-27.77,77.56-27.77,108.33,0l20.84,18.81c30.77,27.77,77.56,27.77,108.33,0l20.84-18.81c30.77-27.77,77.56-27.77,108.33,0l20.84,18.81c30.77,27.77,77.56,27.77,108.33,0l20.84-18.81c30.77-27.77,77.56-27.77,108.33,0l20.84,18.81c30.77,27.77,77.56,27.77,108.33,0" style="fill: none; stroke: #dd576a; stroke-linecap: round; stroke-width: 42.38px;"/>
      <path d="M794.18,356.89c30.77,27.77,77.56,27.77,108.33,0l20.84-18.81c30.77-27.77,77.56-27.77,108.33,0l20.84,18.81c30.77,27.77,77.56,27.77,108.33,0l20.84-18.81c30.77-27.77,77.56-27.77,108.33,0l20.84,18.81c30.77,27.77,77.56,27.77,108.33,0l20.84-18.81c30.77-27.77,77.56-27.77,108.33,0l20.84,18.81c30.77,27.77,77.56,27.77,108.33,0l20.84-18.81c30.77-27.77,77.56-27.77,108.33,0l20.84,18.81c30.77,27.77,77.56,27.77,108.33,0" style="fill: none; stroke: #dd576a; stroke-linecap: round; stroke-width: 42.38px;"/>
      <path d="M794.18,171.98c30.77,27.77,77.56,27.77,108.33,0l20.84-18.81c30.77-27.77,77.56-27.77,108.33,0l20.84,18.81c30.77,27.77,77.56,27.77,108.33,0l20.84-18.81c30.77-27.77,77.56-27.77,108.33,0l20.84,18.81c30.77,27.77,77.56,27.77,108.33,0l20.84-18.81c30.77-27.77,77.56-27.77,108.33,0l20.84,18.81c30.77,27.77,77.56,27.77,108.33,0l20.84-18.81c30.77-27.77,77.56-27.77,108.33,0l20.84,18.81c30.77,27.77,77.56,27.77,108.33,0" style="fill: none; stroke: #dd576a; stroke-linecap: round; stroke-width: 42.38px;"/>
      <path d="M794.18,264.44c30.77,27.77,77.56,27.77,108.33,0l20.84-18.81c30.77-27.77,77.56-27.77,108.33,0l20.84,18.81c30.77,27.77,77.56,27.77,108.33,0l20.84-18.81c30.77-27.77,77.56-27.77,108.33,0l20.84,18.81c30.77,27.77,77.56,27.77,108.33,0l20.84-18.81c30.77-27.77,77.56-27.77,108.33,0l20.84,18.81c30.77,27.77,77.56,27.77,108.33,0l20.84-18.81c30.77-27.77,77.56-27.77,108.33,0l20.84,18.81c30.77,27.77,77.56,27.77,108.33,0" style="fill: none; stroke: #dd576a; stroke-linecap: round; stroke-width: 42.38px;"/>
      <path d="M794.18,79.53c30.77,27.77,77.56,27.77,108.33,0l20.84-18.81c30.77-27.77,77.56-27.77,108.33,0l20.84,18.81c30.77,27.77,77.56,27.77,108.33,0l20.84-18.81c30.77-27.77,77.56-27.77,108.33,0l20.84,18.81c30.77,27.77,77.56,27.77,108.33,0l20.84-18.81c30.77-27.77,77.56-27.77,108.33,0l20.84,18.81c30.77,27.77,77.56,27.77,108.33,0l20.84-18.81c30.77-27.77,77.56-27.77,108.33,0l20.84,18.81c30.77,27.77,77.56,27.77,108.33,0" style="fill: none; stroke: #dd576a; stroke-linecap: round; stroke-width: 42.38px;"/>
    </g>
  </g>
  <g id="Layer_2" data-name="Layer 2">
    <g>
      <path d="M460.81,982.95v-141.54c0-288.12,271.9-318.88,271.9-318.88" style="fill: none; stroke: #221f1f; stroke-linecap: round; stroke-linejoin: round; stroke-width: 24px;"/>
      <polyline points="583.81 846.68 460.81 991.65 337.81 846.68" style="fill: none; stroke: #221f1f; stroke-linecap: round; stroke-linejoin: round; stroke-width: 24px;"/>
    </g>
  </g>
</svg>