<svg xmlns="http://www.w3.org/2000/svg" height="1642.751" width="1923.95"  xmlns:v="https://vecta.io/nano"><path d="M555.78 1279.21l-3.75 5.52h-.14l-.27-.1-.55-.2-1.1-.4-2.18-.83-4.4-1.55-8.8-3-17.54-6.07-35-11.62c-23.23-7.64-46.6-14.5-69.8-21.4q-17.4-5.14-34.94-9.77l-34.86-9.5-69.07-17.13-71.73-16.87c-24-5.26-48.3-9.77-72.05-15.75s-46.83-13.9-68.9-24.85c-11.1-5.27-21.88-11.5-32.6-17.9-5.57-2.6-10.17-8.08-13-18.8a78 78 0 0 1-1.87-8.83l-1.13-11.08v-.33a81.5 81.5 0 0 1 18.45-55.1l.17-.2 7.58-8.17a80.12 80.12 0 0 1 6.84-5.92c8.77-6.83 15.8-8.42 21.85-7.15 12.52 1.35 25 2.88 37.13 5.37 24.42 4.56 47.84 12.16 70.57 21.7s45 20.55 67.43 30.8l67.7 29.68c23.83 11.33 45.9 23.55 67.82 36.47 11 6.4 21.86 12.94 32.63 19.68s21.3 13.87 31.8 21c21.06 14.16 41.4 29.53 61.12 45.47 9.8 8.08 19.55 16.17 28.9 24.8 4.7 4.23 9.33 8.6 13.9 13l6.74 6.73 5.02 5.05.83.85.73.73c-1.56 2.52 3.7-5.5-3.5 5.65z" fill="#231f20"/><g stroke="#231f20" stroke-width="24" stroke-miterlimit="10"><path d="M1129.33 1130.43h1.32c431.5 0 781.3 68.6 781.3 170.9-19.33 79.25-74.64 190.52-141.4 241.5-53.54 36.65-364.3 87.9-639.85 87.9h-3.9c-275.53 0-586.3-51.26-639.84-87.9-66.78-51-122.1-162.25-141.42-241.5 0-102.3 349.8-170.9 781.3-170.9h1.2" fill="#fff"/><path d="M1858.78 1295.39c0 49-327.14 121.67-730.7 121.67h-1.3c-403.56 0-730.7-72.65-730.7-121.67" fill="none" stroke-linecap="round"/></g><g fill="#231f20"><circle r="15.48" cy="1254.361" cx="579.05"/><circle r="15.48" cy="1291.511" cx="481.36"/></g><path d="M858.78 1338.66s-26.82-535.9 644.17-689.3l-112.8 166.85c-334.7 126.14-273.76 530.1-273.76 530.1" fill="#fff"/><path d="M1390.16 816.2c-334.7 126.14-273.76 530.1-273.76 530.1m-257.62-7.65s-26.82-535.9 644.17-689.3" stroke="#231f20" stroke-width="24" fill="none" stroke-linecap="round" stroke-linejoin="round"/><path d="M1530.65 570.26l-180.88 310c96.27 69.17 252.33 48 307.67-47.22 48.5-83.46 23.5-191.2-54.07-257.7a1213.77 1213.77 0 0 1-103.06-100.32l-292.93-317.65a12.84 12.84 0 0 1-1.34-1.79 22.87 22.87 0 0 0-2.1-2.79c-15.9-18-39.8-56.92-23.66-80.85 20.43-30.3 61.3-7.17 80.92 11.5 9.25 8.75 19.52 20 32.07 17.72s18.44-18.18 14.54-30.44-14.26-20.8-24.6-28.15c-26.24-18.4-60.25-36.27-93.2-28.85a71.59 71.59 0 0 0-33 17.84h0a79.91 79.91 0 0 0-24.55 50.86c-3.14 34.06 12.87 69 34.08 94.92a13.08 13.08 0 0 1 1.08 1.59 17.23 17.23 0 0 0 1.67 2.38z" fill="#231f20"/></svg>