<svg xmlns="http://www.w3.org/2000/svg" xmlns:xlink="http://www.w3.org/1999/xlink" height="1864.02" width="1982.26" xmlns:v="https://vecta.io/nano"><g fill="#fff" stroke="#231f20" stroke-width="24" stroke-miterlimit="10"><path d="M990.75 1400.02h401.48a46.44 46.44 0 0 1 46.44 46.44h0a46.44 46.44 0 0 1-46.44 46.44H990.75"/><path d="M509.57 1852.02C280.7 1852.02 12 1730.25 12 1453.64c0-106.6 222.77-193 497.57-193s497.55 86.38 497.55 193c0 276.6-268.7 398.38-497.55 398.38z"/></g><g fill="#939598"><ellipse ry="13.58" rx="13.63" cy="1678.97" cx="509.57"/><ellipse ry="13.58" rx="13.63" cy="1733.07" cx="509.57"/><ellipse ry="13.58" rx="13.63" cy="1787.17" cx="509.57"/><path d="M588.18 1772.56c6.32 4.52 8.2 14 3.83 20.9s-12.9 8.46-18.9 3.55a16.34 16.34 0 0 1-3.53-20.68 12.8 12.8 0 0 1 18.59-3.78zm26.72-50.98c6.67 3.8 9.35 13 5.66 20.37s-12 9.84-18.52 5.58a16.11 16.11 0 0 1-5.37-20.2c3.46-6.94 11.46-9.6 18.23-5.75zm21.43-53.95c7.2 2.73 10.83 11.56 7.95 19.55s-11 11.43-17.85 7.95a15.85 15.85 0 0 1-7.43-19.31 13.32 13.32 0 0 1 17.33-8.19zm42.87 95.7c5.34 5.25 5.8 13.6.68 18.42s-13.36 4-18.34-1.7-5.1-13.77-.4-18.1 12.64-3.92 18.05 1.4zm32.08-36.25c6 4.67 7.17 12.78 2.77 18.16s-12.8 5.45-18.4.47-6.64-13-2.52-18 12.26-5.25 18.15-.63zm27.84-39.64c6.44 3.9 8.76 12 4.83 17.76s-12.08 6.92-18.22 2.54-8-12.15-4.53-17.56 11.43-6.63 17.92-2.74zm21.76-43.17c7.08 2.57 10.58 10.1 7.8 16.82-3.08 6.46-11 8.85-17.72 5.37s-9.87-10.88-7.16-16.53c2.33-5.7 10-8.23 17.1-5.66zm36.82 83.83a12.8 12.8 0 1 1-19.78 16.12c-4.57-6-4-14.26 1.4-18.5 5.2-4.36 13.44-3.3 18.38 2.4zm36.03-35.78a12.8 12.8 0 1 1-17.41 18.7c-5.2-5.35-5.72-13.66-1.05-18.47s12.7-5.12 18.46-.23zm29.45-41.3c6.55 3.72 9 12.06 4.8 18.28-4 6.35-12.55 7.57-18.62 3.15s-7.76-12.3-4.3-18c3.7-5.43 11.58-7.17 18.12-3.43zm21.12-46.17c7.05 2.4 11.06 10.14 8.22 17a13 13 0 0 1-17.62 6.67c-6.82-3.2-10.27-10.73-7.68-16.83s9.9-9.3 17.08-6.84zm-454.5 167.7a12.81 12.81 0 0 1 18.64 3.73 16.34 16.34 0 0 1-3.53 20.73c-6 5-14.7 3.52-18.94-3.5s-2.48-16.44 3.83-20.96zm-26.68-50.98c6.74-3.84 14.75-1.2 18.23 5.75a16.1 16.1 0 0 1-5.36 20.2c-6.5 4.26-14.88 1.8-18.52-5.58s-1.03-16.58 5.65-20.37zm-21.46-53.95a13.33 13.33 0 0 1 17.34 8.19 15.85 15.85 0 0 1-7.43 19.31c-6.86 3.48-14.9 0-17.86-7.95s.77-16.82 7.95-19.55zm-42.86 95.7c5.4-5.3 13.38-5.78 18.05-1.4s4.5 12.47-.4 18.1-13.18 6.48-18.34 1.7-4.66-13.17.68-18.42zm-32.1-36.25c5.9-4.62 14.06-4.34 18.16.67s3.13 12.92-2.53 18-14 4.9-18.4-.47-3.2-13.53 2.76-18.2zm-27.78-39.64c6.45-3.9 14.3-2.58 17.92 2.74 3.48 5.4 1.6 13.2-4.53 17.56s-14.43 3.35-18.23-2.54-1.6-13.86 4.84-17.76zm-21.8-43.17c7.07-2.57 14.74 0 17.08 5.66 2.72 5.65-.47 13-7.15 16.53s-14.64 1.1-17.72-5.37c-2.8-6.7.7-14.25 7.8-16.82zm-36.82 83.83c5-5.68 13.17-6.75 18.4-2.4s6 12.55 1.4 18.5a12.8 12.8 0 1 1-19.79-16.12zm-36.03-35.78c5.77-4.9 13.92-4.72 18.46.18s4.14 13.12-1.05 18.47a12.8 12.8 0 1 1-17.41-18.65zm-29.45-41.3c6.54-3.7 14.4-2 18.1 3.48 3.48 5.64 1.82 13.5-4.28 18s-14.67 3.2-18.62-3.15c-4.16-6.33-1.76-14.64 4.8-18.33zm-21.12-46.17c7.2-2.45 14.55.76 17.08 6.88s-.86 13.64-7.68 16.83a13 13 0 0 1-17.62-6.67c-2.84-6.87 1.16-14.64 8.22-17.04z"/><use xlink:href="#B"/><use xlink:href="#B" y="35.25"/><use xlink:href="#B" y="70.48"/><use xlink:href="#B" y="105.72"/><use xlink:href="#C"/><use xlink:href="#C" y="35.22"/><use xlink:href="#C" y="70.5"/><use xlink:href="#C" y="105.73"/><path d="M574.82 1559.8c4.68 1.92 6.7 7.4 4.55 12.28-2.34 4.87-7.9 6.9-12.36 4.48a9.25 9.25 0 0 1 7.81-16.76zm12.62-34.6a9.25 9.25 0 1 1-11.53 5.83 9.15 9.15 0 0 1 11.53-5.83zm10.68-35.25a9.25 9.25 0 1 1-11.29 6.34 9.13 9.13 0 0 1 11.29-6.34zm9.55-35.58a9.25 9.25 0 1 1-11.11 6.65 9.15 9.15 0 0 1 11.11-6.65zm8.8-35.77a9.25 9.25 0 1 1-11 6.86 9.14 9.14 0 0 1 11-6.86zm8.23-35.9a9.25 9.25 0 1 1-10.89 7 9.15 9.15 0 0 1 10.89-7zm7.75-36.02a9.25 9.25 0 1 1-10.8 7.16 9.16 9.16 0 0 1 10.8-7.16zm7.37-36.1a9.25 9.25 0 1 1-10.73 7.28 9.17 9.17 0 0 1 10.73-7.28zm26.98 246.65a8.76 8.76 0 1 1-11 13.6c-3.64-3.4-4.2-8.8-1.4-12.35a9.11 9.11 0 0 1 12.4-1.25zm18.73-29.4a8.76 8.76 0 1 1-9 15c-4.2-2.68-5.65-8.1-3.22-12.12a9 9 0 0 1 12.22-2.88zm16.27-30.82a8.76 8.76 0 1 1-7.94 15.6 8.76 8.76 0 1 1 7.94-15.6zm14.7-31.62a8.76 8.76 0 1 1-7.21 15.95 8.76 8.76 0 1 1 7.21-15.95zm13.47-32.14a8.76 8.76 0 1 1-6.63 16.2 8.76 8.76 0 1 1 6.63-16.2zm12.43-32.58a8.76 8.76 0 1 1-11.53 5 8.9 8.9 0 0 1 11.53-5zm11.32-32.96a8.75 8.75 0 1 1-11.35 5.44 8.89 8.89 0 0 1 11.35-5.44zm9.82-33.45a8.76 8.76 0 1 1-4.69 16.87 8.76 8.76 0 1 1 4.69-16.87zm22.36 191.23a8.8 8.8 0 1 1-12.48-1.7 8.92 8.92 0 0 1 12.48 1.7zm26.37-23.06a8.81 8.81 0 1 1-13 11.88 8.805 8.805 0 1 1 13-11.88zm24.03-25.5a8.8 8.8 0 1 1-11.71 13.13 9.15 9.15 0 0 1-.87-12.54c3.1-3.5 8.77-3.75 12.58-.6zm20.7-28.24a8.81 8.81 0 1 1-10 14.5c-4-3-5.06-8.5-2.32-12.3a9 9 0 0 1 12.32-2.21zm16.96-30.68a8.8 8.8 0 1 1-8 15.66 9.18 9.18 0 0 1-4-11.89c2.07-4.15 7.44-5.84 12-3.77zm12.78-32.6a8.8 8.8 0 1 1-5.87 16.59c-4.62-1.83-7.18-6.92-5.6-11.32s6.75-6.74 11.47-5.27zM443.18 1559.8a9.25 9.25 0 0 1 7.81 16.76c-4.48 2.42-10 .4-12.36-4.48-2.14-4.88-.14-10.36 4.55-12.28zm-12.62-34.6a9.25 9.25 0 1 1-5.67 11.72 9.19 9.19 0 0 1 5.67-11.72zm-10.68-35.25a9.25 9.25 0 1 1-6.16 11.43 9.21 9.21 0 0 1 6.16-11.43zm-9.55-35.58a9.25 9.25 0 1 1-6.47 11.26 9.2 9.2 0 0 1 6.47-11.26zm-8.8-35.77a9.25 9.25 0 1 1-6.68 11.12 9.19 9.19 0 0 1 6.68-11.12zm-8.23-35.9a9.25 9.25 0 1 1-6.85 11 9.19 9.19 0 0 1 6.85-11zm-7.75-36.02a9.25 9.25 0 1 1-7 10.94 9.19 9.19 0 0 1 7-10.94zm-7.37-36.1a9.25 9.25 0 1 1-7.09 10.87 9.19 9.19 0 0 1 7.09-10.87zm-27 246.65a9.11 9.11 0 0 1 12.4 1.25c2.8 3.54 2.25 8.94-1.4 12.35a8.77 8.77 0 1 1-11-13.6zm-18.7-29.4a9 9 0 0 1 12.2 2.89c2.44 4 1 9.44-3.2 12.12a8.76 8.76 0 1 1-9-15zm-16.3-30.82a8.76 8.76 0 1 1 7.95 15.6 8.76 8.76 0 1 1-7.95-15.6zm-14.68-31.62a8.76 8.76 0 1 1 7.22 15.95 8.76 8.76 0 1 1-7.22-15.95zm-13.47-32.14a8.76 8.76 0 1 1-5.13 11.55 8.87 8.87 0 0 1 5.13-11.55zm-12.43-32.58a8.76 8.76 0 1 1-5.51 11.39 9 9 0 0 1 5.51-11.39zm-11.32-32.96a8.76 8.76 0 1 1-5.89 11.19 9 9 0 0 1 5.89-11.19zm-9.82-33.45a8.76 8.76 0 1 1 4.68 16.87 8.76 8.76 0 1 1-4.68-16.87zm-22.34 191.23a8.81 8.81 0 1 1 1.31 12.64 9 9 0 0 1-1.31-12.64zm-26.4-23.06a8.805 8.805 0 1 1 13 11.88 8.81 8.81 0 1 1-13-11.88zm-24.03-25.5c3.82-3.16 9.48-2.92 12.6.6a9.16 9.16 0 0 1-.87 12.54 8.81 8.81 0 1 1-11.72-13.13zM161 1448.7a9 9 0 0 1 12.29 2.21c2.74 3.78 1.7 9.28-2.33 12.3a8.81 8.81 0 1 1-10-14.5zm-16.96-30.68c4.55-2.1 9.93-.4 12 3.77a9.18 9.18 0 0 1-4 11.89 8.8 8.8 0 1 1-8-15.66zm-12.78-32.6c4.7-1.47 9.92.86 11.47 5.27s-1 9.5-5.6 11.32a8.8 8.8 0 1 1-5.87-16.59z"/></g><g stroke="#231f20" stroke-width="24"><g stroke-miterlimit="10"><path d="M1007.12 1449.85c0 91.63-222.77 165.9-497.57 165.9S12 1541.48 12 1449.85" fill="none"/><path d="M615.03 1583.27c0-331.87 184.18-600.9 411.37-600.9v-78.6c-340.8 0-669.7 299-669.7 674.22" stroke-linecap="round" fill="#fff"/></g><path d="M1351.4 204.08l67.7-158c26.46-61.74 124.57-32.5 127.87 31.13l9.83 189.1zm-253.9 837.86l-31.37 169c-12.27 66 85.57 96.18 123.64 45.1l113.13-151.84zm128-876l655.26 198.55a125.69 125.69 0 0 1 84 157.07l-180.86 596.77a125.66 125.66 0 0 1-157.06 84L971.6 1003.78z" fill="#fff" stroke-linejoin="round"/></g><defs ><path id="B" d="M509.57 1327.85a8.85 8.85 0 1 1 9.09-8.85 9 9 0 0 1-9.09 8.85z"/><path id="C" d="M509.57 1468.8a8.85 8.85 0 1 1 9.09-8.84 9 9 0 0 1-9.09 8.84z"/></defs></svg>