<svg xmlns="http://www.w3.org/2000/svg" height="1924.004" width="1776.15"  xmlns:v="https://vecta.io/nano"><style><![CDATA[.B{stroke-linecap:round}.C{stroke-miterlimit:10}]]></style><g fill="#fff" stroke="#231f20" stroke-width="24" class="C"><path d="M1750 184.474l-774.13 863.2c-24.37 27.18-60.15 23-79.32-8.43L787.6 860.864c-15.18-24.87-10.3-63.3 10.5-86.5L1459 37.394c20.8-23.2 58.48-32.22 84.85-19.82l189.17 89c33.3 15.6 41.36 50.72 17 77.9z"/><path d="M1640.57 155.614c-11.45 12.76-32.76 16.64-47.4 8.77l-86.57-46.52c-13.08-7-14.94-22.25-4.33-34.07s29.9-16 43.26-9.34l88.5 44.4c14.96 7.5 17.98 24.02 6.54 36.77zm-878.6 1756.4c344.4 0 748.8-183.26 748.8-599.53 0-98.06-335.25-188.18-748.8-188.18h-1.15c-413.55 0-748.8 90.12-748.8 188.18 0 416.27 404.4 599.53 748.8 599.53"/></g><path d="M757.45 1746.224v-134.9q-37.65 28.9-50.7 28.9a14.94 14.94 0 0 1-11-5 16 16 0 0 1-4.82-11.48q0-7.56 4.74-11.12 4.74-3.56 16.75-9.2 17.94-8.46 28.7-17.8a121.9 121.9 0 0 0 19-20.9q8.3-11.57 10.82-14.23 2.52-2.66 9.5-2.67a15.15 15.15 0 0 1 12.59 6.08q4.76 6.08 4.75 16.75v169.73q0 29.8-20.3 29.8-9 0-14.53-6.08-5.53-6.08-5.47-17.9z" fill="#231f20"/><path d="M1462.3 1306.764c0 47-313.54 116.6-700.3 116.6h-1.23c-386.77 0-700.3-69.62-700.3-116.6" fill="none" stroke="#231f20" stroke-width="24" class="B C"/><g fill="#f47a20" stroke="#020202" stroke-width="9.558" stroke-linejoin="round"><path d="M787.73 945.584c15.48-6.27 35.82 48.62 35.82 48.62-2.76 20.92-24.44 11.77-32.3 23.3s-45.75-48.52-27.93-54c13.32-4 24.4-17.9 24.4-17.9z"/><path d="M775.63 970.724s9.78 29.9 20.54 36.62" class="B"/><path d="M943.2 867.724c15.66-5.78 34.28 49.7 34.28 49.7-3.42 20.83-24.8 11-33 22.27s-44.23-49.93-26.28-54.84c13.43-3.58 25-17.14 25-17.14z"/><path d="M930.27 892.444s8.84 30.2 19.4 37.25" class="B"/><path d="M683.9 1029.244c15.62 5.9-6.72 60-6.72 60-16.24 13.48-25.94-8-39.53-4.83s-.62-66.7 16.15-58.58c12.5 6.03 30.1 3.4 30.1 3.4z"/><path d="M657.94 1039.424s-13.13 28.6-9.8 40.83" class="B"/><path d="M604.93 1147.624c11.74-11.87 52.12 30.5 52.12 30.5 5.72 20.32-17.8 20.48-20.47 34.16s-61.2-26.5-47-38.54c10.63-8.97 15.35-26.13 15.35-26.13z"/><path d="M603.73 1175.484s20.8 23.6 33.34 25.52" class="B"/><path d="M1215.2 611.234c10 13.4-38 47-38 47-20.94 2.6-17.57-20.67-30.7-25.36s35.37-56.53 45.14-40.67c7.33 11.8 23.56 19.03 23.56 19.03z"/><path d="M1187.9 605.864s-26.46 17-30.23 29.14" class="B"/><path d="M736.67 1140.864c11.74-11.87 52.1 30.5 52.1 30.5 5.73 20.3-17.8 20.47-20.46 34.16s-61.2-26.5-47-38.54c10.62-9.03 15.35-26.13 15.35-26.13z"/><path d="M735.43 1168.664s20.8 23.6 33.35 25.52" class="B"/><path d="M956.05 785.024c11.74-11.88 52.1 30.5 52.1 30.5 5.73 20.3-17.8 20.47-20.46 34.15s-61.2-26.5-47-38.54c10.63-8.97 15.35-26.12 15.35-26.12z"/><path d="M954.8 812.864s20.8 23.6 33.35 25.52" class="B"/><path d="M1067.9 715.414c16.56-2.2 22.54 56 22.54 56-7.9 19.57-26.6 5.3-37.1 14.5s-32.17-58.42-13.56-59.23c13.88-.6 28.1-11.26 28.1-11.26z"/><path d="M1049.87 736.724s2 31.4 10.75 40.6" class="B"/><path d="M860.02 924.384c1.83-16.6 59.8-8.43 59.8-8.43 17.1 12.37-1.25 27.1 5.16 39.5s-64.43 17.2-60.76-1.06c2.75-13.66-4.2-30-4.2-30z"/><path d="M876.34 946.994s31 5.6 42-.7" class="B"/><path d="M991.35 751.604c0-16.7 58.52-14.92 58.52-14.92 18.35 10.42 1.72 27.07 9.45 38.68s-62.16 24.16-60.5 5.6c1.23-13.83-7.47-29.36-7.47-29.36z"/><path d="M1010.05 772.284s31.4 2.18 41.66-5.28" class="B"/><path d="M774.2 1003.364c1.7-16.6 59.72-9 59.72-9 17.2 12.22-1 27.1 5.52 39.44s-64.27 17.8-60.76-.5c2.6-13.57-4.48-29.93-4.48-29.93z"/><path d="M790.73 1025.864s31 5.3 42-1.07" class="B"/><path d="M987.53 880.094c-6.22 15.5-59.86-7.92-59.86-7.92-13.15-16.5 8.47-25.78 5.62-39.42s66.7.7 58.24 17.32c-6.32 12.38-4 30.02-4 30.02z"/><path d="M977.88 853.944s-28.33-13.7-40.63-10.6" class="B"/><path d="M1035.26 808.984c14.67 8-14.84 58.54-14.84 58.54-17.92 11.14-24.6-11.42-38.5-10.18s8.48-66.15 24-55.83c11.55 7.7 29.34 7.47 29.34 7.47z"/><path d="M1008.2 815.534s-16.9 26.54-15.26 39.12" class="B"/><path d="M871.8 941.654c2.5 16.5-55.62 23.54-55.62 23.54-19.7-7.56-5.76-26.52-15.14-36.83s57.83-33.2 59-14.6c.83 13.86 11.76 27.9 11.76 27.9z"/><path d="M850.2 924.014s-31.36 2.56-40.4 11.47" class="B"/><path d="M825.52 980.444c-7.22-15.06 46.3-38.8 46.3-38.8 21 1.46 13.27 23.67 25.26 30.78s-45.58 48.7-52.12 31.3c-4.87-13.06-19.43-23.28-19.43-23.28z"/><path d="M851.33 990.994s29.23-11.63 35.26-22.8" class="B"/><path d="M738.6 995.304c11.74-11.87 52.12 30.52 52.12 30.52 5.73 20.3-17.8 20.47-20.46 34.15s-61.2-26.5-47-38.54c10.6-8.97 15.34-26.13 15.34-26.13z"/><path d="M737.37 1023.164s20.8 23.56 33.36 25.56" class="B"/><path d="M686.48 1060.864c3.52-16.32 60.34-2.26 60.34-2.26 15.75 14-4 26.83 1.1 39.8s-65.86 10.53-60.33-7.26c4.14-13.28-1.1-30.28-1.1-30.28z"/><path d="M700.4 1085.054s30.23 8.73 41.83 3.6" class="B"/><path d="M770.73 1048.724c11.75-11.88 52.12 30.5 52.12 30.5 5.72 20.3-17.8 20.47-20.47 34.16s-61.17-26.53-47-38.53c10.6-9 15.35-26.14 15.35-26.14z"/><path d="M769.48 1076.534s20.8 23.6 33.34 25.52" class="B"/><path d="M850.32 1083.804c10.36 13.1-36.62 48-36.62 48-20.86 3.2-18.15-20.16-31.4-24.47s33.75-57.52 44-41.94c7.58 11.64 24.03 18.4 24.03 18.4z"/><path d="M822.83 1079.194s-26 17.77-29.4 30" class="B"/><path d="M1075.1 666.114c11.74-11.87 52.1 30.5 52.1 30.5 5.73 20.32-17.8 20.47-20.46 34.16s-61.2-26.5-47-38.54c10.62-8.97 15.35-26.13 15.35-26.13z"/><path d="M1073.85 693.964s20.8 23.6 33.35 25.53" class="B"/><path d="M887.73 862.584c11.74-11.88 52.1 30.5 52.1 30.5 5.73 20.3-17.8 20.47-20.46 34.16s-61.2-26.5-47-38.54c10.6-9 15.35-26.13 15.35-26.13z"/><path d="M886.47 890.434s20.8 23.6 33.35 25.52" class="B"/><path d="M648.54 1142.424c-12.28-11.3 28.63-53.17 28.63-53.17 20.1-6.45 21.1 17.06 34.87 19.23s-24.3 62.1-36.84 48.32c-9.34-10.27-26.66-14.38-26.66-14.38z"/><path d="M676.42 1142.664s22.85-21.63 24.3-34.24" class="B"/><path d="M696.32 984.164c15.8-5.4 33 50.54 33 50.54-3.93 20.74-25.06 10.4-33.55 21.46s-43-51-24.87-55.44c13.54-3.3 25.42-16.56 25.42-16.56z"/><path d="M682.8 1008.544s8.1 30.4 18.47 37.7" class="B"/><path d="M701.43 931.664c3.17-16.4 60.28-3.56 60.28-3.56 16 13.72-3.44 26.9 2 39.78s-65.67 11.98-60.5-6.02c3.82-13.3-1.78-30.2-1.78-30.2z"/><path d="M715.87 955.514s30.4 8.1 41.9 2.72" class="B"/></g></svg>