<?xml version="1.0" encoding="UTF-8" standalone="no"?>
<svg
   xmlns:dc="http://purl.org/dc/elements/1.1/"
   xmlns:cc="http://creativecommons.org/ns#"
   xmlns:rdf="http://www.w3.org/1999/02/22-rdf-syntax-ns#"
   xmlns:svg="http://www.w3.org/2000/svg"
   xmlns="http://www.w3.org/2000/svg"
   xmlns:xlink="http://www.w3.org/1999/xlink"
   xmlns:sodipodi="http://sodipodi.sourceforge.net/DTD/sodipodi-0.dtd"
   xmlns:inkscape="http://www.inkscape.org/namespaces/inkscape"
   inkscape:version="1.0beta1 (32d4812, 2019-09-19)"
   sodipodi:docname="pour_paste_bowl2_muffin_mold_ladle.svg"
   id="svg3867"
   version="1.1"
   width="1924"
   height="1559.95">
  <metadata
     id="metadata3871">
    <rdf:RDF>
      <cc:Work
         rdf:about="">
        <dc:format>image/svg+xml</dc:format>
        <dc:type
           rdf:resource="http://purl.org/dc/dcmitype/StillImage" />
      </cc:Work>
    </rdf:RDF>
  </metadata>
  <sodipodi:namedview
     inkscape:current-layer="svg3867"
     inkscape:window-maximized="0"
     inkscape:window-y="199"
     inkscape:window-x="417"
     inkscape:cy="779.97498"
     inkscape:cx="247.97879"
     inkscape:zoom="0.17436457"
     showgrid="false"
     id="namedview3869"
     inkscape:window-height="604"
     inkscape:window-width="1325"
     inkscape:pageshadow="2"
     inkscape:pageopacity="0"
     guidetolerance="10"
     gridtolerance="10"
     objecttolerance="10"
     borderopacity="1"
     inkscape:document-rotation="0"
     bordercolor="#666666"
     pagecolor="#ffffff" />
  <style
     id="style3824"><![CDATA[.B{fill:#fff}.C{fill:none}.D{stroke:#231f20}.E{stroke-width:24}.F{stroke-miterlimit:10}.G{stroke-linecap:round}.H{stroke-width:8.04}]]></style>
  <path
     id="path3826"
     class="B D E F"
     d="M1238.75 700.48c301 0 654.5-160.17 654.5-524 0-85.7-293-164.48-654.5-164.48h-1c-361.47 0-654.5 78.78-654.5 164.48 0 363.86 353.46 524 654.5 524" />
  <path
     id="path3830"
     class="C D E F G"
     d="M1850.9 171.47c0 41.07-274.05 101.92-612.1 101.92h-1.08c-338.06 0-612.1-60.85-612.1-101.92" />
  <path
     id="path3832"
     class="B"
     d="M181.9 1435.9c12.18-82.2 67.37-409.46 360.38-495.65l-84.3 113.2c-127.2 71.14-151.36 337.06-141.75 382.46" />
  <path
     id="path3834"
     class="C D G H"
     stroke-linejoin="round"
     d="M458 1053.43c-127.2 71.14-151.36 337.06-141.75 382.46m-134.35.01c12.18-82.2 67.37-409.46 360.38-495.65" />
  <path
     id="path3836"
     fill="#231f20"
     d="M563 737.35l-134.18 348.2c110.26 55 266.9 7.4 307.9-99.52 35.93-93.7-7.6-200.12-98.26-255.5A1263.77 1263.77 0 0 1 516 644.68l-353.3-277.4a14.12 14.12 0 0 1-1.67-1.61 23.1 23.1 0 0 0-2.62-2.52c-19.3-15.8-50.3-51.8-37.7-79 15.94-34.5 61.7-17.54 84.95-1.63 11 7.45 23.36 17.3 35.85 12.87s15.9-21.73 9.87-33.66-18.08-19-29.9-24.8c-30-14.53-67.85-27.23-100.44-14.14a74.51 74.51 0 0 0-30.95 23.79h0a83 83 0 0 0-16.75 56.27c2.43 35.47 24.66 68.7 50.73 91.75a13.52 13.52 0 0 1 1.37 1.46 18.8 18.8 0 0 0 2.11 2.17z" />
  <g
     id="g3862"
     class="D F">
    <g
       id="g3854"
       class="H">
      <use
         id="use3838"
         class="B"
         xlink:href="#B" />
      <path
         id="path3840"
         class="C"
         d="M236.5 1345.32v184.92m58.24-184.92l-21.32 184.92m79.55-184.92l-42.64 184.92m-132.05-184.92l21.32 184.92m-79.55-184.92l42.64 184.92" />
      <use
         id="use3842"
         class="B"
         x="481.1"
         xlink:href="#B" />
      <path
         id="path3844"
         class="C"
         d="M717.6 1345.32v184.92m58.24-184.92l-21.32 184.92m79.55-184.92l-42.64 184.92m-132.05-184.92l21.32 184.92m-79.55-184.92l42.64 184.92" />
      <path
         id="path3846"
         class="B"
         d="M1309.44 1530.24l63.96-184.92-29.1-21.48-29.12 21.48-29.1-21.48-29.12 21.48-29.1-21.48-29.12 21.48-29.12-21.48-29.1 21.48-29.12-21.48-29.1 21.48-29.12-21.48-29.1 21.48 63.96 184.92z" />
      <path
         id="path3848"
         class="C"
         d="M1198.7 1345.32v184.92m58.24-184.92l-21.32 184.92m79.55-184.92l-42.64 184.92m-132.05-184.92l21.32 184.92m-79.55-184.92l42.64 184.92" />
      <path
         id="path3850"
         class="B"
         d="M1790.54 1530.24l63.96-184.92-29.1-21.48-29.12 21.48-29.12-21.48-29.1 21.48-29.12-21.48-29.1 21.48-29.12-21.48-29.1 21.48-29.12-21.48-29.1 21.48-29.12-21.48-29.1 21.48 63.96 184.92z" />
      <path
         id="path3852"
         class="C"
         d="M1679.8 1345.32v184.92m58.24-184.92l-21.32 184.92m79.55-184.92l-42.64 184.92m-132.05-184.92l21.32 184.92m-79.55-184.92l42.64 184.92" />
    </g>
    <g
       id="g3860"
       class="B E">
      <path
         id="path3856"
         class="G"
         opacity="1"
         d="M12 1406.38h1900" />
      <path
         id="path3858"
         opacity="1"
         d="M562.15 1406.38h310.92l-30.4 141.57H592.55zm-481.1 0H392l-30.4 141.57H111.45zm962.2 0h310.92l-30.4 141.57h-250.12zm481.1 0h310.92l-30.4 141.57h-250.12z" />
    </g>
  </g>
  <defs
     id="defs3865">
    <path
       d="M347.24 1530.24l63.96-184.92-29.1-21.48-29.12 21.48-29.1-21.48-29.12 21.48-29.1-21.48-29.12 21.48-29.1-21.48-29.12 21.48-29.12-21.48-29.1 21.48-29.12-21.48-29.1 21.48 63.96 184.92z"
       id="B" />
  </defs>
  <path
     inkscape:connector-curvature="0"
     d="m 1199.6738,546.73925 h 67.64 q 10.1,0 15.42,4.14 a 13.56,13.56 0 0 1 5.31,11.28 15,15 0 0 1 -4.21,10.75 q -4.2,4.4 -12.76,4.4 h -95.37 q -9.7,0 -15.15,-5.38 a 17.19,17.19 0 0 1 -5.45,-12.63 q 0,-4.66 3.5,-12.38 a 44.18,44.18 0 0 1 7.65,-12.11 q 17.22,-17.88 31.1,-30.65 13.87,-12.77 19.83,-16.77 a 114.72,114.72 0 0 0 17.68,-15.1 60.17,60.17 0 0 0 10.76,-15.55 37,37 0 0 0 3.69,-15.61 28.2,28.2 0 0 0 -4,-14.84 27.42,27.42 0 0 0 -10.75,-10.17 31.11,31.11 0 0 0 -14.83,-3.62 q -17,0 -26.7,14.9 -1.3,1.93 -4.34,10.62 -3.04,8.7 -6.87,13.35 -3.82,4.66 -11.2,4.66 a 14.54,14.54 0 0 1 -10.75,-4.28 q -4.27,-4.28 -4.28,-11.66 a 48.68,48.68 0 0 1 4,-18.65 53.41,53.41 0 0 1 12,-17.63 59.51,59.51 0 0 1 20.26,-12.76 q 12.24,-4.86 28.7,-4.86 19.82,0 33.8,6.22 a 51.06,51.06 0 0 1 15.94,11.4 53.5,53.5 0 0 1 14.51,36.54 55.33,55.33 0 0 1 -8,29.22 q -8,13.15 -16.26,20.6 -8.26,7.45 -27.8,23.4 -19.5,15.93 -26.76,24.75 a 74,74 0 0 0 -6.32,8.42 z"
     fill="#231f20"
     id="path2637" />
</svg>
