<svg xmlns="http://www.w3.org/2000/svg" height="1739.77" width="1924"  xmlns:v="https://vecta.io/nano"><g fill="#fff" stroke="#231f20" stroke-width="24" stroke-linejoin="round"><path d="M57.37 1391.68l50.9 288.26a72.06 72.06 0 0 0 67.9 47.83h1571.64a72.06 72.06 0 0 0 67.9-47.83l50.9-288.23" stroke-linecap="round"/><path d="M1895 1384.25l-310.55-210.48a37.54 37.54 0 0 0-20.51-6.1H360.08a37.54 37.54 0 0 0-20.51 6.1L29 1384.25a37.53 37.53 0 0 0-17 31.43v8.56a37.52 37.52 0 0 0 37.52 37.52h1825a37.52 37.52 0 0 0 37.48-37.52v-8.56a37.53 37.53 0 0 0-17-31.43z"/><g stroke-linecap="round"><path d="M109.07 1395.36h1705.86m-1447.2-171.8l28.32 168.13"/><path d="M1556.26 1223.55l-28.32 168.13M754.72 1283.6s8.66-505.5 442.53-606.07L1080.4 805.7c-214.14 123.82-160.86 477.9-160.86 477.9"/></g></g><path d="M1585.26 122.46c-38.25 31.3-68.1 64.92-104.72 112.77-13 16.95-93.5 124.5-168.93 227.4l-265.08 367c69.4 27.64 113.37 27.48 154.25 23.5 52.1-5.05 92.34-52.4 124.32-95.75s52.22-78.6 56.1-105.44c3.85-26.63-8.4-77.24-14.75-100.58s-17.25-44.44-6.74-58.68l153-231.58c50-63.1 67.7-79.5 106.7-111.1 107.8-87.44 148.53-71.67 217.33-87.42L1870.4 12c-138.33 26.5-176.2 21.32-285.14 110.46z" fill="#231f20"/></svg>