<svg xmlns="http://www.w3.org/2000/svg" height="1923.999" width="1762.815"  xmlns:v="https://vecta.io/nano"><path d="M817.9 1912c370.1 0 804.67-196.92 804.67-644.26 0-105.37-360.26-202.22-804.67-202.22h-1.24c-444.4 0-804.67 96.85-804.67 202.22C12 1715.08 446.56 1912 816.67 1912" fill="#fff" stroke="#231f20" stroke-width="24" stroke-miterlimit="10"/><path d="M813.04 1733.85v-145q-40.46 31.06-54.47 31.06a16.09 16.09 0 0 1-11.87-5.33 17.21 17.21 0 0 1-5.18-12.35q0-8.13 5.1-12 5.1-3.87 18-9.87 19.28-9.1 30.82-19.12a130.63 130.63 0 0 0 20.47-22.46q8.93-12.42 11.63-15.3c1.8-1.9 5.2-2.87 10.2-2.87a16.34 16.34 0 0 1 13.54 6.53q5.08 6.54 5.1 18v182.4q0 32-21.82 32-9.72 0-15.6-6.54-5.9-6.54-5.9-19.16z" fill="#231f20"/><g stroke="#231f20" stroke-width="24" stroke-miterlimit="10"><path d="M1570.5 1261.61c0 50.5-336.93 125.3-752.56 125.3h-1.32c-415.63 0-752.56-74.82-752.56-125.3" fill="none" stroke-linecap="round"/><path d="M1382.3 14.97c-28.14-5.3-60.87-4.3-90.42 9.5-59.55 27.83-97.36 93.5-97.7 169.54v11.64l-93.35-17.56c-73.76-13.87-162.54 129-198.3 319.2s-5 355.54 68.8 369.4l566.26 106.48c73.76 13.87 162.55-129 198.3-319.18s5-355.54-68.8-369.4l-62.52-11.76c-12.04-60.18-61.3-237.6-222.27-267.86zm125.74 249.72l-227.25-42.74a215.64 215.64 0 0 1-2.93-35c-.52-40.73 22.93-83.55 45.3-95.53 21.16-11.34 42.6-9.6 55.1-7.26 83.2 15.6 119.35 119.53 129.8 180.53z" fill="#fff"/></g><path d="M494.6 1306.24s-6.54-497.23 594.14-634.5l-74.77 131.9c-299.65 112.92-245.08 465.8-245.08 465.8" fill="#fff"/><g stroke="#231f20" stroke-width="24" fill="none" stroke-linecap="round"><path d="M1013.98 803.6C714.33 916.5 768.9 1269.4 768.9 1269.4m-274.3 36.84s-6.54-497.23 594.14-634.5" stroke-linejoin="round"/><path d="M976.15 831.75c58.22-25 119.18-138.93 146.3-283.1s11.7-272.5-33.48-316.9" stroke-miterlimit="10"/></g></svg>