<svg xmlns="http://www.w3.org/2000/svg" viewBox="0 0 2000 2000"><g id="Layer_2" data-name="Layer 2"><path d="M1864.41,225.61,1090.28,1088.8c-24.37,27.18-60.15,23-79.32-8.43L902,902c-15.18-24.87-10.3-63.3,10.51-86.5L1573.4,78.53c20.81-23.2,58.48-32.22,84.85-19.82l189.18,89C1880.72,163.32,1888.78,198.43,1864.41,225.61Z" style="fill:#fff;stroke:#231f20;stroke-miterlimit:10;stroke-width:24px"/><path d="M1755,196.75c-11.45,12.76-32.76,16.64-47.4,8.77L1621,159c-13.09-7-15-22.25-4.34-34.07s29.89-16,43.27-9.34L1748.43,160C1763.39,167.47,1766.41,184,1755,196.75Z" style="fill:#fff;stroke:#231f20;stroke-miterlimit:10;stroke-width:24px"/><path d="M876.36,1953.14c344.42,0,748.8-183.26,748.8-599.53,0-98.06-335.25-188.18-748.8-188.18h-1.15c-413.55,0-748.8,90.12-748.8,188.18,0,416.27,404.38,599.53,748.8,599.53" style="fill:#fff;stroke:#231f20;stroke-miterlimit:10;stroke-width:24px"/><path d="M871.85,1787.37v-134.9q-37.67,28.9-50.7,28.91a15,15,0,0,1-11-5,16,16,0,0,1-4.82-11.49q0-7.56,4.74-11.11t16.75-9.19q17.94-8.46,28.69-17.79a121.8,121.8,0,0,0,19-20.9q8.31-11.57,10.82-14.24t9.49-2.66a15.18,15.18,0,0,1,12.6,6.07q4.74,6.09,4.75,16.75v169.73q0,29.81-20.31,29.8-9,0-14.53-6.08T871.85,1787.37Z" style="fill:#231f20"/><path d="M1576.71,1347.9c0,47-313.54,116.61-700.31,116.61h-1.23c-386.77,0-700.31-69.62-700.31-116.61" style="fill:none;stroke:#231f20;stroke-linecap:round;stroke-miterlimit:10;stroke-width:24px"/><polygon points="851.02 1310.21 896.5 1349.17 859.62 1396.62 835.37 1406.21 795.88 1365.05 826.76 1319.8 851.02 1310.21" style="fill:#fffce4;stroke:#0c0d18;stroke-linecap:round;stroke-linejoin:round;stroke-width:8px"/><polyline points="843.75 1369.33 831.87 1356.72 840.96 1342.2" style="fill:#fffce4;stroke:#0c0d18;stroke-linecap:round;stroke-linejoin:round;stroke-width:8px"/><line x1="831.87" y1="1356.72" x2="817.87" y2="1362.08" style="fill:#fffce4;stroke:#0c0d18;stroke-linecap:round;stroke-linejoin:round;stroke-width:8px"/><polygon points="951.57 1072.85 934.79 1123.78 882.94 1109.4 866.74 1092.58 887.37 1045.86 935.36 1056.03 951.57 1072.85" style="fill:#fffce4;stroke:#0c0d18;stroke-linecap:round;stroke-linejoin:round;stroke-width:8px"/><polyline points="897.39 1090.89 907.66 1074.59 924.69 1076.47" style="fill:#fffce4;stroke:#0c0d18;stroke-linecap:round;stroke-linejoin:round;stroke-width:8px"/><line x1="907.66" y1="1074.58" x2="897.41" y2="1062.61" style="fill:#fffce4;stroke:#0c0d18;stroke-linecap:round;stroke-linejoin:round;stroke-width:8px"/><polygon points="925.88 1187.35 985.75 1185.69 990.26 1245.62 978.72 1269.01 921.82 1265.01 914.34 1210.74 925.88 1187.35" style="fill:#fffce4;stroke:#0c0d18;stroke-linecap:round;stroke-linejoin:round;stroke-width:8px"/><polyline points="967.53 1235.19 940.89 1233.07 936.26 1207.07" style="fill:#fffce4;stroke:#0c0d18;stroke-linecap:round;stroke-linejoin:round;stroke-width:8px"/><line x1="940.89" y1="1233.07" x2="930.43" y2="1253.68" style="fill:#fffce4;stroke:#0c0d18;stroke-linecap:round;stroke-linejoin:round;stroke-width:8px"/><polygon points="970.91 906.42 1002.81 933.74 976.95 967.02 959.94 973.75 932.24 944.88 953.9 913.15 970.91 906.42" style="fill:#fffce4;stroke:#0c0d18;stroke-linecap:round;stroke-linejoin:round;stroke-width:8px"/><polyline points="972.83 950.14 960.95 937.53 970.04 923.02" style="fill:#fffce4;stroke:#0c0d18;stroke-linecap:round;stroke-linejoin:round;stroke-width:8px"/><line x1="960.95" y1="937.53" x2="946.95" y2="942.89" style="fill:#fffce4;stroke:#0c0d18;stroke-linecap:round;stroke-linejoin:round;stroke-width:8px"/><polygon points="1030.06 955.27 1065.57 985.69 1036.78 1022.74 1017.84 1030.23 987.01 998.09 1011.12 962.76 1030.06 955.27" style="fill:#fffce4;stroke:#0c0d18;stroke-linecap:round;stroke-linejoin:round;stroke-width:8px"/><polyline points="1032.2 1003.95 1018.97 989.91 1029.09 973.75" style="fill:#fffce4;stroke:#0c0d18;stroke-linecap:round;stroke-linejoin:round;stroke-width:8px"/><line x1="1018.97" y1="989.91" x2="1003.38" y2="995.87" style="fill:#fffce4;stroke:#0c0d18;stroke-linecap:round;stroke-linejoin:round;stroke-width:8px"/><polygon points="1053.63 727.62 1085.88 755.24 1059.74 788.88 1042.54 795.68 1014.54 766.5 1036.44 734.42 1053.63 727.62" style="fill:#fffce4;stroke:#0c0d18;stroke-linecap:round;stroke-linejoin:round;stroke-width:8px"/><polyline points="1048.48 769.54 1040.06 760.6 1046.5 750.31" style="fill:#fffce4;stroke:#0c0d18;stroke-linecap:round;stroke-linejoin:round;stroke-width:8px"/><line x1="1040.06" y1="760.6" x2="1030.14" y2="764.39" style="fill:#fffce4;stroke:#0c0d18;stroke-linecap:round;stroke-linejoin:round;stroke-width:8px"/><polygon points="1004.49 785.96 1043.08 823.2 1007.6 863.65 985.41 870.95 952.3 832.07 982.3 793.25 1004.49 785.96" style="fill:#fffce4;stroke:#0c0d18;stroke-linecap:round;stroke-linejoin:round;stroke-width:8px"/><polyline points="997.21 842.6 986.99 826.26 996.08 811.75" style="fill:#fffce4;stroke:#0c0d18;stroke-linecap:round;stroke-linejoin:round;stroke-width:8px"/><line x1="986.99" y1="826.26" x2="971.75" y2="830.3" style="fill:#fffce4;stroke:#0c0d18;stroke-linecap:round;stroke-linejoin:round;stroke-width:8px"/><polygon points="1060.53 800.18 1106.02 839.14 1069.14 886.59 1044.89 896.18 1005.4 855.03 1036.28 809.77 1060.53 800.18" style="fill:#fffce4;stroke:#0c0d18;stroke-linecap:round;stroke-linejoin:round;stroke-width:8px"/><polyline points="1059.3 863.6 1040.97 844.15 1054.99 821.77" style="fill:#fffce4;stroke:#0c0d18;stroke-linecap:round;stroke-linejoin:round;stroke-width:8px"/><line x1="1040.97" y1="844.15" x2="1019.39" y2="852.41" style="fill:#fffce4;stroke:#0c0d18;stroke-linecap:round;stroke-linejoin:round;stroke-width:8px"/><polygon points="1118.36 697.8 1150.26 725.12 1124.39 758.4 1107.38 765.13 1079.69 736.26 1101.35 704.53 1118.36 697.8" style="fill:#fffce4;stroke:#0c0d18;stroke-linecap:round;stroke-linejoin:round;stroke-width:8px"/><polyline points="1120.28 741.52 1108.4 728.91 1117.49 714.4" style="fill:#fffce4;stroke:#0c0d18;stroke-linecap:round;stroke-linejoin:round;stroke-width:8px"/><line x1="1108.4" y1="728.91" x2="1094.4" y2="734.27" style="fill:#fffce4;stroke:#0c0d18;stroke-linecap:round;stroke-linejoin:round;stroke-width:8px"/><polygon points="1201.02 676.92 1236.54 707.34 1207.75 744.38 1188.81 751.87 1157.98 719.74 1182.09 684.41 1201.02 676.92" style="fill:#fffce4;stroke:#0c0d18;stroke-linecap:round;stroke-linejoin:round;stroke-width:8px"/><polyline points="1203.17 725.6 1189.94 711.55 1200.06 695.39" style="fill:#fffce4;stroke:#0c0d18;stroke-linecap:round;stroke-linejoin:round;stroke-width:8px"/><line x1="1189.94" y1="711.55" x2="1174.35" y2="717.52" style="fill:#fffce4;stroke:#0c0d18;stroke-linecap:round;stroke-linejoin:round;stroke-width:8px"/><polygon points="1125.1 752.18 1170.59 791.14 1133.71 838.59 1109.46 848.18 1069.97 807.02 1100.85 761.77 1125.1 752.18" style="fill:#fffce4;stroke:#0c0d18;stroke-linecap:round;stroke-linejoin:round;stroke-width:8px"/><polyline points="1117.84 811.3 1105.95 798.69 1115.04 784.18" style="fill:#fffce4;stroke:#0c0d18;stroke-linecap:round;stroke-linejoin:round;stroke-width:8px"/><line x1="1105.95" y1="798.69" x2="1091.96" y2="804.05" style="fill:#fffce4;stroke:#0c0d18;stroke-linecap:round;stroke-linejoin:round;stroke-width:8px"/><polygon points="1136.42 833.2 1181.91 872.16 1145.03 919.61 1120.77 929.2 1081.28 888.04 1112.16 842.79 1136.42 833.2" style="fill:#fffce4;stroke:#0c0d18;stroke-linecap:round;stroke-linejoin:round;stroke-width:8px"/><polyline points="1135.18 896.62 1116.85 877.17 1130.87 854.78" style="fill:#fffce4;stroke:#0c0d18;stroke-linecap:round;stroke-linejoin:round;stroke-width:8px"/><line x1="1116.85" y1="877.17" x2="1095.27" y2="885.43" style="fill:#fffce4;stroke:#0c0d18;stroke-linecap:round;stroke-linejoin:round;stroke-width:8px"/><polygon points="1247.25 615.64 1279.15 642.96 1253.28 676.23 1236.27 682.96 1208.58 654.1 1230.24 622.37 1247.25 615.64" style="fill:#fffce4;stroke:#0c0d18;stroke-linecap:round;stroke-linejoin:round;stroke-width:8px"/><polyline points="1249.17 659.36 1237.29 646.75 1246.38 632.23" style="fill:#fffce4;stroke:#0c0d18;stroke-linecap:round;stroke-linejoin:round;stroke-width:8px"/><line x1="1237.29" y1="646.75" x2="1223.29" y2="652.1" style="fill:#fffce4;stroke:#0c0d18;stroke-linecap:round;stroke-linejoin:round;stroke-width:8px"/><polygon points="1208.35 761.07 1243.86 791.49 1215.07 828.53 1196.13 836.02 1165.3 803.89 1189.41 768.56 1208.35 761.07" style="fill:#fffce4;stroke:#0c0d18;stroke-linecap:round;stroke-linejoin:round;stroke-width:8px"/><polyline points="1210.49 809.74 1197.26 795.7 1207.38 779.54" style="fill:#fffce4;stroke:#0c0d18;stroke-linecap:round;stroke-linejoin:round;stroke-width:8px"/><line x1="1197.26" y1="795.7" x2="1181.68" y2="801.67" style="fill:#fffce4;stroke:#0c0d18;stroke-linecap:round;stroke-linejoin:round;stroke-width:8px"/></g></svg>