<svg xmlns="http://www.w3.org/2000/svg" height="1923.999" width="1762.815"  xmlns:v="https://vecta.io/nano"><path d="M817.9 1912c370.1 0 804.67-196.92 804.67-644.26 0-105.37-360.26-202.22-804.67-202.22h-1.24c-444.4 0-804.67 96.85-804.67 202.22C12 1715.08 446.56 1912 816.67 1912" fill="#fff" stroke="#231f20" stroke-width="24" stroke-miterlimit="10"/><path d="M793.77 1718.08h83.16q12.42 0 19 5.1a16.63 16.63 0 0 1 6.53 13.86 18.42 18.42 0 0 1-5.17 13.22q-5.2 5.4-15.7 5.4H764.3q-11.94 0-18.63-6.6a21.12 21.12 0 0 1-6.69-15.53q0-5.73 4.3-15.2a54.49 54.49 0 0 1 9.4-14.9q21.18-22 38.23-37.67 17.05-15.67 24.37-20.63a140.19 140.19 0 0 0 21.74-18.56 73.49 73.49 0 0 0 13.22-19.11 45.4 45.4 0 0 0 4.54-19.2 34.7 34.7 0 0 0-4.85-18.24 33.65 33.65 0 0 0-13.23-12.5 38.15 38.15 0 0 0-18.23-4.46q-20.88 0-32.82 18.32-1.6 2.4-5.34 13.06-3.75 10.67-8.44 16.4-4.7 5.73-13.78 5.73a17.93 17.93 0 0 1-13.22-5.25q-5.26-5.27-5.26-14.34a60 60 0 0 1 4.94-22.94 65.59 65.59 0 0 1 14.74-21.67q9.8-9.7 24.85-15.7 15.06-6 35.28-6 24.38 0 41.58 7.65a62.69 62.69 0 0 1 19.59 14 65.81 65.81 0 0 1 17.84 44.93 68 68 0 0 1-9.79 35.92q-9.8 16.17-20 25.33-10.2 9.16-34.17 28.75-24 19.6-32.9 30.43a89.77 89.77 0 0 0-7.81 10.39z" fill="#231f20"/><g stroke="#231f20" stroke-width="24" stroke-miterlimit="10"><path d="M1570.5 1261.61c0 50.5-336.93 125.3-752.56 125.3h-1.32c-415.63 0-752.56-74.82-752.56-125.3" fill="none" stroke-linecap="round"/><path d="M1382.3 14.97c-28.14-5.3-60.87-4.3-90.42 9.5-59.55 27.83-97.36 93.5-97.7 169.54v11.64l-93.35-17.56c-73.76-13.87-162.54 129-198.3 319.2s-5 355.54 68.8 369.4l566.26 106.48c73.76 13.87 162.55-129 198.3-319.18s5-355.54-68.8-369.4l-62.52-11.76c-12.04-60.18-61.3-237.6-222.27-267.86zm125.74 249.72l-227.25-42.74a215.64 215.64 0 0 1-2.93-35c-.52-40.73 22.93-83.55 45.3-95.53 21.16-11.34 42.6-9.6 55.1-7.26 83.2 15.6 119.35 119.53 129.8 180.53z" fill="#fff"/></g><path d="M494.6 1306.24s-6.54-497.23 594.14-634.5l-74.77 131.9c-299.65 112.92-245.08 465.8-245.08 465.8" fill="#fff"/><g stroke="#231f20" stroke-width="24" fill="none" stroke-linecap="round"><path d="M1013.98 803.6C714.33 916.5 768.9 1269.4 768.9 1269.4m-274.3 36.84s-6.54-497.23 594.14-634.5" stroke-linejoin="round"/><path d="M976.15 831.75c58.22-25 119.18-138.93 146.3-283.1s11.7-272.5-33.48-316.9" stroke-miterlimit="10"/></g></svg>