<?xml version="1.0" encoding="UTF-8" standalone="no"?>
<svg
   xmlns:dc="http://purl.org/dc/elements/1.1/"
   xmlns:cc="http://creativecommons.org/ns#"
   xmlns:rdf="http://www.w3.org/1999/02/22-rdf-syntax-ns#"
   xmlns:svg="http://www.w3.org/2000/svg"
   xmlns="http://www.w3.org/2000/svg"
   xmlns:sodipodi="http://sodipodi.sourceforge.net/DTD/sodipodi-0.dtd"
   xmlns:inkscape="http://www.inkscape.org/namespaces/inkscape"
   inkscape:version="1.0beta1 (32d4812, 2019-09-19)"
   sodipodi:docname="pour_cutting_board_yellow_onion_big_bowl3.svg"
   id="svg855"
   version="1.1"
   width="1776.143"
   height="1924.004">
  <metadata
     id="metadata861">
    <rdf:RDF>
      <cc:Work
         rdf:about="">
        <dc:format>image/svg+xml</dc:format>
        <dc:type
           rdf:resource="http://purl.org/dc/dcmitype/StillImage" />
        <dc:title></dc:title>
      </cc:Work>
    </rdf:RDF>
  </metadata>
  <defs
     id="defs859" />
  <sodipodi:namedview
     inkscape:current-layer="svg855"
     inkscape:window-maximized="0"
     inkscape:window-y="25"
     inkscape:window-x="0"
     inkscape:cy="1017.1429"
     inkscape:cx="400"
     inkscape:zoom="0.35"
     showgrid="false"
     id="namedview857"
     inkscape:window-height="907"
     inkscape:window-width="1600"
     inkscape:pageshadow="2"
     inkscape:pageopacity="0"
     guidetolerance="10"
     gridtolerance="10"
     objecttolerance="10"
     borderopacity="1"
     inkscape:document-rotation="0"
     bordercolor="#666666"
     pagecolor="#ffffff" />
  <g
     id="g837"
     stroke-miterlimit="10"
     stroke-width="24"
     stroke="#231f20"
     fill="#fff">
    <path
       id="path833"
       d="M1750 184.474l-774.13 863.2c-24.37 27.18-60.15 23-79.32-8.43L787.6 860.864c-15.18-24.87-10.3-63.3 10.5-86.5L1459 37.394c20.8-23.2 58.48-32.22 84.85-19.82l189.18 89c33.3 15.6 41.35 50.72 16.98 77.9z" />
    <path
       id="path835"
       d="M1640.6 155.614c-11.45 12.76-32.76 16.64-47.4 8.77l-86.6-46.52c-13.1-7-15-22.25-4.34-34.07s29.9-16 43.27-9.34l88.5 44.4c14.96 7.47 17.98 24 6.57 36.75zm-878.65 1756.4c344.42 0 748.8-183.26 748.8-599.53 0-98.06-335.25-188.18-748.8-188.18h-1.15c-413.55 0-748.8 90.12-748.8 188.18 0 416.27 404.38 599.53 748.8 599.53" />
  </g>
  <path
     id="path841"
     stroke-miterlimit="10"
     stroke-linecap="round"
     stroke-width="24"
     stroke="#231f20"
     fill="none"
     d="M1462.3 1306.764c0 47-313.54 116.6-700.3 116.6h-1.23c-386.77 0-700.3-69.62-700.3-116.6" />
  <g
     id="g853"
     stroke-linejoin="round"
     stroke-width="8.128"
     stroke="#010101"
     fill="#fcfbf3">
    <path
       id="path843"
       d="M482.48 1230.634s67.64-92.13 86-127.82c10.42 12.45 48.54 3.4 48.54 3.4s-71.58 69.2-92.2 114.37c.02 0-11.8-12.1-42.35 10.05zm261.97-300.08s42.55-106.08 51.46-145.22c13.18 9.46 47.86-8.8 47.86-8.8s-52.1 84.85-60.8 133.72c0 0-14.47-8.78-38.52 20.3zm90.9-113.4s65.2-93.88 82.62-130c10.74 12.17 48.62 2.12 48.62 2.12s-69.75 71.06-89.16 116.75c0-.04-12.14-11.83-42.08 11.13z" />
    <path
       id="path845"
       d="M788.88 870.084s83.07-78.5 107.56-110.3c8 14.1 47.15 12.1 47.15 12.1s-82.84 55.23-111.22 96c0 0-9.46-14-43.48 2.3zm-240.83 271.47s105.75-43.36 140-64.23c2.4 16 39.65 28.2 39.65 28.2s-97.16 21.73-138.3 49.53c0 0-3.78-16.5-41.4-13.5z" />
    <path
       id="path847"
       d="M611.06 1073.914s78.53-83.05 101.17-116.2c8.8 13.64 47.75 9.37 47.75 9.37s-79.6 59.82-105.63 102.1c0 0-10.24-13.48-43.3 4.74zm-71.96 257.36s9.94-113.86 7.1-153.9c15.37 5.22 43.25-22.32 43.25-22.32s-25.23 96.32-19.37 145.62c0 0-16.4-4.2-30.98 30.6z" />
    <path
       id="path849"
       d="M712.23 957.714s101.15-53.22 133.3-77.25c3.9 15.75 42.15 24.3 42.15 24.3s-94.66 30.87-133 62.46c0 0-5.33-16.07-42.5-9.5z" />
    <path
       id="path851"
       d="M659.47 999.864s63.85-94.8 80.77-131.2c10.9 12 48.64 1.43 48.64 1.43s-68.73 72-87.5 118c0 0-12.3-11.62-41.92 11.76z" />
  </g>
  <text
     y="1771.9551"
     x="669.62909"
     font-size="321.54"
     fill="#231f20"
     font-family="ArialRoundedMTBold,Arial Rounded MT Bold"
     id="text867">3</text>
</svg>
