<svg xmlns="http://www.w3.org/2000/svg" height="1924.005" width="1884.83"  xmlns:v="https://vecta.io/nano"><path d="M939.27 1912.005c425.83 0 925.8-226.57 925.8-741.26 0-121.23-414.5-232.67-925.8-232.67h-1.45c-511.3 0-925.82 111.44-925.82 232.67 0 514.7 500 741.26 925.82 741.26" fill="#fff" stroke="#231f20" stroke-width="24" stroke-miterlimit="10"/><path d="M911.5 1688.895h95.68q14.3 0 21.8 5.87 7.5 5.87 7.5 15.94a21.18 21.18 0 0 1-6 15.21q-6 6.24-18 6.23H877.6q-13.75 0-21.45-7.6a24.32 24.32 0 0 1-7.69-17.87q0-6.6 5-17.5 5-10.9 10.8-17.14 24.38-25.3 44-43.35 19.62-18.06 28-23.73a162.75 162.75 0 0 0 25-21.35 84.8 84.8 0 0 0 15.22-22 52.28 52.28 0 0 0 5.22-22.08 39.77 39.77 0 0 0-5.59-21 38.85 38.85 0 0 0-15.21-14.39 44 44 0 0 0-21-5.13q-24 0-37.75 21.08-1.85 2.75-6.14 15-4.3 12.25-9.72 18.88-5.4 6.6-15.85 6.6a20.62 20.62 0 0 1-15.21-6q-6-6.06-6-16.5a68.94 68.94 0 0 1 5.68-26.39 75.74 75.74 0 0 1 17-24.93q11.26-11.18 28.6-18 17.33-6.82 40.6-6.87 28.05 0 47.84 8.8a72.22 72.22 0 0 1 22.54 16.13 75.75 75.75 0 0 1 20.53 51.69 78.25 78.25 0 0 1-11.27 41.33q-11.28 18.6-23 29.14-11.72 10.54-39.32 33.08-27.6 22.54-37.84 35a104.11 104.11 0 0 0-9.08 11.87z" fill="#231f20"/><path d="M1805.17 1163.695c0 58.1-387.65 144.17-865.86 144.17h-1.5c-478.2 0-865.86-86.08-865.86-144.17" fill="none" stroke="#231f20" stroke-width="24" stroke-linecap="round" stroke-miterlimit="10"/><path d="M566.82 1269.535s-27.63-552 663.48-710l-116.16 171.87c-344.75 129.92-282 546-282 546" fill="#fff"/><path d="M1114.14 731.405c-344.75 129.92-282 546-282 546m-265.32-7.87s-27.63-552 663.48-710" stroke="#231f20" stroke-width="24" fill="none" stroke-linecap="round" stroke-linejoin="round"/><path d="M1071 807.865s60.37 31.46 163.6 18.2c0 0 78.46-7 150.77-56.63 0 0 55.53-36.43 99.24-104.57 0 0 48.7-73.27 67.65-118.2 5.63-14.53 13.2-62 2.35-95.9 0 0-10.13-48.05-51.27-102.87-31.73-36.8-38.18-41.48-38.18-41.48-11.6-9.46-8.82-21.3-6.1-25.67 0 0 4.36-16.73 22.6-38.16 0 0 48.62-64.25 75.76-91.27 0 0 43.6-51.72 85-73.33 0 0 33.54-20.06 97-28.2 0 0 41.52-8.13 116.72 9.62 0 0 15.83-15.65 16.7-34.55-76.62-17.42-128.53-12.13-128.53-12.13-75.4 4-121.93 35.74-121.93 35.74-52.55 27.9-99.55 83.74-99.55 83.74-54.9 66.6-72.16 92.3-72.16 92.3l-40.38 55c-241.3 359.9-229 350.46-339.3 528.37z" fill="#231f20"/></svg>