<svg xmlns="http://www.w3.org/2000/svg" viewBox="0 0 2000 2000"><g id="Layer_2" data-name="Layer 2"><path d="M1793.88,859.7c148.41-251.6,188.8-626-115.29-805.36C1607,12.09,1396.65,218.16,1218.45,520.26l-.5.84C1039.74,823.2,961.12,1107,1032.74,1149.2c304.1,179.38,612.22-37.06,760.64-288.66" style="fill:#fff;stroke:#231f20;stroke-miterlimit:10;stroke-width:24px"/><path d="M1705.56,730.62q11.76,6.95,3.9,20.24l-49.71,84.27q-3.4,5.77-8.8,7.07a13.66,13.66,0,0,1-10.5-1.71,19.59,19.59,0,0,1-9-12.17L1607,745.71q-4.7-15.33-10.69-24.69a43.35,43.35,0,0,0-14.41-14.34q-10.42-6.15-19.5-3.43t-15.62,13.81a54.15,54.15,0,0,0-7,19.66,102.1,102.1,0,0,0-.72,22.74,31.64,31.64,0,0,1-.06,5.94,12.53,12.53,0,0,1-1.62,5c-1.49,2.51-4,4-7.41,4.45a15.41,15.41,0,0,1-10.06-2.2,14.87,14.87,0,0,1-5.05-4.62,17.24,17.24,0,0,1-2.37-6.63,89.33,89.33,0,0,1,1.17-30.11,92,92,0,0,1,10.89-28.85q13.47-22.83,33-29.68t39.1,4.68a66.54,66.54,0,0,1,22,20.75q8.46,12.76,15,35.15l18.17,62.43,34.54-58.54Q1694.25,723.94,1705.56,730.62Z" style="fill:#231f20"/><path d="M1653.54,87.28c34.33,20.25-49.92,279.29-216.59,561.83l-.53.9c-166.67,282.54-352.64,481.58-387,461.33" style="fill:none;stroke:#231f20;stroke-linecap:round;stroke-miterlimit:10;stroke-width:24px"/><path d="M1793.88,859.7c148.41-251.6,188.8-626-115.29-805.36C1607,12.09,1396.65,218.16,1218.45,520.26l-.5.84C1039.74,823.2,961.12,1107,1032.74,1149.2c304.1,179.38,612.22-37.06,760.64-288.66" style="fill:#fff;stroke:#231f20;stroke-miterlimit:10;stroke-width:24px"/><path d="M1706,729.84q11.74,6.95,3.9,20.24l-44.22,75q-8,13.53-19.73,6.6-11.31-6.67-3.33-20.2l13.6-23.07-101.13-59.65.53,29a13.44,13.44,0,0,1-1.49,6.59,11.38,11.38,0,0,1-8.64,5.52,16,16,0,0,1-10.77-2q-6.43-3.8-6.58-11.65l-1-46.94q-.08-9,3.47-15,3.66-6.21,9.65-7.76t12.65,2.38l120.2,70.9,13.74-23.28Q1694.71,723.18,1706,729.84Z" style="fill:#231f20"/><path d="M1653.54,87.28c34.33,20.25-49.92,279.29-216.59,561.83l-.53.9c-166.67,282.54-352.64,481.58-387,461.33" style="fill:none;stroke:#231f20;stroke-linecap:round;stroke-miterlimit:10;stroke-width:24px"/><g id="layer2"><path id="path858" d="M864.21,1487.85c-4.92-115.3,53.31-352.09,219.23-402.35,0,0,38.48-33.42,31-32.53-349.81,41.59-409.42,311.89-418,421.51" style="fill:#fff"/><path id="path837" d="M762.55,1091.49l35.14,17a6.32,6.32,0,0,0,8.78-7.69l-11.53-34.58a6.35,6.35,0,0,0-9.88-3.11l-23.61,17.56a6.45,6.45,0,0,0,1.1,10.8Z" style="fill:#fff"/><path id="path839-0" d="M813.42,1065c2,6.4,10.8,7.31,13.91,1.46l20.86-38.25a7.58,7.58,0,0,0-5.3-11.16l-34.59-6.41a7.54,7.54,0,0,0-8.6,9.7Z" style="fill:#fff"/><path id="path841" d="M823.67,1089.84,818,1115.1c-.92,3.66,3.11,6.4,6.4,4.57L845.08,1107a4.21,4.21,0,0,0,.55-6.77l-14.82-12.62A4.34,4.34,0,0,0,823.67,1089.84Z" style="fill:#fff"/></g><g id="layer2-2" data-name="layer2"><path id="path858-2" data-name="path858" d="M696.05,1478.38c6.79-110.56,61.47-405.27,436.2-438" style="fill:none;stroke:#231f20;stroke-linecap:round;stroke-miterlimit:10;stroke-width:24px"/><path id="path858-3" data-name="path858" d="M1083.44,1093.78C922.25,1142.6,862.7,1361,863.94,1478" style="fill:none;stroke:#231f20;stroke-linecap:round;stroke-miterlimit:10;stroke-width:24px"/></g><g id="layer3"><path id="path916" d="M1189.37,1326v530.1a110.21,110.21,0,0,1-110,110.41h-876a110.19,110.19,0,0,1-110.44-110V1325.92Z" style="fill:#fff;stroke:#221f1f;stroke-linecap:round;stroke-linejoin:round;stroke-width:24px"/></g><path d="M1663.24,1508.78l-403-13.34a49.11,49.11,0,0,0-46.68,30l-24.23,57.38V1408.35l473.88-15.45Z" style="fill:#fff;stroke:#221f1f;stroke-linecap:round;stroke-linejoin:round;stroke-width:24px"/></g></svg>