<svg xmlns="http://www.w3.org/2000/svg" xmlns:xlink="http://www.w3.org/1999/xlink" height="1928.049" width="1617.558" xmlns:v="https://vecta.io/nano"><style><![CDATA[.B{stroke:#231f20}.C{stroke-width:24}.D{stroke-miterlimit:10}.E{stroke-linecap:round}]]></style><g fill="#fff" class="B C"><g stroke-linejoin="round"><path d="M808.22 1148.21l406.75 41.42-626.9 237.65L12 1355.82z"/><path d="M34.46 1356.07l30.9 435.83 514.65 124.15 7.94-488.4z"/><path d="M587.96 1427.65l599.77-234.8-38.2 400.58-569.5 322.63z"/></g><use xlink:href="#B" class="D"/></g><use xlink:href="#C" fill="#231f20"/><g class="B C D"><use xlink:href="#D" fill="none" class="E"/><use xlink:href="#B" fill="#fff"/></g><use xlink:href="#C" fill="#231f20"/><use xlink:href="#D" fill="none" class="B C D E"/><path d="M616 1377.41c-4.66-109.4 50.6-334.08 208-381.77 0 0 36.5-31.7 29.4-30.86-331.9 39.43-388.45 295.93-396.56 399.95" fill="#fff"/><path d="M456.46 1368.43c6.44-104.9 58.33-384.54 413.88-415.58m-46.3 50.65c-152.94 46.33-209.45 253.53-208.27 364.56" fill="none" class="B C D E"/><defs ><path id="B" d="M1498.1 781.4c140.82-238.72 179.2-593.94-109.4-764.2-68-40.1-267.5 155.44-436.6 442.08l-.47.8c-169.1 286.64-243.7 555.87-175.73 596 288.54 170.2 580.9-35.17 721.72-273.9"/><path id="C" d="M1363.8 723.27l31.63-53.63q4.74-8 10.5-10.3a12.5 12.5 0 0 1 11.43 1.06 13.8 13.8 0 0 1 6.56 8.37q1.5 5.4-2.48 12.18l-44.6 75.62q-4.55 7.7-11.35 9.5a15.86 15.86 0 0 1-12.57-1.59q-3.7-2.2-8.17-8.57a40.55 40.55 0 0 1-6-11.72q-6.12-22-9.76-39-3.64-17-4-23.57a104.8 104.8 0 0 0-3.7-21.08 54.92 54.92 0 0 0-7.3-15.81 34.17 34.17 0 0 0-10.69-10.23 25.92 25.92 0 0 0-13.61-3.8 25.19 25.19 0 0 0-13.1 3.77 28.56 28.56 0 0 0-9.82 10.07q-7.93 13.46-.67 28.13.95 1.93 6.4 8.4 5.45 6.48 7.37 11.7 1.9 5.22-1.54 11.07a13.43 13.43 0 0 1-8.42 6.53q-5.4 1.4-11.25-2.07a44.73 44.73 0 0 1-12.92-11.91 49.43 49.43 0 0 1-8.37-17.74 54.7 54.7 0 0 1-.66-22q1.88-12 9.57-25 9.27-15.7 20.75-23.9a46.91 46.91 0 0 1 16.5-7.31 49.2 49.2 0 0 1 35.77 5.55 50.81 50.81 0 0 1 19.44 20q6.7 12.48 8.73 22.54 2.02 10.06 5.55 33 3.5 22.92 7.1 32.8a66.63 66.63 0 0 0 3.68 8.92z"/><path id="D" d="M1364.96 48.51c32.56 19.2-47.38 265-205.5 533.08l-.5.85c-158.14 268.08-334.6 456.94-367.16 437.77"/></defs></svg>