<svg id="Layer_1" data-name="Layer 1" xmlns="http://www.w3.org/2000/svg" xmlns:xlink="http://www.w3.org/1999/xlink" viewBox="0 0 2000 2000"><defs><clipPath id="clip-path"><path id="path900" d="M1374.82,66.85c25.33,15.79-8.55,132.49-85.26,255.56s-167,205.35-192.22,189.6,4.07-135.23,80.78-258.3S1349.49,51.06,1374.82,66.85Z" style="fill:none"/></clipPath><clipPath id="clip-path-2"><path id="path900-2" data-name="path900" d="M1525.45,778.86l-336-209.44-.51-.32c25.27,15.75,115.51-66.54,192.22-189.61s110.59-239.76,85.26-255.55l336,209.45.51.31c25.33,15.79,2.87,139.6-73.84,262.68s-178.37,198.23-203.64,182.48Z" style="fill:none"/></clipPath></defs><path d="M921.16,1969c412.33,0,896.45-219.38,896.45-717.74,0-117.38-401.36-225.28-896.45-225.28h-1.38c-495.09,0-896.44,107.9-896.44,225.28,0,498.36,484.12,717.74,896.44,717.74" style="fill:#fff;stroke:#231f20;stroke-miterlimit:10;stroke-width:24px"/><path d="M1016,1769.08q0,19.28-21.81,19.27H871.37q-22.17,0-22.17-19.27,0-18.52,22.17-18.53h37.8V1584.82l-34.89,21.44q-5.09,2.91-9.08,2.91-7.63,0-12.91-6.54a22.64,22.64,0,0,1-5.27-14.54q0-10.54,9.45-16.36l56.34-34.89q10.91-6.54,20.71-6.54,10.17,0,16.36,6.18t6.18,17.08v197h38.16Q1016,1750.55,1016,1769.08Z" style="fill:#231f20"/><path d="M1759.6,1244.47c0,56.25-375.36,139.6-838.39,139.6h-1.47c-463,0-838.39-83.35-838.39-139.6" style="fill:none;stroke:#231f20;stroke-linecap:round;stroke-miterlimit:10;stroke-width:24px"/><path id="path900-3" data-name="path900" d="M1611.53,832.52l-509.2-317.4C1263.49,394.38,1344.24,258.66,1379.81,70L1889,387.36h0c25.33,15.79,2.87,139.6-73.84,262.67S1636.8,848.27,1611.53,832.52Z" style="fill:#929497;stroke:#000;stroke-linecap:round;stroke-linejoin:round;stroke-width:8px"/><path id="path900-4" data-name="path900" d="M1525.45,778.86l-336-209.44-.51-.32c25.27,15.75,115.51-66.54,192.22-189.61s110.59-239.76,85.26-255.55l336,209.45.51.31c25.33,15.79,2.87,139.6-73.84,262.68s-178.37,198.23-203.64,182.48Z" style="fill:#fff;stroke:#000;stroke-linecap:round;stroke-linejoin:round;stroke-width:8px"/><path id="path900-5" data-name="path900" d="M1379.81,70c25.33,15.79-8.55,132.49-85.26,255.56s-167,205.35-192.22,189.6,4.07-135.23,80.78-258.3S1354.48,54.17,1379.81,70Z" style="fill:#d0d2d3;stroke:#000;stroke-linecap:round;stroke-linejoin:round;stroke-width:8px"/><g style="clip-path:url(#clip-path)"><path d="M1166.58,352.86c19.25-3.95,43.53,15.2,44.25,18.72s-14.06,30.69-33.3,34.63-33-3.73-36.39-20.34S1147.34,356.8,1166.58,352.86Z" style="fill:#ffc935;stroke:#231f20;stroke-miterlimit:10;stroke-width:9.60000038146973px"/><path d="M1206.92,372.38c.06.71-1.18,4.09-4.32,8.83a48.88,48.88,0,0,1-11.79,12.59c-9.47,1.85-16.44-3.48-18.66-14.28s2.1-18.45,11.53-20.48a48.8,48.8,0,0,1,15.79,6.93C1204.23,369.1,1206.69,371.71,1206.92,372.38Z" style="fill:#fff6dd"/><path d="M1204.19,318.29c11.84,15.68,5,45.83,2.12,48s-33.75.5-45.59-15.18-10.81-31.37,2.72-41.59S1192.35,302.61,1204.19,318.29Z" style="fill:#ffc935;stroke:#231f20;stroke-miterlimit:10;stroke-width:9.60000038146973px"/><path d="M1203.9,363.1c-.61.36-4.19.7-9.83-.1a49.07,49.07,0,0,1-16.43-5.23c-5.74-7.76-3.92-16.34,4.88-23s17.55-6,23.44,1.61a48.65,48.65,0,0,1,.53,17.23C1205.72,359.26,1204.41,362.61,1203.9,363.1Z" style="fill:#fff6dd"/><path d="M1331.81,167.54c-6.22,18.63-35,30.06-38.37,28.92s-19.52-27.54-13.3-46.17S1299.89,123.61,1316,129,1338,148.9,1331.81,167.54Z" style="fill:#ffc935;stroke:#231f20;stroke-miterlimit:10;stroke-width:9.60000038146973px"/><path d="M1294.71,192.67c-.64-.3-3-3.06-5.48-8.16a49,49,0,0,1-5-16.5c3.15-9.13,11.25-12.49,21.71-9s14.92,11.05,12,20.23a48.93,48.93,0,0,1-13.91,10.2C1298.9,192,1295.4,192.81,1294.71,192.67Z" style="fill:#fff6dd"/><path d="M1175.78,414.56c5.1,19-12.55,44.37-16,45.3s-31.48-12.18-36.58-31.15,1.74-33.15,18.11-37.55S1170.68,395.59,1175.78,414.56Z" style="fill:#ffc935;stroke:#231f20;stroke-miterlimit:10;stroke-width:9.60000038146973px"/><path d="M1158.72,456c-.7.1-4.14-.92-9.07-3.78a49,49,0,0,1-13.28-11c-2.41-9.35,2.49-16.63,13.14-19.49s18.53,1,21.13,10.27a48.94,48.94,0,0,1-6,16.18C1161.84,453.12,1159.38,455.74,1158.72,456Z" style="fill:#fff6dd"/><path d="M1222.74,296.18c14.47-13.28,45.15-9.36,47.58-6.71s3.73,33.55-10.74,46.83-30.2,13.77-41.66,1.28S1208.27,309.47,1222.74,296.18Z" style="fill:#ffc935;stroke:#231f20;stroke-miterlimit:10;stroke-width:9.60000038146973px"/><path d="M1267.38,292.17c.41.58,1.09,4.11.84,9.8a49.28,49.28,0,0,1-3.63,16.86c-7.18,6.45-15.9,5.47-23.36-2.66s-7.69-16.89-.65-23.49a49.36,49.36,0,0,1,17.11-2.18C1263.38,290.74,1266.84,291.71,1267.38,292.17Z" style="fill:#fff6dd"/><path d="M1228.09,260.17c17,9.9,22.28,40.36,20.47,43.47s-30.94,13.47-47.91,3.58-22.08-24.78-13.54-39.42S1211.12,250.27,1228.09,260.17Z" style="fill:#ffc935;stroke:#231f20;stroke-miterlimit:10;stroke-width:9.60000038146973px"/><path d="M1245.11,301.62c-.43.57-3.6,2.26-9.11,3.7a49.13,49.13,0,0,1-17.18,1.52c-8.28-4.95-9.92-13.57-4.37-23.1s13.87-12.34,22.25-7.56a49,49,0,0,1,7.14,15.69C1245.3,297.38,1245.39,301,1245.11,301.62Z" style="fill:#fff6dd"/><path d="M1229.68,339.72c-1.3,19.6-26.2,37.93-29.79,37.69s-25.86-21.69-24.56-41.3,12.35-30.8,29.27-29.68S1231,320.12,1229.68,339.72Z" style="fill:#ffc935;stroke:#231f20;stroke-miterlimit:10;stroke-width:9.60000038146973px"/><path d="M1200.15,373.43c-.69-.13-3.62-2.22-7.37-6.51a49.2,49.2,0,0,1-9-14.7c.74-9.63,7.73-14.93,18.73-14.2s17.23,6.91,16.69,16.55A49,49,0,0,1,1208.31,368C1204,371.71,1200.86,373.39,1200.15,373.43Z" style="fill:#fff6dd"/><path d="M1259.31,238.37c19.18-4.27,43.78,14.47,44.56,18s-13.55,30.92-32.72,35.19-33-3.18-36.72-19.73S1240.14,242.64,1259.31,238.37Z" style="fill:#ffc935;stroke:#231f20;stroke-miterlimit:10;stroke-width:9.60000038146973px"/><path d="M1300,257.22c.07.71-1.11,4.1-4.17,8.9a49.24,49.24,0,0,1-11.57,12.79c-9.45,2-16.51-3.21-18.9-14s1.78-18.47,11.18-20.67a49,49,0,0,1,15.91,6.67C1297.23,254,1299.73,256.55,1300,257.22Z" style="fill:#fff6dd"/><path d="M1330,189.69c-3.28,19.37-29.92,35.08-33.47,34.48s-23.52-24.21-20.23-43.58,15.4-29.39,32.12-26.56S1333.32,170.32,1330,189.69Z" style="fill:#ffc935;stroke:#231f20;stroke-miterlimit:10;stroke-width:9.60000038146973px"/><path d="M1297.24,220.23c-.68-.2-3.38-2.57-6.67-7.22a48.91,48.91,0,0,1-7.47-15.54c1.71-9.5,9.2-14.07,20.07-12.23s16.44,8.62,14.92,18.16a48.91,48.91,0,0,1-12.17,12.21C1301.28,218.92,1298,220.26,1297.24,220.23Z" style="fill:#fff6dd"/><path d="M1285.92,198.55c9.25,17.33-2.21,46-5.39,47.75s-33.41-4.77-42.66-22.1-5.79-32.68,9.17-40.66S1276.67,181.22,1285.92,198.55Z" style="fill:#ffc935;stroke:#231f20;stroke-miterlimit:10;stroke-width:9.60000038146973px"/><path d="M1278.65,242.78c-.66.25-4.24,0-9.69-1.64a49.08,49.08,0,0,1-15.42-7.72c-4.46-8.57-1.33-16.76,8.4-21.95s18.28-3.24,22.91,5.23a48.73,48.73,0,0,1-2.16,17.11C1281,239.27,1279.23,242.37,1278.65,242.78Z" style="fill:#fff6dd"/><path d="M1304.2,194.58c17.61,8.72,25,38.75,23.38,42s-30,15.54-47.56,6.82-23.71-23.23-16.18-38.42S1286.6,185.85,1304.2,194.58Z" style="fill:#ffc935;stroke:#231f20;stroke-miterlimit:10;stroke-width:9.60000038146973px"/><path d="M1324,234.78c-.39.59-3.44,2.5-8.84,4.31a48.94,48.94,0,0,1-17,2.67c-8.61-4.37-10.83-12.86-5.93-22.74s13-13.25,21.69-9.05a48.94,48.94,0,0,1,8.18,15.17C1323.9,230.54,1324.23,234.11,1324,234.78Z" style="fill:#fff6dd"/><path d="M1281.84,261.2c4.93,19,32.82,32.38,36.3,31.48s21.36-26.14,16.42-45.16-17.87-28-34.28-23.7S1276.91,242.18,1281.84,261.2Z" style="fill:#ffc935;stroke:#231f20;stroke-miterlimit:10;stroke-width:9.60000038146973px"/><path d="M1317.14,288.81c.65-.26,3.14-2.85,6-7.77a48.8,48.8,0,0,0,6.11-16.12c-2.52-9.32-10.37-13.23-21-10.46s-15.64,10-13.31,19.37A48.9,48.9,0,0,0,1308.1,285C1313,287.85,1316.44,288.9,1317.14,288.81Z" style="fill:#fff6dd"/><path d="M1267.37,310.18c19.29,3.73,43.35-15.7,44-19.23s-14.42-30.52-33.7-34.25-32.94,4.11-36.15,20.76S1248.08,306.46,1267.37,310.18Z" style="fill:#ffc935;stroke:#231f20;stroke-miterlimit:10;stroke-width:9.60000038146973px"/><path d="M1307.48,290.19c0-.71-1.23-4.07-4.43-8.78A48.89,48.89,0,0,0,1291.12,269c-9.49-1.73-16.4,3.67-18.49,14.5s2.31,18.42,11.76,20.34a48.81,48.81,0,0,0,15.71-7.11C1304.83,293.51,1307.26,290.86,1307.48,290.19Z" style="fill:#fff6dd"/><path d="M1188.22,491.14c14-13.79,11.6-44.62,9.07-47.18s-33.32-5.39-47.31,8.4-15.25,29.47-3.35,41.54S1174.23,504.94,1188.22,491.14Z" style="fill:#ffc935;stroke:#231f20;stroke-miterlimit:10;stroke-width:9.60000038146973px"/><path d="M1194.45,446.77c-.56-.44-4-1.3-9.74-1.33a48.89,48.89,0,0,0-17,2.79c-6.81,6.84-6.26,15.6,1.48,23.45s16.49,8.53,23.43,1.82a48.86,48.86,0,0,0,3-17C1195.68,450.83,1194.88,447.33,1194.45,446.77Z" style="fill:#fff6dd"/><path d="M1370.91,177.84c19.28-3.77,34.3-30.8,33.61-34.33s-24.8-22.89-44.08-19.12-29,16.15-25.73,32.79S1351.63,181.62,1370.91,177.84Z" style="fill:#ffc935;stroke:#231f20;stroke-miterlimit:10;stroke-width:9.60000038146973px"/><path d="M1400.6,144.28c-.22-.67-2.66-3.31-7.39-6.48a48.82,48.82,0,0,0-15.72-7.08c-9.46,1.95-13.84,9.56-11.72,20.38s9,16.21,18.53,14.45a48.87,48.87,0,0,0,11.9-12.48C1399.39,148.35,1400.65,145,1400.6,144.28Z" style="fill:#fff6dd"/><path d="M1255.69,336.58c-5.56,18.84,11.48,44.65,14.93,45.66s31.76-11.42,37.31-30.26-.94-33.18-17.2-38S1261.24,317.73,1255.69,336.58Z" style="fill:#ffc935;stroke:#231f20;stroke-miterlimit:10;stroke-width:9.60000038146973px"/><path d="M1271.75,378.41c.69.12,4.16-.82,9.16-3.56a48.91,48.91,0,0,0,13.53-10.68c2.64-9.29-2.08-16.68-12.66-19.8s-18.55.53-21.38,9.76a49,49,0,0,0,5.58,16.32C1268.7,375.46,1271.1,378.13,1271.75,378.41Z" style="fill:#fff6dd"/><path d="M1225.71,357.23c16.36,10.88,46,2.24,48-.76s-1.52-33.72-17.88-44.59-32-8.92-41.36,5.2S1209.35,346.35,1225.71,357.23Z" style="fill:#ffc935;stroke:#231f20;stroke-miterlimit:10;stroke-width:9.60000038146973px"/><path d="M1270.42,354.26c.32-.63.45-4.22-.69-9.8a48.91,48.91,0,0,0-6.2-16.09c-8.1-5.27-16.55-2.94-22.66,6.24s-5,17.88,3,23.31a48.88,48.88,0,0,0,17.23-.51C1266.7,356.3,1270,354.8,1270.42,354.26Z" style="fill:#fff6dd"/><path d="M1297.83,323.63c17-9.8,22.52-40.23,20.73-43.35s-30.87-13.65-47.9-3.86-22.22,24.65-13.76,39.35S1280.81,333.43,1297.83,323.63Z" style="fill:#ffc935;stroke:#231f20;stroke-miterlimit:10;stroke-width:9.60000038146973px"/><path d="M1315.09,282.27c-.42-.56-3.58-2.27-9.08-3.74a48.93,48.93,0,0,0-17.17-1.62c-8.32,4.9-10,13.51-4.51,23.07s13.8,12.42,22.21,7.69a48.94,48.94,0,0,0,7.23-15.66C1315.26,286.52,1315.37,282.93,1315.09,282.27Z" style="fill:#fff6dd"/><path d="M1359,213.41c17-9.8,22.52-40.23,20.72-43.35s-30.86-13.66-47.89-3.86-22.22,24.65-13.76,39.35S1342,223.21,1359,213.41Z" style="fill:#ffc935;stroke:#231f20;stroke-miterlimit:10;stroke-width:9.60000038146973px"/><path d="M1376.25,172.05c-.43-.56-3.58-2.27-9.09-3.74a48.87,48.87,0,0,0-17.17-1.62c-8.31,4.9-10,13.51-4.5,23.07s13.79,12.42,22.21,7.69a49.17,49.17,0,0,0,7.23-15.66C1376.42,176.3,1376.52,172.71,1376.25,172.05Z" style="fill:#fff6dd"/><path d="M1219.89,394.87c4.61,19.09,32.27,32.92,35.77,32.08s21.79-25.77,17.17-44.87-17.4-28.26-33.88-24.28S1215.28,375.77,1219.89,394.87Z" style="fill:#ffc935;stroke:#231f20;stroke-miterlimit:10;stroke-width:9.60000038146973px"/><path d="M1254.72,423.07c.66-.25,3.19-2.8,6.15-7.67a49,49,0,0,0,6.38-16c-2.36-9.36-10.14-13.4-20.86-10.81s-15.81,9.74-13.64,19.14a49.24,49.24,0,0,0,13,11.35C1250.6,422,1254,423.15,1254.72,423.07Z" style="fill:#fff6dd"/><path d="M1308.32,241.82c4.62,19.1,32.27,32.93,35.77,32.09s21.79-25.78,17.18-44.88-17.4-28.26-33.88-24.28S1303.71,222.73,1308.32,241.82Z" style="fill:#ffc935;stroke:#231f20;stroke-miterlimit:10;stroke-width:9.60000038146973px"/><path d="M1343.15,270c.66-.25,3.2-2.8,6.16-7.66a49,49,0,0,0,6.38-16c-2.37-9.36-10.15-13.4-20.87-10.82s-15.8,9.74-13.63,19.15a48.86,48.86,0,0,0,13,11.34C1339,269,1342.45,270.1,1343.15,270Z" style="fill:#fff6dd"/><path d="M1207.33,479.8c15.94-11.48,18.32-42.31,16.22-45.23s-32.09-10.45-48,1-19.6,26.78-9.7,40.54S1191.39,491.27,1207.33,479.8Z" style="fill:#ffc935;stroke:#231f20;stroke-miterlimit:10;stroke-width:9.60000038146973px"/><path d="M1220.31,436.91c-.48-.52-3.8-1.91-9.42-2.81a48.91,48.91,0,0,0-17.25.13c-7.77,5.72-8.58,14.46-2.14,23.41s15,11,22.88,5.4a49.13,49.13,0,0,0,5.6-16.31C1220.91,441.11,1220.65,437.53,1220.31,436.91Z" style="fill:#fff6dd"/><path d="M1195.86,436.29c19.63.67,40.37-22.27,40.49-25.86s-19-27.9-38.63-28.57-31.88,9.19-32.47,26.13S1176.23,435.62,1195.86,436.29Z" style="fill:#ffc935;stroke:#231f20;stroke-miterlimit:10;stroke-width:9.60000038146973px"/><path d="M1232.36,410.29c-.06-.7-1.84-3.83-5.74-8a48.89,48.89,0,0,0-13.72-10.44c-9.65-.23-15.63,6.18-16,17.21s5.15,17.83,14.79,18.26a48.91,48.91,0,0,0,14.41-9.48C1230.26,414,1232.25,411,1232.36,410.29Z" style="fill:#fff6dd"/></g><g style="clip-path:url(#clip-path-2)"><path d="M1402.76,670.35c-14.72-12-33.69-10.33-42.67,3.59-8.89,13.77-1.41,29.1,12.88,40.39s24.81,10.4,34.09-2.7S1417.46,682.29,1402.76,670.35Z" style="fill:#ffc935;stroke:#000;stroke-miterlimit:10;stroke-width:8px"/><path d="M1412.53,646.68c-15-12.34-34.11-10.59-43,3.66-8.84,14.09-1.22,29.75,13.21,41.35s25,10.79,34.31-2.57C1426.43,675.6,1427.45,659,1412.53,646.68Z" style="fill:#ffc935;stroke:#000;stroke-miterlimit:10;stroke-width:8px"/><path d="M1422.58,622c-15.19-12.73-34.68-10.73-43.7,4-8.93,14.59-1.22,30.69,13.38,42.63s25.28,11.15,34.77-2.67C1436.62,652,1437.74,634.71,1422.58,622Z" style="fill:#ffc935;stroke:#000;stroke-miterlimit:10;stroke-width:8px"/><path d="M1433.1,596.12c-15.44-13.1-35.37-10.73-44.63,4.69-9.15,15.25-1.39,31.86,13.41,44.16s25.66,11.46,35.43-3C1447.19,627.34,1448.51,609.2,1433.1,596.12Z" style="fill:#ffc935;stroke:#000;stroke-miterlimit:10;stroke-width:8px"/><path d="M1444.28,568.81c-15.7-13.46-36.18-10.59-45.81,5.63-9.52,16-1.75,33.22,13.25,45.89s26.13,11.71,36.31-3.56C1458.33,601.32,1460,582.23,1444.28,568.81Z" style="fill:#ffc935;stroke:#000;stroke-miterlimit:10;stroke-width:8px"/><path d="M1456.29,539.94c-16-13.74-37.09-10.27-47.22,6.83-10,16.9-2.3,34.71,12.92,47.75s26.66,11.87,37.38-4.35C1470.21,573.77,1472.22,553.65,1456.29,539.94Z" style="fill:#ffc935;stroke:#000;stroke-miterlimit:10;stroke-width:8px"/><path d="M1469.31,509.51c-16.21-13.92-38.1-9.78-48.87,8.24-10.63,17.8-3,36.21,12.43,49.59s27.26,11.93,38.63-5.33C1483,544.54,1485.48,523.4,1469.31,509.51Z" style="fill:#ffc935;stroke:#000;stroke-miterlimit:10;stroke-width:8px"/><path d="M1483.43,477.65c-16.46-14-39.16-9.15-50.66,9.75-11.36,18.67-3.91,37.61,11.77,51.26s27.93,11.88,40-6.46C1496.84,513.63,1499.85,491.59,1483.43,477.65Z" style="fill:#ffc935;stroke:#000;stroke-miterlimit:10;stroke-width:8px"/><path d="M1498.68,444.68c-16.7-13.84-40.23-8.42-52.52,11.21-12.14,19.39-4.88,38.76,11,52.57s28.62,11.68,41.55-7.66C1511.81,481.22,1515.35,458.5,1498.68,444.68Z" style="fill:#ffc935;stroke:#000;stroke-miterlimit:10;stroke-width:8px"/><path d="M1515,411.11c-16.94-13.59-41.24-7.71-54.32,12.42-12.93,19.89-5.87,39.5,10.27,53.33s29.33,11.34,43-8.79C1527.86,447.7,1531.87,424.66,1515,411.11Z" style="fill:#ffc935;stroke:#000;stroke-miterlimit:10;stroke-width:8px"/><path d="M1532,377.52c-17.16-13.24-42.09-7.12-55.87,13.21-13.62,20.09-6.74,39.72,9.63,53.43s30,10.87,44.45-9.69C1544.82,413.66,1549.14,390.73,1532,377.52Z" style="fill:#ffc935;stroke:#000;stroke-miterlimit:10;stroke-width:8px"/><path d="M1549.53,344.44c-17.32-12.86-42.69-6.72-57,13.51-14.16,20-7.39,39.42,9.21,52.86s30.69,10.36,45.58-10.21C1562.37,379.78,1566.81,357.28,1549.53,344.44Z" style="fill:#ffc935;stroke:#000;stroke-miterlimit:10;stroke-width:8px"/><path d="M1567.14,312.24c-17.42-12.52-43-6.54-57.7,13.35-14.49,19.64-7.76,38.69,9.07,51.77s31.21,9.91,46.32-10.3C1580.13,346.59,1584.52,324.74,1567.14,312.24Z" style="fill:#ffc935;stroke:#000;stroke-miterlimit:10;stroke-width:8px"/><path d="M1584.6,281.05c-17.46-12.26-43.13-6.54-57.94,12.86-14.62,19.16-7.84,37.74,9.18,50.44s31.56,9.56,46.65-10.06C1597.77,314.43,1602,293.28,1584.6,281.05Z" style="fill:#ffc935;stroke:#000;stroke-miterlimit:10;stroke-width:8px"/><path d="M1601.74,250.78c-17.44-12.1-43-6.67-57.82,12.23-14.59,18.66-7.7,36.76,9.46,49.12s31.72,9.34,46.62-9.59C1615.09,283.37,1619.14,262.85,1601.74,250.78Z" style="fill:#ffc935;stroke:#000;stroke-miterlimit:10;stroke-width:8px"/><path d="M1618.51,221.16c-17.38-12.07-42.84-6.87-57.48,11.63-14.45,18.26-7.42,36,9.83,48.08s31.71,9.24,46.33-9.05C1632,253.29,1635.84,233.21,1618.51,221.16Z" style="fill:#ffc935;stroke:#000;stroke-miterlimit:10;stroke-width:8px"/><path d="M1635,191.74c-17.29-12.2-42.61-7.11-57.07,11.22-14.26,18.11-7.08,35.61,10.19,47.55s31.59,9.26,45.91-8.58C1648.48,223.85,1652.19,203.92,1635,191.74Z" style="fill:#ffc935;stroke:#000;stroke-miterlimit:10;stroke-width:8px"/><path d="M1447,699.35c-15.11-11.64-34.82-10.28-44.13,3.09-9.21,13.21-1.68,28.18,12.79,39.26s25.25,10.26,35.08-2.42S1462.05,711,1447,699.35Z" style="fill:#ffc935;stroke:#000;stroke-miterlimit:10;stroke-width:8px"/><path d="M1457.57,676.55c-15.44-12-35.52-10.54-44.89,3.14-9.26,13.53-1.52,28.81,13.19,40.15s25.63,10.59,35.59-2.3S1473,688.52,1457.57,676.55Z" style="fill:#ffc935;stroke:#000;stroke-miterlimit:10;stroke-width:8px"/><path d="M1468.56,652.79c-15.81-12.39-36.38-10.73-45.93,3.47-9.44,14-1.54,29.73,13.45,41.39s26.12,10.92,36.33-2.39S1484.33,665.17,1468.56,652.79Z" style="fill:#ffc935;stroke:#000;stroke-miterlimit:10;stroke-width:8px"/><path d="M1480.09,627.8c-16.18-12.83-37.37-10.83-47.22,4.05-9.74,14.71-1.73,31,13.58,43s26.69,11.22,37.28-2.69C1494.44,658.07,1496.23,640.6,1480.09,627.8Z" style="fill:#ffc935;stroke:#000;stroke-miterlimit:10;stroke-width:8px"/><path d="M1492.33,601.31c-16.56-13.28-38.47-10.81-48.76,4.92-10.17,15.55-2.07,32.44,13.57,44.85s27.36,11.51,38.43-3.19C1506.77,633,1508.86,614.56,1492.33,601.31Z" style="fill:#ffc935;stroke:#000;stroke-miterlimit:10;stroke-width:8px"/><path d="M1505.44,573.14c-17-13.71-39.67-10.67-50.52,6-10.72,16.52-2.58,34.12,13.41,47s28.11,11.75,39.77-3.91C1519.9,606.38,1522.36,586.82,1505.44,573.14Z" style="fill:#ffc935;stroke:#000;stroke-miterlimit:10;stroke-width:8px"/><path d="M1519.55,543.19c-17.32-14.09-40.92-10.41-52.45,7.36-11.39,17.57-3.27,35.93,13.09,49.2s28.92,11.94,41.27-4.82C1533.94,578,1536.83,557.26,1519.55,543.19Z" style="fill:#ffc935;stroke:#000;stroke-miterlimit:10;stroke-width:8px"/><path d="M1534.72,511.5c-17.66-14.38-42.16-10-54.46,8.81-12.16,18.62-4.1,37.72,12.62,51.42s29.79,12.06,42.87-5.88C1549,547.71,1552.35,525.85,1534.72,511.5Z" style="fill:#ffc935;stroke:#000;stroke-miterlimit:10;stroke-width:8px"/><path d="M1551,478.35c-18-14.52-43.32-9.55-56.45,10.23-13,19.55-5,39.32,12,53.38s30.66,12.08,44.51-7C1565.08,515.65,1568.86,492.83,1551,478.35Z" style="fill:#ffc935;stroke:#000;stroke-miterlimit:10;stroke-width:8px"/><path d="M1568.06,444.24c-18.18-14.47-44.29-9.06-58.21,11.41-13.76,20.23-6,40.51,11.45,54.83s31.49,12,46-8.07C1582.07,482.1,1586.2,458.69,1568.06,444.24Z" style="fill:#ffc935;stroke:#000;stroke-miterlimit:10;stroke-width:8px"/><path d="M1585.74,409.92c-18.33-14.29-45-8.69-59.55,12.11-14.42,20.55-6.76,41.07,10.94,55.49s32.24,11.81,47.33-8.88C1599.74,447.7,1604,424.17,1585.74,409.92Z" style="fill:#ffc935;stroke:#000;stroke-miterlimit:10;stroke-width:8px"/><path d="M1603.57,376.05c-18.38-14-45.23-8.46-60.28,12.26-14.87,20.46-7.3,40.92,10.64,55.28s32.82,11.53,48.18-9.29C1617.65,413.22,1621.91,390,1603.57,376.05Z" style="fill:#ffc935;stroke:#000;stroke-miterlimit:10;stroke-width:8px"/><path d="M1621.23,343.12c-18.33-13.69-45.17-8.38-60.42,11.91-15.06,20-7.51,40.18,10.6,54.32s33.18,11.26,48.51-9.24C1635.44,379.36,1639.53,356.78,1621.23,343.12Z" style="fill:#ffc935;stroke:#000;stroke-miterlimit:10;stroke-width:8px"/><path d="M1638.5,311.33c-18.22-13.39-44.84-8.41-60.06,11.26-15,19.42-7.45,39.06,10.76,52.91s33.26,11,48.35-8.85C1652.83,346.52,1656.67,324.68,1638.5,311.33Z" style="fill:#ffc935;stroke:#000;stroke-miterlimit:10;stroke-width:8px"/><path d="M1655.27,280.65c-18-13.13-44.34-8.48-59.37,10.52-14.84,18.75-7.18,37.82,11,51.34s33.12,10.88,47.84-8.26C1669.67,314.86,1673.27,293.74,1655.27,280.65Z" style="fill:#ffc935;stroke:#000;stroke-miterlimit:10;stroke-width:8px"/><path d="M1671.57,250.85c-17.84-12.95-43.78-8.54-58.53,9.86-14.57,18.18-6.82,36.72,11.31,49.92s32.81,10.78,47.12-7.65C1686,284.31,1689.37,263.77,1671.57,250.85Z" style="fill:#ffc935;stroke:#000;stroke-miterlimit:10;stroke-width:8px"/><path d="M1687.53,221.54c-17.63-12.89-43.26-8.59-57.73,9.45-14.29,17.8-6.47,35.93,11.52,48.88s32.4,10.7,46.36-7.17C1701.82,254.6,1705.12,234.39,1687.53,221.54Z" style="fill:#ffc935;stroke:#000;stroke-miterlimit:10;stroke-width:8px"/><path d="M1494.32,728.05c-15.28-11.08-35.79-9.76-45.68,3.13s-2.32,27.27,12.24,38,25.61,9.87,36.1-2.54S1509.57,739.1,1494.32,728.05Z" style="fill:#ffc935;stroke:#000;stroke-miterlimit:10;stroke-width:8px"/><path d="M1506.06,706.05c-15.65-11.37-36.69-9.95-46.74,3.21S1457.06,737,1471.93,748s26.11,10.09,36.82-2.47S1521.69,717.39,1506.06,706.05Z" style="fill:#ffc935;stroke:#000;stroke-miterlimit:10;stroke-width:8px"/><path d="M1518.3,683.17c-16.07-11.72-37.74-10.09-48.07,3.55-10.21,13.48-2.34,28.61,12.87,39.76s26.71,10.32,37.76-2.6S1534.32,694.86,1518.3,683.17Z" style="fill:#ffc935;stroke:#000;stroke-miterlimit:10;stroke-width:8px"/><path d="M1531.16,659.12c-16.48-12.12-38.9-10.17-49.62,4.14-10.6,14.14-2.58,29.77,13,41.21s27.4,10.55,38.9-2.92S1547.61,671.22,1531.16,659.12Z" style="fill:#ffc935;stroke:#000;stroke-miterlimit:10;stroke-width:8px"/><path d="M1544.81,633.63c-16.91-12.58-40.18-10.2-51.41,5-11.1,15-3,31.24,13,43s28.17,10.78,40.21-3.43C1558.81,663.81,1561.68,646.18,1544.81,633.63Z" style="fill:#ffc935;stroke:#000;stroke-miterlimit:10;stroke-width:8px"/><path d="M1559.33,606.44c-17.33-13.06-41.5-10.16-53.35,6-11.71,16-3.47,33,12.92,45.19s29,11,41.68-4.13C1573.38,638.2,1576.63,619.48,1559.33,606.44Z" style="fill:#ffc935;stroke:#000;stroke-miterlimit:10;stroke-width:8px"/><path d="M1574.82,577.41c-17.73-13.57-42.85-10.08-55.41,7.22-12.41,17.09-4.11,34.93,12.71,47.59s29.93,11.22,43.26-5C1588.86,610.85,1592.51,591,1574.82,577.41Z" style="fill:#ffc935;stroke:#000;stroke-miterlimit:10;stroke-width:8px"/><path d="M1591.25,546.49c-18.07-14.06-44.11-10-57.44,8.52-13.17,18.27-4.85,37,12.4,50.14s30.84,11.42,44.86-5.95C1605.26,581.63,1609.29,560.52,1591.25,546.49Z" style="fill:#ffc935;stroke:#000;stroke-miterlimit:10;stroke-width:8px"/><path d="M1608.53,513.85c-18.35-14.48-45.2-9.84-59.3,9.77-13.94,19.38-5.64,39,12,52.63s31.74,11.61,46.4-7C1622.49,550.52,1626.84,528.3,1608.53,513.85Z" style="fill:#ffc935;stroke:#000;stroke-miterlimit:10;stroke-width:8px"/><path d="M1626.37,479.94c-18.52-14.77-45.94-9.78-60.74,10.74-14.63,20.28-6.39,40.68,11.64,54.79s32.56,11.77,47.73-7.85C1640.35,517.76,1644.85,494.68,1626.37,479.94Z" style="fill:#ffc935;stroke:#000;stroke-miterlimit:10;stroke-width:8px"/><path d="M1644.37,445.5c-18.57-14.89-46.23-9.82-61.55,11.2-15.13,20.77-6.94,41.75,11.39,56.25s33.2,11.92,48.63-8.47C1658.46,483.83,1662.91,460.35,1644.37,445.5Z" style="fill:#ffc935;stroke:#000;stroke-miterlimit:10;stroke-width:8px"/><path d="M1662.16,411.27c-18.53-14.83-46.11-9.93-61.66,11.09-15.35,20.77-7.2,42,11.35,56.75s33.59,12,49-8.67C1676.42,449.49,1680.65,426.07,1662.16,411.27Z" style="fill:#ffc935;stroke:#000;stroke-miterlimit:10;stroke-width:8px"/><path d="M1679.45,377.82c-18.41-14.65-45.67-10.07-61.15,10.54-15.3,20.35-7.13,41.44,11.5,56.28s33.68,12.14,48.8-8.4C1693.9,415.44,1697.81,392.45,1679.45,377.82Z" style="fill:#ffc935;stroke:#000;stroke-miterlimit:10;stroke-width:8px"/><path d="M1696.12,345.46c-18.22-14.41-45-10.2-60.25,9.73-15,19.69-6.81,40.39,11.8,55.15s33.51,12.19,48.19-7.85C1710.72,382.2,1714.29,359.83,1696.12,345.46Z" style="fill:#ffc935;stroke:#000;stroke-miterlimit:10;stroke-width:8px"/><path d="M1712.17,314.22c-18-14.13-44.29-10.27-59.14,8.91-14.67,18.94-6.39,39.09,12.12,53.65s33.15,12.2,47.33-7.16C1726.85,350,1730.12,328.32,1712.17,314.22Z" style="fill:#ffc935;stroke:#000;stroke-miterlimit:10;stroke-width:8px"/><path d="M1727.71,284c-17.77-13.88-43.58-10.27-58,8.23-14.28,18.25-6,37.83,12.37,52.12s32.69,12.17,46.41-6.5C1742.36,318.89,1745.43,297.8,1727.71,284Z" style="fill:#ffc935;stroke:#000;stroke-miterlimit:10;stroke-width:8px"/><path d="M1742.94,254.3c-17.53-13.68-43-10.14-57.09,7.85-13.93,17.76-5.61,36.81,12.51,50.83s32.17,12.08,45.54-6C1757.44,288.65,1760.44,268,1742.94,254.3Z" style="fill:#ffc935;stroke:#000;stroke-miterlimit:10;stroke-width:8px"/><path d="M1546.23,753.82c-15.17-10.45-36.41-8.87-47,3.73s-3.3,26.55,11.23,37,25.81,9.39,37-3S1561.37,764.25,1546.23,753.82Z" style="fill:#ffc935;stroke:#000;stroke-miterlimit:10;stroke-width:8px"/><path d="M1559.28,732.29c-15.51-10.61-37.36-8.89-48.27,3.94-10.79,12.68-3.39,26.9,11.45,37.33s26.33,9.44,37.8-3.06S1574.75,742.89,1559.28,732.29Z" style="fill:#ffc935;stroke:#000;stroke-miterlimit:10;stroke-width:8px"/><path d="M1572.91,710c-15.85-10.86-38.4-8.88-49.69,4.39-11.17,13.11-3.61,27.6,11.55,38.14s26.94,9.5,38.81-3.3S1588.74,720.82,1572.91,710Z" style="fill:#ffc935;stroke:#000;stroke-miterlimit:10;stroke-width:8px"/><path d="M1587.27,686.6c-16.21-11.17-39.54-8.85-51.32,5-11.64,13.74-4,28.64,11.56,39.37s27.62,9.57,40-3.72C1600,713.85,1603.44,697.74,1587.27,686.6Z" style="fill:#ffc935;stroke:#000;stroke-miterlimit:10;stroke-width:8px"/><path d="M1602.42,661.85c-16.54-11.55-40.71-8.78-53.07,5.94-12.21,14.55-4.42,30,11.46,41s28.34,9.67,41.25-4.31C1615.11,690.32,1618.93,673.38,1602.42,661.85Z" style="fill:#ffc935;stroke:#000;stroke-miterlimit:10;stroke-width:8px"/><path d="M1618.43,635.51c-16.84-12-41.88-8.73-54.89,7-12.86,15.53-5,31.67,11.25,43s29.11,9.78,42.6-5.05C1631.05,665.42,1635.24,647.49,1618.43,635.51Z" style="fill:#ffc935;stroke:#000;stroke-miterlimit:10;stroke-width:8px"/><path d="M1635.28,607.39c-17.1-12.52-43-8.7-56.67,8.15-13.55,16.66-5.66,33.61,11,45.29s29.88,9.93,44-5.9C1647.79,638.91,1652.34,619.88,1635.28,607.39Z" style="fill:#ffc935;stroke:#000;stroke-miterlimit:10;stroke-width:8px"/><path d="M1652.85,577.44c-17.29-13.08-43.86-8.73-58.27,9.32-14.23,17.85-6.33,35.71,10.61,47.85s30.62,10.1,45.25-6.82C1665.25,610.67,1670.1,590.49,1652.85,577.44Z" style="fill:#ffc935;stroke:#000;stroke-miterlimit:10;stroke-width:8px"/><path d="M1670.92,545.79c-17.4-13.65-44.47-8.9-59.5,10.34-14.85,19-7,37.82,10.28,50.47s31.26,10.33,46.33-7.69C1683.27,580.67,1688.29,559.41,1670.92,545.79Z" style="fill:#ffc935;stroke:#000;stroke-miterlimit:10;stroke-width:8px"/><path d="M1689.14,512.81c-17.45-14.17-44.72-9.24-60.19,11-15.29,20-7.43,39.74,10,52.94s31.76,10.62,47.06-8.39C1701.55,549.1,1706.55,527,1689.14,512.81Z" style="fill:#ffc935;stroke:#000;stroke-miterlimit:10;stroke-width:8px"/><path d="M1707.13,479.09c-17.45-14.58-44.61-9.73-60.25,11.11-15.46,20.59-7.61,41.17,10,54.92s32,11,47.34-8.76C1719.73,516.35,1724.53,493.64,1707.13,479.09Z" style="fill:#ffc935;stroke:#000;stroke-miterlimit:10;stroke-width:8px"/><path d="M1724.55,445.3c-17.39-14.82-44.21-10.27-59.73,10.69-15.33,20.7-7.44,41.84,10.27,56.11s32.13,11.45,47.16-8.71C1737.46,483,1741.91,460.08,1724.55,445.3Z" style="fill:#ffc935;stroke:#000;stroke-miterlimit:10;stroke-width:8px"/><path d="M1741.26,412c-17.32-14.88-43.66-10.74-58.83,9.9-15,20.38-7,41.72,10.73,56.37s32,11.92,46.58-8.25C1754.5,449.58,1758.53,426.83,1741.26,412Z" style="fill:#ffc935;stroke:#000;stroke-miterlimit:10;stroke-width:8px"/><path d="M1757.2,379.48c-17.21-14.81-43-11.09-57.71,8.95-14.52,19.79-6.42,41,11.26,55.85s31.73,12.32,45.78-7.54C1770.76,416.63,1774.38,394.26,1757.2,379.48Z" style="fill:#ffc935;stroke:#000;stroke-miterlimit:10;stroke-width:8px"/><path d="M1772.5,347.92c-17.1-14.64-42.39-11.29-56.61,8-14,19.09-5.82,39.91,11.78,54.82s31.37,12.6,44.9-6.75C1786.26,384.42,1789.55,362.53,1772.5,347.92Z" style="fill:#ffc935;stroke:#000;stroke-miterlimit:10;stroke-width:8px"/><path d="M1787.33,317.2c-17-14.43-41.86-11.31-55.64,7.35-13.61,18.42-5.33,38.76,12.15,53.57s31,12.76,44.08-6C1801.19,353,1804.27,331.6,1787.33,317.2Z" style="fill:#ffc935;stroke:#000;stroke-miterlimit:10;stroke-width:8px"/><path d="M1802,287.05c-16.87-14.22-41.52-11.14-55,7-13.3,17.91-5,37.76,12.33,52.39s30.63,12.78,43.46-5.55C1815.78,322.34,1818.83,301.23,1802,287.05Z" style="fill:#ffc935;stroke:#000;stroke-miterlimit:10;stroke-width:8px"/><path d="M1597,777.52c-14.8-9.95-36.43-7.94-47.79,4.6s-4.4,26.24,10,36.43,25.75,9,37.45-3.64S1611.75,787.45,1597,777.52Z" style="fill:#ffc935;stroke:#000;stroke-miterlimit:10;stroke-width:8px"/><path d="M1611.11,756.09c-15-10-37.24-7.76-48.94,5s-4.63,26.38,10,36.44,26.21,8.86,38.24-3.8S1626.11,766.05,1611.11,756.09Z" style="fill:#ffc935;stroke:#000;stroke-miterlimit:10;stroke-width:8px"/><path d="M1625.88,734c-15.25-10.09-38.11-7.57-50.25,5.54s-5,26.91,9.86,36.93,26.71,8.73,39.15-4.16C1637.22,759.28,1641.1,744.08,1625.88,734Z" style="fill:#ffc935;stroke:#000;stroke-miterlimit:10;stroke-width:8px"/><path d="M1641.35,711c-15.46-10.29-39-7.37-51.65,6.32-12.51,13.53-5.44,27.76,9.65,37.83s27.25,8.64,40.15-4.68S1656.77,721.26,1641.35,711Z" style="fill:#ffc935;stroke:#000;stroke-miterlimit:10;stroke-width:8px"/><path d="M1657.56,686.77c-15.62-10.58-39.84-7.21-53.08,7.25-13.08,14.29-6,29,9.35,39.15s27.8,8.58,41.2-5.34C1668.58,713.76,1673.15,697.32,1657.56,686.77Z" style="fill:#ffc935;stroke:#000;stroke-miterlimit:10;stroke-width:8px"/><path d="M1674.51,661.11c-15.75-11-40.61-7.07-54.45,8.31-13.69,15.21-6.63,30.45,9,40.85s28.34,8.57,42.24-6.1C1685.31,689.32,1690.22,672,1674.51,661.11Z" style="fill:#ffc935;stroke:#000;stroke-miterlimit:10;stroke-width:8px"/><path d="M1692.1,633.88c-15.82-11.41-41.22-7-55.67,9.4-14.28,16.26-7.26,32.2,8.52,42.89s28.83,8.61,43.19-6.94C1702.67,663.5,1707.88,645.27,1692.1,633.88Z" style="fill:#ffc935;stroke:#000;stroke-miterlimit:10;stroke-width:8px"/><path d="M1710.15,605c-15.83-12-41.61-7.17-56.58,10.41-14.8,17.37-7.86,34.15,8.09,45.21s29.24,8.72,44-7.77C1720.54,636.18,1726,617,1710.15,605Z" style="fill:#ffc935;stroke:#000;stroke-miterlimit:10;stroke-width:8px"/><path d="M1728.42,574.63c-15.82-12.55-41.74-7.47-57.1,11.2-15.18,18.46-8.32,36.15,7.74,47.67s29.54,8.94,44.5-8.5C1738.71,607.35,1744.2,587.16,1728.42,574.63Z" style="fill:#ffc935;stroke:#000;stroke-miterlimit:10;stroke-width:8px"/><path d="M1746.57,543c-15.77-13.15-41.61-8-57.14,11.6-15.34,19.38-8.54,38,7.58,50.08s29.69,9.28,44.7-9C1756.91,577.15,1762.31,556.13,1746.57,543Z" style="fill:#ffc935;stroke:#000;stroke-miterlimit:10;stroke-width:8px"/><path d="M1764.3,510.58c-15.74-13.69-41.28-8.71-56.71,11.53-15.24,20-8.46,39.52,7.66,52.18s29.7,9.75,44.56-9.22C1774.85,545.87,1780,524.24,1764.3,510.58Z" style="fill:#ffc935;stroke:#000;stroke-miterlimit:10;stroke-width:8px"/><path d="M1781.37,477.83c-15.72-14.11-40.84-9.48-55.93,11-14.91,20.24-8.06,40.47,8,53.73s29.56,10.33,44.09-9.06C1792.28,513.89,1797.07,491.92,1781.37,477.83Z" style="fill:#ffc935;stroke:#000;stroke-miterlimit:10;stroke-width:8px"/><path d="M1797.69,445.23c-15.74-14.39-40.39-10.21-55,10.15-14.42,20.11-7.42,40.78,8.64,54.59s29.35,11,43.43-8.57C1809,481.64,1813.39,459.59,1797.69,445.23Z" style="fill:#ffc935;stroke:#000;stroke-miterlimit:10;stroke-width:8px"/><path d="M1813.27,413.09c-15.77-14.51-40-10.79-54,9.16-13.88,19.7-6.68,40.53,9.36,54.75s29.1,11.56,42.69-7.84C1825,449.5,1829,427.57,1813.27,413.09Z" style="fill:#ffc935;stroke:#000;stroke-miterlimit:10;stroke-width:8px"/><path d="M1828.27,381.56c-15.82-14.51-39.7-11.16-53.25,8.23-13.38,19.15-6,39.9,10,54.38s28.88,12.06,42-7.06C1840.4,417.74,1844.06,396.05,1828.27,381.56Z" style="fill:#ffc935;stroke:#000;stroke-miterlimit:10;stroke-width:8px"/><path d="M1843,350.61c-15.9-14.43-39.6-11.3-52.76,7.54-13,18.6-5.43,39.08,10.61,53.69s28.71,12.41,41.53-6.37C1855.32,386.45,1858.81,365,1843,350.61Z" style="fill:#ffc935;stroke:#000;stroke-miterlimit:10;stroke-width:8px"/><path d="M1857.66,320c-16-14.28-39.75-11.16-52.71,7.25-12.8,18.17-5.12,38.32,10.94,52.91s28.63,12.6,41.34-5.88C1870.11,355.55,1873.64,334.26,1857.66,320Z" style="fill:#ffc935;stroke:#000;stroke-miterlimit:10;stroke-width:8px"/><path d="M1362.45,496c24.16-5,54.63,19.07,55.54,23.5s-17.65,38.51-41.8,43.46-41.39-4.68-45.67-25.52S1338.3,501,1362.45,496Z" style="fill:#ffc935;stroke:#231f20;stroke-miterlimit:10;stroke-width:9.60000038146973px"/><path d="M1413.08,520.54c.07.89-1.48,5.13-5.43,11.09-2.5,3.78-7.74,10.84-14.79,15.8-11.89,2.31-20.64-4.38-23.42-17.94s2.63-23.14,14.47-25.7c8.43,1.79,16,6.21,19.82,8.7C1409.71,516.42,1412.79,519.7,1413.08,520.54Z" style="fill:#fff6dd"/><path d="M1481.33,544.4c14.86,19.68,6.26,57.52,2.66,60.24s-42.36.63-57.22-19-13.57-39.39,3.41-52.21S1466.47,524.72,1481.33,544.4Z" style="fill:#ffc935;stroke:#231f20;stroke-miterlimit:10;stroke-width:9.60000038146973px"/><path d="M1481,600.64c-.77.45-5.26.87-12.34-.13-4.5-.63-13.12-2.33-20.62-6.56-7.2-9.74-4.93-20.51,6.12-28.85s22-7.58,29.42,2c2,8.38,1.29,17.13.67,21.63C1483.25,595.83,1481.61,600,1481,600.64Z" style="fill:#fff6dd"/><path d="M1492.36,641.57c-7.81,23.39-43.87,37.74-48.15,36.31s-24.5-34.57-16.69-58,24.78-33.48,45-26.75S1500.17,618.19,1492.36,641.57Z" style="fill:#ffc935;stroke:#231f20;stroke-miterlimit:10;stroke-width:9.60000038146973px"/><path d="M1445.79,673.12c-.8-.38-3.69-3.84-6.87-10.24-2-4.07-5.51-12.14-6.27-20.72,3.95-11.45,14.12-15.67,27.25-11.29s18.72,13.87,15,25.4c-5.77,6.4-13.4,10.76-17.45,12.79C1451.05,672.27,1446.66,673.3,1445.79,673.12Z" style="fill:#fff6dd"/><path d="M1566,511.09c6.4,23.81-15.75,55.68-20.11,56.85s-39.51-15.29-45.91-39.1,2.18-41.6,22.73-47.12S1559.59,487.28,1566,511.09Z" style="fill:#ffc935;stroke:#231f20;stroke-miterlimit:10;stroke-width:9.60000038146973px"/><path d="M1544.58,563.1c-.88.12-5.2-1.16-11.39-4.74-3.93-2.28-11.29-7.08-16.66-13.82-3-11.73,3.12-20.86,16.48-24.46s23.27,1.23,26.53,12.9c-1.27,8.52-5.23,16.36-7.49,20.3C1548.49,559.49,1545.4,562.77,1544.58,563.1Z" style="fill:#fff6dd"/><path d="M1427.63,493c18.16-16.68,56.66-11.75,59.71-8.43s4.68,42.11-13.48,58.78-37.9,17.28-52.29,1.61S1409.47,509.69,1427.63,493Z" style="fill:#ffc935;stroke:#231f20;stroke-miterlimit:10;stroke-width:9.60000038146973px"/><path d="M1483.65,488c.52.73,1.37,5.16,1,12.3-.2,4.54-1.06,13.28-4.55,21.16-9,8.1-20,6.87-29.31-3.33s-9.66-21.2-.82-29.49c8.15-2.8,16.93-2.92,21.47-2.73C1478.64,486.18,1483,487.41,1483.65,488Z" style="fill:#fff6dd"/><path d="M1439.64,379.7c21.3,12.42,28,50.66,25.7,54.56s-38.84,16.92-60.13,4.49-27.72-31.09-17-49.47S1418.35,367.28,1439.64,379.7Z" style="fill:#ffc935;stroke:#231f20;stroke-miterlimit:10;stroke-width:9.60000038146973px"/><path d="M1461,431.73c-.54.71-4.51,2.83-11.43,4.64-4.4,1.15-13,2.91-21.56,1.9-10.4-6.21-12.46-17-5.49-29s17.4-15.49,27.93-9.49c5.09,6.95,7.79,15.31,9,19.7C1461.25,426.41,1461.36,430.92,1461,431.73Z" style="fill:#fff6dd"/><path d="M1517,441.54c-1.64,24.6-32.89,47.61-37.4,47.31s-32.45-27.23-30.81-51.84,15.49-38.66,36.72-37.25S1518.6,416.94,1517,441.54Z" style="fill:#ffc935;stroke:#231f20;stroke-miterlimit:10;stroke-width:9.60000038146973px"/><path d="M1479.9,483.85c-.87-.17-4.54-2.78-9.24-8.17-3-3.42-8.4-10.35-11.31-18.46.93-12.08,9.69-18.73,23.5-17.82s21.62,8.68,20.94,20.77c-4,7.66-10.23,13.8-13.64,16.8C1484.78,481.69,1480.79,483.8,1479.9,483.85Z" style="fill:#fff6dd"/><path d="M1525.34,360.77c24.06-5.36,54.94,18.16,55.92,22.57s-17,38.8-41.07,44.16-41.46-4-46.09-24.76S1501.27,366.13,1525.34,360.77Z" style="fill:#ffc935;stroke:#231f20;stroke-miterlimit:10;stroke-width:9.60000038146973px"/><path d="M1576.36,384.43c.09.88-1.39,5.14-5.23,11.17-2.45,3.83-7.57,11-14.53,16-11.85,2.52-20.71-4-23.72-17.53s2.24-23.19,14-25.94c8.46,1.64,16.12,5.93,20,8.36C1572.92,380.36,1576.06,383.59,1576.36,384.43Z" style="fill:#fff6dd"/><path d="M1624.25,307.4c-4.12,24.31-37.55,44-42,43.27s-29.52-30.38-25.4-54.69,19.34-36.9,40.32-33.34S1628.37,283.09,1624.25,307.4Z" style="fill:#ffc935;stroke:#231f20;stroke-miterlimit:10;stroke-width:9.60000038146973px"/><path d="M1583.09,345.73c-.85-.26-4.24-3.23-8.37-9.07-2.63-3.71-7.31-11.14-9.38-19.5,2.15-11.93,11.54-17.66,25.19-15.35s20.63,10.82,18.73,22.79c-4.72,7.21-11.58,12.69-15.28,15.33C1588.16,344.08,1584,345.77,1583.09,345.73Z" style="fill:#fff6dd"/><path d="M1512.23,302.37c11.61,21.75-2.78,57.8-6.76,59.92s-41.94-6-53.55-27.73-7.26-41,11.51-51S1500.62,280.62,1512.23,302.37Z" style="fill:#ffc935;stroke:#231f20;stroke-miterlimit:10;stroke-width:9.60000038146973px"/><path d="M1503.11,357.87c-.83.32-5.33,0-12.17-2.05-4.34-1.33-12.59-4.35-19.35-9.7-5.59-10.74-1.67-21,10.55-27.54s22.94-4.06,28.75,6.57c.68,8.59-1.4,17.12-2.71,21.47C1506.11,353.47,1503.84,357.36,1503.11,357.87Z" style="fill:#fff6dd"/></g><path id="path900-6" data-name="path900" d="M1525.45,778.86l-336-209.44-.51-.32c25.27,15.75,115.51-66.54,192.22-189.61s110.59-239.76,85.26-255.55l336,209.45.51.31c25.33,15.79,2.87,139.6-73.84,262.68s-178.37,198.23-203.64,182.48Z" style="fill:none;stroke:#000;stroke-linecap:round;stroke-linejoin:round;stroke-width:8px"/><path id="path900-7" data-name="path900" d="M1345,31C1334.42,17.37,1239.28,67,1135.81,147.15S960.17,307.47,970.72,321.09s107.55-33.51,211-113.7S1355.58,44.67,1345,31Z" style="fill:#6d6e70;stroke:#000;stroke-linecap:round;stroke-linejoin:round;stroke-width:8px"/><path d="M686.22,918.42V754.56C686.22,421,1001,385.39,1001,385.39" style="fill:none;stroke:#231f20;stroke-linecap:round;stroke-linejoin:round;stroke-width:24px"/><polyline points="828.62 760.66 686.22 928.49 543.82 760.66" style="fill:none;stroke:#231f20;stroke-linecap:round;stroke-linejoin:round;stroke-width:24px"/></svg>