<svg xmlns="http://www.w3.org/2000/svg" height="1973.97" width="1655.751"  xmlns:v="https://vecta.io/nano"><g fill="#fff" stroke="#231f20" stroke-miterlimit="10" stroke-width="31.86"><path d="M1631.032 167.21l-696.68 776.84c-21.93 24.46-54.13 20.67-71.4-7.6l-98-160.56c-13.67-22.38-9.27-57 9.45-77.84l594.78-663.2c18.72-20.88 52.63-29 76.35-17.85l170.25 80.06c29.88 14.14 37.17 45.7 15.24 70.14z"/><path d="M1532.542 141.21c-10.3 11.48-29.5 15-42.66 7.9l-77.9-41.9c-11.78-6.33-13.45-20-3.9-30.66s26.9-14.44 38.94-8.4l79.64 40c13.47 6.75 16.2 21.6 5.9 33.06z"/></g><g fill="#a12121" stroke="#010101" stroke-miterlimit="15.12" stroke-width="7.96"><path d="M911.672 468.84c-15.65 19.68-54.4 12.15-71.25 34.38-23 30.38 4.82 55.5-17.1 84.13-23.14 30.23-54.88 10.4-76.4 40-10.57 14.53-.1 37.8 13.12 47.66 13.43 10 35.13 9.7 44.35-1.72 23-28.57 57.32-16.63 78-41.86s-4.52-56.1 17.44-85.42c21.7-29 60.78-15.14 78-41.82 7.25-11.26-.15-32.43-8.75-38.66-33.02-23.88-45.2-12.05-57.4 3.3z"/><path d="M970.972 511.65c-15.65 19.7-54.4 12.15-71.25 34.38-23 30.38 4.82 55.5-17.1 84.14-23.14 30.23-54.88 10.4-76.4 40-10.58 14.54-.12 37.82 13.1 47.66 13.43 10 35.14 9.72 44.35-1.72 23-28.57 57.32-16.63 78-41.86s-4.52-56.1 17.44-85.4c21.7-29 60.78-15.15 78-41.82 7.25-11.26-.15-32.44-8.75-38.66-33-23.87-45.13-12-57.34 3.3z"/><path d="M1031.332 555.2c-15.65 19.7-54.4 12.15-71.25 34.38-23 30.38 4.82 55.5-17.1 84.14-23.14 30.23-54.9 10.4-76.4 40-10.58 14.54-.12 37.82 13.1 47.66 13.44 10 35.14 9.72 44.36-1.72 23-28.57 57.32-16.63 78-41.86s-4.52-56.1 17.43-85.42c21.7-29 60.78-15.14 78-41.8 7.25-11.26-.16-32.44-8.75-38.67-33-23.86-45.14-12-57.35 3.32zm-112.04-315c-8 23.83-47 29.9-55.34 56.52-11.37 36.4 23.37 50.57 12.47 85-11.5 36.3-48.1 28.43-58.3 63.55-5 17.27 12.72 35.6 28.5 40.38 16 4.84 36.35-2.8 41.14-16.68 12-34.7 48.27-35.1 59.15-65.85s-23.3-51.23-12.6-86.26c10.58-34.65 52-34.88 59.14-65.8 3-13.05-11.16-30.45-21.36-33.4-39.1-11.3-46.54 3.95-52.8 22.54z"/><path d="M989.672 260.35c-8 23.83-47 29.9-55.34 56.53-11.36 36.4 23.37 50.56 12.48 84.94-11.5 36.3-48.1 28.43-58.3 63.55-5 17.27 12.73 35.6 28.52 40.38 16 4.84 36.34-2.8 41.13-16.68 12-34.7 48.27-35.1 59.15-65.85s-23.3-51.23-12.6-86.26c10.57-34.64 52-34.88 59.13-65.8 3-13.05-11.15-30.46-21.36-33.4-39.14-11.26-46.6 4-52.8 22.6z"/><path d="M1061.212 280.87c-8 23.83-47 29.9-55.35 56.52-11.36 36.4 23.38 50.57 12.48 84.95-11.5 36.3-48.1 28.43-58.3 63.55-5 17.26 12.73 35.6 28.52 40.38 16 4.84 36.35-2.8 41.13-16.68 12-34.7 48.27-35.1 59.15-65.85s-23.3-51.23-12.6-86.27c10.58-34.64 52-34.87 59.13-65.8 3-13-11.15-30.45-21.35-33.4-39.1-11.27-46.54 4-52.8 22.6z"/><path d="M1206.672 249.42c-22 12.1-54.85-9.86-79 4.1-33 19.1-17 53-48.35 70.95-33 18.9-54.63-11.66-85.93 7.27-15.38 9.3-14.76 34.82-6.37 49 8.52 14.42 28.64 22.56 41.56 15.6 32.3-17.42 59.3 6.87 88.12-8.4s17.56-53.47 49.15-72c31.25-18.33 61.9 9.58 88.07-8.36 11-7.57 12.43-30 6.9-39-21.14-34.76-37-28.58-54.16-19.14z"/><path d="M1244.752 311.86c-22 12.1-54.84-9.86-79 4.1-33 19.08-17 53-48.35 70.95-33 18.9-54.63-11.66-85.93 7.27-15.38 9.3-14.76 34.82-6.37 49 8.52 14.42 28.64 22.56 41.56 15.6 32.3-17.42 59.3 6.87 88.12-8.4s17.56-53.47 49.15-72c31.25-18.33 61.9 9.58 88.08-8.37 11-7.57 12.42-30 6.9-39-21.14-34.8-36.95-28.6-54.16-19.16z"/><path d="M1283.532 375.44c-22 12.1-54.85-9.86-79 4.1-33 19.1-17.06 53-48.36 70.95-33 18.9-54.63-11.66-85.93 7.27-15.38 9.3-14.75 34.82-6.37 49 8.52 14.42 28.64 22.57 41.56 15.6 32.3-17.42 59.3 6.87 88.12-8.38s17.56-53.48 49.15-72c31.25-18.32 61.9 9.58 88.08-8.36 11-7.57 12.42-30 6.9-39-21.14-34.8-36.95-28.6-54.15-19.17zm-646.5 405.65c-21.58 12.9-55.18-7.8-78.8 7.06-32.28 20.3-15.06 53.63-45.67 72.7-32.3 20.13-55-9.6-85.6 10.48-15 9.87-13.44 35.35-4.52 49.23 9 14.08 29.45 21.47 42.1 14 31.62-18.62 59.5 4.64 87.74-11.68s15.55-54.1 46.42-73.8c30.54-19.5 62.22 7.25 87.7-11.66 10.75-8 11.3-30.4 5.44-39.26-22.42-34-38-27.18-54.83-17.1z"/><path d="M677.442 842.07c-21.58 12.9-55.18-7.8-78.8 7-32.28 20.3-15.06 53.64-45.67 72.7-32.3 20.14-55-9.6-85.6 10.5-15 9.87-13.45 35.34-4.53 49.22 9 14.1 29.46 21.48 42.1 14 31.62-18.6 59.5 4.65 87.74-11.68s15.55-54.1 46.43-73.8c30.53-19.48 62.2 7.26 87.7-11.65 10.76-8 11.3-30.4 5.44-39.27-22.42-33.9-38-27.1-54.83-17.03z"/><path d="M718.562 904.15c-21.58 12.9-55.18-7.8-78.8 7-32.27 20.3-15.05 53.64-45.66 72.7-32.3 20.13-55-9.6-85.6 10.5-15 9.87-13.44 35.34-4.53 49.22 9.05 14.1 29.46 21.48 42.12 14 31.62-18.62 59.5 4.65 87.73-11.68s15.55-54.1 46.43-73.8c30.54-19.48 62.22 7.26 87.7-11.65 10.75-8 11.3-30.4 5.44-39.27-22.43-33.88-38-27.1-54.84-17.03z"/></g><path d="M1279.542 1177.74l197.3 21.92c77.1 8.57 77.64 126.8 8.43 151.76l-205.72 74.2zm-1011.12 0l-197.28 21.92c-77.1 8.57-77.65 126.8-8.44 151.76l205.72 74.2zm1011.12-152v790.76a145.15 145.15 0 0 1-145.47 145.47h-720.18a145.15 145.15 0 0 1-145.47-145.47v-790.73z" fill="#fff" stroke="#231f20" stroke-linejoin="round" stroke-width="24"/></svg>