<svg id="Layer_1" data-name="Layer 1" xmlns="http://www.w3.org/2000/svg" xmlns:xlink="http://www.w3.org/1999/xlink" viewBox="0 0 2000 1870.1"><defs><clipPath id="clip-path"><path id="path900" d="M1388.78,774.61,1009,616.19l-.58-.24c28.56,11.91,107.3-87.61,165.32-226.7s73.19-264.44,44.56-276.39l379.74,158.42.58.24c28.62,12,26.36,142.69-31.66,281.77s-149.67,233.23-178.22,221.32Z" style="fill:none;stroke:#231f20;stroke-miterlimit:10;stroke-width:10px"/></clipPath></defs><path id="path900-2" data-name="path900" d="M1482.28,818.41l-584.8-244c147.37-153.31,208.38-308.53,213.28-511.25l584.8,244h0c29.09,12.13,26.79,145-32.17,286.34s-152.1,237-181.11,224.91Z" style="fill:#9b9ea9;stroke:#231f20;stroke-miterlimit:10;stroke-width:10px"/><path id="path900-3" data-name="path900" d="M1482.28,818.41l-584.8-244c147.37-153.31,208.38-308.53,213.28-511.25l584.8,244h0c29.09,12.13,26.79,145-32.17,286.34s-152.1,237-181.11,224.91Z" style="fill:#929497;stroke:#231f20;stroke-miterlimit:10;stroke-width:10px"/><path id="path900-4" data-name="path900" d="M1482.28,818.41l-584.8-244c147.37-153.31,208.38-308.53,213.28-511.25l584.8,244h0c29.09,12.13,26.79,145-32.17,286.34s-152.1,237-181.11,224.91Z" style="fill:none;stroke:#231f20;stroke-linecap:round;stroke-linejoin:round;stroke-width:10px"/><path id="path900-5" data-name="path900" d="M1110.76,63.19c29.09,12.14,13.68,139.53-45.28,280.87s-139,242.48-168,230.38-18.82-141.63,40.15-283S1081.67,51.06,1110.76,63.19Z" style="fill:#929497;stroke:#231f20;stroke-miterlimit:10;stroke-width:10px"/><path id="path900-6" data-name="path900" d="M1110.76,63.19c29.09,12.14,13.68,139.53-45.28,280.87s-139,242.48-168,230.38-18.82-141.63,40.15-283S1081.67,51.06,1110.76,63.19Z" style="fill:none;stroke:#231f20;stroke-linecap:round;stroke-linejoin:round;stroke-width:10px"/><path id="path900-7" data-name="path900" d="M1075.64,31.1c-12.29-11.43-106.91,63.06-207.42,171.09S699.86,410.45,712.11,421.85s109-61,209.55-169S1087.92,42.53,1075.64,31.1Z" style="fill:#6d6e70;stroke:#231f20;stroke-linecap:round;stroke-linejoin:round;stroke-width:10px"/><path id="path900-8" data-name="path900" d="M1390.72,780.21l-385.91-161-.58-.25c29,12.11,109-89,168-230.37s74.37-268.74,45.28-280.88l385.9,161,.59.24c29.09,12.14,26.79,145-32.17,286.34s-152.1,237-181.11,224.91Z" style="fill:#c93c27;stroke:#231f20;stroke-linecap:round;stroke-linejoin:round;stroke-width:10px"/><g style="clip-path:url(#clip-path)"><g id="g1522"><path id="path862" d="M1453.46,186.11c158.06,67.81,215.36,238.32,156.16,380.22s-230.39,227.29-387.43,162.92c-101.58-38.68-89.51-185.12-30.31-327S1367.32,153.39,1453.46,186.11Z" style="fill:#fff;stroke:#231f20;stroke-linecap:round;stroke-linejoin:round;stroke-width:10px"/><path id="path857" d="M1455,186.39c78.78,31.87,88.4,190.82,29.2,332.71s-178.23,245.23-257,213.32c-104.91-42.49-95.81-191.36-36.62-333.26S1354.45,145.71,1455,186.39Z" style="fill:#fff;stroke:#231f20;stroke-linecap:round;stroke-linejoin:round;stroke-width:10px"/><path id="path887" d="M1467.82,286.78c58.84-25.1,75.91,90.56,16.71,232.45s-156.47,212.39-187.62,165c-37.74-74.29-8.1-178.29,16.73-237.8s77.19-130.71,154.18-159.68Z" style="fill:#c93c27;stroke:#231f20;stroke-linecap:round;stroke-linejoin:round;stroke-width:10px"/><path id="path889" d="M1532.09,683.85c64.15-1.24,146.19-194.84,101.93-241.3" style="fill:none;stroke:#231f20;stroke-linecap:round;stroke-linejoin:round;stroke-width:10px"/></g></g><path id="path900-9" data-name="path900" d="M1388.78,774.61,1009,616.19l-.58-.24c28.56,11.91,107.3-87.61,165.32-226.7s73.19-264.44,44.56-276.39l379.74,158.42.58.24c28.62,12,26.36,142.69-31.66,281.77s-149.67,233.23-178.22,221.32Z" style="fill:none;stroke:#231f20;stroke-miterlimit:10;stroke-width:10px"/><path d="M960.71,385.3l-.4.06C525,766.34,589,1192.24,589,1192.24l231.28-7.19s-43-455.95,72.68-622.69c1.23,5.88,26.38-2.67,28.16,3.8C957,544.67,1017.32,458.71,1064,346.75c7.83-18.76,14.86-37.26,21.11-55.26C1092,271.85,1012.3,342.25,960.71,385.3Z" style="fill:#c93c27;stroke:#231f20;stroke-linecap:round;stroke-linejoin:round;stroke-width:10px"/><g id="layer3"><path id="path916" d="M1388.27,1052.24v661.15a137.46,137.46,0,0,1-137.21,137.71H158.47A137.45,137.45,0,0,1,20.71,1714V1052.19Z" style="fill:#fff;stroke:#231f20;stroke-linecap:round;stroke-linejoin:round;stroke-width:10px"/></g><path d="M1979.29,1280.27l-502.6-16.64a61.24,61.24,0,0,0-58.22,37.41l-30.22,71.55V1155l591-19.27Z" style="fill:#fff;stroke:#231f20;stroke-linecap:round;stroke-linejoin:round;stroke-width:10px"/></svg>