<svg xmlns="http://www.w3.org/2000/svg" height="1923.999" width="1660.987"  xmlns:v="https://vecta.io/nano"><style><![CDATA[.B{stroke-linecap:round}.C{stroke:#231f20}.D{stroke-width:24}.E{stroke-miterlimit:10}]]></style><g fill="#fff" class="C D E"><path d="M1634.77 185.37l-778.15 867.68c-24.5 27.32-60.47 23.1-79.74-8.47L667.36 865.24c-15.27-25-10.36-63.62 10.56-86.94l664.33-740.77c20.9-23.32 58.78-32.4 85.3-19.93l190.16 89.42c33.46 15.74 41.57 51.04 17.07 78.35z"/><path d="M1524.76 156.36c-11.5 12.83-32.93 16.73-47.64 8.82l-87-46.8c-13.15-7.07-15-22.36-4.36-34.24s30-16.14 43.5-9.4l89 44.62c14.98 7.55 18 24.15 6.5 36.98z"/></g><g fill="#fcfbf3" stroke="#010101" stroke-width="9.804" stroke-linejoin="round"><path d="M783.48 762.3c19.88-8.06 46 62.46 46 62.46-3.55 26.88-31.4 15.12-41.5 29.92s-58.77-62.34-35.88-69.32c17.1-5.2 31.37-23.06 31.37-23.06z"/><path d="M767.9 794.54s12.56 38.42 26.4 47" class="B"/><path d="M983.15 662.29c20.13-7.42 44 63.87 44 63.87-4.4 26.76-31.86 14.14-42.4 28.6s-56.8-64.15-33.7-70.4c17.26-4.67 32.1-22.07 32.1-22.07z"/><path d="M966.56 694.03s11.35 38.8 24.9 47.85" class="B"/><path d="M650.04 869.77c20.06 7.6-8.64 77.1-8.64 77.1-20.86 17.3-33.32-10.23-50.78-6.2s-.8-85.67 20.75-75.26c16.05 7.77 38.67 4.37 38.67 4.37z"/><path d="M616.7 882.85s-16.86 36.73-12.57 52.46" class="B"/><path d="M548.6 1021.86c15.08-15.25 67 39.2 67 39.2 7.35 26.1-22.87 26.3-26.3 43.88s-78.62-34-60.35-49.5c13.57-11.53 19.64-33.57 19.64-33.57z"/><path d="M547 1057.64s26.72 30.33 42.84 32.8" class="B"/><path d="M1332.65 332.76c12.83 17.2-48.78 60.32-48.78 60.32-26.9 3.4-22.58-26.55-39.45-32.6s45.44-72.63 58-52.24c9.35 15.24 30.23 24.53 30.23 24.53z"/><path d="M1297.5 325.83s-34 21.88-38.83 37.44" class="B"/><path d="M717.84 1013.11c15.08-15.26 67 39.2 67 39.2 7.35 26.1-22.88 26.3-26.3 43.9s-78.62-34-60.35-49.52c13.57-11.53 19.64-33.56 19.64-33.56z"/><path d="M716.25 1048.89s26.72 30.33 42.84 32.8" class="B"/><path d="M999.67 556.02c15.1-15.25 67 39.2 67 39.2 7.35 26.1-22.88 26.3-26.3 43.88s-78.62-34-60.34-49.5c13.58-11.53 19.64-33.57 19.64-33.57z"/><path d="M998.1 591.8s26.72 30.33 42.83 32.8" class="B"/><path d="M1143.36 466.59c21.27-2.83 29 72 29 72-10.16 25.14-34.2 6.8-47.65 18.6s-41.34-75-17.42-76.1c17.8-.8 36.07-14.52 36.07-14.52z"/><path d="M1120.2 493.92s2.57 40.34 13.8 52.15" class="B"/><path d="M876.3 735.07c2.36-21.33 76.83-10.84 76.83-10.84 22 15.9-1.6 34.82 6.63 50.73s-82.78 22.1-78-1.36c3.47-17.5-5.46-38.53-5.46-38.53z"/><path d="M897.27 764.1s39.78 7.2 53.94-.88" class="B"/><path d="M1045.03 513.1c0-21.46 75.18-19.18 75.18-19.18 23.57 13.4 2.2 34.78 12.14 49.7s-79.86 31-77.73 7.2c1.6-17.77-9.6-37.7-9.6-37.7z"/><path d="M1069.05 539.66s40.33 2.8 53.52-6.78" class="B"/><path d="M766.05 836.53c2.16-21.35 76.72-11.53 76.72-11.53 22.1 15.7-1.3 34.83 7.1 50.66s-82.57 22.86-78.06-.64c3.36-17.55-5.75-38.5-5.75-38.5z"/><path d="M787.28 865.37s39.84 6.83 53.93-1.37" class="B"/><path d="M1040.12 678.17c-8 19.9-76.9-10.2-76.9-10.2-16.9-21.2 10.9-33.1 7.23-50.64s85.67.9 74.82 22.25c-8.1 15.88-5.14 38.58-5.14 38.58z"/><path d="M1027.72 644.57s-36.4-17.6-52.2-13.62" class="B"/><path d="M1101.42 586.81c18.84 10.25-19.07 75.2-19.07 75.2-23 14.3-31.6-14.67-49.45-13.07s10.88-85 30.8-71.73c14.87 9.9 37.7 9.6 37.7 9.6z"/><path d="M1066.63 595.22s-21.72 34.1-19.6 50.25" class="B"/><path d="M891.42 757.25c3.24 21.22-71.42 30.22-71.42 30.22-25.3-9.7-7.4-34.06-19.45-47.3s74.3-42.66 75.77-18.77c1.1 17.82 15.1 35.86 15.1 35.86z"/><path d="M863.72 734.59s-40.3 3.28-51.9 14.73" class="B"/><path d="M831.98 807.08c-9.27-19.35 59.47-49.83 59.47-49.83 27 1.87 17 30.4 32.46 39.55s-58.56 62.54-67 40.12c-6.22-16.7-24.93-29.84-24.93-29.84z"/><path d="M865.14 820.63s37.56-14.94 45.3-29.28" class="B"/><path d="M720.33 826.18c15.08-15.26 67 39.2 67 39.2 7.35 26.1-22.87 26.3-26.3 43.9s-78.62-34-60.35-49.52c13.57-11.52 19.64-33.56 19.64-33.56z"/><path d="M718.74 861.96s26.72 30.33 42.84 32.8" class="B"/><path d="M653.36 910.47c4.53-21 77.53-2.9 77.53-2.9 20.22 18.06-5.17 34.47 1.4 51.14s-84.6 13.52-77.5-9.34c5.3-17.07-1.43-38.9-1.43-38.9z"/><path d="M671.24 941.47s38.84 11.22 53.75 4.64" class="B"/><path d="M761.58 894.75c15.08-15.26 67 39.2 67 39.2 7.35 26.1-22.87 26.3-26.3 43.9s-78.62-34.05-60.35-49.52c13.57-11.53 19.64-33.56 19.64-33.56z"/><path d="M760 930.53s26.72 30.33 42.84 32.8" class="B"/><path d="M863.85 939.87c13.3 16.83-47.05 61.7-47.05 61.7-26.8 4.12-23.32-25.9-40.36-31.44s43.36-73.9 56.5-53.87c9.78 14.92 30.92 23.62 30.92 23.62z"/><path d="M828.53 933.94s-33.36 22.84-37.76 38.53" class="B"/><path d="M1152.6 403.27c15.1-15.26 67 39.2 67 39.2 7.36 26.1-22.87 26.3-26.3 43.9s-78.62-34.05-60.35-49.52c13.58-11.53 19.64-33.56 19.64-33.56z"/><path d="M1151.02 439.05s26.72 30.33 42.83 32.8" class="B"/><path d="M911.88 655.66c15.08-15.25 67 39.2 67 39.2 7.35 26.1-22.88 26.3-26.3 43.88s-78.62-34-60.35-49.5c13.57-11.53 19.64-33.57 19.64-33.57z"/><path d="M910.3 691.47s26.72 30.32 42.84 32.78" class="B"/><path d="M604.62 1015.18c-15.78-14.53 36.8-68.3 36.8-68.3 25.8-8.3 27.1 21.9 44.8 24.7s-31.2 79.8-47.32 62.08c-12.02-13.18-34.27-18.47-34.27-18.47z"/><path d="M640.42 1015.47s29.35-27.8 31.23-44" class="B"/><path d="M666 811.86c20.3-6.93 42.46 64.93 42.46 64.93-5 26.64-32.2 13.35-43.1 27.56s-55.2-65.52-32-71.22c17.38-4.24 32.64-21.27 32.64-21.27z"/><path d="M648.63 843.18s10.4 39.07 23.73 48.45" class="B"/><path d="M672.57 744.41c4.08-21.06 77.45-4.57 77.45-4.57 20.6 17.62-4.43 34.58 2.5 51.1s-84.3 15.33-77.68-7.68c4.93-17.15-2.26-38.85-2.26-38.85z"/><path d="M691.1 775.05s39.07 10.4 53.84 3.5" class="B"/></g><g fill="#fff" class="C D"><g class="E"><path d="M1244.9 1078.3v737.92a95.57 95.57 0 0 1-95.78 95.78H209.63a95.57 95.57 0 0 1-95.78-95.78V1078.3z"/><path d="M73 1078.05a60.84 60.84 0 0 0-61 61v56a60.84 60.84 0 0 0 61 61h40.85V1078.3h33.3l-5-.25zm1212.74.01a60.83 60.83 0 0 1 61 61v56a60.82 60.82 0 0 1-61 61h-40.85V1078.3h-33.3l5-.24z"/></g><circle r="153.12" cy="1380.129" cx="679.37"/></g><path d="M679.37 1380.13v-103.52" fill="none" class="B C D E"/></svg>