<svg xmlns="http://www.w3.org/2000/svg" viewBox="0 0 2000 2000"><g id="Layer_2" data-name="Layer 2"><path d="M690.1,994.87V890.06c0-213.34,201.33-236.12,201.33-236.12" style="fill:none;stroke:#231f20;stroke-linecap:round;stroke-linejoin:round;stroke-width:24px"/><polyline points="781.17 893.96 690.1 1001.3 599.02 893.96" style="fill:none;stroke:#231f20;stroke-linecap:round;stroke-linejoin:round;stroke-width:24px"/><path d="M1285,195.45c-30.77,25.18-54.78,52.21-84.23,90.7-10.43,13.64-75.19,100.14-135.87,182.9C1034.05,511.17,899,695.14,851.73,764.25c55.82,22.23,91.18,22.1,124.06,18.91,41.92-4.06,74.28-42.14,100-77s42-63.22,45.12-84.81c3.09-21.42-6.76-62.13-11.87-80.9s-13.86-35.74-5.41-47.2c0,0,110.33-170.14,123.09-186.25,40.2-50.76,54.46-63.94,85.82-89.37,86.7-70.33,119.46-57.65,174.8-70.32l27.08-40.68C1403.12,127.91,1372.67,123.75,1285,195.45Z" style="fill:#231f20"/><g id="layer3"><path id="path916" d="M1389.27,1167.6v661.15a137.46,137.46,0,0,1-137.21,137.71H159.47A137.45,137.45,0,0,1,21.71,1829.31V1167.55Z" style="fill:#fff;stroke:#221f1f;stroke-linecap:round;stroke-linejoin:round;stroke-width:24px"/></g><path d="M1980.29,1395.63,1477.69,1379a61.24,61.24,0,0,0-58.22,37.41L1389.25,1488V1270.37l591-19.27Z" style="fill:#fff;stroke:#221f1f;stroke-linecap:round;stroke-linejoin:round;stroke-width:24px"/></g></svg>