<svg id="Layer_1" data-name="Layer 1" xmlns="http://www.w3.org/2000/svg" viewBox="0 0 2000 1730"><path id="path900" d="M1624,84.3c-26.38-33.39-191.73,27.79-354,156S1011,514.65,1037.27,548" style="fill:#adadad;stroke:#000;stroke-linecap:round;stroke-linejoin:round;stroke-width:24px"/><path id="path900-2" data-name="path900" d="M1037.27,548l192.15,243.17h0c26.31,33.31,198.93-18.58,361.15-146.76s252-283.5,225.62-316.89h0L1624,84.3" style="fill:#47bac9;stroke:#000;stroke-linecap:round;stroke-linejoin:round;stroke-width:24px"/><path id="path900-3" data-name="path900" d="M1037.27,548c26.31,33.31,187-33.63,349.26-161.81S1650.42,117.69,1624,84.3l-1.23,9.27c-63.93-4.45-205.75,52.71-342,160.35C1145,361.29,1057.22,485.37,1046.61,548.55" style="fill:#db8282;stroke:#000;stroke-linecap:round;stroke-linejoin:round;stroke-width:11px"/><path id="path900-4" data-name="path900" d="M1638.05,102c26.39,33.39-75.29,173.65-237.51,301.84S1077.6,599,1051.29,565.69" style="fill:none;stroke:#000;stroke-linecap:round;stroke-linejoin:round;stroke-width:11px"/><path d="M1649.64,405.74c-43.71,22.25-92.11,33.17-139.1,47.23s-94.33,32.22-130.17,65.7c-36.79,34.37-58.65,84.06-59.74,134.33,33.9-18.86,54.14-22.43,54.14-22.43s-12.85,15.72-33.72,37c65.57-7.36,127.74-42.06,173.23-90.07C1564.39,524.58,1594.51,453.37,1649.64,405.74Z" style="fill:#fff"/><path d="M1386.31,519.46s-10.94-33,1.06-58.19c22.93,14.81,83.86,4.73,83.86,4.73Z" style="fill:#fff"/><path d="M1479.64,466.57s8.36-47.11,31.73-64.9c-8.16,51.61,13.7,49.39,13.7,49.39Z" style="fill:#fff"/><path d="M1550.72,525.43s45.44,6.78,68-9.26c-49.53-8.34-41.65-27.78-41.65-27.78Z" style="fill:#fff"/><path d="M1443.44,627.28s7,9.83,17.66,15.16c16.41,8.19,32.86,6.71,51.72,4.51-25.21-15.64-17.24-36.82-31.27-48.74C1476.19,611.45,1443.44,627.28,1443.44,627.28Z" style="fill:#fff"/><path d="M1631.7,417.74c17.87,14.91,54.86,30.74,74.3,29.48-12.55-5.28-37.75-26.06-51.78-44.19s-25.42-53.7-24.57-76.89C1619.66,361.27,1623.48,389.5,1631.7,417.74Z" style="fill:#fff"/><path id="path900-5" data-name="path900" d="M1624,84.3c26.38,33.39-75.29,173.65-237.51,301.84s-323,195.12-349.26,161.81" style="fill:none;stroke:#000;stroke-linecap:round;stroke-linejoin:round;stroke-width:24px"/><path id="path900-6" data-name="path900" d="M1566,27.57c-7.1-21.81-169.66,4.43-361.5,66.86S865,231.64,872.08,253.41s170.85-.57,362.7-63S1573.1,49.39,1566,27.57Z" style="fill:#6d6e70;stroke:#000;stroke-linecap:round;stroke-linejoin:round;stroke-width:24px"/><path d="M1421.22,218.67c9.48-16.62,34.47-38.4,57.32-49.45s44.84-18.38,55.6-6-4.78,42.35-30.16,65.26c-16.15,14.59-58.37,39.83-71.21,26.49-10-10.34,9-34.2,25-48.36s37.45-25,44.18-18.32-16.83,29-36.78,41.08" style="fill:none;stroke:#000;stroke-linecap:round;stroke-linejoin:round;stroke-width:11px"/><path d="M1401.07,234.86c-8.45,6.49-10.9,15.84-9.51,25.69s6.63,19.85,14.66,25.41c7.24,5,15.93,6,23.66,4.49s15.34-5.05,20.49-10.8" style="fill:none;stroke:#000;stroke-linecap:round;stroke-linejoin:round;stroke-width:11px"/><path d="M1373.29,260.19c-5.35,10.21-5,23.88.66,34.66,10.34,19.67,32,23.42,48.52,15.2" style="fill:none;stroke:#000;stroke-linecap:round;stroke-linejoin:round;stroke-width:11px"/><path d="M1421.41,183.37c-22.41,11.84-45.21,27.14-61.84,46-12.59,14.29-21.22,32.25-19,48.29,1.33,9.78,6.53,18.31,6.85,28.33a30,30,0,0,1-.2,4.43C1345.54,324.37,1334,338,1321,346.64c-11.88,7.88-27.23,11.33-37.06,3.61-14.91-11.7-.81-34.85,16.34-44.12,17.68-9.56,33.35,6.89,18.41,21.44-11.9,11.6-25.19,5.47-12.06-6.64" style="fill:none;stroke:#000;stroke-linecap:round;stroke-linejoin:round;stroke-width:11px"/><path d="M1317,278c-29.09,9.3-57.11,32.64-65.55,63.13-3.61,13-2.83,30.33,8,40.13,15,13.58,38.76,7.52,56.21-1.67,9.56-5,22.29-10.5,38.28-32.67" style="fill:none;stroke:#000;stroke-linecap:round;stroke-linejoin:round;stroke-width:11px"/><path d="M1526.21,135.12c34.86-15.41,63.25-3.88,34.58,38.23" style="fill:none;stroke:#000;stroke-linecap:round;stroke-linejoin:round;stroke-width:11px"/><path d="M1380.48,336.85c-23,46.06-71.14,77.63-123.22,80.88-13.08.82-26.3,0-39.38.85-38.29,2.59-78.38,18-101.14,49.29-4.53,6.22-7.84,13.73-7.39,21.63s4.51,20.12,23.55,19.51c16.2-.51,32.15-7.79,45-17.14a67.42,67.42,0,0,0,17.19-17.69c3.64-5.69,9-16.18,4.06-22.44-5.8-7.39-18.8-3.6-26.07-1.13a93.41,93.41,0,0,0-26.85,14.18c-3.78,2.91-15.4,12.16-11.31,18.3,3.57,5.36,21.45-2.54,25.82-6.3" style="fill:none;stroke:#000;stroke-linecap:round;stroke-linejoin:round;stroke-width:11px"/><path d="M1128.34,424.06a190,190,0,0,1,97-33.14" style="fill:none;stroke:#000;stroke-linecap:round;stroke-linejoin:round;stroke-width:11px"/><path d="M1179.35,376.26a150.09,150.09,0,0,1,55.74-5.85" style="fill:none;stroke:#000;stroke-linecap:round;stroke-linejoin:round;stroke-width:11px"/><path d="M1360.58,1095.92H1906A63.09,63.09,0,0,1,1969.1,1159h0a63.1,63.1,0,0,1-63.09,63.1H1360.58" style="fill:#fff;stroke:#231f20;stroke-miterlimit:10;stroke-width:24px"/><path d="M706.87,1710c-310.92,0-676-165.43-676-541.22,0-144.82,302.64-262.21,676-262.21s676,117.39,676,262.21C1382.85,1544.57,1017.79,1710,706.87,1710Z" style="fill:#fff;stroke:#231f20;stroke-miterlimit:10;stroke-width:24px"/><ellipse cx="706.87" cy="1474.91" rx="18.52" ry="18.45" style="fill:#929497"/><ellipse cx="706.87" cy="1548.4" rx="18.52" ry="18.45" style="fill:#929497"/><ellipse cx="706.87" cy="1621.9" rx="18.52" ry="18.45" style="fill:#929497"/><path d="M813.67,1602.05c8.59,6.14,11.12,19,5.21,28.41s-17.58,11.49-25.73,4.75a22.18,22.18,0,0,1-4.79-28.09A17.39,17.39,0,0,1,813.67,1602.05Z" style="fill:#929497"/><path d="M850,1532.79c9.06,5.15,12.7,17.68,7.68,27.68s-16.31,13.36-25.15,7.58-12-18-7.3-27.45S840.81,1527.57,850,1532.79Z" style="fill:#929497"/><path d="M879.09,1459.5c9.76,3.7,14.7,15.7,10.8,26.55s-14.93,15.53-24.26,10.81-13.75-16.45-10.09-26.23A18.1,18.1,0,0,1,879.09,1459.5Z" style="fill:#929497"/><path d="M937.32,1589.52c7.26,7.12,7.88,18.48.93,25s-18.15,5.49-24.92-2.32c-6.63-7.65-6.91-18.71-.53-24.6S930,1582.31,937.32,1589.52Z" style="fill:#929497"/><path d="M980.91,1540.26c8.1,6.35,9.74,17.36,3.76,24.67s-17.41,7.41-25,.64-9-17.6-3.44-24.39S972.9,1534,980.91,1540.26Z" style="fill:#929497"/><path d="M1018.67,1486.42c8.75,5.29,11.91,16.27,6.57,24.13-5.16,8-16.42,9.38-24.76,3.44s-10.88-16.5-6.15-23.85C999.26,1482.9,1009.91,1481.13,1018.67,1486.42Z" style="fill:#929497"/><path d="M1048.29,1427.76c9.62,3.49,14.38,13.73,10.59,22.85-4.19,8.79-15,12-24.08,7.3s-13.41-14.79-9.72-22.46C1028.26,1427.71,1038.68,1424.27,1048.29,1427.76Z" style="fill:#929497"/><path d="M1098.32,1541.66c6.71,7.72,6,19.15-1.61,25.5-7.73,6.13-19,4.53-25.27-3.6s-5.38-19.38,1.9-25.14C1080.42,1532.5,1091.6,1534,1098.32,1541.66Z" style="fill:#929497"/><path d="M1147.26,1493c7.77,6.58,8.8,18.19,2,25.57a17.69,17.69,0,0,1-25.61-.24c-7-7.26-7.76-18.56-1.42-25.08C1128.35,1486.63,1139.42,1486.4,1147.26,1493Z" style="fill:#929497"/><path d="M1187.27,1436.9c8.9,5,12.15,16.38,6.5,24.82-5.36,8.63-17,10.29-25.29,4.28s-10.55-16.72-5.82-24.38C1167.69,1434.15,1178.38,1431.85,1187.27,1436.9Z" style="fill:#929497"/><path d="M1216,1374.21c9.58,3.25,15,13.78,11.16,23.15a17.64,17.64,0,0,1-23.94,9.07c-9.26-4.34-13.94-14.59-10.43-22.87S1206.16,1370.88,1216,1374.21Z" style="fill:#929497"/><path d="M598.52,1602.05a17.4,17.4,0,0,1,25.32,5.07,22.19,22.19,0,0,1-4.79,28.09c-8.15,6.74-20,4.79-25.73-4.75C587.41,1621,589.94,1608.19,598.52,1602.05Z" style="fill:#929497"/><path d="M562.24,1532.79c9.15-5.22,20-1.61,24.76,7.81s1.5,21.69-7.29,27.45-20.21,2.46-25.15-7.58S553.18,1537.94,562.24,1532.79Z" style="fill:#929497"/><path d="M533.11,1459.5a18.1,18.1,0,0,1,23.55,11.13c3.65,9.78-.8,21.53-10.09,26.23s-20.25-.06-24.26-10.81S523.35,1463.2,533.11,1459.5Z" style="fill:#929497"/><path d="M474.87,1589.52c7.35-7.21,18.18-7.86,24.52-1.9s6.1,17-.53,24.6C492.1,1620,481,1621,474,1614.54S467.61,1596.64,474.87,1589.52Z" style="fill:#929497"/><path d="M431.29,1540.26c8-6.27,19.09-5.9,24.66.92s4.25,17.54-3.43,24.39-19,6.66-25-.64S423.19,1546.61,431.29,1540.26Z" style="fill:#929497"/><path d="M393.53,1486.42c8.75-5.29,19.41-3.52,24.34,3.72,4.73,7.35,2.16,17.92-6.15,23.85s-19.61,4.55-24.77-3.44C381.62,1502.69,384.77,1491.71,393.53,1486.42Z" style="fill:#929497"/><path d="M363.91,1427.76c9.61-3.49,20,0,23.21,7.69,3.68,7.67-.64,17.73-9.72,22.46s-19.89,1.49-24.08-7.3C349.53,1441.49,354.29,1431.25,363.91,1427.76Z" style="fill:#929497"/><path d="M313.88,1541.66c6.72-7.71,17.89-9.16,25-3.24,7.28,5.76,8.11,17,1.9,25.14s-17.54,9.73-25.27,3.6C307.87,1560.81,307.16,1549.38,313.88,1541.66Z" style="fill:#929497"/><path d="M264.93,1493c7.85-6.64,18.92-6.41,25.09.25,6.34,6.52,5.63,17.82-1.43,25.08a17.68,17.68,0,0,1-25.6.24C256.14,1511.23,257.16,1499.62,264.93,1493Z" style="fill:#929497"/><path d="M224.93,1436.9c8.88-5.05,19.58-2.75,24.61,4.72,4.72,7.66,2.47,18.35-5.82,24.38s-19.93,4.35-25.29-4.28C212.77,1453.28,216,1442,224.93,1436.9Z" style="fill:#929497"/><path d="M196.25,1374.21c9.78-3.33,19.76,1,23.21,9.35s-1.17,18.53-10.43,22.87a17.65,17.65,0,0,1-23.95-9.07C181.22,1388,186.66,1377.46,196.25,1374.21Z" style="fill:#929497"/><path d="M706.87,997.89a12,12,0,1,1,12.35-12A12.18,12.18,0,0,1,706.87,997.89Z" style="fill:#929497"/><path d="M706.87,1045.77a12,12,0,1,1,12.35-12A12.18,12.18,0,0,1,706.87,1045.77Z" style="fill:#929497"/><path d="M706.87,1093.64a12,12,0,1,1,12.35-12A12.18,12.18,0,0,1,706.87,1093.64Z" style="fill:#929497"/><path d="M706.87,1141.52a12,12,0,1,1,12.35-12A12.18,12.18,0,0,1,706.87,1141.52Z" style="fill:#929497"/><path d="M706.87,1189.4a12,12,0,1,1,12.35-12A12.19,12.19,0,0,1,706.87,1189.4Z" style="fill:#929497"/><path d="M706.87,1237.27a12,12,0,1,1,12.35-12A12.18,12.18,0,0,1,706.87,1237.27Z" style="fill:#929497"/><path d="M706.87,1285.15a12,12,0,1,1,12.35-12A12.18,12.18,0,0,1,706.87,1285.15Z" style="fill:#929497"/><path d="M706.87,1333a12,12,0,1,1,12.35-12A12.18,12.18,0,0,1,706.87,1333Z" style="fill:#929497"/><path d="M795.52,1313c6.36,2.6,9.09,10,6.18,16.68-3.18,6.62-10.71,9.37-16.79,6.09A12.57,12.57,0,0,1,795.52,1313Z" style="fill:#929497"/><path d="M812.66,1266a12.57,12.57,0,1,1-15.65,7.92A12.44,12.44,0,0,1,812.66,1266Z" style="fill:#929497"/><path d="M827.17,1218.11a12.57,12.57,0,1,1-15.33,8.61A12.4,12.4,0,0,1,827.17,1218.11Z" style="fill:#929497"/><path d="M840.15,1169.78a12.56,12.56,0,1,1-15.1,9A12.42,12.42,0,0,1,840.15,1169.78Z" style="fill:#929497"/><path d="M852.1,1121.18a12.57,12.57,0,1,1-14.93,9.32A12.44,12.44,0,0,1,852.1,1121.18Z" style="fill:#929497"/><path d="M863.27,1072.4a12.57,12.57,0,1,1-14.79,9.54A12.43,12.43,0,0,1,863.27,1072.4Z" style="fill:#929497"/><path d="M873.81,1023.47a12.57,12.57,0,1,1-14.67,9.73A12.45,12.45,0,0,1,873.81,1023.47Z" style="fill:#929497"/><path d="M883.82,974.44a12.56,12.56,0,1,1-14.57,9.88A12.44,12.44,0,0,1,883.82,974.44Z" style="fill:#929497"/><path d="M920.5,1309.51a11.91,11.91,0,1,1-15,18.48c-4.95-4.64-5.72-12-1.9-16.77S914.93,1305.5,920.5,1309.51Z" style="fill:#929497"/><path d="M945.93,1269.59A11.9,11.9,0,1,1,933.71,1290c-5.71-3.64-7.67-11-4.37-16.47A12.24,12.24,0,0,1,945.93,1269.59Z" style="fill:#929497"/><path d="M968.05,1227.72a11.9,11.9,0,1,1-10.8,21.18,12.19,12.19,0,0,1-5.54-16.15C954.61,1227,961.94,1224.74,968.05,1227.72Z" style="fill:#929497"/><path d="M988,1184.77a11.9,11.9,0,1,1-9.8,21.66,11.89,11.89,0,1,1,9.8-21.66Z" style="fill:#929497"/><path d="M1006.3,1141.09a11.9,11.9,0,1,1-9,22,11.9,11.9,0,1,1,9-22Z" style="fill:#929497"/><path d="M1023.17,1096.84a11.9,11.9,0,1,1-8.28,22.29c-6.36-2.43-9.67-9.35-7.39-15.44A12.18,12.18,0,0,1,1023.17,1096.84Z" style="fill:#929497"/><path d="M1038.56,1052.05a11.9,11.9,0,1,1-15.42,7.39C1025.17,1053.28,1032.08,1050,1038.56,1052.05Z" style="fill:#929497"/><path d="M1051.9,1006.62a11.9,11.9,0,1,1-6.36,22.91c-6.55-2-10.35-8.56-8.61-14.75S1045.31,1005,1051.9,1006.62Z" style="fill:#929497"/><path d="M1082.26,1266.42a12,12,0,1,1-16.94-2.31C1070.38,1260.08,1078,1261.12,1082.26,1266.42Z" style="fill:#929497"/><path d="M1118.1,1235.08a12,12,0,1,1-17.64,16.13c-4.46-5.16-4.19-12.81.61-17.08A12.27,12.27,0,0,1,1118.1,1235.08Z" style="fill:#929497"/><path d="M1150.74,1200.44a12,12,0,1,1-15.91,17.84,12.45,12.45,0,0,1-1.18-17C1137.87,1196.47,1145.56,1196.14,1150.74,1200.44Z" style="fill:#929497"/><path d="M1178.89,1162.07a12,12,0,1,1-13.54,19.7c-5.47-4.08-6.88-11.56-3.16-16.69C1165.72,1159.81,1173.1,1158.41,1178.89,1162.07Z" style="fill:#929497"/><path d="M1201.92,1120.43a12,12,0,0,1,5.7,16.32c-2.93,6.22-10.66,8.28-16.59,5a12.47,12.47,0,0,1-5.42-16.16C1188.42,1119.87,1195.72,1117.58,1201.92,1120.43Z" style="fill:#929497"/><path d="M1219.27,1076.12a12,12,0,1,1-8,22.54c-6.28-2.5-9.75-9.41-7.61-15.38S1212.87,1074.11,1219.27,1076.12Z" style="fill:#929497"/><path d="M616.68,1313a12.57,12.57,0,0,1,10.6,22.77c-6.07,3.28-13.61.53-16.78-6.09C607.59,1323.06,610.32,1315.61,616.68,1313Z" style="fill:#929497"/><path d="M599.54,1266a12.57,12.57,0,1,1-7.71,15.93A12.5,12.5,0,0,1,599.54,1266Z" style="fill:#929497"/><path d="M585,1218.11a12.57,12.57,0,1,1-8.37,15.53A12.51,12.51,0,0,1,585,1218.11Z" style="fill:#929497"/><path d="M572.05,1169.78a12.56,12.56,0,1,1-8.79,15.29A12.5,12.5,0,0,1,572.05,1169.78Z" style="fill:#929497"/><path d="M560.1,1121.18a12.57,12.57,0,1,1-9.08,15.11A12.49,12.49,0,0,1,560.1,1121.18Z" style="fill:#929497"/><path d="M548.93,1072.4a12.56,12.56,0,1,1-9.3,15A12.47,12.47,0,0,1,548.93,1072.4Z" style="fill:#929497"/><path d="M538.38,1023.47a12.57,12.57,0,1,1-9.48,14.86A12.49,12.49,0,0,1,538.38,1023.47Z" style="fill:#929497"/><path d="M528.38,974.44a12.56,12.56,0,1,1-9.64,14.75A12.47,12.47,0,0,1,528.38,974.44Z" style="fill:#929497"/><path d="M491.7,1309.51c5.57-4,13-3.07,16.85,1.71s3,12.13-1.9,16.77a11.91,11.91,0,1,1-14.95-18.48Z" style="fill:#929497"/><path d="M466.27,1269.59a12.24,12.24,0,0,1,16.59,3.92c3.3,5.45,1.34,12.83-4.37,16.47a11.9,11.9,0,1,1-12.22-20.39Z" style="fill:#929497"/><path d="M444.15,1227.72c6.1-3,13.44-.74,16.34,5A12.19,12.19,0,0,1,455,1248.9a11.9,11.9,0,1,1-10.8-21.18Z" style="fill:#929497"/><path d="M424.21,1184.77a11.89,11.89,0,1,1,9.79,21.66,11.9,11.9,0,1,1-9.79-21.66Z" style="fill:#929497"/><path d="M405.9,1141.09a11.9,11.9,0,1,1-7,15.7A12.18,12.18,0,0,1,405.9,1141.09Z" style="fill:#929497"/><path d="M389,1096.84a12.17,12.17,0,0,1,15.67,6.85c2.29,6.09-1,13-7.38,15.44a11.9,11.9,0,1,1-8.29-22.29Z" style="fill:#929497"/><path d="M373.64,1052.05c6.47-2.07,13.39,1.23,15.42,7.39a12.36,12.36,0,1,1-15.42-7.39Z" style="fill:#929497"/><path d="M360.29,1006.62c6.59-1.67,13.25,2,15,8.16s-2.06,12.79-8.61,14.75a11.9,11.9,0,1,1-6.37-22.91Z" style="fill:#929497"/><path d="M329.93,1266.42c4.3-5.3,11.88-6.34,16.95-2.31a12.36,12.36,0,1,1-16.95,2.31Z" style="fill:#929497"/><path d="M294.1,1235.08a12.27,12.27,0,0,1,17-.95c4.8,4.27,5.07,11.92.61,17.08a12,12,0,1,1-17.64-16.13Z" style="fill:#929497"/><path d="M261.45,1200.44c5.19-4.3,12.87-4,17.1.79a12.46,12.46,0,0,1-1.18,17,12,12,0,1,1-15.92-17.84Z" style="fill:#929497"/><path d="M233.31,1162.07c5.78-3.66,13.17-2.26,16.7,3,3.72,5.13,2.3,12.61-3.16,16.69a12,12,0,1,1-13.54-19.7Z" style="fill:#929497"/><path d="M210.28,1120.43c6.19-2.85,13.5-.56,16.3,5.12a12.46,12.46,0,0,1-5.42,16.16c-5.92,3.32-13.66,1.26-16.59-5A12,12,0,0,1,210.28,1120.43Z" style="fill:#929497"/><path d="M192.92,1076.12c6.41-2,13.49,1.17,15.59,7.16s-1.34,12.88-7.61,15.38a12,12,0,1,1-8-22.54Z" style="fill:#929497"/><path d="M1382.85,1163.63c0,124.49-302.65,225.41-676,225.41s-676-100.92-676-225.41" style="fill:none;stroke:#231f20;stroke-miterlimit:10;stroke-width:24px"/><path d="M783,841.39V712.75c0-261.86,247.12-289.81,247.12-289.81" style="fill:none;stroke:#231f20;stroke-linecap:round;stroke-linejoin:round;stroke-width:24px"/><polyline points="894.76 717.54 782.97 849.29 671.19 717.54" style="fill:none;stroke:#231f20;stroke-linecap:round;stroke-linejoin:round;stroke-width:24px"/></svg>