<svg xmlns="http://www.w3.org/2000/svg" height="1299.5" width="1924.003"  xmlns:v="https://vecta.io/nano"><g fill="#f1f2f2" stroke="#231f20" stroke-miterlimit="10"><path d="M1900.545 1238.74l-63 41.1a47.73 47.73 0 0 1-26 7.67h-1699.3a47.73 47.73 0 0 1-25.67-7.44l-59.08-37.74" stroke-width="15.581"/><path d="M1841.255 1258.14H82.745c-53.36 0-82.72-29.87-66.1-65.56l221.75-476.4c9.44-20.28 48.24-36.34 86.9-36.34h1273.44c38.64 0 77.44 16.06 86.88 36.34l221.75 476.4c16.62 35.7-12.7 65.56-66.1 65.56z" stroke-width="24"/></g><path d="M62.405 1210.2l207.7-459.26c7.7-17.06 40.13-30.62 72.57-30.62h1238.65c32.44 0 64.86 13.56 72.57 30.62l205.53 452.9" fill="none" stroke="#231f20" stroke-width="7.79" stroke-linecap="round" stroke-linejoin="round"/><path d="M1474.655 87.64c-26.2 21.44-46.65 44.47-71.73 77.24l-115.7 155.75L1105.655 572c47.54 18.93 77.65 18.82 105.65 16.1 35.7-3.46 63.25-35.9 85.15-65.58s35.76-53.84 38.42-72.23-5.75-52.9-10.1-68.9-11.8-30.43-4.62-40.2l104.83-158.6c34.23-43.22 46.37-54.44 73.07-76.1 73.8-59.9 101.7-49.06 148.82-59.88l23.06-34.64c-94.78 18.13-120.7 14.6-195.28 75.64z" fill="#231f20"/><path d="M1153.395 524.6c-108.44-21.65-325.45 33.16-325.45 278.86v91.1m67.55-54.56l-67.55 67.56-67.55-67.56" stroke="#231f20" fill="none" stroke-linecap="round" stroke-linejoin="round" stroke-width="23"/></svg>