<svg xmlns="http://www.w3.org/2000/svg" xmlns:xlink="http://www.w3.org/1999/xlink" viewBox="0 0 1896.04 2000"><defs><clipPath id="clip-path"><path id="path900" d="M1471.77,849.74,1096.3,633.62l-.57-.33c28.23,16.25,123.75-77.19,202.9-214.71s111.72-266.43,83.42-282.72L1757.52,352l.57.33c28.31,16.29,8.5,152.54-70.66,290.07S1500,866,1471.77,849.74Z" style="fill:none"/></clipPath><linearGradient id="linear-gradient" x1="-768.23" y1="-5153.34" x2="-769.83" y2="-5486.22" gradientTransform="matrix(-0.3, -1.13, -1.13, 0.3, -4651.24, 1315.44)" gradientUnits="userSpaceOnUse"><stop offset="0" stop-color="#63bb46"/><stop offset="1" stop-color="#fff"/></linearGradient></defs><g id="Layer_2" data-name="Layer 2"><g id="layer3"><path id="path916" d="M236.78,1167.79l-162.3,18c-63.44,7.05-63.88,104.32-6.94,124.85l169.24,61Zm1035.84,0,162.31,18c63.44,7.05,63.88,104.32,6.94,124.85l-169.25,61Zm0-155.68v810.1a148.69,148.69,0,0,1-149,149H385.81a148.7,148.7,0,0,1-149-149v-810.1Z" style="fill:#fff;stroke:#231f20;stroke-linecap:round;stroke-linejoin:round;stroke-width:24px"/></g><path id="path900-2" data-name="path900" d="M1571.67,907.25l-569-327.52C1174.27,441.52,1257.36,290,1289,82.3l569,327.52h0c28.3,16.29,8.5,152.54-70.66,290.06S1599.91,923.5,1571.67,907.25Z" style="fill:#929497;stroke:#000;stroke-linecap:round;stroke-linejoin:round;stroke-width:24px"/><path id="path900-3" data-name="path900" d="M1475.48,851.88,1100,635.76l-.57-.33c28.23,16.25,123.75-77.19,202.91-214.71S1414.07,154.29,1385.76,138l375.48,216.12.57.33c28.3,16.29,8.5,152.54-70.66,290.06s-187.43,223.62-215.67,207.37Z" style="fill:#fff;stroke:#000;stroke-linecap:round;stroke-linejoin:round;stroke-width:24px"/><path id="path900-4" data-name="path900" d="M1289,82.3c28.3,16.3-4.26,145.2-83.42,282.72s-174.68,231-202.91,214.71-.74-148,78.42-285.54S1260.7,66,1289,82.3Z" style="fill:#d0d2d3;stroke:#000;stroke-linecap:round;stroke-linejoin:round;stroke-width:24px"/><path id="path900-5" data-name="path900" d="M1264.87,30.61c-11.68-14-124,53.29-247.28,156S807.29,388,818.94,402s126-50.79,249.3-153.46S1276.55,44.63,1264.87,30.61Z" style="fill:#6d6e70;stroke:#000;stroke-linecap:round;stroke-linejoin:round;stroke-width:24px"/><g style="clip-path:url(#clip-path)"><path id="path915" d="M1463.16,308.25a7.72,7.72,0,0,0-10.27-1.68c-1.3.83-22.17,44.15-29.07,78.4-12.06-5.54-31.91-41.1-40.22-46.81-8-5.53-17.21-.78-25.16,8.59-7.58,9-12.74,20.06-8.64,27.69s51.12,29.27,60.46,34.8c-26.24,24.48-51.3,59.2-51.33,60.69a7.78,7.78,0,0,0,6.94,8c15.52-.14,35-14,35-14,37.74-44.62,49-58.51,68.34-110.06C1469.17,353.86,1468.76,326.91,1463.16,308.25Z" style="fill:#1f8441;stroke:#000;stroke-width:8px"/><path id="path881" d="M1395.81,469.21c-6.38,12.35-4,21.51-3.17,28.59,5.75,46.74,40.58,66.78,69.9,79.89,51.59,21.73,135.43,38.61,158.3,2.83a100.34,100.34,0,0,0,6.94-15.46c13.69-4.41,24.56-13.46,32.43-26.88a5.13,5.13,0,0,0,.43-.88l.1-.17.13-.22.19-.34.17-.29,0,0c7.64-13.55,10-27.58,6.9-41.72a79.74,79.74,0,0,0,10.12-13.93c19.41-51.45-42.82-107.31-81.81-135.69-26-18.83-58.51-38.71-103.27-22.58-5.91,2.13-14.62,6.18-20.64,16.72-5.31,9.27-15,34.64-15,34.64l-20.07,34.87-20.08,34.88s-15.27,13.44-21.65,25.79Z" style="fill:#d12027;stroke:#000;stroke-width:8px"/><path id="rect908" d="M1508.67,536.15c-13.44-5.19-25.77-9.42-39.13-16.95s-25.66-15.89-34.86-24.37c-12.68-11.69-25.21-33.54-22.43-51.77,4-26.36,26-61.48,41.87-72.74,15-10.63,44-12.64,75.65,2.14m44,28.3c52.38,34.37,117.76,84,88.18,136.76-16.25,29-63.64,37.54-109.8,16.83" style="fill:#d12027;stroke:#000;stroke-linecap:round;stroke-linejoin:round;stroke-width:8px"/><path d="M1531.65,477.84c37.47,21.57,68.11,38,63.41,46.18s-55.15-12-92.63-33.62-60.27-33.74-51.34-49.25S1494.17,456.26,1531.65,477.84Z" style="fill:#fff"/><path d="M1464.61,549.4c29.66,17.07,47.93,24.87,45.32,29.4s-32.59-6.07-62.24-23.14S1405,521.17,1410,512.57,1435,532.33,1464.61,549.4Z" style="fill:#fff"/><path id="path1094" d="M1315.7,629.4a24,24,0,0,0-11,10.48,21.65,21.65,0,0,0-.12,20.13l.7,1.36-1.1.93c-5.7,5.3-23.2,24.69-9.8,49.77,5.25,9.83,12.39,15.77,21.38,17.64l7.26.63c-1.63,5.38,2.63,16.13,5.86,20.85,6.88,8.78,15,13.39,24.12,13.67a30.22,30.22,0,0,0,5.29-.35s7-.76,11.75-3.8a57.73,57.73,0,0,0,10.89-7.3l1.21-1,1.28.93c7.62,5.58,15.51,6.19,22.18,1.73s11.12-13.61,11.4-23.79l.07-2.54,2.46.66a17.73,17.73,0,0,0,3.3.6c6.08.34,12-2.73,17-8.86,7.65-9.28,9.61-21.41,11.5-33.14,1.57-9.7,3.05-18.85,7.47-26,9.76-15.73,50.75-23.76,50.75-23.76,31.84-7.64,262.7-55.51,285.06-80.06,11.63-14.47,1.27-56.89-19.08-67.34-23.24-9-260.27,70.09-291.67,78.66-19.34,5.11-39.76,7.88-56.07-.88-7.39-4-13.24-11.16-19.44-18.79-7.49-9.21-15.25-18.75-26.5-23-7.44-2.79-14.08-2.5-19.19.82a18.17,18.17,0,0,0-2.55,2.17l-1.8,1.8-1.33-2.17c-5.33-8.68-13.74-14.38-21.75-14.92s-14.54,3.92-18.36,12.57l-.65,1.44-1.56-.28a57.91,57.91,0,0,0-13.08-.89c-4.32.4-11.4,1.5-16.83,4.91-7.81,4.82-12.5,12.84-14.08,23.88-4,28.13,19,40.4,26.17,43.43l1.36.51-.19,1.51a21.6,21.6,0,0,0,7,18.88,24.05,24.05,0,0,0,13.92,6.11,68.69,68.69,0,0,0,8.21.06Z" style="fill:url(#linear-gradient)"/><path id="path984" d="M1327.13,626.68c-7.66.48-16.51-.41-22.13-6.17a23.89,23.89,0,0,1-6.78-20.39c-22.88-10.65-31.71-29.68-27.53-43.94,7.26-24.82,25.43-31.79,45.55-27.62,4-8.35,11.65-14.19,19-14,11.48.28,18.07,8.92,23.08,17.09,5.83-6.07,16.41-7.51,23.54-4.79,21,8,28.45,32,45.94,41.77,16.31,8.76,51.18,1.77,56.07.88,58.73-10.65,268.43-87.66,291.67-78.66,20.35,10.45,30.71,52.87,19.08,67.34-79.08,52.16-317.92,68.26-335.81,103.82-9.55,19-5.58,45.09-19,59.12-7.62,8-13.66,10.06-22.79,7.6-.48,9.83-4,22.25-11.47,26.33-9.14,5-17,2-23.46-2.66-10.09,6.93-18.22,13.27-29.14,12.47-22.84-1.68-33.75-19.62-30-34.52m427.46-214.81c-51.83,15.19-293.71,80.85-294.25,81-23.44,5.79-42.62,8.22-65.75,3.2-22.52-4.9-48.84-1.42-59.17,10.46-4.56,5.25-3.75,10.35-2.46,17.16-9.82-.41-20.33,3.84-24.15,12.53a24.19,24.19,0,0,0,.58,21.49c-15.94,20-22.6,33-10.9,50.7,14.69,22.19,35.23,20.35,52.24,10.42,6.65,6.48,14.36,11.41,22.65,6.69,10-5.68,13.94-14.53,15.87-23.94,7.55,3.73,18,1.47,23.76-3.52,17-14.71,15.71-39.89,28.95-54.93,12.22-13.89,33.42-19.57,51.91-24.68,30-8.29,243.06-65.29,268.87-72.17" style="fill:none;stroke:#000;stroke-width:8px"/><path id="path1059" d="M1382,667.73l-2.48-24.51-17.93-4.32m-11.28,44.35-1-17.78c-3.84-.58-12.21-3-18.91-3.47m-2.17,28.54s18.2-31.63,61.44-52.73" style="fill:none;stroke:#000;stroke-linecap:round;stroke-width:8px"/><path id="path1062" d="M1372.8,563.63l5.37,27.81-9.68,5.86M1332.76,557l4.77,19.92c-4,1.9-12.46,7.31-19.67,10.07M1306,556.28s30.5,28.82,85.1,37.77" style="fill:none;stroke:#000;stroke-linecap:round;stroke-width:8px"/><g id="layer1"><path id="path60" d="M1730.59,361.14c-12.74-19.07-26.43-26.05-32.09-29.31-67.14-38.65-123.29-23.52-152,39.6-8.68,19.45-3.14,26.91-3,37.64-7.2,3.26-26.45,17.4-34.91,28.23-41.86,60.21-26.23,116.23,40.28,154.51,59.5,34.25,135.89,13.41,182.78-68,11-19.1,19.62-35.93,22.36-55.77,5.51-40-.47-72.54-23.41-106.85Z" style="fill:#c93c27;stroke:#000;stroke-width:8px"/><path id="path924" d="M1520.77,486.74c-5.76,1.13,2.5,31.44,20.49,59.75,8.14,15.07,46.2-2.08,24.39-16.61C1541.1,513.27,1531.68,484.45,1520.77,486.74Z" style="fill:#fff"/></g><g id="layer2"><path id="path920" d="M1536.22,406.63s-27.87,7.19-40,4.18c3.5,2.51,17.29,9.46,30.8,8.33,0,0-16,31.31-13.94,38,0,0,20.92-26,21.27-35.23,0,0,23,17.66,33.91,17.54,0,0-13.63-26.14-20.43-28.08,0,0,28.31-27.71,30.84-38.12-6,0-29.66,18-34.21,26.79,1.3-12-7.52-25.59-7.52-25.59s-.46,27.42-.74,32.21Z" style="fill:#07a44a"/></g><g id="layer3-2" data-name="layer3"><path id="path9054" d="M1487.53,774.45s-7.68,27,2.18,55.31c-9.33-2.39-21.33-5.58-31.32-24,0,0-29.53,15.69-47.63,8.93,26.67-18.41,35-38.53,35-38.53-9.52-5.35-29-17.79-27-36.08,24,17.18,53.73,13.49,53.73,13.49Z" style="fill:#286331;stroke:#000;stroke-linecap:round;stroke-linejoin:round;stroke-width:8px"/></g><g id="layer2-2" data-name="layer2"><path id="path863" d="M1725.82,577.48c13.71,18.5-176.11,270.24-225.88,223.83-13-12.13-21.8-33.75-21.8-33.75s-19-15.6-26.84-30.61c-31.78-60.55,260.4-178.53,274.52-159.47Z" style="fill:#f37820;stroke:#000;stroke-linecap:round;stroke-linejoin:round;stroke-width:8px;opacity:0.986000001430512;isolation:isolate"/><path id="rect9044" d="M1518.86,720.86l-32.46-42.3" style="fill:#231b1b;stroke:#000;stroke-linecap:round;stroke-linejoin:round;stroke-width:8px;opacity:0.990000009536743;isolation:isolate"/><path id="path9047" d="M1605.58,741.66l-32.47-42.3" style="fill:#231b1b;stroke:#000;stroke-linecap:round;stroke-linejoin:round;stroke-width:8px;opacity:0.990000009536743;isolation:isolate"/><path id="path9049" d="M1610.74,664.28l-28.52-37.15" style="fill:#231b1b;stroke:#000;stroke-linecap:round;stroke-linejoin:round;stroke-width:8px;opacity:0.990000009536743;isolation:isolate"/><path id="path9051" d="M1679.64,660.54l-22.59-29.43" style="fill:#231b1b;stroke:#000;stroke-linecap:round;stroke-linejoin:round;stroke-width:8px;opacity:0.990000009536743;isolation:isolate"/></g><g id="layer2-3" data-name="layer2"><path id="path865" d="M1686,500.56l-29.53-2.18-20.8,153.5L1668,663.24l15.21-46.48L1783,440.19l-26.48-16.94Z" style="fill:#1a7d3e;stroke:#000;stroke-linecap:round;stroke-linejoin:round;stroke-width:8px;opacity:0.998000025749207;isolation:isolate"/><path id="path867" d="M1635.69,651.88,1596.37,763c-8.85,25,27.91,38.85,36.26,12.38L1668,663.24Z" style="fill:#f2f8f0;stroke:#000;stroke-linecap:round;stroke-linejoin:round;stroke-width:8px;opacity:0.998000025749207;isolation:isolate"/><path id="path869" d="M1671,551.07l56.43-176.22,37.93,12.95-40.1,114.77" style="fill:#1a7d3e;stroke:#000;stroke-linecap:round;stroke-linejoin:round;stroke-width:8px;opacity:0.998000025749207;isolation:isolate"/><path id="path871" d="M1602.47,786l-7.44,8.17" style="fill:none;stroke:#000;stroke-linecap:round;stroke-linejoin:round;stroke-width:8px;opacity:0.998000025749207;isolation:isolate"/><path id="path873" d="M1607.35,789.39l-4,13.07" style="fill:none;stroke:#000;stroke-linecap:round;stroke-linejoin:round;stroke-width:8px;opacity:0.998000025749207;isolation:isolate"/><path id="path875" d="M1613.06,789.71l2.15,11.44" style="fill:none;stroke:#000;stroke-linecap:round;stroke-linejoin:round;stroke-width:8px;opacity:0.998000025749207;isolation:isolate"/></g></g><path d="M782.7,930V776.46c0-312.54,294.94-345.9,294.94-345.9" style="fill:none;stroke:#231f20;stroke-linecap:round;stroke-linejoin:round;stroke-width:24px"/><polyline points="916.12 782.17 782.7 939.42 649.28 782.17" style="fill:none;stroke:#231f20;stroke-linecap:round;stroke-linejoin:round;stroke-width:24px"/></g></svg>