<?xml version="1.0" encoding="UTF-8" standalone="no"?>
<svg
   xmlns:dc="http://purl.org/dc/elements/1.1/"
   xmlns:cc="http://creativecommons.org/ns#"
   xmlns:rdf="http://www.w3.org/1999/02/22-rdf-syntax-ns#"
   xmlns:svg="http://www.w3.org/2000/svg"
   xmlns="http://www.w3.org/2000/svg"
   xmlns:xlink="http://www.w3.org/1999/xlink"
   xmlns:sodipodi="http://sodipodi.sourceforge.net/DTD/sodipodi-0.dtd"
   xmlns:inkscape="http://www.inkscape.org/namespaces/inkscape"
   inkscape:version="1.0beta1 (32d4812, 2019-09-19)"
   sodipodi:docname="pour_bowl2_bowl1_spatula.svg"
   id="svg915"
   version="1.1"
   width="1595.818"
   height="1924.005">
  <metadata
     id="metadata919">
    <rdf:RDF>
      <cc:Work
         rdf:about="">
        <dc:format>image/svg+xml</dc:format>
        <dc:type
           rdf:resource="http://purl.org/dc/dcmitype/StillImage" />
        <dc:title></dc:title>
      </cc:Work>
    </rdf:RDF>
  </metadata>
  <sodipodi:namedview
     inkscape:current-layer="svg915"
     inkscape:window-maximized="0"
     inkscape:window-y="48"
     inkscape:window-x="334"
     inkscape:cy="1262.1077"
     inkscape:cx="668.51375"
     inkscape:zoom="0.39985976"
     showgrid="false"
     id="namedview917"
     inkscape:window-height="765"
     inkscape:window-width="1679"
     inkscape:pageshadow="2"
     inkscape:pageopacity="0"
     guidetolerance="10"
     gridtolerance="10"
     objecttolerance="10"
     borderopacity="1"
     inkscape:document-rotation="0"
     bordercolor="#666666"
     pagecolor="#ffffff" />
  <style
     id="style883"><![CDATA[.B{stroke:#231f20}.C{stroke-width:24}.D{stroke-miterlimit:10}.E{stroke-linecap:round}.F{fill:#231f20}]]></style>
  <path
     id="path885"
     class="B C D"
     fill="#fff"
     d="M644.2 1912.005c290.33 0 631.2-154.48 631.2-505.38 0-82.66-282.6-158.63-631.2-158.63h-1c-348.6 0-631.2 76-631.2 158.63 0 350.9 340.88 505.38 631.2 505.38" />
  <g
     id="g893"
     class="B C D">
    <path
       id="path889"
       class="E"
       fill="none"
       d="M1234.57 1401.815c0 39.6-264.3 98.3-590.33 98.3h-1c-326 0-590.33-58.7-590.33-98.3" />
    <use
       id="use891"
       fill="#fff"
       xlink:href="#B" />
  </g>
  <path
     id="path895"
     class="F"
     d="M1330.6 757.015l33.15-56.18q4.95-8.4 11-10.78a13 13 0 0 1 12 1.11 14.42 14.42 0 0 1 6.87 8.77q1.6 5.65-2.6 12.76l-46.73 79.2q-4.77 8.07-11.9 10a16.57 16.57 0 0 1-13.16-1.67c-2.58-1.53-5.43-4.5-8.56-9a43.1 43.1 0 0 1-6.32-12.29q-6.4-23.07-10.2-40.84-3.8-17.77-4.23-24.7a110.33 110.33 0 0 0-3.87-22.09 57.85 57.85 0 0 0-7.65-16.55 35.61 35.61 0 0 0-11.15-10.72 27.06 27.06 0 0 0-14.26-4 26.39 26.39 0 0 0-13.72 3.94 30.08 30.08 0 0 0-10.29 10.55q-8.3 14.1-.7 29.47 1 2 6.7 8.8 5.7 6.8 7.72 12.25 2 5.46-1.62 11.6a14 14 0 0 1-8.82 6.84q-5.64 1.46-11.78-2.16a47 47 0 0 1-13.53-12.48 51.54 51.54 0 0 1-8.76-18.59 57.07 57.07 0 0 1-.7-23q2-12.55 10-26.22 9.7-16.47 21.73-25.05a49.35 49.35 0 0 1 17.28-7.65 51.56 51.56 0 0 1 37.46 5.85 53.33 53.33 0 0 1 20.37 20.94q7 13.06 9.15 23.6 2.15 10.54 5.8 34.54 3.7 24 7.45 34.36a72 72 0 0 0 3.87 9.37z" />
  <g
     id="g901"
     class="B C D">
    <use
       id="use897"
       class="E"
       fill="none"
       xlink:href="#C" />
    <use
       id="use899"
       fill="#fff"
       xlink:href="#B" />
  </g>
  <path
     inkscape:connector-curvature="0"
     id="path903"
     class="F"
     d="m 625.28,1765.895 -0.092,-113.7135 q -31.7211,24.394 -42.7214,24.4139 a 12.61,12.61 0 0 1 -9.3141,-4.1828 13.46,13.46 0 0 1 -4.0692,-9.6756 q -0.01,-6.3833 4.0063,-9.3375 4.0154,-2.9542 14.1144,-7.7615 15.1223,-7.1375 24.1713,-15.0182 a 103.23,103.23 0 0 0 16.049,-17.617 q 7.002,-9.7722 9.152,-12.0304 2.1502,-2.2581 7.9709,-2.2368 a 12.83,12.83 0 0 1 10.6302,5.1124 q 3.9948,5.1081 4.0141,14.1223 l 0.1158,143.0766 q 0.031,25.1304 -17.0899,25.1322 a 15.7,15.7 0 0 1 -12.2578,-5.1146 q -4.6906,-5.1847 -4.683,-15.1558 z" />
  <use
     id="use905"
     class="B C D E"
     fill="none"
     xlink:href="#C" />
  <path
     id="path907"
     fill="#fff"
     d="M588.85 1471.665c-15.48-97.08 29.07-374.57 183.42-429.32 0 0 32.66-33.2 26.3-32.33-330.9 46.07-355.84 374.5-355.84 449.5" />
  <path
     id="path909"
     class="B C D E"
     fill="none"
     d="M442.74 1459.495c0-76.45 21.63-426.3 371-462m-41.47 53.05c-154.35 54.75-198.9 324-183.42 421.1" />
  <defs
     id="defs913">
    <path
       d="M1471.28 817.895c147.5-250.06 187.66-622.15-114.58-800.44-71.2-42-280.2 162.82-457.34 463.07l-.5.84c-177.12 300.3-255.27 582.3-184.08 624.3 302.24 178.28 608.5-36.84 756-286.9"
       id="B" />
    <path
       d="M1331.8 50.195c34.12 20.12-49.62 277.6-215.27 558.4l-.52.9c-165.65 280.8-350.5 478.64-384.6 458.5"
       id="C" />
  </defs>
  <g
     transform="matrix(0.89998311,0,0,0.89998311,21.67701,24.87942)"
     id="g1486">
    <path
       inkscape:connector-curvature="0"
       id="path865"
       class="F"
       d="m 643.166,504.878 -519.75,-308.35 c -38.37,-20.8 -82.08,-15.1 -102.88,23.26 v 0 c -20.8,38.37 -1.7,78.1 36.67,98.9 l 542,267.2" />
    <g
       id="g871"
       class="B C"
       stroke-linejoin="round"
       fill="#fff">
      <path
         inkscape:connector-curvature="0"
         id="path867"
         d="m 1046.33,790.25 -47.45,87.537 a 26.9,26.9 45 0 1 -36.468,10.83 L 588.834,686.12 a 38.62,38.62 0 0 1 -15.549,-52.357 l 95.786,-176.71 a 38.62,38.62 0 0 1 52.357,-15.549 l 263.798,142.992 a 151.77,151.77 0 0 1 61.103,205.754 z" />
      <path
         inkscape:connector-curvature="0"
         id="path869"
         class="E"
         d="m 792.306,568.678 139.83,75.8 a 85.07,85.07 0 0 1 34.25,115.33 l -16.3,30.1" />
    </g>
  </g>
  <path
     inkscape:connector-curvature="0"
     d="m 1330.6088,757.01973 30.8628,-57.46684 q 4.6131,-8.58964 10.5595,-11.20774 a 13.06,13.06 0 0 1 12.0036,0.62355 14.43,14.43 0 0 1 7.2149,8.48326 q 1.8144,5.58292 -2.0754,12.84699 l -43.5288,81.05089 q -4.4286,8.24605 -11.4984,10.41972 a 16.59,16.59 0 0 1 -13.2097,-1.14645 q -3.9645,-2.12913 -8.9157,-8.61348 a 42.9,42.9 0 0 1 -6.8117,-12.02387 q -7.3247,-22.79893 -11.8391,-40.41089 -4.5055,-17.60722 -5.2032,-24.50868 a 110.45,110.45 0 0 0 -4.7554,-21.91856 57.74,57.74 0 0 0 -8.3084,-16.23292 35.76,35.76 0 0 0 -11.5833,-10.26179 27.15,27.15 0 0 0 -14.4096,-3.41405 26.38,26.38 0 0 0 -13.5489,4.49435 30,30 0 0 0 -9.8541,10.95095 q -7.7406,14.41296 0.4812,29.47564 1.0696,1.98192 7.0429,8.54982 5.9781,6.55908 8.2062,11.92143 2.2138,5.38878 -1.1455,11.6438 a 14.06,14.06 0 0 1 -8.5449,7.18178 q -5.579,1.68034 -11.8517,-1.68841 a 47.12,47.12 0 0 1 -14.0267,-11.92592 51.64,51.64 0 0 1 -9.5073,-18.22758 57.31,57.31 0 0 1 -1.6235,-22.99479 q 1.46,-12.60995 8.9735,-26.60004 9.0511,-16.8533 20.7102,-25.88137 a 49.17,49.17 0 0 1 16.963,-8.33626 51.62,51.62 0 0 1 37.67,4.33958 53.28,53.28 0 0 1 21.1878,20.10785 q 7.5284,12.76065 10.0776,23.21042 2.558,10.45451 7.195,34.28449 4.6545,23.83945 8.8222,34.02331 a 69.35,69.35 0 0 0 4.2621,9.24708 z"
     class="F"
     id="path1533" />
</svg>
