<svg xmlns="http://www.w3.org/2000/svg" height="1924.004" width="1776.143"  xmlns:v="https://vecta.io/nano"><style><![CDATA[.B{stroke-linecap:round}.C{stroke:#231f20}.D{fill:#fcfad8}.E{stroke-width:8.025}.F{stroke-miterlimit:10}.G{stroke-width:5.587}]]></style><g fill="#fff" stroke-width="24" class="C F"><path d="M1750 184.474l-774.13 863.2c-24.37 27.18-60.15 23-79.32-8.43L787.6 860.864c-15.18-24.87-10.3-63.3 10.5-86.5L1459 37.394c20.8-23.2 58.48-32.22 84.85-19.82l189.18 89c33.3 15.6 41.35 50.72 16.98 77.9z"/><path d="M1640.6 155.614c-11.45 12.76-32.76 16.64-47.4 8.77l-86.6-46.52c-13.1-7-15-22.25-4.34-34.07s29.9-16 43.27-9.34l88.5 44.4c14.96 7.47 17.98 24 6.57 36.75zm-878.65 1756.4c344.42 0 748.8-183.26 748.8-599.53 0-98.06-335.25-188.18-748.8-188.18h-1.15c-413.55 0-748.8 90.12-748.8 188.18 0 416.27 404.38 599.53 748.8 599.53"/></g><path d="M757.44 1746.224v-134.9q-37.65 28.9-50.7 28.9a14.94 14.94 0 0 1-11-5 16 16 0 0 1-4.82-11.48q0-7.56 4.75-11.12 4.75-3.56 16.75-9.2 17.93-8.46 28.68-17.8a121.9 121.9 0 0 0 19-20.9q8.3-11.57 10.82-14.23 2.53-2.66 9.5-2.67a15.19 15.19 0 0 1 12.6 6.08q4.74 6.08 4.74 16.75v169.73q0 29.8-20.3 29.8-9 0-14.53-6.08-5.53-6.08-5.47-17.9z" fill="#231f20"/><g class="C"><path d="M1462.3 1306.764c0 47-313.54 116.6-700.3 116.6h-1.23c-386.77 0-700.3-69.62-700.3-116.6" fill="none" stroke-width="24" class="B F"/><g class="D E"><path d="M718.22 859.084c.58 51.08-31.4 101.55-84.58 108s-94.77-33.63-108-84.58c-13.5-51.86 31-107.27 84.58-108 52.45-.75 107.37 31 108 84.58z"/><g class="B"><path d="M635.25 893.654l19.34 31.5"/><path d="M635.25 893.654l19.34 31.5m-54.4-37.83l-21.1 20m60.26-49.22l27.23-12.72m-76.44-20.98l14 22.27"/></g><path d="M663.87 1101.664c.57 51.08-31.4 101.55-84.58 108s-94.78-33.63-108-84.58c-13.5-51.85 31-107.26 84.58-108 52.44-.75 107.4 31 108 84.58z"/><g class="B"><path d="M580.9 1136.234l19.34 31.5"/><path d="M580.9 1136.234l19.34 31.5m-54.4-37.87l-21.12 20m60.28-49.18l27.23-12.73m-76.43-20.98l14 22.27m307.8-354.38c17.85 17.7 15.7 59.6-24.54 92.9s-88.53 44.3-118.16 35.14c-15.07-4.67-21.58-25.76-21.58-25.76"/></g><path d="M852.42 726.574c19.52 16.63 12.7 52.12-27.52 85.4s-88.52 44.3-118.15 35.14c-30.16-9.33-15.16-53.8 27.52-85.4 41.8-30.96 97.68-52.58 118.15-35.13z"/><g class="B"><path d="M801.9 786.314l27.26-.86"/><path d="M801.9 786.314l27.26-.86m-57.72 19.28l-9.45 19m29.95-51.63l17.1-20.17m-69.12 37.77l19.53-.8m136.82 285.13c.18 25.12-30.9 53.33-82.9 48.57s-94-31-108.57-58.4c-7.4-13.94 2.85-33.5 2.85-33.5"/></g><path d="M898.48 1064.504c2.1 25.55-27.74 45.92-79.73 41.16s-94-31-108.56-58.4c-14.8-27.88 27.18-48.83 79.73-41.16 51.46 7.5 106.34 31.58 108.56 58.4z"/><g class="B"><path d="M820.53 1071.254l19.94 18.6"/><path d="M820.53 1071.254l19.94 18.6m-54.53-27l-20.1 6.82m57.66-15.54l26.33-2.25m-75.65-21.94l14.4 13.2m-4.18-117.2c8.56 23.62-11.33 60.58-61.93 73.46s-99 2.17-121.82-18.8c-11.64-10.67-8.5-32.52-8.5-32.52"/></g><path d="M783.3 916.224c10.53 23.38-10.8 52.54-61.4 65.4s-99 2.17-121.83-18.8c-23.26-21.34 9.33-55.1 61.42-65.42 51.02-10.1 110.8-5.73 121.82 18.8z"/><g class="B"><path d="M712.08 948.604l25 10.9"/><path d="M712.08 948.604l25 10.9m-60.42-7.3l-16.68 13.15m49.17-33.87l24.07-10.92m-78.62 4.58l18 7.63m312.77-86.06c21.24 13.42 28.18 54.8-3.9 96s-76.87 62.38-107.78 59.82c-15.73-1.3-26.64-20.48-26.64-20.48"/></g><path d="M978.6 839.714c22.65 12 23.66 48.14-8.43 89.33s-76.86 62.38-107.78 59.82c-31.45-2.6-26.4-49.24 8.43-89.33 34.07-39.26 83.97-72.43 107.78-59.82z"/></g></g><g class="B"><g fill="#fcf7b9" class="G"><path d="M942.12 908.954l26.43-6.73" stroke="#010101"/><path d="M942.12 908.954l26.43-6.73" stroke="#383850"/></g><path d="M916.35 933.524l-5.12 20.6" class="C D E"/><path d="M929.32 897.234l12.33-23.37" fill="#fcf7b9" stroke="#383850" class="G"/><path d="M882.33 925.654l18.9-5" class="C D E"/></g></svg>