<svg xmlns="http://www.w3.org/2000/svg" height="1924.001" width="1619.79"  xmlns:v="https://vecta.io/nano"><style><![CDATA[.B{stroke-linecap:round}.C{stroke:#231f20}.D{stroke-width:24}.E{stroke-miterlimit:10}]]></style><g fill="#fff" class="C D E"><path d="M1593.93 181.01l-758.58 845.86c-23.88 26.63-58.95 22.5-77.73-8.26L650.8 843.78c-14.88-24.37-10.1-62 10.3-84.76l647.7-722.13c20.4-22.74 57.3-31.58 83.14-19.43l185.38 87.17c32.58 15.34 40.48 49.75 16.6 76.38z"/><path d="M1486.7 152.73c-11.22 12.5-32.1 16.3-46.45 8.6l-84.82-45.6c-12.82-6.9-14.65-21.8-4.26-33.4s29.3-15.72 42.4-9.15l86.72 43.5c14.66 7.36 17.62 23.54 6.4 36.05z"/></g><g fill="#f47920" stroke="#010101" stroke-width="9.558" stroke-linejoin="round"><path d="M680.8 777.33c15.48-6.27 35.82 48.62 35.82 48.62-2.76 20.92-24.44 11.77-32.3 23.3s-45.75-48.52-27.93-54c13.32-4 24.4-17.9 24.4-17.9z"/><path d="M668.7 802.47s9.78 29.9 20.54 36.62" class="B"/><path d="M836.27 699.47c15.66-5.78 34.28 49.7 34.28 49.7-3.42 20.83-24.8 11-33 22.27s-44.2-49.93-26.22-54.8c13.4-3.6 24.94-17.17 24.94-17.17z"/><path d="M823.35 724.19s8.84 30.2 19.4 37.25" class="B"/><path d="M576.97 860.99c15.62 5.9-6.72 60-6.72 60-16.24 13.48-25.94-8-39.53-4.83s-.62-66.7 16.15-58.58c12.5 6.06 30.1 3.4 30.1 3.4z"/><path d="M551.02 871.17s-13.13 28.6-9.8 40.83" class="B"/><path d="M498 979.37c11.74-11.87 52.12 30.5 52.12 30.5 5.72 20.32-17.8 20.48-20.47 34.16s-61.2-26.5-47-38.54c10.63-8.97 15.35-26.13 15.35-26.13z"/><path d="M496.8 1007.23s20.8 23.6 33.34 25.52" class="B"/><path d="M1108.32 442.98c10 13.4-38 47-38 47-20.94 2.6-17.57-20.67-30.7-25.36s35.37-56.53 45.14-40.67c7.3 11.8 23.56 19.03 23.56 19.03z"/><path d="M1080.97 437.59s-26.46 17-30.23 29.14" class="B"/><path d="M629.75 972.56c11.74-11.87 52.1 30.5 52.1 30.5 5.73 20.3-17.8 20.47-20.46 34.16s-61.2-26.5-47-38.54c10.62-8.98 15.35-26.13 15.35-26.13z"/><path d="M628.5 1000.41s20.8 23.6 33.35 25.52" class="B"/><path d="M849.13 616.77c11.74-11.88 52.1 30.5 52.1 30.5 5.73 20.3-17.8 20.47-20.46 34.15s-61.2-26.5-47-38.54c10.63-8.97 15.35-26.12 15.35-26.12z"/><path d="M847.9 644.62s20.8 23.6 33.35 25.52" class="B"/><path d="M960.97 547.16c16.56-2.2 22.54 56 22.54 56-7.9 19.57-26.6 5.3-37.1 14.5s-32.17-58.42-13.56-59.23c13.88-.6 28.1-11.26 28.1-11.26z"/><path d="M942.95 568.47s2 31.4 10.75 40.6" class="B"/><path d="M753.1 756.13c1.83-16.6 59.8-8.43 59.8-8.43 17.1 12.37-1.25 27.1 5.16 39.5s-64.43 17.2-60.76-1.06c2.75-13.66-4.2-30-4.2-30z"/><path d="M769.42 778.74s31 5.6 42-.7" class="B"/><path d="M884.43 583.35c0-16.7 58.52-14.92 58.52-14.92 18.35 10.42 1.72 27.07 9.45 38.68s-62.16 24.16-60.5 5.6c1.23-13.83-7.47-29.36-7.47-29.36z"/><path d="M903.13 604.03s31.4 2.18 41.66-5.28" class="B"/><path d="M667.27 835.11c1.7-16.6 59.72-9 59.72-9 17.2 12.22-1 27.1 5.52 39.44s-64.27 17.8-60.76-.5c2.62-13.57-4.48-29.93-4.48-29.93z"/><path d="M683.8 857.57s31 5.3 42-1.07" class="B"/><path d="M880.6 711.84c-6.22 15.5-59.86-7.92-59.86-7.92-13.15-16.5 8.47-25.78 5.62-39.42s66.7.7 58.24 17.32c-6.3 12.38-4 30.02-4 30.02z"/><path d="M870.96 685.69s-28.33-13.7-40.63-10.6" class="B"/><path d="M928.34 640.73c14.67 8-14.84 58.54-14.84 58.54-17.92 11.14-24.6-11.42-38.5-10.18s8.48-66.15 24-55.83c11.55 7.7 29.34 7.47 29.34 7.47z"/><path d="M901.24 647.28s-16.9 26.54-15.26 39.12" class="B"/><path d="M764.9 773.4c2.5 16.5-55.62 23.54-55.62 23.54-19.7-7.56-5.76-26.52-15.14-36.83s57.83-33.2 59-14.6c.83 13.86 11.76 27.9 11.76 27.9z"/><path d="M743.3 755.76s-31.36 2.56-40.4 11.47" class="B"/><path d="M718.6 812.19c-7.22-15.06 46.3-38.8 46.3-38.8 21 1.46 13.27 23.67 25.26 30.78s-45.58 48.7-52.12 31.3c-4.87-13.06-19.43-23.28-19.43-23.28z"/><path d="M744.4 822.74s29.23-11.63 35.26-22.8" class="B"/><path d="M631.7 827.05c11.74-11.87 52.12 30.52 52.12 30.52 5.73 20.3-17.8 20.47-20.46 34.15s-61.2-26.5-47-38.54c10.6-8.97 15.34-26.13 15.34-26.13z"/><path d="M630.45 854.91s20.8 23.56 33.36 25.56" class="B"/><path d="M579.56 892.64c3.52-16.32 60.34-2.26 60.34-2.26 15.75 14.05-4 26.83 1.1 39.8s-65.86 10.53-60.33-7.26c4.14-13.27-1.1-30.28-1.1-30.28z"/><path d="M593.48 916.8s30.23 8.73 41.83 3.6" class="B"/><path d="M663.8 880.47c11.75-11.88 52.12 30.5 52.12 30.5 5.72 20.3-17.8 20.47-20.47 34.16s-61.2-26.5-47-38.54c10.6-9.02 15.35-26.13 15.35-26.13z"/><path d="M662.56 908.28s20.8 23.6 33.34 25.52" class="B"/><path d="M743.4 915.55c10.36 13.1-36.62 48-36.62 48-20.86 3.2-18.15-20.16-31.4-24.47s33.75-57.52 44-41.94c7.58 11.64 24.03 18.4 24.03 18.4z"/><path d="M715.9 910.94s-26 17.77-29.4 30" class="B"/><path d="M968.17 497.86c11.74-11.87 52.1 30.5 52.1 30.5 5.73 20.32-17.8 20.47-20.46 34.16s-61.2-26.5-47-38.54c10.62-8.97 15.35-26.13 15.35-26.13z"/><path d="M966.93 525.71s20.8 23.6 33.35 25.53" class="B"/><path d="M780.8 694.33c11.74-11.88 52.1 30.5 52.1 30.5 5.73 20.3-17.8 20.47-20.46 34.16s-61.2-26.5-47-38.54c10.6-9 15.35-26.13 15.35-26.13z"/><path d="M779.55 722.18s20.8 23.6 33.35 25.52" class="B"/><path d="M541.62 974.17c-12.28-11.3 28.63-53.17 28.63-53.17 20.1-6.45 21.1 17.06 34.87 19.23s-24.3 62.1-36.84 48.32c-9.34-10.27-26.66-14.38-26.66-14.38z"/><path d="M569.5 974.41s22.85-21.63 24.3-34.24" class="B"/><path d="M589.4 815.91c15.8-5.4 33 50.54 33 50.54-3.93 20.74-25.06 10.4-33.55 21.46s-43-51-24.87-55.44c13.54-3.3 25.42-16.56 25.42-16.56z"/><path d="M575.88 840.29s8.1 30.4 18.47 37.7" class="B"/><path d="M594.5 763.41c3.17-16.4 60.28-3.56 60.28-3.56 16 13.72-3.44 26.9 1.95 39.78s-65.62 11.93-60.47-6c3.84-13.33-1.76-30.22-1.76-30.22z"/><path d="M608.95 787.26s30.4 8.1 41.9 2.72" class="B"/></g><g fill="#fff" class="C D"><g class="E"><path d="M1213.8 1099.27v719.36a93.16 93.16 0 0 1-93.36 93.37H204.63a93.16 93.16 0 0 1-93.37-93.37v-719.36z"/><path d="M71.44 1099.03A59.31 59.31 0 0 0 12 1158.47v54.6a59.31 59.31 0 0 0 59.44 59.39h39.82v-173.2h32.46l-4.84-.24zm1182.24.01a59.3 59.3 0 0 1 59.43 59.43v54.6a59.3 59.3 0 0 1-59.43 59.42h-39.87v-173.22h-32.45l4.83-.24z"/></g><circle r="149.26" cy="1393.511" cx="662.56"/></g><path d="M662.56 1393.51v-100.92" fill="none" class="B C D E"/></svg>