<svg xmlns="http://www.w3.org/2000/svg" viewBox="0 0 1942 2000"><g id="Layer_2" data-name="Layer 2"><path d="M68.43,1639.7l50.8,287.57A71.89,71.89,0,0,0,187,1975H1755a71.89,71.89,0,0,0,67.74-47.73l50.8-287.57" style="fill:#fff;stroke:#231f20;stroke-linecap:round;stroke-linejoin:round;stroke-width:24px"/><path d="M1901.86,1632.29,1592,1430.07a37.47,37.47,0,0,0-20.46-6.08H370.45a37.47,37.47,0,0,0-20.46,6.08L40.14,1632.29a37.45,37.45,0,0,0-17,31.35v8.54a37.44,37.44,0,0,0,37.44,37.44H1881.4a37.44,37.44,0,0,0,37.44-37.44v-8.54A37.45,37.45,0,0,0,1901.86,1632.29Z" style="fill:#fff;stroke:#231f20;stroke-linecap:round;stroke-linejoin:round;stroke-width:24px"/><line x1="120.01" y1="1643.37" x2="1821.99" y2="1643.37" style="fill:#fff;stroke:#231f20;stroke-linecap:round;stroke-linejoin:round;stroke-width:15.0435986831265px"/><path d="M1714.13,831.72C1861.79,581.41,1902,208.93,1599.42,30.46c-71.26-42-280.5,163-457.8,463.55l-.5.84c-177.3,300.57-255.52,582.87-184.26,624.9,302.55,178.48,609.11-36.87,756.77-287.19" style="fill:#fff;stroke:#231f20;stroke-miterlimit:10;stroke-width:24px"/><path d="M1573.35,770.69l33.18-56.24q5-8.4,11-10.79a13.07,13.07,0,0,1,12,1.11,14.46,14.46,0,0,1,6.87,8.78q1.6,5.66-2.59,12.77L1587,805.62q-4.77,8.07-11.91,10a16.55,16.55,0,0,1-13.17-1.67q-3.89-2.28-8.57-9a42.77,42.77,0,0,1-6.33-12.29q-6.42-23.1-10.22-40.89T1532.59,727a110.63,110.63,0,0,0-3.88-22.11,57.79,57.79,0,0,0-7.65-16.56,35.69,35.69,0,0,0-11.17-10.73,27.2,27.2,0,0,0-14.28-4,26.37,26.37,0,0,0-13.73,4,29.77,29.77,0,0,0-10.29,10.56q-8.33,14.11-.71,29.5,1,2,6.71,8.82t7.73,12.26q2,5.46-1.62,11.6a14.08,14.08,0,0,1-8.83,6.85q-5.65,1.46-11.8-2.17a47,47,0,0,1-13.54-12.49,51.57,51.57,0,0,1-8.77-18.61,57.17,57.17,0,0,1-.7-23.06q2-12.57,10-26.25,9.72-16.49,21.76-25.07a49.23,49.23,0,0,1,17.29-7.66,51.6,51.6,0,0,1,37.5,5.86A53.34,53.34,0,0,1,1547,668.68q7,13.08,9.15,23.63t5.82,34.58q3.69,24,7.45,34.39A71.4,71.4,0,0,0,1573.35,770.69Z" style="fill:#231f20"/><path d="M1574.5,63.23c34.15,20.15-49.67,277.88-215.49,559l-.53.89c-165.81,281.11-350.84,479.14-385,459" style="fill:none;stroke:#231f20;stroke-linecap:round;stroke-miterlimit:10;stroke-width:24px"/><path d="M1714.13,831.72C1861.79,581.41,1902,208.93,1599.42,30.46c-71.26-42-280.5,163-457.8,463.55l-.5.84c-177.3,300.57-255.52,582.87-184.26,624.9,302.55,178.48,609.11-36.87,756.77-287.19" style="fill:#fff;stroke:#231f20;stroke-miterlimit:10;stroke-width:24px"/><path d="M1573.35,770.69l33.18-56.24q5-8.4,11-10.79a13.07,13.07,0,0,1,12,1.11,14.46,14.46,0,0,1,6.87,8.78q1.6,5.66-2.59,12.77L1587,805.62q-4.77,8.07-11.91,10a16.55,16.55,0,0,1-13.17-1.67q-3.89-2.28-8.57-9a42.77,42.77,0,0,1-6.33-12.29q-6.42-23.1-10.22-40.89T1532.59,727a110.63,110.63,0,0,0-3.88-22.11,57.79,57.79,0,0,0-7.65-16.56,35.69,35.69,0,0,0-11.17-10.73,27.2,27.2,0,0,0-14.28-4,26.37,26.37,0,0,0-13.73,4,29.77,29.77,0,0,0-10.29,10.56q-8.33,14.11-.71,29.5,1,2,6.71,8.82t7.73,12.26q2,5.46-1.62,11.6a14.08,14.08,0,0,1-8.83,6.85q-5.65,1.46-11.8-2.17a47,47,0,0,1-13.54-12.49,51.57,51.57,0,0,1-8.77-18.61,57.17,57.17,0,0,1-.7-23.06q2-12.57,10-26.25,9.72-16.49,21.76-25.07a49.23,49.23,0,0,1,17.29-7.66,51.6,51.6,0,0,1,37.5,5.86A53.34,53.34,0,0,1,1547,668.68q7,13.08,9.15,23.63t5.82,34.58q3.69,24,7.45,34.39A71.4,71.4,0,0,0,1573.35,770.69Z" style="fill:#231f20"/><path d="M1574.5,63.23c34.15,20.15-49.67,277.88-215.49,559l-.53.89c-165.81,281.11-350.84,479.14-385,459" style="fill:none;stroke:#231f20;stroke-linecap:round;stroke-miterlimit:10;stroke-width:24px"/><path d="M697.47,1515.26v-150.6c0-306.55,289.29-339.27,289.29-339.27" style="fill:none;stroke:#231f20;stroke-linecap:round;stroke-linejoin:round;stroke-width:24px"/><polyline points="828.34 1370.27 697.47 1524.51 566.6 1370.27" style="fill:none;stroke:#231f20;stroke-linecap:round;stroke-linejoin:round;stroke-width:24px"/></g></svg>