<svg xmlns="http://www.w3.org/2000/svg" height="1924.004" width="1776.143"  xmlns:v="https://vecta.io/nano"><g fill="#fff" stroke="#231f20" stroke-width="24" stroke-miterlimit="10"><path d="M1750 184.474l-774.13 863.2c-24.37 27.18-60.15 23-79.32-8.43L787.6 860.864c-15.18-24.87-10.3-63.3 10.5-86.5L1459 37.394c20.8-23.2 58.48-32.22 84.85-19.82l189.18 89c33.3 15.6 41.35 50.72 16.98 77.9z"/><path d="M1640.6 155.614c-11.45 12.76-32.76 16.64-47.4 8.77l-86.6-46.52c-13.1-7-15-22.25-4.34-34.07s29.9-16 43.27-9.34l88.5 44.4c14.96 7.47 17.98 24 6.57 36.75zm-878.65 1756.4c344.42 0 748.8-183.26 748.8-599.53 0-98.06-335.25-188.18-748.8-188.18h-1.15c-413.55 0-748.8 90.12-748.8 188.18 0 416.27 404.38 599.53 748.8 599.53"/></g><path d="M754.92 1635.354a36.08 36.08 0 0 0 23.49-8q9.85-8 9.86-23a27.47 27.47 0 0 0-7.86-19.64q-7.86-8.22-21.2-8.22-9 0-14.9 2.52a23.89 23.89 0 0 0-9.27 6.67 50.32 50.32 0 0 0-6.46 10.68l-5.55 12.3a10.45 10.45 0 0 1-5.34 4.9 21.13 21.13 0 0 1-8.9 1.77q-5.93 0-10.9-4.8-4.96-4.8-5-12.83 0-7.7 4.67-16.23a59.38 59.38 0 0 1 13.64-16.23 68.73 68.73 0 0 1 22.37-12.37 89.85 89.85 0 0 1 29.8-4.67 83 83 0 0 1 26.23 3.93 61.31 61.31 0 0 1 20.61 11.34 48.86 48.86 0 0 1 13.19 17.2 50.18 50.18 0 0 1 4.45 21q0 14.82-6.45 25.42-6.45 10.6-18.46 20.68a81.68 81.68 0 0 1 19.5 14.23 53.17 53.17 0 0 1 15.93 38.69 65.44 65.44 0 0 1-5.41 26.09 66.76 66.76 0 0 1-15.93 22.46 76 76 0 0 1-25 15.41 88.28 88.28 0 0 1-32 5.56q-17.78 0-31.87-6.37a73.32 73.32 0 0 1-23.2-15.94 72.54 72.54 0 0 1-13.78-19.79q-4.67-10.23-4.67-16.9 0-8.6 5.56-13.86a19.39 19.39 0 0 1 13.86-5.26 14.75 14.75 0 0 1 8 2.45 11.54 11.54 0 0 1 5 5.85q7.7 20.6 16.53 30.6 8.82 10 24.83 10a37.32 37.32 0 0 0 31.8-17.94 38.11 38.11 0 0 0 5.56-20.6q0-17.36-9.5-27.2-9.5-9.84-26.4-9.86-3 0-9.2.6l-8 .6q-8.16 0-12.6-4.07-4.44-4.07-4.45-11.34a14.11 14.11 0 0 1 5.34-11.49q5.33-4.36 15.86-4.37z" fill="#231f20"/><path d="M1462.3 1306.764c0 47-313.54 116.6-700.3 116.6h-1.23c-386.77 0-700.3-69.62-700.3-116.6" fill="none" stroke="#231f20" stroke-width="24" stroke-linecap="round" stroke-miterlimit="10"/><g fill="#fffef3" stroke="#010101" stroke-width="12.192" stroke-linejoin="round"><path d="M505.36 1307.274s-35.36 1.32-19.52 33.34c9.6 18.13-3.57 34.35 42.26 17.15 13.7-26.82 43-11 24.15-33.3-19.3-22.78-14.2-15.92-46.9-17.18zm98.44-185.64s-26.62-23.3-37.07 10.86c-5.46 19.78-26.17 22.54 19 41.48 28.37-10.12 38.86 21.48 40.43-7.67 1.57-29.8.56-21.32-22.36-44.67zm-52.98-65.9s-35.35 1.32-19.5 33.34c9.6 18.14-3.57 34.35 42.25 17.16 13.7-26.83 43-11 24.15-33.32-19.28-22.78-14.2-15.92-46.9-17.18zm277.08-158.77s32-15.05 4.92-38.32c-15.92-12.94-10.15-33-45.6.74-2.1 30-35.27 27-9.2 40.1 26.66 13.42 19.3 9.1 49.87-2.53z"/><path d="M673.35 995.864s-24.85-25.2-37.76 8.12c-6.9 19.33-27.75 20.57 15.9 42.75 29-8 37.2 24.27 40.88-4.7 3.77-29.6 2.15-21.22-19-46.18zm159.25-64.1s9.47-34.08-25.84-28.7c-20.2 3.64-31.65-13.83-29.18 35 21.4 21.2-2.54 44.34 24.42 33.13 27.55-11.46 19.47-8.7 30.6-39.46z"/><path d="M692.15 997.974s-24.57 25.46 9.05 37.56c19.48 6.42 21.23 27.24 42.35-16.92-8.72-28.83 23.35-37.77-5.7-40.76-29.7-3.05-21.27-1.63-45.7 20.12zm-187.55 207.72s-8.65 34.3 26.52 28.1c20.1-4.12 32 13.07 28.33-35.74-21.9-20.68 1.48-44.4-25.2-32.53-27.3 12.1-19.28 9.16-29.65 40.18zm146.88-158.92s-33.74-10.65-29.6 24.83c2.94 20.3-14.9 31.15 34 30.37 21.92-20.65 44.22 4.08 33.95-23.25-10.5-27.94-8-19.77-38.38-31.95z"/><path d="M594.3 1029.724s-31.06 16.94-2.6 38.54c16.67 12 12.1 32.35 45.47-3.47.3-30.1 33.6-29 6.78-40.58-27.42-11.8-19.8-7.93-49.64 5.5zm-124.03 193.55s-23.35-26.58-38.17 5.92c-8 18.9-28.9 18.93 13.4 43.6 29.45-6.32 35.72 26.38 41.08-2.32 5.48-29.33 3.37-21.05-16.3-47.2zm258.33-283.1s-35.36 1.32-19.52 33.33c9.6 18.14-3.57 34.36 42.26 17.16 13.7-26.82 43-11 24.15-33.32-19.33-22.77-14.24-15.9-46.9-17.17zm-88.48 148.6s-35.35 1.33-19.5 33.34c9.6 18.14-3.57 34.35 42.25 17.16 13.7-26.83 43-11 24.15-33.32-19.28-22.78-14.2-15.92-46.9-17.18zm225.78-318.15s-35.32 1.32-19.52 33.34c9.6 18.14-3.57 34.35 42.26 17.16 13.7-26.83 43-11 24.15-33.32-19.3-22.78-14.2-15.94-46.9-17.18z"/></g></svg>