<svg xmlns="http://www.w3.org/2000/svg" height="1924.001" width="1619.79"  xmlns:v="https://vecta.io/nano"><g fill="#fff" stroke="#231f20" stroke-width="31.859" stroke-miterlimit="10"><path d="M1593.93 181.01l-758.58 845.86c-23.88 26.63-58.95 22.5-77.73-8.26L650.8 843.78c-14.88-24.37-10.1-62 10.3-84.76l647.7-722.13c20.4-22.74 57.3-31.58 83.14-19.43l185.38 87.17c32.58 15.34 40.48 49.75 16.6 76.38z"/><path d="M1486.7 152.73c-11.22 12.5-32.1 16.3-46.45 8.6l-84.82-45.6c-12.82-6.9-14.65-21.8-4.26-33.4s29.3-15.72 42.4-9.15l86.72 43.5c14.66 7.36 17.62 23.54 6.4 36.05z"/></g><g fill="#a12121" stroke="#010101" stroke-width="7.965" stroke-miterlimit="15.1181"><path d="M810.62 509.47c-17 21.44-59.22 13.23-77.57 37.43-25.1 33.1 5.24 60.43-18.63 91.62-25.2 32.9-59.76 11.33-83.2 43.53-11.52 15.83-.13 41.18 14.28 51.9 14.63 10.84 38.3 10.52 48.3-1.9 25.07-31.1 62.4-18.1 84.92-45.58s-4.92-61.08 19-93c23.64-31.57 66.18-16.5 84.9-45.54 7.9-12.25-.16-35.3-9.53-42.1-35.9-26-49.17-13.13-62.47 3.64z"/><path d="M875.22 556.05c-17 21.44-59.23 13.23-77.58 37.43-25.1 33.1 5.24 60.43-18.63 91.62-25.2 32.9-59.76 11.37-83.2 43.53-11.5 15.83-.12 41.18 14.28 51.9 14.63 10.88 38.26 10.58 48.3-1.87 25.08-31.1 62.4-18.1 84.92-45.58s-4.92-61.08 19-93c23.64-31.57 66.2-16.5 84.9-45.54 7.9-12.25-.16-35.3-9.52-42.1-35.88-26-49.15-13.12-62.44 3.6z"/><path d="M940.95 603.53c-17 21.43-59.23 13.22-77.58 37.43-25.1 33.08 5.24 60.43-18.63 91.6-25.2 32.92-59.76 11.34-83.2 43.54-11.5 15.82-.12 41.17 14.28 51.9 14.63 10.9 38.26 10.58 48.3-1.87 25.07-31.1 62.4-18.1 84.92-45.58s-4.92-61.08 19-93c23.64-31.57 66.2-16.48 84.9-45.53 7.9-12.26-.16-35.32-9.52-42.1-35.88-26-49.15-13.1-62.44 3.62zm-122-343.06c-8.75 26-51.2 32.55-60.26 61.55-12.38 39.63 25.45 55.06 13.58 92.5-12.52 39.55-52.36 30.96-63.46 69.23-5.46 18.8 13.85 38.77 31 44 17.45 5.27 39.57-3 44.8-18.17 13-37.77 52.56-38.22 64.4-71.7s-25.37-55.78-13.72-93.93c11.5-37.72 56.65-38 64.4-71.65 3.26-14.2-12.15-33.16-23.26-36.36-42.53-12.3-50.6 4.32-57.46 24.54z"/><path d="M895.53 282.47c-8.75 25.95-51.2 32.55-60.26 61.55-12.37 39.63 25.45 55.06 13.58 92.5-12.52 39.52-52.36 31-63.47 69.2-5.46 18.8 13.86 38.77 31 44 17.45 5.27 39.58-3 44.8-18.16 13-37.78 52.56-38.22 64.4-71.7s-25.36-55.8-13.72-93.93c11.52-37.73 56.65-38 64.4-71.66 3.26-14.2-12.14-33.16-23.25-36.36-42.52-12.34-50.63 4.27-57.46 24.57z"/><path d="M973.47 304.76c-8.74 25.94-51.2 32.55-60.26 61.54-12.37 39.64 25.45 55.07 13.6 92.5-12.53 39.52-52.37 30.95-63.48 69.2-5.46 18.8 13.86 38.77 31 44 17.46 5.28 39.58-3 44.8-18.16 13-37.77 52.56-38.22 64.4-71.7s-25.37-55.78-13.73-93.93c11.52-37.72 56.66-38 64.4-71.65 3.27-14.2-12.14-33.16-23.25-36.36-42.52-12.3-50.63 4.27-57.46 24.56z"/><path d="M1131.8 270.47c-24 13.17-59.73-10.73-86 4.47-35.94 20.78-18.56 57.75-52.64 77.25-36 20.6-59.5-12.7-93.57 7.92-16.75 10.13-16.07 37.92-6.93 53.38 9.27 15.7 31.17 24.57 45.25 17 35.17-19 64.55 7.48 95.94-9.13s19.12-58.22 53.52-78.4c34-19.95 67.4 10.43 95.9-9.1 12-8.24 13.53-32.62 7.52-42.5-23-37.85-40.23-31.12-59-20.85z"/><path d="M1173.33 338.47c-24 13.16-59.72-10.74-86 4.47-35.94 20.78-18.56 57.74-52.65 77.25-36 20.6-59.5-12.7-93.56 7.92-16.75 10.13-16.07 37.9-6.94 53.38 9.27 15.7 31.18 24.56 45.26 17 35.16-19 64.55 7.48 95.94-9.13s19.12-58.23 53.52-78.4c34-20 67.4 10.43 95.9-9.1 12-8.24 13.53-32.62 7.52-42.5-23.03-37.88-40.25-31.1-59-20.88z"/><path d="M1215.55 407.73c-24 13.17-59.72-10.73-86 4.47-36 20.78-18.57 57.75-52.65 77.25-36 20.6-59.5-12.7-93.57 7.92-16.75 10.13-16.06 37.92-6.93 53.38 9.27 15.7 31.18 24.57 45.25 17 35.17-19 64.56 7.48 96-9.13s19.12-58.22 53.52-78.4c34-20 67.4 10.43 95.9-9.1 12-8.24 13.52-32.62 7.52-42.5-23.1-37.88-40.3-31.14-59.04-20.88zM511.6 849.47c-23.5 14-60.08-8.5-85.8 7.68-35.14 22.12-16.4 58.4-49.72 79.17-35.18 21.92-59.92-10.45-93.2 11.42-16.36 10.75-14.64 38.5-4.94 53.6 9.86 15.34 32.08 23.38 45.86 15.27 34.43-20.28 64.8 5.05 95.54-12.72s16.92-58.9 50.55-80.35c33.25-21.2 67.74 7.9 95.5-12.7 11.7-8.7 12.3-33.1 5.92-42.75-24.4-37-41.37-29.6-59.7-18.63z"/><path d="M555.6 915.83c-23.5 14-60.1-8.5-85.8 7.68-35.14 22.1-16.4 58.4-49.72 79.17-35.18 21.92-59.92-10.46-93.2 11.4-16.36 10.76-14.64 38.5-4.93 53.6 9.85 15.34 32.07 23.4 45.85 15.27 34.44-20.27 64.8 5.06 95.54-12.72s16.93-58.9 50.55-80.34c33.25-21.22 67.75 7.9 95.5-12.7 11.7-8.7 12.3-33.1 5.92-42.76-24.4-36.98-41.36-29.6-59.7-18.62z"/><path d="M600.4 983.47c-23.5 14-60.1-8.5-85.8 7.68-35.14 22.12-16.4 58.4-49.72 79.17-35.18 21.93-59.92-10.45-93.2 11.42-16.36 10.75-14.64 38.5-4.93 53.6 9.85 15.34 32.07 23.38 45.85 15.27 34.44-20.28 64.8 5.05 95.54-12.72s16.92-58.9 50.55-80.35c33.25-21.2 67.74 7.9 95.5-12.7 11.7-8.7 12.3-33.1 5.92-42.75-24.4-37.02-41.37-29.63-59.7-18.63z"/></g><g fill="#fff" stroke="#231f20"><g stroke-miterlimit="10" stroke-width="24"><path d="M1213.8 1099.27v719.36a93.16 93.16 0 0 1-93.36 93.37H204.63a93.16 93.16 0 0 1-93.37-93.37v-719.36z"/><path d="M71.44 1099.03A59.31 59.31 0 0 0 12 1158.47v54.6a59.31 59.31 0 0 0 59.44 59.39h39.82v-173.2h32.46l-4.84-.24zm1182.24.01a59.3 59.3 0 0 1 59.43 59.43v54.6a59.3 59.3 0 0 1-59.43 59.42h-39.87v-173.22h-32.45l4.83-.24z"/></g><circle r="149.26" cy="1393.511" cx="662.56" stroke-width="24"/></g><path d="M662.56 1393.51v-100.92" fill="none" stroke="#231f20" stroke-width="24" stroke-linecap="round" stroke-miterlimit="10"/></svg>