<svg xmlns="http://www.w3.org/2000/svg" viewBox="0 0 2000 1881.91"><g id="Layer_1" data-name="Layer 1"><path d="M720.61,1834.09c317.16,0,689.55-168.75,689.55-552.09,0-90.3-308.72-173.29-689.55-173.29h-1.06C338.72,1108.71,30,1191.7,30,1282c0,383.34,372.39,552.09,689.55,552.09" style="fill:#fff;stroke:#231f20;stroke-miterlimit:10;stroke-width:17.07416296005249px"/><path d="M74.62,1283.86v163.71l185.17,234.59H1176.1l189.44-250.87V1283.86c0,43.27-288.73,107.38-644.89,107.38h-1.14C363.35,1391.24,74.62,1327.13,74.62,1283.86Z" style="fill:#fff"/><path d="M793.58,1680.29q0,14.82-16.77,14.81h-94.5q-17.05,0-17-14.81,0-14.26,17-14.26h29.08V1538.55L684.55,1555a14.38,14.38,0,0,1-7,2.24,12.32,12.32,0,0,1-9.92-5,17.37,17.37,0,0,1-4.06-11.19q0-8.1,7.27-12.58l43.33-26.84q8.4-5,15.94-5,7.82,0,12.58,4.75c3.17,3.18,4.75,7.55,4.75,13.14V1666h29.36Q793.58,1666,793.58,1680.29Z" style="fill:#231f20"/><path d="M1365.54,1276.75c0,43.26-288.73,107.38-644.89,107.38h-1.14c-356.16,0-644.89-64.12-644.89-107.38" style="fill:none;stroke:#231f20;stroke-linecap:round;stroke-miterlimit:10;stroke-width:17.07416296005249px"/><path d="M1815.24,197.42l-758.58,845.86c-23.88,26.63-59,22.51-77.74-8.26L872.16,860.19c-14.88-24.36-10.1-62,10.29-84.76L1530.08,53.3c20.38-22.73,57.3-31.58,83.14-19.43l185.38,87.18C1831.22,136.39,1839.12,170.79,1815.24,197.42Z" style="fill:#fff;stroke:#231f20;stroke-miterlimit:10;stroke-width:24px"/><path d="M1708,169.14c-11.21,12.51-32.1,16.31-46.44,8.6l-84.83-45.61c-12.82-6.9-14.64-21.8-4.25-33.39s29.29-15.72,42.4-9.15l86.72,43.5C1716.25,140.45,1719.21,156.64,1708,169.14Z" style="fill:#fff;stroke:#231f20;stroke-miterlimit:10;stroke-width:24px"/></g><g id="Isolation_Mode" data-name="Isolation Mode"><path d="M1047.27,798a4.72,4.72,0,0,0-3.11,3.88c-.27,4.43,4.95,8.16,8.54,6.92,20.89-7,38.26-23.38,43.51-45.45.72-3-2.42-4.68-4.75-6.14-1.37-.8-3.22-1-4,.29-8.77,14-17.63,28.12-33.28,35.69C1051.15,794.68,1049.06,796.79,1047.27,798Z" style="fill:#ffdf4c;stroke:#231f20;stroke-miterlimit:10;stroke-width:3.3393541888985583px"/><path d="M1112.8,723.3a4.7,4.7,0,0,0-3.11,3.88c-.27,4.43,5,8.16,8.54,6.92,20.88-7,38.26-23.38,43.51-45.45.72-3-2.43-4.69-4.75-6.15-1.37-.79-3.22-1-4,.3-8.76,14-17.63,28.12-33.27,35.69C1116.68,720,1114.58,722.06,1112.8,723.3Z" style="fill:#ffdf4c;stroke:#231f20;stroke-miterlimit:10;stroke-width:3.3393541888985583px"/><path d="M1110.93,746.41a4.69,4.69,0,0,0-3.84,3.17c-1.17,4.28,3.19,9,7,8.51,21.88-2.61,42.22-15.12,51.85-35.65,1.3-2.76-1.42-5.08-3.41-7-1.17-1.05-3-1.62-4-.52-11.42,11.89-23,23.94-39.84,28.17C1115.41,743.92,1112.92,745.56,1110.93,746.41Z" style="fill:#ffdf4c;stroke:#231f20;stroke-miterlimit:10;stroke-width:3.3393541888985583px"/><path d="M1017.24,795.81a4.71,4.71,0,0,0-1.07,4.86c1.72,4.1,8.05,5.12,10.72,2.42,15.61-15.54,23.93-37.93,18.84-60-.67-3-4.25-3.12-7-3.39-1.58-.11-3.32.54-3.47,2.05-1.67,16.4-3.34,33-14,46.74C1019.23,791.09,1018.28,793.91,1017.24,795.81Z" style="fill:#ffdf4c;stroke:#231f20;stroke-miterlimit:10;stroke-width:3.3393541888985583px"/><path d="M796.26,1020.75a4.74,4.74,0,0,0-3.12,3.89c-.27,4.43,5,8.15,8.54,6.92,20.89-7,38.27-23.39,43.51-45.45.72-3-2.42-4.69-4.75-6.15-1.37-.79-3.22-1-4,.3-8.77,14-17.63,28.12-33.28,35.69C800.14,1017.4,798,1019.51,796.26,1020.75Z" style="fill:#ffdf4c;stroke:#231f20;stroke-miterlimit:10;stroke-width:3.3393541888985583px"/><path d="M974.07,929.85a4.71,4.71,0,0,0-3.11,3.88c-.27,4.44,4.94,8.16,8.53,6.93,20.89-7,38.27-23.39,43.52-45.46.71-3-2.43-4.68-4.76-6.14-1.36-.8-3.21-1-4,.3-8.76,14-17.63,28.11-33.28,35.69C978,926.5,975.85,928.61,974.07,929.85Z" style="fill:#ffdf4c;stroke:#231f20;stroke-miterlimit:10;stroke-width:3.3393541888985583px"/><path d="M1057.85,839.32a4.73,4.73,0,0,0-3.11,3.89c-.27,4.43,5,8.15,8.54,6.92,20.89-7,38.26-23.39,43.51-45.45.72-3-2.42-4.69-4.75-6.15-1.37-.79-3.22-1-4,.3-8.77,14-17.64,28.12-33.28,35.69C1061.73,836,1059.64,838.08,1057.85,839.32Z" style="fill:#ffdf4c;stroke:#231f20;stroke-miterlimit:10;stroke-width:3.3393541888985583px"/><path d="M986.08,865.56a4.71,4.71,0,0,0-3.12,3.88c-.27,4.43,4.95,8.16,8.54,6.92,20.89-7,38.27-23.38,43.51-45.45.72-3-2.42-4.68-4.75-6.14-1.37-.8-3.22-1-4,.29-8.77,14-17.63,28.12-33.28,35.69C990,862.21,987.86,864.32,986.08,865.56Z" style="fill:#ffdf4c;stroke:#231f20;stroke-miterlimit:10;stroke-width:3.3393541888985583px"/><path d="M980,738.21a4.71,4.71,0,0,0-3.12,3.88c-.27,4.43,5,8.16,8.54,6.92,20.89-7,38.27-23.39,43.52-45.45.71-3-2.43-4.69-4.76-6.15-1.37-.79-3.22-1-4,.3-8.76,14-17.63,28.12-33.28,35.69C983.89,734.86,981.79,737,980,738.21Z" style="fill:#ffdf4c;stroke:#231f20;stroke-miterlimit:10;stroke-width:3.3393541888985583px"/><path d="M1015,747.66a4.75,4.75,0,0,0-3.12,3.89c-.27,4.43,4.95,8.15,8.54,6.92,20.89-7,38.27-23.39,43.52-45.45.71-3-2.43-4.69-4.76-6.15-1.37-.79-3.21-1-4,.3-8.76,14-17.63,28.12-33.28,35.69C1018.83,744.31,1016.73,746.42,1015,747.66Z" style="fill:#ffdf4c;stroke:#231f20;stroke-miterlimit:10;stroke-width:3.3393541888985583px"/><path d="M1198,610.69a4.71,4.71,0,0,0-3.11,3.88c-.27,4.44,5,8.16,8.54,6.92,20.88-7,38.26-23.38,43.51-45.45.72-3-2.43-4.68-4.75-6.14-1.37-.8-3.22-1-4,.3-8.76,14-17.63,28.11-33.28,35.69C1201.92,607.34,1199.82,609.45,1198,610.69Z" style="fill:#ffdf4c;stroke:#231f20;stroke-miterlimit:10;stroke-width:3.3393541888985583px"/><path d="M1091.53,671.29a4.72,4.72,0,0,0-3.84,3.16c-1.16,4.29,3.19,9,7,8.52,21.87-2.61,42.22-15.12,51.84-35.66,1.31-2.75-1.42-5.07-3.4-7-1.18-1.05-2.95-1.62-4-.52-11.42,11.89-23,23.94-39.84,28.17C1096,668.79,1093.53,670.43,1091.53,671.29Z" style="fill:#ffdf4c;stroke:#231f20;stroke-miterlimit:10;stroke-width:3.3393541888985583px"/><path d="M1088,634.93a4.7,4.7,0,0,0-2.15,4.49c.74,4.38,6.67,6.82,9.89,4.8,18.75-11.56,32-31.46,32.06-54.14,0-3.05-3.43-4-6-4.9-1.52-.47-3.36-.23-3.85,1.2-5.37,15.59-10.8,31.38-24.32,42.31C1091,630.79,1089.46,633.32,1088,634.93Z" style="fill:#ffdf4c;stroke:#231f20;stroke-miterlimit:10;stroke-width:3.3393541888985583px"/><path d="M831,1263.45a4.72,4.72,0,0,0-3-4c-4.24-1.35-9.13,2.79-8.81,6.58,1.67,22,13.29,42.83,33.39,53.33,2.7,1.42,5.14-1.2,7.12-3.1,1.11-1.13,1.75-2.88.7-4-11.39-11.92-22.93-24-26.44-41C833.33,1268,831.8,1265.48,831,1263.45Z" style="fill:#ffdf4c;stroke:#231f20;stroke-miterlimit:10;stroke-width:3.3393541888985583px"/><path d="M963.89,794.33a4.7,4.7,0,0,0-3.11,3.88c-.27,4.43,5,8.16,8.54,6.92,20.88-7,38.26-23.38,43.51-45.45.72-3-2.43-4.68-4.75-6.14-1.37-.8-3.22-1-4,.29-8.76,14-17.63,28.12-33.28,35.69C967.77,791,965.67,793.09,963.89,794.33Z" style="fill:#ffdf4c;stroke:#231f20;stroke-miterlimit:10;stroke-width:3.3393541888985583px"/><path d="M987.05,844.92a4.71,4.71,0,0,0,1.53-4.74c-1.32-4.24-7.52-5.86-10.44-3.43-17,14-27.46,35.45-24.52,58,.38,3,3.93,3.51,6.63,4,1.56.26,3.35-.22,3.65-1.71,3.23-16.17,6.49-32.55,18.43-45.19C984.62,849.43,985.83,846.71,987.05,844.92Z" style="fill:#ffdf4c;stroke:#231f20;stroke-miterlimit:10;stroke-width:3.3393541888985583px"/><path d="M1103.3,700.14a4.73,4.73,0,0,0,1.93-4.59c-1-4.34-7-6.48-10.12-4.3-18.15,12.48-30.34,33-29.3,55.68.12,3,3.62,3.83,6.26,4.59,1.53.39,3.36.06,3.78-1.39,4.58-15.84,9.21-31.89,22.16-43.48C1100.5,704.42,1101.93,701.82,1103.3,700.14Z" style="fill:#ffdf4c;stroke:#231f20;stroke-miterlimit:10;stroke-width:3.3393541888985583px"/><path d="M1037.81,673.75a4.73,4.73,0,0,0-3.11,3.88c-.27,4.44,5,8.16,8.54,6.92,20.89-7,38.27-23.38,43.51-45.45.72-3-2.42-4.68-4.75-6.14-1.37-.8-3.22-1-4,.3-8.77,14-17.63,28.11-33.28,35.69C1041.69,670.4,1039.6,672.51,1037.81,673.75Z" style="fill:#ffdf4c;stroke:#231f20;stroke-miterlimit:10;stroke-width:3.3393541888985583px"/><path d="M1173,651.67a4.74,4.74,0,0,0-3.12,3.89c-.27,4.43,5,8.15,8.54,6.92,20.89-7,38.27-23.39,43.52-45.45.71-3-2.43-4.69-4.76-6.15-1.37-.79-3.22-1-4,.3-8.76,14-17.63,28.12-33.28,35.69C1176.85,648.32,1174.75,650.43,1173,651.67Z" style="fill:#ffdf4c;stroke:#231f20;stroke-miterlimit:10;stroke-width:3.3393541888985583px"/><path d="M1156.26,615.19a4.71,4.71,0,0,0-3.12,3.88c-.27,4.43,4.95,8.16,8.54,6.92,20.89-7,38.27-23.38,43.51-45.45.72-3-2.42-4.68-4.75-6.15-1.37-.79-3.22-1-4,.3-8.77,14-17.63,28.12-33.28,35.69C1160.13,611.84,1158,614,1156.26,615.19Z" style="fill:#ffdf4c;stroke:#231f20;stroke-miterlimit:10;stroke-width:3.3393541888985583px"/><path d="M1271.75,567.16a4.75,4.75,0,0,0-3.84,3.17c-1.16,4.29,3.19,9,7,8.51,21.87-2.61,42.22-15.11,51.84-35.65,1.31-2.75-1.42-5.08-3.4-7-1.18-1.06-3-1.62-4-.53-11.42,11.89-23,23.94-39.84,28.18C1276.23,564.67,1273.75,566.31,1271.75,567.16Z" style="fill:#ffdf4c;stroke:#231f20;stroke-miterlimit:10;stroke-width:3.3393541888985583px"/><path d="M781.21,1356.54a4.71,4.71,0,0,0-2.15,4.49c.74,4.38,6.67,6.82,9.89,4.8,18.75-11.56,32-31.45,32.06-54.14,0-3-3.43-4-6-4.9-1.52-.47-3.36-.23-3.85,1.2-5.37,15.59-10.8,31.38-24.32,42.31C784.23,1352.4,782.66,1354.93,781.21,1356.54Z" style="fill:#ffdf4c;stroke:#231f20;stroke-miterlimit:10;stroke-width:3.3393541888985583px"/><path d="M1157.53,694.34a4.71,4.71,0,0,0-3.11,3.88c-.27,4.44,4.95,8.16,8.54,6.93,20.88-7,38.26-23.39,43.51-45.46.72-3-2.43-4.68-4.76-6.14-1.36-.8-3.21-1-4,.3-8.76,14-17.63,28.11-33.28,35.69C1161.41,691,1159.31,693.1,1157.53,694.34Z" style="fill:#ffdf4c;stroke:#231f20;stroke-miterlimit:10;stroke-width:3.3393541888985583px"/><path d="M1108.41,817.21a4.71,4.71,0,0,0-3.12,3.88c-.27,4.43,5,8.16,8.54,6.92,20.89-7,38.27-23.38,43.52-45.45.71-3-2.43-4.68-4.76-6.14-1.37-.8-3.22-1-4,.29-8.76,14-17.63,28.12-33.28,35.69C1112.29,813.86,1110.19,816,1108.41,817.21Z" style="fill:#ffdf4c;stroke:#231f20;stroke-miterlimit:10;stroke-width:3.3393541888985583px"/><path d="M1193.09,687.32a4.72,4.72,0,0,0-3.12,3.88c-.27,4.44,5,8.16,8.54,6.92,20.89-7,38.27-23.38,43.51-45.45.72-3-2.42-4.68-4.75-6.14-1.37-.8-3.22-1-4,.3-8.77,14-17.63,28.11-33.28,35.69C1197,684,1194.87,686.08,1193.09,687.32Z" style="fill:#ffdf4c;stroke:#231f20;stroke-miterlimit:10;stroke-width:3.3393541888985583px"/><path d="M1247,704.84a5.56,5.56,0,0,1-3.7,3.31,5.29,5.29,0,0,1-5.84-6.93c7.52-19.88,23.38-37.72,43.76-45.2,2.74-1,4.14,1.63,5.34,3.57a2.82,2.82,0,0,1-.49,3.7c-13.2,9.7-26.57,19.51-34.32,34.69C1250.24,700.9,1248.21,703.06,1247,704.84Z" style="fill:#ffdf4c;stroke:#231f20;stroke-miterlimit:10;stroke-width:3.028947130350126px"/><path d="M1236.1,633a4.74,4.74,0,0,0-4,2.94c-1.42,4.2,2.64,9.16,6.43,8.91,22-1.28,43-12.53,53.9-32.46,1.47-2.66-1.11-5.15-3-7.17-1.11-1.13-2.84-1.79-4-.77-12.11,11.18-24.38,22.52-41.47,25.72C1240.72,630.8,1238.15,632.29,1236.1,633Z" style="fill:#ffdf4c;stroke:#231f20;stroke-miterlimit:10;stroke-width:3.3393541888985583px"/><path d="M898.91,813.09A4.71,4.71,0,0,0,895.8,817c-.27,4.44,5,8.16,8.54,6.93,20.88-7,38.26-23.39,43.51-45.46.72-3-2.42-4.68-4.75-6.14-1.37-.8-3.22-1-4,.3-8.77,14-17.64,28.11-33.28,35.69C902.79,809.74,900.7,811.85,898.91,813.09Z" style="fill:#ffdf4c;stroke:#231f20;stroke-miterlimit:10;stroke-width:3.3393541888985583px"/><path d="M782.12,1203.72a4.7,4.7,0,0,0-3.11,3.88c-.27,4.43,5,8.16,8.54,6.92,20.88-7,38.26-23.38,43.51-45.45.72-3-2.43-4.68-4.75-6.14-1.37-.8-3.22-1-4,.29-8.76,14-17.63,28.12-33.27,35.69C786,1200.37,783.9,1202.48,782.12,1203.72Z" style="fill:#ffdf4c;stroke:#231f20;stroke-miterlimit:10;stroke-width:3.3393541888985583px"/><path d="M898.91,1020.75a4.73,4.73,0,0,0-3.11,3.89c-.27,4.43,5,8.15,8.54,6.92,20.88-7,38.26-23.39,43.51-45.45.72-3-2.42-4.69-4.75-6.15-1.37-.79-3.22-1-4,.3-8.77,14-17.64,28.12-33.28,35.69C902.79,1017.4,900.7,1019.51,898.91,1020.75Z" style="fill:#ffdf4c;stroke:#231f20;stroke-miterlimit:10;stroke-width:3.3393541888985583px"/><path d="M1184.88,771.12a4.72,4.72,0,0,0-3.83,3.17c-1.17,4.29,3.18,9,7,8.51,21.87-2.61,42.22-15.11,51.85-35.65,1.3-2.75-1.43-5.08-3.41-7-1.18-1.06-3-1.62-4-.53-11.42,11.89-23,24-39.84,28.18C1189.36,768.63,1186.88,770.27,1184.88,771.12Z" style="fill:#ffdf4c;stroke:#231f20;stroke-miterlimit:10;stroke-width:3.3393541888985583px"/><path d="M1072.45,894.58a4.74,4.74,0,0,0-2.16,4.49c.75,4.38,6.67,6.82,9.89,4.81,18.75-11.56,32-31.46,32.07-54.14,0-3-3.43-4-6-4.91-1.51-.46-3.36-.23-3.85,1.21-5.37,15.58-10.79,31.38-24.31,42.3C1075.46,890.44,1073.9,893,1072.45,894.58Z" style="fill:#ffdf4c;stroke:#231f20;stroke-miterlimit:10;stroke-width:3.3393541888985583px"/><path d="M880.06,1102.82a4.72,4.72,0,0,0,.11-5c-2.48-3.69-8.89-3.47-11-.3-12.32,18.26-16.16,41.83-6.91,62.54,1.23,2.78,4.77,2.24,7.51,2,1.57-.2,3.15-1.17,3-2.68-1.53-16.41-3.09-33,4.72-48.57C879,1107.84,879.4,1104.89,880.06,1102.82Z" style="fill:#ffdf4c;stroke:#231f20;stroke-miterlimit:10;stroke-width:3.3393541888985583px"/><path d="M1042.2,889.79a4.75,4.75,0,0,0-3.12,3.89c-.27,4.43,5,8.15,8.54,6.92,20.89-7,38.27-23.39,43.52-45.45.71-3-2.43-4.69-4.76-6.15-1.37-.79-3.22-1-4,.3-8.76,14-17.63,28.12-33.28,35.69C1046.08,886.44,1044,888.55,1042.2,889.79Z" style="fill:#ffdf4c;stroke:#231f20;stroke-miterlimit:10;stroke-width:3.3393541888985583px"/><path d="M882.53,1243.35a4.74,4.74,0,0,0-3.12,3.89c-.27,4.43,5,8.15,8.54,6.92,20.89-7,38.27-23.39,43.51-45.45.72-3-2.42-4.69-4.75-6.15-1.37-.79-3.22-1-4,.3-8.77,14-17.63,28.12-33.28,35.69C886.4,1240,884.31,1242.11,882.53,1243.35Z" style="fill:#ffdf4c;stroke:#231f20;stroke-miterlimit:10;stroke-width:3.3393541888985583px"/><path d="M1148.22,846.38c-.6,1.87-1.91,3.22-3.84,3.18-4.91,0-9.9-6.14-9.09-10,4.5-22.79,20-41,43.82-45.16,3.19-.58,5.62,3.06,7.62,5.77,1.1,1.59,1.61,3.67.3,4.47-14.19,8.73-28.58,17.57-34.55,34.47C1151.34,842.3,1149.32,844.48,1148.22,846.38Z" style="fill:#ffdf4c;stroke:#231f20;stroke-miterlimit:10;stroke-width:3.7101855232388354px"/><path d="M1164,746.29a4.73,4.73,0,0,0-3.11,3.89c-.27,4.43,5,8.15,8.54,6.92,20.88-7,38.26-23.39,43.51-45.45.72-3-2.43-4.69-4.75-6.15-1.37-.79-3.22-1-4,.3-8.76,14-17.63,28.12-33.28,35.69C1167.84,742.94,1165.74,745.05,1164,746.29Z" style="fill:#ffdf4c;stroke:#231f20;stroke-miterlimit:10;stroke-width:3.3393541888985583px"/></g></svg>