<?xml version="1.0" encoding="UTF-8"?>
<svg id="Layer_1" data-name="Layer 1" xmlns="http://www.w3.org/2000/svg" width="1700.69" height="2000" viewBox="0 0 1700.69 2000">
  <g>
    <path d="M749.03,1973.77c326.17,0,709.13-173.54,709.13-567.77,0-92.86-317.49-178.21-709.13-178.21h-1.09c-391.64,0-709.13,85.35-709.13,178.21,0,394.23,382.96,567.77,709.13,567.77h1.09Z" style="fill: #fff; stroke: #3a3632; stroke-miterlimit: 10; stroke-width: 20px;"/>
    <path d="M824.07,1815.6c0,10.16-5.75,15.24-17.25,15.24h-97.18c-11.69,0-17.54-5.08-17.54-15.24s5.84-14.66,17.54-14.66h29.9v-131.1l-27.6,16.96c-2.69,1.54-5.08,2.3-7.19,2.3-4.03,0-7.43-1.72-10.21-5.17-2.78-3.45-4.17-7.28-4.17-11.5,0-5.56,2.49-9.87,7.47-12.94l44.56-27.6c5.75-3.45,11.21-5.18,16.39-5.18s9.68,1.63,12.94,4.89c3.26,3.26,4.89,7.76,4.89,13.51v155.83h30.19c11.5,0,17.25,4.89,17.25,14.66Z" style="fill: #3a3632;"/>
    <path d="M1412.27,1400.6c0,44.5-296.93,110.43-663.21,110.43h-1.17c-366.28,0-663.21-65.93-663.21-110.43" style="fill: none; stroke: #3a3632; stroke-linecap: round; stroke-miterlimit: 10; stroke-width: 20px;"/>
  </g>
  <g>
    <path d="M1650.82,239.63l-848.73,946.37c-26.72,29.79-65.95,25.18-86.97-9.24l-119.45-195.6c-16.65-27.26-11.29-69.39,11.52-94.83L1331.77,78.38c22.81-25.44,64.12-35.33,93.02-21.74l207.41,97.53c36.5,17.16,45.34,55.66,18.62,85.45Z" style="fill: #fff; stroke: #3a3632; stroke-miterlimit: 10; stroke-width: 24px;"/>
    <path d="M1530.83,207.98c-12.55,13.99-35.92,18.25-51.96,9.62l-94.91-51.03c-14.34-7.71-16.38-24.39-4.76-37.35,11.63-12.96,32.77-17.59,47.44-10.24l97.02,48.67c16.41,8.23,19.72,26.34,7.17,40.33Z" style="fill: #fff; stroke: #3a3632; stroke-miterlimit: 10; stroke-width: 24px;"/>
  </g>
  <g>
    <path d="M498.64,1371.67c10.36-17.79,20.87-35.32,25.39-41.25,.83-1.6,2.11-3.11,3.8-4.34,4.75-3.43,10.88-3.3,13.7,.3,.4,.51,.7,1.08,.93,1.66,.79-1.16,1.83-2.24,3.09-3.16,4.75-3.43,10.88-3.3,13.69,.3,.95,1.21,1.39,2.66,1.39,4.18,.47-.45,.97-.89,1.52-1.29,4.75-3.43,10.88-3.3,13.7,.3,2.34,3,1.64,7.45-1.4,10.84,4.23-1.86,8.87-1.28,11.21,1.72,2.82,3.6,1.25,9.3-3.5,12.74-.55,.4-1.13,.75-1.71,1.05,1.52,.42,2.84,1.23,3.79,2.44,2.81,3.6,1.25,9.3-3.5,12.74-1.27,.92-2.64,1.57-4.01,1.98,.52,.37,1,.81,1.4,1.32,2.82,3.6,1.25,9.3-3.5,12.74-1.71,1.24-3.6,2.01-5.46,2.32-10.19,3.54-27.26,7.88-49.99,14.5l-20.54-31.1Z" style="fill: #39b54a; stroke: #3a3632; stroke-width: 12.7px;"/>
    <path d="M537.94,1257.37c20.41-9.63,40.79-18.93,48.55-21.48,1.74-.93,3.84-1.5,6.13-1.56,6.42-.15,11.87,3.78,12.18,8.78,.04,.71-.03,1.41-.19,2.08,1.43-.55,3.04-.89,4.75-.93,6.42-.15,11.87,3.78,12.18,8.78,.1,1.68-.4,3.26-1.34,4.63,.7-.12,1.43-.2,2.18-.22,6.42-.15,11.87,3.78,12.18,8.78,.25,4.16-3.14,7.74-7.99,8.92,4.98,.94,8.8,4.36,9.06,8.52,.31,5-4.65,9.18-11.07,9.33-.75,.02-1.48-.03-2.2-.11,1.11,1.32,1.8,2.88,1.9,4.56,.31,5-4.65,9.18-11.07,9.33-1.72,.04-3.36-.22-4.85-.7,.24,.66,.4,1.35,.44,2.07,.31,5-4.65,9.18-11.07,9.33-2.32,.05-4.5-.43-6.37-1.29-11.4-3.13-29.51-9.82-54.15-17.96l.77-40.84Z" style="fill: #39b54a; stroke: #3a3632; stroke-width: 13.92px;"/>
    <path d="M582.24,1175.5c1.72,14.92,3.23,29.75,3.18,35.18,.21,1.3,.13,2.74-.33,4.19-1.27,4.08-4.92,6.68-8.13,5.8-.46-.12-.88-.32-1.27-.56,.04,1.02-.09,2.11-.43,3.19-1.27,4.08-4.92,6.68-8.13,5.8-1.08-.29-1.97-.95-2.63-1.83-.07,.47-.18,.94-.33,1.42-1.27,4.08-4.92,6.68-8.13,5.8-2.68-.73-4.21-3.63-3.92-6.94-1.66,2.94-4.62,4.62-7.3,3.89-3.22-.87-4.79-4.89-3.52-8.97,.15-.48,.33-.93,.54-1.36-1.07,.41-2.2,.52-3.28,.23-3.22-.87-4.79-4.89-3.52-8.97,.34-1.09,.85-2.07,1.48-2.91-.47,.01-.94-.04-1.4-.16-3.22-.87-4.79-4.89-3.52-8.97,.46-1.47,1.23-2.75,2.17-3.74,4.4-6.52,12.49-16.5,22.87-30.3l25.58,9.2Z" style="fill: #39b54a; stroke: #3a3632; stroke-width: 9.26px;"/>
    <path d="M583.11,1130.32c18.63,8.62,37.01,17.42,43.32,21.34,1.67,.67,3.29,1.8,4.66,3.37,3.85,4.39,4.29,10.49,.98,13.62-.47,.45-1,.8-1.56,1.08,1.22,.68,2.39,1.6,3.42,2.78,3.85,4.39,4.29,10.49,.98,13.62-1.11,1.05-2.51,1.62-4.02,1.77,.49,.42,.97,.88,1.42,1.39,3.85,4.39,4.29,10.49,.98,13.62-2.76,2.61-7.24,2.33-10.89-.37,2.25,4.02,2.1,8.68-.66,11.29-3.31,3.13-9.12,2.11-12.97-2.28-.45-.51-.85-1.05-1.2-1.6-.28,1.54-.96,2.94-2.07,3.99-3.31,3.13-9.12,2.11-12.97-2.28-1.03-1.17-1.81-2.47-2.34-3.8-.32,.56-.71,1.07-1.18,1.52-3.31,3.13-9.12,2.11-12.97-2.28-1.39-1.58-2.33-3.39-2.81-5.2-4.47-9.78-10.37-26.32-19.06-48.27l28.95-23.3Z" style="fill: #39b54a; stroke: #3a3632; stroke-width: 12.66px;"/>
    <path d="M619.92,1157.61c5.43-12.09,10.97-24.03,13.46-28.13,.42-1.08,1.14-2.14,2.14-3.03,2.81-2.52,6.74-2.85,8.79-.73,.29,.3,.52,.64,.71,1,.43-.79,1.02-1.56,1.77-2.23,2.81-2.52,6.74-2.85,8.79-.73,.69,.71,1.07,1.61,1.17,2.58,.27-.32,.56-.63,.89-.93,2.81-2.52,6.74-2.85,8.79-.73,1.7,1.76,1.56,4.66-.16,7.03,2.58-1.48,5.59-1.42,7.3,.34,2.05,2.11,1.43,5.87-1.38,8.39-.33,.29-.67,.55-1.02,.79,1,.17,1.9,.6,2.59,1.31,2.05,2.12,1.43,5.87-1.38,8.39-.75,.67-1.58,1.18-2.44,1.54,.36,.2,.7,.45,.99,.75,2.05,2.12,1.43,5.87-1.38,8.39-1.01,.91-2.17,1.53-3.34,1.86-6.28,2.96-16.92,6.89-31.03,12.67l-15.26-18.52Z" style="fill: #39b54a; stroke: #3a3632; stroke-width: 8.18px;"/>
    <path d="M640.06,1050.61c11.36,10.26,22.51,20.58,26.13,24.77,1.04,.85,1.94,2.01,2.57,3.43,1.77,3.98,.74,8.42-2.31,9.92-.44,.21-.89,.35-1.35,.42,.72,.75,1.35,1.67,1.82,2.73,1.77,3.98,.74,8.42-2.31,9.92-1.02,.5-2.15,.6-3.25,.37,.26,.41,.5,.84,.7,1.31,1.77,3.98,.74,8.42-2.31,9.92-2.54,1.25-5.67,.06-7.67-2.67,.71,3.36-.43,6.65-2.96,7.89-3.05,1.5-6.96-.51-8.73-4.49-.21-.46-.37-.93-.5-1.41-.54,1.04-1.33,1.88-2.36,2.38-3.05,1.5-6.96-.51-8.73-4.49-.47-1.06-.74-2.16-.83-3.22-.35,.32-.74,.6-1.18,.82-3.05,1.5-6.96-.51-8.73-4.49-.64-1.44-.91-2.93-.85-4.32-1.02-7.95-1.56-21.04-2.91-38.58l25.76-10.19Z" style="fill: #39b54a; stroke: #3a3632; stroke-width: 9.44px;"/>
    <path d="M696.16,969.09c8.51,16.78,16.74,33.54,19.05,39.94,.82,1.43,1.34,3.16,1.44,5.07,.28,5.35-2.87,9.98-7.03,10.36-.59,.05-1.17,0-1.74-.11,.5,1.18,.81,2.51,.89,3.94,.28,5.35-2.87,9.98-7.03,10.36-1.4,.13-2.73-.26-3.89-1.01,.12,.58,.2,1.19,.23,1.81,.28,5.35-2.87,9.98-7.03,10.36-3.46,.31-6.53-2.44-7.62-6.45-.67,4.17-3.42,7.44-6.88,7.75-4.16,.37-7.76-3.66-8.03-9.01-.03-.62-.01-1.24,.04-1.83-1.08,.95-2.36,1.57-3.75,1.69-4.16,.37-7.76-3.66-8.03-9.01-.07-1.43,.1-2.8,.47-4.06-.55,.22-1.12,.37-1.71,.42-4.16,.37-7.76-3.66-8.03-9.01-.1-1.93,.25-3.76,.93-5.34,2.34-9.58,7.48-24.82,13.68-45.55l34.05-.33Z" style="fill: #39b54a; stroke: #3a3632; stroke-width: 11.6px;"/>
    <path d="M708.68,978.86c11.14,2.52,22.17,5.16,26.06,6.56,.99,.17,2,.6,2.93,1.29,2.61,1.94,3.56,5.21,2.12,7.3-.21,.3-.45,.55-.72,.77,.74,.23,1.49,.59,2.19,1.11,2.61,1.94,3.56,5.21,2.12,7.3-.48,.7-1.18,1.18-1.98,1.43,.32,.17,.63,.37,.94,.59,2.61,1.94,3.56,5.21,2.12,7.3-1.2,1.74-3.67,2.11-5.97,1.07,1.69,1.93,2.15,4.48,.96,6.22-1.44,2.09-4.72,2.21-7.32,.27-.3-.23-.58-.47-.84-.73,.03,.87-.18,1.71-.66,2.41-1.44,2.09-4.72,2.21-7.32,.27-.7-.52-1.27-1.13-1.72-1.79-.11,.34-.26,.66-.47,.96-1.44,2.09-4.72,2.21-7.32,.27-.94-.7-1.66-1.57-2.14-2.5-3.57-4.8-8.71-13.11-16-24.04l13.03-16.05Z" style="fill: #39b54a; stroke: #3a3632; stroke-width: 7.04px;"/>
    <path d="M643.86,955.53c5.93-16.09,12.01-31.98,14.85-37.5,.45-1.43,1.28-2.86,2.49-4.11,3.4-3.5,8.45-4.28,11.27-1.73,.4,.36,.73,.78,1,1.23,.48-1.06,1.17-2.1,2.08-3.04,3.4-3.5,8.45-4.28,11.27-1.73,.95,.86,1.52,1.98,1.74,3.22,.32-.44,.67-.87,1.06-1.28,3.4-3.5,8.45-4.28,11.27-1.73,2.35,2.12,2.42,5.87,.42,9.09,3.2-2.14,7.09-2.33,9.44-.21,2.83,2.55,2.37,7.45-1.03,10.95-.4,.41-.82,.78-1.25,1.11,1.3,.13,2.51,.6,3.46,1.46,2.83,2.55,2.37,7.45-1.03,10.95-.91,.94-1.93,1.67-3,2.2,.48,.23,.94,.52,1.34,.88,2.83,2.55,2.37,7.45-1.03,10.95-1.23,1.26-2.67,2.17-4.14,2.69-7.84,4.38-21.22,10.4-38.9,19.12l-21.34-22.53Z" style="fill: #39b54a; stroke: #3a3632; stroke-width: 10.57px;"/>
    <path d="M582.5,1050.09c9.47,15.8,18.66,31.6,21.36,37.69,.9,1.34,1.53,3,1.76,4.85,.64,5.2-2.11,9.95-6.15,10.6-.58,.09-1.15,.09-1.7,.01,.57,1.12,.97,2.4,1.14,3.79,.64,5.2-2.11,9.95-6.15,10.6-1.36,.22-2.68-.06-3.87-.72,.16,.56,.28,1.14,.35,1.75,.64,5.2-2.11,9.95-6.15,10.6-3.36,.54-6.54-1.93-7.89-5.77-.36,4.12-2.83,7.5-6.19,8.04-4.04,.65-7.83-3.04-8.47-8.24-.07-.61-.1-1.21-.08-1.79-.99,1.01-2.19,1.69-3.55,1.91-4.04,.65-7.83-3.04-8.47-8.24-.17-1.39-.09-2.74,.18-4-.52,.25-1.06,.43-1.64,.53-4.04,.65-7.83-3.04-8.47-8.24-.23-1.88-.02-3.69,.54-5.28,1.62-9.51,5.6-24.76,10.22-45.42l33.23-2.67Z" style="fill: #39b54a; stroke: #3a3632; stroke-width: 11.36px;"/>
    <path d="M542.72,1118.23c13.96,17.76,27.6,35.56,31.82,42.55,1.3,1.49,2.32,3.41,2.89,5.63,1.58,6.23-1.03,12.43-5.84,13.85-.69,.2-1.38,.28-2.07,.28,.86,1.27,1.55,2.77,1.97,4.43,1.58,6.23-1.03,12.43-5.84,13.85-1.62,.48-3.27,.34-4.82-.27,.28,.66,.51,1.35,.7,2.08,1.58,6.23-1.03,12.43-5.84,13.85-4,1.18-8.26-1.33-10.49-5.8,.19,5.07-2.28,9.56-6.28,10.74-4.81,1.42-9.99-2.48-11.58-8.71-.18-.73-.31-1.45-.38-2.17-1.04,1.38-2.4,2.4-4.02,2.88-4.81,1.42-9.99-2.48-11.58-8.72-.42-1.66-.54-3.32-.4-4.89-.59,.38-1.23,.69-1.92,.9-4.81,1.42-9.99-2.48-11.58-8.71-.57-2.25-.59-4.49-.16-6.5,.5-11.82,2.98-30.99,5.41-56.84l40.01-8.39Z" style="fill: #39b54a; stroke: #3a3632; stroke-width: 13.93px;"/>
    <path d="M522.73,1228.11c13.92,8.56,27.62,17.22,32.24,20.92,1.25,.69,2.43,1.73,3.37,3.1,2.63,3.83,2.41,8.69-.5,10.86-.42,.31-.87,.54-1.34,.71,.9,.65,1.74,1.49,2.45,2.51,2.63,3.83,2.41,8.69-.5,10.86-.98,.73-2.13,1.05-3.34,1.02,.35,.38,.69,.79,.99,1.23,2.63,3.83,2.41,8.69-.5,10.86-2.42,1.8-5.94,1.16-8.57-1.31,1.4,3.39,.85,7.06-1.58,8.86-2.91,2.17-7.4,.81-10.04-3.02-.31-.45-.57-.91-.8-1.38-.36,1.19-1.03,2.23-2.01,2.96-2.91,2.16-7.4,.81-10.04-3.02-.7-1.02-1.2-2.12-1.5-3.22-.31,.41-.66,.78-1.08,1.09-2.91,2.17-7.4,.81-10.04-3.02-.95-1.38-1.52-2.9-1.74-4.37-2.62-8.15-5.73-21.77-10.55-39.93l25.06-15.71Z" style="fill: #39b54a; stroke: #3a3632; stroke-width: 10.07px;"/>
    <path d="M483.45,1268.68c20.43-.38,40.72-.5,48.07,.28,1.79-.12,3.73,.18,5.64,.99,5.36,2.26,8.4,7.53,6.8,11.77-.23,.61-.55,1.15-.93,1.65,1.39,.07,2.84,.39,4.27,1,5.36,2.26,8.4,7.53,6.8,11.77-.54,1.43-1.54,2.55-2.83,3.33,.63,.16,1.25,.37,1.88,.63,5.36,2.26,8.4,7.53,6.8,11.77-1.33,3.53-5.47,5.23-9.91,4.4,3.76,2.63,5.65,6.86,4.32,10.4-1.6,4.24-7.25,5.85-12.61,3.59-.62-.26-1.21-.57-1.77-.91,.42,1.5,.42,3.05-.12,4.47-1.6,4.24-7.25,5.85-12.61,3.59-1.43-.6-2.69-1.43-3.75-2.38-.05,.64-.17,1.26-.4,1.87-1.6,4.24-7.25,5.85-12.61,3.59-1.93-.81-3.56-2.02-4.78-3.43-8.26-6.82-20.73-19.06-38.06-34.93l15.79-33.45Z" style="fill: #39b54a; stroke: #3a3632; stroke-width: 12.6px;"/>
    <path d="M558.78,1412.73c-.24,11.93-.63,23.76-1.25,28.03,.03,1.04-.19,2.17-.7,3.27-1.44,3.08-4.58,4.73-7.02,3.7-.35-.15-.66-.35-.94-.58-.08,.81-.29,1.65-.68,2.47-1.44,3.08-4.58,4.73-7.02,3.7-.82-.35-1.45-.96-1.88-1.72-.11,.36-.24,.72-.41,1.08-1.44,3.08-4.58,4.73-7.02,3.7-2.03-.86-2.93-3.31-2.34-5.88-1.62,2.13-4.13,3.14-6.16,2.28-2.44-1.03-3.25-4.36-1.81-7.44,.17-.36,.36-.7,.57-1.01-.89,.21-1.79,.18-2.61-.17-2.44-1.03-3.25-4.36-1.81-7.44,.38-.82,.89-1.54,1.47-2.13-.37-.04-.73-.13-1.08-.28-2.44-1.03-3.25-4.36-1.81-7.44,.52-1.11,1.26-2.03,2.11-2.71,4.16-4.66,11.59-11.66,21.24-21.41l19.15,9.97Z" style="fill: #39b54a; stroke: #3a3632; stroke-width: 7.36px;"/>
    <path d="M591.49,1356.3c8.03-12.35,16.15-24.5,19.58-28.58,.65-1.11,1.62-2.15,2.87-2.96,3.51-2.29,7.89-1.97,9.77,.7,.27,.38,.47,.79,.61,1.22,.61-.8,1.38-1.54,2.32-2.15,3.51-2.29,7.89-1.97,9.77,.7,.63,.9,.9,1.95,.85,3.03,.35-.31,.72-.6,1.13-.87,3.51-2.29,7.89-1.97,9.77,.7,1.57,2.22,.91,5.38-1.38,7.69,3.09-1.18,6.38-.6,7.95,1.62,1.89,2.67,.57,6.69-2.95,8.98-.41,.27-.83,.49-1.26,.69,1.07,.36,1.99,.98,2.62,1.88,1.88,2.67,.57,6.69-2.95,8.98-.94,.61-1.94,1.03-2.94,1.27,.36,.28,.69,.61,.96,.99,1.89,2.67,.57,6.69-2.95,8.98-1.27,.82-2.65,1.31-3.98,1.47-7.4,2.17-19.75,4.67-36.22,8.6l-13.58-22.94Z" style="fill: #39b54a; stroke: #3a3632; stroke-width: 9.08px;"/>
    <path d="M646.45,1270.88c6.3,16.41,12.35,32.77,13.88,38.95,.62,1.41,.95,3.07,.86,4.85-.25,5-3.62,9-7.52,8.95-.56,0-1.09-.11-1.6-.27,.35,1.15,.51,2.41,.45,3.75-.25,5-3.62,9-7.52,8.95-1.31-.02-2.51-.5-3.52-1.31,.05,.55,.07,1.12,.04,1.7-.25,5-3.62,9-7.52,8.95-3.25-.04-5.83-2.89-6.47-6.72-1.02,3.81-3.89,6.59-7.14,6.54-3.9-.05-6.86-4.14-6.61-9.14,.03-.58,.11-1.15,.22-1.7-1.09,.78-2.34,1.23-3.65,1.22-3.9-.05-6.86-4.14-6.61-9.14,.07-1.33,.36-2.59,.83-3.73-.53,.15-1.07,.23-1.63,.23-3.9-.05-6.86-4.14-6.61-9.14,.09-1.8,.59-3.47,1.37-4.87,3.09-8.68,9.33-22.35,17.07-41.02l31.68,2.95Z" style="fill: #39b54a; stroke: #3a3632; stroke-width: 10.84px;"/>
    <path d="M630.79,1227.57c-.3,21.76-.86,43.35-1.94,51.15,.07,1.9-.32,3.96-1.24,5.97-2.59,5.63-8.3,8.69-12.76,6.84-.64-.26-1.21-.62-1.72-1.05-.13,1.48-.52,3.01-1.21,4.51-2.59,5.63-8.3,8.69-12.76,6.84-1.5-.62-2.66-1.73-3.45-3.12-.19,.66-.43,1.32-.73,1.98-2.59,5.63-8.3,8.69-12.76,6.84-3.71-1.54-5.38-6-4.34-10.7-2.92,3.91-7.5,5.78-11.21,4.24-4.46-1.85-5.98-7.91-3.39-13.54,.3-.66,.65-1.27,1.03-1.86-1.62,.4-3.26,.34-4.75-.28-4.46-1.85-5.98-7.91-3.39-13.54,.69-1.5,1.61-2.82,2.66-3.91-.68-.07-1.34-.22-1.98-.49-4.46-1.85-5.98-7.91-3.39-13.54,.93-2.03,2.28-3.72,3.82-4.97,7.54-8.56,21-21.41,38.48-39.31l35.06,17.95Z" style="fill: #39b54a; stroke: #3a3632; stroke-width: 13.42px;"/>
    <path d="M600.34,1215.35c15.87-8.4,31.72-16.53,37.79-18.84,1.35-.8,2.99-1.33,4.81-1.46,5.1-.35,9.57,2.57,10,6.53,.06,.57,.03,1.12-.08,1.66,1.12-.49,2.38-.82,3.74-.91,5.1-.35,9.57,2.57,10,6.53,.14,1.33-.2,2.61-.9,3.73,.55-.12,1.13-.21,1.72-.25,5.1-.35,9.57,2.57,10,6.53,.35,3.3-2.22,6.27-6.02,7.38,3.99,.57,7.15,3.14,7.51,6.44,.43,3.96-3.36,7.46-8.46,7.82-.59,.04-1.18,.03-1.75-.01,.93,1.01,1.54,2.22,1.68,3.55,.42,3.96-3.36,7.46-8.46,7.82-1.36,.09-2.67-.05-3.88-.38,.22,.52,.37,1.06,.43,1.62,.43,3.96-3.36,7.46-8.46,7.82-1.84,.13-3.59-.18-5.11-.8-9.18-2.07-23.81-6.73-43.68-12.3l-.88-32.48Z" style="fill: #39b54a; stroke: #3a3632; stroke-width: 11.07px;"/>
    <path d="M651.15,1216.85c16.33-8.11,32.65-15.95,38.87-18.14,1.39-.78,3.08-1.28,4.92-1.36,5.18-.23,9.65,2.86,9.98,6.9,.05,.58,0,1.14-.12,1.68,1.15-.47,2.44-.77,3.83-.83,5.18-.23,9.65,2.86,9.98,6.9,.11,1.36-.27,2.64-1.01,3.77,.57-.11,1.15-.18,1.76-.21,5.18-.23,9.65,2.86,9.98,6.9,.27,3.36-2.41,6.31-6.31,7.33,4.04,.68,7.18,3.38,7.45,6.73,.33,4.03-3.61,7.49-8.79,7.71-.6,.03-1.2,0-1.78-.06,.91,1.05,1.5,2.3,1.61,3.65,.33,4.03-3.61,7.49-8.79,7.71-1.38,.06-2.71-.12-3.93-.49,.21,.53,.35,1.08,.39,1.66,.33,4.03-3.61,7.49-8.79,7.71-1.87,.08-3.64-.27-5.17-.94-9.26-2.34-24-7.46-44.03-13.64l-.04-33Z" style="fill: #39b54a; stroke: #3a3632; stroke-width: 11.24px;"/>
    <path d="M679.4,1181.65c14.03-9.33,28.07-18.41,33.52-21.14,1.19-.88,2.67-1.53,4.35-1.81,4.73-.81,9.18,1.5,9.95,5.16,.11,.52,.13,1.04,.08,1.56,1-.56,2.15-.99,3.41-1.2,4.73-.81,9.18,1.5,9.95,5.16,.26,1.23,.06,2.45-.49,3.57,.51-.17,1.03-.3,1.58-.4,4.73-.81,9.18,1.5,9.95,5.16,.64,3.05-1.48,6.06-4.93,7.45,3.78,.16,6.97,2.26,7.61,5.31,.77,3.66-2.44,7.28-7.16,8.09-.55,.09-1.1,.14-1.64,.15,.96,.86,1.64,1.93,1.9,3.16,.77,3.66-2.44,7.28-7.16,8.09-1.26,.22-2.5,.2-3.66,0,.25,.46,.44,.95,.55,1.48,.77,3.66-2.44,7.28-7.16,8.09-1.7,.29-3.37,.17-4.84-.26-8.76-1.07-22.86-4.05-41.94-7.38l-3.87-30.25Z" style="fill: #39b54a; stroke: #3a3632; stroke-width: 10.39px;"/>
    <path d="M651.5,1186.22c4.63-14.17,9.4-28.18,11.69-33.06,.34-1.26,1.02-2.52,2.03-3.65,2.84-3.15,7.2-3.99,9.74-1.87,.36,.3,.66,.65,.91,1.04,.38-.94,.95-1.86,1.71-2.71,2.84-3.15,7.2-3.99,9.74-1.87,.85,.71,1.39,1.67,1.62,2.75,.26-.39,.55-.78,.88-1.14,2.84-3.15,7.2-3.99,9.74-1.87,2.11,1.76,2.3,5.02,.66,7.88,2.71-1.96,6.08-2.25,8.2-.49,2.54,2.12,2.3,6.4-.54,9.55-.33,.37-.68,.7-1.05,1,1.14,.07,2.2,.44,3.05,1.15,2.54,2.12,2.3,6.4-.54,9.55-.76,.84-1.63,1.51-2.54,2.01,.43,.18,.83,.42,1.19,.72,2.54,2.12,2.3,6.4-.54,9.55-1.02,1.14-2.25,1.97-3.51,2.47-6.67,4.06-18.1,9.72-33.18,17.87l-19.27-18.89Z" style="fill: #39b54a; stroke: #3a3632; stroke-width: 9.19px;"/>
    <path d="M693.38,1094.5c16.83-.11,33.54-.01,39.58,.7,1.47-.08,3.07,.19,4.63,.87,4.39,1.91,6.85,6.28,5.49,9.76-.19,.5-.46,.94-.78,1.35,1.14,.08,2.33,.35,3.51,.86,4.39,1.91,6.85,6.28,5.49,9.76-.46,1.17-1.29,2.08-2.36,2.71,.51,.14,1.03,.31,1.54,.54,4.39,1.91,6.85,6.28,5.49,9.76-1.13,2.9-4.56,4.25-8.2,3.53,3.07,2.2,4.59,5.71,3.45,8.6-1.36,3.48-6.03,4.75-10.42,2.84-.51-.22-.99-.48-1.45-.77,.33,1.24,.32,2.51-.14,3.68-1.36,3.48-6.03,4.75-10.42,2.84-1.17-.51-2.2-1.2-3.06-2-.04,.52-.15,1.04-.35,1.54-1.36,3.48-6.03,4.75-10.42,2.84-1.58-.69-2.91-1.7-3.9-2.87-6.73-5.69-16.88-15.9-31-29.14l13.33-27.39Z" style="fill: #39b54a; stroke: #3a3632; stroke-width: 10.38px;"/>
    <path d="M706.39,1057.52c6.04,20.1,11.78,40.13,13.05,47.62,.61,1.73,.85,3.74,.58,5.85-.75,5.93-5.12,10.4-9.76,9.99-.66-.06-1.29-.22-1.89-.46,.31,1.4,.4,2.92,.2,4.5-.75,5.93-5.12,10.4-9.76,9.99-1.56-.14-2.94-.82-4.08-1.87,.01,.66-.01,1.34-.1,2.03-.75,5.93-5.12,10.4-9.76,9.99-3.86-.34-6.69-3.96-7.1-8.58-1.55,4.45-5.22,7.49-9.09,7.15-4.64-.41-7.8-5.55-7.05-11.47,.09-.69,.23-1.36,.41-2.01-1.37,.83-2.9,1.26-4.46,1.12-4.64-.41-7.8-5.55-7.05-11.47,.2-1.58,.66-3.06,1.32-4.37-.64,.13-1.3,.18-1.96,.12-4.64-.41-7.8-5.55-7.05-11.47,.27-2.14,1.02-4.08,2.07-5.68,4.45-10.06,13.11-25.79,24-47.32l37.46,6.35Z" style="fill: #39b54a; stroke: #3a3632; stroke-width: 12.94px;"/>
    <path d="M697.2,1026.58c21.87,3.96,43.53,8.17,51.21,10.57,1.93,.25,3.94,.99,5.8,2.26,5.23,3.55,7.35,9.83,4.74,14.01-.37,.6-.83,1.11-1.34,1.56,1.47,.38,2.94,1.03,4.34,1.98,5.23,3.55,7.35,9.83,4.74,14.01-.88,1.41-2.19,2.39-3.73,2.95,.63,.3,1.26,.66,1.87,1.07,5.23,3.55,7.35,9.83,4.74,14.01-2.18,3.48-6.95,4.41-11.51,2.58,3.45,3.6,4.56,8.53,2.38,12.01-2.62,4.18-8.98,4.69-14.21,1.14-.61-.41-1.17-.87-1.7-1.35,.13,1.69-.2,3.34-1.08,4.74-2.62,4.18-8.98,4.69-14.21,1.14-1.4-.95-2.57-2.1-3.49-3.34-.19,.67-.45,1.31-.83,1.91-2.62,4.18-8.98,4.69-14.21,1.14-1.89-1.28-3.36-2.92-4.36-4.68-7.35-9.04-18.03-24.76-33.13-45.39l23.99-32.3Z" style="fill: #39b54a; stroke: #3a3632; stroke-width: 13.71px;"/>
    <path d="M776.24,1013.76c1.76,12.91,3.35,25.75,3.41,30.46,.21,1.12,.16,2.37-.21,3.64-1.03,3.56-4.14,5.88-6.95,5.19-.4-.1-.77-.26-1.11-.47,.06,.89-.04,1.83-.31,2.78-1.03,3.56-4.14,5.88-6.95,5.18-.94-.23-1.73-.79-2.32-1.54-.05,.41-.14,.82-.26,1.24-1.03,3.56-4.14,5.88-6.95,5.19-2.34-.58-3.72-3.07-3.53-5.95-1.38,2.58-3.93,4.09-6.26,3.51-2.81-.7-4.25-4.15-3.22-7.72,.12-.42,.27-.81,.44-1.19-.92,.38-1.9,.49-2.84,.26-2.81-.7-4.25-4.15-3.22-7.72,.28-.95,.7-1.81,1.23-2.55-.41,.02-.81-.01-1.21-.11-2.81-.7-4.25-4.15-3.22-7.72,.37-1.29,1.02-2.4,1.82-3.28,3.7-5.74,10.53-14.55,19.29-26.71l22.36,7.51Z" style="fill: #39b54a; stroke: #3a3632; stroke-width: 8.04px;"/>
    <path d="M746.83,968.84c12.65-6.34,25.29-12.48,30.12-14.2,1.08-.61,2.38-1,3.82-1.07,4.02-.19,7.5,2.19,7.77,5.32,.04,.45,0,.88-.09,1.31,.89-.37,1.89-.6,2.97-.65,4.02-.19,7.5,2.19,7.77,5.32,.09,1.05-.2,2.05-.77,2.93,.44-.09,.89-.15,1.36-.17,4.02-.19,7.5,2.19,7.77,5.32,.22,2.61-1.85,4.9-4.88,5.71,3.13,.52,5.58,2.6,5.81,5.2,.27,3.13-2.78,5.82-6.8,6.01-.47,.02-.93,0-1.38-.04,.71,.81,1.17,1.78,1.26,2.83,.27,3.13-2.78,5.82-6.8,6.01-1.07,.05-2.11-.09-3.05-.37,.16,.41,.27,.84,.31,1.29,.27,3.13-2.78,5.82-6.8,6.01-1.45,.07-2.83-.2-4.01-.72-7.2-1.79-18.65-5.71-34.22-10.45l-.13-25.62Z" style="fill: #39b54a; stroke: #3a3632; stroke-width: 8.73px;"/>
    <path d="M773.88,923.9c15.6,9.97,30.96,20.07,36.11,24.34,1.41,.81,2.72,2.01,3.75,3.58,2.91,4.39,2.56,9.9-.78,12.29-.48,.34-.99,.59-1.53,.78,1.01,.75,1.94,1.72,2.72,2.9,2.91,4.39,2.56,9.9-.78,12.29-1.12,.8-2.44,1.15-3.8,1.09,.39,.43,.76,.91,1.1,1.42,2.91,4.39,2.56,9.9-.78,12.29-2.78,1.99-6.75,1.2-9.68-1.66,1.52,3.87,.82,8.01-1.96,10.01-3.34,2.4-8.4,.77-11.31-3.62-.34-.51-.63-1.04-.88-1.58-.44,1.35-1.21,2.51-2.34,3.31-3.34,2.39-8.4,.77-11.31-3.62-.78-1.17-1.31-2.43-1.63-3.68-.35,.46-.76,.87-1.24,1.21-3.34,2.4-8.4,.77-11.31-3.62-1.05-1.59-1.67-3.31-1.88-4.99-2.8-9.29-6.06-24.79-11.16-45.45l28.7-17.3Z" style="fill: #39b54a; stroke: #3a3632; stroke-width: 11.42px;"/>
    <path d="M809.94,871.62c6.04,13.35,11.87,26.67,13.44,31.73,.59,1.14,.94,2.51,.95,3.99,.03,4.17-2.58,7.67-5.83,7.81-.46,.02-.91-.03-1.35-.15,.34,.94,.55,1.98,.55,3.1,.03,4.17-2.58,7.67-5.83,7.81-1.09,.05-2.11-.29-2.99-.92,.07,.46,.11,.93,.12,1.42,.03,4.17-2.58,7.67-5.83,7.81-2.7,.12-4.99-2.12-5.71-5.28-.66,3.22-2.92,5.67-5.62,5.79-3.25,.15-5.91-3.11-5.94-7.28,0-.49,.03-.96,.1-1.43-.87,.7-1.89,1.14-2.98,1.19-3.25,.15-5.91-3.11-5.94-7.28,0-1.11,.18-2.18,.51-3.14-.43,.15-.88,.25-1.34,.27-3.25,.15-5.91-3.11-5.94-7.28-.01-1.5,.32-2.92,.91-4.12,2.15-7.37,6.68-19.05,12.22-34.96l26.5,.92Z" style="fill: #39b54a; stroke: #3a3632; stroke-width: 9.03px;"/>
    <path d="M841.62,846.47c8.6,13.76,16.96,27.53,19.44,32.86,.81,1.17,1.4,2.61,1.63,4.24,.65,4.57-1.7,8.8-5.24,9.44-.51,.09-1.01,.1-1.5,.04,.52,.98,.89,2.1,1.06,3.32,.65,4.57-1.7,8.8-5.24,9.44-1.19,.22-2.36,0-3.42-.57,.15,.49,.26,1,.34,1.54,.65,4.57-1.7,8.8-5.24,9.44-2.95,.53-5.8-1.59-7.04-4.95-.25,3.63-2.37,6.65-5.32,7.19-3.55,.64-6.95-2.55-7.6-7.12-.08-.53-.11-1.06-.1-1.58-.85,.9-1.9,1.53-3.09,1.74-3.55,.64-6.95-2.55-7.6-7.12-.17-1.22-.13-2.42,.09-3.53-.45,.23-.93,.4-1.44,.49-3.55,.64-6.95-2.55-7.6-7.12-.23-1.65-.07-3.25,.39-4.66,1.27-8.41,4.52-21.9,8.25-40.19l29.23-2.9Z" style="fill: #39b54a; stroke: #3a3632; stroke-width: 10.01px;"/>
    <path d="M831.1,835.57c12.56-17.93,25.24-35.56,30.55-41.44,1.02-1.62,2.51-3.11,4.41-4.26,5.33-3.22,11.82-2.53,14.48,1.54,.38,.58,.65,1.2,.84,1.84,.94-1.16,2.13-2.21,3.56-3.07,5.33-3.22,11.82-2.53,14.48,1.54,.89,1.37,1.23,2.94,1.1,4.55,.53-.44,1.11-.85,1.73-1.23,5.33-3.22,11.82-2.53,14.48,1.54,2.22,3.38,1.08,8.03-2.44,11.35,4.64-1.6,9.51-.57,11.72,2.82,2.66,4.06,.5,9.97-4.84,13.18-.62,.37-1.26,.69-1.91,.96,1.57,.58,2.9,1.56,3.79,2.92,2.66,4.06,.5,9.97-4.84,13.18-1.42,.86-2.93,1.43-4.43,1.74,.52,.44,.99,.94,1.37,1.53,2.66,4.06,.5,9.97-4.84,13.18-1.92,1.16-4,1.8-5.99,1.97-11.11,2.85-29.58,5.92-54.24,10.92l-19-34.76Z" style="fill: #39b54a; stroke: #3a3632; stroke-width: 13.5px;"/>
  </g>
</svg>