<svg id="Layer_1" data-name="Layer 1" xmlns="http://www.w3.org/2000/svg" viewBox="0 0 1797.07 2000"><path d="M1077.66,1493.58H1505.4a49.47,49.47,0,0,1,49.47,49.48h0a49.47,49.47,0,0,1-49.47,49.48H1077.66" style="fill:#fff;stroke:#231f20;stroke-miterlimit:10;stroke-width:24px"/><path d="M565,1975.15c-243.83,0-530.12-129.73-530.11-424.43,0-113.57,237.34-205.63,530.11-205.63s530.1,92.06,530.11,205.63C1095.13,1845.42,808.84,1975.15,565,1975.15Z" style="fill:#fff;stroke:#231f20;stroke-miterlimit:10;stroke-width:24px"/><ellipse cx="565.02" cy="1790.79" rx="14.52" ry="14.47" style="fill:#929497"/><ellipse cx="565.02" cy="1848.42" rx="14.52" ry="14.47" style="fill:#929497"/><ellipse cx="565.02" cy="1906.06" rx="14.52" ry="14.47" style="fill:#929497"/><path d="M648.77,1890.5c6.73,4.81,8.72,14.88,4.08,22.28s-13.78,9-20.17,3.72a17.4,17.4,0,0,1-3.76-22A13.64,13.64,0,0,1,648.77,1890.5Z" style="fill:#929497"/><path d="M677.23,1836.18c7.1,4,9.95,13.87,6,21.71s-12.79,10.47-19.72,5.94a17.15,17.15,0,0,1-5.72-21.53C661.52,1834.92,670.05,1832.09,677.23,1836.18Z" style="fill:#929497"/><path d="M700.07,1778.71c7.65,2.9,11.53,12.31,8.47,20.82s-11.71,12.18-19,8.48a16.91,16.91,0,0,1-7.91-20.58A14.19,14.19,0,0,1,700.07,1778.71Z" style="fill:#929497"/><path d="M745.74,1880.67c5.69,5.58,6.18,14.49.72,19.62s-14.23,4.31-19.53-1.82-5.43-14.67-.42-19.29S740,1875,745.74,1880.67Z" style="fill:#929497"/><path d="M779.92,1842c6.35,5,7.64,13.61,3,19.35s-13.65,5.81-19.6.5-7.07-13.8-2.69-19.13S773.64,1837.12,779.92,1842Z" style="fill:#929497"/><path d="M809.53,1799.81c6.87,4.15,9.34,12.76,5.16,18.93s-12.88,7.36-19.42,2.7-8.54-12.94-4.83-18.71C794.31,1797.06,802.67,1795.66,809.53,1799.81Z" style="fill:#929497"/><path d="M832.76,1753.82c7.54,2.73,11.28,10.76,8.3,17.91-3.28,6.89-11.77,9.43-18.88,5.73s-10.51-11.6-7.62-17.61C817.05,1753.77,825.22,1751.08,832.76,1753.82Z" style="fill:#929497"/><path d="M872,1843.14a13.64,13.64,0,1,1-21.08,17.17c-4.87-6.35-4.21-15.19,1.49-19.72S866.72,1837.09,872,1843.14Z" style="fill:#929497"/><path d="M910.38,1805a13.64,13.64,0,1,1-18.56,19.86c-5.53-5.69-6.09-14.55-1.12-19.67S904.23,1799.8,910.38,1805Z" style="fill:#929497"/><path d="M941.75,1761c7,4,9.53,12.85,5.1,19.47-4.21,6.77-13.37,8.07-19.84,3.36s-8.27-13.12-4.56-19.13C926.39,1758.83,934.78,1757,941.75,1761Z" style="fill:#929497"/><path d="M964.24,1711.82c7.52,2.55,11.79,10.81,8.76,18.16a13.82,13.82,0,0,1-18.78,7.1c-7.26-3.4-10.94-11.43-8.18-17.93S956.57,1709.21,964.24,1711.82Z" style="fill:#929497"/><path d="M480.05,1890.5a13.64,13.64,0,0,1,19.85,4,17.4,17.4,0,0,1-3.76,22c-6.39,5.28-15.66,3.75-20.17-3.72S473.32,1895.31,480.05,1890.5Z" style="fill:#929497"/><path d="M451.59,1836.18c7.18-4.09,15.71-1.26,19.42,6.12a17.15,17.15,0,0,1-5.72,21.53c-6.93,4.53-15.84,1.93-19.72-5.94S444.49,1840.22,451.59,1836.18Z" style="fill:#929497"/><path d="M428.75,1778.71a14.19,14.19,0,0,1,18.47,8.72,16.91,16.91,0,0,1-7.91,20.58c-7.32,3.7-15.89,0-19-8.48S421.1,1781.61,428.75,1778.71Z" style="fill:#929497"/><path d="M383.08,1880.67c5.76-5.65,14.26-6.16,19.23-1.49s4.78,13.29-.42,19.29-14,6.91-19.53,1.82S377.39,1886.25,383.08,1880.67Z" style="fill:#929497"/><path d="M348.9,1842c6.28-4.92,15-4.62,19.34.72s3.33,13.76-2.69,19.13-14.89,5.22-19.6-.5S342.55,1847,348.9,1842Z" style="fill:#929497"/><path d="M319.29,1799.81c6.86-4.15,15.22-2.75,19.09,2.92,3.71,5.77,1.7,14.06-4.83,18.71s-15.37,3.56-19.42-2.7S312.42,1804,319.29,1799.81Z" style="fill:#929497"/><path d="M296.06,1753.82c7.54-2.74,15.71,0,18.2,6,2.89,6-.5,13.9-7.62,17.61s-15.6,1.16-18.88-5.73C284.78,1764.58,288.52,1756.55,296.06,1753.82Z" style="fill:#929497"/><path d="M256.83,1843.14c5.26-6.05,14-7.19,19.59-2.55s6.36,13.37,1.49,19.72a13.64,13.64,0,1,1-21.08-17.17Z" style="fill:#929497"/><path d="M218.44,1805c6.15-5.21,14.84-5,19.68.19s4.41,14-1.12,19.67A13.64,13.64,0,1,1,218.44,1805Z" style="fill:#929497"/><path d="M187.07,1761c7-4,15.36-2.15,19.3,3.7,3.71,6,1.94,14.39-4.56,19.13s-15.63,3.41-19.84-3.36C177.54,1773.83,180.09,1764.94,187.07,1761Z" style="fill:#929497"/><path d="M164.58,1711.82c7.67-2.61,15.5.81,18.2,7.33s-.92,14.53-8.18,17.93a13.82,13.82,0,0,1-18.78-7.1C152.79,1722.63,157.06,1714.37,164.58,1711.82Z" style="fill:#929497"/><path d="M565,1416.71a9.43,9.43,0,1,1,9.68-9.43A9.56,9.56,0,0,1,565,1416.71Z" style="fill:#929497"/><path d="M565,1454.25a9.43,9.43,0,1,1,9.68-9.42A9.56,9.56,0,0,1,565,1454.25Z" style="fill:#929497"/><path d="M565,1491.8a9.43,9.43,0,1,1,9.68-9.43A9.56,9.56,0,0,1,565,1491.8Z" style="fill:#929497"/><path d="M565,1529.34a9.43,9.43,0,1,1,9.68-9.42A9.56,9.56,0,0,1,565,1529.34Z" style="fill:#929497"/><path d="M565,1566.89a9.43,9.43,0,1,1,9.68-9.43A9.56,9.56,0,0,1,565,1566.89Z" style="fill:#929497"/><path d="M565,1604.43a9.43,9.43,0,1,1,9.68-9.42A9.56,9.56,0,0,1,565,1604.43Z" style="fill:#929497"/><path d="M565,1642a9.43,9.43,0,1,1,9.68-9.43A9.56,9.56,0,0,1,565,1642Z" style="fill:#929497"/><path d="M565,1679.52a9.43,9.43,0,1,1,9.68-9.43A9.56,9.56,0,0,1,565,1679.52Z" style="fill:#929497"/><path d="M634.53,1663.83c5,2,7.13,7.88,4.85,13.08-2.49,5.19-8.4,7.34-13.16,4.77a9.85,9.85,0,0,1,8.31-17.85Z" style="fill:#929497"/><path d="M648,1627a9.86,9.86,0,1,1-12.28,6.21A9.75,9.75,0,0,1,648,1627Z" style="fill:#929497"/><path d="M659.36,1589.41a9.85,9.85,0,1,1-12,6.75A9.73,9.73,0,0,1,659.36,1589.41Z" style="fill:#929497"/><path d="M669.54,1551.5a9.86,9.86,0,1,1-11.85,7.09A9.75,9.75,0,0,1,669.54,1551.5Z" style="fill:#929497"/><path d="M678.9,1513.39a9.86,9.86,0,1,1-11.7,7.31A9.74,9.74,0,0,1,678.9,1513.39Z" style="fill:#929497"/><path d="M687.66,1475.13a9.86,9.86,0,1,1-11.59,7.49A9.76,9.76,0,0,1,687.66,1475.13Z" style="fill:#929497"/><path d="M695.93,1436.77a9.85,9.85,0,1,1-11.5,7.63A9.75,9.75,0,0,1,695.93,1436.77Z" style="fill:#929497"/><path d="M703.78,1398.31a9.86,9.86,0,1,1-11.42,7.75A9.76,9.76,0,0,1,703.78,1398.31Z" style="fill:#929497"/><path d="M732.54,1661.08a9.34,9.34,0,1,1-11.72,14.49c-3.88-3.63-4.48-9.38-1.49-13.15S728.17,1657.94,732.54,1661.08Z" style="fill:#929497"/><path d="M752.49,1629.77a9.34,9.34,0,1,1-9.59,16c-4.47-2.86-6-8.64-3.42-12.92A9.6,9.6,0,0,1,752.49,1629.77Z" style="fill:#929497"/><path d="M769.83,1596.94a9.33,9.33,0,1,1-8.47,16.61,9.33,9.33,0,1,1,8.47-16.61Z" style="fill:#929497"/><path d="M785.47,1563.26a9.33,9.33,0,1,1-7.68,17,9.33,9.33,0,1,1,7.68-17Z" style="fill:#929497"/><path d="M799.83,1529a9.33,9.33,0,1,1-7.06,17.25,9.33,9.33,0,1,1,7.06-17.25Z" style="fill:#929497"/><path d="M813.06,1494.3a9.33,9.33,0,1,1-12.29,5.38A9.48,9.48,0,0,1,813.06,1494.3Z" style="fill:#929497"/><path d="M825.13,1459.18A9.33,9.33,0,1,1,813,1465,9.47,9.47,0,0,1,825.13,1459.18Z" style="fill:#929497"/><path d="M835.59,1423.55a9.33,9.33,0,1,1-5,18,9.33,9.33,0,1,1,5-18Z" style="fill:#929497"/><path d="M859.4,1627.29a9.38,9.38,0,1,1-13.29-1.81A9.5,9.5,0,0,1,859.4,1627.29Z" style="fill:#929497"/><path d="M887.51,1602.71a9.38,9.38,0,1,1-13.84,12.65c-3.5-4-3.28-10,.48-13.39A9.63,9.63,0,0,1,887.51,1602.71Z" style="fill:#929497"/><path d="M913.11,1575.55a9.38,9.38,0,1,1-12.48,14,9.76,9.76,0,0,1-.93-13.37C903,1572.43,909,1572.18,913.11,1575.55Z" style="fill:#929497"/><path d="M935.18,1545.46a9.38,9.38,0,1,1-10.62,15.44c-4.29-3.2-5.4-9.06-2.48-13.08A9.54,9.54,0,0,1,935.18,1545.46Z" style="fill:#929497"/><path d="M953.24,1512.8a9.4,9.4,0,0,1,4.47,12.8,9.31,9.31,0,0,1-13,3.89,9.78,9.78,0,0,1-4.25-12.67C942.65,1512.36,948.38,1510.57,953.24,1512.8Z" style="fill:#929497"/><path d="M966.85,1478.05a9.38,9.38,0,1,1-6.26,17.68c-4.92-2-7.64-7.38-6-12.06S961.82,1476.48,966.85,1478.05Z" style="fill:#929497"/><path d="M494.29,1663.83a9.85,9.85,0,0,1,8.31,17.85c-4.76,2.57-10.67.42-13.16-4.77C487.16,1671.71,489.3,1665.87,494.29,1663.83Z" style="fill:#929497"/><path d="M480.84,1627a9.86,9.86,0,1,1-6,12.49A9.8,9.8,0,0,1,480.84,1627Z" style="fill:#929497"/><path d="M469.46,1589.41a9.85,9.85,0,1,1-6.56,12.18A9.8,9.8,0,0,1,469.46,1589.41Z" style="fill:#929497"/><path d="M459.28,1551.5a9.85,9.85,0,1,1-6.89,12A9.8,9.8,0,0,1,459.28,1551.5Z" style="fill:#929497"/><path d="M449.92,1513.39a9.86,9.86,0,1,1-7.12,11.85A9.78,9.78,0,0,1,449.92,1513.39Z" style="fill:#929497"/><path d="M441.16,1475.13a9.86,9.86,0,1,1-7.3,11.75A9.79,9.79,0,0,1,441.16,1475.13Z" style="fill:#929497"/><path d="M432.89,1436.77a9.85,9.85,0,1,1-7.44,11.65A9.77,9.77,0,0,1,432.89,1436.77Z" style="fill:#929497"/><path d="M425,1398.31a9.86,9.86,0,1,1-7.56,11.57A9.78,9.78,0,0,1,425,1398.31Z" style="fill:#929497"/><path d="M396.27,1661.08c4.37-3.14,10.19-2.41,13.22,1.34s2.39,9.52-1.49,13.15a9.34,9.34,0,1,1-11.73-14.49Z" style="fill:#929497"/><path d="M376.33,1629.77a9.6,9.6,0,0,1,13,3.08c2.59,4.28,1.05,10.06-3.42,12.92a9.34,9.34,0,1,1-9.59-16Z" style="fill:#929497"/><path d="M359,1596.94a9.33,9.33,0,1,1,8.47,16.61,9.33,9.33,0,1,1-8.47-16.61Z" style="fill:#929497"/><path d="M343.35,1563.26a9.33,9.33,0,1,1,7.68,17,9.33,9.33,0,1,1-7.68-17Z" style="fill:#929497"/><path d="M329,1529a9.33,9.33,0,1,1-5.47,12.31A9.46,9.46,0,0,1,329,1529Z" style="fill:#929497"/><path d="M315.76,1494.3a9.33,9.33,0,1,1-5.87,12.13A9.54,9.54,0,0,1,315.76,1494.3Z" style="fill:#929497"/><path d="M303.69,1459.18a9.33,9.33,0,1,1-6.28,11.92A9.55,9.55,0,0,1,303.69,1459.18Z" style="fill:#929497"/><path d="M293.23,1423.55a9.33,9.33,0,1,1,5,18,9.33,9.33,0,1,1-5-18Z" style="fill:#929497"/><path d="M269.42,1627.29a9.38,9.38,0,1,1,1.39,13.47A9.55,9.55,0,0,1,269.42,1627.29Z" style="fill:#929497"/><path d="M241.31,1602.71a9.63,9.63,0,0,1,13.36-.74c3.76,3.35,4,9.35.48,13.39a9.38,9.38,0,1,1-13.84-12.65Z" style="fill:#929497"/><path d="M215.71,1575.55c4.07-3.37,10.1-3.12,13.41.62a9.76,9.76,0,0,1-.93,13.37,9.38,9.38,0,1,1-12.48-14Z" style="fill:#929497"/><path d="M193.64,1545.46a9.54,9.54,0,0,1,13.1,2.36c2.92,4,1.81,9.88-2.48,13.08a9.38,9.38,0,1,1-10.62-15.44Z" style="fill:#929497"/><path d="M175.58,1512.8c4.86-2.23,10.59-.44,12.79,4a9.78,9.78,0,0,1-4.25,12.67,9.31,9.31,0,0,1-13-3.89A9.4,9.4,0,0,1,175.58,1512.8Z" style="fill:#929497"/><path d="M162,1478.05c5-1.57,10.57.92,12.22,5.62s-1,10.1-6,12.06a9.38,9.38,0,1,1-6.26-17.68Z" style="fill:#929497"/><path d="M1095.13,1546.68c0,97.63-237.34,176.77-530.11,176.77S34.91,1644.31,34.91,1546.68" style="fill:none;stroke:#231f20;stroke-miterlimit:10;stroke-width:24px"/><path d="M854.18,891c-101.64-20.3-305,31.07-305,261.39v85.35" style="fill:none;stroke:#231f20;stroke-linecap:round;stroke-linejoin:round;stroke-width:24px"/><polyline points="612.46 1186.63 549.15 1249.95 485.83 1186.63" style="fill:none;stroke:#231f20;stroke-linecap:round;stroke-linejoin:round;stroke-width:24px"/><g id="layer3"><path id="path916" d="M1348.33,325l374,270.8a96,96,0,0,1,21.7,134c-.07.11-.15.21-.23.32L1296.5,1347.8a96,96,0,0,1-134,21.75l-.35-.25-374-270.79Z" style="fill:#fff;stroke:#221f1f;stroke-linecap:round;stroke-linejoin:round;stroke-width:24px"/></g><path d="M1719.39,84,1504.12,361.52a42.77,42.77,0,0,0-2.69,48.26l28.1,46.4-123.08-89.11L1637.64,24.85Z" style="fill:#fff;stroke:#221f1f;stroke-linecap:round;stroke-linejoin:round;stroke-width:24px"/></svg>