<svg xmlns="http://www.w3.org/2000/svg" height="1924.02" width="1534.59"  xmlns:v="https://vecta.io/nano"><g fill="#fff" stroke="#231f20" stroke-width="24"><g stroke-miterlimit="10"><path d="M1194.42 1112.43v707.73a91.66 91.66 0 0 1-91.86 91.86h-901a91.66 91.66 0 0 1-91.86-91.86v-707.73z"/><path d="M70.47 1112.17A58.35 58.35 0 0 0 12 1170.63v53.73a58.35 58.35 0 0 0 58.47 58.46h39.18v-170.4h31.93l-4.75-.24zm1163.13.01a58.34 58.34 0 0 1 58.47 58.46v53.72a58.34 58.34 0 0 1-58.47 58.46h-39.18v-170.4h-31.93l4.75-.24z"/></g><circle r="146.85" cy="1401.89" cx="652.04"/></g><g stroke-linecap="round"><path d="M652.04 1401.9v-99.28" fill="none" stroke="#231f20" stroke-width="24" stroke-miterlimit="10"/><path d="M541.05 1075.43s7.62-397.66 389.3-478l-102.8 102.4C639.17 798.7 686 1081.43 686 1081.43" fill="#fff" stroke="#231f20" stroke-width="24" stroke-linejoin="round"/></g><path d="M1271.7 109.16c-33.66 27.54-59.92 57.1-92.13 99.2L1031 408.43l-233.2 322.9c61.06 24.3 99.73 24.17 135.7 20.68 45.85-4.44 81.24-46.1 109.37-84.23s45.94-69.15 49.35-92.77c3.4-23.43-7.38-67.95-13-88.5s-15.2-39.08-5.93-51.63l134.64-203.72c44-55.52 59.56-69.93 93.86-97.75 94.84-76.93 130.67-63 191.2-76.92l29.6-44.5c-121.74 23.3-155.03 18.74-250.88 97.16z" fill="#231f20"/></svg>