<svg id="Layer_1" data-name="Layer 1" xmlns="http://www.w3.org/2000/svg" viewBox="0 0 2000 1705.62"><path id="path900" d="M1675.69,642.08,980.2,826.77c26.71-240-25.67-422-161.46-608L1514.22,34.07h0c34.6-9.19,124.42,112.08,169.06,280.17s26.92,318.68-7.59,327.84Z" style="fill:#9b9ea9;stroke:#000;stroke-linecap:round;stroke-linejoin:round;stroke-width:24px"/><path id="path900-2" data-name="path900" d="M1558.11,673.31,1099.17,795.18l-.7.19c34.51-9.17,36.64-155.61-8-323.7S971.6,178.16,937,187.35L1396,65.47l.7-.18c34.6-9.19,124.42,112.08,169.06,280.17s26.91,318.68-7.6,327.85Z" style="fill:#fff;stroke:#231f20;stroke-linecap:round;stroke-linejoin:round;stroke-width:15.8333333333333px"/><path id="path900-3" data-name="path900" d="M818.74,218.76C853.33,209.57,927.56,335,972.2,503.07s42.51,314.54,8,323.7S865.3,712.22,820.66,544.12,784.14,227.94,818.74,218.76Z" style="fill:#9b9ea9;stroke:#000;stroke-linecap:round;stroke-linejoin:round;stroke-width:24px"/><path d="M1222.59,451.66c-17-21.1-16.89-41.27-40.15-30.62-19.23,8.81-14.35,39.69,2.61,60.79s46.08,32.51,58.81,15.62C1259.27,477,1239.55,472.76,1222.59,451.66Z" style="fill:#302226;stroke:#231f20;stroke-miterlimit:10;stroke-width:7.91666666666667px"/><path d="M1328.75,494.23c6.18-26.36,22.11-38.73-.61-50.49-18.78-9.73-40.11,13.14-46.28,39.5s2.76,56.32,23.91,56C1331.35,538.75,1322.57,520.59,1328.75,494.23Z" style="fill:#302226;stroke:#231f20;stroke-miterlimit:10;stroke-width:7.91666666666667px"/><path d="M1428.48,293.14c6.18-26.36,22.11-38.73-.6-50.49-18.78-9.73-40.11,13.14-46.29,39.5s2.77,56.32,23.92,56C1431.08,337.66,1422.3,319.5,1428.48,293.14Z" style="fill:#302226;stroke:#231f20;stroke-miterlimit:10;stroke-width:7.91666666666667px"/><path d="M1390.31,370.1c-13.45-23.49-10.22-43.41-34.86-36.53-20.37,5.69-20.39,37-6.94,60.46s40.42,39.32,55.64,24.63C1422.56,400.91,1403.76,393.6,1390.31,370.1Z" style="fill:#302226;stroke:#231f20;stroke-miterlimit:10;stroke-width:7.91666666666667px"/><path d="M1457.65,551.4c-18-20.25-18.88-40.4-41.59-28.63-18.78,9.73-12.4,40.34,5.56,60.59s47.6,30.23,59.5,12.75C1495.52,575,1475.62,571.65,1457.65,551.4Z" style="fill:#302226;stroke:#231f20;stroke-miterlimit:10;stroke-width:7.91666666666667px"/><path d="M1381.75,214.07c4-26.77,18.9-40.4-4.7-50.27-19.51-8.17-38.91,16.35-42.93,43.13s7.34,55.91,28.38,53.82C1388,258.23,1377.74,240.85,1381.75,214.07Z" style="fill:#302226;stroke:#231f20;stroke-miterlimit:10;stroke-width:7.91666666666667px"/><path d="M1292.89,428.64c20.87-17.25,41-17.46,30.07-40.56-9.07-19.11-39.88-13.82-60.75,3.43s-31.88,46.51-14.82,59C1268,465.65,1272,445.88,1292.89,428.64Z" style="fill:#302226;stroke:#231f20;stroke-miterlimit:10;stroke-width:7.91666666666667px"/><path d="M1471.36,381.2c.06-27.08,12.79-42.73-12-49.05-20.49-5.23-36.1,21.86-36.16,48.94s15.42,54.23,35.94,49.1C1484,424,1471.3,408.27,1471.36,381.2Z" style="fill:#302226;stroke:#231f20;stroke-miterlimit:10;stroke-width:7.91666666666667px"/><path d="M1324.79,328.16c21.24-16.78,41.41-16.55,31-39.89-8.65-19.3-39.57-14.68-60.82,2.1s-32.88,45.81-16.1,58.68C1299.11,364.63,1303.54,345,1324.79,328.16Z" style="fill:#302226;stroke:#231f20;stroke-miterlimit:10;stroke-width:7.91666666666667px"/><path d="M1241.1,360.76c7.28-26.07,23.72-37.76,1.53-50.47-18.36-10.51-40.63,11.43-47.92,37.51s.39,56.38,21.53,56.91C1241.81,405.35,1233.81,386.83,1241.1,360.76Z" style="fill:#302226;stroke:#231f20;stroke-miterlimit:10;stroke-width:7.91666666666667px"/><path d="M1448.76,510.37c20.6,17.56,24.3,37.39,45.16,22.59,17.24-12.24,6.69-41.67-13.91-59.24s-51.33-23.34-60.69-4.37C1408,492.28,1428.16,492.8,1448.76,510.37Z" style="fill:#302226;stroke:#231f20;stroke-miterlimit:10;stroke-width:7.91666666666667px"/><path d="M1353.36,482.41c-5.48,26.51-21.08,39.29,1.93,50.45,19,9.23,39.76-14.19,45.24-40.7s-4.25-56.23-25.38-55.31C1349.6,438,1358.85,455.89,1353.36,482.41Z" style="fill:#302226;stroke:#231f20;stroke-miterlimit:10;stroke-width:7.91666666666667px"/><path d="M1353.47,1069.43h534.68a61.85,61.85,0,0,1,61.85,61.85h0a61.85,61.85,0,0,1-61.85,61.85H1353.47" style="fill:#fff;stroke:#231f20;stroke-miterlimit:10;stroke-width:24px"/><path d="M712.65,1671.4C407.86,1671.4,50,1509.24,50,1140.85c0-142,296.68-257,662.65-257s662.65,115.08,662.65,257C1375.31,1509.24,1017.44,1671.4,712.65,1671.4Z" style="fill:#fff;stroke:#231f20;stroke-miterlimit:10;stroke-width:24px"/><ellipse cx="712.65" cy="1440.95" rx="18.16" ry="18.09" style="fill:#929497"/><ellipse cx="712.65" cy="1512.99" rx="18.16" ry="18.09" style="fill:#929497"/><ellipse cx="712.65" cy="1585.04" rx="18.16" ry="18.09" style="fill:#929497"/><path d="M817.35,1565.58c8.41,6,10.89,18.61,5.1,27.85s-17.24,11.26-25.22,4.66a21.75,21.75,0,0,1-4.7-27.54A17.06,17.06,0,0,1,817.35,1565.58Z" style="fill:#929497"/><path d="M852.92,1497.68c8.88,5.06,12.44,17.34,7.53,27.14s-16,13.1-24.66,7.43-11.72-17.63-7.15-26.91S844,1492.57,852.92,1497.68Z" style="fill:#929497"/><path d="M881.47,1425.84c9.57,3.63,14.42,15.39,10.59,26s-14.64,15.23-23.78,10.6-13.48-16.13-9.89-25.72A17.74,17.74,0,0,1,881.47,1425.84Z" style="fill:#929497"/><path d="M938.56,1553.3c7.11,7,7.72,18.12.91,24.52s-17.8,5.39-24.43-2.26-6.78-18.35-.52-24.12S931.36,1546.23,938.56,1553.3Z" style="fill:#929497"/><path d="M981.29,1505c7.93,6.22,9.55,17,3.68,24.18s-17.06,7.27-24.5.63-8.84-17.25-3.36-23.91S973.44,1498.86,981.29,1505Z" style="fill:#929497"/><path d="M1018.3,1452.23c8.58,5.18,11.68,16,6.44,23.65-5,7.84-16.09,9.2-24.27,3.38s-10.67-16.18-6-23.38C999.27,1448.78,1009.72,1447,1018.3,1452.23Z" style="fill:#929497"/><path d="M1047.34,1394.73c9.42,3.42,14.09,13.46,10.38,22.4-4.11,8.61-14.73,11.78-23.61,7.15s-13.14-14.49-9.53-22C1027.7,1394.67,1037.91,1391.31,1047.34,1394.73Z" style="fill:#929497"/><path d="M1096.38,1506.39c6.58,7.55,5.89,18.76-1.58,25-7.57,6-18.65,4.45-24.77-3.52s-5.27-19,1.86-24.65C1078.84,1497.4,1089.79,1498.82,1096.38,1506.39Z" style="fill:#929497"/><path d="M1144.36,1458.72c7.62,6.45,8.62,17.83,1.91,25.07a17.33,17.33,0,0,1-25.1-.24c-6.92-7.11-7.61-18.19-1.4-24.59C1125.82,1452.44,1136.67,1452.21,1144.36,1458.72Z" style="fill:#929497"/><path d="M1183.58,1403.68c8.72,5,11.91,16.06,6.37,24.34-5.25,8.46-16.71,10.09-24.8,4.2s-10.33-16.4-5.7-23.91C1164.38,1401,1174.87,1398.73,1183.58,1403.68Z" style="fill:#929497"/><path d="M1211.69,1342.23c9.4,3.19,14.73,13.51,11,22.7a17.28,17.28,0,0,1-23.47,8.88c-9.08-4.25-13.67-14.29-10.23-22.42S1202.1,1339,1211.69,1342.23Z" style="fill:#929497"/><path d="M606.44,1565.58a17,17,0,0,1,24.81,5,21.73,21.73,0,0,1-4.7,27.54c-8,6.6-19.57,4.69-25.22-4.66S598,1571.6,606.44,1565.58Z" style="fill:#929497"/><path d="M570.87,1497.68c9-5.11,19.64-1.57,24.27,7.66s1.47,21.27-7.15,26.91-19.81,2.41-24.65-7.43S562,1502.74,570.87,1497.68Z" style="fill:#929497"/><path d="M542.31,1425.84a17.74,17.74,0,0,1,23.08,10.91c3.59,9.59-.77,21.11-9.88,25.72s-19.85-.06-23.78-10.6S532.74,1429.47,542.31,1425.84Z" style="fill:#929497"/><path d="M485.23,1553.3c7.19-7.07,17.81-7.7,24-1.86s6,16.61-.52,24.12-17.54,8.63-24.42,2.26S478.11,1560.28,485.23,1553.3Z" style="fill:#929497"/><path d="M442.5,1505c7.85-6.15,18.72-5.78,24.18.9s4.16,17.2-3.37,23.91-18.61,6.53-24.5-.63S434.56,1511.23,442.5,1505Z" style="fill:#929497"/><path d="M405.48,1452.23c8.59-5.19,19-3.45,23.86,3.65,4.64,7.2,2.13,17.57-6,23.38s-19.21,4.46-24.27-3.38C393.81,1468.18,396.9,1457.41,405.48,1452.23Z" style="fill:#929497"/><path d="M376.44,1394.73c9.43-3.42,19.64-.06,22.76,7.54,3.61,7.52-.63,17.37-9.53,22s-19.49,1.46-23.6-7.15C362.35,1408.19,367,1398.15,376.44,1394.73Z" style="fill:#929497"/><path d="M327.4,1506.39c6.59-7.57,17.55-9,24.49-3.19,7.14,5.66,7.95,16.71,1.86,24.65s-17.19,9.54-24.77,3.52A17.46,17.46,0,0,1,327.4,1506.39Z" style="fill:#929497"/><path d="M279.42,1458.72c7.69-6.51,18.55-6.28,24.6.24,6.21,6.4,5.51,17.48-1.4,24.59a17.33,17.33,0,0,1-25.1.24C270.8,1476.55,271.81,1465.17,279.42,1458.72Z" style="fill:#929497"/><path d="M240.2,1403.68c8.72-5,19.2-2.69,24.13,4.63,4.63,7.51,2.42,18-5.7,23.91s-19.54,4.26-24.8-4.2C228.29,1419.74,231.48,1408.64,240.2,1403.68Z" style="fill:#929497"/><path d="M212.09,1342.23c9.59-3.26,19.38,1,22.75,9.16s-1.14,18.17-10.22,22.42a17.28,17.28,0,0,1-23.47-8.88C197.36,1355.74,202.7,1345.42,212.09,1342.23Z" style="fill:#929497"/><path d="M712.65,973.33a11.78,11.78,0,1,1,12.1-11.78A11.94,11.94,0,0,1,712.65,973.33Z" style="fill:#929497"/><path d="M712.65,1020.27a11.79,11.79,0,1,1,12.1-11.79A12,12,0,0,1,712.65,1020.27Z" style="fill:#929497"/><path d="M712.65,1067.2a11.79,11.79,0,1,1,12.1-11.78A11.95,11.95,0,0,1,712.65,1067.2Z" style="fill:#929497"/><path d="M712.65,1114.13a11.79,11.79,0,1,1,12.1-11.78A11.95,11.95,0,0,1,712.65,1114.13Z" style="fill:#929497"/><path d="M712.65,1161.06a11.78,11.78,0,1,1,12.1-11.78A11.94,11.94,0,0,1,712.65,1161.06Z" style="fill:#929497"/><path d="M712.65,1208a11.78,11.78,0,1,1,12.1-11.78A11.94,11.94,0,0,1,712.65,1208Z" style="fill:#929497"/><path d="M712.65,1254.92a11.78,11.78,0,1,1,12.1-11.78A11.94,11.94,0,0,1,712.65,1254.92Z" style="fill:#929497"/><path d="M712.65,1301.86a11.79,11.79,0,1,1,12.1-11.79A12,12,0,0,1,712.65,1301.86Z" style="fill:#929497"/><path d="M799.55,1282.24c6.24,2.55,8.91,9.86,6.06,16.35-3.11,6.49-10.5,9.18-16.46,6a12.32,12.32,0,0,1,10.4-22.32Z" style="fill:#929497"/><path d="M816.35,1236.16a12.32,12.32,0,1,1-15.34,7.76A12.19,12.19,0,0,1,816.35,1236.16Z" style="fill:#929497"/><path d="M830.58,1189.21a12.32,12.32,0,1,1-15,8.44A12.17,12.17,0,0,1,830.58,1189.21Z" style="fill:#929497"/><path d="M843.3,1141.83a12.32,12.32,0,1,1-14.8,8.86A12.18,12.18,0,0,1,843.3,1141.83Z" style="fill:#929497"/><path d="M855,1094.19a12.32,12.32,0,1,1-14.63,9.14A12.18,12.18,0,0,1,855,1094.19Z" style="fill:#929497"/><path d="M866,1046.37a12.32,12.32,0,1,1-14.5,9.36A12.18,12.18,0,0,1,866,1046.37Z" style="fill:#929497"/><path d="M876.3,998.41a12.32,12.32,0,1,1-14.38,9.53A12.2,12.2,0,0,1,876.3,998.41Z" style="fill:#929497"/><path d="M886.11,950.34A12.32,12.32,0,1,1,871.83,960,12.2,12.2,0,0,1,886.11,950.34Z" style="fill:#929497"/><path d="M922.07,1278.81a11.67,11.67,0,1,1-14.66,18.11c-4.85-4.54-5.6-11.73-1.86-16.44S916.6,1274.87,922.07,1278.81Z" style="fill:#929497"/><path d="M947,1239.67a11.67,11.67,0,1,1-12,20c-5.59-3.58-7.52-10.81-4.28-16.15A12,12,0,0,1,947,1239.67Z" style="fill:#929497"/><path d="M968.68,1198.63a11.67,11.67,0,1,1-10.59,20.77,12,12,0,0,1-5.43-15.84C955.5,1197.9,962.69,1195.7,968.68,1198.63Z" style="fill:#929497"/><path d="M988.23,1156.52a11.67,11.67,0,1,1-9.61,21.24,11.66,11.66,0,1,1,9.61-21.24Z" style="fill:#929497"/><path d="M1006.18,1113.71a11.66,11.66,0,1,1-15.58,6.22A11.83,11.83,0,0,1,1006.18,1113.71Z" style="fill:#929497"/><path d="M1022.72,1070.33a11.66,11.66,0,1,1-8.12,21.85c-6.23-2.39-9.49-9.16-7.25-15.13A11.93,11.93,0,0,1,1022.72,1070.33Z" style="fill:#929497"/><path d="M1037.8,1026.42a11.67,11.67,0,1,1-15.12,7.25C1024.67,1027.63,1031.45,1024.39,1037.8,1026.42Z" style="fill:#929497"/><path d="M1050.88,981.88a11.67,11.67,0,1,1-6.24,22.46c-6.42-1.91-10.14-8.38-8.44-14.45S1044.42,980.25,1050.88,981.88Z" style="fill:#929497"/><path d="M1080.64,1236.56a11.72,11.72,0,1,1-16.61-2.26C1069,1230.36,1076.43,1231.37,1080.64,1236.56Z" style="fill:#929497"/><path d="M1115.77,1205.84a11.73,11.73,0,1,1-17.29,15.82c-4.37-5.06-4.11-12.56.6-16.75A12,12,0,0,1,1115.77,1205.84Z" style="fill:#929497"/><path d="M1147.77,1171.89a11.73,11.73,0,1,1-15.6,17.49,12.21,12.21,0,0,1-1.16-16.71C1135.16,1168,1142.69,1167.67,1147.77,1171.89Z" style="fill:#929497"/><path d="M1175.36,1134.27a11.73,11.73,0,1,1-13.27,19.31c-5.36-4-6.75-11.32-3.1-16.36C1162.45,1132.06,1169.69,1130.68,1175.36,1134.27Z" style="fill:#929497"/><path d="M1197.94,1093.46a11.74,11.74,0,0,1,5.59,16c-2.87,6.1-10.46,8.12-16.26,4.87a12.22,12.22,0,0,1-5.31-15.85C1184.71,1092.9,1191.86,1090.66,1197.94,1093.46Z" style="fill:#929497"/><path d="M1215,1050a11.72,11.72,0,1,1-7.82,22.09c-6.15-2.44-9.55-9.22-7.46-15.08S1208.67,1048.05,1215,1050Z" style="fill:#929497"/><path d="M624.24,1282.24a12.32,12.32,0,0,1,10.39,22.32c-6,3.21-13.34.52-16.46-6C615.32,1292.1,618,1284.79,624.24,1282.24Z" style="fill:#929497"/><path d="M607.43,1236.16a12.31,12.31,0,1,1-7.55,15.61A12.26,12.26,0,0,1,607.43,1236.16Z" style="fill:#929497"/><path d="M593.2,1189.21a12.32,12.32,0,1,1-8.2,15.23A12.26,12.26,0,0,1,593.2,1189.21Z" style="fill:#929497"/><path d="M580.48,1141.83a12.32,12.32,0,1,1-8.61,15A12.25,12.25,0,0,1,580.48,1141.83Z" style="fill:#929497"/><path d="M568.77,1094.19a12.32,12.32,0,1,1-8.9,14.81A12.25,12.25,0,0,1,568.77,1094.19Z" style="fill:#929497"/><path d="M557.82,1046.37a12.32,12.32,0,1,1-9.12,14.68A12.23,12.23,0,0,1,557.82,1046.37Z" style="fill:#929497"/><path d="M547.48,998.41a12.32,12.32,0,1,1-9.29,14.56A12.23,12.23,0,0,1,547.48,998.41Z" style="fill:#929497"/><path d="M537.67,950.34a12.32,12.32,0,1,1-9.45,14.46A12.23,12.23,0,0,1,537.67,950.34Z" style="fill:#929497"/><path d="M501.72,1278.81c5.46-3.94,12.73-3,16.51,1.67s3,11.9-1.86,16.44a11.67,11.67,0,1,1-14.65-18.11Z" style="fill:#929497"/><path d="M476.79,1239.67a12,12,0,0,1,16.26,3.85c3.24,5.34,1.31,12.57-4.28,16.15a11.67,11.67,0,1,1-12-20Z" style="fill:#929497"/><path d="M455.11,1198.63c6-2.93,13.17-.73,16,4.93a12,12,0,0,1-5.43,15.84,11.67,11.67,0,1,1-10.58-20.77Z" style="fill:#929497"/><path d="M435.56,1156.52a11.66,11.66,0,1,1,9.6,21.24,11.66,11.66,0,1,1-9.6-21.24Z" style="fill:#929497"/><path d="M417.61,1113.71a11.66,11.66,0,1,1,8.82,21.57,11.66,11.66,0,1,1-8.82-21.57Z" style="fill:#929497"/><path d="M401.07,1070.33a11.92,11.92,0,0,1,15.36,6.72c2.24,6-1,12.74-7.24,15.13a11.67,11.67,0,1,1-8.12-21.85Z" style="fill:#929497"/><path d="M386,1026.42c6.35-2,13.13,1.21,15.12,7.25a12.11,12.11,0,1,1-15.12-7.25Z" style="fill:#929497"/><path d="M372.9,981.88c6.46-1.63,13,1.94,14.68,8s-2,12.54-8.44,14.45a11.67,11.67,0,1,1-6.24-22.46Z" style="fill:#929497"/><path d="M343.14,1236.56c4.21-5.19,11.65-6.2,16.61-2.26a12.11,12.11,0,1,1-16.61,2.26Z" style="fill:#929497"/><path d="M308,1205.84a12,12,0,0,1,16.7-.93c4.7,4.19,5,11.69.6,16.75a11.73,11.73,0,1,1-17.3-15.82Z" style="fill:#929497"/><path d="M276,1171.89c5.09-4.22,12.62-3.9,16.76.78a12.21,12.21,0,0,1-1.16,16.71,11.73,11.73,0,1,1-15.6-17.49Z" style="fill:#929497"/><path d="M248.42,1134.27c5.67-3.59,12.91-2.21,16.37,3,3.65,5,2.26,12.36-3.1,16.36a11.73,11.73,0,1,1-13.27-19.31Z" style="fill:#929497"/><path d="M225.85,1093.46c6.07-2.8,13.23-.56,16,5a12.23,12.23,0,0,1-5.32,15.85c-5.8,3.25-13.39,1.23-16.26-4.87A11.74,11.74,0,0,1,225.85,1093.46Z" style="fill:#929497"/><path d="M208.83,1050c6.28-2,13.22,1.14,15.28,7s-1.31,12.64-7.46,15.08a11.72,11.72,0,1,1-7.82-22.09Z" style="fill:#929497"/><path d="M714.07,1199.43c34.85-.5,55.26,15.55,62.88-16.49,6.29-26.49-28.91-46-63.76-45.51s-69.49,21-62.45,47.31C659.26,1216.54,679.22,1199.92,714.07,1199.43Z" style="fill:#302226;stroke:#231f20;stroke-miterlimit:10;stroke-width:7.91666666666667px"/><path d="M914.24,757.5c-24.54,24.75-50.35,27.59-33.35,55.8,14.06,23.32,52.86,12.6,77.39-12.16s34.9-63.65,11.45-77.49C941.38,706.9,938.77,732.74,914.24,757.5Z" style="fill:#302226;stroke:#231f20;stroke-miterlimit:10;stroke-width:7.91666666666667px"/><path d="M618.56,1243.34c23.34,25.89,24.74,51.82,53.85,36.42,24.07-12.72,15.54-52.06-7.81-77.94S603,1163.41,587.87,1186C569.57,1213.42,595.22,1217.46,618.56,1243.34Z" style="fill:#302226;stroke:#231f20;stroke-miterlimit:10;stroke-width:7.91666666666667px"/><path d="M829.3,1323c30.75,16.4,40.88,40.31,63,15.93,18.31-20.15-3.1-54.24-33.85-70.64s-71-15.17-77.52,11.27C773.05,1311.52,798.54,1306.61,829.3,1323Z" style="fill:#302226;stroke:#231f20;stroke-miterlimit:10;stroke-width:7.91666666666667px"/><path d="M762,1264c34.18-6.83,57.18,5.22,58.82-27.67,1.37-27.19-36.81-40-71-33.13s-64.5,33.32-52.78,57.9C711.23,1290.85,727.82,1270.87,762,1264Z" style="fill:#302226;stroke:#231f20;stroke-miterlimit:10;stroke-width:7.91666666666667px"/><path d="M841.77,890.12c10-33.37,31.49-48,3.23-64.92-23.36-14-52.58,13.7-62.61,47.07s-.92,72.59,26.28,73.8C841.57,947.54,831.73,923.5,841.77,890.12Z" style="fill:#302226;stroke:#231f20;stroke-miterlimit:10;stroke-width:7.91666666666667px"/><path d="M492.21,1305.43c31.13-15.66,56.51-10.14,49.37-42.29-5.91-26.58-46.1-28.76-77.24-13.1s-53.34,49.24-35.51,69.82C450.38,1344.76,461.07,1321.09,492.21,1305.43Z" style="fill:#302226;stroke:#231f20;stroke-miterlimit:10;stroke-width:7.91666666666667px"/><path d="M872.31,1247.65c29.32,18.85,37.47,43.51,61.52,21,19.89-18.6,1.33-54.32-28-73.17s-69.51-20.9-78.18,4.91C817.18,1231.63,843,1228.8,872.31,1247.65Z" style="fill:#302226;stroke:#231f20;stroke-miterlimit:10;stroke-width:7.91666666666667px"/><path d="M806.92,1103c21.46,27.46,21,53.43,51.14,40.13,24.91-11,19.18-50.84-2.28-78.3s-58.73-42.67-75.42-21.16C760.16,1069.72,785.47,1075.57,806.92,1103Z" style="fill:#302226;stroke:#231f20;stroke-miterlimit:10;stroke-width:7.91666666666667px"/><path d="M722.73,1350.8c34.31,6.13,51.31,25.76,64.87-4.25,11.21-24.81-19.65-50.66-54-56.79s-72.21,7.43-70.29,34.6C665.68,1357.2,688.42,1344.67,722.73,1350.8Z" style="fill:#302226;stroke:#231f20;stroke-miterlimit:10;stroke-width:7.91666666666667px"/><path d="M936.52,1272.65c-21.74,27.25-47.1,32.84-27.17,59.06,16.48,21.68,53.9,6.86,75.64-20.39s27.87-67,3.07-78.28C958.08,1219.44,958.26,1245.41,936.52,1272.65Z" style="fill:#302226;stroke:#231f20;stroke-miterlimit:10;stroke-width:7.91666666666667px"/><path d="M694.58,993.69c-21.74,27.25-47.1,32.84-27.17,59.06,16.47,21.68,53.9,6.86,75.64-20.39s27.87-67,3.07-78.28C716.13,940.48,716.32,966.45,694.58,993.69Z" style="fill:#302226;stroke:#231f20;stroke-miterlimit:10;stroke-width:7.91666666666667px"/><path d="M572.55,1288.73c-28.66,19.83-54.56,17.88-43,48.72,9.53,25.51,49.64,22.1,78.31,2.27s46-56.15,25.49-74.07C608.52,1244,601.22,1268.9,572.55,1288.73Z" style="fill:#302226;stroke:#231f20;stroke-miterlimit:10;stroke-width:7.91666666666667px"/><path d="M576.18,1215.51c-31.18-15.59-41.93-39.22-63.42-14.27-17.77,20.63,4.52,54.15,35.69,69.73s71.37,13.29,77.2-13.3C632.71,1225.5,607.35,1231.09,576.18,1215.51Z" style="fill:#302226;stroke:#231f20;stroke-miterlimit:10;stroke-width:7.91666666666667px"/><path d="M1375.3,1135.8c0,122-296.68,221-662.65,221S50,1257.84,50,1135.8" style="fill:none;stroke:#231f20;stroke-miterlimit:10;stroke-width:24px"/><path id="path900-4" data-name="path900" d="M176.11,132.54C180.61,97,324.73,75.42,497.27,97.29S804.7,176.21,800.21,211.63,650.85,275,478.31,253.13,171.61,168.05,176.11,132.54Z" style="fill:#9b9ea9;stroke:#000;stroke-linecap:round;stroke-linejoin:round;stroke-width:24px"/></svg>