<svg xmlns="http://www.w3.org/2000/svg" height="1923.949" width="1683.451"  xmlns:v="https://vecta.io/nano"><path d="M642.226 992.248s-21.54-430.28 517.2-553.43l-90.56 134c-268.7 101.23-219.77 425.6-219.77 425.6" fill="#fff"/><path d="M1068.906 572.768c-268.74 101.28-219.8 425.64-219.8 425.64m-206.88-6.16s-21.54-430.28 517.2-553.43" fill="none" stroke="#231f20" stroke-width="24" stroke-linecap="round" stroke-linejoin="round"/><path d="M1035.226 632.408s47.07 24.53 127.54 14.2c0 0 61.17-5.42 117.53-44.15 0 0 43.28-28.4 77.36-81.5 0 0 38-57.1 52.73-92.14 4.4-11.33 10.3-48.33 1.83-74.75 0 0-7.9-37.45-40-80.2-24.73-28.68-29.76-32.33-29.76-32.33-9-7.37-6.88-16.6-4.75-20 0 0 3.4-13 17.6-29.75 0 0 37.9-50.08 59.06-71.15 0 0 34-40.3 66.3-57.16 0 0 26.15-15.63 75.62-22 0 0 32.36-6.34 91 7.5 0 0 12.34-12.2 13-26.94-59.73-13.57-100.2-9.45-100.2-9.45-58.77 3.12-95 27.86-95 27.86-41 21.76-77.64 65.24-77.64 65.24-42.8 51.92-56.24 72-56.24 72l-31.48 42.88c-188.06 280.48-178.5 273.12-264.5 411.84z" fill="#231f20"/><path d="M1392.226 1058.028l214.82 23.87c84 9.33 84.54 138.07 9.18 165.25l-224 80.8zm-1101 0l-214.82 23.87c-84 9.33-84.54 138.07-9.18 165.25l224 80.8zm1101-165.47v861a158 158 0 0 1-158.39 158.39h-784.18a158 158 0 0 1-158.43-158.36v-861z" fill="#fff" stroke="#231f20" stroke-width="24" stroke-linejoin="round"/></svg>