<svg xmlns="http://www.w3.org/2000/svg" height="1931.129" width="1685.237" viewBox="0 0 1685.236 1931.129"  xmlns:v="https://vecta.io/nano"><style><![CDATA[.V{stroke-linecap:round}.W{stroke-miterlimit:10}]]></style><path d="M806.3 1919.13c364.8 0 793.1-194.1 793.1-635 0-103.85-355.08-199.3-793.1-199.3h-1.22c-438 0-793.1 95.46-793.1 199.3 0 440.9 428.3 635 793.1 635" fill="#fff" stroke="#231f20" stroke-width="24" class="W"/><text y="1765.059" x="710.77" font-size="321.54" fill="#231f20" font-family="ArialRoundedMTBold,Arial Rounded MT Bold">3</text><g stroke="#231f20" stroke-width="24" class="W"><path d="M1548.08 1278.1c0 49.77-332.08 123.5-741.73 123.5h-1.3c-409.65 0-741.73-73.74-741.73-123.5" fill="none" class="V"/><g fill="#fff"><path d="M1659.02 185.37l-778.17 867.68c-24.5 27.32-60.46 23.1-79.73-8.47L691.6 865.24c-15.26-25-10.35-63.62 10.56-86.94L1366.5 37.53c20.9-23.32 58.78-32.4 85.28-19.93l190.17 89.42c33.46 15.74 41.57 51.04 17.07 78.35z"/><path d="M1549 156.36c-11.5 12.83-32.93 16.73-47.65 8.82l-87-46.8c-13.15-7.07-15-22.36-4.36-34.24s30-16.14 43.5-9.4l88.95 44.62c15.04 7.55 18.07 24.15 6.57 36.98z"/></g></g><g fill="#fcfbf3" stroke="#010101" stroke-linejoin="round" stroke-width="9.8"><path d="M689.32 931.33c19.9-8.06 46 62.46 46 62.46-3.55 26.87-31.4 15.12-41.5 29.92s-58.77-62.34-35.87-69.33c17.08-5.2 31.36-23.05 31.36-23.05z"/><path d="M673.73 963.57s12.57 38.42 26.4 47" class="V"/><path d="M889 831.32c20.12-7.43 44 63.87 44 63.87-4.4 26.75-31.86 14.13-42.4 28.6s-56.74-64.15-33.65-70.42c17.22-4.67 32.06-22.06 32.06-22.06z"/><path d="M872.4 863.06s11.36 38.8 24.9 47.85" class="V"/><path d="M555.85 1038.79c20.07 7.6-8.64 77.1-8.64 77.1-20.86 17.32-33.32-10.22-50.77-6.2s-.8-85.67 20.74-75.25c16.1 7.77 38.67 4.36 38.67 4.36z"/><path d="M522.54 1051.87s-16.87 36.74-12.57 52.46" class="V"/><path d="M454.44 1190.89c15.1-15.26 66.95 39.2 66.95 39.2 7.36 26.1-22.87 26.3-26.3 43.9s-78.62-34-60.35-49.52c13.63-11.52 19.7-33.56 19.7-33.56z"/><path d="M452.85 1226.67s26.72 30.33 42.83 32.8" class="V"/><path d="M1238.5 501.79c12.82 17.2-48.8 60.32-48.8 60.32-26.9 3.36-22.57-26.55-39.45-32.57s45.45-72.63 58-52.25c9.36 15.18 30.24 24.5 30.24 24.5z"/><path d="M1203.36 494.86s-34 21.88-38.84 37.44" class="V"/><path d="M623.68 1182.13c15.08-15.25 66.95 39.2 66.95 39.2 7.36 26.1-22.87 26.3-26.3 43.88s-78.62-34-60.35-49.5c13.62-11.53 19.7-33.57 19.7-33.57z"/><path d="M622.1 1217.91s26.73 30.33 42.84 32.8" class="V"/><path d="M905.52 725.05c15.08-15.26 67 39.2 67 39.2 7.35 26.1-22.87 26.3-26.3 43.88s-78.62-34-60.35-49.52c13.57-11.52 19.64-33.56 19.64-33.56z"/><path d="M903.93 760.83s26.73 30.33 42.84 32.8" class="V"/><path d="M1049.2 635.62c21.26-2.83 29 72 29 72-10.15 25.14-34.18 6.8-47.65 18.6s-41.33-75-17.42-76.1c17.78-.8 36.07-14.52 36.07-14.52z"/><path d="M1026.05 662.95s2.57 40.34 13.8 52.15" class="V"/><path d="M782.15 904.09c2.35-21.32 76.82-10.83 76.82-10.83 22 15.9-1.6 34.82 6.63 50.72s-82.77 22.12-78-1.35c3.47-17.5-5.45-38.54-5.45-38.54z"/><path d="M803.12 933.13s39.78 7.2 53.93-.9" class="V"/><path d="M950.85 682.12c0-21.45 75.17-19.17 75.17-19.17 23.57 13.4 2.22 34.78 12.14 49.7s-79.85 31-77.73 7.2c1.62-17.78-9.58-37.72-9.58-37.72z"/><path d="M974.9 708.69s40.32 2.8 53.5-6.78" class="V"/><path d="M671.85 1005.55c2.17-21.34 76.72-11.52 76.72-11.52 22.1 15.7-1.3 34.83 7.1 50.66s-82.57 22.86-78.06-.65c3.4-17.52-5.75-38.5-5.75-38.5z"/><path d="M693.12 1034.4s39.84 6.83 53.93-1.37" class="V"/><path d="M945.97 847.19c-8 19.9-76.9-10.18-76.9-10.18-16.9-21.2 10.9-33.1 7.22-50.64s85.67.9 74.82 22.25c-8.08 15.9-5.13 38.57-5.13 38.57z"/><path d="M933.56 813.59s-36.4-17.6-52.2-13.62" class="V"/><path d="M1007.3 755.84c18.84 10.25-19.07 75.2-19.07 75.2-23 14.3-31.62-14.67-49.46-13.08s10.88-85 30.8-71.72c14.86 9.9 37.72 9.6 37.72 9.6z"/><path d="M972.47 764.25s-21.72 34.1-19.62 50.22" class="V"/><path d="M797.3 926.28c3.2 21.2-71.45 30.2-71.45 30.2-25.32-9.7-7.4-34.06-19.46-47.3s74.3-42.66 75.77-18.77c1.1 17.85 15.14 35.9 15.14 35.9z"/><path d="M769.56 903.61s-40.28 3.3-51.9 14.74" class="V"/><path d="M737.85 976.1c-9.28-19.34 59.47-49.82 59.47-49.82 27 1.87 17 30.4 32.45 39.54s-58.55 62.55-67 40.13c-6.24-16.7-24.92-29.85-24.92-29.85z"/><path d="M770.98 989.66s37.56-14.94 45.3-29.28" class="V"/><path d="M626.17 995.2c15.1-15.25 66.95 39.2 66.95 39.2 7.36 26.1-22.87 26.3-26.3 43.88s-78.62-34-60.35-49.5c13.62-11.53 19.7-33.57 19.7-33.57z"/><path d="M624.58 1030.99s26.73 30.32 42.84 32.78" class="V"/><path d="M559.2 1079.47c4.53-21 77.53-2.9 77.53-2.9 20.22 18.05-5.16 34.47 1.4 51.13s-84.6 13.52-77.5-9.33c5.3-17.05-1.43-38.9-1.43-38.9z"/><path d="M577.1 1110.47s38.83 11.22 53.74 4.64" class="V"/><path d="M667.42 1063.77c15.1-15.25 66.95 39.2 66.95 39.2 7.36 26.1-22.87 26.3-26.3 43.88s-78.62-34.05-60.35-49.5c13.62-11.53 19.7-33.57 19.7-33.57z"/><path d="M665.85 1099.55s26.73 30.33 42.84 32.8" class="V"/><path d="M769.7 1108.9c13.3 16.83-47.06 61.68-47.06 61.68-26.8 4.13-23.32-25.9-40.35-31.43s43.36-73.9 56.48-53.88c9.8 14.93 30.93 23.63 30.93 23.63z"/><path d="M734.37 1102.97s-33.35 22.84-37.75 38.53" class="V"/><path d="M1058.45 572.29c15.08-15.25 67 39.2 67 39.2 7.35 26.1-22.88 26.3-26.3 43.88s-78.62-34-60.35-49.5c13.57-11.53 19.64-33.57 19.64-33.57z"/><path d="M1056.85 608.07s26.72 30.33 42.84 32.8" class="V"/><path d="M817.72 824.69c15.08-15.25 67 39.2 67 39.2 7.36 26.1-22.87 26.3-26.3 43.88s-78.62-34-60.35-49.5c13.57-11.53 19.64-33.57 19.64-33.57z"/><path d="M816.13 860.47s26.73 30.33 42.84 32.8" class="V"/><path d="M510.47 1184.21c-15.8-14.53 36.77-68.32 36.77-68.32 25.82-8.28 27.1 21.92 44.8 24.7s-31.2 79.8-47.32 62.08c-12-13.2-34.25-18.47-34.25-18.47z"/><path d="M546.28 1184.47s29.35-27.8 31.24-44" class="V"/><path d="M571.85 980.89c20.3-6.93 42.46 64.93 42.46 64.93-5 26.64-32.2 13.35-43.1 27.56s-55.2-65.52-32-71.22c17.37-4.25 32.63-21.27 32.63-21.27z"/><path d="M554.47 1012.21s10.4 39.06 23.73 48.45" class="V"/><path d="M578.4 913.47c4.08-21.06 77.45-4.57 77.45-4.57 20.6 17.62-4.42 34.57 2.5 51.1s-84.3 15.32-77.68-7.68c4.93-17.18-2.26-38.85-2.26-38.85z"/><path d="M596.96 944.08s39.06 10.4 53.83 3.5" class="V"/></g></svg>