<svg xmlns="http://www.w3.org/2000/svg" viewBox="0 0 2000 1611.96"><g id="Layer_2" data-name="Layer 2"><path d="M1417.21,1191.93c7.45,11.42,2.14,3.14,3.85,5.67l.14,0,.28-.1.57-.2,1.13-.4,2.27-.8,4.53-1.59,9.06-3.14,18-6.23c12.06-4,23.89-8.19,35.93-11.94,23.86-7.84,47.88-14.88,71.7-22q17.88-5.28,35.89-10c11.91-3.36,23.83-6.66,35.81-9.74,24-6.07,48-12.26,70.95-17.6l73.67-17.33c24.68-5.41,49.61-10,74-16.17s48.11-14.27,70.78-25.53c11.4-5.42,22.48-11.81,33.49-18.4,5.72-2.68,10.45-8.29,13.38-19.3a81.18,81.18,0,0,0,1.93-9.07l1.16-11.38v-.34a83.65,83.65,0,0,0-19-56.6l-.17-.2-7.79-8.39a82.67,82.67,0,0,0-7-6.09c-9-7-16.22-8.65-22.44-7.34-12.86,1.38-25.66,3-38.14,5.51-25.09,4.69-49.14,12.49-72.49,22.3s-46.18,21.12-69.26,31.65l-69.59,30.5c-24.49,11.64-47.16,24.19-69.67,37.46q-16.89,9.87-33.51,20.21-16.5,10.57-32.68,21.59c-21.64,14.55-42.51,30.34-62.79,46.71-10.07,8.3-20.07,16.61-29.67,25.47-4.84,4.35-9.59,8.83-14.28,13.33l-6.93,6.91-3.44,3.47-1.72,1.73-.85.86-.43.43-.22.22-.1.11C1415.22,1188.69,1409.83,1180.46,1417.21,1191.93Z" style="fill:#231f20"/><path d="M826.71,1005.3c-443.23,0-802.54,104.24-802.54,209.33C44,1296,100.84,1410.33,169.43,1462.69c55,37.66,295.74,130,657.24,130s606.25-92.39,661.24-130c68.59-52.36,125.41-166.65,145.26-248.06C1633.17,1109.54,1269.94,1005.3,826.71,1005.3Z" style="fill:#fff;stroke:#231f20;stroke-miterlimit:10;stroke-width:24px"/><path d="M78.78,1208.52c0,50.35,300.83,164.71,750.57,164.71s751.89-114.36,751.89-164.71" style="fill:none;stroke:#231f20;stroke-linecap:round;stroke-miterlimit:10;stroke-width:24px"/><circle cx="1393.32" cy="1166.37" r="15.9" style="fill:#231f20"/><circle cx="1493.66" cy="1204.53" r="15.9" style="fill:#231f20"/><g id="layer3"><path id="path1047" d="M1050.31,628s46.18,24.07,125.15,13.93c0,0,60-5.32,115.32-43.32,0,0,42.47-27.86,75.91-80,0,0,37.25-56.05,51.75-90.41,4.3-11.12,10.09-47.43,1.79-73.35,0,0-7.74-36.75-39.21-78.69-24.27-28.15-29.2-31.72-29.2-31.72-8.88-7.24-6.76-16.3-4.67-19.64,0,0,3.33-12.8,17.28-29.19,0,0,37.18-49.15,57.94-69.82,0,0,33.36-39.56,65.05-56.09,0,0,25.66-15.34,74.21-21.56,0,0,31.75-6.22,89.28,7.36,0,0,12.11-12,12.76-26.43-58.61-13.32-98.31-9.27-98.31-9.27-57.67,3.06-93.26,27.33-93.26,27.33-40.28,21.35-76.18,64-76.18,64-42,50.95-55.19,70.6-55.19,70.6-24,32.46-30.9,42.08-30.9,42.08C1125.26,499.11,1134.66,491.89,1050.31,628Z" style="fill:#231f20"/></g><path d="M828.33,919.25V789.35c0-264.45,249.56-292.68,249.56-292.68" style="fill:none;stroke:#231f20;stroke-linecap:round;stroke-linejoin:round;stroke-width:24px"/><polyline points="919.41 818.35 828.33 925.69 737.26 818.35" style="fill:none;stroke:#231f20;stroke-linecap:round;stroke-linejoin:round;stroke-width:24px"/></g></svg>
