<svg xmlns="http://www.w3.org/2000/svg" height="1923.98" width="1491.69"  xmlns:v="https://vecta.io/nano"><path d="M395.9 1055.43s-22.93-458 550.53-589.1l-96.4 142.6c-286.06 107.8-234 453-234 453" fill="#fff"/><path d="M850.07 608.9c-286.06 107.8-234 453-234 453m-220.17-6.47s-22.93-458 550.53-589.1" fill="none" stroke="#231f20" stroke-width="24" stroke-linecap="round" stroke-linejoin="round"/><path d="M814.27 672.36s50.1 26.1 135.76 15.1c0 0 65.1-5.77 125.1-47 0 0 46.08-30.22 82.35-86.76 0 0 40.4-60.8 56.13-98.08 4.67-12.06 11-51.44 2-79.56 0 0-8.4-39.87-42.54-85.36-26.33-30.54-31.68-34.42-31.68-34.42-9.63-7.85-7.32-17.67-5.06-21.3 0 0 3.62-13.88 18.74-31.67 0 0 40.34-53.3 62.86-75.73 0 0 36.2-42.9 70.57-60.85 0 0 27.83-16.64 80.5-23.4 0 0 34.45-6.74 96.85 8 0 0 13.14-13 13.85-28.66-63.58-14.46-106.65-10.06-106.65-10.06-62.56 3.32-101.17 29.65-101.17 29.65-43.7 23.16-82.64 69.44-82.64 69.44-45.56 55.27-59.87 76.6-59.87 76.6l-33.5 45.64c-200.22 298.63-190 290.8-281.53 438.43z" fill="#231f20"/><g fill="#fff" stroke="#231f20" stroke-width="24"><g stroke-miterlimit="10"><path d="M1270.27 1061.1v753.13a97.54 97.54 0 0 1-97.76 97.75H213.67a97.53 97.53 0 0 1-97.76-97.75V1061.1z"/><path d="M74.23 1060.85A62.08 62.08 0 0 0 12 1123.1v57.16a62.09 62.09 0 0 0 62.23 62.22h41.68V1061.1h34l-5.06-.25zm1237.73 0a62.09 62.09 0 0 1 62.22 62.21v57.17a62.08 62.08 0 0 1-62.22 62.21h-41.7V1061.1h-34l5-.25z"/></g><circle r="156.27" cy="1369.15" cx="693.09"/></g><path d="M693.1 1369.15V1263.5" fill="none" stroke="#231f20" stroke-width="24" stroke-linecap="round" stroke-miterlimit="10"/></svg>