<svg xmlns="http://www.w3.org/2000/svg" xmlns:xlink="http://www.w3.org/1999/xlink" height="1766.372" width="1924" xmlns:v="https://vecta.io/nano"><style><![CDATA[.B{stroke-width:24}.C{stroke-linecap:round}.D{stroke:#231f20}.E{stroke-miterlimit:10}.F{stroke-linejoin:round}]]></style><g fill="#fff" class="D"><g class="B F"><path d="M57.37 1418.302l50.9 288.24a72.07 72.07 0 0 0 67.9 47.83h1571.64a72.07 72.07 0 0 0 67.9-47.83l50.9-288.24" class="C"/><path d="M1895 1410.882l-310.55-210.48a37.54 37.54 0 0 0-20.51-6.1H360.08a37.54 37.54 0 0 0-20.51 6.1L29 1410.882a37.52 37.52 0 0 0-17 31.42v8.56a37.52 37.52 0 0 0 37.52 37.53h1825a37.52 37.52 0 0 0 37.48-37.53v-8.56a37.52 37.52 0 0 0-17-31.42z"/></g><g stroke-width="15.044" class="C F"><path d="M109.07 1421.982h1705.86m-1447.2-171.8l28.32 168.12"/><path d="M1556.26 1250.182l-28.32 168.12"/></g><use xlink:href="#B" class="B E"/></g><use xlink:href="#C" fill="#231f20"/><g class="B D E"><use xlink:href="#D" fill="none" class="C"/><use xlink:href="#B" fill="#fff"/></g><use xlink:href="#C" fill="#231f20"/><use xlink:href="#D" fill="none" class="B C D E"/><g fill="#fff"><path d="M789.32 1371.712c-4.64-109 50.38-332.7 207.16-380.18 0 0 36.36-31.58 29.3-30.74-330.54 39.3-386.86 294.7-394.94 398.3"/><path d="M693.27 997.192l33.2 16.08a6 6 0 0 0 8.3-7.26l-10.9-32.68a6 6 0 0 0-9.33-2.94l-22.3 16.57a6.09 6.09 0 0 0 1 10.2zm48.07-25.07c1.9 6 10.2 6.92 13.14 1.38l19.7-36.13a7.16 7.16 0 0 0-5-10.55l-32.68-6a7.12 7.12 0 0 0-8.13 9.16zm9.66 23.52l-5.36 23.86c-.86 3.46 2.94 6 6.05 4.32l19.54-11.93a4 4 0 0 0 .52-6.4l-14-11.93a4.1 4.1 0 0 0-6.75 2.08z"/></g><path d="M630.43 1362.762c6.42-104.47 58.1-382.94 412.16-413.85m-46.1 50.44c-152.3 46.14-208.58 252.48-207.4 363" fill="none" class="B C D E"/><defs ><path id="B" d="M1667.76 778.182c140.23-237.74 178.4-591.48-108.94-761-67.68-39.9-266.4 154.78-434.82 440.26l-.47.8c-168.4 285.45-242.68 553.56-175 593.48 287.34 169.5 578.48-35 718.72-272.75"/><path id="C" d="M1534 720.292l31.5-53.4q4.7-8 10.46-10.24a12.42 12.42 0 0 1 11.38 1.05 13.71 13.71 0 0 1 6.52 8.34c1 3.58.2 7.63-2.46 12.13l-44.4 75.3q-4.53 7.68-11.3 9.47a15.71 15.71 0 0 1-12.51-1.59c-2.46-1.44-5.17-4.3-8.15-8.52a40.72 40.72 0 0 1-6-11.68q-6.1-21.95-9.7-38.84-3.62-16.9-4-23.47a104.88 104.88 0 0 0-3.68-21 55.1 55.1 0 0 0-7.27-15.74 33.91 33.91 0 0 0-10.62-10.13 25.8 25.8 0 0 0-13.56-3.79 25.07 25.07 0 0 0-13 3.76 28.36 28.36 0 0 0-9.77 10q-7.9 13.4-.67 28 .93 1.93 6.37 8.38 5.44 6.45 7.34 11.64 1.9 5.2-1.54 11a13.36 13.36 0 0 1-8.39 6.5q-5.35 1.38-11.2-2a44.8 44.8 0 0 1-12.86-11.87 48.86 48.86 0 0 1-8.33-17.67 54.42 54.42 0 0 1-.67-21.91q1.88-11.93 9.54-24.93 9.22-15.65 20.66-23.8a46.59 46.59 0 0 1 16.43-7.28 49.12 49.12 0 0 1 35.61 5.56 50.73 50.73 0 0 1 19.29 19.87q6.68 12.42 8.7 22.43 2 10 5.52 32.85 3.5 22.82 7.08 32.65a68.2 68.2 0 0 0 3.71 8.94z"/><path id="D" d="M1535.16 48.332c32.43 19.13-47.18 263.9-204.66 530.87l-.5.85c-157.48 267-333.2 455-365.63 435.9"/></defs></svg>