<svg id="Layer_1" data-name="Layer 1" xmlns="http://www.w3.org/2000/svg" viewBox="0 0 2000 2000"><path d="M1666.39,170.06,988.92,925.47c-21.32,23.78-52.64,20.1-69.42-7.38L824.15,762c-13.29-21.76-9-55.4,9.2-75.7L1411.72,41.35C1429.93,21,1462.9,13.15,1486,24l165.56,77.85C1680.66,115.55,1687.72,146.28,1666.39,170.06Z" style="fill:#fff;stroke:#3a3632;stroke-miterlimit:10;stroke-width:20px"/><path d="M1570.61,144.8c-10,11.17-28.67,14.57-41.48,7.68l-75.75-40.74c-11.45-6.15-13.08-19.46-3.8-29.81s26.16-14,37.87-8.17l77.44,38.85C1578,119.18,1580.63,133.63,1570.61,144.8Z" style="fill:#fff;stroke:#3a3632;stroke-miterlimit:10;stroke-width:20px"/><g id="layer1"><path id="path863" d="M1015.05,697.69l-55.12,9.47c-76.23-8.86-86.75-136-19.76-163.73l46.47-10.62" style="fill:#f37820;stroke:#3a3632;stroke-linecap:round;stroke-linejoin:round;stroke-width:20px;isolation:isolate"/><path id="path863-2" data-name="path863" d="M995.86,700.17c-80.38-2.62-95.35-149.86-9.22-167.36C1072.05,515.45,1087.69,703.17,995.86,700.17Z" style="fill:#f37820;stroke:#3a3632;stroke-linecap:round;stroke-linejoin:round;stroke-width:20px;isolation:isolate"/><path id="path863-3" data-name="path863" d="M999.73,659.92c-42-1.37-49.86-78.36-4.83-87.51C1039.56,563.34,1047.74,661.49,999.73,659.92Z" style="fill:#dd6512;isolation:isolate"/></g><g id="layer1-2" data-name="layer1"><path id="path863-4" data-name="path863" d="M772,806.3l-46-27.65C676,724.43,748.07,625.28,814.17,647.11l40.47,21.38" style="fill:#f37820;stroke:#3a3632;stroke-linecap:round;stroke-linejoin:round;stroke-width:20px;isolation:isolate"/><path id="path863-5" data-name="path863" d="M756.48,796.08C699.62,743.8,781,627.26,854.64,668.49,927.68,709.38,821.43,855.8,756.48,796.08Z" style="fill:#f37820;stroke:#3a3632;stroke-linecap:round;stroke-linejoin:round;stroke-width:20px;isolation:isolate"/><path id="path863-6" data-name="path863" d="M784.51,769.21c-29.73-27.34,12.82-88.27,51.33-66.71C874,723.88,818.48,800.44,784.51,769.21Z" style="fill:#dd6512;isolation:isolate"/></g><g id="layer1-3" data-name="layer1"><path id="path863-7" data-name="path863" d="M653.92,1032.06l50.71,8.72c70.12-8.16,79.8-125.16,18.17-150.62l-42.74-9.77" style="fill:#f37820;stroke:#3a3632;stroke-linecap:round;stroke-linejoin:round;stroke-width:20px;isolation:isolate"/><path id="path863-8" data-name="path863" d="M671.57,1034.35c73.95-2.42,87.72-137.86,8.49-154C601.49,864.42,587.1,1037.11,671.57,1034.35Z" style="fill:#f37820;stroke:#3a3632;stroke-linecap:round;stroke-linejoin:round;stroke-width:20px;isolation:isolate"/><path id="path863-9" data-name="path863" d="M668,997.32c38.66-1.26,45.86-72.08,4.43-80.5C631.37,908.47,623.85,998.77,668,997.32Z" style="fill:#dd6512;isolation:isolate"/></g><g id="layer1-4" data-name="layer1"><path id="path863-10" data-name="path863" d="M1143.67,323.68l38.58,34.16c37.09,60.31-51,143.62-109.87,111.73l-34.47-27.21" style="fill:#f37820;stroke:#3a3632;stroke-linecap:round;stroke-linejoin:round;stroke-width:20px;isolation:isolate"/><path id="path863-11" data-name="path863" d="M1156.5,336.06c44.09,59.6-56.32,158.06-118.59,106.3C976.16,391,1106.14,268,1156.5,336.06Z" style="fill:#f37820;stroke:#3a3632;stroke-linecap:round;stroke-linejoin:round;stroke-width:20px;isolation:isolate"/><path id="path863-12" data-name="path863" d="M1124.5,357.23c23,31.16-29.45,82.64-62,55.58C1030.2,386,1098.17,321.63,1124.5,357.23Z" style="fill:#dd6512;isolation:isolate"/></g><g id="layer1-5" data-name="layer1"><path id="path863-13" data-name="path863" d="M1298.69,293.54l36.3,32.14c34.9,56.76-48,135.16-103.39,105.15l-32.44-25.61" style="fill:#f37820;stroke:#3a3632;stroke-linecap:round;stroke-linejoin:round;stroke-width:20px;isolation:isolate"/><path id="path863-14" data-name="path863" d="M1310.76,305.18c41.48,56.09-53,148.74-111.6,100C1141.05,356.91,1263.37,241.12,1310.76,305.18Z" style="fill:#f37820;stroke:#3a3632;stroke-linecap:round;stroke-linejoin:round;stroke-width:20px;isolation:isolate"/><path id="path863-15" data-name="path863" d="M1280.64,325.11c21.69,29.32-27.71,77.77-58.35,52.3C1191.91,352.15,1255.86,291.61,1280.64,325.11Z" style="fill:#dd6512;isolation:isolate"/></g><g id="layer1-6" data-name="layer1"><path id="path863-16" data-name="path863" d="M890.93,793.1l37.5,33.21c36.06,58.63-49.6,139.61-106.8,108.61l-33.51-26.45" style="fill:#f37820;stroke:#3a3632;stroke-linecap:round;stroke-linejoin:round;stroke-width:20px;isolation:isolate"/><path id="path863-17" data-name="path863" d="M903.4,805.13c42.85,57.94-54.75,153.65-115.28,103.34C728.09,858.57,854.44,739,903.4,805.13Z" style="fill:#f37820;stroke:#3a3632;stroke-linecap:round;stroke-linejoin:round;stroke-width:20px;isolation:isolate"/><path id="path863-18" data-name="path863" d="M872.29,825.71c22.41,30.29-28.63,80.34-60.28,54C780.62,853.65,846.69,791.11,872.29,825.71Z" style="fill:#dd6512;isolation:isolate"/></g><g id="layer1-7" data-name="layer1"><path id="path863-19" data-name="path863" d="M1173.37,431.52l35.15,31.12c33.78,55-46.49,130.84-100.09,101.79L1077,539.64" style="fill:#f37820;stroke:#3a3632;stroke-linecap:round;stroke-linejoin:round;stroke-width:20px;isolation:isolate"/><path id="path863-20" data-name="path863" d="M1185.06,442.8c40.16,54.29-51.31,144-108,96.84C1020.77,492.88,1139.18,380.78,1185.06,442.8Z" style="fill:#f37820;stroke:#3a3632;stroke-linecap:round;stroke-linejoin:round;stroke-width:20px;isolation:isolate"/><path id="path863-21" data-name="path863" d="M1155.9,462.09c21,28.39-26.82,75.29-56.48,50.63C1070,488.27,1131.92,429.66,1155.9,462.09Z" style="fill:#dd6512;isolation:isolate"/></g><g id="layer3"><path id="path916" d="M1329.09,1173.24l202.23,22.47c79,8.78,79.58,130,8.64,155.55l-210.87,76Zm-1036.41,0L90.46,1195.71c-79,8.78-79.59,130-8.65,155.55l210.87,76Zm1036.41-155.78V1828A148.78,148.78,0,0,1,1180,1977.12H441.79A148.78,148.78,0,0,1,292.68,1828V1017.46Z" style="fill:#fff;stroke:#3a3632;stroke-linecap:round;stroke-linejoin:round;stroke-width:20px"/></g></svg>