<svg xmlns="http://www.w3.org/2000/svg" height="1950.143" width="1968.274"  xmlns:v="https://vecta.io/nano"><style><![CDATA[.B{fill:none}.C{stroke-width:24}.D{stroke-miterlimit:10}.E{stroke-linecap:round}.F{stroke-linejoin:round}]]></style><g stroke="#231f20"><g class="C D"><path d="M748.52 1938.143c338.25 0 735.4-180 735.4-588.8 0-96.3-329.25-184.8-735.4-184.8h-1.13c-406.15 0-735.4 88.5-735.4 184.8 0 408.8 397.14 588.8 735.4 588.8" fill="#fff"/><path d="M1436.32 1343.753c0 46.14-307.92 114.52-687.76 114.52h-1.2c-379.84 0-687.76-68.38-687.76-114.52" class="B E"/></g><path d="M779 875.713l67.9-35.93a95.93 95.93 0 0 1 61.31-9.72l729.74 127a28.17 28.17 0 0 0 32.13-20.83l109.4-431.34a28.17 28.17 0 0 0-18.32-33.62L950.3 200.393" stroke-width="12" class="B D"/><path d="M1268.82 13.703c-44.08-5.8-80.77 3.2-109 26.73-19.13 15.9-33.87 38.3-43.8 66.56-8.58 24.36-13.82 44.85-15.6 78.7l-134.9-45.37-204.94 807.82 93.2-47.54a93.94 93.94 0 0 1 58.81-8.89l757.92 131.9a58 58 0 0 0 66.18-42.89l122.56-483.17a58 58 0 0 0-37.74-69.25l-326.34-109.8c-11.3-71.7-43.4-156.8-81.37-208.4-19.5-26.52-41.36-48.2-64.93-64.43-25.56-17.6-52.5-28.37-80.05-32zm152.7 280l-257.92-86.75c2.8-53.54 15.8-100 36.9-117.58 14.28-11.87 33.92-16 60-12.55 75.6 9.93 141.5 93.2 161.02 216.9z" class="B C F"/><g class="D"><g stroke-width="12" class="B"><path d="M899.53 400.503l844.34 244.75"/><path d="M1037.28 437.313l11.24-44.33m41.45 59.9l11.24-44.33m41.44 59.9l11.25-44.33m41.44 59.9l11.24-44.33m41.45 59.9l11.24-44.33m41.45 59.9l11.24-44.33m41.44 59.9l11.25-44.33m41.45 59.9l11.24-44.33m41.44 59.9l11.24-44.33m41.44 59.9l11.25-44.33m41.44 59.9l11.25-44.33m41.44 59.9l11.24-44.33m41.45 59.9l11.24-44.33" class="E"/></g><path transform="rotate(284.23)" d="M-513.856 1924.4h474.14v103.86h-474.14z" fill="#dedede" class="C"/></g><path d="M658.5 1362.963v-269.9c0-264.44 135.4-292.67 135.4-292.67m-44.32 461.67l-91.08 107.34-91.08-107.34" class="B E F C"/></g></svg>