<svg id="Layer_1" data-name="Layer 1" xmlns="http://www.w3.org/2000/svg" viewBox="0 0 2000 2000"><path d="M696.81,1969c266.29,0,455.26-53.28,526.14-161.76,83.74-199.55,107-186.17,107-186.17,0-154.19-283.49-279.18-633.19-279.18s-633.18,125-633.18,279.18c0,0,23.31-13.38,112.88,186.17C247.39,1915.75,430.53,1969,696.81,1969Z" style="fill:#fff;stroke:#231f20;stroke-miterlimit:10;stroke-width:24px"/><ellipse cx="696.82" cy="1579.48" rx="666.8" ry="274.65" style="fill:#fff;stroke:#231f20;stroke-miterlimit:10;stroke-width:24px"/><path d="M1285.55,1563.05c0,122.13-263.58,221.13-588.73,221.13s-588.73-99-588.73-221.13" style="fill:#fff;stroke:#231f20;stroke-linecap:round;stroke-miterlimit:10;stroke-width:24px"/><path d="M1285.55,1563.05c0-122.13-263.58-221.13-588.73-221.13s-588.73,99-588.73,221.13" style="fill:#fff;stroke:#231f20;stroke-linecap:round;stroke-miterlimit:10;stroke-width:24px"/><path d="M1126.15,1562.84c-112.86-47.35-263.66-76.28-429.33-76.28-173,0-329.75,31.53-444,82.65" style="fill:#fff;stroke:#231f20;stroke-linecap:round;stroke-miterlimit:10;stroke-width:12px"/><path d="M1026.74,881.69C918.3,860,701.3,914.85,701.3,1160.58v91.07" style="fill:none;stroke:#231f20;stroke-linecap:round;stroke-linejoin:round;stroke-width:24px"/><polyline points="768.85 1197.1 701.29 1264.65 633.74 1197.1" style="fill:none;stroke:#231f20;stroke-linecap:round;stroke-linejoin:round;stroke-width:24px"/><g id="layer3"><path id="path916" d="M1571.44,323.65,1935.09,587a93.35,93.35,0,0,1,21.11,130.32l-.22.3L1521,1318.26a93.34,93.34,0,0,1-130.3,21.15l-.34-.25-363.66-263.32Z" style="fill:#fff;stroke:#221f1f;stroke-linecap:round;stroke-linejoin:round;stroke-width:24px"/></g><path d="M1932.25,89.38,1722.93,359.2a41.6,41.6,0,0,0-2.61,46.93l27.32,45.12L1628,364.59l224.8-332.77Z" style="fill:#fff;stroke:#221f1f;stroke-linecap:round;stroke-linejoin:round;stroke-width:24px"/><g id="layer2"><path id="path839" d="M1086.81,593.34c26.29-55.86-25.1-136.65-87.93-165.13s-223.84-15-223.84-15L216.76,150.47A30.23,30.23,0,1,0,191,205.18L749.33,468c46.95,57.15,88.78,131.7,154.27,162.74,74.65,35.37,156.92,18.49,183.21-37.37Z" style="fill:#231f20"/></g></svg>