<?xml version="1.0" encoding="UTF-8"?>
<svg id="Layer_1" data-name="Layer 1" xmlns="http://www.w3.org/2000/svg" width="2000" height="2000" viewBox="0 0 2000 2000">
  <g>
    <path d="m1880.39,196.93l-786.73,877.24c-24.77,27.62-61.13,23.34-80.62-8.57l-110.73-181.32c-15.43-25.27-10.47-64.32,10.68-87.9L1584.64,47.46c21.15-23.58,59.43-32.75,86.23-20.15l192.26,90.41c33.83,15.91,42.03,51.59,17.26,79.21Z" style="fill: #fff; stroke: #3a3632; stroke-miterlimit: 10; stroke-width: 24px;"/>
    <path d="m1769.16,167.6c-11.63,12.97-33.29,16.91-48.17,8.91l-87.97-47.3c-13.3-7.15-15.19-22.61-4.41-34.62,10.78-12.02,30.38-16.31,43.97-9.49l89.94,45.12c15.21,7.63,18.28,24.42,6.64,37.39Z" style="fill: #fff; stroke: #3a3632; stroke-miterlimit: 10; stroke-width: 24px;"/>
  </g>
  <g>
    <path d="m876.26,1977.35c350.02,0,760.99-186.23,760.99-609.29,0-99.65-340.71-191.24-760.99-191.24h-1.17c-420.28,0-760.99,91.6-760.99,191.24,0,423.05,410.97,609.29,760.99,609.29" style="fill: #fff; stroke: #3a3632; stroke-miterlimit: 10; stroke-width: 24px;"/>
    <path d="m955.7,1807.62c0,10.91-6.17,16.35-18.51,16.35h-117.24c-5.35,0-9.56-1.59-12.65-4.78-3.08-3.19-4.63-7.14-4.63-11.88,0-6.17,2.36-11.72,7.1-16.66l70.34-75.59c8.64-9.46,14.96-18.15,18.97-26.07,4.01-7.92,6.02-15.78,6.02-23.6,0-9.67-2.78-17.07-8.33-22.21-5.55-5.14-13.47-7.71-23.76-7.71-8.44,0-16.61,1.6-24.53,4.78-7.92,3.19-15.89,7.56-23.91,13.11-2.06,1.44-4.12,2.62-6.17,3.55-2.06.93-4.12,1.39-6.17,1.39-3.5,0-6.53-1.64-9.1-4.94-2.57-3.29-3.86-7.2-3.86-11.72,0-3.08.56-5.76,1.7-8.02,1.13-2.26,2.93-4.42,5.4-6.48,9.05-7.2,19.64-12.91,31.78-17.12,12.13-4.21,24.27-6.33,36.41-6.33,21.18,0,38.1,5.35,50.75,16.04,12.65,10.7,18.97,25.1,18.97,43.19,0,12.55-2.68,24.33-8.02,35.33-5.35,11.01-14.4,23.29-27.15,36.87l-53.38,56.77h81.45c12.34,0,18.51,5.25,18.51,15.73Z" style="fill: #3a3632;"/>
    <path d="m1588,1362.27c0,47.75-318.64,118.51-711.71,118.51h-1.25c-393.06,0-711.71-70.76-711.71-118.51" style="fill: none; stroke: #3a3632; stroke-linecap: round; stroke-miterlimit: 10; stroke-width: 24px;"/>
  </g>
  <g id="layer3">
    <path id="rect7041" d="m815.84,1219.17c12.32,4.95,54.04-12.58,54.04-12.58,5.58-1.3,13.89,2.19,12.41,7.72-2.39,8.93,7.89,33.91,7.89,33.91,1.3,5.58-2.15,11.11-7.72,12.41,0,0-48.76,4.09-54.04,12.58-3.03,4.86-11.11-2.15-12.41-7.72,0,0-.43-30.62-7.89-33.91-5.24-2.31,2.41-14.54,7.72-12.41Z" style="fill: #d12027; stroke: #0c0d18; stroke-linecap: round; stroke-linejoin: round; stroke-width: 12.04px;"/>
    <path id="path1544" d="m927.26,946.27c12.32,4.95,54.04-12.58,54.04-12.58,5.58-1.3,13.89,2.19,12.41,7.72-2.39,8.93,7.89,33.91,7.89,33.91,1.3,5.58-2.15,11.11-7.72,12.41,0,0-48.76,4.09-54.04,12.58-3.03,4.86-11.11-2.15-12.41-7.72,0,0-.43-30.62-7.89-33.91-5.24-2.31,2.41-14.54,7.72-12.41h0Z" style="fill: #d12027; stroke: #0c0d18; stroke-linecap: round; stroke-linejoin: round; stroke-width: 12.04px;"/>
    <path id="path1546" d="m933.07,1244.34c8.07,10.54,52.9,16.75,52.9,16.75,5.46,1.73,10.83,8.97,6.73,12.97-6.61,6.47-10.51,33.19-10.51,33.19-1.73,5.46-7.51,8.46-12.97,6.73,0,0-44.02-21.35-52.9-16.75-5.08,2.64-8.46-7.51-6.73-12.97,0,0,15.25-26.55,10.51-33.19-3.33-4.66,9.49-11.28,12.97-6.73h0Z" style="fill: #d12027; stroke: #0c0d18; stroke-linecap: round; stroke-linejoin: round; stroke-width: 12.04px;"/>
    <path id="path1549" d="m841.21,1323.21c4.58,12.46,45.55,31.68,45.55,31.68,4.7,3.27,7.68,11.78,2.58,14.39-8.23,4.21-19.88,28.58-19.88,28.58-3.27,4.7-9.69,5.85-14.39,2.58,0,0-35.71-33.45-45.55-31.68-5.64,1.01-5.85-9.69-2.58-14.39,0,0,22.44-20.83,19.88-28.58-1.8-5.44,12.41-7.96,14.39-2.58h0Z" style="fill: #d12027; stroke: #0c0d18; stroke-linecap: round; stroke-linejoin: round; stroke-width: 12.04px;"/>
    <path id="path1551" d="m940.21,1370.42c12.32,4.95,54.04-12.58,54.04-12.58,5.58-1.3,13.89,2.19,12.41,7.72-2.39,8.93,7.89,33.91,7.89,33.91,1.3,5.58-2.15,11.11-7.72,12.41,0,0-48.76,4.09-54.04,12.58-3.03,4.86-11.11-2.15-12.41-7.72,0,0-.43-30.62-7.89-33.91-5.24-2.31,2.41-14.54,7.72-12.41h0Z" style="fill: #d12027; stroke: #0c0d18; stroke-linecap: round; stroke-linejoin: round; stroke-width: 12.04px;"/>
    <path id="path1553" d="m945.86,974.89c-4.35,12.55,15.17,53.37,15.17,53.37,1.57,5.51-1.52,13.98-7.11,12.77-9.04-1.95-33.49,9.52-33.49,9.52-5.51,1.57-11.2-1.61-12.77-7.11,0,0-6.44-48.5-15.17-53.37-5-2.79,1.61-11.2,7.11-12.77,0,0,30.56-1.9,33.49-9.52,2.05-5.35,14.64,1.7,12.77,7.11Z" style="fill: #d12027; stroke: #0c0d18; stroke-linecap: round; stroke-linejoin: round; stroke-width: 12.04px;"/>
    <path id="path1555" d="m871.36,1142.93c8.31,10.36,53.26,15.54,53.26,15.54,5.5,1.6,11.03,8.72,7.03,12.82-6.46,6.61-9.75,33.42-9.75,33.42-1.6,5.5-7.32,8.63-12.82,7.03,0,0-44.49-20.35-53.26-15.54-5.02,2.75-8.63-7.32-7.03-12.82,0,0,14.65-26.89,9.75-33.42-3.44-4.58,9.23-11.49,12.82-7.03Z" style="fill: #d12027; stroke: #0c0d18; stroke-linecap: round; stroke-linejoin: round; stroke-width: 12.04px;"/>
    <path id="path1557" d="m920.82,1208.13c11.95-5.79,27.03-48.46,27.03-48.46,2.79-5,10.96-8.81,14.06-3.99,5.01,7.78,30.4,16.96,30.4,16.96,5,2.79,6.78,9.06,3.99,14.06,0,0-29.76,38.84-27.03,48.46,1.56,5.51-9.06,6.78-14.06,3.99,0,0-22.95-20.27-30.4-16.96-5.23,2.33-9.14-11.56-3.99-14.06h0Z" style="fill: #d12027; stroke: #0c0d18; stroke-linecap: round; stroke-linejoin: round; stroke-width: 12.04px;"/>
    <path id="path1559" d="m908.38,1123.5c9.38-9.4,9.58-54.65,9.58-54.65.99-5.64,7.45-11.92,11.97-8.39,7.29,5.7,34.29,6.01,34.29,6.01,5.64.99,9.38,6.33,8.39,11.97,0,0-15.33,46.46-9.58,54.65,3.29,4.69-6.33,9.38-11.97,8.39,0,0-28.34-11.6-34.29-6.01-4.18,3.92-12.44-7.91-8.39-11.97Z" style="fill: #d12027; stroke: #0c0d18; stroke-linecap: round; stroke-linejoin: round; stroke-width: 12.04px;"/>
    <path id="path1561" d="m864,1238.16c12.32,4.95,54.04-12.58,54.04-12.58,5.58-1.3,13.89,2.19,12.41,7.72-2.39,8.93,7.89,33.91,7.89,33.91,1.3,5.58-2.15,11.11-7.72,12.41,0,0-48.76,4.09-54.04,12.58-3.03,4.86-11.11-2.15-12.41-7.72,0,0-.43-30.62-7.89-33.91-5.24-2.31,2.41-14.54,7.72-12.41Z" style="fill: #d12027; stroke: #0c0d18; stroke-linecap: round; stroke-linejoin: round; stroke-width: 12.04px;"/>
  </g>
  <g id="layer3-2" data-name="layer3">
    <path id="path1544-2" data-name="path1544" d="m1237.97,581.97c12.32,4.95,54.04-12.58,54.04-12.58,5.58-1.3,13.89,2.19,12.41,7.72-2.39,8.93,7.89,33.91,7.89,33.91,1.3,5.58-2.15,11.11-7.72,12.41,0,0-48.76,4.09-54.04,12.58-3.03,4.86-11.11-2.15-12.41-7.72,0,0-.43-30.62-7.89-33.91-5.24-2.31,2.41-14.54,7.72-12.41h0Z" style="fill: #d12027; stroke: #0c0d18; stroke-linecap: round; stroke-linejoin: round; stroke-width: 12.04px;"/>
    <path id="path1546-2" data-name="path1546" d="m1034.45,888.7c8.07,10.54,52.9,16.75,52.9,16.75,5.46,1.73,10.83,8.97,6.73,12.97-6.61,6.47-10.51,33.19-10.51,33.19-1.73,5.46-7.51,8.46-12.97,6.73,0,0-44.02-21.35-52.9-16.75-5.08,2.64-8.46-7.51-6.73-12.97,0,0,15.25-26.55,10.51-33.19-3.33-4.66,9.49-11.28,12.97-6.73h0Z" style="fill: #d12027; stroke: #0c0d18; stroke-linecap: round; stroke-linejoin: round; stroke-width: 12.04px;"/>
    <path id="path1549-2" data-name="path1549" d="m1133.7,680.87c4.58,12.46,45.55,31.68,45.55,31.68,4.7,3.27,7.68,11.78,2.58,14.39-8.23,4.21-19.88,28.58-19.88,28.58-3.27,4.7-9.69,5.85-14.39,2.58,0,0-35.71-33.45-45.55-31.68-5.64,1.01-5.85-9.69-2.58-14.39,0,0,22.44-20.83,19.88-28.58-1.8-5.44,12.41-7.96,14.39-2.58h0Z" style="fill: #d12027; stroke: #0c0d18; stroke-linecap: round; stroke-linejoin: round; stroke-width: 12.04px;"/>
    <path id="path1551-2" data-name="path1551" d="m1165.51,665.24c12.32,4.95,54.04-12.58,54.04-12.58,5.58-1.3,13.89,2.19,12.41,7.72-2.39,8.93,7.89,33.91,7.89,33.91,1.3,5.58-2.15,11.11-7.72,12.41,0,0-48.76,4.09-54.04,12.58-3.03,4.86-11.11-2.15-12.41-7.72,0,0-.43-30.62-7.89-33.91-5.24-2.31,2.41-14.54,7.72-12.41h0Z" style="fill: #d12027; stroke: #0c0d18; stroke-linecap: round; stroke-linejoin: round; stroke-width: 12.04px;"/>
    <path id="path1553-2" data-name="path1553" d="m1256.57,610.59c-4.35,12.55,15.17,53.37,15.17,53.37,1.57,5.51-1.52,13.98-7.11,12.77-9.04-1.95-33.49,9.52-33.49,9.52-5.51,1.57-11.2-1.61-12.77-7.11,0,0-6.44-48.5-15.17-53.37-5-2.79,1.61-11.2,7.11-12.77,0,0,30.56-1.9,33.49-9.52,2.05-5.35,14.64,1.7,12.77,7.11Z" style="fill: #d12027; stroke: #0c0d18; stroke-linecap: round; stroke-linejoin: round; stroke-width: 12.04px;"/>
    <path id="path1555-2" data-name="path1555" d="m1020.65,763.94c8.31,10.36,53.26,15.54,53.26,15.54,5.5,1.6,11.03,8.72,7.03,12.82-6.46,6.61-9.75,33.42-9.75,33.42-1.6,5.5-7.32,8.63-12.82,7.03,0,0-44.49-20.35-53.26-15.54-5.02,2.75-8.63-7.32-7.03-12.82,0,0,14.65-26.89,9.75-33.42-3.44-4.58,9.23-11.49,12.82-7.03Z" style="fill: #d12027; stroke: #0c0d18; stroke-linecap: round; stroke-linejoin: round; stroke-width: 12.04px;"/>
    <path id="path1557-2" data-name="path1557" d="m1022.2,852.49c11.95-5.79,27.03-48.46,27.03-48.46,2.79-5,10.96-8.81,14.06-3.99,5.01,7.78,30.4,16.96,30.4,16.96,5,2.79,6.78,9.06,3.99,14.06,0,0-29.76,38.84-27.03,48.46,1.56,5.51-9.06,6.78-14.06,3.99,0,0-22.95-20.27-30.4-16.96-5.23,2.33-9.14-11.56-3.99-14.06h0Z" style="fill: #d12027; stroke: #0c0d18; stroke-linecap: round; stroke-linejoin: round; stroke-width: 12.04px;"/>
    <path id="path1559-2" data-name="path1559" d="m1094.25,820.81c9.38-9.4,9.58-54.65,9.58-54.65.99-5.64,7.45-11.92,11.97-8.39,7.29,5.7,34.29,6.01,34.29,6.01,5.64.99,9.38,6.33,8.39,11.97,0,0-15.33,46.46-9.58,54.65,3.29,4.69-6.33,9.38-11.97,8.39,0,0-28.34-11.6-34.29-6.01-4.18,3.92-12.44-7.91-8.39-11.97Z" style="fill: #d12027; stroke: #0c0d18; stroke-linecap: round; stroke-linejoin: round; stroke-width: 12.04px;"/>
    <path id="path1561-2" data-name="path1561" d="m965.12,882.52c12.32,4.95,54.04-12.58,54.04-12.58,5.58-1.3,13.89,2.19,12.41,7.72-2.39,8.93,7.89,33.91,7.89,33.91,1.3,5.58-2.15,11.11-7.72,12.41,0,0-48.76,4.09-54.04,12.58-3.03,4.86-11.11-2.15-12.41-7.72,0,0-.43-30.62-7.89-33.91-5.24-2.31,2.41-14.54,7.72-12.41Z" style="fill: #d12027; stroke: #0c0d18; stroke-linecap: round; stroke-linejoin: round; stroke-width: 12.04px;"/>
  </g>
</svg>