<svg id="Layer_1" data-name="Layer 1" xmlns="http://www.w3.org/2000/svg" viewBox="0 0 2000 2000"><g id="layer3"><path id="path916" d="M1344.8,1294.35l165.47,18.39c64.67,7.18,65.11,106.34,7.07,127.28l-172.54,62.22Zm-848,0-165.46,18.39c-64.67,7.18-65.12,106.34-7.07,127.28l172.53,62.22Zm848-127.45v663.2a121.73,121.73,0,0,1-122,122h-604a121.73,121.73,0,0,1-122-122V1166.9Z" style="fill:#fff;stroke:#231f20;stroke-linecap:round;stroke-linejoin:round;stroke-width:24px"/></g><path d="M1621.61,740c126.69-214.77,161.16-534.33-98.41-687.45-61.14-36.07-240.66,139.83-392.78,397.7l-.42.72C977.88,708.88,910.77,951.09,971.91,987.15c259.57,153.12,522.59-31.63,649.27-246.39" style="fill:#fff;stroke:#231f20;stroke-miterlimit:10;stroke-width:24px"/><path d="M1546.22,629.86q10,5.91,3.33,17.27l-42.43,71.94q-2.91,4.92-7.52,6a11.7,11.7,0,0,1-9-1.46,16.67,16.67,0,0,1-7.65-10.39l-20.92-70.51q-4-13.1-9.13-21.08a37,37,0,0,0-12.3-12.24q-8.91-5.25-16.65-2.93t-13.33,11.79a46.4,46.4,0,0,0-5.94,16.78,87,87,0,0,0-.61,19.42,26.65,26.65,0,0,1-.06,5.07,10.74,10.74,0,0,1-1.38,4.28,8,8,0,0,1-6.33,3.8,13.11,13.11,0,0,1-8.58-1.88,12.45,12.45,0,0,1-4.31-3.94,14.66,14.66,0,0,1-2-5.66,76.3,76.3,0,0,1,1-25.69,78.84,78.84,0,0,1,9.3-24.63q11.51-19.5,28.21-25.33t33.37,4a56.8,56.8,0,0,1,18.78,17.71q7.22,10.89,12.79,30l15.51,53.3,29.48-50Q1536.57,624.17,1546.22,629.86Z" style="fill:#231f20"/><path d="M1501.82,80.7c29.3,17.29-42.62,238.41-184.88,479.58l-.46.77c-142.26,241.17-301,411.07-330.3,393.79" style="fill:none;stroke:#231f20;stroke-linecap:round;stroke-miterlimit:10;stroke-width:24px"/><path d="M1621.61,740c126.69-214.77,161.16-534.33-98.41-687.45-61.14-36.07-240.66,139.83-392.78,397.7l-.42.72C977.88,708.88,910.77,951.09,971.91,987.15c259.57,153.12,522.59-31.63,649.27-246.39" style="fill:#fff;stroke:#231f20;stroke-miterlimit:10;stroke-width:24px"/><path d="M1493.26,612.14q12.16-1.38,24.66,6,17.22,10.15,20,28.87t-10,40.3a86.54,86.54,0,0,1-17.75,21.43,66.14,66.14,0,0,1-22,13,13.3,13.3,0,0,1-11.47-.89,12.74,12.74,0,0,1-5.7-6.56,8.1,8.1,0,0,1,.36-7.31,9.85,9.85,0,0,1,2.67-3,53.72,53.72,0,0,1,4.64-2.88,94.35,94.35,0,0,0,17.07-10.34,49.3,49.3,0,0,0,12.11-14q7.37-12.5,5.93-21.51t-11.67-15q-10-5.91-18.6-2.42t-16.39,16.74l-6.36,10.79a9.41,9.41,0,0,1-6.9,5,12.59,12.59,0,0,1-13.54-8,9.62,9.62,0,0,1,1.13-8.4l4.46-7.57q15.3-25.94-4.19-37.44-9.09-5.35-17.25-2.77t-13.86,12.24q-8.14,13.83-6.44,36a52.13,52.13,0,0,1-.28,5.45,9.76,9.76,0,0,1-1.34,3.8,8.14,8.14,0,0,1-6.23,3.85,12.68,12.68,0,0,1-8.5-1.82,11.91,11.91,0,0,1-4.21-3.89,17.86,17.86,0,0,1-2.12-5.71,70.58,70.58,0,0,1,.72-25.23,79,79,0,0,1,9.46-24.91q11.63-19.68,28.14-25.63t32.61,3.54a40.06,40.06,0,0,1,15.81,17.11,37.07,37.07,0,0,1,2.81,22.71Q1481.1,613.51,1493.26,612.14Z" style="fill:#231f20"/><path d="M1501.82,80.7c29.3,17.29-42.62,238.41-184.88,479.58l-.46.77c-142.26,241.17-301,411.07-330.3,393.79" style="fill:none;stroke:#231f20;stroke-linecap:round;stroke-miterlimit:10;stroke-width:24px"/><path d="M729.81,1050.12V951.27c0-201.21,189.89-222.69,189.89-222.69" style="fill:none;stroke:#231f20;stroke-linecap:round;stroke-linejoin:round;stroke-width:24px"/><polyline points="815.71 954.95 729.82 1056.19 643.92 954.95" style="fill:none;stroke:#231f20;stroke-linecap:round;stroke-linejoin:round;stroke-width:24px"/></svg>