<svg id="Layer_1" data-name="Layer 1" xmlns="http://www.w3.org/2000/svg" viewBox="0 0 1676.19 2000"><path d="M727.34,1972.77c326.17,0,709.13-173.54,709.13-567.77,0-92.86-317.49-178.21-709.13-178.21h-1.09c-391.64,0-709.14,85.35-709.14,178.21,0,394.23,383,567.77,709.14,567.77Z" style="fill:#fff;stroke:#231f20;stroke-miterlimit:10;stroke-width:24px"/><path d="M723.06,1815.78V1688q-35.67,27.38-48,27.38a14.19,14.19,0,0,1-10.46-4.7,15.14,15.14,0,0,1-4.57-10.88q0-7.17,4.5-10.53t15.86-8.71q17-8,27.16-16.84a114.9,114.9,0,0,0,18-19.8q7.86-11,10.25-13.47t9-2.53a14.38,14.38,0,0,1,11.93,5.76q4.49,5.74,4.49,15.86v160.74q0,28.21-19.23,28.21-8.57,0-13.76-5.75T723.06,1815.78Z" style="fill:#231f20"/><path d="M1390.58,1399.6c0,44.5-296.92,110.43-663.2,110.43h-1.17C359.93,1510,63,1444.1,63,1399.6" style="fill:none;stroke:#231f20;stroke-linecap:round;stroke-miterlimit:10;stroke-width:24px"/><path d="M1645.85,188.55,921.79,995.91c-22.79,25.42-56.26,21.48-74.19-7.88L745.69,821.15c-14.2-23.25-9.64-59.2,9.82-80.9L1373.66,51c19.46-21.7,54.7-30.14,79.36-18.55L1630,115.65C1661.1,130.29,1668.65,163.13,1645.85,188.55Z" style="fill:#fff;stroke:#231f20;stroke-miterlimit:10;stroke-width:24px"/><path d="M1543.48,161.56c-10.7,11.93-30.64,15.56-44.33,8.2l-81-43.53c-12.24-6.58-14-20.81-4.06-31.87s28-15,40.47-8.73l82.77,41.52C1551.37,134.17,1554.19,149.62,1543.48,161.56Z" style="fill:#fff;stroke:#231f20;stroke-miterlimit:10;stroke-width:24px"/><path d="M1106.62,564.18a128.35,128.35,0,0,1-86.84-19.56c-9.27-6.07-18.48-14.8-18.66-25.89-.06-4.21.77-9.45-2.79-11.7-2-1.28-4.62-.92-6.89-1.61-6.35-1.92-7.38-10.49-6.29-17,1.18-7.1,3.4-14.07,3.46-21.26s-2.62-15-8.85-18.58c-8.34-4.78-18.74-.28-27.23,4.21-6.14-14.44-28.31-14.86-40.09-4.49S896.63,475,893.23,490.34c-11.2-4.83-25-1.83-34.07,6.31s-13.56,20.75-13,32.93c.29,6.14,1.75,12.3.82,18.38-2.3,15.11-18.79,27.08-15.88,42.09s24.41,23.57,22.31,38.78c-.48,3.47-2.24,6.67-2.58,10.16-1,9.77,9.14,17,18.56,19.75s20.08,3.71,27.13,10.55c4.11,4,6.41,9.48,10.23,13.74a25,25,0,0,0,43.61-15.68c.17-4.06-.63-8.3.89-12.07,1.18-2.93,3.6-5.15,6-7.27l41-36.93c3.18-2.86,6.43-5.77,10.32-7.53,12.67-5.74,27.06,2.12,38.52,10,14.16,9.72,34.47,37.1,34.47,37.1s26.38-22.71,30.79-42.53-.31-38.85-.94-41.13S1109,563.85,1106.62,564.18Z" style="fill:#fffce4;stroke:#0c0d18;stroke-linecap:round;stroke-linejoin:round;stroke-width:8px"/><polyline points="936.1 543.59 983.58 554 955.73 510.78" style="fill:#fffce4;stroke:#0c0d18;stroke-linecap:round;stroke-linejoin:round;stroke-width:8px"/><polyline points="931.78 569.38 973.75 580.87 934.28 614.53" style="fill:#fffce4;stroke:#0c0d18;stroke-linecap:round;stroke-linejoin:round;stroke-width:8px"/><path d="M807.17,1210.32a128.29,128.29,0,0,1-86.84-19.55c-9.28-6.07-18.48-14.8-18.66-25.89-.07-4.21.76-9.45-2.79-11.7-2-1.28-4.62-.92-6.89-1.61-6.36-1.92-7.38-10.5-6.29-17,1.18-7.1,3.4-14.07,3.45-21.27s-2.61-15-8.85-18.57c-8.33-4.78-18.73-.28-27.23,4.21-6.14-14.45-28.31-14.87-40.09-4.5s-15.8,26.77-19.21,42.09c-11.2-4.83-25-1.84-34.07,6.3s-13.55,20.76-13,32.94c.28,6.14,1.74,12.3.82,18.37-2.3,15.12-18.79,27.09-15.88,42.1S556.07,1259.77,554,1275c-.48,3.46-2.24,6.67-2.59,10.15-1,9.78,9.14,17,18.57,19.76s20.07,3.71,27.13,10.55c4.11,4,6.41,9.48,10.23,13.74a25,25,0,0,0,43.61-15.68c.16-4.06-.63-8.3.88-12.07,1.18-2.93,3.61-5.16,6-7.27l41-36.93c3.18-2.87,6.42-5.77,10.32-7.54,12.66-5.73,27.06,2.13,38.52,10,14.16,9.73,34.46,37.1,34.46,37.1s26.39-22.71,30.8-42.52-.31-38.85-.94-41.13S809.51,1210,807.17,1210.32Z" style="fill:#fffce4;stroke:#0c0d18;stroke-linecap:round;stroke-linejoin:round;stroke-width:8px"/><polyline points="636.65 1189.74 684.12 1200.15 656.27 1156.93" style="fill:#fffce4;stroke:#0c0d18;stroke-linecap:round;stroke-linejoin:round;stroke-width:8px"/><polyline points="632.33 1215.53 674.3 1227.02 634.83 1260.67" style="fill:#fffce4;stroke:#0c0d18;stroke-linecap:round;stroke-linejoin:round;stroke-width:8px"/><path d="M1207.73,587.32a105.14,105.14,0,0,1,16-71.18c5-7.61,12.12-15.15,21.2-15.31,3.45-.05,7.75.62,9.6-2.29,1-1.65.74-3.79,1.31-5.65,1.57-5.21,8.6-6.05,14-5.16,5.82,1,11.54,2.78,17.43,2.82s12.29-2.15,15.22-7.26c3.91-6.84.22-15.35-3.46-22.32,11.83-5,12.16-23.2,3.66-32.85s-21.94-12.94-34.5-15.73c4-9.18,1.49-20.48-5.18-27.92s-17-11.09-27-10.62c-5,.23-10.08,1.43-15.06.68-12.39-1.88-22.21-15.39-34.51-13s-19.3,20-31.77,18.31c-2.84-.39-5.47-1.84-8.32-2.12-8-.79-13.92,7.5-16.18,15.23s-3,16.45-8.64,22.24c-3.26,3.37-7.76,5.26-11.25,8.39a20.5,20.5,0,0,0,12.87,35.73c3.33.13,6.8-.52,9.89.72,2.41,1,4.23,3,6,4.88l30.28,33.59c2.35,2.6,4.73,5.26,6.18,8.45,4.7,10.38-1.73,22.18-8.18,31.58-8,11.6-17.11,23.58-30.39,28.26a58.07,58.07,0,0,0,9.33,16.46c5.86,7.29,16.21,9.15,25.54,8.76s18.72-2.49,28-1c1.91.3,3.89.76,5.76.24S1208,589.24,1207.73,587.32Z" style="fill:#fffce4;stroke:#0c0d18;stroke-linecap:round;stroke-linejoin:round;stroke-width:8px"/><polyline points="1228.92 463.05 1216.01 486.47 1251.42 463.62" style="fill:#fffce4;stroke:#0c0d18;stroke-linecap:round;stroke-linejoin:round;stroke-width:8px"/><polyline points="1188.31 446.76 1197.58 480.4 1173.03 451.65" style="fill:#fffce4;stroke:#0c0d18;stroke-linecap:round;stroke-linejoin:round;stroke-width:8px"/><path d="M737.85,1076.61a105.17,105.17,0,0,1,72.91-2.73c8.62,2.87,17.74,7.85,20.21,16.6.94,3.32,1.38,7.64,4.67,8.69,1.85.58,3.85-.25,5.79-.18,5.44.19,8.05,6.77,8.56,12.19.56,5.86.26,11.86,1.72,17.56s5.22,11.33,10.91,12.86c7.61,2,14.9-3.71,20.69-9,7.9,10.15,25.55,5.83,32.71-4.85s6.9-24.52,6.39-37.37c9.88,1.47,20.18-3.8,25.66-12.15s6.39-19.28,3.38-28.82c-1.51-4.8-4-9.37-4.5-14.38-1.35-12.46,9.2-25.4,3.75-36.68s-24.29-13.56-25.81-26c-.35-2.85.37-5.76-.09-8.59-1.28-7.95-10.8-11.54-18.85-11.75s-16.68,1.26-23.7-2.67c-4.09-2.29-7.07-6.17-11-8.74A20.49,20.49,0,0,0,840,962.09c.72,3.25,2.24,6.44,1.83,9.75-.32,2.57-1.78,4.84-3.19,7l-24.75,37.86c-1.91,2.93-3.87,5.92-6.59,8.13-8.83,7.2-21.89,4-32.62.16-13.25-4.74-27.17-10.52-35.08-22.16a57.6,57.6,0,0,0-13.53,13.22c-5.55,7.52-4.71,18-2,26.93s7.19,17.46,8.13,26.76c.2,1.93.27,4,1.24,5.63S736.07,1077.36,737.85,1076.61Z" style="fill:#fffce4;stroke:#0c0d18;stroke-linecap:round;stroke-linejoin:round;stroke-width:8px"/><polyline points="863.41 1065.36 837.47 1058.85 868.61 1087.25" style="fill:#fffce4;stroke:#0c0d18;stroke-linecap:round;stroke-linejoin:round;stroke-width:8px"/><polyline points="868.78 1021.93 838.63 1039.49 860.16 1008.41" style="fill:#fffce4;stroke:#0c0d18;stroke-linecap:round;stroke-linejoin:round;stroke-width:8px"/><path d="M719.05,1470.05a105.13,105.13,0,0,1,56.39-46.28c8.6-2.94,18.88-4.49,26.14,1,2.75,2.08,5.72,5.26,9,4.09,1.83-.65,2.92-2.52,4.51-3.64,4.44-3.14,10.5.52,14.18,4.52,4,4.34,7.39,9.29,12,13s11,5.86,16.46,3.63c7.29-3,9.62-12,11-19.72,12.43,3.31,23.87-10.81,23.1-23.65s-9.33-23.69-17.52-33.62c8.77-4.8,13.77-15.22,13.09-25.2s-6.59-19.21-14.75-25c-4.11-2.91-8.83-5.07-12.29-8.73-8.61-9.1-8-25.79-19.21-31.48s-27.53,3.91-36.3-5.11c-2-2.06-3.19-4.81-5.27-6.79-5.83-5.55-15.58-2.65-22.12,2s-12.51,11.1-20.49,12.22c-4.64.65-9.36-.63-14-.31a20.5,20.5,0,0,0-11.84,36.09c2.54,2.15,5.68,3.77,7.36,6.65,1.3,2.24,1.51,4.93,1.7,7.52l3.21,45.11c.25,3.5.49,7.06-.33,10.47-2.68,11.07-15,16.42-25.87,19.86-13.43,4.25-28,8.06-41.35,3.58A58.08,58.08,0,0,0,673,1429c.13,9.34,7.15,17.18,14.74,22.62s16.29,9.55,22.67,16.38c1.32,1.41,2.6,3,4.39,3.73S718.08,1471.73,719.05,1470.05Z" style="fill:#fffce4;stroke:#0c0d18;stroke-linecap:round;stroke-linejoin:round;stroke-width:8px"/><polyline points="812.21 1385.12 787.62 1395.64 829.59 1399.41" style="fill:#fffce4;stroke:#0c0d18;stroke-linecap:round;stroke-linejoin:round;stroke-width:8px"/><polyline points="790.21 1347.29 776.83 1379.52 775.16 1341.75" style="fill:#fffce4;stroke:#0c0d18;stroke-linecap:round;stroke-linejoin:round;stroke-width:8px"/><path d="M808.41,932.08a105.14,105.14,0,0,1,30.67-66.19c6.47-6.38,15-12.24,24-10.47,3.39.67,7.44,2.24,9.86-.22,1.37-1.38,1.53-3.54,2.48-5.24,2.64-4.76,9.68-4.1,14.74-2.09,5.48,2.17,10.69,5.15,16.44,6.44s12.46.5,16.41-3.88c5.27-5.85,3.46-15,1.33-22.54,12.63-2.43,16.8-20.11,10.53-31.34s-18.71-17.29-30.39-22.67c5.8-8.13,5.78-19.7.83-28.38S891,731.06,881.13,729.41c-5-.84-10.16-.73-14.86-2.52-11.72-4.45-18.46-19.73-31-20s-23.11,15.48-34.92,11.17c-2.7-1-5-2.94-7.69-3.82-7.67-2.47-15.19,4.38-19,11.46s-6.44,15.44-13.14,19.91c-3.9,2.6-8.7,3.5-12.77,5.82a20.5,20.5,0,0,0,5,37.65c3.22.83,6.76.93,9.52,2.79,2.14,1.45,3.51,3.78,4.8,6l22.5,39.23c1.74,3,3.51,6.15,4.25,9.57,2.4,11.14-6.38,21.32-14.67,29.14-10.24,9.66-21.71,19.43-35.68,21.2,4.7,4.67,2.68,12.13,5.64,18.06,4.18,8.35,13.9,12.36,23.11,14s18.82,1.52,27.53,4.9c1.81.7,3.65,1.56,5.58,1.45S808.26,934,808.41,932.08Z" style="fill:#fffce4;stroke:#0c0d18;stroke-linecap:round;stroke-linejoin:round;stroke-width:8px"/><polyline points="855.39 815.1 837.82 835.26 877.26 820.42" style="fill:#fffce4;stroke:#0c0d18;stroke-linecap:round;stroke-linejoin:round;stroke-width:8px"/><polyline points="819.14 790.6 821.09 825.44 803.18 792.14" style="fill:#fffce4;stroke:#0c0d18;stroke-linecap:round;stroke-linejoin:round;stroke-width:8px"/></svg>