<svg xmlns="http://www.w3.org/2000/svg" height="1924.004" width="1776.16"  xmlns:v="https://vecta.io/nano"><style><![CDATA[.B{stroke-linecap:round}.C{stroke-miterlimit:10}]]></style><g fill="#fff" stroke="#231f20" stroke-width="24" class="C"><path d="M1750.02 184.474l-774.13 863.2c-24.37 27.18-60.15 23-79.32-8.43L787.6 860.864c-15.18-24.87-10.3-63.3 10.5-86.5L1459 37.394c20.8-23.2 58.48-32.22 84.85-19.82l189.17 89c33.3 15.6 41.36 50.72 17 77.9z"/><path d="M1640.57 155.614c-11.44 12.76-32.75 16.64-47.4 8.77l-86.57-46.52c-13.08-7-14.94-22.25-4.33-34.07s29.9-16 43.26-9.34l88.5 44.4c14.96 7.5 17.98 24.02 6.53 36.77zm-878.6 1756.4c344.4 0 748.8-183.26 748.8-599.53 0-98.06-335.25-188.18-748.8-188.18h-1.17c-413.54 0-748.8 90.12-748.8 188.18 0 416.27 404.4 599.53 748.8 599.53"/></g><path d="M757.46 1746.224v-134.9q-37.67 28.9-50.7 28.9a14.94 14.94 0 0 1-11-5 16 16 0 0 1-4.82-11.48q0-7.56 4.74-11.12 4.74-3.56 16.75-9.2 17.94-8.46 28.7-17.8a121.43 121.43 0 0 0 19-20.9q8.3-11.57 10.83-14.23 2.52-2.66 9.48-2.67a15.16 15.16 0 0 1 12.6 6.08q4.75 6.08 4.75 16.75v169.73q0 29.8-20.3 29.8-9 0-14.53-6.08-5.53-6.08-5.48-17.9z" fill="#231f20"/><path d="M1462.32 1306.764c0 47-313.54 116.6-700.3 116.6h-1.2c-386.77 0-700.3-69.62-700.3-116.6" fill="none" stroke="#231f20" stroke-width="24" class="B C"/><g fill="#f9c1c7" stroke="#0d0e19" stroke-width="12" stroke-linejoin="round"><path d="M1119.68 691.854l-40.87 11.5-57.13-73.2 57.52-68.16 40.87-11.5 67.2 70.63z"/><path d="M1114.17 651.904l-24.46-31.93 24.42-31.37m-24.43 31.37l-33.6 9.06" class="B"/><path d="M708.45 1180.914l-36 22.53-75.38-54.2 36.06-81.57 36-22.53 84.34 48.92z"/><g class="B"><path d="M691.95 1144.124l-32.44-23.78 14.63-36.96"/><path d="M659.5 1120.344l-29.7 18.13"/></g><path d="M955.74 864.404l-45.5 12.82-63.6-81.5 64.03-75.9 45.5-12.82 74.82 78.65z"/><g class="B"><path d="M949.6 819.934l-27.23-35.56 27.2-34.92"/><path d="M922.38 784.374l-37.4 10.1"/></g><path d="M863.25 1000.794l-45.5 12.82-63.6-81.5 64.04-75.9 45.5-12.82 74.82 78.65z"/><g class="B"><path d="M857.12 956.324l-27.23-35.56 27.2-34.92"/><path d="M829.9 920.764l-37.4 10.1"/></g><path d="M799.28 1372.394l-40.08 25.08-83.92-60.36 40.15-90.8 40.07-25.1 93.9 54.47z"/><g class="B"><path d="M780.9 1331.434l-36.12-26.48 16.3-41.16"/><path d="M744.78 1304.954l-33.06 20.2"/></g><path d="M971.56 1282.424l-40.07 25.08-83.93-60.36 40.15-90.8 40.07-25.08 93.9 54.47z"/><g class="B"><path d="M953.2 1241.464l-36.12-26.48 16.3-41.15"/><path d="M917.07 1214.984l-33.06 20.2"/></g></g></svg>