<svg id="Layer_1" data-name="Layer 1" xmlns="http://www.w3.org/2000/svg" width="2000" height="2000" viewBox="0 0 2000 2000">
  <g>
    <path d="M1666.39,170.06,988.92,925.47c-21.32,23.78-52.64,20.1-69.42-7.38L824.15,762c-13.29-21.76-9-55.4,9.2-75.7L1411.72,41.35C1429.93,21,1462.9,13.15,1486,24l165.56,77.85C1680.66,115.55,1687.72,146.28,1666.39,170.06Z" style="fill: #fff;stroke: #3a3632;stroke-miterlimit: 10;stroke-width: 20px"/>
    <path d="M1570.61,144.8c-10,11.17-28.67,14.57-41.48,7.68l-75.75-40.74c-11.45-6.15-13.08-19.46-3.8-29.81s26.16-14,37.87-8.17l77.44,38.85C1578,119.18,1580.63,133.63,1570.61,144.8Z" style="fill: #fff;stroke: #3a3632;stroke-miterlimit: 10;stroke-width: 20px"/>
  </g>
  <g>
    <path d="M871.9,668.41a7,7,0,0,0,3-.64,6.6,6.6,0,0,0,3.69-5.12,4.52,4.52,0,0,1,.45-2c.77-1.16,2.48-.93,3.87-1a6.83,6.83,0,0,0,4.75-2.19c2-2.13,2.35-5.25,2.42-8.14,0-2.33.18-5.11,2.16-6.34,1.6-1,3.73-.48,5.41-1.29,2.45-1.18,2.88-4.47,2.58-7.17s-1-5.64.43-8c1.48-2.51,3.86-2.15,5.79-3.76a7.44,7.44,0,0,0,2.31-6.94c-.52-2.43-2.24-4.48-2.64-6.93-.43-2.61.71-5.33.06-7.89-.73-2.89-3.57-4.9-4.21-7.81-1.06-4.76,4.17-9.42,2.7-14.07-1.12-3.55-5.67-5.19-6.67-8.77-.8-2.86,1-5.94.3-8.84-1-4.2-5.89-5.1-7.67-8.61-2.2-4.35.7-11.1-1-16.24-1.51-4.57-5.74-8.63-10.54-8.28a7.57,7.57,0,0,1-2,.06c-2.54-.48-2.88-3.94-4.41-6-3.14-4.28-11-2.19-14.11-6.49-.68-.94-1-2.1-1.74-3a6.77,6.77,0,0,0-5.83-2.33c-4.84.27-7.45,2.59-11.46-1.41-2.69-2.68-3.63-6.88-7.82-7.79a8.25,8.25,0,0,0-3.79.22,12.82,12.82,0,0,0-8.28,6.63c-1.38,2.93-.18,6.56-4.23,7.83-1.68.52-3.58.17-5.17.93-2.23,1-3.13,4-2.72,6.48.33,2,1.23,4.4-.13,5.85-1.9,2-6,1.49-8.34,3.2-1.85,1.35-3.09,3.79-2.4,6a24.9,24.9,0,0,0,1.88,3.33c2.89,5.76-2,10.87,3.71,15.8,2.81,2.45,6.49,4.4,7.63,8,1.56,4.81-2.19,10.82.94,14.78,2.25,2.84,6.84,2.79,9.2,5.53s1.33,7.25.07,10.82-2.39,7.94.07,10.83c1.08,1.26,2.71,2,3.75,3.29,2.08,2.6,1.15,6.52-.7,9.29s-4.49,5-6,8c-1.7,3.35-2.13,8.57.43,11.54s7,2.88,9.66,5.71c3.82,4.13-2.59,8.68,1.86,12.93,2,1.92,3.63,2.46,6.13,3.49,2.33,1,2.95,3.88,4.82,5.59a5.39,5.39,0,0,0,4.29,1.33,7.35,7.35,0,0,0,4.2-1.62c1-.95,1.51-2.57,2.58-3.44,1.51-1.23,3.63-.52,5.4.48s3.56,2.31,5.42,2.19c1.12-.08,2.15-.68,3.27-.72,2.08-.08,2.66,1.33,4.14,2.24A4.74,4.74,0,0,0,871.9,668.41Z" style="fill: #006838;stroke: #3a3632;stroke-linecap: round;stroke-miterlimit: 10;stroke-width: 10px"/>
    <path d="M970.55,543c15.86,3.27,21.45,34.66,6.44,41.61-14.33,1.83-19.69.19-33.7,5.4-12.79,4.76-49.06,34.21-49.06,34.21l-7.06-8.77s27.62-24.19,26.41-28.27c-1.35-4.54-43.22.12-43.22.12l-3.58-16s42.67-5,42.85-8.26c.26-4.54-42.29-17.68-42.29-17.68l3.76-10.51c10.34,2.5,51.22,14.79,61.41,14.75C952.48,549.44,961.84,546.35,970.55,543Z" style="fill: #82c14c;stroke: #3a3632;stroke-linecap: round;stroke-linejoin: round;stroke-width: 10px"/>
    <path d="M816,488a9.76,9.76,0,0,0-3.78.74,8.12,8.12,0,0,0-4.8,6,5.07,5.07,0,0,1-.62,2.37c-1,1.37-3.15,1.08-4.89,1.14a9.13,9.13,0,0,0-6.05,2.57c-2.52,2.51-3.12,6.18-3.29,9.6-.14,2.75-.39,6-2.93,7.47-2,1.15-4.7.55-6.84,1.5-3.11,1.38-3.76,5.27-3.47,8.46s1,6.66-.79,9.41c-1.94,3-4.92,2.52-7.4,4.41a8.66,8.66,0,0,0-3.11,8.2c.57,2.86,2.66,5.29,3.09,8.18.45,3.08-1.07,6.29-.33,9.32.83,3.41,4.32,5.8,5,9.23,1.18,5.63-5.54,11.11-3.84,16.61,1.29,4.19,7,6.14,8.09,10.37.92,3.38-1.41,7-.66,10.43,1.09,5,7.25,6.05,9.36,10.2,2.63,5.15-1.23,13.1.72,19.17,1.75,5.4,6.93,10.21,13,9.82a10.14,10.14,0,0,1,2.46-.06c3.17.58,3.5,4.66,5.35,7.13,3.81,5.07,13.73,2.63,17.51,7.72.84,1.12,1.25,2.48,2.1,3.59,1.58,2.06,4.51,2.91,7.25,2.77,6.09-.3,9.44-3,14.35,1.71,3.3,3.17,4.34,8.14,9.59,9.23a11,11,0,0,0,4.76-.25,16.5,16.5,0,0,0,10.62-7.79c1.83-3.45.43-7.74,5.56-9.22,2.13-.61,4.5-.19,6.53-1.08,2.83-1.22,4-4.67,3.62-7.64-.35-2.38-1.4-5.19.35-6.9,2.46-2.4,7.57-1.74,10.58-3.75,2.37-1.59,4-4.45,3.21-7-.45-1.44-1.57-2.6-2.25-3.95-3.45-6.8,2.8-12.81-4.16-18.66-3.46-2.9-8-5.22-9.34-9.42-1.8-5.68,3.1-12.76-.71-17.45-2.72-3.36-8.5-3.31-11.37-6.57s-1.45-8.56.25-12.77,3.26-9.36.27-12.77c-1.33-1.51-3.35-2.37-4.62-3.91-2.53-3.07-1.23-7.7,1.18-11s5.8-5.87,7.79-9.36c2.25-3.94,3-10.11-.16-13.62s-8.76-3.44-12-6.78c-4.67-4.9,3.53-10.24-1.92-15.28-2.45-2.27-4.48-2.92-7.59-4.14-2.9-1.14-3.59-4.6-5.88-6.62a7,7,0,0,0-5.34-1.59,9.91,9.91,0,0,0-5.34,1.9c-1.29,1.12-2,3-3.35,4-1.93,1.45-4.58.6-6.76-.59s-4.41-2.74-6.75-2.6c-1.41.08-2.72.79-4.14.84-2.6.08-3.29-1.59-5.12-2.67A6.23,6.23,0,0,0,816,488Z" style="fill: #009444;stroke: #3a3632;stroke-linecap: round;stroke-miterlimit: 10;stroke-width: 10px"/>
  </g>
  <g>
    <path d="M1016.69,411.48a7.07,7.07,0,0,0-1.11,2.84,6.62,6.62,0,0,0,2.24,5.9,4.48,4.48,0,0,1,1.43,1.48c.54,1.28-.6,2.58-1.32,3.77a6.84,6.84,0,0,0-.78,5.17c.7,2.81,3.07,4.86,5.45,6.51,1.92,1.33,4.17,3,4.1,5.3-.06,1.86-1.66,3.37-1.91,5.22-.36,2.69,2.15,4.87,4.57,6.11s5.22,2.31,6.42,4.75c1.28,2.62-.34,4.41-.06,6.9a7.46,7.46,0,0,0,4.53,5.76c2.3.9,5,.6,7.23,1.61,2.41,1.09,4,3.54,6.55,4.4,2.81,1,6-.27,8.83.79,4.56,1.74,5.57,8.67,10.26,10,3.58,1,7.45-1.87,11-.73,2.83.91,4.42,4.09,7.21,5.12,4,1.51,7.5-2.1,11.41-1.65,4.85.56,8.88,6.7,14.09,8.13,4.65,1.26,10.37,0,12.72-4.23a7.83,7.83,0,0,1,1-1.66c1.8-1.86,4.88-.24,7.46-.37,5.31-.26,7.88-8,13.19-8.19,1.17-.05,2.33.29,3.5.22a6.76,6.76,0,0,0,5.15-3.58c2.44-4.19,2-7.64,7.49-8.79,3.72-.77,7.74.77,10.81-2.23a8.23,8.23,0,0,0,1.91-3.28,12.87,12.87,0,0,0-1-10.57c-1.68-2.77-5.38-3.76-4.2-7.84.49-1.69,1.83-3.08,2.08-4.83.35-2.43-1.59-4.79-3.92-5.84-1.86-.83-4.34-1.39-4.81-3.33-.65-2.71,2.06-5.81,1.93-8.72-.11-2.29-1.45-4.67-3.66-5.3a26.84,26.84,0,0,0-3.82-.27c-6.39-.76-8-7.61-15.22-5.6-3.6,1-7.25,3-10.84,2-4.87-1.35-7.82-7.79-12.85-7.36-3.61.3-6.1,4.17-9.69,4.62-3.76.48-6.78-2.88-9.07-5.9s-5.3-6.37-9.06-5.91c-1.66.21-3.16,1.16-4.82,1.32-3.31.3-6.08-2.64-7.36-5.71s-1.69-6.49-3.33-9.38c-1.86-3.27-6-6.51-9.86-6s-6.29,4.29-10.09,4.91c-5.56.92-5.82-6.94-11.82-5.58-2.71.62-4,1.68-6.29,3.2s-4.87.32-7.32.94a5.37,5.37,0,0,0-3.47,2.85,7.32,7.32,0,0,0-1,4.4c.24,1.36,1.31,2.67,1.45,4,.2,1.94-1.57,3.33-3.38,4.24s-3.89,1.7-4.81,3.32c-.55,1-.62,2.17-1.2,3.13-1.08,1.78-2.58,1.49-4.15,2.22A4.74,4.74,0,0,0,1016.69,411.48Z" style="fill: #006838;stroke: #3a3632;stroke-linecap: round;stroke-miterlimit: 10;stroke-width: 10px"/>
    <path d="M1067,562.93c-11.47,11.42-40.74-1.21-38.27-17.56,6.37-13,10.7-16.54,14.07-31.1,3.08-13.29-1.5-59.79-1.5-59.79l11.2-1.05s5,36.37,9,37.61c4.53,1.38,23.72-36.13,23.72-36.13l15.35,5.86s-19.37,38.34-16.71,40.31c3.64,2.72,38.06-25.55,38.06-25.55l6.7,8.93c-7.79,7.26-40.58,34.59-46.16,43.11C1071.55,544.27,1069,553.79,1067,562.93Z" style="fill: #82c14c;stroke: #3a3632;stroke-linecap: round;stroke-linejoin: round;stroke-width: 10px"/>
    <path d="M1198,464.28a9.59,9.59,0,0,0,1.47-3.55,8.12,8.12,0,0,0-2.39-7.33,5.22,5.22,0,0,1-1.64-1.83c-.58-1.59.84-3.22,1.75-4.71a9.09,9.09,0,0,0,1.18-6.46c-.7-3.49-3.43-6-6.18-8-2.23-1.64-4.83-3.65-4.63-6.56.16-2.33,2.13-4.22,2.52-6.53.56-3.36-2.33-6-5.15-7.56s-6.11-2.82-7.42-5.85c-1.4-3.25.62-5.5.4-8.6a8.66,8.66,0,0,0-5.11-7.12c-2.71-1.1-5.9-.69-8.54-1.93-2.82-1.32-4.66-4.36-7.59-5.41-3.3-1.19-7.22.41-10.48-.88-5.34-2.12-6.22-10.75-11.74-12.36-4.21-1.23-9,2.41-13.12,1-3.33-1.1-5.07-5.05-8.34-6.3-4.74-1.83-9,2.71-13.67,2.19-5.74-.65-10.25-8.26-16.39-10-5.47-1.52-12.34.16-15.34,5.42a10.59,10.59,0,0,1-1.31,2.08c-2.23,2.33-5.82.35-8.9.54-6.33.38-9.76,10-16.09,10.36-1.4.07-2.76-.34-4.15-.24-2.6.19-4.92,2.16-6.31,4.52-3.11,5.26-2.68,9.55-9.34,11-4.47,1-9.18-.86-13,2.91a11,11,0,0,0-2.42,4.11,16.47,16.47,0,0,0,.65,13.16c1.87,3.43,6.22,4.62,4.62,9.72-.66,2.11-2.31,3.86-2.7,6-.53,3,1.67,6,4.39,7.23,2.17,1,5.1,1.69,5.56,4.1.65,3.37-2.72,7.27-2.7,10.89,0,2.85,1.5,5.81,4.1,6.56,1.45.42,3,.12,4.53.29,7.58.88,9.15,9.4,17.86,6.82,4.33-1.29,8.77-3.81,13-2.6,5.73,1.63,8.94,9.62,14.95,9,4.31-.42,7.45-5.27,11.75-5.88,4.5-.63,7.94,3.51,10.52,7.25s6,7.89,10.51,7.27c2-.28,3.81-1.49,5.8-1.7,4-.42,7.11,3.22,8.5,7s1.7,8.07,3.52,11.65c2,4.05,6.8,8,11.45,7.38,4.48-.64,7.7-5.42,12.25-6.24,6.66-1.21,6.6,8.58,13.8,6.82,3.25-.8,4.91-2.14,7.65-4.06,2.55-1.79,5.8-.46,8.75-1.25a7,7,0,0,0,4.28-3.59,9.88,9.88,0,0,0,1.36-5.5c-.23-1.7-1.44-3.31-1.54-5-.14-2.42,2-4.16,4.22-5.32s4.72-2.17,5.89-4.2c.71-1.22.84-2.71,1.58-3.91,1.37-2.22,3.14-1.88,5-2.81A6.16,6.16,0,0,0,1198,464.28Z" style="fill: #009444;stroke: #3a3632;stroke-linecap: round;stroke-miterlimit: 10;stroke-width: 10px"/>
  </g>
  <g>
    <path d="M580.56,733.76a7,7,0,0,0,1.17,2.83,6.64,6.64,0,0,0,5.7,2.7,4.46,4.46,0,0,1,2.06.07c1.28.55,1.36,2.27,1.66,3.63a6.91,6.91,0,0,0,3,4.27c2.46,1.54,5.59,1.36,8.44.9,2.31-.37,5.07-.75,6.63,1,1.25,1.39,1.15,3.58,2.25,5.09,1.61,2.19,4.93,2,7.53,1.23s5.37-2,7.92-1c2.74,1,2.81,3.42,4.74,5a7.45,7.45,0,0,0,7.25,1c2.29-1,4-3,6.33-3.85,2.49-.9,5.38-.27,7.78-1.38,2.7-1.24,4.17-4.39,6.91-5.55,4.49-1.91,10,2.38,14.33.09,3.29-1.74,4.07-6.5,7.41-8.14,2.67-1.31,6-.12,8.75-1.31,3.95-1.72,3.94-6.72,7.08-9.1,3.88-3,11-1.33,15.78-3.92,4.23-2.31,7.45-7.21,6.24-11.87a7.41,7.41,0,0,1-.41-1.91c0-2.58,3.35-3.55,5.12-5.43,3.64-3.87.16-11.2,3.82-15.05.81-.85,1.88-1.41,2.67-2.26a6.77,6.77,0,0,0,1.23-6.16c-1.14-4.71-3.89-6.85-.69-11.53,2.14-3.13,6.11-4.81,6.24-9.1a8.23,8.23,0,0,0-.9-3.69,12.83,12.83,0,0,0-8-6.94c-3.13-.83-6.48,1-8.46-2.74-.82-1.56-.82-3.48-1.85-4.92-1.43-2-4.47-2.35-6.87-1.49-1.92.69-4.1,2-5.78.94-2.35-1.51-2.55-5.62-4.66-7.62-1.66-1.58-4.28-2.36-6.3-1.28a24.32,24.32,0,0,0-2.94,2.45c-5.14,3.88-11,0-14.86,6.51-1.9,3.22-3.15,7.18-6.44,8.95-4.44,2.41-11-.19-14.36,3.61-2.39,2.72-1.5,7.23-3.77,10.05s-6.89,2.62-10.63,2-8.24-.91-10.63,2c-1,1.3-1.47,3-2.56,4.29-2.17,2.52-6.21,2.31-9.26,1s-5.72-3.5-8.91-4.45c-3.6-1.07-8.81-.54-11.27,2.51s-1.56,7.45-3.86,10.54c-3.37,4.51-9-1-12.38,4.17-1.53,2.32-1.76,4-2.32,6.67-.52,2.46-3.28,3.6-4.62,5.75a5.38,5.38,0,0,0-.53,4.46,7.33,7.33,0,0,0,2.35,3.84c1.12.82,2.8,1,3.85,1.91,1.49,1.26,1.18,3.48.51,5.39s-1.62,3.93-1.16,5.73c.27,1.09,1,2,1.3,3.09.45,2-.83,2.86-1.46,4.48A4.81,4.81,0,0,0,580.56,733.76Z" style="fill: #006838;stroke: #3a3632;stroke-linecap: round;stroke-miterlimit: 10;stroke-width: 10px"/>
    <path d="M721.83,808c-.35,16.19-30.2,27.38-39.75,13.88-4.41-13.76-3.76-19.33-11.43-32.16-7-11.71-42.55-42-42.55-42l7.34-8.53S664.24,761.93,668,760c4.22-2.15-8-42.48-8-42.48l15.13-6.43s12.62,41,15.91,40.64c4.5-.57,9.7-44.8,9.7-44.8l11,1.79c-.58,10.63-5.25,53-3.36,63.07C712.17,791.41,716.91,800.05,721.83,808Z" style="fill: #82c14c;stroke: #3a3632;stroke-linecap: round;stroke-linejoin: round;stroke-width: 10px"/>
    <path d="M747.81,646.09a9.49,9.49,0,0,0-1.41-3.58,8.12,8.12,0,0,0-6.8-3.62,5.2,5.2,0,0,1-2.45-.19c-1.52-.74-1.63-2.89-2-4.6a9.15,9.15,0,0,0-3.63-5.48c-2.92-2-6.64-2-10-1.5-2.74.36-6,.72-7.88-1.52-1.5-1.79-1.4-4.52-2.72-6.45-1.92-2.81-5.86-2.74-8.95-1.88s-6.36,2.21-9.4.93c-3.26-1.37-3.37-4.38-5.68-6.47a8.62,8.62,0,0,0-8.62-1.58c-2.71,1.08-4.72,3.58-7.49,4.52-3,1-6.38.1-9.22,1.37-3.2,1.43-4.92,5.3-8.16,6.63-5.32,2.18-11.93-3.43-17-.76-3.89,2-4.78,8-8.73,9.84-3.16,1.52-7.15-.12-10.38,1.24-4.69,2-4.63,8.23-8.33,11.06-4.59,3.52-13.11,1.17-18.72,4.19-5,2.69-8.79,8.67-7.3,14.54a10.66,10.66,0,0,1,.5,2.41c0,3.22-4,4.29-6,6.55-4.29,4.67-.09,14-4.41,18.63-.95,1-2.22,1.67-3.15,2.71-1.75,1.93-2,5-1.41,7.63,1.4,5.94,4.68,8.74.92,14.43-2.52,3.82-7.21,5.74-7.33,11.1a10.83,10.83,0,0,0,1.1,4.64,16.48,16.48,0,0,0,9.59,9c3.73,1.18,7.69-1,10.07,3.8,1,2,1,4.39,2.25,6.23,1.72,2.55,5.33,3.14,8.17,2.17,2.28-.77,4.85-2.32,6.85-.91,2.81,2,3.09,7.13,5.61,9.72,2,2.05,5.11,3.14,7.5,1.88,1.33-.7,2.26-2,3.47-2.93,6.07-4.62,13.11.43,17.59-7.47,2.23-3.93,3.69-8.82,7.57-10.89,5.26-2.81,13.11.73,17-3.86,2.81-3.3,1.71-9,4.39-12.38,2.8-3.58,8.16-3,12.61-2.07s9.8,1.51,12.61-2.06c1.23-1.57,1.71-3.71,3-5.24,2.56-3,7.35-2.62,11-.83s6.83,4.63,10.62,6c4.29,1.49,10.48,1.07,13.37-2.63s1.79-9.24,4.5-13c4-5.49,10.7,1.61,14.67-4.66,1.79-2.83,2.06-4.94,2.7-8.22.59-3.06,3.86-4.36,5.44-7a7,7,0,0,0,.59-5.55,9.85,9.85,0,0,0-2.83-4.9c-1.34-1.07-3.34-1.39-4.59-2.56-1.78-1.64-1.43-4.4-.65-6.76s1.9-4.83,1.33-7.1c-.34-1.37-1.27-2.54-1.57-3.92-.56-2.55,1-3.53,1.69-5.52A6.22,6.22,0,0,0,747.81,646.09Z" style="fill: #009444;stroke: #3a3632;stroke-linecap: round;stroke-miterlimit: 10;stroke-width: 10px"/>
  </g>
  <g>
    <path d="M1057.78,720a7.22,7.22,0,0,0,2.93-.86,6.65,6.65,0,0,0,3.3-5.39,4.51,4.51,0,0,1,.29-2c.68-1.21,2.4-1.1,3.78-1.26a6.88,6.88,0,0,0,4.58-2.55c1.79-2.27,1.95-5.4,1.8-8.29-.13-2.34-.21-5.12,1.68-6.49,1.51-1.09,3.68-.76,5.3-1.69,2.35-1.36,2.53-4.68,2-7.35s-1.38-5.55-.18-8c1.29-2.61,3.7-2.43,5.5-4.18a7.44,7.44,0,0,0,1.77-7.1c-.7-2.38-2.57-4.3-3.15-6.71-.62-2.57.31-5.37-.53-7.87-1-2.82-3.93-4.62-4.79-7.47-1.41-4.67,3.45-9.71,1.63-14.24-1.38-3.45-6-4.74-7.31-8.24-1-2.79.53-6-.36-8.83-1.29-4.12-6.26-4.64-8.3-8-2.52-4.18-.14-11.13-2.2-16.12-1.85-4.45-6.37-8.17-11.13-7.46a8.08,8.08,0,0,1-2,.2c-2.57-.29-3.17-3.71-4.85-5.67-3.46-4-11.12-1.36-14.56-5.42-.75-.89-1.19-2-2-2.89a6.77,6.77,0,0,0-6-1.88c-4.81.63-7.23,3.14-11.54-.55-2.89-2.46-4.13-6.58-8.39-7.17a8.09,8.09,0,0,0-3.76.5,12.81,12.81,0,0,0-7.75,7.24c-1.16,3,.32,6.55-3.63,8.11-1.64.65-3.56.45-5.09,1.32-2.14,1.21-2.82,4.19-2.22,6.67.48,2,1.56,4.29.31,5.84-1.74,2.18-5.85,1.94-8.07,3.83-1.75,1.48-2.81,4-2,6.13a25.2,25.2,0,0,0,2.13,3.18c3.31,5.52-1.13,11,4.89,15.47,3,2.23,6.79,3.9,8.21,7.36,1.91,4.67-1.38,10.95,2,14.67,2.44,2.66,7,2.26,9.58,4.82s1.88,7.12.89,10.78-1.79,8.1.88,10.79c1.17,1.18,2.85,1.78,4,3,2.27,2.43,1.64,6.42,0,9.31s-4.1,5.32-5.38,8.39c-1.45,3.46-1.48,8.7,1.29,11.47s7.24,2.35,10.06,5c4.13,3.83-1.92,8.85,2.83,12.76,2.14,1.76,3.81,2.17,6.38,3,2.4.78,3.23,3.65,5.22,5.21a5.42,5.42,0,0,0,4.38,1,7.44,7.44,0,0,0,4.07-1.93c.93-1,1.31-2.68,2.31-3.63,1.41-1.34,3.59-.8,5.42.07s3.73,2,5.57,1.77c1.11-.16,2.1-.83,3.21-1,2.07-.24,2.76,1.13,4.3,1.92A4.67,4.67,0,0,0,1057.78,720Z" style="fill: #006838;stroke: #3a3632;stroke-linecap: round;stroke-miterlimit: 10;stroke-width: 10px"/>
    <path d="M1146.71,587.45c11.64,2.73,19.2,33.66,9.55,41-14.16,2.91-19.63,1.68-33.2,7.93-12.39,5.7-46.35,37.8-46.35,37.8L1069,666s25.71-26.2,24.2-30.18c-1.69-4.42-43.09,3.37-43.09,3.37l-4.77-15.73s42.17-8.16,42.1-11.47c-.08-4.54-43.5-14.44-43.5-14.44l3-10.76c10.51,1.71,52.2,10.89,62.35,10.09C1129.17,595.27,1138.27,591.48,1146.71,587.45Z" style="fill: #82c14c;stroke: #3a3632;stroke-linecap: round;stroke-linejoin: round;stroke-width: 10px"/>
    <path d="M988.5,544.3a9.35,9.35,0,0,0-3.71,1,8.12,8.12,0,0,0-4.34,6.37,5.16,5.16,0,0,1-.44,2.41c-.9,1.44-3.06,1.32-4.79,1.51a9.08,9.08,0,0,0-5.83,3c-2.34,2.69-2.65,6.39-2.57,9.81.07,2.76.07,6-2.36,7.67-1.93,1.3-4.64.91-6.7,2-3,1.61-3.35,5.54-2.82,8.69s1.51,6.56-.08,9.45c-1.72,3.1-4.73,2.88-7.05,5a8.63,8.63,0,0,0-2.49,8.41c.78,2.81,3.06,5.08,3.7,7.93.68,3-.59,6.35.37,9.31,1.08,3.34,4.75,5.46,5.72,8.83,1.6,5.52-4.68,11.49-2.58,16.85,1.61,4.08,7.39,5.6,8.86,9.73,1.16,3.3-.89,7.1.12,10.45,1.46,4.87,7.68,5.48,10.1,9.47,3,4.93-.24,13.16,2.16,19.06,2.15,5.26,7.68,9.66,13.68,8.81a10.77,10.77,0,0,1,2.45-.24c3.21.33,3.84,4.38,5.87,6.7,4.18,4.77,13.89,1.59,18.05,6.38.91,1.06,1.42,2.39,2.35,3.43,1.74,1.94,4.72,2.56,7.44,2.22,6.05-.77,9.19-3.73,14.45.62,3.53,2.91,4.94,7.79,10.25,8.48a11.1,11.1,0,0,0,4.73-.6,16.48,16.48,0,0,0,10-8.58c1.56-3.57-.16-7.75,4.85-9.6,2.08-.77,4.48-.54,6.43-1.57,2.73-1.44,3.69-5,3-7.89-.53-2.35-1.79-5.08-.18-6.91,2.28-2.58,7.42-2.31,10.27-4.54,2.25-1.76,3.67-4.74,2.67-7.25-.55-1.41-1.75-2.47-2.54-3.77-3.95-6.52,1.83-13-5.55-18.29-3.67-2.64-8.38-4.61-10-8.69-2.22-5.53,2.13-13-2-17.35-3-3.15-8.73-2.66-11.84-5.69s-2.08-8.43-.71-12.76,2.56-9.58-.69-12.75c-1.43-1.4-3.51-2.11-4.9-3.55-2.75-2.87-1.81-7.59.36-11s5.34-6.29,7.06-9.92c1.94-4.1,2.18-10.3-1.19-13.57s-9-2.77-12.43-5.86c-5-4.53,2.74-10.48-3.07-15.09-2.62-2.08-4.69-2.57-7.88-3.56-3-.92-3.92-4.31-6.36-6.16a7,7,0,0,0-5.45-1.18,9.91,9.91,0,0,0-5.18,2.29c-1.2,1.22-1.74,3.17-3,4.29-1.82,1.59-4.53.95-6.79-.07s-4.6-2.41-6.92-2.09c-1.4.19-2.66,1-4.07,1.15-2.59.28-3.4-1.34-5.31-2.28A6.07,6.07,0,0,0,988.5,544.3Z" style="fill: #009444;stroke: #3a3632;stroke-linecap: round;stroke-miterlimit: 10;stroke-width: 10px"/>
    <path d="M1146.71,587.45a37.83,37.83,0,0,0-1.06,21.51c2.65,11.14,10.61,19.49,10.61,19.49" style="fill: #82c14c;stroke: #3a3632;stroke-linecap: round;stroke-linejoin: round;stroke-width: 10px"/>
  </g>
  <g>
    <path d="M768,773.62a10.46,10.46,0,0,0,.67,4.39,9.62,9.62,0,0,0,7.12,5.78,6.68,6.68,0,0,1,2.89.82c1.61,1.21,1.13,3.67,1.09,5.69a10,10,0,0,0,2.79,7.09c2.93,3,7.41,3.85,11.6,4.19,3.39.27,7.41.68,9,3.67,1.29,2.39.39,5.45,1.42,8,1.51,3.65,6.26,4.55,10.2,4.34s8.26-.91,11.54,1.29c3.52,2.36,2.79,5.79,5,8.72a10.79,10.79,0,0,0,9.89,3.93c3.56-.54,6.69-2.87,10.27-3.25,3.82-.4,7.68,1.48,11.45.75,4.25-.82,7.41-4.76,11.68-5.46,7-1.13,13.33,6.84,20.21,5.1,5.24-1.33,8-7.78,13.28-8.94,4.22-.93,8.54,1.91,12.8,1.18,6.18-1.06,7.89-8.13,13.14-10.41,6.5-2.83,16.06,1.94,23.64-.08,6.77-1.79,13-7.6,12.91-14.6a10.79,10.79,0,0,1,.09-2.84c.9-3.64,6-3.86,9.1-5.9,6.48-4.2,4.1-15.76,10.6-19.93,1.43-.91,3.14-1.33,4.56-2.27,2.64-1.75,3.86-5.1,3.86-8.26,0-7.06-3.13-11,3-16.53,4.11-3.68,10.29-4.68,12-10.7a11.93,11.93,0,0,0,0-5.51,18.67,18.67,0,0,0-8.93-12.58c-4.14-2.25-9.51-.8-11-6.79-.62-2.48,0-5.21-.92-7.58-1.33-3.32-5.5-4.87-9.18-4.49-2.95.31-6.49,1.42-8.48-.67-2.8-2.94-1.67-8.82-4-12.38-1.81-2.8-5.24-4.81-8.46-4-1.8.46-3.29,1.71-5,2.44-8.59,3.71-15.6-3.74-23.23,4.07-3.8,3.88-6.94,9-12.19,10.41-7.1,1.86-15.51-4.09-21.53.12-4.31,3-4.61,9.7-8.79,12.89-4.38,3.34-10.63,1.33-15.71-.8s-11.33-4.14-15.71-.81c-1.94,1.46-3.12,3.76-5.1,5.17-3.94,2.8-9.57,1.12-13.42-1.8s-6.87-6.93-11-9.37c-4.72-2.75-12.26-3.81-16.78-.35-4.36,3.34-4.78,10-9.1,13.54-6.32,5.21-12.38-4.47-18.93,1.62-3,2.74-3.87,5.06-5.57,8.61-1.59,3.3-5.89,4-8.52,6.52a7.87,7.87,0,0,0-2.29,6.12,10.68,10.68,0,0,0,2,6.24c1.3,1.53,3.6,2.4,4.78,4,1.66,2.3.45,5.32-1.15,7.8s-3.66,5-3.63,7.68c0,1.64.8,3.18.77,4.82-.06,3-2.16,3.75-3.6,5.81A6.83,6.83,0,0,0,768,773.62Z" style="fill: #006838;stroke: #3a3632;stroke-linecap: round;stroke-miterlimit: 10;stroke-width: 10px"/>
    <path d="M945.24,924.2c-8,22.95-64.43,29.6-74.68,7.39-1.27-21,2.39-28.71-4.91-49.38-6.66-18.86-43.77-61.6-43.77-61.6l16.52-9.86s29,29.87,36.39,28.29c8.24-1.74,7.89-43.94,7.89-43.94l29-4.44s.77,43.36,6.6,43.79c8,.59,32.91-52.31,32.91-52.31l11.87,21c-5.86,15-22.78,50.42-24.12,65.27C936.24,897.54,940.43,911.33,945.24,924.2Z" style="fill: #82c14c;stroke: #3a3632;stroke-linecap: round;stroke-linejoin: round;stroke-width: 10px"/>
    <path d="M1045.31,713.89a13,13,0,0,0-.76-5.54,12.1,12.1,0,0,0-8.86-7.41,8.23,8.23,0,0,1-3.62-1.09c-2-1.55-1.35-4.65-1.27-7.19a12.58,12.58,0,0,0-3.37-9c-3.64-3.86-9.26-5-14.54-5.5-4.25-.4-9.31-1-11.28-4.79-1.58-3-.39-6.87-1.64-10-1.83-4.62-7.79-5.85-12.76-5.66s-10.41,1-14.5-1.83c-4.4-3-3.41-7.34-6.09-11.08a13.61,13.61,0,0,0-12.38-5.12c-4.5.62-8.48,3.49-13,3.89-4.82.44-9.63-2-14.4-1.15-5.36,1-9.42,5.86-14.81,6.65-8.83,1.3-16.65-8.86-25.34-6.79-6.62,1.57-10.21,9.65-16.88,11-5.33,1.08-10.72-2.57-16.1-1.73-7.8,1.23-10.09,10.09-16.73,12.87-8.25,3.44-20.19-2.75-29.78-.35-8.55,2.14-16.52,9.32-16.51,18.14a13.72,13.72,0,0,1-.17,3.57c-1.2,4.58-7.56,4.75-11.57,7.26-8.24,5.17-5.46,19.77-13.72,24.89-1.82,1.13-4,1.63-5.78,2.78-3.35,2.16-5,6.34-5,10.33-.14,8.88,3.74,14-4.08,20.75-5.25,4.56-13.05,5.71-15.26,13.25A14.93,14.93,0,0,0,735,772a23.44,23.44,0,0,0,11,16c5.16,2.91,12,1.18,13.71,8.75.74,3.14-.14,6.56,1,9.57,1.62,4.19,6.83,6.23,11.48,5.81,3.72-.33,8.19-1.66,10.66,1,3.47,3.75,1.93,11.13,4.74,15.65,2.22,3.56,6.5,6.16,10.58,5.18,2.27-.55,4.17-2.09,6.33-3,10.89-4.51,19.57,5,29.33-4.68,4.85-4.81,8.9-11.25,15.53-12.88,9-2.21,19.46,5.44,27.11.24,5.48-3.71,6-12.11,11.32-16,5.57-4.12,13.4-1.48,19.76,1.3s14.18,5.42,19.76,1.31c2.46-1.81,4-4.68,6.52-6.42,5-3.45,12.06-1.23,16.86,2.52s8.51,8.85,13.72,12c5.89,3.55,15.37,5,21.12.76,5.55-4.12,6.2-12.49,11.7-16.89,8.06-6.44,15.51,5.87,23.87-1.67,3.77-3.41,5-6.31,7.18-10.74,2.06-4.13,7.48-4.87,10.84-8a9.91,9.91,0,0,0,3-7.66c-.09-2.58-.65-5.77-2.4-7.89-1.61-2-4.49-3.09-5.94-5.16-2-2.92-.48-6.71,1.59-9.79s4.69-6.2,4.71-9.61c0-2.06-.95-4-.88-6.08.13-3.79,2.78-4.67,4.64-7.25A8.72,8.72,0,0,0,1045.31,713.89Z" style="fill: #009444;stroke: #3a3632;stroke-linecap: round;stroke-miterlimit: 10;stroke-width: 10px"/>
  </g>
  <g>
    <path d="M685.28,875a4.34,4.34,0,0,1,2.92.14c2,.88,3.72,3.53,4.31,6.78a9.74,9.74,0,0,0,.75,2.94c.92,1.56,2.49.73,3.81.43a4.84,4.84,0,0,1,4.83,2c2.19,2.71,3.07,7.33,3.61,11.72.43,3.54,1,7.73,3.07,9,1.66,1.05,3.59-.29,5.31.48,2.49,1.12,3.44,6,3.6,10.21s0,8.84,1.7,12c1.81,3.42,4,2.2,6.07,4.13s3.4,6.12,3.31,9.94-1.38,7.43-1.36,11.27c0,4.09,1.54,7.92,1.35,12-.22,4.59-2.56,8.44-2.69,13-.22,7.54,5.46,13.2,4.84,20.68-.48,5.71-4.49,9.46-4.85,15.18-.28,4.58,1.89,8.78,1.73,13.37-.23,6.67-4.72,9.39-5.81,15.22-1.37,7.24,2.47,16.72,1.72,25-.67,7.38-4,14.72-8.57,15.51a4.85,4.85,0,0,0-1.85.46c-2.31,1.42-2.08,6.79-3.17,10.38-2.26,7.39-10,6.36-12.23,13.76-.49,1.63-.63,3.49-1.14,5.11a7.09,7.09,0,0,1-5.11,5.14c-4.6.92-7.44-1.88-10.56,5.3-2.1,4.83-2.3,11.48-6.1,14a5.16,5.16,0,0,1-3.6.71c-3.44-.44-6.88-3.23-8.88-7.82-1.78-4.08-1.24-9.94-5.26-10.74-1.67-.34-3.4.71-5,0-2.26-1-3.59-5.18-3.61-9.13,0-3.15.44-7-1.08-8.87-2.13-2.58-5.88-.62-8.37-2.58a10.06,10.06,0,0,1-3.24-8.42,55,55,0,0,1,1.22-5.59c1.78-9.56-3.61-16,.92-25.07,2.25-4.5,5.38-8.48,5.89-14.21.68-7.75-3.84-15.86-1.54-22.76,1.65-4.94,6-6.12,7.76-10.95,1.85-5.05.07-11.4-1.7-16.49s-3.55-11.43-1.7-16.49c.81-2.23,2.22-3.78,3-6.05,1.54-4.52,0-10.25-2.18-13.94s-5-6.36-6.94-10.46c-2.15-4.62-3.41-12.46-1.49-17.68,1.85-5,6.17-6.33,8.17-11.35,2.93-7.35-3.85-12.51-.37-20.21,1.58-3.47,3-4.74,5.21-7,2-2.1,2.15-6.73,3.62-9.84,1-2.08,2.43-3,3.83-3.2a4.83,4.83,0,0,1,4.22,1.3c1.1,1.18,1.84,3.5,3,4.53,1.62,1.46,3.51-.2,5-2.22s3-4.5,4.75-4.82c1.07-.19,2.14.44,3.21.2,2-.45,2.28-2.76,3.53-4.56A4.06,4.06,0,0,1,685.28,875Z" style="fill: #006838;stroke: #3a3632;stroke-linecap: round;stroke-miterlimit: 10;stroke-width: 10px"/>
    <path d="M817.7,1033.1c17.87-10.24,17.72-67-1.49-75-21,1.22-28.23,5.77-49.62,1C747.08,954.66,681,916.62,681,916.62L673.2,934.2s52.3,31.48,51.61,39c-.76,8.39-61.87,13.19-61.87,13.19l-1,29.27s62.32-4.52,63.43,1.22c1.54,7.89-67.13,51.79-67.13,51.79l22.3,9.3c14.16-7.59,66.43-41.5,81-44.6C790.17,1027.33,804.36,1029.86,817.7,1033.1Z" style="fill: #82c14c;stroke: #3a3632;stroke-linecap: round;stroke-linejoin: round;stroke-width: 10px"/>
    <path d="M812.59,971.07c-7,6.95-6.58,44.08,1,49" style="fill: #82c14c;stroke: #3a3632;stroke-linecap: round;stroke-linejoin: round;stroke-width: 10px"/>
    <path d="M613.3,1157.41a13.25,13.25,0,0,1-5.59-.1,12.14,12.14,0,0,1-8.42-7.92,8.17,8.17,0,0,0-1.5-3.47c-1.78-1.81-4.77-.8-7.29-.41a12.54,12.54,0,0,1-9.3-2.29c-4.26-3.15-6.05-8.61-7.17-13.78-.91-4.18-2.1-9.13-6.1-10.64-3.2-1.21-6.87.43-10.17-.44-4.81-1.27-6.73-7-7.13-12s-.25-10.46-3.54-14.18c-3.53-4-7.69-2.52-11.71-4.74a13.62,13.62,0,0,1-6.56-11.69c.09-4.53,2.47-8.82,2.33-13.36-.14-4.84-3.13-9.33-2.85-14.16.31-5.44,4.71-10,4.86-15.49.24-8.93-10.77-15.5-9.74-24.36.78-6.77,8.37-11.29,8.93-18.07.45-5.43-3.82-10.34-3.61-15.78.29-7.89,8.82-11.22,10.79-18.14,2.44-8.59-5.12-19.72-3.87-29.52,1.11-8.75,7.31-17.51,16.06-18.55a13.86,13.86,0,0,0,3.53-.58c4.4-1.74,3.82-8.08,5.84-12.36,4.15-8.79,19-7.75,23.09-16.56.91-1.94,1.14-4.14,2.08-6.07,1.74-3.59,5.71-5.67,9.66-6.21,8.8-1.19,14.29,2.06,20.12-6.51,3.91-5.75,4.12-13.63,11.35-16.72a15,15,0,0,1,6.88-.92,23.48,23.48,0,0,1,17.19,9c3.5,4.78,2.59,11.73,10.31,12.59,3.21.35,6.5-.92,9.62-.13,4.36,1.11,7,6.05,7.14,10.71.11,3.74-.68,8.33,2.26,10.47,4.13,3,11.28.6,16.1,2.86,3.8,1.78,6.88,5.72,6.39,9.89-.27,2.32-1.58,4.39-2.21,6.64-3.2,11.35,7.28,18.84-1.18,29.68-4.21,5.38-10.13,10.16-11,16.94-1.13,9.19,7.7,18.68,3.45,26.9-3,5.88-11.32,7.37-14.6,13.13-3.44,6,.11,13.49,3.62,19.47s7.07,13.44,3.65,19.47c-1.51,2.66-4.18,4.52-5.61,7.23-2.84,5.38.21,12.12,4.5,16.44s9.79,7.41,13.54,12.21c4.22,5.42,6.81,14.66,3.25,20.88-3.44,6-11.67,7.64-15.38,13.62-5.45,8.76,7.66,14.7,1.15,23.89-2.93,4.15-5.67,5.69-9.81,8.4-3.86,2.53-4,8-6.71,11.72a9.86,9.86,0,0,1-7.25,3.88c-2.58.22-5.8,0-8.12-1.44-2.14-1.37-3.6-4.1-5.83-5.29-3.14-1.69-6.71.32-9.53,2.74s-5.6,5.39-9,5.81c-2,.25-4.1-.47-6.13-.16-3.76.58-4.32,3.32-6.66,5.47A8.65,8.65,0,0,1,613.3,1157.41Z" style="fill: #009444;stroke: #3a3632;stroke-linecap: round;stroke-miterlimit: 10;stroke-width: 10px"/>
  </g>
  <g>
    <path d="M1402,419.15a4.33,4.33,0,0,1-1,2.75c-1.44,1.67-4.48,2.49-7.76,2.09a9.61,9.61,0,0,0-3-.17c-1.75.41-1.43,2.16-1.53,3.51a4.87,4.87,0,0,1-3.39,4c-3.24,1.28-7.92.74-12.26-.06-3.51-.64-7.68-1.35-9.56.24-1.5,1.26-.79,3.51-2,4.92-1.81,2-6.77,1.48-10.82.38s-8.44-2.62-12-2c-3.81.7-3.3,3.15-5.75,4.56s-6.86,1.41-10.47.18-6.69-3.53-10.36-4.65c-3.91-1.2-8-.9-11.85-2.3-4.32-1.58-7.29-5-11.64-6.46-7.13-2.46-14.23,1.27-21.19-1.56-5.3-2.16-7.68-7.11-13-9.16-4.28-1.64-8.94-.82-13.27-2.34-6.3-2.21-7.56-7.31-12.79-10.1-6.5-3.46-16.69-2.63-24.37-5.82-6.84-2.84-12.85-8.2-12.24-12.81a4.83,4.83,0,0,0,.12-1.9c-.67-2.63-5.86-4-9-6.13-6.38-4.36-3.09-11.43-9.49-15.77-1.41-1-3.14-1.65-4.53-2.62a7.08,7.08,0,0,1-3.38-6.41c.5-4.67,4-6.54-1.91-11.67-4-3.44-10.26-5.61-11.55-10a5.13,5.13,0,0,1,.4-3.65c1.44-3.15,5.13-5.6,10.11-6.14,4.42-.48,9.85,1.79,11.82-1.81.82-1.5.34-3.46,1.5-4.8,1.61-1.87,6-1.88,9.78-.73,3,.93,6.58,2.52,8.79,1.62,3.1-1.25,2.35-5.42,5-7.22a10.1,10.1,0,0,1,9-.57,56.39,56.39,0,0,1,5,2.83c8.59,4.56,16.35,1.33,23.65,8.36,3.63,3.5,6.49,7.68,11.8,9.87,7.19,3,16.28,1.08,22.18,5.33,4.22,3,4,7.54,8.13,10.68,4.28,3.27,10.86,3.47,16.25,3.3s12,0,16.25,3.3c1.88,1.44,2.94,3.25,4.88,4.67,3.85,2.81,9.77,3.07,13.95,2.08s7.58-2.91,12.06-3.51c5-.67,12.91.47,17.31,3.86,4.25,3.28,4.21,7.78,8.4,11.19,6.13,5,13.08.06,19.39,5.69,2.84,2.53,3.63,4.29,5.12,7.06,1.4,2.57,5.78,4.05,8.31,6.39a5,5,0,0,1,1.92,4.61,4.88,4.88,0,0,1-2.51,3.64c-1.45.7-3.89.71-5.22,1.5-1.87,1.11-.85,3.41.63,5.44s3.4,4.18,3.18,6c-.14,1.07-1.06,1.91-1.15,3-.15,2,2,3,3.3,4.72A4.19,4.19,0,0,1,1402,419.15Z" style="fill: #006838;stroke: #3a3632;stroke-linecap: round;stroke-miterlimit: 10;stroke-width: 10px"/>
    <path d="M1211.5,498.3c4.43,20.11,58.69,36.93,72,21,5.1-20.38,2.93-28.66,13.9-47.63,10-17.31,66-69,66-69l-14.43-12.73s-45.67,40.51-52.66,37.61c-7.78-3.23,5.89-63,5.89-63l-27.64-9.68s-14.3,60.83-20.11,60.18c-8-.89-29.38-79.53-29.38-79.53L1209.62,354c3,15.78,19.77,75.8,18.36,90.65C1225.23,473.75,1218.58,486.53,1211.5,498.3Z" style="fill: #82c14c;stroke: #3a3632;stroke-linecap: round;stroke-linejoin: round;stroke-width: 10px"/>
    <path d="M1272.23,511.94c-4.56-8.73-40.11-19.44-47.08-13.71" style="fill: #82c14c;stroke: #3a3632;stroke-linecap: round;stroke-linejoin: round;stroke-width: 10px"/>
    <path d="M1153.91,266.1a13,13,0,0,1,1.77-5.31,12.11,12.11,0,0,1,10.07-5.66,8.26,8.26,0,0,0,3.75-.41c2.27-1.15,2.19-4.31,2.57-6.83a12.58,12.58,0,0,1,5-8.19c4.28-3.12,10-3.2,15.29-2.73,4.26.38,9.34.72,12-2.64,2.1-2.7,1.64-6.68,3.46-9.58,2.64-4.2,8.73-4.31,13.57-3.21s10.06,2.88,14.6.86c4.88-2.18,4.69-6.6,8-9.77a13.61,13.61,0,0,1,13.11-2.77c4.3,1.44,7.69,5,12.06,6.22,4.65,1.31,9.84-.2,14.37,1.5,5.09,1.93,8.18,7.5,13.33,9.27,8.44,2.9,18-5.65,26.16-2,6.22,2.77,8.27,11.37,14.57,13.93,5,2,11-.56,16.14,1.26,7.44,2.63,8.07,11.77,14.09,15.72,7.47,4.9,20.34,1,29.33,5.12,8,3.68,14.52,12.2,12.9,20.87a13.8,13.8,0,0,0-.49,3.54c.34,4.72,6.56,6.06,10,9.26,7.15,6.59,1.73,20.44,8.92,27,1.58,1.44,3.61,2.33,5.16,3.79,2.91,2.74,3.71,7.15,3,11.08-1.49,8.75-6.23,13,.21,21.14,4.32,5.45,11.77,8,12.56,15.83a14.93,14.93,0,0,1-1.17,6.84,23.51,23.51,0,0,1-13.76,13.71c-5.61,1.91-12-1-15.1,6.08-1.29,2.95-1.06,6.47-2.75,9.22-2.36,3.83-7.86,4.87-12.35,3.61-3.6-1-7.74-3.14-10.67-1-4.1,3.05-3.94,10.59-7.53,14.51-2.84,3.1-7.52,4.86-11.35,3.15-2.14-.95-3.72-2.82-5.68-4.1-9.88-6.43-20.16,1.33-28-10-3.88-5.62-6.67-12.7-12.9-15.51-8.42-3.82-20.12,1.77-26.69-4.74-4.71-4.66-3.66-13-8.17-17.86-4.73-5.08-12.91-3.92-19.67-2.36s-14.93,2.73-19.67-2.33c-2.09-2.23-3.07-5.34-5.22-7.51-4.3-4.32-11.63-3.42-17-.62s-10,7.13-15.69,9.27c-6.44,2.42-16,2.12-20.9-3.13-4.7-5.07-3.81-13.41-8.41-18.75-6.73-7.81-16.32,2.92-23.15-6-3.08-4-3.72-7.11-5.08-11.87-1.27-4.44-6.46-6.16-9.18-9.91a9.91,9.91,0,0,1-1.54-8.08c.56-2.52,1.7-5.54,3.81-7.32,1.94-1.63,5-2.21,6.78-4,2.55-2.49,1.7-6.51.24-9.92s-3.48-7-2.86-10.31c.36-2,1.67-3.78,2-5.81.57-3.76-1.88-5.11-3.24-8A8.68,8.68,0,0,1,1153.91,266.1Z" style="fill: #009444;stroke: #3a3632;stroke-linecap: round;stroke-miterlimit: 10;stroke-width: 10px"/>
  </g>
  <g id="layer3">
    <path id="path916" d="M1329.09,1173.24l202.23,22.47c79,8.78,79.58,130,8.64,155.55l-210.87,76Zm-1036.41,0L90.46,1195.71c-79,8.78-79.59,130-8.65,155.55l210.87,76Zm1036.41-155.78V1828A148.78,148.78,0,0,1,1180,1977.12H441.79A148.78,148.78,0,0,1,292.68,1828V1017.46Z" style="fill: #fff;stroke: #3a3632;stroke-linecap: round;stroke-linejoin: round;stroke-width: 20px"/>
  </g>
</svg>
