<svg xmlns="http://www.w3.org/2000/svg" height="1977.65" width="1781.313"  xmlns:v="https://vecta.io/nano"><path d="M769.98 974.52s6.9-359.9 352.35-432.6l-93 92.63c-170.5 89.48-128.1 345.37-128.1 345.37" fill="#fff" stroke="#231f20" stroke-linecap="round" stroke-linejoin="round" stroke-width="24"/><path d="M1431.28 99.97c-30.46 24.93-54.23 51.7-83.4 89.8l-134.5 181.06-211.06 292.23c55.26 22 90.26 21.88 122.8 18.73 41.5-4 73.53-41.73 99-76.24s41.58-62.58 44.67-84c3.06-21.2-6.7-61.5-11.75-80.1s-13.73-35.38-5.36-46.72l121.86-184.38c39.8-50.25 53.9-63.3 85-88.47 85.83-69.62 118.26-57.07 173-69.6l26.8-40.27c-110.2 21.1-140.34 17-227.1 87.97z" fill="#231f20"/><path d="M1473.62 1061.3l227.5 25.28c88.92 9.88 89.53 146.22 9.72 175l-237.22 85.55zm-1165.93 0l-227.5 25.28c-88.9 9.88-89.53 146.22-9.72 175l237.22 85.55zm1165.93-175.24v911.85a167.37 167.37 0 0 1-167.7 167.74H475.47a167.37 167.37 0 0 1-167.74-167.74V886.06z" fill="#fff" stroke="#231f20" stroke-linejoin="round" stroke-width="24"/></svg>