<svg xmlns="http://www.w3.org/2000/svg" viewBox="0 0 1755 2000"><g id="Layer_2" data-name="Layer 2"><path d="M781.23,1985.38c350,0,760.83-186.2,760.83-609.16,0-99.63-340.64-191.2-760.83-191.2h-1.17c-420.19,0-760.83,91.57-760.83,191.2,0,423,410.88,609.16,760.83,609.16Z" style="fill:#fff;stroke:#231f20;stroke-miterlimit:10;stroke-width:24px"/><path d="M1492.83,1370.43c0,47.74-318.58,118.48-711.56,118.48H780c-393,0-711.55-70.74-711.55-118.48" style="fill:none;stroke:#231f20;stroke-linecap:round;stroke-miterlimit:10;stroke-width:24px"/><path d="M682.14,1117V972.78c0-293.52,277-324.85,277-324.85" style="fill:none;stroke:#231f20;stroke-linecap:round;stroke-linejoin:round;stroke-width:24px"/><polyline points="807.45 978.15 682.14 1125.83 556.84 978.15" style="fill:none;stroke:#231f20;stroke-linecap:round;stroke-linejoin:round;stroke-width:24px"/><path d="M1465.23,122.76c-38.17,31.24-68,64.78-104.5,112.53-12.94,16.91-93.28,124.23-168.56,226.91-38.33,52.25-205.87,280.49-264.51,366.23,69.25,27.58,113.12,27.42,153.92,23.46,52-5,92.14-52.29,124.05-95.54s52.1-78.43,56-105.22c3.84-26.57-8.38-77.07-14.72-100.37s-17.21-44.34-6.72-58.55c0,0,136.88-211.08,152.71-231.07,49.87-63,67.56-79.32,106.47-110.88C1606.92,63,1647.56,78.75,1716.21,63l33.59-50.47C1611.72,39,1574,33.81,1465.23,122.76Z" style="fill:#231f20"/></g></svg>