<svg id="Layer_1" data-name="Layer 1" xmlns="http://www.w3.org/2000/svg" viewBox="0 0 1676.19 1984.1"><path d="M728.84,1964.41c326.17,0,709.13-173.55,709.13-567.77,0-92.86-317.49-178.21-709.13-178.21h-1.09c-391.64,0-709.14,85.35-709.14,178.21,0,394.22,383,567.77,709.14,567.77Z" style="fill:#fff;stroke:#231f20;stroke-miterlimit:10;stroke-width:24px"/><path d="M724.56,1807.42V1679.67q-35.67,27.38-48,27.38a14.21,14.21,0,0,1-10.46-4.7,15.19,15.19,0,0,1-4.56-10.88q0-7.17,4.49-10.53t15.86-8.71q17-8,27.16-16.84a114.9,114.9,0,0,0,18-19.8q7.86-11,10.25-13.47t9-2.53a14.38,14.38,0,0,1,11.93,5.76q4.49,5.75,4.49,15.86V1802q0,28.21-19.23,28.21-8.57,0-13.76-5.75T724.56,1807.42Z" style="fill:#231f20"/><path d="M1392.08,1391.24c0,44.5-296.92,110.43-663.2,110.43h-1.17c-366.28,0-663.21-65.93-663.21-110.43" style="fill:none;stroke:#231f20;stroke-linecap:round;stroke-miterlimit:10;stroke-width:24px"/><path d="M1647.35,180.19,923.29,987.55C900.5,1013,867,1009,849.1,979.67L747.19,812.79c-14.2-23.25-9.64-59.2,9.82-80.9L1375.16,42.63c19.46-21.7,54.7-30.14,79.36-18.55l176.94,83.21C1662.6,121.93,1670.15,154.77,1647.35,180.19Z" style="fill:#fff;stroke:#231f20;stroke-miterlimit:10;stroke-width:24px"/><path d="M1545,153.2c-10.7,11.93-30.64,15.56-44.33,8.2l-81-43.54c-12.24-6.57-14-20.8-4.06-31.86s28-15,40.47-8.73l82.77,41.52C1552.87,125.81,1555.69,141.26,1545,153.2Z" style="fill:#fff;stroke:#231f20;stroke-miterlimit:10;stroke-width:24px"/><path d="M932.16,716.66c3.8-3.38,7.15-1.93,10.94,1.46,13.17,11.78,19.75,26,24.7,42,4.75,15.38,4.55,32.89.77,49.42-1.13,5-3.44,10.74-8.4,9.61s-7-6-6.53-11.1A117.79,117.79,0,0,0,933,727.88C930.83,724.79,928.9,719.56,932.16,716.66Z" style="fill:#f37820;stroke:#231f20;stroke-miterlimit:10;stroke-width:5.766886741378672px"/><path d="M922.92,813c-1.39,4.69-4.86,5.2-9.68,4.36-16.75-3-29.36-11.26-41.53-21.84C860,785.37,851.29,771,846,755.52c-1.59-4.63-2.64-10.53,2-12.12s8.79,1.39,11,5.76A118.55,118.55,0,0,0,882,781.23a119.76,119.76,0,0,0,34.53,23C919.88,805.68,924.12,809,922.92,813Z" style="fill:#f37820;stroke:#231f20;stroke-miterlimit:10;stroke-width:5.548906752814719px"/><path d="M834.51,955c-4.87,2.36-7.88-.09-10.78-4.66-10.09-15.87-12.71-32.37-13.15-50.21-.42-17.13,4.85-35,13.5-50.85,2.59-4.75,6.63-10,11.38-7.41s5.42,8.2,3.48,13.26a125.37,125.37,0,0,0-2,88.15C838.22,947,838.69,952.94,834.51,955Z" style="fill:#f37820;stroke:#231f20;stroke-miterlimit:10;stroke-width:6.13833781147855px"/><path d="M890.81,877.15c-1.41,4.7-4.9,5.21-9.73,4.34-16.8-3-29.43-11.39-41.62-22-11.7-10.24-20.41-24.73-25.68-40.24-1.59-4.65-2.62-10.57,2-12.15s8.81,1.42,11,5.81a118.79,118.79,0,0,0,23.07,32.26,120.32,120.32,0,0,0,34.58,23.21C887.78,869.79,892,873.12,890.81,877.15Z" style="fill:#f37820;stroke:#231f20;stroke-miterlimit:10;stroke-width:5.569451084534135px"/><path d="M876.67,761.24c-.85-4.91,2.09-7,6.87-8.35,16.61-4.87,31.87-3,47.75,1.19,15.26,4,29.72,13.22,41.52,24.91,3.55,3.5,7.17,8.41,3.66,12s-8.64,2.7-12.62-.3a120.42,120.42,0,0,0-35.54-18.85,121.84,121.84,0,0,0-41.89-5.42C882.75,766.54,877.39,765.45,876.67,761.24Z" style="fill:#f37820;stroke:#231f20;stroke-miterlimit:10;stroke-width:5.649235177028111px"/><path d="M910.54,864.66c-3.26,3.38-6.44,2.29-10.17-.56-13-9.89-20-22.52-25.73-36.9-5.47-13.81-6.55-29.93-4.25-45.4.68-4.65,2.39-10.13,7-9.44s6.87,5,6.81,9.74a113.4,113.4,0,0,0,5.51,37.49A114.81,114.81,0,0,0,909,854.4C911.17,857.09,913.33,861.77,910.54,864.66Z" style="fill:#f37820;stroke:#231f20;stroke-miterlimit:10;stroke-width:5.320520942835658px"/><path d="M723.41,958c-.31-5.57,3.21-7.45,8.71-8.4,19.09-3.29,35.8.77,52.93,7.44,16.44,6.39,31.35,18.49,43,33,3.48,4.35,6.88,10.27,2.53,13.75s-9.95,1.9-14-1.95a129.24,129.24,0,0,0-83-36.89C729.49,964.67,723.68,962.76,723.41,958Z" style="fill:#f37820;stroke:#231f20;stroke-miterlimit:10;stroke-width:6.321261420716219px"/><path d="M746,1066.06c-2.18-4.32,0-7,4-9.71,14.06-9.25,28.79-11.82,44.75-12.47,15.32-.61,31.39,3.85,45.68,11.37,4.29,2.25,9,5.79,6.8,10.08s-7.27,5-11.82,3.3A117.23,117.23,0,0,0,797,1061.2a118.55,118.55,0,0,0-40.49,6.86C753.15,1069.27,747.86,1069.77,746,1066.06Z" style="fill:#f37820;stroke:#231f20;stroke-miterlimit:10;stroke-width:5.493191818282551px"/><path d="M789.75,1254.24c1.19-5,4.8-5.74,9.91-5.14,17.73,2.11,31.43,10.09,44.81,20.48,12.85,10,22.84,24.57,29.29,40.44,1.94,4.76,3.39,10.88-1.37,12.82s-9.29-.94-11.85-5.4a124.15,124.15,0,0,0-26.07-32.28,125.74,125.74,0,0,0-37.54-22.11C793.38,1261.73,788.74,1258.52,789.75,1254.24Z" style="fill:#f37820;stroke:#231f20;stroke-miterlimit:10;stroke-width:5.8268039809805305px"/><path d="M672.4,1354.77c-4.36,3.56-8,1.81-12-2.11C646.33,1339,639.71,1323,635,1305c-4.56-17.22-3.54-36.58,1.39-54.69,1.48-5.43,4.29-11.72,9.72-10.24s7.46,7,6.73,12.58a136.09,136.09,0,0,0,1.23,45.44,137.75,137.75,0,0,0,18,44.21C674.23,1345.84,676.13,1351.72,672.4,1354.77Z" style="fill:#f37820;stroke:#231f20;stroke-miterlimit:10;stroke-width:6.383055262593462px"/><path d="M576.11,1364.55c-5,.78-7-2.23-8.36-7.1-4.69-16.92-2.53-32.36,1.93-48.41,4.29-15.41,13.86-29.94,25.9-41.73,3.61-3.54,8.64-7.13,12.18-3.52s2.6,8.8-.5,12.79a117,117,0,0,0-25.8,78.16C581.58,1358.46,580.39,1363.88,576.11,1364.55Z" style="fill:#f37820;stroke:#231f20;stroke-miterlimit:10;stroke-width:5.730210668207787px"/><path d="M761.26,1424.25c-5.19,1.32-7.62-1.65-9.53-6.66-6.62-17.4-5.87-33.92-2.75-51.3,3-16.69,11.67-33,23.21-46.62,3.46-4.09,8.42-8.38,12.5-4.92s3.63,9,.74,13.55A130,130,0,0,0,768.21,1368a131.44,131.44,0,0,0-2.28,45.37C766.43,1417.28,765.71,1423.12,761.26,1424.25Z" style="fill:#f37820;stroke:#231f20;stroke-miterlimit:10;stroke-width:6.075552453433852px"/><path d="M771.26,1245.78c-5.19,1.32-7.62-1.66-9.53-6.67-6.62-17.4-5.87-33.91-2.75-51.29,3-16.7,11.67-33,23.21-46.62,3.46-4.09,8.42-8.39,12.5-4.92s3.63,9,.74,13.55a130,130,0,0,0-17.22,39.69,131.44,131.44,0,0,0-2.28,45.37C776.43,1238.81,775.71,1244.65,771.26,1245.78Z" style="fill:#f37820;stroke:#231f20;stroke-miterlimit:10;stroke-width:6.075552453433852px"/><path d="M795,1456.57c-4.42-3.21-3.67-7.06-1-11.82,9.35-16.54,22.8-26.71,38.48-35.59,15.05-8.52,33.49-12.34,51.71-12.16,5.47,0,12.07,1.14,12,6.6s-4.73,8.73-10.16,9.42a126.6,126.6,0,0,0-79.47,40.13C803.86,1456.09,798.81,1459.33,795,1456.57Z" style="fill:#f37820;stroke:#231f20;stroke-miterlimit:10;stroke-width:6.198397804689282px"/><path d="M610.77,1373.29c3-4.45,6.78-3.86,11.54-1.4,16.54,8.52,27,21.31,36.3,36.33,8.91,14.42,13.34,32.32,13.85,50.17.16,5.36-.66,11.86-6,12s-8.73-4.31-9.6-9.59a129.62,129.62,0,0,0-13.69-41,131.12,131.12,0,0,0-28.6-35.28C611.57,1381.93,608.21,1377.1,610.77,1373.29Z" style="fill:#f37820;stroke:#231f20;stroke-miterlimit:10;stroke-width:6.073465531627933px"/><path d="M760.76,1284.15c-3.34,3.35-6.53,2.2-10.24-.73-12.9-10.18-19.81-23-25.33-37.59-5.29-14-6.11-30.26-3.55-45.81.77-4.67,2.57-10.16,7.24-9.4s6.84,5.2,6.7,9.93a109.56,109.56,0,0,0,23.78,73.23C761.52,1276.53,763.61,1281.27,760.76,1284.15Z" style="fill:#f37820;stroke:#231f20;stroke-miterlimit:10;stroke-width:5.360589499903142px"/><path d="M743,1475.16c-3.33,3.35-6.52,2.2-10.23-.73-12.9-10.17-19.82-23-25.33-37.59-5.29-14-6.11-30.25-3.55-45.81.76-4.66,2.57-10.16,7.24-9.39s6.83,5.2,6.7,9.92a114.13,114.13,0,0,0,5,37.85,115.64,115.64,0,0,0,18.83,35.39C743.71,1467.54,745.81,1472.29,743,1475.16Z" style="fill:#f37820;stroke:#231f20;stroke-miterlimit:10;stroke-width:5.360589499903142px"/><path d="M668.77,1146.66c3.74-2.9,6.75-1.35,10.06,2,11.5,11.73,16.73,25.35,20.34,40.51,3.47,14.56,2.22,30.79-2.3,45.89-1.35,4.53-3.84,9.75-8.37,8.4s-6.12-6-5.39-10.7a114.56,114.56,0,0,0-.09-38.18,115.9,115.9,0,0,0-14.18-37.49C667.05,1154.12,665.57,1149.14,668.77,1146.66Z" style="fill:#f37820;stroke:#231f20;stroke-miterlimit:10;stroke-width:5.360589499903142px"/><path d="M666.4,1053.73c-4-2.53-3.56-5.9-1.5-10.16,7.16-14.79,18.22-24.33,31.28-32.86,12.53-8.19,28.24-12.5,44-13.35,4.72-.26,10.49.32,10.74,5s-3.61,7.8-8.25,8.69a114.19,114.19,0,0,0-35.93,13,115.92,115.92,0,0,0-30.52,26C674,1052.83,669.82,1055.91,666.4,1053.73Z" style="fill:#f37820;stroke:#231f20;stroke-miterlimit:10;stroke-width:5.365020209030418px"/><path d="M669.77,1095.32c1.1-4.55,4.39-5.21,9-4.64,16.14,2,28.58,9.31,40.72,18.82,11.66,9.13,20.69,22.46,26.51,36.94,1.74,4.34,3,9.92-1.31,11.66s-8.45-.89-10.76-5a113,113,0,0,0-23.61-29.49,114.4,114.4,0,0,0-34.09-20.28C673,1102.15,668.82,1099.21,669.77,1095.32Z" style="fill:#f37820;stroke:#231f20;stroke-miterlimit:10;stroke-width:5.304760346176044px"/><path d="M668.27,1269c1.1-4.55,4.39-5.21,9-4.63,16.14,2,28.58,9.31,40.72,18.81,11.66,9.13,20.69,22.47,26.51,36.94,1.75,4.34,3,9.92-1.31,11.67s-8.45-.9-10.76-5a108.43,108.43,0,0,0-57.7-49.77C671.54,1275.87,667.32,1272.93,668.27,1269Z" style="fill:#f37820;stroke:#231f20;stroke-miterlimit:10;stroke-width:5.304760346176044px"/><path d="M944.39,735.83c-1.71-4.86.93-7.43,5.56-9.68,16.09-7.82,31.95-8.5,48.85-7,16.22,1.45,32.54,8.36,46.57,18.24,4.21,3,8.74,7.34,5.77,11.55s-8.34,4.23-12.9,1.86A124.72,124.72,0,0,0,998.8,737.7a126,126,0,0,0-43.6,1.68C951.49,740.19,945.85,740,944.39,735.83Z" style="fill:#f37820;stroke:#231f20;stroke-miterlimit:10;stroke-width:5.835322780274102px"/><path d="M1021.9,746.27c-2.59,4.93-6.58,4.74-11.77,2.73-18-7-30.28-19-41.53-33.53-10.8-13.92-17.36-31.93-19.87-50.32-.75-5.52-.62-12.33,4.89-13.08s9.5,3.48,11,8.84a134.67,134.67,0,0,0,18.69,40.89,136.17,136.17,0,0,0,33.45,33.3C1020.11,737.43,1024.12,742.05,1021.9,746.27Z" style="fill:#f37820;stroke:#231f20;stroke-miterlimit:10;stroke-width:6.312342787721603px"/><path d="M1031.29,688.63c-4,3-7.14,1.28-10.56-2.35-11.88-12.62-17.1-27.1-20.58-43.17-3.34-15.43-1.67-32.52,3.42-48.35,1.53-4.75,4.27-10.2,9-8.68s6.32,6.49,5.44,11.4a115.66,115.66,0,0,0,13.42,80.12C1033.27,680.8,1034.72,686.08,1031.29,688.63Z" style="fill:#f37820;stroke:#231f20;stroke-miterlimit:10;stroke-width:5.655438710539665px"/><path d="M982.21,617.69c-1.11-4.54,1.5-6.63,5.87-8.26,15.21-5.64,29.6-4.87,44.72-2,14.52,2.74,28.65,10.4,40.45,20.56,3.54,3,7.24,7.39,4.2,10.93s-7.9,3.09-11.82.55a112.7,112.7,0,0,0-34.46-15.29,114.26,114.26,0,0,0-39.51-2.32C988.24,622.25,983.16,621.57,982.21,617.69Z" style="fill:#f37820;stroke:#231f20;stroke-miterlimit:10;stroke-width:5.293697834127523px"/><path d="M1044.58,698.31c-5.17,1.5-7.71-1.41-9.78-6.38-7.23-17.26-7-33.87-4.45-51.43,2.46-16.85,10.63-33.5,21.77-47.57,3.34-4.22,8.17-8.7,12.4-5.36s3.93,9,1.18,13.59a130.43,130.43,0,0,0-16,40.42,131.89,131.89,0,0,0-.8,45.64C1049.55,691.14,1049,697,1044.58,698.31Z" style="fill:#f37820;stroke:#231f20;stroke-miterlimit:10;stroke-width:6.104348239003766px"/><path d="M1125.51,614.91c-2.32,5-6.29,5-11.55,3.31-18.29-6-31.07-17.35-43-31.17-11.45-13.27-18.9-30.83-22.34-49-1-5.45-1.26-12.22,4.19-13.25s9.61,3,11.36,8.22a133.8,133.8,0,0,0,20.68,39.66,135.48,135.48,0,0,0,35,31.36C1123.28,606.22,1127.5,610.6,1125.51,614.91Z" style="fill:#f37820;stroke:#231f20;stroke-miterlimit:10;stroke-width:6.28052576175224px"/><path d="M1075.83,561.08c-2.47-4.62-.22-7.61,4.09-10.59,14.94-10.35,30.77-13.51,48-14.61,16.53-1.06,34,3.34,49.62,11.09,4.69,2.32,9.92,6,7.59,10.7s-7.72,5.55-12.67,3.88a126.61,126.61,0,0,0-41.65-7,128.23,128.23,0,0,0-43.55,8.45C1083.64,564.35,1077.94,565,1075.83,561.08Z" style="fill:#f37820;stroke:#231f20;stroke-miterlimit:10;stroke-width:5.932001786410902px"/><path d="M1099.49,569.76c-4.94-2.67-4.71-6.7-2.62-11.92,7.26-18.15,19.58-30.38,34.35-41.58,14.18-10.76,32.46-17.19,51.07-19.51,5.58-.71,12.46-.5,13.16,5.08s-3.63,9.56-9.07,11a135.83,135.83,0,0,0-41.51,18.42,137.36,137.36,0,0,0-34,33.43C1108.45,568.06,1103.74,572.05,1099.49,569.76Z" style="fill:#f37820;stroke:#231f20;stroke-miterlimit:10;stroke-width:6.378310473210683px"/><path d="M1031.36,575.41c-5-2.07-5.11-5.92-3.62-11.08,5.18-18,15.73-30.74,28.72-42.8,12.46-11.57,29.23-19.41,46.7-23.39,5.24-1.19,11.81-1.65,13,3.59s-2.54,9.43-7.58,11.31a124.52,124.52,0,0,0-66.9,56.46C1039.71,573,1035.61,577.19,1031.36,575.41Z" style="fill:#f37820;stroke:#231f20;stroke-miterlimit:10;stroke-width:6.094734034071731px"/><path d="M934.66,609c-5-1.87-5.3-5.69-4-10.88,4.47-18,14.47-31.13,26.91-43.59,12-12,28.3-20.39,45.51-25,5.16-1.39,11.67-2.09,13.05,3.07s-2.17,9.46-7.1,11.52a123.87,123.87,0,0,0-64.33,58.62C942.86,606.21,939,610.58,934.66,609Z" style="fill:#f37820;stroke:#231f20;stroke-miterlimit:10;stroke-width:6.0587820972929505px"/><path d="M954.35,552.62c3.9-3.82,7.56-2.45,11.81,1,14.76,11.91,22.58,26.83,28.76,43.73,5.93,16.23,6.66,35,3.51,52.94-.95,5.38-3.1,11.7-8.48,10.76s-7.83-6.1-7.61-11.55a132.06,132.06,0,0,0-5.22-43.77,133.64,133.64,0,0,0-21.29-41.1C953.38,561.41,951,555.9,954.35,552.62Z" style="fill:#f37820;stroke:#231f20;stroke-miterlimit:10;stroke-width:6.190307266222333px"/><path d="M881.34,655.34c3.31-3.81,6.79-2.82,11,0,14.5,9.89,22.82,23.07,29.77,38.2,6.68,14.53,8.75,31.8,7.17,48.57-.47,5-2,11-7,10.55s-7.67-5-7.88-10.09a122,122,0,0,0-8.07-40,123.27,123.27,0,0,0-22.68-36.33C881.09,663.52,878.5,658.62,881.34,655.34Z" style="fill:#f37820;stroke:#231f20;stroke-miterlimit:10;stroke-width:5.727895402425769px"/><path d="M811.06,745.4c-.92-4.84,2-6.91,6.65-8.38,16.35-5.11,31.47-3.5,47.25.34,15.16,3.69,29.62,12.55,41.5,23.91,3.56,3.4,7.23,8.19,3.82,11.75s-8.5,2.82-12.48-.08a114.18,114.18,0,0,0-77-22.64C817.17,750.54,811.85,749.55,811.06,745.4Z" style="fill:#f37820;stroke:#231f20;stroke-miterlimit:10;stroke-width:5.587584054427465px"/><path d="M806.6,737.62c3-4.06,6.5-3.37,10.88-.9,15.21,8.59,24.58,21,32.76,35.38,7.84,13.84,11.36,30.8,11.21,47.57,0,5-1.05,11.1-6.08,11.05s-8-4.35-8.66-9.34a121.64,121.64,0,0,0-11.38-39,123.06,123.06,0,0,0-25.57-34.12C807,745.76,804.06,741.11,806.6,737.62Z" style="fill:#f37820;stroke:#231f20;stroke-miterlimit:10;stroke-width:5.70225327684872px"/><path d="M849.43,806c-3.82-3.57-2.65-7.14.46-11.35,10.82-14.62,24.79-22.72,40.73-29.32,15.31-6.33,33.27-7.8,50.57-5.5,5.19.68,11.34,2.5,10.65,7.68s-5.52,7.75-10.75,7.76A126.45,126.45,0,0,0,899.37,782a128.07,128.07,0,0,0-38.52,22.05C857.89,806.57,852.71,809.06,849.43,806Z" style="fill:#f37820;stroke:#231f20;stroke-miterlimit:10;stroke-width:5.935269601225678px"/><path d="M973.29,827c-.91,4.91-4.37,5.81-9.35,5.47-17.3-1.17-31-8.24-44.47-17.65-13-9-23.35-22.71-30.39-37.79-2.12-4.51-3.82-10.38.7-12.49s9.06.45,11.75,4.65A115.73,115.73,0,0,0,965.9,818.8C969.41,819.9,974.07,822.79,973.29,827Z" style="fill:#f37820;stroke:#231f20;stroke-miterlimit:10;stroke-width:5.657896729930557px"/><path d="M885,730.27c-.22-4.62,2.72-6.17,7.29-6.92,15.89-2.59,29.76.9,44,6.55,13.62,5.44,25.92,15.6,35.48,27.74,2.87,3.64,5.65,8.58,2,11.45s-8.29,1.5-11.61-1.72a112.12,112.12,0,0,0-30.66-21.46,113.26,113.26,0,0,0-38.05-9.79C890,735.87,885.2,734.24,885,730.27Z" style="fill:#f37820;stroke:#231f20;stroke-miterlimit:10;stroke-width:5.254553316355178px"/><path d="M907.75,737.73c-5.1,0-6.67-3.26-7.3-8.33-2.19-17.59,2.24-32.7,9.07-48.08,6.56-14.76,18.26-27.87,32-37.87,4.12-3,9.68-5.85,12.68-1.72s1.31,9.18-2.38,12.7a123.39,123.39,0,0,0-24.92,32.83,124.75,124.75,0,0,0-12.38,41.45C914.12,732.45,912.13,737.69,907.75,737.73Z" style="fill:#f37820;stroke:#231f20;stroke-miterlimit:10;stroke-width:5.786649773464336px"/><path d="M904.7,650.58c-1.17-4.89,1.66-7.13,6.39-8.86,16.43-6,31.93-5.05,48.21-1.89,15.63,3,30.81,11.4,43.46,22.43,3.8,3.3,7.76,8,4.46,11.81s-8.54,3.28-12.74.51a121.83,121.83,0,0,0-37-16.71,123.18,123.18,0,0,0-42.58-2.75C911.18,655.54,905.7,654.78,904.7,650.58Z" style="fill:#f37820;stroke:#231f20;stroke-miterlimit:10;stroke-width:5.705788505771125px"/><path d="M944.43,675.62c-4.35-2.09-4.3-5.56-2.72-10.12,5.49-15.86,15.56-26.84,27.78-37,11.73-9.8,27.14-16,43-18.79,4.76-.82,10.67-.92,11.49,3.84s-2.72,8.34-7.33,9.79A111.86,111.86,0,0,0,954,670.8C952,673.8,948.16,677.41,944.43,675.62Z" style="fill:#f37820;stroke:#231f20;stroke-miterlimit:10;stroke-width:5.4760685263313515px"/><path d="M997.76,751.91c-4.4,2.86-7.59.87-10.94-3.17-11.62-14-16.13-29.58-18.72-46.67-2.48-16.42.42-34.24,6.82-50.52,1.91-4.88,5.15-10.43,10-8.51s6.2,7.24,4.95,12.33a126.91,126.91,0,0,0-3.44,42.21,128.25,128.25,0,0,0,12.19,42.77C1000.35,743.82,1001.52,749.46,997.76,751.91Z" style="fill:#f37820;stroke:#231f20;stroke-miterlimit:10;stroke-width:5.947266603529115px"/><path d="M958.63,678.56c-3.62-4.14-2-7.75,1.7-11.82,12.88-14.12,28.36-21.09,45.75-26.27,16.68-5,35.63-4.58,53.47-.32,5.35,1.28,11.59,3.83,10.31,9.19s-6.61,7.5-12.08,6.95a133.1,133.1,0,0,0-44.36,2.6,134.73,134.73,0,0,0-42.65,18.92C967.41,680.08,961.73,682.12,958.63,678.56Z" style="fill:#f37820;stroke:#231f20;stroke-miterlimit:10;stroke-width:6.239390406416324px"/><path d="M1049.73,636.83c-4.73-1.54-5.16-5.07-4.18-9.94,3.42-16.92,12.18-29.51,23.23-41.59,10.61-11.61,25.46-20.09,41.26-25.07,4.74-1.5,10.75-2.42,12.24,2.32s-1.63,8.88-6.12,11a120,120,0,0,0-33.14,22.6,121.52,121.52,0,0,0-24.24,34.45C1057.23,633.93,1053.78,638.15,1049.73,636.83Z" style="fill:#f37820;stroke:#231f20;stroke-miterlimit:10;stroke-width:5.633360378339705px"/><path d="M1088.56,610c-4.9-1.73-5.25-5.44-4.1-10.5,4-17.59,13.51-30.51,25.38-42.85,11.39-11.84,27.14-20.32,43.78-25.11,5-1.44,11.3-2.23,12.74,2.76s-1.94,9.23-6.69,11.33a125.41,125.41,0,0,0-35.24,22.74,127.05,127.05,0,0,0-26.24,35.37C1096.48,607.15,1092.76,611.47,1088.56,610Z" style="fill:#f37820;stroke:#231f20;stroke-miterlimit:10;stroke-width:5.889236403214929px"/><path d="M1088.42,578.12c-4.54-3.06-3.92-6.94-1.4-11.8,8.75-16.89,21.84-27.55,37.22-37,14.76-9.07,33.06-13.55,51.31-14,5.47-.15,12.12.7,12.26,6.18s-4.42,8.9-9.82,9.78a132.44,132.44,0,0,0-42,13.89,133.89,133.89,0,0,0-36.13,29.13C1097.25,577.32,1092.31,580.74,1088.42,578.12Z" style="fill:#f37820;stroke:#231f20;stroke-miterlimit:10;stroke-width:6.206649292872058px"/><path d="M1047.25,557.35c-4.87-.29-6.16-3.54-6.43-8.42-1-16.93,4.25-31.06,11.75-45.29,7.21-13.66,19.22-25.41,33-34.07,4.13-2.6,9.62-5,12.22-.82s.65,8.84-3.1,12a113.11,113.11,0,0,0-40.38,68.47C1053.66,552.72,1051.43,557.59,1047.25,557.35Z" style="fill:#f37820;stroke:#231f20;stroke-miterlimit:10;stroke-width:5.533813236593927px"/><path d="M1135.4,573.73c-2,4.79-5.7,5-10.68,3.54-17.32-4.92-29.7-15-41.37-27.51-11.21-12-18.83-28.1-22.74-44.93-1.17-5.05-1.64-11.38,3.41-12.55s9.1,2.42,10.94,7.26a125.26,125.26,0,0,0,20.83,36.29,126.67,126.67,0,0,0,33.86,28C1133,565.69,1137.09,569.63,1135.4,573.73Z" style="fill:#f37820;stroke:#231f20;stroke-miterlimit:10;stroke-width:5.875648305853856px"/><path d="M1121.07,487.59c1.42-4.46,4.76-4.88,9.35-4,16,3.15,27.86,11.36,39.3,21.73,11,10,19,23.92,23.8,38.8,1.43,4.46,2.32,10.12-2.14,11.55S1183,554.2,1181,550a113.51,113.51,0,0,0-21.44-31.15A114.77,114.77,0,0,0,1127,496.1C1123.83,494.66,1119.84,491.42,1121.07,487.59Z" style="fill:#f37820;stroke:#231f20;stroke-miterlimit:10;stroke-width:5.310878229238887px"/><path d="M1135.45,450.21c3.45-4,7.08-2.94,11.42,0,15.09,10.33,23.74,24.07,31,39.84,6.93,15.14,9.06,33.14,7.39,50.6-.5,5.24-2.1,11.48-7.34,11s-8-5.27-8.18-10.52a127.19,127.19,0,0,0-8.34-41.66,128.7,128.7,0,0,0-23.57-37.88C1135.18,458.73,1132.5,453.61,1135.45,450.21Z" style="fill:#f37820;stroke:#231f20;stroke-miterlimit:10;stroke-width:5.96630543055812px"/><path d="M1215,515.93c-2.79,3.8-6.1,3.15-10.2.82-14.25-8.1-23-19.72-30.63-33.27-7.32-13-10.57-28.91-10.38-44.64,0-4.71,1-10.41,5.72-10.35s7.53,4.1,8.1,8.78a114.2,114.2,0,0,0,10.57,36.59,115.38,115.38,0,0,0,23.89,32.06C1214.62,508.3,1217.4,512.67,1215,515.93Z" style="fill:#f37820;stroke:#231f20;stroke-miterlimit:10;stroke-width:5.347297338189037px"/><path d="M1184.39,421.32c.73-4.62,3.95-5.54,8.62-5.34,16.22.69,29.2,7,42,15.47,12.34,8.15,22.4,20.7,29.35,34.65,2.09,4.18,3.82,9.63-.36,11.72s-8.49-.22-11.11-4.08a108.3,108.3,0,0,0-61.44-44.93C1188.19,427.86,1183.76,425.27,1184.39,421.32Z" style="fill:#f37820;stroke:#231f20;stroke-miterlimit:10;stroke-width:5.298624314213131px"/><path d="M1210.37,446c-4.44-2.07-4.44-5.59-2.89-10.25,5.38-16.18,15.48-27.46,27.77-38,11.8-10.1,27.38-16.63,43.47-19.62,4.82-.9,10.83-1.07,11.72,3.76s-2.66,8.5-7.33,10a113.59,113.59,0,0,0-63.11,49C1218.08,444,1214.18,447.73,1210.37,446Z" style="fill:#f37820;stroke:#231f20;stroke-miterlimit:10;stroke-width:5.564438915376004px"/><path d="M1230.62,478.53c-4.21,3-7.44,1.17-10.91-2.67-12-13.35-17.16-28.48-20.43-45.22-3.15-16.08-1-33.78,4.57-50.1,1.68-4.89,4.64-10.5,9.54-8.81s6.42,6.87,5.41,11.94a125.21,125.21,0,0,0-1.61,41.77A126.82,126.82,0,0,0,1231,467.09C1232.84,470.44,1234.24,476,1230.62,478.53Z" style="fill:#f37820;stroke:#231f20;stroke-miterlimit:10;stroke-width:5.8691877952469635px"/><path d="M1114.87,488.92c-3.7-3.7-2.41-7.22.84-11.31,11.3-14.23,25.53-21.83,41.67-27.87,15.5-5.79,33.48-6.64,50.67-3.75,5.16.87,11.23,2.89,10.36,8s-5.77,7.54-11,7.37a121.17,121.17,0,0,0-81.08,26C1123.29,489.79,1118,492.09,1114.87,488.92Z" style="fill:#f37820;stroke:#231f20;stroke-miterlimit:10;stroke-width:5.92805645843655px"/><path d="M1052.17,489.74c1.87-4.78,5.55-5,10.51-3.7,17.24,4.55,29.68,14.35,41.47,26.48,11.32,11.65,19.17,27.49,23.35,44.08,1.25,5,1.83,11.24-3.15,12.49s-9.06-2.22-11-7A119,119,0,0,0,1058,499.46C1054.71,497.66,1050.57,493.84,1052.17,489.74Z" style="fill:#f37820;stroke:#231f20;stroke-miterlimit:10;stroke-width:5.819533674949754px"/><path d="M1324.38,465.79c-1.36,4.66-4.8,5.19-9.59,4.37-16.64-2.83-29.19-11-41.32-21.46-11.66-10-20.39-24.29-25.72-39.57-1.61-4.59-2.68-10.44,1.91-12s8.72,1.33,10.92,5.66a117.53,117.53,0,0,0,23.07,31.72A119,119,0,0,0,1318,457.13C1321.32,458.54,1325.55,461.79,1324.38,465.79Z" style="fill:#f37820;stroke:#231f20;stroke-miterlimit:10;stroke-width:5.506779864145209px"/><path d="M1210.35,401.52c1.05-4.93,4.58-5.74,9.6-5.26,17.46,1.68,31.09,9.21,44.47,19.11,12.84,9.5,23,23.62,29.66,39.06,2,4.63,3.57,10.61-1.06,12.62s-9.15-.72-11.76-5a122.13,122.13,0,0,0-26.32-31.12A123.46,123.46,0,0,0,1217.59,410C1214.07,408.8,1209.44,405.75,1210.35,401.52Z" style="fill:#f37820;stroke:#231f20;stroke-miterlimit:10;stroke-width:5.723025986876514px"/><path d="M1204.51,545.6c-5.34,1.73-8.09-1.23-10.42-6.34-8.09-17.77-8.42-35.1-6.31-53.5,2-17.67,10-35.3,21.16-50.35,3.35-4.51,8.25-9.34,12.76-6s4.4,9.22,1.68,14.14a130.16,130.16,0,0,0-14.7,90.33C1209.46,538,1209.09,544.12,1204.51,545.6Z" style="fill:#f37820;stroke:#231f20;stroke-miterlimit:10;stroke-width:6.371554087038308px"/><path d="M1287.85,429.65c-5.23.74-7.29-2.43-8.63-7.54-4.64-17.76-2.15-33.86,2.75-50.56,4.71-16,14.93-31.08,27.69-43.22,3.82-3.64,9.14-7.32,12.78-3.49s2.59,9.23-.72,13.35a127.86,127.86,0,0,0-21.08,37.07,129.18,129.18,0,0,0-7.05,44.22C1293.66,423.37,1292.33,429,1287.85,429.65Z" style="fill:#f37820;stroke:#231f20;stroke-miterlimit:10;stroke-width:5.988145016101968px"/><path d="M821.7,878.51c-2.83-3.85-1.19-6.86,2.3-10.12,12.14-11.32,26-16.26,41.44-19.53,14.8-3.14,31.16-1.47,46.31,3.47,4.54,1.48,9.76,4.13,8.28,8.67s-6.25,6-10.95,5.18a115.63,115.63,0,0,0-38.57-.87,117.14,117.14,0,0,0-38.24,13.39C829.2,880.43,824.13,881.8,821.7,878.51Z" style="fill:#f37820;stroke:#231f20;stroke-miterlimit:10;stroke-width:5.418248559717007px"/><path d="M802.45,958.84c-4.65,2.48-7.67.22-10.67-4.11-10.43-15-13.62-31-14.75-48.3-1.09-16.64,3.33-34.23,11.12-50,2.34-4.73,6.05-10,10.77-7.66s5.6,7.77,3.91,12.76a127.23,127.23,0,0,0-7,42,128.62,128.62,0,0,0,8.55,43.83C805.74,951,806.43,956.71,802.45,958.84Z" style="fill:#f37820;stroke:#231f20;stroke-miterlimit:10;stroke-width:5.972908763438441px"/><path d="M822,930.72c-5.08-1.24-5.82-4.92-5.17-10.11,2.25-18,10.46-31.94,21.11-45.5,10.22-13,25.15-23.1,41.34-29.58,4.86-1.95,11.1-3.38,13,1.48s-1,9.45-5.56,12a126.77,126.77,0,0,0-33,26.35A128.17,128.17,0,0,0,831,923.47C829.6,927.08,826.31,931.78,822,930.72Z" style="fill:#f37820;stroke:#231f20;stroke-miterlimit:10;stroke-width:5.931420334963117px"/><path d="M755.23,981.77c5.11,1.13,5.92,4.8,5.38,10-1.87,18.08-9.77,32.15-20.13,45.94-10,13.23-24.66,23.63-40.71,30.45-4.81,2-11,3.61-13.07-1.2s.81-9.47,5.31-12.14a126.59,126.59,0,0,0,32.45-27,128.17,128.17,0,0,0,21.91-38.56C747.66,985.58,750.85,980.8,755.23,981.77Z" style="fill:#f37820;stroke:#231f20;stroke-miterlimit:10;stroke-width:5.931420334963117px"/><path d="M763.69,1112.89c-5.08-1.24-5.82-4.92-5.17-10.11,2.26-18,10.46-31.94,21.11-45.5,10.22-13,25.15-23.1,41.34-29.58,4.86-1.94,11.1-3.38,13,1.48s-1,9.45-5.56,12a121.11,121.11,0,0,0-55.74,64.44C771.34,1109.25,768.05,1114,763.69,1112.89Z" style="fill:#f37820;stroke:#231f20;stroke-miterlimit:10;stroke-width:5.931420334963117px"/><path d="M952.17,786c-2.88,4.19-6.47,3.59-11,1.21-15.62-8.27-25.43-20.52-34.09-34.88-8.31-13.79-12.33-30.83-12.64-47.79-.09-5.09.76-11.25,5.84-11.35s8.25,4.18,9,9.21a123.1,123.1,0,0,0,12.57,39.1,124.53,124.53,0,0,0,26.79,33.8C951.5,777.77,954.64,782.39,952.17,786Z" style="fill:#f37820;stroke:#231f20;stroke-miterlimit:10;stroke-width:5.767639476557739px"/><path d="M835,704.9c-2.46-4.06-.57-6.88,3.17-9.8,13-10.12,27.18-13.77,42.7-15.64,14.91-1.8,30.94,1.31,45.48,7.53,4.36,1.87,9.28,5,7.41,9.31s-6.71,5.41-11.28,4.14a114.85,114.85,0,0,0-38.06-4.26,116.09,116.09,0,0,0-39,9.85C842.2,707.47,837.07,708.37,835,704.9Z" style="fill:#f37820;stroke:#231f20;stroke-miterlimit:10;stroke-width:5.37812289948936px"/><path d="M838.34,716.06c3.56-3.43,6.87-2.15,10.67,1,13.23,10.93,20.15,24.51,25.56,39.87,5.2,14.74,5.67,31.74,2.62,47.93-.91,4.85-2.93,10.55-7.78,9.64s-7-5.6-6.76-10.53a114.48,114.48,0,0,0-23.1-77.06C837.37,724,835.29,719,838.34,716.06Z" style="fill:#f37820;stroke:#231f20;stroke-miterlimit:10;stroke-width:5.6004193822771935px"/><path d="M936.53,650.13c-4.06-3.85-2.78-7.66.59-12.13,11.7-15.52,26.72-24,43.83-31,16.42-6.63,35.64-8,54.11-5.41,5.54.79,12.09,2.78,11.31,8.32s-6,8.23-11.57,8.19A135.47,135.47,0,0,0,990.13,625a137.18,137.18,0,0,0-41.38,23.21C945.57,650.84,940,653.44,936.53,650.13Z" style="fill:#f37820;stroke:#231f20;stroke-miterlimit:10;stroke-width:6.345283783784114px"/><path d="M967.82,652.59c-2.67,4.79-6.59,4.51-11.66,2.4-17.6-7.31-29.36-19.49-40.1-34-10.3-14-16.33-31.88-18.35-50.06-.61-5.45-.32-12.16,5.13-12.77s9.27,3.66,10.61,9a132.62,132.62,0,0,0,17.41,40.74A134.26,134.26,0,0,0,963,641.45C966.28,643.84,970.11,648.49,967.82,652.59Z" style="fill:#f37820;stroke:#231f20;stroke-miterlimit:10;stroke-width:6.220875833261178px"/><path d="M871.29,657.22c-3.61-3-2.76-6.24-.21-10.18C880,633.38,892,625.38,905.9,618.61c13.34-6.51,29.32-8.8,44.92-7.68,4.67.33,10.27,1.61,9.93,6.29s-4.51,7.22-9.19,7.52a113.4,113.4,0,0,0-36.93,8.33A114.87,114.87,0,0,0,881.4,654.9C878.89,657.27,874.39,659.78,871.29,657.22Z" style="fill:#f37820;stroke:#231f20;stroke-miterlimit:10;stroke-width:5.316643094952273px"/><path d="M976.63,514.93c1.34-4.73,4.83-5.28,9.68-4.49,16.88,2.77,29.65,11,42,21.47,11.87,10.08,20.81,24.47,26.32,39.92,1.66,4.64,2.78,10.55-1.85,12.21s-8.85-1.29-11.11-5.67a119.08,119.08,0,0,0-23.58-32,120.41,120.41,0,0,0-35-22.73C979.78,522.26,975.47,519,976.63,514.93Z" style="fill:#f37820;stroke:#231f20;stroke-miterlimit:10;stroke-width:5.579122349710987px"/><path d="M967.35,526.67c-.7-5.14,2.43-7.15,7.46-8.43,17.46-4.47,33.26-2,49.64,3,15.73,4.7,30.45,14.82,42.3,27.41,3.56,3.77,7.15,9,3.37,12.57s-9.08,2.49-13.11-.77a125.52,125.52,0,0,0-36.3-20.9,127,127,0,0,0-43.39-7.15C973.49,532.41,968,531.08,967.35,526.67Z" style="fill:#f37820;stroke:#231f20;stroke-miterlimit:10;stroke-width:5.881470304768148px"/><path d="M1114.35,505.81c-.95,4.88-4.41,5.74-9.36,5.35-17.22-1.32-30.78-8.48-44.12-18-12.81-9.12-23-22.83-29.92-37.91-2.06-4.52-3.7-10.37.82-12.44s9,.54,11.66,4.75a115.16,115.16,0,0,0,63.63,50C1110.55,498.71,1115.16,501.63,1114.35,505.81Z" style="fill:#f37820;stroke:#231f20;stroke-miterlimit:10;stroke-width:5.634255832795369px"/><path d="M1117.07,409.26c1.77-4.38,5.16-4.56,9.72-3.3,15.83,4.37,27.19,13.52,37.93,24.82,10.31,10.85,17.38,25.51,21,40.84,1.11,4.6,1.58,10.37-3,11.47s-8.32-2.14-10-6.55a109.61,109.61,0,0,0-50.34-58.27C1119.33,416.58,1115.55,413,1117.07,409.26Z" style="fill:#f37820;stroke:#231f20;stroke-miterlimit:10;stroke-width:5.361199464307196px"/><path d="M1147.79,495.07c-1.47,4.42-4.79,4.8-9.35,3.84-15.84-3.31-27.57-11.61-38.83-22.05-10.8-10-18.65-24-23.21-38.85-1.38-4.45-2.19-10.09,2.26-11.46s8.31,1.59,10.26,5.82a112.8,112.8,0,0,0,21,31.22,114,114,0,0,0,32.12,23C1145.12,488,1149.05,491.28,1147.79,495.07Z" style="fill:#f37820;stroke:#231f20;stroke-miterlimit:10;stroke-width:5.280662643071455px"/><path d="M1045.41,532.3c-4.45-2.75-4-6.48-1.77-11.21,7.74-16.44,19.86-27.11,34.19-36.69,13.76-9.2,31.08-14.14,48.49-15.27,5.22-.34,11.6.23,11.93,5.45s-3.89,8.67-9,9.71a126.23,126.23,0,0,0-39.57,14.79,127.9,127.9,0,0,0-33.43,29.13C1053.81,531.22,1049.22,534.67,1045.41,532.3Z" style="fill:#f37820;stroke:#231f20;stroke-miterlimit:10;stroke-width:5.9312490168995575px"/><path d="M946.24,587.82c-2.79-4.84-.49-8.11,4-11.43,15.59-11.55,32.37-15.45,50.69-17.21,17.59-1.69,36.37,2.42,53.3,10.16,5.08,2.31,10.79,6.08,8.46,11.16s-8,6.17-13.38,4.56a129.35,129.35,0,0,0-90.83,4.39C954.68,591.05,948.62,592,946.24,587.82Z" style="fill:#f37820;stroke:#231f20;stroke-miterlimit:10;stroke-width:6.330761299164958px"/><path d="M1000,529.88c2.62-4.12,6.09-3.67,10.49-1.54,15.28,7.41,25.12,18.84,33.92,32.33,8.45,13,12.89,29.18,13.76,45.45.26,4.88-.34,10.83-5.22,11.09s-8.06-3.73-9-8.53A113.24,113.24,0,0,0,1003.72,540C1000.93,537.74,997.76,533.41,1000,529.88Z" style="fill:#f37820;stroke:#231f20;stroke-miterlimit:10;stroke-width:5.540940806181968px"/></svg>