<svg xmlns="http://www.w3.org/2000/svg" xmlns:xlink="http://www.w3.org/1999/xlink" height="1661.778" width="1924" xmlns:v="https://vecta.io/nano"><style><![CDATA[.B{stroke-width:24}.C{stroke-miterlimit:10}.D{fill:#9ca0aa}.E{stroke:#010101}.F{stroke:#231f20}.G{stroke-linejoin:round}.H{stroke-width:7.917}]]></style><g class="G"><path d="M1637.7 620.458l-695.5 184.73c26.72-240-25.67-422-161.46-608l695.5-184.7c34.6-9.18 124.4 112.1 169 280.18s26.92 318.68-7.6 327.84z" class="B D E"/><path d="M1520.12 651.678l-459.65 122.07c34.5-9.17 36.64-155.6-8-323.7S933.6 156.538 899 165.728l459.7-122.06c34.6-9.2 124.42 112.08 169.06 280.17s26.9 318.68-7.6 327.84z" fill="#fff" stroke-width="15.833" class="F"/><path d="M780.74 197.188c34.6-9.2 108.82 116.22 153.46 284.3s42.5 314.54 8 323.7-114.9-114.6-159.54-282.7-36.52-316.18-1.92-325.3z" class="B D E"/></g><g class="F C"><path d="M1184.6 430.038c-17-21.1-16.9-41.27-40.15-30.62-19.23 8.8-14.35 39.7 2.6 60.8s46.08 32.5 58.82 15.62c15.42-20.42-4.3-24.64-21.28-45.8zm106.15 42.57c6.18-26.36 22.1-38.73-.6-50.5-18.8-9.73-40.1 13.14-46.3 39.5s2.76 56.32 23.9 56c25.58-.5 16.8-18.65 22.98-45zm99.75-201.1c6.17-26.36 22.1-38.73-.6-50.5-18.78-9.73-40.1 13.14-46.3 39.5s2.77 56.32 23.92 56c25.57-.5 16.78-18.65 22.98-45zm-38.2 76.96c-13.44-23.5-10.22-43.4-34.86-36.53-20.37 5.7-20.4 37-6.94 60.46s40.42 39.32 55.64 24.63c18.43-17.75-.37-25.06-13.84-48.56zm67.35 181.3c-18-20.25-18.88-40.4-41.6-28.63-18.78 9.73-12.4 40.34 5.57 60.6s47.6 30.23 59.5 12.75c14.4-21.15-5.5-24.46-23.48-44.7zm-75.9-337.33c4-26.77 18.9-40.4-4.7-50.27-19.5-8.17-38.9 16.35-42.92 43.13s7.33 55.9 28.38 53.82c25.45-2.52 15.23-19.94 19.25-46.68zm-88.86 214.57c20.87-17.25 41-17.46 30.07-40.57-9.07-19.1-39.88-13.8-60.75 3.44s-31.88 46.5-14.82 59c20.63 15.14 24.63-4.63 45.5-21.87zm178.46-47.45c.06-27.07 12.8-42.72-12-49-20.5-5.23-36.1 21.86-36.16 48.94s15.43 54.23 35.94 49.1c24.82-6.25 12.15-21.96 12.22-49.04zm-146.56-53.03c21.24-16.78 41.4-16.55 31-39.9-8.65-19.3-39.57-14.68-60.8 2.1s-32.9 45.8-16.1 58.68c20.24 15.58 24.68-4.1 45.92-20.9zm-83.7 32.65c7.3-26.08 23.73-37.76 1.53-50.47-18.34-10.53-40.63 11.38-47.92 37.47s.4 56.38 21.54 56.9c25.57.63 17.57-17.9 24.85-43.9zm207.66 149.56c20.6 17.56 24.3 37.4 45.16 22.6 17.25-12.24 6.7-41.68-13.9-59.24s-51.33-23.34-60.7-4.38c-11.32 22.94 8.84 23.47 29.44 41.03zm-95.4-27.97c-5.5 26.52-21.1 39.3 1.93 50.46 19 9.23 39.75-14.2 45.23-40.7s-4.24-56.23-25.38-55.35c-25.55 1.16-16.3 19.08-21.78 45.6z" fill="#9a1c22" class="H"/><g fill="#fff" class="B"><path d="M1315.47 1047.808h534.68a61.85 61.85 0 0 1 61.85 61.85h0a61.85 61.85 0 0 1-61.85 61.85h-534.68"/><path d="M674.65 1649.778c-304.8 0-662.65-162.17-662.65-530.55 0-142 296.68-257 662.65-257s662.64 115.04 662.64 256.96c0 368.42-357.85 530.6-662.64 530.6z"/></g></g><g fill="#939598"><ellipse ry="18.09" rx="18.16" cy="1419.328" cx="674.65"/><ellipse ry="18.09" rx="18.16" cy="1491.368" cx="674.65"/><ellipse ry="18.09" rx="18.16" cy="1563.418" cx="674.65"/><path d="M779.35 1543.958c8.4 6 10.9 18.6 5.1 27.85-5.64 9.35-17.23 11.26-25.22 4.66a21.75 21.75 0 0 1-4.7-27.54 17.06 17.06 0 0 1 24.82-4.97zm35.57-67.9c8.88 5.06 12.45 17.34 7.53 27.14s-16 13.1-24.66 7.43-11.72-17.63-7.15-26.9 15.3-12.77 24.28-7.66zm28.55-71.87c9.57 3.63 14.42 15.4 10.6 26s-14.64 15.22-23.78 10.6-13.47-16.13-9.9-25.72a17.74 17.74 0 0 1 23.08-10.88zm57.1 127.48c7.12 7 7.72 18.13.9 24.53s-17.8 5.4-24.43-2.26c-6.5-7.5-6.77-18.35-.52-24.12s16.84-5.2 24.04 1.85zm42.74-48.28c7.94 6.22 9.55 17 3.68 24.18s-17.06 7.27-24.5.63-8.84-17.25-3.36-23.9 16.33-7.05 24.18-.9zm37-52.78c8.58 5.18 11.68 15.95 6.45 23.65-5.06 7.83-16.1 9.2-24.28 3.38s-10.67-16.18-6-23.38c4.83-7.07 15.26-8.84 23.83-3.65zm29.04-57.5c9.43 3.42 14.1 13.46 10.38 22.4-4.1 8.62-14.72 11.8-23.6 7.16s-13.14-14.5-9.53-22c3.13-7.6 13.34-10.97 22.76-7.55zm49.04 111.65c6.58 7.56 5.9 18.77-1.58 25-7.57 6-18.65 4.45-24.77-3.52s-5.27-19 1.86-24.65c6.95-5.8 17.9-4.4 24.5 3.17zm47.98-47.66c7.62 6.45 8.62 17.83 1.9 25.07a17.34 17.34 0 0 1-25.1-.24c-6.92-7.1-7.6-18.2-1.4-24.6 6.05-6.52 16.9-6.75 24.6-.24zm39.22-55.04c8.72 5 11.92 16.06 6.37 24.34-5.25 8.46-16.7 10.1-24.8 4.2s-10.34-16.4-5.7-23.9c4.93-7.32 15.42-9.58 24.13-4.63zm28.12-61.45c9.4 3.2 14.74 13.5 10.95 22.7a17.28 17.28 0 0 1-23.47 8.88c-9.08-4.25-13.67-14.3-10.23-22.42s13.16-12.42 22.75-9.16zm-605.26 223.35a17 17 0 0 1 24.81 5 21.74 21.74 0 0 1-4.69 27.54c-8 6.6-19.58 4.7-25.22-4.66-5.8-9.27-3.32-21.86 5.1-27.88zm-35.57-67.9c9-5.1 19.64-1.57 24.28 7.66s1.47 21.27-7.16 26.9-19.8 2.4-24.65-7.43-1.35-22.08 7.53-27.14zm-28.57-71.87a17.74 17.74 0 0 1 23.09 10.91c3.58 9.6-.78 21.1-9.9 25.72s-19.85-.06-23.78-10.6 1.04-22.37 10.58-26.03zm-57.07 127.48c7.2-7.06 17.82-7.7 24-1.85s6 16.6-.53 24.12-17.54 8.63-24.42 2.26-6.17-17.54.95-24.53zm-42.73-48.28c7.85-6.15 18.72-5.78 24.18.9s4.16 17.2-3.37 23.9-18.6 6.52-24.5-.63-4.26-17.96 3.68-24.18zm-37-52.78c8.58-5.2 19-3.45 23.86 3.65 4.63 7.2 2.12 17.57-6 23.38s-19.2 4.45-24.27-3.38c-5.27-7.7-2.18-18.47 6.4-23.65zm-29.05-57.5c9.42-3.42 19.63-.06 22.75 7.54 3.62 7.52-.63 17.37-9.53 22s-19.5 1.46-23.6-7.16c-3.72-8.92.95-18.96 10.38-22.38zm-49.05 111.65c6.58-7.56 17.54-9 24.5-3.18 7.13 5.65 7.94 16.7 1.86 24.65s-17.2 9.54-24.78 3.52c-7.46-6.22-8.16-17.43-1.57-25zm-47.97-47.66c7.68-6.5 18.54-6.28 24.6.24 6.2 6.4 5.52 17.48-1.4 24.6a17.34 17.34 0 0 1-25.1.24c-6.7-7.24-5.7-18.62 1.9-25.07zm-39.23-55.04c8.7-4.95 19.2-2.7 24.12 4.63 4.64 7.5 2.43 18-5.7 23.9s-19.54 4.26-24.8-4.2c-5.54-8.28-2.35-19.38 6.38-24.34zm-28.1-61.45c9.6-3.26 19.38 1 22.75 9.16s-1.14 18.17-10.22 22.42a17.28 17.28 0 0 1-23.47-8.88c-3.8-9.2 1.55-19.5 10.94-22.7z"/><use xlink:href="#B"/><use xlink:href="#B" y="46.93"/><path d="M674.65 1045.578a11.79 11.79 0 1 1 12.11-11.79 12 12 0 0 1-12.11 11.79zm0 46.93a11.79 11.79 0 1 1 12.11-11.78 11.95 11.95 0 0 1-12.11 11.78z"/><use xlink:href="#B" y="187.73"/><use xlink:href="#B" y="234.66"/><use xlink:href="#B" y="281.59"/><path d="M674.65 1280.238a11.79 11.79 0 1 1 12.11-11.79 12 12 0 0 1-12.11 11.79zm86.9-19.62c6.24 2.55 8.9 9.85 6.06 16.35-3.1 6.5-10.5 9.18-16.46 6a12.32 12.32 0 0 1 10.4-22.32zm16.8-46.08a12.32 12.32 0 1 1-15.35 7.76 12.18 12.18 0 0 1 15.35-7.76zm14.22-46.95a12.32 12.32 0 1 1-15 8.44 12.17 12.17 0 0 1 15-8.44zm12.72-47.4a12.32 12.32 0 1 1-14.8 8.85 12.18 12.18 0 0 1 14.8-8.85zm11.72-47.62a12.32 12.32 0 1 1-14.64 9.14 12.18 12.18 0 0 1 14.64-9.14zm10.95-47.82a12.32 12.32 0 1 1-14.5 9.35 12.17 12.17 0 0 1 14.5-9.35zm10.33-47.96a12.32 12.32 0 1 1-14.38 9.53 12.19 12.19 0 0 1 14.38-9.53zm9.8-48.07a12.32 12.32 0 1 1-14.28 9.69 12.19 12.19 0 0 1 14.28-9.69zm35.97 328.47a11.67 11.67 0 1 1-14.66 18.11c-4.85-4.54-5.6-11.73-1.86-16.44s11.05-5.6 16.52-1.67zm24.93-39.14a11.67 11.67 0 1 1-12 20c-5.6-3.58-7.52-10.8-4.28-16.15a12 12 0 0 1 16.28-3.85zm21.68-41.04a11.67 11.67 0 1 1-10.59 20.77 12 12 0 0 1-5.43-15.84c2.84-5.66 10.03-7.86 16.02-4.93zm19.55-42.1a11.67 11.67 0 1 1-9.61 21.24 11.66 11.66 0 1 1 9.61-21.24zm17.95-42.8a11.66 11.66 0 1 1-15.58 6.22 11.83 11.83 0 0 1 15.58-6.22zm16.54-43.38a11.66 11.66 0 1 1-8.12 21.85c-6.23-2.4-9.48-9.17-7.24-15.13a11.92 11.92 0 0 1 15.36-6.72zm15.08-43.9a11.67 11.67 0 1 1-15.12 7.25c2-6.04 8.77-9.28 15.12-7.25zm13.08-44.54a11.67 11.67 0 1 1-6.24 22.46c-6.42-1.9-10.14-8.38-8.44-14.45s8.22-9.64 14.68-8zm29.76 254.68a11.72 11.72 0 1 1-16.61-2.26c4.97-3.95 12.4-2.93 16.6 2.26zm35.13-30.75a11.73 11.73 0 1 1-17.29 15.82c-4.37-5.06-4.1-12.56.6-16.75a12 12 0 0 1 16.69.93zm32-33.92a11.73 11.73 0 1 1-15.59 17.49 12.2 12.2 0 0 1-1.16-16.71c4.14-4.68 11.67-5 16.75-.78zm27.6-37.62a11.73 11.73 0 1 1-13.27 19.31c-5.36-4-6.75-11.32-3.1-16.36 3.46-5.16 10.7-6.54 16.37-2.95zm22.58-40.82a11.76 11.76 0 0 1 5.59 16c-2.87 6.1-10.45 8.12-16.26 4.87a12.23 12.23 0 0 1-5.31-15.85c2.75-5.57 9.9-7.8 15.98-5.02zm17-43.43a11.72 11.72 0 1 1-7.81 22.09c-6.15-2.44-9.56-9.22-7.46-15.08s9-8.98 15.27-7zm-590.65 232.22a12.32 12.32 0 0 1 10.39 22.32c-6 3.2-13.34.52-16.45-6-2.94-6.47-.23-13.75 6.06-16.32zm-16.87-46.08a12.31 12.31 0 1 1-7.55 15.61 12.25 12.25 0 0 1 7.55-15.61zm-14.23-46.95a12.32 12.32 0 1 1-8.21 15.23 12.26 12.26 0 0 1 8.21-15.23zm-12.72-47.4a12.32 12.32 0 1 1-8.61 15 12.25 12.25 0 0 1 8.61-15zm-11.7-47.62a12.32 12.32 0 1 1-8.9 14.81 12.25 12.25 0 0 1 8.9-14.81zm-10.95-47.82a12.32 12.32 0 1 1-9.12 14.68 12.23 12.23 0 0 1 9.12-14.68zm-10.32-47.96a12.31 12.31 0 1 1-9.3 14.56 12.23 12.23 0 0 1 9.3-14.56zm-9.82-48.07a12.32 12.32 0 1 1-9.45 14.46 12.22 12.22 0 0 1 9.45-14.46zm-35.96 328.47c5.46-3.94 12.74-3 16.52 1.67s3 11.9-1.87 16.44a11.67 11.67 0 1 1-14.65-18.11zm-24.92-39.14a12 12 0 0 1 16.26 3.85c3.24 5.34 1.32 12.57-4.28 16.15a11.67 11.67 0 1 1-12-20zm-21.7-41.04c6-2.93 13.17-.73 16 4.93a12 12 0 0 1-5.42 15.84 11.67 11.67 0 1 1-10.59-20.77zm-19.54-42.1a11.66 11.66 0 1 1 9.6 21.24 11.66 11.66 0 1 1-9.6-21.24zm-17.96-42.8a11.66 11.66 0 1 1-6.83 15.39 11.93 11.93 0 0 1 6.83-15.39zm-16.53-43.38a11.92 11.92 0 0 1 15.36 6.72c2.24 6-1 12.74-7.24 15.13a11.67 11.67 0 1 1-8.12-21.85zm-15.07-43.9c6.34-2 13.12 1.2 15.1 7.25a12.11 12.11 0 1 1-15.11-7.25zm-13.1-44.54c6.45-1.63 13 1.94 14.68 8s-2 12.54-8.44 14.45a11.67 11.67 0 1 1-6.24-22.46zm-29.76 254.68c4.2-5.2 11.65-6.2 16.62-2.26a12.11 12.11 0 1 1-16.62 2.26zm-35.14-30.75a12 12 0 0 1 16.7-.93c4.7 4.2 5 11.7.6 16.75a11.73 11.73 0 1 1-17.3-15.82zm-32-33.92c5.1-4.22 12.62-3.9 16.76.78a12.21 12.21 0 0 1-1.16 16.71 11.73 11.73 0 1 1-15.6-17.49zm-27.57-37.62c5.67-3.6 12.9-2.2 16.36 3 3.65 5 2.26 12.36-3.1 16.36a11.73 11.73 0 1 1-13.27-19.31zm-22.58-40.82c6.07-2.8 13.23-.55 16 5a12.23 12.23 0 0 1-5.31 15.85c-5.8 3.25-13.4 1.23-16.27-4.87a11.77 11.77 0 0 1 5.58-15.98zm-17.02-43.43c6.28-2 13.22 1.14 15.28 7s-1.3 12.64-7.46 15.08a11.72 11.72 0 1 1-7.82-22.09z"/></g><g class="F C"><g fill="#9a1c22" class="H"><path d="M676.07 1177.808c34.85-.5 55.26 15.55 62.88-16.5 6.3-26.5-28.9-46-63.76-45.5s-69.5 21-62.44 47.3c8.54 31.8 28.47 15.2 63.32 14.7zm200.23-441.93c-24.53 24.75-50.35 27.6-33.35 55.8 14.06 23.32 52.86 12.6 77.4-12.16s34.9-63.65 11.46-77.5c-28.4-16.75-31.02 9.1-55.5 33.85z"/><path d="M580.56 1221.718c23.35 25.9 24.74 51.82 53.85 36.42 24.07-12.73 15.54-52.06-7.8-78s-61.6-38.4-76.74-15.77c-18.3 27.43 7.35 31.47 30.7 57.35zm210.74 79.66c30.76 16.4 40.88 40.3 63 15.93 18.3-20.15-3.1-54.25-33.85-70.64s-71-15.17-77.52 11.27c-7.87 31.96 17.63 27.05 48.37 43.44z"/><path d="M724 1242.408c34.18-6.84 57.18 5.22 58.83-27.67 1.36-27.2-36.82-40-71-33.13s-64.5 33.32-52.78 57.9c14.24 29.7 30.78 9.75 64.95 2.9zm79.77-373.9c10-33.38 31.5-48 3.24-64.92-23.36-14-52.6 13.7-62.62 47.07s-.92 72.6 26.28 73.8c32.9 1.47 23.07-22.57 33.1-55.95zm-349.57 415.3c31.14-15.66 56.5-10.14 49.37-42.3-5.9-26.58-46.1-28.76-77.23-13.1s-53.34 49.24-35.52 69.82c21.56 24.95 32.25 1.23 63.38-14.43zm380.1-57.78c29.3 18.85 37.46 43.5 61.5 21 19.9-18.6 1.33-54.33-28-73.17s-69.52-20.9-78.2 4.9c-10.43 31.24 15.4 28.42 44.68 47.26zm-65.38-144.6c21.46 27.46 21 53.43 51.14 40.13 24.9-11 19.18-50.84-2.27-78.3s-58.73-42.66-75.43-21.15c-20.2 26 5.1 31.86 26.56 59.33zm-84.18 247.77c34.3 6.13 51.3 25.76 64.86-4.25 11.2-24.8-19.65-50.66-54-56.8s-72.2 7.43-70.3 34.6c2.37 32.83 25.12 20.3 59.43 26.44zm213.78-78.16c-21.73 27.25-47.1 32.84-27.17 59.06 16.48 21.68 53.9 6.86 75.64-20.4s27.87-67 3.08-78.28c-30-13.6-29.78 12.37-51.55 39.6zm-241.94-278.96c-21.74 27.25-47.1 32.84-27.17 59.06 16.48 21.68 53.9 6.86 75.64-20.4s27.87-67 3.08-78.28c-30-13.6-29.84 12.37-51.55 39.6zm-122.03 295.04c-28.66 19.83-54.55 17.88-43 48.72 9.53 25.5 49.64 22.1 78.3 2.27s46-56.15 25.5-74.07c-24.82-21.67-32.13 3.25-60.8 23.08z"/><path d="M538.18 1193.888c-31.18-15.6-41.93-39.22-63.42-14.27-17.77 20.63 4.52 54.15 35.7 69.73s71.36 13.3 77.2-13.3c7.05-32.17-18.3-26.58-49.48-42.16z"/></g><path d="M1337.3 1114.188c0 122-296.68 221-662.65 221s-662.64-99-662.64-221" fill="none" class="B"/></g><path d="M138.1 110.918c4.5-35.5 148.62-57.12 321.16-35.25s307.43 78.92 302.94 114.34-149.36 63.37-321.92 41.5-306.68-85.08-302.18-120.6z" class="B D E G"/><defs ><path id="B" d="M674.65 951.708a11.78 11.78 0 1 1 12.11-11.78 11.94 11.94 0 0 1-12.11 11.78z"/></defs></svg>