<svg xmlns="http://www.w3.org/2000/svg" height="1902.62" width="1923.99"  xmlns:v="https://vecta.io/nano"><g stroke="#231f20" stroke-width="24"><g stroke-miterlimit="10"><path d="M834.44 1890.62c377.7 0 821.17-201 821.17-657.48 0-107.53-367.65-206.37-821.17-206.37h-1.27C379.65 1026.77 12 1125.6 12 1233.14c0 456.5 443.47 657.48 821.17 657.48" fill="#fff"/><path d="M1602.47 1226.9c0 51.53-343.84 127.88-768 127.88h-1.35c-424.15 0-768-76.35-768-127.88" fill="none" stroke-linecap="round"/></g><path d="M738.8 1283.1s9.1-475.27 465.32-571.27l-122.86 122.3c-225.18 118.17-169.16 456.1-169.16 456.1" fill="#fff" stroke-linecap="round" stroke-linejoin="round"/></g><path d="M1612.12 128.14c-40.22 32.92-71.6 68.26-110.1 118.58l-177.65 239.1-278.74 385.93c73 29.06 119.2 28.9 162.2 24.72 54.8-5.3 97.1-55.1 130.73-100.68s54.9-82.65 59-110.88c4-28-8.83-81.22-15.52-105.76s-18.12-46.73-7.08-61.7l160.93-243.5c52.56-66.36 71.2-83.58 112.2-116.84 113.36-91.94 156.18-75.36 228.53-91.93L1912 12c-145.5 27.83-185.3 22.4-299.87 116.14z" fill="#231f20"/></svg>