<svg xmlns="http://www.w3.org/2000/svg" height="1976.39" width="1482.368"  xmlns:v="https://vecta.io/nano"><g fill="#fff" stroke="#231f20" stroke-width="24" stroke-miterlimit="10"><path d="M1457.926 163.54l-680.13 758.38c-21.42 23.88-52.85 20.18-69.7-7.4l-95.72-156.75c-13.34-21.85-9-55.6 9.24-76l580.64-647.45c18.28-20.4 51.38-28.32 74.54-17.42l166.2 78.16c29.25 13.75 36.37 44.6 14.92 68.48z"/><path d="M1361.776 138.18c-10.06 11.2-28.78 14.62-41.64 7.7l-76.06-40.9c-11.5-6.18-13.13-19.54-3.8-29.93s26.26-14.1 38-8.2l77.75 39c13.16 6.6 15.8 21.12 5.76 32.33z"/></g><g fill="#fcfbf3" stroke="#010101" stroke-width="8.128" stroke-linejoin="round"><path d="M492.536 1014.24s67.63-92.12 86-127.8c10.4 12.44 48.54 3.4 48.54 3.4s-71.6 69.2-92.2 114.36c.02 0-11.8-12.1-42.34 10.05zm261.96-300.08s42.55-106.07 51.46-145.22c13.2 9.46 47.86-8.8 47.86-8.8s-52.1 84.85-60.8 133.73c0 0-14.47-8.78-38.52 20.3zm90.88-113.4s65.2-93.87 82.63-130c10.73 12.17 48.6 2.12 48.6 2.12s-69.74 71.06-89.15 116.75c.02-.03-12.1-11.83-42.1 11.13z"/><path d="M798.926 653.7s83.07-78.5 107.56-110.3c8 14.1 47.14 12 47.14 12s-82.84 55.23-111.22 96c0 0-9.46-14-43.48 2.3zm-240.83 271.46s105.75-43.36 140-64.23c2.4 16.05 39.65 28.2 39.65 28.2s-97.16 21.73-138.3 49.53c0 0-3.78-16.5-41.4-13.5zm63-67.64s78.52-83.06 101.17-116.2c8.8 13.64 47.75 9.38 47.75 9.38s-79.6 59.8-105.63 102.08c0 0-10.24-13.48-43.3 4.74zm-71.96 257.36s9.94-113.86 7.1-153.9c15.37 5.23 43.25-22.3 43.25-22.3s-25.23 96.32-19.37 145.6c0 0-16.4-4.2-30.98 30.6z"/><path d="M722.276 741.32s101.15-53.2 133.3-77.25c3.9 15.75 42.15 24.3 42.15 24.3s-94.66 30.87-133 62.45c0 0-5.33-16.06-42.5-9.5z"/><path d="M669.516 783.47s63.85-94.8 80.77-131.2c10.9 12 48.64 1.43 48.64 1.43s-68.72 72-87.5 118c0 0-12.3-11.62-41.92 11.77z"/></g><path d="M1207.196 1224.87l186 20.67c72.7 8.08 73.2 119.57 8 143.1l-194 70zm-953.43 0l-186 20.67c-72.7 8.08-73.2 119.57-8 143.1l194 70zm953.43-143.3v745.66a136.86 136.86 0 0 1-137.17 137.16h-679.1a136.86 136.86 0 0 1-137.17-137.16v-745.66z" fill="#fff" stroke="#231f20" stroke-width="25.559" stroke-linejoin="round"/></svg>