<svg xmlns="http://www.w3.org/2000/svg" viewBox="0 0 2000 1718.33"><g id="Layer_2" data-name="Layer 2"><path d="M579.47,1337.22c-7.51,11.52-2.16,3.17-3.88,5.72l-.14,0-.29-.1-.57-.2-1.14-.4-2.29-.81-4.56-1.61-9.13-3.16-18.16-6.28c-12.16-4-24.08-8.26-36.21-12-24.06-7.91-48.27-15-72.27-22.18q-18-5.31-36.18-10.11c-12-3.39-24-6.72-36.09-9.82-24.17-6.11-48.43-12.36-71.52-17.74L212.78,1241c-24.87-5.45-50-10.12-74.6-16.31S89.69,1210.3,66.85,1199c-11.5-5.46-22.66-11.9-33.77-18.55-5.76-2.69-10.53-8.35-13.48-19.45a79.8,79.8,0,0,1-1.94-9.14l-1.17-11.47,0-.35a84.3,84.3,0,0,1,19.11-57l.16-.21,7.86-8.45a80.74,80.74,0,0,1,7.08-6.14c9.08-7.07,16.35-8.72,22.62-7.4,13,1.39,25.87,3,38.44,5.56,25.29,4.72,49.53,12.59,73.07,22.47s46.55,21.29,69.81,31.9l70.15,30.74c24.68,11.74,47.54,24.39,70.22,37.76q17,10,33.78,20.38,16.64,10.65,32.94,21.76c21.81,14.67,42.85,30.58,63.28,47.08,10.15,8.37,20.24,16.75,29.91,25.67,4.88,4.39,9.67,8.9,14.4,13.44l7,7,3.47,3.5,1.73,1.74.87.87.43.44.21.22.11.11C581.47,1334,586.9,1325.66,579.47,1337.22Z" style="fill:#231f20"/><path d="M1173.3,1183.15h1.37c446.76,0,808.93,71,808.93,176.95-20,82.06-77.28,197.26-146.42,250-55.42,37.95-377.19,91-662.47,91h-4c-285.28,0-607.05-53.08-662.47-91-69.14-52.78-126.41-168-146.42-250,0-105.92,362.17-176.95,808.93-176.95H1172" style="fill:#fff;stroke:#231f20;stroke-miterlimit:10;stroke-width:24px"/><path d="M1928.55,1353.94c0,50.76-338.72,126-756.54,126h-1.33c-417.83,0-756.55-75.21-756.55-126" style="fill:none;stroke:#231f20;stroke-linecap:round;stroke-miterlimit:10;stroke-width:24px"/><circle cx="603.55" cy="1311.46" r="16.02" style="fill:#231f20"/><circle cx="502.41" cy="1349.92" r="16.02" style="fill:#231f20"/><path d="M1597.16,104.24c-30.16,24.68-53.7,51.18-82.57,88.91-10.22,13.37-73.71,98.16-133.18,179.29-30.29,41.29-162.67,221.63-209,289.38,54.72,21.79,89.38,21.66,121.62,18.54,41.09-4,72.81-41.32,98-75.5s41.17-62,44.23-83.13c3-21-6.62-60.9-11.63-79.31s-13.6-35-5.31-46.26c0,0,108.15-166.79,120.66-182.58,39.41-49.76,53.38-62.68,84.13-87.61,85-68.94,117.1-56.51,171.35-68.93L1822,17.16C1712.91,38,1683.06,34,1597.16,104.24Z" style="fill:#231f20"/><path d="M1169,1040.79c35.66,0,103.16-31.66,103.16-106.79S1200.89,812.09,1169,692.17C1137.17,812.09,1065.87,858.88,1065.87,934S1133.36,1040.79,1169,1040.79Z" style="fill:#f7d672;stroke:#231f20;stroke-miterlimit:10;stroke-width:20px"/><path d="M1169,1040.79c35.66,0,103.16-31.66,103.16-106.79S1200.89,812.09,1169,692.17C1137.17,812.09,1065.87,858.88,1065.87,934S1133.36,1040.79,1169,1040.79Z" style="fill:none;stroke:#231f20;stroke-linecap:round;stroke-linejoin:round;stroke-width:16px"/></g></svg>