<svg id="Layer_1" data-name="Layer 1" xmlns="http://www.w3.org/2000/svg" width="2000" height="2000" viewBox="0 0 2000 2000">
  <g>
    <path d="M803.63,1951.64c340.05,0,739.31-180.93,739.31-591.94,0-96.81-331-185.79-739.31-185.79h-1.14c-408.31,0-739.32,89-739.32,185.79,0,411,399.27,591.94,739.32,591.94" style="fill: #fff;stroke: #3a3632;stroke-miterlimit: 10;stroke-width: 24px"/>
    <path d="M881.85,1786.72q0,15.9-18,15.89H762.56q-18.28,0-18.29-15.89,0-15.29,18.29-15.28h31.17V1634.75L765,1652.44a15.54,15.54,0,0,1-7.5,2.4,13.2,13.2,0,0,1-10.64-5.4,18.62,18.62,0,0,1-4.35-12q0-8.68,7.8-13.49l46.46-28.77q9-5.4,17.08-5.4,8.38,0,13.49,5.1t5.1,14.09v162.46h31.47Q881.86,1771.44,881.85,1786.72Z" style="fill: #3a3632"/>
    <path d="M1495.1,1354.07c0,46.39-309.57,115.13-691.43,115.13h-1.22c-381.87,0-691.43-68.74-691.43-115.13" style="fill: none;stroke: #3a3632;stroke-linecap: round;stroke-miterlimit: 10;stroke-width: 24px"/>
  </g>
  <g>
    <path d="M1824.12,218.54,1065.54,1064.4c-23.88,26.63-58.95,22.5-77.73-8.26L881,881.31c-14.88-24.37-10.09-62,10.29-84.76L1539,74.42c20.39-22.74,57.3-31.58,83.14-19.43l185.38,87.17C1840.1,157.5,1848,191.91,1824.12,218.54Z" style="fill: #fff;stroke: #231f20;stroke-miterlimit: 10;stroke-width: 24px"/>
    <path d="M1716.88,190.26c-11.22,12.51-32.1,16.31-46.45,8.6l-84.82-45.61c-12.82-6.9-14.65-21.8-4.26-33.39s29.3-15.72,42.4-9.15l86.72,43.5C1725.13,161.57,1728.09,177.75,1716.88,190.26Z" style="fill: #fff;stroke: #231f20;stroke-miterlimit: 10;stroke-width: 24px"/>
  </g>
  <g id="layer7">
    <g id="g1557">
      <path id="path4952" d="M843.85,982.27c16.77-6.79,38.81,52.68,38.81,52.68-3,22.67-26.48,12.76-35,25.24s-49.57-52.58-30.26-58.47C831.8,997.33,843.85,982.27,843.85,982.27Z" style="fill: #f9d9de;stroke: #000;stroke-linecap: round;stroke-linejoin: round;stroke-width: 9.55753906653668px"/>
      <path id="path4954" d="M830.7,1009.47s10.6,32.4,22.26,39.67" style="fill: #f9d9de;stroke: #000;stroke-linecap: round;stroke-linejoin: round;stroke-width: 9.55753906653668px"/>
    </g>
    <g id="g1563">
      <path id="path1559" d="M1012.25,897.93c17-6.27,37.14,53.87,37.14,53.87-3.7,22.56-26.87,11.91-35.76,24.13s-47.9-54.11-28.41-59.39C999.74,912.6,1012.25,897.93,1012.25,897.93Z" style="fill: #f9d9de;stroke: #000;stroke-linecap: round;stroke-linejoin: round;stroke-width: 9.55753917615808px"/>
      <path id="path1561" d="M998.25,924.7s9.58,32.72,21,40.35" style="fill: #f9d9de;stroke: #000;stroke-linecap: round;stroke-linejoin: round;stroke-width: 9.55753917615808px"/>
    </g>
    <g id="g1569">
      <g id="g1706">
        <path id="path1565" d="M731.3,1072.91c16.93,6.4-7.28,65-7.28,65-17.6,14.6-28.1-8.63-42.83-5.24s-.68-72.26,17.5-63.47C712.24,1075.78,731.3,1072.91,731.3,1072.91Z" style="fill: #f9d9de;stroke: #000;stroke-linecap: round;stroke-linejoin: round;stroke-width: 9.5575391199474px"/>
        <path id="path1567" d="M703.18,1083.94s-14.22,31-10.6,44.25" style="fill: #f9d9de;stroke: #000;stroke-linecap: round;stroke-linejoin: round;stroke-width: 9.5575391199474px"/>
      </g>
    </g>
    <g id="g1576">
      <path id="path1571" d="M645.75,1201.18c12.72-12.86,56.47,33.06,56.47,33.06,6.2,22-19.29,22.18-22.18,37s-66.3-28.71-50.89-41.76C640.63,1219.77,645.75,1201.18,645.75,1201.18Z" style="fill: #f9d9de;stroke: #000;stroke-linecap: round;stroke-linejoin: round;stroke-width: 9.55753926105802px"/>
      <path id="path1574" d="M644.41,1231.36S667,1256.94,680.54,1259" style="fill: #f9d9de;stroke: #000;stroke-linecap: round;stroke-linejoin: round;stroke-width: 9.55753926105802px"/>
    </g>
    <g id="g1582">
      <path id="path1578" d="M1307,620c10.81,14.51-41.15,50.88-41.15,50.88-22.69,2.83-19-22.4-33.27-27.47s38.33-61.26,48.92-44.07C1289.41,612.16,1307,620,1307,620Z" style="fill: #f9d9de;stroke: #000;stroke-linecap: round;stroke-linejoin: round;stroke-width: 9.55753899231299px"/>
      <path id="path1580" d="M1277.38,614.16s-28.67,18.45-32.75,31.58" style="fill: #f9d9de;stroke: #000;stroke-linecap: round;stroke-linejoin: round;stroke-width: 9.55753899231299px"/>
    </g>
    <g id="g1588">
      <path id="path1584" d="M788.48,1193.8c12.73-12.86,56.47,33.06,56.47,33.06,6.2,22-19.29,22.18-22.17,37s-66.31-28.72-50.9-41.76C783.37,1212.39,788.48,1193.8,788.48,1193.8Z" style="fill: #f9d9de;stroke: #000;stroke-linecap: round;stroke-linejoin: round;stroke-width: 9.55753926105802px"/>
      <path id="path1586" d="M787.15,1224s22.54,25.58,36.12,27.65" style="fill: #f9d9de;stroke: #000;stroke-linecap: round;stroke-linejoin: round;stroke-width: 9.55753926105802px"/>
    </g>
    <g id="g1594">
      <path id="path1590" d="M1026.19,808.3c12.72-12.87,56.46,33.06,56.46,33.06,6.21,22-19.29,22.18-22.17,37s-66.31-28.72-50.9-41.76C1021.07,826.89,1026.19,808.3,1026.19,808.3Z" style="fill: #f9d9de;stroke: #000;stroke-linecap: round;stroke-linejoin: round;stroke-width: 9.55753926105802px"/>
      <path id="path1592" d="M1024.85,838.48s22.54,25.58,36.13,27.65" style="fill: #f9d9de;stroke: #000;stroke-linecap: round;stroke-linejoin: round;stroke-width: 9.55753926105802px"/>
    </g>
    <g id="g1600">
      <path id="path1596" d="M1147.37,732.88c17.94-2.39,24.42,60.7,24.42,60.7-8.56,21.2-28.83,5.74-40.19,15.7s-34.86-63.3-14.69-64.18C1132,744.45,1147.37,732.88,1147.37,732.88Z" style="fill: #f9d9de;stroke: #000;stroke-linecap: round;stroke-linejoin: round;stroke-width: 9.55753900369108px"/>
      <path id="path1598" d="M1127.84,755.92s2.17,34,11.65,44" style="fill: #f9d9de;stroke: #000;stroke-linecap: round;stroke-linejoin: round;stroke-width: 9.55753900369108px"/>
    </g>
    <g id="g1606">
      <path id="path1602" d="M922.14,959.3c2-18,64.79-9.13,64.79-9.13,18.52,13.4-1.36,29.36,5.59,42.78s-69.81,18.65-65.83-1.14C929.66,977.05,922.14,959.3,922.14,959.3Z" style="fill: #f9d9de;stroke: #000;stroke-linecap: round;stroke-linejoin: round;stroke-width: 9.55753922112718px"/>
      <path id="path1604" d="M939.82,983.79s33.55,6.07,45.49-.74" style="fill: #f9d9de;stroke: #000;stroke-linecap: round;stroke-linejoin: round;stroke-width: 9.55753922112718px"/>
    </g>
    <g id="g1612">
      <path id="path1608" d="M1064.44,772.1c0-18.1,63.4-16.18,63.4-16.18,19.88,11.3,1.87,29.34,10.24,41.92s-67.35,26.17-65.55,6.07C1073.87,788.91,1064.44,772.1,1064.44,772.1Z" style="fill: #f9d9de;stroke: #000;stroke-linecap: round;stroke-linejoin: round;stroke-width: 9.55753928891985px"/>
      <path id="path1610" d="M1084.7,794.5s34,2.36,45.13-5.72" style="fill: #f9d9de;stroke: #000;stroke-linecap: round;stroke-linejoin: round;stroke-width: 9.55753928891985px"/>
    </g>
    <g id="g1618">
      <path id="path1614" d="M829.15,1044.88c1.82-18,64.7-9.72,64.7-9.72,18.65,13.23-1.09,29.37,6,42.73s-69.64,19.27-65.83-.55C836.83,1062.56,829.15,1044.88,829.15,1044.88Z" style="fill: #f9d9de;stroke: #000;stroke-linecap: round;stroke-linejoin: round;stroke-width: 9.55753905069904px"/>
      <path id="path1616" d="M847.05,1069.21s33.6,5.75,45.48-1.16" style="fill: #f9d9de;stroke: #000;stroke-linecap: round;stroke-linejoin: round;stroke-width: 9.55753905069904px"/>
    </g>
    <g id="g1624">
      <path id="path1620" d="M1060.3,911.32c-6.74,16.79-64.87-8.59-64.87-8.59-14.24-17.89,9.19-27.93,6.1-42.71s72.25.77,63.1,18.76C1057.81,892.2,1060.3,911.32,1060.3,911.32Z" style="fill: #f9d9de;stroke: #000;stroke-linecap: round;stroke-linejoin: round;stroke-width: 9.5575390751818px"/>
      <path id="path1622" d="M1049.84,883s-30.69-14.85-44-11.49" style="fill: #f9d9de;stroke: #000;stroke-linecap: round;stroke-linejoin: round;stroke-width: 9.5575390751818px"/>
    </g>
    <g id="g1630">
      <path id="path1626" d="M1112,834.26c15.89,8.66-16.09,63.43-16.09,63.43-19.42,12.07-26.66-12.37-41.71-11s9.18-71.67,26-60.49C1092.74,834.51,1112,834.26,1112,834.26Z" style="fill: #f9d9de;stroke: #000;stroke-linecap: round;stroke-linejoin: round;stroke-width: 9.55753901872414px"/>
      <path id="path1628" d="M1082.65,841.36s-18.31,28.75-16.53,42.38" style="fill: #f9d9de;stroke: #000;stroke-linecap: round;stroke-linejoin: round;stroke-width: 9.55753901872414px"/>
    </g>
    <g id="g1636">
      <path id="path1632" d="M934.91,978c2.71,17.89-60.26,25.49-60.26,25.49-21.35-8.18-6.24-28.72-16.41-39.9s62.67-36,63.91-15.83C923.07,962.8,934.91,978,934.91,978Z" style="fill: #f9d9de;stroke: #000;stroke-linecap: round;stroke-linejoin: round;stroke-width: 9.5575394765412px"/>
      <path id="path1634" d="M911.52,958.9s-34,2.77-43.76,12.43" style="fill: #f9d9de;stroke: #000;stroke-linecap: round;stroke-linejoin: round;stroke-width: 9.5575394765412px"/>
    </g>
    <g id="g1642">
      <path id="path1638" d="M884.76,1020c-7.83-16.32,50.15-42,50.15-42,22.81,1.57,14.38,25.63,27.37,33.35s-49.38,52.75-56.47,33.84C900.53,1031.12,884.76,1020,884.76,1020Z" style="fill: #f9d9de;stroke: #000;stroke-linecap: round;stroke-linejoin: round;stroke-width: 9.55753925153784px"/>
      <path id="path1640" d="M912.72,1031.47s31.68-12.6,38.21-24.7" style="fill: #f9d9de;stroke: #000;stroke-linecap: round;stroke-linejoin: round;stroke-width: 9.55753925153784px"/>
    </g>
    <g id="g1654">
      <path id="path1650" d="M790.59,1036.15c12.72-12.87,56.46,33.06,56.46,33.06,6.2,22-19.29,22.18-22.17,37s-66.31-28.72-50.9-41.76C785.47,1054.73,790.59,1036.15,790.59,1036.15Z" style="fill: #f9d9de;stroke: #000;stroke-linecap: round;stroke-linejoin: round;stroke-width: 9.55753926105802px"/>
      <path id="path1652" d="M789.25,1066.32s22.54,25.58,36.13,27.66" style="fill: #f9d9de;stroke: #000;stroke-linecap: round;stroke-linejoin: round;stroke-width: 9.55753926105802px"/>
    </g>
    <g id="g1660">
      <path id="path1656" d="M734.1,1107.21c3.82-17.68,65.39-2.45,65.39-2.45,17.06,15.23-4.35,29.07,1.18,43.13s-71.35,11.4-65.36-7.88C739.78,1125.64,734.1,1107.21,734.1,1107.21Z" style="fill: #f9d9de;stroke: #000;stroke-linecap: round;stroke-linejoin: round;stroke-width: 9.55753920490222px"/>
      <path id="path1658" d="M749.19,1133.39s32.75,9.46,45.33,3.91" style="fill: #f9d9de;stroke: #000;stroke-linecap: round;stroke-linejoin: round;stroke-width: 9.55753920490222px"/>
    </g>
    <g id="g1666">
      <path id="path1662" d="M825.38,1094c12.72-12.87,56.46,33.06,56.46,33.06,6.2,22-19.29,22.18-22.17,37s-66.31-28.72-50.9-41.76C820.26,1112.57,825.38,1094,825.38,1094Z" style="fill: #f9d9de;stroke: #000;stroke-linecap: round;stroke-linejoin: round;stroke-width: 9.55753926105802px"/>
      <path id="path1664" d="M824,1124.16s22.54,25.57,36.13,27.65" style="fill: #f9d9de;stroke: #000;stroke-linecap: round;stroke-linejoin: round;stroke-width: 9.55753926105802px"/>
    </g>
    <g id="g1672">
      <path id="path1668" d="M911.63,1132c11.23,14.19-39.68,52-39.68,52-22.6,3.48-19.67-21.84-34-26.51s36.57-62.32,47.64-45.44C893.81,1124.7,911.63,1132,911.63,1132Z" style="fill: #f9d9de;stroke: #000;stroke-linecap: round;stroke-linejoin: round;stroke-width: 9.55753936132283px"/>
      <path id="path1670" d="M881.84,1127s-28.13,19.26-31.84,32.49" style="fill: #f9d9de;stroke: #000;stroke-linecap: round;stroke-linejoin: round;stroke-width: 9.55753936132283px"/>
    </g>
    <g id="g1678">
      <path id="path1674" d="M1155.16,679.47c12.73-12.87,56.47,33.06,56.47,33.06,6.2,22-19.29,22.18-22.17,37s-66.31-28.72-50.9-41.76C1150.05,698.05,1155.16,679.47,1155.16,679.47Z" style="fill: #f9d9de;stroke: #000;stroke-linecap: round;stroke-linejoin: round;stroke-width: 9.55753926105802px"/>
      <path id="path1676" d="M1153.83,709.64s22.53,25.58,36.12,27.66" style="fill: #f9d9de;stroke: #000;stroke-linecap: round;stroke-linejoin: round;stroke-width: 9.55753926105802px"/>
    </g>
    <g id="g1684">
      <path id="path1680" d="M952.14,892.34c12.72-12.87,56.46,33.06,56.46,33.06,6.21,22-19.29,22.18-22.17,37s-66.31-28.72-50.9-41.76C947,910.92,952.14,892.34,952.14,892.34Z" style="fill: #f9d9de;stroke: #000;stroke-linecap: round;stroke-linejoin: round;stroke-width: 9.55753926105802px"/>
      <path id="path1682" d="M950.8,922.52s22.54,25.57,36.13,27.65" style="fill: #f9d9de;stroke: #000;stroke-linecap: round;stroke-linejoin: round;stroke-width: 9.55753926105802px"/>
    </g>
    <g id="g1690">
      <path id="path1686" d="M693,1195.55c-13.31-12.25,31-57.61,31-57.61,21.77-7,22.86,18.48,37.78,20.83s-26.33,67.29-39.91,52.36C711.76,1200,693,1195.55,693,1195.55Z" style="fill: #f9d9de;stroke: #000;stroke-linecap: round;stroke-linejoin: round;stroke-width: 9.55753934683846px"/>
      <path id="path1688" d="M723.21,1195.81s24.75-23.44,26.34-37.1" style="fill: #f9d9de;stroke: #000;stroke-linecap: round;stroke-linejoin: round;stroke-width: 9.55753934683846px"/>
    </g>
    <g id="g1696">
      <path id="path1692" d="M744.77,1024.07c17.12-5.84,35.81,54.77,35.81,54.77-4.26,22.46-27.16,11.25-36.35,23.24s-46.56-55.26-27-60.07C731.9,1038.43,744.77,1024.07,744.77,1024.07Z" style="fill: #f9d9de;stroke: #000;stroke-linecap: round;stroke-linejoin: round;stroke-width: 9.5575392827221px"/>
      <path id="path1694" d="M730.12,1050.49s8.77,32.94,20,40.86" style="fill: #f9d9de;stroke: #000;stroke-linecap: round;stroke-linejoin: round;stroke-width: 9.5575392827221px"/>
    </g>
    <g id="g1702">
      <path id="path1698" d="M750.31,967.19c3.43-17.77,65.31-3.86,65.31-3.86,17.38,14.87-3.73,29.16,2.11,43.1s-71.09,12.93-65.52-6.48C756.37,985.49,750.31,967.19,750.31,967.19Z" style="fill: #f9d9de;stroke: #000;stroke-linecap: round;stroke-linejoin: round;stroke-width: 9.55753951091649px"/>
      <path id="path1700" d="M766,993s32.94,8.76,45.4,2.94" style="fill: #f9d9de;stroke: #000;stroke-linecap: round;stroke-linejoin: round;stroke-width: 9.55753951091649px"/>
    </g>
  </g>
</svg>
