<svg xmlns="http://www.w3.org/2000/svg" xmlns:xlink="http://www.w3.org/1999/xlink" height="1910.24" width="1924.013" xmlns:v="https://vecta.io/nano"><style><![CDATA[.B{fill:none}.C{stroke:#231f20}.D{stroke-linecap:round}.E{stroke-width:24}.F{stroke-linejoin:round}.G{stroke-width:16}.H{stroke-miterlimit:10}.I{stroke-width:15.785}.J{stroke-width:7.892}]]></style><g fill="#f1f2f2" class="C H"><path d="M1900.55 1849.5l-63 41.08a47.7 47.7 0 0 1-26 7.67H112.25a47.78 47.78 0 0 1-25.66-7.43l-59.1-37.74" class="I"/><path d="M1841.25 1868.88H82.75c-53.37 0-82.72-29.87-66.1-65.56l221.75-476.4c9.45-20.28 48.25-36.34 86.9-36.34h1273.44c38.64 0 77.44 16.06 86.9 36.34l221.75 476.4c16.64 35.7-12.74 65.56-66.1 65.56z" class="E"/></g><g class="F C"><path d="M62.4 1820.95l207.7-459.27c7.7-17.06 40.13-30.6 72.57-30.6h1238.66c32.44 0 64.86 13.55 72.56 30.6l205.54 452.94" class="B D J"/><path d="M839 368.25l-166.23-147.1v-36.1H492.9v36.1l-166.2 147.1a72.85 72.85 0 0 0-12.28 40.48v723.44a72.86 72.86 0 0 0 72.86 72.86h391.08a72.86 72.86 0 0 0 72.87-72.86V408.73a72.85 72.85 0 0 0-12.24-40.48z" fill="#fff" class="E"/></g><path d="M724.75 280.43H440.92L334.29 374.8a62.81 62.81 0 0 0-9.92 33.92v723.44a63 63 0 0 0 62.92 62.92h391.08a63 63 0 0 0 62.93-62.92V408.73a62.71 62.71 0 0 0-9.93-33.92z" opacity="1" fill="#f7d773"/><g class="F"><g stroke="#010101"><path d="M466.5 12h232.66v173.04H466.5z" fill="#f7d220" class="E"/><path d="M505.28 40.72v116.14m38.78-116.14v116.14m38.77-116.14v116.14M621.6 40.72v116.14M660.4 40.72v116.14" class="B D J"/></g><g class="C B D"><path d="M407.19 629.07h351.28" class="G"/><path d="M407.2 725.7h351.28M407.2 822.34h351.28M407.2 918.97h351.28M407.2 1015.6h351.28" class="I"/><path d="M407.2 1112.24h351.28M407.2 532.43h351.28M407.2 435.8h351.28" class="G"/></g></g><path d="M361.16 690.06h434.18v356.8H361.16z" fill="#fff"/><path d="M1559.16 468.94c-30.16 24.68-53.7 51.18-82.57 88.9l-133.18 179.3-209 289.38c54.72 21.8 89.38 21.66 121.62 18.54 41.1-4 72.8-41.32 98-75.5s41.17-62 44.23-83.13c3-21-6.62-60.9-11.63-79.3s-13.6-35-5.3-46.26l120.66-182.58c39.4-49.76 53.38-62.68 84.13-87.6 85-68.94 117.1-56.5 171.35-68.93l26.54-39.88c-109.1 20.87-138.94 16.76-224.84 87.08z" fill="#231f20"/><g class="C"><use xlink:href="#B" fill="#f7d773" stroke-width="20" class="H"/><use xlink:href="#B" class="B F G"/></g><defs ><path id="B" d="M1131 1405.5c35.66 0 103.16-31.66 103.16-106.8s-71.3-121.9-103.16-241.83c-31.86 119.92-103.16 166.7-103.16 241.83s67.52 106.8 103.16 106.8z"/></defs></svg>