<svg id="Layer_1" data-name="Layer 1" xmlns="http://www.w3.org/2000/svg" width="2000" height="2000" viewBox="0 0 2000 2000">
  <g>
    <path d="M1666.39,170.06,988.92,925.47c-21.32,23.78-52.64,20.1-69.42-7.38L824.15,762c-13.29-21.76-9-55.4,9.2-75.7L1411.72,41.35C1429.93,21,1462.9,13.15,1486,24l165.56,77.85C1680.66,115.55,1687.72,146.28,1666.39,170.06Z" style="fill: #fff;stroke: #3a3632;stroke-miterlimit: 10;stroke-width: 20px"/>
    <path d="M1570.61,144.8c-10,11.17-28.67,14.57-41.48,7.68l-75.75-40.74c-11.45-6.15-13.08-19.46-3.8-29.81s26.16-14,37.87-8.17l77.44,38.85C1578,119.18,1580.63,133.63,1570.61,144.8Z" style="fill: #fff;stroke: #3a3632;stroke-miterlimit: 10;stroke-width: 20px"/>
  </g>
  <path d="M716.85,652.15q35.1,22.9,69.25,47.2c17.8,12.73,36,26.53,53.59,39.55,25.64,18.89,51.6,37.25,78.4,54.34,33.31,21.47,68.47,40.22,101.86,62a125,125,0,0,1,12,9.38,116,116,0,0,1,11.11,10.72c3.4,3.75,6.81,8,10.32,11.61,2.62,2.77,5.42,5.28,8.21,7.82C1070,902.3,1078,910.16,1086,918a197.28,197.28,0,0,0-29.9-22.14,73,73,0,0,0-6.59-3.53c-5.68-2.66-11.85-4.46-17.76-6.65a240.33,240.33,0,0,1-30.29-13.8c-39.52-21-81.1-39.19-119.49-62.69-23.78-14.33-46.75-30-69.06-46.4a888,888,0,0,1-70-56.6c-11.3-10.18-22.93-20-32.87-31.7-2.48-2.93-5.11-5.64-7.67-8.37Z" style="fill: #518737;stroke: #3a3632;stroke-linecap: round;stroke-linejoin: round;stroke-width: 10px"/>
  <path d="M568.84,918q35.1,22.9,69.25,47.2c17.81,12.73,36,26.53,53.59,39.55,25.65,18.89,51.6,37.25,78.4,54.33,33.31,21.48,68.47,40.22,101.86,62a123.43,123.43,0,0,1,12,9.38,116,116,0,0,1,11.11,10.72c3.41,3.74,6.81,8,10.32,11.6,2.62,2.78,5.42,5.29,8.21,7.83,8.32,7.57,16.41,15.43,24.41,23.22a197.28,197.28,0,0,0-29.9-22.14,70.58,70.58,0,0,0-6.59-3.53c-5.68-2.66-11.85-4.46-17.76-6.65a241,241,0,0,1-30.28-13.8c-39.53-21-81.11-39.19-119.5-62.69-23.78-14.33-46.75-30-69.06-46.4a890.09,890.09,0,0,1-70-56.6c-11.31-10.18-22.94-20-32.88-31.7-2.48-2.94-5.11-5.64-7.67-8.37Z" style="fill: #518737;stroke: #3a3632;stroke-linecap: round;stroke-linejoin: round;stroke-width: 10px"/>
  <path d="M720.22,597.83a358.19,358.19,0,0,1,18,31.09C749,650.33,756.72,673,766,695.15c24.91,60.62,51.8,120.91,77.83,181.07A147.92,147.92,0,0,0,853,892.53c2.28,3.56,4.93,7,7.47,10.35a83,83,0,0,1,9.39,16.24c3.58,7.45,7,15,10,22.63-2.73-7.76-5-15.69-7.21-23.65A86.47,86.47,0,0,1,869,899.67c-.33-4.24-.57-8.55-1.23-12.74a142.83,142.83,0,0,0-4-18.3c-18.2-54.74-37.13-109.4-58.78-162.87-11.11-27.1-21.67-54.58-37.36-79.56-9.4-14.8-20.75-29.85-35.94-39Z" style="fill: #518737;stroke: #3a3632;stroke-linecap: round;stroke-linejoin: round;stroke-width: 10px"/>
  <path d="M805.64,1063.15c-7.92-24.51-9.6-50.7-12.28-76.19-3.25-34.2-4-68.51-7-102.66-1.48-16.67-3.42-33.51-6.09-50-1-6.49-2.51-14.61-3.83-21.08-6.78-36.24-22.07-70.52-28.39-108-.69-3.73-1.32-7.51-1.7-11.28a183,183,0,0,1-.67-18.88c.07-6.31,1-12.82,1.2-19.13s-.73-12.54-1.8-18.66c-.84-4.89-1.82-9.77-2.94-14.61s-2.37-9.66-3.88-14.39c1.62,4.69,3.38,9.34,5.13,14,3.41,8.6,7.12,19.77,11,28,2.27,4.65,5.09,9.13,7.59,13.68a100.66,100.66,0,0,1,5,10.47,154.24,154.24,0,0,1,7.45,21.11c.93,3.45,1.9,7.09,2.9,10.47,7.56,26.82,20.64,52,29.67,79.84,2,6,4,12.52,5.62,18.63,8.21,29.76,12.84,60.32,15.56,91,3.75,40,3.55,80.08,1.44,120.07-.32,7-.67,15.24-1.34,22.25-.78,8.68-1.89,17.35-3.5,25.93Z" style="fill: #518737;stroke: #3a3632;stroke-linecap: round;stroke-linejoin: round;stroke-width: 10px"/>
  <path d="M890.83,1006.52c-.91-6.13-1.77-12.31-2.46-18.47-1.2-10.06-2.12-20.46-3.45-30.53-6.26-45-12.13-90.91-17.53-136-4.76-39.33-9.19-78.9-14.41-118.22a133.13,133.13,0,0,1-1.44-18.84c0-2.12,0-4.24,0-6.36.08-4.29.54-8.62.9-12.9a91.25,91.25,0,0,0-.48-19.06c-.81-8.36-1.83-16.69-3.23-24.95,2.09,10.26,4.8,20.43,7.62,30.54a78.61,78.61,0,0,0,4.54,12c1.83,3.9,3.76,7.82,5.29,11.84,1.12,3,2.16,6,3.17,9,2.34,6.77,3.74,14.44,5.22,21.47,11.54,55.51,22.09,111.33,29.5,167.57,3.08,23,6,46.14,6.62,69.46.27,8.42.26,17.3,0,25.74-.32,12.9-1.58,26-4.92,38.56Z" style="fill: #518737;stroke: #3a3632;stroke-linecap: round;stroke-linejoin: round;stroke-width: 10px"/>
  <path d="M1140.47,744.79c-5.55-2.75-11.11-5.57-16.56-8.52-9-4.75-18-9.93-27-14.59-40.53-20.53-81.58-41.9-121.69-63.19-35-18.54-70-37.48-105.31-55.62a133.27,133.27,0,0,1-16.29-9.57c-1.75-1.19-3.51-2.37-5.23-3.62-3.48-2.51-6.77-5.36-10.09-8.1a89.53,89.53,0,0,0-15.92-10.48c-7.33-4.1-14.75-8-22.33-11.58,9.62,4.13,19.52,7.71,29.43,11.16a77.14,77.14,0,0,0,12.41,3.1c4.24.72,8.57,1.37,12.74,2.41,3.09.78,6.16,1.65,9.22,2.55,6.9,1.94,14,5.16,20.61,8,52.18,22.2,104,45.39,154.45,71.39,20.69,10.63,41.3,21.42,60.81,34.2,7.07,4.58,14.37,9.66,21.14,14.68,10.42,7.63,20.46,16.14,28.86,26Z" style="fill: #518737;stroke: #3a3632;stroke-linecap: round;stroke-linejoin: round;stroke-width: 10px"/>
  <path d="M722.3,731.17c1.88,3.45,3.73,6.93,5.51,10.43,4.69,9,9.21,18.39,14,27.34,21.74,39.9,43.44,80.77,64.42,121,18.34,35.12,36.45,70.57,55.23,105.51a134.6,134.6,0,0,1,8,17.12c.77,2,1.55,4,2.26,6,1.44,4,2.54,8.25,3.71,12.39a90.38,90.38,0,0,0,7.18,17.65c3.71,7.54,7.6,15,11.83,22.21-5.58-8.86-11.71-17.42-17.91-25.88a78.53,78.53,0,0,0-8.47-9.59c-3.09-3-6.29-6-9.13-9.21-2.11-2.39-4.15-4.85-6.16-7.32-4.58-5.51-8.59-12.19-12.46-18.24-30.4-47.86-60-96.36-86.77-146.36-11-20.48-21.88-41.06-30.72-62.65-3.23-7.78-6.35-16.1-9.09-24.08a179.31,179.31,0,0,1-8.18-31.35Z" style="fill: #518737;stroke: #3a3632;stroke-linecap: round;stroke-linejoin: round;stroke-width: 10px"/>
  <path d="M831.15,579.71q1,3.81,2.25,7.55a161.42,161.42,0,0,0,8.4,20.49c16.94,33.55,39.06,63.94,57.69,96.32,11.39,19.78,22.27,41.26,33,61.4,22.22,41.54,45.37,82.78,68.41,123.9a121.9,121.9,0,0,0,8,11.79c1.46,1.91,2.9,3.83,4.41,5.7,3.06,3.77,6.57,7.3,9.93,10.84,5.09,5.16,9.11,11.18,12.84,17.28,5,8,9.9,16.11,14.27,24.49-4.11-8.51-7.69-17.26-11.14-26.06a122.42,122.42,0,0,1-4.69-13.47c-1.23-4.71-1.9-9.64-2.77-14.44a155.54,155.54,0,0,0-5.62-20.92,140,140,0,0,0-5.36-13.13c-22.37-49.42-44.3-99.16-68.07-147.9-6.85-14-14.08-28.13-21.84-41.61-11.38-20-24.91-38.73-39.09-56.55-7.3-9.24-14.57-18.15-21.69-27.35q-4.77-6.12-9.7-12.14c-2.4-3-8.66-10.28-14.05-16.39Z" style="fill: #629e42;stroke: #3a3632;stroke-linecap: round;stroke-linejoin: round;stroke-width: 10px"/>
  <path d="M952.92,458.18c.1,2.4.29,4.8.54,7.19A146.39,146.39,0,0,0,957,485.3c8.59,33.27,22.44,64.73,32.77,97.28,6.32,19.89,11.85,41.19,17.56,61.28,11.76,41.43,24.41,82.78,37,124a109.54,109.54,0,0,0,4.89,12.09c.92,2,1.84,4,2.83,5.95,2,4,4.44,7.8,6.75,11.61a86.18,86.18,0,0,1,8.11,18c2.91,8.13,5.7,16.31,8,24.64-2-8.39-3.51-16.91-4.88-25.44a110.62,110.62,0,0,1-1.57-12.95c-.18-4.44.18-9,.33-13.43a140.45,140.45,0,0,0-.93-19.78,128.39,128.39,0,0,0-2.24-12.78c-10.35-48.5-20.25-97.2-32-145.37-3.39-13.81-7.1-27.86-11.4-41.41-6.28-20-14.71-39.45-23.91-58.13-4.72-9.68-9.47-19.05-14-28.65q-3.06-6.41-6.29-12.73c-1.57-3.12-5.74-10.88-9.36-17.38Z" style="fill: #629e42;stroke: #3a3632;stroke-linecap: round;stroke-linejoin: round;stroke-width: 10px"/>
  <path d="M646.27,791.27c6.41,9.53,12.23,19.34,17.72,29.47,11.09,21.22,19.2,43.74,28.89,65.74,26,60.18,53.87,120,80.93,179.71a145.38,145.38,0,0,0,9.41,16.14c2.34,3.53,5,6.87,7.65,10.23a82.94,82.94,0,0,1,9.67,16.07c3.71,7.38,7.23,14.84,10.35,22.45-2.87-7.71-5.28-15.6-7.61-23.52a86.08,86.08,0,0,1-3.89-18.37c-.4-4.23-.7-8.54-1.44-12.72a142.44,142.44,0,0,0-4.32-18.23c-19.12-54.42-39-108.75-61.55-161.85-11.57-26.9-22.6-54.2-38.72-78.9-9.49-14.37-20.86-29-35.83-37.85Z" style="fill: #629e42;stroke: #3a3632;stroke-linecap: round;stroke-linejoin: round;stroke-width: 10px"/>
  <path d="M632.91,860.1c7.16,18.92,17.94,36.3,28,53.83,14.54,24.68,31.07,48.43,47.7,71.74,29.66,41.8,61.68,82.05,93.95,121.83a117.63,117.63,0,0,0,8.11,9.3c2.18,2.21,4.47,4.34,6.76,6.45a124.65,124.65,0,0,0,12.41,9.87,83.76,83.76,0,0,1,13.62,12.78c5.57,6,11,12.16,16.11,18.57-4.88-6.57-9.39-13.42-13.78-20.36a83.81,83.81,0,0,1-8.65-16.52c-1.51-3.94-2.94-8-4.72-11.8-1.32-2.82-2.73-5.59-4.18-8.35a122.29,122.29,0,0,0-8.06-13.07c-26.54-38.66-52.24-78.07-78.67-116.75-22.89-33.72-45.81-67.6-71.27-99.45a253.41,253.41,0,0,0-24.37-27.92Z" style="fill: #629e42;stroke: #3a3632;stroke-linecap: round;stroke-linejoin: round;stroke-width: 10px"/>
  <g id="layer3">
    <path id="path916" d="M1329.09,1173.24l202.23,22.47c79,8.78,79.58,130,8.64,155.55l-210.87,76Zm-1036.41,0L90.46,1195.71c-79,8.78-79.59,130-8.65,155.55l210.87,76Zm1036.41-155.78V1828A148.78,148.78,0,0,1,1180,1977.12H441.79A148.78,148.78,0,0,1,292.68,1828V1017.46Z" style="fill: #fff;stroke: #3a3632;stroke-linecap: round;stroke-linejoin: round;stroke-width: 20px"/>
  </g>
</svg>
