<svg xmlns="http://www.w3.org/2000/svg" xmlns:xlink="http://www.w3.org/1999/xlink" height="1799.398" width="1924.019" xmlns:v="https://vecta.io/nano"><style><![CDATA[.B{stroke-linejoin:round}.C{stroke-linecap:round}.D{stroke-width:8.101}.E{stroke:#010101}.F{fill:#ca3d27}.G{stroke-miterlimit:10}.H{stroke-width:16.202}]]></style><path d="M905.98 1787.398c410.55 0 892.6-218.45 892.6-714.67 0-116.88-399.63-224.32-892.6-224.32h-1.38c-493 0-892.6 107.44-892.6 224.32 0 496.22 482.05 714.67 892.6 714.67" fill="#fff" stroke="#231f20" stroke-width="24" class="G"/><text y="1613.998" x="798.45" font-size="361.888" font-family="ArialRoundedMTBold, Arial Rounded MT Bold" fill="#231f20">1</text><path d="M1740.82 1065.938c0 56-373.75 139-834.8 139h-1.47c-461 0-834.8-83-834.8-139" fill="none" stroke="#231f20" stroke-width="24" class="C G"/><use xlink:href="#B" fill="#9ca0aa"/><use xlink:href="#B" fill="#939598"/><path d="M1583.93 753.928l-383.7-160.1c28.8 12 108.26-88.4 166.8-228.75s73.9-266.83 44.96-278.83l383.76 160.05c28.88 12.05 26.6 144-32 284.3s-151 235.33-179.83 223.3z" fill="#fff"/><use xlink:href="#B" fill="none" class="B E H"/><path d="M1313.25 45.008c28.9 12.05 13.6 138.55-45 278.9s-138 240.76-166.8 228.74-18.7-140.62 39.86-281 143.07-238.68 171.95-226.63z" fill="#939598"/><g class="E B"><g class="H"><path d="M1101.48 552.638c-28.8-12-18.7-140.62 39.86-281s143-238.72 171.9-226.67" fill="none" class="C"/><path d="M1162.63 363.318l-.4.07c-445.12 389.57-387.75 834.77-386.3 839.4 71.54 6.27 243.75.47 243.75.47s-44.6-488.38 73.66-658.88c1.26 6 27-2.73 28.8 3.9 36.75-22 98.4-109.88 146.18-224.37a992.11 992.11 0 0 0 21.58-56.51c6.94-20.08-74.5 51.87-127.26 95.93z" class="F"/><path d="M1278.38 13.148c-12.2-11.35-106.16 62.6-206 169.88s-167.18 206.78-155 218.1 108.3-60.58 208.1-167.87 165.1-208.76 152.9-220.1z" fill="#6d6e71"/><path d="M1313.25 45.008c28.9 12.05 13.6 138.55-45 278.9s-138 240.76-166.8 228.74" fill="none" class="C"/></g><path d="M1622.37 357.258c-17.3-19.7-33.83-25.56-40.74-28.4-81.84-33.74-143.2-8.2-166.27 67.6-6.92 23.33.47 30.95 2.22 43.1-7.67 4.76-27.36 23.66-35.32 37.2-38.42 74.47-12.34 135.6 68.73 169 72.53 29.9 156-5.14 196.9-104.43 9.6-23.27 16.85-43.63 17-66.5.25-46.14-11.4-82.12-42.5-117.54z" class="D F"/></g><path d="M1403.45 530.908c-6.35 2.14 7.54 35.24 32.15 64.63 11.47 15.85 52-9.27 25.16-22.47-30.3-15.14-45.3-46.4-57.3-42.16z" fill="#fff"/><path d="M1408.98 437.848s-30.5 12.3-44.67 10.7c4.34 2.32 21 8.13 36.14 4.84 0 0-13.5 37.87-10.1 45.1 0 0 19.8-32.62 18.82-43.1 0 0 28.65 16.58 41 14.8 0 0-19.35-27.58-27.34-28.75 0 0 27.93-35.63 29.24-47.8-6.74.93-30.9 24.86-34.75 35.46-.33-13.78-12.35-27.86-12.35-27.86l4.02 36.6z" fill="#0da54a"/><g fill="#fff" class="B D"><path d="M1678.75 239.548c64 27.15 87.47 96 63.78 153.46s-92.77 92.3-156.37 66.53c-41.14-15.47-36.5-74.7-12.8-132.17s70.5-100.9 105.4-87.82z" stroke="#050507"/><path d="M1679.38 239.658c31.9 12.75 36.06 77 12.37 134.47s-71.65 99.45-103.55 86.68c-42.5-17-39.06-77.2-15.37-134.68s65.82-102.75 106.55-86.47z" stroke="#040607"/></g><path d="M1684.72 280.258c23.75-10.24 30.85 36.5 7.15 94s-62.9 86.14-75.58 67c-15.38-30-3.57-72.07 6.36-96.17s31-53 62.07-64.83z" stroke="#050605" class="B D F"/><path d="M1711.38 440.658c25.93-.6 58.77-79 40.8-97.74" fill="none" class="B C D E"/><defs ><path id="B" d="M1682.13 794.878l-580.65-242.24c146.32-152.22 206.9-306.38 211.77-507.63l580.68 242.25c28.88 12.05 26.6 144-32 284.3s-151 235.33-179.8 223.3z"/></defs></svg>