<svg xmlns="http://www.w3.org/2000/svg" viewBox="0 0 2000 2000"><g id="Layer_1" data-name="Layer 1"><path d="M876,1954c335.85,0,574.19-67.2,663.59-204,105.61-251.67,135-234.8,135-234.8,0-194.47-357.55-352.12-798.6-352.12S77.41,1320.73,77.41,1515.2c0,0,29.4-16.87,142.37,234.8C309.18,1886.83,540.17,1954,876,1954Z" style="fill:#fff;stroke:#231f20;stroke-miterlimit:10;stroke-width:24px"/><ellipse cx="876.02" cy="1462.7" rx="841" ry="346.4" style="fill:#fff;stroke:#231f20;stroke-miterlimit:10;stroke-width:24px"/><path d="M1618.56,1442c0,154-332.44,278.9-742.54,278.9S133.48,1596,133.48,1442" style="fill:#fff;stroke:#231f20;stroke-linecap:round;stroke-miterlimit:10;stroke-width:24px"/><path d="M1618.56,1442c0-154-332.44-278.91-742.54-278.91S133.48,1288,133.48,1442" style="fill:#fff;stroke:#231f20;stroke-linecap:round;stroke-miterlimit:10;stroke-width:24px"/><path d="M1417.52,1441.72c-142.34-59.72-332.55-96.2-541.5-96.2-218.16,0-415.89,39.77-560,104.23" style="fill:#fff;stroke:#231f20;stroke-linecap:round;stroke-miterlimit:10;stroke-width:12px"/></g><g id="Isolation_Mode" data-name="Isolation Mode"><path d="M1226.58,582.19c-125.59-25.09-376.91,38.39-376.91,323v105.46" style="fill:none;stroke:#231f20;stroke-linecap:round;stroke-linejoin:round;stroke-width:24px"/><polyline points="927.9 947.46 849.67 1025.7 771.43 947.46" style="fill:none;stroke:#231f20;stroke-linecap:round;stroke-linejoin:round;stroke-width:24px"/><path d="M1640.49,117.17c-32.13,26.29-57.2,54.52-88,94.72-10.89,14.23-78.52,104.57-141.88,191-32.27,44-173.29,236.1-222.65,308.27,58.29,23.22,95.21,23.08,129.55,19.75,43.78-4.24,77.57-44,104.42-80.42s43.86-66,47.12-88.57c3.23-22.36-7-64.87-12.39-84.48s-14.48-37.32-5.66-49.29c0,0,115.22-177.67,128.55-194.5,42-53,56.87-66.76,89.61-93.32,90.55-73.45,124.76-60.2,182.55-73.43L1880,24.41C1763.79,46.64,1732,42.3,1640.49,117.17Z" style="fill:#231f20"/></g></svg>