<svg xmlns="http://www.w3.org/2000/svg" xmlns:xlink="http://www.w3.org/1999/xlink" height="1924.003" width="1722.329" xmlns:v="https://vecta.io/nano"><style><![CDATA[.B{stroke-linejoin:round}.C{stroke-linecap:round}.D{stroke-width:8.208}.E{stroke:#010101}.F{fill:#ca3d27}.G{stroke-width:16.416}.H{stroke-miterlimit:10}]]></style><use xlink:href="#B" fill="#9ca0aa"/><use xlink:href="#B" fill="#939598"/><path d="M1386.6 744.273l-378.76-158c28.44 11.86 106.86-87.25 164.64-225.77s72.9-263.35 44.38-275.25l378.76 158c28.5 11.9 26.25 142.1-31.53 280.62s-149.06 232.26-177.5 220.4z" fill="#fff"/><use xlink:href="#B" fill="none" class="B E G"/><path d="M1119.4 44.583c28.5 11.9 13.4 136.74-44.38 275.26s-136.2 237.62-164.64 225.76-18.44-138.8 39.34-277.3 141.17-235.6 169.68-223.72z" fill="#939598"/><g class="E B"><g class="G"><path d="M910.38 545.603c-28.44-11.86-18.44-138.8 39.34-277.3s141.17-235.6 169.68-223.72" fill="none" class="C"/><path d="M970.74 358.743l-.4.07c-439.32 384.5-374.8 814.35-374.8 814.35l233.43-7.23s-43.38-460.18 73.35-628.46c1.24 5.93 26.63-2.7 28.42 3.83 36.26-21.7 97.12-108.44 144.27-221.44 7.9-18.93 15-37.6 21.3-55.77 6.88-19.85-73.5 51.2-125.57 94.65z" class="F"/><path d="M1084.97 13.133c-12-11.2-104.77 61.8-203.26 167.67s-165 204.1-153 215.27 106.86-59.8 205.35-165.67 162.95-206.07 150.9-217.27z" fill="#6d6e71"/><path d="M1119.4 44.583c28.5 11.9 13.4 136.74-44.38 275.26s-136.2 237.62-164.64 225.76" fill="none" class="C"/></g><path d="M1424.5 352.753c-17.07-19.44-33.4-25.22-40.2-28-80.77-33.3-141.33-8.1-164.1 66.7-6.83 23 .46 30.55 2.2 42.53-7.57 4.7-27 23.35-34.86 36.72-37.9 73.5-12.17 133.82 67.84 166.8 71.58 29.5 153.92-5.07 194.32-103.07 9.47-23 16.64-43.07 16.77-65.65.26-45.56-11.24-81.08-41.94-116.05z" class="D F"/></g><path d="M1208.42 524.153c-6.27 2.12 7.44 34.8 31.73 63.8 11.33 15.65 51.35-9.15 24.83-22.18-29.9-14.94-44.7-45.78-56.56-41.6z" fill="#fff"/><path d="M1213.88 432.303s-30.07 12.16-44.07 10.63c4.28 2.28 20.74 8 35.67 4.77 0 0-13.32 37.38-10 44.5 0 0 19.54-32.2 18.57-42.53 0 0 28.28 16.37 40.5 14.6 0 0-19.1-27.2-27-28.37 0 0 27.57-35.17 28.86-47.18-6.65.92-30.5 24.54-34.3 35-.33-13.6-12.2-27.5-12.2-27.5l3.94 36.07z" fill="#0da54a"/><g fill="#fff" class="B D"><path d="M1480.13 236.583c63.18 26.8 86.33 94.74 63 151.47s-91.56 91.08-154.33 65.66c-40.6-15.27-36-73.72-12.64-130.44s69.54-99.6 103.97-86.7z" stroke="#050507"/><path d="M1480.75 236.693c31.5 12.6 35.6 76 12.2 132.72s-70.7 98.16-102.15 85.52c-41.93-16.78-38.55-76.2-15.16-132.93s64.9-101.37 105.1-85.3z" stroke="#040607"/></g><path d="M1486.03 276.733c23.43-10.1 30.44 36 7 92.73s-62.08 85-74.6 66.17c-15.18-29.58-3.53-71.13 6.28-94.92s30.58-52.3 61.26-64z" stroke="#050605" class="B D F"/><path d="M1512.34 435.083c25.6-.6 58-78 40.27-96.47" fill="none" class="B C D E"/><g fill="#fff" stroke="#231f20" stroke-width="24"><g class="H"><path d="M1339.65 1014.203v794.66a102.91 102.91 0 0 1-103.14 103.14H224.8a102.92 102.92 0 0 1-103.15-103.14v-794.66z"/><path d="M77.65 1013.933a65.51 65.51 0 0 0-65.65 65.65v60.35a65.51 65.51 0 0 0 65.65 65.65h44v-191.4h35.86l-5.34-.26zm1306 0a65.5 65.5 0 0 1 65.65 65.64v60.36a65.5 65.5 0 0 1-65.65 65.64h-44v-191.37h-35.83l5.34-.27z"/></g><circle r="164.89" cy="1339.233" cx="730.64"/></g><path d="M730.64 1339.233v-111.47" fill="none" stroke="#231f20" stroke-width="24" class="C H"/><defs ><path id="B" d="M1483.47 784.693l-573.1-239.1c144.42-150.24 204.2-302.35 209-501l573.1 239.1c28.5 11.9 26.25 142.1-31.53 280.62s-149.05 232.26-177.5 220.4z"/></defs></svg>