<?xml version="1.0" encoding="UTF-8"?>
<svg id="Layer_1" data-name="Layer 1" xmlns="http://www.w3.org/2000/svg" width="2000" height="2000" viewBox="0 0 2000 2000">
  <g>
    <g>
      <path d="M890.69,1972.77c326.17,0,709.13-173.54,709.13-567.77,0-92.86-317.49-178.21-709.13-178.21h-1.09c-391.64,0-709.13,85.35-709.13,178.21,0,394.23,382.96,567.77,709.13,567.77h1.09Z" style="fill: #fff; stroke: #3a3632; stroke-miterlimit: 10; stroke-width: 20px;"/>
      <path d="M965.72,1814.6c0,10.16-5.75,15.24-17.25,15.24h-97.18c-11.69,0-17.54-5.08-17.54-15.24s5.84-14.66,17.54-14.66h29.9v-131.1l-27.6,16.96c-2.69,1.54-5.08,2.3-7.19,2.3-4.03,0-7.43-1.72-10.21-5.17-2.78-3.45-4.17-7.28-4.17-11.5,0-5.56,2.49-9.87,7.47-12.94l44.56-27.6c5.75-3.45,11.21-5.18,16.39-5.18s9.68,1.63,12.94,4.89c3.26,3.26,4.89,7.76,4.89,13.51v155.83h30.19c11.5,0,17.25,4.89,17.25,14.66Z" style="fill: #3a3632;"/>
      <path d="M1553.93,1399.6c0,44.5-296.93,110.43-663.21,110.43h-1.17c-366.28,0-663.21-65.93-663.21-110.43" style="fill: none; stroke: #3a3632; stroke-linecap: round; stroke-miterlimit: 10; stroke-width: 20px;"/>
    </g>
    <g>
      <path d="M1809.19,188.55l-724.06,807.36c-22.8,25.42-56.26,21.48-74.2-7.89l-101.91-166.87c-14.2-23.26-9.63-59.2,9.83-80.9L1537.01,50.99c19.46-21.7,54.7-30.14,79.36-18.54l176.94,83.21c31.14,14.64,38.68,47.48,15.89,72.9Z" style="fill: #fff; stroke: #3a3632; stroke-miterlimit: 10; stroke-width: 20px;"/>
      <path d="M1706.83,161.56c-10.71,11.94-30.64,15.57-44.33,8.2l-80.97-43.54c-12.24-6.58-13.98-20.81-4.06-31.87,9.92-11.06,27.96-15.01,40.47-8.73l82.77,41.52c14,7.02,16.82,22.47,6.11,34.41Z" style="fill: #fff; stroke: #3a3632; stroke-miterlimit: 10; stroke-width: 20px;"/>
    </g>
  </g>
  <g>
    <g>
      <polygon points="1041.57 736.51 1088.54 786.18 1041 835.62 1012.32 843.6 972.42 792.16 1012.89 744.5 1041.57 736.51" style="fill: #c93c27; stroke: #3a3632; stroke-linecap: round; stroke-linejoin: round; stroke-width: 10px;"/>
      <g>
        <polyline points="1026.24 802.75 1014.27 787.01 1026.32 771.63" style="fill: #c93c27; stroke: #3a3632; stroke-linecap: round; stroke-linejoin: round; stroke-width: 10px;"/>
        <line x1="1014.27" y1="787.01" x2="997.74" y2="791.42" style="fill: #c93c27; stroke: #3a3632; stroke-linecap: round; stroke-linejoin: round; stroke-width: 10px;"/>
      </g>
    </g>
    <g>
      <polygon points="972.09 830.67 1011.44 877.55 966.33 919.23 940.28 924.85 907.34 876.75 946.04 836.29 972.09 830.67" style="fill: #c93c27; stroke: #3a3632; stroke-linecap: round; stroke-linejoin: round; stroke-width: 10px;"/>
      <g>
        <polyline points="957.05 894.09 947.41 874.32 959.46 858.93" style="fill: #c93c27; stroke: #3a3632; stroke-linecap: round; stroke-linejoin: round; stroke-width: 10px;"/>
        <line x1="947.41" y1="874.32" x2="929.63" y2="877.08" style="fill: #c93c27; stroke: #3a3632; stroke-linecap: round; stroke-linejoin: round; stroke-width: 10px;"/>
      </g>
    </g>
    <g>
      <polygon points="1049.26 813.81 1096.23 863.48 1048.69 912.92 1020.01 920.9 980.12 869.46 1020.58 821.8 1049.26 813.81" style="fill: #c93c27; stroke: #3a3632; stroke-linecap: round; stroke-linejoin: round; stroke-width: 10px;"/>
      <polyline points="1040.26 885.65 1021.79 861.38 1040.38 837.65" style="fill: #c93c27; stroke: #3a3632; stroke-linecap: round; stroke-linejoin: round; stroke-width: 10px;"/>
      <line x1="1021.79" y1="861.38" x2="996.31" y2="868.17" style="fill: #c93c27; stroke: #3a3632; stroke-linecap: round; stroke-linejoin: round; stroke-width: 10px;"/>
    </g>
    <g>
      <polygon points="1001.96 1159.87 977.79 1223.81 912.56 1202.63 892.85 1180.32 921.71 1121.97 982.26 1137.56 1001.96 1159.87" style="fill: #c93c27; stroke: #3a3632; stroke-linecap: round; stroke-linejoin: round; stroke-width: 10px;"/>
      <polyline points="933.41 1183.15 947.18 1155.93 976.64 1162.3" style="fill: #c93c27; stroke: #3a3632; stroke-linecap: round; stroke-linejoin: round; stroke-width: 10px;"/>
      <line x1="947.18" y1="1155.93" x2="929.94" y2="1135.97" style="fill: #c93c27; stroke: #3a3632; stroke-linecap: round; stroke-linejoin: round; stroke-width: 10px;"/>
    </g>
    <g>
      <polygon points="1111.89 744.24 1144.82 779.07 1111.49 813.74 1091.38 819.34 1063.4 783.27 1091.78 749.84 1111.89 744.24" style="fill: #c93c27; stroke: #3a3632; stroke-linecap: round; stroke-linejoin: round; stroke-width: 10px;"/>
      <g>
        <polyline points="1108.84 794.09 1096.86 778.36 1108.91 762.97" style="fill: #c93c27; stroke: #3a3632; stroke-linecap: round; stroke-linejoin: round; stroke-width: 10px;"/>
        <line x1="1096.86" y1="778.36" x2="1080.33" y2="782.76" style="fill: #c93c27; stroke: #3a3632; stroke-linecap: round; stroke-linejoin: round; stroke-width: 10px;"/>
      </g>
    </g>
    <g>
      <polygon points="1135.7 776.9 1172.37 815.68 1135.26 854.28 1112.87 860.51 1081.72 820.35 1113.31 783.14 1135.7 776.9" style="fill: #c93c27; stroke: #3a3632; stroke-linecap: round; stroke-linejoin: round; stroke-width: 10px;"/>
      <g>
        <polyline points="1132.31 832.41 1118.97 814.88 1132.39 797.75" style="fill: #c93c27; stroke: #3a3632; stroke-linecap: round; stroke-linejoin: round; stroke-width: 10px;"/>
        <line x1="1118.97" y1="814.88" x2="1100.57" y2="819.79" style="fill: #c93c27; stroke: #3a3632; stroke-linecap: round; stroke-linejoin: round; stroke-width: 10px;"/>
      </g>
    </g>
    <g>
      <polygon points="861.14 1099.53 897.81 1138.31 860.69 1176.91 838.3 1183.15 807.15 1142.98 838.75 1105.77 861.14 1099.53" style="fill: #c93c27; stroke: #3a3632; stroke-linecap: round; stroke-linejoin: round; stroke-width: 10px;"/>
      <g>
        <polyline points="857.74 1155.04 844.41 1137.52 857.83 1120.39" style="fill: #c93c27; stroke: #3a3632; stroke-linecap: round; stroke-linejoin: round; stroke-width: 10px;"/>
        <line x1="844.41" y1="1137.52" x2="826.01" y2="1142.42" style="fill: #c93c27; stroke: #3a3632; stroke-linecap: round; stroke-linejoin: round; stroke-width: 10px;"/>
      </g>
    </g>
    <g>
      <polygon points="909.91 1210.33 918.87 1262.95 866.56 1274.43 844.48 1267.18 840.89 1216.48 887.83 1203.08 909.91 1210.33" style="fill: #c93c27; stroke: #3a3632; stroke-linecap: round; stroke-linejoin: round; stroke-width: 10px;"/>
      <g>
        <polyline points="876.26 1254.6 874.9 1232.62 895.58 1225.83" style="fill: #c93c27; stroke: #3a3632; stroke-linecap: round; stroke-linejoin: round; stroke-width: 10px;"/>
        <line x1="874.9" y1="1232.62" x2="856.88" y2="1226.48" style="fill: #c93c27; stroke: #3a3632; stroke-linecap: round; stroke-linejoin: round; stroke-width: 10px;"/>
      </g>
    </g>
    <g>
      <polygon points="897.29 1008.46 930.6 1050.16 890.39 1085.53 867.56 1089.87 839.87 1047.25 874.46 1012.8 897.29 1008.46" style="fill: #c93c27; stroke: #3a3632; stroke-linecap: round; stroke-linejoin: round; stroke-width: 10px;"/>
      <g>
        <polyline points="889.28 1063.49 877.45 1044.91 892.25 1028.96" style="fill: #c93c27; stroke: #3a3632; stroke-linecap: round; stroke-linejoin: round; stroke-width: 10px;"/>
        <line x1="877.45" y1="1044.91" x2="858.7" y2="1048.27" style="fill: #c93c27; stroke: #3a3632; stroke-linecap: round; stroke-linejoin: round; stroke-width: 10px;"/>
      </g>
    </g>
    <g>
      <polygon points="1006.57 1291.01 989.81 1341.68 938.23 1327.29 922.13 1310.53 942.72 1264.07 990.47 1274.25 1006.57 1291.01" style="fill: #c93c27; stroke: #3a3632; stroke-linecap: round; stroke-linejoin: round; stroke-width: 10px;"/>
      <g>
        <polyline points="956.09 1314.33 965.2 1294.28 986.64 1297.98" style="fill: #c93c27; stroke: #3a3632; stroke-linecap: round; stroke-linejoin: round; stroke-width: 10px;"/>
        <line x1="965.2" y1="1294.28" x2="952.16" y2="1280.4" style="fill: #c93c27; stroke: #3a3632; stroke-linecap: round; stroke-linejoin: round; stroke-width: 10px;"/>
      </g>
    </g>
    <g>
      <polygon points="783.05 1311.7 803.37 1262.36 853.8 1280.37 868.67 1298.23 844.82 1343.12 797.92 1329.57 783.05 1311.7" style="fill: #c93c27; stroke: #3a3632; stroke-linecap: round; stroke-linejoin: round; stroke-width: 10px;"/>
      <g>
        <polyline points="835.06 1292.03 824.55 1311.38 803.42 1306.17" style="fill: #c93c27; stroke: #3a3632; stroke-linecap: round; stroke-linejoin: round; stroke-width: 10px;"/>
        <line x1="824.55" y1="1311.38" x2="836.57" y2="1326.15" style="fill: #c93c27; stroke: #3a3632; stroke-linecap: round; stroke-linejoin: round; stroke-width: 10px;"/>
      </g>
    </g>
    <g>
      <polygon points="985.3 921.02 1021.97 959.8 984.85 998.4 962.46 1004.63 931.31 964.47 962.91 927.26 985.3 921.02" style="fill: #c93c27; stroke: #3a3632; stroke-linecap: round; stroke-linejoin: round; stroke-width: 10px;"/>
      <g>
        <polyline points="981.9 976.53 968.57 959 981.99 941.87" style="fill: #c93c27; stroke: #3a3632; stroke-linecap: round; stroke-linejoin: round; stroke-width: 10px;"/>
        <line x1="968.57" y1="959" x2="950.17" y2="963.91" style="fill: #c93c27; stroke: #3a3632; stroke-linecap: round; stroke-linejoin: round; stroke-width: 10px;"/>
      </g>
    </g>
    <g>
      <polygon points="1245.37 469.15 1292.34 518.81 1244.8 568.25 1216.13 576.24 1176.23 524.8 1216.7 477.14 1245.37 469.15" style="fill: #c93c27; stroke: #3a3632; stroke-linecap: round; stroke-linejoin: round; stroke-width: 10px;"/>
      <g>
        <polyline points="1230.05 535.39 1218.07 519.65 1230.13 504.26" style="fill: #c93c27; stroke: #3a3632; stroke-linecap: round; stroke-linejoin: round; stroke-width: 10px;"/>
        <line x1="1218.07" y1="519.65" x2="1201.55" y2="524.05" style="fill: #c93c27; stroke: #3a3632; stroke-linecap: round; stroke-linejoin: round; stroke-width: 10px;"/>
      </g>
    </g>
    <g>
      <polygon points="1175.9 563.31 1215.25 610.19 1170.14 651.86 1144.08 657.48 1111.15 609.39 1149.84 568.93 1175.9 563.31" style="fill: #c93c27; stroke: #3a3632; stroke-linecap: round; stroke-linejoin: round; stroke-width: 10px;"/>
      <g>
        <polyline points="1160.86 626.72 1151.21 606.95 1163.27 591.57" style="fill: #c93c27; stroke: #3a3632; stroke-linecap: round; stroke-linejoin: round; stroke-width: 10px;"/>
        <line x1="1151.21" y1="606.95" x2="1133.43" y2="609.71" style="fill: #c93c27; stroke: #3a3632; stroke-linecap: round; stroke-linejoin: round; stroke-width: 10px;"/>
      </g>
    </g>
    <g>
      <polygon points="1255.28 570.29 1302.24 619.95 1254.71 669.39 1226.03 677.38 1186.13 625.94 1226.6 578.27 1255.28 570.29" style="fill: #c93c27; stroke: #3a3632; stroke-linecap: round; stroke-linejoin: round; stroke-width: 10px;"/>
      <polyline points="1246.28 642.12 1227.81 617.85 1246.4 594.12" style="fill: #c93c27; stroke: #3a3632; stroke-linecap: round; stroke-linejoin: round; stroke-width: 10px;"/>
      <line x1="1227.81" y1="617.85" x2="1202.32" y2="624.64" style="fill: #c93c27; stroke: #3a3632; stroke-linecap: round; stroke-linejoin: round; stroke-width: 10px;"/>
    </g>
    <g>
      <polygon points="1337.26 428.64 1370.2 463.47 1336.86 498.14 1316.75 503.74 1288.78 467.67 1317.15 434.24 1337.26 428.64" style="fill: #c93c27; stroke: #3a3632; stroke-linecap: round; stroke-linejoin: round; stroke-width: 10px;"/>
      <g>
        <polyline points="1334.21 478.49 1322.24 462.76 1334.29 447.37" style="fill: #c93c27; stroke: #3a3632; stroke-linecap: round; stroke-linejoin: round; stroke-width: 10px;"/>
        <line x1="1322.24" y1="462.76" x2="1305.71" y2="467.16" style="fill: #c93c27; stroke: #3a3632; stroke-linecap: round; stroke-linejoin: round; stroke-width: 10px;"/>
      </g>
    </g>
    <g>
      <polygon points="1339.51 509.54 1376.18 548.31 1339.06 586.91 1316.67 593.15 1285.52 552.99 1317.12 515.77 1339.51 509.54" style="fill: #c93c27; stroke: #3a3632; stroke-linecap: round; stroke-linejoin: round; stroke-width: 10px;"/>
      <g>
        <polyline points="1336.11 565.04 1322.78 547.52 1336.2 530.39" style="fill: #c93c27; stroke: #3a3632; stroke-linecap: round; stroke-linejoin: round; stroke-width: 10px;"/>
        <line x1="1322.78" y1="547.52" x2="1304.38" y2="552.42" style="fill: #c93c27; stroke: #3a3632; stroke-linecap: round; stroke-linejoin: round; stroke-width: 10px;"/>
      </g>
    </g>
    <g>
      <polygon points="1171.83 667.35 1208.5 706.13 1171.38 744.73 1148.99 750.97 1117.85 710.8 1149.44 673.59 1171.83 667.35" style="fill: #c93c27; stroke: #3a3632; stroke-linecap: round; stroke-linejoin: round; stroke-width: 10px;"/>
      <g>
        <polyline points="1168.44 722.86 1155.1 705.34 1168.52 688.21" style="fill: #c93c27; stroke: #3a3632; stroke-linecap: round; stroke-linejoin: round; stroke-width: 10px;"/>
        <line x1="1155.1" y1="705.34" x2="1136.7" y2="710.24" style="fill: #c93c27; stroke: #3a3632; stroke-linecap: round; stroke-linejoin: round; stroke-width: 10px;"/>
      </g>
    </g>
    <g>
      <polygon points="930.5 1006.38 979.92 1026.53 962.07 1077.02 944.26 1091.95 899.3 1068.26 912.69 1021.31 930.5 1006.38" style="fill: #c93c27; stroke: #3a3632; stroke-linecap: round; stroke-linejoin: round; stroke-width: 10px;"/>
      <g>
        <polyline points="950.35 1058.32 930.96 1047.88 936.1 1026.73" style="fill: #c93c27; stroke: #3a3632; stroke-linecap: round; stroke-linejoin: round; stroke-width: 10px;"/>
        <line x1="930.96" y1="1047.88" x2="916.23" y2="1059.95" style="fill: #c93c27; stroke: #3a3632; stroke-linecap: round; stroke-linejoin: round; stroke-width: 10px;"/>
      </g>
    </g>
  </g>
</svg>