<svg xmlns="http://www.w3.org/2000/svg" viewBox="0 0 2000 2000"><g id="Layer_2" data-name="Layer 2"><g id="layer3"><path id="path1047" d="M849.84,703.59S896,727.66,975,717.52c0,0,60-5.32,115.32-43.32,0,0,42.48-27.86,75.92-80,0,0,37.24-56,51.74-90.41,4.31-11.12,10.09-47.43,1.8-73.35,0,0-7.75-36.75-39.22-78.69-24.27-28.15-29.2-31.72-29.2-31.72-8.88-7.24-6.75-16.3-4.66-19.64,0,0,3.33-12.79,17.27-29.19,0,0,37.19-49.14,58-69.81,0,0,33.36-39.56,65-56.09,0,0,25.66-15.35,74.2-21.57,0,0,31.76-6.21,89.28,7.36,0,0,12.11-12,12.77-26.43-58.61-13.32-98.31-9.27-98.31-9.27-57.68,3.06-93.27,27.33-93.27,27.33-40.27,21.36-76.18,64-76.18,64-42,51-55.19,70.6-55.19,70.6-24,32.46-30.89,42.08-30.89,42.08C924.8,574.73,934.19,567.5,849.84,703.59Z" style="fill:#231f20"/></g><path d="M627.87,994.87V865c0-264.45,249.55-292.68,249.55-292.68" style="fill:none;stroke:#231f20;stroke-linecap:round;stroke-linejoin:round;stroke-width:24px"/><polyline points="718.94 893.96 627.87 1001.3 536.79 893.96" style="fill:none;stroke:#231f20;stroke-linecap:round;stroke-linejoin:round;stroke-width:24px"/><g id="layer3-2" data-name="layer3"><path id="path916" d="M1387.27,1167.6v661.15a137.46,137.46,0,0,1-137.21,137.71H157.47A137.45,137.45,0,0,1,19.71,1829.31V1167.55Z" style="fill:#fff;stroke:#221f1f;stroke-linecap:round;stroke-linejoin:round;stroke-width:24px"/></g><path d="M1978.29,1395.63,1475.69,1379a61.24,61.24,0,0,0-58.22,37.41L1387.25,1488V1270.37l591-19.27Z" style="fill:#fff;stroke:#221f1f;stroke-linecap:round;stroke-linejoin:round;stroke-width:24px"/></g></svg>