<svg xmlns="http://www.w3.org/2000/svg" xmlns:xlink="http://www.w3.org/1999/xlink" height="1923.953" width="1706.763" xmlns:v="https://vecta.io/nano"><style><![CDATA[.B{stroke-width:17.435}.C{stroke-linejoin:round}.D{stroke-linecap:round}.E{stroke:#010101}.F{fill:#ca3d27}.G{stroke-width:24}.H{stroke-miterlimit:10}]]></style><use xlink:href="#B" fill="#9ca0aa"/><use xlink:href="#B" fill="#939598"/><path d="M1373.96 737.503L998.7 580.943c28.17 11.76 105.87-86.45 163.13-223.7s72.22-260.94 44-272.73l375.28 156.56c28.24 11.8 26 140.8-31.24 278s-147.72 230.18-175.9 218.42z" fill="#fff"/><use xlink:href="#B" fill="none" class="B C E"/><path d="M1109.24 44.243c28.24 11.78 13.28 135.48-44 272.72s-135 235.45-163.13 223.7-18.27-137.52 39-274.76 139.85-233.45 168.13-221.66z" fill="#939598"/><g class="E"><g class="C"><path d="M902.14 540.663c-28.18-11.76-18.27-137.52 39-274.76s139.82-233.45 168.1-221.66" fill="none" class="B D"/><path d="M961.96 355.513l-.4.07c-435.3 381-371.35 806.87-371.35 806.87l231.3-7.18s-43-456 72.67-622.7c1.23 5.88 26.4-2.68 28.16 3.8 35.93-21.5 96.24-107.45 143-219.42 7.82-18.75 14.86-37.26 21.1-55.25 6.74-19.65-72.9 50.76-124.48 93.8z" class="F G"/><g class="B"><path d="M1075.13 13.123c-11.93-11.1-103.8 61.23-201.4 166.12s-163.48 202.2-151.6 213.26 105.9-59.25 203.48-164.15 161.44-204.18 149.5-215.23z" fill="#6d6e71"/><path d="M1109.24 44.243c28.24 11.78 13.28 135.48-44 272.72s-135 235.45-163.13 223.7" fill="none" class="D"/></g></g><path d="M1409.04 365.053c-16-18.6-31.5-24.2-37.95-26.93-76.42-32.26-134.1-8.82-156.34 62-6.66 21.8.2 29 1.74 40.4-7.22 4.4-25.82 22-33.38 34.58-36.58 69.48-12.62 127 63.08 158.92 67.73 28.58 146.17-3.6 185.3-96.32 9.17-21.73 16.13-40.75 16.44-62.2.6-43.2-9.98-77-38.9-110.45z" class="B F"/></g><path d="M1202.54 526.063c-6 2 6.8 33.1 29.62 60.8 10.63 15 48.82-8.28 23.75-20.85-28.28-14.43-42.07-43.83-53.37-40z" fill="#fff"/><path d="M1208.45 438.903s-28.68 11.3-41.94 9.7c4 2.2 19.62 7.78 33.83 4.8 0 0-12.94 35.38-9.83 42.18 0 0 18.8-30.4 18-40.23 0 0 26.72 15.76 38.34 14.2 0 0-17.9-26-25.4-27.16 0 0 26.45-33.16 27.77-44.56-6.32.82-29.16 23.06-32.84 33-.2-12.92-11.35-26.2-11.35-26.2l3.4 34.3z" fill="#0da54a"/><g fill="#fff" class="B C"><path d="M1462.8 255.203c59.78 25.94 81.22 90.63 58.56 144.3s-87.65 85.75-147 61.12c-38.43-14.82-33.62-70.28-11-123.95s66.85-94 99.44-81.47z" stroke="#050507"/><path d="M1463.38 255.313c29.8 12.2 33.2 72.43 10.54 126.1s-67.92 92.63-97.7 80.4c-39.68-16.26-36-72.65-13.34-126.32s62.47-95.77 100.5-80.2z" stroke="#040607"/></g><path d="M1468.07 293.363c22.33-9.4 28.62 34.43 6 88.1s-59.62 80.22-71.35 62.23c-14.18-28.2-2.8-67.57 6.7-90.07s29.45-49.4 58.67-60.26z" stroke="#050605" class="B C F"/><g fill="none" class="D E"><path d="M1491.8 443.903c24.3-.36 55.7-73.58 39-91.26" class="B C"/><g stroke-width="8.731"><path d="M1414.03 399.473c-12.2 7.14-4.9 19.1-4.9 19.1"/><use xlink:href="#C"/><use xlink:href="#C" x="-13.83" y="33.3"/><path d="M1455.96 317.403c-12.2 7.14-4.9 19.1-4.9 19.1"/><use xlink:href="#C" x="-13.89" y="-9.48"/><use xlink:href="#C" x="-26.41" y="19.05"/><use xlink:href="#C" x="-32.18" y="48.74"/><path d="M1435.28 337.673c-12.2 7.14-4.9 19.1-4.9 19.1"/><use xlink:href="#C" x="-38.38" y="5.06"/><use xlink:href="#C" x="10.56" y="-32.49"/></g></g><g fill="#fff" stroke="#231f20" class="G"><g class="H"><path d="M1327.47 1022.393v787.37a102 102 0 0 1-102.2 102.19H222.84a102 102 0 0 1-102.2-102.19v-787.37z"/><path d="M77.05 1022.123a64.9 64.9 0 0 0-65.05 65v59.76a64.91 64.91 0 0 0 65.05 65h43.6v-189.5h35.52l-5.3-.26zm1294 0a64.91 64.91 0 0 1 65.05 65v59.77a64.91 64.91 0 0 1-65.05 65h-43.6v-189.5h-35.5l5.3-.26z"/></g><circle r="163.38" cy="1344.443" cx="724.05"/></g><path d="M724.05 1344.443v-110.45" fill="none" stroke="#231f20" class="D G H"/><defs ><path id="B" d="M1469.96 777.553l-567.82-236.9c143.1-148.87 202.34-299.54 207.1-496.42l567.83 236.88c28.25 11.8 26 140.8-31.24 278s-147.68 230.2-175.87 218.43z"/><path id="C" d="M1458.96 362.883c-12.2 7.13-4.9 19.1-4.9 19.1"/></defs></svg>