<svg xmlns="http://www.w3.org/2000/svg" viewBox="0 0 1770.43 2000"><g id="Layer_2" data-name="Layer 2"><g id="layer3"><g id="g877"><path id="rect869" d="M819.38,1207.29l406.74,41.43-626.9,237.66L23.16,1414.92Z" style="fill:#fff;stroke:#231f20;stroke-linejoin:round;stroke-width:24px"/><path id="path864" d="M45.62,1415.17,76.53,1851l514.65,124.15,7.94-488.4Z" style="fill:#fff;stroke:#231f20;stroke-linejoin:round;stroke-width:24px"/><path id="rect866" d="M599.12,1486.75l599.77-234.81-38.21,400.58-569.5,322.63Z" style="fill:#fff;stroke:#231f20;stroke-linejoin:round;stroke-width:24px"/></g></g><path d="M1646.91,743.52c131.55-223,167.35-554.81-102.18-713.8-63.49-37.45-249.89,145.19-407.83,413l-.45.75C978.51,711.18,908.82,962.67,972.3,1000.12c269.53,159,542.63-32.85,674.17-255.85Z" style="fill:#fff;stroke:#231f20;stroke-miterlimit:10;stroke-width:24px"/><path d="M1568.63,629.12q10.42,6.15,3.46,17.94L1528,721.75c-2,3.41-4.6,5.5-7.8,6.26a12.13,12.13,0,0,1-9.31-1.51,17.34,17.34,0,0,1-7.94-10.78l-21.72-73.23q-4.17-13.59-9.48-21.88A38.47,38.47,0,0,0,1459,607.9q-9.24-5.45-17.28-3t-13.84,12.24a48.23,48.23,0,0,0-6.18,17.42,91.27,91.27,0,0,0-.63,20.16A27.1,27.1,0,0,1,1421,660a11,11,0,0,1-1.43,4.45,8.34,8.34,0,0,1-6.57,3.94,13.63,13.63,0,0,1-8.92-1.94,13.22,13.22,0,0,1-4.47-4.1,15.47,15.47,0,0,1-2.1-5.87,79.14,79.14,0,0,1,1-26.69,81.63,81.63,0,0,1,9.65-25.57q11.94-20.24,29.29-26.3t34.65,4.14a59,59,0,0,1,19.5,18.39q7.5,11.33,13.28,31.15L1521,686.89,1551.65,635Q1558.61,623.21,1568.63,629.12Z" style="fill:#231f20"/><path d="M1522.53,58.92c30.42,17.94-44.25,247.54-192,498l-.47.8c-147.72,250.42-312.55,426.83-343,408.88" style="fill:none;stroke:#231f20;stroke-linecap:round;stroke-miterlimit:10;stroke-width:24px"/><path d="M685,1162.94V1060.2C685,851,882.37,828.71,882.37,828.71" style="fill:none;stroke:#231f20;stroke-linecap:round;stroke-linejoin:round;stroke-width:24px"/><polyline points="774.28 1064.02 684.99 1169.26 595.7 1064.02" style="fill:none;stroke:#231f20;stroke-linecap:round;stroke-linejoin:round;stroke-width:24px"/><path d="M728.28,406.68,157.38,212.21c-40.65-15.63-64.67-52.48-49-93.14h0c15.63-40.66,58.14-51.93,98.8-36.29l554.15,238" style="fill:#231f20"/><path d="M859.15,206.83H1087.3a24.77,24.77,0,0,1,24.77,24.77V679.05a17.25,17.25,0,0,1-17.25,17.25H931.72A97.33,97.33,0,0,1,834.38,599V231.6a24.77,24.77,0,0,1,24.77-24.77Z" transform="translate(202.5 1197.94) rotate(-68.97)" style="fill:#fff;stroke:#231f20;stroke-linecap:round;stroke-linejoin:round;stroke-width:23.0163116455078px"/><path d="M873.38,478.48l148.16,57a84.9,84.9,0,0,0,109.71-48.78l12.26-31.89" style="fill:#fff;stroke:#231f20;stroke-linecap:round;stroke-linejoin:round;stroke-width:23.0163116455078px"/></g></svg>