<svg xmlns="http://www.w3.org/2000/svg" xmlns:xlink="http://www.w3.org/1999/xlink" viewBox="0 0 2000 2000"><defs><clipPath id="clip-path"><path id="path900" d="M-943.88,1668.51V994c0,50.64,200,106.87,446.67,106.87S-51.57,1044.73-51.57,994v674.55c0,50.78-199,129.76-445.64,129.76s-446.67-79.11-446.67-129.76Z" style="fill:none"/></clipPath><clipPath id="clip-path-2"><path id="path900-2" data-name="path900" d="M1446.22,61.66c21.88,13.64-7.38,114.44-73.64,220.75s-144.21,177.37-166,163.77,3.51-116.81,69.77-223.11S1424.35,48,1446.22,61.66Z" style="fill:none"/></clipPath><clipPath id="clip-path-3"><path id="path900-3" data-name="path900" d="M1576.33,676.68,1286.09,495.76l-.44-.27c21.82,13.6,99.77-57.47,166-163.78s95.53-207.1,73.65-220.74l290.24,180.92.44.27c21.88,13.64,2.48,120.59-63.78,226.89s-154.07,171.23-175.9,157.63Z" style="fill:none"/></clipPath></defs><g id="Layer_2" data-name="Layer 2"><g style="clip-path:url(#clip-path)"><path d="M2.2,1298.28c2.07-35.94-28.06-67.91-67.54-72.28-39-4.31-57.78,21.82-59.47,57.49s15,53.93,53.7,58.55C-32,1346.71.14,1334.14,2.2,1298.28Z" style="fill:#ffc935;stroke:#000;stroke-miterlimit:10;stroke-width:8px"/><path d="M6.51,1401c2.74-37-26.53-70.17-65.59-74.83-38.56-4.61-57.7,23-60.2,60.61s13.7,56.42,52.06,60.49C-28.37,1451.37,3.78,1438,6.51,1401Z" style="fill:#ffc935;stroke:#000;stroke-miterlimit:10;stroke-width:8px"/><path d="M9.07,1510.47c4-37.62-24-71.16-62.7-75.35-38.18-4.13-58.19,25-62.12,63.78s11.51,57.32,49.65,60.34C-27.47,1562.3,5.1,1548,9.07,1510.47Z" style="fill:#ffc935;stroke:#000;stroke-miterlimit:10;stroke-width:8px"/><path d="M14.94,1625.18c5.34-37.16-21.3-70-59.61-73.08-37.83-3.09-59,26.76-64.53,65s9.11,55.7,47.1,57.73C-23.61,1676.84,9.61,1662.25,14.94,1625.18Z" style="fill:#ffc935;stroke:#000;stroke-miterlimit:10;stroke-width:8px"/><path d="M17.45,1735.19c6.21-36-19.65-67.42-57.89-69.58-37.76-2.12-59.93,27.11-66.54,63.42s7.58,52.66,45.7,54.38C-22.67,1785.15,11.25,1771.08,17.45,1735.19Z" style="fill:#ffc935;stroke:#000;stroke-miterlimit:10;stroke-width:8px"/></g><path id="path900-4" data-name="path900" d="M1650.69,723,1210.86,448.87c139.2-104.3,209-221.53,239.67-384.52l439.84,274.16h0c21.88,13.64,2.48,120.58-63.79,226.89S1672.51,736.63,1650.69,723Z" style="fill:#929497;stroke:#000;stroke-linecap:round;stroke-linejoin:round;stroke-width:8px"/><path id="path900-5" data-name="path900" d="M1576.33,676.68,1286.09,495.76l-.44-.27c21.82,13.6,99.77-57.47,166-163.78s95.53-207.1,73.65-220.74l290.24,180.92.44.27c21.88,13.64,2.48,120.59-63.78,226.89s-154.07,171.23-175.9,157.63Z" style="fill:#fff;stroke:#000;stroke-linecap:round;stroke-linejoin:round;stroke-width:8px"/><path id="path900-6" data-name="path900" d="M1450.53,64.35c21.88,13.64-7.38,114.44-73.64,220.74s-144.21,177.38-166,163.78,3.51-116.81,69.77-223.11S1428.65,50.71,1450.53,64.35Z" style="fill:#d0d2d3;stroke:#000;stroke-linecap:round;stroke-linejoin:round;stroke-width:8px"/><g style="clip-path:url(#clip-path-2)"><path d="M1266.36,308.71c16.62-3.41,37.59,13.13,38.22,16.17s-12.15,26.5-28.77,29.91-28.49-3.22-31.43-17.56S1249.73,312.12,1266.36,308.71Z" style="fill:#ffc935;stroke:#231f20;stroke-miterlimit:10;stroke-width:9.600000381469727px"/><path d="M1301.2,325.57c0,.61-1,3.53-3.74,7.63a42.08,42.08,0,0,1-10.18,10.87c-8.18,1.6-14.2-3-16.11-12.34s1.8-15.93,10-17.69a42.41,42.41,0,0,1,13.63,6C1298.88,322.73,1301,325,1301.2,325.57Z" style="fill:#fff6dd"/><path d="M1298.84,278.85c10.22,13.54,4.31,39.59,1.83,41.46s-29.15.43-39.38-13.11-9.34-27.1,2.35-35.93S1288.61,265.31,1298.84,278.85Z" style="fill:#ffc935;stroke:#231f20;stroke-miterlimit:10;stroke-width:9.600000381469727px"/><path d="M1298.59,317.56c-.53.3-3.62.6-8.49-.09a42.38,42.38,0,0,1-14.19-4.52c-5-6.7-3.39-14.12,4.21-19.86s15.16-5.21,20.25,1.39a42.37,42.37,0,0,1,.46,14.89C1300.16,314.24,1299,317.13,1298.59,317.56Z" style="fill:#fff6dd"/><path d="M1409.07,148.63c-5.37,16.1-30.19,26-33.14,25s-16.86-23.79-11.48-39.88,17-23.05,30.94-18.41S1414.44,132.54,1409.07,148.63Z" style="fill:#ffc935;stroke:#231f20;stroke-miterlimit:10;stroke-width:9.600000381469727px"/><path d="M1377,170.34c-.55-.26-2.54-2.64-4.73-7.05A42.16,42.16,0,0,1,1368,149c2.72-7.88,9.71-10.79,18.75-7.77s12.88,9.54,10.32,17.48a42.15,42.15,0,0,1-12,8.8C1380.64,169.76,1377.62,170.46,1377,170.34Z" style="fill:#fff6dd"/><path d="M1274.3,362c4.41,16.38-10.84,38.32-13.84,39.12s-27.19-10.52-31.59-26.91,1.49-28.63,15.64-32.43S1269.89,345.62,1274.3,362Z" style="fill:#ffc935;stroke:#231f20;stroke-miterlimit:10;stroke-width:9.600000381469727px"/><path d="M1259.57,397.8c-.61.09-3.58-.8-7.84-3.26a42.27,42.27,0,0,1-11.47-9.51c-2.08-8.07,2.15-14.36,11.35-16.83s16,.84,18.25,8.87a42.38,42.38,0,0,1-5.15,14C1262.26,395.31,1260.13,397.57,1259.57,397.8Z" style="fill:#fff6dd"/><path d="M1314.86,259.75c12.5-11.47,39-8.08,41.1-5.79s3.22,29-9.28,40.45-26.08,11.89-36,1.1S1302.36,271.23,1314.86,259.75Z" style="fill:#ffc935;stroke:#231f20;stroke-miterlimit:10;stroke-width:9.600000381469727px"/><path d="M1353.42,256.29c.35.5.94,3.54.72,8.46a42.36,42.36,0,0,1-3.13,14.56c-6.2,5.58-13.73,4.73-20.17-2.29s-6.65-14.59-.56-20.29a42.24,42.24,0,0,1,14.77-1.88C1350,255.05,1353,255.89,1353.42,256.29Z" style="fill:#fff6dd"/><path d="M1319.48,228.65c14.66,8.54,19.25,34.86,17.69,37.54s-26.73,11.64-41.39,3.1-19.07-21.41-11.7-34.06S1304.82,220.1,1319.48,228.65Z" style="fill:#ffc935;stroke:#231f20;stroke-miterlimit:10;stroke-width:9.600000381469727px"/><path d="M1334.19,264.45c-.38.49-3.11,1.95-7.87,3.19a42.16,42.16,0,0,1-14.84,1.31c-7.16-4.27-8.58-11.71-3.78-19.94s12-10.66,19.22-6.54a42.2,42.2,0,0,1,6.17,13.56C1334.35,260.79,1334.43,263.89,1334.19,264.45Z" style="fill:#fff6dd"/><path d="M1320.86,297.36c-1.13,16.93-22.64,32.76-25.74,32.56s-22.33-18.74-21.21-35.67,10.67-26.61,25.28-25.64S1322,280.43,1320.86,297.36Z" style="fill:#ffc935;stroke:#231f20;stroke-miterlimit:10;stroke-width:9.600000381469727px"/><path d="M1295.35,326.48c-.6-.12-3.13-1.92-6.36-5.63a42.13,42.13,0,0,1-7.79-12.7c.64-8.31,6.67-12.89,16.18-12.26s14.88,6,14.41,14.29a42.11,42.11,0,0,1-9.39,11.56C1298.7,325,1296,326.44,1295.35,326.48Z" style="fill:#fff6dd"/><path d="M1346.45,209.82c16.57-3.69,37.81,12.5,38.49,15.53s-11.7,26.7-28.26,30.39-28.54-2.74-31.72-17S1329.89,213.5,1346.45,209.82Z" style="fill:#ffc935;stroke:#231f20;stroke-miterlimit:10;stroke-width:9.600000381469727px"/><path d="M1381.57,226.1c.06.61-1,3.54-3.6,7.69a42.34,42.34,0,0,1-10,11c-8.16,1.73-14.25-2.77-16.32-12.07s1.54-16,9.66-17.85a42.14,42.14,0,0,1,13.74,5.76C1379.2,223.3,1381.37,225.52,1381.57,226.1Z" style="fill:#fff6dd"/><path d="M1407.54,167.77c-2.83,16.73-25.84,30.3-28.9,29.78s-20.32-20.91-17.48-37.64,13.3-25.39,27.74-22.94S1410.38,151,1407.54,167.77Z" style="fill:#ffc935;stroke:#231f20;stroke-miterlimit:10;stroke-width:9.600000381469727px"/><path d="M1379.21,194.15c-.58-.18-2.91-2.22-5.76-6.24a42.5,42.5,0,0,1-6.45-13.42c1.48-8.21,7.94-12.16,17.33-10.56s14.2,7.44,12.89,15.68a42.5,42.5,0,0,1-10.51,10.55C1382.7,193,1379.82,194.18,1379.21,194.15Z" style="fill:#fff6dd"/><path d="M1369.44,175.42c8,15-1.92,39.78-4.66,41.24s-28.86-4.11-36.85-19.08-5-28.23,7.92-35.13S1361.45,160.45,1369.44,175.42Z" style="fill:#ffc935;stroke:#231f20;stroke-miterlimit:10;stroke-width:9.600000381469727px"/><path d="M1363.16,213.62c-.57.22-3.67,0-8.37-1.41a42.42,42.42,0,0,1-13.32-6.67c-3.85-7.4-1.15-14.48,7.25-19s15.79-2.79,19.79,4.52a42.44,42.44,0,0,1-1.86,14.78C1365.22,210.59,1363.66,213.27,1363.16,213.62Z" style="fill:#fff6dd"/><path d="M1385.23,172c15.2,7.53,21.57,33.48,20.19,36.26s-25.88,13.43-41.08,5.89-20.48-20.06-14-33.18S1370,164.45,1385.23,172Z" style="fill:#ffc935;stroke:#231f20;stroke-miterlimit:10;stroke-width:9.600000381469727px"/><path d="M1402.33,206.72c-.34.51-3,2.15-7.64,3.72a42.4,42.4,0,0,1-14.71,2.31c-7.43-3.78-9.35-11.11-5.12-19.65s11.22-11.45,18.73-7.82a42.23,42.23,0,0,1,7.07,13.11C1402.24,203.05,1402.53,206.14,1402.33,206.72Z" style="fill:#fff6dd"/><path d="M1365.91,229.53c4.26,16.43,28.35,28,31.35,27.19s18.45-22.57,14.19-39-15.43-24.15-29.61-20.48S1361.65,213.11,1365.91,229.53Z" style="fill:#ffc935;stroke:#231f20;stroke-miterlimit:10;stroke-width:9.600000381469727px"/><path d="M1396.4,253.39c.57-.23,2.72-2.47,5.2-6.71a42.44,42.44,0,0,0,5.28-13.93c-2.17-8.05-9-11.43-18.18-9s-13.5,8.64-11.49,16.73a42.34,42.34,0,0,0,11.38,9.61C1392.83,252.55,1395.79,253.46,1396.4,253.39Z" style="fill:#fff6dd"/><path d="M1353.41,271.84c16.66,3.22,37.44-13.56,38-16.61s-12.45-26.36-29.11-29.58-28.44,3.55-31.22,17.93S1336.75,268.63,1353.41,271.84Z" style="fill:#ffc935;stroke:#231f20;stroke-miterlimit:10;stroke-width:9.600000381469727px"/><path d="M1388.05,254.58c0-.61-1-3.52-3.82-7.59a42.13,42.13,0,0,0-10.3-10.75c-8.2-1.5-14.17,3.17-16,12.52s2,15.91,10.17,17.58a42.49,42.49,0,0,0,13.57-6.15C1385.77,257.44,1387.87,255.16,1388.05,254.58Z" style="fill:#fff6dd"/><path d="M1285,428.16c12.09-11.92,10-38.55,7.84-40.76s-28.78-4.66-40.86,7.25-13.18,25.46-2.9,35.89S1273,440.07,1285,428.16Z" style="fill:#ffc935;stroke:#231f20;stroke-miterlimit:10;stroke-width:9.600000381469727px"/><path d="M1290.42,389.82c-.48-.38-3.49-1.12-8.41-1.14a42.16,42.16,0,0,0-14.7,2.4c-5.88,5.92-5.41,13.48,1.28,20.26s14.24,7.37,20.24,1.57a42.29,42.29,0,0,0,2.62-14.66C1291.49,393.33,1290.8,390.31,1290.42,389.82Z" style="fill:#fff6dd"/><path d="M1442.85,157.53c16.65-3.26,29.63-26.6,29-29.65s-21.42-19.78-38.08-16.51-25,13.95-22.22,28.32S1426.19,160.8,1442.85,157.53Z" style="fill:#ffc935;stroke:#231f20;stroke-miterlimit:10;stroke-width:9.600000381469727px"/><path d="M1468.49,128.54c-.19-.58-2.29-2.86-6.38-5.6a42.3,42.3,0,0,0-13.58-6.11c-8.17,1.69-12,8.25-10.12,17.6s7.81,14,16,12.49a42.29,42.29,0,0,0,10.27-10.78C1467.45,132.06,1468.54,129.15,1468.49,128.54Z" style="fill:#fff6dd"/><path d="M1343.32,294.64c-4.8,16.28,9.92,38.57,12.9,39.45s27.43-9.87,32.23-26.14-.81-28.66-14.86-32.8S1348.12,278.37,1343.32,294.64Z" style="fill:#ffc935;stroke:#231f20;stroke-miterlimit:10;stroke-width:9.600000381469727px"/><path d="M1357.19,330.78c.6.1,3.6-.71,7.92-3.07a42.45,42.45,0,0,0,11.69-9.23c2.27-8-1.8-14.41-10.94-17.1s-16,.46-18.47,8.43a42.36,42.36,0,0,0,4.82,14.09C1354.56,328.23,1356.63,330.54,1357.19,330.78Z" style="fill:#fff6dd"/><path d="M1317.43,312.49c14.13,9.39,39.77,1.93,41.49-.66s-1.31-29.12-15.44-38.52-27.62-7.7-35.73,4.5S1303.3,303.09,1317.43,312.49Z" style="fill:#ffc935;stroke:#231f20;stroke-miterlimit:10;stroke-width:9.600000381469727px"/><path d="M1356.05,309.92c.27-.55.38-3.65-.6-8.47a42.17,42.17,0,0,0-5.36-13.9c-7-4.54-14.29-2.54-19.57,5.4s-4.3,15.44,2.6,20.13a42.26,42.26,0,0,0,14.89-.44C1352.83,311.68,1355.65,310.38,1356.05,309.92Z" style="fill:#fff6dd"/><path d="M1379.73,283.46c14.7-8.46,19.44-34.75,17.89-37.44s-26.66-11.8-41.36-3.33-19.2,21.29-11.89,34S1365,291.93,1379.73,283.46Z" style="fill:#ffc935;stroke:#231f20;stroke-miterlimit:10;stroke-width:9.600000381469727px"/><path d="M1394.63,247.74c-.36-.49-3.09-2-7.85-3.24a42.19,42.19,0,0,0-14.82-1.39c-7.19,4.23-8.65,11.66-3.89,19.92s11.91,10.73,19.18,6.65a42.36,42.36,0,0,0,6.24-13.53C1394.78,251.4,1394.87,248.3,1394.63,247.74Z" style="fill:#fff6dd"/><path d="M1432.55,188.26c14.71-8.47,19.45-34.75,17.9-37.45s-26.66-11.79-41.37-3.33-19.19,21.29-11.89,34S1417.84,196.72,1432.55,188.26Z" style="fill:#ffc935;stroke:#231f20;stroke-miterlimit:10;stroke-width:9.600000381469727px"/><path d="M1447.46,152.53c-.37-.48-3.1-2-7.85-3.23a42.21,42.21,0,0,0-14.83-1.4c-7.18,4.24-8.64,11.67-3.89,19.93s11.91,10.73,19.18,6.64a42.38,42.38,0,0,0,6.25-13.52C1447.6,156.2,1447.7,153.1,1447.46,152.53Z" style="fill:#fff6dd"/><path d="M1312.4,345c4,16.5,27.87,28.45,30.89,27.72s18.83-22.27,14.84-38.76-15-24.41-29.26-21S1308.42,328.5,1312.4,345Z" style="fill:#ffc935;stroke:#231f20;stroke-miterlimit:10;stroke-width:9.600000381469727px"/><path d="M1342.48,369.35c.58-.21,2.76-2.41,5.32-6.62a42.51,42.51,0,0,0,5.51-13.84c-2-8.08-8.76-11.57-18-9.34s-13.65,8.42-11.78,16.54a42.48,42.48,0,0,0,11.22,9.8C1338.93,368.46,1341.88,369.42,1342.48,369.35Z" style="fill:#fff6dd"/><path d="M1388.79,212.8c4,16.49,27.87,28.44,30.89,27.71s18.82-22.26,14.84-38.76-15-24.41-29.27-21S1384.8,196.3,1388.79,212.8Z" style="fill:#ffc935;stroke:#231f20;stroke-miterlimit:10;stroke-width:9.600000381469727px"/><path d="M1418.87,237.16c.57-.22,2.76-2.42,5.32-6.62a42.51,42.51,0,0,0,5.51-13.84c-2-8.09-8.77-11.58-18-9.34s-13.65,8.41-11.77,16.54a42.26,42.26,0,0,0,11.22,9.79C1415.31,236.26,1418.26,237.23,1418.87,237.16Z" style="fill:#fff6dd"/><path d="M1301.55,418.36c13.77-9.92,15.83-36.55,14-39.07s-27.72-9-41.49.88-16.94,23.13-8.38,35S1287.78,428.27,1301.55,418.36Z" style="fill:#ffc935;stroke:#231f20;stroke-miterlimit:10;stroke-width:9.600000381469727px"/><path d="M1312.76,381.31c-.41-.45-3.28-1.65-8.14-2.43a42.06,42.06,0,0,0-14.89.12c-6.72,4.94-7.41,12.48-1.85,20.21s12.94,9.47,19.76,4.67a42.29,42.29,0,0,0,4.84-14.09C1313.28,384.94,1313.05,381.84,1312.76,381.31Z" style="fill:#fff6dd"/><path d="M1291.64,380.77c17,.58,34.87-19.23,35-22.34s-16.41-24.09-33.37-24.68-27.54,7.94-28,22.58S1274.68,380.19,1291.64,380.77Z" style="fill:#ffc935;stroke:#231f20;stroke-miterlimit:10;stroke-width:9.600000381469727px"/><path d="M1323.17,358.32c-.05-.61-1.59-3.31-5-6.9a42.54,42.54,0,0,0-11.86-9c-8.33-.2-13.5,5.35-13.83,14.87s4.45,15.4,12.78,15.77a42.24,42.24,0,0,0,12.45-8.18C1321.36,361.5,1323.08,358.92,1323.17,358.32Z" style="fill:#fff6dd"/></g><g style="clip-path:url(#clip-path-3)"><path d="M1470.36,583c-12.72-10.34-29.1-8.93-36.86,3.1s-1.22,25.13,11.12,34.88,21.43,9,29.45-2.33S1483.06,593.26,1470.36,583Z" style="fill:#ffc935;stroke:#000;stroke-miterlimit:10;stroke-width:8px"/><path d="M1478.8,562.5c-12.91-10.66-29.47-9.15-37.19,3.16s-1,25.7,11.41,35.72,21.59,9.32,29.64-2.22S1491.68,573.14,1478.8,562.5Z" style="fill:#ffc935;stroke:#000;stroke-miterlimit:10;stroke-width:8px"/><path d="M1487.48,541.2c-13.12-11-30-9.27-37.75,3.48s-1,26.5,11.56,36.81,21.84,9.63,30-2.3C1499.6,567.11,1500.57,552.17,1487.48,541.2Z" style="fill:#ffc935;stroke:#000;stroke-miterlimit:10;stroke-width:8px"/><path d="M1496.57,518.83c-13.34-11.32-30.55-9.27-38.55,4-7.91,13.17-1.2,27.52,11.57,38.15s22.17,9.89,30.61-2.6S1509.88,530.13,1496.57,518.83Z" style="fill:#ffc935;stroke:#000;stroke-miterlimit:10;stroke-width:8px"/><path d="M1506.22,495.24c-13.56-11.62-31.25-9.15-39.57,4.86-8.22,13.85-1.51,28.69,11.45,39.65s22.57,10.1,31.36-3.08C1518.36,523.33,1519.75,506.83,1506.22,495.24Z" style="fill:#ffc935;stroke:#000;stroke-miterlimit:10;stroke-width:8px"/><path d="M1516.6,470.31c-13.78-11.87-32-8.88-40.8,5.89-8.65,14.6-2,30,11.17,41.25s23,10.25,32.29-3.76C1528.62,499.52,1530.35,482.15,1516.6,470.31Z" style="fill:#ffc935;stroke:#000;stroke-miterlimit:10;stroke-width:8px"/><path d="M1527.84,444c-14-12-32.91-8.45-42.21,7.11-9.18,15.39-2.61,31.28,10.73,42.84s23.56,10.31,33.37-4.6C1539.67,474.28,1541.81,456,1527.84,444Z" style="fill:#ffc935;stroke:#000;stroke-miterlimit:10;stroke-width:8px"/><path d="M1540,416.5c-14.22-12.06-33.83-7.9-43.76,8.42-9.81,16.12-3.37,32.49,10.17,44.27s24.12,10.27,34.58-5.58C1551.62,447.58,1554.22,428.54,1540,416.5Z" style="fill:#ffc935;stroke:#000;stroke-miterlimit:10;stroke-width:8px"/><path d="M1553.21,388c-14.42-12-34.75-7.27-45.36,9.68-10.49,16.76-4.22,33.49,9.52,45.41s24.72,10.09,35.88-6.62C1564.55,419.58,1567.61,400,1553.21,388Z" style="fill:#ffc935;stroke:#000;stroke-miterlimit:10;stroke-width:8px"/><path d="M1567.28,359c-14.63-11.73-35.62-6.66-46.92,10.73-11.16,17.18-5.07,34.12,8.87,46.07s25.34,9.79,37.19-7.6C1578.42,390.63,1581.88,370.73,1567.28,359Z" style="fill:#ffc935;stroke:#000;stroke-miterlimit:10;stroke-width:8px"/><path d="M1582,330c-14.81-11.43-36.35-6.15-48.25,11.41-11.77,17.35-5.82,34.31,8.31,46.15s26,9.39,38.4-8.37C1593.07,361.23,1596.8,341.42,1582,330Z" style="fill:#ffc935;stroke:#000;stroke-miterlimit:10;stroke-width:8px"/><path d="M1597.13,301.44c-15-11.11-36.88-5.81-49.25,11.67-12.23,17.26-6.38,34,8,45.65s26.51,9,39.37-8.81C1608.23,332,1612.06,312.53,1597.13,301.44Z" style="fill:#ffc935;stroke:#000;stroke-miterlimit:10;stroke-width:8px"/><path d="M1612.35,273.63c-15-10.82-37.18-5.66-49.85,11.52-12.51,17-6.7,33.42,7.84,44.73s27,8.55,40-8.91C1623.56,303.3,1627.36,284.42,1612.35,273.63Z" style="fill:#ffc935;stroke:#000;stroke-miterlimit:10;stroke-width:8px"/><path d="M1627.43,246.68c-15.08-10.59-37.26-5.65-50,11.11-12.63,16.55-6.78,32.6,7.93,43.57s27.26,8.25,40.29-8.69C1638.8,275.52,1642.47,257.25,1627.43,246.68Z" style="fill:#ffc935;stroke:#000;stroke-miterlimit:10;stroke-width:8px"/><path d="M1642.23,220.53c-15.06-10.45-37.18-5.75-49.94,10.57-12.61,16.12-6.65,31.75,8.17,42.43s27.4,8.06,40.27-8.29C1653.76,248.69,1657.26,231,1642.23,220.53Z" style="fill:#ffc935;stroke:#000;stroke-miterlimit:10;stroke-width:8px"/><path d="M1656.71,195c-15-10.43-37-5.94-49.64,10.05-12.49,15.77-6.41,31.08,8.48,41.53s27.4,8,40-7.82C1668.36,222.7,1671.68,205.36,1656.71,195Z" style="fill:#ffc935;stroke:#000;stroke-miterlimit:10;stroke-width:8px"/><path d="M1670.91,169.54c-14.93-10.54-36.8-6.15-49.29,9.69-12.32,15.64-6.11,30.76,8.8,41.07s27.29,8,39.66-7.41C1682.61,197.27,1685.81,180.06,1670.91,169.54Z" style="fill:#ffc935;stroke:#000;stroke-miterlimit:10;stroke-width:8px"/><path d="M1508.54,608c-13-10-30.07-8.87-38.11,2.67s-1.45,24.35,11,33.92,21.81,8.86,30.3-2.09S1521.57,618,1508.54,608Z" style="fill:#ffc935;stroke:#000;stroke-miterlimit:10;stroke-width:8px"/><path d="M1517.71,588.31C1504.36,578,1487,579.2,1478.93,591s-1.32,24.88,11.39,34.67,22.14,9.15,30.74-2S1531,598.64,1517.71,588.31Z" style="fill:#ffc935;stroke:#000;stroke-miterlimit:10;stroke-width:8px"/><path d="M1527.19,567.78c-13.65-10.7-31.42-9.27-39.67,3s-1.33,25.69,11.62,35.76,22.56,9.43,31.38-2.06S1540.82,578.47,1527.19,567.78Z" style="fill:#ffc935;stroke:#000;stroke-miterlimit:10;stroke-width:8px"/><path d="M1537.15,546.19c-14-11.08-32.27-9.35-40.79,3.5s-1.49,26.75,11.73,37.13,23.06,9.69,32.21-2.32S1551.1,557.25,1537.15,546.19Z" style="fill:#ffc935;stroke:#000;stroke-miterlimit:10;stroke-width:8px"/><path d="M1547.73,523.31c-14.31-11.46-33.23-9.33-42.12,4.25s-1.79,28,11.72,38.75,23.63,9.93,33.2-2.77S1562,534.76,1547.73,523.31Z" style="fill:#ffc935;stroke:#000;stroke-miterlimit:10;stroke-width:8px"/><path d="M1559.05,499c-14.64-11.84-34.26-9.22-43.63,5.22-9.27,14.26-2.24,29.47,11.57,40.56s24.29,10.15,34.36-3.38C1571.54,527.69,1573.66,510.8,1559.05,499Z" style="fill:#ffc935;stroke:#000;stroke-miterlimit:10;stroke-width:8px"/><path d="M1571.24,473.11c-15-12.17-35.35-9-45.31,6.36-9.84,15.17-2.82,31,11.31,42.5s25,10.31,35.64-4.16C1583.67,503.16,1586.17,485.26,1571.24,473.11Z" style="fill:#ffc935;stroke:#000;stroke-miterlimit:10;stroke-width:8px"/><path d="M1584.34,445.74c-15.25-12.42-36.41-8.66-47,7.61-10.5,16.08-3.54,32.58,10.9,44.41s25.73,10.42,37-5.07C1596.67,477,1599.57,458.14,1584.34,445.74Z" style="fill:#ffc935;stroke:#000;stroke-miterlimit:10;stroke-width:8px"/><path d="M1598.36,417.1c-15.51-12.54-37.42-8.25-48.76,8.84-11.2,16.88-4.34,34,10.41,46.1s26.48,10.44,38.44-6C1610.56,449.32,1613.83,429.61,1598.36,417.1Z" style="fill:#ffc935;stroke:#000;stroke-miterlimit:10;stroke-width:8px"/><path d="M1613.14,387.64c-15.71-12.5-38.25-7.83-50.28,9.86-11.89,17.47-5.15,35,9.89,47.35s27.2,10.37,39.77-7C1625.24,420.35,1628.81,400.12,1613.14,387.64Z" style="fill:#ffc935;stroke:#000;stroke-miterlimit:10;stroke-width:8px"/><path d="M1628.41,358c-15.84-12.34-38.83-7.5-51.44,10.47-12.46,17.75-5.84,35.47,9.45,47.93s27.85,10.2,40.88-7.67C1640.5,390.63,1644.2,370.31,1628.41,358Z" style="fill:#ffc935;stroke:#000;stroke-miterlimit:10;stroke-width:8px"/><path d="M1643.81,328.74c-15.87-12.1-39.07-7.3-52.07,10.59-12.84,17.67-6.3,35.35,9.19,47.75s28.35,10,41.62-8C1656,360.85,1659.65,340.81,1643.81,328.74Z" style="fill:#ffc935;stroke:#000;stroke-miterlimit:10;stroke-width:8px"/><path d="M1659.07,300.3c-15.84-11.83-39-7.24-52.19,10.28-13,17.31-6.49,34.71,9.16,46.92s28.65,9.73,41.89-8C1671.34,331.6,1674.87,312.09,1659.07,300.3Z" style="fill:#ffc935;stroke:#000;stroke-miterlimit:10;stroke-width:8px"/><path d="M1674,272.83c-15.73-11.56-38.73-7.25-51.88,9.73-13,16.78-6.43,33.74,9.3,45.7s28.73,9.54,41.76-7.64C1686.36,303.23,1689.68,284.37,1674,272.83Z" style="fill:#ffc935;stroke:#000;stroke-miterlimit:10;stroke-width:8px"/><path d="M1688.47,246.33c-15.59-11.34-38.3-7.31-51.28,9.09-12.82,16.2-6.2,32.67,9.53,44.35s28.6,9.4,41.31-7.14C1700.91,275.89,1704,257.65,1688.47,246.33Z" style="fill:#ffc935;stroke:#000;stroke-miterlimit:10;stroke-width:8px"/><path d="M1702.55,220.6c-15.41-11.19-37.82-7.38-50.56,8.52-12.58,15.69-5.89,31.71,9.77,43.12s28.34,9.3,40.7-6.62C1715,249.5,1717.93,231.76,1702.55,220.6Z" style="fill:#ffc935;stroke:#000;stroke-miterlimit:10;stroke-width:8px"/><path d="M1716.33,195.27c-15.22-11.12-37.36-7.41-49.86,8.17-12.35,15.38-5.59,31,9.94,42.22s28,9.25,40-6.19C1728.68,223.84,1731.52,206.38,1716.33,195.27Z" style="fill:#ffc935;stroke:#000;stroke-miterlimit:10;stroke-width:8px"/><path d="M1549.45,632.78c-13.2-9.57-30.92-8.42-39.46,2.71s-2,23.56,10.57,32.84,22.13,8.53,31.18-2.19S1562.62,642.33,1549.45,632.78Z" style="fill:#ffc935;stroke:#000;stroke-miterlimit:10;stroke-width:8px"/><path d="M1559.59,613.78c-13.53-9.82-31.7-8.59-40.38,2.78s-2,24,10.9,33.42,22.55,8.71,31.8-2.14S1573.09,623.58,1559.59,613.78Z" style="fill:#ffc935;stroke:#000;stroke-miterlimit:10;stroke-width:8px"/><path d="M1570.15,594c-13.87-10.12-32.59-8.71-41.51,3.07s-2,24.71,11.11,34.34,23.07,8.92,32.62-2.24S1584,604.12,1570.15,594Z" style="fill:#ffc935;stroke:#000;stroke-miterlimit:10;stroke-width:8px"/><path d="M1581.27,573.25c-14.24-10.47-33.6-8.78-42.87,3.57s-2.22,25.72,11.24,35.6,23.66,9.11,33.59-2.52S1595.48,583.7,1581.27,573.25Z" style="fill:#ffc935;stroke:#000;stroke-miterlimit:10;stroke-width:8px"/><path d="M1593.05,551.23c-14.6-10.87-34.7-8.81-44.4,4.28s-2.55,27,11.25,37.17,24.34,9.31,34.73-3C1605.15,577.3,1607.63,562.07,1593.05,551.23Z" style="fill:#ffc935;stroke:#000;stroke-miterlimit:10;stroke-width:8px"/><path d="M1605.6,527.75c-15-11.29-35.85-8.78-46.09,5.18-10.11,13.8-3,28.48,11.17,39s25.07,9.5,36-3.57S1620.54,539,1605.6,527.75Z" style="fill:#ffc935;stroke:#000;stroke-miterlimit:10;stroke-width:8px"/><path d="M1619,502.67c-15.32-11.73-37-8.71-47.86,6.23-10.72,14.77-3.55,30.18,11,41.11s25.85,9.69,37.36-4.3C1631.11,531.55,1634.26,514.37,1619,502.67Z" style="fill:#ffc935;stroke:#000;stroke-miterlimit:10;stroke-width:8px"/><path d="M1633.17,476a34.85,34.85,0,0,0-49.62,7.36c-11.37,15.78-4.19,32,10.71,43.31s26.65,9.87,38.76-5.14C1645.27,506.31,1648.76,488.08,1633.17,476Z" style="fill:#ffc935;stroke:#000;stroke-miterlimit:10;stroke-width:8px"/><path d="M1648.09,447.77c-15.85-12.51-39-8.51-51.22,8.44-12,16.74-4.87,33.68,10.39,45.46s27.41,10,40.08-6C1660.16,479.45,1663.91,460.25,1648.09,447.77Z" style="fill:#ffc935;stroke:#000;stroke-miterlimit:10;stroke-width:8px"/><path d="M1663.5,418.48c-16-12.76-39.68-8.45-52.46,9.28-12.64,17.51-5.52,35.13,10.06,47.32s28.12,10.17,41.22-6.78C1675.58,451.14,1679.46,431.21,1663.5,418.48Z" style="fill:#ffc935;stroke:#000;stroke-miterlimit:10;stroke-width:8px"/><path d="M1679.06,388.72c-16-12.85-39.94-8.47-53.17,9.68-13.07,17.94-6,36.06,9.84,48.59s28.68,10.29,42-7.32C1691.23,421.84,1695.07,401.56,1679.06,388.72Z" style="fill:#ffc935;stroke:#000;stroke-miterlimit:10;stroke-width:8px"/><path d="M1694.42,359.16c-16-12.81-39.83-8.58-53.26,9.58-13.26,17.94-6.22,36.26,9.8,49s29,10.4,42.31-7.48C1706.74,392.17,1710.39,371.94,1694.42,359.16Z" style="fill:#ffc935;stroke:#000;stroke-miterlimit:10;stroke-width:8px"/><path d="M1709.35,330.27c-15.9-12.66-39.44-8.7-52.82,9.1-13.21,17.58-6.15,35.8,9.94,48.62s29.09,10.48,42.15-7.26C1721.83,362.77,1725.21,342.9,1709.35,330.27Z" style="fill:#ffc935;stroke:#000;stroke-miterlimit:10;stroke-width:8px"/><path d="M1723.75,302.31c-15.74-12.44-38.89-8.81-52,8.41-13,17-5.88,34.89,10.2,47.63s28.94,10.54,41.62-6.77C1736.36,334.05,1739.45,314.73,1723.75,302.31Z" style="fill:#ffc935;stroke:#000;stroke-miterlimit:10;stroke-width:8px"/><path d="M1737.61,275.33c-15.54-12.21-38.25-8.87-51.08,7.7-12.66,16.36-5.52,33.77,10.47,46.34s28.64,10.54,40.89-6.18C1750.3,306.25,1753.13,287.51,1737.61,275.33Z" style="fill:#ffc935;stroke:#000;stroke-miterlimit:10;stroke-width:8px"/><path d="M1751,249.18c-15.35-12-37.64-8.86-50.13,7.11-12.33,15.77-5.14,32.68,10.69,45s28.23,10.51,40.09-5.62C1763.7,279.37,1766.35,261.15,1751,249.18Z" style="fill:#ffc935;stroke:#000;stroke-miterlimit:10;stroke-width:8px"/><path d="M1764.2,223.58c-15.15-11.82-37.12-8.76-49.31,6.78-12,15.34-4.85,31.79,10.8,43.9s27.78,10.44,39.33-5.19C1776.72,253.25,1779.31,235.37,1764.2,223.58Z" style="fill:#ffc935;stroke:#000;stroke-miterlimit:10;stroke-width:8px"/><path d="M1594.28,655.05c-13.1-9-31.44-7.66-40.64,3.22s-2.85,22.93,9.7,31.92,22.29,8.1,31.94-2.6S1607.36,664.06,1594.28,655.05Z" style="fill:#ffc935;stroke:#000;stroke-miterlimit:10;stroke-width:8px"/><path d="M1605.55,636.45c-13.4-9.17-32.26-7.68-41.69,3.4s-2.92,23.24,9.89,32.25,22.75,8.15,32.65-2.64S1618.92,645.61,1605.55,636.45Z" style="fill:#ffc935;stroke:#000;stroke-miterlimit:10;stroke-width:8px"/><path d="M1617.33,617.18c-13.7-9.38-33.17-7.67-42.93,3.79s-3.11,23.84,10,32.95,23.27,8.2,33.52-2.85S1631,626.54,1617.33,617.18Z" style="fill:#ffc935;stroke:#000;stroke-miterlimit:10;stroke-width:8px"/><path d="M1629.73,597c-14-9.65-34.15-7.64-44.33,4.37s-3.41,24.74,10,34,23.85,8.27,34.52-3.21S1643.7,606.61,1629.73,597Z" style="fill:#ffc935;stroke:#000;stroke-miterlimit:10;stroke-width:8px"/><path d="M1642.82,575.61c-14.29-10-35.17-7.59-45.84,5.12s-3.82,25.92,9.89,35.4,24.49,8.36,35.63-3.72S1657.08,585.57,1642.82,575.61Z" style="fill:#ffc935;stroke:#000;stroke-miterlimit:10;stroke-width:8px"/><path d="M1656.65,552.85c-14.55-10.37-36.18-7.54-47.41,6-11.11,13.42-4.32,27.36,9.71,37.12s25.15,8.45,36.8-4.36S1671.17,563.2,1656.65,552.85Z" style="fill:#ffc935;stroke:#000;stroke-miterlimit:10;stroke-width:8px"/><path d="M1671.2,528.56c-14.77-10.81-37.11-7.51-49,7.05-11.7,14.38-4.89,29,9.46,39.12s25.81,8.57,38-5.1C1682,555.79,1685.94,539.36,1671.2,528.56Z" style="fill:#ffc935;stroke:#000;stroke-miterlimit:10;stroke-width:8px"/><path d="M1686.38,502.7c-14.94-11.3-37.89-7.55-50.33,8.05-12.3,15.41-5.47,30.84,9.16,41.32s26.45,8.73,39.09-5.89C1697.09,531.39,1701.28,514,1686.38,502.7Z" style="fill:#ffc935;stroke:#000;stroke-miterlimit:10;stroke-width:8px"/><path d="M1702,475.36c-15-11.79-38.42-7.69-51.4,8.92-12.82,16.42-6,32.68,8.88,43.6s27,8.92,40-6.64C1712.65,505.49,1717,487.12,1702,475.36Z" style="fill:#ffc935;stroke:#000;stroke-miterlimit:10;stroke-width:8px"/><path d="M1717.73,446.87c-15.07-12.24-38.63-8-52,9.49-13.2,17.26-6.41,34.33,8.69,45.73s27.43,9.18,40.65-7.25C1728.44,478.22,1732.77,459.09,1717.73,446.87Z" style="fill:#ffc935;stroke:#000;stroke-miterlimit:10;stroke-width:8px"/><path d="M1733.26,417.74c-15.07-12.59-38.53-8.4-52,9.6-13.35,17.78-6.57,35.56,8.66,47.44s27.69,9.5,40.9-7.57C1744.14,449.93,1748.29,430.31,1733.26,417.74Z" style="fill:#ffc935;stroke:#000;stroke-miterlimit:10;stroke-width:8px"/><path d="M1748.31,388.55c-15-12.79-38.19-8.86-51.59,9.24-13.24,17.88-6.43,36.14,8.87,48.46s27.75,9.89,40.73-7.52C1759.46,421.11,1763.31,401.32,1748.31,388.55Z" style="fill:#ffc935;stroke:#000;stroke-miterlimit:10;stroke-width:8px"/><path d="M1762.74,359.77c-15-12.85-37.71-9.27-50.81,8.56-12.94,17.6-6,36,9.26,48.69s27.64,10.29,40.24-7.13C1774.18,392.26,1777.66,372.6,1762.74,359.77Z" style="fill:#ffc935;stroke:#000;stroke-miterlimit:10;stroke-width:8px"/><path d="M1776.52,331.7c-14.87-12.79-37.16-9.58-49.86,7.73-12.54,17.1-5.55,35.4,9.73,48.25s27.41,10.63,39.54-6.52C1788.22,363.8,1791.35,344.47,1776.52,331.7Z" style="fill:#ffc935;stroke:#000;stroke-miterlimit:10;stroke-width:8px"/><path d="M1789.73,304.44c-14.77-12.65-36.62-9.75-48.9,6.95-12.12,16.48-5,34.47,10.17,47.35s27.1,10.88,38.79-5.84C1801.62,336,1804.46,317.06,1789.73,304.44Z" style="fill:#ffc935;stroke:#000;stroke-miterlimit:10;stroke-width:8px"/><path d="M1802.54,277.91c-14.67-12.47-36.16-9.77-48.07,6.35-11.75,15.91-4.59,33.47,10.5,46.27s26.77,11,38.08-5.22C1814.51,308.86,1817.17,290.35,1802.54,277.91Z" style="fill:#ffc935;stroke:#000;stroke-miterlimit:10;stroke-width:8px"/><path d="M1815.2,251.86c-14.57-12.28-35.86-9.61-47.5,6.06-11.49,15.47-4.31,32.61,10.66,45.25s26.45,11,37.53-4.79C1827.11,282.35,1829.75,264.12,1815.2,251.86Z" style="fill:#ffc935;stroke:#000;stroke-miterlimit:10;stroke-width:8px"/><path d="M1638.12,675.52c-12.78-8.6-31.46-6.86-41.27,4s-3.8,22.66,8.59,31.46,22.25,7.78,32.35-3.13S1650.88,684.09,1638.12,675.52Z" style="fill:#ffc935;stroke:#000;stroke-miterlimit:10;stroke-width:8px"/><path d="M1650.33,657c-13-8.62-32.17-6.7-42.28,4.29s-4,22.79,8.61,31.48,22.63,7.64,33-3.29S1663.28,665.61,1650.33,657Z" style="fill:#ffc935;stroke:#000;stroke-miterlimit:10;stroke-width:8px"/><path d="M1663.08,637.94c-13.17-8.72-32.92-6.54-43.4,4.78s-4.31,23.24,8.51,31.9,23.07,7.54,33.82-3.59S1676.23,646.64,1663.08,637.94Z" style="fill:#ffc935;stroke:#000;stroke-miterlimit:10;stroke-width:8px"/><path d="M1676.44,618.05c-13.35-8.88-33.68-6.37-44.61,5.46s-4.7,24,8.34,32.68,23.53,7.46,34.68-4S1689.76,626.92,1676.44,618.05Z" style="fill:#ffc935;stroke:#000;stroke-miterlimit:10;stroke-width:8px"/><path d="M1690.45,597.13c-13.49-9.14-34.42-6.22-45.85,6.26s-5.18,25,8.07,33.82,24,7.41,35.59-4.61S1703.92,606.24,1690.45,597.13Z" style="fill:#ffc935;stroke:#000;stroke-miterlimit:10;stroke-width:8px"/><path d="M1705.09,575c-13.6-9.46-35.08-6.11-47,7.18-11.82,13.13-5.72,26.3,7.74,35.28s24.47,7.4,36.48-5.27S1718.66,584.41,1705.09,575Z" style="fill:#ffc935;stroke:#000;stroke-miterlimit:10;stroke-width:8px"/><path d="M1720.28,551.44c-13.66-9.85-35.61-6.08-48.08,8.12s-6.28,27.82,7.36,37.05,24.9,7.44,37.3-6C1729.41,577,1733.91,561.28,1720.28,551.44Z" style="fill:#ffc935;stroke:#000;stroke-miterlimit:10;stroke-width:8px"/><path d="M1735.87,526.51c-13.67-10.32-35.94-6.18-48.87,9-12.79,15-6.79,29.49,7,39s25.26,7.54,38-6.71C1744.84,553.43,1749.52,536.82,1735.87,526.51Z" style="fill:#ffc935;stroke:#000;stroke-miterlimit:10;stroke-width:8px"/><path d="M1751.65,500.27c-13.66-10.84-36.05-6.46-49.32,9.67-13.11,15.94-7.19,31.22,6.69,41.18s25.51,7.72,38.44-7.34C1760.54,528.53,1765.28,511.09,1751.65,500.27Z" style="fill:#ffc935;stroke:#000;stroke-miterlimit:10;stroke-width:8px"/><path d="M1767.33,473c-13.62-11.36-35.94-6.92-49.35,10-13.25,16.74-7.38,32.83,6.54,43.26s25.65,8,38.62-7.8C1776.26,502.45,1780.92,484.29,1767.33,473Z" style="fill:#ffc935;stroke:#000;stroke-miterlimit:10;stroke-width:8px"/><path d="M1782.64,444.94c-13.59-11.82-35.65-7.52-49,10-13.16,17.27-7.31,34.13,6.62,45.07s25.65,8.42,38.49-8C1791.76,475.42,1796.21,456.74,1782.64,444.94Z" style="fill:#ffc935;stroke:#000;stroke-miterlimit:10;stroke-width:8px"/><path d="M1797.39,416.66c-13.58-12.19-35.28-8.2-48.31,9.51-12.88,17.48-7,34.95,6.94,46.41s25.53,8.92,38.09-7.83C1806.81,447.8,1811,428.82,1797.39,416.66Z" style="fill:#ffc935;stroke:#000;stroke-miterlimit:10;stroke-width:8px"/><path d="M1811.48,388.5c-13.59-12.43-34.88-8.82-47.49,8.76-12.46,17.37-6.41,35.23,7.46,47.15s25.35,9.47,37.51-7.39C1821.27,419.94,1825.05,400.9,1811.48,388.5Z" style="fill:#ffc935;stroke:#000;stroke-miterlimit:10;stroke-width:8px"/><path d="M1824.94,360.74c-13.62-12.54-34.53-9.32-46.67,7.91-12,17-5.78,35,8.08,47.29s25.14,10,36.87-6.78C1835.1,392.19,1838.53,373.24,1824.94,360.74Z" style="fill:#ffc935;stroke:#000;stroke-miterlimit:10;stroke-width:8px"/><path d="M1837.9,333.5c-13.67-12.54-34.29-9.64-46,7.11-11.56,16.54-5.17,34.46,8.68,47s24.94,10.42,36.29-6.1C1848.38,364.75,1851.54,346,1837.9,333.5Z" style="fill:#ffc935;stroke:#000;stroke-miterlimit:10;stroke-width:8px"/><path d="M1850.58,306.76c-13.74-12.46-34.2-9.75-45.58,6.52-11.22,16.06-4.68,33.76,9.17,46.37s24.8,10.72,35.88-5.5C1861.27,337.72,1864.28,319.2,1850.58,306.76Z" style="fill:#ffc935;stroke:#000;stroke-miterlimit:10;stroke-width:8px"/><path d="M1863.29,280.33c-13.84-12.34-34.34-9.65-45.54,6.26-11,15.7-4.41,33.1,9.46,45.7s24.73,10.88,35.71-5.08C1874,311,1877.09,292.64,1863.29,280.33Z" style="fill:#ffc935;stroke:#000;stroke-miterlimit:10;stroke-width:8px"/><path d="M1435.54,432.38c20.86-4.28,47.19,16.48,48,20.3s-15.24,33.26-36.11,37.54-35.75-4-39.44-22.05S1414.68,436.66,1435.54,432.38Z" style="fill:#ffc935;stroke:#231f20;stroke-miterlimit:10;stroke-width:9.600000381469727px"/><path d="M1479.27,453.55c.06.77-1.27,4.42-4.69,9.57a53,53,0,0,1-12.77,13.65c-10.28,2-17.83-3.78-20.23-15.49s2.27-20,12.5-22.2a53.21,53.21,0,0,1,17.12,7.51C1476.36,450,1479,452.82,1479.27,453.55Z" style="fill:#fff6dd"/><path d="M1538.22,474.16c12.84,17,5.41,49.68,2.3,52s-36.59.54-49.42-16.45-11.72-34,3-45.09S1525.39,457.16,1538.22,474.16Z" style="fill:#ffc935;stroke:#231f20;stroke-miterlimit:10;stroke-width:9.600000381469727px"/><path d="M1537.91,522.74c-.66.38-4.54.75-10.65-.12a52.94,52.94,0,0,1-17.82-5.66c-6.22-8.42-4.25-17.72,5.29-24.93s19-6.55,25.42,1.74a53.2,53.2,0,0,1,.57,18.69C1539.88,518.58,1538.46,522.2,1537.91,522.74Z" style="fill:#fff6dd"/><path d="M1547.75,558.09c-6.74,20.2-37.89,32.59-41.59,31.36s-21.16-29.86-14.42-50.06,21.41-28.92,38.84-23.1S1554.49,537.89,1547.75,558.09Z" style="fill:#ffc935;stroke:#231f20;stroke-miterlimit:10;stroke-width:9.600000381469727px"/><path d="M1507.53,585.34c-.69-.33-3.19-3.32-5.94-8.85a52.79,52.79,0,0,1-5.41-17.89c3.41-9.89,12.19-13.54,23.53-9.75s16.17,12,13,21.93a53.12,53.12,0,0,1-15.08,11.06C1512.07,584.6,1508.28,585.49,1507.53,585.34Z" style="fill:#fff6dd"/><path d="M1611.35,445.38c5.53,20.57-13.6,48.1-17.37,49.11s-34.12-13.21-39.65-33.78,1.88-35.93,19.63-40.7S1605.82,424.82,1611.35,445.38Z" style="fill:#ffc935;stroke:#231f20;stroke-miterlimit:10;stroke-width:9.600000381469727px"/><path d="M1592.86,490.31c-.76.1-4.5-1-9.84-4.1a53,53,0,0,1-14.39-11.93c-2.62-10.13,2.69-18,14.24-21.13s20.09,1.06,22.91,11.14a53.15,53.15,0,0,1-6.47,17.54C1596.24,487.19,1593.57,490,1592.86,490.31Z" style="fill:#fff6dd"/><path d="M1491.84,429.77c15.69-14.4,48.94-10.15,51.58-7.27s4,36.36-11.65,50.77-32.73,14.92-45.16,1.38S1476.15,444.17,1491.84,429.77Z" style="fill:#ffc935;stroke:#231f20;stroke-miterlimit:10;stroke-width:9.600000381469727px"/><path d="M1540.23,425.43c.44.62,1.18,4.44.91,10.61-.18,3.92-.92,11.48-3.94,18.28-7.78,7-17.23,5.93-25.31-2.87s-8.34-18.32-.71-25.47a53,53,0,0,1,18.55-2.36C1535.9,423.87,1539.64,424.93,1540.23,425.43Z" style="fill:#fff6dd"/><path d="M1502.22,331.9c18.39,10.72,24.16,43.75,22.19,47.12s-33.54,14.61-51.94,3.88-23.94-26.86-14.68-42.74S1483.82,321.17,1502.22,331.9Z" style="fill:#ffc935;stroke:#231f20;stroke-miterlimit:10;stroke-width:9.600000381469727px"/><path d="M1520.67,376.84c-.46.61-3.9,2.44-9.87,4-3.8,1-11.23,2.52-18.62,1.65-9-5.37-10.77-14.71-4.74-25s15-13.38,24.12-8.2a53.18,53.18,0,0,1,7.74,17C1520.88,372.24,1521,376.13,1520.67,376.84Z" style="fill:#fff6dd"/><path d="M1569,385.31c-1.41,21.25-28.41,41.12-32.3,40.86s-28-23.52-26.62-44.77,13.38-33.4,31.72-32.18S1570.42,364.06,1569,385.31Z" style="fill:#ffc935;stroke:#231f20;stroke-miterlimit:10;stroke-width:9.600000381469727px"/><path d="M1537,421.85c-.75-.14-3.92-2.4-8-7.05a53.09,53.09,0,0,1-9.77-15.94c.8-10.44,8.37-16.19,20.3-15.4s18.68,7.49,18.09,17.94a53.1,53.1,0,0,1-11.79,14.51C1541.2,420,1537.76,421.81,1537,421.85Z" style="fill:#fff6dd"/><path d="M1576.23,315.54c20.79-4.63,47.46,15.69,48.31,19.5s-14.69,33.51-35.48,38.14-35.81-3.45-39.8-21.39S1555.45,320.17,1576.23,315.54Z" style="fill:#ffc935;stroke:#231f20;stroke-miterlimit:10;stroke-width:9.600000381469727px"/><path d="M1620.31,336c.07.76-1.2,4.44-4.52,9.65a53,53,0,0,1-12.55,13.85c-10.24,2.17-17.89-3.47-20.49-15.14s1.94-20,12.13-22.41a53,53,0,0,1,17.24,7.23C1617.34,332.46,1620.05,335.25,1620.31,336Z" style="fill:#fff6dd"/><path d="M1661.67,269.44c-3.55,21-32.43,38-36.27,37.38s-25.5-26.25-21.94-47.24,16.7-31.87,34.82-28.8S1665.23,248.44,1661.67,269.44Z" style="fill:#ffc935;stroke:#231f20;stroke-miterlimit:10;stroke-width:9.600000381469727px"/><path d="M1626.12,302.55c-.73-.22-3.66-2.79-7.23-7.83a53,53,0,0,1-8.1-16.85c1.85-10.3,10-15.25,21.76-13.26s17.82,9.35,16.17,19.69a53.2,53.2,0,0,1-13.19,13.24C1630.5,301.12,1626.89,302.58,1626.12,302.55Z" style="fill:#fff6dd"/><path d="M1564.92,265.1c10,18.79-2.4,49.92-5.84,51.76s-36.23-5.17-46.26-24-6.27-35.43,9.94-44.08S1554.89,246.31,1564.92,265.1Z" style="fill:#ffc935;stroke:#231f20;stroke-miterlimit:10;stroke-width:9.600000381469727px"/><path d="M1557,313c-.72.27-4.61,0-10.51-1.77a53.11,53.11,0,0,1-16.71-8.38c-4.84-9.28-1.45-18.17,9.1-23.79s19.82-3.51,24.84,5.67a52.93,52.93,0,0,1-2.35,18.55C1559.63,309.23,1557.66,312.6,1557,313Z" style="fill:#fff6dd"/></g><path id="path900-7" data-name="path900" d="M1576.33,676.68,1286.09,495.76l-.44-.27c21.82,13.6,99.77-57.47,166-163.78s95.53-207.1,73.65-220.74l290.24,180.92.44.27c21.88,13.64,2.48,120.59-63.78,226.89s-154.07,171.23-175.9,157.63Z" style="fill:none;stroke:#000;stroke-linecap:round;stroke-linejoin:round;stroke-width:8px"/><path id="path900-8" data-name="path900" d="M1420.47,30.71c-9.14-11.79-91.32,31-180.7,100.31s-151.71,138.49-142.59,150.25,92.9-28.95,182.27-98.22S1429.6,42.51,1420.47,30.71Z" style="fill:#6d6e70;stroke:#000;stroke-linecap:round;stroke-linejoin:round;stroke-width:8px"/><g id="layer3"><path id="path916" d="M267,1052.72,81.44,1073.34c-72.52,8.06-73,119.26-7.93,142.73L267,1285.86Zm1184.19,0,185.56,20.62c72.52,8.06,73,119.26,7.93,142.73l-193.49,69.79Zm0-178v926.12a170,170,0,0,1-170.37,170.37H437.37A170,170,0,0,1,267,1800.86V874.74Z" style="fill:#fff;stroke:#231f20;stroke-linecap:round;stroke-linejoin:round;stroke-width:24px"/></g><path d="M851.43,797.23V655.69c0-288.13,271.9-318.88,271.9-318.88" style="fill:none;stroke:#231f20;stroke-linecap:round;stroke-linejoin:round;stroke-width:24px"/><polyline points="974.43 660.95 851.43 805.92 728.43 660.95" style="fill:none;stroke:#231f20;stroke-linecap:round;stroke-linejoin:round;stroke-width:24px"/></g></svg>