<svg xmlns="http://www.w3.org/2000/svg" viewBox="0 0 2000 2000"><g id="Layer_1" data-name="Layer 1"><path d="M761.18,1954c290,0,495.8-58,573-176.17,91.19-217.31,116.57-202.74,116.57-202.74,0-167.92-308.72-304-689.56-304s-689.55,136.12-689.55,304c0,0,25.38-14.57,122.92,202.74C271.74,1896,471.19,1954,761.18,1954Z" style="fill:#fff;stroke:#231f20;stroke-miterlimit:10;stroke-width:24px"/><ellipse cx="761.19" cy="1529.79" rx="726.17" ry="299.1" style="fill:#fff;stroke:#231f20;stroke-miterlimit:10;stroke-width:24px"/><path d="M1402.34,1511.9c0,133-287,240.82-641.15,240.82S120,1644.91,120,1511.9" style="fill:#fff;stroke:#231f20;stroke-linecap:round;stroke-miterlimit:10;stroke-width:24px"/><path d="M1402.34,1511.9c0-133-287-240.82-641.15-240.82S120,1378.9,120,1511.9" style="fill:#fff;stroke:#231f20;stroke-linecap:round;stroke-miterlimit:10;stroke-width:24px"/><path d="M1228.75,1511.67c-122.91-51.56-287.14-83.07-467.56-83.07-188.38,0-359.11,34.35-483.58,90" style="fill:#fff;stroke:#231f20;stroke-linecap:round;stroke-miterlimit:10;stroke-width:12px"/></g><g id="Isolation_Mode" data-name="Isolation Mode"><path d="M1687.35,838.09c145.59-246.81,185.21-614.07-113.1-790C1504,6.6,1297.68,208.75,1122.86,505.1l-.49.83c-174.81,296.36-251.94,574.7-181.68,616.15,298.31,176,600.58-36.35,746.17-283.16" style="fill:#fff;stroke:#231f20;stroke-miterlimit:10;stroke-width:24px"/><path d="M1539.84,691.11q14-1.58,28.34,6.89,19.8,11.68,23,33.18t-11.48,46.31a99.18,99.18,0,0,1-20.39,24.63,76,76,0,0,1-25.28,15q-7.31,2.45-13.17-1a14.58,14.58,0,0,1-6.56-7.53,9.31,9.31,0,0,1,.42-8.4,11.07,11.07,0,0,1,3.07-3.47q1.79-1.29,5.32-3.31a108.68,108.68,0,0,0,19.62-11.89,56.4,56.4,0,0,0,13.92-16.13q8.48-14.36,6.81-24.72T1550,723.35q-11.52-6.81-21.37-2.79T1509.8,739.8l-7.32,12.41c-2,3.33-4.61,5.25-7.93,5.73a13.81,13.81,0,0,1-9.32-1.84,13.67,13.67,0,0,1-6.23-7.34q-1.66-4.63,1.29-9.64l5.13-8.71q17.58-29.8-4.82-43-10.44-6.17-19.82-3.19t-15.93,14.07q-9.36,15.88-7.4,41.38a59.67,59.67,0,0,1-.32,6.26,11.18,11.18,0,0,1-1.55,4.37,9.34,9.34,0,0,1-7.16,4.43,14.6,14.6,0,0,1-9.76-2.09,13.88,13.88,0,0,1-4.84-4.47,20.72,20.72,0,0,1-2.43-6.57,81.22,81.22,0,0,1,.82-29A91,91,0,0,1,1423.09,684q13.34-22.62,32.33-29.46t37.48,4.08q12.49,7.67,18.17,19.66a42.63,42.63,0,0,1,3.23,26.1Q1525.87,692.69,1539.84,691.11Z" style="fill:#231f20"/><path d="M1549.68,80.37c33.67,19.86-49,274-212.47,551.14l-.52.88c-163.5,277.17-345.93,472.42-379.6,452.56" style="fill:none;stroke:#231f20;stroke-linecap:round;stroke-miterlimit:10;stroke-width:24px"/><path d="M662.47,1124.45v-113.6c0-231.24,218.23-255.93,218.23-255.93" style="fill:none;stroke:#231f20;stroke-linecap:round;stroke-linejoin:round;stroke-width:24px"/><polyline points="761.19 1015.08 662.47 1131.43 563.75 1015.08" style="fill:none;stroke:#231f20;stroke-linecap:round;stroke-linejoin:round;stroke-width:24px"/></g></svg>