<svg xmlns="http://www.w3.org/2000/svg" xmlns:xlink="http://www.w3.org/1999/xlink" height="1923.953" width="1706.763" xmlns:v="https://vecta.io/nano"><style><![CDATA[.B{stroke-linejoin:round}.C{stroke-linecap:round}.D{fill:#ca3d27}.E{stroke-width:17.435}.F{stroke-width:8.718}.G{stroke-miterlimit:10}]]></style><use xlink:href="#B" fill="#9ca0aa"/><use xlink:href="#B" fill="#939598"/><path d="M1373.96 737.503L998.7 580.943c28.17 11.76 105.87-86.45 163.13-223.7s72.22-260.94 44-272.73l375.28 156.56c28.24 11.8 26 140.8-31.24 278s-147.72 230.18-175.9 218.42z" fill="#fff"/><use xlink:href="#B" fill="none" stroke="#010101" class="B E"/><path d="M1109.24 44.243c28.24 11.78 13.28 135.48-44 272.72s-135 235.45-163.13 223.7-18.27-137.52 39-274.76 139.85-233.45 168.13-221.66z" fill="#939598"/><g stroke="#010101"><g class="B E"><path d="M902.14 540.663c-28.18-11.76-18.27-137.52 39-274.76s139.82-233.45 168.1-221.66" fill="none" class="C"/><path d="M961.96 355.513l-.4.07c-435.3 381-371.35 806.87-371.35 806.87l231.3-7.18s-43-456 72.67-622.7c1.23 5.88 26.4-2.68 28.16 3.8 35.93-21.5 96.24-107.45 143-219.42 7.82-18.75 14.86-37.26 21.1-55.25 6.74-19.65-72.9 50.76-124.48 93.8z" class="D"/><path d="M1075.13 13.123c-11.93-11.1-103.8 61.23-201.4 166.12s-163.48 202.2-151.6 213.26 105.9-59.25 203.48-164.15 161.44-204.18 149.5-215.23z" fill="#6d6e71"/><path d="M1109.24 44.243c28.24 11.78 13.28 135.48-44 272.72s-135 235.45-163.13 223.7" fill="none" class="C"/></g><path d="M1419.43 350.123c-15.85-18-31-23.3-37.3-25.88-74.87-30.66-130.9-7.2-151.82 62.13-6.28 21.34.5 28.3 2.1 39.38-7 4.37-25 21.68-32.2 34.07-35 68.15-11 124 63.18 154.33 66.35 27.18 142.52-5 179.73-95.86 8.72-21.3 15.3-39.9 15.38-60.83.15-42.16-10.55-75.02-39.08-107.34z" class="D F"/></g><path d="M1219.7 509.303c-5.8 2 7 32.2 29.52 59 10.52 14.47 47.53-8.58 22.94-20.6-27.73-13.77-41.48-42.3-52.46-38.4z" fill="#fff"/><path d="M1224.56 424.233s-27.85 11.32-40.8 9.9c4 2.1 19.22 7.4 33 4.34 0 0-12.25 34.64-9.15 41.23 0 0 18-29.85 17.1-39.42 0 0 26.23 15.1 37.54 13.44 0 0-17.74-25.16-25-26.22 0 0 25.46-32.62 26.63-43.74-6.16.86-28.2 22.8-31.7 32.48-.32-12.6-11.34-25.44-11.34-25.44l3.7 33.44z" fill="#0da54a"/><g stroke="#050507" class="B D F"><path d="M1398.9 349.123l17.77-43.38 43.38 17.77-17.77 43.38z"/><path d="M1416.66 305.753l-3.7-28.73 43.38 17.77 3.74 28.73z"/><path d="M1395.15 320.413l17.8-43.4 3.74 28.73-17.8 43.37zm49.75 20.37l17.77-43.38 43.38 17.77-17.77 43.38z"/><path d="M1462.67 297.403l-3.7-28.73 43.38 17.77 3.74 28.73z"/><path d="M1441.16 312.053l17.8-43.38 3.74 28.73-17.77 43.38zm-10.32 120.6l17.77-43.38 43.35 17.77-17.77 43.38z"/><path d="M1448.6 389.273l-3.73-28.73 43.38 17.77 3.74 28.73z"/><path d="M1427.1 403.923l17.77-43.38 3.73 28.73-17.77 43.38z"/></g><g fill="#fff" stroke="#231f20" stroke-width="24"><g class="G"><path d="M1327.47 1022.393v787.37a102 102 0 0 1-102.2 102.19H222.84a102 102 0 0 1-102.2-102.19v-787.37z"/><path d="M77.05 1022.123a64.9 64.9 0 0 0-65.05 65v59.76a64.91 64.91 0 0 0 65.05 65h43.6v-189.5h35.52l-5.3-.26zm1294 0a64.91 64.91 0 0 1 65.05 65v59.77a64.91 64.91 0 0 1-65.05 65h-43.6v-189.5h-35.5l5.3-.26z"/></g><circle r="163.38" cy="1344.443" cx="724.05"/></g><path d="M724.05 1344.443v-110.45" fill="none" stroke="#231f20" stroke-width="24" class="C G"/><defs ><path id="B" d="M1469.96 777.553l-567.82-236.9c143.1-148.87 202.34-299.54 207.1-496.42l567.83 236.88c28.25 11.8 26 140.8-31.24 278s-147.68 230.2-175.87 218.43z"/></defs></svg>