<svg xmlns="http://www.w3.org/2000/svg" xmlns:xlink="http://www.w3.org/1999/xlink" height="1559.95" width="1924" xmlns:v="https://vecta.io/nano"><style><![CDATA[.B{fill:#fff}.C{fill:none}.D{stroke:#231f20}.E{stroke-width:24}.F{stroke-miterlimit:10}.G{stroke-linecap:round}.H{stroke-width:8.04}]]></style><path d="M1238.75 700.48c301 0 654.5-160.17 654.5-524 0-85.7-293-164.48-654.5-164.48h-1c-361.47 0-654.5 78.78-654.5 164.48 0 363.86 353.46 524 654.5 524" class="B D E F"/><path d="M1219.12 542.77h67.64q10.1 0 15.42 4.14a13.56 13.56 0 0 1 5.31 11.28 15 15 0 0 1-4.21 10.75q-4.2 4.4-12.76 4.4h-95.37q-9.7 0-15.15-5.38a17.19 17.19 0 0 1-5.45-12.63q0-4.66 3.5-12.38a44.18 44.18 0 0 1 7.65-12.11q17.22-17.88 31.1-30.65 13.87-12.77 19.83-16.77a114.72 114.72 0 0 0 17.68-15.1 60.17 60.17 0 0 0 10.76-15.55 37 37 0 0 0 3.69-15.61 28.2 28.2 0 0 0-4-14.84 27.42 27.42 0 0 0-10.75-10.17 31.11 31.11 0 0 0-14.83-3.62q-17 0-26.7 14.9-1.3 1.93-4.34 10.62-3.04 8.7-6.87 13.35-3.82 4.66-11.2 4.66a14.54 14.54 0 0 1-10.75-4.28q-4.27-4.28-4.28-11.66a48.68 48.68 0 0 1 4-18.65 53.41 53.41 0 0 1 12-17.63 59.51 59.51 0 0 1 20.26-12.76q12.24-4.86 28.7-4.86 19.82 0 33.8 6.22a51.06 51.06 0 0 1 15.94 11.4 53.5 53.5 0 0 1 14.51 36.54 55.33 55.33 0 0 1-8 29.22q-8 13.15-16.26 20.6-8.26 7.45-27.8 23.4-19.5 15.93-26.76 24.75a74 74 0 0 0-6.32 8.42z" fill="#231f20"/><path d="M1850.9 171.47c0 41.07-274.05 101.92-612.1 101.92h-1.08c-338.06 0-612.1-60.85-612.1-101.92" class="C D E F G"/><path d="M181.9 1435.9c12.18-82.2 67.37-409.46 360.38-495.65l-84.3 113.2c-127.2 71.14-151.36 337.06-141.75 382.46" class="B"/><path d="M458 1053.43c-127.2 71.14-151.36 337.06-141.75 382.46m-134.35.01c12.18-82.2 67.37-409.46 360.38-495.65" stroke-linejoin="round" class="C D G H"/><path d="M563 737.35l-134.18 348.2c110.26 55 266.9 7.4 307.9-99.52 35.93-93.7-7.6-200.12-98.26-255.5A1263.77 1263.77 0 0 1 516 644.68l-353.3-277.4a14.12 14.12 0 0 1-1.67-1.61 23.1 23.1 0 0 0-2.62-2.52c-19.3-15.8-50.3-51.8-37.7-79 15.94-34.5 61.7-17.54 84.95-1.63 11 7.45 23.36 17.3 35.85 12.87s15.9-21.73 9.87-33.66-18.08-19-29.9-24.8c-30-14.53-67.85-27.23-100.44-14.14a74.51 74.51 0 0 0-30.95 23.79h0a83 83 0 0 0-16.75 56.27c2.43 35.47 24.66 68.7 50.73 91.75a13.52 13.52 0 0 1 1.37 1.46 18.8 18.8 0 0 0 2.11 2.17z" fill="#231f20"/><g class="D F"><g class="H"><use xlink:href="#B" class="B"/><path d="M236.5 1345.32v184.92m58.24-184.92l-21.32 184.92m79.55-184.92l-42.64 184.92m-132.05-184.92l21.32 184.92m-79.55-184.92l42.64 184.92" class="C"/><use xlink:href="#B" x="481.1" class="B"/><path d="M717.6 1345.32v184.92m58.24-184.92l-21.32 184.92m79.55-184.92l-42.64 184.92m-132.05-184.92l21.32 184.92m-79.55-184.92l42.64 184.92" class="C"/><path d="M1309.44 1530.24l63.96-184.92-29.1-21.48-29.12 21.48-29.1-21.48-29.12 21.48-29.1-21.48-29.12 21.48-29.12-21.48-29.1 21.48-29.12-21.48-29.1 21.48-29.12-21.48-29.1 21.48 63.96 184.92z" class="B"/><path d="M1198.7 1345.32v184.92m58.24-184.92l-21.32 184.92m79.55-184.92l-42.64 184.92m-132.05-184.92l21.32 184.92m-79.55-184.92l42.64 184.92" class="C"/><path d="M1790.54 1530.24l63.96-184.92-29.1-21.48-29.12 21.48-29.12-21.48-29.1 21.48-29.12-21.48-29.1 21.48-29.12-21.48-29.1 21.48-29.12-21.48-29.1 21.48-29.12-21.48-29.1 21.48 63.96 184.92z" class="B"/><path d="M1679.8 1345.32v184.92m58.24-184.92l-21.32 184.92m79.55-184.92l-42.64 184.92m-132.05-184.92l21.32 184.92m-79.55-184.92l42.64 184.92" class="C"/></g><g class="B E"><path d="M12 1406.38h1900" opacity="1" class="G"/><path d="M562.15 1406.38h310.92l-30.4 141.57H592.55zm-481.1 0H392l-30.4 141.57H111.45zm962.2 0h310.92l-30.4 141.57h-250.12zm481.1 0h310.92l-30.4 141.57h-250.12z" opacity="1"/></g></g><defs ><path id="B" d="M347.24 1530.24l63.96-184.92-29.1-21.48-29.12 21.48-29.1-21.48-29.12 21.48-29.1-21.48-29.12 21.48-29.1-21.48-29.12 21.48-29.12-21.48-29.1 21.48-29.12-21.48-29.1 21.48 63.96 184.92z"/></defs></svg>