<svg xmlns="http://www.w3.org/2000/svg" height="1902.62" width="1923.99"  xmlns:v="https://vecta.io/nano"><path d="M834.44 1890.62c377.7 0 821.17-201 821.17-657.48 0-107.53-367.65-206.37-821.17-206.37h-1.27C379.65 1026.77 12 1125.6 12 1233.14c0 456.5 443.47 657.48 821.17 657.48" fill="#fff" stroke="#231f20" stroke-width="24" stroke-miterlimit="10"/><path d="M826.72 1587.24q15 0 25.76-8.78 10.76-8.78 10.8-25.2a30.13 30.13 0 0 0-8.61-21.54q-8.62-9-23.25-9-9.92 0-16.34 2.76a26.31 26.31 0 0 0-10.16 7.32 55 55 0 0 0-7.07 11.7q-3.33 7.15-6.1 13.5a11.45 11.45 0 0 1-5.86 5.37 23.06 23.06 0 0 1-9.75 2q-6.5 0-11.95-5.28-5.44-5.28-5.45-14.07 0-8.44 5.13-17.8a64.88 64.88 0 0 1 15-17.8 75.2 75.2 0 0 1 24.47-13.64 98.49 98.49 0 0 1 32.67-5.12 91.25 91.25 0 0 1 28.78 4.31 67.34 67.34 0 0 1 22.55 12.43 53.79 53.79 0 0 1 14.47 18.86 55.14 55.14 0 0 1 4.88 23.08q0 16.26-7.07 27.88-7.07 11.62-20.28 22.68a89.43 89.43 0 0 1 21.37 15.61 58.29 58.29 0 0 1 17.48 42.43 71.9 71.9 0 0 1-5.93 28.61 73.18 73.18 0 0 1-17.48 24.63 83.47 83.47 0 0 1-27.39 16.9 96.76 96.76 0 0 1-35 6.1q-19.5 0-35-7a80.6 80.6 0 0 1-25.44-17.48 79.5 79.5 0 0 1-15.11-21.7q-5.13-11.22-5.13-18.53 0-9.44 6.1-15.2a21.23 21.23 0 0 1 15.2-5.77 16.16 16.16 0 0 1 8.78 2.68 12.68 12.68 0 0 1 5.53 6.42q8.44 22.6 18.12 33.57 9.68 10.96 27.23 11a40.92 40.92 0 0 0 19.43-5 40.37 40.37 0 0 0 15.44-14.71 41.75 41.75 0 0 0 6.1-22.59q0-19-10.4-29.83-10.4-10.83-28.9-10.8c-2.17 0-5.53.2-10.08.65s-7.48.65-8.78.65q-8.94 0-13.82-4.47-4.88-4.47-4.88-12.44a15.52 15.52 0 0 1 5.86-12.6q5.85-4.8 17.4-4.8z" fill="#231f20"/><g stroke="#231f20" stroke-width="24" stroke-linecap="round"><path d="M1602.47 1226.9c0 51.53-343.84 127.88-768 127.88h-1.35c-424.15 0-768-76.35-768-127.88" fill="none" stroke-miterlimit="10"/><path d="M738.8 1283.1s9.1-475.27 465.32-571.27l-122.86 122.3c-225.18 118.17-169.16 456.1-169.16 456.1" fill="#fff" stroke-linejoin="round"/></g><path d="M1612.12 128.14c-40.22 32.92-71.6 68.26-110.1 118.58l-177.65 239.1-278.74 385.93c73 29.06 119.2 28.9 162.2 24.72 54.8-5.3 97.1-55.1 130.73-100.68s54.9-82.65 59-110.88c4-28-8.83-81.22-15.52-105.76s-18.12-46.73-7.08-61.7l160.93-243.5c52.56-66.36 71.2-83.58 112.2-116.84 113.36-91.94 156.18-75.36 228.53-91.93L1912 12c-145.5 27.83-185.3 22.4-299.87 116.14z" fill="#231f20"/></svg>