<svg xmlns="http://www.w3.org/2000/svg" viewBox="0 0 2000 2000"><g id="Layer_1" data-name="Layer 1"><path d="M1806.44,848.94c145.6-246.83,185.22-614.1-113.1-790.08-70.27-41.46-276.59,160.7-451.42,457.07l-.49.83c-174.82,296.37-252,574.73-181.69,616.18,298.33,176,600.61-36.35,746.21-283.18" style="fill:#fff;stroke:#231f20;stroke-miterlimit:10;stroke-width:24px"/><path d="M1668.77,91.17c33.67,19.86-49,274-212.49,551.17l-.52.89c-163.5,277.18-346,472.44-379.62,452.58" style="fill:none;stroke:#231f20;stroke-linecap:round;stroke-miterlimit:10;stroke-width:24px"/><path d="M95.37,1544.34l50.91,288.24a72.07,72.07,0,0,0,67.9,47.83H1785.82a72.07,72.07,0,0,0,67.9-47.83l50.91-288.24" style="fill:#fff;stroke:#231f20;stroke-linecap:round;stroke-linejoin:round;stroke-width:24px"/><path d="M1933,1536.92l-310.55-210.48a37.54,37.54,0,0,0-20.51-6.1H398.08a37.54,37.54,0,0,0-20.51,6.1L67,1536.92a37.52,37.52,0,0,0-17,31.42v8.56a37.52,37.52,0,0,0,37.52,37.53h1825A37.52,37.52,0,0,0,1950,1576.9v-8.56A37.52,37.52,0,0,0,1933,1536.92Z" style="fill:#fff;stroke:#231f20;stroke-linecap:round;stroke-linejoin:round;stroke-width:24px"/><line x1="147.07" y1="1548.02" x2="1852.93" y2="1548.02" style="fill:#fff;stroke:#231f20;stroke-linecap:round;stroke-linejoin:round;stroke-width:12px"/><line x1="405.74" y1="1376.22" x2="434.06" y2="1544.34" style="fill:#fff;stroke:#231f20;stroke-linecap:round;stroke-linejoin:round;stroke-width:12px"/><line x1="1594.26" y1="1376.22" x2="1565.94" y2="1544.34" style="fill:#fff;stroke:#231f20;stroke-linecap:round;stroke-linejoin:round;stroke-width:12px"/><path d="M834.9,546.35,315.15,238c-38.37-20.79-82.07-15.11-102.87,23.26h0c-20.8,38.37-1.71,78.09,36.66,98.89l542,267.2" style="fill:#231f20"/><path d="M1041.19,458.5h99.57a26.9,26.9,0,0,1,26.9,26.9V910.33A38.62,38.62,0,0,1,1129,948.95H928a38.62,38.62,0,0,1-38.62-38.62V610.27A151.77,151.77,0,0,1,1041.19,458.5Z" transform="translate(2137.34 134.82) rotate(118.46)" style="fill:#fff;stroke:#231f20;stroke-linecap:round;stroke-linejoin:round;stroke-width:24px"/><path d="M984,610.15l139.83,75.79a85.08,85.08,0,0,1,34.26,115.33l-16.32,30.09" style="fill:#fff;stroke:#231f20;stroke-linecap:round;stroke-linejoin:round;stroke-width:24px"/><path d="M978.39,904c-101.63-20.3-305,31.07-305,261.39v85.35" style="fill:none;stroke:#231f20;stroke-linecap:round;stroke-linejoin:round;stroke-width:24px"/><polyline points="736.68 1199.62 673.36 1262.94 610.05 1199.62" style="fill:none;stroke:#231f20;stroke-linecap:round;stroke-linejoin:round;stroke-width:24px"/></g></svg>