<?xml version="1.0" encoding="UTF-8"?>
<svg id="Layer_1" data-name="Layer 1" xmlns="http://www.w3.org/2000/svg" width="2000" height="2000" xmlns:xlink="http://www.w3.org/1999/xlink" viewBox="0 0 2000 2000">
  <defs>
    <radialGradient id="radial-gradient" cx="917.42" cy="660.19" fx="917.42" fy="660.19" r="93.16" gradientTransform="translate(473.64 1511.09) rotate(-84.56) scale(1 .76)" gradientUnits="userSpaceOnUse">
      <stop offset=".74" stop-color="#eef7cb"/>
      <stop offset=".82" stop-color="#e6f0bc"/>
      <stop offset=".9" stop-color="#dfebb0"/>
      <stop offset="1" stop-color="#deeaad"/>
    </radialGradient>
    <radialGradient id="radial-gradient-2" cx="491.7" cy="891.71" fx="491.7" fy="891.71" gradientTransform="translate(137.97 1511.41) rotate(-84.56) scale(1 .76)" xlink:href="#radial-gradient"/>
    <radialGradient id="radial-gradient-3" cx="1189.87" cy="602.59" fx="1189.87" fy="602.59" r="91.99" gradientTransform="translate(22.66 793.39) rotate(-36.9) scale(1 .74)" xlink:href="#radial-gradient"/>
    <radialGradient id="radial-gradient-4" cx="1333.76" cy="715.7" fx="1333.76" fy="715.7" r="81.52" gradientTransform="translate(36.22 811.45) rotate(-36.9) scale(1 .75)" xlink:href="#radial-gradient"/>
    <radialGradient id="radial-gradient-5" cx="734.91" cy="716" fx="734.91" fy="716" r="85.82" gradientTransform="translate(45.32 785.64) rotate(-34.47) scale(1 .73)" gradientUnits="userSpaceOnUse">
      <stop offset=".74" stop-color="#eef7cb"/>
      <stop offset=".82" stop-color="#e6f0bc"/>
      <stop offset=".9" stop-color="#dfebb0"/>
      <stop offset="1" stop-color="#deeaad"/>
    </radialGradient>
    <radialGradient id="radial-gradient-6" cx="1109.58" cy="731.15" fx="1109.58" fy="731.15" r="84.32" gradientTransform="translate(68.03 853.81) rotate(-36.9) scale(1 .68)" xlink:href="#radial-gradient"/>
    <radialGradient id="radial-gradient-7" cx="785.66" cy="942.25" fx="785.66" fy="942.25" r="84.32" gradientTransform="translate(108.27 907.4) rotate(-36.9) scale(1 .68)" xlink:href="#radial-gradient"/>
    <radialGradient id="radial-gradient-8" cx="499.27" cy="1112.26" fx="499.27" fy="1112.26" r="84.32" gradientTransform="translate(140.68 950.56) rotate(-36.9) scale(1 .68)" xlink:href="#radial-gradient"/>
  </defs>
  <g>
    <path d="m1809.19,188.55l-724.06,807.36c-22.8,25.42-56.26,21.48-74.2-7.89l-101.91-166.87c-14.2-23.26-9.63-59.2,9.83-80.9L1537.01,50.99c19.46-21.7,54.7-30.14,79.36-18.54l176.94,83.21c31.14,14.64,38.68,47.48,15.89,72.9Z" style="fill: #fff; stroke: #3a3632; stroke-miterlimit: 10; stroke-width: 20px;"/>
    <path d="m1706.83,161.56c-10.71,11.94-30.64,15.57-44.33,8.2l-80.97-43.54c-12.24-6.58-13.98-20.81-4.06-31.87,9.92-11.06,27.96-15.01,40.47-8.73l82.77,41.52c14,7.02,16.82,22.47,6.11,34.41Z" style="fill: #fff; stroke: #3a3632; stroke-miterlimit: 10; stroke-width: 20px;"/>
  </g>
  <g>
    <path d="m1000.62,1969.03c371.56,0,807.81-197.69,807.81-646.77,0-105.78-361.67-203.01-807.81-203.01h-1.25c-446.14,0-807.81,97.23-807.81,203.01,0,449.08,436.25,646.77,807.81,646.77" style="fill: #fff; stroke: #3a3632; stroke-miterlimit: 10; stroke-width: 24px;"/>
    <path d="m1086.11,1788.86c0,11.57-6.55,17.36-19.65,17.36h-110.7c-13.32,0-19.98-5.78-19.98-17.36s6.66-16.7,19.98-16.7h34.06v-149.35l-31.44,19.32c-3.06,1.75-5.79,2.62-8.19,2.62-4.58,0-8.46-1.96-11.63-5.9-3.17-3.93-4.75-8.29-4.75-13.1,0-6.33,2.83-11.24,8.51-14.74l50.76-31.44c6.55-3.93,12.77-5.9,18.67-5.9s11.02,1.86,14.74,5.57c3.71,3.71,5.57,8.84,5.57,15.39v177.51h34.39c13.1,0,19.65,5.57,19.65,16.7Z" style="fill: #231f20;"/>
    <path d="m1756.16,1316.11c0,50.69-338.25,125.8-755.49,125.8h-1.33c-417.25,0-755.49-75.11-755.49-125.8" style="fill: none; stroke: #3a3632; stroke-linecap: round; stroke-miterlimit: 10; stroke-width: 24px;"/>
  </g>
  <g id="layer1">
    <path id="path863" d="m1069.78,747.94l-67.81,1.96c-90.01-23.67-80.91-178.18,4.26-199.97l57.6-4.82" style="fill: #629e42; isolation: isolate; stroke: #3a3632; stroke-linecap: round; stroke-linejoin: round; stroke-width: 20px;"/>
    <path id="path863-2" data-name="path863" d="m1046.31,747.64c-96.07-16.89-88.89-196.23,17.51-202.53,105.52-6.25,92.23,221.82-17.51,202.53Z" style="fill: url(#radial-gradient); isolation: isolate; stroke: #3a3632; stroke-linecap: round; stroke-linejoin: round; stroke-width: 20px;"/>
  </g>
  <g id="layer1-2" data-name="layer1">
    <path id="path863-3" data-name="path863" d="m868.37,1188.7l-67.81,1.96c-90.01-23.67-80.91-178.18,4.26-199.97l57.6-4.82" style="fill: #629e42; isolation: isolate; stroke: #3a3632; stroke-linecap: round; stroke-linejoin: round; stroke-width: 20px;"/>
    <path id="path863-4" data-name="path863" d="m844.9,1188.41c-96.07-16.89-88.89-196.23,17.51-202.53,105.52-6.25,92.23,221.82-17.51,202.53Z" style="fill: url(#radial-gradient-2); isolation: isolate; stroke: #3a3632; stroke-linecap: round; stroke-linejoin: round; stroke-width: 20px;"/>
  </g>
  <g id="layer1-3" data-name="layer1">
    <path id="path863-5" data-name="path863" d="m1315.27,361.63l43.55,51.2c36.81,84.71-92.29,176.1-162.42,124.11l-39.51-41.48" style="fill: #629e42; isolation: isolate; stroke: #3a3632; stroke-linecap: round; stroke-linejoin: round; stroke-width: 20px;"/>
    <path id="path863-6" data-name="path863" d="m1329.56,379.97c45.98,85.07-101.77,193.78-172.68,115.49-70.32-77.64,120.15-212.66,172.68-115.49Z" style="fill: url(#radial-gradient-3); isolation: isolate; stroke: #3a3632; stroke-linecap: round; stroke-linejoin: round; stroke-width: 20px;"/>
  </g>
  <g id="layer1-4" data-name="layer1">
    <path id="path863-7" data-name="path863" d="m1489.91,374.1l38.59,45.38c32.62,75.06-81.78,156.06-143.93,109.98l-35.02-36.76" style="fill: #629e42; isolation: isolate; stroke: #3a3632; stroke-linecap: round; stroke-linejoin: round; stroke-width: 20px;"/>
    <path id="path863-8" data-name="path863" d="m1502.58,390.35c40.75,75.39-90.19,171.72-153.02,102.34-62.31-68.8,106.48-188.46,153.02-102.34Z" style="fill: url(#radial-gradient-4); isolation: isolate; stroke: #3a3632; stroke-linecap: round; stroke-linejoin: round; stroke-width: 20px;"/>
  </g>
  <g id="layer1-5" data-name="layer1">
    <path id="path863-9" data-name="path863" d="m1012.17,736.03l38.61,45.4c32.64,75.11-81.83,156.15-144.02,110.05l-35.04-36.78" style="fill: #629e42; isolation: isolate; stroke: #3a3632; stroke-linecap: round; stroke-linejoin: round; stroke-width: 20px;"/>
    <path id="path863-10" data-name="path863" d="m1024.84,752.3c40.77,75.43-90.24,171.82-153.11,102.4-62.35-68.84,106.54-188.57,153.11-102.4Z" style="fill: url(#radial-gradient-5); isolation: isolate; stroke: #3a3632; stroke-linecap: round; stroke-linejoin: round; stroke-width: 20px;"/>
  </g>
  <g id="layer1-6" data-name="layer1">
    <path id="path863-11" data-name="path863" d="m1315.15,526.7l36.52,42.95c30.88,71.04-77.4,147.7-136.23,104.09l-33.14-34.79" style="fill: #629e42; isolation: isolate; stroke: #3a3632; stroke-linecap: round; stroke-linejoin: round; stroke-width: 20px;"/>
    <path id="path863-12" data-name="path863" d="m1327.13,542.08c38.57,71.35-85.36,162.52-144.83,96.86-58.98-65.12,100.77-178.37,144.83-96.86Z" style="fill: url(#radial-gradient-6); isolation: isolate; stroke: #3a3632; stroke-linecap: round; stroke-linejoin: round; stroke-width: 20px;"/>
  </g>
  <g id="layer1-7" data-name="layer1">
    <path id="path863-13" data-name="path863" d="m1182.88,890.02l36.52,42.95c30.88,71.04-77.4,147.7-136.23,104.09l-33.14-34.79" style="fill: #629e42; isolation: isolate; stroke: #3a3632; stroke-linecap: round; stroke-linejoin: round; stroke-width: 20px;"/>
    <path id="path863-14" data-name="path863" d="m1194.86,905.4c38.57,71.35-85.36,162.52-144.83,96.86-58.98-65.12,100.77-178.37,144.83-96.86Z" style="fill: url(#radial-gradient-7); isolation: isolate; stroke: #3a3632; stroke-linecap: round; stroke-linejoin: round; stroke-width: 20px;"/>
  </g>
  <g id="layer1-8" data-name="layer1">
    <path id="path863-15" data-name="path863" d="m1055.94,1197.92l36.52,42.95c30.88,71.04-77.4,147.7-136.23,104.09l-33.14-34.79" style="fill: #629e42; isolation: isolate; stroke: #3a3632; stroke-linecap: round; stroke-linejoin: round; stroke-width: 20px;"/>
    <path id="path863-16" data-name="path863" d="m1067.93,1213.31c38.57,71.35-85.36,162.52-144.83,96.86-58.98-65.12,100.77-178.37,144.83-96.86Z" style="fill: url(#radial-gradient-8); isolation: isolate; stroke: #3a3632; stroke-linecap: round; stroke-linejoin: round; stroke-width: 20px;"/>
  </g>
</svg>