<svg xmlns="http://www.w3.org/2000/svg" height="1924.001" width="1666.509"  xmlns:v="https://vecta.io/nano"><style><![CDATA[.B{stroke-linecap:round}.C{stroke-miterlimit:10}]]></style><g fill="#fff" stroke="#231f20" stroke-width="24" class="C"><path d="M1640.78 179.46l-751.62 838.1c-23.66 26.38-58.4 22.3-77-8.2l-105.8-173.22c-14.75-24.14-10-61.45 10.2-84l641.68-715.48c20.2-22.53 56.78-31.3 82.37-19.25l183.68 86.37c32.32 15.2 40.15 49.3 16.5 75.68z"/><path d="M1534.52 151.43c-11.1 12.4-31.8 16.16-46 8.52l-84-45.2c-12.7-6.83-14.5-21.6-4.2-33.08s29-15.58 42-9.07l85.92 43.1c14.47 7.28 17.4 23.32 6.3 35.7zM740.15 1912c334.4 0 727-177.93 727-582.1 0-95.2-325.5-182.7-727-182.7H739c-401.53 0-727 87.5-727 182.7 0 404.17 392.63 582.1 727 582.1"/></g><text y="1770.751" x="652.57" font-size="294.761" font-family="arial_rounded_mt_bold" fill="#231f20">1</text><path d="M1420.13 1324.36c0 45.62-304.42 113.22-679.94 113.22H739c-375.53 0-680-67.6-680-113.22" fill="none" stroke="#231f20" stroke-width="24" class="B C"/><g fill="#faf9f3" stroke="#010101" stroke-width="7.892" stroke-linejoin="round"><path d="M659.28 907.72c20.9-8.47 48.4 65.68 48.4 65.68-3.73 28.26-33 15.9-43.63 31.47s-61.8-65.56-37.72-72.9c17.94-5.48 32.96-24.25 32.96-24.25z"/><path d="M642.88 941.63s13.22 40.4 27.76 49.46" class="B"/><path d="M869.24 802.56c21.17-7.8 46.3 67.16 46.3 67.16-4.62 28.13-33.5 14.86-44.6 30.1s-59.72-67.45-35.42-74.05c18.1-4.9 33.7-23.2 33.7-23.2z"/><path d="M851.8 835.93s12 40.8 26.2 50.32" class="B"/><path d="M519 1020.73c21.1 8-9.08 81.07-9.08 81.07-21.94 18.2-35-10.75-53.4-6.53s-.84-90.1 21.82-79.13c16.85 8.22 40.66 4.6 40.66 4.6z"/><path d="M483.9 1034.48s-17.74 38.63-13.22 55.16" class="B"/><path d="M412.3 1180.66c15.87-16 70.4 41.22 70.4 41.22 7.74 27.44-24.05 27.65-27.64 46.14s-82.67-35.8-63.46-52.07c14.32-12.12 20.7-35.3 20.7-35.3z"/><path d="M410.62 1218.28s28.1 31.9 45.05 34.48" class="B"/><path d="M1236.76 456.04c13.48 18.1-51.3 63.44-51.3 63.44-28.3 3.53-23.74-27.93-41.48-34.25s47.78-76.38 61-54.94c9.82 15.97 31.78 25.75 31.78 25.75z"/><path d="M1199.8 448.76s-35.74 23-40.84 39.37" class="B"/><path d="M582.2 1141.82c15.86-16 70.4 41.22 70.4 41.22 7.74 27.44-24.05 27.65-27.64 46.14s-82.67-35.8-63.46-52.06c14.32-12.13 20.7-35.3 20.7-35.3z"/><path d="M580.53 1179.44s28.1 31.9 45.05 34.48" class="B"/><path d="M886.62 690.81c15.86-16 70.4 41.22 70.4 41.22 7.73 27.44-24 27.65-27.65 46.14s-82.67-35.8-63.45-52.06c14.32-12.13 20.7-35.3 20.7-35.3z"/><path d="M885 728.44s28.1 31.9 45 34.47" class="B"/><path d="M1037.7 596.77c22.36-3 30.45 75.7 30.45 75.7-10.68 26.43-36 7.15-50.1 19.57s-43.46-78.9-18.3-80c18.74-.83 37.97-15.26 37.97-15.26z"/><path d="M1013.36 625.51s2.7 42.42 14.52 54.83" class="B"/><path d="M756.9 879.08c2.48-22.42 80.78-11.4 80.78-11.4 23.1 16.7-1.7 36.6 7 53.34s-87 23.25-82.07-1.42c3.68-18.4-5.7-40.53-5.7-40.53z"/><path d="M778.94 909.62s41.83 7.55 56.72-.94" class="B"/><path d="M934.3 645.67c0-22.56 79-20.16 79-20.16 24.8 14.08 2.33 36.58 12.77 52.25s-83.92 32.6-81.68 7.6c1.66-18.72-10.1-39.7-10.1-39.7z"/><path d="M959.57 673.61s42.4 2.93 56.28-7.14" class="B"/><path d="M679 1008.78c2.28-22.44 80.68-12.12 80.68-12.12 23.25 16.5-1.36 36.63 7.45 53.27s-86.82 24-82.08-.68c3.5-18.43-6.05-40.47-6.05-40.47z"/><path d="M701.3 1039.11s41.9 7.18 56.7-1.44" class="B"/><path d="M929.15 819.25c-8.4 20.93-80.87-10.7-80.87-10.7-17.77-22.3 11.45-34.8 7.6-53.25s90.08 1 78.67 23.4c-8.5 16.72-5.4 40.56-5.4 40.56z"/><path d="M916.1 783.92s-38.27-18.5-54.9-14.32" class="B"/><path d="M993.63 723.18c19.8 10.8-20.05 79.08-20.05 79.08-24.2 15.05-33.25-15.43-52-13.75S933 699.15 954 713.09c15.6 10.4 39.63 10.1 39.63 10.1z"/><path d="M957 732.03s-22.84 35.85-20.62 52.84" class="B"/><path d="M772.82 902.41c3.37 22.3-75.13 31.8-75.13 31.8-26.62-10.2-7.8-35.8-20.46-49.75s78.13-44.86 79.67-19.74c1.16 18.73 15.92 37.7 15.92 37.7z"/><path d="M743.66 878.58s-42.37 3.46-54.57 15.5" class="B"/><path d="M710.28 954.8c-9.75-20.34 62.54-52.4 62.54-52.4 28.44 2 17.93 32 34.12 41.58s-61.57 65.77-70.4 42.2c-6.54-17.57-26.26-31.4-26.26-31.4z"/><path d="M745.15 969.06s39.5-15.7 47.64-30.8" class="B"/><path d="M592.87 974.89c15.87-16 70.4 41.22 70.4 41.22 7.73 27.44-24.06 27.65-27.65 46.14s-82.67-35.8-63.46-52.06c14.32-12.13 20.7-35.3 20.7-35.3z"/><path d="M591.2 1012.51s28.1 31.9 45 34.48" class="B"/><path d="M522.45 1063.5c4.76-22.06 81.53-3.07 81.53-3.07 21.26 19-5.43 36.25 1.47 53.78s-89 14.22-81.5-9.82c5.56-17.92-1.5-40.9-1.5-40.9z"/><path d="M541.26 1096.13s40.84 11.8 56.52 4.87" class="B"/><path d="M636.25 1046.99c15.86-16 70.4 41.22 70.4 41.22 7.73 27.44-24 27.66-27.65 46.14s-82.67-35.8-63.45-52.06c14.32-12.12 20.7-35.3 20.7-35.3z"/><path d="M634.58 1084.62s28.1 31.9 45 34.48" class="B"/><path d="M726.16 1110.44c14 17.7-49.48 64.86-49.48 64.86-28.17 4.34-24.52-27.24-42.43-33s45.6-77.7 59.4-56.66c10.3 15.65 32.52 24.8 32.52 24.8z"/><path d="M689 1104.2s-35.08 24-39.7 40.52" class="B"/><path d="M1047.43 530.18c15.86-16 70.4 41.22 70.4 41.22 7.73 27.44-24 27.65-27.65 46.14s-82.67-35.8-63.45-52.06c14.32-12.12 20.7-35.3 20.7-35.3z"/><path d="M1045.76 567.81s28.1 31.9 45 34.47" class="B"/><path d="M794.3 795.59c15.87-16 70.4 41.22 70.4 41.22 7.73 27.44-24.06 27.65-27.65 46.14s-82.67-35.8-63.46-52.07c14.33-12.12 20.7-35.3 20.7-35.3z"/><path d="M792.63 833.21s28.1 31.9 45 34.48" class="B"/><path d="M471.2 1208.79c-16.6-15.28 38.67-71.83 38.67-71.83 27.14-8.72 28.5 23 47.1 26s-32.82 83.9-49.76 65.28c-12.63-13.88-36-19.45-36-19.45z"/><path d="M508.87 1209.11s30.86-29.23 32.84-46.25" class="B"/><path d="M535.74 959.84c21.35-7.3 44.65 68.27 44.65 68.27-5.3 28-33.85 14-45.3 29s-58.05-68.9-33.6-74.9c18.22-4.48 34.26-22.38 34.26-22.38z"/><path d="M517.48 992.77s10.94 41.08 24.95 50.95" class="B"/><path d="M461.92 1317.84c15.86-16 70.4 41.22 70.4 41.22 7.74 27.44-24.05 27.65-27.65 46.14s-82.67-35.84-63.45-52.07c14.32-12.12 20.7-35.3 20.7-35.3z"/><path d="M460.25 1355.46s28.1 31.9 45 34.48" class="B"/><path d="M639.88 1308.63c15.86-16 70.4 41.22 70.4 41.22 7.74 27.44-24 27.66-27.64 46.14s-82.68-35.8-63.46-52.06c14.32-12.12 20.7-35.3 20.7-35.3z"/><path d="M638.2 1346.26s28.1 31.9 45 34.48" class="B"/><path d="M690.58 1122.95c2.27-22.44 80.67-12.12 80.67-12.12 23.25 16.5-1.36 36.63 7.45 53.28s-86.82 24-82.08-.7c3.54-18.42-6.04-40.47-6.04-40.47z"/><path d="M712.9 1153.29s41.9 7.18 56.7-1.45" class="B"/><path d="M685.88 1184.17c15.86-16 70.4 41.22 70.4 41.22 7.73 27.44-24 27.66-27.65 46.14s-82.67-35.8-63.46-52.06c14.33-12.1 20.7-35.3 20.7-35.3z"/><path d="M684.2 1221.8s28.1 31.9 45 34.48" class="B"/><path d="M793.42 1231.62c14 17.7-49.47 64.87-49.47 64.87-28.18 4.34-24.53-27.24-42.44-33.06s45.6-77.7 59.4-56.65c10.3 15.7 32.5 24.84 32.5 24.84z"/><path d="M756.28 1225.36s-35.07 24-39.7 40.52" class="B"/><path d="M520.83 1310.81c-16.6-15.28 38.67-71.83 38.67-71.83 27.15-8.7 28.5 23.05 47.1 26s-32.82 83.9-49.76 65.28c-12.63-13.9-36.02-19.45-36.02-19.45z"/><path d="M558.5 1311.13s30.87-29.22 32.85-46.25" class="B"/></g></svg>