<svg xmlns="http://www.w3.org/2000/svg" height="1902.62" width="1923.99"  xmlns:v="https://vecta.io/nano"><path d="M834.44 1890.62c377.7 0 821.17-201 821.17-657.48 0-107.53-367.65-206.37-821.17-206.37h-1.27C379.65 1026.77 12 1125.6 12 1233.14c0 456.5 443.47 657.48 821.17 657.48" fill="#fff" stroke="#231f20" stroke-width="24" stroke-miterlimit="10"/><path d="M809.8 1692.73h84.86q12.68 0 19.35 5.2a17 17 0 0 1 6.66 14.14 18.79 18.79 0 0 1-5.28 13.49q-5.3 5.54-16 5.53H779.74q-12.2 0-19-6.75a21.57 21.57 0 0 1-6.83-15.85q0-5.85 4.4-15.52 4.4-9.67 9.6-15.2 21.62-22.44 39-38.45 17.38-16 24.87-21a143.64 143.64 0 0 0 22.19-18.94 75.14 75.14 0 0 0 13.49-19.56 46.31 46.31 0 0 0 4.63-19.58 35.37 35.37 0 0 0-5-18.62 34.46 34.46 0 0 0-13.5-12.76 39 39 0 0 0-18.61-4.55q-21.3 0-33.5 18.7-1.62 2.44-5.44 13.33-3.82 10.9-8.62 16.75-4.8 5.85-14.06 5.85a18.3 18.3 0 0 1-13.49-5.36q-5.37-5.37-5.37-14.63a61.17 61.17 0 0 1 5-23.41 67 67 0 0 1 15-22.11q10-9.9 25.36-16 15.36-6.1 36-6.1 24.87 0 42.42 7.8a63.89 63.89 0 0 1 20 14.31 67.17 67.17 0 0 1 18.21 45.84 69.42 69.42 0 0 1-10 36.66q-10 16.5-20.4 25.85-10.4 9.35-34.72 29.33-24.47 20-33.57 31a92.56 92.56 0 0 0-7.98 10.61z" fill="#231f20"/><g stroke="#231f20" stroke-width="24" stroke-linecap="round"><path d="M1602.47 1226.9c0 51.53-343.84 127.88-768 127.88h-1.35c-424.15 0-768-76.35-768-127.88" fill="none" stroke-miterlimit="10"/><path d="M738.8 1283.1s9.1-475.27 465.32-571.27l-122.86 122.3c-225.18 118.17-169.16 456.1-169.16 456.1" fill="#fff" stroke-linejoin="round"/></g><path d="M1612.12 128.14c-40.22 32.92-71.6 68.26-110.1 118.58l-177.65 239.1-278.74 385.93c73 29.06 119.2 28.9 162.2 24.72 54.8-5.3 97.1-55.1 130.73-100.68s54.9-82.65 59-110.88c4-28-8.83-81.22-15.52-105.76s-18.12-46.73-7.08-61.7l160.93-243.5c52.56-66.36 71.2-83.58 112.2-116.84 113.36-91.94 156.18-75.36 228.53-91.93L1912 12c-145.5 27.83-185.3 22.4-299.87 116.14z" fill="#231f20"/></svg>