<svg id="Layer_1" data-name="Layer 1" xmlns="http://www.w3.org/2000/svg" viewBox="0 0 2000 2000"><path d="M88.23,1638.68l42.34,264.39A59.94,59.94,0,0,0,187,1942.85H1526.49a60,60,0,0,0,56.47-39.78l42.34-264.39" style="fill:#fff;stroke:#231f20;stroke-linecap:round;stroke-linejoin:round;stroke-width:19.960511293134px"/><path d="M1648.88,1632.5l-258.29-157.27a31.18,31.18,0,0,0-17-5.07H340a31.23,31.23,0,0,0-17.06,5.07L64.64,1632.5a31.25,31.25,0,0,0-14.15,26.14v7.12A31.21,31.21,0,0,0,81.7,1697H1631.83a31.2,31.2,0,0,0,31.2-31.21v-7.12A31.23,31.23,0,0,0,1648.88,1632.5Z" style="fill:#fff;stroke:#231f20;stroke-linecap:round;stroke-linejoin:round;stroke-width:19.960511293134px"/><line x1="131.22" y1="1641.74" x2="1582.31" y2="1641.74" style="fill:#fff;stroke:#231f20;stroke-linecap:round;stroke-linejoin:round;stroke-width:19.960511293134px"/><line x1="346.36" y1="1516.64" x2="369.91" y2="1638.68" style="fill:#fff;stroke:#231f20;stroke-linecap:round;stroke-linejoin:round;stroke-width:19.960511293134px"/><line x1="1367.17" y1="1516.64" x2="1343.62" y2="1638.68" style="fill:#fff;stroke:#231f20;stroke-linecap:round;stroke-linejoin:round;stroke-width:19.960511293134px"/><polygon points="1364.22 1540.63 341.61 1540.63 182.28 1639.34 1521.76 1639.34 1364.22 1540.63" style="fill:#ead39a;stroke:#231f20;stroke-linecap:round;stroke-linejoin:round;stroke-width:12.2074580421599px"/><path d="M1195.07,1590.38c-44.69,9.37-96.85,10.46-146.26,7.64s-97.17-9.3-145.51-14.46c-127.21-13.58-265.3-17.72-386.85,3.21-12.84,2.21-27.75,6.43-25.13,12.21,1.81,4,11.5,6.37,20.56,7.69,43,6.28,90,.63,134.09-4.21s93.31-8.62,133.12.75" style="fill:none;stroke:#231f20;stroke-linecap:round;stroke-linejoin:round;stroke-width:10.1572208681673px"/><path d="M959.19,959.21c-108.44-21.66-325.45,33.15-325.45,278.89v91.06" style="fill:none;stroke:#231f20;stroke-linecap:round;stroke-linejoin:round;stroke-width:24px"/><polyline points="701.29 1274.61 633.74 1342.16 566.19 1274.61" style="fill:none;stroke:#231f20;stroke-linecap:round;stroke-linejoin:round;stroke-width:24px"/><g id="layer3"><path id="path916" d="M1509.3,323.65,1873,587a93.34,93.34,0,0,1,21.1,130.32l-.22.3-434.93,600.67a93.34,93.34,0,0,1-130.3,21.15l-.34-.25L964.61,1075.84Z" style="fill:#fff;stroke:#221f1f;stroke-linecap:round;stroke-linejoin:round;stroke-width:24px"/></g><path d="M1870.12,89.38,1660.79,359.2a41.61,41.61,0,0,0-2.61,46.93l27.32,45.12-119.68-86.66L1790.63,31.82Z" style="fill:#fff;stroke:#221f1f;stroke-linecap:round;stroke-linejoin:round;stroke-width:24px"/></svg>