<svg xmlns="http://www.w3.org/2000/svg" width="1735.223" height="1930.524"  xmlns:v="https://vecta.io/nano"><style><![CDATA[.M{stroke-miterlimit:10}.N{stroke:#231f20}.O{fill:none}.P{fill:#915524}.Q{stroke-width:17.217}.R{stroke-linejoin:round}]]></style><g class="N M"><g fill="#fff" stroke-width="24"><path d="M1709.08 184.474l-774.13 863.2c-24.37 27.18-60.15 23-79.32-8.43l-108.96-178.37c-15.18-24.87-10.3-63.3 10.5-86.5l660.9-736.97c20.8-23.2 58.48-32.22 84.85-19.82l189.18 89c33.3 15.6 41.35 50.72 16.98 77.9z"/><path d="M1599.67 155.614c-11.45 12.76-32.76 16.64-47.4 8.77l-86.6-46.52c-13.1-7-15-22.25-4.34-34.07s29.9-16 43.27-9.34l88.5 44.4c14.96 7.47 17.98 24 6.57 36.75zm-793.37 1762.9c364.8 0 793.1-194.1 793.1-635 0-103.85-355.08-199.3-793.1-199.3h-1.22c-438 0-793.1 95.46-793.1 199.3 0 440.9 428.3 635 793.1 635"/></g><path stroke-linecap="round" stroke-width="24" d="M1548.08 1277.494c0 49.77-332.08 123.5-741.72 123.5h-1.3c-409.64 0-741.73-73.74-741.73-123.5" class="O"/></g><path d="M1003.67 556.114l-24.5-18.62c-11.38-8.72-28.52-1-37.78 8.6l-2.64 2.84a11.48 11.48 0 0 0-3.32 6.35l-33.36 165.7c-2.18 10.88 6.83 24 16.55 24.15l137.06 1.6 6.1-2.2 87.77-70.07z" class="P"/><g class="N O Q"><path d="M1055.55 746.494l-137.07-1.63c-9.72-.1-18.73-13.27-16.54-24.14l33.36-165.7c2.35-11.7 15.6-11.54 22.93.27l103.7 167.3c6.8 11 3.32 24-6.4 23.9z" class="M"/><path d="M1061.67 744.304l87.86-69.84-170.5-137.2c-11.37-8.73-31.07 2.1-40.34 11.67" class="R"/></g><path d="M608.53 1073.954l-30.76-.88c-14.33-.47-23.75 15.8-25.72 29l-.5 3.85a11.53 11.53 0 0 0 1 7.1l69.34 154.14c4.55 10.1 19.54 15.56 27.5 10l112.38-78.5 3.67-5.32 30.57-108.07z" class="P"/><g class="N O Q"><path d="M761.57 1198.514l-112.38 78.5c-8 5.56-22.95.1-27.5-10l-69.34-154.14c-4.9-10.88 6-18.47 18.8-13.13l181.7 75.65c11.93 4.96 16.67 17.57 8.7 23.13z" class="M"/><path d="M765.24 1193.194l30.78-107.93-218.45-12.33c-14.33-.47-24 19.8-26 33" class="R"/></g><path d="M777.47 719.644l-26.8-15.2c-12.43-7.13-28.4 2.83-36.3 13.55l-2.24 3.16a11.51 11.51 0 0 0-2.45 6.74l-11 168.65c-.73 11.07 10 22.9 19.6 21.73l136.07-16.63 5.74-3 77.67-81.12z" class="P"/><g class="N O Q"><path d="M854.25 901.424l-136.06 16.63c-9.65 1.18-20.33-10.66-19.6-21.73l11-168.65c.77-11.9 13.94-13.52 22.76-2.78l125 152c8.33 9.97 6.56 23.35-3.1 24.53z" class="M"/><path d="M860 898.434l77.8-80.9-187.18-113.3c-12.44-7.13-30.52 6.2-38.43 16.93" class="R"/></g><path d="M840.6 1171.294l-26.75-15.2c-12.44-7.13-28.4 2.83-36.3 13.55l-2.23 3.16a11.51 11.51 0 0 0-2.45 6.74l-11 168.66c-.72 11.07 10 22.9 19.6 21.73l136.06-16.64 5.74-3 77.67-81.12z" class="P"/><g class="N O Q"><path d="M917.4 1353.074l-136.06 16.64c-9.64 1.18-20.33-10.66-19.6-21.73l11-168.66c.78-11.9 13.94-13.5 22.77-2.78l125 152c8.26 10 6.54 23.32-3.1 24.53z" class="M"/><path d="M923.13 1350.094l77.8-80.9-187.18-113.33c-12.43-7.13-30.52 6.22-38.43 16.93" class="R"/></g><path d="M897.35 960.924l-3.5-30.57c-1.57-14.25-19-21.26-32.35-21.32l-3.88.06a11.42 11.42 0 0 0-6.88 2l-142.7 90.58c-9.36 6-12.62 21.56-6 28.65l93.7 100.06 5.8 2.87 111.33 14.88z" class="P"/><g class="N O Q"><path d="M795.85 1130.154l-93.7-100.06c-6.64-7.1-3.38-22.7 6-28.65l142.68-90.58c10.07-6.4 19.13 3.28 15.67 16.74l-49 190.64c-3.22 12.5-15.02 19-21.66 11.9z" class="M"/><path d="M801.67 1133.024l111.22 15.1-18.9-218c-1.57-14.25-23-21-36.34-21" class="R"/></g></svg>