<svg xmlns="http://www.w3.org/2000/svg" xmlns:xlink="http://www.w3.org/1999/xlink" height="1923.986" width="1695.616" xmlns:v="https://vecta.io/nano"><style><![CDATA[.F{stroke:#231f20}.G{stroke-width:24}.H{stroke-miterlimit:10}.I{stroke-linecap:round}.J{font-family:ArialRoundedMTBold,Arial Rounded MT Bold}]]></style><use xlink:href="#B" fill="#fff" class="F G H"/><text y="1599.627" x="221.671" transform="rotate(300.669)" font-size="193.95" fill="#231f20" class="J">2</text><g class="F G H"><use xlink:href="#C" fill="none" class="I"/><use xlink:href="#B" fill="#fff"/></g><path d="M1491.806 576.648l25.212-42.514q3.767-6.353 8.354-8.146 4.586-1.794 9.066.863 3.99 2.367 5.166 6.696 1.224 4.248-1.964 9.624l-35.547 59.943q-3.622 6.108-9 7.55-5.45 1.392-10-1.313-2.932-1.74-6.433-6.787-3.583-5.097-4.806-9.345-4.816-17.497-7.63-30.945-2.895-13.496-3.198-18.74-.763-9.48-2.88-16.68-2.15-7.33-5.765-12.556-3.65-5.356-8.454-8.206-5.212-3.09-10.782-2.98-5.603-.02-10.443 2.944-4.792 2.883-7.786 7.932-6.327 10.67-.583 22.332.74 1.54 5.036 6.73 4.346 5.11 5.83 9.29 1.53 4.1-1.222 8.743-2.415 4.072-6.696 5.166-4.28 1.094-8.924-1.66-5.62-3.333-10.23-9.48-4.61-6.147-6.633-14.06-1.974-7.996-.447-17.438 1.493-9.572 7.627-19.916 7.4-12.46 16.515-18.94 5.987-4.156 13.108-5.767 7.12-1.612 14.548-.4 7.394 1.082 13.828 4.898 10.1 5.99 15.412 15.965 5.28 9.846 6.912 17.86 1.55 7.965 4.276 26.204 2.773 18.157 5.606 26.002 1.04 3.26 2.927 7.13z" fill="#231f20" font-size="193.95" class="J"/><use xlink:href="#C" fill="none" class="F G H I"/><g fill="#fff"><path d="M898.055 1095.916c-3.7-86.86 40.16-265.22 165.14-303.08 0 0 29-25.17 23.35-24.5-263.5 31.33-308.4 234.93-314.85 317.5"/><path d="M821.485 797.356l26.46 12.78a4.76 4.76 0 0 0 6.62-5.78l-8.68-26.06a4.8 4.8 0 0 0-7.45-2.34l-17.74 13.26a4.86 4.86 0 0 0 .83 8.14zm38.32-20a5.72 5.72 0 0 0 10.47 1.1l15.72-28.8a5.71 5.71 0 0 0-4-8.41l-26-4.82a5.67 5.67 0 0 0-6.48 7.3zm7.72 18.77l-4.28 19a3.23 3.23 0 0 0 4.83 3.44l15.57-9.5a3.17 3.17 0 0 0 .42-5.1l-11.17-9.5a3.27 3.27 0 0 0-5.37 1.68z"/></g><g class="F G"><path d="M771.395 1088.776c5.1-83.28 46.3-305.27 328.56-329.9m-36.76 40.2c-121.42 36.78-166.28 201.27-165.34 289.4" fill="none" class="H I"/><path d="M1234.455 1155.626l190.24 21.14c74.37 8.26 74.88 122.3 8.13 146.36l-198.4 71.56zm-975.15 0l-190.27 21.14c-74.37 8.26-74.88 122.3-8.13 146.36l198.4 71.56zm975.15-146.57v762.64a140 140 0 0 1-140.29 140.29h-694.57a140 140 0 0 1-140.29-140.29v-762.64z" fill="#fff" stroke-linejoin="round"/></g><defs ><path id="B" d="M1598.325 622.756c111.8-189.52 142.22-471.5-86.84-606.62-54-31.83-212.37 123.4-346.6 351l-.37.63c-134.24 227.56-193.46 441.3-139.5 473.1 229.06 135.12 461.15-27.9 573-217.42"/><path id="C" d="M1492.625 40.936c25.85 15.25-37.6 210.38-163.15 423.2l-.4.67c-125.54 212.83-265.62 362.75-291.48 347.5"/></defs></svg>