<svg id="Layer_1" data-name="Layer 1" xmlns="http://www.w3.org/2000/svg" width="1848.33" height="2000" viewBox="0 0 1848.33 2000">
  <g>
    <path d="M560.83,1962.24c219.76,0,340.93-64.73,399.42-143.5,50.63-68.17,123.14-337.48,123.14-337.48,0-112-234-202.7-522.56-202.7s-522.56,90.75-522.56,202.7c0,0,72.52,269.31,123.14,337.48C219.91,1897.51,341.07,1962.24,560.83,1962.24Z" style="fill: #fff;stroke: #3a3632;stroke-miterlimit: 10;stroke-width: 20px"/>
    <ellipse cx="560.83" cy="1477.28" rx="458.09" ry="152.75" style="fill: #f1f1f2;stroke: #3a3632;stroke-miterlimit: 10;stroke-width: 20px"/>
  </g>
  <g>
    <path d="M1792.48,238.63,943.75,1185c-26.72,29.79-66,25.18-87-9.25L737.32,980.15c-16.64-27.26-11.29-69.39,11.52-94.83L1473.42,77.38c22.82-25.44,64.12-35.33,93-21.74l207.4,97.53C1810.35,170.33,1819.2,208.83,1792.48,238.63Z" style="fill: #fff;stroke: #3a3632;stroke-miterlimit: 10;stroke-width: 24px"/>
    <path d="M1672.49,207c-12.55,14-35.92,18.25-52,9.62l-94.9-51c-14.35-7.71-16.39-24.39-4.76-37.35s32.77-17.6,47.44-10.24l97,48.67C1681.72,174.88,1685,193,1672.49,207Z" style="fill: #fff;stroke: #3a3632;stroke-miterlimit: 10;stroke-width: 24px"/>
  </g>
  <g>
    <path d="M640.3,1370.67c10.36-17.79,20.87-35.32,25.38-41.25a12.48,12.48,0,0,1,3.8-4.33c4.75-3.44,10.88-3.3,13.7.3a6.47,6.47,0,0,1,.93,1.66,12.83,12.83,0,0,1,3.09-3.16c4.75-3.43,10.88-3.29,13.7.31a6.77,6.77,0,0,1,1.39,4.17,13.7,13.7,0,0,1,1.52-1.28c4.75-3.44,10.88-3.3,13.7.3,2.34,3,1.64,7.45-1.4,10.83,4.23-1.86,8.87-1.27,11.21,1.72,2.82,3.6,1.25,9.31-3.5,12.74a13.32,13.32,0,0,1-1.71,1,7.14,7.14,0,0,1,3.79,2.44c2.81,3.6,1.24,9.31-3.5,12.74a13.31,13.31,0,0,1-4,2,6.78,6.78,0,0,1,1.41,1.32c2.81,3.6,1.24,9.31-3.51,12.74a13,13,0,0,1-5.45,2.32c-10.19,3.54-27.26,7.88-50,14.5Z" style="fill: #39b54a;stroke: #3a3632;stroke-width: 12.6970802767433px"/>
    <path d="M679.6,1256.37c20.41-9.63,40.79-18.93,48.55-21.48a13.75,13.75,0,0,1,6.12-1.56c6.42-.15,11.87,3.78,12.18,8.78a7.18,7.18,0,0,1-.19,2.08,14.18,14.18,0,0,1,4.75-.92c6.42-.16,11.88,3.78,12.18,8.78a7.34,7.34,0,0,1-1.34,4.63,15.33,15.33,0,0,1,2.18-.22c6.42-.15,11.87,3.78,12.18,8.79.25,4.16-3.15,7.74-8,8.91,5,.95,8.8,4.36,9,8.52.31,5-4.65,9.18-11.07,9.33a14.54,14.54,0,0,1-2.2-.12,7.82,7.82,0,0,1,1.9,4.56c.31,5-4.65,9.18-11.07,9.33a14.75,14.75,0,0,1-4.85-.7,7.22,7.22,0,0,1,.44,2.06c.31,5-4.65,9.18-11.07,9.33a14.38,14.38,0,0,1-6.37-1.3c-11.4-3.12-29.51-9.82-54.15-18Z" style="fill: #39b54a;stroke: #3a3632;stroke-width: 13.9172165752517px"/>
    <path d="M723.9,1174.5c1.71,14.92,3.23,29.75,3.18,35.19a9.1,9.1,0,0,1-.33,4.19c-1.27,4.08-4.91,6.68-8.13,5.8a4.68,4.68,0,0,1-1.27-.56,9.47,9.47,0,0,1-.43,3.19c-1.27,4.08-4.91,6.68-8.13,5.8a4.81,4.81,0,0,1-2.63-1.83,10.76,10.76,0,0,1-.33,1.42c-1.28,4.08-4.92,6.68-8.13,5.8-2.68-.72-4.22-3.63-3.92-6.94-1.66,2.94-4.62,4.62-7.3,3.89-3.22-.87-4.79-4.88-3.52-9a9.63,9.63,0,0,1,.54-1.36,5.21,5.21,0,0,1-3.28.22c-3.21-.87-4.79-4.89-3.51-9a9.74,9.74,0,0,1,1.48-2.91,4.44,4.44,0,0,1-1.4-.16c-3.22-.87-4.79-4.89-3.52-9a9.44,9.44,0,0,1,2.18-3.74c4.4-6.52,12.48-16.51,22.87-30.3Z" style="fill: #39b54a;stroke: #3a3632;stroke-width: 9.26033361877146px"/>
    <path d="M724.77,1129.32c18.63,8.62,37,17.42,43.32,21.34a12.72,12.72,0,0,1,4.66,3.37c3.85,4.39,4.29,10.49,1,13.62a6.56,6.56,0,0,1-1.57,1.08,12.72,12.72,0,0,1,3.42,2.78c3.86,4.39,4.3,10.49,1,13.62a6.63,6.63,0,0,1-4,1.77,14.28,14.28,0,0,1,1.42,1.39c3.85,4.39,4.29,10.49,1,13.62-2.76,2.61-7.24,2.33-10.89-.37,2.25,4,2.1,8.69-.66,11.29-3.31,3.13-9.11,2.11-13-2.28a15.17,15.17,0,0,1-1.2-1.6,7.21,7.21,0,0,1-2.07,4c-3.31,3.13-9.12,2.1-13-2.29a13.34,13.34,0,0,1-2.34-3.8,6.67,6.67,0,0,1-1.18,1.52c-3.31,3.13-9.12,2.11-13-2.28a13.09,13.09,0,0,1-2.81-5.2c-4.48-9.79-10.37-26.33-19.07-48.27Z" style="fill: #39b54a;stroke: #3a3632;stroke-width: 12.6593851973434px"/>
    <path d="M761.58,1156.61c5.43-12.1,11-24,13.46-28.13a8.07,8.07,0,0,1,2.14-3c2.8-2.52,6.74-2.85,8.79-.73a4.33,4.33,0,0,1,.71,1,8.13,8.13,0,0,1,1.76-2.23c2.81-2.52,6.75-2.85,8.79-.73a4.24,4.24,0,0,1,1.17,2.58,8.67,8.67,0,0,1,.89-.93c2.81-2.52,6.75-2.85,8.79-.74,1.71,1.77,1.56,4.66-.16,7,2.59-1.48,5.6-1.42,7.3.34,2,2.11,1.43,5.87-1.38,8.39a8.22,8.22,0,0,1-1,.79,4.63,4.63,0,0,1,2.59,1.31c2,2.11,1.43,5.87-1.38,8.39a8.49,8.49,0,0,1-2.44,1.54,4.24,4.24,0,0,1,1,.75c2,2.12,1.43,5.88-1.38,8.4a8.41,8.41,0,0,1-3.34,1.85c-6.28,3-16.92,6.89-31,12.67Z" style="fill: #39b54a;stroke: #3a3632;stroke-width: 8.17574189091168px"/>
    <path d="M781.72,1049.61c11.35,10.25,22.5,20.58,26.12,24.77a9.24,9.24,0,0,1,2.58,3.42c1.77,4,.73,8.42-2.32,9.92a4.6,4.6,0,0,1-1.35.42,9.8,9.8,0,0,1,1.83,2.74c1.77,4,.73,8.41-2.32,9.91a4.92,4.92,0,0,1-3.25.37,10.93,10.93,0,0,1,.71,1.31c1.77,4,.73,8.42-2.32,9.92-2.53,1.24-5.66,0-7.66-2.67.71,3.36-.43,6.64-3,7.89-3,1.5-7-.51-8.73-4.49a9.91,9.91,0,0,1-.5-1.41,5.28,5.28,0,0,1-2.36,2.38c-3,1.5-7-.51-8.73-4.49a10.08,10.08,0,0,1-.83-3.22,5.35,5.35,0,0,1-1.17.82c-3.05,1.49-7-.52-8.73-4.5a9.79,9.79,0,0,1-.86-4.32c-1-8-1.56-21-2.91-38.58Z" style="fill: #39b54a;stroke: #3a3632;stroke-width: 9.43849440236612px"/>
    <path d="M837.82,968.09c8.5,16.78,16.74,33.54,19,39.94a11.38,11.38,0,0,1,1.44,5.07c.28,5.34-2.86,10-7,10.35a5.6,5.6,0,0,1-1.74-.11,12,12,0,0,1,.89,3.94c.27,5.35-2.87,10-7,10.36a6.18,6.18,0,0,1-3.9-1,13.15,13.15,0,0,1,.24,1.81c.27,5.35-2.87,10-7,10.36-3.46.31-6.53-2.44-7.62-6.45-.67,4.17-3.42,7.43-6.88,7.75-4.16.37-7.76-3.66-8-9a12.32,12.32,0,0,1,.05-1.83,6.61,6.61,0,0,1-3.76,1.69c-4.16.37-7.75-3.66-8-9a12,12,0,0,1,.47-4.06,6,6,0,0,1-1.71.42c-4.16.38-7.76-3.66-8-9a12.1,12.1,0,0,1,.92-5.34c2.34-9.58,7.49-24.82,13.69-45.54Z" style="fill: #39b54a;stroke: #3a3632;stroke-width: 11.6005016675932px"/>
    <path d="M850.33,977.86c11.14,2.52,22.17,5.16,26.06,6.56a7,7,0,0,1,2.93,1.29c2.61,1.94,3.56,5.21,2.12,7.3a3.52,3.52,0,0,1-.72.77,7.14,7.14,0,0,1,2.18,1.11c2.61,1.94,3.56,5.21,2.12,7.3a3.68,3.68,0,0,1-2,1.43,8.51,8.51,0,0,1,.93.59c2.61,1.94,3.56,5.21,2.12,7.3-1.19,1.74-3.66,2.11-6,1.07,1.69,1.92,2.15,4.48,1,6.22-1.44,2.09-4.72,2.21-7.33.27a8.45,8.45,0,0,1-.84-.73,4,4,0,0,1-.66,2.41c-1.44,2.09-4.72,2.21-7.32.27a7.27,7.27,0,0,1-1.72-1.79,3.72,3.72,0,0,1-.47,1c-1.43,2.09-4.71,2.21-7.32.27a7.42,7.42,0,0,1-2.14-2.5c-3.57-4.8-8.71-13.12-16-24Z" style="fill: #39b54a;stroke: #3a3632;stroke-width: 7.04482775850249px"/>
    <path d="M785.52,954.53c5.92-16.09,12-32,14.85-37.5a10.48,10.48,0,0,1,2.49-4.11c3.4-3.5,8.44-4.27,11.27-1.73a5.34,5.34,0,0,1,1,1.23,10.59,10.59,0,0,1,2.08-3c3.4-3.51,8.44-4.28,11.27-1.74a5.65,5.65,0,0,1,1.75,3.23,10.42,10.42,0,0,1,1.06-1.28c3.4-3.5,8.45-4.28,11.27-1.73,2.36,2.12,2.43,5.87.43,9.09,3.2-2.14,7.08-2.33,9.44-.21,2.83,2.54,2.37,7.45-1,11a12.9,12.9,0,0,1-1.25,1.11,6,6,0,0,1,3.46,1.45c2.83,2.55,2.37,7.45-1,11a11.33,11.33,0,0,1-3,2.21,5.85,5.85,0,0,1,1.34.88c2.83,2.55,2.36,7.45-1,11a11,11,0,0,1-4.14,2.69c-7.85,4.38-21.22,10.4-38.9,19.12Z" style="fill: #39b54a;stroke: #3a3632;stroke-width: 10.5732883798516px"/>
    <path d="M724.16,1049.09c9.46,15.8,18.66,31.6,21.35,37.69a11.18,11.18,0,0,1,1.76,4.85c.64,5.2-2.11,9.95-6.15,10.6a5.7,5.7,0,0,1-1.7,0,11.65,11.65,0,0,1,1.14,3.79c.64,5.2-2.11,9.94-6.15,10.59a6,6,0,0,1-3.87-.71,12,12,0,0,1,.35,1.75c.64,5.2-2.11,9.95-6.15,10.6-3.36.54-6.54-1.93-7.88-5.77-.37,4.11-2.83,7.5-6.19,8-4,.65-7.83-3-8.47-8.24a12.1,12.1,0,0,1-.08-1.79,6.44,6.44,0,0,1-3.55,1.91c-4,.65-7.83-3-8.47-8.24a12.08,12.08,0,0,1,.18-4,6.17,6.17,0,0,1-1.64.53c-4,.65-7.83-3-8.47-8.24a11.8,11.8,0,0,1,.54-5.28c1.62-9.51,5.6-24.75,10.22-45.42Z" style="fill: #39b54a;stroke: #3a3632;stroke-width: 11.3566826734086px"/>
    <path d="M684.37,1117.23c14,17.76,27.6,35.55,31.82,42.55a13.81,13.81,0,0,1,2.89,5.63c1.58,6.23-1,12.43-5.84,13.85a7,7,0,0,1-2.07.27,14.41,14.41,0,0,1,2,4.43c1.58,6.23-1,12.43-5.85,13.85a7.32,7.32,0,0,1-4.82-.27,14,14,0,0,1,.7,2.07c1.59,6.23-1,12.43-5.84,13.85-4,1.18-8.26-1.33-10.49-5.8.2,5.07-2.28,9.56-6.28,10.74-4.81,1.42-10-2.48-11.58-8.71a17,17,0,0,1-.38-2.17,7.8,7.8,0,0,1-4,2.87c-4.81,1.42-10-2.48-11.57-8.71a14.49,14.49,0,0,1-.4-4.9,7.17,7.17,0,0,1-1.92.9c-4.81,1.42-10-2.48-11.57-8.71a14.4,14.4,0,0,1-.17-6.51c.5-11.82,3-31,5.41-56.84Z" style="fill: #39b54a;stroke: #3a3632;stroke-width: 13.928856325616px"/>
    <path d="M664.38,1227.11c13.92,8.56,27.62,17.23,32.24,20.92a10,10,0,0,1,3.37,3.1c2.63,3.83,2.41,8.69-.5,10.85a5.24,5.24,0,0,1-1.34.71,10.15,10.15,0,0,1,2.45,2.52c2.63,3.83,2.41,8.69-.5,10.85a5.36,5.36,0,0,1-3.34,1,10.23,10.23,0,0,1,1,1.23c2.64,3.83,2.41,8.69-.5,10.86-2.42,1.8-5.94,1.16-8.57-1.32,1.4,3.39.85,7.06-1.57,8.87-2.91,2.16-7.41.81-10-3a10.72,10.72,0,0,1-.8-1.38,5.7,5.7,0,0,1-2,3c-2.91,2.16-7.4.81-10-3a10.65,10.65,0,0,1-1.49-3.22,5.31,5.31,0,0,1-1.08,1.09c-2.91,2.16-7.4.81-10-3a10.36,10.36,0,0,1-1.74-4.37c-2.62-8.15-5.73-21.78-10.56-39.93Z" style="fill: #39b54a;stroke: #3a3632;stroke-width: 10.0747042966791px"/>
    <path d="M625.1,1267.68c20.43-.38,40.72-.5,48.07.28a12.36,12.36,0,0,1,5.64,1c5.36,2.25,8.4,7.53,6.8,11.77a6.69,6.69,0,0,1-.93,1.65,12.71,12.71,0,0,1,4.27,1c5.36,2.26,8.4,7.53,6.8,11.77a6.6,6.6,0,0,1-2.83,3.33,13.39,13.39,0,0,1,1.88.63c5.36,2.26,8.4,7.53,6.8,11.78-1.33,3.53-5.47,5.23-9.91,4.4,3.76,2.62,5.65,6.86,4.32,10.39-1.6,4.24-7.25,5.85-12.61,3.59a14.69,14.69,0,0,1-1.77-.9,7.11,7.11,0,0,1-.12,4.47c-1.6,4.24-7.25,5.85-12.61,3.59a13.4,13.4,0,0,1-3.75-2.38,6.45,6.45,0,0,1-.4,1.87c-1.6,4.24-7.24,5.85-12.6,3.59a12.88,12.88,0,0,1-4.78-3.43c-8.26-6.82-20.73-19.07-38.06-34.93Z" style="fill: #39b54a;stroke: #3a3632;stroke-width: 12.6013128995672px"/>
    <path d="M700.43,1411.73c-.24,11.93-.63,23.77-1.24,28a7.26,7.26,0,0,1-.71,3.26c-1.44,3.08-4.58,4.73-7,3.7a3.36,3.36,0,0,1-.94-.58,7.2,7.2,0,0,1-.68,2.47c-1.43,3.08-4.58,4.74-7,3.7a3.77,3.77,0,0,1-1.87-1.72,9.52,9.52,0,0,1-.41,1.08c-1.44,3.08-4.59,4.73-7,3.7-2-.86-2.93-3.31-2.35-5.88-1.61,2.14-4.13,3.14-6.16,2.29-2.44-1-3.25-4.36-1.81-7.44a8.24,8.24,0,0,1,.57-1,4.22,4.22,0,0,1-2.61-.17c-2.43-1-3.25-4.36-1.81-7.44a7.86,7.86,0,0,1,1.48-2.13,3.81,3.81,0,0,1-1.09-.28c-2.43-1-3.25-4.36-1.81-7.43a7.59,7.59,0,0,1,2.11-2.71c4.17-4.66,11.59-11.66,21.24-21.41Z" style="fill: #39b54a;stroke: #3a3632;stroke-width: 7.35627722133437px"/>
    <path d="M733.14,1355.3c8-12.35,16.15-24.5,19.59-28.58a8.84,8.84,0,0,1,2.86-3c3.51-2.29,7.89-2,9.78.7a4.77,4.77,0,0,1,.6,1.22,9.23,9.23,0,0,1,2.32-2.15c3.52-2.29,7.89-2,9.78.7a4.78,4.78,0,0,1,.84,3,10.06,10.06,0,0,1,1.14-.87c3.51-2.28,7.88-2,9.77.7,1.57,2.22.91,5.38-1.38,7.69,3.09-1.18,6.38-.6,7.95,1.62,1.89,2.67.57,6.69-2.95,9a9.7,9.7,0,0,1-1.26.69,5.12,5.12,0,0,1,2.62,1.88c1.89,2.67.57,6.69-2.94,9a9.74,9.74,0,0,1-2.94,1.28,4.75,4.75,0,0,1,1,1c1.88,2.67.56,6.69-3,9a9.47,9.47,0,0,1-4,1.46c-7.41,2.18-19.75,4.67-36.22,8.61Z" style="fill: #39b54a;stroke: #3a3632;stroke-width: 9.08182653219654px"/>
    <path d="M788.11,1269.88c6.3,16.41,12.35,32.78,13.88,38.95a10.72,10.72,0,0,1,.85,4.85c-.25,5-3.62,9-7.52,9a5.37,5.37,0,0,1-1.6-.27,11.14,11.14,0,0,1,.45,3.75c-.26,5-3.63,9-7.53,9a5.72,5.72,0,0,1-3.52-1.31,10.77,10.77,0,0,1,0,1.71c-.25,5-3.62,9-7.52,9-3.25,0-5.83-2.89-6.46-6.72-1,3.81-3.89,6.58-7.14,6.54-3.9,0-6.86-4.14-6.61-9.14a11.79,11.79,0,0,1,.22-1.7,6.07,6.07,0,0,1-3.65,1.22c-3.9,0-6.86-4.14-6.61-9.14a11.35,11.35,0,0,1,.83-3.73,6,6,0,0,1-1.63.23c-3.9,0-6.86-4.15-6.61-9.14a11.18,11.18,0,0,1,1.37-4.87c3.09-8.68,9.33-22.36,17.08-41Z" style="fill: #39b54a;stroke: #3a3632;stroke-width: 10.8391092957921px"/>
    <path d="M772.45,1226.57c-.3,21.76-.87,43.36-1.94,51.16a13.33,13.33,0,0,1-1.25,6c-2.58,5.63-8.3,8.69-12.76,6.84a7,7,0,0,1-1.72-1,13.66,13.66,0,0,1-1.21,4.51c-2.59,5.63-8.3,8.69-12.76,6.84a7.06,7.06,0,0,1-3.45-3.13,13.93,13.93,0,0,1-.73,2c-2.59,5.63-8.3,8.69-12.77,6.84-3.71-1.54-5.37-6-4.34-10.7-2.92,3.91-7.5,5.78-11.21,4.24-4.46-1.85-6-7.91-3.4-13.54a15.85,15.85,0,0,1,1-1.86,7.49,7.49,0,0,1-4.75-.28c-4.46-1.85-6-7.91-3.4-13.54a14.38,14.38,0,0,1,2.67-3.91,6.84,6.84,0,0,1-2-.49c-4.46-1.85-6-7.91-3.39-13.54a13.89,13.89,0,0,1,3.81-5c7.54-8.55,21-21.41,38.49-39.31Z" style="fill: #39b54a;stroke: #3a3632;stroke-width: 13.4195632660889px"/>
    <path d="M742,1214.35c15.87-8.39,31.72-16.53,37.79-18.84a11,11,0,0,1,4.81-1.46c5.1-.35,9.57,2.57,10,6.54a5.42,5.42,0,0,1-.08,1.66,11,11,0,0,1,3.75-.91c5.09-.36,9.57,2.57,10,6.53a5.78,5.78,0,0,1-.89,3.73,11.87,11.87,0,0,1,1.72-.25c5.1-.36,9.57,2.57,10,6.53.35,3.3-2.22,6.27-6,7.38,4,.56,7.16,3.14,7.51,6.43.42,4-3.36,7.47-8.46,7.82a12.76,12.76,0,0,1-1.75,0,6.2,6.2,0,0,1,1.68,3.55c.42,4-3.36,7.46-8.46,7.82a11.52,11.52,0,0,1-3.88-.39,6,6,0,0,1,.43,1.63c.42,4-3.36,7.46-8.46,7.81a11.42,11.42,0,0,1-5.11-.79c-9.17-2.07-23.8-6.73-43.68-12.3Z" style="fill: #39b54a;stroke: #3a3632;stroke-width: 11.0695536933702px"/>
    <path d="M792.81,1215.85c16.33-8.11,32.64-15.95,38.87-18.13a11,11,0,0,1,4.92-1.36c5.18-.23,9.65,2.86,10,6.9a5.54,5.54,0,0,1-.12,1.68,11.41,11.41,0,0,1,3.83-.83c5.18-.22,9.65,2.86,10,6.9a5.9,5.9,0,0,1-1,3.76,12.31,12.31,0,0,1,1.75-.21c5.19-.22,9.66,2.87,10,6.9.28,3.36-2.41,6.31-6.31,7.33,4,.69,7.18,3.38,7.45,6.74.33,4-3.61,7.49-8.79,7.71a11.69,11.69,0,0,1-1.78,0,6.29,6.29,0,0,1,1.61,3.65c.33,4-3.61,7.48-8.79,7.71a11.72,11.72,0,0,1-3.93-.49,6.18,6.18,0,0,1,.39,1.66c.33,4-3.61,7.49-8.79,7.71a11.5,11.5,0,0,1-5.17-.94c-9.26-2.34-24-7.46-44-13.63Z" style="fill: #39b54a;stroke: #3a3632;stroke-width: 11.2445280723141px"/>
    <path d="M821.05,1180.65c14-9.33,28.07-18.42,33.52-21.14a10.14,10.14,0,0,1,4.36-1.81c4.72-.81,9.18,1.5,10,5.16a5.07,5.07,0,0,1,.08,1.55,10.77,10.77,0,0,1,3.41-1.2c4.73-.81,9.18,1.5,10,5.16a5.44,5.44,0,0,1-.49,3.57,11.54,11.54,0,0,1,1.59-.39c4.72-.81,9.18,1.5,10,5.16.64,3-1.48,6.06-4.94,7.45,3.78.16,7,2.26,7.62,5.31.77,3.66-2.44,7.28-7.17,8.09a11.49,11.49,0,0,1-1.63.15,5.88,5.88,0,0,1,1.9,3.16c.77,3.66-2.44,7.29-7.17,8.09a10.71,10.71,0,0,1-3.66,0,5.62,5.62,0,0,1,.55,1.48c.77,3.66-2.44,7.28-7.16,8.09a10.83,10.83,0,0,1-4.84-.26c-8.77-1.08-22.87-4-42-7.39Z" style="fill: #39b54a;stroke: #3a3632;stroke-width: 10.3885824699303px"/>
    <path d="M793.16,1185.22c4.62-14.17,9.39-28.18,11.69-33.06a9.07,9.07,0,0,1,2-3.65c2.84-3.15,7.2-4,9.74-1.87a5,5,0,0,1,.91,1,9.2,9.2,0,0,1,1.71-2.71c2.84-3.15,7.2-4,9.74-1.87a4.89,4.89,0,0,1,1.62,2.75,10.33,10.33,0,0,1,.88-1.15c2.84-3.15,7.2-4,9.74-1.87,2.12,1.77,2.3,5,.66,7.89,2.71-2,6.08-2.26,8.2-.49,2.54,2.12,2.3,6.39-.54,9.55a9.88,9.88,0,0,1-1,1,5.18,5.18,0,0,1,3,1.15c2.54,2.12,2.3,6.4-.54,9.55a9.62,9.62,0,0,1-2.54,2,4.94,4.94,0,0,1,1.2.73c2.54,2.12,2.3,6.39-.54,9.54a9.62,9.62,0,0,1-3.51,2.48c-6.67,4.06-18.1,9.72-33.18,17.87Z" style="fill: #39b54a;stroke: #3a3632;stroke-width: 9.19311370691037px"/>
    <path d="M835,1093.5c16.83-.11,33.53,0,39.58.7a10.25,10.25,0,0,1,4.63.87c4.39,1.91,6.85,6.28,5.49,9.76a5.47,5.47,0,0,1-.78,1.35,10.49,10.49,0,0,1,3.51.86c4.39,1.91,6.84,6.28,5.48,9.76a5.44,5.44,0,0,1-2.36,2.71,11.77,11.77,0,0,1,1.54.54c4.39,1.91,6.85,6.28,5.49,9.76-1.14,2.9-4.56,4.26-8.21,3.53,3.07,2.2,4.59,5.71,3.46,8.6-1.36,3.48-6,4.75-10.42,2.84A10,10,0,0,1,881,1144a5.92,5.92,0,0,1-.14,3.68c-1.37,3.48-6,4.75-10.42,2.84a10.88,10.88,0,0,1-3.06-2,5.83,5.83,0,0,1-.35,1.54c-1.36,3.48-6,4.75-10.42,2.84a10.77,10.77,0,0,1-3.9-2.88c-6.73-5.69-16.89-15.9-31-29.14Z" style="fill: #39b54a;stroke: #3a3632;stroke-width: 10.3783936521259px"/>
    <path d="M848,1056.52c6,20.11,11.78,40.14,13.05,47.62a12.78,12.78,0,0,1,.58,5.85c-.75,5.93-5.12,10.4-9.76,10a6.56,6.56,0,0,1-1.88-.46,13.15,13.15,0,0,1,.19,4.5c-.74,5.93-5.11,10.4-9.76,10a6.81,6.81,0,0,1-4.07-1.88,15.65,15.65,0,0,1-.1,2c-.75,5.92-5.12,10.4-9.76,10-3.87-.35-6.69-4-7.1-8.59-1.56,4.45-5.22,7.5-9.09,7.16-4.64-.41-7.79-5.55-7.05-11.48a14.16,14.16,0,0,1,.41-2,7.36,7.36,0,0,1-4.45,1.12c-4.64-.41-7.8-5.55-7-11.48a13.43,13.43,0,0,1,1.32-4.36,6.79,6.79,0,0,1-2,.12c-4.65-.41-7.8-5.55-7-11.47a13.3,13.3,0,0,1,2.07-5.68c4.45-10.06,13.11-25.79,24-47.33Z" style="fill: #39b54a;stroke: #3a3632;stroke-width: 12.943848583207px"/>
    <path d="M838.85,1025.58c21.87,4,43.53,8.18,51.21,10.57a13.71,13.71,0,0,1,5.8,2.26c5.23,3.56,7.35,9.83,4.74,14a7.26,7.26,0,0,1-1.35,1.56,13.84,13.84,0,0,1,4.34,2c5.24,3.55,7.36,9.82,4.74,14a7.21,7.21,0,0,1-3.73,3,15.23,15.23,0,0,1,1.87,1.07c5.24,3.56,7.36,9.83,4.74,14-2.18,3.48-7,4.41-11.51,2.58,3.45,3.6,4.56,8.53,2.38,12-2.61,4.18-9,4.69-14.21,1.14a16.26,16.26,0,0,1-1.7-1.35,7.7,7.7,0,0,1-1.08,4.74c-2.62,4.18-9,4.69-14.21,1.14a14.46,14.46,0,0,1-3.49-3.34,7.19,7.19,0,0,1-.83,1.91c-2.61,4.18-9,4.69-14.21,1.14a14.28,14.28,0,0,1-4.37-4.69c-7.35-9-18-24.76-33.12-45.39Z" style="fill: #39b54a;stroke: #3a3632;stroke-width: 13.7073861559393px"/>
    <path d="M917.9,1012.76c1.76,12.92,3.35,25.75,3.41,30.47a7.86,7.86,0,0,1-.21,3.64c-1,3.57-4.14,5.89-7,5.19a3.91,3.91,0,0,1-1.11-.47,8.17,8.17,0,0,1-.31,2.78c-1,3.56-4.14,5.89-7,5.19a4.22,4.22,0,0,1-2.32-1.55,9.12,9.12,0,0,1-.26,1.24c-1,3.56-4.14,5.88-7,5.19-2.34-.59-3.72-3.08-3.52-6-1.39,2.58-3.93,4.09-6.27,3.51-2.8-.7-4.24-4.16-3.21-7.72a9.37,9.37,0,0,1,.44-1.19,4.56,4.56,0,0,1-2.84.26c-2.81-.7-4.25-4.16-3.22-7.72a8.74,8.74,0,0,1,1.23-2.55,4.14,4.14,0,0,1-1.21-.11c-2.81-.7-4.25-4.16-3.22-7.72a8.26,8.26,0,0,1,1.82-3.28c3.7-5.74,10.53-14.55,19.29-26.71Z" style="fill: #39b54a;stroke: #3a3632;stroke-width: 8.03631739043649px"/>
    <path d="M888.49,967.84c12.65-6.34,25.29-12.48,30.11-14.2a8.77,8.77,0,0,1,3.82-1.06c4-.19,7.5,2.19,7.77,5.32a4.41,4.41,0,0,1-.09,1.31,8.79,8.79,0,0,1,3-.66c4-.19,7.5,2.19,7.76,5.32a4.58,4.58,0,0,1-.77,2.93,8.57,8.57,0,0,1,1.36-.17c4-.19,7.5,2.19,7.77,5.32.22,2.61-1.85,4.91-4.87,5.72,3.13.51,5.58,2.59,5.8,5.2.27,3.13-2.78,5.82-6.8,6a9,9,0,0,1-1.38,0,4.91,4.91,0,0,1,1.26,2.82c.27,3.14-2.78,5.83-6.8,6a9.29,9.29,0,0,1-3.06-.37,4.06,4.06,0,0,1,.31,1.29c.27,3.13-2.77,5.82-6.8,6a9.05,9.05,0,0,1-4-.71c-7.2-1.79-18.65-5.72-34.22-10.45Z" style="fill: #39b54a;stroke: #3a3632;stroke-width: 8.72799792923249px"/>
    <path d="M915.53,922.9c15.6,10,31,20.07,36.11,24.35a11.26,11.26,0,0,1,3.76,3.57c2.9,4.4,2.55,9.9-.78,12.3a5.94,5.94,0,0,1-1.53.77,11.48,11.48,0,0,1,2.72,2.9c2.91,4.39,2.56,9.89-.78,12.29a6,6,0,0,1-3.81,1.09,13.07,13.07,0,0,1,1.1,1.42c2.91,4.39,2.56,9.9-.78,12.29-2.78,2-6.75,1.2-9.68-1.66,1.51,3.87.81,8-2,10-3.34,2.4-8.4.78-11.31-3.62a12.25,12.25,0,0,1-.88-1.57,6.5,6.5,0,0,1-2.33,3.31c-3.34,2.39-8.41.77-11.32-3.62a12.24,12.24,0,0,1-1.63-3.68,5.7,5.7,0,0,1-1.24,1.21c-3.34,2.4-8.4.78-11.31-3.62a11.69,11.69,0,0,1-1.88-5c-2.81-9.28-6.06-24.78-11.16-45.45Z" style="fill: #39b54a;stroke: #3a3632;stroke-width: 11.4172471009451px"/>
    <path d="M951.6,870.62c6,13.35,11.86,26.67,13.43,31.73a8.83,8.83,0,0,1,1,4c0,4.17-2.58,7.67-5.83,7.82a4.6,4.6,0,0,1-1.34-.15,9.33,9.33,0,0,1,.55,3.1c0,4.17-2.58,7.67-5.83,7.81a4.72,4.72,0,0,1-3-.92,10.87,10.87,0,0,1,.12,1.42c0,4.17-2.58,7.67-5.83,7.81-2.7.12-5-2.12-5.7-5.28-.67,3.22-2.92,5.67-5.63,5.79-3.24.15-5.9-3.11-5.93-7.28a9.64,9.64,0,0,1,.09-1.43,5,5,0,0,1-3,1.19c-3.24.15-5.9-3.11-5.94-7.28a9.66,9.66,0,0,1,.51-3.14,4.68,4.68,0,0,1-1.34.26c-3.25.15-5.91-3.11-5.94-7.28a9.34,9.34,0,0,1,.9-4.12c2.15-7.37,6.68-19,12.22-35Z" style="fill: #39b54a;stroke: #3a3632;stroke-width: 9.03428998105373px"/>
    <path d="M983.27,845.47c8.6,13.77,17,27.54,19.44,32.86a9.86,9.86,0,0,1,1.63,4.24c.65,4.58-1.7,8.8-5.24,9.44a5.05,5.05,0,0,1-1.5,0,10.27,10.27,0,0,1,1.06,3.32c.65,4.57-1.7,8.8-5.24,9.44a5.28,5.28,0,0,1-3.42-.57,10.49,10.49,0,0,1,.33,1.54c.65,4.57-1.69,8.8-5.24,9.44-3,.53-5.79-1.59-7-5-.25,3.64-2.37,6.66-5.32,7.19-3.54.64-7-2.55-7.6-7.12a12.08,12.08,0,0,1-.1-1.58,5.6,5.6,0,0,1-3.09,1.74c-3.55.64-7-2.54-7.6-7.12a10.59,10.59,0,0,1,.09-3.52,5.15,5.15,0,0,1-1.43.49c-3.55.64-7-2.55-7.6-7.12a10.15,10.15,0,0,1,.39-4.66c1.27-8.4,4.52-21.9,8.25-40.18Z" style="fill: #39b54a;stroke: #3a3632;stroke-width: 10.0078311050308px"/>
    <path d="M972.76,834.57c12.55-17.92,25.24-35.56,30.55-41.44a13.24,13.24,0,0,1,4.41-4.25c5.33-3.22,11.82-2.53,14.48,1.53a7,7,0,0,1,.84,1.85,13.55,13.55,0,0,1,3.56-3.07c5.33-3.22,11.81-2.53,14.48,1.53a7.17,7.17,0,0,1,1.1,4.55,14.75,14.75,0,0,1,1.72-1.23c5.34-3.21,11.82-2.52,14.48,1.54,2.22,3.38,1.08,8-2.44,11.35,4.65-1.6,9.51-.56,11.73,2.82,2.66,4.06.49,10-4.84,13.18a13.65,13.65,0,0,1-1.91,1,7.67,7.67,0,0,1,3.8,2.93c2.66,4.06.49,10-4.84,13.18a14.39,14.39,0,0,1-4.43,1.74,6.84,6.84,0,0,1,1.37,1.52c2.66,4.07.5,10-4.84,13.18a13.92,13.92,0,0,1-6,2c-11.11,2.85-29.58,5.92-54.24,10.92Z" style="fill: #39b54a;stroke: #3a3632;stroke-width: 13.4967985313399px"/>
  </g>
</svg>
