<svg xmlns="http://www.w3.org/2000/svg" xmlns:xlink="http://www.w3.org/1999/xlink" height="1924.006" width="1615.09" xmlns:v="https://vecta.io/nano"><style><![CDATA[.B{stroke:#231f20}.C{stroke-width:24}.D{stroke-miterlimit:10}.E{stroke-linecap:round}]]></style><g fill="#fff" class="B C"><g stroke-linejoin="round"><path d="M770.33 1180.686l387.4 39.45-597.07 226.35-548.65-68z"/><path d="M33.4 1378.666l29.43 415.1 490.16 118.25 7.56-465.16z"/><path d="M560.55 1446.846l571.27-223.64-36.38 381.52L553 1912.006z"/></g><use xlink:href="#B" class="D"/></g><path d="M1358.7 731.046l32-54.23q4.8-8.1 10.62-10.4a12.6 12.6 0 0 1 11.49 1.07 14 14 0 0 1 6.63 8.46q1.55 5.46-2.5 12.3l-45.1 76.46q-4.6 7.78-11.48 9.6a16 16 0 0 1-12.71-1.62q-3.74-2.2-8.26-8.65a41.25 41.25 0 0 1-6.1-11.86q-6.18-22.28-9.86-39.42-3.68-17.14-4.07-23.83a107.07 107.07 0 0 0-3.74-21.32 56.06 56.06 0 0 0-7.38-16 34.39 34.39 0 0 0-10.77-10.35 26.2 26.2 0 0 0-13.76-3.84 25.48 25.48 0 0 0-13.24 3.81 28.76 28.76 0 0 0-9.93 10.18q-8 13.6-.68 28.44.95 2 6.47 8.5 5.52 6.5 7.45 11.8 1.93 5.28-1.56 11.2a13.52 13.52 0 0 1-8.51 6.6q-5.46 1.4-11.38-2.08a45.45 45.45 0 0 1-13-12.05 49.7 49.7 0 0 1-8.46-17.94 55.31 55.31 0 0 1-.68-22.24q1.9-12.12 9.68-25.3 9.38-15.88 21-24.17a47.36 47.36 0 0 1 16.68-7.38 49.77 49.77 0 0 1 36.15 5.64 51.55 51.55 0 0 1 19.66 20.21q6.78 12.62 8.83 22.78 2.05 10.16 5.6 33.34 3.55 23.17 7.2 33.16a68.66 68.66 0 0 0 3.72 9.11z" fill="#231f20"/><g class="B C D"><use xlink:href="#C" fill="none" class="E"/><use xlink:href="#B" fill="#fff"/></g><path d="M1376.4 724.546l-94.53-55.77q4.7 38.34-.7 47.48a12.18 12.18 0 0 1-8 5.68 13 13 0 0 1-10-1.37q-5.3-3.12-5.83-7.92-.53-4.8.5-15.54 1.48-16.05-.6-27.45a99.07 99.07 0 0 0-6.77-22q-4.68-10.6-5.5-13.46c-.56-1.9.13-4.5 2-7.75a12.35 12.35 0 0 1 9.46-6.32q6.23-.8 13.7 3.6l118.94 70.16q20.88 12.32 12.5 26.55a15.2 15.2 0 0 1-10.27 7.67q-6.56 1.38-14.87-3.56z" fill="#231f20"/><use xlink:href="#C" fill="none" class="B C D E"/><g fill="#fff"><path d="M602.7 1392.366c-4.7-110.6 51.15-337.75 210.3-386 0 0 36.9-32.06 29.73-31.2-335.56 39.93-392.73 299.22-400.92 404.38"/><path d="M505.2 1012.156l33.7 16.32a6.07 6.07 0 0 0 8.43-7.37l-11.06-33.18a6.1 6.1 0 0 0-9.48-3l-22.64 16.85a6.19 6.19 0 0 0 1 10.36zm48.8-25.45c1.93 6.14 10.36 7 13.34 1.4l20-36.7a7.27 7.27 0 0 0-5.09-10.71l-33.18-6.14a7.23 7.23 0 0 0-8.25 9.3zm9.82 23.87l-5.44 24.22c-.88 3.5 3 6.15 6.14 4.4l19.84-12.1a4 4 0 0 0 .52-6.49l-14.2-12.1a4.17 4.17 0 0 0-6.85 2.09z"/></g><path d="M441.4 1383.286c6.5-106.06 59-388.76 418.42-420.14m-46.82 51.2c-154.63 46.84-211.75 256.32-210.56 368.57" fill="none" class="B C D E"/><defs ><path id="B" d="M1494.5 789.806c142.33-241.32 181.12-600.46-110.6-772.54-68.7-40.53-270.44 157.14-441.4 446.93l-.48.8c-170.94 289.8-246.37 562-177.66 602.5 291.7 172.07 587.28-35.55 729.65-276.9"/><path id="C" d="M1359.88 48.866c32.92 19.42-47.9 267.9-207.77 538.94l-.5.86c-159.87 271-338.27 462-371.2 442.54"/></defs></svg>