<?xml version="1.0" encoding="UTF-8"?>
<svg xmlns="http://www.w3.org/2000/svg" viewBox="0 0 2000 2000">
  <defs>
    <style>
      .cls-1, .cls-2 {
        stroke-width: 24px;
      }

      .cls-1, .cls-2, .cls-3, .cls-4 {
        stroke-linecap: round;
        stroke-linejoin: round;
      }

      .cls-1, .cls-2, .cls-3, .cls-4, .cls-5 {
        fill: none;
      }

      .cls-1, .cls-3, .cls-4 {
        stroke: #ee4036;
      }

      .cls-2, .cls-6, .cls-5 {
        stroke: #221f1f;
      }

      .cls-6 {
        fill: #fff;
      }

      .cls-6, .cls-3, .cls-4, .cls-5 {
        stroke-width: 10px;
      }

      .cls-6, .cls-5 {
        stroke-miterlimit: 10;
      }

      .cls-3 {
        stroke-dasharray: 0 0 62.11 31.05;
      }

      .cls-7 {
        fill: #231f20;
        stroke-width: 0px;
      }
    </style>
  </defs>
  <g id="Layer_1" data-name="Layer 1">
    <g id="layer2">
      <path id="path839" class="cls-7" d="m1200.89,806.09l-203.2,527.34c167,83.3,404.24,11.21,466.33-150.73,54.42-141.91-11.54-303.09-148.82-386.96-64.31-39.64-126.22-83.05-185.4-130.01L594.65,245.6c-.92-.74-1.77-1.55-2.54-2.44-1.22-1.37-2.54-2.64-3.96-3.81-29.22-23.94-76.18-78.46-57.1-119.71,24.15-52.23,93.47-26.55,128.66-2.46,16.58,11.28,35.38,26.21,54.3,19.49,18.92-6.72,24.09-32.9,14.95-50.97-9.14-18.07-27.39-28.75-45.3-37.57-45.42-22.01-102.77-41.23-152.12-21.41-18.55,7.63-34.73,20.07-46.88,36.03h0c-18.56,24.37-27.58,54.67-25.37,85.22,3.69,53.72,37.36,104.07,76.84,138.96.74.69,1.44,1.43,2.08,2.21.97,1.18,2.04,2.28,3.19,3.28l659.5,513.67Z"/>
    </g>
  </g>
  <g id="Isolation_Mode" data-name="Isolation Mode">
    <g>
      <polygon class="cls-6" points="472.94 1631.65 587.2 1961.97 982.77 1961.97 1097.03 1631.65 1045.02 1605.8 993.02 1631.65 941.01 1605.8 889 1631.65 836.99 1605.8 784.99 1631.65 732.98 1605.8 680.97 1631.65 628.96 1605.8 576.96 1631.65 524.95 1605.8 472.94 1631.65"/>
      <line class="cls-5" x1="784.99" y1="1631.65" x2="784.99" y2="1961.97"/>
      <line class="cls-5" x1="889" y1="1631.65" x2="850.92" y2="1961.97"/>
      <line class="cls-5" x1="993.02" y1="1631.65" x2="916.84" y2="1961.97"/>
      <line class="cls-5" x1="680.97" y1="1631.65" x2="719.06" y2="1961.97"/>
      <line class="cls-5" x1="576.96" y1="1631.65" x2="653.13" y2="1961.97"/>
    </g>
    <g>
      <path class="cls-2" d="m785.04,1561.01v-160.37c0-250.6,236.49-277.35,236.49-277.35"/>
      <polyline class="cls-2" points="863.21 1468.88 785.04 1561.01 706.88 1468.88"/>
    </g>
    <g>
      <path class="cls-1" d="m1285.65,1657.33s346.8,0,443.68,0"/>
      <polyline class="cls-1" points="1393.87 1749.15 1285.65 1657.33 1393.87 1565.52"/>
    </g>
    <g>
      <line class="cls-4" x1="1203.17" y1="1657.33" x2="1173.17" y2="1657.33"/>
      <line class="cls-3" x1="1142.12" y1="1657.33" x2="412.33" y2="1657.33"/>
      <line class="cls-4" x1="396.8" y1="1657.33" x2="366.8" y2="1657.33"/>
    </g>
  </g>
</svg>