<svg id="Layer_1" data-name="Layer 1" xmlns="http://www.w3.org/2000/svg" width="2000" height="2000" viewBox="0 0 2000 2000">
  <g>
    <g>
      <g>
        <path d="M890.69,1972.77c326.16,0,709.13-173.54,709.13-567.77,0-92.86-317.49-178.21-709.14-178.21h-1.09c-391.64,0-709.13,85.35-709.13,178.21,0,394.23,383,567.77,709.13,567.77Z" style="fill: #fff;stroke: #3a3632;stroke-miterlimit: 10;stroke-width: 20px"/>
        <path d="M964.72,1814.6q0,15.24-17.25,15.24H838.21q-7.47,0-11.78-4.46a15.28,15.28,0,0,1-4.32-11.07q0-8.62,6.62-15.52l65.55-70.44q12.08-13.21,17.68-24.29a48.33,48.33,0,0,0,5.61-22q0-13.51-7.77-20.7t-22.14-7.19a60.61,60.61,0,0,0-22.85,4.46,113.85,113.85,0,0,0-22.28,12.22,35.67,35.67,0,0,1-5.75,3.3,13.84,13.84,0,0,1-5.75,1.3c-3.27,0-6.09-1.53-8.49-4.6a17.24,17.24,0,0,1-3.59-10.93,16.58,16.58,0,0,1,1.58-7.47,19.16,19.16,0,0,1,5-6,99.72,99.72,0,0,1,29.62-16,103,103,0,0,1,33.92-5.89q29.61,0,47.3,15t17.68,40.25a74.37,74.37,0,0,1-7.48,32.92q-7.47,15.39-25.3,34.36l-49.74,52.9h75.91Q964.72,1799.94,964.72,1814.6Z" style="fill: #3a3632"/>
        <path d="M1553.93,1399.6c0,44.5-296.93,110.43-663.21,110.43h-1.16c-366.28,0-663.21-65.93-663.21-110.43" style="fill: none;stroke: #3a3632;stroke-linecap: round;stroke-miterlimit: 10;stroke-width: 20px"/>
      </g>
      <g>
        <path d="M1809.19,188.55l-724,807.36c-22.8,25.42-56.27,21.48-74.2-7.88L909,821.15c-14.2-23.25-9.63-59.2,9.83-80.9L1537,51c19.46-21.7,54.7-30.14,79.36-18.55l176.94,83.21C1824.45,130.29,1832,163.13,1809.19,188.55Z" style="fill: #fff;stroke: #3a3632;stroke-miterlimit: 10;stroke-width: 20px"/>
        <path d="M1706.83,161.56c-10.71,11.93-30.64,15.56-44.33,8.2l-81-43.53c-12.23-6.58-14-20.81-4-31.87s28-15,40.46-8.73l82.78,41.52C1714.71,134.17,1717.54,149.62,1706.83,161.56Z" style="fill: #fff;stroke: #3a3632;stroke-miterlimit: 10;stroke-width: 20px"/>
      </g>
    </g>
    <g>
      <g>
        <polygon points="1041.57 736.51 1088.54 786.18 1041 835.62 1012.32 843.6 972.42 792.16 1012.89 744.5 1041.57 736.51" style="fill: #c93c27;stroke: #3a3632;stroke-linecap: round;stroke-linejoin: round;stroke-width: 10px"/>
        <g>
          <polyline points="1026.24 802.75 1014.27 787.01 1026.32 771.63" style="fill: #c93c27;stroke: #3a3632;stroke-linecap: round;stroke-linejoin: round;stroke-width: 10px"/>
          <line x1="1014.27" y1="787.01" x2="997.74" y2="791.42" style="fill: #c93c27;stroke: #3a3632;stroke-linecap: round;stroke-linejoin: round;stroke-width: 10px"/>
        </g>
      </g>
      <g>
        <polygon points="972.09 830.67 1011.44 877.55 966.33 919.23 940.28 924.85 907.34 876.75 946.04 836.29 972.09 830.67" style="fill: #c93c27;stroke: #3a3632;stroke-linecap: round;stroke-linejoin: round;stroke-width: 10px"/>
        <g>
          <polyline points="957.05 894.09 947.41 874.32 959.46 858.93" style="fill: #c93c27;stroke: #3a3632;stroke-linecap: round;stroke-linejoin: round;stroke-width: 10px"/>
          <line x1="947.41" y1="874.32" x2="929.63" y2="877.08" style="fill: #c93c27;stroke: #3a3632;stroke-linecap: round;stroke-linejoin: round;stroke-width: 10px"/>
        </g>
      </g>
      <g>
        <polygon points="1049.26 813.81 1096.23 863.48 1048.69 912.92 1020.01 920.9 980.12 869.47 1020.59 821.8 1049.26 813.81" style="fill: #c93c27;stroke: #3a3632;stroke-linecap: round;stroke-linejoin: round;stroke-width: 10px"/>
        <polyline points="1040.27 885.65 1021.79 861.38 1040.38 837.65" style="fill: #c93c27;stroke: #3a3632;stroke-linecap: round;stroke-linejoin: round;stroke-width: 10px"/>
        <line x1="1021.79" y1="861.38" x2="996.31" y2="868.17" style="fill: #c93c27;stroke: #3a3632;stroke-linecap: round;stroke-linejoin: round;stroke-width: 10px"/>
      </g>
      <g>
        <polygon points="1001.96 1159.88 977.79 1223.81 912.56 1202.63 892.85 1180.32 921.71 1121.97 982.26 1137.56 1001.96 1159.88" style="fill: #c93c27;stroke: #3a3632;stroke-linecap: round;stroke-linejoin: round;stroke-width: 10px"/>
        <polyline points="933.41 1183.15 947.18 1155.93 976.64 1162.3" style="fill: #c93c27;stroke: #3a3632;stroke-linecap: round;stroke-linejoin: round;stroke-width: 10px"/>
        <line x1="947.18" y1="1155.93" x2="929.94" y2="1135.97" style="fill: #c93c27;stroke: #3a3632;stroke-linecap: round;stroke-linejoin: round;stroke-width: 10px"/>
      </g>
      <g>
        <polygon points="1111.89 744.24 1144.82 779.07 1111.49 813.74 1091.38 819.34 1063.4 783.27 1091.78 749.84 1111.89 744.24" style="fill: #c93c27;stroke: #3a3632;stroke-linecap: round;stroke-linejoin: round;stroke-width: 10px"/>
        <g>
          <polyline points="1108.84 794.09 1096.86 778.36 1108.91 762.97" style="fill: #c93c27;stroke: #3a3632;stroke-linecap: round;stroke-linejoin: round;stroke-width: 10px"/>
          <line x1="1096.86" y1="778.36" x2="1080.33" y2="782.76" style="fill: #c93c27;stroke: #3a3632;stroke-linecap: round;stroke-linejoin: round;stroke-width: 10px"/>
        </g>
      </g>
      <g>
        <polygon points="1135.7 776.9 1172.37 815.68 1135.26 854.28 1112.87 860.51 1081.72 820.35 1113.31 783.14 1135.7 776.9" style="fill: #c93c27;stroke: #3a3632;stroke-linecap: round;stroke-linejoin: round;stroke-width: 10px"/>
        <g>
          <polyline points="1132.31 832.41 1118.97 814.88 1132.39 797.75" style="fill: #c93c27;stroke: #3a3632;stroke-linecap: round;stroke-linejoin: round;stroke-width: 10px"/>
          <line x1="1118.97" y1="814.88" x2="1100.57" y2="819.79" style="fill: #c93c27;stroke: #3a3632;stroke-linecap: round;stroke-linejoin: round;stroke-width: 10px"/>
        </g>
      </g>
      <g>
        <polygon points="861.14 1099.53 897.81 1138.31 860.69 1176.91 838.3 1183.15 807.15 1142.98 838.75 1105.77 861.14 1099.53" style="fill: #c93c27;stroke: #3a3632;stroke-linecap: round;stroke-linejoin: round;stroke-width: 10px"/>
        <g>
          <polyline points="857.74 1155.04 844.41 1137.52 857.83 1120.39" style="fill: #c93c27;stroke: #3a3632;stroke-linecap: round;stroke-linejoin: round;stroke-width: 10px"/>
          <line x1="844.41" y1="1137.52" x2="826.01" y2="1142.42" style="fill: #c93c27;stroke: #3a3632;stroke-linecap: round;stroke-linejoin: round;stroke-width: 10px"/>
        </g>
      </g>
      <g>
        <polygon points="909.91 1210.33 918.87 1262.95 866.56 1274.43 844.48 1267.18 840.88 1216.48 887.83 1203.08 909.91 1210.33" style="fill: #c93c27;stroke: #3a3632;stroke-linecap: round;stroke-linejoin: round;stroke-width: 10px"/>
        <g>
          <polyline points="876.26 1254.6 874.9 1232.63 895.58 1225.84" style="fill: #c93c27;stroke: #3a3632;stroke-linecap: round;stroke-linejoin: round;stroke-width: 10px"/>
          <line x1="874.9" y1="1232.62" x2="856.88" y2="1226.48" style="fill: #c93c27;stroke: #3a3632;stroke-linecap: round;stroke-linejoin: round;stroke-width: 10px"/>
        </g>
      </g>
      <g>
        <polygon points="897.29 1008.46 930.6 1050.16 890.39 1085.53 867.56 1089.88 839.87 1047.25 874.46 1012.8 897.29 1008.46" style="fill: #c93c27;stroke: #3a3632;stroke-linecap: round;stroke-linejoin: round;stroke-width: 10px"/>
        <g>
          <polyline points="889.28 1063.48 877.45 1044.91 892.25 1028.96" style="fill: #c93c27;stroke: #3a3632;stroke-linecap: round;stroke-linejoin: round;stroke-width: 10px"/>
          <line x1="877.45" y1="1044.91" x2="858.7" y2="1048.27" style="fill: #c93c27;stroke: #3a3632;stroke-linecap: round;stroke-linejoin: round;stroke-width: 10px"/>
        </g>
      </g>
      <g>
        <polygon points="1006.57 1291.01 989.81 1341.68 938.23 1327.29 922.13 1310.54 942.72 1264.07 990.47 1274.25 1006.57 1291.01" style="fill: #c93c27;stroke: #3a3632;stroke-linecap: round;stroke-linejoin: round;stroke-width: 10px"/>
        <g>
          <polyline points="956.09 1314.33 965.2 1294.28 986.64 1297.98" style="fill: #c93c27;stroke: #3a3632;stroke-linecap: round;stroke-linejoin: round;stroke-width: 10px"/>
          <line x1="965.2" y1="1294.28" x2="952.16" y2="1280.4" style="fill: #c93c27;stroke: #3a3632;stroke-linecap: round;stroke-linejoin: round;stroke-width: 10px"/>
        </g>
      </g>
      <g>
        <polygon points="783.05 1311.7 803.37 1262.36 853.8 1280.37 868.67 1298.23 844.82 1343.12 797.92 1329.57 783.05 1311.7" style="fill: #c93c27;stroke: #3a3632;stroke-linecap: round;stroke-linejoin: round;stroke-width: 10px"/>
        <g>
          <polyline points="835.06 1292.03 824.55 1311.38 803.42 1306.17" style="fill: #c93c27;stroke: #3a3632;stroke-linecap: round;stroke-linejoin: round;stroke-width: 10px"/>
          <line x1="824.55" y1="1311.38" x2="836.57" y2="1326.15" style="fill: #c93c27;stroke: #3a3632;stroke-linecap: round;stroke-linejoin: round;stroke-width: 10px"/>
        </g>
      </g>
      <g>
        <polygon points="985.3 921.02 1021.97 959.8 984.85 998.4 962.46 1004.63 931.31 964.47 962.91 927.26 985.3 921.02" style="fill: #c93c27;stroke: #3a3632;stroke-linecap: round;stroke-linejoin: round;stroke-width: 10px"/>
        <g>
          <polyline points="981.9 976.53 968.57 959 981.99 941.87" style="fill: #c93c27;stroke: #3a3632;stroke-linecap: round;stroke-linejoin: round;stroke-width: 10px"/>
          <line x1="968.57" y1="959" x2="950.17" y2="963.91" style="fill: #c93c27;stroke: #3a3632;stroke-linecap: round;stroke-linejoin: round;stroke-width: 10px"/>
        </g>
      </g>
      <g>
        <polygon points="1245.37 469.15 1292.34 518.81 1244.8 568.25 1216.13 576.24 1176.23 524.8 1216.7 477.13 1245.37 469.15" style="fill: #c93c27;stroke: #3a3632;stroke-linecap: round;stroke-linejoin: round;stroke-width: 10px"/>
        <g>
          <polyline points="1230.05 535.38 1218.07 519.65 1230.13 504.26" style="fill: #c93c27;stroke: #3a3632;stroke-linecap: round;stroke-linejoin: round;stroke-width: 10px"/>
          <line x1="1218.07" y1="519.65" x2="1201.55" y2="524.05" style="fill: #c93c27;stroke: #3a3632;stroke-linecap: round;stroke-linejoin: round;stroke-width: 10px"/>
        </g>
      </g>
      <g>
        <polygon points="1175.9 563.31 1215.25 610.19 1170.14 651.86 1144.08 657.48 1111.15 609.39 1149.84 568.93 1175.9 563.31" style="fill: #c93c27;stroke: #3a3632;stroke-linecap: round;stroke-linejoin: round;stroke-width: 10px"/>
        <g>
          <polyline points="1160.86 626.72 1151.21 606.95 1163.27 591.57" style="fill: #c93c27;stroke: #3a3632;stroke-linecap: round;stroke-linejoin: round;stroke-width: 10px"/>
          <line x1="1151.21" y1="606.95" x2="1133.43" y2="609.71" style="fill: #c93c27;stroke: #3a3632;stroke-linecap: round;stroke-linejoin: round;stroke-width: 10px"/>
        </g>
      </g>
      <g>
        <polygon points="1255.28 570.29 1302.24 619.95 1254.71 669.39 1226.03 677.38 1186.13 625.94 1226.6 578.27 1255.28 570.29" style="fill: #c93c27;stroke: #3a3632;stroke-linecap: round;stroke-linejoin: round;stroke-width: 10px"/>
        <polyline points="1246.28 642.12 1227.81 617.85 1246.4 594.12" style="fill: #c93c27;stroke: #3a3632;stroke-linecap: round;stroke-linejoin: round;stroke-width: 10px"/>
        <line x1="1227.81" y1="617.85" x2="1202.32" y2="624.64" style="fill: #c93c27;stroke: #3a3632;stroke-linecap: round;stroke-linejoin: round;stroke-width: 10px"/>
      </g>
      <g>
        <polygon points="1337.26 428.64 1370.2 463.47 1336.86 498.14 1316.75 503.74 1288.78 467.67 1317.15 434.24 1337.26 428.64" style="fill: #c93c27;stroke: #3a3632;stroke-linecap: round;stroke-linejoin: round;stroke-width: 10px"/>
        <g>
          <polyline points="1334.21 478.49 1322.24 462.76 1334.29 447.37" style="fill: #c93c27;stroke: #3a3632;stroke-linecap: round;stroke-linejoin: round;stroke-width: 10px"/>
          <line x1="1322.24" y1="462.76" x2="1305.71" y2="467.16" style="fill: #c93c27;stroke: #3a3632;stroke-linecap: round;stroke-linejoin: round;stroke-width: 10px"/>
        </g>
      </g>
      <g>
        <polygon points="1339.51 509.54 1376.18 548.31 1339.06 586.91 1316.67 593.15 1285.52 552.99 1317.12 515.77 1339.51 509.54" style="fill: #c93c27;stroke: #3a3632;stroke-linecap: round;stroke-linejoin: round;stroke-width: 10px"/>
        <g>
          <polyline points="1336.11 565.04 1322.78 547.52 1336.2 530.39" style="fill: #c93c27;stroke: #3a3632;stroke-linecap: round;stroke-linejoin: round;stroke-width: 10px"/>
          <line x1="1322.78" y1="547.52" x2="1304.38" y2="552.42" style="fill: #c93c27;stroke: #3a3632;stroke-linecap: round;stroke-linejoin: round;stroke-width: 10px"/>
        </g>
      </g>
      <g>
        <polygon points="1171.83 667.36 1208.5 706.13 1171.38 744.73 1148.99 750.97 1117.85 710.8 1149.44 673.59 1171.83 667.36" style="fill: #c93c27;stroke: #3a3632;stroke-linecap: round;stroke-linejoin: round;stroke-width: 10px"/>
        <g>
          <polyline points="1168.43 722.86 1155.1 705.34 1168.52 688.21" style="fill: #c93c27;stroke: #3a3632;stroke-linecap: round;stroke-linejoin: round;stroke-width: 10px"/>
          <line x1="1155.1" y1="705.34" x2="1136.7" y2="710.24" style="fill: #c93c27;stroke: #3a3632;stroke-linecap: round;stroke-linejoin: round;stroke-width: 10px"/>
        </g>
      </g>
      <g>
        <polygon points="930.5 1006.38 979.91 1026.53 962.07 1077.02 944.26 1091.95 899.3 1068.26 912.69 1021.31 930.5 1006.38" style="fill: #c93c27;stroke: #3a3632;stroke-linecap: round;stroke-linejoin: round;stroke-width: 10px"/>
        <g>
          <polyline points="950.35 1058.32 930.96 1047.88 936.1 1026.73" style="fill: #c93c27;stroke: #3a3632;stroke-linecap: round;stroke-linejoin: round;stroke-width: 10px"/>
          <line x1="930.96" y1="1047.88" x2="916.23" y2="1059.95" style="fill: #c93c27;stroke: #3a3632;stroke-linecap: round;stroke-linejoin: round;stroke-width: 10px"/>
        </g>
      </g>
    </g>
  </g>
</svg>
