<svg xmlns="http://www.w3.org/2000/svg" height="1923.955" width="1864.96"  xmlns:v="https://vecta.io/nano"><g fill="#fff"><g stroke="#231f20" stroke-width="24" stroke-linejoin="round"><path d="M972.02 986.135l490.43 50-755.88 286.5L12 1236.475z"/><path d="M39.08 1236.775l37.27 525.5 620.56 149.7 9.57-588.87z"/><path d="M706.45 1323.085l723.16-283.12-46.06 483-686.64 389z"/></g><path d="M560.26 1226.205s-27.56-510.5 661.8-668.08l-115.88 171.4c-343.88 129.6-281.27 504.5-281.27 504.5"/></g><path d="M1106.18 729.535c-343.88 129.6-281.27 504.5-281.27 504.5m-264.65-7.83s-27.56-510.5 661.8-668.08" stroke="#231f20" stroke-width="24" stroke-linejoin="round" fill="none" stroke-linecap="round"/><path d="M1053.1 805.795s60.23 31.4 163.2 18.17c0 0 78.26-6.94 150.37-56.5 0 0 55.4-36.34 99-104.3 0 0 48.57-73.08 67.48-117.9 5.6-14.5 13.16-61.84 2.34-95.65 0 0-10.1-47.92-51.14-102.6-31.65-36.7-38.08-41.37-38.08-41.37-11.58-9.44-8.8-21.25-6.08-25.6 0 0 4.34-16.68 22.53-38.06 0 0 48.5-64.1 75.56-91 0 0 43.5-51.6 84.82-73.14 0 0 33.47-20 96.77-28.12 0 0 41.4-8.1 116.42 9.6 0 0 15.8-15.6 16.65-34.46-76.43-17.37-128.2-12.1-128.2-12.1-75.2 4-121.62 35.64-121.62 35.64-52.52 27.85-99.34 83.48-99.34 83.48-54.77 66.44-72 92.07-72 92.07l-40.3 54.87c-240.68 359-228.43 349.56-338.42 527z" fill="#231f20"/></svg>