<svg xmlns="http://www.w3.org/2000/svg" height="1924" width="1753.902"  xmlns:v="https://vecta.io/nano"><g fill="#fff" stroke="#231f20" stroke-width="24" stroke-miterlimit="10"><path d="M1727.94 182.28l-764.32 852.26c-24.06 26.83-59.4 22.67-78.32-8.33L777.73 850.06c-15-24.55-10.17-62.5 10.37-85.4l652.52-727.6c20.54-22.9 57.74-31.8 83.77-19.57l186.78 87.86c32.87 15.42 40.83 50.1 16.77 76.92z"/><path d="M1619.88 153.8c-11.3 12.6-32.34 16.43-46.8 8.66l-85.47-46c-12.92-6.94-14.75-22-4.28-33.63s29.5-15.85 42.7-9.22l87.4 43.87c14.75 7.4 17.73 23.72 6.43 36.32zM752.45 1912c340 0 739.3-180.93 739.3-591.94 0-96.8-331-185.8-739.3-185.8h-1.14c-408.3 0-739.3 89-739.3 185.8 0 411 399.26 591.94 739.3 591.94"/></g><path d="M745.45 1638.84a35.64 35.64 0 0 0 23.2-7.9q9.74-7.9 9.73-22.7a27.08 27.08 0 0 0-7.76-19.39q-7.75-8.13-20.92-8.12-8.94 0-14.7 2.5a23.63 23.63 0 0 0-9.15 6.58 49.45 49.45 0 0 0-6.39 10.55q-3 6.43-5.5 12.15a10.27 10.27 0 0 1-5.26 4.83 20.8 20.8 0 0 1-8.79 1.75 15.14 15.14 0 0 1-10.75-4.75q-4.9-4.76-4.9-12.66 0-7.62 4.6-16a58.6 58.6 0 0 1 13.47-16 67.77 67.77 0 0 1 22-12.22 88.66 88.66 0 0 1 29.41-4.61 82.21 82.21 0 0 1 25.91 3.88 60.64 60.64 0 0 1 20.34 11.2 48.44 48.44 0 0 1 13 17 49.64 49.64 0 0 1 4.39 20.79q0 14.64-6.37 25.1-6.37 10.46-18.22 20.42a80.47 80.47 0 0 1 19.25 14 52.51 52.51 0 0 1 15.81 38.12 64.66 64.66 0 0 1-5.34 25.76 65.77 65.77 0 0 1-15.73 22.24 75 75 0 0 1-24.67 15.22 87.14 87.14 0 0 1-31.54 5.49q-17.55 0-31.46-6.3a72.42 72.42 0 0 1-22.91-15.73 71.55 71.55 0 0 1-13.61-19.54q-4.6-10.1-4.6-16.68 0-8.5 5.5-13.7a19.14 19.14 0 0 1 13.68-5.19 14.58 14.58 0 0 1 7.91 2.41 11.43 11.43 0 0 1 5 5.78q7.62 20.36 16.32 30.23 8.7 9.87 24.52 9.87a36.86 36.86 0 0 0 17.49-4.46 36.39 36.39 0 0 0 13.9-13.25 37.54 37.54 0 0 0 5.49-20.34q0-17.12-9.37-26.86-9.37-9.74-26-9.73c-2 0-5 .2-9.07.6l-7.9.58q-8 0-12.44-4-4.44-4-4.4-11.2a14 14 0 0 1 5.27-11.34q5.26-4.32 15.66-4.32z" fill="#231f20"/><path d="M1443.88 1314.43c0 46.4-309.56 115.13-691.43 115.13h-1.22c-381.87 0-691.43-68.74-691.43-115.13" fill="none" stroke="#231f20" stroke-width="24" stroke-linecap="round" stroke-miterlimit="10"/><g fill="#f7d220" stroke="#0d0e19" stroke-width="12.037" stroke-linejoin="round"><path d="M759.9 918.68c21.44 8.6 94-21.9 94-21.9 9.7-2.26 24.16 3.8 21.6 13.44-4.15 15.54 13.73 59 13.73 59a17.94 17.94 0 0 1-13.43 21.59s-84.82 7.12-94 21.9c-5.26 8.46-19.33-3.73-21.6-13.43 0 0-.74-53.27-13.73-59-9.12-4.02 4.2-25.3 13.43-21.6zm258.73-297.88c21.44 8.6 94-21.9 94-21.9 9.7-2.26 24.16 3.8 21.6 13.43-4.15 15.54 13.74 59 13.74 59a18.02 18.02 0 0 1-13.44 21.6s-84.82 7.12-94 21.9c-5.26 8.45-19.33-3.74-21.6-13.44 0 0-.74-53.26-13.73-59-9.12-4 4.2-25.3 13.43-21.6z"/><path d="M664.56 1154.4c14 18.34 92 29.14 92 29.14 9.5 3 18.83 15.6 11.7 22.56-11.5 11.25-18.28 57.74-18.28 57.74a17.94 17.94 0 0 1-22.54 11.72s-76.58-37.15-92-29.14c-8.84 4.6-14.72-13.07-11.7-22.57 0 0 26.53-46.2 18.28-57.74-5.8-8.1 16.5-19.62 22.57-11.7zm172.66-361.55c8 21.7 79.25 55.12 79.25 55.12 8.17 5.7 13.36 20.5 4.5 25-14.32 7.33-34.6 49.72-34.6 49.72a17.93 17.93 0 0 1-25 4.49s-62.12-58.2-79.24-55.12c-9.8 1.76-10.2-16.85-4.5-25 0 0 39.05-36.25 34.6-49.72-3.13-9.46 21.6-13.85 25-4.5z"/><path d="M838.27 750.5c21.43 8.6 94-21.9 94-21.9 9.7-2.26 24.16 3.8 21.6 13.43-4.16 15.54 13.73 59 13.73 59a17.94 17.94 0 0 1-13.43 21.59s-84.82 7.12-94 21.9c-5.26 8.45-19.33-3.74-21.58-13.44 0 0-.75-53.26-13.74-59-9.1-4 4.2-25.3 13.44-21.6zM1051 670.58c-7.57 21.83 26.4 92.85 26.4 92.85 2.72 9.58-2.64 24.3-12.38 22.2-15.72-3.4-58.25 16.56-58.25 16.56a17.94 17.94 0 0 1-22.22-12.37s-11.2-84.38-26.4-92.85c-8.7-4.85 2.8-19.5 12.38-22.2 0 0 53.17-3.3 58.26-16.57 3.57-9.3 25.47 2.97 22.2 12.38zM667.24 891.65c14.46 18 92.66 27 92.66 27 9.56 2.8 19.2 15.17 12.23 22.3-11.25 11.5-17 58.14-17 58.14a17.93 17.93 0 0 1-22.26 12.27s-77.4-35.4-92.66-27c-8.74 4.8-15-12.73-12.23-22.3 0 0 25.48-46.78 17-58.14-6-8.02 16.03-20.04 22.26-12.27z"/><path d="M643.26 1091.42c20.8-10.08 47-84.3 47-84.3 4.85-8.7 19.07-15.32 24.46-7 8.7 13.53 52.9 29.5 52.9 29.5 8.66 4.846 11.765 15.788 6.94 24.46 0 0-51.77 67.56-47 84.3 2.72 9.58-15.76 11.8-24.46 6.94 0 0-39.93-35.27-52.9-29.5-9.1 4-15.9-20.12-6.94-24.46zm244.2-202.38c16.32-16.35 16.67-95.07 16.67-95.07 1.72-9.8 13-20.74 20.82-14.6 12.67 9.9 59.65 10.46 59.65 10.46 9.78 1.722 16.316 11.038 14.6 20.82 0 0-26.75 80.83-16.75 95.07 5.72 8.16-11 16.33-20.8 14.6 0 0-49.3-20.18-59.66-10.46-7.24 6.8-21.62-13.77-14.53-20.82zm-343 254.6c21.44 8.6 94-21.9 94-21.9 9.7-2.25 24.17 3.82 21.6 13.44-4.15 15.54 13.74 59 13.74 59a17.93 17.93 0 0 1-13.44 21.58s-84.82 7.12-94 21.9c-5.26 8.46-19.33-3.73-21.6-13.43 0 0-.74-53.27-13.73-59-9.16-4 4.15-25.3 13.43-21.6z"/></g></svg>