<svg xmlns="http://www.w3.org/2000/svg" xmlns:xlink="http://www.w3.org/1999/xlink" height="1719.944" width="1923.97" xmlns:v="https://vecta.io/nano"><style><![CDATA[.B{stroke:#231f20}.C{stroke-width:24}.D{stroke-miterlimit:10}.E{fill:#231f20}.F{stroke-linecap:round}]]></style><path d="M555.8 1356.434l-3.75 5.52-.14-.05-.27-.1-.55-.2-1.1-.4-2.2-.78-4.4-1.55-8.8-3-17.53-6.1-35-11.62c-23.23-7.64-46.6-14.5-69.8-21.42q-17.4-5.13-34.94-9.76l-34.86-9.5-69.07-17.13-71.73-16.87c-24-5.27-48.3-9.77-72.05-15.75s-46.83-13.9-68.9-24.85c-11.1-5.27-21.88-11.5-32.6-17.9-5.57-2.6-10.17-8.08-13-18.8a78 78 0 0 1-1.87-8.83l-1.13-11.08v-.33a81.49 81.49 0 0 1 18.45-55.1l.17-.2 7.58-8.17a80.12 80.12 0 0 1 6.84-5.92c8.77-6.83 15.8-8.42 21.85-7.15 12.52 1.35 25 2.88 37.13 5.37 24.42 4.56 47.84 12.16 70.57 21.7s45 20.55 67.43 30.8l67.7 29.67c23.83 11.34 45.9 23.55 67.82 36.47 11 6.42 21.86 12.95 32.63 19.7s21.3 13.86 31.8 21c21.06 14.17 41.4 29.54 61.12 45.48 9.8 8.08 19.55 16.17 28.9 24.8 4.7 4.23 9.33 8.6 13.9 13l6.74 6.72 3.35 3.38 1.67 1.68.83.85.73.73c-1.56 2.5 3.7-5.5-3.5 5.67z" class="E"/><g class="B C D"><path d="M1129.35 1207.624h1.32c431.5 0 781.3 68.6 781.3 170.9-19.33 79.26-74.64 190.53-141.4 241.5-53.54 36.66-364.3 87.92-639.85 87.92h-3.9c-275.53 0-586.3-51.26-639.84-87.92-66.78-51-122.1-162.24-141.42-241.5 0-102.3 349.8-170.9 781.3-170.9h1.2" fill="#fff"/><path d="M1858.8 1372.584c0 49-327.14 121.66-730.7 121.66h-1.3c-403.56 0-730.7-72.64-730.7-121.66" fill="none" class="F"/></g><g class="E"><circle r="15.48" cy="1331.544" cx="579.07"/><circle r="15.48" cy="1368.694" cx="481.38"/></g><use xlink:href="#B" fill="#fff" class="B C D"/><use xlink:href="#C" class="E"/><g class="B C D"><use xlink:href="#D" fill="none" class="F"/><use xlink:href="#B" fill="#fff"/></g><use xlink:href="#C" class="E"/><use xlink:href="#D" fill="none" class="B C D F"/><path d="M836.32 1388.084c-14.6-91.52 27.4-353.13 172.93-404.75 0 0 30.8-31.3 24.8-30.48-312 43.44-335.48 353.07-335.48 423.8" fill="#fff"/><path d="M698.57 1376.644c0-72.07 20.4-401.9 349.73-435.57m-39.05 50.02c-145.52 51.62-187.52 305.47-172.93 397" fill="none" class="B C D F"/><defs ><path id="B" d="M1668.27 771.784c139.07-235.75 176.9-586.55-108-754.64-67.12-39.6-264.18 153.5-431.17 436.58l-.47.8c-167 283.08-240.66 549-173.54 588.54 285 168.1 573.67-34.72 712.74-270.48"/><path id="C" d="M1535.63 714.354l31.24-53q4.68-7.9 10.37-10.16a12.36 12.36 0 0 1 11.29 1 13.63 13.63 0 0 1 6.47 8.27q1.5 5.32-2.44 12l-44.06 74.68q-4.48 7.6-11.2 9.4a15.64 15.64 0 0 1-12.41-1.58c-2.43-1.44-5.13-4.25-8.07-8.45a40.26 40.26 0 0 1-6-11.59q-6-21.75-9.63-38.5-3.63-16.76-4-23.27a104.26 104.26 0 0 0-3.65-20.83 54.8 54.8 0 0 0-7.21-15.6 33.65 33.65 0 0 0-10.52-10.1 25.51 25.51 0 0 0-13.45-3.76 25 25 0 0 0-12.93 3.72 28.27 28.27 0 0 0-9.7 9.94q-7.83 13.3-.66 27.8.93 1.9 6.32 8.3a40.45 40.45 0 0 1 7.28 11.54q1.9 5.14-1.53 10.93a13.26 13.26 0 0 1-8.31 6.45q-5.32 1.36-11.1-2a44.5 44.5 0 0 1-12.7-11.74 48.62 48.62 0 0 1-8.26-17.52 54.09 54.09 0 0 1-.66-21.73q1.86-11.84 9.46-24.72 9.15-15.52 20.5-23.6a46.41 46.41 0 0 1 16.29-7.21 48.69 48.69 0 0 1 35.32 5.51 50.27 50.27 0 0 1 19.2 19.74q6.62 12.32 8.62 22.25 2 9.93 5.48 32.57 3.46 22.63 7 32.4a67.59 67.59 0 0 0 3.68 8.9z"/><path id="D" d="M1536.8 47.984c32.16 19-46.78 261.7-203 526.45l-.5.84c-156.17 264.75-330.43 451.25-362.6 432.28"/></defs></svg>