<svg id="Layer_1" data-name="Layer 1" xmlns="http://www.w3.org/2000/svg" viewBox="0 0 2000 2000"><path d="M876.26,1977.35c350,0,761-186.23,761-609.29,0-99.64-340.7-191.24-761-191.24h-1.18c-420.28,0-761,91.6-761,191.24,0,423.06,411,609.29,761,609.29" style="fill:#fff;stroke:#231f20;stroke-miterlimit:10;stroke-width:24px"/><path d="M955.7,1807.62q0,16.35-18.51,16.35H820q-8,0-12.65-4.78a16.4,16.4,0,0,1-4.63-11.88q0-9.25,7.1-16.66l70.34-75.59q13-14.19,19-26.07a51.87,51.87,0,0,0,6-23.6q0-14.51-8.33-22.22T873,1635.46a65,65,0,0,0-24.53,4.78,122.86,122.86,0,0,0-23.91,13.11,38,38,0,0,1-6.17,3.55,14.89,14.89,0,0,1-6.17,1.39q-5.25,0-9.11-4.94a18.44,18.44,0,0,1-3.85-11.72,17.73,17.73,0,0,1,1.69-8,20.77,20.77,0,0,1,5.4-6.48A106.69,106.69,0,0,1,838.15,1610a110.25,110.25,0,0,1,36.41-6.33q31.77,0,50.75,16t19,43.2a79.76,79.76,0,0,1-8,35.33q-8,16.5-27.15,36.86l-53.37,56.77h81.45Q955.7,1791.88,955.7,1807.62Z" style="fill:#231f20"/><path d="M1588,1362.27c0,47.75-318.64,118.51-711.71,118.51H875c-393.06,0-711.7-70.76-711.7-118.51" style="fill:none;stroke:#231f20;stroke-linecap:round;stroke-miterlimit:10;stroke-width:24px"/><path d="M1814.35,225.9,1036.2,1093.58c-24.5,27.32-60.47,23.09-79.74-8.47L846.94,905.77c-15.27-25-10.36-63.62,10.56-86.94L1521.83,78.06c20.91-23.32,58.78-32.39,85.29-19.93l190.16,89.42C1830.74,163.29,1838.85,198.59,1814.35,225.9Z" style="fill:#fff;stroke:#231f20;stroke-miterlimit:10;stroke-width:24px"/><path d="M1704.34,196.89c-11.51,12.83-32.93,16.73-47.64,8.82l-87-46.79c-13.15-7.07-15-22.36-4.36-34.24s30-16.14,43.49-9.39l89,44.62C1712.81,167.46,1715.84,184.06,1704.34,196.89Z" style="fill:#fff;stroke:#231f20;stroke-miterlimit:10;stroke-width:24px"/><g id="layer7"><g id="g1557"><path id="path4952" d="M906.13,870.18c18.4-7.45,42.59,57.81,42.59,57.81-3.29,24.88-29.06,14-38.4,27.7s-54.4-57.7-33.21-64.17C892.91,886.7,906.13,870.18,906.13,870.18Z" style="fill:#fbfaf2;stroke:#000;stroke-linecap:round;stroke-linejoin:round;stroke-width:9.80412880418184px"/><path id="path4954" d="M891.7,900s11.63,35.56,24.43,43.55" style="fill:#fbfaf2;stroke:#000;stroke-linecap:round;stroke-linejoin:round;stroke-width:9.80412880418184px"/></g><g id="g1563"><path id="path1559" d="M1090.94,777.62c18.63-6.87,40.76,59.12,40.76,59.12-4.07,24.76-29.49,13.08-39.25,26.48s-52.56-59.38-31.18-65.18C1077.21,793.72,1090.94,777.62,1090.94,777.62Z" style="fill:#fbfaf2;stroke:#000;stroke-linecap:round;stroke-linejoin:round;stroke-width:9.80412891663153px"/><path id="path1561" d="M1075.58,807s10.51,35.9,23.05,44.28" style="fill:#fbfaf2;stroke:#000;stroke-linecap:round;stroke-linejoin:round;stroke-width:9.80412891663153px"/></g><g id="g1569"><g id="g1706"><path id="path1565" d="M796.65,1094.06c18.57,7-8,71.36-8,71.36-19.31,16-30.84-9.47-47-5.75s-.75-79.3,19.2-69.65C775.73,1097.21,796.65,1094.06,796.65,1094.06Z" style="fill:#fbfaf2;stroke:#000;stroke-linecap:round;stroke-linejoin:round;stroke-width:9.80412885897058px"/><path id="path1567" d="M765.79,1106.16s-15.61,34-11.64,48.56" style="fill:#fbfaf2;stroke:#000;stroke-linecap:round;stroke-linejoin:round;stroke-width:9.80412885897058px"/></g></g><g id="g1576"><path id="path1571" d="M702.76,1234.83c14-14.12,62,36.28,62,36.28,6.81,24.15-21.17,24.34-24.33,40.61s-72.77-31.51-55.86-45.83C697.15,1255.22,702.76,1234.83,702.76,1234.83Z" style="fill:#fbfaf2;stroke:#000;stroke-linecap:round;stroke-linejoin:round;stroke-width:9.80412900372194px"/><path id="path1574" d="M701.3,1267.94S726,1296,740.94,1298.29" style="fill:#fbfaf2;stroke:#000;stroke-linecap:round;stroke-linejoin:round;stroke-width:9.80412900372194px"/></g><g id="g1582"><path id="path1578" d="M1414.42,472.62c11.87,15.92-45.16,55.83-45.16,55.83-24.89,3.11-20.89-24.58-36.51-30.14s42.06-67.23,53.68-48.36C1395.09,464,1414.42,472.62,1414.42,472.62Z" style="fill:#fbfaf2;stroke:#000;stroke-linecap:round;stroke-linejoin:round;stroke-width:9.80412872804313px"/><path id="path1580" d="M1381.89,466.21s-31.45,20.25-35.94,34.65" style="fill:#fbfaf2;stroke:#000;stroke-linecap:round;stroke-linejoin:round;stroke-width:9.80412872804313px"/></g><g id="g1588"><path id="path1584" d="M845.37,1102.32c14-14.12,62,36.28,62,36.28,6.81,24.15-21.17,24.34-24.34,40.61s-72.76-31.51-55.85-45.83C839.76,1122.71,845.37,1102.32,845.37,1102.32Z" style="fill:#fbfaf2;stroke:#000;stroke-linecap:round;stroke-linejoin:round;stroke-width:9.80412900372194px"/><path id="path1586" d="M843.9,1135.43s24.74,28.08,39.65,30.35" style="fill:#fbfaf2;stroke:#000;stroke-linecap:round;stroke-linejoin:round;stroke-width:9.80412900372194px"/></g><g id="g1594"><path id="path1590" d="M1106.23,679.26c14-14.12,62,36.28,62,36.28,6.8,24.15-21.17,24.34-24.34,40.61s-72.76-31.51-55.85-45.82C1100.61,699.66,1106.23,679.26,1106.23,679.26Z" style="fill:#fbfaf2;stroke:#000;stroke-linecap:round;stroke-linejoin:round;stroke-width:9.80412900372194px"/><path id="path1592" d="M1104.76,712.38s24.73,28.07,39.65,30.34" style="fill:#fbfaf2;stroke:#000;stroke-linecap:round;stroke-linejoin:round;stroke-width:9.80412900372194px"/></g><g id="g1600"><path id="path1596" d="M1239.22,596.49c19.68-2.62,26.8,66.62,26.8,66.62-9.4,23.26-31.64,6.29-44.1,17.22s-38.26-69.46-16.13-70.42C1222.29,609.19,1239.22,596.49,1239.22,596.49Z" style="fill:#fbfaf2;stroke:#000;stroke-linecap:round;stroke-linejoin:round;stroke-width:9.80412873971479px"/><path id="path1598" d="M1217.79,621.78s2.38,37.34,12.78,48.27" style="fill:#fbfaf2;stroke:#000;stroke-linecap:round;stroke-linejoin:round;stroke-width:9.80412873971479px"/></g><g id="g1606"><path id="path1602" d="M992,845c2.18-19.74,71.11-10,71.11-10,20.33,14.71-1.49,32.22,6.13,46.95s-76.61,20.46-72.24-1.26C1000.3,864.45,992,845,992,845Z" style="fill:#fbfaf2;stroke:#000;stroke-linecap:round;stroke-linejoin:round;stroke-width:9.80412896276086px"/><path id="path1604" d="M1011.45,871.85s36.82,6.65,49.92-.82" style="fill:#fbfaf2;stroke:#000;stroke-linecap:round;stroke-linejoin:round;stroke-width:9.80412896276086px"/></g><g id="g1612"><path id="path1608" d="M1148.21,639.53c0-19.86,69.58-17.75,69.58-17.75,21.82,12.4,2,32.2,11.24,46s-73.91,28.73-72,6.66C1158.55,658,1148.21,639.53,1148.21,639.53Z" style="fill:#fbfaf2;stroke:#000;stroke-linecap:round;stroke-linejoin:round;stroke-width:9.80412903230261px"/><path id="path1610" d="M1170.44,664.12s37.33,2.58,49.54-6.28" style="fill:#fbfaf2;stroke:#000;stroke-linecap:round;stroke-linejoin:round;stroke-width:9.80412903230261px"/></g><g id="g1618"><path id="path1614" d="M890,938.88c2-19.75,71-10.66,71-10.66,20.47,14.52-1.19,32.23,6.56,46.89s-76.42,21.15-72.24-.6C898.43,958.29,890,938.88,890,938.88Z" style="fill:#fbfaf2;stroke:#000;stroke-linecap:round;stroke-linejoin:round;stroke-width:9.80412878793558px"/><path id="path1616" d="M909.64,965.58s36.88,6.32,49.92-1.27" style="fill:#fbfaf2;stroke:#000;stroke-linecap:round;stroke-linejoin:round;stroke-width:9.80412878793558px"/></g><g id="g1624"><path id="path1620" d="M1143.67,792.31c-7.4,18.43-71.19-9.42-71.19-9.42-15.64-19.63,10.08-30.65,6.69-46.88s79.29.85,69.25,20.6C1140.94,771.33,1143.67,792.31,1143.67,792.31Z" style="fill:#fbfaf2;stroke:#000;stroke-linecap:round;stroke-linejoin:round;stroke-width:9.80412881305px"/><path id="path1622" d="M1132.18,761.21s-33.68-16.29-48.31-12.6" style="fill:#fbfaf2;stroke:#000;stroke-linecap:round;stroke-linejoin:round;stroke-width:9.80412881305px"/></g><g id="g1630"><path id="path1626" d="M1200.42,707.75c17.44,9.5-17.65,69.61-17.65,69.61-21.31,13.24-29.26-13.58-45.77-12.1s10.07-78.66,28.51-66.39C1179.26,708,1200.42,707.75,1200.42,707.75Z" style="fill:#fbfaf2;stroke:#000;stroke-linecap:round;stroke-linejoin:round;stroke-width:9.8041287551357px"/><path id="path1628" d="M1168.2,715.54s-20.1,31.55-18.15,46.51" style="fill:#fbfaf2;stroke:#000;stroke-linecap:round;stroke-linejoin:round;stroke-width:9.8041287551357px"/></g><g id="g1636"><path id="path1632" d="M1006.06,865.51c3,19.63-66.13,28-66.13,28-23.43-9-6.85-31.52-18-43.79s68.76-39.49,70.13-17.37C993.07,848.81,1006.06,865.51,1006.06,865.51Z" style="fill:#fbfaf2;stroke:#000;stroke-linecap:round;stroke-linejoin:round;stroke-width:9.8041292247647px"/><path id="path1634" d="M980.4,844.53s-37.29,3.05-48,13.64" style="fill:#fbfaf2;stroke:#000;stroke-linecap:round;stroke-linejoin:round;stroke-width:9.8041292247647px"/></g><g id="g1642"><path id="path1638" d="M951,911.62c-8.59-17.9,55-46.11,55-46.11,25,1.73,15.79,28.14,30,36.6s-54.19,57.89-62,37.14C968.33,923.79,951,911.62,951,911.62Z" style="fill:#fbfaf2;stroke:#000;stroke-linecap:round;stroke-linejoin:round;stroke-width:9.80412899395613px"/><path id="path1640" d="M981.71,924.17s34.76-13.83,41.93-27.1" style="fill:#fbfaf2;stroke:#000;stroke-linecap:round;stroke-linejoin:round;stroke-width:9.80412899395613px"/></g><g id="g1654"><path id="path1650" d="M847.68,929.3c14-14.12,62,36.28,62,36.28,6.81,24.15-21.17,24.34-24.33,40.62s-72.77-31.52-55.85-45.83C842.06,949.7,847.68,929.3,847.68,929.3Z" style="fill:#fbfaf2;stroke:#000;stroke-linecap:round;stroke-linejoin:round;stroke-width:9.80412900372194px"/><path id="path1652" d="M846.21,962.42s24.73,28.07,39.65,30.35" style="fill:#fbfaf2;stroke:#000;stroke-linecap:round;stroke-linejoin:round;stroke-width:9.80412900372194px"/></g><g id="g1660"><path id="path1656" d="M785.69,1007.29c4.19-19.41,71.76-2.69,71.76-2.69,18.72,16.71-4.78,31.9,1.3,47.33s-78.31,12.51-71.73-8.64C791.92,1027.51,785.69,1007.29,785.69,1007.29Z" style="fill:#fbfaf2;stroke:#000;stroke-linecap:round;stroke-linejoin:round;stroke-width:9.80412894611729px"/><path id="path1658" d="M802.25,1036s35.94,10.39,49.74,4.3" style="fill:#fbfaf2;stroke:#000;stroke-linecap:round;stroke-linejoin:round;stroke-width:9.80412894611729px"/></g><g id="g1666"><path id="path1662" d="M885.86,992.77c14-14.12,62,36.28,62,36.28,6.81,24.15-21.17,24.34-24.33,40.61s-72.77-31.51-55.86-45.82C880.24,1013.17,885.86,992.77,885.86,992.77Z" style="fill:#fbfaf2;stroke:#000;stroke-linecap:round;stroke-linejoin:round;stroke-width:9.80412900372194px"/><path id="path1664" d="M884.39,1025.89S909.12,1054,924,1056.23" style="fill:#fbfaf2;stroke:#000;stroke-linecap:round;stroke-linejoin:round;stroke-width:9.80412900372194px"/></g><g id="g1672"><path id="path1668" d="M980.52,1034.53c12.31,15.58-43.55,57.1-43.55,57.1-24.8,3.82-21.59-24-37.35-29.1s40.13-68.39,52.28-49.86C961,1026.48,980.52,1034.53,980.52,1034.53Z" style="fill:#fbfaf2;stroke:#000;stroke-linecap:round;stroke-linejoin:round;stroke-width:9.80412910657363px"/><path id="path1670" d="M947.82,1029.05s-30.87,21.13-34.94,35.66" style="fill:#fbfaf2;stroke:#000;stroke-linecap:round;stroke-linejoin:round;stroke-width:9.80412910657363px"/></g><g id="g1678"><path id="path1674" d="M1247.77,537.88c14-14.12,62,36.28,62,36.28,6.81,24.15-21.17,24.34-24.34,40.61s-72.76-31.51-55.85-45.83C1242.16,558.27,1247.77,537.88,1247.77,537.88Z" style="fill:#fbfaf2;stroke:#000;stroke-linecap:round;stroke-linejoin:round;stroke-width:9.80412900372194px"/><path id="path1676" d="M1246.3,571S1271,599.06,1286,601.34" style="fill:#fbfaf2;stroke:#000;stroke-linecap:round;stroke-linejoin:round;stroke-width:9.80412900372194px"/></g><g id="g1684"><path id="path1680" d="M1025,771.48c14-14.11,62,36.28,62,36.28,6.81,24.16-21.17,24.35-24.33,40.62s-72.77-31.52-55.86-45.83C1019.35,791.88,1025,771.48,1025,771.48Z" style="fill:#fbfaf2;stroke:#000;stroke-linecap:round;stroke-linejoin:round;stroke-width:9.80412900372194px"/><path id="path1682" d="M1023.5,804.6s24.73,28.07,39.65,30.35" style="fill:#fbfaf2;stroke:#000;stroke-linecap:round;stroke-linejoin:round;stroke-width:9.80412900372194px"/></g><g id="g1690"><path id="path1686" d="M754.62,1228.64c-14.61-13.44,34-63.22,34-63.22,23.89-7.67,25.08,20.28,41.46,22.86s-28.89,73.85-43.8,57.46C775.2,1233.52,754.62,1228.64,754.62,1228.64Z" style="fill:#fbfaf2;stroke:#000;stroke-linecap:round;stroke-linejoin:round;stroke-width:9.80412909171555px"/><path id="path1688" d="M787.77,1228.92s27.16-25.72,28.91-40.7" style="fill:#fbfaf2;stroke:#000;stroke-linecap:round;stroke-linejoin:round;stroke-width:9.80412909171555px"/></g><g id="g1696"><path id="path1692" d="M901.85,1266.86c18.79-6.42,39.3,60.1,39.3,60.1-4.67,24.65-29.8,12.35-39.89,25.51s-51.09-60.65-29.57-65.92C887.73,1282.62,901.85,1266.86,901.85,1266.86Z" style="fill:#fbfaf2;stroke:#000;stroke-linecap:round;stroke-linejoin:round;stroke-width:9.80412902594496px"/><path id="path1694" d="M885.77,1295.85s9.63,36.15,22,44.84" style="fill:#fbfaf2;stroke:#000;stroke-linecap:round;stroke-linejoin:round;stroke-width:9.80412902594496px"/></g><g id="g1702"><path id="path1698" d="M749.22,1370.55c3.77-19.49,71.68-4.22,71.68-4.22,19.07,16.31-4.1,32,2.31,47.29s-78,14.19-71.9-7.11C755.87,1390.64,749.22,1370.55,749.22,1370.55Z" style="fill:#fbfaf2;stroke:#000;stroke-linecap:round;stroke-linejoin:round;stroke-width:9.80412926002688px"/><path id="path1700" d="M766.38,1398.92s36.16,9.61,49.83,3.22" style="fill:#fbfaf2;stroke:#000;stroke-linecap:round;stroke-linejoin:round;stroke-width:9.80412926002688px"/></g></g></svg>