<svg xmlns="http://www.w3.org/2000/svg" height="1924" width="1753.902"  xmlns:v="https://vecta.io/nano"><g fill="#fff" stroke="#231f20" stroke-width="24" stroke-miterlimit="10"><path d="M1727.94 182.28l-764.32 852.26c-24.06 26.83-59.4 22.67-78.32-8.33L777.73 850.06c-15-24.55-10.17-62.5 10.37-85.4l652.52-727.6c20.54-22.9 57.74-31.8 83.77-19.57l186.78 87.86c32.87 15.42 40.83 50.1 16.77 76.92z"/><path d="M1619.88 153.8c-11.3 12.6-32.34 16.43-46.8 8.66l-85.47-46c-12.92-6.94-14.75-22-4.28-33.63s29.5-15.85 42.7-9.22l87.4 43.87c14.75 7.4 17.73 23.72 6.43 36.32zM752.45 1912c340 0 739.3-180.93 739.3-591.94 0-96.8-331-185.8-739.3-185.8h-1.14c-408.3 0-739.3 89-739.3 185.8 0 411 399.26 591.94 739.3 591.94"/></g><path d="M747.94 1748.36v-133.23q-37.18 28.55-50.06 28.54a14.79 14.79 0 0 1-10.9-4.9 15.81 15.81 0 0 1-4.76-11.34q0-7.47 4.7-11 4.7-3.53 16.54-9.07 17.7-8.34 28.32-17.56a119.58 119.58 0 0 0 18.8-20.64q8.2-11.4 10.7-14 2.48-2.6 9.36-2.63a15 15 0 0 1 12.44 6q4.7 6 4.7 16.54v167.58q0 29.4-20 29.42-8.94 0-14.35-6-5.4-6-5.46-17.7z" fill="#231f20"/><path d="M1443.88 1314.43c0 46.4-309.56 115.13-691.43 115.13h-1.22c-381.87 0-691.43-68.74-691.43-115.13" fill="none" stroke="#231f20" stroke-width="24" stroke-linecap="round" stroke-miterlimit="10"/><g fill="#fffef3" stroke="#010101" stroke-width="12.037" stroke-linejoin="round"><path d="M499.07 1314.93s-34.9 1.3-19.27 32.92c9.47 17.9-3.53 33.9 41.72 16.94 13.52-26.5 42.47-10.9 23.84-32.9-19.04-22.53-14-15.7-46.3-16.96zm97.2-183.3s-26.3-23-36.6 10.73c-5.4 19.52-25.84 22.25 18.72 41 28-10 38.37 21.2 39.92-7.57 1.58-29.44.58-21.1-22.04-44.16zm-52.3-65.06s-34.9 1.3-19.27 32.92c9.47 17.9-3.53 33.9 41.72 16.94 13.52-26.5 42.47-10.9 23.84-32.9-19.04-22.5-14-15.7-46.3-16.96zm273.57-156.76s31.62-14.86 4.86-37.83c-15.72-12.78-10-32.6-45 .73-2.1 29.64-34.84 26.64-9.1 39.64 26.32 13.25 19 9 49.24-2.5z"/><path d="M664.93 1007.5s-24.53-24.86-37.28 8c-6.8 19.08-27.4 20.3 15.68 42.2 28.67-7.9 36.72 24 40.37-4.63 3.72-29.23 2.12-21-18.77-45.6zm157.2-63.3s9.36-33.66-25.5-28.36c-19.94 3.6-31.25-13.65-28.8 34.6 21.13 20.93-2.5 43.77 24.1 32.7 27.2-11.32 19.22-8.6 30.2-39z"/><path d="M683.5 1009.55s-24.26 25.14 8.92 37.08c19.24 6.35 21 26.9 41.82-16.7-8.6-28.47 23.06-37.3-5.62-40.24-29.3-3-21-1.6-45.12 19.86zm-185.2 205.1s-8.54 33.87 26.16 27.72c19.84-4.07 31.56 12.9 28-35.3-21.63-20.4 1.45-43.82-24.9-32.1-26.93 11.97-19 9.05-29.27 39.68zm145.03-156.9s-33.3-10.5-29.2 24.52c2.9 20-14.73 30.75 33.6 30 21.64-20.4 43.66 4 33.52-23-10.37-27.6-7.92-19.52-37.9-31.55z"/><path d="M586.9 1040.9s-30.67 16.73-2.58 38c16.46 11.8 12 31.94 44.9-3.42.3-29.74 33.17-28.68 6.7-40.08-27.07-11.64-19.55-7.82-49 5.45zM464.45 1232s-23.06-26.25-37.7 5.85c-7.9 18.65-28.52 18.68 13.2 43 29.08-6.24 35.27 26 40.57-2.3 5.4-28.92 3.3-20.75-16.1-46.56zm255-279.52s-34.9 1.3-19.27 32.92c9.47 17.9-3.52 33.9 41.72 16.94 13.53-26.5 42.47-10.9 23.84-32.9-19.06-22.5-14.03-15.7-46.3-16.96zm-87.33 146.72s-34.9 1.3-19.26 32.9c9.47 17.9-3.53 33.92 41.72 16.94 13.52-26.5 42.47-10.9 23.84-32.9-19.04-22.5-13.97-15.7-46.3-16.95zm222.93-314.1s-34.9 1.3-19.27 32.9c9.47 17.9-3.52 33.92 41.72 16.94 13.52-26.48 42.47-10.9 23.84-32.9-19.04-22.48-14-15.68-46.3-16.95z"/></g></svg>