<svg id="Layer_1" data-name="Layer 1" xmlns="http://www.w3.org/2000/svg" viewBox="0 0 2000 2000"><path d="M109.1,1588l49.08,306.48a69.49,69.49,0,0,0,65.46,46.12H1776.36a69.49,69.49,0,0,0,65.46-46.12L1890.9,1588" style="fill:#fff;stroke:#231f20;stroke-linecap:round;stroke-linejoin:round;stroke-width:23.138598835660297px"/><path d="M1918.24,1580.81,1618.83,1398.5a36.16,36.16,0,0,0-19.78-5.88H401a36.16,36.16,0,0,0-19.78,5.88L81.76,1580.81a36.18,36.18,0,0,0-16.4,30.29v8.26a36.17,36.17,0,0,0,36.17,36.17H1898.47a36.17,36.17,0,0,0,36.17-36.17v-8.26A36.18,36.18,0,0,0,1918.24,1580.81Z" style="fill:#fff;stroke:#231f20;stroke-linecap:round;stroke-linejoin:round;stroke-width:23.138598835660297px"/><line x1="158.94" y1="1591.51" x2="1841.06" y2="1591.51" style="fill:#fff;stroke:#231f20;stroke-linecap:round;stroke-linejoin:round;stroke-width:23.138598835660297px"/><line x1="408.33" y1="1446.49" x2="435.63" y2="1587.97" style="fill:#fff;stroke:#231f20;stroke-linecap:round;stroke-linejoin:round;stroke-width:23.138598835660297px"/><line x1="1591.67" y1="1446.49" x2="1564.37" y2="1587.97" style="fill:#fff;stroke:#231f20;stroke-linecap:round;stroke-linejoin:round;stroke-width:23.138598835660297px"/><path d="M1782.36,828.4C1923.11,589.8,1961.41,234.76,1673,64.64,1605.09,24.57,1405.65,220,1236.65,506.49l-.48.8c-169,286.5-243.57,555.59-175.64,595.66,288.39,170.12,580.6-35.14,721.36-273.75Z" style="fill:#fff;stroke:#231f20;stroke-miterlimit:10;stroke-width:22.87677240371704px"/><path d="M1699,705.26q11.16,6.57,3.71,19.19l-41.94,71.09q-7.56,12.83-18.71,6.25-10.72-6.33-3.16-19.15l12.9-21.88-95.9-56.57.49,27.51A12.65,12.65,0,0,1,1555,738a10.76,10.76,0,0,1-8.2,5.23,15.16,15.16,0,0,1-10.21-1.91q-6.09-3.6-6.24-11l-1-44.51q-.06-8.55,3.29-14.22,3.46-5.9,9.16-7.36t12,2.26l114,67.24,13-22.08Q1688.32,698.92,1699,705.26Z" style="fill:#231f20"/><path d="M1649.27,95.88c32.55,19.2-47.35,264.87-205.41,532.81l-.5.86c-158.06,267.94-334.42,456.7-367,437.5" style="fill:none;stroke:#231f20;stroke-linecap:round;stroke-miterlimit:10;stroke-width:22.87677240371704px"/><path d="M799.43,468,188.58,259.9c-43.5-16.72-69.2-56.15-52.48-99.65h0c16.73-43.5,62.22-55.56,105.72-38.83l592.93,254.7" style="fill:#231f20"/><path d="M940.76,254.15h241.51a27.8,27.8,0,0,1,27.8,27.8V758.51a19.36,19.36,0,0,1-19.36,19.36h-168.5A109.26,109.26,0,0,1,913,668.62V282a27.8,27.8,0,0,1,27.8-27.8Z" transform="translate(198.96 1321.67) rotate(-68.97)" style="fill:#fff;stroke:#231f20;stroke-linecap:round;stroke-linejoin:round;stroke-width:21.93912179530433px"/><path d="M954.69,544.8l158.53,61a90.84,90.84,0,0,0,117.39-52.19l13.11-34.12" style="fill:#fff;stroke:#231f20;stroke-linecap:round;stroke-linejoin:round;stroke-width:21.93912179530433px"/><path d="M1151.19,936.21c-108.44-21.66-325.45,33.15-325.45,278.89v91.06" style="fill:none;stroke:#231f20;stroke-linecap:round;stroke-linejoin:round;stroke-width:24px"/><polyline points="893.29 1251.61 825.74 1319.16 758.19 1251.61" style="fill:none;stroke:#231f20;stroke-linecap:round;stroke-linejoin:round;stroke-width:24px"/></svg>