<svg id="Layer_1" data-name="Layer 1" xmlns="http://www.w3.org/2000/svg" width="2000" height="2000" viewBox="0 0 2000 2000">
  <g>
    <g>
      <path d="M1671.37,439.62c9.29,4,2.61,1.06,4.71,1.93l.06-.09.14-.18.27-.36.53-.71,1.08-1.42,2.14-2.85,4.3-5.65,8.58-11.25c5.82-7.41,11.4-14.87,17.29-22.12,11.53-14.65,23.47-28.86,35.27-43q8.88-10.59,18.06-20.93c6-7,12-13.9,18.12-20.72,12.32-13.59,24.65-27.3,36.61-40l38.4-41c13-13.47,26.53-26.57,39.09-40.38a259.48,259.48,0,0,0,33.24-44.82c4.82-8,9-16.53,13.14-25.12,2.43-4,3-9.41.34-17.42a57.64,57.64,0,0,0-2.53-6.39l-4-7.51-.14-.22a62,62,0,0,0-34.94-27.18l-.19-.06-8.26-2a59.56,59.56,0,0,0-6.83-.88c-8.45-.64-13.57,1.32-16.88,4.68-7.38,6.13-14.64,12.36-21.3,19.06a263.69,263.69,0,0,0-35.63,43.54c-10.41,15.64-19.87,32-29.8,48L1751.81,222c-10.34,17.25-19.21,34.31-27.66,51.75q-6.39,13-12.41,26.25-5.85,13.29-11.32,26.75c-7.4,17.87-13.81,36.2-19.62,54.63-2.81,9.26-5.58,18.51-7.87,27.92-1.21,4.67-2.3,9.39-3.36,14.1l-1.44,7.11-.7,3.55-.35,1.78-.18.88-.08.45,0,.22,0,.11C1668.81,438.43,1662.1,435.56,1671.37,439.62Z" style="fill: #231f20"/>
      <path d="M1244.64,587l.76-.51,0,0-.77.51,0,0-.76.51C970,769.56,776.9,960.6,820,1025.52c45.69,42.15,127.71,89.44,191.59,93.63,49.43.69,268.27-97.83,443.12-214l.82-.54.81-.54-.79.52.82-.54.82-.54c174.85-116.19,350.46-279.77,369-325.61,20.88-60.51,9.06-154.45-12.1-212.89-43.14-64.93-294,39-567.89,221l-.76.51" style="fill: #fff;stroke: #231f20;stroke-miterlimit: 10;stroke-width: 24px"/>
      <path d="M851.28,999.33c20.67,31.11,258.92-60.74,515-230.92l.81-.54c256.1-170.17,433.08-354.23,412.41-385.34" style="fill: none;stroke: #231f20;stroke-linecap: round;stroke-miterlimit: 10;stroke-width: 24px"/>
      <circle cx="1646.12" cy="433.64" r="11.79" style="fill: #231f20"/>
      <circle cx="1723.77" cy="416.02" r="11.79" style="fill: #231f20"/>
    </g>
    <g>
      <path d="M592.93,1215.43V1113.06c0-208.39,196.65-230.64,196.65-230.64" style="fill: none;stroke: #221f1f;stroke-linecap: round;stroke-linejoin: round;stroke-width: 24px"/>
      <polyline points="681.89 1116.87 592.92 1221.72 503.96 1116.87" style="fill: none;stroke: #221f1f;stroke-linecap: round;stroke-linejoin: round;stroke-width: 24px"/>
    </g>
    <g>
      <path d="M737.41,1949.28c295.22,0,641.85-157.08,641.85-513.9,0-84.05-287.37-161.31-641.85-161.31h-1c-354.48,0-641.85,77.26-641.85,161.31,0,356.82,346.63,513.9,641.85,513.9Z" style="fill: #fff;stroke: #3a3632;stroke-miterlimit: 10;stroke-width: 20px"/>
      <path d="M790.63,1741.45q8.72,11.58,8.72,28.76,0,23.68-17.44,37.73t-47.1,14a102.17,102.17,0,0,1-32.53-5.2,78.31,78.31,0,0,1-26.54-14.57q-6-5.21-6-12.23a15,15,0,0,1,3.26-9.76,9.61,9.61,0,0,1,7.67-4,11.75,11.75,0,0,1,4.69.91q2.07.92,5.72,3a112.51,112.51,0,0,0,20.82,11.19,58.35,58.35,0,0,0,21.6,3.9q17.18,0,25.5-6.9t8.33-21q0-13.78-8.72-20.42t-26.93-6.64H716.85q-6,0-9.23-4a14.26,14.26,0,0,1-3.26-9.24,14.11,14.11,0,0,1,3.26-9.37q3.24-3.9,9.23-3.9h10.41q35.65,0,35.65-26.81,0-12.48-7.54-19.25t-20.82-6.77q-19,0-40.6,15.09a64.17,64.17,0,0,1-5.72,3,11.54,11.54,0,0,1-4.69.91,9.6,9.6,0,0,1-7.67-4,15.07,15.07,0,0,1-3.26-9.76,14.07,14.07,0,0,1,1.44-6.64,21.14,21.14,0,0,1,4.55-5.59,83.69,83.69,0,0,1,26.15-14.45,93.59,93.59,0,0,1,31.1-5.33q27.06,0,43.07,13.27t16,35.39q-.25,15.09-7.94,26.41a43.8,43.8,0,0,1-21.46,16.53Q781.92,1729.88,790.63,1741.45Z" style="fill: #3a3632"/>
      <path d="M1337.73,1430.49c0,40.28-268.76,100-600.29,100h-1.05c-331.53,0-600.29-59.68-600.29-100" style="fill: none;stroke: #3a3632;stroke-linecap: round;stroke-miterlimit: 10;stroke-width: 20px"/>
    </g>
    <g id="layer2">
      <path id="path839" d="M1056.77,539.48c28.83-61.25-27.53-149.83-96.41-181.06S714.92,342,714.92,342L102.76,53.88a33.15,33.15,0,1,0-28.23,60L686.72,402c51.49,62.67,97.34,144.4,169.16,178.44,81.85,38.78,172.06,20.27,200.89-41Z" style="fill: #3a3632"/>
    </g>
  </g>
</svg>
