<svg xmlns="http://www.w3.org/2000/svg" height="1927.611" width="1796.18"  xmlns:v="https://vecta.io/nano"><style><![CDATA[.B{fill:none}.C{stroke-linecap:round}.D{fill:#dcebcc}.E{stroke-miterlimit:10}]]></style><g fill="#fff" stroke="#231f20" stroke-width="24" class="E"><path d="M1770.32 181.01l-758.58 845.86c-23.88 26.63-58.95 22.5-77.73-8.26L827.2 843.78c-14.88-24.37-10.1-62 10.3-84.76l647.7-722.13c20.4-22.74 57.3-31.58 83.14-19.43l185.38 87.17c32.58 15.34 40.48 49.75 16.6 76.38z"/><path d="M1663.1 152.73c-11.22 12.5-32.1 16.3-46.45 8.6l-84.82-45.6c-12.82-6.9-14.65-21.8-4.26-33.4s29.3-15.72 42.4-9.15l86.72 43.5c14.65 7.36 17.6 23.54 6.4 36.05zM761.95 1915.6c344.42 0 748.8-183.26 748.8-599.53 0-98.06-335.25-188.18-748.8-188.18h-1.15c-413.55 0-748.8 90.12-748.8 188.18 0 416.27 404.38 599.53 748.8 599.53"/></g><path d="M757.44 1749.83v-134.9q-37.65 28.9-50.7 28.9a14.94 14.94 0 0 1-11-5 16 16 0 0 1-4.82-11.48q0-7.56 4.75-11.12 4.75-3.56 16.75-9.2 17.93-8.46 28.68-17.8a121.9 121.9 0 0 0 19-20.9q8.3-11.57 10.82-14.23 2.53-2.66 9.5-2.67a15.19 15.19 0 0 1 12.6 6.08q4.74 6.08 4.74 16.75v169.73q0 29.8-20.3 29.8-9 0-14.52-6.08-5.52-6.08-5.48-17.9z" fill="#231f20"/><path d="M1462.3 1310.37c0 47-313.54 116.6-700.3 116.6h-1.23c-386.77 0-700.3-69.62-700.3-116.6" stroke="#231f20" stroke-width="24" class="B C E"/><g stroke="#020202" stroke-width="9.558" stroke-linejoin="round"><path d="M839.1 930.69c16.77-6.8 38.82 52.68 38.82 52.68-3 22.67-26.5 12.76-35 25.24s-49.56-52.58-30.26-58.47c14.35-4.4 26.44-19.45 26.44-19.45z" class="D"/><path d="M825.9 957.89s10.6 32.4 22.27 39.68" class="B C"/><path d="M1007.45 846.35c17-6.26 37.14 53.87 37.14 53.87-3.7 22.56-26.87 11.92-35.77 24.13s-47.9-54.1-28.4-59.4c14.53-3.94 27.04-18.6 27.04-18.6z" class="D"/><path d="M993.45 873.12s9.58 32.72 21 40.35" class="B C"/><path d="M726.5 1021.29c16.92 6.4-7.3 65-7.3 65-17.6 14.6-28.1-8.63-42.82-5.24s-.68-72.25 17.5-63.47c13.55 6.62 32.62 3.7 32.62 3.7z" class="D"/><path d="M698.38 1032.36s-14.23 31-10.6 44.25" class="B C"/><path d="M640.95 1149.61c12.72-12.87 56.46 33.06 56.46 33.06 6.2 22-19.3 22.18-22.17 37s-66.3-28.7-50.9-41.75c11.5-9.73 16.6-28.3 16.6-28.3z" class="D"/><path d="M639.6 1179.78s22.54 25.58 36.13 27.66" class="B C"/><path d="M1302.2 568.47c10.82 14.5-41.1 50.87-41.1 50.87-22.7 2.84-19-22.4-33.27-27.47s38.32-61.25 48.9-44.06c7.85 12.77 25.46 20.66 25.46 20.66z" class="D"/><path d="M1272.58 562.58s-28.67 18.45-32.76 31.58" class="B C"/><path d="M783.68 1142.22c12.72-12.86 56.43 33.07 56.43 33.07 6.2 22-19.3 22.18-22.18 37s-66.3-28.7-50.9-41.76c11.53-9.72 16.65-28.3 16.65-28.3z" class="D"/><path d="M782.34 1172.4s22.54 25.58 36.13 27.65" class="B C"/><path d="M1021.38 756.72c12.72-12.87 56.47 33.06 56.47 33.06 6.2 22-19.3 22.18-22.18 37s-66.3-28.72-50.9-41.76c11.48-9.73 16.6-28.3 16.6-28.3z" class="D"/><path d="M1020.1 786.9s22.54 25.58 36.13 27.65" class="B C"/><path d="M1142.57 681.29c17.93-2.4 24.42 60.7 24.42 60.7-8.57 21.2-28.83 5.74-40.2 15.7s-34.86-63.3-14.7-64.22c15-.6 30.48-12.18 30.48-12.18z" class="D"/><path d="M1123.1 704.35s2.17 34 11.64 44" class="B C"/><path d="M917.33 907.73c2-18 64.8-9.14 64.8-9.14 18.53 13.4-1.35 29.36 5.6 42.78s-69.8 18.65-65.82-1.14c2.97-14.76-4.56-32.5-4.56-32.5z" class="D"/><path d="M935.02 932.22s33.55 6.06 45.5-.75" class="B C"/><path d="M1059.64 720.52c0-18.1 63.4-16.17 63.4-16.17 19.88 11.3 1.87 29.33 10.24 41.9s-67.35 26.18-65.56 6.07c1.37-15-8.08-31.8-8.08-31.8z" class="D"/><path d="M1079.9 742.92s34 2.36 45.14-5.72" class="B C"/><path d="M824.34 993.29c1.83-18 64.7-9.72 64.7-9.72 18.64 13.23-1.1 29.37 6 42.73s-69.63 19.27-65.83-.55c2.8-14.77-4.88-32.46-4.88-32.46z" class="D"/><path d="M842.25 1017.63s33.6 5.76 45.48-1.16" class="B C"/><path d="M1055.5 859.74c-6.74 16.8-64.86-8.6-64.86-8.6-14.25-17.9 9.18-27.93 6.1-42.7s72.26.77 63.1 18.76c-6.82 13.42-4.34 32.54-4.34 32.54z" class="D"/><path d="M1045.03 831.4s-30.7-14.84-44-11.5" class="B C"/><path d="M1107.2 782.69c15.9 8.65-16.08 63.42-16.08 63.42-19.42 12.07-26.67-12.37-41.7-11s9.18-71.67 26-60.5c12.5 8.3 31.8 8.07 31.8 8.07z" class="D"/><path d="M1077.85 789.78s-18.32 28.75-16.54 42.38" class="B C"/><path d="M930.1 926.47c2.7 17.9-60.26 25.5-60.26 25.5-21.35-8.18-6.25-28.72-16.4-39.9s62.66-36 63.9-15.83c.95 15 12.77 30.24 12.77 30.24z" class="D"/><path d="M906.72 907.29s-34 2.78-43.77 12.43" class="B C"/><path d="M879.95 968.47c-7.86-16.33 50.14-42 50.14-42 22.8 1.58 14.38 25.64 27.37 33.35s-49.37 52.73-56.47 33.82c-5.26-14.1-21.04-25.17-21.04-25.17z" class="D"/><path d="M907.9 979.89s31.68-12.6 38.2-24.7" class="B C"/><path d="M785.78 984.57c12.72-12.87 56.47 33.06 56.47 33.06 6.2 22-19.3 22.18-22.18 37s-66.3-28.72-50.9-41.76c11.48-9.7 16.6-28.3 16.6-28.3z" class="D"/><path d="M784.44 1014.75s22.54 25.57 36.13 27.65" class="B C"/><path d="M729.3 1055.64c3.82-17.7 65.4-2.46 65.4-2.46 17 15.23-4.36 29.07 1.18 43.13s-71.36 11.4-65.37-7.88c4.47-14.37-1.2-32.8-1.2-32.8z" class="D"/><path d="M744.38 1081.81s32.73 9.48 45.33 3.9" class="B C"/><path d="M820.57 1042.4c12.72-12.87 56.52 33.07 56.52 33.07 6.2 22-19.3 22.18-22.18 37s-66.3-28.72-50.9-41.76c11.43-9.72 16.55-28.3 16.55-28.3z" class="D"/><path d="M819.23 1072.58s22.54 25.58 36.13 27.65" class="B C"/><path d="M906.83 1080.47c11.22 14.2-39.68 52-39.68 52-22.6 3.48-19.67-21.84-34-26.5s36.57-62.32 47.64-45.44c8.2 12.6 26.04 19.95 26.04 19.95z" class="D"/><path d="M877.1 1075.47s-28.13 19.26-31.85 32.5" class="B C"/><path d="M1150.36 627.89c12.72-12.87 56.47 33.06 56.47 33.06 6.2 22-19.3 22.18-22.18 37s-66.3-28.72-50.9-41.76c11.5-9.72 16.6-28.3 16.6-28.3z" class="D"/><path d="M1149.02 658.07s22.54 25.57 36.13 27.65" class="B C"/><path d="M947.33 840.76c12.72-12.87 56.47 33.06 56.47 33.06 6.2 22-19.3 22.18-22.18 37s-66.3-28.72-50.9-41.76c11.5-9.7 16.6-28.3 16.6-28.3z" class="D"/><path d="M946 870.94s22.54 25.58 36.13 27.65" class="B C"/><path d="M688.2 1143.97c-13.32-12.25 31-57.6 31-57.6 21.78-7 22.86 18.48 37.78 20.83s-26.32 67.28-39.9 52.36c-10.13-11.08-28.9-15.58-28.9-15.58z" class="D"/><path d="M718.4 1144.23s24.76-23.44 26.35-37.1" class="B C"/><path d="M739.96 972.47c17.15-5.84 35.8 54.8 35.8 54.8-4.26 22.46-27.15 11.25-36.34 23.24s-46.56-55.26-27-60.06c14.66-3.6 27.53-17.98 27.53-17.98z" class="D"/><path d="M725.3 998.91s8.78 33 20 40.86" class="B C"/><path d="M745.5 915.61c3.44-17.77 65.32-3.85 65.32-3.85 17.38 14.86-3.73 29.15 2.1 43.1s-71.1 12.93-65.5-6.48c4.15-14.46-1.9-32.76-1.9-32.76z" class="D"/><path d="M761.1 941.47s33 8.76 45.4 2.94" class="B C"/></g></svg>