<svg xmlns="http://www.w3.org/2000/svg" xmlns:xlink="http://www.w3.org/1999/xlink" height="1924.004" width="1776.143" xmlns:v="https://vecta.io/nano"><style><![CDATA[.B{stroke:#010101}.C{stroke-width:8.128}.D{stroke-linejoin:round}.E{stroke-linecap:round}.F{fill:#1c7d3e}.G{fill:#f3f9f1}.H{stroke-miterlimit:10}]]></style><g fill="#fff" stroke="#231f20" stroke-width="24" class="H"><path d="M1750 184.474l-774.13 863.2c-24.37 27.18-60.15 23-79.32-8.43L787.6 860.864c-15.18-24.87-10.3-63.3 10.5-86.5L1459 37.394c20.8-23.2 58.48-32.22 84.85-19.82l189.18 89c33.3 15.6 41.35 50.72 16.98 77.9z"/><path d="M1640.6 155.614c-11.45 12.76-32.76 16.64-47.4 8.77l-86.6-46.52c-13.1-7-15-22.25-4.34-34.07s29.9-16 43.27-9.34l88.5 44.4c14.96 7.47 17.98 24 6.57 36.75zm-878.65 1756.4c344.42 0 748.8-183.26 748.8-599.53 0-98.06-335.25-188.18-748.8-188.18h-1.15c-413.55 0-748.8 90.12-748.8 188.18 0 416.27 404.38 599.53 748.8 599.53"/></g><path d="M757.44 1746.234v-134.9q-37.67 28.9-50.7 28.9a15 15 0 0 1-11-5 16 16 0 0 1-4.82-11.49q0-7.56 4.74-11.1 4.74-3.55 16.75-9.2 17.94-8.46 28.7-17.8a121.8 121.8 0 0 0 19-20.9q8.3-11.57 10.82-14.24 2.5-2.67 9.5-2.66a15.18 15.18 0 0 1 12.6 6.07q4.74 6.1 4.75 16.75v169.73q0 29.8-20.3 29.8-9 0-14.53-6.08-5.53-6.08-5.48-17.9z" fill="#231f20"/><g class="E"><path d="M1462.3 1306.764c0 47-313.54 116.6-700.3 116.6h-1.23c-386.77 0-700.3-69.62-700.3-116.6" fill="none" stroke="#231f20" stroke-width="24" class="H"/><path d="M595.85 1169.164l12.86-30.77c-2.9-21.06-25.73-12.7-25.73-12.7l-14.2 31" class="B C D F"/></g><path d="M570.1 1189.634c-7.52-3.46-9.28-18.52-1.6-32.46 5.34-9.68 13.43-11.2 21-7.74s9.48 11.37 6.3 20.25c-5.42 15-18.18 23.4-25.7 19.95z" class="B C D G"/><path d="M535.43 1145.924l-29.84 14.94c-11.54 17.86 11.23 26.42 11.23 26.42l31-14.2" class="B C D E F"/><path d="M568.3 1147.174c3.45 7.53-5 20.1-20 25.65-10.36 3.86-17.48-.26-20.94-7.78s.23-14.8 8.43-19.47c13.9-7.86 29.05-5.92 32.5 1.6z" class="B C D G"/><path d="M613.04 1130.454l12.17 31.05c16.73 13.12 27.32-8.77 27.32-8.77l-11.32-32.12" class="B C D E F"/><path d="M617.3 1097.864c7.8-2.76 19.55 6.84 23.73 22.2 2.9 10.67-1.86 17.4-9.67 20.14s-14.72-1.58-18.6-10.17c-6.57-14.5-3.25-29.43 4.55-32.17z" class="B C D G"/><path d="M621.78 1072.304l32.75-6.26c16-14-3.6-28.48-3.6-28.48l-33.66 5.3" class="B C D E F"/><use xlink:href="#B" class="B C D G"/><path d="M558.8 1135.944l32.27-8.4c15-15.05-5.48-28.17-5.48-28.17l-33.23 7.44" class="B C D E F"/><path d="M526.9 1127.864c-1.8-8.08 9.1-18.6 24.86-20.93 10.94-1.6 17 3.9 18.85 12s-3.3 14.43-12.3 17.28c-15.18 4.8-29.6-.27-31.4-8.35z" class="B C D G"/><path d="M470.48 1267.584l19.1-27.35c1.64-21.2-22.46-17.87-22.46-17.87l-20.45 27.23" class="B C D E F"/><path d="M441 1282.124c-6.62-5-5.15-20.06 5.32-32 7.27-8.33 15.5-8.1 22.1-3.13s6.86 13.12 1.86 21.13c-8.42 13.46-22.7 18.97-29.3 14z" class="B C D G"/><path d="M546.87 1201.784l-30-14.5c-21.2 1.74-14.1 25-14.1 25l30.13 15.87" class="B C D E F"/><path d="M565.9 1228.594c-3.86 7.33-19 8.27-32.5-.16-9.38-5.86-10.46-14-6.6-21.34s11.87-8.85 20.57-5.2c14.67 6.17 22.38 19.37 18.52 26.7z" class="B C D G"/><path d="M707.5 1044.924l9.65-31.9c-5-20.66-26.9-10-26.9-10l-11 32.24" class="B C D E F"/><path d="M684 1067.914c-7.84-2.67-11.13-17.47-4.9-32.12 4.32-10.18 12.2-12.52 20-9.85s10.58 10.35 8.33 19.5c-3.77 15.46-15.6 25.13-23.44 22.46z" class="B C D G"/><path d="M641.7 1075.274l-21.33 25.6c-3.44 21 20.85 19.7 20.85 19.7l22.7-25.4" class="B C D E F"/><path d="M672.3 1063.284c6.18 5.5 3.43 20.42-8 31.48-8 7.7-16.12 6.76-22.3 1.25s-5.7-13.66-.06-21.2c9.52-12.75 24.18-17.04 30.36-11.52z" class="B C D G"/><path d="M555.66 1046.714l-9 32.1c5.42 20.56 27.08 9.5 27.08 9.5l10.32-32.44" class="B C D E F"/><path d="M578.73 1023.274c7.88 2.52 11.46 17.25 5.5 32-4.13 10.26-12 12.75-19.85 10.23s-10.8-10.14-8.7-19.34c3.5-15.5 15.16-25.4 23.05-22.9z" class="B C D G"/><path d="M475.36 1300.564l-4.88-33c-13.35-16.55-28.6 2.4-28.6 2.4l3.82 33.85" class="B C D E F"/><path d="M463.9 1331.384c-8.23.93-17.52-11-18.13-27-.43-11 5.7-16.53 13.93-17.46s14 4.85 15.86 14.1c3.15 15.65-3.44 29.44-11.66 30.37z" class="B C D G"/><path d="M722.1 903.474l-8.3 32.3c5.9 20.43 27.3 8.87 27.3 8.87l9.6-32.67" class="B C D E F"/><path d="M744.6 879.504c7.94 2.34 11.86 17 6.26 31.9-3.9 10.35-11.67 13-19.62 10.68s-11-9.9-9.15-19.13c3.17-15.6 14.6-25.77 22.5-23.44z" class="B C D G"/><path d="M710.66 944.254l-16.5-29c-18.45-10.54-25.78 12.6-25.78 12.6l15.83 30.15" class="B C D E F"/><path d="M711.16 977.134c-7.33 3.85-20.34-3.95-26.68-18.56-4.4-10.14-.67-17.47 6.66-21.32s14.8-.56 19.88 7.38c8.57 13.4 7.47 28.65.14 32.5z" class="B C D G"/><path d="M727.22 978.004l-32.27 8.4c-15 15.06 5.46 28.18 5.46 28.18l33.24-7.44" class="B C D E F"/><path d="M759.1 986.104c1.8 8.08-9.1 18.6-24.86 20.92-10.94 1.6-17-3.9-18.85-12s3.3-14.43 12.3-17.27c15.17-4.8 29.6.27 31.4 8.35z" class="B C D G"/><path d="M763.6 930.994l-30.72 13c-12.68 17.06 9.48 27.08 9.48 27.08l31.78-12.2" class="B C D E F"/><path d="M796.27 934.394c3 7.74-6.33 19.73-21.58 24.3-10.6 3.17-17.43-1.4-20.4-9.14s1.2-14.75 9.7-18.87c14.32-6.95 29.32-4.02 32.28 3.7z" class="B C D G"/><path d="M643.46 1010.934l-7.55 32.48c6.36 20.3 27.5 8.24 27.5 8.24l8.85-32.88" class="B C D E F"/><path d="M665.42 986.464c8 2.15 12.25 16.7 7 31.73-3.66 10.44-11.37 13.3-19.37 11.13s-11.24-9.63-9.6-18.92c2.8-15.67 13.97-26.1 21.96-23.94z" class="B C D G"/><path d="M690.27 1002.984l17.42-28.43c.37-21.26-23.5-16.5-23.5-16.5l-18.78 28.4" class="B C D E F"/><path d="M661.7 1019.274c-6.9-4.57-6.34-19.72 3.4-32.32 6.77-8.75 15-9 21.9-4.44s7.63 12.7 3.12 21c-7.6 13.97-21.5 20.35-28.4 15.76z" class="B C D G"/><path d="M755.2 941.454l32.75-6.26c16-14-3.6-28.48-3.6-28.48l-33.65 5.25" class="B C D E F"/><use xlink:href="#B" x="133.43" y="-130.85" class="B C D G"/><path d="M840.94 914.074l9.65-31.9c-5-20.66-26.9-10-26.9-10l-11 32.24" class="B C D E F"/><path d="M817.42 937.064c-7.83-2.67-11.12-17.47-4.9-32.12 4.33-10.18 12.22-12.52 20-9.85s10.6 10.35 8.33 19.5c-3.76 15.46-15.6 25.13-23.44 22.46z" class="B C D G"/><path d="M689.1 915.864l-9 32.1c5.42 20.55 27.1 9.5 27.1 9.5l10.35-32.44" class="B C D E F"/><path d="M712.16 892.424c7.9 2.52 11.46 17.25 5.52 32-4.13 10.26-12 12.75-19.86 10.23s-10.78-10.14-8.7-19.34c3.47-15.5 15.15-25.45 23.04-22.9z" class="B C D G"/><path d="M855.52 772.624l-8.28 32.3c5.9 20.43 27.3 8.87 27.3 8.87l9.6-32.67" class="B C D E F"/><path d="M878.04 748.654c7.95 2.34 11.86 17 6.26 31.9-3.9 10.35-11.67 13-19.6 10.68s-11-9.9-9.16-19.13c3.16-15.6 14.57-25.77 22.5-23.44z" class="B C D G"/><path d="M844.1 813.404l-16.52-29c-18.45-10.57-25.78 12.62-25.78 12.62l15.84 30.15" class="B C D E F"/><path d="M844.6 846.284c-7.33 3.85-20.33-3.95-26.67-18.56-4.4-10.14-.68-17.47 6.65-21.32s14.8-.56 19.9 7.38c8.6 13.4 7.46 28.65.13 32.5z" class="B C D G"/><path d="M860.65 847.164l-32.27 8.4c-15 15.06 5.47 28.18 5.47 28.18l33.23-7.43" class="B C D E F"/><path d="M892.53 855.254c1.8 8.08-9.12 18.6-24.87 20.92-10.94 1.6-17-3.9-18.85-12s3.32-14.43 12.3-17.27c15.18-4.8 29.6.27 31.4 8.35z" class="B C D G"/><path d="M897 800.144l-30.72 13c-12.68 17.06 9.48 27.1 9.48 27.1l31.84-12.18" class="B C D E F"/><path d="M929.7 803.544c3 7.74-6.33 19.73-21.58 24.3-10.6 3.17-17.43-1.4-20.38-9.14s1.2-14.75 9.68-18.87c14.33-6.97 29.33-3.97 32.28 3.7z" class="B C D G"/><path d="M776.9 880.084l-7.55 32.48c6.37 20.3 27.5 8.24 27.5 8.24l8.86-32.88" class="B C D E F"/><path d="M798.86 855.614c8 2.15 12.24 16.7 7 31.73-3.65 10.44-11.37 13.3-19.36 11.13s-11.25-9.63-9.6-18.92c2.77-15.7 13.95-26.1 21.95-23.94z" class="B C D G"/><path d="M823.7 872.144l17.4-28.44c.37-21.26-23.48-16.5-23.48-16.5l-18.78 28.4" class="B C D E F"/><path d="M795.14 888.424c-6.9-4.57-6.35-19.72 3.4-32.3 6.76-8.76 15-9 21.9-4.45s7.62 12.7 3.12 21c-7.6 13.97-21.5 20.33-28.4 15.76z" class="B C D G"/><defs ><path id="B" d="M590.5 1062.154c-1.27-8.18 10.3-18 26.18-19.25 11-.9 16.75 5 18 13.2s-4.25 14.18-13.4 16.43c-15.44 3.8-29.5-2.2-30.77-10.37z"/></defs></svg>