<svg id="Layer_1" data-name="Layer 1" xmlns="http://www.w3.org/2000/svg" viewBox="0 0 1697 2000"><path d="M849.14,1982.09c381.24,0,828.86-202.85,828.86-663.63,0-108.54-371.1-208.3-828.86-208.3h-1.28C390.1,1110.16,19,1209.92,19,1318.46c0,460.78,447.62,663.63,828.86,663.63Z" style="fill:#fff;stroke:#231f20;stroke-miterlimit:10;stroke-width:24px"/><path d="M824.28,1782.35h85.65q12.8,0,19.53,5.25a17.16,17.16,0,0,1,6.73,14.28,19,19,0,0,1-5.34,13.62q-5.33,5.58-16.16,5.57H793.92q-12.3,0-19.19-6.81a21.73,21.73,0,0,1-6.9-16q0-5.91,4.43-15.67t9.69-15.35q21.81-22.63,39.38-38.8t25.1-21.25a144.47,144.47,0,0,0,22.4-19.12,76.06,76.06,0,0,0,13.62-19.69,46.71,46.71,0,0,0,4.67-19.77,35.61,35.61,0,0,0-5-18.79A34.8,34.8,0,0,0,868.5,1617a39.34,39.34,0,0,0-18.79-4.59q-21.5,0-33.8,18.87-1.63,2.46-5.5,13.45t-8.69,16.9q-4.85,5.91-14.2,5.91a18.44,18.44,0,0,1-13.61-5.41q-5.42-5.41-5.42-14.77a61.79,61.79,0,0,1,5.09-23.63,67.81,67.81,0,0,1,15.18-22.32q10.08-10,25.59-16.16t36.35-6.15q25.09,0,42.82,7.87a64.68,64.68,0,0,1,20.19,14.44,67.81,67.81,0,0,1,18.37,46.28,70,70,0,0,1-10.09,37q-10.08,16.65-20.59,26.09t-35.2,29.61q-24.69,20.19-33.88,31.34A92.45,92.45,0,0,0,824.28,1782.35Z" style="fill:#231f20"/><path d="M1624.36,1312.14c0,52-347.06,129.08-775.18,129.08h-1.36c-428.12,0-775.18-77.07-775.18-129.08" style="fill:none;stroke:#231f20;stroke-linecap:round;stroke-miterlimit:10;stroke-width:24px"/><path d="M1546.65,607.38c84.5-167,81.89-284,44.51-358.8C1558.8,183.88,1382,25.2,1382,25.2c-85.1-43-225.16,109.45-336.14,328.83S895,776.6,980.09,819.65c0,0,232.6,48.43,303.89,36.16C1366.35,841.64,1462.15,774.43,1546.65,607.38Z" style="fill:#fff;stroke:#000;stroke-linecap:round;stroke-miterlimit:10;stroke-width:24px"/><path d="M1004.31,770.25l-2.45-1.14C1002.66,769.52,1003.49,769.89,1004.31,770.25Z" style="fill:#231f20;stroke:#fff;stroke-miterlimit:10"/><path id="path853" d="M872.26,715.34c144.13-87.2,334.77-81.77,334.77-81.77L1088.45,773.08l-86.32-7.71c-35.51,172.88,108.53,274,51.51,440.68-69.61,203.49-282.35,227.86-355.94,66.3C594.35,1045.45,730.48,801.12,872.26,715.34Z" style="fill:#fff;stroke:#000;stroke-linecap:round;stroke-linejoin:round;stroke-width:24px"/><path d="M1543.45,226.82c-32.35-64.7-189.29-154.14-189.29-154.14,64.12,32.44,37.25,214.64-60,407-96.06,189.9-224.84,318.64-289.81,290.62,23.71,11,165.2,75.29,232,63.8,82.37-14.18,178.16-81.39,262.67-248.44S1580.84,301.57,1543.45,226.82Z" style="fill:#fff"/><path d="M1354.16,72.68c64.12,32.44,37.25,214.64-60,407S1066,801.55,1001.86,769.11" style="fill:none;stroke:#000;stroke-linecap:round;stroke-miterlimit:10;stroke-width:24px"/></svg>