<svg xmlns="http://www.w3.org/2000/svg" xmlns:xlink="http://www.w3.org/1999/xlink" height="1719.944" width="1923.97" xmlns:v="https://vecta.io/nano"><style><![CDATA[.B{stroke:#231f20}.C{stroke-width:24}.D{stroke-miterlimit:10}.E{fill:#231f20}.F{stroke-linecap:round}]]></style><path d="M555.8 1356.434l-3.75 5.52-.14-.05-.27-.1-.55-.2-1.1-.4-2.2-.78-4.4-1.55-8.8-3-17.53-6.1-35-11.62c-23.23-7.64-46.6-14.5-69.8-21.42q-17.4-5.13-34.94-9.76l-34.86-9.5-69.07-17.13-71.73-16.87c-24-5.27-48.3-9.77-72.05-15.75s-46.83-13.9-68.9-24.85c-11.1-5.27-21.88-11.5-32.6-17.9-5.57-2.6-10.17-8.08-13-18.8a78 78 0 0 1-1.87-8.83l-1.13-11.08v-.33a81.49 81.49 0 0 1 18.45-55.1l.17-.2 7.58-8.17a80.12 80.12 0 0 1 6.84-5.92c8.77-6.83 15.8-8.42 21.85-7.15 12.52 1.35 25 2.88 37.13 5.37 24.42 4.56 47.84 12.16 70.57 21.7s45 20.55 67.43 30.8l67.7 29.67c23.83 11.34 45.9 23.55 67.82 36.47 11 6.42 21.86 12.95 32.63 19.7s21.3 13.86 31.8 21c21.06 14.17 41.4 29.54 61.12 45.48 9.8 8.08 19.55 16.17 28.9 24.8 4.7 4.23 9.33 8.6 13.9 13l6.74 6.72 3.35 3.38 1.67 1.68.83.85.73.73c-1.56 2.5 3.7-5.5-3.5 5.67z" class="E"/><g class="B C D"><path d="M1129.35 1207.624h1.32c431.5 0 781.3 68.6 781.3 170.9-19.33 79.26-74.64 190.53-141.4 241.5-53.54 36.66-364.3 87.92-639.85 87.92h-3.9c-275.53 0-586.3-51.26-639.84-87.92-66.78-51-122.1-162.24-141.42-241.5 0-102.3 349.8-170.9 781.3-170.9h1.2" fill="#fff"/><path d="M1858.8 1372.584c0 49-327.14 121.66-730.7 121.66h-1.3c-403.56 0-730.7-72.64-730.7-121.66" fill="none" class="F"/></g><g class="E"><circle r="15.48" cy="1331.544" cx="579.07"/><circle r="15.48" cy="1368.694" cx="481.38"/></g><use xlink:href="#B" fill="#fff" class="B C D"/><path d="M1535.63 714.354l31.24-53q4.67-7.92 10.37-10.16a12.31 12.31 0 0 1 11.28 1 13.61 13.61 0 0 1 6.48 8.26q1.5 5.34-2.45 12l-44 74.68q-4.48 7.6-11.2 9.38a15.63 15.63 0 0 1-12.41-1.57c-2.44-1.44-5.13-4.25-8.07-8.46a40.22 40.22 0 0 1-6-11.58q-6-21.75-9.63-38.5-3.63-16.76-4-23.27a104.09 104.09 0 0 0-3.66-20.83 54.51 54.51 0 0 0-7.2-15.6 33.8 33.8 0 0 0-10.52-10.11 25.72 25.72 0 0 0-13.45-3.76 24.87 24.87 0 0 0-12.93 3.73 28.27 28.27 0 0 0-9.7 9.94q-7.85 13.3-.66 27.8.93 1.9 6.32 8.3 5.4 6.4 7.28 11.55c1.25 3.43.75 7.07-1.53 10.93a13.24 13.24 0 0 1-8.31 6.44q-5.32 1.38-11.1-2a44.5 44.5 0 0 1-12.75-11.72 48.53 48.53 0 0 1-8.26-17.52 54.09 54.09 0 0 1-.66-21.73q1.86-11.84 9.45-24.72 9.16-15.52 20.5-23.6a46.23 46.23 0 0 1 16.29-7.21 48.69 48.69 0 0 1 35.32 5.51 50.27 50.27 0 0 1 19.2 19.74q6.62 12.32 8.62 22.25 2 9.93 5.47 32.57 3.48 22.63 7 32.4a64.94 64.94 0 0 0 3.69 8.9z" class="E"/><g class="B C D"><use xlink:href="#C" fill="none" class="F"/><use xlink:href="#B" fill="#fff"/></g><path d="M1476 664.954a28.7 28.7 0 0 0 4-19.32q-1.5-10-11.75-16a21.84 21.84 0 0 0-16.62-2.55q-8.8 2.06-14.2 11.18a30.32 30.32 0 0 0-4.29 11.22 19.06 19.06 0 0 0 .83 9 39.44 39.44 0 0 0 4.7 8.73q3.24 4.7 6.18 8.77a8.28 8.28 0 0 1 1.19 5.63 16.86 16.86 0 0 1-2.37 6.81 12.26 12.26 0 0 1-7.7 5.51 13.51 13.51 0 0 1-10.78-1.78 27.06 27.06 0 0 1-9.23-9.75 47 47 0 0 1-5.6-15.89 54.36 54.36 0 0 1 .53-20.27 71.29 71.29 0 0 1 8.84-22.28 66 66 0 0 1 13.28-16.37 48.7 48.7 0 0 1 16.08-9.53 39.09 39.09 0 0 1 17.1-2.09 40.07 40.07 0 0 1 16.2 5.46q10.16 6 14.8 14.68a68.19 68.19 0 0 1 6.71 21 65.06 65.06 0 0 1 17.61-7.6 42.32 42.32 0 0 1 32.92 4.72 52.05 52.05 0 0 1 15.67 14.24 53 53 0 0 1 8.94 20 60.36 60.36 0 0 1 .46 23.32 70 70 0 0 1-9.09 24.12 60.85 60.85 0 0 1-17.23 19.24 58.2 58.2 0 0 1-20.28 9.44 57.6 57.6 0 0 1-19.11 1.45q-8.88-.93-13.45-3.63a14.45 14.45 0 0 1-7.24-9.4 15.35 15.35 0 0 1 2-11.61 11.72 11.72 0 0 1 4.91-4.49 9.2 9.2 0 0 1 6-1.09q17.22 3 27.63 1 10.4-2 16.87-13a29.64 29.64 0 0 0 .56-29 30.17 30.17 0 0 0-11.82-12.04q-11.87-7-22.45-4.5-10.58 2.5-17.4 14.08-1.2 2-3.3 6.53-2.1 4.53-2.82 5.72-3.3 5.58-7.88 7-4.58 1.42-9.56-1.54a11.23 11.23 0 0 1-5.71-8.29q-.82-5.4 3.4-12.62z" class="E"/><use xlink:href="#C" fill="none" class="B C D F"/><path d="M836.32 1388.084c-14.6-91.52 27.4-353.13 172.93-404.75 0 0 30.8-31.3 24.8-30.48-312 43.44-335.48 353.07-335.48 423.8" fill="#fff"/><path d="M698.57 1376.644c0-72.07 20.4-401.9 349.73-435.57m-39.05 50.02c-145.52 51.62-187.52 305.47-172.93 397" fill="none" class="B C D F"/><defs ><path id="B" d="M1668.27 771.784c139.07-235.75 176.9-586.55-108-754.64-67.12-39.6-264.18 153.5-431.17 436.58l-.47.8c-167 283.08-240.66 549-173.54 588.54 285 168.1 573.67-34.72 712.74-270.48"/><path id="C" d="M1536.8 47.984c32.16 19-46.78 261.7-203 526.45l-.5.84c-156.17 264.75-330.43 451.25-362.6 432.28"/></defs></svg>