<svg id="Layer_1" data-name="Layer 1" xmlns="http://www.w3.org/2000/svg" width="2000" height="2000" viewBox="0 0 2000 2000">
  <g>
    <path d="M592,1493.92c-7.26,11.12-2.09,3-3.75,5.52l-.14,0-.27-.09-.55-.2-1.11-.39-2.21-.78-4.41-1.55-8.81-3.05-17.54-6.07c-11.74-3.87-23.26-8-35-11.62-23.23-7.64-46.61-14.49-69.8-21.42q-17.4-5.13-34.94-9.76c-11.6-3.28-23.2-6.49-34.86-9.49-23.34-5.9-46.77-11.94-69.07-17.13L237.84,1401c-24-5.27-48.29-9.77-72.05-15.75s-46.83-13.89-68.9-24.85c-11.1-5.27-21.88-11.5-32.6-17.91-5.57-2.61-10.17-8.08-13-18.79a78,78,0,0,1-1.87-8.83l-1.13-11.08,0-.33a81.49,81.49,0,0,1,18.45-55.1l.17-.2,7.58-8.17a80.12,80.12,0,0,1,6.84-5.92c8.77-6.83,15.79-8.42,21.85-7.15,12.52,1.35,25,2.88,37.13,5.37,24.42,4.56,47.84,12.16,70.57,21.71s45,20.55,67.43,30.81L346,1314.46c23.83,11.34,45.91,23.55,67.82,36.47,11,6.42,21.86,13,32.63,19.69s21.31,13.86,31.81,21c21.06,14.17,41.39,29.54,61.12,45.48,9.81,8.08,19.55,16.17,28.89,24.79,4.71,4.23,9.33,8.59,13.91,13l6.74,6.72,3.35,3.38,1.67,1.68.83.85.42.42.21.21.1.1C593.94,1490.76,599.19,1482.75,592,1493.92Z" style="fill: #231f20"/>
    <path d="M1165.55,1345.11h1.32c431.5,0,781.3,68.6,781.3,170.9-19.33,79.26-74.64,190.53-141.41,241.5-53.54,36.66-364.31,87.92-639.85,87.92H1163c-275.53,0-586.31-51.26-639.84-87.92-66.78-51-122.09-162.24-141.42-241.5,0-102.3,349.8-170.9,781.3-170.9h1.2" style="fill: #fff;stroke: #231f20;stroke-miterlimit: 10;stroke-width: 24px"/>
    <path d="M1895,1510.07c0,49-327.14,121.66-730.7,121.66H1163c-403.56,0-730.7-72.64-730.7-121.66" style="fill: none;stroke: #231f20;stroke-linecap: round;stroke-miterlimit: 10;stroke-width: 24px"/>
    <circle cx="615.27" cy="1469.03" r="15.48" style="fill: #231f20"/>
    <circle cx="517.58" cy="1506.18" r="15.48" style="fill: #231f20"/>
  </g>
  <g>
    <path d="M1840.67,898.34C1963.52,653.74,1977.62,301.18,1682,152.7c-69.64-35-253.23,171-400.73,464.68l-.41.82c-147.51,293.7-203.08,563.94-133.44,598.91,295.63,148.48,570-73.35,692.86-317.95" style="fill: #fff;stroke: #231f20;stroke-miterlimit: 10;stroke-width: 24px"/>
    <path d="M1750.28,783.22q11.43,5.74,4.93,18.68l-41.15,81.93q-2.8,5.61-7.78,7.16a12.81,12.81,0,0,1-9.92-.94,18.28,18.28,0,0,1-9.15-10.8l-28.14-75.69q-5.37-14-11.56-22.41a40.53,40.53,0,0,0-14.38-12.49q-10.12-5.08-18.45-2T1601,780.58a50.92,50.92,0,0,0-5.26,18.82,95.73,95.73,0,0,0,.77,21.31,29.67,29.67,0,0,1,.31,5.56,11.64,11.64,0,0,1-1.19,4.8c-1.23,2.44-3.45,4-6.65,4.63a14.43,14.43,0,0,1-9.54-1.42,13.84,13.84,0,0,1-5-4,16,16,0,0,1-2.64-6,83.81,83.81,0,0,1-.81-28.22,86.18,86.18,0,0,1,8.36-27.66q11.14-22.2,29-29.84t36.85,1.9a62.49,62.49,0,0,1,21.87,18q8.71,11.4,16.23,31.91l20.94,57.22,28.59-56.92Q1739.29,777.7,1750.28,783.22Z" style="fill: #231f20"/>
    <path d="M1660.65,185.08c33.36,16.76-29,264.27-167,538.95l-.44.87c-138,274.68-299.23,472.52-332.6,455.76" style="fill: none;stroke: #231f20;stroke-linecap: round;stroke-miterlimit: 10;stroke-width: 24px"/>
  </g>
  <g>
    <path d="M1840.67,898.34C1963.52,653.74,1977.62,301.18,1682,152.7c-69.64-35-253.23,171-400.73,464.68l-.41.82c-147.51,293.7-203.08,563.94-133.44,598.91,295.63,148.48,570-73.35,692.86-317.95" style="fill: #fff;stroke: #231f20;stroke-miterlimit: 10;stroke-width: 24px"/>
    <path d="M1750.28,783.22q11.43,5.74,4.93,18.68l-41.15,81.93q-2.8,5.61-7.78,7.16a12.81,12.81,0,0,1-9.92-.94,18.28,18.28,0,0,1-9.15-10.8l-28.14-75.69q-5.37-14-11.56-22.41a40.53,40.53,0,0,0-14.38-12.49q-10.12-5.08-18.45-2T1601,780.58a50.92,50.92,0,0,0-5.26,18.82,95.73,95.73,0,0,0,.77,21.31,29.67,29.67,0,0,1,.31,5.56,11.64,11.64,0,0,1-1.19,4.8c-1.23,2.44-3.45,4-6.65,4.63a14.43,14.43,0,0,1-9.54-1.42,13.84,13.84,0,0,1-5-4,16,16,0,0,1-2.64-6,83.81,83.81,0,0,1-.81-28.22,86.18,86.18,0,0,1,8.36-27.66q11.14-22.2,29-29.84t36.85,1.9a62.49,62.49,0,0,1,21.87,18q8.71,11.4,16.23,31.91l20.94,57.22,28.59-56.92Q1739.29,777.7,1750.28,783.22Z" style="fill: #231f20"/>
    <path d="M1660.65,185.08c33.36,16.76-29,264.27-167,538.95l-.44.87c-138,274.68-299.23,472.52-332.6,455.76" style="fill: none;stroke: #231f20;stroke-linecap: round;stroke-miterlimit: 10;stroke-width: 24px"/>
  </g>
  <g>
    <path d="M843.71,1232.31V1090.77c0-288.12,271.9-318.88,271.9-318.88" style="fill: none;stroke: #221f1f;stroke-linecap: round;stroke-linejoin: round;stroke-width: 24px"/>
    <polyline points="966.71 1096.04 843.71 1241.01 720.71 1096.04" style="fill: none;stroke: #221f1f;stroke-linecap: round;stroke-linejoin: round;stroke-width: 24px"/>
  </g>
</svg>
