<?xml version="1.0" encoding="UTF-8" standalone="no"?>
<svg
   xmlns:dc="http://purl.org/dc/elements/1.1/"
   xmlns:cc="http://creativecommons.org/ns#"
   xmlns:rdf="http://www.w3.org/1999/02/22-rdf-syntax-ns#"
   xmlns:svg="http://www.w3.org/2000/svg"
   xmlns="http://www.w3.org/2000/svg"
   xmlns:sodipodi="http://sodipodi.sourceforge.net/DTD/sodipodi-0.dtd"
   xmlns:inkscape="http://www.inkscape.org/namespaces/inkscape"
   inkscape:version="1.0beta1 (32d4812, 2019-09-19)"
   sodipodi:docname="pour_pot_big_bowl.svg"
   id="svg3470"
   version="1.1"
   width="1845.591"
   height="1924.041">
  <metadata
     id="metadata3476">
    <rdf:RDF>
      <cc:Work
         rdf:about="">
        <dc:format>image/svg+xml</dc:format>
        <dc:type
           rdf:resource="http://purl.org/dc/dcmitype/StillImage" />
        <dc:title></dc:title>
      </cc:Work>
    </rdf:RDF>
  </metadata>
  <defs
     id="defs3474" />
  <sodipodi:namedview
     inkscape:current-layer="svg3470"
     inkscape:window-maximized="0"
     inkscape:window-y="25"
     inkscape:window-x="0"
     inkscape:cy="962.02051"
     inkscape:cx="42.122286"
     inkscape:zoom="0.14136913"
     showgrid="false"
     id="namedview3472"
     inkscape:window-height="480"
     inkscape:window-width="870"
     inkscape:pageshadow="2"
     inkscape:pageopacity="0"
     guidetolerance="10"
     gridtolerance="10"
     objecttolerance="10"
     borderopacity="1"
     inkscape:document-rotation="0"
     bordercolor="#666666"
     pagecolor="#ffffff" />
  <path
     id="path3456"
     stroke-miterlimit="10"
     stroke-width="24"
     stroke="#231f20"
     fill="#fff"
     d="M606.53 1912c273.06 0 593.7-145.27 593.7-475.27 0-77.74-265.8-149.2-593.66-149.2h-.9c-327.87 0-593.66 71.45-593.66 149.2 0 330 320.6 475.3 593.66 475.3" />
  <path
     id="path3460"
     stroke-miterlimit="10"
     stroke-linecap="round"
     stroke-width="24"
     stroke="#231f20"
     fill="none"
     d="M1161.77 1432.17c0 37.25-248.57 92.45-555.2 92.45h-1c-306.64 0-555.2-55.2-555.2-92.45" />
  <path
     id="path3462"
     fill="#fff"
     d="M394.9 1487.33s-27.3-545.14 655.26-701.17L935.4 955.87c-340.48 128.32-278.48 539.22-278.48 539.22" />
  <g
     id="g3468"
     stroke-width="24"
     stroke="#231f20">
    <path
       id="path3464"
       stroke-linejoin="round"
       stroke-linecap="round"
       fill="none"
       d="M935.4 955.87C594.92 1084.2 656.92 1495.1 656.92 1495.1m-262.02-7.76s-27.3-545.14 655.26-701.17" />
    <path
       id="path3466"
       stroke-linejoin="round"
       fill="#fff"
       d="M1197.95 212.62l51.65-161.76c20.2-63.23 119.44-43.74 128.7 18.52l27.53 185zm-170.5 848l-14.88 169.1c-5.82 66.1 93.25 86.5 125.85 32.66l96.92-160zm43-873.62l663.2 133.35a124.17 124.17 0 0 1 97.46 146.53l-121.44 604a124.17 124.17 0 0 1-146.43 97.45L900 1034.99z" />
  </g>
</svg>
