<svg id="Layer_1" data-name="Layer 1" xmlns="http://www.w3.org/2000/svg" viewBox="0 0 2000 2000"><path d="M889.24,1972.77c326.17,0,709.14-173.54,709.14-567.77,0-92.86-317.49-178.21-709.14-178.21h-1.09C496.51,1226.79,179,1312.14,179,1405c0,394.23,383,567.77,709.13,567.77Z" style="fill:#fff;stroke:#231f20;stroke-miterlimit:10;stroke-width:24px"/><path d="M885,1815.78V1688q-35.65,27.38-48,27.38a14.21,14.21,0,0,1-10.46-4.7,15.17,15.17,0,0,1-4.56-10.88q0-7.17,4.49-10.53t15.86-8.71q17-8,27.17-16.84a115.3,115.3,0,0,0,18-19.8q7.86-11,10.25-13.47t9-2.53a14.37,14.37,0,0,1,11.93,5.76q4.5,5.74,4.5,15.86v160.74q0,28.21-19.24,28.21-8.56,0-13.75-5.75T885,1815.78Z" style="fill:#231f20"/><path d="M1552.49,1399.6c0,44.5-296.93,110.43-663.21,110.43h-1.17c-366.27,0-663.2-65.93-663.2-110.43" style="fill:none;stroke:#231f20;stroke-linecap:round;stroke-miterlimit:10;stroke-width:24px"/><path d="M1807.75,188.55l-724,807.36c-22.8,25.42-56.27,21.48-74.2-7.88L907.59,821.15c-14.2-23.25-9.63-59.2,9.83-80.9L1535.57,51c19.46-21.7,54.7-30.14,79.36-18.55l176.94,83.21C1823,130.29,1830.55,163.13,1807.75,188.55Z" style="fill:#fff;stroke:#231f20;stroke-miterlimit:10;stroke-width:24px"/><path d="M1705.39,161.56c-10.71,11.93-30.64,15.56-44.33,8.2l-81-43.53c-12.23-6.58-14-20.81-4.06-31.87s28-15,40.47-8.73l82.77,41.52C1713.27,134.17,1716.09,149.62,1705.39,161.56Z" style="fill:#fff;stroke:#231f20;stroke-miterlimit:10;stroke-width:24px"/><polygon points="1141.44 455.3 1220.89 539.31 1140.48 622.94 1091.97 636.45 1024.48 549.44 1092.94 468.81 1141.44 455.3" style="fill:#fffce4;stroke:#0c0d18;stroke-linecap:round;stroke-linejoin:round;stroke-width:12px"/><polyline points="1115.52 567.34 1095.26 540.72 1115.65 514.7" style="fill:#fffce4;stroke:#0c0d18;stroke-linecap:round;stroke-linejoin:round;stroke-width:12px"/><line x1="1095.26" y1="540.72" x2="1067.31" y2="548.17" style="fill:#fffce4;stroke:#0c0d18;stroke-linecap:round;stroke-linejoin:round;stroke-width:12px"/><polygon points="1023.92 614.58 1090.49 693.88 1014.17 764.37 970.1 773.88 914.39 692.52 979.85 624.08 1023.92 614.58" style="fill:#fffce4;stroke:#0c0d18;stroke-linecap:round;stroke-linejoin:round;stroke-width:12px"/><polyline points="998.48 721.85 982.16 688.41 1002.55 662.38" style="fill:#fffce4;stroke:#0c0d18;stroke-linecap:round;stroke-linejoin:round;stroke-width:12px"/><line x1="982.16" y1="688.41" x2="952.09" y2="693.08" style="fill:#fffce4;stroke:#0c0d18;stroke-linecap:round;stroke-linejoin:round;stroke-width:12px"/><polygon points="1154.46 586.06 1233.91 670.07 1153.49 753.7 1104.98 767.21 1037.49 680.2 1105.95 599.57 1154.46 586.06" style="fill:#fffce4;stroke:#0c0d18;stroke-linecap:round;stroke-linejoin:round;stroke-width:12px"/><polyline points="1139.24 707.57 1108 666.52 1139.44 626.38" style="fill:#fffce4;stroke:#0c0d18;stroke-linecap:round;stroke-linejoin:round;stroke-width:12px"/><line x1="1108" y1="666.52" x2="1064.89" y2="678.01" style="fill:#fffce4;stroke:#0c0d18;stroke-linecap:round;stroke-linejoin:round;stroke-width:12px"/><polygon points="1074.45 1171.45 1033.56 1279.61 923.21 1243.78 889.87 1206.04 938.69 1107.33 1041.11 1133.71 1074.45 1171.45" style="fill:#fffce4;stroke:#0c0d18;stroke-linecap:round;stroke-linejoin:round;stroke-width:12px"/><polyline points="958.49 1210.82 981.78 1164.78 1031.62 1175.55" style="fill:#fffce4;stroke:#0c0d18;stroke-linecap:round;stroke-linejoin:round;stroke-width:12px"/><line x1="981.78" y1="1164.78" x2="952.62" y2="1131.02" style="fill:#fffce4;stroke:#0c0d18;stroke-linecap:round;stroke-linejoin:round;stroke-width:12px"/><polygon points="1260.4 468.37 1316.11 527.28 1259.72 585.93 1225.7 595.41 1178.37 534.38 1226.38 477.84 1260.4 468.37" style="fill:#fffce4;stroke:#0c0d18;stroke-linecap:round;stroke-linejoin:round;stroke-width:12px"/><polyline points="1255.24 552.7 1234.98 526.08 1255.37 500.05" style="fill:#fffce4;stroke:#0c0d18;stroke-linecap:round;stroke-linejoin:round;stroke-width:12px"/><line x1="1234.98" y1="526.08" x2="1207.02" y2="533.53" style="fill:#fffce4;stroke:#0c0d18;stroke-linecap:round;stroke-linejoin:round;stroke-width:12px"/><polygon points="1300.68 523.62 1362.71 589.21 1299.93 654.51 1262.05 665.06 1209.36 597.12 1262.81 534.17 1300.68 523.62" style="fill:#fffce4;stroke:#0c0d18;stroke-linecap:round;stroke-linejoin:round;stroke-width:12px"/><polyline points="1294.94 617.51 1272.38 587.87 1295.08 558.89" style="fill:#fffce4;stroke:#0c0d18;stroke-linecap:round;stroke-linejoin:round;stroke-width:12px"/><line x1="1272.38" y1="587.87" x2="1241.25" y2="596.17" style="fill:#fffce4;stroke:#0c0d18;stroke-linecap:round;stroke-linejoin:round;stroke-width:12px"/><polygon points="836.23 1069.38 898.26 1134.97 835.48 1200.27 797.6 1210.82 744.91 1142.88 798.36 1079.93 836.23 1069.38" style="fill:#fffce4;stroke:#0c0d18;stroke-linecap:round;stroke-linejoin:round;stroke-width:12px"/><polyline points="830.49 1163.27 807.93 1133.63 830.63 1104.65" style="fill:#fffce4;stroke:#0c0d18;stroke-linecap:round;stroke-linejoin:round;stroke-width:12px"/><line x1="807.93" y1="1133.63" x2="776.81" y2="1141.93" style="fill:#fffce4;stroke:#0c0d18;stroke-linecap:round;stroke-linejoin:round;stroke-width:12px"/><polygon points="918.74 1256.81 933.88 1345.81 845.4 1365.23 808.05 1352.96 801.97 1267.2 881.38 1244.54 918.74 1256.81" style="fill:#fffce4;stroke:#0c0d18;stroke-linecap:round;stroke-linejoin:round;stroke-width:12px"/><polyline points="861.81 1331.69 859.51 1294.51 894.49 1283.03" style="fill:#fffce4;stroke:#0c0d18;stroke-linecap:round;stroke-linejoin:round;stroke-width:12px"/><line x1="859.51" y1="1294.51" x2="829.02" y2="1284.12" style="fill:#fffce4;stroke:#0c0d18;stroke-linecap:round;stroke-linejoin:round;stroke-width:12px"/><polygon points="897.39 915.32 953.73 985.85 885.72 1045.69 847.1 1053.04 800.25 980.94 858.76 922.67 897.39 915.32" style="fill:#fffce4;stroke:#0c0d18;stroke-linecap:round;stroke-linejoin:round;stroke-width:12px"/><polyline points="883.83 1008.4 863.82 976.98 888.86 950" style="fill:#fffce4;stroke:#0c0d18;stroke-linecap:round;stroke-linejoin:round;stroke-width:12px"/><line x1="863.82" y1="976.98" x2="832.12" y2="982.65" style="fill:#fffce4;stroke:#0c0d18;stroke-linecap:round;stroke-linejoin:round;stroke-width:12px"/><polygon points="1082.25 1393.27 1053.9 1478.98 966.64 1454.65 939.4 1426.3 974.24 1347.7 1055.01 1364.92 1082.25 1393.27" style="fill:#fffce4;stroke:#0c0d18;stroke-linecap:round;stroke-linejoin:round;stroke-width:12px"/><polyline points="996.85 1432.72 1012.26 1398.81 1048.54 1405.06" style="fill:#fffce4;stroke:#0c0d18;stroke-linecap:round;stroke-linejoin:round;stroke-width:12px"/><line x1="1012.26" y1="1398.81" x2="990.2" y2="1375.33" style="fill:#fffce4;stroke:#0c0d18;stroke-linecap:round;stroke-linejoin:round;stroke-width:12px"/><polygon points="704.13 1428.28 738.51 1344.81 823.82 1375.28 848.97 1405.5 808.63 1481.42 729.29 1458.5 704.13 1428.28" style="fill:#fffce4;stroke:#0c0d18;stroke-linecap:round;stroke-linejoin:round;stroke-width:12px"/><polyline points="792.12 1395.01 774.34 1427.74 738.6 1418.92" style="fill:#fffce4;stroke:#0c0d18;stroke-linecap:round;stroke-linejoin:round;stroke-width:12px"/><line x1="774.34" y1="1427.74" x2="794.67" y2="1452.72" style="fill:#fffce4;stroke:#0c0d18;stroke-linecap:round;stroke-linejoin:round;stroke-width:12px"/><polygon points="1046.26 767.41 1108.29 833 1045.51 898.3 1007.63 908.85 954.94 840.91 1008.39 777.96 1046.26 767.41" style="fill:#fffce4;stroke:#0c0d18;stroke-linecap:round;stroke-linejoin:round;stroke-width:12px"/><polyline points="1040.52 861.3 1017.96 831.66 1040.66 802.68" style="fill:#fffce4;stroke:#0c0d18;stroke-linecap:round;stroke-linejoin:round;stroke-width:12px"/><line x1="1017.96" y1="831.66" x2="986.83" y2="839.96" style="fill:#fffce4;stroke:#0c0d18;stroke-linecap:round;stroke-linejoin:round;stroke-width:12px"/><polygon points="953.56 911.8 1037.15 945.89 1006.97 1031.3 976.85 1056.56 900.78 1016.47 923.43 937.06 953.56 911.8" style="fill:#fffce4;stroke:#0c0d18;stroke-linecap:round;stroke-linejoin:round;stroke-width:12px"/><polyline points="987.14 999.67 954.35 982 963.04 946.23" style="fill:#fffce4;stroke:#0c0d18;stroke-linecap:round;stroke-linejoin:round;stroke-width:12px"/><line x1="954.34" y1="982" x2="929.43" y2="1002.42" style="fill:#fffce4;stroke:#0c0d18;stroke-linecap:round;stroke-linejoin:round;stroke-width:12px"/></svg>