<svg xmlns="http://www.w3.org/2000/svg" viewBox="0 0 2000 2000"><g id="Layer_2" data-name="Layer 2"><path id="path900" d="M1756.43,104.06C1727.69,67.68,1547.54,134.34,1370.8,274s-282.33,298.93-253.66,335.22" style="fill:#adadad;stroke:#000;stroke-linecap:round;stroke-linejoin:round;stroke-width:26.148173332214355px"/><path id="path900-2" data-name="path900" d="M1117.14,609.21l209.35,264.94h0c28.67,36.28,216.74-20.25,393.48-159.91S1994.52,405.37,1965.78,369h0L1756.43,104.06" style="fill:#47bac9;stroke:#000;stroke-linecap:round;stroke-linejoin:round;stroke-width:26.148173332214355px"/><path id="path900-3" data-name="path900" d="M1117.14,609.21c28.67,36.28,203.78-36.65,380.52-176.3s287.51-292.48,258.77-328.85l-1.34,10.1c-69.64-4.85-224.16,57.43-372.57,174.69-148,117-243.64,252.17-255.21,321" style="fill:#db8282;stroke:#000;stroke-linecap:round;stroke-linejoin:round;stroke-width:11.98457944393158px"/><path id="path900-4" data-name="path900" d="M1771.7,123.38c28.75,36.38-82,189.2-258.77,328.85s-351.85,212.59-380.52,176.3" style="fill:none;stroke:#000;stroke-linecap:round;stroke-linejoin:round;stroke-width:11.98457944393158px"/><path d="M1784.33,454.27c-47.63,24.24-100.36,36.14-151.56,51.46S1530,540.83,1491,577.31c-40.08,37.44-63.9,91.58-65.08,146.35,36.93-20.56,59-24.44,59-24.44s-14,17.12-36.74,40.28c71.44-8,139.18-45.83,188.74-98.14C1691.45,583.75,1724.27,506.16,1784.33,454.27Z" style="fill:#fff"/><path d="M1497.43,578.16s-11.92-35.93,1.15-63.39c25,16.13,91.36,5.15,91.36,5.15Z" style="fill:#fff"/><path d="M1599.11,520.54s9.11-51.32,34.57-70.71c-8.9,56.23,14.93,53.81,14.93,53.81Z" style="fill:#fff"/><path d="M1676.55,584.67s49.51,7.39,74.1-10.09c-54-9.09-45.38-30.27-45.38-30.27Z" style="fill:#fff"/><path d="M1559.67,695.63s7.58,10.71,19.23,16.53c17.88,8.91,35.81,7.3,56.36,4.9-27.47-17-18.79-40.11-34.07-53.09C1595.35,678.39,1559.67,695.63,1559.67,695.63Z" style="fill:#fff"/><path d="M1764.78,467.34c19.47,16.24,59.77,33.5,80.94,32.12-13.66-5.75-41.12-28.39-56.41-48.15s-27.69-58.51-26.77-83.77C1751.66,405.82,1755.83,436.57,1764.78,467.34Z" style="fill:#fff"/><path id="path900-5" data-name="path900" d="M1756.43,104.06c28.74,36.37-82,189.19-258.77,328.85s-351.85,212.58-380.52,176.3" style="fill:none;stroke:#000;stroke-linecap:round;stroke-linejoin:round;stroke-width:26.148173332214355px"/><path id="path900-6" data-name="path900" d="M1693.2,42.25c-7.74-23.77-184.85,4.82-393.86,72.85S929.45,264.59,937.17,288.3s186.14-.62,395.16-68.64S1700.93,66,1693.2,42.25Z" style="fill:#6d6e70;stroke:#000;stroke-linecap:round;stroke-linejoin:round;stroke-width:26.148173332214355px"/><path d="M1535.46,250.45c10.32-18.11,37.55-41.84,62.45-53.88s48.85-20,60.57-6.5-5.2,46.14-32.85,71.11C1608,277.06,1562,304.57,1548,290c-10.83-11.26,9.8-37.26,27.27-52.69s40.81-27.25,48.14-20-18.34,31.63-40.07,44.76" style="fill:none;stroke:#000;stroke-linecap:round;stroke-linejoin:round;stroke-width:11.98457944393158px"/><path d="M1513.5,268.09c-9.2,7.07-11.87,17.26-10.35,28s7.22,21.63,16,27.68c7.88,5.45,17.36,6.49,25.78,4.9s16.71-5.51,22.32-11.77" style="fill:none;stroke:#000;stroke-linecap:round;stroke-linejoin:round;stroke-width:11.98457944393158px"/><path d="M1483.24,295.69c-5.83,11.12-5.45,26,.72,37.76,11.26,21.43,34.86,25.51,52.86,16.56" style="fill:none;stroke:#000;stroke-linecap:round;stroke-linejoin:round;stroke-width:11.98457944393158px"/><path d="M1535.66,212c-24.41,12.9-49.25,29.58-67.37,50.13-13.72,15.57-23.12,35.13-20.74,52.62,1.46,10.65,7.12,19.94,7.47,30.86a31.48,31.48,0,0,1-.22,4.83c-1.8,15.18-14.35,30-28.56,39.44-12.94,8.59-29.66,12.35-40.37,3.94-16.25-12.75-.89-38,17.8-48.07,19.27-10.41,36.34,7.51,20.06,23.36-13,12.64-27.45,6-13.13-7.24" style="fill:none;stroke:#000;stroke-linecap:round;stroke-linejoin:round;stroke-width:11.98457944393158px"/><path d="M1421.87,315.06c-31.68,10.13-62.21,35.56-71.4,68.78-3.94,14.21-3.09,33.05,8.67,43.72,16.32,14.8,42.23,8.2,61.25-1.82,10.41-5.48,24.29-11.44,41.7-35.59" style="fill:none;stroke:#000;stroke-linecap:round;stroke-linejoin:round;stroke-width:11.98457944393158px"/><path d="M1649.84,159.42c38-16.78,68.92-4.22,37.69,41.66" style="fill:none;stroke:#000;stroke-linecap:round;stroke-linejoin:round;stroke-width:11.98457944393158px"/><path d="M1491.07,379.21c-25.1,50.18-77.5,84.58-134.24,88.12-14.25.89-28.66,0-42.91.93-41.71,2.82-85.39,19.65-110.19,53.7-4.94,6.78-8.54,15-8.06,23.56s4.92,21.92,25.66,21.26c17.65-.56,35-8.49,49-18.67a73.5,73.5,0,0,0,18.73-19.27c4-6.2,9.76-17.63,4.42-24.46-6.31-8.05-20.48-3.92-28.4-1.22a101.6,101.6,0,0,0-29.26,15.45c-4.11,3.16-16.77,13.24-12.32,19.93,3.89,5.84,23.37-2.76,28.13-6.86" style="fill:none;stroke:#000;stroke-linecap:round;stroke-linejoin:round;stroke-width:11.98457944393158px"/><path d="M1216.36,474.23A206.88,206.88,0,0,1,1322,438.12" style="fill:none;stroke:#000;stroke-linecap:round;stroke-linejoin:round;stroke-width:11.98457944393158px"/><path d="M1271.94,422.15a163.26,163.26,0,0,1,60.73-6.37" style="fill:none;stroke:#000;stroke-linecap:round;stroke-linejoin:round;stroke-width:11.98457944393158px"/><path d="M840.08,928.91V788.76c0-285.3,269.24-315.75,269.24-315.75" style="fill:none;stroke:#000;stroke-linecap:round;stroke-linejoin:round;stroke-width:24px"/><polyline points="961.88 793.98 840.09 937.52 718.29 793.98" style="fill:none;stroke:#000;stroke-linecap:round;stroke-linejoin:round;stroke-width:24px"/><path d="M911.89,1982.09c406.85,0,884.53-216.47,884.53-708.2,0-115.83-396-222.3-884.53-222.3h-1.36C422,1051.59,26,1158.06,26,1273.89c0,491.73,477.69,708.2,884.53,708.2Z" style="fill:#fff;stroke:#000;stroke-miterlimit:10;stroke-width:24px"/><path d="M906.55,1786.27V1626.93q-44.47,34.14-59.88,34.14a17.69,17.69,0,0,1-13-5.86,18.9,18.9,0,0,1-5.69-13.58q0-8.93,5.6-13.13t19.79-10.85q21.18-10,33.88-21a143.29,143.29,0,0,0,22.5-24.69q9.81-13.65,12.79-16.81t11.2-3.15a18,18,0,0,1,14.89,7.18q5.59,7.18,5.6,19.79v200.49q0,35.2-24,35.2-10.68,0-17.16-7.18T906.55,1786.27Z" style="fill:#231f20"/><path d="M1739.18,1267.15c0,55.5-370.37,137.75-827.24,137.75h-1.46c-456.87,0-827.24-82.25-827.24-137.75" style="fill:none;stroke:#000;stroke-linecap:round;stroke-miterlimit:10;stroke-width:24px"/></g></svg>