<svg id="Layer_1" data-name="Layer 1" xmlns="http://www.w3.org/2000/svg" xmlns:xlink="http://www.w3.org/1999/xlink" viewBox="0 0 2000 2000"><defs><linearGradient id="linear-gradient" x1="12944.99" y1="-16571.28" x2="12944.99" y2="-16689.82" gradientTransform="translate(-19517.97 3006.5) rotate(45.63)" gradientUnits="userSpaceOnUse"><stop offset="0.22" stop-color="#3e914e"/><stop offset="0.36" stop-color="#2c8548"/><stop offset="0.58" stop-color="#177740"/><stop offset="0.8" stop-color="#0a6f3c"/><stop offset="1" stop-color="#066c3a"/></linearGradient><linearGradient id="linear-gradient-2" x1="588.34" y1="1356.33" x2="588.34" y2="1313.67" gradientTransform="translate(871.38 -880.05) scale(1 1.1)" gradientUnits="userSpaceOnUse"><stop offset="0" stop-color="#81be66"/><stop offset="1" stop-color="#006838"/></linearGradient><linearGradient id="linear-gradient-3" x1="11939.43" y1="-16683.88" x2="11944.87" y2="-16727.36" gradientTransform="matrix(0.58, 0.81, -0.81, 0.58, -19116.33, 622.88)" gradientUnits="userSpaceOnUse"><stop offset="0" stop-color="#608c50"/><stop offset="1" stop-color="#006838"/></linearGradient><linearGradient id="linear-gradient-4" x1="12875.33" y1="-16215.85" x2="12875.33" y2="-16334.39" xlink:href="#linear-gradient"/><linearGradient id="linear-gradient-5" x1="226.36" y1="1344.92" x2="226.36" y2="1302.26" gradientTransform="translate(930.57 -668.7) scale(1 1.1)" xlink:href="#linear-gradient-2"/><linearGradient id="linear-gradient-6" x1="11925.01" y1="-16321.98" x2="11930.45" y2="-16365.45" xlink:href="#linear-gradient-3"/><linearGradient id="linear-gradient-7" x1="14134.4" y1="-15255.94" x2="14134.4" y2="-15374.48" gradientTransform="translate(-17745.31 9791.27) rotate(21.84)" xlink:href="#linear-gradient"/><linearGradient id="linear-gradient-8" x1="-522.35" y1="2610.07" x2="-522.35" y2="2567.4" gradientTransform="translate(1613.54 -2070.44) scale(1 1.1)" xlink:href="#linear-gradient-2"/><linearGradient id="linear-gradient-9" x1="13316.23" y1="-15566.19" x2="13321.66" y2="-15609.66" gradientTransform="translate(-18339.2 7448.15) rotate(30.65)" xlink:href="#linear-gradient-3"/><linearGradient id="linear-gradient-10" x1="11326.61" y1="-16380.15" x2="11326.61" y2="-16498.68" gradientTransform="matrix(0.49, 0.87, -0.87, 0.49, -18723.99, -1130.53)" xlink:href="#linear-gradient"/><linearGradient id="linear-gradient-11" x1="143.65" y1="-65.47" x2="143.65" y2="-108.14" gradientTransform="translate(1051.34 837.53) scale(1 1.1)" xlink:href="#linear-gradient-2"/><linearGradient id="linear-gradient-12" x1="10369.41" y1="-16247.18" x2="10374.84" y2="-16290.65" gradientTransform="matrix(0.35, 0.94, -0.94, 0.35, -17709, -3324.33)" xlink:href="#linear-gradient-3"/><linearGradient id="linear-gradient-13" x1="14378.31" y1="-15779" x2="14378.31" y2="-15970.88" gradientTransform="translate(-17335.37 11485.96) rotate(17.73)" gradientUnits="userSpaceOnUse"><stop offset="0" stop-color="#0f723d"/><stop offset="1" stop-color="#006838"/></linearGradient><linearGradient id="linear-gradient-14" x1="14364.42" y1="-15793.03" x2="14365.12" y2="-15844.47" gradientTransform="translate(-17335.37 11485.96) rotate(17.73)" gradientUnits="userSpaceOnUse"><stop offset="0" stop-color="#53804a"/><stop offset="1" stop-color="#006838"/></linearGradient><linearGradient id="linear-gradient-15" x1="14392.39" y1="-15792.65" x2="14393.1" y2="-15844.08" xlink:href="#linear-gradient-14"/><linearGradient id="linear-gradient-16" x1="11162.31" y1="-15948.94" x2="11162.31" y2="-16075.26" gradientTransform="translate(-18687.83 310.29) rotate(56.89)" xlink:href="#linear-gradient"/><linearGradient id="linear-gradient-17" x1="11176.54" y1="-15986.52" x2="11182.18" y2="-16031.62" gradientTransform="translate(-18687.83 310.29) rotate(56.89)" xlink:href="#linear-gradient-3"/><linearGradient id="linear-gradient-18" x1="-300.86" y1="-150.43" x2="-300.86" y2="-195.9" gradientTransform="translate(1169.33 1072.65) scale(1 1.1)" xlink:href="#linear-gradient-2"/><linearGradient id="linear-gradient-19" x1="12634.93" y1="-16532.36" x2="12634.93" y2="-16650.9" gradientTransform="matrix(0.66, 0.76, -0.76, 0.66, -19470.26, 2042.93)" xlink:href="#linear-gradient"/><linearGradient id="linear-gradient-20" x1="500.87" y1="1084.26" x2="500.87" y2="1041.6" gradientTransform="translate(880.3 -501.18) scale(1 1.1)" xlink:href="#linear-gradient-2"/><linearGradient id="linear-gradient-21" x1="11638.99" y1="-16597.94" x2="11644.42" y2="-16641.41" gradientTransform="translate(-18927.66 -312.6) rotate(57.84)" xlink:href="#linear-gradient-3"/><linearGradient id="linear-gradient-22" x1="11463.5" y1="-15728.26" x2="11463.5" y2="-15846.8" gradientTransform="matrix(0.26, 0.97, -0.97, 0.26, -17179.62, -6163.05)" xlink:href="#linear-gradient"/><linearGradient id="linear-gradient-23" x1="-478.38" y1="150.61" x2="-478.38" y2="107.95" gradientTransform="translate(1542.16 729.47) scale(1 1.1)" xlink:href="#linear-gradient-2"/><linearGradient id="linear-gradient-24" x1="10604.51" y1="-15623.94" x2="10609.94" y2="-15667.41" gradientTransform="translate(-15654.02 -8038.02) rotate(84)" xlink:href="#linear-gradient-3"/><linearGradient id="linear-gradient-25" x1="12534.77" y1="-16511.69" x2="12534.77" y2="-16630.23" gradientTransform="matrix(0.66, 0.76, -0.76, 0.66, -19470.26, 2042.93)" xlink:href="#linear-gradient"/><linearGradient id="linear-gradient-26" x1="464.61" y1="997.54" x2="464.61" y2="954.87" gradientTransform="translate(835.27 -467.62) scale(1 1.1)" xlink:href="#linear-gradient-2"/><linearGradient id="linear-gradient-27" x1="11543.17" y1="-16562.17" x2="11548.61" y2="-16605.65" gradientTransform="translate(-18927.66 -312.6) rotate(57.84)" xlink:href="#linear-gradient-3"/><linearGradient id="linear-gradient-28" x1="12620.64" y1="-15864.14" x2="12620.64" y2="-15982.67" gradientTransform="matrix(0.66, 0.76, -0.76, 0.66, -19470.26, 2042.93)" xlink:href="#linear-gradient"/><linearGradient id="linear-gradient-29" x1="-161.21" y1="1167.31" x2="-161.21" y2="1124.64" gradientTransform="translate(1028.43 -165.44) scale(1 1.1)" xlink:href="#linear-gradient-2"/><linearGradient id="linear-gradient-30" x1="11727.19" y1="-15935.41" x2="11732.63" y2="-15978.88" gradientTransform="translate(-18927.66 -312.6) rotate(57.84)" xlink:href="#linear-gradient-3"/><linearGradient id="linear-gradient-31" x1="14909.75" y1="-15817.63" x2="14909.75" y2="-16009.52" gradientTransform="translate(-15183.77 14690.86) rotate(6.46)" xlink:href="#linear-gradient-13"/><linearGradient id="linear-gradient-32" x1="14895.85" y1="-15831.67" x2="14896.56" y2="-15883.11" gradientTransform="translate(-15183.77 14690.86) rotate(6.46)" xlink:href="#linear-gradient-14"/><linearGradient id="linear-gradient-33" x1="14923.83" y1="-15831.29" x2="14924.53" y2="-15882.72" gradientTransform="translate(-15183.77 14690.86) rotate(6.46)" xlink:href="#linear-gradient-14"/><linearGradient id="linear-gradient-34" x1="15288.9" y1="-11829.83" x2="15288.9" y2="-12021.72" gradientTransform="translate(11467.31 17164.72) rotate(-84.13)" xlink:href="#linear-gradient-13"/><linearGradient id="linear-gradient-35" x1="15275" y1="-11843.87" x2="15275.71" y2="-11895.3" gradientTransform="translate(11467.31 17164.72) rotate(-84.13)" xlink:href="#linear-gradient-14"/><linearGradient id="linear-gradient-36" x1="15302.98" y1="-11843.48" x2="15303.68" y2="-11894.92" gradientTransform="translate(11467.31 17164.72) rotate(-84.13)" xlink:href="#linear-gradient-14"/><linearGradient id="linear-gradient-37" x1="14647.72" y1="-12189.56" x2="14647.72" y2="-12381.45" gradientTransform="translate(1838.44 20367.36) rotate(-53.19)" xlink:href="#linear-gradient-13"/><linearGradient id="linear-gradient-38" x1="14633.83" y1="-12203.6" x2="14634.53" y2="-12255.03" gradientTransform="translate(1838.44 20367.36) rotate(-53.19)" xlink:href="#linear-gradient-14"/><linearGradient id="linear-gradient-39" x1="14661.8" y1="-12203.21" x2="14662.51" y2="-12254.65" gradientTransform="translate(1838.44 20367.36) rotate(-53.19)" xlink:href="#linear-gradient-14"/><linearGradient id="linear-gradient-40" x1="9725.23" y1="-16442.56" x2="9725.23" y2="-16568.88" gradientTransform="translate(-17313.63 -3649.43) rotate(72.38)" xlink:href="#linear-gradient"/><linearGradient id="linear-gradient-41" x1="9739.46" y1="-16480.14" x2="9745.1" y2="-16525.24" gradientTransform="translate(-17313.63 -3649.43) rotate(72.38)" xlink:href="#linear-gradient-3"/><linearGradient id="linear-gradient-42" x1="-40.73" y1="-1508.09" x2="-40.73" y2="-1553.56" gradientTransform="translate(1455.76 2293.37) scale(1 1.1)" xlink:href="#linear-gradient-2"/><linearGradient id="linear-gradient-43" x1="9752.05" y1="-16351.16" x2="9752.05" y2="-16477.48" gradientTransform="translate(-17313.63 -3649.43) rotate(72.38)" xlink:href="#linear-gradient"/><linearGradient id="linear-gradient-44" x1="9766.28" y1="-16388.74" x2="9771.92" y2="-16433.83" gradientTransform="translate(-17313.63 -3649.43) rotate(72.38)" xlink:href="#linear-gradient-3"/><linearGradient id="linear-gradient-45" x1="-126.74" y1="-1470.97" x2="-126.74" y2="-1516.44" gradientTransform="translate(1462.77 2305.66) scale(1 1.1)" xlink:href="#linear-gradient-2"/><linearGradient id="linear-gradient-46" x1="11928.66" y1="-16394.8" x2="11928.66" y2="-16521.12" gradientTransform="matrix(0.64, 0.77, -0.77, 0.64, -19040.45, 2139.38)" xlink:href="#linear-gradient"/><linearGradient id="linear-gradient-47" x1="11942.9" y1="-16432.38" x2="11948.53" y2="-16477.48" gradientTransform="matrix(0.64, 0.77, -0.77, 0.64, -19040.45, 2139.38)" xlink:href="#linear-gradient-3"/><linearGradient id="linear-gradient-48" x1="260.59" y1="471.87" x2="260.59" y2="426.4" gradientTransform="translate(1021.25 228.96) scale(1 1.1)" xlink:href="#linear-gradient-2"/><linearGradient id="linear-gradient-49" x1="14300.79" y1="-16018.82" x2="14300.79" y2="-16137.36" gradientTransform="matrix(0.98, 0.18, -0.18, 0.98, -15733.39, 13900.08)" xlink:href="#linear-gradient"/><linearGradient id="linear-gradient-50" x1="257.27" y1="2649.68" x2="257.27" y2="2607.01" gradientTransform="translate(1026.77 -2231.18) scale(1 1.1)" xlink:href="#linear-gradient-2"/><linearGradient id="linear-gradient-51" x1="13363.87" y1="-16345.57" x2="13369.31" y2="-16389.04" gradientTransform="translate(-16773.62 11718.11) rotate(19.38)" xlink:href="#linear-gradient-3"/><linearGradient id="linear-gradient-52" x1="12840.75" y1="-16661.63" x2="12840.75" y2="-16853.52" gradientTransform="matrix(0.77, 0.64, -0.64, 0.77, -19097.74, 5229.78)" xlink:href="#linear-gradient-13"/><linearGradient id="linear-gradient-53" x1="12826.86" y1="-16675.67" x2="12827.56" y2="-16727.1" gradientTransform="matrix(0.77, 0.64, -0.64, 0.77, -19097.74, 5229.78)" xlink:href="#linear-gradient-14"/><linearGradient id="linear-gradient-54" x1="12854.83" y1="-16675.28" x2="12855.54" y2="-16726.72" gradientTransform="matrix(0.77, 0.64, -0.64, 0.77, -19097.74, 5229.78)" xlink:href="#linear-gradient-14"/><linearGradient id="linear-gradient-55" x1="13597.97" y1="-16140.89" x2="13597.97" y2="-16332.77" gradientTransform="matrix(0.8, 0.6, -0.6, 0.8, -19303.82, 5533.03)" xlink:href="#linear-gradient-13"/><linearGradient id="linear-gradient-56" x1="13584.07" y1="-16154.92" x2="13584.78" y2="-16206.36" gradientTransform="matrix(0.8, 0.6, -0.6, 0.8, -19303.82, 5533.03)" xlink:href="#linear-gradient-14"/><linearGradient id="linear-gradient-57" x1="13612.05" y1="-16154.54" x2="13612.75" y2="-16205.97" gradientTransform="matrix(0.8, 0.6, -0.6, 0.8, -19303.82, 5533.03)" xlink:href="#linear-gradient-14"/></defs><path d="M1417.21,1459.75c7.45,11.42,2.14,3.13,3.85,5.67l.14-.05.28-.1.57-.2,1.13-.4,2.27-.8,4.53-1.6,9.06-3.13,18-6.23c12.06-4,23.89-8.2,35.93-11.94,23.86-7.85,47.88-14.89,71.7-22q17.88-5.27,35.89-10c11.91-3.37,23.83-6.67,35.81-9.75,24-6.06,48-12.26,70.95-17.59l73.67-17.33c24.68-5.41,49.61-10,74-16.18s48.11-14.27,70.78-25.52c11.4-5.42,22.48-11.81,33.49-18.41,5.72-2.67,10.45-8.29,13.38-19.29a80.9,80.9,0,0,0,1.93-9.08l1.16-11.38v-.34a83.63,83.63,0,0,0-19-56.59l-.17-.21-7.79-8.39a82.44,82.44,0,0,0-7-6.08c-9-7-16.22-8.65-22.44-7.34-12.86,1.38-25.66,3-38.14,5.51-25.09,4.68-49.14,12.49-72.49,22.3s-46.18,21.11-69.26,31.64l-69.59,30.5c-24.49,11.64-47.16,24.19-69.67,37.46-11.26,6.59-22.45,13.3-33.51,20.22s-21.9,14.25-32.68,21.59c-21.64,14.55-42.51,30.34-62.79,46.71-10.07,8.3-20.07,16.61-29.67,25.47-4.84,4.34-9.59,8.82-14.28,13.32l-6.93,6.92-3.44,3.46-1.72,1.73-.85.87-.43.43-.22.22-.1.1C1415.22,1456.5,1409.83,1448.27,1417.21,1459.75Z" style="fill:#231f20"/><path d="M826.71,1273.11c-443.23,0-802.54,104.24-802.54,209.33,19.85,81.41,76.67,195.71,145.26,248.07,55,37.65,295.74,130,657.24,130s606.25-92.39,661.24-130c68.59-52.36,125.41-166.66,145.26-248.07C1633.17,1377.35,1269.94,1273.11,826.71,1273.11Z" style="fill:#fff;stroke:#231f20;stroke-miterlimit:10;stroke-width:24px"/><path d="M78.78,1476.33c0,50.36,300.83,164.71,750.57,164.71s751.89-114.35,751.89-164.71" style="fill:none;stroke:#231f20;stroke-linecap:round;stroke-miterlimit:10;stroke-width:24px"/><circle cx="1393.32" cy="1434.18" r="15.9" style="fill:#231f20"/><circle cx="1493.66" cy="1472.34" r="15.9" style="fill:#231f20"/><path d="M521.17,1519.2V1368.61c0-306.55,289.3-339.28,289.3-339.28" style="fill:none;stroke:#231f20;stroke-linecap:round;stroke-linejoin:round;stroke-width:24px"/><polyline points="652.04 1374.21 521.17 1528.45 390.31 1374.21" style="fill:none;stroke:#231f20;stroke-linecap:round;stroke-linejoin:round;stroke-width:24px"/><path d="M1570.26,317.56l328.07-227a46.15,46.15,0,0,1,64.21,11.69h0a46.15,46.15,0,0,1-11.69,64.21l-328.06,227" style="fill:#fff;stroke:#231f20;stroke-miterlimit:10;stroke-width:24px"/><path d="M1432.67,959c-187,129.41-475.45,181.86-631.86-44.17-60.27-87.11,72.9-283.69,297.45-439.08S1553.71,265,1614,352.11C1770.4,578.14,1619.68,829.6,1432.67,959Z" style="fill:#fff;stroke:#231f20;stroke-miterlimit:10;stroke-width:24px"/><ellipse cx="1334.82" cy="817.61" rx="13.55" ry="13.5" transform="translate(-228.07 904.86) rotate(-34.68)" style="fill:#929497"/><ellipse cx="1365.41" cy="861.81" rx="13.55" ry="13.5" transform="translate(-247.78 930.12) rotate(-34.68)" style="fill:#929497"/><ellipse cx="1396" cy="906.02" rx="13.55" ry="13.5" transform="translate(-267.5 955.38) rotate(-34.68)" style="fill:#929497"/><path d="M1452,849.62c7.72.12,14.58,6.79,15,14.93s-5.79,14.23-13.49,13.56a16.23,16.23,0,0,1-14.58-14.9A12.73,12.73,0,0,1,1452,849.62Z" style="fill:#929497"/><path d="M1445,792.86c7.6-.67,15,5.35,16.15,13.45s-4.26,14.83-12,15a16,16,0,0,1-15.81-13.47C1432.25,800.23,1437.3,793.53,1445,792.86Z" style="fill:#929497"/><path d="M1432,736.66c7.41-1.84,15.38,3.32,17.55,11.47s-2.52,15.56-10.09,16.6a15.75,15.75,0,0,1-17-11.58A13.23,13.23,0,0,1,1432,736.66Z" style="fill:#929497"/><path d="M1521.13,790.62c7.33,1.26,12.44,7.84,11,14.66s-8.63,10.86-15.95,9-12-8.37-10.56-14.57S1513.72,789.34,1521.13,790.62Z" style="fill:#929497"/><path d="M1526.85,742.85c7.51.45,13.08,6.39,12.53,13.28s-7.39,11.7-14.77,10.78-12.75-6.83-12.22-13.24S1519.42,742.41,1526.85,742.85Z" style="fill:#929497"/><path d="M1527.15,694.75c7.47-.46,13.93,4.83,14,11.78.23,7-6,12.48-13.45,12.37s-13.42-5.39-13.63-11.78C1514,700.71,1519.68,695.21,1527.15,694.75Z" style="fill:#929497"/><path d="M1520.55,647.14c7.24-1.9,14.36,2.27,15.88,9.34,1.14,7-4,13.48-11.45,14.41s-14.21-3.32-15.19-9.46C1508.48,655.44,1513.32,649,1520.55,647.14Z" style="fill:#929497"/><path d="M1598.05,694.83a12.71,12.71,0,1,1-7,24.35c-7.11-2.28-11.3-9.41-9.33-15.91C1583.47,696.76,1590.8,693,1598.05,694.83Z" style="fill:#929497"/><path d="M1607.25,645.21a12.72,12.72,0,1,1-3.68,25.08c-7.27-1.43-12.4-7.93-11.3-14.49C1593.21,649.23,1599.77,644.48,1607.25,645.21Z" style="fill:#929497"/><path d="M1608,594.78c7.45-.66,14.13,4.8,14.24,12.23.37,7.43-6,13.29-13.43,13.11s-13.31-5.68-13.65-12.25C1595,601.29,1600.5,595.45,1608,594.78Z" style="fill:#929497"/><path d="M1599.1,545.14c7.12-2,14.78,2,16.36,9.28a12.9,12.9,0,0,1-10.63,15.42c-7.38,1.25-14.46-3-15.8-9.41S1591.83,547.21,1599.1,545.14Z" style="fill:#929497"/><path d="M1322.57,939.18a12.72,12.72,0,0,1,17.33-7.49,16.23,16.23,0,0,1,8.82,18.89c-2.1,7.44-10,11.19-17.46,7.85S1320,946.44,1322.57,939.18Z" style="fill:#929497"/><path d="M1271.91,912.62c3.34-7,11.38-9.31,18.15-5.61a16,16,0,0,1,7,19.55c-2.91,7.15-11.13,9.89-18.28,5.91S1268.61,919.49,1271.91,912.62Z" style="fill:#929497"/><path d="M1223.89,880.66a13.23,13.23,0,0,1,18.79-3.1,15.74,15.74,0,0,1,4.86,20c-3.65,6.73-12.21,8.4-19.09,3.6S1219.56,887,1223.89,880.66Z" style="fill:#929497"/><path d="M1243,983.11c1.42-7.39,7.66-12.29,14-11.35s10.72,7.66,9.92,15-7.1,12.75-14,11.76S1241.58,990.41,1243,983.11Z" style="fill:#929497"/><path d="M1196.26,971.62c2.21-7.1,9-11.49,15.22-9.71s9.86,8.78,8.09,16.1-8.65,11.9-15.3,10S1194,978.81,1196.26,971.62Z" style="fill:#929497"/><path d="M1151.14,955c3.06-6.83,10.21-10.19,16.19-7.89,5.9,2.45,8.76,9.88,6.22,16.91s-9.89,10.89-16.32,8.23C1150.75,969.7,1148.08,961.78,1151.14,955Z" style="fill:#929497"/><path d="M1108.91,932c4.33-6.1,12-8.37,17.16-5,5.41,3.09,7,10.93,3.5,17.56s-11.34,9.17-17.52,5.63C1106,946.24,1104.58,938.1,1108.91,932Z" style="fill:#929497"/><path d="M1126.23,1021.33c.83-7.43,7-13,13.67-12.35,6.78.44,12,6.88,11.61,14.33a12.72,12.72,0,1,1-25.28-2Z" style="fill:#929497"/><path d="M1076.55,1012.46c2-7.26,8.71-11.73,15.19-10.29s10.81,8.38,9.58,15.68a12.72,12.72,0,1,1-24.77-5.39Z" style="fill:#929497"/><path d="M1029.12,995.34c3.24-6.73,10.63-9.8,16.77-7.4,6,2.64,9.12,10,6.65,17.09s-10.18,10.91-17,8C1028.62,1010.26,1025.87,1002.09,1029.12,995.34Z" style="fill:#929497"/><path d="M985.77,969.58c4.5-6.08,12.32-7.61,17.85-4s7,11.63,3.25,18.09a12.89,12.89,0,0,1-18.17,4.52C982.47,984.12,981.36,975.52,985.77,969.58Z" style="fill:#929497"/><path d="M1136.27,530.69a8.8,8.8,0,1,1,2.42-12.37A8.92,8.92,0,0,1,1136.27,530.69Z" style="fill:#929497"/><path d="M1156.2,559.49a8.8,8.8,0,1,1,2.42-12.37A8.92,8.92,0,0,1,1156.2,559.49Z" style="fill:#929497"/><path d="M1176.12,588.28a8.79,8.79,0,1,1,2.43-12.37A8.89,8.89,0,0,1,1176.12,588.28Z" style="fill:#929497"/><path d="M1196.05,617.08a8.79,8.79,0,1,1,2.43-12.37A8.92,8.92,0,0,1,1196.05,617.08Z" style="fill:#929497"/><path d="M1216,645.88a8.8,8.8,0,1,1,2.42-12.37A8.92,8.92,0,0,1,1216,645.88Z" style="fill:#929497"/><path d="M1235.91,674.67a8.8,8.8,0,1,1,2.42-12.37A8.92,8.92,0,0,1,1235.91,674.67Z" style="fill:#929497"/><path d="M1255.83,703.47a8.79,8.79,0,1,1,2.43-12.37A8.92,8.92,0,0,1,1255.83,703.47Z" style="fill:#929497"/><path d="M1275.76,732.26a8.79,8.79,0,1,1,2.43-12.36A8.91,8.91,0,0,1,1275.76,732.26Z" style="fill:#929497"/><path d="M1320.75,683.33c4.91-1.08,9.65,2.26,10.66,7.46.84,5.3-2.54,10.09-7.56,10.65a9.19,9.19,0,0,1-3.1-18.11Z" style="fill:#929497"/><path d="M1311.5,647.92a9.19,9.19,0,1,1-6.13,11.28A9.09,9.09,0,0,1,1311.5,647.92Z" style="fill:#929497"/><path d="M1300.29,613.08a9.19,9.19,0,1,1-5.64,11.56A9.08,9.08,0,0,1,1300.29,613.08Z" style="fill:#929497"/><path d="M1288,578.6a9.19,9.19,0,1,1-5.33,11.72A9.09,9.09,0,0,1,1288,578.6Z" style="fill:#929497"/><path d="M1274.94,544.4a9.19,9.19,0,1,1-5.1,11.82A9.08,9.08,0,0,1,1274.94,544.4Z" style="fill:#929497"/><path d="M1261.35,510.41a9.19,9.19,0,1,1-4.92,11.89A9.1,9.1,0,0,1,1261.35,510.41Z" style="fill:#929497"/><path d="M1247.33,476.59a9.19,9.19,0,1,1-4.78,12A9.1,9.1,0,0,1,1247.33,476.59Z" style="fill:#929497"/><path d="M1232.94,442.93a9.19,9.19,0,1,1-4.65,12A9.11,9.11,0,0,1,1232.94,442.93Z" style="fill:#929497"/><path d="M1394.47,629.21a8.71,8.71,0,1,1-1.3,17.33c-4.91-.73-8.42-4.82-8.13-9.3A9,9,0,0,1,1394.47,629.21Z" style="fill:#929497"/><path d="M1393.14,594.61a8.7,8.7,0,1,1,1.14,17.35c-5,.18-9.2-3.43-9.48-8.09A8.94,8.94,0,0,1,1393.14,594.61Z" style="fill:#929497"/><path d="M1389,560.22a8.7,8.7,0,1,1,2.32,17.23,8.7,8.7,0,1,1-2.32-17.23Z" style="fill:#929497"/><path d="M1383.14,526.08a8.7,8.7,0,1,1,3.12,17.11,8.7,8.7,0,1,1-3.12-17.11Z" style="fill:#929497"/><path d="M1376,492.19a8.71,8.71,0,1,1,3.75,17,8.7,8.7,0,1,1-3.75-17Z" style="fill:#929497"/><path d="M1367.7,458.55a8.7,8.7,0,1,1-6.57,10.65A8.85,8.85,0,0,1,1367.7,458.55Z" style="fill:#929497"/><path d="M1358.32,425.21a8.7,8.7,0,1,1-6.2,10.86A8.83,8.83,0,0,1,1358.32,425.21Z" style="fill:#929497"/><path d="M1347.43,392.33a8.7,8.7,0,1,1,5.71,16.42,8.7,8.7,0,1,1-5.71-16.42Z" style="fill:#929497"/><path d="M1473.83,536a8.75,8.75,0,1,1-11.16,5.67A8.87,8.87,0,0,1,1473.83,536Z" style="fill:#929497"/><path d="M1482.34,502.19a8.75,8.75,0,1,1-3.9,17.05,8.75,8.75,0,1,1,3.9-17.05Z" style="fill:#929497"/><path d="M1487.56,467.77a8.75,8.75,0,1,1-2.15,17.35,9.11,9.11,0,0,1-7.81-9.76C1478.16,470.73,1482.65,467.34,1487.56,467.77Z" style="fill:#929497"/><path d="M1488.51,433a8.76,8.76,0,1,1,.06,17.49c-5-.18-9-4.09-8.85-8.73A8.9,8.9,0,0,1,1488.51,433Z" style="fill:#929497"/><path d="M1485,398.34a8.78,8.78,0,0,1,10.23,7.44,8.68,8.68,0,0,1-7.91,9.89,9.11,9.11,0,0,1-10-7.46C1476.68,403.62,1480.12,399.2,1485,398.34Z" style="fill:#929497"/><path d="M1477,364.46a8.75,8.75,0,1,1,4.58,16.88c-4.81,1.11-9.77-1.6-11-6.08S1472.34,365.92,1477,364.46Z" style="fill:#929497"/><path d="M1213.18,757.77a9.2,9.2,0,0,1,15.86,9.28c-2.29,4.5-8,6-12.63,3.33S1210.44,762,1213.18,757.77Z" style="fill:#929497"/><path d="M1183.31,736.63a9.19,9.19,0,1,1,2,12.79A9.13,9.13,0,0,1,1183.31,736.63Z" style="fill:#929497"/><path d="M1154.64,713.87a9.19,9.19,0,1,1,1.43,12.82A9.14,9.14,0,0,1,1154.64,713.87Z" style="fill:#929497"/><path d="M1126.72,690.2a9.19,9.19,0,1,1,1.08,12.85A9.13,9.13,0,0,1,1126.72,690.2Z" style="fill:#929497"/><path d="M1099.3,665.94a9.19,9.19,0,1,1,.83,12.86A9.14,9.14,0,0,1,1099.3,665.94Z" style="fill:#929497"/><path d="M1072.28,641.24a9.19,9.19,0,1,1,.64,12.88A9.14,9.14,0,0,1,1072.28,641.24Z" style="fill:#929497"/><path d="M1045.57,616.21a9.19,9.19,0,1,1,.48,12.88A9.13,9.13,0,0,1,1045.57,616.21Z" style="fill:#929497"/><path d="M1019.15,590.88a9.19,9.19,0,1,1,.34,12.89A9.11,9.11,0,0,1,1019.15,590.88Z" style="fill:#929497"/><path d="M1136.55,807.69a9.06,9.06,0,0,1,10.85-6c4.29,1.3,6.88,6,5.83,10.88a8.71,8.71,0,1,1-16.68-4.89Z" style="fill:#929497"/><path d="M1104.64,794.26a9,9,0,0,1,11.61-4.55c4.26,1.91,6.14,7.16,4.23,11.73a8.71,8.71,0,1,1-15.84-7.18Z" style="fill:#929497"/><path d="M1073.91,778.28a8.7,8.7,0,1,1,15.31,8.25,8.7,8.7,0,1,1-15.31-8.25Z" style="fill:#929497"/><path d="M1044,760.75a8.7,8.7,0,1,1,2.78,12.25A8.8,8.8,0,0,1,1044,760.75Z" style="fill:#929497"/><path d="M1014.84,742.1a8.7,8.7,0,1,1,14.58,9.49,8.71,8.71,0,1,1-14.58-9.49Z" style="fill:#929497"/><path d="M986.28,722.5a8.7,8.7,0,1,1,1.94,12.42A8.89,8.89,0,0,1,986.28,722.5Z" style="fill:#929497"/><path d="M958.38,702a8.7,8.7,0,1,1,1.51,12.47A8.91,8.91,0,0,1,958.38,702Z" style="fill:#929497"/><path d="M931.44,680.19a8.71,8.71,0,1,1,13.37,11.14,8.71,8.71,0,1,1-13.37-11.14Z" style="fill:#929497"/><path d="M1021.32,849.1a8.75,8.75,0,1,1,8.22,9.59A8.91,8.91,0,0,1,1021.32,849.1Z" style="fill:#929497"/><path d="M986.72,845.16a8.75,8.75,0,1,1,17.33,2.36,8.75,8.75,0,1,1-17.33-2.36Z" style="fill:#929497"/><path d="M952.67,837.92c1.33-4.75,6.08-7.75,10.61-6.64A9.1,9.1,0,0,1,969.66,842a8.75,8.75,0,1,1-17-4.1Z" style="fill:#929497"/><path d="M919.77,826.55a8.89,8.89,0,0,1,11.29-5.14c4.38,1.54,6.64,6.63,5.05,11.35a8.75,8.75,0,1,1-16.34-6.21Z" style="fill:#929497"/><path d="M888.58,811.09c2.54-4.29,7.89-6,11.94-3.71a9.14,9.14,0,0,1,3.47,12,8.75,8.75,0,1,1-15.41-8.27Z" style="fill:#929497"/><path d="M859.7,791.66c3-3.87,8.6-4.91,12.35-2.18s4.56,8.31,1.83,12.42a8.75,8.75,0,1,1-14.18-10.24Z" style="fill:#929497"/><path d="M1375.66,641.22l72.72-69.92,26,39.2-74.22,73.88C1382.7,680.6,1369,659.5,1375.66,641.22Z" style="stroke:#231f20;stroke-linejoin:round;stroke-width:12px;fill:url(#linear-gradient)"/><ellipse cx="1459.71" cy="592.1" rx="9.41" ry="23.52" transform="translate(-73.92 951.67) rotate(-35.27)" style="stroke:#231f20;stroke-linejoin:round;stroke-width:12px;fill:url(#linear-gradient-2)"/><path d="M1407.59,643.87c7.71-4.77,15.58-10.38,21.09-17.62,9-11.88,8.37-23.36,7.79-23.76-.33-.62-11.66-2.59-24.5,5-7.81,4.64-14.29,11.82-19.91,18.94" style="stroke:#231f20;stroke-linecap:round;stroke-linejoin:round;stroke-width:12px;fill:url(#linear-gradient-3)"/><path d="M1072.88,840l72.73-69.93,26,39.21-74.21,73.88C1079.92,879.37,1066.18,858.26,1072.88,840Z" style="stroke:#231f20;stroke-linejoin:round;stroke-width:12px;fill:url(#linear-gradient-4)"/><ellipse cx="1156.93" cy="790.86" rx="9.41" ry="23.52" transform="translate(-244.3 813.32) rotate(-35.27)" style="stroke:#231f20;stroke-linejoin:round;stroke-width:12px;fill:url(#linear-gradient-5)"/><path d="M1104.81,842.64c7.71-4.77,15.59-10.39,21.09-17.62,9-11.88,8.37-23.36,7.79-23.76-.33-.62-11.66-2.6-24.5,5-7.81,4.64-14.29,11.82-19.91,18.94" style="stroke:#231f20;stroke-linecap:round;stroke-linejoin:round;stroke-width:12px;fill:url(#linear-gradient-6)"/><path d="M1034.1,863l38.34-93.32,39.64,25.37L1074,892.6C1056.42,896.21,1035.33,882.44,1034.1,863Z" style="stroke:#231f20;stroke-linejoin:round;stroke-width:12px;fill:url(#linear-gradient-7)"/><ellipse cx="1091.19" cy="784.16" rx="9.41" ry="23.52" transform="translate(-142.4 1316.95) rotate(-59.06)" style="stroke:#231f20;stroke-linejoin:round;stroke-width:12px;fill:url(#linear-gradient-8)"/><path d="M1064.38,852.56c5.13-7.47,10.08-15.79,12.19-24.62,3.48-14.52-1.76-24.76-2.45-24.9-.56-.43-11.72,2.34-20.39,14.48-5.28,7.4-8.31,16.59-10.59,25.36" style="stroke:#231f20;stroke-linecap:round;stroke-linejoin:round;stroke-width:12px;fill:url(#linear-gradient-9)"/><path d="M1101,767.15l88.57-48.31,14.81,44.67-91,51.74C1097.4,807,1089.7,783,1101,767.15Z" style="stroke:#231f20;stroke-linejoin:round;stroke-width:12px;fill:url(#linear-gradient-10)"/><ellipse cx="1195" cy="741.89" rx="9.41" ry="23.52" transform="translate(-181.72 453.7) rotate(-20.01)" style="stroke:#231f20;stroke-linejoin:round;stroke-width:12px;fill:url(#linear-gradient-11)"/><path d="M1131.08,778.11c8.69-2.57,17.77-5.91,25-11.44,11.85-9.09,14.23-20.33,13.78-20.88-.16-.68-10.57-5.57-25-1.6-8.76,2.42-16.9,7.64-24.2,13" style="stroke:#231f20;stroke-linecap:round;stroke-linejoin:round;stroke-width:12px;fill:url(#linear-gradient-12)"/><path d="M1145.59,813.77,1173.84,728l49.3-76h0l-3.94,90.53-29.54,95.23C1170.76,841.43,1152.22,830.27,1145.59,813.77Z" style="stroke:#231f20;stroke-linejoin:round;stroke-width:12px;fill:url(#linear-gradient-13)"/><path d="M1223.93,689.58c4.31-8.62,8.37-18.08,9.71-27.63,2.18-15.69-3.59-25.53-4.26-25.56-.57-.37-11,4.3-18.3,18.35-4.46,8.55-6.63,18.62-8.12,28.13" style="fill:#006838;stroke:#231f20;stroke-linecap:round;stroke-linejoin:round;stroke-width:12px"/><path d="M1205.81,713.5c3.63-9.07,6.94-19,7.52-28.74,1-16-5.58-25.49-6.25-25.47-.59-.31-10.62,5.3-16.82,20.12-3.77,9-5.16,19.38-5.89,29.12" style="fill:#006838;stroke:#231f20;stroke-linecap:round;stroke-linejoin:round;stroke-width:12px"/><path d="M1223.18,725.42c5.24-9.16,10.32-19.26,12.66-29.57,3.84-16.93-1-27.85-1.64-27.91-.53-.42-11.52,4.21-20.36,19.16-5.39,9.09-8.63,19.92-11.12,30.18" style="fill:#006838;stroke:#231f20;stroke-linecap:round;stroke-linejoin:round;stroke-width:12px"/><path d="M1206.13,741.3c4.31-8.61,8.38-18.07,9.71-27.63,2.19-15.69-3.59-25.53-4.26-25.56-.56-.36-11,4.3-18.3,18.35-4.45,8.56-6.63,18.62-8.12,28.14" style="fill:#006838;stroke:#231f20;stroke-linecap:round;stroke-linejoin:round;stroke-width:12px"/><path d="M1184.42,764.35c3.37-10.53,6.4-22,6.7-33,.48-18.18-6.36-28.29-7-28.21-.6-.31-10.5,6.84-16.28,24.08-3.53,10.49-4.61,22.28-5.06,33.33" style="fill:#006838;stroke:#231f20;stroke-linecap:round;stroke-linejoin:round;stroke-width:12px"/><path d="M1204.39,788.29c5.4-9,15.75-23.47,19.86-41.25,3.88-16.8-.47-27.7-1.14-27.78-.52-.42-11.58,3.93-20.68,18.58-5.54,8.92-15.66,31.75-18.33,41.9" style="fill:#006838;stroke:#231f20;stroke-linecap:round;stroke-linejoin:round;stroke-width:12px"/><path d="M1192.64,783.5c4.31-8.61,8.38-18.07,9.71-27.62,2.19-15.7-3.59-25.54-4.26-25.57-.57-.36-11,4.3-18.3,18.35-4.45,8.56-6.63,18.62-8.12,28.14" style="fill:#006838;stroke:#231f20;stroke-linecap:round;stroke-linejoin:round;stroke-width:12px"/><path d="M1173.85,808.92c3.55-9,6.71-18.8,6.8-28.49.15-15.9-7.72-25.29-8.48-25.27-.68-.31-11.61,5.22-17.73,19.9-3.72,8.94-4.68,19.21-5,28.86" style="stroke:#231f20;stroke-linecap:round;stroke-linejoin:round;stroke-width:12px;fill:url(#linear-gradient-14)"/><path d="M1192.15,827.88c5.5-7.94,10.82-16.77,13.21-26.14,3.94-15.39-1.27-26.23-2-26.37-.57-.46-12.22,2.51-21.49,15.4-5.65,7.86-9,17.6-11.56,26.91" style="stroke:#231f20;stroke-linecap:round;stroke-linejoin:round;stroke-width:12px;fill:url(#linear-gradient-15)"/><path d="M770.4,915.64,861,857.69,880,904.09l-92.94,61.77C769.56,958.26,759.59,933.35,770.4,915.64Z" style="stroke:#231f20;stroke-linejoin:round;stroke-width:12px;fill:url(#linear-gradient-16)"/><path d="M809.25,951.38c9.27-2.68,19-6.17,26.75-11.92,12.77-9.45,15.57-21.14,15.11-21.7-.15-.72-11.06-5.78-26.4-1.63-9.33,2.52-18.09,8-26,13.56" style="stroke:#231f20;stroke-linecap:round;stroke-linejoin:round;stroke-width:12px;fill:url(#linear-gradient-17)"/><ellipse cx="868.47" cy="881.79" rx="10.03" ry="25.07" transform="translate(-283.67 429.73) rotate(-24.01)" style="stroke:#231f20;stroke-linejoin:round;stroke-width:12px;fill:url(#linear-gradient-18)"/><path d="M1294.34,715l76.75-65.48,23.67,40.68-78.48,69.34C1299,754.74,1286.56,732.86,1294.34,715Z" style="stroke:#231f20;stroke-linejoin:round;stroke-width:12px;fill:url(#linear-gradient-19)"/><ellipse cx="1381.16" cy="670.97" rx="9.41" ry="23.52" transform="translate(-146.06 830.31) rotate(-31.87)" style="stroke:#231f20;stroke-linejoin:round;stroke-width:12px;fill:url(#linear-gradient-20)"/><path d="M1326.05,719.55c8-4.3,16.18-9.44,22.1-16.33,9.73-11.32,9.75-22.82,9.2-23.26-.3-.64-11.49-3.28-24.76,3.56-8.08,4.16-15,11-21,17.72" style="stroke:#231f20;stroke-linecap:round;stroke-linejoin:round;stroke-width:12px;fill:url(#linear-gradient-21)"/><path d="M966.43,873.35l97.76-24.94,3.3,47L966.49,923C953.12,911.07,951.58,885.93,966.43,873.35Z" style="stroke:#231f20;stroke-linejoin:round;stroke-width:12px;fill:url(#linear-gradient-22)"/><ellipse cx="1063.78" cy="872.09" rx="9.41" ry="23.52" transform="translate(-81.42 110.06) rotate(-5.7)" style="stroke:#231f20;stroke-linejoin:round;stroke-width:12px;fill:url(#linear-gradient-23)"/><path d="M992.89,891.4c9.06-.34,18.68-1.34,27-4.91,13.72-5.88,18.81-16.19,18.51-16.83,0-.7-8.87-8-23.79-7.72-9.09.18-18.27,3.23-26.67,6.65" style="stroke:#231f20;stroke-linecap:round;stroke-linejoin:round;stroke-width:12px;fill:url(#linear-gradient-24)"/><path d="M1213.06,652.93l76.75-65.48,23.67,40.68L1235,697.47C1217.74,692.66,1205.28,670.78,1213.06,652.93Z" style="stroke:#231f20;stroke-linejoin:round;stroke-width:12px;fill:url(#linear-gradient-25)"/><ellipse cx="1299.88" cy="608.89" rx="9.41" ry="23.52" transform="translate(-125.54 778.04) rotate(-31.87)" style="stroke:#231f20;stroke-linejoin:round;stroke-width:12px;fill:url(#linear-gradient-26)"/><path d="M1244.77,657.47c8-4.3,16.18-9.44,22.1-16.33,9.73-11.32,9.75-22.82,9.2-23.26-.3-.64-11.49-3.28-24.76,3.56-8.08,4.16-15,10.95-21,17.72" style="stroke:#231f20;stroke-linecap:round;stroke-linejoin:round;stroke-width:12px;fill:url(#linear-gradient-27)"/><path d="M780.4,1142.32l76.75-65.48,23.66,40.68-78.47,69.34C785.08,1182.05,772.62,1160.16,780.4,1142.32Z" style="stroke:#231f20;stroke-linejoin:round;stroke-width:12px;fill:url(#linear-gradient-28)"/><ellipse cx="867.22" cy="1098.28" rx="9.41" ry="23.52" transform="translate(-449.12 623.38) rotate(-31.87)" style="stroke:#231f20;stroke-linejoin:round;stroke-width:12px;fill:url(#linear-gradient-29)"/><path d="M812.11,1146.86c8-4.3,16.18-9.44,22.1-16.33,9.73-11.32,9.75-22.82,9.19-23.26-.29-.64-11.49-3.28-24.75,3.56-8.08,4.16-15,11-21,17.72" style="stroke:#231f20;stroke-linecap:round;stroke-linejoin:round;stroke-width:12px;fill:url(#linear-gradient-30)"/><path d="M1388.5,635.2l11-89.65,33.5-84.2h0l13.82,89.56-10.36,99.16C1418.59,657.41,1398.23,650.08,1388.5,635.2Z" style="stroke:#231f20;stroke-linejoin:round;stroke-width:12px;fill:url(#linear-gradient-31)"/><path d="M1441.07,498.09c2.55-9.29,4.68-19.36,4.12-29-.92-15.81-8.5-24.34-9.17-24.24-.62-.24-9.92,6.37-14.36,21.58-2.7,9.26-2.86,19.55-2.46,29.17" style="fill:#006838;stroke:#231f20;stroke-linecap:round;stroke-linejoin:round;stroke-width:12px"/><path d="M1428,525.1c1.78-9.61,3.1-20,1.76-29.66-2.2-15.92-10.46-23.91-11.11-23.75-.64-.2-9.38,7.26-12.56,23-1.94,9.59-1.27,20-.09,29.71" style="fill:#006838;stroke:#231f20;stroke-linecap:round;stroke-linejoin:round;stroke-width:12px"/><path d="M1447.34,533.39c3.35-10,6.36-20.9,6.64-31.47.46-17.36-6.39-27.12-7.06-27.05-.6-.31-10.48,6.38-16.23,22.76-3.5,10-4.57,21.23-5,31.78" style="fill:#006838;stroke:#231f20;stroke-linecap:round;stroke-linejoin:round;stroke-width:12px"/><path d="M1433.72,552.3c2.55-9.29,4.69-19.36,4.13-29-.92-15.82-8.51-24.34-9.17-24.24-.63-.25-9.93,6.36-14.36,21.57-2.7,9.26-2.87,19.56-2.47,29.18" style="fill:#006838;stroke:#231f20;stroke-linecap:round;stroke-linejoin:round;stroke-width:12px"/><path d="M1416.93,579.14c1.25-11,2-22.8.11-33.71-3.07-17.92-11.76-26.5-12.4-26.29-.65-.18-9,8.76-11.27,26.79-1.41,11-.17,22.76,1.55,33.68" style="fill:#006838;stroke:#231f20;stroke-linecap:round;stroke-linejoin:round;stroke-width:12px"/><path d="M1441.19,598.72c3.54-9.87,10.87-26.09,11.42-44.33.53-17.24-5.87-27.07-6.54-27-.6-.31-10.59,6.11-16.66,22.26-3.69,9.83-9.15,34.2-9.78,44.67" style="fill:#006838;stroke:#231f20;stroke-linecap:round;stroke-linejoin:round;stroke-width:12px"/><path d="M1428.74,596.32c2.54-9.29,4.68-19.36,4.12-29-.92-15.82-8.51-24.34-9.17-24.24-.63-.24-9.93,6.37-14.36,21.58-2.7,9.25-2.87,19.55-2.47,29.17" style="fill:#006838;stroke:#231f20;stroke-linecap:round;stroke-linejoin:round;stroke-width:12px"/><path d="M1415.27,624.92c1.73-9.51,2.91-19.75,1.11-29.27-3-15.63-12.52-23.29-13.25-23.12-.73-.18-10.38,7.38-13.51,23-1.9,9.49-.84,19.75.78,29.27" style="stroke:#231f20;stroke-linecap:round;stroke-linejoin:round;stroke-width:12px;fill:url(#linear-gradient-32)"/><path d="M1436.92,639.94c3.84-8.86,7.34-18.56,7.86-28.22.85-15.86-6.38-25.47-7.11-25.47-.65-.34-11.49,4.84-18.07,19.31-4,8.8-5.39,19-6.08,28.64" style="stroke:#231f20;stroke-linecap:round;stroke-linejoin:round;stroke-width:12px;fill:url(#linear-gradient-33)"/><path d="M1247.32,768.93l-89.76-10L1073,726.28h0l89.42-14.74,99.26,9.34C1269.22,738.62,1262.1,759.05,1247.32,768.93Z" style="stroke:#231f20;stroke-linejoin:round;stroke-width:12px;fill:url(#linear-gradient-34)"/><path d="M1109.68,717.78c-9.32-2.45-19.41-4.48-29-3.82-15.81,1.08-24.25,8.75-24.15,9.42-.24.62,6.47,9.86,21.72,14.13,9.29,2.61,19.59,2.67,29.2,2.17" style="fill:#006838;stroke:#231f20;stroke-linecap:round;stroke-linejoin:round;stroke-width:12px"/><path d="M1136.82,730.59c-9.63-1.68-20-2.89-29.68-1.45-15.9,2.37-23.8,10.7-23.64,11.35-.19.65,7.36,9.3,23.15,12.33,9.6,1.84,20,1.06,29.71-.22" style="fill:#006838;stroke:#231f20;stroke-linecap:round;stroke-linejoin:round;stroke-width:12px"/><path d="M1144.91,711.15c-10.05-3.25-21-6.15-31.54-6.32-17.36-.27-27.06,6.67-27,7.34-.3.61,6.49,10.41,22.93,16,10,3.4,21.27,4.34,31.83,4.67" style="fill:#006838;stroke:#231f20;stroke-linecap:round;stroke-linejoin:round;stroke-width:12px"/><path d="M1164,724.57c-9.31-2.45-19.41-4.48-29-3.83-15.8,1.09-24.25,8.76-24.14,9.42-.24.63,6.46,9.86,21.72,14.14,9.29,2.61,19.58,2.67,29.2,2.17" style="fill:#006838;stroke:#231f20;stroke-linecap:round;stroke-linejoin:round;stroke-width:12px"/><path d="M1191,741.08c-11-1.13-22.83-1.75-33.71.24-17.89,3.26-26.38,12-26.16,12.67-.18.66,8.85,8.88,26.91,11,11,1.29,22.75-.07,33.66-1.9" style="fill:#006838;stroke:#231f20;stroke-linecap:round;stroke-linejoin:round;stroke-width:12px"/><path d="M1210.3,716.62c-9.91-3.43-26.2-10.59-44.45-11-17.24-.35-27,6.15-26.95,6.82-.31.6,6.22,10.53,22.43,16.43,9.87,3.59,34.29,8.79,44.77,9.32" style="fill:#006838;stroke:#231f20;stroke-linecap:round;stroke-linejoin:round;stroke-width:12px"/><path d="M1208,729.1c-9.31-2.45-19.4-4.48-29-3.82-15.8,1.08-24.24,8.75-24.14,9.42-.24.62,6.47,9.86,21.72,14.13,9.29,2.61,19.58,2.67,29.2,2.17" style="fill:#006838;stroke:#231f20;stroke-linecap:round;stroke-linejoin:round;stroke-width:12px"/><path d="M1236.76,742.27c-9.52-1.63-19.78-2.7-29.27-.8-15.6,3.12-23.17,12.75-23,13.49-.17.73,7.49,10.29,23.11,13.26,9.52,1.81,19.76.64,29.27-1.08" style="stroke:#231f20;stroke-linecap:round;stroke-linejoin:round;stroke-width:12px;fill:url(#linear-gradient-35)"/><path d="M1251.55,720.46c-8.89-3.74-18.62-7.14-28.29-7.55-15.87-.69-25.4,6.63-25.4,7.36-.33.65,5,11.44,19.5,17.87,8.84,3.92,19.07,5.2,28.7,5.79" style="stroke:#231f20;stroke-linecap:round;stroke-linejoin:round;stroke-width:12px;fill:url(#linear-gradient-36)"/><path d="M829.76,1347.89l-71.84-54.74-55.74-71.45h0L786.45,1255l80.34,59C864.13,1333.15,847.52,1347,829.76,1347.89Z" style="stroke:#231f20;stroke-linejoin:round;stroke-width:12px;fill:url(#linear-gradient-37)"/><path d="M738,1233.25c-6.73-6.89-14.34-13.82-22.93-18.2-14.12-7.2-25.31-5-25.56-4.34-.52.42.48,11.79,11.37,23.3,6.62,7,15.42,12.35,23.93,16.87" style="fill:#006838;stroke:#231f20;stroke-linecap:round;stroke-linejoin:round;stroke-width:12px"/><path d="M754.69,1258.19c-7.39-6.39-15.67-12.76-24.71-16.5-14.85-6.14-25.91-3-26.11-2.41-.49.45,1.53,11.76,13.52,22.47,7.29,6.52,16.63,11.21,25.59,15.09" style="fill:#006838;stroke:#231f20;stroke-linecap:round;stroke-linejoin:round;stroke-width:12px"/><path d="M771.63,1245.68c-7-8-14.83-16-23.81-21.63-14.74-9.17-26.63-8.19-26.91-7.58-.57.37.22,12.27,11.45,25.51,6.83,8.06,16,14.66,24.89,20.37" style="fill:#006838;stroke:#231f20;stroke-linecap:round;stroke-linejoin:round;stroke-width:12px"/><path d="M781.06,1267c-6.73-6.89-14.34-13.82-22.93-18.2-14.11-7.2-25.3-5-25.55-4.34-.53.42.47,11.78,11.36,23.3,6.63,7,15.43,12.35,23.93,16.87" style="fill:#006838;stroke:#231f20;stroke-linecap:round;stroke-linejoin:round;stroke-width:12px"/><path d="M795.75,1295c-8.85-6.63-18.68-13.24-29-17.13-17-6.4-28.81-3.24-29-2.58-.48.47,3,12.16,17.43,23.26,8.77,6.76,19.56,11.64,29.85,15.68" style="fill:#006838;stroke:#231f20;stroke-linecap:round;stroke-linejoin:round;stroke-width:12px"/><path d="M824.9,1284c-6.73-8-17-22.56-32.49-32.25-14.61-9.16-26.33-8.62-26.62-8-.57.36-.07,12.23,10.79,25.62,6.62,8.16,24.89,25.18,33.61,31" style="fill:#006838;stroke:#231f20;stroke-linecap:round;stroke-linejoin:round;stroke-width:12px"/><path d="M816.54,1293.53c-6.74-6.89-14.35-13.83-22.94-18.21-14.11-7.2-25.3-5-25.55-4.33-.53.42.48,11.78,11.36,23.29,6.63,7,15.43,12.36,23.93,16.87" style="fill:#006838;stroke:#231f20;stroke-linecap:round;stroke-linejoin:round;stroke-width:12px"/><path d="M834.41,1319.59c-7.33-6.29-15.57-12.48-24.7-15.73-15-5.35-26.42-1-26.65-.25-.52.54,1.13,12.68,13,23.26,7.23,6.44,16.62,10.7,25.66,14.12" style="stroke:#231f20;stroke-linecap:round;stroke-linejoin:round;stroke-width:12px;fill:url(#linear-gradient-38)"/><path d="M858.31,1308.5c-5.7-7.79-12.3-15.7-20.38-21-13.26-8.75-25.2-7.37-25.57-6.74-.62.39-1.63,12.36,7.53,25.35,5.57,7.9,13.69,14.26,21.65,19.72" style="stroke:#231f20;stroke-linecap:round;stroke-linejoin:round;stroke-width:12px;fill:url(#linear-gradient-39)"/><path d="M1311.47,611.87l102.75-31.65,6,49.79-106.06,34.71C1299.28,652.72,1296.33,626.05,1311.47,611.87Z" style="stroke:#231f20;stroke-linejoin:round;stroke-width:12px;fill:url(#linear-gradient-40)"/><path d="M1339.37,656.69c9.65-.11,19.93-.88,29-4.34,14.83-5.7,20.65-16.22,20.36-16.88,0-.73-9.12-8.52-25-8.63-9.67-.06-19.56,2.84-28.63,6.14" style="stroke:#231f20;stroke-linecap:round;stroke-linejoin:round;stroke-width:12px;fill:url(#linear-gradient-41)"/><ellipse cx="1415.02" cy="605.44" rx="10.03" ry="25.07" transform="translate(-74.09 216.37) rotate(-8.52)" style="stroke:#231f20;stroke-linejoin:round;stroke-width:12px;fill:url(#linear-gradient-42)"/><path d="M1232.48,665.1l102.75-31.66,6,49.8L1235.14,718C1220.29,706,1217.34,679.27,1232.48,665.1Z" style="stroke:#231f20;stroke-linejoin:round;stroke-width:12px;fill:url(#linear-gradient-43)"/><path d="M1260.37,709.92c9.66-.11,19.93-.88,29-4.35,14.83-5.69,20.66-16.21,20.36-16.88,0-.73-9.11-8.51-25-8.62-9.67-.06-19.56,2.84-28.63,6.14" style="stroke:#231f20;stroke-linecap:round;stroke-linejoin:round;stroke-width:12px;fill:url(#linear-gradient-44)"/><ellipse cx="1336.03" cy="658.67" rx="10.03" ry="25.07" transform="translate(-82.85 205.25) rotate(-8.52)" style="stroke:#231f20;stroke-linejoin:round;stroke-width:12px;fill:url(#linear-gradient-45)"/><path d="M1188.4,769.37l83.16-68.13,24.35,43.85-85.08,72.21C1192.54,811.8,1179.73,788.22,1188.4,769.37Z" style="stroke:#231f20;stroke-linejoin:round;stroke-width:12px;fill:url(#linear-gradient-46)"/><path d="M1231.16,800.33c8.89-3.75,18.12-8.34,25.17-15,11.58-10.88,13-22.81,12.47-23.32-.24-.69-11.66-4.44-26.41,1.47-9,3.59-17,10-24.19,16.5" style="stroke:#231f20;stroke-linecap:round;stroke-linejoin:round;stroke-width:12px;fill:url(#linear-gradient-47)"/><ellipse cx="1281.84" cy="724.29" rx="10.03" ry="25.07" transform="translate(-190.12 756.57) rotate(-30.72)" style="stroke:#231f20;stroke-linejoin:round;stroke-width:12px;fill:url(#linear-gradient-48)"/><path d="M1243.45,755.6l19.37-99,43.83,17.13-18.32,103.11C1271.82,783.79,1248.45,774.41,1243.45,755.6Z" style="stroke:#231f20;stroke-linejoin:round;stroke-width:12px;fill:url(#linear-gradient-49)"/><ellipse cx="1284.04" cy="667.11" rx="9.41" ry="23.52" transform="translate(223.6 1651.62) rotate(-70.33)" style="stroke:#231f20;stroke-linejoin:round;stroke-width:12px;fill:url(#linear-gradient-50)"/><path d="M1271.1,739.43c3.58-8.33,6.8-17.45,7.15-26.53.57-14.92-6.56-23.94-7.27-23.94-.63-.31-11,4.58-17.17,18.19-3.73,8.28-4.91,17.88-5.43,26.94" style="stroke:#231f20;stroke-linecap:round;stroke-linejoin:round;stroke-width:12px;fill:url(#linear-gradient-51)"/><path d="M1419.23,606.2l58.37-68.93,74.22-52h0l-37.61,82.44-63.1,77.2C1432.19,641.28,1419.19,624,1419.23,606.2Z" style="stroke:#231f20;stroke-linejoin:round;stroke-width:12px;fill:url(#linear-gradient-52)"/><path d="M1538.44,520.45c7.22-6.37,14.54-13.61,19.36-22,7.91-13.72,6.25-25,5.64-25.29-.39-.55-11.79-.13-23.85,10.15-7.34,6.26-13.13,14.77-18.08,23" style="fill:#006838;stroke:#231f20;stroke-linecap:round;stroke-linejoin:round;stroke-width:12px"/><path d="M1512.67,535.84c6.76-7.05,13.55-15,17.75-23.83,6.9-14.51,4.38-25.72,3.75-25.95-.43-.52-11.82.92-23.13,12.34-6.89,7-12,16-16.39,24.79" style="fill:#006838;stroke:#231f20;stroke-linecap:round;stroke-linejoin:round;stroke-width:12px"/><path d="M1524.3,553.4c8.3-6.53,16.79-14,22.83-22.66,9.91-14.26,9.54-26.18,8.95-26.49-.34-.59-12.27-.42-26.07,10.12-8.4,6.41-15.47,15.23-21.62,23.81" style="fill:#006838;stroke:#231f20;stroke-linecap:round;stroke-linejoin:round;stroke-width:12px"/><path d="M1502.54,561.72c7.23-6.36,14.54-13.61,19.36-22,7.91-13.73,6.25-25,5.64-25.3-.39-.55-11.79-.13-23.84,10.15-7.34,6.26-13.14,14.77-18.08,23" style="fill:#006838;stroke:#231f20;stroke-linecap:round;stroke-linejoin:round;stroke-width:12px"/><path d="M1473.77,575c7.07-8.5,14.18-18,18.6-28.12,7.26-16.67,4.71-28.61,4.06-28.79-.44-.51-12.3,2.41-24.13,16.21-7.2,8.41-12.63,18.94-17.19,29" style="fill:#006838;stroke:#231f20;stroke-linecap:round;stroke-linejoin:round;stroke-width:12px"/><path d="M1483.3,604.63c8.38-6.31,23.4-15.85,33.88-30.79,9.9-14.12,10-25.85,9.36-26.17-.32-.59-12.21-.71-26.14,9.46-8.48,6.19-26.42,23.56-32.7,32" style="fill:#006838;stroke:#231f20;stroke-linecap:round;stroke-linejoin:round;stroke-width:12px"/><path d="M1474.21,595.79c7.22-6.37,14.54-13.62,19.36-22,7.91-13.73,6.25-25,5.64-25.3-.39-.55-11.79-.13-23.85,10.15-7.34,6.26-13.13,14.77-18.08,23" style="fill:#006838;stroke:#231f20;stroke-linecap:round;stroke-linejoin:round;stroke-width:12px"/><path d="M1447.26,612.3c6.66-7,13.26-14.92,17-23.86,6.11-14.68,2.33-26.34,1.62-26.6-.51-.55-12.72.48-23.9,11.8-6.8,6.89-11.54,16-15.42,24.89" style="stroke:#231f20;stroke-linecap:round;stroke-linejoin:round;stroke-width:12px;fill:url(#linear-gradient-53)"/><path d="M1457.11,636.74c8.07-5.3,16.31-11.49,22.05-19.27,9.42-12.8,8.65-24.8,8-25.2-.36-.63-12.27-2.26-25.71,6.22-8.18,5.16-14.94,12.94-20.81,20.61" style="stroke:#231f20;stroke-linecap:round;stroke-linejoin:round;stroke-width:12px;fill:url(#linear-gradient-54)"/><path d="M1246,745.94l54.8-71.8,71.49-55.69h0l-33.39,84.25L1279.78,783C1260.69,780.32,1246.84,763.7,1246,745.94Z" style="stroke:#231f20;stroke-linejoin:round;stroke-width:12px;fill:url(#linear-gradient-55)"/><path d="M1360.68,654.26c6.89-6.73,13.83-14.33,18.22-22.92,7.2-14.11,5-25.3,4.35-25.55-.42-.53-11.78.47-23.3,11.34-7,6.63-12.37,15.42-16.89,23.93" style="fill:#006838;stroke:#231f20;stroke-linecap:round;stroke-linejoin:round;stroke-width:12px"/><path d="M1335.72,670.93c6.4-7.38,12.77-15.66,16.52-24.7,6.16-14.84,3.08-25.91,2.43-26.1-.45-.5-11.76,1.52-22.47,13.5-6.53,7.29-11.23,16.62-15.11,25.58" style="fill:#006838;stroke:#231f20;stroke-linecap:round;stroke-linejoin:round;stroke-width:12px"/><path d="M1348.23,687.88c8-6.94,16.06-14.82,21.65-23.79,9.17-14.74,8.2-26.63,7.59-26.91-.37-.57-12.27.21-25.52,11.43-8.06,6.83-14.67,16-20.39,24.88" style="fill:#006838;stroke:#231f20;stroke-linecap:round;stroke-linejoin:round;stroke-width:12px"/><path d="M1326.92,697.3c6.89-6.73,13.83-14.33,18.22-22.92,7.21-14.11,5-25.3,4.35-25.55-.42-.53-11.78.47-23.3,11.35-7,6.62-12.37,15.41-16.89,23.92" style="fill:#006838;stroke:#231f20;stroke-linecap:round;stroke-linejoin:round;stroke-width:12px"/><path d="M1298.85,712c6.64-8.84,13.25-18.67,17.15-29,6.41-17,3.26-28.81,2.6-29-.47-.48-12.16,3-23.28,17.42-6.76,8.76-11.65,19.54-15.69,29.84" style="fill:#006838;stroke:#231f20;stroke-linecap:round;stroke-linejoin:round;stroke-width:12px"/><path d="M1309.88,741.12c8-6.72,22.57-17,32.27-32.46,9.17-14.6,8.64-26.32,8-26.62-.36-.57-12.23-.08-25.63,10.78-8.16,6.61-25.19,24.87-31,33.58" style="fill:#006838;stroke:#231f20;stroke-linecap:round;stroke-linejoin:round;stroke-width:12px"/><path d="M1300.35,732.75c6.89-6.72,13.83-14.33,18.22-22.92,7.21-14.11,5-25.3,4.35-25.55-.42-.52-11.78.47-23.3,11.35-7,6.62-12.37,15.42-16.89,23.92" style="fill:#006838;stroke:#231f20;stroke-linecap:round;stroke-linejoin:round;stroke-width:12px"/><path d="M1274.27,750.61c6.3-7.33,12.49-15.57,15.75-24.68,5.36-15,1-26.43.27-26.66-.54-.52-12.68,1.13-23.27,13-6.45,7.22-10.72,16.61-14.13,25.64" style="stroke:#231f20;stroke-linecap:round;stroke-linejoin:round;stroke-width:12px;fill:url(#linear-gradient-56)"/><path d="M1285.35,774.52c7.79-5.7,15.71-12.3,21-20.37,8.76-13.25,7.39-25.19,6.76-25.56-.39-.62-12.37-1.64-25.36,7.51-7.9,5.57-14.26,13.68-19.73,21.63" style="stroke:#231f20;stroke-linecap:round;stroke-linejoin:round;stroke-width:12px;fill:url(#linear-gradient-57)"/><path d="M1611.84,349c51.82,74.87-88.21,261.54-312.76,416.94S850.49,986.62,798.67,911.74" style="fill:none;stroke:#231f20;stroke-miterlimit:10;stroke-width:24px"/></svg>