<svg xmlns="http://www.w3.org/2000/svg" height="1923.98" width="1454.65"  xmlns:v="https://vecta.io/nano"><g stroke="#231f20" stroke-width="24" stroke-miterlimit="10"><path d="M993.26 1415.03c0-30.44-7.46-64.45-27.7-92.62-40.78-56.76-116.85-83.37-196.36-68.78l-12.17 2.24v-101.05c0-79.8-166.78-144.5-372.5-144.5S12 1075.06 12 1154.82v612.67c0 79.8 166.78 144.5 372.5 144.5s372.5-64.7 372.5-144.5v-67.65c60.53-24.32 236.24-110.65 236.24-284.8zM757.02 1595.5v-245.86a228.61 228.61 0 0 1 36-10c42.46-8.54 91.82 7.54 108.73 28.55 16 19.9 18.4 42.64 18.4 56.15.02 90.08-101.45 148.27-163.14 171.16z" fill="#fff"/><path d="M59.94 1151.08c37.52 55.94 168.6 97.24 324.57 97.24s287.05-41.3 324.56-97.24" fill="none" stroke-linecap="round"/></g><path d="M229.93 1206.33c1.8 11.9-26.24-526.77 616.9-673.8L729.97 705.4c-346.82 130.7-233.12 508.82-233.12 508.82" fill="#fff"/><path d="M729.97 705.4c-346.82 130.7-233.12 508.82-233.12 508.82m-266.92-7.9c1.8 11.9-26.24-526.77 616.9-673.8" stroke="#231f20" stroke-width="24" fill="none" stroke-linecap="round" stroke-linejoin="round"/><path d="M636 812.66s60.74 31.65 164.6 18.32c0 0 78.93-7 151.67-57 0 0 55.86-36.64 99.84-105.2 0 0 49-73.7 68-118.9 5.66-14.62 13.27-62.38 2.36-96.47 0 0-10.2-48.34-51.57-103.5-31.92-37-38.4-41.72-38.4-41.72-11.68-9.52-8.88-21.43-6.13-25.83 0 0 4.38-16.83 22.72-38.4 0 0 48.9-64.64 76.2-91.82 0 0 43.87-52 85.55-73.77 0 0 33.75-20.18 97.6-28.36 0 0 41.77-8.17 117.42 9.68 0 0 15.93-15.74 16.8-34.76-77.08-17.52-129.3-12.2-129.3-12.2-75.85 4-122.66 36-122.66 36-53 28.08-100.2 84.2-100.2 84.2-55.24 67-72.58 92.85-72.58 92.85l-40.58 55.32C734.6 643.18 746.95 633.68 636 812.66z" fill="#231f20"/></svg>