<svg id="Layer_1" data-name="Layer 1" xmlns="http://www.w3.org/2000/svg" viewBox="0 0 2000 2000"><path d="M350.6,371.51V106.73C350.6,75.4,374.93,50,405,50H1614.33c30,0,54.36,25.4,54.36,56.73V371.51" style="fill:#fff;stroke:#3a3632;stroke-miterlimit:15.118109703064;stroke-width:20px"/><circle cx="523" cy="185.76" r="50.25" style="fill:#e6e7e8;stroke:#3a3632;stroke-miterlimit:15.118109703064;stroke-width:20px"/><circle cx="689.84" cy="185.76" r="50.25" style="fill:#e6e7e8;stroke:#3a3632;stroke-miterlimit:15.118109703064;stroke-width:20px"/><circle cx="1479.15" cy="185.76" r="50.25" style="fill:#e6e7e8;stroke:#3a3632;stroke-miterlimit:15.118109703064;stroke-width:20px"/><circle cx="1314.74" cy="185.76" r="50.25" style="fill:#e6e7e8;stroke:#3a3632;stroke-miterlimit:15.118109703064;stroke-width:20px"/><circle cx="1000" cy="185.76" r="50.25" style="fill:#e6e7e8;stroke:#3a3632;stroke-miterlimit:15.118109703064;stroke-width:20px"/><rect x="273.76" y="371.51" width="1452.47" height="1578.49" rx="56.73" style="fill:#fff;stroke:#3a3632;stroke-miterlimit:15.118109703064;stroke-width:20px"/><line x1="279.16" y1="1654.33" x2="1720.84" y2="1654.33" style="fill:none;stroke:#3a3632;stroke-miterlimit:15.118109703064;stroke-width:20px"/><rect x="364.47" y="590.47" width="1271.06" height="88.16" rx="18.91" style="fill:none;stroke:#3a3632;stroke-miterlimit:15.118109703064;stroke-width:20px"/><line x1="279.16" y1="489.62" x2="1720.84" y2="489.62" style="fill:none;stroke:#3a3632;stroke-miterlimit:15.118109703064;stroke-width:20px"/><line x1="475.12" y1="340.01" x2="895.4" y2="340.01" style="fill:none;stroke:#3a3632;stroke-linecap:round;stroke-miterlimit:15.118109703064;stroke-width:37.8187366634573px"/><line x1="1104.6" y1="340.01" x2="1524.88" y2="340.01" style="fill:none;stroke:#3a3632;stroke-linecap:round;stroke-miterlimit:15.118109703064;stroke-width:37.8187366634573px"/><rect x="472.75" y="779.47" width="1054.5" height="774.01" rx="113.46" style="fill:#a6a8ab;stroke:#3a3632;stroke-linecap:round;stroke-linejoin:round;stroke-width:20px;isolation:isolate;opacity:0.991999983787537"/><line x1="475.84" y1="1318.54" x2="1527.25" y2="1318.54" style="fill:none;stroke:#3a3632;stroke-linecap:round;stroke-miterlimit:15.118109703064;stroke-width:20px"/><line x1="576.34" y1="1318.54" x2="576.34" y2="1541.77" style="fill:none;stroke:#3a3632;stroke-linecap:round;stroke-miterlimit:15.118109703064;stroke-width:20px"/><line x1="718.43" y1="1318.54" x2="718.43" y2="1541.77" style="fill:none;stroke:#3a3632;stroke-linecap:round;stroke-miterlimit:15.118109703064;stroke-width:20px"/><line x1="860.53" y1="1318.54" x2="860.53" y2="1541.77" style="fill:none;stroke:#3a3632;stroke-linecap:round;stroke-miterlimit:15.118109703064;stroke-width:20px"/><line x1="1002.62" y1="1318.54" x2="1002.62" y2="1541.77" style="fill:none;stroke:#3a3632;stroke-linecap:round;stroke-miterlimit:15.118109703064;stroke-width:20px"/><line x1="1144.72" y1="1318.54" x2="1144.72" y2="1541.77" style="fill:none;stroke:#3a3632;stroke-linecap:round;stroke-miterlimit:15.118109703064;stroke-width:20px"/><line x1="1286.81" y1="1318.54" x2="1286.81" y2="1541.77" style="fill:none;stroke:#3a3632;stroke-linecap:round;stroke-miterlimit:15.118109703064;stroke-width:20px"/><line x1="1428.9" y1="1318.54" x2="1428.9" y2="1541.77" style="fill:none;stroke:#3a3632;stroke-linecap:round;stroke-miterlimit:15.118109703064;stroke-width:20px"/><path d="M697.2,1136.39v-27.24H623.69q-13.91,0-20.86-6.29t-7-17.13a16.43,16.43,0,0,1,1-5.64,29,29,0,0,1,3.07-6c1.37-2.1,2.78-4.13,4.25-6.08s3.27-4.34,5.41-7.18L687.24,957q7.6-10.24,12.52-14.86a16.57,16.57,0,0,1,11.78-4.61q22.26,0,22.26,25.47v113.34h6.3q11.26,0,18.08,3.07T765,1092.9q0,8.49-5.57,12.37t-16.69,3.88H733.8v27.24q0,11.28-5,16.76t-13.32,5.49a17,17,0,0,1-13.25-5.63Q697.2,1147.37,697.2,1136.39Zm-63-60h63V991.28Z" style="fill:#fff"/><path d="M934.4,1049.71q0,24-2.93,41.29a96.06,96.06,0,0,1-10.83,31.33q-10,17.28-25.77,26.65a67.64,67.64,0,0,1-35.14,9.37,67,67,0,0,1-39.9-12.59q-17.66-12.59-26.58-34.85a129,129,0,0,1-6.66-26.87,222.69,222.69,0,0,1-2.13-31.84,304.46,304.46,0,0,1,2.35-39.83q2.34-17.72,7.32-30.46,8.64-21.07,25.11-32.14t39.31-11a73.26,73.26,0,0,1,27.38,4.9A62.56,62.56,0,0,1,907.53,958a81.9,81.9,0,0,1,15.74,23.36Q934.4,1005.48,934.4,1049.71Zm-40.12-2.93q0-26.8-3.22-43.86t-10.84-25.77q-7.61-8.7-21.08-8.71-19.33,0-26.87,19.48t-7.54,60q0,27.52,3.22,45.1t10.84,26.57q7.61,9,20.64,9,13.47,0,21.09-9.37t10.69-26.8Q894.29,1075,894.28,1046.78Z" style="fill:#fff"/><path d="M1112.6,1049.71q0,24-2.93,41.29a95.84,95.84,0,0,1-10.84,31.33q-9.94,17.28-25.77,26.65a70,70,0,0,1-75-3.22q-17.64-12.59-26.57-34.85a129.61,129.61,0,0,1-6.67-26.87,224.22,224.22,0,0,1-2.12-31.84,306.33,306.33,0,0,1,2.34-39.83q2.34-17.72,7.33-30.46,8.63-21.07,25.11-32.14t39.31-11a73.34,73.34,0,0,1,27.38,4.9,62.56,62.56,0,0,1,21.6,14.35,82.1,82.1,0,0,1,15.74,23.36Q1112.6,1005.48,1112.6,1049.71Zm-40.12-2.93q0-26.8-3.22-43.86t-10.84-25.77q-7.62-8.7-21.08-8.71-19.33,0-26.87,19.48t-7.54,60q0,27.52,3.22,45.1t10.83,26.57q7.62,9,20.65,9,13.47,0,21.08-9.37t10.69-26.8Q1072.47,1075,1072.48,1046.78Z" style="fill:#fff"/><path d="M1176.59,925.54a30.31,30.31,0,1,1-15.23,56.52,31,31,0,0,1-11-11,30.39,30.39,0,0,1,26.21-45.54Zm0,15.37a14.53,14.53,0,0,0-14.94,14.94,13.94,13.94,0,0,0,4.32,10.47,14.71,14.71,0,0,0,10.62,4.17,15.33,15.33,0,0,0,7.54-1.9,14,14,0,0,0,5.41-5.27,14.49,14.49,0,0,0,2-7.47,15.48,15.48,0,0,0-1.17-5.93,13.55,13.55,0,0,0-7.83-7.84A15.52,15.52,0,0,0,1176.59,940.91Z" style="fill:#fff"/><path d="M1378.36,973.86H1292.7v54.91h71.6q10,0,14.86,4.46t4.91,11.94q0,7.47-5,11.86t-14.79,4.39h-71.6v70.72q0,13.47-6.08,20a20.38,20.38,0,0,1-15.59,6.51q-9.66,0-15.74-6.58t-6.08-19.92V967q0-9.37,2.78-15.3a17.24,17.24,0,0,1,8.72-8.64q5.93-2.71,15.15-2.71h102.5q10.4,0,15.44,4.61a15.59,15.59,0,0,1,5.06,12.08,15.77,15.77,0,0,1-5.06,12.23Q1388.76,973.86,1378.36,973.86Z" style="fill:#fff"/></svg>