<svg xmlns="http://www.w3.org/2000/svg" viewBox="0 0 2000 2000"><g id="Layer_2" data-name="Layer 2"><path d="M350.6,371.51V106.73C350.6,75.4,374.93,50,405,50H1614.33c30,0,54.36,25.4,54.36,56.73V371.51" style="fill:#fff;stroke:#000;stroke-miterlimit:15.118109703064;stroke-width:24px"/><circle cx="523" cy="185.76" r="50.25" style="fill:none;stroke:#000;stroke-miterlimit:15.118109703064;stroke-width:24px"/><circle cx="689.84" cy="185.76" r="50.25" style="fill:none;stroke:#000;stroke-miterlimit:15.118109703064;stroke-width:24px"/><circle cx="1479.15" cy="185.76" r="50.25" style="fill:none;stroke:#000;stroke-miterlimit:15.118109703064;stroke-width:24px"/><circle cx="1314.74" cy="185.76" r="50.25" style="fill:none;stroke:#000;stroke-miterlimit:15.118109703064;stroke-width:24px"/><circle cx="1000" cy="185.76" r="50.25" style="fill:none;stroke:#000;stroke-miterlimit:15.118109703064;stroke-width:24px"/><rect x="273.76" y="371.51" width="1452.47" height="1578.49" rx="56.73" style="fill:#fff;stroke:#000;stroke-miterlimit:15.118109703064;stroke-width:24px"/><line x1="279.16" y1="1654.33" x2="1720.84" y2="1654.33" style="fill:none;stroke:#000;stroke-miterlimit:15.118109703064;stroke-width:24px"/><rect x="364.47" y="590.47" width="1271.06" height="88.16" rx="18.91" style="fill:none;stroke:#000;stroke-miterlimit:15.118109703064;stroke-width:18.9093683317287px"/><line x1="279.16" y1="489.62" x2="1720.84" y2="489.62" style="fill:none;stroke:#000;stroke-miterlimit:15.118109703064;stroke-width:18.9093683317287px"/><line x1="475.12" y1="340.01" x2="895.4" y2="340.01" style="fill:none;stroke:#000;stroke-linecap:round;stroke-miterlimit:15.118109703064;stroke-width:37.8187366634573px"/><line x1="1104.6" y1="340.01" x2="1524.88" y2="340.01" style="fill:none;stroke:#000;stroke-linecap:round;stroke-miterlimit:15.118109703064;stroke-width:37.8187366634573px"/><rect x="472.75" y="779.47" width="1054.5" height="774.01" rx="113.46" style="fill:#fff;stroke:#000;stroke-miterlimit:15.118109703064;stroke-width:24px"/><line x1="475.84" y1="1318.54" x2="1527.25" y2="1318.54" style="fill:none;stroke:#000;stroke-linecap:round;stroke-miterlimit:15.118109703064;stroke-width:24px"/><line x1="576.34" y1="1318.54" x2="576.34" y2="1541.77" style="fill:none;stroke:#000;stroke-linecap:round;stroke-miterlimit:15.118109703064;stroke-width:24px"/><line x1="718.43" y1="1318.54" x2="718.43" y2="1541.77" style="fill:none;stroke:#000;stroke-linecap:round;stroke-miterlimit:15.118109703064;stroke-width:24px"/><line x1="860.53" y1="1318.54" x2="860.53" y2="1541.77" style="fill:none;stroke:#000;stroke-linecap:round;stroke-miterlimit:15.118109703064;stroke-width:24px"/><line x1="1002.62" y1="1318.54" x2="1002.62" y2="1541.77" style="fill:none;stroke:#000;stroke-linecap:round;stroke-miterlimit:15.118109703064;stroke-width:24px"/><line x1="1144.72" y1="1318.54" x2="1144.72" y2="1541.77" style="fill:none;stroke:#000;stroke-linecap:round;stroke-miterlimit:15.118109703064;stroke-width:24px"/><line x1="1286.81" y1="1318.54" x2="1286.81" y2="1541.77" style="fill:none;stroke:#000;stroke-linecap:round;stroke-miterlimit:15.118109703064;stroke-width:24px"/><line x1="1428.9" y1="1318.54" x2="1428.9" y2="1541.77" style="fill:none;stroke:#000;stroke-linecap:round;stroke-miterlimit:15.118109703064;stroke-width:24px"/><path d="M736.27,1022.89a60,60,0,0,1,23.54,23.84q8.38,15.29,8.39,35.08,0,20.7-9.44,36.59a64.59,64.59,0,0,1-26.69,24.74q-17.25,8.85-39.74,8.84a111.3,111.3,0,0,1-36.43-6.14,95.67,95.67,0,0,1-30.44-16.65q-6.9-6-6.9-14.09a17.37,17.37,0,0,1,3.75-11.25q3.75-4.63,8.85-4.64a15.79,15.79,0,0,1,5.7,1,34.92,34.92,0,0,1,6.29,3.45,114.31,114.31,0,0,0,23.39,12.9,65.56,65.56,0,0,0,24.29,4.5q19.8,0,30.29-9.9t10.5-28.19q0-17.68-10.65-28t-29.24-10.34a61.21,61.21,0,0,0-20.84,3.3A65.51,65.51,0,0,0,652.15,1059a20.48,20.48,0,0,1-11.69,3.9,15.12,15.12,0,0,1-10.2-3.6,12,12,0,0,1-4.2-9.59V956.17q0-8.4,4.8-13.2t13.49-4.8h99.86q18,0,18,15t-18,15H663.85v57q15.28-10.8,37.48-10.8Q721.12,1014.34,736.27,1022.89Z" style="fill:#231f20"/><path d="M812.88,1124.54q-19.78-27.72-19.79-80.81,0-52.79,19.79-80.52t57.28-27.74q37.47,0,57.27,27.74t19.79,80.52q0,52.79-19.79,80.66t-57.27,27.89Q832.66,1152.28,812.88,1124.54Zm87-21.29q9.3-18.74,9.3-59.52,0-41.09-9.3-59.53t-29.68-18.44q-20.4,0-29.69,18.59t-9.3,59.38q0,40.79,9.3,59.52T870.16,1122Q890.55,1122,899.84,1103.25Z" style="fill:#231f20"/><path d="M992.8,1124.54Q973,1096.82,973,1043.73q0-52.79,19.79-80.52t57.28-27.74q37.49,0,57.27,27.74t19.8,80.52q0,52.79-19.8,80.66t-57.27,27.89Q1012.59,1152.28,992.8,1124.54Zm87-21.29q9.29-18.74,9.29-59.52,0-41.09-9.29-59.53t-29.69-18.44q-20.4,0-29.69,18.59t-9.3,59.38q0,40.79,9.3,59.52t29.69,18.75Q1070.47,1122,1079.77,1103.25Z" style="fill:#231f20"/><path d="M1162.53,975.06a31.12,31.12,0,0,1,0-44.38,32.6,32.6,0,0,1,45,0,31.12,31.12,0,0,1,0,44.38,32.63,32.63,0,0,1-45,0Zm32.09-12.15a14.91,14.91,0,0,0,0-20.09,13.4,13.4,0,0,0-19.2,0,14.89,14.89,0,0,0,0,20.09,13.4,13.4,0,0,0,19.2,0Z" style="fill:#231f20"/><path d="M1258,1146q-5.25-5.4-5.25-14.1V956.46q0-8.69,5-13.49t13.64-4.8h105.26q18.28,0,18.29,15.6,0,15.29-18.29,15.29h-85.77v57.58h79.77q18.28,0,18.29,15.59,0,15.29-18.29,15.29h-79.77v74.37q0,8.7-5.1,14.1t-13.79,5.39Q1263.28,1151.38,1258,1146Z" style="fill:#231f20"/><path d="M339.61,557.89a2.6,2.6,0,0,1,.92,1.09,3.77,3.77,0,0,1,.33,1.61,3.66,3.66,0,0,1-.33,1.6,2.45,2.45,0,0,1-.92,1.06,2.53,2.53,0,0,1-1.35.37,2.29,2.29,0,0,1-1.12-.27,1.76,1.76,0,0,1-.75-.73v2.45a.61.61,0,0,1-.21.49.88.88,0,0,1-1.08,0,.66.66,0,0,1-.21-.5v-6.81a.67.67,0,0,1,.19-.51.75.75,0,0,1,.54-.2.77.77,0,0,1,.54.2.68.68,0,0,1,.2.51v.3a1.85,1.85,0,0,1,.76-.76,2.37,2.37,0,0,1,1.14-.27A2.5,2.5,0,0,1,339.61,557.89ZM339,562a2.16,2.16,0,0,0,.39-1.38,2.25,2.25,0,0,0-.39-1.41,1.47,1.47,0,0,0-2.22,0,2.69,2.69,0,0,0,0,2.79,1.33,1.33,0,0,0,1.11.49A1.38,1.38,0,0,0,339,562Z"/><path d="M343.2,563.25a2.52,2.52,0,0,1-1.05-1.07,3.4,3.4,0,0,1-.38-1.62,3.34,3.34,0,0,1,.38-1.62,2.5,2.5,0,0,1,1.05-1.06,3.17,3.17,0,0,1,1.57-.37,3.21,3.21,0,0,1,1.58.37,2.61,2.61,0,0,1,1,1.06,3.46,3.46,0,0,1,.36,1.62,3.51,3.51,0,0,1-.36,1.62,2.64,2.64,0,0,1-1,1.07,3.32,3.32,0,0,1-1.58.37A3.28,3.28,0,0,1,343.2,563.25Zm2.68-1.28a2.81,2.81,0,0,0,0-2.82,1.5,1.5,0,0,0-2.22,0,2.74,2.74,0,0,0,0,2.82,1.32,1.32,0,0,0,1.1.48A1.36,1.36,0,0,0,345.88,562Z"/><path d="M354.18,557.73a.65.65,0,0,1,.21.51v4.66a.64.64,0,0,1-.21.5.78.78,0,0,1-.55.19.71.71,0,0,1-.51-.18.63.63,0,0,1-.2-.49v-.3a1.88,1.88,0,0,1-.74.74,2.19,2.19,0,0,1-1.06.26q-2.16,0-2.16-2.43v-3a.65.65,0,0,1,.21-.51.73.73,0,0,1,.54-.2.77.77,0,0,1,.55.2.68.68,0,0,1,.2.51v3a1.46,1.46,0,0,0,.25.92,1,1,0,0,0,.8.3,1.31,1.31,0,0,0,1-.41,1.6,1.6,0,0,0,.38-1.1v-2.68a.68.68,0,0,1,.2-.51.77.77,0,0,1,.54-.2A.76.76,0,0,1,354.18,557.73Z"/><path d="M359.71,557.67a.57.57,0,0,1,.18.46.66.66,0,0,1-.15.48.92.92,0,0,1-.57.21l-.36,0a1.46,1.46,0,0,0-1,.48,1.6,1.6,0,0,0-.33,1v2.52a.69.69,0,0,1-.22.54.8.8,0,0,1-.54.18.77.77,0,0,1-.53-.18.69.69,0,0,1-.21-.54v-4.64a.66.66,0,0,1,.21-.52.77.77,0,0,1,.52-.18.7.7,0,0,1,.5.18.62.62,0,0,1,.19.5v.48a1.79,1.79,0,0,1,.68-.82,2.07,2.07,0,0,1,1-.32l.17,0A.64.64,0,0,1,359.71,557.67Z"/><path d="M359.64,564.3a.43.43,0,0,1-.15-.33.38.38,0,0,1,.16-.32.61.61,0,0,1,.41-.13h4.85a.59.59,0,0,1,.41.13.39.39,0,0,1,.17.32.44.44,0,0,1-.16.33.66.66,0,0,1-.42.12h-4.85A.7.7,0,0,1,359.64,564.3Z"/><path d="M371,557.88a2.45,2.45,0,0,1,.92,1.06,3.61,3.61,0,0,1,.33,1.59,3.78,3.78,0,0,1-.33,1.62,2.51,2.51,0,0,1-.92,1.08,2.42,2.42,0,0,1-1.35.39,2.27,2.27,0,0,1-1.14-.28,1.88,1.88,0,0,1-.76-.77v.3a.7.7,0,0,1-.2.52.76.76,0,0,1-.54.19.74.74,0,0,1-.54-.19.69.69,0,0,1-.19-.52V555.7a.66.66,0,0,1,.21-.51A.81.81,0,0,1,367,555a.77.77,0,0,1,.54.18.62.62,0,0,1,.21.49v2.84a1.73,1.73,0,0,1,.75-.74,2.4,2.4,0,0,1,1.12-.26A2.44,2.44,0,0,1,371,557.88Zm-.64,4.07a2.28,2.28,0,0,0,.39-1.42,2.14,2.14,0,0,0-.39-1.38,1.51,1.51,0,0,0-2.22,0,2.71,2.71,0,0,0,0,2.8,1.49,1.49,0,0,0,2.22,0Z"/><path d="M374.58,563.25a2.52,2.52,0,0,1-1.05-1.07,3.4,3.4,0,0,1-.38-1.62,3.34,3.34,0,0,1,.38-1.62,2.5,2.5,0,0,1,1.05-1.06,3.17,3.17,0,0,1,1.57-.37,3.21,3.21,0,0,1,1.58.37,2.61,2.61,0,0,1,1,1.06,3.46,3.46,0,0,1,.36,1.62,3.51,3.51,0,0,1-.36,1.62,2.64,2.64,0,0,1-1,1.07,3.32,3.32,0,0,1-1.58.37A3.28,3.28,0,0,1,374.58,563.25Zm2.68-1.28a2.81,2.81,0,0,0,0-2.82,1.5,1.5,0,0,0-2.22,0,2.74,2.74,0,0,0,0,2.82,1.32,1.32,0,0,0,1.1.48A1.36,1.36,0,0,0,377.26,562Z"/><path d="M388.46,557.65a.64.64,0,0,1,.35-.1.77.77,0,0,1,.5.18.58.58,0,0,1,.22.46.61.61,0,0,1-.06.28l-2,4.64a.68.68,0,0,1-.29.35.83.83,0,0,1-.44.12.79.79,0,0,1-.42-.12.69.69,0,0,1-.3-.35l-1.43-3.43-1.38,3.43a.68.68,0,0,1-.29.35.83.83,0,0,1-.44.12.85.85,0,0,1-.43-.12.65.65,0,0,1-.3-.35l-2-4.64a.73.73,0,0,1-.06-.26.6.6,0,0,1,.24-.48.83.83,0,0,1,.53-.2.67.67,0,0,1,.37.11.61.61,0,0,1,.25.33l1.42,3.66L384,558a.79.79,0,0,1,.28-.34.68.68,0,0,1,.39-.11.69.69,0,0,1,.4.11.79.79,0,0,1,.28.34l1.46,3.64,1.4-3.66A.71.71,0,0,1,388.46,557.65Z"/><path d="M390.76,563.41a.69.69,0,0,1-.21-.54v-7.16a.66.66,0,0,1,.21-.53.8.8,0,0,1,.54-.18.84.84,0,0,1,.54.18.66.66,0,0,1,.21.53v7.16a.69.69,0,0,1-.21.54.84.84,0,0,1-.54.18A.8.8,0,0,1,390.76,563.41Z"/><path d="M399.52,562.89q0,.63-.72.63h-4.56a.62.62,0,0,1-.67-.65.9.9,0,0,1,.27-.64l2.74-2.94a5.15,5.15,0,0,0,.74-1,2.09,2.09,0,0,0,.23-.92,1.14,1.14,0,0,0-.32-.86,1.33,1.33,0,0,0-.93-.3,2.41,2.41,0,0,0-.95.19,4.29,4.29,0,0,0-.93.51,1.41,1.41,0,0,1-.24.13.53.53,0,0,1-.24.06.47.47,0,0,1-.36-.19.73.73,0,0,1-.15-.46.74.74,0,0,1,.07-.31.68.68,0,0,1,.21-.25,4,4,0,0,1,1.24-.67,4.37,4.37,0,0,1,1.41-.25,3,3,0,0,1,2,.63,2.07,2.07,0,0,1,.73,1.68,3.06,3.06,0,0,1-.31,1.37,6.29,6.29,0,0,1-1.05,1.44l-2.08,2.2h3.17C399.28,562.27,399.52,562.48,399.52,562.89Z"/><path d="M400.19,564.3A.44.44,0,0,1,400,564a.39.39,0,0,1,.17-.32.59.59,0,0,1,.41-.13h4.85a.61.61,0,0,1,.41.13.38.38,0,0,1,.16.32.43.43,0,0,1-.15.33.7.7,0,0,1-.42.12h-4.85A.66.66,0,0,1,400.19,564.3Z"/><path d="M411.54,557.88a2.52,2.52,0,0,1,.92,1.06,3.61,3.61,0,0,1,.33,1.59,3.78,3.78,0,0,1-.33,1.62,2.51,2.51,0,0,1-.92,1.08,2.42,2.42,0,0,1-1.35.39,2.24,2.24,0,0,1-1.14-.28,1.88,1.88,0,0,1-.76-.77v.3a.7.7,0,0,1-.2.52.76.76,0,0,1-.54.19.73.73,0,0,1-.54-.19.7.7,0,0,1-.2-.52V555.7a.66.66,0,0,1,.21-.51.83.83,0,0,1,.55-.19.8.8,0,0,1,.54.18.61.61,0,0,1,.2.49v2.84a1.81,1.81,0,0,1,.76-.74,2.4,2.4,0,0,1,1.12-.26A2.44,2.44,0,0,1,411.54,557.88Zm-.65,4.07a2.22,2.22,0,0,0,.4-1.42,2.14,2.14,0,0,0-.39-1.38,1.51,1.51,0,0,0-2.22,0,2.71,2.71,0,0,0,0,2.8,1.33,1.33,0,0,0,1.11.49A1.3,1.3,0,0,0,410.89,562Z"/><path d="M417.79,557.67a.57.57,0,0,1,.18.46.66.66,0,0,1-.15.48.92.92,0,0,1-.57.21l-.36,0a1.46,1.46,0,0,0-1,.48,1.6,1.6,0,0,0-.33,1v2.52a.69.69,0,0,1-.22.54.8.8,0,0,1-.54.18.77.77,0,0,1-.53-.18.69.69,0,0,1-.21-.54v-4.64a.66.66,0,0,1,.21-.52.77.77,0,0,1,.52-.18.7.7,0,0,1,.5.18.62.62,0,0,1,.19.5v.48a1.79,1.79,0,0,1,.68-.82,2.07,2.07,0,0,1,1-.32l.17,0A.64.64,0,0,1,417.79,557.67Z"/><path d="M423.48,562.07a.66.66,0,0,1,.12.42.72.72,0,0,1-.44.62,3.54,3.54,0,0,1-.93.37,3.86,3.86,0,0,1-1,.14,3,3,0,0,1-2.24-.82,3,3,0,0,1-.83-2.23,3.46,3.46,0,0,1,.36-1.6,2.7,2.7,0,0,1,1-1.08,2.94,2.94,0,0,1,1.48-.38,2.67,2.67,0,0,1,1.38.35,2.35,2.35,0,0,1,.92,1,3.38,3.38,0,0,1,.32,1.5c0,.35-.15.52-.46.52h-3.54a1.93,1.93,0,0,0,.47,1.22,1.59,1.59,0,0,0,1.15.39,2.27,2.27,0,0,0,.68-.1,6,6,0,0,0,.67-.26,1.31,1.31,0,0,1,.53-.2A.44.44,0,0,1,423.48,562.07ZM420.09,559a1.85,1.85,0,0,0-.44,1.1h2.72a1.79,1.79,0,0,0-.36-1.11,1.21,1.21,0,0,0-.94-.37A1.28,1.28,0,0,0,420.09,559Z"/><path d="M429.24,558.12a2.54,2.54,0,0,1,.59,1.84v2.93a.69.69,0,0,1-.19.51.76.76,0,0,1-.53.18.67.67,0,0,1-.71-.69v-.27a1.52,1.52,0,0,1-.64.73,1.88,1.88,0,0,1-1,.27,2.34,2.34,0,0,1-1.07-.24,2,2,0,0,1-.76-.66,1.69,1.69,0,0,1-.27-.94,1.49,1.49,0,0,1,.33-1,1.93,1.93,0,0,1,1.07-.54,9.91,9.91,0,0,1,2.05-.17h.3v-.27a1.23,1.23,0,0,0-.25-.86,1.08,1.08,0,0,0-.82-.27,2.47,2.47,0,0,0-.7.1c-.24.07-.53.17-.86.3a1.2,1.2,0,0,1-.45.15.48.48,0,0,1-.36-.15.71.71,0,0,1,0-.77,1,1,0,0,1,.34-.28,4,4,0,0,1,1-.36,5.07,5.07,0,0,1,1.15-.13A2.44,2.44,0,0,1,429.24,558.12Zm-1.22,4a1.44,1.44,0,0,0,.38-1v-.25h-.21a8,8,0,0,0-1.25.07,1.24,1.24,0,0,0-.64.25.63.63,0,0,0-.19.49.8.8,0,0,0,.27.63.93.93,0,0,0,.67.25A1.29,1.29,0,0,0,428,562.14Z"/><path d="M436.8,555.19a.64.64,0,0,1,.22.51v7.17a.67.67,0,0,1-.21.52.73.73,0,0,1-.54.19.76.76,0,0,1-.54-.19.7.7,0,0,1-.2-.52v-.3a1.88,1.88,0,0,1-.76.77,2.24,2.24,0,0,1-1.14.28,2.42,2.42,0,0,1-1.35-.39,2.51,2.51,0,0,1-.92-1.08,3.78,3.78,0,0,1-.33-1.62,3.61,3.61,0,0,1,.33-1.59,2.52,2.52,0,0,1,.92-1.06,2.44,2.44,0,0,1,1.35-.37,2.41,2.41,0,0,1,1.13.26,1.89,1.89,0,0,1,.76.75v-2.85a.59.59,0,0,1,.2-.48.72.72,0,0,1,.53-.19A.83.83,0,0,1,436.8,555.19ZM435.14,562a2.71,2.71,0,0,0,0-2.8,1.5,1.5,0,0,0-2.21,0,2.08,2.08,0,0,0-.4,1.38,2.22,2.22,0,0,0,.4,1.42,1.3,1.3,0,0,0,1.1.5A1.33,1.33,0,0,0,435.14,562Z"/><path d="M437.94,564.3a.43.43,0,0,1-.15-.33.38.38,0,0,1,.16-.32.61.61,0,0,1,.41-.13h4.85a.59.59,0,0,1,.41.13.39.39,0,0,1,.17.32.44.44,0,0,1-.16.33.66.66,0,0,1-.42.12h-4.85A.7.7,0,0,1,437.94,564.3Z"/><path d="M453,558.08a2.72,2.72,0,0,1,.51,1.84v3a.69.69,0,0,1-.21.54.81.81,0,0,1-.55.18.79.79,0,0,1-.53-.18.69.69,0,0,1-.21-.54v-3a1.45,1.45,0,0,0-.24-.94.85.85,0,0,0-.71-.28,1.19,1.19,0,0,0-.94.4,1.63,1.63,0,0,0-.34,1.1v2.67a.69.69,0,0,1-.21.54.8.8,0,0,1-.54.18.84.84,0,0,1-.54-.18.69.69,0,0,1-.21-.54v-3a1.45,1.45,0,0,0-.24-.94.85.85,0,0,0-.71-.28,1.16,1.16,0,0,0-.93.4,1.63,1.63,0,0,0-.34,1.1v2.67a.69.69,0,0,1-.22.54.8.8,0,0,1-.54.18.77.77,0,0,1-.53-.18.69.69,0,0,1-.21-.54v-4.64a.66.66,0,0,1,.21-.52.84.84,0,0,1,.54-.18.72.72,0,0,1,.51.18.63.63,0,0,1,.2.5v.28a1.86,1.86,0,0,1,.74-.73,2.16,2.16,0,0,1,1.06-.25,1.71,1.71,0,0,1,1.76,1.1,2.07,2.07,0,0,1,.78-.8,2.32,2.32,0,0,1,1.17-.3A1.87,1.87,0,0,1,453,558.08Z"/><path d="M456.14,563.25a2.64,2.64,0,0,1-1.05-1.07,3.4,3.4,0,0,1-.37-1.62,3.34,3.34,0,0,1,.37-1.62,2.61,2.61,0,0,1,1.05-1.06,3.56,3.56,0,0,1,3.16,0,2.53,2.53,0,0,1,1,1.06,3.46,3.46,0,0,1,.37,1.62,3.52,3.52,0,0,1-.37,1.62,2.55,2.55,0,0,1-1,1.07,3.56,3.56,0,0,1-3.16,0Zm2.68-1.28a2.74,2.74,0,0,0,0-2.82,1.3,1.3,0,0,0-1.1-.49,1.33,1.33,0,0,0-1.11.49,2.19,2.19,0,0,0-.39,1.41,2.26,2.26,0,0,0,.38,1.41,1.52,1.52,0,0,0,2.22,0Z"/><path d="M462.15,563.41a.69.69,0,0,1-.21-.54v-7.16a.66.66,0,0,1,.21-.53.8.8,0,0,1,.54-.18.84.84,0,0,1,.54.18.66.66,0,0,1,.21.53v7.16a.69.69,0,0,1-.21.54.84.84,0,0,1-.54.18A.8.8,0,0,1,462.15,563.41Z"/><path d="M470.44,555.19a.66.66,0,0,1,.21.51v7.17a.66.66,0,0,1-.2.52.86.86,0,0,1-1.08,0,.66.66,0,0,1-.2-.52v-.3a1.84,1.84,0,0,1-.77.77,2.23,2.23,0,0,1-1.13.28,2.42,2.42,0,0,1-1.35-.39,2.45,2.45,0,0,1-.92-1.08,3.78,3.78,0,0,1-.33-1.62,3.61,3.61,0,0,1,.33-1.59,2.39,2.39,0,0,1,2.27-1.43,2.44,2.44,0,0,1,1.13.26,1.81,1.81,0,0,1,.75.75v-2.85a.63.63,0,0,1,.2-.48.73.73,0,0,1,.54-.19A.85.85,0,0,1,470.44,555.19ZM468.78,562a2.71,2.71,0,0,0,0-2.8,1.35,1.35,0,0,0-1.1-.49,1.38,1.38,0,0,0-1.12.48,2.14,2.14,0,0,0-.39,1.38,2.28,2.28,0,0,0,.39,1.42,1.49,1.49,0,0,0,2.22,0Z"/><path d="M471.58,564.3a.41.41,0,0,1-.16-.33.4.4,0,0,1,.16-.32.64.64,0,0,1,.42-.13h4.85a.63.63,0,0,1,.41.13.38.38,0,0,1,.16.32.43.43,0,0,1-.15.33.7.7,0,0,1-.42.12H472A.66.66,0,0,1,471.58,564.3Z"/><path d="M478.24,563.1a.71.71,0,0,1-.39-.65.56.56,0,0,1,.14-.39.39.39,0,0,1,.32-.15,1.3,1.3,0,0,1,.56.2,4.59,4.59,0,0,0,.71.27,2.63,2.63,0,0,0,.81.1,1.56,1.56,0,0,0,.78-.17.52.52,0,0,0,.28-.47.43.43,0,0,0-.11-.32,1,1,0,0,0-.41-.22,7.79,7.79,0,0,0-.89-.24,3.46,3.46,0,0,1-1.53-.61,1.36,1.36,0,0,1-.47-1.09,1.61,1.61,0,0,1,.32-1,2.1,2.1,0,0,1,.85-.66,3.28,3.28,0,0,1,1.25-.23,3.49,3.49,0,0,1,1,.13,2.88,2.88,0,0,1,.84.36.71.71,0,0,1,.38.64.6.6,0,0,1-.13.4.39.39,0,0,1-.32.16.75.75,0,0,1-.26-.05l-.32-.16a4.76,4.76,0,0,0-.6-.27,1.85,1.85,0,0,0-.62-.09,1.19,1.19,0,0,0-.7.18.55.55,0,0,0-.26.49.49.49,0,0,0,.26.45,3.81,3.81,0,0,0,1,.32,5.82,5.82,0,0,1,1.26.38,1.45,1.45,0,0,1,.66.54,1.59,1.59,0,0,1,.19.83,1.55,1.55,0,0,1-.67,1.31,3.1,3.1,0,0,1-1.81.49A3.79,3.79,0,0,1,478.24,563.1Z"/><path d="M488.77,557.89a2.6,2.6,0,0,1,.92,1.09,3.77,3.77,0,0,1,.33,1.61,3.66,3.66,0,0,1-.33,1.6,2.45,2.45,0,0,1-.92,1.06,2.53,2.53,0,0,1-1.35.37,2.29,2.29,0,0,1-1.12-.27,1.76,1.76,0,0,1-.75-.73v2.45a.61.61,0,0,1-.21.49.88.88,0,0,1-1.08,0,.66.66,0,0,1-.21-.5v-6.81a.67.67,0,0,1,.19-.51.75.75,0,0,1,.54-.2.77.77,0,0,1,.54.2.68.68,0,0,1,.2.51v.3a1.85,1.85,0,0,1,.76-.76,2.37,2.37,0,0,1,1.14-.27A2.5,2.5,0,0,1,488.77,557.89Zm-.64,4.08a2.16,2.16,0,0,0,.39-1.38,2.25,2.25,0,0,0-.39-1.41,1.47,1.47,0,0,0-2.22,0,2.69,2.69,0,0,0,0,2.79,1.33,1.33,0,0,0,1.11.49A1.38,1.38,0,0,0,488.13,562Z"/><path d="M495.62,558.12a2.5,2.5,0,0,1,.59,1.84v2.93a.69.69,0,0,1-.19.51.74.74,0,0,1-.53.18.72.72,0,0,1-.51-.19.68.68,0,0,1-.19-.5v-.27a1.54,1.54,0,0,1-.65.73,1.88,1.88,0,0,1-1,.27,2.37,2.37,0,0,1-1.07-.24,1.86,1.86,0,0,1-.75-.66,1.62,1.62,0,0,1-.28-.94,1.49,1.49,0,0,1,.33-1,2,2,0,0,1,1.07-.54,10,10,0,0,1,2.06-.17h.3v-.27a1.23,1.23,0,0,0-.26-.86,1.05,1.05,0,0,0-.81-.27,2.53,2.53,0,0,0-.71.1c-.24.07-.52.17-.85.3a1.24,1.24,0,0,1-.46.15.45.45,0,0,1-.35-.15.62.62,0,0,1-.14-.41.61.61,0,0,1,.1-.36,1,1,0,0,1,.34-.28,4.1,4.1,0,0,1,1-.36,5,5,0,0,1,1.14-.13A2.43,2.43,0,0,1,495.62,558.12Zm-1.21,4a1.48,1.48,0,0,0,.38-1v-.25h-.22a8.09,8.09,0,0,0-1.25.07,1.2,1.2,0,0,0-.63.25.63.63,0,0,0-.2.49.8.8,0,0,0,.27.63,1,1,0,0,0,.67.25A1.31,1.31,0,0,0,494.41,562.14Z"/><path d="M501.38,563a.48.48,0,0,1-.23.44,1.07,1.07,0,0,1-.66.12l-.33,0a1.93,1.93,0,0,1-2-2.16v-2.62h-.61a.77.77,0,0,1-.49-.14.52.52,0,0,1-.18-.42.49.49,0,0,1,.18-.42.72.72,0,0,1,.49-.15h.61v-1.1a.66.66,0,0,1,.2-.52.81.81,0,0,1,.55-.19.81.81,0,0,1,.54.19.67.67,0,0,1,.21.52v1.1h1a.72.72,0,0,1,.49.15.49.49,0,0,1,.18.42.52.52,0,0,1-.18.42.77.77,0,0,1-.49.14h-1v2.73c0,.59.27.9.81.94l.33,0C501.18,562.5,501.38,562.68,501.38,563Z"/><path d="M507.35,557.73a.68.68,0,0,1,.2.51v4.66a.64.64,0,0,1-.21.5.76.76,0,0,1-.54.19.73.73,0,0,1-.52-.18.63.63,0,0,1-.19-.49v-.3a1.91,1.91,0,0,1-.75.74,2.15,2.15,0,0,1-1,.26q-2.16,0-2.16-2.43v-3a.68.68,0,0,1,.2-.51.77.77,0,0,1,.54-.2.76.76,0,0,1,.55.2.65.65,0,0,1,.21.51v3a1.4,1.4,0,0,0,.25.92,1,1,0,0,0,.79.3,1.3,1.3,0,0,0,1-.41,1.55,1.55,0,0,0,.38-1.1v-2.68a.65.65,0,0,1,.21-.51.73.73,0,0,1,.54-.2A.77.77,0,0,1,507.35,557.73Z"/><path d="M509.32,563.41a.69.69,0,0,1-.21-.54v-7.16a.66.66,0,0,1,.21-.53.8.8,0,0,1,.54-.18.84.84,0,0,1,.54.18.66.66,0,0,1,.21.53v7.16a.69.69,0,0,1-.21.54.84.84,0,0,1-.54.18A.8.8,0,0,1,509.32,563.41Z"/><path d="M516.52,558.12a2.5,2.5,0,0,1,.6,1.84v2.93a.69.69,0,0,1-.2.51.71.71,0,0,1-.52.18.69.69,0,0,1-.51-.19.65.65,0,0,1-.2-.5v-.27a1.57,1.57,0,0,1-.64.73,1.92,1.92,0,0,1-1,.27,2.4,2.4,0,0,1-1.07-.24,1.86,1.86,0,0,1-.75-.66,1.62,1.62,0,0,1-.28-.94,1.49,1.49,0,0,1,.33-1,2,2,0,0,1,1.08-.54,9.85,9.85,0,0,1,2-.17h.3v-.27a1.28,1.28,0,0,0-.25-.86,1.08,1.08,0,0,0-.82-.27,2.53,2.53,0,0,0-.71.1c-.24.07-.52.17-.85.3a1.24,1.24,0,0,1-.46.15.45.45,0,0,1-.35-.15.62.62,0,0,1-.14-.41.69.69,0,0,1,.1-.36,1,1,0,0,1,.35-.28,4,4,0,0,1,1-.36,5.07,5.07,0,0,1,1.15-.13A2.4,2.4,0,0,1,516.52,558.12Zm-1.21,4a1.48,1.48,0,0,0,.38-1v-.25h-.22a8.18,8.18,0,0,0-1.25.07,1.24,1.24,0,0,0-.63.25.63.63,0,0,0-.19.49.8.8,0,0,0,.27.63.92.92,0,0,0,.66.25A1.31,1.31,0,0,0,515.31,562.14Z"/></g></svg>