<svg id="Layer_1" data-name="Layer 1" xmlns="http://www.w3.org/2000/svg" viewBox="0 0 2000 2000"><path d="M350.6,371.51V106.73C350.6,75.4,374.93,50,405,50H1614.33c30,0,54.36,25.4,54.36,56.73V371.51" style="fill:#fff;stroke:#3a3632;stroke-miterlimit:15.118109703064;stroke-width:20px"/><circle cx="523" cy="185.76" r="50.25" style="fill:#e6e7e8;stroke:#3a3632;stroke-miterlimit:15.118109703064;stroke-width:20px"/><circle cx="689.84" cy="185.76" r="50.25" style="fill:#e6e7e8;stroke:#3a3632;stroke-miterlimit:15.118109703064;stroke-width:20px"/><circle cx="1479.15" cy="185.76" r="50.25" style="fill:#e6e7e8;stroke:#3a3632;stroke-miterlimit:15.118109703064;stroke-width:20px"/><circle cx="1314.74" cy="185.76" r="50.25" style="fill:#e6e7e8;stroke:#3a3632;stroke-miterlimit:15.118109703064;stroke-width:20px"/><circle cx="1000" cy="185.76" r="50.25" style="fill:#e6e7e8;stroke:#3a3632;stroke-miterlimit:15.118109703064;stroke-width:20px"/><rect x="273.76" y="371.51" width="1452.47" height="1578.49" rx="56.73" style="fill:#fff;stroke:#3a3632;stroke-miterlimit:15.118109703064;stroke-width:20px"/><line x1="279.16" y1="1654.33" x2="1720.84" y2="1654.33" style="fill:none;stroke:#3a3632;stroke-miterlimit:15.118109703064;stroke-width:20px"/><rect x="364.47" y="590.47" width="1271.06" height="88.16" rx="18.91" style="fill:none;stroke:#3a3632;stroke-miterlimit:15.118109703064;stroke-width:20px"/><line x1="279.16" y1="489.62" x2="1720.84" y2="489.62" style="fill:none;stroke:#3a3632;stroke-miterlimit:15.118109703064;stroke-width:20px"/><line x1="475.12" y1="340.01" x2="895.4" y2="340.01" style="fill:none;stroke:#3a3632;stroke-linecap:round;stroke-miterlimit:15.118109703064;stroke-width:37.8187366634573px"/><line x1="1104.6" y1="340.01" x2="1524.88" y2="340.01" style="fill:none;stroke:#3a3632;stroke-linecap:round;stroke-miterlimit:15.118109703064;stroke-width:37.8187366634573px"/><rect x="472.75" y="779.47" width="1054.5" height="774.01" rx="113.46" style="fill:#a6a8ab;stroke:#3a3632;stroke-linecap:round;stroke-linejoin:round;stroke-width:20px;isolation:isolate;opacity:0.991999983787537"/><line x1="475.84" y1="1318.54" x2="1527.25" y2="1318.54" style="fill:none;stroke:#3a3632;stroke-linecap:round;stroke-miterlimit:15.118109703064;stroke-width:20px"/><line x1="576.34" y1="1318.54" x2="576.34" y2="1541.77" style="fill:none;stroke:#3a3632;stroke-linecap:round;stroke-miterlimit:15.118109703064;stroke-width:20px"/><line x1="718.43" y1="1318.54" x2="718.43" y2="1541.77" style="fill:none;stroke:#3a3632;stroke-linecap:round;stroke-miterlimit:15.118109703064;stroke-width:20px"/><line x1="860.53" y1="1318.54" x2="860.53" y2="1541.77" style="fill:none;stroke:#3a3632;stroke-linecap:round;stroke-miterlimit:15.118109703064;stroke-width:20px"/><line x1="1002.62" y1="1318.54" x2="1002.62" y2="1541.77" style="fill:none;stroke:#3a3632;stroke-linecap:round;stroke-miterlimit:15.118109703064;stroke-width:20px"/><line x1="1144.72" y1="1318.54" x2="1144.72" y2="1541.77" style="fill:none;stroke:#3a3632;stroke-linecap:round;stroke-miterlimit:15.118109703064;stroke-width:20px"/><line x1="1286.81" y1="1318.54" x2="1286.81" y2="1541.77" style="fill:none;stroke:#3a3632;stroke-linecap:round;stroke-miterlimit:15.118109703064;stroke-width:20px"/><line x1="1428.9" y1="1318.54" x2="1428.9" y2="1541.77" style="fill:none;stroke:#3a3632;stroke-linecap:round;stroke-miterlimit:15.118109703064;stroke-width:20px"/><path d="M674.35,1025.4a35.67,35.67,0,0,0,23.21-7.9q9.74-7.9,9.74-22.7a27.14,27.14,0,0,0-7.76-19.4q-7.77-8.13-20.94-8.13-8.94,0-14.72,2.49a23.8,23.8,0,0,0-9.15,6.59,50.12,50.12,0,0,0-6.37,10.54q-3,6.45-5.49,12.16a10.25,10.25,0,0,1-5.27,4.83,20.79,20.79,0,0,1-8.78,1.76q-5.87,0-10.77-4.76t-4.9-12.67q0-7.61,4.61-16a58.45,58.45,0,0,1,13.47-16,67.58,67.58,0,0,1,22-12.23,88.49,88.49,0,0,1,29.43-4.61,82,82,0,0,1,25.92,3.88A60.51,60.51,0,0,1,729,954.39a48.38,48.38,0,0,1,13,17,49.68,49.68,0,0,1,4.39,20.8q0,14.64-6.37,25.11t-18.23,20.42a80.63,80.63,0,0,1,19.26,14.06A52.51,52.51,0,0,1,756.79,1090a64.74,64.74,0,0,1-5.34,25.77,65.93,65.93,0,0,1-15.75,22.18A75,75,0,0,1,711,1153.16a87.23,87.23,0,0,1-31.55,5.49q-17.58,0-31.48-6.3a72,72,0,0,1-36.54-35.29q-4.61-10.1-4.61-16.69,0-8.49,5.49-13.69a19.17,19.17,0,0,1,13.69-5.2,14.56,14.56,0,0,1,7.91,2.42,11.4,11.4,0,0,1,5,5.78q7.61,20.35,16.33,30.24t24.52,9.88a36.83,36.83,0,0,0,31.41-17.71,37.61,37.61,0,0,0,5.49-20.36q0-17.13-9.37-26.86t-26.06-9.74c-2,0-5,.19-9.08.58s-6.74.59-7.91.59q-8.06,0-12.45-4t-4.39-11.2a14,14,0,0,1,5.27-11.35q5.28-4.31,15.67-4.32Z" style="fill:#fff"/><path d="M837.32,1120.43h76.44q11.41,0,17.42,4.69a15.3,15.3,0,0,1,6,12.74,16.9,16.9,0,0,1-4.76,12.15q-4.75,5-14.42,5H810.23q-11,0-17.13-6.08a19.42,19.42,0,0,1-6.15-14.27q0-5.28,4-14a50,50,0,0,1,8.64-13.69q19.47-20.2,35.14-34.63t22.4-19a129.88,129.88,0,0,0,20-17.06,67.62,67.62,0,0,0,12.15-17.57,41.77,41.77,0,0,0,4.17-17.64,31.86,31.86,0,0,0-4.46-16.77,30.91,30.91,0,0,0-12.16-11.49,35.08,35.08,0,0,0-16.76-4.1q-19.18,0-30.17,16.84-1.46,2.19-4.9,12t-7.76,15.09q-4.32,5.26-12.67,5.27a16.44,16.44,0,0,1-12.15-4.84q-4.83-4.83-4.83-13.17a55.06,55.06,0,0,1,4.54-21.09,60.33,60.33,0,0,1,13.54-19.91,67.12,67.12,0,0,1,22.84-14.43Q842.31,939,860.9,939q22.4,0,38.21,7a57.53,57.53,0,0,1,18,12.89,60.47,60.47,0,0,1,16.4,41.29,62.53,62.53,0,0,1-9,33q-9,14.87-18.38,23.28T874.73,1083q-22,18-30.23,28A81.59,81.59,0,0,0,837.32,1120.43Z" style="fill:#fff"/><path d="M1087.41,976.5h-69.55l-8.34,47.44q20.79-11.13,38.36-11.13a65.73,65.73,0,0,1,26.28,5.27,67.12,67.12,0,0,1,35.95,36.61,71,71,0,0,1,5.27,27.38,79.29,79.29,0,0,1-9.52,38.66,70.21,70.21,0,0,1-27.45,27.67q-17.94,10.24-41.37,10.25-26.2,0-42.53-9.66t-23.14-22.19q-6.81-12.51-6.81-21.89,0-5.72,4.76-10.83a15.59,15.59,0,0,1,11.94-5.13q12.3,0,18.3,14.2,5.85,13,15.81,20.28a36.88,36.88,0,0,0,22.26,7.25,34,34,0,0,0,19.77-5.85,38,38,0,0,0,13.1-16.11,56.05,56.05,0,0,0,4.61-23.28q0-14.06-5-24t-13.33-14.86a36,36,0,0,0-18.59-4.9q-12.6,0-18,3.07a158.64,158.64,0,0,0-15.6,10.76q-10.17,7.69-16.76,7.69a18.11,18.11,0,0,1-12.74-5.2q-5.57-5.19-5.57-11.78,0-.73,1.61-10l12.3-70.14q2.06-12.58,7.62-18.3t18.15-5.71h77.32q22.83,0,22.84,17.42a15.29,15.29,0,0,1-5.57,12.3Q1098.24,976.51,1087.41,976.5Z" style="fill:#fff"/><path d="M1176.59,925.54a30.31,30.31,0,1,1-15.23,56.52,31,31,0,0,1-11-11,30.39,30.39,0,0,1,26.21-45.54Zm0,15.38a14.51,14.51,0,0,0-14.94,14.93,13.94,13.94,0,0,0,4.32,10.47,14.71,14.71,0,0,0,10.62,4.18,15.34,15.34,0,0,0,7.54-1.91,14,14,0,0,0,5.41-5.27,14.44,14.44,0,0,0,2-7.47,15.52,15.52,0,0,0-1.17-5.93,13.5,13.5,0,0,0-7.83-7.83A15.52,15.52,0,0,0,1176.59,940.92Z" style="fill:#fff"/><path d="M1378.36,973.86H1292.7v54.91h71.6q10,0,14.86,4.47t4.91,11.93q0,7.47-5,11.86t-14.79,4.39h-71.6v70.73q0,13.47-6.08,20a20.35,20.35,0,0,1-15.59,6.52q-9.66,0-15.74-6.59t-6.08-19.91V967q0-9.36,2.78-15.3a17.32,17.32,0,0,1,8.72-8.64q5.93-2.7,15.15-2.71h102.5q10.4,0,15.44,4.61a17.13,17.13,0,0,1,0,24.31Q1388.76,973.87,1378.36,973.86Z" style="fill:#fff"/></svg>