<svg id="Layer_1" data-name="Layer 1" xmlns="http://www.w3.org/2000/svg" viewBox="0 0 2000 2000"><path d="M350.6,371.51V106.73C350.6,75.4,374.93,50,405,50H1614.33c30,0,54.36,25.4,54.36,56.73V371.51" style="fill:#fff;stroke:#3a3632;stroke-miterlimit:15.118109703064;stroke-width:20px"/><circle cx="523" cy="185.76" r="50.25" style="fill:#e6e7e8;stroke:#3a3632;stroke-miterlimit:15.118109703064;stroke-width:20px"/><circle cx="689.84" cy="185.76" r="50.25" style="fill:#e6e7e8;stroke:#3a3632;stroke-miterlimit:15.118109703064;stroke-width:20px"/><circle cx="1479.15" cy="185.76" r="50.25" style="fill:#e6e7e8;stroke:#3a3632;stroke-miterlimit:15.118109703064;stroke-width:20px"/><circle cx="1314.74" cy="185.76" r="50.25" style="fill:#e6e7e8;stroke:#3a3632;stroke-miterlimit:15.118109703064;stroke-width:20px"/><circle cx="1000" cy="185.76" r="50.25" style="fill:#e6e7e8;stroke:#3a3632;stroke-miterlimit:15.118109703064;stroke-width:20px"/><rect x="273.76" y="371.51" width="1452.47" height="1578.49" rx="56.73" style="fill:#fff;stroke:#3a3632;stroke-miterlimit:15.118109703064;stroke-width:20px"/><line x1="279.16" y1="1654.33" x2="1720.84" y2="1654.33" style="fill:none;stroke:#3a3632;stroke-miterlimit:15.118109703064;stroke-width:20px"/><rect x="364.47" y="590.47" width="1271.06" height="88.16" rx="18.91" style="fill:none;stroke:#3a3632;stroke-miterlimit:15.118109703064;stroke-width:20px"/><line x1="279.16" y1="489.62" x2="1720.84" y2="489.62" style="fill:none;stroke:#3a3632;stroke-miterlimit:15.118109703064;stroke-width:20px"/><line x1="475.12" y1="340.01" x2="895.4" y2="340.01" style="fill:none;stroke:#3a3632;stroke-linecap:round;stroke-miterlimit:15.118109703064;stroke-width:37.8187366634573px"/><line x1="1104.6" y1="340.01" x2="1524.88" y2="340.01" style="fill:none;stroke:#3a3632;stroke-linecap:round;stroke-miterlimit:15.118109703064;stroke-width:37.8187366634573px"/><rect x="472.75" y="779.47" width="1054.5" height="774.01" rx="113.46" style="fill:#a6a8ab;stroke:#3a3632;stroke-linecap:round;stroke-linejoin:round;stroke-width:20px;isolation:isolate;opacity:0.991999983787537"/><line x1="475.84" y1="1318.54" x2="1527.25" y2="1318.54" style="fill:none;stroke:#3a3632;stroke-linecap:round;stroke-miterlimit:15.118109703064;stroke-width:20px"/><line x1="576.34" y1="1318.54" x2="576.34" y2="1541.77" style="fill:none;stroke:#3a3632;stroke-linecap:round;stroke-miterlimit:15.118109703064;stroke-width:20px"/><line x1="718.43" y1="1318.54" x2="718.43" y2="1541.77" style="fill:none;stroke:#3a3632;stroke-linecap:round;stroke-miterlimit:15.118109703064;stroke-width:20px"/><line x1="860.53" y1="1318.54" x2="860.53" y2="1541.77" style="fill:none;stroke:#3a3632;stroke-linecap:round;stroke-miterlimit:15.118109703064;stroke-width:20px"/><line x1="1002.62" y1="1318.54" x2="1002.62" y2="1541.77" style="fill:none;stroke:#3a3632;stroke-linecap:round;stroke-miterlimit:15.118109703064;stroke-width:20px"/><line x1="1144.72" y1="1318.54" x2="1144.72" y2="1541.77" style="fill:none;stroke:#3a3632;stroke-linecap:round;stroke-miterlimit:15.118109703064;stroke-width:20px"/><line x1="1286.81" y1="1318.54" x2="1286.81" y2="1541.77" style="fill:none;stroke:#3a3632;stroke-linecap:round;stroke-miterlimit:15.118109703064;stroke-width:20px"/><line x1="1428.9" y1="1318.54" x2="1428.9" y2="1541.77" style="fill:none;stroke:#3a3632;stroke-linecap:round;stroke-miterlimit:15.118109703064;stroke-width:20px"/><path d="M659.12,1120.43h76.44q11.41,0,17.42,4.69a15.3,15.3,0,0,1,6,12.74,16.94,16.94,0,0,1-4.76,12.15q-4.77,5-14.43,5H632q-11,0-17.13-6.08a19.42,19.42,0,0,1-6.15-14.27q0-5.28,4-14a50,50,0,0,1,8.64-13.69q19.47-20.2,35.14-34.63t22.4-19a128.93,128.93,0,0,0,20-17.06A67.62,67.62,0,0,0,711,1018.74a41.79,41.79,0,0,0,4.18-17.64,31.78,31.78,0,0,0-4.47-16.77,31,31,0,0,0-12.15-11.49,35.15,35.15,0,0,0-16.77-4.1q-19.19,0-30.16,16.84-1.47,2.19-4.91,12T639,1012.67q-4.32,5.26-12.66,5.27a16.45,16.45,0,0,1-12.16-4.84q-4.83-4.83-4.83-13.17a55.06,55.06,0,0,1,4.54-21.09,60.49,60.49,0,0,1,13.54-19.91,67.17,67.17,0,0,1,22.85-14.43Q664.1,939,682.7,939q22.39,0,38.22,7a57.64,57.64,0,0,1,18,12.89,60.47,60.47,0,0,1,16.4,41.29,62.54,62.54,0,0,1-9,33q-9,14.87-18.38,23.28T696.54,1083q-22,18-30.24,28A82.73,82.73,0,0,0,659.12,1120.43Z" style="fill:#fff"/><path d="M909.22,976.5H839.67l-8.35,47.44q20.79-11.13,38.36-11.13a65.73,65.73,0,0,1,26.28,5.27,67,67,0,0,1,35.95,36.61,70.78,70.78,0,0,1,5.27,27.38,79.39,79.39,0,0,1-9.51,38.66,70.3,70.3,0,0,1-27.46,27.67q-17.94,10.24-41.36,10.25-26.22,0-42.54-9.66t-23.13-22.19q-6.81-12.51-6.81-21.89,0-5.72,4.76-10.83a15.59,15.59,0,0,1,11.93-5.13q12.3,0,18.3,14.2,5.86,13,15.82,20.28a36.83,36.83,0,0,0,22.25,7.25,34,34,0,0,0,19.77-5.85,38,38,0,0,0,13.1-16.11,56.05,56.05,0,0,0,4.62-23.28q0-14.06-5-24t-13.33-14.86a36,36,0,0,0-18.59-4.9q-12.6,0-18,3.07a161.1,161.1,0,0,0-15.6,10.76q-10.17,7.69-16.76,7.69a18.11,18.11,0,0,1-12.74-5.2q-5.56-5.19-5.56-11.78c0-.49.53-3.81,1.61-10l12.3-70.14q2-12.58,7.61-18.3T831,942.09h77.31q22.85,0,22.84,17.42a15.31,15.31,0,0,1-5.56,12.3Q920,976.51,909.22,976.5Z" style="fill:#fff"/><path d="M1112.6,1049.71q0,24-2.93,41.29a96,96,0,0,1-10.84,31.34,71.86,71.86,0,0,1-25.77,26.65,67.68,67.68,0,0,1-35.14,9.37,67,67,0,0,1-39.9-12.6q-17.64-12.59-26.57-34.84a129.77,129.77,0,0,1-6.67-26.87,224.36,224.36,0,0,1-2.12-31.85,306.33,306.33,0,0,1,2.34-39.83q2.34-17.72,7.33-30.45,8.63-21.09,25.11-32.14t39.31-11.06a73.34,73.34,0,0,1,27.38,4.91,62.42,62.42,0,0,1,21.6,14.35,82,82,0,0,1,15.74,23.35Q1112.6,1005.5,1112.6,1049.71Zm-40.12-2.93q0-26.79-3.22-43.85t-10.84-25.77q-7.62-8.71-21.08-8.71-19.33,0-26.87,19.47t-7.54,60q0,27.54,3.22,45.1t10.83,26.58q7.62,9,20.65,9,13.47,0,21.08-9.37t10.69-26.79Q1072.47,1075,1072.48,1046.78Z" style="fill:#fff"/><path d="M1176.59,925.54a30.31,30.31,0,1,1-15.23,56.52,31,31,0,0,1-11-11,30.39,30.39,0,0,1,26.21-45.54Zm0,15.38a14.51,14.51,0,0,0-14.94,14.93,13.94,13.94,0,0,0,4.32,10.47,14.71,14.71,0,0,0,10.62,4.18,15.34,15.34,0,0,0,7.54-1.91,14,14,0,0,0,5.41-5.27,14.44,14.44,0,0,0,2-7.47,15.52,15.52,0,0,0-1.17-5.93,13.5,13.5,0,0,0-7.83-7.83A15.52,15.52,0,0,0,1176.59,940.92Z" style="fill:#fff"/><path d="M1378.36,973.86H1292.7v54.91h71.6q10,0,14.86,4.47t4.91,11.93q0,7.47-5,11.86t-14.79,4.39h-71.6v70.73q0,13.47-6.08,20a20.35,20.35,0,0,1-15.59,6.52q-9.66,0-15.74-6.59t-6.08-19.91V967q0-9.36,2.78-15.3a17.32,17.32,0,0,1,8.72-8.64q5.93-2.7,15.15-2.71h102.5q10.4,0,15.44,4.61a17.13,17.13,0,0,1,0,24.31Q1388.76,973.87,1378.36,973.86Z" style="fill:#fff"/></svg>