<?xml version="1.0" encoding="UTF-8" standalone="no"?>
<svg
   xmlns:dc="http://purl.org/dc/elements/1.1/"
   xmlns:cc="http://creativecommons.org/ns#"
   xmlns:rdf="http://www.w3.org/1999/02/22-rdf-syntax-ns#"
   xmlns:svg="http://www.w3.org/2000/svg"
   xmlns="http://www.w3.org/2000/svg"
   xmlns:sodipodi="http://sodipodi.sourceforge.net/DTD/sodipodi-0.dtd"
   xmlns:inkscape="http://www.inkscape.org/namespaces/inkscape"
   inkscape:version="1.0beta1 (32d4812, 2019-09-19)"
   height="600.27002"
   width="1978.88"
   sodipodi:docname="20x20_oven_mold.svg"
   version="1.1"
   viewBox="0 0 1978.88 600.27"
   data-name="Layer 1"
   id="Layer_1">
  <metadata
     id="metadata848">
    <rdf:RDF>
      <cc:Work
         rdf:about="">
        <dc:format>image/svg+xml</dc:format>
        <dc:type
           rdf:resource="http://purl.org/dc/dcmitype/StillImage" />
        <dc:title></dc:title>
      </cc:Work>
    </rdf:RDF>
  </metadata>
  <defs
     id="defs846" />
  <sodipodi:namedview
     inkscape:current-layer="Layer_1"
     inkscape:window-maximized="0"
     inkscape:window-y="25"
     inkscape:window-x="0"
     inkscape:cy="522.49"
     inkscape:cx="389.44"
     inkscape:zoom="0.35"
     fit-margin-bottom="12"
     fit-margin-right="12"
     fit-margin-left="12"
     lock-margins="true"
     fit-margin-top="12"
     showgrid="false"
     id="namedview844"
     inkscape:window-height="907"
     inkscape:window-width="1600"
     inkscape:pageshadow="2"
     inkscape:pageopacity="0"
     guidetolerance="10"
     gridtolerance="10"
     objecttolerance="10"
     borderopacity="1"
     inkscape:document-rotation="0"
     bordercolor="#666666"
     pagecolor="#ffffff" />
  <path
     inkscape:connector-curvature="0"
     id="path833"
     style="fill:#ffffff;stroke:#231f20;stroke-width:24.6931px;stroke-linecap:round;stroke-linejoin:round"
     d="m 58.69,242.49 52.38,296.56 a 74.15,74.15 0 0 0 69.85,49.22 h 1617 a 74.15,74.15 0 0 0 69.85,-49.22 l 52.42,-296.56" />
  <path
     inkscape:connector-curvature="0"
     id="path835"
     style="fill:#ffffff;stroke:#231f20;stroke-width:24.6931px;stroke-linecap:round;stroke-linejoin:round"
     d="M 1949.37,234.83 1629.84,18.28 A 38.57,38.57 0 0 0 1608.74,12 H 370.14 a 38.57,38.57 0 0 0 -21.1,6.28 L 29.51,234.83 A 38.62,38.62 0 0 0 12,267.17 v 8.8 a 38.61,38.61 0 0 0 38.61,38.61 h 1877.66 a 38.61,38.61 0 0 0 38.61,-38.61 v -8.8 a 38.62,38.62 0 0 0 -17.51,-32.34 z" />
  <line
     id="line837"
     style="fill:#ffffff;stroke:#231f20;stroke-width:24.6931px;stroke-linecap:round;stroke-linejoin:round"
     y2="246.25999"
     x2="1867.0099"
     y1="246.25999"
     x1="111.87" />
  <line
     id="line839"
     style="fill:#ffffff;stroke:#231f20;stroke-width:24.6931px;stroke-linecap:round;stroke-linejoin:round"
     y2="242.47002"
     x2="407.14999"
     y1="69.489998"
     x1="378.01999" />
  <line
     id="line841"
     style="fill:#ffffff;stroke:#231f20;stroke-width:24.6931px;stroke-linecap:round;stroke-linejoin:round"
     y2="242.47002"
     x2="1571.73"
     y1="69.489998"
     x1="1600.86" />
</svg>
