<svg id="Layer_1" data-name="Layer 1" xmlns="http://www.w3.org/2000/svg" viewBox="0 0 2000 1100"><path d="M1000.75,1073C1446.56,1073,1970,835.8,1970,297c0-126.92-433.95-243.58-969.25-243.58h-1.5C464,53.39,30,170.05,30,297c0,538.83,523.44,776,969.25,776" style="fill:#fff;stroke:#231f20;stroke-miterlimit:10;stroke-width:24px"/><path d="M92.72,299.59V529.71L353,859.45H1641l266.28-352.64V299.59c0,60.82-405.85,150.94-906.48,150.94h-1.6C498.57,450.53,92.72,360.41,92.72,299.59Z" style="fill:#fff"/><path d="M1081.11,759.17q13.16,17.49,13.17,43.42,0,35.76-26.33,57t-71.13,21.22a154.29,154.29,0,0,1-49.12-7.86q-23.58-7.86-40.08-22-9-7.84-9-18.46a22.72,22.72,0,0,1,4.91-14.74q4.9-6.09,11.59-6.09a17.64,17.64,0,0,1,7.08,1.37q3.14,1.38,8.64,4.52a169.12,169.12,0,0,0,31.44,16.9,88,88,0,0,0,32.61,5.89q25.93,0,38.52-10.41t12.57-31.63q0-20.84-13.16-30.85t-40.68-10H969.71q-9,0-14-6.09a22.56,22.56,0,0,1,0-28.1q4.92-5.9,14-5.89h15.71q53.83,0,53.84-40.48,0-18.86-11.4-29.08t-31.43-10.22q-28.7,0-61.31,22.8a95.65,95.65,0,0,1-8.64,4.51,17.29,17.29,0,0,1-7.07,1.38q-6.69,0-11.6-6.09a22.7,22.7,0,0,1-4.91-14.74,21.38,21.38,0,0,1,2.16-10,32,32,0,0,1,6.88-8.45q16.5-13.74,39.49-21.81a141.32,141.32,0,0,1,47-8q40.86,0,65,20t24.16,53.44q-.39,22.8-12,39.89t-32.42,24.95Q1067.94,741.69,1081.11,759.17Z" style="fill:#231f20"/><path d="M1907.28,289.59c0,60.82-405.85,150.94-906.48,150.94h-1.6c-500.63,0-906.48-90.12-906.48-150.94" style="fill:none;stroke:#231f20;stroke-linecap:round;stroke-miterlimit:10;stroke-width:24px"/></svg>