<svg id="Layer_1" data-name="Layer 1" xmlns="http://www.w3.org/2000/svg" viewBox="0 0 2000 808.33"><path d="M1958.31,710,1894,759.24a43.67,43.67,0,0,1-26.58,9.2h-1735a43.61,43.61,0,0,1-26.2-8.92L45.83,714.27" style="fill:#f1f1f2;stroke:#3a3632;stroke-miterlimit:10;stroke-width:16.8836891491864px"/><path d="M1897.76,733.23H102.24c-54.49,0-84.46-35.8-67.5-78.6L261.16,83.46c9.64-24.32,49.26-43.57,88.71-43.57H1650.13c39.45,0,79.07,19.25,88.71,43.57l226.42,571.17C1982.22,697.43,1952.25,733.23,1897.76,733.23Z" style="fill:#f1f1f2;stroke:#3a3632;stroke-miterlimit:10;stroke-width:20px"/><path d="M81.46,675.76,293.53,125.13c7.87-20.46,41-36.71,74.09-36.71H1632.35c33.13,0,66.23,16.25,74.1,36.71l209.86,543" style="fill:none;stroke:#3a3632;stroke-linecap:round;stroke-linejoin:round;stroke-width:10px"/></svg>