<svg id="Layer_1" data-name="Layer 1" xmlns="http://www.w3.org/2000/svg" viewBox="0 0 2000 1540"><path d="M30,1136.38c117,19.41,91.77,1.07,180.91,50.59,41,22.79,76.64,54,114.15,82.22,114.33,86,252.27,132,384.41,185.1,191,76.8,484.49,30.56,575.8-6l0,.07,1.3-.6,0,0c60.06-27.9,124.7-62.63,175-94.25,96.66-60.82,171.87-116.47,254.74-195.26,35.43-33.69,156.81-149.51,67.93-189.77-.92-.42-1.85-.79-2.79-1.13,20.9-15.75,41.46-33.64,57.71-54.6q5.41-7,10.14-14.41c12.94-20.44,22.12-45.39,23.93-69.58.88-11.76-.18-24.35-6.3-34.69a36.74,36.74,0,0,0-11.78-12.2,41.86,41.86,0,0,0-8-4,51,51,0,0,0-5.22-1.65c-1.66-.43-4.1-.4-5.51-1.37.14-3,3.28-5.75,5-8,2.17-2.87,4.27-5.78,6.29-8.76a203.15,203.15,0,0,0,11-18.11c6-11.13,11-23.82,8.25-36.15a37.08,37.08,0,0,0-5.59-13.21,10.18,10.18,0,0,0-3-2.61c-3.87-2.46-7.5-5.2-11.73-7.07a75,75,0,0,0-28.53-6.06c-11.9-.27-23.76,1.81-35.16,5.1-5.79,1.67-11.48,3.67-17.07,5.89-2.37,1-4.42,1.71-6.29,3.42-3.67,3.37-8.13,6-12.19,8.91q-9.4,6.71-18.85,13.35c9.44-19.71,17.28-43.82,13.51-65.89-.84-4.92-1.85-9.74-5.56-13.14a21.5,21.5,0,0,0-5.18-3.51c-7.7-3.74-16.94-3.42-25.18-2a140.7,140.7,0,0,0-20.91,5.28,270.1,270.1,0,0,0-34.39,14.62c-6.5,3.2-13.1,6-19,10.21q-39.37,28.23-79.47,55.43C1445.47,785,1335,852.29,1221.93,914.76a43,43,0,0,0-18.28,19.73l-18.65-.82c19.07-15,24.29-26.21,26.79-39.51,3.31-17.57-2.47-38.35-17.2-48.48C1041,740.15,767.69,674.17,582,689.61c-156.41,13-315.8,93.21-463.33,39.63" style="fill:#fff"/><path d="M1712.58,736.07q4.77-6.06,8.93-12.53c15.28-23.84,43.61-97.47-7.37-95-55.44,2.65-99.07,41-142.83,70.58q-48.57,32.85-98.56,63.54c-66.45,41-134.33,79.6-202.64,117.39q-29.83,16.5-59.91,32.56c-8.2,4.38-16.51,9.94-20.48,18.27" style="fill:#fff;stroke:#231f20;stroke-linecap:round;stroke-miterlimit:10;stroke-width:22.921378575131396px"/><path d="M1820,791c3.71-5.86,6.19-12.3,11.18-17.11a161.53,161.53,0,0,0,13.67-15c10.5-13,26.06-32.58,26.89-49.91,1-20.74-11.41-30.76-30.6-33.45-41-5.76-76.12,14.36-110.66,33.48-66.73,36.92-127.85,83.72-192.27,124.52Q1438.15,896.94,1335,955.39q-47.38,26.91-95.32,52.81a49.27,49.27,0,0,0-21.22,22.42c-4.56,9.68-6.15,20.52-6,31.15a126.52,126.52,0,0,0,5.54,34.42" style="fill:#fff;stroke:#231f20;stroke-linecap:round;stroke-miterlimit:10;stroke-width:26.175073500318433px"/><path d="M1771.11,974.94c20.76-15,39.61-31.78,58.16-49.27,20.41-19.25,109.84-97.61,66.58-126.41-28.23-18.8-67.48-16-98.08-5.2-4.43,1.56-8.8,3.31-13.11,5.2-37.86,16.68-69.05,44.2-103.1,67-39.25,26.29-78.69,52.25-118.64,77.47Q1419,1034.67,1269,1115.53a49.29,49.29,0,0,0-21.22,22.41c-4.55,9.68-6.15,20.53-6,31.15a126.39,126.39,0,0,0,5.53,34.42" style="fill:#fff;stroke:#231f20;stroke-linecap:round;stroke-miterlimit:10;stroke-width:26.175073500318433px"/><path d="M1257.35,1359c-13.25-24.39-25.33-53.75-3.93-77.49,13.48-15,33.17-22.36,51.81-30,96.37-39.52,182.06-107.55,264.86-170q30-22.62,59.5-45.82c9.08-7.09,17.88-14.6,27.78-20.27,17.49-10,34.09-21.93,52-31.44,20.79-11,51.08-26.26,74.86-15.48,88.88,40.26-32.5,156.08-67.93,189.77-82.87,78.79-158.08,134.44-254.74,195.26-50.63,31.86-115.85,66.87-176.28,94.87" style="fill:#fff;stroke:#231f20;stroke-linecap:round;stroke-miterlimit:10;stroke-width:26.175073500318433px"/><path d="M30,1136.38c67.45,8.3,115.19,14.08,180.91,50.59,41,22.79,76.64,54,114.15,82.22,114.32,86,253.13,129.89,384.41,185.1,212.9,89.55,486.07,30.72,575.82-5.94" style="fill:none;stroke:#231f20;stroke-linecap:round;stroke-miterlimit:10;stroke-width:26.175073500318433px"/><path d="M556.79,1083.46c123.58,14.82,302.06-171.32,302.06-171.32s78.18,23.08,107.76,23c35.9-.11,67.68,4.35,103.93,10.13,39.91,6.37,95.39,3.39,114.46-11.59s24.29-26.21,26.79-39.51c3.31-17.57-2.47-38.35-17.2-48.48C1041,740.15,767.69,674.17,582,689.61c-156.41,13-315.8,93.21-463.33,39.63" style="fill:none;stroke:#231f20;stroke-linecap:round;stroke-miterlimit:10;stroke-width:26.175073500318433px"/><path d="M949,1144c-13.23,26.2-26.59,52.62-45,75.49-20.84,25.9-47.75,46.74-66.38,74.26s-42.6,92.58-23.73,119.94" style="fill:none;stroke:#231f20;stroke-linecap:round;stroke-miterlimit:10;stroke-width:15.70504410019106px"/><path d="M1145.86,1089.06c0-113.24-105.12-238.92-234.78-238.92S676.3,975.82,676.3,1089.06s105.11,171.13,234.78,171.13S1145.86,1202.29,1145.86,1089.06Z" style="fill:#cda87a;stroke:#231f20;stroke-miterlimit:10;stroke-width:18.927181995162325px"/><path d="M779.09,1006.52l1.94.44a7.9,7.9,0,0,0,9.5-6.23l1.2-6.31A7.91,7.91,0,0,1,805,990.2h0A7.91,7.91,0,0,0,818.23,986h0a7.91,7.91,0,0,1,13.25-4.22l4.63,4.45a7.9,7.9,0,0,0,11.35-.41l1.33-1.48" style="fill:none;stroke:#231f20;stroke-linecap:round;stroke-miterlimit:10;stroke-width:9.463590997581177px"/><path d="M943.89,1092.94l1.71,1a7.91,7.91,0,0,0,10.95-3.06l3.06-5.64a7.9,7.9,0,0,1,13.9,0h0a7.91,7.91,0,0,0,13.91,0h0a7.9,7.9,0,0,1,13.9,0l3.06,5.64a7.9,7.9,0,0,0,10.94,3.06l1.72-1" style="fill:none;stroke:#231f20;stroke-linecap:round;stroke-miterlimit:10;stroke-width:9.463590997581177px"/><path d="M927,942.91l1.4,1.42a7.9,7.9,0,0,0,11.36-.1l4.43-4.65a7.9,7.9,0,0,1,13.42,3.62h0A7.9,7.9,0,0,0,971,946.82h0a7.9,7.9,0,0,1,13.42,3.63l1.49,6.25a7.91,7.91,0,0,0,9.77,5.8l1.92-.52" style="fill:none;stroke:#231f20;stroke-linecap:round;stroke-miterlimit:10;stroke-width:9.463590997581177px"/><path d="M1052.39,1274.06a423.65,423.65,0,0,0,25.41,133.23" style="fill:none;stroke:#231f20;stroke-linecap:round;stroke-miterlimit:10;stroke-width:15.70504410019106px"/><path d="M1917.42,152.41s-113.35,10.13-167.13,7.59c-76-3.58-409-37.32-500.33-54.29-127.14-23.63-276.8-78.77-406.54-65-107.27,11.37-220,56-320.22,94.5-102.53,39.4-204.63,88.57-287.5,161.92-17.54,15.53-35.78,34.31-39.41,58.49-.9,6-1.4,12.69,2,18.07,4.44,7.07,13.32,12.61,18.78,19.15.54.66,1.11,1.3,1.66,2-1.08.76-2.17,1.52-3.24,2.3C186,418.31,111.56,469.57,149.42,513c14.59,16.74,41.05,14.36,64.75,10-10.2,7.32-20.17,15-29.83,23.06-18,15.1-35.94,33.46-39.88,57.27-2.38,14.38,1.38,32.27,14.71,40.1,8.21,4.82,18,6.1,27.51,6.57,53.15,2.64,105-20.44,154-38.12q25.75-9.29,51.39-19.33c-10.46,7.48-20.68,15.3-30.58,23.59-18,15.1-35.94,33.47-39.88,57.27-2.09,12.67.92,32.07,11.71,40.72,12.43,10,35.8,5.78,49.92,2.64,43.57-9.67,84.9-20.6,127-35.37,44.6-15.65,85.17-31.81,127.65-52.09,44.05-21,98.29-34.59,144.07-51.63,98.36-36.61,201.35-65.31,306.43-65.72,22,1.6,42.25,2.7,59.62,2.92l21.39-24.9c-52.19,71.38-144.15,100.92-228.56,123.26C900.16,624,848.66,627.71,815,656.41c-32.93,28.1-25.63,76.62,12.29,90,67.7,23.82,136.57,8,205.09.61,221.77-24.08,309.41,13.92,521.93-73.09C1648.24,635.45,1722.94,549.45,1970,532Z" style="fill:#fff"/><path d="M1970,532c-247.06,17.5-321.76,103.5-415.68,141.95-212.52,87-300.16,49-521.93,73.09-68.52,7.44-137.39,23.21-205.09-.61-37.92-13.35-45.22-61.87-12.29-90,33.65-28.7,85.15-32.46,125.85-43.23,73.84-19.54,153.46-44.6,207.18-98.35" style="fill:none;stroke:#231f20;stroke-linecap:round;stroke-miterlimit:10;stroke-width:25.599560050235628px"/><path d="M217.05,392.83c-5.45-6.54-14.34-12.08-18.78-19.15-3.38-5.38-2.88-12.05-2-18.07,3.63-24.18,21.87-43,39.41-58.49,82.87-73.35,185-122.52,287.5-161.92C623.43,96.68,736.15,52.07,843.42,40.7c129.74-13.76,279.4,41.38,406.54,65,91.32,17,424.34,50.71,500.33,54.29,53.78,2.54,167.13-7.59,167.13-7.59" style="fill:none;stroke:#231f20;stroke-linecap:round;stroke-miterlimit:10;stroke-width:25.599560050235628px"/><path d="M758.78,151.86c-87.54,33.81-175.51,66.51-262.14,102.62-63,26.25-125.32,54.21-185.86,85.74-32.82,17.1-65.25,35.2-95.31,56.87C186,418.31,111.56,469.57,149.42,513c14.59,16.74,41,14.37,64.73,10" style="fill:none;stroke:#231f20;stroke-linecap:round;stroke-miterlimit:10;stroke-width:26.778299029899866px"/><path d="M786.75,253.62C653.52,305.23,432,395.8,306.65,465.83,264.15,489.58,222,514.51,184.34,546c-18,15.1-35.94,33.46-39.88,57.27-2.38,14.38,1.38,32.27,14.71,40.1,8.21,4.82,18,6.1,27.51,6.57,53.15,2.64,105-20.44,154-38.12q25.72-9.27,51.34-19.3" style="fill:none;stroke:#231f20;stroke-linecap:round;stroke-miterlimit:10;stroke-width:25.599560050235628px"/><path d="M872.25,353.18A3066.6,3066.6,0,0,0,483.84,535.91c-42.5,23.75-84.69,48.68-122.31,80.17-18,15.1-35.94,33.47-39.88,57.27-2.09,12.67.92,32.07,11.71,40.72,12.43,10,35.8,5.78,49.92,2.64,43.57-9.67,84.9-20.6,127-35.37,44.6-15.65,85.17-31.81,127.65-52.09,44.05-21,98.29-34.59,144.07-51.63,116.9-43.51,240.34-75.86,366-62.8" style="fill:none;stroke:#231f20;stroke-linecap:round;stroke-miterlimit:10;stroke-width:25.599560050235628px"/></svg>