<svg id="Layer_1" data-name="Layer 1" xmlns="http://www.w3.org/2000/svg" xmlns:xlink="http://www.w3.org/1999/xlink" viewBox="0 0 2000 1881.91"><defs><linearGradient id="linear-gradient" x1="829.34" y1="92.61" x2="838.23" y2="252.69" gradientUnits="userSpaceOnUse"><stop offset="0" stop-color="#e0e1e2"/><stop offset="1" stop-color="#8d9092"/></linearGradient></defs><path d="M1000.75,1834.09c445.81,0,969.25-237.21,969.25-776,0-126.92-433.95-243.58-969.25-243.58h-1.5C464,814.47,30,931.13,30,1058.05c0,538.83,523.44,776,969.25,776" style="fill:#fff;stroke:#231f20;stroke-miterlimit:10;stroke-width:24px"/><path d="M92.72,1060.67v230.12L353,1620.53H1641l266.28-352.63V1060.67c0,60.82-405.85,150.94-906.48,150.94h-1.6C498.57,1211.61,92.72,1121.49,92.72,1060.67Z" style="fill:#fff"/><path d="M1103.31,1617.9q0,20.83-23.57,20.83H946.91q-24,0-24-20.83,0-20,24-20h40.87V1418.67l-37.72,23.18q-5.52,3.15-9.83,3.15-8.25,0-14-7.08a24.43,24.43,0,0,1-5.7-15.72q0-11.39,10.22-17.68l60.91-37.73q11.79-7.07,22.4-7.07,11,0,17.68,6.68t6.68,18.47v213h41.27Q1103.31,1597.86,1103.31,1617.9Z" style="fill:#231f20"/><path d="M1907.28,1050.67c0,60.82-405.85,150.94-906.48,150.94h-1.6c-500.63,0-906.48-90.12-906.48-150.94" style="fill:none;stroke:#231f20;stroke-linecap:round;stroke-miterlimit:10;stroke-width:24px"/><path d="M890.78,757.31c14,0,40.62-12.47,40.62-42s-28.08-48-40.62-95.22c-12.54,47.21-40.62,65.64-40.62,95.22S876.74,757.31,890.78,757.31Z" style="fill:#ffe700;stroke:#231f20;stroke-miterlimit:10;stroke-width:12px"/><path d="M872.59,1029.42c14,0,40.62-12.46,40.62-42s-28.08-48-40.62-95.23C860,939.37,832,957.8,832,987.38S858.54,1029.42,872.59,1029.42Z" style="fill:#ffe700;stroke:#231f20;stroke-miterlimit:10;stroke-width:12px"/><path d="M791.35,656.78c14,0,40.62-12.46,40.62-42s-28.08-48-40.62-95.23c-12.55,47.22-40.62,65.65-40.62,95.23S777.3,656.78,791.35,656.78Z" style="fill:#ffe700;stroke:#231f20;stroke-miterlimit:10;stroke-width:12px"/><path d="M763.71,909.18c14,0,40.62-12.46,40.62-42s-28.08-48-40.62-95.23c-12.54,47.22-40.62,65.65-40.62,95.23S749.67,909.18,763.71,909.18Z" style="fill:#ffe700;stroke:#231f20;stroke-miterlimit:10;stroke-width:12px"/><path d="M531.79,195.65l1366.79,88.62-6.4,120.86L1052.45,391s-42.63,108-219.51,108S600.17,369.71,600.17,369.71l-98.43-92Z" style="fill:#e0e1e2;stroke:#231f20;stroke-miterlimit:10;stroke-width:9.604658041323546px"/><path d="M1856.65,330l-761.38-31.76s10.54-24.14,8-44.46l753.38,49.54Z" style="fill:#8d9092"/><path d="M604.81,264.17s52.53,110.3,222.77,110.3,263.63-64.28,248.06-130.6" style="fill:#ffe700;stroke:#231f20;stroke-miterlimit:10;stroke-width:9.604658041323546px"/><path d="M433,201.75c6.57-11.6,78.83-105.67,78.83-105.67h111s76.84-45.53,204.9-45.53S1090.2,96.08,1090.2,96.08L1944,50.55l3.16,102.19-852.64,68.64s-58.71,101.19-262.53,101.19-251.86-84-251.86-84H528.86s-1,42.73-48,42.73S426.64,240.47,433,201.75Z" style="fill:#e0e1e2;stroke:#231f20;stroke-miterlimit:10;stroke-width:9.604658041323546px"/><circle cx="478.06" cy="237.28" r="23.68" style="fill:none;stroke:#231f20;stroke-miterlimit:10;stroke-width:8.003881701102955px"/><path d="M634.35,164.44c5-31.48,52.45-79.77,195.46-79.77s191.81,37.7,202.15,67.47S990.07,259.82,846.88,259.82C648.38,259.82,629.36,195.92,634.35,164.44Z" style="stroke:#231f20;stroke-miterlimit:10;stroke-width:9.604658041323546px;fill:url(#linear-gradient)"/><path d="M582.22,193.15s53.38,97.7,247.14,97.7,264.31-102.09,265.11-138.71" style="fill:none;stroke:#231f20;stroke-linecap:round;stroke-miterlimit:10;stroke-width:9.604658041323546px"/></svg>