<svg xmlns="http://www.w3.org/2000/svg" height="1919.94" width="1926.05"  xmlns:v="https://vecta.io/nano"><style><![CDATA[.B{stroke-linejoin:round}.C{opacity:.992}.D{stroke-miterlimit:10}]]></style><path d="M1397.05 555.83c237.8 0 517-126.5 517-413.9 0-67.7-231.45-129.92-517-129.92h-.8c-285.52 0-517 62.22-517 129.92 0 287.4 279.18 413.9 517 413.9" fill="#fff" stroke="#231f20" stroke-width="24" class="D"/><path d="M1393.3 461.6V349q-31.44 24.14-42.32 24.13a12.52 12.52 0 0 1-9.22-4.14 13.38 13.38 0 0 1-4-9.59q0-6.32 4-9.28 4-2.96 14-7.67 15-7.07 23.95-14.85a101.28 101.28 0 0 0 15.9-17.45q6.92-9.64 9-11.88 2.08-2.24 7.92-2.22a12.7 12.7 0 0 1 10.52 5.07q3.94 5.07 4 14V456.8q0 24.87-17 24.87a15.51 15.51 0 0 1-12.12-5.08q-4.64-5.07-4.63-14.97z" fill="#231f20"/><g stroke="#231f20" stroke-width="24"><g fill="none" stroke-linecap="round"><path d="M1880.57 137.98c0 32.44-216.47 80.5-483.5 80.5h-.85c-267 0-483.5-48.07-483.5-80.5" class="D"/><path d="M467.34 670.42V537.95c0-129.1 104.66-233.75 233.76-233.75H834M597.9 539.9L467.34 693.78 336.8 539.9" class="B"/></g><path d="M12 758.56h1900v1149.38H12z" fill="#fff" class="B C"/><path d="M146.88 973.58h1063.37v713.48H146.88z" fill="#a7a9ac" class="B C"/><g fill="#fff" class="B"><path d="M1523 973.58h256.07a33.16 33.16 0 0 1 33.23 33.23v379.22a33.16 33.16 0 0 1-33.23 33.23H1523a33.16 33.16 0 0 1-33.23-33.23V1006.8a33.16 33.16 0 0 1 33.23-33.23zm-13.67 559.05h281.48a23.41 23.41 0 0 1 23.45 23.46v107.5a23.4 23.4 0 0 1-23.45 23.46h-281.48a23.4 23.4 0 0 1-23.46-23.46v-107.5a23.41 23.41 0 0 1 23.46-23.46z" opacity=".99"/><path d="M1360.77 758.56z" class="C"/></g><g fill="none" stroke-linecap="square" class="B"><path d="M1493.4 1085h315.3m-315.3 111.42h315.3m-315.3 111.42h315.3"/><path d="M1597.3 977.47v437.9m107.5-437.9v437.9"/></g></g></svg>