<svg xmlns="http://www.w3.org/2000/svg" height="1924" width="1608.54"  stroke="#231f20" stroke-width="24" xmlns:v="https://vecta.io/nano"><g stroke-linejoin="round"><path d="M1475.66 922.22v876.07a113.46 113.46 0 0 1-113.7 113.71H246.6a113.46 113.46 0 0 1-113.71-113.71V922.22z" opacity="1" fill="#fff"/><path d="M84.38 921.92A72.22 72.22 0 0 0 12 994.29v66.5a72.22 72.22 0 0 0 72.38 72.37h48.5V922.2h39.53l-5.88-.3zm1439.78.01a72.22 72.22 0 0 1 72.38 72.37v66.5a72.22 72.22 0 0 1-72.38 72.36h-48.5V922.22h-39.52l5.88-.3z" opacity="1" fill="none"/><path d="M802.47 181.27c-246.4.44-484.28 103.5-669.6 265.88h1342.78c-185.78-162.8-424.4-265.88-671.4-265.88z" opacity="1" fill="#fff" fill-opacity=".996"/><path d="M964.8 194A161.78 161.78 0 0 0 804.27 12h-1.15a161.78 161.78 0 0 0-159.39 182" opacity="1" fill="none" stroke-linecap="round"/></g><g fill="#fff"><circle r="169.29" cy="1294.11" cx="804.27"/><path d="M804.27 1294.1v-114.68" stroke-miterlimit="10" stroke-linecap="round"/></g><path d="M1145.7 842.04V504.12m120.45 217.48l-120.45 142-120.42-142" fill="none" stroke-linecap="round" stroke-linejoin="round"/></svg>