<svg xmlns="http://www.w3.org/2000/svg" height="1084.45" width="1924.034"  xmlns:v="https://vecta.io/nano"><style><![CDATA[.B{fill:#fff}.C{stroke-linejoin:round}.D{stroke-width:14}.E{stroke-linecap:round}]]></style><g stroke="#231f20" class="C"><g stroke-width="24"><g class="E"><path d="M846.824 132.82h339m-218.2 120.8l-142.4-120.8L967.634 12" fill="none"/><path d="M85.364 741.45l50.14 283.9a71 71 0 0 0 66.88 47.11h1548a71 71 0 0 0 66.87-47.11l50.14-283.9" class="B"/></g><path d="M1895.274 734.14l-305.88-207.3a36.93 36.93 0 0 0-20.2-6H383.514a36.93 36.93 0 0 0-20.2 6l-305.88 207.3a36.94 36.94 0 0 0-16.76 31v8.43a37 37 0 0 0 37 37h1797.36a37 37 0 0 0 37-37v-8.43a36.94 36.94 0 0 0-16.76-31z" class="B"/></g><g class="E B"><path d="M391.054 575.86l27.9 165.6" stroke-width="15.27"/><path d="M1561.654 575.86l-27.9 165.6" class="D"/></g></g><path d="M1664.644 743.75c-42.9-35.12-87.8-71.28-141.76-84-39.6-9.35-80.94-5.28-121.58-7.27-63-3.07-124.7-20.77-187.74-22.58s-132.16 16.37-168.14 68.17c-65.5 16.67-134.1-2.74-199.28-20.6s-135.4-34.13-199.1-11.7c-57.27 20.16-105.22 70.34-165.93 70.64a11.1 11.1 0 0 0-10.45 7.07" fill="#e1c98b" stroke="#010101" stroke-miterlimit="15.1181" class="D"/><g stroke="#231f20" class="C D"><path d="M136.274 745.07h1680.16" class="B E"/><g fill="#d3dadb"><path d="M1298.314 465.2c-11.6 13-31.8 14.7-48.6 10s-9.68-21.3-47.53-38.88c-45.77-21.3-102.2-17.1-145.26 9.25-26.24 16.06-48.22 40.1-77.64 49.05-64.45 19.62-126.68-40.44-194-43.35-70.3-3-130.67 56.3-201 58.3-40 1.14-78.12-16.53-117.85-21.46-91.84-11.4-176.88 45.08-252.17 98.9L67.534 691.9c-26.37 18.85-51.6 50.28-55 82.52-3.83 37.3 13.5 67.32 34.5 78.55 19.46-77.83 141.88-68.35 202.45-59.16s122.6 26.5 182 11.48c30.4-7.7 58.2-23.53 88.28-32.42 87.18-25.76 179 9.15 268.5 25.26a648.64 648.64 0 0 0 227.1.39c12.2-2.15 25.64-5.5 32.37-15.9z"/><path d="M1250.204 389.95c12.3 4.68 57 7.9 55.67 46.12-.46 13.16 1.9 19.94-7.56 29.12l-250.62 317.4c6.9-5.55 7.08-14.4 5.9-23.18-8.18-61.37-64.24-47.18-72.72-49.7z"/></g></g><path d="M1052.244 692.13c-10.73-3-21.56-1.07-24.4-1.9l231.6-285.16c3.6 1.38 11.44 2.56 18.95 5.66zM777.824 521.6c2.8 12-3.3 36.55-9.36 45.33-7 10.07-19.36 17.22-28.9 26s-16.27 21.3-9.4 31.4c-4.9-12.07 10.62-23.48 26.1-28s33.3-6.1 45.26-14.86c16-11.77 15.55-32.25 30.6-44.75 8.1-6.73 19.72-10.28 29.22-15.85s17.22-15.14 12.6-23.57c-3.7-5.22-31.2-1.44-38.1-4.37-23.18-9.85-36.12-24.3-64.25-21.26l15.7 17.8c-5.9-.73-12.13-1.4-17.6.94-20.8 9 4.55 20.6 7.6 29.47q.27.8.48 1.7zm-372.2 22.2c-4.22 10.07-18.06 10.6-27.5 16.07s-14.46 16.13-15.74 26.8.74 21.4 2.75 32c-1.56-17.6 12.2-35.18 29.63-37.9 6.58-1 14-.4 19.13-4.63 2.7-2.2 4.35-5.47 7-7.77 7.83-6.83 19.88-2.5 30.22-3.58a28.18 28.18 0 0 0 21.89-15.14c6-11.9 3-21.52-6.2-25.54-7-3.07-18.56-4.84-26.5-7.7-25.23-9.14-26.72 8.5-34.65 27.42zm-346.3 197.1c6.44-10.4 17.3-17.1 27.75-23.42l80.9-48.9a251 251 0 0 1-55.79 51.08l31.5 12.72c-4.2 4.27-11.1 3.5-17.1 3.36s-13.47 2-14.27 8c-.52 3.87 2.17 7.3 4 10.74s2.6 8.46-.65 10.6c-5.07-3.33-10.3-6.72-16.24-8s-12.83.1-16.56 4.9c-7.54 9.67 3.14 42.28-18.5 29.72-16.76-9.8-13.5-37.15-5.04-50.8zm445.72-37.66a20 20 0 0 0 8.57 16.45 134 134 0 0 0-50.55 41c38.66-17.88 80.24-36.2 122.3-29.46 27.36 4.38 56 19.08 81.18 7.62-5.43-6.87-14.68-9.4-23.38-10.38s-17.72-.87-25.85-4.1-15.33-11.17-14.16-19.86 12.3-13 18.8-7.46c-7.83-8-16.42-15.87-23.3-24.58 9.48-4.68 28.4-14 13.32-19.3-12.64-4.42-31.07 3.76-45 .2-2.17 20.86 1.7 24.25-19.17 33.36-14.06 6.18-28.3 11.67-42.75 16.53zm372.1-55.9c-8.73.84-18.82 6.53-18.1 15.28.63 7.5 9.2 13.08 8.4 20.58-13.22-5-29.7 1.8-35.64 14.6l32 2.86c2.28-5.07 7.35-8.18 12-11.3s9.36-7 10.34-12.5-4.5-11.9-9.6-9.66c3.58-6.25 11.3-8.93 18.47-9.35s14.4.94 21.58.4 14.83-3.5 18.1-9.92c2.73-5.36.05-9.08-2.2-13.6-2.88-5.75-5.86-3.86-7.93-10.9-2.2-7.5 12.15-3.6-.48-8.8-18.18-7.5-36.27 12.7-21.84 28.37-7.58 4.5-16.55 3.1-25.1 3.93zM1063.514 469c-2 2.23-3.84 5.1-3.24 8 1 4.72 7.08 6.1 11.87 5.6s10.14-1.8 14.05 1a79.19 79.19 0 0 1-29.66 21.82c-4.36 1.83-9 3.32-12.65 6.28s-6.27 7.9-4.85 12.42 8.06 6.9 11.18 3.35c4.16-14.64 18.48-25.77 33.7-26.18 7-.2 14.13 1.63 20.85-.28s12.38-10.12 8.33-15.8c-3.12-4.37-10.45-5.1-12-10.25-1-3.23 1.08-6.75 3.93-8.55 2.48-1.57 6-2.27 8.83-2.85-16.75-7.34-36.64-9.64-50.34 5.46zm-566.64 141.33c-5.92 1-11.9-2.28-17.86-1.46-10 1.38-14.75 12.92-17.05 22.77s-5.45 21.45-15 24.8c-13.6 4.76-28.57-11.7-41.7-5.75-4.77 2.16-7.82 6.8-11.5 10.52-17.7 18-47.25 13.72-71.88 8.12 3.1 17.94-16.18 31.42-33.52 37s-37.82 10-46.1 26.2c9.42 2.2 18.76-3.17 27-8.16q16.7-10.05 33.92-19.24c15.44-8.24 32.17-16.15 49.62-14.8 11.4.9 22.05 5.67 32.9 9.22s22.87 5.87 33.55 1.83 18.83-16.47 14.58-27.07c3.2 7.92 31.2-18.42 33.2-20.42 11.54-11.85 20.54-21.55 37.25-25.3 13.2-3 41.26-2.15 40.35-22.37-.76-17-24.1-15.43-33.84-25.54-.13 10.2-.96 27.43-13.92 29.64z" class="B"/></svg>