<svg id="Layer_1" data-name="Layer 1" xmlns="http://www.w3.org/2000/svg" xmlns:xlink="http://www.w3.org/1999/xlink" width="2000" height="2000" viewBox="0 0 2000 2000">
  <defs>
    <radialGradient id="radial-gradient" cx="530.1" cy="1284.46" fx="797.0301882143415" fy="1514.1494484940517" r="352.15" gradientTransform="translate(-664.67 -29.77) rotate(-24.91) scale(1 1.32)" gradientUnits="userSpaceOnUse">
      <stop offset="0.01" stop-color="#e0ffb0"/>
      <stop offset="0.17" stop-color="#d1f6a6"/>
      <stop offset="0.46" stop-color="#a9de8c"/>
      <stop offset="0.87" stop-color="#6ab862"/>
      <stop offset="1" stop-color="#55ab54"/>
    </radialGradient>
  </defs>
  <g>
    <g>
      <g id="layer2">
        <path id="path863" d="M969.81,1903.06c-73.49,76.06-331.87-25.53-574.61-301.25C103.16,1270.09-46.74,763.71,119,670.48c79.31-44.62,186.43-93.09,186.43-93.09S424,547.77,510.1,532.31c180.8-32.45,203.25,381.59,322,782.21C941.68,1683.91,1043.3,1827,969.81,1903.06Z" style="fill: #009b4e"/>
        <path id="path863-2" data-name="path863" d="M969.81,1903.06c-73.49,76.06-331.87-25.53-574.61-301.25C103.16,1270.09-46.74,763.71,119,670.48c79.31-44.62,186.43-93.09,186.43-93.09S424,547.77,510.1,532.31c180.8-32.45,203.25,381.59,322,782.21C941.68,1683.91,1043.3,1827,969.81,1903.06Z" style="fill: none;stroke: #3a3632;stroke-linecap: round;stroke-linejoin: round;stroke-width: 22.1524369263235px;isolation: isolate;opacity: 0.986000001430512"/>
        <path id="path863-3" data-name="path863" d="M969.81,1903.06c-73.49,76.06-331.87-25.53-574.61-301.25C103.16,1270.09-46.74,763.71,119,670.48c79.31-44.62,186.43-93.09,186.43-93.09S424,547.77,510.1,532.31c180.8-32.45,203.25,381.59,322,782.21C941.68,1683.91,1043.3,1827,969.81,1903.06Z" style="fill: none;stroke: #3a3632;stroke-linecap: round;stroke-width: 22.9263402394123px"/>
      </g>
      <g id="layer2-2" data-name="layer2">
        <path id="path863-4" data-name="path863" d="M726.87,1561.24c-11.92,35.44-234.44-48.88-387.58-238.18C155.06,1095.3,46.18,708.8,155.84,640.29,208.32,607.51,279,571.51,279,571.51s72.88,1.64,129.29-10.78c100.23-22.44,130.35,239.8,200.48,519.1C673.4,1337.37,739.85,1522.66,726.87,1561.24Z" style="fill: #55ab54"/>
      </g>
      <path id="path915" d="M340.11,480.32c-36.26-51.87-36.7-231.77-49.66-276.78-12.54-43.54-35.11-59.33-91.31-49.16-53.71,9.87-85.91,30.29-93.69,69.78S222.69,466,219.84,527.42,84.37,630.1,82.47,676.32c18.81-1.62,61.34-6.26,117.88,12.3,64.92-49.1,219.91-101.69,273.46-94.71,0,0,34.33-46.79,74.05-75.59C513.25,477.76,376.36,532.18,340.11,480.32Z" style="fill: #1f8441"/>
    </g>
    <g>
      <g id="layer2-3" data-name="layer2">
        <path id="path863-5" data-name="path863" d="M213.77,744.11c-98.34,60.9.24,406,166.16,609.63C517.85,1523,717.87,1598.66,728.51,1567.06c11.57-34.4-48.48-199.87-107.08-429.81-63.55-249.37-91.14-483.43-181.12-463.62" style="fill: url(#radial-gradient)"/>
      </g>
      <g>
        <path d="M480.48,745.42c2.22-.45,4.56-.9,6.5-1.09s3.54-.35,4.32-.46c5.87-.76,11.15-1.5,15.61-2.45a53.74,53.74,0,0,0,11.38-3.63c6.23-2.87,9.74-6.73,11.49-10.17a18.06,18.06,0,0,0,1.9-6.33,23.21,23.21,0,0,0-.46-6.85,30,30,0,0,0-2.75-7,34.85,34.85,0,0,0-4.89-6.71A59.8,59.8,0,0,0,510.8,690a52.9,52.9,0,0,0-6.65-3.33,40.6,40.6,0,0,0-6.43-1.9,30.83,30.83,0,0,0-6-.49,21.58,21.58,0,0,0-5.25.87,16.36,16.36,0,0,0-7.9,5.22c-3.83,4.56-4,10.28-3.73,16,.16,2.89.49,5.69.7,8.61s.39,5.59.37,8.32c0,9.32-2.27,17.84-5.16,25.61A34.15,34.15,0,0,1,480.48,745.42Z" style="fill: #f4eea2"/>
        <path d="M174.42,834.11a23,23,0,0,0,8.25,4,32.22,32.22,0,0,0,12.68.4,96.16,96.16,0,0,0,12.44-2.82c8.52-2.42,17-4.81,25-6.35,2-.39,4.09-.65,6.06-.93a.75.75,0,0,0,.67-.54c.14-.31.05-.7-.4-1.11a25.11,25.11,0,0,1-3-3.4c-1.52-1.94-3-4-4.28-6-1.18-1.84-2.39-3.88-3.45-5.83-1.25-2.28-2.63-4.65-4-7.1-2.6-4.6-5.58-10-8.83-14.79s-7.29-9.26-13-11.43a17.54,17.54,0,0,0-8.92-.9,23.21,23.21,0,0,0-9.59,3.9,31.6,31.6,0,0,0-2.86,2.24c-.47.4-.92.82-1.37,1.25s-.83.87-1.23,1.32a43.3,43.3,0,0,0-4.39,6,64.45,64.45,0,0,0-3.32,6.59c-.9,2.23-1.64,4.5-2.33,6.76a41.43,41.43,0,0,0-1.24,5.56,33.6,33.6,0,0,0-.55,5.49,25.11,25.11,0,0,0,1.75,10.1A19.43,19.43,0,0,0,174.42,834.11Z" style="fill: #f4eea2"/>
        <path d="M204.39,906.35c7.47-4.91,14.72-10.24,21.71-15.44l5.26-3.91a1.11,1.11,0,0,0,.42-1,1.23,1.23,0,0,0-.79-1.16,28.13,28.13,0,0,1-4.12-2.64c-2.17-1.53-4.31-3.13-6.45-4.77L214.74,873c-2.2-1.75-4.6-3.37-7-4.91a77.64,77.64,0,0,0-15.51-8c-5.51-2-11.32-3-17.17-1.8a21.23,21.23,0,0,0-13.86,9.93,28.51,28.51,0,0,0-3.69,11.19,50,50,0,0,0-.37,6c0,2,.17,4,.37,5.94a38.13,38.13,0,0,0,2,9.38,22.68,22.68,0,0,0,4.65,8c4.27,4.74,10.71,6.82,16.69,6.74C189.44,915.33,197.38,910.88,204.39,906.35Z" style="fill: #f4eea2"/>
        <path d="M193,990c8.48-1.25,15.81-6.67,22.07-12.17,6.79-5.94,13-12.36,19.17-18.79q2.29-2.43,4.53-4.88A1.22,1.22,0,0,0,239,953a1.27,1.27,0,0,0-1-1.07,29.53,29.53,0,0,1-4.55-2.08c-2.41-1.22-4.81-2.51-7.21-3.82l-6.42-3.55a73.15,73.15,0,0,0-7.81-3.65c-10.39-4.22-23-7.54-34-3a21.65,21.65,0,0,0-11.69,12c-2.81,7.06-1.83,15.06.14,22.3,1.58,6,4.29,11.75,9,15.59C180.43,989.67,187.08,990.85,193,990Z" style="fill: #f4eea2"/>
        <path d="M212.86,1062.2c8.32-2,15.14-8.06,20.89-14.14A261.49,261.49,0,0,0,251,1027.41l4-5.37a1.27,1.27,0,0,0,.12-1.18,1.31,1.31,0,0,0-1.06-1,30.12,30.12,0,0,1-4.76-1.65c-2.54-1-5.08-2.05-7.59-3.12l-6.78-2.9a73,73,0,0,0-8.17-2.82c-10.82-3.1-23.74-4.85-34.07,1a21.78,21.78,0,0,0-10.3,13c-2.06,7.21-.26,14.89,2.35,21.8,2.19,5.67,5.34,11.11,10.42,14.42S207,1063.61,212.86,1062.2Z" style="fill: #f4eea2"/>
        <path d="M258.21,1116.7a251.08,251.08,0,0,0,15.61-22q1.81-2.84,3.56-5.69a1.21,1.21,0,0,0,0-1.18,1.31,1.31,0,0,0-1.13-.91,30.38,30.38,0,0,1-4.88-1.29c-2.61-.81-5.21-1.67-7.81-2.54l-7-2.37a71.68,71.68,0,0,0-8.36-2.16c-11.1-2.2-24.06-2.85-33.88,3.8a21.84,21.84,0,0,0-9.2,13.79,25.75,25.75,0,0,0,.29,11,48.76,48.76,0,0,0,3.74,10.45,39.61,39.61,0,0,0,4.7,7.72,23.41,23.41,0,0,0,6.74,5.79c5.42,3,12.16,3.07,17.85,1.24C246.6,1129.72,252.93,1123.2,258.21,1116.7Z" style="fill: #f4eea2"/>
        <path d="M287.52,1183.48c2.58-3.69,5-7.48,7.34-11.32s4.57-7.77,6.71-11.68c1.07-2,2.12-3.94,3.15-5.92a1.33,1.33,0,0,0-.15-1.34,1.23,1.23,0,0,0-.62-.54l-.11,0s-.11,0-.16,0a1.42,1.42,0,0,0-.22,0,31.48,31.48,0,0,1-4.95-1c-2.67-.62-5.32-1.3-8-2l-7.17-1.88a71.45,71.45,0,0,0-8.5-1.57c-11.23-1.41-24.2-1.11-33.52,6.22a21.85,21.85,0,0,0-8.2,14.39,25.63,25.63,0,0,0,1.05,10.87,49.33,49.33,0,0,0,4.45,10.15c3,5.25,6.86,10.13,12.34,12.66s12.32,2.23,17.88,0C276.81,1197.27,282.71,1190.32,287.52,1183.48Z" style="fill: #f4eea2"/>
        <path d="M321.35,1248.07a249.75,249.75,0,0,0,12.42-23.91l2.75-6.12a1.35,1.35,0,0,0-.24-1.33,1.24,1.24,0,0,0-.67-.5l-.1,0h-.16a1.57,1.57,0,0,0-.23,0,30.39,30.39,0,0,1-5-.61c-2.7-.43-5.4-.93-8.1-1.43l-7.27-1.38a70.57,70.57,0,0,0-8.59-1c-11.3-.64-24.21.54-33,8.49a21.85,21.85,0,0,0-7.2,14.93c-.47,7.43,2.94,14.46,6.94,20.61,3.35,5,7.54,9.65,13.21,11.8s12.46,1.36,17.84-1.24C311.64,1262.58,317.05,1255.21,321.35,1248.07Z" style="fill: #f4eea2"/>
        <path d="M359.78,1310a257.48,257.48,0,0,0,10.57-24.74c.78-2.1,1.56-4.21,2.3-6.32a1.22,1.22,0,0,0-.22-1.16,1.3,1.3,0,0,0-1.3-.64,31.35,31.35,0,0,1-5-.21c-2.73-.23-5.47-.51-8.18-.82l-7.35-.83a73.08,73.08,0,0,0-8.64-.34c-11.27.16-24.11,2.29-32.3,10.85a21.8,21.8,0,0,0-6.09,15.43,26.66,26.66,0,0,0,2.59,10.66,53,53,0,0,0,5.9,9.45c3.73,4.79,8.29,9.1,14.12,10.82s12.55.4,17.7-2.61C351.24,1325.16,356.05,1317.4,359.78,1310Z" style="fill: #f4eea2"/>
        <path d="M411.53,1342.7c.6-2.17,1.18-4.33,1.77-6.47a1.27,1.27,0,0,0-.32-1.13,1.3,1.3,0,0,0-1.35-.51,31.47,31.47,0,0,1-5,.25c-2.73,0-5.47,0-8.19-.09l-7.38-.18a73.43,73.43,0,0,0-8.63.41c-11.19,1.1-23.85,4.27-31.29,13.48a21.75,21.75,0,0,0-4.76,15.92,27.21,27.21,0,0,0,3.53,10.47,54.18,54.18,0,0,0,6.77,9c4.17,4.49,9.13,8.4,15.13,9.62,6.16,1.26,12.56-.71,17.42-4.22,6.94-5,11-13.22,14-21A267.54,267.54,0,0,0,411.53,1342.7Z" style="fill: #f4eea2"/>
        <path d="M457.87,1395.33c.36-2.22.7-4.41,1.05-6.59a1.21,1.21,0,0,0-.43-1.09,1.27,1.27,0,0,0-1.39-.36,30.38,30.38,0,0,1-5,.78c-2.71.32-5.43.58-8.14.81l-7.34.61a78.56,78.56,0,0,0-8.52,1.31c-11,2.3-23.31,6.72-29.76,16.65a21.83,21.83,0,0,0-3.05,16.37,27.29,27.29,0,0,0,4.68,10.07,51.44,51.44,0,0,0,7.72,8.23,40,40,0,0,0,7.5,5.28,23.55,23.55,0,0,0,8.59,2.66c6.23.58,12.42-2.11,16.86-6.09,6.37-5.74,9.48-14.31,11.66-22.35C454.69,1412.92,456.39,1404.08,457.87,1395.33Z" style="fill: #f4eea2"/>
        <path d="M510,1436.23a1.26,1.26,0,0,0-.55-1A1.28,1.28,0,0,0,508,1435a31.54,31.54,0,0,1-4.87,1.29c-2.67.6-5.32,1.1-8,1.62l-7.26,1.37a73.4,73.4,0,0,0-8.33,2.18c-10.76,3.45-22.45,9.1-27.85,19.66a21.72,21.72,0,0,0-1.34,16.59c2.3,7.15,8.1,12.57,14.15,16.89a40.77,40.77,0,0,0,8,4.47,23.39,23.39,0,0,0,8.8,1.77c6.25-.06,12.14-3.36,16.15-7.77,5.76-6.35,8-15.18,9.35-23.41,1.46-8.88,2.25-17.87,2.82-26.73C509.75,1440.67,509.88,1438.44,510,1436.23Z" style="fill: #f4eea2"/>
        <path d="M565.66,1478.43a1.26,1.26,0,0,0-.65-1,1.3,1.3,0,0,0-1.44-.07,31.88,31.88,0,0,1-4.7,1.76c-2.59.84-5.21,1.65-7.82,2.42l-7.08,2.08a76.72,76.72,0,0,0-8.08,3c-10.35,4.5-21.44,11.31-25.75,22.35a21.82,21.82,0,0,0,.32,16.64c3,6.86,9.3,11.72,15.78,15.38a38.14,38.14,0,0,0,8.4,3.66,22.76,22.76,0,0,0,9,.88c6.21-.66,11.74-4.54,15.29-9.35,5.09-6.9,6.41-15.9,6.94-24.23.55-9,.46-18,.14-26.87C565.88,1482.87,565.78,1480.64,565.66,1478.43Z" style="fill: #f4eea2"/>
        <path d="M626.05,1521.06q-.49-3.32-1-6.58a1.21,1.21,0,0,0-.74-.9,1.3,1.3,0,0,0-1.43.09,29,29,0,0,1-4.46,2.28c-2.47,1.13-5,2.2-7.48,3.26l-6.8,2.83a75.89,75.89,0,0,0-7.71,3.85c-9.8,5.55-20.14,13.47-23.29,24.9a21.75,21.75,0,0,0,2.1,16.53c3.74,6.55,10.59,10.7,17.49,13.7,5.7,2.44,11.94,4,17.93,2.64,6.16-1.36,11.22-5.86,14.17-11.05,4.23-7.46,4.44-16.56,4-24.89C628.38,1538.76,627.3,1529.81,626.05,1521.06Z" style="fill: #f4eea2"/>
        <path d="M699,1586c-1-2.28-1.94-4.54-2.88-6.74s-1.81-4.36-2.54-6.44a51.44,51.44,0,0,1-3-12.7c-.09-1-.14-2-.14-2.95,0-.49,0-1,0-1.44,0-.24.09-.45,0-.72l-.23-.78-1.81-6.26c-.61-2.09-1.23-4.17-1.83-6.23a1.09,1.09,0,0,0-.8-.74,1.19,1.19,0,0,0-1.32.35,26.69,26.69,0,0,1-3.89,3q-3.27,2.3-6.68,4.44l-6.19,3.85a79.77,79.77,0,0,0-7,4.93c-8.85,6.89-18.15,16-19.72,27.81a21.33,21.33,0,0,0,4.55,16.18c4.83,6,12.59,9.28,20.4,11.2,1.62.38,3.25.71,4.9,1l1.25.15.62.06.31,0c.1,0,.33,0,.49.07,1.4.24,2.79.44,4.13.56a64,64,0,0,0,7.73.24,29.69,29.69,0,0,0,6.74-1,21.39,21.39,0,0,0,2.9-1,18.39,18.39,0,0,0,2.41-1.4,13.07,13.07,0,0,0,3.44-3.44,14,14,0,0,0,2.06-8.65C702.66,1595,700.9,1590.45,699,1586Z" style="fill: #f4eea2"/>
        <path d="M764.6,1551.82a29.36,29.36,0,0,0-4.08-5.71,23.24,23.24,0,0,0-4.56-3.87,18.14,18.14,0,0,0-9.42-2.91c-4.34-.08-8.39,1.34-12.24,2.88s-7.55,3.26-11.07,4.4a34,34,0,0,1-23-.08,39.28,39.28,0,0,1-5.77-2.68l-.45-.25,0,0,.07.05.53.33.2.13a46.26,46.26,0,0,1,4.44,3.23,54,54,0,0,1,6.7,6.52A46.5,46.5,0,0,1,711,1561a77.79,77.79,0,0,1,4.42,8.92c1.24,3,2.35,6,3.4,9.18l1.57,4.75.39,1.21c.15.42.18.66.28,1l.54,1.93c1.58,5.2,4,10.92,9.05,15.56a21.12,21.12,0,0,0,20.52,4.82,25.48,25.48,0,0,0,10.57-6.86,29.8,29.8,0,0,0,6.5-11,53.31,53.31,0,0,0,1.81-8C771.54,1572.52,769.43,1560.39,764.6,1551.82Z" style="fill: #f4eea2"/>
        <path d="M728.9,1465.06c-8.42,1.62-15.51,7.32-21.49,13.17a229.7,229.7,0,0,0-18,20.15q-2.13,2.63-4.18,5.29a1.26,1.26,0,0,0-.15,1.19,1.34,1.34,0,0,0,1,1,31.45,31.45,0,0,1,4.71,1.83c2.52,1.1,5,2.24,7.49,3.39l6.72,3.11a74.7,74.7,0,0,0,8.07,3c10.76,3.38,23.61,5.52,34.1,0a21.89,21.89,0,0,0,10.66-12.77c2.25-7.14.7-14.79-1.67-21.66-2-5.65-4.89-11.08-9.78-14.52S734.77,1463.93,728.9,1465.06Z" style="fill: #f4eea2"/>
        <path d="M708.93,1394c-8.39,1.74-15.42,7.53-21.28,13.5a204.11,204.11,0,0,0-17.52,20.66c-1.36,1.81-2.7,3.63-4,5.48a1.3,1.3,0,0,0-.11,1.21,1.34,1.34,0,0,0,.94,1l.11,0h0a31.35,31.35,0,0,1,4.78,1.76c2.56,1,5.09,2.15,7.63,3.25l6.85,3a69.74,69.74,0,0,0,8.22,2.79c10.92,3,23.84,4.35,34-1.66a22.16,22.16,0,0,0,10.13-13c2-7,.29-14.39-2.21-21.06-2-5.48-5.08-10.74-10-14S714.78,1392.83,708.93,1394Z" style="fill: #f4eea2"/>
        <path d="M688.71,1323.35c-8.4,1.73-15.44,7.5-21.31,13.46a200.09,200.09,0,0,0-17.51,20.71c-1.36,1.82-2.69,3.65-4,5.51a1.35,1.35,0,0,0-.11,1.22,1.38,1.38,0,0,0,1,1l.11,0h0a32.3,32.3,0,0,1,4.8,1.77c2.56,1,5.1,2.16,7.65,3.26l6.87,2.94a67.57,67.57,0,0,0,8.24,2.77c10.94,3,23.87,4.17,34-1.91a22.26,22.26,0,0,0,10.07-13c2-7,.24-14.28-2.25-20.9-2-5.45-5.07-10.67-10-14S694.56,1322.15,688.71,1323.35Z" style="fill: #f4eea2"/>
        <path d="M654.26,1305.22c10.93,3,23.86,4.28,34-1.75a22.29,22.29,0,0,0,10.14-12.9c2-7,.34-14.24-2.1-20.86-2-5.44-5-10.67-9.86-14s-11.68-4.21-17.54-3.06c-8.41,1.65-15.51,7.35-21.43,13.27a196.11,196.11,0,0,0-17.67,20.59q-2.05,2.71-4,5.49a1.37,1.37,0,0,0-.12,1.23,1.38,1.38,0,0,0,.94,1l.11,0h0a30.94,30.94,0,0,1,4.78,1.8c2.56,1.08,5.1,2.2,7.64,3.32l6.85,3A68.25,68.25,0,0,0,654.26,1305.22Z" style="fill: #f4eea2"/>
        <path d="M650,1181.79c-8.43,1.54-15.6,7.14-21.6,13a192.87,192.87,0,0,0-17.91,20.38c-1.4,1.8-2.76,3.61-4.1,5.45a1.59,1.59,0,0,0,.79,2.24l.12,0h0a31.82,31.82,0,0,1,4.77,1.87c2.54,1.11,5.07,2.26,7.59,3.42l6.83,3.07a65.86,65.86,0,0,0,8.19,2.91c10.9,3.17,23.81,4.53,34.05-1.38A22.38,22.38,0,0,0,679,1220c2.1-6.92.5-14.21-1.86-20.84-1.94-5.45-4.83-10.71-9.68-14.09S655.84,1180.71,650,1181.79Z" style="fill: #f4eea2"/>
        <path d="M632.12,1110.72c-8.46,1.38-15.73,6.85-21.83,12.59A192.15,192.15,0,0,0,592,1143.39q-2.13,2.67-4.19,5.4a1.37,1.37,0,0,0-.15,1.23,1.39,1.39,0,0,0,.92,1l.11,0h0a31.41,31.41,0,0,1,4.74,2c2.53,1.16,5,2.35,7.54,3.55,2.26,1.07,4.51,2.16,6.79,3.2a67.48,67.48,0,0,0,8.14,3c10.86,3.32,23.75,4.86,34.07-.91a22.43,22.43,0,0,0,10.46-12.62c2.21-6.86.75-14.14-1.5-20.79-1.83-5.47-4.64-10.76-9.42-14.22S638,1109.75,632.12,1110.72Z" style="fill: #f4eea2"/>
        <path d="M583.65,1084.68c2.24,1.11,4.47,2.22,6.72,3.3a67,67,0,0,0,8.1,3.17c10.78,3.52,23.65,5.3,34.08-.28a22.36,22.36,0,0,0,10.68-12.43c2.33-6.85,1-14.19-1.18-20.92-1.77-5.52-4.5-10.89-9.24-14.43s-11.48-4.73-17.39-3.83c-8.47,1.29-15.81,6.68-22,12.33a197.43,197.43,0,0,0-18.56,19.79c-1.44,1.75-2.87,3.52-4.27,5.31a1.32,1.32,0,0,0-.17,1.22,1.36,1.36,0,0,0,.89,1l.11,0h0a33,33,0,0,1,4.7,2C578.68,1082.21,581.17,1083.45,583.65,1084.68Z" style="fill: #f4eea2"/>
        <path d="M582,1019.37c10.76,3.59,23.61,5.5,34.08,0A22.25,22.25,0,0,0,626.81,1007c2.37-6.87,1-14.27-1.1-21-1.75-5.57-4.48-11-9.23-14.55s-11.5-4.76-17.4-3.86c-8.47,1.29-15.8,6.7-22,12.34a204.78,204.78,0,0,0-18.6,19.69q-2.19,2.61-4.3,5.27a1.35,1.35,0,0,0-.18,1.22,1.4,1.4,0,0,0,.89,1l.11,0h0a32.27,32.27,0,0,1,4.68,2c2.5,1.19,5,2.43,7.46,3.67l6.7,3.32A65.08,65.08,0,0,0,582,1019.37Z" style="fill: #f4eea2"/>
        <path d="M582,895.68c-8.44,1.46-15.66,7-21.74,12.74a215.39,215.39,0,0,0-18.33,19.89q-2.16,2.63-4.24,5.28a1.54,1.54,0,0,0,.72,2.22l.12.05h0a31.93,31.93,0,0,1,4.7,1.94c2.51,1.16,5,2.36,7.49,3.56l6.71,3.25a70.84,70.84,0,0,0,8.09,3.14c10.78,3.49,23.64,5.37,34.08-.19a22.18,22.18,0,0,0,10.69-12.52c2.31-6.93.89-14.39-1.34-21.2-1.83-5.61-4.67-11-9.48-14.57C594.53,895.64,587.89,894.66,582,895.68Z" style="fill: #f4eea2"/>
        <path d="M562.26,824c-8.34,1.92-15.24,7.9-21,13.9a249.67,249.67,0,0,0-17.45,20.53c-1.37,1.78-2.71,3.57-4,5.38a1.28,1.28,0,0,0-.12,1.19,1.3,1.3,0,0,0,1.06,1,31.11,31.11,0,0,1,4.76,1.72c2.54,1,5.06,2.12,7.58,3.22l6.81,3a71,71,0,0,0,8.16,2.86c10.87,3.14,23.78,4.72,34.07-1.13a22,22,0,0,0,10.3-12.92c2.07-7.08.37-14.63-2.19-21.49-2.09-5.64-5.21-11.07-10.23-14.45C574.77,823.25,568.1,822.6,562.26,824Z" style="fill: #f4eea2"/>
        <path d="M516.31,770.14c-5.24,7.23-10.15,14.71-14.83,22.05L498,797.77A1.19,1.19,0,0,0,498,799a1.13,1.13,0,0,0,.6.53l.09,0a.77.77,0,0,0,.15,0,1.42,1.42,0,0,0,.22.07,28.3,28.3,0,0,1,4.84,1.08q3.9,1.05,7.79,2.26l7,2.22a84.13,84.13,0,0,0,8.35,2.07c11.07,2.13,24,2.9,33.88-3.73a21.53,21.53,0,0,0,9.17-14c1.36-7.47-1.14-15.22-4.66-22.17a41.59,41.59,0,0,0-5.19-8.07,24.54,24.54,0,0,0-7.29-6c-5.77-3-12.6-2.69-18.12-.4C526.93,756.33,521.22,763.44,516.31,770.14Z" style="fill: #f4eea2"/>
      </g>
    </g>
  </g>
  <path d="M344.47,1095.64c-59.25-93,67.25-285,211.66-377,42-26.73,90-48.53,140.22-55.64a232.74,232.74,0,0,1,77.79,1.69c27.69,5.49,53,19,80.66,24.42,13.12,2.57,26.3,1.51,56.42-18.21l899.64-611c22.43-15.79,76.34-7.61,103.27,30.95l4,6.25c23.58,40.69,8.23,93-15.55,106.68L968.82,761.24c-30.59,19-37.11,30.47-40.33,43.45-6.78,27.4-5.2,56-11.92,83.43a232.74,232.74,0,0,1-31.31,71.23c-27.64,42.52-67.69,76.88-109.64,103.61-144.41,92-371.89,125.65-431.15,32.68" style="fill: #e6e7e8;stroke: #3a3632;stroke-miterlimit: 10;stroke-width: 20px"/>
</svg>
