<svg id="Layer_1" data-name="Layer 1" xmlns="http://www.w3.org/2000/svg" viewBox="0 0 2000 2000"><g id="layer3"><path id="path916" d="M303.24,769.17,84.88,793.43C-.46,802.92-1,933.77,75.55,961.4l227.69,82.12Zm1393.52,0,218.36,24.26c85.34,9.49,85.93,140.34,9.33,168l-227.69,82.12Zm0-209.44V1649.56a200.05,200.05,0,0,1-200.48,200.49H503.72a200.05,200.05,0,0,1-200.48-200.49V559.73Z" style="fill:#fff;stroke:#33302d;stroke-linecap:round;stroke-linejoin:round;stroke-width:10px"/></g><g id="g864"><path id="path1510" d="M808.44,198.19C556.11,239,327.72,373.6,162,554.64L1537.53,334.52C1323.05,213.93,1063.31,157.41,810.29,197.9Z" style="fill:#fff;fill-opacity:0.995950996875763;stroke:#33302d;stroke-linecap:round;stroke-linejoin:round;stroke-width:10px;isolation:isolate;opacity:0.990000009536743"/><path id="path1507" d="M976.64,183.4C974.92,99.32,898.57,34.54,806.1,38.71a184.08,184.08,0,0,0-20.94,2.14L784,41c-91.43,15.22-154.29,94.68-140.39,177.47A136.58,136.58,0,0,0,647.72,236" style="fill:none;stroke:#33302d;stroke-linecap:round;stroke-linejoin:round;stroke-width:10px;isolation:isolate;opacity:0.990000009536743"/></g><g id="layer5"><line x1="1767.71" y1="205.05" x2="1767.71" y2="409.53" style="fill:none;stroke:#33302d;stroke-linecap:round;stroke-miterlimit:10;stroke-width:20px"/><polyline points="1696.76 274.99 1767.71 192.37 1838.66 274.99" style="fill:none;stroke:#33302d;stroke-linecap:round;stroke-miterlimit:10;stroke-width:20px"/></g></svg>