<svg xmlns="http://www.w3.org/2000/svg" height="1913.14" width="1924"  xmlns:v="https://vecta.io/nano"><rect rx="57.26" height="326.06" width="932.09" y="1575.08" x="979.91" fill="#231f20"/><g stroke="#231f20"><g stroke-width="24"><g stroke-miterlimit="15.1181"><rect rx="57.26" height="1809.19" width="932.09" y="12" x="979.91" fill="#fff"/><g fill="none"><rect rx="9.54" height="641.52" width="68.62" y="724.42" x="1069.91"/><rect rx="9.54" height="400.23" width="68.62" y="148.56" x="1069.91"/></g></g><path d="M528.7 755.87v119.3c0 116.22 94.2 210.44 210.43 210.44H858.8m-212.57-212.2L528.7 734.87 411.17 873.42" fill="none" stroke-linecap="round" stroke-linejoin="round"/><path d="M979.9 641.64H1912" stroke-miterlimit="15.1181" fill="#fff"/></g><g stroke-linejoin="round"><g stroke-width="16.086"><path d="M32.83 488.08L56.2 620.44a33.09 33.09 0 0 0 31.18 22h721.67a33.09 33.09 0 0 0 31.18-22l23.38-132.36" fill="#fff" stroke-linecap="round"/><path d="M876.64 484.67l-142.6-96.65a17.28 17.28 0 0 0-9.41-2.8h-552.8a17.34 17.34 0 0 0-9.42 2.8L19.8 484.67A17.24 17.24 0 0 0 12 499.1v3.93a17.22 17.22 0 0 0 17.23 17.23h838a17.22 17.22 0 0 0 17.23-17.23v-3.93a17.24 17.24 0 0 0-7.82-14.43z" fill="#fff"/></g><g stroke-linecap="round" stroke-width="8.043"><path d="M56.57 489.77h783.3m-664.52-78.9l13 77.2" fill="#fff"/><path d="M721.1 410.88l-13 77.2" fill="#fff"/></g></g></g></svg>