<svg xmlns="http://www.w3.org/2000/svg" height="1880.69" width="1924"  stroke="#231f20" stroke-width="24" xmlns:v="https://vecta.io/nano"><g stroke-miterlimit="10"><path d="M1373.54 558.9c239.1 0 519.87-127.23 519.87-416.24C1893.4 74.57 1660.65 12 1373.54 12h-.8c-287.1 0-519.87 62.57-519.87 130.65 0 289 280.76 416.24 519.87 416.24z" fill="#fff"/><path d="M1859.77 138.7c0 32.62-217.68 81-486.2 81h-.85c-268.52 0-486.2-48.34-486.2-81" fill="none" stroke-linecap="round"/></g><g stroke-linejoin="round"><path d="M761.44 224.67H628.2c-129.83 0-235.07 105.24-235.07 235.06V593.4m237-237.45L784.9 224.67 630.16 93.4" fill="none" stroke-linecap="round"/><path d="M12 719.3h1900V1868.7H12z" opacity=".992" fill="#fff"/><path d="M146.88 934.33h1063.37v713.48H146.88z" opacity=".992" fill="#a7a9ac"/><g fill="#fff"><path d="M1523 934.33h256.07a33.16 33.16 0 0 1 33.23 33.23v379.22a33.16 33.16 0 0 1-33.23 33.23H1523a33.16 33.16 0 0 1-33.23-33.23V967.56a33.16 33.16 0 0 1 33.23-33.23zm-13.67 559.05h281.48a23.41 23.41 0 0 1 23.45 23.46v107.5a23.4 23.4 0 0 1-23.45 23.46h-281.48a23.4 23.4 0 0 1-23.46-23.46v-107.5a23.41 23.41 0 0 1 23.46-23.46z" opacity=".99"/><path d="M1360.77 719.3z" opacity=".992"/></g><g fill="none" stroke-linecap="square"><path d="M1493.4 1045.75h315.3m-315.3 111.42h315.3m-315.3 111.43h315.3"/><path d="M1597.3 938.22v437.9m107.5-437.9v437.9"/></g></g></svg>