<svg id="Layer_1" data-name="Layer 1" xmlns="http://www.w3.org/2000/svg" xmlns:xlink="http://www.w3.org/1999/xlink" viewBox="0 0 2000 2000"><defs><radialGradient id="radial-gradient" cx="543.75" cy="1292.85" fx="828.9365184220821" fy="1538.2451250678062" r="376.23" gradientTransform="translate(-668.07 -25.67) rotate(-24.91) scale(1 1.32)" gradientUnits="userSpaceOnUse"><stop offset="0.01" stop-color="#ffa084"/><stop offset="0.18" stop-color="#fa9179"/><stop offset="0.5" stop-color="#eb695c"/><stop offset="0.94" stop-color="#d52a2e"/><stop offset="1" stop-color="#d12027"/></radialGradient></defs><path id="path915" d="M325.88,443.57C288.4,390,288,204,274.54,157.43c-13-45-36.29-61.33-94.4-50.83-55.53,10.22-88.81,31.32-96.86,72.15s121.21,250,118.26,313.52-140,106.15-142,153.94c19.45-1.68,63.42-6.48,121.88,12.71C248.51,608.16,408.75,553.79,464.1,561c0,0,35.49-48.38,76.56-78.15C504.88,440.93,363.36,497.19,325.88,443.57Z" style="fill:#1f8441"/><g id="layer2"><path id="path863" d="M1044.68,1933.32c-16.9,50.06-444.43-108.62-679-381.92-282.23-328.8-424.39-833.11-262-927.52,77.74-45.18,182.63-94.44,182.63-94.44s115.87-30.52,200-46.65C663,449,681.6,862.1,794.26,1261.08,898.14,1629,1063.08,1878.82,1044.68,1933.32Z" style="fill:#b51521"/><path id="path863-2" data-name="path863" d="M1044.68,1933.32c-16.9,50.06-444.43-108.62-679-381.92-282.23-328.8-424.39-833.11-262-927.52,77.74-45.18,182.63-94.44,182.63-94.44s115.87-30.52,200-46.65C663,449,681.6,862.1,794.26,1261.08,898.14,1629,1063.08,1878.82,1044.68,1933.32Z" style="fill:none;stroke:#3a3632;stroke-linecap:round;stroke-linejoin:round;stroke-width:22.1524369263235px;isolation:isolate;opacity:0.986000001430512"/><path id="path863-3" data-name="path863" d="M1044.68,1933.32c-16.9,50.06-444.43-108.62-679-381.92-282.23-328.8-424.39-833.11-262-927.52,77.74-45.18,182.63-94.44,182.63-94.44s115.87-30.52,200-46.65C663,449,681.6,862.1,794.26,1261.08,898.14,1629,1063.08,1878.82,1044.68,1933.32Z" style="fill:none;stroke:#3a3632;stroke-width:22.9263402394123px"/></g><g id="layer2-2" data-name="layer2"><path id="path863-4" data-name="path863" d="M857,1791.87c-15,44.47-296.47-62-490.57-300.23C132.94,1205.09-5.8,719.38,132.61,633.67c66.23-41,155.44-86,155.44-86s92.13,2.27,163.39-13.17C578.07,506.59,616.9,836,706.34,1187,788.81,1510.57,873.33,1743.46,857,1791.87Z" style="fill:#d12027"/></g><g id="layer2-3" data-name="layer2"><path id="path863-5" data-name="path863" d="M205.79,715.55c-105.06,65.07.26,433.78,177.53,651.31,147.35,180.81,361.05,261.68,372.41,227.92,12.37-36.75-51.79-213.55-114.4-459.2-67.9-266.42-97.37-516.5-193.5-495.32" style="fill:url(#radial-gradient)"/></g><path d="M490.74,717a69.57,69.57,0,0,1,6.95-1.17c2.08-.23,3.78-.37,4.61-.49,6.28-.82,11.91-1.61,16.68-2.63a57.15,57.15,0,0,0,12.16-3.87c6.66-3.06,10.4-7.2,12.27-10.86a19.23,19.23,0,0,0,2-6.77,24.39,24.39,0,0,0-.49-7.32,31.86,31.86,0,0,0-2.94-7.5,37.15,37.15,0,0,0-5.22-7.17,64,64,0,0,0-13.66-11.41,56,56,0,0,0-7.1-3.56,44.16,44.16,0,0,0-6.88-2,32.56,32.56,0,0,0-6.34-.51,22.39,22.39,0,0,0-5.61.92,17.49,17.49,0,0,0-8.44,5.57c-4.1,4.88-4.31,11-4,17.1.17,3.09.53,6.08.75,9.2s.42,6,.39,8.89c0,10-2.42,19.06-5.51,27.36C481.67,719.81,485.94,718,490.74,717Z" style="fill:#f2cf91"/><path d="M163.76,811.7a24.33,24.33,0,0,0,8.81,4.3,34.48,34.48,0,0,0,13.54.43,102.8,102.8,0,0,0,13.29-3c9.11-2.59,18.17-5.14,26.76-6.79,2.16-.41,4.36-.7,6.47-1a.8.8,0,0,0,.72-.58c.14-.33.06-.74-.43-1.18a26.46,26.46,0,0,1-3.19-3.64c-1.63-2.07-3.19-4.29-4.58-6.45-1.26-2-2.55-4.14-3.69-6.23-1.33-2.44-2.8-5-4.3-7.58-2.78-4.92-6-10.7-9.43-15.81s-7.79-9.89-13.84-12.2a18.66,18.66,0,0,0-9.53-1,24.66,24.66,0,0,0-10.24,4.17,34.15,34.15,0,0,0-3.06,2.39c-.5.43-1,.87-1.47,1.33s-.88.94-1.31,1.42a45.78,45.78,0,0,0-4.69,6.36,70,70,0,0,0-3.55,7c-.95,2.39-1.75,4.82-2.48,7.23a44.24,44.24,0,0,0-1.33,5.93,36.13,36.13,0,0,0-.58,5.87,26.7,26.7,0,0,0,1.87,10.79A20.54,20.54,0,0,0,163.76,811.7Z" style="fill:#f2cf91"/><path d="M195.77,888.88c8-5.24,15.73-10.94,23.19-16.49l5.63-4.18a1.16,1.16,0,0,0,.44-1.08,1.28,1.28,0,0,0-.83-1.23,29.67,29.67,0,0,1-4.41-2.83c-2.32-1.63-4.61-3.34-6.89-5.09l-6.07-4.77c-2.36-1.87-4.91-3.59-7.46-5.24a83,83,0,0,0-16.57-8.52c-5.88-2.11-12.09-3.2-18.34-1.92a22.62,22.62,0,0,0-14.8,10.6,30.52,30.52,0,0,0-3.95,12,52.66,52.66,0,0,0-.4,6.41c0,2.13.19,4.26.39,6.35a41.4,41.4,0,0,0,2.14,10,24.51,24.51,0,0,0,5,8.55c4.56,5.06,11.44,7.29,17.83,7.2C179.8,898.48,188.29,893.73,195.77,888.88Z" style="fill:#f2cf91"/><path d="M183.59,978.24c9-1.34,16.89-7.14,23.57-13,7.26-6.34,14-13.2,20.49-20.08,1.63-1.73,3.24-3.46,4.83-5.21a1.32,1.32,0,0,0,.26-1.21,1.38,1.38,0,0,0-1-1.14,31.17,31.17,0,0,1-4.85-2.22c-2.59-1.31-5.15-2.68-7.71-4.08l-6.86-3.8A80.22,80.22,0,0,0,204,923.6c-11.1-4.52-24.61-8.05-36.27-3.15a23,23,0,0,0-12.49,12.77c-3,7.55-1.95,16.09.14,23.82,1.69,6.38,4.59,12.56,9.63,16.66C170.18,977.91,177.28,979.17,183.59,978.24Z" style="fill:#f2cf91"/><path d="M204.82,1055.39c8.89-2.15,16.18-8.61,22.32-15.1a279.24,279.24,0,0,0,18.42-22.07c1.44-1.93,2.86-3.84,4.28-5.73a1.34,1.34,0,0,0,.13-1.26,1.37,1.37,0,0,0-1.13-1.05,33.14,33.14,0,0,1-5.08-1.76c-2.72-1.07-5.43-2.19-8.11-3.34l-7.25-3.1a77.51,77.51,0,0,0-8.73-3c-11.56-3.31-25.36-5.18-36.39,1a23.27,23.27,0,0,0-11,13.94c-2.2,7.7-.28,15.9,2.51,23.29,2.34,6,5.7,11.87,11.13,15.41S198.61,1056.9,204.82,1055.39Z" style="fill:#f2cf91"/><path d="M253.27,1113.62A266.82,266.82,0,0,0,270,1090.16c1.29-2,2.56-4,3.81-6.07a1.39,1.39,0,0,0,0-1.27,1.4,1.4,0,0,0-1.22-1,33.86,33.86,0,0,1-5.2-1.38c-2.79-.87-5.57-1.79-8.35-2.72l-7.5-2.53a77.43,77.43,0,0,0-8.93-2.3c-11.86-2.36-25.7-3-36.2,4.06a23.29,23.29,0,0,0-9.83,14.73,27.64,27.64,0,0,0,.31,11.7,52.49,52.49,0,0,0,4,11.16,42.55,42.55,0,0,0,5,8.24,25,25,0,0,0,7.22,6.2c5.78,3.21,13,3.27,19.06,1.32C240.87,1127.53,247.63,1120.56,253.27,1113.62Z" style="fill:#f2cf91"/><path d="M284.59,1185c2.76-3.94,5.36-8,7.83-12.09s4.89-8.3,7.17-12.47c1.15-2.11,2.28-4.22,3.37-6.33a1.4,1.4,0,0,0-.16-1.43,1.26,1.26,0,0,0-.66-.58L302,1152a1.24,1.24,0,0,0-.18,0,1.55,1.55,0,0,0-.23-.07,33.12,33.12,0,0,1-5.29-1c-2.85-.67-5.69-1.4-8.53-2.13l-7.66-2a74.8,74.8,0,0,0-9.08-1.67c-12-1.52-25.85-1.2-35.81,6.64a23.3,23.3,0,0,0-8.76,15.37,27.38,27.38,0,0,0,1.12,11.62,52,52,0,0,0,4.76,10.83c3.15,5.62,7.32,10.83,13.18,13.54s13.16,2.37,19.1,0C273.15,1199.7,279.44,1192.27,284.59,1185Z" style="fill:#f2cf91"/><path d="M320.73,1254A265.38,265.38,0,0,0,334,1228.43l2.94-6.54a1.42,1.42,0,0,0-.25-1.42,1.27,1.27,0,0,0-.72-.53l-.1,0h-.18a1.55,1.55,0,0,0-.23-.05,33.35,33.35,0,0,1-5.36-.64c-2.89-.47-5.77-1-8.66-1.53l-7.77-1.48a75.67,75.67,0,0,0-9.17-1c-12.07-.69-25.87.57-35.27,9.07a23.35,23.35,0,0,0-7.69,15.94c-.5,7.95,3.14,15.46,7.42,22,3.57,5.38,8.05,10.32,14.11,12.61s13.31,1.45,19.06-1.32C310.35,1269.47,316.13,1261.6,320.73,1254Z" style="fill:#f2cf91"/><path d="M361.79,1320.08a275.34,275.34,0,0,0,11.29-26.43c.83-2.24,1.67-4.5,2.46-6.75a1.3,1.3,0,0,0-.24-1.24,1.36,1.36,0,0,0-1.39-.68,33.37,33.37,0,0,1-5.39-.23c-2.91-.25-5.83-.54-8.73-.88l-7.85-.88a74.67,74.67,0,0,0-9.23-.36c-12,.17-25.76,2.44-34.51,11.59a23.27,23.27,0,0,0-6.51,16.48,28.49,28.49,0,0,0,2.77,11.39,56.92,56.92,0,0,0,6.3,10.1c4,5.11,8.86,9.72,15.08,11.56,6.39,1.9,13.41.43,18.92-2.79C352.66,1336.34,357.8,1328,361.79,1320.08Z" style="fill:#f2cf91"/><path d="M417.08,1355.07q.94-3.48,1.88-6.91a1.29,1.29,0,0,0-.34-1.21,1.37,1.37,0,0,0-1.44-.54,32.34,32.34,0,0,1-5.37.26c-2.92,0-5.84,0-8.75-.09l-7.88-.2a79.32,79.32,0,0,0-9.23.44c-12,1.18-25.47,4.57-33.43,14.4a23.33,23.33,0,0,0-5.09,17,29,29,0,0,0,3.78,11.18,57.73,57.73,0,0,0,7.23,9.58c4.46,4.79,9.76,9,16.17,10.27,6.58,1.34,13.42-.76,18.61-4.51,7.41-5.35,11.72-14.12,15-22.41C411.64,1373.45,414.57,1364.16,417.08,1355.07Z" style="fill:#f2cf91"/><path d="M466.59,1411.3c.37-2.37.75-4.71,1.12-7a1.33,1.33,0,0,0-.46-1.17,1.38,1.38,0,0,0-1.49-.38,32.59,32.59,0,0,1-5.3.84c-2.89.34-5.8.62-8.69.86l-7.85.65a84.72,84.72,0,0,0-9.1,1.4c-11.78,2.46-24.9,7.18-31.8,17.79a23.33,23.33,0,0,0-3.25,17.49,29.11,29.11,0,0,0,5,10.76,55.35,55.35,0,0,0,8.24,8.79,43,43,0,0,0,8,5.64,25.25,25.25,0,0,0,9.17,2.84c6.66.63,13.28-2.25,18-6.51,6.8-6.13,10.13-15.28,12.45-23.87C463.19,1430.1,465,1420.65,466.59,1411.3Z" style="fill:#f2cf91"/><path d="M522.28,1455a1.31,1.31,0,0,0-.59-1.11,1.37,1.37,0,0,0-1.52-.23A32.65,32.65,0,0,1,515,1455c-2.86.64-5.69,1.18-8.56,1.73l-7.76,1.47a77.27,77.27,0,0,0-8.91,2.32c-11.49,3.69-24,9.72-29.75,21a23.19,23.19,0,0,0-1.43,17.72c2.46,7.65,8.65,13.43,15.12,18a43.39,43.39,0,0,0,8.53,4.77,25,25,0,0,0,9.41,1.89c6.68-.06,13-3.58,17.26-8.3,6.15-6.78,8.54-16.22,10-25,1.56-9.49,2.41-19.09,3-28.55Q522.09,1458.54,522.28,1455Z" style="fill:#f2cf91"/><path d="M581.74,1500.08a1.28,1.28,0,0,0-.69-1,1.39,1.39,0,0,0-1.54-.08,33.27,33.27,0,0,1-5,1.88c-2.76.9-5.56,1.77-8.35,2.59l-7.57,2.22a80.55,80.55,0,0,0-8.63,3.21c-11.05,4.8-22.91,12.08-27.51,23.87a23.32,23.32,0,0,0,.34,17.78c3.22,7.33,9.93,12.52,16.86,16.43a40.61,40.61,0,0,0,9,3.91,24.34,24.34,0,0,0,9.56,1c6.63-.72,12.54-4.86,16.34-10,5.43-7.37,6.84-17,7.41-25.9.59-9.58.48-19.22.14-28.7C582,1504.82,581.87,1502.45,581.74,1500.08Z" style="fill:#f2cf91"/><path d="M646.27,1545.63q-.54-3.54-1.06-7a1.28,1.28,0,0,0-.79-.95,1.37,1.37,0,0,0-1.53.1,31.17,31.17,0,0,1-4.77,2.43c-2.63,1.2-5.3,2.35-8,3.48l-7.27,3a79.06,79.06,0,0,0-8.24,4.11c-10.47,5.93-21.52,14.39-24.88,26.6a23.24,23.24,0,0,0,2.24,17.66c4,7,11.32,11.44,18.69,14.64,6.08,2.6,12.75,4.25,19.16,2.82,6.57-1.45,12-6.26,15.13-11.81,4.52-8,4.75-17.69,4.3-26.59C648.75,1564.54,647.6,1555,646.27,1545.63Z" style="fill:#f2cf91"/><path d="M724.21,1615c-1-2.44-2.07-4.85-3.08-7.2s-1.92-4.66-2.71-6.88a54.71,54.71,0,0,1-3.17-13.57c-.1-1.06-.15-2.13-.15-3.15,0-.52,0-1,0-1.54,0-.26.1-.48,0-.77l-.24-.84-1.94-6.68c-.65-2.24-1.31-4.46-2-6.66a1.17,1.17,0,0,0-.85-.78,1.25,1.25,0,0,0-1.42.37,29.42,29.42,0,0,1-4.15,3.21c-2.33,1.64-4.72,3.22-7.14,4.74l-6.62,4.12a90.09,90.09,0,0,0-7.48,5.26c-9.46,7.37-19.39,17.14-21.07,29.71a22.82,22.82,0,0,0,4.86,17.29c5.16,6.46,13.45,9.92,21.8,12,1.72.42,3.47.77,5.23,1l1.33.16.67.07.33,0a4.8,4.8,0,0,1,.52.08c1.5.26,3,.46,4.41.6a70.84,70.84,0,0,0,8.26.25,31.71,31.71,0,0,0,7.2-1.08,22,22,0,0,0,3.1-1.07,18.61,18.61,0,0,0,2.58-1.5,13.8,13.8,0,0,0,3.68-3.67,14.9,14.9,0,0,0,2.19-9.24C728.12,1624.58,726.23,1619.76,724.21,1615Z" style="fill:#f2cf91"/><path d="M794.29,1578.49a30.92,30.92,0,0,0-4.37-6.1,24.73,24.73,0,0,0-4.86-4.14,19.38,19.38,0,0,0-10.06-3.1c-4.65-.09-9,1.43-13.08,3.08s-8.07,3.48-11.83,4.7a36.34,36.34,0,0,1-24.58-.09,41.11,41.11,0,0,1-6.17-2.86l-.48-.27,0,0,.08,0,.56.36.22.14a48.31,48.31,0,0,1,4.74,3.45,57.73,57.73,0,0,1,7.16,7,49.85,49.85,0,0,1,5.47,7.64,84.33,84.33,0,0,1,4.72,9.53c1.33,3.16,2.51,6.44,3.63,9.81q.83,2.5,1.68,5.07l.42,1.3c.15.44.19.7.3,1.06.19.69.38,1.38.58,2.07,1.68,5.55,4.24,11.66,9.66,16.62A22.6,22.6,0,0,0,780,1638.9a27.35,27.35,0,0,0,11.28-7.33,31.83,31.83,0,0,0,7-11.73,55.07,55.07,0,0,0,1.93-8.57C801.71,1600.6,799.44,1587.65,794.29,1578.49Z" style="fill:#f2cf91"/><path d="M756.15,1485.8c-9,1.73-16.57,7.82-23,14.07A246,246,0,0,0,714,1521.4c-1.51,1.87-3,3.75-4.46,5.65a1.37,1.37,0,0,0-.16,1.27,1.42,1.42,0,0,0,1.11,1.1,33.51,33.51,0,0,1,5,2c2.69,1.17,5.34,2.39,8,3.62l7.18,3.32a77.84,77.84,0,0,0,8.62,3.26c11.5,3.61,25.22,5.89,36.43,0a23.35,23.35,0,0,0,11.39-13.65c2.4-7.62.75-15.79-1.78-23.13-2.08-6-5.22-11.84-10.45-15.52S762.41,1484.59,756.15,1485.8Z" style="fill:#f2cf91"/><path d="M734.82,1409.92c-9,1.87-16.48,8-22.75,14.42a221.06,221.06,0,0,0-18.71,22.07q-2.19,2.91-4.29,5.86a1.39,1.39,0,0,0-.12,1.3,1.41,1.41,0,0,0,1,1l.12,0h0a35,35,0,0,1,5.11,1.88c2.73,1.13,5.44,2.3,8.15,3.48l7.32,3.16a73.15,73.15,0,0,0,8.78,3c11.67,3.23,25.47,4.65,36.37-1.77a23.68,23.68,0,0,0,10.83-13.86c2.14-7.5.3-15.37-2.37-22.49-2.2-5.86-5.42-11.48-10.69-15C748.18,1409.41,741.07,1408.63,734.82,1409.92Z" style="fill:#f2cf91"/><path d="M713.2,1334.4c-9,1.85-16.49,8-22.76,14.38a214.67,214.67,0,0,0-18.71,22.12q-2.18,2.92-4.27,5.89a1.41,1.41,0,0,0-.11,1.31,1.45,1.45,0,0,0,1,1.06l.11,0h0a33.17,33.17,0,0,1,5.12,1.89c2.74,1.12,5.46,2.3,8.18,3.48l7.34,3.15a73.3,73.3,0,0,0,8.8,3c11.69,3.18,25.51,4.45,36.35-2A23.76,23.76,0,0,0,745,1374.78c2.12-7.47.27-15.27-2.4-22.34-2.19-5.82-5.41-11.4-10.67-14.92S719.46,1333.12,713.2,1334.4Z" style="fill:#f2cf91"/><path d="M676.4,1315c11.68,3.26,25.49,4.58,36.36-1.86a23.84,23.84,0,0,0,10.83-13.78c2.16-7.44.37-15.22-2.24-22.29-2.14-5.81-5.31-11.4-10.54-14.95s-12.47-4.51-18.74-3.28c-9,1.77-16.56,7.86-22.89,14.18a209.46,209.46,0,0,0-18.87,22c-1.47,1.93-2.9,3.89-4.31,5.86a1.69,1.69,0,0,0,.88,2.39l.12,0h0a32.52,32.52,0,0,1,5.12,1.93c2.72,1.15,5.44,2.35,8.15,3.54l7.33,3.21A71,71,0,0,0,676.4,1315Z" style="fill:#f2cf91"/><path d="M671.81,1183.15c-9,1.65-16.67,7.64-23.08,13.89a208.6,208.6,0,0,0-19.14,21.77q-2.22,2.88-4.38,5.83a1.69,1.69,0,0,0,.86,2.39l.12,0h0a34.84,34.84,0,0,1,5.09,2c2.72,1.18,5.42,2.42,8.12,3.65l7.29,3.29a71.6,71.6,0,0,0,8.75,3.1c11.65,3.39,25.45,4.84,36.39-1.48a23.86,23.86,0,0,0,11-13.65c2.25-7.4.54-15.18-2-22.27-2.07-5.83-5.16-11.45-10.34-15.06S678.09,1182,671.81,1183.15Z" style="fill:#f2cf91"/><path d="M652.75,1107.23c-9,1.48-16.81,7.32-23.32,13.45a203.68,203.68,0,0,0-19.52,21.46c-1.52,1.89-3,3.82-4.48,5.76a1.41,1.41,0,0,0-.15,1.31,1.46,1.46,0,0,0,1,1.11l.12,0h0a34.51,34.51,0,0,1,5.07,2.09c2.7,1.24,5.37,2.52,8,3.8,2.42,1.15,4.83,2.3,7.25,3.41a71.21,71.21,0,0,0,8.71,3.25c11.6,3.55,25.37,5.2,36.4-1A24,24,0,0,0,683,1148.47c2.36-7.33.79-15.11-1.6-22.21-2-5.84-5-11.5-10.07-15.2S659,1106.19,652.75,1107.23Z" style="fill:#f2cf91"/><path d="M601,1079.41c2.39,1.18,4.77,2.37,7.18,3.52a70.36,70.36,0,0,0,8.64,3.39c11.53,3.77,25.28,5.67,36.41-.29a23.89,23.89,0,0,0,11.42-13.29c2.49-7.32,1-15.16-1.26-22.34-1.89-5.9-4.8-11.64-9.87-15.42s-12.27-5-18.58-4.1c-9,1.38-16.89,7.14-23.49,13.18a209.77,209.77,0,0,0-19.82,21.14q-2.33,2.8-4.56,5.67a1.45,1.45,0,0,0-.19,1.31,1.48,1.48,0,0,0,1,1.11l.11,0,0,0a34.42,34.42,0,0,1,5,2.15C595.65,1076.77,598.31,1078.09,601,1079.41Z" style="fill:#f2cf91"/><path d="M599.15,1009.64c11.5,3.83,25.22,5.87,36.41,0a23.78,23.78,0,0,0,11.51-13.24c2.54-7.34,1.11-15.25-1.17-22.48C644,968,641.11,962.19,636,958.37s-12.28-5.09-18.59-4.12c-9.05,1.38-16.88,7.15-23.48,13.18a217.22,217.22,0,0,0-19.88,21c-1.55,1.86-3.08,3.73-4.59,5.63a1.43,1.43,0,0,0-.19,1.3,1.46,1.46,0,0,0,1,1.11l.12,0s0,0,0,0a32.67,32.67,0,0,1,5,2.16c2.67,1.27,5.32,2.59,8,3.92l7.15,3.55A72.67,72.67,0,0,0,599.15,1009.64Z" style="fill:#f2cf91"/><path d="M599.21,877.48c-9,1.56-16.74,7.5-23.24,13.62a231.39,231.39,0,0,0-19.58,21.25q-2.29,2.79-4.53,5.64a1.44,1.44,0,0,0-.18,1.29,1.42,1.42,0,0,0,1,1.08l.12,0h0a34.42,34.42,0,0,1,5,2.08c2.68,1.23,5.33,2.52,8,3.8l7.18,3.47a71.78,71.78,0,0,0,8.64,3.35c11.51,3.74,25.25,5.74,36.41-.2a23.66,23.66,0,0,0,11.41-13.37c2.47-7.4,1-15.38-1.43-22.66-2-6-5-11.79-10.12-15.56C612.59,877.45,605.5,876.4,599.21,877.48Z" style="fill:#f2cf91"/><path d="M578.11,800.85c-8.91,2-16.28,8.44-22.47,14.85A261.77,261.77,0,0,0,537,837.64c-1.47,1.9-2.9,3.81-4.32,5.74a1.34,1.34,0,0,0-.14,1.27,1.43,1.43,0,0,0,1.14,1.07,33.45,33.45,0,0,1,5.08,1.84c2.72,1.1,5.42,2.26,8.1,3.44l7.27,3.18a77.11,77.11,0,0,0,8.73,3.05c11.62,3.35,25.4,5,36.4-1.21a23.48,23.48,0,0,0,11-13.8c2.21-7.57.4-15.64-2.33-23-2.24-6-5.57-11.83-10.93-15.44C591.48,800.11,584.35,799.41,578.11,800.85Z" style="fill:#f2cf91"/><path d="M529,743.36c-5.59,7.73-10.84,15.72-15.85,23.56l-3.76,6a1.44,1.44,0,0,0,.71,1.92l.09.05a1,1,0,0,0,.17,0,1.55,1.55,0,0,0,.23.07,30.7,30.7,0,0,1,5.18,1.15c2.77.75,5.55,1.56,8.31,2.42l7.48,2.37a87.15,87.15,0,0,0,8.91,2.21c11.83,2.28,25.69,3.11,36.2-4a23.06,23.06,0,0,0,9.8-14.91c1.46-8-1.21-16.26-5-23.69a44.56,44.56,0,0,0-5.55-8.63,26,26,0,0,0-7.78-6.39c-6.17-3.22-13.46-2.87-19.36-.43C540.37,728.61,534.27,736.2,529,743.36Z" style="fill:#f2cf91"/><path d="M379.36,1100.92c-59.25-93,67.25-285,211.66-377,42-26.74,90-48.54,140.22-55.65a233,233,0,0,1,77.79,1.7c27.69,5.48,53,19,80.66,24.42,13.12,2.56,26.3,1.51,56.42-18.21l899.65-611c22.42-15.78,76.33-7.6,103.26,31l4,6.26c23.58,40.69,8.23,93-15.55,106.67L1003.71,766.51c-30.59,19-37.11,30.47-40.33,43.46-6.78,27.39-5.2,56-11.92,83.43a232.85,232.85,0,0,1-31.31,71.23c-27.64,42.52-67.69,76.87-109.64,103.61-144.41,92-371.89,125.64-431.15,32.68" style="fill:#e6e7e8;stroke:#3a3632;stroke-miterlimit:10;stroke-width:20px"/></svg>