<svg xmlns="http://www.w3.org/2000/svg" height="1880.69" width="1924"  xmlns:v="https://vecta.io/nano"><style><![CDATA[.B{stroke-linejoin:round}.C{opacity:.992}.D{stroke-miterlimit:10}]]></style><path d="M1373.54 558.9c239.1 0 519.87-127.23 519.87-416.24C1893.4 74.57 1660.65 12 1373.54 12h-.8c-287.1 0-519.87 62.57-519.87 130.65 0 289 280.76 416.24 519.87 416.24" fill="#fff" stroke="#231f20" stroke-width="24" class="D"/><path d="M1369.72 464.17v-113.3q-31.6 24.3-42.55 24.3a12.55 12.55 0 0 1-9.27-4.17 13.42 13.42 0 0 1-4.05-9.64q0-6.35 4-9.34 4-3 14.06-7.7 15.1-7.14 24.1-14.95a102.07 102.07 0 0 0 16-17.55q7-9.7 9.08-11.94 2.08-2.24 8-2.24a12.74 12.74 0 0 1 10.57 5.1q4 5.1 4 14.06v142.47q0 25-17 25a15.65 15.65 0 0 1-12.2-5.1q-4.73-5.1-4.73-15z" fill="#231f20"/><g stroke="#231f20" stroke-width="24"><g fill="none" stroke-linecap="round"><path d="M1859.77 138.7c0 32.62-217.68 81-486.2 81h-.85c-268.52 0-486.2-48.34-486.2-81" class="D"/><path d="M761.44 224.67H628.2c-129.83 0-235.07 105.24-235.07 235.06V593.4m237-237.45L784.9 224.67 630.16 93.4" class="B"/></g><path d="M12 719.3h1900V1868.7H12z" fill="#fff" class="B C"/><path d="M146.88 934.33h1063.37v713.48H146.88z" fill="#a7a9ac" class="B C"/><g fill="#fff" class="B"><path d="M1523 934.33h256.07a33.16 33.16 0 0 1 33.23 33.23v379.22a33.16 33.16 0 0 1-33.23 33.23H1523a33.16 33.16 0 0 1-33.23-33.23V967.56a33.16 33.16 0 0 1 33.23-33.23zm-13.67 559.05h281.48a23.41 23.41 0 0 1 23.45 23.46v107.5a23.4 23.4 0 0 1-23.45 23.46h-281.48a23.4 23.4 0 0 1-23.46-23.46v-107.5a23.41 23.41 0 0 1 23.46-23.46z" opacity=".99"/><path d="M1360.77 719.3z" class="C"/></g><g fill="none" stroke-linecap="square" class="B"><path d="M1493.4 1045.75h315.3m-315.3 111.42h315.3m-315.3 111.43h315.3"/><path d="M1597.3 938.22v437.9m107.5-437.9v437.9"/></g></g></svg>