<svg xmlns="http://www.w3.org/2000/svg" xmlns:xlink="http://www.w3.org/1999/xlink" height="1882.07" width="1924" xmlns:v="https://vecta.io/nano"><style><![CDATA[.B{fill:none}.C{stroke-linecap:round}.D{stroke-width:7.911}.E{stroke-miterlimit:10}.F{stroke:#231f20}.G{fill:#f1decd}.H{fill:#915524}.I{stroke-miterlimit:15.1181}.J{stroke-linejoin:round}]]></style><rect rx="56.32" height="320.7" width="916.76" y="1549.37" x="995.24" fill="#231f20"/><g class="F"><g stroke-width="24"><g class="I"><rect rx="56.32" height="1779.43" width="916.76" y="12" x="995.24" fill="#fff"/><g class="B"><rect rx="9.39" height="630.97" width="67.49" y="712.7" x="1083.77"/><rect rx="9.39" height="393.64" width="67.49" y="146.31" x="1083.77"/></g></g><path d="M614.74 648.73v117.32c0 114.3 92.67 207 207 207H939.4M730.33 764.33l-115.6-136.25-115.6 136.25" class="B C J"/><path d="M995.24 631.28H1912" fill="#fff" class="I"/></g><g fill="#f1f2f2" class="D E"><path d="M1171 542.27l-38.66 25.2a29.29 29.29 0 0 1-16 4.71H73.52a29.36 29.36 0 0 1-15.75-4.56l-36.25-23.16"/><path d="M1134.6 554.17H55.42c-32.75 0-50.77-18.33-40.57-40.23l136.1-292.36c5.8-12.45 29.6-22.3 53.32-22.3h781.5c23.7 0 47.52 9.85 53.32 22.3l136.08 292.36c10.2 21.9-7.82 40.23-40.56 40.23z"/></g><path d="M42.93 524.75L170.4 242.9c4.73-10.48 24.63-18.8 44.54-18.8h760.15c19.9 0 39.8 8.3 44.54 18.8l126.13 278" class="B C D J"/><g class="E D"><g class="G"><path d="M291.24 353.93c51.56 0 93.8-16 107.54-37l15.1-36.04c0-29.85-54.9-54.06-122.6-54.06s-122.6 24.2-122.6 54.06c0 0-1.15-2.6 16.2 36.05 13.7 21 54.8 37 106.38 37z"/><path d="M291.24 221.33c7.26 0 14.72-8.4 21.7-8 7.3.46 13.45 9.73 20.34 10.62 7.32 1 14.84-6.34 21.6-4.93 5.77 1.2 8.9 9.5 14.18 11 5.76 1.64 14.43-3.26 19.53-1.3 5.7 2.2 6.7 10.87 11.48 13.43 5 2.67 12.63 1.42 16.46 4.42 4.66 3.66-.6 11.1 2.15 15.17 3.4 5 9.25 6.47 9.25 12s-7.06 6.78-10.35 11.75c-2.66 4 2.75 10-1.8 13.6-3.74 3-11.37 1.77-16.24 4.42s-2 11.3-7.73 13.52c-5.1 2-15.07-2.86-20.84-1.2-5.3 1.53-8.4 12.63-14.2 13.85-6.82 1.44-15.66-7.2-23.06-6.24-7 .92-13.17 11.6-20.55 12.06-7 .44-14.57-9.34-21.9-9.34s-14.88 9.78-21.92 9.34c-7.37-.47-13.6-11.14-20.55-12.06-7.4-1-16.24 7.68-23.06 6.24-5.8-1.22-8.9-12.32-14.2-13.85-5.77-1.66-15.73 3.2-20.83 1.2-5.73-2.23-3-10.92-7.74-13.52s-12.5-1.44-16.23-4.42c-4.56-3.63.85-9.58-1.8-13.6-3.28-5-10.34-6.36-10.34-11.75s5.86-6.93 9.24-12c2.74-4.06-2.5-11.5 2.15-15.17 3.83-3 11.5-1.75 16.46-4.42 4.78-2.56 4.54-11.23 10.25-13.43 5.1-2 15 2.94 20.76 1.3 5.3-1.5 8.4-9.82 14.18-11 6.76-1.4 14.28 5.9 21.6 4.93 6.9-.9 13-10.16 20.34-10.62 6.97-.43 14.43 8 21.7 8z"/></g><g class="B C"><use xlink:href="#B"/><path d="M389.18 250.08c-20.63-11.8-56.78-19.65-97.94-19.65s-77.32 7.84-97.94 19.65"/></g></g></g><path d="M179.16 277.45c9.76 19.92 56.2 35 112.08 35s102.32-15.1 112.08-35c-24.3-19.42-65.4-32.2-112.08-32.2s-87.8 12.8-112.08 32.2z" class="H"/><g class="D E F"><path d="M405.24 269.65c0 23.65-51 42.82-114 42.82s-114-19.17-114-42.82" class="B C"/><g class="G"><path d="M597.55 353.93c51.56 0 93.82-16 107.54-37l15.07-36.05c0-29.85-54.9-54.06-122.6-54.06s-122.6 24.2-122.6 54.06c0 0-1.15-2.6 16.2 36.05 13.74 21.02 54.85 37 106.4 37z"/><path d="M597.55 221.33c7.27 0 14.72-8.4 21.7-8 7.3.46 13.45 9.73 20.34 10.62 7.32 1 14.84-6.34 21.6-4.93 5.77 1.2 8.9 9.5 14.18 11 5.76 1.64 14.44-3.26 19.53-1.3 5.7 2.2 6.7 10.87 11.48 13.43 5 2.67 12.63 1.42 16.46 4.42 4.66 3.66-.58 11.1 2.15 15.17 3.4 5 9.25 6.47 9.25 12s-7.06 6.78-10.35 11.75c-2.66 4 2.75 10-1.8 13.6-3.74 3-11.37 1.77-16.24 4.42s-2 11.3-7.73 13.52c-5.1 2-15.07-2.86-20.84-1.2-5.3 1.53-8.4 12.63-14.2 13.85-6.82 1.44-15.67-7.2-23.07-6.24-7 .92-13.17 11.6-20.55 12.06-7 .44-14.57-9.34-21.9-9.34s-14.87 9.78-21.92 9.34c-7.37-.47-13.6-11.14-20.54-12.06-7.4-1-16.25 7.68-23.07 6.24-5.8-1.22-8.9-12.32-14.2-13.85-5.78-1.66-15.74 3.2-20.84 1.2-5.73-2.23-3-10.92-7.73-13.52s-12.5-1.44-16.24-4.42c-4.55-3.63.85-9.58-1.8-13.6-3.28-5-10.34-6.36-10.34-11.75s5.86-6.93 9.25-12c2.73-4.06-2.52-11.5 2.15-15.17 3.82-3 11.48-1.75 16.45-4.42 4.78-2.56 4.54-11.23 10.25-13.43 5.1-2 15 2.94 20.76 1.3 5.3-1.5 8.4-9.82 14.2-11 6.75-1.4 14.27 5.9 21.6 4.93 6.9-.9 13-10.16 20.34-10.62 7.03-.43 14.43 8 21.7 8z"/></g><g class="B C"><use xlink:href="#B" x="306.31"/><path d="M695.5 250.08c-20.6-11.8-56.78-19.65-97.94-19.65s-77.32 7.84-97.94 19.65"/></g></g><path d="M485.47 277.45c9.76 19.92 56.2 35 112.08 35s102.33-15.12 112.08-35c-24.3-19.42-65.4-32.2-112.08-32.2s-87.8 12.8-112.08 32.2z" class="H"/><g class="D E F"><path d="M711.55 269.65c0 23.65-51 42.82-114 42.82s-114-19.17-114-42.82" class="B C"/><g class="G"><path d="M903.88 353.93c51.56 0 93.82-16 107.54-37l15.07-36.05c0-29.85-54.9-54.06-122.6-54.06s-122.6 24.2-122.6 54.06c0 0-1.15-2.6 16.2 36.05 13.7 21.02 54.83 37 106.4 37z"/><path d="M903.88 221.33c7.27 0 14.72-8.4 21.7-8 7.3.46 13.44 9.73 20.34 10.62 7.32 1 14.84-6.34 21.6-4.93 5.78 1.2 8.9 9.5 14.2 11 5.75 1.64 14.43-3.26 19.53-1.3 5.7 2.2 6.7 10.87 11.48 13.43 5 2.67 12.63 1.42 16.45 4.42 4.67 3.66-.58 11.1 2.15 15.17 3.4 5 9.25 6.47 9.25 12s-7.06 6.78-10.34 11.75c-2.66 4 2.74 10-1.8 13.6-3.74 3-11.37 1.77-16.24 4.42s-2 11.3-7.73 13.52c-5.1 2-15.07-2.86-20.84-1.2-5.3 1.53-8.4 12.63-14.2 13.85-6.82 1.44-15.67-7.2-23.07-6.24-7 .92-13.17 11.6-20.55 12.06-7 .44-14.57-9.34-21.9-9.34s-14.87 9.78-21.9 9.34c-7.38-.47-13.6-11.14-20.55-12.06-7.4-1-16.25 7.68-23.07 6.24-5.8-1.22-8.9-12.32-14.2-13.85-5.77-1.66-15.74 3.2-20.84 1.2-5.73-2.23-3-10.92-7.73-13.52s-12.5-1.44-16.24-4.42c-4.55-3.63.85-9.58-1.8-13.6-3.28-5-10.34-6.36-10.34-11.75s5.86-6.93 9.25-12c2.73-4.06-2.52-11.5 2.15-15.17 3.82-3 11.48-1.75 16.45-4.42 4.78-2.56 4.54-11.23 10.25-13.43 5.1-2 15 2.94 20.76 1.3 5.3-1.5 8.4-9.82 14.2-11 6.75-1.4 14.27 5.9 21.6 4.93 6.9-.9 13-10.16 20.34-10.62 6.96-.43 14.4 8 21.7 8z"/></g><g class="B C"><use xlink:href="#B" x="612.62"/><path d="M1001.8 250.08c-20.62-11.8-56.78-19.65-97.92-19.65s-77.32 7.84-97.94 19.65"/></g></g><path d="M791.78 277.45c9.76 19.92 56.2 35 112.08 35s102.32-15.1 112.08-35c-24.28-19.42-65.4-32.2-112.08-32.2s-87.8 12.8-112.08 32.2z" class="H"/><g class="D E F"><path d="M1017.88 269.65c0 23.65-51 42.82-114 42.82s-114-19.14-114-42.82" class="B C"/><g class="G"><path d="M240.7 526.64c60.07 0 109.3-18.62 125.3-43.1l17.55-42c0-34.78-63.95-63-142.84-63s-142.8 28.22-142.8 63c0 0-1.34-3 18.87 42 15.96 24.47 63.87 43.1 123.94 43.1z"/><path d="M240.7 372.13c8.47 0 17.15-9.78 25.28-9.28 8.5.53 15.66 11.34 23.7 12.38 8.53 1.1 17.3-7.4 25.16-5.75 6.73 1.4 10.36 11.08 16.53 12.84 6.7 1.9 16.8-3.8 22.75-1.5 6.65 2.56 7.8 12.66 13.37 15.64 5.8 3.1 14.72 1.66 19.18 5.15 5.43 4.26-.68 12.94 2.5 17.68 4 5.86 10.77 7.54 10.77 13.92s-8.22 7.9-12.05 13.7c-3.1 4.7 3.2 11.63-2.1 15.85-4.36 3.48-13.24 2.06-18.92 5.15s-2.33 13.15-9 15.75c-6 2.33-17.56-3.33-24.28-1.4-6.17 1.78-9.8 14.7-16.54 16.13-7.94 1.68-18.25-8.4-26.87-7.27-8.1 1.07-15.34 13.5-23.94 14.05-8.2.5-17-10.9-25.53-10.9s-17.33 11.4-25.53 10.9c-8.6-.55-15.83-13-23.94-14.05-8.62-1.13-18.93 9-26.87 7.27-6.75-1.42-10.36-14.35-16.54-16.13-6.72-1.94-18.33 3.72-24.28 1.4-6.67-2.6-3.45-12.72-9-15.75s-14.56-1.67-18.92-5.15c-5.3-4.22 1-11.16-2.1-15.85-3.83-5.78-12-7.4-12-13.7s6.82-8.06 10.77-13.92c3.2-4.74-2.93-13.42 2.5-17.68 4.46-3.5 13.38-2 19.18-5.15 5.56-3 5.28-13.08 11.93-15.64 5.94-2.3 17.5 3.42 24.2 1.5 6.17-1.76 9.8-11.44 16.53-12.84 7.87-1.64 16.63 6.86 25.16 5.75 8-1 15.2-11.85 23.7-12.38 8.08-.52 16.76 9.28 25.23 9.28z"/></g><path d="M342.08 441.03c-21.35-15.2-58.78-25.28-101.4-25.28s-80 10.08-101.4 25.28m215.52-35.37c-24-13.77-66.15-22.9-114.1-22.9s-90.07 9.12-114.1 22.9" class="B C"/></g><path d="M110.1 437.54c11.38 23.2 65.5 40.8 130.58 40.8s119.2-17.6 130.58-40.8C342.97 414.9 295.08 400 240.7 400S138.4 414.9 110.1 437.54z" class="H"/><g class="D E F"><path d="M373.5 428.46c0 27.55-59.46 49.88-132.8 49.88s-132.8-22.33-132.8-49.88" class="B C"/><g class="G"><path d="M597.55 526.64c60.07 0 109.3-18.62 125.3-43.1l17.55-42c0-34.78-64-63-142.84-63s-142.84 28.2-142.84 63c0 0-1.34-3 18.87 42 16 24.47 63.9 43.1 123.97 43.1z"/><path d="M597.55 372.13c8.46 0 17.15-9.78 25.27-9.28 8.5.53 15.67 11.34 23.7 12.38 8.53 1.1 17.3-7.4 25.16-5.75 6.73 1.4 10.36 11.08 16.52 12.84 6.7 1.9 16.82-3.8 22.76-1.5 6.65 2.56 7.8 12.66 13.37 15.64 5.8 3.1 14.72 1.66 19.17 5.15 5.44 4.26-.68 12.94 2.5 17.68 4 5.86 10.77 7.54 10.77 13.92s-8.22 7.9-12 13.7c-3.1 4.7 3.2 11.63-2.1 15.85-4.36 3.48-13.25 2.06-18.92 5.15s-2.34 13.15-9 15.75c-5.94 2.33-17.55-3.33-24.27-1.4-6.18 1.78-9.8 14.7-16.54 16.13-8 1.68-18.25-8.4-26.87-7.27-8.1 1.07-15.35 13.5-23.94 14.05-8.2.5-17-10.9-25.53-10.9s-17.33 11.4-25.53 10.9c-8.6-.55-15.83-13-23.94-14.05-8.62-1.13-18.93 9-26.87 7.27-6.75-1.42-10.37-14.35-16.54-16.13-6.72-1.94-18.33 3.72-24.28 1.4-6.67-2.6-3.45-12.72-9-15.75s-14.57-1.67-18.92-5.15c-5.3-4.22 1-11.16-2.1-15.85-3.82-5.78-12.05-7.4-12.05-13.7s6.83-8.06 10.78-13.92c3.18-4.74-2.93-13.42 2.5-17.68 4.46-3.5 13.38-2 19.17-5.15 5.57-3 5.3-13.08 11.94-15.64 5.94-2.3 17.5 3.42 24.2 1.5 6.16-1.76 9.8-11.44 16.52-12.84 7.88-1.64 16.64 6.86 25.17 5.75 8-1 15.2-11.85 23.7-12.38 8.07-.52 16.75 9.28 25.22 9.28z"/></g><path d="M698.93 441.03c-21.35-15.2-58.77-25.28-101.38-25.28s-80 10.08-101.4 25.28m215.5-35.37c-24-13.77-66.15-22.9-114.1-22.9s-90.08 9.12-114.1 22.9" class="B C"/></g><path d="M466.97 437.54c11.37 23.2 65.5 40.8 130.58 40.8s119.2-17.6 130.57-40.8C699.83 414.9 651.94 400 597.55 400s-102.3 14.9-130.58 37.53z" class="H"/><g class="D E F"><path d="M730.36 428.46c0 27.55-59.48 49.87-132.8 49.87s-132.8-22.33-132.8-49.88" class="B C"/><g class="G"><path d="M954.4 526.64c60.07 0 109.3-18.62 125.28-43.1l17.56-42c0-34.78-64-63-142.84-63s-142.84 28.2-142.84 63c0 0-1.34-3 18.86 42 16 24.47 63.9 43.1 123.98 43.1z"/><path d="M954.4 372.13c8.46 0 17.15-9.78 25.27-9.28 8.5.53 15.67 11.34 23.7 12.38 8.53 1.1 17.3-7.4 25.16-5.75 6.73 1.4 10.36 11.08 16.52 12.84 6.7 1.9 16.82-3.8 22.76-1.5 6.65 2.56 7.8 12.66 13.37 15.64 5.8 3.1 14.7 1.66 19.17 5.15 5.44 4.26-.68 12.94 2.5 17.68 3.94 5.86 10.77 7.54 10.77 13.92s-8.23 7.9-12 13.7c-3.1 4.7 3.2 11.63-2.1 15.85-4.36 3.48-13.25 2.06-18.92 5.15s-2.34 13.15-9 15.75c-5.94 2.33-17.55-3.33-24.28-1.4-6.17 1.78-9.8 14.7-16.53 16.13-7.95 1.68-18.25-8.4-26.87-7.27-8.1 1.07-15.35 13.5-23.94 14.05-8.2.5-17-10.9-25.53-10.9s-17.4 11.4-25.6 10.9c-8.6-.55-15.84-13-23.94-14.05-8.62-1.13-18.93 9-26.87 7.27-6.75-1.42-10.37-14.35-16.54-16.13-6.73-1.94-18.33 3.72-24.28 1.4-6.67-2.6-3.45-12.72-9-15.75s-14.56-1.67-18.9-5.15c-5.3-4.22 1-11.16-2.1-15.85-3.82-5.78-12.05-7.4-12.05-13.7s6.83-8.06 10.78-13.92c3.18-4.74-2.93-13.42 2.5-17.68 4.46-3.5 13.38-2 19.17-5.15 5.57-3 5.3-13.08 11.94-15.64 5.94-2.3 17.5 3.42 24.2 1.5 6.16-1.76 9.8-11.44 16.52-12.84 7.87-1.64 16.63 6.86 25.16 5.75 8-1 15.2-11.85 23.7-12.38 8.1-.52 16.8 9.28 25.27 9.28z"/></g><path d="M1055.8 441.03c-21.35-15.2-58.78-25.28-101.38-25.28s-80 10.08-101.4 25.28m215.48-35.37c-24-13.77-66.15-22.9-114.1-22.9s-90.08 9.12-114.1 22.9" class="B C"/></g><path d="M823.88 437.54c11.37 23.2 65.5 40.8 130.58 40.8s119.2-17.6 130.57-40.8c-28.3-22.63-76.18-37.53-130.57-37.53s-102.34 14.9-130.58 37.53z" class="H"/><g class="D E F"><path d="M1087.22 428.46c0 27.55-59.46 49.88-132.8 49.88S821.6 456 821.6 428.46" class="B C"/><path d="M250.15 265.33a7.06 7.06 0 0 0-5.52-6.9 7.06 7.06 0 0 0-6-10.8 6.84 6.84 0 0 0-3.14.74v-.16a7.08 7.08 0 0 0-14.16 0v.16a6.79 6.79 0 0 0-3.06-.73 7.06 7.06 0 0 0-6 10.8 7.06 7.06 0 0 0-1 13.45v.5a7.09 7.09 0 0 0 11.61 5.46 7.08 7.08 0 0 0 11.32 0 7.09 7.09 0 0 0 11.64-5.43v-.5a7 7 0 0 0 4.31-6.59zm121.1 9.74a7.06 7.06 0 0 0-5.52-6.9 7.06 7.06 0 0 0-6-10.8 6.92 6.92 0 0 0-3.16.74.43.43 0 0 0 0-.16 7.08 7.08 0 0 0-14.15 0v.16a6.91 6.91 0 0 0-3.15-.74 7.06 7.06 0 0 0-6 10.8 7.06 7.06 0 0 0-1.05 13.45v.5a7.08 7.08 0 0 0 11.66 5.42 7.05 7.05 0 0 0 11.32 0 7.08 7.08 0 0 0 11.64-5.42v-.5a7.05 7.05 0 0 0 4.41-6.55zm-78.37 10.58a7.07 7.07 0 0 0-5.52-6.9 7.06 7.06 0 0 0-9.13-10.05.43.43 0 0 0 0-.16 7.08 7.08 0 0 0-14.16 0v.16a7.06 7.06 0 0 0-9.14 10.05 7.08 7.08 0 0 0-1 13.48v.5a7.07 7.07 0 0 0 11.64 5.41 7 7 0 0 0 11.31 0 7.08 7.08 0 0 0 11.54-5.41v-.5a7.09 7.09 0 0 0 4.46-6.58zm33.27-36.8a7.07 7.07 0 0 0-5.52-6.9 7.06 7.06 0 0 0-9.16-10.05v-.16a7.08 7.08 0 0 0-14.16 0h0v.16a7.07 7.07 0 0 0-9.16 10.05 7.06 7.06 0 0 0-1 13.45v.5a7.06 7.06 0 0 0 11.64 5.43 7.06 7.06 0 0 0 9.88 1.44 6.78 6.78 0 0 0 1.44-1.44 7.06 7.06 0 0 0 11.63-5.42v-.5a7.08 7.08 0 0 0 4.41-6.56zm231.25 16.5a7.06 7.06 0 0 0-5.52-6.9 7.06 7.06 0 0 0-6-10.8 6.91 6.91 0 0 0-3.15.74v-.16a7.08 7.08 0 1 0-14.15 0 .43.43 0 0 0 0 .16 6.79 6.79 0 0 0-3.06-.73 7.08 7.08 0 0 0-7.08 7.06 7 7 0 0 0 1.08 3.74 7.06 7.06 0 0 0-1 13.45v.5a7.09 7.09 0 0 0 11.64 5.43 7 7 0 0 0 9.86 1.44 6.83 6.83 0 0 0 1.45-1.44 7.1 7.1 0 0 0 11.65-5.43v-.5a7.05 7.05 0 0 0 4.28-6.56zm121.1 9.74a7.06 7.06 0 0 0-5.52-6.9 7.07 7.07 0 0 0-6-10.8 6.92 6.92 0 0 0-3.16.74v-.16a7.08 7.08 0 0 0-14.16 0v.16a6.84 6.84 0 0 0-3.14-.74 7.07 7.07 0 0 0-7.08 7 7 7 0 0 0 1.08 3.75 7.06 7.06 0 0 0-1 13.45v.5a7.08 7.08 0 0 0 11.64 5.42 7 7 0 0 0 9.86 1.45 6.87 6.87 0 0 0 1.45-1.45 7.1 7.1 0 0 0 11.65-5.42v-.5a7.05 7.05 0 0 0 4.38-6.5zm-78.34 10.58a7.07 7.07 0 0 0-5.52-6.9 7.06 7.06 0 0 0-9.13-10.05v-.16a7.08 7.08 0 0 0-14.16 0v.16a7.06 7.06 0 0 0-9.15 10.05 7.08 7.08 0 0 0-1 13.48v.5a7.07 7.07 0 0 0 11.68 5.41 7 7 0 0 0 11.31 0 7.08 7.08 0 0 0 11.54-5.41v-.5a7.09 7.09 0 0 0 4.43-6.58zm33.24-36.8a7.06 7.06 0 0 0-5.52-6.9 7.06 7.06 0 0 0-9.16-10.05v-.16a7.08 7.08 0 0 0-14.15 0h0v.16a7.07 7.07 0 0 0-9.16 10.05 7.06 7.06 0 0 0-1 13.45v.5a7.07 7.07 0 0 0 11.64 5.43 7.06 7.06 0 0 0 11.32 0A7.06 7.06 0 0 0 629 255.9v-.5a7.07 7.07 0 0 0 4.4-6.56zm231.25 32.34a7.06 7.06 0 0 0-5.52-6.9 7.07 7.07 0 0 0-6-10.8 6.88 6.88 0 0 0-3.15.74v-.16a7.08 7.08 0 1 0-14.15 0 .43.43 0 0 0 0 .16 7 7 0 0 0-9.07 10.11 7.06 7.06 0 0 0-1 13.45v.52a7.1 7.1 0 0 0 11.65 5.42 7 7 0 0 0 11.31 0 7.09 7.09 0 0 0 11.64-5.42v-.52a7 7 0 0 0 4.29-6.6zm121.1 9.72a7.05 7.05 0 0 0-5.52-6.9 7.06 7.06 0 0 0-6-10.8 7 7 0 0 0-3.16.74.43.43 0 0 0 0-.16 7.08 7.08 0 0 0-14.15 0v.16a6.88 6.88 0 0 0-3.15-.74 7.06 7.06 0 0 0-6 10.8 7.07 7.07 0 0 0-1 13.45v.5a7.09 7.09 0 0 0 11.6 5.38 7 7 0 0 0 9.86 1.45 7.12 7.12 0 0 0 1.45-1.45 7.08 7.08 0 0 0 11.64-5.42v-.5a7 7 0 0 0 4.43-6.51zm-78.34 10.57a7.06 7.06 0 0 0-5.51-6.9 7.06 7.06 0 0 0-9.14-10.05.38.38 0 0 0 0-.15 7.08 7.08 0 1 0-14.15 0v.15a7.06 7.06 0 0 0-9.15 10.05 7.08 7.08 0 0 0-1 13.48v.5a7.08 7.08 0 0 0 11.65 5.41 7 7 0 0 0 9.86 1.45 7.12 7.12 0 0 0 1.45-1.45 7.08 7.08 0 0 0 11.53-5.41v-.5a7.06 7.06 0 0 0 4.46-6.58zm33.24-36.8a7.07 7.07 0 0 0-5.52-6.9 7.06 7.06 0 0 0-9.16-10.05v-.15a7.08 7.08 0 1 0-14.15 0v.17a7.07 7.07 0 0 0-9.16 10.05 7.07 7.07 0 0 0-1 13.46v.5a7.06 7.06 0 0 0 11.67 5.43 7.07 7.07 0 0 0 9.89 1.44 6.78 6.78 0 0 0 1.44-1.44 7.07 7.07 0 0 0 11.63-5.42v-.5a7.07 7.07 0 0 0 4.36-6.59zM194.2 426.84a8.21 8.21 0 0 0-6.41-8 8.2 8.2 0 0 0-6.92-12.51 8 8 0 0 0-3.66.87v-.2a8.22 8.22 0 0 0-16.44 0 .67.67 0 0 0 0 .2 7.84 7.84 0 0 0-3.56-.85 8.2 8.2 0 0 0-7 12.54 8.21 8.21 0 0 0-1.22 15.63v.6a8.24 8.24 0 0 0 13.53 6.3 8.19 8.19 0 0 0 11.46 1.68 8.11 8.11 0 0 0 1.68-1.68 8.25 8.25 0 0 0 13.53-6.3v-.6a8.19 8.19 0 0 0 5.01-7.68zm140.68 11.28a8.21 8.21 0 0 0-6.41-8 8.2 8.2 0 0 0-7-12.55 7.9 7.9 0 0 0-3.67.87v-.2a8.23 8.23 0 0 0-16.45 0v.2a8 8 0 0 0-3.65-.87 8.21 8.21 0 0 0-8.21 8.2 8.08 8.08 0 0 0 1.24 4.35 8.2 8.2 0 0 0-1.22 15.62v.6a8.24 8.24 0 0 0 8.26 8.22 8.33 8.33 0 0 0 5.27-1.92 8.2 8.2 0 0 0 11.49 1.69 8.36 8.36 0 0 0 1.68-1.68 8.24 8.24 0 0 0 13.52-6.3v-.6a8.18 8.18 0 0 0 5.15-7.63zm-91 12.3a8.21 8.21 0 0 0-6.41-8 8.2 8.2 0 0 0-10.59-11.7.54.54 0 0 0 0-.18 8.22 8.22 0 0 0-16.44 0v.18a8.21 8.21 0 0 0-10.63 11.68 8.22 8.22 0 0 0-1.14 15.66v.6a8.22 8.22 0 0 0 13.53 6.29 8.19 8.19 0 0 0 11.46 1.68 8.36 8.36 0 0 0 1.68-1.68 8.23 8.23 0 0 0 13.4-6.29v-.6a8.23 8.23 0 0 0 5.14-7.64zm38.62-42.76a8.22 8.22 0 0 0-6.42-8 8.2 8.2 0 0 0-10.64-11.68v-.18a8.22 8.22 0 1 0-16.44 0h0v.18a8.22 8.22 0 0 0-10.64 11.68 8.21 8.21 0 0 0-1.2 15.63v.6a8.21 8.21 0 0 0 13.56 6.32 8.2 8.2 0 0 0 13.15 0 8.2 8.2 0 0 0 13.51-6.3v-.57a8.23 8.23 0 0 0 5.12-7.67zm268.62 19.18a8.21 8.21 0 0 0-6.41-8 8.2 8.2 0 0 0-7-12.55 8 8 0 0 0-3.66.87v-.2a8.22 8.22 0 1 0-16.44 0 .67.67 0 0 0 0 .2 7.84 7.84 0 0 0-3.56-.85 8.2 8.2 0 0 0-7 12.54 8.21 8.21 0 0 0-1.17 15.62v.6a8.24 8.24 0 0 0 13.53 6.3 8.19 8.19 0 0 0 11.47 1.68 8.11 8.11 0 0 0 1.68-1.68 8.25 8.25 0 0 0 13.53-6.3v-.6a8.19 8.19 0 0 0 5.03-7.63zm140.68 11.28a8.21 8.21 0 0 0-6.41-8 8.2 8.2 0 0 0-7-12.55 7.9 7.9 0 0 0-3.67.87.67.67 0 0 0 0-.2 8.23 8.23 0 0 0-16.45 0v.2a8 8 0 0 0-3.65-.87 8.21 8.21 0 0 0-7 12.55 8.2 8.2 0 0 0-1.22 15.62v.6a8.24 8.24 0 0 0 8.26 8.22 8.33 8.33 0 0 0 5.27-1.92 8.2 8.2 0 0 0 11.52 1.69 8.36 8.36 0 0 0 1.68-1.68 8.24 8.24 0 0 0 13.52-6.3v-.6a8.18 8.18 0 0 0 5.15-7.63zm-91 12.3a8.21 8.21 0 0 0-6.41-8 8.2 8.2 0 0 0-10.61-11.68.54.54 0 0 0 0-.18 8.22 8.22 0 0 0-16.44 0v.18a8.21 8.21 0 0 0-10.63 11.68 8.22 8.22 0 0 0-1.14 15.66v.6a8.22 8.22 0 0 0 13.53 6.29 8.19 8.19 0 0 0 11.46 1.68 8.36 8.36 0 0 0 1.68-1.68 8.23 8.23 0 0 0 13.4-6.29v-.6a8.23 8.23 0 0 0 5.16-7.66zm38.6-42.76a8.22 8.22 0 0 0-6.41-8 8.21 8.21 0 0 0-10.65-11.68v-.18a8.22 8.22 0 1 0-16.44 0h0v.18a8.22 8.22 0 0 0-10.64 11.68 8.21 8.21 0 0 0-1.2 15.63v.6a8.21 8.21 0 0 0 13.56 6.32 8.2 8.2 0 0 0 11.48 1.67 8 8 0 0 0 1.67-1.67 8.2 8.2 0 0 0 13.51-6.3v-.57a8.23 8.23 0 0 0 5.12-7.67zm268.63 35a8.21 8.21 0 0 0-6.41-8 8.21 8.21 0 0 0-7-12.55 8 8 0 0 0-3.66.87v-.2a8.22 8.22 0 1 0-16.44 0 .6.6 0 0 0 0 .19 7.84 7.84 0 0 0-3.56-.85 8.19 8.19 0 0 0-8.18 8.2 8.29 8.29 0 0 0 1.24 4.36 8.21 8.21 0 0 0-1.22 15.64v.6a8.24 8.24 0 0 0 13.53 6.3 8.17 8.17 0 0 0 13.14 0 8.25 8.25 0 0 0 11.61-1 8.34 8.34 0 0 0 1.92-5.28v-.6a8.19 8.19 0 0 0 5.03-7.67zm140.67 11.28a8.21 8.21 0 0 0-6.41-8 8.21 8.21 0 0 0-7-12.55 7.93 7.93 0 0 0-3.67.87.6.6 0 0 0 0-.19 8.22 8.22 0 1 0-16.44 0v.2a8 8 0 0 0-3.66-.87 8.21 8.21 0 0 0-7 12.55 8.21 8.21 0 0 0-1.22 15.63v.6a8.24 8.24 0 0 0 13.53 6.3 8.19 8.19 0 0 0 11.46 1.68 8.36 8.36 0 0 0 1.68-1.68 8.25 8.25 0 0 0 13.53-6.3v-.6a8.21 8.21 0 0 0 5.2-7.63zm-91 12.3a8.21 8.21 0 0 0-6.41-8 8.21 8.21 0 0 0-10.61-11.69.48.48 0 0 0 0-.17 8.22 8.22 0 1 0-16.44 0v.17a8.21 8.21 0 0 0-10.63 11.69 8.22 8.22 0 0 0-1.14 15.65v.6a8.22 8.22 0 0 0 13.53 6.28 8.19 8.19 0 0 0 11.46 1.68 8.36 8.36 0 0 0 1.68-1.68 8.23 8.23 0 0 0 13.4-6.28v-.6a8.23 8.23 0 0 0 5.16-7.65zm38.6-42.76a8.21 8.21 0 0 0-6.41-8 8.21 8.21 0 0 0-10.65-11.69v-.17a8.22 8.22 0 1 0-16.44 0v.2a8.22 8.22 0 0 0-10.64 11.69 8.2 8.2 0 0 0-1.2 15.62v.6a8.21 8.21 0 0 0 13.56 6.32 8.2 8.2 0 0 0 11.48 1.67 8 8 0 0 0 1.67-1.67 8.2 8.2 0 0 0 13.51-6.3v-.6a8.22 8.22 0 0 0 5.12-7.66z" fill="#be202e"/></g><defs ><path id="B" d="M378.26 280.44c-18.32-13.05-50.45-21.7-87-21.7s-68.7 8.65-87 21.7"/></defs></svg>