<svg xmlns="http://www.w3.org/2000/svg" height="1883.07" width="1924.3"  xmlns:v="https://vecta.io/nano"><path d="M1370.4 565.82c238.52 0 518.57-126.9 518.57-415.2 0-67.9-232.17-130.32-518.57-130.32h-.8c-286.4 0-518.56 62.42-518.56 130.32 0 288.3 280 415.2 518.56 415.2" fill="#fff" stroke="#231f20" stroke-width="24" stroke-miterlimit="10"/><path d="M1366.6 471.3V358.35q-31.53 24.2-42.45 24.2a12.52 12.52 0 0 1-9.25-4.16 13.38 13.38 0 0 1-4-9.62q0-6.33 4-9.3 4-2.97 14-7.7 15-7.08 24-14.9a101.85 101.85 0 0 0 15.95-17.5q6.95-9.7 9.06-11.92 2.1-2.23 7.94-2.23a12.68 12.68 0 0 1 10.55 5.09q4 5.1 4 14v142.13q0 25-17 25a15.59 15.59 0 0 1-12.16-5.09q-4.64-5.14-4.64-15.07z" fill="#231f20"/><g stroke="#231f20"><g stroke-width="24"><g fill="none" stroke-linecap="round"><path d="M1855.42 146.7c0 32.54-217.13 80.75-485 80.75h-.85c-267.85 0-485-48.2-485-80.75" stroke-miterlimit="10"/><path d="M759.86 232.45H626.94c-129.5 0-234.47 105-234.47 234.47v133.33M628.9 363.4l154.34-131L628.9 101.55" stroke-linejoin="round"/></g><ellipse ry="105.72" rx="542.29" cy="117.72" cx="1370.01" fill="#fff"/></g><ellipse ry="59.8" rx="356.85" cy="115.64" cx="1370.01" fill="#f1f2f2" stroke-width="14"/><g stroke-width="24" stroke-linejoin="round"><path d="M12 721.7h1900v1149.38H12z" opacity=".992" fill="#fff"/><path d="M146.88 936.7h1063.37v713.48H146.88z" opacity=".992" fill="#a7a9ac"/><g fill="#fff"><path d="M1523 936.7h256.07a33.16 33.16 0 0 1 33.23 33.23v379.22a33.16 33.16 0 0 1-33.23 33.23H1523a33.16 33.16 0 0 1-33.23-33.23v-379.2a33.16 33.16 0 0 1 33.23-33.23zm-13.67 559.06h281.48a23.41 23.41 0 0 1 23.45 23.46v107.5a23.4 23.4 0 0 1-23.45 23.46h-281.48a23.4 23.4 0 0 1-23.46-23.46v-107.5a23.41 23.41 0 0 1 23.46-23.46z" opacity=".99"/><path d="M1360.77 721.7z" opacity=".992"/></g><g fill="none" stroke-linecap="square"><path d="M1493.4 1048.13h315.3m-315.3 111.42h315.3m-315.3 111.42h315.3"/><path d="M1597.3 940.6v437.9m107.5-437.9v437.9"/></g></g></g></svg>