<?xml version="1.0" encoding="UTF-8" standalone="no"?>
<svg
   xmlns:dc="http://purl.org/dc/elements/1.1/"
   xmlns:cc="http://creativecommons.org/ns#"
   xmlns:rdf="http://www.w3.org/1999/02/22-rdf-syntax-ns#"
   xmlns:svg="http://www.w3.org/2000/svg"
   xmlns="http://www.w3.org/2000/svg"
   xmlns:sodipodi="http://sodipodi.sourceforge.net/DTD/sodipodi-0.dtd"
   xmlns:inkscape="http://www.inkscape.org/namespaces/inkscape"
   inkscape:version="1.0beta1 (32d4812, 2019-09-19)"
   sodipodi:docname="remove_bowl_plate_microwave.svg"
   id="svg897"
   version="1.1"
   stroke-width="24"
   stroke="#231f20"
   width="1924"
   height="1880.69">
  <metadata
     id="metadata903">
    <rdf:RDF>
      <cc:Work
         rdf:about="">
        <dc:format>image/svg+xml</dc:format>
        <dc:type
           rdf:resource="http://purl.org/dc/dcmitype/StillImage" />
        <dc:title></dc:title>
      </cc:Work>
    </rdf:RDF>
  </metadata>
  <defs
     id="defs901" />
  <sodipodi:namedview
     inkscape:current-layer="svg897"
     inkscape:window-maximized="0"
     inkscape:window-y="25"
     inkscape:window-x="0"
     inkscape:cy="353.64705"
     inkscape:cx="852.44127"
     inkscape:zoom="0.40906912"
     showgrid="false"
     id="namedview899"
     inkscape:window-height="892"
     inkscape:window-width="1669"
     inkscape:pageshadow="2"
     inkscape:pageopacity="0"
     guidetolerance="10"
     gridtolerance="10"
     objecttolerance="10"
     borderopacity="1"
     inkscape:document-rotation="0"
     bordercolor="#666666"
     pagecolor="#ffffff" />
  <g
     id="g895"
     stroke-linejoin="round">
    <path
       id="path877"
       stroke-linecap="round"
       fill="none"
       d="M761.44 224.67H628.2c-129.83 0-235.07 105.24-235.07 235.06V593.4m237-237.45L784.9 224.67 630.16 93.4" />
    <path
       id="path879"
       fill="#fff"
       opacity=".992"
       d="M12 719.3h1900V1868.7H12z" />
    <path
       id="path881"
       fill="#a7a9ac"
       opacity=".992"
       d="M146.88 934.33h1063.37v713.48H146.88z" />
    <g
       id="g887"
       fill="#fff">
      <path
         id="path883"
         opacity=".99"
         d="M1523 934.33h256.07a33.16 33.16 0 0 1 33.23 33.23v379.22a33.16 33.16 0 0 1-33.23 33.23H1523a33.16 33.16 0 0 1-33.23-33.23V967.56a33.16 33.16 0 0 1 33.23-33.23zm-13.67 559.05h281.48a23.41 23.41 0 0 1 23.45 23.46v107.5a23.4 23.4 0 0 1-23.45 23.46h-281.48a23.4 23.4 0 0 1-23.46-23.46v-107.5a23.41 23.41 0 0 1 23.46-23.46z" />
      <path
         id="path885"
         opacity=".992"
         d="M1360.77 719.3z" />
    </g>
    <g
       id="g893"
       stroke-linecap="square"
       fill="none">
      <path
         id="path889"
         d="M1493.4 1045.75h315.3m-315.3 111.42h315.3m-315.3 111.43h315.3" />
      <path
         id="path891"
         d="M1597.3 938.22v437.9m107.5-437.9v437.9" />
    </g>
  </g>
  <g
     id="g2062"
     transform="matrix(1.0738177,0,0,1.0738177,622.22213,-920.48091)">
    <path
       style="opacity:1;stroke:#231f20;stroke-width:24;stop-opacity:1"
       inkscape:connector-curvature="0"
       d="m 695,1398.3 c 219.57,0 477.37,-116.82 477.37,-382.2 0,-62.5 -213.73,-120 -477.37,-120 h -0.72 c -263.64,0 -477.37,57.46 -477.37,120 0,265.4 257.8,382.2 477.37,382.2"
       fill="#fff"
       stroke-miterlimit="10"
       id="path4467" />
    <ellipse
       style="opacity:1;stroke:#231f20;stop-opacity:1"
       ry="118.26"
       rx="503.17001"
       cy="993.22998"
       cx="694.62"
       fill="#fff"
       stroke-width="24"
       id="ellipse4477" />
    <ellipse
       style="opacity:1;stroke:#231f20;stop-opacity:1"
       ry="66.900002"
       rx="331.10999"
       cy="990.90997"
       cx="694.62"
       fill="#f1f2f2"
       stroke-width="8"
       id="ellipse4479" />
  </g>
</svg>
