<svg id="Layer_1" data-name="Layer 1" xmlns="http://www.w3.org/2000/svg" viewBox="0 0 2000 1413.88"><path d="M1353.47,553.62h534.68A61.85,61.85,0,0,1,1950,615.47h0a61.85,61.85,0,0,1-61.85,61.85H1353.47" style="fill:#fff;stroke:#231f20;stroke-miterlimit:10;stroke-width:24px"/><path d="M712.65,1155.6C407.86,1155.6,50,993.43,50,625c0-142,296.68-257,662.65-257S1375.3,483.08,1375.3,625C1375.31,993.43,1017.44,1155.6,712.65,1155.6Z" style="fill:#fff;stroke:#231f20;stroke-miterlimit:10;stroke-width:24px"/><ellipse cx="712.65" cy="925.14" rx="18.16" ry="18.09" style="fill:#929497"/><ellipse cx="712.65" cy="997.19" rx="18.16" ry="18.09" style="fill:#929497"/><ellipse cx="712.65" cy="1069.23" rx="18.16" ry="18.09" style="fill:#929497"/><path d="M817.35,1049.77c8.41,6,10.89,18.61,5.1,27.86s-17.24,11.26-25.22,4.65a21.75,21.75,0,0,1-4.7-27.54A17.07,17.07,0,0,1,817.35,1049.77Z" style="fill:#929497"/><path d="M852.92,981.88c8.88,5,12.44,17.33,7.53,27.13s-16,13.1-24.66,7.43-11.72-17.62-7.15-26.91S844,976.76,852.92,981.88Z" style="fill:#929497"/><path d="M881.47,910c9.57,3.62,14.42,15.39,10.59,26s-14.64,15.23-23.78,10.6-13.48-16.12-9.89-25.72A17.73,17.73,0,0,1,881.47,910Z" style="fill:#929497"/><path d="M938.56,1037.49c7.11,7,7.72,18.12.91,24.53s-17.8,5.38-24.43-2.27c-6.5-7.5-6.78-18.34-.52-24.12S931.36,1030.42,938.56,1037.49Z" style="fill:#929497"/><path d="M981.29,989.21c7.93,6.21,9.55,17,3.68,24.18s-17.06,7.26-24.5.63-8.84-17.26-3.36-23.92S973.44,983.06,981.29,989.21Z" style="fill:#929497"/><path d="M1018.3,936.42c8.58,5.19,11.68,16,6.44,23.65-5,7.84-16.09,9.21-24.27,3.38s-10.67-16.18-6-23.38C999.27,933,1009.72,931.23,1018.3,936.42Z" style="fill:#929497"/><path d="M1047.34,878.92c9.42,3.43,14.09,13.46,10.38,22.4-4.11,8.61-14.73,11.79-23.61,7.15s-13.14-14.49-9.53-22C1027.7,878.87,1037.91,875.5,1047.34,878.92Z" style="fill:#929497"/><path d="M1096.38,990.58c6.58,7.56,5.89,18.76-1.58,25-7.57,6-18.65,4.45-24.77-3.53s-5.27-19,1.86-24.64C1078.84,981.59,1089.79,983,1096.38,990.58Z" style="fill:#929497"/><path d="M1144.36,942.92c7.62,6.44,8.62,17.82,1.91,25.06a17.34,17.34,0,0,1-25.1-.23c-6.92-7.12-7.61-18.2-1.4-24.59C1125.82,936.63,1136.67,936.4,1144.36,942.92Z" style="fill:#929497"/><path d="M1183.58,887.88c8.72,5,11.91,16.06,6.37,24.33-5.25,8.47-16.71,10.09-24.8,4.2s-10.33-16.4-5.7-23.9C1164.38,885.19,1174.87,882.93,1183.58,887.88Z" style="fill:#929497"/><path d="M1211.69,826.43c9.4,3.18,14.73,13.5,11,22.69a17.28,17.28,0,0,1-23.47,8.89c-9.08-4.26-13.67-14.3-10.23-22.42S1202.1,823.16,1211.69,826.43Z" style="fill:#929497"/><path d="M606.44,1049.77a17.06,17.06,0,0,1,24.81,5,21.73,21.73,0,0,1-4.7,27.54c-8,6.61-19.57,4.69-25.22-4.65S598,1055.79,606.44,1049.77Z" style="fill:#929497"/><path d="M570.87,981.88c9-5.12,19.64-1.58,24.27,7.65s1.47,21.27-7.15,26.91-19.81,2.42-24.65-7.43S562,986.93,570.87,981.88Z" style="fill:#929497"/><path d="M542.31,910a17.73,17.73,0,0,1,23.08,10.9c3.59,9.6-.77,21.11-9.88,25.72s-19.85-.06-23.78-10.6S532.74,913.66,542.31,910Z" style="fill:#929497"/><path d="M485.23,1037.49c7.19-7.07,17.81-7.7,24-1.86s6,16.62-.52,24.12c-6.63,7.65-17.54,8.63-24.42,2.27S478.11,1044.47,485.23,1037.49Z" style="fill:#929497"/><path d="M442.5,989.21c7.85-6.15,18.72-5.79,24.18.89s4.16,17.2-3.37,23.92-18.61,6.52-24.5-.63S434.56,995.42,442.5,989.21Z" style="fill:#929497"/><path d="M405.48,936.42c8.59-5.19,19-3.44,23.86,3.65,4.64,7.2,2.13,17.57-6,23.38s-19.21,4.46-24.27-3.38C393.81,952.37,396.9,941.61,405.48,936.42Z" style="fill:#929497"/><path d="M376.44,878.92c9.43-3.42,19.64,0,22.76,7.54,3.61,7.52-.63,17.38-9.53,22s-19.49,1.46-23.6-7.15C362.35,892.38,367,882.35,376.44,878.92Z" style="fill:#929497"/><path d="M327.4,990.58c6.59-7.57,17.55-9,24.49-3.18,7.14,5.65,7.95,16.7,1.86,24.64s-17.19,9.54-24.77,3.53C321.52,1009.34,320.82,998.14,327.4,990.58Z" style="fill:#929497"/><path d="M279.42,942.92c7.69-6.52,18.55-6.29,24.6.24,6.21,6.39,5.51,17.47-1.4,24.59a17.34,17.34,0,0,1-25.1.23C270.8,960.74,271.81,949.36,279.42,942.92Z" style="fill:#929497"/><path d="M240.2,887.88c8.72-5,19.2-2.69,24.13,4.63,4.63,7.5,2.42,18-5.7,23.9s-19.54,4.27-24.8-4.2C228.29,903.94,231.48,892.83,240.2,887.88Z" style="fill:#929497"/><path d="M212.09,826.43c9.59-3.27,19.38,1,22.75,9.16S233.7,853.75,224.62,858a17.28,17.28,0,0,1-23.47-8.89C197.36,839.93,202.7,829.61,212.09,826.43Z" style="fill:#929497"/><path d="M712.65,457.53a11.79,11.79,0,1,1,12.1-11.79A12,12,0,0,1,712.65,457.53Z" style="fill:#929497"/><path d="M712.65,504.46a11.79,11.79,0,1,1,12.1-11.78A11.95,11.95,0,0,1,712.65,504.46Z" style="fill:#929497"/><path d="M712.65,551.39a11.78,11.78,0,1,1,12.1-11.78A11.94,11.94,0,0,1,712.65,551.39Z" style="fill:#929497"/><path d="M712.65,598.32a11.78,11.78,0,1,1,12.1-11.78A11.94,11.94,0,0,1,712.65,598.32Z" style="fill:#929497"/><path d="M712.65,645.25a11.78,11.78,0,1,1,12.1-11.78A11.94,11.94,0,0,1,712.65,645.25Z" style="fill:#929497"/><path d="M712.65,692.19a11.79,11.79,0,1,1,12.1-11.79A12,12,0,0,1,712.65,692.19Z" style="fill:#929497"/><path d="M712.65,739.12a11.79,11.79,0,1,1,12.1-11.78A11.95,11.95,0,0,1,712.65,739.12Z" style="fill:#929497"/><path d="M712.65,786.05a11.78,11.78,0,1,1,12.1-11.78A11.95,11.95,0,0,1,712.65,786.05Z" style="fill:#929497"/><path d="M799.55,766.43c6.24,2.56,8.91,9.86,6.06,16.36-3.11,6.48-10.5,9.18-16.46,6a12.32,12.32,0,0,1,10.4-22.32Z" style="fill:#929497"/><path d="M816.35,720.35A12.32,12.32,0,1,1,801,728.11,12.19,12.19,0,0,1,816.35,720.35Z" style="fill:#929497"/><path d="M830.58,673.4a12.32,12.32,0,1,1-15,8.45A12.17,12.17,0,0,1,830.58,673.4Z" style="fill:#929497"/><path d="M843.3,626a12.32,12.32,0,1,1-14.8,8.86A12.19,12.19,0,0,1,843.3,626Z" style="fill:#929497"/><path d="M855,578.38a12.32,12.32,0,1,1-14.63,9.14A12.18,12.18,0,0,1,855,578.38Z" style="fill:#929497"/><path d="M866,530.56a12.32,12.32,0,1,1-14.5,9.36A12.19,12.19,0,0,1,866,530.56Z" style="fill:#929497"/><path d="M876.3,482.6a12.32,12.32,0,1,1-14.38,9.54A12.2,12.2,0,0,1,876.3,482.6Z" style="fill:#929497"/><path d="M886.11,434.53a12.32,12.32,0,1,1-14.28,9.69A12.2,12.2,0,0,1,886.11,434.53Z" style="fill:#929497"/><path d="M922.07,763a11.67,11.67,0,1,1-14.66,18.1c-4.85-4.54-5.6-11.72-1.86-16.43S916.6,759.07,922.07,763Z" style="fill:#929497"/><path d="M947,723.87a11.67,11.67,0,1,1-12,20c-5.59-3.58-7.52-10.8-4.28-16.15A12,12,0,0,1,947,723.87Z" style="fill:#929497"/><path d="M968.68,682.82a11.67,11.67,0,1,1-10.59,20.77,12,12,0,0,1-5.43-15.83C955.5,682.1,962.69,679.9,968.68,682.82Z" style="fill:#929497"/><path d="M988.23,640.72A11.67,11.67,0,1,1,978.62,662a11.66,11.66,0,1,1,9.61-21.24Z" style="fill:#929497"/><path d="M1006.18,597.9a11.67,11.67,0,1,1-8.83,21.58,11.67,11.67,0,1,1,8.83-21.58Z" style="fill:#929497"/><path d="M1022.72,554.52a11.66,11.66,0,1,1-8.12,21.85c-6.23-2.38-9.49-9.16-7.25-15.13A12,12,0,0,1,1022.72,554.52Z" style="fill:#929497"/><path d="M1037.8,510.62a11.66,11.66,0,1,1-15.12,7.24C1024.67,511.82,1031.45,508.58,1037.8,510.62Z" style="fill:#929497"/><path d="M1050.88,466.08a11.67,11.67,0,1,1-6.24,22.46c-6.42-1.92-10.14-8.39-8.44-14.46S1044.42,464.44,1050.88,466.08Z" style="fill:#929497"/><path d="M1080.64,720.76a11.72,11.72,0,1,1-16.61-2.27C1069,714.55,1076.43,715.56,1080.64,720.76Z" style="fill:#929497"/><path d="M1115.77,690a11.73,11.73,0,1,1-17.29,15.81c-4.37-5.06-4.11-12.56.6-16.74A12,12,0,0,1,1115.77,690Z" style="fill:#929497"/><path d="M1147.77,656.08a11.73,11.73,0,1,1-15.6,17.49,12.2,12.2,0,0,1-1.16-16.71C1135.16,652.19,1142.69,651.87,1147.77,656.08Z" style="fill:#929497"/><path d="M1175.36,618.47a11.73,11.73,0,1,1-13.27,19.31c-5.36-4-6.75-11.33-3.1-16.37C1162.45,616.26,1169.69,614.88,1175.36,618.47Z" style="fill:#929497"/><path d="M1197.94,577.65a11.74,11.74,0,0,1,5.59,16c-2.87,6.1-10.46,8.12-16.26,4.87a12.21,12.21,0,0,1-5.31-15.84C1184.71,577.1,1191.86,574.85,1197.94,577.65Z" style="fill:#929497"/><path d="M1215,534.21a11.72,11.72,0,1,1-7.82,22.09c-6.15-2.44-9.55-9.21-7.46-15.07S1208.67,532.24,1215,534.21Z" style="fill:#929497"/><path d="M624.24,766.43a12.32,12.32,0,0,1,10.39,22.32c-6,3.22-13.34.52-16.46-6C615.32,776.29,618,769,624.24,766.43Z" style="fill:#929497"/><path d="M607.43,720.35A12.32,12.32,0,1,1,599.88,736,12.26,12.26,0,0,1,607.43,720.35Z" style="fill:#929497"/><path d="M593.2,673.4a12.32,12.32,0,1,1-8.2,15.23A12.27,12.27,0,0,1,593.2,673.4Z" style="fill:#929497"/><path d="M580.48,626a12.32,12.32,0,1,1-8.61,15A12.26,12.26,0,0,1,580.48,626Z" style="fill:#929497"/><path d="M568.77,578.38a12.32,12.32,0,1,1-8.9,14.82A12.25,12.25,0,0,1,568.77,578.38Z" style="fill:#929497"/><path d="M557.82,530.56a12.32,12.32,0,1,1-9.12,14.68A12.24,12.24,0,0,1,557.82,530.56Z" style="fill:#929497"/><path d="M547.48,482.6a12.32,12.32,0,1,1-9.29,14.57A12.24,12.24,0,0,1,547.48,482.6Z" style="fill:#929497"/><path d="M537.67,434.53A12.32,12.32,0,1,1,528.22,449,12.23,12.23,0,0,1,537.67,434.53Z" style="fill:#929497"/><path d="M501.72,763c5.46-3.94,12.73-3,16.51,1.67s3,11.89-1.86,16.43A11.67,11.67,0,1,1,501.72,763Z" style="fill:#929497"/><path d="M476.79,723.87a12,12,0,0,1,16.26,3.84c3.24,5.35,1.31,12.57-4.28,16.15a11.67,11.67,0,1,1-12-20Z" style="fill:#929497"/><path d="M455.11,682.82c6-2.92,13.17-.72,16,4.94a12,12,0,0,1-5.43,15.83,11.67,11.67,0,1,1-10.58-20.77Z" style="fill:#929497"/><path d="M435.56,640.72a11.66,11.66,0,1,1,9.6,21.24,11.66,11.66,0,1,1-9.6-21.24Z" style="fill:#929497"/><path d="M417.61,597.9a11.66,11.66,0,1,1,8.82,21.58,11.67,11.67,0,1,1-8.82-21.58Z" style="fill:#929497"/><path d="M401.07,554.52a11.94,11.94,0,0,1,15.36,6.72c2.24,6-1,12.75-7.24,15.13a11.67,11.67,0,1,1-8.12-21.85Z" style="fill:#929497"/><path d="M386,510.62c6.35-2,13.13,1.2,15.12,7.24A12.11,12.11,0,1,1,386,510.62Z" style="fill:#929497"/><path d="M372.9,466.08c6.46-1.64,13,1.94,14.68,8s-2,12.54-8.44,14.46a11.67,11.67,0,1,1-6.24-22.46Z" style="fill:#929497"/><path d="M343.14,720.76c4.21-5.2,11.65-6.21,16.61-2.27a12.11,12.11,0,1,1-16.61,2.27Z" style="fill:#929497"/><path d="M308,690a12,12,0,0,1,16.7-.93c4.7,4.18,5,11.68.6,16.74A11.73,11.73,0,1,1,308,690Z" style="fill:#929497"/><path d="M276,656.08c5.09-4.21,12.62-3.89,16.76.78a12.2,12.2,0,0,1-1.16,16.71A11.73,11.73,0,1,1,276,656.08Z" style="fill:#929497"/><path d="M248.42,618.47c5.67-3.59,12.91-2.21,16.37,2.94,3.65,5,2.26,12.37-3.1,16.37a11.73,11.73,0,1,1-13.27-19.31Z" style="fill:#929497"/><path d="M225.85,577.65c6.07-2.8,13.23-.55,16,5a12.22,12.22,0,0,1-5.32,15.84c-5.8,3.25-13.39,1.23-16.26-4.87A11.74,11.74,0,0,1,225.85,577.65Z" style="fill:#929497"/><path d="M208.83,534.21c6.28-2,13.22,1.14,15.28,7s-1.31,12.63-7.46,15.07a11.72,11.72,0,1,1-7.82-22.09Z" style="fill:#929497"/><path d="M714.07,683.62c34.85-.49,55.26,15.56,62.88-16.48,6.29-26.49-28.91-46-63.76-45.52s-69.49,21-62.45,47.31C659.26,700.74,679.22,684.12,714.07,683.62Z" style="fill:#302226;stroke:#231f20;stroke-miterlimit:10;stroke-width:7.91666666666667px"/><path d="M618.56,727.54c23.34,25.88,24.74,51.81,53.85,36.42,24.07-12.73,15.54-52.07-7.81-78S603,647.6,587.87,670.23C569.57,697.61,595.22,701.66,618.56,727.54Z" style="fill:#302226;stroke:#231f20;stroke-miterlimit:10;stroke-width:7.91666666666667px"/><path d="M829.3,807.2c30.75,16.39,40.88,40.31,63,15.93,18.31-20.16-3.1-54.25-33.85-70.65s-71-15.16-77.52,11.27C773.05,795.72,798.54,790.8,829.3,807.2Z" style="fill:#302226;stroke:#231f20;stroke-miterlimit:10;stroke-width:7.91666666666667px"/><path d="M762,748.23c34.18-6.84,57.18,5.22,58.82-27.67,1.37-27.2-36.81-40-71-33.13s-64.5,33.31-52.78,57.89C711.23,775,727.82,755.06,762,748.23Z" style="fill:#302226;stroke:#231f20;stroke-miterlimit:10;stroke-width:7.91666666666667px"/><path d="M492.21,789.62c31.13-15.66,56.51-10.14,49.37-42.29-5.91-26.58-46.1-28.76-77.24-13.1S411,783.47,428.83,804.06C450.38,829,461.07,805.29,492.21,789.62Z" style="fill:#302226;stroke:#231f20;stroke-miterlimit:10;stroke-width:7.91666666666667px"/><path d="M872.31,731.85c29.32,18.84,37.47,43.5,61.52,21,19.89-18.6,1.33-54.32-28-73.17s-69.51-20.9-78.18,4.91C817.18,715.82,843,713,872.31,731.85Z" style="fill:#302226;stroke:#231f20;stroke-miterlimit:10;stroke-width:7.91666666666667px"/><path d="M722.73,835c34.31,6.13,51.31,25.76,64.87-4.25,11.21-24.82-19.65-50.66-54-56.79s-72.21,7.43-70.29,34.59C665.68,841.4,688.42,828.87,722.73,835Z" style="fill:#302226;stroke:#231f20;stroke-miterlimit:10;stroke-width:7.91666666666667px"/><path d="M936.52,756.85c-21.74,27.24-47.1,32.83-27.17,59,16.48,21.68,53.9,6.86,75.64-20.38s27.87-67,3.07-78.28C958.08,703.63,958.26,729.6,936.52,756.85Z" style="fill:#302226;stroke:#231f20;stroke-miterlimit:10;stroke-width:7.91666666666667px"/><path d="M572.55,772.92c-28.66,19.83-54.56,17.88-43,48.73,9.53,25.5,49.64,22.09,78.31,2.27s46-56.16,25.49-74.08C608.52,728.18,601.22,753.1,572.55,772.92Z" style="fill:#302226;stroke:#231f20;stroke-miterlimit:10;stroke-width:7.91666666666667px"/><path d="M576.18,699.7c-31.18-15.58-41.93-39.22-63.42-14.27-17.77,20.63,4.52,54.15,35.69,69.73s71.37,13.3,77.2-13.3C632.71,709.7,607.35,715.28,576.18,699.7Z" style="fill:#302226;stroke:#231f20;stroke-miterlimit:10;stroke-width:7.91666666666667px"/><path d="M1375.3,620c0,122-296.68,221-662.65,221S50,742,50,620" style="fill:none;stroke:#231f20;stroke-miterlimit:10;stroke-width:24px"/><path d="M712.65,501.83c46.65,0,134.93-41.42,134.93-139.68S754.32,202.69,712.65,45.84C671,202.69,577.72,263.89,577.72,362.15S666,501.83,712.65,501.83Z" style="fill:#bfe4ed;stroke:#231f20;stroke-miterlimit:10;stroke-width:24px"/><path d="M575.18,1281.72c9.43,0,27.27-8.37,27.27-28.24s-18.85-32.23-27.27-63.94c-8.43,31.71-27.28,44.08-27.28,63.94S565.75,1281.72,575.18,1281.72Z" style="fill:#bfe4ed;stroke:#231f20;stroke-miterlimit:10;stroke-width:7.91666666666667px"/><path d="M719.75,1402.05c9.43,0,27.27-8.37,27.27-28.23s-18.85-32.24-27.27-64c-8.43,31.71-27.28,44.08-27.28,64S710.32,1402.05,719.75,1402.05Z" style="fill:#bfe4ed;stroke:#231f20;stroke-miterlimit:10;stroke-width:7.91666666666667px"/><path d="M868.55,1213.48c9.44,0,27.28-8.37,27.28-28.23s-18.85-32.24-27.28-64c-8.42,31.71-27.27,44.08-27.27,64S859.12,1213.48,868.55,1213.48Z" style="fill:#bfe4ed;stroke:#231f20;stroke-miterlimit:10;stroke-width:7.91666666666667px"/></svg>