<svg xmlns="http://www.w3.org/2000/svg" xmlns:xlink="http://www.w3.org/1999/xlink" height="1466.47" width="1924" xmlns:v="https://vecta.io/nano"><style><![CDATA[.B{stroke-linejoin:round}.C{stroke:#000}.D{stroke-width:8}.E{stroke-linecap:round}.F{stroke-miterlimit:10}.G{stroke:#231f20}.H{stroke-width:24}]]></style><g fill="#fff" class="F G H"><path d="M1315.47 606.04h534.68a61.85 61.85 0 0 1 61.85 61.85h0a61.85 61.85 0 0 1-61.85 61.83h-534.68"/><path d="M674.65 1208.02C369.86 1208.02 12 1045.85 12 677.47c0-142 296.68-257 662.65-257s662.65 115.08 662.65 257c.01 368.38-357.86 530.55-662.65 530.55z"/></g><g fill="#939598"><ellipse ry="18.09" rx="18.16" cy="977.56" cx="674.65"/><ellipse ry="18.09" rx="18.16" cy="1049.61" cx="674.65"/><ellipse ry="18.09" rx="18.16" cy="1121.65" cx="674.65"/><path d="M779.35 1102.2c8.4 6 10.9 18.6 5.1 27.85s-17.24 11.26-25.22 4.66a21.76 21.76 0 0 1-4.7-27.55 17.06 17.06 0 0 1 24.82-4.96zm35.57-67.9c8.88 5.05 12.44 17.34 7.53 27.14s-16 13.1-24.66 7.42-11.72-17.62-7.15-26.9 15.36-12.77 24.28-7.66zm28.55-71.84c9.57 3.62 14.42 15.4 10.6 26s-14.64 15.22-23.78 10.6-13.48-16.12-9.9-25.7a17.73 17.73 0 0 1 23.08-10.88zm57.1 127.44c7.1 7 7.72 18.12.9 24.53s-17.8 5.4-24.43-2.27c-6.5-7.5-6.78-18.34-.52-24.12s16.84-5.2 24.04 1.86zm42.74-48.27c7.93 6.22 9.55 17 3.68 24.18s-17.06 7.26-24.5.63-8.84-17.25-3.36-23.92 16.33-7.04 24.18-.9zm37-52.8c8.58 5.2 11.68 16 6.44 23.66-5 7.83-16.1 9.2-24.27 3.37s-10.67-16.17-6-23.38c4.8-7.1 15.25-8.83 23.83-3.65zm29.04-57.5c9.42 3.42 14.1 13.45 10.38 22.4-4.1 8.6-14.73 11.8-23.6 7.16s-13.14-14.5-9.53-22c3.12-7.6 13.33-10.97 22.76-7.55zm49.04 111.65c6.58 7.56 5.9 18.77-1.58 25-7.57 6-18.65 4.45-24.77-3.53s-5.27-19 1.86-24.64c6.95-5.8 17.9-4.4 24.5 3.17zm47.98-47.66c7.62 6.45 8.62 17.83 1.9 25.06a17.34 17.34 0 0 1-25.1-.23c-6.92-7.12-7.6-18.2-1.4-24.6 6.05-6.53 16.9-6.76 24.6-.24zm39.22-55.04c8.72 4.95 11.9 16.06 6.37 24.33-5.25 8.47-16.7 10.1-24.8 4.2s-10.33-16.4-5.7-23.9c4.93-7.32 15.42-9.58 24.13-4.63zm28.12-61.45c9.4 3.2 14.73 13.5 11 22.7a17.29 17.29 0 0 1-23.47 8.88c-9.08-4.25-13.67-14.3-10.23-22.42s13.1-12.43 22.7-9.16zM568.44 1102.2a17 17 0 0 1 24.81 5 21.75 21.75 0 0 1-4.7 27.55c-8 6.6-19.57 4.7-25.22-4.66s-3.33-21.88 5.1-27.9zm-35.57-67.9c9-5.1 19.64-1.58 24.27 7.66s1.47 21.26-7.15 26.9-19.8 2.42-24.65-7.42-1.34-22.1 7.53-27.14zm-28.57-71.84a17.73 17.73 0 0 1 23.08 10.91c3.6 9.6-.77 21.1-9.88 25.7s-19.85-.06-23.78-10.6 1-22.4 10.58-26.03zm-57.07 127.44c7.2-7.06 17.8-7.7 24-1.86s6 16.62-.52 24.12c-6.63 7.66-17.54 8.63-24.42 2.27s-6.18-17.55.94-24.53zm-42.73-48.27c7.85-6.15 18.72-5.78 24.18.9s4.16 17.2-3.37 23.92-18.6 6.52-24.5-.63-4.25-17.96 3.7-24.18zm-37.02-52.8c8.6-5.18 19-3.44 23.86 3.65 4.64 7.2 2.13 17.57-6 23.38s-19.2 4.46-24.27-3.37c-5.26-7.7-2.17-18.47 6.4-23.66zm-29.04-57.5c9.43-3.42 19.64-.06 22.76 7.53 3.6 7.52-.63 17.38-9.53 22s-19.5 1.45-23.6-7.16c-3.72-8.92.93-18.95 10.37-22.37zM289.4 1043c6.6-7.56 17.55-9 24.5-3.18 7.14 5.65 7.95 16.7 1.86 24.64S298.56 1074 291 1068c-7.46-6.22-8.16-17.43-1.58-25zm-47.98-47.66c7.7-6.52 18.55-6.3 24.6.24 6.2 6.4 5.5 17.47-1.4 24.6a17.34 17.34 0 0 1-25.1.23c-6.72-7.23-5.7-18.6 1.9-25.06zM202.2 940.3c8.72-5 19.2-2.7 24.13 4.63 4.63 7.5 2.42 18-5.7 23.9s-19.54 4.27-24.8-4.2c-5.54-8.27-2.35-19.38 6.37-24.33zm-28.1-61.45c9.6-3.27 19.38 1 22.75 9.16s-1.14 18.17-10.22 22.42a17.29 17.29 0 0 1-23.47-8.88c-3.8-9.2 1.55-19.5 10.94-22.7zm500.55-368.9a11.79 11.79 0 1 1 12.1-11.78 11.95 11.95 0 0 1-12.1 11.78z"/><use xlink:href="#B"/><use xlink:href="#B" y="46.92"/><use xlink:href="#B" y="93.84"/><path d="M674.65 697.72a11.79 11.79 0 1 1 12.1-11.79 12 12 0 0 1-12.1 11.79zm0 46.88a11.79 11.79 0 1 1 12.1-11.78 11.95 11.95 0 0 1-12.1 11.78zm0 46.94a11.78 11.78 0 1 1 12.1-11.82 11.95 11.95 0 0 1-12.1 11.82zm0 46.93a11.78 11.78 0 1 1 12.1-11.75 11.94 11.94 0 0 1-12.1 11.75zm86.9-19.62c6.24 2.56 8.9 9.86 6.06 16.36-3.1 6.48-10.5 9.18-16.46 6a12.33 12.33 0 0 1 10.4-22.33zm16.8-46.07a12.32 12.32 0 1 1-15.35 7.76 12.17 12.17 0 0 1 15.35-7.76zm14.23-46.95a12.32 12.32 0 1 1-15 8.44 12.16 12.16 0 0 1 15-8.44zm12.72-47.38a12.32 12.32 0 1 1-14.8 8.85 12.18 12.18 0 0 1 14.8-8.85zM817 630.8a12.32 12.32 0 1 1-14.63 9.15A12.18 12.18 0 0 1 817 630.8zm11-47.82a12.32 12.32 0 1 1-14.5 9.36 12.19 12.19 0 0 1 14.5-9.36zm10.3-47.96a12.32 12.32 0 1 1-14.38 9.54 12.21 12.21 0 0 1 14.38-9.54zm9.8-48.07a12.32 12.32 0 1 1-14.28 9.69 12.2 12.2 0 0 1 14.28-9.69zm35.97 328.48a11.67 11.67 0 1 1-14.66 18.11c-4.85-4.55-5.6-11.73-1.86-16.44s11.05-5.6 16.52-1.67zM909 776.3a11.67 11.67 0 1 1-12 20c-5.6-3.57-7.52-10.8-4.28-16.15A12 12 0 0 1 909 776.3zm21.68-41.05a11.66 11.66 0 1 1-10.59 20.76 12 12 0 0 1-5.43-15.83c2.84-5.66 10.03-7.86 16.02-4.93zm19.55-42.1a11.67 11.67 0 1 1-9.61 21.24 11.66 11.66 0 1 1 9.61-21.24zm17.95-42.82a11.67 11.67 0 1 1-8.83 21.58 11.67 11.67 0 1 1 8.83-21.58zm16.54-43.37a11.66 11.66 0 1 1-8.12 21.85c-6.23-2.4-9.5-9.17-7.25-15.14a11.94 11.94 0 0 1 15.37-6.71zm15.08-43.9a11.66 11.66 0 1 1-15.12 7.25c2-6.04 8.77-9.28 15.12-7.25zm13.08-44.54a11.67 11.67 0 1 1-6.24 22.46c-6.42-1.92-10.14-8.4-8.44-14.45s8.22-9.65 14.68-8zm29.76 254.68a11.72 11.72 0 1 1-16.64-2.26c5-3.95 12.43-2.93 16.64 2.26zm35.13-30.72a11.73 11.73 0 1 1-17.29 15.82c-4.37-5.06-4.1-12.56.6-16.75a12 12 0 0 1 16.69.93zm32-33.96a11.73 11.73 0 1 1-15.6 17.49 12.2 12.2 0 0 1-1.16-16.71c4.15-4.67 11.68-5 16.76-.78zm27.6-37.6a11.73 11.73 0 1 1-13.27 19.31c-5.36-4-6.75-11.33-3.1-16.36 3.46-5.12 10.7-6.54 16.37-2.95zm22.58-40.83a11.76 11.76 0 0 1 5.59 16c-2.87 6.1-10.46 8.1-16.26 4.86a12.21 12.21 0 0 1-5.31-15.84c2.75-5.57 9.9-7.8 15.98-5.02zm17.06-43.44a11.73 11.73 0 1 1-7.82 22.1c-6.15-2.45-9.55-9.22-7.46-15.08s8.95-8.93 15.28-7.02zM586.24 818.85a12.33 12.33 0 0 1 10.39 22.33c-6 3.2-13.34.5-16.46-6-2.85-6.46-.17-13.77 6.07-16.33zm-16.8-46.07a12.31 12.31 0 1 1-7.55 15.6 12.24 12.24 0 0 1 7.55-15.6zm-14.23-46.95a12.32 12.32 0 1 1-8.2 15.22 12.26 12.26 0 0 1 8.2-15.22zm-12.72-47.38a12.31 12.31 0 1 1-8.61 15 12.25 12.25 0 0 1 8.61-15zm-11.7-47.65a12.32 12.32 0 1 1-8.9 14.82 12.25 12.25 0 0 1 8.9-14.82zm-10.95-47.82a12.32 12.32 0 1 1-9.12 14.68 12.24 12.24 0 0 1 9.12-14.68zm-10.34-47.96a12.32 12.32 0 1 1-9.29 14.57 12.24 12.24 0 0 1 9.29-14.57zm-9.8-48.07a12.32 12.32 0 1 1-9.45 14.47 12.24 12.24 0 0 1 9.45-14.47zm-35.95 328.48c5.46-3.94 12.73-3 16.5 1.67s3 11.9-1.86 16.44a11.67 11.67 0 1 1-14.65-18.11zM438.8 776.3a12 12 0 0 1 16.26 3.84c3.24 5.35 1.3 12.58-4.28 16.15a11.67 11.67 0 1 1-12-20zm-21.7-41.05c6-2.93 13.17-.73 16 4.93a12 12 0 0 1-5.43 15.83 11.66 11.66 0 1 1-10.58-20.76zm-19.54-42.1a11.66 11.66 0 1 1 9.6 21.24 11.66 11.66 0 1 1-9.6-21.24zm-17.96-42.82a11.66 11.66 0 1 1 8.82 21.58 11.67 11.67 0 1 1-8.82-21.58zm-16.53-43.37a11.92 11.92 0 0 1 15.36 6.71c2.24 6-1 12.75-7.24 15.14a11.67 11.67 0 1 1-8.12-21.85zM348 563.04c6.35-2 13.13 1.2 15.12 7.25a12.11 12.11 0 1 1-15.12-7.25zm-13.1-44.54c6.46-1.64 13 1.94 14.68 8s-2 12.53-8.44 14.45a11.67 11.67 0 1 1-6.24-22.46zm-29.76 254.68c4.2-5.2 11.65-6.2 16.6-2.26a12.11 12.11 0 1 1-16.61 2.26zM270 742.46a12 12 0 0 1 16.7-.93c4.7 4.2 5 11.7.6 16.75a11.73 11.73 0 1 1-17.3-15.82zm-32-33.96c5.1-4.2 12.62-3.9 16.76.78a12.2 12.2 0 0 1-1.16 16.71A11.73 11.73 0 1 1 238 708.5zm-27.58-37.6c5.67-3.6 12.9-2.2 16.37 3 3.65 5 2.26 12.36-3.1 16.36a11.73 11.73 0 1 1-13.27-19.31zm-22.57-40.83c6.07-2.8 13.23-.55 16 5a12.21 12.21 0 0 1-5.32 15.84c-5.8 3.25-13.4 1.23-16.26-4.86a11.75 11.75 0 0 1 5.58-15.98zm-17.02-43.44c6.28-2 13.22 1.15 15.28 7s-1.3 12.63-7.46 15.08a11.73 11.73 0 1 1-7.82-22.1z"/></g><g class="G F"><g class="H"><path d="M1337.3 672.42c0 122-296.68 221-662.65 221S12 794.45 12 672.42" fill="none"/><path d="M674.65 504c46.65 0 134.93-41.4 134.93-139.68S716.32 204.85 674.65 48C633 204.85 539.72 266.05 539.72 364.3S628 504 674.65 504z" fill="#c0e4ed"/></g><path d="M537.18 1334.14c9.43 0 27.27-8.37 27.27-28.24s-18.85-32.23-27.27-63.94c-8.43 31.7-27.28 44.08-27.28 63.94s17.85 28.24 27.28 28.24zm144.57 120.33c9.43 0 27.27-8.37 27.27-28.23s-18.85-32.24-27.27-64c-8.43 31.7-27.28 44.08-27.28 64s17.85 28.23 27.28 28.23zm148.8-188.57c9.44 0 27.28-8.37 27.28-28.23s-18.83-32.24-27.28-63.95c-8.42 31.7-27.27 44.08-27.27 63.94s17.84 28.24 27.27 28.24z" fill="#c0e4ed" stroke-width="7.917"/></g><g fill="#ebd39b" class="C D B"><path d="M599.6 849.3a29.74 29.74 0 0 0-17-16.47c-.6-.85.1-2 .77-2.77l5.83-6.73c3.8-4.4 7.72-8.9 12.64-11.74s11.12-3.86 16.12-1.07m178.6 30.43a29.72 29.72 0 0 0 17 16.46c.6.86-.1 2-.77 2.78l-5.8 6.73c-3.8 4.4-7.7 8.9-12.63 11.74s-11.12 3.86-16.13 1.07" class="E"/><path d="M668.74 897.07a26.32 26.32 0 0 1-10.11-13.61c-1.33-4.2-1.58-8.63-1.82-13a26.87 26.87 0 0 1 .42-8.45 21 21 0 0 1 3.26-6.49c3.1-4.46 7.14-8.47 12.24-10.34s11.34-1.2 15.18 2.64c2.8 2.78 4 6.8 4.57 10.7.9 5.9.67 11.93.43 17.9a35 35 0 0 1-.71 6.7c-1.62 6.77-7.15 12-13.13 15.52-3.16 1.87-7.5.37-10.33-1.57zm41.9-2.75a26.37 26.37 0 0 1-10.11-13.6c-1.33-4.2-1.58-8.63-1.82-13a26.8 26.8 0 0 1 .42-8.44 20.9 20.9 0 0 1 3.26-6.5c3.1-4.46 7.14-8.47 12.24-10.34s11.35-1.2 15.18 2.64c2.8 2.8 4 6.8 4.58 10.7.9 5.92.66 11.94.42 17.9a34.09 34.09 0 0 1-.71 6.7c-1.62 6.77-7.15 12-13.13 15.52-3.16 1.82-7.5.36-10.33-1.58zm41.9-2.75a26.29 26.29 0 0 1-10.11-13.61c-1.33-4.2-1.58-8.63-1.82-13a26.81 26.81 0 0 1 .42-8.44 20.9 20.9 0 0 1 3.26-6.5c3.1-4.45 7.15-8.47 12.24-10.34s11.35-1.2 15.2 2.64c2.8 2.8 4 6.8 4.57 10.7.9 5.92.66 11.94.42 17.9a34.86 34.86 0 0 1-.7 6.7c-1.62 6.78-7.16 12-13.13 15.52-3.17 1.87-7.5.37-10.34-1.57zm-125.74 8.23a26.29 26.29 0 0 1-10.1-13.6c-1.33-4.2-1.58-8.63-1.83-13a27.48 27.48 0 0 1 .42-8.45 20.88 20.88 0 0 1 3.27-6.49c3.1-4.46 7.14-8.48 12.23-10.34s11.35-1.2 15.2 2.63c2.8 2.8 4 6.8 4.57 10.7.9 5.9.66 11.93.42 17.9a34.94 34.94 0 0 1-.7 6.7c-1.62 6.77-7.15 12-13.13 15.52-3.16 1.87-7.5.33-10.34-1.58z"/><g class="E"><path d="M646.54 858c3.3-1.34 4.7-5.22 5.28-8.73 2.32-13.75-2.17-28.3-11.1-39a15.78 15.78 0 0 0-5.76-4.77l-2.66-1.55a11.87 11.87 0 0 0-1.35-.45h-.1a13.76 13.76 0 0 0-17.65 8.18l-7.9 22.48a57.91 57.91 0 0 1-5.92 11.57c-3.36 5.1-8.23 6.7-13.6 9.2a6.67 6.67 0 0 0-2.22 1.41 5.83 5.83 0 0 0-1.08 2c-2.88 7.77-.66 15.9 1.1 23.63.8 3.58 2.65 15.36 6.2 16.95a4.78 4.78 0 0 0 3.1 0 31 31 0 0 0 17.14-11.64c7.44-10.22 11.8-22.47 18.73-33.07"/><path d="M633.7 902.23c7.47 0 14-5.27 18.2-11.48 5.44-8.14 8.05-17.8 12.8-26.28 1.68-3 3.88-5.9 7-7.47s6.82-1.62 10.33-1.35c2 .16 4.1.4 6-.37 3.3-1.35 4.68-5.23 5.27-8.73 2.32-13.75-2.17-28.3-11.1-39-2.5-3-5-4.6-8.52-4.86a16.06 16.06 0 0 0-2.75.06 20.75 20.75 0 0 0-13.42 7c-4.2 4.85-6.2 11.16-8.5 17.05l-18.8 48.18"/><path d="M675.6 899.48c7.47 0 14-5.27 18.2-11.48 5.44-8.14 8.06-17.78 12.8-26.28 1.68-3 3.88-5.9 7-7.47s6.82-1.62 10.32-1.35c2 .16 4.1.4 6-.37 3.3-1.34 4.68-5.22 5.27-8.73 2.32-13.75-2.17-28.3-11.1-39-2.5-3-5-4.6-8.52-4.87a16.08 16.08 0 0 0-2.75.06 20.75 20.75 0 0 0-13.42 7c-4.2 4.86-6.2 11.17-8.5 17.05l-6.37 16.3-12.5 31.87"/><path d="M717.5 896.72c7.48 0 14-5.27 18.2-11.48 5.44-8.14 8.06-17.78 12.8-26.28 1.68-3 3.88-5.9 7-7.47s6.82-1.6 10.32-1.34c2 .15 4.1.38 6-.38 3.3-1.34 4.68-5.22 5.28-8.73 2.3-13.75-2.18-28.3-11.1-39-2.48-3-5-4.6-8.52-4.86a15 15 0 0 0-2.74 0 20.82 20.82 0 0 0-13.43 7c-4.2 4.86-6.2 11.17-8.48 17.05L714 869.47"/><path d="M759.42 893.98c7.48 0 14.05-5.26 18.2-11.48 5.44-8.14 8.06-17.78 12.8-26.28 1.7-3 3.9-5.9 7-7.46s7.32-1.67 9.05-5a11.14 11.14 0 0 0 .93-3.17c2-11.3-.17-22.07-.3-33.37a4.87 4.87 0 0 0-.52-2.62 4.33 4.33 0 0 0-3.22-1.56c-6.6-.87-13.2 1.92-18.52 5.92-11 8.32-14.5 20.8-19.26 33.07l-9.66 24.72m-352.17-79.03a29.75 29.75 0 0 0-20.82-11.3c-.8-.67-.43-2 0-2.88l3.82-8.05c2.5-5.26 5.06-10.62 9-14.7s9.7-6.7 15.26-5.34m180.3-18.4a29.78 29.78 0 0 0 20.83 11.3c.8.67.43 2 0 2.88l-3.8 8.05c-2.5 5.26-5.06 10.62-9 14.7s-9.73 6.74-15.33 5.34"/></g><path d="M483.13 815.3a26.29 26.29 0 0 1-13.37-10.41c-2.4-3.68-3.84-7.9-5.24-12.06a27.2 27.2 0 0 1-1.86-8.25 21.33 21.33 0 0 1 1.41-7.13c1.8-5.12 4.62-10.07 9-13.24s10.62-4.18 15.34-1.5c3.43 1.94 5.65 5.48 7.26 9.08 2.45 5.46 3.83 11.32 5.2 17.15a34.89 34.89 0 0 1 1.11 6.64c.25 7-3.7 13.43-8.5 18.47-2.47 2.7-7.1 2.38-10.34 1.26zm39.65-13.86a26.29 26.29 0 0 1-13.37-10.41c-2.4-3.68-3.83-7.9-5.24-12.06a26.9 26.9 0 0 1-1.85-8.25 21.12 21.12 0 0 1 1.4-7.13c1.8-5.12 4.63-10.07 9-13.24s10.62-4.18 15.34-1.5c3.44 1.94 5.65 5.48 7.27 9.08 2.44 5.46 3.82 11.32 5.2 17.15a34.89 34.89 0 0 1 1.11 6.64c.25 7-3.7 13.43-8.5 18.47-2.52 2.66-7.13 2.38-10.35 1.26zm39.66-13.84a26.31 26.31 0 0 1-13.38-10.41c-2.4-3.68-3.83-7.9-5.24-12.06a27.19 27.19 0 0 1-1.85-8.25 20.89 20.89 0 0 1 1.41-7.13c1.8-5.12 4.62-10.07 9-13.24s10.6-4.18 15.33-1.5c3.44 1.94 5.66 5.48 7.27 9.08 2.45 5.46 3.83 11.32 5.2 17.15a34.24 34.24 0 0 1 1.11 6.64c.25 7-3.7 13.43-8.5 18.47-2.5 2.66-7.1 2.4-10.34 1.26zm-118.96 41.54a26.31 26.31 0 0 1-13.38-10.42c-2.4-3.68-3.83-7.9-5.24-12.06a27.19 27.19 0 0 1-1.86-8.24 20.85 20.85 0 0 1 1.41-7.13c1.8-5.12 4.62-10.07 9-13.24s10.6-4.18 15.34-1.5c3.43 1.94 5.65 5.48 7.26 9.08 2.45 5.46 3.83 11.32 5.2 17.15a34.91 34.91 0 0 1 1.12 6.64c.25 7-3.7 13.43-8.5 18.47-2.5 2.66-7.08 2.38-10.33 1.26z"/><g class="E"><path d="M451.3 783.57c2.82-2.17 3.12-6.3 2.75-9.82-1.44-13.87-9.65-26.68-21.1-34.62a15.77 15.77 0 0 0-6.82-3.06l-3-.78a13.48 13.48 0 0 0-1.41-.08h-.1a13.76 13.76 0 0 0-14.82 12.6l-1.6 23.77a57.58 57.58 0 0 1-2.6 12.77c-1.88 5.8-6.14 8.64-10.64 12.48a6.89 6.89 0 0 0-1.77 2 5.8 5.8 0 0 0-.51 2.18c-.7 8.25 3.62 15.5 7.37 22.48 1.74 3.23 6.66 14.1 10.52 14.68a4.76 4.76 0 0 0 3-.87 30.94 30.94 0 0 0 13.41-15.79c4.44-11.84 5.38-24.8 9.2-36.87"/><path d="M450.73 829.63c7.2-2 12.13-8.83 14.47-15.93 3.07-9.3 3-19.3 5.3-28.74.82-3.36 2.17-6.73 4.72-9.06s6.14-3.38 9.6-4.06c2-.38 4.07-.72 5.66-2 2.82-2.18 3.12-6.3 2.75-9.83-1.44-13.87-9.65-26.68-21.1-34.62-3.2-2.2-6.08-3.1-9.5-2.4a15.9 15.9 0 0 0-2.63.8 20.75 20.75 0 0 0-11.07 10.33c-2.75 5.8-3 12.4-3.62 18.7l-5.25 51.42"/><path d="M490.4 815.78c7.2-2 12.13-8.83 14.47-15.93 3.06-9.3 3-19.28 5.3-28.74.8-3.36 2.16-6.73 4.72-9.06s6.13-3.38 9.58-4.06c2-.38 4.07-.72 5.66-1.95 2.82-2.18 3.12-6.3 2.76-9.83-1.45-13.87-9.66-26.67-21.12-34.62-3.2-2.2-6.08-3.1-9.5-2.4a15.9 15.9 0 0 0-2.63.8 20.79 20.79 0 0 0-11.07 10.33c-2.74 5.8-3 12.4-3.62 18.7l-1.77 17.42-3.48 34"/><path d="M530 801.93c7.2-2 12.13-8.83 14.47-15.93 3.07-9.3 3-19.28 5.3-28.74.82-3.36 2.16-6.73 4.72-9.06s6.14-3.38 9.6-4.05c2-.4 4.06-.73 5.66-2 2.8-2.18 3.12-6.3 2.75-9.83-1.4-13.83-9.62-26.6-21.08-34.6-3.2-2.2-6.08-3.1-9.5-2.4a15 15 0 0 0-2.64.79 20.73 20.73 0 0 0-11.06 10.33c-2.75 5.8-3 12.4-3.62 18.7l-5.26 51.42"/><path d="M569.7 788.08c7.2-2 12.13-8.83 14.47-15.93 3.07-9.3 3-19.28 5.3-28.74.82-3.36 2.17-6.73 4.72-9.06s6.6-3.56 7.38-7.26a11.06 11.06 0 0 0 0-3.3c-1.07-11.44-6.07-21.22-9.22-32.08a4.9 4.9 0 0 0-1.2-2.38 4.31 4.31 0 0 0-3.52-.64c-6.58.93-12.2 5.38-16.26 10.65-8.43 11-8.42 23.9-9.73 37l-2.7 26.4"/></g></g><g fill="#f9f1c0" class="B C D"><path d="M661.65 808.4a29.73 29.73 0 0 0-13.19-19.68c-.4-1 .53-1.94 1.35-2.55l7.1-5.36c4.66-3.5 9.42-7.05 14.83-8.8s11.68-1.42 16 2.36m168.2 67.43a29.78 29.78 0 0 0 13.19 19.68c.4 1-.53 1.94-1.34 2.55l-7.12 5.35c-4.66 3.5-9.42 7.06-14.83 8.82s-11.68 1.42-16-2.36" class="E"/><path d="M719.15 869.72a26.32 26.32 0 0 1-7-15.43c-.42-4.38.27-8.77 1-13.1a27.15 27.15 0 0 1 2.19-8.17 21.08 21.08 0 0 1 4.56-5.66c4-3.7 8.77-6.78 14.14-7.53s11.35 1.22 14.3 5.78c2.14 3.32 2.46 7.48 2.22 11.42-.37 6-1.87 11.8-3.37 17.6a34.74 34.74 0 0 1-2.1 6.4c-3 6.28-9.5 10.17-16.1 12.4-3.54 1.14-7.46-1.24-9.82-3.7zm41.55 6.1a26.26 26.26 0 0 1-7-15.43c-.42-4.37.27-8.77 1-13.1a26.86 26.86 0 0 1 2.19-8.17 21.08 21.08 0 0 1 4.56-5.66c4-3.7 8.77-6.77 14.14-7.53s11.35 1.22 14.3 5.78c2.14 3.32 2.46 7.48 2.22 11.42-.37 6-1.87 11.8-3.37 17.6a34.74 34.74 0 0 1-2.1 6.4c-3 6.28-9.5 10.18-16.1 12.4-3.52 1.2-7.46-1.2-9.82-3.7zm41.55 6.15a26.26 26.26 0 0 1-7-15.43c-.42-4.37.27-8.77 1-13.1a26.93 26.93 0 0 1 2.19-8.17 21.08 21.08 0 0 1 4.56-5.66c4-3.7 8.77-6.77 14.14-7.53s11.35 1.23 14.3 5.78c2.14 3.32 2.46 7.5 2.2 11.42-.36 6-1.87 11.8-3.36 17.6a34.74 34.74 0 0 1-2.1 6.4c-3 6.28-9.5 10.18-16.1 12.4-3.54 1.18-7.46-1.2-9.82-3.7zM677.6 863.53a26.32 26.32 0 0 1-7-15.43c-.42-4.38.27-8.77 1-13.1a27.44 27.44 0 0 1 2.19-8.17 21.08 21.08 0 0 1 4.56-5.66c4-3.7 8.77-6.78 14.14-7.53s11.35 1.22 14.3 5.78c2.14 3.3 2.46 7.48 2.22 11.42-.37 6-1.87 11.8-3.37 17.6a35 35 0 0 1-2.1 6.4c-3 6.28-9.5 10.17-16.1 12.4-3.54 1.18-7.42-1.2-9.82-3.7z"/><g class="E"><path d="M705.7 826.8c3.5-.62 5.68-4.12 7-7.43 5.17-12.95 3.84-28.1-2.62-40.46a15.6 15.6 0 0 0-4.62-5.87l-2.28-2.1c-.4-.26-.8-.5-1.22-.72h-.08a13.76 13.76 0 0 0-19 4.27l-12.46 20.3a57.64 57.64 0 0 1-8.23 10.09c-4.36 4.27-9.46 4.8-15.22 6.12a6.69 6.69 0 0 0-2.47.91 5.68 5.68 0 0 0-1.47 1.69c-4.45 7-4 15.4-3.92 23.34 0 3.67-.65 15.57 2.5 17.88a4.72 4.72 0 0 0 3 .61 30.87 30.87 0 0 0 19.2-7.76c9.43-8.42 16.3-19.47 25.28-28.37"/><path d="M683.8 867.34c7.3 1.58 14.84-2.2 20.2-7.4 7-6.8 11.63-15.68 18-23 2.28-2.6 5-5 8.4-5.83s7-.14 10.37.86c1.94.58 3.94 1.25 5.93.9 3.5-.6 5.68-4.1 7-7.42 5.16-13 3.84-28.1-2.62-40.46-1.8-3.45-4-5.57-7.3-6.55a14.92 14.92 0 0 0-2.69-.52 20.74 20.74 0 0 0-14.6 4c-5.13 3.86-8.4 9.6-11.9 14.87L705 811.4l-18.9 28.53"/><path d="M725.35 873.5c7.3 1.58 14.84-2.2 20.2-7.4 7-6.8 11.62-15.68 18.05-23 2.28-2.6 5-4.95 8.4-5.83s7-.14 10.37.86c1.94.58 3.94 1.25 5.93.9 3.5-.62 5.68-4.12 7-7.43 5.17-12.95 3.85-28.1-2.62-40.46-1.8-3.44-3.95-5.56-7.3-6.55a16 16 0 0 0-2.7-.52 20.73 20.73 0 0 0-14.59 4c-5.13 3.86-8.4 9.6-11.9 14.87l-28.56 43.13"/><path d="M766.9 879.64c7.3 1.58 14.84-2.2 20.2-7.4 7-6.8 11.62-15.68 18-23 2.28-2.6 5-4.95 8.4-5.83s7-.14 10.37.86c1.94.58 3.94 1.25 5.92.9 3.5-.62 5.7-4.12 7-7.42 5.17-13 3.84-28.1-2.62-40.47-1.8-3.44-4-5.56-7.3-6.55a16 16 0 0 0-2.7-.52 20.76 20.76 0 0 0-14.59 4c-5.13 3.86-8.4 9.6-11.9 14.88l-9.62 14.62-18.9 28.53"/><path d="M808.45 885.8c7.3 1.58 14.84-2.2 20.2-7.4 7-6.8 11.62-15.68 18.05-23 2.28-2.6 5-5 8.4-5.82s7.5-.1 9.9-3a11.17 11.17 0 0 0 1.58-2.9c4.37-10.62 4.48-21.6 6.74-32.7a4.85 4.85 0 0 0 0-2.67 4.3 4.3 0 0 0-2.82-2.2c-6.25-2.24-13.3-.9-19.34 1.88-12.56 5.8-18.57 17.27-25.8 28.27L810.7 858.4"/></g></g><g fill="#ebd39b" class="B C D"><path d="M388.6 816.47a29.81 29.81 0 0 0-13.19-19.69c-.4-.95.53-1.93 1.34-2.54l7.1-5.36c4.66-3.5 9.42-7.06 14.83-8.8s11.68-1.42 16 2.35m168.2 67.43a29.78 29.78 0 0 0 13.19 19.68c.4 1-.53 1.94-1.34 2.55l-7.12 5.35c-4.65 3.5-9.4 7.06-14.82 8.8s-11.7 1.43-16-2.35" class="E"/><path d="M446.1 877.72a26.32 26.32 0 0 1-7-15.43c-.42-4.38.27-8.77 1-13.1a27.44 27.44 0 0 1 2.19-8.17 21.08 21.08 0 0 1 4.56-5.66c4-3.7 8.77-6.78 14.15-7.53s11.34 1.22 14.28 5.78c2.14 3.3 2.46 7.48 2.22 11.42-.37 6-1.87 11.8-3.37 17.6a35 35 0 0 1-2.1 6.4c-3 6.28-9.5 10.17-16.1 12.4-3.54 1.2-7.46-1.17-9.82-3.7zm41.54 6.18a26.32 26.32 0 0 1-7-15.43c-.42-4.38.27-8.77 1-13.1a27.44 27.44 0 0 1 2.19-8.17 21.08 21.08 0 0 1 4.56-5.66c4-3.7 8.77-6.78 14.14-7.53s11.35 1.22 14.3 5.78c2.14 3.32 2.46 7.48 2.22 11.42-.37 6-1.87 11.8-3.37 17.6a34.74 34.74 0 0 1-2.1 6.4c-3 6.28-9.5 10.17-16.1 12.4-3.54 1.18-7.46-1.2-9.82-3.7zm41.56 6.15a26.32 26.32 0 0 1-7-15.43c-.42-4.37.27-8.77 1-13.1a26.86 26.86 0 0 1 2.19-8.17 21.08 21.08 0 0 1 4.56-5.66c4-3.7 8.77-6.77 14.14-7.53s11.35 1.22 14.3 5.78c2.14 3.32 2.46 7.48 2.22 11.42-.37 6-1.87 11.8-3.37 17.6a34.74 34.74 0 0 1-2.1 6.4c-3 6.28-9.5 10.18-16.1 12.4-3.54 1.18-7.46-1.2-9.82-3.7zM404.54 871.6a26.35 26.35 0 0 1-7-15.43c-.42-4.38.27-8.77 1-13.1a27.44 27.44 0 0 1 2.19-8.17 21.08 21.08 0 0 1 4.56-5.66c4-3.7 8.77-6.78 14.15-7.53s11.34 1.22 14.28 5.78c2.14 3.3 2.46 7.48 2.22 11.42-.37 6-1.87 11.8-3.37 17.6a35 35 0 0 1-2.1 6.4c-3 6.27-9.5 10.17-16.1 12.4-3.55 1.18-7.47-1.2-9.83-3.7z"/><g class="E"><path d="M432.63 834.88c3.5-.62 5.7-4.12 7-7.43 5.17-13 3.84-28.1-2.62-40.46a15.6 15.6 0 0 0-4.62-5.87l-2.27-2.1q-.6-.4-1.23-.72l-.07-.05a13.77 13.77 0 0 0-19 4.27l-12.46 20.3a57.64 57.64 0 0 1-8.23 10.09c-4.35 4.26-9.45 4.8-15.22 6.12a6.69 6.69 0 0 0-2.47.91 5.68 5.68 0 0 0-1.47 1.69c-4.45 7-4 15.4-3.9 23.34 0 3.66-.65 15.57 2.5 17.87a4.67 4.67 0 0 0 3 .62 30.87 30.87 0 0 0 19.25-7.76c9.44-8.42 16.3-19.47 25.3-28.37"/><path d="M410.74 875.4c7.3 1.6 14.84-2.18 20.2-7.38 7-6.8 11.63-15.68 18.05-23 2.3-2.6 5.05-5 8.4-5.83s7-.14 10.38.86c1.93.58 3.93 1.24 5.92.9 3.5-.6 5.68-4.1 7-7.42 5.16-12.95 3.84-28.1-2.62-40.46-1.8-3.45-4-5.57-7.3-6.55a15.21 15.21 0 0 0-2.7-.52 20.78 20.78 0 0 0-14.6 4c-5.13 3.87-8.4 9.62-11.9 14.88L413 848"/><path d="M452.3 881.56c7.3 1.58 14.84-2.2 20.2-7.4 7-6.8 11.63-15.68 18-23 2.3-2.6 5.05-5 8.4-5.83s7-.14 10.38.86c1.93.58 3.93 1.25 5.92.9 3.5-.6 5.68-4.1 7-7.42 5.16-13 3.84-28.1-2.62-40.46-1.8-3.45-4-5.57-7.3-6.55a15.21 15.21 0 0 0-2.7-.52 20.74 20.74 0 0 0-14.6 4c-5.13 3.86-8.4 9.6-11.9 14.87l-28.55 43.13"/><path d="M493.84 887.72c7.3 1.58 14.84-2.2 20.2-7.4 7-6.8 11.63-15.68 18.05-23 2.28-2.6 5-5 8.4-5.83s7-.14 10.37.86c1.94.58 3.94 1.25 5.93.9 3.5-.62 5.68-4.12 7-7.43 5.16-13 3.84-28.1-2.62-40.46-1.8-3.44-4-5.56-7.3-6.55a15.84 15.84 0 0 0-2.69-.52 20.74 20.74 0 0 0-14.6 4c-5.13 3.86-8.4 9.6-11.9 14.87L496.1 860.3"/><path d="M535.4 893.86c7.3 1.58 14.84-2.2 20.2-7.4 7-6.8 11.62-15.68 18-23 2.28-2.6 5-5 8.4-5.83s7.5-.08 9.9-3a10.88 10.88 0 0 0 1.58-2.9c4.37-10.63 4.48-21.6 6.74-32.7a4.85 4.85 0 0 0 0-2.67 4.35 4.35 0 0 0-2.81-2.21c-6.26-2.23-13.3-.9-19.35 1.9-12.56 5.8-18.56 17.27-25.8 28.27q-7.3 11.08-14.65 22.13m-7.8-119.35a29.73 29.73 0 0 0-5.77-23c0-1 1.15-1.65 2.12-1.95l8.5-2.64c5.56-1.72 11.24-3.46 16.93-3.3s11.48 2.6 14.26 7.6m135.58 120.27a29.79 29.79 0 0 0 5.78 23c0 1-1.15 1.64-2.12 1.94l-8.5 2.64c-5.56 1.73-11.24 3.47-16.93 3.3s-11.48-2.6-14.26-7.6"/></g><path d="M563.27 824.18a26.31 26.31 0 0 1-1.39-16.9c1.08-4.25 3.2-8.16 5.32-12a27.25 27.25 0 0 1 4.8-6.96 21.1 21.1 0 0 1 6.2-3.79c5-2.15 10.55-3.42 15.86-2.32s10.27 5 11.5 10.27c.9 3.84-.2 7.87-1.77 11.5-2.36 5.5-5.74 10.48-9.1 15.43a34.42 34.42 0 0 1-4.13 5.32c-5 4.9-12.4 6.37-19.35 6.24-3.66-.07-6.55-3.63-7.93-6.78zM600.3 844a26.29 26.29 0 0 1-1.39-16.89c1.08-4.26 3.22-8.17 5.33-12a27 27 0 0 1 4.82-7 20.84 20.84 0 0 1 6.2-3.79c5-2.15 10.54-3.42 15.86-2.32s10.26 5 11.5 10.27c.9 3.84-.2 7.87-1.76 11.5-2.37 5.5-5.75 10.48-9.1 15.43a34.49 34.49 0 0 1-4.14 5.32c-5 4.9-12.38 6.37-19.34 6.24-3.7-.02-6.58-3.6-7.96-6.75zm37.04 19.8a26.29 26.29 0 0 1-1.34-16.89c1.08-4.26 3.2-8.17 5.33-12a26.92 26.92 0 0 1 4.82-6.95 20.84 20.84 0 0 1 6.2-3.79c5-2.15 10.54-3.42 15.85-2.32s10.27 5 11.5 10.27c.9 3.84-.2 7.87-1.77 11.5-2.36 5.5-5.74 10.5-9.1 15.43a35.11 35.11 0 0 1-4.14 5.32c-4.95 4.9-12.4 6.37-19.35 6.24-3.73-.1-6.62-3.65-8-6.8zm-111.1-59.43a26.31 26.31 0 0 1-1.39-16.9c1.08-4.26 3.2-8.16 5.33-12a26.75 26.75 0 0 1 4.82-7 21.08 21.08 0 0 1 6.2-3.8c5-2.14 10.54-3.4 15.85-2.3s10.27 5 11.5 10.26c.9 3.85-.2 7.88-1.77 11.5-2.36 5.5-5.74 10.48-9.1 15.43a35.11 35.11 0 0 1-4.14 5.32c-4.95 4.9-12.4 6.37-19.35 6.24-3.68-.03-6.57-3.6-7.95-6.74z"/><g class="E"><path d="M565.07 779.28c3.5.6 6.73-2 9.1-4.63 9.23-10.45 13.1-25.16 11.2-39a15.69 15.69 0 0 0-2.37-7.09l-1.44-2.73a12.21 12.21 0 0 0-.91-1.09v-.08a13.75 13.75 0 0 0-19.31-2.38l-18.63 14.94a58 58 0 0 1-11.16 6.72c-5.54 2.55-10.52 1.34-16.4.62a6.89 6.89 0 0 0-2.64 0 5.64 5.64 0 0 0-2 1.1c-6.55 5.07-9 13.15-11.56 20.64-1.2 3.47-5.87 14.44-3.68 17.67a4.73 4.73 0 0 0 2.65 1.61 30.92 30.92 0 0 0 20.7-.83c11.72-4.74 21.9-12.83 33.37-18.18"/><path d="M530.78 810.04c6.34 4 14.7 2.95 21.52-.13 8.92-4 16.24-10.84 24.75-15.55 3-1.67 6.42-3 9.86-2.66s6.65 2.23 9.48 4.3c1.62 1.2 3.28 2.5 5.27 2.84 3.5.6 6.74-2 9.1-4.62 9.23-10.45 13.1-25.17 11.18-39-.53-3.85-1.84-6.57-4.66-8.63a16 16 0 0 0-2.36-1.4 20.77 20.77 0 0 0-15.1-1.15c-6.13 1.9-11.15 6.2-16.2 10l-41.4 30.97"/><path d="M567.82 829.85c6.34 4 14.7 3 21.52-.13 8.9-4 16.23-10.84 24.75-15.55 3-1.67 6.42-3 9.86-2.66s6.64 2.23 9.48 4.3c1.62 1.2 3.28 2.5 5.27 2.84 3.5.6 6.74-2 9.1-4.62 9.23-10.45 13.1-25.17 11.2-39-.53-3.85-1.84-6.57-4.66-8.63a16.11 16.11 0 0 0-2.37-1.4 20.8 20.8 0 0 0-15.09-1.15c-6.13 1.9-11.16 6.2-16.2 10l-41.4 30.97"/><path d="M604.85 849.66c6.34 4 14.7 2.95 21.52-.13 8.92-4 16.24-10.84 24.75-15.55 3-1.67 6.42-3 9.86-2.66s6.65 2.23 9.48 4.3c1.63 1.2 3.3 2.5 5.27 2.84 3.5.6 6.74-2 9.1-4.62 9.23-10.45 13.1-25.17 11.2-39-.54-3.85-1.85-6.57-4.67-8.63a16 16 0 0 0-2.36-1.4 20.82 20.82 0 0 0-15.1-1.15c-6.13 1.9-11.15 6.2-16.2 10l-41.4 30.97"/><path d="M641.9 869.47c6.34 4 14.7 3 21.52-.13 8.92-4 16.23-10.84 24.75-15.55 3-1.67 6.42-3 9.86-2.66s7.1 2.46 10.34.52a11.19 11.19 0 0 0 2.46-2.2c7.7-8.53 11.5-18.83 17.37-28.5a4.81 4.81 0 0 0 .94-2.5 4.32 4.32 0 0 0-1.91-3c-5.14-4.2-12.22-5.34-18.84-4.75-13.78 1.22-23.3 10-33.84 17.9q-10.6 8-21.25 15.9"/></g></g><g fill="#f9f1c0" class="B C D"><path d="M667.54 672.26a29.82 29.82 0 0 0 5.88-23c.45-.93 1.8-.9 2.8-.7l8.74 1.74c5.7 1.14 11.53 2.3 16.45 5.18s8.85 7.76 8.9 13.5m61.84 170.36a29.77 29.77 0 0 0-5.89 23c-.45.93-1.8.9-2.8.7l-8.73-1.73c-5.72-1.14-11.54-2.32-16.46-5.18s-8.84-7.76-8.9-13.5" class="E"/><path d="M660.17 755.96a26.35 26.35 0 0 1 6.83-15.51c3-3.23 6.72-5.64 10.4-8a27.09 27.09 0 0 1 7.59-3.83 21.08 21.08 0 0 1 7.26-.38c5.4.5 10.9 2 15 5.53s6.65 9.27 5.2 14.5c-1 3.8-3.94 6.82-7 9.26-4.7 3.7-10.05 6.48-15.36 9.23a35.29 35.29 0 0 1-6.18 2.7c-6.68 1.94-13.92-.3-20-3.75-3.2-1.8-4.04-6.32-3.76-9.75zm23.1 35.08a26.35 26.35 0 0 1 6.84-15.52c3-3.22 6.72-5.64 10.4-8a27.09 27.09 0 0 1 7.55-3.81 21.07 21.07 0 0 1 7.26-.37c5.4.5 10.9 2 15 5.52s6.65 9.27 5.2 14.5c-1 3.8-3.94 6.8-7 9.26-4.7 3.7-10 6.47-15.36 9.22a35.29 35.29 0 0 1-6.18 2.7c-6.68 1.94-13.92-.3-20-3.74-3.17-1.84-4-6.35-3.73-9.77zm23.12 35.06a26.37 26.37 0 0 1 6.83-15.51c3-3.23 6.73-5.64 10.42-8a27.12 27.12 0 0 1 7.55-3.82 21.05 21.05 0 0 1 7.26-.37c5.4.5 10.9 2 15 5.53s6.65 9.27 5.2 14.5c-1 3.8-3.94 6.82-7 9.26-4.7 3.7-10 6.48-15.37 9.22a33.47 33.47 0 0 1-6.17 2.7c-6.68 1.94-13.92-.3-20-3.74-3.12-1.84-4.02-6.34-3.73-9.77zm-69.33-105.2a26.25 26.25 0 0 1 6.83-15.51c3-3.23 6.72-5.65 10.4-8a27.26 27.26 0 0 1 7.55-3.82 21.08 21.08 0 0 1 7.26-.37c5.4.5 10.9 2 15 5.53s6.65 9.27 5.2 14.5c-1 3.8-3.93 6.82-7 9.26-4.7 3.7-10.05 6.48-15.36 9.22a34.46 34.46 0 0 1-6.17 2.7c-6.7 1.94-13.93-.3-20-3.74-3.18-1.84-4.02-6.35-3.73-9.77z"/><g class="E"><path d="M683.17 717.35c2.8 2.2 6.85 1.5 10.2.27 13.1-4.78 23.5-15.87 28.4-28.92a15.54 15.54 0 0 0 1.3-7.36v-3.1a13.15 13.15 0 0 0-.28-1.39v-.1a13.75 13.75 0 0 0-15.8-11.3l-23.45 4.25a58.43 58.43 0 0 1-13 .6c-6.07-.4-9.88-3.85-14.7-7.28a6.79 6.79 0 0 0-2.33-1.23 5.83 5.83 0 0 0-2.24 0c-8.17 1.35-14.15 7.3-20 12.64-2.7 2.47-12 9.9-11.66 13.77a4.74 4.74 0 0 0 1.56 2.68 31 31 0 0 0 18.59 9.14c12.56 1.42 25.37-.83 38-.06"/><path d="M638.36 728.05c3.7 6.5 11.53 9.6 19 10.14 9.76.7 19.44-1.8 29.17-1.87 3.46 0 7 .46 9.93 2.37s4.78 5.13 6.28 8.3c.86 1.82 1.7 3.76 3.28 5 2.8 2.2 6.86 1.5 10.2.27 13.1-4.78 23.5-15.87 28.42-28.93 1.37-3.63 1.5-6.65 0-9.8a14.83 14.83 0 0 0-1.41-2.36 20.72 20.72 0 0 0-12.71-8.21c-6.3-1.25-12.77.14-19 1l-51.18 7.46"/><path d="M661.47 763.12c3.7 6.5 11.52 9.6 19 10.15 9.76.7 19.44-1.8 29.17-1.87 3.45 0 7 .45 9.93 2.36s4.78 5.13 6.28 8.3c.86 1.83 1.7 3.77 3.28 5 2.8 2.2 6.86 1.5 10.2.27 13.1-4.78 23.5-15.87 28.42-28.92 1.36-3.64 1.5-6.66 0-9.8a15.29 15.29 0 0 0-1.41-2.36 20.8 20.8 0 0 0-12.72-8.21c-6.3-1.25-12.76.14-19 1l-51.2 7.47"/><path d="M684.58 798.2c3.7 6.5 11.52 9.6 19 10.15 9.76.7 19.44-1.8 29.17-1.87 3.45 0 7 .46 9.93 2.37s4.78 5.13 6.28 8.3c.86 1.82 1.7 3.76 3.28 5 2.8 2.2 6.86 1.5 10.2.27 13.1-4.8 23.5-15.88 28.42-28.93 1.36-3.64 1.5-6.65 0-9.8a16.67 16.67 0 0 0-1.41-2.36 20.8 20.8 0 0 0-12.72-8.21c-6.3-1.25-12.76.15-19 1.06l-51.2 7.5"/><path d="M707.7 833.27c3.7 6.5 11.52 9.6 19 10.14 9.76.7 19.44-1.78 29.17-1.86 3.45 0 7 .45 9.93 2.36s5.07 5.54 8.84 5.4a11.62 11.62 0 0 0 3.22-.76c10.83-3.83 19.1-11.07 28.85-16.77a4.85 4.85 0 0 0 2-1.75 4.35 4.35 0 0 0-.23-3.57c-2.5-6.16-8.2-10.53-14.3-13.17-12.7-5.5-25.25-2.33-38.28-.4q-13.12 2-26.26 3.83m94.36-110a29.75 29.75 0 0 0 1.49-23.65c.27-1 1.6-1.22 2.62-1.2l8.9.08c5.83 0 11.77.12 17.13 2s10.14 6 11.27 11.6M958 851.38a29.75 29.75 0 0 0-1.49 23.65c-.27 1-1.6 1.2-2.62 1.2l-8.9-.08c-5.83-.05-11.77-.12-17.13-2s-10.14-6-11.27-11.6"/></g><path d="M832.42 790.37a26.37 26.37 0 0 1 3.82-16.52c2.33-3.72 5.55-6.8 8.73-9.82a27.16 27.16 0 0 1 6.71-5.15 21.15 21.15 0 0 1 7.06-1.73c5.4-.53 11.08 0 15.8 2.62s8.26 7.87 7.83 13.28c-.32 3.93-2.6 7.43-5.2 10.4-3.92 4.52-8.66 8.24-13.37 11.93a34.37 34.37 0 0 1-5.56 3.8c-6.2 3.16-13.73 2.3-20.32.06-3.5-1.2-5.16-5.46-5.52-8.88zm29.25 30.13a26.32 26.32 0 0 1 3.82-16.51c2.33-3.73 5.55-6.8 8.73-9.83a27.16 27.16 0 0 1 6.71-5.15 21.15 21.15 0 0 1 7.06-1.73c5.4-.52 11.08 0 15.8 2.63s8.26 7.86 7.83 13.27c-.32 3.93-2.6 7.44-5.2 10.42-3.92 4.5-8.66 8.23-13.37 11.92a34.43 34.43 0 0 1-5.56 3.81c-6.2 3.15-13.73 2.3-20.32 0-3.5-1.14-5.2-5.4-5.52-8.83zm29.25 30.16a26.34 26.34 0 0 1 3.82-16.52c2.33-3.73 5.55-6.8 8.73-9.82a27.2 27.2 0 0 1 6.71-5.16 20.9 20.9 0 0 1 7.06-1.72c5.4-.53 11.08-.05 15.8 2.62s8.26 7.87 7.83 13.28c-.32 3.93-2.6 7.43-5.2 10.4-3.92 4.52-8.66 8.24-13.37 11.93a35 35 0 0 1-5.56 3.8c-6.2 3.15-13.73 2.3-20.32 0-3.44-1.13-5.16-5.4-5.52-8.82zm-87.75-90.43a26.34 26.34 0 0 1 3.83-16.51c2.33-3.73 5.55-6.8 8.73-9.82a27.2 27.2 0 0 1 6.71-5.16 20.9 20.9 0 0 1 7.06-1.72c5.4-.53 11.08 0 15.8 2.62s8.26 7.87 7.83 13.28c-.32 3.93-2.6 7.43-5.2 10.4-3.92 4.52-8.66 8.24-13.37 11.93a35 35 0 0 1-5.56 3.8c-6.2 3.15-13.73 2.3-20.32 0-3.5-1.14-5.17-5.42-5.53-8.83z"/><g class="E"><path d="M847.8 748.15c3.16 1.64 7 .18 10.07-1.64 12-7.15 20.14-20 22.52-33.72a15.71 15.71 0 0 0-.09-7.47l-.55-3a11.72 11.72 0 0 0-.53-1.32v-.1a13.76 13.76 0 0 0-17.7-8.19l-22.23 8.55a57.83 57.83 0 0 1-12.68 3c-6.05.74-10.43-1.93-15.8-4.4a6.83 6.83 0 0 0-2.52-.77 5.81 5.81 0 0 0-2.2.45c-7.77 2.84-12.53 9.8-17.3 16.15-2.2 2.93-10 12-8.88 15.7a4.75 4.75 0 0 0 2 2.34 31 31 0 0 0 20 5.51c12.6-1 24.77-5.56 37.32-7.16"/><path d="M805.78 767.02c4.84 5.7 13.12 7.28 20.54 6.42 9.72-1.13 18.77-5.4 28.3-7.28 3.4-.67 7-.87 10.2.47s5.65 4.15 7.72 7c1.18 1.63 2.37 3.38 4.16 4.3 3.15 1.64 7 .2 10.07-1.64 12-7.14 20.13-20 22.52-33.72.66-3.83.24-6.82-1.82-9.64a15.42 15.42 0 0 0-1.83-2.05 20.75 20.75 0 0 0-14-5.69c-6.42-.06-12.52 2.52-18.5 4.58l-48.9 16.9"/><path d="M835 797.16c4.84 5.7 13.12 7.3 20.54 6.42 9.72-1.13 18.77-5.38 28.3-7.28 3.4-.67 7-.87 10.2.47s5.65 4.15 7.72 7c1.18 1.64 2.37 3.4 4.16 4.3 3.15 1.64 7 .2 10.07-1.63 12-7.15 20.13-20 22.52-33.73.66-3.83.24-6.82-1.82-9.63a14.88 14.88 0 0 0-1.83-2.06 20.75 20.75 0 0 0-14-5.69c-6.42-.05-12.52 2.52-18.5 4.58L853.5 776.8"/><path d="M864.28 827.3c4.84 5.7 13.12 7.3 20.54 6.43 9.72-1.14 18.77-5.4 28.3-7.28 3.4-.68 7-.87 10.2.47s5.65 4.14 7.72 7c1.18 1.63 2.37 3.38 4.16 4.3 3.15 1.64 7 .18 10.07-1.64 12-7.14 20.13-20 22.52-33.72.66-3.83.24-6.82-1.82-9.64a16.13 16.13 0 0 0-1.83-2.06 20.75 20.75 0 0 0-14-5.69c-6.42 0-12.52 2.52-18.5 4.6l-48.9 16.88"/><path d="M893.53 857.45c4.84 5.7 13.12 7.28 20.54 6.42 9.72-1.13 18.76-5.4 28.3-7.28 3.4-.67 7-.87 10.2.47s6 4.5 9.7 3.64a11 11 0 0 0 3-1.35c9.93-5.78 16.7-14.43 25.22-21.85a4.93 4.93 0 0 0 1.65-2.1 4.33 4.33 0 0 0-.89-3.47c-3.62-5.58-10-8.8-16.5-10.26-13.5-3-25.24 2.42-37.67 6.75l-25.1 8.67m-54.24 5.63a29.75 29.75 0 0 0-21.51-10c-.84-.6-.56-1.93-.2-2.88l3.3-8.27c2.15-5.42 4.36-10.93 8.06-15.25s9.23-7.3 14.87-6.32M1041 769.92a29.75 29.75 0 0 0 21.51 9.93c.84.6.56 1.93.2 2.87l-3.3 8.28c-2.15 5.4-4.35 10.93-8.06 15.25s-9.23 7.3-14.87 6.32"/></g><path d="M938.75 865a26.31 26.31 0 0 1-14-9.52c-2.63-3.52-4.34-7.63-6-11.7a27.2 27.2 0 0 1-2.39-8.11 21.27 21.27 0 0 1 .94-7.21c1.46-5.23 4-10.35 8.15-13.8s10.32-4.87 15.2-2.5c3.55 1.72 6 5.1 7.84 8.6 2.8 5.3 4.56 11.05 6.3 16.78a35.41 35.41 0 0 1 1.54 6.55c.7 6.93-2.8 13.65-7.28 19-2.4 2.8-7 2.82-10.3 1.92zm38.65-16.4a26.32 26.32 0 0 1-14-9.52c-2.64-3.52-4.34-7.63-6-11.7a27.2 27.2 0 0 1-2.39-8.11 21 21 0 0 1 .94-7.21c1.46-5.23 4-10.35 8.15-13.8s10.32-4.87 15.2-2.5c3.55 1.72 6 5.1 7.84 8.6 2.8 5.3 4.55 11.05 6.3 16.78a35.41 35.41 0 0 1 1.54 6.58c.7 6.93-2.82 13.64-7.3 19-2.4 2.78-6.98 2.8-10.3 1.9zm38.68-16.4a26.32 26.32 0 0 1-14-9.52c-2.64-3.52-4.34-7.63-6-11.7a27.17 27.17 0 0 1-2.39-8.12 20.76 20.76 0 0 1 .94-7.2c1.46-5.23 4-10.36 8.15-13.8s10.32-4.87 15.2-2.5c3.55 1.7 6 5.1 7.84 8.6 2.8 5.3 4.55 11 6.3 16.77a34.75 34.75 0 0 1 1.55 6.56c.7 6.93-2.82 13.64-7.3 19-2.38 2.8-6.98 2.82-10.3 1.92zm-116 49.2a26.33 26.33 0 0 1-14-9.52c-2.63-3.5-4.33-7.63-6-11.7a26.89 26.89 0 0 1-2.38-8.11 20.81 20.81 0 0 1 .94-7.21c1.45-5.23 3.95-10.35 8.15-13.8s10.32-4.86 15.2-2.5c3.56 1.72 6 5.1 7.84 8.6 2.8 5.3 4.56 11 6.3 16.78a33.8 33.8 0 0 1 1.54 6.56c.7 6.92-2.8 13.64-7.28 19-2.4 2.8-7 2.8-10.3 1.9z"/><g class="E"><path d="M904.92 835.43c2.67-2.36 2.7-6.48 2.1-10-2.35-13.75-11.37-26-23.33-33.18a15.67 15.67 0 0 0-7-2.6l-3-.6a13.42 13.42 0 0 0-1.42 0h-.1a13.77 13.77 0 0 0-14 13.54v23.83a58.09 58.09 0 0 1-1.77 12.9c-1.5 5.9-5.56 9-9.8 13.15a6.8 6.8 0 0 0-1.64 2.07 5.71 5.71 0 0 0-.37 2.21c-.15 8.28 4.62 15.23 8.82 22 2 3.1 7.56 13.63 11.45 14a4.74 4.74 0 0 0 2.91-1.05 30.91 30.91 0 0 0 12.35-16.64c3.66-12.1 3.75-25.1 6.8-37.4"/><path d="M907.35 881.43c7.06-2.46 11.53-9.6 13.4-16.84 2.46-9.47 1.75-19.44 3.43-29 .6-3.4 1.72-6.85 4.12-9.34s5.9-3.78 9.3-4.67c1.95-.52 4-1 5.52-2.33 2.66-2.35 2.7-6.47 2.1-10-2.34-13.75-11.37-26-23.32-33.17-3.33-2-6.27-2.7-9.64-1.8a17.1 17.1 0 0 0-2.58 1 20.79 20.79 0 0 0-10.37 11c-2.37 6-2.16 12.6-2.4 18.9l-.64 17.5-1.28 34.18"/><path d="M946 865.03c7.06-2.46 11.53-9.6 13.4-16.84 2.46-9.47 1.75-19.44 3.43-29 .6-3.4 1.72-6.85 4.12-9.34s5.9-3.78 9.3-4.68c2-.5 4-1 5.52-2.32 2.67-2.35 2.7-6.47 2.1-10-2.34-13.75-11.37-26-23.32-33.17-3.33-2-6.27-2.7-9.65-1.8a16.35 16.35 0 0 0-2.57 1 20.79 20.79 0 0 0-10.37 11c-2.37 6-2.17 12.6-2.4 18.9l-.57 17.47-1.25 34.2"/><path d="M984.7 848.63c7.06-2.46 11.53-9.6 13.4-16.84 2.45-9.47 1.75-19.44 3.43-29 .6-3.4 1.72-6.85 4.12-9.34s5.9-3.78 9.3-4.68c2-.5 4-1 5.52-2.32 2.67-2.35 2.7-6.47 2.1-10-2.34-13.75-11.37-26-23.33-33.17-3.33-2-6.27-2.7-9.64-1.8a16 16 0 0 0-2.57 1 20.84 20.84 0 0 0-10.38 11c-2.36 6-2.16 12.58-2.4 18.9l-.64 17.5-1.26 34.2"/><path d="M1023.36 832.22c7.05-2.45 11.52-9.6 13.4-16.83 2.45-9.48 1.75-19.44 3.42-29 .6-3.4 1.73-6.86 4.12-9.34s6.37-4 6.9-7.73a11.45 11.45 0 0 0-.17-3.3c-1.8-11.34-7.44-20.78-11.28-31.4a4.87 4.87 0 0 0-1.37-2.3 4.36 4.36 0 0 0-3.55-.41c-6.5 1.36-11.83 6.17-15.53 11.7-7.7 11.5-6.85 24.4-7.3 37.57l-1 26.52m-522.67 28.8a29.84 29.84 0 0 0-18.68-14.58c-.67-.78-.1-2 .48-2.84l5.1-7.3c3.33-4.78 6.74-9.64 11.33-13s10.66-5 15.93-2.75"/><path d="M683.32 807.56A29.82 29.82 0 0 0 702 822.14c.67.78.1 2-.48 2.84l-5.1 7.3c-3.33 4.77-6.74 9.64-11.33 13s-10.66 5-15.93 2.75"/></g><path d="M562.08 876.72a26.33 26.33 0 0 1-11.48-12.47c-1.76-4-2.48-8.42-3.18-12.76a27.26 27.26 0 0 1-.47-8.44 21 21 0 0 1 2.57-6.8c2.6-4.76 6.2-9.18 11.08-11.57s11.16-2.38 15.38 1c3.07 2.48 4.67 6.34 5.67 10.16 1.5 5.88 1.9 11.88 2.35 17.88a35.19 35.19 0 0 1 0 6.73c-.9 6.9-5.86 12.64-11.43 16.8-3 2.17-7.47 1.14-10.5-.54zm41.4-7.1A26.28 26.28 0 0 1 592 857.16c-1.76-4-2.47-8.42-3.18-12.75a27 27 0 0 1-.46-8.45 21 21 0 0 1 2.56-6.8c2.6-4.76 6.22-9.17 11.1-11.57s11.16-2.38 15.37 1c3.07 2.5 4.67 6.34 5.67 10.16 1.52 5.8 1.9 11.8 2.3 17.77a34.5 34.5 0 0 1 0 6.74c-.9 6.9-5.86 12.63-11.43 16.8-2.92 2.24-7.43 1.2-10.45-.44zm41.4-7.13a26.33 26.33 0 0 1-11.47-12.48c-1.77-4-2.48-8.4-3.18-12.75a27 27 0 0 1-.47-8.45 21.1 21.1 0 0 1 2.56-6.8c2.62-4.75 6.22-9.17 11.1-11.56s11.16-2.4 15.38 1c3.06 2.48 4.67 6.34 5.67 10.15 1.5 5.8 1.9 11.8 2.3 17.77a34.5 34.5 0 0 1 0 6.74c-.9 6.9-5.86 12.63-11.43 16.8-2.94 2.24-7.4 1.2-10.44-.43zM520.7 883.9a26.33 26.33 0 0 1-11.48-12.47c-1.76-4-2.48-8.42-3.18-12.76a27.26 27.26 0 0 1-.47-8.44 20.93 20.93 0 0 1 2.56-6.8c2.62-4.76 6.22-9.18 11.1-11.57s11.16-2.38 15.38 1c3.07 2.48 4.67 6.34 5.67 10.16 1.5 5.78 1.9 11.8 2.3 17.76a35.3 35.3 0 0 1 0 6.74c-.9 6.9-5.86 12.64-11.43 16.8-2.95 2.24-7.42 1.2-10.44-.43z"/><g class="E"><path d="M535.9 840.23c3.13-1.68 4.1-5.68 4.33-9.23.86-13.92-5.13-27.9-15.12-37.63a15.66 15.66 0 0 0-6.22-4.13l-2.82-1.27a13.68 13.68 0 0 0-1.38-.31h-.1a13.75 13.75 0 0 0-16.7 10l-5.5 23.18a58.7 58.7 0 0 1-4.67 12.17c-2.8 5.4-7.48 7.5-12.55 10.55a6.93 6.93 0 0 0-2.07 1.64 5.91 5.91 0 0 0-.86 2.07c-2 8 1 15.9 3.57 23.4 1.18 3.47 4.24 15 7.95 16.2a4.86 4.86 0 0 0 3.08-.36 31 31 0 0 0 15.82-13.38c6.33-10.94 9.4-23.58 15.16-34.85"/><path d="M527.76 885.57c7.44-.77 13.42-6.7 16.9-13.33 4.55-8.66 6.15-18.52 10-27.47 1.36-3.18 3.25-6.28 6.15-8.16s6.6-2.32 10.12-2.42c2-.06 4.13-.05 5.9-1 3.13-1.68 4.1-5.7 4.33-9.24.86-13.9-5.13-27.9-15.12-37.62-2.8-2.7-5.5-4.05-9-3.94a15.3 15.3 0 0 0-2.73.34 20.82 20.82 0 0 0-12.62 8.37c-3.66 5.27-5 11.75-6.65 17.84l-4.62 16.9-9 33"/><path d="M569.16 878.44c7.43-.77 13.42-6.7 16.9-13.32 4.56-8.67 6.15-18.53 10-27.48 1.36-3.18 3.25-6.28 6.15-8.16s6.6-2.32 10.13-2.42c2-.06 4.13-.05 5.9-1 3.14-1.68 4.1-5.7 4.33-9.24.87-13.9-5.12-27.9-15.12-37.62-2.78-2.7-5.5-4.05-9-3.94a16.27 16.27 0 0 0-2.73.34 20.79 20.79 0 0 0-12.61 8.37c-3.67 5.27-5 11.76-6.65 17.85l-4.64 16.9-9 33"/><path d="M610.55 871.3c7.43-.77 13.42-6.7 16.9-13.32 4.55-8.67 6.14-18.53 10-27.48 1.35-3.18 3.24-6.28 6.14-8.15s6.62-2.33 10.13-2.43c2-.05 4.13 0 5.9-1 3.13-1.68 4.1-5.68 4.33-9.23.86-13.92-5.13-27.9-15.13-37.63-2.78-2.7-5.5-4.05-9-3.94a15.25 15.25 0 0 0-2.72.35 20.77 20.77 0 0 0-12.62 8.36c-3.67 5.27-5 11.76-6.65 17.85l-4.62 16.9-9 33"/><path d="M651.94 864.2c7.44-.78 13.42-6.72 16.9-13.33 4.55-8.66 6.15-18.53 10-27.48 1.36-3.17 3.24-6.28 6.15-8.15s7.1-2.43 8.47-6a11.11 11.11 0 0 0 .59-3.25c.84-11.46-2.5-21.93-3.8-33.15a4.93 4.93 0 0 0-.8-2.56 4.39 4.39 0 0 0-3.37-1.21c-6.64-.17-12.92 3.3-17.8 7.83-10.1 9.43-12.24 22.2-15.7 34.9l-7 25.6M335 813.62a29.77 29.77 0 0 0-23.42-3.63c-1-.36-1.07-1.7-1-2.7l.88-8.86c.58-5.8 1.18-11.7 3.56-16.88s6.86-9.56 12.56-10.17m163.6-78.08a29.75 29.75 0 0 0 23.41 3.63c1 .36 1.07 1.7 1 2.72l-.88 8.86c-.58 5.8-1.2 11.7-3.56 16.87s-6.87 9.56-12.57 10.17"/></g><path d="M419 812.84a26.34 26.34 0 0 1-16.1-5.3c-3.5-2.66-6.27-6.14-9-9.6a27.23 27.23 0 0 1-4.53-7.14 21.09 21.09 0 0 1-1.07-7.19c0-5.43 1-11 4-15.5s8.58-7.5 13.93-6.6c3.9.67 7.17 3.26 9.9 6.1 4.14 4.3 7.42 9.37 10.67 14.4a34.58 34.58 0 0 1 3.28 5.88c2.58 6.47 1 13.9-1.8 20.25-1.4 3.37-5.82 4.64-9.3 4.7zm32.7-26.4a26.34 26.34 0 0 1-16.1-5.3c-3.5-2.65-6.27-6.14-9-9.6a27.23 27.23 0 0 1-4.53-7.14 21.09 21.09 0 0 1-1.07-7.19c0-5.43.95-11 4-15.5s8.58-7.52 13.93-6.6c3.9.67 7.17 3.26 9.9 6.1 4.14 4.3 7.42 9.37 10.67 14.4a34.58 34.58 0 0 1 3.28 5.88c2.58 6.47 1.05 13.9-1.8 20.25-1.44 3.37-5.85 4.64-9.3 4.7zm32.67-26.4a26.34 26.34 0 0 1-16.1-5.3c-3.5-2.65-6.27-6.14-9-9.6a27.23 27.23 0 0 1-4.53-7.14 21 21 0 0 1-1.08-7.19c0-5.43 1-11 4.05-15.5s8.58-7.52 13.93-6.6c3.9.67 7.17 3.26 9.9 6.1 4.14 4.3 7.42 9.37 10.67 14.4a34.58 34.58 0 0 1 3.28 5.88c2.58 6.47 1 13.9-1.8 20.25-1.48 3.37-5.9 4.64-9.33 4.7zm-98 79.2a26.34 26.34 0 0 1-16.1-5.3c-3.5-2.66-6.26-6.14-9-9.6a27.23 27.23 0 0 1-4.53-7.14 21.09 21.09 0 0 1-1.07-7.19c0-5.43.95-11 4-15.5s8.58-7.5 13.93-6.6c3.9.67 7.17 3.26 9.9 6.1 4.14 4.32 7.42 9.38 10.67 14.4a34.58 34.58 0 0 1 3.28 5.88c2.58 6.47 1.05 13.9-1.78 20.25-1.45 3.37-5.86 4.64-9.3 4.7z"/><g class="E"><path d="M378.38 793.72c1.92-3 .82-7-.72-10.17-6-12.58-18.08-21.87-31.54-25.48a15.51 15.51 0 0 0-7.45-.58l-3.08.26a15.27 15.27 0 0 0-1.36.41h-.1a13.75 13.75 0 0 0-9.71 16.86l6.5 22.92a58.27 58.27 0 0 1 1.84 12.9c.2 6.1-2.87 10.2-5.8 15.33a6.74 6.74 0 0 0-1 2.44 5.64 5.64 0 0 0 .25 2.23c2.13 8 8.63 13.38 14.52 18.68 2.72 2.46 11 11 14.84 10.28a4.76 4.76 0 0 0 2.51-1.82 31 31 0 0 0 7.3-19.39c.2-12.64-3.3-25.17-3.75-37.8"/><path d="M393.36 837.25c6.12-4.3 8.45-12.4 8.26-19.87-.25-9.78-3.66-19.17-4.68-28.85-.37-3.44-.23-7.07 1.4-10.12s4.64-5.25 7.66-7.05c1.73-1 3.58-2 4.67-3.75 1.92-3 .82-7-.72-10.18-6-12.57-18.08-21.86-31.54-25.48-3.76-1-6.77-.86-9.77.94a15.43 15.43 0 0 0-2.21 1.63 20.8 20.8 0 0 0-6.94 13.45c-.63 6.4 1.38 12.7 2.9 18.83l12.4 50.22"/><path d="M426 810.85c6.12-4.3 8.45-12.4 8.26-19.87-.25-9.78-3.66-19.17-4.7-28.85-.36-3.44-.22-7.07 1.4-10.12s4.64-5.25 7.66-7c1.73-1 3.58-2 4.67-3.75 1.9-3 .82-7-.72-10.18-6-12.57-18.08-21.86-31.55-25.48-3.75-1-6.76-.86-9.76.94a15.43 15.43 0 0 0-2.21 1.63 20.75 20.75 0 0 0-6.94 13.45c-.63 6.4 1.38 12.7 2.9 18.83l12.4 50.22"/><path d="M458.7 784.45c6.1-4.3 8.45-12.4 8.26-19.87-.25-9.78-3.66-19.17-4.7-28.85-.36-3.44-.23-7.06 1.4-10.12s4.64-5.25 7.66-7c1.73-1 3.58-2.05 4.67-3.75 1.9-3 .8-7-.72-10.18-6-12.57-18.08-21.86-31.55-25.48-3.75-1-6.77-.86-9.76.94a15.43 15.43 0 0 0-2.21 1.63 20.75 20.75 0 0 0-6.94 13.45c-.63 6.4 1.38 12.7 2.9 18.83l12.4 50.22"/><path d="M491.37 758.06c6.1-4.3 8.45-12.4 8.26-19.88-.25-9.78-3.67-19.17-4.7-28.85-.36-3.43-.23-7.06 1.4-10.12s5-5.58 4.5-9.32a11.31 11.31 0 0 0-1.07-3.12c-4.86-10.4-12.86-17.94-19.48-27.1a5 5 0 0 0-1.94-1.84 4.38 4.38 0 0 0-3.54.58c-5.88 3.1-9.68 9.18-11.7 15.5-4.24 13.17.12 25.35 3.3 38.13l6.36 25.77"/></g></g><path d="M1337.3 672.42c0 122-296.68 221-662.65 221S12 794.45 12 672.42" fill="none" class="F G H"/><defs ><path id="B" d="M674.65 556.88a11.78 11.78 0 1 1 12.1-11.78 11.94 11.94 0 0 1-12.1 11.78z"/></defs></svg>