<svg id="Layer_1" data-name="Layer 1" xmlns="http://www.w3.org/2000/svg" xmlns:xlink="http://www.w3.org/1999/xlink" width="2000" height="1545.91" viewBox="0 0 2000 1545.91">
  <defs>
    <radialGradient id="radial-gradient" cx="476.1" cy="1125.86" fy="1579.848541916108" r="453.99" gradientTransform="matrix(0.98, -0.2, 0.2, 0.98, -195.99, 166.34)" gradientUnits="userSpaceOnUse">
      <stop offset="0" stop-color="#ffa084"/>
      <stop offset="0.14" stop-color="#fd997f"/>
      <stop offset="0.34" stop-color="#f68671"/>
      <stop offset="0.58" stop-color="#eb675b"/>
      <stop offset="0.85" stop-color="#db3c3c"/>
      <stop offset="1" stop-color="#d12027"/>
    </radialGradient>
    <radialGradient id="radial-gradient-4" cx="476.85" cy="1022.27" fy="1248.279850476403" r="226.02" xlink:href="#radial-gradient"/>
  </defs>
  <g>
    <g style="isolation: isolate;opacity: 0.986000001430512">
      <g id="layer1">
        <path id="path60" d="M892.29,1109.87c12.74-68.82-2.23-140.64-7.34-165.25C824.27,652.74,678.67,521.39,493.5,585.85c-56.72,20.38-170.55,43-209.58,43.57C77.55,647.79-2.34,827.47,57.76,1116.57c53.77,258.68,252.39,436.73,511.58,382.85,60.75-12.62,112.13-26.92,157.41-65.91,91.29-78.6,144.06-173.8,165.54-323.64Z" style="fill: url(#radial-gradient)"/>
        <path d="M546.3,1388.58c-46.66,9.7-91.32,9.68-132.74-.07-38.61-9.09-74.57-26.63-106.87-52.15C239.1,1283,190.06,1196.74,168.6,1093.53c-29.28-140.87-15.72-221.53.8-264.39C187.58,782,217.92,756.36,267.78,746a228.36,228.36,0,0,1,23.09-3.51C327.47,741.1,380,731.14,409,725.13c28-5.82,81-17.76,122.21-32.51a190.82,190.82,0,0,1,23.57-6.57c44.54-9.26,79.53,2.32,113.44,37.55C700.29,757,744.74,826.4,774.1,967.66c3.86,18.57,15.54,74.75,6.87,121.59l-.43,2.28-.32,2.28c-16.75,116.89-53.65,190.45-127.34,253.91C628.67,1368.56,598,1377.83,546.3,1388.58Z" style="fill: url(#radial-gradient)"/>
      </g>
      <g id="layer1-2" data-name="layer1">
        <path id="path60-2" data-name="path60" d="M892.29,1109.87c12.74-68.82-2.23-140.64-7.34-165.25C824.27,652.74,678.67,521.39,493.5,585.85c-56.72,20.38-170.55,43-209.58,43.57C77.55,647.79-2.34,827.47,57.76,1116.57c53.77,258.68,252.39,436.73,511.58,382.85,60.75-12.62,112.13-26.92,157.41-65.91,91.29-78.6,144.06-173.8,165.54-323.64Z" style="stroke: #3a3632;stroke-width: 20px;isolation: isolate;opacity: 0.986000001430512;fill: url(#radial-gradient)"/>
        <path d="M546.3,1388.58c-46.66,9.7-91.32,9.68-132.74-.07-38.61-9.09-74.57-26.63-106.87-52.15C239.1,1283,190.06,1196.74,168.6,1093.53c-29.28-140.87-15.72-221.53.8-264.39C187.58,782,217.92,756.36,267.78,746a228.36,228.36,0,0,1,23.09-3.51C327.47,741.1,380,731.14,409,725.13c28-5.82,81-17.76,122.21-32.51a190.82,190.82,0,0,1,23.57-6.57c44.54-9.26,79.53,2.32,113.44,37.55C700.29,757,744.74,826.4,774.1,967.66c3.86,18.57,15.54,74.75,6.87,121.59l-.43,2.28-.32,2.28c-16.75,116.89-53.65,190.45-127.34,253.91C628.67,1368.56,598,1377.83,546.3,1388.58Z" style="fill: #ba2115"/>
      </g>
    </g>
    <path id="path60-3" data-name="path60" d="M658.08,1044c4.41-38-4-78.17-6.83-92-34-163.41-103.58-239.44-187.24-207.5-25.62,10.13-77.4,20.33-95.31,19.81-94.37,5.89-127.29,104-93.64,265.89,30.11,144.83,125,247.91,242.9,223.4,27.63-5.74,50.92-12.6,70.89-33.31,40.27-41.76,62.51-93.54,69.23-176.33Z" style="isolation: isolate;opacity: 0.986000001430512;fill: url(#radial-gradient-4)"/>
    <g id="path60-4" data-name="path60" style="isolation: isolate;opacity: 0.986000001430512">
      <path d="M239,856.88c2.94-1.18,5.75-2.43,8.67-3.63l8.6-3.55,4.21-1.72a.72.72,0,0,0,.44-.6.84.84,0,0,0-.37-.88,20.72,20.72,0,0,1-2.48-2.48c-1.23-1.37-2.39-2.79-3.56-4.25l-3.11-4c-1.21-1.58-2.55-3.1-3.93-4.61s-2.8-3-4.34-4.41a45.69,45.69,0,0,0-4.76-4A22.24,22.24,0,0,0,227,818.22a14.56,14.56,0,0,0-6.08.93,15.44,15.44,0,0,0-5.34,3.62,23.3,23.3,0,0,0-4.74,7.55,40,40,0,0,0-2.05,8.88,32.25,32.25,0,0,0-.22,7.33,18.28,18.28,0,0,0,2.12,6.65,14.82,14.82,0,0,0,10.7,7.12C227.39,861.24,233.54,859.05,239,856.88Z" style="fill: #f27769"/>
      <path d="M234.17,928.36c5.24-3.59,10.41-7.39,15.32-11.1l3.69-2.8a.78.78,0,0,0,.29-.73.88.88,0,0,0-.57-.81,21.53,21.53,0,0,1-3-1.9c-1.52-1.09-3-2.24-4.52-3.41l-4-3.21a60.67,60.67,0,0,0-5-3.52,54.45,54.45,0,0,0-11.1-5.67,22.58,22.58,0,0,0-12.2-1.16,14.86,14.86,0,0,0-9.69,7.12,21.41,21.41,0,0,0-2.66,8.08,37.52,37.52,0,0,0,.1,8.67,32.14,32.14,0,0,0,1.46,6.88,19.84,19.84,0,0,0,1.38,3.12,14.81,14.81,0,0,0,14,7.38C223.78,935,229.32,931.67,234.17,928.36Z" style="fill: #f27769"/>
      <path d="M241.11,1000.36c4.76-4.24,9.36-8.73,13.73-13.14l3.28-3.33a.85.85,0,0,0,.19-.79.91.91,0,0,0-.67-.74,20.38,20.38,0,0,1-3.21-1.51c-1.69-.89-3.41-1.83-5-2.79L245,975.41a60.15,60.15,0,0,0-5.42-2.79c-7.26-3.28-16.13-6.13-24-3.17a15.24,15.24,0,0,0-8.58,8.4,19.63,19.63,0,0,0-1.46,8.18,39.85,39.85,0,0,0,1.26,8.4c1.15,4.47,2.92,8.9,6.42,11.75a15.57,15.57,0,0,0,12.45,3.09C231.62,1008.27,236.71,1004.28,241.11,1000.36Z" style="fill: #f27769"/>
      <path d="M256,1071.22c4.19-4.74,8.3-9.71,12.15-14.52l2.89-3.63a.78.78,0,0,0,.1-.79.89.89,0,0,0-.74-.65,19.61,19.61,0,0,1-3.35-1.13c-1.75-.7-3.49-1.45-5.24-2.23l-4.71-2.14a60.8,60.8,0,0,0-5.69-2.19,53,53,0,0,0-12.15-2.69,22.71,22.71,0,0,0-12.08,2,14.93,14.93,0,0,0-7.63,9.26,21,21,0,0,0-.58,8.37,36.52,36.52,0,0,0,2.18,8.33c1.66,4.39,3.94,8.64,7.79,11.11a15.31,15.31,0,0,0,12.74,1.63C247.49,1080.2,252.07,1075.6,256,1071.22Z" style="fill: #f27769"/>
      <path d="M280.83,1138.82c3.45-5.41,6.62-10.92,9.65-16.26l2.27-4a.94.94,0,0,0-.83-1.32,21.24,21.24,0,0,1-3.44-.58c-1.84-.41-3.68-.86-5.54-1.34l-5-1.35c-1.95-.53-4-.92-6-1.26-7.85-1.28-17.07-1.87-24,3a14.92,14.92,0,0,0-6.16,10.39,21.11,21.11,0,0,0,.83,8.4,34.39,34.39,0,0,0,1.46,4.09c.59,1.33,1.29,2.62,2,3.87,2.39,4.1,5.4,7.93,9.54,9.79a15.31,15.31,0,0,0,12.87-.5C274,1149.07,277.7,1143.77,280.83,1138.82Z" style="fill: #f27769"/>
      <path d="M317.51,1200.43c2.14-5.87,4.3-12,6.25-17.75.5-1.47,1-2.91,1.47-4.35a.75.75,0,0,0-.17-.76.86.86,0,0,0-.91-.33,18.29,18.29,0,0,1-3.49.13c-1.87,0-3.75-.13-5.65-.24l-5.14-.36c-2-.14-4.05-.15-6.09-.09a56.23,56.23,0,0,0-12.3,1.51,22.5,22.5,0,0,0-10.73,5.88,14.73,14.73,0,0,0-4.07,11.41c.41,5.66,3.59,11,7.48,15.43a33,33,0,0,0,5.2,4.91,16.73,16.73,0,0,0,6.24,2.91,15,15,0,0,0,12.49-3.07C312.86,1211.89,315.43,1205.91,317.51,1200.43Z" style="fill: #f27769"/>
      <path d="M367.09,1251.48c.64-6.37,1.05-12.62,1.52-18.62.14-1.55.28-3.08.42-4.6a.74.74,0,0,0-.32-.69.83.83,0,0,0-.95-.1,19.36,19.36,0,0,1-3.3,1c-1.82.47-3.66.88-5.53,1.27-1.67.33-3.39.7-5.06,1-1.95.33-3.91.81-5.86,1.34-7.6,2.13-16.41,5.39-20.66,12.64a15,15,0,0,0-1.15,12.14,19.38,19.38,0,0,0,4.51,7.46,43.48,43.48,0,0,0,6.79,5.93c4.14,2.72,8.76,4.86,13.33,4.76a15,15,0,0,0,11.3-6.34,23,23,0,0,0,3.59-8.24A68.51,68.51,0,0,0,367.09,1251.48Z" style="fill: #f27769"/>
      <path d="M429.24,1284.67c-1.55-6.22-3.22-12.2-4.68-18-.35-1.5-.7-3-1-4.47a.71.71,0,0,0-.51-.53.78.78,0,0,0-.9.23,20.19,20.19,0,0,1-2.75,2.07c-1.54,1-3.13,2-4.75,3s-2.94,1.73-4.43,2.52c-1.72,1-3.41,2-5.09,3.15-6.51,4.45-14,10.26-15.75,18.46a14.83,14.83,0,0,0,2.85,11.93,21.19,21.19,0,0,0,3,3.25,27.54,27.54,0,0,0,3.8,2.47,46.89,46.89,0,0,0,8.58,3.48c4.92,1.2,10.11,1.71,14.42.07a14.84,14.84,0,0,0,8.5-9.85C432.16,1296.6,430.65,1290.39,429.24,1284.67Z" style="fill: #f27769"/>
      <path d="M498.91,1292.82c-3.75-5.18-7.55-10.13-11.08-14.92l-2.63-3.75a.72.72,0,0,0-.67-.31.79.79,0,0,0-.75.55,19.89,19.89,0,0,1-1.77,2.94c-1,1.54-2.13,3.06-3.26,4.58-1,1.36-2.08,2.75-3.16,4-1.24,1.52-2.4,3.15-3.54,4.81-4.37,6.53-9.16,14.68-7.79,23a14.85,14.85,0,0,0,7.12,10,17.23,17.23,0,0,0,4.07,1.86,27.17,27.17,0,0,0,4.45.88,45,45,0,0,0,9.28,0c5-.72,10-2.21,13.37-5.32a14.92,14.92,0,0,0,4.19-12.3,23.12,23.12,0,0,0-2.87-8.52A76.12,76.12,0,0,0,498.91,1292.82Z" style="fill: #f27769"/>
      <path d="M568,1277.14c-5.1-3.7-10.13-7.33-14.93-11l-3.6-2.74a.68.68,0,0,0-.72-.08.84.84,0,0,0-.56.76,19.74,19.74,0,0,1-.84,3.33c-.55,1.78-1.16,3.56-1.81,5.34l-1.87,4.77c-.74,1.85-1.35,3.81-1.94,5.74-2.23,7.62-4,16.76-.08,24.2a14.91,14.91,0,0,0,9.63,7.39c5.57,1.37,11.86-.19,17.52-2.69a33.58,33.58,0,0,0,6.59-3.81,19,19,0,0,0,4.86-5.42,14.21,14.21,0,0,0,.29-13C577.93,1284.44,572.7,1280.64,568,1277.14Z" style="fill: #f27769"/>
      <path d="M622.1,1234.34c-6.35-.85-12.63-1.46-18.65-2.07-1.5-.13-3.06-.33-4.58-.51a.75.75,0,0,0-.7.31.83.83,0,0,0-.13,1,20.08,20.08,0,0,1,.91,3.35c.41,1.83.77,3.68,1.1,5.56.28,1.7.56,3.4.84,5.12.34,1.93.81,3.83,1.3,5.79s1,3.89,1.69,5.89a50.79,50.79,0,0,0,2.2,5.83c1.74,3.79,4.07,7.28,7.62,9.58a13.77,13.77,0,0,0,5.83,2.08,16.24,16.24,0,0,0,6.72-.79,18.77,18.77,0,0,0,2.19-.86,18.14,18.14,0,0,0,1.9-1,25.8,25.8,0,0,0,3.55-2.57,38,38,0,0,0,6-6.57c2.8-4,5.12-8.46,5.09-13.06a15,15,0,0,0-5.93-11.49C634.28,1236.13,627.9,1235.09,622.1,1234.34Z" style="fill: #f27769"/>
      <path d="M659.15,1173.74c-3.15.49-6.27,1-9.33,1.59s-6,1.17-9.11,1.66l-4.55.76a.77.77,0,0,0-.58.49.87.87,0,0,0,.15,1,20.21,20.21,0,0,1,1.84,3c.91,1.64,1.78,3.32,2.64,5,.78,1.56,1.47,3.07,2.17,4.63.83,1.81,1.79,3.58,2.8,5.34,4,6.81,9.39,14.54,17.47,16.82a14.92,14.92,0,0,0,12-2,20.2,20.2,0,0,0,3.39-2.75,23.79,23.79,0,0,0,2.7-3.5,45.06,45.06,0,0,0,4-8.06c1.65-4.61,2.44-9.61,1.2-14a13.28,13.28,0,0,0-1.35-3.13,14.88,14.88,0,0,0-2.1-2.63,16.64,16.64,0,0,0-5.42-3.57C671.43,1172.08,665.05,1172.88,659.15,1173.74Z" style="fill: #f27769"/>
      <path d="M679.69,1105.16c-6,2.35-11.73,4.95-17.31,7.5-1.39.65-2.79,1.29-4.22,1.9a.81.81,0,0,0-.46.64.83.83,0,0,0,.35.9,20.35,20.35,0,0,1,2.45,2.48c1.26,1.4,2.48,2.85,3.7,4.32l3.26,4c1.27,1.57,2.68,3.07,4.11,4.53,5.5,5.63,12.62,11.64,21,11.8a15.12,15.12,0,0,0,11.17-4.79,21.49,21.49,0,0,0,4.27-7.33,35,35,0,0,0,1.91-8.52c.47-4.72.22-9.61-2-13.52A15.29,15.29,0,0,0,697.3,1102C691.28,1100.91,685.27,1103,679.69,1105.16Z" style="fill: #f27769"/>
      <path d="M688.3,1033.59l-16,9.64c-1.28.8-2.65,1.54-4,2.28a.72.72,0,0,0-.36.65.82.82,0,0,0,.48.8,19.52,19.52,0,0,1,2.77,2c.72.59,1.44,1.19,2.15,1.81l.53.46.27.24,0,0h0c0-.15-.14,1.31-.07.69h0l.07.06.13.12,1.06,1,3.78,3.52a58.67,58.67,0,0,0,4.7,3.88c6.4,4.75,14.47,9.42,22.78,8.2a15.16,15.16,0,0,0,10.17-6.38,18.75,18.75,0,0,0,2-3.66c.26-.64.49-1.31.69-2l.15-.51,0-.12v0h0c.09-.83-.12,1.12-.1.91v0l0-.07.07-.27c.09-.38.17-.75.26-1.12a41.86,41.86,0,0,0,.82-9.19,35.45,35.45,0,0,0-1-7.33,17.82,17.82,0,0,0-3-6.3,14.7,14.7,0,0,0-11.68-5.41,22.94,22.94,0,0,0-8.78,1.91A62.14,62.14,0,0,0,688.3,1033.59Z" style="fill: #f27769"/>
      <path d="M682,962.25c-4.63,4.36-9,8.92-13.36,13.35l-3.23,3.33a.79.79,0,0,0-.18.77.87.87,0,0,0,.68.72,18.56,18.56,0,0,1,3.2,1.41c1.69.84,3.37,1.74,5,2.66,1.5.84,3,1.68,4.49,2.55,1.75,1,3.58,1.87,5.44,2.7,7.3,3.19,16.09,6.12,24,3.15a15,15,0,0,0,8.55-8.56c2.14-5.28,1.39-11.42-.06-17-1.25-4.56-3.29-9-6.81-11.8a15.32,15.32,0,0,0-12.53-2.73C691.28,954,686.31,958.22,682,962.25Z" style="fill: #f27769"/>
      <path d="M665.11,891.7c-4.11,4.79-8.14,9.86-11.9,14.8l-2.82,3.73a.82.82,0,0,0-.09.8.91.91,0,0,0,.76.66,19.73,19.73,0,0,1,3.38,1.08c1.79.67,3.59,1.38,5.36,2.13l4.76,2.06a55.7,55.7,0,0,0,5.73,2.06c7.63,2.31,16.79,3.93,24.2,0a15.26,15.26,0,0,0,7.42-9.42c1.55-5.35.09-11.18-1.94-16.41-1.7-4.3-4.05-8.43-7.9-10.83a15.45,15.45,0,0,0-12.74-1.46C673.51,882.62,669,887.25,665.11,891.7Z" style="fill: #f27769"/>
      <path d="M640.42,823.83c-3.46,5.33-6.6,10.74-9.81,16.12l-2.36,4a.81.81,0,0,0,0,.8.87.87,0,0,0,.82.54,20.49,20.49,0,0,1,3.47.61c1.85.42,3.71.9,5.57,1.39,1.69.45,3.34.92,5,1.42a55.82,55.82,0,0,0,5.92,1.35c7.82,1.37,17.12,2,24-2.84a15.22,15.22,0,0,0,6.25-10.31,18.36,18.36,0,0,0,.14-4.19,26.21,26.21,0,0,0-.84-4.16,42,42,0,0,0-3.36-8c-2.17-4.16-5.38-8-9.44-9.88A15.06,15.06,0,0,0,653,811C647.51,813.64,643.66,818.9,640.42,823.83Z" style="fill: #f27769"/>
      <path d="M604.19,762.34c-1.07,3-2.08,6-3.06,8.92l-1.45,4.37L598.16,780c-.51,1.46-1,2.9-1.52,4.34a.77.77,0,0,0,.16.75.83.83,0,0,0,.9.31,20,20,0,0,1,3.47-.19c1.88,0,3.78,0,5.69.09,1.71.09,3.37.23,5.09.36,2,.15,4,.16,6,.11,7.91-.23,17.25-1.3,23.11-7.3a15,15,0,0,0,4-11.46c-.24-5.8-3.88-11.14-7.7-15.69a27,27,0,0,0-5.44-5,18.21,18.21,0,0,0-6.37-2.93c-4.55-1.08-9.24.65-12.45,3.36a23,23,0,0,0-5.44,7.13A66.39,66.39,0,0,0,604.19,762.34Z" style="fill: #f27769"/>
    </g>
  </g>
  <path d="M448.65,1029.52c-54.9-86.13,62.3-264,196.09-349.29,38.86-24.77,83.37-45,129.89-51.55a215.57,215.57,0,0,1,72.07,1.57c25.65,5.08,49.07,17.6,74.73,22.62,12.16,2.38,24.36,1.4,52.26-16.87L1807.14,69.92c20.78-14.63,70.73-7.05,95.67,28.67l3.7,5.79c21.84,37.7,7.62,86.18-14.41,98.83l-865,516.51C998.72,737.3,992.68,748,989.7,760c-6.28,25.38-4.82,51.89-11.05,77.29a215.66,215.66,0,0,1-29,66c-25.61,39.39-62.71,71.22-101.58,96-133.78,85.27-344.52,116.4-399.42,30.27" style="fill: #e6e7e8;stroke: #3a3632;stroke-miterlimit: 10;stroke-width: 20px"/>
</svg>
