<svg id="Layer_1" data-name="Layer 1" xmlns="http://www.w3.org/2000/svg" xmlns:xlink="http://www.w3.org/1999/xlink" viewBox="0 0 2000 1550"><defs><radialGradient id="radial-gradient" cx="456.58" cy="1086.06" r="428.65" gradientUnits="userSpaceOnUse"><stop offset="0" stop-color="#ffa084"/><stop offset="0.17" stop-color="#fa9179"/><stop offset="0.49" stop-color="#eb695c"/><stop offset="0.94" stop-color="#d52a2e"/><stop offset="1" stop-color="#d12027"/></radialGradient></defs><path d="M780.24,710.94c-15.19-12.86-40-30.36-78.46-30.25-22.6.07-67.95,6.16-95.57,10.2a120,120,0,0,0-19.41-11.36c-55.93-25.76-187-30.59-265.68,0a112,112,0,0,0-16.22,7.93c-21.79-5.81-54.78-13-81.49-11.75h0c-44,2-65.39,22.91-83.44,36.47C20.81,801.75,20.82,929,31.16,1030.13,53,1206,139.09,1462.66,273.4,1468.89c18.5-.52,37.61-2.06,53.37-5.38a174.06,174.06,0,0,0,74.63,40.21,149,149,0,0,0,54.86,10c32.83-.38,61-8.27,85.2-22.07a176.66,176.66,0,0,0,42.65-28.79,253.23,253.23,0,0,0,54.19,5.79c171.81-28,226.8-287,243.07-438.76C891.92,928.77,895.19,808.26,780.24,710.94Z" style="fill:#e23442;stroke:#231f20;stroke-linecap:round;stroke-linejoin:round;stroke-width:25.0059356689453px"/><path d="M780.24,710.94c-15.19-12.86-40-30.36-78.46-30.25-22.6.07-67.95,6.16-95.57,10.2a120,120,0,0,0-19.41-11.36c-55.93-25.76-187-30.59-265.68,0a112,112,0,0,0-16.22,7.93c-21.79-5.81-54.78-13-81.49-11.75h0c-44,2-65.39,22.91-83.44,36.47C20.81,801.75,20.82,929,31.16,1030.13,53,1206,139.09,1462.66,273.4,1468.89c18.5-.52,37.61-2.06,53.37-5.38a174.06,174.06,0,0,0,74.63,40.21,149,149,0,0,0,54.86,10c32.83-.38,61-8.27,85.2-22.07a176.66,176.66,0,0,0,42.65-28.79,253.23,253.23,0,0,0,54.19,5.79c171.81-28,226.8-287,243.07-438.76C891.92,928.77,895.19,808.26,780.24,710.94Zm55.22,325.91c-14.52,133.05-63.56,360.05-216.8,384.62a229.16,229.16,0,0,1-48.34-5.08,157.77,157.77,0,0,1-38,25.24c-21.58,12.1-46.71,19-76,19.35a134.88,134.88,0,0,1-48.92-8.79,156.09,156.09,0,0,1-66.57-35.25c-14.05,2.91-31.1,4.26-47.6,4.71C173.41,1416.19,96.63,1191.17,77.14,1037c-9.22-88.67-9.23-200.2,97.05-278.72,16.1-11.89,35.22-30.21,74.42-32,22.3-1,44.05,3.73,65.65,8.61,17.84,4,35.58-4,52.58.49,14.28,3.75,22.45,19.84,22.08,34.61-.4,15.89-8.06,36.38-18.7,48.34-8.44,9.49-19.27,16.45-29.2,24.35-21.27,16.92-39,39-47.5,64.83-18.26,55.59.16,144.76,38.84,188.78,12.07,13.73,27.53,24,45.47,28.05,35.75,8.14,71.67-6.44,107-1,35.71,5.46,73.39,9.72,107.43-5.57,36.42-16.37,56.31-50.73,64.2-88.57,5.9-28.32,3.84-58.1-4-85.85s-21.41-54-40.94-75.21c-22.46-24.33-63.82-34.39-56.9-75.34,3.95-23.34,24.33-52,49.39-55.15,9.24-1.16,18.45-2.44,27.69-3.51,14.41-1.67,29-3.42,43.51-3.46,34.26-.1,56.43,15.24,70,26.51C847.79,842.53,844.87,948.18,835.46,1036.85Z" style="stroke:#231f20;stroke-linecap:round;stroke-linejoin:round;stroke-width:25.0059356689453px;fill:url(#radial-gradient)"/><path d="M395.88,788.1a.36.36,0,0,1,0-.09h0a30.82,30.82,0,0,1-1.76-3.33c-.92-1.83-1.79-3.63-2.77-5.41-.87-1.6-1.73-3.16-2.67-4.68a35.39,35.39,0,0,0-3.71-4.86,32.52,32.52,0,0,0-9.49-7.3,24.81,24.81,0,0,0-11.49-2.61,20.3,20.3,0,0,0-5.45.86,15.77,15.77,0,0,0-4.56,2.18c-3.35,2.37-4.77,5.82-5.82,9.27a14.08,14.08,0,0,0-.14,9.13,21.23,21.23,0,0,0,7.18,9.26,22.43,22.43,0,0,0,7.8,3.74,32.87,32.87,0,0,0,8.69,1,63.33,63.33,0,0,0,18.91-3.47c1.59-.52,3.15-1.11,4.71-1.76a1.27,1.27,0,0,0,.64-.78A1.23,1.23,0,0,0,395.88,788.1Z" style="fill:#f2cf91"/><path d="M334.93,831.38a112.34,112.34,0,0,0,17.44,6.07c1.52.4,3.06.75,4.62,1.06a1.22,1.22,0,0,0,1.29-1.17v-.11a23.82,23.82,0,0,1,0-3.59c.09-2,.17-3.95.26-5.91.07-1.77.12-3.53.12-5.3a34.85,34.85,0,0,0-.57-6.06,32.59,32.59,0,0,0-4-11.26,24.74,24.74,0,0,0-8.26-8.39,17.51,17.51,0,0,0-10.11-2.8c-4.18.28-7.6,2.73-10.86,5.74-2.68,2.46-5.26,5.62-6.2,9.61a15.61,15.61,0,0,0,2.44,12C324.31,826.09,329.76,829.07,334.93,831.38Z" style="fill:#f2cf91"/><path d="M284.42,858.41a22.25,22.25,0,0,0,7.6,4.1,56.56,56.56,0,0,0,8.47,2c1.49.26,3,.5,4.46.72l4.49.69,8.8,1.27,4.34.63a.7.7,0,0,0,.66-.28.78.78,0,0,0,.14-.89,20,20,0,0,1-.83-3.21c-.36-1.75-.71-3.55-1-5.32-.23-1.61-.47-3.22-.7-4.85-.28-1.91-.68-3.79-1.12-5.68a52.56,52.56,0,0,0-3.87-11.22,22.1,22.1,0,0,0-7.59-9,14.44,14.44,0,0,0-11.39-1.81,19.4,19.4,0,0,0-7.09,3.71,34.54,34.54,0,0,0-5.7,6c-.69.89-1.35,1.81-1.95,2.75a24.73,24.73,0,0,0-1.56,3,16,16,0,0,0-1.49,6.31,13.38,13.38,0,0,0,1.45,6.23A16.05,16.05,0,0,0,284.42,858.41Z" style="fill:#f2cf91"/><path d="M260.82,905.82c5.48,2,11.7,1.1,17.19.12,6-1.07,11.82-2.25,17.53-3.2,1.43-.24,2.82-.49,4.27-.7a.69.69,0,0,0,.53-.44.72.72,0,0,0-.17-.86,18.72,18.72,0,0,1-1.86-2.7c-1-1.52-1.78-3-2.63-4.63-.75-1.42-1.49-2.87-2.23-4.33-.83-1.69-1.77-3.35-2.78-5s-2.08-3.3-3.24-4.91a44,44,0,0,0-3.78-4.64,21.89,21.89,0,0,0-9.89-6.4,14.17,14.17,0,0,0-5.81-.37,14.88,14.88,0,0,0-5.7,2.19,19.49,19.49,0,0,0-5.76,5.95,28,28,0,0,0-2.05,3.78,36.74,36.74,0,0,0-1.6,4,30.23,30.23,0,0,0-1.52,6.82,17.48,17.48,0,0,0,.67,6.64A14.54,14.54,0,0,0,260.82,905.82Z" style="fill:#f2cf91"/><path d="M254.11,957.55c5.82.46,11.49-2,16.56-4.57,2.73-1.38,5.36-2.84,8-4.31s5.25-3,7.79-4.43l3.85-2.19a.71.71,0,0,0,.36-.64.78.78,0,0,0-.43-.81,20.2,20.2,0,0,1-2.64-2.07c-1.39-1.18-2.69-2.39-4-3.63l-3.54-3.41c-1.41-1.34-2.84-2.58-4.35-3.8a53.87,53.87,0,0,0-9.93-6.51,21.9,21.9,0,0,0-11.51-2.51,14.39,14.39,0,0,0-10.12,5.59,19.84,19.84,0,0,0-3.35,7.26,38.67,38.67,0,0,0-.88,8.08c0,4.39.75,8.87,3.31,12.27A14.93,14.93,0,0,0,254.11,957.55Z" style="fill:#f2cf91"/><path d="M258.68,1008.71c5.8-.61,11-4.09,15.45-7.56,4.76-3.75,9.41-7.79,13.78-11.77l3.33-3a.78.78,0,0,0,.22-.73.82.82,0,0,0-.6-.73,20.49,20.49,0,0,1-3-1.55c-1.61-.9-3.14-1.85-4.69-2.82l-4.2-2.66c-1.65-1-3.36-1.94-5.09-2.81-6.82-3.34-15.26-6.33-22.93-3.85a14.75,14.75,0,0,0-8.61,7.52,19.37,19.37,0,0,0-1.72,7.53,36.74,36.74,0,0,0,.77,7.83,27.11,27.11,0,0,0,1.94,6.08,14.4,14.4,0,0,0,15.35,8.53Z" style="fill:#f2cf91"/><path d="M286,1048.06c2-2.26,4-4.59,5.95-6.92s3.76-4.69,5.63-7l2.75-3.54a.77.77,0,0,0,0-.85.79.79,0,0,0-.37-.4l-.06,0-.11,0a.59.59,0,0,0-.14-.06,18.37,18.37,0,0,1-3.21-1c-1.71-.62-3.41-1.3-5.11-2l-4.6-1.9a53.87,53.87,0,0,0-5.49-1.9c-7.37-2.1-16.09-3.56-23.25.23a14.56,14.56,0,0,0-7.16,8.86,18,18,0,0,0-.41,7.69,32.74,32.74,0,0,0,2.1,7.57c.39,1,.82,2,1.29,2.93a24.34,24.34,0,0,0,1.66,2.74,16.34,16.34,0,0,0,4.44,4.37,15.26,15.26,0,0,0,12.19,1.4C277.76,1056.57,282.24,1052.24,286,1048.06Z" style="fill:#f2cf91"/><path d="M306.5,1091.54c1.47-2.62,3-5.33,4.35-8l4.11-7.93c.68-1.32,1.35-2.64,2-3.94a.73.73,0,0,0-.12-.82.71.71,0,0,0-.43-.29l-.07,0h-.1l-.16,0a19.54,19.54,0,0,1-3.3-.32c-1.79-.25-3.58-.55-5.38-.88-1.62-.28-3.23-.61-4.84-.94a54.11,54.11,0,0,0-5.75-.79,51.76,51.76,0,0,0-11.86.1,22.34,22.34,0,0,0-10.93,4.39,14.36,14.36,0,0,0-5.37,10.12,17.8,17.8,0,0,0,.13,3.93,22.64,22.64,0,0,0,1,3.84,31.19,31.19,0,0,0,1.6,3.71c.63,1.2,1.34,2.37,2.07,3.5.6.93,1.23,1.83,1.91,2.7a23.54,23.54,0,0,0,2.26,2.42,16.17,16.17,0,0,0,5.38,3.48,14.78,14.78,0,0,0,12.26-1.23C300.36,1101.69,303.73,1096.41,306.5,1091.54Z" style="fill:#f2cf91"/><path d="M341,1103.92a.72.72,0,0,0-.84-.09,19.4,19.4,0,0,1-3.09.93c-1.72.43-3.41.73-5.16,1-1.59.28-3.15.47-4.76.69-.93.12-1.87.27-2.82.44s-1.87.33-2.82.52a57,57,0,0,0-11.38,3.35,21.94,21.94,0,0,0-9.4,7.09,14.31,14.31,0,0,0-2.18,11.5c1.32,5.47,5.58,10.18,10.25,13.76,3.84,3,8.36,5.27,12.92,5.26a13,13,0,0,0,6.38-1.66,15,15,0,0,0,4.69-4.11,22.28,22.28,0,0,0,3.57-7.9,69.87,69.87,0,0,0,1.54-8.53c.77-6,1.57-11.9,2.54-17.48.27-1.41.53-2.81.79-4.2A.62.62,0,0,0,341,1103.92Z" style="fill:#f2cf91"/><path d="M381,1141.85c-2.28-5.68-4.7-11-6.62-16.47-.48-1.34-1-2.66-1.43-4a.6.6,0,0,0-.51-.4.68.68,0,0,0-.73.35,17.87,17.87,0,0,1-2.11,2.37c-1.22,1.25-2.49,2.36-3.82,3.5s-2.43,2-3.7,3c-1.48,1.13-2.94,2.36-4.39,3.59s-2.9,2.53-4.34,3.9a48.54,48.54,0,0,0-4.11,4.36,21.27,21.27,0,0,0-5.14,10.6,13.23,13.23,0,0,0,.54,5.86,15,15,0,0,0,3.3,5.49,20.25,20.25,0,0,0,3.41,2.81,25.33,25.33,0,0,0,4.05,2.08,33.71,33.71,0,0,0,8.89,2.19c1.21.15,2.43.25,3.63.3a19.08,19.08,0,0,0,3.56-.14,18.21,18.21,0,0,0,6.43-2.08,12.33,12.33,0,0,0,4.59-4.59,15.93,15.93,0,0,0,2.05-5.9,22.23,22.23,0,0,0-.69-8.62A66.31,66.31,0,0,0,381,1141.85Z" style="fill:#f2cf91"/><path d="M417.5,1125.71l-3-3.39a.79.79,0,0,0-.74-.23.84.84,0,0,0-.77.58,20.78,20.78,0,0,1-1.66,3c-1,1.58-1.95,3.12-2.94,4.64l-2.72,4.15a54.85,54.85,0,0,0-2.89,5,51.2,51.2,0,0,0-4.32,11,22.22,22.22,0,0,0,0,11.78,14.63,14.63,0,0,0,7.47,8.76,19.45,19.45,0,0,0,7.5,1.85,36.15,36.15,0,0,0,7.64-.59c4-.73,8-2.16,10.7-5.09a16.12,16.12,0,0,0,3.91-11.47c-.2-5.84-3.25-11.23-6.55-15.87A168.12,168.12,0,0,0,417.5,1125.71Z" style="fill:#f2cf91"/><path d="M475.05,1129.53c-.87-1.33-1.8-2.65-2.76-4s-2-2.51-3-3.75-2.11-2.47-3.22-3.68a1.09,1.09,0,0,0-.88-.3,1.11,1.11,0,0,0-1,.42l-.06.08h0a30.25,30.25,0,0,1-2.23,2.86l-3.73,4.54c-1.09,1.36-2.2,2.68-3.22,4.1a41.35,41.35,0,0,0-3.14,5.1c-3.65,6.85-5.93,15.4-3.28,23a15.11,15.11,0,0,0,9.82,9.92,15,15,0,0,0,3.09.7,23.66,23.66,0,0,0,3.14.15c1,0,2,0,3-.13a21.08,21.08,0,0,0,2.47-.38,19.87,19.87,0,0,0,2.36-.6A12.94,12.94,0,0,0,477,1165c2.75-2.37,4.77-6.39,5.58-10.39,1.18-5.72-.36-11.64-2.85-16.94A69.88,69.88,0,0,0,475.05,1129.53Z" style="fill:#f2cf91"/><path d="M528.7,1143.5c-1.29-2.77-2.66-5.46-4.07-8.15s-2.9-5.35-4.38-7.94l-2.27-3.9a.79.79,0,0,0-.68-.37.82.82,0,0,0-.87.42,22.36,22.36,0,0,1-2.22,2.58c-1.26,1.34-2.54,2.68-3.86,4l-3.55,3.52a50.91,50.91,0,0,0-3.85,4.43c-4.73,6-9.11,13.74-8.15,21.74a14.86,14.86,0,0,0,5.44,9.87,17.57,17.57,0,0,0,6.72,3.21,35.27,35.27,0,0,0,7.59.94c4.2.06,8.51-.53,12-3a13.55,13.55,0,0,0,4.15-4.7,17,17,0,0,0,1.9-5.93,22.32,22.32,0,0,0-.78-8.6A51.7,51.7,0,0,0,528.7,1143.5Z" style="fill:#f2cf91"/><path d="M576.48,1141.32c-1.91-2.35-3.87-4.72-5.79-7l-5.72-6.77q-1.43-1.68-2.82-3.36a.73.73,0,0,0-.78-.2.71.71,0,0,0-.42.29l-.05,0a1,1,0,0,1,0,.1s-.06.08-.07.13a16.35,16.35,0,0,1-1.5,3c-.89,1.54-1.83,3.07-2.8,4.6l-2.68,4.14c-1.06,1.58-2,3.24-2.94,5a52.55,52.55,0,0,0-4.52,11,22.18,22.18,0,0,0-.23,11.77,14.34,14.34,0,0,0,7.3,8.88,18.29,18.29,0,0,0,7.75,1.92,25.94,25.94,0,0,0,4.13-.07c1.39-.15,2.77-.36,4.12-.61,1.12-.21,2.22-.46,3.31-.76a26.33,26.33,0,0,0,3.17-1.23,17.17,17.17,0,0,0,5.35-3.74,14.62,14.62,0,0,0,3.36-12C583.74,1150.66,580,1145.64,576.48,1141.32Z" style="fill:#f2cf91"/><path d="M619.79,1123.84c-5.27-2.73-10.69-5.66-15.58-8.41-1.22-.67-2.48-1.44-3.71-2.18a.64.64,0,0,0-.75,0,.58.58,0,0,0-.26.4s0,0,0,0a.41.41,0,0,0,0,.11.59.59,0,0,0,0,.14,19.39,19.39,0,0,1-.21,3.24c-.2,1.73-.42,3.56-.78,5.26-.31,1.54-.66,3.1-1,4.68-.41,1.84-.72,3.74-1,5.68a57.8,57.8,0,0,0-.74,11.78,21.72,21.72,0,0,0,3.45,11.27,13.84,13.84,0,0,0,4.25,4,15.09,15.09,0,0,0,2.78,1.31,14.1,14.1,0,0,0,3.1.65,19,19,0,0,0,4.19-.06,18.74,18.74,0,0,0,4.19-.93,45.67,45.67,0,0,0,7.94-3.82,33.41,33.41,0,0,0,5.54-4.52,17.72,17.72,0,0,0,2.18-2.66,15.69,15.69,0,0,0,1.5-3,14.06,14.06,0,0,0-1.5-12.3C630.23,1129.59,624.71,1126.48,619.79,1123.84Z" style="fill:#f2cf91"/><path d="M668.54,1094.39a22.15,22.15,0,0,0-8-3.24,64.69,64.69,0,0,0-8.62-1.09c-3-.22-6-.38-9-.53s-6-.4-8.81-.61l-4.27-.33a.69.69,0,0,0-.61.28.71.71,0,0,0,0,.86,18,18,0,0,1,1.14,3c.54,1.67,1,3.38,1.48,5.12s.72,3.09,1.08,4.67c.39,1.83.91,3.67,1.47,5.53a64.17,64.17,0,0,0,4.31,11,21.75,21.75,0,0,0,7.84,8.79,13.94,13.94,0,0,0,5.59,1.84,14.29,14.29,0,0,0,6.14-.76,18.94,18.94,0,0,0,7.18-4.46,37.59,37.59,0,0,0,3-3.19c.46-.57.93-1.13,1.35-1.72s.8-1.2,1.18-1.81a33.1,33.1,0,0,0,3.16-6.22,18.15,18.15,0,0,0,.89-6.6A14.25,14.25,0,0,0,668.54,1094.39Z" style="fill:#f2cf91"/><path d="M687.32,1045.44c-5.59-1.72-11.68-.52-17.13.84-3,.74-5.91,1.54-8.79,2.36l-4.28,1.26-4.29,1.21-4.23,1.21a.67.67,0,0,0-.48.52.79.79,0,0,0,.25.89,17.69,17.69,0,0,1,2.08,2.58c1,1.43,2,2.91,3,4.42s1.77,2.75,2.67,4.14c1,1.6,2.11,3.15,3.29,4.69a54.75,54.75,0,0,0,8.09,8.73,21.89,21.89,0,0,0,10.54,5.22,14.3,14.3,0,0,0,11.18-3,18.1,18.1,0,0,0,1.53-1.36,16,16,0,0,0,1.3-1.54,23.15,23.15,0,0,0,2.17-3.46,26.78,26.78,0,0,0,1.66-3.81c.43-1.31.8-2.64,1.12-4,1.15-4.34,1.27-9-.34-12.89A15,15,0,0,0,687.32,1045.44Z" style="fill:#f2cf91"/><path d="M706.94,1011.08a28.59,28.59,0,0,0-.93-6.54,16.14,16.14,0,0,0-2.83-5.72,13.08,13.08,0,0,0-5.06-3.86,16.38,16.38,0,0,0-6.06-1.4c-5.86-.2-11.39,2.53-16.35,5.28-2.66,1.49-5.26,3-7.82,4.6s-5.13,3.13-7.62,4.67l-3.77,2.31a.72.72,0,0,0-.34.64.81.81,0,0,0,.47.8,19.12,19.12,0,0,1,2.71,2c1.39,1.12,2.75,2.29,4.11,3.49s2.46,2.18,3.66,3.28a57.32,57.32,0,0,0,4.47,3.66,54.31,54.31,0,0,0,10.13,6.16,22.1,22.1,0,0,0,11.59,2.09,14.24,14.24,0,0,0,5.5-1.85,14.7,14.7,0,0,0,4.43-4.06C706.41,1022.25,707.08,1016.47,706.94,1011.08Z" style="fill:#f2cf91"/><path d="M684.1,942.41c-5.74,1.12-10.57,5-14.72,8.84-2.26,2.07-4.44,4.19-6.56,6.31s-4.26,4.28-6.31,6.39l-3.1,3.18a.75.75,0,0,0-.14.83.72.72,0,0,0,.32.42l0,0,.11,0a.39.39,0,0,0,.13.06,20.07,20.07,0,0,1,3.09,1.3c1.67.77,3.24,1.59,4.86,2.44l4.36,2.34a57,57,0,0,0,5.23,2.47,52.15,52.15,0,0,0,11.36,3.45,22.23,22.23,0,0,0,11.74-.89,14.5,14.5,0,0,0,4.85-3.13,15,15,0,0,0,3.3-5,18.9,18.9,0,0,0,1.24-7.76,37.35,37.35,0,0,0-1.33-7.93,30,30,0,0,0-2.41-6,16.73,16.73,0,0,0-4.06-4.85A15,15,0,0,0,684.1,942.41Z" style="fill:#f2cf91"/><path d="M652.68,906.18c-3.49,5-6.64,10.15-9.79,15.18l-2.32,3.77a.77.77,0,0,0,0,.84.72.72,0,0,0,.4.34l.06,0h.11a.66.66,0,0,0,.15,0,20.56,20.56,0,0,1,3.29.59c1.77.4,3.55.84,5.28,1.33l4.75,1.34c1.87.52,3.75.92,5.66,1.27a51.54,51.54,0,0,0,11.85.88,22.15,22.15,0,0,0,11.25-3.46,14.58,14.58,0,0,0,6.2-9.66,19.41,19.41,0,0,0-.49-7.83,36.23,36.23,0,0,0-3-7.44c-2.05-3.87-4.89-7.43-8.7-9.27a15,15,0,0,0-12.29.15C659.75,896.65,655.88,901.57,652.68,906.18Z" style="fill:#f2cf91"/><path d="M623,875.05c-.95,2.86-1.88,5.69-2.8,8.46-.46,1.41-.92,2.8-1.37,4.19a.72.72,0,0,0,.25.78.72.72,0,0,0,.46.22h.07s.07,0,.1,0h.15a20.55,20.55,0,0,1,3.31-.24c1.79,0,3.61,0,5.43,0l4.89.16c1.92.07,3.88,0,5.81-.11A51.31,51.31,0,0,0,651,886.61a22.14,22.14,0,0,0,10.17-5.94,14.48,14.48,0,0,0,3.74-10.89c-.42-5.3-3.55-10.19-7.21-14.19-.74-.83-1.53-1.63-2.34-2.38a25.27,25.27,0,0,0-2.62-2,15.91,15.91,0,0,0-5.9-2.56A15,15,0,0,0,635,851.78a22.8,22.8,0,0,0-5.42,6.75,55.7,55.7,0,0,0-3.52,8C625,869.31,624,872.19,623,875.05Z" style="fill:#f2cf91"/><path d="M603,855.86a51.42,51.42,0,0,0,5.45-2A53.51,53.51,0,0,0,619,848.31a21.78,21.78,0,0,0,7.72-8.89,14.08,14.08,0,0,0,1.17-5.67,15.27,15.27,0,0,0-1.22-5.89c-2.08-4.88-6.35-8.24-10.43-10.66-3.35-2-7-3.36-10.72-2.93A17.59,17.59,0,0,0,595,820.08c-4,4.31-5.62,10.25-6.31,15.95a121.07,121.07,0,0,0-.61,18.56c0,1.53.09,3.07.17,4.61a1,1,0,0,0,1.43.76,21.31,21.31,0,0,1,3.24-1.13c1.77-.55,3.52-1.08,5.31-1.58Z" style="fill:#f2cf91"/><path d="M592.06,800.31a10.19,10.19,0,0,0-1.79-7.39,7,7,0,0,0-.82-1,5.29,5.29,0,0,0-1.07-.94,14.59,14.59,0,0,0-3.25-1.8c-.72-.3-1.58-.55-2.44-.82a27.5,27.5,0,0,0-2.75-.71,32.27,32.27,0,0,0-6.09-.69,22.21,22.21,0,0,0-8.46,1.57,25.66,25.66,0,0,0-7.44,4.63,39.71,39.71,0,0,0-11.17,16.92,48.4,48.4,0,0,0-1.6,5.42,1.85,1.85,0,0,0,.27,1.21,1.7,1.7,0,0,0,.95.93l.1,0h0c1.35.34,2.75.9,3.94,1.29s2.13.69,3.18,1,2.13.55,3.18.8,1.88.42,2.8.6,1.88.28,2.8.39a31.07,31.07,0,0,0,3.16.18c1,0,2.08-.11,3.1-.22a29.53,29.53,0,0,0,11.4-3.69,24.91,24.91,0,0,0,8.54-8.1A21.71,21.71,0,0,0,592.06,800.31Z" style="fill:#f2cf91"/><path id="path915" d="M757.61,617.55a23.36,23.36,0,0,0-11.07-29.46c-4.16-2.17-149.22,8.49-249.44,42.09-3.66-40,59.6-145.69,62-176.08,2.36-29.4-23.93-46.29-60.5-53-35-6.33-71.82-3.12-85.63,19.15s.39,178.19,0,211c-103.78-31.82-232.63-45.13-236.58-43A23.53,23.53,0,0,0,166,618.53c23.8,40.46,89.47,70.53,89.47,70.53,173.93,31.62,227.36,40.19,391.68,13.08C647.11,702.14,717.15,660.38,757.61,617.55Z" style="fill:#1f8441;stroke:#231f20;stroke-width:24px"/><path d="M1604.4,525.75S1360.88,682.64,1120.59,796.9C840.52,930.07,552.7,1015.66,516.25,953.44,492,912.1,1458.76,301.37,1458.76,301.37Z" style="fill:#d0d2d3;stroke:#231f20;stroke-miterlimit:10;stroke-width:24px"/><path d="M1961.52,176.49l-375,164.87a39.61,39.61,0,0,0-23.56,39h0a39.59,39.59,0,0,1-21.22,37.9l-5.33,2.77-79-121.76,34.81-22.59,13.79-8.95,351.31-228c11-7.14,26.4-2.95,34.39,9.35l76.6,91.41C1976.67,153.36,1973.56,169.88,1961.52,176.49Z" style="fill:#231f20"/></svg>