<svg xmlns="http://www.w3.org/2000/svg" xmlns:xlink="http://www.w3.org/1999/xlink" height="1150.961" width="1979.516" xmlns:v="https://vecta.io/nano"><style><![CDATA[.B{stroke-linecap:round}.C{stroke:#a12021}.D{stroke-width:40.962}.E{stroke:#dd586a}.F{stroke-width:27.771}.G{stroke-width:23.65}.H{stroke-miterlimit:10}]]></style><g fill="#fff" stroke="#231f20" class="G H"><path d="M87.38 1138.96h1767.8c55.65 0 87.3-44.9 71.18-98.62l-91.6-305.3c-12.77-42.54-61.36-76.12-108.87-76.12H216.67c-47.52 0-96.1 33.58-108.88 76.12l-91.6 305.3c-16.12 53.72 15.55 98.62 71.18 98.62z"/><path d="M166.03 985.36c26.14 0 52.23-20.25 58.2-44.87l35.3-145.64c5.33-22-10-39.6-34.26-39.6s-48.64 17.6-54.64 39.6l-39.7 145.64c-6.7 24.62 8.97 44.87 35.1 44.87z"/></g><g fill="none" class="B"><g class="C D"><use xlink:href="#B"/><path d="M358.86 729.68a53 53 0 0 0 71 0l13.66-12.32a53 53 0 0 1 71 0l13.6 12.32a53 53 0 0 0 71 0l13.62-12.37a53 53 0 0 1 71 0l13.65 12.37a53 53 0 0 0 71 0l13.66-12.32a53 53 0 0 1 71 0l13.6 12.32a53 53 0 0 0 71 0l13.66-12.32a53 53 0 0 1 71 0l13.6 12.32a53 53 0 0 0 71 0"/><use xlink:href="#B" y="-121.15"/></g><g class="E F"><use xlink:href="#B" y="-27.77"/><path d="M358.86 701.86a53 53 0 0 0 71 0l13.66-12.33a53 53 0 0 1 71 0l13.65 12.33a53 53 0 0 0 71 0l13.58-12.33a53 53 0 0 1 71 0l13.65 12.33a53 53 0 0 0 71 0l13.66-12.33a53 53 0 0 1 71 0l13.65 12.33a53 53 0 0 0 71 0l13.66-12.33a53 53 0 0 1 71 0l13.65 12.33a53 53 0 0 0 71 0"/><use xlink:href="#B" y="-148.92"/></g></g><path d="M1587.54 516.55s-251 161.73-498.7 279.5c-288.7 137.27-585.37 225.5-622.95 161.36-25-42.6 971.54-672.15 971.54-672.15z" fill="#d1d3d4" stroke="#231f20" class="G H"/><path d="M1955.66 156.54l-386.52 169.94a40.81 40.81 0 0 0-24.28 40.2h0a40.81 40.81 0 0 1-21.87 39.06l-5.5 2.86-81.46-125.5 412.22-267.52c11.34-7.36 27.2-3 35.45 9.64l79 94.23c8.58 13.23 5.37 30.23-7.04 37.1z" fill="#231f20"/><g fill="none" class="B"><g class="C D"><path d="M1066.52 875.01a53 53 0 0 0 71 0l13.64-12.33a53 53 0 0 1 71 0l13.6 12.33a53 53 0 0 0 71 0"/><use xlink:href="#C"/></g><g class="E F"><use xlink:href="#C" y="32.81"/><use xlink:href="#C" y="-27.75"/></g><path d="M822.33 965.93a53 53 0 0 0 71 0L907 953.6a53 53 0 0 1 71 0l13.65 12.32a53 53 0 0 0 71 0m-240.32-60.57a53 53 0 0 0 71 0L907 893.04a53 53 0 0 1 71 0l13.65 12.32a53 53 0 0 0 71 0" class="C D"/><path d="M822.33 938.16a53 53 0 0 0 71 0L907 925.84a53 53 0 0 1 71 0l13.65 12.32a53 53 0 0 0 71 0M822.33 877.6a53 53 0 0 0 71 0L907 865.26a53 53 0 0 1 71 0l13.65 12.33a53 53 0 0 0 71 0" class="E F"/><path d="M1121.4 1019.86a53 53 0 0 0 71 0l13.65-12.32a53 53 0 0 1 71 0l13.66 12.32a53 53 0 0 0 71 0m-240.3-60.57a53 53 0 0 0 71 0l13.65-12.33a53 53 0 0 1 71 0l13.66 12.33a53 53 0 0 0 71 0" class="C D"/><path d="M1121.4 992.1a53 53 0 0 0 71 0l13.65-12.32a53 53 0 0 1 71 0l13.66 12.32a53 53 0 0 0 71 0m-240.3-60.57a53 53 0 0 0 71 0l13.65-12.33a53 53 0 0 1 71 0l13.66 12.33a53 53 0 0 0 71 0" class="E F"/></g><defs ><path id="B" d="M358.86 790.2a53 53 0 0 0 71 0l13.66-12.32a53 53 0 0 1 71 0l13.65 12.32a53 53 0 0 0 71 0l13.58-12.32a53 53 0 0 1 71 0l13.65 12.32a53 53 0 0 0 71 0l13.66-12.32a53 53 0 0 1 71 0l13.65 12.32a53 53 0 0 0 71 0l13.66-12.32a53 53 0 0 1 71 0l13.65 12.32a53 53 0 0 0 71 0"/><path id="C" d="M1066.52 814.43a53 53 0 0 0 71 0l13.66-12.32a53 53 0 0 1 71 0l13.57 12.32a53 53 0 0 0 71 0"/></defs></svg>