<svg id="Layer_1" data-name="Layer 1" xmlns="http://www.w3.org/2000/svg" width="2000" height="2000" viewBox="0 0 2000 2000">
  <g>
    <path d="M1505.57,1524.79c0,127.89-226.35,231.57-505.57,231.57s-505.57-103.68-505.57-231.57S720.78,1293.23,1000,1293.23,1505.57,1396.9,1505.57,1524.79Z" style="fill: #fff;stroke: #3a3632;stroke-miterlimit: 10;stroke-width: 20px"/>
    <path d="M1883.06,1524.79c0,250.57-395.36,453.7-883.06,453.7s-883.06-203.13-883.06-453.7,395.36-453.7,883.06-453.7S1883.06,1274.22,1883.06,1524.79Z" style="fill: #fff;stroke: #3a3632;stroke-miterlimit: 10;stroke-width: 20px"/>
    <path d="M1505.57,1524.79c0,127.89-226.35,231.57-505.57,231.57s-505.57-103.68-505.57-231.57S720.78,1293.23,1000,1293.23,1505.57,1396.9,1505.57,1524.79Z" style="fill: #fff;stroke: #3a3632;stroke-miterlimit: 10;stroke-width: 20px"/>
  </g>
  <path d="M1922.52,43h0a82.54,82.54,0,0,1,16.54,116.74s-659.66,828-701.92,913.87c-.68,44.56,55.27,211.37-98.69,420.55C1025.3,1647.84,867,1680.24,770.05,1608.87h0c-97-71.37-113.07-232.13.08-385.86,154-209.18,329.87-205.34,372.21-219.22,69.48-65.89,664-941.82,664-941.82a82.55,82.55,0,0,1,116.39-18.91h0Zm-106,144.38h0a24.78,24.78,0,0,0,34.55-5.25l34.31-46.62a24.78,24.78,0,0,0-5.25-34.55h0a24.78,24.78,0,0,0-34.55,5.25l-34.32,46.63A24.78,24.78,0,0,0,1816.55,187.33Zm-789,1245.77h0a24.79,24.79,0,0,0,34.55-5.26l34.31-46.62a24.78,24.78,0,0,0-5.25-34.55h0a24.79,24.79,0,0,0-34.55,5.25l-34.32,46.63A24.79,24.79,0,0,0,1027.54,1433.1Zm-83-61.08h0a24.78,24.78,0,0,0,34.55-5.25l34.32-46.62a24.78,24.78,0,0,0-5.25-34.55h0a24.78,24.78,0,0,0-34.55,5.25l-34.32,46.62A24.78,24.78,0,0,0,944.56,1372Zm-83-61.07h0a24.79,24.79,0,0,0,34.55-5.25l34.32-46.63a24.79,24.79,0,0,0-5.26-34.55h0a24.79,24.79,0,0,0-34.55,5.26l-34.31,46.62A24.78,24.78,0,0,0,861.59,1311Zm31.09,218.46h0a24.79,24.79,0,0,0,34.55-5.25l34.32-46.63A24.79,24.79,0,0,0,956.3,1443h0a24.79,24.79,0,0,0-34.55,5.25l-34.32,46.63A24.79,24.79,0,0,0,892.68,1529.41Zm-83-61.07h0a24.79,24.79,0,0,0,34.55-5.26l34.32-46.62a24.79,24.79,0,0,0-5.26-34.55h0a24.77,24.77,0,0,0-34.54,5.25l-34.32,46.63A24.78,24.78,0,0,0,809.71,1468.34Zm269.71-192.63h0a24.79,24.79,0,0,0,34.55-5.25l34.31-46.63a24.78,24.78,0,0,0-5.25-34.55h0a24.79,24.79,0,0,0-34.55,5.26l-34.32,46.62A24.79,24.79,0,0,0,1079.42,1275.71Zm-83-61.07h0a24.79,24.79,0,0,0,34.55-5.25l34.32-46.63a24.79,24.79,0,0,0-5.25-34.55h0a24.78,24.78,0,0,0-34.55,5.25l-34.32,46.63A24.79,24.79,0,0,0,996.44,1214.64Z" style="fill: #d0d2d3;stroke: #3a3632;stroke-miterlimit: 10;stroke-width: 20px"/>
  <path d="M508.78,1520q73.22-3,146.51-3.09c38.27,0,78.17,1.25,116.45,1.91,55.69.87,111.28.67,166.79-2.21,69.23-3.23,138.32-12.24,207.93-15.17a215.93,215.93,0,0,1,26.66,1.14,203.88,203.88,0,0,1,26.71,4c8.65,1.88,17.8,4.45,26.47,6,6.56,1.29,13.09,2,19.64,2.8,19.53,2.34,39,5.32,58.33,8.29-21.57-2.65-43.41-2.62-65-1.17a126,126,0,0,0-13,1.66c-10.8,2-21.4,5.69-32,8.56a419.1,419.1,0,0,1-57.13,11.09c-77.63,10.17-155.26,26.53-233.78,32-48.4,3.73-97.06,4.68-145.43,4a1558.15,1558.15,0,0,1-157.08-9.57c-26.42-3-53-5.26-79-11.78-6.52-1.65-13-2.83-19.42-4.13Z" style="fill: #518737;stroke: #3a3632;stroke-linecap: round;stroke-linejoin: round;stroke-width: 10px"/>
  <path d="M385.64,1534.86a626.13,626.13,0,0,1,61.62,12.51c40.44,10.85,79,27.07,118.81,40.65,108.17,37.83,218.22,72.71,327.09,108.56a258.59,258.59,0,0,0,31.91,7c7.3,1.16,14.82,1.64,22.22,2.26,11,.72,21.69,3.47,32.13,6.59,13.88,4,27.65,8.26,41.14,13.26-13.32-5.44-26.33-11.66-39.29-18-9.82-4.74-19.57-9.9-28.25-16.73-5.92-4.48-11.83-9.19-18.07-13.19-9.25-5.79-18.65-11.48-28.58-16-92.69-39.8-186.13-78.54-281.19-112.34-48.32-17-96.51-35.07-147.39-43.58-30.25-4.91-63.12-7.55-92.68,1.71Z" style="fill: #518737;stroke: #3a3632;stroke-linecap: round;stroke-linejoin: round;stroke-width: 10px"/>
  <path d="M437.92,1611c44.52-6.78,90.21-2.31,135,.24,59.93,4,119.37,12.34,179.16,16.71,29.18,2.14,58.79,3.52,88,3.56,11.5,0,25.92-.22,37.46-.69,64.45-1.51,127.91-18.26,194.33-18.65,6.62-.14,13.34-.16,19.94.24a319.65,319.65,0,0,1,32.77,4.16c10.88,1.89,21.85,5.34,32.69,7.45,10.78,2.28,21.84,2.26,32.7,2.14q13-.12,26.06-1c8.67-.59,17.33-1.37,25.92-2.64-8.56,1.46-17.08,3.2-25.62,4.9-15.8,3.48-36.13,6.74-51.4,11.15-8.65,2.61-17.19,6.23-25.75,9.27a170.23,170.23,0,0,1-19.47,5.74,269.13,269.13,0,0,1-38.54,6.93c-6.2.64-12.77,1.29-18.88,2.07-48.42,5.51-95.59,21-146.15,28.75-11,1.7-22.71,3.32-33.73,4.46-53.66,5.81-107.72,5.21-161.42,1.27-70-4.76-139.22-16.39-207.65-31.27-12-2.51-26.11-5.43-38-8.57-14.76-3.78-29.43-8.13-43.78-13.33Z" style="fill: #518737;stroke: #3a3632;stroke-linecap: round;stroke-linejoin: round;stroke-width: 10px"/>
  <path d="M338.73,1587.94c10.45,2.9,20.92,5.93,31.25,9.2,16.93,5.22,34.2,11.14,51.24,16.17,76.35,22,153.87,45.19,229.76,68.58,66.22,20.34,132.59,41.37,199.13,60.95a234.72,234.72,0,0,1,31.12,11.09c3.4,1.47,6.81,2.92,10.18,4.5,6.79,3.17,13.38,7,20,10.6,9.72,5.58,20.24,9.39,30.79,12.77,13.94,4.65,28,9,42.17,12.56-17.88-3.94-36.06-6.84-54.22-9.51a136.29,136.29,0,0,0-22.33-1.24c-7.53.15-15.17.46-22.67,0-5.57-.33-11.13-.8-16.68-1.35-12.48-1.07-25.72-4.27-38-6.9-96.9-21-193.6-43.78-288.71-71.89-39-11.46-78-23.23-115.69-38.77-13.65-5.54-27.84-11.88-41.13-18.28-20.39-9.68-40.43-21-58.12-35.26Z" style="fill: #518737;stroke: #3a3632;stroke-linecap: round;stroke-linejoin: round;stroke-width: 10px"/>
  <path d="M516.39,1389.09c6.64,1.81,13.27,3.69,19.84,5.67,17,5,34.36,10.66,51.46,15.45,76.65,20.89,154.5,43,230.7,65.33,66.51,19.41,133.17,39.5,200,58.14a234.08,234.08,0,0,1,31.27,10.64c3.43,1.42,6.85,2.83,10.24,4.36,6.84,3.08,13.49,6.79,20.13,10.32,9.79,5.44,20.36,9.1,31,12.33,14,4.45,28.09,8.55,42.34,12-17.93-3.69-36.15-6.33-54.34-8.75a136.6,136.6,0,0,0-22.35-.92c-7.53.25-15.16.67-22.67.36-5.58-.25-11.14-.65-16.7-1.11-12.49-.9-25.77-3.92-38.1-6.37-97.19-19.62-194.19-41-289.7-67.81-39.18-10.91-78.28-22.13-116.22-37.13-13.72-5.35-28-11.48-41.38-17.7-17.1-7.82-34-16.79-49.46-27.66Z" style="fill: #518737;stroke: #3a3632;stroke-linecap: round;stroke-linejoin: round;stroke-width: 10px"/>
  <path d="M514.18,1554.68q6.09,3.21,12.39,6a277.94,277.94,0,0,0,36.33,13.39c63.25,17.86,128.56,25.29,192.31,39.58,38.94,8.72,79.48,20.09,118.18,30,79.78,20.48,160.3,39.41,240.51,58.36a213,213,0,0,0,24.69,3.56c4.18.39,8.36.81,12.56,1.06,8.49.52,17.16.17,25.7,0,12.67-.46,25.18,1.48,37.46,3.89,16.25,3,32.45,6.3,48.41,10.57-15.81-4.77-31.32-10.5-46.74-16.46-7.7-3.06-15.47-5.87-22.9-9.88s-14.67-8.94-21.88-13.5c-10.7-6.8-22.09-12.29-33.59-17.51a244.83,244.83,0,0,0-23.26-8.61c-90.12-29.62-180.13-60.18-271-87.18-26.1-7.7-52.88-15.11-79.42-21.06-39.16-8.93-79.35-13.71-119.08-16.51-20.54-1.51-40.6-2.69-60.87-4.38q-13.53-1.11-27.1-1.86c-6.67-.42-23.5-1-37.74-1.29Z" style="fill: #629e42;stroke: #3a3632;stroke-linecap: round;stroke-linejoin: round;stroke-width: 10px"/>
  <path d="M530.49,1802.35c19.93-2.42,39.84-3.7,60-4.21,41.87-.44,83.39,4.81,125.36,7.18,114.37,7.34,229.75,11.32,344.25,16.55a258,258,0,0,0,32.62-1.83c7.35-.86,14.72-2.42,22-3.81,10.8-2.28,21.82-2.51,32.72-2.32,14.44.09,28.85.52,43.19,1.71-14.29-1.66-28.5-4.16-42.69-6.82-10.74-1.92-21.51-4.27-31.71-8.52-6.91-2.73-13.87-5.69-21-7.86-10.47-3.09-21-6.05-31.84-7.74-100-13.4-200.39-25.6-301-32.58-51.1-3.33-102.39-7.82-153.69-2.3-29.91,3.37-61.67,9.52-87.41,25.76Z" style="fill: #629e42;stroke: #3a3632;stroke-linecap: round;stroke-linejoin: round;stroke-width: 10px"/>
  <path d="M474.52,1691.91c33.15,12.36,68.44,18.17,103.07,25.13,49.22,9.26,99.52,14.84,149.36,19.78,89.15,9.07,179,13.25,268.52,16.56a206.73,206.73,0,0,0,21.56,0c5.43-.32,10.86-.89,16.28-1.48,9.19-.87,18.26-2.94,27.28-5,10.68-2.55,21.64-3.09,32.49-3.21,14.36-.38,28.7-.51,43,.17-14.26-1.15-28.47-3.1-42.65-5.3-10.72-1.61-21.49-3.65-31.71-7.64-6.93-2.54-13.9-5.31-21-7.37-5.23-1.49-10.51-2.83-15.8-4.1a212.37,212.37,0,0,0-26.5-4.44c-81.43-9.56-162.88-21.09-244.23-30.83-70.73-8.69-141.71-17.5-213-20.66-21.59-1.38-43.18-1.83-64.81,0Z" style="fill: #629e42;stroke: #3a3632;stroke-linecap: round;stroke-linejoin: round;stroke-width: 10px"/>
</svg>
