<svg id="Layer_1" data-name="Layer 1" xmlns="http://www.w3.org/2000/svg" viewBox="0 0 2000 2000"><ellipse cx="1000" cy="1524.79" rx="505.57" ry="231.56" style="fill:#fff;stroke:#3a3632;stroke-miterlimit:10;stroke-width:20px"/><ellipse cx="1000" cy="1524.79" rx="883.06" ry="453.7" style="fill:#fff;stroke:#3a3632;stroke-miterlimit:10;stroke-width:20px"/><ellipse cx="1000" cy="1524.79" rx="505.57" ry="231.56" style="fill:#fff;stroke:#3a3632;stroke-miterlimit:10;stroke-width:20px"/><g id="layer1"><path id="path863" d="M558.27,1460.39l3.24,53.18c-17,71.22-142.32,67.71-162,1.37l-5.3-45.1" style="fill:#f37820;stroke:#3a3632;stroke-linecap:round;stroke-linejoin:round;stroke-width:20px;isolation:isolate"/><path id="path863-2" data-name="path863" d="M558.6,1478.82c-11.34,75.81-156.74,74.39-164.42-9C386.56,1387.16,571.56,1392.22,558.6,1478.82Z" style="fill:#f37820;stroke:#3a3632;stroke-linecap:round;stroke-linejoin:round;stroke-width:20px;isolation:isolate"/><path id="path863-3" data-name="path863" d="M519.73,1470.9c-5.93,39.64-82,38.9-86-4.7C429.77,1423,526.5,1425.62,519.73,1470.9Z" style="fill:#dd6512;isolation:isolate"/></g><path d="M1922.52,43h0a82.54,82.54,0,0,1,16.54,116.74s-659.66,828-701.92,913.87c-.68,44.56,55.27,211.37-98.69,420.55C1025.3,1647.84,867,1680.24,770.05,1608.87h0c-97-71.37-113.07-232.13.08-385.86,154-209.18,329.87-205.34,372.21-219.22,69.48-65.89,664-941.82,664-941.82a82.55,82.55,0,0,1,116.39-18.91h0Zm-106,144.38h0a24.78,24.78,0,0,0,34.55-5.25l34.31-46.62a24.78,24.78,0,0,0-5.25-34.55h0a24.78,24.78,0,0,0-34.55,5.25l-34.32,46.63A24.78,24.78,0,0,0,1816.55,187.33Zm-789,1245.77h0a24.79,24.79,0,0,0,34.55-5.26l34.31-46.62a24.78,24.78,0,0,0-5.25-34.55h0a24.79,24.79,0,0,0-34.55,5.25l-34.32,46.63A24.79,24.79,0,0,0,1027.54,1433.1Zm-83-61.08h0a24.78,24.78,0,0,0,34.55-5.25l34.32-46.62a24.78,24.78,0,0,0-5.25-34.55h0a24.78,24.78,0,0,0-34.55,5.25l-34.32,46.62A24.78,24.78,0,0,0,944.56,1372Zm-83-61.07h0a24.79,24.79,0,0,0,34.55-5.25l34.32-46.63a24.79,24.79,0,0,0-5.26-34.55h0a24.79,24.79,0,0,0-34.55,5.26l-34.31,46.62A24.78,24.78,0,0,0,861.59,1311Zm31.09,218.46h0a24.79,24.79,0,0,0,34.55-5.25l34.32-46.63A24.79,24.79,0,0,0,956.3,1443h0a24.79,24.79,0,0,0-34.55,5.25l-34.32,46.63A24.79,24.79,0,0,0,892.68,1529.41Zm-83-61.07h0a24.79,24.79,0,0,0,34.55-5.26l34.32-46.62a24.79,24.79,0,0,0-5.26-34.55h0a24.77,24.77,0,0,0-34.54,5.25l-34.32,46.63A24.78,24.78,0,0,0,809.71,1468.34Zm269.71-192.63h0a24.79,24.79,0,0,0,34.55-5.25l34.31-46.63a24.78,24.78,0,0,0-5.25-34.55h0a24.79,24.79,0,0,0-34.55,5.26l-34.32,46.62A24.79,24.79,0,0,0,1079.42,1275.71Zm-83-61.07h0a24.79,24.79,0,0,0,34.55-5.25l34.32-46.63a24.79,24.79,0,0,0-5.25-34.55h0a24.78,24.78,0,0,0-34.55,5.25l-34.32,46.63A24.79,24.79,0,0,0,996.44,1214.64Z" style="fill:#d0d2d3;stroke:#3a3632;stroke-miterlimit:10;stroke-width:20px"/><g id="layer1-2" data-name="layer1"><path id="path863-4" data-name="path863" d="M801.59,1326.45,843,1353.2c43.74,51.69-27.59,143.12-87.81,121.43l-36.5-20.77" style="fill:#f37820;stroke:#3a3632;stroke-linecap:round;stroke-linejoin:round;stroke-width:20px;isolation:isolate"/><path id="path863-5" data-name="path863" d="M815.49,1336.31c50.25,50-30.52,157.53-96.83,117.55C652.9,1414.2,758.1,1279.19,815.49,1336.31Z" style="fill:#f37820;stroke:#3a3632;stroke-linecap:round;stroke-linejoin:round;stroke-width:20px;isolation:isolate"/><path id="path863-6" data-name="path863" d="M788.28,1360.93c26.28,26.15-16,82.37-50.63,61.46C703.27,1401.65,758.27,1331.06,788.28,1360.93Z" style="fill:#dd6512;isolation:isolate"/></g><g id="layer1-3" data-name="layer1"><path id="path863-7" data-name="path863" d="M710.49,1598.38l-55.71,18.53c-80.51,2.83-111.49-127.51-46.34-166.8L655,1431.75" style="fill:#f37820;stroke:#3a3632;stroke-linecap:round;stroke-linejoin:round;stroke-width:20px;isolation:isolate"/><path id="path863-8" data-name="path863" d="M691,1604c-83.84,10-122.6-140.48-36-172.23C740.88,1400.26,786.74,1592.61,691,1604Z" style="fill:#f37820;stroke:#3a3632;stroke-linecap:round;stroke-linejoin:round;stroke-width:20px;isolation:isolate"/><path id="path863-9" data-name="path863" d="M688.63,1561.6c-43.84,5.21-64.11-73.45-18.82-90C714.73,1455.08,738.7,1555.66,688.63,1561.6Z" style="fill:#dd6512;isolation:isolate"/></g><g id="layer1-4" data-name="layer1"><path id="path863-10" data-name="path863" d="M718.63,1638.54l54,1c71.49-19.53,63.07-142.47-4.91-159.17l-45.89-3.4" style="fill:#f37820;stroke:#3a3632;stroke-linecap:round;stroke-linejoin:round;stroke-width:20px;isolation:isolate"/><path id="path863-11" data-name="path863" d="M737.31,1638.12c76.36-14.17,69.28-156.91-15.48-161.11C637.77,1472.84,650.08,1654.32,737.31,1638.12Z" style="fill:#f37820;stroke:#3a3632;stroke-linecap:round;stroke-linejoin:round;stroke-width:20px;isolation:isolate"/><path id="path863-12" data-name="path863" d="M727.78,1600.26c39.93-7.41,36.22-82-8.1-84.24C675.73,1513.84,682.17,1608.73,727.78,1600.26Z" style="fill:#dd6512;isolation:isolate"/></g><g id="layer1-5" data-name="layer1"><path id="path863-13" data-name="path863" d="M966.64,1324l45.42,29.37c48,56.74-30.29,157.1-96.39,133.29l-40.06-22.81" style="fill:#f37820;stroke:#3a3632;stroke-linecap:round;stroke-linejoin:round;stroke-width:20px;isolation:isolate"/><path id="path863-14" data-name="path863" d="M981.9,1334.86c55.15,54.89-33.51,172.91-106.29,129C803.42,1420.35,918.9,1272.15,981.9,1334.86Z" style="fill:#f37820;stroke:#3a3632;stroke-linecap:round;stroke-linejoin:round;stroke-width:20px;isolation:isolate"/><path id="path863-15" data-name="path863" d="M952,1361.88c28.84,28.7-17.52,90.41-55.58,67.46C858.71,1406.58,919.09,1329.09,952,1361.88Z" style="fill:#dd6512;isolation:isolate"/></g><g id="layer1-6" data-name="layer1"><path id="path863-16" data-name="path863" d="M947.23,1444l44.16,28.54c46.67,55.16-29.45,152.72-93.7,129.58l-39-22.17" style="fill:#f37820;stroke:#3a3632;stroke-linecap:round;stroke-linejoin:round;stroke-width:20px;isolation:isolate"/><path id="path863-17" data-name="path863" d="M962.07,1454.51c53.61,53.36-32.57,168.1-103.33,125.43C788.57,1537.62,900.82,1393.55,962.07,1454.51Z" style="fill:#f37820;stroke:#3a3632;stroke-linecap:round;stroke-linejoin:round;stroke-width:20px;isolation:isolate"/><path id="path863-18" data-name="path863" d="M933,1480.78c28,27.9-17,87.89-54,65.58C842.31,1524.23,901,1448.9,933,1480.78Z" style="fill:#dd6512;isolation:isolate"/></g><g id="layer1-7" data-name="layer1"><path id="path863-19" data-name="path863" d="M573.15,1631.92l33.65-23.78c35.08-44.32-25.68-116-75-95.56l-29.73,18.66" style="fill:#f37820;stroke:#3a3632;stroke-linecap:round;stroke-linejoin:round;stroke-width:20px;isolation:isolate"/><path id="path863-20" data-name="path863" d="M584.44,1623.22c40.5-43.24-28.39-127.72-82.36-92C448.56,1566.69,538.18,1672.6,584.44,1623.22Z" style="fill:#f37820;stroke:#3a3632;stroke-linecap:round;stroke-linejoin:round;stroke-width:20px;isolation:isolate"/><path id="path863-21" data-name="path863" d="M561.46,1604.27c21.18-22.61-14.84-66.78-43.06-48.09C490.41,1574.71,537.28,1630.09,561.46,1604.27Z" style="fill:#dd6512;isolation:isolate"/></g><g id="layer1-8" data-name="layer1"><path id="path863-22" data-name="path863" d="M519.67,1598.33l3.55,58.38C504.58,1734.88,367,1731,345.36,1658.2l-5.81-49.5" style="fill:#f37820;stroke:#3a3632;stroke-linecap:round;stroke-linejoin:round;stroke-width:20px;isolation:isolate"/><path id="path863-23" data-name="path863" d="M520,1618.56c-12.45,83.21-172,81.65-180.48-9.86C331.18,1517.94,534.25,1523.5,520,1618.56Z" style="fill:#f37820;stroke:#3a3632;stroke-linecap:round;stroke-linejoin:round;stroke-width:20px;isolation:isolate"/><path id="path863-24" data-name="path863" d="M477.36,1609.87c-6.51,43.51-90,42.69-94.37-5.16C378.61,1557.25,484.79,1560.16,477.36,1609.87Z" style="fill:#dd6512;isolation:isolate"/></g><g id="layer1-9" data-name="layer1"><path id="path863-25" data-name="path863" d="M753.65,1649l2.94,48.35c-15.44,64.75-129.4,61.56-147.32,1.24l-4.82-41" style="fill:#f37820;stroke:#3a3632;stroke-linecap:round;stroke-linejoin:round;stroke-width:20px;isolation:isolate"/><path id="path863-26" data-name="path863" d="M754,1665.73c-10.31,68.93-142.51,67.64-149.5-8.16C597.53,1582.39,765.73,1587,754,1665.73Z" style="fill:#f37820;stroke:#3a3632;stroke-linecap:round;stroke-linejoin:round;stroke-width:20px;isolation:isolate"/><path id="path863-27" data-name="path863" d="M718.6,1658.53c-5.39,36-74.51,35.37-78.17-4.27C636.81,1615,724.76,1617.37,718.6,1658.53Z" style="fill:#dd6512;isolation:isolate"/></g><g id="layer1-10" data-name="layer1"><path id="path863-28" data-name="path863" d="M938.76,1661.93l3.33,54.94c-17.54,73.56-147,69.93-167.36,1.4l-5.48-46.58" style="fill:#f37820;stroke:#3a3632;stroke-linecap:round;stroke-linejoin:round;stroke-width:20px;isolation:isolate"/><path id="path863-29" data-name="path863" d="M939.1,1681c-11.72,78.3-161.91,76.83-169.85-9.28C761.39,1586.28,952.48,1591.51,939.1,1681Z" style="fill:#f37820;stroke:#3a3632;stroke-linecap:round;stroke-linejoin:round;stroke-width:20px;isolation:isolate"/><path id="path863-30" data-name="path863" d="M898.94,1672.79c-6.13,40.94-84.66,40.17-88.81-4.86C806,1623.28,905.94,1626,898.94,1672.79Z" style="fill:#dd6512;isolation:isolate"/></g><g id="layer1-11" data-name="layer1"><path id="path863-31" data-name="path863" d="M828.57,1752.44l3.34,54.94c-17.54,73.56-147,69.93-167.36,1.4l-5.48-46.58" style="fill:#f37820;stroke:#3a3632;stroke-linecap:round;stroke-linejoin:round;stroke-width:20px;isolation:isolate"/><path id="path863-32" data-name="path863" d="M828.91,1771.48c-11.72,78.3-161.91,76.83-169.84-9.28C651.2,1676.79,842.29,1682,828.91,1771.48Z" style="fill:#f37820;stroke:#3a3632;stroke-linecap:round;stroke-linejoin:round;stroke-width:20px;isolation:isolate"/><path id="path863-33" data-name="path863" d="M788.75,1763.3c-6.12,40.94-84.65,40.17-88.8-4.86C695.83,1713.79,795.75,1716.52,788.75,1763.3Z" style="fill:#dd6512;isolation:isolate"/></g><g id="layer1-12" data-name="layer1"><path id="path863-34" data-name="path863" d="M566.37,1805.57l51.85-36.64c54.06-68.3-39.58-178.81-115.55-147.26l-45.82,28.76" style="fill:#f37820;stroke:#3a3632;stroke-linecap:round;stroke-linejoin:round;stroke-width:20px;isolation:isolate"/><path id="path863-35" data-name="path863" d="M583.76,1792.16c62.41-66.62-43.75-196.8-126.91-141.73C374.37,1705.05,512.48,1868.26,583.76,1792.16Z" style="fill:#f37820;stroke:#3a3632;stroke-linecap:round;stroke-linejoin:round;stroke-width:20px;isolation:isolate"/><path id="path863-36" data-name="path863" d="M548.36,1763c32.63-34.84-22.87-102.9-66.36-74.11C438.88,1717.41,511.09,1802.75,548.36,1763Z" style="fill:#dd6512;isolation:isolate"/></g><g id="layer1-13" data-name="layer1"><path id="path863-37" data-name="path863" d="M1079.91,1326.72l42.75,27.63c45.18,53.4-28.5,147.84-90.7,125.44l-37.71-21.46" style="fill:#f37820;stroke:#3a3632;stroke-linecap:round;stroke-linejoin:round;stroke-width:20px;isolation:isolate"/><path id="path863-38" data-name="path863" d="M1094.28,1336.91c51.9,51.65-31.53,162.72-100,121.42C926.32,1417.36,1035,1277.9,1094.28,1336.91Z" style="fill:#f37820;stroke:#3a3632;stroke-linecap:round;stroke-linejoin:round;stroke-width:20px;isolation:isolate"/><path id="path863-39" data-name="path863" d="M1066.17,1362.33c27.14,27-16.49,85.09-52.3,63.49C978.35,1404.4,1035.17,1331.48,1066.17,1362.33Z" style="fill:#dd6512;isolation:isolate"/></g></svg>