<svg id="Layer_1" data-name="Layer 1" xmlns="http://www.w3.org/2000/svg" width="2000" height="2000" viewBox="0 0 2000 2000">
  <g>
    <path d="M1505.57,1524.79c0,127.89-226.35,231.57-505.57,231.57s-505.57-103.68-505.57-231.57S720.78,1293.23,1000,1293.23,1505.57,1396.9,1505.57,1524.79Z" style="fill: #fff;stroke: #3a3632;stroke-miterlimit: 10;stroke-width: 20px"/>
    <path d="M1883.06,1524.79c0,250.57-395.36,453.7-883.06,453.7s-883.06-203.13-883.06-453.7,395.36-453.7,883.06-453.7S1883.06,1274.22,1883.06,1524.79Z" style="fill: #fff;stroke: #3a3632;stroke-miterlimit: 10;stroke-width: 20px"/>
    <path d="M1505.57,1524.79c0,127.89-226.35,231.57-505.57,231.57s-505.57-103.68-505.57-231.57S720.78,1293.23,1000,1293.23,1505.57,1396.9,1505.57,1524.79Z" style="fill: #fff;stroke: #3a3632;stroke-miterlimit: 10;stroke-width: 20px"/>
  </g>
  <path d="M1922.52,43h0a82.54,82.54,0,0,1,16.54,116.74s-659.66,828-701.92,913.87c-.68,44.56,55.27,211.37-98.69,420.55C1025.3,1647.84,867,1680.24,770.05,1608.87h0c-97-71.37-113.07-232.13.08-385.86,154-209.18,329.87-205.34,372.21-219.22,69.48-65.89,664-941.82,664-941.82a82.55,82.55,0,0,1,116.39-18.91h0Zm-106,144.38h0a24.78,24.78,0,0,0,34.55-5.25l34.31-46.62a24.78,24.78,0,0,0-5.25-34.55h0a24.78,24.78,0,0,0-34.55,5.25l-34.32,46.63A24.78,24.78,0,0,0,1816.55,187.33Zm-789,1245.77h0a24.79,24.79,0,0,0,34.55-5.26l34.31-46.62a24.78,24.78,0,0,0-5.25-34.55h0a24.79,24.79,0,0,0-34.55,5.25l-34.32,46.63A24.79,24.79,0,0,0,1027.54,1433.1Zm-83-61.08h0a24.78,24.78,0,0,0,34.55-5.25l34.32-46.62a24.78,24.78,0,0,0-5.25-34.55h0a24.78,24.78,0,0,0-34.55,5.25l-34.32,46.62A24.78,24.78,0,0,0,944.56,1372Zm-83-61.07h0a24.79,24.79,0,0,0,34.55-5.25l34.32-46.63a24.79,24.79,0,0,0-5.26-34.55h0a24.79,24.79,0,0,0-34.55,5.26l-34.31,46.62A24.78,24.78,0,0,0,861.59,1311Zm31.09,218.46h0a24.79,24.79,0,0,0,34.55-5.25l34.32-46.63A24.79,24.79,0,0,0,956.3,1443h0a24.79,24.79,0,0,0-34.55,5.25l-34.32,46.63A24.79,24.79,0,0,0,892.68,1529.41Zm-83-61.07h0a24.79,24.79,0,0,0,34.55-5.26l34.32-46.62a24.79,24.79,0,0,0-5.26-34.55h0a24.77,24.77,0,0,0-34.54,5.25l-34.32,46.63A24.78,24.78,0,0,0,809.71,1468.34Zm269.71-192.63h0a24.79,24.79,0,0,0,34.55-5.25l34.31-46.63a24.78,24.78,0,0,0-5.25-34.55h0a24.79,24.79,0,0,0-34.55,5.26l-34.32,46.62A24.79,24.79,0,0,0,1079.42,1275.71Zm-83-61.07h0a24.79,24.79,0,0,0,34.55-5.25l34.32-46.63a24.79,24.79,0,0,0-5.25-34.55h0a24.78,24.78,0,0,0-34.55,5.25l-34.32,46.63A24.79,24.79,0,0,0,996.44,1214.64Z" style="fill: #d0d2d3;stroke: #3a3632;stroke-miterlimit: 10;stroke-width: 20px"/>
  <g>
    <path d="M872.34,1627.9a7.15,7.15,0,0,0,3-.63,6.65,6.65,0,0,0,3.7-5.12,4.49,4.49,0,0,1,.44-2c.77-1.16,2.48-.93,3.87-1a6.89,6.89,0,0,0,4.75-2.2c2-2.13,2.35-5.24,2.42-8.13,0-2.34.18-5.12,2.17-6.34,1.59-1,3.72-.48,5.41-1.29,2.44-1.18,2.87-4.48,2.57-7.18s-.95-5.63.43-8c1.48-2.52,3.87-2.15,5.79-3.76a7.44,7.44,0,0,0,2.31-7c-.52-2.42-2.24-4.48-2.64-6.92-.42-2.61.71-5.33.06-7.9-.73-2.88-3.56-4.9-4.21-7.8-1.06-4.76,4.17-9.43,2.7-14.08-1.12-3.54-5.66-5.18-6.67-8.76-.8-2.87,1-6,.31-8.84-1-4.2-5.9-5.1-7.68-8.61-2.2-4.36.7-11.11-1-16.24-1.51-4.57-5.74-8.63-10.54-8.28a7.51,7.51,0,0,1-1.95,0c-2.54-.47-2.89-3.93-4.42-6-3.14-4.28-11-2.19-14.1-6.49-.69-1-1-2.1-1.75-3a6.74,6.74,0,0,0-5.82-2.32c-4.85.27-7.45,2.58-11.47-1.41-2.69-2.68-3.63-6.88-7.82-7.79a8.12,8.12,0,0,0-3.79.22,12.81,12.81,0,0,0-8.28,6.63c-1.38,2.93-.17,6.56-4.23,7.82-1.68.53-3.58.18-5.17.93-2.22,1-3.13,4-2.72,6.49.33,2,1.23,4.39-.12,5.85-1.91,2-6,1.49-8.34,3.2-1.86,1.35-3.1,3.78-2.41,6a24.9,24.9,0,0,0,1.88,3.33c2.89,5.76-1.95,10.86,3.71,15.8,2.82,2.45,6.49,4.4,7.64,7.95,1.55,4.81-2.2,10.81.94,14.78,2.24,2.84,6.84,2.78,9.19,5.53s1.34,7.25.08,10.82-2.4,7.94.06,10.82c1.08,1.27,2.71,2,3.76,3.3,2.08,2.59,1.14,6.52-.71,9.28s-4.48,5-6,8c-1.71,3.34-2.14,8.57.42,11.53s7,2.89,9.66,5.71c3.83,4.14-2.58,8.69,1.86,12.94,2,1.92,3.63,2.46,6.13,3.49,2.34,1,3,3.88,4.82,5.59a5.43,5.43,0,0,0,4.29,1.33,7.38,7.38,0,0,0,4.21-1.62c1-1,1.5-2.57,2.57-3.44,1.51-1.23,3.64-.53,5.4.48s3.56,2.31,5.42,2.18c1.12-.07,2.15-.67,3.28-.72,2.07-.08,2.66,1.34,4.13,2.25A4.77,4.77,0,0,0,872.34,1627.9Z" style="fill: #006838;stroke: #3a3632;stroke-linecap: round;stroke-miterlimit: 10;stroke-width: 10px"/>
    <path d="M971,1502.45c15.85,3.28,21.44,34.66,6.43,41.61-14.33,1.84-19.69.19-33.7,5.41-12.78,4.75-49.06,34.21-49.06,34.21l-7-8.77s27.61-24.19,26.4-28.28c-1.35-4.53-43.22.13-43.22.13l-3.57-16s42.66-5,42.84-8.27c.26-4.53-42.29-17.67-42.29-17.67l3.76-10.51c10.35,2.49,51.22,14.78,61.41,14.75C952.91,1508.94,962.27,1505.84,971,1502.45Z" style="fill: #82c14c;stroke: #3a3632;stroke-linecap: round;stroke-linejoin: round;stroke-width: 10px"/>
    <path d="M816.47,1447.52a9.36,9.36,0,0,0-3.77.74,8.1,8.1,0,0,0-4.8,6,5.2,5.2,0,0,1-.63,2.37c-1,1.36-3.14,1.08-4.89,1.14a9.11,9.11,0,0,0-6,2.57c-2.53,2.51-3.13,6.18-3.3,9.59-.14,2.76-.39,6-2.93,7.48-2,1.14-4.7.55-6.84,1.5-3.11,1.38-3.75,5.27-3.46,8.46s1,6.65-.79,9.41c-1.95,3-4.93,2.52-7.4,4.41a8.64,8.64,0,0,0-3.12,8.19c.57,2.87,2.67,5.3,3.09,8.19.45,3.08-1.07,6.29-.33,9.32.83,3.4,4.33,5.79,5,9.23,1.18,5.62-5.53,11.11-3.84,16.6,1.3,4.19,6.95,6.15,8.1,10.38.91,3.38-1.42,7-.67,10.43,1.09,5,7.25,6,9.37,10.19,2.62,5.15-1.24,13.11.72,19.17,1.74,5.41,6.93,10.22,13,9.82a10.15,10.15,0,0,1,2.46,0c3.17.57,3.5,4.66,5.35,7.12,3.81,5.07,13.74,2.64,17.52,7.72.83,1.12,1.24,2.49,2.09,3.6,1.59,2.06,4.51,2.9,7.25,2.77,6.09-.31,9.44-3,14.36,1.71,3.3,3.17,4.34,8.13,9.58,9.22a11,11,0,0,0,4.76-.24,16.48,16.48,0,0,0,10.62-7.8c1.83-3.45.43-7.74,5.56-9.21,2.13-.61,4.5-.2,6.53-1.08,2.83-1.23,4.06-4.67,3.62-7.64-.35-2.38-1.4-5.2.35-6.91,2.46-2.4,7.57-1.73,10.58-3.74,2.37-1.59,4-4.46,3.21-7-.45-1.44-1.57-2.59-2.25-3.94-3.45-6.81,2.8-12.81-4.16-18.66-3.46-2.91-8-5.22-9.34-9.42-1.8-5.68,3.11-12.76-.7-17.45-2.73-3.37-8.51-3.32-11.38-6.57-3-3.4-1.45-8.56.25-12.77s3.27-9.36.27-12.78c-1.32-1.5-3.34-2.36-4.61-3.9-2.54-3.07-1.24-7.71,1.18-11s5.79-5.87,7.78-9.36c2.25-3.95,3-10.11-.16-13.62s-8.76-3.44-11.95-6.78c-4.68-4.9,3.52-10.24-1.93-15.28-2.45-2.28-4.48-2.92-7.59-4.14-2.9-1.14-3.58-4.6-5.87-6.62a7,7,0,0,0-5.35-1.59,9.82,9.82,0,0,0-5.34,1.89c-1.29,1.13-2,3-3.34,4.06-1.94,1.44-4.59.6-6.77-.59s-4.41-2.75-6.75-2.6c-1.41.08-2.72.79-4.13.83-2.61.09-3.3-1.58-5.13-2.66A6.12,6.12,0,0,0,816.47,1447.52Z" style="fill: #009444;stroke: #3a3632;stroke-linecap: round;stroke-miterlimit: 10;stroke-width: 10px"/>
  </g>
  <g>
    <path d="M914.38,1473.19a7.07,7.07,0,0,0-1.11,2.84,6.62,6.62,0,0,0,2.24,5.9,4.48,4.48,0,0,1,1.43,1.48c.54,1.28-.6,2.58-1.32,3.77a6.89,6.89,0,0,0-.79,5.17c.7,2.81,3.08,4.86,5.46,6.5,1.92,1.34,4.17,3,4.09,5.31-.06,1.86-1.65,3.37-1.9,5.22-.36,2.69,2.15,4.87,4.57,6.11s5.22,2.31,6.42,4.75c1.28,2.62-.34,4.41-.06,6.9a7.47,7.47,0,0,0,4.52,5.76c2.31.9,5,.6,7.24,1.61,2.41,1.09,4.05,3.53,6.55,4.4,2.81,1,6-.27,8.83.79,4.56,1.74,5.57,8.67,10.26,10,3.58,1,7.45-1.87,11-.73,2.83.91,4.42,4.09,7.21,5.12,4,1.51,7.5-2.1,11.41-1.65,4.85.56,8.88,6.7,14.09,8.13,4.65,1.26,10.37,0,12.72-4.23a7.83,7.83,0,0,1,1-1.66c1.8-1.86,4.88-.24,7.46-.37,5.31-.26,7.88-8,13.19-8.19,1.17-.05,2.33.29,3.49.22a6.79,6.79,0,0,0,5.16-3.58c2.44-4.19,2-7.64,7.49-8.79,3.72-.77,7.74.77,10.81-2.23a8.23,8.23,0,0,0,1.91-3.28,12.87,12.87,0,0,0-1-10.57c-1.68-2.77-5.38-3.76-4.2-7.84.49-1.69,1.82-3.08,2.08-4.83.35-2.43-1.59-4.79-3.92-5.84-1.86-.83-4.34-1.39-4.81-3.33-.65-2.71,2.06-5.82,1.93-8.72-.11-2.29-1.45-4.67-3.66-5.3a25.45,25.45,0,0,0-3.82-.27c-6.39-.76-8-7.61-15.22-5.61-3.6,1-7.25,3-10.84,2-4.87-1.35-7.82-7.79-12.86-7.36-3.6.3-6.09,4.17-9.68,4.62-3.76.48-6.78-2.88-9.07-5.9s-5.3-6.38-9.06-5.91c-1.66.2-3.16,1.16-4.82,1.32-3.31.3-6.08-2.64-7.36-5.71s-1.69-6.49-3.33-9.38c-1.86-3.27-6-6.51-9.86-6s-6.3,4.29-10.09,4.91c-5.56.92-5.82-6.94-11.82-5.58-2.71.62-4,1.68-6.29,3.2s-4.87.32-7.32.94a5.37,5.37,0,0,0-3.47,2.85,7.32,7.32,0,0,0-1,4.4c.24,1.36,1.31,2.67,1.45,4,.2,1.94-1.57,3.32-3.38,4.24s-3.89,1.7-4.81,3.32c-.55,1-.62,2.17-1.2,3.13-1.08,1.78-2.58,1.49-4.15,2.22A4.74,4.74,0,0,0,914.38,1473.19Z" style="fill: #006838;stroke: #3a3632;stroke-linecap: round;stroke-miterlimit: 10;stroke-width: 10px"/>
    <path d="M964.69,1624.64c-11.47,11.42-40.74-1.21-38.27-17.56,6.37-13,10.7-16.54,14.07-31.1,3.07-13.29-1.51-59.79-1.51-59.79l11.2-1.06s5,36.38,9.05,37.62c4.53,1.38,23.72-36.13,23.72-36.13l15.35,5.86s-19.37,38.34-16.71,40.31c3.64,2.72,38.06-25.55,38.06-25.55l6.69,8.93c-7.78,7.26-40.57,34.59-46.15,43.11C969.24,1606,966.66,1615.5,964.69,1624.64Z" style="fill: #82c14c;stroke: #3a3632;stroke-linecap: round;stroke-linejoin: round;stroke-width: 10px"/>
    <path d="M1095.69,1526a9.56,9.56,0,0,0,1.46-3.55,8.11,8.11,0,0,0-2.38-7.33,5.22,5.22,0,0,1-1.64-1.83c-.58-1.59.83-3.22,1.75-4.71a9.09,9.09,0,0,0,1.18-6.46c-.7-3.49-3.43-6-6.18-8-2.23-1.64-4.83-3.65-4.63-6.56.16-2.33,2.13-4.22,2.52-6.53.56-3.36-2.33-6-5.15-7.56s-6.11-2.82-7.42-5.85c-1.4-3.25.62-5.5.4-8.6a8.66,8.66,0,0,0-5.11-7.12c-2.71-1.1-5.9-.69-8.54-1.93-2.82-1.32-4.66-4.36-7.59-5.41-3.3-1.19-7.22.41-10.48-.88-5.35-2.12-6.22-10.75-11.74-12.36-4.21-1.23-9,2.41-13.12,1-3.33-1.1-5.07-5-8.34-6.3-4.74-1.83-9,2.71-13.67,2.19-5.74-.65-10.25-8.26-16.39-10-5.47-1.52-12.34.16-15.34,5.42a10.59,10.59,0,0,1-1.31,2.08c-2.23,2.33-5.82.35-8.9.54-6.33.38-9.76,10-16.09,10.36-1.4.07-2.76-.34-4.15-.24-2.6.19-4.92,2.16-6.31,4.52-3.11,5.25-2.68,9.55-9.34,11-4.47,1-9.18-.86-13,2.91a10.87,10.87,0,0,0-2.42,4.11,16.47,16.47,0,0,0,.65,13.16c1.87,3.43,6.22,4.62,4.62,9.72-.66,2.11-2.31,3.86-2.7,6-.53,3,1.67,6,4.38,7.23,2.18,1,5.11,1.69,5.57,4.1.65,3.37-2.72,7.27-2.7,10.89,0,2.85,1.5,5.81,4.1,6.56,1.45.42,3,.12,4.53.29,7.58.88,9.15,9.4,17.86,6.82,4.33-1.29,8.77-3.81,13-2.6,5.73,1.63,8.93,9.62,14.95,9,4.31-.42,7.45-5.27,11.75-5.88,4.5-.63,7.94,3.51,10.52,7.25s6,7.89,10.51,7.27c2-.28,3.81-1.49,5.8-1.7,4-.42,7.11,3.22,8.49,7s1.71,8.07,3.52,11.65c2.06,4.05,6.81,8,11.46,7.38,4.48-.64,7.7-5.42,12.25-6.24,6.66-1.21,6.6,8.58,13.8,6.81,3.25-.79,4.91-2.13,7.64-4,2.56-1.79,5.81-.46,8.76-1.25a7,7,0,0,0,4.28-3.59,9.88,9.88,0,0,0,1.36-5.5c-.23-1.7-1.44-3.31-1.54-5-.14-2.42,2-4.16,4.22-5.32s4.72-2.17,5.89-4.2c.7-1.22.84-2.71,1.58-3.91,1.37-2.22,3.14-1.88,5.05-2.81A6.24,6.24,0,0,0,1095.69,1526Z" style="fill: #009444;stroke: #3a3632;stroke-linecap: round;stroke-miterlimit: 10;stroke-width: 10px"/>
  </g>
  <g>
    <path d="M620.6,1477.38a7.11,7.11,0,0,0,1.16,2.83,6.66,6.66,0,0,0,5.71,2.7,4.46,4.46,0,0,1,2.06.07c1.28.55,1.36,2.27,1.66,3.63a6.88,6.88,0,0,0,3,4.27c2.45,1.54,5.59,1.36,8.44.9,2.31-.37,5.06-.75,6.63,1,1.25,1.38,1.15,3.57,2.25,5.08,1.6,2.19,4.92,2,7.52,1.23s5.37-2,7.92-1c2.75,1,2.82,3.41,4.75,5a7.45,7.45,0,0,0,7.25,1c2.29-.95,4-3,6.33-3.85,2.49-.9,5.37-.27,7.78-1.38,2.7-1.24,4.17-4.39,6.91-5.55,4.49-1.91,10,2.38,14.33.1,3.28-1.75,4.07-6.51,7.41-8.15,2.67-1.31,6-.12,8.75-1.31,3.95-1.72,3.94-6.72,7.07-9.1,3.89-3,11.05-1.33,15.79-3.92,4.23-2.31,7.45-7.21,6.23-11.86a7.55,7.55,0,0,1-.4-1.92c0-2.58,3.34-3.55,5.12-5.43,3.64-3.87.16-11.2,3.82-15,.81-.85,1.88-1.4,2.67-2.26a6.77,6.77,0,0,0,1.23-6.16c-1.15-4.71-3.89-6.85-.69-11.53,2.14-3.13,6.1-4.81,6.24-9.1a8.25,8.25,0,0,0-.91-3.69,12.81,12.81,0,0,0-8-6.94c-3.13-.83-6.48,1-8.46-2.74-.82-1.55-.83-3.48-1.85-4.92-1.44-2-4.47-2.35-6.87-1.49-1.92.69-4.1,2-5.78.94-2.35-1.51-2.55-5.62-4.66-7.62-1.67-1.58-4.29-2.36-6.31-1.28a26,26,0,0,0-2.94,2.45c-5.13,3.88-11,0-14.85,6.51-1.9,3.22-3.16,7.18-6.44,9-4.45,2.4-11-.2-14.37,3.6-2.38,2.72-1.49,7.23-3.77,10s-6.88,2.63-10.62,2-8.25-.91-10.63,2c-1.05,1.3-1.47,3-2.56,4.29-2.17,2.52-6.21,2.31-9.26,1s-5.72-3.5-8.91-4.45c-3.6-1.07-8.82-.54-11.27,2.51s-1.56,7.45-3.86,10.54c-3.37,4.51-9-1-12.39,4.17-1.52,2.32-1.76,4-2.31,6.67-.52,2.47-3.28,3.6-4.63,5.75a5.41,5.41,0,0,0-.52,4.46,7.33,7.33,0,0,0,2.35,3.84c1.12.82,2.8,1,3.85,1.91,1.49,1.26,1.18,3.48.51,5.4s-1.63,3.92-1.16,5.72c.27,1.09,1.05,2,1.3,3.09.45,2-.83,2.86-1.46,4.48A4.71,4.71,0,0,0,620.6,1477.38Z" style="fill: #006838;stroke: #3a3632;stroke-linecap: round;stroke-miterlimit: 10;stroke-width: 10px"/>
    <path d="M761.86,1551.63c-.34,16.19-30.19,27.38-39.75,13.88-4.4-13.76-3.76-19.33-11.42-32.16-7-11.71-42.55-42-42.55-42l7.34-8.53s28.8,22.77,32.6,20.84c4.22-2.15-8-42.48-8-42.48l15.13-6.43s12.62,41.06,15.9,40.64c4.51-.57,9.71-44.8,9.71-44.8l11,1.79c-.58,10.63-5.25,53.05-3.36,63.07C752.21,1535,757,1543.67,761.86,1551.63Z" style="fill: #82c14c;stroke: #3a3632;stroke-linecap: round;stroke-linejoin: round;stroke-width: 10px"/>
    <path d="M787.85,1389.71a9.66,9.66,0,0,0-1.41-3.58,8.13,8.13,0,0,0-6.8-3.62,5.19,5.19,0,0,1-2.45-.19c-1.52-.73-1.63-2.89-2-4.6a9.1,9.1,0,0,0-3.63-5.47c-2.92-2-6.64-2-10-1.51-2.74.36-6,.72-7.88-1.52-1.5-1.79-1.4-4.52-2.72-6.45-1.92-2.81-5.87-2.74-8.95-1.88s-6.36,2.21-9.4.93c-3.26-1.37-3.37-4.38-5.68-6.47a8.64,8.64,0,0,0-8.62-1.58c-2.71,1.08-4.73,3.58-7.49,4.52-2.95,1-6.38.1-9.22,1.37-3.2,1.43-4.92,5.31-8.17,6.63-5.31,2.18-11.92-3.43-17-.76-3.89,2-4.78,8-8.74,9.84-3.15,1.52-7.15-.11-10.37,1.24-4.69,2-4.63,8.23-8.33,11.06-4.59,3.52-13.11,1.17-18.72,4.19-5,2.69-8.79,8.67-7.3,14.54a10.12,10.12,0,0,1,.49,2.41c0,3.22-3.94,4.29-6,6.55-4.3,4.67-.1,14-4.41,18.63-1,1-2.22,1.67-3.16,2.71-1.74,1.93-2,5-1.41,7.63,1.41,5.94,4.69,8.74.93,14.43-2.52,3.82-7.22,5.74-7.34,11.1a11,11,0,0,0,1.11,4.64,16.45,16.45,0,0,0,9.59,9c3.73,1.18,7.69-1,10.07,3.8,1,2,1,4.39,2.25,6.23,1.72,2.55,5.33,3.14,8.17,2.17,2.28-.77,4.85-2.32,6.85-.91,2.81,2,3.08,7.13,5.61,9.72,2,2,5.11,3.14,7.5,1.89,1.33-.71,2.26-2,3.47-2.94,6.06-4.62,13.11.43,17.59-7.47,2.23-3.93,3.69-8.82,7.57-10.89,5.26-2.8,13.11.73,17-3.86,2.81-3.29,1.71-9,4.39-12.38,2.8-3.58,8.15-3,12.6-2.07s9.8,1.51,12.61-2.06c1.24-1.57,1.72-3.71,3-5.24,2.56-3,7.35-2.61,11-.83s6.82,4.63,10.62,6c4.29,1.49,10.48,1.07,13.37-2.63s1.79-9.24,4.49-13c4-5.49,10.71,1.61,14.68-4.66,1.79-2.83,2.06-4.94,2.69-8.22.6-3.06,3.87-4.36,5.45-7a7,7,0,0,0,.59-5.55,9.9,9.9,0,0,0-2.83-4.9c-1.34-1.07-3.34-1.39-4.6-2.56-1.77-1.64-1.42-4.39-.64-6.76s1.89-4.83,1.33-7.1c-.34-1.37-1.27-2.54-1.57-3.92-.56-2.55,1-3.53,1.69-5.52A6.22,6.22,0,0,0,787.85,1389.71Z" style="fill: #009444;stroke: #3a3632;stroke-linecap: round;stroke-miterlimit: 10;stroke-width: 10px"/>
  </g>
  <g>
    <path d="M1195.71,1696.73a4.3,4.3,0,0,1-1,2.74c-1.44,1.68-4.47,2.49-7.76,2.09a9.89,9.89,0,0,0-3-.16c-1.75.41-1.43,2.16-1.53,3.5a4.87,4.87,0,0,1-3.39,4c-3.24,1.28-7.91.74-12.26-.06-3.51-.65-7.68-1.35-9.56.23-1.5,1.27-.79,3.52-2,4.92-1.81,2-6.77,1.49-10.82.39s-8.44-2.62-12-2c-3.8.7-3.29,3.15-5.75,4.56s-6.86,1.41-10.47.18-6.69-3.53-10.35-4.65c-3.92-1.2-8-.9-11.86-2.3-4.32-1.58-7.29-5-11.64-6.47-7.13-2.45-14.23,1.28-21.19-1.55-5.3-2.16-7.68-7.11-13-9.16-4.28-1.64-8.94-.82-13.27-2.34-6.3-2.22-7.55-7.31-12.79-10.1-6.5-3.46-16.69-2.63-24.37-5.82-6.84-2.84-12.85-8.21-12.24-12.81a4.67,4.67,0,0,0,.12-1.9c-.67-2.64-5.86-4-9-6.13-6.38-4.36-3.09-11.43-9.49-15.78-1.41-1-3.13-1.65-4.53-2.61a7.1,7.1,0,0,1-3.38-6.42c.5-4.66,4-6.53-1.9-11.66-4-3.44-10.27-5.62-11.56-10a5.13,5.13,0,0,1,.4-3.65c1.45-3.15,5.13-5.6,10.11-6.15,4.43-.48,9.85,1.79,11.83-1.81.81-1.49.33-3.45,1.49-4.79,1.61-1.87,6-1.88,9.78-.73,3,.92,6.58,2.52,8.79,1.62,3.1-1.26,2.35-5.42,5-7.22a10.1,10.1,0,0,1,9-.58c1.82.75,3.27,1.94,5,2.84,8.59,4.56,16.35,1.33,23.65,8.36,3.63,3.49,6.49,7.68,11.8,9.87,7.19,3,16.28,1.08,22.18,5.33,4.22,3,4,7.54,8.13,10.67,4.28,3.28,10.86,3.48,16.25,3.31s12,0,16.25,3.3c1.89,1.44,2.94,3.25,4.88,4.66,3.86,2.82,9.77,3.08,14,2.09s7.57-2.91,12.05-3.51c5.06-.67,12.91.47,17.31,3.86,4.25,3.27,4.21,7.78,8.4,11.19,6.14,5,13.08,0,19.39,5.68,2.85,2.54,3.63,4.3,5.12,7.06,1.4,2.58,5.78,4.06,8.31,6.4,1.69,1.56,2.18,3.22,1.92,4.6a4.85,4.85,0,0,1-2.51,3.65c-1.45.7-3.89.71-5.22,1.49-1.87,1.12-.85,3.41.63,5.44s3.4,4.19,3.18,6c-.14,1.07-1.06,1.9-1.14,3-.16,2,2,3,3.29,4.73A4.13,4.13,0,0,1,1195.71,1696.73Z" style="fill: #006838;stroke: #3a3632;stroke-linecap: round;stroke-miterlimit: 10;stroke-width: 10px"/>
    <path d="M1005.23,1775.87c4.44,20.12,58.69,36.94,72,21,5.1-20.38,2.93-28.66,13.9-47.63,10-17.32,66-69,66-69l-14.43-12.73s-45.66,40.51-52.66,37.61c-7.78-3.23,5.89-63,5.89-63l-27.63-9.68s-14.31,60.82-20.12,60.17c-8-.89-29.38-79.53-29.38-79.53l-15.53,18.5c3,15.78,19.77,75.8,18.36,90.65C1019,1751.32,1012.31,1764.11,1005.23,1775.87Z" style="fill: #82c14c;stroke: #3a3632;stroke-linecap: round;stroke-linejoin: round;stroke-width: 10px"/>
    <path d="M1066,1789.52c-4.56-8.73-40.11-19.44-47.08-13.71" style="fill: #82c14c;stroke: #3a3632;stroke-linecap: round;stroke-linejoin: round;stroke-width: 10px"/>
    <path d="M947.64,1543.67a13,13,0,0,1,1.77-5.3,12.11,12.11,0,0,1,10.07-5.66,8.26,8.26,0,0,0,3.75-.41c2.27-1.15,2.19-4.31,2.57-6.83a12.58,12.58,0,0,1,5-8.19c4.28-3.12,10-3.21,15.3-2.73,4.25.38,9.33.72,12-2.65,2.11-2.69,1.64-6.68,3.46-9.57,2.64-4.21,8.73-4.32,13.57-3.22s10.06,2.89,14.6.86c4.88-2.18,4.7-6.59,8-9.76a13.61,13.61,0,0,1,13.11-2.77c4.3,1.43,7.69,5,12.06,6.22,4.66,1.31,9.84-.21,14.37,1.5,5.09,1.93,8.18,7.5,13.33,9.26,8.44,2.9,18-5.64,26.16-2,6.22,2.77,8.27,11.37,14.58,13.93,5,2,11-.56,16.13,1.26,7.44,2.63,8.07,11.77,14.09,15.72,7.47,4.89,20.34,1,29.33,5.12,8,3.67,14.53,12.2,12.9,20.87a13.8,13.8,0,0,0-.49,3.54c.34,4.72,6.57,6.06,10,9.26,7.15,6.59,1.74,20.43,8.92,27,1.58,1.44,3.61,2.32,5.16,3.79,2.91,2.74,3.71,7.15,3,11.08-1.49,8.75-6.23,13,.21,21.14,4.32,5.45,11.77,8,12.56,15.83a15,15,0,0,1-1.17,6.84,23.46,23.46,0,0,1-13.76,13.7c-5.61,1.92-12-1-15.09,6.09-1.3,3-1.06,6.47-2.76,9.22-2.36,3.83-7.86,4.87-12.35,3.61-3.59-1-7.74-3.14-10.67-1-4.1,3-3.94,10.58-7.53,14.51-2.84,3.09-7.52,4.86-11.35,3.15-2.14-1-3.72-2.82-5.68-4.1-9.87-6.44-20.15,1.32-28-10-3.88-5.62-6.67-12.7-12.9-15.52-8.42-3.81-20.12,1.78-26.69-4.73-4.71-4.67-3.66-13-8.17-17.86-4.73-5.08-12.91-3.92-19.67-2.36s-14.93,2.73-19.67-2.33c-2.09-2.24-3.07-5.34-5.22-7.51-4.29-4.32-11.63-3.43-17-.63s-10,7.14-15.69,9.28c-6.44,2.41-16,2.12-20.9-3.13-4.7-5.07-3.81-13.41-8.41-18.75-6.73-7.81-16.32,2.92-23.15-6-3.07-4-3.72-7.11-5.08-11.87-1.26-4.45-6.46-6.17-9.18-9.91a9.91,9.91,0,0,1-1.54-8.08c.56-2.52,1.7-5.55,3.81-7.32,1.94-1.63,5-2.21,6.79-4,2.55-2.5,1.69-6.51.23-9.92s-3.47-7-2.86-10.31c.37-2,1.67-3.78,2-5.81.57-3.76-1.88-5.11-3.23-8A8.6,8.6,0,0,1,947.64,1543.67Z" style="fill: #009444;stroke: #3a3632;stroke-linecap: round;stroke-miterlimit: 10;stroke-width: 10px"/>
  </g>
  <g>
    <path d="M946.21,1846.64a7.11,7.11,0,0,0,2.93-.86,6.62,6.62,0,0,0,3.29-5.38,4.51,4.51,0,0,1,.3-2c.67-1.21,2.4-1.11,3.78-1.27a6.89,6.89,0,0,0,4.57-2.54c1.79-2.28,1.95-5.41,1.8-8.3-.12-2.33-.21-5.11,1.69-6.48,1.51-1.1,3.68-.76,5.29-1.7,2.35-1.36,2.54-4.68,2-7.34s-1.37-5.55-.17-8c1.29-2.62,3.69-2.43,5.49-4.18a7.44,7.44,0,0,0,1.78-7.1c-.7-2.38-2.57-4.3-3.15-6.71-.63-2.57.3-5.37-.54-7.88-.95-2.82-3.92-4.61-4.78-7.46-1.42-4.67,3.44-9.72,1.63-14.24-1.39-3.45-6-4.75-7.31-8.24-1-2.79.52-6-.36-8.84-1.29-4.11-6.27-4.64-8.3-8-2.52-4.17-.14-11.12-2.21-16.11-1.84-4.45-6.37-8.18-11.13-7.47a7.53,7.53,0,0,1-1.94.2c-2.57-.28-3.18-3.71-4.86-5.67-3.45-4-11.12-1.36-14.55-5.41-.76-.89-1.2-2-2-2.9a6.74,6.74,0,0,0-6-1.88c-4.81.64-7.24,3.14-11.54-.54-2.89-2.47-4.14-6.59-8.39-7.18a8.23,8.23,0,0,0-3.76.51,12.79,12.79,0,0,0-7.76,7.23c-1.16,3,.32,6.55-3.63,8.12-1.63.65-3.55.45-5.08,1.32-2.14,1.21-2.82,4.19-2.22,6.67.48,2,1.55,4.29.31,5.84-1.75,2.18-5.86,1.94-8.07,3.82-1.75,1.49-2.81,4-1.95,6.13a24.52,24.52,0,0,0,2.12,3.19c3.32,5.52-1.13,11,4.89,15.47,3,2.23,6.8,3.9,8.21,7.35,1.92,4.68-1.37,11,2.05,14.67,2.45,2.67,7,2.26,9.59,4.82s1.87,7.13.89,10.79-1.8,8.1.87,10.78c1.18,1.19,2.86,1.79,4,3,2.27,2.43,1.63,6.42,0,9.31s-4.09,5.31-5.38,8.38c-1.44,3.47-1.48,8.71,1.29,11.47s7.25,2.35,10.07,5c4.12,3.83-1.93,8.85,2.82,12.76,2.15,1.76,3.81,2.18,6.38,3,2.4.78,3.24,3.65,5.23,5.21a5.4,5.4,0,0,0,4.38,1,7.34,7.34,0,0,0,4.07-1.93c.93-1,1.31-2.67,2.31-3.63,1.41-1.34,3.58-.79,5.42.08s3.72,2,5.57,1.77c1.11-.16,2.09-.84,3.21-1,2.06-.23,2.75,1.13,4.29,1.93A4.8,4.8,0,0,0,946.21,1846.64Z" style="fill: #006838;stroke: #3a3632;stroke-linecap: round;stroke-miterlimit: 10;stroke-width: 10px"/>
    <path d="M1035.13,1714.12c11.64,2.73,19.21,33.66,9.55,41-14.15,2.91-19.62,1.67-33.2,7.92-12.39,5.71-46.35,37.81-46.35,37.81l-7.69-8.21s25.72-26.2,24.2-30.18c-1.68-4.43-43.09,3.37-43.09,3.37l-4.77-15.73s42.17-8.16,42.11-11.47c-.09-4.54-43.51-14.44-43.51-14.44l3-10.77c10.51,1.72,52.19,10.89,62.35,10.09C1017.59,1722,1026.69,1718.16,1035.13,1714.12Z" style="fill: #82c14c;stroke: #3a3632;stroke-linecap: round;stroke-linejoin: round;stroke-width: 10px"/>
    <path d="M876.92,1671a9.7,9.7,0,0,0-3.71,1,8.12,8.12,0,0,0-4.33,6.38,5.06,5.06,0,0,1-.45,2.41c-.89,1.44-3,1.31-4.79,1.5a9.13,9.13,0,0,0-5.83,3c-2.33,2.69-2.65,6.4-2.57,9.82.07,2.76.07,6-2.35,7.67-1.94,1.3-4.64.9-6.71,2-3,1.61-3.35,5.54-2.82,8.7s1.52,6.56-.08,9.44c-1.71,3.1-4.72,2.88-7,5a8.65,8.65,0,0,0-2.5,8.4c.79,2.81,3.06,5.08,3.7,7.93.68,3-.59,6.35.37,9.32,1.09,3.34,4.75,5.45,5.73,8.82,1.59,5.52-4.69,11.5-2.58,16.85,1.6,4.08,7.39,5.6,8.85,9.74,1.17,3.3-.88,7.09.12,10.45,1.47,4.87,7.68,5.48,10.11,9.46,3,4.94-.25,13.16,2.16,19.06,2.14,5.26,7.68,9.66,13.68,8.82a9.63,9.63,0,0,1,2.44-.24c3.21.33,3.85,4.38,5.88,6.7,4.18,4.77,13.89,1.59,18,6.38.92,1.05,1.43,2.38,2.36,3.42,1.74,1.94,4.72,2.56,7.44,2.22,6.05-.76,9.19-3.72,14.44.62,3.53,2.92,4.94,7.79,10.25,8.48a10.84,10.84,0,0,0,4.74-.6,16.52,16.52,0,0,0,10-8.57c1.56-3.58-.16-7.75,4.85-9.61,2.08-.77,4.47-.53,6.43-1.56,2.72-1.44,3.69-5,3-7.9-.52-2.34-1.79-5.07-.17-6.91,2.27-2.58,7.42-2.3,10.27-4.53,2.24-1.76,3.67-4.75,2.67-7.26-.56-1.4-1.76-2.47-2.54-3.76-4-6.53,1.82-13-5.55-18.29-3.67-2.64-8.38-4.61-10-8.69-2.23-5.54,2.13-13-2-17.36-3-3.14-8.73-2.66-11.84-5.68s-2.09-8.43-.71-12.76,2.55-9.58-.7-12.76c-1.43-1.4-3.51-2.1-4.89-3.55-2.76-2.87-1.81-7.59.35-11s5.34-6.29,7.06-9.93c1.95-4.1,2.19-10.3-1.18-13.57s-9-2.76-12.44-5.86c-5-4.52,2.75-10.47-3.06-15.09-2.62-2.08-4.69-2.57-7.89-3.55-3-.92-3.92-4.32-6.35-6.16a7,7,0,0,0-5.45-1.18,9.77,9.77,0,0,0-5.18,2.29c-1.21,1.21-1.75,3.16-3,4.29-1.82,1.59-4.52,1-6.79-.08s-4.6-2.4-6.92-2.08c-1.4.19-2.66,1-4.06,1.14-2.6.28-3.41-1.33-5.31-2.27A6.22,6.22,0,0,0,876.92,1671Z" style="fill: #009444;stroke: #3a3632;stroke-linecap: round;stroke-miterlimit: 10;stroke-width: 10px"/>
    <path d="M1035.13,1714.12a37.87,37.87,0,0,0-1.06,21.52c2.66,11.13,10.61,19.49,10.61,19.49" style="fill: #82c14c;stroke: #3a3632;stroke-linecap: round;stroke-linejoin: round;stroke-width: 10px"/>
  </g>
  <g>
    <path d="M1290.26,1622.63a7,7,0,0,0-2.59,1.61,6.6,6.6,0,0,0-1.73,6.07,4.69,4.69,0,0,1,.26,2c-.33,1.35-2,1.71-3.31,2.23a6.85,6.85,0,0,0-3.72,3.68c-1.12,2.67-.43,5.73.49,8.47.74,2.21,1.57,4.87.12,6.7-1.17,1.46-3.35,1.72-4.65,3-1.9,1.94-1.19,5.19,0,7.62s2.81,5,2.31,7.65c-.54,2.87-2.91,3.33-4.17,5.5a7.46,7.46,0,0,0,.19,7.32c1.31,2.1,3.63,3.45,4.83,5.62s1.15,5.25,2.63,7.44c1.67,2.47,5,3.4,6.61,5.91,2.61,4.12-.72,10.28,2.25,14.16,2.25,3,7.08,3,9.24,6,1.73,2.42,1.11,5.92,2.72,8.41,2.35,3.62,7.28,2.79,10.14,5.49,3.55,3.35,3.12,10.69,6.45,14.94,3,3.79,8.33,6.17,12.72,4.21a7.84,7.84,0,0,1,1.82-.72c2.55-.41,4.06,2.73,6.2,4.17,4.41,3,11.08-1.68,15.47,1.31,1,.66,1.69,1.62,2.67,2.26a6.74,6.74,0,0,0,6.27.21c4.47-1.9,6.13-5,11.26-2.57,3.45,1.61,5.75,5.24,10,4.67a8.16,8.16,0,0,0,3.49-1.5,12.81,12.81,0,0,0,5.53-9c.31-3.22-2.06-6.22,1.32-8.79,1.4-1.06,3.3-1.38,4.55-2.63,1.73-1.74,1.59-4.8.35-7-1-1.79-2.65-3.72-1.87-5.55,1.1-2.56,5.13-3.44,6.76-5.84,1.28-1.9,1.63-4.62.23-6.43a24,24,0,0,0-2.9-2.5c-4.67-4.43-1.85-10.88-8.86-13.59-3.48-1.35-7.59-1.94-9.88-4.89-3.1-4-1.61-10.92-5.9-13.58-3.08-1.91-7.38-.3-10.53-2.08s-3.72-6.36-3.75-10.15-.44-8.28-3.73-10.16c-1.46-.82-3.23-1-4.66-1.82-2.84-1.73-3.29-5.75-2.49-9s2.52-6.22,2.94-9.52c.46-3.73-.91-8.79-4.32-10.71s-7.61-.32-11-2.09c-5-2.58-.52-9-6.14-11.53-2.54-1.13-4.25-1.08-7-1.2-2.52-.1-4.09-2.65-6.42-3.62a5.42,5.42,0,0,0-4.49.21,7.46,7.46,0,0,0-3.41,3c-.62,1.24-.54,2.93-1.25,4.11-1,1.67-3.24,1.73-5.24,1.38s-4.14-1-5.84-.21c-1,.46-1.8,1.37-2.84,1.79-1.92.78-3-.35-4.65-.7A4.66,4.66,0,0,0,1290.26,1622.63Z" style="fill: #006838;stroke: #3a3632;stroke-linecap: round;stroke-miterlimit: 10;stroke-width: 10px"/>
    <path d="M1240.11,1774.13c-11.95.49-27.53-27.28-20.19-36.94,12.85-6.6,18.45-6.87,29.86-16.54,10.4-8.81,34.52-48.84,34.52-48.84l9.61,5.85s-17.76,32.13-15.23,35.56c2.81,3.81,40.61-14.8,40.61-14.8l8.81,13.88s-38.44,19.16-37.49,22.33c1.3,4.36,45.79,2.25,45.79,2.25l0,11.17c-10.58,1.17-53.2,3.5-62.77,7C1254.91,1761.89,1247.15,1768,1240.11,1774.13Z" style="fill: #82c14c;stroke: #3a3632;stroke-linecap: round;stroke-linejoin: round;stroke-width: 10px"/>
    <path d="M1404.09,1773.3a9.49,9.49,0,0,0,3.3-2,8.09,8.09,0,0,0,2.47-7.3,5.22,5.22,0,0,1-.22-2.44c.48-1.63,2.59-2.09,4.22-2.73a9.11,9.11,0,0,0,4.8-4.48c1.53-3.21.84-6.87-.15-10.14-.81-2.64-1.69-5.81.21-8,1.52-1.77,4.23-2.12,5.92-3.74,2.46-2.36,1.74-6.24.39-9.13s-3.22-5.92-2.46-9.13c.82-3.44,3.78-4,5.46-6.66a8.62,8.62,0,0,0,.15-8.76c-1.51-2.5-4.31-4.08-5.69-6.65-1.47-2.75-1.13-6.28-2.85-8.88-1.94-2.92-6-4-7.88-7-3-4.89,1.43-12.32-2-16.92-2.64-3.5-8.62-3.41-11.14-7-2-2.87-1-7.08-2.92-10-2.71-4.3-8.87-3.22-12.27-6.41-4.22-4-3.29-12.74-7.19-17.78-3.48-4.49-10-7.25-15.54-4.83a10.54,10.54,0,0,1-2.29.89c-3.18.54-4.88-3.2-7.46-4.89-5.3-3.47-13.81,2.2-19.1-1.3-1.16-.77-2-1.92-3.18-2.67-2.2-1.4-5.23-1.2-7.76-.15-5.63,2.36-7.86,6.06-14.09,3.28-4.18-1.87-6.84-6.18-12.14-5.43a11.1,11.1,0,0,0-4.4,1.85,16.5,16.5,0,0,0-7.34,10.94c-.55,3.87,2.23,7.43-2.1,10.56-1.79,1.3-4.17,1.71-5.78,3.23-2.24,2.11-2.22,5.77-.8,8.42,1.13,2.12,3.08,4.41,2,6.61-1.5,3.09-6.53,4.21-8.68,7.12-1.69,2.3-2.26,5.55-.63,7.71.91,1.2,2.36,1.9,3.46,2.94,5.55,5.23,1.72,13,10.25,16.14,4.24,1.55,9.3,2.19,12,5.68,3.63,4.73,1.42,13.06,6.6,16.18,3.7,2.23,9.12.22,12.93,2.31,4,2.18,4.27,7.56,4.1,12.09s.11,9.92,4.09,12.11c1.75,1,3.94,1.09,5.66,2.11,3.43,2,3.78,6.82,2.62,10.7s-3.46,7.49-4.15,11.46c-.77,4.47.66,10.51,4.78,12.75s9.41.26,13.55,2.32c6.06,3,.17,10.82,7,13.71,3.08,1.31,5.21,1.22,8.55,1.32,3.12.08,4.93,3.1,7.77,4.23a7,7,0,0,0,5.57-.33,9.8,9.8,0,0,0,4.38-3.59c.83-1.5.83-3.52,1.77-4.95,1.33-2,4.11-2.13,6.57-1.75s5.07,1.09,7.22.16c1.3-.56,2.3-1.67,3.61-2.19,2.42-1,3.64.37,5.73.76A6.15,6.15,0,0,0,1404.09,1773.3Z" style="fill: #009444;stroke: #3a3632;stroke-linecap: round;stroke-miterlimit: 10;stroke-width: 10px"/>
    <path d="M1240.11,1774.13a37.92,37.92,0,0,0-4.75-21c-5.54-10-15.44-15.93-15.44-15.93" style="fill: #82c14c;stroke: #3a3632;stroke-linecap: round;stroke-linejoin: round;stroke-width: 10px"/>
  </g>
  <g>
    <path d="M355.39,1398.5a7,7,0,0,0-2.59,1.61,6.61,6.61,0,0,0-1.73,6.07,4.69,4.69,0,0,1,.26,2c-.33,1.35-2,1.71-3.31,2.23a6.88,6.88,0,0,0-3.72,3.68c-1.12,2.67-.43,5.73.49,8.47.74,2.22,1.57,4.87.12,6.7-1.17,1.46-3.35,1.72-4.65,3-1.9,1.94-1.19,5.19,0,7.63s2.81,5,2.31,7.64c-.54,2.87-2.91,3.33-4.17,5.5a7.46,7.46,0,0,0,.19,7.32c1.31,2.11,3.63,3.45,4.83,5.62s1.15,5.25,2.63,7.44c1.67,2.47,5,3.4,6.61,5.91,2.61,4.12-.72,10.28,2.25,14.16,2.25,3,7.08,3,9.24,6,1.73,2.42,1.11,5.92,2.72,8.41,2.35,3.62,7.28,2.8,10.14,5.5,3.55,3.34,3.12,10.68,6.45,14.93,3,3.79,8.33,6.17,12.72,4.21a7.39,7.39,0,0,1,1.82-.71c2.55-.42,4.06,2.72,6.2,4.16,4.41,3,11.08-1.67,15.47,1.31,1,.66,1.69,1.62,2.67,2.26a6.74,6.74,0,0,0,6.27.21c4.47-1.9,6.13-5,11.26-2.57,3.45,1.61,5.75,5.24,10,4.67a8.27,8.27,0,0,0,3.49-1.49,12.85,12.85,0,0,0,5.53-9.06c.31-3.22-2.06-6.22,1.32-8.79,1.4-1.06,3.3-1.38,4.55-2.63,1.73-1.74,1.59-4.79.35-7-1-1.78-2.65-3.72-1.87-5.55,1.1-2.56,5.13-3.43,6.76-5.84,1.28-1.9,1.63-4.61.23-6.43a24,24,0,0,0-2.9-2.5c-4.67-4.43-1.85-10.88-8.86-13.59-3.48-1.35-7.59-1.94-9.88-4.89-3.1-4-1.61-10.92-5.9-13.58-3.08-1.91-7.38-.3-10.53-2.08-3.3-1.87-3.72-6.36-3.75-10.15s-.44-8.28-3.73-10.16c-1.46-.82-3.23-1-4.66-1.82-2.84-1.73-3.29-5.74-2.49-9s2.52-6.22,2.94-9.52c.46-3.73-.91-8.79-4.32-10.71s-7.61-.32-11-2.08c-5-2.59-.52-9-6.14-11.54-2.54-1.12-4.25-1.08-7-1.2-2.52-.1-4.09-2.64-6.42-3.62a5.42,5.42,0,0,0-4.49.21,7.46,7.46,0,0,0-3.41,3c-.62,1.24-.54,2.93-1.25,4.11-1,1.68-3.24,1.73-5.24,1.39s-4.14-1-5.84-.22c-1,.46-1.8,1.37-2.84,1.79-1.92.78-2.95-.35-4.65-.7A4.66,4.66,0,0,0,355.39,1398.5Z" style="fill: #006838;stroke: #3a3632;stroke-linecap: round;stroke-miterlimit: 10;stroke-width: 10px"/>
    <path d="M305.24,1550c-11.95.49-27.53-27.28-20.19-36.94,12.85-6.6,18.45-6.87,29.86-16.54,10.4-8.81,34.52-48.84,34.52-48.84l9.61,5.85s-17.76,32.13-15.23,35.56c2.81,3.81,40.61-14.8,40.61-14.8l8.81,13.88s-38.44,19.16-37.49,22.34c1.3,4.35,45.79,2.25,45.79,2.25l0,11.16c-10.58,1.17-53.2,3.5-62.77,7C320,1537.76,312.28,1543.85,305.24,1550Z" style="fill: #82c14c;stroke: #3a3632;stroke-linecap: round;stroke-linejoin: round;stroke-width: 10px"/>
    <path d="M469.22,1549.17a9.49,9.49,0,0,0,3.3-2,8.09,8.09,0,0,0,2.47-7.3,5.22,5.22,0,0,1-.22-2.44c.48-1.63,2.59-2.09,4.22-2.73a9.11,9.11,0,0,0,4.8-4.48c1.53-3.21.84-6.87-.15-10.14-.81-2.64-1.69-5.81.21-8,1.52-1.77,4.23-2.12,5.92-3.74,2.46-2.36,1.74-6.23.39-9.13s-3.22-5.92-2.46-9.12c.82-3.45,3.78-4,5.46-6.67a8.62,8.62,0,0,0,.15-8.76c-1.51-2.5-4.31-4.08-5.69-6.65-1.47-2.75-1.13-6.28-2.85-8.88-1.94-2.92-6-4-7.88-7-3-4.89,1.43-12.33-2-16.93-2.64-3.5-8.62-3.41-11.14-7-2-2.87-1.05-7.08-2.92-10-2.71-4.3-8.87-3.22-12.27-6.41-4.22-4-3.29-12.74-7.19-17.78-3.48-4.49-10-7.25-15.54-4.83a10.54,10.54,0,0,1-2.29.89c-3.18.54-4.88-3.19-7.46-4.88-5.3-3.48-13.81,2.19-19.1-1.31-1.16-.77-2-1.92-3.18-2.67-2.2-1.4-5.23-1.2-7.76-.14-5.63,2.35-7.86,6-14.09,3.27-4.18-1.87-6.84-6.18-12.14-5.42a10.94,10.94,0,0,0-4.4,1.84A16.5,16.5,0,0,0,348,1391.7c-.55,3.87,2.23,7.43-2.1,10.56-1.79,1.3-4.17,1.71-5.78,3.23-2.24,2.12-2.22,5.77-.8,8.42,1.13,2.12,3.08,4.41,2,6.61-1.5,3.09-6.53,4.21-8.68,7.12-1.69,2.3-2.26,5.55-.63,7.71.91,1.2,2.36,1.9,3.46,2.94,5.55,5.23,1.72,13,10.25,16.14,4.24,1.55,9.3,2.19,12,5.68,3.63,4.74,1.42,13.06,6.6,16.18,3.7,2.23,9.12.23,12.93,2.31,4,2.18,4.27,7.56,4.1,12.1s.11,9.91,4.09,12.1c1.75,1,3.94,1.09,5.66,2.11,3.43,2,3.78,6.82,2.62,10.71s-3.46,7.49-4.15,11.45c-.77,4.47.66,10.51,4.78,12.75s9.41.26,13.55,2.32c6.06,3,.17,10.82,7,13.71,3.08,1.31,5.21,1.22,8.55,1.32,3.12.08,4.93,3.1,7.77,4.23a7,7,0,0,0,5.57-.33,9.8,9.8,0,0,0,4.38-3.59c.83-1.5.83-3.52,1.77-5,1.33-2,4.11-2.13,6.57-1.74s5.07,1.08,7.22.15c1.3-.56,2.3-1.67,3.61-2.19,2.42-1,3.64.37,5.73.76A6,6,0,0,0,469.22,1549.17Z" style="fill: #009444;stroke: #3a3632;stroke-linecap: round;stroke-miterlimit: 10;stroke-width: 10px"/>
    <path d="M305.24,1550a37.92,37.92,0,0,0-4.75-21c-5.54-10-15.44-15.93-15.44-15.93" style="fill: #82c14c;stroke: #3a3632;stroke-linecap: round;stroke-linejoin: round;stroke-width: 10px"/>
  </g>
  <g>
    <path d="M540.37,1458.33a4.34,4.34,0,0,1,2.92.15c2,.87,3.71,3.53,4.31,6.78a9.61,9.61,0,0,0,.75,2.94c.91,1.55,2.48.72,3.8.42a4.86,4.86,0,0,1,4.83,2c2.2,2.71,3.08,7.34,3.61,11.72.43,3.54,1,7.74,3.08,9.05,1.66,1.06,3.59-.29,5.3.48,2.5,1.12,3.44,6,3.6,10.21s0,8.84,1.71,12c1.8,3.42,4,2.2,6.07,4.12s3.39,6.12,3.3,9.94-1.38,7.44-1.35,11.27c0,4.09,1.54,7.92,1.35,12-.22,4.59-2.56,8.44-2.7,13-.21,7.54,5.47,13.2,4.85,20.69-.48,5.7-4.49,9.45-4.85,15.18-.29,4.57,1.89,8.77,1.73,13.36-.23,6.67-4.72,9.39-5.82,15.23-1.36,7.23,2.47,16.71,1.72,25-.66,7.38-4,14.72-8.57,15.51a4.89,4.89,0,0,0-1.85.46c-2.31,1.43-2.07,6.79-3.17,10.38-2.26,7.39-10,6.36-12.22,13.77-.49,1.63-.64,3.48-1.14,5.1a7.1,7.1,0,0,1-5.11,5.15c-4.61.91-7.44-1.89-10.57,5.3-2.1,4.82-2.29,11.47-6.09,14a5.19,5.19,0,0,1-3.61.71c-3.43-.44-6.87-3.23-8.88-7.82-1.78-4.07-1.23-9.93-5.26-10.74-1.67-.33-3.4.71-5,0-2.26-1-3.59-5.18-3.62-9.12,0-3.16.44-7-1.07-8.87-2.13-2.58-5.88-.63-8.38-2.59a10.08,10.08,0,0,1-3.24-8.42,55.06,55.06,0,0,1,1.23-5.59c1.78-9.56-3.62-16,.91-25.06,2.25-4.51,5.39-8.49,5.89-14.21.68-7.75-3.83-15.86-1.53-22.77,1.65-4.94,6-6.11,7.76-10.94,1.85-5.06.07-11.4-1.7-16.5s-3.56-11.42-1.71-16.49c.81-2.23,2.23-3.78,3-6,1.54-4.52,0-10.24-2.18-13.94s-5-6.36-6.95-10.46c-2.15-4.62-3.4-12.46-1.48-17.67,1.85-5,6.16-6.34,8.16-11.36,2.93-7.34-3.85-12.5-.36-20.2,1.57-3.48,3-4.75,5.21-7,2-2.1,2.14-6.72,3.62-9.84,1-2.08,2.42-3,3.82-3.2a4.85,4.85,0,0,1,4.23,1.3c1.1,1.18,1.84,3.5,3,4.53,1.63,1.46,3.51-.2,5-2.22s3-4.49,4.75-4.81c1.07-.2,2.14.43,3.2.19,2-.45,2.29-2.76,3.53-4.55A4.15,4.15,0,0,1,540.37,1458.33Z" style="fill: #006838;stroke: #3a3632;stroke-linecap: round;stroke-miterlimit: 10;stroke-width: 10px"/>
    <path d="M672.79,1616.49c17.87-10.24,17.71-67-1.5-75-21,1.22-28.23,5.77-49.61,1C602.17,1538,536.12,1500,536.12,1500l-7.84,17.57s52.3,31.48,51.62,39c-.76,8.38-61.88,13.18-61.88,13.18l-1,29.27s62.32-4.51,63.44,1.23c1.53,7.88-67.13,51.78-67.13,51.78l22.29,9.31c14.16-7.59,66.44-41.51,81-44.6C645.26,1610.71,659.44,1613.24,672.79,1616.49Z" style="fill: #82c14c;stroke: #3a3632;stroke-linecap: round;stroke-linejoin: round;stroke-width: 10px"/>
    <path d="M667.67,1554.45c-7,7-6.57,44.08,1,49" style="fill: #82c14c;stroke: #3a3632;stroke-linecap: round;stroke-linejoin: round;stroke-width: 10px"/>
    <path d="M468.38,1740.79a12.94,12.94,0,0,1-5.59-.1,12.12,12.12,0,0,1-8.41-7.92,8.32,8.32,0,0,0-1.51-3.46c-1.78-1.82-4.77-.8-7.28-.41a12.63,12.63,0,0,1-9.31-2.3c-4.25-3.15-6-8.6-7.17-13.78-.91-4.18-2.1-9.13-6.1-10.64-3.2-1.2-6.86.43-10.17-.44-4.8-1.27-6.72-7-7.12-12s-.25-10.47-3.54-14.19c-3.54-4-7.69-2.51-11.72-4.74a13.6,13.6,0,0,1-6.55-11.68c.08-4.54,2.46-8.83,2.33-13.37-.14-4.83-3.13-9.33-2.85-14.16.31-5.44,4.7-10,4.85-15.49.25-8.93-10.76-15.49-9.74-24.36.78-6.76,8.38-11.29,8.93-18.07.45-5.42-3.81-10.34-3.61-15.78.29-7.89,8.82-11.21,10.79-18.14,2.45-8.59-5.11-19.71-3.87-29.52,1.12-8.74,7.31-17.51,16.06-18.55a13.86,13.86,0,0,0,3.53-.58c4.4-1.74,3.82-8.08,5.84-12.36,4.16-8.79,19-7.75,23.1-16.56.9-1.94,1.14-4.14,2.07-6.07,1.75-3.58,5.71-5.67,9.67-6.2,8.8-1.19,14.28,2.06,20.11-6.52,3.91-5.75,4.13-13.62,11.35-16.71a15.06,15.06,0,0,1,6.89-.93,23.48,23.48,0,0,1,17.18,9c3.5,4.79,2.59,11.73,10.32,12.59,3.2.36,6.49-.92,9.62-.12,4.36,1.11,7,6,7.13,10.71.11,3.73-.68,8.32,2.27,10.46,4.13,3,11.27.6,16.1,2.86,3.79,1.78,6.88,5.73,6.39,9.89-.28,2.33-1.58,4.39-2.22,6.65-3.19,11.34,7.28,18.84-1.18,29.67-4.2,5.38-10.12,10.17-11,17-1.13,9.18,7.7,18.67,3.45,26.89-3.05,5.88-11.33,7.38-14.61,13.13-3.43,6,.12,13.49,3.63,19.47s7.06,13.44,3.64,19.47c-1.5,2.66-4.17,4.53-5.6,7.23-2.84,5.38.2,12.12,4.49,16.44s9.8,7.41,13.54,12.21c4.23,5.43,6.81,14.66,3.25,20.88-3.43,6-11.66,7.64-15.38,13.62-5.44,8.76,7.66,14.71,1.16,23.9-2.94,4.14-5.67,5.68-9.82,8.39-3.86,2.54-3.95,8-6.71,11.72a9.84,9.84,0,0,1-7.25,3.88c-2.57.22-5.8,0-8.12-1.44-2.14-1.37-3.6-4.09-5.82-5.29-3.14-1.69-6.72.32-9.54,2.74s-5.6,5.39-9,5.81c-2,.25-4.1-.47-6.14-.16-3.75.58-4.31,3.32-6.65,5.47A8.68,8.68,0,0,1,468.38,1740.79Z" style="fill: #009444;stroke: #3a3632;stroke-linecap: round;stroke-miterlimit: 10;stroke-width: 10px"/>
  </g>
  <g>
    <path d="M602.28,1695.9a10.48,10.48,0,0,0,.67,4.39,9.62,9.62,0,0,0,7.13,5.78,6.68,6.68,0,0,1,2.88.82c1.62,1.21,1.13,3.67,1.09,5.69a10,10,0,0,0,2.79,7.09c2.93,3,7.41,3.85,11.61,4.19,3.38.27,7.4.68,9,3.67,1.28,2.39.38,5.45,1.42,8,1.5,3.65,6.25,4.55,10.19,4.34s8.26-.91,11.54,1.29c3.53,2.36,2.79,5.79,5,8.72a10.81,10.81,0,0,0,9.89,3.93c3.56-.55,6.69-2.87,10.27-3.25,3.83-.4,7.68,1.48,11.45.75,4.25-.82,7.41-4.76,11.69-5.46,7-1.13,13.33,6.84,20.2,5.1,5.24-1.33,8-7.79,13.28-8.94,4.22-.93,8.54,1.91,12.8,1.18,6.18-1.07,7.9-8.13,13.14-10.41,6.51-2.83,16.06,1.94,23.65-.08,6.76-1.8,13-7.6,12.9-14.6a11.23,11.23,0,0,1,.09-2.84c.9-3.64,6-3.86,9.11-5.9,6.48-4.2,4.1-15.76,10.6-19.93,1.43-.91,3.14-1.33,4.55-2.27,2.64-1.75,3.87-5.1,3.87-8.26,0-7.06-3.13-11,3-16.53,4.12-3.68,10.29-4.69,12-10.7a11.8,11.8,0,0,0,0-5.51,18.67,18.67,0,0,0-8.93-12.58c-4.13-2.25-9.5-.8-11-6.79-.62-2.48,0-5.21-.92-7.58-1.33-3.32-5.49-4.87-9.18-4.49-3,.31-6.48,1.42-8.48-.67-2.8-2.94-1.66-8.82-3.95-12.38-1.8-2.8-5.23-4.81-8.46-4-1.8.46-3.29,1.71-5,2.44-8.6,3.71-15.6-3.74-23.24,4.07-3.79,3.88-6.93,9-12.18,10.41-7.11,1.86-15.51-4.09-21.53.12-4.31,3-4.62,9.7-8.8,12.89-4.38,3.34-10.63,1.33-15.71-.8s-11.32-4.14-15.71-.82c-1.93,1.47-3.12,3.77-5.1,5.18-3.94,2.8-9.56,1.12-13.42-1.8s-6.86-6.93-11-9.37c-4.71-2.75-12.26-3.81-16.78-.35-4.35,3.34-4.78,10-9.09,13.54-6.32,5.21-12.39-4.47-18.94,1.62-3,2.74-3.87,5.06-5.57,8.61-1.59,3.3-5.88,3.95-8.52,6.52a7.82,7.82,0,0,0-2.28,6.12,10.74,10.74,0,0,0,2,6.24c1.3,1.53,3.6,2.4,4.78,4,1.66,2.29.46,5.32-1.15,7.8s-3.65,5-3.62,7.68c0,1.64.8,3.18.77,4.82-.06,3-2.16,3.74-3.61,5.81A7,7,0,0,0,602.28,1695.9Z" style="fill: #006838;stroke: #3a3632;stroke-linecap: round;stroke-miterlimit: 10;stroke-width: 10px"/>
    <path d="M779.57,1846.48c-8,23-64.43,29.6-74.67,7.39-1.27-21,2.39-28.71-4.91-49.38-6.67-18.86-43.77-61.6-43.77-61.6l16.52-9.86s29,29.86,36.39,28.29c8.23-1.74,7.89-43.94,7.89-43.94l29-4.44s.76,43.36,6.6,43.79c8,.59,32.9-52.31,32.9-52.31l11.87,21c-5.86,15-22.77,50.42-24.12,65.27C770.58,1819.82,774.77,1833.61,779.57,1846.48Z" style="fill: #82c14c;stroke: #3a3632;stroke-linecap: round;stroke-linejoin: round;stroke-width: 10px"/>
    <path d="M879.65,1636.17a13.18,13.18,0,0,0-.77-5.54,12.14,12.14,0,0,0-8.86-7.42,8.18,8.18,0,0,1-3.61-1.08c-2-1.55-1.36-4.65-1.27-7.19a12.59,12.59,0,0,0-3.38-9c-3.63-3.86-9.26-5-14.53-5.5-4.26-.4-9.31-1-11.29-4.79-1.57-3-.38-6.87-1.64-10-1.83-4.62-7.79-5.85-12.75-5.66s-10.42,1-14.51-1.83c-4.39-3-3.4-7.34-6.09-11.08a13.61,13.61,0,0,0-12.38-5.12c-4.49.62-8.47,3.49-13,3.89-4.82.43-9.64-2-14.4-1.16-5.37,1-9.42,5.87-14.81,6.66-8.83,1.3-16.66-8.86-25.34-6.79-6.62,1.57-10.22,9.65-16.89,11-5.33,1.08-10.72-2.57-16.09-1.73-7.8,1.23-10.09,10.09-16.74,12.87-8.24,3.44-20.18-2.75-29.77-.35-8.55,2.14-16.52,9.32-16.52,18.14a14.2,14.2,0,0,1-.16,3.57c-1.21,4.57-7.57,4.75-11.58,7.26-8.23,5.17-5.45,19.77-13.72,24.89-1.81,1.13-4,1.62-5.77,2.78-3.36,2.16-5,6.34-5,10.33-.14,8.88,3.73,14-4.09,20.75-5.25,4.56-13,5.71-15.26,13.25a15.06,15.06,0,0,0-.1,6.94,23.5,23.5,0,0,0,11,16c5.16,2.91,11.95,1.18,13.72,8.75.73,3.14-.15,6.56,1,9.57,1.62,4.19,6.83,6.23,11.48,5.81,3.72-.33,8.19-1.66,10.66,1,3.47,3.75,1.93,11.13,4.75,15.65,2.21,3.56,6.49,6.16,10.57,5.18,2.28-.55,4.18-2.09,6.34-3,10.89-4.51,19.57,5,29.32-4.68,4.85-4.81,8.9-11.26,15.54-12.88,9-2.21,19.45,5.44,27.11.24,5.48-3.71,6-12.11,11.31-16.05,5.58-4.12,13.41-1.48,19.76,1.3s14.18,5.42,19.77,1.31c2.46-1.81,4-4.68,6.51-6.42,5-3.45,12.06-1.23,16.86,2.52s8.51,8.85,13.73,12c5.88,3.55,15.36,5,21.11.76,5.55-4.12,6.21-12.49,11.71-16.89,8-6.44,15.51,5.87,23.86-1.68,3.77-3.4,5-6.3,7.18-10.73,2.06-4.13,7.48-4.87,10.84-8a9.91,9.91,0,0,0,3-7.66c-.09-2.58-.65-5.77-2.4-7.89s-4.49-3.09-5.94-5.16c-2-2.92-.47-6.71,1.6-9.79s4.69-6.2,4.7-9.61c0-2.06-.95-4-.88-6.08.13-3.79,2.79-4.68,4.64-7.25A8.73,8.73,0,0,0,879.65,1636.17Z" style="fill: #009444;stroke: #3a3632;stroke-linecap: round;stroke-miterlimit: 10;stroke-width: 10px"/>
  </g>
</svg>
