<svg id="Layer_1" data-name="Layer 1" xmlns="http://www.w3.org/2000/svg" width="2000" height="2000" viewBox="0 0 2000 2000">
  <g>
    <path d="M1505.57,1524.79c0,127.89-226.35,231.57-505.57,231.57s-505.57-103.68-505.57-231.57S720.78,1293.23,1000,1293.23,1505.57,1396.9,1505.57,1524.79Z" style="fill: #fff;stroke: #3a3632;stroke-miterlimit: 10;stroke-width: 20px"/>
    <path d="M1883.06,1524.79c0,250.57-395.36,453.7-883.06,453.7s-883.06-203.13-883.06-453.7,395.36-453.7,883.06-453.7S1883.06,1274.22,1883.06,1524.79Z" style="fill: #fff;stroke: #3a3632;stroke-miterlimit: 10;stroke-width: 20px"/>
    <path d="M1505.57,1524.79c0,127.89-226.35,231.57-505.57,231.57s-505.57-103.68-505.57-231.57S720.78,1293.23,1000,1293.23,1505.57,1396.9,1505.57,1524.79Z" style="fill: #fff;stroke: #3a3632;stroke-miterlimit: 10;stroke-width: 20px"/>
  </g>
  <path d="M1922.52,43h0a82.54,82.54,0,0,1,16.54,116.74s-659.66,828-701.92,913.87c-.68,44.56,55.27,211.37-98.69,420.55C1025.3,1647.84,867,1680.24,770.05,1608.87h0c-97-71.37-113.07-232.13.08-385.86,154-209.18,329.87-205.34,372.21-219.22,69.48-65.89,664-941.82,664-941.82a82.55,82.55,0,0,1,116.39-18.91h0Zm-106,144.38h0a24.78,24.78,0,0,0,34.55-5.25l34.31-46.62a24.78,24.78,0,0,0-5.25-34.55h0a24.78,24.78,0,0,0-34.55,5.25l-34.32,46.63A24.78,24.78,0,0,0,1816.55,187.33Zm-789,1245.77h0a24.79,24.79,0,0,0,34.55-5.26l34.31-46.62a24.78,24.78,0,0,0-5.25-34.55h0a24.79,24.79,0,0,0-34.55,5.25l-34.32,46.63A24.79,24.79,0,0,0,1027.54,1433.1Zm-83-61.08h0a24.78,24.78,0,0,0,34.55-5.25l34.32-46.62a24.78,24.78,0,0,0-5.25-34.55h0a24.78,24.78,0,0,0-34.55,5.25l-34.32,46.62A24.78,24.78,0,0,0,944.56,1372Zm-83-61.07h0a24.79,24.79,0,0,0,34.55-5.25l34.32-46.63a24.79,24.79,0,0,0-5.26-34.55h0a24.79,24.79,0,0,0-34.55,5.26l-34.31,46.62A24.78,24.78,0,0,0,861.59,1311Zm31.09,218.46h0a24.79,24.79,0,0,0,34.55-5.25l34.32-46.63A24.79,24.79,0,0,0,956.3,1443h0a24.79,24.79,0,0,0-34.55,5.25l-34.32,46.63A24.79,24.79,0,0,0,892.68,1529.41Zm-83-61.07h0a24.79,24.79,0,0,0,34.55-5.26l34.32-46.62a24.79,24.79,0,0,0-5.26-34.55h0a24.77,24.77,0,0,0-34.54,5.25l-34.32,46.63A24.78,24.78,0,0,0,809.71,1468.34Zm269.71-192.63h0a24.79,24.79,0,0,0,34.55-5.25l34.31-46.63a24.78,24.78,0,0,0-5.25-34.55h0a24.79,24.79,0,0,0-34.55,5.26l-34.32,46.62A24.79,24.79,0,0,0,1079.42,1275.71Zm-83-61.07h0a24.79,24.79,0,0,0,34.55-5.25l34.32-46.63a24.79,24.79,0,0,0-5.25-34.55h0a24.78,24.78,0,0,0-34.55,5.25l-34.32,46.63A24.79,24.79,0,0,0,996.44,1214.64Z" style="fill: #d0d2d3;stroke: #3a3632;stroke-miterlimit: 10;stroke-width: 20px"/>
  <g>
    <path d="M829.64,1353.7a144.35,144.35,0,0,0-34.3,34.69,129,129,0,0,0-19.44,42.82,127,127,0,0,0-2.6,46.83,104.33,104.33,0,0,0,13.44,40.33,89.32,89.32,0,0,0,29.16,30c13.86,8.79,30.14,14,48.38,15.6a153.56,153.56,0,0,0,41.06-2.36s12.75-13.17,9.91-35.21-18.88-34.45-18.88-34.45c-16.36,3.61-30.15,2.81-38.19-2.29-6.14-3.89-9.95-11.24-11.31-21.85-3.53-27.4,10.78-51.49,38-65.48,0,0,13-11.16,9.61-37.52s-18.89-34.51-18.89-34.51A172.68,172.68,0,0,0,829.64,1353.7Z" style="fill: #f9f1c0;stroke: #3a3632;stroke-linecap: round;stroke-linejoin: round;stroke-width: 10px"/>
    <path d="M899.06,1552.46s-8.12-6.73-10.36-24.12,3.9-26.11,3.9-26.11" style="fill: #f9f1c0;stroke: #3a3632;stroke-linecap: round;stroke-linejoin: round;stroke-width: 10px"/>
    <path d="M878.44,1392.23s-8.13-6.74-10.37-24.12S872,1342,872,1342" style="fill: #f9f1c0;stroke: #3a3632;stroke-linecap: round;stroke-linejoin: round;stroke-width: 10px"/>
  </g>
  <g>
    <path d="M1097.72,1530.09a144.65,144.65,0,0,0,1-48.78,129.26,129.26,0,0,0-15.38-44.44,127.2,127.2,0,0,0-30.37-35.75,104.36,104.36,0,0,0-37.51-20,89.14,89.14,0,0,0-41.8-1.67c-16.1,3.17-31.51,10.57-45.82,22a153.23,153.23,0,0,0-28.15,30s-.18,18.33,17.06,32.36,37.4,12,37.4,12c9.38-13.88,19.94-22.8,29.28-24.64,7.13-1.4,15,1.31,23.25,8.06,21.42,17.44,27.63,44.77,17.55,73.63,0,0-1.75,17.05,18.86,33.83s37.46,12,37.46,12A172.67,172.67,0,0,0,1097.72,1530.09Z" style="fill: #f9f1c0;stroke: #3a3632;stroke-linecap: round;stroke-linejoin: round;stroke-width: 10px"/>
    <path d="M910.52,1433.75s10.53-.71,24.12,10.35,15.15,21.62,15.15,21.62" style="fill: #f9f1c0;stroke: #3a3632;stroke-linecap: round;stroke-linejoin: round;stroke-width: 10px"/>
    <path d="M1035.8,1535.75s10.53-.72,24.13,10.35,15.15,21.62,15.15,21.62" style="fill: #f9f1c0;stroke: #3a3632;stroke-linecap: round;stroke-linejoin: round;stroke-width: 10px"/>
  </g>
  <g>
    <path d="M993.17,1604a144.86,144.86,0,0,0,18.29-45.23,129.22,129.22,0,0,0,1.45-47,127.08,127.08,0,0,0-15.65-44.22,104.28,104.28,0,0,0-27.93-32,89.22,89.22,0,0,0-38.47-16.45c-16.17-2.77-33.21-1.34-50.65,4.25a153.18,153.18,0,0,0-37,18s-6.69,17.06,4.42,36.31,30.69,24.51,30.69,24.51c13.7-9.63,26.74-14.2,36.12-12.59,7.17,1.23,13.51,6.55,18.86,15.81,13.81,23.92,9.88,51.67-9.82,75,0,0-7.71,15.31,5.58,38.33s30.72,24.57,30.72,24.57A172.46,172.46,0,0,0,993.17,1604Z" style="fill: #f9f1c0;stroke: #3a3632;stroke-linecap: round;stroke-linejoin: round;stroke-width: 10px"/>
    <path d="M852.54,1447.36s10.09,3.08,18.86,18.26,6.45,25.59,6.45,25.59" style="fill: #f9f1c0;stroke: #3a3632;stroke-linecap: round;stroke-linejoin: round;stroke-width: 10px"/>
    <path d="M933.29,1587.28s10.1,3.08,18.86,18.27,6.45,25.59,6.45,25.59" style="fill: #f9f1c0;stroke: #3a3632;stroke-linecap: round;stroke-linejoin: round;stroke-width: 10px"/>
  </g>
  <path d="M1109.53,1431.67a145,145,0,0,0-47.7-10.25,129.22,129.22,0,0,0-46.55,6.65,127,127,0,0,0-40.87,23,104.09,104.09,0,0,0-26.76,33,89.11,89.11,0,0,0-9.59,40.71c.05,16.41,4.38,33,12.88,49.17A152.9,152.9,0,0,0,975,1607.33s18,3.66,35-10.59,18.88-34.44,18.88-34.44c-11.84-11.85-18.59-23.91-18.62-33.43,0-7.27,4.13-14.43,12.34-21.29,21.19-17.71,49.2-18.61,75.62-3.22,0,0,16.4,5,36.8-12.08s18.93-34.49,18.93-34.49A172.67,172.67,0,0,0,1109.53,1431.67Z" style="fill: #f9f1c0;stroke: #3a3632;stroke-linecap: round;stroke-linejoin: round;stroke-width: 10px"/>
  <path d="M1092.23,1649.69a144.47,144.47,0,0,0-47.7-10.25,129.16,129.16,0,0,0-46.54,6.64,127.07,127.07,0,0,0-40.88,23,104.45,104.45,0,0,0-26.76,33,89.27,89.27,0,0,0-9.59,40.71c0,16.41,4.38,33,12.88,49.17a153.23,153.23,0,0,0,24.08,33.34s18,3.67,35-10.58,18.87-34.45,18.87-34.45c-11.84-11.85-18.59-23.91-18.61-33.43,0-7.27,4.12-14.43,12.33-21.29,21.2-17.71,49.2-18.61,75.62-3.22,0,0,16.41,5,36.8-12.08s18.93-34.49,18.93-34.49A172.34,172.34,0,0,0,1092.23,1649.69Z" style="fill: #f9f1c0;stroke: #3a3632;stroke-linecap: round;stroke-linejoin: round;stroke-width: 10px"/>
  <g>
    <path d="M1454.62,1607.37a135.68,135.68,0,0,0-33.09-34.37,122.61,122.61,0,0,0-41.89-19.51,125.91,125.91,0,0,0-46.68-2.67,108.25,108.25,0,0,0-40.91,13.4,95.27,95.27,0,0,0-31.31,29.14c-9.42,13.85-15.41,30.13-17.81,48.39a153,153,0,0,0,.47,41.09s12.57,12.78,34.73,10,35.28-18.85,35.28-18.85c-2.85-16.37-1.41-30.18,4-38.21,4.17-6.14,11.7-9.94,22.36-11.29,27.53-3.49,51,10.86,63.68,38.08,0,0,10.55,13,37,9.68s35.36-18.86,35.36-18.86A164.51,164.51,0,0,0,1454.62,1607.37Z" style="fill: #f9f1c0;stroke: #3a3632;stroke-linecap: round;stroke-linejoin: round;stroke-width: 10px"/>
    <path d="M1252.81,1676.57s7.1-8.12,24.57-10.34,25.91,3.94,25.91,3.94" style="fill: #f9f1c0;stroke: #3a3632;stroke-linecap: round;stroke-linejoin: round;stroke-width: 10px"/>
  </g>
  <path d="M1200.61,1708.4a150.63,150.63,0,0,0,44.66,21.16,135.93,135.93,0,0,0,47.58,4.76,132.09,132.09,0,0,0,45.91-12.21c13.81-6.49,25.37-14.94,34.38-25.13a86,86,0,0,0,19.26-36.57c3.9-15.66,3.6-32.48-.9-50a149,149,0,0,0-15.77-37.56s-16.86-7.78-37.14,1.75a54.71,54.71,0,0,0-26.93,28.37c8.85,14.13,12.62,27.24,10.36,36.33-1.73,6.94-7.56,12.79-17.31,17.38-25.2,11.84-53.08,6-75.48-15,0,0-15-8.66-39.26,2.74s-27,28.4-27,28.4A174.26,174.26,0,0,0,1200.61,1708.4Z" style="fill: #f9f1c0;stroke: #3a3632;stroke-linecap: round;stroke-linejoin: round;stroke-width: 10px"/>
  <path d="M788.33,1556.26a127.79,127.79,0,0,0,3.36,46.2,122.48,122.48,0,0,0,19.67,41.28,132.22,132.22,0,0,0,34.18,32.34,115.44,115.44,0,0,0,40.07,17.08,98.18,98.18,0,0,0,42.79-.46,106.52,106.52,0,0,0,44.78-23,140.5,140.5,0,0,0,26-29.73s-1.46-17.35-20.3-29.79-39.24-9.5-39.24-9.5c-8.33,13.59-18.3,22.54-27.66,24.73-7.16,1.68-15.38-.51-24.45-6.49-23.41-15.45-32.19-41-24.49-68.8,0,0,.26-16.21-22.28-31.08s-39.3-9.55-39.3-9.55A149.92,149.92,0,0,0,788.33,1556.26Z" style="fill: #f9f1c0;stroke: #3a3632;stroke-linecap: round;stroke-linejoin: round;stroke-width: 10px"/>
  <g>
    <path d="M1054.46,1613.81a147.86,147.86,0,0,0-14-47.08,132.33,132.33,0,0,0-28.2-38.09,129.21,129.21,0,0,0-39.76-25.36,104.16,104.16,0,0,0-41.7-8.12,87.38,87.38,0,0,0-40.15,10.71c-14.3,7.78-26.65,19.42-36.71,34.6a151.27,151.27,0,0,0-17.51,37s5.44,17.64,26.09,26a55,55,0,0,0,39.15.47c4.64-16.08,11.92-27.74,20.21-32.25,6.34-3.45,14.59-3.15,24.52.88,25.66,10.42,39.92,34.8,39.21,65.46,0,0,3.57,16.87,28.26,26.9s39.21.5,39.21.5A174.22,174.22,0,0,0,1054.46,1613.81Z" style="fill: #f9f1c0;stroke: #3a3632;stroke-linecap: round;stroke-linejoin: round;stroke-width: 10px"/>
    <path d="M847.39,1576.53s9.77-3.79,26.05,2.83,21,16.27,21,16.27" style="fill: #f9f1c0;stroke: #3a3632;stroke-linecap: round;stroke-linejoin: round;stroke-width: 10px"/>
    <path d="M997.47,1637.48s9.77-3.79,26,2.82,21,16.28,21,16.28" style="fill: #f9f1c0;stroke: #3a3632;stroke-linecap: round;stroke-linejoin: round;stroke-width: 10px"/>
  </g>
  <g>
    <path d="M594.65,1576.37a144.75,144.75,0,0,0,26.28,41.11,129.22,129.22,0,0,0,37.47,28.4,127.22,127.22,0,0,0,45.12,12.86,104.18,104.18,0,0,0,42.29-4.22,89.25,89.25,0,0,0,35.68-21.83c11.63-11.58,20.33-26.3,25.88-43.75a153.76,153.76,0,0,0,6.75-40.57s-10-15.34-32.16-17.43-37.76,10.82-37.76,10.82c-.09,16.75-3.91,30-10.65,36.75-5.16,5.13-13.17,7.22-23.81,6.21-27.5-2.6-47.85-21.87-55.5-51.47,0,0-8-15.15-34.48-17.65s-37.82,10.82-37.82,10.82A172.49,172.49,0,0,0,594.65,1576.37Z" style="fill: #f9f1c0;stroke: #3a3632;stroke-linecap: round;stroke-linejoin: round;stroke-width: 10px"/>
    <path d="M803.83,1552.48s-8.36,6.44-25.81,4.79-24.6-9.56-24.6-9.56" style="fill: #f9f1c0;stroke: #3a3632;stroke-linecap: round;stroke-linejoin: round;stroke-width: 10px"/>
    <path d="M643,1537.27s-8.36,6.44-25.81,4.79-24.6-9.56-24.6-9.56" style="fill: #f9f1c0;stroke: #3a3632;stroke-linecap: round;stroke-linejoin: round;stroke-width: 10px"/>
  </g>
  <g>
    <path d="M771.38,1679.49A148,148,0,0,0,818.89,1692a132.43,132.43,0,0,0,47.2-4.31,129.07,129.07,0,0,0,42.33-20.79c12.18-9.05,21.81-19.62,28.61-31.41a87.49,87.49,0,0,0,11.71-39.87c.78-16.26-2.74-32.86-10.48-49.34a151.63,151.63,0,0,0-22.56-34.21s-17.9-4.51-35.79,8.78a54.93,54.93,0,0,0-20.75,33.2c11.32,12.32,17.51,24.59,17.05,34-.34,7.21-4.88,14.1-13.49,20.49-22.24,16.51-50.49,16-76.31-.5,0,0-16.27-5.73-37.67,10.16s-20.8,33.24-20.8,33.24A174.09,174.09,0,0,0,771.38,1679.49Z" style="fill: #f9f1c0;stroke: #3a3632;stroke-linecap: round;stroke-linejoin: round;stroke-width: 10px"/>
    <path d="M910.83,1522s-1.84,10.31-16,20.79-24.81,9.47-24.81,9.47" style="fill: #f9f1c0;stroke: #3a3632;stroke-linecap: round;stroke-linejoin: round;stroke-width: 10px"/>
    <path d="M780.77,1618.51s-1.84,10.31-15.95,20.79-24.82,9.47-24.82,9.47" style="fill: #f9f1c0;stroke: #3a3632;stroke-linecap: round;stroke-linejoin: round;stroke-width: 10px"/>
  </g>
  <path d="M720.91,1637.93A150.38,150.38,0,0,0,735,1685.29a135.76,135.76,0,0,0,28.28,38.56,131.94,131.94,0,0,0,39.78,26c14,5.93,28.07,8.87,41.67,8.76a86.1,86.1,0,0,0,40.07-10.13c14.25-7.58,26.56-19,36.56-34.1a148.38,148.38,0,0,0,17.38-36.84s-5.49-17.74-26.13-26.44a54.68,54.68,0,0,0-39.1-1c-4.59,16-11.83,27.59-20.09,32-6.32,3.36-14.56,2.94-24.5-1.25-25.65-10.81-40-35.44-39.34-66.12,0,0-3.61-17-28.3-27.36s-39.17-1.08-39.17-1.08A174.63,174.63,0,0,0,720.91,1637.93Z" style="fill: #f9f1c0;stroke: #3a3632;stroke-linecap: round;stroke-linejoin: round;stroke-width: 10px"/>
  <path d="M539.74,1703a150.4,150.4,0,0,0,44.81,20.82,135.78,135.78,0,0,0,47.62,4.41A132,132,0,0,0,678,1715.65c13.76-6.59,25.26-15.13,34.19-25.38a86,86,0,0,0,19-36.71c3.78-15.7,3.36-32.51-1.27-50a148.79,148.79,0,0,0-16-37.44s-16.92-7.66-37.12,2A54.66,54.66,0,0,0,650,1596.73c9,14.07,12.82,27.15,10.62,36.26-1.67,7-7.45,12.84-17.17,17.5-25.11,12-53,6.42-75.59-14.4,0,0-15.08-8.54-39.24,3s-26.78,28.6-26.78,28.6A174.68,174.68,0,0,0,539.74,1703Z" style="fill: #f9f1c0;stroke: #3a3632;stroke-linecap: round;stroke-linejoin: round;stroke-width: 10px"/>
  <path d="M1054.86,1619.65a150.63,150.63,0,0,0,44.66,21.16,135.93,135.93,0,0,0,47.58,4.76,132.14,132.14,0,0,0,45.92-12.21c13.8-6.49,25.37-14.94,34.37-25.13a86,86,0,0,0,19.26-36.57c3.9-15.66,3.6-32.48-.9-50a148.25,148.25,0,0,0-15.77-37.56s-16.86-7.78-37.13,1.75a54.66,54.66,0,0,0-26.93,28.37c8.85,14.13,12.61,27.24,10.35,36.33-1.73,6.94-7.55,12.79-17.31,17.38-25.2,11.84-53.08,6-75.47-15,0,0-15-8.65-39.27,2.74s-27,28.4-27,28.4A174.72,174.72,0,0,0,1054.86,1619.65Z" style="fill: #f9f1c0;stroke: #3a3632;stroke-linecap: round;stroke-linejoin: round;stroke-width: 10px"/>
  <g>
    <path d="M1198.08,1738.38a135.6,135.6,0,0,0-8-47,122.51,122.51,0,0,0-23.67-39.69,125.85,125.85,0,0,0-37.1-28.45,108.35,108.35,0,0,0-41.37-11.92,95.22,95.22,0,0,0-42.27,6.49c-15.58,6.16-29.69,16.26-41.94,30A152.82,152.82,0,0,0,981,1682s3.21,17.64,23.11,27.78,39.77,4.25,39.77,4.25c6.85-15.15,15.8-25.75,24.84-29.33,6.9-2.73,15.26-1.64,24.84,3.24,24.73,12.6,36,37.63,31.24,67.3,0,0,1.4,16.71,25.2,28.83s39.84,4.29,39.84,4.29A164.21,164.21,0,0,0,1198.08,1738.38Z" style="fill: #f9f1c0;stroke: #3a3632;stroke-linecap: round;stroke-linejoin: round;stroke-width: 10px"/>
    <path d="M992.28,1682.13s10.44-2.72,26.14,5.27,19.21,17.83,19.21,17.83" style="fill: #f9f1c0;stroke: #3a3632;stroke-linecap: round;stroke-linejoin: round;stroke-width: 10px"/>
  </g>
  <g>
    <path d="M1091.86,1812.9a131.3,131.3,0,0,0-10-46.14,121.39,121.39,0,0,0-25.51-38.34,128.08,128.08,0,0,0-38.67-26.79,112.13,112.13,0,0,0-42.32-10.32,98.24,98.24,0,0,0-42.51,7.89c-15.52,6.62-29.4,17.08-41.25,31.07A149.58,149.58,0,0,0,870,1764.86s3.94,17.3,24.48,26.61,40.41,2.81,40.41,2.81c6.33-15.19,15-26,24-29.82,6.88-2.93,15.38-2.15,25.26,2.33,25.52,11.57,37.93,35.88,34.27,65.33,0,0,2.07,16.45,26.63,27.58s40.48,2.84,40.48,2.84A158.11,158.11,0,0,0,1091.86,1812.9Z" style="fill: #f9f1c0;stroke: #3a3632;stroke-linecap: round;stroke-linejoin: round;stroke-width: 10px"/>
    <path d="M881.43,1764.58s10.46-3.06,26.65,4.28,20.14,16.93,20.14,16.93" style="fill: #f9f1c0;stroke: #3a3632;stroke-linecap: round;stroke-linejoin: round;stroke-width: 10px"/>
    <path d="M1030.71,1832.24s10.46-3.06,26.66,4.29,20.13,16.92,20.13,16.92" style="fill: #f9f1c0;stroke: #3a3632;stroke-linecap: round;stroke-linejoin: round;stroke-width: 10px"/>
  </g>
  <g>
    <path d="M611,1586.83a131.17,131.17,0,0,0-45.23-13.51,121.45,121.45,0,0,0-45.9,3.85,128.08,128.08,0,0,0-42.11,20.95,112.09,112.09,0,0,0-29.46,32.09,98.45,98.45,0,0,0-13.6,41c-1.68,16.79.78,34,7.33,51.12A149.64,149.64,0,0,0,461.84,1758s17.05,4.89,35.11-8.61,22-34,22-34c-10.25-12.88-15.53-25.64-14.55-35.38.74-7.44,5.53-14.51,14.22-21,22.44-16.78,49.73-15.92,73.76,1.49,0,0,15.4,6.12,37-10s22-34.09,22-34.09A158,158,0,0,0,611,1586.83Z" style="fill: #f9f1c0;stroke: #3a3632;stroke-linecap: round;stroke-linejoin: round;stroke-width: 10px"/>
    <path d="M467.11,1747.85s2.37-10.63,16.61-21.28,24.54-9.48,24.54-9.48" style="fill: #f9f1c0;stroke: #3a3632;stroke-linecap: round;stroke-linejoin: round;stroke-width: 10px"/>
    <path d="M598.39,1649.72s2.37-10.63,16.61-21.28,24.54-9.47,24.54-9.47" style="fill: #f9f1c0;stroke: #3a3632;stroke-linecap: round;stroke-linejoin: round;stroke-width: 10px"/>
  </g>
  <g>
    <path d="M1320.34,1689.76a131.48,131.48,0,0,0-10-46.14,121.54,121.54,0,0,0-25.51-38.35,128.3,128.3,0,0,0-38.66-26.78,112.43,112.43,0,0,0-42.33-10.33,98.39,98.39,0,0,0-42.51,7.89c-15.52,6.63-29.4,17.08-41.25,31.08a149.83,149.83,0,0,0-21.63,34.59s3.94,17.3,24.48,26.6,40.41,2.81,40.41,2.81c6.34-15.19,15-26,24-29.81,6.88-2.94,15.38-2.15,25.26,2.33,25.52,11.56,37.93,35.88,34.27,65.33,0,0,2.07,16.44,26.63,27.58s40.48,2.83,40.48,2.83A158,158,0,0,0,1320.34,1689.76Z" style="fill: #f9f1c0;stroke: #3a3632;stroke-linecap: round;stroke-linejoin: round;stroke-width: 10px"/>
    <path d="M1109.9,1641.43s10.46-3,26.66,4.29,20.13,16.92,20.13,16.92" style="fill: #f9f1c0;stroke: #3a3632;stroke-linecap: round;stroke-linejoin: round;stroke-width: 10px"/>
    <path d="M1259.18,1709.09s10.46-3,26.66,4.29S1306,1730.3,1306,1730.3" style="fill: #f9f1c0;stroke: #3a3632;stroke-linecap: round;stroke-linejoin: round;stroke-width: 10px"/>
  </g>
  <path d="M628.76,1828.36a150.13,150.13,0,0,0,44.66,21.16,135.7,135.7,0,0,0,47.58,4.76,132,132,0,0,0,45.91-12.21c13.81-6.49,25.38-14.94,34.38-25.13a86,86,0,0,0,19.26-36.56c3.9-15.67,3.6-32.49-.9-50a149.13,149.13,0,0,0-15.77-37.56s-16.86-7.78-37.14,1.75A54.67,54.67,0,0,0,739.82,1723c8.85,14.13,12.61,27.25,10.35,36.33-1.73,7-7.55,12.79-17.31,17.38-25.2,11.84-53.08,6-75.48-15,0,0-15-8.65-39.26,2.75s-27,28.39-27,28.39A174.49,174.49,0,0,0,628.76,1828.36Z" style="fill: #f9f1c0;stroke: #3a3632;stroke-linecap: round;stroke-linejoin: round;stroke-width: 10px"/>
</svg>
