<svg xmlns="http://www.w3.org/2000/svg" xmlns:xlink="http://www.w3.org/1999/xlink" height="1936.584" width="1804.963" xmlns:v="https://vecta.io/nano"><style><![CDATA[.B{stroke-width:8}.C{stroke:#000}.D{fill:#fcf5e9}.E{stroke:#050507}.F{stroke-linecap:round}.G{fill:#ebd39b}.H{fill:#775d42}.I{stroke-width:24}.J{stroke:#231f20}.K{stroke-width:16}.L{stroke-miterlimit:15.1181}.M{stroke-width:16.733}.N{stroke-linejoin:round}]]></style><g stroke="#010101"><path d="M80.22 523.134v-235.08c0-27.82 21.6-50.37 48.26-50.37H1202.2c26.66 0 48.26 22.55 48.26 50.37v235.08" fill="#fff" class="I L"/><g fill="none" class="M"><circle r="44.62" cy="358.214" cx="233.29"/><circle r="44.62" cy="358.214" cx="381.41"/><circle r="44.62" cy="358.214" cx="1082.19"/><circle r="44.62" cy="358.214" cx="936.22"/><circle r="44.62" cy="358.214" cx="656.78"/></g><g class="L"><rect rx="47.05" height="1401.45" width="1289.57" y="523.134" x="12" fill="#fff" class="I"/><g fill="none"><path d="M16.8 1662.074h1279.98" class="K"/><g class="M"><rect rx="16.79" height="78.27" width="1128.5" y="717.534" x="92.53"/><path d="M16.8 627.994h1279.98"/></g><path d="M190.78 495.164H563.9m185.75 0h373.14" stroke-width="33.465" class="F"/></g><rect rx="94.11" height="687.19" width="936.23" y="885.344" x="188.67" fill="#fff" class="I"/><g fill="none" class="F K"><path d="M191.4 1363.944h935.4m-846.16 0v198.2m126.16-198.2v198.2m126.15-198.2v198.2"/><path d="M659.1 1363.944v198.2m126.17-198.2v198.2m126.15-198.2v198.2m126.16-198.2v198.2"/></g></g></g><path d="M1470.17 591.054l-74.6-113.4 124-55.12M1317 1228.574c196.78 57.74 403.12-55 460.85-251.77s-55-403.12-251.77-460.86l-121-35.5" fill="none" class="I J N F"/><g fill="#f1f2f2" stroke-miterlimit="10" class="K J"><path d="M1366.2 329.634l-30.53 19.9a23.17 23.17 0 0 1-12.62 3.71h-823.4a23.13 23.13 0 0 1-12.44-3.6l-28.63-18.3"/><path d="M1337.48 339.034h-852.1c-25.86 0-40.08-14.48-32-31.77l107.42-230.8c4.58-9.83 23.38-17.6 42.1-17.6H1220c18.73 0 37.53 7.78 42.1 17.6l107.4 230.8c8.05 17.3-6.18 31.77-32.03 31.77z"/></g><g class="N"><path d="M475.5 315.804l100.64-222.54c3.74-8.27 19.45-14.84 35.17-14.84h600.2c15.72 0 31.43 6.57 35.16 14.84l99.6 219.46" fill="none" stroke-width="5.891" class="F J"/><g class="B C G"><path d="M994.38 300.514H800.2c-5.9 0-9.13-3.63-7.3-8l24.5-57.75c1-2.46 5.32-4.4 9.6-4.4h140.6c4.26 0 8.55 1.95 9.6 4.4l24.48 57.8c1.84 4.33-1.4 7.96-7.3 7.96z"/><g class="F"><path d="M829.65 232.894a8 8 0 0 1 7.43-7.07c3.33-.16 7 2.06 7.88 7.07m.04 0a8 8 0 0 1 7.43-7.07c3.32-.16 7 2.06 7.87 7.07"/><use xlink:href="#B"/><use xlink:href="#C"/><use xlink:href="#B" x="30.61"/><use xlink:href="#C" x="30.61"/><use xlink:href="#B" x="61.22"/><use xlink:href="#C" x="61.22"/><use xlink:href="#B" x="91.84"/><path d="M815.24 243.204c-.4-4.9-.14-10.9 4-13.83 2.5-1.76 9.1-2.68 10.37 1.48"/><path d="M819.15 238.594c-5-1.56-10.57 2.22-12.3 5.94-1.92 4.1-1.88 9.8 2.2 13.17"/><path d="M814 250.264c-5.05-1.56-10.57 2.22-12.3 5.94-1.92 4.1-1.88 9.78 2.2 13.17"/><path d="M808.8 262.154c-5-1.56-10.58 2.22-12.32 5.94-1.9 4.1-1.88 9.8 2.22 13.17"/><path d="M804 273.284c-5.05-1.57-10.63 2.18-12.32 5.93-3.37 7.55 1.46 8.72 5.55 12.1"/><path d="M798.63 286.104c-6.5-1.17-11.47 6.9-7.88 13.55a9 9 0 0 0 4.13 4c4.07 1.8 9.58.4 13-2.7m172.85-57.75c.4-4.9.57-11.86-4-13.83-4-1.72-11-.33-12.2 3.84"/><path d="M976.8 238.594c5.05-1.56 10.58 2.22 12.32 5.94 1.9 4.1 1.88 9.8-2.2 13.17"/><path d="M981.58 250.264c5.05-1.56 11 2.22 12.75 5.94 1.9 4.1 1.88 9.78-2.2 13.17"/><path d="M986.63 262.154c5-1.56 11.1 2.22 12.85 5.94 1.92 4.1 1.88 9.8-2.2 13.17"/><path d="M992 273.284c5-1.57 10.64 2.18 12.32 5.93 3.38 7.55-1.45 8.72-5.54 12.1"/><path d="M997.34 286.104c6.5-1.17 11.47 6.9 7.88 13.55a9 9 0 0 1-4.14 4c-4.07 1.8-9.57.4-12.94-2.7"/><use xlink:href="#D"/><use xlink:href="#E"/><use xlink:href="#F"/><use xlink:href="#D" x="64.58"/><use xlink:href="#G"/><use xlink:href="#H"/><use xlink:href="#F" x="86.07"/><use xlink:href="#D" x="150.65"/><use xlink:href="#E" x="150.62"/></g></g><path d="M986.47 290.674H808.1c-5.4 0-8.4-3.32-6.7-7.3l22.5-53.1c1-2.26 4.9-4.05 8.8-4.05h129.17c3.9 0 7.85 1.8 8.8 4.05l22.5 53.1c1.68 3.98-1.3 7.3-6.7 7.3z" class="B C H"/><g class="G B C"><path d="M1261.1 300.514H1067c-5.9 0-9.14-3.63-7.3-8l24.48-57.8c1-2.46 5.33-4.4 9.6-4.4h140.6c4.27 0 8.55 1.95 9.6 4.4l24.48 57.8c1.78 4.37-1.46 8-7.35 8z"/><g class="F"><path d="M1096.4 232.894a8 8 0 0 1 7.43-7.07c3.32-.16 7 2.06 7.87 7.07"/><path d="M1111.7 232.894a8 8 0 0 1 7.43-7.07c3.33-.16 7 2.06 7.88 7.07"/><path d="M1127 232.894a8 8 0 0 1 7.43-7.07c3.32-.16 7 2.06 7.87 7.07"/><use xlink:href="#B" x="282.04"/><use xlink:href="#C" x="282.04"/><use xlink:href="#B" x="312.64"/><use xlink:href="#C" x="312.64"/><use xlink:href="#B" x="343.26"/><use xlink:href="#C" x="343.26"/><path d="M1082 243.204c-.4-4.9-.13-10.9 4-13.83 2.52-1.76 9.12-2.68 10.38 1.48"/><path d="M1085.9 238.594c-5.05-1.56-10.58 2.22-12.32 5.94-1.9 4.1-1.88 9.8 2.2 13.17"/><path d="M1080.7 250.264c-5-1.56-10.58 2.22-12.32 5.94-1.9 4.1-1.88 9.78 2.2 13.17"/><path d="M1075.54 262.154c-5-1.56-10.58 2.22-12.32 5.94-1.92 4.1-1.88 9.8 2.2 13.17"/><path d="M1070.7 273.284c-5-1.57-10.64 2.18-12.32 5.93-3.38 7.55 1.45 8.72 5.54 12.1"/><path d="M1065.36 286.104c-6.5-1.17-11.47 6.9-7.88 13.55a9 9 0 0 0 4.14 4c4.07 1.8 9.57.4 12.94-2.7m172.9-57.75c.4-4.9.58-11.86-4-13.83-4-1.72-10.94-.33-12.2 3.84"/><path d="M1243.55 238.594c5-1.56 10.57 2.22 12.3 5.94 1.92 4.1 1.88 9.8-2.2 13.17"/><path d="M1248.32 250.264c5-1.56 11 2.22 12.74 5.94 1.92 4.1 1.88 9.78-2.2 13.17"/><path d="M1253.36 262.154c5.05-1.56 11.12 2.22 12.86 5.94 1.9 4.1 1.88 9.8-2.22 13.17"/><path d="M1258.73 273.284c5-1.57 10.63 2.18 12.32 5.93 3.38 7.55-1.46 8.72-5.55 12.1"/><path d="M1264.07 286.104c6.5-1.17 11.47 6.9 7.88 13.55a9 9 0 0 1-4.13 4c-4.07 1.8-9.58.4-13-2.7"/><use xlink:href="#F" x="223.7"/><use xlink:href="#F" x="245.22"/><use xlink:href="#D" x="309.8"/><use xlink:href="#E" x="309.77"/><use xlink:href="#F" x="309.77"/><use xlink:href="#D" x="374.35"/><use xlink:href="#G" x="309.77"/><use xlink:href="#H" x="309.78"/><use xlink:href="#F" x="395.84"/></g></g><path d="M1253.2 290.674h-178.36c-5.4 0-8.4-3.32-6.7-7.3l22.5-53.1c.95-2.26 4.9-4.05 8.8-4.05h129.16c3.92 0 7.86 1.8 8.8 4.05l22.5 53.1c1.7 3.98-1.3 7.3-6.7 7.3z" class="B C H"/><g class="G B C"><path d="M742.16 300.514H548c-5.9 0-9.14-3.63-7.3-8l24.48-57.8c1-2.46 5.33-4.4 9.6-4.4h140.6c4.27 0 8.55 1.95 9.6 4.4l24.5 57.8c1.83 4.37-1.4 8-7.3 8z"/><g class="F"><use xlink:href="#C" x="-298.13"/><use xlink:href="#B" x="-267.52"/><use xlink:href="#C" x="-267.56"/><use xlink:href="#B" x="-236.91"/><use xlink:href="#C" x="-236.91"/><use xlink:href="#B" x="-206.26"/><use xlink:href="#C" x="-206.3"/><use xlink:href="#B" x="-175.69"/><use xlink:href="#C" x="-175.69"/><path d="M563 243.204c-.4-4.9-.13-10.9 4-13.83 2.52-1.76 9.12-2.68 10.37 1.48"/><path d="M566.94 238.594c-5.05-1.56-10.58 2.22-12.32 5.94-1.9 4.1-1.88 9.8 2.2 13.17"/><path d="M561.74 250.264c-5-1.56-10.58 2.22-12.32 5.94-1.9 4.1-1.88 9.78 2.2 13.17"/><path d="M556.6 262.154c-5.06-1.56-10.58 2.22-12.32 5.94-1.92 4.1-1.88 9.8 2.2 13.17"/><path d="M551.76 273.284c-5.06-1.57-10.64 2.18-12.32 5.93-3.38 7.55 1.45 8.72 5.54 12.1"/><path d="M546.4 286.104c-6.5-1.17-11.47 6.9-7.88 13.55a9 9 0 0 0 4.14 4c4.07 1.8 9.57.4 12.94-2.7m172.9-57.75c.4-4.9.58-11.86-4-13.83-4-1.72-10.94-.33-12.2 3.84"/><path d="M724.6 238.594c5-1.56 10.57 2.22 12.3 5.94 1.92 4.1 1.88 9.8-2.2 13.17"/><path d="M729.37 250.264c5-1.56 11 2.22 12.74 5.94 1.92 4.1 1.88 9.78-2.2 13.17"/><path d="M734.4 262.154c5.05-1.56 11.12 2.22 12.85 5.94 1.92 4.1 1.9 9.8-2.2 13.17"/><path d="M739.78 273.284c5.05-1.57 10.63 2.18 12.3 5.93 3.38 7.55-1.45 8.72-5.54 12.1"/><path d="M745.12 286.104c6.5-1.17 11.47 6.9 7.88 13.55a9 9 0 0 1-4.13 4c-4.07 1.8-9.58.4-13-2.7"/><use xlink:href="#F" x="-295.26"/><use xlink:href="#D" x="-230.67"/><use xlink:href="#G" x="-295.25"/><use xlink:href="#H" x="-295.24"/><use xlink:href="#F" x="-209.18"/><use xlink:href="#D" x="-144.6"/><use xlink:href="#E" x="-144.63"/><use xlink:href="#F" x="-144.63"/><path d="M722 297.724a11.29 11.29 0 0 0 10.45 10c4.67.22 9.9-2.9 11.07-10"/></g></g><path d="M734.26 290.674H555.9c-5.42 0-8.4-3.32-6.7-7.3l22.5-53.1c1-2.26 4.9-4.05 8.82-4.05h129.16c3.92 0 7.85 1.8 8.8 4.05l22.53 53.1c1.65 3.98-1.33 7.3-6.74 7.3z" class="B C H"/><g class="G B C"><path d="M982.27 202.064H814.85c-5.08 0-7.87-3.12-6.3-6.86l21.1-49.83c.9-2.12 4.6-3.8 8.27-3.8h121.24c3.67 0 7.37 1.68 8.27 3.8l21.1 49.83c1.58 3.74-1.2 6.86-6.3 6.86z"/><g class="F"><use xlink:href="#I"/><use xlink:href="#J"/><path d="M866.63 143.764a6.89 6.89 0 0 1 6.41-6.1c2.86-.14 6.06 1.78 6.78 6.1"/><use xlink:href="#I" x="39.59"/><path d="M893 143.764a6.9 6.9 0 0 1 6.41-6.1c2.86-.14 6.06 1.78 6.8 6.1m.01 0a6.89 6.89 0 0 1 6.4-6.1c2.87-.14 6.07 1.78 6.8 6.1"/><use xlink:href="#J" x="65.97"/><path d="M932.6 143.764a6.9 6.9 0 0 1 6.41-6.1c2.86-.14 6.06 1.78 6.78 6.1"/><path d="M945.8 143.764a6.91 6.91 0 0 1 6.41-6.1c2.87-.14 6.07 1.78 6.8 6.1m-131.2 8.9c-.34-4.22-.12-9.4 3.48-11.93 2.17-1.52 7.86-2.3 8.94 1.28"/><path d="M831.18 148.674c-4.35-1.35-9.12 1.9-10.62 5.12-1.65 3.54-1.62 8.44 1.9 11.36"/><path d="M826.7 158.734c-4.36-1.34-9.12 1.9-10.62 5.12-1.65 3.54-1.62 8.44 1.9 11.36"/><path d="M822.26 168.994c-4.36-1.35-9.12 1.9-10.62 5.12-1.66 3.53-1.62 8.44 1.9 11.35"/><path d="M818.1 178.584c-4.35-1.35-9.17 1.88-10.62 5.12-2.9 6.5 1.25 7.52 4.78 10.43"/><path d="M813.5 189.634c-5.62-1-9.9 6-6.8 11.7a7.73 7.73 0 0 0 3.57 3.45c3.5 1.56 8.25.35 11.16-2.33m149.07-49.8c.33-4.22.5-10.23-3.5-11.93-3.46-1.48-9.43-.28-10.52 3.3"/><path d="M967.12 148.674c4.36-1.35 9.12 1.9 10.62 5.12 1.65 3.54 1.62 8.44-1.9 11.36"/><path d="M971.23 158.734c4.36-1.34 9.5 1.9 11 5.12 1.66 3.54 1.63 8.44-1.9 11.36"/><path d="M975.58 168.994c4.36-1.35 9.6 1.9 11.1 5.12 1.65 3.53 1.62 8.44-1.9 11.35"/><path d="M980.2 178.584c4.36-1.35 9.17 1.88 10.62 5.12 2.92 6.5-1.25 7.52-4.78 10.43"/><path d="M984.82 189.634c5.6-1 9.9 6 6.8 11.7a7.71 7.71 0 0 1-3.56 3.45c-3.5 1.56-8.26.35-11.16-2.33"/><use xlink:href="#K"/><use xlink:href="#L"/><path d="M853.52 199.654a9.74 9.74 0 0 0 9 8.6c4 .2 8.53-2.5 9.55-8.6"/><use xlink:href="#K" x="55.66"/><use xlink:href="#K" x="74.21"/><path d="M909.18 199.654a9.73 9.73 0 0 0 9 8.6c4 .2 8.53-2.5 9.54-8.6m.01 0a9.74 9.74 0 0 0 9 8.6c4 .2 8.52-2.5 9.54-8.6"/><use xlink:href="#K" x="129.88"/><use xlink:href="#L" x="129.84"/></g></g><path d="M975.45 193.584h-153.8c-4.66 0-7.23-2.87-5.78-6.3l19.4-45.82c.82-1.95 4.2-3.5 7.6-3.5h111.37c3.38 0 6.78 1.54 7.6 3.5l19.4 45.78c1.46 3.47-1.1 6.34-5.78 6.34z" class="B C H"/><g class="G B C"><path d="M1214.38 203.984H1047c-5.08 0-7.87-3.12-6.3-6.85l21.1-49.84c.9-2.12 4.6-3.8 8.27-3.8h121.24c3.68 0 7.37 1.68 8.27 3.8l21.1 49.84c1.54 3.73-1.25 6.85-6.33 6.85z"/><g class="F"><use xlink:href="#M"/><path d="M1085.54 145.684a6.92 6.92 0 0 1 6.41-6.1c2.87-.14 6.06 1.78 6.8 6.1"/><path d="M1098.74 145.684a6.91 6.91 0 0 1 6.41-6.1c2.86-.14 6.06 1.78 6.78 6.1"/><use xlink:href="#M" x="39.59"/><path d="M1125.13 145.684a6.92 6.92 0 0 1 6.41-6.1c2.86-.14 6.06 1.78 6.8 6.1"/><path d="M1138.33 145.684a6.91 6.91 0 0 1 6.4-6.1c2.87-.14 6.07 1.78 6.8 6.1"/><use xlink:href="#M" x="79.18"/><path d="M1164.72 145.684a6.92 6.92 0 0 1 6.41-6.1c2.86-.14 6.06 1.78 6.78 6.1"/><path d="M1177.9 145.684a6.93 6.93 0 0 1 6.41-6.1c2.87-.14 6.07 1.78 6.8 6.1m-131.2 8.9c-.34-4.22-.12-9.4 3.48-11.92 2.17-1.53 7.86-2.32 8.94 1.27"/><path d="M1063.3 150.604c-4.35-1.35-9.12 1.9-10.62 5.12-1.65 3.53-1.62 8.43 1.9 11.35"/><path d="M1058.8 160.664c-4.36-1.35-9.12 1.9-10.62 5.12-1.65 3.53-1.62 8.44 1.9 11.35"/><path d="M1054.37 170.914c-4.36-1.35-9.12 1.9-10.62 5.12-1.66 3.54-1.62 8.44 1.9 11.36"/><path d="M1050.2 180.464c-4.35-1.35-9.17 1.9-10.62 5.12-2.9 6.5 1.25 7.52 4.78 10.44"/><path d="M1045.6 191.564c-5.62-1-9.9 6-6.8 11.68a7.69 7.69 0 0 0 3.57 3.45c3.5 1.56 8.25.35 11.16-2.33m149.07-49.8c.34-4.22.5-10.22-3.48-11.92-3.47-1.48-9.44-.3-10.53 3.3"/><path d="M1199.23 150.604c4.36-1.35 9.12 1.9 10.62 5.12 1.65 3.53 1.62 8.43-1.9 11.35"/><path d="M1203.34 160.664c4.36-1.35 9.5 1.9 11 5.12 1.66 3.53 1.63 8.44-1.9 11.35"/><path d="M1207.7 170.914c4.36-1.35 9.6 1.9 11.1 5.12 1.65 3.54 1.62 8.44-1.9 11.36"/><path d="M1212.32 180.464c4.36-1.35 9.17 1.9 10.62 5.12 2.92 6.5-1.25 7.52-4.78 10.44"/><path d="M1216.93 191.564c5.6-1 9.9 6 6.8 11.68a7.66 7.66 0 0 1-3.56 3.45c-3.5 1.56-8.26.35-11.16-2.33"/><use xlink:href="#N"/><use xlink:href="#O"/><path d="M1085.63 201.584a9.73 9.73 0 0 0 9 8.59c4 .2 8.53-2.5 9.55-8.6"/><use xlink:href="#N" x="55.67"/><use xlink:href="#O" x="55.66"/><path d="M1141.3 201.584a9.72 9.72 0 0 0 9 8.59c4 .2 8.53-2.5 9.54-8.6"/><path d="M1159.84 201.584a9.73 9.73 0 0 0 9 8.59c4 .2 8.52-2.5 9.54-8.6"/><use xlink:href="#N" x="129.87"/><use xlink:href="#O" x="129.92"/></g></g><path d="M1207.56 195.514h-153.8c-4.66 0-7.23-2.87-5.78-6.3l19.4-45.78c.82-1.95 4.2-3.5 7.6-3.5h111.37c3.38 0 6.78 1.54 7.6 3.5l19.4 45.78c1.46 3.43-1.1 6.3-5.78 6.3z" class="B C H"/><g class="G B C"><path d="M764.8 202.064H597.38c-5.08 0-7.87-3.12-6.3-6.86l21.1-49.83c.9-2.12 4.6-3.8 8.27-3.8H741.7c3.67 0 7.37 1.68 8.27 3.8l21.1 49.83c1.58 3.74-1.2 6.86-6.3 6.86z"/><g class="F"><use xlink:href="#I" x="-217.47"/><use xlink:href="#J" x="-217.43"/><path d="M649.16 143.764a6.89 6.89 0 0 1 6.41-6.1c2.86-.14 6.06 1.78 6.78 6.1"/><use xlink:href="#I" x="-177.88"/><path d="M675.55 143.764a6.9 6.9 0 0 1 6.41-6.1c2.86-.14 6.06 1.78 6.8 6.1"/><path d="M688.75 143.764a6.89 6.89 0 0 1 6.4-6.1c2.87-.14 6.07 1.78 6.8 6.1"/><use xlink:href="#J" x="-151.49"/><path d="M715.14 143.764a6.9 6.9 0 0 1 6.41-6.1c2.86-.14 6.06 1.78 6.78 6.1"/><path d="M728.33 143.764a6.91 6.91 0 0 1 6.41-6.1c2.87-.14 6.07 1.78 6.8 6.1m-131.2 8.9c-.34-4.22-.12-9.4 3.48-11.93 2.17-1.52 7.86-2.3 8.94 1.28"/><path d="M613.7 148.674c-4.35-1.35-9.12 1.9-10.62 5.12-1.65 3.54-1.62 8.44 1.9 11.36"/><path d="M609.23 158.734c-4.36-1.34-9.12 1.9-10.62 5.12-1.65 3.54-1.62 8.44 1.9 11.36"/><path d="M604.8 168.994c-4.36-1.35-9.12 1.9-10.62 5.12-1.66 3.53-1.62 8.44 1.9 11.35"/><path d="M600.62 178.584c-4.35-1.35-9.17 1.88-10.62 5.12-2.9 6.5 1.25 7.52 4.78 10.43"/><path d="M596 189.634c-5.62-1-9.9 6-6.8 11.7a7.73 7.73 0 0 0 3.57 3.45c3.5 1.56 8.25.35 11.16-2.33m149.07-49.8c.33-4.22.5-10.23-3.5-11.93-3.46-1.48-9.43-.28-10.52 3.3"/><path d="M749.65 148.674c4.36-1.35 9.12 1.9 10.62 5.12 1.65 3.54 1.62 8.44-1.9 11.36"/><path d="M753.76 158.734c4.36-1.34 9.5 1.9 11 5.12 1.66 3.54 1.63 8.44-1.9 11.36"/><path d="M758.1 168.994c4.36-1.35 9.6 1.9 11.1 5.12 1.65 3.53 1.62 8.44-1.9 11.35"/><path d="M762.74 178.584c4.36-1.35 9.17 1.88 10.62 5.12 2.92 6.5-1.25 7.52-4.78 10.43"/><path d="M767.35 189.634c5.6-1 9.9 6 6.8 11.7a7.71 7.71 0 0 1-3.56 3.45c-3.5 1.56-8.26.35-11.16-2.33"/><use xlink:href="#K" x="-217.42"/><use xlink:href="#L" x="-217.5"/><path d="M636.05 199.654a9.74 9.74 0 0 0 9 8.6c4 .2 8.53-2.5 9.55-8.6"/><use xlink:href="#K" x="-161.82"/><use xlink:href="#K" x="-143.26"/><path d="M691.7 199.654a9.73 9.73 0 0 0 9 8.6c4 .2 8.53-2.5 9.54-8.6m.02 0a9.74 9.74 0 0 0 9 8.6c4 .2 8.52-2.5 9.54-8.6"/><use xlink:href="#K" x="-87.6"/><use xlink:href="#L" x="-87.63"/></g></g><path d="M758 193.584H604.2c-4.66 0-7.23-2.87-5.78-6.3l19.4-45.82c.82-1.95 4.2-3.5 7.6-3.5h111.37c3.38 0 6.78 1.54 7.6 3.5l19.4 45.78c1.46 3.47-1.1 6.34-5.76 6.34z" class="B C H"/><g class="G B C"><path d="M970.2 114.794H829.45c-4.27 0-6.62-2.63-5.3-5.76l17.74-41.9c.76-1.78 3.87-3.2 7-3.2h101.88c3.1 0 6.2 1.4 7 3.2l17.75 41.9c1.28 3.13-1.07 5.76-5.34 5.76z"/><g class="F"><use xlink:href="#P"/><use xlink:href="#Q"/><path d="M873 65.784a5.82 5.82 0 0 1 5.39-5.13c2.4-.12 5.1 1.5 5.7 5.13"/><use xlink:href="#Q" x="22.19"/><use xlink:href="#Q" x="33.28"/><use xlink:href="#P" x="55.46"/><use xlink:href="#Q" x="55.47"/><use xlink:href="#Q" x="66.56"/><use xlink:href="#Q" x="77.66"/><path d="M840.34 73.254c-.28-3.55-.1-7.9 2.93-10 1.82-1.28 6.6-2 7.52 1.07"/><path d="M843.18 69.914c-3.66-1.13-7.67 1.6-8.93 4.3-1.4 3-1.36 7.1 1.6 9.55"/><use xlink:href="#R"/><path d="M835.67 86.994c-3.66-1.14-7.66 1.6-8.92 4.3-1.4 3-1.37 7.1 1.6 9.55"/><path d="M832.17 95.054c-3.66-1.13-7.7 1.58-8.93 4.3-2.44 5.47 1.06 6.3 4 8.77"/><path d="M828.3 104.354c-4.72-.85-8.32 5-5.7 9.82a6.5 6.5 0 0 0 3 2.9c2.95 1.3 6.95.3 9.4-2m125.3-41.82c.28-3.55.42-8.6-2.93-10-2.9-1.25-7.94-.24-8.85 2.78"/><path d="M957.46 69.914c3.66-1.13 7.67 1.6 8.93 4.3 1.4 3 1.36 7.1-1.6 9.55"/><path d="M960.92 78.374c3.66-1.14 8 1.6 9.24 4.3 1.38 3 1.36 7.1-1.6 9.55"/><path d="M964.57 86.994c3.66-1.14 8.06 1.6 9.32 4.3 1.4 3 1.36 7.1-1.6 9.55"/><path d="M968.46 95.054c3.67-1.13 7.7 1.58 8.93 4.3 2.45 5.47-1 6.3-4 8.77"/><path d="M972.34 104.354c4.7-.85 8.3 5 5.7 9.82a6.57 6.57 0 0 1-3 2.9c-2.95 1.3-6.94.3-9.38-2"/><use xlink:href="#S"/><use xlink:href="#T"/><use xlink:href="#U"/><use xlink:href="#V"/><use xlink:href="#S" x="62.39"/><use xlink:href="#T" x="62.39"/><use xlink:href="#V" x="46.79"/><use xlink:href="#S" x="109.18"/><use xlink:href="#T" x="109.18"/></g></g><path d="M964.46 107.664h-129.3c-3.92 0-6.08-2.4-4.86-5.3l16.3-38.5c.7-1.64 3.54-2.93 6.4-2.93h93.62c2.84 0 5.7 1.3 6.4 2.93l16.3 38.5c1.22 2.88-.93 5.3-4.86 5.3z" class="B C H"/><g class="G B C"><path d="M1165.32 116.464h-140.74c-4.27 0-6.62-2.63-5.3-5.77l17.7-41.94c.75-1.78 3.86-3.2 7-3.2h101.92c3.1 0 6.2 1.42 6.95 3.2l17.75 41.9c1.32 3.14-1.03 5.82-5.3 5.82z"/><g class="F"><use xlink:href="#W"/><use xlink:href="#W" x="11.08"/><path d="M1068.1 67.404a5.8 5.8 0 0 1 5.38-5.13c2.4-.12 5.1 1.5 5.7 5.13"/><use xlink:href="#W" x="33.28"/><use xlink:href="#W" x="44.38"/><path d="M1101.4 67.404a5.8 5.8 0 0 1 5.38-5.13c2.4-.12 5.1 1.5 5.7 5.13"/><use xlink:href="#W" x="66.56"/><use xlink:href="#Q" x="261.69" y="1.62"/><use xlink:href="#W" x="88.75"/><path d="M1035.47 74.874c-.28-3.55-.1-7.9 2.93-10 1.82-1.28 6.6-1.94 7.52 1.08"/><use xlink:href="#R" x="198.9" y="-6.84"/><use xlink:href="#R" x="195.14" y="1.62"/><path d="M1030.8 88.614c-3.66-1.14-7.66 1.6-8.92 4.3-1.4 3-1.37 7.1 1.6 9.55"/><path d="M1027.3 96.674c-3.66-1.13-7.7 1.58-8.92 4.3-2.45 5.47 1 6.32 4 8.77"/><path d="M1023.43 105.964c-4.72-.84-8.3 5-5.7 9.82a6.47 6.47 0 0 0 3 2.91c3 1.3 7 .3 9.4-2m125.3-41.82c.28-3.55.42-8.6-2.93-10-2.9-1.24-7.93-.23-8.85 2.78"/><path d="M1152.6 71.534c3.66-1.14 7.67 1.6 8.93 4.3 1.4 3 1.36 7.1-1.6 9.55"/><path d="M1156.05 79.994c3.66-1.14 8 1.6 9.24 4.3 1.4 3 1.36 7.1-1.6 9.55"/><path d="M1159.7 88.614c3.67-1.14 8.06 1.6 9.32 4.3 1.4 3 1.36 7.1-1.6 9.55"/><path d="M1163.6 96.674c3.67-1.13 7.7 1.58 8.93 4.3 2.45 5.47-1 6.32-4 8.77"/><path d="M1167.47 105.964c4.7-.84 8.3 5 5.7 9.82a6.49 6.49 0 0 1-3 2.91c-3 1.3-6.94.3-9.38-2m-134.9-2.3a8.17 8.17 0 0 0 7.57 7.22c3.4.16 7.17-2.1 8-7.22"/><use xlink:href="#X"/><path d="M1057.1 114.394a8.18 8.18 0 0 0 7.57 7.22c3.4.16 7.17-2.1 8-7.22m.03 0a8.17 8.17 0 0 0 7.57 7.22c3.4.16 7.17-2.1 8-7.22"/><use xlink:href="#X" x="46.78"/><path d="M1103.88 114.394a8.18 8.18 0 0 0 7.58 7.22c3.38.16 7.16-2.1 8-7.22m.02 0a8.18 8.18 0 0 0 7.57 7.22c3.4.16 7.17-2.1 8-7.22"/><use xlink:href="#X" x="93.57"/><use xlink:href="#X" x="109.17"/></g></g><path d="M1159.6 109.284H1030.3c-3.93 0-6.1-2.4-4.86-5.3l16.3-38.5c.7-1.64 3.55-2.93 6.4-2.93h93.62c2.84 0 5.7 1.3 6.4 2.93l16.3 38.5c1.23 2.88-.93 5.3-4.86 5.3z" class="B C H"/><g class="G B C"><path d="M787.37 114.794H646.62c-4.27 0-6.62-2.63-5.3-5.76l17.75-41.9c.76-1.78 3.86-3.2 7-3.2H768c3.1 0 6.2 1.4 6.95 3.2l17.75 41.9c1.3 3.13-1.06 5.76-5.33 5.76z"/><g class="F"><use xlink:href="#Q" x="-193.88"/><use xlink:href="#Q" x="-182.82"/><use xlink:href="#Q" x="-171.73"/><use xlink:href="#P" x="-149.55"/><use xlink:href="#Q" x="-149.54"/><use xlink:href="#Q" x="-138.45"/><use xlink:href="#Q" x="-127.35"/><use xlink:href="#Q" x="-116.26"/><path d="M756.7 65.784a5.82 5.82 0 0 1 5.39-5.13c2.4-.12 5.1 1.5 5.7 5.13m-110.27 7.47c-.3-3.55-.1-7.9 2.92-10 1.83-1.28 6.6-2 7.52 1.07"/><path d="M660.36 69.914c-3.67-1.13-7.67 1.6-8.93 4.3-1.4 3-1.37 7.1 1.6 9.55"/><path d="M656.6 78.374c-3.67-1.14-7.67 1.6-8.93 4.3-1.4 3-1.37 7.1 1.6 9.55"/><use xlink:href="#R" x="-186.55" y="8.62"/><path d="M649.35 95.054c-3.66-1.13-7.7 1.58-8.93 4.3-2.45 5.47 1.05 6.3 4 8.77"/><path d="M645.48 104.354c-4.72-.85-8.32 5-5.72 9.82a6.57 6.57 0 0 0 3 2.9c3 1.3 6.94.3 9.38-2m125.33-41.82c.3-3.55.42-8.6-2.92-10-2.9-1.25-7.94-.24-8.85 2.78"/><path d="M774.64 69.914c3.66-1.13 7.66 1.6 8.92 4.3 1.4 3 1.37 7.1-1.6 9.55"/><path d="M778.1 78.374c3.66-1.14 8 1.6 9.24 4.3 1.4 3 1.37 7.1-1.6 9.55"/><path d="M781.75 86.994c3.66-1.14 8.06 1.6 9.32 4.3 1.4 3 1.36 7.1-1.6 9.55"/><path d="M785.64 95.054c3.66-1.13 7.7 1.58 8.93 4.3 2.45 5.47-1.05 6.3-4 8.77"/><path d="M789.5 104.354c4.72-.85 8.32 5 5.72 9.82a6.57 6.57 0 0 1-3 2.9c-3 1.3-6.94.3-9.38-2"/><use xlink:href="#T" x="-198.42"/><use xlink:href="#U" x="-198.46"/><use xlink:href="#V" x="-198.42"/><use xlink:href="#S" x="-136.03"/><use xlink:href="#T" x="-136.03"/><use xlink:href="#V" x="-151.63"/><use xlink:href="#S" x="-89.24"/><use xlink:href="#T" x="-89.24"/><use xlink:href="#U" x="-89.28"/></g></g><path d="M781.64 107.664h-129.3c-3.92 0-6.08-2.4-4.86-5.3l16.3-38.5c.7-1.64 3.54-2.93 6.38-2.93h93.63c2.84 0 5.7 1.3 6.4 2.93l16.3 38.5c1.22 2.88-.94 5.3-4.86 5.3z" class="B C H"/><g class="D E F B"><path d="M925 116.384c8.1 0 14.7 14.32 14.7 32h0c0 17.66-6.58 32-14.7 32h0c-8.1 0-14.68-14.3-14.68-32h0c0-17.65 6.57-32 14.68-32h0"/><path d="M925.37 116.384h-49.9l-.33 63.9H925"/></g><path d="M874.33 116.384c8.1 0 14.7 14.32 14.7 32s-6.58 32-14.7 32-14.68-14.3-14.68-32 6.57-32 14.68-32z" class="B D E"/><g class="F B D E"><path d="M921.5 42.404c6.92 0 12.52 12.2 12.52 27.25h0c0 15-5.6 27.24-12.52 27.24h0c-6.9 0-12.5-12.2-12.5-27.24h0c0-15 5.6-27.25 12.5-27.25h0"/><path d="M921.8 42.404h-42.52l-.27 54.46h42.52"/></g><path d="M878.3 42.404c6.9 0 12.5 12.2 12.5 27.25s-5.6 27.24-12.5 27.24-12.52-12.2-12.52-27.24 5.6-27.25 12.52-27.25z" class="B D E"/><g class="F B D E"><path d="M927.9 199.654c9.8 0 17.72 17.27 17.72 38.58h0c0 21.3-7.93 38.58-17.72 38.58h0c-9.8 0-17.72-17.28-17.72-38.58h0c0-21.3 7.93-38.58 17.72-38.58h0"/><path d="M928.3 199.654h-60.2l-.4 77.12h60.2"/></g><path d="M866.7 199.654c9.8 0 17.72 17.27 17.72 38.58s-7.93 38.58-17.72 38.58-17.7-17.28-17.7-38.58 7.9-38.58 17.7-38.58z" class="B D E"/><g class="F B D E"><path d="M709.7 116.404c8.1 0 14.7 14.3 14.7 32h0c0 17.65-6.58 32-14.7 32h0c-8.1 0-14.68-14.32-14.68-32h0c0-17.66 6.57-32 14.68-32h0"/><path d="M710 116.404h-49.86l-.33 63.9h49.9"/></g><path d="M659 116.404c8.1 0 14.68 14.3 14.68 32s-6.57 32-14.68 32-14.7-14.32-14.7-32 6.58-32 14.7-32z" class="B D E"/><g class="F B D E"><path d="M734 42.404c6.9 0 12.5 12.2 12.5 27.25h0c0 15-5.6 27.24-12.5 27.24h0c-6.9 0-12.52-12.2-12.52-27.24h0c0-15 5.6-27.25 12.52-27.25h0"/><path d="M734.23 42.404H691.7l-.28 54.46H734"/></g><path d="M690.73 42.404c6.9 0 12.52 12.2 12.52 27.25s-5.6 27.24-12.52 27.24-12.5-12.2-12.5-27.24 5.6-27.25 12.5-27.25z" class="B D E"/><g class="F B D E"><path d="M675.67 197.384c9.8 0 17.72 17.27 17.72 38.58h0c0 21.3-7.93 38.58-17.72 38.58h0c-9.78 0-17.72-17.28-17.72-38.58h0c0-21.3 7.94-38.58 17.72-38.58h0"/><path d="M676.07 197.384h-60.2l-.4 77.08h60.2"/></g><path d="M614.48 197.384c9.8 0 17.72 17.27 17.72 38.58s-7.93 38.58-17.72 38.58-17.72-17.28-17.72-38.58 7.94-38.58 17.72-38.58z" class="B D E"/><g class="F B D E"><path d="M1094.67 116.404c-8.5 0-15.4 14.3-15.4 32h0c0 17.65 6.9 32 15.4 32h0c8.5 0 15.4-14.32 15.4-32h0c0-17.66-6.9-32-15.4-32h0"/><path d="M1094.32 116.404h52.34l.35 63.9h-52.34"/></g><path d="M1147.86 116.404c-8.5 0-15.4 14.3-15.4 32s6.9 32 15.4 32 15.4-14.32 15.4-32-6.9-32-15.4-32z" class="B D E"/><g class="F B D E"><path d="M1069.68 42.404c-7.25 0-13.13 12.2-13.13 27.25h0c0 15.05 5.88 27.24 13.13 27.24h0c7.25 0 13.13-12.2 13.13-27.24h0c0-15-5.88-27.25-13.13-27.25h0"/><path d="M1069.4 42.404h44.6l.3 54.47h-44.6"/></g><path d="M1115 42.404c-7.25 0-13.13 12.2-13.13 27.25s5.88 27.24 13.13 27.24 13.13-12.2 13.13-27.24-5.86-27.25-13.13-27.25z" class="B D E"/><g class="F B D E"><path d="M1130.8 197.394c-10.26 0-18.6 17.27-18.6 38.57h0c0 21.3 8.33 38.58 18.6 38.58h0c10.27 0 18.6-17.27 18.6-38.58h0c0-21.3-8.33-38.57-18.6-38.57h0"/><path d="M1130.4 197.394h63.16l.44 77.07h-63.17"/></g><path d="M1195 197.394c-10.27 0-18.6 17.27-18.6 38.57s8.32 38.58 18.6 38.58 18.6-17.27 18.6-38.58-8.3-38.57-18.6-38.57z" class="B D E"/><g class="C G B"><path d="M1003.35 224.624c2-1.8 3-4 1-8.65a10.74 10.74 0 0 0-3.69-4.22 12.84 12.84 0 0 0-1.14-6.9 10.93 10.93 0 0 0-4.12-4.34 12.75 12.75 0 0 0-1-7.56 11.16 11.16 0 0 0-4.13-4.37 12.8 12.8 0 0 0-1.07-7.3 12 12 0 0 0-8.23-6.14c-.1-3.84-1-7.64-4.2-9a11.42 11.42 0 0 0-10 1h-.08a7.41 7.41 0 0 0-7.11-4.54 8 8 0 0 0-6.68 4.54h-1.5a7.43 7.43 0 0 0-7.11-4.54 8 8 0 0 0-6.68 4.54H936a7.41 7.41 0 0 0-7.11-4.54 8 8 0 0 0-6.68 4.54h-1.5a7.42 7.42 0 0 0-7.11-4.54 8 8 0 0 0-6.68 4.54h-1.52a7.41 7.41 0 0 0-7.11-4.54 8 8 0 0 0-6.67 4.54h-1.52a7.42 7.42 0 0 0-7.11-4.54 8 8 0 0 0-6.68 4.54h-1.5a7.41 7.41 0 0 0-7.11-4.54 8 8 0 0 0-6.67 4.54h-1.52a7.42 7.42 0 0 0-7.11-4.54 8 8 0 0 0-6.68 4.54h-1.5a7.43 7.43 0 0 0-7.12-4.54 8 8 0 0 0-6.67 4.54h-.95c-1.62-3.58-7.78-2.67-10.18-1-2.86 2-3.88 5.45-4.12 9a12 12 0 0 0-8.32 6.16 12.72 12.72 0 0 0-1.09 7.2 11.34 11.34 0 0 0-4.11 4.47 12.73 12.73 0 0 0-1.06 7.43 11.46 11.46 0 0 0-4.1 4.47 12.94 12.94 0 0 0-1.14 6.9 10.9 10.9 0 0 0-3.69 4.22c-2.06 4.6-1.06 6.84 1 8.65a9.71 9.71 0 0 0-1.86 11.78 9 9 0 0 0 4.13 4 11.83 11.83 0 0 0 9.4-.4 11.16 11.16 0 0 0 8.2 4.43 10.5 10.5 0 0 0 10.31-7.18h1.5a11.18 11.18 0 0 0 9.68 7.19 10.5 10.5 0 0 0 10.31-7.18h1.48a11.19 11.19 0 0 0 9.72 7.18 10.52 10.52 0 0 0 10.32-7.18h1.48a11.18 11.18 0 0 0 9.69 7.18 10.5 10.5 0 0 0 10.31-7.18h1.5a11.18 11.18 0 0 0 9.72 7.18 10.5 10.5 0 0 0 10.31-7.18h1.48a11.21 11.21 0 0 0 9.73 7.18 10.5 10.5 0 0 0 10.31-7.18h1.48a11.18 11.18 0 0 0 9.72 7.18 10.52 10.52 0 0 0 10.32-7.18h1.48a11.18 11.18 0 0 0 9.72 7.18 10.5 10.5 0 0 0 10.31-7.18h1.5a11.18 11.18 0 0 0 9.72 7.18 10.23 10.23 0 0 0 8.46-3.89 11.33 11.33 0 0 0 8-.14 9 9 0 0 0 4.14-4 9.71 9.71 0 0 0-1.84-11.81zm266.75 0c2-1.8 3-4 1-8.65a10.9 10.9 0 0 0-3.69-4.22 12.94 12.94 0 0 0-1.14-6.9 11.07 11.07 0 0 0-4.12-4.34 12.75 12.75 0 0 0-1-7.56 11.2 11.2 0 0 0-4.12-4.37 12.8 12.8 0 0 0-1.08-7.3 12 12 0 0 0-8.23-6.14c-.1-3.84-1-7.64-4.2-9a11.4 11.4 0 0 0-10 1h-.08a7.43 7.43 0 0 0-7.11-4.54 8 8 0 0 0-6.68 4.54h-1.52a7.41 7.41 0 0 0-7.11-4.54 8 8 0 0 0-6.68 4.54h-1.5a7.42 7.42 0 0 0-7.11-4.54 8 8 0 0 0-6.68 4.54h-1.52a7.41 7.41 0 0 0-7.11-4.54 8 8 0 0 0-6.67 4.54h-1.52a7.42 7.42 0 0 0-7.11-4.54 8 8 0 0 0-6.68 4.54h-1.5a7.43 7.43 0 0 0-7.12-4.54 8 8 0 0 0-6.67 4.54h-1.52a7.41 7.41 0 0 0-7.11-4.54 8 8 0 0 0-6.68 4.54h-1.5a7.43 7.43 0 0 0-7.12-4.54 8 8 0 0 0-6.67 4.54h-1.52a7.41 7.41 0 0 0-7.11-4.54 8 8 0 0 0-6.68 4.54h-1c-1.62-3.58-7.77-2.67-10.18-1-2.85 2-3.88 5.45-4.1 9a12 12 0 0 0-8.33 6.16 12.89 12.89 0 0 0-1.09 7.2 11.34 11.34 0 0 0-4.11 4.47 12.8 12.8 0 0 0-1 7.43 11.39 11.39 0 0 0-4.1 4.47 12.84 12.84 0 0 0-1.14 6.9 10.74 10.74 0 0 0-3.69 4.22c-2.06 4.6-1.06 6.84 1 8.65a9.71 9.71 0 0 0-1.87 11.78 9 9 0 0 0 4.14 4 11.81 11.81 0 0 0 9.39-.4 11.17 11.17 0 0 0 8.2 4.43 10.51 10.51 0 0 0 10.32-7.18h1.38a11.18 11.18 0 0 0 9.72 7.18 10.52 10.52 0 0 0 10.32-7.18h1.48a11.18 11.18 0 0 0 9.72 7.18 10.5 10.5 0 0 0 10.31-7.18h1.5a11.18 11.18 0 0 0 9.72 7.18 10.5 10.5 0 0 0 10.31-7.18h1.48a11.19 11.19 0 0 0 9.72 7.18 10.52 10.52 0 0 0 10.32-7.18h1.48a11.18 11.18 0 0 0 9.72 7.18 10.5 10.5 0 0 0 10.31-7.18h1.5a11.18 11.18 0 0 0 9.72 7.18 10.5 10.5 0 0 0 10.31-7.18h1.48a11.21 11.21 0 0 0 9.73 7.18 10.5 10.5 0 0 0 10.31-7.18h1.48a11.18 11.18 0 0 0 9.72 7.18 10.25 10.25 0 0 0 8.47-3.89 11.34 11.34 0 0 0 8-.14 9 9 0 0 0 4.13-4 9.71 9.71 0 0 0-1.85-11.8zm-518.96 0c2-1.8 3-4 1-8.65a10.74 10.74 0 0 0-3.69-4.22 12.75 12.75 0 0 0-1.14-6.9 11 11 0 0 0-4.11-4.34 12.75 12.75 0 0 0-1-7.56 11.2 11.2 0 0 0-4.12-4.37 12.8 12.8 0 0 0-1.08-7.3 12 12 0 0 0-8.23-6.14c-.1-3.84-1-7.64-4.2-9a11.4 11.4 0 0 0-10 1h-.08a7.43 7.43 0 0 0-7.11-4.54 8 8 0 0 0-6.68 4.54h-1.52a7.41 7.41 0 0 0-7.11-4.54 8 8 0 0 0-6.68 4.54h-1.5a7.43 7.43 0 0 0-7.11-4.54 8 8 0 0 0-6.68 4.54h-1.58a7.41 7.41 0 0 0-7.11-4.54 8 8 0 0 0-6.68 4.54h-1.5a7.43 7.43 0 0 0-7.11-4.54 8 8 0 0 0-6.68 4.54h-1.52a7.41 7.41 0 0 0-7.11-4.54 8 8 0 0 0-6.68 4.54h-1.5a7.42 7.42 0 0 0-7.11-4.54 8 8 0 0 0-6.68 4.54h-1.52a7.41 7.41 0 0 0-7.11-4.54 8 8 0 0 0-6.67 4.54H592a7.42 7.42 0 0 0-7.11-4.54 8 8 0 0 0-6.68 4.54h-1c-1.62-3.58-7.77-2.67-10.18-1-2.86 2-3.88 5.45-4.1 9a12 12 0 0 0-8.33 6.16 12.89 12.89 0 0 0-1.09 7.2 11.34 11.34 0 0 0-4.11 4.47 12.8 12.8 0 0 0-1 7.43 11.31 11.31 0 0 0-4.1 4.47 12.84 12.84 0 0 0-1.14 6.9 10.74 10.74 0 0 0-3.69 4.22c-2.06 4.6-1.06 6.84 1 8.65a9.71 9.71 0 0 0-1.87 11.78 9 9 0 0 0 4.14 4 11.81 11.81 0 0 0 9.39-.4 11.17 11.17 0 0 0 8.2 4.43 10.52 10.52 0 0 0 10.32-7.18h1.48a11.18 11.18 0 0 0 9.72 7.18 10.5 10.5 0 0 0 10.31-7.18h1.5a11.18 11.18 0 0 0 9.66 7.19 10.5 10.5 0 0 0 10.31-7.18h1.48a11.21 11.21 0 0 0 9.73 7.18 10.5 10.5 0 0 0 10.31-7.18h1.48a11.18 11.18 0 0 0 9.72 7.18 10.52 10.52 0 0 0 10.32-7.18h1.48a11.18 11.18 0 0 0 9.72 7.18 10.5 10.5 0 0 0 10.31-7.18h1.5a11.18 11.18 0 0 0 9.72 7.18 10.5 10.5 0 0 0 10.31-7.18h1.48a11.19 11.19 0 0 0 9.72 7.18 10.51 10.51 0 0 0 10.32-7.18h1.48a11.18 11.18 0 0 0 9.72 7.18 10.25 10.25 0 0 0 8.47-3.89 11.34 11.34 0 0 0 8-.14 9 9 0 0 0 4.13-4 9.71 9.71 0 0 0-1.86-11.81zm55.56-81.68a7.76 7.76 0 0 0 3.56 3.45 10.17 10.17 0 0 0 8.11-.34 9.65 9.65 0 0 0 7.07 3.82 9.07 9.07 0 0 0 8.89-6.19h1.28a9.65 9.65 0 0 0 8.38 6.19 9.07 9.07 0 0 0 8.89-6.19h1.28a9.67 9.67 0 0 0 8.38 6.19 9.08 9.08 0 0 0 8.9-6.19h1.28a9.64 9.64 0 0 0 8.38 6.19 9.07 9.07 0 0 0 8.89-6.19h1.28a9.64 9.64 0 0 0 8.38 6.19 9.07 9.07 0 0 0 8.89-6.19h1.28a9.65 9.65 0 0 0 8.38 6.19 9.09 9.09 0 0 0 8.9-6.19h1.27a9.67 9.67 0 0 0 8.39 6.19 9.07 9.07 0 0 0 8.89-6.19h1.28a9.64 9.64 0 0 0 8.38 6.19 9.07 9.07 0 0 0 8.89-6.19h1.28a9.65 9.65 0 0 0 8.38 6.19 8.86 8.86 0 0 0 7.3-3.36 9.79 9.79 0 0 0 6.9-.12 7.71 7.71 0 0 0 3.56-3.45 8.37 8.37 0 0 0-1.61-10.16c1.75-1.56 2.6-3.5.83-7.46a9.34 9.34 0 0 0-3.18-3.63 11.17 11.17 0 0 0-1-6 9.59 9.59 0 0 0-3.55-3.74 11 11 0 0 0-.9-6.52 9.57 9.57 0 0 0-3.55-3.76 11.08 11.08 0 0 0-.93-6.3 10.33 10.33 0 0 0-7.1-5.29c-.1-3.3-.85-6.6-3.63-7.78a9.89 9.89 0 0 0-8.6.85h-.06a6.42 6.42 0 0 0-6.14-3.91 6.85 6.85 0 0 0-5.75 3.91h-1.3a6.4 6.4 0 0 0-6.13-3.91 6.87 6.87 0 0 0-5.76 3.91H932a6.39 6.39 0 0 0-6.13-3.91 6.88 6.88 0 0 0-5.76 3.91h-1.3a6.42 6.42 0 0 0-6.14-3.91 6.86 6.86 0 0 0-5.75 3.91h-1.3a6.4 6.4 0 0 0-6.13-3.91 6.87 6.87 0 0 0-5.76 3.91h-1.3a6.39 6.39 0 0 0-6.13-3.91 6.88 6.88 0 0 0-5.76 3.91h-1.3a6.41 6.41 0 0 0-6.13-3.91 6.87 6.87 0 0 0-5.76 3.91H866a6.39 6.39 0 0 0-6.13-3.91 6.87 6.87 0 0 0-5.76 3.91h-1.3a6.39 6.39 0 0 0-6.13-3.91 6.85 6.85 0 0 0-5.75 3.91h-.83c-1.4-3.08-6.7-2.3-8.77-.85-2.47 1.73-3.35 4.7-3.55 7.76a10.35 10.35 0 0 0-7.18 5.31 11.13 11.13 0 0 0-.94 6.21 9.83 9.83 0 0 0-3.54 3.85 11 11 0 0 0-.91 6.41 9.66 9.66 0 0 0-3.53 3.85 11 11 0 0 0-1 6 9.29 9.29 0 0 0-3.19 3.63c-1.78 4-.9 5.9.83 7.46a8.37 8.37 0 0 0-1.62 10.16z"/><path d="M1057.54 151.794a9 9 0 0 0 8.89-6.19h1.28a9.64 9.64 0 0 0 8.38 6.19 9 9 0 0 0 8.89-6.19h1.28a9.65 9.65 0 0 0 8.38 6.19 9.05 9.05 0 0 0 8.9-6.19h1.28a9.63 9.63 0 0 0 8.38 6.19 9 9 0 0 0 8.89-6.19h1.28a9.63 9.63 0 0 0 8.38 6.19 9 9 0 0 0 8.89-6.19h1.28a9.64 9.64 0 0 0 8.38 6.19 9.06 9.06 0 0 0 8.9-6.19h1.27a9.65 9.65 0 0 0 8.39 6.19 9 9 0 0 0 8.89-6.19h1.25a9.63 9.63 0 0 0 8.38 6.19 9 9 0 0 0 8.89-6.19h1.28a9.64 9.64 0 0 0 8.38 6.19 8.8 8.8 0 0 0 7.3-3.36 9.74 9.74 0 0 0 6.9-.12 7.66 7.66 0 0 0 3.56-3.45 8.37 8.37 0 0 0-1.61-10.16c1.75-1.56 2.6-3.48.83-7.46a9.41 9.41 0 0 0-3.18-3.63 11.17 11.17 0 0 0-1-6 9.64 9.64 0 0 0-3.55-3.73 11 11 0 0 0-.9-6.52 9.59 9.59 0 0 0-3.55-3.77 11 11 0 0 0-.93-6.29 10.31 10.31 0 0 0-7.1-5.29c-.1-3.3-.85-6.6-3.62-7.78a9.88 9.88 0 0 0-8.6.84h-.07a6.42 6.42 0 0 0-6.14-3.91 6.85 6.85 0 0 0-5.75 3.91h-1.3a6.4 6.4 0 0 0-6.13-3.91 6.87 6.87 0 0 0-5.76 3.91h-1.3a6.39 6.39 0 0 0-6.13-3.91 6.88 6.88 0 0 0-5.76 3.91h-1.3a6.42 6.42 0 0 0-6.14-3.91 6.86 6.86 0 0 0-5.75 3.91h-1.3a6.4 6.4 0 0 0-6.13-3.91 6.87 6.87 0 0 0-5.76 3.91h-1.3a6.39 6.39 0 0 0-6.13-3.91 6.88 6.88 0 0 0-5.76 3.91h-1.3a6.41 6.41 0 0 0-6.13-3.91 6.87 6.87 0 0 0-5.76 3.91h-1.3a6.39 6.39 0 0 0-6.13-3.91 6.87 6.87 0 0 0-5.76 3.91h-1.3a6.39 6.39 0 0 0-6.13-3.91 6.85 6.85 0 0 0-5.75 3.91h-.83c-1.4-3.08-6.7-2.3-8.77-.84-2.47 1.73-3.35 4.7-3.55 7.76a10.35 10.35 0 0 0-7.18 5.31 11.08 11.08 0 0 0-.94 6.2 9.85 9.85 0 0 0-3.54 3.86 11 11 0 0 0-.91 6.4 9.79 9.79 0 0 0-3.53 3.85 11 11 0 0 0-1 6 9.36 9.36 0 0 0-3.19 3.63c-1.78 4-.9 5.9.83 7.46a8.37 8.37 0 0 0-1.61 10.16 7.69 7.69 0 0 0 3.57 3.45 10.15 10.15 0 0 0 8.1-.34 9.58 9.58 0 0 0 7.14 3.82zm-285-19c1.75-1.56 2.6-3.5.83-7.46a9.34 9.34 0 0 0-3.18-3.63 11.17 11.17 0 0 0-1-6 9.59 9.59 0 0 0-3.55-3.74 11 11 0 0 0-.9-6.52 9.57 9.57 0 0 0-3.55-3.76 11.08 11.08 0 0 0-.93-6.3 10.33 10.33 0 0 0-7.1-5.29c-.1-3.3-.85-6.6-3.63-7.78a9.89 9.89 0 0 0-8.6.85h-.06a6.42 6.42 0 0 0-6.14-3.91 6.85 6.85 0 0 0-5.75 3.91h-1.3a6.4 6.4 0 0 0-6.13-3.91 6.87 6.87 0 0 0-5.76 3.91h-1.3a6.39 6.39 0 0 0-6.13-3.91 6.88 6.88 0 0 0-5.76 3.91h-1.3a6.42 6.42 0 0 0-6.14-3.91 6.86 6.86 0 0 0-5.75 3.91h-1.3a6.4 6.4 0 0 0-6.13-3.91 6.87 6.87 0 0 0-5.76 3.91h-1.3a6.39 6.39 0 0 0-6.13-3.91 6.88 6.88 0 0 0-5.76 3.91h-1.3a6.41 6.41 0 0 0-6.13-3.91 6.87 6.87 0 0 0-5.76 3.91h-1.3a6.39 6.39 0 0 0-6.13-3.91 6.87 6.87 0 0 0-5.76 3.91h-1.3a6.39 6.39 0 0 0-6.13-3.91 6.85 6.85 0 0 0-5.75 3.91h-.83c-1.4-3.08-6.7-2.3-8.77-.85-2.47 1.73-3.35 4.7-3.55 7.76a10.35 10.35 0 0 0-7.18 5.31 11.13 11.13 0 0 0-.94 6.21 9.83 9.83 0 0 0-3.54 3.85 11 11 0 0 0-.91 6.41 9.66 9.66 0 0 0-3.53 3.85 11 11 0 0 0-1 6 9.29 9.29 0 0 0-3.19 3.63c-1.78 4-.9 5.9.83 7.46a8.37 8.37 0 0 0-1.61 10.16 7.73 7.73 0 0 0 3.57 3.45 10.15 10.15 0 0 0 8.1-.34 9.65 9.65 0 0 0 7.07 3.82 9.07 9.07 0 0 0 8.89-6.19h1.28a9.65 9.65 0 0 0 8.38 6.19 9.07 9.07 0 0 0 8.89-6.19h1.28a9.67 9.67 0 0 0 8.38 6.19 9.08 9.08 0 0 0 8.9-6.19h1.28a9.64 9.64 0 0 0 8.38 6.19 9.07 9.07 0 0 0 8.89-6.19h1.28a9.64 9.64 0 0 0 8.38 6.19 9.07 9.07 0 0 0 8.89-6.19h1.28a9.65 9.65 0 0 0 8.38 6.19 9.09 9.09 0 0 0 8.9-6.19h1.27a9.67 9.67 0 0 0 8.39 6.19 9.07 9.07 0 0 0 8.89-6.19h1.28a9.64 9.64 0 0 0 8.38 6.19 9.07 9.07 0 0 0 8.89-6.19h1.3a9.65 9.65 0 0 0 8.38 6.19 8.86 8.86 0 0 0 7.3-3.36 9.79 9.79 0 0 0 6.9-.12 7.71 7.71 0 0 0 3.56-3.45 8.37 8.37 0 0 0-1.61-10.16zm50.07-67.26a6.5 6.5 0 0 0 3 2.9 8.53 8.53 0 0 0 6.81-.29 8.16 8.16 0 0 0 6 3.22 7.65 7.65 0 0 0 7.48-5.21h1.07a8.11 8.11 0 0 0 7.05 5.21 7.63 7.63 0 0 0 7.47-5.21h1.08a8.11 8.11 0 0 0 7 5.21 7.64 7.64 0 0 0 7.48-5.21h1.07a8.13 8.13 0 0 0 7 5.21 7.65 7.65 0 0 0 7.48-5.21h1.07a8.13 8.13 0 0 0 7.05 5.21 7.63 7.63 0 0 0 7.47-5.21h1.08a8.11 8.11 0 0 0 7.05 5.21 7.63 7.63 0 0 0 7.47-5.21h1.08a8.11 8.11 0 0 0 7 5.21 7.65 7.65 0 0 0 7.48-5.21h1.07a8.13 8.13 0 0 0 7 5.21 7.65 7.65 0 0 0 7.48-5.21h1.07a8.11 8.11 0 0 0 7 5.21 7.43 7.43 0 0 0 6.13-2.83 8.2 8.2 0 0 0 5.8-.1 6.57 6.57 0 0 0 3-2.9 7.06 7.06 0 0 0-1.35-8.55c1.46-1.3 2.2-2.92.7-6.26a7.82 7.82 0 0 0-2.67-3.06 9.38 9.38 0 0 0-.83-5 8 8 0 0 0-3-3.14 9.32 9.32 0 0 0-.75-5.48 8.13 8.13 0 0 0-3-3.16 9.3 9.3 0 0 0-.78-5.3 8.7 8.7 0 0 0-6-4.44c-.08-2.8-.72-5.55-3-6.54a8.31 8.31 0 0 0-7.22.71h-.07a5.38 5.38 0 0 0-5.15-3.29 5.74 5.74 0 0 0-4.84 3.29h-.9a5.39 5.39 0 0 0-5.16-3.29 5.77 5.77 0 0 0-4.84 3.28h-1.1a5.38 5.38 0 0 0-5.15-3.29 5.74 5.74 0 0 0-4.84 3.29h-1.1a5.39 5.39 0 0 0-5.16-3.29 5.77 5.77 0 0 0-4.84 3.29h-1.1a5.39 5.39 0 0 0-5.16-3.29 5.77 5.77 0 0 0-4.84 3.29h-1.1a5.38 5.38 0 0 0-5.15-3.29 5.74 5.74 0 0 0-4.84 3.29h-1.1a5.39 5.39 0 0 0-5.16-3.29 5.77 5.77 0 0 0-4.84 3.29h-1.1a5.38 5.38 0 0 0-5.15-3.29 5.74 5.74 0 0 0-4.84 3.29h-1.1a5.39 5.39 0 0 0-5.16-3.29 5.77 5.77 0 0 0-4.84 3.29h-.7c-1.18-2.6-5.63-1.94-7.37-.7-2.07 1.45-2.8 3.95-3 6.52a8.68 8.68 0 0 0-6 4.46 9.28 9.28 0 0 0-.79 5.22 8.22 8.22 0 0 0-3 3.24 9.25 9.25 0 0 0-.76 5.39 8.16 8.16 0 0 0-3 3.23 9.38 9.38 0 0 0-.83 5 7.93 7.93 0 0 0-2.68 3.06c-1.5 3.34-.77 5 .7 6.26a7 7 0 0 0-1.33 8.56zm218.4 2.24h1a8.12 8.12 0 0 0 7 5.2 7.61 7.61 0 0 0 7.47-5.2h1.08a8.1 8.1 0 0 0 7 5.2 7.61 7.61 0 0 0 7.48-5.2h1.08a8.1 8.1 0 0 0 7 5.2 7.63 7.63 0 0 0 7.48-5.2h1.07a8.12 8.12 0 0 0 7 5.2 7.63 7.63 0 0 0 7.48-5.2h1.07a8.1 8.1 0 0 0 7 5.2 7.61 7.61 0 0 0 7.47-5.2h1.32a8.1 8.1 0 0 0 7 5.2 7.62 7.62 0 0 0 7.48-5.2h1.07a8.12 8.12 0 0 0 7.05 5.2 7.63 7.63 0 0 0 7.48-5.2h1.07a8.12 8.12 0 0 0 7 5.2 7.39 7.39 0 0 0 6.13-2.82 8.2 8.2 0 0 0 5.8-.1 6.49 6.49 0 0 0 3-2.91 7 7 0 0 0-1.35-8.54c1.46-1.3 2.2-2.92.7-6.27a7.86 7.86 0 0 0-2.67-3 9.38 9.38 0 0 0-.83-5 8 8 0 0 0-3-3.14 9.32 9.32 0 0 0-.75-5.48 8.06 8.06 0 0 0-3-3.16 9.29 9.29 0 0 0-.78-5.3 8.74 8.74 0 0 0-6-4.45c-.08-2.78-.7-5.54-3-6.54a8.29 8.29 0 0 0-7.21.71h-.08a5.37 5.37 0 0 0-5.15-3.28 5.75 5.75 0 0 0-4.84 3.28h-1.1a5.38 5.38 0 0 0-5.16-3.28 5.77 5.77 0 0 0-4.84 3.28h-1a5.37 5.37 0 0 0-5.15-3.28 5.75 5.75 0 0 0-4.84 3.28h-1.1a5.38 5.38 0 0 0-5.16-3.28 5.77 5.77 0 0 0-4.84 3.28h-1.1a5.38 5.38 0 0 0-5.16-3.28 5.77 5.77 0 0 0-4.84 3.28h-1.1a5.37 5.37 0 0 0-5.15-3.28 5.75 5.75 0 0 0-4.84 3.28h-1.1a5.38 5.38 0 0 0-5.16-3.28 5.77 5.77 0 0 0-4.84 3.28h-1.1a5.36 5.36 0 0 0-5.15-3.28 5.76 5.76 0 0 0-4.84 3.28h-1.1a5.37 5.37 0 0 0-5.15-3.28 5.75 5.75 0 0 0-4.84 3.28h-.7c-1.18-2.58-5.63-1.93-7.37-.7-2.07 1.46-2.8 4-3 6.53a8.68 8.68 0 0 0-6 4.46 9.28 9.28 0 0 0-.79 5.22 8.22 8.22 0 0 0-3 3.24 9.23 9.23 0 0 0-.76 5.38 8.19 8.19 0 0 0-3 3.24 9.38 9.38 0 0 0-.83 5 7.86 7.86 0 0 0-2.67 3c-1.5 3.35-.78 5 .7 6.27a7 7 0 0 0-1.35 8.54 6.47 6.47 0 0 0 3 2.91 8.6 8.6 0 0 0 6.82-.29 8.08 8.08 0 0 0 5.94 3.21 7.63 7.63 0 0 0 7.57-5.2zm-248.77.7a6.57 6.57 0 0 0 3-2.9 7 7 0 0 0-1.36-8.55c1.47-1.3 2.2-2.92.7-6.26a7.85 7.85 0 0 0-2.68-3.06 9.28 9.28 0 0 0-.82-5 8 8 0 0 0-3-3.14 9.16 9.16 0 0 0-.75-5.48 8 8 0 0 0-3-3.16 9.3 9.3 0 0 0-.78-5.3 8.66 8.66 0 0 0-6-4.44c-.08-2.8-.72-5.55-3.05-6.54a8.31 8.31 0 0 0-7.22.71h-.07a5.39 5.39 0 0 0-5.16-3.29 5.77 5.77 0 0 0-4.84 3.29h-1.1a5.38 5.38 0 0 0-5.1-3.34 5.75 5.75 0 0 0-4.84 3.29h-1.1a5.38 5.38 0 0 0-5.15-3.29 5.74 5.74 0 0 0-4.84 3.29H734a5.39 5.39 0 0 0-5.16-3.29 5.77 5.77 0 0 0-4.84 3.29h-1.1a5.38 5.38 0 0 0-5.15-3.29 5.74 5.74 0 0 0-4.84 3.29h-1.1a5.39 5.39 0 0 0-5.16-3.29 5.77 5.77 0 0 0-4.84 3.29h-1.1a5.37 5.37 0 0 0-5.15-3.29 5.77 5.77 0 0 0-4.84 3.29h-1.1a5.38 5.38 0 0 0-5.15-3.29 5.74 5.74 0 0 0-4.84 3.29h-1.1a5.39 5.39 0 0 0-5.16-3.29 5.77 5.77 0 0 0-4.84 3.29h-.7c-1.18-2.6-5.63-1.94-7.38-.7-2.07 1.45-2.8 3.95-3 6.52a8.66 8.66 0 0 0-6 4.46 9.28 9.28 0 0 0-.79 5.22 8.22 8.22 0 0 0-3 3.24 9.34 9.34 0 0 0-.77 5.39 8.24 8.24 0 0 0-3 3.23 9.28 9.28 0 0 0-.82 5 7.85 7.85 0 0 0-2.68 3.06c-1.5 3.34-.77 5 .7 6.26a7 7 0 0 0-1.36 8.55 6.57 6.57 0 0 0 3 2.9 8.53 8.53 0 0 0 6.81-.29 8.14 8.14 0 0 0 5.95 3.22 7.63 7.63 0 0 0 7.47-5.21h1.08a8.11 8.11 0 0 0 7 5.21 7.64 7.64 0 0 0 7.48-5.21h1.07a8.13 8.13 0 0 0 7.05 5.21 7.65 7.65 0 0 0 7.48-5.21h1.07a8.13 8.13 0 0 0 7 5.21 7.63 7.63 0 0 0 7.47-5.21h1.08a8.11 8.11 0 0 0 7 5.21 7.63 7.63 0 0 0 7.47-5.21h1.08a8.11 8.11 0 0 0 7 5.21 7.65 7.65 0 0 0 7.48-5.21h1.07a8.13 8.13 0 0 0 7.05 5.21 7.65 7.65 0 0 0 7.48-5.21h1.07a8.11 8.11 0 0 0 7.05 5.21 7.63 7.63 0 0 0 7.47-5.21h1.08a8.11 8.11 0 0 0 7 5.21 7.45 7.45 0 0 0 6.14-2.83 8.2 8.2 0 0 0 6.04-.05z"/></g></g><defs ><path id="B" d="M860.26 232.894a8 8 0 0 1 7.43-7.07c3.33-.16 7 2.06 7.87 7.07"/><path id="C" d="M875.56 232.894a8 8 0 0 1 7.44-7.07c3.32-.16 7 2.06 7.87 7.07"/><path id="D" d="M802 297.724a11.29 11.29 0 0 0 10.45 10c4.67.22 9.88-2.9 11.07-10"/><path id="E" d="M823.55 297.724a11.28 11.28 0 0 0 10.45 10c4.67.22 9.88-2.9 11.06-10"/><path id="F" d="M845.06 297.724a11.29 11.29 0 0 0 10.45 10c4.68.22 9.9-2.9 11.07-10"/><path id="G" d="M888.1 297.724a11.29 11.29 0 0 0 10.45 10c4.67.22 9.88-2.9 11.06-10"/><path id="H" d="M909.6 297.724a11.29 11.29 0 0 0 10.46 10c4.67.22 9.88-2.9 11.06-10"/><path id="I" d="M840.23 143.764a6.91 6.91 0 0 1 6.41-6.1c2.87-.14 6.06 1.78 6.8 6.1"/><path id="J" d="M853.43 143.764a6.9 6.9 0 0 1 6.41-6.1c2.87-.14 6.06 1.78 6.8 6.1"/><path id="K" d="M816.42 199.654a9.72 9.72 0 0 0 9 8.6c4 .2 8.52-2.5 9.54-8.6"/><path id="L" d="M835 199.654a9.73 9.73 0 0 0 9 8.6c4 .2 8.52-2.5 9.54-8.6"/><path id="M" d="M1072.34 145.684a6.93 6.93 0 0 1 6.41-6.1c2.87-.14 6.06 1.78 6.8 6.1"/><path id="N" d="M1048.53 201.584a9.71 9.71 0 0 0 9 8.59c4 .2 8.52-2.5 9.54-8.6"/><path id="O" d="M1067.08 201.584a9.72 9.72 0 0 0 9 8.59c4 .2 8.52-2.5 9.54-8.6"/><path id="P" d="M850.8 65.784a5.81 5.81 0 0 1 5.38-5.13c2.4-.12 5.1 1.5 5.7 5.13"/><path id="Q" d="M861.88 65.784a5.81 5.81 0 0 1 5.39-5.13c2.4-.12 5.1 1.5 5.7 5.13"/><path id="R" d="M839.4 78.374c-3.66-1.14-7.67 1.6-8.93 4.3-1.4 3-1.36 7.1 1.6 9.55"/><path id="S" d="M830.76 112.774a8.16 8.16 0 0 0 7.58 7.22c3.4.17 7.16-2.1 8-7.22"/><path id="T" d="M846.36 112.774a8.16 8.16 0 0 0 7.58 7.22c3.38.17 7.16-2.1 8-7.22"/><path id="U" d="M862 112.774a8.16 8.16 0 0 0 7.57 7.22c3.4.17 7.17-2.1 8-7.22"/><path id="V" d="M877.56 112.774a8.15 8.15 0 0 0 7.57 7.22c3.4.17 7.17-2.1 8-7.22"/><path id="W" d="M1045.92 67.404a5.8 5.8 0 0 1 5.39-5.13c2.4-.12 5.1 1.5 5.7 5.13"/><path id="X" d="M1041.5 114.394a8.18 8.18 0 0 0 7.58 7.22c3.4.16 7.16-2.1 8-7.22"/></defs></svg>