<svg id="Layer_1" data-name="Layer 1" xmlns="http://www.w3.org/2000/svg" viewBox="0 0 2000 2000"><path d="M350.6,371.51V106.73C350.6,75.4,374.93,50,405,50H1614.33c30,0,54.36,25.4,54.36,56.73V371.51" style="fill:#fff;stroke:#3a3632;stroke-miterlimit:15.118109703064;stroke-width:20px"/><circle cx="523" cy="185.76" r="50.25" style="fill:#e6e7e8;stroke:#3a3632;stroke-miterlimit:15.118109703064;stroke-width:20px"/><circle cx="689.84" cy="185.76" r="50.25" style="fill:#e6e7e8;stroke:#3a3632;stroke-miterlimit:15.118109703064;stroke-width:20px"/><circle cx="1479.15" cy="185.76" r="50.25" style="fill:#e6e7e8;stroke:#3a3632;stroke-miterlimit:15.118109703064;stroke-width:20px"/><circle cx="1314.74" cy="185.76" r="50.25" style="fill:#e6e7e8;stroke:#3a3632;stroke-miterlimit:15.118109703064;stroke-width:20px"/><circle cx="1000" cy="185.76" r="50.25" style="fill:#e6e7e8;stroke:#3a3632;stroke-miterlimit:15.118109703064;stroke-width:20px"/><rect x="273.76" y="371.51" width="1452.47" height="1578.49" rx="56.73" style="fill:#fff;stroke:#3a3632;stroke-miterlimit:15.118109703064;stroke-width:20px"/><line x1="279.16" y1="1654.33" x2="1720.84" y2="1654.33" style="fill:none;stroke:#3a3632;stroke-miterlimit:15.118109703064;stroke-width:20px"/><rect x="364.47" y="590.47" width="1271.06" height="88.16" rx="18.91" style="fill:none;stroke:#3a3632;stroke-miterlimit:15.118109703064;stroke-width:20px"/><line x1="279.16" y1="489.62" x2="1720.84" y2="489.62" style="fill:none;stroke:#3a3632;stroke-miterlimit:15.118109703064;stroke-width:20px"/><line x1="475.12" y1="340.01" x2="895.4" y2="340.01" style="fill:none;stroke:#3a3632;stroke-linecap:round;stroke-miterlimit:15.118109703064;stroke-width:37.8187366634573px"/><line x1="1104.6" y1="340.01" x2="1524.88" y2="340.01" style="fill:none;stroke:#3a3632;stroke-linecap:round;stroke-miterlimit:15.118109703064;stroke-width:37.8187366634573px"/><rect x="472.75" y="779.47" width="1054.5" height="774.01" rx="113.46" style="fill:#a6a8ab;stroke:#3a3632;stroke-linecap:round;stroke-linejoin:round;stroke-width:20px;isolation:isolate;opacity:0.991999983787537"/><line x1="475.84" y1="1318.54" x2="1527.25" y2="1318.54" style="fill:none;stroke:#3a3632;stroke-linecap:round;stroke-miterlimit:15.118109703064;stroke-width:20px"/><line x1="576.34" y1="1318.54" x2="576.34" y2="1541.77" style="fill:none;stroke:#3a3632;stroke-linecap:round;stroke-miterlimit:15.118109703064;stroke-width:20px"/><line x1="718.43" y1="1318.54" x2="718.43" y2="1541.77" style="fill:none;stroke:#3a3632;stroke-linecap:round;stroke-miterlimit:15.118109703064;stroke-width:20px"/><line x1="860.53" y1="1318.54" x2="860.53" y2="1541.77" style="fill:none;stroke:#3a3632;stroke-linecap:round;stroke-miterlimit:15.118109703064;stroke-width:20px"/><line x1="1002.62" y1="1318.54" x2="1002.62" y2="1541.77" style="fill:none;stroke:#3a3632;stroke-linecap:round;stroke-miterlimit:15.118109703064;stroke-width:20px"/><line x1="1144.72" y1="1318.54" x2="1144.72" y2="1541.77" style="fill:none;stroke:#3a3632;stroke-linecap:round;stroke-miterlimit:15.118109703064;stroke-width:20px"/><line x1="1286.81" y1="1318.54" x2="1286.81" y2="1541.77" style="fill:none;stroke:#3a3632;stroke-linecap:round;stroke-miterlimit:15.118109703064;stroke-width:20px"/><line x1="1428.9" y1="1318.54" x2="1428.9" y2="1541.77" style="fill:none;stroke:#3a3632;stroke-linecap:round;stroke-miterlimit:15.118109703064;stroke-width:20px"/><path d="M819.08,936.66q33.38,0,57.32,13.55a87.79,87.79,0,0,1,36.24,38.5q12.3,25,12.3,58.65,0,24.89-6.73,45.24A97.92,97.92,0,0,1,898,1127.89a88.22,88.22,0,0,1-33.09,22.84q-19.62,7.9-44.95,7.91t-45.1-8.13a89.41,89.41,0,0,1-33.24-22.91A98,98,0,0,1,721.49,1092a143.64,143.64,0,0,1-6.81-45q0-24.74,7.1-45.39a97.39,97.39,0,0,1,20.57-35.14,89,89,0,0,1,32.8-22.18Q794.48,936.66,819.08,936.66Zm61.79,110.4q0-23.57-7.62-40.85t-21.74-26.13q-14.13-8.87-32.43-8.86a58.72,58.72,0,0,0-24.09,4.9,52.89,52.89,0,0,0-19,14.28q-8,9.38-12.6,23.94a108.31,108.31,0,0,0-4.61,32.72,111.07,111.07,0,0,0,4.61,33.1q4.62,14.79,13,24.52a54.72,54.72,0,0,0,19.32,14.57,61.09,61.09,0,0,0,54.62-3.51q14-8.35,22.26-25.77T880.87,1047.06Z" style="fill:#fff"/><path d="M1090.4,973.85h-85.66v54.91h71.6q10,0,14.87,4.47t4.9,11.93q0,7.47-5,11.86t-14.79,4.39h-71.6v70.73q0,13.47-6.07,20a20.37,20.37,0,0,1-15.6,6.52q-9.66,0-15.74-6.59t-6.08-19.91V967q0-9.36,2.79-15.3a17.3,17.3,0,0,1,8.71-8.64q5.93-2.7,15.15-2.71h102.5q10.39,0,15.45,4.61A15.6,15.6,0,0,1,1110.9,957q0,7.62-5.05,12.23T1090.4,973.85Z" style="fill:#fff"/><path d="M1271.53,973.85h-85.66v54.91h71.6q10,0,14.86,4.47t4.91,11.93c0,5-1.67,8.93-5,11.86s-8.25,4.39-14.79,4.39h-71.6v70.73q0,13.47-6.08,20a20.35,20.35,0,0,1-15.59,6.52q-9.67,0-15.74-6.59t-6.08-19.91V967q0-9.36,2.78-15.3a17.33,17.33,0,0,1,8.71-8.64q5.94-2.7,15.16-2.71h102.5q10.4,0,15.44,4.61a15.6,15.6,0,0,1,5,12.08q0,7.62-5,12.23T1271.53,973.85Z" style="fill:#fff"/></svg>