<svg id="Layer_1" data-name="Layer 1" xmlns="http://www.w3.org/2000/svg" viewBox="0 0 1557.12 2000"><g id="layer3"><path id="path916" d="M236.75,1144.86,67,1163.73C.59,1171.1.13,1272.86,59.7,1294.34l177.05,63.85Zm1083.62,0,169.79,18.87c66.37,7.37,66.83,109.13,7.26,130.61l-177.05,63.85Zm0-162.87v847.47a155.56,155.56,0,0,1-155.9,155.9H392.65a155.56,155.56,0,0,1-155.9-155.9V982Z" style="fill:#fff;stroke:#231f20;stroke-linecap:round;stroke-linejoin:round;stroke-width:24px"/></g><g id="g864"><path id="path1510" d="M777.29,787c-198.76.33-390.67,75.62-540.16,194.27H1320.37C1170.5,862.34,978,787,778.75,787Z" style="fill:#fff;fill-opacity:0.995950996875763;stroke:#221f1f;stroke-linecap:round;stroke-linejoin:round;stroke-width:24px;opacity:0.990000009536743;isolation:isolate"/><path id="path1507" d="M908.26,796.33c9-64.77-41.66-123.89-113.17-132.05a143.83,143.83,0,0,0-16.34-.93h-.93c-72.08.45-130.1,53.74-129.6,119a105.21,105.21,0,0,0,1,14" style="fill:none;stroke:#221f1f;stroke-linecap:round;stroke-linejoin:round;stroke-width:24px;opacity:0.990000009536743;isolation:isolate"/></g><path d="M689.16,545.76l-20.92-22a412.55,412.55,0,0,1-61-83.06c-17.75-31.75-42.19-71.81-59.55-85.66-30.35-24.23-27.14-39.64-20.21-45.61,9.58-8.26,18.8-8.5,33-8.5a66.67,66.67,0,0,1,8,.48c32.23,3.87,71,50.95,81.18,60,3.28,2.92,6.53,5.82,9.82,8.67a8.68,8.68,0,0,0,14.36-6.55l4.34-265.13c0-17.7,10.06-32.11,27.77-32.11s27.78,14.41,27.78,32.11l4.34,184.12a8.68,8.68,0,1,0,17.35,0l4.34-233.77c0-17.71,10.07-32.12,27.77-32.12s27.78,14.41,27.78,32.12l4.34,232.85a8.68,8.68,0,1,0,17.35,0l4.34-192.06c0-17.71,10.06-32.12,27.77-32.12S896.9,71.84,896.9,89.55L901.24,291a8.68,8.68,0,0,0,17.35,0l4.33-137.58c0-17.71,10.07-32.12,27.78-32.12s27.78,14.41,27.78,32.12l3.44,126q.9,32.63-1.26,65.22l-3.84,58.3A408.45,408.45,0,0,1,937.2,553.3h0a77.65,77.65,0,0,1-69,43.91l-55.68.65A167.48,167.48,0,0,1,689.16,545.76Z" style="fill:#fff;stroke:#231f20;stroke-miterlimit:10;stroke-width:24px"/></svg>