<?xml version="1.0" encoding="UTF-8"?>
<svg id="Layer_1" data-name="Layer 1" xmlns="http://www.w3.org/2000/svg" width="2000" height="2000" xmlns:xlink="http://www.w3.org/1999/xlink" viewBox="0 0 2000 2000">
  <defs>
    <linearGradient id="linear-gradient" x1="706.83" y1="1399.79" x2="926.18" y2="1399.79" gradientUnits="userSpaceOnUse">
      <stop offset=".07" stop-color="#e87660"/>
      <stop offset=".43" stop-color="#f48062"/>
      <stop offset=".8" stop-color="#ff926c"/>
      <stop offset="1" stop-color="#ff926c"/>
    </linearGradient>
    <linearGradient id="linear-gradient-2" x1="-10656.4" y1="-12790.29" x2="-10471.05" y2="-12790.29" gradientTransform="translate(-9534.04 -11756.05) rotate(-180)" gradientUnits="userSpaceOnUse">
      <stop offset=".02" stop-color="#d1d3d4"/>
      <stop offset=".43" stop-color="#bcbec0"/>
      <stop offset=".8" stop-color="#a7a9ac"/>
      <stop offset="1" stop-color="#939598"/>
    </linearGradient>
  </defs>
  <rect x="26.28" y="313.8" width="1947.44" height="1372.41" rx="14.01" ry="14.01" style="fill: #e6e7e8; stroke: #3a3632; stroke-linecap: round; stroke-linejoin: round; stroke-width: 24px;"/>
  <rect x="26.28" y="313.8" width="1947.44" height="443.57" rx="8.48" ry="8.48" style="fill: #e6e7e8; stroke: #3a3632; stroke-linecap: round; stroke-linejoin: round; stroke-width: 24px;"/>
  <rect x="1204.22" y="761.26" width="174.62" height="924.95" rx="3.33" ry="3.33" style="fill: #fff; stroke: #3a3632; stroke-linecap: round; stroke-linejoin: round; stroke-width: 24px;"/>
  <path d="m1382.58,1686.2h587.39c2.06,0,3.74-1.69,3.74-3.74v-346.27c0-2.06-1.69-3.74-3.74-3.74l-587.39,205.36c-2.06,0-3.74,1.69-3.74,3.74v140.92c0,2.06,1.69,3.74,3.74,3.74Z" style="fill: #fff; stroke: #3a3632; stroke-linecap: round; stroke-linejoin: round; stroke-width: 24px;"/>
  <path d="m550.05,793.86c.13,0,.26,0,.39,0,.13,0,.26,0,.39,0h-.78Z" style="fill: #28cebe; stroke: #3a3632; stroke-miterlimit: 11.34; stroke-width: 2.52px;"/>
  <g>
    <path d="m944.59,1384.48c-4.48,89.97-57.63,198.46-128.09,198.78-70.47-.32-123.61-108.81-128.09-198.78-1.52-30.52,0-63.81,0-63.81,0-36.32,20.13-68.18,49.78-84.95,10.25-5.8,16.56-16.68,16.56-28.45v-316.04h123.5v316.04c0,11.77,6.31,22.65,16.56,28.45,29.65,16.78,49.78,48.63,49.78,84.95,0,0,1.52,33.29,0,63.81Zm-113.97-297.3v-136.05c0-7.8-6.32-14.12-14.12-14.12h0c-7.8,0-14.12,6.32-14.12,14.12v136.05c0,7.8,6.32,14.12,14.12,14.12h0c7.8,0,14.12-6.32,14.12-14.12Z" style="fill: #ff926c; stroke: #3a3632; stroke-miterlimit: 11.34; stroke-width: 20px;"/>
    <path d="m816.52,1242.16h26.02c45.68,0,83.06,38.42,83.06,85.38,0,0,1.3,29.14,0,55.87-3.83,78.88-49.22,174.03-109.37,174.03h0,.54s0,0,0,0c-60.15,0-105.54-95.15-109.37-174.03-1.3-26.72,0-55.87,0-55.87,0-46.96,37.38-85.38,83.06-85.38h26.06Z" style="fill: url(#linear-gradient);"/>
    <path d="m816.85,1606.93c-.12,0-.23,0-.35,0-.12,0-.23,0-.35,0h.69Z" style="fill: #ff926c; stroke: #3a3632; stroke-miterlimit: 11.34; stroke-width: 2.52px;"/>
    <path d="m816.38,1479.49h0c28.27,0,49.6-51.21,51.4-93.66.61-14.38,0-30.07,0-30.07,0-25.27-17.57-45.95-39.04-45.95h-12.23s-.02,0-.02,0h-12.23c-21.47,0-39.04,20.68-39.04,45.95,0,0-.61,15.68,0,30.07,1.8,42.45,23.13,93.66,51.4,93.66h0-.25Z" style="fill: #ff926c;"/>
  </g>
  <g>
    <path d="m1074.14,909.1c.09,0,.18,0,.28,0,.09,0,.18,0,.28,0h-.55Z" style="fill: #d1d3d4; stroke: #3a3632; stroke-miterlimit: 11.34; stroke-width: 2.52px;"/>
    <path d="m1141.84,1103.51c0,31.81-17.62,59.7-43.59,74.39-8.97,5.08-14.5,14.6-14.5,24.91v357.84h-108.14v-357.84c0-10.31-5.53-19.83-14.5-24.91-25.96-14.69-43.59-42.58-43.59-74.39,0,0-1.33-29.15,0-55.88,3.93-78.78,50.46-173.77,112.16-174.05,61.7.28,108.23,95.28,112.16,174.05,1.33,26.73,0,55.88,0,55.88Zm-98.03,386.25v-136.05c0-7.8-6.32-14.12-14.12-14.12h0c-7.8,0-14.12,6.32-14.12,14.12v136.05c0,7.8,6.32,14.12,14.12,14.12h0c7.8,0,14.12-6.32,14.12-14.12Z" style="fill: #d1d3d4; stroke: #3a3632; stroke-miterlimit: 11.34; stroke-width: 20px;"/>
    <path d="m1029.67,1167.44h-21.98c-38.6,0-70.19-32.46-70.19-72.14,0,0-1.1-24.63,0-47.21,3.23-66.66,41.59-147.06,92.42-147.06h0s-.45,0-.45,0h0c50.83,0,89.18,80.4,92.42,147.06,1.1,22.58,0,47.21,0,47.21,0,39.68-31.59,72.14-70.19,72.14h-21.98s-.03,0-.03,0Z" style="fill: url(#linear-gradient-2);"/>
    <path d="m1029.79,966.89h0c-23.89,0-41.91,43.27-43.43,79.15-.51,12.15,0,25.41,0,25.41,0,21.36,14.84,38.83,32.99,38.83h10.33s.02,0,.02,0h10.33c18.14,0,32.99-17.47,32.99-38.83,0,0,.51-13.25,0-25.41-1.52-35.87-19.55-79.15-43.43-79.15h0s.21,0,.21,0Z" style="fill: #d1d3d4;"/>
  </g>
  <rect x="26.28" y="756.62" width="1181.27" height="929.58" rx="9.56" ry="9.56" style="fill: none; stroke: #ed1c24; stroke-dasharray: 0 0 20.02 50.06; stroke-linecap: round; stroke-linejoin: round; stroke-width: 24px;"/>
</svg>