<svg id="Layer_1" data-name="Layer 1" xmlns="http://www.w3.org/2000/svg" width="2000" height="1655.94" viewBox="0 0 2000 1655.94">
  <g>
    <path d="M102.52,1601.82h1794c56.48,0,88.6-45.57,72.24-100.08l-93-309.81c-13-43.18-62.26-77.25-110.48-77.25H233.73c-48.22,0-97.53,34.07-110.48,77.25l-93,309.81C13.93,1556.25,46.05,1601.82,102.52,1601.82Z" style="fill: #fff;stroke: #3a3632;stroke-miterlimit: 10;stroke-width: 24px"/>
    <path d="M182.34,1445.94c26.53,0,53-20.54,59.07-45.53l35.81-147.8c5.41-22.34-10.19-40.19-34.77-40.19s-49.36,17.85-55.45,40.19l-40.28,147.8C139.91,1425.4,155.82,1445.94,182.34,1445.94Z" style="fill: #fff;stroke: #3a3632;stroke-miterlimit: 10;stroke-width: 24px"/>
  </g>
  <path d="M834.64,1157.19c10.25,1.76,122.94,23,133.35,24.54q11.12,1.62,22.36,3.2c48.59,6.91,157.2,21.31,209.41,40,52.69,65.37-16.23,283.5-100.58,317.28-50.09-6.72-189.86-56.12-238.26-68.9-11.09-2.93-84.91-20.76-95.93-23.62,0,0-21.29-85.76-.31-167.79S834.64,1157.19,834.64,1157.19Z" style="fill: #82c14c;stroke: #3a3632;stroke-linecap: round;stroke-linejoin: round;stroke-width: 20px"/>
  <path d="M1095,1497.87s-14-75.51,9.16-135,68.43-105.28,68.43-105.28,16.73,57-7.79,132.5S1095,1497.87,1095,1497.87Z" style="fill: #c1db79"/>
  <path d="M1095,1497.87s-14-75.51,9.16-135,68.43-105.28,68.43-105.28" style="fill: none;stroke: #3a3632;stroke-linecap: round;stroke-linejoin: round;stroke-width: 20px"/>
  <path d="M843.79,753,815.2,722.91a564.34,564.34,0,0,1-83.31-113.47c-24.25-43.39-57.64-98.12-81.36-117.05-41.47-33.1-37.08-54.16-27.62-62.31,13.1-11.28,25.69-11.61,45.14-11.61a90.57,90.57,0,0,1,10.87.65c44,5.29,97,69.61,110.92,82,4.47,4,8.92,7.94,13.4,11.84A11.86,11.86,0,0,0,822.87,504l5.92-362.24c0-24.19,13.76-43.88,38-43.88s38,19.69,38,43.88l5.93,251.56a11.85,11.85,0,0,0,23.7,0L940.26,74c0-24.19,13.75-43.88,38-43.88s37.95,19.69,37.95,43.88l5.93,318.15a11.85,11.85,0,1,0,23.7,0l5.93-262.42c0-24.19,13.75-43.87,38-43.87s37.95,19.68,37.95,43.87l5.93,275.2a11.85,11.85,0,1,0,23.7,0l5.93-188c0-24.19,13.75-43.88,38-43.88s37.95,19.69,37.95,43.88L1243.79,389q1.21,44.57-1.72,89.1l-5.26,79.66a557.56,557.56,0,0,1-54.13,205.5h0a106.07,106.07,0,0,1-94.33,60l-76.07.88A228.77,228.77,0,0,1,843.79,753Z" style="fill: #fff;stroke: #3a3632;stroke-miterlimit: 10;stroke-width: 20px"/>
</svg>
