<?xml version="1.0" encoding="UTF-8"?>
<svg id="Layer_1" data-name="Layer 1" xmlns="http://www.w3.org/2000/svg" width="2000" height="2000" xmlns:xlink="http://www.w3.org/1999/xlink" viewBox="0 0 2000 2000">
  <defs>
    <linearGradient id="linear-gradient" x1="706.83" y1="1399.79" x2="926.18" y2="1399.79" gradientUnits="userSpaceOnUse">
      <stop offset=".07" stop-color="#e87660"/>
      <stop offset=".43" stop-color="#f48062"/>
      <stop offset=".8" stop-color="#ff926c"/>
      <stop offset="1" stop-color="#ff926c"/>
    </linearGradient>
    <linearGradient id="linear-gradient-2" x1="94.98" y1="1399.96" x2="409.51" y2="1399.96" gradientUnits="userSpaceOnUse">
      <stop offset="0" stop-color="#262635"/>
      <stop offset="1" stop-color="#383850"/>
    </linearGradient>
    <linearGradient id="linear-gradient-3" x1="9825.6" y1="-16990.29" x2="10010.95" y2="-16990.29" gradientTransform="translate(10947.96 -15956.05) rotate(-180)" gradientUnits="userSpaceOnUse">
      <stop offset=".02" stop-color="#d1d3d4"/>
      <stop offset=".43" stop-color="#bcbec0"/>
      <stop offset=".8" stop-color="#a7a9ac"/>
      <stop offset="1" stop-color="#939598"/>
    </linearGradient>
    <linearGradient id="linear-gradient-4" x1="1608.39" y1="-16975.1" x2="1884.01" y2="-16975.1" gradientTransform="translate(-1197.46 -15956.05) scale(1 -1)" gradientUnits="userSpaceOnUse">
      <stop offset=".02" stop-color="#23ada9"/>
      <stop offset=".37" stop-color="#25b7a5"/>
      <stop offset=".69" stop-color="#25b7a5"/>
      <stop offset="1" stop-color="#28cebe"/>
    </linearGradient>
  </defs>
  <rect x="26.28" y="313.8" width="1947.44" height="1372.41" rx="14.01" ry="14.01" style="fill: #e6e7e8; stroke: #3a3632; stroke-linecap: round; stroke-linejoin: round; stroke-width: 24px;"/>
  <rect x="26.28" y="313.8" width="1947.44" height="443.57" rx="8.48" ry="8.48" style="fill: #e6e7e8; stroke: #3a3632; stroke-linecap: round; stroke-linejoin: round; stroke-width: 24px;"/>
  <rect x="1204.22" y="761.26" width="174.62" height="924.95" rx="3.33" ry="3.33" style="fill: #fff; stroke: #3a3632; stroke-linecap: round; stroke-linejoin: round; stroke-width: 24px;"/>
  <path d="m1382.58,1686.2h587.39c2.06,0,3.74-1.69,3.74-3.74v-346.27c0-2.06-1.69-3.74-3.74-3.74l-587.39,205.36c-2.06,0-3.74,1.69-3.74,3.74v140.92c0,2.06,1.69,3.74,3.74,3.74Z" style="fill: #fff; stroke: #3a3632; stroke-linecap: round; stroke-linejoin: round; stroke-width: 24px;"/>
  <path d="m550.05,793.86c.13,0,.26,0,.39,0,.13,0,.26,0,.39,0h-.78Z" style="fill: #28cebe; stroke: #3a3632; stroke-miterlimit: 11.34; stroke-width: 2.52px;"/>
  <g>
    <path d="m944.59,1384.48c-4.48,89.97-57.63,198.46-128.09,198.78-70.47-.32-123.61-108.81-128.09-198.78-1.52-30.52,0-63.81,0-63.81,0-36.32,20.13-68.18,49.78-84.95,10.25-5.8,16.56-16.68,16.56-28.45v-316.04h123.5v316.04c0,11.77,6.31,22.65,16.56,28.45,29.65,16.78,49.78,48.63,49.78,84.95,0,0,1.52,33.29,0,63.81Zm-113.97-297.3v-136.05c0-7.8-6.32-14.12-14.12-14.12h0c-7.8,0-14.12,6.32-14.12,14.12v136.05c0,7.8,6.32,14.12,14.12,14.12h0c7.8,0,14.12-6.32,14.12-14.12Z" style="fill: #ff926c; stroke: #3a3632; stroke-miterlimit: 11.34; stroke-width: 20px;"/>
    <path d="m816.52,1242.16h26.02c45.68,0,83.06,38.42,83.06,85.38,0,0,1.3,29.14,0,55.87-3.83,78.88-49.22,174.03-109.37,174.03h0,.54s0,0,0,0c-60.15,0-105.54-95.15-109.37-174.03-1.3-26.72,0-55.87,0-55.87,0-46.96,37.38-85.38,83.06-85.38h26.06Z" style="fill: url(#linear-gradient);"/>
    <path d="m816.85,1606.93c-.12,0-.23,0-.35,0-.12,0-.23,0-.35,0h.69Z" style="fill: #ff926c; stroke: #3a3632; stroke-miterlimit: 11.34; stroke-width: 2.52px;"/>
    <path d="m816.38,1479.49h0c28.27,0,49.6-51.21,51.4-93.66.61-14.38,0-30.07,0-30.07,0-25.27-17.57-45.95-39.04-45.95h-12.23s-.02,0-.02,0h-12.23c-21.47,0-39.04,20.68-39.04,45.95,0,0-.61,15.68,0,30.07,1.8,42.45,23.13,93.66,51.4,93.66h0-.25Z" style="fill: #ff926c;"/>
  </g>
  <g>
    <path d="m73.8,1287.78c0-54.06,32-101,77.98-122.83,14.33-6.8,23.62-21.08,23.62-36.94v-304.46h153.68v304.46c0,15.87,9.29,30.14,23.62,36.94,45.99,21.83,77.98,68.78,77.98,122.83,0,0,2.12,46.37,0,88.9-6.25,125.34-80.28,276.47-178.44,276.92-98.17-.45-172.2-151.59-178.44-276.92-2.12-42.52,0-88.9,0-88.9Zm162.47-409.26v153.92c0,8.82,7.15,15.98,15.98,15.98h0c8.82,0,15.98-7.15,15.98-15.98v-153.92c0-8.82-7.15-15.98-15.98-15.98h0c-8.82,0-15.98,7.15-15.98,15.98Z" style="fill: #383850; stroke: #3a3632; stroke-miterlimit: 11.34; stroke-width: 20px;"/>
    <path d="m252.28,1173.92h37.31c65.51,0,119.11,55.09,119.11,122.42,0,0,1.86,41.79,0,80.11-5.49,113.11-70.57,249.54-156.83,249.54h0,.77s0,0,0,0c-86.25,0-151.34-136.43-156.83-249.54-1.86-38.32,0-80.11,0-80.11,0-67.33,53.6-122.42,119.11-122.42h37.36Z" style="fill: url(#linear-gradient-2);"/>
    <path d="m252.07,1514.24h0c40.54,0,71.13-73.43,73.7-134.3.87-20.62,0-43.11,0-43.11,0-36.24-25.19-65.89-55.98-65.89h-17.53s-.03,0-.03,0h-17.53c-30.79,0-55.98,29.65-55.98,65.89,0,0-.87,22.49,0,43.11,2.58,60.88,33.17,134.3,73.7,134.3h0-.36Z" style="fill: #383850;"/>
  </g>
  <g>
    <path d="m1074.14,909.1c.09,0,.18,0,.28,0,.09,0,.18,0,.28,0h-.55Z" style="fill: #d1d3d4; stroke: #3a3632; stroke-miterlimit: 11.34; stroke-width: 2.52px;"/>
    <path d="m1141.84,1103.51c0,31.81-17.62,59.7-43.59,74.39-8.97,5.08-14.5,14.6-14.5,24.91v357.84h-108.14v-357.84c0-10.31-5.53-19.83-14.5-24.91-25.96-14.69-43.59-42.58-43.59-74.39,0,0-1.33-29.15,0-55.88,3.93-78.78,50.46-173.77,112.16-174.05,61.7.28,108.23,95.28,112.16,174.05,1.33,26.73,0,55.88,0,55.88Zm-98.03,386.25v-136.05c0-7.8-6.32-14.12-14.12-14.12h0c-7.8,0-14.12,6.32-14.12,14.12v136.05c0,7.8,6.32,14.12,14.12,14.12h0c7.8,0,14.12-6.32,14.12-14.12Z" style="fill: #d1d3d4; stroke: #3a3632; stroke-miterlimit: 11.34; stroke-width: 20px;"/>
    <path d="m1029.67,1167.44h-21.98c-38.6,0-70.19-32.46-70.19-72.14,0,0-1.1-24.63,0-47.21,3.23-66.66,41.59-147.06,92.42-147.06h0s-.45,0-.45,0h0c50.83,0,89.18,80.4,92.42,147.06,1.1,22.58,0,47.21,0,47.21,0,39.68-31.59,72.14-70.19,72.14h-21.98s-.03,0-.03,0Z" style="fill: url(#linear-gradient-3);"/>
    <path d="m1029.79,966.89h0c-23.89,0-41.91,43.27-43.43,79.15-.51,12.15,0,25.41,0,25.41,0,21.36,14.84,38.83,32.99,38.83h10.33s.02,0,.02,0h10.33c18.14,0,32.99-17.47,32.99-38.83,0,0,.51-13.25,0-25.41-1.52-35.87-19.55-79.15-43.43-79.15h0s.21,0,.21,0Z" style="fill: #d1d3d4;"/>
  </g>
  <g>
    <path d="m708.17,1117.23c0,47.78-28.28,89.28-68.93,108.57-12.67,6.01-20.88,18.63-20.88,32.65v326.18h-135.84v-326.18c0-14.02-8.21-26.64-20.88-32.65-40.65-19.3-68.93-60.79-68.93-108.57,0,0-1.87-40.99,0-78.58,5.52-110.79,70.96-244.38,157.73-244.78,86.77.4,152.21,133.99,157.73,244.78,1.87,37.59,0,78.58,0,78.58Zm-143.61,418.82v-136.05c0-7.8-6.32-14.12-14.12-14.12h0c-7.8,0-14.12,6.32-14.12,14.12v136.05c0,7.8,6.32,14.12,14.12,14.12h0c7.8,0,14.12-6.32,14.12-14.12Z" style="fill: #28cebe; stroke: #3a3632; stroke-miterlimit: 11.34; stroke-width: 20px;"/>
    <path d="m548.77,1217.12h32.69c57.4,0,104.37-48.27,104.37-107.28,0,0,1.63-36.62,0-70.19-4.81-99.11-61.84-218.67-137.42-218.67h0s.67,0,.67,0h0c-75.58,0-132.61,119.55-137.42,218.67-1.63,33.58,0,70.19,0,70.19,0,59,46.97,107.28,104.37,107.28h32.69s.05,0,.05,0Z" style="fill: url(#linear-gradient-4);"/>
    <path d="m548.9,918.91h0c-35.52,0-62.33,64.34-64.58,117.69-.77,18.07,0,37.78,0,37.78,0,31.75,22.07,57.74,49.05,57.74h15.36s.02,0,.02,0h15.36c26.98,0,49.05-25.98,49.05-57.74,0,0,.77-19.71,0-37.78-2.26-53.34-29.06-117.69-64.58-117.69h0s.32,0,.32,0Z" style="fill: #28cebe;"/>
  </g>
  <path d="m35.85,756.62h1162.14c5.28,0,9.56,4.29,9.56,9.56v910.45c0,5.28-4.29,9.56-9.56,9.56H35.85c-5.28,0-9.56-4.29-9.56-9.56v-910.45c0-5.28,4.29-9.56,9.56-9.56Z" style="fill: none; stroke: #ed1c24; stroke-dasharray: 0 0 20.02 50.06; stroke-linecap: round; stroke-linejoin: round; stroke-width: 24px;"/>
</svg>