<svg id="Layer_1" data-name="Layer 1" xmlns="http://www.w3.org/2000/svg" viewBox="0 0 1000.61 2000"><path d="M350,753l-28.59-30.09a564.34,564.34,0,0,1-83.31-113.47c-24.25-43.39-57.64-98.12-81.36-117.05-41.47-33.1-37.08-54.16-27.62-62.31,13.1-11.28,25.7-11.61,45.14-11.61a90.57,90.57,0,0,1,10.87.65c44,5.29,97,69.61,110.92,82,4.47,4,8.92,7.94,13.41,11.84A11.85,11.85,0,0,0,329.1,504L335,141.8c0-24.19,13.75-43.88,38-43.88s38,19.69,38,43.88l5.92,251.56a11.86,11.86,0,0,0,23.71,0L446.49,74c0-24.19,13.76-43.88,37.95-43.88S522.39,49.76,522.39,74l5.93,318.15a11.85,11.85,0,0,0,23.7,0L558,129.68c0-24.19,13.76-43.87,37.95-43.87s38,19.68,38,43.87l5.93,275.2a11.85,11.85,0,1,0,23.7,0l5.93-188c0-24.19,13.75-43.88,38-43.88s37.95,19.69,37.95,43.88L750,389q1.22,44.57-1.72,89.1l-5.25,79.66a557.76,557.76,0,0,1-54.14,205.5h0a106.07,106.07,0,0,1-94.33,60l-76.06.88A228.79,228.79,0,0,1,350,753Z" style="fill:#fff;stroke:#3a3632;stroke-miterlimit:10;stroke-width:20px"/><g id="layer2"><path id="path863" d="M500.31,927.82c-37.8,108.51-90,152.12-156.72,175C198.44,1152.67,45.5,1260.37,45.5,1462.28c0,199.79,183.46,392.45,454.81,396.19,271.34-3.74,454.8-196.4,454.8-396.19,0-201.91-152.94-309.61-298.09-359.45C590.34,1079.94,538.1,1036.33,500.31,927.82Z" style="fill:#fcecac;stroke:#3a3632;stroke-linecap:round;stroke-linejoin:round;stroke-opacity:0.983806014060974;stroke-width:20px;isolation:isolate;opacity:0.990000009536743"/><path id="path863-2" data-name="path863" d="M500.31,1010.67c-29.06,98.85-69.22,138.58-120.47,159.43-111.58,45.41-229.14,143.52-229.14,327.45,0,182,141,357.51,349.61,360.92,208.58-3.41,349.6-178.92,349.6-360.92,0-183.93-117.56-282-229.13-327.45C569.52,1149.25,529.36,1109.52,500.31,1010.67Z" style="fill:#fcecac;stroke:#3a3632;stroke-linecap:round;stroke-linejoin:round;stroke-opacity:0.983806014060974;stroke-width:20px;isolation:isolate;opacity:0.990000009536743"/><path id="path863-3" data-name="path863" d="M500.31,1094.39c-20.24,89.09-48.2,124.9-83.89,143.7-77.7,40.91-159.56,129.34-159.56,295.11,0,164,98.2,322.2,243.45,325.27,145.25-3.07,243.45-161.25,243.45-325.27,0-165.77-81.87-254.2-159.56-295.11C548.5,1219.29,520.54,1183.48,500.31,1094.39Z" style="fill:#fcecac;stroke:#3a3632;stroke-linecap:round;stroke-linejoin:round;stroke-opacity:0.983806014060974;stroke-width:20px;isolation:isolate;opacity:0.990000009536743"/><path id="path863-4" data-name="path863" d="M500.31,1239.42c-12.16,72.18-29,101.19-50.41,116.42C403.23,1389,354,1460.63,354,1594.94c0,132.89,59,261,146.27,263.53,87.26-2.49,146.26-130.64,146.26-263.53,0-134.31-49.18-206-95.86-239.1C529.26,1340.61,512.46,1311.6,500.31,1239.42Z" style="fill:#fcecac;stroke:#3a3632;stroke-linecap:round;stroke-linejoin:round;stroke-opacity:0.983806014060974;stroke-width:20px;isolation:isolate;opacity:0.990000009536743"/><path id="path863-5" data-name="path863" d="M500.31,1350.06c-25.16,150.66-86.58,181.68-86.58,292,0,109.14,34.92,214.39,86.58,216.43,51.65-2,86.57-107.29,86.57-216.43C586.88,1531.74,526.05,1504,500.31,1350.06Z" style="fill:#fcecac;stroke:#3a3632;stroke-linecap:round;stroke-linejoin:round;stroke-opacity:0.983806014060974;stroke-width:20px;isolation:isolate;opacity:0.990000009536743"/><g id="g908"><path id="path899" d="M501.39,1859.25l-1.08,107.87" style="fill:none;stroke:#3a3632;stroke-linecap:round;stroke-linejoin:round;stroke-opacity:0.983806014060974;stroke-width:20px;isolation:isolate;opacity:0.990000009536743"/><path id="path901" d="M486.2,1857.08,433,1950.9" style="fill:none;stroke:#3a3632;stroke-linecap:round;stroke-linejoin:round;stroke-opacity:0.983806014060974;stroke-width:20px;isolation:isolate;opacity:0.990000009536743"/><path id="path903" d="M486.2,1857.08,387,1899.35" style="fill:none;stroke:#3a3632;stroke-linecap:round;stroke-linejoin:round;stroke-opacity:0.983806014060974;stroke-width:20px;isolation:isolate;opacity:0.990000009536743"/></g><path id="path912" d="M516.58,1857.08l53.23,93.82" style="fill:none;stroke:#3a3632;stroke-linecap:round;stroke-linejoin:round;stroke-opacity:0.983806014060974;stroke-width:20px;isolation:isolate;opacity:0.990000009536743"/><path id="path914" d="M516.58,1857.08l99.24,42.27" style="fill:none;stroke:#3a3632;stroke-linecap:round;stroke-linejoin:round;stroke-opacity:0.983806014060974;stroke-width:20px;isolation:isolate;opacity:0.990000009536743"/></g></svg>