<svg id="Layer_1" data-name="Layer 1" xmlns="http://www.w3.org/2000/svg" viewBox="0 0 2000 2000"><path d="M518.65,773.66V573.28c0-23.72,18.41-42.94,41.13-42.94H1475c22.72,0,41.13,19.22,41.13,42.94V773.66" style="fill:#fff;stroke:#010101;stroke-miterlimit:15.118109703064;stroke-width:24px"/><circle cx="649.12" cy="633.08" r="38.03" style="fill:none;stroke:#010101;stroke-miterlimit:15.118109703064;stroke-width:24px"/><circle cx="775.38" cy="633.08" r="38.03" style="fill:none;stroke:#010101;stroke-miterlimit:15.118109703064;stroke-width:24px"/><circle cx="1010.11" cy="633.08" r="38.03" style="fill:none;stroke:#010101;stroke-miterlimit:15.118109703064;stroke-width:24px"/><rect x="460.5" y="773.66" width="1099.22" height="1194.59" rx="46.87" style="fill:#fff;stroke:#010101;stroke-miterlimit:15.118109703064;stroke-width:24px"/><line x1="464.59" y1="1744.48" x2="1555.63" y2="1744.48" style="fill:none;stroke:#010101;stroke-miterlimit:15.118109703064;stroke-width:24px"/><rect x="529.15" y="939.36" width="961.92" height="66.72" rx="14.31" style="fill:none;stroke:#010101;stroke-miterlimit:15.118109703064;stroke-width:24px"/><line x1="464.59" y1="863.04" x2="1555.63" y2="863.04" style="fill:none;stroke:#010101;stroke-miterlimit:15.118109703064;stroke-width:15.6222763817249px"/><line x1="612.89" y1="749.82" x2="930.94" y2="749.82" style="fill:none;stroke:#010101;stroke-linecap:round;stroke-miterlimit:15.118109703064;stroke-width:31.2445527634498px"/><line x1="1089.27" y1="749.82" x2="1407.33" y2="749.82" style="fill:none;stroke:#1c75bc;stroke-linecap:round;stroke-miterlimit:15.118109703064;stroke-width:31.2445527634498px"/><rect x="611.09" y="1082.4" width="798.03" height="585.76" rx="93.73" style="fill:#a6a8ab;stroke:#010101;stroke-miterlimit:15.118109703064;stroke-width:24px"/><line x1="613.42" y1="1490.36" x2="1410.75" y2="1490.36" style="fill:none;stroke:#010101;stroke-linecap:round;stroke-miterlimit:15.118109703064;stroke-width:24px"/><line x1="689.49" y1="1490.36" x2="689.49" y2="1659.3" style="fill:none;stroke:#010101;stroke-linecap:round;stroke-miterlimit:15.118109703064;stroke-width:24px"/><line x1="797.02" y1="1490.36" x2="797.02" y2="1659.3" style="fill:none;stroke:#010101;stroke-linecap:round;stroke-miterlimit:15.118109703064;stroke-width:24px"/><line x1="904.56" y1="1490.36" x2="904.56" y2="1659.3" style="fill:none;stroke:#010101;stroke-linecap:round;stroke-miterlimit:15.118109703064;stroke-width:24px"/><line x1="1012.09" y1="1490.36" x2="1012.09" y2="1659.3" style="fill:none;stroke:#010101;stroke-linecap:round;stroke-miterlimit:15.118109703064;stroke-width:24px"/><line x1="1119.63" y1="1490.36" x2="1119.63" y2="1659.3" style="fill:none;stroke:#010101;stroke-linecap:round;stroke-miterlimit:15.118109703064;stroke-width:24px"/><line x1="1227.16" y1="1490.36" x2="1227.16" y2="1659.3" style="fill:none;stroke:#010101;stroke-linecap:round;stroke-miterlimit:15.118109703064;stroke-width:24px"/><line x1="1334.7" y1="1490.36" x2="1334.7" y2="1659.3" style="fill:none;stroke:#010101;stroke-linecap:round;stroke-miterlimit:15.118109703064;stroke-width:24px"/><g id="layer5"><g id="g986"><path id="rect981" d="M1252.23,686.81V468.66m84.55,133.61-84.55,99.64-84.55-99.64" style="fill:none;stroke:#231f20;stroke-linecap:round;stroke-linejoin:round;stroke-width:24px"/></g></g><g id="layer3"><path id="path916" d="M1467,89.55,1552.4,99c33.37,3.71,33.6,54.87,3.65,65.67l-89,32.1Zm-437.48,0L944.19,99c-33.36,3.71-33.59,54.87-3.64,65.67l89,32.1ZM1467,23.79V365.94a62.8,62.8,0,0,1-62.94,62.94H1092.5a62.8,62.8,0,0,1-62.94-62.94V23.79Z" style="fill:#fff;stroke:#231f20;stroke-linecap:round;stroke-linejoin:round;stroke-width:24px"/></g></svg>