<svg xmlns="http://www.w3.org/2000/svg" viewBox="0 0 2000 1545"><g id="Layer_1" data-name="Layer 1"><path d="M80.05,291.24v-207c0-24.48,19-44.34,42.49-44.34H1067.8c23.46,0,42.49,19.86,42.49,44.34v207" style="fill:#fff;stroke:#000;stroke-miterlimit:15.118109703064;stroke-width:24px"/><circle cx="214.81" cy="146.05" r="39.28" style="fill:none;stroke:#000;stroke-miterlimit:15.118109703064;stroke-width:24px"/><circle cx="345.21" cy="146.05" r="39.28" style="fill:none;stroke:#000;stroke-miterlimit:15.118109703064;stroke-width:24px"/><circle cx="962.14" cy="146.05" r="39.28" style="fill:none;stroke:#000;stroke-miterlimit:15.118109703064;stroke-width:24px"/><circle cx="833.64" cy="146.05" r="39.28" style="fill:none;stroke:#000;stroke-miterlimit:15.118109703064;stroke-width:24px"/><circle cx="587.63" cy="146.05" r="39.28" style="fill:none;stroke:#000;stroke-miterlimit:15.118109703064;stroke-width:24px"/><rect x="20" y="291.24" width="1135.26" height="1233.76" rx="35.35" style="fill:#fff;stroke:#000;stroke-miterlimit:15.118109703064;stroke-width:24px"/><line x1="24.22" y1="1293.9" x2="1151.04" y2="1293.9" style="fill:none;stroke:#000;stroke-miterlimit:15.118109703064;stroke-width:24px"/><rect x="90.9" y="462.38" width="993.47" height="68.9" rx="14.78" style="fill:none;stroke:#000;stroke-miterlimit:15.118109703064;stroke-width:24px"/><line x1="24.22" y1="383.55" x2="1151.04" y2="383.55" style="fill:none;stroke:#000;stroke-miterlimit:15.118109703064;stroke-width:24px"/><line x1="177.38" y1="266.62" x2="505.87" y2="266.62" style="fill:none;stroke:#000;stroke-linecap:round;stroke-miterlimit:15.118109703064;stroke-width:23.5644733840131px"/><line x1="669.39" y1="266.62" x2="997.88" y2="266.62" style="fill:none;stroke:#000;stroke-linecap:round;stroke-miterlimit:15.118109703064;stroke-width:23.5644733840131px"/><rect x="175.53" y="610.11" width="824.2" height="604.97" rx="70.69" style="fill:#fff;stroke:#000;stroke-miterlimit:15.118109703064;stroke-width:24px"/><line x1="177.94" y1="1031.44" x2="1001.42" y2="1031.44" style="fill:none;stroke:#000;stroke-linecap:round;stroke-miterlimit:15.118109703064;stroke-width:24px"/><line x1="256.5" y1="1031.44" x2="256.5" y2="1205.92" style="fill:none;stroke:#000;stroke-linecap:round;stroke-miterlimit:15.118109703064;stroke-width:24px"/><line x1="367.56" y1="1031.44" x2="367.56" y2="1205.92" style="fill:none;stroke:#000;stroke-linecap:round;stroke-miterlimit:15.118109703064;stroke-width:24px"/><line x1="478.62" y1="1031.44" x2="478.62" y2="1205.92" style="fill:none;stroke:#000;stroke-linecap:round;stroke-miterlimit:15.118109703064;stroke-width:24px"/><line x1="589.68" y1="1031.44" x2="589.68" y2="1205.92" style="fill:none;stroke:#000;stroke-linecap:round;stroke-miterlimit:15.118109703064;stroke-width:24px"/><line x1="700.74" y1="1031.44" x2="700.74" y2="1205.92" style="fill:none;stroke:#000;stroke-linecap:round;stroke-miterlimit:15.118109703064;stroke-width:24px"/><line x1="811.8" y1="1031.44" x2="811.8" y2="1205.92" style="fill:none;stroke:#000;stroke-linecap:round;stroke-miterlimit:15.118109703064;stroke-width:24px"/><line x1="922.87" y1="1031.44" x2="922.87" y2="1205.92" style="fill:none;stroke:#000;stroke-linecap:round;stroke-miterlimit:15.118109703064;stroke-width:24px"/><path d="M1226.38,230.65c37.76-59.43,162.44-129.25,285.4-6.29l45.56,45.56" style="fill:none;stroke:#231f20;stroke-linecap:round;stroke-linejoin:round;stroke-width:24px"/><polyline points="1499.77 272.9 1563.85 276.43 1560.32 212.35" style="fill:none;stroke:#231f20;stroke-linecap:round;stroke-linejoin:round;stroke-width:24px"/></g><g id="Isolation_Mode" data-name="Isolation Mode"><path d="M1864.09,1334.25h-556.6c-13.89,0-25.38-10.12-25.38-22.84l55.15-350.67c.41-2.54,9.28-9.31,13.38-9.31h425.65c4.1,0,12.76,6.77,13.49,9.31l107,345.36C1896.82,1326.77,1884.59,1334.25,1864.09,1334.25Z" style="fill:#ef4136;stroke:#231f20;stroke-linecap:round;stroke-miterlimit:10;stroke-width:12px"/><path d="M1847.45,1300.92H1323.63c-1.67,0-2.88-1.12-2.69-2.5l43.5-327.4c.11-.79,1.21-1.43,2.47-1.43h394.95c1.26,0,2.45.64,2.65,1.43l85.31,327.4C1850.18,1299.8,1849.12,1300.92,1847.45,1300.92Z" style="fill:#ef4136;stroke:#231f20;stroke-linecap:round;stroke-miterlimit:10;stroke-width:12px"/><path d="M1221.05,1421.91c-5.2-13.48,25.72-44.84,68.35-70,42-24.73,80.83-34.84,87.51-22.7,6.81,12.4-22.26,43.47-65.7,69.53C1267.06,1425.28,1226.36,1435.69,1221.05,1421.91Z" style="fill:#ef4136;stroke:#231f20;stroke-linecap:round;stroke-miterlimit:10;stroke-width:12px"/><path d="M1374.7,1326.77s-35.18,28-70.62,49.12c-35.9,21.36-76.5,35.25-78.66,29.78" style="fill:#ef4136;stroke:#231f20;stroke-linecap:round;stroke-miterlimit:10;stroke-width:12px"/><path d="M1492.37,1293.05a.83.83,0,0,1-.82-.81c0-.89,0-2.28,0-4.11a.82.82,0,0,1,.81-.82h0a.82.82,0,0,1,.82.81c0,1.82,0,3.21,0,4.1a.82.82,0,0,1-.81.83Zm-.07-16.42h0a.83.83,0,0,1-.82-.83c0-1.31,0-2.69,0-4.11a.83.83,0,0,1,.83-.82h0a.84.84,0,0,1,.82.83c0,1.42,0,2.8,0,4.11A.82.82,0,0,1,1492.3,1276.63Zm.18-16.44h0a.82.82,0,0,1-.8-.84c0-1.35,0-2.72.08-4.11a.81.81,0,0,1,.82-.8h0a.82.82,0,0,1,.8.83c0,1.4-.06,2.76-.08,4.11A.83.83,0,0,1,1492.48,1260.19Zm.42-16.44h0a.81.81,0,0,1-.79-.85c0-1.35.09-2.73.14-4.11a.82.82,0,0,1,1.64.07c0,1.37-.1,2.74-.14,4.1A.82.82,0,0,1,1492.9,1243.75Zm.7-16.42h0a.82.82,0,0,1-.78-.86c.07-1.37.15-2.74.23-4.12a.82.82,0,0,1,1.64.1c-.08,1.37-.16,2.74-.23,4.1A.82.82,0,0,1,1493.6,1227.33Zm1.07-16.41h-.06a.83.83,0,0,1-.76-.88c.11-1.38.22-2.74.34-4.1a.81.81,0,0,1,.89-.75.83.83,0,0,1,.75.89c-.12,1.35-.23,2.72-.34,4.09A.82.82,0,0,1,1494.67,1210.92Zm1.58-16.36h-.1a.83.83,0,0,1-.72-.91c.16-1.38.33-2.75.5-4.09a.82.82,0,1,1,1.63.21c-.17,1.34-.34,2.69-.5,4.07A.81.81,0,0,1,1496.25,1194.56Zm2.37-16.26h-.15a.83.83,0,0,1-.66-1c.26-1.4.53-2.76.8-4a.82.82,0,1,1,1.6.33c-.26,1.28-.53,2.63-.78,4A.82.82,0,0,1,1498.62,1178.3Zm1.1-16.08a.82.82,0,0,1-.81-.7c-.19-1.24-.37-2.62-.55-4.09a.81.81,0,0,1,.72-.91.82.82,0,0,1,.91.71c.17,1.46.36,2.82.55,4a.82.82,0,0,1-.69.93Zm-1.69-16.34a.82.82,0,0,1-.82-.76c-.09-1.34-.19-2.71-.27-4.11a.82.82,0,1,1,1.64-.1c.08,1.4.17,2.76.27,4.09a.82.82,0,0,1-.76.88Zm-.85-16.4a.82.82,0,0,1-.82-.8c0-1.35-.09-2.73-.13-4.11a.82.82,0,0,1,.8-.84.81.81,0,0,1,.84.8c0,1.38.08,2.74.13,4.1a.83.83,0,0,1-.79.85Zm-.32-16.43a.82.82,0,0,1-.82-.81c0-.74,0-1.48,0-2.21s0-1.27,0-1.91a.82.82,0,0,1,.82-.82h0a.83.83,0,0,1,.82.83v4.1a.82.82,0,0,1-.82.82Zm.2-16.42h0a.82.82,0,0,1-.8-.85q.06-2.07.15-4.11a.82.82,0,1,1,1.64.07c-.06,1.35-.11,2.71-.15,4.09A.82.82,0,0,1,1497.06,1096.63Zm.89-16.4h-.07a.83.83,0,0,1-.75-.89c.12-1.43.24-2.81.38-4.11a.82.82,0,1,1,1.63.17c-.13,1.29-.26,2.66-.38,4.08A.82.82,0,0,1,1498,1080.23Zm2.24-16.26-.18,0a.84.84,0,0,1-.62-1c.32-1.39.67-2.64,1-3.71a.82.82,0,0,1,1.62-.26l.09.35-.09.24c-.36,1.06-.72,2.32-1,3.75A.82.82,0,0,1,1500.19,1064Zm-.07-16.2a.82.82,0,0,1-.82-.8c0-1.28-.06-2.67-.07-4.12a.82.82,0,0,1,1.64,0c0,1.45,0,2.83.07,4.09a.82.82,0,0,1-.8.84Zm0-16.44h0a.82.82,0,0,1-.8-.84c0-1.35.06-2.73.1-4.11a.82.82,0,0,1,.82-.8h0a.82.82,0,0,1,.8.85c0,1.38-.07,2.75-.1,4.1A.82.82,0,0,1,1500.15,1031.33Zm.55-16.43h0a.82.82,0,0,1-.78-.85c0-1.38.12-2.76.18-4.11a.82.82,0,0,1,.82-.79h0a.83.83,0,0,1,.78.86c-.06,1.36-.13,2.73-.18,4.11A.82.82,0,0,1,1500.7,1014.9Zm.82-16.42h0a.82.82,0,0,1-.77-.87c.08-1.41.16-2.79.23-4.1a.82.82,0,0,1,1.64.09c-.07,1.32-.15,2.69-.23,4.11A.83.83,0,0,1,1501.52,998.48Zm1-16.42h-.06a.82.82,0,0,1-.76-.87c.17-2.62.28-4.12.28-4.12a.83.83,0,0,1,.88-.76.81.81,0,0,1,.76.88s-.11,1.5-.29,4.11A.81.81,0,0,1,1502.54,982.06Z" style="fill:#fff"/><path d="M1669.24,1291.16a.82.82,0,0,1-.82-.76c-.08-1.1-.18-2.49-.3-4.11a.82.82,0,0,1,1.64-.13c.12,1.63.22,3,.3,4.12a.83.83,0,0,1-.76.88Zm-1.28-16.43a.83.83,0,0,1-.82-.75c-.1-1.32-.22-2.69-.34-4.1a.82.82,0,1,1,1.64-.14c.12,1.41.23,2.78.34,4.1a.83.83,0,0,1-.75.89Zm-1.45-16.4a.81.81,0,0,1-.81-.74c-.13-1.34-.26-2.71-.39-4.09a.82.82,0,1,1,1.63-.16c.14,1.38.27,2.75.39,4.1a.82.82,0,0,1-.74.89Zm-1.63-16.37a.81.81,0,0,1-.81-.73c-.15-1.36-.29-2.72-.44-4.09a.82.82,0,0,1,1.63-.18c.15,1.37.3,2.74.44,4.1a.82.82,0,0,1-.73.9Zm-1.85-16.34a.83.83,0,0,1-.82-.72c-.16-1.36-.33-2.72-.5-4.08a.82.82,0,0,1,.71-.92.84.84,0,0,1,.92.72c.17,1.35.34,2.72.5,4.08a.81.81,0,0,1-.71.91Zm-2.16-16.3a.83.83,0,0,1-.81-.71c-.2-1.36-.4-2.72-.6-4.06a.81.81,0,0,1,.69-.93.82.82,0,0,1,.94.69c.2,1.34.4,2.7.6,4.07a.83.83,0,0,1-.7.93Zm-2.61-16.24a.81.81,0,0,1-.8-.68c-.26-1.39-.51-2.74-.76-4a.81.81,0,0,1,.65-1,.82.82,0,0,1,1,.64c.25,1.3.51,2.66.76,4.06a.82.82,0,0,1-.66,1Zm-3.47-16.09a.8.8,0,0,1-.79-.61c-.38-1.4-.76-2.72-1.13-3.92a.82.82,0,0,1,.54-1,.83.83,0,0,1,1,.54c.38,1.22.76,2.56,1.14,4a.81.81,0,0,1-.58,1Zm-2.85-16a.82.82,0,0,1-.82-.79c-.07-1.38-.14-2.74-.21-4.09a.82.82,0,0,1,1.64-.09c.07,1.35.14,2.72.21,4.1a.82.82,0,0,1-.78.86Zm-.93-16.39a.83.83,0,0,1-.82-.77c-.09-1.38-.18-2.75-.28-4.09a.83.83,0,0,1,.77-.88.82.82,0,0,1,.87.76c.1,1.35.19,2.72.28,4.1a.82.82,0,0,1-.77.87Zm-1.24-16.37a.81.81,0,0,1-.81-.75c-.12-1.38-.25-2.74-.37-4.08a.82.82,0,1,1,1.63-.16c.13,1.35.25,2.71.37,4.1a.8.8,0,0,1-.74.88Zm-1.66-16.33a.82.82,0,0,1-.81-.73c-.16-1.37-.33-2.72-.5-4.06a.82.82,0,1,1,1.63-.21c.17,1.35.34,2.71.5,4.08a.82.82,0,0,1-.72.91Zm-2.22-16.26a.83.83,0,0,1-.81-.7c-.21-1.35-.43-2.7-.65-4a.82.82,0,0,1,1.62-.27c.22,1.34.44,2.7.65,4.06a.81.81,0,0,1-.68.94Zm-2.88-16.16a.81.81,0,0,1-.8-.66c-.27-1.34-.55-2.67-.83-4a.82.82,0,0,1,1.61-.34c.28,1.34.56,2.68.83,4a.81.81,0,0,1-.65,1A.44.44,0,0,1,1643,1079.44Zm-3.35-16a.83.83,0,0,1-.82-.77c-.09-1.38-.18-2.74-.28-4.09a.82.82,0,0,1,1.64-.12c.1,1.36.19,2.72.28,4.11a.83.83,0,0,1-.77.87Zm-1.24-16.38a.81.81,0,0,1-.81-.75c-.12-1.38-.25-2.74-.37-4.08a.82.82,0,1,1,1.64-.15c.12,1.34.24,2.71.36,4.09a.82.82,0,0,1-.75.89Zm-1.61-16.34a.81.81,0,0,1-.81-.73c-.15-1.39-.31-2.74-.46-4.08a.81.81,0,0,1,.72-.91.83.83,0,0,1,.91.72c.15,1.34.31,2.7.46,4.09a.82.82,0,0,1-.73.9Zm-2-16.3a.83.83,0,0,1-.82-.71c-.18-1.39-.37-2.75-.56-4.07a.82.82,0,1,1,1.62-.23c.19,1.32.38,2.68.57,4.07a.82.82,0,0,1-.7.93Zm-2.44-16.25a.81.81,0,0,1-.81-.68q-.36-2.13-.69-4.05a.82.82,0,0,1,1.62-.28c.22,1.28.45,2.64.69,4.06a.82.82,0,0,1-.68.94Zm-3-16.15a.82.82,0,0,1-.8-.66c-.54-2.6-.86-4-.87-4a.82.82,0,0,1,1.6-.38s.34,1.42.88,4a.82.82,0,0,1-.64,1Z" style="fill:#fff"/><path d="M1500.9,1064.72l-.49-.32a10.51,10.51,0,0,0-1.62-.83.82.82,0,0,1,.63-1.52,14.13,14.13,0,0,1,1.4.68,11.78,11.78,0,0,1,1.52-.84.82.82,0,0,1,.7,1.49,8.56,8.56,0,0,0-1.67,1Zm277.3-.19a.79.79,0,0,1-.4-.1,28,28,0,0,0-3.63-1.65.83.83,0,0,1-.48-1.06.82.82,0,0,1,1.06-.47,28.23,28.23,0,0,1,3.85,1.74.83.83,0,0,1,.31,1.12A.82.82,0,0,1,1778.2,1064.53Zm-409.83-2.15a.82.82,0,0,1-.79-.63.81.81,0,0,1,.6-1c1.2-.29,2.57-.57,4.08-.83a.82.82,0,1,1,.28,1.61c-1.47.26-2.81.54-4,.81A.69.69,0,0,1,1368.37,1062.38Zm276-.07a.82.82,0,0,1-.29-1.59c1.2-.46,2.53-.91,4-1.33a.82.82,0,0,1,.47,1.58c-1.38.41-2.67.84-3.84,1.29A.93.93,0,0,1,1644.41,1062.31Zm-11.4-.15a.83.83,0,0,1-.22,0c-1.23-.35-2.55-.69-3.94-1a.82.82,0,1,1,.37-1.59c1.41.32,2.76.67,4,1a.81.81,0,0,1,.56,1A.82.82,0,0,1,1633,1062.16Zm-145.87-1.35H1487c-1.26-.19-2.62-.37-4-.54a.82.82,0,0,1,.19-1.63c1.44.17,2.82.36,4.1.55a.83.83,0,0,1,.69.93A.82.82,0,0,1,1487.14,1060.81Zm27.41-.6a.82.82,0,0,1-.15-1.62c1.28-.24,2.65-.46,4.08-.68a.82.82,0,0,1,.24,1.62c-1.4.22-2.76.44-4,.67Zm-129.93-.23a.82.82,0,0,1-.81-.75.8.8,0,0,1,.73-.89c1.31-.13,2.69-.26,4.11-.37a.8.8,0,0,1,.88.75.81.81,0,0,1-.75.88c-1.4.12-2.77.24-4.08.37Zm378-.36h-.16c-1.28-.26-2.63-.51-4-.74a.82.82,0,1,1,.28-1.62c1.4.24,2.77.49,4.06.75a.82.82,0,0,1-.16,1.62Zm-291.78-.5h-.06l-4.09-.26a.83.83,0,0,1-.77-.87.81.81,0,0,1,.87-.77c1.39.08,2.76.17,4.1.27a.82.82,0,0,1,.77.87A.83.83,0,0,1,1470.8,1059.12Zm146.12-.17h-.12c-1.3-.18-2.66-.36-4.06-.53a.81.81,0,0,1-.71-.91.82.82,0,0,1,.91-.72c1.4.17,2.78.35,4.09.53a.82.82,0,0,1-.11,1.64Zm-215.91-.17a.82.82,0,0,1,0-1.64l4.11-.2a.82.82,0,0,1,.07,1.64l-4.1.2Zm259.31-.46a.82.82,0,0,1-.14-1.63c1.32-.22,2.69-.44,4.08-.63a.82.82,0,1,1,.23,1.62c-1.37.2-2.73.41-4,.63Zm-205.93,0h0l-4.1-.12a.82.82,0,0,1,0-1.64h0c1.39,0,2.76.07,4.12.12a.82.82,0,0,1,0,1.64Zm-37-.13a.82.82,0,0,1,0-1.64l4.11-.09a.83.83,0,1,1,0,1.65l-4.1.08Zm113.4-.1a.82.82,0,0,1-.08-1.64l4.11-.37a.82.82,0,0,1,.13,1.64c-1.38.11-2.74.24-4.08.37ZM1438,1058h0l-4.09,0a.83.83,0,0,1-.83-.82.82.82,0,0,1,.82-.82H1438a.83.83,0,0,1,0,1.65Zm162.62-.72h-.06c-1.35-.1-2.72-.19-4.09-.27a.82.82,0,0,1,.1-1.64q2.07.12,4.11.27a.82.82,0,0,1-.06,1.64Zm145.76-.07h-.1c-1.32-.15-2.69-.29-4.07-.42a.82.82,0,0,1,.16-1.64l4.1.43a.81.81,0,0,1,.72.9A.82.82,0,0,1,1746.34,1057.18Zm-199.12-.32a.82.82,0,0,1-.82-.78.8.8,0,0,1,.77-.86c1.36-.08,2.73-.14,4.12-.2a.83.83,0,0,1,.85.79.82.82,0,0,1-.78.85l-4.1.19Zm37-.43h0l-4.09-.1a.82.82,0,0,1-.81-.83.83.83,0,0,1,.84-.81l4.11.1a.82.82,0,0,1,0,1.64Zm92.44-.12a.82.82,0,0,1-.07-1.64l4.11-.32a.83.83,0,0,1,.87.76.81.81,0,0,1-.76.88l-4.08.32Zm-113,0a.82.82,0,0,1,0-1.64c1.37,0,2.75,0,4.12-.05h0a.82.82,0,0,1,0,1.64l-4.11,0Zm166.33-.5h0c-1.36-.08-2.72-.16-4.1-.22a.82.82,0,0,1,.08-1.64c1.38.06,2.75.14,4.11.22a.82.82,0,0,1,0,1.64Zm-37-.46a.82.82,0,0,1-.82-.8.81.81,0,0,1,.79-.84c1.36,0,2.74-.09,4.11-.12h0a.81.81,0,0,1,.82.8.82.82,0,0,1-.8.84c-1.37,0-2.74.07-4.09.12Zm20.53-.17h0l-4.1,0a.82.82,0,0,1-.82-.82.83.83,0,0,1,.83-.82h0l4.12,0a.82.82,0,0,1,0,1.64Z" style="fill:#fff"/><path d="M1654.7,1168.33a.81.81,0,0,1-.72-.43.82.82,0,0,1,.32-1.11,27.93,27.93,0,0,1,3.87-1.7.82.82,0,1,1,.56,1.54,27,27,0,0,0-3.64,1.6A.78.78,0,0,1,1654.7,1168.33Zm150.48-.23a.8.8,0,0,1-.3-.06,34.5,34.5,0,0,0-3.82-1.21.81.81,0,0,1-.58-1,.82.82,0,0,1,1-.59,35,35,0,0,1,4,1.28.83.83,0,0,1,.46,1.07A.82.82,0,0,1,1805.18,1168.1Zm-456.15,0a.82.82,0,0,1-.52-1.45,6.92,6.92,0,0,1,1.57-.92.82.82,0,1,1,.67,1.5,5.08,5.08,0,0,0-1.2.69A.84.84,0,0,1,1349,1168.1Zm148.19-2.15a.85.85,0,0,1-.31-.06,31.77,31.77,0,0,0-3.8-1.27.82.82,0,0,1-.57-1,.81.81,0,0,1,1-.57,33.82,33.82,0,0,1,4,1.33.82.82,0,0,1-.32,1.58Zm146.09-.17h-.16c-1.22-.24-2.57-.47-4-.7a.82.82,0,1,1,.26-1.62c1.46.23,2.83.47,4.08.71a.82.82,0,0,1-.16,1.62Zm-135.07-.75a.82.82,0,0,1-.19-1.62c1.22-.3,2.58-.6,4.06-.87a.82.82,0,1,1,.3,1.61c-1.44.27-2.78.56-4,.86Zm280.93-.48h-.12c-1.29-.19-2.66-.38-4.06-.56a.82.82,0,1,1,.21-1.63c1.41.19,2.79.37,4.09.56a.82.82,0,0,1-.12,1.64Zm-426.79-.11a.82.82,0,0,1-.13-1.63c1.28-.2,2.65-.4,4.09-.6a.83.83,0,0,1,.92.71.81.81,0,0,1-.7.92c-1.42.19-2.79.39-4,.59Zm308-.73a.82.82,0,0,1-.14-1.63c1.3-.23,2.67-.44,4.08-.65a.82.82,0,0,1,.93.7.81.81,0,0,1-.69.93c-1.39.2-2.75.41-4,.64Zm-43.36-.18H1627l-4.08-.4a.82.82,0,1,1,.15-1.63c1.4.12,2.76.26,4.1.39a.82.82,0,0,1-.09,1.64Zm145.82-.87h-.08l-4.08-.35a.83.83,0,0,1-.75-.89.81.81,0,0,1,.88-.75c1.39.11,2.76.23,4.1.36a.82.82,0,0,1-.07,1.64Zm-248.38-.15a.82.82,0,0,1-.82-.74.83.83,0,0,1,.74-.9c1.32-.13,2.7-.25,4.1-.37a.82.82,0,0,1,.14,1.64c-1.4.11-2.77.24-4.08.37Zm-145.77,0a.82.82,0,0,1-.08-1.63l4.1-.37a.82.82,0,0,1,.14,1.64l-4.09.36Zm102.53-.11h-.11c-1.28-.17-2.65-.33-4.06-.49a.82.82,0,0,1,.18-1.63c1.42.15,2.8.32,4.1.49a.82.82,0,0,1-.11,1.64Zm129.42-.18h-.05c-1.35-.09-2.71-.18-4.09-.25a.82.82,0,1,1,.09-1.64l4.11.25a.82.82,0,0,1-.06,1.64Zm76-.49a.83.83,0,0,1-.82-.76.82.82,0,0,1,.75-.88c1.32-.12,2.7-.22,4.11-.32a.83.83,0,0,1,.88.76.82.82,0,0,1-.76.87l-4.09.32Zm69.77-.26h0l-4.1-.22a.83.83,0,0,1-.78-.86.81.81,0,0,1,.86-.78l4.11.22a.83.83,0,0,1,.77.87A.82.82,0,0,1,1756.46,1161.44Zm-215.6-.07a.82.82,0,0,1-.82-.79.82.82,0,0,1,.78-.85c1.35-.07,2.72-.12,4.11-.18a.82.82,0,1,1,.06,1.64c-1.38.06-2.75.11-4.1.18Zm53.38,0h0l-4.1-.15a.81.81,0,0,1-.79-.85.8.8,0,0,1,.84-.79c1.38,0,2.75.09,4.11.15a.81.81,0,0,1,.79.85A.82.82,0,0,1,1594.24,1161.35Zm-199.16-.1a.82.82,0,0,1,0-1.64l4.1-.23a.83.83,0,0,1,.87.77.83.83,0,0,1-.78.87l-4.1.23Zm182.74-.35h0l-4.1-.05a.82.82,0,0,1,0-1.64l4.12,0a.82.82,0,0,1,0,1.64Zm-20.54,0a.82.82,0,0,1,0-1.64l4.12,0a.82.82,0,0,1,.82.82.81.81,0,0,1-.81.82l-4.1.05Zm-92.41,0h0c-1.34-.08-2.7-.16-4.09-.22a.83.83,0,0,1,.08-1.65l4.11.23a.82.82,0,0,1,.77.87A.81.81,0,0,1,1464.87,1160.86Zm238.22-.13a.83.83,0,0,1,0-1.65l4.11-.13h0a.82.82,0,0,1,0,1.64l-4.1.13Zm37,0h0l-4.09-.12a.82.82,0,1,1,0-1.64l4.11.12a.82.82,0,0,1,0,1.64Zm-328.55-.22a.83.83,0,0,1,0-1.65l4.11-.13h0a.82.82,0,0,1,0,1.64l-4.1.14Zm312.13-.07h-4.12a.82.82,0,0,1-.82-.82.83.83,0,0,1,.82-.83h4.12a.82.82,0,0,1,0,1.64Zm-275.17-.21h0l-4.1-.08a.83.83,0,0,1-.81-.83.84.84,0,0,1,.84-.81l4.11.07a.83.83,0,0,1,0,1.65Zm-20.53-.1a.83.83,0,0,1,0-1.65l4.1,0h0a.82.82,0,0,1,0,1.64l-4.1,0Z" style="fill:#fff"/><path d="M1583.27,769.47c158,0,270.18-31.62,312.25-96C1945.21,555,1959.05,563,1959.05,563c0-91.51-168.25-165.69-375.78-165.69S1207.49,471.47,1207.49,563c0,0,13.83-7.94,67,110.49C1316.54,737.85,1425.23,769.47,1583.27,769.47Z" style="fill:#fff;stroke:#231f20;stroke-miterlimit:10;stroke-width:12px"/><ellipse cx="1583.27" cy="538.28" rx="395.73" ry="163" style="fill:#fff;stroke:#231f20;stroke-miterlimit:10;stroke-width:12px"/><path d="M1932.67,528.53c0,72.48-156.43,131.24-349.4,131.24s-349.4-58.76-349.4-131.24" style="fill:#fff;stroke:#231f20;stroke-linecap:round;stroke-miterlimit:10;stroke-width:12px"/><path d="M1932.67,528.53c0-72.48-156.43-131.24-349.4-131.24s-349.4,58.76-349.4,131.24" style="fill:#fff;stroke:#231f20;stroke-linecap:round;stroke-miterlimit:10;stroke-width:24px"/><path d="M1838.07,528.4c-67-28.1-156.48-45.26-254.8-45.26-102.66,0-195.7,18.71-263.53,49" style="fill:#fff;stroke:#231f20;stroke-linecap:round;stroke-miterlimit:10;stroke-width:12px"/><path d="M1905.91,528.53c-52.63-57.93-177.27-98.65-322.64-98.65s-270,40.72-322.64,98.65a112.86,112.86,0,0,0-18.94,27.73c6.86,12,18.08,23.35,33,33.87,58.75,41.43,174.9,69.64,308.59,69.64s249.85-28.21,308.59-69.64c14.91-10.52,26.13-21.89,33-33.87A112.86,112.86,0,0,0,1905.91,528.53Z" style="fill:#f9d375;stroke:#231f20;stroke-linecap:round;stroke-miterlimit:10;stroke-width:12px"/><path id="path60" d="M1418.24,505.77a46.62,46.62,0,0,1-36,32.17,51.56,51.56,0,0,1-16.9.52A47,47,0,0,1,1328,509.82a44.86,44.86,0,0,1-3.07-24.53Z" style="fill:#c93c27;stroke:#000;stroke-width:6.86896186767551px"/><path id="path60-2" data-name="path60" d="M1402.66,504.11a33,33,0,0,1-25.46,22.75,36.27,36.27,0,0,1-11.94.37,33.19,33.19,0,0,1-26.4-20.25,31.79,31.79,0,0,1-2.18-17.35Z" style="fill:#dd694a"/><path d="M1335.49,501.27a30,30,0,0,0,8.49,15.52,37.5,37.5,0,0,0,15.35,9,38.54,38.54,0,0,0,24.5-.39,34.76,34.76,0,0,0,15.06-10.91" style="fill:none;stroke:#000;stroke-width:6.86896186767551px"/><path d="M1390.34,511.71c.81,2.45.18,4.85-2.26,5.65s-4.37-.76-5.17-3.21,1.56-7.78,1.56-7.78S1389.54,509.27,1390.34,511.71Z" style="fill:#f49662"/><path d="M1370.32,514.36c-.67,3.12-2.84,5.29-6,4.62s-4.19-3.55-3.52-6.67,6.54-7.34,6.54-7.34S1371,511.24,1370.32,514.36Z" style="fill:#f49662"/><path d="M1351.33,506.89c-1.53,2.11-3.86,3-6,1.5s-2-4-.44-6.14,7.31-3.34,7.31-3.34S1352.86,504.79,1351.33,506.89Z" style="fill:#f49662"/><path id="path60-3" data-name="path60" d="M1819.72,561.4a46.64,46.64,0,0,1-36,32.16,51.5,51.5,0,0,1-16.89.53,47,47,0,0,1-37.34-28.65,45,45,0,0,1-3.07-24.53Z" style="fill:#c93c27;stroke:#000;stroke-width:6.86896186767551px"/><path id="path60-4" data-name="path60" d="M1804.13,559.74a33,33,0,0,1-25.45,22.75,36.88,36.88,0,0,1-12,.37,33.28,33.28,0,0,1-26.4-20.26,31.69,31.69,0,0,1-2.17-17.35Z" style="fill:#dd694a"/><path d="M1737,556.89a30,30,0,0,0,8.49,15.52,37.51,37.51,0,0,0,15.36,9,38.51,38.51,0,0,0,24.49-.4,34.6,34.6,0,0,0,15.06-10.91" style="fill:none;stroke:#000;stroke-width:6.86896186767551px"/><path d="M1791.82,567.34c.8,2.44.18,4.84-2.27,5.64s-4.37-.76-5.17-3.2S1786,562,1786,562,1791,564.89,1791.82,567.34Z" style="fill:#f49662"/><path d="M1771.79,570c-.67,3.12-2.84,5.3-6,4.63s-4.2-3.55-3.53-6.67,6.54-7.35,6.54-7.35S1772.46,566.86,1771.79,570Z" style="fill:#f49662"/><path d="M1752.81,562.52c-1.53,2.11-3.87,3-6,1.49s-2-4-.43-6.14,7.3-3.33,7.3-3.33S1754.34,560.41,1752.81,562.52Z" style="fill:#f49662"/><path id="path60-5" data-name="path60" d="M1641.55,613a46.63,46.63,0,0,1-36,32.17,51.49,51.49,0,0,1-16.89.52,47,47,0,0,1-37.34-28.64,45.05,45.05,0,0,1-3.07-24.53Z" style="fill:#c93c27;stroke:#000;stroke-width:6.86896186767551px"/><path id="path60-6" data-name="path60" d="M1626,611.35a33,33,0,0,1-25.45,22.75,36.34,36.34,0,0,1-12,.37,33.22,33.22,0,0,1-26.4-20.25,31.69,31.69,0,0,1-2.17-17.35Z" style="fill:#dd694a"/><path d="M1558.79,608.51a30,30,0,0,0,8.49,15.52,37.6,37.6,0,0,0,15.36,9,38.51,38.51,0,0,0,24.49-.39,34.76,34.76,0,0,0,15.06-10.91" style="fill:none;stroke:#000;stroke-width:6.86896186767551px"/><path d="M1613.65,619c.8,2.45.18,4.85-2.27,5.65s-4.37-.76-5.17-3.21,1.57-7.78,1.57-7.78S1612.84,616.51,1613.65,619Z" style="fill:#f49662"/><path d="M1593.62,621.6c-.67,3.12-2.84,5.29-5.95,4.62s-4.2-3.55-3.53-6.67,6.54-7.34,6.54-7.34S1594.29,618.48,1593.62,621.6Z" style="fill:#f49662"/><path d="M1574.64,614.13c-1.53,2.11-3.87,3-6,1.5s-2-4-.43-6.14,7.3-3.34,7.3-3.34S1576.17,612,1574.64,614.13Z" style="fill:#f49662"/><path id="path60-7" data-name="path60" d="M1522.9,527a46.64,46.64,0,0,1-26.1,40.61,51.51,51.51,0,0,1-16.15,5A47,47,0,0,1,1437,555a44.8,44.8,0,0,1-9.5-22.82Z" style="fill:#c93c27;stroke:#000;stroke-width:6.86896186767551px"/><path id="path60-8" data-name="path60" d="M1507.44,529.57A33,33,0,0,1,1489,558.29a36.64,36.64,0,0,1-11.42,3.54,33.25,33.25,0,0,1-30.85-12.48,31.73,31.73,0,0,1-6.72-16.13Z" style="fill:#dd694a"/><path d="M1442,544.75a29.92,29.92,0,0,0,12.32,12.69,37.48,37.48,0,0,0,17.19,4.55,38.56,38.56,0,0,0,23.5-6.92,34.6,34.6,0,0,0,11.6-14.54" style="fill:none;stroke:#000;stroke-width:6.86896186767551px"/><path d="M1497.6,540.18c1.42,2.14,1.47,4.62-.68,6.05s-4.41.43-5.84-1.72-.56-7.91-.56-7.91S1496.17,538,1497.6,540.18Z" style="fill:#f49662"/><path d="M1479,548.07c.18,3.19-1.32,5.86-4.51,6s-5-2.3-5.18-5.49,4.35-8.82,4.35-8.82S1478.82,544.89,1479,548.07Z" style="fill:#f49662"/><path d="M1458.72,546c-.91,2.44-2.92,3.94-5.36,3s-3-3.36-2.06-5.8,6.15-5.17,6.15-5.17S1459.63,543.51,1458.72,546Z" style="fill:#f49662"/><path id="path60-9" data-name="path60" d="M1665.56,458.24A46.64,46.64,0,0,1,1635,495.61a51.53,51.53,0,0,1-16.61,3.15,47,47,0,0,1-41.34-22.49,44.93,44.93,0,0,1-6.85-23.75Z" style="fill:#c93c27;stroke:#000;stroke-width:6.86896186767551px"/><path id="path60-10" data-name="path60" d="M1649.9,459a33,33,0,0,1-21.6,26.44,36.84,36.84,0,0,1-11.75,2.22,33.27,33.27,0,0,1-29.23-15.9,31.73,31.73,0,0,1-4.84-16.8Z" style="fill:#dd694a"/><path d="M1583.11,466.66a29.89,29.89,0,0,0,10.8,14,37.57,37.57,0,0,0,16.56,6.47,38.54,38.54,0,0,0,24.14-4.2,34.74,34.74,0,0,0,13.18-13.12" style="fill:none;stroke:#000;stroke-width:6.86896186767551px"/><path d="M1638.92,468.44c1.17,2.3.93,4.76-1.36,5.94s-4.43-.08-5.6-2.37.33-7.93.33-7.93S1637.75,466.15,1638.92,468.44Z" style="fill:#f49662"/><path d="M1619.55,474.17c-.18,3.19-2,5.68-5.16,5.5s-4.7-2.85-4.52-6,5.32-8.27,5.32-8.27S1619.73,471,1619.55,474.17Z" style="fill:#f49662"/><path d="M1599.64,469.76c-1.19,2.32-3.35,3.58-5.67,2.4s-2.57-3.68-1.39-6,6.7-4.43,6.7-4.43S1600.82,467.43,1599.64,469.76Z" style="fill:#f49662"/><path d="M1352.05,583.87c16.29,4.17,23.78,14.22,31.37.26,6.27-11.55-7.66-25.08-24-29.25s-35,1-35.06,14.16C1324.36,584.93,1335.75,579.7,1352.05,583.87Z" style="fill:#302226;stroke:#231f20;stroke-miterlimit:10;stroke-width:12px"/><path d="M1689.21,616.73c16.28,4.2,23.74,14.28,31.37.33,6.3-11.53-7.6-25.1-23.89-29.31s-35,.93-35.09,14.07C1661.52,617.72,1672.92,612.52,1689.21,616.73Z" style="fill:#302226;stroke:#231f20;stroke-miterlimit:10;stroke-width:12px"/><path d="M1856.6,545.63c-16.69,2.16-27.36-4.42-29.25,11.36-1.56,13,16.39,20.47,33.07,18.32s32.17-13.88,27.35-26.11C1881.93,534.42,1873.28,543.48,1856.6,545.63Z" style="fill:#302226;stroke:#231f20;stroke-miterlimit:10;stroke-width:12px"/><path d="M1469.14,478.41c-16.68,2.15-27.35-4.42-29.24,11.36-1.56,13.05,16.39,20.47,33.07,18.32s32.17-13.89,27.34-26.11C1494.48,467.19,1485.83,476.26,1469.14,478.41Z" style="fill:#302226;stroke:#231f20;stroke-miterlimit:10;stroke-width:12px"/><path d="M1696.31,512.38c-16.68,2.15-27.35-4.42-29.24,11.36-1.57,13,16.39,20.47,33.07,18.32s32.16-13.89,27.34-26.11C1721.65,501.16,1713,510.23,1696.31,512.38Z" style="fill:#302226;stroke:#231f20;stroke-miterlimit:10;stroke-width:12px"/><path d="M1591.91,531.33c-15.72-6-22-16.81-31.14-3.8-7.54,10.76,4.77,25.79,20.49,31.77s34.91,3,36.44-10.1C1619.54,533.42,1607.63,537.32,1591.91,531.33Z" style="fill:#302226;stroke:#231f20;stroke-miterlimit:10;stroke-width:12px"/><path d="M1498.9,616.56c16.41,3.71,24.17,13.55,31.37-.62,6-11.71-8.35-24.85-24.76-28.57s-35,2-34.65,15.13C1471.26,618.39,1482.5,612.85,1498.9,616.56Z" style="fill:#302226;stroke:#231f20;stroke-miterlimit:10;stroke-width:12px"/><path d="M1819.25,531.65a3,3,0,0,1-3.73-1.56c-1.79-3.79.83-10.3,4-11.39,18.26-6.5,37.21-2.51,49,14,1.59,2.2-.17,5.65-1.4,8.38-.75,1.54-2.08,2.84-3.15,2.19-11.59-7.11-23.32-14.31-37.83-11.51C1823.37,532.27,1821,531.66,1819.25,531.65Z" style="fill:#fffce4;stroke:#231f20;stroke-miterlimit:10;stroke-width:6.5914346335541px"/><path d="M1702.57,562.09a3.82,3.82,0,0,0-4-.73c-3.27,1.51-3.92,6.66-1.66,8.75,13,12.22,31.37,18.34,49.13,13.61,2.39-.62,2.41-3.52,2.56-5.75,0-1.28-.53-2.67-1.75-2.75-13.33-.9-26.84-1.8-38.25-10.06A36.77,36.77,0,0,0,1702.57,562.09Z" style="fill:#fffce4;stroke:#231f20;stroke-miterlimit:10;stroke-width:6.5914346335541px"/><path d="M1426.51,507.31a3.82,3.82,0,0,0,3.32,2.3c3.6,0,6.32-4.45,5.12-7.29-6.83-16.49-21-29.62-39.18-32.63-2.43-.42-3.65,2.22-4.7,4.18-.57,1.15-.62,2.66.47,3.24,11.77,6.3,23.71,12.68,30.71,24.91A36.2,36.2,0,0,0,1426.51,507.31Z" style="fill:#fffce4;stroke:#231f20;stroke-miterlimit:10;stroke-width:6.5914346335541px"/><path d="M1685,478.63a3,3,0,0,1,4,.28c2.91,3,2.52,10-.11,12.06-15.21,12-34.45,14.32-50.93,2.52-2.22-1.57-1.66-5.41-1.36-8.39.21-1.7,1.05-3.35,2.27-3.08,13.26,3,26.68,6.06,39.53-1.25C1680.85,479.37,1683.26,479.19,1685,478.63Z" style="fill:#fffce4;stroke:#231f20;stroke-miterlimit:10;stroke-width:6.5914346335541px"/><path d="M1325.86,514.23a3.84,3.84,0,0,0-3.67,1.67c-1.81,3.12.61,7.71,3.66,8.13,17.67,2.53,36.22-3,48.05-17.06,1.6-1.88-.05-4.27-1.2-6.18-.7-1.07-2-1.88-3-1.25-11.43,6.92-23,13.93-37.09,13.72A36.06,36.06,0,0,0,1325.86,514.23Z" style="fill:#fffce4;stroke:#231f20;stroke-miterlimit:10;stroke-width:6.5914346335541px"/><path d="M1568,489a3,3,0,0,1,3.73,1.56c1.78,3.79-.83,10.29-4,11.38-18.26,6.51-37.22,2.51-49-14-1.59-2.2.16-5.66,1.4-8.38.75-1.55,2.08-2.84,3.14-2.19,11.59,7.1,23.33,14.31,37.84,11.51C1563.87,488.38,1566.2,489,1568,489Z" style="fill:#fffce4;stroke:#231f20;stroke-miterlimit:10;stroke-width:6.5914346335541px"/><path d="M1769.09,502.18a3.84,3.84,0,0,0,4,.73c3.27-1.51,3.92-6.66,1.66-8.75-13-12.22-31.37-18.34-49.13-13.62-2.39.63-2.42,3.53-2.56,5.76,0,1.28.53,2.67,1.75,2.75,13.33.9,26.83,1.8,38.25,10.06A37.12,37.12,0,0,0,1769.09,502.18Z" style="fill:#fffce4;stroke:#231f20;stroke-miterlimit:10;stroke-width:6.5914346335541px"/><path d="M1509.34,539.21a3.82,3.82,0,0,0-3.31-2.3c-3.6,0-6.32,4.46-5.12,7.29,6.83,16.49,21,29.63,39.18,32.63,2.43.42,3.65-2.22,4.7-4.18.56-1.15.61-2.66-.47-3.24-11.78-6.3-23.71-12.68-30.71-24.91C1512.27,542.16,1510.44,540.58,1509.34,539.21Z" style="fill:#fffce4;stroke:#231f20;stroke-miterlimit:10;stroke-width:6.5914346335541px"/><path d="M1621.06,572.4a3.8,3.8,0,0,0-3.79,1.38c-2.06,3,0,7.73,3,8.39,17.41,4,36.34-.07,49.27-13.13,1.75-1.75.3-4.26-.7-6.25-.61-1.13-1.81-2-2.91-1.49-12,6-24.05,12-38.07,10.68A35.87,35.87,0,0,0,1621.06,572.4Z" style="fill:#fffce4;stroke:#231f20;stroke-miterlimit:10;stroke-width:6.5914346335541px"/><g id="layer5"><line x1="1579.25" y1="893.53" x2="1579.25" y2="806.62" style="fill:none;stroke:#231f20;stroke-linecap:round;stroke-miterlimit:10;stroke-width:24px"/><polyline points="1614.9 858.39 1579.25 899.9 1543.6 858.39" style="fill:none;stroke:#231f20;stroke-linecap:round;stroke-miterlimit:10;stroke-width:24px"/></g></g></svg>