<svg xmlns="http://www.w3.org/2000/svg" viewBox="0 0 2000 1557.52"><g id="Layer_2" data-name="Layer 2"><path d="M752.72,690.53l-26.23-27.61A517.71,517.71,0,0,1,650.05,558.8c-22.24-39.81-52.89-90-74.65-107.39-38-30.37-34-49.69-25.34-57.17,12-10.35,23.58-10.66,41.42-10.66a83.86,83.86,0,0,1,10,.6c40.41,4.86,89,63.87,101.77,75.27,4.1,3.65,8.19,7.29,12.3,10.86a10.88,10.88,0,0,0,18-8.21L739,129.74c0-22.2,12.63-40.26,34.83-40.26s34.82,18.06,34.82,40.26l5.44,230.81a10.88,10.88,0,0,0,21.75,0l5.43-293.06c0-22.2,12.63-40.26,34.83-40.26s34.82,18.06,34.82,40.26l5.43,291.9a10.88,10.88,0,1,0,21.75,0l5.44-240.77c0-22.2,12.62-40.26,34.82-40.26s34.82,18.06,34.82,40.26l5.44,252.5a10.88,10.88,0,1,0,21.75,0l5.43-172.46c0-22.2,12.63-40.26,34.82-40.26s34.83,18.06,34.83,40.26l4.31,157.92q1.13,40.89-1.57,81.76l-4.82,73.08A511.74,511.74,0,0,1,1063.66,700h0a97.36,97.36,0,0,1-86.55,55l-69.79.8A209.92,209.92,0,0,1,752.72,690.53Z" style="fill:#fff;stroke:#231f20;stroke-miterlimit:10;stroke-width:24px"/><path d="M1417.21,1129.48c7.45,11.43,2.14,3.14,3.85,5.68l.14-.05.28-.1.57-.2,1.13-.4,2.27-.8,4.53-1.6,9.06-3.13,18-6.23c12.06-4,23.89-8.2,35.93-11.94,23.86-7.85,47.88-14.89,71.7-22q17.88-5.26,35.89-10c11.91-3.37,23.83-6.67,35.81-9.75,24-6.06,48-12.26,70.95-17.59L1781,1034c24.68-5.41,49.61-10,74-16.18s48.11-14.27,70.78-25.52c11.4-5.42,22.48-11.82,33.49-18.41,5.72-2.67,10.45-8.29,13.38-19.3a80.22,80.22,0,0,0,1.93-9.07l1.16-11.38v-.34a83.63,83.63,0,0,0-19-56.59l-.17-.21-7.79-8.39a82.44,82.44,0,0,0-7-6.08c-9-7-16.22-8.65-22.44-7.34-12.86,1.38-25.66,2.95-38.14,5.51-25.09,4.68-49.14,12.49-72.49,22.3s-46.18,21.11-69.26,31.64l-69.59,30.5c-24.49,11.64-47.16,24.19-69.67,37.46-11.26,6.59-22.45,13.3-33.51,20.22s-21.9,14.24-32.68,21.59c-21.64,14.55-42.51,30.34-62.79,46.71-10.07,8.3-20.07,16.61-29.67,25.47-4.84,4.34-9.59,8.82-14.28,13.32l-6.93,6.92-3.44,3.46-1.72,1.73-.85.87-.43.43-.22.21-.1.11C1415.22,1126.24,1409.83,1118,1417.21,1129.48Z" style="fill:#231f20"/><path d="M826.71,942.85c-443.23,0-802.54,104.24-802.54,209.33,19.85,81.41,76.67,195.7,145.26,248.07,55,37.65,295.74,130,657.24,130s606.25-92.39,661.24-130c68.59-52.37,125.41-166.66,145.26-248.07C1633.17,1047.09,1269.94,942.85,826.71,942.85Z" style="fill:#fff;stroke:#231f20;stroke-miterlimit:10;stroke-width:24px"/><path d="M78.78,1146.07c0,50.36,300.83,164.71,750.57,164.71s751.89-114.35,751.89-164.71" style="fill:none;stroke:#231f20;stroke-linecap:round;stroke-miterlimit:10;stroke-width:24px"/><circle cx="1393.32" cy="1103.92" r="15.9" style="fill:#231f20"/><circle cx="1493.66" cy="1142.08" r="15.9" style="fill:#231f20"/></g></svg>