<svg xmlns="http://www.w3.org/2000/svg" viewBox="0 0 800 2000"><g id="Layer_2" data-name="Layer 2"><path d="M325.69,647.88,301.14,622a484,484,0,0,1-71.52-97.42c-20.82-37.25-49.49-84.23-69.85-100.48-35.61-28.42-31.84-46.5-23.71-53.5,11.24-9.68,22.06-10,38.75-10a79.3,79.3,0,0,1,9.33.56C222,365.78,267.4,421,279.37,431.66c3.84,3.41,7.66,6.82,11.51,10.16a10.18,10.18,0,0,0,16.85-7.68l5.08-311c0-20.77,11.81-37.67,32.59-37.67S378,102.38,378,123.15l5.09,216a10.18,10.18,0,0,0,20.35,0L408.51,64.9c0-20.77,11.81-37.67,32.58-37.67s32.58,16.9,32.58,37.67L478.76,338a10.18,10.18,0,0,0,20.35,0l5.09-225.29C504.2,92,516,75.08,536.78,75.08s32.58,16.9,32.58,37.67L574.45,349a10.18,10.18,0,1,0,20.35,0l5.09-161.38c0-20.77,11.81-37.67,32.58-37.67s32.58,16.9,32.58,37.67l4,147.78q1,38.25-1.47,76.5l-4.51,68.38a478.74,478.74,0,0,1-46.48,176.43h0a91.06,91.06,0,0,1-81,51.51l-65.31.76A196.39,196.39,0,0,1,325.69,647.88Z" style="fill:#fff;stroke:#231f20;stroke-miterlimit:10;stroke-width:12px"/><path id="path900" d="M40.76,1857.34V1059c249.75,97,459.82,92.64,697.92,0v798.32h0c0,39.71-155.61,101.49-348.56,101.49S40.76,1897,40.76,1857.34Z" style="fill:#9b9ea9"/><path id="path900-2" data-name="path900" d="M40.76,1857.34V1059c249.75,97,459.82,92.64,697.92,0v798.32h0c0,39.71-155.61,101.49-348.56,101.49S40.76,1897,40.76,1857.34Z" style="fill:#929497"/><path id="path900-3" data-name="path900" d="M40.76,1722.39V1194.78c0,39.61,156.41,83.59,349.36,83.59s348.56-43.88,348.56-83.59v527.61c0,39.71-155.61,101.49-348.56,101.49S40.76,1762,40.76,1722.39Z" style="fill:#fff"/><path id="path900-4" data-name="path900" d="M40.76,1857.34V1059c249.75,97,459.82,92.64,697.92,0v798.32h0c0,39.71-155.61,101.49-348.56,101.49S40.76,1897,40.76,1857.34Z" style="fill:none;stroke:#000;stroke-linecap:round;stroke-linejoin:round;stroke-width:24px"/><path id="path900-5" data-name="path900" d="M738.68,1059c0,39.71-155.61,83.59-348.56,83.59s-349.36-44-349.36-83.59,155.55-90.58,348.5-90.58S738.68,1019.31,738.68,1059Z" style="fill:#929497"/><path d="M56,1081.05c43.69,32.29,176.75,61.56,334.16,61.56s289.86-29.19,333.39-61.5c-43.66-34-176.79-67.92-334.25-67.92S99.53,1047.07,56,1081.05Z" style="fill:#c93c27;stroke:#030506;stroke-linecap:round;stroke-linejoin:round;stroke-width:15.7058318123525px"/><path id="path900-6" data-name="path900" d="M738.68,1059c0,39.71-155.61,83.59-348.56,83.59s-349.36-44-349.36-83.59,155.55-90.58,348.5-90.58S738.68,1019.31,738.68,1059Z" style="fill:none;stroke:#000;stroke-linecap:round;stroke-linejoin:round;stroke-width:24px"/><g id="layer1"><path id="path60" d="M546.58,1597.87c15.53-31.41,14.34-54.83,14.34-64.81,0-118.31-62.8-181.11-168.22-171-32.36,3.34-38,16.35-52.11,24.69-9.8-7-43.17-21.75-64-24.69-111.58-9.53-173.82,53.83-173.82,171,0,104.86,85.79,190.09,229.34,190.09,33.64,0,62.49-1.4,90.83-12.89C480.12,1687.09,518.65,1654.36,546.58,1597.87Z" style="fill:#c93c27;stroke:#000;stroke-width:15.7058318123525px"/><path id="path924" d="M220.48,1415.83c-5.89-6.76-39.71,27.27-63.48,72.65-13.75,22.25,38,59.56,40.58,19.64,3.27-45.16,34.25-79.59,22.9-92.29Z" style="fill:#fff"/><path id="path920" d="M338.29,1375.26s-30.76-31.42-36-49.75c-.65,6.55.66,30.11,12.44,47.13,0,0-53.67,2.62-60.87,10.47,0,0,50.4,7.85,62.83,1.31,0,0-5.89,43.85,2.62,58.25,0,0,24.22-38,21.6-48.43,0,0,58.25,16.36,73.95,11.78-4.58-7.86-46.46-25.53-61.52-24.87,16.87-7.43,28.15-29.46,28.15-29.46S344.83,1372,338.29,1375.26Z" style="fill:#07a44a"/></g><g id="layer2"><g id="g990"><path id="path984" d="M536.53,1569.53h68.55v68.56H536.53Z" style="fill:#c93c27;stroke:#040306;stroke-linecap:round;stroke-linejoin:round;stroke-width:7.85291590617623px"/><path id="path986" d="M605.08,1569.53l36.81-21v68.55l-36.81,21Z" style="fill:#c93c27;stroke:#040306;stroke-linecap:round;stroke-linejoin:round;stroke-width:7.85291590617623px"/><path id="path988" d="M573.33,1548.56h68.56l-36.81,21H536.53Z" style="fill:#c93c27;stroke:#040306;stroke-linecap:round;stroke-linejoin:round;stroke-width:7.85291590617623px"/></g><g id="g982"><path id="rect957" d="M573.33,1627.17h68.56v68.55H573.33Z" style="fill:#c93c27;stroke:#040306;stroke-linecap:round;stroke-linejoin:round;stroke-width:7.85291590617623px"/><path id="path975" d="M641.89,1627.17l36.8-21v68.55l-36.8,21Z" style="fill:#c93c27;stroke:#040306;stroke-linecap:round;stroke-linejoin:round;stroke-width:7.85291590617623px"/><path id="path977" d="M610.14,1606.19h68.55l-36.8,21H573.33Z" style="fill:#c93c27;stroke:#040306;stroke-linecap:round;stroke-linejoin:round;stroke-width:7.85291590617623px"/></g><g id="g998"><path id="path992" d="M441.22,1659.06h68.56v68.56H441.22Z" style="fill:#c93c27;stroke:#040306;stroke-linecap:round;stroke-linejoin:round;stroke-width:7.85291590617623px"/><path id="path994" d="M509.78,1659.06l36.8-21v68.55l-36.8,21Z" style="fill:#c93c27;stroke:#040306;stroke-linecap:round;stroke-linejoin:round;stroke-width:7.85291590617623px"/><path id="path996" d="M478,1638.09h68.55l-36.8,21H441.22Z" style="fill:#c93c27;stroke:#040306;stroke-linecap:round;stroke-linejoin:round;stroke-width:7.85291590617623px"/></g></g><path id="path900-7" data-name="path900" d="M759,1002.61c7.33-19.83-125.18-93.72-299.55-158.18s-323.83-94.74-331.14-75,123.85,97.19,298.21,161.65S751.62,1022.44,759,1002.61Z" style="fill:#6d6e70;stroke:#000;stroke-linecap:round;stroke-linejoin:round;stroke-width:24px"/></g></svg>