<svg xmlns="http://www.w3.org/2000/svg" viewBox="0 0 2000 1790"><g id="Layer_2" data-name="Layer 2"><path d="M87.37,386.06V153.88c0-27.47,21.34-49.74,47.67-49.74H1195.52c26.32,0,47.66,22.27,47.66,49.74V386.06" style="fill:#fff;stroke:#000;stroke-miterlimit:15.118109703064;stroke-width:24px"/><circle cx="238.55" cy="223.18" r="44.07" style="fill:none;stroke:#000;stroke-miterlimit:15.118109703064;stroke-width:16.7326936631589px"/><circle cx="384.85" cy="223.18" r="44.07" style="fill:none;stroke:#000;stroke-miterlimit:15.118109703064;stroke-width:16.7326936631589px"/><circle cx="1076.98" cy="223.18" r="44.07" style="fill:none;stroke:#000;stroke-miterlimit:15.118109703064;stroke-width:16.7326936631589px"/><circle cx="932.81" cy="223.18" r="44.07" style="fill:none;stroke:#000;stroke-miterlimit:15.118109703064;stroke-width:16.7326936631589px"/><circle cx="656.82" cy="223.18" r="44.07" style="fill:none;stroke:#000;stroke-miterlimit:15.118109703064;stroke-width:16.7326936631589px"/><rect x="20" y="386.06" width="1273.64" height="1384.15" rx="46.47" style="fill:#fff;stroke:#000;stroke-miterlimit:15.118109703064;stroke-width:24px"/><line x1="24.74" y1="1510.95" x2="1288.91" y2="1510.95" style="fill:none;stroke:#000;stroke-miterlimit:15.118109703064;stroke-width:16px"/><rect x="99.54" y="578.07" width="1114.56" height="77.3" rx="16.58" style="fill:none;stroke:#000;stroke-miterlimit:15.118109703064;stroke-width:16.7326936631589px"/><line x1="24.74" y1="489.63" x2="1288.91" y2="489.63" style="fill:none;stroke:#000;stroke-miterlimit:15.118109703064;stroke-width:16.7326936631589px"/><line x1="196.57" y1="358.44" x2="565.1" y2="358.44" style="fill:none;stroke:#000;stroke-linecap:round;stroke-miterlimit:15.118109703064;stroke-width:33.4653873263177px"/><line x1="748.55" y1="358.44" x2="1117.08" y2="358.44" style="fill:none;stroke:#000;stroke-linecap:round;stroke-miterlimit:15.118109703064;stroke-width:33.4653873263177px"/><rect x="194.49" y="743.8" width="924.67" height="678.71" rx="92.95" style="fill:#fff;stroke:#000;stroke-miterlimit:15.118109703064;stroke-width:24px"/><line x1="197.19" y1="1216.5" x2="1121.05" y2="1216.5" style="fill:none;stroke:#000;stroke-linecap:round;stroke-miterlimit:15.118109703064;stroke-width:16px"/><line x1="285.32" y1="1216.5" x2="285.32" y2="1412.24" style="fill:none;stroke:#000;stroke-linecap:round;stroke-miterlimit:15.118109703064;stroke-width:16px"/><line x1="409.92" y1="1216.5" x2="409.92" y2="1412.24" style="fill:none;stroke:#000;stroke-linecap:round;stroke-miterlimit:15.118109703064;stroke-width:16px"/><line x1="534.52" y1="1216.5" x2="534.52" y2="1412.24" style="fill:none;stroke:#000;stroke-linecap:round;stroke-miterlimit:15.118109703064;stroke-width:16px"/><line x1="659.12" y1="1216.5" x2="659.12" y2="1412.24" style="fill:none;stroke:#000;stroke-linecap:round;stroke-miterlimit:15.118109703064;stroke-width:16px"/><line x1="783.72" y1="1216.5" x2="783.72" y2="1412.24" style="fill:none;stroke:#000;stroke-linecap:round;stroke-miterlimit:15.118109703064;stroke-width:16px"/><line x1="908.32" y1="1216.5" x2="908.32" y2="1412.24" style="fill:none;stroke:#000;stroke-linecap:round;stroke-miterlimit:15.118109703064;stroke-width:16px"/><line x1="1032.92" y1="1216.5" x2="1032.92" y2="1412.24" style="fill:none;stroke:#000;stroke-linecap:round;stroke-miterlimit:15.118109703064;stroke-width:16px"/><g id="layer5"><g id="g986"><path id="rect981" d="M1624.73,493l-82.09-124.8,136.5-60.66" style="fill:none;stroke:#231f20;stroke-linecap:round;stroke-linejoin:round;stroke-width:24px"/></g></g><path d="M1456.19,1194.62c216.56,63.54,443.63-60.51,507.17-277.07s-60.51-443.64-277.07-507.18L1553.12,371.3" style="fill:none;stroke:#231f20;stroke-linecap:round;stroke-linejoin:round;stroke-width:24px"/><path d="M754.8,116l22.65,128.25a32.06,32.06,0,0,0,30.21,21.28H1507a32.07,32.07,0,0,0,30.21-21.28L1559.83,116" style="fill:#fff;stroke:#231f20;stroke-linecap:round;stroke-linejoin:round;stroke-width:24px"/><path d="M1572.45,112.69,1434.26,22.5a16.68,16.68,0,0,0-9.12-2.71H889.49a16.73,16.73,0,0,0-9.13,2.71L742.18,112.69a16.7,16.7,0,0,0-7.57,14v3.81a16.7,16.7,0,0,0,16.7,16.69h812a16.7,16.7,0,0,0,16.7-16.69v-3.81A16.7,16.7,0,0,0,1572.45,112.69Z" style="fill:#fff;stroke:#231f20;stroke-linecap:round;stroke-linejoin:round;stroke-width:24px"/><line x1="777.8" y1="117.63" x2="1536.83" y2="117.63" style="fill:#fff;stroke:#231f20;stroke-linecap:round;stroke-linejoin:round;stroke-width:15.0435986831265px"/><polygon points="1409.76 62.13 901.04 62.13 821.78 117.63 1488.13 117.63 1409.76 62.13" style="fill:#785d42;stroke:#231f20;stroke-linecap:round;stroke-linejoin:round;stroke-width:15.0435986831265px"/><path d="M1325.61,90c-22.23,7.61-48.18,8.49-72.76,6.2s-48.34-7.55-72.39-11.75c-63.28-11-132-14.38-192.44,2.61-6.39,1.8-13.81,5.23-12.5,9.92.9,3.24,5.72,5.17,10.23,6.24,21.41,5.1,44.78.52,66.7-3.42s46.42-7,66.23.61" style="fill:none;stroke:#231f20;stroke-linecap:round;stroke-linejoin:round;stroke-width:15.0435986831265px"/></g></svg>