<svg xmlns="http://www.w3.org/2000/svg" height="1923.98" width="1718.3"  xmlns:v="https://vecta.io/nano"><path d="M859.8 1911.98c389.35 0 846.5-207.16 846.5-677.75 0-110.85-379-212.73-846.5-212.73h-1.3C391 1021.5 12 1123.38 12 1234.23c0 470.6 457.15 677.75 846.5 677.75" fill="#fff" stroke="#231f20" stroke-width="24" stroke-miterlimit="10"/><path d="M854.7 1724.6v-152.47q-42.57 32.68-57.3 32.68a17 17 0 0 1-12.49-5.61 18.1 18.1 0 0 1-5.44-13q0-8.55 5.36-12.57 5.36-4.02 18.94-10.4 20.26-9.55 32.42-20.1a137.24 137.24 0 0 0 21.54-23.63q9.38-13.06 12.23-16.08 2.85-3.02 10.72-3a17.19 17.19 0 0 1 14.25 6.87q5.35 6.87 5.36 18.94v191.87q0 33.7-23 33.68-10.2 0-16.42-6.87-6.2-6.87-6.16-20.3z" fill="#231f20"/><g stroke="#231f20" stroke-width="24" stroke-miterlimit="10"><path d="M1651.52 1227.78c0 53.12-354.44 131.83-791.67 131.83h-1.4c-437.23 0-791.67-78.7-791.67-131.83" fill="none" stroke-linecap="round"/><path d="M759.15 847.5l-33-34.78a651.21 651.21 0 0 1-96.28-131.15c-28-50.14-66.62-113.4-94-135.26-47.93-38.26-42.85-62.6-31.92-72 15.14-13 29.7-13.42 52.17-13.42a104.24 104.24 0 0 1 12.56.75c50.9 6.12 112.08 80.45 128.2 94.8l15.5 13.7a13.7 13.7 0 0 0 22.68-10.34l6.73-418.66c0-28 15.9-50.7 43.86-50.7s43.87 22.7 43.87 50.7l6.85 290.74a13.7 13.7 0 1 0 27.39 0L870.6 62.7c0-28 15.9-50.7 43.87-50.7s43.86 22.75 43.86 50.7l6.82 367.67a13.7 13.7 0 1 0 27.39 0l6.88-303.26c0-28 15.9-50.7 43.86-50.7s43.87 22.7 43.87 50.7l6.84 318a13.7 13.7 0 1 0 27.4 0l6.84-217.25c0-28 15.9-50.7 43.87-50.7s43.86 22.75 43.86 50.7l5.44 198.93q1.4 51.5-2 103l-6.07 92.06a644.46 644.46 0 0 1-62.57 237.5h0a122.6 122.6 0 0 1-109 69.35l-87.92 1a264.43 264.43 0 0 1-194.69-82.22z" fill="#fff"/></g></svg>