<svg id="Layer_1" data-name="Layer 1" xmlns="http://www.w3.org/2000/svg" width="2000" height="1478.22" viewBox="0 0 2000 1478.22">
  <g>
    <path d="M104.44,1421.84h1794c56.48,0,88.59-45.56,72.24-100.08l-93-309.81c-13-43.18-62.27-77.25-110.48-77.25H235.65c-48.22,0-97.53,34.07-110.49,77.25l-93,309.81C15.85,1376.28,48,1421.84,104.44,1421.84Z" style="fill: #fff;stroke: #3a3632;stroke-miterlimit: 10;stroke-width: 24px"/>
    <path d="M184.26,1266c26.52,0,53-20.54,59.06-45.53l35.81-147.8c5.41-22.33-10.19-40.19-34.76-40.19s-49.37,17.86-55.45,40.19l-40.29,147.8C141.82,1245.42,157.73,1266,184.26,1266Z" style="fill: #fff;stroke: #3a3632;stroke-miterlimit: 10;stroke-width: 24px"/>
  </g>
  <g id="layer1">
    <path id="path60" d="M1321,1194.22c-.61-36,.92-72.8,4.11-89.35,17.19-147.23-97-229.35-308.3-229.35-189,0-349.48,146.28-342.67,302.6C856,1284.24,1236.2,1245.87,1321,1194.22Z" style="fill: #ba2115;stroke: #3a3632;stroke-linecap: round;stroke-width: 19px"/>
  </g>
  <path d="M843.79,754.51,815.2,724.42a564.4,564.4,0,0,1-83.31-113.48c-24.25-43.39-57.64-98.11-81.36-117-41.47-33.1-37.08-54.16-27.62-62.31C636,420.31,648.6,420,668.05,420a90.59,90.59,0,0,1,10.87.66c44,5.29,97,69.61,110.92,82,4.47,4,8.92,7.94,13.4,11.84a11.86,11.86,0,0,0,19.63-8.95l5.92-362.24c0-24.2,13.76-43.88,38-43.88s38,19.68,38,43.88l5.93,251.56a11.85,11.85,0,1,0,23.7,0l5.93-319.41c0-24.2,13.75-43.88,38-43.88s37.95,19.68,37.95,43.88l5.93,318.15a11.85,11.85,0,1,0,23.7,0l5.93-262.42c0-24.19,13.75-43.88,38-43.88s37.95,19.69,37.95,43.88l5.93,275.2a11.85,11.85,0,1,0,23.7,0l5.93-188c0-24.19,13.75-43.88,38-43.88s37.95,19.69,37.95,43.88l4.71,172.12q1.21,44.58-1.72,89.11l-5.26,79.66a557.61,557.61,0,0,1-54.13,205.5h0a106.09,106.09,0,0,1-94.33,60l-76.07.88A228.81,228.81,0,0,1,843.79,754.51Z" style="fill: #fff;stroke: #3a3632;stroke-miterlimit: 10;stroke-width: 20px"/>
</svg>
