<svg id="Layer_1" data-name="Layer 1" xmlns="http://www.w3.org/2000/svg" xmlns:xlink="http://www.w3.org/1999/xlink" viewBox="0 0 2000 1473.23"><defs><linearGradient id="linear-gradient" x1="17506.06" y1="-11430.05" x2="17506.06" y2="-11702.86" gradientTransform="translate(-10729.05 -16297.38) rotate(89.09)" gradientUnits="userSpaceOnUse"><stop offset="0.22" stop-color="#3e914e"/><stop offset="0.36" stop-color="#2c8548"/><stop offset="0.58" stop-color="#177740"/><stop offset="0.8" stop-color="#0a6f3c"/><stop offset="1" stop-color="#066c3a"/></linearGradient><linearGradient id="linear-gradient-2" x1="1335.3" y1="633.65" x2="1335.3" y2="535.47" gradientTransform="matrix(0, 1, -1.1, 0, 1879.26, -314.84)" gradientUnits="userSpaceOnUse"><stop offset="0" stop-color="#81be66"/><stop offset="1" stop-color="#006838"/></linearGradient><linearGradient id="linear-gradient-3" x1="17300.8" y1="-11426.04" x2="17313.31" y2="-11526.09" gradientTransform="translate(-7867.45 -17716.56) rotate(97.9)" gradientUnits="userSpaceOnUse"><stop offset="0" stop-color="#608c50"/><stop offset="1" stop-color="#006838"/></linearGradient><linearGradient id="linear-gradient-4" x1="17493.25" y1="-10819.74" x2="17493.25" y2="-11092.55" xlink:href="#linear-gradient"/><linearGradient id="linear-gradient-5" x1="730.64" y1="709.72" x2="730.64" y2="611.53" gradientTransform="matrix(0, 1, -1.1, 0, 1352.69, 286.67)" xlink:href="#linear-gradient-2"/><linearGradient id="linear-gradient-6" x1="17381.6" y1="-10820.96" x2="17394.11" y2="-10921.01" xlink:href="#linear-gradient-3"/><linearGradient id="linear-gradient-7" x1="17772.23" y1="-10697.86" x2="17772.23" y2="-10970.66" gradientTransform="translate(-5703.79 -18603.58) rotate(104.36)" xlink:href="#linear-gradient"/><linearGradient id="linear-gradient-8" x1="654.41" y1="977.01" x2="654.41" y2="878.82" gradientTransform="matrix(0, 1, -1.1, 0, 1526.66, 674.81)" xlink:href="#linear-gradient-2"/><linearGradient id="linear-gradient-9" x1="17675.95" y1="-10743.23" x2="17688.45" y2="-10843.28" gradientTransform="translate(-2569.52 -19219.34) rotate(113.16)" xlink:href="#linear-gradient-3"/><linearGradient id="linear-gradient-10" x1="17715.79" y1="-11615.86" x2="17715.79" y2="-12057.47" gradientTransform="translate(-11828.21 -15568.48) rotate(84.98)" gradientUnits="userSpaceOnUse"><stop offset="0" stop-color="#0f723d"/><stop offset="1" stop-color="#006838"/></linearGradient><linearGradient id="linear-gradient-11" x1="17683.82" y1="-11648.16" x2="17685.44" y2="-11766.53" gradientTransform="translate(-11828.21 -15568.48) rotate(84.98)" gradientUnits="userSpaceOnUse"><stop offset="0" stop-color="#53804a"/><stop offset="1" stop-color="#006838"/></linearGradient><linearGradient id="linear-gradient-12" x1="17748.2" y1="-11647.28" x2="17749.82" y2="-11765.65" xlink:href="#linear-gradient-11"/><linearGradient id="linear-gradient-13" x1="16955.31" y1="-11039.83" x2="16955.31" y2="-11330.55" gradientTransform="translate(-7084.3 -17613.63) rotate(100.35)" xlink:href="#linear-gradient"/><linearGradient id="linear-gradient-14" x1="16988.06" y1="-11126.32" x2="17001.04" y2="-11230.1" gradientTransform="translate(-7084.3 -17613.63) rotate(100.35)" xlink:href="#linear-gradient-3"/><linearGradient id="linear-gradient-15" x1="879.57" y1="197.18" x2="879.57" y2="92.54" gradientTransform="matrix(0, 1, -1.1, 0, 1158.66, 218.58)" xlink:href="#linear-gradient-2"/><linearGradient id="linear-gradient-16" x1="17619.4" y1="-11486.92" x2="17619.4" y2="-11759.72" gradientTransform="matrix(-0.04, 1, -1, -0.04, -9671.16, -16967.53)" xlink:href="#linear-gradient"/><linearGradient id="linear-gradient-17" x1="1409.37" y1="726.99" x2="1409.37" y2="628.8" gradientTransform="matrix(0, 1, -1.1, 0, 2041.53, -262.93)" xlink:href="#linear-gradient-2"/><linearGradient id="linear-gradient-18" x1="17404.1" y1="-11499.59" x2="17416.6" y2="-11599.64" gradientTransform="translate(-6730.27 -18214.12) rotate(101.31)" xlink:href="#linear-gradient-3"/><linearGradient id="linear-gradient-19" x1="17617.89" y1="-10897.21" x2="17617.89" y2="-11170.01" gradientTransform="matrix(-0.04, 1, -1, -0.04, -9671.16, -16967.53)" xlink:href="#linear-gradient"/><linearGradient id="linear-gradient-20" x1="826.84" y1="810.22" x2="826.84" y2="712.03" gradientTransform="matrix(0, 1, -1.1, 0, 1544.22, 292.38)" xlink:href="#linear-gradient-2"/><linearGradient id="linear-gradient-21" x1="17492.91" y1="-10916.6" x2="17505.42" y2="-11016.65" gradientTransform="translate(-6730.27 -18214.12) rotate(101.31)" xlink:href="#linear-gradient-3"/><linearGradient id="linear-gradient-22" x1="17872.19" y1="-11744.19" x2="17872.19" y2="-12185.79" gradientTransform="translate(-10811.69 -16305.24) rotate(88.39)" xlink:href="#linear-gradient-10"/><linearGradient id="linear-gradient-23" x1="17840.21" y1="-11776.49" x2="17841.83" y2="-11894.86" gradientTransform="translate(-10811.69 -16305.24) rotate(88.39)" xlink:href="#linear-gradient-11"/><linearGradient id="linear-gradient-24" x1="17904.59" y1="-11775.61" x2="17906.21" y2="-11893.98" gradientTransform="translate(-10811.69 -16305.24) rotate(88.39)" xlink:href="#linear-gradient-11"/><linearGradient id="linear-gradient-25" x1="17077.3" y1="-11093.33" x2="17077.3" y2="-11384.04" gradientTransform="translate(-1798.18 -19071.92) rotate(115.84)" xlink:href="#linear-gradient"/><linearGradient id="linear-gradient-26" x1="17110.05" y1="-11179.82" x2="17123.02" y2="-11283.6" gradientTransform="translate(-1798.18 -19071.92) rotate(115.84)" xlink:href="#linear-gradient-3"/><linearGradient id="linear-gradient-27" x1="951.68" y1="298.74" x2="951.68" y2="194.11" gradientTransform="matrix(0, 1, -1.1, 0, 1260.44, 300.4)" xlink:href="#linear-gradient-2"/><linearGradient id="linear-gradient-28" x1="17215.23" y1="-11021.8" x2="17215.23" y2="-11312.52" gradientTransform="translate(-9304.77 -16598.26) rotate(93.64)" xlink:href="#linear-gradient"/><linearGradient id="linear-gradient-29" x1="17247.98" y1="-11108.29" x2="17260.95" y2="-11212.07" gradientTransform="translate(-9304.77 -16598.26) rotate(93.64)" xlink:href="#linear-gradient-3"/><linearGradient id="linear-gradient-30" x1="902.87" y1="432.51" x2="902.87" y2="327.88" gradientTransform="matrix(0, 1, -1.1, 0, 1294.77, 395.93)" xlink:href="#linear-gradient-2"/><linearGradient id="linear-gradient-31" x1="17803.25" y1="-11406.14" x2="17803.25" y2="-11678.94" gradientTransform="matrix(-0.04, 1, -1, -0.04, -9671.16, -16967.53)" xlink:href="#linear-gradient"/><linearGradient id="linear-gradient-32" x1="1358.68" y1="903.2" x2="1358.68" y2="805.02" gradientTransform="matrix(0, 1, -1.1, 0, 2147.12, -32.1)" xlink:href="#linear-gradient-2"/><linearGradient id="linear-gradient-33" x1="17598.15" y1="-11447.92" x2="17610.65" y2="-11547.96" gradientTransform="translate(-6730.27 -18214.12) rotate(101.31)" xlink:href="#linear-gradient-3"/><linearGradient id="linear-gradient-34" x1="18035.39" y1="-11518.81" x2="18035.39" y2="-11960.41" gradientTransform="translate(-4521.62 -19329.33) rotate(107.01)" xlink:href="#linear-gradient-10"/><linearGradient id="linear-gradient-35" x1="18003.42" y1="-11551.11" x2="18005.04" y2="-11669.48" gradientTransform="translate(-4521.62 -19329.33) rotate(107.01)" xlink:href="#linear-gradient-11"/><linearGradient id="linear-gradient-36" x1="18067.8" y1="-11550.23" x2="18069.42" y2="-11668.6" gradientTransform="translate(-4521.62 -19329.33) rotate(107.01)" xlink:href="#linear-gradient-11"/></defs><path d="M93.44,1436.85h1794c56.48,0,88.59-45.56,72.24-100.08l-93-309.81c-13-43.18-62.27-77.25-110.48-77.25H224.65c-48.22,0-97.53,34.07-110.49,77.25l-93,309.81C4.85,1391.29,37,1436.85,93.44,1436.85Z" style="fill:#fff;stroke:#231f20;stroke-miterlimit:10;stroke-width:24px"/><path d="M173.26,1281c26.52,0,53-20.54,59.06-45.53l35.81-147.8c5.41-22.34-10.19-40.19-34.76-40.19s-49.37,17.85-55.45,40.19l-40.29,147.8C130.82,1260.43,146.73,1281,173.26,1281Z" style="fill:#fff;stroke:#231f20;stroke-miterlimit:10;stroke-width:24px"/><path d="M1016.34,969.44l232.18-1.66L1230,1074.49,989,1080.4C965.75,1046.35,976.21,989.35,1016.34,969.44Z" style="stroke:#231f20;stroke-linejoin:round;stroke-width:24px;fill:url(#linear-gradient)"/><ellipse cx="1234.51" cy="1020.45" rx="54.13" ry="21.66" transform="translate(48.57 2096.96) rotate(-81.81)" style="stroke:#231f20;stroke-linejoin:round;stroke-width:24px;fill:url(#linear-gradient-2)"/><path d="M1065.48,1024.4c20.43,4.25,42.47,7.34,63.11,4,33.9-5.54,51-25.76,50.65-27.35.42-1.57-15.38-22.8-48.88-30.4-20.39-4.62-42.59-2.88-63.24.1" style="stroke:#231f20;stroke-linecap:round;stroke-linejoin:round;stroke-width:24px;fill:url(#linear-gradient-3)"/><path d="M405.9,966.3l232.18-1.66-18.57,106.71-240.92,5.91C355.32,1043.22,365.77,986.21,405.9,966.3Z" style="stroke:#231f20;stroke-linejoin:round;stroke-width:24px;fill:url(#linear-gradient-4)"/><ellipse cx="624.07" cy="1017.31" rx="54.13" ry="21.66" transform="translate(-471.78 1490.06) rotate(-81.81)" style="stroke:#231f20;stroke-linejoin:round;stroke-width:24px;fill:url(#linear-gradient-5)"/><path d="M455,1021.27c20.43,4.24,42.48,7.33,63.11,4,33.91-5.54,51-25.76,50.65-27.35.42-1.57-15.38-22.79-48.88-30.4-20.39-4.62-42.59-2.88-63.24.1" style="stroke:#231f20;stroke-linecap:round;stroke-linejoin:round;stroke-width:24px;fill:url(#linear-gradient-6)"/><path d="M306.26,1222.57l224.42,59.52-46,98.05-234-57.72C237.21,1283.45,262.31,1231.21,306.26,1222.57Z" style="stroke:#231f20;stroke-linejoin:round;stroke-width:24px;fill:url(#linear-gradient-7)"/><ellipse cx="503.3" cy="1329.21" rx="54.13" ry="21.66" transform="translate(-916.41 1261.86) rotate(-66.54)" style="stroke:#231f20;stroke-linejoin:round;stroke-width:24px;fill:url(#linear-gradient-8)"/><path d="M339.19,1288.53c18.6,9.47,39.05,18.26,59.85,20.44,34.16,3.58,55.95-11.43,56.06-13,.82-1.41-8.84-26-39.15-42.19-18.46-9.84-40.33-14-61-16.56" style="stroke:#231f20;stroke-linecap:round;stroke-linejoin:round;stroke-width:24px;fill:url(#linear-gradient-9)"/><path d="M1319.74,1003.9,1527,987.52l205.25,37h0l-195.66,72.19-228.39,22.06C1283.43,1081.93,1290.63,1032.65,1319.74,1003.9Z" style="stroke:#231f20;stroke-linejoin:round;stroke-width:24px;fill:url(#linear-gradient-10)"/><path d="M1653.05,1059.65c22.11,1.48,45.8,1.69,67.26-4,35.25-9.32,51-30.33,50.47-31.79.27-1.52-18.9-19.47-55.23-22.5-22.12-1.85-45.42,2.49-66.94,7.8" style="fill:#006838;stroke:#231f20;stroke-linecap:round;stroke-linejoin:round;stroke-width:24px"/><path d="M1586.14,1042.5c22.48-.38,46.46-2.17,67.7-9.63,34.9-12.25,49.13-34.53,48.48-35.93.14-1.54-20.68-17.82-57.66-17.79-22.52,0-45.73,6.3-67.06,13.41" style="fill:#006838;stroke:#231f20;stroke-linecap:round;stroke-linejoin:round;stroke-width:24px"/><path d="M1576.3,1090c24.12,3,50.07,4.77,74,.56,39.35-6.93,58.24-26.83,57.78-28.32.4-1.5-19.2-20.7-58.78-26.17-24.1-3.34-50-.58-74,3.27" style="fill:#006838;stroke:#231f20;stroke-linecap:round;stroke-linejoin:round;stroke-width:24px"/><path d="M1527.43,1067.91c22.12,1.48,45.81,1.69,67.27-4,35.25-9.32,51-30.34,50.47-31.79.26-1.52-18.9-19.47-55.24-22.5-22.12-1.85-45.41,2.49-66.93,7.8" style="fill:#006838;stroke:#231f20;stroke-linecap:round;stroke-linejoin:round;stroke-width:24px"/><path d="M1459.19,1042.33c25.35-2.22,52.35-6,76.09-15.19,39-15.14,54.38-38.66,53.61-40,.11-1.55-23.87-16.19-65.6-13.14-25.4,1.86-51.39,10.06-75.24,18.93" style="fill:#006838;stroke:#231f20;stroke-linecap:round;stroke-linejoin:round;stroke-width:24px"/><path d="M1426.15,1106c23.89,3.46,63.82,12.55,105.21,5.45,39.12-6.72,58.37-25.64,57.94-27.14.44-1.49-18.64-21.08-57.83-27.36-23.86-3.83-81.32-5-105.22-1.62" style="fill:#006838;stroke:#231f20;stroke-linecap:round;stroke-linejoin:round;stroke-width:24px"/><path d="M1425.86,1076.83c22.11,1.48,45.81,1.69,67.27-4,35.25-9.32,51-30.34,50.47-31.79.26-1.52-18.91-19.47-55.24-22.5-22.12-1.85-45.41,2.49-66.93,7.8" style="fill:#006838;stroke:#231f20;stroke-linecap:round;stroke-linejoin:round;stroke-width:24px"/><path d="M1355.2,1059.57c22.23-.47,45.87-2.5,66.5-10.92,33.89-13.83,46.8-38.9,46.09-40.48.06-1.73-21.41-20-58-19.93-22.29.06-44.93,7.15-65.67,15.17" style="stroke:#231f20;stroke-linecap:round;stroke-linejoin:round;stroke-width:24px;fill:url(#linear-gradient-11)"/><path d="M1331.24,1115.27c21.74,4.61,45.2,8,67.22,4.79,36.18-5.35,54.54-26,54.21-27.69.46-1.62-16.2-23.7-51.83-31.92-21.69-5-45.35-3.44-67.39-.59" style="stroke:#231f20;stroke-linecap:round;stroke-linejoin:round;stroke-width:24px;fill:url(#linear-gradient-12)"/><path d="M781.34,999.43l243,46.58-41.62,107.67-253-44C712.46,1069.29,735.26,1011.89,781.34,999.43Z" style="stroke:#231f20;stroke-linejoin:round;stroke-width:24px;fill:url(#linear-gradient-13)"/><path d="M789.65,1120.64c19.74,10.19,41.45,19.73,63.55,22.43,36.29,4.43,59.48-10.65,59.6-12.33.87-1.44-9.33-27.15-41.51-44.51-19.59-10.58-42.82-15.35-64.82-18.44" style="stroke:#231f20;stroke-linecap:round;stroke-linejoin:round;stroke-width:24px;fill:url(#linear-gradient-14)"/><ellipse cx="998.74" cy="1098.15" rx="57.69" ry="23.09" transform="translate(-369.34 1674.16) rotate(-70.55)" style="stroke:#231f20;stroke-linejoin:round;stroke-width:24px;fill:url(#linear-gradient-15)"/><path d="M1079.11,1082.55,1311,1094.69l-24.88,105.42-240.85-8.42C1024.05,1156.32,1037.87,1100,1079.11,1082.55Z" style="stroke:#231f20;stroke-linejoin:round;stroke-width:24px;fill:url(#linear-gradient-16)"/><ellipse cx="1293.86" cy="1146.44" rx="54.13" ry="21.66" transform="translate(-89.3 2183.38) rotate(-78.4)" style="stroke:#231f20;stroke-linejoin:round;stroke-width:24px;fill:url(#linear-gradient-17)"/><path d="M1124.9,1140.34c20.14,5.44,42,9.84,62.76,7.71,34.17-3.52,52.41-22.69,52.19-24.3.51-1.54-14-23.67-47-33.24-20.08-5.84-42.34-5.42-63.13-3.66" style="stroke:#231f20;stroke-linecap:round;stroke-linejoin:round;stroke-width:24px;fill:url(#linear-gradient-18)"/><path d="M490,1055.33l231.87,12.14L697,1172.89l-240.84-8.42C435,1129.1,448.78,1072.82,490,1055.33Z" style="stroke:#231f20;stroke-linejoin:round;stroke-width:24px;fill:url(#linear-gradient-19)"/><ellipse cx="704.77" cy="1119.22" rx="54.13" ry="21.66" transform="translate(-533.29 1584.57) rotate(-78.4)" style="stroke:#231f20;stroke-linejoin:round;stroke-width:24px;fill:url(#linear-gradient-20)"/><path d="M535.81,1113.12c20.14,5.44,42,9.84,62.77,7.71,34.17-3.52,52.41-22.69,52.18-24.3.51-1.54-14-23.67-47-33.24-20.08-5.83-42.34-5.42-63.13-3.66" style="stroke:#231f20;stroke-linecap:round;stroke-linejoin:round;stroke-width:24px;fill:url(#linear-gradient-21)"/><path d="M1460.73,1172l207.83-4,202.68,49.12h0l-199.6,60.43-229.3,8.45C1419.85,1247.73,1430,1199,1460.73,1172Z" style="stroke:#231f20;stroke-linejoin:round;stroke-width:24px;fill:url(#linear-gradient-22)"/><path d="M1790.14,1247.46c22,2.79,45.62,4.41,67.38,0,35.74-7.21,52.71-27.25,52.27-28.73.36-1.5-17.71-20.56-53.8-25.75-22-3.16-45.48-.21-67.28,3.81" style="fill:#006838;stroke:#231f20;stroke-linecap:round;stroke-linejoin:round;stroke-width:24px"/><path d="M1724.37,1226.36c22.46,1,46.5.6,68.15-5.59,35.56-10.16,51.09-31.55,50.53-33,.24-1.52-19.58-19-56.5-21.18-22.48-1.32-46,3.57-67.73,9.4" style="fill:#006838;stroke:#231f20;stroke-linecap:round;stroke-linejoin:round;stroke-width:24px"/><path d="M1711.73,1273.15c23.9,4.4,49.69,7.74,73.86,5,39.7-4.58,59.73-23.33,59.36-24.83.5-1.48-17.93-21.81-57.12-29.63-23.86-4.76-49.84-3.54-74-1.12" style="fill:#006838;stroke:#231f20;stroke-linecap:round;stroke-linejoin:round;stroke-width:24px"/><path d="M1664.26,1248.24c22,2.79,45.62,4.41,67.38,0,35.74-7.21,52.71-27.25,52.27-28.73.35-1.51-17.71-20.56-53.8-25.75-22-3.16-45.48-.21-67.28,3.81" style="fill:#006838;stroke:#231f20;stroke-linecap:round;stroke-linejoin:round;stroke-width:24px"/><path d="M1597.65,1218.65c25.44-.71,52.61-2.85,76.86-10.64,39.83-12.81,56.58-35.37,55.89-36.77.21-1.54-22.86-17.58-64.69-17-25.47.35-51.91,7-76.24,14.43" style="fill:#006838;stroke:#231f20;stroke-linecap:round;stroke-linejoin:round;stroke-width:24px"/><path d="M1560.89,1280.26c23.64,4.87,63,16.32,104.7,11.69,39.45-4.38,59.79-22.13,59.45-23.64.52-1.47-17.35-22.16-56.1-30.76-23.59-5.23-80.88-9.8-104.94-7.86" style="fill:#006838;stroke:#231f20;stroke-linecap:round;stroke-linejoin:round;stroke-width:24px"/><path d="M1562.33,1251.1c22,2.8,45.63,4.41,67.39,0,35.74-7.21,52.71-27.26,52.27-28.74.35-1.5-17.71-20.56-53.8-25.74-22-3.16-45.49-.22-67.28,3.81" style="fill:#006838;stroke:#231f20;stroke-linecap:round;stroke-linejoin:round;stroke-width:24px"/><path d="M1492.82,1229.67c22.22.86,45.94.23,67-7,34.65-11.79,49-36,48.41-37.66.16-1.73-20.18-21.25-56.73-23.34-22.25-1.27-45.27,4.46-66.45,11.24" style="stroke:#231f20;stroke-linecap:round;stroke-linejoin:round;stroke-width:24px;fill:url(#linear-gradient-23)"/><path d="M1465.6,1283.85c21.42,5.89,44.64,10.72,66.82,8.77,36.42-3.18,56-22.75,55.75-24.41.56-1.59-14.76-24.63-49.84-34.94-21.35-6.28-45.07-6.14-67.23-4.6" style="stroke:#231f20;stroke-linecap:round;stroke-linejoin:round;stroke-width:24px;fill:url(#linear-gradient-24)"/><path d="M805.39,1098.89l221.74,109.79-68.86,92.64L726.18,1191.38C720.36,1147.82,757.66,1098.59,805.39,1098.89Z" style="stroke:#231f20;stroke-linejoin:round;stroke-width:24px;fill:url(#linear-gradient-25)"/><path d="M781,1217.91c16.3,15.1,34.68,30.09,55.25,38.59,33.79,14,60.17,5.62,60.73,4,1.22-1.15-1.74-28.66-28.11-54-16.06-15.42-37.17-26.23-57.55-35.08" style="stroke:#231f20;stroke-linecap:round;stroke-linejoin:round;stroke-width:24px;fill:url(#linear-gradient-26)"/><ellipse cx="988.53" cy="1252.09" rx="57.69" ry="23.09" transform="translate(-604.03 1345.23) rotate(-55.06)" style="stroke:#231f20;stroke-linejoin:round;stroke-width:24px;fill:url(#linear-gradient-27)"/><path d="M647.91,1226.17,894.69,1244,866,1355.81l-256.44-14.08C587.67,1303.6,603.6,1243.93,647.91,1226.17Z" style="stroke:#231f20;stroke-linejoin:round;stroke-width:24px;fill:url(#linear-gradient-28)"/><path d="M670.33,1345.57c20.79,7.82,43.47,14.75,65.73,14.85,36.57.16,57.83-17.53,57.76-19.21.69-1.53-12.44-25.88-46.43-39.36-20.69-8.21-44.32-10.24-66.53-10.73" style="stroke:#231f20;stroke-linecap:round;stroke-linejoin:round;stroke-width:24px;fill:url(#linear-gradient-29)"/><ellipse cx="875.36" cy="1298.8" rx="57.69" ry="23.09" transform="translate(-584.52 1866.16) rotate(-77.26)" style="stroke:#231f20;stroke-linejoin:round;stroke-width:24px;fill:url(#linear-gradient-30)"/><path d="M990.39,1262.7l231.87,12.14-24.88,105.42-240.84-8.42C935.33,1336.47,949.15,1280.19,990.39,1262.7Z" style="stroke:#231f20;stroke-linejoin:round;stroke-width:24px;fill:url(#linear-gradient-31)"/><ellipse cx="1205.14" cy="1326.59" rx="54.13" ry="21.66" transform="translate(-336.66 2240.4) rotate(-78.4)" style="stroke:#231f20;stroke-linejoin:round;stroke-width:24px;fill:url(#linear-gradient-32)"/><path d="M1036.18,1320.49c20.14,5.45,42,9.85,62.77,7.71,34.17-3.52,52.41-22.69,52.18-24.3.51-1.54-14-23.66-47-33.24-20.08-5.83-42.34-5.42-63.13-3.66" style="stroke:#231f20;stroke-linecap:round;stroke-linejoin:round;stroke-width:24px;fill:url(#linear-gradient-33)"/><path d="M1264.66,1241.76l198.24,62.53,176.39,111.26h0l-208.45-6.46-220-65.22C1201.74,1300.47,1226.9,1257.5,1264.66,1241.76Z" style="stroke:#231f20;stroke-linejoin:round;stroke-width:24px;fill:url(#linear-gradient-34)"/><path d="M1552.73,1418.45c19.94,9.67,41.83,18.75,63.85,21.54,36.17,4.58,58.65-9,58.71-10.54.81-1.31-10.22-25.14-42.77-41.58-19.81-10-43-14.72-65-17.87" style="fill:#006838;stroke:#231f20;stroke-linecap:round;stroke-linejoin:round;stroke-width:24px"/><path d="M1497.14,1377.45c21,8.08,43.88,15.42,66.37,16.47,36.94,1.73,58.49-13.58,58.42-15.12.71-1.38-12.49-24.28-46.78-38.12-20.88-8.43-44.75-11.31-67.19-12.72" style="fill:#006838;stroke:#231f20;stroke-linecap:round;stroke-linejoin:round;stroke-width:24px"/><path d="M1470.22,1417.76c21.24,11.8,44.62,23.2,68.41,28.28,39.08,8.34,64.06-3,64.19-4.58.94-1.23-10-26.39-44.68-46.31-21.09-12.12-46.1-19.27-69.78-24.7" style="fill:#006838;stroke:#231f20;stroke-linecap:round;stroke-linejoin:round;stroke-width:24px"/><path d="M1433.19,1379c19.94,9.67,41.83,18.75,63.85,21.54,36.17,4.58,58.65-9,58.71-10.54.81-1.31-10.22-25.14-42.77-41.58-19.81-10-43-14.72-65-17.87" style="fill:#006838;stroke:#231f20;stroke-linecap:round;stroke-linejoin:round;stroke-width:24px"/><path d="M1379.52,1329.69c24.33,7.45,50.77,14.1,76.23,14.45,41.84.59,64.91-15.44,64.71-17,.69-1.4-16-24-55.88-36.79-24.24-7.8-51.41-9.95-76.85-10.67" style="fill:#006838;stroke:#231f20;stroke-linecap:round;stroke-linejoin:round;stroke-width:24px"/><path d="M1325,1376.33c20.84,12.17,54.45,35.57,95.48,44.51,38.78,8.45,63.73-1.87,63.9-3.42,1-1.22-9.38-26.54-43.35-47.06-20.69-12.49-73.52-35.11-96.94-41" style="fill:#006838;stroke:#231f20;stroke-linecap:round;stroke-linejoin:round;stroke-width:24px"/><path d="M1335.69,1349.17c19.94,9.66,41.83,18.74,63.85,21.53,36.17,4.58,58.65-9,58.7-10.53.82-1.32-10.22-25.14-42.76-41.58-19.81-10-43-14.73-65-17.87" style="fill:#006838;stroke:#231f20;stroke-linecap:round;stroke-linejoin:round;stroke-width:24px"/><path d="M1276.66,1306.66c20.78,7.91,43.46,14.88,65.74,14.82,36.61-.11,58-18.51,57.91-20.24.7-1.58-12.34-26.58-46.31-40.23-20.68-8.31-44.32-10.22-66.56-10.56" style="stroke:#231f20;stroke-linecap:round;stroke-linejoin:round;stroke-width:24px;fill:url(#linear-gradient-35)"/><path d="M1233.56,1349.32c18.42,12.41,38.88,24.4,60.52,29.64,35.53,8.61,60.32-3.68,60.63-5.34,1-1.32-6.12-28-36.07-49-18.23-12.77-40.76-20.21-62.25-25.82" style="stroke:#231f20;stroke-linecap:round;stroke-linejoin:round;stroke-width:24px;fill:url(#linear-gradient-36)"/><path d="M887.93,719.81,861.7,692.2a517.54,517.54,0,0,1-76.44-104.11c-22.25-39.81-52.89-90-74.65-107.39-38.05-30.37-34-49.69-25.34-57.17,12-10.36,23.57-10.66,41.42-10.66a83.86,83.86,0,0,1,10,.6c40.4,4.86,89,63.87,101.77,75.26,4.1,3.65,8.19,7.29,12.3,10.86a10.88,10.88,0,0,0,18-8.21L874.17,159c0-22.19,12.62-40.26,34.82-40.26s34.83,18.07,34.83,40.26l5.44,230.82a10.88,10.88,0,0,0,21.75,0l5.43-293.07c0-22.2,12.62-40.26,34.82-40.26s34.82,18.06,34.82,40.26l5.44,291.91a10.88,10.88,0,0,0,21.75,0l5.44-240.77c0-22.2,12.62-40.26,34.82-40.26s34.82,18.06,34.82,40.26l5.44,252.5a10.88,10.88,0,0,0,21.75,0L1181,227.94c0-22.2,12.62-40.26,34.82-40.26s34.82,18.06,34.82,40.26l4.32,157.93q1.13,40.89-1.57,81.75l-4.83,73.09a511.68,511.68,0,0,1-49.66,188.55h0a97.3,97.3,0,0,1-86.54,55l-69.79.81A209.93,209.93,0,0,1,887.93,719.81Z" style="fill:#fff;stroke:#231f20;stroke-miterlimit:10;stroke-width:24px"/></svg>