<?xml version="1.0" encoding="UTF-8"?>
<svg id="Layer_1" data-name="Layer 1" xmlns="http://www.w3.org/2000/svg" width="1423.38" height="2000" viewBox="0 0 1423.38 2000">
  <path d="M584.34,831.21l-31.1-32.73c-35.3-37.15-65.62-78.7-90.63-123.44-26.38-47.2-62.71-106.73-88.51-127.32-45.12-36.01-40.34-58.92-30.05-67.79,14.25-12.27,27.95-12.63,49.1-12.63,3.92,0,7.87,.23,11.82,.71,47.91,5.76,105.5,75.72,120.66,89.23,4.87,4.33,9.71,8.64,14.59,12.88,3.81,3.32,9.21,4.09,13.81,2,4.6-2.1,7.54-6.68,7.54-11.73l6.45-394.05c0-26.32,14.96-47.73,41.28-47.73s41.29,21.41,41.29,47.73l6.45,273.65c0,7.12,5.77,12.89,12.89,12.89s12.89-5.77,12.89-12.89l6.45-347.46c0-26.32,14.96-47.73,41.28-47.73s41.28,21.41,41.28,47.73l6.45,346.08c0,7.12,5.77,12.89,12.89,12.89s12.89-5.77,12.89-12.89l6.45-285.46c0-26.32,14.96-47.73,41.28-47.73s41.28,21.41,41.28,47.73l6.45,299.37c0,7.12,5.77,12.89,12.89,12.89s12.89-5.77,12.89-12.89l6.45-204.48c0-26.32,14.96-47.73,41.28-47.73s41.28,21.41,41.28,47.73l5.12,187.24c.88,32.32,.26,64.67-1.87,96.93l-5.72,86.65c-5.12,77.6-25.11,153.5-58.89,223.55h0c-19.03,39.48-58.79,64.76-102.61,65.27l-82.75,.96c-69.21,.8-135.62-27.26-183.29-77.43Z" style="fill: #fff; stroke: #3a3632; stroke-miterlimit: 10; stroke-width: 24px;"/>
  <g id="layer3">
    <g id="g877">
      <path id="rect869" d="M920.18,1128.43l435.47,44.35-671.18,254.44-616.75-76.5,852.45-222.29Z" style="fill: #fff; stroke: #231f20; stroke-linejoin: round; stroke-width: 24px;"/>
      <path id="path864" d="M91.77,1350.99l33.1,466.61,550.99,132.92,8.5-522.89-592.59-76.64Z" style="fill: #fff; stroke: #231f20; stroke-linejoin: round; stroke-width: 24px;"/>
      <path id="rect866" d="M684.37,1427.63l642.13-251.4-40.9,428.87-609.73,345.41,8.5-522.89Z" style="fill: #fff; stroke: #231f20; stroke-linejoin: round; stroke-width: 24px;"/>
    </g>
  </g>
</svg>