<svg xmlns="http://www.w3.org/2000/svg" height="1923.96" width="1684.76"  fill="#fff" stroke="#231f20" stroke-width="24" xmlns:v="https://vecta.io/nano"><g stroke-linejoin="round"><path d="M1025.83 1066.15v700a145.54 145.54 0 0 1-145.86 145.81H157.85A145.53 145.53 0 0 1 12 1766.1v-700z"/><path d="M1672.76 1307.58l-553.3-17.62a64.84 64.84 0 0 0-61.64 39.61l-32 75.76v-230.37l646.95-20.4z"/></g><path d="M672.03 853.35l-33.27-35a655.82 655.82 0 0 1-97-132.07c-28.18-50.5-67-114.2-94.64-136.23-48.27-38.52-43.16-63-32.15-72.52C430.2 464.4 444.87 464 467.5 464a105.75 105.75 0 0 1 12.65.76c51.26 6.17 112.87 81 129.1 95.47l15.6 13.78a13.8 13.8 0 0 0 22.84-10.42l6.9-421.57c0-28.16 16-51.07 44.17-51.07s44.17 22.9 44.17 51.07l6.9 292.77a13.8 13.8 0 0 0 27.59 0l6.9-371.73c0-28.16 16-51.07 44.17-51.07s44.17 22.9 44.17 51.07l6.9 370.26a13.79 13.79 0 0 0 27.58 0l6.9-305.4c0-28.16 16-51.07 44.17-51.07s44.17 22.9 44.17 51.07l6.9 320.28a13.8 13.8 0 0 0 27.59 0l6.9-218.77c0-28.15 16-51.06 44.16-51.06s44.17 22.9 44.17 51.06l5.48 200.32q1.43 51.87-2 103.7l-6.1 92.7a649.1 649.1 0 0 1-63 239.17h0a123.44 123.44 0 0 1-109.78 69.82l-88.52 1a266.29 266.29 0 0 1-196.11-82.81z" stroke-miterlimit="10"/></svg>