<svg xmlns="http://www.w3.org/2000/svg" viewBox="0 0 2000 1507.63"><g id="Layer_2" data-name="Layer 2"><path d="M62,1133.49l52.79,298.85a74.73,74.73,0,0,0,70.4,49.6H1814.77a74.73,74.73,0,0,0,70.4-49.6L1938,1133.49" style="fill:#fff;stroke:#231f20;stroke-linecap:round;stroke-linejoin:round;stroke-width:24px"/><path d="M1967.36,1125.79l-322-210.15a39,39,0,0,0-21.27-6.32H375.91a39,39,0,0,0-21.27,6.32l-322,210.15A38.92,38.92,0,0,0,15,1158.37v8.88a38.9,38.9,0,0,0,38.91,38.9H1946.09a38.9,38.9,0,0,0,38.91-38.9v-8.88A38.92,38.92,0,0,0,1967.36,1125.79Z" style="fill:#fff;stroke:#231f20;stroke-linecap:round;stroke-linejoin:round;stroke-width:24px"/><line x1="115.64" y1="1137.3" x2="1884.36" y2="1137.3" style="fill:#fff;stroke:#231f20;stroke-linecap:round;stroke-linejoin:round;stroke-width:15.0435986831265px"/><line x1="375" y1="999.75" x2="391" y2="1137.69" style="fill:none;stroke:#231f20;stroke-linecap:round;stroke-linejoin:round;stroke-width:15.0435986831265px"/><line x1="1620.59" y1="999.75" x2="1604.59" y2="1137.69" style="fill:none;stroke:#231f20;stroke-linecap:round;stroke-linejoin:round;stroke-width:15.0435986831265px"/><path d="M887.93,689,861.7,661.38a517.33,517.33,0,0,1-76.44-104.12c-22.25-39.81-52.89-90-74.65-107.38-38.05-30.37-34-49.7-25.34-57.18,12-10.35,23.57-10.65,41.42-10.65a81.81,81.81,0,0,1,10,.6c40.4,4.85,89,63.86,101.77,75.26,4.1,3.65,8.19,7.29,12.3,10.86a10.88,10.88,0,0,0,18-8.21l5.43-332.36c0-22.2,12.62-40.26,34.82-40.26S943.82,106,943.82,128.2L949.26,359A10.88,10.88,0,1,0,971,359L976.44,66c0-22.2,12.62-40.26,34.82-40.26s34.82,18.06,34.82,40.26l5.44,291.9a10.88,10.88,0,1,0,21.75,0l5.44-240.77c0-22.19,12.62-40.25,34.82-40.25s34.82,18.06,34.82,40.25l5.44,252.5a10.88,10.88,0,1,0,21.75,0L1181,197.12c0-22.2,12.62-40.26,34.82-40.26s34.82,18.06,34.82,40.26L1254.93,355q1.13,40.9-1.57,81.76l-4.83,73.09a511.73,511.73,0,0,1-49.66,188.55h0a97.33,97.33,0,0,1-86.54,55l-69.79.8A209.89,209.89,0,0,1,887.93,689Z" style="fill:#fff;stroke:#231f20;stroke-miterlimit:10;stroke-width:24px"/></g></svg>