<svg xmlns="http://www.w3.org/2000/svg" height="1732.611" width="1924"  xmlns:v="https://vecta.io/nano"><g stroke="#231f20" stroke-width="24"><g stroke-linejoin="round"><path d="M1767.06 533.75v1050.52a136 136 0 0 1-136.35 136.34H293.3A136 136 0 0 1 157 1584.27V533.75z" opacity="1" fill="#fff"/><path d="M98.8 533.4A86.6 86.6 0 0 0 12 620.17v79.73a86.6 86.6 0 0 0 86.79 86.78h58.15V533.74h47.4l-7.06-.35zm1726.4 0a86.6 86.6 0 0 1 86.79 86.78v79.73a86.6 86.6 0 0 1-86.79 86.78h-58.15V533.75h-47.4l7.06-.35z" opacity="1" fill="none"/><path d="M959.84 214.94c-295.44.52-580.7 124.1-802.84 318.8h1610.1c-222.76-195.2-508.86-318.8-805-318.8z" opacity="1" fill="#fff" fill-opacity=".996"/><path d="M1154.5 230.2a196 196 0 0 0 1.53-24.21c0-107.16-86.87-194-194-194h-1.38C854 12.73 768 99.37 768 206a194.06 194.06 0 0 0 1.53 24.21" opacity="1" fill="none" stroke-linecap="round"/></g><g fill="#fff"><circle r="203" cy="979.68" cx="962"/><path d="M962 979.68v-137.5" stroke-linecap="round" stroke-miterlimit="10"/></g></g><path d="M634.65 1361v61.7h94.16V1361q0-13.2 5.94-19.83 5.94-6.62 15.65-6.6 9.84 0 15.94 6.53 6.1 6.53 6.1 19.9v169.66q0 13.36-6.17 20a20.73 20.73 0 0 1-15.86 6.6q-9.84 0-15.72-6.68-5.88-6.68-5.87-19.9v-72.4h-94.16v72.42q0 13.36-6.17 20a20.73 20.73 0 0 1-15.86 6.6q-9.86 0-15.72-6.68-5.86-6.68-5.88-19.9V1361q0-13.2 5.8-19.83 5.8-6.62 15.8-6.6 9.82 0 15.93 6.53 6.1 6.53 6.1 19.9zm186.4 169.65V1361q0-13.2 6-19.83a20.07 20.07 0 0 1 15.57-6.61q9.84 0 15.93 6.53 6.1 6.53 6.1 19.9v169.66q0 13.36-6.1 20-6.1 6.64-15.93 6.6a20 20 0 0 1-15.5-6.68q-6.12-6.7-6.07-19.92zm289.1-64.63v41.25a43.26 43.26 0 0 1-1.62 13.15 20.89 20.89 0 0 1-6 8.89 56 56 0 0 1-11.09 7.63 173.9 173.9 0 0 1-37.6 15.43 151.71 151.71 0 0 1-39.37 4.84q-24.83 0-45.24-7.63a95.18 95.18 0 0 1-34.82-22.18 97.9 97.9 0 0 1-22.1-35.26q-7.7-20.72-7.72-46.27 0-25.1 7.5-46a94.33 94.33 0 0 1 22-35.4 96.67 96.67 0 0 1 35.4-22.25q20.85-7.7 47.3-7.7 21.73 0 38.48 5.8 16.75 5.8 27.18 14.62a65.22 65.22 0 0 1 15.72 18.65q5.28 9.84 5.3 17.48a18.67 18.67 0 0 1-6.1 14 20.46 20.46 0 0 1-14.62 5.8 19.67 19.67 0 0 1-9-2.2 20.57 20.57 0 0 1-7.27-6.17 174.83 174.83 0 0 0-13.66-19.1 44.15 44.15 0 0 0-15.06-10.87q-9.48-4.4-24.16-4.4a66.8 66.8 0 0 0-27 5.21 56 56 0 0 0-20.35 15.13 68.1 68.1 0 0 0-12.92 24.31 106.84 106.84 0 0 0-4.48 31.88q0 37.9 17.4 58.3 17.4 20.42 48.55 20.42a98.81 98.81 0 0 0 28.43-4 143.55 143.55 0 0 0 27-11.31v-35h-33.8q-12.2 0-18.44-3.67-6.24-3.67-6.24-12.48a15.34 15.34 0 0 1 5.21-11.9q5.22-4.7 14.18-4.7h49.5a63.51 63.51 0 0 1 15.42 1.61 17.41 17.41 0 0 1 10.21 7.2q3.9 5.72 3.9 16.9zm85.5-105.02v61.7h94.15V1361q0-13.2 6-19.83 6-6.62 15.65-6.6 9.84 0 15.93 6.53 6.1 6.53 6.1 19.9v169.66q0 13.36-6.17 20a20.73 20.73 0 0 1-15.86 6.6q-9.86 0-15.72-6.68-5.86-6.68-5.88-19.9v-72.4h-94.15v72.42q0 13.36-6.17 20a20.76 20.76 0 0 1-15.87 6.6q-9.84 0-15.7-6.68-5.87-6.68-5.88-19.9V1361q0-13.2 5.8-19.83 5.8-6.62 15.8-6.6 9.84 0 15.94 6.53 6.1 6.53 6.05 19.9z" fill="#231f20"/></svg>