<svg id="Layer_1" data-name="Layer 1" xmlns="http://www.w3.org/2000/svg" viewBox="0 0 1289.84 2000"><path d="M90.23,645.58v-224c0-26.5,20.59-48,46-48H1159.42c25.39,0,46,21.49,46,48v224" style="fill:#fff;stroke:#000;stroke-miterlimit:15.118109703064;stroke-width:24px"/><circle cx="236.09" cy="488.42" r="42.52" style="fill:none;stroke:#000;stroke-miterlimit:15.118109703064;stroke-width:24px"/><circle cx="377.25" cy="488.42" r="42.52" style="fill:none;stroke:#000;stroke-miterlimit:15.118109703064;stroke-width:24px"/><circle cx="639.66" cy="488.42" r="42.52" style="fill:none;stroke:#000;stroke-miterlimit:15.118109703064;stroke-width:24px"/><rect x="25.22" y="645.58" width="1228.87" height="1335.49" rx="46.87" style="fill:#fff;stroke:#000;stroke-miterlimit:15.118109703064;stroke-width:24px"/><line x1="29.79" y1="1730.92" x2="1249.52" y2="1730.92" style="fill:none;stroke:#000;stroke-miterlimit:15.118109703064;stroke-width:24px"/><rect x="101.96" y="830.83" width="1075.38" height="74.59" rx="16" style="fill:none;stroke:#000;stroke-miterlimit:15.118109703064;stroke-width:24px"/><line x1="29.79" y1="745.51" x2="1249.52" y2="745.51" style="fill:none;stroke:#000;stroke-miterlimit:15.118109703064;stroke-width:15.6222763817249px"/><line x1="195.58" y1="618.93" x2="551.16" y2="618.93" style="fill:none;stroke:#000;stroke-linecap:round;stroke-miterlimit:15.118109703064;stroke-width:31.2445527634498px"/><line x1="728.16" y1="618.93" x2="1083.73" y2="618.93" style="fill:none;stroke:#000;stroke-linecap:round;stroke-miterlimit:15.118109703064;stroke-width:31.2445527634498px"/><rect x="193.58" y="990.74" width="892.16" height="654.85" rx="93.73" style="fill:#fff;stroke:#000;stroke-miterlimit:15.118109703064;stroke-width:24px"/><line x1="196.18" y1="1446.82" x2="1087.56" y2="1446.82" style="fill:none;stroke:#000;stroke-linecap:round;stroke-miterlimit:15.118109703064;stroke-width:24px"/><line x1="281.22" y1="1446.82" x2="281.22" y2="1635.68" style="fill:none;stroke:#000;stroke-linecap:round;stroke-miterlimit:15.118109703064;stroke-width:24px"/><line x1="401.44" y1="1446.82" x2="401.44" y2="1635.68" style="fill:none;stroke:#000;stroke-linecap:round;stroke-miterlimit:15.118109703064;stroke-width:24px"/><line x1="521.65" y1="1446.82" x2="521.65" y2="1635.68" style="fill:none;stroke:#000;stroke-linecap:round;stroke-miterlimit:15.118109703064;stroke-width:24px"/><line x1="641.87" y1="1446.82" x2="641.87" y2="1635.68" style="fill:none;stroke:#000;stroke-linecap:round;stroke-miterlimit:15.118109703064;stroke-width:24px"/><line x1="762.09" y1="1446.82" x2="762.09" y2="1635.68" style="fill:none;stroke:#000;stroke-linecap:round;stroke-miterlimit:15.118109703064;stroke-width:24px"/><line x1="882.31" y1="1446.82" x2="882.31" y2="1635.68" style="fill:none;stroke:#000;stroke-linecap:round;stroke-miterlimit:15.118109703064;stroke-width:24px"/><line x1="1002.53" y1="1446.82" x2="1002.53" y2="1635.68" style="fill:none;stroke:#000;stroke-linecap:round;stroke-miterlimit:15.118109703064;stroke-width:24px"/><g id="layer5"><g id="g986"><path id="rect981" d="M910.34,548.49V304.61M1004.86,454,910.34,565.38,815.82,454" style="fill:none;stroke:#231f20;stroke-linecap:round;stroke-linejoin:round;stroke-width:24px"/></g></g><g id="layer3"><path id="path916" d="M1101.69,18.94V206a38.89,38.89,0,0,1-38.82,39H753.76a38.89,38.89,0,0,1-39-38.8V18.93Z" style="fill:#fff;stroke:#221f1f;stroke-linecap:round;stroke-linejoin:round;stroke-width:24px"/></g><path d="M1264.62,83.46l-137.91-4.71a17.32,17.32,0,0,0-16.47,10.58l-8.55,20.25V48l162.93-5.45Z" style="fill:#fff;stroke:#221f1f;stroke-linecap:round;stroke-linejoin:round;stroke-width:24px"/></svg>