<svg id="Layer_1" data-name="Layer 1" xmlns="http://www.w3.org/2000/svg" viewBox="0 0 2000 1741"><path d="M1608.66,1491.11H384c-30.57,0-55.85-22.26-55.85-50.24L449.5,669.3c.9-5.58,20.41-20.48,29.44-20.48h936.52c9,0,28.08,14.9,29.7,20.48l235.51,759.88C1680.67,1474.65,1653.75,1491.11,1608.66,1491.11Z" style="fill:#ef4136;stroke:#231f20;stroke-linecap:round;stroke-miterlimit:10;stroke-width:12px"/><path d="M1572.05,1417.78H419.5c-3.67,0-6.32-2.47-5.92-5.51l95.73-720.36c.23-1.73,2.66-3.14,5.43-3.14h869c2.77,0,5.38,1.41,5.83,3.14l187.7,720.36C1578.05,1415.31,1575.72,1417.78,1572.05,1417.78Z" style="fill:#ef4136;stroke:#231f20;stroke-linecap:round;stroke-miterlimit:10;stroke-width:12px"/><path d="M193.8,1684c-11.44-29.66,56.59-98.67,150.39-153.92,92.35-54.4,177.86-76.65,192.54-49.94,15,27.27-49,95.64-144.56,153C295,1691.41,205.48,1714.3,193.8,1684Z" style="fill:#ef4136;stroke:#231f20;stroke-linecap:round;stroke-miterlimit:10;stroke-width:12px"/><path d="M531.87,1474.65s-77.4,61.68-155.37,108.07c-79,47-168.34,77.57-173.08,65.54" style="fill:#ef4136;stroke:#231f20;stroke-linecap:round;stroke-miterlimit:10;stroke-width:12px"/><path d="M790.78,1400.47a1.8,1.8,0,0,1-1.8-1.78c0-2-.07-5-.1-9a1.79,1.79,0,0,1,1.79-1.82h0a1.8,1.8,0,0,1,1.8,1.79c0,4,.07,7.06.1,9a1.8,1.8,0,0,1-1.78,1.83Zm-.15-36.14h0a1.8,1.8,0,0,1-1.8-1.81q0-4.35,0-9a1.81,1.81,0,0,1,1.81-1.8h0a1.8,1.8,0,0,1,1.79,1.82c0,3.13,0,6.15-.05,9A1.8,1.8,0,0,1,790.63,1364.33Zm.38-36.17h0a1.8,1.8,0,0,1-1.77-1.84c0-3,.11-6,.17-9a1.81,1.81,0,0,1,1.81-1.77h0a1.8,1.8,0,0,1,1.76,1.85q-.09,4.59-.17,9A1.81,1.81,0,0,1,791,1328.16Zm.92-36.16h-.06a1.8,1.8,0,0,1-1.74-1.87q.15-4.49.32-9a1.81,1.81,0,1,1,3.61.14q-.16,4.55-.32,9A1.82,1.82,0,0,1,791.93,1292Zm1.56-36.13h-.1a1.82,1.82,0,0,1-1.71-1.9q.24-4.53.51-9.06a1.8,1.8,0,0,1,3.6.22c-.18,3-.34,6-.5,9A1.81,1.81,0,0,1,793.49,1255.87Zm2.35-36.1h-.15a1.82,1.82,0,0,1-1.66-1.94q.36-4.54.75-9a1.81,1.81,0,0,1,3.6.31q-.39,4.49-.74,9A1.82,1.82,0,0,1,795.84,1219.77Zm3.46-36h-.21a1.81,1.81,0,0,1-1.58-2q.53-4.55,1.1-9a1.8,1.8,0,0,1,3.58.46c-.38,2.94-.74,5.93-1.1,9A1.8,1.8,0,0,1,799.3,1183.77Zm5.23-35.78-.33,0a1.81,1.81,0,0,1-1.45-2.11c.56-3.07,1.15-6.07,1.74-8.92a1.81,1.81,0,0,1,3.54.75c-.59,2.81-1.17,5.78-1.73,8.82A1.81,1.81,0,0,1,804.53,1148Zm2.42-35.38a1.81,1.81,0,0,1-1.78-1.53c-.42-2.75-.83-5.78-1.22-9a1.81,1.81,0,0,1,3.59-.44c.39,3.2.79,6.2,1.2,8.9a1.81,1.81,0,0,1-1.51,2.06A1.27,1.27,0,0,1,807,1112.61Zm-3.72-35.95a1.8,1.8,0,0,1-1.8-1.68q-.31-4.41-.6-9a1.81,1.81,0,0,1,3.61-.22c.18,3.06.38,6.07.59,9a1.81,1.81,0,0,1-1.67,1.93Zm-1.88-36.1a1.79,1.79,0,0,1-1.8-1.74q-.16-4.48-.28-9a1.81,1.81,0,0,1,1.76-1.85,1.78,1.78,0,0,1,1.85,1.76c.08,3,.18,6,.28,9a1.81,1.81,0,0,1-1.74,1.87Zm-.7-36.13a1.81,1.81,0,0,1-1.8-1.8c0-1.62,0-3.24,0-4.86v-4.19a1.81,1.81,0,0,1,1.81-1.8h0a1.81,1.81,0,0,1,1.8,1.81c0,1.39,0,2.79,0,4.18,0,1.61,0,3.23,0,4.84a1.81,1.81,0,0,1-1.8,1.82Zm.45-36.14H801a1.8,1.8,0,0,1-1.75-1.86q.13-4.57.32-9a1.81,1.81,0,1,1,3.61.15c-.12,3-.22,6-.32,9A1.8,1.8,0,0,1,801.1,968.29ZM803,932.2h-.15a1.82,1.82,0,0,1-1.65-2c.26-3.14.54-6.18.84-9a1.81,1.81,0,1,1,3.59.38c-.29,2.83-.57,5.84-.83,9A1.81,1.81,0,0,1,803,932.2Zm5-35.77a1.92,1.92,0,0,1-.41,0,1.81,1.81,0,0,1-1.36-2.17c.71-3.07,1.47-5.81,2.27-8.17a1.8,1.8,0,0,1,3.55-.56l.2.76-.18.52a80.87,80.87,0,0,0-2.31,8.26A1.82,1.82,0,0,1,808,896.43Zm-.17-35.65A1.8,1.8,0,0,1,806,859c-.08-2.81-.13-5.86-.16-9.07a1.81,1.81,0,0,1,1.79-1.82,1.79,1.79,0,0,1,1.82,1.79c0,3.19.08,6.22.16,9a1.81,1.81,0,0,1-1.76,1.86Zm.07-36.16h0a1.8,1.8,0,0,1-1.77-1.84c.07-3,.14-6,.23-9.06a1.8,1.8,0,0,1,1.8-1.75h.06a1.81,1.81,0,0,1,1.75,1.86c-.08,3-.16,6-.22,9A1.81,1.81,0,0,1,807.89,824.62Zm1.21-36.15H809a1.81,1.81,0,0,1-1.73-1.88q.19-4.56.4-9.05a1.82,1.82,0,0,1,1.81-1.72h.08a1.81,1.81,0,0,1,1.72,1.89q-.21,4.49-.4,9A1.8,1.8,0,0,1,809.1,788.47Zm1.8-36.13h-.1a1.8,1.8,0,0,1-1.7-1.91c.17-3.12.35-6.14.52-9a1.79,1.79,0,0,1,1.91-1.69,1.82,1.82,0,0,1,1.7,1.91c-.18,2.89-.35,5.91-.53,9A1.81,1.81,0,0,1,810.9,752.34Zm2.24-36.13H813a1.8,1.8,0,0,1-1.68-1.92c.39-5.75.63-9.07.63-9.07a1.81,1.81,0,1,1,3.61.27s-.25,3.31-.64,9A1.8,1.8,0,0,1,813.14,716.21Z" style="fill:#fff"/><path d="M1179.93,1396.31a1.81,1.81,0,0,1-1.8-1.68c-.17-2.43-.4-5.47-.66-9.05a1.81,1.81,0,0,1,3.6-.27c.27,3.59.49,6.63.66,9.06a1.79,1.79,0,0,1-1.67,1.93Zm-2.81-36.16a1.81,1.81,0,0,1-1.8-1.65q-.36-4.35-.76-9a1.81,1.81,0,0,1,1.65-2,1.79,1.79,0,0,1,2,1.65q.4,4.66.76,9a1.8,1.8,0,0,1-1.65,2Zm-3.19-36.07a1.8,1.8,0,0,1-1.79-1.63c-.28-3-.57-6-.86-9a1.81,1.81,0,0,1,3.6-.35c.29,3.05.58,6.06.85,9a1.79,1.79,0,0,1-1.62,2Zm-3.59-36a1.81,1.81,0,0,1-1.79-1.61q-.48-4.47-1-9a1.81,1.81,0,1,1,3.59-.4c.33,3,.66,6,1,9a1.79,1.79,0,0,1-1.6,2Zm-4.08-36a1.8,1.8,0,0,1-1.79-1.59q-.54-4.48-1.11-9a1.8,1.8,0,1,1,3.58-.46q.57,4.48,1.12,9a1.81,1.81,0,0,1-1.58,2Zm-4.74-35.87a1.8,1.8,0,0,1-1.78-1.55c-.43-3-.88-6-1.32-8.93a1.81,1.81,0,1,1,3.57-.55q.67,4.44,1.32,9a1.79,1.79,0,0,1-1.53,2A1.1,1.1,0,0,1,1161.52,1216.23Zm-5.74-35.73A1.82,1.82,0,0,1,1154,1179c-.55-3-1.11-6-1.66-8.87a1.8,1.8,0,1,1,3.54-.69c.56,2.85,1.12,5.85,1.68,8.92a1.8,1.8,0,0,1-1.46,2.1A1.66,1.66,0,0,1,1155.78,1180.5Zm-7.65-35.39a1.81,1.81,0,0,1-1.74-1.34c-.82-3.1-1.66-6-2.48-8.63a1.81,1.81,0,1,1,3.45-1.08c.83,2.68,1.68,5.63,2.52,8.78a1.81,1.81,0,0,1-1.28,2.21A1.84,1.84,0,0,1,1148.13,1145.11Zm-6.27-35.31a1.81,1.81,0,0,1-1.8-1.72q-.22-4.56-.46-9a1.81,1.81,0,1,1,3.61-.19q.24,4.45.46,9a1.81,1.81,0,0,1-1.71,1.89Zm-2-36.06a1.8,1.8,0,0,1-1.8-1.69q-.3-4.56-.61-9a1.81,1.81,0,1,1,3.61-.25c.2,3,.41,6,.61,9a1.82,1.82,0,0,1-1.69,1.92Zm-2.72-36a1.81,1.81,0,0,1-1.8-1.65c-.26-3-.53-6-.81-9a1.81,1.81,0,1,1,3.6-.34q.42,4.44.81,9a1.81,1.81,0,0,1-1.64,2Zm-3.65-35.93a1.8,1.8,0,0,1-1.79-1.6c-.36-3-.72-6-1.1-8.94a1.81,1.81,0,1,1,3.59-.45c.37,3,.74,6,1.09,9a1.81,1.81,0,0,1-1.58,2ZM1128.56,966a1.81,1.81,0,0,1-1.78-1.53q-.71-4.49-1.44-8.89a1.81,1.81,0,0,1,3.57-.6c.49,3,1,5.93,1.44,8.93a1.82,1.82,0,0,1-1.5,2.07Zm-6.34-35.55a1.81,1.81,0,0,1-1.77-1.45c-.59-2.95-1.19-5.88-1.81-8.82a1.8,1.8,0,1,1,3.53-.75q.93,4.42,1.83,8.86a1.82,1.82,0,0,1-1.42,2.13Zm-7.38-35.32a1.8,1.8,0,0,1-1.8-1.69c-.2-3-.39-6-.6-9a1.8,1.8,0,1,1,3.6-.25c.21,3,.41,6,.6,9a1.8,1.8,0,0,1-1.68,1.92Zm-2.71-36a1.81,1.81,0,0,1-1.8-1.65q-.39-4.54-.8-9a1.8,1.8,0,0,1,3.59-.33c.28,3,.55,6,.81,9a1.8,1.8,0,0,1-1.64,2Zm-3.55-36a1.81,1.81,0,0,1-1.79-1.61q-.49-4.56-1-9a1.81,1.81,0,0,1,3.59-.42c.35,3,.69,5.94,1,9a1.8,1.8,0,0,1-1.59,2Zm-4.41-35.87a1.82,1.82,0,0,1-1.79-1.56c-.41-3.06-.83-6-1.24-8.94a1.8,1.8,0,1,1,3.57-.51c.42,2.91.84,5.89,1.25,9a1.79,1.79,0,0,1-1.54,2A1.1,1.1,0,0,1,1104.17,787.29Zm-5.37-35.74A1.81,1.81,0,0,1,1097,750c-.51-3.12-1-6.09-1.51-8.9a1.81,1.81,0,0,1,3.56-.61c.49,2.81,1,5.79,1.52,8.92a1.82,1.82,0,0,1-1.49,2.08ZM1092.26,716a1.8,1.8,0,0,1-1.76-1.44c-1.19-5.71-1.91-8.76-1.91-8.79a1.8,1.8,0,0,1,3.51-.83s.74,3.12,1.93,8.89a1.79,1.79,0,0,1-1.4,2.13A1.55,1.55,0,0,1,1092.26,716Z" style="fill:#fff"/><path d="M809.55,898.07l-1.08-.7a23.59,23.59,0,0,0-3.58-1.83,1.81,1.81,0,0,1,1.4-3.33,30.88,30.88,0,0,1,3.09,1.49,26.61,26.61,0,0,1,3.33-1.84,1.81,1.81,0,0,1,1.54,3.27,19.33,19.33,0,0,0-3.68,2.16Zm610.11-.4a1.86,1.86,0,0,1-.88-.23,59,59,0,0,0-8-3.62,1.81,1.81,0,0,1,1.28-3.38,63.8,63.8,0,0,1,8.46,3.84,1.81,1.81,0,0,1-.88,3.39ZM518,892.93a1.81,1.81,0,0,1-.42-3.57c2.63-.63,5.65-1.24,9-1.82a1.8,1.8,0,1,1,.62,3.55c-3.24.57-6.19,1.17-8.74,1.79A2.18,2.18,0,0,1,518,892.93Zm607.35-.15a1.8,1.8,0,0,1-.65-3.49c2.65-1,5.57-2,8.7-2.93a1.81,1.81,0,0,1,1,3.46c-3,.91-5.87,1.86-8.43,2.84A1.87,1.87,0,0,1,1125.3,892.78Zm-25.08-.34a1.66,1.66,0,0,1-.49-.07c-2.7-.76-5.62-1.51-8.67-2.22a1.81,1.81,0,0,1,.82-3.52c3.11.72,6.08,1.49,8.84,2.27a1.8,1.8,0,0,1-.5,3.54Zm-321-3a1.23,1.23,0,0,1-.27,0c-2.78-.41-5.78-.81-8.91-1.19a1.81,1.81,0,0,1,.44-3.59c3.16.38,6.19.79,9,1.21a1.8,1.8,0,0,1-.26,3.59Zm60.31-1.31a1.8,1.8,0,0,1-.32-3.58c2.82-.52,5.84-1,9-1.49a1.81,1.81,0,0,1,.54,3.57c-3.1.47-6.08,1-8.87,1.47A1.73,1.73,0,0,1,839.57,888.17Zm-285.87-.53a1.8,1.8,0,0,1-.17-3.6c2.88-.28,5.92-.56,9-.82a1.81,1.81,0,0,1,.3,3.6c-3.09.26-6.11.53-9,.81Zm831.6-.77a2,2,0,0,1-.35,0c-2.81-.57-5.79-1.11-8.84-1.64a1.81,1.81,0,1,1,.61-3.56c3.09.53,6.09,1.09,8.93,1.65a1.81,1.81,0,0,1-.35,3.58Zm-642-1.12h-.13c-2.94-.21-5.95-.41-9-.59a1.81,1.81,0,0,1,.22-3.61c3.06.19,6.08.38,9,.59a1.81,1.81,0,0,1-.13,3.61Zm321.5-.37-.26,0c-2.85-.4-5.86-.79-8.92-1.16a1.8,1.8,0,1,1,.43-3.58c3.09.37,6.11.76,9,1.16a1.81,1.81,0,0,1-.24,3.6Zm-475-.37a1.81,1.81,0,0,1-.1-3.61c3-.16,6-.3,9.05-.44a1.81,1.81,0,0,1,.16,3.61c-3,.14-6,.28-9,.44Zm570.54-1a1.81,1.81,0,0,1-.29-3.59c2.89-.49,5.91-.95,9-1.39a1.81,1.81,0,0,1,.51,3.58c-3,.43-6,.89-8.89,1.37Zm-453.09-.08h-.06c-3-.1-6-.19-9-.27a1.81,1.81,0,0,1,0-3.61h.05l9,.26a1.81,1.81,0,0,1-.06,3.62Zm-81.33-.29a1.81,1.81,0,0,1,0-3.61c3-.07,6-.14,9-.19a1.81,1.81,0,1,1,.07,3.61l-9,.19Zm249.52-.22a1.81,1.81,0,0,1-.17-3.61q4.42-.42,9-.81a1.81,1.81,0,0,1,.3,3.6q-4.57.39-9,.81Zm-204.33-.19h0l-9,0a1.81,1.81,0,0,1,0-3.61c3,0,6.05,0,9.05,0a1.81,1.81,0,0,1,0,3.61Zm357.79-1.57h-.14q-4.44-.33-9-.6a1.81,1.81,0,0,1,.22-3.61q4.56.28,9,.6a1.81,1.81,0,0,1-.13,3.61Zm320.7-.15h-.2c-2.91-.32-5.93-.64-9-.93a1.81,1.81,0,1,1,.35-3.6c3,.3,6.08.61,9,.94a1.81,1.81,0,0,1-.2,3.6Zm-438.11-.72a1.81,1.81,0,0,1-.09-3.61q4.49-.24,9-.43a1.85,1.85,0,0,1,1.89,1.73,1.81,1.81,0,0,1-1.73,1.88c-3,.13-6,.27-9,.43Zm81.32-.93h0c-3-.09-6-.16-9-.22a1.81,1.81,0,0,1,.07-3.61q4.53.09,9.05.22a1.81,1.81,0,0,1-.06,3.61Zm203.4-.26A1.81,1.81,0,0,1,1196,876c3-.25,6-.49,9-.71a1.82,1.82,0,0,1,1.93,1.67,1.8,1.8,0,0,1-1.67,1.93c-3,.22-6,.46-9,.71Zm-248.59,0a1.81,1.81,0,0,1,0-3.61c3-.05,6-.08,9.07-.11h0a1.81,1.81,0,0,1,0,3.62c-3,0-6,0-9,.1Zm366-1.09h-.11c-3-.17-6-.34-9-.48a1.81,1.81,0,0,1,.18-3.61c3,.15,6.05.31,9,.49a1.81,1.81,0,0,1-.1,3.61Zm-81.3-1a1.81,1.81,0,0,1-.06-3.61c3-.11,6-.19,9-.26h0a1.81,1.81,0,0,1,0,3.61c-3,.07-6,.16-9,.26Zm45.18-.36h0q-4.5-.08-9-.11a1.81,1.81,0,0,1,0-3.61h0q4.53,0,9,.11a1.81,1.81,0,0,1,0,3.61Z" style="fill:#fff"/><path d="M1147.94,1126.05a1.81,1.81,0,0,1-.87-3.39,63.42,63.42,0,0,1,8.51-3.75,1.81,1.81,0,0,1,1.23,3.4,59.68,59.68,0,0,0-8,3.52A1.78,1.78,0,0,1,1147.94,1126.05Zm331.1-.5a1.77,1.77,0,0,1-.67-.13,71.32,71.32,0,0,0-8.4-2.66,1.81,1.81,0,0,1,.92-3.5,74.46,74.46,0,0,1,8.82,2.81,1.8,1.8,0,0,1-.67,3.48Zm-1003.65,0a1.81,1.81,0,0,1-1.14-3.21,14.89,14.89,0,0,1,3.45-2,1.8,1.8,0,1,1,1.48,3.29,11.83,11.83,0,0,0-2.64,1.52A1.8,1.8,0,0,1,475.39,1125.55Zm326.06-4.74a1.87,1.87,0,0,1-.69-.13,70.72,70.72,0,0,0-8.35-2.79,1.81,1.81,0,0,1,1-3.49,77.26,77.26,0,0,1,8.77,2.94,1.8,1.8,0,0,1-.69,3.47Zm321.43-.36a1.32,1.32,0,0,1-.34,0c-2.7-.52-5.67-1-8.85-1.54a1.81,1.81,0,0,1,.56-3.57c3.22.51,6.24,1,9,1.57a1.81,1.81,0,0,1-.34,3.58Zm-297.18-1.66a1.8,1.8,0,0,1-1.75-1.36,1.82,1.82,0,0,1,1.32-2.2c2.68-.67,5.69-1.31,8.94-1.92a1.81,1.81,0,1,1,.66,3.55c-3.17.59-6.11,1.23-8.73,1.88A1.61,1.61,0,0,1,825.7,1118.79Zm618.11-1.06-.27,0c-2.84-.42-5.84-.83-8.92-1.23a1.8,1.8,0,1,1,.46-3.58c3.1.4,6.13.82,9,1.24a1.8,1.8,0,0,1-.26,3.59Zm-939-.24a1.81,1.81,0,0,1-.27-3.59c2.8-.44,5.83-.88,9-1.3a1.81,1.81,0,1,1,.49,3.58c-3.13.42-6.13.85-8.91,1.29A1.42,1.42,0,0,1,504.76,1117.49Zm677.71-1.6a1.81,1.81,0,0,1-.31-3.59c2.86-.5,5.88-1,9-1.43a1.81,1.81,0,0,1,.52,3.58c-3.07.44-6.05.92-8.88,1.41A1.63,1.63,0,0,1,1182.47,1115.89Zm-95.4-.4h-.19c-2.91-.3-5.91-.59-9-.87a1.81,1.81,0,0,1,.33-3.6q4.62.42,9,.87a1.81,1.81,0,0,1-.18,3.61Zm320.83-1.93h-.17q-4.41-.4-9-.79a1.81,1.81,0,0,1,.3-3.6c3.06.25,6.07.52,9,.79a1.8,1.8,0,0,1-.16,3.6Zm-546.5-.31a1.81,1.81,0,0,1-.18-3.61c2.9-.28,5.94-.56,9-.81a1.79,1.79,0,0,1,2,1.65,1.81,1.81,0,0,1-1.65,2c-3.07.25-6.09.52-9,.81Zm-320.74-.06a1.81,1.81,0,0,1-.16-3.61c2.94-.27,6-.54,9-.79a1.81,1.81,0,0,1,.3,3.6c-3.06.25-6.05.52-9,.79Zm225.61-.26-.24,0c-2.83-.37-5.84-.73-8.93-1.07a1.8,1.8,0,0,1-1.6-2,1.81,1.81,0,0,1,2-1.6c3.12.34,6.15.7,9,1.08a1.81,1.81,0,0,1-.23,3.6Zm284.76-.4h-.12c-3-.19-6-.38-9-.55a1.81,1.81,0,0,1-1.7-1.91,1.83,1.83,0,0,1,1.91-1.7l9,.55a1.81,1.81,0,0,1-.11,3.61Zm167.3-1.08a1.81,1.81,0,0,1-.15-3.61c2.9-.24,5.94-.48,9-.7a1.81,1.81,0,1,1,.25,3.61c-3.08.21-6.1.45-9,.7Zm153.52-.57h-.11c-3-.18-6-.34-9-.5a1.81,1.81,0,1,1,.19-3.61c3,.16,6,.32,9,.5a1.81,1.81,0,0,1-.1,3.61Zm-474.4-.15a1.81,1.81,0,0,1-.08-3.61c3-.14,6-.27,9-.38a1.78,1.78,0,0,1,1.87,1.74,1.8,1.8,0,0,1-1.74,1.87c-3,.11-6,.24-9,.38Zm117.47,0h-.07q-4.49-.18-9-.32a1.82,1.82,0,0,1-1.74-1.87,1.78,1.78,0,0,1,1.86-1.75q4.54.15,9,.33a1.81,1.81,0,0,1-.07,3.61Zm-438.2-.22a1.81,1.81,0,0,1-.11-3.61q4.49-.27,9-.51a1.81,1.81,0,1,1,.19,3.61c-3,.16-6,.33-9,.51Zm402.06-.76h0l-9-.12a1.81,1.81,0,1,1,0-3.61l9.06.11a1.81,1.81,0,0,1,0,3.62Zm-45.2,0a1.81,1.81,0,0,1,0-3.61q4.5-.08,9.05-.1a1.81,1.81,0,1,1,0,3.61c-3,0-6,.06-9,.1Zm-203.3,0h-.11q-4.44-.27-9-.5a1.81,1.81,0,0,1,.18-3.61q4.59.23,9,.5a1.81,1.81,0,0,1-.11,3.61Zm524.13-.3a1.81,1.81,0,0,1-.06-3.61c3-.11,6-.21,9-.3h.06a1.81,1.81,0,0,1,0,3.62c-3,.08-6,.18-9,.29Zm81.32-.06h0c-3-.09-6-.18-9-.25a1.81,1.81,0,0,1-1.76-1.85,1.78,1.78,0,0,1,1.85-1.76c3,.07,6,.16,9,.25a1.81,1.81,0,0,1-.06,3.61Zm-722.89-.49a1.81,1.81,0,0,1-.07-3.61c3-.11,6-.2,9.05-.29h0a1.81,1.81,0,0,1,.06,3.61c-3,.09-6,.18-9,.29Zm686.76-.15h-9a1.81,1.81,0,0,1,0-3.62q4.53,0,9.06,0a1.81,1.81,0,0,1,0,3.61Zm-605.44-.47h0l-9-.17a1.79,1.79,0,0,1-1.78-1.83,1.84,1.84,0,0,1,1.83-1.78c3,.05,6.06.1,9.05.17a1.81,1.81,0,0,1,0,3.61Zm-45.16-.22a1.81,1.81,0,0,1,0-3.61c3,0,6-.06,9-.08h0a1.81,1.81,0,0,1,0,3.62c-3,0-6,0-9,.07Z" style="fill:#fff"/><g id="layer3"><path id="path916" d="M303.24,253.06,84.88,277.32C-.46,286.8-1,417.66,75.55,445.29l227.69,82.12Zm1393.52,0,218.36,24.26c85.34,9.48,85.93,140.34,9.33,168l-227.69,82.12Zm0-209.45V1133.45a200.05,200.05,0,0,1-200.48,200.49H503.72a200.05,200.05,0,0,1-200.48-200.49V43.61Z" style="fill:#fff;stroke:#33302d;stroke-linecap:round;stroke-linejoin:round;stroke-width:10px"/></g></svg>