<?xml version="1.0" encoding="UTF-8"?>
<svg id="Layer_1" data-name="Layer 1" xmlns="http://www.w3.org/2000/svg" width="2000" height="2000" xmlns:xlink="http://www.w3.org/1999/xlink" viewBox="0 0 2000 2000">
  <defs>
    <linearGradient id="linear-gradient" x1="706.83" y1="1681.78" x2="926.18" y2="1681.78" gradientUnits="userSpaceOnUse">
      <stop offset=".07" stop-color="#e87660"/>
      <stop offset=".43" stop-color="#f48062"/>
      <stop offset=".8" stop-color="#ff926c"/>
      <stop offset="1" stop-color="#ff926c"/>
    </linearGradient>
    <linearGradient id="linear-gradient-2" x1="94.98" y1="1681.94" x2="409.51" y2="1681.94" gradientUnits="userSpaceOnUse">
      <stop offset="0" stop-color="#262635"/>
      <stop offset="1" stop-color="#383850"/>
    </linearGradient>
    <linearGradient id="linear-gradient-3" x1="-6456.4" y1="-4672.27" x2="-6271.05" y2="-4672.27" gradientTransform="translate(-5334.04 -3356.05) rotate(-180)" gradientUnits="userSpaceOnUse">
      <stop offset=".02" stop-color="#d1d3d4"/>
      <stop offset=".43" stop-color="#bcbec0"/>
      <stop offset=".8" stop-color="#a7a9ac"/>
      <stop offset="1" stop-color="#939598"/>
    </linearGradient>
    <linearGradient id="linear-gradient-4" x1="1608.39" y1="-4657.09" x2="1884.01" y2="-4657.09" gradientTransform="translate(-1197.46 -3356.05) scale(1 -1)" gradientUnits="userSpaceOnUse">
      <stop offset=".02" stop-color="#23ada9"/>
      <stop offset=".37" stop-color="#25b7a5"/>
      <stop offset=".69" stop-color="#25b7a5"/>
      <stop offset="1" stop-color="#28cebe"/>
    </linearGradient>
    <linearGradient id="linear-gradient-5" x1="6293.08" y1="2822.37" x2="6411.97" y2="2822.37" gradientTransform="translate(-4876.48 -1237.22)" gradientUnits="userSpaceOnUse">
      <stop offset="0" stop-color="#f1f2f2"/>
      <stop offset=".43" stop-color="#e6e7e8"/>
      <stop offset="1" stop-color="#bcbec0"/>
    </linearGradient>
    <linearGradient id="linear-gradient-6" x1="6459.19" y1="2803.78" x2="6569.62" y2="2803.78" xlink:href="#linear-gradient-5"/>
    <linearGradient id="linear-gradient-7" x1="6618.05" y1="2777.26" x2="6710.69" y2="2777.26" xlink:href="#linear-gradient-5"/>
    <linearGradient id="linear-gradient-8" x1="6748.12" y1="2745.88" x2="6817.24" y2="2745.88" xlink:href="#linear-gradient-5"/>
  </defs>
  <rect x="26.28" y="595.78" width="1947.44" height="1372.41" rx="14.01" ry="14.01" style="fill: #e6e7e8; stroke: #3a3632; stroke-linecap: round; stroke-linejoin: round; stroke-width: 24px;"/>
  <rect x="26.28" y="595.78" width="1947.44" height="443.57" rx="8.48" ry="8.48" style="fill: #e6e7e8; stroke: #3a3632; stroke-linecap: round; stroke-linejoin: round; stroke-width: 24px;"/>
  <g>
    <g>
      <g>
        <path d="m335.51,718.82l-85.32-.15c0-48.99,26.04-56.2,26.04-56.2,29.01,0,52.52,80.65,52.52,180.13,0,79.59-18.81,144.1-42.02,144.1-18.56,0-33.61-51.61-33.61-115.28,0-50.93,12.04-92.23,26.89-92.23,11.88,0,21.51,33.03,21.51,73.78,0,32.6-7.71,59.02-17.21,59.02-7.6,0-13.77-21.14-13.77-47.22l30.61.29" style="fill: #f1f2f2; stroke: #3a3632; stroke-linecap: round; stroke-linejoin: round; stroke-width: 20px;"/>
        <path d="m325.56,779.19h-45.55c11.88,0,21.51,33.03,21.51,73.78,0,32.6-7.71,59.02-17.21,59.02" style="fill: #f1f2f2; stroke: #3a3632; stroke-linecap: round; stroke-linejoin: round; stroke-width: 20px;"/>
        <path d="m1609.74,662.47c29.01,0,52.52,80.65,52.52,180.13,0,79.59-18.81,144.1-42.02,144.1H286.73c23.2,0,42.02-64.52,42.02-144.1,0-99.48-23.51-180.13-52.52-180.13h-.03,1333.55Z" style="fill: #fff; stroke: #3a3632; stroke-linecap: round; stroke-linejoin: round; stroke-width: 20px;"/>
      </g>
      <path id="path839" d="m1545.61,785.25c-3.65-83.95-116.7-148.8-210.42-143.38-93.73,5.42-279.24,123.56-279.24,123.56l-839.05,36.5c-22.71.99-40.31,20.2-39.32,42.9.99,22.71,20.2,40.31,42.9,39.32l839.11-36.5c92.74,39.17,190.3,102.56,288.87,98.53,112.34-4.59,200.8-76.98,197.15-160.93Z" style="fill: #ead39a; stroke: #3a3632; stroke-miterlimit: 10; stroke-width: 20px;"/>
    </g>
    <g>
      <path d="m885.97,773.91l-660.68-77.43c-47.89-3.94-89.16,18.1-92.67,60.81h0c-3.52,42.71,33.59,71.21,81.48,75.15l664.45,31.66" style="fill: #231f20;"/>
      <g>
        <path d="m1108.85,571.18h162.37c9.21,0,16.68,7.47,16.68,16.68v499.31c0,13.22-10.73,23.95-23.95,23.95h-225.27c-13.22,0-23.95-10.73-23.95-23.95v-421.87c0-51.95,42.18-94.12,94.12-94.12Z" transform="translate(2084.09 -237.27) rotate(94.71)" style="fill: #fff; stroke: #3a3632; stroke-linecap: round; stroke-linejoin: round; stroke-width: 23.73px;"/>
        <path d="m1064.4,773.84l174.51,14.37c51.55,4.24,90.27,44.95,86.48,90.92l-2.76,33.5" style="fill: #fff; stroke: #3a3632; stroke-linecap: round; stroke-linejoin: round; stroke-width: 23.73px;"/>
      </g>
    </g>
  </g>
  <g>
    <g>
      <path d="m1090.5,254.47h-95.98c-32.05,0-63.78,6.64-92.98,19.87-91.37,41.4-229.84,86.53-329.2,86.53-196.29,0-264.54-68.35-264.54-152.67,0-84.32,68.25-152.67,264.54-152.67,99.36,0,237.84,45.13,329.2,86.53,29.19,13.23,60.93,19.87,92.98,19.87h95.98" style="fill: #fff; stroke: #3a3632; stroke-linecap: round; stroke-linejoin: round; stroke-width: 24px;"/>
      <path d="m307.8,208.2c0,32.94,68.25,59.64,264.54,59.64,115.53,0,256.64-21.87,349.01-39.99,14.38-2.82,28.96-4.22,43.61-4.22h125.54" style="fill: #fff; stroke: #3a3632; stroke-linecap: round; stroke-linejoin: round; stroke-width: 24px;"/>
      <path d="m1090.5,192.78h-125.54c-14.65,0-29.24-1.4-43.61-4.22-92.37-18.12-233.48-39.99-349.01-39.99-196.29,0-264.54,26.7-264.54,59.64" style="fill: #fff; stroke: #3a3632; stroke-linecap: round; stroke-linejoin: round; stroke-width: 24px;"/>
    </g>
    <path d="m1065.67,131.74h446.98c48,0,87.28,28.46,87.28,76.46h0c0,48-39.27,76.46-87.28,76.46h-446.98c-10.32,0-18.68-8.37-18.68-18.69v-115.56c0-10.32,8.37-18.68,18.68-18.68Z" style="fill: #e6e7e8; stroke: #3a3632; stroke-linecap: round; stroke-linejoin: round; stroke-width: 23.73px;"/>
  </g>
  <rect x="1204.22" y="1043.24" width="174.62" height="924.95" rx="3.33" ry="3.33" style="fill: #fff; stroke: #3a3632; stroke-linecap: round; stroke-linejoin: round; stroke-width: 24px;"/>
  <path d="m1382.58,1968.19h587.39c2.06,0,3.74-1.69,3.74-3.74v-346.27c0-2.06-1.69-3.74-3.74-3.74l-587.39,205.36c-2.06,0-3.74,1.69-3.74,3.74v140.92c0,2.06,1.69,3.74,3.74,3.74Z" style="fill: #fff; stroke: #3a3632; stroke-linecap: round; stroke-linejoin: round; stroke-width: 24px;"/>
  <path d="m944.59,1666.47c-4.48,89.97-57.63,198.46-128.09,198.78-70.47-.32-123.61-108.81-128.09-198.78-1.52-30.52,0-63.81,0-63.81,0-36.32,20.13-68.18,49.78-84.95,10.25-5.8,16.56-16.68,16.56-28.45v-316.04h123.5v316.04c0,11.77,6.31,22.65,16.56,28.45,29.65,16.78,49.78,48.63,49.78,84.95,0,0,1.52,33.29,0,63.81Zm-113.97-297.3v-136.05c0-7.8-6.32-14.12-14.12-14.12h0c-7.8,0-14.12,6.32-14.12,14.12v136.05c0,7.8,6.32,14.12,14.12,14.12h0c7.8,0,14.12-6.32,14.12-14.12Z" style="fill: #ff926c; stroke: #3a3632; stroke-miterlimit: 11.34; stroke-width: 20px;"/>
  <path d="m816.52,1524.15h26.02c45.68,0,83.06,38.42,83.06,85.38,0,0,1.3,29.14,0,55.87-3.83,78.88-49.22,174.03-109.37,174.03h0,.54s0,0,0,0c-60.15,0-105.54-95.15-109.37-174.03-1.3-26.72,0-55.87,0-55.87,0-46.96,37.38-85.38,83.06-85.38h26.06Z" style="fill: url(#linear-gradient);"/>
  <path d="m550.05,1075.85c.13,0,.26,0,.39,0,.13,0,.26,0,.39,0h-.78Z" style="fill: #28cebe; stroke: #3a3632; stroke-miterlimit: 11.34; stroke-width: 2.52px;"/>
  <path d="m816.85,1888.92c-.12,0-.23,0-.35,0-.12,0-.23,0-.35,0h.69Z" style="fill: #ff926c; stroke: #3a3632; stroke-miterlimit: 11.34; stroke-width: 2.52px;"/>
  <path d="m1074.14,1191.09c.09,0,.18,0,.28,0,.09,0,.18,0,.28,0h-.55Z" style="fill: #d1d3d4; stroke: #3a3632; stroke-miterlimit: 11.34; stroke-width: 2.52px;"/>
  <path d="m708.17,1399.21c0,47.78-28.28,89.28-68.93,108.57-12.67,6.01-20.88,18.63-20.88,32.65v326.18h-135.84v-326.18c0-14.02-8.21-26.64-20.88-32.65-40.65-19.3-68.93-60.79-68.93-108.57,0,0-1.87-40.99,0-78.58,5.52-110.79,70.96-244.38,157.73-244.78,86.77.4,152.21,133.99,157.73,244.78,1.87,37.59,0,78.58,0,78.58Zm-143.61,418.82v-136.05c0-7.8-6.32-14.12-14.12-14.12h0c-7.8,0-14.12,6.32-14.12,14.12v136.05c0,7.8,6.32,14.12,14.12,14.12h0c7.8,0,14.12-6.32,14.12-14.12Z" style="fill: #28cebe; stroke: #3a3632; stroke-miterlimit: 11.34; stroke-width: 20px;"/>
  <path d="m73.8,1569.76c0-54.06,32-101,77.98-122.83,14.33-6.8,23.62-21.08,23.62-36.94v-304.46h153.68v304.46c0,15.87,9.29,30.14,23.62,36.94,45.99,21.83,77.98,68.78,77.98,122.83,0,0,2.12,46.37,0,88.9-6.25,125.34-80.28,276.47-178.44,276.92-98.17-.45-172.2-151.59-178.44-276.92-2.12-42.52,0-88.9,0-88.9Zm162.47-409.26v153.92c0,8.82,7.15,15.98,15.98,15.98h0c8.82,0,15.98-7.15,15.98-15.98v-153.92c0-8.82-7.15-15.98-15.98-15.98h0c-8.82,0-15.98,7.15-15.98,15.98Z" style="fill: #383850; stroke: #3a3632; stroke-miterlimit: 11.34; stroke-width: 20px;"/>
  <path d="m1141.84,1385.5c0,31.81-17.62,59.7-43.59,74.39-8.97,5.08-14.5,14.6-14.5,24.91v357.84h-108.14v-357.84c0-10.31-5.53-19.83-14.5-24.91-25.96-14.69-43.59-42.58-43.59-74.39,0,0-1.33-29.15,0-55.88,3.93-78.78,50.46-173.77,112.16-174.05,61.7.28,108.23,95.28,112.16,174.05,1.33,26.73,0,55.88,0,55.88Zm-98.03,386.25v-136.05c0-7.8-6.32-14.12-14.12-14.12h0c-7.8,0-14.12,6.32-14.12,14.12v136.05c0,7.8,6.32,14.12,14.12,14.12h0c7.8,0,14.12-6.32,14.12-14.12Z" style="fill: #d1d3d4; stroke: #3a3632; stroke-miterlimit: 11.34; stroke-width: 20px;"/>
  <path d="m816.38,1761.48h0c28.27,0,49.6-51.21,51.4-93.66.61-14.38,0-30.07,0-30.07,0-25.27-17.57-45.95-39.04-45.95h-12.23s-.02,0-.02,0h-12.23c-21.47,0-39.04,20.68-39.04,45.95,0,0-.61,15.68,0,30.07,1.8,42.45,23.13,93.66,51.4,93.66h0-.25Z" style="fill: #ff926c;"/>
  <path d="m252.28,1455.91h37.31c65.51,0,119.11,55.09,119.11,122.42,0,0,1.86,41.79,0,80.11-5.49,113.11-70.57,249.54-156.83,249.54h0,.77s0,0,0,0c-86.25,0-151.34-136.43-156.83-249.54-1.86-38.32,0-80.11,0-80.11,0-67.33,53.6-122.42,119.11-122.42h37.36Z" style="fill: url(#linear-gradient-2);"/>
  <path d="m252.07,1796.23h0c40.54,0,71.13-73.43,73.7-134.3.87-20.62,0-43.11,0-43.11,0-36.24-25.19-65.89-55.98-65.89h-17.53s-.03,0-.03,0h-17.53c-30.79,0-55.98,29.65-55.98,65.89,0,0-.87,22.49,0,43.11,2.58,60.88,33.17,134.3,73.7,134.3h0-.36Z" style="fill: #383850;"/>
  <path d="m1029.67,1449.43h-21.98c-38.6,0-70.19-32.46-70.19-72.14,0,0-1.1-24.63,0-47.21,3.23-66.66,41.59-147.06,92.42-147.06h0s-.45,0-.45,0h0c50.83,0,89.18,80.4,92.42,147.06,1.1,22.58,0,47.21,0,47.21,0,39.68-31.59,72.14-70.19,72.14h-21.98s-.03,0-.03,0Z" style="fill: url(#linear-gradient-3);"/>
  <path d="m1029.79,1248.88h0c-23.89,0-41.91,43.27-43.43,79.15-.51,12.15,0,25.41,0,25.41,0,21.36,14.84,38.83,32.99,38.83h10.33s.02,0,.02,0h10.33c18.14,0,32.99-17.47,32.99-38.83,0,0,.51-13.25,0-25.41-1.52-35.87-19.55-79.15-43.43-79.15h0s.21,0,.21,0Z" style="fill: #d1d3d4;"/>
  <path d="m548.77,1499.11h32.69c57.4,0,104.37-48.27,104.37-107.28,0,0,1.63-36.62,0-70.19-4.81-99.11-61.84-218.67-137.42-218.67h0s.67,0,.67,0h0c-75.58,0-132.61,119.55-137.42,218.67-1.63,33.58,0,70.19,0,70.19,0,59,46.97,107.28,104.37,107.28h32.69s.05,0,.05,0Z" style="fill: url(#linear-gradient-4);"/>
  <path d="m548.9,1200.9h0c-35.52,0-62.33,64.34-64.58,117.69-.77,18.07,0,37.78,0,37.78,0,31.75,22.07,57.74,49.05,57.74h15.36s.02,0,.02,0h15.36c26.98,0,49.05-25.98,49.05-57.74,0,0,.77-19.71,0-37.78-2.26-53.34-29.06-117.69-64.58-117.69h0s.32,0,.32,0Z" style="fill: #28cebe;"/>
  <g>
    <g>
      <path d="m1476.22,1688.19c-.06,0-.12,0-.18,0-.06,0-.12,0-.18,0h.36Z" style="fill: #e6e7e8; stroke: #3a3632; stroke-miterlimit: 11.34; stroke-width: 20px;"/>
      <path d="m1403.45,1575.54c2.54,50.99,32.66,112.47,72.59,112.65,39.94-.18,70.05-61.67,72.59-112.65.86-17.3,0-36.16,0-36.16,0-20.52-11.33-38.52-28.04-48.05-7.47-4.26-12.04-12.24-12.04-20.84v-369.44h-65.01v369.44c0,8.6-4.57,16.58-12.04,20.84-16.71,9.53-28.04,27.53-28.04,48.05,0,0-.86,18.87,0,36.16Zm64.18-420.15c0-4.65,3.77-8.41,8.41-8.41s8.41,3.77,8.41,8.41v176.36c0,4.65-3.77,8.41-8.41,8.41s-8.41-3.77-8.41-8.41v-176.36Z" style="fill: #f1f2f2; stroke: #3a3632; stroke-miterlimit: 11.34; stroke-width: 20px;"/>
    </g>
    <path d="m1476.05,1499.71h14.1c24.76,0,45.02,20.82,45.02,46.27,0,0,.7,15.8,0,30.28-2.07,42.75-26.67,94.32-59.28,94.32h0s.29,0,.29,0h0c-32.6,0-57.2-51.57-59.28-94.32-.7-14.48,0-30.28,0-30.28,0-25.45,20.26-46.27,45.02-46.27h14.1s.02,0,.02,0Z" style="fill: url(#linear-gradient-5);"/>
    <path d="m1475.97,1628.34h0c15.32,0,26.88-27.75,27.86-50.76.33-7.8,0-16.3,0-16.3,0-13.7-9.52-24.9-21.16-24.9h-6.63s0,0,0,0h-6.63c-11.64,0-21.16,11.21-21.16,24.9,0,0-.33,8.5,0,16.3.97,23.01,12.54,50.76,27.86,50.76h0s-.14,0-.14,0Z" style="fill: #f1f2f2;"/>
    <path d="m1452.8,1471.55v-352.78c0-4.93,3.99-8.92,8.92-8.92h28.64c4.93,0,8.92,3.99,8.92,8.92v352.78c0,4.93-3.99,8.92-8.92,8.92h-28.64c-4.93,0-8.92-3.99-8.92-8.92Zm23.24-131.39h0c4.65,0,8.42-3.77,8.42-8.41v-176.36c0-4.65-3.77-8.41-8.42-8.41h0c-4.65,0-8.41,3.77-8.41,8.41v176.36c0,4.65,3.77,8.41,8.41,8.41Z" style="fill: #92278f;"/>
    <path d="m1476.04,1340.16h0c4.65,0,8.42-3.77,8.42-8.41v-176.36c0-4.65-3.77-8.41-8.42-8.41h0c-4.65,0-8.41,3.77-8.41,8.41v176.36c0,4.65,3.77,8.41,8.41,8.41Z" style="fill: none; stroke: #3a3632; stroke-miterlimit: 11.34; stroke-width: 20px;"/>
  </g>
  <g>
    <g>
      <path d="m1638.09,1662.28c-.06,0-.11,0-.17,0-.06,0-.11,0-.17,0h.33Z" style="fill: #e6e7e8; stroke: #3a3632; stroke-miterlimit: 11.34; stroke-width: 20px;"/>
      <path d="m1570.49,1557.63c2.36,47.36,30.33,104.47,67.43,104.64,37.09-.17,65.07-57.28,67.43-104.64.8-16.07,0-33.59,0-33.59,0-18.17-9.57-34.21-23.91-43.34-6.89-4.39-11.01-12.04-11.01-20.21v-359.45h-65.01v359.45c0,8.17-4.12,15.82-11.01,20.21-14.35,9.13-23.91,25.17-23.91,43.34,0,0-.8,17.52,0,33.59Zm59.01-402.25c0-4.65,3.77-8.41,8.41-8.41s8.42,3.77,8.42,8.41v164.96c0,4.65-3.77,8.41-8.42,8.41s-8.41-3.77-8.41-8.41v-164.96Z" style="fill: #f1f2f2; stroke: #3a3632; stroke-miterlimit: 11.34; stroke-width: 20px;"/>
    </g>
    <path d="m1614.68,1460.16v-341.38c0-4.93,3.99-8.92,8.92-8.92h28.64c4.93,0,8.92,3.99,8.92,8.92v341.38c0,4.93-3.99,8.92-8.92,8.92h-28.64c-4.93,0-8.92-3.99-8.92-8.92Zm23.24-131.39h0c4.65,0,8.42-3.77,8.42-8.41v-164.96c0-4.65-3.77-8.41-8.42-8.41h0c-4.65,0-8.41,3.77-8.41,8.41v164.96c0,4.65,3.77,8.41,8.41,8.41Z" style="fill: #ef4136;"/>
    <path d="m1637.92,1328.76h0c4.65,0,8.42-3.77,8.42-8.41v-164.96c0-4.65-3.77-8.41-8.42-8.41h0c-4.65,0-8.41,3.77-8.41,8.41v164.96c0,4.65,3.77,8.41,8.41,8.41Z" style="fill: none; stroke: #3a3632; stroke-miterlimit: 11.34; stroke-width: 20px;"/>
    <path d="m1637.93,1487.2h13.1c23,0,41.82,19.34,41.82,42.98,0,0,.65,14.67,0,28.13-1.93,39.71-24.78,87.61-55.06,87.61h0s.27,0,.27,0h0c-30.28,0-53.13-47.9-55.06-87.61-.65-13.45,0-28.13,0-28.13,0-23.64,18.82-42.98,41.82-42.98h13.1s.02,0,.02,0Z" style="fill: url(#linear-gradient-6);"/>
    <path d="m1637.86,1606.69h0c14.23,0,24.97-25.78,25.88-47.15.31-7.24,0-15.14,0-15.14,0-12.72-8.84-23.13-19.65-23.13h-6.16s0,0,0,0h-6.16c-10.81,0-19.65,10.41-19.65,23.13,0,0-.31,7.9,0,15.14.91,21.37,11.64,47.15,25.88,47.15h0s-.13,0-.13,0Z" style="fill: #f1f2f2;"/>
  </g>
  <g>
    <g>
      <path d="m1788.03,1620.33s-.09,0-.14,0c-.05,0-.09,0-.14,0h.28Z" style="fill: #e6e7e8; stroke: #3a3632; stroke-miterlimit: 11.34; stroke-width: 20px;"/>
      <path d="m1731.33,1532.55c1.98,39.73,25.45,87.63,56.56,87.77,31.12-.14,54.58-48.05,56.56-87.77.67-13.48,0-28.18,0-28.18,0-13.16-5.98-24.98-15.36-32.9-5.47-4.62-8.7-11.36-8.7-18.51v-351.92h-65.01v351.92c0,7.16-3.23,13.9-8.7,18.51-9.38,7.91-15.36,19.74-15.36,32.9,0,0-.67,14.7,0,28.18Zm48.15-377.16c0-4.65,3.77-8.41,8.41-8.41s8.42,3.77,8.42,8.41v153.56c0,4.65-3.77,8.41-8.42,8.41s-8.41-3.77-8.41-8.41v-153.56Z" style="fill: #f1f2f2; stroke: #3a3632; stroke-miterlimit: 11.34; stroke-width: 20px;"/>
    </g>
    <path d="m1764.65,1448.76v-329.98c0-4.93,3.99-8.92,8.92-8.92h28.64c4.93,0,8.92,3.99,8.92,8.92v329.98c0,4.93-3.99,8.92-8.92,8.92h-28.64c-4.93,0-8.92-3.99-8.92-8.92Zm23.24-131.39h0c4.65,0,8.42-3.77,8.42-8.41v-153.56c0-4.65-3.77-8.41-8.42-8.41h0c-4.65,0-8.41,3.77-8.41,8.41v153.56c0,4.65,3.77,8.41,8.41,8.41Z" style="fill: #a6db52;"/>
    <path d="m1787.89,1317.37h0c4.65,0,8.42-3.77,8.42-8.41v-153.56c0-4.65-3.77-8.41-8.42-8.41h0c-4.65,0-8.41,3.77-8.41,8.41v153.56c0,4.65,3.77,8.41,8.41,8.41Z" style="fill: none; stroke: #3a3632; stroke-miterlimit: 11.34; stroke-width: 20px;"/>
    <path d="m1787.9,1473.47h10.99c19.29,0,35.08,16.22,35.08,36.05,0,0,.55,12.31,0,23.59-1.62,33.31-20.78,73.49-46.19,73.49h0s.23,0,.23,0h0c-25.4,0-44.57-40.18-46.19-73.49-.55-11.29,0-23.59,0-23.59,0-19.83,15.79-36.05,35.08-36.05h10.99s.02,0,.02,0Z" style="fill: url(#linear-gradient-7);"/>
    <path d="m1787.83,1573.69h0c11.94,0,20.95-21.63,21.71-39.55.26-6.07,0-12.7,0-12.7,0-10.67-7.42-19.4-16.49-19.4h-5.16s0,0,0,0h-5.16c-9.07,0-16.49,8.73-16.49,19.4,0,0-.26,6.62,0,12.7.76,17.93,9.77,39.55,21.71,39.55h0s-.11,0-.11,0Z" style="fill: #f1f2f2;"/>
  </g>
  <g>
    <g>
      <path d="m1863.99,1503.07c1.48,29.65,18.99,65.39,42.21,65.5,23.22-.11,40.73-35.85,42.21-65.5.5-10.06,0-16.24,0-16.24,0-6.72-2.1-17.77-5.66-22.94-2.7-3.91-4.04-8.59-4.04-13.34v-349.51h-65.01v349.51c0,4.75-1.34,9.43-4.04,13.34-3.57,5.17-5.66,16.22-5.66,22.94,0,0-.5,6.18,0,16.24Zm33.79-347.69c0-4.65,3.77-8.41,8.41-8.41s8.42,3.77,8.42,8.41v142.17c0,4.65-3.77,8.41-8.42,8.41s-8.41-3.77-8.41-8.41v-142.17Z" style="fill: #f1f2f2; stroke: #3a3632; stroke-miterlimit: 11.34; stroke-width: 20px;"/>
      <path d="m1906.3,1568.57s-.07,0-.1,0c-.03,0-.07,0-.1,0h.21Z" style="fill: #e6e7e8; stroke: #3a3632; stroke-miterlimit: 11.34; stroke-width: 20px;"/>
    </g>
    <path d="m1882.96,1437.36v-318.58c0-4.93,3.99-8.92,8.92-8.92h28.64c4.93,0,8.92,3.99,8.92,8.92v318.58c0,4.93-3.99,8.92-8.92,8.92h-28.64c-4.93,0-8.92-3.99-8.92-8.92Zm23.24-131.39h0c4.65,0,8.42-3.77,8.42-8.41v-142.17c0-4.65-3.77-8.41-8.42-8.41h0c-4.65,0-8.41,3.77-8.41,8.41v142.17c0,4.65,3.77,8.41,8.41,8.41Z" style="fill: #ffde1a;"/>
    <path d="m1906.2,1305.97h0c4.65,0,8.42-3.77,8.42-8.41v-142.17c0-4.65-3.77-8.41-8.42-8.41h0c-4.65,0-8.41,3.77-8.41,8.41v142.17c0,4.65,3.77,8.41,8.41,8.41Z" style="fill: none; stroke: #3a3632; stroke-miterlimit: 11.34; stroke-width: 20px;"/>
    <path d="m1906.2,1458.98h8.2c14.4,0,26.18,12.11,26.18,26.91,0,0,.41,9.18,0,17.61-1.21,24.86-15.51,54.84-34.47,54.84h0s.17,0,.17,0h0c-18.96,0-33.26-29.98-34.47-54.84-.41-8.42,0-17.61,0-17.61,0-14.8,11.78-26.91,26.18-26.91h8.2s.01,0,.01,0Z" style="fill: url(#linear-gradient-8);"/>
    <path d="m1906.16,1533.78h0c8.91,0,15.63-16.14,16.2-29.52.19-4.53,0-9.48,0-9.48,0-7.96-5.54-14.48-12.3-14.48h-3.85s0,0,0,0h-3.85c-6.77,0-12.3,6.52-12.3,14.48,0,0-.19,4.94,0,9.48.57,13.38,7.29,29.52,16.2,29.52h0s-.08,0-.08,0Z" style="fill: #f1f2f2;"/>
  </g>
  <rect x="824.58" y="335.05" width="122.76" height="1030.42" rx="17.19" ry="17.19" transform="translate(1683.92 -83.09) rotate(86.71)" style="fill: #ead39a; stroke: #3a3632; stroke-miterlimit: 10; stroke-width: 20px;"/>
  <rect x="26.28" y="595.78" width="1947.44" height="443.57" rx="8.48" ry="8.48" style="fill: none; stroke: #ed1c24; stroke-dasharray: 0 0 20.03 50.08; stroke-linecap: round; stroke-linejoin: round; stroke-width: 24px;"/>
  <g id="layer5">
    <g id="g986">
      <path id="rect981" d="m1000,515.29v-188.84m67.31,121.53l-67.31,79.33-67.31-79.33" style="fill: none; stroke: #3a3632; stroke-linecap: round; stroke-linejoin: round; stroke-width: 24px;"/>
    </g>
  </g>
</svg>