<svg xmlns="http://www.w3.org/2000/svg" xmlns:xlink="http://www.w3.org/1999/xlink" height="631.67" width="1924.013" xmlns:v="https://vecta.io/nano"><style><![CDATA[.B{stroke:#231f20}.C{stroke-miterlimit:10}.D{fill:none}.E{stroke-linecap:round}.F{stroke-width:7.79}.G{fill:#cda87a}.H{stroke-width:3.895}]]></style><g fill="#f1f2f2" class="B C"><path d="M1900.55 570.9l-63 41.1a47.7 47.7 0 0 1-26 7.67H112.25a47.7 47.7 0 0 1-25.66-7.44L27.5 574.5" stroke-width="15.581"/><path d="M1841.25 590.3H82.75c-53.37 0-82.72-29.87-66.1-65.56l221.75-476.4C247.84 28.08 286.64 12 325.28 12h1273.44c38.64 0 77.44 16.06 86.9 36.34l221.75 476.4c16.64 35.7-12.74 65.58-66.1 65.58z" stroke-width="24"/></g><g class="F B"><path d="M62.4 542.37L270.09 83.1c7.7-17.06 40.13-30.62 72.57-30.62h1238.66c32.44 0 64.86 13.56 72.56 30.62L1859.42 536" stroke-linejoin="round" class="D E"/><path d="M540 123.16c0-37.6-34.9-79.32-77.95-79.32s-77.95 41.73-77.95 79.32S419 180 462.07 180 540 160.75 540 123.16z" class="C G"/></g><g class="D E H B C"><use xlink:href="#B"/><path d="M473 124.45l.57.33a2.63 2.63 0 0 0 3.64-1l1-1.88a2.63 2.63 0 0 1 4.62 0h0a2.62 2.62 0 0 0 4.61 0h0a2.63 2.63 0 0 1 4.62 0l1 1.88a2.62 2.62 0 0 0 3.63 1l.57-.33m-29.9-49.8l.46.47a2.62 2.62 0 0 0 3.77 0l1.47-1.55a2.63 2.63 0 0 1 4.46 1.2h0a2.62 2.62 0 0 0 4.45 1.21h0a2.63 2.63 0 0 1 4.46 1.2l.5 2.08a2.62 2.62 0 0 0 3.25 1.92l.63-.17"/></g><path d="M882.77 123.16c0-37.6-34.9-79.32-77.95-79.32s-78 41.73-78 79.32 34.9 56.82 78 56.82 77.95-19.23 77.95-56.82z" class="B C F G"/><g class="D E H B C"><use xlink:href="#B" x="342.75"/><path d="M815.7 124.45l.57.33a2.63 2.63 0 0 0 3.64-1l1-1.88a2.63 2.63 0 0 1 4.62 0h0a2.62 2.62 0 0 0 4.61 0h0a2.63 2.63 0 0 1 4.62 0l1 1.88a2.63 2.63 0 0 0 3.64 1l.57-.33m-29.9-49.8l.47.47a2.62 2.62 0 0 0 3.77 0l1.47-1.55a2.63 2.63 0 0 1 4.46 1.2h0a2.62 2.62 0 0 0 4.45 1.21h0a2.63 2.63 0 0 1 4.46 1.2l.5 2.08a2.62 2.62 0 0 0 3.25 1.92l.63-.17"/></g><path d="M1225.52 123.16c0-37.6-34.9-79.32-78-79.32s-78 41.73-78 79.32 34.9 56.82 78 56.82 78-19.23 78-56.82z" class="B C F G"/><g class="D E H B C"><path d="M1103.75 95.76l.64.14a2.63 2.63 0 0 0 3.16-2.07l.4-2.1a2.61 2.61 0 0 1 4.39-1.4h0a2.63 2.63 0 0 0 4.4-1.4h0a2.62 2.62 0 0 1 4.4-1.4l1.54 1.47a2.63 2.63 0 0 0 3.77-.13l.44-.5"/><use xlink:href="#C"/><use xlink:href="#D"/></g><path d="M1568.26 123.16c0-37.6-34.9-79.32-77.94-79.32s-78 41.73-78 79.32 34.9 56.82 78 56.82 77.94-19.23 77.94-56.82z" class="B C F G"/><g class="D E H B C"><path d="M1446.5 95.76l.64.14a2.63 2.63 0 0 0 3.16-2.07l.4-2.1a2.62 2.62 0 0 1 4.4-1.4h0a2.63 2.63 0 0 0 4.4-1.4h0a2.62 2.62 0 0 1 4.4-1.4l1.54 1.47a2.63 2.63 0 0 0 3.77-.13l.44-.5"/><use xlink:href="#C" x="342.75"/><use xlink:href="#D" x="342.75"/></g><path d="M478.46 274.55c0-42.55-39.5-89.78-88.23-89.78S302 232 302 274.55s39.5 64.3 88.22 64.3 88.24-21.75 88.24-64.3z" class="B C F G"/><g class="D E H B C"><use xlink:href="#E"/><path d="M402.56 276l.65.37a3 3 0 0 0 4.11-1.15l1.15-2.12a3 3 0 0 1 5.23 0h0a3 3 0 0 0 5.22 0h0a3 3 0 0 1 5.22 0l1.15 2.12a3 3 0 0 0 4.12 1.15l.64-.37m-33.84-56.37l.52.53a3 3 0 0 0 4.27 0l1.66-1.75a3 3 0 0 1 5 1.36h0a3 3 0 0 0 5 1.36h0a3 3 0 0 1 5.05 1.36l.55 2.35A3 3 0 0 0 422 227l.73-.2"/></g><use xlink:href="#F" class="B C F G"/><path d="M728.57 243.53l.73.17a3 3 0 0 0 3.57-2.35l.45-2.37a3 3 0 0 1 5-1.58h0a3 3 0 0 0 5-1.59h0a3 3 0 0 1 5-1.58l1.68 1.67a3 3 0 0 0 4.26-.15l.5-.56M790.5 276l.64.37a3 3 0 0 0 4.12-1.15l1.15-2.12a3 3 0 0 1 5.22 0h0a3 3 0 0 0 5.22 0h0a3 3 0 0 1 5.23 0l1.15 2.12a3 3 0 0 0 4.11 1.15l.66-.37m-33.86-56.37l.53.53a3 3 0 0 0 4.27 0l1.66-1.75a3 3 0 0 1 5 1.36h0a3 3 0 0 0 5.05 1.36h0a3 3 0 0 1 5 1.36l.56 2.35A3 3 0 0 0 810 227l.72-.2" class="D E H B C"/><path d="M1254.33 274.55c0-42.55-39.5-89.78-88.23-89.78s-88.22 47.23-88.22 89.78 39.5 64.3 88.22 64.3 88.23-21.75 88.23-64.3z" class="B C F G"/><path d="M1116.5 243.53l.73.17a3 3 0 0 0 3.57-2.35l.46-2.37a3 3 0 0 1 5-1.58h0a3 3 0 0 0 5-1.59h0a3 3 0 0 1 5-1.58l1.74 1.67a3 3 0 0 0 4.27-.15l.5-.56m35.66 40.8l.65.37a3 3 0 0 0 4.11-1.15l1.15-2.12a3 3 0 0 1 5.22 0h0a3 3 0 0 0 5.23 0h0a3 3 0 0 1 5.22 0l1.15 2.12a3 3 0 0 0 4.11 1.15l.65-.37m-33.85-56.37l.53.53a3 3 0 0 0 4.27 0l1.66-1.75a3 3 0 0 1 5 1.36h0a3 3 0 0 0 5 1.36h0a3 3 0 0 1 5 1.36l.56 2.35a3 3 0 0 0 3.67 2.18l.72-.2" class="D E H B C"/><use xlink:href="#F" x="775.87" class="B C F G"/><g class="D E H B C"><use xlink:href="#E" x="1163.8"/><path d="M1566.36 276l.65.37a3 3 0 0 0 4.11-1.15l1.15-2.12a3 3 0 0 1 5.23 0h0a3 3 0 0 0 5.22 0h0a3 3 0 0 1 5.23 0l1.15 2.12a3 3 0 0 0 4.11 1.15l.64-.37M1560 219.63l.52.53a3 3 0 0 0 4.27 0l1.67-1.75a3 3 0 0 1 5 1.36h0a3 3 0 0 0 5 1.36h0a3 3 0 0 1 5 1.36l.55 2.35a3 3 0 0 0 3.68 2.18l.72-.2"/></g><path d="M421.28 451.1c0-46.6-43.27-98.34-96.64-98.34S228 404.48 228 451.1s43.26 70.44 96.63 70.44 96.65-23.84 96.65-70.44z" class="B C F G"/><g class="D E H B C"><path d="M270.32 417.12l.8.18a3.26 3.26 0 0 0 3.91-2.57l.5-2.6a3.25 3.25 0 0 1 5.48-1.73h0a3.26 3.26 0 0 0 5.46-1.74h0a3.25 3.25 0 0 1 5.45-1.74l1.9 1.84a3.27 3.27 0 0 0 4.68-.17l.5-.6m39.15 44.7l.7.42a3.26 3.26 0 0 0 4.51-1.26l1.26-2.33a3.25 3.25 0 0 1 5.72 0h0a3.25 3.25 0 0 0 5.72 0h0a3.26 3.26 0 0 1 5.73 0l1.26 2.33a3.24 3.24 0 0 0 4.5 1.26l.7-.42"/><use xlink:href="#G"/></g><path d="M846.2 451.1c0-46.6-43.27-98.34-96.64-98.34s-96.63 51.73-96.63 98.34 43.26 70.44 96.63 70.44 96.64-23.84 96.64-70.44z" class="B C F G"/><g class="D E H B C"><path d="M695.24 417.12l.8.18a3.26 3.26 0 0 0 3.91-2.57l.5-2.6a3.25 3.25 0 0 1 5.45-1.73h0a3.26 3.26 0 0 0 5.46-1.74h0a3.25 3.25 0 0 1 5.45-1.74l1.9 1.84a3.27 3.27 0 0 0 4.68-.17l.55-.6"/><use xlink:href="#H"/><use xlink:href="#G" x="424.92"/></g><path d="M1271.11 451.1c0-46.6-43.26-98.34-96.63-98.34s-96.63 51.73-96.63 98.34 43.26 70.44 96.63 70.44 96.63-23.84 96.63-70.44z" class="B C F G"/><g class="D E H B C"><path d="M1120.15 417.12l.8.18a3.25 3.25 0 0 0 3.91-2.57l.5-2.6a3.25 3.25 0 0 1 5.45-1.73h0a3.25 3.25 0 0 0 5.45-1.74h0a3.26 3.26 0 0 1 5.46-1.74l1.9 1.84a3.27 3.27 0 0 0 4.68-.17l.54-.6"/><use xlink:href="#H" x="424.93"/><path d="M1181 390.93l.58.6a3.25 3.25 0 0 0 4.67 0l1.83-1.92a3.25 3.25 0 0 1 5.52 1.49h0a3.25 3.25 0 0 0 5.52 1.49h0a3.26 3.26 0 0 1 5.53 1.49l.6 2.58a3.26 3.26 0 0 0 4 2.39l.8-.22"/></g><path d="M1696 451.1c0-46.6-43.26-98.34-96.63-98.34s-96.64 51.73-96.64 98.34 43.27 70.44 96.64 70.44S1696 497.7 1696 451.1z" class="B C F G"/><path d="M1545.07 417.12l.8.18a3.25 3.25 0 0 0 3.91-2.57l.5-2.6a3.25 3.25 0 0 1 5.45-1.73h0a3.25 3.25 0 0 0 5.45-1.74h0a3.26 3.26 0 0 1 5.46-1.74l1.9 1.84a3.26 3.26 0 0 0 4.67-.17l.55-.6m39.14 44.7l.7.42a3.24 3.24 0 0 0 4.5-1.26l1.26-2.33a3.26 3.26 0 0 1 5.73 0h0a3.25 3.25 0 0 0 5.72 0h0a3.25 3.25 0 0 1 5.72 0l1.26 2.33a3.26 3.26 0 0 0 4.51 1.26l.7-.42m-37.06-61.75l.57.6a3.26 3.26 0 0 0 4.68 0l1.82-1.92a3.26 3.26 0 0 1 5.53 1.49h0a3.25 3.25 0 0 0 5.52 1.49h0a3.26 3.26 0 0 1 5.53 1.49l.6 2.58a3.25 3.25 0 0 0 4 2.39l.8-.22" class="D E H B C"/><defs ><path id="B" d="M418.25 95.76l.64.14a2.63 2.63 0 0 0 3.16-2.07l.4-2.1a2.62 2.62 0 0 1 4.39-1.4h0a2.63 2.63 0 0 0 4.4-1.4h0a2.62 2.62 0 0 1 4.4-1.4l1.54 1.47a2.62 2.62 0 0 0 3.77-.13l.44-.5"/><path id="C" d="M1158.46 124.45l.57.33a2.62 2.62 0 0 0 3.63-1l1-1.88a2.63 2.63 0 0 1 4.62 0h0a2.62 2.62 0 0 0 4.61 0h0a2.63 2.63 0 0 1 4.62 0l1 1.88a2.63 2.63 0 0 0 3.64 1l.57-.33"/><path id="D" d="M1152.84 74.64l.47.47a2.62 2.62 0 0 0 3.77 0l1.47-1.55a2.63 2.63 0 0 1 4.46 1.2h0a2.62 2.62 0 0 0 4.45 1.21h0a2.63 2.63 0 0 1 4.46 1.2l.5 2.08a2.62 2.62 0 0 0 3.24 1.92l.64-.17"/><path id="E" d="M340.64 243.53l.73.17a3 3 0 0 0 3.57-2.35l.45-2.37a3 3 0 0 1 5-1.58h0a3 3 0 0 0 5-1.59h0a3 3 0 0 1 5-1.58l1.74 1.67a3 3 0 0 0 4.27-.15l.5-.56"/><path id="F" d="M866.39 274.55c0-42.55-39.5-89.78-88.22-89.78s-88.23 47.23-88.23 89.78 39.5 64.3 88.23 64.3 88.22-21.75 88.22-64.3z"/><path id="G" d="M331.18 390.93l.58.6a3.26 3.26 0 0 0 4.68 0l1.82-1.92a3.25 3.25 0 0 1 5.52 1.49h0a3.25 3.25 0 0 0 5.53 1.49h0a3.25 3.25 0 0 1 5.52 1.49l.6 2.58a3.26 3.26 0 0 0 4 2.39l.8-.22"/><path id="H" d="M763.07 452.68l.7.42a3.26 3.26 0 0 0 4.51-1.26l1.26-2.33a3.25 3.25 0 0 1 5.72 0h0a3.25 3.25 0 0 0 5.72 0h0a3.25 3.25 0 0 1 5.72 0l1.26 2.33a3.26 3.26 0 0 0 4.51 1.26l.7-.42"/></defs></svg>