<svg id="Layer_1" data-name="Layer 1" xmlns="http://www.w3.org/2000/svg" width="2000" height="1655.67" viewBox="0 0 2000 1655.67">
  <path d="M843.79,753,815.2,722.91a564.34,564.34,0,0,1-83.31-113.47c-24.25-43.39-57.64-98.12-81.36-117.05-41.47-33.1-37.08-54.16-27.62-62.31,13.1-11.28,25.69-11.61,45.14-11.61a90.57,90.57,0,0,1,10.87.65c44,5.29,97,69.61,110.92,82,4.47,4,8.92,7.94,13.4,11.84A11.86,11.86,0,0,0,822.87,504l5.92-362.24c0-24.19,13.76-43.88,38-43.88s38,19.69,38,43.88l5.93,251.56a11.85,11.85,0,0,0,23.7,0L940.26,74c0-24.19,13.75-43.88,38-43.88s37.95,19.69,37.95,43.88l5.93,318.15a11.85,11.85,0,1,0,23.7,0l5.93-262.42c0-24.19,13.75-43.87,38-43.87s37.95,19.68,37.95,43.87l5.93,275.2a11.85,11.85,0,1,0,23.7,0l5.93-188c0-24.19,13.75-43.88,38-43.88s37.95,19.69,37.95,43.88L1243.79,389q1.21,44.57-1.72,89.1l-5.26,79.66a557.56,557.56,0,0,1-54.13,205.5h0a106.07,106.07,0,0,1-94.33,60l-76.07.88A228.77,228.77,0,0,1,843.79,753Z" style="fill: #fff;stroke: #3a3632;stroke-miterlimit: 10;stroke-width: 20px"/>
  <g>
    <g>
      <path d="M104.44,1601.82h1794c56.48,0,88.59-45.57,72.24-100.08l-93-309.81c-13-43.18-62.27-77.25-110.48-77.25H235.65c-48.22,0-97.53,34.07-110.49,77.25l-93,309.81C15.85,1556.25,48,1601.82,104.44,1601.82Z" style="fill: #fff;stroke: #3a3632;stroke-miterlimit: 10;stroke-width: 24px"/>
      <path d="M184.26,1445.94c26.52,0,53-20.54,59.06-45.53l35.81-147.8c5.41-22.34-10.19-40.19-34.76-40.19s-49.37,17.85-55.45,40.19l-40.29,147.8C141.82,1425.4,157.73,1445.94,184.26,1445.94Z" style="fill: #fff;stroke: #3a3632;stroke-miterlimit: 10;stroke-width: 24px"/>
    </g>
    <path d="M707,1215.63q73.21-3,146.51-3.09c38.27,0,78.17,1.25,116.45,1.91,55.69.87,111.28.67,166.79-2.21,69.23-3.23,138.32-12.24,207.93-15.17a215.93,215.93,0,0,1,26.66,1.14,203.88,203.88,0,0,1,26.71,4c8.65,1.88,17.8,4.45,26.47,6,6.56,1.29,13.09,2,19.64,2.8,19.53,2.34,39,5.32,58.33,8.29-21.57-2.65-43.42-2.62-65-1.17a126,126,0,0,0-13,1.66c-10.8,2-21.4,5.69-32,8.56a419.1,419.1,0,0,1-57.13,11.09c-77.63,10.17-155.26,26.53-233.78,32-48.4,3.73-97.06,4.68-145.43,4A1558.15,1558.15,0,0,1,799,1266c-26.42-3-53-5.26-79-11.78-6.52-1.65-13-2.83-19.42-4.13Z" style="fill: #518737;stroke: #3a3632;stroke-linecap: round;stroke-linejoin: round;stroke-width: 10px"/>
    <path d="M692,1340.54a628.55,628.55,0,0,1,62.78-3.46c41.86.29,83.29,6.25,125.22,9.34,114.22,9.3,229.51,15.26,343.9,22.47a256.27,256.27,0,0,0,32.65-1.27c7.36-.72,14.76-2.15,22.07-3.42,10.84-2.09,21.86-2.12,32.76-1.74,14.43.34,28.84,1,43.15,2.45-14.26-1.9-28.42-4.64-42.57-7.54-10.7-2.11-21.43-4.63-31.56-9-6.86-2.85-13.77-5.91-20.81-8.2-10.42-3.27-20.94-6.4-31.7-8.27-99.74-15.1-199.93-29-300.44-37.71-51-4.2-102.24-9.57-153.62-5-30.51,2.9-63,8.63-89.24,25.06Z" style="fill: #518737;stroke: #3a3632;stroke-linecap: round;stroke-linejoin: round;stroke-width: 10px"/>
    <path d="M688.9,1363c44.53-6.78,90.21-2.31,135,.23,59.94,4,119.37,12.35,179.17,16.72,29.17,2.14,58.79,3.52,88,3.55,11.5.06,25.92-.21,37.47-.68,64.44-1.51,127.9-18.27,194.33-18.65,6.62-.14,13.33-.16,19.94.24a316.9,316.9,0,0,1,32.77,4.16c10.87,1.89,21.84,5.34,32.69,7.45,10.78,2.27,21.83,2.25,32.7,2.14q13-.14,26-1c8.67-.59,17.34-1.37,25.93-2.65-8.56,1.47-17.08,3.2-25.62,4.91-15.81,3.48-36.14,6.74-51.4,11.15-8.66,2.61-17.19,6.22-25.75,9.26a172.93,172.93,0,0,1-19.47,5.75,269.24,269.24,0,0,1-38.55,6.92c-6.2.65-12.76,1.3-18.87,2.07-48.42,5.51-95.59,21-146.15,28.76-10.95,1.7-22.72,3.32-33.73,4.46-53.67,5.81-107.72,5.2-161.42,1.27-70-4.76-139.22-16.39-207.65-31.27-12-2.52-26.11-5.43-38-8.57-14.76-3.79-29.43-8.13-43.78-13.33Z" style="fill: #518737;stroke: #3a3632;stroke-linecap: round;stroke-linejoin: round;stroke-width: 10px"/>
    <path d="M762.06,1481.62c10.84.15,21.74.42,32.56,1,17.71.75,35.91,2.09,53.67,2.62,79.42,1.85,160.31,4.62,239.64,8,69.22,2.85,138.76,6.33,208.09,8.36a236.52,236.52,0,0,1,32.91,2.82c3.67.56,7.33,1.1,11,1.77,7.37,1.34,14.72,3.35,22,5.18,10.81,2.93,22,3.94,33,4.53,14.66,1,29.33,1.54,44,1.44-18.3.73-36.62,2.54-54.85,4.56a137.47,137.47,0,0,0-21.92,4.48c-7.25,2.06-14.56,4.3-21.92,5.8-5.47,1.1-11,2.05-16.48,2.94-12.34,2.13-26,2.39-38.5,3-99.07,4.31-198.38,6.83-297.51,3.81-40.66-1.18-81.31-2.67-121.74-8.12-14.61-1.89-29.94-4.41-44.43-7.23-22.18-4.18-44.44-10-65.17-19.34Z" style="fill: #518737;stroke: #3a3632;stroke-linecap: round;stroke-linejoin: round;stroke-width: 10px"/>
    <path d="M786.59,1165.78c6.89-.19,13.78-.31,20.63-.32,17.73-.16,36,.25,53.74-.12,79.42-2.21,160.33-3.58,239.74-4.29,69.27-.69,138.9-.77,208.24-2.29a236.61,236.61,0,0,1,33,1.13c3.69.37,7.38.73,11.07,1.21,7.43,1,14.87,2.6,22.25,4.05,10.94,2.37,22.12,2.81,33.2,2.83,14.7.21,29.37,0,44-.81-18.24,1.67-36.44,4.42-54.55,7.37a136.46,136.46,0,0,0-21.66,5.59c-7.13,2.43-14.31,5-21.59,6.91-5.41,1.38-10.85,2.61-16.31,3.78-12.21,2.76-25.8,3.71-38.3,4.94-98.71,9.37-197.77,17-296.93,19-40.66.91-81.34,1.49-122-1.88-14.69-1.14-30.13-2.88-44.74-5-18.63-2.54-37.37-6.23-55.35-12.15Z" style="fill: #518737;stroke: #3a3632;stroke-linecap: round;stroke-linejoin: round;stroke-width: 10px"/>
    <path d="M724.58,1304c4.42,1.21,8.9,2.27,13.4,3.21a281.69,281.69,0,0,0,38.37,5.2c65.62,3.73,131-3.17,196.32-3,39.9.07,81.94,2.39,121.87,3.71,82.33,2.71,165,3.75,247.44,4.86a213.86,213.86,0,0,0,24.88-1.86c4.17-.53,8.33-1,12.49-1.69,8.4-1.33,16.79-3.55,25.1-5.54,12.26-3.19,24.9-4,37.41-4.31,16.52-.57,33.05-.88,49.55-.18-16.47-1.23-32.85-3.46-49.2-5.94-8.18-1.32-16.37-2.38-24.5-4.69s-16.25-5.55-24.28-8.43c-11.91-4.32-24.23-7.21-36.58-9.82a242.72,242.72,0,0,0-24.58-3.36c-94.39-9.39-188.88-19.73-283.48-26.39-27.15-1.87-54.9-3.3-82.1-3.35-40.17-.24-80.44,3.8-119.83,9.68-20.38,3-40.22,6.16-60.38,8.91q-13.44,1.85-26.86,4c-6.6,1-23.15,4.12-37.12,6.92Z" style="fill: #629e42;stroke: #3a3632;stroke-linecap: round;stroke-linejoin: round;stroke-width: 10px"/>
    <path d="M724.52,1380.74c19.93-2.42,39.84-3.7,60-4.22,41.87-.43,83.39,4.82,125.36,7.19,114.37,7.34,229.75,11.32,344.25,16.55a256.13,256.13,0,0,0,32.62-1.84c7.35-.85,14.72-2.41,22-3.8,10.8-2.28,21.82-2.51,32.72-2.32,14.44.09,28.85.52,43.19,1.71-14.29-1.66-28.5-4.16-42.69-6.82-10.74-1.92-21.51-4.27-31.71-8.52-6.91-2.74-13.87-5.69-21-7.86-10.47-3.1-21-6-31.84-7.74-100-13.4-200.39-25.6-301-32.58-51.1-3.33-102.39-7.82-153.69-2.3-29.91,3.36-61.67,9.52-87.41,25.76Z" style="fill: #629e42;stroke: #3a3632;stroke-linecap: round;stroke-linejoin: round;stroke-width: 10px"/>
    <path d="M725.51,1443.88c33.15,12.35,68.44,18.17,103.07,25.12,49.22,9.27,99.52,14.85,149.36,19.79,89.15,9.06,179,13.25,268.52,16.56a204,204,0,0,0,21.56,0c5.43-.32,10.86-.89,16.27-1.47,9.2-.87,18.26-3,27.28-5,10.69-2.55,21.65-3.09,32.5-3.22,14.36-.38,28.7-.5,43,.17-14.26-1.15-28.47-3.09-42.65-5.29-10.73-1.61-21.49-3.65-31.72-7.64-6.92-2.55-13.89-5.32-21-7.37-5.24-1.5-10.52-2.83-15.8-4.11a214.51,214.51,0,0,0-26.5-4.43c-81.43-9.56-162.89-21.1-244.24-30.83-70.73-8.69-141.71-17.51-213-20.66-21.58-1.38-43.18-1.84-64.81-.06Z" style="fill: #629e42;stroke: #3a3632;stroke-linecap: round;stroke-linejoin: round;stroke-width: 10px"/>
    <g>
      <g>
        <path d="M582.12,1211.59a3.81,3.81,0,0,1-2.12.89l-2.16.41c-7.18,1.38-14.52,2.42-21.78,3.17-5.91.52-11.78.86-17.73,1.33a36.1,36.1,0,0,1-17.87-3.75c-2.88-1.51-6.15-3.64-7.19-6.93a.54.54,0,0,1,.79-.62c2.76.91,5.37.67,8.17.71,5.54,0,11.11-.3,16.64.7,11.18,2,23.13,2.21,34.48,3.1l4.36.29,2.19.12a3.88,3.88,0,0,1,2.22.58Z" style="fill: #3a3632"/>
        <line x1="574.73" y1="1201.25" x2="571.78" y2="1221.49" style="fill: #009444;stroke: #3a3632;stroke-linecap: round;stroke-linejoin: round;stroke-width: 10px"/>
      </g>
      <path d="M611.76,1232.78q-5.41-1.77-10.73-3.84a164.07,164.07,0,0,1-21-9.55,7.88,7.88,0,0,1,3.07-14.71h0c7.45-.9,14.8-1.15,22.23-1.52q6-.23,11.93-.39Z" style="fill: #518737;stroke: #3a3632;stroke-linecap: round;stroke-linejoin: round;stroke-width: 10px"/>
    </g>
    <g>
      <path d="M552.37,1267.43c-11.25-1.18-22.25-2.73-32.88-7.76.09-3.2,1.94-19.57,2.23-22.33h0q16.83-2.47,33.71-4.81Z" style="fill: #518737;stroke: #3a3632;stroke-linecap: round;stroke-linejoin: round;stroke-width: 10px"/>
      <g>
        <path d="M520.26,1247.89a3.46,3.46,0,0,1-2,.82l-2,.37-12.16,2.24q-8.07,1.44-16.1,3c-5.29,1-10.42,3-15.81,3.22a160.45,160.45,0,0,1-16.42,0,.55.55,0,0,1-.44-.87,20.61,20.61,0,0,1,7-5.77,36.57,36.57,0,0,1,16.36-4.51c2.82,0,5.62,0,8.39-.07a253.53,253.53,0,0,1,29,.75l2.07.17a3.46,3.46,0,0,1,2.08.65Z" style="fill: #3a3632"/>
        <line x1="512.41" y1="1237.9" x2="510.38" y2="1258.25" style="fill: #009444;stroke: #3a3632;stroke-linecap: round;stroke-linejoin: round;stroke-width: 10px"/>
      </g>
    </g>
    <g>
      <g>
        <path d="M573.15,1293.68a3.51,3.51,0,0,1-2.09.71l-2.1.22a193.39,193.39,0,0,1-21.11,1c-2.83-.05-5.66-.16-8.51-.32-5.73-.35-11.67-.1-17.14-2.34s-11.63-5.74-13.93-11.6a.56.56,0,0,1,.7-.71,67.13,67.13,0,0,0,8.1,1.53c4.69.71,11,1.4,15.51,3A106.47,106.47,0,0,0,548.5,1289c6.74,1.34,13.7,2.47,20.51,3.57l2.07.32a3.58,3.58,0,0,1,2.07.76Z" style="fill: #3a3632"/>
        <line x1="565.48" y1="1303.81" x2="563.09" y2="1283.5" style="fill: #009444;stroke: #3a3632;stroke-linecap: round;stroke-linejoin: round;stroke-width: 10px"/>
      </g>
      <path d="M596.64,1274.66c-9.27,1.86-17.39,3.61-20.71,4.55a10.14,10.14,0,0,0-1.39,18.93h0a168.91,168.91,0,0,0,24.17,8.57Z" style="fill: #629e42;stroke: #3a3632;stroke-linecap: round;stroke-linejoin: round;stroke-width: 10px"/>
    </g>
    <g>
      <g>
        <path d="M530.66,1338.77a3.51,3.51,0,0,1-1.91,1.12l-2,.64a192.73,192.73,0,0,1-20.48,5.25c-2.78.52-5.57,1-8.39,1.4-5.69.81-11.45,2.24-17.27,1.15s-12.53-3.29-16-8.56a.56.56,0,0,1,.54-.84,67.53,67.53,0,0,0,8.25-.13c4.73-.25,11.1-.84,15.79-.21a107.62,107.62,0,0,0,16.36.58c6.88-.05,13.92-.34,20.81-.62l2.1-.11a3.62,3.62,0,0,1,2.18.33Z" style="fill: #3a3632"/>
        <line x1="525.18" y1="1350.24" x2="518.76" y2="1330.82" style="fill: #009444;stroke: #3a3632;stroke-linecap: round;stroke-linejoin: round;stroke-width: 10px"/>
      </g>
      <path d="M546.68,1315.86a108.12,108.12,0,0,0-19.61,15.76,8.45,8.45,0,0,0,7.81,14h0c7-1.15,14-2.13,21-3Z" style="fill: #629e42;stroke: #3a3632;stroke-linecap: round;stroke-linejoin: round;stroke-width: 10px"/>
    </g>
    <g>
      <g>
        <path d="M487.52,1412.34a3.54,3.54,0,0,1-1.93,1.08l-2,.61a193.16,193.16,0,0,1-20.56,4.89c-2.79.47-5.59.88-8.42,1.25-5.7.71-11.49,2-17.28.85s-12.48-3.5-15.82-8.83a.56.56,0,0,1,.55-.83,66.8,66.8,0,0,0,8.25,0c4.73-.17,11.12-.66,15.79.05a107.49,107.49,0,0,0,16.35.88c6.88.07,13.92-.1,20.82-.26l2.09-.07a3.63,3.63,0,0,1,2.18.37Z" style="fill: #3a3632"/>
        <line x1="481.85" y1="1423.68" x2="475.75" y2="1404.2" style="fill: #009444;stroke: #3a3632;stroke-linecap: round;stroke-linejoin: round;stroke-width: 10px"/>
      </g>
      <path d="M507.19,1389a107.28,107.28,0,0,0-18.46,14.51,8.43,8.43,0,0,0,7.57,14.11h0q9.17-1.34,18.3-2.32Z" style="fill: #518737;stroke: #3a3632;stroke-linecap: round;stroke-linejoin: round;stroke-width: 10px"/>
    </g>
    <g>
      <g>
        <path d="M546.73,1438.61a3.64,3.64,0,0,1-2.12.6l-2.09.15c-6.88.57-13.9,1.16-20.73,2a108.51,108.51,0,0,0-16.17,2.6c-4.55,1.21-11,1.41-15.7,1.74a70.42,70.42,0,0,0-8.19.89.56.56,0,0,1-.65-.76c2.76-5.66,9.14-8.72,14.8-10.47s11.53-1.1,17.27-1c2.85.07,5.68.18,8.51.35a194.31,194.31,0,0,1,21,2.68l2.08.39a3.53,3.53,0,0,1,2,.87Z" style="fill: #3a3632"/>
        <line x1="539.88" y1="1427.91" x2="535.9" y2="1447.97" style="fill: #009444;stroke: #3a3632;stroke-linecap: round;stroke-linejoin: round;stroke-width: 10px"/>
      </g>
      <path d="M568.45,1458.69q-4.83-1.76-9.62-3.64c-3.26-1.32-6.47-2.64-9.66-4.19-8.84-4.33-7.92-17.58,1.9-20.3h0c7.87-2,15.79-3.58,23.75-4.8Z" style="fill: #518737;stroke: #3a3632;stroke-linecap: round;stroke-linejoin: round;stroke-width: 10px"/>
    </g>
    <g>
      <g>
        <path d="M565.1,1386.93a3.56,3.56,0,0,1-2.19.33l-2.1-.16a194.1,194.1,0,0,1-21-2.73q-4.17-.82-8.32-1.82c-5.58-1.36-11.46-2.18-16.45-5.35s-10.42-7.71-11.65-13.88a.56.56,0,0,1,.82-.58,66.22,66.22,0,0,0,7.7,2.94c4.48,1.53,10.62,3.35,14.74,5.67a108.8,108.8,0,0,0,15,6.63c6.41,2.51,13.05,4.86,19.55,7.15l2,.68a3.69,3.69,0,0,1,1.9,1.12Z" style="fill: #3a3632"/>
        <line x1="555.75" y1="1395.54" x2="559.04" y2="1375.29" style="fill: #009444;stroke: #3a3632;stroke-linecap: round;stroke-linejoin: round;stroke-width: 10px"/>
      </g>
      <path d="M592,1376.59a204.42,204.42,0,0,0-22.05,2.91,8.49,8.49,0,0,0-2.27,15.88h0c7.33,3.6,14.8,6.77,22.38,9.6Z" style="fill: #629e42;stroke: #3a3632;stroke-linecap: round;stroke-linejoin: round;stroke-width: 10px"/>
    </g>
    <g>
      <g>
        <path d="M519,1483.32a3.79,3.79,0,0,1-2.16.79l-2.18.3c-7.24,1-14.63,1.66-21.92,2-5.92.22-11.81.26-17.77.42a36.14,36.14,0,0,1-17.65-4.64c-2.81-1.67-6-4-6.83-7.3a.54.54,0,0,1,.81-.58c2.72,1.05,5.34,1,8.13,1.13,5.53.26,11.11.27,16.58,1.55,11.07,2.57,23,3.39,34.28,4.86l4.34.51,2.18.23a3.91,3.91,0,0,1,2.19.69Z" style="fill: #3a3632"/>
        <line x1="512.16" y1="1472.62" x2="508.19" y2="1492.68" style="fill: #009444;stroke: #3a3632;stroke-linecap: round;stroke-linejoin: round;stroke-width: 10px"/>
      </g>
      <path d="M537,1501.62A163.71,163.71,0,0,1,516.57,1491a7.88,7.88,0,0,1,3.82-14.54h0c7.48-.51,14.84-.39,22.28-.38Z" style="fill: #518737;stroke: #3a3632;stroke-linecap: round;stroke-linejoin: round;stroke-width: 10px"/>
    </g>
  </g>
</svg>
