<svg xmlns="http://www.w3.org/2000/svg" height="1924.001" width="1810.27"  xmlns:v="https://vecta.io/nano"><style><![CDATA[.B{stroke-miterlimit:15.1181}.C{fill:none}.D{stroke-width:24}.E{stroke-linecap:round}]]></style><g stroke="#010101"><g class="D"><path d="M73.78 642.78v-212.9c0-25.2 19.57-45.6 43.7-45.6h972.42c24.14 0 43.7 20.42 43.7 45.6v212.9" fill="#fff" class="B"/><g class="C"><circle r="40.41" cy="493.421" cx="212.41"/><circle r="40.41" cy="493.421" cx="346.56"/><circle r="40.41" cy="493.421" cx="981.22"/><circle r="40.41" cy="493.421" cx="849.02"/><circle r="40.41" cy="493.421" cx="595.94"/></g><g class="B"><rect rx="46.59" height="1269.22" width="1167.89" y="642.781" x="12" fill="#fff"/><g class="C"><path d="M16.34 1674.26h1159.2"/><rect rx="15.2" height="70.88" width="1022.02" y="818.841" x="84.94"/><path d="M16.34 737.75h1159.2"/></g></g></g><path d="M173.9 617.45h337.93m168.22 0h337.93" stroke-width="31.06" class="E B C"/><g class="D B"><rect rx="93.18" height="622.35" width="847.89" y="970.821" x="172" fill="#fff"/><g class="C E"><path d="M174.48 1404.26h847.14m-766.32 0v179.5m114.25-179.5v179.5m114.25-179.5v179.5"/><path d="M598.05 1404.26v179.5m114.25-179.5v179.5m114.26-179.5v179.5m114.24-179.5v179.5"/></g></g></g><path d="M1401 622.45l-82.84-125.9 137.7-61.2m-224.9 894.95c218.5 64.1 447.58-61 511.7-279.54s-61-447.58-279.54-511.7l-134.36-39.37" stroke="#231f20" stroke-linejoin="round" class="C D E"/><path d="M1050.75 159.41l-2.07 3h-.07l-.15-.05-.3-.1-.6-.2-1.22-.43-2.43-.86-4.85-1.68-9.67-3.37-19.28-6.4c-12.8-4.2-25.7-8-38.47-11.8q-9.6-2.84-19.27-5.4l-19.2-5.23-38.07-9.44-39.54-9.3c-13.24-2.9-26.62-5.4-39.7-8.68a187.55 187.55 0 0 1-38-13.7c-6.12-2.9-12.06-6.33-18-9.87-3.07-1.44-5.6-4.45-7.18-10.36a42.4 42.4 0 0 1-1-4.87l-.62-6.1v-.18a45 45 0 0 1 10.15-30.33l.1-.1 4.2-4.5a42.89 42.89 0 0 1 3.77-3.26c4.83-3.77 8.7-4.64 12-3.94 6.9.74 13.77 1.6 20.46 3a190.6 190.6 0 0 1 38.9 12c12.54 5.26 24.78 11.33 37.17 17l37.42 16.27c13.14 6.25 25.3 13 37.4 20.1l18 10.85c6 3.7 11.75 7.65 17.54 11.6 11.6 7.8 22.8 16.28 33.7 25.06 5.4 4.45 10.77 8.9 15.92 13.67 2.6 2.33 5.14 4.73 7.66 7.15l3.72 3.7 1.85 1.86.92.93.7.7.1.12.06.06c-.9 1.42 2-3.03-1.97 3.13z" fill="#231f20"/><g stroke="#231f20" stroke-miterlimit="10"><path d="M1366.88 77.38h.74c237.84 0 430.65 37.8 430.65 94.2-10.66 43.7-41.14 105-77.95 133.12-29.5 20.2-200.8 48.46-352.68 48.46h-2.15c-151.87 0-323.17-28.26-352.68-48.46-36.8-28.1-67.3-89.43-78-133.12 0-56.4 192.8-94.2 430.65-94.2h.67" fill="#fff" class="D"/><path d="M1768.96 168.31c0 27-180.32 67.06-402.76 67.06h-.7c-222.44 0-402.76-40-402.76-67.06" stroke-width="14" class="C E"/></g><g fill="#231f20"><circle r="8.53" cy="145.691" cx="1063.57"/><circle r="8.53" cy="166.171" cx="1009.73"/></g></svg>