<svg xmlns="http://www.w3.org/2000/svg" height="1594.93" width="1923.98"  xmlns:v="https://vecta.io/nano"><path d="M555.8 1231.42l-3.75 5.52h-.14l-.27-.1-.55-.2-1.1-.4-2.2-.78-4.4-1.55-8.8-3.06-17.54-6.06-35-11.62c-23.23-7.64-46.6-14.5-69.8-21.42q-17.4-5.13-34.94-9.77l-34.86-9.48-69.07-17.13-71.73-16.87c-24-5.27-48.3-9.78-72.05-15.75s-46.83-13.9-68.9-24.85c-11.1-5.28-21.88-11.5-32.6-17.92-5.57-2.6-10.17-8.07-13-18.78a77.69 77.69 0 0 1-1.87-8.84l-1.13-11.17v-.33a81.46 81.46 0 0 1 18.45-55.09l.17-.2 7.58-8.17a76.7 76.7 0 0 1 6.84-5.92c8.77-6.84 15.8-8.42 21.85-7.15 12.52 1.34 25 2.88 37.13 5.36 24.42 4.56 47.84 12.16 70.57 21.7s45 20.56 67.43 30.8l67.72 29.73c23.83 11.34 45.9 23.55 67.82 36.47q16.46 9.62 32.63 19.68 16.05 10.3 31.8 21c21.06 14.16 41.4 29.54 61.12 45.47 9.8 8.08 19.55 16.17 28.9 24.8 4.7 4.23 9.33 8.6 13.9 13l6.74 6.73 3.35 3.37 1.73 1.73.83.84.63.63.1.1c-1.62 2.47 3.63-5.58-3.56 5.63z" fill="#231f20"/><g stroke="#231f20" stroke-width="24" stroke-miterlimit="10"><path d="M1129.36 1082.6h1.32c431.5 0 781.3 68.6 781.3 170.9-19.33 79.26-74.64 190.52-141.4 241.5-53.54 36.66-364.3 87.92-639.85 87.92h-3.9c-275.53 0-586.3-51.26-639.84-87.92-66.78-51-122.1-162.24-141.42-241.5 0-102.3 349.8-170.9 781.3-170.9h1.2" fill="#fff"/><path d="M1858.8 1247.56c0 49-327.14 121.67-730.7 121.67h-1.3c-403.56 0-730.7-72.64-730.7-121.67" fill="none" stroke-linecap="round"/></g><g fill="#231f20"><circle r="15.48" cy="1206.53" cx="579.08"/><circle r="15.48" cy="1243.68" cx="481.39"/></g><path d="M872.16 815.74l-31.8-33.45a626.94 626.94 0 0 1-92.62-126.16c-27-48.24-64.1-109.08-90.46-130.12-46.1-36.8-41.23-60.22-30.7-69.28 14.56-12.52 28.57-12.92 50.23-12.92a100.4 100.4 0 0 1 12.08.73c49 5.9 107.82 77.4 123.32 91.2l14.9 13.16a13.17 13.17 0 0 0 21.81-10l6.55-402.7c0-26.9 15.3-48.78 42.2-48.78s42.2 21.88 42.2 48.78l6.58 279.68a13.18 13.18 0 1 0 26.36 0l6.6-355.1c0-26.9 15.3-48.78 42.2-48.78s42.2 21.9 42.2 48.8l6.6 353.7a13.18 13.18 0 0 0 26.36 0l6.58-291.75c0-26.9 15.3-48.78 42.2-48.78s42.2 21.9 42.2 48.78l6.6 306a13.18 13.18 0 1 0 26.35 0l6.6-209c0-26.9 15.3-48.78 42.2-48.78s42.2 21.88 42.2 48.78l5.23 191.36q1.35 49.56-1.9 99.07l-5.84 88.56a620.07 620.07 0 0 1-60.21 228.47h0a117.92 117.92 0 0 1-104.87 66.7l-84.57 1a254.32 254.32 0 0 1-187.32-79.17z" fill="#fff" stroke="#231f20" stroke-width="24" stroke-miterlimit="10"/></svg>