<svg xmlns="http://www.w3.org/2000/svg" height="1732.611" width="1924"  xmlns:v="https://vecta.io/nano"><g stroke="#231f20" stroke-width="24"><g stroke-linejoin="round"><path d="M1767.06 533.75v1050.52a136 136 0 0 1-136.35 136.34H293.3A136 136 0 0 1 157 1584.27V533.75z" opacity="1" fill="#fff"/><path d="M98.8 533.4A86.6 86.6 0 0 0 12 620.17v79.73a86.6 86.6 0 0 0 86.79 86.78h58.15V533.74h47.4l-7.06-.35zm1726.4 0a86.6 86.6 0 0 1 86.79 86.78v79.73a86.6 86.6 0 0 1-86.79 86.78h-58.15V533.75h-47.4l7.06-.35z" opacity="1" fill="none"/><path d="M959.84 214.94c-295.44.52-580.7 124.1-802.84 318.8h1610.1c-222.76-195.2-508.86-318.8-805-318.8z" opacity="1" fill="#fff" fill-opacity=".996"/><path d="M1154.5 230.2a196 196 0 0 0 1.53-24.21c0-107.16-86.87-194-194-194h-1.38C854 12.73 768 99.37 768 206a194.06 194.06 0 0 0 1.53 24.21" opacity="1" fill="none" stroke-linecap="round"/></g><g fill="#fff"><circle r="203" cy="979.68" cx="962"/><path d="M962 979.68v-137.5" stroke-linecap="round" stroke-miterlimit="10"/></g></g><path d="M682.82 1360.98v156.73h88.43q10.57 0 16.23 5.14a16.75 16.75 0 0 1 5.66 12.93 16.29 16.29 0 0 1-5.59 12.85q-5.58 4.94-16.3 4.93H665.93q-14.25 0-20.5-6.32-6.24-6.32-6.25-20.42v-165.84q0-13.2 5.95-19.83 5.95-6.62 15.65-6.6 9.84 0 15.94 6.54 6.1 6.54 6.1 19.9zm218.72-26.44q33.5 0 57.5 13.6a88.1 88.1 0 0 1 36.36 38.63q12.33 25 12.34 58.83 0 25-6.76 45.4a98.29 98.29 0 0 1-20.27 35.4 88.61 88.61 0 0 1-33.2 22.92q-19.68 7.92-45.1 7.93-25.26 0-45.24-8.16a89.63 89.63 0 0 1-33.34-23 98 98 0 0 1-20.2-35.7 144.18 144.18 0 0 1-6.83-45.09q0-24.83 7.12-45.54a97.61 97.61 0 0 1 20.64-35.25 89.24 89.24 0 0 1 32.9-22.26q19.4-7.7 44.07-7.7zm62 110.76q0-23.65-7.64-41-7.64-17.35-21.8-26.22-14.18-8.88-32.54-8.88a58.9 58.9 0 0 0-24.16 4.92 53 53 0 0 0-19.1 14.32q-8 9.4-12.63 24a108.63 108.63 0 0 0-4.66 32.83 111.34 111.34 0 0 0 4.63 33.19q4.64 14.85 13.07 24.6a55 55 0 0 0 19.39 14.61 61.24 61.24 0 0 0 54.79-3.52q14-8.37 22.33-25.85 8.33-17.48 8.32-43.04zm237.66 74.32l-34.8-129.1-35.26 129.1q-4.1 14.7-6.53 21.08a28 28 0 0 1-8.45 11.46q-6 5.07-16 5.07-8.1 0-13.3-3a23.1 23.1 0 0 1-8.45-8.52 53.35 53.35 0 0 1-5.29-13.08q-2.05-7.56-3.67-14l-35.84-145q-3.24-12.63-3.23-19.24a18.91 18.91 0 0 1 5.87-14.1 20 20 0 0 1 14.54-5.73q11.9 0 16 7.64 4.1 7.64 7.2 22.18l28.2 125.74 31.58-117.66a189.84 189.84 0 0 1 6.31-20.57 29.7 29.7 0 0 1 9.11-12.19q6.32-5.15 17.2-5.14 10.87.01 17.1 5.36a29.4 29.4 0 0 1 8.45 11.68q2.34 6.32 6.3 20.86l31.88 117.66 28.2-125.74a150.94 150.94 0 0 1 3.89-15.42 24.81 24.81 0 0 1 6.32-10q4.48-4.4 13-4.4a20.24 20.24 0 0 1 14.47 5.66 18.75 18.75 0 0 1 6 14.17q0 6-3.23 19.24l-35.85 145q-3.66 14.68-6.1 21.5a28.69 28.69 0 0 1-8.23 12q-5.8 5.13-16.38 5.14-10 0-16-5a27.08 27.08 0 0 1-8.37-11.23q-2.4-6.3-6.67-21.42z" fill="#231f20"/></svg>