<?xml version="1.0" encoding="UTF-8"?>
<svg id="Layer_1" data-name="Layer 1" xmlns="http://www.w3.org/2000/svg" width="2000" height="1246" viewBox="0 0 2000 1246">
  <g>
    <path d="M1982.77,663.67c0,278.86-440,504.92-982.77,504.92-542.77,0-982.77-226.06-982.77-504.92,0-278.86,440-504.92,982.77-504.92,542.77,0,982.77,226.06,982.77,504.92Z" style="fill: #fff; stroke: #3a3632; stroke-miterlimit: 10; stroke-width: 20px;"/>
    <path d="M1618.31,663.67c0,149.59-276.83,270.86-618.31,270.86-341.48,0-618.31-121.27-618.31-270.86,0-149.59,276.83-270.86,618.31-270.86,341.48,0,618.31,121.27,618.31,270.86Z" style="fill: #fff; stroke: #3a3632; stroke-miterlimit: 10; stroke-width: 20px;"/>
  </g>
  <g>
    <path d="M1552.06,551.75c-8.65,6.93-22.97,12.2-21.38,38.01l24.61,374.63-2.33,85.67c1.09,17.67-16.01,32.04-38.19,32.04H486.17c-22.18,0-39.27-14.37-38.19-32.04l-2.33-85.68,24.75-371.69c1.76-28.59-17.93-34.88-24.85-40.67-30.82-26.02-46.74-38.28-48.45-75.69-.26-5.74-.19-67.56,.22-73.25,9.74-136.6,285.84-248.63,603.18-248.63,97.19,0,189.91,10.47,272.28,28.7,176.53,44.67,301.71,117.78,326.52,197.53,2.11,7.39,3.82,65.73,4.36,73.3,3.21,45.34-13.65,67.12-51.58,97.75Z" style="fill: #e2c4a6; stroke: #3a3632; stroke-miterlimit: 10; stroke-width: 20px;"/>
    <path d="M482.66,981.39c-14.26,0-25.33-9.04-24.66-20.12l27.8-433.08c1.9-31.68-20.71-50.07-28.12-56.09-33.17-27.23-49.62-34.99-46.88-74.16,2.16-30.91,19.49-61.09,51.37-89.71,31.15-27.97,74.58-53.15,129.03-74.9,54.66-21.83,117.29-38.95,186.24-50.93,71.54-12.44,146.53-18.73,223.06-18.73,92.04,0,184.79,9.56,268.53,27.71,85.56,21.24,159.97,49.5,215.17,81.83,27.52,16.11,50.18,33.16,67.34,50.66,17.27,17.62,28.93,35.71,34.63,53.76,2.35,8.15,3.59,14.42,4,20.34,2.89,41.67-14.59,50.93-50.09,78.8-9.96,7.76-26.52,25.1-24.81,53.64l27.67,430.88c.66,11.08-10.4,20.12-24.66,20.12H482.66Z" style="fill: #ffedd9;"/>
    <path d="M485.8,528.18c-1.92-19.94-11.41-36.06-26.73-48.72-4.21-3.48-10.92-8.65-15.31-12.18-24.89-19.68-40.69-35.22-32.96-69.35,2.29,25.91,7.22,36.14,27.7,52.36,6.38,5.15,12.9,10.2,19.22,15.47,5.21,4.32,10.55,8.92,14.81,14.22,11.16,13.15,17.07,31.16,13.29,48.2h0Z" style="fill: #3a3632;"/>
    <path d="M1542.94,961.27c.66,5.91-2.4,11.76-7.03,15.4-5.79,4.79-13.57,6.43-20.96,6.38-7.32,.26-22.67,.82-30.26,1.09-328.43,9.95-657.3,10.09-985.72-.61l-8.65-.31-4.32-.16c-7.39,.04-15.19-1.59-20.96-6.39-4.62-3.64-7.72-9.49-7.03-15.41-.02,12.05,12.88,19.06,23.72,18.57,322.62-11.06,645.71-11.1,968.38-2.31,21.03,.57,48.1,1.59,69.13,2.31,10.82,.49,23.78-6.53,23.72-18.58h0Z" style="fill: #3a3632;"/>
    <path d="M1586.16,377.61c6.53,14.29,8.94,29.97,6.53,45.71-3,20.44-20.01,34.71-35.45,46.34-5.1,3.88-12.98,9.54-17.91,13.46-6.86,5.71-12.67,12.71-16.8,20.64-2.9,5.71-5.01,11.88-6.13,18.19-.52,2.68-.82,5.7-1.14,8.43-.32-1.87-.62-3.78-.84-5.69-1.79-17.96,6.01-35.89,19.02-48.14,8.05-7.38,18.11-14.73,26.46-21.72,8.22-6.79,16.41-14,21.36-23.52,4.98-9.62,6.26-20.31,6.57-31.3,.36-7.49-.62-14.98-1.67-22.41h0Z" style="fill: #3a3632;"/>
    <g>
      <path d="M677.4,499.71c-19.8-.42-35.91-14.54-35.91-31.52s16.11-30.32,35.91-29.78c19.73,.54,35.67,14.65,35.67,31.52s-15.94,30.21-35.67,29.78Z" style="fill: #e2c4a6;"/>
      <path d="M677.4,499.71c-23.41-.16-46.11-20.82-36.09-45.19,13.07-28.85,58.46-27.45,71.48,.72,10.86,24.66-11.26,45.32-35.39,44.47h0Zm0,0c22.12,.82,42.23-20.08,29.2-41.13-12.73-19.37-46.22-20.76-59.07-.88-4.27,6.68-4.68,15.47-1.35,22.8,5.3,11.88,18.37,18.95,31.23,19.21h0Z" style="fill: #3a3632;"/>
    </g>
    <g>
      <path d="M1006.12,420.25c-16.6,.05-30.1-11.56-30.1-25.92s13.5-25.98,30.1-25.95c16.55,.03,29.93,11.64,29.93,25.92s-13.38,25.9-29.93,25.95Z" style="fill: #e2c4a6;"/>
      <path d="M1006.12,420.25c-20.13,.38-39.13-17.22-30.62-38.02,10.82-24.91,50.03-25.04,61.01-.2,8.68,20.77-10.23,38.48-30.38,38.22h0Zm0,0c18.25,.27,34.97-17.7,24.15-34.96-10.71-15.9-37.95-15.86-48.56,.13-10.67,17.38,6.12,35.17,24.42,34.83h0Z" style="fill: #3a3632;"/>
    </g>
    <g>
      <path d="M1280.98,636.66c-14.48,.33-26.24-9.3-26.24-21.5s11.77-22.32,26.24-22.59c14.44-.27,26.12,9.36,26.12,21.5s-11.68,22.26-26.12,22.59Z" style="fill: #e2c4a6;"/>
      <path d="M1280.98,636.66c-17.66,.71-34.65-13.96-26.9-32.42,9.49-21.47,44.05-22.5,53.84-.75,7.55,18.19-9.71,33.09-26.94,33.17h0Zm0,0c6.31-.17,12.61-2.51,17.16-6.71,6.56-5.66,8.88-16.06,3.57-23.14-9.58-12.91-32.14-12.04-41.5,.75-9.89,14.81,5.15,29.76,20.76,29.1h0Z" style="fill: #3a3632;"/>
    </g>
    <g>
      <path d="M929.56,808.18c-6.97-.03-12.62-4.71-12.62-10.46s5.65-10.37,12.62-10.33c6.96,.04,12.59,4.73,12.59,10.46s-5.63,10.36-12.59,10.33Z" style="fill: #e2c4a6;"/>
      <path d="M929.56,808.18c-8.84,.19-18.05-6.72-14.54-16.43,3.8-10.07,18.08-12.34,25.58-5.08,4.53,3.93,5.79,11.6,1.74,16.19-3.13,3.8-8.17,5.31-12.78,5.32h0Zm0,0c5.46,.22,11.8-4.6,10.08-10.36-2.55-7.17-17.72-7.35-20.21-.07-1.63,5.77,4.66,10.59,10.13,10.43h0Z" style="fill: #3a3632;"/>
    </g>
    <g>
      <path d="M1060.87,680.09c-11.2,.07-20.3-7.49-20.3-16.88s9.1-17.03,20.3-17.06c11.18-.03,20.23,7.52,20.23,16.88s-9.05,16.99-20.23,17.06Z" style="fill: #e2c4a6;"/>
      <path d="M1060.87,680.09c-13.72,.34-27.36-10.96-21.55-25.56,7.46-17.61,35.46-17.83,43.04-.19,5.85,14.55-7.82,25.93-21.49,25.75h0Zm0,0c9.15,.19,19.27-7.32,17.72-17.06-3.07-14.04-25.11-15.44-33.13-5.18-4.27,5.09-2.85,13.01,2.13,17.3,3.49,3.23,8.41,4.96,13.28,4.94h0Z" style="fill: #3a3632;"/>
    </g>
    <g>
      <path d="M618.14,839.07c-14.18-.36-25.71-9.96-25.71-21.44s11.53-20.46,25.71-20.05c14.15,.41,25.59,10.01,25.59,21.44s-11.44,20.41-25.59,20.05Z" style="fill: #e2c4a6;"/>
      <path d="M618.14,839.07c-16.48-.14-34.09-13.67-26.53-31.52,9.68-20.52,43.07-19.42,52.61,.66,8.1,18.16-8.96,31.58-26.08,30.87h0Zm0,0c8.87,.25,18.46-4.09,22.05-12.41,3.44-7.63-.9-16.01-7.69-19.91-10.54-6.35-26.77-5.9-34.79,4.21-5.3,6.69-2.62,16.69,3.79,21.87,4.5,3.92,10.57,6.07,16.65,6.25h0Z" style="fill: #3a3632;"/>
    </g>
    <g>
      <path d="M1194.68,928.81c-11.12,9.18-29.42,9.23-40.85,.08-11.43-9.15-11.6-23.99-.42-33.13,11.15-9.11,29.38-9.1,40.75,0,11.37,9.1,11.62,23.88,.53,33.04Z" style="fill: #e2c4a6;"/>
      <path d="M1194.68,928.81c-13.79,11.06-37.08,10.74-48.82-3.43-5.29-6.29-6.66-15.92-3.22-23.55,4.81-11.3,17.92-17.6,29.51-17.17,14.7,.08,30.67,10.5,31.27,26.06,.25,7.09-3.32,13.75-8.73,18.09h0Zm0,0c5.24-4.35,8.56-11.12,7.36-17.96-1.53-9.86-11.16-16.13-20.42-17.38-8.68-1.32-18.54,.8-25.13,6.24-9.8,7.77-8.9,20.9,.96,28.73,10.1,8.33,26.79,8.99,37.23,.37h0Z" style="fill: #3a3632;"/>
    </g>
    <g>
      <path d="M1368.47,843.06c-11.99,.34-21.72-7.38-21.72-17.25s9.74-18.1,21.72-18.4c11.96-.3,21.64,7.42,21.64,17.25s-9.68,18.06-21.64,18.4Z" style="fill: #e2c4a6;"/>
      <path d="M1368.47,843.06c-14.69,.68-29.23-10.94-22.69-26.58,7.96-18,37.25-19.06,45.5-.75,6.32,15.31-8.62,27.22-22.81,27.33h0Zm0,0c9.68-.06,20.45-7.86,19.11-18.22-2.9-15.3-27.38-15.85-35.73-4.94-4.62,5.54-3.18,13.78,2.35,18.31,3.81,3.33,9.09,4.98,14.26,4.84h0Z" style="fill: #3a3632;"/>
    </g>
    <g>
      <path d="M1279.31,334.65c-10.25,.22-18.56-6.83-18.56-15.77s8.32-16.34,18.56-16.54c10.23-.2,18.52,6.86,18.52,15.77s-8.29,16.31-18.52,16.54Z" style="fill: #e2c4a6;"/>
      <path d="M1279.31,334.65c-13.06,.49-25.04-10.49-19.99-24.07,6.68-17.13,33.25-17.85,40.1-.47,4.89,13.39-7.4,24.49-20.11,24.54h0Zm0,0c10.86,.05,20.91-11.51,13.83-21.37-7.6-9.71-26.9-7.28-29.9,5.47-1.81,9.02,7.46,16.36,16.07,15.9h0Z" style="fill: #3a3632;"/>
    </g>
    <g>
      <path d="M716.75,293.91c-9.18-.19-16.64-6.86-16.64-14.91s7.46-14.4,16.64-14.19c9.17,.21,16.59,6.89,16.59,14.91s-7.42,14.38-16.59,14.19Z" style="fill: #e2c4a6;"/>
      <path d="M716.75,293.91c-11.49-.01-22.63-10.05-18.41-22.19,4.76-13.09,23-15.69,32.42-6.12,11.9,12.41,1.97,28.76-14,28.31h0Zm0,0c7.71,.42,15.93-6.33,14.06-14.35-3.15-12.46-25.21-13.42-28.2-.41-1.52,7.99,6.42,14.8,14.14,14.76h0Z" style="fill: #3a3632;"/>
    </g>
  </g>
</svg>