<svg xmlns="http://www.w3.org/2000/svg" height="1948.395" width="1914.131"  xmlns:v="https://vecta.io/nano"><style><![CDATA[.B{stroke-miterlimit:15.1181}.C{fill:none}.D{stroke-width:24}.E{stroke-linecap:round}]]></style><g stroke="#010101"><g class="D"><path d="M72.63 690.915v-209c0-24.72 19.2-44.76 42.9-44.76h954.28c23.7 0 42.9 20 42.9 44.76v209" fill="#fff" class="B"/><g class="C"><circle r="39.65" cy="544.295" cx="208.67"/><circle r="39.65" cy="544.295" cx="340.32"/><circle r="39.65" cy="544.295" cx="963.13"/><circle r="39.65" cy="544.295" cx="833.4"/><circle r="39.65" cy="544.295" cx="585.05"/></g><g class="B"><rect rx="47.75" height="1245.53" width="1146.1" y="690.865" x="12" fill="#fff"/><g class="C"><path d="M16.26 1703.095h1137.58"/><rect rx="14.92" height="69.56" width="1002.95" y="863.635" x="83.58"/><path d="M16.26 784.055h1137.58"/></g></g></g><path d="M170.9 666.005h331.6m165.1 0h331.6" stroke-width="31.836" class="E B C"/><g class="D B"><rect rx="95.51" height="610.74" width="832.07" y="1012.775" x="169.02" fill="#fff"/><g class="C E"><path d="M171.45 1438.125h831.34m-752.03 0v176.15m112.12-176.15v176.15M475 1438.125v176.15"/><path d="M587.12 1438.125v176.15m112.12-176.15v176.15m112.12-176.15v176.15m112.12-176.15v176.15"/></g></g></g><g stroke="#231f20" stroke-linejoin="round"><path d="M1413.2 819.765l-81.27-123.56 135.14-60.06m-220.75 878.26c214.42 62.9 439.24-59.9 502.15-274.33s-59.9-439.23-274.33-502.16l-131.85-38.7" class="C D E"/><path d="M1890.33 147.615l-377.25 147.48-354.7-45.62" stroke-width="12.89" class="C E"/><g fill="#fff" class="D"><path d="M1179.4 252.175l18.64 262.74 310.2 74.83 4.8-294.38z"/><path d="M1513.02 295.325l361.5-141.54-23 241.46-343.3 194.46z"/></g><path d="M1158.37 249.475s-29.88-79.92 31.8-119c76.67-48.5 333.12-114.38 434.2-118.42 28.27-1.13 227.42 15.2 264 42.16 24.73 18.22 8.58 90.75 8.58 90.75l-384.6 150.58z" opacity=".992" fill="#ecdaba" class="D"/></g><g fill="#231f20"><path d="M1304.98 159.275a11.8 11.8 0 1 1-11.8-11.8 11.8 11.8 0 0 1 11.8 11.8m292.12-93.17a11.8 11.8 0 1 1-11.8-11.8 11.8 11.8 0 0 1 11.8 11.8"/><path d="M1450.02 106.035a11.8 11.8 0 0 1-23.6 0h0a11.8 11.8 0 0 1 11.8-11.81h0a11.8 11.8 0 0 1 11.8 11.81m57.68 66.02a11.81 11.81 0 1 1-11.8-11.8 11.8 11.8 0 0 1 11.8 11.8m152.84-42.5a11.81 11.81 0 1 1-11.8-11.81 11.8 11.8 0 0 1 11.8 11.81m137.2-45.76a11.81 11.81 0 1 1-11.81-11.8 11.8 11.8 0 0 1 11.81 11.8"/></g></svg>