<svg xmlns="http://www.w3.org/2000/svg" height="1923.98" width="1718.3"  xmlns:v="https://vecta.io/nano"><path d="M859.8 1911.98c389.35 0 846.5-207.16 846.5-677.75 0-110.85-379-212.73-846.5-212.73h-1.3C391 1021.5 12 1123.38 12 1234.23c0 470.6 457.15 677.75 846.5 677.75" fill="#fff" stroke="#231f20" stroke-width="24" stroke-miterlimit="10"/><path d="M834.4 1708h87.48q13.07 0 19.94 5.36a17.52 17.52 0 0 1 6.87 14.58 19.4 19.4 0 0 1-5.45 13.91q-5.44 5.7-16.5 5.7H803.4q-12.57 0-19.6-7a22.22 22.22 0 0 1-7-16.34q0-6 4.52-16 4.52-10 9.9-15.67 22.28-23.13 40.22-39.63 17.94-16.5 25.64-21.7a148.21 148.21 0 0 0 22.87-19.53 77.48 77.48 0 0 0 13.91-20.11 47.85 47.85 0 0 0 4.77-20.19 36.38 36.38 0 0 0-5.11-19.19 35.42 35.42 0 0 0-13.91-13.15 40.09 40.09 0 0 0-19.18-4.69q-22 0-34.52 19.27-1.68 2.5-5.62 13.74-3.94 11.23-8.88 17.26-5 6-14.5 6a18.83 18.83 0 0 1-13.91-5.53q-5.54-5.52-5.53-15.08a63.14 63.14 0 0 1 5.19-24.13 69.17 69.17 0 0 1 15.49-22.75q10.3-10.2 26.14-16.5 15.83-6.3 37.12-6.28 25.63 0 43.74 8a65.79 65.79 0 0 1 20.61 14.75 69.15 69.15 0 0 1 18.77 47.26 71.47 71.47 0 0 1-10.31 37.78q-10.3 17-21 26.65-10.7 9.65-36 30.35-25.23 20.6-34.6 32a95 95 0 0 0-8.21 10.88z" fill="#231f20"/><g stroke="#231f20" stroke-width="24" stroke-miterlimit="10"><path d="M1651.52 1227.78c0 53.12-354.44 131.83-791.67 131.83h-1.4c-437.23 0-791.67-78.7-791.67-131.83" fill="none" stroke-linecap="round"/><path d="M759.15 847.5l-33-34.78a651.21 651.21 0 0 1-96.28-131.15c-28-50.14-66.62-113.4-94-135.26-47.93-38.26-42.85-62.6-31.92-72 15.14-13 29.7-13.42 52.17-13.42a104.24 104.24 0 0 1 12.56.75c50.9 6.12 112.08 80.45 128.2 94.8l15.5 13.7a13.7 13.7 0 0 0 22.68-10.34l6.73-418.66c0-28 15.9-50.7 43.86-50.7s43.87 22.7 43.87 50.7l6.85 290.74a13.7 13.7 0 1 0 27.39 0L870.6 62.7c0-28 15.9-50.7 43.87-50.7s43.86 22.75 43.86 50.7l6.82 367.67a13.7 13.7 0 1 0 27.39 0l6.88-303.26c0-28 15.9-50.7 43.86-50.7s43.87 22.7 43.87 50.7l6.84 318a13.7 13.7 0 1 0 27.4 0l6.84-217.25c0-28 15.9-50.7 43.87-50.7s43.86 22.75 43.86 50.7l5.44 198.93q1.4 51.5-2 103l-6.07 92.06a644.46 644.46 0 0 1-62.57 237.5h0a122.6 122.6 0 0 1-109 69.35l-87.92 1a264.43 264.43 0 0 1-194.69-82.22z" fill="#fff"/></g></svg>