<svg xmlns="http://www.w3.org/2000/svg" viewBox="0 0 2000 1790.33"><g id="Layer_2" data-name="Layer 2"><path d="M87.37,386.06V153.88c0-27.47,21.34-49.74,47.67-49.74H1195.52c26.32,0,47.66,22.27,47.66,49.74V386.06" style="fill:#fff;stroke:#000;stroke-miterlimit:15.118109703064;stroke-width:24px"/><circle cx="238.55" cy="223.18" r="44.07" style="fill:none;stroke:#000;stroke-miterlimit:15.118109703064;stroke-width:16.7326936631589px"/><circle cx="384.85" cy="223.18" r="44.07" style="fill:none;stroke:#000;stroke-miterlimit:15.118109703064;stroke-width:16.7326936631589px"/><circle cx="1076.98" cy="223.18" r="44.07" style="fill:none;stroke:#000;stroke-miterlimit:15.118109703064;stroke-width:16.7326936631589px"/><circle cx="932.81" cy="223.18" r="44.07" style="fill:none;stroke:#000;stroke-miterlimit:15.118109703064;stroke-width:16.7326936631589px"/><circle cx="656.82" cy="223.18" r="44.07" style="fill:none;stroke:#000;stroke-miterlimit:15.118109703064;stroke-width:16.7326936631589px"/><rect x="20" y="386.06" width="1273.64" height="1384.15" rx="46.47" style="fill:#fff;stroke:#000;stroke-miterlimit:15.118109703064;stroke-width:24px"/><line x1="24.74" y1="1510.95" x2="1288.91" y2="1510.95" style="fill:none;stroke:#000;stroke-miterlimit:15.118109703064;stroke-width:16px"/><rect x="99.54" y="578.07" width="1114.56" height="77.3" rx="16.58" style="fill:none;stroke:#000;stroke-miterlimit:15.118109703064;stroke-width:16.7326936631589px"/><line x1="24.74" y1="489.63" x2="1288.91" y2="489.63" style="fill:none;stroke:#000;stroke-miterlimit:15.118109703064;stroke-width:16.7326936631589px"/><line x1="196.57" y1="358.44" x2="565.1" y2="358.44" style="fill:none;stroke:#000;stroke-linecap:round;stroke-miterlimit:15.118109703064;stroke-width:33.4653873263177px"/><line x1="748.55" y1="358.44" x2="1117.08" y2="358.44" style="fill:none;stroke:#000;stroke-linecap:round;stroke-miterlimit:15.118109703064;stroke-width:33.4653873263177px"/><rect x="194.49" y="743.8" width="924.67" height="678.71" rx="92.95" style="fill:#fff;stroke:#000;stroke-miterlimit:15.118109703064;stroke-width:24px"/><line x1="197.19" y1="1216.5" x2="1121.05" y2="1216.5" style="fill:none;stroke:#000;stroke-linecap:round;stroke-miterlimit:15.118109703064;stroke-width:16px"/><line x1="285.32" y1="1216.5" x2="285.32" y2="1412.24" style="fill:none;stroke:#000;stroke-linecap:round;stroke-miterlimit:15.118109703064;stroke-width:16px"/><line x1="409.92" y1="1216.5" x2="409.92" y2="1412.24" style="fill:none;stroke:#000;stroke-linecap:round;stroke-miterlimit:15.118109703064;stroke-width:16px"/><line x1="534.52" y1="1216.5" x2="534.52" y2="1412.24" style="fill:none;stroke:#000;stroke-linecap:round;stroke-miterlimit:15.118109703064;stroke-width:16px"/><line x1="659.12" y1="1216.5" x2="659.12" y2="1412.24" style="fill:none;stroke:#000;stroke-linecap:round;stroke-miterlimit:15.118109703064;stroke-width:16px"/><line x1="783.72" y1="1216.5" x2="783.72" y2="1412.24" style="fill:none;stroke:#000;stroke-linecap:round;stroke-miterlimit:15.118109703064;stroke-width:16px"/><line x1="908.32" y1="1216.5" x2="908.32" y2="1412.24" style="fill:none;stroke:#000;stroke-linecap:round;stroke-miterlimit:15.118109703064;stroke-width:16px"/><line x1="1032.92" y1="1216.5" x2="1032.92" y2="1412.24" style="fill:none;stroke:#000;stroke-linecap:round;stroke-miterlimit:15.118109703064;stroke-width:16px"/><g id="layer5"><g id="g986"><path id="rect981" d="M1624.73,493l-82.09-124.8,136.5-60.66" style="fill:none;stroke:#231f20;stroke-linecap:round;stroke-linejoin:round;stroke-width:24px"/></g></g><path d="M1456.19,1194.62c216.56,63.54,443.63-60.51,507.17-277.07s-60.51-443.64-277.07-507.18L1553.12,371.3" style="fill:none;stroke:#231f20;stroke-linecap:round;stroke-linejoin:round;stroke-width:24px"/><path d="M1461.48,204.93c3.48,5.34,1,1.47,1.8,2.65l.07,0,.13-.05.26-.09.53-.19,1.06-.37,2.12-.75,4.23-1.46,8.42-2.92c5.64-1.85,11.17-3.82,16.8-5.58,11.15-3.66,22.38-7,33.51-10.28q8.37-2.46,16.78-4.69c5.57-1.57,11.14-3.11,16.74-4.55,11.2-2.84,22.46-5.73,33.16-8.23l34.44-8.1c11.54-2.53,23.19-4.69,34.6-7.56a163.85,163.85,0,0,0,33.08-11.93c5.33-2.53,10.51-5.52,15.66-8.6,2.67-1.25,4.88-3.88,6.25-9a39.06,39.06,0,0,0,.9-4.24l.54-5.32v-.16A39.14,39.14,0,0,0,1713.71,87l-.08-.09L1710,83a38.87,38.87,0,0,0-3.29-2.84c-4.21-3.28-7.58-4-10.48-3.43-6,.64-12,1.38-17.83,2.57a166,166,0,0,0-33.89,10.43c-10.91,4.58-21.58,9.87-32.37,14.79l-32.53,14.26c-11.45,5.44-22,11.3-32.57,17.51-5.26,3.08-10.49,6.21-15.66,9.45s-10.24,6.66-15.28,10.09c-10.11,6.8-19.87,14.18-29.35,21.83-4.7,3.88-9.38,7.77-13.87,11.91-2.26,2-4.48,4.12-6.67,6.23L1463,199l-1.61,1.62-.8.81-.4.4-.2.2-.1.11,0,.05C1460.55,203.42,1458,199.57,1461.48,204.93Z" style="fill:#231f20"/><path d="M1185.46,117.69c-207.19,0-375.14,48.73-375.14,97.85,9.28,38.06,35.84,91.48,67.9,116,25.7,17.6,138.24,60.78,307.22,60.78s283.39-43.18,309.09-60.78c32.06-24.48,58.62-77.9,67.9-116C1562.43,166.42,1392.64,117.69,1185.46,117.69Z" style="fill:#fff;stroke:#231f20;stroke-miterlimit:10;stroke-width:11.144439873367531px"/><path d="M835.85,212.68c0,23.54,140.62,77,350.84,77s351.46-53.46,351.46-77" style="fill:none;stroke:#231f20;stroke-linecap:round;stroke-miterlimit:10;stroke-width:11.144439873367531px"/><circle cx="1450.31" cy="192.98" r="7.43" style="fill:#231f20"/><circle cx="1497.22" cy="210.82" r="7.43" style="fill:#231f20"/><path d="M1510.36,222c-3.1-4.17-5.27-8.94-8.08-13.3-4.24-6.55-11.68-12.61-19.16-10.38a13.24,13.24,0,0,1-3.62.94c-2.66,0-4.59-2.4-6.2-4.52A93.73,93.73,0,0,0,1463,183.22c-1-.95-2.25-1.95-3.62-1.72a5.23,5.23,0,0,0-2.32,1.42,22,22,0,0,1-16.38,4.74,23.08,23.08,0,0,1-8.36-2.47c-3-1.56-5-4.18-8-5.45-5.23-2.18-10.68-4.39-16.34-4.14-4.89.21-9.73,2.28-14.56,1.44-9.64-1.67-17.51-14.33-26.31-10.07-2.12,1-3.71,2.92-5.82,3.94-10,4.84-18.83-12.31-29.9-11.18-5.17.53-9.33,5.08-14.52,5.37-9,.51-15.17-11.79-24.18-10.86-6.24.63-11,7.61-17.21,6.72-4.47-.65-7.26-5.1-11.15-7.38-10.54-6.17-23.46,5.17-35.56,3.54-7-.94-12.76-6.14-19.66-7.62-14.76-3.19-30,11.18-44.09,5.81-4.29-1.63-7.88-5-12.37-5.9-8.37-1.72-16.11,5.4-24.65,5.85-8.22.43-16.27-5.39-24.23-3.29-5.93,1.57-10.48,7.33-16.61,7.5-4.9.13-9.1-3.37-13.83-4.66-12.71-3.45-25.14,9.47-38.14,7.38-4.69-.75-9-3.45-13.78-3.37-7.43.11-13,6.75-20,9.34-12.16,4.52-26.51-3.91-38.43,1.21-7.62,3.28-13.1,11.74-21.4,12-4.52.17-8.8-2.25-13.32-2.31-11.41-.15-18.42,13.89-29.67,15.81-3.67.63-7.61-.1-11.06,1.32-5.45,2.25-7.5,8.78-11.38,13.23-4.72,5.41-12.08,7.62-17.84,11.91a18.68,18.68,0,0,0-6.21,8.3c42.65,25.74,166.32,60,334.61,60,167.54,0,291.27-34,334.6-59.65a45,45,0,0,0-5.71-3.09C1513.39,226,1511.77,223.85,1510.36,222Z" style="fill:#cf2039;stroke:#231f20;stroke-linecap:round;stroke-miterlimit:10;stroke-width:11.144439873367531px"/><path id="path10661" d="M1014.9,181.72a5.6,5.6,0,0,0-9.26-1.52c-5,5.39-11.17,12-12.1,12.68-7.37,5.61,15.14,23.62,30.16,9.29a5.8,5.8,0,0,0-.52-8.75C1020.57,191.45,1017.57,188,1014.9,181.72Z" style="fill:#60381a"/><path id="path10661-2" data-name="path10661" d="M1364.91,234.34a5.6,5.6,0,0,0-9.27-1.48c-5,5.41-11.11,12-12,12.74-7.35,5.64,15.24,23.56,30.2,9.16a5.8,5.8,0,0,0-.56-8.75C1370.62,244.05,1367.6,240.57,1364.91,234.34Z" style="fill:#60381a"/><path id="path10661-3" data-name="path10661" d="M1246.57,203.73a5.6,5.6,0,0,0-9.27-1.48c-5,5.41-11.11,12-12,12.73-7.35,5.65,15.24,23.57,30.2,9.17a5.79,5.79,0,0,0-.57-8.75C1252.28,213.44,1249.26,210,1246.57,203.73Z" style="fill:#60381a"/><path id="path10661-4" data-name="path10661" d="M1109.36,243.7a5.61,5.61,0,0,0-9.28-1.48c-5,5.41-11.1,12-12,12.73-7.35,5.65,15.23,23.57,30.2,9.17a5.79,5.79,0,0,0-.57-8.75C1115.06,253.41,1112.05,249.93,1109.36,243.7Z" style="fill:#60381a"/><path id="path10661-5" data-name="path10661" d="M928.48,208.07a5.59,5.59,0,0,0-9.27-1.48c-5,5.41-11.11,12-12,12.73-7.35,5.64,15.24,23.56,30.21,9.16a5.8,5.8,0,0,0-.57-8.75C934.19,217.77,931.18,214.3,928.48,208.07Z" style="fill:#60381a"/><path id="path10661-6" data-name="path10661" d="M1375.16,191.72a5.6,5.6,0,0,0-9.37-.69c-4.51,5.8-10,12.91-10.92,13.69-6.85,6.25,17.17,22.2,30.86,6.59a5.79,5.79,0,0,0-1.3-8.67C1381.66,200.91,1378.37,197.7,1375.16,191.72Z" style="fill:#fffce4"/><path id="path10661-7" data-name="path10661" d="M1449.18,207.17a5.61,5.61,0,0,0-9.38.47c-3.76,6.32-8.38,14.07-9.14,15-6,7,19.78,19.89,31.44,2.71a5.79,5.79,0,0,0-2.36-8.44C1456.77,215.48,1453.1,212.71,1449.18,207.17Z" style="fill:#60381a"/><path id="path10661-8" data-name="path10661" d="M1006.5,230.49a5.6,5.6,0,0,0-9.38.41c-3.79,6.3-8.47,14-9.24,14.89-6.07,7,19.65,20,31.43,2.92a5.8,5.8,0,0,0-2.31-8.46C1014,238.86,1010.39,236.06,1006.5,230.49Z" style="fill:#fffce4"/><path id="path10661-9" data-name="path10661" d="M1127.72,184.16a5.6,5.6,0,0,0-9.38.41c-3.8,6.29-8.48,14-9.25,14.88-6.07,7,19.66,20,31.43,2.92a5.79,5.79,0,0,0-2.31-8.45C1135.25,192.52,1131.6,189.72,1127.72,184.16Z" style="fill:#fffce4"/></g></svg>