<svg id="Layer_1" data-name="Layer 1" xmlns="http://www.w3.org/2000/svg" width="2000" height="1649.7" viewBox="0 0 2000 1649.7">
  <path d="M843.79,753,815.2,722.91a564.34,564.34,0,0,1-83.31-113.47c-24.25-43.39-57.64-98.12-81.36-117.05-41.47-33.1-37.08-54.16-27.62-62.31,13.1-11.28,25.69-11.61,45.14-11.61a90.57,90.57,0,0,1,10.87.65c44,5.29,97,69.61,110.92,82,4.47,4,8.92,7.94,13.4,11.84A11.86,11.86,0,0,0,822.87,504l5.92-362.24c0-24.19,13.76-43.88,38-43.88s38,19.69,38,43.88l5.93,251.56a11.85,11.85,0,0,0,23.7,0L940.26,74c0-24.19,13.75-43.88,38-43.88s37.95,19.69,37.95,43.88l5.93,318.15a11.85,11.85,0,1,0,23.7,0l5.93-262.42c0-24.19,13.75-43.87,38-43.87s37.95,19.68,37.95,43.87l5.93,275.2a11.85,11.85,0,1,0,23.7,0l5.93-188c0-24.19,13.75-43.88,38-43.88s37.95,19.69,37.95,43.88L1243.79,389q1.21,44.57-1.72,89.1l-5.26,79.66a557.56,557.56,0,0,1-54.13,205.5h0a106.07,106.07,0,0,1-94.33,60l-76.07.88A228.77,228.77,0,0,1,843.79,753Z" style="fill: #fff;stroke: #3a3632;stroke-miterlimit: 10;stroke-width: 20px"/>
  <g>
    <path d="M104.44,1594.72h1794c56.48,0,88.59-45.56,72.24-100.08l-93-309.81c-13-43.18-62.27-77.25-110.48-77.25H235.65c-48.22,0-97.53,34.07-110.49,77.25l-93,309.81C15.85,1549.16,48,1594.72,104.44,1594.72Z" style="fill: #fff;stroke: #3a3632;stroke-miterlimit: 10;stroke-width: 24px"/>
    <path d="M184.26,1438.84c26.52,0,53-20.54,59.06-45.53l35.81-147.8c5.41-22.33-10.19-40.19-34.76-40.19s-49.37,17.86-55.45,40.19l-40.29,147.8C141.82,1418.3,157.73,1438.84,184.26,1438.84Z" style="fill: #fff;stroke: #3a3632;stroke-miterlimit: 10;stroke-width: 24px"/>
  </g>
  <g>
    <path d="M1042.65,1300.58a9.8,9.8,0,0,0,3.58,2.18,9.06,9.06,0,0,0,8.5-1.64,6.33,6.33,0,0,1,2.35-1.59c1.85-.44,3.34,1.41,4.77,2.66a9.46,9.46,0,0,0,6.82,2.28c4-.29,7.28-3,10.07-5.85,2.24-2.28,5-4.94,8.12-4.29,2.51.52,4.18,3,6.62,3.8,3.55,1.12,7.08-1.76,9.32-4.74s4.35-6.53,7.93-7.57c3.85-1.11,5.88,1.5,9.32,1.7a10.21,10.21,0,0,0,8.84-4.77c1.76-2.9,2-6.58,3.88-9.4,2-3,5.73-4.65,7.49-7.82,2-3.57,1-8.25,3.13-11.76,3.43-5.75,13-5.49,15.94-11.52,2.22-4.59-.78-10.5,1.59-15,1.89-3.62,6.56-5,8.61-8.54,3-5.12-1.09-10.64.45-15.82,1.89-6.42,11.14-10.43,14.28-17.14,2.8-6,2.4-14-2.73-18.19a10.32,10.32,0,0,1-2-1.78c-2.09-2.87.82-6.65,1.26-10.17.89-7.23-8.91-12.52-8-19.75.2-1.59.93-3.08,1.11-4.67.34-3-1.34-5.88-3.63-7.81-5.09-4.28-9.87-4.42-10.12-12.19-.17-5.21,2.85-10.28-.49-15.14a11.15,11.15,0,0,0-4-3.34,17.6,17.6,0,0,0-14.51-1.17c-4.13,1.63-6.34,6.39-11.58,3.83-2.17-1-3.74-3.18-6-3.93-3.2-1.05-6.85,1-8.81,3.92-1.57,2.32-2.91,5.55-5.63,5.72-3.82.25-7.38-4.14-11.34-4.64-3.12-.4-6.66.86-8,3.69-.75,1.59-.75,3.42-1.26,5.1-2.53,8.47-12.16,9-11.15,19.26.51,5.1,2.34,10.5.14,15.13-3,6.27-12.36,8.74-13,15.65-.43,4.94,4.22,9.21,4,14.17-.25,5.19-5.49,8.49-10.11,10.87s-9.86,5.68-10.11,10.87c-.12,2.29.83,4.54.65,6.82-.36,4.55-5,7.6-9.44,8.62s-9.18.76-13.47,2.3c-4.85,1.74-10.19,6.55-10.43,11.92-.23,5.17,4.32,9.51,4.27,14.79-.06,7.73-10.74,6.24-10.31,14.67.2,3.8,1.31,5.87,2.85,9.25,1.43,3.15-.71,6.65-.45,10.11a7.42,7.42,0,0,0,3,5.37,10.15,10.15,0,0,0,5.72,2.34c1.91,0,3.93-1.15,5.81-1,2.67.19,4.13,2.9,4.94,5.56s1.39,5.66,3.36,7.29c1.19,1,2.79,1.34,4,2.36,2.15,1.87,1.4,3.83,2,6.13A6.41,6.41,0,0,0,1042.65,1300.58Z" style="fill: #006838;stroke: #3a3632;stroke-linecap: round;stroke-miterlimit: 10;stroke-width: 10px"/>
    <path d="M1259.18,1268.1c12.75,18.19-11.19,54.79-32.71,47.61-16-11.65-19.85-18.34-38.74-26.31-17.24-7.27-81.18-12-81.18-12l1.2-15.38s50.34,1.82,53-3.41c2.93-5.8-43.28-40.53-43.28-40.53L1129,1198.7s47.28,35.18,50.57,32c4.52-4.29-25.62-57.44-25.62-57.44l13.65-7c8,12.23,37.24,63,47.45,72.51C1235,1257.57,1247.29,1263.29,1259.18,1268.1Z" style="fill: #82c14c;stroke: #3a3632;stroke-linecap: round;stroke-linejoin: round;stroke-width: 10px"/>
    <path d="M1156.55,1067.88a13.16,13.16,0,0,0-4.46-2.81,11.14,11.14,0,0,0-10.47,1.5,7,7,0,0,1-2.86,1.78c-2.28.43-4.15-1.87-6-3.46a12.46,12.46,0,0,0-8.45-3.11c-4.89.12-8.94,3.23-12.32,6.47-2.74,2.63-6.07,5.67-10,4.71-3.1-.76-5.21-3.86-8.24-4.93-4.4-1.54-8.71,1.73-11.42,5.19s-5.25,7.6-9.64,8.65c-4.73,1.14-7.29-2.12-11.54-2.55a11.86,11.86,0,0,0-10.82,5.25c-2.13,3.39-2.32,7.8-4.62,11.08-2.44,3.5-7,5.28-9.09,9-2.38,4.18-1.14,9.85-3.65,14-4.12,6.72-16,5.88-19.46,13-2.65,5.4,1.17,12.67-1.67,18-2.27,4.24-8,5.68-10.47,9.8-3.59,6,1.54,12.85-.25,19-2.22,7.61-13.56,11.93-17.31,19.82-3.35,7-2.69,16.72,3.72,22a14.26,14.26,0,0,1,2.51,2.26c2.63,3.56-.89,8-1.36,12.15-1,8.65,11.24,15.55,10.23,24.19-.22,1.9-1.1,3.65-1.29,5.55-.36,3.56,1.77,7.15,4.63,9.59,6.37,5.43,12.27,5.86,12.73,15.21.31,6.28-3.32,12.21.89,18.23a15.06,15.06,0,0,0,5,4.24c5.41,3.08,12.22,4.15,17.94,2.2,5.07-1.72,7.7-7.32,14.22-4,2.7,1.4,4.68,4,7.53,5.07,4,1.43,8.45-.85,10.81-4.23,1.89-2.7,3.48-6.51,6.84-6.57,4.72-.08,9.2,5.39,14.09,6.21,3.86.65,8.2-.67,9.83-4,.9-1.86.87-4.07,1.46-6.06,3-10,14.85-10.16,13.4-22.54-.72-6.16-3.09-12.75-.47-18.2,3.55-7.37,15.1-9.82,15.72-18.09.44-5.92-5.38-11.31-5.19-17.26.2-6.23,6.61-9.91,12.27-12.52s12.07-6.28,12.28-12.5c.1-2.75-1.11-5.51-.93-8.24.36-5.45,6-8.86,11.49-9.84s11.31-.41,16.58-2c6-1.83,12.46-7.32,12.66-13.76.18-6.2-5.52-11.67-5.57-18-.06-9.29,13.15-6.91,12.46-17.07-.32-4.58-1.74-7.13-3.69-11.28-1.83-3.87.74-8,.36-12.14a9.53,9.53,0,0,0-3.85-6.61c-1.93-1.49-4.56-3-7.11-3.13-2.35-.1-4.82,1.16-7.15.9-3.3-.38-5.15-3.71-6.21-7s-1.82-6.88-4.29-8.94c-1.48-1.24-3.46-1.77-4.91-3.06-2.69-2.36-1.81-4.68-2.62-7.48A8.49,8.49,0,0,0,1156.55,1067.88Z" style="fill: #009444;stroke: #3a3632;stroke-linecap: round;stroke-miterlimit: 10;stroke-width: 10px"/>
  </g>
  <g>
    <path d="M1272.14,1172.41a9.67,9.67,0,0,0-3.8,1.77,9.1,9.1,0,0,0-3.36,8,6.16,6.16,0,0,1,0,2.83c-.67,1.78-3,2-4.87,2.49a9.47,9.47,0,0,0-5.68,4.4c-2,3.46-1.53,7.74-.73,11.63.65,3.13,1.34,6.89-.94,9.14-1.83,1.8-4.83,1.79-6.83,3.39-2.91,2.33-2.47,6.87-1.24,10.39s3,7.24,1.89,10.79c-1.21,3.82-4.51,4.06-6.59,6.81a10.22,10.22,0,0,0-.94,10c1.44,3.08,4.37,5.3,5.66,8.44,1.37,3.36.69,7.35,2.35,10.58,1.87,3.63,6.28,5.45,8,9.13,2.88,6-2.67,13.89.73,19.65,2.59,4.4,9.16,5.19,11.61,9.67,2,3.58.53,8.24,2.32,11.91,2.6,5.32,9.45,5,12.91,9.15,4.28,5.14,2.48,15.06,6.32,21.4,3.42,5.65,10.33,9.77,16.64,7.83a10.39,10.39,0,0,1,2.6-.68c3.54-.14,5.07,4.38,7.75,6.69,5.52,4.76,15.36-.45,20.86,4.33,1.21,1.06,2,2.49,3.26,3.53,2.29,1.93,5.64,2.15,8.51,1.31,6.39-1.86,9.16-5.75,15.76-1.65,4.43,2.75,7,8.08,12.86,8a11.13,11.13,0,0,0,5-1.46,17.6,17.6,0,0,0,9-11.41c.94-4.34-1.79-8.82,3.24-11.76,2.08-1.22,4.73-1.34,6.63-2.84,2.65-2.09,2.95-6.27,1.63-9.51-1.06-2.59-3-5.5-1.63-7.86,1.92-3.31,7.54-3.84,10.16-6.85,2.06-2.37,3-6,1.37-8.72-.89-1.51-2.42-2.52-3.53-3.88-5.64-6.8-.74-15.12-9.83-20-4.52-2.41-10-3.89-12.66-8.28-3.56-6-.4-15.13-5.81-19.47-3.87-3.11-10-1.62-14-4.56-4.18-3.09-4-9.28-3.43-14.44s.76-11.36-3.42-14.45c-1.84-1.36-4.24-1.83-6-3.25-3.58-2.83-3.54-8.37-1.92-12.63s4.46-8,5.57-12.48c1.25-5,.21-12.12-4.12-15.3s-10.31-1.68-14.68-4.65c-6.39-4.35.78-12.41-6.47-16.73-3.27-1.94-5.61-2.16-9.27-2.77-3.42-.56-5.14-4.28-8.16-6a7.42,7.42,0,0,0-6.15-.45,10.08,10.08,0,0,0-5.13,3.46c-1,1.58-1.22,3.9-2.38,5.39-1.64,2.11-4.7,1.82-7.36,1s-5.48-2-7.93-1.25c-1.47.45-2.66,1.57-4.15,2-2.75.75-4-1-6.22-1.72A6.43,6.43,0,0,0,1272.14,1172.41Z" style="fill: #006838;stroke: #3a3632;stroke-linecap: round;stroke-miterlimit: 10;stroke-width: 10px"/>
    <path d="M1178.91,1370.52c-22.21.5-39.35-39.73-21.43-53.65,18.6-6.87,26.27-6.32,43.39-17.6,15.63-10.3,55.06-60.86,55.06-60.86l12.12,9.55s-29.46,40.85-26.58,45.94c3.2,5.65,57.74-13.48,57.74-13.48l9.72,20.35s-55.5,19.78-54.74,24.26c1.06,6.14,62,10.59,62,10.59l-1.79,15.21c-14.6-.15-73-4-86.65-.8C1201.08,1356.28,1189.52,1363.3,1178.91,1370.52Z" style="fill: #82c14c;stroke: #3a3632;stroke-linecap: round;stroke-linejoin: round;stroke-width: 10px"/>
    <path d="M1402.41,1396.36a13.35,13.35,0,0,0,4.82-2.15,11.16,11.16,0,0,0,4.56-9.54,7,7,0,0,1,.11-3.37c.91-2.13,3.86-2.41,6.18-3a12.52,12.52,0,0,0,7.29-5.3c2.6-4.13,2.27-9.22,1.45-13.84-.66-3.73-1.34-8.19,1.61-10.89,2.36-2.17,6.11-2.19,8.68-4.12,3.73-2.81,3.4-8.2,2-12.38s-3.41-8.58-1.84-12.83c1.68-4.55,5.81-4.88,8.53-8.17a11.88,11.88,0,0,0,1.64-11.91c-1.64-3.66-5.2-6.26-6.65-10-1.56-4-.52-8.73-2.43-12.55-2.16-4.31-7.57-6.42-9.59-10.79-3.3-7.16,4-16.56,0-23.39-3-5.2-11.18-6.07-14-11.37-2.27-4.24-.27-9.81-2.33-14.15-3-6.3-11.55-5.85-15.66-10.75-5.09-6.07-2.38-17.9-6.87-25.4-4-6.69-12.41-11.52-20.37-9.13a14,14,0,0,1-3.27.82c-4.42.22-6.11-5.14-9.35-7.87-6.65-5.61-19.17.71-25.79-4.92-1.46-1.25-2.43-2.95-3.91-4.16-2.75-2.27-6.92-2.5-10.54-1.47-8,2.28-11.69,7-19.72,2.14-5.39-3.23-8.31-9.55-15.66-9.39a15,15,0,0,0-6.29,1.8c-5.57,2.79-10.24,7.86-11.8,13.69-1.38,5.18,1.82,10.48-4.59,14-2.66,1.48-6,1.65-8.4,3.46-3.4,2.51-4,7.49-2.48,11.33,1.2,3.07,3.47,6.51,1.66,9.34-2.55,4-9.59,4.65-13,8.27-2.68,2.85-4,7.19-2.13,10.39,1,1.79,2.9,3,4.23,4.58,6.7,8,.2,18,11.31,23.66,5.52,2.82,12.31,4.52,15.38,9.72,4.16,7-.21,18,6.33,23.12,4.68,3.65,12.39,1.81,17.23,5.27,5.07,3.62,4.57,11,3.6,17.15s-1.48,13.53,3.58,17.16c2.23,1.6,5.19,2.13,7.37,3.8,4.33,3.33,4,9.92,1.8,15s-6,9.63-7.53,14.92c-1.79,6-.83,14.42,4.41,18.15,5.06,3.61,12.78,1.9,18.08,5.39,7.76,5.1-1.56,14.77,7.27,19.83,4,2.28,6.9,2.52,11.43,3.2,4.23.63,6.21,5,9.89,7a9.56,9.56,0,0,0,7.64.48c2.32-.78,5.06-2.11,6.56-4.18,1.38-1.9,1.7-4.65,3.22-6.45,2.14-2.53,5.94-2.21,9.23-1.29s6.73,2.31,9.82,1.4c1.85-.55,3.4-1.9,5.27-2.4,3.46-.91,4.9,1.11,7.68,2A8.55,8.55,0,0,0,1402.41,1396.36Z" style="fill: #009444;stroke: #3a3632;stroke-linecap: round;stroke-miterlimit: 10;stroke-width: 10px"/>
  </g>
  <g>
    <path d="M777.54,1194.44a9.74,9.74,0,0,0-3.8,1.77,9.07,9.07,0,0,0-3.35,8,6.29,6.29,0,0,1,0,2.83c-.67,1.78-3,2-4.87,2.49a9.5,9.5,0,0,0-5.68,4.4c-2,3.46-1.53,7.74-.72,11.63.65,3.14,1.33,6.89-.95,9.14-1.82,1.8-4.83,1.79-6.83,3.39-2.91,2.33-2.47,6.87-1.24,10.39s3,7.24,1.89,10.79c-1.21,3.82-4.51,4.06-6.59,6.81a10.22,10.22,0,0,0-.94,10c1.44,3.08,4.37,5.3,5.66,8.44,1.37,3.36.69,7.35,2.35,10.58,1.87,3.63,6.28,5.45,8,9.13,2.88,6-2.67,13.89.73,19.65,2.59,4.4,9.17,5.19,11.61,9.67,2,3.58.53,8.24,2.32,11.91,2.6,5.32,9.45,5,12.91,9.15,4.28,5.14,2.48,15.06,6.32,21.4,3.42,5.65,10.33,9.77,16.64,7.83a10.39,10.39,0,0,1,2.6-.68c3.54-.14,5.07,4.38,7.75,6.69,5.52,4.76,15.36-.45,20.86,4.33,1.21,1.06,2,2.49,3.26,3.53,2.29,1.93,5.64,2.15,8.51,1.31,6.39-1.86,9.17-5.75,15.76-1.65,4.43,2.75,7,8.08,12.86,8a11.24,11.24,0,0,0,5-1.45,17.65,17.65,0,0,0,9-11.42c.94-4.34-1.79-8.82,3.24-11.76,2.09-1.22,4.73-1.34,6.63-2.84,2.65-2.08,3-6.27,1.63-9.51-1.06-2.59-3-5.49-1.63-7.86,1.92-3.31,7.54-3.83,10.16-6.85,2.06-2.37,3-6,1.38-8.72-.9-1.51-2.42-2.52-3.54-3.88-5.64-6.8-.74-15.12-9.83-20-4.52-2.41-10-3.88-12.66-8.28-3.56-6-.4-15.13-5.81-19.47-3.87-3.11-10-1.61-14-4.56-4.19-3.09-4-9.28-3.44-14.44s.76-11.36-3.42-14.45c-1.84-1.36-4.24-1.83-6-3.25-3.59-2.83-3.55-8.37-1.93-12.63s4.47-8,5.57-12.48c1.25-5,.21-12.12-4.12-15.3-4.17-3.06-10.31-1.68-14.68-4.65-6.39-4.35.78-12.41-6.47-16.73-3.27-1.94-5.61-2.16-9.27-2.77-3.42-.56-5.14-4.28-8.16-6a7.42,7.42,0,0,0-6.15-.45,10,10,0,0,0-5.12,3.46c-1,1.58-1.23,3.9-2.39,5.39-1.63,2.11-4.69,1.82-7.36,1s-5.48-2-7.92-1.25c-1.48.45-2.67,1.57-4.16,2-2.75.75-4-1-6.22-1.72A6.43,6.43,0,0,0,777.54,1194.44Z" style="fill: #006838;stroke: #3a3632;stroke-linecap: round;stroke-miterlimit: 10;stroke-width: 10px"/>
    <path d="M684.31,1392.55c-22.21.5-39.35-39.73-21.43-53.64,18.6-6.88,26.27-6.33,43.39-17.61,15.63-10.3,55.06-60.86,55.06-60.86l12.12,9.55s-29.46,40.85-26.58,45.94c3.2,5.65,57.74-13.48,57.74-13.48l9.72,20.35s-55.5,19.78-54.73,24.26c1,6.14,62,10.59,62,10.59l-1.79,15.21c-14.6-.15-73-4-86.65-.8C706.48,1378.31,694.92,1385.33,684.31,1392.55Z" style="fill: #82c14c;stroke: #3a3632;stroke-linecap: round;stroke-linejoin: round;stroke-width: 10px"/>
    <path d="M907.81,1418.39a13.27,13.27,0,0,0,4.82-2.15,11.16,11.16,0,0,0,4.56-9.54,7.1,7.1,0,0,1,.11-3.37c.91-2.13,3.87-2.41,6.18-3a12.49,12.49,0,0,0,7.29-5.3c2.6-4.13,2.27-9.22,1.45-13.84-.66-3.73-1.34-8.19,1.61-10.89,2.36-2.17,6.11-2.19,8.68-4.12,3.73-2.81,3.4-8.2,2-12.38s-3.41-8.58-1.84-12.82c1.68-4.56,5.81-4.89,8.53-8.18a11.85,11.85,0,0,0,1.65-11.91c-1.65-3.66-5.2-6.26-6.66-10-1.55-4-.51-8.73-2.43-12.55-2.16-4.31-7.57-6.42-9.59-10.79-3.3-7.16,4-16.56,0-23.38-3-5.21-11.18-6.08-14-11.38-2.26-4.24-.27-9.81-2.32-14.15-3-6.3-11.55-5.85-15.66-10.75-5.1-6.07-2.39-17.9-6.87-25.4-4-6.69-12.42-11.52-20.38-9.13a14.54,14.54,0,0,1-3.27.83c-4.42.21-6.11-5.15-9.35-7.88-6.65-5.61-19.17.71-25.79-4.92-1.46-1.24-2.43-2.94-3.9-4.16-2.76-2.27-6.93-2.5-10.55-1.47-8.05,2.28-11.69,7-19.72,2.14-5.39-3.23-8.31-9.55-15.66-9.39a15,15,0,0,0-6.29,1.8c-5.57,2.79-10.24,7.86-11.79,13.69-1.39,5.18,1.81,10.48-4.6,14-2.66,1.48-6,1.65-8.4,3.46-3.4,2.51-4,7.49-2.48,11.33,1.2,3.07,3.48,6.51,1.66,9.34-2.55,4-9.58,4.65-13,8.27-2.68,2.85-4,7.19-2.13,10.39,1,1.79,2.9,3,4.23,4.58,6.71,8,.21,18,11.31,23.66,5.52,2.82,12.31,4.52,15.39,9.72,4.16,7-.22,18,6.32,23.12,4.68,3.65,12.39,1.81,17.23,5.27,5.07,3.62,4.57,11,3.6,17.15s-1.48,13.53,3.58,17.16c2.23,1.6,5.19,2.13,7.37,3.8,4.33,3.33,4,9.92,1.8,15s-5.94,9.63-7.53,14.92c-1.79,6-.83,14.42,4.41,18.16,5.06,3.6,12.78,1.89,18.08,5.38,7.76,5.1-1.56,14.77,7.27,19.83,4,2.28,6.9,2.52,11.43,3.2,4.23.63,6.21,5,9.9,7a9.53,9.53,0,0,0,7.63.48c2.32-.78,5.06-2.11,6.56-4.18,1.38-1.9,1.7-4.65,3.22-6.45,2.14-2.53,5.94-2.21,9.23-1.29s6.73,2.31,9.82,1.4c1.85-.55,3.4-1.9,5.27-2.4,3.46-.91,4.9,1.11,7.68,2A8.55,8.55,0,0,0,907.81,1418.39Z" style="fill: #009444;stroke: #3a3632;stroke-linecap: round;stroke-miterlimit: 10;stroke-width: 10px"/>
  </g>
  <g>
    <path d="M1123.78,1501.65a9.78,9.78,0,0,0,3.73,1.92,9.1,9.1,0,0,0,8.37-2.24,6.23,6.23,0,0,1,2.22-1.75c1.82-.56,3.43,1.17,5,2.32a9.43,9.43,0,0,0,7,1.8c3.93-.57,7-3.53,9.63-6.55,2.08-2.43,4.63-5.27,7.81-4.85,2.54.34,4.37,2.73,6.86,3.33,3.63.87,7-2.26,9-5.39s3.88-6.81,7.38-8.1c3.76-1.39,6,1.08,9.41,1a10.24,10.24,0,0,0,8.49-5.38c1.55-3,1.51-6.7,3.21-9.65,1.81-3.14,5.38-5,6.91-8.33,1.73-3.7.47-8.3,2.31-12,3-6,12.61-6.39,15.08-12.61,1.89-4.74-1.51-10.42.53-15.1,1.64-3.74,6.2-5.47,8-9.12,2.61-5.32-1.84-10.54-.68-15.81,1.45-6.54,10.39-11.19,13-18.11,2.38-6.16,1.4-14.15-4-17.95a10,10,0,0,1-2.12-1.64c-2.29-2.71.35-6.68.54-10.22.38-7.28-9.77-11.87-9.35-19.15.09-1.6.72-3.13.78-4.73.13-3-1.75-5.78-4.17-7.54-5.38-3.91-10.16-3.72-11-11.44-.53-5.19,2.13-10.47-1.54-15.07a11.31,11.31,0,0,0-4.22-3.06,17.59,17.59,0,0,0-14.55-.14c-4,1.91-5.88,6.81-11.28,4.64-2.24-.91-4-2.92-6.31-3.51-3.27-.81-6.76,1.51-8.51,4.53-1.4,2.43-2.51,5.74-5.22,6.11-3.79.51-7.65-3.62-11.64-3.84-3.14-.17-6.57,1.33-7.73,4.25-.65,1.63-.52,3.46-.9,5.18-1.93,8.62-11.5,9.84-9.77,20,.86,5,3.07,10.3,1.21,15.07-2.53,6.46-11.73,9.59-11.84,16.52-.09,5,4.85,8.9,5,13.86.12,5.2-4.88,8.86-9.32,11.56s-9.44,6.35-9.33,11.55c0,2.29,1.15,4.47,1.13,6.76,0,4.56-4.44,7.93-8.81,9.26s-9.1,1.4-13.27,3.24c-4.72,2.07-9.71,7.25-9.57,12.62.13,5.18,5,9.19,5.31,14.46.47,7.71-10.29,7-9.26,15.35.46,3.78,1.72,5.77,3.49,9,1.65,3-.24,6.69.26,10.12a7.42,7.42,0,0,0,3.41,5.14,10.06,10.06,0,0,0,5.87,1.93c1.89-.14,3.83-1.42,5.72-1.42,2.67,0,4.32,2.6,5.32,5.2s1.78,5.55,3.86,7c1.26.89,2.88,1.15,4.11,2.08,2.27,1.71,1.66,3.72,2.45,6A6.48,6.48,0,0,0,1123.78,1501.65Z" style="fill: #006838;stroke: #3a3632;stroke-linecap: round;stroke-miterlimit: 10;stroke-width: 10px"/>
    <path d="M1337.5,1454c9,13.72-12.74,51.62-29.29,49.79-16.82-10.49-21.09-16.9-40.49-23.52-17.71-6-81.83-6.26-81.83-6.26l.12-15.43s50.34-1.72,52.6-7.12c2.51-6-46-37.39-46-37.39l10.14-20.15s49.63,31.77,52.7,28.42c4.2-4.6-29.59-55.5-29.59-55.5L1239,1359c8.82,11.64,41.58,60.18,52.43,69C1312.66,1445.22,1325.29,1450.06,1337.5,1454Z" style="fill: #82c14c;stroke: #3a3632;stroke-linecap: round;stroke-linejoin: round;stroke-width: 10px"/>
    <path d="M1221.05,1261.52a13.22,13.22,0,0,0-4.65-2.5,11.17,11.17,0,0,0-10.34,2.24,7,7,0,0,1-2.73,2c-2.24.58-4.27-1.58-6.18-3a12.49,12.49,0,0,0-8.65-2.51c-4.86.47-8.68,3.85-11.83,7.33-2.54,2.8-5.65,6.07-9.6,5.4-3.15-.55-5.47-3.5-8.57-4.34-4.5-1.24-8.57,2.33-11,6s-4.7,8-9,9.31c-4.63,1.46-7.42-1.6-11.69-1.73a11.83,11.83,0,0,0-10.42,6c-1.88,3.54-1.77,7.94-3.82,11.38-2.2,3.67-6.6,5.76-8.44,9.61-2.08,4.34-.44,9.92-2.66,14.19-3.64,7-15.53,7-18.5,14.3-2.26,5.58,2,12.56-.41,18.05-2,4.39-7.59,6.22-9.76,10.51-3.15,6.22,2.45,12.71,1.1,19-1.68,7.75-12.69,12.85-15.88,21-2.84,7.25-1.51,16.86,5.26,21.69a13.91,13.91,0,0,1,2.65,2.08c2.88,3.37-.32,8-.49,12.22-.36,8.69,12.3,14.72,11.9,23.4-.09,1.92-.84,3.72-.9,5.64-.1,3.57,2.27,7,5.3,9.23,6.73,5,12.65,5,13.77,14.28.75,6.24-2.46,12.42,2.17,18.12a14.88,14.88,0,0,0,5.27,3.88c5.62,2.7,12.48,3.28,18,.94,4.94-2.08,7.17-7.85,13.91-5,2.79,1.2,5,3.7,7.87,4.52,4.07,1.15,8.36-1.44,10.48-5,1.69-2.83,3-6.74,6.36-7,4.7-.41,9.55,4.73,14.5,5.21,3.89.37,8.13-1.25,9.51-4.69.78-1.92.59-4.11,1-6.14,2.25-10.22,14.1-11.18,11.79-23.43-1.15-6.09-4-12.5-1.74-18.12,3-7.6,14.37-10.86,14.4-19.15,0-5.94-6.16-10.9-6.39-16.85-.24-6.23,5.9-10.35,11.36-13.35s11.6-7.11,11.37-13.34c-.1-2.74-1.49-5.41-1.51-8.15,0-5.47,5.38-9.26,10.77-10.62s11.26-1.21,16.41-3.19c5.81-2.23,11.91-8.17,11.65-14.61-.25-6.2-6.32-11.26-6.82-17.58-.71-9.26,12.64-7.82,11.23-17.9-.64-4.55-2.23-7-4.48-11-2.09-3.73.19-8-.49-12.13a9.53,9.53,0,0,0-4.3-6.33c-2-1.35-4.77-2.7-7.32-2.62-2.34.07-4.72,1.5-7.07,1.4-3.31-.15-5.39-3.34-6.67-6.51s-2.3-6.73-4.91-8.61c-1.57-1.14-3.58-1.53-5.12-2.71-2.85-2.17-2.13-4.55-3.14-7.28A8.39,8.39,0,0,0,1221.05,1261.52Z" style="fill: #009444;stroke: #3a3632;stroke-linecap: round;stroke-miterlimit: 10;stroke-width: 10px"/>
    <path d="M1337.5,1454a52,52,0,0,0-21.41,20.38c-7.88,13.58-7.88,29.41-7.88,29.41" style="fill: #82c14c;stroke: #3a3632;stroke-linecap: round;stroke-linejoin: round;stroke-width: 10px"/>
  </g>
  <g>
    <path d="M801.75,1196.55a14.12,14.12,0,0,0-3.48,5,13.2,13.2,0,0,0,1.61,12.48c.82,1.12,1.86,2.18,2.09,3.54.46,2.74-2.35,4.73-4.3,6.69a13.74,13.74,0,0,0-3.93,9.68c.06,5.77,3.73,10.84,7.58,15.14,3.1,3.47,6.71,7.69,5.48,12.18-1,3.6-4.77,5.79-6.11,9.26-2,5,1.91,10.44,6,14s9.07,6.91,10.25,12.19c1.27,5.68-2.7,8.4-3.31,13.37a14.83,14.83,0,0,0,6.12,13.26c4.05,2.82,9.36,3.47,13.28,6.48,4.18,3.22,6.23,8.73,10.67,11.58,5,3.2,11.87,2.27,16.77,5.62,8,5.49,6.79,19.4,15.27,24.17,6.46,3.64,15.31-.17,21.65,3.67,5.07,3.08,6.69,10,11.61,13.28,7.15,4.79,15.54-.61,22.91,2.08,9.14,3.34,14.12,17.12,23.57,22.29,8.43,4.61,20.12,4.75,26.63-2.31a15.33,15.33,0,0,1,2.78-2.74c4.34-2.77,9.57,1.79,14.63,2.75,10.41,1.95,19-11.79,29.38-9.78,2.29.44,4.39,1.64,6.68,2,4.28.76,8.66-1.41,11.66-4.56,6.68-7,7.32-13.92,18.61-13.58,7.57.23,14.66,5.07,22,.68a16.31,16.31,0,0,0,5.21-5.49c3.83-6.09,5.25-14,3-20.94-2-6.15-8.69-9.78-4.51-17.15,1.73-3.06,5-5.14,6.26-8.41,1.81-4.55-.86-10-4.89-13.14-3.22-2.49-7.78-4.73-7.79-8.69,0-5.57,6.68-10.34,7.77-16,.86-4.48-.64-9.73-4.63-12-2.23-1.24-4.89-1.41-7.28-2.29-12-4.44-12-18.48-26.94-17.94-7.44.27-15.44,2.44-21.95-1.17-8.83-4.87-11.56-18.73-21.52-20.24-7.14-1.07-13.76,5.28-20.93,4.49-7.51-.82-11.83-8.73-14.86-15.65s-7.34-14.83-14.85-15.67c-3.31-.37-6.66.8-10,.33-6.57-.94-10.56-7.94-11.63-14.48s-.27-13.38-2.12-19.76c-2.08-7.19-8.58-15.38-16.34-16.21-7.49-.81-14.2,5.4-21.85,4.85-11.21-.79-8.08-16.16-20.35-16.3-5.53-.06-8.64,1.38-13.68,3.29-4.7,1.79-9.59-1.63-14.63-1.57a10.81,10.81,0,0,0-8.06,3.91c-1.84,2.14-3.75,5.1-3.92,8.09-.16,2.77,1.31,5.8.94,8.53-.51,3.85-4.57,5.71-8.51,6.65s-8.34,1.5-10.87,4.22c-1.53,1.64-2.21,3.92-3.79,5.51-2.91,2.94-5.69,1.69-9.08,2.38A9.41,9.41,0,0,0,801.75,1196.55Z" style="fill: #006838;stroke: #3a3632;stroke-linecap: round;stroke-miterlimit: 10;stroke-width: 10px"/>
    <path d="M835.56,1513.88c-29.66,15.24-92-31.51-81.21-63.27,18.58-22,29.53-26.28,41.82-53.73,11.21-25,14.75-102.62,14.75-102.62l25.74,5.83s.56,57.08,9.41,62.53c9.84,6.05,49.41-36.22,49.41-36.22l33,23s-40.25,43.83-34.86,49.77c7.41,8.16,82.18-20.88,82.18-20.88l-8.08,32.13c-20,9.33-70.32,28.57-85.7,42.06C851.83,1478.88,843,1496.55,835.56,1513.88Z" style="fill: #82c14c;stroke: #3a3632;stroke-linecap: round;stroke-linejoin: round;stroke-width: 10px"/>
    <path d="M1133.92,1399.49a17.89,17.89,0,0,0,4.48-6.23,16.62,16.62,0,0,0-1.79-15.75c-1-1.42-2.3-2.78-2.57-4.5-.53-3.45,3-5.9,5.54-8.34a17.28,17.28,0,0,0,5.12-12.11c0-7.27-4.49-13.72-9.25-19.21-3.85-4.42-8.31-9.8-6.68-15.44,1.3-4.5,6.11-7.18,7.87-11.53,2.55-6.33-2.21-13.18-7.33-17.69s-11.29-8.86-12.68-15.54c-1.5-7.17,3.56-10.52,4.42-16.77s-2.42-13.18-7.46-16.8-11.72-4.54-16.6-8.41c-5.2-4.13-7.68-11.11-13.22-14.78-6.23-4.12-14.9-3.07-21-7.38-10-7.07-8.18-24.56-18.76-30.72-8.08-4.7-19.29-.07-27.2-5-6.32-4-8.23-12.68-14.36-16.93-8.92-6.16-19.58.48-28.81-3-11.45-4.38-17.46-21.82-29.26-28.51-10.52-6-25.24-6.35-33.57,2.41a19,19,0,0,1-3.54,3.4c-5.53,3.41-12-2.43-18.38-3.73-13.07-2.65-24.11,14.49-37.17,11.77-2.87-.6-5.49-2.15-8.37-2.7-5.37-1-10.92,1.62-14.76,5.52-8.54,8.69-9.47,17.39-23.68,16.75-9.53-.43-18.37-6.66-27.7-1.26a20.56,20.56,0,0,0-6.66,6.81c-4.93,7.6-6.87,17.56-4.19,26.31,2.38,7.77,10.76,12.48,5.36,21.68-2.24,3.81-6.35,6.37-8,10.46-2.36,5.7.89,12.66,5.91,16.64,4,3.19,9.71,6.09,9.64,11.09-.09,7-8.6,12.88-10.08,20-1.17,5.63.63,12.26,5.61,15.14,2.78,1.61,6.13,1.87,9.12,3,15.09,5.81,14.72,23.48,33.58,23.08,9.37-.2,19.49-2.78,27.62,1.88,11,6.3,14.2,23.8,26.72,25.88,9,1.49,17.41-6.38,26.42-5.26,9.44,1.18,14.73,11.21,18.42,20s9,18.81,18.4,20c4.16.53,8.4-.87,12.55-.22,8.25,1.31,13.15,10.19,14.38,18.45s.09,16.85,2.29,24.9c2.49,9.1,10.52,19.53,20.27,20.73,9.41,1.15,18-6.54,27.6-5.71,14.1,1.21,9.87,20.5,25.31,20.9,7,.18,10.9-1.57,17.29-3.89,6-2.16,12,2.23,18.39,2.26a13.57,13.57,0,0,0,10.22-4.78c2.36-2.65,4.81-6.35,5.08-10.11.26-3.48-1.54-7.32-1-10.75.73-4.84,5.87-7.11,10.85-8.22s10.52-1.73,13.76-5.11c2-2,2.86-4.89,4.87-6.87,3.72-3.65,7.2-2,11.48-2.82A11.89,11.89,0,0,0,1133.92,1399.49Z" style="fill: #009444;stroke: #3a3632;stroke-linecap: round;stroke-miterlimit: 10;stroke-width: 10px"/>
  </g>
  <g>
    <path d="M727.29,1226.21a5.89,5.89,0,0,1,2.76,2.91c1.19,2.78.36,7-2.12,10.81a13.06,13.06,0,0,0-2,3.63c-.56,2.41,1.79,3.07,3.38,4,2.06,1.21,3.12,3.64,2.88,6.59-.38,4.76-3.88,10.19-7.5,15.06-2.92,3.93-6.31,8.64-5.5,11.91.65,2.61,3.85,3.1,4.82,5.49,1.42,3.47-2.27,9.23-6.08,13.55s-8.33,8.81-9.67,13.56c-1.44,5.11,1.88,6,2.13,9.84s-2.41,9.3-6.12,13-8.39,6.09-12,9.92c-3.84,4.09-6,9.33-10,13.2-4.56,4.36-10.52,6-15,10.42-7.35,7.29-7.06,18.29-14.75,25.14-5.87,5.22-13.4,5.15-19.18,10.5-4.61,4.28-6.42,10.51-10.92,14.93-6.54,6.4-13.57,4.87-20.18,9.63-8.2,5.9-13.35,19-21.92,26.46-7.64,6.7-17.88,10.86-23.18,7.31a6.54,6.54,0,0,0-2.27-1.29c-3.65-.77-8.49,4.78-13,7.32-9.23,5.2-16-3.13-25.17,2.12-2,1.15-3.93,2.86-6,4-3.8,2.1-7.5,1.83-10,.28-5.44-3.44-5.61-8.9-15.51-4.72-6.65,2.81-13.13,9.24-19.31,8.16a7,7,0,0,1-4.25-2.7c-3-3.68-3.79-9.71-1.44-16.17,2.09-5.73,8.17-11,4.93-15.65-1.34-1.91-4.05-2.5-5-4.74-1.32-3.12,1.33-8.55,5-12.49,3-3.15,7.09-6.57,7.32-9.83.33-4.58-5.26-6.18-5.88-10.49-.5-3.39,1.12-8.22,4.74-11.43,2-1.79,4.36-2.85,6.51-4.4,10.81-7.82,11.53-19.32,24.61-24,6.5-2.35,13.38-3.34,19.29-8.55,8-7.06,11.19-19.39,20-24.08,6.31-3.35,11.73-.42,18.06-3.54,6.62-3.28,10.86-11.27,13.91-18s7.27-14.72,13.9-18c2.92-1.45,5.79-1.65,8.7-3.18,5.81-3,9.71-10.17,11-15.92s1-11.08,3-17c2.24-6.63,8.4-15.61,15.24-19,6.61-3.25,12.12-.46,18.86-3.56,9.86-4.53,8-16.07,18.75-20.42,4.84-2,7.48-1.86,11.79-2,4-.16,8.49-4.66,12.9-6.36,3-1.13,5.28-.73,6.83.43a6.67,6.67,0,0,1,3,5.3c0,2.21-1.48,5.21-1.32,7.32.23,3,3.68,3.12,7.08,2.53s7.21-1.65,9.27-.29c1.25.81,1.71,2.45,3,3.22,2.38,1.41,4.89-.59,7.82-1.19A5.63,5.63,0,0,1,727.29,1226.21Z" style="fill: #006838;stroke: #3a3632;stroke-linecap: round;stroke-miterlimit: 10;stroke-width: 10px"/>
    <path d="M709.34,1508.64c27.45,6.72,81-49.89,69.46-76-22-18.62-33.51-21-50.22-46-15.25-22.81-44.93-123.08-44.93-123.08l-24.4,10.06s22.21,80.75,14.39,87.6c-8.68,7.62-74-45.41-74-45.41L571,1344s66.21,54.45,61.89,61.21c-5.93,9.28-115.7-12-115.7-12l13.36,30.33c21.26,5.85,105.29,21.57,122.71,32.29C687.44,1476.86,699.15,1492.79,709.34,1508.64Z" style="fill: #82c14c;stroke: #3a3632;stroke-linecap: round;stroke-linejoin: round;stroke-width: 10px"/>
    <path d="M762.93,1442.14c-13.51.32-48.23,37.6-45.4,49.65" style="fill: #82c14c;stroke: #3a3632;stroke-linecap: round;stroke-linejoin: round;stroke-width: 10px"/>
    <path d="M388.61,1438.89a18.12,18.12,0,0,1-5.46-5.39,16.64,16.64,0,0,1-.87-15.83c.77-1.57,1.81-3.12,1.78-4.86-.05-3.49-4-5.31-6.85-7.3a17.26,17.26,0,0,1-7.08-11.08c-1.25-7.16,2.12-14.28,5.9-20.48,3.05-5,6.55-11.06,4-16.35-2-4.22-7.23-6.06-9.69-10-3.58-5.81,0-13.36,4.26-18.66s9.65-10.64,9.9-17.45c.27-7.32-5.27-9.77-7.16-15.79s.17-13.4,4.53-17.82,10.8-6.44,15-11.07c4.43-4.94,5.71-12.24,10.55-16.78,5.46-5.11,14.18-5.53,19.48-10.8,8.69-8.64,3.95-25.58,13.36-33.43,7.17-6,19-3.29,26-9.51,5.57-5,6-13.89,11.32-19.1,7.76-7.57,19.38-2.8,27.89-7.82,10.55-6.23,13.56-24.44,24.07-33,9.37-7.63,23.82-10.49,33.5-3.24a19.66,19.66,0,0,0,4.06,2.76c6,2.43,11.44-4.42,17.49-6.76,12.44-4.81,26.2,10.24,38.62,5.37,2.73-1.07,5.05-3,7.8-4.06,5.12-1.92,11-.24,15.48,3,9.87,7.13,12.25,15.56,26.15,12.55,9.32-2,17-9.65,27.09-5.88a20.51,20.51,0,0,1,7.72,5.59c6.13,6.66,9.7,16.16,8.53,25.24-1,8.06-8.52,14.1-1.65,22.26,2.85,3.39,7.32,5.23,9.68,9,3.28,5.22,1.24,12.62-3,17.39-3.42,3.81-8.55,7.63-7.65,12.54,1.27,6.9,10.64,11.26,13.3,18.07,2.09,5.36,1.43,12.2-3,15.87-2.47,2.06-5.72,2.87-8.49,4.51-13.9,8.26-10.57,25.62-29.23,28.38-9.27,1.37-19.68.53-26.92,6.48-9.8,8.07-10,25.85-22,30-8.59,3-18.23-3.38-26.93-.76-9.11,2.74-12.64,13.52-14.81,22.78s-5.69,20-14.79,22.8c-4,1.22-8.43.55-12.41,1.89-7.91,2.66-11.26,12.24-11.09,20.59s2.74,16.62,1.92,24.94c-.93,9.38-7.1,21-16.52,23.82-9.08,2.72-18.81-3.43-28.16-1-13.7,3.56-6.3,21.86-21.46,24.84-6.83,1.35-11,.28-17.69-.93-6.23-1.13-11.5,4.22-17.75,5.3a13.59,13.59,0,0,1-10.88-3c-2.77-2.22-5.8-5.45-6.71-9.12-.83-3.38.3-7.47-.78-10.76-1.52-4.65-7-6-12.07-6.29s-10.66.06-14.43-2.73c-2.26-1.68-3.63-4.34-6-6-4.28-3-7.43-.79-11.78-.86A12,12,0,0,1,388.61,1438.89Z" style="fill: #009444;stroke: #3a3632;stroke-linecap: round;stroke-miterlimit: 10;stroke-width: 10px"/>
  </g>
  <g>
    <path d="M1626.55,1518.47a5.93,5.93,0,0,1-3.6,1.77c-3,.3-6.8-1.76-9.69-5.26a13,13,0,0,0-2.86-3c-2.12-1.25-3.46.79-4.83,2-1.78,1.6-4.41,1.89-7.16.78-4.43-1.79-8.57-6.75-12.13-11.65-2.88-4-6.36-8.61-9.72-8.81-2.69-.16-4.11,2.74-6.68,3-3.74.32-8.14-4.93-11.12-9.85s-5.92-10.59-10-13.28c-4.45-2.9-6.26,0-10-.91s-8.15-5.08-10.59-9.72-3.3-9.83-5.88-14.41c-2.76-4.89-7.13-8.48-9.61-13.5-2.8-5.65-2.56-11.83-5.46-17.43-4.76-9.19-15.35-12.2-19.59-21.59-3.23-7.16-.91-14.32-4.3-21.43-2.7-5.68-8.11-9.27-11-14.89-4.16-8.15-.59-14.4-3.16-22.13-3.19-9.58-14.1-18.4-18.71-28.82-4.11-9.29-5-20.31-.06-24.31a6.5,6.5,0,0,0,1.92-1.78c1.82-3.25-2-9.53-3.11-14.57-2.21-10.36,7.74-14.28,5.49-24.65-.5-2.28-1.56-4.6-2-6.88-.87-4.25.49-7.71,2.7-9.58,4.91-4.17,10.18-2.69,9.14-13.39-.69-7.18-4.89-15.29-2-20.87a7,7,0,0,1,3.85-3.25c4.41-1.76,10.39-.71,15.85,3.46,4.85,3.7,8.1,11.09,13.47,9.38,2.22-.71,3.6-3.12,6-3.36,3.37-.33,7.76,3.82,10.41,8.54,2.13,3.77,4.16,8.72,7.2,9.92,4.27,1.67,7.47-3.17,11.77-2.49,3.38.54,7.51,3.53,9.49,8,1.11,2.46,1.42,5,2.26,7.52,4.23,12.65,15,16.78,15.6,30.67.3,6.9-.81,13.77,2.4,21,4.35,9.74,15.16,16.47,17,26.28,1.32,7-3.1,11.32-2,18.3,1.15,7.3,7.51,13.72,13,18.65s11.88,11.33,13,18.64c.51,3.22-.16,6,.43,9.25,1.17,6.45,6.81,12.3,11.9,15.27s10.28,4.27,15.3,7.92c5.66,4.11,12.39,12.67,13.56,20.21,1.13,7.27-3.17,11.71-2.23,19.06,1.38,10.76,13,12.43,13.89,24,.43,5.21-.46,7.7-1.58,11.86-1,3.88,1.91,9.49,2.21,14.21.2,3.15-.88,5.26-2.45,6.39a6.65,6.65,0,0,1-5.94,1.25c-2.11-.68-4.53-3-6.6-3.44-2.92-.67-4.07,2.58-4.52,6s-.58,7.38-2.49,8.94c-1.15,1-2.86.9-4,1.91-2.06,1.84-.9,4.83-1.2,7.81A5.71,5.71,0,0,1,1626.55,1518.47Z" style="fill: #006838;stroke: #3a3632;stroke-linecap: round;stroke-miterlimit: 10;stroke-width: 10px"/>
    <path d="M1362.37,1417c-14.61,24.19,23.42,92.22,51.77,89,24.35-15.44,30-25.73,58.86-34.21,26.33-7.74,130.89-6.12,130.89-6.12l-2.31-26.29s-83.7-2.92-87.91-12.43c-4.67-10.56,65.43-57,65.43-57l-18.32-35.76s-71.74,46.93-76.9,40.79c-7.09-8.43,46-106.83,46-106.83l-32.93,3.69c-11.93,18.54-52,94-67.47,107.47C1399.24,1405.58,1380.54,1412,1362.37,1417Z" style="fill: #82c14c;stroke: #3a3632;stroke-linecap: round;stroke-linejoin: round;stroke-width: 10px"/>
    <path d="M1409.83,1488c3.73-13-21.48-57.25-33.82-58.15" style="fill: #82c14c;stroke: #3a3632;stroke-linecap: round;stroke-linejoin: round;stroke-width: 10px"/>
    <path d="M1524.72,1131.74a18,18,0,0,1,6.78-3.61,16.64,16.64,0,0,1,15.36,3.9c1.27,1.2,2.44,2.65,4.12,3.15,3.34,1,6.25-2.22,9-4.36a17.3,17.3,0,0,1,12.69-3.45c7.2.94,13,6.29,17.78,11.75,3.87,4.41,8.6,9.55,14.4,8.7,4.64-.69,8-5.09,12.49-6.25,6.61-1.68,12.76,4,16.54,9.65s7.27,12.38,13.69,14.65c6.91,2.45,10.91-2.11,17.21-2.12s12.74,4.17,15.65,9.65,2.92,12.23,6.1,17.58c3.4,5.71,10,9.1,12.86,15.09,3.25,6.73,1,15.18,4.5,21.81,5.65,10.87,23.23,11.41,27.91,22.73,3.57,8.63-2.53,19.11,1.32,27.62,3.08,6.8,11.46,9.86,14.84,16.52,4.91,9.66-3.11,19.33-.85,29,2.79,11.93,19.27,20.23,24.3,32.83,4.49,11.22,2.9,25.86-6.9,32.94a18.81,18.81,0,0,0-3.85,3c-4.12,5,.8,12.24,1.22,18.71.88,13.31-17.6,22-16.66,35.25.21,2.93,1.39,5.73,1.55,8.66.3,5.46-3.07,10.61-7.45,13.88-9.76,7.29-18.51,7-19.79,21.21-.86,9.51,4.13,19.1-2.48,27.62a20.64,20.64,0,0,1-7.64,5.69c-8.19,3.86-18.32,4.44-26.64.6-7.38-3.4-10.91-12.33-20.75-8.22-4.08,1.7-7.18,5.43-11.46,6.56-6,1.57-12.42-2.59-15.69-8.1-2.62-4.4-4.73-10.44-9.69-11-7-.85-13.92,6.79-21.21,7.29-5.74.4-12.07-2.28-14.25-7.6-1.22-3-1-6.32-1.77-9.45-3.73-15.73-21.29-17.74-18.35-36.37,1.45-9.26,5.37-18.94,1.85-27.63-4.77-11.76-21.68-17.26-22.06-29.95-.27-9.08,8.67-16.39,8.77-25.48.11-9.51-9.12-16.1-17.32-20.94s-17.42-11.41-17.34-20.92c0-4.19,2-8.21,1.91-12.4-.19-8.36-8.32-14.41-16.35-16.74s-16.68-2.35-24.37-5.62c-8.68-3.69-17.93-13-17.81-22.88.13-9.48,8.9-16.93,9.38-26.58.69-14.13-19-12.53-17.31-27.89.76-6.92,3-10.59,6.18-16.61,2.94-5.61-.59-12.23.24-18.52a13.6,13.6,0,0,1,6.11-9.49c2.94-2,6.93-3.91,10.7-3.67,3.48.21,7,2.51,10.51,2.46,4.9-.06,7.84-4.86,9.61-9.64s3.13-10.19,6.91-13c2.28-1.66,5.23-2.17,7.46-3.9,4.12-3.2,3-6.86,4.34-11A12,12,0,0,1,1524.72,1131.74Z" style="fill: #009444;stroke: #3a3632;stroke-linecap: round;stroke-miterlimit: 10;stroke-width: 10px"/>
  </g>
</svg>
