<svg xmlns="http://www.w3.org/2000/svg" height="1732.611" width="1924"  xmlns:v="https://vecta.io/nano"><g stroke="#231f20" stroke-width="24"><g stroke-linejoin="round"><path d="M1767.06 533.75v1050.52a136 136 0 0 1-136.35 136.34H293.3A136 136 0 0 1 157 1584.27V533.75z" opacity="1" fill="#fff"/><path d="M98.8 533.4A86.6 86.6 0 0 0 12 620.17v79.73a86.6 86.6 0 0 0 86.79 86.78h58.15V533.74h47.4l-7.06-.35zm1726.4 0a86.6 86.6 0 0 1 86.79 86.78v79.73a86.6 86.6 0 0 1-86.79 86.78h-58.15V533.75h-47.4l7.06-.35z" opacity="1" fill="none"/><path d="M959.84 214.94c-295.44.52-580.7 124.1-802.84 318.8h1610.1c-222.76-195.2-508.86-318.8-805-318.8z" opacity="1" fill="#fff" fill-opacity=".996"/><path d="M1154.5 230.2a196 196 0 0 0 1.53-24.21c0-107.16-86.87-194-194-194h-1.38C854 12.73 768 99.37 768 206a194.06 194.06 0 0 0 1.53 24.21" opacity="1" fill="none" stroke-linecap="round"/></g><g fill="#fff"><circle r="203" cy="979.68" cx="962"/><path d="M962 979.68v-137.5" stroke-linecap="round" stroke-miterlimit="10"/></g></g><path d="M434.58 1521.1l-34.52-137.2v148.66q0 12.33-5.5 18.5-5.5 6.18-14.6 6.2a18.65 18.65 0 0 1-14.4-6.1q-5.58-6.1-5.58-18.58v-170.4q0-14.1 7.35-19 7.35-4.9 19.83-4.92h13.5q12.2 0 17.7 2.2a14.87 14.87 0 0 1 8.15 7.94q2.65 5.73 6 18.65l31.28 118 31.3-118q3.38-12.93 6-18.65a14.92 14.92 0 0 1 8.16-7.94q5.5-2.2 17.7-2.2h13.5q12.48 0 19.83 4.92 7.35 4.92 7.35 19v170.4q0 12.33-5.5 18.5-5.5 6.18-14.7 6.17a18.37 18.37 0 0 1-14.25-6.17q-5.6-6.18-5.58-18.5v-148.7l-34.52 137.2q-3.4 13.37-5.5 19.6a27 27 0 0 1-7.86 11.38q-5.68 5.18-15.87 5.18a23.23 23.23 0 0 1-21.15-11.76 47.76 47.76 0 0 1-4.62-11.38q-1.7-6.27-3.46-13.03zm319.8-149.24H656.1v52.88h90.5q10 0 14.9 4.48a15.23 15.23 0 0 1 4.92 11.82 15.84 15.84 0 0 1-4.85 12q-4.84 4.62-15 4.62H656.1v61.26h101.65q10.3 0 15.5 4.77 5.2 4.77 5.22 12.7a16 16 0 0 1-5.22 12.41q-5.22 4.77-15.5 4.77H639.2q-14.25 0-20.5-6.3-6.24-6.3-6.24-20.42v-161.9q0-9.4 2.8-15.35a17.32 17.32 0 0 1 8.74-8.66q6-2.72 15.2-2.72h115.17q10.43 0 15.5 4.63a15.62 15.62 0 0 1 5.07 12.12q0 7.63-5.07 12.26-5.07 4.63-15.5 4.63zm85.78-33.6H897q22.17 0 38 4.1a70 70 0 0 1 28.79 15.43q33.64 28.8 33.64 87.54a172 172 0 0 1-3.38 35.41 104.5 104.5 0 0 1-10.43 28.86 89.61 89.61 0 0 1-18.07 23 74.53 74.53 0 0 1-18.94 12.48 85.56 85.56 0 0 1-22.11 6.61 167.44 167.44 0 0 1-26.66 1.91H841q-11.9 0-17.92-3.6a16.66 16.66 0 0 1-7.86-10.13 64.63 64.63 0 0 1-1.83-17v-157.94q0-14.1 6.3-20.4 6.3-6.3 20.45-6.27zm16.85 34.47v146.16h33.05q10.88 0 17-.6a53 53 0 0 0 12.78-2.94 34.65 34.65 0 0 0 11.46-6.61q21.9-18.5 21.9-63.75 0-31.87-9.63-47.74-9.63-15.87-23.72-20.2-14.1-4.32-34.08-4.33zm180.57 157.9V1361q0-13.2 6-19.83a20.11 20.11 0 0 1 15.58-6.61q9.82 0 15.93 6.53 6.1 6.53 6.1 19.9v169.66q0 13.36-6.1 20-6.1 6.64-15.93 6.62a20 20 0 0 1-15.5-6.69q-6.1-6.7-6.08-19.93zm92.7-66.1V1361q0-13.2 6-19.83 6-6.62 15.64-6.6 10.14 0 16.1 6.6 5.95 6.6 6 19.83v105.9q0 18.06 4 30.18a34.83 34.83 0 0 0 14.32 18.81q10.27 6.68 28.8 6.68 25.56 0 36.13-13.6 10.57-13.6 10.58-41.2V1361q0-13.37 5.88-19.9 5.88-6.54 15.7-6.53 9.84 0 15.94 6.53 6.1 6.53 6.1 19.9v103.56q0 25.26-4.92 42.15a65.14 65.14 0 0 1-18.59 29.68 72.23 72.23 0 0 1-27.32 15.86q-15.57 5-36.43 5-24.82 0-42.74-5.37-17.92-5.37-29.23-16.6-11.33-11.24-16.6-28.8-5.27-17.55-5.35-41.93zm300.98 56.55l-34.52-137.2v148.66q0 12.33-5.5 18.5-5.5 6.18-14.6 6.2a18.65 18.65 0 0 1-14.4-6.1q-5.58-6.1-5.58-18.58v-170.4q0-14.1 7.34-19 7.34-4.9 19.83-4.92h13.52q12.2 0 17.7 2.2a14.87 14.87 0 0 1 8.15 7.94q2.64 5.73 6 18.65l31.3 118 31.3-118q3.38-12.93 6-18.65a14.87 14.87 0 0 1 8.15-7.94q5.52-2.2 17.7-2.2h13.52q12.48 0 19.83 4.92 7.35 4.92 7.34 19v170.4q0 12.33-5.5 18.5-5.5 6.18-14.77 6.17a18.37 18.37 0 0 1-14.25-6.17q-5.58-6.18-5.58-18.5v-148.7l-34.52 137.2q-3.37 13.37-5.5 19.6a27 27 0 0 1-7.85 11.38q-5.73 5.15-15.87 5.15a23.2 23.2 0 0 1-21.15-11.76 48.2 48.2 0 0 1-4.63-11.38q-1.65-6.24-3.4-13z" fill="#231f20"/></svg>