<svg xmlns="http://www.w3.org/2000/svg" height="1968.46" width="1141.492"  xmlns:v="https://vecta.io/nano"><style><![CDATA[.B{stroke-width:24}.C{stroke-linecap:round}.D{stroke-miterlimit:15.12}]]></style><g stroke="#010101"><path d="M70.15 761.87V561.5c0-23.72 18.4-42.94 41.13-42.94h915.22c22.72 0 41.13 19.22 41.13 42.94v200.38" fill="#fff" class="B D"/><circle r="38.03" cy="621.29" cx="200.62"/><circle r="38.03" cy="621.29" cx="326.88"/><circle r="38.03" cy="621.29" cx="561.61"/><g class="D"><rect rx="46.87" height="1194.59" width="1099.22" y="761.87" x="12" fill="#fff" class="B"/><path d="M16.1 1732.7h1091.04"/><rect rx="14.31" height="66.72" width="961.92" y="927.57" x="80.65"/><g fill="none"><path d="M16.1 851.25h1091.04" stroke-width="15.62"/><path d="M164.4 738.03h318.05m158.32 0h318.06" stroke-width="31.24" class="C"/></g><g class="B"><rect rx="93.73" height="585.76" width="798.03" y="1070.61" x="162.59" fill="#fff"/><path d="M164.92 1478.57h797.33m-721.25 0v168.94m107.52-168.94v168.94m107.54-168.94v168.94m107.54-168.94v168.94m107.53-168.94v168.94m107.53-168.94v168.94m107.54-168.94v168.94" fill="none" class="C"/></g></g></g><g stroke="#231f20" stroke-linejoin="round" class="B"><path d="M803.73 675.02V456.87m84.55 133.6l-84.55 99.64-84.55-99.64" fill="none" class="C"/><path d="M1018.5 77.76l85.4 9.45c33.37 3.7 33.6 54.87 3.65 65.67l-89 32.1zm-437.48 0L495.7 87.2c-33.36 3.7-33.6 54.87-3.64 65.67l89 32.1zM1018.5 12v342.15a62.8 62.8 0 0 1-62.94 62.94H644a62.8 62.8 0 0 1-62.94-62.94V12z" fill="#fff"/></g></svg>