<svg xmlns="http://www.w3.org/2000/svg" xmlns:xlink="http://www.w3.org/1999/xlink" height="845.26" width="1924" xmlns:v="https://vecta.io/nano"><g stroke="#231f20"><path d="M1198.72 562.06v-257.4m91.75 165.66l-91.75 108.13L1107 470.33" fill="none" stroke-width="24" stroke-linecap="round" stroke-linejoin="round"/><g stroke-width="7.755" stroke-miterlimit="10"><use xlink:href="#B" fill="#fff"/><path d="M236.5 615.12v184.92m58.24-184.92l-21.32 184.92m79.55-184.92l-42.64 184.92M178.28 615.12l21.32 184.92m-79.55-184.92l42.64 184.92" fill="none"/><use xlink:href="#B" x="481.1" fill="#fff"/><path d="M717.6 615.12v184.92m58.24-184.92l-21.32 184.92m79.55-184.92l-42.64 184.92M659.38 615.12l21.32 184.92m-79.55-184.92l42.64 184.92" fill="none"/><path d="M1309.44 218.4l63.96-184.92L1344.3 12l-29.12 21.48-29.1-21.48-29.12 21.48-29.1-21.48-29.12 21.48L1169.6 12l-29.1 21.48L1111.36 12l-29.1 21.48L1053.13 12l-29.1 21.48 63.96 184.92z" fill="#fff"/><path d="M1198.7 33.48V218.4m58.24-184.92l-21.32 184.92m79.55-184.92l-42.64 184.92M1140.48 33.48l21.32 184.92m-79.55-184.92l42.64 184.92" fill="none"/></g><g stroke-width="24" fill="#fff"><path d="M12 691.7h1900" stroke-linecap="round" stroke-miterlimit="10" opacity="1"/><path d="M562.15 691.7h310.92l-30.4 141.56H592.55zm-481.1 0H392l-30.4 141.56H111.45zm962.2 0h310.92l-30.4 141.56h-250.12zm481.1 0h310.92l-30.4 141.56h-250.12z" stroke-miterlimit="10" opacity="1"/></g></g><defs ><path id="B" d="M347.24 800.04l63.96-184.92-29.1-21.48-29.12 21.48-29.1-21.48-29.12 21.48-29.1-21.48-29.12 21.48-29.1-21.48-29.12 21.48-29.12-21.48-29.1 21.48-29.12-21.48-29.1 21.48 63.96 184.92z"/></defs></svg>