<svg id="Layer_1" data-name="Layer 1" xmlns="http://www.w3.org/2000/svg" xmlns:xlink="http://www.w3.org/1999/xlink" width="2000" height="1868" viewBox="0 0 2000 1868">
  <defs>
    <radialGradient id="radial-gradient" cx="1000" cy="1370.25" r="285.33" gradientUnits="userSpaceOnUse">
      <stop offset="0" stop-color="#ffa084"/>
      <stop offset="0.17" stop-color="#fa9179"/>
      <stop offset="0.49" stop-color="#eb695c"/>
      <stop offset="0.94" stop-color="#d52a2e"/>
      <stop offset="1" stop-color="#d12027"/>
    </radialGradient>
  </defs>
  <path d="M843.79,754.51,815.2,724.42a564.4,564.4,0,0,1-83.31-113.48c-24.25-43.39-57.64-98.11-81.36-117-41.47-33.1-37.08-54.16-27.62-62.31C636,420.31,648.6,420,668.05,420a90.59,90.59,0,0,1,10.87.66c44,5.29,97,69.61,110.92,82,4.47,4,8.92,7.94,13.4,11.84a11.86,11.86,0,0,0,19.63-8.95l5.92-362.24c0-24.2,13.76-43.88,38-43.88s38,19.68,38,43.88l5.93,251.56a11.85,11.85,0,1,0,23.7,0l5.93-319.41c0-24.2,13.75-43.88,38-43.88s37.95,19.68,37.95,43.88l5.93,318.15a11.85,11.85,0,1,0,23.7,0l5.93-262.42c0-24.19,13.75-43.88,38-43.88s37.95,19.69,37.95,43.88l5.93,275.2a11.85,11.85,0,1,0,23.7,0l5.93-188c0-24.19,13.75-43.88,38-43.88s37.95,19.69,37.95,43.88l4.71,172.12q1.21,44.58-1.72,89.11l-5.26,79.66a557.61,557.61,0,0,1-54.13,205.5h0a106.09,106.09,0,0,1-94.33,60l-76.07.88A228.81,228.81,0,0,1,843.79,754.51Z" style="fill: #fff;stroke: #3a3632;stroke-miterlimit: 10;stroke-width: 20px"/>
  <g>
    <path d="M104.44,1797.8h1794c56.48,0,88.59-45.56,72.24-100.08l-93-309.81c-13-43.18-62.27-77.25-110.48-77.25H235.65c-48.22,0-97.53,34.07-110.49,77.25l-93,309.81C15.85,1752.24,48,1797.8,104.44,1797.8Z" style="fill: #fff;stroke: #3a3632;stroke-miterlimit: 10;stroke-width: 24px"/>
    <path d="M184.26,1641.92c26.52,0,53-20.54,59.06-45.53l35.81-147.8c5.41-22.33-10.19-40.19-34.76-40.19s-49.37,17.86-55.45,40.19l-40.29,147.8C141.82,1621.38,157.73,1641.92,184.26,1641.92Z" style="fill: #fff;stroke: #3a3632;stroke-miterlimit: 10;stroke-width: 24px"/>
  </g>
  <g>
    <path d="M1215.44,1120.54c-10.11-8.55-26.66-20.2-52.23-20.13-15,0-45.22,4.1-63.61,6.79a80.5,80.5,0,0,0-12.92-7.56c-37.23-17.15-124.5-20.36-176.85,0a74.79,74.79,0,0,0-10.8,5.27c-14.5-3.86-36.47-8.62-54.24-7.81h0c-29.26,1.33-43.53,15.24-55.54,24.27C709.93,1181,709.93,1265.68,716.82,1333c14.54,117,71.84,287.91,161.24,292,12.32-.34,25-1.37,35.53-3.58a115.85,115.85,0,0,0,49.68,26.77,99.27,99.27,0,0,0,36.51,6.68c21.86-.25,40.61-5.51,56.72-14.7a117.44,117.44,0,0,0,28.38-19.16,168.45,168.45,0,0,0,36.08,3.86c114.36-18.66,151-191,161.8-292.06C1289.78,1265.54,1292,1185.33,1215.44,1120.54Z" style="fill: #e23442;stroke: #3a3632;stroke-linecap: round;stroke-linejoin: round;stroke-width: 25.0059356689453px"/>
    <path d="M1215.44,1120.54c-10.11-8.55-26.66-20.2-52.23-20.13-15,0-45.22,4.1-63.61,6.79a80.5,80.5,0,0,0-12.92-7.56c-37.23-17.15-124.5-20.36-176.85,0a74.79,74.79,0,0,0-10.8,5.27c-14.5-3.86-36.47-8.62-54.24-7.81h0c-29.26,1.33-43.53,15.24-55.54,24.27C709.93,1181,709.93,1265.68,716.82,1333c14.54,117,71.84,287.91,161.24,292,12.32-.34,25-1.37,35.53-3.58a115.85,115.85,0,0,0,49.68,26.77,99.27,99.27,0,0,0,36.51,6.68c21.86-.25,40.61-5.51,56.72-14.7a117.44,117.44,0,0,0,28.38-19.16,168.45,168.45,0,0,0,36.08,3.86c114.36-18.66,151-191,161.8-292.06C1289.78,1265.54,1292,1185.33,1215.44,1120.54Zm36.76,217c-9.66,88.56-42.31,239.66-144.31,256a153,153,0,0,1-32.18-3.38,105,105,0,0,1-25.32,16.8c-14.36,8.06-31.09,12.66-50.58,12.88a89.88,89.88,0,0,1-32.57-5.85,104,104,0,0,1-44.31-23.47c-9.36,1.94-20.7,2.84-31.69,3.14-79.74-3.63-130.84-153.42-143.82-256-6.14-59-6.14-133.27,64.6-185.53,10.72-7.92,23.45-20.11,49.54-21.28,14.85-.67,29.32,2.48,43.7,5.73,11.88,2.68,23.68-2.65,35,.32,9.51,2.5,14.94,13.21,14.7,23-.27,10.58-5.36,24.22-12.45,32.18-5.62,6.32-12.83,11-19.44,16.21-14.15,11.26-26,26-31.61,43.15-12.16,37,.11,96.36,25.85,125.66,8,9.14,18.32,16,30.27,18.67,23.79,5.42,47.7-4.28,71.24-.68,23.77,3.63,48.86,6.47,71.51-3.71,24.24-10.89,37.48-33.77,42.73-58.95,3.93-18.85,2.56-38.68-2.63-57.15s-14.25-36-27.25-50.06c-15-16.2-42.48-22.9-37.87-50.16,2.62-15.53,16.19-34.61,32.87-36.7,6.15-.77,12.28-1.63,18.43-2.34,9.6-1.11,19.3-2.28,29-2.3,22.81-.07,37.57,10.14,46.58,17.64C1260.4,1208.14,1258.46,1278.46,1252.2,1337.49Z" style="stroke: #3a3632;stroke-linecap: round;stroke-linejoin: round;stroke-width: 10px;fill: url(#radial-gradient)"/>
    <g>
      <path d="M959.59,1171.91l0-.06h0a19,19,0,0,1-1.17-2.21c-.61-1.22-1.19-2.42-1.85-3.61s-1.15-2.1-1.78-3.11a23.48,23.48,0,0,0-2.46-3.23,21.75,21.75,0,0,0-6.32-4.87,16.42,16.42,0,0,0-7.65-1.73,13,13,0,0,0-3.62.57,10.42,10.42,0,0,0-3,1.45c-2.23,1.58-3.18,3.87-3.88,6.17a9.41,9.41,0,0,0-.09,6.08,14.08,14.08,0,0,0,4.78,6.16,14.93,14.93,0,0,0,5.19,2.49,21.54,21.54,0,0,0,5.78.63,42.14,42.14,0,0,0,12.59-2.3c1.06-.35,2.1-.75,3.14-1.18a.84.84,0,0,0,.43-.52A.8.8,0,0,0,959.59,1171.91Z" style="fill: #f2cf91"/>
      <path d="M919,1200.72a75.15,75.15,0,0,0,11.61,4c1,.26,2,.49,3.08.7a.66.66,0,0,0,.56-.18.68.68,0,0,0,.29-.6s0,0,0-.06h0a17.24,17.24,0,0,1,0-2.39c.06-1.32.12-2.63.17-3.93s.08-2.35.08-3.53a23.41,23.41,0,0,0-.37-4,21.8,21.8,0,0,0-2.7-7.5,16.4,16.4,0,0,0-5.5-5.58,11.64,11.64,0,0,0-6.72-1.87c-2.78.19-5.06,1.82-7.23,3.82a13,13,0,0,0-4.13,6.4,10.4,10.4,0,0,0,1.62,8C912,1197.2,915.58,1199.18,919,1200.72Z" style="fill: #f2cf91"/>
      <path d="M885.4,1218.71a14.8,14.8,0,0,0,5.06,2.73,38.61,38.61,0,0,0,5.63,1.34l3,.48,3,.46,5.86.85,2.89.42a.49.49,0,0,0,.44-.19.52.52,0,0,0,.09-.59,13.78,13.78,0,0,1-.55-2.14c-.24-1.16-.47-2.36-.64-3.54s-.32-2.15-.47-3.23c-.19-1.27-.45-2.52-.74-3.78a36,36,0,0,0-2.58-7.47,14.82,14.82,0,0,0-5.05-6,9.63,9.63,0,0,0-7.59-1.2,13,13,0,0,0-4.72,2.46,23,23,0,0,0-3.79,4c-.46.59-.9,1.2-1.3,1.83a15.46,15.46,0,0,0-1,2,10.67,10.67,0,0,0-1,4.2,9.05,9.05,0,0,0,1,4.15A10.75,10.75,0,0,0,885.4,1218.71Z" style="fill: #f2cf91"/>
      <path d="M869.69,1250.26c3.65,1.34,7.79.74,11.44.08,4-.7,7.87-1.49,11.67-2.12,1-.17,1.88-.33,2.84-.47a.44.44,0,0,0,.35-.29.47.47,0,0,0-.11-.57,13.88,13.88,0,0,1-1.24-1.8c-.64-1-1.18-2-1.75-3.08s-1-1.91-1.48-2.89-1.18-2.23-1.85-3.33-1.39-2.19-2.16-3.27a28.34,28.34,0,0,0-2.52-3.09,14.5,14.5,0,0,0-6.58-4.26,9.45,9.45,0,0,0-3.86-.24,9.67,9.67,0,0,0-3.8,1.46,13.05,13.05,0,0,0-3.84,3.95,19,19,0,0,0-1.35,2.52,22.25,22.25,0,0,0-1.07,2.65,19.56,19.56,0,0,0-1,4.54,11.62,11.62,0,0,0,.44,4.42A9.62,9.62,0,0,0,869.69,1250.26Z" style="fill: #f2cf91"/>
      <path d="M865.22,1284.7c3.88.31,7.65-1.34,11-3,1.81-.92,3.56-1.89,5.32-2.87s3.5-2,5.19-3l2.56-1.46a.47.47,0,0,0,.24-.42.52.52,0,0,0-.29-.54,12.86,12.86,0,0,1-1.75-1.38c-.93-.79-1.79-1.59-2.67-2.42l-2.35-2.27c-.94-.89-1.89-1.71-2.9-2.52a36.12,36.12,0,0,0-6.61-4.34,14.65,14.65,0,0,0-7.66-1.67,9.6,9.6,0,0,0-6.74,3.72,13.22,13.22,0,0,0-2.23,4.84,25.6,25.6,0,0,0-.59,5.37c0,2.93.51,5.91,2.21,8.17A9.91,9.91,0,0,0,865.22,1284.7Z" style="fill: #f2cf91"/>
      <path d="M868.27,1318.76c3.86-.41,7.31-2.72,10.28-5,3.17-2.49,6.26-5.18,9.17-7.83l2.22-2a.52.52,0,0,0,.15-.48.58.58,0,0,0-.4-.49,13.33,13.33,0,0,1-2-1c-1.07-.6-2.09-1.23-3.12-1.88l-2.8-1.76a37.3,37.3,0,0,0-3.39-1.87c-4.54-2.23-10.16-4.22-15.26-2.57a9.79,9.79,0,0,0-5.73,5,12.74,12.74,0,0,0-1.14,5,24,24,0,0,0,.51,5.21,17.71,17.71,0,0,0,1.29,4,9.92,9.92,0,0,0,2.42,3.35A10.1,10.1,0,0,0,868.27,1318.76Z" style="fill: #f2cf91"/>
      <path d="M886.46,1345c1.35-1.5,2.69-3.06,4-4.61s2.5-3.12,3.74-4.68l1.83-2.36a.51.51,0,0,0,0-.57.48.48,0,0,0-.25-.26l0,0-.07,0-.09,0a12.54,12.54,0,0,1-2.14-.67c-1.13-.42-2.27-.87-3.4-1.32l-3.06-1.26a35.14,35.14,0,0,0-3.66-1.27c-4.9-1.4-10.7-2.37-15.47.15a9.68,9.68,0,0,0-4.77,5.9,12,12,0,0,0-.27,5.12,22.21,22.21,0,0,0,1.4,5c.26.66.54,1.32.86,2a16,16,0,0,0,1.1,1.82,10.78,10.78,0,0,0,3,2.91,10.2,10.2,0,0,0,8.11.94C881,1350.62,884,1347.73,886.46,1345Z" style="fill: #f2cf91"/>
      <path d="M900.1,1373.89c1-1.74,2-3.55,2.89-5.31l2.74-5.28,1.34-2.62a.52.52,0,0,0-.08-.55.5.5,0,0,0-.29-.19l-.05,0h-.07s-.06,0-.1,0a13.36,13.36,0,0,1-2.2-.21c-1.19-.17-2.38-.37-3.57-.59s-2.16-.41-3.23-.63c-1.25-.24-2.53-.41-3.83-.53a34.74,34.74,0,0,0-7.89.07,14.85,14.85,0,0,0-7.28,2.93,9.54,9.54,0,0,0-3.57,6.73,11.48,11.48,0,0,0,.09,2.62,13.8,13.8,0,0,0,.67,2.56,23.24,23.24,0,0,0,1.06,2.47c.42.8.89,1.57,1.38,2.32s.82,1.22,1.27,1.8a15.28,15.28,0,0,0,1.5,1.61,10.91,10.91,0,0,0,3.59,2.32,9.87,9.87,0,0,0,8.16-.82C896,1380.65,898.25,1377.13,900.1,1373.89Z" style="fill: #f2cf91"/>
      <path d="M923.06,1382.13a.47.47,0,0,0-.56-.06,12.22,12.22,0,0,1-2.06.62c-1.14.29-2.26.49-3.43.69s-2.1.32-3.17.46c-.62.08-1.24.18-1.87.3s-1.25.21-1.88.34a38.15,38.15,0,0,0-7.58,2.23,14.65,14.65,0,0,0-6.25,4.72,9.51,9.51,0,0,0-1.45,7.65c.87,3.64,3.71,6.78,6.82,9.17,2.55,2,5.56,3.5,8.6,3.5a8.56,8.56,0,0,0,4.24-1.11,10.08,10.08,0,0,0,3.13-2.73,15.11,15.11,0,0,0,2.38-5.26,49.46,49.46,0,0,0,1-5.68c.51-4,1-7.92,1.69-11.63.18-.94.35-1.87.52-2.8A.4.4,0,0,0,923.06,1382.13Z" style="fill: #f2cf91"/>
      <path d="M949.66,1407.38c-1.53-3.78-3.14-7.33-4.41-11-.32-.89-.64-1.78-1-2.65a.39.39,0,0,0-.33-.27.45.45,0,0,0-.49.24,12.26,12.26,0,0,1-1.41,1.57c-.81.84-1.65,1.57-2.54,2.33s-1.62,1.33-2.46,2-1.95,1.58-2.92,2.39-1.93,1.69-2.89,2.6a32.71,32.71,0,0,0-2.74,2.9,14.26,14.26,0,0,0-3.42,7.06,8.84,8.84,0,0,0,.36,3.9,10.09,10.09,0,0,0,2.2,3.66,13.87,13.87,0,0,0,2.27,1.87,17.46,17.46,0,0,0,2.69,1.38,22.4,22.4,0,0,0,5.92,1.46c.81.1,1.62.17,2.42.19a12.44,12.44,0,0,0,2.37-.09,12,12,0,0,0,4.28-1.38,8.22,8.22,0,0,0,3-3.06,10.56,10.56,0,0,0,1.37-3.92,14.85,14.85,0,0,0-.46-5.74A44.81,44.81,0,0,0,949.66,1407.38Z" style="fill: #f2cf91"/>
      <path d="M974,1396.64l-2-2.26a.64.64,0,0,0-1,.24,14.69,14.69,0,0,1-1.11,2c-.64,1.05-1.3,2.07-2,3.09l-1.81,2.76a38.35,38.35,0,0,0-1.92,3.36,34,34,0,0,0-2.87,7.35,14.7,14.7,0,0,0,0,7.84,9.74,9.74,0,0,0,5,5.84,13.09,13.09,0,0,0,5,1.23,24.11,24.11,0,0,0,5.09-.39,12.59,12.59,0,0,0,7.12-3.39,10.76,10.76,0,0,0,2.6-7.64c-.13-3.88-2.16-7.47-4.36-10.56A112.13,112.13,0,0,0,974,1396.64Z" style="fill: #f2cf91"/>
      <path d="M1012.29,1399.18c-.58-.88-1.19-1.76-1.84-2.63s-1.29-1.67-2-2.5-1.39-1.64-2.13-2.44a.75.75,0,0,0-.59-.21.73.73,0,0,0-.63.29.1.1,0,0,0,0,0h0a20.78,20.78,0,0,1-1.48,1.91l-2.49,3c-.73.91-1.46,1.79-2.14,2.73a27.58,27.58,0,0,0-2.09,3.39c-2.43,4.56-4,10.26-2.19,15.3a10.78,10.78,0,0,0,4.52,5.69,10.64,10.64,0,0,0,2,.91,9.74,9.74,0,0,0,2.06.46,14.63,14.63,0,0,0,2.09.1,19.19,19.19,0,0,0,2-.08,15.67,15.67,0,0,0,3.22-.66,8.35,8.35,0,0,0,2.95-1.72,12.72,12.72,0,0,0,3.72-6.91c.79-3.81-.24-7.75-1.9-11.27A44.58,44.58,0,0,0,1012.29,1399.18Z" style="fill: #f2cf91"/>
      <path d="M1048,1408.48c-.86-1.84-1.76-3.64-2.71-5.43s-1.92-3.55-2.91-5.28l-1.51-2.59a.54.54,0,0,0-.45-.26.58.58,0,0,0-.59.28,12.81,12.81,0,0,1-1.47,1.72c-.84.9-1.7,1.79-2.57,2.66l-2.36,2.35a32.78,32.78,0,0,0-2.57,2.94c-3.15,4-6.06,9.14-5.42,14.48a9.86,9.86,0,0,0,3.62,6.56,11.79,11.79,0,0,0,4.47,2.14,23.27,23.27,0,0,0,5.06.62,13.28,13.28,0,0,0,8-2,9.12,9.12,0,0,0,2.77-3.13,11.33,11.33,0,0,0,1.26-3.95,15,15,0,0,0-.52-5.73A33.87,33.87,0,0,0,1048,1408.48Z" style="fill: #f2cf91"/>
      <path d="M1079.81,1407c-1.27-1.56-2.58-3.15-3.86-4.65l-3.81-4.51-1.87-2.24a.47.47,0,0,0-.52-.13.45.45,0,0,0-.28.2l0,0,0,.06s0,0-.05.09a11.31,11.31,0,0,1-1,2c-.59,1-1.22,2-1.87,3.06l-1.78,2.76a35.86,35.86,0,0,0-2,3.3,34.85,34.85,0,0,0-3,7.32,14.76,14.76,0,0,0-.15,7.83,9.53,9.53,0,0,0,4.86,5.91,12.21,12.21,0,0,0,5.16,1.28,16.88,16.88,0,0,0,2.75,0c.92-.1,1.84-.24,2.74-.41.74-.13,1.48-.3,2.2-.5a17.38,17.38,0,0,0,2.11-.82A11.63,11.63,0,0,0,1083,1425a9.75,9.75,0,0,0,2.23-8C1084.64,1413.24,1082.14,1409.9,1079.81,1407Z" style="fill: #f2cf91"/>
      <path d="M1108.64,1395.39c-3.51-1.82-7.12-3.77-10.37-5.59-.82-.45-1.66-1-2.47-1.46a.43.43,0,0,0-.5,0,.44.44,0,0,0-.18.27v.11s0,.06,0,.09a13.29,13.29,0,0,1-.14,2.16c-.14,1.15-.28,2.37-.52,3.5s-.44,2.06-.68,3.12c-.27,1.22-.48,2.49-.66,3.78a39.63,39.63,0,0,0-.49,7.84,14.53,14.53,0,0,0,2.3,7.5,9.21,9.21,0,0,0,2.83,2.65,9.51,9.51,0,0,0,1.85.87,9.31,9.31,0,0,0,2.06.43,13.39,13.39,0,0,0,5.58-.66,29.9,29.9,0,0,0,5.29-2.54,22.45,22.45,0,0,0,3.69-3,9.84,9.84,0,0,0,2.45-3.79,9.39,9.39,0,0,0-1-8.19C1115.58,1399.22,1111.91,1397.15,1108.64,1395.39Z" style="fill: #f2cf91"/>
      <path d="M1141.09,1375.79a14.69,14.69,0,0,0-5.33-2.16,45,45,0,0,0-5.74-.73c-2-.14-4-.25-6-.35s-4-.26-5.87-.4l-2.83-.22a.42.42,0,0,0-.41.19.46.46,0,0,0,0,.57,12.84,12.84,0,0,1,.75,2c.36,1.11.68,2.25,1,3.41s.48,2.05.71,3.11c.27,1.21.61,2.44,1,3.68a42.32,42.32,0,0,0,2.87,7.33,14.3,14.3,0,0,0,5.21,5.85,9.35,9.35,0,0,0,3.72,1.23,9.72,9.72,0,0,0,4.09-.51,12.45,12.45,0,0,0,4.78-3,24.83,24.83,0,0,0,2-2.12c.31-.38.62-.75.9-1.15s.53-.8.79-1.2a22.39,22.39,0,0,0,2.1-4.14,11.71,11.71,0,0,0,.59-4.39A9.48,9.48,0,0,0,1141.09,1375.79Z" style="fill: #f2cf91"/>
      <path d="M1153.59,1343.21c-3.73-1.15-7.78-.35-11.41.56-2,.48-3.93,1-5.85,1.57l-2.84.83-2.86.81-2.82.8a.49.49,0,0,0-.32.35.54.54,0,0,0,.17.59,11.81,11.81,0,0,1,1.38,1.72c.7,1,1.36,1.94,2,2.94l1.78,2.76c.67,1.07,1.4,2.09,2.19,3.12a36.19,36.19,0,0,0,5.38,5.81,14.61,14.61,0,0,0,7,3.48,9.52,9.52,0,0,0,7.44-2,10.94,10.94,0,0,0,1-.9c.31-.32.59-.67.87-1a16.55,16.55,0,0,0,1.44-2.31,16.8,16.8,0,0,0,1.1-2.54c.29-.87.54-1.76.75-2.64a13.71,13.71,0,0,0-.23-8.58A9.91,9.91,0,0,0,1153.59,1343.21Z" style="fill: #f2cf91"/>
      <path d="M1166.65,1320.34a19.19,19.19,0,0,0-.62-4.36,10.89,10.89,0,0,0-1.89-3.81,8.8,8.8,0,0,0-3.36-2.57,11.27,11.27,0,0,0-4-.93c-3.9-.13-7.58,1.69-10.88,3.52-1.77,1-3.5,2-5.2,3.06s-3.42,2.08-5.08,3.11l-2.51,1.54a.44.44,0,0,0-.22.42.52.52,0,0,0,.31.53,14,14,0,0,1,1.8,1.31c.93.74,1.83,1.52,2.74,2.32s1.64,1.45,2.44,2.19,1.93,1.65,3,2.43a36,36,0,0,0,6.75,4.1,14.67,14.67,0,0,0,7.71,1.39,9.51,9.51,0,0,0,3.66-1.23,9.81,9.81,0,0,0,3-2.7C1166.3,1327.77,1166.74,1323.92,1166.65,1320.34Z" style="fill: #f2cf91"/>
      <path d="M1151.44,1274.62c-3.82.75-7,3.36-9.79,5.89-1.51,1.38-3,2.79-4.37,4.2s-2.84,2.84-4.2,4.25l-2.06,2.12a.51.51,0,0,0-.1.55.49.49,0,0,0,.22.28l0,0,.07,0s0,0,.09,0a12.63,12.63,0,0,1,2.06.86c1.11.51,2.16,1.06,3.23,1.63l2.9,1.55c1.13.61,2.28,1.14,3.48,1.65a35.23,35.23,0,0,0,7.56,2.29,14.75,14.75,0,0,0,7.82-.59,9.56,9.56,0,0,0,3.23-2.09,9.89,9.89,0,0,0,2.2-3.3,12.6,12.6,0,0,0,.82-5.17,24,24,0,0,0-.89-5.27,19.35,19.35,0,0,0-1.6-4,11.07,11.07,0,0,0-2.7-3.22A10,10,0,0,0,1151.44,1274.62Z" style="fill: #f2cf91"/>
      <path d="M1130.53,1250.51c-2.32,3.34-4.42,6.75-6.52,10.1l-1.54,2.51a.51.51,0,0,0,0,.56.49.49,0,0,0,.26.23l0,0h.08l.09,0a14.57,14.57,0,0,1,2.19.39c1.18.27,2.37.56,3.52.89l3.16.89c1.25.34,2.5.61,3.77.84a33.71,33.71,0,0,0,7.89.59,14.77,14.77,0,0,0,7.49-2.3,9.67,9.67,0,0,0,4.12-6.43,12.77,12.77,0,0,0-.33-5.21,23.48,23.48,0,0,0-2-5,13.68,13.68,0,0,0-5.79-6.16,10,10,0,0,0-8.18.09C1135.24,1244.16,1132.66,1247.44,1130.53,1250.51Z" style="fill: #f2cf91"/>
      <path d="M1110.79,1229.78l-1.86,5.64c-.31.93-.62,1.86-.92,2.78a.48.48,0,0,0,.17.52.44.44,0,0,0,.31.15h.11a.33.33,0,0,0,.1,0,13.25,13.25,0,0,1,2.2-.16c1.19,0,2.4,0,3.61,0l3.26.11c1.28,0,2.58,0,3.87-.07a34.47,34.47,0,0,0,7.79-1.26,14.71,14.71,0,0,0,6.77-4,9.66,9.66,0,0,0,2.49-7.25c-.28-3.53-2.36-6.79-4.8-9.45a21.13,21.13,0,0,0-1.56-1.58,16,16,0,0,0-1.74-1.36,10.68,10.68,0,0,0-3.93-1.71,10,10,0,0,0-7.93,2.12,15,15,0,0,0-3.61,4.49,36.29,36.29,0,0,0-2.34,5.29C1112.09,1226,1111.43,1227.88,1110.79,1229.78Z" style="fill: #f2cf91"/>
      <path d="M1097.47,1217a36.81,36.81,0,0,0,3.64-1.32,35,35,0,0,0,7-3.72,14.44,14.44,0,0,0,5.15-5.91,9.53,9.53,0,0,0,.78-3.77,10.07,10.07,0,0,0-.82-3.93c-1.38-3.25-4.23-5.48-6.94-7.09a11.4,11.4,0,0,0-7.14-2,11.66,11.66,0,0,0-6.95,3.87c-2.63,2.87-3.74,6.82-4.2,10.61a80.91,80.91,0,0,0-.41,12.35c0,1,.06,2,.12,3.07a.58.58,0,0,0,.29.46.6.6,0,0,0,.66,0,14.19,14.19,0,0,1,2.15-.75c1.19-.37,2.35-.72,3.54-1.06Z" style="fill: #f2cf91"/>
      <path d="M1090.18,1180a6.78,6.78,0,0,0-1.19-4.92,6.48,6.48,0,0,0-.55-.67,3.39,3.39,0,0,0-.71-.62,9.43,9.43,0,0,0-2.17-1.2c-.47-.2-1-.37-1.62-.55s-1.18-.33-1.83-.47a20.85,20.85,0,0,0-4-.45,14.58,14.58,0,0,0-5.63,1,16.9,16.9,0,0,0-5,3.08,26.38,26.38,0,0,0-7.43,11.26,30.66,30.66,0,0,0-1.06,3.61,1.24,1.24,0,0,0,.17.81,1.13,1.13,0,0,0,.64.61l.06,0h0c.89.23,1.82.6,2.62.86s1.42.46,2.11.67,1.42.37,2.12.53,1.25.28,1.87.4,1.24.19,1.86.26a18.75,18.75,0,0,0,2.1.12,20.16,20.16,0,0,0,2.07-.15,19.48,19.48,0,0,0,7.58-2.45,16.51,16.51,0,0,0,5.69-5.39A14.51,14.51,0,0,0,1090.18,1180Z" style="fill: #f2cf91"/>
    </g>
    <path id="path915" d="M1200.37,1058.38a15.54,15.54,0,0,0-7.36-19.61c-2.77-1.45-99.33,5.65-166,28-2.44-26.6,39.67-97,41.3-117.21,1.58-19.57-15.93-30.81-40.27-35.29-23.29-4.21-47.8-2.07-57,12.75s.26,118.61,0,140.46c-69.08-21.19-154.85-30-157.48-28.6a15.66,15.66,0,0,0-7,20.14C822.39,1086,866.1,1106,866.1,1106c115.78,21,151.35,26.75,260.72,8.71C1126.82,1114.69,1173.44,1086.89,1200.37,1058.38Z" style="fill: #1f8441;stroke: #3a3632;stroke-width: 24px"/>
  </g>
</svg>
