<svg id="Layer_1" data-name="Layer 1" xmlns="http://www.w3.org/2000/svg" viewBox="0 0 2000 2000"><path d="M122.77,429.86V179.07c0-29.67,23-53.73,51.49-53.73H1319.74c28.43,0,51.48,24.06,51.48,53.73V429.86" style="fill:#fff;stroke:#000;stroke-miterlimit:15.118109703064;stroke-width:24px"/><circle cx="286.07" cy="253.92" r="47.6" style="fill:none;stroke:#000;stroke-miterlimit:15.118109703064;stroke-width:16.7326936631589px"/><circle cx="444.1" cy="253.92" r="47.6" style="fill:none;stroke:#000;stroke-miterlimit:15.118109703064;stroke-width:16.7326936631589px"/><circle cx="1191.7" cy="253.92" r="47.6" style="fill:none;stroke:#000;stroke-miterlimit:15.118109703064;stroke-width:16.7326936631589px"/><circle cx="1035.98" cy="253.92" r="47.6" style="fill:none;stroke:#000;stroke-miterlimit:15.118109703064;stroke-width:16.7326936631589px"/><circle cx="737.86" cy="253.92" r="47.6" style="fill:none;stroke:#000;stroke-miterlimit:15.118109703064;stroke-width:16.7326936631589px"/><rect x="50" y="429.86" width="1375.73" height="1495.09" rx="50.2" style="fill:#fff;stroke:#000;stroke-miterlimit:15.118109703064;stroke-width:24px"/><line x1="55.12" y1="1644.91" x2="1420.61" y2="1644.91" style="fill:none;stroke:#000;stroke-miterlimit:15.118109703064;stroke-width:16px"/><rect x="135.92" y="637.25" width="1203.9" height="83.5" rx="17.91" style="fill:none;stroke:#000;stroke-miterlimit:15.118109703064;stroke-width:16.7326936631589px"/><line x1="55.12" y1="541.73" x2="1420.61" y2="541.73" style="fill:none;stroke:#000;stroke-miterlimit:15.118109703064;stroke-width:16.7326936631589px"/><line x1="240.72" y1="400.03" x2="638.79" y2="400.03" style="fill:none;stroke:#000;stroke-linecap:round;stroke-miterlimit:15.118109703064;stroke-width:33.4653873263177px"/><line x1="836.94" y1="400.03" x2="1235.01" y2="400.03" style="fill:none;stroke:#000;stroke-linecap:round;stroke-miterlimit:15.118109703064;stroke-width:33.4653873263177px"/><rect x="238.48" y="816.27" width="998.78" height="733.11" rx="100.4" style="fill:#fff;stroke:#000;stroke-miterlimit:15.118109703064;stroke-width:24px"/><line x1="241.39" y1="1326.85" x2="1239.3" y2="1326.85" style="fill:none;stroke:#000;stroke-linecap:round;stroke-miterlimit:15.118109703064;stroke-width:16px"/><line x1="336.59" y1="1326.85" x2="336.59" y2="1538.29" style="fill:none;stroke:#000;stroke-linecap:round;stroke-miterlimit:15.118109703064;stroke-width:16px"/><line x1="471.18" y1="1326.85" x2="471.18" y2="1538.29" style="fill:none;stroke:#000;stroke-linecap:round;stroke-miterlimit:15.118109703064;stroke-width:16px"/><line x1="605.76" y1="1326.85" x2="605.76" y2="1538.29" style="fill:none;stroke:#000;stroke-linecap:round;stroke-miterlimit:15.118109703064;stroke-width:16px"/><line x1="740.35" y1="1326.85" x2="740.35" y2="1538.29" style="fill:none;stroke:#000;stroke-linecap:round;stroke-miterlimit:15.118109703064;stroke-width:16px"/><line x1="874.93" y1="1326.85" x2="874.93" y2="1538.29" style="fill:none;stroke:#000;stroke-linecap:round;stroke-miterlimit:15.118109703064;stroke-width:16px"/><line x1="1009.52" y1="1326.85" x2="1009.52" y2="1538.29" style="fill:none;stroke:#000;stroke-linecap:round;stroke-miterlimit:15.118109703064;stroke-width:16px"/><line x1="1144.11" y1="1326.85" x2="1144.11" y2="1538.29" style="fill:none;stroke:#000;stroke-linecap:round;stroke-miterlimit:15.118109703064;stroke-width:16px"/><g id="layer5"><g id="g986"><path id="rect981" d="M1605.6,502.32l-79.57-121,132.32-58.8" style="fill:none;stroke:#231f20;stroke-linecap:round;stroke-linejoin:round;stroke-width:24px"/></g></g><path d="M1442.22,1182.44c209.94,61.6,430.06-58.66,491.65-268.59s-58.65-430.06-268.59-491.65l-129.09-37.88" style="fill:none;stroke:#231f20;stroke-linecap:round;stroke-linejoin:round;stroke-width:24px"/><path d="M1473.91,336.56l-28.45,21.78a19.3,19.3,0,0,1-11.75,4.07H666.49a19.3,19.3,0,0,1-11.59-4l-26.68-20" style="fill:#f1f1f2;stroke:#231f20;stroke-miterlimit:10;stroke-width:16.8836891491864px"/><path d="M1447.14,346.84h-794c-24.1,0-37.35-15.84-29.85-34.76L723.44,59.51c4.26-10.75,21.78-19.26,39.23-19.26h575c17.45,0,35,8.51,39.23,19.26L1477,312.08C1484.49,331,1471.23,346.84,1447.14,346.84Z" style="fill:#f1f1f2;stroke:#231f20;stroke-miterlimit:10;stroke-width:26.0069017410278px"/><path d="M644,321.43,737.75,77.94c3.48-9,18.12-16.23,32.77-16.23h559.26c14.64,0,29.28,7.18,32.76,16.23l92.8,240.12" style="fill:none;stroke:#231f20;stroke-linecap:round;stroke-linejoin:round;stroke-width:8.44184457459322px"/><polygon points="995.03 53.67 929.16 53.67 885.05 88.24 885.05 131.09 910.37 171.32 987.02 171.32 1026.75 131.09 1026.75 88.24 995.03 53.67" style="fill:#ead39a;stroke:#231f20;stroke-linejoin:round;stroke-width:12px"/><polygon points="1215.26 88.24 1171.15 53.67 1105.28 53.67 1073.56 88.24 1073.56 131.09 1113.29 171.32 1189.93 171.32 1215.26 131.09 1215.26 88.24" style="fill:#ead39a;stroke:#231f20;stroke-linejoin:round;stroke-width:12px"/><polygon points="983.63 160.66 902.44 160.66 844.56 214.13 844.56 256.98 872.76 321.66 970.97 321.66 1022.35 256.98 1022.35 214.13 983.63 160.66" style="fill:#ead39a;stroke:#231f20;stroke-linejoin:round;stroke-width:12px"/><polygon points="1255.75 214.13 1197.87 160.66 1116.67 160.66 1077.95 214.13 1077.95 256.98 1129.33 321.66 1227.54 321.66 1255.75 256.98 1255.75 214.13" style="fill:#ead39a;stroke:#231f20;stroke-linejoin:round;stroke-width:12px"/><polygon points="995.03 53.67 929.16 53.67 885.05 88.24 910.37 128.47 987.02 128.47 1026.75 88.24 995.03 53.67" style="fill:#f9f1c0;stroke:#231f20;stroke-linejoin:round;stroke-width:12px"/><polygon points="1171.15 53.67 1105.28 53.67 1073.56 88.24 1113.29 128.47 1189.93 128.47 1215.26 88.24 1171.15 53.67" style="fill:#f9f1c0;stroke:#231f20;stroke-linejoin:round;stroke-width:12px"/><polygon points="983.63 160.66 902.44 160.66 844.56 214.13 872.76 278.82 970.97 278.82 1022.35 214.13 983.63 160.66" style="fill:#f9f1c0;stroke:#231f20;stroke-linejoin:round;stroke-width:12px"/><polygon points="1197.87 160.66 1116.67 160.66 1077.95 214.13 1129.33 278.82 1227.54 278.82 1255.75 214.13 1197.87 160.66" style="fill:#f9f1c0;stroke:#231f20;stroke-linejoin:round;stroke-width:12px"/><path d="M997.23,88.24c-1.35,14.24-22,26.4-46.06,26.4s-40.35-12.16-36.6-26.4c3.54-13.46,23.88-23.84,45.6-23.84S998.51,74.78,997.23,88.24Z" style="fill:#ead39a;stroke:#231f20;stroke-linejoin:round;stroke-width:12px"/><path d="M1185.74,88.24c3.75,14.24-12.55,26.4-36.61,26.4s-44.7-12.16-46.06-26.4c-1.28-13.46,15.34-23.84,37.06-23.84S1182.2,74.78,1185.74,88.24Z" style="fill:#ead39a;stroke:#231f20;stroke-linejoin:round;stroke-width:12px"/><path d="M985.32,214.13c-2.15,22.58-28.82,42.14-59.41,42.14s-50.26-19.56-44.32-42.14c5.54-21,31.58-37.07,58.51-37.07S987.32,193.1,985.32,214.13Z" style="fill:#ead39a;stroke:#231f20;stroke-miterlimit:10;stroke-width:12px"/><path d="M1218.71,214.13c5.94,22.58-13.71,42.14-44.31,42.14s-57.26-19.56-59.41-42.14c-2-21,18.3-37.07,45.22-37.07S1213.18,193.1,1218.71,214.13Z" style="fill:#ead39a;stroke:#231f20;stroke-miterlimit:10;stroke-width:12px"/><path d="M922.84,107.06c6.62,4.66,16.54,7.58,28.33,7.58,15.08,0,28.82-4.78,37.31-11.85-6.74-4.74-16.81-7.65-28.31-7.65C945.52,95.14,931.51,99.86,922.84,107.06Z" style="fill:none;stroke:#231f20;stroke-linejoin:round;stroke-width:12px"/><path d="M1177.46,107.06c-8.66-7.2-22.68-11.92-37.33-11.92-11.5,0-21.57,2.91-28.31,7.65,8.49,7.07,22.24,11.85,37.31,11.85C1160.92,114.64,1170.85,111.72,1177.46,107.06Z" style="fill:none;stroke:#231f20;stroke-linejoin:round;stroke-width:12px"/><path d="M940.1,207.8c-23.46,0-46.25,12.17-55.39,29.22,6.9,11.44,21.87,19.25,41.2,19.25,24.49,0,46.46-12.53,55.35-29.11C974.16,215.47,958.71,207.8,940.1,207.8Z" style="fill:none;stroke:#231f20;stroke-miterlimit:10;stroke-width:12px"/><path d="M1160.21,207.8c-18.62,0-34.07,7.67-41.17,19.36,8.9,16.58,30.87,29.11,55.36,29.11,19.33,0,34.29-7.81,41.19-19.25C1206.45,220,1183.66,207.8,1160.21,207.8Z" style="fill:none;stroke:#231f20;stroke-miterlimit:10;stroke-width:12px"/><path d="M873.45,294.27a107.1,107.1,0,0,1,17.87-3.13c6-.59,11.92-.86,17.88-.86a178.12,178.12,0,0,1,17.87.85A105.41,105.41,0,0,1,945,294.27a105.44,105.44,0,0,1-17.88,3.15,178.12,178.12,0,0,1-17.87.85c-6,0-11.92-.27-17.88-.86A106.12,106.12,0,0,1,873.45,294.27Z" style="fill:#231f20"/><path d="M968.88,306.37a61.77,61.77,0,0,1-13.33,3.13,101,101,0,0,1-13.33.86,99.43,99.43,0,0,1-13.33-.85,60.77,60.77,0,0,1-13.33-3.14,60.8,60.8,0,0,1,13.33-3.15,99.43,99.43,0,0,1,13.33-.85,101,101,0,0,1,13.33.86A61.21,61.21,0,0,1,968.88,306.37Z" style="fill:#231f20"/><path d="M1213.53,294.27a74.71,74.71,0,0,1-14.81,3.14,124.78,124.78,0,0,1-14.81.86,122.73,122.73,0,0,1-14.82-.85,74,74,0,0,1-14.81-3.15,74,74,0,0,1,14.81-3.14,122.73,122.73,0,0,1,14.82-.85,124.78,124.78,0,0,1,14.81.86A75.4,75.4,0,0,1,1213.53,294.27Z" style="fill:#231f20"/><path d="M1134.45,306.37a43.61,43.61,0,0,1,11-3.14,70.79,70.79,0,0,1,11-.86,69.71,69.71,0,0,1,11,.85,43.28,43.28,0,0,1,11,3.15,43.25,43.25,0,0,1-11,3.14,69.72,69.72,0,0,1-11,.86,72,72,0,0,1-11-.87A44,44,0,0,1,1134.45,306.37Z" style="fill:#231f20"/><path d="M976.68,291.83A78.55,78.55,0,0,1,983.52,278a133.84,133.84,0,0,1,8.64-12.49,130.13,130.13,0,0,1,10-11.43,77.45,77.45,0,0,1,11.79-10,77.6,77.6,0,0,1-6.83,13.89,130,130,0,0,1-8.64,12.48,131.8,131.8,0,0,1-10,11.42A78.58,78.58,0,0,1,976.68,291.83Z" style="fill:#231f20"/><path d="M1126.88,296.75a86.31,86.31,0,0,1-12.38-10.48,147.09,147.09,0,0,1-10.59-11.9,141.79,141.79,0,0,1-9.26-13,84.34,84.34,0,0,1-7.46-14.39,84.36,84.36,0,0,1,12.38,10.47,145.41,145.41,0,0,1,10.59,11.9,147.18,147.18,0,0,1,9.24,13A85.88,85.88,0,0,1,1126.88,296.75Z" style="fill:#231f20"/><path d="M1121.75,146a75,75,0,0,1,14.78-3.13,126.31,126.31,0,0,1,14.78-.87,124.15,124.15,0,0,1,14.78.86,73.58,73.58,0,0,1,14.78,3.14,74.31,74.31,0,0,1-14.78,3.15,124.14,124.14,0,0,1-14.78.85,126.29,126.29,0,0,1-14.78-.86A75,75,0,0,1,1121.75,146Z" style="fill:#231f20"/><path d="M910.49,138.94a48.58,48.58,0,0,1,11.71-3.13,79.67,79.67,0,0,1,11.71-.87,78.11,78.11,0,0,1,11.71.86,48.11,48.11,0,0,1,11.72,3.14,48.59,48.59,0,0,1-11.72,3.15,78.1,78.1,0,0,1-11.71.85,79.65,79.65,0,0,1-11.71-.86A49.07,49.07,0,0,1,910.49,138.94Z" style="fill:#231f20"/><path d="M1084.92,122a12.9,12.9,0,0,1,5.68,1.21,14.42,14.42,0,0,1,7,6.88,12.89,12.89,0,0,1,1.25,5.68,12.9,12.9,0,0,1-5.68-1.21,13.87,13.87,0,0,1-4.08-2.84,14,14,0,0,1-2.86-4.06A12.93,12.93,0,0,1,1084.92,122Z" style="fill:#231f20"/><path d="M990.93,150.08a20.78,20.78,0,0,1,2.7-7.19,29,29,0,0,1,4.31-5.59,28.29,28.29,0,0,1,5.54-4.38,20.52,20.52,0,0,1,7.16-2.77,20.57,20.57,0,0,1-2.69,7.19,28,28,0,0,1-4.32,5.59,28.62,28.62,0,0,1-5.54,4.37A20.88,20.88,0,0,1,990.93,150.08Z" style="fill:#231f20"/><path d="M1107.29,89.68a17.1,17.1,0,0,1,4.53-8,24.52,24.52,0,0,1,7.29-5.17,25.16,25.16,0,0,1,8.58-2.32,19,19,0,0,1,9,1.27,47.54,47.54,0,0,1-7.24,4.77c-2.34,1.32-4.64,2.45-7,3.53s-4.65,2.08-7.1,3.07A76,76,0,0,1,1107.29,89.68Z" style="fill:#231f20"/><path d="M1148.57,81.25a19.62,19.62,0,0,1,8.89-2.5,26.65,26.65,0,0,1,9,1.07,25.85,25.85,0,0,1,8.13,4,18.3,18.3,0,0,1,6,7.12,63.49,63.49,0,0,1-8.66-1.44c-2.65-.59-5.18-1.28-7.69-2s-5-1.57-7.59-2.53A52,52,0,0,1,1148.57,81.25Z" style="fill:#231f20"/><path d="M1123.21,91.78a12.36,12.36,0,0,1,4.41-4.85,15.49,15.49,0,0,1,5.57-2.23,15.34,15.34,0,0,1,6,0,12.36,12.36,0,0,1,5.89,2.87,19.75,19.75,0,0,1-5.3,3.39,22.48,22.48,0,0,1-5.09,1.59,23.65,23.65,0,0,1-5.31.39A20.69,20.69,0,0,1,1123.21,91.78Z" style="fill:#231f20"/><path d="M919.29,89.68a17.1,17.1,0,0,1,4.53-8,24.52,24.52,0,0,1,7.29-5.17,25.22,25.22,0,0,1,8.58-2.32,19,19,0,0,1,9,1.27,48,48,0,0,1-7.23,4.77c-2.34,1.32-4.65,2.45-7,3.53s-4.65,2.08-7.1,3.07A76,76,0,0,1,919.29,89.68Z" style="fill:#231f20"/><path d="M960.57,81.25a19.65,19.65,0,0,1,8.89-2.5,26.65,26.65,0,0,1,9,1.07,25.85,25.85,0,0,1,8.13,4,18.3,18.3,0,0,1,6,7.12,63.49,63.49,0,0,1-8.66-1.44c-2.65-.59-5.17-1.28-7.69-2s-5-1.57-7.59-2.53A52,52,0,0,1,960.57,81.25Z" style="fill:#231f20"/><path d="M935.22,91.78a12.27,12.27,0,0,1,4.4-4.85,15.47,15.47,0,0,1,5.58-2.23,15.29,15.29,0,0,1,6,0,12.36,12.36,0,0,1,5.89,2.87,19.75,19.75,0,0,1-5.3,3.39,22.48,22.48,0,0,1-5.09,1.59,23.61,23.61,0,0,1-5.3.39A20.57,20.57,0,0,1,935.22,91.78Z" style="fill:#231f20"/><path d="M893.63,203.47a20.81,20.81,0,0,1,5.5-8.77,30,30,0,0,1,8.41-5.81,31.29,31.29,0,0,1,9.77-2.77,23.37,23.37,0,0,1,10.25,1,66.45,66.45,0,0,1-8.48,5c-2.76,1.42-5.45,2.72-8.16,4s-5.41,2.48-8.2,3.71S897.05,202.32,893.63,203.47Z" style="fill:#231f20"/><path d="M941.27,193.74a24.17,24.17,0,0,1,10.19-2.41,32.83,32.83,0,0,1,10.24,1.36,31.62,31.62,0,0,1,9.35,4.48,22.45,22.45,0,0,1,7.08,7.77,92.37,92.37,0,0,1-9.79-2.09c-3-.8-6-1.62-8.91-2.5s-5.86-1.79-8.86-2.81A72.14,72.14,0,0,1,941.27,193.74Z" style="fill:#231f20"/><path d="M912,205.89a14.77,14.77,0,0,1,5.22-5.13,19.89,19.89,0,0,1,13.26-2.54,14.76,14.76,0,0,1,6.75,2.82,24.53,24.53,0,0,1-6.16,3.44,32.35,32.35,0,0,1-5.94,1.7,34.18,34.18,0,0,1-6.14.6A25.69,25.69,0,0,1,912,205.89Z" style="fill:#231f20"/><path d="M1121.76,203a20.74,20.74,0,0,1,5.5-8.77,29.94,29.94,0,0,1,8.4-5.81,31.28,31.28,0,0,1,9.78-2.77,23.2,23.2,0,0,1,10.24,1,66.32,66.32,0,0,1-8.48,5c-2.75,1.42-5.45,2.72-8.15,4s-5.41,2.47-8.21,3.7S1125.17,201.83,1121.76,203Z" style="fill:#231f20"/><path d="M1169.39,193.25a24,24,0,0,1,10.2-2.4,32.9,32.9,0,0,1,10.24,1.35,32.06,32.06,0,0,1,9.34,4.48,22.39,22.39,0,0,1,7.08,7.78,91.54,91.54,0,0,1-9.78-2.1c-3-.8-6-1.61-8.92-2.49s-5.86-1.8-8.85-2.82A70.84,70.84,0,0,1,1169.39,193.25Z" style="fill:#231f20"/><path d="M1140.14,205.41a14.58,14.58,0,0,1,5.21-5.13,19.68,19.68,0,0,1,6.42-2.44,19.21,19.21,0,0,1,6.85-.11,14.83,14.83,0,0,1,6.75,2.83,24.5,24.5,0,0,1-6.16,3.43,31.51,31.51,0,0,1-6,1.71,33.29,33.29,0,0,1-6.14.59A25.2,25.2,0,0,1,1140.14,205.41Z" style="fill:#231f20"/></svg>