<svg xmlns="http://www.w3.org/2000/svg" xmlns:xlink="http://www.w3.org/1999/xlink" height="1860.27" width="1924.009" xmlns:v="https://vecta.io/nano"><g fill="#fff" stroke="#231f20" stroke-width="24" stroke-miterlimit="10"><path d="M1384.71 176.1h472.62a54.68 54.68 0 0 1 54.68 54.67h0a54.68 54.68 0 0 1-54.68 54.68h-472.62"/><path d="M818.25 708.22c-269.42 0-585.75-143.35-585.75-469C232.5 113.73 494.75 12 818.25 12S1404 113.75 1404 239.24c.01 325.63-316.33 468.98-585.75 468.98z"/></g><g fill="#939598"><ellipse ry="15.99" rx="16.05" cy="504.51" cx="818.249"/><ellipse ry="15.99" rx="16.05" cy="568.19" cx="818.249"/><ellipse ry="15.99" rx="16.05" cy="631.87" cx="818.249"/><path d="M910.8 614.68c7.44 5.32 9.63 16.44 4.5 24.62s-15.24 10-22.3 4.1a19.22 19.22 0 0 1-4.15-24.34 15.07 15.07 0 0 1 21.94-4.39zm31.4-60.02c7.85 4.46 11 15.32 6.66 24s-14.14 11.57-21.8 6.56-10.36-15.58-6.32-23.78 13.57-11.3 21.46-6.78zm25.28-63.5c8.46 3.2 12.74 13.6 9.36 23s-12.94 13.46-21 9.37-11.9-14.25-8.74-22.74a15.68 15.68 0 0 1 20.38-9.63zm50.46 112.67c6.3 6.17 6.83 16 .8 21.68s-15.72 4.76-21.6-2-6-16.2-.46-21.32 14.9-4.64 21.25 1.64zm37.77-42.68c7 5.5 8.44 15 3.26 21.37s-15.08 6.42-21.66.56-7.8-15.25-3-21.14 14.46-6.23 21.4-.8zm32.72-46.66c7.6 4.58 10.32 14.1 5.7 20.9s-14.23 8.14-21.46 3-9.43-14.3-5.33-20.67c4.27-6.28 13.5-7.82 21.1-3.23zm25.67-50.83c8.33 3 12.46 11.9 9.17 19.8-3.63 7.6-13 10.42-20.86 6.32s-11.62-12.8-8.43-19.46c2.76-6.7 11.8-9.68 20.12-6.66zm43.35 98.7a15.43 15.43 0 0 1-1.4 22.09c-6.7 5.3-16.5 3.93-21.9-3.12s-4.66-16.78 1.64-21.78c6.14-5.13 15.83-3.88 21.65 2.8zm42.4-42.13a15.07 15.07 0 1 1-20.5 22c-6.12-6.3-6.73-16.08-1.24-21.74s14.95-6.02 21.74-.26zm34.67-48.68c7.7 4.4 10.53 14.2 5.63 21.52-4.64 7.48-14.77 8.9-21.92 3.7s-9.13-14.5-5-21.13c4.32-6.45 13.6-8.45 21.3-4.1zm24.85-54.3c8.3 2.82 13 11.94 9.67 20.06a15.27 15.27 0 0 1-20.74 7.85c-8-3.76-12.1-12.63-9-19.8s11.6-11 20.07-8.1zM724.36 614.68a15.07 15.07 0 0 1 21.94 4.39 19.21 19.21 0 0 1-4.1 24.34c-7.06 5.84-17.3 4.15-22.3-4.1s-2.97-19.3 4.46-24.62zm-31.44-60.02c7.93-4.52 17.36-1.4 21.46 6.77s1.3 18.8-6.32 23.78-17.5 2.13-21.8-6.56-1.2-19.53 6.65-24zm-25.24-63.5a15.69 15.69 0 0 1 20.41 9.64c3.16 8.5-.7 18.67-8.74 22.74s-17.55-.06-21-9.37.85-19.8 9.33-23zM617.2 603.82c6.36-6.25 15.75-6.8 21.25-1.65s5.28 14.7-.46 21.32-15.5 7.63-21.6 2-5.47-15.5.8-21.67zm-37.75-42.68c6.94-5.44 16.55-5.12 21.37.8s3.7 15.2-3 21.14-16.42 5.76-21.62-.53-3.77-15.9 3.25-21.4zm-32.72-46.66c7.6-4.6 16.82-3.05 21.1 3.22 4.1 6.37 1.88 15.53-5.33 20.67s-17 3.94-21.45-3c-4.63-6.83-1.84-16.3 5.7-20.9zm-25.67-50.83c8.33-3 17.36-.05 20.12 6.66 3.2 6.65-.56 15.36-8.42 19.46s-17.24 1.3-20.87-6.32c-3.28-7.9.84-16.77 9.17-19.8zm-43.35 98.7c5.82-6.7 15.5-7.94 21.65-2.8 6.3 5 7 14.76 1.65 21.78s-15.2 8.43-21.9 3.12a15.43 15.43 0 0 1-1.4-22.09zm-42.4-42.13c6.8-5.76 16.4-5.56 21.74.2s4.88 15.45-1.24 21.74a15.07 15.07 0 1 1-20.5-22zm-34.67-48.68c7.7-4.37 17-2.37 21.33 4.1 4.1 6.63 2.14 15.9-5 21.13s-17.27 3.77-21.92-3.7c-4.94-7.3-2.12-17.1 5.6-21.52zm-24.85-54.3c8.48-2.9 17.13.9 20.1 8.1s-1 16.05-9 19.8a15.27 15.27 0 0 1-20.74-7.85c-3.4-8.12 1.33-17.24 9.63-20.06zm442.47-326.1a10.42 10.42 0 1 1 10.7-10.42 10.56 10.56 0 0 1-10.7 10.42z"/><use xlink:href="#B"/><path d="M818.25 174.13a10.42 10.42 0 1 1 10.7-10.42 10.56 10.56 0 0 1-10.7 10.42zm0 41.47a10.41 10.41 0 1 1 10.7-10.41 10.56 10.56 0 0 1-10.7 10.41z"/><use xlink:href="#B" y="124.46"/><path d="M818.25 298.6a10.42 10.42 0 1 1 10.7-10.42 10.57 10.57 0 0 1-10.7 10.42z"/><use xlink:href="#B" y="207.43"/><path d="M818.25 381.54a10.42 10.42 0 1 1 10.7-10.42 10.57 10.57 0 0 1-10.7 10.42zm76.8-17.32c5.52 2.25 7.88 8.7 5.36 14.45-2.75 5.73-9.28 8.12-14.55 5.28a11 11 0 0 1-4.88-14.24 10.89 10.89 0 0 1 14.07-5.49zm14.86-40.74a10.89 10.89 0 1 1-13.57 6.86 10.78 10.78 0 0 1 13.57-6.86zm12.57-41.5a10.89 10.89 0 1 1-13.29 7.47 10.77 10.77 0 0 1 13.29-7.47zm11.25-41.88a10.89 10.89 0 1 1-13.09 7.83 10.77 10.77 0 0 1 13.09-7.83zM944.1 198a10.89 10.89 0 1 1-12.89 8.08 10.77 10.77 0 0 1 12.89-8.08zm9.68-42.28a10.89 10.89 0 1 1-12.81 8.27 10.76 10.76 0 0 1 12.81-8.27zm9.14-42.4a10.89 10.89 0 1 1-12.71 8.43 10.79 10.79 0 0 1 12.71-8.43zm8.67-42.5a10.89 10.89 0 1 1-12.62 8.57 10.78 10.78 0 0 1 12.62-8.57zm31.78 290.37a10.31 10.31 0 1 1-12.95 16c-4.3-4-5-10.36-1.65-14.53s9.77-4.95 14.6-1.47zm22.04-34.6a10.31 10.31 0 1 1-10.59 17.67c-5-3.16-6.65-9.55-3.78-14.27a10.59 10.59 0 0 1 14.37-3.4zm19.17-36.3a10.31 10.31 0 1 1-9.36 18.36 10.58 10.58 0 0 1-4.8-14c2.5-5 8.87-6.95 14.16-4.36zm17.28-37.2a10.31 10.31 0 1 1-8.49 18.77 10.31 10.31 0 1 1 8.49-18.77zm15.86-37.86a10.31 10.31 0 1 1-13.76 5.5 10.46 10.46 0 0 1 13.76-5.5zm14.62-38.34a10.3 10.3 0 1 1-13.57 5.94 10.46 10.46 0 0 1 13.57-5.94zm13.34-38.8a10.31 10.31 0 1 1-13.37 6.4 10.56 10.56 0 0 1 13.37-6.4zm11.53-39.38a10.31 10.31 0 1 1-5.52 19.85 10.31 10.31 0 1 1 5.52-19.85zm26.34 225.12a10.36 10.36 0 1 1-14.69-2c4.35-3.5 10.97-2.6 14.7 2zm31.05-27.14a10.37 10.37 0 1 1-15.29 14c-3.86-4.48-3.62-11.1.53-14.8a10.62 10.62 0 0 1 14.76.81zm28.3-30.03a10.37 10.37 0 1 1-13.79 15.46 10.79 10.79 0 0 1-1-14.77c3.63-4.13 10.3-4.4 14.8-.7zm24.38-33.25a10.377 10.377 0 1 1-11.73 17.12c-4.73-3.54-6-10-2.74-14.46 3.06-4.6 9.46-5.83 14.47-2.66zm19.94-36.08a10.37 10.37 0 1 1-9.43 18.44 10.81 10.81 0 0 1-4.7-14c2.45-4.93 8.78-6.9 14.13-4.44zm15.06-38.4a10.37 10.37 0 1 1-6.91 19.53c-5.44-2.16-8.45-8.15-6.6-13.32s7.95-7.94 13.5-6.2zM740.1 364.22a10.89 10.89 0 0 1 14.1 5.49 11 11 0 0 1-4.88 14.24c-5.27 2.84-11.8.45-14.55-5.28-2.57-5.74-.2-12.2 5.33-14.45zm-14.9-40.74a10.89 10.89 0 1 1-6.68 13.8 10.83 10.83 0 0 1 6.68-13.8zm-12.53-41.5a10.89 10.89 0 1 1-7.26 13.46 10.83 10.83 0 0 1 7.26-13.46zm-11.25-41.88a10.89 10.89 0 1 1-7.61 13.25 10.84 10.84 0 0 1 7.61-13.25zM691.07 198a10.89 10.89 0 1 1-7.87 13.09 10.82 10.82 0 0 1 7.87-13.09zm-9.68-42.28a10.89 10.89 0 1 1-8.06 13 10.82 10.82 0 0 1 8.06-13zm-9.14-42.4a10.89 10.89 0 1 1-8.22 12.88 10.82 10.82 0 0 1 8.22-12.88zm-8.67-42.5a10.89 10.89 0 1 1-8.38 12.79 10.81 10.81 0 0 1 8.38-12.79zM631.8 361.2c4.83-3.48 11.26-2.67 14.6 1.47s2.64 10.52-1.65 14.53a10.31 10.31 0 1 1-12.95-16zm-22.04-34.6a10.6 10.6 0 0 1 14.38 3.4c2.86 4.72 1.16 11.1-3.8 14.27a10.31 10.31 0 1 1-10.59-17.67zm-19.16-36.3c5.3-2.6 11.64-.64 14.15 4.36a10.58 10.58 0 0 1-4.8 14 10.31 10.31 0 1 1-9.35-18.36zm-17.28-37.2a10.31 10.31 0 1 1 8.49 18.77 10.31 10.31 0 1 1-8.49-18.77zm-15.87-37.86a10.31 10.31 0 1 1 7.8 19.07 10.31 10.31 0 1 1-7.8-19.07zm-14.62-38.34a10.31 10.31 0 1 1-6.48 13.4 10.54 10.54 0 0 1 6.48-13.4zm-13.33-38.8a10.31 10.31 0 1 1-6.94 13.17 10.55 10.55 0 0 1 6.94-13.17zm-11.57-39.38a10.31 10.31 0 1 1 5.52 19.82 10.31 10.31 0 1 1-5.52-19.85zm-26.3 225.12c3.72-4.6 10.3-5.5 14.7-2a10.71 10.71 0 1 1-14.69 2zm-31.05-27.14a10.62 10.62 0 0 1 14.76-.83c4.16 3.7 4.4 10.33.53 14.8a10.37 10.37 0 1 1-15.29-14zm-28.3-30.03c4.5-3.72 11.16-3.44 14.82.7a10.79 10.79 0 0 1-1 14.77 10.37 10.37 0 1 1-13.79-15.46zm-24.38-33.25c5-3.17 11.4-1.95 14.47 2.6 3.22 4.45 2 10.92-2.74 14.46a10.37 10.37 0 1 1-11.73-17.07zm-19.96-36.08c5.37-2.47 11.7-.5 14.13 4.44a10.8 10.8 0 0 1-4.7 14 10.37 10.37 0 1 1-9.43-18.44zm-15.04-38.4c5.55-1.73 11.7 1 13.5 6.2s-1.16 11.16-6.6 13.32a10.36 10.36 0 1 1-6.91-19.53z"/></g><path d="M1404 234.78c0 107.87-262.25 195.3-585.75 195.3S232.5 342.65 232.5 234.78" fill="none" stroke="#231f20" stroke-width="24" stroke-miterlimit="10"/><g fill="#231f20"><path d="M872.73 1270.3h-41.9V917.64a103.49 103.49 0 0 0-103.37-103.37h7.85a103.49 103.49 0 0 0-103.37 103.37v166.9h-41.9v-166.9c0-80.1 65.17-145.28 145.27-145.28h-7.85c80.1 0 145.27 65.17 145.27 145.28zm-293.17-185.73h62.87v48.28h-62.87z"/><path d="M799.39 1270.3h104.78v121.28H799.39z"/><path d="M904.18 1297.86h81.73v62.87h-81.73z"/><path d="M943 1232.23h20.96v66.4H943zm693.2 616.04H67.35c-41.1 0-67.84-43.3-49.42-80l162-323.36a55.29 55.29 0 0 1 49.42-30.51H1474.2a55.29 55.29 0 0 1 49.42 30.51l162 323.36c18.43 36.7-8.3 80-49.42 80z"/></g><path d="M103.46 1792.8H1600.1a28.6 28.6 0 0 0 25.88-40.78l-133.37-283.32a28.6 28.6 0 0 0-25.88-16.43H236.83a28.6 28.6 0 0 0-25.88 16.43L77.58 1752.03a28.6 28.6 0 0 0 25.88 40.78z" fill="#fff"/><path d="M1131.58 1046.42v-273m97.3 175.7l-97.3 114.68-97.3-114.68" fill="none" stroke="#231f20" stroke-width="24" stroke-linecap="round" stroke-linejoin="round"/><defs ><path id="B" d="M818.25 132.64a10.42 10.42 0 1 1 10.7-10.41 10.56 10.56 0 0 1-10.7 10.41z"/></defs></svg>