<svg id="Layer_1" data-name="Layer 1" xmlns="http://www.w3.org/2000/svg" xmlns:xlink="http://www.w3.org/1999/xlink" width="2000" height="2000" viewBox="0 0 2000 2000">
  <defs>
    <radialGradient id="radial-gradient" cx="752.01" cy="1652.2" fx="918.1342427587074" fy="1795.1556313604117" r="219.17" gradientTransform="matrix(0.62, -0.78, 1.03, 0.82, -1351.25, 824.52)" gradientUnits="userSpaceOnUse">
      <stop offset="0.01" stop-color="#e0ffb0"/>
      <stop offset="0.17" stop-color="#d1f6a6"/>
      <stop offset="0.46" stop-color="#a9de8c"/>
      <stop offset="0.87" stop-color="#6ab862"/>
      <stop offset="1" stop-color="#55ab54"/>
    </radialGradient>
  </defs>
  <path d="M843.79,754.51,815.2,724.42a564.4,564.4,0,0,1-83.31-113.48c-24.25-43.39-57.64-98.11-81.36-117-41.47-33.1-37.08-54.16-27.62-62.31C636,420.31,648.6,420,668.05,420a90.59,90.59,0,0,1,10.87.66c44,5.29,97,69.61,110.92,82,4.47,4,8.92,7.94,13.4,11.84a11.86,11.86,0,0,0,19.63-8.95l5.92-362.24c0-24.2,13.76-43.88,38-43.88s38,19.68,38,43.88l5.93,251.56a11.85,11.85,0,1,0,23.7,0l5.93-319.41c0-24.2,13.75-43.88,38-43.88s37.95,19.68,37.95,43.88l5.93,318.15a11.85,11.85,0,1,0,23.7,0l5.93-262.42c0-24.19,13.75-43.88,38-43.88s37.95,19.69,37.95,43.88l5.93,275.2a11.85,11.85,0,1,0,23.7,0l5.93-188c0-24.19,13.75-43.88,38-43.88s37.95,19.69,37.95,43.88l4.71,172.12q1.21,44.58-1.72,89.11l-5.26,79.66a557.61,557.61,0,0,1-54.13,205.5h0a106.09,106.09,0,0,1-94.33,60l-76.07.88A228.81,228.81,0,0,1,843.79,754.51Z" style="fill: #fff;stroke: #3a3632;stroke-miterlimit: 10;stroke-width: 20px"/>
  <g>
    <g>
      <g id="layer2">
        <path id="path863" d="M1239,1818.86c-19.8,62.77-191.92,78-403.7-8.16-254.79-103.61-478.95-344-412.54-441.95,31.78-46.88,78-103.64,78-103.64s57.79-49.42,101.47-82c91.69-68.29,219.2,156.06,396.65,346.18C1162.47,1704.62,1258.82,1756.09,1239,1818.86Z" style="fill: #009b4e"/>
        <path id="path863-2" data-name="path863" d="M1239,1818.86c-19.8,62.77-191.92,78-403.7-8.16-254.79-103.61-478.95-344-412.54-441.95,31.78-46.88,78-103.64,78-103.64s57.79-49.42,101.47-82c91.69-68.29,219.2,156.06,396.65,346.18C1162.47,1704.62,1258.82,1756.09,1239,1818.86Z" style="fill: none;stroke: #3a3632;stroke-linecap: round;stroke-linejoin: round;stroke-width: 22.1524369263235px;isolation: isolate;opacity: 0.986000001430512"/>
        <path id="path863-3" data-name="path863" d="M1239,1818.86c-19.8,62.77-191.92,78-403.7-8.16-254.79-103.61-478.95-344-412.54-441.95,31.78-46.88,78-103.64,78-103.64s57.79-49.42,101.47-82c91.69-68.29,219.2,156.06,396.65,346.18C1162.47,1704.62,1258.82,1756.09,1239,1818.86Z" style="fill: none;stroke: #3a3632;stroke-linecap: round;stroke-width: 22.9263402394123px"/>
      </g>
      <g id="layer2-2" data-name="layer2">
        <path id="path863-4" data-name="path863" d="M1008.76,1696c3.21,23-144.14,37.91-282-25-165.87-75.67-333.88-260.68-291.84-329.29,20.12-32.83,49.47-72.51,49.47-72.51s41-19.34,69-41.92c49.6-40.34,139.22,97.34,255.86,233.41C916.8,1586.14,1005.27,1670.88,1008.76,1696Z" style="fill: #55ab54"/>
      </g>
      <path id="path915" d="M493.1,1201.42c-34.6-18.82-84.82-118.89-104.54-140.35-19.08-20.77-36-23.29-64.51-2-27.17,20.42-39.43,40.74-32.8,64.89s132.48,102.12,148,137.12-46.92,94.82-35.14,121.09c10-6.13,32.42-20.53,69.07-25.9,22.51-45.38,94.22-117.72,126-128.71,0,0,6.12-35.6,20.25-62.67C588.81,1151.9,527.7,1220.23,493.1,1201.42Z" style="fill: #1f8441"/>
    </g>
    <g>
      <g id="layer2-3" data-name="layer2">
        <path id="path863-5" data-name="path863" d="M496,1383.43c-37.86,61.23,112.91,226,261.88,293.35,123.82,55.94,256.25,42.54,253.39,22-3.11-22.37-82.52-97.85-179-209.63-104.66-121.22-185-243.92-229.65-207.89" style="fill: url(#radial-gradient)"/>
      </g>
      <g>
        <path d="M644.92,1310.07a40.29,40.29,0,0,1,3.32-2.41c1-.66,1.87-1.18,2.27-1.46,3.06-2.06,5.79-3.94,8-5.7a33.19,33.19,0,0,0,5.34-5.18,14.52,14.52,0,0,0,3.57-8.86,11.14,11.14,0,0,0-.7-4,14.31,14.31,0,0,0-2.16-3.69,18.9,18.9,0,0,0-3.48-3.15,22.08,22.08,0,0,0-4.59-2.38,37.51,37.51,0,0,0-10.09-2.39,32.41,32.41,0,0,0-4.62,0,24.15,24.15,0,0,0-4.11.73,18.24,18.24,0,0,0-3.45,1.38,12.72,12.72,0,0,0-2.68,1.94,10.19,10.19,0,0,0-2.95,5.1c-.87,3.61.61,6.84,2.37,10,.89,1.56,1.85,3,2.78,4.6s1.77,3,2.51,4.53a45.68,45.68,0,0,1,4.24,15.7A21,21,0,0,1,644.92,1310.07Z" style="fill: #f4eea2"/>
        <path d="M499.1,1444.48a14.42,14.42,0,0,0,5.71,0,20.11,20.11,0,0,0,7.17-3.3,62.15,62.15,0,0,0,6.15-5c4.07-3.72,8.13-7.41,12.18-10.5,1-.78,2.1-1.5,3.12-2.2a.45.45,0,0,0,.22-.49c0-.21-.16-.4-.53-.5a16.28,16.28,0,0,1-2.61-1.07c-1.38-.66-2.78-1.41-4.06-2.17s-2.41-1.5-3.54-2.29c-1.33-.93-2.76-1.86-4.22-2.83-2.73-1.85-5.88-4-9-5.79s-6.63-3.13-10.38-2.77a10.94,10.94,0,0,0-5.22,2,14.21,14.21,0,0,0-4.25,4.84,20,20,0,0,0-1,2c-.15.36-.28.72-.42,1.08s-.21.72-.31,1.08a27.1,27.1,0,0,0-.8,4.54,41.15,41.15,0,0,0,0,4.58c.12,1.5.34,3,.58,4.42a25.42,25.42,0,0,0,.85,3.44,20.87,20.87,0,0,0,1.22,3.21,15.67,15.67,0,0,0,3.78,5.13A12,12,0,0,0,499.1,1444.48Z" style="fill: #f4eea2"/>
        <path d="M535.86,1476.39c2.8-4.81,5.35-9.8,7.8-14.63l1.85-3.64a.71.71,0,0,0,0-.68.75.75,0,0,0-.76-.42,18.37,18.37,0,0,1-3-.33c-1.64-.25-3.27-.55-4.92-.87l-4.4-.91c-1.71-.35-3.5-.59-5.25-.79a48.46,48.46,0,0,0-10.85-.13,19.8,19.8,0,0,0-10.07,3.77,13.2,13.2,0,0,0-5,9.38,17.79,17.79,0,0,0,1.06,7.25,29.71,29.71,0,0,0,1.46,3.45c.57,1.1,1.2,2.17,1.85,3.21a24.18,24.18,0,0,0,3.72,4.66,14,14,0,0,0,4.81,3.17,13.75,13.75,0,0,0,11.17-.89C530,1485.54,533.22,1480.86,535.86,1476.39Z" style="fill: #f4eea2"/>
        <path d="M552.74,1526.13c4.37-3.05,7-8.11,8.91-12.9,2.13-5.2,3.83-10.51,5.46-15.8.4-1.33.79-2.65,1.16-4a.77.77,0,0,0-.18-.7.79.79,0,0,0-.83-.33,19.45,19.45,0,0,1-3.1.11c-1.69,0-3.38-.07-5.08-.13l-4.57-.19a48.08,48.08,0,0,0-5.36.13c-7,.54-14.92,2.2-19.73,7.79a13.45,13.45,0,0,0-3.18,9.91c.39,4.71,3.16,8.89,6.27,12.38,2.54,2.89,5.65,5.35,9.34,6.18A14.14,14.14,0,0,0,552.74,1526.13Z" style="fill: #f4eea2"/>
        <path d="M583.87,1560.83c4.08-3.43,6.19-8.69,7.71-13.67a165.45,165.45,0,0,0,3.86-16.3c.25-1.37.5-2.74.74-4.1a.76.76,0,0,0-.26-.69.8.8,0,0,0-.86-.25,18.94,18.94,0,0,1-3.11.4c-1.69.15-3.4.27-5.09.37l-4.59.27a46,46,0,0,0-5.33.7c-6.89,1.28-14.57,3.9-18.7,10a13.51,13.51,0,0,0-2.12,10.12c.86,4.59,4,8.36,7.37,11.49,2.79,2.55,6,4.71,9.8,5.14A14.22,14.22,0,0,0,583.87,1560.83Z" style="fill: #f4eea2"/>
        <path d="M624.27,1578.59a155.84,155.84,0,0,0,2.59-16.57c.15-1.38.29-2.77.41-4.15a.81.81,0,0,0-.32-.67.83.83,0,0,0-.89-.19,18.7,18.7,0,0,1-3.07.64c-1.68.27-3.36.52-5.06.75l-4.56.64a43.14,43.14,0,0,0-5.26,1.11c-6.79,1.86-14.19,5.1-17.81,11.53a13.6,13.6,0,0,0-1.3,10.24,16.09,16.09,0,0,0,3.21,6,30.44,30.44,0,0,0,5,4.77,24.35,24.35,0,0,0,4.75,3,14.51,14.51,0,0,0,5.37,1.35,14.27,14.27,0,0,0,10.28-4.27C621.42,1589.06,623.13,1583.67,624.27,1578.59Z" style="fill: #f4eea2"/>
        <path d="M659.14,1607.64q.61-4.17.94-8.35c.23-2.79.39-5.59.49-8.36.06-1.4.09-2.79.12-4.18a.82.82,0,0,0-.46-.7.77.77,0,0,0-.5-.13h-.07s-.06,0-.1,0a.61.61,0,0,0-.13,0,18.77,18.77,0,0,1-3,.84c-1.65.4-3.32.76-5,1.11l-4.51,1a44.74,44.74,0,0,0-5.17,1.48c-6.65,2.33-13.79,6.11-16.94,12.78a13.58,13.58,0,0,0-.57,10.29,16.06,16.06,0,0,0,3.6,5.77,31,31,0,0,0,5.3,4.41c3.11,2.1,6.63,3.74,10.4,3.62a14.25,14.25,0,0,0,10-5C657,1618.29,658.36,1612.78,659.14,1607.64Z" style="fill: #f4eea2"/>
        <path d="M695.92,1634.21a156.41,156.41,0,0,0,.28-16.76c-.06-1.4-.12-2.8-.17-4.18a.83.83,0,0,0-.5-.67.74.74,0,0,0-.51-.09H695l-.09,0c-.05,0-.09,0-.14,0a19.22,19.22,0,0,1-3,1.05c-1.63.51-3.27,1-4.91,1.46l-4.43,1.25a43.71,43.71,0,0,0-5.06,1.84c-6.47,2.78-13.33,7-16,13.9a13.54,13.54,0,0,0,.13,10.31c1.81,4.27,5.66,7.24,9.59,9.55,3.26,1.87,6.88,3.28,10.64,2.9a14.27,14.27,0,0,0,9.59-5.64C694.54,1645,695.51,1639.38,695.92,1634.21Z" style="fill: #f4eea2"/>
        <path d="M734.51,1658a157.31,157.31,0,0,0-1-16.72c-.15-1.38-.3-2.78-.47-4.15a.78.78,0,0,0-.45-.59.8.8,0,0,0-.9,0,20.17,20.17,0,0,1-2.87,1.28c-1.58.63-3.18,1.23-4.78,1.81l-4.32,1.58a45,45,0,0,0-4.91,2.21c-6.23,3.23-12.79,8-15,15a13.5,13.5,0,0,0,.89,10.28,16.43,16.43,0,0,0,4.41,5.22,32.77,32.77,0,0,0,5.9,3.62c3.41,1.63,7.15,2.77,10.87,2.11a14.27,14.27,0,0,0,9.14-6.37C734,1668.84,734.5,1663.18,734.51,1658Z" style="fill: #f4eea2"/>
        <path d="M772.44,1661.86c-.28-1.37-.55-2.74-.82-4.09a.74.74,0,0,0-.49-.54.78.78,0,0,0-.89.09,19,19,0,0,1-2.74,1.53c-1.51.78-3,1.51-4.58,2.23l-4.16,2a44.86,44.86,0,0,0-4.69,2.62c-5.93,3.73-12.1,9-13.69,16.2a13.56,13.56,0,0,0,1.77,10.19,17.08,17.08,0,0,0,4.88,4.85,32.61,32.61,0,0,0,6.26,3.11c3.57,1.34,7.42,2.15,11.1,1.16a14.08,14.08,0,0,0,8.53-7.19c2.47-4.72,2.44-10.41,2-15.58C774.38,1672.85,773.49,1667.25,772.44,1661.86Z" style="fill: #f4eea2"/>
        <path d="M812.86,1678.3c-.42-1.33-.83-2.65-1.24-4a.77.77,0,0,0-.55-.49.8.8,0,0,0-.87.18,18.57,18.57,0,0,1-2.54,1.82c-1.42.93-2.87,1.83-4.31,2.71l-3.92,2.38A48.19,48.19,0,0,0,795,1684c-5.49,4.34-11.11,10.21-11.95,17.54a13.61,13.61,0,0,0,2.86,10,16.91,16.91,0,0,0,5.4,4.31,33.17,33.17,0,0,0,6.58,2.44,25.92,25.92,0,0,0,5.65.86,14.79,14.79,0,0,0,5.52-.91,14.19,14.19,0,0,0,7.7-8.08c2-5,1.31-10.6.28-15.68C816,1689,814.47,1683.59,812.86,1678.3Z" style="fill: #f4eea2"/>
        <path d="M853.26,1686.6a.9.9,0,0,0-1.45-.15,19.05,19.05,0,0,1-2.35,2.07c-1.32,1.07-2.66,2.09-4,3.13l-3.67,2.78a47.89,47.89,0,0,0-4,3.52c-5,4.92-10,11.31-10,18.69a13.53,13.53,0,0,0,3.86,9.61c3.27,3.35,8,4.75,12.58,5.48a25.86,25.86,0,0,0,5.69.27,14.61,14.61,0,0,0,5.39-1.46,14.17,14.17,0,0,0,6.84-8.82c1.44-5.13.23-10.67-1.3-15.63-1.65-5.35-3.71-10.58-5.85-15.67C854.35,1689.14,853.8,1687.86,853.26,1686.6Z" style="fill: #f4eea2"/>
        <path d="M896,1694.64a.73.73,0,0,0-.63-.36.8.8,0,0,0-.82.35,19.83,19.83,0,0,1-2.13,2.29c-1.2,1.19-2.44,2.37-3.68,3.52l-3.37,3.12a48.49,48.49,0,0,0-3.66,3.92c-4.52,5.38-8.8,12.25-8.14,19.6a13.61,13.61,0,0,0,4.8,9.18c3.59,3,8.44,3.94,13.07,4.18a23.51,23.51,0,0,0,5.69-.3,13.24,13.24,0,0,0,11.15-11.44c.92-5.26-.85-10.64-2.87-15.43-2.18-5.15-4.74-10.15-7.38-15C897.33,1697.05,896.66,1695.84,896,1694.64Z" style="fill: #f4eea2"/>
        <path d="M941.45,1701.6l-2.38-3.39a.76.76,0,0,0-.66-.29.79.79,0,0,0-.77.45,19,19,0,0,1-1.85,2.51c-1.06,1.31-2.15,2.6-3.26,3.89l-3,3.46a50.1,50.1,0,0,0-3.23,4.29c-3.91,5.81-7.47,13.1-6,20.33a13.55,13.55,0,0,0,5.76,8.63c3.9,2.61,8.87,3,13.55,2.77,3.85-.22,7.75-1.1,10.72-3.51a14,14,0,0,0,4.82-10.09c.28-5.33-2.13-10.46-4.68-15C947.67,1710.81,944.58,1706.13,941.45,1701.6Z" style="fill: #f4eea2"/>
        <path d="M1000.12,1717.5l-3.48-3c-1.13-1-2.21-1.92-3.2-2.88a32,32,0,0,1-5.18-6.24c-.33-.53-.63-1.07-.9-1.61-.13-.27-.25-.54-.37-.81s-.07-.28-.21-.4l-.34-.37-2.75-3-2.75-3a.69.69,0,0,0-.65-.18.73.73,0,0,0-.64.56,16.37,16.37,0,0,1-1.33,2.75c-.79,1.46-1.62,2.91-2.49,4.33l-2.38,3.87a51.41,51.41,0,0,0-2.53,4.69c-3,6.3-5.65,14-3.26,21a13.31,13.31,0,0,0,7,7.75c4.37,2,9.59,1.68,14.47.57a30.77,30.77,0,0,0,3-.83l.74-.26.37-.14.18-.08.29-.09c.85-.25,1.67-.53,2.46-.83a42.21,42.21,0,0,0,4.37-2,18.52,18.52,0,0,0,3.47-2.43,13.23,13.23,0,0,0,1.34-1.37,10.29,10.29,0,0,0,1-1.45,8,8,0,0,0,1-2.87,8.66,8.66,0,0,0-1.26-5.39A26.89,26.89,0,0,0,1000.12,1717.5Z" style="fill: #f4eea2"/>
        <path d="M1027.16,1680.25a17.66,17.66,0,0,0-3.86-2,14.26,14.26,0,0,0-3.62-.89,11.33,11.33,0,0,0-6,1,19.58,19.58,0,0,0-6,5c-1.71,1.94-3.3,3.91-5,5.53a21.12,21.12,0,0,1-12.83,6.34,23.57,23.57,0,0,1-4,.12l-.32,0h0l.38,0,.15,0a30.71,30.71,0,0,1,3.37.56,33.54,33.54,0,0,1,5.54,1.78,28.25,28.25,0,0,1,4.84,2.55,52.45,52.45,0,0,1,4.94,3.74c1.51,1.3,3,2.71,4.44,4.17l2.19,2.21.56.57a5.78,5.78,0,0,1,.43.48l.84.92a20.62,20.62,0,0,0,9.36,6.15,13.16,13.16,0,0,0,12.77-3,16,16,0,0,0,4-6.76,18.51,18.51,0,0,0,.57-7.92,31.13,31.13,0,0,0-12.8-20.53Z" style="fill: #f4eea2"/>
        <path d="M983.18,1641.84c-4.24,3.25-6.61,8.39-8.31,13.31a144.11,144.11,0,0,0-4.42,16.22c-.3,1.36-.58,2.73-.85,4.1a.79.79,0,0,0,.24.71.83.83,0,0,0,.87.28,19.7,19.7,0,0,1,3.13-.29c1.71-.09,3.41-.14,5.11-.19l4.61-.13a45.58,45.58,0,0,0,5.34-.55c6.93-1.11,14.68-3.48,19-9.47a13.6,13.6,0,0,0,2.39-10.08c-.73-4.6-3.71-8.42-6.94-11.59-2.66-2.61-5.8-4.82-9.48-5.38A14.49,14.49,0,0,0,983.18,1641.84Z" style="fill: #f4eea2"/>
        <path d="M952.33,1607.84c-4.19,3.3-6.5,8.48-8.11,13.43a129.87,129.87,0,0,0-4,16.37c-.25,1.39-.49,2.78-.71,4.17a.82.82,0,0,0,.28.71.83.83,0,0,0,.79.29h.09a19.25,19.25,0,0,1,3.16-.34c1.71-.13,3.43-.22,5.15-.31l4.64-.26a41.94,41.94,0,0,0,5.35-.73c6.92-1.35,14.48-4.2,18.5-10.37a13.86,13.86,0,0,0,2-10c-.84-4.47-3.84-8.1-7.09-11.12-2.66-2.48-5.81-4.57-9.47-5A14.65,14.65,0,0,0,952.33,1607.84Z" style="fill: #f4eea2"/>
        <path d="M921.43,1574.09c-4.2,3.29-6.52,8.46-8.13,13.42a124,124,0,0,0-4,16.39c-.25,1.39-.48,2.78-.7,4.18a.83.83,0,0,0,.28.71.85.85,0,0,0,.81.29h.08a20.48,20.48,0,0,1,3.16-.35c1.73-.12,3.45-.21,5.17-.31l4.65-.27a42,42,0,0,0,5.35-.74c6.92-1.39,14.46-4.31,18.42-10.52a13.81,13.81,0,0,0,2-10c-.84-4.44-3.83-8-7.06-11-2.65-2.46-5.78-4.54-9.44-5A14.63,14.63,0,0,0,921.43,1574.09Z" style="fill: #f4eea2"/>
        <path d="M897.2,1573.56c6.94-1.34,14.48-4.24,18.47-10.43a13.88,13.88,0,0,0,2.06-10c-.8-4.43-3.76-8-7-11-2.63-2.47-5.73-4.56-9.38-5.06a14.74,14.74,0,0,0-10.62,3.17c-4.22,3.25-6.59,8.4-8.25,13.34a124.07,124.07,0,0,0-4.12,16.37c-.26,1.39-.5,2.79-.72,4.18a1,1,0,0,0,1.08,1h.09a19.19,19.19,0,0,1,3.17-.33c1.72-.11,3.44-.19,5.17-.27l4.65-.23A43.69,43.69,0,0,0,897.2,1573.56Z" style="fill: #f4eea2"/>
        <path d="M860.52,1506c-4.27,3.2-6.7,8.32-8.42,13.24a120.61,120.61,0,0,0-4.31,16.32c-.28,1.39-.53,2.78-.77,4.18a.8.8,0,0,0,.27.72.85.85,0,0,0,.8.31h.08a19.17,19.17,0,0,1,3.18-.29c1.72-.09,3.45-.14,5.18-.21l4.65-.18a41.88,41.88,0,0,0,5.37-.65c7-1.27,14.52-4.09,18.58-10.23a13.87,13.87,0,0,0,2.17-10c-.75-4.44-3.66-8-6.82-11.09-2.59-2.5-5.67-4.62-9.31-5.16A14.73,14.73,0,0,0,860.52,1506Z" style="fill: #f4eea2"/>
        <path d="M830.84,1471.39c-4.32,3.12-6.85,8.19-8.66,13.07a120,120,0,0,0-4.59,16.26c-.3,1.39-.58,2.78-.83,4.17a.84.84,0,0,0,.25.73.87.87,0,0,0,.8.32h.09a21.25,21.25,0,0,1,3.18-.23c1.73,0,3.46-.08,5.19-.11,1.55,0,3.11,0,4.66-.11a40.54,40.54,0,0,0,5.39-.57c7-1.16,14.57-3.89,18.72-10a14,14,0,0,0,2.32-9.93c-.68-4.43-3.52-8.08-6.61-11.16-2.54-2.54-5.58-4.7-9.2-5.31A14.76,14.76,0,0,0,830.84,1471.39Z" style="fill: #f4eea2"/>
        <path d="M796.62,1470.35c1.55,0,3.1,0,4.66,0a42.32,42.32,0,0,0,5.39-.48c7-1,14.64-3.62,18.9-9.62a13.91,13.91,0,0,0,2.49-9.9c-.6-4.46-3.4-8.17-6.46-11.32-2.52-2.58-5.53-4.81-9.16-5.47a14.71,14.71,0,0,0-10.75,2.7c-4.36,3.07-6.94,8.11-8.81,13a120.33,120.33,0,0,0-4.84,16.17c-.32,1.37-.62,2.76-.9,4.14a.81.81,0,0,0,.24.73.87.87,0,0,0,.79.33h.09a20.83,20.83,0,0,1,3.18-.18C793.16,1470.36,794.89,1470.35,796.62,1470.35Z" style="fill: #f4eea2"/>
        <path d="M777.53,1434.45c7-1,14.68-3.5,19-9.47a13.84,13.84,0,0,0,2.56-9.89c-.59-4.48-3.39-8.24-6.45-11.41-2.53-2.62-5.55-4.87-9.19-5.54a14.61,14.61,0,0,0-10.76,2.68c-4.36,3.07-6.94,8.12-8.82,13a125.88,125.88,0,0,0-4.88,16.13c-.33,1.38-.64,2.75-.93,4.13a.83.83,0,0,0,.23.73.87.87,0,0,0,.79.33h.09a19.51,19.51,0,0,1,3.17-.17c1.72,0,3.45,0,5.17,0h4.65A40.54,40.54,0,0,0,777.53,1434.45Z" style="fill: #f4eea2"/>
        <path d="M743.2,1365.55c-4.3,3.15-6.78,8.26-8.57,13.14a134,134,0,0,0-4.69,16.17c-.31,1.37-.61,2.74-.89,4.11a1,1,0,0,0,1,1h.09a19.7,19.7,0,0,1,3.16-.22c1.72,0,3.44-.08,5.16-.1l4.64-.06a44.26,44.26,0,0,0,5.38-.49c7-1.05,14.65-3.58,18.93-9.58a13.84,13.84,0,0,0,2.47-9.93c-.64-4.51-3.5-8.27-6.64-11.44-2.57-2.61-5.67-4.85-9.32-5.48A14.48,14.48,0,0,0,743.2,1365.55Z" style="fill: #f4eea2"/>
        <path d="M712.28,1331.08c-4.11,3.39-6.29,8.64-7.85,13.59a154.06,154.06,0,0,0-4,16.28c-.26,1.37-.52,2.74-.75,4.11a.77.77,0,0,0,.26.7.82.82,0,0,0,.87.27,20,20,0,0,1,3.12-.37c1.71-.13,3.42-.22,5.12-.31l4.62-.23a45.58,45.58,0,0,0,5.34-.68c6.93-1.28,14.55-4,18.66-10.09a13.7,13.7,0,0,0,2.15-10.06c-.82-4.52-3.86-8.25-7.19-11.36-2.73-2.56-6-4.72-9.71-5.21A14.21,14.21,0,0,0,712.28,1331.08Z" style="fill: #f4eea2"/>
        <path d="M671.74,1313.88c-.91,5.48-1.57,11-2.14,16.4-.13,1.38-.27,2.74-.4,4.09a.73.73,0,0,0,.38.69.75.75,0,0,0,.48.13h.06l.1,0,.14,0a18.86,18.86,0,0,1,3-.74c1.64-.33,3.3-.63,5-.9l4.51-.71a49.73,49.73,0,0,0,5.22-1.17c6.76-1.88,14.2-5.06,17.84-11.48a13.44,13.44,0,0,0,1.23-10.32c-1.32-4.54-4.86-8.16-8.76-11.06a26.11,26.11,0,0,0-5.13-3,15.06,15.06,0,0,0-5.73-1.31,13.42,13.42,0,0,0-10.19,4.81C673.82,1303.24,672.61,1308.79,671.74,1313.88Z" style="fill: #f4eea2"/>
      </g>
    </g>
  </g>
  <g>
    <g id="layer2-4" data-name="layer2">
      <path id="path863-6" data-name="path863" d="M1805.42,1761.43c-19.81,62.77-191.93,78-403.71-8.16-254.79-103.62-478.94-344-412.53-442,31.77-46.88,78-103.63,78-103.63s57.79-49.42,101.47-82c91.68-68.3,219.2,156.06,396.65,346.17C1728.87,1647.19,1825.22,1698.66,1805.42,1761.43Z" style="fill: #009b4e"/>
      <path id="path863-7" data-name="path863" d="M1805.42,1761.43c-19.81,62.77-191.93,78-403.71-8.16-254.79-103.62-478.94-344-412.53-442,31.77-46.88,78-103.63,78-103.63s57.79-49.42,101.47-82c91.68-68.3,219.2,156.06,396.65,346.17C1728.87,1647.19,1825.22,1698.66,1805.42,1761.43Z" style="fill: none;stroke: #3a3632;stroke-linecap: round;stroke-linejoin: round;stroke-width: 22.1524369263235px;isolation: isolate;opacity: 0.986000001430512"/>
      <path id="path863-8" data-name="path863" d="M1805.42,1761.43c-19.81,62.77-191.93,78-403.71-8.16-254.79-103.62-478.94-344-412.53-442,31.77-46.88,78-103.63,78-103.63s57.79-49.42,101.47-82c91.68-68.3,219.2,156.06,396.65,346.17C1728.87,1647.19,1825.22,1698.66,1805.42,1761.43Z" style="fill: none;stroke: #3a3632;stroke-linecap: round;stroke-width: 22.9263402394123px"/>
    </g>
    <g id="layer2-5" data-name="layer2">
      <path id="path863-9" data-name="path863" d="M1575.16,1638.54c3.21,23-144.14,37.91-282-25-165.88-75.66-333.88-260.67-291.84-329.28,20.12-32.84,49.47-72.52,49.47-72.52s41-19.33,69-41.92c49.59-40.34,139.22,97.35,255.86,233.42C1483.2,1528.71,1571.67,1613.45,1575.16,1638.54Z" style="fill: #55ab54"/>
    </g>
    <circle cx="1118.42" cy="1379.76" r="59.12" style="fill: #fff"/>
    <circle cx="1280.15" cy="1342.4" r="38.75" style="fill: #6dcc6a"/>
    <path id="path915-2" data-name="path915" d="M1059.5,1144c-34.6-18.81-84.82-118.88-104.55-140.35-19.07-20.76-36-23.29-64.5-2-27.18,20.42-39.43,40.73-32.8,64.89s132.48,102.11,148,137.12-46.93,94.81-35.14,121.08c10-6.13,32.42-20.53,69.07-25.89,22.51-45.38,94.22-117.73,126-128.71,0,0,6.12-35.6,20.25-62.67C1155.21,1094.46,1094.09,1162.8,1059.5,1144Z" style="fill: #1f8441"/>
  </g>
</svg>
