<?xml version="1.0" encoding="UTF-8"?>
<svg id="Layer_1" data-name="Layer 1" xmlns="http://www.w3.org/2000/svg" width="2000" height="2000" xmlns:xlink="http://www.w3.org/1999/xlink" viewBox="0 0 2000 2000">
  <defs>
    <radialGradient id="radial-gradient" cx="18056.25" cy="-2667.93" fx="18056.25" fy="-2667.93" r="384.28" gradientTransform="translate(-23131.57 5039.08) rotate(-3.14) scale(1.34 .98) skewX(-2.34)" gradientUnits="userSpaceOnUse">
      <stop offset="0" stop-color="#b2e57f"/>
      <stop offset="1" stop-color="#b1e57f"/>
    </radialGradient>
  </defs>
  <g>
    <path d="M1982.77,1114.47c0,278.86-440,504.92-982.77,504.92-542.77,0-982.77-226.06-982.77-504.92,0-278.86,440-504.92,982.77-504.92,542.77,0,982.77,226.06,982.77,504.92Z" style="fill: #fff; stroke: #3a3632; stroke-miterlimit: 10; stroke-width: 20px;"/>
    <path d="M1618.31,1114.47c0,149.59-276.83,270.86-618.31,270.86-341.48,0-618.31-121.27-618.31-270.86,0-149.59,276.83-270.86,618.31-270.86,341.48,0,618.31,121.27,618.31,270.86Z" style="fill: #fff; stroke: #3a3632; stroke-miterlimit: 10; stroke-width: 20px;"/>
  </g>
  <g>
    <path d="M1552.06,1002.55c-8.65,6.93-22.97,12.2-21.38,38.01l24.61,374.63-2.33,85.67c1.09,17.67-16.01,32.04-38.19,32.04H486.17c-22.18,0-39.27-14.37-38.19-32.04l-2.33-85.68,24.75-371.69c1.76-28.59-17.93-34.88-24.85-40.67-30.82-26.02-46.74-38.28-48.45-75.69-.26-5.74-.19-67.56,.22-73.25,9.74-136.6,285.84-248.63,603.18-248.63,97.19,0,189.91,10.47,272.28,28.7,176.53,44.67,301.71,117.78,326.52,197.53,2.11,7.39,3.82,65.73,4.36,73.3,3.21,45.34-13.65,67.12-51.58,97.75Z" style="fill: #e2c4a6; stroke: #3a3632; stroke-miterlimit: 10; stroke-width: 20px;"/>
    <path d="M482.66,1432.18c-14.26,0-25.33-9.04-24.66-20.12l27.8-433.08c1.9-31.68-20.71-50.07-28.12-56.09-33.17-27.23-49.62-34.99-46.88-74.16,2.16-30.91,19.49-61.09,51.37-89.71,31.15-27.97,74.58-53.15,129.03-74.9,54.66-21.83,117.29-38.95,186.24-50.93,71.54-12.44,146.53-18.73,223.06-18.73,92.04,0,184.79,9.56,268.53,27.71,85.56,21.24,159.97,49.5,215.17,81.83,27.52,16.11,50.18,33.16,67.34,50.66,17.27,17.62,28.93,35.71,34.63,53.76,2.35,8.15,3.59,14.42,4,20.34,2.89,41.67-14.59,50.93-50.09,78.8-9.96,7.76-26.52,25.1-24.81,53.64l27.67,430.88c.66,11.08-10.4,20.12-24.66,20.12H482.66Z" style="fill: #ffedd9;"/>
    <path d="M485.8,978.98c-1.92-19.94-11.41-36.06-26.73-48.72-4.21-3.48-10.92-8.65-15.31-12.18-24.89-19.68-40.69-35.22-32.96-69.35,2.29,25.91,7.22,36.14,27.7,52.36,6.38,5.15,12.9,10.2,19.22,15.47,5.21,4.32,10.55,8.92,14.81,14.22,11.16,13.15,17.07,31.16,13.29,48.2h0Z" style="fill: #3a3632;"/>
    <path d="M1542.94,1412.06c.66,5.91-2.4,11.76-7.03,15.4-5.79,4.79-13.57,6.43-20.96,6.38-7.32,.26-22.67,.82-30.26,1.09-328.43,9.95-657.3,10.09-985.72-.61l-8.65-.31-4.32-.16c-7.39,.04-15.19-1.59-20.96-6.39-4.62-3.64-7.72-9.49-7.03-15.41-.02,12.05,12.88,19.06,23.72,18.57,322.62-11.06,645.71-11.1,968.38-2.31,21.03,.57,48.1,1.59,69.13,2.31,10.82,.49,23.78-6.53,23.72-18.58h0Z" style="fill: #3a3632;"/>
    <path d="M1586.16,828.4c6.53,14.29,8.94,29.97,6.53,45.71-3,20.44-20.01,34.71-35.45,46.34-5.1,3.88-12.98,9.54-17.91,13.46-6.86,5.71-12.67,12.71-16.8,20.64-2.9,5.71-5.01,11.88-6.13,18.19-.52,2.68-.82,5.7-1.14,8.43-.32-1.87-.62-3.78-.84-5.69-1.79-17.96,6.01-35.89,19.02-48.14,8.05-7.38,18.11-14.73,26.46-21.72,8.22-6.79,16.41-14,21.36-23.52,4.98-9.62,6.26-20.31,6.57-31.3,.36-7.49-.62-14.98-1.67-22.41h0Z" style="fill: #3a3632;"/>
    <g>
      <path d="M677.4,950.51c-19.8-.42-35.91-14.54-35.91-31.52s16.11-30.32,35.91-29.78c19.73,.54,35.67,14.65,35.67,31.52s-15.94,30.21-35.67,29.78Z" style="fill: #e2c4a6;"/>
      <path d="M677.4,950.51c-23.41-.16-46.11-20.82-36.09-45.19,13.07-28.85,58.46-27.45,71.48,.72,10.86,24.66-11.26,45.32-35.39,44.47h0Zm0,0c22.12,.82,42.23-20.08,29.2-41.13-12.73-19.37-46.22-20.76-59.07-.88-4.27,6.68-4.68,15.47-1.35,22.8,5.3,11.88,18.37,18.95,31.23,19.21h0Z" style="fill: #3a3632;"/>
    </g>
    <g>
      <path d="M1006.12,871.04c-16.6,.05-30.1-11.56-30.1-25.92s13.5-25.98,30.1-25.95c16.55,.03,29.93,11.64,29.93,25.92s-13.38,25.9-29.93,25.95Z" style="fill: #e2c4a6;"/>
      <path d="M1006.12,871.04c-20.13,.38-39.13-17.22-30.62-38.02,10.82-24.91,50.03-25.04,61.01-.2,8.68,20.77-10.23,38.48-30.38,38.22h0Zm0,0c18.25,.27,34.97-17.7,24.15-34.96-10.71-15.9-37.95-15.86-48.56,.13-10.67,17.38,6.12,35.17,24.42,34.83h0Z" style="fill: #3a3632;"/>
    </g>
    <g>
      <path d="M1280.98,1087.45c-14.48,.33-26.24-9.3-26.24-21.5s11.77-22.32,26.24-22.59c14.44-.27,26.12,9.36,26.12,21.5s-11.68,22.26-26.12,22.59Z" style="fill: #e2c4a6;"/>
      <path d="M1280.98,1087.45c-17.66,.71-34.65-13.96-26.9-32.42,9.49-21.47,44.05-22.5,53.84-.75,7.55,18.19-9.71,33.09-26.94,33.17h0Zm0,0c6.31-.17,12.61-2.51,17.16-6.71,6.56-5.66,8.88-16.06,3.57-23.14-9.58-12.91-32.14-12.04-41.5,.75-9.89,14.81,5.15,29.76,20.76,29.1h0Z" style="fill: #3a3632;"/>
    </g>
    <g>
      <path d="M929.56,1258.98c-6.97-.03-12.62-4.71-12.62-10.46s5.65-10.37,12.62-10.33c6.96,.04,12.59,4.73,12.59,10.46s-5.63,10.36-12.59,10.33Z" style="fill: #e2c4a6;"/>
      <path d="M929.56,1258.98c-8.84,.19-18.05-6.72-14.54-16.43,3.8-10.07,18.08-12.34,25.58-5.08,4.53,3.93,5.79,11.6,1.74,16.19-3.13,3.8-8.17,5.31-12.78,5.32h0Zm0,0c5.46,.22,11.8-4.6,10.08-10.36-2.55-7.17-17.72-7.35-20.21-.07-1.63,5.77,4.66,10.59,10.13,10.43h0Z" style="fill: #3a3632;"/>
    </g>
    <g>
      <path d="M1060.87,1130.88c-11.2,.07-20.3-7.49-20.3-16.88s9.1-17.03,20.3-17.06c11.18-.03,20.23,7.52,20.23,16.88s-9.05,16.99-20.23,17.06Z" style="fill: #e2c4a6;"/>
      <path d="M1060.87,1130.89c-13.72,.34-27.36-10.96-21.55-25.56,7.46-17.61,35.46-17.83,43.04-.19,5.85,14.55-7.82,25.93-21.49,25.75h0Zm0,0c9.15,.19,19.27-7.32,17.72-17.06-3.07-14.04-25.11-15.44-33.13-5.18-4.27,5.09-2.85,13.01,2.13,17.3,3.49,3.23,8.41,4.96,13.28,4.94h0Z" style="fill: #3a3632;"/>
    </g>
    <g>
      <path d="M618.14,1289.87c-14.18-.36-25.71-9.96-25.71-21.44s11.53-20.46,25.71-20.05c14.15,.41,25.59,10.01,25.59,21.44s-11.44,20.41-25.59,20.05Z" style="fill: #e2c4a6;"/>
      <path d="M618.14,1289.87c-16.48-.14-34.09-13.67-26.53-31.52,9.68-20.52,43.07-19.42,52.61,.66,8.1,18.16-8.96,31.58-26.08,30.87h0Zm0,0c8.87,.25,18.46-4.09,22.05-12.41,3.44-7.63-.9-16.01-7.69-19.91-10.54-6.35-26.77-5.9-34.79,4.21-5.3,6.69-2.62,16.69,3.79,21.87,4.5,3.92,10.57,6.07,16.65,6.25h0Z" style="fill: #3a3632;"/>
    </g>
    <g>
      <path d="M1194.68,1379.6c-11.12,9.18-29.42,9.23-40.85,.08-11.43-9.15-11.6-23.99-.42-33.13,11.15-9.11,29.38-9.1,40.75,0,11.37,9.1,11.62,23.88,.53,33.04Z" style="fill: #e2c4a6;"/>
      <path d="M1194.68,1379.6c-13.79,11.06-37.08,10.74-48.82-3.43-5.29-6.29-6.66-15.92-3.22-23.55,4.81-11.3,17.92-17.6,29.51-17.17,14.7,.08,30.67,10.5,31.27,26.06,.25,7.09-3.32,13.75-8.73,18.09h0Zm0,0c5.24-4.35,8.56-11.12,7.36-17.96-1.53-9.86-11.16-16.13-20.42-17.38-8.68-1.32-18.54,.8-25.13,6.24-9.8,7.77-8.9,20.9,.96,28.73,10.1,8.33,26.79,8.99,37.23,.37h0Z" style="fill: #3a3632;"/>
    </g>
    <g>
      <path d="M1368.47,1293.86c-11.99,.34-21.72-7.38-21.72-17.25s9.74-18.1,21.72-18.4c11.96-.3,21.64,7.42,21.64,17.25s-9.68,18.06-21.64,18.4Z" style="fill: #e2c4a6;"/>
      <path d="M1368.47,1293.86c-14.69,.68-29.23-10.94-22.69-26.58,7.96-18,37.25-19.06,45.5-.75,6.32,15.31-8.62,27.22-22.81,27.33h0Zm0,0c9.68-.06,20.45-7.86,19.11-18.22-2.9-15.3-27.38-15.85-35.73-4.94-4.62,5.54-3.18,13.78,2.35,18.31,3.81,3.33,9.09,4.98,14.26,4.84h0Z" style="fill: #3a3632;"/>
    </g>
    <g>
      <path d="M1279.31,785.44c-10.25,.22-18.56-6.83-18.56-15.77s8.32-16.34,18.56-16.54c10.23-.2,18.52,6.86,18.52,15.77s-8.29,16.31-18.52,16.54Z" style="fill: #e2c4a6;"/>
      <path d="M1279.31,785.44c-13.06,.49-25.04-10.49-19.99-24.07,6.68-17.13,33.25-17.85,40.1-.47,4.89,13.39-7.4,24.49-20.11,24.54h0Zm0,0c10.86,.05,20.91-11.51,13.83-21.37-7.6-9.71-26.9-7.28-29.9,5.47-1.81,9.02,7.46,16.36,16.07,15.9h0Z" style="fill: #3a3632;"/>
    </g>
    <g>
      <path d="M716.75,744.7c-9.18-.19-16.64-6.86-16.64-14.91s7.46-14.4,16.64-14.19c9.17,.21,16.59,6.89,16.59,14.91s-7.42,14.38-16.59,14.19Z" style="fill: #e2c4a6;"/>
      <path d="M716.75,744.7c-11.49-.01-22.63-10.05-18.41-22.19,4.76-13.09,23-15.69,32.42-6.12,11.9,12.41,1.97,28.76-14,28.31h0Zm0,0c7.71,.42,15.93-6.33,14.06-14.35-3.15-12.46-25.21-13.42-28.2-.41-1.52,7.99,6.42,14.8,14.14,14.76h0Z" style="fill: #3a3632;"/>
    </g>
  </g>
  <g>
    <path d="M944.17,1492.31c-15.48-57.84-57.01-77.79-128.77-75.97-74.52,1.9-148.46-2.16-219.93-12.05-7.43-1.03-15.02-2.17-21.1-5.32-17.65-9.14-15.3-30.57-6.29-46.98,8.93-16.26,22.89-31.84,24.23-48.51,1.92-23.84-22.15-41.28-44.31-55.61-30.14-19.5-59.92-38.75-89.33-57.78-29.82-19.29-61.17-41.48-60.14-71.81,1.53-44.91,71.35-79.64,92.71-122.02,23.52-46.66-13.86-98.04,29.43-136.27,23.03-20.34,62.12-29.55,88.46-47.52,28.72-19.6,38.01-46.3,49.84-70.59,11.64-23.91,30.74-49.51,66.41-59.78,15.44-4.44,32.26-5.45,48.37-8.33,81.51-14.59,123.46-70.26,189.47-101.17,10.59-4.96,22.51-9.45,35.56-10.22,20.12-1.19,38.14,6.72,50.73,15.96,12.68,9.3,22.17,20.37,36.94,28.71,27.9,15.76,68.88,19.08,106.84,23.85,38.14,4.79,79.93,13.77,98.14,35.41,19.29,22.92,5.39,52.46,23.97,76.58,25.79,33.48,96.12,39.29,147.77,59.08,58.84,22.55,97.1,69.06,92.06,113.84-3.24,28.7-22.54,56.72-14.28,86.64,7.35,26.63,35.07,49.53,57.57,73.59,20.51,21.93,37.61,46.49,41.89,72.39,4.35,26.3-6.25,54.13-34.07,69.99-33.78,19.26-91.51,22.54-101.94,54.3-4.17,12.7,1.16,26.72-.72,40.05-3.59,25.47-33.13,44-65.44,51.78-32.41,7.81-67.72,7.16-102.04,9.29-98.35,6.11-242.07,10.07-243.43,110.29l-148.59,8.15Z" style="fill: #82c14c; stroke: #3a3632; stroke-linecap: round; stroke-linejoin: round; stroke-width: 19.4px;"/>
    <path d="M955.89,1483.31c-12.44-73.85-113.24-164.34-210.8-170.41-28.93-1.8-63.88-1.51-76.67-18.62-10.05-13.45-.8-31.25,.28-47.12,2.15-31.66-28.85-55.78-61.63-73.53-22.87-12.38-49.04-24.92-52.65-45.23-3.5-19.67,15.39-40.01,29.3-59.2,17.1-23.58,27.53-48.17,30.71-72.03,2.49-18.66,1.66-38.8,20.99-54.32,14.06-11.3,35.72-17.42,53.39-26.31,69.54-34.99,62.43-101.91,127.39-136.14,35.93-18.93,87.48-24,119.25-44.71,18.49-12.05,29.19-28.77,53.06-36.19,25.68-7.98,55.33-1.54,77.7,7.14,51.45,19.95,90.04,51.41,147.71,67.67,24.26,6.84,51.69,10.92,72,21.54,33.45,17.5,40.22,48.84,72.75,68.13,30.26,17.94,81.68,25.22,94.04,50.7,8.36,17.24-5.48,35.47-11.34,53.56-8.38,25.85,.38,54.15,24.1,76.62,15.48,14.66,36.71,26.66,52.51,41.57,41.28,38.93,33.69,101.84-27.96,128.4-36.4,15.68-84.44,17.15-117.63,36.46-35.24,20.51-48.09,58.13-89.9,72.95-29.3,10.38-63.63,6.03-95.9,8.73-76.92,6.43-100.26,85.41-99.69,143.14l-131.01,7.19Z" style="fill: url(#radial-gradient); opacity: .5;"/>
    <g>
      <path d="M1477,1083.24c-35.28,3.52-64,25.38-90.09,47.93-43.93,38-73.69,62.53-133.49,70.67-23.15,3.68-44.59,5.32-66.22,12.5-29.73,9.89-54.43,28.13-76.19,51.47-31.83,32.22-54.43,71.15-76.52,111.01l-58.46-34.53c19.72-31.09,40.86-63.01,65.29-91.48,25.2-30.75,56.35-57.4,92.83-74.35,39.69-18.57,72.78-18.8,114.7-19.95,22.4-.73,42.39-3.37,62.62-12.24,53.48-22.61,102.42-73.5,165.48-67.16l.04,6.13h0Z" style="fill: #82c14c;"/>
      <path d="M1351.69,860.8c-14.77,41.18-75.21,60.75-109.21,83.47-10.19,6.54-19.91,13.69-27.77,22.78-8.88,10.16-15.03,20.34-24.61,31.75-13.18,16.31-31.36,28.88-49.77,38.46-12.55,6.64-25.39,12.45-37.84,18.42-11.66,5.25-23.04,10.4-33.86,17.17-13.96,8.6-36.09,23.27-42.28,37.6-.2,.63-.24,1.04-.21,1.18l-56.75-12.86c1.91-7.89,5.34-14.95,9.52-21.33,16.07-23.46,39.48-38.17,63.09-51.37,12.91-6.82,26.26-13.4,39.79-18.8,12.41-4.73,25.58-9.29,37.38-14.26,14.51-6.18,27.75-12.68,39.3-23.72,9.11-8.51,19.31-20.61,29.83-29.55,19.05-16.54,42.98-25.81,66.13-33.65,25.24-8.85,51.8-14.95,74.25-29.57,7.2-4.77,13.54-10.67,18.27-17.98l4.74,2.26h0Z" style="fill: #82c14c;"/>
      <path d="M1228.92,749.56c12.03,30.33-8.73,61.49-18.73,88.92-5.58,14.64-8.65,27.53-4.84,43.04,3.32,14.87,8.52,30.86,8.56,47.12-.71,36.39-11.42,64.26-40.31,87.63-5.46,4.51-11.05,8.5-16.68,12.16l-25.05-41.52c9.11-4.95,17.26-10.6,23.31-16.74,6.08-6.3,9.86-12.43,12.12-21.02,1.34-5.98,2.77-15.14,3.97-22.01,1.38-13.54-1.97-26.85-2.52-41.28-3.13-45.92,26.8-68.56,47.72-103.49,4.14-7.26,7.25-14.95,8.12-23.26,.27-2.77,.31-5.6,.09-8.47l4.25-1.07h0Z" style="fill: #82c14c;"/>
      <path d="M588.52,985.91c10.69,31.03,70.12,64.21,100.69,73.63,2.36,.72,4.92,1.39,7.34,1.91,20.18,4.65,39.4,8.76,59.05,17.13,18.6,7.85,36.21,20.07,47.87,37.21,6.86,9.89,11.24,20.57,17.15,29.12,3.51,4.81,5.43,6.18,9.81,8.41,5.5,2.57,10.7,3.89,17.52,5.48,8.83,2.12,22.49,4.73,31.63,6.55,24.71,4.82,50.06,10.78,72.48,26.08,11.82,7.94,22.56,16.72,31.84,27.93,9.17,10.97,16.29,24.03,21.54,36.83,5,12.21,8.67,23.74,12.02,34.99l-62.34,16.4c-4.47-18.46-7.94-35.61-18.52-50.56-3.38-4.64-7.88-9.14-12.55-13.01-1.55-1.31-3.35-2.73-5.02-3.95-19.09-12.58-45.64-18.68-68.56-25.17-15.71-4.49-31.63-9.05-46.08-18.28-16.95-10.7-26.03-27.18-32.57-44.76-2.01-5.14-3.76-9.56-5.52-13.02-8.06-15.95-24.42-26.51-40.77-34.74-13.25-6.71-27.72-12.38-41.56-18.12-12.6-5.29-24.25-12.44-34.99-19.9-23.95-16.93-61.61-49.04-66.15-78.99l5.7-1.17h0Z" style="fill: #82c14c;"/>
      <path d="M742.7,770.96c-3.48,22.49,15.62,38.9,30.83,52.56,12.57,11.21,26.08,24.2,32.63,40.74,3.85,8.73,4.95,20.38,4.81,29.29,.14,6.11-.31,12.38,1.63,16.93,4.27,8.92,30.65,11.84,41.83,14.51,8.25,1.67,16.61,3.76,24.68,6.26,12.34,3.68,24.27,8.56,35.59,14.7,11.61,5.96,22.75,12.48,33.38,20.27,14.55,10.54,28.15,23.19,39.19,37.6l-47.33,33.86c-11.68-18.25-30.82-34.02-50.17-44.96-13.63-6.99-27.5-13.74-42.12-18.43-18.32-5.83-38.9-10.04-55.28-22.51-9.78-7.14-18.43-19.7-20.27-32.05-1.84-10.51-.28-19.96,1.31-29.03,1.07-6.53,1.91-10.27,.99-16.36-.93-5.78-3.46-11.55-6.42-16.99-7.07-12.89-17.9-25.48-25.04-38.92-7.87-14.38-13.33-33.78-5.21-49.16l4.97,1.69h0Z" style="fill: #82c14c;"/>
      <path d="M883.43,668.5c10.05,9.91,11.21,26.23,17.41,37.79,3.56,6.45,8.75,9.04,14.96,12.05,7.49,3.5,16.51,6.77,24.22,10.59,12.99,6.11,25.49,13.19,37.58,20.93,6.19,3.74,11.61,8.54,17.48,12.74,.74,.58,3.57,2.69,4.34,3.3,18.82,15.42,32.76,37.26,37.16,61.51l-48.01,6.85c-.06-.96-.29-2.44-.61-3.87-2.49-11.12-8.53-21.23-16.89-29.14l-4.45-4.13c-3.12-2.96-6.48-5.64-9.89-8.27-13.09-11.41-26.69-22.37-40.72-32.7-15.14-11.28-32.34-23.62-34.95-43.94-1.94-12.41,1.35-23.26,.06-35.12-.27-2.09-.72-4.17-1.4-6.25l3.7-2.34h0Z" style="fill: #82c14c;"/>
      <path d="M590.54,1126.78c30.25,9.67,61.7,12.64,93.08,15.46,39.66,3.56,82.61,5.79,121.85,12.35,21.38,4.1,41.81,7.71,62.96,14.59l-16.97,45.43c-11.83-5.12-25.3-9.39-38.3-12.84-5.39-1.46-10.82-2.87-16.34-3.88-13.94-2.95-27.63-6.6-41.74-9.58-48.48-11.35-98.36-22.2-143.37-44.1-7.99-3.9-15.87-8.48-23.16-13.52l1.98-3.9h0Z" style="fill: #82c14c;"/>
    </g>
    <g>
      <path d="M946.98,1182.17c-9.08-111.58-9.68-211.56,30.32-306.01,25.62-60.49,24.38-132.34,22.26-189.38-1.75-47.1-5.49-70.09,7.43-98.01,20.09,39.27,23.8,106.46,31.21,163.29,3.57,27.36,14.28,60.48,9.3,89.04-5.32,30.53-19.14,60.85-26.26,92.48-18.21,80.82,7.74,166.33,19.62,256.16,11.46,86.61,41.43,286.63,41.43,286.63l-129.94,7.13s3.75-189.07-5.38-301.34Z" style="fill: #c3ef95;"/>
      <path d="M1476.99,1083.1c-46.54,5.12-80.49,36.1-117.78,62.63-20,14.16-41.63,27.06-65.64,34.65-43.32,13.71-89.63,9.99-130.54,29.27-18.36,8.19-35.1,19.43-50.3,32.78-16,13.41-30.68,28.56-43.69,45.25-13.44,16.84-25.91,35.03-38.16,53.92l-55.66-38.87c21.35-28.5,44.49-57.83,70.8-82.99,17.9-18.05,38.37-33.84,60.97-46.05,22.79-12.55,48.01-21.49,73.76-25.46,24.27-3.77,48.02-3.22,71.46-4.21,33.13-.51,60.8-8.82,91.33-24.48,40.33-20.45,85.55-47.62,133.37-42.57l.08,6.13h0Z" style="fill: #c3ef95;"/>
      <path d="M1351.6,860.97c-15.75,36.3-77,55.34-109.67,74.75-14.16,7.88-26.08,16.32-36.41,28.48-5.31,5.97-10.86,12.98-17.73,20.15-6.86,7.25-15.47,14.53-23.94,19.94-16.3,10.7-33.68,17.98-50.93,25.34-8.17,3.43-16.03,6.91-23.73,9.85-14.76,5.82-29.33,13.65-42.49,22.13-8.58,5.83-16.6,11.56-21.92,19.01-1.12,1.61-1.23,2.7-.79,1.76l-56.17-15.2c1.36-4.69,3.2-8.75,5.17-12.23,16.46-28.39,54.78-46.89,83.48-59.26,12.45-5.47,25.94-10.4,38.58-14.19,22.6-7.5,44.8-13.69,63.3-28.66,9.32-7.56,20.26-18.63,31.18-26.35,12.09-8.66,25.59-14.72,39.36-19.66,25.17-9,51.06-14.19,76.1-22.76,15.7-5.56,31.61-12.29,42.03-25.71l4.56,2.6h0Z" style="fill: #c3ef95;"/>
      <path d="M1228.55,747.33c10.38,24.72-5.98,50.7-17.23,72.03-7.14,13.66-15.82,28.26-16.55,43.44,.33,17.1,7.55,28.7,9.27,50.01,.48,5.63,.27,12.05-.62,17.88-1.08,8.49-2.61,16.24-5.91,25.5-9.51,28.67-34.97,48.4-60.26,62.27l-22.1-43.17c14.56-6.96,29.88-15.18,38.3-29.02,3.57-5.99,4.41-11.25,6.21-19.03,.57-2.54,1.4-6.31,1.7-7.38,2.86-13.86-3.19-32.68-2.01-50.52,1.45-38.35,34.95-61.99,55.14-90.14,6.41-9.05,10.98-19.48,9.83-30.73l4.23-1.14h0Z" style="fill: #c3ef95;"/>
      <path d="M588.78,981.7c11.06,29.23,77.08,61.29,107.11,67.02,37.61,7.38,79.29,14.41,105.36,46.15,6.93,8.2,12.6,20.2,18.37,27.96,3.99,5.26,7.24,6.75,13.94,9.05,3.48,1.11,7.62,2.11,12.29,3.03,9.53,1.96,19.64,3.67,30.34,5.48,23.51,4.06,47.38,8.25,69.65,21.01,18.16,10.14,35.05,23.68,46.59,41.43,10.46,15.62,17.53,35.42,22.9,52.07l-62,17.66c-2.4-9.75-4.91-19.05-7.92-26.75-2.64-6.79-5.86-13.15-10.63-18.59-7.65-8.61-17.56-15.65-28.66-19.84-13.32-5.45-26.4-9.08-41.31-12.77-10.24-2.59-21.11-5.12-32.29-8.54-13.21-4.17-26.48-9.09-38.06-19.14-10.59-8.73-18.2-23.38-22.89-34.91-2.04-4.7-3.71-8.45-5.48-11.35-6.35-10.67-17.14-18.21-28.16-24.35-15.61-8.55-32.9-14.77-49.62-21.22-32.27-12.03-66.55-36.38-89.09-62.14-7.2-8.77-14.18-18.34-16.12-29.94l5.67-1.31h0Z" style="fill: #c3ef95;"/>
      <path d="M742.39,766.47c-4.47,21.47,18.22,36.49,33.07,47.93,6.03,4.65,12.32,9.49,18.37,15.54,15.74,15.78,20.7,29.97,19.76,51.91,.09,4.68-.07,7.44,1.35,10.42,1.04,1.4,1.75,1.77,3.68,3,12.15,6.65,29.75,8.18,43.97,10.8,20.37,3.24,40.71,8.38,59.34,17.49,27.65,12.44,52.6,29.31,73.3,52.13l-44.48,37.52c-13.19-17.33-31.82-31.8-51.53-41.77-5-2.47-12.9-5.6-18.13-7.85-29.7-12.77-64.59-14.03-89.73-36.96-14.01-13.36-17.38-29.87-13.63-48.11,1-6.54,2.45-10.09,1.76-15.86-.76-5.25-3.42-10.57-6.53-15.39-3.54-5.49-8.05-11.09-12.85-16.79-10.4-12.37-21.01-24.87-25.3-41.03-2.09-8.23-1.57-17.46,2.7-24.91l4.89,1.93h0Z" style="fill: #c3ef95;"/>
      <path d="M883.19,663.15c3.77,3.25,6.64,7.77,8.68,12.37,3.58,7.82,5.22,17.29,9.89,23.62,4.06,5.32,10.37,7.28,16.47,9.67,7.95,2.83,16.92,5.49,25.03,8.86,15.33,6.07,30.24,13.23,44.58,21.39,5.69,3.69,11.47,7.44,17.2,11.08,19.83,13.46,36.17,34.49,40.89,58.74l-47.9,7.59c-.58-5.15-2.97-10.52-5.83-15.07-3.68-6.02-9.4-11.54-15.43-16.06-2.46-1.93-5.08-4.02-7.64-5.77-3.23-2.1-7.48-5.06-10.48-7.36-10.31-7.61-21.25-14.93-32.03-21.98-16.64-11.21-38.55-21.93-44.15-43.11-2.72-10.37-.79-19.56-.73-29.17,0-4.19-.5-8.22-2.09-12.17l3.53-2.59h0Z" style="fill: #c3ef95;"/>
      <path d="M590.22,1126.52c33.74,4.76,67.55,4.54,101.48,4.68,19.41,.15,49.05,.23,68.23,.77,10.14,.39,24.44,.86,34.46,1.41,5.76,.21,11.52,1.27,17.3,1.7,4.97,.36,12.49,1.19,17.48,1.68,11.55,1.17,24.22,3.01,35.69,4.93l-10.82,47.27c-4.75-1.16-10.71-2.89-15.43-3.87-2.81-.58-9.25-1.96-11.92-2.52-4.57-.83-11.65-2.07-16.24-2.88-6.85-1.19-13.82-1.74-20.69-2.79-57.72-9.21-116.72-16.72-172.48-34.93-3.53-1.16-8.94-3.24-12.33-4.43-5.42-2.01-10.75-4.53-16.03-6.86l1.32-4.18h0Z" style="fill: #c3ef95;"/>
    </g>
    <g>
      <path d="M1517.47,1008.15c-12.01,.81-23.62-5.05-31.42-13.98-14.95-16.89-14.89-45.18-.11-63.07,5.06-6.35,12.41-11.84,19.99-13.77,4.13-.95,7.95-2.24,11.84-4.86,2.2-1.49,4.43-3.43,6.91-6.06,2.92,2.12,5.01,5,6.43,8.22,5.98,13.72-.97,25.62-5.41,37.89-.81,3.26-1.6,6.96-2.39,9.89-.73,2.89-1.61,5.74-2.37,8.63-1.62,6.25-2.62,12.91-2.95,19.5-.46,5.83-.24,11.67-.53,17.6h0Z" style="fill: #73aa39;"/>
      <path d="M1469.99,1280.73c-16.52-11.81-22.35-34.98-12.99-53.41,8.92-18.32,28.99-28.7,48.27-30.4,7.55-.75,14.78-.24,22.14,1.03,7.31-.55,14.61-.98,21.84-1.41,10.45-.73,20.82-1,30.97-3.27,3.43-.84,6.69-1.92,9.53-4.27-.52,3.93-3.03,7.48-5.59,10.44-7.9,8.6-18.39,14.67-28.4,19.98-6.66,3.47-13.38,6.54-20.08,9.41l-.63,.27c-1.38,.96-2.77,2.02-4.17,2.93-6.92,4.67-14.7,8.65-21.92,12.1-4.86,2.32-11.04,5.43-15.76,7.42-3.88,1.81-7.12,5.04-10.16,9.1-4.47,5.86-8.64,13.68-13.06,20.08h0Z" style="fill: #73aa39;"/>
      <path d="M617.63,1319.77c-2.07-7.21-3.31-14.04-4.96-20.89-2.28-9.4-4.85-19.15-10.35-25.12-.73-.81-1.48-1.39-2.18-2.17-4.46-5-8.46-8.69-13.93-13.17-8.41-6.74-18.48-12.88-27.87-20.41-5.8-4.73-11.42-9.78-15.71-16.36,3.82-1.74,7.33-3,10.81-4.19,25.92-9.2,55.88-6.05,76.05,14.66,9.85,10,17.01,23.76,17.36,37.8,.66,20.92-11.11,40.33-29.22,49.83h0Z" style="fill: #73aa39;"/>
      <path d="M1287.93,722.96c3.96,5.27,7.42,10.6,11.87,15.34,4.91,5.18,8.06,7.02,13.06,9.12,1.19,.52,2.68,1.08,3.72,1.87,3.19,2.03,6.25,3.91,9.51,5.82,12.51,7.5,25.63,13.68,37.95,22.49,5.43,4.02,10.41,8.1,14.65,13.65-11.13,6.67-22.76,11.3-35.58,12.97-24.04,3.33-51.19-7.2-64.9-27.96-11.51-17.44-8.42-42.33,9.7-53.29h0Z" style="fill: #73aa39;"/>
      <path d="M497.94,1017.62c.56-8.95,2.76-18.21,4.43-26.99,2.15-9.83,2.62-19.2,3.88-29.02,.55-4.79,.97-9.66,1.34-14.64-.15-1-.62-2.55-.7-3.62-.91-8.06,1-15.37,3.88-22.53,2.7-5.91,5.94-12.13,11.56-15.74,1.59,4.28,3.85,7.9,6.1,11.74,1.94,3.32,4.14,6.86,6.17,9.96,1.67,2.35,2.85,4.49,4.79,5.74,.13,.08,.25,.04,.36,.06,.05-.01,.09-.07,.14-.1,.06,0,.02-.17,.2,.07,15.59,16.11,18.35,42.61,6.57,61.93-9.81,16.7-29.62,26.22-48.72,23.13h0Z" style="fill: #73aa39;"/>
      <path d="M633.63,814.85c2.78-15.6,12.97-30.35,15.99-44.81,2.43-12.44,8.29-25.23,17.08-34.71,6.67-9.09,14.95-16.33,25.44-21,6.53-2.74,14.35-4.61,21.24-2.11-1.86,3.13-3,5.94-3.89,8.72-2.92,9.72-4.42,20.04-5.84,29.96-1.38,14.47-5.36,28.52-13.53,40.87-12.76,18.93-34.95,25.93-56.5,23.09h0Z" style="fill: #73aa39;"/>
    </g>
  </g>
  <g>
    <path d="M1185.83,649.54c-73.11-2.59-145.45,7.1-218.27,6.53-55.13-.43-107.4-7.48-162.22,2.32-50.56,9.04-101.56,24.78-150.12,41.17-35.85,12.1-70.98,27.46-101.44,49.44-42.31,30.54-74.6,72.66-97.5,117.99-21.04,41.64-44.44,98.59-37.5,145.75,2.36,16.02,9.73,30.25,14.55,45.61,16.82,53.56,21.36,103.85,63.25,147.1,22.26,22.98,44.23,47.36,72.84,63.33,61.43,34.3,132.77,47.81,203.37,42.63,50.74-3.73,98.14-2.73,148.6,1.85,72.13,6.56,145.12,12.72,217.28,3.62,43.74-5.51,88.41-3.23,132.62-3.22,23.7,0,49.28-.16,71.8-6.89,64.32-19.21,118.81-43.81,162.31-95.01,26.24-30.88,56.9-51.43,75.55-88.47,32.25-64.06,27.76-140.49,4.49-206.57-5.46-15.5-12.08-30.61-19.71-45.16-6.08-11.6-10.93-22.34-19.75-32.44-12.15-13.93-27.18-25.1-39.26-39.28-12.84-15.07-24.49-31.07-38.42-45.27-24.23-24.71-55.07-43.42-88.69-54.13-28.25-9-52.8-22.04-80.42-31.7-30.58-10.69-62.98-16.11-95.39-18.3-5.98-.4-11.98-.7-17.98-.92Z" style="fill: #e58c77; stroke: #3a3632; stroke-linecap: round; stroke-linejoin: round; stroke-width: 19.35px;"/>
    <path d="M1181.51,653.87c-71.14-2.51-141.53,6.81-212.39,6.25-53.64-.43-104.51-7.23-157.85,2.2-49.2,8.69-98.82,23.85-146.07,39.63-34.88,11.65-69.07,26.43-98.7,47.6-41.16,29.4-72.57,69.97-94.85,113.63-20.47,40.11-43.22,94.95-36.46,140.39,2.3,15.44,9.47,29.14,14.17,43.93,16.38,51.59,20.81,100.03,61.58,141.7,21.66,22.14,43.05,45.63,70.89,61.02,59.78,33.05,129.2,46.08,197.91,41.1,49.37-3.58,95.5-2.61,144.59,1.81,70.19,6.33,141.21,12.28,211.43,3.53,42.56-5.3,86.02-3.09,129.05-3.07,23.06,0,47.95-.14,69.87-6.62,62.58-18.49,115.6-42.18,157.92-91.48,25.52-29.74,55.36-49.53,73.5-85.2,31.37-61.7,26.98-135.32,4.33-198.97-5.31-14.93-11.76-29.48-19.18-43.51-5.91-11.17-10.65-21.52-19.22-31.25-11.83-13.42-26.46-24.18-38.21-37.84-12.5-14.52-23.84-29.93-37.4-43.61-23.58-23.8-53.59-41.83-86.31-52.16-27.49-8.67-51.38-21.24-78.26-30.55-29.76-10.3-61.29-15.53-92.83-17.64-5.82-.39-11.66-.68-17.5-.89Z" style="fill: #f8c0c7;"/>
    <g>
      <path d="M730.72,722.6c-20.71,8.73-41.9,20.54-51.29,40.2-9.39,19.65-.1,48.22,22.19,52.02,15.59,2.66,30.16-6.97,45.01-12.23,14.49-5.13,30.21-6.17,45.67-6.21,24.13-.06,48.27,2.19,71.93,6.7,14.2,2.71,30.66,8.48,33.92,21.93,2.77,11.43-8.14,23.9-20.43,23.35-.76,15.2,20.04,22.97,35.73,20.22s30.57-11.19,46.46-9.74c12.76,1.16,23.82,8.54,34.23,15.68,16.71,11.46,34.17,23.78,42.39,41.78,1.32,2.88,2.36,6.25,.95,9.1-1.23,2.48-4,3.89-6.66,4.92-16.57,6.44-35.14,5.1-52.98,6.37-42.6,3.02-83.85,22.25-111.93,52.96-1.84,2.01-3.67,4.16-4.34,6.74-.87,3.35,.37,6.88,2.11,9.91,7.37,12.82,23.22,19.35,38.49,20.62s30.52-1.76,45.75-3.38c22.02-2.33,45.68-1.33,64.28,10.17,18.59,11.5,29.53,36.19,18.93,54.76-4.45,7.8-12,13.62-20.09,18.01-17.15,9.32-36.95,12.98-56.36,16.41-19.71,3.48-39.96,6.88-59.68,3.46-25.1-4.35-47.4-19.43-72.78-21.86-24.91-2.38-48.98,7.69-72.69,15.33-21.19,6.83-43.59,12.12-61.37,25.07s-29.67,36.46-20.61,55.97c8.64,18.61,31.87,26.21,52.9,29.68,30.65,5.06,63.33,6.02,89.86,21.51,9.12,5.32,17.26,12.25,27.08,16.29,11.19,4.61,23.69,5.11,35.87,5.56l91.43,3.31c5.17,.19,10.45,.36,15.42-1.01,15.79-4.37,22.75-23.98,16.91-38.64-5.84-14.66-20.88-24.37-36.46-29.37-15.58-5-32.19-6.21-48.27-9.47-16.08-3.26-32.46-9.07-43.15-20.99,30.22-23.49,73.93-18.85,112.52-13.58,38.59,5.27,82.94,8.32,111.45-17.04,28.71-25.53,27.71-71.94,5.93-103.09-21.78-31.15-59.2-49.22-96.87-59.72-3.25-.91-6.67-1.85-9.05-4.16-7.63-7.41,2.41-19.92,12.96-22.46,10.56-2.54,22.82-1.21,31.17-7.86,6.26-4.99,8.48-13.2,9.3-20.94,4.99-47.17-35.69-94.37-85.16-98.82-3.05-.27-6.18-.42-8.99-1.59-6.44-2.66-9.47-10.3-8.21-16.88,1.26-6.59,5.96-12.15,11.34-16.45,14.82-11.87,34.63-15.81,52.93-21.78,18.31-5.97,37.37-15.99,43.68-33.44,6.16-17.03-2.41-36.6-16.8-48.27-14.39-11.67-33.46-16.69-52.18-19.05-24.78-3.12-50.13-2.14-74.57,2.91-17.37,3.58-34.35,9.21-52.04,10.8-22.95,2.07-48.32-2.63-68.34,10.47-18.09,11.83-37.14,17.26-57.47,25.83Z" style="fill: #fad0d9;"/>
      <path d="M1247.37,707.27c-30.54-9.6-64.89-7.66-94.03,5.32-7.4,3.3-14.69,7.46-19.47,13.78s-6.54,15.23-2.5,22c2.22,3.72,5.88,6.42,9.57,8.84,25.53,16.72,57.46,24.32,88.23,21.02,10.29-1.1,20.52-3.38,30.86-2.89,17.84,.85,34.97,10.53,44.31,25.06,6.08,9.44,8.48,22.64,.89,31.03-4.38,4.84-11.09,7.01-16.66,10.57-5.56,3.57-10.34,10.18-7.69,16.05,1.05,2.33,3.11,4.1,5.27,5.56,17.67,11.95,41.74,6.8,63.3,8.81,14.77,1.38,29.14,6.44,41.31,14.54,14.47,9.64,26.27,28.07,17.71,42.79-3.96,6.82-11.69,11.5-14.1,18.95-3.45,10.67,6.34,21.9,17.63,24.86s23.25,0,34.54-2.94c17.45-4.54,34.89-9.09,52.34-13.63,4.64-1.21,9.39-2.43,14.18-2.08,9.88,.71,17.76,7.73,26.38,12.39s21.39,6.18,26.89-1.68c2.23-3.18,2.65-7.19,2.68-11.02,.22-29.5-21.5-57.94-51-66.8-8.24-2.47-17.26-3.7-23.95-8.92-5.27-4.11-8.36-10.17-11.29-16.02l-14.67-29.33c-1.35-2.7-2.8-5.52-5.34-7.28-2.61-1.81-5.98-2.23-9.2-2.48-16.63-1.27-33.52,.66-49.37,5.65-15.75,4.96-34.19,12.58-47.53,3.18-10.08-7.11-11.15-23.18-2.08-31.44,10.01-9.12,29.1-9.48,33.06-22.13,2.31-7.36-2.27-15.01-7.36-20.96-19.39-22.7-49.51-36.71-80.2-37.32-11.44-.23-23.2,1.28-34.12-1.97-8.19-2.43-15.33-7.39-23.44-10.06-9.93-3.27-21.13-2.9-30.78,1.04" style="fill: #fad0d9;"/>
      <path d="M545.14,893.97c-23.24,3.63-44.76,16.46-58.34,34.81-4.02,5.43-7.46,11.62-7.52,18.27-.19,18.43,24.02,29.19,27.91,47.24,3.75,17.38-12.47,32.7-16.08,50.11-1.52,7.31-.74,14.95,1.54,22.07,5.48,17.11,20,31.35,37.78,37.03,14.44,4.62,31.37,4.24,42.86,13.77,6.03,5,9.85,12.28,16.55,16.45,8.24,5.12,20.12,4.05,27.2-2.46,7.08-6.51,8.65-17.8,3.59-25.84-2.71-4.3-6.92-7.52-11.14-10.51-13.1-9.27-27.37-17.41-38.06-29.16-10.69-11.75-17.34-28.42-11.8-43.06,6.49-17.14,26.61-25.45,45.1-30.03,12.74-3.16,27.45-5.15,38.11,2.23,8.8,6.09,12.23,16.79,16.94,26.14,4.71,9.35,13.19,18.9,24.03,18.13,6.17-.43,11.53-4.22,15.76-8.52,8.65-8.77,14.14-20.31,15.37-32.29,.49-4.73,.25-9.78-2.39-13.82-2.4-3.67-6.46-6.01-10.41-8.13-18.86-10.13-38.81-18.41-59.44-24.68-12.37-3.75-27.37-9.31-28.82-21.61-1.27-10.7,9.13-19.79,9.8-30.54,.19-3.1-.56-6.43-2.87-8.61-1.68-1.59-3.99-2.41-6.24-3.1-32.63-10.02-70.67-1.79-95.57,20.69" style="fill: #fad0d9;"/>
      <path d="M1320.24,1031.54c-8.58-.93-18.41-.52-24.19,5.59-5.32,5.62-5.31,14.27-3.05,21.53,4.16,13.35,14.41,24.03,22.5,35.63,8.1,11.59,14.31,26.2,9.16,39.24-6.09,15.43-25.4,22.01-42.65,22.87s-35.03-1.98-51.56,2.84c-12.19,3.55-23.22,11.59-28.54,22.64-5.32,11.05-4.17,25.08,4.12,34.32,8.29,9.24,23.81,12.27,34.54,5.71,6.53-4,10.64-10.69,16.17-15.88,15.14-14.2,41.97-14.87,57.87-1.44,5.73,4.84,10.84,11.53,18.44,12.3,4.64,.48,9.14-1.45,13.37-3.32,17.02-7.54,35.85-17.04,40.9-34.28,1.23-4.18,1.65-8.82,4.61-12.11,1.58-1.75,3.75-2.94,5.99-3.82,15.37-6.08,34.07,.72,49.07-6.16,5.79-2.65,10.43-7.12,14.6-11.78,10.66-11.89,19.09-25.6,24.77-40.28,2.26-5.83,4.09-12.19,2.41-18.2-2.12-7.59-9.27-12.77-15.96-17.36-12.08-8.27-24.62-16.74-39.18-19.6-14.55-2.87-31.76,1.42-39.12,13.74,7.61-12.74-68.56-31.56-74.3-32.18Z" style="fill: #fad0d9;"/>
    </g>
  </g>
  <g>
    <path d="M1556.6,838.26c-8.65,6.93-22.97,12.2-21.38,38.01l24.61,374.63-2.33,85.67c1.09,17.67-16.01,32.04-38.19,32.04H490.71c-22.18,0-39.27-14.37-38.19-32.04l-2.33-85.68,24.75-371.69c1.76-28.59-17.93-34.88-24.85-40.67-30.82-26.02-46.74-38.28-48.45-75.69-.26-5.74-.19-67.56,.22-73.25,9.74-136.6,285.84-248.63,603.18-248.63,97.19,0,189.91,10.47,272.28,28.7,176.53,44.67,301.71,117.78,326.52,197.53,2.11,7.39,3.82,65.73,4.36,73.3,3.21,45.34-13.65,67.12-51.58,97.75Z" style="fill: #e2c4a6; stroke: #3a3632; stroke-miterlimit: 10; stroke-width: 20px;"/>
    <path d="M487.2,1267.89c-14.26,0-25.33-9.04-24.66-20.12l27.8-433.08c1.9-31.68-20.71-50.07-28.12-56.09-33.17-27.23-49.62-34.99-46.88-74.16,2.16-30.91,19.49-61.09,51.37-89.71,31.15-27.97,74.58-53.15,129.03-74.9,54.66-21.83,117.29-38.95,186.24-50.93,71.54-12.44,146.53-18.73,223.06-18.73,92.04,0,184.79,9.56,268.53,27.71,85.56,21.24,159.97,49.5,215.17,81.83,27.52,16.11,50.18,33.16,67.34,50.66,17.27,17.62,28.93,35.71,34.63,53.76,2.35,8.15,3.59,14.42,4,20.34,2.89,41.67-14.59,50.93-50.09,78.8-9.96,7.76-26.52,25.1-24.81,53.64l27.67,430.88c.66,11.08-10.4,20.12-24.66,20.12H487.2Z" style="fill: #ffedd9;"/>
    <path d="M490.34,814.69c-1.92-19.94-11.41-36.06-26.73-48.72-4.21-3.48-10.92-8.65-15.31-12.18-24.89-19.68-40.69-35.22-32.96-69.35,2.47,28.98,8.97,37.83,31.51,55.4,5.12,4.12,10.35,8.2,15.4,12.43,5.21,4.32,10.55,8.92,14.81,14.22,11.16,13.15,17.07,31.16,13.29,48.2h0Z" style="fill: #3a3632;"/>
    <path d="M1547.47,1247.77c.66,5.91-2.4,11.76-7.03,15.4-5.79,4.79-13.57,6.43-20.96,6.38-7.32,.26-22.67,.82-30.26,1.09-328.43,9.95-657.3,10.09-985.72-.61l-8.65-.31-4.32-.16c-7.39,.04-15.19-1.59-20.96-6.39-4.62-3.64-7.72-9.49-7.03-15.41-.02,12.05,12.88,19.06,23.72,18.57,322.62-11.06,645.71-11.1,968.38-2.31,21.03,.57,48.1,1.59,69.13,2.31,10.82,.49,23.78-6.53,23.71-18.58h0Z" style="fill: #3a3632;"/>
    <path d="M1590.7,664.11c6.53,14.28,8.94,29.97,6.53,45.71-3,20.44-20.01,34.71-35.45,46.34-5.1,3.88-12.98,9.54-17.91,13.46-6.86,5.71-12.67,12.71-16.8,20.64-2.9,5.71-5.01,11.88-6.13,18.19-.52,2.68-.83,5.7-1.14,8.43-.32-1.87-.62-3.78-.84-5.69-1.79-17.96,6.01-35.89,19.02-48.14,8.05-7.38,18.11-14.73,26.46-21.72,8.22-6.79,16.41-14,21.36-23.52,4.98-9.62,6.26-20.31,6.57-31.3,.36-7.49-.62-14.98-1.67-22.41h0Z" style="fill: #3a3632;"/>
    <g>
      <path d="M681.94,786.22c-19.8-.42-35.91-14.54-35.91-31.52s16.11-30.32,35.91-29.78c19.73,.54,35.67,14.65,35.67,31.52s-15.94,30.21-35.67,29.78Z" style="fill: #e2c4a6;"/>
      <path d="M681.94,786.22c-23.41-.16-46.1-20.82-36.09-45.19,13.07-28.85,58.46-27.45,71.48,.72,10.86,24.66-11.26,45.32-35.39,44.47h0Zm0,0c22.12,.82,42.23-20.08,29.2-41.13-12.73-19.37-46.22-20.76-59.07-.88-4.27,6.68-4.68,15.47-1.35,22.8,5.3,11.88,18.37,18.95,31.23,19.21h0Z" style="fill: #3a3632;"/>
    </g>
    <g>
      <path d="M1010.66,706.75c-16.6,.05-30.1-11.56-30.1-25.92s13.5-25.98,30.1-25.95c16.55,.03,29.93,11.64,29.93,25.92s-13.38,25.9-29.93,25.95Z" style="fill: #e2c4a6;"/>
      <path d="M1010.66,706.75c-20.13,.38-39.13-17.22-30.62-38.02,10.82-24.91,50.03-25.04,61.01-.2,8.68,20.77-10.23,38.48-30.38,38.22h0Zm0,0c18.25,.27,34.97-17.7,24.15-34.96-10.71-15.9-37.95-15.86-48.56,.13-10.67,17.38,6.12,35.17,24.42,34.83h0Z" style="fill: #3a3632;"/>
    </g>
    <g>
      <path d="M1285.52,923.17c-14.48,.33-26.24-9.3-26.24-21.5s11.77-22.32,26.24-22.59c14.44-.27,26.12,9.36,26.12,21.5s-11.68,22.26-26.12,22.59Z" style="fill: #e2c4a6;"/>
      <path d="M1285.52,923.17c-17.66,.71-34.65-13.96-26.9-32.42,9.48-21.47,44.05-22.5,53.84-.75,7.55,18.19-9.71,33.09-26.94,33.17h0Zm0,0c6.31-.17,12.61-2.51,17.16-6.71,6.56-5.66,8.88-16.06,3.57-23.14-9.58-12.91-32.14-12.04-41.5,.75-9.89,14.83,5.14,29.75,20.76,29.1h0Z" style="fill: #3a3632;"/>
    </g>
    <g>
      <path d="M934.1,1094.69c-6.97-.03-12.62-4.71-12.62-10.46s5.65-10.37,12.62-10.33c6.96,.04,12.59,4.73,12.59,10.46s-5.63,10.36-12.59,10.33Z" style="fill: #e2c4a6;"/>
      <path d="M934.1,1094.69c-8.84,.19-18.05-6.72-14.54-16.43,3.8-10.07,18.08-12.34,25.58-5.08,4.53,3.93,5.79,11.6,1.74,16.19-3.13,3.8-8.17,5.31-12.78,5.32h0Zm0,0c5.46,.22,11.8-4.6,10.08-10.36-2.55-7.17-17.72-7.35-20.21-.07-1.63,5.77,4.66,10.59,10.13,10.43h0Z" style="fill: #3a3632;"/>
    </g>
    <g>
      <path d="M1065.4,966.6c-11.2,.07-20.3-7.49-20.3-16.88s9.1-17.03,20.3-17.06c11.18-.03,20.23,7.52,20.23,16.88s-9.05,16.99-20.23,17.06Z" style="fill: #e2c4a6;"/>
      <path d="M1065.4,966.6c-13.72,.34-27.36-10.96-21.55-25.56,7.46-17.61,35.46-17.83,43.04-.19,5.85,14.55-7.82,25.92-21.49,25.75h0Zm0,0c9.15,.19,19.27-7.32,17.71-17.06-3.07-14.04-25.11-15.44-33.13-5.18-4.27,5.09-2.85,13.01,2.13,17.3,3.49,3.23,8.41,4.96,13.28,4.94h0Z" style="fill: #3a3632;"/>
    </g>
    <g>
      <path d="M622.67,1125.58c-14.18-.36-25.71-9.96-25.71-21.44s11.53-20.46,25.71-20.05c14.15,.41,25.59,10.01,25.59,21.44s-11.44,20.41-25.59,20.05Z" style="fill: #e2c4a6;"/>
      <path d="M622.67,1125.58c-16.48-.14-34.09-13.67-26.53-31.52,9.68-20.52,43.07-19.42,52.61,.66,8.1,18.16-8.96,31.58-26.08,30.87h0Zm0,0c8.87,.25,18.46-4.09,22.05-12.41,3.44-7.63-.9-16.01-7.69-19.91-10.54-6.35-26.77-5.9-34.79,4.21-5.3,6.69-2.62,16.69,3.79,21.87,4.5,3.92,10.57,6.07,16.65,6.25h0Z" style="fill: #3a3632;"/>
    </g>
    <g>
      <path d="M1199.22,1215.31c-11.12,9.18-29.42,9.23-40.85,.08-11.43-9.15-11.6-23.99-.42-33.13,11.15-9.11,29.38-9.1,40.75,0,11.37,9.1,11.62,23.88,.53,33.04Z" style="fill: #e2c4a6;"/>
      <path d="M1199.22,1215.31c-13.78,11.06-37.08,10.74-48.82-3.43-5.29-6.29-6.66-15.92-3.22-23.55,4.81-11.3,17.92-17.6,29.51-17.17,14.7,.08,30.67,10.5,31.27,26.06,.25,7.09-3.32,13.75-8.73,18.09h0Zm0,0c5.24-4.35,8.56-11.12,7.36-17.96-1.53-9.86-11.16-16.13-20.42-17.38-8.68-1.32-18.54,.8-25.13,6.24-9.8,7.77-8.9,20.9,.96,28.73,10.1,8.33,26.79,8.99,37.23,.37h0Z" style="fill: #3a3632;"/>
    </g>
    <g>
      <path d="M1373.01,1129.57c-11.99,.34-21.72-7.38-21.72-17.25s9.74-18.1,21.72-18.4c11.96-.3,21.64,7.42,21.64,17.25s-9.68,18.06-21.64,18.4Z" style="fill: #e2c4a6;"/>
      <path d="M1373.01,1129.57c-14.69,.68-29.23-10.94-22.69-26.58,7.96-18,37.25-19.06,45.5-.75,6.32,15.31-8.62,27.22-22.81,27.33h0Zm0,0c9.68-.06,20.45-7.86,19.11-18.22-2.9-15.3-27.38-15.85-35.73-4.94-4.62,5.54-3.18,13.78,2.35,18.31,3.81,3.33,9.09,4.98,14.26,4.84h0Z" style="fill: #3a3632;"/>
    </g>
    <g>
      <path d="M1283.84,621.15c-10.25,.22-18.56-6.83-18.56-15.77s8.32-16.34,18.56-16.54c10.23-.2,18.52,6.86,18.52,15.77s-8.29,16.31-18.52,16.54Z" style="fill: #e2c4a6;"/>
      <path d="M1283.84,621.15c-13.06,.49-25.04-10.49-19.99-24.07,6.68-17.13,33.25-17.85,40.1-.47,4.89,13.39-7.4,24.49-20.11,24.54h0Zm0,0c10.86,.05,20.91-11.51,13.83-21.37-7.6-9.71-26.9-7.28-29.9,5.47-1.81,9.02,7.46,16.36,16.07,15.9h0Z" style="fill: #3a3632;"/>
    </g>
    <g>
      <path d="M721.29,580.42c-9.18-.19-16.64-6.86-16.64-14.91s7.46-14.4,16.64-14.19c9.17,.21,16.59,6.89,16.59,14.91s-7.42,14.38-16.59,14.19Z" style="fill: #e2c4a6;"/>
      <path d="M721.29,580.42c-11.49-.01-22.63-10.05-18.41-22.19,4.76-13.09,23-15.69,32.42-6.12,11.9,12.41,1.97,28.76-14,28.3h0Zm0,0c7.71,.42,15.93-6.33,14.06-14.35-3.15-12.46-25.21-13.42-28.2-.41-1.52,7.99,6.42,14.8,14.14,14.76h0Z" style="fill: #3a3632;"/>
    </g>
  </g>
</svg>