<svg id="Layer_1" data-name="Layer 1" xmlns="http://www.w3.org/2000/svg" viewBox="0 0 2000 1346.15"><path d="M65.71,942.74l51.48,321.4a72.86,72.86,0,0,0,68.65,48.37H1814.16a72.86,72.86,0,0,0,68.65-48.37l51.48-321.4" style="fill:#fff;stroke:#231f20;stroke-linecap:round;stroke-linejoin:round;stroke-width:24.265392854091175px"/><path d="M1963,935.23,1649,744a38,38,0,0,0-20.73-6.17H371.77A38,38,0,0,0,351,744l-314,191.19A37.91,37.91,0,0,0,19.84,967v8.66a37.94,37.94,0,0,0,37.94,37.94H1942.22a37.94,37.94,0,0,0,37.94-37.94V967A37.91,37.91,0,0,0,1963,935.23Z" style="fill:#fff;stroke:#231f20;stroke-linecap:round;stroke-linejoin:round;stroke-width:24.265392854091175px"/><line x1="117.98" y1="946.46" x2="1882.02" y2="946.46" style="fill:#fff;stroke:#231f20;stroke-linecap:round;stroke-linejoin:round;stroke-width:24.265392854091175px"/><line x1="379.51" y1="794.37" x2="408.15" y2="942.74" style="fill:#fff;stroke:#231f20;stroke-linecap:round;stroke-linejoin:round;stroke-width:24.265392854091175px"/><line x1="1620.49" y1="794.37" x2="1591.85" y2="942.74" style="fill:#fff;stroke:#231f20;stroke-linecap:round;stroke-linejoin:round;stroke-width:24.265392854091175px"/><polygon points="1616.89 823.54 373.75 823.54 180.05 943.54 1808.42 943.54 1616.89 823.54" style="fill:#ead39a;stroke:#231f20;stroke-linecap:round;stroke-linejoin:round;stroke-width:14.840239350218306px"/><path d="M1411.27,884c-54.33,11.4-117.74,12.71-177.8,9.29s-118.13-11.31-176.9-17.59c-154.65-16.5-322.52-21.53-470.28,3.91-15.61,2.68-33.73,7.82-30.55,14.84,2.2,4.86,14,7.74,25,9.35,52.33,7.63,109.44.77,163-5.12s113.43-10.47,161.83.91" style="fill:none;stroke:#231f20;stroke-linecap:round;stroke-linejoin:round;stroke-width:12.347827721058067px"/><path d="M942.91,384.67,1549,178.22c43.16-16.6,68.66-55.72,52.07-98.88h0c-16.6-43.17-61.73-55.13-104.9-38.53L907.87,293.52" style="fill:#231f20"/><path d="M644.74,172.51H810.91a19.36,19.36,0,0,1,19.36,19.36V664.34a27.8,27.8,0,0,1-27.8,27.8H563.28a27.8,27.8,0,0,1-27.8-27.8V281.77A109.26,109.26,0,0,1,644.74,172.51Z" transform="translate(524.38 1224.86) rotate(-111.03)" style="fill:#fff;stroke:#231f20;stroke-linecap:round;stroke-linejoin:round;stroke-width:21.7675965488019px"/><path d="M788.87,460.89,631.58,521.36a90.13,90.13,0,0,1-116.47-51.78l-13-33.86" style="fill:#fff;stroke:#231f20;stroke-linecap:round;stroke-linejoin:round;stroke-width:21.7675965488019px"/></svg>