<svg xmlns="http://www.w3.org/2000/svg" viewBox="0 0 2000 2000"><g id="Layer_1" data-name="Layer 1"><path d="M62,1249.7l52.79,298.85a74.73,74.73,0,0,0,70.4,49.6H1814.77a74.73,74.73,0,0,0,70.4-49.6L1938,1249.7" style="fill:#fff;stroke:#231f20;stroke-linecap:round;stroke-linejoin:round;stroke-width:24px"/><path d="M1967.36,1242l-322-210.14a38.93,38.93,0,0,0-21.27-6.33H375.91a38.93,38.93,0,0,0-21.27,6.33L32.64,1242A38.93,38.93,0,0,0,15,1274.59v8.87a38.91,38.91,0,0,0,38.91,38.91H1946.09a38.91,38.91,0,0,0,38.91-38.91v-8.87A38.93,38.93,0,0,0,1967.36,1242Z" style="fill:#fff;stroke:#231f20;stroke-linecap:round;stroke-linejoin:round;stroke-width:24px"/><line x1="115.64" y1="1253.52" x2="1884.36" y2="1253.52" style="fill:#fff;stroke:#231f20;stroke-linecap:round;stroke-linejoin:round;stroke-width:12px"/><polygon points="1588.25 1128.01 402.83 1128.01 218.13 1253.52 1770.88 1253.52 1588.25 1128.01" style="fill:#e1c98b;stroke:#231f20;stroke-miterlimit:15.1181106567383;stroke-width:12px"/><path d="M1009.26,788.88,1677.5,561.25c47.59-18.29,75.71-61.42,57.41-109h0c-18.3-47.6-68.06-60.78-115.65-42.49L970.63,688.38" style="fill:#231f20"/><path d="M669.31,555h196.4a19.36,19.36,0,0,1,19.36,19.36v525.76a27.8,27.8,0,0,1-27.8,27.8H587.85a27.8,27.8,0,0,1-27.8-27.8V664.22A109.26,109.26,0,0,1,669.31,555Z" transform="translate(196.46 1817.8) rotate(-111.03)" style="fill:#fff;stroke:#231f20;stroke-linecap:round;stroke-linejoin:round;stroke-width:24px"/><path d="M839.43,872.92,666,939.59A99.38,99.38,0,0,1,537.59,882.5l-14.35-37.33" style="fill:#fff;stroke:#231f20;stroke-linecap:round;stroke-linejoin:round;stroke-width:24px"/></g></svg>