<svg xmlns="http://www.w3.org/2000/svg" viewBox="0 0 2000 1887.29"><g id="Layer_1" data-name="Layer 1"><path d="M1606.52,1656.4H404.37c-30,0-54.82-21.85-54.82-49.32L468.68,849.71c.89-5.48,20-20.1,28.9-20.1h919.29c8.86,0,27.57,14.62,29.15,20.1l231.18,745.9C1677.2,1640.25,1650.78,1656.4,1606.52,1656.4Z" style="fill:#ef4136;stroke:#231f20;stroke-linecap:round;stroke-miterlimit:10;stroke-width:24px"/><path d="M1570.58,1584.42H439.23c-3.61,0-6.21-2.42-5.81-5.4l94-707.11c.22-1.71,2.61-3.08,5.33-3.08h853c2.72,0,5.28,1.37,5.73,3.08L1575.7,1579C1576.47,1582,1574.18,1584.42,1570.58,1584.42Z" style="fill:#ef4136;stroke:#231f20;stroke-linecap:round;stroke-miterlimit:10;stroke-width:24px"/><path d="M217.68,1845.74c-11.22-29.11,55.56-96.85,147.62-151.09,90.66-53.39,174.59-75.23,189-49,14.72,26.77-48.08,93.87-141.89,150.17C317.06,1853,229.14,1875.49,217.68,1845.74Z" style="fill:#ef4136;stroke:#231f20;stroke-linecap:round;stroke-miterlimit:10;stroke-width:24px"/><path d="M549.54,1640.25s-76,60.54-152.52,106.08c-77.55,46.15-165.24,76.14-169.89,64.33" style="fill:#ef4136;stroke:#231f20;stroke-linecap:round;stroke-miterlimit:10;stroke-width:24px"/><path d="M803.69,1567.43a1.78,1.78,0,0,1-1.78-1.74c0-1.93-.06-4.94-.09-8.88a1.77,1.77,0,0,1,1.75-1.79h0a1.77,1.77,0,0,1,1.77,1.76c0,3.93.07,6.93.1,8.86a1.77,1.77,0,0,1-1.75,1.79Zm-.16-35.47h0a1.78,1.78,0,0,1-1.77-1.78c0-2.85,0-5.81,0-8.89a1.76,1.76,0,0,1,1.77-1.76h0a1.77,1.77,0,0,1,1.76,1.78q0,4.62,0,8.88A1.78,1.78,0,0,1,803.53,1532Zm.38-35.51h0a1.78,1.78,0,0,1-1.74-1.81c.05-2.91.1-5.87.17-8.88a1.76,1.76,0,0,1,1.77-1.73h0a1.76,1.76,0,0,1,1.73,1.81q-.09,4.5-.17,8.87A1.78,1.78,0,0,1,803.91,1496.45Zm.9-35.49h-.06a1.77,1.77,0,0,1-1.71-1.83c.1-2.93.2-5.89.32-8.87a1.77,1.77,0,1,1,3.54.13q-.17,4.47-.32,8.86A1.78,1.78,0,0,1,804.81,1461Zm1.53-35.47h-.1a1.78,1.78,0,0,1-1.68-1.87q.24-4.44.5-8.88a1.77,1.77,0,1,1,3.54.2c-.17,3-.34,5.92-.49,8.87A1.78,1.78,0,0,1,806.34,1425.49Zm2.3-35.44h-.14a1.78,1.78,0,0,1-1.63-1.9c.24-3,.48-5.93.74-8.86a1.77,1.77,0,1,1,3.53.3c-.25,2.93-.5,5.88-.73,8.84A1.78,1.78,0,0,1,808.64,1390.05Zm3.41-35.33-.21,0a1.77,1.77,0,0,1-1.56-2q.53-4.48,1.09-8.83a1.77,1.77,0,1,1,3.52.45q-.57,4.34-1.08,8.79A1.79,1.79,0,0,1,812.05,1354.72Zm5.13-35.13-.33,0a1.76,1.76,0,0,1-1.42-2.06c.55-3,1.13-6,1.71-8.76a1.77,1.77,0,1,1,3.47.73c-.57,2.76-1.14,5.67-1.69,8.67A1.78,1.78,0,0,1,817.18,1319.59Zm2.38-34.72a1.77,1.77,0,0,1-1.75-1.51c-.41-2.69-.82-5.67-1.2-8.84a1.77,1.77,0,1,1,3.52-.43c.38,3.14.78,6.08,1.18,8.74a1.78,1.78,0,0,1-1.48,2Zm-3.66-35.29a1.78,1.78,0,0,1-1.77-1.65c-.2-2.89-.4-5.85-.58-8.87a1.77,1.77,0,1,1,3.54-.21c.18,3,.37,6,.58,8.83a1.77,1.77,0,0,1-1.64,1.89Zm-1.84-35.44a1.77,1.77,0,0,1-1.77-1.71c-.1-2.93-.2-5.9-.28-8.88a1.78,1.78,0,0,1,1.73-1.82,1.76,1.76,0,0,1,1.82,1.73q.12,4.45.27,8.85a1.76,1.76,0,0,1-1.71,1.83Zm-.69-35.47a1.77,1.77,0,0,1-1.77-1.76c0-1.59,0-3.18,0-4.77,0-1.37,0-2.75,0-4.12a1.76,1.76,0,0,1,1.77-1.76h0a1.76,1.76,0,0,1,1.76,1.78v4.1c0,1.58,0,3.17,0,4.75a1.78,1.78,0,0,1-1.77,1.78Zm.44-35.47h-.06a1.77,1.77,0,0,1-1.71-1.83q.13-4.48.31-8.88a1.77,1.77,0,1,1,3.54.14c-.11,2.92-.22,5.87-.31,8.85A1.78,1.78,0,0,1,813.81,1143.2Zm1.91-35.42h-.15a1.77,1.77,0,0,1-1.62-1.91c.26-3.08.53-6.07.82-8.87a1.77,1.77,0,0,1,3.53.36c-.29,2.78-.56,5.74-.82,8.8A1.77,1.77,0,0,1,815.72,1107.78Zm4.85-35.12a1.9,1.9,0,0,1-.4-.05,1.77,1.77,0,0,1-1.33-2.12c.69-3,1.44-5.71,2.22-8a1.77,1.77,0,0,1,3.49-.56l.2.75-.18.51a77.92,77.92,0,0,0-2.27,8.11A1.78,1.78,0,0,1,820.57,1072.66Zm-.16-35a1.76,1.76,0,0,1-1.77-1.72c-.08-2.76-.13-5.75-.16-8.9a1.78,1.78,0,1,1,3.55,0c0,3.13.08,6.1.15,8.83a1.76,1.76,0,0,1-1.72,1.82Zm.07-35.48h0a1.79,1.79,0,0,1-1.74-1.82q.1-4.4.22-8.88a1.78,1.78,0,0,1,1.78-1.73h0a1.78,1.78,0,0,1,1.72,1.83c-.08,3-.16,5.94-.22,8.86A1.77,1.77,0,0,1,820.48,1002.18Zm1.18-35.49h-.08a1.77,1.77,0,0,1-1.69-1.85c.12-3,.26-5.94.39-8.88a1.78,1.78,0,0,1,1.77-1.69h.09a1.78,1.78,0,0,1,1.69,1.86q-.21,4.39-.4,8.86A1.78,1.78,0,0,1,821.66,966.69Zm1.77-35.47h-.1a1.78,1.78,0,0,1-1.67-1.87c.17-3.06.34-6,.51-8.87a1.77,1.77,0,1,1,3.54.21c-.16,2.84-.34,5.8-.51,8.86A1.77,1.77,0,0,1,823.43,931.22Zm2.2-35.46h-.12a1.78,1.78,0,0,1-1.65-1.89c.38-5.64.62-8.9.62-8.9a1.77,1.77,0,0,1,3.54.26s-.24,3.25-.62,8.88A1.77,1.77,0,0,1,825.63,895.76Z" style="fill:#fff"/><path d="M1185.67,1563.35a1.77,1.77,0,0,1-1.76-1.65c-.18-2.38-.39-5.37-.66-8.88a1.78,1.78,0,0,1,3.54-.27c.27,3.52.48,6.51.65,8.9a1.77,1.77,0,0,1-1.64,1.89Zm-2.75-35.49a1.78,1.78,0,0,1-1.77-1.63q-.36-4.27-.75-8.85a1.78,1.78,0,0,1,3.54-.31q.39,4.59.75,8.87a1.78,1.78,0,0,1-1.62,1.91Zm-3.13-35.41a1.78,1.78,0,0,1-1.77-1.61q-.4-4.35-.84-8.84a1.77,1.77,0,0,1,1.6-1.93,1.75,1.75,0,0,1,1.93,1.59q.43,4.48.84,8.85a1.77,1.77,0,0,1-1.6,1.93Zm-3.53-35.36a1.78,1.78,0,0,1-1.76-1.59q-.46-4.38-1-8.82a1.78,1.78,0,0,1,3.53-.39q.48,4.44,1,8.84a1.77,1.77,0,0,1-1.58,1.95Zm-4-35.3a1.77,1.77,0,0,1-1.76-1.56q-.54-4.41-1.09-8.8a1.77,1.77,0,0,1,3.52-.45q.55,4.41,1.09,8.82a1.78,1.78,0,0,1-1.55,2Zm-4.66-35.21a1.78,1.78,0,0,1-1.75-1.52c-.42-3-.86-5.88-1.29-8.77a1.77,1.77,0,1,1,3.5-.53c.44,2.9.88,5.84,1.3,8.8a1.76,1.76,0,0,1-1.5,2A1.14,1.14,0,0,1,1167.6,1386.58ZM1162,1351.5a1.79,1.79,0,0,1-1.75-1.46c-.54-3-1.09-5.92-1.63-8.7a1.77,1.77,0,0,1,3.48-.68c.54,2.79,1.1,5.74,1.64,8.75a1.76,1.76,0,0,1-1.43,2.06A1.63,1.63,0,0,1,1162,1351.5Zm-7.51-34.73a1.78,1.78,0,0,1-1.71-1.32c-.81-3-1.63-5.89-2.43-8.47a1.77,1.77,0,1,1,3.38-1.06c.82,2.63,1.65,5.53,2.48,8.62a1.78,1.78,0,0,1-1.26,2.17A1.82,1.82,0,0,1,1154.46,1316.77Zm-6.15-34.66a1.77,1.77,0,0,1-1.77-1.69q-.22-4.47-.45-8.84a1.77,1.77,0,1,1,3.54-.19q.22,4.38.45,8.86a1.78,1.78,0,0,1-1.68,1.86Zm-2-35.4a1.77,1.77,0,0,1-1.77-1.66c-.19-3-.39-5.93-.59-8.83a1.77,1.77,0,0,1,3.54-.25q.3,4.37.59,8.85a1.78,1.78,0,0,1-1.65,1.89Zm-2.67-35.35a1.77,1.77,0,0,1-1.76-1.62c-.26-3-.53-5.91-.8-8.81a1.77,1.77,0,1,1,3.53-.33c.27,2.9.54,5.85.8,8.83a1.77,1.77,0,0,1-1.61,1.92Zm-3.59-35.27a1.76,1.76,0,0,1-1.75-1.56q-.52-4.44-1.08-8.78a1.77,1.77,0,1,1,3.52-.45q.55,4.35,1.08,8.81a1.77,1.77,0,0,1-1.56,2Zm-4.79-35.12a1.77,1.77,0,0,1-1.75-1.5q-.69-4.4-1.41-8.73a1.77,1.77,0,1,1,3.5-.58q.72,4.35,1.41,8.76a1.77,1.77,0,0,1-1.47,2Zm-6.22-34.89a1.78,1.78,0,0,1-1.74-1.43c-.58-2.89-1.17-5.77-1.78-8.66a1.77,1.77,0,1,1,3.47-.73q.91,4.34,1.79,8.69a1.78,1.78,0,0,1-1.39,2.09A1.45,1.45,0,0,1,1129,1106.08Zm-7.25-34.67a1.77,1.77,0,0,1-1.77-1.66c-.19-3-.38-5.92-.59-8.84a1.77,1.77,0,0,1,1.65-1.89,1.79,1.79,0,0,1,1.89,1.65q.3,4.38.59,8.85a1.77,1.77,0,0,1-1.65,1.88Zm-2.66-35.37a1.78,1.78,0,0,1-1.77-1.62c-.25-3-.52-5.92-.79-8.82a1.77,1.77,0,0,1,3.53-.33q.4,4.37.8,8.84a1.77,1.77,0,0,1-1.62,1.92Zm-3.48-35.3a1.78,1.78,0,0,1-1.76-1.58q-.5-4.49-1-8.8a1.77,1.77,0,1,1,3.52-.41q.51,4.34,1,8.82a1.79,1.79,0,0,1-1.57,2Zm-4.33-35.21a1.78,1.78,0,0,1-1.76-1.54c-.41-3-.81-5.92-1.22-8.77a1.77,1.77,0,0,1,3.51-.5c.41,2.85.82,5.79,1.23,8.8a1.77,1.77,0,0,1-1.52,2ZM1106,930.45a1.78,1.78,0,0,1-1.75-1.49q-.76-4.59-1.48-8.73a1.77,1.77,0,1,1,3.49-.6c.49,2.76,1,5.68,1.49,8.75a1.77,1.77,0,0,1-1.46,2Zm-6.42-34.9a1.77,1.77,0,0,1-1.74-1.41c-1.16-5.61-1.86-8.6-1.87-8.63a1.77,1.77,0,1,1,3.45-.82s.72,3.07,1.9,8.73a1.77,1.77,0,0,1-1.38,2.09A1.47,1.47,0,0,1,1099.62,895.55Z" style="fill:#fff"/><path d="M822.11,1074.28l-1.06-.69a22.69,22.69,0,0,0-3.51-1.8,1.77,1.77,0,1,1,1.37-3.27,30.75,30.75,0,0,1,3,1.46,25.68,25.68,0,0,1,3.27-1.8,1.77,1.77,0,1,1,1.51,3.2,20.51,20.51,0,0,0-3.62,2.12Zm598.88-.4a1.82,1.82,0,0,1-.86-.23,59.23,59.23,0,0,0-7.83-3.55,1.78,1.78,0,1,1,1.26-3.32,64.48,64.48,0,0,1,8.3,3.77,1.78,1.78,0,0,1-.87,3.33Zm-885.12-4.66a1.77,1.77,0,0,1-.41-3.5c2.58-.61,5.54-1.22,8.8-1.79a1.79,1.79,0,0,1,2.06,1.44,1.77,1.77,0,0,1-1.44,2.05c-3.19.56-6.08,1.15-8.59,1.75A1.51,1.51,0,0,1,535.87,1069.22Zm596.18-.14a1.77,1.77,0,0,1-.64-3.43c2.6-1,5.47-2,8.54-2.87a1.77,1.77,0,0,1,1,3.4c-3,.88-5.76,1.82-8.28,2.78A1.76,1.76,0,0,1,1132.05,1069.08Zm-24.62-.33a1.59,1.59,0,0,1-.48-.07c-2.65-.75-5.52-1.49-8.51-2.18a1.78,1.78,0,0,1,.8-3.46c3,.71,6,1.46,8.68,2.23a1.77,1.77,0,0,1-.49,3.48Zm-315.06-2.91a1.14,1.14,0,0,1-.26,0c-2.73-.4-5.68-.8-8.75-1.17a1.77,1.77,0,0,1,.43-3.52c3.1.37,6.08.77,8.84,1.18a1.77,1.77,0,0,1-.26,3.53Zm59.2-1.29a1.77,1.77,0,0,1-.31-3.52c2.77-.5,5.73-1,8.8-1.46a1.77,1.77,0,0,1,.53,3.51c-3,.46-6,1-8.7,1.44A1.73,1.73,0,0,1,851.57,1064.55ZM571,1064a1.77,1.77,0,0,1-.17-3.54c2.83-.28,5.82-.55,8.87-.8a1.77,1.77,0,0,1,.29,3.53c-3,.25-6,.52-8.81.8Zm816.31-.76a1.34,1.34,0,0,1-.35,0c-2.76-.55-5.68-1.09-8.68-1.6a1.78,1.78,0,1,1,.6-3.5c3,.52,6,1.07,8.77,1.63a1.77,1.77,0,0,1-.34,3.51Zm-630.19-1.1H757c-2.88-.21-5.83-.4-8.83-.58a1.77,1.77,0,0,1-1.66-1.88,1.75,1.75,0,0,1,1.87-1.66q4.53.27,8.88.58a1.77,1.77,0,0,1-.13,3.54Zm315.59-.37h-.25c-2.8-.4-5.75-.78-8.76-1.14a1.77,1.77,0,1,1,.42-3.52c3,.36,6,.75,8.83,1.14a1.79,1.79,0,0,1,1.51,2A1.77,1.77,0,0,1,1072.67,1061.81Zm-466.31-.36a1.77,1.77,0,0,1-.1-3.54l8.88-.44a1.8,1.8,0,0,1,1.85,1.7,1.77,1.77,0,0,1-1.69,1.85c-3,.13-5.94.28-8.85.43Zm560.05-1a1.77,1.77,0,0,1-.3-3.52c2.85-.48,5.81-.94,8.81-1.37a1.79,1.79,0,0,1,2,1.51,1.76,1.76,0,0,1-1.51,2c-3,.43-5.9.88-8.72,1.35Zm-444.77-.08h-.06c-2.92-.1-5.88-.19-8.85-.26a1.78,1.78,0,0,1,0-3.55h0l8.88.26a1.78,1.78,0,0,1-.06,3.55Zm-79.82-.28a1.78,1.78,0,0,1,0-3.55l8.88-.19a1.78,1.78,0,0,1,.06,3.55l-8.86.19Zm244.93-.22a1.77,1.77,0,0,1-.17-3.54q4.33-.42,8.85-.8a1.78,1.78,0,0,1,.3,3.54q-4.49.38-8.81.79Zm-200.58-.18h0c-2.94,0-5.89,0-8.83,0a1.79,1.79,0,0,1-1.79-1.77,1.77,1.77,0,0,1,1.76-1.78c3,0,5.93,0,8.88,0a1.78,1.78,0,0,1,0,3.55Zm351.21-1.54h-.13q-4.38-.32-8.83-.59a1.77,1.77,0,1,1,.22-3.54q4.47.27,8.87.59a1.78,1.78,0,0,1-.13,3.55Zm314.81-.15h-.2c-2.86-.32-5.82-.63-8.8-.92a1.77,1.77,0,1,1,.34-3.53c3,.29,6,.6,8.85.92a1.78,1.78,0,0,1-.19,3.54Zm-430.06-.71a1.78,1.78,0,0,1-.09-3.55c2.93-.15,5.9-.29,8.88-.41a1.77,1.77,0,1,1,.15,3.54q-4.46.19-8.84.42Zm79.83-.92h-.05q-4.41-.12-8.85-.21a1.78,1.78,0,0,1,.07-3.55q4.46.09,8.88.22a1.77,1.77,0,0,1,0,3.54Zm199.65-.25a1.77,1.77,0,0,1-.15-3.54c2.9-.25,5.88-.49,8.87-.7a1.77,1.77,0,1,1,.25,3.54c-3,.21-5.93.44-8.81.69Zm-244,0a1.77,1.77,0,0,1,0-3.54c3,0,5.92-.08,8.9-.11h0a1.78,1.78,0,0,1,0,3.55c-3,0-5.92.06-8.86.1Zm359.23-1.07h-.1q-4.39-.27-8.84-.48a1.77,1.77,0,1,1,.17-3.54q4.47.21,8.87.48a1.76,1.76,0,0,1,1.67,1.87A1.78,1.78,0,0,1,1316.83,1055Zm-79.8-1a1.78,1.78,0,0,1-.06-3.55c2.94-.1,5.91-.18,8.88-.25h.05a1.77,1.77,0,0,1,0,3.54q-4.45.1-8.85.26Zm44.35-.35h0q-4.42-.07-8.85-.11a1.78,1.78,0,0,1,0-3.55h0q4.44,0,8.88.11a1.78,1.78,0,0,1,0,3.55Z" style="fill:#fff"/><path d="M1154.27,1298.06a1.77,1.77,0,0,1-.85-3.33,61.61,61.61,0,0,1,8.35-3.68,1.78,1.78,0,0,1,1.21,3.34,56.24,56.24,0,0,0-7.86,3.46A1.84,1.84,0,0,1,1154.27,1298.06Zm325-.49a1.72,1.72,0,0,1-.66-.13,71.51,71.51,0,0,0-8.24-2.62,1.77,1.77,0,0,1,.9-3.43,74.19,74.19,0,0,1,8.66,2.76,1.77,1.77,0,0,1-.66,3.42Zm-985.19,0a1.78,1.78,0,0,1-1.12-3.15,14.79,14.79,0,0,1,3.39-2,1.77,1.77,0,1,1,1.45,3.24,11.88,11.88,0,0,0-2.59,1.48A1.79,1.79,0,0,1,494.09,1297.57Zm320.07-4.65a1.63,1.63,0,0,1-.68-.14,75.39,75.39,0,0,0-8.2-2.74,1.77,1.77,0,0,1,.94-3.42,73.18,73.18,0,0,1,8.61,2.89,1.77,1.77,0,0,1,1,2.31A1.8,1.8,0,0,1,814.16,1292.92Zm315.51-.36-.34,0c-2.64-.52-5.56-1-8.68-1.52a1.77,1.77,0,0,1,.55-3.5c3.16.5,6.13,1,8.81,1.53a1.78,1.78,0,0,1-.34,3.52ZM838,1290.93a1.77,1.77,0,0,1-.43-3.49c2.64-.66,5.59-1.29,8.78-1.89A1.78,1.78,0,1,1,847,1289c-3.12.58-6,1.2-8.57,1.84A1.58,1.58,0,0,1,838,1290.93Zm606.74-1-.26,0c-2.79-.41-5.74-.81-8.76-1.2a1.77,1.77,0,0,1,.45-3.52c3,.39,6,.8,8.82,1.21a1.77,1.77,0,0,1-.25,3.53Zm-921.77-.23a1.78,1.78,0,0,1-.28-3.53c2.76-.43,5.73-.86,8.83-1.28a1.78,1.78,0,0,1,.47,3.52c-3.07.41-6,.84-8.75,1.27Zm665.24-1.58a1.77,1.77,0,0,1-.31-3.52c2.81-.49,5.77-1,8.82-1.4a1.77,1.77,0,0,1,.5,3.51c-3,.44-5.93.9-8.71,1.38Zm-93.65-.39h-.18c-2.87-.29-5.81-.58-8.82-.85a1.77,1.77,0,0,1,.32-3.53c3,.27,6,.56,8.86.85a1.77,1.77,0,0,1-.18,3.54Zm314.93-1.89h-.17c-2.89-.26-5.83-.52-8.82-.76a1.78,1.78,0,0,1,.29-3.54c3,.25,6,.51,8.86.77a1.77,1.77,0,0,1-.16,3.54ZM873,1285.49a1.77,1.77,0,0,1-.18-3.54c2.85-.28,5.84-.55,8.87-.8a1.78,1.78,0,0,1,.29,3.54c-3,.24-6,.51-8.81.79Zm-314.84-.06a1.77,1.77,0,0,1-.16-3.54c2.89-.27,5.85-.52,8.86-.78a1.78,1.78,0,1,1,.3,3.54q-4.51.38-8.83.77Zm221.46-.25-.23,0c-2.78-.36-5.73-.72-8.77-1.05a1.77,1.77,0,0,1,.38-3.52c3.07.33,6,.69,8.85,1.06a1.77,1.77,0,0,1-.23,3.53Zm279.52-.39H1059q-4.37-.29-8.85-.54a1.77,1.77,0,0,1,.21-3.54q4.48.26,8.87.54a1.77,1.77,0,0,1-.12,3.54Zm164.23-1.06a1.77,1.77,0,0,1-.15-3.54c2.84-.24,5.83-.48,8.87-.69a1.77,1.77,0,0,1,.25,3.54c-3,.21-6,.44-8.82.68Zm150.69-.56H1374q-4.38-.26-8.84-.48a1.78,1.78,0,0,1,.18-3.55l8.87.49a1.78,1.78,0,0,1-.1,3.55ZM908.39,1283a1.78,1.78,0,0,1-.08-3.55l8.88-.37a1.76,1.76,0,0,1,1.84,1.71,1.78,1.78,0,0,1-1.71,1.84q-4.47.16-8.84.37Zm115.31,0h-.07c-2.94-.12-5.89-.22-8.86-.32a1.76,1.76,0,0,1-1.71-1.83,1.73,1.73,0,0,1,1.83-1.71c3,.09,5.93.2,8.87.31a1.78,1.78,0,0,1-.06,3.55Zm-430.14-.21a1.78,1.78,0,0,1-.11-3.55l8.88-.5a1.77,1.77,0,0,1,.18,3.54l-8.84.5Zm394.66-.75h0c-3,0-5.91-.09-8.86-.12a1.78,1.78,0,1,1,0-3.55c3,0,5.93.07,8.89.12a1.78,1.78,0,0,1,0,3.55Zm-44.36,0a1.78,1.78,0,0,1,0-3.55l8.89-.1a1.78,1.78,0,0,1,0,3.55c-3,0-5.92.06-8.85.1Zm-199.57,0h-.11q-4.35-.27-8.84-.49a1.77,1.77,0,0,1,.18-3.54q4.51.22,8.88.49a1.77,1.77,0,0,1-.11,3.54Zm514.49-.3a1.77,1.77,0,0,1-.06-3.54q4.41-.16,8.88-.29h.05a1.78,1.78,0,0,1,0,3.55q-4.46.12-8.85.28Zm79.83-.05h-.06c-2.94-.09-5.89-.18-8.84-.25a1.77,1.77,0,0,1-1.73-1.82,1.75,1.75,0,0,1,1.82-1.73l8.86.25a1.78,1.78,0,0,1-.05,3.55ZM629,1281.1a1.78,1.78,0,0,1-.06-3.55c2.95-.1,5.91-.2,8.88-.28h0a1.77,1.77,0,0,1,0,3.54l-8.86.28Zm674.13-.15h-8.88a1.77,1.77,0,1,1,0-3.54h8.89a1.78,1.78,0,0,1,0,3.55Zm-594.3-.46h0c-2.93-.07-5.88-.12-8.86-.17a1.76,1.76,0,0,1-1.74-1.8,1.79,1.79,0,0,1,1.8-1.74c3,0,5.94.1,8.88.16a1.78,1.78,0,0,1,0,3.55Zm-44.33-.22a1.77,1.77,0,0,1,0-3.54c3,0,5.92-.06,8.87-.08h0a1.78,1.78,0,0,1,0,3.55c-2.94,0-5.9,0-8.85.07Z" style="fill:#fff"/><path d="M775.21,234.5l27-25.69A507,507,0,0,1,904.18,134c39-21.78,88.14-51.78,105.15-73.09,29.73-37.26,48.65-33.31,56-24.81,10.13,11.76,10.43,23.08,10.43,40.55a80.25,80.25,0,0,1-.59,9.76c-4.75,39.56-62.53,87.12-73.69,99.65-3.57,4-7.13,8-10.63,12a10.65,10.65,0,0,0,8,17.63L1324.29,221c21.73,0,39.42,12.35,39.42,34.09s-17.69,34.1-39.42,34.1l-226,5.32a10.65,10.65,0,0,0,0,21.3l287,5.32c21.73,0,39.42,12.36,39.42,34.09s-17.69,34.1-39.42,34.1l-285.81,5.32a10.65,10.65,0,0,0,0,21.3l235.74,5.32c21.74,0,39.42,12.36,39.42,34.09s-17.68,34.1-39.42,34.1l-247.23,5.32a10.65,10.65,0,0,0,0,21.3l168.87,5.32c21.73,0,39.42,12.36,39.42,34.09s-17.69,34.1-39.42,34.1l-154.63,4.23q-40,1.1-80.05-1.55l-71.56-4.72A501.08,501.08,0,0,1,766,538.94h0a95.29,95.29,0,0,1-53.91-84.74l-.79-68.34A205.54,205.54,0,0,1,775.21,234.5Z" style="fill:#fff;stroke:#231f20;stroke-miterlimit:10;stroke-width:24px"/></g><g id="Isolation_Mode" data-name="Isolation Mode"><path d="M1000,1523.87c341.32,0,583.54-68.29,674.39-207.35,107.34-255.77,137.21-238.62,137.21-238.62,0-197.64-363.36-357.85-811.6-357.85S188.4,880.26,188.4,1077.9c0,0,29.87-17.15,144.68,238.62C423.93,1455.58,658.68,1523.87,1000,1523.87Z" style="fill:#fff;stroke:#231f20;stroke-miterlimit:10;stroke-width:24px"/><ellipse cx="1000" cy="1024.55" rx="854.69" ry="352.04" style="fill:#fff;stroke:#231f20;stroke-miterlimit:10;stroke-width:24px"/><path d="M1754.62,1003.49c0,156.54-337.85,283.45-754.62,283.45S245.38,1160,245.38,1003.49" style="fill:#fff;stroke:#231f20;stroke-linecap:round;stroke-miterlimit:10;stroke-width:24px"/><path d="M1754.62,1003.49c0-156.54-337.85-283.44-754.62-283.44S245.38,847,245.38,1003.49" style="fill:#fff;stroke:#231f20;stroke-linecap:round;stroke-miterlimit:10;stroke-width:24px"/><path d="M1550.31,1003.22c-144.66-60.69-338-97.77-550.31-97.77-221.71,0-422.66,40.42-569.16,105.93" style="fill:#fff;stroke:#231f20;stroke-linecap:round;stroke-miterlimit:10;stroke-width:12px"/><path d="M1696.84,1003.49c-113.69-125.11-382.86-213-696.84-213s-583.15,87.94-696.84,213c-17.41,19.16-31.17,39.19-40.89,59.9,14.82,25.87,39,50.43,71.25,73.14C460.39,1226,711.25,1286.94,1000,1286.94s539.61-60.92,666.49-150.41c32.2-22.71,56.42-47.27,71.24-73.14C1728,1042.68,1714.25,1022.65,1696.84,1003.49Z" style="fill:#f9d375;stroke:#231f20;stroke-linecap:round;stroke-miterlimit:10;stroke-width:24px"/><path id="path60" d="M643.58,954.34c-10.22,34.37-39.32,61.88-77.74,69.48a111.48,111.48,0,0,1-36.49,1.13,101.58,101.58,0,0,1-80.63-61.87,97,97,0,0,1-6.63-53Z" style="fill:#c93c27;stroke:#000;stroke-width:6.868961867675514px"/><path id="path60-2" data-name="path60" d="M609.92,950.76c-7.23,24.31-27.81,43.76-55,49.13a78.7,78.7,0,0,1-25.8.8,71.79,71.79,0,0,1-57-43.75,68.5,68.5,0,0,1-4.69-37.46Z" style="fill:#dd694a"/><path d="M464.85,944.61a64.78,64.78,0,0,0,18.33,33.52,81.08,81.08,0,0,0,33.17,19.37c17.16,5.28,36.06,5.38,52.9-.85a75,75,0,0,0,32.53-23.58" style="fill:none;stroke:#000;stroke-width:6.868961867675514px"/><path d="M583.32,967.17c1.73,5.28.39,10.46-4.89,12.2s-9.43-1.65-11.16-6.93,3.37-16.81,3.37-16.81S581.59,961.89,583.32,967.17Z" style="fill:#f49662"/><path d="M540.08,972.88c-1.46,6.74-6.13,11.44-12.87,10s-9.06-7.66-7.61-14.4,14.13-15.87,14.13-15.87S541.53,966.14,540.08,972.88Z" style="fill:#f49662"/><path d="M499.07,956.77c-3.3,4.55-8.35,6.52-12.91,3.22s-4.24-8.71-.94-13.27,15.79-7.2,15.79-7.2S502.37,952.21,499.07,956.77Z" style="fill:#f49662"/><path id="path60-3" data-name="path60" d="M1510.67,1074.48c-10.22,34.37-39.32,61.88-77.74,69.47a111.48,111.48,0,0,1-36.49,1.13,101.51,101.51,0,0,1-80.63-61.87,97,97,0,0,1-6.63-53Z" style="fill:#c93c27;stroke:#000;stroke-width:6.868961867675514px"/><path id="path60-4" data-name="path60" d="M1477,1070.9c-7.23,24.3-27.81,43.76-55,49.13a79,79,0,0,1-25.8.8,71.85,71.85,0,0,1-57-43.76,68.48,68.48,0,0,1-4.69-37.46Z" style="fill:#dd694a"/><path d="M1331.94,1064.75a64.72,64.72,0,0,0,18.33,33.51,81,81,0,0,0,33.17,19.37c17.16,5.28,36.07,5.38,52.91-.85a75,75,0,0,0,32.52-23.57" style="fill:none;stroke:#000;stroke-width:6.868961867675514px"/><path d="M1450.41,1087.3c1.73,5.29.39,10.47-4.89,12.2s-9.43-1.65-11.16-6.93,3.38-16.8,3.38-16.8S1448.68,1082,1450.41,1087.3Z" style="fill:#f49662"/><path d="M1407.17,1093c-1.45,6.73-6.13,11.44-12.87,10s-9.06-7.67-7.61-14.4,14.13-15.87,14.13-15.87S1408.62,1086.28,1407.17,1093Z" style="fill:#f49662"/><path d="M1366.16,1076.9c-3.3,4.56-8.35,6.53-12.9,3.23s-4.25-8.72-1-13.27,15.79-7.2,15.79-7.2S1369.46,1072.35,1366.16,1076.9Z" style="fill:#f49662"/><path id="path60-5" data-name="path60" d="M1125.86,1186c-10.22,34.37-39.32,61.88-77.74,69.47a111.48,111.48,0,0,1-36.49,1.13A101.51,101.51,0,0,1,931,1194.69a97,97,0,0,1-6.63-53Z" style="fill:#c93c27;stroke:#000;stroke-width:6.868961867675514px"/><path id="path60-6" data-name="path60" d="M1092.2,1182.37c-7.23,24.31-27.8,43.77-55,49.14a79,79,0,0,1-25.8.8,71.85,71.85,0,0,1-57-43.76,68.57,68.57,0,0,1-4.69-37.46Z" style="fill:#dd694a"/><path d="M947.13,1176.23a64.79,64.79,0,0,0,18.33,33.51,81,81,0,0,0,33.17,19.37c17.16,5.28,36.07,5.38,52.91-.85a75,75,0,0,0,32.52-23.57" style="fill:none;stroke:#000;stroke-width:6.868961867675514px"/><path d="M1065.6,1198.78c1.74,5.29.39,10.47-4.89,12.2s-9.43-1.65-11.16-6.93,3.38-16.8,3.38-16.8S1063.87,1193.5,1065.6,1198.78Z" style="fill:#f49662"/><path d="M1022.36,1204.49c-1.45,6.74-6.13,11.45-12.87,10s-9.06-7.67-7.61-14.41,14.13-15.86,14.13-15.86S1023.81,1197.76,1022.36,1204.49Z" style="fill:#f49662"/><path d="M981.35,1188.38c-3.3,4.55-8.35,6.53-12.9,3.23s-4.25-8.72-.94-13.27,15.78-7.2,15.78-7.2S984.66,1183.83,981.35,1188.38Z" style="fill:#f49662"/><path id="path60-7" data-name="path60" d="M869.62,1000.21c-.68,35.85-21.38,70.13-56.38,87.7a111.38,111.38,0,0,1-34.87,10.83,101.58,101.58,0,0,1-94.21-38.11,96.84,96.84,0,0,1-20.53-49.29Z" style="fill:#c93c27;stroke:#000;stroke-width:6.868961867675514px"/><path id="path60-8" data-name="path60" d="M836.22,1005.74c-.48,25.36-15.12,49.6-39.87,62a78.87,78.87,0,0,1-24.66,7.66,71.82,71.82,0,0,1-66.62-27,68.53,68.53,0,0,1-14.52-34.86Z" style="fill:#dd694a"/><path d="M694.77,1038.53a64.83,64.83,0,0,0,26.61,27.41,81,81,0,0,0,37.14,9.81c17.94.51,36.19-4.44,50.76-14.93a75,75,0,0,0,25.05-31.4" style="fill:none;stroke:#000;stroke-width:6.868961867675514px"/><path d="M815,1028.65c3.08,4.63,3.17,10-1.46,13.06s-9.53.93-12.61-3.69-1.23-17.1-1.23-17.1S811.89,1024,815,1028.65Z" style="fill:#f49662"/><path d="M774.81,1045.7c.4,6.88-2.85,12.66-9.73,13.06s-10.78-5-11.18-11.85,9.39-19.06,9.39-19.06S774.41,1038.82,774.81,1045.7Z" style="fill:#f49662"/><path d="M731,1041.11c-2,5.27-6.3,8.52-11.57,6.55s-6.42-7.26-4.45-12.54S728.26,1024,728.26,1024,733,1035.84,731,1041.11Z" style="fill:#f49662"/><path id="path60-9" data-name="path60" d="M1177.72,851.67c-4.75,35.55-29.21,67.25-66,80.73a111.31,111.31,0,0,1-35.88,6.79,101.5,101.5,0,0,1-89.27-48.57,96.89,96.89,0,0,1-14.79-51.3Z" style="fill:#c93c27;stroke:#000;stroke-width:6.868961867675514px"/><path id="path60-10" data-name="path60" d="M1143.91,853.37c-3.36,25.14-20.66,47.56-46.66,57.09a78.8,78.8,0,0,1-25.37,4.81,71.85,71.85,0,0,1-63.13-34.35,68.5,68.5,0,0,1-10.46-36.28Z" style="fill:#dd694a"/><path d="M999.65,869.87A64.77,64.77,0,0,0,1023,900.13a81,81,0,0,0,35.78,14c17.78,2.55,36.47-.3,52.13-9.07a75,75,0,0,0,28.46-28.35" style="fill:none;stroke:#000;stroke-width:6.868961867675514px"/><path d="M1120.19,873.72c2.53,4.95,2,10.28-2.93,12.81s-9.58-.16-12.11-5.11.72-17.12.72-17.12S1117.66,868.77,1120.19,873.72Z" style="fill:#f49662"/><path d="M1078.36,886.09c-.38,6.88-4.27,12.26-11.15,11.87s-10.15-6.16-9.76-13,11.49-17.87,11.49-17.87S1078.75,879.21,1078.36,886.09Z" style="fill:#f49662"/><path d="M1035.35,876.55c-2.56,5-7.24,7.75-12.25,5.2s-5.55-8-3-13,14.47-9.57,14.47-9.57S1037.9,871.54,1035.35,876.55Z" style="fill:#f49662"/><path d="M500.61,1114.15c35.19,9,51.36,30.71,67.75.55,13.56-24.93-16.54-54.16-51.74-63.16s-75.63,2.19-75.71,30.57C440.81,1116.43,465.41,1105.15,500.61,1114.15Z" style="fill:#302226;stroke:#231f20;stroke-miterlimit:10;stroke-width:12px"/><path d="M1228.8,1185.11c35.18,9.09,51.29,30.84,67.76.72,13.61-24.9-16.42-54.21-51.59-63.29s-75.64,2-75.79,30.38C1169,1187.25,1193.63,1176,1228.8,1185.11Z" style="fill:#302226;stroke:#231f20;stroke-miterlimit:10;stroke-width:12px"/><path d="M1590.33,1031.57c-36,4.64-59.08-9.55-63.17,24.53-3.37,28.18,35.4,44.21,71.43,39.57s69.47-30,59.05-56.4C1645.05,1007.34,1626.36,1026.92,1590.33,1031.57Z" style="fill:#302226;stroke:#231f20;stroke-miterlimit:10;stroke-width:12px"/><path d="M753.51,886.38c-36,4.64-59.07-9.55-63.16,24.53-3.37,28.18,35.4,44.21,71.43,39.57s69.47-30,59.05-56.4C808.23,862.15,789.54,881.73,753.51,886.38Z" style="fill:#302226;stroke:#231f20;stroke-miterlimit:10;stroke-width:12px"/><path d="M1244.15,959.75c-36,4.64-59.08-9.55-63.16,24.53-3.38,28.18,35.39,44.21,71.42,39.57s69.47-30,59-56.4C1298.87,935.52,1280.18,955.1,1244.15,959.75Z" style="fill:#302226;stroke:#231f20;stroke-miterlimit:10;stroke-width:12px"/><path d="M1018.66,1000.68c-33.95-12.92-47.56-36.32-67.26-8.21-16.29,23.24,10.31,55.69,44.27,68.61s75.39,6.38,78.68-21.81C1078.33,1005.18,1052.61,1013.61,1018.66,1000.68Z" style="fill:#302226;stroke:#231f20;stroke-miterlimit:10;stroke-width:12px"/><path d="M817.79,1184.75c35.43,8,52.2,29.27,67.74-1.33,12.86-25.3-18-53.68-53.47-61.7s-75.55,4.29-74.84,32.66C758.08,1188.7,782.36,1176.73,817.79,1184.75Z" style="fill:#302226;stroke:#231f20;stroke-miterlimit:10;stroke-width:12px"/><path d="M1509.67,1010.22c-3.43.77-6.59-.11-8.07-3.37-3.85-8.18,1.79-22.23,8.6-24.59,39.44-14,80.38-5.41,105.91,30.17,3.45,4.75-.35,12.21-3,18.09-1.62,3.34-4.49,6.14-6.79,4.73-25-15.34-50.38-30.89-81.72-24.85C1518.57,1011.56,1513.52,1010.26,1509.67,1010.22Z" style="fill:#fffce4;stroke:#231f20;stroke-miterlimit:10;stroke-width:6.5914346335541px"/><path d="M1257.67,1076c-2.64-2-5.81-2.9-8.57-1.58-7,3.26-8.47,14.39-3.59,18.9,28.11,26.39,67.77,39.6,106.13,29.4,5.16-1.35,5.21-7.62,5.53-12.42.09-2.77-1.15-5.78-3.79-6-28.79-1.94-58-3.88-82.6-21.72C1266.05,1079.18,1261.06,1077.7,1257.67,1076Z" style="fill:#fffce4;stroke:#231f20;stroke-miterlimit:10;stroke-width:6.5914346335541px"/><path d="M661.44,957.67c1.58,2.92,4.1,5,7.16,5,7.77-.07,13.64-9.63,11-15.75-14.75-35.62-45.45-64-84.61-70.48-5.25-.9-7.88,4.8-10.15,9-1.23,2.48-1.33,5.73,1,7,25.44,13.61,51.21,27.39,66.33,53.79C655.13,951.3,659.06,954.71,661.44,957.67Z" style="fill:#fffce4;stroke:#231f20;stroke-miterlimit:10;stroke-width:6.5914346335541px"/><path d="M1219.62,895.73c3-1.83,6.27-2,8.72.6,6.27,6.52,5.43,21.63-.26,26-32.84,26-74.38,30.93-110,5.43-4.8-3.39-3.59-11.68-2.95-18.11.46-3.68,2.28-7.25,4.91-6.66,28.63,6.49,57.63,13.09,85.37-2.69C1210.76,897.32,1216,896.93,1219.62,895.73Z" style="fill:#fffce4;stroke:#231f20;stroke-miterlimit:10;stroke-width:6.5914346335541px"/><path d="M444.05,972.6c-3.32-.13-6.42,1-7.92,3.62-3.91,6.73,1.32,16.65,7.9,17.54,38.17,5.48,78.22-6.46,103.78-36.83,3.45-4.06-.1-9.23-2.59-13.34-1.52-2.32-4.26-4.07-6.53-2.7C514,955.83,489,971,458.59,970.51,452.75,970.42,447.81,972.07,444.05,972.6Z" style="fill:#fffce4;stroke:#231f20;stroke-miterlimit:10;stroke-width:6.5914346335541px"/><path d="M967,918.11c3.42-.77,6.59.12,8.07,3.38,3.85,8.18-1.8,22.23-8.6,24.58-39.45,14-80.38,5.42-105.92-30.16-3.44-4.75.36-12.22,3-18.1,1.62-3.33,4.49-6.14,6.79-4.73,25,15.34,50.37,30.9,81.71,24.86C958.09,916.78,963.13,918.08,967,918.11Z" style="fill:#fffce4;stroke:#231f20;stroke-miterlimit:10;stroke-width:6.5914346335541px"/><path d="M1401.34,946.57c2.64,2,5.81,2.91,8.57,1.58,7.06-3.26,8.47-14.38,3.59-18.9-28.11-26.39-67.76-39.6-106.13-29.4-5.16,1.35-5.21,7.62-5.53,12.42-.09,2.77,1.15,5.78,3.8,6,28.79,1.93,57.95,3.87,82.59,21.71C1393,943.37,1398,944.85,1401.34,946.57Z" style="fill:#fffce4;stroke:#231f20;stroke-miterlimit:10;stroke-width:6.5914346335541px"/><path d="M554.74,1130c-1.57-2.92-4.09-5-7.15-5-7.78.07-13.65,9.63-11.05,15.75,14.75,35.62,45.44,64,84.61,70.48,5.25.9,7.88-4.8,10.15-9,1.22-2.48,1.33-5.73-1-7-25.44-13.62-51.21-27.39-66.33-53.8C561.06,1136.41,557.12,1133,554.74,1130Z" style="fill:#fffce4;stroke:#231f20;stroke-miterlimit:10;stroke-width:6.5914346335541px"/><path d="M840.33,1026.56c-1.58-2.93-4.1-5-7.16-5-7.77.06-13.64,9.62-11,15.74,14.75,35.63,45.45,64,84.61,70.49,5.26.89,7.89-4.8,10.15-9,1.23-2.49,1.34-5.74-1-7-25.44-13.62-51.22-27.39-66.33-53.8C846.65,1032.93,842.71,1029.52,840.33,1026.56Z" style="fill:#fffce4;stroke:#231f20;stroke-miterlimit:10;stroke-width:6.5914346335541px"/><path d="M1081.62,1098.24c-3.3-.4-6.48.44-8.19,3-4.44,6.39,0,16.7,6.47,18.12,37.6,8.54,78.48-.13,106.41-28.34,3.77-3.77.64-9.21-1.51-13.51-1.32-2.44-3.92-4.4-6.29-3.22-25.81,12.9-51.94,26-82.23,23.07C1090.47,1096.77,1085.41,1098,1081.62,1098.24Z" style="fill:#fffce4;stroke:#231f20;stroke-miterlimit:10;stroke-width:6.5914346335541px"/></g></svg>