<?xml version="1.0" encoding="UTF-8"?>
<svg xmlns="http://www.w3.org/2000/svg" width="2000" height="2000" viewBox="0 0 2000 2000">
  <g id="Layer_1" data-name="Layer 1">
    <g>
      <g>
        <path d="m69.25,1403.32l52.38,296.56c10.32,29.37,38.5,49.22,69.86,49.22h1617.03c31.36,0,59.54-19.85,69.86-49.22l52.38-296.56" style="fill: #fff; stroke: #231f20; stroke-linecap: round; stroke-linejoin: round; stroke-width: 24.69px;"/>
        <path d="m1959.93,1395.68l-319.53-216.56c-6.27-4.1-13.61-6.28-21.1-6.28H380.7c-7.49,0-14.83,2.18-21.1,6.28l-319.53,216.56c-10.92,7.13-17.51,19.29-17.51,32.33v8.81c0,21.32,17.29,38.61,38.61,38.61h1877.66c21.32,0,38.61-17.29,38.61-38.61v-8.81c0-13.04-6.59-25.2-17.51-32.33Z" style="fill: #fff; stroke: #231f20; stroke-linecap: round; stroke-linejoin: round; stroke-width: 24.69px;"/>
      </g>
      <g>
        <line x1="388.58" y1="1230.34" x2="417.71" y2="1403.32" style="fill: #fff; stroke: #231f20; stroke-linecap: round; stroke-linejoin: round; stroke-width: 24.69px;"/>
        <line x1="1611.42" y1="1230.34" x2="1582.29" y2="1403.32" style="fill: #fff; stroke: #231f20; stroke-linecap: round; stroke-linejoin: round; stroke-width: 24.69px;"/>
      </g>
      <path d="m275.93,1401.04c-3-3.24,3.55-6.55,9.21-10.46,10.38-7.17,22.2-11.54,32.58-18.1,11.47-7.25,21.21-21.42,30.59-31.21,6.04-6.3,12.29-12.75,20.23-16.36,9.97-4.54,28.35-27.59,31.25-28.06,2.29-.37,31.85,7.66,39.22,8.13,29.94,1.92,54.79-.24,84.38-3.77,14.59-1.74,29.29-2.93,43.99-2.29,40.49,1.76,79.93,17.4,120.39,15.04,20.48-1.2,40.34-6.9,60.84-9.52,21.72-2.77,44.61-8.91,66.15-9.71,26.41-.99,53.31,1.2,79.76,1.49,31.25.34,62.51.41,93.77.19,15.63-.11,31.26-.28,46.88-.54,13.33-.22,25.42,3.18,38.64,3.03,14.43-.16,28.26-4.66,42.17-7.76s29.44-4.47,44.31-4.51c30.28-.09,60.3,4.61,90.38,7.43,18.66,1.75,37.44,2.83,56.17,1.62,30.38-1.97,59.32-11.51,89.61-13.37,32.85-2.02,65.73,2.3,98.13,7.31,21.56,3.33,44.86,9.57,66.54,10.31,16.12.55,40.45-11.02,40.45-11.02,0,0,37.04,16.62,51.09,27.93,23.73,19.08,43.01,30.81,70,44.91,28.36,14.81,68.85,20.36,86.5,47.71-10.23.88-20.88.15-31.2.11-42.4-.19-84.81-.38-127.21-.57-66.39-.3-132.78-.59-199.17-.89-81.28-.36-162.55-.73-243.83-1.09-87.06-.39-174.12-.78-261.18-1.17-83.74-.37-167.48-.75-251.23-1.12-71.32-.32-142.64-.64-213.97-.96-49.8-.22-99.6-.44-149.4-.67-13.99-.06-27.97-.12-41.96-.19-2.8-.01-8.75,1.13-11.3-.05-1.31-.61-2.22-1.22-2.79-1.83Z" style="fill: #f9f5f2; stroke: #3a3632; stroke-linecap: round; stroke-linejoin: round; stroke-width: 10px;"/>
    </g>
  </g>
  <g id="Isolation_Mode" data-name="Isolation Mode">
    <g>
      <path d="m1180.06,579.25L572.28,224.96c-44.87-23.9-95.98-17.37-120.3,26.73h0c-24.32,44.1-2,89.74,42.87,113.64l633.84,307.04" style="fill: #231f20;"/>
      <g>
        <path d="m1596.05,1007.74l55.48-100.59c46.71-84.68,14.71-190.54-71.46-236.44l-308.47-164.3c-21.93-11.68-49.34-3.68-61.23,17.87l-112,203.05c-11.89,21.55-3.74,48.49,18.18,60.16l436.85,232.68c15.27,8.13,34.36,2.56,42.64-12.44Z" style="fill: #fff; stroke: #231f20; stroke-linecap: round; stroke-linejoin: round; stroke-width: 27.58px;"/>
        <path d="m1354.46,652.56l163.51,87.09c48.3,25.73,66.23,85.06,40.05,132.52l-19.08,34.59" style="fill: #fff; stroke: #231f20; stroke-linecap: round; stroke-linejoin: round; stroke-width: 27.58px;"/>
      </g>
    </g>
    <line x1="122.43" y1="1407.1" x2="1877.57" y2="1407.1" style="fill: #fff; stroke: #231f20; stroke-linecap: round; stroke-linejoin: round; stroke-width: 24.69px;"/>
  </g>
</svg>