<?xml version="1.0" encoding="UTF-8"?>
<svg id="Layer_1" data-name="Layer 1" xmlns="http://www.w3.org/2000/svg" width="2000" height="2000" viewBox="0 0 2000 2000">
  <g>
    <path d="m947.8,891.27c-19.59-2.42-41.96,5.81-49.63,23.99-4.69,11.11-3.77,25.02-12.27,33.58-2.22,2.23-5.03,4.03-6.41,6.86-3.1,6.38,2.58,13.36,7.81,18.15,12.09,11.06,27.49,22.79,43.22,18.22,7.11-2.06,13.27-7.36,20.66-7.81,6.6-.4,12.78,3.16,19.34,4.04,9.78,1.31,19.57-3.59,26.52-10.58s11.58-15.92,16.09-24.7c20.24-39.35-32.56-57.7-65.33-61.74Z" style="fill: #544e49; stroke: #3a3632; stroke-miterlimit: 10; stroke-width: 10px;"/>
    <path d="m946.81,872.29c-19.59-2.42-41.96,5.81-49.63,23.99-4.69,11.11-3.77,25.02-12.27,33.58-2.22,2.23-5.03,4.03-6.41,6.86-3.1,6.38,2.58,13.36,7.81,18.15,12.09,11.06,27.49,22.79,43.22,18.22,7.11-2.06,13.27-7.36,20.66-7.81,6.6-.4,12.78,3.16,19.34,4.04,9.78,1.31,19.57-3.59,26.52-10.58,6.96-7,11.58-15.92,16.09-24.7,20.24-39.35-32.56-57.7-65.33-61.74Z" style="fill: #f9f5f2; stroke: #3a3632; stroke-miterlimit: 10; stroke-width: 10px;"/>
    <path d="m945.82,853.32c-19.59-2.42-41.96,5.81-49.63,23.99-4.69,11.11-3.77,25.02-12.27,33.58-2.22,2.23-5.03,4.03-6.41,6.86-3.1,6.38,2.58,13.36,7.81,18.15,12.09,11.06,27.49,22.79,43.22,18.22,7.11-2.06,13.27-7.36,20.66-7.81,6.6-.4,12.78,3.16,19.34,4.04,9.78,1.31,19.57-3.59,26.52-10.58s11.58-15.92,16.09-24.7c20.24-39.35-32.56-57.7-65.33-61.74Z" style="fill: #544e49; stroke: #3a3632; stroke-miterlimit: 10; stroke-width: 10px;"/>
  </g>
  <g>
    <g>
      <path d="m69.25,1403.32l52.38,296.56c10.32,29.37,38.5,49.22,69.86,49.22h1617.03c31.36,0,59.54-19.85,69.86-49.22l52.38-296.56" style="fill: #fff; stroke: #231f20; stroke-linecap: round; stroke-linejoin: round; stroke-width: 24.69px;"/>
      <path d="m1959.93,1395.68l-319.53-216.56c-6.27-4.1-13.61-6.28-21.1-6.28H380.7c-7.49,0-14.83,2.18-21.1,6.28l-319.53,216.56c-10.92,7.13-17.51,19.29-17.51,32.33v8.81c0,21.32,17.29,38.61,38.61,38.61h1877.66c21.32,0,38.61-17.29,38.61-38.61v-8.81c0-13.04-6.59-25.2-17.51-32.33Z" style="fill: #fff; stroke: #231f20; stroke-linecap: round; stroke-linejoin: round; stroke-width: 24.69px;"/>
    </g>
    <g>
      <line x1="388.58" y1="1230.34" x2="417.71" y2="1403.32" style="fill: #fff; stroke: #231f20; stroke-linecap: round; stroke-linejoin: round; stroke-width: 24.69px;"/>
      <line x1="1611.42" y1="1230.34" x2="1582.29" y2="1403.32" style="fill: #fff; stroke: #231f20; stroke-linecap: round; stroke-linejoin: round; stroke-width: 24.69px;"/>
    </g>
    <path d="m275.93,1401.04c-3-3.24,3.55-6.55,9.21-10.46,10.38-7.17,22.2-11.54,32.58-18.1,11.47-7.25,21.21-21.42,30.59-31.21,6.04-6.3,12.29-12.75,20.23-16.36,9.97-4.54,28.35-27.59,31.25-28.06,2.29-.37,31.85,7.66,39.22,8.13,29.94,1.92,54.79-.24,84.38-3.77,14.59-1.74,29.29-2.93,43.99-2.29,40.49,1.76,79.93,17.4,120.39,15.04,20.48-1.2,40.34-6.9,60.84-9.52,21.72-2.77,44.61-8.91,66.15-9.71,26.41-.99,53.31,1.2,79.76,1.49,31.25.34,62.51.41,93.77.19,15.63-.11,31.26-.28,46.88-.54,13.33-.22,25.42,3.18,38.64,3.03,14.43-.16,28.26-4.66,42.17-7.76s29.44-4.47,44.31-4.51c30.28-.09,60.3,4.61,90.38,7.43,18.66,1.75,37.44,2.83,56.17,1.62,30.38-1.97,59.32-11.51,89.61-13.37,32.85-2.02,65.73,2.3,98.13,7.31,21.56,3.33,44.86,9.57,66.54,10.31,16.12.55,40.45-11.02,40.45-11.02,0,0,37.04,16.62,51.09,27.93,23.73,19.08,43.01,30.81,70,44.91,28.36,14.81,68.85,20.36,86.5,47.71-10.23.88-20.88.15-31.2.11-42.4-.19-84.81-.38-127.21-.57-66.39-.3-132.78-.59-199.17-.89-81.28-.36-162.55-.73-243.83-1.09-87.06-.39-174.12-.78-261.18-1.17-83.74-.37-167.48-.75-251.23-1.12-71.32-.32-142.64-.64-213.97-.96-49.8-.22-99.6-.44-149.4-.67-13.99-.06-27.97-.12-41.96-.19-2.8-.01-8.75,1.13-11.3-.05-1.31-.61-2.22-1.22-2.79-1.83Z" style="fill: #f9f5f2; stroke: #3a3632; stroke-linecap: round; stroke-linejoin: round; stroke-width: 10px;"/>
    <path d="m420.24,1361.02c8.81,3.01,17.11,7.49,24.46,13.21-2.99,2.74-6.03,5.53-9.71,7.25-3.67,1.72-8.14,2.24-11.74.37-4.04-2.09-6.34-6.75-10.48-8.61-6.41-2.88-27.38,6.32-23.78-7.03,3.15-11.68,23.72-7.77,31.25-5.2Z" style="fill: #544e49; stroke: #3a3632; stroke-linecap: round; stroke-linejoin: round; stroke-width: 10px;"/>
    <path d="m820.02,1365.64c2.35,1.03,4.73,2.33,6.08,4.51s1.24,5.45-.86,6.92c-31.14-10.12-67.84,3.85-96.59-11.81-6.89-3.75-13.55-11.4-10.55-18.65,1.73-4.17,6.3-6.62,10.8-7.04s8.97.83,13.28,2.21c14.31,4.57,27.12,12.95,41.17,17.65,12.02,4.02,24.64.94,36.69,6.23Z" style="fill: #544e49; stroke: #3a3632; stroke-linecap: round; stroke-linejoin: round; stroke-width: 10px;"/>
    <path d="m919.08,1350.42c-2.12.57-4.39,1.24-5.78,2.94-2.79,3.42-.02,9.01,4.1,10.59,4.12,1.58,8.74.41,12.96-.87,15.1-4.58,29.79-10.41,44.46-16.23,2.93-1.16,6.15-2.61,7.31-5.54,4.69-11.91-23.12-1.67-25.89-.92-12.39,3.35-24.78,6.69-37.17,10.04Z" style="fill: #544e49; stroke: #3a3632; stroke-linecap: round; stroke-linejoin: round; stroke-width: 10px;"/>
    <path d="m522.89,1318.66c-6.4,2.56-12.23,9.67-9.32,15.92,1.83,3.93,6.34,5.79,10.57,6.71,15.96,3.5,32.09,2.76,48.13,6.58,8.21,1.95,28.05.98,22.3-12.6-6.79-16.04-58.82-21.76-71.69-16.61Z" style="fill: #544e49; stroke: #3a3632; stroke-linecap: round; stroke-linejoin: round; stroke-width: 10px;"/>
    <path d="m1615.28,1347.67c4.56.14,9.33.37,13.25,2.69s6.58,7.46,4.59,11.56c-56.34,9.17-114.04,9.92-170.6,2.21-1.09-3.7,1.42-7.68,4.77-9.58,10.23-5.79,27.79-3.49,39.24-4.4,8.61-.69,17.19-1.75,25.81-2.25,27.65-1.59,55.29-.23,82.94-.23Z" style="fill: #544e49; stroke: #3a3632; stroke-linecap: round; stroke-linejoin: round; stroke-width: 10px;"/>
    <path d="m1296.95,1366.65c3.35,1.11,7.2,2.76,7.98,6.21.7,3.1-1.67,6.24-4.59,7.5-2.92,1.26-6.23,1.1-9.41.91-43.23-2.62-86.71-7.74-127.68-21.76-9.87-3.38-30.89-16.97-17.59-29.15,8.8-8.06,30.21.8,39.59,3.24,37.59,9.78,74.85,20.81,111.71,33.06Z" style="fill: #544e49; stroke: #3a3632; stroke-linecap: round; stroke-linejoin: round; stroke-width: 10px;"/>
    <line x1="122.43" y1="1407.1" x2="1877.57" y2="1407.1" style="fill: #fff; stroke: #231f20; stroke-linecap: round; stroke-linejoin: round; stroke-width: 24.69px;"/>
  </g>
  <g>
    <path d="m937.47,174.99s20.55,53.52,33.92,77.1c18.9,33.31,110.62,174.84,139.59,211.74,40.33,51.37,101.3,105.09,123.75,166.88,18.56,51.09,21.93,112.86,25.49,167.49,3.64,55.89,2.37,114.01-15.19,169.45-3.72,11.74-8.88,24.59-20.01,32.21-2.77,1.89-5.95,3.77-9.37,3.58-4.5-.25-9.24-2.88-13.7-3.71-.45-.08-.89-.18-1.34-.26-.13.68-.27,1.35-.41,2.03-3.85,18.5-12.39,64.7-42.37,58.4-11.56-2.43-16.35-14.92-19.51-26.68-1.32,6.4-2.85,12.78-4.67,19.13-3.39,11.85-8.43,24.46-19.3,32.12-6.57,4.63-16.25,7.36-23.12,3.3-4.23-2.5-7.07-6.59-9.45-10.75-13.28-23.27-13.56-52.31-15.89-78.76-.81-9.26-1.47-18.57-2.04-27.91-1.34,6.56-2.9,13.09-4.76,19.6-3.39,11.85-8.43,24.45-19.31,32.12-5.78,4.08-16.05,7.52-22.75,4.81-7.73-3.13-10.92-14.68-12.56-21.81-5.04-22-8.96-43.31-11.15-65.9-2.32-23.94-3.48-46.2-3.04-70.34.46-25.03-5.06-52.79-6.96-77.61-4.09-53.33-13.12-106.78-36.61-154.17-5.75-9.52-10.85-18.35-14.88-26.11l7.48-15.79c-23.5,41.15-31.09,93.99-23.1,137.51,3.85,20.98,24.24,84.98,17.64,107.22-6.46,21.77-32.07,30.49-47.21,16.73-27.03-24.57-45.39-99.36-57.16-132.04-38.09-105.77-62.89-139.95-67.8-257.13-2.17-51.78,23.47-106.68-23.57-222.2,0,0,199.35-70.24,199.35-70.24Z" style="fill: #fff;"/>
    <g>
      <path d="m738.12,245.23c47.04,115.52,21.39,170.42,23.57,222.2,4.92,117.18,29.71,151.36,67.8,257.13,11.77,32.68,30.13,107.47,57.16,132.04,15.14,13.77,40.76,5.05,47.21-16.73,6.6-22.25-13.79-86.25-17.64-107.22-6.99-38.07,1.17-84.25,15.62-121.72" style="fill: none; stroke: #3a3632; stroke-linecap: round; stroke-miterlimit: 10; stroke-width: 20px;"/>
      <path d="m1201.95,999.73c4.46.84,9.2,3.46,13.7,3.71,3.42.19,6.6-1.69,9.37-3.58,11.13-7.61,16.29-20.47,20.01-32.21,17.56-55.44,18.83-113.56,15.19-169.45-3.56-54.63-6.93-116.4-25.49-167.49-22.45-61.79-83.42-115.51-123.75-166.88-28.97-36.9-120.69-178.43-139.59-211.74-13.37-23.58-33.92-77.1-33.92-77.1" style="fill: none; stroke: #3a3632; stroke-linecap: round; stroke-miterlimit: 10; stroke-width: 20px;"/>
      <path d="m1198.89,696.31c3.03,47.76,6.7,95.44,8.39,143.36,1.23,34.84,1.47,69.81-.47,104.86-1.05,19-2.68,38.08-6.61,56.97-3.85,18.5-12.39,64.7-42.37,58.4-11.56-2.43-16.35-14.92-19.51-26.67" style="fill: none; stroke: #3a3632; stroke-linecap: round; stroke-miterlimit: 10; stroke-width: 20px;"/>
      <path d="m1142.32,708.89c4.54,72.73,9.73,194.85,3.38,268.57-2.15,25-4.96,50.16-12.04,74.88-3.39,11.85-8.43,24.45-19.3,32.12-6.57,4.63-16.25,7.36-23.12,3.3-4.23-2.5-7.07-6.59-9.45-10.75-13.28-23.27-13.56-52.31-15.89-78.76-.81-9.25-1.47-18.55-2.04-27.88" style="fill: none; stroke: #3a3632; stroke-linecap: round; stroke-miterlimit: 10; stroke-width: 20px;"/>
      <path d="m1073.87,695.05c4.54,72.73,3.62,146.29-2.73,220.01-2.15,25-4.96,50.16-12.04,74.88-3.39,11.85-8.43,24.45-19.31,32.12-5.78,4.08-16.05,7.52-22.75,4.81-7.73-3.13-10.92-14.68-12.56-21.81-5.04-22-8.96-43.31-11.15-65.9-2.32-23.94-3.48-46.2-3.04-70.34.46-25.03-5.06-52.79-6.96-77.61-4.86-63.38-16.7-126.94-51.48-180.28" style="fill: none; stroke: #3a3632; stroke-linecap: round; stroke-miterlimit: 10; stroke-width: 20px;"/>
    </g>
  </g>
</svg>