<svg xmlns="http://www.w3.org/2000/svg" height="1208.72" width="1924"  xmlns:v="https://vecta.io/nano"><g fill="#fff" stroke="#231f20" stroke-width="24" stroke-linejoin="round"><path d="M57.37 860.66l50.9 288.23a72.06 72.06 0 0 0 67.9 47.83h1571.64a72.06 72.06 0 0 0 67.9-47.83l50.9-288.23" stroke-linecap="round"/><path d="M1895 853.23l-310.55-202.68a37.54 37.54 0 0 0-20.51-6.1H360.08a37.54 37.54 0 0 0-20.51 6.1L29 853.23a37.53 37.53 0 0 0-17 31.43v8.56a37.52 37.52 0 0 0 37.52 37.52h1825a37.52 37.52 0 0 0 37.48-37.52v-8.56a37.53 37.53 0 0 0-17-31.43z"/></g><path d="M169.84 864.32c17.67-12.17 35.9-24.15 50.28-40.23 14.78-16.52 26.9-35.78 45.34-48.66 25.7-18 58.9-21.27 83.26-42.2 18.3-15.7 30.56-26.9 56.44-28 22.86-1 45.76 4.16 68.55 2 21.23-2 41.4-10.2 62.5-13.27 36.8-5.33 71.73 15.2 107.35 10.87 19.1-2.33 38.06-2.56 57.2-2.47 18 .1 35.82-4.75 54.18-4.94 42.47-.45 84.17 10.15 126.6 10.43 23.6.16 46.16-3.63 69-9 20.32-4.72 43-2.67 64.1-4 22.7-1.4 46.18-2.92 68.5 2.53 10.13 2.47 18.82 8.48 28.65 11.3 8.74 2.53 15.86.93 25.25 1.23a84.68 84.68 0 0 1 53.3 21.06c13.9 12.4 23.17 29 32.2 45.3l50.17 90.53" fill="#d8a628" stroke="#050303" stroke-width="7.799"/><path d="M109.07 864.34h1705.86" fill="#fff" stroke="#231f20" stroke-width="15.044" stroke-linecap="round" stroke-linejoin="round"/><path d="M746 766.72c45.35 62.38 164.72 54.68 233.68 3s151-236.1 151-236.1l623.4-453.3c16.872-12.266 20.606-35.888 8.34-52.76s-35.888-20.606-52.76-8.34l-623.5 453.35c-90.82 17-197.6 18-271 71.07C731.6 604.1 700.6 704.32 746 766.72z" fill="#231f20"/></svg>