<?xml version="1.0" encoding="UTF-8"?>
<svg id="Isolation_Mode" data-name="Isolation Mode" xmlns="http://www.w3.org/2000/svg" width="2000" height="2000" viewBox="0 0 2000 2000">
  <g>
    <g>
      <path d="M1688.06,1295.66s14.77-41.86-69.49-105.78c-103.27-78.34-413.4-101.89-528.66-44.72l-673.41,235.68c-16.36,3.98-31.03,9.04-43.52,15.23-66.85,33.16-61.95,95.31-61.95,95.31l34.21,336.02,615.74,148.54h0l681.37-386,45.71-294.27" style="fill: #ddb9a2; isolation: isolate; opacity: .99; stroke: #3a3632; stroke-linecap: round; stroke-linejoin: round; stroke-width: 20.11px;"/>
      <g id="layer3">
        <g id="g877">
          <path id="rect866" d="M970.48,1576.6l717.58-280.94-45.71,294.27-681.37,386,9.5-399.34Z" style="fill: #d6b196; isolation: isolate; opacity: .99; stroke: #3a3632; stroke-linecap: round; stroke-linejoin: round; stroke-width: 20.11px;"/>
        </g>
      </g>
      <path d="M1073.97,1138.27c143.27-75.21,435.67-34.43,541.44,45.81,33.76,25.61,73,61.63,73.64,107.54,.13,9.42-2.12,19.17-8.08,26.47-8.06,9.86-21.54,13.69-34.27,14.03-12.73,.34-25.37-2.23-38.1-2.6-19.38-.57-36.1,7.19-49.98,20.47-12.48,11.94-23.88,26.06-39.98,32.32-20.65,8.03-45.42,1.54-64.9,12.1-21.75,11.8-30.8,41.79-54.45,49.06-16.47,5.06-34.17-2.98-51.33-1.42-31.09,2.82-50.34,34.53-77.15,50.51-24.7,14.72-54.88,15.48-83.44,18.82-17.66,2.07-35.82,5.65-51.65,14.08-15.29,8.14-23.13,24.04-38.12,31.79-23.09,11.94-52.51-.19-76.65,9.45-13.43,5.37-23.7,16.94-37.21,22.1-24.73,9.44-53.37-6.09-67.59-28.41-9.02-14.15-11.58-29.99-22.53-42.65-10.92-12.64-24.25-24.63-41.34-27.36-18.06-2.88-35.94,5.26-54.16,6.92-26.01,2.36-52.86-9.62-68.48-30.54-8-10.72-14.48-24.54-27.36-28.16-15.74-4.42-31.47,9.25-47.76,7.86-10.67-.91-19.69-8.13-27.28-15.68-7.6-7.56-14.8-15.98-24.52-20.49-21.19-9.83-34.38,13.88-55.04,10.87-15.41-2.25-26.99-17.3-42.54-18.25-19.14-1.16-31.6,18.68-49.58,19.29-22.71,.77-36.96-19.97-62.6-10.66-11.09,4.03-20.32,11.82-30.24,18.2-9.92,6.38-21.63,11.57-33.23,9.39-9.47-1.78-18.21-10.28-18.53-20.18-.35-10.94,10.11-19.39,18.33-24.86,22.31-14.85,48.41-22.93,74.51-29.07,27.38-6.44,54.9-11.41,81.4-20.69,58.87-20.6,117.74-41.21,176.6-61.81,113.28-39.65,226.57-79.29,339.85-118.94,23.19-8.12,50.49-13.85,72.32-25.31Z" style="fill: #c54941; isolation: isolate; opacity: .99; stroke: #3a3632; stroke-linecap: round; stroke-linejoin: round; stroke-width: 20.6px;"/>
    </g>
    <g>
      <path d="M548.64,1567.25l2.51,1.83c5.63,4.1,13.53,2.72,17.44-3.04l5.62-8.28c5.5-8.09,17.77-6.86,21.55,2.16h0c3.78,9.02,16.06,10.26,21.55,2.16h0c5.5-8.09,17.77-6.86,21.55,2.16l3.86,9.23c2.69,6.42,10.16,9.34,16.49,6.44l2.82-1.29" style="fill: none; stroke: #3a3632; stroke-linecap: round; stroke-miterlimit: 10; stroke-width: 8.31px;"/>
      <path d="M605.34,1694.05l2.51,1.83c5.63,4.1,13.53,2.72,17.44-3.04l5.62-8.28c5.5-8.09,17.77-6.86,21.55,2.16h0c3.78,9.02,16.06,10.26,21.55,2.16h0c5.5-8.09,17.77-6.86,21.55,2.16l3.86,9.23c2.69,6.42,10.16,9.34,16.49,6.44l2.82-1.29" style="fill: none; stroke: #3a3632; stroke-linecap: round; stroke-miterlimit: 10; stroke-width: 8.31px;"/>
      <path d="M746.48,1816.69l2.3,2.08c5.16,4.67,13.17,4.13,17.66-1.18l6.46-7.64c6.32-7.47,18.4-4.95,21.2,4.42h0c2.81,9.37,14.89,11.89,21.2,4.42h0c6.32-7.47,18.4-4.95,21.2,4.42l2.87,9.58c2,6.67,9.12,10.36,15.72,8.14l2.94-.99" style="fill: none; stroke: #3a3632; stroke-linecap: round; stroke-miterlimit: 10; stroke-width: 8.31px;"/>
      <path d="M1044.58,1812.58l2.99,.81c6.72,1.81,13.61-2.3,15.2-9.08l2.29-9.74c2.24-9.52,14.14-12.76,20.9-5.69h0c6.75,7.07,18.66,3.83,20.9-5.69h0c2.24-9.52,14.14-12.76,20.9-5.69l6.91,7.24c4.81,5.03,12.83,5.09,17.7,.12l2.17-2.21" style="fill: none; stroke: #3a3632; stroke-linecap: round; stroke-miterlimit: 10; stroke-width: 8.31px;"/>
      <path d="M1465.89,1480.97l3.07,.44c6.89,1,13.24-3.91,14.01-10.83l1.11-9.94c1.08-9.72,12.52-14.36,20.07-8.15h0c7.55,6.22,18.99,1.57,20.07-8.15h0c1.08-9.72,12.52-14.36,20.07-8.15l7.72,6.36c5.37,4.42,13.35,3.52,17.59-2l1.89-2.46" style="fill: none; stroke: #3a3632; stroke-linecap: round; stroke-miterlimit: 10; stroke-width: 8.31px;"/>
      <path d="M1388.01,1660.52l3.07,.44c6.89,1,13.24-3.91,14.01-10.83l1.11-9.94c1.08-9.72,12.52-14.36,20.07-8.15h0c7.55,6.22,18.99,1.57,20.07-8.15h0c1.08-9.72,12.52-14.36,20.07-8.15l7.72,6.36c5.37,4.42,13.35,3.52,17.59-2l1.89-2.46" style="fill: none; stroke: #3a3632; stroke-linecap: round; stroke-miterlimit: 10; stroke-width: 8.31px;"/>
      <path d="M1134.06,1655.55l2.68,1.56c6.01,3.51,13.74,1.33,17.04-4.79l4.75-8.81c4.64-8.61,16.99-8.63,21.66-.04h0c4.67,8.59,17.02,8.57,21.66-.04h0c4.64-8.61,16.99-8.63,21.66-.04l4.78,8.79c3.33,6.12,11.06,8.26,17.06,4.73l2.67-1.57" style="fill: none; stroke: #3a3632; stroke-linecap: round; stroke-miterlimit: 10; stroke-width: 8.31px;"/>
      <path d="M1301.94,1586.26l3.01,.75c6.75,1.69,13.57-2.54,15.04-9.35l2.11-9.78c2.07-9.56,13.91-13.01,20.79-6.06h0c6.88,6.95,18.73,3.5,20.79-6.06h0c2.07-9.56,13.91-13.01,20.79-6.06l7.04,7.11c4.9,4.95,12.92,4.86,17.7-.2l2.13-2.25" style="fill: none; stroke: #3a3632; stroke-linecap: round; stroke-miterlimit: 10; stroke-width: 8.31px;"/>
      <path d="M747.88,1621.66l2.09,2.29c4.68,5.15,12.7,5.4,17.7,.55l7.18-6.97c7.02-6.82,18.79-3.13,20.67,6.47h0c1.88,9.6,13.65,13.29,20.67,6.47h0c7.02-6.82,18.79-3.13,20.67,6.47l1.92,9.82c1.34,6.83,8.06,11.2,14.85,9.64l3.02-.7" style="fill: none; stroke: #3a3632; stroke-linecap: round; stroke-miterlimit: 10; stroke-width: 8.31px;"/>
      <path d="M476.74,1753l2.38,1.99c5.35,4.46,13.32,3.6,17.6-1.89l6.15-7.89c6.01-7.72,18.18-5.68,21.36,3.57h0c3.18,9.25,15.35,11.28,21.36,3.57h0c6.01-7.72,18.18-5.68,21.36,3.57l3.25,9.46c2.26,6.58,9.53,9.98,16.03,7.51l2.9-1.1" style="fill: none; stroke: #3a3632; stroke-linecap: round; stroke-miterlimit: 10; stroke-width: 8.31px;"/>
      <path d="M396.98,1667.38l2.78,1.37c6.24,3.08,13.8,.39,16.67-5.95l4.13-9.11c4.04-8.91,16.35-9.78,21.61-1.53h0c5.25,8.25,17.56,7.38,21.61-1.53h0c4.04-8.91,16.35-9.78,21.61-1.53l5.37,8.44c3.74,5.87,11.6,7.48,17.34,3.55l2.56-1.75" style="fill: none; stroke: #3a3632; stroke-linecap: round; stroke-miterlimit: 10; stroke-width: 8.31px;"/>
      <path d="M384.53,1516.55l2.91,1.08c6.53,2.42,13.76-1.04,15.97-7.64l3.17-9.49c3.1-9.28,15.26-11.41,21.33-3.75h0c6.08,7.66,18.23,5.53,21.33-3.75h0c3.1-9.28,15.26-11.41,21.33-3.75l6.22,7.84c4.32,5.46,12.31,6.25,17.62,1.74l2.37-2.01" style="fill: none; stroke: #3a3632; stroke-linecap: round; stroke-miterlimit: 10; stroke-width: 8.31px;"/>
    </g>
  </g>
  <g>
    <path d="M1165.01,579.25L567.76,224.96c-44.1-23.9-94.32-17.37-118.22,26.73h0c-23.9,44.1-1.96,89.74,42.13,113.64l622.86,307.04" style="fill: #231f20;"/>
    <g>
      <path d="M1402.05,478.3h114.41c17.06,0,30.91,13.85,30.91,30.91v488.29c0,24.49-19.89,44.38-44.38,44.38h-230.96c-24.49,0-44.38-19.89-44.38-44.38v-344.8c0-96.26,78.15-174.4,174.4-174.4Z" transform="translate(2716.93 -97.56) rotate(118.46)" style="fill: #fff; stroke: #231f20; stroke-linecap: round; stroke-linejoin: round; stroke-width: 27.58px;"/>
      <path d="M1336.39,652.56l160.68,87.09c47.46,25.73,65.08,85.06,39.36,132.52l-18.75,34.59" style="fill: #fff; stroke: #231f20; stroke-linecap: round; stroke-linejoin: round; stroke-width: 27.58px;"/>
    </g>
  </g>
</svg>