<?xml version="1.0" encoding="UTF-8"?>
<svg id="Layer_1" data-name="Layer 1" xmlns="http://www.w3.org/2000/svg" width="2000" height="1246" viewBox="0 0 2000 1246">
  <g>
    <path d="M1982.77,644.09c0,278.86-440,504.92-982.77,504.92-542.77,0-982.77-226.06-982.77-504.92,0-278.86,440-504.92,982.77-504.92,542.77,0,982.77,226.06,982.77,504.92Z" style="fill: #fff; stroke: #3a3632; stroke-miterlimit: 10; stroke-width: 20px;"/>
    <path d="M1618.31,644.09c0,149.59-276.83,270.86-618.31,270.86-341.48,0-618.31-121.27-618.31-270.86,0-149.59,276.83-270.86,618.31-270.86,341.48,0,618.31,121.27,618.31,270.86Z" style="fill: #fff; stroke: #3a3632; stroke-miterlimit: 10; stroke-width: 20px;"/>
  </g>
  <g>
    <path d="M1552.06,532.17c-8.65,6.93-22.97,12.2-21.38,38.01l24.61,374.63-2.33,85.67c1.09,17.67-16.01,32.04-38.19,32.04H486.17c-22.18,0-39.27-14.37-38.19-32.04l-2.33-85.68,24.75-371.69c1.76-28.59-17.93-34.88-24.85-40.67-30.82-26.02-46.74-38.28-48.45-75.69-.26-5.74-.19-67.56,.22-73.25,9.74-136.6,285.84-248.63,603.18-248.63,97.19,0,189.91,10.47,272.28,28.7,176.53,44.67,301.71,117.78,326.52,197.53,2.11,7.39,3.82,65.73,4.36,73.3,3.21,45.34-13.65,67.12-51.58,97.75Z" style="fill: #e2c4a6; stroke: #3a3632; stroke-miterlimit: 10; stroke-width: 20px;"/>
    <path d="M482.66,961.8c-14.26,0-25.33-9.04-24.66-20.12l27.8-433.08c1.9-31.68-20.71-50.07-28.12-56.09-33.17-27.23-49.62-34.99-46.88-74.16,2.16-30.91,19.49-61.09,51.37-89.71,31.15-27.97,74.58-53.15,129.03-74.9,54.66-21.83,117.29-38.95,186.24-50.93,71.54-12.44,146.53-18.73,223.06-18.73,92.04,0,184.79,9.56,268.53,27.71,85.56,21.24,159.97,49.5,215.17,81.83,27.52,16.11,50.18,33.16,67.34,50.66,17.27,17.62,28.93,35.71,34.63,53.76,2.35,8.15,3.59,14.42,4,20.34,2.89,41.67-14.59,50.93-50.09,78.8-9.96,7.76-26.52,25.1-24.81,53.64l27.67,430.88c.66,11.08-10.4,20.12-24.66,20.12H482.66Z" style="fill: #ffedd9;"/>
    <path d="M485.8,508.6c-1.92-19.94-11.41-36.07-26.73-48.72-4.21-3.48-10.92-8.65-15.31-12.18-24.89-19.68-40.69-35.22-32.96-69.35,2.29,25.91,7.22,36.14,27.7,52.36,6.38,5.15,12.9,10.2,19.22,15.47,5.21,4.32,10.55,8.92,14.81,14.22,11.16,13.15,17.07,31.16,13.29,48.2h0Z" style="fill: #3a3632;"/>
    <path d="M1542.94,941.68c.66,5.91-2.4,11.76-7.03,15.4-5.79,4.79-13.57,6.43-20.96,6.38-7.32,.26-22.67,.82-30.26,1.09-328.43,9.95-657.3,10.09-985.72-.61l-8.65-.31-4.32-.16c-7.39,.04-15.19-1.59-20.96-6.39-4.62-3.64-7.73-9.49-7.03-15.41-.02,12.05,12.88,19.06,23.72,18.57,322.62-11.06,645.71-11.1,968.38-2.31,21.03,.57,48.1,1.59,69.13,2.31,10.82,.49,23.78-6.53,23.72-18.58h0Z" style="fill: #3a3632;"/>
    <path d="M1586.16,358.03c6.53,14.28,8.94,29.97,6.53,45.71-3,20.44-20.01,34.71-35.45,46.34-5.1,3.88-12.98,9.54-17.91,13.46-6.86,5.71-12.67,12.71-16.8,20.64-2.9,5.71-5.01,11.88-6.13,18.19-.52,2.68-.82,5.7-1.14,8.43-.32-1.87-.62-3.78-.84-5.69-1.79-17.96,6.01-35.89,19.02-48.14,8.05-7.38,18.11-14.73,26.46-21.72,8.22-6.79,16.41-14,21.36-23.52,4.98-9.62,6.26-20.31,6.57-31.3,.36-7.49-.62-14.98-1.67-22.41h0Z" style="fill: #3a3632;"/>
    <g>
      <path d="M677.4,480.13c-19.8-.42-35.91-14.54-35.91-31.52s16.11-30.32,35.91-29.78c19.73,.54,35.67,14.65,35.67,31.52s-15.94,30.21-35.67,29.78Z" style="fill: #e2c4a6;"/>
      <path d="M677.4,480.13c-23.41-.16-46.1-20.82-36.09-45.19,13.07-28.85,58.46-27.45,71.48,.72,10.86,24.66-11.26,45.32-35.39,44.47h0Zm0,0c22.12,.82,42.23-20.08,29.2-41.13-12.73-19.37-46.22-20.76-59.07-.88-4.27,6.68-4.68,15.47-1.35,22.8,5.3,11.88,18.37,18.95,31.23,19.21h0Z" style="fill: #3a3632;"/>
    </g>
    <g>
      <path d="M1006.12,400.67c-16.6,.05-30.1-11.56-30.1-25.92s13.5-25.98,30.1-25.95c16.55,.03,29.93,11.64,29.93,25.92s-13.38,25.9-29.93,25.95Z" style="fill: #e2c4a6;"/>
      <path d="M1006.12,400.67c-20.13,.38-39.13-17.22-30.62-38.02,10.82-24.91,50.03-25.04,61.01-.2,8.68,20.77-10.23,38.48-30.38,38.22h0Zm0,0c18.25,.26,34.97-17.7,24.15-34.96-10.71-15.9-37.95-15.86-48.56,.13-10.67,17.38,6.12,35.17,24.42,34.83h0Z" style="fill: #3a3632;"/>
    </g>
    <g>
      <path d="M1280.98,617.08c-14.48,.33-26.24-9.3-26.24-21.5s11.77-22.32,26.24-22.59c14.44-.27,26.12,9.36,26.12,21.5s-11.68,22.26-26.12,22.59Z" style="fill: #e2c4a6;"/>
      <path d="M1280.98,617.08c-17.66,.71-34.65-13.96-26.9-32.42,9.48-21.47,44.05-22.5,53.84-.75,7.55,18.19-9.71,33.09-26.94,33.17h0Zm0,0c6.31-.17,12.61-2.51,17.16-6.71,6.56-5.66,8.88-16.06,3.57-23.14-9.58-12.91-32.14-12.04-41.5,.75-9.89,14.81,5.15,29.76,20.76,29.1h0Z" style="fill: #3a3632;"/>
    </g>
    <g>
      <path d="M929.56,788.6c-6.97-.03-12.62-4.71-12.62-10.46s5.65-10.37,12.62-10.33c6.96,.04,12.59,4.73,12.59,10.46s-5.63,10.36-12.59,10.33Z" style="fill: #e2c4a6;"/>
      <path d="M929.56,788.6c-8.84,.19-18.05-6.72-14.54-16.43,3.8-10.07,18.08-12.34,25.58-5.08,4.53,3.93,5.79,11.6,1.74,16.19-3.13,3.8-8.17,5.31-12.78,5.32h0Zm0,0c5.46,.22,11.8-4.6,10.08-10.36-2.55-7.17-17.72-7.35-20.21-.07-1.63,5.77,4.66,10.59,10.13,10.43h0Z" style="fill: #3a3632;"/>
    </g>
    <g>
      <path d="M1060.87,660.51c-11.2,.07-20.3-7.49-20.3-16.88s9.1-17.03,20.3-17.06c11.18-.03,20.23,7.52,20.23,16.88s-9.05,16.99-20.23,17.06Z" style="fill: #e2c4a6;"/>
      <path d="M1060.87,660.51c-13.72,.34-27.36-10.96-21.55-25.56,7.46-17.61,35.46-17.83,43.04-.19,5.85,14.55-7.82,25.93-21.49,25.75h0Zm0,0c9.15,.19,19.27-7.32,17.71-17.06-3.07-14.04-25.11-15.44-33.13-5.18-4.27,5.09-2.85,13.01,2.13,17.3,3.49,3.23,8.41,4.96,13.28,4.94h0Z" style="fill: #3a3632;"/>
    </g>
    <g>
      <path d="M618.14,819.49c-14.18-.36-25.71-9.96-25.71-21.44s11.53-20.46,25.71-20.05c14.15,.41,25.59,10.01,25.59,21.44s-11.44,20.41-25.59,20.05Z" style="fill: #e2c4a6;"/>
      <path d="M618.14,819.49c-16.48-.14-34.09-13.67-26.53-31.52,9.68-20.52,43.07-19.42,52.61,.66,8.1,18.16-8.96,31.58-26.08,30.87h0Zm0,0c8.87,.25,18.46-4.09,22.05-12.41,3.44-7.63-.9-16.01-7.7-19.91-10.54-6.35-26.77-5.9-34.79,4.21-5.3,6.69-2.62,16.69,3.79,21.87,4.5,3.92,10.57,6.07,16.65,6.25h0Z" style="fill: #3a3632;"/>
    </g>
    <g>
      <path d="M1194.68,909.22c-11.12,9.18-29.42,9.23-40.85,.08-11.43-9.15-11.6-23.99-.42-33.13,11.15-9.11,29.38-9.1,40.75,0,11.37,9.1,11.62,23.88,.53,33.04Z" style="fill: #e2c4a6;"/>
      <path d="M1194.68,909.22c-13.78,11.06-37.08,10.74-48.82-3.43-5.29-6.29-6.66-15.92-3.22-23.55,4.81-11.3,17.92-17.6,29.51-17.17,14.7,.08,30.67,10.5,31.27,26.06,.25,7.09-3.32,13.75-8.73,18.09h0Zm0,0c5.24-4.35,8.56-11.12,7.36-17.96-1.53-9.86-11.16-16.13-20.42-17.38-8.68-1.32-18.54,.8-25.13,6.24-9.8,7.77-8.9,20.9,.96,28.73,10.1,8.33,26.79,8.99,37.23,.37h0Z" style="fill: #3a3632;"/>
    </g>
    <g>
      <path d="M1368.47,823.48c-11.99,.34-21.72-7.38-21.72-17.25s9.74-18.1,21.72-18.4c11.96-.3,21.64,7.42,21.64,17.25s-9.68,18.06-21.64,18.4Z" style="fill: #e2c4a6;"/>
      <path d="M1368.47,823.48c-14.69,.68-29.23-10.94-22.69-26.58,7.96-18,37.25-19.06,45.5-.75,6.32,15.31-8.62,27.22-22.81,27.33h0Zm0,0c9.68-.06,20.45-7.86,19.11-18.22-2.9-15.3-27.38-15.85-35.73-4.94-4.62,5.54-3.18,13.78,2.35,18.31,3.81,3.33,9.09,4.98,14.26,4.84h0Z" style="fill: #3a3632;"/>
    </g>
    <g>
      <path d="M1279.31,315.07c-10.25,.22-18.56-6.83-18.56-15.77s8.32-16.34,18.56-16.54c10.23-.2,18.52,6.86,18.52,15.77s-8.29,16.31-18.52,16.54Z" style="fill: #e2c4a6;"/>
      <path d="M1279.31,315.07c-13.06,.49-25.04-10.49-19.99-24.07,6.68-17.13,33.25-17.85,40.1-.47,4.89,13.39-7.4,24.49-20.11,24.54h0Zm0,0c10.86,.05,20.91-11.51,13.83-21.37-7.6-9.71-26.9-7.28-29.9,5.47-1.81,9.02,7.46,16.36,16.07,15.9h0Z" style="fill: #3a3632;"/>
    </g>
    <g>
      <path d="M716.75,274.33c-9.18-.19-16.64-6.86-16.64-14.91s7.46-14.4,16.64-14.19c9.17,.21,16.59,6.89,16.59,14.91s-7.42,14.38-16.59,14.19Z" style="fill: #e2c4a6;"/>
      <path d="M716.75,274.33c-11.48-.01-22.63-10.05-18.41-22.19,4.76-13.09,23-15.69,32.42-6.12,11.9,12.41,1.97,28.76-14,28.3h0Zm0,0c7.71,.42,15.93-6.33,14.06-14.35-3.15-12.46-25.21-13.42-28.2-.41-1.52,7.99,6.42,14.8,14.14,14.76h0Z" style="fill: #3a3632;"/>
    </g>
  </g>
  <g>
    <g>
      <path d="M971.47,185.28c-36.37,6.71-72,16.46-106.42,29.38-76.16,28.59-145.97,72.55-204.04,130.24-20.01,19.88-145.37,160.72-64.49,182.19,24.88,6.6,184.46-51.66,170.66,17.36-2.42,12.11-11.31,21.03-20.42,28.39-49.43,39.93-100.5,83.47-140.82,133.64-29.53,36.74-102.31,156.83-30.52,197.95,9.33,5.35,19.88,7.27,30.15,7.84,58.31,3.22,120.86-23.2,171.84-46.35,48.37-21.97,108.22-67.75,162.34-72.32,14.81-1.25,32.12,6.47,38.01,21.51,4.75,12.14,1.07,25.28,2.25,38.07,13.57,146.41,396.69-100.43,442.62-147.8,27.6-28.47,50.68-73.9,12.64-110.68-24.84-24.02-65.2-33.76-96.41-40.3-14.09-2.95-28.96-7.11-39.5-18.03-34.23-35.47,44-89.23,62.95-104.94,31.19-25.86,73.95-53.68,75.34-101.53,1.53-52.55-46.68-94.69-89.38-114.05-113.08-51.26-263.31-51.48-376.78-30.55Z" style="fill: #ede1c0;"/>
      <path d="M971.47,185.28c-114.09,20.69-222.67,74.2-305.56,155.7-2.68,2.54-6.57,6.42-9.07,9.13-23.17,25.27-44.7,52.32-62.57,81.6-13.73,23.24-40.62,72.35-7.57,90.06,3.2,1.69,6.71,2.91,10.21,3.87,4.43,.91,9.18,.28,13.87-.23,25.5-3.59,50.54-9.97,76.1-13.73,21.67-2.91,68.89-10.61,81.03,13.09,4.08,8.55,2.93,18.64-.37,27.14-2.63,6.28-6.95,11.83-11.73,16.5-3.14,3.12-6.61,5.94-9.9,8.63-29.82,24.44-59.38,49.56-86.81,76.54-18.31,17.97-35.67,36.87-51.55,56.98-15.42,20.21-28.58,42.39-39.3,65.41-15.35,34.05-32.85,85.88-2.05,115.72,15.18,14.2,30.43,15.87,50.31,15.88,8.36-.27,16.85-.68,25.1-1.89,12.36-1.61,25.18-4.35,37.2-7.64,34.82-9.5,68.21-24.15,101.13-39.33,30.76-14.98,59.68-34.01,90.72-49.02,21.27-10.25,43.82-19.3,67.57-21.61,17.6-1.85,37.11,7.04,44.35,23.98,5.68,12.5,2.04,28.13,2.99,40.05,1.05,15.63,8.27,30.26,23.2,36.36,82.49,33.06,318.65-114.22,388.74-167.48,13.59-10.12,26.2-21.04,35.96-34.93,9.57-13.26,17.09-28.78,17.9-45.2,1.58-25.77-16.91-46.17-38.09-58.24-21.91-12.66-47.19-19.23-71.92-24.69-16.92-3.46-35.88-8.65-46.93-23.24-17.92-24.68,7.03-52.76,24.42-69.78,25.01-23.69,54.12-42.72,79.58-65.73,12.5-11.46,24.05-24.37,31.02-39.95,14.79-32.89,4.51-67.92-17.71-94.76-20.45-24.86-48.47-42.65-78.29-54.27-114.34-45.04-242.15-45.58-361.96-24.95h0Zm0,0c120.8-22.23,281.08-20.2,391.76,37.33,31.45,17.84,61.11,44.77,72,80.2,7.18,23.12,3.87,48.81-9.22,69.22-13.73,22.16-35.02,38.45-54.94,54.71-16.42,13.7-33.93,26.44-49.08,41.45-25.18,24.63-47.37,58.38-3.72,77.31,7.66,3.17,15.89,4.94,24.32,6.65,25.52,5.36,51,11.65,74.09,24.61,23.72,13.18,43.74,35.75,42.35,64.45-1.36,27.26-17.44,51.09-36.17,69.83-12.88,11.95-26.81,22.06-40.91,32.32-70.51,49.75-145.14,93.97-224.22,128.7-41.59,17.35-126.5,51.55-165.75,19.08-11.23-9.33-16.51-23.94-17.59-38.07-1.21-12.31,2.57-25.13-2.16-36.55-5.1-11.8-18.89-18.1-31.47-17.33-14.47,1.17-28.44,5.2-42.02,10.43-42.06,16.31-78.95,42.88-120.04,61.69-43.39,19.47-88.24,38.23-135.78,44.37-8.64,1.25-17.59,1.57-26.32,1.81-5.88-.24-14.01-.14-20.01-1.17-23.03-2.73-44.32-18.88-51.98-40.96-19.22-54.39,30.43-138.73,65.28-179.49,39.14-46.09,85.61-85.35,132.6-123.04,8.12-6.42,16.19-13.28,20.36-22.87,13.28-36.37-23.76-38.68-49.91-37.06-25.67,1.63-50.9,6.85-76.21,11.52-8.47,1.55-16.94,3.12-25.57,4.13-5.37,.49-11.18,1.35-16.59-.47-24.73-7.15-30.15-27.1-23.75-50.44,12.61-44.1,54.14-94.56,85.12-128.37,84.53-86.04,197.18-142.54,315.54-163.97h0Z" style="fill: #3a3632;"/>
    </g>
    <path d="M977.85,193.36c-34.23,6.28-67.76,15.4-100.17,27.49-71.69,26.75-141.49,70-196.17,123.96-18.84,18.59-136.74,142.04-60.64,162.13,23.41,6.18,146.24-48.81,158.47,18.16,2.32,12.73-1.21,27.26-9.16,37.78-40.68,53.84-96.61,77.83-134.58,124.76-36.55,45.18-87.38,104.15-62.07,162.04,4.03,9.22,15.04,22.01,46.12,23.66,58.54,3.1,119.76-26.23,171.22-49.46,45.54-20.55,101.89-63.37,152.81-67.66,13.93-1.17,42.08,8.73,48.15,37.67,2.49,11.85,.99,23.64,2.09,35.61,12.68,136.96,360.96-111.5,404.22-155.82,25.99-26.63,38.23-55.49,18.52-76.22-23.46-24.68-56.41-25.98-85.54-33.81-65.68-17.64-69.52-53.8-53.63-83.8,16.12-30.44,42.6-44.76,64.05-62.43,29.37-24.19,69.62-50.22,70.96-94.98,1.47-49.16-39.1-82.54-79.28-100.65-106.39-47.95-248.59-48.03-355.39-28.45Z" style="fill: #fff8ef; opacity: .8;"/>
    <path d="M627.63,873.58c56.27-13.02,105.01-39.89,150.84-73.45,20.5-14.63,40.12-31,61.47-44.99,31.3-19.58,70.04-28.72,106.85-22.69,34.09,5.5,74.92,27.78,79.25,65.88,1.65,13.12,.06,23.22-.47,34.73-.11,4.46-.16,7.23,.76,10.68,.08,.25,.27,.57,.49,.76,.77,.63,1.49,1.02,2.75,1.58,11.39,4.27,24.57,3.64,36.92,3.05,49.53-4.11,96.85-19.89,141.38-42.46-33.9,27.98-74.15,48.4-116.43,60.52-18.62,5.02-37.77,8.89-57.38,7.58-17.4-1.1-32.65-8.67-38.01-26.45-2.77-9.05-2.95-17.07-3.44-25.56-.82-11.33-.65-21.4-7.51-29.21-19.79-20.88-53.22-25-80.78-20.05-12.15,2.16-24.24,6.29-35.39,11.67-12.1,5.9-22.71,13.66-34.2,21.05-24.36,16.13-49.96,31.77-76.95,43.73-40.51,17.98-85.79,28.98-130.17,23.62h0Z" style="fill: #fff;"/>
    <path d="M795.92,293.18c51.92-32.57,107.77-58.95,166.08-77.95,55.49-17.92,113.95-28.43,172.38-28.31,55.15,.19,110.91,9.45,161.9,30.88,6.42,2.48,15.37,6.88,21.64,9.82,13.99,6.92,27.91,15.09,39.29,26.43,22.24,22.05,33.17,55.96,25.2,86.51-6.09,23.35-22.33,43.94-43.98,54.39,20.64-19.39,32.61-49.12,25.87-76.99-3.82-16.56-13.6-31.49-26.93-41.83-12.51-9.56-28.6-15.36-43.57-20.73-15.21-5.45-30.95-9.88-46.68-13.55-154-35.39-303.25,9.08-451.19,51.33h0Z" style="fill: #fff;"/>
    <g style="opacity: .6;">
      <path d="M994.21,350.85c8.99-9.37,18.89,4.25,20.07,13.18,.94,5.1-.87,10.25-2.65,14.98-5.71,13.87-16.49,25.01-27.79,34.42-15.25,12.46-32.33,22.31-50.21,30.45-9.07,4.05-18.42,7.77-28.07,10.34-24.36,6.02-53.62,8.72-77.09-2.81-13.93-6.79-24.46-21.53-25.38-37.25-1.06-14.87,5.23-29.07,13.1-40.92,22.58-32.64,57.5-57.71,90.91-78.14,12.98-7.65,26.68-15.3,41.11-20.5,60.22-21.48,153.43-39.84,193.44,25.18,11.67,19.68,16.05,43.95,14.61,66.58-3.8,53.47-48.17,90.6-88.89,119.03-64.41,45.77-133.3,84.5-198,129.7-10.66,7.16-21.6,15.06-30.39,24.29-4.74,5-10.06,11.4-11.36,17.29-.09-.49-.19-1-.53-1.59-.41-.89-1.22-1.6-1.51-1.78-.19-.1-.18-.11-.15-.06,.11,.03,.28,.13,.61,.22,1.27,.41,4.09,.65,7.21,.35,11.27-1.17,22.72-6.4,32.71-12.03,21.4-11.91,43.32-22.79,65.8-32.59,69.49-29.75,156.59-55.24,232.08-37.51,23.07,5.88,46.86,17.79,59.1,39.66,22.07,37.62,.8,82.39-34.41,102.61-15.38,9.02-33.56,13.65-51.35,11.51-7.75-.86-15.35-3.05-21.84-7.66-4.36-3.09-8.01-7.53-9.66-12.69-2.06-7.3-1.55-16.29,3.96-21.93,1.82-1.79,4.09-2.95,6.42-3.52-9.2,4.13-8.85,15.71-5.43,23.61,4.51,10.13,16.86,13.62,27.2,13.83,40.31,1.79,83.54-37.6,75.54-79.14-10.53-45.11-70.24-47.84-108.43-44.58-78.68,7.99-152.57,41.46-220.25,81.03-19.94,11.5-44.51,22.12-68.77,16.24-9.68-2.45-18.86-8.91-23.45-18.14-15.51-32.96,21.16-66.41,45.08-83.71,49.44-36.11,101.87-68.63,153.44-101.36,23.49-15.31,47.33-30.91,69.96-47.49,25.8-19.7,53.27-43.87,56.2-76.81,.69-7.62,.1-15.71-1.23-23.31-3.85-23.49-17.56-39.38-40.63-45.8-37.41-10.01-81.8-.64-118.73,10.54-37.05,13.06-121.66,63.92-129.9,103.48-4.06,26.62,27.75,32.94,48.43,32.87,18.2,.23,36.3-3.48,53.35-9.84,25.83-9.69,52.23-22.14,71.03-42.85,5.17-6,9.65-12.86,11.43-20.64,.71-5.47-1.18-11.4-4.67-15.68-3.19-3.96-8.06-4.64-12.03-1.09h0Z" style="fill: #ede1c0;"/>
    </g>
    <path d="M1122.88,700.83c1.2,4,8.58,1.79,11.71,1.65,14.65-1.72,28.5-7.99,38.87-18.45,10.7-10.64,16.67-24.91,18.96-39.83,1.42,4.41,1.94,9.13,1.83,13.86-.73,24.95-20.88,46.19-45.44,49.42-6.01,.82-11.91,.46-17.71-.72-3.08-.63-8.69-1.75-8.22-5.93h0Z" style="fill: #fff;"/>
    <path d="M838.08,408.94c24.87,12.46,52.1,6.42,77.23-1.49,25.59-8.31,50.34-18.41,70.26-37.28-.86,1.49-1.78,2.95-2.69,4.44-2.94,4.21-6.39,8.46-10.04,12.02-15.04,14.69-34.77,23.97-54.47,30.33-25.65,8.31-58.93,12.11-80.29-8.03h0Z" style="fill: #fff;"/>
    <path d="M731.64,333.46c-22.68,12.28-40.13,31.56-56.85,50.81-12.39,14.7-24.73,29.43-34.98,45.69-3.42,5.41-6.47,11.04-9.07,17.01,1.06-6.44,3.31-12.67,5.92-18.68,15.54-33.67,58.06-85.53,94.97-94.84h0Z" style="fill: #fff;"/>
    <path d="M691.5,668.31c-22.68,12.28-40.13,31.56-56.85,50.81-12.39,14.7-24.73,29.43-34.98,45.69-3.42,5.41-6.47,11.04-9.07,17.01,1.06-6.44,3.31-12.67,5.92-18.68,15.54-33.67,58.06-85.53,94.97-94.84h0Z" style="fill: #fff;"/>
  </g>
</svg>