<svg xmlns="http://www.w3.org/2000/svg" height="1208.72" width="1924"  xmlns:v="https://vecta.io/nano"><style><![CDATA[.B{stroke-linejoin:round}.C{stroke-linecap:round}.D{stroke-width:15.044}.E{stroke-width:15.599}]]></style><defs><clipPath id="A"><path d="M110.9 1061.33H1889.1V1289H110.9z" fill="none"/></clipPath><clipPath id="B"><path d="M110.9 1061.33H1889.1v225H110.9z" fill="none"/></clipPath></defs><g fill="#fff" stroke="#231f20" class="B"><g stroke-width="24"><path d="M57.37 860.66l50.9 288.23a72.06 72.06 0 0 0 67.9 47.83h1571.64a72.06 72.06 0 0 0 67.9-47.83l50.9-288.23" class="C"/><path d="M1895 853.23l-310.55-210.48a37.54 37.54 0 0 0-20.51-6.1H360.08a37.54 37.54 0 0 0-20.51 6.1L29 853.23a37.53 37.53 0 0 0-17 31.43v8.56a37.52 37.52 0 0 0 37.52 37.52h1825a37.52 37.52 0 0 0 37.48-37.52v-8.56a37.53 37.53 0 0 0-17-31.43z"/></g><g class="C D"><path d="M109.07 864.34h1705.86m-1447.2-171.8l28.32 168.13"/><path d="M1556.26 692.53l-28.32 168.13"/></g></g><g transform="translate(-38 -424.68)" class="B E"><g clip-path="url(#A)" fill="#f2e8d9" stroke="#010101"><path d="M1633.5 1283.6c-10.2-72.85-326.4-287-434.23-10.2 135.52 17.5 424.03 14.6 434.23 10.2z"/><path d="M1337.83 1384.34c25.16-69.14-153.67-406.6-378.74-212.64 111.5 79 367.68 211.7 378.74 212.64zm359.67-11c25.16-69.13-153.67-406.6-378.74-212.64 111.5 79 367.68 211.72 378.74 212.64z"/><path d="M1801.82 1335.9c7.82-73.15-246.77-357.84-418.7-115.53 127.2 49.93 407.75 117.28 418.7 115.53zm-497.14-175.33c-47-56.56-428.65-72.1-374.5 220 124.4-56.48 368.13-210.9 374.5-220z"/></g><g clip-path="url(#B)" fill="#f2e8d9" stroke="#010101"><path d="M1217.1 1244.2c-10.2 72.86-326.4 287.06-434.22 10.2 135.5-17.48 424.02-14.57 434.22-10.2zm439.8 26c-10.2 72.86-326.4 287.06-434.23 10.2 135.52-17.48 424.03-14.57 434.23-10.2z"/><path d="M1000 1417.75c-51 53-432.73 41-357.67-246.44 120 65.32 351.97 236.9 357.67 246.44zm378.74-254c25.16 69.13-153.67 406.6-378.74 212.63 111.5-79 367.68-211.7 378.74-212.64zm342.16 16.73c25.16 69.13-153.67 406.6-378.74 212.63 111.5-79 367.68-211.7 378.74-212.63z"/><path d="M1825.4 1391.15c-45 58.2-425.8 87.4-382.13-206.5 126.35 52 375.44 197.64 382.13 206.5zm-497.33 2.1c-47 56.57-428.65 72.12-374.5-220 124.42 56.5 368.12 210.92 374.5 220z"/></g></g><path d="M142.44 863.32c18-14 36.5-27.86 51.15-46.43 15-19.06 27.37-41.28 46.12-56.15 26.13-20.73 59.9-24.54 84.7-48.68 18.6-18.12 31.08-31.06 57.4-32.37 23.25-1.16 46.55 4.8 69.73 2.35 21.6-2.3 42.13-11.78 63.6-15.3 51.33-8.43 97.84 25.7 148.5 11.8 19.05-5.23 38.53-12.12 57.87-8.53 18.23 3.4 34.27 15.13 52.47 18.66 20.5 4 30.72-5.65 49.7-11.54 17.35-5.4 36-1.06 52.76 6.25 7.26 3.16 13.55 7.13 21.12 8.9 9.94 2.32 19.7 5.76 29.66 8.06 4.7 1.08 10.7 3.76 15.45 3.37 6.08-.5 13.33-5.2 19.12-7.43a394.31 394.31 0 0 1 40.82-13.57c26.6-7 54.55-9.85 81.32-2.25 16.7 4.73 21.1-7.6 38.63-6.26 16.2 1.24 28.4 4.5 37.15 19.83 6.63 11.64 19.62 45.48 21.58 58.74s4.18 26.9 11.22 38.3c7.45 12.06 19.58 20.47 28.25 31.7a68 68 0 0 1 14 43.62" fill="#d8a628" stroke="#050303" stroke-width="7.799"/><path d="M109.07 864.34h1705.86" fill="#fff" stroke="#231f20" class="B C D"/><path d="M746 766.72c45.35 62.38 164.72 54.68 233.68 3s151-236.1 151-236.1l623.4-453.3c16.872-12.266 20.606-35.888 8.34-52.76s-35.888-20.606-52.76-8.34l-623.5 453.35c-90.82 17-197.6 18-271 71.07C731.6 604.1 700.6 704.32 746 766.72z" fill="#231f20"/></svg>