<?xml version="1.0" encoding="UTF-8"?>
<svg id="Layer_1" data-name="Layer 1" xmlns="http://www.w3.org/2000/svg" width="2000" height="2000" viewBox="0 0 2000 2000">
  <g id="layer3">
    <g id="g877">
      <path id="rect869" d="M1208.49,1128.43l435.47,44.35-671.18,254.44-616.75-76.5,852.45-222.29Z" style="fill: #fff; stroke: #231f20; stroke-linejoin: round; stroke-width: 24px;"/>
      <path id="path864" d="M380.08,1350.99l33.1,466.61,550.99,132.92,8.5-522.89-592.59-76.64Z" style="fill: #fff; stroke: #231f20; stroke-linejoin: round; stroke-width: 24px;"/>
      <path id="rect866" d="M972.67,1427.63l642.13-251.4-40.9,428.87-609.73,345.41,8.5-522.89Z" style="fill: #fff; stroke: #231f20; stroke-linejoin: round; stroke-width: 24px;"/>
    </g>
  </g>
  <g>
    <path d="M541.8,195.44l44.34,18.3c50.33,20.77,97.73,47.96,141.36,80.55,46.02,34.38,107.03,76.42,140.98,85.23,59.36,15.41,64.64,39.71,58.49,52.77-8.51,18.07-21.65,24.36-42.18,33.51-3.8,1.69-7.74,3.18-11.78,4.43-48.98,15.15-135.13-27.81-155.69-34.36-6.6-2.1-13.16-4.19-19.73-6.18-5.14-1.57-10.71,.02-14.26,4.04-3.55,4.02-4.43,9.75-2.24,14.65l164.29,385.13c11.39,25.53,6.14,52.79-19.4,64.18-25.54,11.39-49.33-2.91-60.72-28.44l-124.69-262.73c-3.08-6.91-11.18-10.01-18.09-6.93s-10.01,11.18-6.93,18.09l144.13,339.92c11.39,25.54,6.14,52.79-19.4,64.18-25.54,11.39-49.32-2.91-60.72-28.45l-156.04-333.01c-3.08-6.91-11.18-10.01-18.09-6.93-6.91,3.08-10.01,11.18-6.93,18.09l117.29,279.77c11.39,25.53,6.14,52.79-19.4,64.18s-49.32-2.91-60.71-28.44l-135.82-287.68c-3.08-6.91-11.18-10.01-18.09-6.93s-10.01,11.18-6.93,18.09l82.24,201.19c11.39,25.53,6.14,52.79-19.4,64.18-25.54,11.39-49.32-2.91-60.71-28.44l-86.01-179.46c-14.85-30.98-28.24-62.63-40.14-94.86l-31.96-86.55c-28.62-77.51-42.07-159.8-39.61-242.39h0c1.38-46.54,29.01-88.28,71.31-107.74l79.87-36.74c66.8-30.73,143.38-32.25,211.35-4.2Z" style="fill: #fff; stroke: #231f20; stroke-miterlimit: 10; stroke-width: 24px;"/>
    <path d="M1669.56,199.64l79.87,36.74c42.3,19.46,69.93,61.2,71.31,107.74h0c2.45,82.59-11,164.88-39.61,242.39l-31.96,86.55c-11.9,32.23-25.29,63.88-40.14,94.86l-86.01,179.46c-11.39,25.53-35.18,39.84-60.71,28.44s-30.79-38.64-19.4-64.18l82.24-201.19c3.08-6.91-.02-15.01-6.93-18.09s-15.01,.02-18.09,6.93l-135.82,287.68c-11.39,25.53-35.18,39.84-60.71,28.44-25.54-11.39-30.79-38.64-19.4-64.18l117.29-279.77c3.08-6.91-.02-15.01-6.93-18.09s-15.01,.02-18.09,6.93l-156.04,333.01c-11.39,25.54-35.18,39.84-60.72,28.45s-30.79-38.64-19.4-64.18l144.13-339.92c3.08-6.91-.02-15.01-6.93-18.09-6.91-3.08-15.01,.02-18.09,6.93l-124.69,262.73c-11.39,25.53-35.18,39.83-60.72,28.44-25.54-11.39-30.79-38.64-19.4-64.18l164.29-385.13c2.19-4.9,1.31-10.62-2.24-14.65-3.55-4.02-9.12-5.61-14.26-4.04-6.57,2-13.13,4.09-19.73,6.18-20.56,6.54-106.72,49.5-155.69,34.36-4.04-1.25-7.98-2.73-11.78-4.43-20.52-9.15-33.66-15.44-42.18-33.51-6.15-13.06-.87-37.36,58.49-52.77,33.95-8.81,94.96-50.85,140.98-85.23,43.62-32.59,91.02-59.78,141.36-80.55l44.34-18.3c67.97-28.05,144.55-26.53,211.35,4.2Z" style="fill: #fff; stroke: #231f20; stroke-miterlimit: 10; stroke-width: 24px;"/>
  </g>
</svg>