<svg id="Layer_1" data-name="Layer 1" xmlns="http://www.w3.org/2000/svg" viewBox="0 0 2000 2000"><path d="M1322.92,588.72,1267,686.62A264.5,264.5,0,0,0,1233.17,793c-11,117.29-45.56,284.79-103.4,386.13-114.28,200.2-223.72,230-309.72,180.92s-116-158.48-1.7-358.68C876.2,900,1002.84,785.09,1098.26,716a264.59,264.59,0,0,0,74.39-83.26l55.88-97.89" style="fill:#fff;stroke:#231f20;stroke-linecap:round;stroke-linejoin:round;stroke-width:10px"/><path d="M820.05,1360.06c33.59,19.18,100.56-34.88,214.83-235.08,67.26-117.83,127.11-274.48,162.41-379.24a266,266,0,0,1,21.08-46.94l73.08-128" style="fill:#fff;stroke:#231f20;stroke-linecap:round;stroke-linejoin:round;stroke-width:10px"/><path d="M1260,552.81l-73.08,128a266.45,266.45,0,0,1-29.7,42c-72.26,83.66-176.72,214.85-244,332.67-114.28,200.2-126.78,285.35-93.19,304.52" style="fill:#fff;stroke:#231f20;stroke-linecap:round;stroke-linejoin:round;stroke-width:10px"/><path d="M1183.28,542.6,1443.51,86.71c27.94-48.95,79.84-72.44,128.79-44.49h0c49,27.94,55.12,84.57,27.18,133.52L1339.25,631.63a22,22,0,0,1-29.93,8.18l-117.86-67.28A21.94,21.94,0,0,1,1183.28,542.6Z" style="fill:#231f20"/><g id="layer3"><path id="path916" d="M1388.27,1170.89V1832a137.47,137.47,0,0,1-137.21,137.72H158.47A137.46,137.46,0,0,1,20.71,1832.61V1170.85Z" style="fill:#fff;stroke:#231f20;stroke-linecap:round;stroke-linejoin:round;stroke-width:10px"/></g><path d="M1979.29,1398.92l-502.6-16.64a61.24,61.24,0,0,0-58.22,37.41l-30.22,71.56V1273.66l591-19.26Z" style="fill:#fff;stroke:#231f20;stroke-linecap:round;stroke-linejoin:round;stroke-width:10px"/></svg>