<svg xmlns="http://www.w3.org/2000/svg" height="1322.774" width="1991.141"  xmlns:v="https://vecta.io/nano"><path d="M575.06 946.854l-3.88 5.72-.15-.05-.28-.1-.58-.2-1.14-.4-2.3-.8-4.56-1.6-9.13-3.17-18.15-6.24-36.22-12c-24.05-7.9-48.26-15-72.27-22.17q-18-5.3-36.18-10.1l-36.1-9.82-71.5-17.74-74.27-17.47c-24.87-5.45-50-10.12-74.6-16.3s-48.5-14.4-71.34-25.73c-11.5-5.53-22.66-11.98-33.76-18.66-5.77-2.7-10.53-8.36-13.5-19.45a80 80 0 0 1-1.97-9.11l-1.14-11.44v-.34a84.33 84.33 0 0 1 19.1-57l.17-.2 7.87-8.54a80.32 80.32 0 0 1 7.09-6.13c9.08-7.08 16.34-8.72 22.6-7.4 13 1.4 25.87 3 38.45 5.55 25.3 4.72 49.53 12.6 73.07 22.48s46.54 21.28 69.8 31.9l70.15 30.74c24.68 11.73 47.54 24.38 70.22 37.76q17 10 33.78 20.37 16.64 10.66 32.95 21.77c21.8 14.66 42.85 30.58 63.28 47.08 10.15 8.36 20.24 16.74 29.9 25.67 4.87 4.38 9.66 8.9 14.4 13.43l7 7 3.47 3.5 2.6 2.62.76.76c-1.68 2.58 3.76-5.72-3.67 5.85z" fill="#231f20"/><g stroke="#231f20" stroke-width="24" stroke-miterlimit="10"><path d="M1168.88 792.774h1.33c446.76 0 808.93 71 808.93 177-20 82-77.28 197.26-146.4 250-55.43 38-377.2 91-662.47 91h-4c-285.28 0-607-53.07-662.47-91-69.14-52.78-126.4-168-146.42-250 0-105.93 362.17-177 808.93-177h1.25" fill="#fff"/><path d="M1924.13 963.574c0 50.76-338.7 126-756.54 126h-1.33c-417.83 0-756.54-75.2-756.54-126" fill="none" stroke-linecap="round"/></g><g fill="#231f20"><circle r="16.02" cy="921.084" cx="599.131"/><circle r="16.02" cy="959.554" cx="498.001"/><path d="M998.12 974.444c58.8 34.24 152.4-14.4 189.73-80.6s38-244.27 38-244.27l342.2-587.5c5.993-10.284 6.044-22.984.133-33.316s-16.884-16.725-28.787-16.77-22.926 6.26-28.916 16.547l-342.27 587.54c-67.26 46-153.1 84.76-193.5 153.67-46 78.52-35.4 170.45 23.37 204.7z"/></g></svg>