<svg id="Layer_1" data-name="Layer 1" xmlns="http://www.w3.org/2000/svg" width="2000" height="1714.15" viewBox="0 0 2000 1714.15">
  <g>
    <path d="M1952.07,94.59h0a64.64,64.64,0,0,1-34.82,85.52S1144.56,480.37,1082.1,521.86c-18,29.88-45.9,164.81-232.53,245.68-137.15,59.43-257,19-294.51-67.54h0c-37.48-86.51,15-201.64,152.13-261.07,186.63-80.87,304.14-8.94,338.26-1.65,73-17.2,820.48-375.62,820.48-375.62a64.63,64.63,0,0,1,86.2,33.07h0Zm-128.62,55.94h0a19.41,19.41,0,0,0,25.45,10.06l41.6-18a19.4,19.4,0,0,0,10.06-25.45h0a19.4,19.4,0,0,0-25.44-10.06l-41.6,18A19.41,19.41,0,0,0,1823.45,150.53Zm-1024.88,532h0A19.41,19.41,0,0,0,824,692.6l41.59-18a19.41,19.41,0,0,0,10.07-25.45h0a19.41,19.41,0,0,0-25.45-10.07l-41.6,18A19.4,19.4,0,0,0,798.57,682.54Zm-32.08-74h0a19.4,19.4,0,0,0,25.45,10.06l41.6-18A19.42,19.42,0,0,0,843.6,575.1h0A19.4,19.4,0,0,0,818.15,565l-41.6,18A19.41,19.41,0,0,0,766.49,608.51Zm-32.08-74h0a19.41,19.41,0,0,0,25.45,10.06l41.6-18a19.4,19.4,0,0,0,10.06-25.45h0A19.4,19.4,0,0,0,786.07,491l-41.59,18A19.41,19.41,0,0,0,734.41,534.48Zm-65,160.08h0a19.4,19.4,0,0,0,25.44,10.06l41.6-18a19.41,19.41,0,0,0,10.07-25.45h0A19.41,19.41,0,0,0,721,651.09l-41.6,18A19.4,19.4,0,0,0,669.36,694.56Zm-32.08-74h0a19.41,19.41,0,0,0,25.45,10.07l41.6-18a19.41,19.41,0,0,0,10.06-25.45h0a19.41,19.41,0,0,0-25.45-10.06l-41.6,18A19.42,19.42,0,0,0,637.28,620.53Zm258.42-24h0a19.41,19.41,0,0,0,25.45,10.06l41.6-18a19.4,19.4,0,0,0,10.06-25.44h0A19.41,19.41,0,0,0,947.36,553l-41.6,18A19.41,19.41,0,0,0,895.7,596.49Zm-32.08-74h0a19.42,19.42,0,0,0,25.45,10.06l41.6-18a19.4,19.4,0,0,0,10.06-25.45h0A19.4,19.4,0,0,0,915.29,479l-41.6,18A19.41,19.41,0,0,0,863.62,522.46Z" style="fill: #d0d2d3;stroke: #3a3632;stroke-miterlimit: 10;stroke-width: 20px"/>
    <g>
      <g id="layer1">
        <path id="path60" d="M849,391.88c-15-35.87-43.89-64.68-53.77-74.56C678.11,200.19,570.42,183.52,504,269.9c-20.14,26.75-11.36,43.73-13.32,62.21-14.08.12-52.82,9.75-70.79,21.9-90.3,71.43-72.67,179.26,43.36,295.29,103.81,103.82,250.37,126,354.39,22,24.38-24.38,43.9-46.68,53.06-78.6,18.47-64.34,14-124.66-21.7-200.83Z" style="fill: #ba2115;stroke: #3a3632;stroke-linecap: round;stroke-width: 18.9983723292979px"/>
      </g>
      <g id="layer1-2" data-name="layer1">
        <path id="path60-2" data-name="path60" d="M807.48,384.16C791.86,348.48,772,330.11,763.81,322c-96.64-96.63-188.5-107.37-248.34-31-18.18,23.62-11.2,37.9-13.5,53.83-12.08.57-45.65,10.12-61.47,21.14-79.86,64.28-68.31,156.24,27.41,252,85.65,85.65,210.67,99.85,303.39,7.13,21.73-21.73,39.22-41.51,48.14-69.2,18-55.84,16.13-107.45-12-171.63Z" style="fill: #c93c27"/>
      </g>
      <g id="layer2">
        <path id="path920" d="M471.32,310.1s-81.84-.87-112.85-18.09c7.76,9.47,40.49,38.76,78.39,45.65,0,0-67.19,74.08-66.33,93.9,0,0,76.67-56,84.42-81,0,0,50,65.47,80.11,73.22,0,0-18.09-81.83-35.31-92.17,0,0,98.2-55.13,112.84-81.83-16.37-4.31-94.75,27.56-113.71,48.24,12.43-32-1.72-75.81-1.72-75.81s-21.53,74.94-25.84,87.87Z" style="fill: #07a44a"/>
      </g>
      <circle cx="628.16" cy="316.66" r="30.27" style="fill: #fff"/>
      <circle cx="709.15" cy="336.25" r="19.83" style="fill: #fff;opacity: 0.4"/>
      <circle cx="755.18" cy="388.63" r="15.34" style="fill: #fff;opacity: 0.2"/>
    </g>
    <g>
      <g id="layer3">
        <path id="path916" d="M1262.26,987.41v573.44a119.24,119.24,0,0,1-119,119.45H195.61a119.22,119.22,0,0,1-119.48-119v-574Z" style="fill: #fff;stroke: #221f1f;stroke-linecap: round;stroke-linejoin: round;stroke-width: 24px"/>
      </g>
      <path d="M1774.87,1185.19,1339,1170.76a53.13,53.13,0,0,0-50.5,32.45l-26.21,62.06V1076.55l512.63-16.71Z" style="fill: #fff;stroke: #221f1f;stroke-linecap: round;stroke-linejoin: round;stroke-width: 24px"/>
    </g>
    <g>
      <path d="M255.6,937.58V855.91c0-166.23,156.87-184,156.87-184" style="fill: none;stroke: #231f20;stroke-linecap: round;stroke-linejoin: round;stroke-width: 24px"/>
      <polyline points="326.56 858.95 255.6 942.59 184.64 858.95" style="fill: none;stroke: #231f20;stroke-linecap: round;stroke-linejoin: round;stroke-width: 24px"/>
    </g>
  </g>
</svg>
