<svg id="Layer_1" data-name="Layer 1" xmlns="http://www.w3.org/2000/svg" width="2000" height="2000" viewBox="0 0 2000 2000">
  <path d="M1765.9,107.62h0a61.33,61.33,0,0,1-33,81.13S999.81,473.61,940.56,513C923.46,541.32,897,669.33,720,746,589.84,802.42,476.11,764,440.55,682h0C405,599.91,454.76,490.68,584.88,434.3c177-76.72,288.54-8.48,320.91-1.56C975,416.42,1684.18,76.38,1684.18,76.38A61.33,61.33,0,0,1,1766,107.76h0Zm-122.39,52.22.74,1.69a17.49,17.49,0,0,0,22.93,9.07l41.15-17.83a17.5,17.5,0,0,0,9.07-22.93l-.73-1.7a17.48,17.48,0,0,0-22.93-9.06l-41.16,17.83A17.49,17.49,0,0,0,1643.51,159.84ZM671.2,664.56l.74,1.69a17.48,17.48,0,0,0,22.93,9.06L736,657.48a17.49,17.49,0,0,0,9.07-22.93l-.73-1.69a17.49,17.49,0,0,0-22.93-9.07l-41.16,17.84A17.49,17.49,0,0,0,671.2,664.56Zm-30.43-70.23.74,1.69a17.48,17.48,0,0,0,22.93,9.06l41.15-17.83a17.49,17.49,0,0,0,9.07-22.93l-.73-1.69A17.49,17.49,0,0,0,691,553.56l-41.16,17.83A17.5,17.5,0,0,0,640.77,594.33ZM610.34,524.1l.74,1.69A17.48,17.48,0,0,0,634,534.85L675.16,517a17.49,17.49,0,0,0,9.07-22.93l-.73-1.69a17.5,17.5,0,0,0-22.93-9.07l-41.16,17.83A17.5,17.5,0,0,0,610.34,524.1ZM548.62,676l.74,1.69a17.49,17.49,0,0,0,22.93,9.07l41.15-17.83A17.49,17.49,0,0,0,622.51,646l-.73-1.69a17.5,17.5,0,0,0-22.93-9.07L557.69,653A17.49,17.49,0,0,0,548.62,676Zm-30.43-70.23.73,1.69a17.5,17.5,0,0,0,22.94,9.07L583,598.66a17.49,17.49,0,0,0,9.07-22.93l-.73-1.69A17.5,17.5,0,0,0,568.41,565L527.26,582.8A17.49,17.49,0,0,0,518.19,605.73Zm245.17-22.81.73,1.69A17.49,17.49,0,0,0,787,593.68l41.16-17.84a17.48,17.48,0,0,0,9.06-22.93l-.73-1.69a17.48,17.48,0,0,0-22.93-9.06L772.42,560A17.48,17.48,0,0,0,763.36,582.92Zm-30.43-70.23.73,1.69a17.49,17.49,0,0,0,22.93,9.07l41.16-17.84a17.49,17.49,0,0,0,9.06-22.93l-.73-1.69a17.48,17.48,0,0,0-22.93-9.06L742,489.76A17.48,17.48,0,0,0,732.93,512.69Z" style="fill: #d0d2d3;stroke: #3a3632;stroke-miterlimit: 10;stroke-width: 20px"/>
  <g>
    <g id="layer1">
      <path id="path60" d="M719.43,389.66c-14.27-34-41.63-61.36-51-70.74C557.29,207.8,455.13,192,392.14,273.93c-19.11,25.39-10.78,41.49-12.64,59-13.35.12-50.11,9.25-67.16,20.78-85.67,67.76-68.94,170.07,41.14,280.14C452,732.36,591,753.43,689.69,654.75c23.13-23.13,41.64-44.29,50.33-74.56,17.52-61.05,13.27-118.27-20.59-190.53Z" style="fill: #ba2115;stroke: #3a3632;stroke-linecap: round;stroke-width: 18.9983723292979px"/>
    </g>
    <g id="layer1-2" data-name="layer1">
      <path id="path60-2" data-name="path60" d="M680,382.33c-14.82-33.85-33.7-51.27-41.43-59C546.92,231.65,459.77,221.46,403,293.88c-17.25,22.42-10.63,36-12.81,51.07-11.46.54-43.31,9.6-58.32,20.06-75.76,61-64.8,148.22,26,239,81.25,81.25,199.86,94.73,287.82,6.77,20.62-20.62,37.21-39.39,45.67-65.66,17.06-53,15.31-101.93-11.34-162.82Z" style="fill: #c93c27"/>
    </g>
    <g id="layer2">
      <path id="path920" d="M361.11,312.07s-77.63-.82-107-17.16c7.35,9,38.4,36.77,74.36,43.31,0,0-63.74,70.28-62.92,89.08,0,0,72.73-53.12,80.08-76.82,0,0,47.4,62.11,76,69.46,0,0-17.17-77.64-33.51-87.44,0,0,93.16-52.3,107.06-77.64-15.53-4.08-89.9,26.15-107.88,45.77,11.79-30.34-1.63-71.92-1.63-71.92s-20.43,71.1-24.52,83.36Z" style="fill: #07a44a"/>
    </g>
    <circle cx="509.91" cy="318.29" r="28.72" style="fill: #fff"/>
    <circle cx="586.74" cy="336.88" r="18.81" style="fill: #fff;opacity: 0.4"/>
    <circle cx="630.41" cy="386.57" r="14.55" style="fill: #fff;opacity: 0.2"/>
  </g>
  <g>
    <g id="layer3">
      <path id="path916" d="M1248.3,823.36v544a113.11,113.11,0,0,1-112.9,113.32h-899A113.11,113.11,0,0,1,123,1367.85V823.32Z" style="fill: #fff;stroke: #221f1f;stroke-linecap: round;stroke-linejoin: round;stroke-width: 24px"/>
    </g>
    <path d="M1734.62,1011,1321.06,997.3a50.38,50.38,0,0,0-47.9,30.78L1248.29,1087v-179l486.33-15.86Z" style="fill: #fff;stroke: #221f1f;stroke-linecap: round;stroke-linejoin: round;stroke-width: 24px"/>
  </g>
  <g>
    <path d="M1251.35,1925c297,0,645.77-158,645.77-517,0-84.56-289.12-162.29-645.77-162.29h-1c-356.65,0-645.77,77.73-645.77,162.29,0,359,348.74,517,645.77,517" style="fill: #fff;stroke: #3a3632;stroke-miterlimit: 10;stroke-width: 24px"/>
    <path d="M1304.89,1715.86q8.77,11.64,8.77,28.93,0,23.82-17.54,38t-47.39,14.14a102.86,102.86,0,0,1-32.73-5.24,78.81,78.81,0,0,1-26.7-14.66q-6-5.23-6-12.31a15.1,15.1,0,0,1,3.27-9.81,9.67,9.67,0,0,1,7.72-4.06,11.78,11.78,0,0,1,4.71.91c1.4.62,3.32,1.62,5.77,3a112.89,112.89,0,0,0,20.94,11.25,58.64,58.64,0,0,0,21.73,3.93q17.28,0,25.66-6.94t8.38-21.07q0-13.87-8.77-20.56t-27.1-6.67h-14.92q-6,0-9.3-4.06a15,15,0,0,1,0-18.72q3.27-3.93,9.3-3.93h10.47q35.86,0,35.87-27,0-12.55-7.6-19.37t-20.94-6.81q-19.11,0-40.85,15.19a63.06,63.06,0,0,1-5.76,3,11.61,11.61,0,0,1-4.71.92,9.67,9.67,0,0,1-7.72-4.06,15.11,15.11,0,0,1-3.27-9.82,14.15,14.15,0,0,1,1.44-6.68,21.19,21.19,0,0,1,4.58-5.63,84.27,84.27,0,0,1,26.31-14.53,94.17,94.17,0,0,1,31.29-5.36q27.23,0,43.33,13.35t16.1,35.61q-.27,15.18-8,26.57a44.14,44.14,0,0,1-21.6,16.63Q1296.12,1704.21,1304.89,1715.86Z" style="fill: #3a3632"/>
    <path d="M1855.33,1403c0,40.53-270.4,100.57-603.95,100.57h-1.06c-333.56,0-603.95-60-603.95-100.57" style="fill: none;stroke: #3a3632;stroke-linecap: round;stroke-miterlimit: 10;stroke-width: 24px"/>
  </g>
  <g>
    <path d="M1109.05,1442.31l-31.21-175.88c-23.21-130.8-83.94-210.91-151.67-259.92" style="fill: none;stroke: #231f20;stroke-linecap: round;stroke-linejoin: round;stroke-width: 24px"/>
    <polyline points="972.65 1336.24 1110.48 1450.37 1200.63 1295.79" style="fill: none;stroke: #231f20;stroke-linecap: round;stroke-linejoin: round;stroke-width: 24px"/>
  </g>
</svg>
