<svg id="Layer_1" data-name="Layer 1" xmlns="http://www.w3.org/2000/svg" width="2000" height="2000" viewBox="0 0 2000 2000">
  <g>
    <path d="M741.51,1335.14c307.55,0,668.66-163.64,668.66-535.37,0-87.56-299.37-168-668.66-168h-1c-369.29,0-668.66,80.48-668.66,168,0,371.73,361.11,535.37,668.66,535.37" style="fill: #fff;stroke: #3a3632;stroke-miterlimit: 10;stroke-width: 24px"/>
    <path d="M797,1118.63q9.07,12.06,9.08,29.95,0,24.68-18.16,39.31t-49.07,14.64a106.61,106.61,0,0,1-33.89-5.42,81.44,81.44,0,0,1-27.65-15.18q-6.24-5.42-6.23-12.74a15.64,15.64,0,0,1,3.39-10.17q3.38-4.2,8-4.2a12.1,12.1,0,0,1,4.88,1,66.68,66.68,0,0,1,6,3.12,116.76,116.76,0,0,0,21.68,11.65,60.8,60.8,0,0,0,22.51,4.07q17.88,0,26.56-7.19t8.68-21.82q0-14.37-9.08-21.28t-28.06-6.91H720.1q-6.24,0-9.63-4.2a15.56,15.56,0,0,1,0-19.39q3.39-4.07,9.63-4.06h10.84q37.14,0,37.14-27.93,0-13-7.86-20.06t-21.69-7q-19.8,0-42.29,15.73c-2.53,1.45-4.52,2.48-6,3.12a12.05,12.05,0,0,1-4.87.94c-3.08,0-5.74-1.39-8-4.2a15.67,15.67,0,0,1-3.39-10.16,14.68,14.68,0,0,1,1.49-6.92,22.29,22.29,0,0,1,4.74-5.83,87.1,87.1,0,0,1,27.25-15,97.41,97.41,0,0,1,32.4-5.56q28.18,0,44.86,13.83t16.67,36.87q-.27,15.72-8.26,27.51a45.77,45.77,0,0,1-22.37,17.22Q787.88,1106.56,797,1118.63Z" style="fill: #3a3632"/>
    <path d="M1366.9,794.68c0,42-280,104.13-625.35,104.13h-1.1c-345.38,0-625.36-62.17-625.36-104.13" style="fill: none;stroke: #3a3632;stroke-linecap: round;stroke-miterlimit: 10;stroke-width: 24px"/>
  </g>
  <g>
    <path d="M104.44,1902.15h1794c56.48,0,88.59-45.57,72.24-100.09l-93-309.81c-13-43.17-62.27-77.24-110.48-77.24H235.65c-48.22,0-97.53,34.07-110.49,77.25l-93,309.8C15.85,1856.58,48,1902.15,104.44,1902.15Z" style="fill: #fff;stroke: #3a3632;stroke-miterlimit: 10;stroke-width: 24px"/>
    <path d="M184.26,1746.27c26.52,0,53-20.54,59.06-45.54l35.81-147.79c5.41-22.34-10.19-40.19-34.76-40.19s-49.37,17.85-55.45,40.19l-40.29,147.79C141.82,1725.73,157.73,1746.27,184.26,1746.27Z" style="fill: #fff;stroke: #3a3632;stroke-miterlimit: 10;stroke-width: 24px"/>
  </g>
  <g>
    <path d="M1853.57,143.58h0a61.34,61.34,0,0,1-33,81.13s-733,284.86-792.3,324.22c-17.1,28.35-43.55,156.36-220.6,233.07-130.12,56.38-243.85,18-279.41-64.07h0c-35.56-82.06,14.21-191.29,144.33-247.67,177.05-76.72,288.54-8.48,320.91-1.56,69.24-16.32,778.39-356.36,778.39-356.36a61.33,61.33,0,0,1,81.78,31.38h0ZM1731.18,195.8l.74,1.69a17.49,17.49,0,0,0,22.93,9.07L1796,188.73a17.5,17.5,0,0,0,9.07-22.94l-.73-1.69a17.48,17.48,0,0,0-22.93-9.06l-41.16,17.83A17.49,17.49,0,0,0,1731.18,195.8ZM758.87,700.52l.74,1.69a17.48,17.48,0,0,0,22.93,9.06l41.15-17.83a17.49,17.49,0,0,0,9.07-22.93l-.73-1.69a17.49,17.49,0,0,0-22.93-9.07l-41.16,17.83A17.5,17.5,0,0,0,758.87,700.52Zm-30.43-70.23.74,1.69A17.48,17.48,0,0,0,752.11,641l41.15-17.83a17.49,17.49,0,0,0,9.07-22.93l-.73-1.69a17.49,17.49,0,0,0-22.93-9.07l-41.16,17.83A17.5,17.5,0,0,0,728.44,630.29ZM698,560.05l.74,1.7a17.48,17.48,0,0,0,22.93,9.06L762.83,553a17.49,17.49,0,0,0,9.07-22.93l-.73-1.69a17.5,17.5,0,0,0-22.93-9.07l-41.16,17.83A17.5,17.5,0,0,0,698,560.05ZM636.29,711.92l.74,1.69A17.49,17.49,0,0,0,660,722.68l41.15-17.83a17.49,17.49,0,0,0,9.07-22.93l-.73-1.69a17.5,17.5,0,0,0-22.94-9.07L645.36,689A17.49,17.49,0,0,0,636.29,711.92Zm-30.43-70.23.73,1.69a17.5,17.5,0,0,0,22.94,9.07l41.15-17.83a17.49,17.49,0,0,0,9.07-22.93L679,610a17.49,17.49,0,0,0-22.93-9.06l-41.15,17.83A17.49,17.49,0,0,0,605.86,641.69ZM851,618.88l.73,1.69a17.49,17.49,0,0,0,22.93,9.07l41.16-17.84a17.49,17.49,0,0,0,9.06-22.93l-.73-1.69a17.48,17.48,0,0,0-22.93-9.06L860.09,596A17.48,17.48,0,0,0,851,618.88Zm-30.44-70.23.74,1.69a17.49,17.49,0,0,0,22.93,9.07l41.15-17.84a17.49,17.49,0,0,0,9.07-22.93l-.73-1.69a17.49,17.49,0,0,0-22.93-9.07l-41.16,17.84A17.49,17.49,0,0,0,820.59,548.65Z" style="fill: #d0d2d3;stroke: #3a3632;stroke-miterlimit: 10;stroke-width: 20px"/>
    <g>
      <g id="layer1">
        <path id="path60" d="M807.1,425.61c-14.27-34-41.63-61.35-51-70.73C645,243.75,542.8,227.94,479.81,309.89c-19.11,25.39-10.78,41.49-12.64,59-13.36.12-50.11,9.25-67.16,20.78-85.67,67.76-68.94,170.06,41.14,280.14,98.48,98.49,237.52,119.56,336.21,20.88,23.13-23.13,41.64-44.29,50.33-74.56,17.52-61,13.27-118.27-20.59-190.54Z" style="fill: #ba2115;stroke: #3a3632;stroke-linecap: round;stroke-width: 18.9983723292979px"/>
      </g>
      <g id="layer1-2" data-name="layer1">
        <path id="path60-2" data-name="path60" d="M767.7,418.29c-14.82-33.85-33.7-51.27-41.43-59-91.68-91.68-178.83-101.87-235.61-29.45-17.24,22.42-10.62,36-12.8,51.07-11.46.54-43.31,9.6-58.32,20.06-75.76,61-64.8,148.22,26,239,81.25,81.25,199.86,94.73,287.82,6.77C754,626.15,770.58,607.38,779,581.11c17.06-53,15.31-101.93-11.34-162.82Z" style="fill: #c93c27"/>
      </g>
      <g id="layer2">
        <path id="path920" d="M448.78,348s-77.64-.82-107.06-17.17c7.36,9,38.41,36.78,74.37,43.32,0,0-63.74,70.28-62.92,89.08,0,0,72.73-53.12,80.08-76.82,0,0,47.4,62.11,76,69.46,0,0-17.17-77.64-33.51-87.44,0,0,93.16-52.31,107.06-77.64-15.53-4.09-89.9,26.15-107.88,45.77,11.79-30.34-1.63-71.92-1.63-71.92s-20.43,71.1-24.52,83.36Z" style="fill: #07a44a"/>
      </g>
      <circle cx="597.58" cy="354.25" r="28.72" style="fill: #fff"/>
      <circle cx="674.41" cy="372.84" r="18.81" style="fill: #fff;opacity: 0.4"/>
      <circle cx="718.08" cy="422.53" r="14.55" style="fill: #fff;opacity: 0.2"/>
    </g>
  </g>
  <g>
    <path d="M1517.09,1592.14l-25.85-145.67c-19.23-108.34-69.53-174.69-125.63-215.28" style="fill: none;stroke: #231f20;stroke-linecap: round;stroke-linejoin: round;stroke-width: 24px"/>
    <polyline points="1404.11 1504.29 1518.27 1598.82 1592.94 1470.79" style="fill: none;stroke: #231f20;stroke-linecap: round;stroke-linejoin: round;stroke-width: 24px"/>
  </g>
</svg>
