<svg xmlns="http://www.w3.org/2000/svg" height="1578.47" width="1983.683"  xmlns:v="https://vecta.io/nano"><style><![CDATA[.B{stroke-width:24}.C{stroke-linejoin:round}.D{stroke-miterlimit:10}]]></style><path d="M572.913 1203.92l-3.87 5.7h-.14l-.3-.1-1.7-.6-2.27-.8-4.55-1.6-9.1-3.15-18.1-6.25-36.08-12c-24-7.88-48.08-15-72-22.1q-18-5.3-36-10.07l-35.95-9.78-71.25-17.67-74-17.4c-24.77-5.43-49.8-10.08-74.3-16.25s-48.32-14.37-71.07-25.7c-11.45-5.44-22.58-11.86-33.64-18.48-5.74-2.68-10.5-8.32-13.43-19.37a79.68 79.68 0 0 1-1.94-9.11l-1.16-11.43v-.34a84.08 84.08 0 0 1 19-56.83l.17-.2 7.83-8.43a81.68 81.68 0 0 1 7-6.11c9.05-7.05 16.3-8.68 22.54-7.37 12.9 1.4 25.76 3 38.3 5.53 25.2 4.7 49.34 12.54 72.8 22.4s46.37 21.2 69.54 31.78l69.88 30.62c24.6 11.7 47.36 24.3 70 37.62q17 9.92 33.65 20.3 16.56 10.62 32.82 21.68c21.72 14.6 42.68 30.46 63 46.9 10.1 8.33 20.16 16.68 29.8 25.57 4.86 4.37 9.63 8.87 14.34 13.4l7 6.93 3.45 3.48 1.73 1.74.86.87.43.43.2.22.1.1c-1.6 2.62 3.8-5.65-3.6 5.88z" fill="#231f20"/><path d="M1164.463 1050.43h1.37c445.05 0 805.85 70.75 805.85 176.28-19.94 81.74-77 196.5-145.86 249.08-55.22 37.8-375.76 90.68-659.95 90.68h-4c-284.18 0-604.73-52.87-659.94-90.68-68.87-52.58-125.92-167.34-145.86-249.08 0-105.53 360.8-176.28 805.84-176.28h1.25" fill="#fff" stroke="#231f20" class="B D"/><g fill="#231f20"><circle r="15.96" cy="1178.25" cx="596.893"/><circle r="15.96" cy="1216.57" cx="496.143"/></g><path d="M848.323 1144.2c-34.94-34.9-115.1-28.16-152.32 4.55-33.48 29.42-42.28 94.7-14.43 129 109.1 134.28 313.73 219.04 495.44 215.4 179.47-3.6 386.76-77.82 479.42-232.14 20.36-33.9 6.42-95.35-25.66-119.85-36.2-27.65-112-30.06-142.7 3-69 74.45-199.44 140.57-315.87 141.1-118.85.6-234.65-51.96-323.88-141.05z" fill="#c75127" stroke="#010101" stroke-width="16"/><path d="M680.463 1260.72c99.43 133 294.15 219.92 468.9 221.88 43.14.5 88.36-2.08 132.76-11.33 97.52-20.32 27.6-46.13 4.4-38 0 0-29.53 32.3-53.34-3.52-5.87-8.84-30-8.2-41.85-.55-12 7.77 24.6 17 10.36 24.9-9.6 5.35-32.46 7.76-36.56 4.2-6.24-5.45-25.63-12.15-30.1-15.62a31.71 31.71 0 0 1-11-18.25c-1-5.48 1.3-18.76-3.9-23.44-7.4-6.6-24.83 8.07-29.1 17.07-5.28 11.18-1.82 21.2-6.63 23.3-10.38 4.5-25.3-7-28.1-10.9-6.72-9.37.74-22.3 0-35.45-.3-5.7-1.88-24.1-7.92-26s-9.54-6.62-16-7.7-10.7-2.38-17.27-2.56-16.2-6.13-20.64-13.58a35.34 35.34 0 0 0-18.27-14.33c-12.72-4.42-20.18-5.3-25.62-7.46-10.1-4-26.26 3-38.1 2.46-12.56-.55-20.36 9.36-29.1 14.1-15.16 8.24-20.78-.2-29.2-7.93-10.2-9.35-5.93-34.53-20.26-46.32-11.1-9.13-30.27-23-43.9-17.25s-19.78-24.83-33.93-20.26-32.07-2.93-46.57-5.53c-20.2-3.62-43.4-1-29.1 18.1z" fill="#a54023"/><path d="M792.663 1140c-58.37 15.62-28.64 53.43-27.2 62.44 1.15 10.77 16 22.8 29.5 26.54 19 5.27 48.7 9.1 48.7 9.1 14.33.18 36.24 26.66 46.64 34s8.13 9.8 29.1 19c13.15 5.8 21.07-1.4 32.26 7.38 13.3 10.45 15.12 16.7 36.1 11.66 17.2-4.14 41 24.93 59.87 28.15s34.78 1.84 55 4.3c29.83 3.6 18.44 10.72 39.9 12.13s16.8-6.84 41-10.23c21.9-3.06 29.83 3.35 52.78 3.1s21.38-16.7 44.65-17.7 23.8 2.3 47.13.55 20 4.08 43 1.66 29.08-2.54 45.78-13.52c20.7-13.6 22.86-17.27 40.05-27.27 19.92-11.6 17-32.4 33.5-42.08 29.93-17.52 10.5-4.24 29.93-9s22.8-35.65 39.92-29.33c0 0 21.48-9.48 29.82-23.12 11.1-23.57-11.38-45.74-74.2-30.77-10.24 8.08-.68 25.27-13 33s-19.64 14.58-33.74 21.82-13.75 26-29.25 32.56-31.6 22.47-48.16 28.1-48.77-2.43-66 2.1-25.27 24.85-42.88 28.08-31.5 9.7-49.12 11.45-48.48 1.37-65.75 1.43c-17.63.06-37-5.64-54.57.67-22.9 8.22-42.43-8.66-59.62-11.37s-24.7-14-41.5-18-35.3-23.6-51.6-28.86-30.43-13.16-46.14-19.6-31.6-22.56-46.6-30.13-23.9-15.7-38.06-24.35-24.1-34.22-37.33-43.9z" fill="#d28b31"/><path d="M1399.663 1439.68c32-8.57 63.4-22 93.15-39.2a470.45 470.45 0 0 0 83.47-61.79 487.34 487.34 0 0 0 68.19-77.88c11.9-36.33-14.2-38-44.26-45.9-14.65-3.87-17.66 11.88-12.3 25-30.45 23.57-6.07 27.06-11.26 42.6-6.7 7.64-18.47 7.6-35.15 16.1-7.47 3.8-21.63-7-31.76-2.27-8.73 4.06 2 16.47 3.36 23.73 2.44 12.6-5.52 14.3-13.65 18.1-9.85 4.63-14.85 4.22-27.64 11.06-9.9 5.3-17.08 11.92-16.12 22.82s-9.25 15.52-28.72 23.7c-10.58 4.43-28 9.85-33.75 19.18-5 21-10.4 28.72 6.43 24.76z" fill="#a54023"/><path d="M408.203 1230.57c0 50.57 337.42 125.5 753.65 125.5h1.33c416.23 0 753.65-74.92 753.65-125.5l-113.54 218.38s-219 88.66-637.82 88.66-640.73-88.66-640.73-88.66z" fill="#fff"/><g stroke="#231f20" fill="none" stroke-linecap="round" class="B"><path d="M1916.833 1220.57c0 50.57-337.42 125.5-753.65 125.5h-1.33c-416.23 0-753.65-74.92-753.65-125.5" class="D"/><path d="M676.153 484.15a275.31 275.31 0 0 1-75.67 247.49c-107.6 107.6-282.1 107.6-389.7 0s-107.6-282.1 0-389.7 282.1-107.62 389.7 0m2.73-118.17l17.72 138.65-139.68-5.1" class="C"/></g><g stroke="#010101" fill="#b0b0b0" class="C"><path d="M1260.963 470.15l-10.14 47.63a28.26 28.26 0 0 1-33.53 21.76l-20-4.26a28.26 28.26 0 0 0-33.52 21.75l-4.26 20a28.26 28.26 0 0 1-33.52 21.76l-20-4.26a28.26 28.26 0 0 0-33.52 21.75l-4.26 20a28.26 28.26 0 0 1-33.52 21.76l-20-4.26a28.25 28.25 0 0 0-33.52 21.76l-4.26 20a28.26 28.26 0 0 1-33.52 21.75l-20-4.26a28.26 28.26 0 0 0-33.53 21.76l-4.2 20.06a28.25 28.25 0 0 1-33.45 21.76l-29.35-6.17a44.73 44.73 0 0 1-28.3-19.41h0a44.71 44.71 0 0 1 12.9-61.68l427.6-281.82L1886.783 12l53.4 82.3-147.47 95.7-8.4-12.94a38.72 38.72 0 0 0-53.56-11.41z" class="B"/><path d="M1339.833 573.15l-48.6-3.07a28.26 28.26 0 0 0-30 26.43l-1.3 20.4a28.26 28.26 0 0 1-30 26.42l-20.4-1.3a28.25 28.25 0 0 0-30 26.43l-1.3 20.4a28.26 28.26 0 0 1-30 26.43l-20.4-1.3a28.26 28.26 0 0 0-30 26.43l-1.2 20.37a28.27 28.27 0 0 1-30 26.43l-20.4-1.3a28.26 28.26 0 0 0-30 26.42l-1.3 20.4a28.26 28.26 0 0 1-30 26.43l-20.47-1.3a28.25 28.25 0 0 0-30 26.35l-1.84 29.9a44.7 44.7 0 0 0 11.07 32.48h0a44.7 44.7 0 0 0 62.87 4.19l386.6-335.9 556.47-521.07-64.86-73.6-131.9 116.24 10.2 11.58a38.71 38.71 0 0 1-3.45 54.65z" class="B"/><circle r="17.61" cy="101.29" cx="1857.033" stroke-width="12"/></g></svg>