<svg xmlns="http://www.w3.org/2000/svg" height="1923.927" width="1923.967"  xmlns:v="https://vecta.io/nano"><circle r="847.31" cy="1064.617" cx="859.31" fill="#fff" stroke="#231f20" stroke-width="24"/><path d="M1902.3 110.737l-89-89a33.1 33.1 0 0 0-44.23-2.4l-2.12 1.72a537.52 537.52 0 0 0-55.63 51.8l-168.83 182.1a666.1 666.1 0 0 0-56.15 68.92l-72.68 96.85 89.7 89.7 96.58-72.5a667.94 667.94 0 0 0 69.35-56.54l182.7-169.7a537.4 537.4 0 0 0 50.08-53.68l2.46-3a33.1 33.1 0 0 0-2.23-44.26z" fill="#231f20"/><circle r="671.18" cy="1064.617" cx="859.31" fill="none" stroke="#231f20" stroke-width="24"/><g transform="rotate(315)" fill="#231f20"><ellipse ry="17.91" rx="12.19" cy="1277.762" cx="594.739"/><ellipse ry="17.91" rx="12.19" cy="1443.074" cx="594.744"/></g><path d="M530.98 855.357c-35.1-37-115.6-29.88-153 4.83-33.62 31.22-42.45 100.5-14.5 136.87 109.6 142.54 315.1 232.5 497.6 228.68 180.23-3.8 388.4-82.58 481.45-246.35 20.45-36 6.45-101.2-25.77-127.2-36.34-29.33-112.5-31.9-143.3 3.22-69.3 79-200.28 149.2-317.2 149.75-119.37.53-235.67-55.23-325.27-149.8z" fill="#c75127" stroke="#010101" stroke-width="16.022"/><path d="M362.4 979.017c99.86 141.1 295.4 233.4 470.88 235.47 43.33.52 88.74-2.2 133.32-12 97.93-21.57 27.73-49 4.42-40.36 0 0-29.66 34.3-53.57-3.73-5.9-9.38-30.14-8.7-42-.6-12.06 8.25 24.7 18 10.4 26.45-9.65 5.68-32.6 8.22-36.72 4.44-6.27-5.78-25.74-12.9-30.24-16.58-6.4-5.24-10-13.55-11-19.36s1.32-19.92-3.92-24.88c-7.42-7-24.94 8.56-29.22 18.12-5.3 11.85-1.82 22.5-6.66 24.72-10.42 4.77-25.4-7.45-28.2-11.57-6.75-9.94.74-23.66 0-37.62-.3-6-1.9-25.57-7.95-27.6s-9.58-7-16.07-8.17-10.75-2.53-17.34-2.72-16.3-6.5-20.74-14.4a35.87 35.87 0 0 0-18.34-15.21c-12.77-4.7-20.27-5.63-25.72-7.92-10.17-4.27-26.38 3.16-38.28 2.6-12.62-.6-20.45 9.94-29.23 15-15.22 8.74-20.86-.22-29.33-8.42-10.26-9.93-5.95-36.65-20.34-49.16-11.14-9.7-30.4-24.46-44.08-18.3s-19.87-26.36-34.07-21.5-32.2-3.1-46.77-5.87c-20.27-3.84-43.58-1.08-29.23 19.2z" fill="#a54023"/><path d="M475.08 850.877c-58.62 16.58-28.75 56.7-27.32 66.27 1.16 11.43 16.07 24.2 29.63 28.17 19.1 5.6 48.9 9.67 48.9 9.67 14.4.2 36.4 28.3 46.84 36s8.16 10.4 29.2 20.2c13.2 6.16 21.15-1.5 32.4 7.84 13.35 11.1 15.18 17.73 36.26 12.37 17.27-4.4 41.15 26.46 60.12 29.87s34.93 2 55.3 4.56c29.95 3.83 18.5 11.38 40.07 12.87s16.87-7.26 41.2-10.85c22-3.25 30 3.55 53 3.3s21.47-17.7 44.84-18.77 23.9 2.42 47.33.58 20 4.33 43.24 1.76 29.2-2.7 46-14.36c20.8-14.44 23-18.32 40.23-28.93 20-12.3 17-34.4 33.64-44.66 30.05-18.6 10.53-4.5 30.05-9.58s22.9-37.83 40.1-31.13c0 0 21.57-10.05 29.94-24.52 11.15-25-11.43-48.55-74.52-32.66-10.28 8.57-.68 26.8-13.07 35s-19.73 15.48-33.88 23.16-13.8 27.62-29.38 34.55-31.74 23.84-48.36 29.8-49-2.58-66.3 2.22-25.37 26.37-43.06 29.8-31.64 10.3-49.33 12.15-48.68 1.46-66 1.52c-17.7.06-37.12-6-54.8.72-23 8.72-42.6-9.2-59.87-12.08s-24.8-14.84-41.68-19.1-35.43-25.05-51.8-30.63-30.57-14-46.34-20.8-31.75-23.94-46.8-32-24-16.67-38.22-25.85-24.26-36.2-37.55-46.47z" fill="#d28b31"/><path d="M1084.6 1168.937c32.17-9.1 63.67-23.34 93.54-41.6a475.25 475.25 0 0 0 83.82-65.58 509 509 0 0 0 68.47-82.65c12-38.55-14.25-40.28-44.44-48.7-14.7-4.1-17.73 12.62-12.34 26.5-30.57 25-6.1 28.72-11.3 45.23-6.72 8.1-18.54 8-35.3 17.08-7.5 4-21.72-7.42-31.9-2.4-8.77 4.32 2 17.48 3.38 25.2 2.44 13.36-5.55 15.16-13.7 19.22-9.9 4.92-14.92 4.47-27.76 11.74-9.94 5.62-17.15 12.65-16.2 24.22s-9.3 16.47-28.84 25.13c-10.62 4.7-28.12 10.46-33.9 20.37-5 22.27-10.45 30.48 6.46 26.27z" fill="#a54023"/><g stroke="#231f20" fill="none" stroke-linecap="round" stroke-linejoin="round"><path d="M964.87 894.407l-125-150 168.35-98.9" stroke-width="32.045"/><path d="M859.3 752.447c204.55 0 370.37 165.82 370.37 370.37s-165.82 370.37-370.37 370.37-370.38-165.82-370.38-370.37" stroke-width="24"/></g></svg>