<svg xmlns="http://www.w3.org/2000/svg" height="1923.946" width="1373.212"  xmlns:v="https://vecta.io/nano"><style><![CDATA[.B{stroke:#231f20}.C{stroke-width:24}.D{stroke-linejoin:round}.E{stroke-linecap:round}]]></style><g fill="#fff" class="B C D"><path d="M907.132 869.2l454.08-46.25-699.85-265.3-643.1 79.77z"/><path d="M43.332 637.14l34.5-486.54L652.382 12l8.86 545.23z"/><path d="M661.242 557.23l669.56 262.14-42.65-447.2L652.382 12z"/></g><path d="M1344.862 1474.26l-.77-2.8a58.66 58.66 0 0 0-17.88-28.55l-20.6-18-1.05-447.2-402.88-46-840.9 228.2-9.2 486.55-23.24 24.08a58.56 58.56 0 0 0-14.87 27.4h0a58.53 58.53 0 0 0 43 70l433 130.33a467.66 467.66 0 0 0 348.38-50.27l480.14-307.78a58.52 58.52 0 0 0 26.84-65.95z" opacity=".992" fill="#ecdaba" class="B C D"/><path d="M51.612 1637.7l618.24 138.6 635.77-360.17m-85.4-401.18l-556.08 226.58-519-69.07" fill="none" class="E B C D"/><path d="M671.592 1737.9l-7.45-425.62" fill="#fbb040" class="B C D E"/></svg>