<svg id="Layer_1" data-name="Layer 1" xmlns="http://www.w3.org/2000/svg" viewBox="0 0 2000 2000"><path d="M1958.31,1309.74,1894,1359a43.67,43.67,0,0,1-26.58,9.2h-1735a43.61,43.61,0,0,1-26.2-8.92L45.83,1314" style="fill:#f1f1f2;stroke:#231f20;stroke-miterlimit:10;stroke-width:16.8836891491864px"/><path d="M1897.76,1333H102.24c-54.49,0-84.46-35.81-67.5-78.6L261.16,683.22c9.64-24.32,49.26-43.57,88.71-43.57H1650.13c39.45,0,79.07,19.25,88.71,43.57l226.42,571.17C1982.22,1297.18,1952.25,1333,1897.76,1333Z" style="fill:#f1f1f2;stroke:#231f20;stroke-miterlimit:10;stroke-width:26.0069017410278px"/><path d="M81.46,1275.52,293.53,724.88c7.87-20.45,41-36.7,74.09-36.7H1632.35c33.13,0,66.23,16.25,74.1,36.7l209.86,543" style="fill:none;stroke:#231f20;stroke-linecap:round;stroke-linejoin:round;stroke-width:8.44184457459322px"/><polygon points="875.34 670 726.38 670 626.63 748.19 626.63 845.09 683.89 936.06 857.22 936.06 947.08 845.09 947.08 748.19 875.34 670" style="fill:#ead39a;stroke:#231f20;stroke-linejoin:round;stroke-width:12px"/><polygon points="1373.37 748.19 1273.62 670 1124.66 670 1052.92 748.19 1052.92 845.09 1142.78 936.06 1316.11 936.06 1373.37 845.09 1373.37 748.19" style="fill:#ead39a;stroke:#231f20;stroke-linejoin:round;stroke-width:12px"/><polygon points="849.57 911.96 665.95 911.96 535.06 1032.89 535.06 1129.79 598.84 1276.06 820.94 1276.06 937.13 1129.79 937.13 1032.89 849.57 911.96" style="fill:#ead39a;stroke:#231f20;stroke-linejoin:round;stroke-width:12px"/><polygon points="1464.94 1032.89 1334.05 911.96 1150.43 911.96 1062.87 1032.89 1062.87 1129.79 1179.06 1276.06 1401.16 1276.06 1464.94 1129.79 1464.94 1032.89" style="fill:#ead39a;stroke:#231f20;stroke-linejoin:round;stroke-width:12px"/><polygon points="875.34 670 726.38 670 626.63 748.19 683.89 839.17 857.22 839.17 947.08 748.19 875.34 670" style="fill:#f9f1c0;stroke:#231f20;stroke-linejoin:round;stroke-width:12px"/><polygon points="1273.62 670 1124.66 670 1052.92 748.19 1142.78 839.17 1316.11 839.17 1373.37 748.19 1273.62 670" style="fill:#f9f1c0;stroke:#231f20;stroke-linejoin:round;stroke-width:12px"/><polygon points="849.57 911.96 665.95 911.96 535.06 1032.89 598.84 1179.16 820.94 1179.16 937.13 1032.89 849.57 911.96" style="fill:#f9f1c0;stroke:#231f20;stroke-linejoin:round;stroke-width:12px"/><polygon points="1334.05 911.96 1150.43 911.96 1062.87 1032.89 1179.06 1179.16 1401.16 1179.16 1464.94 1032.89 1334.05 911.96" style="fill:#f9f1c0;stroke:#231f20;stroke-linejoin:round;stroke-width:12px"/><path d="M880.33,748.19c-3.06,32.19-49.78,59.69-104.17,59.69s-91.25-27.5-82.78-59.69c8-30.44,54-53.91,103.13-53.91S883.22,717.75,880.33,748.19Z" style="fill:#ead39a;stroke:#231f20;stroke-linejoin:round;stroke-width:12px"/><path d="M1306.62,748.19c8.47,32.19-28.39,59.69-82.78,59.69s-101.11-27.5-104.17-59.69c-2.89-30.44,34.7-53.91,83.82-53.91S1298.61,717.75,1306.62,748.19Z" style="fill:#ead39a;stroke:#231f20;stroke-linejoin:round;stroke-width:12px"/><path d="M853.38,1032.89c-4.86,51.06-65.16,95.28-134.35,95.28S605.37,1084,618.81,1032.89c12.52-47.58,71.42-83.83,132.3-83.83S857.9,985.31,853.38,1032.89Z" style="fill:#ead39a;stroke:#231f20;stroke-miterlimit:10;stroke-width:12px"/><path d="M1381.19,1032.89c13.44,51.06-31,95.28-100.22,95.28s-129.49-44.22-134.35-95.28c-4.52-47.58,41.39-83.83,102.27-83.83S1368.67,985.31,1381.19,1032.89Z" style="fill:#ead39a;stroke:#231f20;stroke-miterlimit:10;stroke-width:12px"/><path d="M712.1,790.75c15,10.52,37.4,17.13,64.06,17.13,34.1,0,65.17-10.81,84.37-26.8-15.24-10.71-38-17.29-64-17.29C763.39,763.79,731.69,774.46,712.1,790.75Z" style="fill:none;stroke:#231f20;stroke-linejoin:round;stroke-width:12px"/><path d="M1287.9,790.75c-19.59-16.29-51.29-27-84.41-27-26,0-48.78,6.58-64,17.29,19.2,16,50.27,26.8,84.37,26.8C1250.5,807.88,1272.94,801.27,1287.9,790.75Z" style="fill:none;stroke:#231f20;stroke-linejoin:round;stroke-width:12px"/><path d="M751.11,1018.57c-53,0-104.57,27.52-125.24,66.07,15.6,25.87,49.44,43.53,93.16,43.53,55.38,0,105.06-28.33,125.18-65.83C828.16,1035.91,793.22,1018.57,751.11,1018.57Z" style="fill:none;stroke:#231f20;stroke-miterlimit:10;stroke-width:12px"/><path d="M1248.89,1018.57c-42.11,0-77.05,17.34-93.1,43.77,20.12,37.5,69.8,65.83,125.18,65.83,43.72,0,77.56-17.66,93.16-43.53C1353.46,1046.09,1301.93,1018.57,1248.89,1018.57Z" style="fill:none;stroke:#231f20;stroke-miterlimit:10;stroke-width:12px"/><path d="M600.39,1214.12c13.47-1.67,27-2.5,40.42-3.14s27-.85,40.43-.86,27,.27,40.42.85,27,1.47,40.43,3.15c-13.48,1.68-27,2.51-40.43,3.14s-26.95.86-40.42.86-27-.28-40.43-.87S613.86,1215.79,600.39,1214.12Z" style="fill:#231f20"/><path d="M816.22,1241.46a296.3,296.3,0,0,1-30.15,3.14q-15.08.89-30.15.86t-30.15-.85a293,293,0,0,1-30.14-3.15,293,293,0,0,1,30.14-3.14q15.08-.88,30.15-.85t30.15.86A299.14,299.14,0,0,1,816.22,1241.46Z" style="fill:#231f20"/><path d="M1369.47,1214.12c-11.17,1.66-22.33,2.52-33.5,3.13s-22.33.86-33.49.87-22.33-.27-33.5-.86-22.33-1.47-33.49-3.14c11.16-1.67,22.33-2.53,33.49-3.15s22.33-.86,33.5-.85,22.33.28,33.49.86S1358.3,1212.46,1369.47,1214.12Z" style="fill:#231f20"/><path d="M1190.64,1241.46a206.74,206.74,0,0,1,25-3.13c8.33-.59,16.66-.86,25-.86s16.66.26,25,.85a202.76,202.76,0,0,1,25,3.14,202.79,202.79,0,0,1-25,3.15q-12.48.89-25,.85c-8.32,0-16.65-.27-25-.86A204.79,204.79,0,0,1,1190.64,1241.46Z" style="fill:#231f20"/><path d="M833.84,1208.59c5.72-10,12.06-19.57,18.6-29s13.37-18.56,20.39-27.57,14.25-17.86,21.74-26.51,15.21-17.11,23.55-25.1c-5.71,10-12,19.58-18.59,29S886.16,1148,879.13,1157s-14.26,17.85-21.75,26.5S842.17,1200.59,833.84,1208.59Z" style="fill:#231f20"/><path d="M1173.51,1219.71c-8.78-8.34-16.93-17.18-24.89-26.16S1133,1175.33,1125.5,1166s-14.75-18.91-21.77-28.65-13.81-19.67-20-30.08c8.78,8.33,16.93,17.17,24.9,26.16s15.63,18.21,23.1,27.59,14.75,18.92,21.77,28.66S1167.32,1209.31,1173.51,1219.71Z" style="fill:#231f20"/><path d="M1161.92,878.75c11.14-1.66,22.28-2.52,33.42-3.14s22.28-.86,33.42-.86,22.29.26,33.43.85,22.28,1.48,33.42,3.15c-11.14,1.66-22.28,2.52-33.42,3.14s-22.29.86-33.43.85-22.28-.27-33.42-.86S1173.06,880.4,1161.92,878.75Z" style="fill:#231f20"/><path d="M684.17,862.84a231.88,231.88,0,0,1,26.48-3.13c8.83-.59,17.66-.86,26.48-.87s17.66.27,26.49.86a225.61,225.61,0,0,1,26.48,3.14A227.79,227.79,0,0,1,763.62,866q-13.25.87-26.49.85T710.65,866A229.69,229.69,0,0,1,684.17,862.84Z" style="fill:#231f20"/><path d="M1078.63,824.41a44,44,0,0,1,10.06,5.56,70.26,70.26,0,0,1,8.46,7.17,69.37,69.37,0,0,1,7.26,8.39,43.69,43.69,0,0,1,5.64,10A43.63,43.63,0,0,1,1100,850a70.2,70.2,0,0,1-8.46-7.18,71.94,71.94,0,0,1-7.24-8.4A43.86,43.86,0,0,1,1078.63,824.41Z" style="fill:#231f20"/><path d="M866.08,888A84.74,84.74,0,0,1,875,874.55a146.79,146.79,0,0,1,10.53-11.87A141.53,141.53,0,0,1,897.27,852,83.87,83.87,0,0,1,910.64,843a83.89,83.89,0,0,1-8.9,13.48A147.71,147.71,0,0,1,879.45,879,84.79,84.79,0,0,1,866.08,888Z" style="fill:#231f20"/><path d="M1129.21,751.44a53.16,53.16,0,0,1,12.5-14.72,74.44,74.44,0,0,1,16.37-10.38,79.41,79.41,0,0,1,18.38-6,63,63,0,0,1,19.23-1c-6,2.56-11.77,4.67-17.46,7s-11.28,4.65-16.76,7.21-10.87,5.29-16.18,8.27S1134.74,748.07,1129.21,751.44Z" style="fill:#231f20"/><path d="M1222.56,732.37a65,65,0,0,1,19.55-1.73,84.34,84.34,0,0,1,19.41,3.35,80.5,80.5,0,0,1,18.1,7.83,58.61,58.61,0,0,1,15.18,12.51c-6.18-2.33-12-4.72-17.88-6.83s-11.74-4.08-17.67-5.84-11.93-3.35-18-4.82S1229,734.05,1222.56,732.37Z" style="fill:#231f20"/><path d="M1165.23,756.2A39.41,39.41,0,0,1,1176.3,749a57.33,57.33,0,0,1,25.43-4.87,40,40,0,0,1,12.94,2.54,92.18,92.18,0,0,1-12.35,3.72c-4,1-8.06,1.82-12.08,2.58s-8.06,1.45-12.18,2A101.76,101.76,0,0,1,1165.23,756.2Z" style="fill:#231f20"/><path d="M704.06,751.44a53.32,53.32,0,0,1,12.5-14.72,74.27,74.27,0,0,1,16.38-10.38,79.17,79.17,0,0,1,18.37-6,63,63,0,0,1,19.23-1c-6,2.56-11.77,4.67-17.46,7s-11.28,4.65-16.76,7.21-10.86,5.29-16.18,8.27S709.59,748.07,704.06,751.44Z" style="fill:#231f20"/><path d="M797.41,732.37A65,65,0,0,1,817,730.64,84.34,84.34,0,0,1,836.37,734a80.5,80.5,0,0,1,18.1,7.83,58.61,58.61,0,0,1,15.18,12.51c-6.18-2.33-12-4.72-17.88-6.83s-11.74-4.08-17.67-5.84-11.93-3.35-18-4.82S803.8,734.05,797.41,732.37Z" style="fill:#231f20"/><path d="M740.08,756.2A39.41,39.41,0,0,1,751.15,749a57.33,57.33,0,0,1,25.43-4.87,40,40,0,0,1,12.94,2.54,92.18,92.18,0,0,1-12.35,3.72c-4,1-8.06,1.82-12.08,2.58s-8.06,1.45-12.17,2A102.09,102.09,0,0,1,740.08,756.2Z" style="fill:#231f20"/><path d="M646,1008.76a65.32,65.32,0,0,1,14.7-16.59,89.67,89.67,0,0,1,18.88-11.81,96.33,96.33,0,0,1,21.08-7,77.83,77.83,0,0,1,22.06-1.56c-6.92,2.68-13.67,5-20.29,7.6s-13.11,5.27-19.46,8.23-12.58,6.18-18.69,9.71S652.23,1004.69,646,1008.76Z" style="fill:#231f20"/><path d="M753.77,986.76a80.47,80.47,0,0,1,22.49-1.52,101.85,101.85,0,0,1,22.28,4,97.2,97.2,0,0,1,20.86,8.88,72,72,0,0,1,17.72,14c-7-2.92-13.65-5.78-20.42-8.32s-13.55-4.85-20.43-6.89-13.83-3.84-20.9-5.44S761.14,988.43,753.77,986.76Z" style="fill:#231f20"/><path d="M687.6,1014.25a49.36,49.36,0,0,1,12.92-7.81,71.15,71.15,0,0,1,14.33-4.35,70.44,70.44,0,0,1,14.92-1.25,49.91,49.91,0,0,1,14.89,2.44,134,134,0,0,1-14.3,3.82c-4.7,1-9.35,2-14,2.85s-9.33,1.73-14.07,2.5A141.92,141.92,0,0,1,687.6,1014.25Z" style="fill:#231f20"/><path d="M1161.93,1007.67a65.35,65.35,0,0,1,14.69-16.6,89.74,89.74,0,0,1,18.89-11.81,95.6,95.6,0,0,1,21.08-7,77.79,77.79,0,0,1,22.05-1.57c-6.91,2.68-13.66,5-20.29,7.6s-13.1,5.27-19.46,8.23-12.57,6.18-18.68,9.71S1168.12,1003.59,1161.93,1007.67Z" style="fill:#231f20"/><path d="M1269.65,985.66a80.54,80.54,0,0,1,22.5-1.52,101.85,101.85,0,0,1,22.28,4,97.42,97.42,0,0,1,20.86,8.88,72,72,0,0,1,17.72,14c-7-2.92-13.65-5.78-20.42-8.32s-13.56-4.85-20.43-6.89-13.84-3.84-20.9-5.44S1277,987.33,1269.65,985.66Z" style="fill:#231f20"/><path d="M1203.49,1013.15a49.47,49.47,0,0,1,12.91-7.81,70.58,70.58,0,0,1,14.34-4.34,69.8,69.8,0,0,1,14.92-1.26,49.91,49.91,0,0,1,14.89,2.44,134,134,0,0,1-14.3,3.82c-4.7,1-9.35,2-14,2.85s-9.33,1.73-14.07,2.5A142.26,142.26,0,0,1,1203.49,1013.15Z" style="fill:#231f20"/></svg>