<?xml version="1.0" encoding="UTF-8" standalone="no"?>
<svg
   xmlns:dc="http://purl.org/dc/elements/1.1/"
   xmlns:cc="http://creativecommons.org/ns#"
   xmlns:rdf="http://www.w3.org/1999/02/22-rdf-syntax-ns#"
   xmlns:svg="http://www.w3.org/2000/svg"
   xmlns="http://www.w3.org/2000/svg"
   xmlns:sodipodi="http://sodipodi.sourceforge.net/DTD/sodipodi-0.dtd"
   xmlns:inkscape="http://www.inkscape.org/namespaces/inkscape"
   inkscape:version="1.0beta1 (32d4812, 2019-09-19)"
   height="1790.7352"
   width="1550.4506"
   sodipodi:docname="wait_cooking_pot_medium.svg"
   version="1.1"
   viewBox="0 0 1550.4506 1790.7352"
   data-name="Layer 1"
   id="Layer_1">
  <metadata
     id="metadata867">
    <rdf:RDF>
      <cc:Work
         rdf:about="">
        <dc:format>image/svg+xml</dc:format>
        <dc:type
           rdf:resource="http://purl.org/dc/dcmitype/StillImage" />
        <dc:title></dc:title>
      </cc:Work>
    </rdf:RDF>
  </metadata>
  <defs
     id="defs865" />
  <sodipodi:namedview
     inkscape:current-layer="Layer_1"
     inkscape:window-maximized="0"
     inkscape:window-y="25"
     inkscape:window-x="0"
     inkscape:cy="799.45515"
     inkscape:cx="-230.46568"
     inkscape:zoom="0.155125"
     fit-margin-bottom="8"
     fit-margin-right="8"
     fit-margin-left="8"
     lock-margins="true"
     fit-margin-top="8"
     showgrid="false"
     id="namedview863"
     inkscape:window-height="480"
     inkscape:window-width="1496"
     inkscape:pageshadow="2"
     inkscape:pageopacity="0"
     guidetolerance="10"
     gridtolerance="10"
     objecttolerance="10"
     borderopacity="1"
     inkscape:document-rotation="0"
     bordercolor="#666666"
     pagecolor="#ffffff" />
  <g
     transform="matrix(0.77732367,0,0,0.77732367,-2.0983731,245.62503)"
     id="layer3"
     style="opacity:1;stroke-width:15.4376;stroke-miterlimit:4;stroke-dasharray:none;stop-opacity:1">
    <path
       style="fill:#ffffff;stroke:#231f20;stroke-width:15.4376;stroke-linecap:round;stroke-linejoin:round;stroke-miterlimit:4;stroke-dasharray:none"
       d="M 1388.27,1170.89 V 1832 a 137.47,137.47 0 0 1 -137.21,137.72 H 158.47 A 137.46,137.46 0 0 1 20.71,1832.61 v -661.76 z"
       id="path916"
       inkscape:connector-curvature="0" />
  </g>
  <path
     id="path860"
     style="opacity:1;fill:#ffffff;stroke:#231f20;stroke-width:12;stroke-linecap:round;stroke-linejoin:round;stroke-miterlimit:4;stroke-dasharray:none;stop-opacity:1"
     d="m 1536.4506,1333.0387 -390.6829,-12.9347 a 47.603302,47.603302 0 0 0 -45.2558,29.0797 l -23.4907,55.6252 v -169.1378 l 459.3983,-14.9712 z"
     inkscape:connector-curvature="0" />
  <path
     inkscape:connector-curvature="0"
     d="m 593.26107,768.75702 a 32.414253,32.414253 0 0 1 -2.2401,17.8536 c -2.41931,5.80186 -6.5411,10.46127 -9.02761,15.24383 a 27.687641,27.687641 0 0 0 -3.96497,14.6615 c 0,5.197 0.77283,10.3269 2.92333,14.4935 2.15049,4.1665 5.60025,7.8403 9.58763,12.7461 3.98737,4.9058 7.91875,11.4693 9.13961,18.4697 a 45.709249,45.709249 0 0 1 -0.77284,20.7097 c -1.85928,7.1011 -6.33948,13.1382 -9.93484,17.6632 -3.59537,4.525 -6.32829,8.0979 -7.52674,12.3877 a 34.486346,34.486346 0 0 0 -0.81764,14.0118 c 0.56003,4.6258 2.43051,8.5348 5.60025,12.9254 3.16974,4.3906 7.56034,9.5652 9.91245,16.2519 a 40.769828,40.769828 0 0 1 1.89288,19.8922 36.35683,36.35683 0 0 1 -7.64994,17.988 c -3.98738,4.9507 -8.38918,8.57965 -11.51412,13.12705 a 34.721557,34.721557 0 0 0 -5.94746,15.8263 32.33585,32.33585 0 0 1 2.2401,-17.9208 c 2.4193,-5.81305 6.51869,-10.47245 9.0164,-15.25515 a 27.88925,27.88925 0 0 0 3.90898,-14.6502 c 0,-5.1858 -0.76164,-10.327 -2.90093,-14.4936 -2.1393,-4.1666 -5.60026,-7.8403 -9.54283,-12.7461 -3.94258,-4.9059 -7.94116,-11.4357 -9.17321,-18.4361 a 46.000462,46.000462 0 0 1 0.71683,-20.7097 c 1.83688,-7.1123 6.27228,-13.1941 9.91244,-17.7192 3.64017,-4.525 6.37309,-8.1091 7.58274,-12.3877 a 34.867163,34.867163 0 0 0 0.87364,-14.0118 c -0.56002,-4.6258 -2.40811,-8.546 -5.60025,-12.9254 -3.19214,-4.3794 -7.49313,-9.4756 -9.84524,-16.1959 a 40.467414,40.467414 0 0 1 -1.91529,-19.8809 35.987214,35.987214 0 0 1 7.62755,-17.98803 c 3.97617,-4.95062 8.37797,-8.57959 11.50291,-13.12699 a 34.56475,34.56475 0 0 0 5.93627,-15.80391 z"
     style="fill:#231f20;stroke-width:1.12005"
     id="path835" />
  <path
     inkscape:connector-curvature="0"
     d="m 696.6753,768.75702 a 32.313449,32.313449 0 0 1 -2.2401,17.8536 c -2.4193,5.80186 -6.5299,10.46127 -9.0276,15.24383 a 27.88925,27.88925 0 0 0 -3.9202,14.6615 c 0,5.197 0.784,10.3269 2.9345,14.4935 2.1505,4.1665 5.6003,7.8403 9.5876,12.7461 3.9874,4.9058 7.9188,11.4693 9.1397,18.4697 a 45.709249,45.709249 0 0 1 -0.7729,20.7097 c -1.8593,7.1011 -6.3395,13.1382 -9.946,17.6632 -3.6066,4.525 -6.3283,8.0979 -7.5156,12.3877 a 34.105529,34.105529 0 0 0 -0.8176,14.0118 c 0.5488,4.6258 2.4305,8.5348 5.6002,12.9254 3.1698,4.3906 7.5716,9.5652 9.9125,16.2519 a 40.635422,40.635422 0 0 1 1.8929,19.8922 36.256026,36.256026 0 0 1 -7.65,17.988 c -3.9761,4.9507 -8.3891,8.57965 -11.5029,13.12705 a 34.822361,34.822361 0 0 0 -5.9586,15.8263 32.481456,32.481456 0 0 1 2.2401,-17.9208 c 2.4081,-5.81305 6.5186,-10.47245 9.0164,-15.25515 a 27.88925,27.88925 0 0 0 3.9089,-14.6502 c 0,-5.1858 -0.7616,-10.327 -2.9009,-14.4936 -2.1393,-4.1666 -5.6003,-7.8403 -9.5428,-12.7461 -3.9426,-4.9059 -7.9411,-11.4357 -9.1844,-18.4361 a 46.157269,46.157269 0 0 1 0.7168,-20.7097 c 1.8369,-7.1123 6.2835,-13.1941 9.9236,-17.7192 3.6402,-4.525 6.3731,-8.1091 7.5828,-12.3877 a 34.867163,34.867163 0 0 0 0.8624,-14.0118 c -0.5488,-4.6258 -2.3969,-8.546 -5.6002,-12.9254 -3.2034,-4.3794 -7.4819,-9.4756 -9.8564,-16.1959 a 40.467414,40.467414 0 0 1 -1.9265,-19.8809 35.998414,35.998414 0 0 1 7.6387,-17.98803 c 3.9762,-4.95062 8.378,-8.57959 11.5029,-13.12699 a 34.553549,34.553549 0 0 0 5.9027,-15.80391 z"
     style="fill:#231f20;stroke-width:12;stroke-miterlimit:10;stroke-dasharray:none"
     id="path837" />
  <path
     inkscape:connector-curvature="0"
     d="m 800.1903,768.75702 a 32.313449,32.313449 0 0 1 -2.2401,17.8536 c -2.4193,5.80186 -6.5299,10.46127 -9.0276,15.24383 a 27.788446,27.788446 0 0 0 -3.965,14.6615 c 0,5.197 0.7841,10.3269 2.9233,14.4935 2.1393,4.1665 5.6003,7.8403 9.5877,12.7461 3.9874,4.9058 7.9187,11.4693 9.1396,18.4697 a 45.698049,45.698049 0 0 1 -0.7616,20.7097 c -1.8593,7.1011 -6.3395,13.1382 -9.9461,17.6632 -3.6066,4.525 -6.3283,8.0979 -7.5267,12.3877 a 34.486346,34.486346 0 0 0 -0.8177,14.0118 c 0.5601,4.6258 2.4417,8.5348 5.6003,12.9254 3.1585,4.3906 7.5603,9.5652 9.9124,16.2519 a 40.769828,40.769828 0 0 1 1.8929,19.8922 36.256026,36.256026 0 0 1 -7.6499,17.988 c -3.9874,4.9507 -8.3892,8.57965 -11.5029,13.12705 a 34.56475,34.56475 0 0 0 -5.9587,15.8263 32.481456,32.481456 0 0 1 2.2401,-17.9208 c 2.4193,-5.81305 6.5187,-10.47245 9.0164,-15.25515 a 27.799646,27.799646 0 0 0 3.9202,-14.6502 c 0,-5.1858 -0.7729,-10.327 -2.9122,-14.4936 -2.1393,-4.1666 -5.6002,-7.8403 -9.5428,-12.7461 -3.9426,-4.9059 -7.9411,-11.4357 -9.1732,-18.4361 a 46.157269,46.157269 0 0 1 0.7168,-20.7097 c 1.8369,-7.1123 6.2835,-13.1941 9.9125,-17.7192 3.6289,-4.525 6.3731,-8.1091 7.5827,-12.3877 a 34.721557,34.721557 0 0 0 0.8737,-14.0118 c -0.5489,-4.6258 -2.4082,-8.546 -5.6003,-12.9254 -3.1921,-4.3794 -7.4931,-9.4756 -9.8564,-16.1959 a 40.321808,40.321808 0 0 1 -1.9489,-19.8585 35.987214,35.987214 0 0 1 7.6275,-17.98803 c 3.9874,-4.95062 8.3892,-8.57959 11.5141,-13.12699 a 34.721557,34.721557 0 0 0 5.9699,-15.82631 z"
     style="fill:#231f20;stroke-width:1.12005"
     id="path839" />
  <path
     inkscape:connector-curvature="0"
     d="m 528.54457,661.10899 -25.59315,-26.8812 A 505.22105,505.22105 0 0 1 428.37848,532.65043 C 406.6719,493.80709 376.77776,444.8273 355.57521,427.88094 c -37.12966,-29.63653 -33.19829,-48.48698 -24.71951,-55.7785 11.71573,-10.08046 22.99463,-10.39407 40.40021,-10.39407 a 81.472453,81.472453 0 0 1 9.73324,0.58243 c 39.41457,4.73781 86.80389,62.30839 99.28125,73.41929 4.00978,3.57296 7.98596,7.12352 12.00694,10.60687 a 10.606876,10.606876 0 0 0 17.56239,-8.00836 l 5.30904,-324.25453 c 0,-21.66178 12.32055,-39.28016 33.97112,-39.28016 21.65057,0 33.97112,17.61838 33.97112,39.28016 l 5.30904,225.13009 a 10.606876,10.606876 0 0 0 21.21375,0 L 614.91164,53.28014 C 614.91164,31.61839 627.23219,14 648.8828,14 c 21.6505,0 33.971,17.61839 33.971,39.28014 l 5.3091,284.77277 a 10.606876,10.606876 0 1 0 21.2137,0 l 5.3091,-234.89693 c 0,-21.65057 12.3205,-39.26896 33.9711,-39.26896 21.6506,0 33.9711,17.61839 33.9711,39.26896 l 5.2867,246.29904 a 10.618076,10.618076 0 0 0 21.2249,0 l 5.2978,-168.25394 c 0,-21.66177 12.3206,-39.28016 33.9712,-39.28016 21.6505,0 33.9711,17.61839 33.9711,39.28016 l 4.2226,154.0741 q 1.12,39.88499 -1.5457,79.75878 l -4.7042,71.3024 a 499.35199,499.35199 0 0 1 -48.4534,183.95705 v 0 a 94.969058,94.969058 0 0 1 -84.4406,53.76241 l -68.0878,0.78403 A 204.80118,204.80118 0 0 1 528.54457,661.10899 Z"
     style="fill:#ffffff;stroke:#231f20;stroke-width:12;stroke-miterlimit:10;stroke-dasharray:none"
     id="path841" />
</svg>
