<svg xmlns="http://www.w3.org/2000/svg" viewBox="0 0 453.31 524.955" height="1984.083" width="1713.297"  xmlns:v="https://vecta.io/nano"><path d="M360.74 519.938l-114.184 1.805c-21.868.345-60.96-1.03-81.76-34.18-58.53-93.272-62.45-137.137-124.334-167.237C21.58 311.142 2.555 309.6 3.19 287.32c.594-20.8 26.954-39.904 58.444-36.116 49.647 5.972 73.846 32.27 99.928 54.9V83.16c0-19.984 16.088-36.072 36.07-36.072s36.07 16.088 36.07 36.072v216.523V39.246c0-19.984 16.088-36.07 36.07-36.07s36.072 16.088 36.072 36.07v36.07c0-19.984 16.088-36.07 36.07-36.07s36.07 16.088 36.07 36.07v56.46c0-19.984 16.088-36.072 36.072-36.072s36.07 16.088 36.07 36.072v285.057c0 53.33-62.033 102.67-89.395 103.104z" fill="#fff" stroke="#373850" stroke-width="6.35" stroke-linejoin="round"/></svg>