<?xml version="1.0" encoding="UTF-8"?>
<svg id="Layer_2" data-name="Layer 2" xmlns="http://www.w3.org/2000/svg" width="2000" height="2000" viewBox="0 0 2000 2000">
  <g>
    <g>
      <g>
        <path d="M271.93,809.47v-292.82c0-34.65,26.91-62.74,60.11-62.74H1669.53c33.2,0,60.11,28.09,60.11,62.74v292.82" style="fill: #fff; stroke: #000; stroke-miterlimit: 15.12; stroke-width: 24px;"/>
        <polyline points="51.45 1127.27 271.93 809.47 1729.64 809.47 1948.55 1127.27" style="fill: #fff; stroke: #000; stroke-miterlimit: 15.12; stroke-width: 24px;"/>
        <circle cx="462.6" cy="604.04" r="55.58" style="fill: none; stroke: #000; stroke-miterlimit: 15.12; stroke-width: 24px;"/>
        <circle cx="647.11" cy="604.04" r="55.58" style="fill: none; stroke: #000; stroke-miterlimit: 15.12; stroke-width: 24px;"/>
        <circle cx="1520.03" cy="604.04" r="55.58" style="fill: none; stroke: #000; stroke-miterlimit: 15.12; stroke-width: 24px;"/>
        <circle cx="1338.2" cy="604.04" r="55.58" style="fill: none; stroke: #000; stroke-miterlimit: 15.12; stroke-width: 24px;"/>
        <circle cx="990.12" cy="604.04" r="55.58" style="fill: none; stroke: #000; stroke-miterlimit: 15.12; stroke-width: 24px;"/>
      </g>
      <g>
        <path d="M1641.22,889.57v-12c0-28.29-119.86-51.22-267.71-51.22s-267.71,22.93-267.71,51.22v12c0,28.29,119.86,51.22,267.71,51.22s267.71-22.93,267.71-51.22Z" style="fill: #231f20;"/>
        <path d="M890.8,877.57c0-25.63-119.86-46.4-267.71-46.4s-267.71,20.78-267.71,46.4v12c0,25.63,119.86,46.4,267.71,46.4s267.71-20.78,267.71-46.4v-12Z" style="fill: #231f20;"/>
        <path d="M284.01,1016.56c0,28.63,133.9,51.84,299.06,51.84s299.06-23.21,299.06-51.84v-12c0-28.63-133.9-51.84-299.06-51.84s-299.06,23.21-299.06,51.84v12Z" style="fill: #231f20;"/>
        <path d="M1711.02,1004.56c0-28.63-133.9-51.84-299.06-51.84s-299.06,23.21-299.06,51.84v12c0,28.63,133.9,51.84,299.06,51.84s299.06-23.21,299.06-51.84v-12Z" style="fill: #231f20;"/>
      </g>
      <g>
        <path d="M1156.4,918.32c-3.25,4.98-.94,1.37-1.68,2.47l-.06-.02-.12-.04-.25-.09-.49-.17-.99-.35-1.97-.7-3.95-1.37-7.85-2.71c-5.26-1.73-10.41-3.57-15.66-5.2-10.4-3.42-20.87-6.49-31.24-9.59-5.2-1.53-10.41-2.99-15.64-4.37-5.19-1.47-10.38-2.91-15.6-4.25-10.45-2.64-20.94-5.34-30.92-7.67l-32.1-7.55c-10.75-2.36-21.62-4.38-32.25-7.05-10.63-2.67-20.96-6.22-30.84-11.12-4.97-2.36-9.8-5.15-14.6-8.02-2.49-1.17-4.55-3.61-5.83-8.41-.34-1.15-.6-2.51-.84-3.95l-.51-4.96v-.15c-.38-8.95,2.56-17.74,8.25-24.66l.07-.09,3.4-3.66c1.06-1.01,2.1-1.94,3.06-2.65,3.92-3.06,7.07-3.77,9.78-3.2,5.6,.6,11.18,1.29,16.62,2.4,10.93,2.04,21.41,5.44,31.59,9.72,10.18,4.27,20.12,9.2,30.18,13.79l30.32,13.29c10.67,5.07,20.55,10.54,30.36,16.32,4.91,2.87,9.78,5.8,14.6,8.81,4.79,3.07,9.54,6.21,14.24,9.41,9.43,6.34,18.52,13.22,27.36,20.35,4.39,3.62,8.75,7.24,12.93,11.1,2.11,1.89,4.18,3.85,6.22,5.81l3.02,3.01,1.5,1.51,.75,.75,.37,.38,.19,.19,.09,.09,.05,.05c-.71,1.13,1.64-2.46-1.57,2.54Z" style="fill: #231f20;"/>
        <path d="M1413.12,851.71h.59c193.14,0,349.71,30.7,349.71,76.5-8.65,35.47-33.41,85.28-63.3,108.09-23.96,16.41-163.06,39.35-286.39,39.35h-1.74c-123.33,0-262.43-22.94-286.39-39.35-29.89-22.82-54.65-72.62-63.3-108.09,0-45.79,156.57-76.5,349.71-76.5h.54" style="fill: #fff; stroke: #231f20; stroke-miterlimit: 10; stroke-width: 24px;"/>
        <path d="M1739.62,925.54c0,21.94-146.43,54.46-327.06,54.46h-.58c-180.63,0-327.06-32.52-327.06-54.46" style="fill: none; stroke: #231f20; stroke-linecap: round; stroke-miterlimit: 10; stroke-width: 14px;"/>
        <circle cx="1166.81" cy="907.18" r="6.93" style="fill: #231f20;"/>
        <circle cx="1123.09" cy="923.81" r="6.93" style="fill: #231f20;"/>
      </g>
    </g>
    <g>
      <path d="M39.49,1973.24v-815.2c0-27.43,22.24-49.67,49.67-49.67H1910.84c27.43,0,49.67,22.24,49.67,49.67v815.2" style="fill: #fff; stroke: #000; stroke-miterlimit: 15.12; stroke-width: 24px;"/>
      <rect x="159.46" y="1397.96" width="1681.08" height="116.6" rx="25.01" ry="25.01" style="fill: none; stroke: #000; stroke-miterlimit: 15.12; stroke-width: 24px;"/>
      <line x1="46.63" y1="1264.58" x2="1953.37" y2="1264.58" style="fill: none; stroke: #000; stroke-miterlimit: 15.12; stroke-width: 24px;"/>
      <path d="M302.67,1973.24v-225.95c0-54.64,44.7-99.34,99.34-99.34H1597.99c54.64,0,99.34,44.7,99.34,99.34v225.95" style="fill: #a6a8ab; stroke: #000; stroke-miterlimit: 15.12; stroke-width: 24px;"/>
    </g>
  </g>
  <g>
    <path d="M1303.74,92.38c.99,6.75,.32,14.06-2.66,20.7-2.8,6.74-7.58,12.14-10.47,17.69-3.12,5.43-4.63,10.99-4.53,17,.02,6.02,.91,11.97,3.4,16.8,2.33,4.95,6.53,9.11,11.12,14.8,4.69,5.55,9.19,13.3,10.6,21.42,1.49,8.02,1.3,15.84-.89,24.02-2.16,8.25-7.35,15.24-11.53,20.49-4.28,5.22-7.34,9.39-8.73,14.37-1.51,4.86-1.65,10.95-.95,16.25,.65,5.37,2.83,9.9,6.49,15,3.63,5.04,8.77,11.09,11.5,18.86,2.82,7.69,3.26,15.62,2.2,23.07-.93,7.57-4.23,15.17-8.88,20.87-4.62,5.73-9.73,9.95-13.34,15.22-3.72,5.18-6.04,11.54-6.91,18.35-.99-6.75-.33-14.06,2.64-20.71,2.8-6.75,7.56-12.16,10.46-17.7,3.13-5.43,4.63-10.99,4.54-16.99,0-6.02-.89-11.98-3.37-16.81-2.33-4.94-6.48-9.13-11.07-14.79-4.67-5.55-9.21-13.27-10.65-21.39-1.49-8.03-1.34-15.83,.83-24.02,2.13-8.25,7.28-15.3,11.5-20.55,4.3-5.23,7.39-9.41,8.79-14.37,1.53-4.86,1.67-10.93,1.01-16.25-.64-5.38-2.79-9.92-6.46-15-3.62-5.03-8.76-11.07-11.51-18.82-2.84-7.68-3.31-15.62-2.23-23.06,.92-7.56,4.2-15.17,8.85-20.87,4.62-5.74,9.72-9.95,13.35-15.23,3.72-5.18,6.04-11.55,6.9-18.35Z" style="fill: #231f20;"/>
    <path d="M1423.76,92.38c.99,6.75,.32,14.06-2.66,20.7-2.8,6.74-7.58,12.14-10.47,17.69-3.12,5.43-4.63,10.99-4.53,17,.02,6.02,.9,11.97,3.4,16.8,2.33,4.95,6.53,9.11,11.12,14.8,4.69,5.55,9.19,13.3,10.6,21.42,1.5,8.02,1.3,15.84-.89,24.02-2.16,8.25-7.35,15.24-11.53,20.49-4.28,5.22-7.34,9.39-8.73,14.37-1.51,4.86-1.65,10.95-.95,16.25,.65,5.37,2.83,9.9,6.49,15,3.63,5.04,8.77,11.09,11.5,18.86,2.82,7.69,3.26,15.62,2.2,23.07-.93,7.57-4.23,15.17-8.88,20.87-4.62,5.73-9.73,9.95-13.35,15.22-3.72,5.18-6.04,11.54-6.91,18.35-.99-6.75-.33-14.06,2.64-20.71,2.8-6.75,7.56-12.16,10.46-17.7,3.13-5.43,4.63-10.99,4.54-16.99,0-6.02-.89-11.98-3.37-16.81-2.33-4.94-6.48-9.13-11.07-14.79-4.67-5.55-9.21-13.27-10.65-21.39-1.49-8.03-1.34-15.83,.83-24.02,2.13-8.25,7.28-15.3,11.5-20.55,4.3-5.23,7.39-9.41,8.79-14.37,1.53-4.86,1.67-10.93,1.01-16.25-.64-5.38-2.79-9.92-6.46-15-3.62-5.03-8.76-11.07-11.51-18.82-2.84-7.68-3.31-15.62-2.23-23.06,.92-7.56,4.2-15.17,8.85-20.87,4.62-5.74,9.72-9.95,13.35-15.23,3.72-5.18,6.04-11.55,6.9-18.35Z" style="fill: #231f20;"/>
    <path d="M1543.78,92.38c.99,6.75,.32,14.06-2.66,20.7-2.8,6.74-7.58,12.14-10.47,17.69-3.12,5.43-4.63,10.99-4.53,17,.02,6.02,.91,11.97,3.4,16.8,2.33,4.95,6.53,9.11,11.12,14.8,4.69,5.55,9.19,13.3,10.6,21.42,1.49,8.02,1.3,15.84-.89,24.02-2.16,8.25-7.35,15.24-11.53,20.49-4.28,5.22-7.34,9.39-8.73,14.37-1.51,4.86-1.65,10.95-.95,16.25,.65,5.37,2.83,9.9,6.49,15,3.63,5.04,8.77,11.09,11.5,18.86,2.82,7.69,3.26,15.62,2.2,23.07-.93,7.57-4.23,15.17-8.88,20.87-4.62,5.73-9.73,9.95-13.34,15.22-3.72,5.18-6.04,11.54-6.91,18.35-.99-6.75-.33-14.06,2.64-20.71,2.8-6.75,7.56-12.16,10.46-17.7,3.13-5.43,4.63-10.99,4.54-16.99,0-6.02-.89-11.98-3.37-16.81-2.33-4.94-6.48-9.13-11.07-14.79-4.67-5.55-9.21-13.27-10.65-21.39-1.49-8.03-1.34-15.83,.83-24.02,2.13-8.25,7.28-15.3,11.5-20.55,4.3-5.23,7.39-9.41,8.79-14.37,1.53-4.86,1.67-10.93,1.01-16.25-.64-5.38-2.79-9.92-6.46-15-3.62-5.03-8.76-11.07-11.51-18.82-2.84-7.68-3.31-15.62-2.23-23.06,.92-7.56,4.2-15.17,8.85-20.87,4.62-5.74,9.72-9.95,13.35-15.23,3.72-5.18,6.04-11.55,6.9-18.35Z" style="fill: #231f20;"/>
  </g>
</svg>