<svg id="Layer_1" data-name="Layer 1" xmlns="http://www.w3.org/2000/svg" viewBox="0 0 1332.83 2000"><path d="M882.73,1031.17c5.27,193-29.71,388.7-117.91,552-44.16,81.76-96,166.42-150.19,241.32-40.31,55.75-90.71,170.74-175.4,149-33.21-8.5-138.09-141-161.38-183.88C214,1672.2,137.2,1555.33,94,1429c-43.55-127.16-52-275-43.87-408.57,15.18-249.74,89.5-504.34,219.38-725.2,15-25.52,33-49.34,49.59-73.85,40.83-60.23,74.7-135.56,150.25-157.13,35.6-10.17,54.78-2.66,77,27.14A696.19,696.19,0,0,1,615.7,205.92C634.34,244.66,648.86,285,674.55,320c36,49,54.7,102.81,77.15,157.8,25.6,62.72,53.22,123.23,72.77,188.39C858.66,780.14,879.29,905.07,882.73,1031.17Z" style="fill:#fcac42;stroke:#231f20;stroke-miterlimit:10;stroke-width:10px"/><path d="M1098.62,730.82c69.15,0,200-61.39,200-207S1160.38,287.43,1098.62,55c-61.76,232.48-200,323.2-200,468.84S1029.48,730.82,1098.62,730.82Z" style="fill:#bfe4ed;stroke:#33302d;stroke-miterlimit:10;stroke-width:10px"/></svg>