<?xml version="1.0" encoding="utf-8"?>
<!-- Generator: Adobe Illustrator 26.3.1, SVG Export Plug-In . SVG Version: 6.00 Build 0)  -->
<svg version="1.1" id="Layer_1" xmlns="http://www.w3.org/2000/svg" xmlns:xlink="http://www.w3.org/1999/xlink" x="0px" y="0px"
	 viewBox="0 0 1294.5 2000" style="enable-background:new 0 0 1294.5 2000;" xml:space="preserve">
<style type="text/css">
	.st0{fill:#1A7D3E;stroke:#3A3632;stroke-width:20;stroke-linecap:round;stroke-linejoin:round;}
	.st1{fill:#F2F8F0;stroke:#3A3632;stroke-width:20;stroke-linecap:round;stroke-linejoin:round;}
	.st2{fill:none;stroke:#3A3632;stroke-width:20;stroke-linecap:round;stroke-linejoin:round;}
	.st3{fill:#BFE4ED;stroke:#3A3632;stroke-width:20;stroke-miterlimit:10;}
</style>
<g id="layer2" transform="translate(-89.174059,9.5490169)">
	<path id="path865" class="st0" d="M325.6,656.9l-111.9,77.3l367.8,609l148.4-52.5l-79.5-210.1l-151.8-919L355,177.4L325.6,656.9z"
		/>
	<path id="path867" class="st1" d="M581.5,1343.2l179.3,510.6c40.4,114.9,211.8,58.5,165.4-60.2l-196.4-502.9L581.5,1343.2
		L581.5,1343.2z"/>
	<path id="path869" class="st0" d="M417.4,880.9L111.6,88l173-63l187.2,526.1"/>
	<path id="path871" class="st2" d="M849,1918.6l-3.1,50.6"/>
	<path id="path873" class="st2" d="M876.3,1916.8l23.3,58.2"/>
	<path id="path875" class="st2" d="M897.6,1901.5l40.6,34.7"/>
</g>
<path class="st3" d="M1048.1,732.8c69.2,0,200-61.4,200-207s-138.2-236.4-200-468.8c-61.8,232.5-200,323.2-200,468.8
	S979,732.8,1048.1,732.8L1048.1,732.8z"/>
</svg>
