<svg id="Layer_1" data-name="Layer 1" xmlns="http://www.w3.org/2000/svg" width="1341" height="2000" viewBox="0 0 1341 2000">
  <g id="layer2">
    <path id="path863" d="M1037,1908.57c-78,80.7-352.14-27.09-609.71-319.65-309.87-352-468.93-889.29-293.08-988.21,84.16-47.34,197.82-98.78,197.82-98.78s125.77-31.43,217.18-47.84C741.08,419.67,764.9,859,891,1284.08,1007.17,1676,1115,1827.87,1037,1908.57Z" style="fill: #009b4e"/>
    <path id="path863-2" data-name="path863" d="M1037,1908.57c-78,80.7-352.14-27.09-609.71-319.65-309.87-352-468.93-889.29-293.08-988.21,84.16-47.34,197.82-98.78,197.82-98.78s125.77-31.43,217.18-47.84C741.08,419.67,764.9,859,891,1284.08,1007.17,1676,1115,1827.87,1037,1908.57Z" style="fill: none;stroke: #3a3632;stroke-linecap: round;stroke-linejoin: round;stroke-width: 22.1524369263235px;isolation: isolate;opacity: 0.986000001430512"/>
    <path id="path863-3" data-name="path863" d="M1037,1908.57c-78,80.7-352.14-27.09-609.71-319.65-309.87-352-468.93-889.29-293.08-988.21,84.16-47.34,197.82-98.78,197.82-98.78s125.77-31.43,217.18-47.84C741.08,419.67,764.9,859,891,1284.08,1007.17,1676,1115,1827.87,1037,1908.57Z" style="fill: none;stroke: #3a3632;stroke-linecap: round;stroke-width: 20px"/>
  </g>
  <g id="layer2-2" data-name="layer2">
    <path id="path863-4" data-name="path863" d="M779.24,1545.87C766.59,1583.47,530.48,1494,368,1293.14,172.51,1051.48,57,641.36,173.33,568.68c55.69-34.79,130.66-73,130.66-73s77.34,1.74,137.19-11.44C547.53,460.44,579.49,738.7,653.9,1035.06,722.51,1308.32,793,1504.93,779.24,1545.87Z" style="fill: #55ab54"/>
  </g>
  <circle cx="279.33" cy="803.48" r="100.79" style="fill: #fff"/>
  <circle cx="554.51" cy="869.56" r="66.07" style="fill: #6dcc6a"/>
  <path id="path915" d="M368.86,398.93c-38.47-55-38.94-245.93-52.7-293.69-13.3-46.19-37.25-62.95-96.88-52.16-57,10.48-91.15,32.15-99.41,74.05s124.4,256.6,121.37,321.78-143.75,109-145.76,158c20-1.72,65.09-6.64,125.09,13.06,68.87-52.1,233.34-107.91,290.15-100.5,0,0,36.43-49.65,78.58-80.21C552.57,396.21,407.32,454,368.86,398.93Z" style="fill: #1f8441"/>
  <path d="M1048.12,732.82c69.14,0,200-61.39,200-207S1109.88,289.43,1048.12,57c-61.76,232.48-200,323.2-200,468.84S979,732.82,1048.12,732.82Z" style="fill: #bfe4ed;stroke: #3a3632;stroke-miterlimit: 10;stroke-width: 20px"/>
</svg>
