<?xml version="1.0" encoding="UTF-8" standalone="no"?>
<svg
   xmlns:dc="http://purl.org/dc/elements/1.1/"
   xmlns:cc="http://creativecommons.org/ns#"
   xmlns:rdf="http://www.w3.org/1999/02/22-rdf-syntax-ns#"
   xmlns:svg="http://www.w3.org/2000/svg"
   xmlns="http://www.w3.org/2000/svg"
   xmlns:sodipodi="http://sodipodi.sourceforge.net/DTD/sodipodi-0.dtd"
   xmlns:inkscape="http://www.inkscape.org/namespaces/inkscape"
   inkscape:version="1.0beta1 (32d4812, 2019-09-19)"
   height="1981.8431"
   width="1707.63"
   sodipodi:docname="wash_lemon.svg"
   version="1.1"
   viewBox="0 0 1707.63 1981.8431"
   data-name="Layer 1"
   id="Layer_1">
  <metadata
     id="metadata5460">
    <rdf:RDF>
      <cc:Work
         rdf:about="">
        <dc:format>image/svg+xml</dc:format>
        <dc:type
           rdf:resource="http://purl.org/dc/dcmitype/StillImage" />
        <dc:title></dc:title>
      </cc:Work>
    </rdf:RDF>
  </metadata>
  <defs
     id="defs5458" />
  <sodipodi:namedview
     inkscape:current-layer="Layer_1"
     inkscape:window-maximized="0"
     inkscape:window-y="25"
     inkscape:window-x="0"
     inkscape:cy="1023.7331"
     inkscape:cx="-95.3409"
     inkscape:zoom="0.1399298"
     fit-margin-right="12"
     fit-margin-bottom="12"
     fit-margin-left="12"
     fit-margin-top="32"
     showgrid="false"
     id="namedview5456"
     inkscape:window-height="933"
     inkscape:window-width="1467"
     inkscape:pageshadow="2"
     inkscape:pageopacity="0"
     guidetolerance="10"
     gridtolerance="10"
     objecttolerance="10"
     borderopacity="1"
     inkscape:document-rotation="0"
     bordercolor="#666666"
     pagecolor="#ffffff" />
  <path
     inkscape:connector-curvature="0"
     id="path5353"
     style="fill:#ffe700;stroke:#231f20;stroke-width:24px;stroke-miterlimit:10"
     d="m 852,496.42306 c -67.6,-38.34 -132.87,-162.5 -218.76,-162.5 -85.89,0 -151.14,124.16 -218.75,162.5 C 161.73,639.73306 24,834.55306 24,1145.8831 c 0,311.33 137.69,506.14 390.45,649.47 67.61,38.33 141.12,162.49 218.77,162.49 77.65,0 151.2,-124.11 218.78,-162.49 252.77,-143.33 390.45,-338.14 390.45,-649.47 0,-311.33004 -137.66,-506.15004 -390.45,-649.46004 z" />
  <path
     inkscape:connector-curvature="0"
     id="path5355"
     style="fill:#ffffc7"
     d="m 567,554.92306 c 8.52,0 16.69,-7.5 16.3,-16.3 -0.39,-8.8 -7.16,-16.3 -16.3,-16.3 -8.53,0 -16.69,7.5 -16.3,16.3 0.39,8.8 7.16,16.3 16.3,16.3 z" />
  <path
     inkscape:connector-curvature="0"
     id="path5357"
     style="fill:#ffffc7"
     d="m 664.69,598.99306 c 8.53,0 16.69,-7.5 16.3,-16.3 -0.39,-8.8 -7.16,-16.3 -16.3,-16.3 -8.52,0 -16.69,7.5 -16.3,16.3 0.39,8.8 7.17,16.3 16.3,16.3 z" />
  <path
     inkscape:connector-curvature="0"
     id="path5359"
     style="fill:#ffffc7"
     d="m 575,662.73306 c 8.52,0 16.69,-7.5 16.3,-16.3 -0.39,-8.8 -7.16,-16.3 -16.3,-16.3 -8.53,0 -16.69,7.5 -16.3,16.3 0.39,8.8 7.17,16.3 16.3,16.3 z" />
  <path
     inkscape:connector-curvature="0"
     id="path5361"
     style="fill:#ffffc7"
     d="m 444.44,669.52306 c 8.53,0 16.69,-7.5 16.3,-16.3 -0.39,-8.8 -7.16,-16.3 -16.3,-16.3 -8.52,0 -16.69,7.5 -16.3,16.3 0.39,8.8 7.16,16.3 16.3,16.3 z" />
  <path
     inkscape:connector-curvature="0"
     id="path5363"
     style="fill:#ffffc7"
     d="m 436.44,582.17306 c 8.52,0 16.69,-7.5 16.3,-16.3 -0.39,-8.8 -7.16,-16.3 -16.3,-16.3 -8.53,0 -16.69,7.5 -16.3,16.3 0.39,8.8 7.16,16.3 16.3,16.3 z" />
  <path
     inkscape:connector-curvature="0"
     id="path5365"
     style="fill:#ffffc7"
     d="m 356.76,689.64306 c 8.52,0 16.69,-7.5 16.3,-16.3 -0.39,-8.8 -7.16,-16.3 -16.3,-16.3 -8.53,0 -16.69,7.5 -16.3,16.3 0.39,8.8 7.16,16.3 16.3,16.3 z" />
  <path
     inkscape:connector-curvature="0"
     id="path5367"
     style="fill:#ffffc7"
     d="m 269.27,806.81306 c 8.52,0 16.69,-7.49 16.3,-16.3 -0.39,-8.81 -7.16,-16.29 -16.3,-16.29 -8.53,0 -16.69,7.49 -16.3,16.29 0.39,8.8 7.16,16.3 16.3,16.3 z" />
  <path
     inkscape:connector-curvature="0"
     id="path5369"
     style="fill:#ffffc7"
     d="m 353.64,850.56306 c 8.52,0 16.69,-7.5 16.29,-16.3 -0.4,-8.8 -7.16,-16.3 -16.29,-16.3 -8.53,0 -16.7,7.5 -16.3,16.3 0.4,8.8 7.16,16.3 16.3,16.3 z" />
  <path
     inkscape:connector-curvature="0"
     id="path5371"
     style="fill:#ffffc7"
     d="m 258.33,920.08306 c 8.53,0 16.7,-7.5 16.3,-16.3 -0.4,-8.8 -7.16,-16.3 -16.3,-16.3 -8.52,0 -16.69,7.5 -16.3,16.3 0.39,8.8 7.17,16.3 16.3,16.3 z" />
  <path
     inkscape:connector-curvature="0"
     id="path5373"
     style="fill:#ffffc7"
     d="m 223.18,1020.0731 c 8.53,0 16.69,-7.5 16.3,-16.3 -0.39,-8.8 -7.16,-16.30004 -16.3,-16.30004 -8.52,0 -16.69,7.50004 -16.3,16.30004 0.39,8.8 7.16,16.3 16.3,16.3 z" />
  <path
     inkscape:connector-curvature="0"
     id="path5375"
     style="fill:#ffffc7"
     d="m 388,1027.8831 c 8.52,0 16.69,-7.49 16.29,-16.3 -0.4,-8.81 -7.16,-16.29 -16.29,-16.29 -8.53,0 -16.7,7.49 -16.3,16.29 0.4,8.8 7.16,16.3 16.3,16.3 z" />
  <path
     inkscape:connector-curvature="0"
     id="path5377"
     style="fill:#ffffc7"
     d="m 398.94,914.61306 c 8.53,0 16.7,-7.49 16.3,-16.3 -0.4,-8.81 -7.16,-16.29 -16.3,-16.29 -8.52,0 -16.69,7.49 -16.3,16.29 0.39,8.8 7.17,16.3 16.3,16.3 z" />
  <path
     inkscape:connector-curvature="0"
     id="path5379"
     style="fill:#ffffc7"
     d="m 511,914.61306 c 8.53,0 16.7,-7.49 16.3,-16.3 -0.4,-8.81 -7.16,-16.29 -16.3,-16.29 -8.52,0 -16.69,7.49 -16.29,16.29 0.4,8.8 7.16,16.3 16.29,16.3 z" />
  <path
     inkscape:connector-curvature="0"
     id="path5381"
     style="fill:#ffffc7"
     d="m 500.17,790.26306 c 8.52,0 16.69,-7.5 16.29,-16.3 -0.4,-8.8 -7.16,-16.3 -16.29,-16.3 -8.53,0 -16.7,7.5 -16.3,16.3 0.4,8.8 7.16,16.3 16.3,16.3 z" />
  <path
     inkscape:connector-curvature="0"
     id="path5383"
     style="fill:#ffffc7"
     d="m 410.14,770.97306 c 8.53,0 16.7,-7.5 16.3,-16.3 -0.4,-8.8 -7.16,-16.3 -16.3,-16.3 -8.52,0 -16.69,7.5 -16.29,16.3 0.4,8.8 7.16,16.3 16.29,16.3 z" />
  <path
     inkscape:connector-curvature="0"
     id="path5385"
     style="fill:#ffffc7"
     d="m 266.93,710.73306 c 8.52,0 16.69,-7.5 16.29,-16.3 -0.4,-8.8 -7.16,-16.3 -16.29,-16.3 -8.53,0 -16.7,7.5 -16.3,16.3 0.4,8.8 7.16,16.3 16.3,16.3 z" />
  <path
     inkscape:connector-curvature="0"
     id="path5387"
     style="fill:#ffffc7"
     d="m 152.88,878.73306 c 8.52,0 16.69,-7.5 16.29,-16.3 -0.4,-8.8 -7.16,-16.3 -16.29,-16.3 -8.53,0 -16.7,7.5 -16.3,16.3 0.4,8.8 7.16,16.3 16.3,16.3 z" />
  <path
     inkscape:connector-curvature="0"
     id="path5389"
     style="fill:#ffffc7"
     d="m 137.25,969.29306 c 8.53,0 16.69,-7.49 16.3,-16.29 -0.39,-8.8 -7.16,-16.3 -16.3,-16.3 -8.52,0 -16.69,7.49 -16.3,16.3 0.39,8.81 7.17,16.29 16.3,16.29 z" />
  <path
     inkscape:connector-curvature="0"
     id="path5391"
     style="fill:#ffffc7"
     d="m 120.61,1113.8131 c 8.53,0 16.7,-7.5 16.3,-16.3 -0.4,-8.8 -7.16,-16.3 -16.3,-16.3 -8.52,0 -16.69,7.5 -16.29,16.3 0.4,8.8 7.16,16.3 16.29,16.3 z" />
  <path
     inkscape:connector-curvature="0"
     id="path5393"
     style="fill:#ffffc7"
     d="m 193.3,1166.0131 -0.78,0.78 a 12.09,12.09 0 0 0 -3.37,5.24 14.69,14.69 0 0 0 0,12.56 12.18,12.18 0 0 0 3.37,5.25 l 3.3,2.54 a 16.16,16.16 0 0 0 8.22,2.23 l 4.33,-0.58 a 16.35,16.35 0 0 0 7.2,-4.19 l 0.78,-0.79 a 16.75,16.75 0 0 0 0,-23 l -3.3,-2.55 a 16.19,16.19 0 0 0 -8.23,-2.23 l -4.33,0.58 a 16.33,16.33 0 0 0 -7.19,4.2 z" />
  <path
     inkscape:connector-curvature="0"
     id="path5395"
     style="fill:#ffffc7"
     d="m 137.25,1234.5031 c 8.53,0 16.69,-7.5 16.3,-16.3 -0.39,-8.8 -7.16,-16.3 -16.3,-16.3 -8.52,0 -16.69,7.5 -16.3,16.3 0.39,8.8 7.17,16.3 16.3,16.3 z" />
  <path
     inkscape:connector-curvature="0"
     id="path5397"
     style="fill:#ffffc7"
     d="m 288.8,1170.9431 c 8.52,0 16.69,-7.5 16.3,-16.3 -0.39,-8.8 -7.16,-16.3 -16.3,-16.3 -8.53,0 -16.69,7.5 -16.3,16.3 0.39,8.8 7.16,16.3 16.3,16.3 z" />
  <path
     inkscape:connector-curvature="0"
     id="path5399"
     style="fill:#ffffc7"
     d="m 267.71,1081.7831 c 8.52,0 16.69,-7.49 16.29,-16.3 -0.4,-8.81 -7.16,-16.29 -16.29,-16.29 -8.53,0 -16.7,7.49 -16.3,16.29 0.4,8.8 7.16,16.3 16.3,16.3 z" />
  <path
     inkscape:connector-curvature="0"
     id="path5401"
     style="fill:#ffc900"
     d="m 697,1728.8631 c 8.52,0 16.69,-7.49 16.3,-16.29 -0.39,-8.8 -7.16,-16.3 -16.3,-16.3 -8.53,0 -16.69,7.49 -16.3,16.3 0.39,8.81 7.16,16.29 16.3,16.29 z" />
  <path
     inkscape:connector-curvature="0"
     id="path5403"
     style="fill:#ffc900"
     d="m 545.09,1742.3831 c 8.53,0 16.69,-7.5 16.3,-16.3 -0.39,-8.8 -7.16,-16.3 -16.3,-16.3 -8.52,0 -16.69,7.5 -16.3,16.3 0.39,8.8 7.17,16.3 16.3,16.3 z" />
  <path
     inkscape:connector-curvature="0"
     id="path5405"
     style="fill:#ffc900"
     d="m 633.26,1804.9331 c 8.52,0 16.69,-7.5 16.29,-16.3 -0.4,-8.8 -7.16,-16.3 -16.29,-16.3 -8.53,0 -16.7,7.5 -16.3,16.3 0.4,8.8 7.16,16.3 16.3,16.3 z" />
  <path
     inkscape:connector-curvature="0"
     id="path5407"
     style="fill:#ffc900"
     d="m 705.66,1662.5831 c 8.53,0 16.7,-7.5 16.3,-16.3 -0.4,-8.8 -7.16,-16.3 -16.3,-16.3 -8.52,0 -16.69,7.5 -16.29,16.3 0.4,8.8 7.16,16.3 16.29,16.3 z" />
  <path
     inkscape:connector-curvature="0"
     id="path5409"
     style="fill:#ffc900"
     d="m 584.58,1648.4331 c 8.52,0 16.69,-7.5 16.3,-16.3 -0.39,-8.8 -7.16,-16.3 -16.3,-16.3 -8.53,0 -16.69,7.5 -16.3,16.3 0.39,8.8 7.16,16.3 16.3,16.3 z" />
  <path
     inkscape:connector-curvature="0"
     id="path5411"
     style="fill:#ffc900"
     d="m 782.22,1605.5531 c 8.52,0 16.69,-7.49 16.3,-16.3 -0.39,-8.81 -7.17,-16.29 -16.3,-16.29 -8.53,0 -16.69,7.49 -16.3,16.29 0.39,8.8 7.16,16.3 16.3,16.3 z" />
  <path
     inkscape:connector-curvature="0"
     id="path5413"
     style="fill:#ffc900"
     d="m 805.65,1728.8631 c 8.53,0 16.69,-7.49 16.3,-16.29 -0.39,-8.8 -7.16,-16.3 -16.3,-16.3 -8.52,0 -16.69,7.49 -16.3,16.3 0.39,8.81 7.17,16.29 16.3,16.29 z" />
  <path
     inkscape:connector-curvature="0"
     id="path5415"
     style="fill:#ffc900"
     d="m 421.16,1707.1031 c 8.53,0 16.7,-7.49 16.3,-16.29 -0.4,-8.8 -7.16,-16.3 -16.3,-16.3 -8.52,0 -16.69,7.49 -16.29,16.3 0.4,8.81 7.16,16.29 16.29,16.29 z" />
  <path
     inkscape:connector-curvature="0"
     id="path5417"
     style="fill:#ffc900"
     d="m 885.33,1626.6431 c 8.53,0 16.69,-7.49 16.3,-16.29 -0.39,-8.8 -7.16,-16.3 -16.3,-16.3 -8.52,0 -16.69,7.49 -16.3,16.3 0.39,8.81 7.16,16.29 16.3,16.29 z" />
  <path
     inkscape:connector-curvature="0"
     id="path5419"
     style="fill:#ffc900"
     d="m 983.76,1509.4731 c 8.52,0 16.69,-7.5 16.3,-16.3 -0.39,-8.8 -7.16,-16.3 -16.3,-16.3 -8.53,0 -16.69,7.5 -16.3,16.3 0.39,8.8 7.16,16.3 16.3,16.3 z" />
  <path
     inkscape:connector-curvature="0"
     id="path5421"
     style="fill:#ffc900"
     d="m 885.33,1487.5931 c 8.53,0 16.69,-7.5 16.3,-16.3 -0.39,-8.8 -7.16,-16.3 -16.3,-16.3 -8.52,0 -16.69,7.5 -16.3,16.3 0.39,8.8 7.16,16.3 16.3,16.3 z" />
  <path
     inkscape:connector-curvature="0"
     id="path5423"
     style="fill:#ffc900"
     d="m 983.76,1396.2031 c 8.52,0 16.69,-7.5 16.3,-16.3 -0.39,-8.8 -7.16,-16.3 -16.3,-16.3 -8.53,0 -16.69,7.5 -16.3,16.3 0.39,8.8 7.16,16.3 16.3,16.3 z" />
  <path
     inkscape:connector-curvature="0"
     id="path5425"
     style="fill:#ffc900"
     d="m 1053.63,1278.2131 c 8.53,0 16.7,-7.5 16.3,-16.3 -0.4,-8.8 -7.16,-16.3 -16.3,-16.3 -8.52,0 -16.69,7.5 -16.29,16.3 0.4,8.8 7.16,16.3 16.29,16.3 z" />
  <path
     inkscape:connector-curvature="0"
     id="path5427"
     style="fill:#ffc900"
     d="m 843.15,1278.2131 c 8.52,0 16.69,-7.5 16.3,-16.3 -0.39,-8.8 -7.16,-16.3 -16.3,-16.3 -8.53,0 -16.69,7.5 -16.3,16.3 0.39,8.8 7.16,16.3 16.3,16.3 z" />
  <path
     inkscape:connector-curvature="0"
     id="path5429"
     style="fill:#ffc900"
     d="m 843.15,1401.6731 c 8.52,0 16.69,-7.5 16.3,-16.3 -0.39,-8.8 -7.16,-16.3 -16.3,-16.3 -8.53,0 -16.69,7.5 -16.3,16.3 0.39,8.8 7.16,16.3 16.3,16.3 z" />
  <path
     inkscape:connector-curvature="0"
     id="path5431"
     style="fill:#ffc900"
     d="m 731.1,1401.6731 c 8.52,0 16.69,-7.5 16.3,-16.3 -0.39,-8.8 -7.17,-16.3 -16.3,-16.3 -8.53,0 -16.69,7.5 -16.3,16.3 0.39,8.8 7.16,16.3 16.3,16.3 z" />
  <path
     inkscape:connector-curvature="0"
     id="path5433"
     style="fill:#ffc900"
     d="m 705.66,1513.0031 c 8.53,0 16.7,-7.49 16.3,-16.3 -0.4,-8.81 -7.16,-16.29 -16.3,-16.29 -8.52,0 -16.69,7.49 -16.29,16.29 0.4,8.8 7.16,16.3 16.29,16.3 z" />
  <path
     inkscape:connector-curvature="0"
     id="path5435"
     style="fill:#ffc900"
     d="m 796,1509.4731 c 8.53,0 16.69,-7.5 16.3,-16.3 -0.39,-8.8 -7.16,-16.3 -16.3,-16.3 -8.52,0 -16.69,7.5 -16.3,16.3 0.39,8.8 7.16,16.3 16.3,16.3 z" />
  <path
     inkscape:connector-curvature="0"
     id="path5437"
     style="fill:#ffc900"
     d="m 975.17,1605.5531 c 8.52,0 16.69,-7.49 16.29,-16.3 -0.4,-8.81 -7.16,-16.29 -16.29,-16.29 -8.53,0 -16.7,7.49 -16.3,16.29 0.4,8.8 7.16,16.3 16.3,16.3 z" />
  <path
     inkscape:connector-curvature="0"
     id="path5439"
     style="fill:#ffc900"
     d="m 1089.22,1437.6031 c 8.52,0 16.69,-7.5 16.29,-16.3 -0.4,-8.8 -7.16,-16.3 -16.29,-16.3 -8.53,0 -16.7,7.5 -16.3,16.3 0.4,8.8 7.16,16.3 16.3,16.3 z" />
  <path
     inkscape:connector-curvature="0"
     id="path5441"
     style="fill:#ffc900"
     d="m 1104.84,1346.9931 c 8.52,0 16.69,-7.5 16.3,-16.3 -0.39,-8.8 -7.16,-16.3 -16.3,-16.3 -8.53,0 -16.69,7.5 -16.3,16.3 0.39,8.8 7.16,16.3 16.3,16.3 z" />
  <path
     inkscape:connector-curvature="0"
     id="path5443"
     style="fill:#ffc900"
     d="m 1153.63,1194.6131 c 8.52,0 16.69,-7.5 16.3,-16.3 -0.39,-8.8 -7.17,-16.3 -16.3,-16.3 -8.53,0 -16.7,7.5 -16.3,16.3 0.4,8.8 7.16,16.3 16.3,16.3 z" />
  <path
     inkscape:connector-curvature="0"
     id="path5445"
     style="fill:#ffc900"
     d="m 1057.47,1157.8031 0.78,-0.78 a 16.75,16.75 0 0 0 0,-23 l -3.3,-2.55 a 16.26,16.26 0 0 0 -8.22,-2.23 l -4.34,0.59 a 16.22,16.22 0 0 0 -7.19,4.19 l -0.78,0.78 a 16.77,16.77 0 0 0 0,23 l 3.3,2.55 a 16.25,16.25 0 0 0 8.22,2.22 l 4.34,-0.58 a 16.22,16.22 0 0 0 7.19,-4.19 z" />
  <path
     inkscape:connector-curvature="0"
     id="path5447"
     style="fill:#ffc900"
     d="m 1153.63,1043.6031 c 8.52,0 16.69,-7.49 16.3,-16.29 -0.39,-8.8 -7.17,-16.3 -16.3,-16.3 -8.53,0 -16.7,7.49 -16.3,16.3 0.4,8.81 7.16,16.29 16.3,16.29 z" />
  <path
     inkscape:connector-curvature="0"
     id="path5449"
     style="fill:#ffc900"
     d="m 933.56,1153.0431 c 8.52,0 16.69,-7.5 16.29,-16.3 -0.4,-8.8 -7.16,-16.3 -16.29,-16.3 -8.53,0 -16.7,7.5 -16.3,16.3 0.4,8.8 7.16,16.3 16.3,16.3 z" />
  <path
     inkscape:connector-curvature="0"
     id="path5451"
     style="fill:#ffc900"
     d="m 933.56,1294.3831 c 8.52,0 16.69,-7.5 16.29,-16.3 -0.4,-8.8 -7.16,-16.3 -16.29,-16.3 -8.53,0 -16.7,7.5 -16.3,16.3 0.4,8.8 7.16,16.3 16.3,16.3 z" />
  <path
     inkscape:connector-curvature="0"
     id="path5453"
     style="fill:#bfe4ed;stroke:#231f20;stroke-width:24px;stroke-miterlimit:10"
     d="m 1483.63,754.55306 c 69.14,0 200,-61.39 200,-207 0,-145.61 -138.24,-236.39 -200,-468.819999 -61.76,232.479999 -200,323.199999 -200,468.839999 0,145.64 130.85,206.98 200,206.98 z" />
</svg>
