<svg xmlns="http://www.w3.org/2000/svg" viewBox="0 0 1701.52 2000"><g id="Layer_2" data-name="Layer 2"><path d="M1387.6,734.82c69.15,0,200-61.39,200-207S1449.36,291.43,1387.6,59c-61.76,232.48-200,323.2-200,468.84S1318.46,734.82,1387.6,734.82Z" style="fill:#bfe4ed;stroke:#000;stroke-miterlimit:10;stroke-width:24px"/><path d="M1133.27,1261.63c0,94.17-7.33,175.38-47.54,261.51-28.61,61.3-64,119.6-87,183.44-22.76,63.17-58.16,111.67-109.39,156.59C798.57,1942.76,696,1979,576.82,1974.71,467.37,1970.8,356.25,1928,284,1843.47c-51.37-60.12-127.22-126.19-151.32-203.64-11.32-36.35-11-74.92-19.85-111.79-8.74-36.54-24.59-71.25-37.66-106.37-20.2-54.27-27.89-102.73-27.89-160,0-83.46,3.3-171.68,33.89-249.89C112.31,932.1,161.43,861,210,791.24l76.76-110.37c35.48-51,73.45-104.18,129.52-130.94C491.09,514.21,572.88,533,650,545.36c47.78,7.64,82.63,21.85,126.33,43.35,15.52,7.64,31.16,15.35,44.95,25.8C856.58,641.25,876.39,683,901,719.82c35.13,52.64,81.43,96.74,121.31,145.88C1110.78,974.75,1133.27,1124.45,1133.27,1261.63Z" style="fill:#fffce4;stroke:#000;stroke-miterlimit:10;stroke-width:24px"/></g></svg>