<svg id="Layer_1" data-name="Layer 1" xmlns="http://www.w3.org/2000/svg" viewBox="0 0 1315.3 2000"><path d="M1048.24,730.82c69.15,0,200-61.39,200-207S1110,287.43,1048.24,55c-61.76,232.48-200,323.2-200,468.84S979.09,730.82,1048.24,730.82Z" style="fill:#bfe4ed;stroke:#3a3632;stroke-miterlimit:10;stroke-width:20px"/><g id="layer2"><path id="path863" d="M1132.61,1960.32c-17.84,52.84-469.13-114.66-716.75-403.14C118,1210.11-32.11,677.77,139.35,578.12c82.06-47.69,192.78-99.69,192.78-99.69s122.31-32.22,211.16-49.24c186.46-35.73,206.06,400.39,325,821.53C977.92,1639.05,1152,1902.79,1132.61,1960.32Z" style="fill:#b51521"/><path id="path863-2" data-name="path863" d="M1132.61,1960.32c-17.84,52.84-469.13-114.66-716.75-403.14C118,1210.11-32.11,677.77,139.35,578.12c82.06-47.69,192.78-99.69,192.78-99.69s122.31-32.22,211.16-49.24c186.46-35.73,206.06,400.39,325,821.53C977.92,1639.05,1152,1902.79,1132.61,1960.32Z" style="fill:none;stroke:#3a3632;stroke-linecap:round;stroke-linejoin:round;stroke-width:22.1524369263235px;isolation:isolate;opacity:0.986000001430512"/><path id="path863-3" data-name="path863" d="M1132.61,1960.32c-17.84,52.84-469.13-114.66-716.75-403.14C118,1210.11-32.11,677.77,139.35,578.12c82.06-47.69,192.78-99.69,192.78-99.69s122.31-32.22,211.16-49.24c186.46-35.73,206.06,400.39,325,821.53C977.92,1639.05,1152,1902.79,1132.61,1960.32Z" style="fill:none;stroke:#3a3632;stroke-width:22.9263402394123px"/></g><g id="layer2-2" data-name="layer2"><path id="path863-4" data-name="path863" d="M896.29,1735.35c-15,44.46-296.4-62-490.46-300.16C172.36,1148.7,33.66,663.11,172,577.42c66.22-41,155.41-86,155.41-86s92.11,2.27,163.35-13.17c126.6-27.88,165.42,301.46,254.84,652.34C828.08,1454.11,912.58,1687,896.29,1735.35Z" style="fill:#d12027"/></g><circle cx="284.68" cy="780.3" r="100.36" style="fill:#fff"/><circle cx="558.67" cy="846.09" r="65.78" style="fill:#e81f2d"/><path id="path915" d="M373.82,377.49c-38.3-54.8-38.76-244.86-52.46-292.41-13.25-46-37.09-62.68-96.47-51.94-56.74,10.44-90.75,32-99,73.73S249.78,362.36,246.76,427.26,103.64,535.73,101.63,584.57c19.88-1.72,64.81-6.62,124.55,13,68.58-51.88,232.33-107.45,288.9-100.07,0,0,36.27-49.44,78.24-79.86C556.75,374.79,412.13,432.29,373.82,377.49Z" style="fill:#1f8441"/></svg>