<svg xmlns="http://www.w3.org/2000/svg" height="1923.945" width="1672.494"  xmlns:v="https://vecta.io/nano"><g stroke="#231f20" stroke-width="24"><path d="M1460.494 687.82c69.14 0 200-61.4 200-207s-138.24-236.4-200-468.82c-61.76 232.48-200 323.2-200 468.84s130.85 206.98 200 206.98z" fill="#c0e4ed" stroke-miterlimit="10"/><path d="M1150.524 526.73a37.35 37.35 0 0 0-17.72-47.14c-6.64-3.48-238.83 13.58-399.24 67.37-5.87-64 95.4-233.2 99.3-281.84 3.78-47.06-38.3-74.1-96.83-84.85-56-10.12-114.95-5-137.07 30.65s.64 285.2 0 337.74c-166.1-50.94-372.34-72.24-378.66-68.76a37.65 37.65 0 0 0-16.77 48.41c38.1 64.76 143.2 112.88 143.2 112.88 278.4 50.62 363.92 64.34 626.92 20.95 0 0 112.1-66.84 176.86-135.4z" fill="#218541"/><g fill="#f7d220" stroke-linejoin="round"><path d="M312.424 632.9c-67.23 3.07-100 35-127.62 55.78-182.26 137-182.24 331.58-166.42 486.3 33.4 268.94 165.08 661.56 370.5 671.08 28.3-.8 57.53-3.14 81.63-8.22 51.57 46.83 115.8 70.55 191.1 71.2a23.67 23.67 0 0 0 4.75-.32h6c75.3-.63 139.85-24.68 191.74-71.82a387.43 387.43 0 0 0 82.9 8.86c262.77-42.88 346.88-438.95 371.76-671.08 16.14-154.72 21.15-339-154.68-487.9-23.22-19.66-61.25-46.43-120-46.25-51.74.15-181.5 21-181.5 21h-389.63s-93.3-31.64-160.54-28.57z"/><path d="M338.704 1268.2c-9.85-69-20.94-130.9-21.55-205.14s4.3-146 16.62-205.14c17-81.48 73.55-186.8 150.22-219.18 110.83-46.8 295.53-39.4 374.33 0 74.44 37.27 146.87 154.27 160.08 322.6m-9.85 250.2c-15 278.42-63.9 697-332.47 700.38-148.22 1.87-286.67-176.37-309.35-420.1" stroke-linecap="round"/></g></g><path d="M604.334 1223.76c0 209.36 5 377.65-40.66 377.65s-82.64-260.54-82.64-469.9-4-334.4 82.64-334.4 40.66 217.3 40.66 426.67zm-462.24-108.46c0 165.67 11.4 261.2-13.9 261.2s-53.26-151.4-53.26-317.08 41.7-262.33 89.76-262.33-22.6 152.55-22.6 318.22z" fill="#fff"/></svg>