<svg id="Layer_1" data-name="Layer 1" xmlns="http://www.w3.org/2000/svg" viewBox="0 0 2000 2000"><path d="M103,1974.56H1897c56.48,0,88.59-45.57,72.24-100.09l-93-309.81c-13-43.17-62.27-77.25-110.49-77.25H234.21c-48.22,0-97.54,34.08-110.49,77.25l-93,309.81C14.41,1929,46.52,1974.56,103,1974.56Z" style="fill:#fff;stroke:#231f20;stroke-miterlimit:10;stroke-width:24px"/><path d="M182.82,1818.68c26.52,0,53-20.55,59.06-45.54l35.81-147.79c5.41-22.34-10.19-40.19-34.76-40.19s-49.37,17.85-55.45,40.19l-40.29,147.79C140.38,1798.13,156.29,1818.68,182.82,1818.68Z" style="fill:#fff;stroke:#231f20;stroke-miterlimit:10;stroke-width:24px"/><path d="M1166.9,348.79c3.91-44.24,53-107.61,32.62-152.27s-100.39-49.15-136.35-75.21C928.73,23.87,794.8-1.54,632.93,72.27s-230.51,191.58-245.11,357c-3.9,44.24-51,111.9-32.62,152.27s100.39,49.16,136.35,75.22c134.45,97.44,268.37,122.84,430.24,49S1152.31,514.19,1166.9,348.79Z" style="fill:#ffe700;stroke:#231f20;stroke-miterlimit:10;stroke-width:18.09090711677487px"/><path d="M1077.4,219.94c12,0,12-18.63,0-18.63s-12,18.63,0,18.63Z" style="fill:#ffffc7"/><path d="M1077.63,281.16c12,0,12-18.63,0-18.63s-12,18.63,0,18.63Z" style="fill:#ffffc7"/><path d="M1023.25,249.64c12,0,12-18.63,0-18.63s-12,18.63,0,18.63Z" style="fill:#ffffc7"/><path d="M988.75,183.37c12,0,12-18.63,0-18.63s-12,18.63,0,18.63Z" style="fill:#ffffc7"/><path d="M1032.27,158.5c12,0,12-18.63,0-18.63s-12,18.63,0,18.63Z" style="fill:#ffffc7"/><path d="M957.5,142.55c12,0,12-18.63,0-18.63s-12,18.63,0,18.63Z" style="fill:#ffffc7"/><path d="M875.84,124.84c12,0,12-18.63,0-18.63s-12,18.63,0,18.63Z" style="fill:#ffffc7"/><path d="M873.09,179.07c12,0,12-18.62,0-18.62s-12,18.62,0,18.62Z" style="fill:#ffffc7"/><path d="M814.35,146c12,0,12-18.63,0-18.63s-12,18.63,0,18.63Z" style="fill:#ffffc7"/><path d="M754,151.43c12,0,12-18.62,0-18.62s-12,18.62,0,18.62Z" style="fill:#ffffc7"/><path d="M789,239c12,0,12-18.62,0-18.62S777,239,789,239Z" style="fill:#ffffc7"/><path d="M850.53,217.82c12,0,12-18.63,0-18.63s-12,18.63,0,18.63Z" style="fill:#ffffc7"/><path d="M877.09,276.07c12,0,12-18.62,0-18.62s-12,18.62,0,18.62Z" style="fill:#ffffc7"/><path d="M939.18,241c12,0,12-18.62,0-18.62s-12,18.62,0,18.62Z" style="fill:#ffffc7"/><path d="M927.87,189.58c12,0,12-18.62,0-18.62s-12,18.62,0,18.62Z" style="fill:#ffffc7"/><path d="M925.24,100.84c12,0,12-18.63,0-18.63s-12,18.63,0,18.63Z" style="fill:#ffffc7"/><path d="M810.88,81.36c12,0,12-18.63,0-18.63s-12,18.63,0,18.63Z" style="fill:#ffffc7"/><path d="M760.06,94.72c12,0,12-18.63,0-18.63s-12,18.63,0,18.63Z" style="fill:#ffffc7"/><path d="M681,120.33c12,0,12-18.63,0-18.63s-12,18.63,0,18.63Z" style="fill:#ffffc7"/><path d="M661.81,164.79l-.59-.22a9.6,9.6,0,0,0-11.46,6.5l-.33,2.48a9.34,9.34,0,0,0,1.27,4.7l1.46,1.88a9.21,9.21,0,0,0,4.11,2.4l.59.22a7.1,7.1,0,0,0,3.71.17,9.61,9.61,0,0,0,7.75-6.67l.33-2.48a9.34,9.34,0,0,0-1.27-4.7l-1.46-1.89a9.29,9.29,0,0,0-4.11-2.39Z" style="fill:#ffffc7"/><path d="M622.17,157.59c12,0,12-18.62,0-18.62s-12,18.62,0,18.62Z" style="fill:#ffffc7"/><path d="M691.15,221.32c12,0,12-18.63,0-18.63s-12,18.63,0,18.63Z" style="fill:#ffffc7"/><path d="M732.5,189.21c12,0,12-18.62,0-18.62s-12,18.62,0,18.62Z" style="fill:#ffffc7"/><path d="M497.84,565.83c12,0,12-18.63,0-18.63s-12,18.63,0,18.63Z" style="fill:#ffc900"/><path d="M454.8,490.05c12,0,12-18.63,0-18.63s-12,18.63,0,18.63Z" style="fill:#ffc900"/><path d="M443.18,550.72c12,0,12-18.63,0-18.63s-12,18.63,0,18.63Z" style="fill:#ffc900"/><path d="M534.36,554.62c12,0,12-18.63,0-18.63s-12,18.63,0,18.63Z" style="fill:#ffc900"/><path d="M513,488.31c12,0,12-18.63,0-18.63s-12,18.63,0,18.63Z" style="fill:#ffc900"/><path d="M582.16,580.9c12,0,12-18.63,0-18.63s-12,18.63,0,18.63Z" style="fill:#ffc900"/><path d="M523.6,622.32c12,0,12-18.63,0-18.63s-12,18.63,0,18.63Z" style="fill:#ffc900"/><path d="M443.76,417.25c12,0,12-18.62,0-18.62s-12,18.62,0,18.62Z" style="fill:#ffc900"/><path d="M595.64,639.51c12,0,12-18.63,0-18.63s-12,18.63,0,18.63Z" style="fill:#ffc900"/><path d="M679.89,662.91c12,0,12-18.63,0-18.63s-12,18.63,0,18.63Z" style="fill:#ffc900"/><path d="M667.94,606.54c12,0,12-18.62,0-18.62s-12,18.62,0,18.62Z" style="fill:#ffc900"/><path d="M738.79,636.05c12,0,12-18.62,0-18.62s-12,18.62,0,18.62Z" style="fill:#ffc900"/><path d="M816.7,644.41c12,0,12-18.63,0-18.63s-12,18.63,0,18.63Z" style="fill:#ffc900"/><path d="M766.8,535c12,0,12-18.62,0-18.62s-12,18.62,0,18.62Z" style="fill:#ffc900"/><path d="M702.61,564.24c12,0,12-18.62,0-18.62s-12,18.62,0,18.62Z" style="fill:#ffc900"/><path d="M676,506c12,0,12-18.62,0-18.62S664,506,676,506Z" style="fill:#ffc900"/><path d="M612.13,519.15c12,0,12-18.62,0-18.62s-12,18.62,0,18.62Z" style="fill:#ffc900"/><path d="M635.37,565.26c12,0,12-18.63,0-18.63s-12,18.63,0,18.63Z" style="fill:#ffc900"/><path d="M627.9,681.22c12,0,12-18.63,0-18.63s-12,18.63,0,18.63Z" style="fill:#ffc900"/><path d="M742.26,700.7c12,0,12-18.63,0-18.63s-12,18.63,0,18.63Z" style="fill:#ffc900"/><path d="M793.08,687.34c12,0,12-18.63,0-18.63s-12,18.63,0,18.63Z" style="fill:#ffc900"/><path d="M883.87,676.58c12,0,12-18.63,0-18.63s-12,18.63,0,18.63Z" style="fill:#ffc900"/><path d="M872.52,612.66l.59.23a7.13,7.13,0,0,0,3.72.16,6.86,6.86,0,0,0,3.46-1.1,10.46,10.46,0,0,0,4.28-5.57l.33-2.47a9.27,9.27,0,0,0-1.27-4.71l-1.45-1.88a9.52,9.52,0,0,0-4.11-2.4l-.6-.22a7.09,7.09,0,0,0-3.71-.16,6.86,6.86,0,0,0-3.46,1.1,10.33,10.33,0,0,0-4.28,5.57l-.33,2.47a9.11,9.11,0,0,0,1.27,4.7l1.45,1.89a9.29,9.29,0,0,0,4.11,2.39Z" style="fill:#ffc900"/><path d="M962.38,640.78c12,0,12-18.63,0-18.63s-12,18.63,0,18.63Z" style="fill:#ffc900"/><path d="M853.31,552.3c12,0,12-18.62,0-18.62s-12,18.62,0,18.62Z" style="fill:#ffc900"/><path d="M779.82,585.81c12,0,12-18.62,0-18.62s-12,18.62,0,18.62Z" style="fill:#ffc900"/><path d="M578.66,1040.65l166,57.41,728.72-509.89a69.36,69.36,0,0,0,17.07-96.6l-127.34-182a69.37,69.37,0,0,0-96.61-17.06L537.74,802.38l-.62,178.89" style="fill:none;stroke:#000;stroke-linejoin:round;stroke-width:18.09090711677487px"/><rect x="834.59" y="276.13" width="360.87" height="825.05" transform="translate(997.36 -537.81) rotate(55.02)" style="fill:#e6e7e8;stroke:#000;stroke-linejoin:round;stroke-width:18.09090711677487px"/><path d="M824.25,969.19a63.7,63.7,0,0,1,16.4-10.62,39.18,39.18,0,0,1,9.59-3,18,18,0,0,1,5.34-.07,10,10,0,0,1,2.83.88,6.72,6.72,0,0,1,2.51,2.11,6.56,6.56,0,0,1,1.12,3.08,10,10,0,0,1-.14,3,17.64,17.64,0,0,1-1.9,5,38.94,38.94,0,0,1-6.07,8,63.31,63.31,0,0,1-15.59,11.76,123.62,123.62,0,0,0,13.43-13.67,43.78,43.78,0,0,0,5.13-7.71,16.12,16.12,0,0,0,1.45-4,3.63,3.63,0,0,0-3.36-4.8,16.25,16.25,0,0,0-4.3,0,44,44,0,0,0-9,2.17A123.65,123.65,0,0,0,824.25,969.19Z"/><circle cx="830.51" cy="979.8" r="12.29"/><path d="M798.88,932.92a63.61,63.61,0,0,1,16.39-10.61,39.45,39.45,0,0,1,9.59-3,18,18,0,0,1,5.34-.08,10.33,10.33,0,0,1,2.84.88,6.81,6.81,0,0,1,2.51,2.11,6.63,6.63,0,0,1,1.12,3.09,10,10,0,0,1-.14,3,18.52,18.52,0,0,1-1.9,5,39.58,39.58,0,0,1-6.07,8A63.69,63.69,0,0,1,813,953.06a125.4,125.4,0,0,0,13.43-13.67,44.09,44.09,0,0,0,5.12-7.71,15.87,15.87,0,0,0,1.45-4,3.61,3.61,0,0,0-3.36-4.8,16.16,16.16,0,0,0-4.29,0,43.7,43.7,0,0,0-9,2.18A122.46,122.46,0,0,0,798.88,932.92Z"/><circle cx="805.14" cy="943.54" r="12.29"/><path d="M773.51,896.66A63.73,63.73,0,0,1,789.9,886a39.44,39.44,0,0,1,9.59-2.95,17.62,17.62,0,0,1,5.34-.08,10,10,0,0,1,2.83.88,6.75,6.75,0,0,1,2.52,2.11,6.87,6.87,0,0,1,1.12,3.08,10.31,10.31,0,0,1-.15,3,17.82,17.82,0,0,1-1.9,5,39.45,39.45,0,0,1-6.06,8,63.26,63.26,0,0,1-15.6,11.75A123.52,123.52,0,0,0,801,903.13a44.15,44.15,0,0,0,5.13-7.71,16.4,16.4,0,0,0,1.45-4,4.4,4.4,0,0,0-.45-3.26,4.34,4.34,0,0,0-2.91-1.55,16.17,16.17,0,0,0-4.29,0,44.32,44.32,0,0,0-9,2.17A123.65,123.65,0,0,0,773.51,896.66Z"/><circle cx="779.77" cy="907.28" r="12.29"/><path d="M748.13,860.4a63.81,63.81,0,0,1,16.39-10.62,39.4,39.4,0,0,1,9.6-3,18,18,0,0,1,5.34-.07,9.73,9.73,0,0,1,2.83.88,6.79,6.79,0,0,1,2.51,2.1,6.63,6.63,0,0,1,1.12,3.09,10,10,0,0,1-.14,3,17.64,17.64,0,0,1-1.9,5,38.94,38.94,0,0,1-6.07,8,63.5,63.5,0,0,1-15.59,11.76,124.51,124.51,0,0,0,13.43-13.67,44.09,44.09,0,0,0,5.12-7.71,15.77,15.77,0,0,0,1.46-4,3.62,3.62,0,0,0-3.36-4.8,16.25,16.25,0,0,0-4.3,0,44,44,0,0,0-9,2.17A123.65,123.65,0,0,0,748.13,860.4Z"/><circle cx="754.39" cy="871.01" r="12.29"/><path d="M722.76,824.13a63.61,63.61,0,0,1,16.39-10.61,39.45,39.45,0,0,1,9.59-3,17.62,17.62,0,0,1,5.34-.08,10.33,10.33,0,0,1,2.84.88,6.34,6.34,0,0,1,3.63,5.19,10,10,0,0,1-.14,3,18.52,18.52,0,0,1-1.9,5,39.58,39.58,0,0,1-6.07,8,63.69,63.69,0,0,1-15.59,11.76,124.4,124.4,0,0,0,13.42-13.67,43.6,43.6,0,0,0,5.13-7.71,15.87,15.87,0,0,0,1.45-4,3.61,3.61,0,0,0-3.36-4.8,16.16,16.16,0,0,0-4.29,0,43.7,43.7,0,0,0-9,2.18A122.46,122.46,0,0,0,722.76,824.13Z"/><circle cx="729.02" cy="834.75" r="12.29"/><path d="M697.39,787.87a63.73,63.73,0,0,1,16.39-10.62,39.44,39.44,0,0,1,9.59-3,17.62,17.62,0,0,1,5.34-.08,10,10,0,0,1,2.83.88,6.64,6.64,0,0,1,2.51,2.11,6.73,6.73,0,0,1,1.13,3.08,10.31,10.31,0,0,1-.15,3,17.64,17.64,0,0,1-1.9,5,39.6,39.6,0,0,1-6.06,8A63.51,63.51,0,0,1,711.47,808a122.74,122.74,0,0,0,13.43-13.67,43.78,43.78,0,0,0,5.13-7.71,16.19,16.19,0,0,0,1.45-4,4.34,4.34,0,0,0-.46-3.26,4.3,4.3,0,0,0-2.9-1.55,16.17,16.17,0,0,0-4.29,0,44.32,44.32,0,0,0-9,2.17A123.65,123.65,0,0,0,697.39,787.87Z"/><circle cx="703.64" cy="798.49" r="12.29"/><path d="M672,751.61A63.64,63.64,0,0,1,688.4,741a39.4,39.4,0,0,1,9.6-3,18,18,0,0,1,5.34-.07,10,10,0,0,1,2.83.87,6.81,6.81,0,0,1,2.51,2.11A6.63,6.63,0,0,1,709.8,744a10,10,0,0,1-.14,3,17.76,17.76,0,0,1-1.9,5,38.94,38.94,0,0,1-6.07,8,63.5,63.5,0,0,1-15.59,11.76,124.51,124.51,0,0,0,13.43-13.67,44.09,44.09,0,0,0,5.12-7.71,16.15,16.15,0,0,0,1.46-4,4.41,4.41,0,0,0-.46-3.26,4.34,4.34,0,0,0-2.9-1.54,15.84,15.84,0,0,0-4.3,0,43.18,43.18,0,0,0-9,2.17A123.65,123.65,0,0,0,672,751.61Z"/><circle cx="678.27" cy="762.22" r="12.29"/><path d="M859.78,913a63.78,63.78,0,0,1,16.39-10.61,39.4,39.4,0,0,1,9.6-3,17.62,17.62,0,0,1,5.34-.08,10.37,10.37,0,0,1,2.83.88,6.81,6.81,0,0,1,2.51,2.11,6.64,6.64,0,0,1,1.12,3.08,10,10,0,0,1-.14,3,17.88,17.88,0,0,1-1.9,5,39.21,39.21,0,0,1-6.07,8,63.5,63.5,0,0,1-15.59,11.76,125.4,125.4,0,0,0,13.43-13.67,43.54,43.54,0,0,0,5.12-7.71,15.91,15.91,0,0,0,1.46-4,3.62,3.62,0,0,0-3.36-4.8,16.23,16.23,0,0,0-4.3,0,44,44,0,0,0-9,2.18A122.46,122.46,0,0,0,859.78,913Z"/><circle cx="866.04" cy="923.62" r="12.29"/><path d="M834.59,877A63.78,63.78,0,0,1,851,866.39a39.4,39.4,0,0,1,9.6-3,17.62,17.62,0,0,1,5.34-.08,10.37,10.37,0,0,1,2.83.88,6.81,6.81,0,0,1,2.51,2.11,6.64,6.64,0,0,1,1.12,3.08,10,10,0,0,1-.14,3,17.88,17.88,0,0,1-1.9,5,39.21,39.21,0,0,1-6.07,8,63.5,63.5,0,0,1-15.59,11.76,125.4,125.4,0,0,0,13.43-13.67,43.54,43.54,0,0,0,5.12-7.71,15.91,15.91,0,0,0,1.46-4,3.62,3.62,0,0,0-3.36-4.8,15.82,15.82,0,0,0-4.3,0,44,44,0,0,0-9,2.18A122.46,122.46,0,0,0,834.59,877Z"/><circle cx="840.85" cy="887.62" r="12.29"/><path d="M809.4,841a63.78,63.78,0,0,1,16.39-10.61,39.4,39.4,0,0,1,9.6-3,17.62,17.62,0,0,1,5.34-.08,10,10,0,0,1,2.83.88,6.72,6.72,0,0,1,2.51,2.11,6.64,6.64,0,0,1,1.12,3.08,10,10,0,0,1-.14,3,17.82,17.82,0,0,1-1.9,5,39.49,39.49,0,0,1-6.07,8,63.21,63.21,0,0,1-15.59,11.75,123.54,123.54,0,0,0,13.43-13.66,43.54,43.54,0,0,0,5.12-7.71,15.91,15.91,0,0,0,1.46-4,3.63,3.63,0,0,0-3.36-4.81,16.25,16.25,0,0,0-4.3,0,44.64,44.64,0,0,0-9,2.17A123.65,123.65,0,0,0,809.4,841Z"/><circle cx="815.66" cy="851.62" r="12.29"/><path d="M784.21,805a63.78,63.78,0,0,1,16.39-10.61,39,39,0,0,1,9.6-3,17.62,17.62,0,0,1,5.34-.08,10,10,0,0,1,2.83.88,6.72,6.72,0,0,1,2.51,2.11,6.64,6.64,0,0,1,1.12,3.08,10,10,0,0,1-.14,3,17.82,17.82,0,0,1-1.9,5,39.49,39.49,0,0,1-6.07,8,63.21,63.21,0,0,1-15.59,11.75,124.41,124.41,0,0,0,13.43-13.66,43.54,43.54,0,0,0,5.12-7.71,16,16,0,0,0,1.46-4,3.63,3.63,0,0,0-3.36-4.81,16.25,16.25,0,0,0-4.3,0,44.64,44.64,0,0,0-9,2.17A123.65,123.65,0,0,0,784.21,805Z"/><circle cx="790.47" cy="815.62" r="12.29"/><path d="M759,769a64.08,64.08,0,0,1,16.39-10.62,39.38,39.38,0,0,1,9.6-3,17.62,17.62,0,0,1,5.34-.08,10,10,0,0,1,2.83.88,6.72,6.72,0,0,1,2.51,2.11,6.6,6.6,0,0,1,1.12,3.08,10,10,0,0,1-.14,3,17.64,17.64,0,0,1-1.9,5,39.28,39.28,0,0,1-6.07,8,63.46,63.46,0,0,1-15.59,11.75,123.62,123.62,0,0,0,13.43-13.67,43.18,43.18,0,0,0,5.12-7.71,15.84,15.84,0,0,0,1.46-4,3.63,3.63,0,0,0-3.36-4.81,16.25,16.25,0,0,0-4.3,0,44.64,44.64,0,0,0-9,2.17A123.65,123.65,0,0,0,759,769Z"/><circle cx="765.28" cy="779.62" r="12.29"/><path d="M733.83,733a63.81,63.81,0,0,1,16.39-10.62,39.4,39.4,0,0,1,9.6-3,18,18,0,0,1,5.34-.07,10,10,0,0,1,2.83.88,6.72,6.72,0,0,1,2.51,2.11,6.56,6.56,0,0,1,1.12,3.08,10,10,0,0,1-.14,3,17.64,17.64,0,0,1-1.9,5,38.94,38.94,0,0,1-6.07,8,63.5,63.5,0,0,1-15.59,11.76,123.62,123.62,0,0,0,13.43-13.67,43.18,43.18,0,0,0,5.12-7.71,15.77,15.77,0,0,0,1.46-4,3.63,3.63,0,0,0-3.36-4.8,16.25,16.25,0,0,0-4.3,0,44.64,44.64,0,0,0-9,2.17A123.65,123.65,0,0,0,733.83,733Z"/><circle cx="740.09" cy="743.61" r="12.29"/><path d="M924.74,898.88a63.64,63.64,0,0,1,16.39-10.62,39.45,39.45,0,0,1,9.59-3,18,18,0,0,1,5.34-.07,10,10,0,0,1,2.84.88,6.34,6.34,0,0,1,3.63,5.19,10,10,0,0,1-.14,3,18.26,18.26,0,0,1-1.9,5,39.3,39.3,0,0,1-6.07,8A63.69,63.69,0,0,1,938.83,919a124.51,124.51,0,0,0,13.43-13.67,43.72,43.72,0,0,0,5.12-7.71,15.73,15.73,0,0,0,1.45-4,3.62,3.62,0,0,0-3.36-4.8,16.17,16.17,0,0,0-4.29,0,43.67,43.67,0,0,0-9,2.17A123.65,123.65,0,0,0,924.74,898.88Z"/><circle cx="931" cy="909.49" r="12.29"/><path d="M899.37,862.61A63.44,63.44,0,0,1,915.76,852a39.45,39.45,0,0,1,9.59-3,18,18,0,0,1,5.34-.08,10.37,10.37,0,0,1,2.83.88,6.37,6.37,0,0,1,3.64,5.2,10.31,10.31,0,0,1-.15,3,17.88,17.88,0,0,1-1.9,5,39.17,39.17,0,0,1-6.06,8,63.55,63.55,0,0,1-15.6,11.76,122.74,122.74,0,0,0,13.43-13.67,44.15,44.15,0,0,0,5.13-7.71,16.26,16.26,0,0,0,1.45-4,4.41,4.41,0,0,0-.45-3.26,4.34,4.34,0,0,0-2.91-1.54,16.16,16.16,0,0,0-4.29,0,43.7,43.7,0,0,0-9,2.18A122.46,122.46,0,0,0,899.37,862.61Z"/><circle cx="905.63" cy="873.23" r="12.29"/><path d="M874,826.35a64.08,64.08,0,0,1,16.39-10.62,39.38,39.38,0,0,1,9.6-3,17.62,17.62,0,0,1,5.34-.08,10,10,0,0,1,2.83.88,6.72,6.72,0,0,1,2.51,2.11,6.64,6.64,0,0,1,1.12,3.08,10,10,0,0,1-.14,3,17.82,17.82,0,0,1-1.9,5,39.49,39.49,0,0,1-6.07,8,63.21,63.21,0,0,1-15.59,11.75,125.32,125.32,0,0,0,13.43-13.66,44.47,44.47,0,0,0,5.12-7.71,16,16,0,0,0,1.46-4,3.63,3.63,0,0,0-3.36-4.81,16.25,16.25,0,0,0-4.3,0,44.64,44.64,0,0,0-9,2.17A123.65,123.65,0,0,0,874,826.35Z"/><circle cx="880.25" cy="836.97" r="12.29"/><path d="M848.62,790.09A63.64,63.64,0,0,1,865,779.47a39.45,39.45,0,0,1,9.59-3,18,18,0,0,1,5.34-.07,9.63,9.63,0,0,1,2.83.88,6.29,6.29,0,0,1,3.64,5.19,10,10,0,0,1-.14,3,18.26,18.26,0,0,1-1.9,5,39.3,39.3,0,0,1-6.07,8,63.69,63.69,0,0,1-15.59,11.76,123.52,123.52,0,0,0,13.42-13.67,43.6,43.6,0,0,0,5.13-7.71,15.73,15.73,0,0,0,1.45-4,3.61,3.61,0,0,0-3.36-4.8,16.17,16.17,0,0,0-4.29,0,43.67,43.67,0,0,0-9,2.17A123.65,123.65,0,0,0,848.62,790.09Z"/><circle cx="854.88" cy="800.7" r="12.29"/><path d="M823.25,753.82a63.44,63.44,0,0,1,16.39-10.61,39.18,39.18,0,0,1,9.59-3,17.62,17.62,0,0,1,5.34-.08,10.37,10.37,0,0,1,2.83.88,6.38,6.38,0,0,1,3.64,5.19,10.36,10.36,0,0,1-.15,3,17.88,17.88,0,0,1-1.9,5,39.53,39.53,0,0,1-6.06,8A63.55,63.55,0,0,1,837.33,774a124.5,124.5,0,0,0,13.43-13.67,44.15,44.15,0,0,0,5.13-7.71,16.26,16.26,0,0,0,1.45-4,4.36,4.36,0,0,0-.46-3.26,4.29,4.29,0,0,0-2.9-1.54,16.16,16.16,0,0,0-4.29,0,43.7,43.7,0,0,0-9,2.18A122.46,122.46,0,0,0,823.25,753.82Z"/><circle cx="829.5" cy="764.44" r="12.29"/><path d="M797.87,717.56a63.91,63.91,0,0,1,16.39-10.62,39.38,39.38,0,0,1,9.6-3,17.62,17.62,0,0,1,5.34-.08,10,10,0,0,1,2.83.88,6.72,6.72,0,0,1,2.51,2.11,6.6,6.6,0,0,1,1.12,3.08,10,10,0,0,1-.14,3,17.64,17.64,0,0,1-1.9,5,39.64,39.64,0,0,1-6.07,8A63.46,63.46,0,0,1,812,737.69,124.51,124.51,0,0,0,825.39,724a43.72,43.72,0,0,0,5.12-7.71,16.23,16.23,0,0,0,1.46-4,4.39,4.39,0,0,0-.46-3.26,4.34,4.34,0,0,0-2.9-1.55,16.25,16.25,0,0,0-4.3,0,44.48,44.48,0,0,0-9,2.17A123.65,123.65,0,0,0,797.87,717.56Z"/><circle cx="804.13" cy="728.18" r="12.29"/><path d="M772.5,681.3a63.64,63.64,0,0,1,16.39-10.62,39.45,39.45,0,0,1,9.59-3,18,18,0,0,1,5.34-.07,10,10,0,0,1,2.83.87,6.32,6.32,0,0,1,3.64,5.2,10.32,10.32,0,0,1-.14,3,18.39,18.39,0,0,1-1.9,5,39.3,39.3,0,0,1-6.07,8,63.69,63.69,0,0,1-15.59,11.76A123.52,123.52,0,0,0,800,687.76a43.6,43.6,0,0,0,5.13-7.71,15.73,15.73,0,0,0,1.45-4,3.61,3.61,0,0,0-3.36-4.8,15.76,15.76,0,0,0-4.29,0,43,43,0,0,0-9,2.17A123.65,123.65,0,0,0,772.5,681.3Z"/><circle cx="778.76" cy="691.91" r="12.29"/><path d="M960.27,842.69a63.61,63.61,0,0,1,16.39-10.61,39.45,39.45,0,0,1,9.59-3,17.62,17.62,0,0,1,5.34-.08,10.27,10.27,0,0,1,2.83.88,6.32,6.32,0,0,1,3.64,5.19,10,10,0,0,1-.14,3,18.52,18.52,0,0,1-1.9,5,39.58,39.58,0,0,1-6.07,8,63.69,63.69,0,0,1-15.59,11.76,124.4,124.4,0,0,0,13.42-13.67,43.6,43.6,0,0,0,5.13-7.71,15.87,15.87,0,0,0,1.45-4,3.61,3.61,0,0,0-3.36-4.8,16.16,16.16,0,0,0-4.29,0,43.7,43.7,0,0,0-9,2.18A122.46,122.46,0,0,0,960.27,842.69Z"/><circle cx="966.53" cy="853.31" r="12.29"/><path d="M935.08,806.69a63.61,63.61,0,0,1,16.39-10.61,39.45,39.45,0,0,1,9.59-3,17.62,17.62,0,0,1,5.34-.08,10.27,10.27,0,0,1,2.83.88,6.32,6.32,0,0,1,3.64,5.19,10,10,0,0,1-.14,3,18.52,18.52,0,0,1-1.9,5,39.58,39.58,0,0,1-6.07,8,63.69,63.69,0,0,1-15.59,11.76,124.4,124.4,0,0,0,13.42-13.67,43.6,43.6,0,0,0,5.13-7.71,15.87,15.87,0,0,0,1.45-4,3.62,3.62,0,0,0-3.36-4.81,16.17,16.17,0,0,0-4.29,0,43.7,43.7,0,0,0-9,2.18A122.46,122.46,0,0,0,935.08,806.69Z"/><circle cx="941.34" cy="817.31" r="12.29"/><path d="M909.89,770.69a63.61,63.61,0,0,1,16.39-10.61,39.45,39.45,0,0,1,9.59-3,17.62,17.62,0,0,1,5.34-.08,9.94,9.94,0,0,1,2.83.88,6.67,6.67,0,0,1,2.52,2.11,6.75,6.75,0,0,1,1.12,3.08,10,10,0,0,1-.14,3,18.46,18.46,0,0,1-1.9,5,39.86,39.86,0,0,1-6.07,8A63.4,63.4,0,0,1,924,790.82a123.44,123.44,0,0,0,13.42-13.66,43.6,43.6,0,0,0,5.13-7.71,15.87,15.87,0,0,0,1.45-4,3.62,3.62,0,0,0-3.36-4.81,16.17,16.17,0,0,0-4.29,0,44.32,44.32,0,0,0-9,2.17A123.65,123.65,0,0,0,909.89,770.69Z"/><circle cx="916.15" cy="781.31" r="12.29"/><path d="M884.7,734.69a63.61,63.61,0,0,1,16.39-10.61,39,39,0,0,1,9.59-3A17.63,17.63,0,0,1,916,721a9.84,9.84,0,0,1,2.83.88,6.67,6.67,0,0,1,2.52,2.11,6.75,6.75,0,0,1,1.12,3.08,10,10,0,0,1-.14,3,18.46,18.46,0,0,1-1.9,5,39.86,39.86,0,0,1-6.07,8,63.4,63.4,0,0,1-15.59,11.75,124.31,124.31,0,0,0,13.42-13.66,43.6,43.6,0,0,0,5.13-7.71,16,16,0,0,0,1.45-4,3.62,3.62,0,0,0-3.36-4.81,16.17,16.17,0,0,0-4.29,0,44.32,44.32,0,0,0-9,2.17A123.65,123.65,0,0,0,884.7,734.69Z"/><circle cx="890.96" cy="745.31" r="12.29"/><path d="M859.51,698.69a63.91,63.91,0,0,1,16.39-10.62,39.44,39.44,0,0,1,9.59-3,17.63,17.63,0,0,1,5.34-.08,10,10,0,0,1,2.84.88,6.34,6.34,0,0,1,3.63,5.19,10,10,0,0,1-.14,3,18.26,18.26,0,0,1-1.9,5,39.3,39.3,0,0,1-6.07,8,63.44,63.44,0,0,1-15.59,11.76A123.52,123.52,0,0,0,887,705.15a43.24,43.24,0,0,0,5.13-7.71,15.8,15.8,0,0,0,1.45-4,3.62,3.62,0,0,0-3.36-4.81,16.17,16.17,0,0,0-4.29,0,44.32,44.32,0,0,0-9,2.17A123.65,123.65,0,0,0,859.51,698.69Z"/><circle cx="865.77" cy="709.31" r="12.29"/><path d="M834.32,662.69a63.64,63.64,0,0,1,16.39-10.62,39.45,39.45,0,0,1,9.59-3,18,18,0,0,1,5.34-.07,10,10,0,0,1,2.84.88,6.34,6.34,0,0,1,3.63,5.19,10,10,0,0,1-.14,3,18.26,18.26,0,0,1-1.9,5,39.3,39.3,0,0,1-6.07,8,63.69,63.69,0,0,1-15.59,11.76,123.52,123.52,0,0,0,13.42-13.67,43.24,43.24,0,0,0,5.13-7.71,15.73,15.73,0,0,0,1.45-4,3.62,3.62,0,0,0-3.36-4.8,16.17,16.17,0,0,0-4.29,0,44.32,44.32,0,0,0-9,2.17A123.65,123.65,0,0,0,834.32,662.69Z"/><circle cx="840.58" cy="673.3" r="12.29"/><path d="M1025.23,828.57A63.47,63.47,0,0,1,1041.62,818a39.45,39.45,0,0,1,9.59-3,18,18,0,0,1,5.34-.07,10,10,0,0,1,2.83.88A6.38,6.38,0,0,1,1063,821a10.31,10.31,0,0,1-.15,3,17.64,17.64,0,0,1-1.9,5,39.26,39.26,0,0,1-6.06,8,63.55,63.55,0,0,1-15.6,11.76A122.74,122.74,0,0,0,1052.74,835a43.78,43.78,0,0,0,5.13-7.71,16.12,16.12,0,0,0,1.45-4,3.62,3.62,0,0,0-3.36-4.8,16.17,16.17,0,0,0-4.29,0,43.67,43.67,0,0,0-9,2.17A123.65,123.65,0,0,0,1025.23,828.57Z"/><circle cx="1031.48" cy="839.18" r="12.29"/><path d="M999.85,792.3a63.78,63.78,0,0,1,16.39-10.61,39.4,39.4,0,0,1,9.6-3,18,18,0,0,1,5.34-.08,10.37,10.37,0,0,1,2.83.88,6.81,6.81,0,0,1,2.51,2.11,6.63,6.63,0,0,1,1.12,3.09,10,10,0,0,1-.14,3,17.88,17.88,0,0,1-1.9,5,39.21,39.21,0,0,1-6.07,8,63.5,63.5,0,0,1-15.59,11.76,125.4,125.4,0,0,0,13.43-13.67,44.09,44.09,0,0,0,5.12-7.71,15.91,15.91,0,0,0,1.46-4,3.62,3.62,0,0,0-3.36-4.8,16.23,16.23,0,0,0-4.3,0,43.85,43.85,0,0,0-9,2.18A122.46,122.46,0,0,0,999.85,792.3Z"/><circle cx="1006.11" cy="802.92" r="12.29"/><path d="M974.48,756a63.91,63.91,0,0,1,16.39-10.62,39.44,39.44,0,0,1,9.59-2.95,17.62,17.62,0,0,1,5.34-.08,9.94,9.94,0,0,1,2.83.88,6.67,6.67,0,0,1,2.52,2.11,6.75,6.75,0,0,1,1.12,3.08,10,10,0,0,1-.14,3,18.46,18.46,0,0,1-1.9,5,39.86,39.86,0,0,1-6.07,8,63.4,63.4,0,0,1-15.59,11.75A124.31,124.31,0,0,0,1002,762.51a44,44,0,0,0,5.13-7.71,16,16,0,0,0,1.45-4,3.62,3.62,0,0,0-3.36-4.81,16.17,16.17,0,0,0-4.29,0,44.32,44.32,0,0,0-9,2.17A123.65,123.65,0,0,0,974.48,756Z"/><circle cx="980.74" cy="766.66" r="12.29"/><path d="M949.11,719.78a63.47,63.47,0,0,1,16.39-10.62,39.18,39.18,0,0,1,9.59-3,18,18,0,0,1,5.34-.07,9.73,9.73,0,0,1,2.83.88,6.34,6.34,0,0,1,3.64,5.19,10.31,10.31,0,0,1-.15,3,17.64,17.64,0,0,1-1.9,5,39.26,39.26,0,0,1-6.06,8,63.55,63.55,0,0,1-15.6,11.76,123.62,123.62,0,0,0,13.43-13.67,44.15,44.15,0,0,0,5.13-7.71,16.12,16.12,0,0,0,1.45-4,3.62,3.62,0,0,0-3.36-4.8,16.17,16.17,0,0,0-4.29,0,43.91,43.91,0,0,0-9,2.17A124,124,0,0,0,949.11,719.78Z"/><circle cx="955.36" cy="730.39" r="12.29"/><path d="M923.73,683.51a63.61,63.61,0,0,1,16.39-10.61,39.4,39.4,0,0,1,9.6-3,17.62,17.62,0,0,1,5.34-.08,10.37,10.37,0,0,1,2.83.88,6.81,6.81,0,0,1,2.51,2.11,6.64,6.64,0,0,1,1.12,3.08,10,10,0,0,1-.14,3,17.88,17.88,0,0,1-1.9,5,39.58,39.58,0,0,1-6.07,8,63.5,63.5,0,0,1-15.59,11.76A125.4,125.4,0,0,0,951.25,690a44.09,44.09,0,0,0,5.12-7.71,16.3,16.3,0,0,0,1.46-4,4.41,4.41,0,0,0-.46-3.26,4.34,4.34,0,0,0-2.9-1.54,16.24,16.24,0,0,0-4.3,0,43.85,43.85,0,0,0-9,2.18A122.46,122.46,0,0,0,923.73,683.51Z"/><circle cx="929.99" cy="694.13" r="12.29"/><path d="M898.36,647.25a63.73,63.73,0,0,1,16.39-10.62,39.44,39.44,0,0,1,9.59-3,17.62,17.62,0,0,1,5.34-.08,10,10,0,0,1,2.83.88,6.32,6.32,0,0,1,3.64,5.19,10,10,0,0,1-.15,3,17.93,17.93,0,0,1-1.89,5,39.3,39.3,0,0,1-6.07,8,63.44,63.44,0,0,1-15.59,11.76,123.52,123.52,0,0,0,13.42-13.67A43.24,43.24,0,0,0,931,646a15.8,15.8,0,0,0,1.45-4,3.62,3.62,0,0,0-3.36-4.81,16.17,16.17,0,0,0-4.29,0,44.32,44.32,0,0,0-9,2.17A123.65,123.65,0,0,0,898.36,647.25Z"/><circle cx="904.62" cy="657.87" r="12.29"/><path d="M873,611a63.7,63.7,0,0,1,16.4-10.62,39.18,39.18,0,0,1,9.59-3,18.29,18.29,0,0,1,5.34-.08,10.37,10.37,0,0,1,2.83.88,6.74,6.74,0,0,1,2.51,2.11,6.63,6.63,0,0,1,1.12,3.09,10,10,0,0,1-.14,3,17.76,17.76,0,0,1-1.9,5,39.53,39.53,0,0,1-6.06,8,63.55,63.55,0,0,1-15.6,11.76,123.62,123.62,0,0,0,13.43-13.67,44.15,44.15,0,0,0,5.13-7.71,16.12,16.12,0,0,0,1.45-4,4.36,4.36,0,0,0-.46-3.26,4.29,4.29,0,0,0-2.9-1.54,15.84,15.84,0,0,0-4.3,0,43.33,43.33,0,0,0-9,2.17A124.16,124.16,0,0,0,873,611Z"/><circle cx="879.24" cy="621.6" r="12.29"/><path d="M1060.76,772.38a63.44,63.44,0,0,1,16.39-10.61,39.32,39.32,0,0,1,9.59-3,17.62,17.62,0,0,1,5.34-.08,10.37,10.37,0,0,1,2.83.88,6.38,6.38,0,0,1,3.64,5.19,10.36,10.36,0,0,1-.15,3,17.88,17.88,0,0,1-1.9,5,39.53,39.53,0,0,1-6.06,8,63.55,63.55,0,0,1-15.6,11.76,123.6,123.6,0,0,0,13.43-13.67,44.15,44.15,0,0,0,5.13-7.71,16.26,16.26,0,0,0,1.45-4,4.36,4.36,0,0,0-.46-3.26,4.29,4.29,0,0,0-2.9-1.54,16.16,16.16,0,0,0-4.29,0,43.94,43.94,0,0,0-9,2.18A122.85,122.85,0,0,0,1060.76,772.38Z"/><circle cx="1067.01" cy="783" r="12.29"/><path d="M1035.57,736.38A63.44,63.44,0,0,1,1052,725.77a39.32,39.32,0,0,1,9.59-3,17.62,17.62,0,0,1,5.34-.08,10.37,10.37,0,0,1,2.83.88,6.38,6.38,0,0,1,3.64,5.19,10.36,10.36,0,0,1-.15,3,17.88,17.88,0,0,1-1.9,5,39.53,39.53,0,0,1-6.06,8,63.55,63.55,0,0,1-15.6,11.76,123.6,123.6,0,0,0,13.43-13.67,44.15,44.15,0,0,0,5.13-7.71,16.26,16.26,0,0,0,1.45-4,3.63,3.63,0,0,0-3.36-4.81,16.17,16.17,0,0,0-4.29,0,43.94,43.94,0,0,0-9,2.18A122.85,122.85,0,0,0,1035.57,736.38Z"/><circle cx="1041.82" cy="747" r="12.29"/><path d="M1010.38,700.38a63.44,63.44,0,0,1,16.39-10.61,39.32,39.32,0,0,1,9.59-3,17.62,17.62,0,0,1,5.34-.08,10,10,0,0,1,2.83.88,6.64,6.64,0,0,1,2.51,2.11,6.77,6.77,0,0,1,1.13,3.08,10.29,10.29,0,0,1-.15,3,17.82,17.82,0,0,1-1.9,5,39.81,39.81,0,0,1-6.06,8,63.26,63.26,0,0,1-15.6,11.75,122.66,122.66,0,0,0,13.43-13.66,44.15,44.15,0,0,0,5.13-7.71,16.26,16.26,0,0,0,1.45-4,3.63,3.63,0,0,0-3.36-4.81,16.17,16.17,0,0,0-4.29,0,44.57,44.57,0,0,0-9,2.17A124,124,0,0,0,1010.38,700.38Z"/><circle cx="1016.63" cy="711" r="12.29"/><path d="M985.19,664.38a63.44,63.44,0,0,1,16.39-10.61,38.89,38.89,0,0,1,9.59-3,17.62,17.62,0,0,1,5.34-.08,10,10,0,0,1,2.83.88,6.64,6.64,0,0,1,2.51,2.11,6.77,6.77,0,0,1,1.13,3.08,10.31,10.31,0,0,1-.15,3,17.82,17.82,0,0,1-1.9,5,39.81,39.81,0,0,1-6.06,8,63.26,63.26,0,0,1-15.6,11.75,123.52,123.52,0,0,0,13.43-13.66,44.15,44.15,0,0,0,5.13-7.71,16.4,16.4,0,0,0,1.45-4,3.63,3.63,0,0,0-3.36-4.81,16.17,16.17,0,0,0-4.29,0,44.57,44.57,0,0,0-9,2.17A124,124,0,0,0,985.19,664.38Z"/><circle cx="991.44" cy="675" r="12.29"/><path d="M960,628.38a63.73,63.73,0,0,1,16.39-10.62,39.3,39.3,0,0,1,9.59-3,17.62,17.62,0,0,1,5.34-.08,10,10,0,0,1,2.83.88,6.64,6.64,0,0,1,2.51,2.11,6.73,6.73,0,0,1,1.13,3.08,10.31,10.31,0,0,1-.15,3,17.64,17.64,0,0,1-1.9,5,39.26,39.26,0,0,1-6.06,8,63.3,63.3,0,0,1-15.6,11.76,122.74,122.74,0,0,0,13.43-13.67,43.78,43.78,0,0,0,5.13-7.71,16.19,16.19,0,0,0,1.45-4,4.34,4.34,0,0,0-.46-3.26,4.3,4.3,0,0,0-2.9-1.55,16.17,16.17,0,0,0-4.29,0,44.32,44.32,0,0,0-9,2.17A123.65,123.65,0,0,0,960,628.38Z"/><circle cx="966.25" cy="638.99" r="12.29"/><path d="M934.81,592.38a63.47,63.47,0,0,1,16.39-10.62,39.45,39.45,0,0,1,9.59-3,18,18,0,0,1,5.34-.07,10,10,0,0,1,2.83.88,6.38,6.38,0,0,1,3.64,5.19,10.31,10.31,0,0,1-.15,3,17.64,17.64,0,0,1-1.9,5,39.26,39.26,0,0,1-6.06,8,63.55,63.55,0,0,1-15.6,11.76,122.74,122.74,0,0,0,13.43-13.67,43.78,43.78,0,0,0,5.13-7.71,16.12,16.12,0,0,0,1.45-4,3.63,3.63,0,0,0-3.36-4.8,16.17,16.17,0,0,0-4.29,0,44.32,44.32,0,0,0-9,2.17A123.65,123.65,0,0,0,934.81,592.38Z"/><circle cx="941.06" cy="602.99" r="12.29"/><path d="M1125.71,758.26a63.64,63.64,0,0,1,16.39-10.62,39.4,39.4,0,0,1,9.6-3,18,18,0,0,1,5.34-.07,10,10,0,0,1,2.83.88,6.72,6.72,0,0,1,2.51,2.11,6.56,6.56,0,0,1,1.12,3.08,10,10,0,0,1-.14,3,17.64,17.64,0,0,1-1.9,5,38.94,38.94,0,0,1-6.07,8,63.5,63.5,0,0,1-15.59,11.76,124.51,124.51,0,0,0,13.43-13.67,43.72,43.72,0,0,0,5.12-7.71,15.77,15.77,0,0,0,1.46-4,3.63,3.63,0,0,0-3.36-4.8,16.25,16.25,0,0,0-4.3,0,43.82,43.82,0,0,0-9,2.17A123.65,123.65,0,0,0,1125.71,758.26Z"/><circle cx="1131.97" cy="768.87" r="12.29"/><path d="M1100.34,722a63.61,63.61,0,0,1,16.39-10.61,39.45,39.45,0,0,1,9.59-3,17.62,17.62,0,0,1,5.34-.08,10.27,10.27,0,0,1,2.83.88,6.32,6.32,0,0,1,3.64,5.2,10,10,0,0,1-.14,3,18.52,18.52,0,0,1-1.9,5,39.58,39.58,0,0,1-6.07,8,63.69,63.69,0,0,1-15.59,11.76,124.4,124.4,0,0,0,13.42-13.67,43.6,43.6,0,0,0,5.13-7.71,15.87,15.87,0,0,0,1.45-4,3.61,3.61,0,0,0-3.36-4.8,16.16,16.16,0,0,0-4.29,0,43.7,43.7,0,0,0-9,2.18A122.46,122.46,0,0,0,1100.34,722Z"/><circle cx="1106.6" cy="732.61" r="12.29"/><path d="M1075,685.73a63.73,63.73,0,0,1,16.39-10.62,39.17,39.17,0,0,1,9.59-3,17.62,17.62,0,0,1,5.34-.08,10,10,0,0,1,2.83.88,6.64,6.64,0,0,1,2.51,2.11,6.77,6.77,0,0,1,1.13,3.08,10.31,10.31,0,0,1-.15,3,17.82,17.82,0,0,1-1.9,5,39.81,39.81,0,0,1-6.06,8,63.26,63.26,0,0,1-15.6,11.75,124.41,124.41,0,0,0,13.43-13.66,44.53,44.53,0,0,0,5.13-7.71,16.4,16.4,0,0,0,1.45-4,4.35,4.35,0,0,0-.46-3.26,4.3,4.3,0,0,0-2.9-1.55,16.17,16.17,0,0,0-4.29,0,44.57,44.57,0,0,0-9,2.17A124,124,0,0,0,1075,685.73Z"/><circle cx="1081.22" cy="696.35" r="12.29"/><path d="M1049.59,649.47A63.64,63.64,0,0,1,1066,638.85a39.4,39.4,0,0,1,9.6-3,18,18,0,0,1,5.34-.07,9.73,9.73,0,0,1,2.83.88,6.79,6.79,0,0,1,2.51,2.1,6.63,6.63,0,0,1,1.12,3.09,10,10,0,0,1-.14,3,17.64,17.64,0,0,1-1.9,5,39.3,39.3,0,0,1-6.07,8,63.5,63.5,0,0,1-15.59,11.76,124.51,124.51,0,0,0,13.43-13.67,44.09,44.09,0,0,0,5.12-7.71,16.15,16.15,0,0,0,1.46-4,3.62,3.62,0,0,0-3.36-4.8,16.25,16.25,0,0,0-4.3,0,43.82,43.82,0,0,0-9,2.17A123.65,123.65,0,0,0,1049.59,649.47Z"/><circle cx="1055.85" cy="660.08" r="12.29"/><path d="M1024.22,613.2a63.44,63.44,0,0,1,16.39-10.61,39.45,39.45,0,0,1,9.59-3,17.62,17.62,0,0,1,5.34-.08,10.37,10.37,0,0,1,2.83.88,6.32,6.32,0,0,1,3.64,5.19,10,10,0,0,1-.15,3,18.17,18.17,0,0,1-1.89,5,39.58,39.58,0,0,1-6.07,8,63.69,63.69,0,0,1-15.59,11.76,124.4,124.4,0,0,0,13.42-13.67,43.6,43.6,0,0,0,5.13-7.71,15.87,15.87,0,0,0,1.45-4,3.61,3.61,0,0,0-3.36-4.8,16.16,16.16,0,0,0-4.29,0,43.7,43.7,0,0,0-9,2.18A122.46,122.46,0,0,0,1024.22,613.2Z"/><circle cx="1030.48" cy="623.82" r="12.29"/><path d="M998.84,576.94a64,64,0,0,1,16.4-10.62,39.17,39.17,0,0,1,9.59-3,17.62,17.62,0,0,1,5.34-.08,10,10,0,0,1,2.83.88,6.34,6.34,0,0,1,3.63,5.19,10,10,0,0,1-.14,3,17.64,17.64,0,0,1-1.9,5,38.94,38.94,0,0,1-6.07,8,63.07,63.07,0,0,1-15.59,11.76,123.62,123.62,0,0,0,13.43-13.67,43.78,43.78,0,0,0,5.13-7.71,16.19,16.19,0,0,0,1.45-4,4.34,4.34,0,0,0-.46-3.26,4.3,4.3,0,0,0-2.9-1.55,16.25,16.25,0,0,0-4.3,0,44.64,44.64,0,0,0-9,2.17A124.16,124.16,0,0,0,998.84,576.94Z"/><circle cx="1005.1" cy="587.56" r="12.29"/><path d="M973.47,540.68a63.64,63.64,0,0,1,16.39-10.62,39.4,39.4,0,0,1,9.6-3,18.22,18.22,0,0,1,5.33-.08,10.33,10.33,0,0,1,2.84.88,6.81,6.81,0,0,1,2.51,2.11,6.63,6.63,0,0,1,1.12,3.09,10,10,0,0,1-.14,3,18.39,18.39,0,0,1-1.9,5,39.58,39.58,0,0,1-6.07,8,63.69,63.69,0,0,1-15.59,11.76A124.51,124.51,0,0,0,1001,547.14a44.09,44.09,0,0,0,5.12-7.71,15.73,15.73,0,0,0,1.45-4,3.61,3.61,0,0,0-3.36-4.8,15.76,15.76,0,0,0-4.29,0,43.18,43.18,0,0,0-9,2.17A123.65,123.65,0,0,0,973.47,540.68Z"/><circle cx="979.73" cy="551.29" r="12.29"/><path d="M1161.24,702.07a63.61,63.61,0,0,1,16.39-10.61,39.4,39.4,0,0,1,9.6-3,17.62,17.62,0,0,1,5.34-.08,10.37,10.37,0,0,1,2.83.88,6.81,6.81,0,0,1,2.51,2.11,6.64,6.64,0,0,1,1.12,3.08,10,10,0,0,1-.14,3,17.88,17.88,0,0,1-1.9,5,39.58,39.58,0,0,1-6.07,8,63.5,63.5,0,0,1-15.59,11.76,125.4,125.4,0,0,0,13.43-13.67,44.09,44.09,0,0,0,5.12-7.71,16.3,16.3,0,0,0,1.46-4,4.41,4.41,0,0,0-.46-3.26A4.34,4.34,0,0,0,1192,692a16.23,16.23,0,0,0-4.3,0,43.85,43.85,0,0,0-9,2.18A122.46,122.46,0,0,0,1161.24,702.07Z"/><circle cx="1167.5" cy="712.69" r="12.29"/><path d="M1136.05,666.07a63.61,63.61,0,0,1,16.39-10.61,39.4,39.4,0,0,1,9.6-3,17.62,17.62,0,0,1,5.34-.08,10.37,10.37,0,0,1,2.83.88,6.81,6.81,0,0,1,2.51,2.11,6.64,6.64,0,0,1,1.12,3.08,10,10,0,0,1-.14,3,17.88,17.88,0,0,1-1.9,5,39.58,39.58,0,0,1-6.07,8,63.5,63.5,0,0,1-15.59,11.76,125.4,125.4,0,0,0,13.43-13.67,44.09,44.09,0,0,0,5.12-7.71,15.91,15.91,0,0,0,1.46-4,3.63,3.63,0,0,0-3.36-4.81,16.25,16.25,0,0,0-4.3,0,43.85,43.85,0,0,0-9,2.18A122.46,122.46,0,0,0,1136.05,666.07Z"/><circle cx="1142.31" cy="676.69" r="12.29"/><path d="M1110.86,630.07a63.61,63.61,0,0,1,16.39-10.61,39,39,0,0,1,9.6-3,17.62,17.62,0,0,1,5.34-.08,10,10,0,0,1,2.83.88,6.72,6.72,0,0,1,2.51,2.11,6.64,6.64,0,0,1,1.12,3.08,10,10,0,0,1-.14,3,17.82,17.82,0,0,1-1.9,5,39.86,39.86,0,0,1-6.07,8A63.21,63.21,0,0,1,1125,650.2a124.43,124.43,0,0,0,13.43-13.66,44.09,44.09,0,0,0,5.12-7.71,15.91,15.91,0,0,0,1.46-4,3.63,3.63,0,0,0-3.36-4.81,16.25,16.25,0,0,0-4.3,0,44.48,44.48,0,0,0-9,2.17A123.65,123.65,0,0,0,1110.86,630.07Z"/><circle cx="1117.12" cy="640.69" r="12.29"/><path d="M1085.67,594.07a63.61,63.61,0,0,1,16.39-10.61,39,39,0,0,1,9.6-3,17.62,17.62,0,0,1,5.34-.08,10,10,0,0,1,2.83.88,6.72,6.72,0,0,1,2.51,2.11,6.64,6.64,0,0,1,1.12,3.08,10,10,0,0,1-.14,3,17.82,17.82,0,0,1-1.9,5,39.86,39.86,0,0,1-6.07,8,63.46,63.46,0,0,1-15.59,11.75,125.32,125.32,0,0,0,13.43-13.66,44.47,44.47,0,0,0,5.12-7.71,16,16,0,0,0,1.46-4,3.63,3.63,0,0,0-3.36-4.81,16.25,16.25,0,0,0-4.3,0,44.48,44.48,0,0,0-9,2.17A123.65,123.65,0,0,0,1085.67,594.07Z"/><circle cx="1091.93" cy="604.69" r="12.29"/><path d="M1060.48,558.07a63.91,63.91,0,0,1,16.39-10.62,39.38,39.38,0,0,1,9.6-3,17.62,17.62,0,0,1,5.34-.08,10,10,0,0,1,2.83.88,6.72,6.72,0,0,1,2.51,2.11,6.6,6.6,0,0,1,1.12,3.08,10,10,0,0,1-.14,3,17.64,17.64,0,0,1-1.9,5,39.3,39.3,0,0,1-6.07,8,63.25,63.25,0,0,1-15.59,11.76A124.51,124.51,0,0,0,1088,564.53a43.72,43.72,0,0,0,5.12-7.71,15.84,15.84,0,0,0,1.46-4,4.39,4.39,0,0,0-.46-3.26,4.34,4.34,0,0,0-2.9-1.55,16.25,16.25,0,0,0-4.3,0,44.48,44.48,0,0,0-9,2.17A123.65,123.65,0,0,0,1060.48,558.07Z"/><circle cx="1066.74" cy="568.68" r="12.29"/><path d="M1035.29,522.07a63.64,63.64,0,0,1,16.39-10.62,39.4,39.4,0,0,1,9.6-3,18,18,0,0,1,5.34-.07,10,10,0,0,1,2.83.88,6.72,6.72,0,0,1,2.51,2.11,6.56,6.56,0,0,1,1.12,3.08,10,10,0,0,1-.14,3,17.64,17.64,0,0,1-1.9,5,39.3,39.3,0,0,1-6.07,8,63.5,63.5,0,0,1-15.59,11.76,124.51,124.51,0,0,0,13.43-13.67,43.72,43.72,0,0,0,5.12-7.71,15.77,15.77,0,0,0,1.46-4A3.63,3.63,0,0,0,1066,512a16.25,16.25,0,0,0-4.3,0,44.48,44.48,0,0,0-9,2.17A123.65,123.65,0,0,0,1035.29,522.07Z"/><circle cx="1041.55" cy="532.68" r="12.29"/><path d="M1226.2,688a63.64,63.64,0,0,1,16.39-10.62,39.45,39.45,0,0,1,9.59-3,18,18,0,0,1,5.34-.07,9.94,9.94,0,0,1,2.83.88,6.32,6.32,0,0,1,3.64,5.19,10.32,10.32,0,0,1-.14,3,18.26,18.26,0,0,1-1.9,5,39.3,39.3,0,0,1-6.07,8,63.69,63.69,0,0,1-15.59,11.76,123.52,123.52,0,0,0,13.42-13.67,43.24,43.24,0,0,0,5.13-7.71,15.73,15.73,0,0,0,1.45-4,3.62,3.62,0,0,0-3.36-4.8,16.17,16.17,0,0,0-4.29,0,43.67,43.67,0,0,0-9,2.17A123.65,123.65,0,0,0,1226.2,688Z"/><circle cx="1232.46" cy="698.56" r="12.29"/><path d="M1200.83,651.68a63.44,63.44,0,0,1,16.39-10.61,39.18,39.18,0,0,1,9.59-3,17.62,17.62,0,0,1,5.34-.08,10.37,10.37,0,0,1,2.83.88,6.38,6.38,0,0,1,3.64,5.19,10.36,10.36,0,0,1-.15,3,17.88,17.88,0,0,1-1.9,5,39.53,39.53,0,0,1-6.06,8,63.55,63.55,0,0,1-15.6,11.76,124.5,124.5,0,0,0,13.43-13.67,44.15,44.15,0,0,0,5.13-7.71,16.26,16.26,0,0,0,1.45-4,4.36,4.36,0,0,0-.46-3.26,4.29,4.29,0,0,0-2.9-1.54,16.16,16.16,0,0,0-4.29,0,43.94,43.94,0,0,0-9,2.18A122.35,122.35,0,0,0,1200.83,651.68Z"/><circle cx="1207.08" cy="662.3" r="12.29"/><path d="M1175.45,615.42a63.91,63.91,0,0,1,16.39-10.62,39.38,39.38,0,0,1,9.6-2.95,17.62,17.62,0,0,1,5.34-.08,10,10,0,0,1,2.83.88,6.72,6.72,0,0,1,2.51,2.11,6.64,6.64,0,0,1,1.12,3.08,10,10,0,0,1-.14,3,17.82,17.82,0,0,1-1.9,5,39.86,39.86,0,0,1-6.07,8,63.21,63.21,0,0,1-15.59,11.75A125.32,125.32,0,0,0,1203,621.89a44.47,44.47,0,0,0,5.12-7.71,16,16,0,0,0,1.45-4,3.62,3.62,0,0,0-3.35-4.81,16.25,16.25,0,0,0-4.3,0,44.48,44.48,0,0,0-9,2.17A123.65,123.65,0,0,0,1175.45,615.42Z"/><circle cx="1181.71" cy="626.04" r="12.29"/><path d="M1150.08,579.16a63.47,63.47,0,0,1,16.39-10.62,39.45,39.45,0,0,1,9.59-3,18,18,0,0,1,5.34-.07,9.73,9.73,0,0,1,2.83.88,6.29,6.29,0,0,1,3.64,5.19,10,10,0,0,1-.15,3,17.93,17.93,0,0,1-1.89,5,39.3,39.3,0,0,1-6.07,8,63.69,63.69,0,0,1-15.59,11.76,123.52,123.52,0,0,0,13.42-13.67,43.6,43.6,0,0,0,5.13-7.71,15.73,15.73,0,0,0,1.45-4,3.61,3.61,0,0,0-3.36-4.8,16.17,16.17,0,0,0-4.29,0,43.67,43.67,0,0,0-9,2.17A123.65,123.65,0,0,0,1150.08,579.16Z"/><circle cx="1156.34" cy="589.77" r="12.29"/><path d="M1124.7,542.89a63.66,63.66,0,0,1,16.4-10.61,39.18,39.18,0,0,1,9.59-3,17.62,17.62,0,0,1,5.34-.08,10.37,10.37,0,0,1,2.83.88,6.81,6.81,0,0,1,2.51,2.11,6.64,6.64,0,0,1,1.12,3.08,10,10,0,0,1-.14,3,17.88,17.88,0,0,1-1.9,5,39.21,39.21,0,0,1-6.07,8A63.31,63.31,0,0,1,1138.79,563a124.5,124.5,0,0,0,13.43-13.67,44.15,44.15,0,0,0,5.13-7.71,16.26,16.26,0,0,0,1.45-4,4.36,4.36,0,0,0-.46-3.26,4.31,4.31,0,0,0-2.9-1.54,15.82,15.82,0,0,0-4.3,0,44,44,0,0,0-9,2.18A123,123,0,0,0,1124.7,542.89Z"/><circle cx="1130.96" cy="553.51" r="12.29"/><path d="M1099.33,506.63A63.91,63.91,0,0,1,1115.72,496a39.44,39.44,0,0,1,9.59-2.95,17.63,17.63,0,0,1,5.34-.08,10,10,0,0,1,2.84.88A6.72,6.72,0,0,1,1136,496a6.6,6.6,0,0,1,1.12,3.08,10,10,0,0,1-.14,3,18.26,18.26,0,0,1-1.9,5,39.3,39.3,0,0,1-6.07,8,63.44,63.44,0,0,1-15.59,11.76,124.51,124.51,0,0,0,13.43-13.67,43.72,43.72,0,0,0,5.12-7.71,15.8,15.8,0,0,0,1.45-4,3.62,3.62,0,0,0-3.36-4.81,16.17,16.17,0,0,0-4.29,0,44.32,44.32,0,0,0-9,2.17A123.65,123.65,0,0,0,1099.33,506.63Z"/><circle cx="1105.59" cy="517.24" r="12.29"/><path d="M1074,470.37a63.47,63.47,0,0,1,16.39-10.62,39.45,39.45,0,0,1,9.59-3,18.29,18.29,0,0,1,5.34-.08,10.37,10.37,0,0,1,2.83.88,6.32,6.32,0,0,1,3.64,5.2,10.31,10.31,0,0,1-.15,3,17.76,17.76,0,0,1-1.9,5,39.17,39.17,0,0,1-6.06,8A63.55,63.55,0,0,1,1088,490.5a122.74,122.74,0,0,0,13.43-13.67,44.15,44.15,0,0,0,5.13-7.71,15.73,15.73,0,0,0,1.45-4,4.41,4.41,0,0,0-.45-3.26,4.34,4.34,0,0,0-2.91-1.54,15.76,15.76,0,0,0-4.29,0,43,43,0,0,0-9,2.17A123.65,123.65,0,0,0,1074,470.37Z"/><circle cx="1080.22" cy="480.98" r="12.29"/><path d="M1261.73,631.76a63.44,63.44,0,0,1,16.39-10.61,39.45,39.45,0,0,1,9.59-3,17.62,17.62,0,0,1,5.34-.08,10.37,10.37,0,0,1,2.83.88,6.32,6.32,0,0,1,3.64,5.19,10,10,0,0,1-.15,3,18.17,18.17,0,0,1-1.89,5,39.58,39.58,0,0,1-6.07,8,63.69,63.69,0,0,1-15.59,11.76,124.4,124.4,0,0,0,13.42-13.67,43.6,43.6,0,0,0,5.13-7.71,15.87,15.87,0,0,0,1.45-4,3.61,3.61,0,0,0-3.36-4.8,16.16,16.16,0,0,0-4.29,0,43.7,43.7,0,0,0-9,2.18A122.46,122.46,0,0,0,1261.73,631.76Z"/><circle cx="1267.99" cy="642.38" r="12.29"/><path d="M1236.54,595.76a63.61,63.61,0,0,1,16.39-10.61,39.45,39.45,0,0,1,9.59-3,17.62,17.62,0,0,1,5.34-.08,10.37,10.37,0,0,1,2.83.88,6.32,6.32,0,0,1,3.64,5.19,10,10,0,0,1-.15,3,18.17,18.17,0,0,1-1.89,5,39.58,39.58,0,0,1-6.07,8,63.69,63.69,0,0,1-15.59,11.76,124.4,124.4,0,0,0,13.42-13.67,43.6,43.6,0,0,0,5.13-7.71,15.87,15.87,0,0,0,1.45-4,3.62,3.62,0,0,0-3.36-4.81,16.17,16.17,0,0,0-4.29,0,43.7,43.7,0,0,0-9,2.18A122.46,122.46,0,0,0,1236.54,595.76Z"/><circle cx="1242.8" cy="606.38" r="12.29"/><path d="M1211.35,559.76a63.61,63.61,0,0,1,16.39-10.61,39,39,0,0,1,9.59-3,17.62,17.62,0,0,1,5.34-.08,10,10,0,0,1,2.83.88,6.67,6.67,0,0,1,2.52,2.11,6.75,6.75,0,0,1,1.12,3.08,10,10,0,0,1-.15,3,18.12,18.12,0,0,1-1.89,5,39.86,39.86,0,0,1-6.07,8,63.4,63.4,0,0,1-15.59,11.75,123.44,123.44,0,0,0,13.42-13.66,43.6,43.6,0,0,0,5.13-7.71,15.87,15.87,0,0,0,1.45-4,3.62,3.62,0,0,0-3.36-4.81,16.17,16.17,0,0,0-4.29,0,44.32,44.32,0,0,0-9,2.17A123.65,123.65,0,0,0,1211.35,559.76Z"/><circle cx="1217.61" cy="570.38" r="12.29"/><path d="M1186.16,523.76a63.61,63.61,0,0,1,16.39-10.61,39,39,0,0,1,9.59-3,17.62,17.62,0,0,1,5.34-.08,10,10,0,0,1,2.83.88,6.67,6.67,0,0,1,2.52,2.11,6.75,6.75,0,0,1,1.12,3.08,10,10,0,0,1-.15,3,18.12,18.12,0,0,1-1.89,5,39.86,39.86,0,0,1-6.07,8,63.65,63.65,0,0,1-15.59,11.75,124.31,124.31,0,0,0,13.42-13.66,44,44,0,0,0,5.13-7.71,16,16,0,0,0,1.45-4,3.62,3.62,0,0,0-3.36-4.81,16.17,16.17,0,0,0-4.29,0,44.32,44.32,0,0,0-9,2.17A123.65,123.65,0,0,0,1186.16,523.76Z"/><circle cx="1192.42" cy="534.38" r="12.29"/><path d="M1161,487.76a63.91,63.91,0,0,1,16.39-10.62,39.44,39.44,0,0,1,9.59-2.95,17.62,17.62,0,0,1,5.34-.08,10,10,0,0,1,2.83.88,6.32,6.32,0,0,1,3.64,5.19,10,10,0,0,1-.15,3,17.93,17.93,0,0,1-1.89,5,39.3,39.3,0,0,1-6.07,8,63.44,63.44,0,0,1-15.59,11.76,123.52,123.52,0,0,0,13.42-13.67,43.24,43.24,0,0,0,5.13-7.71,15.8,15.8,0,0,0,1.45-4,3.62,3.62,0,0,0-3.36-4.81,16.17,16.17,0,0,0-4.29,0,44.32,44.32,0,0,0-9,2.17A123.65,123.65,0,0,0,1161,487.76Z"/><circle cx="1167.23" cy="498.37" r="12.29"/><path d="M1135.78,451.76a63.64,63.64,0,0,1,16.39-10.62,39.45,39.45,0,0,1,9.59-3,18,18,0,0,1,5.34-.07,10,10,0,0,1,2.83.88,6.32,6.32,0,0,1,3.64,5.19,10,10,0,0,1-.15,3,17.93,17.93,0,0,1-1.89,5,39.3,39.3,0,0,1-6.07,8,63.69,63.69,0,0,1-15.59,11.76,123.52,123.52,0,0,0,13.42-13.67,43.24,43.24,0,0,0,5.13-7.71,15.73,15.73,0,0,0,1.45-4,3.62,3.62,0,0,0-3.36-4.8,16.17,16.17,0,0,0-4.29,0,44.32,44.32,0,0,0-9,2.17A123.65,123.65,0,0,0,1135.78,451.76Z"/><circle cx="1142.04" cy="462.37" r="12.29"/><path d="M1326.69,617.64A63.47,63.47,0,0,1,1343.08,607a39.18,39.18,0,0,1,9.59-3A18,18,0,0,1,1358,604a10,10,0,0,1,2.83.88,6.38,6.38,0,0,1,3.64,5.19,10.31,10.31,0,0,1-.15,3,17.64,17.64,0,0,1-1.9,5,39.26,39.26,0,0,1-6.06,8,63.55,63.55,0,0,1-15.6,11.76,123.62,123.62,0,0,0,13.43-13.67,43.78,43.78,0,0,0,5.13-7.71,16.12,16.12,0,0,0,1.45-4,3.63,3.63,0,0,0-3.36-4.8,16.24,16.24,0,0,0-4.3,0,44,44,0,0,0-9,2.17A123.53,123.53,0,0,0,1326.69,617.64Z"/><circle cx="1332.94" cy="628.25" r="12.29"/><path d="M1301.31,581.37a63.61,63.61,0,0,1,16.39-10.61,39.4,39.4,0,0,1,9.6-3,17.62,17.62,0,0,1,5.34-.08,10.37,10.37,0,0,1,2.83.88,6.81,6.81,0,0,1,2.51,2.11,6.64,6.64,0,0,1,1.12,3.08,10,10,0,0,1-.14,3,18.19,18.19,0,0,1-1.9,5,39.58,39.58,0,0,1-6.07,8,63.5,63.5,0,0,1-15.59,11.76,125.4,125.4,0,0,0,13.43-13.67,44.09,44.09,0,0,0,5.12-7.71,15.87,15.87,0,0,0,1.45-4,3.61,3.61,0,0,0-3.35-4.8,16.24,16.24,0,0,0-4.3,0,43.85,43.85,0,0,0-9,2.18A122.46,122.46,0,0,0,1301.31,581.37Z"/><circle cx="1307.57" cy="591.99" r="12.29"/><path d="M1275.94,545.11a63.73,63.73,0,0,1,16.39-10.62,39.44,39.44,0,0,1,9.59-3,17.62,17.62,0,0,1,5.34-.08,10,10,0,0,1,2.83.88,6.67,6.67,0,0,1,2.52,2.11,6.75,6.75,0,0,1,1.12,3.08,10,10,0,0,1-.15,3,18.12,18.12,0,0,1-1.89,5,39.86,39.86,0,0,1-6.07,8A63.4,63.4,0,0,1,1290,565.24a124.31,124.31,0,0,0,13.42-13.66,44,44,0,0,0,5.13-7.71,16,16,0,0,0,1.45-4,3.62,3.62,0,0,0-3.36-4.81,16.17,16.17,0,0,0-4.29,0,44.32,44.32,0,0,0-9,2.17A123.65,123.65,0,0,0,1275.94,545.11Z"/><circle cx="1282.2" cy="555.73" r="12.29"/><path d="M1250.56,508.85A63.81,63.81,0,0,1,1267,498.23a39.4,39.4,0,0,1,9.6-3,18,18,0,0,1,5.34-.07,9.73,9.73,0,0,1,2.83.88,6.79,6.79,0,0,1,2.51,2.1,6.63,6.63,0,0,1,1.12,3.09,10,10,0,0,1-.14,3,17.64,17.64,0,0,1-1.9,5,38.94,38.94,0,0,1-6.07,8A63.31,63.31,0,0,1,1264.65,529a123.62,123.62,0,0,0,13.43-13.67,44.15,44.15,0,0,0,5.13-7.71,16.12,16.12,0,0,0,1.45-4,3.62,3.62,0,0,0-3.36-4.8,16.25,16.25,0,0,0-4.3,0,44,44,0,0,0-9,2.17A123.65,123.65,0,0,0,1250.56,508.85Z"/><circle cx="1256.82" cy="519.46" r="12.29"/><path d="M1225.19,472.58A63.61,63.61,0,0,1,1241.58,462a39.45,39.45,0,0,1,9.59-3,17.63,17.63,0,0,1,5.34-.08,10.33,10.33,0,0,1,2.84.88,6.81,6.81,0,0,1,2.51,2.11A6.64,6.64,0,0,1,1263,465a10,10,0,0,1-.14,3,18.52,18.52,0,0,1-1.9,5,39.58,39.58,0,0,1-6.07,8,63.69,63.69,0,0,1-15.59,11.76,125.4,125.4,0,0,0,13.43-13.67,44.09,44.09,0,0,0,5.12-7.71,15.87,15.87,0,0,0,1.45-4,3.61,3.61,0,0,0-3.36-4.8,15.75,15.75,0,0,0-4.29,0,43.7,43.7,0,0,0-9,2.18A122.46,122.46,0,0,0,1225.19,472.58Z"/><circle cx="1231.45" cy="483.2" r="12.29"/><path d="M1199.82,436.32a63.73,63.73,0,0,1,16.39-10.62,39.44,39.44,0,0,1,9.59-2.95,17.62,17.62,0,0,1,5.34-.08,10,10,0,0,1,2.83.88,6.64,6.64,0,0,1,2.51,2.11,6.73,6.73,0,0,1,1.13,3.08,10.31,10.31,0,0,1-.15,3,17.64,17.64,0,0,1-1.9,5,38.9,38.9,0,0,1-6.06,8,63.3,63.3,0,0,1-15.6,11.76,122.74,122.74,0,0,0,13.43-13.67,43.78,43.78,0,0,0,5.13-7.71,16.19,16.19,0,0,0,1.45-4,4.39,4.39,0,0,0-.45-3.26,4.34,4.34,0,0,0-2.91-1.55,16.17,16.17,0,0,0-4.29,0,44.32,44.32,0,0,0-9,2.17A123.65,123.65,0,0,0,1199.82,436.32Z"/><circle cx="1206.08" cy="446.93" r="12.29"/><path d="M1174.44,400.06a63.81,63.81,0,0,1,16.39-10.62,39.4,39.4,0,0,1,9.6-3,18.29,18.29,0,0,1,5.34-.08,10.37,10.37,0,0,1,2.83.88,6.81,6.81,0,0,1,2.51,2.11,6.63,6.63,0,0,1,1.12,3.09,10,10,0,0,1-.14,3,17.76,17.76,0,0,1-1.9,5,39.21,39.21,0,0,1-6.07,8,63.5,63.5,0,0,1-15.59,11.76A124.51,124.51,0,0,0,1202,406.52a43.54,43.54,0,0,0,5.12-7.71,15.77,15.77,0,0,0,1.46-4,3.62,3.62,0,0,0-3.36-4.8,15.84,15.84,0,0,0-4.3,0,43.33,43.33,0,0,0-9,2.17A123.65,123.65,0,0,0,1174.44,400.06Z"/><circle cx="1180.7" cy="410.67" r="12.29"/><path d="M219.9,864.35H377.06a0,0,0,0,1,0,0v574.71a76.62,76.62,0,0,1-76.62,76.62h-3.91a76.62,76.62,0,0,1-76.62-76.62V864.35a0,0,0,0,1,0,0Z" transform="translate(1102.4 263.23) rotate(55.02)"/><path d="M1271.36,817.65c-.19-2.26-1.19-4.26-3.12-5-4.87-2.08-11.14,2.3-11.18,6.83-.47,26.26,11,52.32,33.7,67,3,2,6.23-.86,8.8-2.89,1.44-1.22,2.39-3.23,1.27-4.64-12.19-15.42-24.55-31-26.82-51.63C1273.58,823.34,1272,820.14,1271.36,817.65Z" style="fill:#ffdf4c;stroke:#231f20;stroke-miterlimit:10;stroke-width:3.9815519336458034px"/><path d="M1097.18,824.52c-.19-2.25-1.19-4.26-3.12-5-4.88-2.07-11.14,2.31-11.19,6.84-.46,26.26,11,52.32,33.71,67,3,2,6.23-.86,8.8-2.89,1.44-1.22,2.39-3.22,1.27-4.64-12.2-15.42-24.56-31-26.82-51.63C1099.39,830.22,1097.86,827,1097.18,824.52Z" style="fill:#ffdf4c;stroke:#231f20;stroke-miterlimit:10;stroke-width:3.9815519336458034px"/><path d="M1212.62,783.12c-.19-2.25-1.19-4.26-3.12-5-4.87-2.08-11.14,2.3-11.18,6.83-.47,26.26,11,52.32,33.7,67,3,2,6.23-.85,8.8-2.89,1.44-1.21,2.39-3.22,1.27-4.63-12.19-15.42-24.55-31-26.82-51.64C1214.84,788.82,1213.3,785.62,1212.62,783.12Z" style="fill:#ffdf4c;stroke:#231f20;stroke-miterlimit:10;stroke-width:3.9815519336458034px"/><path d="M1004,879.55c-.19-2.26-1.19-4.26-3.12-5-4.88-2.07-11.14,2.31-11.19,6.83-.46,26.26,11,52.33,33.71,67,3,2,6.23-.86,8.8-2.89,1.44-1.22,2.39-3.22,1.27-4.64-12.19-15.42-24.55-31-26.82-51.63C1006.23,885.24,1004.7,882.05,1004,879.55Z" style="fill:#ffdf4c;stroke:#231f20;stroke-miterlimit:10;stroke-width:3.9815519336458034px"/><path d="M1016.52,987.83c-.19-2.25-1.19-4.26-3.12-5-4.87-2.08-11.14,2.3-11.18,6.83-.47,26.26,11,52.32,33.7,67,3,2,6.23-.85,8.8-2.89,1.44-1.21,2.39-3.22,1.27-4.63-12.19-15.42-24.55-31-26.82-51.64C1018.74,993.53,1017.2,990.33,1016.52,987.83Z" style="fill:#ffdf4c;stroke:#231f20;stroke-miterlimit:10;stroke-width:3.9815519336458034px"/><path d="M1109.56,1012.51c-.19-2.26-1.19-4.26-3.12-5-4.87-2.07-11.14,2.3-11.18,6.83-.47,26.26,11,52.32,33.7,67,3,2,6.23-.86,8.8-2.89,1.44-1.22,2.39-3.22,1.27-4.64-12.19-15.42-24.55-31-26.82-51.63C1111.78,1018.2,1110.25,1015,1109.56,1012.51Z" style="fill:#ffdf4c;stroke:#231f20;stroke-miterlimit:10;stroke-width:3.9815519336458034px"/><path d="M1069.49,1657.05c-2.26-.9-4.66-.9-6.34.57-4.31,3.68-3.11,11.79,1.2,14,25,13,55.43,14.49,80.39-.24,3.36-2,2.16-6.38,1.44-9.82-.48-2-2-3.83-3.84-3.44-20.62,4.32-41.5,8.7-62.33,1C1076,1657.65,1072.21,1657.59,1069.49,1657.05Z" style="fill:#ffdf4c;stroke:#231f20;stroke-miterlimit:10;stroke-width:4.266031901007947px"/><path d="M1158.09,1657.05c-2.25-.9-4.65-.9-6.33.57-4.32,3.68-3.12,11.79,1.2,14,25,13,55.43,14.49,80.38-.24,3.36-2,2.16-6.38,1.44-9.82-.48-2-1.94-3.83-3.84-3.44-20.61,4.32-41.49,8.7-62.33,1C1164.61,1657.65,1160.81,1657.59,1158.09,1657.05Z" style="fill:#ffdf4c;stroke:#231f20;stroke-miterlimit:10;stroke-width:4.266031901007947px"/><path d="M1135.17,1675.8c-2-1.33-4.38-1.82-6.32-.72-5,2.73-5.45,10.9-1.67,13.94,21.78,17.82,51.32,25.46,78.75,16.11,3.69-1.24,3.41-5.81,3.41-9.32-.07-2-1.13-4.15-3.06-4.15-21.07,0-42.4.08-61.24-11.68C1141.43,1677.72,1137.72,1676.89,1135.17,1675.8Z" style="fill:#ffdf4c;stroke:#231f20;stroke-miterlimit:10;stroke-width:4.266031901007947px"/><path d="M1086.69,1657.5c-2.4-.36-4.74.18-6,2-3.37,4.57-.37,12.18,4.34,13.35,27.26,7,57.27,1.53,78.23-18.48,2.83-2.67.66-6.7-.82-9.88-.92-1.81-2.77-3.3-4.52-2.48-19.1,8.88-38.44,17.88-60.48,15.13C1093.17,1656.61,1089.46,1657.41,1086.69,1657.5Z" style="fill:#ffdf4c;stroke:#231f20;stroke-miterlimit:10;stroke-width:4.266031901007947px"/><path d="M957,1662.15c-2.26-.9-4.66-.9-6.34.58-4.32,3.68-3.12,11.78,1.2,14,25,13,55.43,14.48,80.39-.25,3.36-2,2.16-6.38,1.44-9.82-.48-2-2-3.83-3.84-3.43-20.62,4.31-41.5,8.69-62.33,1C963.53,1662.75,959.73,1662.69,957,1662.15Z" style="fill:#ffdf4c;stroke:#231f20;stroke-miterlimit:10;stroke-width:4.266031901007947px"/><path d="M934.59,1682.51c-2.26-.89-4.66-.89-6.34.58-4.32,3.68-3.12,11.78,1.2,14,25,13,55.43,14.48,80.39-.25,3.35-2,2.15-6.38,1.43-9.81-.48-2-1.94-3.84-3.83-3.44-20.62,4.31-41.5,8.69-62.34,1C941.1,1683.11,937.31,1683.05,934.59,1682.51Z" style="fill:#ffdf4c;stroke:#231f20;stroke-miterlimit:10;stroke-width:4.266031901007947px"/><path d="M995,1688.64c-2.26-.89-4.66-.89-6.34.58-4.31,3.68-3.11,11.78,1.2,14,25,13,55.43,14.48,80.39-.25,3.36-2,2.16-6.38,1.44-9.81-.48-2-2-3.84-3.84-3.44-20.62,4.31-41.5,8.69-62.33,1C1001.5,1689.24,997.7,1689.18,995,1688.64Z" style="fill:#ffdf4c;stroke:#231f20;stroke-miterlimit:10;stroke-width:4.266031901007947px"/><path d="M1023.46,1669.78c-2.25-.9-4.65-.9-6.33.58-4.32,3.68-3.12,11.78,1.2,14,25,13,55.43,14.48,80.38-.25,3.36-2,2.16-6.38,1.44-9.82-.48-2-1.94-3.83-3.84-3.43-20.61,4.31-41.49,8.69-62.33,1C1030,1670.38,1026.18,1670.32,1023.46,1669.78Z" style="fill:#ffdf4c;stroke:#231f20;stroke-miterlimit:10;stroke-width:4.266031901007947px"/><path d="M1078.69,1688.64c-2.25-.89-4.65-.89-6.33.58-4.32,3.68-3.12,11.78,1.2,14,25,13,55.43,14.48,80.38-.25,3.36-2,2.16-6.38,1.44-9.81-.48-2-1.94-3.84-3.84-3.44-20.61,4.31-41.49,8.69-62.33,1C1085.21,1689.24,1081.41,1689.18,1078.69,1688.64Z" style="fill:#ffdf4c;stroke:#231f20;stroke-miterlimit:10;stroke-width:4.266031901007947px"/><path d="M1208.08,1635.84c-2.25-.89-4.65-.89-6.33.58-4.32,3.68-3.12,11.78,1.2,14,25,13,55.43,14.48,80.38-.25,3.36-2,2.16-6.38,1.44-9.81-.48-2-1.94-3.84-3.84-3.44-20.61,4.31-41.49,8.69-62.33,1C1214.6,1636.44,1210.8,1636.38,1208.08,1635.84Z" style="fill:#ffdf4c;stroke:#231f20;stroke-miterlimit:10;stroke-width:4.266031901007947px"/><path d="M1296.69,1635.84c-2.26-.89-4.66-.89-6.34.58-4.31,3.68-3.11,11.78,1.2,14,25,13,55.43,14.48,80.39-.25,3.36-2,2.16-6.38,1.44-9.81-.48-2-2-3.84-3.84-3.44-20.62,4.31-41.5,8.69-62.33,1C1303.21,1636.44,1299.41,1636.38,1296.69,1635.84Z" style="fill:#ffdf4c;stroke:#231f20;stroke-miterlimit:10;stroke-width:4.266031901007947px"/><path d="M1273.76,1654.6c-2-1.34-4.37-1.83-6.32-.72-5,2.72-5.45,10.9-1.67,13.94,21.79,17.81,51.33,25.45,78.76,16.11,3.68-1.24,3.41-5.81,3.4-9.33-.07-2-1.12-4.14-3.06-4.14-21.06,0-42.39.07-61.23-11.69C1280,1656.51,1276.31,1655.68,1273.76,1654.6Z" style="fill:#ffdf4c;stroke:#231f20;stroke-miterlimit:10;stroke-width:4.266031901007947px"/><path d="M1225.28,1636.3c-2.4-.37-4.73.18-6,2-3.37,4.57-.36,12.19,4.35,13.36,27.25,7,57.27,1.53,78.23-18.48,2.82-2.67.65-6.71-.83-9.89-.91-1.8-2.76-3.29-4.52-2.47-19.1,8.87-38.44,17.88-60.47,15.12C1231.77,1635.4,1228.05,1636.21,1225.28,1636.3Z" style="fill:#ffdf4c;stroke:#231f20;stroke-miterlimit:10;stroke-width:4.266031901007947px"/><path d="M1095.6,1641c-2.25-.9-4.65-.9-6.33.57-4.32,3.68-3.12,11.78,1.2,14,25,13,55.43,14.49,80.38-.24,3.36-2,2.16-6.38,1.44-9.82-.48-2-1.94-3.83-3.84-3.44-20.61,4.31-41.49,8.7-62.33,1C1102.12,1641.55,1098.32,1641.49,1095.6,1641Z" style="fill:#ffdf4c;stroke:#231f20;stroke-miterlimit:10;stroke-width:4.266031901007947px"/><path d="M1073.18,1661.31c-2.25-.9-4.65-.9-6.33.57-4.32,3.69-3.12,11.79,1.2,14,25,13,55.43,14.48,80.38-.25,3.36-2,2.16-6.38,1.44-9.82-.48-2-1.94-3.83-3.84-3.44-20.62,4.32-41.49,8.7-62.33,1C1079.7,1661.91,1075.9,1661.85,1073.18,1661.31Z" style="fill:#ffdf4c;stroke:#231f20;stroke-miterlimit:10;stroke-width:4.266031901007947px"/><path d="M1133.57,1667.44c-2.25-.9-4.65-.9-6.33.57-4.32,3.69-3.12,11.79,1.2,14,25,13,55.43,14.48,80.38-.25,3.36-2,2.16-6.38,1.44-9.82-.48-2-1.94-3.83-3.84-3.43-20.61,4.31-41.49,8.69-62.33,1C1140.09,1668,1136.29,1668,1133.57,1667.44Z" style="fill:#ffdf4c;stroke:#231f20;stroke-miterlimit:10;stroke-width:4.266031901007947px"/><path d="M1162.06,1648.57c-2.25-.89-4.65-.89-6.33.58-4.32,3.68-3.12,11.78,1.2,14,25,13,55.42,14.49,80.38-.24,3.36-2,2.16-6.38,1.44-9.82-.48-2-1.94-3.83-3.84-3.44-20.62,4.31-41.49,8.7-62.33,1C1168.58,1649.18,1164.78,1649.12,1162.06,1648.57Z" style="fill:#ffdf4c;stroke:#231f20;stroke-miterlimit:10;stroke-width:4.266031901007947px"/><path d="M1217.29,1667.44c-2.26-.9-4.65-.9-6.33.57-4.32,3.69-3.12,11.79,1.2,14,24.95,13,55.42,14.48,80.38-.25,3.36-2,2.16-6.38,1.44-9.82-.48-2-2-3.83-3.84-3.43-20.62,4.31-41.5,8.69-62.33,1C1223.81,1668,1220,1668,1217.29,1667.44Z" style="fill:#ffdf4c;stroke:#231f20;stroke-miterlimit:10;stroke-width:4.266031901007947px"/><path d="M1336.85,1667.44c-2.25-.9-4.65-.9-6.33.57-4.32,3.69-3.12,11.79,1.2,14,25,13,55.43,14.48,80.38-.25,3.36-2,2.16-6.38,1.44-9.82-.48-2-1.94-3.83-3.84-3.43-20.61,4.31-41.49,8.69-62.33,1C1343.37,1668,1339.57,1668,1336.85,1667.44Z" style="fill:#ffdf4c;stroke:#231f20;stroke-miterlimit:10;stroke-width:4.266031901007947px"/><path d="M1425.46,1667.44c-2.25-.9-4.65-.9-6.33.57-4.32,3.69-3.12,11.79,1.2,14,25,13,55.42,14.48,80.38-.25,3.36-2,2.16-6.38,1.44-9.82-.48-2-2-3.83-3.84-3.43-20.62,4.31-41.5,8.69-62.33,1C1432,1668,1428.18,1668,1425.46,1667.44Z" style="fill:#ffdf4c;stroke:#231f20;stroke-miterlimit:10;stroke-width:4.266031901007947px"/><path d="M1402.53,1686.19c-2-1.33-4.37-1.82-6.31-.72-5,2.73-5.46,10.9-1.68,13.94,21.79,17.82,51.33,25.46,78.76,16.11,3.69-1.24,3.41-5.81,3.4-9.32-.07-2-1.12-4.15-3.06-4.14-21.06,0-42.39.07-61.23-11.69C1408.79,1688.11,1405.09,1687.28,1402.53,1686.19Z" style="fill:#ffdf4c;stroke:#231f20;stroke-miterlimit:10;stroke-width:4.266031901007947px"/><path d="M1354.05,1667.89c-2.4-.36-4.73.19-6,2-3.38,4.57-.37,12.18,4.34,13.36,27.25,7,57.27,1.52,78.23-18.48,2.83-2.68.65-6.71-.83-9.89-.91-1.81-2.76-3.3-4.52-2.48-19.09,8.88-38.43,17.88-60.47,15.13C1360.54,1667,1356.82,1667.8,1354.05,1667.89Z" style="fill:#ffdf4c;stroke:#231f20;stroke-miterlimit:10;stroke-width:4.266031901007947px"/><path d="M1224.37,1672.54c-2.25-.9-4.65-.9-6.33.58-4.32,3.68-3.12,11.78,1.2,14,25,13,55.43,14.48,80.38-.25,3.36-2,2.16-6.38,1.44-9.82-.48-2-1.94-3.83-3.84-3.43-20.61,4.31-41.49,8.69-62.33,1C1230.89,1673.14,1227.09,1673.08,1224.37,1672.54Z" style="fill:#ffdf4c;stroke:#231f20;stroke-miterlimit:10;stroke-width:4.266031901007947px"/><path d="M1202,1692.9c-2.25-.89-4.65-.89-6.33.58-4.32,3.68-3.12,11.78,1.2,14,25,13,55.43,14.48,80.38-.24,3.36-2,2.16-6.39,1.44-9.82-.48-2-1.94-3.84-3.84-3.44-20.61,4.31-41.49,8.69-62.33,1C1208.47,1693.5,1204.67,1693.45,1202,1692.9Z" style="fill:#ffdf4c;stroke:#231f20;stroke-miterlimit:10;stroke-width:4.266031901007947px"/><path d="M1262.34,1699c-2.25-.89-4.65-.89-6.33.58-4.32,3.68-3.12,11.78,1.2,14,25,13,55.43,14.48,80.38-.24,3.36-2,2.16-6.39,1.44-9.82-.48-2-1.94-3.84-3.84-3.44-20.61,4.31-41.49,8.7-62.33,1C1268.86,1699.63,1265.06,1699.58,1262.34,1699Z" style="fill:#ffdf4c;stroke:#231f20;stroke-miterlimit:10;stroke-width:4.266031901007947px"/><path d="M1290.83,1680.17c-2.25-.9-4.65-.9-6.33.58-4.32,3.68-3.12,11.78,1.2,14,25,13,55.43,14.48,80.38-.25,3.36-2,2.16-6.38,1.44-9.82-.48-2-1.94-3.83-3.84-3.43-20.61,4.31-41.49,8.69-62.33,1C1297.35,1680.77,1293.55,1680.71,1290.83,1680.17Z" style="fill:#ffdf4c;stroke:#231f20;stroke-miterlimit:10;stroke-width:4.266031901007947px"/><path d="M1346.06,1699c-2.25-.89-4.65-.89-6.33.58-4.32,3.68-3.12,11.78,1.2,14,25,13,55.42,14.48,80.38-.24,3.36-2,2.16-6.39,1.44-9.82-.48-2-1.94-3.84-3.84-3.44-20.62,4.31-41.49,8.7-62.33,1C1352.58,1699.63,1348.78,1699.58,1346.06,1699Z" style="fill:#ffdf4c;stroke:#231f20;stroke-miterlimit:10;stroke-width:4.266031901007947px"/><path d="M1173.07,1692.9c-2.26-.89-4.66-.89-6.34.58-4.32,3.68-3.12,11.78,1.2,14,25,13,55.43,14.48,80.39-.24,3.35-2,2.16-6.39,1.44-9.82-.48-2-2-3.84-3.84-3.44-20.62,4.31-41.5,8.69-62.33,1C1179.59,1693.5,1175.79,1693.45,1173.07,1692.9Z" style="fill:#ffdf4c;stroke:#231f20;stroke-miterlimit:10;stroke-width:4.266031901007947px"/><path d="M1261.67,1692.9c-2.25-.89-4.65-.89-6.33.58-4.32,3.68-3.12,11.78,1.2,14,25,13,55.43,14.48,80.38-.24,3.36-2,2.16-6.39,1.44-9.82-.48-2-1.94-3.84-3.84-3.44-20.62,4.31-41.49,8.69-62.33,1C1268.19,1693.5,1264.39,1693.45,1261.67,1692.9Z" style="fill:#ffdf4c;stroke:#231f20;stroke-miterlimit:10;stroke-width:4.266031901007947px"/><path d="M1238.74,1711.66c-2-1.34-4.37-1.82-6.31-.72-5,2.72-5.45,10.9-1.67,13.94,21.78,17.81,51.32,25.45,78.75,16.11,3.69-1.24,3.41-5.81,3.41-9.32-.08-2-1.13-4.15-3.06-4.15-21.07,0-42.4.07-61.24-11.69C1245,1713.57,1241.3,1712.74,1238.74,1711.66Z" style="fill:#ffdf4c;stroke:#231f20;stroke-miterlimit:10;stroke-width:4.266031901007947px"/><path d="M1190.26,1693.36c-2.39-.36-4.73.18-6,2-3.37,4.56-.37,12.18,4.34,13.35,27.26,7,57.27,1.53,78.23-18.48,2.83-2.67.66-6.7-.82-9.89-.92-1.8-2.77-3.29-4.52-2.47-19.1,8.87-38.44,17.88-60.48,15.12C1196.75,1692.46,1193,1693.27,1190.26,1693.36Z" style="fill:#ffdf4c;stroke:#231f20;stroke-miterlimit:10;stroke-width:4.266031901007947px"/><path d="M1060.58,1698c-2.25-.9-4.65-.9-6.33.57-4.32,3.68-3.12,11.79,1.2,14,25,13,55.43,14.49,80.38-.24,3.36-2,2.16-6.38,1.44-9.82-.48-2-1.94-3.83-3.84-3.44-20.61,4.32-41.49,8.7-62.33,1C1067.1,1698.61,1063.3,1698.55,1060.58,1698Z" style="fill:#ffdf4c;stroke:#231f20;stroke-miterlimit:10;stroke-width:4.266031901007947px"/><path d="M1038.16,1718.37c-2.25-.9-4.65-.9-6.33.58-4.32,3.68-3.12,11.78,1.2,14,25,13,55.43,14.48,80.38-.25,3.36-2,2.16-6.38,1.44-9.82-.48-2-1.94-3.83-3.84-3.43-20.61,4.31-41.49,8.69-62.33,1C1044.68,1719,1040.88,1718.91,1038.16,1718.37Z" style="fill:#ffdf4c;stroke:#231f20;stroke-miterlimit:10;stroke-width:4.266031901007947px"/><path d="M1098.56,1724.5c-2.26-.9-4.66-.9-6.34.58-4.32,3.68-3.12,11.78,1.2,14,25,13,55.43,14.48,80.39-.25,3.36-2,2.16-6.38,1.44-9.82-.48-2-2-3.83-3.84-3.43-20.62,4.31-41.5,8.69-62.33,1C1105.08,1725.1,1101.28,1725,1098.56,1724.5Z" style="fill:#ffdf4c;stroke:#231f20;stroke-miterlimit:10;stroke-width:4.266031901007947px"/><path d="M1127,1705.64c-2.25-.9-4.65-.9-6.33.57-4.32,3.68-3.12,11.79,1.2,14,24.95,13,55.43,14.49,80.38-.24,3.36-2,2.16-6.38,1.44-9.82-.48-2-1.94-3.83-3.84-3.44-20.61,4.32-41.49,8.7-62.33,1C1133.56,1706.24,1129.76,1706.18,1127,1705.64Z" style="fill:#ffdf4c;stroke:#231f20;stroke-miterlimit:10;stroke-width:4.266031901007947px"/><path d="M1182.27,1724.5c-2.25-.9-4.65-.9-6.33.58-4.32,3.68-3.12,11.78,1.2,14,24.95,13,55.43,14.48,80.38-.25,3.36-2,2.16-6.38,1.44-9.82-.48-2-1.94-3.83-3.84-3.43-20.61,4.31-41.49,8.69-62.33,1C1188.79,1725.1,1185,1725,1182.27,1724.5Z" style="fill:#ffdf4c;stroke:#231f20;stroke-miterlimit:10;stroke-width:4.266031901007947px"/><path d="M962.4,981.48c-.19-2.26-1.19-4.26-3.12-5.05-4.87-2.07-11.14,2.31-11.18,6.83-.47,26.27,11,52.33,33.7,67,3,2,6.23-.86,8.8-2.89,1.44-1.22,2.39-3.22,1.27-4.64-12.19-15.42-24.55-31-26.82-51.63C964.62,987.18,963.08,984,962.4,981.48Z" style="fill:#ffdf4c;stroke:#231f20;stroke-miterlimit:10;stroke-width:3.9815519336458034px"/><path d="M1193.43,847.22a4.48,4.48,0,0,0-2.49-4c-3.88-1.65-8.87,1.84-8.91,5.44-.37,20.93,8.77,41.7,26.86,53.42,2.42,1.58,5-.68,7-2.3,1.15-1,1.91-2.57,1-3.7-9.72-12.29-19.57-24.73-21.38-41.15C1195.2,851.76,1194,849.21,1193.43,847.22Z" style="fill:#ffdf4c;stroke:#231f20;stroke-miterlimit:10;stroke-width:3.1730718766419694px"/><path d="M1083.34,936.76a4.48,4.48,0,0,0-2.49-4c-3.88-1.65-8.88,1.83-8.91,5.44-.37,20.93,8.77,41.7,26.86,53.42,2.42,1.58,5-.68,7-2.3,1.15-1,1.91-2.57,1-3.7-9.71-12.29-19.56-24.73-21.37-41.15C1085.1,941.3,1083.88,938.75,1083.34,936.76Z" style="fill:#ffdf4c;stroke:#231f20;stroke-miterlimit:10;stroke-width:3.1730718766419694px"/><path d="M1161.38,900.48a4.49,4.49,0,0,0-2.49-4c-3.89-1.65-8.88,1.84-8.91,5.44-.37,20.93,8.77,41.7,26.86,53.42,2.42,1.58,5-.68,7-2.3,1.15-1,1.9-2.57,1-3.7-9.72-12.29-19.57-24.73-21.37-41.15C1163.14,905,1161.92,902.47,1161.38,900.48Z" style="fill:#ffdf4c;stroke:#231f20;stroke-miterlimit:10;stroke-width:3.1730718766419694px"/><path d="M1234.22,975.66a4.5,4.5,0,0,0-2.48-4c-3.89-1.65-8.88,1.84-8.92,5.45-.37,20.92,8.77,41.69,26.86,53.41,2.43,1.58,5-.68,7-2.3,1.14-1,1.9-2.57,1-3.7-9.72-12.29-19.57-24.73-21.38-41.15C1236,980.2,1234.76,977.65,1234.22,975.66Z" style="fill:#ffdf4c;stroke:#231f20;stroke-miterlimit:10;stroke-width:3.1730718766419694px"/></svg>