<svg xmlns="http://www.w3.org/2000/svg" viewBox="0 0 2000 2000"><g id="Layer_1" data-name="Layer 1"><path d="M825,640C723,561,272.63,473.83,153.28,559.69c-63,72.49-26.42,157.83-10.85,177,18.39,22.65,37.12,25.89,37.12,25.89l34,518.19L826,1428.51l8.81-581C879.37,817.31,920.53,714,825,640Z" style="fill:#f5e7d0;stroke:#3a3632;stroke-linecap:round;stroke-linejoin:round;stroke-width:20px;isolation:isolate;opacity:0.991999983787537"/><path d="M1576.51,371.44c-88.46-68.78-465.45-85.47-521.26-83.24-199.55,8-705.83,138-857.18,233.79-18.69,11.83-33.37,24.55-44.79,37.7C272.63,473.83,723,561,825,640c95.58,74,54.42,177.36,9.84,207.55l758.65-296.9S1643.92,423.84,1576.51,371.44Z" style="fill:#e8cd9f;stroke:#3a3632;stroke-linecap:round;stroke-linejoin:round;stroke-width:20px;isolation:isolate;opacity:0.991999983787537"/><g id="layer3"><g id="g877"><path id="rect869" d="M1580.3,555.74,835.55,846.9" style="fill:none;stroke:#3a3632;stroke-linecap:round;stroke-linejoin:round;stroke-width:20px"/><path id="rect866" d="M835.42,847.35l713.69-279.42-45.46,476.67L826,1428.51Z" style="fill:#ecdaba;stroke:#3a3632;stroke-linecap:round;stroke-linejoin:round;stroke-width:20px;isolation:isolate;opacity:0.991999983787537"/></g></g><path d="M1882.35,970.69c-.41,126.49-64.29,241.52-114.19,350.23a15.33,15.33,0,0,1-28.74-1.81c-27.09-84.31-59.15-185.73-90.34-261.27C1649.08,1057.84,1733.15,934.94,1882.35,970.69Z" style="fill:#ffec5e;stroke:#3a3632;stroke-linecap:round;stroke-linejoin:round;stroke-width:20px"/><path d="M1576.17,1040.14a539.79,539.79,0,0,1,77.53-105.78c8.13-8.63,16.91-17.23,27.92-21.2,10.16-3.66,21.26-3,32-1.88a390.39,390.39,0,0,1,168.77,59.41c-98.91,8-159.18,36.25-228.62,114.87" style="fill:#fbf9d7;stroke:#3a3632;stroke-linecap:round;stroke-linejoin:round;stroke-width:20px"/><path d="M1313.55,835.14c-52.37,60.7-69.89,134-77.59,200.16-3.49,30,31.7,47.65,52.35,26.26,32.66-33.85,71.62-67.88,104.65-75C1393,986.53,1415.85,850.13,1313.55,835.14Z" style="fill:#ffec5e;stroke:#3a3632;stroke-linecap:round;stroke-linejoin:round;stroke-width:20px"/><path d="M1479.55,882.33c-16.71-4.58-53.55-31.37-166-47.19,39.13,48.69,57.08,140.48,62.53,203.49" style="fill:#fbf9d7;stroke:#3a3632;stroke-linecap:round;stroke-linejoin:round;stroke-width:20px"/><path d="M1605.27,1146.55c95.89-116.37,152.22-250.32,158.59-377.18,2.92-58-25.47-143.2-55-197.33-28.55-52.29-46-71.83-93.45-104.52a51,51,0,0,0-41.42-7.61c-1.1.28-2.2.6-3.27.94-24.14,7.83-39.57,32.95-35.9,58.43,15.35,106.48,1.92,211-39.92,310.53-38.47,91.55-94.4,178.36-161.76,244.77" style="fill:#fbf9d7;stroke:#3a3632;stroke-width:20px"/><path id="path1457" d="M1371,1017.65a21.57,21.57,0,0,0-5.69,4c-12.19,12.24-22.74,26.58-34.63,39.2-57.51,61-123.74,113.25-194.73,156.47-64.38,39.19-133.19,71.57-204.94,93.45-30.18,9.2-27.58,69.91-4.12,92.61,17,16.48,122.29,43.36,181.72,46.41,207,10.62,443.67-149.71,570.62-364.21,8.58-14.5-203.14-81.5-245.4-81.31C1421.29,1004.3,1384,1011.12,1371,1017.65Z" style="fill:#ffec5e;stroke:#3a3632;stroke-linecap:round;stroke-linejoin:round;stroke-width:20px"/><path id="path1459" d="M1229.88,1282.53s145.92-66.21,255.5-210.9" style="fill:none;stroke:#3a3632;stroke-linecap:round;stroke-miterlimit:15.118109703064;stroke-width:20px"/><path d="M1640.3,1022.79c11.5-.15,23.76-.09,33.39,6.39,11.42,7.68,16.16,22.35,19,36.11,16,77.65-4.13,158.78-35.2,231.4-27.63,64.59-63.82,125-93.28,188.64-6.75,14.59-20.88,24-36.55,24.15h0c-24.63.22-43.83-21.94-40.88-47.17,14.8-126.6,29.55-255.83,6.18-380.18-4-21.27-7.57-79-59.16-77.88C1492.23,1003.45,1581.87,1023.59,1640.3,1022.79Z" style="fill:#fbf9d7;stroke:#3a3632;stroke-linecap:round;stroke-linejoin:round;stroke-width:20px"/><path d="M188.14,1701.52l8.47-119.69,237.63-133.11,561.62,39.73s213.43-137.47,277.86-78.08c0,0-10.84,141.7-11.86,167.26-2.61,65.5-74.62,149.24-180.25,190.1-114.17,44.16-263.13,40.88-281-15.54C777.62,1750.57,188.14,1701.52,188.14,1701.52Z" style="fill:#e8cd9f;stroke:#3a3632;stroke-linecap:round;stroke-linejoin:round;stroke-width:20px;isolation:isolate;opacity:0.991999983787537"/><path d="M196.61,1581.83l248.17-282.22,561.62,39.72s272-55.4,266.59,80.89c-2.71,68.15-83.41,164.17-194.41,213.78s-252.3,52.82-269.48-1.49C786.08,1630.88,196.61,1581.83,196.61,1581.83Z" style="fill:#f5e7d0;stroke:#3a3632;stroke-linecap:round;stroke-linejoin:round;stroke-width:20px;isolation:isolate;opacity:0.991999983787537"/><path id="circle1665" d="M1001.44,394.84a23.3,23.3,0,1,1-23.3-23.3,23.3,23.3,0,0,1,23.3,23.3" style="fill:#d3b681"/><path id="circle1667" d="M711.06,473.65a23.31,23.31,0,0,1-46.61,0h0a23.31,23.31,0,0,1,23.31-23.3h0a23.3,23.3,0,0,1,23.3,23.3" style="fill:#d3b681"/><path id="circle1669" d="M865.71,532.44a23.3,23.3,0,1,1-23.3-23.3,23.3,23.3,0,0,1,23.3,23.3" style="fill:#d3b681"/><path id="circle1671" d="M1126.66,520.08a23.3,23.3,0,1,1-23.3-23.3,23.31,23.31,0,0,1,23.3,23.3" style="fill:#d3b681"/><path id="circle1671-2" data-name="circle1671" d="M401.76,847.5a23.3,23.3,0,1,1-23.3-23.3,23.3,23.3,0,0,1,23.3,23.3" style="fill:#d3b681"/><path id="circle1671-3" data-name="circle1671" d="M711.06,777.6a23.31,23.31,0,1,1-23.3-23.3,23.3,23.3,0,0,1,23.3,23.3" style="fill:#d3b681"/><path id="circle1671-4" data-name="circle1671" d="M489.44,1108.86a23.3,23.3,0,1,1-23.3-23.3,23.3,23.3,0,0,1,23.3,23.3" style="fill:#d3b681"/><path id="circle1673" d="M1397.53,429.75a23.31,23.31,0,1,1-23.3-23.3,23.3,23.3,0,0,1,23.3,23.3" style="fill:#d3b681"/><path id="circle1671-5" data-name="circle1671" d="M611.66,1451.81a23.31,23.31,0,1,1-23.3-23.3,23.3,23.3,0,0,1,23.3,23.3" style="fill:#d3b681"/><path id="circle1671-6" data-name="circle1671" d="M954.84,1418.79a23.3,23.3,0,1,1-23.3-23.31,23.3,23.3,0,0,1,23.3,23.31" style="fill:#d3b681"/><path id="circle1671-7" data-name="circle1671" d="M986.29,1204a23.3,23.3,0,1,1-23.3-23.31,23.3,23.3,0,0,1,23.3,23.31" style="fill:#d3b681"/><path id="circle1671-8" data-name="circle1671" d="M1210.85,976.37a23.31,23.31,0,1,1-23.3-23.3,23.3,23.3,0,0,1,23.3,23.3" style="fill:#d3b681"/><path id="circle1671-9" data-name="circle1671" d="M963,1554.5a23.31,23.31,0,1,1-23.3-23.3,23.3,23.3,0,0,1,23.3,23.3" style="fill:#d3b681"/></g></svg>