<svg xmlns="http://www.w3.org/2000/svg" viewBox="0 0 2000 2000"><g id="Layer_1" data-name="Layer 1"><path d="M1000,1766.55c403.3,0,625.66-118.8,733-263.35,92.91-125.11,226-619.35,226-619.35,0-205.45-429.36-372-959-372S41,678.4,41,883.85c0,0,133.08,494.24,226,619.35C374.34,1647.75,596.7,1766.55,1000,1766.55Z" style="fill:#fff;stroke:#3a3632;stroke-miterlimit:10;stroke-width:20px"/><ellipse cx="1000" cy="876.54" rx="840.69" ry="280.33" style="fill:#f1f1f2;stroke:#3a3632;stroke-miterlimit:10;stroke-width:20px"/><path d="M1000,1156.87c112,0,224.21-7.06,335.09-23.15,117.57-17.07,237.36-42.8,345.8-92.74,37.86-17.43,75.38-38.16,106.59-66.11,10.49-9.39,27.62-23.13,32.78-36.68,7.22-19-16.52-34.63-27.21-54.21-11.5-21.06-24.93-42.17-48.75-49.43-18.85-5.75-38.6.09-56.69-7.3-17.1-7-26-21.38-37.58-34.59-22-25.16-45.14-20.88-77.54-18.61-36.54,2.56-50.61-18.82-77.4-38-27.77-19.85-57.87-10.71-89.44-4.61-42.26,8.15-63.34,2.47-95.76-23.43-21.84-17.44-47-27.87-74.58-24.79-40.15,4.5-71.68,30.77-113.08,23.92-34-5.62-57.34-36.41-91.51-40.13-47.34-5.16-85.27,37-130.72,44.67-35.13,5.91-57.06-7.67-87.61-19.39-31.48-12.06-60.49,2.41-87.79,18.33-25.82,15.06-46.1,30.31-77.12,23.07-20.87-4.88-35.77-14.77-57.87-14-55,2-89.9,64.83-145.82,56.6-22.45-3.3-38.11-13-61.49-2-28.21,13.25-42.69,45.62-71,58.44-22.81,10.34-46.85-.84-67,14.61-19.49,15-34.44,41.82-50.05,60.71-14.3,17.28-19.64,24.27-5.76,41.94,19,24.12,44.82,43.06,70.67,59.13,91.53,56.9,200.73,86,305.37,107.21C707.61,1145.34,854.21,1156.87,1000,1156.87Z" style="fill:#be1e2d;stroke:#3a3632;stroke-miterlimit:10;stroke-width:20px"/><path d="M482.83,987.29c48.87,12.49,71.31,42.64,94.07.76,18.82-34.62-23-75.2-71.84-87.7s-105,3-105.12,42.45C399.8,990.45,434,974.79,482.83,987.29Z" style="fill:#7f141a;stroke:#3a3632;stroke-miterlimit:10;stroke-width:10px"/><path d="M1226.07,1030.24c48.84,12.62,71.21,42.81,94.07,1,18.9-34.58-22.79-75.27-71.63-87.88s-105,2.78-105.23,42.19C1143,1033.21,1177.23,1017.62,1226.07,1030.24Z" style="fill:#7f141a;stroke:#3a3632;stroke-miterlimit:10;stroke-width:10px"/><path d="M1528.84,849c-50,6.45-82-13.26-87.7,34.06-4.69,39.13,49.15,61.39,99.17,54.94s96.46-41.65,82-78.31C1604.81,815.31,1578.86,842.5,1528.84,849Z" style="fill:#7f141a;stroke:#3a3632;stroke-miterlimit:10;stroke-width:10px"/><path d="M790.51,806.11c-50,6.45-82-13.26-87.7,34.06C698.13,879.3,752,901.56,802,895.11s96.45-41.65,82-78.3C866.48,772.47,840.53,799.66,790.51,806.11Z" style="fill:#7f141a;stroke:#3a3632;stroke-miterlimit:10;stroke-width:10px"/><path d="M1156.14,794.23c-47.14-17.94-66-50.43-93.38-11.4-22.62,32.27,14.32,77.32,61.46,95.27s104.68,8.85,109.25-30.29C1239,800.47,1203.28,812.17,1156.14,794.23Z" style="fill:#7f141a;stroke:#3a3632;stroke-miterlimit:10;stroke-width:10px"/><path d="M877.25,1049.8c49.19,11.13,72.47,40.64,94.06-1.85,17.85-35.13-25.06-74.54-74.25-85.67s-104.89,6-103.91,45.35C794.34,1055.28,828.05,1038.67,877.25,1049.8Z" style="fill:#7f141a;stroke:#3a3632;stroke-miterlimit:10;stroke-width:10px"/><path d="M1263,1884.17c3.22,0,3.22-5,0-5s-3.22,5,0,5Z" style="fill:#3a3632"/><path d="M916.33,1980.17c3.22,0,3.23-5,0-5s-3.22,5,0,5Z" style="fill:#3a3632"/></g></svg>