<?xml version="1.0" encoding="UTF-8"?>
<svg id="Layer_1" data-name="Layer 1" xmlns="http://www.w3.org/2000/svg" viewBox="0 0 2000 2000">
  <defs>
    <style>
      .cls-1 {
        fill: #48619b;
      }

      .cls-1, .cls-2 {
        stroke-miterlimit: 10;
      }

      .cls-1, .cls-2, .cls-3, .cls-4 {
        stroke: #3a3632;
        stroke-width: 20px;
      }

      .cls-2 {
        fill: #ba936a;
      }

      .cls-3 {
        fill: #fff;
      }

      .cls-3, .cls-4 {
        stroke-linejoin: round;
      }

      .cls-4 {
        fill: none;
      }
    </style>
  </defs>
  <g>
    <g>
      <path class="cls-2" d="m1865,852.59c0-140.53-266.65-329.29-473.04-329.29s-473.04,184.96-473.04,329.29c0,181.86,211.79,129.3,473.04,129.3s473.04,52.56,473.04-129.3Z"/>
      <g>
        <path class="cls-3" d="m1727.02,1363.57l115.43-385.2-75.08-55.38-75.08,55.38-75.08-55.38-75.08,55.38-75.08-55.38-75.08,55.38-75.08-55.38-75.08,55.38-75.08-55.38-75.08,55.38-75.08-55.38-75.08,55.38,115.43,385.2c3.09,10.33,12.6,17.4,23.38,17.4h623.35c10.78,0,20.29-7.07,23.38-17.4Z"/>
        <line class="cls-4" x1="1391.96" y1="978.37" x2="1391.96" y2="1380.97"/>
        <line class="cls-4" x1="1542.12" y1="978.37" x2="1501.91" y2="1380.97"/>
        <line class="cls-4" x1="1692.29" y1="978.37" x2="1611.85" y2="1380.97"/>
        <line class="cls-4" x1="1241.8" y1="978.37" x2="1282.01" y2="1380.97"/>
        <line class="cls-4" x1="1091.64" y1="978.37" x2="1172.07" y2="1380.97"/>
      </g>
    </g>
    <g>
      <path class="cls-1" d="m1537.53,627.08c-2.38,1.62-4.65,3.59-5.83,6.22-2.41,5.39,1.29,10.53.21,15.77-1.22,5.88-5.44,11.46-7.92,16.87s-4.37,12-2.75,17.98c2.8,10.34,22.64,5.24,31.93,10.57,6.73,3.87,14.82,9.92,21.2,5.5,4.95-3.43,4.77-11.03,8.8-15.51,4.3-4.78,12.11-4.7,16.83-9.06,4.9-4.52,4.92-12.3,3.12-18.72-8.95-32.06-33.6-51.32-65.6-29.62Z"/>
      <path class="cls-1" d="m1262.32,588.68c-2.38,1.62-4.65,3.59-5.83,6.22-2.99,6.69,2.05,14.51.55,21.68-1.9,9.08-13.41,13.8-14.99,22.94-1.32,7.66,5.56,14.86,13.15,16.5,7.6,1.65,15.45-.85,22.62-3.85,7.17-3.01,14.29-6.61,22.03-7.3,9.38-.84,19.58,2.54,27.85-1.97,7.89-4.3,10.7-15.82,5.67-23.26-2.08-3.08-5.16-5.36-7.41-8.33-4.09-5.4-5.04-12.55-8.3-18.48-10.47-19.02-40.07-14.51-55.35-4.15Z"/>
      <path class="cls-1" d="m1112.51,815.13c4.34-3.76,7.89-8.59,8.04-13.16.18-5.28-3.85-10.22-2.95-15.43.54-3.14,2.78-5.68,4.29-8.49,11.32-21.14-12.47-30.08-28.44-24.68-6.67,2.26-13.95,6.53-20.8,7.53-7.71,1.13-15.43-2.38-22.82,1.65-7.06,3.85-9.58,14.16-5.07,20.83,1.86,2.76,4.62,4.8,6.63,7.46,3.66,4.84,4.51,11.23,7.43,16.55,5.72,10.39,18.69,14.28,29.66,15.17,4.63.38,9.39.25,13.79-1.23,3.09-1.04,6.89-3.3,10.23-6.19Z"/>
      <path class="cls-1" d="m1340.12,817.19c-5.77,5.64-9.54,13.21-9.58,22.25-.02,3.98.53,8.35-1.82,11.57-1.65,2.26-4.39,3.42-6.52,5.25-7.81,6.73-4.31,20.55,4.09,26.53s19.42,6.35,29.72,6.5c13.68.2,30.11,2.43,41.59-6.84,10.89-8.79,15.54-31.9-1.45-37.83-1.42-.49-2.97-.79-4.11-1.76-3.17-2.69-.96-7.83,1.51-11.17,18.03-24.44-38.83-28.74-53.43-14.5Z"/>
      <path class="cls-1" d="m1676.01,786.83c-3.11,3.11-5.58,6.76-7.05,10.75-2.35,6.39.94,13.49-1.19,20.34-2.45,7.87-9.34,11.88-1.64,21.42,12.82,15.87,49,10.35,63.58.82,6.68-4.37,9.06-16.07,4.8-23.63-1.76-3.13-4.37-5.45-6.27-8.46-3.46-5.49-4.27-12.74-7.03-18.77-8.76-19.09-32.38-15.31-45.19-2.46Z"/>
    </g>
  </g>
  <g>
    <g>
      <path class="cls-2" d="m1229.77,531.04c0-122.97-233.32-288.13-413.91-288.13s-413.91,161.84-413.91,288.13c0,159.13,185.31,113.14,413.91,113.14s413.91,45.99,413.91-113.14Z"/>
      <g>
        <path class="cls-3" d="m1109.04,978.15l101-337.05-65.7-48.46-65.7,48.46-65.7-48.46-65.7,48.46-65.7-48.46-65.7,48.46-65.7-48.46-65.7,48.46-65.7-48.46-65.7,48.46-65.7-48.46-65.7,48.46,101,337.05c2.71,9.04,11.02,15.23,20.46,15.23h545.43c9.43,0,17.75-6.19,20.46-15.23Z"/>
        <line class="cls-4" x1="815.86" y1="641.1" x2="815.86" y2="993.37"/>
        <line class="cls-4" x1="947.26" y1="641.1" x2="912.07" y2="993.37"/>
        <line class="cls-4" x1="1078.65" y1="641.1" x2="1008.27" y2="993.37"/>
        <line class="cls-4" x1="684.47" y1="641.1" x2="719.66" y2="993.37"/>
        <line class="cls-4" x1="553.08" y1="641.1" x2="623.46" y2="993.37"/>
      </g>
    </g>
    <g>
      <path class="cls-1" d="m943.23,333.72c-2.08,1.41-4.07,3.14-5.1,5.44-2.11,4.71,1.13,9.22.18,13.8-1.07,5.15-4.76,10.03-6.93,14.76s-3.82,10.5-2.41,15.73c2.45,9.05,19.81,4.58,27.94,9.25,5.89,3.38,12.97,8.68,18.55,4.81,4.33-3,4.18-9.65,7.7-13.57,3.76-4.18,10.59-4.11,14.73-7.92,4.29-3.95,4.3-10.76,2.73-16.38-7.83-28.05-29.4-44.91-57.4-25.92Z"/>
      <path class="cls-1" d="m702.43,300.12c-2.08,1.41-4.07,3.14-5.1,5.44-2.62,5.85,1.8,12.7.48,18.97-1.67,7.94-11.73,12.08-13.11,20.08-1.16,6.7,4.86,13,11.51,14.44s13.52-.74,19.79-3.37c6.27-2.63,12.51-5.78,19.28-6.39,8.21-.74,17.13,2.22,24.37-1.72,6.9-3.76,9.36-13.84,4.96-20.35-1.82-2.7-4.52-4.69-6.48-7.29-3.58-4.73-4.41-10.98-7.26-16.17-9.16-16.65-35.06-12.7-48.43-3.63Z"/>
      <path class="cls-1" d="m571.35,498.26c3.8-3.29,6.9-7.51,7.04-11.51.15-4.62-3.37-8.95-2.58-13.5.48-2.75,2.44-4.97,3.75-7.43,9.91-18.49-10.91-26.32-24.88-21.59-5.84,1.97-12.2,5.71-18.2,6.59-6.75.99-13.5-2.08-19.97,1.45-6.18,3.37-8.38,12.39-4.44,18.23,1.63,2.41,4.05,4.2,5.8,6.52,3.2,4.23,3.95,9.83,6.5,14.48,5,9.09,16.36,12.49,25.96,13.27,4.05.33,8.21.22,12.07-1.08,2.7-.91,6.03-2.89,8.95-5.42Z"/>
      <path class="cls-1" d="m770.51,500.06c-5.05,4.93-8.35,11.56-8.38,19.47-.01,3.48.46,7.31-1.59,10.12-1.44,1.98-3.85,2.99-5.7,4.59-6.84,5.89-3.77,17.98,3.58,23.21s16.99,5.55,26.01,5.68c11.97.17,26.35,2.12,36.39-5.98s13.6-27.91-1.27-33.1c-1.24-.43-2.6-.69-3.6-1.54-2.77-2.36-.84-6.85,1.32-9.78,15.77-21.38-33.98-25.14-46.75-12.69Z"/>
      <path class="cls-1" d="m1064.41,473.5c-2.72,2.72-4.88,5.91-6.17,9.41-2.06,5.59.82,11.81-1.04,17.8-2.14,6.88-8.17,10.39-1.43,18.74,11.22,13.89,42.87,9.05,55.64.71,5.85-3.82,7.93-14.06,4.2-20.68-1.54-2.74-3.83-4.77-5.49-7.4-3.03-4.8-3.73-11.15-6.15-16.43-7.66-16.7-28.33-13.39-39.55-2.16Z"/>
    </g>
  </g>
  <g>
    <g>
      <path class="cls-2" d="m1317.6,1116.31c0-175.67-333.31-411.61-591.3-411.61s-591.3,231.2-591.3,411.61c0,227.33,264.73,161.63,591.3,161.63s591.3,65.7,591.3-161.63Z"/>
      <g>
        <path class="cls-3" d="m1145.12,1755.05l144.29-481.5-93.85-69.23-93.85,69.23-93.85-69.23-93.85,69.23-93.85-69.23-93.85,69.23-93.85-69.23-93.85,69.23-93.85-69.23-93.85,69.23-93.85-69.23-93.85,69.23,144.29,481.5c3.87,12.91,15.75,21.75,29.22,21.75h779.19c13.48,0,25.36-8.84,29.22-21.75Z"/>
        <line class="cls-4" x1="726.3" y1="1273.54" x2="726.3" y2="1776.8"/>
        <line class="cls-4" x1="914" y1="1273.54" x2="863.73" y2="1776.8"/>
        <line class="cls-4" x1="1101.71" y1="1273.54" x2="1001.16" y2="1776.8"/>
        <line class="cls-4" x1="538.59" y1="1273.54" x2="588.87" y2="1776.8"/>
        <line class="cls-4" x1="350.89" y1="1273.54" x2="451.43" y2="1776.8"/>
      </g>
    </g>
    <g>
      <path class="cls-1" d="m908.26,834.44c-2.98,2.02-5.81,4.49-7.28,7.77-3.02,6.73,1.62,13.17.26,19.72-1.53,7.35-6.8,14.32-9.9,21.08-3.22,7.03-5.46,15-3.44,22.47,3.5,12.92,28.3,6.54,39.91,13.21,8.42,4.83,18.53,12.4,26.5,6.87,6.19-4.29,5.97-13.79,11.01-19.39,5.38-5.97,15.13-5.87,21.04-11.32,6.12-5.65,6.14-15.37,3.9-23.4-11.19-40.08-41.99-64.15-82.01-37.02Z"/>
      <path class="cls-1" d="m564.24,786.43c-2.98,2.02-5.81,4.49-7.28,7.77-3.74,8.36,2.57,18.14.69,27.1-2.38,11.35-16.76,17.25-18.73,28.68-1.65,9.57,6.94,18.57,16.44,20.63s19.31-1.06,28.27-4.82c8.96-3.76,17.87-8.26,27.54-9.13,11.73-1.05,24.48,3.17,34.82-2.46,9.86-5.37,13.37-19.77,7.08-29.08-2.6-3.85-6.45-6.7-9.26-10.41-5.11-6.75-6.29-15.68-10.38-23.1-13.09-23.78-50.09-18.14-69.18-5.19Z"/>
      <path class="cls-1" d="m376.99,1069.49c5.42-4.7,9.86-10.73,10.05-16.45.22-6.6-4.81-12.78-3.69-19.29.68-3.93,3.48-7.1,5.36-10.61,14.16-26.42-15.59-37.6-35.55-30.85-8.34,2.82-17.44,8.16-25.99,9.41-9.64,1.41-19.29-2.98-28.53,2.07-8.83,4.81-11.97,17.71-6.34,26.04,2.33,3.45,5.78,6,8.29,9.32,4.57,6.05,5.64,14.04,9.29,20.68,7.15,12.99,23.37,17.85,37.08,18.96,5.79.47,11.73.31,17.24-1.54,3.86-1.3,8.61-4.13,12.78-7.74Z"/>
      <path class="cls-1" d="m661.5,1072.06c-7.22,7.05-11.93,16.52-11.97,27.81-.02,4.97.66,10.44-2.27,14.46-2.06,2.83-5.49,4.28-8.15,6.56-9.77,8.41-5.39,25.69,5.11,33.16,10.5,7.47,24.27,7.93,37.16,8.12,17.1.25,37.64,3.03,51.99-8.55,13.61-10.99,19.43-39.87-1.82-47.28-1.77-.62-3.71-.98-5.14-2.2-3.96-3.37-1.19-9.78,1.89-13.97,22.53-30.55-48.54-35.92-66.79-18.12Z"/>
      <path class="cls-1" d="m1081.37,1034.12c-3.88,3.89-6.97,8.45-8.81,13.44-2.94,7.99,1.18,16.87-1.49,25.43-3.06,9.84-11.67,14.85-2.05,26.77,16.02,19.84,61.25,12.93,79.48,1.02,8.35-5.46,11.32-20.09,6-29.54-2.2-3.91-5.47-6.81-7.84-10.57-4.33-6.86-5.33-15.93-8.79-23.47-10.95-23.86-40.48-19.13-56.49-3.08Z"/>
    </g>
  </g>
</svg>