<svg xmlns="http://www.w3.org/2000/svg" viewBox="0 0 2000 2000"><g id="Layer_1" data-name="Layer 1"><ellipse cx="1000" cy="1164.77" rx="982.77" ry="504.92" style="fill:#fff;stroke:#3a3632;stroke-miterlimit:10;stroke-width:20px"/><path d="M1050.58,743.12a91.37,91.37,0,0,0-13.26,10.3c-9.79,9.19-18.25,20.92-31.08,25-34.92,11.08-61.39-41-98-40.71-33.88.31-50.67,43.17-82.11,55.68-30.82,12.25-64.35-7.81-97.4-10.9-41.94-3.92-84.8,23.62-98.4,63.22-4,11.67-6,24.7-14.56,33.64-4.55,4.77-10.59,7.9-16.79,10.17-34.76,12.73-60.11-9.44-93.77-10.3-35.19-.9-61.86,37.6-72.08,69.52-2.05,6.4-3.87,13.42-9.13,17.65-5.89,4.75-14.2,4.51-21.77,5.07-39.51,3-70.73,32.78-105.06,52.45-35.41,20.3-69.24,32.45-98.64,62.25-9.47,9.59-22.23,24.54-23.46,38.68-1.05,12.18,5.59,23.86,4,36.86-5.67,46-31.13,90.86,7.38,130.59,19.39,20,28.32,34.73,41.66,59.14,6,10.89,18.3,21,29.87,16.39,5.87-2.36,9.67-7.89,14.16-12.33,12.55-12.41,32.67-16.57,49.17-10.16s28.44,23,29.18,40.59c20.1,8.12,44.45-10.45,63.84-.77,20.34,10.16,24.09,30,45.76,15.07,21-14.44,42.37-5.47,63.93,6.83,20.9,11.93,41.43,26.92,65.41,29,20.1,1.75,40.48-5.91,60.28-2.07,23.11,4.48,40.84,23.66,63.42,30.32,38.87,11.46,79.54-16.65,119.77-11.73,26.07,3.2,48.24,19.74,72.23,30.44,29.7,13.24,60.44,15.6,92.31,18.49,31.21,2.84,43.29-20.12,70.67-31.6,14.68-6.16,31-6.88,46.88-7.52,9.09-.37,18.25-.73,27.26.6,18,2.68,31.89,10.07,50.37,11.17,26.43,1.57,53,10.81,79.19,2.44,17.83-5.67,32.43-18.78,49.93-25.42,41.78-15.87,93.64,7,131.18-17.31,14.57-9.41,24.27-24.52,35.84-37.44,19.63-22,51.24-28.56,79.45-33q59.35-9.37,119.23-14.92a122.35,122.35,0,0,0-67.93-43c47-22.88,103.8-3.92,155-14.51,21.14-4.37,44.43-18.82,43.39-40.23-.29-6-2.55-11.88-1.79-17.82.92-7.2,6-13.05,10.36-18.91,66.37-90.13-47.51-145.42-106-194.56-26.56-22.29-52-47.3-80.46-67.17-19.62-13.7-37.88-34.36-59.57-44.39-19.47-9-45.92-7-58.49,10.3a436.25,436.25,0,0,1-144.27-85.79c-16.37-14.66-38.78-31.72-57.87-20.76-10.48,6-15,18.38-21.18,28.7s-18,20.09-29.3,15.73c-7.71-3-11.61-11.28-15.08-18.73-19.06-40.91-48.66-78.75-89.61-98.16C1128.74,722.18,1083.44,722.13,1050.58,743.12Z" style="fill:#ffa96e;stroke:#3a3632;stroke-linecap:round;stroke-linejoin:round;stroke-width:8px;isolation:isolate"/><path d="M557.94,1016.71c-2.13,6.15-6.77,6.64-13.13,5.23-22.09-4.89-38.37-16.66-53.94-31.44-14.95-14.18-25.71-33.85-31.86-54.67-1.85-6.25-2.9-14.15,3.34-16s11.6,2.35,14.26,8.29c7.32,16.31,16.93,31.42,28.83,44A159.09,159.09,0,0,0,550,1004.69C554.32,1006.8,559.76,1011.43,557.94,1016.71Z" style="fill:#f37820;stroke:#3a3632;stroke-miterlimit:10;stroke-width:7.46791056426011px"/><path d="M917.94,1126.82c-2.38,6.54-7.35,7-14.12,5.35-23.51-5.62-40.69-18.5-57.06-34.57-15.72-15.43-26.86-36.64-33-59-1.86-6.71-2.84-15.17,3.87-17s12.34,2.72,15.08,9.12c7.52,17.56,17.52,33.87,30,47.51a170.29,170.29,0,0,0,47,35.63C914.25,1116.17,920,1121.22,917.94,1126.82Z" style="fill:#f37820;stroke:#3a3632;stroke-miterlimit:10;stroke-width:7.9804509441237px"/><path d="M894.76,909.51c-1-6.46,2.86-9.07,9.15-10.83,21.87-6.1,41.83-3.35,62.59,2.39,19.93,5.5,38.74,17.84,54,33.37,4.59,4.66,9.25,11.16,4.59,15.74s-11.38,3.38-16.54-.62c-14.17-11-29.81-19.83-46.27-25.33a159.73,159.73,0,0,0-54.83-7.83C902.64,916.57,895.63,915,894.76,909.51Z" style="fill:#f37820;stroke:#3a3632;stroke-miterlimit:10;stroke-width:7.49185183413235px"/><path d="M1159.77,1135.6c-6.19-1.82-6.88-6.4-5.78-12.76,3.82-22.1,14.73-38.75,28.64-54.85,13.36-15.45,32.33-27,52.67-34,6.09-2.12,13.87-3.53,16,2.57s-1.8,11.59-7.56,14.5c-15.81,8-30.32,18.2-42.21,30.56a157.68,157.68,0,0,0-30.21,45.62C1169.41,1131.55,1165.07,1137.16,1159.77,1135.6Z" style="fill:#f37820;stroke:#3a3632;stroke-miterlimit:10;stroke-width:7.4013880873278px"/><path d="M975,1107.7c-5.78,2.24-9-.84-11.87-6.33-10-19.06-11.47-38.13-10.3-58.53,1.13-19.58,8.81-39.5,20.17-56.76,3.4-5.18,8.5-10.81,13.68-7.4s5.41,9.87,2.73,15.46a143.62,143.62,0,0,0-10.55,100.41C980,1099,980,1105.79,975,1107.7Z" style="fill:#f37820;stroke:#3a3632;stroke-miterlimit:10;stroke-width:7.10894957339563px"/><path d="M623.35,1200.69c-5.44,2.29-8.57-.56-11.46-5.7-10.06-17.85-11.95-36-11.39-55.38.54-18.66,7.31-37.8,17.64-54.53,3.09-5,7.79-10.51,12.81-7.41s5.42,9.24,3,14.63a142.5,142.5,0,0,0-12.25,46,144,144,0,0,0,4.94,49.75C627.84,1192.26,628,1198.73,623.35,1200.69Z" style="fill:#f37820;stroke:#3a3632;stroke-miterlimit:10;stroke-width:6.76342419717408px"/><path d="M1061.89,1340.08c-6.48-1.84-7.25-6.61-6.16-13.27,3.78-23.11,15-40.61,29.39-57.55,13.8-16.27,33.51-28.52,54.68-36.07,6.35-2.27,14.45-3.82,16.72,2.53s-1.77,12.12-7.75,15.22c-16.44,8.49-31.5,19.3-43.8,32.32a164.94,164.94,0,0,0-31.12,47.93C1071.92,1335.77,1067.45,1341.66,1061.89,1340.08Z" style="fill:#f37820;stroke:#3a3632;stroke-miterlimit:10;stroke-width:7.73024958492317px"/><path d="M1130.29,1286.26c-.5-5.93,3.2-8.06,9-9.24,20.25-4.1,38.21-.3,56.69,6.27,17.74,6.3,34,18.74,46.86,33.85,3.86,4.53,7.67,10.74,3.14,14.59s-10.56,2.34-15-1.64a144.09,144.09,0,0,0-40.37-26,145.57,145.57,0,0,0-49.29-10.7C1137,1293.18,1130.72,1291.34,1130.29,1286.26Z" style="fill:#f37820;stroke:#3a3632;stroke-miterlimit:10;stroke-width:6.82256208032617px"/><path d="M1174.59,1424c-6.92-.84-8.46-5.59-8.42-12.56.16-24.2,8.83-43.86,20.79-63.46,11.48-18.82,29.64-34.49,50-45.59,6.11-3.33,14.14-6.21,17.47-.09s.14,12.65-5.47,16.77c-15.42,11.31-29.07,24.76-39.53,40a170.4,170.4,0,0,0-24.1,53.91C1184.13,1418,1180.51,1424.75,1174.59,1424Z" style="fill:#f37820;stroke:#3a3632;stroke-miterlimit:10;stroke-width:7.98856220199912px"/><path d="M1045,1420.45c5.25,4.55,3.88,9.34,0,15.08-13.63,19.92-31.77,31.35-52.6,40.89-20,9.15-43.75,12-66.81,9.78-6.91-.66-15.16-2.76-14.5-9.68s7-10.54,13.89-10.81c19.06-.75,37.84-4.26,55-11a170.09,170.09,0,0,0,50-31.14C1033.7,1420.09,1040.46,1416.54,1045,1420.45Z" style="fill:#f37820;stroke:#3a3632;stroke-miterlimit:10;stroke-width:7.96846889370556px"/><path d="M718.09,1316.6c3.66-5.17,8.13-4.36,13.68-1.31,19.3,10.59,31.29,26,41.8,44.09,10.1,17.32,14.78,38.63,14.84,59.76,0,6.33-1.15,14-7.49,14s-10.18-5.36-11-11.64A153.46,153.46,0,0,0,755,1372.58a155.28,155.28,0,0,0-32.73-42.6C718.77,1326.84,714.94,1321,718.09,1316.6Z" style="fill:#f37820;stroke:#3a3632;stroke-miterlimit:10;stroke-width:7.26655549472791px"/><path d="M810.34,1222c-4.76-3.46-4-7.59-1.06-12.72,10-17.79,24.49-28.75,41.35-38.31,16.19-9.18,36-13.29,55.62-13.12,5.88,0,13,1.22,12.93,7.1s-5.08,9.4-10.92,10.13a142.2,142.2,0,0,0-45.57,13.32,143.75,143.75,0,0,0-39.89,29.91C819.85,1221.45,814.41,1224.93,810.34,1222Z" style="fill:#f37820;stroke:#3a3632;stroke-miterlimit:10;stroke-width:6.74347362532114px"/><path d="M940.4,1190.26c4.76-4.17,8.91-2.34,13.6,1.91,16.3,14.77,24.38,32.55,30.41,52.53,5.79,19.18,5.41,41,.57,61.52-1.45,6.16-4.37,13.34-10.53,11.89s-8.66-7.57-8-13.87a153.36,153.36,0,0,0-3.16-51,155,155,0,0,0-21.94-49C938.69,1200.37,936.32,1193.84,940.4,1190.26Z" style="fill:#f37820;stroke:#3a3632;stroke-miterlimit:10;stroke-width:7.25996910492457px"/><path d="M1013,1167.31c-.72-6,3-8.32,8.89-9.73,20.53-4.89,39-1.63,58.07,4.43,18.32,5.82,35.36,18,49,32.93,4.09,4.48,8.19,10.69,3.7,14.78s-10.69,2.74-15.34-1.16a147.12,147.12,0,0,0-42.1-25.18,148.88,148.88,0,0,0-50.67-9.22C1020.06,1174.15,1013.61,1172.48,1013,1167.31Z" style="fill:#f37820;stroke:#3a3632;stroke-miterlimit:10;stroke-width:6.96644693559198px"/><path d="M1303,1259.73c-2.74,5.88-7.39,5.88-13.55,3.83-21.39-7.12-36.31-20.47-50.22-36.71-13.35-15.6-22-36.2-25.94-57.47-1.19-6.38-1.42-14.32,5-15.5s11.25,3.52,13.27,9.68c5.57,16.92,13.55,32.88,24,46.55a158.75,158.75,0,0,0,40.81,36.89C1300.39,1249.53,1305.31,1254.69,1303,1259.73Z" style="fill:#f37820;stroke:#3a3632;stroke-miterlimit:10;stroke-width:7.44086093588118px"/><path d="M1309.94,1170.81c-6.79-1.37-8-6.2-7.36-13.1,2-24,12.15-42.79,25.53-61.28,12.84-17.76,32.06-31.87,53.14-41.29,6.32-2.83,14.5-5.05,17.32,1.27s-.85,12.55-6.73,16.2c-16.16,10-30.73,22.27-42.29,36.58a169.58,169.58,0,0,0-28.07,51.56C1319.87,1165.59,1315.75,1172,1309.94,1170.81Z" style="fill:#f37820;stroke:#3a3632;stroke-miterlimit:10;stroke-width:7.94097809557033px"/><path d="M1321.61,1430.27c-6.37,1.36-9.18-2.37-11.27-8.55-7.23-21.46-5.55-41.5-.93-62.49,4.42-20.14,15.72-39.53,30.39-55.57,4.39-4.81,10.62-9.8,15.43-5.4s4,11.15.26,16.51c-10.2,14.7-18.17,30.75-22.78,47.44a159.11,159.11,0,0,0-4.9,55C1328.23,1422,1327.08,1429.1,1321.61,1430.27Z" style="fill:#f37820;stroke:#3a3632;stroke-miterlimit:10;stroke-width:7.47493820965045px"/><path d="M1418.27,1392.81c-5.94,1.7-8.85-1.65-11.21-7.36-8.23-19.83-7.93-38.89-4.92-59,2.89-19.34,12.33-38.41,25.17-54.52,3.84-4.83,9.41-10,14.24-6.1s4.48,10.29,1.32,15.6a149.49,149.49,0,0,0-18.5,46.33,151.2,151.2,0,0,0-1.08,52.37C1424,1384.6,1423.36,1391.36,1418.27,1392.81Z" style="fill:#f37820;stroke:#3a3632;stroke-miterlimit:10;stroke-width:7.08577069464408px"/><path d="M1273.92,963.1c-5.35-2.55-5.31-6.8-3.39-12.4,6.67-19.46,19-33,33.91-45.54,14.34-12.06,33.21-19.78,52.65-23.21,5.83-1,13.08-1.18,14.11,4.65s-3.31,10.24-9,12a143.13,143.13,0,0,0-42.67,21.56,145.07,145.07,0,0,0-34,36.95C1283.24,960.83,1278.5,965.28,1273.92,963.1Z" style="fill:#f37820;stroke:#3a3632;stroke-miterlimit:10;stroke-width:6.79112916434325px"/><path d="M1098,851.44c5.33-4.33,9.76-2.18,14.68,2.61,17.09,16.65,25.13,36.26,30.88,58.16,5.52,21,4.24,44.63-1.82,66.72-1.81,6.62-5.26,14.29-11.88,12.47s-9.09-8.55-8.17-15.36c2.5-18.68,2.28-37.57-1.41-55.44a167.85,167.85,0,0,0-21.84-54C1095.74,862.34,1093.43,855.16,1098,851.44Z" style="fill:#f37820;stroke:#3a3632;stroke-miterlimit:10;stroke-width:7.87655160413391px"/><path d="M1065.14,949.75c-6.25,1.62-9.19-2-11.52-8-8.06-20.94-7.24-40.85-3.56-61.81,3.53-20.13,13.89-39.8,27.73-56.29,4.15-4.95,10.1-10.15,15-6s4.41,10.87,1,16.33a156.24,156.24,0,0,0-20.56,47.92,158.23,158.23,0,0,0-2.52,54.69C1071.34,941.33,1070.5,948.37,1065.14,949.75Z" style="fill:#f37820;stroke:#3a3632;stroke-miterlimit:10;stroke-width:7.40561567805671px"/><path d="M806.05,858.27c2.31-5.76,6.75-6,12.73-4.36,20.78,5.68,35.71,17.64,49.82,32.42,13.55,14.19,22.86,33.4,27.73,53.49,1.47,6,2.1,13.59-3.92,15s-10.92-2.78-13.17-8.56a150.15,150.15,0,0,0-25.35-43.17A152,152,0,0,0,813,870.06C809,867.86,804.07,863.2,806.05,858.27Z" style="fill:#f37820;stroke:#3a3632;stroke-miterlimit:10;stroke-width:7.10999756614358px"/><path d="M426.47,945.87c-5.14-3-4.73-7.29-2.32-12.75,8.4-19,22-31.48,38.06-42.8,15.46-10.87,35.1-17,54.94-18.73,6-.53,13.24,0,13.77,5.91s-4.22,10-10,11.32a144.24,144.24,0,0,0-44.77,17.94,146.06,146.06,0,0,0-37.39,34.15C436,944.41,430.89,948.47,426.47,945.87Z" style="fill:#f37820;stroke:#3a3632;stroke-miterlimit:10;stroke-width:6.85015999516487px"/><path d="M583.44,926.81c-.11-6.29,3.94-8.26,10.18-9.09,21.66-2.87,40.32,2.43,59.33,10.69,18.26,7.92,34.53,22.21,47,39.06,3.74,5.06,7.31,11.88,2.25,15.62s-11.3,1.7-15.68-2.81c-12-12.38-25.75-22.91-40.7-30.36a153.76,153.76,0,0,0-51.21-14.83C590,934.6,583.53,932.2,583.44,926.81Z" style="fill:#f37820;stroke:#3a3632;stroke-miterlimit:10;stroke-width:7.21172955241718px"/><path d="M198.84,1049c-.11-6.28,3.94-8.26,10.18-9.08,21.66-2.88,40.32,2.42,59.34,10.68,18.25,7.92,34.52,22.21,47,39.07,3.74,5,7.31,11.87,2.25,15.61s-11.29,1.7-15.68-2.81a152.1,152.1,0,0,0-40.7-30.36A153.76,153.76,0,0,0,210,1057.32C205.4,1056.83,198.93,1054.43,198.84,1049Z" style="fill:#f37820;stroke:#3a3632;stroke-miterlimit:10;stroke-width:7.21172955241718px"/><path d="M761.94,853.9c-2.09-6.35,1.41-9.63,7.48-12.44,21.09-9.75,41.72-10.24,63.63-7.85,21,2.29,42.07,11.67,60,24.86,5.4,4,11.17,9.76,7.21,15.15s-10.93,5.29-16.81,2.09c-16.12-8.78-33.37-15.15-50.9-18a163.66,163.66,0,0,0-56.69,1.08C771.06,859.74,763.73,859.34,761.94,853.9Z" style="fill:#f37820;stroke:#3a3632;stroke-miterlimit:10;stroke-width:7.66922988530914px"/><path d="M919.81,826c-5-3.81-4.09-8.25-.88-13.7,11.15-18.94,26.92-30.44,45.24-40.39,17.6-9.55,39-13.58,60.09-13,6.32.16,13.94,1.56,13.76,7.89s-5.65,10-11.94,10.68c-17.27,1.86-34.11,6.2-49.28,13.42a154.58,154.58,0,0,0-43.5,31.38C930.06,825.6,924.14,829.24,919.81,826Z" style="fill:#f37820;stroke:#3a3632;stroke-miterlimit:10;stroke-width:7.25471622366572px"/><path d="M1221.75,879.46c-2.63,5.14-6.76,5-12.17,3-18.78-7-31.6-19.36-43.44-34.25-11.36-14.3-18.37-32.89-21.19-51.92-.85-5.71-.8-12.77,4.91-13.62s9.88,3.5,11.49,9a139.73,139.73,0,0,0,19.85,42.16,141.24,141.24,0,0,0,35.07,34.1C1219.79,870.32,1224,875.06,1221.75,879.46Z" style="fill:#f37820;stroke:#3a3632;stroke-miterlimit:10;stroke-width:6.61744339396332px"/><path d="M1024.33,739c.07-6.24,4.14-8.08,10.35-8.73,21.55-2.24,39.9,3.54,58.52,12.25,17.87,8.36,33.6,23,45.48,40,3.57,5.12,6.92,12,1.8,15.54s-11.24,1.37-15.46-3.22a144.49,144.49,0,0,0-89.84-47.36C1030.62,746.87,1024.27,744.31,1024.33,739Z" style="fill:#f37820;stroke:#3a3632;stroke-miterlimit:10;stroke-width:7.15135220970123px"/><path d="M893.18,835.14c-.95,5.9-5.07,7.07-11,6.8-20.74-.93-37.32-9-53.72-19.91-15.76-10.47-28.59-26.55-37.43-44.41-2.66-5.35-4.86-12.33.5-15s10.85.29,14.2,5.25a144.69,144.69,0,0,0,33,35.21,146.23,146.23,0,0,0,45.43,22.43C888.35,826.76,894,830.09,893.18,835.14Z" style="fill:#f37820;stroke:#231f20;stroke-miterlimit:10;stroke-width:7.213682758557114px"/><path d="M621,898c-6.45-1.71-7.29-6.42-6.33-13C618,862,628.77,844.46,642.7,827.43c13.38-16.34,32.67-28.82,53.49-36.66,6.25-2.36,14.24-4,16.6,2.22s-1.54,12-7.41,15.19c-16.12,8.7-30.84,19.66-42.78,32.76a163.39,163.39,0,0,0-30,48C630.8,893.5,626.48,899.42,621,898Z" style="fill:#f37820;stroke:#3a3632;stroke-miterlimit:10;stroke-width:7.65318572573605px"/><path d="M521.58,931.79c-4.09-5.32-1.87-9.59,2.95-14.27,16.75-16.26,36.13-23.59,57.69-28.62,20.7-4.82,43.75-2.93,65.18,3.59,6.42,2,13.82,5.53,11.87,12S650.66,913.1,644,912c-18.2-3-36.66-3.25-54.23-.13a164.53,164.53,0,0,0-53.36,19.88C532.17,934.29,525.09,936.36,521.58,931.79Z" style="fill:#f37820;stroke:#3a3632;stroke-miterlimit:10;stroke-width:7.70286581766072px"/><path d="M266.57,1053.83c-5.64-3.85-4.85-8.68-1.67-14.72,11-21,27.42-34.2,46.65-45.88C330,982,352.87,976.56,375.62,976.09c6.83-.15,15.11,1,15.25,7.78S385.3,995,378.55,996c-18.51,2.9-36.43,8.46-52.41,17a167.13,167.13,0,0,0-45.24,36.08C277.58,1052.89,271.4,1057.12,266.57,1053.83Z" style="fill:#f37820;stroke:#3a3632;stroke-miterlimit:10;stroke-width:7.82701424864985px"/><path d="M89.74,1220.93c-3.38-4.64-1.39-8.24,2.83-12.13,14.65-13.53,31.37-19.37,49.9-23.2,17.79-3.67,37.44-1.55,55.6,4.48,5.45,1.81,11.7,5,9.89,10.47s-7.54,7.21-13.18,6.14a138.76,138.76,0,0,0-46.33-1.28,140.22,140.22,0,0,0-46,15.83C98.73,1223.3,92.64,1224.9,89.74,1220.93Z" style="fill:#f37820;stroke:#3a3632;stroke-miterlimit:10;stroke-width:6.5827107787216px"/><path d="M187.15,1290.07c-4.4-3.83-3.24-7.86.06-12.67,11.48-16.72,26.74-26.3,44.24-34.28,16.81-7.67,36.77-10,56.15-8.13,5.81.56,12.73,2.34,12.16,8.15s-5.84,8.84-11.68,9.06a141.42,141.42,0,0,0-46.22,9.2,142.85,142.85,0,0,0-42.05,26.1C196.61,1290.38,190.93,1293.35,187.15,1290.07Z" style="fill:#f37820;stroke:#3a3632;stroke-miterlimit:10;stroke-width:6.69461435376066px"/><path d="M368.84,1403.26c-4.41-3.83-3.25-7.85.06-12.66,11.47-16.73,26.73-26.3,44.24-34.29,16.8-7.66,36.77-10,56.14-8.13,5.81.56,12.73,2.34,12.17,8.15s-5.85,8.85-11.68,9.07a135.29,135.29,0,0,0-88.28,35.3C378.29,1403.58,372.61,1406.55,368.84,1403.26Z" style="fill:#f37820;stroke:#3a3632;stroke-miterlimit:10;stroke-width:6.69461435376066px"/><path d="M261,1374.7c-4.4-3.84-3.24-7.86.06-12.67,11.48-16.73,26.73-26.3,44.24-34.29,16.81-7.66,36.77-10,56.14-8.12,5.81.56,12.74,2.33,12.17,8.14s-5.84,8.85-11.68,9.07a141.28,141.28,0,0,0-46.23,9.2,142.9,142.9,0,0,0-42,26.1C270.4,1375,264.73,1378,261,1374.7Z" style="fill:#f37820;stroke:#3a3632;stroke-miterlimit:10;stroke-width:6.69461435376066px"/><path d="M142.78,1245.92c-4.4-3.83-3.25-7.86.06-12.67,11.47-16.72,26.73-26.3,44.24-34.28,16.81-7.67,36.77-10,56.14-8.13,5.81.56,12.73,2.34,12.17,8.15s-5.85,8.84-11.68,9.06a141.48,141.48,0,0,0-46.23,9.2,143.11,143.11,0,0,0-42,26.1C152.23,1246.23,146.55,1249.2,142.78,1245.92Z" style="fill:#f37820;stroke:#3a3632;stroke-miterlimit:10;stroke-width:6.69461435376066px"/><path d="M385.78,1404.38c-3.5,5.57-8.18,5-14.11,2.15-20.63-9.86-33.95-25.17-45.9-43.27-11.47-17.38-17.56-39.2-18.85-61.09-.39-6.57.38-14.59,6.95-15s10.87,5,12.13,11.42c3.47,17.72,9.48,34.78,18.31,49.86a160.83,160.83,0,0,0,36.41,42.26C384.48,1393.81,388.78,1399.61,385.78,1404.38Z" style="fill:#f37820;stroke:#3a3632;stroke-miterlimit:10;stroke-width:7.54483168700662px"/><path d="M181.83,1332c1.13-6.79,5.89-8.1,12.77-7.75,23.9,1.22,43,10.65,61.78,23.33,18.08,12.17,32.75,30.8,42.82,51.45,3,6.18,5.51,14.24-.68,17.26s-12.51-.42-16.33-6.15c-10.49-15.73-23.17-29.8-37.78-40.81a168.53,168.53,0,0,0-52.2-26.19C187.34,1341.72,180.85,1337.85,181.83,1332Z" style="fill:#f37820;stroke:#3a3632;stroke-miterlimit:10;stroke-width:7.8988609750613px"/><path d="M398.51,1272c3.13-5.32,7.53-4.9,13.17-2.41,19.59,8.66,32.51,22.63,44.21,39.25,11.23,16,17.55,36.23,19.37,56.71.55,6.14.06,13.67-6.08,14.21s-10.33-4.34-11.69-10.35a142.91,142.91,0,0,0-53.85-84.77C400,1281.85,395.84,1276.54,398.51,1272Z" style="fill:#f37820;stroke:#3a3632;stroke-miterlimit:10;stroke-width:7.07135851984654px"/><path d="M435.27,1320.23c-1.68-6.12,1.79-9.06,7.67-11.43,20.45-8.24,40-7.74,60.67-4.45,19.83,3.17,39.31,13.05,55.72,26.4,4.92,4,10.12,9.77,6.12,14.69s-10.61,4.5-16,1.19A153.74,153.74,0,0,0,502,1327.16a155.37,155.37,0,0,0-53.76-1.65C443.64,1326.2,436.71,1325.47,435.27,1320.23Z" style="fill:#f37820;stroke:#3a3632;stroke-miterlimit:10;stroke-width:7.27612033828578px"/><path d="M505.66,1457.32c-2.75,6.22-7.62,6.32-14.12,4.3-22.57-7-38.48-20.7-53.4-37.43-14.32-16.07-23.81-37.49-28.39-59.7-1.38-6.66-1.78-15,4.88-16.35s11.86,3.46,14.12,9.88c6.18,17.61,14.87,34.18,26.16,48.29a166.48,166.48,0,0,0,43.54,37.81C502.76,1446.69,508,1452,505.66,1457.32Z" style="fill:#f37820;stroke:#3a3632;stroke-miterlimit:10;stroke-width:7.80057135743186px"/><path d="M726.88,1227.4c5.18,4.35,3.92,9,.2,14.67-12.93,19.62-30.39,31-50.5,40.66-19.3,9.24-42.37,12.38-64.85,10.62-6.74-.53-14.79-2.44-14.26-9.18s6.58-10.37,13.33-10.75c18.53-1,36.75-4.77,53.34-11.65a165.18,165.18,0,0,0,48.14-31.13C715.93,1227.24,722.44,1223.68,726.88,1227.4Z" style="fill:#f37820;stroke:#3a3632;stroke-miterlimit:10;stroke-width:7.75469064691427px"/><path d="M501.73,1207.45c3.16,6,.23,9.85-5.34,13.69-19.38,13.31-39.87,17.32-62.14,18.67-21.37,1.3-43.95-4.48-64.12-14.58-6.06-3-12.8-7.83-9.78-13.88s10-7.14,16.42-4.95c17.57,6,35.87,9.43,53.84,9.3A165.68,165.68,0,0,0,487,1205C491.63,1203.18,499,1202.33,501.73,1207.45Z" style="fill:#f37820;stroke:#3a3632;stroke-miterlimit:10;stroke-width:7.76052747728537px"/><path d="M442.58,1177c-4.62-3.63-3.66-7.73-.58-12.74,10.69-17.39,25.53-27.79,42.73-36.7,16.5-8.56,36.45-11.92,56-11,5.87.27,12.92,1.7,12.65,7.57s-5.43,9.19-11.28,9.71a136.11,136.11,0,0,0-86.94,40C452.1,1176.82,446.54,1180.1,442.58,1177Z" style="fill:#f37820;stroke:#3a3632;stroke-miterlimit:10;stroke-width:6.73738688816178px"/><path d="M422.88,1436.74c-4.62-3.63-3.66-7.73-.59-12.74,10.69-17.39,25.54-27.79,42.73-36.7,16.51-8.56,36.45-11.93,56-11,5.87.27,12.91,1.7,12.64,7.57s-5.43,9.19-11.28,9.71a142.05,142.05,0,0,0-46,11.59,143.87,143.87,0,0,0-40.94,28.37C432.39,1436.57,426.84,1439.85,422.88,1436.74Z" style="fill:#f37820;stroke:#3a3632;stroke-miterlimit:10;stroke-width:6.73738688816178px"/><path d="M582.17,1285.45c-5.48,4.27-9.92,2-14.79-3-16.93-17.23-24.64-37.25-30-59.53-5.13-21.4-3.31-45.26,3.31-67.48,2-6.66,5.63-14.35,12.29-12.36s9,8.85,7.94,15.72c-3,18.85-3.14,38,.2,56.13a170.28,170.28,0,0,0,20.91,55.1C584.7,1274.47,586.88,1281.79,582.17,1285.45Z" style="fill:#f37820;stroke:#3a3632;stroke-miterlimit:10;stroke-width:7.97237530598542px"/><path d="M410.27,1170c-3.55,5.1-7.94,4.33-13.41,1.38-19-10.23-30.88-25.28-41.32-42.89-10-16.91-14.79-37.76-15-58.48-.07-6.21,1-13.74,7.23-13.8s10,5.17,10.93,11.32a150.29,150.29,0,0,0,15,47.86,152.2,152.2,0,0,0,32.42,41.52C409.53,1159.94,413.32,1165.61,410.27,1170Z" style="fill:#f37820;stroke:#3a3632;stroke-miterlimit:10;stroke-width:7.12474392273998px"/><path d="M537,1105.29c-5.43,2.1-8.44-.8-11.14-6-9.4-17.9-10.74-35.81-9.63-54.95,1.06-18.39,8.29-37.08,19-53.28,3.2-4.86,8-10.13,12.85-6.93s5.08,9.27,2.56,14.51a140.66,140.66,0,0,0-13.41,45,142.28,142.28,0,0,0,3.43,49.21C541.71,1097.1,541.69,1103.49,537,1105.29Z" style="fill:#f37820;stroke:#3a3632;stroke-miterlimit:10;stroke-width:6.67347305271916px"/><path d="M544,1033.13c-2.7-5.91.32-9.46,5.88-12.83,19.32-11.68,39.19-14.39,60.62-14.44,20.57-.06,41.89,6.73,60.67,17.54,5.64,3.24,11.84,8.22,8.6,13.85s-10,6.29-16,3.83c-16.52-6.74-33.87-11-51.11-11.9a159,159,0,0,0-54.64,7.15C553.48,1037.78,546.35,1038.19,544,1033.13Z" style="fill:#f37820;stroke:#3a3632;stroke-miterlimit:10;stroke-width:7.45349838946257px"/><path d="M520.83,886.55c3.81-4.56,7.92-3.46,12.89-.2C551,897.68,561,913,569.51,930.64c8.14,17,10.93,37.21,9.42,57-.45,5.92-2.11,13-8,12.55s-9.12-5.77-9.46-11.7a143.89,143.89,0,0,0-10.31-46.84,145.35,145.35,0,0,0-27.42-42.24C520.71,896.17,517.57,890.45,520.83,886.55Z" style="fill:#f37820;stroke:#3a3632;stroke-miterlimit:10;stroke-width:6.81177080201192px"/><path d="M697.71,1210.85c-4.36-4.87-2.52-9.18,1.82-14.08,15.09-17,33.39-25.55,54-32,19.76-6.2,42.29-6,63.58-1.26,6.39,1.42,13.84,4.36,12.41,10.74s-7.73,9-14.25,8.47c-17.9-1.54-35.86-.48-52.7,3.83a160.09,160.09,0,0,0-50.4,23.21C708.18,1212.51,701.46,1215,697.71,1210.85Z" style="fill:#f37820;stroke:#3a3632;stroke-miterlimit:10;stroke-width:7.50509602487469px"/><path d="M677.3,1098.83c-3.32-5.38-.83-9.16,4.13-13.07,17.23-13.59,36.06-18.57,56.71-21.19,19.82-2.52,41.19,1.47,60.6,9.64,5.82,2.45,12.4,6.5,10,12.32s-8.88,7.27-15,5.62c-16.73-4.52-34-6.58-50.7-5.36a154.55,154.55,0,0,0-51.82,13.45C687,1102.19,680.14,1103.43,677.3,1098.83Z" style="fill:#f37820;stroke:#3a3632;stroke-miterlimit:10;stroke-width:7.24163755741269px"/><path d="M902.13,1031.39c-5.18,3.58-9.08,1.3-13.24-3.43-14.45-16.44-20.41-34.94-24.12-55.37-3.56-19.62-.71-41.12,6.4-60.89,2.13-5.93,5.82-12.7,11.75-10.57s7.7,8.47,6.39,14.63c-3.62,16.91-4.76,34.2-2.65,50.8a153.88,153.88,0,0,0,16.14,50.91C905,1021.58,906.56,1028.31,902.13,1031.39Z" style="fill:#f37820;stroke:#3a3632;stroke-miterlimit:10;stroke-width:7.22472389001544px"/><path d="M814,1004.6c-6.26,3-10.08-.22-13.74-6.1-12.72-20.43-15.86-41.56-16.21-64.39-.34-21.92,6.62-44.73,17.88-64.89,3.37-6,8.59-12.72,14.64-9.34s6.84,10.56,4.3,17c-7,17.7-11.3,36.24-12,54.62a169.28,169.28,0,0,0,8.36,58.12C818.78,994.47,819.31,1002.06,814,1004.6Z" style="fill:#f37820;stroke:#3a3632;stroke-miterlimit:10;stroke-width:7.94268149148152px"/><path d="M722.83,904.91c1.14-5.92,5.33-7,11.35-6.52,20.89,1.58,37.35,10.25,53.56,21.75,15.56,11,28,27.66,36.37,45.94,2.51,5.48,4.51,12.59-1,15.1s-10.94-.64-14.16-5.74a146,146,0,0,0-32.18-36.53,147.6,147.6,0,0,0-45.12-24C727.45,913.51,721.85,910,722.83,904.91Z" style="fill:#f37820;stroke:#3a3632;stroke-miterlimit:10;stroke-width:6.91487198094018px"/><path d="M720.43,958.86c-5.78,1.74-8.66-1.5-11-7-8.3-19.28-8.25-37.91-5.58-57.64,2.58-18.94,11.55-37.7,23.89-53.62,3.69-4.77,9.07-9.85,13.84-6.15s4.52,10,1.49,15.23a140,140,0,0,0-17.85,96.73C725.92,950.76,725.39,957.37,720.43,958.86Z" style="fill:#f37820;stroke:#3a3632;stroke-miterlimit:10;stroke-width:6.92649708296844px"/><path d="M939,873.13c-1.42-6.15,2.15-8.94,8.1-11,20.67-7.33,40.1-6,60.49-1.86,19.58,4,38.53,14.63,54.27,28.59,4.73,4.18,9.66,10.14,5.47,14.86s-10.74,4-16,.51a152.56,152.56,0,0,0-46.28-21.35,154.35,154.35,0,0,0-53.38-3.9C947.07,879.41,940.22,878.4,939,873.13Z" style="fill:#f37820;stroke:#3a3632;stroke-miterlimit:10;stroke-width:7.23885054901642px"/><path d="M1228,1016.37c-5,4.34-9.27,2.43-14.15-2-16.94-15.38-25.32-33.89-31.58-54.68-6-20-5.59-42.63-.53-64,1.51-6.41,4.55-13.88,11-12.36s9,7.88,8.35,14.43c-1.76,18-.9,36.08,3.24,53.08a161.34,161.34,0,0,0,22.77,51C1229.78,1005.86,1232.24,1012.66,1228,1016.37Z" style="fill:#f37820;stroke:#3a3632;stroke-miterlimit:10;stroke-width:7.55235895285443px"/><path d="M1123.9,1000.14c-2.34-5.8.72-9.08,6.22-12.07,19.08-10.38,38.29-12.1,58.89-11.22,19.77.86,40,8.32,57.54,19.53,5.27,3.36,11,8.42,7.65,13.69s-9.88,5.61-15.55,3c-15.58-7.2-32.07-12.09-48.6-13.69a153.07,153.07,0,0,0-52.83,4.48C1132.77,1005,1125.91,1005.11,1123.9,1000.14Z" style="fill:#f37820;stroke:#3a3632;stroke-miterlimit:10;stroke-width:7.170874529317px"/><path d="M1014.38,1021.33c-.46-6,3.3-8.12,9.21-9.27,20.52-4,38.65,0,57.29,6.81,17.89,6.52,34.25,19.23,47.12,34.62,3.86,4.61,7.66,10.92,3,14.79s-10.7,2.27-15.14-1.79a139.41,139.41,0,0,0-90.38-37.9C1021.1,1028.39,1014.78,1026.47,1014.38,1021.33Z" style="fill:#f37820;stroke:#3a3632;stroke-miterlimit:10;stroke-width:6.90090108318731px"/><path d="M979.24,1112.18c-4.17-4.29-2.64-8.3,1.15-12.93,13.17-16.09,29.58-24.56,48.15-31.21,17.83-6.38,38.42-7,58-3.46,5.89,1.07,12.8,3.48,11.73,9.37s-6.74,8.53-12.71,8.25a138.77,138.77,0,0,0-93.22,28.45C988.87,1113.32,982.81,1115.87,979.24,1112.18Z" style="fill:#f37820;stroke:#3a3632;stroke-miterlimit:10;stroke-width:6.86283311139874px"/><path d="M874.63,1168.18c0-6.52,4.28-8.47,10.76-9.19,22.52-2.49,41.75,3.43,61.27,12.42,18.74,8.63,35.29,23.8,47.83,41.56,3.76,5.33,7.31,12.48,2,16.24s-11.75,1.51-16.19-3.27c-12.19-13.1-26.18-24.32-41.5-32.39A159.49,159.49,0,0,0,886,1177C881.26,1176.4,874.6,1173.77,874.63,1168.18Z" style="fill:#f37820;stroke:#3a3632;stroke-miterlimit:10;stroke-width:7.47761810134324px"/><path d="M822.8,1299.87c-5.66-3.45-5.14-8.17-2.36-14.2,9.64-20.93,24.89-34.58,43-46.88,17.35-11.81,39.26-18.26,61.32-19.87,6.61-.49,14.7.17,15.19,6.79s-4.86,11-11.35,12.39c-17.81,3.75-34.93,10.05-50,19.17a162.45,162.45,0,0,0-42.09,37.3C833.45,1298.41,827.66,1302.83,822.8,1299.87Z" style="fill:#f37820;stroke:#3a3632;stroke-miterlimit:10;stroke-width:7.6067565570973px"/><path d="M681.64,1327.5c-5.35-4-4.35-8.74-.95-14.52,11.81-20.09,28.52-32.29,47.94-42.85,18.64-10.13,41.33-14.42,63.68-13.83,6.7.18,14.77,1.65,14.6,8.36s-6,10.61-12.66,11.33c-18.3,2-36.15,6.6-52.23,14.26a164.32,164.32,0,0,0-46.09,33.29C692.5,1327.1,686.23,1331,681.64,1327.5Z" style="fill:#f37820;stroke:#3a3632;stroke-miterlimit:10;stroke-width:7.6901927443422px"/><path d="M1135.29,1415.72c-4.91,4.47-9.3,2.62-14.3-1.74-17.36-15.18-26.15-33.68-32.84-54.51-6.43-20-6.43-42.84-1.73-64.47,1.4-6.49,4.32-14.07,10.81-12.66s9.21,7.78,8.69,14.39c-1.44,18.16-.24,36.37,4.25,53.42a162.4,162.4,0,0,0,23.9,50.95C1136.89,1405.09,1139.5,1411.9,1135.29,1415.72Z" style="fill:#f37820;stroke:#3a3632;stroke-miterlimit:10;stroke-width:7.61146119481171px"/><path d="M1405.13,1291.42c1.78-6.14,6.3-6.84,12.6-5.77,21.89,3.7,38.41,14.44,54.4,28.14,15.34,13.17,26.85,31.91,33.9,52,2.12,6,3.54,13.71-2.49,15.83s-11.48-1.74-14.38-7.43c-8-15.62-18.13-29.94-30.4-41.66a156.2,156.2,0,0,0-45.26-29.74C1409.16,1300.94,1403.6,1296.67,1405.13,1291.42Z" style="fill:#f37820;stroke:#3a3632;stroke-miterlimit:10;stroke-width:7.3258718413461px"/><path d="M1461.51,1372.38c-5.09-3.91-4.09-8.4-.8-13.91,11.45-19.14,27.54-30.7,46.21-40.67,17.92-9.56,39.67-13.5,61.07-12.77,6.41.22,14.13,1.69,13.91,8.11s-5.81,10.11-12.2,10.75c-17.53,1.77-34.66,6.06-50.11,13.27a157.07,157.07,0,0,0-44.36,31.53C1471.91,1372.07,1465.88,1375.73,1461.51,1372.38Z" style="fill:#f37820;stroke:#3a3632;stroke-miterlimit:10;stroke-width:7.36262909263886px"/><path d="M1578.18,1208.15c4-4.76,8.32-3.59,13.5-.15,18,12,28.47,28,37.27,46.58,8.45,17.79,11.27,39,9.59,59.7-.5,6.2-2.28,13.61-8.48,13.1s-9.53-6.08-9.86-12.3a144.2,144.2,0,0,0-39.08-93.49C1578,1218.22,1574.74,1212.22,1578.18,1208.15Z" style="fill:#f37820;stroke:#3a3632;stroke-miterlimit:10;stroke-width:7.13546383283392px"/><path d="M1639.81,1281.5c-1.1-6.64,2.88-9.36,9.35-11.21,22.46-6.42,43-3.72,64.44,2,20.55,5.53,40,18.1,55.81,34,4.75,4.76,9.59,11.41,4.82,16.16s-11.68,3.56-17-.52c-14.66-11.22-30.82-20.21-47.8-25.77a164.46,164.46,0,0,0-56.48-7.68C1648,1288.71,1640.75,1287.18,1639.81,1281.5Z" style="fill:#f37820;stroke:#3a3632;stroke-miterlimit:10;stroke-width:7.7115254478266px"/><path d="M1792.37,1346.36c-3.82,5.37-8.47,4.51-14.24,1.32-20.05-11.06-32.48-27.15-43.37-46-10.45-18-15.27-40.22-15.28-62.19,0-6.59,1.23-14.56,7.82-14.56s10.58,5.6,11.47,12.13c2.43,17.92,7.44,35.34,15.4,50.93a161.37,161.37,0,0,0,33.93,44.39C1791.69,1335.71,1795.65,1341.76,1792.37,1346.36Z" style="fill:#f37820;stroke:#3a3632;stroke-miterlimit:10;stroke-width:7.55764758259645px"/><path d="M1677.7,1218c-2.51-5.2.1-8.4,5-11.5,16.92-10.75,34.51-13.53,53.52-14,18.26-.44,37.32,5.17,54.2,14.4,5.06,2.77,10.66,7.07,7.9,12.13s-8.75,5.77-14.14,3.71a139.88,139.88,0,0,0-45.6-9.58,141.48,141.48,0,0,0-48.35,7.41C1686.17,1221.93,1679.86,1222.43,1677.7,1218Z" style="fill:#f37820;stroke:#3a3632;stroke-miterlimit:10;stroke-width:6.61726494659046px"/><path d="M1774.34,1204.92c-6.45.13-8.48-4-9.34-10.43-3-22.21,2.42-41.37,10.85-60.89,8.1-18.75,22.73-35.46,40-48.28,5.18-3.85,12.17-7.52,16-2.34s1.76,11.58-2.86,16.09a156.08,156.08,0,0,0-31.08,41.81,157.74,157.74,0,0,0-15.12,52.56C1782.32,1198.17,1779.87,1204.82,1774.34,1204.92Z" style="fill:#f37820;stroke:#3a3632;stroke-miterlimit:10;stroke-width:7.39902928825336px"/><path d="M1672.27,1060.89c3.57-4.6,7.64-3.67,12.61-.65,17.28,10.49,27.66,25.14,36.57,42.12,8.57,16.3,12,36,11.21,55.41-.23,5.82-1.61,12.8-7.43,12.56s-9.13-5.32-9.67-11.11a140.82,140.82,0,0,0-11.72-45.49,142.37,142.37,0,0,0-28.31-40.4C1672.49,1070.31,1669.21,1064.82,1672.27,1060.89Z" style="fill:#f37820;stroke:#3a3632;stroke-miterlimit:10;stroke-width:6.67209088890119px"/><path d="M1608.33,1181.52c-6.2,1.62-9.13-1.92-11.46-7.89-8.08-20.76-7.33-40.52-3.75-61.35,3.43-20,13.65-39.56,27.33-56,4.1-4.92,10-10.11,14.92-6s4.42,10.78,1,16.21c-9.35,14.9-16.46,31-20.24,47.64a156.68,156.68,0,0,0-2.31,54.3C1614.46,1173.13,1613.65,1180.12,1608.33,1181.52Z" style="fill:#f37820;stroke:#3a3632;stroke-miterlimit:10;stroke-width:7.35165924357014px"/><path d="M1632.18,1064.76c-2.55,6-7.23,6.15-13.48,4.29-21.71-6.44-37.14-19.36-51.64-35.21-13.93-15.23-23.28-35.63-28-56.87-1.4-6.36-1.9-14.33,4.47-15.73s11.42,3.17,13.66,9.3c6.15,16.8,14.68,32.57,25.67,46a159.53,159.53,0,0,0,42.2,35.71C1629.27,1054.61,1634.38,1059.62,1632.18,1064.76Z" style="fill:#f37820;stroke:#3a3632;stroke-miterlimit:10;stroke-width:7.47685566730721px"/><path d="M1338.66,1074.41c-6.34-1-7.62-5.39-7.38-11.8.83-22.27,9.37-40.12,20.94-57.81,11.11-17,28.27-30.89,47.36-40.52,5.72-2.9,13.19-5.31,16.08.41s-.23,11.65-5.52,15.28c-14.51,10-27.45,21.95-37.52,35.7a156.72,156.72,0,0,0-23.72,48.93C1347.62,1069.15,1344.1,1075.24,1338.66,1074.41Z" style="fill:#f37820;stroke:#3a3632;stroke-miterlimit:10;stroke-width:7.35524447740096px"/><path d="M1471.43,1026.81c-1.58,6.37-6.2,7.27-12.7,6.43-22.59-2.92-40-13.27-56.91-26.68-16.26-12.88-28.82-31.64-36.85-52-2.42-6.1-4.19-13.93,1.91-16.34s11.84,1.32,15,7c8.8,15.7,19.8,30,32.86,41.5a160.37,160.37,0,0,0,47.61,28.68C1466.9,1017.21,1472.78,1021.36,1471.43,1026.81Z" style="fill:#f37820;stroke:#3a3632;stroke-miterlimit:10;stroke-width:7.5180676173396px"/><path d="M1427.38,934.92c-1.6-5.72,1.63-8.49,7.14-10.74,19.12-7.79,37.46-7.39,56.81-4.38,18.59,2.89,36.88,12.08,52.3,24.52,4.63,3.73,9.52,9.12,5.79,13.74s-9.93,4.25-15,1.17a137.7,137.7,0,0,0-94.84-19.4C1435.24,940.48,1428.74,939.83,1427.38,934.92Z" style="fill:#f37820;stroke:#3a3632;stroke-miterlimit:10;stroke-width:6.81626122777706px"/><path d="M1313.47,964.25c-3.82,5-8.23,4-13.64.82-18.81-11.19-30.18-27-40-45.24-9.42-17.56-13.33-38.89-12.66-59.88.2-6.29,1.63-13.87,7.93-13.67s9.93,5.68,10.57,12a145.89,145.89,0,0,0,44.15,92.58C1313.15,954.06,1316.74,960,1313.47,964.25Z" style="fill:#f37820;stroke:#3a3632;stroke-miterlimit:10;stroke-width:7.22234238872299px"/><path d="M1457.68,855.66c.38,6.79-3.92,9.09-10.62,10.25-23.29,4-43.68-.93-64.58-9-20.06-7.8-38.25-22.55-52.43-40.25-4.26-5.3-8.4-12.52-3.1-16.77s12.14-2.32,17.07,2.37c13.52,12.87,28.79,23.67,45.26,31.1a166.33,166.33,0,0,0,56,13.87C1450.25,847.51,1457.35,849.84,1457.68,855.66Z" style="fill:#f37820;stroke:#3a3632;stroke-miterlimit:10;stroke-width:7.79996470610161px"/><path d="M1451.55,995.64c-5.87-.06-7.61-3.9-8.22-9.74-2.13-20.3,3.3-37.6,11.5-55.15,7.88-16.85,21.64-31.67,37.71-42.88,4.82-3.37,11.28-6.53,14.64-1.71s1.3,10.6-3,14.58A142,142,0,0,0,1474.74,938a143.77,143.77,0,0,0-15.17,47.45C1459,989.71,1456.59,995.7,1451.55,995.64Z" style="fill:#f37820;stroke:#3a3632;stroke-miterlimit:10;stroke-width:6.73873336786959px"/><path d="M1728.85,1006.45c-1.58,6.74-6.43,7.75-13.3,7-23.86-2.75-42.34-13.42-60.39-27.33-17.34-13.35-30.85-33-39.61-54.27-2.63-6.4-4.6-14.63,1.79-17.25s12.5,1.22,16,7.2c9.51,16.43,21.31,31.34,35.24,43.3a169.13,169.13,0,0,0,50.62,29.57C1723.94,996.39,1730.2,1000.68,1728.85,1006.45Z" style="fill:#f37820;stroke:#3a3632;stroke-miterlimit:10;stroke-width:7.9291387815928px"/><path d="M1436.43,1146.06c-3.29-6.14-.29-10.13,5.44-14.1,19.89-13.77,41-18,63.86-19.44,22-1.42,45.24,4.44,66,14.76,6.24,3.08,13.2,8,10.11,14.24s-10.28,7.38-16.87,5.15c-18.11-6.12-37-9.56-55.44-9.36a170.33,170.33,0,0,0-58,11.26C1446.83,1150.42,1439.24,1151.32,1436.43,1146.06Z" style="fill:#f37820;stroke:#3a3632;stroke-miterlimit:10;stroke-width:7.98534689845033px"/><path d="M1518.37,1296.78c-4.42,5-9,3.67-14.51-.15-19.08-13.25-29.94-30.78-39-50.88-8.67-19.3-11.22-42.17-9-64.35.68-6.65,2.76-14.56,9.41-13.88s10.09,6.75,10.31,13.43c.59,18.35,3.83,36.44,10.24,53a163.82,163.82,0,0,0,29.62,48.33C1518.79,1286,1522.16,1292.48,1518.37,1296.78Z" style="fill:#f37820;stroke:#3a3632;stroke-miterlimit:10;stroke-width:7.66676405536191px"/><path d="M1361.31,1408.92c-1.15-6.11,2.48-8.71,8.42-10.55,20.66-6.4,39.75-4.33,59.67.57,19.13,4.7,37.37,15.94,52.33,30.32,4.49,4.31,9.11,10.38,4.79,14.86s-10.74,3.54-15.76-.13a150.61,150.61,0,0,0-44.75-22.88,152.47,152.47,0,0,0-52.43-6C1369,1415.43,1362.29,1414.17,1361.31,1408.92Z" style="fill:#f37820;stroke:#3a3632;stroke-miterlimit:10;stroke-width:7.13752406984663px"/><path d="M1335.39,1464.94c-2.8-5.56,0-9.06,5.17-12.48,18.06-11.89,37-15.2,57.48-16,19.68-.79,40.32,4.94,58.69,14.6,5.51,2.89,11.63,7.43,8.73,12.94s-9.33,6.38-15.18,4.25a150.62,150.62,0,0,0-49.34-9.55,152.26,152.26,0,0,0-52,8.83C1344.6,1469.05,1337.8,1469.7,1335.39,1464.94Z" style="fill:#f37820;stroke:#3a3632;stroke-miterlimit:10;stroke-width:7.13752406984663px"/><path d="M172.24,1193.22c-6.26.5-8.48-3.42-9.7-9.58-4.22-21.42-.11-40.36,6.93-59.84,6.76-18.7,20-35.82,36-49.31,4.81-4,11.38-8,15.43-3.23s2.4,11.16-1.82,15.81a152.15,152.15,0,0,0-27.72,42.49,153.7,153.7,0,0,0-11.58,52C179.6,1186.18,177.61,1192.79,172.24,1193.22Z" style="fill:#f37820;stroke:#3a3632;stroke-miterlimit:10;stroke-width:7.20546438397823px"/><path d="M359.33,1246.36c-1.92,6.68-6.84,7.45-13.7,6.31-23.82-4-41.82-15.62-59.24-30.5-16.73-14.28-29.3-34.64-37-56.49-2.32-6.55-3.88-14.92,2.67-17.23s12.49,1.86,15.66,8c8.7,17,19.8,32.54,33.17,45.26A170.1,170.1,0,0,0,350.2,1234C354.91,1236,361,1240.64,359.33,1246.36Z" style="fill:#f37820;stroke:#3a3632;stroke-miterlimit:10;stroke-width:7.97020799518458px"/><path d="M677.88,1279.8c-1.6,5.83-5.88,6.56-11.86,5.65-20.79-3.18-36.6-13.11-51.95-25.86-14.73-12.25-25.91-29.83-32.89-48.77-2.09-5.67-3.55-12.94,2.13-15s10.89,1.47,13.73,6.82a146.45,146.45,0,0,0,29.42,39,148.05,148.05,0,0,0,43.32,27.51C673.91,1270.83,679.25,1274.79,677.88,1279.8Z" style="fill:#f37820;stroke:#3a3632;stroke-miterlimit:10;stroke-width:6.94127914513267px"/><path d="M658.58,1209.22c-6.1-.25-7.78-4.3-8.23-10.39-1.54-21.16,4.67-38.95,13.76-56.91,8.73-17.24,23.51-32.19,40.57-43.31,5.11-3.34,11.92-6.41,15.26-1.29s1,11-3.62,15a147.8,147.8,0,0,0-31.77,37.71,149.47,149.47,0,0,0-17.31,48.79C666.5,1203.31,663.81,1209.44,658.58,1209.22Z" style="fill:#f37820;stroke:#3a3632;stroke-miterlimit:10;stroke-width:7.00334688040999px"/><path d="M818,1269.13c3.93-4.35,8-3.11,12.72.3,16.57,11.83,25.89,27.32,33.58,45,7.38,17,9.36,37.1,7.11,56.5-.67,5.83-2.58,12.74-8.4,12.07s-8.78-6-8.89-11.9a141.46,141.46,0,0,0-8.37-46.57,143.33,143.33,0,0,0-25.41-42.69C817.52,1278.61,814.64,1272.86,818,1269.13Z" style="fill:#f37820;stroke:#3a3632;stroke-miterlimit:10;stroke-width:6.72054456752716px"/><path d="M697.07,1434.16c-5.17-3.07-4.75-7.36-2.29-12.86,8.53-19.09,22.23-31.64,38.5-43,15.63-10.9,35.45-17,55.45-18.68,6-.51,13.35,0,13.85,6s-4.28,10.07-10.16,11.37a145.56,145.56,0,0,0-45.18,17.93,147.17,147.17,0,0,0-37.81,34.29C706.72,1432.73,701.51,1436.8,697.07,1434.16Z" style="fill:#f37820;stroke:#3a3632;stroke-miterlimit:10;stroke-width:6.90411638673609px"/><path d="M922,1339.59c-3.12-5.35-.59-9,4.37-12.71,17.2-12.9,35.78-17.34,56.08-19.42,19.49-2,40.33,2.43,59.16,10.9,5.64,2.53,12,6.67,9.46,12.31s-8.88,6.91-14.82,5.15a149.74,149.74,0,0,0-49.56-6.46,151.32,151.32,0,0,0-51.1,12C931.41,1343.11,924.7,1344.17,922,1339.59Z" style="fill:#f37820;stroke:#3a3632;stroke-miterlimit:10;stroke-width:7.09902780290555px"/><path d="M1055.62,1479.82c2.81,5.51.08,9-5.07,12.44-17.91,11.92-36.71,15.3-57.09,16.24-19.57.89-40.14-4.7-58.45-14.21-5.5-2.85-11.61-7.33-8.75-12.83s9.25-6.39,15.08-4.3a143.44,143.44,0,0,0,100.81.18C1046.44,1475.78,1053.2,1475.1,1055.62,1479.82Z" style="fill:#f37820;stroke:#3a3632;stroke-miterlimit:10;stroke-width:7.09902780290555px"/><path d="M1194.71,1355.34c-3.64,5.93-8.6,5.37-14.91,2.44-21.94-10.18-36.23-26.21-49.09-45.21-12.35-18.25-19.07-41.25-20.7-64.4-.5-7,.22-15.44,7.16-15.93s11.57,5.12,13,11.94c3.89,18.7,10.46,36.68,20,52.53a170.43,170.43,0,0,0,39,44.26C1193.2,1344.16,1197.82,1350.25,1194.71,1355.34Z" style="fill:#f37820;stroke:#3a3632;stroke-miterlimit:10;stroke-width:7.98288106850311px"/><path d="M1185.57,1256.62c-3.83-4.73-1.91-8.65,2.35-13,14.8-15.09,32.19-22.16,51.6-27.18,18.63-4.83,39.54-3.62,59.08,1.81,5.86,1.63,12.64,4.7,11,10.56s-7.6,8-13.62,7.19a141,141,0,0,0-97,20.26C1195.21,1258.65,1188.84,1260.67,1185.57,1256.62Z" style="fill:#f37820;stroke:#3a3632;stroke-miterlimit:10;stroke-width:6.97582033379159px"/><path d="M1188.14,1202.16c-1.22,6-5.49,7-11.58,6.49-21.17-1.84-37.77-10.8-54.09-22.64-15.66-11.37-28.1-28.36-36.38-47-2.49-5.59-4.44-12.81,1.14-15.3s11.09.77,14.3,6a147.82,147.82,0,0,0,32.24,37.4,149.73,149.73,0,0,0,45.5,24.86C1183.55,1193.39,1189.19,1197,1188.14,1202.16Z" style="fill:#f37820;stroke:#3a3632;stroke-miterlimit:10;stroke-width:7.01326860798473px"/><path d="M1091.4,1505.63c-1.22,6-5.49,7-11.58,6.48-21.17-1.83-37.77-10.79-54.08-22.63-15.67-11.37-28.11-28.36-36.39-47-2.49-5.59-4.44-12.82,1.15-15.3s11.08.76,14.29,6a141.83,141.83,0,0,0,77.74,62.26C1086.81,1496.85,1092.45,1500.49,1091.4,1505.63Z" style="fill:#f37820;stroke:#3a3632;stroke-miterlimit:10;stroke-width:7.01326860798473px"/><path d="M1408.59,1179.25c-5.19,3.52-9,1.2-13.14-3.55-14.21-16.53-20-35-23.42-55.39-3.34-19.58-.27-41,7-60.56,2.18-5.88,5.93-12.58,11.81-10.39s7.58,8.51,6.2,14.62a152.1,152.1,0,0,0-3.18,50.56,153.7,153.7,0,0,0,15.53,50.86C1411.52,1169.52,1413.05,1176.23,1408.59,1179.25Z" style="fill:#f37820;stroke:#3a3632;stroke-miterlimit:10;stroke-width:7.19387492314478px"/><path d="M1298.37,1200.8c.66-6.2,4.89-7.66,11.13-7.71,21.67-.21,39.4,7.27,57.12,17.7,17,10,31.31,26,41.54,44.16,3.07,5.42,5.76,12.57.33,15.64s-11.33.31-15.1-4.66A151.11,151.11,0,0,0,1357,1231.1a152.63,152.63,0,0,0-48.63-20.8C1303.89,1209.26,1297.81,1206.12,1298.37,1200.8Z" style="fill:#f37820;stroke:#3a3632;stroke-miterlimit:10;stroke-width:7.15385374521628px"/><path d="M1288.63,1401.25c-5.9,2.61-9.38-.43-12.64-6-11.35-19.31-13.78-39-13.57-60.3.21-20.4,7.21-41.46,18.17-60,3.28-5.55,8.3-11.64,13.84-8.36s6.11,10,3.6,15.93c-6.89,16.3-11.36,33.45-12.45,50.54a157.74,157.74,0,0,0,6.41,54.28C1293.37,1392,1293.68,1399,1288.63,1401.25Z" style="fill:#f37820;stroke:#3a3632;stroke-miterlimit:10;stroke-width:7.39287119360253px"/><path d="M1675.05,1255.09c-3.49,4.6-7.54,3.73-12.51.79-17.29-10.22-27.76-24.64-36.82-41.4-8.7-16.08-12.34-35.64-11.78-54.9.16-5.77,1.45-12.73,7.23-12.56s9.12,5.18,9.73,10.93a139.89,139.89,0,0,0,12.18,45,141.38,141.38,0,0,0,28.59,39.77C1674.73,1245.73,1678,1251.14,1675.05,1255.09Z" style="fill:#f37820;stroke:#3a3632;stroke-miterlimit:10;stroke-width:6.62631716634104px"/><path d="M1637.07,1174.91c-5.89-2-6.41-6.38-5.15-12.46,4.38-21.13,15.41-36.8,29.31-51.83,13.34-14.44,32-24.95,51.74-31.07,5.93-1.84,13.45-3,15.29,3s-2.1,11.08-7.73,13.7a150.25,150.25,0,0,0-41.57,28,152.06,152.06,0,0,0-30.53,42.91C1646.48,1171.33,1642.13,1176.58,1637.07,1174.91Z" style="fill:#f37820;stroke:#3a3632;stroke-miterlimit:10;stroke-width:7.12263497680962px"/><path d="M1839.56,1198.72c6.18,2.14,6.66,6.8,5.24,13.19-4.93,22.18-16.78,38.51-31.64,54.14-14.26,15-34,25.78-55,31.93-6.27,1.85-14.21,2.9-16-3.38s2.37-11.64,8.34-14.31c16.39-7.32,31.58-17,44.2-28.9a160,160,0,0,0,32.79-44.71C1829.61,1202.35,1834.27,1196.88,1839.56,1198.72Z" style="fill:#f37820;stroke:#3a3632;stroke-miterlimit:10;stroke-width:7.50039138716028px"/><path d="M1881.83,1241.67c-5.11,4.22-9.4,2.18-14.17-2.41-16.6-16-24.5-34.81-30.2-55.89-5.47-20.24-4.4-43,1.3-64.38,1.7-6.4,5-13.82,11.37-12.11s8.83,8.18,8,14.76c-2.29,18-1.94,36.26,1.74,53.47A162.26,162.26,0,0,0,1881.3,1227C1883.93,1231.15,1886.21,1238.06,1881.83,1241.67Z" style="fill:#f37820;stroke:#3a3632;stroke-miterlimit:10;stroke-width:7.59857397391693px"/><path d="M974.94,1393.83c-1.2-6.19,2.46-8.84,8.47-10.74,20.89-6.61,40.23-4.62,60.44.23,19.41,4.65,38,15.92,53.19,30.4,4.58,4.34,9.29,10.45,4.94,15s-10.85,3.65-16,0a152.57,152.57,0,0,0-45.46-22.9,154.19,154.19,0,0,0-53.14-5.73C982.78,1400.38,976,1399.14,974.94,1393.83Z" style="fill:#f37820;stroke:#3a3632;stroke-miterlimit:10;stroke-width:7.22983394900298px"/><path d="M814.58,1449.11c.06-6.3,4.18-8.17,10.45-8.82,21.79-2.29,40.34,3.54,59.17,12.34,18.08,8.45,34,23.21,46,40.45,3.61,5.17,7,12.1,1.83,15.71s-11.37,1.39-15.64-3.25A152.49,152.49,0,0,0,876.46,1474a154.31,154.31,0,0,0-50.91-16.28C820.94,1457.1,814.52,1454.51,814.58,1449.11Z" style="fill:#f37820;stroke:#3a3632;stroke-miterlimit:10;stroke-width:7.22983394900298px"/><path d="M1162.49,1488.55c-3-5.79-.13-9.48,5.28-13.11,18.78-12.6,38.53-16.24,60-17.31,20.58-1,42.23,4.78,61.54,14.7,5.79,3,12.23,7.67,9.25,13.46s-9.7,6.76-15.84,4.59c-16.84-6-34.41-9.45-51.7-9.51a159.15,159.15,0,0,0-54.33,9.73C1172.15,1492.76,1165,1493.51,1162.49,1488.55Z" style="fill:#f37820;stroke:#3a3632;stroke-miterlimit:10;stroke-width:7.46638552452666px"/><path d="M1055.31,1479.49c-3-5.79-.12-9.48,5.28-13.1,18.78-12.61,38.54-16.25,60-17.31,20.58-1,42.24,4.77,61.54,14.7,5.79,3,12.23,7.66,9.26,13.45s-9.71,6.76-15.84,4.59c-16.85-6-34.41-9.44-51.71-9.51a159.43,159.43,0,0,0-54.33,9.73C1065,1483.71,1057.87,1484.45,1055.31,1479.49Z" style="fill:#f37820;stroke:#3a3632;stroke-miterlimit:10;stroke-width:7.46638552452666px"/><path d="M1360.14,1431.87c3.22,5.06.91,8.69-3.74,12.47-16.17,13.15-34,18.16-53.57,20.94-18.8,2.67-39.15-.82-57.7-8.3-5.57-2.24-11.88-6-9.63-11.56s8.33-7,14.15-5.55a145.28,145.28,0,0,0,48.24,4.37,147,147,0,0,0,49-13.52C1350.91,1428.82,1357.37,1427.54,1360.14,1431.87Z" style="fill:#f37820;stroke:#3a3632;stroke-miterlimit:10;stroke-width:6.87971111614351px"/><path d="M1570.65,1360.08c3.23,5.06.92,8.69-3.74,12.47-16.17,13.15-34,18.16-53.56,20.94-18.8,2.68-39.16-.81-57.71-8.3-5.56-2.23-11.87-6-9.63-11.56s8.34-7,14.15-5.55a145,145,0,0,0,48.24,4.37,146.7,146.7,0,0,0,49-13.52C1561.43,1357,1567.89,1355.75,1570.65,1360.08Z" style="fill:#f37820;stroke:#3a3632;stroke-miterlimit:10;stroke-width:6.87971111614351px"/><path d="M1233.3,1511.93c1.53,5.8-1.77,8.55-7.36,10.73-19.41,7.59-37.91,6.92-57.4,3.6-18.72-3.19-37-12.73-52.42-25.51-4.62-3.83-9.48-9.34-5.64-14s10.08-4.15,15.16-1a145.24,145.24,0,0,0,44.61,18.88,146.7,146.7,0,0,0,50.82,2.09C1225.45,1506.2,1232,1507,1233.3,1511.93Z" style="fill:#f37820;stroke:#3a3632;stroke-miterlimit:10;stroke-width:6.87971111614351px"/><path d="M1569.48,1385.15c-4.58-5-2.7-9.53,1.77-14.66,15.55-17.82,34.5-26.85,55.85-33.73,20.5-6.62,43.93-6.64,66.11-1.85,6.65,1.43,14.43,4.42,13,11.07s-8,9.46-14.75,8.93c-18.62-1.46-37.29-.2-54.77,4.42a166.61,166.61,0,0,0-52.21,24.56C1580.38,1386.79,1573.4,1389.47,1569.48,1385.15Z" style="fill:#f37820;stroke:#3a3632;stroke-miterlimit:10;stroke-width:7.80438378510411px"/><path d="M1239.07,1153.74c-6.64.32-8.86-3.9-9.93-10.46-3.73-22.8,1.27-42.69,9.38-63,7.79-19.54,22.37-37.19,39.78-50.9,5.22-4.12,12.31-8.11,16.42-2.89s2.16,11.89-2.46,16.66c-12.7,13.11-23.38,28-30.78,44a162.57,162.57,0,0,0-14,54.59C1247.09,1146.56,1244.76,1153.47,1239.07,1153.74Z" style="fill:#f37820;stroke:#3a3632;stroke-miterlimit:10;stroke-width:7.62384879524902px"/><path d="M1445.61,1119.73c-6.82-.69-8.44-5.32-8.54-12.18-.35-23.8,7.76-43.32,19.12-62.84,10.9-18.75,28.43-34.54,48.26-45.88,5.94-3.4,13.77-6.4,17.18-.45s.4,12.44-5,16.61c-14.93,11.44-28.06,25-38,40.17a167.71,167.71,0,0,0-22.56,53.53C1454.87,1113.62,1451.45,1120.32,1445.61,1119.73Z" style="fill:#f37820;stroke:#3a3632;stroke-miterlimit:10;stroke-width:7.85754190832543px"/><path d="M1497.27,1042.81c2.23-6,6.82-6.39,13-4.86,21.67,5.3,37.45,17.27,52.47,32.17,14.42,14.31,24.59,33.93,30.19,54.59,1.69,6.2,2.55,14-3.65,15.69s-11.37-2.58-13.87-8.49a155.26,155.26,0,0,0-27.43-44,157.23,157.23,0,0,0-43.2-33.1C1500.62,1052.66,1495.36,1048,1497.27,1042.81Z" style="fill:#f37820;stroke:#3a3632;stroke-miterlimit:10;stroke-width:7.36179516163648px"/><path d="M1439.51,1265.21c-6.13,2.58-9.67-.63-12.93-6.43-11.34-20.15-13.47-40.58-12.84-62.51.6-21.06,8.24-42.66,19.91-61.54,3.49-5.67,8.79-11.86,14.45-8.36s6.11,10.43,3.41,16.51c-7.44,16.69-12.38,34.32-13.83,51.94a162.64,162.64,0,0,0,5.57,56.15C1444.59,1255.69,1444.77,1263,1439.51,1265.21Z" style="fill:#f37820;stroke:#3a3632;stroke-miterlimit:10;stroke-width:7.63307945700802px"/><path d="M1558.41,1270.76c-6.29,3-10.12-.23-13.78-6.14-12.72-20.52-15.84-41.73-16.15-64.64-.3-22,6.72-44.86,18-65.07,3.4-6.07,8.65-12.76,14.71-9.36s6.84,10.61,4.29,17.08c-7,17.74-11.4,36.34-12.14,54.78a170,170,0,0,0,8.28,58.33C1563.28,1260.61,1563.79,1268.22,1558.41,1270.76Z" style="fill:#f37820;stroke:#3a3632;stroke-miterlimit:10;stroke-width:7.96965962289411px"/><path d="M808.77,1224c-5.94,3.66-10.12.92-14.44-4.56-15-19-20.52-39.82-23.43-62.63-2.78-21.89,1.62-45.49,10.63-66.93,2.7-6.43,7.18-13.7,13.61-11s8,9.8,6.21,16.54c-5,18.48-7.25,37.52-5.9,56a170.64,170.64,0,0,0,14.87,57.22C812.47,1213.31,813.85,1220.84,808.77,1224Z" style="fill:#f37820;stroke:#3a3632;stroke-miterlimit:10;stroke-width:7.99798435203172px"/><path d="M761.27,1060.08c-6,3.11-9.82.17-13.61-5.41-13.14-19.4-17-39.85-18.21-62-1.16-21.32,4.74-43.78,14.93-63.82,3.06-6,7.89-12.71,13.9-9.65s7.05,10,4.83,16.38c-6.11,17.48-9.62,35.69-9.61,53.61a165,165,0,0,0,10.34,56.23C765.59,1050,766.39,1057.4,761.27,1060.08Z" style="fill:#f37820;stroke:#3a3632;stroke-miterlimit:10;stroke-width:7.73459725279003px"/><path d="M510.59,1045.73c-.8-6.19,3-8.58,9.05-10.08,21.06-5.2,40.05-2,59.71,4.06,18.88,5.82,36.49,18.14,50.64,33.41,4.24,4.58,8.51,10.92,3.93,15.16s-11,2.91-15.78-1.06a151.1,151.1,0,0,0-43.47-25.51,152.87,152.87,0,0,0-52.15-9C517.91,1052.7,511.27,1051,510.59,1045.73Z" style="fill:#f37820;stroke:#3a3632;stroke-miterlimit:10;stroke-width:7.1591422891276px"/><path d="M520.87,1236.65c-4.43,4.6-8.76,3.12-13.85-.75-17.67-13.45-27.31-30.65-35.1-50.22-7.48-18.79-9-40.74-5.87-61.83.93-6.32,3.24-13.79,9.57-12.86s9.36,6.87,9.28,13.26a148,148,0,0,0,33.85,98.42C521.72,1226.33,524.67,1232.7,520.87,1236.65Z" style="fill:#f37820;stroke:#3a3632;stroke-miterlimit:10;stroke-width:7.32888604358379px"/><path d="M437.91,1218.82c3-4.9,7.12-4.42,12.34-2,18.13,8.46,29.91,21.76,40.51,37.51,10.17,15.12,15.67,34.16,17,53.32.4,5.74-.21,12.76-6,13.15s-9.55-4.26-10.71-9.9a139.32,139.32,0,0,0-16.42-43.5,141.11,141.11,0,0,0-32.19-36.7C439.13,1228.07,435.32,1223,437.91,1218.82Z" style="fill:#f37820;stroke:#3a3632;stroke-miterlimit:10;stroke-width:6.60375800396037px"/><path d="M246.45,1330.9c-1.62,6.4-6.27,7.28-12.81,6.41-22.73-3-40.18-13.56-57.17-27.15-16.32-13.05-28.87-32-36.86-52.51-2.4-6.15-4.14-14,2-16.44s11.91,1.39,15.11,7.16c8.78,15.85,19.79,30.29,32.88,42a161.35,161.35,0,0,0,47.8,29.11C242,1321.2,247.84,1325.42,246.45,1330.9Z" style="fill:#f37820;stroke:#3a3632;stroke-miterlimit:10;stroke-width:7.57072620593414px"/><path d="M185.14,1139.47c3.63-5.37,8.22-4.64,14-1.65,20,10.39,32.61,25.92,43.78,44.14,10.72,17.49,16,39.19,16.55,60.8.17,6.48-.85,14.35-7.33,14.51s-10.55-5.24-11.58-11.65a157,157,0,0,0-16.39-49.72,158.75,158.75,0,0,0-34.47-42.83C186.07,1149.93,182,1144.08,185.14,1139.47Z" style="fill:#f37820;stroke:#3a3632;stroke-miterlimit:10;stroke-width:7.43614342356298px"/><path d="M264,1096.92c3.93-4.28,7.9-3,12.6.39,16.34,11.85,25.48,27.28,33,44.91,7.19,16.93,9,36.85,6.62,56.08-.7,5.77-2.65,12.61-8.42,11.9s-8.65-6-8.72-11.86a140.47,140.47,0,0,0-7.95-46.24,142.17,142.17,0,0,0-24.88-42.52C263.4,1106.32,260.59,1100.59,264,1096.92Z" style="fill:#f37820;stroke:#3a3632;stroke-miterlimit:10;stroke-width:6.66401527222059px"/><path d="M428.76,1048.54c-1.51,5.74-5.69,6.5-11.57,5.66-20.42-2.91-36-12.49-51.21-24.84-14.57-11.86-25.71-29-32.74-47.5-2.11-5.55-3.62-12.65,1.93-14.76s10.7,1.33,13.54,6.55a143.46,143.46,0,0,0,29.24,38,145.18,145.18,0,0,0,42.76,26.54C424.78,1039.78,430.05,1043.61,428.76,1048.54Z" style="fill:#f37820;stroke:#3a3632;stroke-miterlimit:10;stroke-width:6.8076859691813px"/><path d="M492.63,1090.21c-5.3,3.72-9.31,1.4-13.61-3.44C464.1,1070,457.87,1051,454,1030.08c-3.76-20.11-1-42.2,6.22-62.52,2.15-6.1,5.91-13.07,12-10.91s8,8.64,6.64,15a156.44,156.44,0,0,0-2.43,52.15,158.28,158.28,0,0,0,16.85,52.16C495.48,1080.14,497.16,1087,492.63,1090.21Z" style="fill:#f37820;stroke:#3a3632;stroke-miterlimit:10;stroke-width:7.41482368051305px"/><path d="M831.16,1119.21c-5.39-4.14-4.33-8.9-.84-14.73,12.14-20.26,29.19-32.49,49-43,19-10.12,42-14.28,64.68-13.48,6.79.23,15,1.8,14.73,8.59s-6.16,10.71-12.93,11.38c-18.57,1.85-36.71,6.38-53.08,14a166.39,166.39,0,0,0-47,33.36C842.17,1118.9,835.79,1122.76,831.16,1119.21Z" style="fill:#f37820;stroke:#3a3632;stroke-miterlimit:10;stroke-width:7.7968077674233px"/><path d="M951.54,1214.5c-5.71.88-8-2.56-9.54-8.12-5.31-19.34-2.82-37,2.31-55.29,4.93-17.59,15.9-34.17,29.67-47.61,4.13-4,9.89-8.13,13.92-4s3,10.06-.6,14.61a133.67,133.67,0,0,0-29.63,89.22C957.8,1207.56,956.42,1213.75,951.54,1214.5Z" style="fill:#f37820;stroke:#3a3632;stroke-miterlimit:10;stroke-width:6.61939659473883px"/><path d="M975.2,1219.82c-.41-6,3.35-8.06,9.24-9.16,20.47-3.81,38.5.32,57,7.23,17.77,6.63,34,19.42,46.66,34.85,3.81,4.62,7.55,10.94,2.92,14.75s-10.67,2.17-15.06-1.9a145.2,145.2,0,0,0-40.24-26.88,146.72,146.72,0,0,0-49.47-11.57C981.84,1226.9,975.56,1224.94,975.2,1219.82Z" style="fill:#f37820;stroke:#3a3632;stroke-miterlimit:10;stroke-width:6.87264778664302px"/><path d="M1083.7,1187.75c-4.86,4-8.93,2-13.46-2.33-15.73-15.19-23.18-33.12-28.54-53.17-5.14-19.24-4.06-40.89,1.4-61.15,1.64-6.08,4.76-13.12,10.84-11.48s8.36,7.8,7.55,14a145.78,145.78,0,0,0,21.75,100.18C1085.72,1177.76,1087.87,1184.33,1083.7,1187.75Z" style="fill:#f37820;stroke:#3a3632;stroke-miterlimit:10;stroke-width:7.21835160487301px"/><path d="M1101.2,1044c4.43-5.24,9.18-4,14.89-.15,19.85,13.2,31.37,31,41.05,51.41,9.3,19.62,12.4,43,10.52,65.84-.56,6.84-2.53,15-9.37,14.44s-10.5-6.72-10.85-13.57c-1-18.81-4.69-37.31-11.61-54.17a167.67,167.67,0,0,0-31.4-49C1101,1055.08,1097.4,1048.46,1101.2,1044Z" style="fill:#f37820;stroke:#3a3632;stroke-miterlimit:10;stroke-width:7.86895292715045px"/><path d="M1096.72,1015.92c-1.3,5.8-5.46,6.71-11.38,6.09-20.54-2.18-36.51-11.21-52.14-23-15-11.34-26.78-28.09-34.48-46.35-2.32-5.48-4.08-12.54,1.4-14.85s10.76,1,13.78,6.07a144,144,0,0,0,30.64,37,145.48,145.48,0,0,0,43.75,25C1092.42,1007.3,1097.84,1011,1096.72,1015.92Z" style="fill:#f37820;stroke:#3a3632;stroke-miterlimit:10;stroke-width:6.81800028634073px"/><path d="M1188.75,894.63c2.58-5.42,6.88-5.38,12.56-3.43,19.7,6.75,33.38,19.21,46.1,34.33,12.22,14.52,20,33.63,23.51,53.32,1,5.9,1.19,13.24-4.71,14.28s-10.37-3.35-12.19-9.06a145.09,145.09,0,0,0-21.84-43.21,146.69,146.69,0,0,0-37.4-34.42C1191.05,904.06,1186.54,899.26,1188.75,894.63Z" style="fill:#f37820;stroke:#3a3632;stroke-miterlimit:10;stroke-width:6.87616158788052px"/><path d="M1304.33,1322c-5.58-2.34-5.74-6.68-4-12.49,5.89-20.18,17.8-34.55,32.45-48.08,14.07-13,33-21.77,52.65-26.19,5.9-1.33,13.29-1.83,14.62,4.08s-2.89,10.6-8.56,12.71a146.23,146.23,0,0,0-42.54,24,148.1,148.1,0,0,0-33,39.32C1313.73,1319.28,1309.11,1324.05,1304.33,1322Z" style="fill:#f37820;stroke:#3a3632;stroke-miterlimit:10;stroke-width:6.93888468340575px"/><path d="M1119.27,1392.22c-4.21-5.13-2.15-9.41,2.46-14.18,16-16.56,34.89-24.41,56-30,20.27-5.41,43.06-4.27,64.4,1.49,6.4,1.72,13.82,5,12.09,11.42s-8.21,8.81-14.79,7.95c-18-2.34-36.27-2-53.5,1.58a162.38,162.38,0,0,0-52,21.3C1129.8,1394.35,1122.88,1396.61,1119.27,1392.22Z" style="fill:#f37820;stroke:#3a3632;stroke-miterlimit:10;stroke-width:7.60269444794236px"/><path d="M832.53,1431.53c4.12,5.19,2,9.45-2.69,14.14-16.28,16.3-35.29,23.83-56.49,29.13-20.36,5.08-43.13,3.56-64.38-2.54-6.37-1.83-13.73-5.25-11.9-11.62s8.36-8.67,14.92-7.71c18,2.64,36.24,2.64,53.52-.7a162.19,162.19,0,0,0,52.36-20.45C822,1429.23,829,1427.08,832.53,1431.53Z" style="fill:#f37820;stroke:#3a3632;stroke-miterlimit:10;stroke-width:7.60269444794236px"/><path d="M949.65,1337.57c-2.26,6-6.86,6.38-13.1,4.82-21.7-5.4-37.48-17.46-52.48-32.46-14.4-14.4-24.52-34.12-30.05-54.85-1.66-6.22-2.5-14,3.72-15.71s11.4,2.63,13.87,8.57c6.8,16.3,15.91,31.48,27.34,44.19a157.24,157.24,0,0,0,43.17,33.36C946.33,1327.69,951.59,1332.4,949.65,1337.57Z" style="fill:#f37820;stroke:#3a3632;stroke-miterlimit:10;stroke-width:7.38055500430087px"/><path d="M835.87,1415c-4,4.84-8.43,3.67-13.7.19-18.31-12.07-29-28.36-38-47.13-8.62-18-11.56-39.55-9.92-60.54.49-6.29,2.27-13.81,8.56-13.32s9.69,6.15,10,12.45a152.93,152.93,0,0,0,10.88,49.79,154.62,154.62,0,0,0,29.07,44.94C836,1404.79,839.35,1410.87,835.87,1415Z" style="fill:#f37820;stroke:#3a3632;stroke-miterlimit:10;stroke-width:7.23902894810951px"/><path d="M1118.61,728.84c.54-6.45,4.9-8.05,11.37-8.25,22.49-.69,41,6.68,59.66,17.12,17.88,10,33,26.34,44.07,44.9,3.3,5.57,6.25,12.92.68,16.23s-11.75.56-15.77-4.51c-11-13.93-24-26.14-38.52-35.34a158.54,158.54,0,0,0-50.9-20.51C1124.52,737.5,1118.14,734.37,1118.61,728.84Z" style="fill:#f37820;stroke:#3a3632;stroke-miterlimit:10;stroke-width:7.42423278428049px"/><path d="M823.25,818.09c-5.73-3.27-5.34-8-2.75-14.05,9-21.06,23.75-35.06,41.36-47.79C878.77,744,900.35,737,922.22,734.78c6.56-.68,14.62-.25,15.29,6.31s-4.51,11.1-10.92,12.64c-17.6,4.23-34.43,11-49.14,20.46a161.11,161.11,0,0,0-40.76,38.24C833.78,816.33,828.16,820.88,823.25,818.09Z" style="fill:#f37820;stroke:#3a3632;stroke-miterlimit:10;stroke-width:7.5605416218655px"/><path d="M684.06,770.55c3.41-5.5,8-5,13.87-2.2,20.34,9.57,33.54,24.55,45.4,42.28,11.39,17,17.51,38.44,18.91,60,.43,6.45-.28,14.34-6.74,14.76s-10.72-4.82-12-11.16a156.67,156.67,0,0,0-18.32-48.93,158.29,158.29,0,0,0-36.06-41.34C685.4,780.94,681.14,775.26,684.06,770.55Z" style="fill:#f37820;stroke:#3a3632;stroke-miterlimit:10;stroke-width:7.42061193071254px"/><path d="M1700.2,1039.29c-.34-5.86,3.36-7.85,9.14-8.86,20.08-3.49,37.67.75,55.7,7.73,17.31,6.7,33,19.4,45.26,34.64,3.68,4.57,7.26,10.79,2.69,14.47s-10.46,2-14.72-2a141.72,141.72,0,0,0-39.07-26.77,143.41,143.41,0,0,0-48.28-11.89C1706.61,1046.3,1700.48,1044.3,1700.2,1039.29Z" style="fill:#f37820;stroke:#3a3632;stroke-miterlimit:10;stroke-width:6.72627440994082px"/><path d="M750.93,1417.48c-2.45,6.41-7.36,6.76-14,5.06-23.1-5.89-39.84-18.84-55.74-34.92-15.26-15.44-25.93-36.52-31.7-58.65-1.73-6.64-2.58-15,4.06-16.72s12.13,2.86,14.73,9.21c7.16,17.42,16.77,33.65,28.87,47.28A168,168,0,0,0,743,1404.56C747.44,1406.92,753,1412,750.93,1417.48Z" style="fill:#f37820;stroke:#3a3632;stroke-miterlimit:10;stroke-width:7.86739235351055px"/><path d="M490,1127c1.93,6.55,1.91,16.07-3.67,21-1.36,1.19-3,2-4.27,3.33-3.26,3.29-3.49,8.63-6.37,12.27-5,6.41-15.63,4.92-21.87,10.18-1.8,1.52-3.13,3.52-4.75,5.23-7.24,7.63-20.64,12.87-30.93,10.32-4.39-1.08-8.81-2.67-13.31-2.2-2.82.3-5.5,1.4-8.27,2s-5.86.74-8.25-.79c-.93-.59-1.7-1.4-2.62-2-3.2-2.11-6.74-2.3-10.44-2.7s-7.45-.81-10.68-2.6c-5.48-3-8.31-9.64-8.2-15.9.11-6.55,2.84-12.73,6.48-18,2.62-3.77,6.66-5.14,8.7-9.28,1.5-3,1.69-8.45,4.41-10.69s6.44-2.09,9.25-4.14c2.35-1.71,4.07-4.17,5.82-6.45,5.2-6.77,13.93-9,21.87-11.39,5.43-1.6,14.23-4.86,19.85-3,2.71.89,4.66,3.33,7.3,4.43,3.4,1.42,7.27.38,10.85-.54s7.62-1.62,10.76.32c1.95,1.21,3.23,3.27,5,4.67,3.12,2.41,7.34,2.59,11.21,3.36C484.43,1115.7,488.14,1120.79,490,1127Z" style="fill:#966c42;stroke:#3a3632;stroke-linecap:round;stroke-miterlimit:10;stroke-width:8px"/><path d="M362.81,1147.11a39.29,39.29,0,0,1,10.95-7.93,16.65,16.65,0,0,1,9.15-1.46c4.89.45,6.8,3.13,11.64,4s10.2.39,14-2.69c2-1.61,3.45-3.83,5.51-5.35a10.72,10.72,0,0,1,7.83-2c2.35.35,4.51,1.48,6.83,2a13.41,13.41,0,0,0,7.24-.41,5,5,0,0,0,2.45-1.56c1.43-1.88.31-4.52-.41-6.77-.79-2.47-.87-3.41.06-5.83a6.88,6.88,0,0,1,5.79-4.52c5.1-.22,7.91,4.32,12.8,5.78" style="fill:none;stroke:#3a3632;stroke-linecap:round;stroke-miterlimit:10;stroke-width:8px"/><path d="M383.37,1169.08c2.2-.93,4-2,6.85-1.69,3.06.37,4.46,2.66,5.39,5,1.11,2.86,1.18,5.85,3.17,7.9s4.9,2.91,7.3,1.68c3.74-2,4.83-7.83,8-11,2.49-2.51,4.5-3.07,7.75-3.11,2.1,0,4.07,1.25,5.76,3.24,2,2.33,3.95,5.2,6.68,5.21,4.64,0,5.92-7.79,10.52-8.11,5.37-.37,5.12,6.09,12.85,3.16" style="fill:none;stroke:#3a3632;stroke-linecap:round;stroke-miterlimit:10;stroke-width:8px"/><path d="M439,1153.06c.77-3.36,2.62-5.91,5.93-6.88,5.29-1.56,9.64,2.82,11.14,4.63a11.88,11.88,0,0,0,8.25,4.63c4.73.23,9.1-3.82,9.76-8.51.42-3-.44-6-.59-9s.71-6.48,3.39-7.89c2.44-1.28,5.58-.32,7.6,1.56a13.81,13.81,0,0,1,3.95,5.51c.8,1.82,1.64,5.51.47,7.55" style="fill:none;stroke:#3a3632;stroke-linecap:round;stroke-miterlimit:10;stroke-width:8px"/><path d="M1448.74,1213.28c1.93-6.46,1.91-15.83-3.67-20.67-1.36-1.17-3-2-4.26-3.28-3.27-3.24-3.5-8.5-6.37-12.09-5.06-6.31-15.63-4.84-21.88-10-1.8-1.5-3.13-3.47-4.75-5.16-7.23-7.51-20.64-12.67-30.93-10.16-4.39,1.07-8.81,2.63-13.31,2.17-2.82-.3-5.49-1.38-8.26-2s-5.87-.72-8.26.78c-.93.59-1.7,1.39-2.62,2-3.19,2.07-6.74,2.27-10.43,2.65s-7.46.8-10.69,2.57c-5.48,3-8.31,9.49-8.2,15.67.11,6.45,2.84,12.53,6.49,17.72,2.61,3.71,6.65,5.06,8.69,9.14,1.51,3,1.69,8.33,4.41,10.54s6.44,2.05,9.25,4.07c2.35,1.69,4.07,4.11,5.82,6.36,5.21,6.67,13.93,8.92,21.87,11.22,5.43,1.58,14.23,4.79,19.85,3,2.72-.88,4.66-3.29,7.3-4.37,3.41-1.4,7.28-.37,10.85.53s7.62,1.6,10.76-.31c2-1.19,3.23-3.22,5-4.61,3.11-2.37,7.34-2.54,11.2-3.3C1443.22,1224.38,1446.92,1219.36,1448.74,1213.28Z" style="fill:#966c42;stroke:#3a3632;stroke-linecap:round;stroke-miterlimit:10;stroke-width:8px"/><path d="M1321.6,1193.43a38.94,38.94,0,0,0,11,7.81,16.82,16.82,0,0,0,9.15,1.44c4.89-.44,6.79-3.08,11.63-3.92s10.2-.39,14,2.65c2,1.59,3.44,3.78,5.51,5.27a10.75,10.75,0,0,0,7.82,1.92c2.35-.34,4.52-1.45,6.84-2a13.57,13.57,0,0,1,7.23.41,5,5,0,0,1,2.45,1.53c1.43,1.86.31,4.46-.41,6.68-.78,2.43-.87,3.35.06,5.73a6.86,6.86,0,0,0,5.79,4.46c5.1.22,7.91-4.26,12.8-5.7" style="fill:none;stroke:#3a3632;stroke-linecap:round;stroke-miterlimit:10;stroke-width:8px"/><path d="M1342.16,1171.78c2.19.92,3.95,2,6.84,1.67,3.06-.37,4.47-2.62,5.39-4.94,1.12-2.81,1.19-5.77,3.18-7.78s4.9-2.87,7.29-1.65c3.75,1.91,4.84,7.7,8,10.8,2.49,2.47,4.5,3,7.75,3.07,2.1,0,4.08-1.24,5.76-3.2,2-2.29,4-5.13,6.69-5.13,4.63,0,5.91,7.68,10.51,8,5.38.36,5.12-6,12.85-3.11" style="fill:none;stroke:#3a3632;stroke-linecap:round;stroke-miterlimit:10;stroke-width:8px"/><path d="M1397.81,1187.57c.77,3.31,2.62,5.82,5.93,6.78,5.3,1.54,9.65-2.79,11.14-4.57a12,12,0,0,1,8.25-4.56c4.73-.22,9.11,3.76,9.77,8.38.42,3-.45,5.93-.6,8.91s.71,6.39,3.39,7.78c2.44,1.26,5.58.31,7.61-1.54a13.53,13.53,0,0,0,3.94-5.43c.8-1.79,1.65-5.42.47-7.44" style="fill:none;stroke:#3a3632;stroke-linecap:round;stroke-miterlimit:10;stroke-width:8px"/><path d="M1203.73,1404.61c1.93,6.55,1.92,16.07-3.66,21-1.36,1.19-3,2.05-4.27,3.33-3.27,3.29-3.5,8.62-6.37,12.27-5,6.41-15.63,4.91-21.87,10.18-1.81,1.52-3.13,3.52-4.75,5.23-7.24,7.63-20.64,12.87-30.94,10.32-4.39-1.08-8.8-2.67-13.3-2.2-2.83.3-5.5,1.4-8.27,2s-5.86.74-8.26-.79c-.92-.59-1.7-1.4-2.62-2-3.19-2.11-6.74-2.31-10.43-2.7s-7.45-.81-10.68-2.6c-5.48-3-8.31-9.64-8.21-15.91.12-6.54,2.84-12.72,6.49-18,2.62-3.77,6.66-5.14,8.7-9.28,1.5-3,1.68-8.45,4.41-10.69s6.44-2.09,9.25-4.14c2.35-1.71,4.06-4.17,5.82-6.45,5.2-6.77,13.93-9,21.87-11.39,5.43-1.6,14.22-4.86,19.85-3,2.71.89,4.66,3.33,7.29,4.43,3.41,1.42,7.28.38,10.86-.54s7.62-1.62,10.76.32c1.95,1.21,3.22,3.27,5,4.67,3.12,2.41,7.34,2.58,11.2,3.36C1198.21,1393.35,1201.92,1398.44,1203.73,1404.61Z" style="fill:#966c42;stroke:#3a3632;stroke-linecap:round;stroke-miterlimit:10;stroke-width:8px"/><path d="M1076.59,1424.76a39.29,39.29,0,0,1,11-7.93,16.7,16.7,0,0,1,9.15-1.47c4.89.46,6.8,3.14,11.63,4s10.21.39,14-2.69c2-1.61,3.45-3.83,5.51-5.35a10.66,10.66,0,0,1,7.82-2c2.35.35,4.52,1.48,6.84,2a13.47,13.47,0,0,0,7.23-.41,5.11,5.11,0,0,0,2.46-1.56c1.42-1.88.31-4.52-.41-6.78-.79-2.46-.88-3.4.06-5.82a6.85,6.85,0,0,1,5.78-4.52c5.11-.22,7.91,4.32,12.81,5.78" style="fill:none;stroke:#3a3632;stroke-linecap:round;stroke-miterlimit:10;stroke-width:8px"/><path d="M1097.15,1446.73c2.2-.93,3.95-2,6.85-1.69,3.06.37,4.46,2.66,5.38,5,1.12,2.85,1.19,5.85,3.18,7.89s4.9,2.92,7.29,1.68c3.75-1.94,4.84-7.82,8-11,2.49-2.51,4.5-3.08,7.74-3.11,2.11,0,4.08,1.25,5.76,3.24,2,2.33,4,5.2,6.69,5.21,4.63,0,5.92-7.8,10.52-8.11,5.37-.37,5.12,6.09,12.84,3.16" style="fill:none;stroke:#3a3632;stroke-linecap:round;stroke-miterlimit:10;stroke-width:8px"/><path d="M1152.81,1430.71c.76-3.36,2.62-5.91,5.92-6.88,5.3-1.57,9.65,2.82,11.15,4.63,2.07,2.5,5,4.47,8.24,4.63,4.74.23,9.11-3.82,9.77-8.51.42-3-.44-6-.6-9s.71-6.48,3.39-7.89c2.45-1.28,5.59-.32,7.61,1.56a13.81,13.81,0,0,1,4,5.51c.79,1.82,1.64,5.5.47,7.55" style="fill:none;stroke:#3a3632;stroke-linecap:round;stroke-miterlimit:10;stroke-width:8px"/><path d="M742,1017.63c1.93,6.55,1.92,16.07-3.66,21-1.36,1.19-3,2.05-4.27,3.33-3.27,3.29-3.5,8.62-6.37,12.27-5.05,6.41-15.63,4.92-21.87,10.18-1.81,1.52-3.13,3.52-4.76,5.23-7.23,7.63-20.63,12.87-30.93,10.32-4.39-1.08-8.8-2.67-13.3-2.2-2.83.3-5.5,1.4-8.27,2s-5.86.74-8.26-.79c-.92-.59-1.7-1.4-2.62-2-3.19-2.11-6.74-2.31-10.43-2.7s-7.45-.81-10.68-2.6c-5.48-3-8.31-9.64-8.21-15.91.12-6.54,2.84-12.72,6.49-18,2.62-3.77,6.66-5.14,8.7-9.28,1.5-3,1.68-8.45,4.41-10.69s6.44-2.09,9.25-4.14c2.35-1.71,4.06-4.17,5.82-6.45,5.2-6.77,13.93-9.05,21.87-11.39,5.43-1.6,14.22-4.86,19.85-3,2.71.89,4.66,3.33,7.29,4.43,3.41,1.42,7.28.38,10.86-.54s7.62-1.62,10.76.32c1.95,1.21,3.22,3.27,5,4.67,3.12,2.41,7.34,2.58,11.2,3.36C736.5,1006.37,740.21,1011.46,742,1017.63Z" style="fill:#966c42;stroke:#3a3632;stroke-linecap:round;stroke-miterlimit:10;stroke-width:8px"/><path d="M614.88,1037.78a39.29,39.29,0,0,1,11-7.93,16.63,16.63,0,0,1,9.15-1.46c4.89.45,6.8,3.13,11.63,4s10.21.39,14-2.69c2-1.61,3.45-3.83,5.51-5.35a10.66,10.66,0,0,1,7.82-1.95c2.35.35,4.52,1.48,6.84,2A13.47,13.47,0,0,0,688,1024a5,5,0,0,0,2.46-1.56c1.42-1.88.31-4.52-.41-6.78-.79-2.46-.88-3.4.06-5.82a6.85,6.85,0,0,1,5.78-4.52c5.11-.22,7.91,4.32,12.81,5.78" style="fill:none;stroke:#3a3632;stroke-linecap:round;stroke-miterlimit:10;stroke-width:8px"/><path d="M635.44,1059.75c2.2-.93,3.95-2,6.85-1.69,3.06.37,4.46,2.66,5.38,5,1.12,2.86,1.19,5.85,3.18,7.9s4.9,2.91,7.29,1.67c3.75-1.94,4.84-7.82,8-11,2.49-2.51,4.5-3.08,7.74-3.11,2.11,0,4.08,1.25,5.76,3.24,2,2.33,4,5.2,6.69,5.21,4.63,0,5.92-7.8,10.52-8.11,5.37-.37,5.12,6.09,12.84,3.16" style="fill:none;stroke:#3a3632;stroke-linecap:round;stroke-miterlimit:10;stroke-width:8px"/><path d="M691.1,1043.73c.76-3.36,2.62-5.91,5.92-6.88,5.3-1.56,9.65,2.82,11.15,4.63,2.07,2.5,5,4.47,8.24,4.63,4.73.23,9.11-3.82,9.77-8.51.42-3-.44-6-.6-9s.71-6.48,3.39-7.89c2.45-1.28,5.59-.32,7.61,1.56a13.81,13.81,0,0,1,3.95,5.51c.79,1.82,1.64,5.51.47,7.55" style="fill:none;stroke:#3a3632;stroke-linecap:round;stroke-miterlimit:10;stroke-width:8px"/><path d="M1049.14,1051.3c1.93,6.55,1.92,16.07-3.66,21-1.36,1.2-3,2-4.27,3.34-3.27,3.29-3.5,8.62-6.37,12.26-5,6.41-15.63,4.92-21.87,10.19-1.81,1.52-3.13,3.52-4.75,5.23-7.24,7.63-20.64,12.87-30.94,10.32-4.39-1.09-8.8-2.68-13.3-2.2-2.83.29-5.5,1.4-8.27,2s-5.86.74-8.26-.79c-.92-.6-1.7-1.41-2.62-2-3.19-2.11-6.74-2.31-10.43-2.7s-7.45-.81-10.68-2.6c-5.48-3-8.31-9.64-8.21-15.91.12-6.55,2.84-12.72,6.49-18,2.62-3.77,6.66-5.14,8.7-9.29,1.5-3,1.68-8.45,4.41-10.69s6.44-2.08,9.25-4.13c2.35-1.72,4.06-4.17,5.82-6.45,5.2-6.77,13.93-9.06,21.87-11.39,5.43-1.6,14.22-4.86,19.85-3,2.71.9,4.66,3.34,7.29,4.44,3.41,1.42,7.28.38,10.86-.54s7.62-1.63,10.76.31c2,1.21,3.22,3.27,5,4.68,3.12,2.41,7.34,2.58,11.2,3.35C1043.62,1040,1047.33,1045.12,1049.14,1051.3Z" style="fill:#966c42;stroke:#3a3632;stroke-linecap:round;stroke-miterlimit:10;stroke-width:8px"/><path d="M922,1071.45a39.14,39.14,0,0,1,11-7.94,16.81,16.81,0,0,1,9.15-1.46c4.89.46,6.8,3.14,11.63,4s10.21.39,14-2.69c2-1.61,3.45-3.84,5.51-5.36a10.7,10.7,0,0,1,7.82-1.94c2.35.35,4.52,1.47,6.84,2a13.37,13.37,0,0,0,7.23-.42,5.09,5.09,0,0,0,2.46-1.55c1.42-1.89.31-4.53-.41-6.78-.79-2.47-.88-3.4.06-5.82a6.86,6.86,0,0,1,5.78-4.53c5.11-.21,7.91,4.33,12.81,5.79" style="fill:none;stroke:#3a3632;stroke-linecap:round;stroke-miterlimit:10;stroke-width:8px"/><path d="M942.56,1093.42c2.2-.93,4-2.05,6.85-1.7,3.06.38,4.46,2.66,5.38,5,1.12,2.85,1.19,5.85,3.18,7.89s4.9,2.92,7.29,1.68c3.75-1.94,4.84-7.82,8-11,2.49-2.5,4.5-3.07,7.74-3.11,2.11,0,4.08,1.26,5.76,3.25,2,2.32,4,5.2,6.69,5.2,4.63,0,5.92-7.79,10.52-8.1,5.37-.37,5.12,6.09,12.84,3.15" style="fill:none;stroke:#3a3632;stroke-linecap:round;stroke-miterlimit:10;stroke-width:8px"/><path d="M998.22,1077.39c.76-3.35,2.62-5.9,5.92-6.88,5.3-1.56,9.65,2.83,11.15,4.63,2.07,2.5,5,4.47,8.24,4.63,4.73.23,9.11-3.81,9.77-8.5.42-3-.44-6-.6-9s.71-6.49,3.39-7.89c2.45-1.29,5.59-.32,7.61,1.56a13.78,13.78,0,0,1,4,5.5c.79,1.83,1.64,5.51.47,7.55" style="fill:none;stroke:#3a3632;stroke-linecap:round;stroke-miterlimit:10;stroke-width:8px"/><path d="M967.68,841c1.93,6.56,1.91,16.07-3.67,21-1.35,1.19-3,2.05-4.26,3.33-3.27,3.29-3.5,8.63-6.37,12.27-5.06,6.41-15.63,4.92-21.87,10.18-1.81,1.52-3.13,3.52-4.76,5.24-7.23,7.62-20.64,12.86-30.93,10.31-4.39-1.08-8.81-2.67-13.3-2.2-2.83.3-5.5,1.4-8.27,2s-5.87.74-8.26-.79c-.93-.59-1.7-1.4-2.62-2-3.19-2.11-6.74-2.3-10.43-2.69s-7.46-.82-10.68-2.61c-5.49-3-8.32-9.64-8.21-15.9.11-6.55,2.84-12.73,6.49-18,2.61-3.77,6.65-5.14,8.7-9.28,1.5-3,1.68-8.45,4.41-10.69s6.43-2.09,9.25-4.14c2.34-1.71,4.06-4.17,5.81-6.45,5.21-6.77,13.94-9,21.88-11.39,5.43-1.6,14.22-4.86,19.85-3,2.71.89,4.65,3.33,7.29,4.43,3.41,1.42,7.28.38,10.85-.53s7.62-1.63,10.76.31c2,1.21,3.23,3.27,5,4.67,3.12,2.41,7.34,2.59,11.2,3.36C962.16,829.78,965.86,834.87,967.68,841Z" style="fill:#966c42;stroke:#3a3632;stroke-linecap:round;stroke-miterlimit:10;stroke-width:8px"/><path d="M840.54,861.19a39.29,39.29,0,0,1,11-7.93,16.72,16.72,0,0,1,9.15-1.46c4.89.45,6.8,3.13,11.63,4s10.21.39,14-2.69c2-1.61,3.44-3.83,5.51-5.35a10.69,10.69,0,0,1,7.82-2c2.35.35,4.52,1.48,6.84,2a13.37,13.37,0,0,0,7.23-.41,5,5,0,0,0,2.45-1.56c1.43-1.88.32-4.52-.4-6.77-.79-2.47-.88-3.41.06-5.83a6.86,6.86,0,0,1,5.78-4.52c5.1-.22,7.91,4.32,12.81,5.78" style="fill:none;stroke:#3a3632;stroke-linecap:round;stroke-miterlimit:10;stroke-width:8px"/><path d="M861.1,883.17c2.2-.94,3.95-2,6.84-1.7,3.06.37,4.47,2.66,5.39,5,1.12,2.86,1.19,5.85,3.18,7.9s4.9,2.91,7.29,1.68c3.75-1.94,4.84-7.83,8-11,2.5-2.5,4.51-3.07,7.75-3.11,2.11,0,4.08,1.25,5.76,3.25,2,2.32,4,5.19,6.69,5.2,4.63,0,5.91-7.79,10.52-8.11,5.37-.37,5.12,6.09,12.84,3.16" style="fill:none;stroke:#3a3632;stroke-linecap:round;stroke-miterlimit:10;stroke-width:8px"/><path d="M916.75,867.14c.77-3.36,2.63-5.91,5.93-6.88,5.3-1.56,9.65,2.82,11.14,4.63,2.08,2.5,5,4.47,8.25,4.63,4.73.23,9.11-3.81,9.77-8.51.42-3-.45-6-.6-9s.71-6.49,3.39-7.9c2.45-1.28,5.59-.31,7.61,1.56a13.79,13.79,0,0,1,3.94,5.51c.8,1.82,1.65,5.51.48,7.55" style="fill:none;stroke:#3a3632;stroke-linecap:round;stroke-miterlimit:10;stroke-width:8px"/><path d="M878.57,1252.45c1.93,6.55,1.92,16.07-3.66,21-1.36,1.19-3,2-4.27,3.33-3.27,3.29-3.5,8.62-6.37,12.27-5,6.41-15.63,4.92-21.87,10.18-1.81,1.52-3.13,3.52-4.75,5.23-7.24,7.63-20.64,12.87-30.94,10.32-4.39-1.08-8.8-2.67-13.3-2.2-2.83.3-5.5,1.4-8.27,2s-5.86.74-8.26-.79c-.92-.59-1.7-1.4-2.62-2-3.19-2.11-6.74-2.31-10.43-2.7s-7.45-.81-10.68-2.6c-5.48-3-8.31-9.64-8.21-15.91.12-6.54,2.84-12.72,6.49-18,2.62-3.77,6.66-5.14,8.7-9.28,1.5-3,1.68-8.45,4.41-10.69s6.44-2.09,9.25-4.14c2.35-1.71,4.06-4.17,5.82-6.45,5.2-6.77,13.93-9,21.87-11.39,5.43-1.6,14.22-4.86,19.85-3,2.71.89,4.66,3.33,7.29,4.43,3.41,1.42,7.28.38,10.86-.54s7.62-1.62,10.76.32c2,1.21,3.22,3.27,5,4.67,3.12,2.41,7.34,2.58,11.2,3.36C873.05,1241.19,876.76,1246.28,878.57,1252.45Z" style="fill:#966c42;stroke:#3a3632;stroke-linecap:round;stroke-miterlimit:10;stroke-width:8px"/><path d="M751.43,1272.6a39.29,39.29,0,0,1,11-7.93,16.72,16.72,0,0,1,9.15-1.47c4.89.46,6.8,3.14,11.63,4s10.21.39,14-2.69c2-1.61,3.45-3.83,5.51-5.35a10.66,10.66,0,0,1,7.82-2c2.36.35,4.52,1.48,6.84,2a13.47,13.47,0,0,0,7.23-.41,5.11,5.11,0,0,0,2.46-1.56c1.42-1.88.31-4.52-.41-6.78-.79-2.46-.87-3.4.06-5.82a6.85,6.85,0,0,1,5.78-4.52c5.11-.22,7.91,4.32,12.81,5.78" style="fill:none;stroke:#3a3632;stroke-linecap:round;stroke-miterlimit:10;stroke-width:8px"/><path d="M772,1294.57c2.2-.93,4-2,6.85-1.69,3.06.37,4.46,2.66,5.38,5,1.12,2.85,1.19,5.85,3.18,7.89s4.9,2.92,7.29,1.68c3.75-1.94,4.84-7.82,8-11,2.49-2.51,4.5-3.08,7.74-3.11,2.11,0,4.08,1.25,5.76,3.24,2,2.33,4,5.2,6.69,5.21,4.63,0,5.92-7.8,10.52-8.11,5.37-.37,5.12,6.09,12.84,3.16" style="fill:none;stroke:#3a3632;stroke-linecap:round;stroke-miterlimit:10;stroke-width:8px"/><path d="M827.65,1278.55c.77-3.36,2.62-5.91,5.92-6.88,5.3-1.56,9.65,2.82,11.15,4.63,2.07,2.5,5,4.47,8.24,4.63,4.74.23,9.11-3.82,9.77-8.51.42-3-.44-6-.6-9s.71-6.48,3.39-7.89c2.45-1.28,5.59-.32,7.61,1.56a13.81,13.81,0,0,1,4,5.51c.79,1.82,1.64,5.51.47,7.55" style="fill:none;stroke:#3a3632;stroke-linecap:round;stroke-miterlimit:10;stroke-width:8px"/><path d="M1399.46,1004c-2.91,6.18-9.24,13.28-16.67,13.25-1.81,0-3.6-.46-5.4-.35-4.63.29-8.34,4.13-12.91,5-8,1.43-15-6.71-23.12-6.92-2.35-.06-4.67.56-7,.76-10.47.9-24-4.09-30-12.83-2.57-3.72-4.81-7.85-8.49-10.48-2.31-1.65-5-2.61-7.53-4s-4.88-3.34-5.65-6.08c-.3-1.06-.34-2.18-.62-3.24-1-3.7-3.51-6.2-6-9s-5-5.55-6.26-9c-2.08-5.92.19-12.73,4.43-17.35,4.43-4.82,10.58-7.62,16.79-9.13,4.46-1.08,8.39.58,12.67-1.17,3.15-1.28,6.87-5.2,10.4-5.06s6.2,2.71,9.66,3.05c2.9.28,5.81-.42,8.63-1,8.39-1.6,16.43,2.49,23.92,6,5.12,2.41,13.87,5.81,16.84,10.93,1.44,2.47,1.27,5.59,2.51,8.16,1.61,3.33,5.19,5.12,8.47,6.81s6.78,3.84,7.84,7.38c.66,2.2.24,4.58.67,6.84.73,3.87,3.77,6.81,6.15,10C1402.81,991.93,1402.2,998.19,1399.46,1004Z" style="fill:#966c42;stroke:#3a3632;stroke-linecap:round;stroke-miterlimit:10;stroke-width:8px"/><path d="M1291,934.65a39.11,39.11,0,0,1,13.46,1.34,16.75,16.75,0,0,1,7.81,5c3.35,3.59,3,6.86,6,10.71s7.37,7.07,12.28,7.3c2.56.12,5.12-.58,7.67-.34a10.65,10.65,0,0,1,7.14,3.74c1.53,1.82,2.4,4.1,3.79,6a13.5,13.5,0,0,0,5.68,4.49,5,5,0,0,0,2.87.47c2.32-.47,3.24-3.18,4.2-5.34,1-2.37,1.61-3.13,3.91-4.32a6.9,6.9,0,0,1,7.33.46c4,3.23,3,8.49,5.73,12.83" style="fill:none;stroke:#3a3632;stroke-linecap:round;stroke-miterlimit:10;stroke-width:8px"/><path d="M1291.8,964.73c2.27.76,4.32,1.09,6.25,3.28s1.57,5,.7,7.32c-1.06,2.88-3,5.17-2.87,8s1.73,5.44,4.34,6.1c4.09,1,8.81-2.63,13.24-2.9,3.53-.22,5.41.69,7.86,2.82,1.59,1.38,2.21,3.64,2.15,6.25-.08,3-.5,6.51,1.54,8.33,3.46,3.08,9.6-1.89,13.25.93,4.26,3.29-.22,8,7.51,10.89" style="fill:none;stroke:#3a3632;stroke-linecap:round;stroke-miterlimit:10;stroke-width:8px"/><path d="M1344.06,989.71c2.8-2,5.88-2.68,9-1.21,5,2.35,5.33,8.52,5.25,10.86a11.93,11.93,0,0,0,3.09,8.94c3.39,3.32,9.35,3.2,13,.13,2.3-2,3.66-4.79,5.55-7.15s4.84-4.38,7.78-3.66c2.68.67,4.38,3.48,4.65,6.23a13.78,13.78,0,0,1-.71,6.73c-.61,1.89-2.43,5.21-4.66,6" style="fill:none;stroke:#3a3632;stroke-linecap:round;stroke-miterlimit:10;stroke-width:8px"/><path d="M1765.47,1147.24a21.14,21.14,0,0,1,1.75,8.08,6.45,6.45,0,0,1-2.84,6.09c-3.88,3.36-8,5.77-12.05,8.66-2.92,2.07-4.21,5.9-6.35,8.78-2.41,3.27-6,2.94-9,5.36-1.22,1-2.31,2.18-3.61,3-5.23,3.39-11.84.61-17.24,3.63-5.77,3.24-11.74,5-18.32,4.43-7.45-.67-14.42-4-22-4.15-3.55-.06-7.19.31-10.56-1a17.7,17.7,0,0,1-7.18-5.79c-1.69-2.12-3.18-6.18-5.57-7.11-3.15-1.23-6.38-2.51-8.87-5-1.94-2-4.68-5.36-4.44-8.46.12-1.53.92-2.88,1.15-4.39a6,6,0,0,0-.36-3.23c-1-2.38-3.43-4.11-3.4-6.71,0-2.13,1.75-3.64,3.33-4.79,2.71-2,6.22-3.3,8-6.31,1.59-2.67,2.77-5.73,5.45-7.27a23.8,23.8,0,0,1,4.18-1.46c3.16-1.13,3.74-4.45,5.62-7.12a9.45,9.45,0,0,1,7-4.42c3.28-.28,6.66,1.25,9.85.37,2.64-.73,4.67-3,6.72-5,4.09-4,8.6-4.24,13.82-4.58,5.06-.32,13.4-1.5,18,1.61,2.21,1.5,3.45,4.35,5.55,6,2.71,2.18,6.3,2,9.61,2s7,.15,9.37,2.78c1.48,1.64,2.2,4,3.53,5.75,2.27,3.08,5.94,4.22,9.18,5.87,3.94,2,5.14,5.26,7.17,9.11C1763.86,1143.81,1764.75,1145.5,1765.47,1147.24Z" style="fill:#966c42;stroke:#3a3632;stroke-linecap:round;stroke-miterlimit:10;stroke-width:8px"/><path d="M1729,1118.42c-8.83-1.31-16.28,2.17-18.75,10.12-.64,2.06-.93,4.31-2,6.07-2.08,3.28-6.74,3.34-9.43.59-3-3.07-6.08-10-14.25-9.73-5.79.2-10,2.87-13.59,13.62-1.55,4.59-6.06,7.87-10.23,6.25" style="fill:none;stroke:#3a3632;stroke-linecap:round;stroke-miterlimit:10;stroke-width:8px"/><path d="M1652.23,1159.69c.25,3.94,2.11,8.52,5.75,9.92s7.89,1.42,11.4-3.82c4.32-6.44,9.23-4.62,11.59-.92a16.12,16.12,0,0,0,6.19,5.77c9.84,4.72,21.13-9.34,9.27-17.52-3.55-2.45-11.06-2.68-9.33-11" style="fill:none;stroke:#3a3632;stroke-linecap:round;stroke-miterlimit:10;stroke-width:8px"/><path d="M1716.38,1176.61c4.54-1.57,5-5.54,4.47-9.82-.46-4-.37-14.41,8-16.18a11.24,11.24,0,0,1,11.25,3.4c3.88,4.22,4.11,8.5,9.12,10.7,3,1.31,6.93,2.74,11.38-.33" style="fill:none;stroke:#3a3632;stroke-linecap:round;stroke-miterlimit:10;stroke-width:8px"/><path d="M854.48,1460c-3.8-4.74-1.87-8.64,2.4-13,14.84-15,32.21-21.94,51.59-26.86,18.61-4.73,39.46-3.43,58.92,2.08,5.84,1.65,12.59,4.75,10.93,10.58s-7.61,8-13.62,7.12a146.7,146.7,0,0,0-49,.84,148.34,148.34,0,0,0-47.83,18.91C864.08,1462.05,857.73,1464,854.48,1460Z" style="fill:#f37820;stroke:#3a3632;stroke-miterlimit:10;stroke-width:6.95728759913793px"/><path d="M613.83,1446.5c-1.2-6.19,2.46-8.84,8.47-10.74,20.88-6.61,40.23-4.62,60.44.23,19.4,4.64,38,15.92,53.19,30.4,4.57,4.34,9.28,10.45,4.94,15s-10.86,3.64-16-.05a152.57,152.57,0,0,0-45.46-22.9,154.19,154.19,0,0,0-53.14-5.73C621.66,1453.05,614.86,1451.8,613.83,1446.5Z" style="fill:#f37820;stroke:#3a3632;stroke-miterlimit:10;stroke-width:7.22983394900298px"/><path d="M682,1425.68c-2.75,6.22-7.62,6.31-14.12,4.29-22.57-7-38.48-20.69-53.4-37.43-14.32-16.07-23.81-37.48-28.39-59.69-1.38-6.66-1.79-15,4.88-16.35s11.86,3.46,14.11,9.87c6.19,17.62,14.88,34.18,26.17,48.29a166.33,166.33,0,0,0,43.54,37.82C679.11,1415.05,684.38,1420.34,682,1425.68Z" style="fill:#f37820;stroke:#3a3632;stroke-miterlimit:10;stroke-width:7.80057135743186px"/><path d="M639.42,1425.59c1.93-6.46,1.91-15.83-3.67-20.67-1.35-1.18-3-2-4.26-3.28-3.27-3.25-3.5-8.5-6.37-12.09-5-6.32-15.63-4.85-21.87-10-1.81-1.5-3.13-3.47-4.76-5.16-7.23-7.52-20.63-12.68-30.93-10.17-4.39,1.07-8.81,2.64-13.3,2.17-2.83-.29-5.5-1.38-8.27-2s-5.86-.73-8.26.78c-.93.59-1.7,1.38-2.62,2-3.19,2.08-6.74,2.27-10.43,2.66s-7.45.8-10.68,2.56c-5.49,3-8.31,9.5-8.21,15.68.11,6.45,2.84,12.53,6.49,17.71,2.62,3.72,6.65,5.07,8.7,9.15,1.5,3,1.68,8.33,4.41,10.53s6.43,2.06,9.25,4.08c2.35,1.69,4.06,4.11,5.81,6.35,5.21,6.67,13.94,8.92,21.88,11.23,5.43,1.57,14.22,4.79,19.85,3,2.71-.87,4.66-3.28,7.29-4.36,3.41-1.4,7.28-.38,10.86.53s7.61,1.6,10.75-.31c2-1.19,3.23-3.22,5-4.61,3.12-2.37,7.34-2.54,11.2-3.3C633.9,1436.68,637.6,1431.67,639.42,1425.59Z" style="fill:#966c42;stroke:#3a3632;stroke-linecap:round;stroke-miterlimit:10;stroke-width:8px"/><path d="M512.28,1405.73a39.13,39.13,0,0,0,11,7.82,16.94,16.94,0,0,0,9.15,1.44c4.89-.45,6.8-3.09,11.63-3.93s10.21-.38,14,2.66c2,1.58,3.44,3.77,5.51,5.27a10.82,10.82,0,0,0,7.82,1.92c2.35-.35,4.52-1.46,6.84-2a13.66,13.66,0,0,1,7.23.4,5.07,5.07,0,0,1,2.46,1.54c1.42,1.85.31,4.46-.41,6.67-.79,2.44-.88,3.36.06,5.74a6.85,6.85,0,0,0,5.78,4.46c5.11.21,7.91-4.26,12.81-5.7" style="fill:none;stroke:#3a3632;stroke-linecap:round;stroke-miterlimit:10;stroke-width:8px"/><path d="M532.84,1384.08c2.2.92,3.95,2,6.85,1.68s4.46-2.62,5.38-4.94c1.12-2.82,1.19-5.77,3.18-7.78s4.9-2.88,7.29-1.66c3.75,1.92,4.84,7.71,8,10.81,2.49,2.47,4.5,3,7.74,3.06,2.11,0,4.08-1.23,5.76-3.2,2-2.28,4-5.12,6.69-5.12,4.63,0,5.92,7.68,10.52,8,5.37.36,5.12-6,12.84-3.11" style="fill:none;stroke:#3a3632;stroke-linecap:round;stroke-miterlimit:10;stroke-width:8px"/><path d="M588.5,1399.87c.76,3.31,2.62,5.83,5.92,6.78,5.3,1.54,9.65-2.78,11.15-4.56a12,12,0,0,1,8.24-4.56c4.73-.23,9.11,3.76,9.77,8.38.42,2.95-.45,5.93-.6,8.91s.71,6.39,3.39,7.77c2.45,1.27,5.59.31,7.61-1.54a13.59,13.59,0,0,0,3.95-5.42c.79-1.8,1.64-5.43.47-7.44" style="fill:none;stroke:#3a3632;stroke-linecap:round;stroke-miterlimit:10;stroke-width:8px"/><path d="M1807.44,1205.58c-2.52-5.2.1-8.4,5-11.5,16.92-10.75,34.5-13.53,53.52-14,18.25-.44,37.31,5.18,54.19,14.4,5.07,2.77,10.67,7.07,7.9,12.13s-8.75,5.77-14.13,3.71a140,140,0,0,0-45.6-9.58,141.53,141.53,0,0,0-48.36,7.41C1815.91,1209.53,1809.59,1210,1807.44,1205.58Z" style="fill:#f37820;stroke:#3a3632;stroke-miterlimit:10;stroke-width:6.61726494659046px"/></g></svg>