<svg xmlns="http://www.w3.org/2000/svg" viewBox="0 0 2000 2000"><g id="Layer_1" data-name="Layer 1"><path d="M1629.89,950.5c0-43.62-10.69-92.34-39.69-132.7-58.43-81.33-167.41-119.44-281.33-98.54l-17.45,3.2V577.75c0-114.33-239-207-533.71-207S224,463.42,224,577.75v877.79c0,114.33,239,207,533.71,207s533.71-92.69,533.71-207v-96.92C1378.15,1323.72,1629.89,1200,1629.89,950.5Zm-338.47,258.56V856.8c11.87-4.51,28.57-9.62,51.61-14.25,60.84-12.25,131.55,10.8,155.79,40.91,22.93,28.49,26.38,61.08,26.38,80.44C1525.2,1092.88,1379.81,1176.26,1291.42,1209.06Z" style="fill:#fff;stroke:#3a3632;stroke-miterlimit:10;stroke-width:20px"/><path d="M307.25,581.67C285,425.84,541.25,323.34,757.71,323.34S1220,431.21,1208.18,581.67c-52.07,77.65-234,135-450.47,135S359.32,659.32,307.25,581.67Z" style="fill:#754c28;stroke:#3a3632;stroke-miterlimit:10"/><path id="path10661" d="M902.43,505.45c-6.61-15.47-27-18.74-38.65-6.34-20.88,22.48-46.56,50-50.45,52.89-30.77,23.41,63.13,98.57,125.82,38.78,10.72-10.31,9.34-27.5-2.2-36.51C926.06,546,913.55,531.49,902.43,505.45Z" style="fill:#60381a;stroke:#3a3632;stroke-miterlimit:10;stroke-width:20px"/><path id="path10661-2" data-name="path10661" d="M1028.38,379.26c-6.68-15.44-27.1-18.62-38.68-6.17-20.78,22.57-46.34,50.17-50.22,53.11-30.66,23.54,63.57,98.29,126,38.23,10.67-10.36,9.22-27.54-2.36-36.5C1052.18,419.75,1039.61,405.26,1028.38,379.26Z" style="fill:#60381a;stroke:#3a3632;stroke-miterlimit:10;stroke-width:20px"/><path id="path10661-3" data-name="path10661" d="M768.72,316.65c-8-14.83-28.58-16.28-39.07-2.9-18.8,24.23-41.95,53.89-45.57,57.15-28.57,26,71.62,92.59,128.76,27.49,9.77-11.22,6.87-28.22-5.42-36.17C795.84,355,782.1,341.6,768.72,316.65Z" style="fill:#60381a;stroke:#3a3632;stroke-miterlimit:10;stroke-width:20px"/><path id="path10661-4" data-name="path10661" d="M646.56,499.57c-9.74-13.73-30.38-12.61-39.12,2-15.66,26.38-35,58.68-38.14,62.35-25.12,29.39,82.55,83,131.18,11.31,8.3-12.33,3.32-28.84-9.87-35.21C678.23,534.24,662.93,522.67,646.56,499.57Z" style="fill:#60381a;stroke:#3a3632;stroke-miterlimit:10;stroke-width:20px"/><path id="path10661-5" data-name="path10661" d="M513.82,379.36c-9.64-13.8-30.28-12.82-39.13,1.7-15.83,26.27-35.34,58.44-38.55,62.1-25.33,29.21,82,83.55,131.09,12.2,8.38-12.28,3.52-28.83-9.63-35.29C545.26,414.25,530,402.57,513.82,379.36Z" style="fill:#60381a;stroke:#3a3632;stroke-miterlimit:10;stroke-width:20px"/><path d="M292.69,572.33c53.75,80.15,241.57,139.32,465,139.32s411.27-59.17,465-139.32" style="fill:none;stroke:#3a3632;stroke-linecap:round;stroke-miterlimit:10;stroke-width:20px"/></g><g id="Isolation_Mode" data-name="Isolation Mode"><path id="path10661-6" data-name="path10661" d="M1382.21,1459.58c11-17.4,35.81-17.09,47,.38,19.95,31.63,44.52,70.35,48.51,74.71,31.42,34.83-95.12,106.37-156.62,20.74-10.5-14.74-5.29-35.31,10.23-43.83C1345.85,1503.88,1363.65,1488.84,1382.21,1459.58Z" style="fill:#60381a;stroke:#3a3632;stroke-miterlimit:10;stroke-width:20px"/><path id="path10661-7" data-name="path10661" d="M1670.21,1490.42c11-17.39,35.81-17.09,47,.39,19.95,31.63,44.52,70.35,48.51,74.71,31.42,34.83-95.12,106.37-156.62,20.73-10.5-14.74-5.29-35.3,10.22-43.82C1633.85,1534.72,1651.65,1519.69,1670.21,1490.42Z" style="fill:#60381a;stroke:#3a3632;stroke-miterlimit:10;stroke-width:20px"/><path id="path10661-8" data-name="path10661" d="M1239.88,1533.18c-12-16.9-37.39-15.52-48.16,2.43-19.28,32.48-43,72.25-47,76.77-30.93,36.18,101.63,102.19,161.5,13.93,10.22-15.19,4.09-35.52-12.15-43.36C1278.88,1575.88,1260,1561.63,1239.88,1533.18Z" style="fill:#60381a;stroke:#3a3632;stroke-miterlimit:10;stroke-width:20px"/><path id="path10661-9" data-name="path10661" d="M1611.42,1546.17c-8.14-19.06-33.26-23.08-47.59-7.81-25.7,27.67-57.32,61.52-62.11,65.12-37.88,28.82,77.73,121.36,154.91,47.74,13.2-12.69,11.5-33.85-2.71-45C1640.51,1596.14,1625.12,1578.23,1611.42,1546.17Z" style="fill:#60381a;stroke:#3a3632;stroke-miterlimit:10;stroke-width:20px"/><path id="path10661-10" data-name="path10661" d="M1605.81,1385.4c-6.69-15.66-27.33-19-39.1-6.41-21.12,22.73-47.11,50.55-51,53.5-31.13,23.69,63.87,99.73,127.29,39.24,10.85-10.43,9.46-27.82-2.23-36.94C1629.72,1426.46,1617.07,1411.75,1605.81,1385.4Z" style="fill:#60381a;stroke:#3a3632;stroke-miterlimit:10;stroke-width:20px"/></g></svg>