<svg xmlns="http://www.w3.org/2000/svg" viewBox="0 0 2000 2000"><g id="Layer_1" data-name="Layer 1"><path d="M724.39,899.73c179.1,0,333.86-49.27,381.53-114.05l44.35-119.15c0-92.07-190.68-166.71-425.88-166.71S298.51,574.46,298.51,666.53l48.26,119.15C394.44,850.46,545.28,899.73,724.39,899.73Z" style="fill:#e6e7e8;stroke:#3a3632;stroke-miterlimit:10;stroke-width:20px"/><path d="M724.39,478.78c25.24,0,51.13-25.91,75.36-24.56,25.35,1.4,46.71,30,70.65,32.76,25.43,2.94,51.55-19.56,75-15.21,20.05,3.71,30.89,29.33,49.26,34,20,5.06,50.13-10.05,67.84-4,19.84,6.78,23.29,33.53,39.88,41.42,17.27,8.21,43.87,4.37,57.16,13.62,16.2,11.28-2,34.26,7.47,46.78,11.77,15.53,32.12,20,32.12,36.87,0,16.63-24.53,20.94-35.93,36.23-9.24,12.4,9.54,30.77-6.27,42-13,9.19-39.49,5.45-56.4,13.63-16.56,8-7,34.8-26.86,41.69-17.73,6.15-52.34-8.83-72.39-3.7C982.9,775,972.11,809.18,952,813c-23.69,4.44-54.41-22.25-80.12-19.24-24.17,2.82-45.75,35.74-71.37,37.17-24.46,1.37-50.62-28.8-76.12-28.8s-51.66,30.17-76.13,28.8c-25.62-1.43-47.2-34.35-71.37-37.17-25.71-3-56.43,23.68-80.12,19.24-20.11-3.77-30.9-38-49.3-42.71-20.05-5.13-54.66,9.85-72.39,3.7-19.88-6.89-10.3-33.67-26.85-41.69-16.92-8.18-43.42-4.44-56.4-13.63-15.82-11.19,3-29.56-6.28-42-11.4-15.29-35.93-19.6-35.93-36.23,0-16.9,20.35-21.34,32.12-36.87,9.5-12.52-8.73-35.5,7.47-46.78,13.29-9.25,39.89-5.41,57.17-13.62,16.58-7.89,15.75-34.64,35.59-41.42,17.71-6.05,52.14,9.06,72.12,4,18.37-4.64,29.21-30.26,49.26-34,23.47-4.35,49.59,18.15,75,15.21,23.94-2.77,45.3-31.36,70.65-32.76C673.25,452.87,699.14,478.78,724.39,478.78Z" style="fill:#f1decd;stroke:#3a3632;stroke-miterlimit:10;stroke-width:20px"/><ellipse cx="724.39" cy="631.86" rx="421.67" ry="140.61" style="fill:#754c28;stroke:#3a3632;stroke-miterlimit:10;stroke-width:20px"/><path d="M581.35,615.27a14.9,14.9,0,0,0-11.55-14.51,14.87,14.87,0,0,0-19.28-21.16c0-.11,0-.22,0-.33a14.9,14.9,0,1,0-29.79,0c0,.11,0,.22,0,.33a14.71,14.71,0,0,0-6.62-1.57,14.9,14.9,0,0,0-14.9,14.9,14.74,14.74,0,0,0,2.25,7.83,14.89,14.89,0,0,0-2.19,28.33c0,.36-.06.71-.06,1.08a14.9,14.9,0,0,0,24.49,11.39,14.85,14.85,0,0,0,23.83,0A14.89,14.89,0,0,0,572,630.17c0-.37,0-.72,0-1.08A14.89,14.89,0,0,0,581.35,615.27Z" style="fill:#be1e2d;stroke:#3a3632;stroke-miterlimit:10;stroke-width:20px"/><path d="M958.83,615.27a14.89,14.89,0,0,0-11.55-14.51,14.74,14.74,0,0,0,2.25-7.83,14.9,14.9,0,0,0-14.9-14.9A14.74,14.74,0,0,0,928,579.6c0-.11,0-.22,0-.33a14.9,14.9,0,1,0-29.79,0c0,.11,0,.22,0,.33a14.74,14.74,0,0,0-6.62-1.57,14.9,14.9,0,0,0-14.9,14.9,14.74,14.74,0,0,0,2.25,7.83,14.88,14.88,0,0,0-2.2,28.33c0,.36,0,.71,0,1.08a14.89,14.89,0,0,0,24.48,11.39,14.85,14.85,0,0,0,23.83,0,14.9,14.9,0,0,0,24.49-11.39c0-.37,0-.72-.06-1.08A14.88,14.88,0,0,0,958.83,615.27Z" style="fill:#be1e2d;stroke:#3a3632;stroke-miterlimit:10;stroke-width:20px"/><path d="M732.65,668.21A14.9,14.9,0,0,0,721.1,653.7a14.87,14.87,0,0,0-19.28-21.16c0-.11,0-.22,0-.33a14.9,14.9,0,1,0-29.79,0c0,.11,0,.22,0,.33a14.71,14.71,0,0,0-6.62-1.57,14.87,14.87,0,0,0-12.65,22.73A14.89,14.89,0,0,0,650.6,682c0,.36-.06.71-.06,1.08A14.9,14.9,0,0,0,675,694.5a14.85,14.85,0,0,0,23.83,0,14.89,14.89,0,0,0,24.48-11.39c0-.37,0-.72-.05-1.08A14.89,14.89,0,0,0,732.65,668.21Z" style="fill:#be1e2d;stroke:#3a3632;stroke-miterlimit:10;stroke-width:20px"/><path d="M809.75,554a14.88,14.88,0,0,0-11.55-14.5,14.88,14.88,0,0,0-19.28-21.17c0-.11,0-.22,0-.33a14.9,14.9,0,0,0-29.79,0c0,.11,0,.22,0,.33a14.71,14.71,0,0,0-6.62-1.57,14.87,14.87,0,0,0-12.65,22.74,14.88,14.88,0,0,0-2.19,28.32c0,.36-.06.72-.06,1.08a14.9,14.9,0,0,0,24.49,11.39,14.85,14.85,0,0,0,23.83,0,14.89,14.89,0,0,0,24.48-11.39c0-.36,0-.72-.05-1.08A14.88,14.88,0,0,0,809.75,554Z" style="fill:#be1e2d;stroke:#3a3632;stroke-miterlimit:10;stroke-width:20px"/><path d="M1440.63,1215c199,0,371-54.75,423.93-126.73l49.27-132.39c0-102.29-211.86-185.22-473.2-185.22s-473.2,82.93-473.2,185.22l53.63,132.39C1074,1160.29,1241.63,1215,1440.63,1215Z" style="fill:#e6e7e8;stroke:#3a3632;stroke-miterlimit:10;stroke-width:20px"/><path d="M1440.63,747.32c28,0,56.82-28.79,83.74-27.29,28.17,1.56,51.9,33.33,78.5,36.4,28.26,3.27,57.28-21.73,83.36-16.9,22.28,4.12,34.32,32.59,54.73,37.75,22.21,5.61,55.7-11.18,75.38-4.45,22,7.53,25.87,37.25,44.3,46,19.2,9.13,48.75,4.86,63.52,15.14,18,12.53-2.26,38.06,8.3,52,13.08,17.25,35.69,22.18,35.69,41,0,18.48-27.25,23.26-39.92,40.26-10.27,13.78,10.6,34.19-7,46.62-14.43,10.21-43.88,6.05-62.67,15.15-18.4,8.9-7.74,38.66-29.84,46.32-19.7,6.82-58.15-9.82-80.43-4.12-20.45,5.24-32.43,43.27-54.78,47.46-26.32,4.93-60.46-24.72-89-21.38-26.86,3.14-50.84,39.71-79.31,41.3-27.18,1.53-56.24-32-84.58-32s-57.4,33.53-84.58,32c-28.47-1.59-52.44-38.16-79.3-41.3-28.56-3.34-62.7,26.31-89,21.38-22.35-4.19-34.33-42.22-54.78-47.46-22.28-5.7-60.74,10.94-80.43,4.12-22.1-7.66-11.45-37.42-29.84-46.32-18.79-9.1-48.24-4.94-62.67-15.15-17.57-12.43,3.3-32.84-7-46.62-12.67-17-39.92-21.78-39.92-40.26,0-18.78,22.61-23.71,35.69-41,10.55-13.92-9.7-39.45,8.3-52,14.77-10.28,44.31-6,63.51-15.14,18.43-8.77,17.51-38.49,39.55-46,19.68-6.73,57.93,10.06,80.14,4.45,20.41-5.16,32.45-33.63,54.73-37.75,26.08-4.83,55.1,20.17,83.36,16.9,26.59-3.07,50.33-34.84,78.5-36.4C1383.81,718.53,1412.59,747.32,1440.63,747.32Z" style="fill:#f1decd;stroke:#3a3632;stroke-miterlimit:10;stroke-width:20px"/><ellipse cx="1440.63" cy="917.41" rx="468.53" ry="156.23" style="fill:#754c28;stroke:#3a3632;stroke-miterlimit:10;stroke-width:20px"/><path d="M1281.7,899a16.53,16.53,0,0,0-12.83-16.11,16.52,16.52,0,0,0-21.42-23.52c0-.13,0-.24,0-.37a16.55,16.55,0,1,0-33.1,0c0,.13,0,.24,0,.37A16.53,16.53,0,0,0,1193,882.86a16.53,16.53,0,0,0-2.43,31.47c0,.4-.06.79-.06,1.2a16.54,16.54,0,0,0,27.2,12.66,16.51,16.51,0,0,0,26.48,0,16.54,16.54,0,0,0,27.2-12.66c0-.41,0-.8-.06-1.2A16.53,16.53,0,0,0,1281.7,899Z" style="fill:#be1e2d;stroke:#3a3632;stroke-miterlimit:10;stroke-width:20px"/><path d="M1701.13,899a16.53,16.53,0,0,0-12.83-16.11,16.52,16.52,0,0,0-21.42-23.52c0-.13,0-.24,0-.37a16.55,16.55,0,0,0-33.1,0c0,.13,0,.24,0,.37a16.35,16.35,0,0,0-7.35-1.75,16.53,16.53,0,0,0-14.06,25.27,16.53,16.53,0,0,0-2.43,31.47c0,.4-.07.79-.07,1.2a16.55,16.55,0,0,0,27.21,12.66,16.51,16.51,0,0,0,26.48,0,16.54,16.54,0,0,0,27.2-12.66c0-.41,0-.8-.06-1.2A16.55,16.55,0,0,0,1701.13,899Z" style="fill:#be1e2d;stroke:#3a3632;stroke-miterlimit:10;stroke-width:20px"/><path d="M1449.82,957.8A16.55,16.55,0,0,0,1437,941.68a16.53,16.53,0,0,0-21.42-23.52c0-.12,0-.24,0-.36a16.55,16.55,0,1,0-33.1,0c0,.12,0,.24,0,.36a16.53,16.53,0,0,0-21.42,23.52,16.54,16.54,0,0,0-2.43,31.47c0,.4-.06.79-.06,1.2a16.54,16.54,0,0,0,27.2,12.66,16.51,16.51,0,0,0,26.48,0,16.54,16.54,0,0,0,27.2-12.66c0-.41,0-.8-.06-1.2A16.54,16.54,0,0,0,1449.82,957.8Z" style="fill:#be1e2d;stroke:#3a3632;stroke-miterlimit:10;stroke-width:20px"/><path d="M1535.48,830.85a16.53,16.53,0,0,0-12.83-16.11,16.52,16.52,0,0,0-21.42-23.52c0-.13,0-.24,0-.37a16.55,16.55,0,1,0-33.1,0c0,.13,0,.24,0,.37a16.35,16.35,0,0,0-7.35-1.75,16.53,16.53,0,0,0-14.06,25.27,16.53,16.53,0,0,0-2.44,31.47c0,.4-.06.79-.06,1.2a16.55,16.55,0,0,0,27.21,12.66,16.51,16.51,0,0,0,26.48,0,16.54,16.54,0,0,0,27.2-12.66c0-.41,0-.8-.06-1.2A16.55,16.55,0,0,0,1535.48,830.85Z" style="fill:#be1e2d;stroke:#3a3632;stroke-miterlimit:10;stroke-width:20px"/><path d="M747.28,1744.16c261.57,0,487.58-72,557.21-166.57l64.75-174c0-134.45-278.46-243.45-622-243.45s-622,109-622,243.45l70.48,174C265.43,1672.2,485.71,1744.16,747.28,1744.16Z" style="fill:#e6e7e8;stroke:#3a3632;stroke-miterlimit:10;stroke-width:20px"/><path d="M747.28,1129.4c36.87,0,74.68-37.84,110.06-35.87,37,2,68.22,43.8,103.18,47.84,37.14,4.3,75.28-28.56,109.56-22.22,29.29,5.42,45.11,42.84,71.94,49.62,29.19,7.38,73.22-14.68,99.08-5.84,29,9.9,34,49,58.23,60.48,25.24,12,64.08,6.39,83.48,19.9,23.67,16.47-3,50,10.91,68.32,17.19,22.68,46.91,29.16,46.91,53.84,0,24.29-35.82,30.58-52.47,52.92-13.5,18.11,13.93,44.94-9.16,61.28-19,13.42-57.67,7.95-82.37,19.91-24.18,11.7-10.18,50.81-39.22,60.88-25.89,9-76.43-12.91-105.71-5.41-26.88,6.88-42.63,56.87-72,62.37-34.6,6.49-79.46-32.49-117-28.1-35.29,4.13-66.81,52.2-104.23,54.29-35.72,2-73.92-42.06-111.17-42.06s-75.45,44.07-111.17,42.06c-37.42-2.09-68.94-50.16-104.23-54.29-37.55-4.39-82.42,34.59-117,28.1-29.38-5.5-45.13-55.49-72-62.37-29.28-7.5-79.82,14.38-105.71,5.41-29-10.07-15-49.18-39.22-60.88-24.7-12-63.4-6.49-82.37-19.91-23.09-16.34,4.34-43.17-9.16-61.28-16.65-22.34-52.47-28.63-52.47-52.92,0-24.68,29.72-31.16,46.91-53.84,13.87-18.29-12.76-51.85,10.9-68.32,19.41-13.51,58.25-7.9,83.49-19.9,24.22-11.52,23-50.58,52-60.48,25.86-8.84,76.14,13.22,105.33,5.84,26.83-6.78,42.65-44.2,71.94-49.62,34.28-6.34,72.42,26.52,109.56,22.22,35-4,66.15-45.79,103.18-47.84C672.6,1091.56,710.41,1129.4,747.28,1129.4Z" style="fill:#f1decd;stroke:#3a3632;stroke-miterlimit:10;stroke-width:20px"/><ellipse cx="747.28" cy="1352.96" rx="615.82" ry="205.35" style="fill:#754c28;stroke:#3a3632;stroke-miterlimit:10;stroke-width:20px"/><path d="M538.39,1328.73a21.76,21.76,0,0,0-16.88-21.19,21.72,21.72,0,0,0-28.14-30.91c0-.16,0-.32,0-.48a21.76,21.76,0,0,0-43.51,0c0,.16,0,.32,0,.48a21.72,21.72,0,0,0-28.14,30.91,21.74,21.74,0,0,0-3.2,41.38c0,.52-.08,1-.08,1.56a21.75,21.75,0,0,0,35.75,16.65,21.69,21.69,0,0,0,34.81,0,21.74,21.74,0,0,0,35.75-16.64c0-.53,0-1-.08-1.56A21.75,21.75,0,0,0,538.39,1328.73Z" style="fill:#be1e2d;stroke:#3a3632;stroke-miterlimit:10;stroke-width:20px"/><path d="M1089.67,1328.73a21.75,21.75,0,0,0-16.87-21.19,21.72,21.72,0,0,0-28.14-30.91c0-.16,0-.32,0-.48a21.76,21.76,0,0,0-43.51,0c0,.16,0,.32,0,.48a21.72,21.72,0,0,0-28.14,30.91,21.74,21.74,0,0,0-3.2,41.38c0,.52-.08,1-.08,1.56a21.75,21.75,0,0,0,35.75,16.65,21.69,21.69,0,0,0,34.81,0,21.74,21.74,0,0,0,35.75-16.64c0-.53,0-1-.08-1.56A21.75,21.75,0,0,0,1089.67,1328.73Z" style="fill:#be1e2d;stroke:#3a3632;stroke-miterlimit:10;stroke-width:20px"/><path d="M759.35,1406a21.75,21.75,0,0,0-16.87-21.18,21.73,21.73,0,0,0-28.15-30.92c0-.16,0-.31,0-.47a21.76,21.76,0,1,0-43.51,0c0,.16,0,.31,0,.47a21.73,21.73,0,0,0-28.15,30.92,21.74,21.74,0,0,0-3.2,41.37c0,.52-.08,1-.08,1.57a21.75,21.75,0,0,0,35.76,16.64,21.69,21.69,0,0,0,34.8,0,21.75,21.75,0,0,0,35.76-16.64c0-.53,0-1-.08-1.57A21.75,21.75,0,0,0,759.35,1406Z" style="fill:#be1e2d;stroke:#3a3632;stroke-miterlimit:10;stroke-width:20px"/><path d="M872,1239.19A21.75,21.75,0,0,0,855.07,1218a21.72,21.72,0,0,0-28.14-30.92c0-.16,0-.31,0-.47a21.76,21.76,0,1,0-43.51,0c0,.16,0,.31,0,.47A21.73,21.73,0,0,0,755.32,1218a21.74,21.74,0,0,0-3.2,41.37c0,.52-.08,1-.08,1.57a21.75,21.75,0,0,0,35.75,16.64,21.7,21.7,0,0,0,34.81,0A21.75,21.75,0,0,0,858.35,1261c0-.53,0-1-.07-1.57A21.76,21.76,0,0,0,872,1239.19Z" style="fill:#be1e2d;stroke:#3a3632;stroke-miterlimit:10;stroke-width:20px"/></g></svg>