<svg xmlns="http://www.w3.org/2000/svg" viewBox="0 0 2000 2000"><g id="Layer_1" data-name="Layer 1"><ellipse cx="1000" cy="1164.77" rx="982.77" ry="504.92" style="fill:#fff;stroke:#3a3632;stroke-miterlimit:10;stroke-width:20px"/><path d="M562.73,1190c-2.69,4.83,3,9.73,6.67,13.87a22.4,22.4,0,0,1,4.27,21.82c-2.65,7.55-9.21,13.09-16.24,16.91s-14.71,6.29-21.81,10c-5.93,3.08-11.75,7.4-13.93,13.72-2.94,8.5,1.58,17.76,7,24.93s12.12,13.88,14.42,22.58c1.53,5.83.08,13-4.23,17.31-6.47,6.52-13.82,5.82-22.55,6.78-8.46.92-17.23,2.95-23.63,8.56-10.51,9.21-8.22,22,1.91,30,19.49,15.27,46.81,5.55,67.51-1.54,21.68-7.42,49.13-11.62,69.31,2.12,23,15.66,15.83,51.8,48,55.38,25.4,2.83,46.53-21.36,72-23.79,18.23-1.73,35.76,8.13,49.24,20.63,6.07,5.64,11.45,10.84,19.13,14.28a52.1,52.1,0,0,0,19.68,4.54c6.31.18,12.93-.91,17.95-4.73,8.23-6.25,10.33-18.14,18.23-24.81,9.55-8,23.68-5.8,36.05-4.06a240.18,240.18,0,0,0,32.48,2.34c5.54,0,11.37-.23,16.12-3.09,5.57-3.37,8.62-9.78,9.94-16.15s1.2-13,2.11-19.39c1.39-9.93,5.4-19.75,12.63-26.7s17.95-10.62,27.64-8" style="fill:#d5b585;stroke:#3a3632;stroke-linecap:round;stroke-linejoin:round;stroke-width:20px"/><polygon points="1239.45 1497.03 259.02 1109.36 259.02 752.68 1239.45 1086.51 1239.45 1497.03" style="fill:#ead39a;stroke:#3a3632;stroke-linecap:round;stroke-linejoin:round;stroke-width:20px;isolation:isolate;opacity:0.991999983787537"/><polygon points="1239.45 1497.03 1740.97 1109.36 1740.97 752.68 1239.45 1086.51 1239.45 1497.03" style="fill:#ead39a;stroke:#3a3632;stroke-linecap:round;stroke-linejoin:round;stroke-width:20px;isolation:isolate;opacity:0.991999983787537"/><path d="M803.21,1346.66c-51.07-28.34-23.56-80.6-23.43-124.59.1-36.48-19.52-72.65-10.93-108.11,6.18-25.5,26.77-47.57,25.33-73.77-.88-15.93-8.31-36.13,5-44.88,9.47-6.21,22.07-.38,31.32,6.18,18.17,12.89,23.94,14,41.18,3.33,17.06-10.6,33.66-16.85,54.13-16.58,24.18.32,47.58,8,70.53,15.65,48.17,16,95.49,34.59,141.21,56.67,34.37,16.61,88.26,61.16,126.49,29.83,12.8-10.49,18.17-27.34,30.92-37.86,25.94-21.41,56-32.74,81.56-55.79,3.21-2.9,6.71-6,10.79-7.61,9.18-3.65,15,4.18,18.52,11.77,9.24,20.08.5,42.4-2.61,62.82a126.33,126.33,0,0,0-1.14,28c1.07,15.17,7.19,32.64,21.85,36.68,16.3,4.5,32.16-12,34.16-28.78s-5.25-33.12-11.3-48.92-11-33.62-4.63-49.29c5.24-12.88,17.39-22.11,22.08-35.2,2.55-7.13,2.69-14.9,4.67-22.21,5.49-20.24,24.23-28,40.53-38.41,51.67-33,102.81-73.1,159.26-96.34,10.89-4.49,22.73-8.17,34.54-5.31,20.48,5,32,27.48,34.11,48.44s-2.25,42.16-.35,63.15c1,10.65,8.06,21,20.37,15.84s16.57-33.54,17.77-44.88c2.24-21.3-2-42.77-3.79-63.94-2.66-31.06-7.4-68-35.84-86.88-25.27-16.76-57.86-16.61-86.76-21.38-62.66-10.34-124.64-26.52-186.52-40.67-45.67-10.45-91.19-21.81-135.91-35.84-43.43-13.63-85-36.74-128.71-48.19-49.12-12.87-99.48-6.46-144.48-32.64-10.34-6-20.37-13.1-32-15.85-25-5.92-55.79.52-81.63-1.3-30.78-2.16-64.37-5.41-93.78-15.29-26.7-9-49.86-26.47-77.83-32.15-37.59-7.64-76,7.05-110.24,24.26q-15.42,7.75-30.43,16.28c-24,13.69-49.25,29.92-74.56,43.1-25.89,13.5-58.57,17.73-82.61,33-8.41,5.36-15.14,12.92-22.81,19.31-24.95,20.77-54.51,35.26-83.92,48.55-33,14.92-70.48,29.64-96.86,56.41-32.93,33.44-32.14,76.59-37.25,120.12-2,17.32,11.85,59.53,37,43,6.89-4.53,10.38-13,10.92-21.22.67-10.42-8.93-41.62,12.84-39.55,2.86.27,5.45,1.7,8.18,2.58,10.58,3.43,23.32-2.62,27.34-13,3.65-9.42,1.66-22.39,10.35-27.54,7.29-4.32,16.46.62,23.12,5.87,22.53,17.76,19.35-1.09,39.48-2.85,6.42-.56,12.67,2,18.63,4.44,40.05,16.64,79.66,32.17,121.57,43.62,29.08,8,64.72,11.88,89.94,28.91,15.5,10.47,27.89,27.36,28,46.06,0,7.38-1.79,14.86-.19,22.06A24.25,24.25,0,0,0,677.1,964.2c6.39.63,12.72-1.35,19.12-1.84,27.75-2.11,51.67,30.55,41.3,56.37-4.69,11.66-14.65,21.07-17.09,33.4-4,20.32,13.72,39.54,12.18,60.19-.76,10-6,19.16-8.33,29-6.53,27.66,10.86,57.11,3.25,84.5-6.18,22.21-50,69.16-84,61.6" style="fill:#d5b585;stroke:#3a3632;stroke-linecap:round;stroke-linejoin:round;stroke-width:20px"/><path d="M904.85,1108.22c8.13,1.14,15-1.57,22.84-3.26,13.79-3.16,23.51-1.38,32.38,10.5,2.18,2.8,4.74,2.76,8.25,2.55,9.66-1,21.63-3.68,31.15,2.32,5.22,3,8.91,8,12.48,12.34a17.5,17.5,0,0,0,4.8,4.25c.22.1.39.2.46.24s.1.14.27.16a6.5,6.5,0,0,0,1.71-.49c15.49-6.46,25.32,4.37,34.71,14.59a29.94,29.94,0,0,0,19.18,9.81c-6.17,2.9-14,2.77-20.48.21-5.17-2-10-5.33-14.74-7.92-3.15-1.57-6.73-3.69-9.83-2a30.58,30.58,0,0,1-5.38,2.66c-7.82,2.85-16.69-.71-22.36-5.87-3.55-3-6.61-7.38-9.87-10-2.84-2.13-4.72-2-9.59-1.91-5.68.27-13.62,1.35-20.25-.49a22.69,22.69,0,0,1-11.83-7.48c-3.85-4.48-4.46-10-10.24-11.87-10.24-3.4-24.56-.73-33.66-8.34Z" style="fill:#3a3632"/><path d="M393.12,1038.81c11.67,5.58,24,1.07,36.18-.49,11.11-1.7,23.27-1.56,32.94,5.85a44.76,44.76,0,0,1,8.22,8.51c2.54,3.28,4.72,6.73,7.16,9.6,1.69,1.93,3,3.24,5.11,3.88,4.59,1,9.66-.81,14.82-1.15,5.46-.65,12.63.15,17.64,3.18,6.5,3.68,10.44,8.94,15.52,13.74,8.42,8.18,17.53,15,29.3,16.15a30.08,30.08,0,0,0,12.11-1.34,24.77,24.77,0,0,1-11.49,6.88c-16.15,4.72-32.61-3.63-45.18-13.28-3.81-2.69-7.09-6.16-11.55-6.35-3-.09-6.29.77-9.77,1.4-5.27,1-11.05,1.7-16.87,0-12.27-3.46-17.42-14.36-23.72-23.94a19.2,19.2,0,0,0-12.51-8.4c-15.66-3.82-36.84.37-47.91-14.24Z" style="fill:#3a3632"/><path d="M1382.9,1291.27c12.7-8.06,21.48-19.1,25.66-32.63,3.77-13.83,10.25-18.63,24.11-20.31,4.36-.59,7.67-1.81,10.62-5.22,4.5-5,8.12-14.22,11.91-21,5.09-9.92,13.26-19.5,24.66-22.5,6.44-1.87,12.7-1.88,18.54-2.9a47.84,47.84,0,0,0,25.72-13.35c1.77-1.75,3.7-4.14,6.31-6.67a29.72,29.72,0,0,1,10.17-6.62c5.41-2,9.61-2,14.6-2.69a108.09,108.09,0,0,0,20.32-5c8-2.83,16.09-6.26,22.75-11.7a26.76,26.76,0,0,0,5.83-6.53,21.82,21.82,0,0,1-1.33,4.4c-4.62,10-13.91,17-23.06,22.72a101.29,101.29,0,0,1-17,8.14c-4.79,2-11.76,2.91-16,5.13-4.34,2.66-5.74,6.22-9.48,10.55a61.69,61.69,0,0,1-35.24,21c-5.82,1.19-11.61,1.24-16.62,2.68-15.71,4.2-18.06,35.45-40.16,43.31a35.62,35.62,0,0,1-11.08,1.86,50.76,50.76,0,0,0-7.21.48,5.94,5.94,0,0,0-3.79,2.13c-3,3.78-5.77,10.76-9.25,14.85-7.71,10-18.8,17.45-31,19.88Z" style="fill:#3a3632"/><path d="M1551,1031.43c10.38-6.93,19.64-16.4,24.85-27.5,1.51-3,2.3-5.67,4-8.93,2.06-4.24,6.16-9,10.86-10.93,4.51-2.11,9.23-2.4,13.55-2.5a31.2,31.2,0,0,0,7.22-.6c4.16-1.21,7.29-4.5,10.44-8.16,8.22-10,18.15-25.53,33.13-27.34,7.7-1,14.09,1.25,21.21,3-6.26,2.63-13.78,3.35-19.28,6.89-4.36,2.79-7.23,7.11-9.86,11.52-6.92,12.27-14.43,29.12-30.31,33.31-5.47,1.6-11.39,1-16.55,1-2.79.07-3.59.55-5.36,2.88s-3.87,5.84-5.93,8.35c-9.28,11.48-23.21,19.27-38,18.93Z" style="fill:#3a3632"/><path d="M372.46,719c-1.56,11.59,9.32,19.9,19.27,22.9,11,3.25,21.36,1,33.27,1.25a60.85,60.85,0,0,1,19.3,2.9c6.28,2.1,12.35,6,17.31,10C470,762.84,478.46,772.44,487,777c5.48,3,11.91,4.35,18.14,4.74,11.27.75,22.65-.67,34.17-.32,12.31-.09,25.92,3.7,36.8,7.92,10.59,3.93,22,8.34,32.53,12.47,32.38,12.93,64.72,26.42,95.83,42.24C659,834.76,614.18,821.42,570,807.31c-7.23-2.3-14.12-4.41-20.74-5.26s-13.71-.81-21.33-.51c-11.2.35-23,.93-34.19-1.66-15.28-3.31-25.8-12.8-35.34-23.25-5.31-5.6-10.14-10.81-15.49-14.23a33.12,33.12,0,0,0-8.57-4c-14.37-4.47-31.5-1.86-45.61-9.29-10.54-5.35-21.41-17.77-16.22-30.07Z" style="fill:#fff"/><path d="M1165,996.29c16.15,3,30,14.9,45.48,19,8.88,2.37,17.38.32,24.66-5.43,8.1-6.33,14.77-14.94,22.47-22.6,6.4-6.41,14.63-13.13,23.73-16.44,5.63-2.15,11.31-3.16,16.6-4.68,7.07-2,11.22-5.36,17-10.83,3.92-3.82,8-8.08,12.3-11.76,17.62-15.23,38-25.49,59.45-33.77-16.09,14.84-34.14,28.55-48.38,44.94-3.67,4.15-6.82,8.35-10.52,12.67-9.46,11.3-17.92,16.09-32.35,19.78-9.84,2.31-16.7,7.15-24.12,14.26-8.37,7.75-16,16.61-26.33,23-11.58,7.54-26.57,9.11-38.94,3.17-16.34-7.51-26.44-21.88-41-31.3Z" style="fill:#fff"/></g></svg>