<?xml version="1.0" encoding="UTF-8" standalone="no"?>
<svg
   xmlns:dc="http://purl.org/dc/elements/1.1/"
   xmlns:cc="http://creativecommons.org/ns#"
   xmlns:rdf="http://www.w3.org/1999/02/22-rdf-syntax-ns#"
   xmlns:svg="http://www.w3.org/2000/svg"
   xmlns="http://www.w3.org/2000/svg"
   xmlns:sodipodi="http://sodipodi.sourceforge.net/DTD/sodipodi-0.dtd"
   xmlns:inkscape="http://www.inkscape.org/namespaces/inkscape"
   inkscape:version="1.0beta1 (32d4812, 2019-09-19)"
   height="1652.3077"
   width="1958"
   sodipodi:docname="cream_sweet_potato.svg"
   id="svg849"
   version="1.1"
   viewBox="0 0 1958 1652.3077">
  <metadata
     id="metadata853">
    <rdf:RDF>
      <cc:Work
         rdf:about="">
        <dc:format>image/svg+xml</dc:format>
        <dc:type
           rdf:resource="http://purl.org/dc/dcmitype/StillImage" />
        <dc:title></dc:title>
      </cc:Work>
    </rdf:RDF>
  </metadata>
  <sodipodi:namedview
     inkscape:current-layer="svg849"
     inkscape:window-maximized="0"
     inkscape:window-y="55"
     inkscape:window-x="0"
     inkscape:cy="1097.0036"
     inkscape:cx="-1455.3863"
     inkscape:zoom="0.12374369"
     fit-margin-bottom="20"
     fit-margin-right="20"
     fit-margin-left="20"
     lock-margins="true"
     fit-margin-top="20"
     showgrid="false"
     id="namedview851"
     inkscape:window-height="907"
     inkscape:window-width="1600"
     inkscape:pageshadow="2"
     inkscape:pageopacity="0"
     guidetolerance="10"
     gridtolerance="10"
     objecttolerance="10"
     borderopacity="1"
     inkscape:document-rotation="0"
     bordercolor="#666666"
     pagecolor="#ffffff" />
  <defs
     id="defs836">
    <clipPath
       id="clip-path">
      <path
         inkscape:connector-curvature="0"
         id="path833"
         style="fill:none"
         d="m 1595.78,806.29 c 0,-5.53 3.85,-11.57 6.33,-16.26 5.37,-10.12 11.47,-19.85 17.61,-29.51 19.6,-30.88 40.32,-61.06 60.76,-91.39 C 1738,583.83 1795,498 1846.19,408.75 q 20,-34.85 38.55,-70.47 c 6,-11.51 7.82,-23.1 13.46,-34.77 q 4,-8.22 7.82,-16.51 a 26.64,26.64 0 0 0 2.35,-5.84 c 0.38,-1.86 0.16,-3.78 0.46,-5.66 0.49,-3.13 1.45,-6.22 2.1,-9.32 a 191.13,191.13 0 0 0 3.06,-19.34 c 2,-18.79 0.88,-38.06 -4.94,-56.11 -9.13,-28.36 -27.36,-53.52 -56.23,-60.9 -9.41,-2.4 -19.21,-2.9 -28.91,-2.69 -22.75,0.51 -45.61,5.17 -66.33,14.7 a 132.38,132.38 0 0 0 -28.85,17.95 c -7.49,6.17 -13,14.23 -19,21.84 q -17.79,22.5 -35.21,45.27 -18.23,23.78 -36.12,47.79 -18.43,24.71 -36.58,49.61 -18.4,25.26 -36.57,50.71 -18.17,25.45 -36.12,51.08 -17.73,25.29 -35.23,50.73 -17,24.78 -33.87,49.69 -16.12,23.88 -32.06,47.9 -15,22.64 -29.8,45.41 -13.65,21 -27.09,42.2 -12.07,19.07 -23.92,38.27 -10.3,16.74 -20.31,33.63 c -5.53,9.35 -11,18.76 -16.25,28.26 -4,7.31 -8,14.68 -11.72,22.18 a 139.12,139.12 0 0 0 -6.74,15.38 20.38,20.38 0 0 0 -1.53,6.55 c 0,47.32 68.32,85.68 152.61,85.68 84.29,0 152.56,-38.36 152.56,-85.68 z" />
    </clipPath>
  </defs>
  <g
     transform="translate(-21,-134.24229)"
     data-name="Layer 1"
     id="Layer_1">
    <path
       inkscape:connector-curvature="0"
       id="path838"
       style="fill:#ffffff;stroke:#3a3632;stroke-width:20px;stroke-miterlimit:10"
       d="m 1000,1766.55 c 403.3,0 625.66,-118.8 733,-263.35 92.91,-125.11 226,-619.35 226,-619.35 0,-205.45 -429.36,-372 -959,-372 -529.64,0 -959,166.55 -959,372 0,0 133.08,494.24 226,619.35 107.34,144.55 329.7,263.35 733,263.35 z" />
    <ellipse
       id="ellipse840"
       style="fill:#f1f1f2;stroke:#3a3632;stroke-width:20px;stroke-miterlimit:10"
       ry="280.32999"
       rx="840.69"
       cy="876.53998"
       cx="1000" />
    <path
       inkscape:connector-curvature="0"
       id="path842"
       style="fill:#fcac42;stroke:#3a3632;stroke-width:20px;stroke-miterlimit:10"
       d="m 259.22,1009.18 c 91.53,56.9 200.73,86 305.36,107.21 143,28.95 289.63,40.48 435.42,40.48 112,0 224.21,-7.06 335.09,-23.15 117.57,-17.07 237.36,-42.8 345.8,-92.74 37.86,-17.43 75.38,-38.16 106.59,-66.11 8,-7.21 20,-17 27.47,-27.26 C 1722.66,826.2 1392.79,736.38 1000,736.38 c -391.57,0 -720.61,89.26 -814.09,210.1 0.79,1.14 1.66,2.32 2.64,3.57 18.96,24.12 44.82,43.06 70.67,59.13 z" />
    <g
       id="g846"
       clip-path="url(#clip-path)">
      <path
         inkscape:connector-curvature="0"
         id="path844"
         style="fill:#d0d2d3;stroke:#3a3632;stroke-width:20px;stroke-miterlimit:10"
         d="m 1034.82,1437.8 c -75.24,-49.08 -45.9,-234.14 30.35,-351 22.14,-34 50.48,-66.29 85.36,-88.44 a 189.76,189.76 0 0 1 58.31,-24.9 c 22.4,-5.24 45.71,-3.7 68.09,-9 10.6,-2.51 20,-7.72 35.75,-32.49 l 462.34,-756 c 11.34,-19.26 54.11,-31.32 87.06,-11.75 l 5.06,3.3 c 31.19,22.28 37.38,66.28 24.33,84.41 l -505.65,727.75 c -16.32,24.37 -17.3,35.09 -15.32,45.81 4.18,22.62 15,43.33 19.2,65.94 a 189.73,189.73 0 0 1 0.71,63.39 c -6.22,40.86 -24.4,79.82 -46.55,113.77 -76.25,116.88 -233.8,218.3 -309,169.21" />
    </g>
  </g>
</svg>
