<svg xmlns="http://www.w3.org/2000/svg" viewBox="0 0 2000 2000"><g id="Layer_1" data-name="Layer 1"><ellipse cx="998.52" cy="1291.1" rx="948.52" ry="367.93" style="fill:#fff;stroke:#3a3632;stroke-miterlimit:10;stroke-width:20px"/><ellipse cx="998.52" cy="1283.87" rx="624.18" ry="208.13" style="fill:#f1f1f2;stroke:#3a3632;stroke-miterlimit:10;stroke-width:20px"/><ellipse cx="998.52" cy="1196.8" rx="873.71" ry="338.91" style="fill:#ecdaba;stroke:#3a3632;stroke-linecap:round;stroke-linejoin:round;stroke-width:20px;isolation:isolate;opacity:0.991999983787537"/><ellipse cx="1076.29" cy="1091.91" rx="873.71" ry="338.91" style="fill:#ecdaba;stroke:#3a3632;stroke-linecap:round;stroke-linejoin:round;stroke-width:20px;isolation:isolate;opacity:0.991999983787537"/><ellipse cx="963.34" cy="970.86" rx="873.71" ry="338.91" style="fill:#ecdaba;stroke:#3a3632;stroke-linecap:round;stroke-linejoin:round;stroke-width:20px;isolation:isolate;opacity:0.991999983787537"/><ellipse cx="1057.47" cy="876.11" rx="873.71" ry="338.91" style="fill:#ecdaba;stroke:#3a3632;stroke-linecap:round;stroke-linejoin:round;stroke-width:20px;isolation:isolate;opacity:0.991999983787537"/><path d="M1257.09,755.39l-196.36,72.38a46.89,46.89,0,0,1-32.44,0L831.94,755.39a24.87,24.87,0,0,1-16.27-23.34V672.72a24.87,24.87,0,0,1,17.9-23.87l197.79-57.8a46.91,46.91,0,0,1,26.31,0l197.79,57.8a24.87,24.87,0,0,1,17.9,23.87v59.33A24.88,24.88,0,0,1,1257.09,755.39Z" style="fill:#f6f089;stroke:#3a3632;stroke-linecap:round;stroke-linejoin:round;stroke-width:20px"/></g></svg>