<svg xmlns="http://www.w3.org/2000/svg" viewBox="0 0 2000 2000"><g id="Layer_1" data-name="Layer 1"><ellipse cx="1000" cy="1164.77" rx="982.77" ry="504.92" style="fill:#fff;stroke:#3a3632;stroke-miterlimit:10;stroke-width:20px"/><path d="M1805.33,939.24c-41.18-32.89-94.67-47.71-143.2-36.43-25.63,6-52,.85-77.35-6.76-27.76-8.35-48.5-35.13-70.08-57.75-91.16-95.53-224.89-128.21-339.77-83-58.21,22.89-113.14,37.06-174.38,38.12C929.64,794.63,867,769,799.83,741.75c-83.41-33.83-177.43-18-255.78,27-40,23-72.34,66.16-113.78,81.79-31.14,11.74-85.65-4.46-106.08,34.5-10.91,20.81-5.26,48.78-13.06,71.53-5.92,17.27-18.84,29.45-31.72,39.88-28,22.66-58.63,41.28-82.62,69.79-40.77,48.45-50,161.34,6.47,201.48,29.53,21,66.56,13.08,100.81,10.72s75.16,6.63,89.4,44.2c9.09,24,4,52.26,8.89,78C424,1515.29,548.08,1506.8,623.21,1505c39-.93,77.58-3.8,116.57-7.71,85-8.53,159,25.83,234,71.37,72.23,43.86,151.17,17.54,229.41-7.17,39.63-12.52,73.1-43.5,109.1-67.06,58.92-38.57,126.54-57.66,193.56-54.67,54.16,2.42,113,13.5,140.5-57.56,13-33.58,7.24-73.07,13.4-109.37,7.15-42.16,30.35-65.33,58.32-92.14,39.19-37.55,99.37-48.25,125.45-100.85C1868.82,1028.77,1846.51,972.13,1805.33,939.24Z" style="fill:#ffdf4c;stroke:#3a3632;stroke-linecap:round;stroke-linejoin:round;stroke-width:10px"/><path d="M328.27,1014.42a127.81,127.81,0,0,0-43.47-16,122.58,122.58,0,0,0-45.73.91,132.12,132.12,0,0,0-43.55,17.82,115.64,115.64,0,0,0-32.07,29.46,98.26,98.26,0,0,0-17.22,39.18,106.55,106.55,0,0,0,2.55,50.3,140.42,140.42,0,0,0,16.36,36s16.41,5.82,35.51-6.22S225.48,1134,225.48,1134c-8.95-13.19-13-26-11.14-35.4,1.42-7.21,6.8-13.8,16-19.6,23.73-15,50.62-12.44,72.78,6,0,0,14.66,6.92,37.5-7.48s24.89-31.87,24.89-31.87A149.53,149.53,0,0,0,328.27,1014.42Z" style="fill:#ffdf4c;stroke:#3a3632;stroke-linecap:round;stroke-linejoin:round;stroke-width:10px"/><path d="M171.28,1162.51s3.32-10.22,18.38-19.72,25.13-7.72,25.13-7.72" style="fill:#ffdf4c;stroke:#3a3632;stroke-linecap:round;stroke-linejoin:round;stroke-width:10px"/><path d="M310.08,1075s3.32-10.22,18.37-19.71,25.13-7.73,25.13-7.73" style="fill:#ffdf4c;stroke:#3a3632;stroke-linecap:round;stroke-linejoin:round;stroke-width:10px"/><path d="M1601.37,1112.81a100.91,100.91,0,0,0,6.91-43.07,109.58,109.58,0,0,0-15.26-49,143.47,143.47,0,0,0-25.15-31.39s-17.53-1.58-33.17,15.16-16.22,37.75-16.22,37.75c12.11,10.76,19.31,22.35,19.88,32.15.44,7.48-3.15,15.36-10.67,23.42-19.43,20.81-46.39,25.14-72.76,12.51,0,0-16.11-3.11-34.81,16.91s-16.27,37.81-16.27,37.81a151.11,151.11,0,0,0,44.38,21.47" style="fill:#ffdf4c;stroke:#3a3632;stroke-linecap:round;stroke-linejoin:round;stroke-width:10px"/><path d="M1564.29,1000.33s-.65,10.94-13,24.14-22.63,14-22.63,14" style="fill:#ffdf4c;stroke:#3a3632;stroke-linecap:round;stroke-linejoin:round;stroke-width:10px"/><path d="M1450.67,1122.05s-.65,10.94-13,24.14-22.63,14-22.63,14" style="fill:#ffdf4c;stroke:#3a3632;stroke-linecap:round;stroke-linejoin:round;stroke-width:10px"/><path d="M616.3,832.25a100.91,100.91,0,0,0,6.9-43.07,109.56,109.56,0,0,0-15.25-49,143.53,143.53,0,0,0-25.15-31.39s-17.54-1.59-33.17,15.16-16.22,37.75-16.22,37.75c12.1,10.76,19.3,22.35,19.88,32.14.44,7.49-3.15,15.37-10.67,23.42-19.43,20.81-46.4,25.14-72.77,12.52,0,0-16.11-3.11-34.8,16.91s-16.28,37.81-16.28,37.81a151.29,151.29,0,0,0,44.39,21.47" style="fill:#ffdf4c;stroke:#3a3632;stroke-linecap:round;stroke-linejoin:round;stroke-width:10px"/><path d="M579.22,719.77s-.65,10.94-13,24.14-22.63,14-22.63,14" style="fill:#ffdf4c;stroke:#3a3632;stroke-linecap:round;stroke-linejoin:round;stroke-width:10px"/><path d="M465.6,841.48s-.66,10.94-13,24.15-22.63,14-22.63,14" style="fill:#ffdf4c;stroke:#3a3632;stroke-linecap:round;stroke-linejoin:round;stroke-width:10px"/><path d="M1019.86,1266.28a90.41,90.41,0,0,0,33.91-24.81c10.7-12.54,18.26-28,22.46-45.82a153.71,153.71,0,0,0,3.64-41s-11.16-14.43-33.38-14.62-36.81,14-36.81,14c1.19,16.7-1.61,30.27-7.82,37.54-4.75,5.55-12.58,8.32-23.26,8.23-27.61-.24-49.35-17.7-59.23-46.55,0,0-9.14-14.41-35.71-14.64s-36.88,14-36.88,14a171.35,171.35,0,0,0,16.47,48.7" style="fill:#ffdf4c;stroke:#3a3632;stroke-linecap:round;stroke-linejoin:round;stroke-width:10px"/><path d="M1069.93,1159.61s-7.84,7.14-25.36,7-25.25-7.43-25.25-7.43" style="fill:#ffdf4c;stroke:#3a3632;stroke-linecap:round;stroke-linejoin:round;stroke-width:10px"/><path d="M908.46,1158.22s-7.84,7.14-25.36,7-25.25-7.43-25.25-7.43" style="fill:#ffdf4c;stroke:#3a3632;stroke-linecap:round;stroke-linejoin:round;stroke-width:10px"/><path d="M1138.45,1521.37a90.3,90.3,0,0,0,33.9-24.82c10.71-12.53,18.27-28,22.46-45.82a153.18,153.18,0,0,0,3.65-41s-11.17-14.43-33.38-14.62-36.81,14-36.81,14c1.18,16.7-1.62,30.26-7.83,37.53-4.74,5.56-12.57,8.33-23.26,8.24-27.6-.24-49.35-17.71-59.23-46.55,0,0-9.14-14.42-35.7-14.65s-36.89,14-36.89,14a171.32,171.32,0,0,0,16.48,48.71" style="fill:#ffdf4c;stroke:#3a3632;stroke-linecap:round;stroke-linejoin:round;stroke-width:10px"/><path d="M1188.52,1414.7s-7.84,7.13-25.36,7-25.26-7.42-25.26-7.42" style="fill:#ffdf4c;stroke:#3a3632;stroke-linecap:round;stroke-linejoin:round;stroke-width:10px"/><path d="M1027.05,1413.31s-7.85,7.13-25.36,7-25.26-7.42-25.26-7.42" style="fill:#ffdf4c;stroke:#3a3632;stroke-linecap:round;stroke-linejoin:round;stroke-width:10px"/><path d="M1702.05,1288.14a90.38,90.38,0,0,0,33.9-24.81c10.71-12.54,18.27-27.95,22.46-45.82a153.29,153.29,0,0,0,3.65-41s-11.17-14.43-33.38-14.62-36.81,14-36.81,14c1.18,16.71-1.62,30.27-7.83,37.54-4.74,5.55-12.57,8.32-23.26,8.23-27.6-.24-49.35-17.7-59.23-46.55,0,0-9.14-14.41-35.7-14.64s-36.89,14-36.89,14a171.36,171.36,0,0,0,16.48,48.7" style="fill:#ffdf4c;stroke:#3a3632;stroke-linecap:round;stroke-linejoin:round;stroke-width:10px"/><path d="M1752.12,1181.47s-7.84,7.14-25.36,7-25.25-7.43-25.25-7.43" style="fill:#ffdf4c;stroke:#3a3632;stroke-linecap:round;stroke-linejoin:round;stroke-width:10px"/><path d="M1590.65,1180.08s-7.84,7.14-25.36,7-25.26-7.43-25.26-7.43" style="fill:#ffdf4c;stroke:#3a3632;stroke-linecap:round;stroke-linejoin:round;stroke-width:10px"/><path d="M1303.09,1318.84c5.11-16,6.24-33.36,3.38-51.52a151.83,151.83,0,0,0-12.08-39.15s-15.67-8.51-36.11.71-28.49,28.43-28.49,28.43c7.37,14.82,9.9,28.44,6.94,37.74-2.26,7.1-8.4,13-18.23,17.39-25.41,11.46-51.91,4.65-71.82-17.62,0,0-13.8-9.36-38.25,1.67s-28.55,28.47-28.55,28.47a161.37,161.37,0,0,0,33.42,37.69" style="fill:#ffdf4c;stroke:#3a3632;stroke-linecap:round;stroke-linejoin:round;stroke-width:10px"/><path d="M1347.44,804a109.45,109.45,0,0,0-15.26-49A143.25,143.25,0,0,0,1307,723.59s-17.54-1.59-33.17,15.15-16.23,37.76-16.23,37.76c12.11,10.75,19.31,22.35,19.89,32.14.43,7.48-3.16,15.36-10.68,23.42-19.42,20.81-46.39,25.14-72.76,12.52,0,0-16.11-3.12-34.81,16.91s-16.27,37.8-16.27,37.8a151.15,151.15,0,0,0,44.38,21.48" style="fill:#ffdf4c;stroke:#3a3632;stroke-linecap:round;stroke-linejoin:round;stroke-width:10px"/><path d="M681.49,1067a109.58,109.58,0,0,0-15.26-49,143.53,143.53,0,0,0-25.15-31.39s-17.54-1.59-33.17,15.16-16.22,37.75-16.22,37.75c12.1,10.76,19.31,22.35,19.88,32.14.44,7.49-3.15,15.36-10.67,23.42-19.43,20.81-46.39,25.14-72.76,12.52,0,0-16.12-3.12-34.81,16.91s-16.27,37.81-16.27,37.81a151.11,151.11,0,0,0,44.38,21.47" style="fill:#ffdf4c;stroke:#3a3632;stroke-linecap:round;stroke-linejoin:round;stroke-width:10px"/><path d="M526.07,878.09c-5.17-16-6.37-33.33-3.58-51.51a151.85,151.85,0,0,1,11.92-39.2s15.63-8.59,36.11.54,28.6,28.3,28.6,28.3c-7.31,14.85-9.78,28.49-6.78,37.77,2.29,7.09,8.45,12.92,18.3,17.31,25.46,11.34,51.93,4.4,71.75-18,0,0,13.76-9.41,38.25,1.51s28.67,28.33,28.67,28.33A161.36,161.36,0,0,1,716,921" style="fill:#ffdf4c;stroke:#3a3632;stroke-linecap:round;stroke-linejoin:round;stroke-width:10px"/><path d="M728,1065.41c-5.17-16-6.38-33.33-3.58-51.51a151.49,151.49,0,0,1,11.91-39.21s15.64-8.58,36.12.55,28.6,28.3,28.6,28.3c-7.31,14.85-9.78,28.49-6.78,37.77,2.29,7.09,8.45,12.91,18.3,17.31,25.45,11.34,51.93,4.4,71.74-18,0,0,13.77-9.42,38.26,1.5s28.67,28.33,28.67,28.33a161.42,161.42,0,0,1-33.27,37.85" style="fill:#ffdf4c;stroke:#3a3632;stroke-linecap:round;stroke-linejoin:round;stroke-width:10px"/><path d="M1488.59,895.81c-5.17-16-6.38-33.33-3.58-51.5a151.14,151.14,0,0,1,11.92-39.21s15.63-8.58,36.11.55,28.6,28.3,28.6,28.3c-7.31,14.85-9.78,28.48-6.78,37.76,2.29,7.1,8.45,12.92,18.3,17.31,25.45,11.35,51.93,4.41,71.74-17.95,0,0,13.77-9.42,38.26,1.5s28.67,28.33,28.67,28.33a161.42,161.42,0,0,1-33.27,37.85" style="fill:#ffdf4c;stroke:#3a3632;stroke-linecap:round;stroke-linejoin:round;stroke-width:10px"/><path d="M933.21,994.28c-5.17-16-6.38-33.34-3.59-51.51a151.91,151.91,0,0,1,11.92-39.21s15.63-8.58,36.11.55,28.6,28.3,28.6,28.3c-7.3,14.85-9.78,28.48-6.78,37.77,2.29,7.09,8.45,12.91,18.31,17.3,25.45,11.35,51.93,4.41,71.74-18,0,0,13.76-9.42,38.26,1.5s28.66,28.33,28.66,28.33a161.15,161.15,0,0,1-33.26,37.85" style="fill:#ffdf4c;stroke:#3a3632;stroke-linecap:round;stroke-linejoin:round;stroke-width:10px"/><path d="M567.67,1351.79c-5.17-16-6.37-33.33-3.58-51.51A151.91,151.91,0,0,1,576,1261.07s15.63-8.58,36.11.55,28.6,28.3,28.6,28.3c-7.31,14.85-9.78,28.49-6.78,37.77,2.29,7.09,8.45,12.91,18.3,17.3,25.46,11.35,51.93,4.41,71.75-18,0,0,13.76-9.42,38.25,1.5s28.67,28.33,28.67,28.33a161.42,161.42,0,0,1-33.27,37.85" style="fill:#ffdf4c;stroke:#3a3632;stroke-linecap:round;stroke-linejoin:round;stroke-width:10px"/><path d="M541,1347.22a147.82,147.82,0,0,0-20.72-44.55,132.27,132.27,0,0,0-33.44-33.58,129.26,129.26,0,0,0-43-19.31,104.34,104.34,0,0,0-42.44-2,87.37,87.37,0,0,0-38.16,16.44c-13,9.77-23.54,23.09-31.29,39.56A152.06,152.06,0,0,0,320,1343s8,16.65,29.61,22a55,55,0,0,0,38.8-5.23c2.25-16.58,7.76-29.18,15.3-34.85,5.77-4.33,14-5.24,24.39-2.69,26.9,6.58,44.56,28.63,48.32,59.06,0,0,6,16.17,31.86,22.5s38.87-5.21,38.87-5.21A174.17,174.17,0,0,0,541,1347.22Z" style="fill:#ffdf4c;stroke:#3a3632;stroke-linecap:round;stroke-linejoin:round;stroke-width:10px"/><path d="M330.75,1340.44s9.11-5.16,26.18-1,23.14,13,23.14,13" style="fill:#ffdf4c;stroke:#3a3632;stroke-linecap:round;stroke-linejoin:round;stroke-width:10px"/><path d="M488.1,1378.92s9.11-5.17,26.18-1S537.42,1391,537.42,1391" style="fill:#ffdf4c;stroke:#3a3632;stroke-linecap:round;stroke-linejoin:round;stroke-width:10px"/><path d="M1493.9,1445.41a144.46,144.46,0,0,0-26.28-41.11,129,129,0,0,0-37.47-28.4A127.11,127.11,0,0,0,1385,1363a104.56,104.56,0,0,0-42.3,4.22,89.13,89.13,0,0,0-35.67,21.84c-11.63,11.57-20.34,26.29-25.88,43.74a153,153,0,0,0-6.75,40.57s10,15.34,32.16,17.44,37.76-10.83,37.76-10.83c.08-16.75,3.91-30,10.65-36.74,5.15-5.13,13.16-7.23,23.81-6.22,27.5,2.6,47.84,21.87,55.5,51.47,0,0,8,15.15,34.47,17.65s37.83-10.81,37.83-10.81A172.57,172.57,0,0,0,1493.9,1445.41Z" style="fill:#ffdf4c;stroke:#3a3632;stroke-linecap:round;stroke-linejoin:round;stroke-width:10px"/><path d="M1284.73,1469.3s8.36-6.44,25.81-4.79,24.6,9.56,24.6,9.56" style="fill:#ffdf4c;stroke:#3a3632;stroke-linecap:round;stroke-linejoin:round;stroke-width:10px"/><path d="M1445.57,1484.51s8.35-6.44,25.81-4.79,24.6,9.56,24.6,9.56" style="fill:#ffdf4c;stroke:#3a3632;stroke-linecap:round;stroke-linejoin:round;stroke-width:10px"/><path d="M733.42,1265.66A109.2,109.2,0,0,0,722,1232.25a103.32,103.32,0,0,0-21.36-27.46,76.1,76.1,0,0,0-25.83-16,56,56,0,0,0-28.3-2.57c-10.82,1.83-21.07,6.82-30.48,14.83" style="fill:#ffdf4c;stroke:#3a3632;stroke-linecap:round;stroke-linejoin:round;stroke-width:10px"/><path d="M454.66,1224.3a106.5,106.5,0,0,0-17.26-30.46,100.29,100.29,0,0,0-25.94-22.6,74.17,74.17,0,0,0-28.24-10.45A56.17,56.17,0,0,0,355,1164c-10.28,4-19.44,11-27.22,20.76" style="fill:#ffdf4c;stroke:#3a3632;stroke-linecap:round;stroke-linejoin:round;stroke-width:10px"/><path d="M1435.53,1091.3a106.23,106.23,0,0,0-17.26-30.46,100.22,100.22,0,0,0-25.93-22.6,74.11,74.11,0,0,0-28.25-10.45,55.94,55.94,0,0,0-28.24,3.24c-10.28,4-19.44,11-27.22,20.76" style="fill:#ffdf4c;stroke:#3a3632;stroke-linecap:round;stroke-linejoin:round;stroke-width:10px"/><path d="M1478.51,1295a106.73,106.73,0,0,0-17.26-30.46,100.29,100.29,0,0,0-25.94-22.6,74.17,74.17,0,0,0-28.24-10.45,56.17,56.17,0,0,0-28.24,3.24c-10.28,4-19.44,11-27.23,20.76" style="fill:#ffdf4c;stroke:#3a3632;stroke-linecap:round;stroke-linejoin:round;stroke-width:10px"/><path d="M1517.43,1009a106.5,106.5,0,0,0-17.26-30.46,100.24,100.24,0,0,0-25.93-22.6A74.27,74.27,0,0,0,1446,945.47a56.17,56.17,0,0,0-28.24,3.24c-10.28,4-19.44,11-27.22,20.76" style="fill:#ffdf4c;stroke:#3a3632;stroke-linecap:round;stroke-linejoin:round;stroke-width:10px"/><path d="M1779.83,1062a106.36,106.36,0,0,0-17.26-30.46,100.29,100.29,0,0,0-25.94-22.6,74.17,74.17,0,0,0-28.24-10.45,56.17,56.17,0,0,0-28.24,3.24c-10.28,4-19.44,11-27.22,20.76" style="fill:#ffdf4c;stroke:#3a3632;stroke-linecap:round;stroke-linejoin:round;stroke-width:10px"/><path d="M457.57,944.11a106.49,106.49,0,0,1,17.27-30.46,99.89,99.89,0,0,1,25.93-22.6A74,74,0,0,1,529,880.6a56.08,56.08,0,0,1,28.24,3.23c10.28,4,19.43,11,27.22,20.76" style="fill:#ffdf4c;stroke:#3a3632;stroke-linecap:round;stroke-linejoin:round;stroke-width:10px"/><path d="M1032.71,871.37A106.6,106.6,0,0,1,1050,840.91a100.29,100.29,0,0,1,25.94-22.6,74.17,74.17,0,0,1,28.24-10.45,56.17,56.17,0,0,1,28.24,3.24c10.28,4,19.44,11,27.23,20.76" style="fill:#ffdf4c;stroke:#3a3632;stroke-linecap:round;stroke-linejoin:round;stroke-width:10px"/><path d="M827,1150.63A99.72,99.72,0,0,0,800.37,1129a94.83,94.83,0,0,0-31.93-11,72.8,72.8,0,0,0-29.89,1.24,58.18,58.18,0,0,0-25.16,14c-8.19,7.71-14.3,17.77-18.17,29.89" style="fill:#ffdf4c;stroke:#3a3632;stroke-linecap:round;stroke-linejoin:round;stroke-width:10px"/><path d="M890.15,973.64A104.86,104.86,0,0,0,870.29,945a98.59,98.59,0,0,0-27.81-19.94,73.61,73.61,0,0,0-29-7.61,56.55,56.55,0,0,0-27.84,6c-9.88,5-18.38,12.86-25.27,23.37" style="fill:#ffdf4c;stroke:#3a3632;stroke-linecap:round;stroke-linejoin:round;stroke-width:10px"/><path d="M1328.38,1139.39a147.64,147.64,0,0,0-20.67-44.56,132.2,132.2,0,0,0-33.42-33.62,129.08,129.08,0,0,0-43-19.34c-14.74-3.62-29-4.3-42.44-2a87.5,87.5,0,0,0-38.18,16.4c-13,9.76-23.56,23.06-31.32,39.53a151.27,151.27,0,0,0-12,39.19s7.94,16.67,29.58,22a54.93,54.93,0,0,0,38.8-5.18c2.27-16.58,7.79-29.17,15.34-34.84,5.77-4.32,14-5.22,24.39-2.66,26.9,6.6,44.54,28.67,48.26,59.1,0,0,6,16.18,31.85,22.54s38.88-5.17,38.88-5.17A174.3,174.3,0,0,0,1328.38,1139.39Z" style="fill:#ffdf4c;stroke:#3a3632;stroke-linecap:round;stroke-linejoin:round;stroke-width:10px"/><path d="M1118.1,1132.41s9.12-5.15,26.19-1,23.12,13.07,23.12,13.07" style="fill:#ffdf4c;stroke:#3a3632;stroke-linecap:round;stroke-linejoin:round;stroke-width:10px"/><path d="M1275.42,1171s9.12-5.16,26.18-1,23.13,13.07,23.13,13.07" style="fill:#ffdf4c;stroke:#3a3632;stroke-linecap:round;stroke-linejoin:round;stroke-width:10px"/><path d="M1403.91,1011.76a90.33,90.33,0,0,0,33.91-24.82c10.7-12.53,18.26-28,22.46-45.82a153.6,153.6,0,0,0,3.64-41s-11.16-14.43-33.38-14.62-36.81,14-36.81,14c1.19,16.7-1.61,30.26-7.82,37.53-4.75,5.56-12.58,8.33-23.26,8.24-27.61-.24-49.35-17.71-59.23-46.55,0,0-9.14-14.42-35.71-14.65s-36.88,14-36.88,14a171.31,171.31,0,0,0,16.47,48.71" style="fill:#ffdf4c;stroke:#3a3632;stroke-linecap:round;stroke-linejoin:round;stroke-width:10px"/><path d="M1454,905.09s-7.84,7.13-25.36,7-25.25-7.42-25.25-7.42" style="fill:#ffdf4c;stroke:#3a3632;stroke-linecap:round;stroke-linejoin:round;stroke-width:10px"/><path d="M1292.51,903.7s-7.84,7.13-25.36,7-25.25-7.42-25.25-7.42" style="fill:#ffdf4c;stroke:#3a3632;stroke-linecap:round;stroke-linejoin:round;stroke-width:10px"/><path d="M987,879a90.38,90.38,0,0,0,33.9-24.81c10.71-12.54,18.27-27.95,22.46-45.82a153.29,153.29,0,0,0,3.65-41s-11.17-14.43-33.38-14.62-36.81,14-36.81,14c1.18,16.7-1.62,30.27-7.83,37.54-4.74,5.55-12.57,8.32-23.26,8.23-27.6-.24-49.35-17.7-59.23-46.55,0,0-9.14-14.41-35.7-14.64s-36.89,14-36.89,14A171.36,171.36,0,0,0,830.35,814" style="fill:#ffdf4c;stroke:#3a3632;stroke-linecap:round;stroke-linejoin:round;stroke-width:10px"/><path d="M1037,772.31s-7.84,7.14-25.36,7-25.25-7.43-25.25-7.43" style="fill:#ffdf4c;stroke:#3a3632;stroke-linecap:round;stroke-linejoin:round;stroke-width:10px"/><path d="M875.56,770.92s-7.84,7.14-25.36,7-25.26-7.43-25.26-7.43" style="fill:#ffdf4c;stroke:#3a3632;stroke-linecap:round;stroke-linejoin:round;stroke-width:10px"/><path d="M374.63,1095.67a95.46,95.46,0,0,1-24.74-34.94c-6.42-15.49-9-32.65-7.62-51a152.45,152.45,0,0,1,8.79-40.12s14.9-9.94,36-2.65,30.72,25.67,30.72,25.67c-6.11,15.44-7.5,29.25-3.78,38.23,2.84,6.87,9.43,12.13,19.6,15.63,26.25,9.06,52.09-.2,70.08-24.24,0,0,13-10.6,38.24-1.89s30.79,25.7,30.79,25.7a163.82,163.82,0,0,1-30.17,40.66" style="fill:#ffdf4c;stroke:#3a3632;stroke-linecap:round;stroke-linejoin:round;stroke-width:10px"/><path d="M359,977.66s5.31,9.4,22,15.15,26.17,1.45,26.17,1.45" style="fill:#ffdf4c;stroke:#3a3632;stroke-linecap:round;stroke-linejoin:round;stroke-width:10px"/><path d="M512.57,1030.62s5.3,9.4,22,15.15,26.16,1.45,26.16,1.45" style="fill:#ffdf4c;stroke:#3a3632;stroke-linecap:round;stroke-linejoin:round;stroke-width:10px"/><path d="M1715,1349.11a150.32,150.32,0,0,0-14.13-47.35,135.76,135.76,0,0,0-28.28-38.56,132.16,132.16,0,0,0-39.78-26c-14-5.92-28.07-8.87-41.67-8.75A86.1,86.1,0,0,0,1551,1238.6c-14.25,7.58-26.56,19.05-36.56,34.1a148.47,148.47,0,0,0-17.38,36.83s5.49,17.74,26.13,26.45a54.68,54.68,0,0,0,39.1,1c4.59-16,11.83-27.6,20.09-32,6.32-3.36,14.56-2.94,24.5,1.24,25.65,10.82,40,35.45,39.34,66.13,0,0,3.61,16.95,28.3,27.35s39.17,1.08,39.17,1.08A174.62,174.62,0,0,0,1715,1349.11Z" style="fill:#ffdf4c;stroke:#3a3632;stroke-linecap:round;stroke-linejoin:round;stroke-width:10px"/><path d="M1508.05,1308.71s9.75-3.65,26,3.22,21,16.61,21,16.61" style="fill:#ffdf4c;stroke:#3a3632;stroke-linecap:round;stroke-linejoin:round;stroke-width:10px"/><path d="M1658.12,1372s9.74-3.64,26,3.22,21,16.61,21,16.61" style="fill:#ffdf4c;stroke:#3a3632;stroke-linecap:round;stroke-linejoin:round;stroke-width:10px"/><path d="M796.12,1428.84a135.51,135.51,0,0,0-39-27.52,122.59,122.59,0,0,0-44.81-11.26,125.94,125.94,0,0,0-46.34,6.19,108.27,108.27,0,0,0-37.66,20.87,95.31,95.31,0,0,0-25.25,34.52c-6.64,15.38-9.45,32.5-8.36,50.88a152.69,152.69,0,0,0,8.2,40.26s14.76,10.18,36,3.24,31.1-25.16,31.1-25.16c-5.89-15.54-7.08-29.37-3.23-38.29,2.94-6.82,9.61-12,19.82-15.3,26.39-8.62,52.09,1.06,69.72,25.39,0,0,12.82,10.81,38.21,2.52S825.7,1470,825.7,1470A163.89,163.89,0,0,0,796.12,1428.84Z" style="fill:#ffdf4c;stroke:#3a3632;stroke-linecap:round;stroke-linejoin:round;stroke-width:10px"/><path d="M611,1534.85s5.44-9.31,22.19-14.79,26.18-1,26.18-1" style="fill:#ffdf4c;stroke:#3a3632;stroke-linecap:round;stroke-linejoin:round;stroke-width:10px"/><path d="M765.3,1484.43s5.45-9.32,22.19-14.79,26.19-1,26.19-1" style="fill:#ffdf4c;stroke:#3a3632;stroke-linecap:round;stroke-linejoin:round;stroke-width:10px"/><path d="M1020.07,1288.7a131.45,131.45,0,0,0-43.6-18.09,121.57,121.57,0,0,0-46.05-.89,128.22,128.22,0,0,0-44,16.51,112.35,112.35,0,0,0-32.61,28.89A98.46,98.46,0,0,0,836,1354.56c-3.4,16.52-2.72,33.88,2,51.6a149.57,149.57,0,0,0,16.09,37.49s16.46,6.61,35.81-5,25.34-31.6,25.34-31.6c-8.87-13.86-12.81-27.1-10.83-36.69,1.5-7.32,7-13.86,16.3-19.43,24.05-14.38,51.11-10.72,73.21,9.07,0,0,14.7,7.67,37.84-6.16s25.4-31.65,25.4-31.65A157.92,157.92,0,0,0,1020.07,1288.7Z" style="fill:#ffdf4c;stroke:#3a3632;stroke-linecap:round;stroke-linejoin:round;stroke-width:10px"/><path d="M860.44,1434.08s3.45-10.33,18.71-19.46,25.38-6.9,25.38-6.9" style="fill:#ffdf4c;stroke:#3a3632;stroke-linecap:round;stroke-linejoin:round;stroke-width:10px"/><path d="M1001.11,1350s3.45-10.33,18.71-19.45,25.38-6.91,25.38-6.91" style="fill:#ffdf4c;stroke:#3a3632;stroke-linecap:round;stroke-linejoin:round;stroke-width:10px"/><path d="M812.76,839.34a106.36,106.36,0,0,0-17.26-30.46,100.06,100.06,0,0,0-25.93-22.6,74.27,74.27,0,0,0-28.25-10.45,56.17,56.17,0,0,0-28.24,3.24c-10.28,4-19.44,11-27.22,20.76" style="fill:#ffdf4c;stroke:#3a3632;stroke-linecap:round;stroke-linejoin:round;stroke-width:10px"/></g></svg>