<svg xmlns="http://www.w3.org/2000/svg" viewBox="0 0 2000 2000"><g id="Layer_1" data-name="Layer 1"><ellipse cx="1000" cy="1164.77" rx="982.77" ry="504.92" style="fill:#fff;stroke:#3a3632;stroke-miterlimit:10;stroke-width:20px"/><ellipse cx="1000" cy="1134.9" rx="763.86" ry="424.85" style="fill:#ecdaba;stroke:#3a3632;stroke-linecap:round;stroke-linejoin:round;stroke-width:20px;isolation:isolate;opacity:0.991999983787537"/><path d="M999.53,1497.28c-20.73,2-41.38,6.23-62.08,4.26-26.1-2.48-50.94-14.79-77.15-14.15-9.79.25-19.41,2.29-29.07,3.71a116.76,116.76,0,0,1-14.57,1.37,101.72,101.72,0,0,1-13.29-.77q-12.55-1.41-25.08-3c-7.87-1-15.92-2.8-23.85-3.11-5.34-.2-9.55.51-14.69-1.52-15.53-6.15-30.68-13.57-46-20.33-8.73-3.85-17.56-7.75-27-9.37-10.8-1.87-21.85-.66-32.81-.53a167.68,167.68,0,0,1-85.33-22.32c-15.7-9.06-30.89-21-49-22.41-9.05-.69-18.43,1.36-27.08-1.39-18.63-5.93-26.05-31.2-44.93-36.24-11-3-23.81,1.87-33.7-3.86-8.83-5.11-11.49-16.36-17-24.92-7.1-11-19.07-17.59-29.65-25.27-6.31-4.58-12.36-10-16.51-16.63a37.89,37.89,0,0,1-4.29-10.46c-1.25-4.56-3.79-8.42-5.12-13.09-2.16-7.6-3-15.62-6.34-22.8-5.57-12.15-17.08-20.23-27-29.14-6-5.34-11.6-11.51-15-18.83a29.67,29.67,0,0,1-3-11.18c-.07-1.55.4-3.07.37-4.56-.1-4.82-2.57-10-3.75-14.62q-2.1-8.36-3.73-16.82T260.07,1142q-1.19-8.82-1.85-17.72c-.19-2.52-.35-5-.49-7.57-.3,5.85-.47,11.78-.47,17.78,0,277.54,332.54,403.3,742.74,403.3s742.74-138,742.74-403.3q0-9-.51-17.78a285.49,285.49,0,0,1-29.63,111.63,296.49,296.49,0,0,1-19.24,32.85c-3.6,5.35-7.52,10.44-11.27,15.66-2.46,3.43-4,7.36-7.46,9.9-10.59,7.76-22.84,13.12-33.37,21.24a210.28,210.28,0,0,0-28.73,26.75c-7.72,8.67-14.79,18-23.84,25.33-24.85,20-60,21-88,36.38-19.39,10.72-35,28.31-56.11,35.16-22.92,7.45-48.92,1-71.26,10-10.43,4.23-19.18,11.49-28.36,17.81a16.6,16.6,0,0,1-3.83,2.25c-.65.23-1.33.38-2,.65-2,.83-3.72,2.16-5.68,3.05a41.08,41.08,0,0,1-6.21,2.25,64.76,64.76,0,0,1-17.09,2.11c-10.56,0-21.11-1.54-31.67-1.08a82.12,82.12,0,0,0-32,8.11c-7.33,3.56-14.22,8.24-22.1,10.29-5.94,1.55-12.17,1.52-18.31,1.49l-48.44-.3c-12.67-.08-25.81-.06-37.31,5.26-1.59.74-3,1.86-4.82,2a20.49,20.49,0,0,0-3.08.62c-2.37.55-4.77,1-7.17,1.42a133,133,0,0,1-14.5,1.54,253,253,0,0,1-29.4-.46c-9.89-.62-19.76-1.49-29.66-2-7-.34-14.1-.49-21.15-.19C1006.89,1496.65,1003.21,1496.93,999.53,1497.28Z" style="fill:#cfb5a0;isolation:isolate;opacity:0.991999983787537"/><path d="M995.45,1354.3c21.83-15.85,44.82-32.18,71.52-36,24.46-3.49,48.94,4,73.06,9.33s50.57,8.39,72.48-3c18.49-9.63,31.79-28.67,51.89-34.23,13.47-3.73,27.76-.7,41.75-.41s29.86-3.44,36.68-15.64" style="fill:none;stroke:#3a3632;stroke-linecap:round;stroke-linejoin:round;stroke-width:20.9825609848787px"/><path d="M443.3,1087.89c11.82-26.7-3.21-62.33,15.62-84.64,23.65-28,76.48-6.9,101.53-33.65,11.07-11.81,13.36-30.21,25.38-41.05,13.67-12.33,34.49-10.57,52.79-8.65S678.28,922,690.24,908" style="fill:none;stroke:#3a3632;stroke-linecap:round;stroke-linejoin:round;stroke-width:20.9825609848787px"/><path d="M1126.21,907.33c13.47,13.77,32.32,25.55,51,21,6.87-1.68,13-5.43,19.55-8.18a94.46,94.46,0,0,1,27.42-6.51c3.53-.35,7-.24,10.27-1.43a33.74,33.74,0,0,1,11.12-2.15c13.42-.35,25.09,4.72,36.44,11.4,11.73,6.9,21,9.88,35.52,7.64" style="fill:none;stroke:#3a3632;stroke-linecap:round;stroke-linejoin:round;stroke-width:20.9825609848787px"/><path d="M513.49,1238.63c-.25,3.67.47,7.44-.49,11-1.58,5.87-7.5,9.7-13.47,10.86s-12.12.19-18.17-.38c-14.16-1.35-31.61,1.53-36.81,14.76-4.62,11.78,4.19,25.4,15.77,30.49s24.85,3.85,37.39,2.24,25.6-3.48,37.6.5c11.39,3.78,20.47,12.4,31.13,17.92,16.67,8.61,36.17,9.22,54.93,9.65,8.25.19,16.92.27,24.18-3.65s12.24-13.33,8.44-20.65c-2.46-4.74-7.67-7.22-12-10.37s-8.26-8.45-6.4-13.45c12.6-.26,18.37-17.91,12.34-29-5.12-9.39-14.92-14.73-24.36-18.89-12-5.28-24.26-9.9-36.35-15-8.27-3.45-16.33-8.38-25-10.67s-18.82-.83-27.39,1.68C525,1218.6,513.49,1227.34,513.49,1238.63Z" style="fill:#864b37"/><path d="M1218,807.29A3025.58,3025.58,0,0,0,848.14,781.6c-30-.24-62,.53-87,17.2-17.53,11.68-29.49,29.86-44.61,44.51-48.44,47-121.83,52.72-187,70s-136.21,63.68-133,131.07c1.33,28.34,16,54.17,22.57,81.78,13.68,57.92-8.62,123.36,19.4,175.87,25.64,48,85.35,67.54,139.79,68.24S686.6,1357.52,741,1359.46c69.46,2.47,135.2,29.77,201.75,49.85s139.87,32.8,204.32,6.77c27.84-11.25,52.54-29.21,80.22-40.84,55.6-23.38,118.21-19.54,178.49-21.73s125.48-13.36,166.46-57.62c17-18.33,28.39-41,39.59-63.32l42.11-84c8.11-16.17,16.32-32.63,19.58-50.43,11-60.11-37.76-116.47-92.84-143S1463.13,922,1406.16,899.9c-94.87-36.83-182.16-117.24-282.6-100.81" style="fill:#c93c27;stroke:#3a3632;stroke-linecap:round;stroke-linejoin:round;stroke-width:20px;isolation:isolate;opacity:0.991999983787537"/><path d="M655.19,1186c-4.31,1.18-8.39.23-10.46-3.83-5.37-10.2,1-28.4,9.53-31.79,49.4-20.14,102-11.51,136.54,32.31,4.66,5.85.25,15.57-2.81,23.21-1.87,4.34-5.36,8.07-8.37,6.41-32.74-18.09-65.89-36.44-105.44-27C666.59,1187.2,660.1,1185.83,655.19,1186Z" style="fill:#fffce4;stroke:#3a3632;stroke-miterlimit:10;stroke-width:7.44613490659924px"/><path d="M852.2,1217.82c-4.89,4.31-11,6.54-16.55,4.46-14.27-5.09-18.6-26.24-9.68-35.72,51.32-55.38,127.09-87.36,203.61-74.14,10.29,1.74,11.27,13.78,12.57,22.95.57,5.3-1.43,11.29-6.59,12.07-56.08,8.5-112.89,17.08-158.63,55.46C868.15,1210.27,858.59,1214,852.2,1217.82Z" style="fill:#fffce4;stroke:#3a3632;stroke-miterlimit:10;stroke-width:7.44613490659924px"/><path d="M1323.56,939.34c6.49-.6,12.71,1.17,16,6.15,8.53,12.53-.44,32.16-13.23,34.56-74.1,14.49-154.16-4.34-208.18-60.13-7.29-7.46-1-17.77,3.37-25.95,2.67-4.62,7.82-8.27,12.44-5.86,50.32,26.19,101.27,52.75,160.84,48.7C1306.22,936,1316.11,938.7,1323.56,939.34Z" style="fill:#fffce4;stroke:#3a3632;stroke-miterlimit:10;stroke-width:7.44613490659924px"/><path d="M745.84,1107.38c-6.45.92-12.75-.54-16.28-5.34-9.15-12.09-1.17-32.15,11.49-35.19,73.28-18.17,154.18-3.37,210.92,49.66,7.65,7.09,1.87,17.7-2.07,26.08-2.43,4.75-7.39,8.65-12.13,6.48-51.56-23.64-103.77-47.62-163.07-40.61C763.32,1109.81,753.31,1107.65,745.84,1107.38Z" style="fill:#fffce4;stroke:#3a3632;stroke-miterlimit:10;stroke-width:7.44613490659924px"/><path d="M771.78,1019.21c4.78-3.11,10.32-4.27,14.89-1.75,11.71,6.23,12.76,25.09,3.83,32.16C739,1091,669.32,1109,604.75,1087.83c-8.68-2.82-8-13.37-8-21.48.18-4.66,2.68-9.59,7.24-9.6,49.65-.21,99.93-.38,144.42-27.78C757,1023.71,765.75,1021.75,771.78,1019.21Z" style="fill:#fffce4;stroke:#3a3632;stroke-miterlimit:10;stroke-width:7.44613490659924px"/><path d="M535,1155c-6.51.4-12.67-1.56-15.81-6.64-8.14-12.78,1.42-32.13,14.28-34.14,74.51-12.23,154,9,206.26,66.43,7.06,7.68.44,17.79-4.16,25.83-2.8,4.54-8.06,8-12.61,5.48-49.5-27.7-99.62-55.8-159.28-53.56C552.17,1158.84,542.37,1155.87,535,1155Z" style="fill:#fffce4;stroke:#3a3632;stroke-miterlimit:10;stroke-width:7.44613490659924px"/><path d="M687.92,1162.4c-4.32,1.18-8.39.23-10.46-3.83-5.37-10.19,1-28.4,9.53-31.78,49.4-20.15,102-11.51,136.54,32.3,4.66,5.86.25,15.57-2.82,23.21-1.86,4.34-5.35,8.07-8.36,6.41-32.74-18.08-65.9-36.43-105.44-26.94C699.32,1163.59,692.83,1162.23,687.92,1162.4Z" style="fill:#fffce4;stroke:#3a3632;stroke-miterlimit:10;stroke-width:7.44613490659924px"/><path d="M579.07,1205c-3.71,2.5-7.88,2.91-11.14-.27-8.36-7.93-8.16-27.22-1.17-33.16,40.31-34.94,92.9-43.64,139.68-13.24,6.29,4.05,5.23,14.67,4.78,22.89-.37,4.71-2.48,9.36-5.86,8.75-36.82-6.62-74.1-13.35-108.51,8.33C590.25,1202.47,583.66,1203.26,579.07,1205Z" style="fill:#fffce4;stroke:#3a3632;stroke-miterlimit:10;stroke-width:7.44613490659924px"/><path d="M663.42,1154.39c2.17-3.91,5.69-6.17,10-4.81,11,3.27,19.63,20.55,16.1,29-20.07,49.42-63,81-118.46,75.18-7.45-.76-11.33-10.69-14.66-18.22-1.8-4.37-2-9.47,1.26-10.47,35.81-10.81,72.09-21.73,92.91-56.66C654.6,1161.73,660.11,1158,663.42,1154.39Z" style="fill:#fffce4;stroke:#3a3632;stroke-miterlimit:10;stroke-width:7.44613490659924px"/><path d="M690.61,1017.93c-3.47-2.41-7.55-3.36-11-1.52-8.8,4.56-10,18.8-3.48,24.26,37.29,32,88.51,46.51,136.76,31.33,6.48-2,6.19-10,6.32-16.13,0-3.53-1.79-7.28-5.17-7.36-36.75-.8-74-1.6-106.37-22.89C701.46,1021.53,695,1019.93,690.61,1017.93Z" style="fill:#fffce4;stroke:#3a3632;stroke-miterlimit:10;stroke-width:7.44613490659924px"/><path d="M1179.64,1070.47c6.45-.93,12.75.53,16.29,5.34,9.14,12.08,1.16,32.14-11.49,35.18-73.29,18.17-154.18,3.37-210.93-49.66-7.65-7.09-1.87-17.69,2.07-26.08,2.43-4.74,7.39-8.65,12.13-6.48,51.57,23.65,103.78,47.63,163.07,40.61C1162.16,1068,1172.18,1070.2,1179.64,1070.47Z" style="fill:#fffce4;stroke:#3a3632;stroke-miterlimit:10;stroke-width:7.44613490659924px"/><path d="M1299.57,1213.1c-4.78,3.11-10.33,4.27-14.9,1.75-11.71-6.23-12.76-25.09-3.82-32.16,51.49-41.4,121.18-59.42,185.75-38.2,8.68,2.81,8,13.36,8,21.47-.18,4.66-2.68,9.59-7.25,9.61-49.64.2-99.92.38-144.42,27.77C1314.34,1208.6,1305.59,1210.57,1299.57,1213.1Z" style="fill:#fffce4;stroke:#3a3632;stroke-miterlimit:10;stroke-width:7.44613490659924px"/><path d="M1295.29,1054.44c4.31-1.18,8.39-.23,10.46,3.83,5.37,10.19-1,28.39-9.53,31.78-49.4,20.15-102,11.51-136.54-32.31-4.66-5.85-.25-15.56,2.81-23.2,1.87-4.34,5.36-8.07,8.37-6.41,32.74,18.08,65.89,36.43,105.43,26.94C1283.89,1053.25,1290.38,1054.61,1295.29,1054.44Z" style="fill:#fffce4;stroke:#3a3632;stroke-miterlimit:10;stroke-width:7.44613490659924px"/><path d="M1533.39,1063.58c3.7-2.5,7.87-2.91,11.13.27,8.36,7.93,8.17,27.22,1.18,33.16-40.32,34.94-92.9,43.64-139.68,13.23-6.29-4-5.24-14.66-4.79-22.88.38-4.71,2.48-9.36,5.87-8.75,36.81,6.61,74.1,13.35,108.5-8.34C1522.2,1066.11,1528.79,1065.32,1533.39,1063.58Z" style="fill:#fffce4;stroke:#3a3632;stroke-miterlimit:10;stroke-width:7.44613490659924px"/><path d="M1227.72,1176.81c3.48,2.42,7.56,3.37,11,1.52,8.79-4.55,10-18.8,3.48-24.26-37.29-32-88.52-46.51-136.76-31.32-6.49,2-6.19,10-6.33,16.12,0,3.53,1.79,7.29,5.17,7.36,36.76.81,74,1.61,106.38,22.9C1216.87,1173.22,1223.31,1174.82,1227.72,1176.81Z" style="fill:#fffce4;stroke:#3a3632;stroke-miterlimit:10;stroke-width:7.44613490659924px"/><path d="M984.57,1048.32c-2.17-3.63-5.5-6.17-9.39-5.91-9.89.53-16.81,13-13.17,20.68,20.82,44.49,61.53,78.83,111.74,84.85,6.74.83,9.76-6.56,12.41-12.09,1.41-3.24,1.36-7.38-1.69-8.84-33.16-15.87-66.76-31.92-87.51-64.66C993,1056.07,987.77,1052,984.57,1048.32Z" style="fill:#fffce4;stroke:#3a3632;stroke-miterlimit:10;stroke-width:7.44613490659924px"/><path d="M1244.25,1029.4c-6.49,2.52-13.41,2.52-18.25-1.63-12.45-10.37-9-33.19,3.46-39.41,71.91-36.65,159.73-40.8,231.65.69,9.68,5.53,6.22,18,4.15,27.66-1.39,5.53-5.6,10.8-11.07,9.68-59.41-12.15-119.58-24.49-179.62-2.84C1263,1027.71,1252.09,1027.87,1244.25,1029.4Z" style="fill:#fffce4;stroke:#3a3632;stroke-miterlimit:10;stroke-width:7.44613490659924px"/><path d="M1241.65,967.62c6.45-.93,12.75.53,16.28,5.34,9.15,12.08,1.17,32.14-11.49,35.18-73.28,18.17-154.18,3.37-210.92-49.65-7.65-7.09-1.87-17.7,2.07-26.09,2.43-4.74,7.39-8.65,12.13-6.47,51.56,23.64,103.77,47.62,163.07,40.6C1224.17,965.18,1234.18,967.35,1241.65,967.62Z" style="fill:#fffce4;stroke:#3a3632;stroke-miterlimit:10;stroke-width:7.44613490659924px"/><path d="M1328.52,1125c-4.78,3.11-10.32,4.27-14.9,1.75-11.71-6.22-12.75-25.09-3.82-32.16,51.5-41.4,121.18-59.42,185.75-38.2,8.68,2.81,8,13.36,8,21.47-.18,4.66-2.68,9.59-7.24,9.61-49.65.2-99.93.38-144.42,27.77C1343.29,1120.5,1334.55,1122.47,1328.52,1125Z" style="fill:#fffce4;stroke:#3a3632;stroke-miterlimit:10;stroke-width:7.44613490659924px"/><path d="M1629.31,1142.11c6.51-.4,12.67,1.56,15.81,6.63,8.14,12.78-1.42,32.14-14.28,34.15-74.51,12.23-154-9-206.26-66.43-7.06-7.68-.44-17.79,4.16-25.83,2.8-4.54,8.06-8,12.61-5.49,49.5,27.71,99.62,55.81,159.28,53.57C1612.09,1138.28,1621.89,1141.24,1629.31,1142.11Z" style="fill:#fffce4;stroke:#3a3632;stroke-miterlimit:10;stroke-width:7.44613490659924px"/><path d="M1254.88,978.44c3.47,2.42,7.55,3.37,11,1.53,8.8-4.56,10-18.81,3.49-24.27-37.29-32-88.52-46.51-136.77-31.32-6.48,2-6.19,10-6.32,16.12,0,3.53,1.79,7.29,5.17,7.36,36.75.81,74,1.61,106.37,22.9C1244,974.85,1250.47,976.45,1254.88,978.44Z" style="fill:#fffce4;stroke:#3a3632;stroke-miterlimit:10;stroke-width:7.44613490659924px"/><path d="M1046.58,945.47c-2.18-3.63-5.5-6.17-9.4-5.91-9.89.53-16.81,13-13.16,20.68,20.82,44.49,61.52,78.83,111.74,84.85,6.74.84,9.76-6.56,12.4-12.09,1.42-3.23,1.37-7.38-1.68-8.84-33.16-15.87-66.76-31.92-87.51-64.66C1055,953.22,1049.78,949.11,1046.58,945.47Z" style="fill:#fffce4;stroke:#3a3632;stroke-miterlimit:10;stroke-width:7.44613490659924px"/><path d="M1048.9,966c6.5-2.52,13.41-2.52,18.25,1.63,12.45,10.37,9,33.19-3.46,39.41-71.91,36.65-159.73,40.8-231.65-.69-9.68-5.53-6.22-18-4.15-27.66,1.39-5.53,5.61-10.8,11.07-9.68,59.41,12.15,119.58,24.49,179.63,2.84C1030.11,967.65,1041.06,967.48,1048.9,966Z" style="fill:#fffce4;stroke:#3a3632;stroke-miterlimit:10;stroke-width:7.44613490659924px"/><path d="M879.5,1024.66c6.66,1.79,13.55,1.25,18.08-2.92,11.65-10.45,6.56-31-6.3-35.69C816.94,958.3,729.09,961.46,660.4,1005c-9.25,5.82-4.9,16.9-2.13,25.57,1.78,4.93,6.36,9.41,11.73,8,58.34-15.78,117.43-31.79,178.86-16.79C860.65,1024.6,871.58,1023.89,879.5,1024.66Z" style="fill:#fffce4;stroke:#3a3632;stroke-miterlimit:10;stroke-width:7.44613490659924px"/><path d="M865.57,1043.53c-6.45.92-12.75-.54-16.28-5.35-9.15-12.08-1.17-32.14,11.49-35.18,73.28-18.17,154.18-3.37,210.92,49.66,7.65,7.09,1.87,17.7-2.07,26.08-2.43,4.74-7.39,8.65-12.13,6.48-51.56-23.65-103.77-47.63-163.07-40.61C883.05,1046,873,1043.79,865.57,1043.53Z" style="fill:#fffce4;stroke:#3a3632;stroke-miterlimit:10;stroke-width:7.44613490659924px"/><path d="M923.21,1299.88c-6.45.92-12.75-.54-16.29-5.34-9.14-12.09-1.16-32.15,11.49-35.19,73.29-18.17,154.18-3.37,210.93,49.66,7.65,7.09,1.87,17.7-2.07,26.08-2.43,4.75-7.39,8.65-12.13,6.48-51.57-23.64-103.78-47.63-163.07-40.61C940.69,1302.31,930.67,1300.14,923.21,1299.88Z" style="fill:#fffce4;stroke:#3a3632;stroke-miterlimit:10;stroke-width:7.44613490659924px"/><path d="M685,980.16c-6.51.4-12.67-1.56-15.81-6.64-8.14-12.78,1.42-32.13,14.28-34.14,74.51-12.23,154,9,206.26,66.43,7.06,7.68.44,17.79-4.16,25.83-2.81,4.54-8.06,8-12.61,5.48-49.5-27.7-99.62-55.8-159.28-53.56C702.17,984,692.36,981,685,980.16Z" style="fill:#fffce4;stroke:#3a3632;stroke-miterlimit:10;stroke-width:7.44613490659924px"/><path d="M825,1076.86c-4.31,1.18-8.39.23-10.46-3.83-5.37-10.2,1-28.4,9.53-31.79,49.4-20.14,102-11.5,136.54,32.31,4.66,5.85.25,15.57-2.81,23.21-1.87,4.34-5.36,8.07-8.37,6.41-32.74-18.09-65.89-36.44-105.43-27C836.37,1078.05,829.87,1076.68,825,1076.86Z" style="fill:#fffce4;stroke:#3a3632;stroke-miterlimit:10;stroke-width:7.44613490659924px"/><path d="M565.16,1109.66c-3.71,2.5-7.87,2.91-11.14-.27-8.36-7.93-8.16-27.22-1.17-33.16,40.31-34.94,92.9-43.64,139.68-13.24,6.29,4,5.24,14.67,4.79,22.89-.38,4.71-2.49,9.36-5.87,8.75-36.82-6.62-74.1-13.35-108.5,8.33C576.34,1107.13,569.76,1107.92,565.16,1109.66Z" style="fill:#fffce4;stroke:#3a3632;stroke-miterlimit:10;stroke-width:7.44613490659924px"/><path d="M941.66,980.42c4.23,0,8.11-1.58,9.87-5.06,4.59-8.78-2.63-21.11-11.07-21.87-48.89-4.78-99.18,12.71-130,52.83-4.16,5.38.66,11.75,4.07,16.84,2.06,2.87,5.65,4.94,8.46,3.06,30.56-20.43,61.5-41.15,100.25-42.3C930.71,983.7,936.9,981.32,941.66,980.42Z" style="fill:#fffce4;stroke:#3a3632;stroke-miterlimit:10;stroke-width:7.44613490659924px"/><path d="M660.24,1195.66c6.49-2.53,13.41-2.53,18.25,1.62,12.45,10.37,9,33.19-3.46,39.42-71.91,36.65-159.73,40.8-231.65-.69-9.68-5.54-6.22-18-4.15-27.66,1.38-5.54,5.6-10.8,11.07-9.69,59.41,12.15,119.58,24.5,179.62,2.85C641.45,1197.35,652.4,1197.18,660.24,1195.66Z" style="fill:#fffce4;stroke:#3a3632;stroke-miterlimit:10;stroke-width:7.44613490659924px"/><path d="M699.44,1200.43c5.28-4.55,11.79-6.87,17.74-4.58,15.2,5.61,19.59,28.27,9.94,38.3-55.49,58.61-136.86,91.92-218.51,76.91-11-2-11.89-14.86-13.17-24.68-.55-5.67,1.66-12.05,7.18-12.82,60-8.45,120.88-17,170.21-57.47C682.3,1208.32,692.57,1204.49,699.44,1200.43Z" style="fill:#fffce4;stroke:#3a3632;stroke-miterlimit:10;stroke-width:7.44613490659924px"/><path d="M811.81,1294.61c-6.45.93-12.75-.53-16.28-5.34-9.15-12.08-1.17-32.14,11.49-35.18,73.28-18.17,154.18-3.37,210.93,49.66,7.65,7.08,1.86,17.69-2.08,26.08-2.43,4.74-7.39,8.65-12.13,6.48-51.56-23.65-103.77-47.63-163.06-40.61C829.29,1297.05,819.28,1294.88,811.81,1294.61Z" style="fill:#fffce4;stroke:#3a3632;stroke-miterlimit:10;stroke-width:7.44613490659924px"/><path d="M687.92,1306.68c-4.32,1.17-8.39.23-10.46-3.83-5.37-10.2,1-28.4,9.53-31.79,49.4-20.14,102-11.51,136.54,32.31,4.66,5.85.25,15.57-2.82,23.21-1.86,4.33-5.35,8.07-8.36,6.4-32.74-18.08-65.9-36.43-105.44-26.94C699.32,1307.87,692.83,1306.5,687.92,1306.68Z" style="fill:#fffce4;stroke:#3a3632;stroke-miterlimit:10;stroke-width:7.44613490659924px"/><path d="M698.86,1166.17c-3.47-2.41-7.55-3.36-11-1.52-8.8,4.56-10,18.8-3.49,24.26,37.29,32,88.52,46.51,136.77,31.33,6.48-2,6.19-10,6.32-16.13,0-3.52-1.79-7.28-5.17-7.36-36.75-.8-74-1.6-106.37-22.89C709.71,1169.77,703.27,1168.17,698.86,1166.17Z" style="fill:#fffce4;stroke:#3a3632;stroke-miterlimit:10;stroke-width:7.44613490659924px"/><path d="M514,1169.37c-3.48-2.41-7.56-3.36-11-1.52-8.8,4.56-10,18.8-3.49,24.27,37.29,32,88.52,46.51,136.76,31.32,6.49-2,6.2-10,6.33-16.12,0-3.53-1.79-7.29-5.17-7.36-36.76-.81-74-1.61-106.37-22.9C524.8,1173,518.36,1171.37,514,1169.37Z" style="fill:#fffce4;stroke:#3a3632;stroke-miterlimit:10;stroke-width:7.44613490659924px"/><path d="M1006.89,1316.76c2.17,3.63,5.5,6.17,9.39,5.91,9.89-.53,16.81-13,13.16-20.68-20.82-44.49-61.52-78.83-111.74-84.85-6.74-.84-9.75,6.56-12.4,12.09-1.41,3.23-1.36,7.38,1.68,8.84,33.17,15.87,66.76,31.92,87.52,64.66C998.48,1309,1003.69,1313.12,1006.89,1316.76Z" style="fill:#fffce4;stroke:#3a3632;stroke-miterlimit:10;stroke-width:7.44613490659924px"/><path d="M1127.06,1313c-6.49,2.53-13.41,2.53-18.25-1.62-12.44-10.37-9-33.19,3.46-39.42,71.92-36.64,159.74-40.79,231.65.7,9.68,5.53,6.23,18,4.15,27.66-1.38,5.53-5.6,10.79-11.06,9.68-59.41-12.15-119.58-24.49-179.63-2.85C1145.85,1311.34,1134.9,1311.51,1127.06,1313Z" style="fill:#fffce4;stroke:#3a3632;stroke-miterlimit:10;stroke-width:7.44613490659924px"/><path d="M1326.52,1208.33c-6.49-2.31-13.41-2.31-18.25,1.49-12.44,9.49-9,30.38,3.46,36.07,71.92,33.54,159.74,37.34,231.65-.63,9.68-5.06,6.23-16.46,4.15-25.32-1.38-5.06-5.6-9.88-11.06-8.86-59.41,11.12-119.58,22.42-179.63,2.61C1345.31,1209.88,1334.36,1209.73,1326.52,1208.33Z" style="fill:#fffce4;stroke:#3a3632;stroke-miterlimit:10;stroke-width:7.44613490659924px"/><path d="M1148.1,1293.43c6.45-.92,12.75.54,16.28,5.34,9.15,12.09,1.17,32.15-11.49,35.19-73.28,18.17-154.18,3.37-210.92-49.66-7.65-7.09-1.87-17.7,2.07-26.08,2.43-4.75,7.39-8.65,12.13-6.48,51.56,23.64,103.77,47.62,163.07,40.61C1130.62,1291,1140.63,1293.16,1148.1,1293.43Z" style="fill:#fffce4;stroke:#3a3632;stroke-miterlimit:10;stroke-width:7.44613490659924px"/><path d="M1439.55,1201.24c-5.7.26-11.06-1.56-13.72-6-6.93-11.31,1.74-28.09,13-29.65,65.38-9.55,134.57,10.27,179.45,61.32,6.06,6.83.11,15.57-4,22.53-2.52,3.93-7.18,6.91-11.12,4.61-42.88-25-86.3-50.37-138.54-49.34C1454.57,1204.86,1446,1202.11,1439.55,1201.24Z" style="fill:#fffce4;stroke:#3a3632;stroke-miterlimit:10;stroke-width:7.44613490659924px"/><path d="M1303.54,1202.68c4.31-1.18,8.39-.23,10.46,3.83,5.37,10.19-1,28.4-9.53,31.78-49.4,20.15-102,11.51-136.54-32.31-4.66-5.85-.25-15.56,2.81-23.2,1.87-4.34,5.36-8.07,8.37-6.41,32.74,18.08,65.89,36.43,105.43,26.94C1292.13,1201.49,1298.63,1202.85,1303.54,1202.68Z" style="fill:#fffce4;stroke:#3a3632;stroke-miterlimit:10;stroke-width:7.44613490659924px"/><path d="M1227.72,1318.16c3.48,2.41,7.56,3.36,11,1.52,8.79-4.55,10-18.8,3.48-24.26-37.29-32-88.52-46.51-136.76-31.33-6.49,2-6.19,10-6.33,16.13,0,3.53,1.79,7.28,5.17,7.36,36.76.81,74,1.6,106.38,22.9C1216.87,1314.56,1223.31,1316.17,1227.72,1318.16Z" style="fill:#fffce4;stroke:#3a3632;stroke-miterlimit:10;stroke-width:7.44613490659924px"/><path d="M1204,1188.87c5-2.95,10.72-3.88,15.27-1.11,11.65,6.88,11.87,26.16,2.44,33-54.37,39.89-126.23,55.11-191.11,30.56-8.72-3.26-7.54-14-7.13-22.25.39-4.75,3.16-9.66,7.82-9.47,50.62,2,101.89,4.13,148.5-21.79C1188.72,1192.79,1197.73,1191.18,1204,1188.87Z" style="fill:#fffce4;stroke:#3a3632;stroke-miterlimit:10;stroke-width:7.44613490659924px"/><path d="M1197.5,1209.2c-5.69-.32-10.85-2.66-13-7.39-5.76-12,4.54-27.78,15.93-28.21,66-3,132.86,23.69,172.41,79,5.34,7.4-1.45,15.51-6.27,22-2.91,3.65-7.84,6.15-11.53,3.47-40.16-29.18-80.83-58.75-132.91-63C1212.08,1214.3,1203.86,1210.71,1197.5,1209.2Z" style="fill:#fffce4;stroke:#3a3632;stroke-miterlimit:10;stroke-width:7.44613490659924px"/><path d="M1408.72,1242.69c3.84,1.78,8,2,11.09-.39,7.89-6,6.6-20.22-.71-24.5-42.21-25.12-95.17-30.68-140.11-7.47-6,3.09-4.39,10.91-3.47,17,.64,3.47,3,6.87,6.35,6.37,36.35-5.49,73.17-11.08,108.72,4.36C1397.42,1241,1404,1241.47,1408.72,1242.69Z" style="fill:#fffce4;stroke:#3a3632;stroke-miterlimit:10;stroke-width:7.44613490659924px"/><path d="M1010,1201.92c-5.11.84-10.07-.31-12.8-4.28-7.09-10-.57-26.81,9.46-29.48,58.06-16,121.76-4.51,166,39.11,6,5.83,1.28,14.74-1.92,21.78-2,4-5.93,7.3-9.65,5.54-40.45-19.16-81.41-38.59-128.3-32.08C1023.72,1203.76,1015.84,1202.06,1010,1201.92Z" style="fill:#fffce4;stroke:#3a3632;stroke-miterlimit:10;stroke-width:7.44613490659924px"/><path d="M758.17,1207.8c-4.31,1.17-8.39.23-10.46-3.83-5.37-10.2,1-28.4,9.54-31.79,49.39-20.15,102-11.51,136.53,32.31,4.66,5.85.25,15.57-2.81,23.21-1.87,4.33-5.36,8.07-8.37,6.4-32.74-18.08-65.89-36.43-105.43-26.94C769.58,1209,763.09,1207.62,758.17,1207.8Z" style="fill:#fffce4;stroke:#3a3632;stroke-miterlimit:10;stroke-width:7.44613490659924px"/><path d="M969.43,962.92c2.18,3.64,5.51,6.18,9.4,5.92,9.89-.53,16.81-13,13.16-20.68-20.82-44.49-61.52-78.83-111.74-84.85-6.74-.84-9.76,6.56-12.4,12.09-1.42,3.23-1.37,7.38,1.68,8.84,33.16,15.86,66.76,31.92,87.52,64.66C961,955.18,966.24,959.29,969.43,962.92Z" style="fill:#fffce4;stroke:#3a3632;stroke-miterlimit:10;stroke-width:7.44613490659924px"/><path d="M818.52,870.92c-6.46.93-12.76-.53-16.29-5.34-9.15-12.08-1.17-32.14,11.49-35.18C887,812.23,967.9,827,1024.65,880.06c7.65,7.08,1.86,17.69-2.08,26.08-2.43,4.74-7.38,8.65-12.13,6.48C958.88,889,906.67,865,847.38,872,836,873.36,826,871.19,818.52,870.92Z" style="fill:#fffce4;stroke:#3a3632;stroke-miterlimit:10;stroke-width:7.44613490659924px"/><path d="M1175.35,866.36c-2.17-3.63-5.5-6.18-9.39-5.91-9.89.52-16.81,13-13.16,20.67,20.82,44.49,61.52,78.83,111.73,84.85,6.74.84,9.76-6.56,12.41-12.09,1.41-3.23,1.36-7.37-1.69-8.83-33.16-15.87-66.76-31.92-87.51-64.66C1183.76,874.1,1178.55,870,1175.35,866.36Z" style="fill:#fffce4;stroke:#3a3632;stroke-miterlimit:10;stroke-width:7.44613490659924px"/><path d="M787.19,966.6c-4.9,4.3-11,6.51-16.56,4.4-14.26-5.14-18.51-26.3-9.56-35.75,51.51-55.2,127.39-86.91,203.88-73.42,10.27,1.77,11.21,13.82,12.48,23,.55,5.31-1.47,11.29-6.63,12-56.11,8.3-113,16.68-158.83,54.9C803.17,959.11,793.59,962.75,787.19,966.6Z" style="fill:#fffce4;stroke:#3a3632;stroke-miterlimit:10;stroke-width:7.44613490659924px"/><path d="M1235.44,871.46c-2.17-3.63-5.5-6.17-9.39-5.91-9.89.53-16.81,13-13.17,20.67,20.82,44.49,61.53,78.83,111.74,84.86,6.74.83,9.76-6.57,12.41-12.1,1.41-3.23,1.36-7.37-1.69-8.83-33.16-15.87-66.76-31.92-87.51-64.66C1243.85,879.2,1238.64,875.09,1235.44,871.46Z" style="fill:#fffce4;stroke:#3a3632;stroke-miterlimit:10;stroke-width:7.44613490659924px"/><path d="M1096.54,796.82c5-4.8,11.45-7.43,17.5-5.42,15.45,4.88,20.9,27.3,11.74,37.78-52.65,61.18-132.34,98.32-214.61,87.19-11.06-1.44-12.58-14.27-14.33-24-.82-5.64,1.09-12.11,6.57-13.15,59.58-11.29,119.93-22.68,167.29-65.48C1079.79,805.51,1089.86,801.2,1096.54,796.82Z" style="fill:#fffce4;stroke:#3a3632;stroke-miterlimit:10;stroke-width:7.44613490659924px"/><path d="M628.09,926.25c3.23-5.66,8.25-9.73,14.21-9.57,15.16.2,26.09,18.82,20.72,30.67-30.66,69-92,123.76-168.71,136C484,1085,479.19,1074,475,1065.69c-2.26-4.83-2.3-11.15,2.33-13.55,50.32-26.18,101.31-52.67,132.18-103.78C615.44,938.55,623.29,932,628.09,926.25Z" style="fill:#fffce4;stroke:#3a3632;stroke-miterlimit:10;stroke-width:7.44613490659924px"/><path d="M1004.29,907.84c-6.46.92-12.76-.54-16.29-5.35-9.15-12.08-1.17-32.14,11.49-35.18,73.29-18.17,154.18-3.37,210.93,49.66,7.65,7.09,1.86,17.7-2.08,26.08-2.43,4.75-7.38,8.65-12.13,6.48-51.56-23.65-103.77-47.63-163.06-40.61C1021.76,910.27,1011.75,908.1,1004.29,907.84Z" style="fill:#fffce4;stroke:#3a3632;stroke-miterlimit:10;stroke-width:7.44613490659924px"/><path d="M1395.25,1013.6c3.86-.87,7.43.13,9.1,3.8,4.34,9.23-2,25.08-9.7,27.73-44.48,15.85-90.65,6.11-119.45-34-3.89-5.37.4-13.78,3.41-20.42,1.83-3.76,5.06-6.92,7.66-5.33,28.23,17.3,56.81,34.85,92.16,28C1385.22,1012.09,1390.9,1013.56,1395.25,1013.6Z" style="fill:#fffce4;stroke:#3a3632;stroke-miterlimit:10;stroke-width:6.5914346335541px"/><path d="M1222.3,977.61c4.5-3.62,10-5.35,14.81-3.29,12.42,5.07,15.41,23.95,7.14,32-47.59,46.93-115.87,72.18-183,57.43-9-1.94-9.41-12.63-10.19-20.79-.3-4.71,1.71-9.92,6.31-10.41,49.93-5.28,100.51-10.6,142.49-42.72C1207.9,983.65,1216.5,980.78,1222.3,977.61Z" style="fill:#fffce4;stroke:#3a3632;stroke-miterlimit:10;stroke-width:6.5914346335541px"/><path d="M794.36,1205.07c-5.76.27-11.19-1.55-13.9-6.08-7-11.42,1.68-28.42,13.09-30,66.1-9.85,136.14,10,181.69,61.49,6.15,6.89.16,15.75-4,22.81-2.54,4-7.23,7-11.23,4.69-43.45-25.17-87.44-50.69-140.29-49.49C809.56,1208.68,800.92,1205.93,794.36,1205.07Z" style="fill:#fffce4;stroke:#3a3632;stroke-miterlimit:10;stroke-width:6.5914346335541px"/><path d="M1312,1079.52c5.74-.57,11.26,1,14.19,5.37,7.6,11-.25,28.47-11.57,30.65-65.53,13.15-136.48-3.17-184.54-52.32-6.48-6.58-1-15.73,2.87-23,2.34-4.1,6.88-7.36,11-5.25,44.65,23,89.87,46.26,142.58,42.41C1296.59,1076.67,1305.36,1079,1312,1079.52Z" style="fill:#fffce4;stroke:#3a3632;stroke-miterlimit:10;stroke-width:6.5914346335541px"/><path d="M1285.5,1156.45c-4.36,2.56-9.3,3.36-13.25,1-10.1-6-10.28-22.7-2.09-28.59,47.19-34.56,109.53-47.71,165.78-26.37,7.57,2.83,6.54,12.13,6.18,19.3-.35,4.12-2.76,8.37-6.79,8.21-43.91-1.8-88.38-3.65-128.83,18.8C1298.74,1153.06,1290.93,1154.45,1285.5,1156.45Z" style="fill:#fffce4;stroke:#3a3632;stroke-miterlimit:10;stroke-width:6.5914346335541px"/><path d="M1500.35,1045.81c5.77-.1,11.14,1.88,13.71,6.5,6.69,11.62-2.54,28.36-14,29.62-66.38,7.85-135.78-14.12-179.75-67-5.93-7.08.32-15.75,4.71-22.68,2.66-3.9,7.45-6.78,11.37-4.34,42.67,26.47,85.87,53.32,138.72,53.72C1485.27,1041.74,1493.82,1044.75,1500.35,1045.81Z" style="fill:#fffce4;stroke:#3a3632;stroke-miterlimit:10;stroke-width:6.5914346335541px"/><path d="M1365.37,1033.17c3.86-.87,7.43.13,9.1,3.8,4.34,9.23-2,25.07-9.7,27.73-44.49,15.84-90.66,6.11-119.45-34-3.89-5.36.39-13.77,3.41-20.41,1.82-3.76,5.06-6.92,7.65-5.33,28.24,17.3,56.82,34.85,92.17,28C1355.33,1031.66,1361,1033.13,1365.37,1033.17Z" style="fill:#fffce4;stroke:#3a3632;stroke-miterlimit:10;stroke-width:6.5914346335541px"/><path d="M1463.33,999.84c3.37-2.06,7.08-2.26,9.83.68,7.08,7.35,6.13,24.4-.28,29.38-37.05,29.28-83.9,34.88-124.05,6.13-5.4-3.84-4-13.18-3.32-20.43.52-4.15,2.57-8.18,5.54-7.51,32.29,7.32,65,14.77,96.28-3C1453.34,1001.64,1459.19,1001.2,1463.33,999.84Z" style="fill:#fffce4;stroke:#3a3632;stroke-miterlimit:10;stroke-width:6.5914346335541px"/><path d="M1386.71,1041.23c-2.07,3.37-5.28,5.23-9.07,3.86-9.64-3.34-16.54-19-13.08-26.31,19.72-42.91,58.93-69.16,107.76-61.75,6.55,1,9.59,9.9,12.23,16.69,1.42,3.93,1.42,8.46-1.53,9.2-32.09,8.13-64.62,16.34-84.42,46.4C1394.8,1035.1,1389.78,1038.14,1386.71,1041.23Z" style="fill:#fffce4;stroke:#3a3632;stroke-miterlimit:10;stroke-width:6.5914346335541px"/><path d="M1357.22,1160.82c3,2.27,6.55,3.27,9.66,1.78,8-3.68,9.56-16.23,4-21.31-31.7-29.77-76.42-44.67-119.69-33.16-5.82,1.52-5.87,8.59-6.24,14-.1,3.13,1.3,6.52,4.28,6.72,32.47,2.18,65.36,4.37,93.16,24.49C1347.77,1157.2,1353.4,1158.88,1357.22,1160.82Z" style="fill:#fffce4;stroke:#3a3632;stroke-miterlimit:10;stroke-width:6.5914346335541px"/><path d="M926.86,1094.85c-5.74.57-11.25-1-14.19-5.37-7.6-11,.25-28.47,11.57-30.65,65.53-13.15,136.48,3.17,184.54,52.32,6.48,6.58,1,15.73-2.87,23-2.34,4.1-6.88,7.36-11,5.25-44.65-23-89.87-46.26-142.58-42.41C942.22,1097.7,933.45,1095.39,926.86,1094.85Z" style="fill:#fffce4;stroke:#3a3632;stroke-miterlimit:10;stroke-width:6.5914346335541px"/><path d="M826.5,963.93c4.35-2.55,9.3-3.36,13.24-.95,10.11,6,10.28,22.7,2.1,28.6-47.19,34.55-109.53,47.71-165.78,26.37-7.57-2.84-6.54-12.14-6.18-19.31.35-4.11,2.75-8.37,6.79-8.2,43.91,1.79,88.38,3.65,128.82-18.81C813.26,967.33,821.07,965.94,826.5,963.93Z" style="fill:#fffce4;stroke:#3a3632;stroke-miterlimit:10;stroke-width:6.5914346335541px"/><path d="M824,1104.41c-3.86.87-7.43-.13-9.09-3.8-4.35-9.23,2-25.07,9.69-27.73,44.49-15.84,90.66-6.1,119.45,34,3.89,5.36-.39,13.78-3.41,20.41-1.82,3.76-5.06,6.92-7.65,5.33-28.24-17.3-56.82-34.84-92.16-28C834,1105.92,828.3,1104.46,824,1104.41Z" style="fill:#fffce4;stroke:#3a3632;stroke-miterlimit:10;stroke-width:6.5914346335541px"/><path d="M613.76,1086.83c-3.37,2.07-7.08,2.26-9.83-.68-7.08-7.35-6.14-24.4.28-29.38,37-29.28,83.9-34.88,124-6.12,5.4,3.83,4,13.17,3.32,20.42-.52,4.15-2.57,8.18-5.54,7.51-32.29-7.32-65-14.76-96.28,3C623.75,1085,617.9,1085.47,613.76,1086.83Z" style="fill:#fffce4;stroke:#3a3632;stroke-miterlimit:10;stroke-width:6.5914346335541px"/><path d="M888.59,998.89c-3-2.27-6.55-3.28-9.67-1.78-8,3.67-9.55,16.22-4,21.31,31.7,29.76,76.43,44.66,119.7,33.16,5.81-1.52,5.87-8.6,6.23-14,.11-3.12-1.29-6.51-4.28-6.71-32.47-2.18-65.36-4.37-93.15-24.5C898,1002.5,892.41,1000.83,888.59,998.89Z" style="fill:#fffce4;stroke:#3a3632;stroke-miterlimit:10;stroke-width:6.5914346335541px"/><path d="M1098.48,1122.22c1.78,3.29,4.62,5.68,8.07,5.6,8.77-.07,15.39-10.86,12.47-17.76-16.64-40.17-51.26-72.16-95.43-79.49-5.93-1-8.89,5.41-11.45,10.19-1.38,2.81-1.5,6.47,1.14,7.88,28.69,15.36,57.76,30.9,74.81,60.68C1091.36,1115,1095.8,1118.88,1098.48,1122.22Z" style="fill:#fffce4;stroke:#3a3632;stroke-miterlimit:10;stroke-width:6.5914346335541px"/><path d="M868.09,1128.59c5.84-2,12-1.7,16.07,2.17,10.6,9.66,6.63,29.71-4.63,34.71-65.06,29.54-142.88,29.71-204.82-9.85-8.34-5.28-4.79-16.15-2.57-24.63,1.45-4.83,5.39-9.32,10.17-8.11,52.06,13.11,104.77,26.42,158.74,9.67C851.41,1129.34,861.1,1129.63,868.09,1128.59Z" style="fill:#fffce4;stroke:#3a3632;stroke-miterlimit:10;stroke-width:6.5914346335541px"/><path d="M867.92,1183.33c-5.74.56-11.25-1-14.18-5.37-7.61-11.06.25-28.48,11.56-30.66,65.53-13.14,136.48,3.17,184.55,52.33,6.48,6.57.94,15.72-2.88,23-2.34,4.1-6.88,7.36-11,5.24-44.66-23-89.87-46.25-142.59-42.41C883.28,1186.18,874.52,1183.87,867.92,1183.33Z" style="fill:#fffce4;stroke:#3a3632;stroke-miterlimit:10;stroke-width:6.5914346335541px"/><path d="M797.38,1040.69c4.35-2.56,9.3-3.37,13.24-1,10.11,6,10.28,22.7,2.1,28.6-47.19,34.55-109.53,47.71-165.78,26.37-7.57-2.84-6.54-12.14-6.18-19.31.35-4.11,2.76-8.37,6.79-8.2,43.91,1.8,88.38,3.65,128.82-18.8C784.14,1044.08,792,1042.69,797.38,1040.69Z" style="fill:#fffce4;stroke:#3a3632;stroke-miterlimit:10;stroke-width:6.5914346335541px"/><path d="M856.66,1173.23c-3-2.28-6.55-3.28-9.66-1.79-8,3.68-9.56,16.23-4,21.32,31.7,29.76,76.42,44.66,119.69,33.16,5.82-1.52,5.87-8.6,6.23-14,.11-3.12-1.29-6.51-4.27-6.71-32.47-2.19-65.36-4.37-93.16-24.5C866.11,1176.84,860.48,1175.17,856.66,1173.23Z" style="fill:#fffce4;stroke:#3a3632;stroke-miterlimit:10;stroke-width:6.5914346335541px"/><path d="M1039.55,1210.69c1.77,3.3,4.62,5.68,8.07,5.61,8.76-.08,15.38-10.86,12.46-17.76-16.63-40.18-51.26-72.17-95.42-79.5-5.93-1-8.9,5.42-11.45,10.2-1.39,2.8-1.51,6.47,1.13,7.88,28.69,15.36,57.76,30.89,74.81,60.67C1032.42,1203.51,1036.86,1207.35,1039.55,1210.69Z" style="fill:#fffce4;stroke:#3a3632;stroke-miterlimit:10;stroke-width:6.5914346335541px"/><path d="M1038.31,1192.49c-5.85,2-12,1.7-16.08-2.16-10.59-9.67-6.62-29.71,4.63-34.72,65.06-29.54,142.89-29.71,204.83,9.85,8.34,5.28,4.79,16.15,2.56,24.63-1.44,4.83-5.38,9.32-10.17,8.12-52-13.12-104.77-26.43-158.73-9.68C1055,1191.74,1045.3,1191.45,1038.31,1192.49Z" style="fill:#fffce4;stroke:#3a3632;stroke-miterlimit:10;stroke-width:6.5914346335541px"/><path d="M1190.45,1147.33c-5.81-1.85-11.93-1.64-16.1,1.87-10.72,8.77-7,27.14,4.15,31.81,64.63,27.5,142.44,28.22,204.92-7.55,8.41-4.77,5-14.74,2.91-22.52-1.38-4.43-5.25-8.57-10.06-7.5-52.22,11.63-105.11,23.43-158.83,7.71C1207.12,1148.14,1197.43,1148.33,1190.45,1147.33Z" style="fill:#fffce4;stroke:#3a3632;stroke-miterlimit:10;stroke-width:6.5914346335541px"/><path d="M1203.52,1131.21c5.75-.57,11.26,1,14.19,5.37,7.61,11.05-.25,28.47-11.56,30.65-65.53,13.15-136.48-3.17-184.55-52.32-6.48-6.58-.94-15.73,2.88-23,2.34-4.1,6.88-7.36,11-5.25,44.66,23,89.87,46.25,142.59,42.41C1188.17,1128.36,1196.93,1130.67,1203.52,1131.21Z" style="fill:#fffce4;stroke:#3a3632;stroke-miterlimit:10;stroke-width:6.5914346335541px"/><path d="M1162.78,902.21c5.74-.56,11.26,1,14.19,5.37,7.61,11.06-.25,28.48-11.57,30.66-65.53,13.15-136.47-3.17-184.54-52.33-6.48-6.57-.94-15.72,2.87-23,2.34-4.1,6.88-7.36,11-5.24,44.65,23,89.87,46.25,142.58,42.41C1147.42,899.36,1156.19,901.68,1162.78,902.21Z" style="fill:#fffce4;stroke:#3a3632;stroke-miterlimit:10;stroke-width:6.5914346335541px"/><path d="M1360.73,1194.45c5.77-.1,11.14,1.88,13.71,6.49,6.69,11.63-2.54,28.37-14,29.63-66.38,7.84-135.79-14.12-179.75-67-5.93-7.08.32-15.75,4.71-22.68,2.66-3.9,7.45-6.78,11.37-4.35,42.67,26.48,85.87,53.32,138.72,53.73C1345.65,1190.38,1354.2,1193.39,1360.73,1194.45Z" style="fill:#fffce4;stroke:#3a3632;stroke-miterlimit:10;stroke-width:6.5914346335541px"/><path d="M1240.77,1103.35c3.86-.87,7.43.13,9.09,3.8,4.35,9.23-2,25.08-9.69,27.73-44.49,15.85-90.66,6.11-119.46-34-3.88-5.37.4-13.78,3.42-20.42,1.82-3.76,5.06-6.92,7.65-5.33,28.23,17.3,56.82,34.85,92.16,28C1230.73,1101.84,1236.42,1103.31,1240.77,1103.35Z" style="fill:#fffce4;stroke:#3a3632;stroke-miterlimit:10;stroke-width:6.5914346335541px"/><path d="M1471.82,1084.7c3.38-2.06,7.08-2.26,9.84.69,7.07,7.35,6.13,24.39-.29,29.37-37,29.29-83.89,34.89-124,6.13-5.41-3.83-4-13.17-3.33-20.42.52-4.15,2.57-8.19,5.54-7.51,32.29,7.32,65,14.76,96.28-3C1461.83,1086.5,1467.69,1086.06,1471.82,1084.7Z" style="fill:#fffce4;stroke:#3a3632;stroke-miterlimit:10;stroke-width:6.5914346335541px"/><path d="M1133.72,1184c-3.74-.15-7.24,1.08-8.93,4.09-4.41,7.58,1.49,18.77,8.91,19.78,43,6.18,88.22-7.29,117-41.54,3.89-4.58-.12-10.41-2.93-15-1.7-2.62-4.8-4.59-7.36-3-27.84,16.85-56,33.93-90.34,33.4C1143.54,1181.51,1138,1183.37,1133.72,1184Z" style="fill:#fffce4;stroke:#3a3632;stroke-miterlimit:10;stroke-width:6.5914346335541px"/><path d="M1261.08,911.31c5.74-.56,11.25,1,14.19,5.37,7.6,11.05-.25,28.47-11.57,30.65-65.53,13.15-136.48-3.17-184.54-52.32-6.49-6.57-1-15.73,2.87-23,2.34-4.1,6.88-7.36,11-5.25,44.65,23,89.86,46.26,142.58,42.42C1245.72,908.46,1254.49,910.77,1261.08,911.31Z" style="fill:#fffce4;stroke:#3a3632;stroke-miterlimit:10;stroke-width:6.5914346335541px"/><path d="M1371.13,905.58c3.85-.87,7.42.14,9.09,3.81,4.34,9.23-2,25.07-9.7,27.73-44.48,15.84-90.65,6.1-119.45-34-3.89-5.36.4-13.78,3.41-20.41,1.83-3.76,5.06-6.92,7.66-5.33,28.23,17.29,56.81,34.84,92.16,28C1361.09,904.08,1366.77,905.54,1371.13,905.58Z" style="fill:#fffce4;stroke:#3a3632;stroke-miterlimit:10;stroke-width:6.5914346335541px"/><path d="M1355.84,1029.4c3,2.27,6.55,3.27,9.66,1.78,8-3.68,9.55-16.23,4-21.32-31.7-29.76-76.42-44.66-119.69-33.15-5.82,1.52-5.88,8.59-6.24,14-.1,3.13,1.3,6.52,4.28,6.72,32.47,2.18,65.36,4.37,93.15,24.49C1346.39,1025.78,1352,1027.46,1355.84,1029.4Z" style="fill:#fffce4;stroke:#3a3632;stroke-miterlimit:10;stroke-width:6.5914346335541px"/><path d="M1519.49,1033.94c3,2.28,6.55,3.28,9.66,1.79,8-3.68,9.55-16.23,4-21.32-31.7-29.76-76.42-44.66-119.69-33.16-5.82,1.52-5.88,8.6-6.24,14-.1,3.12,1.29,6.51,4.28,6.71,32.47,2.18,65.36,4.37,93.15,24.5C1510,1030.33,1515.67,1032,1519.49,1033.94Z" style="fill:#fffce4;stroke:#3a3632;stroke-miterlimit:10;stroke-width:6.5914346335541px"/><path d="M1089.46,883.94c-1.78-3.29-4.62-5.67-8.07-5.6-8.77.07-15.39,10.86-12.47,17.76,16.64,40.17,51.26,72.17,95.43,79.49,5.92,1,8.89-5.41,11.45-10.19,1.38-2.81,1.5-6.47-1.14-7.88-28.69-15.36-57.76-30.89-74.81-60.68C1096.58,891.13,1092.14,887.29,1089.46,883.94Z" style="fill:#fffce4;stroke:#3a3632;stroke-miterlimit:10;stroke-width:6.5914346335541px"/><path d="M983,882.44c5.85-2,12-1.69,16.08,2.17,10.59,9.67,6.62,29.71-4.63,34.71-65.06,29.55-142.89,29.71-204.83-9.85-8.34-5.28-4.78-16.14-2.56-24.62,1.44-4.84,5.38-9.33,10.17-8.12,52,13.11,104.77,26.43,158.73,9.68C966.35,883.19,976,883.48,983,882.44Z" style="fill:#fffce4;stroke:#3a3632;stroke-miterlimit:10;stroke-width:6.5914346335541px"/><path d="M963.65,898.94c-5.74.56-11.26-1-14.19-5.38-7.6-11,.25-28.47,11.57-30.65,65.53-13.15,136.47,3.17,184.54,52.33,6.48,6.57,1,15.72-2.87,23-2.34,4.1-6.88,7.35-11,5.24-44.65-23-89.87-46.25-142.58-42.41C979,901.79,970.24,899.47,963.65,898.94Z" style="fill:#fffce4;stroke:#3a3632;stroke-miterlimit:10;stroke-width:6.5914346335541px"/><path d="M822.57,973c-3.86.87-7.43-.13-9.1-3.8-4.34-9.23,2-25.07,9.7-27.73,44.49-15.84,90.66-6.11,119.45,34,3.89,5.36-.39,13.78-3.41,20.41-1.82,3.76-5.06,6.92-7.65,5.33-28.24-17.3-56.82-34.84-92.17-28C832.61,974.5,826.92,973,822.57,973Z" style="fill:#fffce4;stroke:#3a3632;stroke-miterlimit:10;stroke-width:6.5914346335541px"/><path d="M894.22,873.89c-3-2.27-6.54-3.27-9.66-1.78-8,3.68-9.55,16.23-4,21.32,31.7,29.76,76.43,44.66,119.69,33.15,5.82-1.52,5.88-8.59,6.24-14,.11-3.12-1.29-6.52-4.28-6.72-32.47-2.18-65.36-4.37-93.15-24.49C903.67,877.51,898.05,875.83,894.22,873.89Z" style="fill:#fffce4;stroke:#3a3632;stroke-miterlimit:10;stroke-width:6.5914346335541px"/><path d="M910.05,989.17c-4.55,2.42-9.63,3-13.54.38-10-6.55-9.46-23.61-.85-29.25,49.68-33.1,113.83-43.69,170.22-19.4,7.59,3.23,6.12,12.67,5.42,20-.54,4.18-3.18,8.42-7.29,8.06-44.69-3.81-89.94-7.71-132.19,13.35C923.71,986.31,915.68,987.38,910.05,989.17Z" style="fill:#fffce4;stroke:#3a3632;stroke-miterlimit:10;stroke-width:6.5914346335541px"/><path d="M916.6,971.46c5,.5,9.49,2.78,11.25,7,4.62,10.8-5.13,24.39-15.21,24.31-58.49,0-116.55-26.25-149.32-76.71-4.43-6.76,1.9-13.65,6.43-19.22,2.71-3.12,7.17-5.13,10.33-2.61,34.35,27.4,69.13,55.18,115,61C903.91,966.36,911,969.86,916.6,971.46Z" style="fill:#fffce4;stroke:#3a3632;stroke-miterlimit:10;stroke-width:6.5914346335541px"/><path d="M731.15,933.42c-3.32-1.73-7-2.11-9.82-.11-7.22,5-6.64,17.63-.35,21.7,36.33,23.9,82.94,30.93,123.6,12.19,5.47-2.49,4.32-9.47,3.75-14.86-.43-3.1-2.39-6.2-5.36-5.89-32.37,3.41-65.14,6.88-96-8.2C741.08,935.36,735.25,934.67,731.15,933.42Z" style="fill:#fffce4;stroke:#3a3632;stroke-miterlimit:10;stroke-width:6.5914346335541px"/><path d="M1082.17,985.38c4.55-.55,8.88.67,11.15,4.29,5.87,9.11-.57,23.73-9.55,25.69-52,11.81-107.85-.86-145.22-41.2-5-5.39-.54-13.09,2.57-19.19,1.91-3.45,5.54-6.22,8.76-4.51,35,18.55,70.45,37.37,112.17,33.49C1070.06,983.2,1077,985,1082.17,985.38Z" style="fill:#fffce4;stroke:#3a3632;stroke-miterlimit:10;stroke-width:6.5914346335541px"/><path d="M1305.05,990.22c3.86-.87,7.43.13,9.1,3.81,4.34,9.23-2,25.07-9.7,27.73-44.48,15.84-90.65,6.1-119.45-34-3.89-5.36.4-13.78,3.41-20.41,1.83-3.76,5.06-6.93,7.66-5.33,28.23,17.29,56.81,34.84,92.16,28C1295,988.72,1300.7,990.18,1305.05,990.22Z" style="fill:#fffce4;stroke:#3a3632;stroke-miterlimit:10;stroke-width:6.5914346335541px"/><path d="M1108.46,1198.34c-1.78-3.3-4.62-5.68-8.07-5.6-8.77.07-15.39,10.85-12.47,17.75,16.64,40.18,51.26,72.17,95.43,79.5,5.93,1,8.89-5.42,11.45-10.2,1.38-2.8,1.5-6.47-1.13-7.88-28.7-15.36-57.77-30.89-74.81-60.67C1115.59,1205.52,1111.14,1201.68,1108.46,1198.34Z" style="fill:#fffce4;stroke:#3a3632;stroke-miterlimit:10;stroke-width:6.5914346335541px"/><path d="M1238.25,1285.72c5.74-.57,11.26,1,14.19,5.37,7.6,11.05-.25,28.47-11.57,30.65-65.53,13.15-136.47-3.17-184.54-52.32-6.48-6.58-.94-15.73,2.87-23,2.34-4.1,6.88-7.36,11-5.25,44.65,23,89.87,46.26,142.58,42.41C1222.89,1282.87,1231.66,1285.18,1238.25,1285.72Z" style="fill:#fffce4;stroke:#3a3632;stroke-miterlimit:10;stroke-width:6.5914346335541px"/><path d="M760.79,1298.3c-5.75.56-11.26-1-14.19-5.37-7.61-11.06.25-28.48,11.56-30.66,65.53-13.15,136.48,3.17,184.55,52.33,6.48,6.57.94,15.72-2.88,23-2.34,4.1-6.88,7.35-11,5.24-44.66-23-89.87-46.25-142.59-42.41C776.14,1301.15,767.38,1298.83,760.79,1298.3Z" style="fill:#fffce4;stroke:#3a3632;stroke-miterlimit:10;stroke-width:6.5914346335541px"/><path d="M922.51,1275.52c1.78,3.3,4.62,5.68,8.07,5.6,8.77-.07,15.39-10.85,12.47-17.76-16.64-40.17-51.26-72.16-95.43-79.49-5.93-1-8.89,5.41-11.45,10.2-1.38,2.8-1.5,6.47,1.14,7.88,28.69,15.35,57.76,30.89,74.81,60.67C915.39,1268.34,919.83,1272.18,922.51,1275.52Z" style="fill:#fffce4;stroke:#3a3632;stroke-miterlimit:10;stroke-width:6.5914346335541px"/><path d="M1269.77,1202.36c4.51-3.6,10-5.32,14.82-3.24,12.4,5.12,15.32,24,7,32-47.76,46.76-116.13,71.77-183.22,56.79-9-2-9.37-12.67-10.13-20.83-.27-4.72,1.76-9.92,6.35-10.39,50-5.11,100.55-10.25,142.64-42.22C1255.34,1208.35,1264,1205.5,1269.77,1202.36Z" style="fill:#fffce4;stroke:#3a3632;stroke-miterlimit:10;stroke-width:6.5914346335541px"/><path d="M869.58,1268.61c1.78,3.3,4.62,5.68,8.07,5.6,8.77-.07,15.39-10.85,12.46-17.76-16.63-40.17-51.26-72.16-95.42-79.49-5.93-1-8.89,5.41-11.45,10.2-1.38,2.8-1.51,6.47,1.13,7.88,28.69,15.35,57.77,30.89,74.81,60.67C862.45,1261.43,866.89,1265.27,869.58,1268.61Z" style="fill:#fffce4;stroke:#3a3632;stroke-miterlimit:10;stroke-width:6.5914346335541px"/><path d="M989.44,1340.16c-4.66,4-10.42,6.11-15.7,4.09-13.46-4.93-17.39-25-8.88-33.88,49-52,121-81.66,193.27-68.54,9.72,1.72,10.55,13.13,11.71,21.81.5,5-1.44,10.67-6.33,11.37-53.14,7.61-107,15.27-150.55,51.23C1004.59,1333.14,995.51,1336.55,989.44,1340.16Z" style="fill:#fffce4;stroke:#3a3632;stroke-miterlimit:10;stroke-width:6.5914346335541px"/><path d="M1408.85,1244.38c-3.08,4.88-7.68,8.28-12.95,7.9-13.39-.78-22.32-17.68-17.09-28,29.86-59.79,86.31-105.77,154.62-113.52,9.17-1.08,13,8.91,16.37,16.38,1.8,4.36,1.58,9.94-2.6,11.89-45.55,21.14-91.7,42.53-121,86.49C1420.53,1234,1413.32,1239.51,1408.85,1244.38Z" style="fill:#fffce4;stroke:#3a3632;stroke-miterlimit:10;stroke-width:6.5914346335541px"/><path d="M1075.44,1245.66c5.75-.56,11.26,1,14.19,5.38,7.61,11-.25,28.47-11.56,30.65-65.53,13.15-136.48-3.17-184.55-52.32-6.48-6.58-.94-15.73,2.88-23,2.33-4.11,6.88-7.36,11-5.25,44.66,23,89.87,46.25,142.59,42.41C1060.08,1242.81,1068.85,1245.13,1075.44,1245.66Z" style="fill:#fffce4;stroke:#3a3632;stroke-miterlimit:10;stroke-width:6.5914346335541px"/><path d="M1010.31,1288.89c-1.78-3.3-4.62-5.68-8.07-5.61-8.77.08-15.39,10.86-12.47,17.76,16.64,40.18,51.26,72.17,95.43,79.5,5.93,1,8.89-5.42,11.45-10.2,1.38-2.8,1.5-6.47-1.14-7.88-28.69-15.36-57.76-30.89-74.81-60.67C1017.43,1296.07,1013,1292.23,1010.31,1288.89Z" style="fill:#fffce4;stroke:#3a3632;stroke-miterlimit:10;stroke-width:6.5914346335541px"/><path d="M1033.35,1359c-3.72-.46-7.3.49-9.24,3.35-5,7.2,0,18.83,7.3,20.43,42.4,9.63,88.51-.15,120-32,4.25-4.25.72-10.38-1.71-15.23-1.49-2.75-4.41-5-7.08-3.63-29.11,14.55-58.59,29.31-92.75,26C1043.33,1357.3,1037.63,1358.71,1033.35,1359Z" style="fill:#fffce4;stroke:#3a3632;stroke-miterlimit:10;stroke-width:6.5914346335541px"/></g></svg>