<svg xmlns="http://www.w3.org/2000/svg" viewBox="0 0 2000 2000"><g id="Layer_1" data-name="Layer 1"><ellipse cx="1000" cy="1154.1" rx="982.77" ry="504.92" style="fill:#fff;stroke:#3a3632;stroke-miterlimit:10;stroke-width:20px"/><path d="M1932.05,1215.44c0,63.77-155,106.42-346.32,106.42s-346.32-42.65-346.32-106.42c0-110.37,155.06-151.72,346.32-151.72S1932.05,1105.07,1932.05,1215.44Z" style="fill:#cda77b;stroke:#3a3632;stroke-miterlimit:10;stroke-width:20px"/><path d="M1456.63,1105.53l3,1.77a14,14,0,0,0,19.32-5.39l5.4-10a14,14,0,0,1,24.53,0h0a14,14,0,0,0,24.54,0h0a14,14,0,0,1,24.54,0l5.4,10a13.94,13.94,0,0,0,19.31,5.39l3-1.77" style="fill:none;stroke:#3a3632;stroke-linecap:round;stroke-miterlimit:10;stroke-width:10px"/><path d="M1548.36,1166.79l3,1.77a13.94,13.94,0,0,0,19.31-5.39l5.4-10a14,14,0,0,1,24.54,0h0a14,14,0,0,0,24.54,0h0a14,14,0,0,1,24.53,0l5.4,10a14,14,0,0,0,19.32,5.39l3-1.77" style="fill:none;stroke:#3a3632;stroke-linecap:round;stroke-miterlimit:10;stroke-width:10px"/><path d="M1647.06,1266.76l3.18,1.51a14,14,0,0,0,18.78-7l4.52-10.4a14,14,0,0,1,24.45-2.1h0a14,14,0,0,0,24.44-2.11h0a14,14,0,0,1,24.45-2.1l6.23,9.46a14,14,0,0,0,19.71,3.72l2.87-2" style="fill:none;stroke:#3a3632;stroke-linecap:round;stroke-miterlimit:10;stroke-width:10px"/><path d="M1741,1134.67l2.61,2.35a14,14,0,0,0,20-1.39l7.3-8.67a14,14,0,0,1,24,5h0a14,14,0,0,0,24,4.95h0a14,14,0,0,1,24,5l3.28,10.85a14,14,0,0,0,17.83,9.19l3.32-1.13" style="fill:none;stroke:#3a3632;stroke-linecap:round;stroke-miterlimit:10;stroke-width:10px"/><path d="M1381.46,1250.67l2.91,2a14,14,0,0,0,19.62-4.12l6-9.6a14,14,0,0,1,24.49,1.61h0a14,14,0,0,0,24.48,1.6h0a14,14,0,0,1,24.48,1.6l4.74,10.3a14,14,0,0,0,18.92,6.64l3.15-1.57" style="fill:none;stroke:#3a3632;stroke-linecap:round;stroke-miterlimit:10;stroke-width:10px"/><path d="M1284.88,1193.2l3.29,1.24a14,14,0,0,0,18.12-8.6l3.63-10.74a14,14,0,0,1,24.18-4.17h0a14,14,0,0,0,24.18-4.16h0a14,14,0,0,1,24.18-4.17l7,8.9a14,14,0,0,0,20,2l2.69-2.26" style="fill:none;stroke:#3a3632;stroke-linecap:round;stroke-miterlimit:10;stroke-width:10px"/><path d="M1225,1433.63c0,63.78-155.06,106.43-346.32,106.43s-346.32-42.65-346.32-106.43c0-110.37,155-151.71,346.32-151.71S1225,1323.26,1225,1433.63Z" style="fill:#cda77b;stroke:#3a3632;stroke-miterlimit:10;stroke-width:20px"/><path d="M749.59,1323.73l3,1.77a14,14,0,0,0,19.31-5.4l5.4-10a14,14,0,0,1,24.54,0h0a14,14,0,0,0,24.53,0h0a14,14,0,0,1,24.54,0l5.4,10a14,14,0,0,0,19.32,5.4l3-1.77" style="fill:none;stroke:#3a3632;stroke-linecap:round;stroke-miterlimit:10;stroke-width:10px"/><path d="M841.32,1385l3,1.77a14,14,0,0,0,19.32-5.39l5.4-10a14,14,0,0,1,24.53,0h0a14,14,0,0,0,24.54,0h0a14,14,0,0,1,24.54,0l5.4,10a13.94,13.94,0,0,0,19.31,5.39l3-1.77" style="fill:none;stroke:#3a3632;stroke-linecap:round;stroke-miterlimit:10;stroke-width:10px"/><path d="M940,1485l3.17,1.51a14,14,0,0,0,18.78-7l4.53-10.39a13.94,13.94,0,0,1,24.44-2.1h0a14,14,0,0,0,24.45-2.11h0a14,14,0,0,1,24.45-2.11l6.23,9.47a14,14,0,0,0,19.71,3.72l2.87-2" style="fill:none;stroke:#3a3632;stroke-linecap:round;stroke-miterlimit:10;stroke-width:10px"/><path d="M1033.92,1352.87l2.61,2.35a14,14,0,0,0,20-1.39l7.3-8.67a14,14,0,0,1,24,4.95h0a14,14,0,0,0,24,5h0a14,14,0,0,1,24,5l3.27,10.85a14,14,0,0,0,17.83,9.19l3.33-1.13" style="fill:none;stroke:#3a3632;stroke-linecap:round;stroke-miterlimit:10;stroke-width:10px"/><path d="M674.42,1468.87l2.91,2a14,14,0,0,0,19.63-4.13l6-9.59a14,14,0,0,1,24.48,1.6h0a14,14,0,0,0,24.49,1.61h0a14,14,0,0,1,24.48,1.6l4.74,10.29a14,14,0,0,0,18.92,6.65l3.14-1.57" style="fill:none;stroke:#3a3632;stroke-linecap:round;stroke-miterlimit:10;stroke-width:10px"/><path d="M577.84,1411.4l3.29,1.24a14,14,0,0,0,18.12-8.6l3.63-10.74a14,14,0,0,1,24.18-4.17h0a14,14,0,0,0,24.18-4.16h0a14,14,0,0,1,24.18-4.17l7,8.9a14,14,0,0,0,20,2l2.68-2.26" style="fill:none;stroke:#3a3632;stroke-linecap:round;stroke-miterlimit:10;stroke-width:10px"/><path d="M766.68,1220.46c0,63.78-155.06,106.42-346.32,106.42S74,1284.24,74,1220.46c0-110.37,155.05-151.71,346.32-151.71S766.68,1110.09,766.68,1220.46Z" style="fill:#cda77b;stroke:#3a3632;stroke-miterlimit:10;stroke-width:20px"/><path d="M291.25,1110.55l3,1.78a14,14,0,0,0,19.31-5.4l5.4-10a14,14,0,0,1,24.54,0h0a14,14,0,0,0,24.53,0h0a14,14,0,0,1,24.54,0l5.4,10a14,14,0,0,0,19.32,5.4l3-1.78" style="fill:none;stroke:#3a3632;stroke-linecap:round;stroke-miterlimit:10;stroke-width:10px"/><path d="M383,1171.82l3,1.77a14,14,0,0,0,19.32-5.4l5.4-10a14,14,0,0,1,24.53,0h0a14,14,0,0,0,24.54,0h0a14,14,0,0,1,24.54,0l5.4,10a14,14,0,0,0,19.31,5.4l3-1.77" style="fill:none;stroke:#3a3632;stroke-linecap:round;stroke-miterlimit:10;stroke-width:10px"/><path d="M481.69,1271.79l3.17,1.51a14,14,0,0,0,18.78-7l4.53-10.39a14,14,0,0,1,24.44-2.11h0a14,14,0,0,0,24.45-2.1h0a14,14,0,0,1,24.44-2.11l6.24,9.47a14,14,0,0,0,19.71,3.71l2.87-2" style="fill:none;stroke:#3a3632;stroke-linecap:round;stroke-miterlimit:10;stroke-width:10px"/><path d="M575.58,1139.69l2.61,2.35a14,14,0,0,0,20-1.38l7.3-8.67a14,14,0,0,1,24,5h0a14,14,0,0,0,24,5h0a14,14,0,0,1,24,4.95l3.27,10.85a14,14,0,0,0,17.83,9.18l3.33-1.12" style="fill:none;stroke:#3a3632;stroke-linecap:round;stroke-miterlimit:10;stroke-width:10px"/><path d="M216.08,1255.7l2.91,2a14,14,0,0,0,19.63-4.13l6-9.59a14,14,0,0,1,24.48,1.6h0a14,14,0,0,0,24.48,1.6h0a14,14,0,0,1,24.49,1.6l4.74,10.3a14,14,0,0,0,18.92,6.65l3.14-1.58" style="fill:none;stroke:#3a3632;stroke-linecap:round;stroke-miterlimit:10;stroke-width:10px"/><path d="M119.5,1198.23l3.29,1.23a13.94,13.94,0,0,0,18.12-8.6l3.63-10.73a14,14,0,0,1,24.18-4.17h0a14,14,0,0,0,24.18-4.17h0a14,14,0,0,1,24.18-4.16l7,8.9a14,14,0,0,0,20,2l2.68-2.27" style="fill:none;stroke:#3a3632;stroke-linecap:round;stroke-miterlimit:10;stroke-width:10px"/><path d="M875.76,1056.68c0,63.77-155.06,106.42-346.32,106.42s-346.32-42.65-346.32-106.42C183.12,946.31,338.17,905,529.44,905S875.76,946.31,875.76,1056.68Z" style="fill:#cda77b;stroke:#3a3632;stroke-miterlimit:10;stroke-width:20px"/><path d="M400.33,946.77l3,1.77a13.94,13.94,0,0,0,19.31-5.39l5.4-10a14,14,0,0,1,24.54,0h0a14,14,0,0,0,24.53,0h0a14,14,0,0,1,24.54,0l5.4,10a13.94,13.94,0,0,0,19.31,5.39l3-1.77" style="fill:none;stroke:#3a3632;stroke-linecap:round;stroke-miterlimit:10;stroke-width:10px"/><path d="M492.06,1008l3,1.78a14,14,0,0,0,19.32-5.4l5.4-10a14,14,0,0,1,24.53,0h0a14,14,0,0,0,24.54,0h0a14,14,0,0,1,24.54,0l5.4,10a14,14,0,0,0,19.31,5.4l3-1.78" style="fill:none;stroke:#3a3632;stroke-linecap:round;stroke-miterlimit:10;stroke-width:10px"/><path d="M590.77,1108l3.17,1.51a14,14,0,0,0,18.78-7l4.53-10.4a14,14,0,0,1,24.44-2.1h0a14,14,0,0,0,24.45-2.11h0a13.94,13.94,0,0,1,24.44-2.1l6.24,9.46a14,14,0,0,0,19.71,3.72l2.86-2" style="fill:none;stroke:#3a3632;stroke-linecap:round;stroke-miterlimit:10;stroke-width:10px"/><path d="M684.66,975.91l2.61,2.35a14,14,0,0,0,20-1.39l7.3-8.67a14,14,0,0,1,24,5h0a14,14,0,0,0,24,5h0a14,14,0,0,1,24,4.95L790,993.91a14,14,0,0,0,17.83,9.19l3.33-1.13" style="fill:none;stroke:#3a3632;stroke-linecap:round;stroke-miterlimit:10;stroke-width:10px"/><path d="M325.16,1091.91l2.91,2a14,14,0,0,0,19.63-4.12l6-9.59a14,14,0,0,1,24.48,1.6h0a14,14,0,0,0,24.48,1.6h0a14,14,0,0,1,24.49,1.6l4.74,10.3a14,14,0,0,0,18.92,6.64l3.14-1.57" style="fill:none;stroke:#3a3632;stroke-linecap:round;stroke-miterlimit:10;stroke-width:10px"/><path d="M228.58,1034.44l3.29,1.24a14,14,0,0,0,18.12-8.6l3.63-10.74a14,14,0,0,1,24.18-4.16h0A14,14,0,0,0,302,1008h0a14,14,0,0,1,24.18-4.17l7,8.91a14,14,0,0,0,20,2l2.68-2.26" style="fill:none;stroke:#3a3632;stroke-linecap:round;stroke-miterlimit:10;stroke-width:10px"/><path d="M1365.06,892.41c0,63.78-155,106.42-346.32,106.42S672.42,956.19,672.42,892.41c0-110.37,155.05-151.72,346.32-151.72S1365.06,782,1365.06,892.41Z" style="fill:#cda77b;stroke:#3a3632;stroke-miterlimit:10;stroke-width:20px"/><path d="M889.64,782.5l3,1.78a14,14,0,0,0,19.31-5.4l5.4-10a14,14,0,0,1,24.54,0h0a14,14,0,0,0,24.54,0h0a14,14,0,0,1,24.53,0l5.4,10a14,14,0,0,0,19.32,5.4l3-1.78" style="fill:none;stroke:#3a3632;stroke-linecap:round;stroke-miterlimit:10;stroke-width:10px"/><path d="M981.36,843.76l3,1.78a14,14,0,0,0,19.32-5.4l5.4-10a14,14,0,0,1,24.54,0h0a14,14,0,0,0,24.53,0h0a14,14,0,0,1,24.54,0l5.4,10a14,14,0,0,0,19.31,5.4l3-1.78" style="fill:none;stroke:#3a3632;stroke-linecap:round;stroke-miterlimit:10;stroke-width:10px"/><path d="M1080.07,943.74l3.17,1.5a13.94,13.94,0,0,0,18.78-7l4.53-10.39a14,14,0,0,1,24.44-2.11h0a14,14,0,0,0,24.45-2.11h0a14,14,0,0,1,24.45-2.1l6.23,9.46a14,14,0,0,0,19.71,3.72l2.87-2" style="fill:none;stroke:#3a3632;stroke-linecap:round;stroke-miterlimit:10;stroke-width:10px"/><path d="M1174,811.64l2.62,2.35a13.94,13.94,0,0,0,20-1.38l7.3-8.67a14,14,0,0,1,24,4.95h0a14,14,0,0,0,24,5h0a14,14,0,0,1,24,5l3.27,10.85a14,14,0,0,0,17.83,9.18l3.33-1.12" style="fill:none;stroke:#3a3632;stroke-linecap:round;stroke-miterlimit:10;stroke-width:10px"/><path d="M814.46,927.64l2.91,2A14,14,0,0,0,837,925.49l6-9.59a14,14,0,0,1,24.48,1.6h0A14,14,0,0,0,892,919.1h0a14,14,0,0,1,24.48,1.6l4.74,10.3a13.94,13.94,0,0,0,18.92,6.64l3.14-1.57" style="fill:none;stroke:#3a3632;stroke-linecap:round;stroke-miterlimit:10;stroke-width:10px"/><path d="M717.89,870.18l3.29,1.23a14,14,0,0,0,18.11-8.6l3.63-10.74a14,14,0,0,1,24.18-4.16h0a14,14,0,0,0,24.18-4.17h0a14,14,0,0,1,24.18-4.17l7,8.91a14,14,0,0,0,19.95,2l2.68-2.26" style="fill:none;stroke:#3a3632;stroke-linecap:round;stroke-miterlimit:10;stroke-width:10px"/><path d="M1183,1067.46c20.4,65.46-125.09,158.82-321.39,220s-369.08,67-389.48,1.54c-35.3-113.27,110.61-205.3,306.91-266.47S1147.7,954.19,1183,1067.46Z" style="fill:#cda77b;stroke:#3a3632;stroke-miterlimit:10;stroke-width:20px"/><path d="M659.91,1106.73l3.68.85a15,15,0,0,0,18.1-11.72l2.35-11.95a15,15,0,0,1,25.18-7.85h0a15,15,0,0,0,25.19-7.85h0a15,15,0,0,1,25.18-7.85l8.73,8.5a15,15,0,0,0,21.55-.64l2.54-2.79" style="fill:none;stroke:#3a3632;stroke-linecap:round;stroke-miterlimit:10;stroke-width:10px"/><path d="M773.65,1140.26l3.68.85a15,15,0,0,0,18.09-11.71l2.36-12a15,15,0,0,1,25.18-7.85h0a15,15,0,0,0,25.18-7.84h0a15,15,0,0,1,25.18-7.85l8.73,8.5a15,15,0,0,0,21.55-.64l2.55-2.79" style="fill:none;stroke:#3a3632;stroke-linecap:round;stroke-miterlimit:10;stroke-width:10px"/><path d="M906.93,1211.29l3.74.54a15,15,0,0,0,17-13.23l1.32-12.11a15,15,0,0,1,24.42-10h0a15,15,0,0,0,24.41-10h0a15,15,0,0,1,24.42-10l9.43,7.73a15,15,0,0,0,21.41-2.49l2.3-3" style="fill:none;stroke:#3a3632;stroke-linecap:round;stroke-miterlimit:10;stroke-width:10px"/><path d="M961,1045.69l3.44,1.58a15,15,0,0,0,20.09-7.82l4.71-11.24a15,15,0,0,1,26.25-2.6h0a15,15,0,0,0,26.25-2.6h0a15,15,0,0,1,26.25-2.61l6.83,10.09a15,15,0,0,0,21.24,3.73l3.05-2.22" style="fill:none;stroke:#3a3632;stroke-linecap:round;stroke-miterlimit:10;stroke-width:10px"/><path d="M629.18,1279.73l3.62,1.09a15,15,0,0,0,18.83-10.51l3.12-11.77a15,15,0,0,1,25.65-6.19h0a15,15,0,0,0,25.64-6.19h0a15,15,0,0,1,25.64-6.18l8.15,9a15,15,0,0,0,21.55.77l2.72-2.62" style="fill:none;stroke:#3a3632;stroke-linecap:round;stroke-miterlimit:10;stroke-width:10px"/><path d="M511.69,1251.64l3.77.22a15,15,0,0,0,15.84-14.62l.29-12.18a15,15,0,0,1,23.48-12h0a15,15,0,0,0,23.49-12h0A15,15,0,0,1,602,1189l10.05,6.9a15,15,0,0,0,21.12-4.29l2-3.18" style="fill:none;stroke:#3a3632;stroke-linecap:round;stroke-miterlimit:10;stroke-width:10px"/><path d="M1767.4,1147.31c-11.49,74.19-199.53,95.87-422,61.41s-395.17-112-383.68-186.19C981.58,894.15,1169.39,874,1391.88,908.44S1787.29,1018.92,1767.4,1147.31Z" style="fill:#cda77b;stroke:#3a3632;stroke-miterlimit:10;stroke-width:20px"/><path d="M1234.17,933.82l3.21,2.61a16.42,16.42,0,0,0,23.44-2.8l8.07-10.62a16.43,16.43,0,0,1,28.55,4.42h0a16.42,16.42,0,0,0,28.54,4.42h0a16.42,16.42,0,0,1,28.54,4.42l4.49,12.57a16.42,16.42,0,0,0,21.49,9.75l3.85-1.52" style="fill:none;stroke:#3a3632;stroke-linecap:round;stroke-miterlimit:10;stroke-width:10px"/><path d="M1329.83,1021.6l3.21,2.61a16.42,16.42,0,0,0,23.44-2.79l8.08-10.62a16.42,16.42,0,0,1,28.54,4.42h0a16.42,16.42,0,0,0,28.54,4.42h0a16.43,16.43,0,0,1,28.55,4.42l4.48,12.56a16.42,16.42,0,0,0,21.5,9.76l3.84-1.52" style="fill:none;stroke:#3a3632;stroke-linecap:round;stroke-miterlimit:10;stroke-width:10px"/><path d="M1426.65,1155.68l3.42,2.32a16.42,16.42,0,0,0,23.11-4.8l7.13-11.27a16.43,16.43,0,0,1,28.82,2h0a16.43,16.43,0,0,0,28.82,2h0a16.42,16.42,0,0,1,28.81,2l5.55,12.14a16.42,16.42,0,0,0,22.26,7.87l3.7-1.84" style="fill:none;stroke:#3a3632;stroke-linecap:round;stroke-miterlimit:10;stroke-width:10px"/><path d="M1559.66,1018.94l2.62,3.2a16.42,16.42,0,0,0,23.52,2l10.06-8.77a16.43,16.43,0,0,1,27.06,10.09h0a16.42,16.42,0,0,0,27.06,10.09h0a16.42,16.42,0,0,1,27.06,10.1l1.86,13.21a16.42,16.42,0,0,0,19.08,13.89l4.08-.71" style="fill:none;stroke:#3a3632;stroke-linecap:round;stroke-miterlimit:10;stroke-width:10px"/><path d="M1120.58,1089.11l3,2.82a16.42,16.42,0,0,0,23.57-1.27l8.75-10.07a16.43,16.43,0,0,1,28.2,6.28h0a16.42,16.42,0,0,0,28.19,6.27h0a16.42,16.42,0,0,1,28.19,6.28l3.66,12.83a16.42,16.42,0,0,0,20.81,11.14l3.94-1.27" style="fill:none;stroke:#3a3632;stroke-linecap:round;stroke-miterlimit:10;stroke-width:10px"/><path d="M1018.59,1004.86l3.6,2a16.43,16.43,0,0,0,22.63-6.74l6.15-11.83a16.43,16.43,0,0,1,28.88-.49h0a16.42,16.42,0,0,0,28.88-.5h0a16.43,16.43,0,0,1,28.88-.49l6.55,11.62a16.42,16.42,0,0,0,22.84,6l3.54-2.15" style="fill:none;stroke:#3a3632;stroke-linecap:round;stroke-miterlimit:10;stroke-width:10px"/><path d="M1628.15,1388c-6.77,67.42-175.21,96-377.4,75.73S889.19,1381.86,896,1314.44c11.72-116.67,180-143.91,382.2-123.6S1639.87,1271.32,1628.15,1388Z" style="fill:#cda77b;stroke:#3a3632;stroke-miterlimit:10;stroke-width:20px"/><path d="M1137.25,1221.32l3,2.2a14.82,14.82,0,0,0,21-3.65l6.76-10a14.82,14.82,0,0,1,25.94,2.6h0a14.83,14.83,0,0,0,25.94,2.61h0a14.83,14.83,0,0,1,25.94,2.6l4.65,11.11a14.82,14.82,0,0,0,19.84,7.76l3.4-1.56" style="fill:none;stroke:#3a3632;stroke-linecap:round;stroke-miterlimit:10;stroke-width:10px"/><path d="M1227.71,1295.83l3,2.19a14.83,14.83,0,0,0,21-3.65l6.76-10a14.82,14.82,0,0,1,25.94,2.6h0a14.82,14.82,0,0,0,25.94,2.61h0a14.83,14.83,0,0,1,25.94,2.6l4.64,11.11a14.83,14.83,0,0,0,19.85,7.76l3.39-1.56" style="fill:none;stroke:#3a3632;stroke-linecap:round;stroke-miterlimit:10;stroke-width:10px"/><path d="M1321.44,1412l3.19,1.93a14.82,14.82,0,0,0,20.6-5.44l5.89-10.51a14.82,14.82,0,0,1,26.06.37h0a14.83,14.83,0,0,0,26.07.37h0a14.83,14.83,0,0,1,26.07.37l5.58,10.67a14.83,14.83,0,0,0,20.44,6l3.25-1.84" style="fill:none;stroke:#3a3632;stroke-linecap:round;stroke-miterlimit:10;stroke-width:10px"/><path d="M1434.72,1282.32l2.51,2.76a14.83,14.83,0,0,0,21.3.66l8.64-8.39a14.82,14.82,0,0,1,24.87,7.79h0a14.83,14.83,0,0,0,24.88,7.79h0a14.83,14.83,0,0,1,24.88,7.79l2.31,11.82a14.83,14.83,0,0,0,17.87,11.6l3.64-.84" style="fill:none;stroke:#3a3632;stroke-linecap:round;stroke-miterlimit:10;stroke-width:10px"/><path d="M1042.37,1366.77l2.87,2.39a14.81,14.81,0,0,0,21.18-2.27l7.4-9.5a14.83,14.83,0,0,1,25.72,4.29h0a14.82,14.82,0,0,0,25.71,4.3h0a14.82,14.82,0,0,1,25.71,4.29l3.92,11.39a14.81,14.81,0,0,0,19.29,9l3.49-1.33" style="fill:none;stroke:#3a3632;stroke-linecap:round;stroke-miterlimit:10;stroke-width:10px"/><path d="M946.38,1295.77l3.35,1.65a14.82,14.82,0,0,0,20.06-7.16l5-11a14.82,14.82,0,0,1,26-1.84h0a14.83,14.83,0,0,0,26-1.83h0a14.82,14.82,0,0,1,26-1.84l6.47,10.16a14.83,14.83,0,0,0,20.87,4.27l3.08-2.11" style="fill:none;stroke:#3a3632;stroke-linecap:round;stroke-miterlimit:10;stroke-width:10px"/></g></svg>