<svg xmlns="http://www.w3.org/2000/svg" viewBox="0 0 2000 2000"><g id="Layer_1" data-name="Layer 1"><path d="M230.48,1358l1230.81,350.17c30.81,8.76,64.22-3.66,78.8-29.29l207.85-365.48c12.68-22.3-.81-49.31-28-55.94L762.24,1023.54a77.6,77.6,0,0,0-56.33,7.59L222.81,1305.9C199.51,1319.16,204.12,1350.51,230.48,1358Z" style="fill:#ead39a;stroke:#3a3632;stroke-linecap:round;stroke-linejoin:round;stroke-width:20px"/><path d="M862.61,1057.65c3.79-14.57,5.29-19.64,3.16-28.61-15.15-63.83-119.55-54.62-150.49-11.47" style="fill:#ead39a;stroke:#3a3632;stroke-linecap:round;stroke-linejoin:round;stroke-width:20px"/><path d="M986.14,1086c3.79-14.57,2.42-19.12.29-28.09-15.15-63.83-131.32-58.79-163.55-.26" style="fill:#ead39a;stroke:#3a3632;stroke-linecap:round;stroke-linejoin:round;stroke-width:20px"/><path d="M1104.08,1113.23c3.79-14.57,2.42-19.13.29-28.1-15.15-63.82-131.32-58.78-163.55-.25" style="fill:#ead39a;stroke:#3a3632;stroke-linecap:round;stroke-linejoin:round;stroke-width:20px"/><path d="M1222,1140.45c3.78-14.57,2.42-19.12.29-28.1-15.15-63.82-131.32-58.78-163.56-.25" style="fill:#ead39a;stroke:#3a3632;stroke-linecap:round;stroke-linejoin:round;stroke-width:20px"/><path d="M1340,1167.68c3.79-14.57,2.43-19.13.3-28.1-15.16-63.83-131.33-58.78-163.56-.25" style="fill:#ead39a;stroke:#3a3632;stroke-linecap:round;stroke-linejoin:round;stroke-width:20px"/><path d="M1453.8,1198.46c3.79-14.57,2.42-19.13.29-28.1-15.15-63.82-131.32-58.78-163.55-.25" style="fill:#ead39a;stroke:#3a3632;stroke-linecap:round;stroke-linejoin:round;stroke-width:20px"/><path d="M1578.55,1226.29c3.79-14.57,2.43-19.12.3-28.09-15.15-63.83-131.32-58.79-163.56-.26" style="fill:#ead39a;stroke:#3a3632;stroke-linecap:round;stroke-linejoin:round;stroke-width:20px"/><path d="M1682.35,1263.35c3.79-14.57,3.61-24.13,1.48-33.1-15.15-63.83-119.55-54.61-150.49-11.47" style="fill:#ead39a;stroke:#3a3632;stroke-linecap:round;stroke-linejoin:round;stroke-width:20px"/><path d="M1628.38,1246.38c36.45-25.11,124.37-43.41,152.14,5.7,33.52,59.27-44.33,77.65-59.53,77.18" style="fill:#ead39a;stroke:#3a3632;stroke-linecap:round;stroke-linejoin:round;stroke-width:20px"/><path d="M1669.49,1410.58c75.18,8.52,98.16-36.74,103.74-63.5s-14.19-58.81-57.29-51.35" style="fill:#ead39a;stroke:#3a3632;stroke-linecap:round;stroke-linejoin:round;stroke-width:20px"/><path d="M1628.84,1485.39c75.18,8.52,98.16-36.75,103.74-63.51s-20.52-62.19-63.62-54.73" style="fill:#ead39a;stroke:#3a3632;stroke-linecap:round;stroke-linejoin:round;stroke-width:20px"/><path d="M1585.52,1563.12c75.18,8.53,98.16-36.74,103.74-63.5s-14.19-58.81-57.28-51.34" style="fill:#ead39a;stroke:#3a3632;stroke-linecap:round;stroke-linejoin:round;stroke-width:20px"/><path d="M779.69,1035c-6-18.65-24.67-33.22-46-37.65-24.09-5-99.51-.6-87.58,60.32" style="fill:#ead39a;stroke:#3a3632;stroke-linecap:round;stroke-linejoin:round;stroke-width:20px"/><path d="M701.1,1047.28c-6.09-4.76-14.16-6.93-22-8.8-19.32-4.6-39.49-8.2-59.24-5.41s-39.18,13.11-46.81,29.52c-8.74,18.79-9.22,36.1,11.43,44.9" style="fill:#ead39a;stroke:#3a3632;stroke-linecap:round;stroke-linejoin:round;stroke-width:20px"/><path d="M618.27,1101.19c-6.1-4.76-14.17-6.93-22-8.8-19.32-4.6-39.48-8.2-59.24-5.41s-39.18,13.11-46.81,29.52c-8.73,18.79-9.21,36.09,11.43,44.9" style="fill:#ead39a;stroke:#3a3632;stroke-linecap:round;stroke-linejoin:round;stroke-width:20px"/><path d="M533.23,1155.09c-6.1-4.75-14.17-6.92-22-8.79-19.32-4.61-39.49-8.2-59.24-5.41s-39.18,13.1-46.81,29.51c-8.74,18.8-9.22,36.1,11.43,44.91" style="fill:#ead39a;stroke:#3a3632;stroke-linecap:round;stroke-linejoin:round;stroke-width:20px"/><path d="M457,1209c-6.1-4.75-14.17-6.92-22-8.79-19.32-4.61-39.49-8.2-59.24-5.41s-39.18,13.1-46.81,29.51c-8.74,18.8-9.21,36.1,11.43,44.9" style="fill:#ead39a;stroke:#3a3632;stroke-linecap:round;stroke-linejoin:round;stroke-width:20px"/><path d="M1538.38,1648.48c75.17,8.52,98.16-36.75,103.73-63.5s-14.19-58.81-57.28-51.35" style="fill:#ead39a;stroke:#3a3632;stroke-linecap:round;stroke-linejoin:round;stroke-width:20px"/><path d="M380.81,1254.4c-6.1-4.75-14.17-6.92-22-8.79-19.32-4.61-39.49-8.2-59.24-5.41s-39.18,13.1-46.81,29.51c-8.73,18.79,1.65,42.86,22.3,51.66" style="fill:#ead39a;stroke:#3a3632;stroke-linecap:round;stroke-linejoin:round;stroke-width:20px"/><path d="M269.91,1284.43c-55.57-6.42-81.37,35.17-76.93,55.11,3.88,17.41,20.67,30.89,39.44,37s39.33,6.11,59.29,4.94c8.1-.48,16.49-1.21,23.52-4.82" style="fill:#ead39a;stroke:#3a3632;stroke-linecap:round;stroke-linejoin:round;stroke-width:20px"/><path d="M327.43,1331.26c-24.63,7.79-39.68,34-32.31,56.25,6.43,19.44,27.08,33.22,49.13,38.49s70,5.09,104.21-13.53" style="fill:#ead39a;stroke:#3a3632;stroke-linecap:round;stroke-linejoin:round;stroke-width:20px"/><path d="M452.23,1366.14c-24.62,7.79-39.67,34-32.31,56.26,6.44,19.43,27.09,33.21,49.13,38.49s70,5.09,104.22-13.54" style="fill:#ead39a;stroke:#3a3632;stroke-linecap:round;stroke-linejoin:round;stroke-width:20px"/><path d="M577,1401c-24.63,7.78-39.68,34-32.31,56.25,6.43,19.44,27.08,33.21,49.13,38.49s70,5.09,104.21-13.53" style="fill:#ead39a;stroke:#3a3632;stroke-linecap:round;stroke-linejoin:round;stroke-width:20px"/><path d="M701.84,1435.91c-24.62,7.79-39.67,34-32.3,56.25,6.43,19.44,27.08,33.22,49.12,38.49s70,5.09,104.22-13.53" style="fill:#ead39a;stroke:#3a3632;stroke-linecap:round;stroke-linejoin:round;stroke-width:20px"/><path d="M826.65,1470.79c-24.63,7.79-39.68,34-32.31,56.26,6.43,19.43,27.08,33.21,49.13,38.49s70,5.09,104.21-13.54" style="fill:#ead39a;stroke:#3a3632;stroke-linecap:round;stroke-linejoin:round;stroke-width:20px"/><path d="M951.46,1505.68c-24.63,7.78-39.68,34-32.31,56.25,6.43,19.44,27.08,33.21,49.12,38.49s70,5.09,104.22-13.53" style="fill:#ead39a;stroke:#3a3632;stroke-linecap:round;stroke-linejoin:round;stroke-width:20px"/><path d="M1076.26,1540.56c-24.63,7.79-39.68,34-32.31,56.25,6.43,19.44,27.09,33.22,49.13,38.49s70,5.09,104.21-13.53" style="fill:#ead39a;stroke:#3a3632;stroke-linecap:round;stroke-linejoin:round;stroke-width:20px"/><path d="M1201.07,1575.44c-24.63,7.79-39.68,34-32.31,56.26,6.43,19.43,27.08,33.21,49.12,38.49s70,5.09,104.22-13.54" style="fill:#ead39a;stroke:#3a3632;stroke-linecap:round;stroke-linejoin:round;stroke-width:20px"/><path d="M1325.87,1610.33c-24.62,7.78-39.68,34-32.31,56.25,6.43,19.44,27.09,33.21,49.13,38.49s70,5.09,104.21-13.53" style="fill:#ead39a;stroke:#3a3632;stroke-linecap:round;stroke-linejoin:round;stroke-width:20px"/><path d="M1417.09,1683.74c15.22,60.07,110.87,52.4,134.82,28.94,29.79-29.19,33.56-77.44,5-104.35" style="fill:#ead39a;stroke:#3a3632;stroke-linecap:round;stroke-linejoin:round;stroke-width:20px"/><polygon points="1687.38 1191.97 798.62 965.41 347.31 1241.98 320.57 1304.73 1478.75 1639.61 1714.13 1252.72 1687.38 1191.97" style="fill:#785d42;stroke:#3a3632;stroke-linecap:round;stroke-linejoin:round;stroke-width:20px"/><polygon points="347.31 1241.98 1461.04 1564.01 1687.38 1191.97 798.62 965.41 347.31 1241.98" style="fill:#88715c;stroke:#3a3632;stroke-linecap:round;stroke-linejoin:round;stroke-width:20px"/><polygon points="440.4 1229.08 1437.31 1514.84 1628.38 1209.58 815.47 1002.52 440.4 1229.08" style="fill:#493727;stroke:#3a3632;stroke-linecap:round;stroke-linejoin:round;stroke-width:20px"/><polygon points="1433.91 1508.05 1605.37 1233.07 814.75 1032.75 483.64 1235.66 1433.91 1508.05" style="fill:#785d42;stroke:#3a3632;stroke-miterlimit:10"/><g id="g1205"><path id="path1199" d="M920.8,735.86c-63.46-18.17-311.15,166.26-355.53,321.3h0c-44.38,155,31,211.09,94.45,229.25h0c63.46,18.17,253.46,56.32,297.83-98.73h0c44.38-155,26.7-433.66-36.75-451.82h0" style="fill:#fbf4e8;stroke:#3a3632;stroke-linecap:round;stroke-linejoin:round;stroke-width:20px"/><path id="path1201" d="M918.22,735.12,1471.07,911.6l-258.42,551L659.8,1286.13" style="fill:#fbf4e8;stroke:#3a3632;stroke-linecap:round;stroke-linejoin:round;stroke-width:20px"/><path id="path1203" d="M1480,914.16c-63.45-18.16-311.14,166.27-355.52,321.31s31,211.09,94.45,229.25,251.24-81.9,295.62-236.94S1543.48,932.32,1480,914.16Z" style="fill:#fbf4e8;stroke:#3a3632;stroke-linecap:round;stroke-linejoin:round;stroke-width:20px"/></g><polygon points="1661.74 907.87 772.98 681.3 266.72 946.14 294.93 1020.62 1453.11 1355.5 1502.19 1299.65 1688.48 968.61 1661.74 907.87" style="fill:#785d42;stroke:#3a3632;stroke-linecap:round;stroke-linejoin:round;stroke-width:20px"/><polygon points="266.72 946.14 1502.19 1299.65 1728.53 927.61 772.98 681.3 266.72 946.14" style="fill:#88715c;stroke:#3a3632;stroke-linecap:round;stroke-linejoin:round;stroke-width:10px"/><path d="M1799.21,830.15c-17.82-31.51-60.41-35.27-98.27-27.28-13.63-40-65.42-47.59-106-34.52-16.66-40.9-79.76-47.75-124-26-14.32-39.41-70.51-48.66-114.42-32.27-15.75-39.56-74.66-47.58-118.63-28.88-16.71-38.13-74.59-45.66-117.94-27.23-16.71-38.12-74.59-45.66-117.94-27.22C985.11,588.17,925.92,581,882.4,600.32c-17-46-85.53-47.69-126.25-24-1.23-.33-2.47-.63-3.72-.89-20.27-4.22-76.82-1.76-87.2,35.36a114.55,114.55,0,0,0-26.69.38c-19.75,2.8-39.18,13.11-46.81,29.52-4,8.68-6.3,17.05-5.54,24.41a118.24,118.24,0,0,0-30.48,0c-19.76,2.79-39.18,13.11-46.81,29.52-4.09,8.79-6.37,17.26-5.52,24.69a121.15,121.15,0,0,0-32.72-.3c-19.75,2.79-39.18,13.11-46.81,29.52-3.92,8.43-6.17,16.57-5.59,23.77a112.16,112.16,0,0,0-23.81.62c-19.75,2.79-39.18,13.1-46.81,29.51a63.73,63.73,0,0,0-5.11,15.31,112,112,0,0,0-24.28.58c-19.76,2.79-39.19,13.1-46.81,29.51a34,34,0,0,0-3.05,16.27c-44.6,8.18-60.84,35.05-56.72,53.56,3.88,17.41,20.67,30.89,39.43,37s39.34,6.11,59.3,4.94l2-.12a37.4,37.4,0,0,0,1.45,6.11c6.44,19.44,27.09,33.22,49.13,38.49,16.42,3.94,47.22,4.83,76-2.67,6.78,18.94,27.11,32.37,48.8,37.56,16.42,3.93,47.21,4.82,76-2.68,6.78,19,27.11,32.37,48.79,37.56,16.42,3.93,47.22,4.82,76-2.67,6.78,18.94,27.11,32.36,48.8,37.55,16.42,3.94,47.21,4.83,76-2.67,6.78,18.94,27.11,32.37,48.79,37.56,16.42,3.93,47.22,4.82,76-2.68,6.78,19,27.11,32.37,48.8,37.56,16.42,3.93,47.21,4.82,76-2.67,6.78,18.94,27.11,32.36,48.79,37.55,16.42,3.94,47.22,4.83,76-2.67,6.78,18.94,27.11,32.37,48.8,37.56,16.42,3.93,47.21,4.82,76-2.68,6.78,19,27.11,32.37,48.79,37.56,17.54,4.2,51.48,4.93,81.86-4.33,27.41,41.25,106,32.9,127.36,11.94,18-17.59,26.45-42.11,24.11-64.71,45.69-7.61,61.59-41.35,66.1-63a55.05,55.05,0,0,0-.92-27.2c32-12.29,44.21-39.65,48.07-58.16a57.21,57.21,0,0,0,.41-21.77c28.19-13.12,39.26-38.49,42.9-56a48.74,48.74,0,0,0-.11-19.87c26.61-13.39,37.21-37.9,40.76-54.93,2.43-11.64,1.5-24.29-3.87-34.25C1805,878.94,1815.86,859.59,1799.21,830.15Z" style="fill:#ead39a;stroke:#3a3632;stroke-linecap:round;stroke-linejoin:round;stroke-width:20px"/></g></svg>