<svg xmlns="http://www.w3.org/2000/svg" viewBox="0 0 2000 2000"><g id="Layer_1" data-name="Layer 1"><ellipse cx="1000" cy="1164.77" rx="982.77" ry="504.92" style="fill:#fff;stroke:#3a3632;stroke-miterlimit:10;stroke-width:20px"/><polygon points="1027.48 1484.25 1843.14 1272.09 1843.14 966.54 1027.48 1132.58 1027.48 1484.25" style="fill:#e8cd9f;stroke:#3a3632;stroke-linecap:round;stroke-linejoin:round;stroke-width:20px;isolation:isolate;opacity:0.991999983787537"/><polygon points="1027.48 1484.25 610.25 1272.09 610.25 966.54 1027.48 1132.58 1027.48 1484.25" style="fill:#ecdaba;stroke:#3a3632;stroke-linecap:round;stroke-linejoin:round;stroke-width:20px;isolation:isolate;opacity:0.991999983787537"/><polygon points="610.25 966.54 1451.38 841.55 1843.14 966.54 1027.48 1132.58 610.25 966.54" style="fill:#f5e7d0;stroke:#3a3632;stroke-linecap:round;stroke-linejoin:round;stroke-width:20px"/><polygon points="1325.98 1159.08 546.75 962.23 546.75 678.75 1325.98 832.8 1325.98 1159.08" style="fill:#ecdaba;stroke:#3a3632;stroke-linecap:round;stroke-linejoin:round;stroke-width:20px;isolation:isolate;opacity:0.991999983787537"/><polygon points="1325.98 1159.08 1724.59 962.23 1724.59 678.75 1325.98 832.8 1325.98 1159.08" style="fill:#e8cd9f;stroke:#3a3632;stroke-linecap:round;stroke-linejoin:round;stroke-width:20px;isolation:isolate;opacity:0.991999983787537"/><polygon points="1724.59 678.75 921.02 562.78 546.75 678.75 1325.98 832.8 1724.59 678.75" style="fill:#f5e7d0;stroke:#3a3632;stroke-linecap:round;stroke-linejoin:round;stroke-width:20px"/><path d="M708.88,867.88s6.2,10.87,20.86,18.29c7.36,3.73,18.81,6.05,28.77,6.76" style="fill:none;stroke:#3a3632;stroke-linecap:round;stroke-linejoin:round;stroke-width:10px"/><path d="M629,1101.91s6.2,10.88,20.86,18.29c7.37,3.73,18.81,6,28.77,6.76" style="fill:none;stroke:#3a3632;stroke-linecap:round;stroke-linejoin:round;stroke-width:10px"/><path d="M1109.22,745.8s-8-9.64-23.72-14.4c-7.9-2.39-19.58-2.69-29.51-1.66" style="fill:none;stroke:#3a3632;stroke-linecap:round;stroke-linejoin:round;stroke-width:10px"/><path d="M939.72,682.61s-10.44-6.91-26.87-6.93c-8.25,0-19.52,3.08-28.72,6.93" style="fill:none;stroke:#3a3632;stroke-linecap:round;stroke-linejoin:round;stroke-width:10px"/><path d="M1503.44,712.23s-8-9.64-23.71-14.4c-7.91-2.39-19.59-2.69-29.51-1.65" style="fill:none;stroke:#3a3632;stroke-linecap:round;stroke-linejoin:round;stroke-width:10px"/><path d="M1381.9,893.33s10.44,6.92,26.87,6.93c8.26,0,19.52-3.08,28.72-6.93" style="fill:none;stroke:#3a3632;stroke-linecap:round;stroke-linejoin:round;stroke-width:10px"/><path d="M1381.9,1029.56s10.44,6.92,26.87,6.94c8.26,0,19.52-3.08,28.72-6.94" style="fill:none;stroke:#3a3632;stroke-linecap:round;stroke-linejoin:round;stroke-width:10px"/><path d="M1505.43,840.88s12.49.78,26.74-7.41c7.16-4.12,15.37-12.42,21.42-20.35" style="fill:none;stroke:#3a3632;stroke-linecap:round;stroke-linejoin:round;stroke-width:10px"/><path d="M1629,776.29s12.5.77,26.74-7.42c7.16-4.11,15.37-12.41,21.42-20.35" style="fill:none;stroke:#3a3632;stroke-linecap:round;stroke-linejoin:round;stroke-width:10px"/><path d="M1452.75,964.69s12.5.78,26.74-7.41c7.16-4.12,15.37-12.42,21.42-20.36" style="fill:none;stroke:#3a3632;stroke-linecap:round;stroke-linejoin:round;stroke-width:10px"/><path d="M1625.35,863.29s10.06,7.46,26.47,8.35c8.24.44,19.65-2,29-5.41" style="fill:none;stroke:#3a3632;stroke-linecap:round;stroke-linejoin:round;stroke-width:10px"/><path d="M1576.61,946.62s10.05,7.46,26.46,8.34c8.24.45,19.66-2,29-5.4" style="fill:none;stroke:#3a3632;stroke-linecap:round;stroke-linejoin:round;stroke-width:10px"/><path d="M1484,1153.68s9.36,8.32,25.62,10.65c8.18,1.17,19.77-.3,29.42-2.82" style="fill:none;stroke:#3a3632;stroke-linecap:round;stroke-linejoin:round;stroke-width:10px"/><path d="M1464.82,1288.56s9.35,8.31,25.62,10.65c8.17,1.17,19.76-.3,29.42-2.82" style="fill:none;stroke:#3a3632;stroke-linecap:round;stroke-linejoin:round;stroke-width:10px"/><path d="M1613.7,1119.16s12.26,2.54,27.51-3.57c7.67-3.06,17-10.12,24.08-17.13" style="fill:none;stroke:#3a3632;stroke-linecap:round;stroke-linejoin:round;stroke-width:10px"/><path d="M1072.33,1182.38s12.27,2.53,27.52-3.57c7.67-3.07,17-10.13,24.08-17.13" style="fill:none;stroke:#3a3632;stroke-linecap:round;stroke-linejoin:round;stroke-width:10px"/><path d="M1745.17,1072.63s12.26,2.53,27.52-3.57c7.66-3.07,17-10.13,24.08-17.13" style="fill:none;stroke:#3a3632;stroke-linecap:round;stroke-linejoin:round;stroke-width:10px"/><path d="M1544.1,1234.31s12.26,2.53,27.52-3.57c7.66-3.06,17-10.13,24.08-17.13" style="fill:none;stroke:#3a3632;stroke-linecap:round;stroke-linejoin:round;stroke-width:10px"/><path d="M1260.49,1384.86s12.26,2.53,27.52-3.57c7.66-3.06,17-10.12,24.08-17.13" style="fill:none;stroke:#3a3632;stroke-linecap:round;stroke-linejoin:round;stroke-width:10px"/><path d="M1286.29,1284.68s9.36,8.32,25.62,10.65c8.17,1.17,19.76-.3,29.42-2.81" style="fill:none;stroke:#3a3632;stroke-linecap:round;stroke-linejoin:round;stroke-width:10px"/><path d="M1369.91,1223.14s12.26,2.53,27.51-3.57c7.67-3.06,17-10.12,24.08-17.13" style="fill:none;stroke:#3a3632;stroke-linecap:round;stroke-linejoin:round;stroke-width:10px"/><path d="M1729.27,1158.25s8.91,8.8,25,12c8.1,1.6,19.75.75,29.53-1.26" style="fill:none;stroke:#3a3632;stroke-linecap:round;stroke-linejoin:round;stroke-width:10px"/><path d="M1669.27,1233.87s8.9,8.8,25,12c8.1,1.61,19.75.75,29.53-1.25" style="fill:none;stroke:#3a3632;stroke-linecap:round;stroke-linejoin:round;stroke-width:10px"/><path d="M1174,1213.53s12.26,2.53,27.51-3.57c7.67-3.07,17-10.13,24.08-17.14" style="fill:none;stroke:#3a3632;stroke-linecap:round;stroke-linejoin:round;stroke-width:10px"/><path d="M1158.13,1299.15s8.91,8.8,25,12c8.1,1.6,19.75.74,29.52-1.26" style="fill:none;stroke:#3a3632;stroke-linecap:round;stroke-linejoin:round;stroke-width:10px"/><path d="M1098.13,1374.77s8.91,8.8,25,12c8.1,1.6,19.75.75,29.53-1.26" style="fill:none;stroke:#3a3632;stroke-linecap:round;stroke-linejoin:round;stroke-width:10px"/><path d="M1014.88,620.52s-8-9.63-23.72-14.39c-7.91-2.4-19.58-2.69-29.51-1.66" style="fill:none;stroke:#3a3632;stroke-linecap:round;stroke-linejoin:round;stroke-width:10px"/><path d="M1327.56,762.41s-8-9.63-23.72-14.39c-7.91-2.4-19.58-2.69-29.51-1.66" style="fill:none;stroke:#3a3632;stroke-linecap:round;stroke-linejoin:round;stroke-width:10px"/><path d="M1135.83,676.74s-8-9.64-23.72-14.4c-7.9-2.39-19.58-2.69-29.5-1.66" style="fill:none;stroke:#3a3632;stroke-linecap:round;stroke-linejoin:round;stroke-width:10px"/><path d="M1302.05,677.47s-9.89-7.68-26.27-8.94c-8.23-.63-19.7,1.61-29.17,4.76" style="fill:none;stroke:#3a3632;stroke-linecap:round;stroke-linejoin:round;stroke-width:10px"/><path d="M761.41,677.47s-9.89-7.68-26.27-8.94c-8.23-.63-19.7,1.61-29.17,4.76" style="fill:none;stroke:#3a3632;stroke-linecap:round;stroke-linejoin:round;stroke-width:10px"/><path d="M844.72,969.3s10.22,7.23,26.64,7.74c8.26.26,19.61-2.48,28.93-6.06" style="fill:none;stroke:#3a3632;stroke-linecap:round;stroke-linejoin:round;stroke-width:10px"/><path d="M779,807.68s6.79,10.53,21.83,17.14c7.55,3.32,19.11,5,29.09,5.18" style="fill:none;stroke:#3a3632;stroke-linecap:round;stroke-linejoin:round;stroke-width:10px"/><path d="M910.91,1153.58s6.78,10.52,21.82,17.14c7.56,3.32,19.11,5,29.09,5.18" style="fill:none;stroke:#3a3632;stroke-linecap:round;stroke-linejoin:round;stroke-width:10px"/><path d="M910.92,805.69s8.81,8.9,24.89,12.26c8.08,1.7,19.74,1,29.54-.93" style="fill:none;stroke:#3a3632;stroke-linecap:round;stroke-linejoin:round;stroke-width:10px"/><path d="M1021.29,976.69s8.81,8.9,24.89,12.26c8.08,1.7,19.74,1,29.54-.93" style="fill:none;stroke:#3a3632;stroke-linecap:round;stroke-linejoin:round;stroke-width:10px"/><path d="M852.77,1269.85s8.81,8.89,24.89,12.26c8.08,1.7,19.74,1,29.54-.93" style="fill:none;stroke:#3a3632;stroke-linecap:round;stroke-linejoin:round;stroke-width:10px"/><path d="M1175.23,845.09s8.81,8.9,24.89,12.27c8.08,1.69,19.74,1,29.54-.93" style="fill:none;stroke:#3a3632;stroke-linecap:round;stroke-linejoin:round;stroke-width:10px"/><path d="M1219.91,1038.82s8.8,8.9,24.88,12.26c8.08,1.7,19.74,1,29.54-.93" style="fill:none;stroke:#3a3632;stroke-linecap:round;stroke-linejoin:round;stroke-width:10px"/><path d="M929.47,1360.15s11,6,27.38,4.5c8.22-.73,19.16-4.82,28-9.48" style="fill:none;stroke:#3a3632;stroke-linecap:round;stroke-linejoin:round;stroke-width:10px"/><path d="M594.25,771.77s10.23,7.21,26.66,7.69c8.25.24,19.6-2.53,28.91-6.13" style="fill:none;stroke:#3a3632;stroke-linecap:round;stroke-linejoin:round;stroke-width:10px"/><path d="M1146.85,969.66s10.41,7,26.84,7c8.26,0,19.53-3,28.75-6.83" style="fill:none;stroke:#3a3632;stroke-linecap:round;stroke-linejoin:round;stroke-width:10px"/><path d="M602.23,905.32s7.12,10.3,22.37,16.43c7.66,3.08,19.27,4.4,29.24,4.24" style="fill:none;stroke:#3a3632;stroke-linecap:round;stroke-linejoin:round;stroke-width:10px"/><path d="M811.47,1172.67s6.2,10.88,20.85,18.3c7.37,3.72,18.82,6,28.77,6.75" style="fill:none;stroke:#3a3632;stroke-linecap:round;stroke-linejoin:round;stroke-width:10px"/><path d="M705.91,1058.69s10.23,7.2,26.66,7.68c8.25.24,19.6-2.53,28.91-6.12" style="fill:none;stroke:#3a3632;stroke-linecap:round;stroke-linejoin:round;stroke-width:10px"/><path d="M704.82,1210.12s7.12,10.3,22.37,16.42c7.66,3.08,19.26,4.4,29.24,4.24" style="fill:none;stroke:#3a3632;stroke-linecap:round;stroke-linejoin:round;stroke-width:10px"/><g id="g901"><g id="g1298"><path id="path1292" d="M555.81,1373.4c0,27.81-49.09,50.37-109.64,50.37h0c-60.56,0-109.65-22.56-109.65-50.37h0c0-27.82,49.09-50.37,109.65-50.37h0c60.55,0,109.64,22.55,109.64,50.37h0" style="fill:#fff;stroke:#3a3632;stroke-linecap:round;stroke-linejoin:round;stroke-width:20px"/><path id="path1294" d="M555.81,1374.53v-151.4L336.63,1222v151.4" style="fill:#fff;stroke:#3a3632;stroke-linecap:round;stroke-linejoin:round;stroke-width:20px"/><path id="path1296" d="M555.81,1219.21c0,27.82-49.09,50.37-109.64,50.37S336.52,1247,336.52,1219.21s49.09-50.37,109.65-50.37S555.81,1191.39,555.81,1219.21Z" style="fill:#fff;stroke:#3a3632;stroke-linecap:round;stroke-linejoin:round;stroke-width:10px"/></g><g id="g1314"><g id="g1335"><path id="path1308" d="M550.42,1444.11c-27.79,1.32-52.63-46.65-55.5-107.14h0c-2.86-60.49,17.35-110.59,45.13-111.9h0c27.79-1.32,52.64,46.65,55.5,107.14h0c2.86,60.49-17.35,110.59-45.13,111.9h0" style="fill:#fff;stroke:#3a3632;stroke-linecap:round;stroke-linejoin:round;stroke-width:20px"/><path id="path1310" d="M549.29,1444.17,700.51,1437l-9.23-219-151.22,7.16" style="fill:#fff;stroke:#3a3632;stroke-linecap:round;stroke-linejoin:round;stroke-width:20px"/><path id="path1312" d="M704.43,1436.83c-27.78,1.31-52.63-46.66-55.49-107.15s17.34-110.58,45.13-111.9,52.63,46.66,55.49,107.14S732.22,1435.51,704.43,1436.83Z" style="fill:#fff;stroke:#3a3632;stroke-linecap:round;stroke-linejoin:round;stroke-width:20px"/></g></g><g id="g1322"><path id="path1316" d="M586.31,1129.15c22.79,15.95,13.14,69.1-21.56,118.72h0c-34.7,49.63-81.31,76.93-104.11,61h0c-22.79-15.94-13.14-69.1,21.56-118.72h0c34.71-49.62,81.32-76.93,104.12-61h0" style="fill:#fff;stroke:#3a3632;stroke-linecap:round;stroke-linejoin:round;stroke-width:20px"/><path id="path1318" d="M587.23,1129.8,463.17,1043,336.63,1222l124.06,86.76" style="fill:#fff;stroke:#3a3632;stroke-linecap:round;stroke-linejoin:round;stroke-width:20px"/><path id="path1320" d="M460,1040.79c22.8,15.94,13.14,69.09-21.56,118.72s-81.32,76.93-104.11,61-13.15-69.09,21.56-118.72S437.16,1024.85,460,1040.79Z" style="fill:#fff;stroke:#3a3632;stroke-linecap:round;stroke-linejoin:round;stroke-width:20px"/></g><g id="g1330"><path id="path1324" d="M403.62,1422.19c0,27.82-49.09,50.37-109.64,50.37h0c-60.56,0-109.65-22.55-109.65-50.37h0c0-27.82,49.09-50.37,109.65-50.37h0c60.55,0,109.64,22.55,109.64,50.37h0" style="fill:#fff;stroke:#3a3632;stroke-linecap:round;stroke-linejoin:round;stroke-width:20px"/><path id="path1326" d="M403.62,1423.32V1271.93l-219.18-1.13v151.39" style="fill:#fff;stroke:#3a3632;stroke-linecap:round;stroke-linejoin:round;stroke-width:20px"/><path id="path1328" d="M403.62,1268c0,27.82-49.09,50.37-109.64,50.37S184.33,1295.82,184.33,1268s49.09-50.37,109.65-50.37S403.62,1240.18,403.62,1268Z" style="fill:#fff;stroke:#3a3632;stroke-linecap:round;stroke-linejoin:round;stroke-width:20px"/></g></g></g></svg>