<svg xmlns="http://www.w3.org/2000/svg" xmlns:xlink="http://www.w3.org/1999/xlink" viewBox="0 0 2000 2000"><defs><linearGradient id="linear-gradient" x1="-299.93" y1="3845.02" x2="-298.79" y2="3762.2" gradientTransform="translate(-1612.85 -1859.72) rotate(-45.53)" gradientUnits="userSpaceOnUse"><stop offset="0" stop-color="#53804a"/><stop offset="1" stop-color="#006838"/></linearGradient><linearGradient id="linear-gradient-2" x1="-254.88" y1="3845.64" x2="-253.75" y2="3762.81" xlink:href="#linear-gradient"/><linearGradient id="linear-gradient-3" x1="-5079.99" y1="-9020.3" x2="-5078.85" y2="-9103.12" gradientTransform="translate(-5945.96 8504.41) rotate(71.75)" xlink:href="#linear-gradient"/><linearGradient id="linear-gradient-4" x1="-5034.94" y1="-9019.68" x2="-5033.81" y2="-9102.5" gradientTransform="translate(-5945.96 8504.41) rotate(71.75)" xlink:href="#linear-gradient"/></defs><g id="Layer_1" data-name="Layer 1"><ellipse cx="1000" cy="1164.77" rx="982.77" ry="504.92" style="fill:#fff;stroke:#3a3632;stroke-miterlimit:10;stroke-width:20px"/><polygon points="1419.05 904.54 1169.54 675.96 798.2 675.96 548.7 904.54 548.7 1133.33 721.12 1437.93 1246.63 1437.93 1419.05 1133.33 1419.05 904.54" style="fill:#ead39a;stroke:#3a3632;stroke-miterlimit:10;stroke-width:20px"/><polygon points="1169.54 675.96 798.2 675.96 548.7 904.54 721.12 1210.86 1246.63 1210.86 1419.05 904.54 1169.54 675.96" style="fill:#f9f1c0;stroke:#3a3632;stroke-miterlimit:10;stroke-width:20px"/><path d="M1338.08,938.19c-8.73,12.85-17.52,25.89-19.46,40.89-2.5,19.32,6.82,39.79.12,58-11.83,32.17-59.7,28.69-80.81,55.2-9,11.37-12.43,27.6-23.89,36.3-13.52,10.25-29.64,5.82-44.27,1.93-15.2-4-31.71,2.23-44.42,10.4-15.79,10.14-29.51,23.94-47.06,30.55a65.8,65.8,0,0,1-61.34-8.6c-16.22-12-31.85-33.06-51.13-27-16.42,5.15-21.46,27.25-36.76,35.14-23.85,12.31-44.68-12.77-59.48-27.35-7.43-7.32-15.55-10-25.2-5.24-5.11,2.51-9.61,6.2-14,9.72-10.18,8.09-20.31,14.9-33.91,12.81A35.6,35.6,0,0,1,772,1145.31c-7.27-11.37-7.86-25.86-12.12-38.79l0-.06a37.08,37.08,0,0,0-36.42-25.58c-11.38.4-22.26,4.94-33.67,5.11-16,.24-31.41-9.9-39.75-24.21-8.87-15.21-10-33.84-6.12-50.86,4.28-18.59,9.27-37.74,9.63-56.88a52.53,52.53,0,0,0-4-22c-6.3-15.1-17-27.64-24.57-42-12.78-24.26-13.1-57.66,5.79-77.1,14.12-14.54,35.78-18.74,50-33.15,12.45-12.59,17.36-30.92,24.12-47.57,11.58-28.51,29.47-38.67,55.87-42.94,13.25-2.15,25-8.85,35.14-17.8,18.81-16.55,36.41-44.57,63.51-45.51,17.86-.62,34.28,12.18,52.14,11.53,18.53-.67,33.36-15.25,48.84-25.88s38.17-16.92,51.09-3c9.72,10.44,10.06,29,22.08,36.34,15.51,9.52,32.81-7.4,47.82-17.76a72.08,72.08,0,0,1,69.84-6.33c16.46,7.49,29.87,21.63,37.38,38.59,4.24,9.57,2,9.67,1.61,18s6.69,16.09,13.76,18.85c9.43,3.67,19.86,2.23,29.9,3a68.53,68.53,0,0,1,36.58,14.21c5,3.9,9.68,8.73,11.8,14.88,1.89,5.49,1.58,11.49,1.5,17.33a200.63,200.63,0,0,0,6.25,52.29c2,7.85,3.76,16.75,8.83,23.06,5.29,6.59,11.79,12.06,18.24,17.35,16.16,13.26,37.58,27.12,40.16,50.5C1359.26,907.17,1348.71,922.54,1338.08,938.19Z" style="fill:#fff069;stroke:#3a3632;stroke-miterlimit:10;stroke-width:20px"/><path d="M1231.46,1294.42c-58.62,7.95-117.92,9.72-177,10-59.06-.24-118.37-2-177-10,58.61-8,117.92-9.76,177-10,59.07.28,118.37,2,177,10Z" style="fill:#3a3632"/><path d="M759,1358.81c21.8-4.18,43.92-6.25,66-7.83,60.49-3.72,121.36-3.14,181.49,5,5.5.8,11,1.67,16.5,2.79-5.5,1.12-11,2-16.5,2.79-60.13,8.19-121,8.76-181.49,5.05-22.08-1.59-44.2-3.65-66-7.84Z" style="fill:#3a3632"/><path d="M1317.15,1194.15c6.86-36.42,30.74-78.41,55.42-105.87a122.09,122.09,0,0,1,12.78-12.32,120.81,120.81,0,0,1-4.27,17.23c-11.4,35.07-35.84,76.81-63.93,101Z" style="fill:#3a3632"/><path d="M695.82,1294.42c-24.75-27.39-44.79-58.7-63.26-90.5-15.9-27.93-30.4-56.85-41.5-87.11-1.58-4.37-3.09-8.78-4.4-13.32,3.25,3.43,6.28,7,9.24,10.55,20.46,24.91,38,52.08,54,80,18,32,34.86,65.2,45.9,100.43Z" style="fill:#3a3632"/><polygon points="922.42 1074.04 806.03 957.77 732.42 831.78 732.42 831.78 859.75 903.06 981.44 1020.47 922.42 1074.04" style="fill:#538049;stroke:#3a3632;stroke-linejoin:round;stroke-width:10px"/><path d="M787.1,857.91c-9.27-12.44-19.92-25.14-32.7-34-21-14.52-39.31-13.34-39.84-12.4-.93.55-1.77,18.9,13.13,39.61,9.07,12.6,22,23,34.57,32.06" style="fill:#006838;stroke:#3a3632;stroke-linecap:round;stroke-linejoin:round;stroke-width:10px"/><path d="M808.38,901.3c-10.42-11.79-22.27-23.73-35.89-31.64-22.38-13-40.7-10.44-41.15-9.46-.88.62-.08,19.1,16.74,38.76,10.25,12,24.14,21.46,37.61,29.58" style="fill:#006838;stroke:#3a3632;stroke-linecap:round;stroke-linejoin:round;stroke-width:10px"/><path d="M838.1,885c-9.38-14.17-20.22-28.8-33.35-39.63-21.57-17.79-40.74-18.79-41.32-17.87-1,.47-2.29,19.62,12.79,43.17,9.18,14.33,22.4,26.84,35.35,37.85" style="fill:#006838;stroke:#3a3632;stroke-linecap:round;stroke-linejoin:round;stroke-width:10px"/><path d="M848.58,921c-9.26-12.44-19.92-25.14-32.69-34-21-14.52-39.32-13.34-39.85-12.41-.93.56-1.77,18.91,13.13,39.62,9.07,12.6,22,23,34.57,32.06" style="fill:#006838;stroke:#3a3632;stroke-linecap:round;stroke-linejoin:round;stroke-width:10px"/><path d="M866,968.91c-12.71-12.48-27-25.14-42.66-33.58C797.54,921.47,778,924,777.67,925c-.88.64,2.23,20.06,22.82,40.86,12.53,12.67,28.71,22.77,44.27,31.43" style="fill:#006838;stroke:#3a3632;stroke-linecap:round;stroke-linejoin:round;stroke-width:10px"/><path d="M914.88,957.54c-9-14.28-22.33-39.65-44.92-58.44-21.35-17.76-40.16-19.4-40.76-18.5-1,.45-2.75,19.5,11.72,43.21,8.81,14.43,34.31,45.52,47,56.7" style="fill:#006838;stroke:#3a3632;stroke-linecap:round;stroke-linejoin:round;stroke-width:10px"/><path d="M899.49,971c-9.27-12.44-19.92-25.14-32.69-34-21-14.52-39.32-13.34-39.85-12.41-.93.56-1.77,18.91,13.13,39.62,9.07,12.6,22,23,34.57,32.06" style="fill:#006838;stroke:#3a3632;stroke-linecap:round;stroke-linejoin:round;stroke-width:10px"/><path d="M922.42,1016.4c-10.35-11.62-22.18-23.27-36-30.42-22.76-11.74-42-7.22-42.48-6.12-.94.75-.91,20.48,15.77,39.92,10.16,11.83,24.22,20.65,37.91,28" style="stroke:#3a3632;stroke-linecap:round;stroke-linejoin:round;stroke-width:10px;fill:url(#linear-gradient)"/><path d="M962.94,1003.82c-7.43-13.65-16.27-27.7-28-37.93-19.28-16.81-38.63-17.18-39.36-16.25-1.07.49-5.25,19.39,6.57,42.07,7.2,13.81,18.79,25.7,30.32,36.12" style="stroke:#3a3632;stroke-linecap:round;stroke-linejoin:round;stroke-width:10px;fill:url(#linear-gradient-2)"/><polygon points="1005.22 844.06 1161.89 793.89 1307.61 786.2 1307.61 786.2 1185.91 866.71 1025.79 921.07 1005.22 844.06" style="fill:#538049;stroke:#3a3632;stroke-linejoin:round;stroke-width:10px"/><path d="M1259.33,822.82c15.3-2.53,31.47-6.19,45.18-13.49,22.52-12,29.87-28.83,29.28-29.73-.06-1.08-16-10.24-41.22-6.48-15.37,2.28-30.54,9-44.34,16" style="fill:#006838;stroke:#3a3632;stroke-linecap:round;stroke-linejoin:round;stroke-width:10px"/><path d="M1211,821.85c15.25-3.86,31.29-8.91,44.56-17.4,21.81-13.93,27.93-31.39,27.27-32.24-.15-1.07-16.94-8.82-42.13-2.88-15.33,3.62-30.13,11.62-43.52,19.88" style="fill:#006838;stroke:#3a3632;stroke-linecap:round;stroke-linejoin:round;stroke-width:10px"/><path d="M1211.92,855.76c16.9-1.85,34.86-4.77,50.5-11.48,25.7-11,35.38-27.61,34.82-28.54,0-1.09-16.39-11-44.23-8.42-16.94,1.59-34.12,7.62-49.84,14.08" style="fill:#006838;stroke:#3a3632;stroke-linecap:round;stroke-linejoin:round;stroke-width:10px"/><path d="M1175.1,848.57c15.3-2.54,31.47-6.19,45.18-13.49,22.51-12,29.87-28.83,29.28-29.74-.06-1.08-16-10.23-41.23-6.48-15.36,2.29-30.53,9-44.33,16" style="fill:#006838;stroke:#3a3632;stroke-linecap:round;stroke-linejoin:round;stroke-width:10px"/><path d="M1124.52,842.08c16.91-5.57,34.7-12.45,49.39-22.54,24.14-16.56,30.85-35,30.1-35.84-.17-1.08-18.85-7.21-46.78,1.55-17,5.34-33.39,15.09-48.21,25" style="fill:#006838;stroke:#3a3632;stroke-linecap:round;stroke-linejoin:round;stroke-width:10px"/><path d="M1112.22,890.75c16.82-1.47,45.48-1.68,72.53-13.15,25.57-10.84,35.65-26.81,35.12-27.76.06-1.08-16.07-11.38-43.77-9.37-16.87,1.21-56.18,9.63-71.93,15.75" style="fill:#006838;stroke:#3a3632;stroke-linecap:round;stroke-linejoin:round;stroke-width:10px"/><path d="M1107.35,870.91c15.3-2.53,31.47-6.18,45.18-13.49,22.51-12,29.87-28.83,29.28-29.73-.07-1.08-16-10.23-41.23-6.48-15.36,2.29-30.53,9-44.33,16" style="fill:#006838;stroke:#3a3632;stroke-linecap:round;stroke-linejoin:round;stroke-width:10px"/><path d="M1056.46,870.47c15.06-3.87,30.84-9.05,43.54-18.09,20.87-14.84,25.65-34,24.91-35-.24-1.19-17.79-10.2-42.71-4.28-15.17,3.61-29.45,12.07-42.29,20.86" style="stroke:#3a3632;stroke-linecap:round;stroke-linejoin:round;stroke-width:10px;fill:url(#linear-gradient-3)"/><path d="M1049.06,912.25c15.54-.34,32.08-1.76,46.55-7.51,23.78-9.43,33-26.47,32.49-27.54.05-1.17-14.83-13.55-40.41-13.43-15.58.07-31.45,4.92-46,10.39" style="stroke:#3a3632;stroke-linecap:round;stroke-linejoin:round;stroke-width:10px;fill:url(#linear-gradient-4)"/><path d="M825.19,691.11c14.41-8.13,31.69-8.88,48.23-9.44,10.86-.37,14.43,4.32,18.47,13.75,3.71,8.66,6.87,18,6,27.49-1.1,11.76-6.13,24.16-16.68,30.36s-23.45,5.43-34.88,3.29c-14.31-2.69-31.59-7.81-38.7-21.82C799.34,718.45,810.66,699.3,825.19,691.11Z" style="fill:#be1e2d;stroke:#3a3632;stroke-linejoin:round;stroke-width:10px"/><path d="M1088.45,999.07c14.42-8.13,31.69-8.89,48.23-9.44,10.86-.37,14.44,4.32,18.48,13.75,3.7,8.66,6.86,18,6,27.49-1.09,11.76-6.12,24.16-16.67,30.36s-23.46,5.43-34.89,3.28c-14.31-2.68-31.59-7.8-38.7-21.81C1062.61,1026.41,1073.93,1007.26,1088.45,999.07Z" style="fill:#be1e2d;stroke:#3a3632;stroke-linejoin:round;stroke-width:10px"/></g></svg>