<svg xmlns="http://www.w3.org/2000/svg" viewBox="0 0 2000 2000"><g id="Layer_1" data-name="Layer 1"><path d="M1229.77,533c0-123-233.31-288.12-413.91-288.12S402,406.75,402,533c0,159.13,185.32,113.14,413.91,113.14S1229.77,692.16,1229.77,533Z" style="fill:#b88269;stroke:#3a3632;stroke-miterlimit:10;stroke-width:20px"/><path d="M1111,973.7,1210,643.09l-65.7-48.45-65.69,48.45L1013,594.64l-65.69,48.45-65.7-48.45-65.7,48.45-65.69-48.45-65.7,48.45-65.7-48.45-65.69,48.45-65.7-48.45-65.69,48.45L520.76,973.7a30.39,30.39,0,0,0,29.11,21.67h532A30.4,30.4,0,0,0,1111,973.7Z" style="fill:#fff;stroke:#3a3632;stroke-miterlimit:10;stroke-width:20px"/><line x1="815.86" y1="643.09" x2="815.86" y2="995.37" style="fill:none;stroke:#3a3632;stroke-miterlimit:10;stroke-width:20px"/><line x1="947.26" y1="643.09" x2="912.07" y2="995.37" style="fill:none;stroke:#3a3632;stroke-miterlimit:10;stroke-width:20px"/><line x1="1078.65" y1="643.09" x2="1008.27" y2="995.37" style="fill:none;stroke:#3a3632;stroke-miterlimit:10;stroke-width:20px"/><line x1="684.47" y1="643.09" x2="719.66" y2="995.37" style="fill:none;stroke:#3a3632;stroke-miterlimit:10;stroke-width:20px"/><line x1="553.08" y1="643.09" x2="623.46" y2="995.37" style="fill:none;stroke:#3a3632;stroke-miterlimit:10;stroke-width:20px"/><path d="M1865,852.59c0-140.54-266.65-329.29-473-329.29s-473,185-473,329.29c0,181.86,211.79,129.3,473,129.3S1865,1034.45,1865,852.59Z" style="fill:#b88269;stroke:#3a3632;stroke-miterlimit:10;stroke-width:20px"/><path d="M1729.22,1356.21l113.23-377.84L1767.37,923l-75.08,55.38L1617.21,923l-75.09,55.38L1467,923,1392,978.37,1316.88,923l-75.08,55.38L1166.72,923l-75.08,55.38L1016.55,923l-75.08,55.38,113.23,377.84A34.73,34.73,0,0,0,1088,1381h608A34.72,34.72,0,0,0,1729.22,1356.21Z" style="fill:#fff;stroke:#3a3632;stroke-miterlimit:10;stroke-width:20px"/><line x1="1391.96" y1="978.37" x2="1391.96" y2="1380.97" style="fill:none;stroke:#3a3632;stroke-miterlimit:10;stroke-width:20px"/><line x1="1542.12" y1="978.37" x2="1501.91" y2="1380.97" style="fill:none;stroke:#3a3632;stroke-miterlimit:10;stroke-width:20px"/><line x1="1692.29" y1="978.37" x2="1611.85" y2="1380.97" style="fill:none;stroke:#3a3632;stroke-miterlimit:10;stroke-width:20px"/><line x1="1241.8" y1="978.37" x2="1282.01" y2="1380.97" style="fill:none;stroke:#3a3632;stroke-miterlimit:10;stroke-width:20px"/><line x1="1091.64" y1="978.37" x2="1172.07" y2="1380.97" style="fill:none;stroke:#3a3632;stroke-miterlimit:10;stroke-width:20px"/><path d="M1317.6,1116.31c0-175.66-333.31-411.61-591.3-411.61S135,935.91,135,1116.31c0,227.33,264.73,161.63,591.3,161.63S1317.6,1343.64,1317.6,1116.31Z" style="fill:#b88269;stroke:#3a3632;stroke-miterlimit:10;stroke-width:20px"/><path d="M1147.87,1745.85l141.54-472.31-93.85-69.22-93.85,69.22-93.86-69.22L914,1273.54l-93.85-69.22-93.85,69.22-93.85-69.22-93.86,69.22-93.85-69.22-93.85,69.22L257,1204.32l-93.85,69.22,141.53,472.31a43.42,43.42,0,0,0,41.59,31h760A43.41,43.41,0,0,0,1147.87,1745.85Z" style="fill:#fff;stroke:#3a3632;stroke-miterlimit:10;stroke-width:20px"/><line x1="726.3" y1="1273.54" x2="726.3" y2="1776.8" style="fill:none;stroke:#3a3632;stroke-miterlimit:10;stroke-width:20px"/><line x1="914" y1="1273.54" x2="863.73" y2="1776.8" style="fill:none;stroke:#3a3632;stroke-miterlimit:10;stroke-width:20px"/><line x1="1101.71" y1="1273.54" x2="1001.16" y2="1776.8" style="fill:none;stroke:#3a3632;stroke-miterlimit:10;stroke-width:20px"/><line x1="538.59" y1="1273.54" x2="588.87" y2="1776.8" style="fill:none;stroke:#3a3632;stroke-miterlimit:10;stroke-width:20px"/><line x1="350.89" y1="1273.54" x2="451.43" y2="1776.8" style="fill:none;stroke:#3a3632;stroke-miterlimit:10;stroke-width:20px"/><g id="layer1"><path id="path60" d="M1808.09,1627.1c33.24-67.23,30.7-117.36,30.7-138.72,0-253.26-134.44-387.69-360.09-366.09-69.27,7.14-81.36,35-111.55,52.85-21-15.09-92.42-46.56-136.91-52.85-238.85-20.4-372.08,115.23-372.08,366.09,0,224.45,183.64,406.89,490.91,406.89,72,0,133.78-3,194.45-27.61,122.31-49.59,204.77-119.65,264.57-240.56Z" style="fill:#c93c27;stroke:#3a3632;stroke-miterlimit:10;stroke-width:20px"/><path id="path924" d="M1110.05,1237.43c-12.61-14.47-85,58.37-135.89,155.51-29.42,47.63,81.25,127.49,86.86,42C1068,1338.3,1134.33,1264.62,1110.05,1237.43Z" style="fill:#fff"/></g><g id="layer2"><path id="path920" d="M1362.22,1150.58s-65.84-67.25-77-106.48c-1.4,14,1.4,64.45,26.62,100.87,0,0-114.88,5.61-130.29,22.42,0,0,107.87,16.81,134.49,2.8,0,0-12.61,93.86,5.61,124.68,0,0,51.83-81.25,46.23-103.67,0,0,124.68,35,158.31,25.22-9.81-16.81-99.47-54.64-131.69-53.24,36.1-15.89,60.24-63,60.24-63s-78.46,43.43-92.47,50.44Z" style="fill:#07a44a"/></g></g></svg>