<svg id="Layer_1" data-name="Layer 1" xmlns="http://www.w3.org/2000/svg" xmlns:xlink="http://www.w3.org/1999/xlink" viewBox="0 0 1333.6 2000"><defs><linearGradient id="linear-gradient" x1="619.02" y1="2022.14" x2="619.02" y2="-134.59" gradientTransform="translate(-371.16 506.79) rotate(-31.49)" gradientUnits="userSpaceOnUse"><stop offset="0" stop-color="#81be66"/><stop offset="1" stop-color="#006838"/></linearGradient><linearGradient id="linear-gradient-2" x1="568.13" y1="520.98" x2="570.72" y2="332.05" gradientTransform="translate(-371.16 506.79) rotate(-31.49)" gradientUnits="userSpaceOnUse"><stop offset="0" stop-color="#53804a"/><stop offset="1" stop-color="#006838"/></linearGradient><linearGradient id="linear-gradient-3" x1="572.69" y1="1173.32" x2="539.05" y2="981.81" gradientTransform="translate(-371.16 506.79) rotate(-31.49)" gradientUnits="userSpaceOnUse"><stop offset="0" stop-color="#6d9957"/><stop offset="1" stop-color="#006838"/></linearGradient><linearGradient id="linear-gradient-4" x1="670.88" y1="522.39" x2="673.47" y2="333.46" xlink:href="#linear-gradient-2"/><linearGradient id="linear-gradient-5" x1="671.51" y1="846.94" x2="692.21" y2="681.31" gradientTransform="translate(-371.16 506.79) rotate(-31.49)" gradientUnits="userSpaceOnUse"><stop offset="0" stop-color="#608c50"/><stop offset="1" stop-color="#006838"/></linearGradient></defs><polygon points="1303.02 1856.6 1126.7 1964.63 181.36 391.11 88.16 71.58 88.16 71.58 330.51 299.74 1303.02 1856.6" style="stroke:#3a3632;stroke-linejoin:round;stroke-width:20px;fill:url(#linear-gradient)"/><path d="M194.7,159.65C181.09,127,164.53,93,141.15,66.38,102.76,22.65,61.53,15.12,59.83,16.9c-2.36.7-14.37,40.86,7.15,94.92,13.11,32.92,35.87,63.11,58.77,90.07" style="fill:#006838;stroke:#3a3632;stroke-linecap:round;stroke-linejoin:round;stroke-width:20px"/><path d="M217.8,267.44c-16.54-31.85-36.15-64.83-61.92-89.87C113.54,136.43,71.6,132,70.05,133.87c-2.3.89-10.74,42.22,15.62,95,16,32.15,41.53,60.84,66.86,86.25" style="fill:#006838;stroke:#3a3632;stroke-linecap:round;stroke-linejoin:round;stroke-width:20px"/><path d="M292.61,247.73c-12.93-36.57-28.81-74.93-51.88-106.16C202.84,90.28,161,77.46,159.17,79.17c-2.43.49-15.91,42.16,4.43,102.6,12.38,36.8,34.72,71.79,57.3,103.33" style="fill:#006838;stroke:#3a3632;stroke-linecap:round;stroke-linejoin:round;stroke-width:20px"/><path d="M295.88,333.23c-13.62-32.65-30.18-66.65-53.56-93.27-38.39-43.73-79.62-51.27-81.32-49.49-2.36.71-14.36,40.86,7.16,94.93,13.1,32.91,35.87,63.11,58.77,90.07" style="fill:#006838;stroke:#3a3632;stroke-linecap:round;stroke-linejoin:round;stroke-width:20px"/><path d="M307.89,448.92c-21.21-34.64-45.77-70.54-75.84-97.9-49.39-44.93-93.93-50.18-95.31-48.11-2.31.94-6.16,45.63,27.89,103.06,20.73,35,50.93,66.27,80.58,94" style="fill:#006838;stroke:#3a3632;stroke-linecap:round;stroke-linejoin:round;stroke-width:20px"/><path d="M422.38,450.81c-12.05-36.59-27.48-100.11-67.07-154.18-37.43-51.11-78.16-65.15-80-63.48-2.44.44-16.87,41.64,2.05,102.09,11.51,36.81,50.75,119.72,72.56,151.47" style="fill:#006838;stroke:#3a3632;stroke-linecap:round;stroke-linejoin:round;stroke-width:20px"/><path d="M380.89,472c-13.62-32.65-30.18-66.65-53.55-93.27C288.94,335,247.72,327.45,246,329.24c-2.36.7-14.37,40.85,7.15,94.92,13.1,32.92,35.87,63.11,58.77,90.07" style="fill:#006838;stroke:#3a3632;stroke-linecap:round;stroke-linejoin:round;stroke-width:20px"/><path d="M406.5,585.22C390,553.79,370.29,521.47,343.58,498c-43.87-38.58-88.87-39.18-90.62-37-2.51,1.14-13.35,44.82,12.82,97.05,15.93,31.8,42.17,59.1,68.39,83" style="stroke:#3a3632;stroke-linecap:round;stroke-linejoin:round;stroke-width:20px;fill:url(#linear-gradient-2)"/><path d="M756.31,1175.71c-16.48-31.43-36.21-63.75-62.91-87.24-43.88-38.58-88.88-39.19-90.62-37-2.52,1.14-13.36,44.82,12.81,97,15.93,31.8,42.17,59.1,68.39,83" style="stroke:#3a3632;stroke-linecap:round;stroke-linejoin:round;stroke-width:20px;fill:url(#linear-gradient-3)"/><path d="M503.13,579.81c-8.89-34.33-20.68-70.3-41-99.44-33.37-47.87-76-59.38-78.12-57.74-2.63.5-22.34,40-8.72,96.75,8.29,34.55,27.35,67.25,47.11,96.69" style="stroke:#3a3632;stroke-linecap:round;stroke-linejoin:round;stroke-width:20px;fill:url(#linear-gradient-4)"/><path d="M690.82,875.06c-8.89-34.32-20.67-70.29-41-99.44-33.38-47.87-76-59.38-78.12-57.73-2.64.49-22.35,40-8.73,96.74,8.29,34.55,27.35,67.25,47.11,96.7" style="stroke:#3a3632;stroke-linecap:round;stroke-linejoin:round;stroke-width:20px;fill:url(#linear-gradient-5)"/></svg>