<svg id="Layer_1" data-name="Layer 1" xmlns="http://www.w3.org/2000/svg" viewBox="0 0 1524.67 2000"><path d="M1293.82,529.29C1232.9,396.66,1055.86,30,762.33,30S291.77,396.66,230.85,529.29,36,1000,36,1287.63C36,1687.74,361.17,1970,762.33,1970s726.38-282.26,726.38-682.37C1488.71,1000,1354.74,661.91,1293.82,529.29Z" style="fill:#505e29;stroke:#3a3632;stroke-miterlimit:10;stroke-width:20.5293569223174px"/><path d="M1222.39,490c-53.18-111.47-207.74-419.62-464-419.62S347.59,378.53,294.4,490,124.26,885.6,124.26,1127.33c0,336.28,283.91,573.5,634.14,573.5s634.13-237.22,634.13-573.5C1392.53,885.6,1275.58,601.46,1222.39,490Z" style="fill:#5c8431"/><ellipse cx="762.92" cy="191.58" rx="54.17" ry="39.3" style="fill:#809b5d;stroke:#3a3632;stroke-miterlimit:10;stroke-width:20.5293569223174px"/><path d="M207,933.18l3.31-3.1a18,18,0,0,0,.44-25.88l-10.34-10.35a18,18,0,0,1,9-30.35h0a18,18,0,0,0,9-30.35h0a18,18,0,0,1,9.05-30.35l14.31-3a18,18,0,0,0,13.79-21.9l-1.08-4.41" style="fill:none;stroke:#3a3632;stroke-linecap:round;stroke-miterlimit:10;stroke-width:10.2646784611587px;isolation:isolate;opacity:0.991999983787537"/><path d="M360.69,826.25l3.31-3.1a18,18,0,0,0,.44-25.88l-10.33-10.35a18,18,0,0,1,9-30.35h0a18,18,0,0,0,9-30.34h0a18,18,0,0,1,9-30.34l14.32-3A18,18,0,0,0,409.34,671l-1.08-4.41" style="fill:none;stroke:#3a3632;stroke-linecap:round;stroke-miterlimit:10;stroke-width:10.2646784611587px"/><path d="M568.33,687.26l3-3.37a18,18,0,0,0-1.78-25.82l-11.19-9.42a18,18,0,0,1,6.41-31h0a18,18,0,0,0,6.4-31h0a18,18,0,0,1,6.4-31l14-4.23a18,18,0,0,0,11.86-23l-1.45-4.3" style="fill:none;stroke:#3a3632;stroke-linecap:round;stroke-miterlimit:10;stroke-width:10.2646784611587px"/><path d="M439.54,522.45l3.87-2.36a18,18,0,0,0,5.65-25.26l-8-12.22a18,18,0,0,1,15-27.9h0a18,18,0,0,0,15-27.9h0a18,18,0,0,1,15-27.9l14.63-.05a18,18,0,0,0,17.93-18.67l-.16-4.53" style="fill:none;stroke:#3a3632;stroke-linecap:round;stroke-miterlimit:10;stroke-width:10.2646784611587px"/><path d="M414,1062.19l1.88,4.13a18,18,0,0,1-9.46,24.09l-13.5,5.63a18,18,0,0,0-3.2,31.51h0a18,18,0,0,1-3.21,31.5h0a18,18,0,0,0-3.21,31.5l12.09,8.24a18,18,0,0,1,4.41,25.51l-2.68,3.66" style="fill:none;stroke:#3a3632;stroke-linecap:round;stroke-miterlimit:10;stroke-width:10.2646784611587px"/><path d="M498.75,891.66l3.51-2.88A18,18,0,0,0,504.39,863l-9.64-11a18,18,0,0,1,11-29.69h0" style="fill:none;stroke:#3a3632;stroke-linecap:round;stroke-miterlimit:10;stroke-width:10.2646784611587px"/><path d="M260,1118.3h0a18,18,0,0,0,3.76-31.44h0a18,18,0,0,1,3.75-31.45l13.6-5.39a18,18,0,0,0,9.87-23.93l-1.81-4.16" style="fill:none;stroke:#3a3632;stroke-linecap:round;stroke-miterlimit:10;stroke-width:10.2646784611587px"/><path d="M328.69,599.07h0a18,18,0,0,0,3.75-31.44h0a18,18,0,0,1,3.76-31.44l13.6-5.4a18,18,0,0,0,9.87-23.93l-1.81-4.15" style="fill:none;stroke:#3a3632;stroke-linecap:round;stroke-miterlimit:10;stroke-width:10.2646784611587px"/><path d="M1208.2,576.41l-1.71,4.19a18,18,0,0,0,10.39,23.71l13.71,5.09a18,18,0,0,1,4.44,31.36h0a18,18,0,0,0,4.44,31.35h0a18,18,0,0,1,4.44,31.36l-11.76,8.7a18,18,0,0,0-3.4,25.66l2.82,3.55" style="fill:none;stroke:#3a3632;stroke-linecap:round;stroke-miterlimit:10;stroke-width:10.2646784611587px;isolation:isolate;opacity:0.991999983787537"/><path d="M1113.06,737.71l-1.72,4.2a18,18,0,0,0,10.39,23.7l13.72,5.1a18,18,0,0,1,4.44,31.35h0a18,18,0,0,0,4.44,31.36h0a18,18,0,0,1,4.44,31.35l-11.76,8.7a18,18,0,0,0-3.4,25.66l2.81,3.56" style="fill:none;stroke:#3a3632;stroke-linecap:round;stroke-miterlimit:10;stroke-width:10.2646784611587px"/><path d="M982.31,950.63,981,955a18,18,0,0,0,12.39,22.72l14.1,3.9a18,18,0,0,1,7.11,30.86h0a18,18,0,0,0,7.12,30.86h0a18,18,0,0,1,7.11,30.86l-11,9.68a18,18,0,0,0-1.19,25.85l3.11,3.3" style="fill:none;stroke:#3a3632;stroke-linecap:round;stroke-miterlimit:10;stroke-width:10.2646784611587px"/><path d="M1168.1,1046.71l-2.54,3.76a18,18,0,0,0,5.4,25.32l12.4,7.76a18,18,0,0,1-2,31.6h0a18,18,0,0,0-2,31.61h0a18,18,0,0,1-2,31.6l-13.27,6.15a18,18,0,0,0-8.51,24.45l2,4" style="fill:none;stroke:#3a3632;stroke-linecap:round;stroke-miterlimit:10;stroke-width:10.2646784611587px"/><path d="M966.24,545.49l-3.43-3a18,18,0,0,1-1.45-25.84l9.92-10.75a18,18,0,0,0-10.22-30h0a18,18,0,0,1-10.23-30h0a18,18,0,0,0-10.22-30l-14.43-2.45a18,18,0,0,1-14.64-21.34l.91-4.44" style="fill:none;stroke:#3a3632;stroke-linecap:round;stroke-miterlimit:10;stroke-width:10.2646784611587px"/><path d="M960.31,735.84l-2,4.08a18,18,0,0,0,8.82,24.33l13.35,6a18,18,0,0,1,2.38,31.58h0" style="fill:none;stroke:#3a3632;stroke-linecap:round;stroke-miterlimit:10;stroke-width:10.2646784611587px"/><path d="M1082.8,430.27h0a18,18,0,0,0,9.7,30.14h0a18,18,0,0,1,9.71,30.15l-10.11,10.57a18,18,0,0,0,1,25.86l3.38,3" style="fill:none;stroke:#3a3632;stroke-linecap:round;stroke-miterlimit:10;stroke-width:10.2646784611587px"/><path d="M1236.89,930.84h0a18,18,0,0,0,9.7,30.15h0a18,18,0,0,1,9.7,30.14l-10.11,10.58a18,18,0,0,0,1,25.86l3.38,3" style="fill:none;stroke:#3a3632;stroke-linecap:round;stroke-miterlimit:10;stroke-width:10.2646784611587px"/><path d="M1364.69,1342.75l-3.31,3.1a18,18,0,0,0-.44,25.88l10.34,10.35a18,18,0,0,1-9,30.35h0a18,18,0,0,0-9,30.35h0a18,18,0,0,1-9,30.35l-14.31,3a18,18,0,0,0-13.79,21.91l1.08,4.4" style="fill:none;stroke:#3a3632;stroke-linecap:round;stroke-miterlimit:10;stroke-width:10.2646784611587px;isolation:isolate;opacity:0.991999983787537"/><path d="M1190.57,1393.73l-3.32,3.1a18,18,0,0,0-.43,25.88l10.34,10.34a18,18,0,0,1-9,30.35h0a18,18,0,0,0-9,30.36h0a18,18,0,0,1-9,30.35l-14.32,3A18,18,0,0,0,1142,1549l1.08,4.41" style="fill:none;stroke:#3a3632;stroke-linecap:round;stroke-miterlimit:10;stroke-width:10.2646784611587px"/><path d="M1109.37,1674.36l-4.46.79a18,18,0,0,0-14.49,21.45l3,14.31a18,18,0,0,1-24.13,20.5h0a18,18,0,0,0-24.14,20.5h0a18,18,0,0,1-24.13,20.51l-13.64-5.29A18,18,0,0,0,983.88,1778l-1.5,4.28" style="fill:none;stroke:#3a3632;stroke-linecap:round;stroke-miterlimit:10;stroke-width:10.2646784611587px"/><path d="M1005.77,1393.73l-1.88-4.13a18,18,0,0,1,9.45-24.1l13.5-5.63a18,18,0,0,0,3.2-31.5h0a18,18,0,0,1,3.2-31.51h0a18,18,0,0,0,3.19-31.5l-12.09-8.24a18,18,0,0,1-4.41-25.5l2.68-3.66" style="fill:none;stroke:#3a3632;stroke-linecap:round;stroke-miterlimit:10;stroke-width:10.2646784611587px"/><path d="M1265.24,1642.88l-4.47.74a18,18,0,0,0-14.72,21.29l2.87,14.35a18,18,0,0,1-24.35,20.25h0" style="fill:none;stroke:#3a3632;stroke-linecap:round;stroke-miterlimit:10;stroke-width:10.2646784611587px"/><path d="M1331.49,1157.64h0a18,18,0,0,0-3.75,31.44h0a18,18,0,0,1-3.75,31.45l-13.59,5.39a18,18,0,0,0-9.87,23.93l1.81,4.16" style="fill:none;stroke:#3a3632;stroke-linecap:round;stroke-miterlimit:10;stroke-width:10.2646784611587px"/><path d="M127.28,1386.79l3.31,3.1a18,18,0,0,1,.44,25.88l-10.34,10.35a18,18,0,0,0,9,30.35h0a18,18,0,0,1,9,30.35h0a18,18,0,0,0,9,30.35l14.32,3a18,18,0,0,1,13.78,21.91l-1.08,4.4" style="fill:none;stroke:#3a3632;stroke-linecap:round;stroke-miterlimit:10;stroke-width:10.2646784611587px;isolation:isolate;opacity:0.991999983787537"/><path d="M331.91,1393.73l3.31,3.1a18,18,0,0,1,.44,25.88l-10.34,10.34a18,18,0,0,0,9,30.35h0a18,18,0,0,1,9,30.36h0a18,18,0,0,0,9,30.35l14.31,3a18,18,0,0,1,13.79,21.9l-1.08,4.41" style="fill:none;stroke:#3a3632;stroke-linecap:round;stroke-miterlimit:10;stroke-width:10.2646784611587px"/><path d="M413.1,1674.36l4.47.79a18,18,0,0,1,14.49,21.45l-3,14.31a18,18,0,0,0,24.14,20.5h0a18,18,0,0,1,24.13,20.5h0a18,18,0,0,0,24.13,20.51l13.64-5.29A18,18,0,0,1,538.59,1778l1.5,4.28" style="fill:none;stroke:#3a3632;stroke-linecap:round;stroke-miterlimit:10;stroke-width:10.2646784611587px"/><path d="M516.7,1393.73l1.88-4.13a18,18,0,0,0-9.44-24.1l-13.5-5.63a18,18,0,0,1-3.2-31.5h0a18,18,0,0,0-3.2-31.51h0a18,18,0,0,1-3.2-31.5l12.09-8.24a18,18,0,0,0,4.41-25.5l-2.67-3.66" style="fill:none;stroke:#3a3632;stroke-linecap:round;stroke-miterlimit:10;stroke-width:10.2646784611587px"/><path d="M257.24,1642.88l4.47.74a18,18,0,0,1,14.71,21.29l-2.86,14.35a18,18,0,0,0,24.34,20.25h0" style="fill:none;stroke:#3a3632;stroke-linecap:round;stroke-miterlimit:10;stroke-width:10.2646784611587px"/><path d="M131.62,1163.85h0a18,18,0,0,1,3.74,31.44h0a18,18,0,0,0,3.75,31.45l13.6,5.39a18,18,0,0,1,9.86,23.93l-1.81,4.16" style="fill:none;stroke:#3a3632;stroke-linecap:round;stroke-miterlimit:10;stroke-width:10.2646784611587px"/></svg>