<svg id="Layer_1" data-name="Layer 1" xmlns="http://www.w3.org/2000/svg" viewBox="0 0 2000 2000"><path id="path1457" d="M1936.84,1652c-21.45,38-194.76,143.59-299.21,182.2-612.76,226.51-1640.11-339-1587-1104.64C66.32,503.47,371.91,389,331,112.27c-3.68-25,154,48.38,154,48.38s-63,191-61.12,227.81c41.12,803,903.75,1115.1,1455.2,1105.67C1938,1493.12,1966.4,1599.58,1936.84,1652Z" style="fill:#fddc2e;stroke:#3a3632;stroke-linecap:round;stroke-linejoin:round;stroke-width:20px"/><path d="M1899.78,1635.14C766,1766.57,189.9,1128.23,309.18,363c-27.56,47.42-62.75,90.56-97.45,133.08C148.39,573.73,88.57,647,82.17,739.29c-8.52,122.8,11.67,245,60,363.06,45.06,110.12,113.69,215,204,311.81C468.79,1545.56,626.55,1656.5,802.42,1735c174.27,77.78,355.23,118.89,523.32,118.89h.08c105.64,0,203.25-16.29,290.11-48.4C1725.12,1765.11,1931.72,1631.44,1899.78,1635.14Z" style="fill:#f8c215"/></svg>