<svg id="Layer_1" data-name="Layer 1" xmlns="http://www.w3.org/2000/svg" width="2000" height="2000" viewBox="0 0 2000 2000"><path d="M1306.72,267.17l27.63,70,71.94-22c286-87.6,531.51,220.25,382.47,479.6L1751.27,860l62.08,42.51c246.8,169,159.18,552.88-136.5,598.05l-74.38,11.37,5.47,75c21.76,298.32-333,469.17-552.68,266.16L1000,1802l-55.26,51.07c-219.67,203-574.44,32.16-552.68-266.16l5.47-75-74.38-11.37c-295.68-45.17-383.3-429-136.5-598L248.73,860l-37.49-65.23c-149-259.35,96.47-567.2,382.47-479.6l71.94,22,27.63-70C803.12-11.06,1196.88-11.06,1306.72,267.17Z" style="fill:#fff;stroke:#231f20;stroke-linecap:round;stroke-linejoin:round;stroke-width:55px"/><path d="M723.23,1833.9c-62.12,0-124.64-27.35-167.24-73.17-29.07-31.26-62.49-85.44-56.62-166l12.71-174.22L339.4,1394.15c-110.14-16.84-166.77-99-183-170.17s-.87-169.79,91.09-232.74l144.1-98.7-87-151.42C263.93,670.44,263.71,590,304,520.51c40.34-69.71,113.25-113,190.26-113a232,232,0,0,1,68,10.51l167,51.15,64.15-162.49C834.27,203,926.93,166.11,1000,166.11S1165.72,203,1206.63,306.67l64.14,162.49,167-51.15a232,232,0,0,1,68-10.51c77,0,149.94,43.3,190.27,113,40.24,69.52,40,149.93-.59,220.61l-87.06,151.42,144.13,98.7c92,63,107.34,161.49,91.09,232.73s-72.89,153.34-183.06,170.18l-172.66,26.36,12.71,174.22c5.87,80.53-27.54,134.71-56.61,166-42.62,45.82-105.15,73.2-167.28,73.2-54.76,0-106.09-20.69-148.45-59.83L1000,1655.48,871.71,1774.07c-42.35,39.14-93.7,59.83-148.45,59.83Z" style="fill:#f89d1e"/></svg>