<svg id="Layer_1" data-name="Layer 1" xmlns="http://www.w3.org/2000/svg" viewBox="0 0 1541.33 2000"><path d="M1027.39,166.39V66.79c0-9.3,45.52-16.85,101.68-16.85s101.69,7.55,101.69,16.85v99.6" style="fill:#fff;stroke:#3a3632;stroke-linecap:round;stroke-linejoin:round;stroke-width:20px"/><line x1="1073.38" y1="68.8" x2="1073.38" y2="166.39" style="fill:#fff;stroke:#3a3632;stroke-linecap:round;stroke-linejoin:round;stroke-width:10px"/><line x1="1111.13" y1="68.8" x2="1111.13" y2="166.39" style="fill:#fff;stroke:#3a3632;stroke-linecap:round;stroke-linejoin:round;stroke-width:10px"/><line x1="1148.89" y1="68.8" x2="1148.89" y2="166.39" style="fill:#fff;stroke:#3a3632;stroke-linecap:round;stroke-linejoin:round;stroke-width:10px"/><line x1="1186.64" y1="68.8" x2="1186.64" y2="166.39" style="fill:#fff;stroke:#3a3632;stroke-linecap:round;stroke-linejoin:round;stroke-width:10px"/><g id="layer2"><path id="rect867" d="M45.65,236.07l338.76-60.69V1949.94L51.15,1814Z" style="fill:#fff;stroke:#3a3632;stroke-linecap:round;stroke-linejoin:round;stroke-width:20px"/><path id="rect865" d="M384.41,175.38h1111.9V1949.94H384.41Z" style="fill:#fff;stroke:#3a3632;stroke-linecap:round;stroke-linejoin:round;stroke-width:20px"/></g><polygon points="215.03 493.63 45.65 236.07 384.41 175.38 215.03 493.63" style="fill:#fff;stroke:#3a3632;stroke-linecap:round;stroke-linejoin:round;stroke-width:20px"/><g id="layer2-2" data-name="layer2"><g id="g1522"><path id="path862" d="M1380.21,1372.78c-2.53,251.17-200.13,424.28-424.68,424.28s-435.92-182.73-437.47-430.6c-5-158.67,199.19-224.74,423.74-224.74S1375.88,1238.26,1380.21,1372.78Z" style="fill:#fff;stroke:#3a3632;stroke-linecap:round;stroke-linejoin:round;stroke-width:20px"/><path id="path857" d="M516.62,1375c-1.72-165.3,204.06-236.75,428.61-236.75S1379,1216.6,1380.71,1375" style="fill:#fff;stroke:#3a3632;stroke-linecap:round;stroke-linejoin:round;stroke-width:20px"/><path id="path887" d="M1301.88,1432.8c77.48,66.31-91.91,164.7-351.94,164.7s-433.4-101.88-379.76-171.68c91.38-94.24,273-113.09,382.07-113.09s254.28,31.07,349.63,120.07Z" style="fill:#83623e"/><path id="path887-2" data-name="path887" d="M1209.52,1476.5c57.67,41.74-68.42,103.67-262,103.67S625,1516,664.88,1472.11c68-59.31,203.22-71.18,284.39-71.18s189.27,19.55,260.25,75.57Z" style="fill:#6e4f33"/><path id="path889" d="M753.52,1758.64c37.74,85.78,344.82,87.5,382.57,1.72" style="fill:none;stroke:#3a3632;stroke-linecap:round;stroke-linejoin:round;stroke-width:20px"/><path id="path857-2" data-name="path857" d="M1380.71,1375c1.34,124.11-207.49,226.45-432,226.45s-430.76-102.34-432-226.45" style="fill:none;stroke:#3a3632;stroke-linecap:round;stroke-linejoin:round;stroke-width:20px"/></g></g><path d="M840.54,952.22a89.3,89.3,0,0,1-2.73,32.72c-2.86,10.65-7.74,19.19-10.7,27.95a73.53,73.53,0,0,0-4.63,26.86c0,9.52.92,18.92,3.47,26.56,2.38,7.82,6.67,14.4,11.37,23.38a95.45,95.45,0,0,1,10.83,33.85,128.43,128.43,0,0,1-.91,38c-2.21,13-7.52,24.08-11.79,32.38s-7.5,14.85-8.92,22.71c-1.54,7.68-1.69,17.3-1,25.68s2.89,15.65,6.64,23.7,9,17.53,11.75,29.8a113.35,113.35,0,0,1,2.24,36.46c-.94,12-4.32,24-9.07,33s-9.94,15.72-13.64,24-6.16,18.25-7.06,29a89.57,89.57,0,0,1,2.7-32.73c2.86-10.66,7.73-19.21,10.69-28a73.49,73.49,0,0,0,4.64-26.85c0-9.51-.91-18.93-3.44-26.56-2.38-7.81-6.63-14.43-11.32-23.38a96.18,96.18,0,0,1-10.88-33.8,129.49,129.49,0,0,1,.85-38c2.18-13,7.45-24.17,11.76-32.47s7.55-14.86,9-22.71c1.56-7.67,1.7-17.27,1-25.67s-2.85-15.68-6.6-23.71-9-17.49-11.77-29.73a113,113,0,0,1-2.28-36.45c.94-12,4.29-24,9.05-33s9.94-15.73,13.64-24.06S839.65,963,840.54,952.22Z" style="fill:#3a3632"/><path d="M963.2,952.22a89.3,89.3,0,0,1-2.72,32.72c-2.86,10.65-7.74,19.19-10.7,27.95a73.53,73.53,0,0,0-4.63,26.86c0,9.52.92,18.92,3.47,26.56,2.38,7.82,6.67,14.4,11.36,23.38a95.65,95.65,0,0,1,10.84,33.85,128.43,128.43,0,0,1-.91,38c-2.21,13-7.52,24.08-11.79,32.38s-7.5,14.85-8.92,22.71c-1.54,7.68-1.69,17.3-1,25.68s2.89,15.65,6.64,23.7,9,17.53,11.75,29.8a113.63,113.63,0,0,1,2.24,36.46c-.94,12-4.32,24-9.07,33s-9.94,15.72-13.64,24-6.17,18.25-7.06,29a89.57,89.57,0,0,1,2.7-32.73c2.86-10.66,7.73-19.21,10.69-28a73.7,73.7,0,0,0,4.64-26.85c0-9.51-.91-18.93-3.44-26.56-2.38-7.81-6.63-14.43-11.32-23.38a96,96,0,0,1-10.88-33.8,129.49,129.49,0,0,1,.85-38c2.18-13,7.45-24.17,11.76-32.47s7.55-14.86,9-22.71c1.56-7.67,1.7-17.27,1-25.67s-2.85-15.68-6.61-23.71-9-17.49-11.76-29.73a112.74,112.74,0,0,1-2.28-36.45c.94-12,4.29-24,9-33s9.94-15.73,13.64-24.06S962.32,963,963.2,952.22Z" style="fill:#3a3632"/><path d="M1085.87,952.22a89.3,89.3,0,0,1-2.72,32.72c-2.86,10.65-7.74,19.19-10.7,27.95a73.54,73.54,0,0,0-4.64,26.86c0,9.52.93,18.92,3.48,26.56,2.38,7.82,6.67,14.4,11.36,23.38a95.65,95.65,0,0,1,10.84,33.85,128.76,128.76,0,0,1-.91,38c-2.21,13-7.52,24.08-11.79,32.38s-7.5,14.85-8.92,22.71c-1.55,7.68-1.69,17.3-1,25.68s2.89,15.65,6.64,23.7,9,17.53,11.75,29.8a113.63,113.63,0,0,1,2.24,36.46c-1,12-4.33,24-9.07,33s-9.94,15.72-13.64,24-6.17,18.25-7.06,29a89.36,89.36,0,0,1,2.7-32.73c2.86-10.66,7.73-19.21,10.69-28a73.7,73.7,0,0,0,4.64-26.85c0-9.51-.91-18.93-3.44-26.56-2.39-7.81-6.63-14.43-11.32-23.38a96,96,0,0,1-10.88-33.8,129.49,129.49,0,0,1,.85-38c2.18-13,7.44-24.17,11.76-32.47s7.55-14.86,9-22.71c1.57-7.67,1.71-17.27,1-25.67a65.46,65.46,0,0,0-6.61-23.71c-3.7-7.94-9-17.49-11.76-29.73a112.74,112.74,0,0,1-2.28-36.45c.93-12,4.29-24,9-33s9.94-15.73,13.65-24.06S1085,963,1085.87,952.22Z" style="fill:#3a3632"/><path d="M1111.51,297.17a153.72,153.72,0,0,1-.84,27.51c-.11,1.15-.33,2.29-.5,3.44s-.33,2.31-.57,3.45c-.46,2.28-.88,4.58-1.48,6.85a106.89,106.89,0,0,1-4.2,13.5,101.66,101.66,0,0,1-6,13c-1.12,2.13-2.4,4.17-3.66,6.22s-2.67,4-4.13,5.95a109.28,109.28,0,0,1-9.42,11.09,119.46,119.46,0,0,1-10.82,9.79,137.59,137.59,0,0,1-24.57,15.62,176.78,176.78,0,0,1-26.89,10.75A217,217,0,0,1,990.34,431q-7.12,1.22-14.36,2c-2.42.25-4.84.46-7.3.63-1.23.08-2.47.15-3.73.2l-1.92.07-1,0h-2.66a16.74,16.74,0,1,1,.3-33.48,17.93,17.93,0,0,1,3.22.34l.19,0,.32,0,.68.08,1.45.15c1,.1,2,.18,3,.25,2,.15,4.1.25,6.18.33q6.24.19,12.55,0a187.94,187.94,0,0,0,25.06-2.41,151.24,151.24,0,0,0,24.31-6,118,118,0,0,0,22.62-10.34,93.25,93.25,0,0,0,34.57-35.56,97.52,97.52,0,0,0,5.47-11.65c.83-2,1.5-4.06,2.22-6.11.37-1,.64-2.08,1-3.12s.65-2.09.9-3.15a146.46,146.46,0,0,0,4.39-26.12h0a1.86,1.86,0,0,1,3.72,0Z" style="fill:#3a3632"/><path d="M803.73,297.14a147,147,0,0,0,4.38,26.09c.25,1.06.6,2.1.91,3.15s.6,2.09,1,3.11c.72,2.06,1.38,4.12,2.22,6.11a97.35,97.35,0,0,0,5.44,11.65,93.4,93.4,0,0,0,34.48,35.57c14.23,8.5,30.35,13.64,46.85,16.38a187.35,187.35,0,0,0,25,2.42c4.18.13,8.37.12,12.52,0,2.08-.08,4.14-.18,6.17-.33,1-.07,2-.15,3-.25l1.46-.15.68-.08.32,0,.18,0A16.74,16.74,0,1,1,952,433.86h-2.76l-1,0-1.92-.07c-1.26,0-2.5-.12-3.73-.2q-3.67-.25-7.29-.63-7.23-.75-14.34-2a214.74,214.74,0,0,1-28.06-6.68A175.46,175.46,0,0,1,866,413.55a137.3,137.3,0,0,1-24.52-15.64A112.18,112.18,0,0,1,821.3,377a99.74,99.74,0,0,1-7.76-12.17,103.38,103.38,0,0,1-6-13,107.15,107.15,0,0,1-4.18-13.49c-.6-2.27-1-4.57-1.48-6.85-.22-1.14-.37-2.3-.56-3.44s-.38-2.29-.49-3.44a152.46,152.46,0,0,1-.83-27.48,1.86,1.86,0,0,1,3.71,0Z" style="fill:#3a3632"/><path d="M885.52,425.71H1029.8c36.1,0,69.87,29.37,65.16,65.17l-18.43,140c-4.71,35.79-9.87,65.16-9.87,65.16h-218s-5.16-29.37-9.87-65.16l-18.43-140C815.65,455.08,849.42,425.71,885.52,425.71Z" style="fill:#83623e;stroke:#3a3632;stroke-width:10px"/><path d="M1289.08,483.49s-42.87,62-95.74,62-89.17-62-89.17-62,36.29-62.05,89.17-62.05S1289.08,483.49,1289.08,483.49Z" style="fill:#83623e;stroke:#3a3632;stroke-width:10px"/><path d="M811.41,484.31s-37.93,61.22-90.81,61.22-95.75-62-95.75-62,42.87-62.05,95.75-62.05S811.41,484.31,811.41,484.31Z" style="fill:#83623e;stroke:#3a3632;stroke-width:10px"/><circle id="path924" cx="886.63" cy="546.33" r="22.69" style="fill:#3a3632"/><circle id="circle926" cx="1025.47" cy="546.33" r="22.69" style="fill:#3a3632"/><path d="M866.35,694H1049c28.28,0,34.44,22.77,34.44,51v12.59c0,28.28-6.16,51.05-34.44,51.05H866.35c-28.28,0-34.44-22.77-34.44-51.05V745.05C831.91,716.77,838.07,694,866.35,694Z" style="fill:#83623e;stroke:#3a3632;stroke-width:10px"/></svg>