<?xml version="1.0" encoding="UTF-8"?>
<svg id="Layer_1" data-name="Layer 1" xmlns="http://www.w3.org/2000/svg" viewBox="0 0 2000 2000">
  <defs>
    <style>
      .cls-1 {
        fill: #bcdbed;
      }

      .cls-1, .cls-2 {
        stroke-width: 20px;
      }

      .cls-1, .cls-2, .cls-3, .cls-4 {
        stroke: #3a3632;
      }

      .cls-1, .cls-2, .cls-5 {
        stroke-linecap: round;
        stroke-linejoin: round;
      }

      .cls-2, .cls-6 {
        fill: #fff;
      }

      .cls-3 {
        stroke-width: 15px;
      }

      .cls-3, .cls-4 {
        stroke-miterlimit: 10;
      }

      .cls-3, .cls-7 {
        fill: #48619b;
      }

      .cls-4 {
        fill: #658ad6;
        stroke-width: 3px;
      }

      .cls-7, .cls-8, .cls-6 {
        stroke-width: 0px;
      }

      .cls-8 {
        fill: #91c2db;
      }

      .cls-5 {
        fill: none;
        stroke: #fff;
        stroke-width: 23px;
      }
    </style>
  </defs>
  <path class="cls-1" d="m322.08,223.17c-93.73,693.6-86.88,1325.98,0,1556.01,0,0,1355.84,0,1355.84,0,86.88-230.03,93.73-862.4,0-1556.01,0,0-1355.84,0-1355.84,0Z"/>
  <polygon class="cls-2" points="1677.92 109.21 1625.78 75.21 1573.63 109.21 1521.48 75.21 1469.34 109.21 1417.19 75.21 1365.05 109.21 1312.9 75.21 1260.75 109.21 1208.6 75.21 1156.46 109.21 1104.31 75.21 1052.17 109.21 1000.02 75.21 947.88 109.21 895.73 75.21 843.59 109.21 791.44 75.21 739.29 109.21 687.14 75.21 634.99 109.21 582.84 75.21 530.69 109.21 478.54 75.21 426.39 109.21 374.23 75.21 322.08 109.21 322.08 223.17 1677.92 223.17 1677.92 109.21"/>
  <polygon class="cls-2" points="322.08 1893.14 374.22 1927.14 426.37 1893.14 478.52 1927.14 530.66 1893.14 582.81 1927.14 634.95 1893.14 687.1 1927.14 739.25 1893.14 791.4 1927.14 843.54 1893.14 895.69 1927.14 947.83 1893.14 999.98 1927.14 1052.12 1893.14 1104.27 1927.14 1156.41 1893.14 1208.56 1927.14 1260.71 1893.14 1312.86 1927.14 1365.01 1893.14 1417.16 1927.14 1469.31 1893.14 1521.46 1927.14 1573.61 1893.14 1625.77 1927.14 1677.92 1893.14 1677.92 1779.18 322.08 1779.18 322.08 1893.14"/>
  <path class="cls-6" d="m294.69,1097.99c-.31,26-.42,51.65-.34,76.9.79,251.46,20.68,449.77,56.3,564.29h1298.71c35.62-114.51,55.51-312.83,56.3-564.29.08-25.26-.04-50.9-.34-76.9-215.18-62.95-453.94-97.99-705.31-97.99s-490.13,35.04-705.31,97.99Z"/>
  <g>
    <g>
      <circle class="cls-3" cx="1054.34" cy="1152.1" r="74.69"/>
      <g>
        <path class="cls-4" d="m1061.9,1151.5c4.28-2.97,2.21-9.64,4.83-13.73,2.03-4.11,7.63-6.9,6.98-11.51-.44-2.21-2.67-3.55-4.7-4.54-2.89-1.38-5.98-2.71-7.89-5.38-2-2.63-3.37-6.66-5.71-8.32-2.98-2.31-6.3.23-8.37,2.66-2.04,2.27-4.28,4.49-7.27,5.39-3.76,1.32-8.63.95-10.47,4.56-1.6,3.83,1.99,7.45,3.33,11.28,1.24,3.04.71,6.33.35,9.49-.23,2.12-.24,4.58,1.13,6.16,3.29,3.54,8.86.24,13.34.65,4.94-.1,9.48,5.4,14.36,3.34l.1-.06Z"/>
        <circle class="cls-7" cx="1050.42" cy="1130.67" r="10.24" transform="translate(-187.2 208.66) rotate(-10.42)"/>
      </g>
    </g>
    <g>
      <circle class="cls-3" cx="888" cy="1184.38" r="86.92"/>
      <g>
        <path class="cls-4" d="m896.19,1187.65c6-.89,7.28-8.92,12.12-11.83,4.23-3.24,11.51-3.26,13.22-8.41.68-2.53-.95-5.08-2.56-7.16-2.3-2.93-4.84-5.91-5.46-9.69-.73-3.78-.08-8.69-1.67-11.62-1.91-3.94-6.69-3.01-10.1-1.54-3.3,1.31-6.79,2.48-10.37,1.88-4.61-.56-9.49-3.46-13.28-.65-3.64,3.18-1.77,8.8-2.34,13.49-.27,3.81-2.52,6.97-4.53,10.09-1.33,2.1-2.61,4.65-2,7,1.6,5.39,9.12,4.82,13.58,7.55,5.21,2.44,7.11,10.52,13.26,10.9h.14Z"/>
        <circle class="cls-7" cx="894.97" cy="1159.99" r="11.92" transform="translate(-465.67 1703.35) rotate(-74.12)"/>
      </g>
    </g>
    <g>
      <circle class="cls-3" cx="1004.68" cy="1239" r="68.51"/>
      <g>
        <path class="cls-4" d="m1011.33,1236.93c3.23-3.52.03-9.07,1.54-13.26.98-4.08,5.43-7.71,3.92-11.71-.84-1.89-3.1-2.64-5.12-3.11-2.86-.65-5.9-1.21-8.15-3.22-2.32-1.95-4.36-5.28-6.79-6.29-3.13-1.46-5.59,1.48-6.95,4.07-1.37,2.44-2.93,4.88-5.42,6.3-3.1,1.94-7.53,2.59-8.45,6.19-.65,3.75,3.28,6.26,5.26,9.42,1.72,2.47,1.91,5.52,2.23,8.42.23,1.94.71,4.14,2.25,5.28,3.66,2.51,7.97-1.58,12.06-2.12,4.4-1.09,9.58,2.91,13.53.09l.08-.07Z"/>
        <circle class="cls-7" cx="996.85" cy="1220.61" r="9.39" transform="translate(-399.58 490.14) rotate(-23.15)"/>
      </g>
    </g>
    <g>
      <circle class="cls-3" cx="1185.92" cy="1206.72" r="84.86"/>
      <g>
        <path class="cls-4" d="m1194.37,1205.04c4.43-3.92,1.22-11.17,3.63-16.13,1.74-4.9,7.69-8.79,6.35-13.91-.79-2.44-3.48-3.65-5.9-4.5-3.44-1.17-7.11-2.26-9.62-5.03-2.61-2.7-4.69-7.07-7.55-8.63-3.66-2.21-7.08,1.09-9.09,4.11-2.01,2.83-4.24,5.64-7.49,7.05-4.07,1.99-9.61,2.21-11.21,6.53-1.29,4.54,3.23,8.14,5.26,12.29,1.8,3.26,1.64,7.05,1.65,10.67.03,2.43.34,5.2,2.09,6.8,4.18,3.56,10.03-.91,15.13-1.04,5.56-.77,11.42,4.83,16.65,1.87l.11-.08Z"/>
        <circle class="cls-7" cx="1178.66" cy="1183.05" r="11.63" transform="translate(-296.11 399.54) rotate(-17.13)"/>
      </g>
    </g>
    <g>
      <circle class="cls-3" cx="1272.85" cy="1281.92" r="84.86"/>
      <g>
        <path class="cls-4" d="m1281.3,1280.24c4.43-3.92,1.22-11.17,3.63-16.13,1.74-4.9,7.69-8.79,6.35-13.91-.79-2.44-3.48-3.65-5.9-4.5-3.44-1.17-7.11-2.26-9.62-5.03-2.61-2.7-4.69-7.07-7.55-8.63-3.66-2.21-7.08,1.09-9.09,4.11-2.01,2.83-4.24,5.64-7.49,7.05-4.07,1.99-9.61,2.21-11.21,6.53-1.29,4.54,3.23,8.14,5.26,12.29,1.8,3.26,1.64,7.05,1.65,10.67.03,2.43.34,5.2,2.09,6.8,4.18,3.56,10.03-.91,15.13-1.04,5.56-.77,11.42,4.83,16.65,1.87l.11-.08Z"/>
        <circle class="cls-7" cx="1265.59" cy="1258.25" r="11.63" transform="translate(-314.4 428.47) rotate(-17.13)"/>
      </g>
    </g>
    <g>
      <circle class="cls-3" cx="1096.54" cy="1313.48" r="87.76"/>
      <g>
        <path class="cls-4" d="m1104.52,1309.52c3.37-5.11-1.81-11.48-.74-17.08.42-5.36,5.3-10.86,2.57-15.61-1.45-2.22-4.46-2.71-7.11-2.89-3.75-.24-7.71-.33-10.96-2.42-3.34-1.99-6.59-5.79-9.87-6.57-4.26-1.22-6.77,3-7.96,6.56-1.24,3.37-2.71,6.77-5.57,9.06-3.52,3.09-8.99,4.81-9.43,9.55-.06,4.88,5.43,7.26,8.57,10.85,2.68,2.77,3.54,6.59,4.53,10.2.68,2.41,1.74,5.1,3.92,6.22,5.13,2.43,9.76-3.62,14.83-5.13,5.34-2.27,12.7,1.74,17.13-2.64l.09-.11Z"/>
        <circle class="cls-7" cx="1082.89" cy="1291.81" r="12.03" transform="translate(-522.55 778.03) rotate(-32.28)"/>
      </g>
    </g>
    <g>
      <circle class="cls-3" cx="917.79" cy="1350.72" r="72.53"/>
      <g>
        <path class="cls-4" d="m925.09,1351.67c4.66-1.96,4.04-8.71,7.35-12.07,2.75-3.49,8.63-5.01,8.95-9.53.03-2.19-1.82-3.91-3.55-5.26-2.46-1.89-5.14-3.77-6.41-6.7-1.37-2.9-1.86-7.01-3.75-9.05-2.36-2.79-6.03-1.05-8.48.84-2.4,1.74-4.98,3.4-7.99,3.66-3.84.5-8.39-.84-10.87,2.22-2.29,3.32.39,7.48.89,11.39.57,3.13-.6,6.16-1.58,9.09-.64,1.97-1.15,4.3-.17,6.08,2.41,4.03,8.37,2.01,12.54,3.3,4.71.9,7.92,7.04,12.97,6.07l.11-.03Z"/>
        <circle class="cls-7" cx="918.39" cy="1329.57" r="9.94" transform="translate(-435.55 2211.63) rotate(-88.45)"/>
      </g>
    </g>
    <g>
      <circle class="cls-3" cx="767" cy="1259.26" r="57.26"/>
      <g>
        <path class="cls-4" d="m770.93,1263.54c3.82,1.18,6.87-3.21,10.57-3.56,3.44-.71,7.77,1.35,10.25-1.22,1.13-1.31.89-3.29.52-4.98-.53-2.39-1.19-4.89-.47-7.31.64-2.45,2.43-5.18,2.33-7.38,0-2.89-3.11-3.7-5.56-3.8-2.33-.17-4.74-.47-6.69-1.85-2.57-1.65-4.64-4.76-7.7-4.18-3.07.84-3.56,4.72-5.24,7.34-1.25,2.18-3.49,3.42-5.57,4.69-1.39.87-2.88,2.01-3.19,3.59-.59,3.66,4.04,5.46,5.9,8.36,2.39,2.94,1.21,8.28,4.76,10.26l.08.04Z"/>
        <circle class="cls-7" cx="778.1" cy="1246.78" r="7.85" transform="translate(-670.92 1001.38) rotate(-48.42)"/>
      </g>
    </g>
    <g>
      <circle class="cls-3" cx="791.17" cy="1378.03" r="59.14"/>
      <g>
        <path class="cls-4" d="m797.17,1377.82c3.49-2.2,2.09-7.55,4.31-10.69,1.75-3.18,6.28-5.18,5.93-8.86-.27-1.77-1.98-2.9-3.56-3.76-2.23-1.19-4.64-2.35-6.05-4.54-1.49-2.15-2.43-5.39-4.22-6.78-2.27-1.93-4.99-.04-6.71,1.81-1.7,1.72-3.55,3.4-5.94,4.01-3.02.91-6.86.44-8.45,3.23-1.4,2.98,1.31,5.96,2.24,9.04.87,2.45.34,5.03-.06,7.52-.25,1.67-.35,3.61.67,4.91,2.47,2.92,7,.5,10.53.98,3.91.09,7.31,4.61,11.24,3.15l.08-.04Z"/>
        <circle class="cls-7" cx="788.84" cy="1360.93" r="8.11" transform="translate(-178.63 120.61) rotate(-7.86)"/>
      </g>
    </g>
    <g>
      <circle class="cls-3" cx="680.13" cy="1352.99" r="59.14"/>
      <g>
        <path class="cls-4" d="m686.13,1352.78c3.49-2.2,2.09-7.55,4.31-10.69,1.75-3.18,6.28-5.18,5.93-8.86-.27-1.77-1.98-2.9-3.56-3.76-2.23-1.19-4.64-2.35-6.05-4.54-1.49-2.15-2.43-5.39-4.22-6.78-2.27-1.93-4.99-.04-6.71,1.81-1.7,1.72-3.55,3.4-5.94,4.01-3.02.91-6.86.44-8.45,3.23-1.4,2.98,1.31,5.96,2.24,9.04.87,2.45.34,5.03-.06,7.52-.25,1.67-.35,3.61.67,4.91,2.47,2.92,7,.5,10.53.98,3.91.09,7.31,4.61,11.24,3.15l.08-.04Z"/>
        <circle class="cls-7" cx="677.8" cy="1335.89" r="8.11" transform="translate(-176.25 105.19) rotate(-7.86)"/>
      </g>
    </g>
    <g>
      <circle class="cls-3" cx="1031.99" cy="1430.16" r="72.73"/>
      <g>
        <path class="cls-4" d="m1038.99,1432.52c4.97-1.02,5.67-7.79,9.57-10.45,3.39-2.9,9.47-3.26,10.65-7.64.45-2.15-1.03-4.2-2.47-5.86-2.06-2.34-4.32-4.71-5.01-7.84-.79-3.12-.47-7.25-1.94-9.63-1.78-3.21-5.73-2.2-8.51-.82-2.7,1.25-5.55,2.38-8.57,2.05-3.87-.25-8.09-2.45-11.12.08-2.9,2.82-1.07,7.43-1.33,11.38-.05,3.19-1.78,5.94-3.32,8.64-1.01,1.81-1.97,4.01-1.35,5.94,1.59,4.43,7.84,3.6,11.7,5.68,4.46,1.8,6.43,8.46,11.58,8.49h.11Z"/>
        <circle class="cls-7" cx="1036.68" cy="1409.47" r="9.97" transform="translate(-566.23 2110.9) rotate(-77.3)"/>
      </g>
    </g>
    <g>
      <circle class="cls-3" cx="1257.92" cy="1402.85" r="76.13"/>
      <g>
        <path class="cls-4" d="m1262.02,1409.41c4.7,2.47,9.76-2.54,14.68-2.11,4.67-.1,9.83,3.64,13.69.88,1.79-1.44,1.95-4.08,1.89-6.38-.11-3.26-.37-6.68,1.15-9.67,1.43-3.05,4.43-6.18,4.83-9.08.68-3.78-3.17-5.59-6.35-6.31-3.01-.78-6.08-1.76-8.3-4.03-2.97-2.78-4.92-7.35-9.05-7.32-4.22.36-5.8,5.31-8.63,8.33-2.16,2.55-5.39,3.62-8.42,4.79-2.02.8-4.25,1.94-5.04,3.92-1.65,4.64,3.96,8.12,5.7,12.36,2.42,4.42-.41,11.12,3.75,14.56l.1.07Z"/>
        <circle class="cls-7" cx="1275.45" cy="1389.21" r="10.44" transform="translate(-584.67 1078.31) rotate(-37.96)"/>
      </g>
    </g>
    <g>
      <circle class="cls-3" cx="1185.92" cy="1477.34" r="73.03"/>
      <g>
        <path class="cls-4" d="m1188.35,1484.34c3.87,3.31,9.67-.29,14.18,1.17,4.39.9,8.41,5.51,12.61,3.76,1.98-.96,2.7-3.4,3.13-5.57.59-3.07,1.08-6.33,3.14-8.8,1.99-2.55,5.47-4.83,6.46-7.46,1.45-3.39-1.77-5.9-4.58-7.26-2.65-1.37-5.31-2.94-6.9-5.55-2.18-3.23-3.03-7.93-6.9-8.78-4.02-.56-6.56,3.72-9.85,5.94-2.57,1.92-5.81,2.24-8.9,2.68-2.06.31-4.39.9-5.55,2.59-2.54,3.99,1.97,8.44,2.69,12.78,1.32,4.65-2.76,10.31.39,14.42l.08.08Z"/>
        <circle class="cls-7" cx="1205.23" cy="1468.33" r="10.01" transform="translate(-508.51 648.77) rotate(-25.06)"/>
      </g>
    </g>
    <g>
      <circle class="cls-3" cx="1406.88" cy="1477.34" r="87.12"/>
      <g>
        <path class="cls-4" d="m1415.14,1474.19c3.82-4.73-.68-11.52.91-16.95.93-5.26,6.28-10.22,4.05-15.17-1.21-2.33-4.15-3.1-6.75-3.54-3.68-.6-7.58-1.07-10.6-3.44-3.1-2.29-5.95-6.35-9.12-7.44-4.09-1.61-6.98,2.32-8.5,5.71-1.55,3.21-3.33,6.43-6.38,8.42-3.78,2.71-9.35,3.88-10.23,8.53-.53,4.82,4.66,7.69,7.42,11.54,2.38,2.99,2.87,6.85,3.5,10.52.44,2.45,1.23,5.2,3.28,6.53,4.84,2.89,10-2.63,15.14-3.64,5.5-1.73,12.38,2.94,17.18-.96l.1-.1Z"/>
        <circle class="cls-7" cx="1395.48" cy="1454.62" r="11.94" transform="translate(-504.98 782.65) rotate(-26.72)"/>
      </g>
    </g>
    <g>
      <circle class="cls-3" cx="572.7" cy="1420.23" r="70.73"/>
      <g>
        <path class="cls-4" d="m578.29,1424.73c4.88.73,7.79-5.2,12.25-6.32,4.06-1.51,9.73.2,12.29-3.4,1.14-1.81.47-4.18-.29-6.18-1.09-2.82-2.36-5.75-1.94-8.84.33-3.11,2.01-6.78,1.47-9.44-.55-3.52-4.49-3.94-7.49-3.61-2.88.23-5.87.31-8.51-1.01-3.45-1.53-6.56-4.95-10.17-3.66-3.59,1.6-3.47,6.42-5.03,9.94-1.12,2.9-3.62,4.82-5.93,6.77-1.53,1.32-3.14,3-3.22,4.97-.04,4.58,5.95,5.92,8.77,9.11,3.47,3.14,3.03,9.88,7.72,11.64l.11.03Z"/>
        <circle class="cls-7" cx="583.93" cy="1402.92" r="9.7" transform="translate(-911.16 1131.14) rotate(-57.1)"/>
      </g>
    </g>
    <g>
      <circle class="cls-3" cx="879.31" cy="1498.8" r="72.82"/>
      <g>
        <path class="cls-4" d="m886.05,1501.82c5.05-.54,6.41-7.21,10.56-9.48,3.66-2.56,9.75-2.33,11.36-6.58.66-2.1-.62-4.29-1.89-6.08-1.82-2.53-3.85-5.11-4.23-8.3-.48-3.19.24-7.27-.99-9.79-1.46-3.37-5.49-2.75-8.4-1.64-2.81.98-5.77,1.84-8.74,1.21-3.84-.63-7.82-3.23-11.09-1.01-3.16,2.53-1.79,7.3-2.43,11.21-.36,3.18-2.36,5.75-4.15,8.28-1.19,1.71-2.35,3.8-1.92,5.79,1.15,4.57,7.47,4.35,11.1,6.8,4.27,2.23,5.58,9.06,10.72,9.59h.11Z"/>
        <circle class="cls-7" cx="886" cy="1478.63" r="9.98" transform="translate(-795.89 1856.24) rotate(-71.72)"/>
      </g>
    </g>
    <g>
      <circle class="cls-3" cx="694.35" cy="1498.8" r="83.21"/>
      <g>
        <path class="cls-4" d="m701.07,1503.91c5.76.71,8.99-6.37,14.2-7.83,4.73-1.91,11.45-.07,14.34-4.39,1.28-2.16.42-4.93-.54-7.26-1.37-3.29-2.96-6.69-2.57-10.33.29-3.67,2.14-8.04,1.42-11.15-.76-4.13-5.4-4.48-8.93-4-3.38.37-6.89.55-10.05-.91-4.11-1.69-7.87-5.61-12.08-3.98-4.17,2-3.88,7.67-5.6,11.85-1.22,3.44-4.11,5.79-6.75,8.15-1.76,1.6-3.6,3.62-3.63,5.95.1,5.38,7.19,6.77,10.6,10.43,4.18,3.58,3.87,11.52,9.46,13.44l.13.03Z"/>
        <circle class="cls-7" cx="707" cy="1478.08" r="11.41" transform="translate(-923.14 1313.16) rotate(-58.66)"/>
      </g>
    </g>
    <g>
      <circle class="cls-3" cx="1066.41" cy="1556.15" r="68.15"/>
      <g>
        <path class="cls-4" d="m1073.21,1557.47c4.49-1.57,4.3-7.94,7.59-10.9,2.78-3.12,8.39-4.2,8.94-8.42.15-2.05-1.48-3.77-3.03-5.13-2.2-1.92-4.6-3.84-5.63-6.66-1.12-2.8-1.34-6.68-3-8.7-2.05-2.76-5.59-1.33-8.01.3-2.35,1.49-4.86,2.91-7.71,2.97-3.63.25-7.82-1.27-10.32,1.45-2.34,2.98-.07,7.04.18,10.73.35,2.97-.92,5.74-2.01,8.43-.72,1.81-1.33,3.97-.51,5.69,2.03,3.92,7.73,2.37,11.57,3.82,4.37,1.11,7.02,7.06,11.82,6.44l.1-.02Z"/>
        <circle class="cls-7" cx="1068.2" cy="1536.35" r="9.34" transform="translate(-556.5 2464.66) rotate(-84.93)"/>
      </g>
    </g>
    <g>
      <circle class="cls-3" cx="905.04" cy="1610.77" r="55.39"/>
      <g>
        <path class="cls-4" d="m909.87,1607.89c1.87-3.38-1.7-7.14-1.31-10.71,0-3.4,2.8-7.09.85-9.95-1.02-1.33-2.94-1.48-4.62-1.47-2.37.03-4.87.17-7.02-.98-2.2-1.09-4.43-3.32-6.53-3.65-2.74-.56-4.11,2.22-4.69,4.52-.61,2.18-1.37,4.4-3.06,5.98-2.07,2.12-5.42,3.47-5.46,6.47.2,3.07,3.77,4.3,5.93,6.4,1.82,1.61,2.55,3.97,3.36,6.2.55,1.48,1.35,3.12,2.77,3.72,3.35,1.27,5.97-2.76,9.08-3.96,3.25-1.69,8.08.47,10.65-2.5l.05-.07Z"/>
        <circle class="cls-7" cx="895.38" cy="1597.81" r="7.59" transform="translate(-778.19 853.59) rotate(-36.76)"/>
      </g>
    </g>
    <g>
      <circle class="cls-3" cx="1433.38" cy="1321.93" r="55.39"/>
      <g>
        <path class="cls-4" d="m1438.21,1319.04c1.87-3.38-1.7-7.14-1.31-10.71,0-3.4,2.8-7.09.85-9.95-1.02-1.33-2.94-1.48-4.62-1.47-2.37.03-4.87.17-7.02-.98-2.2-1.09-4.43-3.32-6.53-3.65-2.74-.56-4.11,2.22-4.69,4.52-.61,2.18-1.37,4.4-3.06,5.98-2.07,2.12-5.42,3.47-5.46,6.47.2,3.07,3.77,4.3,5.93,6.4,1.82,1.61,2.55,3.97,3.36,6.2.55,1.48,1.35,3.12,2.77,3.72,3.35,1.27,5.97-2.76,9.08-3.96,3.25-1.69,8.08.47,10.65-2.5l.05-.07Z"/>
        <circle class="cls-7" cx="1423.72" cy="1308.97" r="7.59" transform="translate(-500.26 1112.34) rotate(-36.76)"/>
      </g>
    </g>
    <g>
      <circle class="cls-3" cx="1262.55" cy="1583.46" r="70.02"/>
      <g>
        <path class="cls-4" d="m1267.6,1588.46c4.73,1.22,8.2-4.34,12.7-4.98,4.16-1.08,9.56,1.19,12.44-2.1,1.3-1.67.89-4.07.34-6.11-.79-2.89-1.74-5.9-1.02-8.9.64-3.03,2.66-6.47,2.4-9.15-.18-3.53-4.02-4.33-7.01-4.31-2.86-.06-5.81-.29-8.28-1.86-3.24-1.86-5.96-5.54-9.65-4.64-3.7,1.22-4.07,5.97-5.96,9.28-1.4,2.74-4.06,4.38-6.52,6.06-1.64,1.14-3.4,2.63-3.68,4.57-.5,4.5,5.26,6.43,7.71,9.86,3.1,3.44,1.98,10.04,6.43,12.24l.1.04Z"/>
        <circle class="cls-7" cx="1275.36" cy="1567.55" r="9.6" transform="translate(-745.43 1580.06) rotate(-51.22)"/>
      </g>
    </g>
    <g>
      <circle class="cls-3" cx="1511.65" cy="1541.23" r="57.17"/>
      <g>
        <path class="cls-4" d="m1517.08,1539.19c2.52-3.09-.4-7.56.66-11.12.63-3.45,4.16-6.68,2.71-9.94-.79-1.54-2.71-2.05-4.41-2.35-2.41-.41-4.97-.73-6.94-2.3-2.03-1.51-3.88-4.19-5.96-4.92-2.68-1.07-4.59,1.5-5.6,3.72-1.03,2.1-2.21,4.21-4.21,5.5-2.49,1.77-6.15,2.51-6.75,5.56-.37,3.16,3.03,5.06,4.83,7.6,1.55,1.97,1.86,4.51,2.26,6.91.28,1.61.79,3.42,2.13,4.29,3.17,1.91,6.57-1.69,9.95-2.34,3.61-1.12,8.12,1.97,11.27-.57l.06-.06Z"/>
        <circle class="cls-7" cx="1504.25" cy="1526.28" r="7.84" transform="translate(-521.79 828.09) rotate(-26.4)"/>
      </g>
    </g>
    <g>
      <circle class="cls-3" cx="593.95" cy="1556.15" r="54.68"/>
      <g>
        <path class="cls-4" d="m598.83,1558.81c3.81-.11,5.21-5.03,8.44-6.5,2.88-1.71,7.43-1.19,8.88-4.28.61-1.53-.22-3.24-1.07-4.66-1.22-2-2.59-4.05-2.69-6.46-.18-2.41.59-5.43-.18-7.38-.9-2.61-3.96-2.38-6.2-1.71-2.16.57-4.42,1.05-6.62.41-2.84-.69-5.67-2.86-8.25-1.39-2.51,1.71-1.76,5.36-2.46,8.25-.45,2.36-2.09,4.17-3.58,5.97-.99,1.21-1.98,2.71-1.77,4.23.6,3.49,5.34,3.68,7.93,5.72,3.07,1.91,3.66,7.1,7.48,7.79h.08Z"/>
        <circle class="cls-7" cx="600.11" cy="1541.44" r="7.5" transform="translate(-1053.56 1502.1) rotate(-67.37)"/>
      </g>
    </g>
  </g>
  <circle class="cls-8" cx="999.42" cy="615.83" r="334.64"/>
  <g>
    <g id="_Radial_Repeat_" data-name="&amp;lt;Radial Repeat&amp;gt;">
      <g>
        <line class="cls-5" x1="998.84" y1="854.42" x2="999.73" y2="463.54"/>
        <polyline class="cls-5" points="1045.26 818.76 998.9 772.21 952.6 818.32"/>
        <polyline class="cls-5" points="953.25 533.91 999.67 553.09 1045.91 534.2"/>
      </g>
    </g>
    <g id="_Radial_Repeat_-2" data-name="&amp;lt;Radial Repeat&amp;gt;">
      <g>
        <line class="cls-5" x1="792.5" y1="734.62" x2="1131.46" y2="539.95"/>
        <polyline class="cls-5" points="846.6 756.99 863.73 693.57 800.64 676.53"/>
        <polyline class="cls-5" points="1047.28 534.88 1053.87 584.67 1093.36 615.28"/>
      </g>
    </g>
    <g id="_Radial_Repeat_-3" data-name="&amp;lt;Radial Repeat&amp;gt;">
      <g>
        <line class="cls-5" x1="793.08" y1="496.03" x2="1131.15" y2="692.24"/>
        <polyline class="cls-5" points="800.76 554.06 864.25 537.19 847.47 474.03"/>
        <polyline class="cls-5" points="1093.45 616.8 1053.63 647.4 1046.87 696.91"/>
      </g>
    </g>
    <g id="_Radial_Repeat_-4" data-name="&amp;lt;Radial Repeat&amp;gt;">
      <g>
        <line class="cls-5" x1="1000" y1="377.23" x2="999.11" y2="768.12"/>
        <polyline class="cls-5" points="953.58 412.9 999.94 459.45 1046.24 413.33"/>
        <polyline class="cls-5" points="1045.59 697.75 999.18 678.56 952.93 697.45"/>
      </g>
    </g>
    <g id="_Radial_Repeat_-5" data-name="&amp;lt;Radial Repeat&amp;gt;">
      <g>
        <line class="cls-5" x1="1206.34" y1="497.03" x2="867.38" y2="691.7"/>
        <polyline class="cls-5" points="1152.24 474.66 1135.11 538.08 1198.2 555.13"/>
        <polyline class="cls-5" points="951.56 696.77 944.97 646.98 905.48 616.38"/>
      </g>
    </g>
    <g id="_Radial_Repeat_-6" data-name="&amp;lt;Radial Repeat&amp;gt;">
      <g>
        <line class="cls-5" x1="1205.76" y1="735.62" x2="867.69" y2="539.41"/>
        <polyline class="cls-5" points="1198.08 677.59 1134.59 694.46 1151.37 757.62"/>
        <polyline class="cls-5" points="905.39 614.85 945.21 584.25 951.97 534.75"/>
      </g>
    </g>
  </g>
</svg>