<?xml version="1.0" encoding="UTF-8"?>
<svg id="Layer_1" data-name="Layer 1" xmlns="http://www.w3.org/2000/svg" width="2000" height="2000" viewBox="0 0 2000 2000">
  <path d="M1000.18,1605.9c2.26,.46,4.5,1.05,6.67,1.69,8.75,2.6,17.54,6.1,26.65,5.58,8.49-.48,16.34-4.41,24.51-6.77,7.67-2.21,14.47-2.08,21.81,.87,6.78,2.72,14.36,6.46,21.88,6.16,11.18-.45,20.15-10.18,31.27-11.47,12.06-1.4,23.33,7.42,35.47,7.04,12.68-.39,23.27-10.65,35.9-11.83,16.26-1.52,31.92,12.3,47.68,8,8.69-2.37,15.04-9.78,23.1-13.81,18.37-9.2,40.16,.74,60.7,.97,15.21,.17,29.77-5.15,43.32-11.62,5.78-2.76,11.32-6.71,17.62-7.56,7.62-1.03,15.17-1.78,22.88-1.4,14.07,.7,28.98,4.2,41.7-1.86,7.29-3.47,12.92-9.74,20.05-13.54,11.77-6.27,25.94-5.07,39.23-4,10.38,.84,21.35,1.47,31.35-2.03,4.41-1.55,6.52-4.06,10.02-6.78,4.3-3.35,9.69-6.46,14.66-8.69,8.48-3.8,17.57-6.45,26.92-6.53,10.8-.08,21.63,3.23,32.28,1.39,20.21-3.49,34-24.32,54.18-27.96,11.6-2.09,23.59,1.89,35.25,.19,21.54-3.13,36.02-24.21,56.47-31.66,16.45-6,35.98-2.88,50.67-12.42,8.62-5.59,14.22-14.78,22.1-21.37,10.7-8.94,24.62-12.37,38.08-14.58,7.28-1.19,10.74-1.98,15.29-8.2,3.71-5.07,5.89-11.34,5.53-17.65-.06-1.08-.2-2.15-.41-3.21-3.77-19.01-26.12-29.36-31.69-47.92-2.87-9.56-.86-20.16-4.25-29.55-6.5-18-30-25.08-37.2-42.82-3.51-8.65-2.57-18.7-6.62-27.11-6.43-13.34-23.75-19.25-28.93-33.13-2.47-6.6-1.74-14.03-4.09-20.67-3.6-10.17-13.48-16.43-21.88-23.2-12.26-9.88-22.41-22.34-29.7-36.29-1.66-3.17-3.59-6.55-4.34-10.07-.56-2.63-.29-5.03-1.5-7.53-3.32-6.86-11.67-11.69-18-15.33-15.19-8.73-35.25-14.67-43.71-31.42-8.17-16.16-1.61-37.15-10.83-52.74-9.65-16.32-32.17-19.76-45.23-33.49-18.08-19.01-13.98-52.98-34.22-69.67-7.48-6.17-17.14-8.85-26.04-12.73s-17.86-9.85-20.68-19.14c-2.15-7.07-.31-14.75-1.45-22.05-2.2-14.17-14.71-24.03-25.62-33.33-9.48-8.08-19.28-18.45-19.99-31.56-.61-11.17-14.38-20.86-23.91-25.4-7.05-3.35-15.25-5.59-19.83-11.92-7.46-10.3-1.71-26.46-9.85-36.23-6.87-8.25-20.24-7.71-28.04-15.08-9.09-8.58-7.32-24.49-16.12-33.37-10.27-10.37-30.52-6.75-38.44-19-5.69-8.78-1.62-21.28-7.02-30.25-4.24-7.05-12.95-9.76-19.47-14.78-5.31-4.09-9.16-9.74-12.91-15.29-9.81-14.5-21.35-28.91-29.43-44.36-5.9-11.28-11.57-21.01-24.92-24.25-9.11-2.21-19.5-1.05-27.03-6.64-12.61-9.36-8.5-30.49-18.98-42.18-9.52-10.62-27.89-9.87-36.53-21.22-7.45-9.79-4.45-24.6-11.43-34.74-9.78-14.2-33.57-12.11-43.57-26.16-3.69-5.19-4.89-11.91-8.92-16.84-5.15-6.29-13.69-8.36-20.94-12.03-14.56-7.36-10.7-25.3-23.8-34.16-6.93-4.68-17.17-3.26-23.02-9.24-6-6.14-5.34-18.21-13.38-21.2-6.41-2.39-13.47,3.32-20.14,1.78-13.7-3.15-21.67-23.79-38.72-15.74-5.8,2.74-9.99,7.95-14.11,12.87s-8.66,9.93-14.73,12.01c-7.02,2.4-16.14,1.09-20.52,7.07-4.29,5.86-.64,14.63-3.94,21.09-3.03,5.94-10.47,7.64-16.61,10.23-7.81,3.3-14.51,9.08-19.1,16.19s-4.62,13.59-12.35,17.65c-5.58,2.93-12.18,3.14-18.09,5.33-7.95,2.95-14.42,9.66-17.07,17.72-1.91,5.81-2,12.35-5.42,17.41-6.79,10.03-22.56,9.05-31.22,17.51-5.67,5.54-7.19,14.04-11.63,20.61-6.97,10.31-19.38,14.5-28.14,22.86-9.9,9.46-12.6,22.71-25.12,30.57-5.12,3.22-11.14,5.46-14.76,10.3-3.2,4.28-3.96,9.88-6.26,14.7-2.89,6.06-8.09,10.66-13.22,15s-10.46,8.7-13.78,14.54c-4.25,7.48-2.13,17.83-8.35,24.61-7.41,8.08-20.29,7.88-26.47,17.91-2.05,3.32-2.98,7.21-4.69,10.72-5.9,12.15-19,16.74-29.13,24.38-5,3.77-10.61,6.97-14.31,12.02-4.45,6.08-5.56,14.1-9.95,20.22-4.96,6.92-13.34,10.43-19.66,16.14-12.98,11.73-16.45,31.87-30.55,42.22-7.92,5.82-19.69,9.56-20.84,19.32-.62,5.28,2.39,10.93,.14,15.75-1.34,2.87-4.23,4.64-6.96,6.24-7.8,4.57-18.77,8.63-24.13,16.22-4.71,6.67-9.25,15.44-12.08,23.04-8.48,22.82-38.76,26.48-48.86,48.43-2.95,6.41-3.69,13.79-7.46,19.76-5.89,9.31-17.52,12.89-26.27,19.58-9.86,7.54-16.12,19.6-16.62,32-.44,10.89,3.19,22.48-1.52,32.31-9.06,18.87-40.74,16.22-50.36,34.81-7.04,13.6,1.13,33.31-10.05,43.78-3.85,3.61-9.16,5.08-13.96,7.25-13.29,5.99-22.82,17.47-30.81,29.29-7.63,11.27-8.5,24.83-19.51,34.04-6.25,5.23-14.29,9.12-17.58,16.58-1.76,3.99-1.88,8.52-3.33,12.63-2.32,6.56-7.72,11.44-12.54,16.45-11.54,12.04-20.63,26.43-26.52,42.03-1.92,5.08-3.91,11.11-8.04,14.89-3.19,2.93-7.33,3.16-10.57,5.76-12.61,10.12-19.05,32.67-26.22,46.88-2.92,5.79-5.9,11.8-6.23,18.28-.28,5.64,1.45,11.5-.45,16.82-2.73,7.66-11.51,10.85-18.59,14.85-17.38,9.81-21.25,25.1-28.52,41.94-5.55,12.86-23.45,44.12-1.33,50.42,4.07,1.16,8.53,1.59,11.86,4.2,4.91,3.85,5.57,10.85,7.9,16.64,5.53,13.77,20.86,20.8,35.33,24.09,14.47,3.3,29.88,4.37,42.65,11.93,6.97,4.13,12.98,10.1,20.69,12.58,9.38,3.01,19.79,.36,29.3,2.92,12.88,3.46,21.82,15.75,34.56,19.68,7.76,2.39,16.08,1.43,24.2,1.71,7.36,.26,14.64,1.58,21.73,3.55,5.28,1.47,12.13,2.73,16.79,5.68,5.64,3.57,9.83,7.92,16.24,10.51s12.79,4,19.41,4.93c14.04,1.97,28.47,1.8,42.08,5.8,19.54,5.75,36.85,19.92,57.21,20.25,10.44,.17,20.77-3.41,31.16-2.36,17.1,1.72,30.56,15.38,46.98,20.46,15.21,4.71,31.56,1.71,47.34-.34,9.3-1.21,18.22-1.39,27.56-.85,7.91,.45,12.95,2.15,20.4,5.31,16.66,7.08,34.42,13.03,52.77,12.12,12.05-.6,24.26-4.15,36-1.37,12.36,2.93,22.41,12.51,34.85,15.05,21.16,4.31,42.26-12.79,63.47-8.74,10.42,1.99,19.41,8.91,29.84,10.85,12.56,2.33,27.08-1.87,38.87-6.04s26.76,1.14,37.56,4.94c6.75,2.37,13.99,5.42,20.8,3.21,3.72-1.2,6.78-3.86,10.31-5.55,6.19-2.97,13.24-2.76,20.08-1.37Z" style="fill: #ffedd9; stroke: #3a3632; stroke-miterlimit: 10; stroke-width: 7.57px;"/>
  <g>
    <path d="M214.2,1561.16c.34,4.59,3.03,9.14,1.71,13.55-1.27,4.25-5.81,6.66-7.92,10.56-2.53,4.68-.99,10.78,2.53,14.77s8.62,6.21,13.73,7.72,10.39,2.43,15.33,4.43c2.97,1.2,5.79,2.79,8.87,3.67s6.58,.96,9.3-.73c3.96-2.47,4.99-7.73,5.13-12.39s-.14-9.67,2.4-13.59c3.67-5.67,11.62-6.67,16.68-11.15,5.05-4.47,6.49-12.32,3.91-18.55s-8.76-10.65-15.41-11.71c-6.78-1.08-13.61,1-20.34,2.36-4.49,.9-9.66,1.73-14.13,.34-2.56-.8-4.61-2.84-7.24-3.41-8.03-1.75-15.11,6.62-14.54,14.14Z" style="fill: #e2c4a6; stroke: #3a3632; stroke-miterlimit: 10; stroke-width: 7.57px;"/>
    <path d="M542.02,1603.1c-.22,4.9,2.05,10.05,.09,14.54-1.88,4.33-6.98,6.3-9.71,10.16-3.27,4.62-2.42,11.27,.8,15.94,3.21,4.66,8.33,7.66,13.53,9.9,5.2,2.24,10.68,3.89,15.64,6.62,2.99,1.65,5.77,3.68,8.91,5s6.83,1.85,9.92,.41c4.5-2.11,6.25-7.54,7-12.45s1.08-10.24,4.26-14.06c4.6-5.53,13.13-5.58,19.05-9.67,5.9-4.08,8.43-12.2,6.49-19.11s-7.91-12.37-14.81-14.34c-7.03-2.01-14.51-.67-21.8-.09-4.86,.39-10.43,.61-14.98-1.44-2.61-1.17-4.52-3.58-7.22-4.52-8.27-2.87-16.81,5.08-17.17,13.1Z" style="fill: #e2c4a6; stroke: #3a3632; stroke-miterlimit: 10; stroke-width: 7.57px;"/>
    <path d="M834.31,1649.78c-3.09,3.99-4.25,9.66-8.56,12.28-4.16,2.52-9.62,1.15-14.2,2.77-5.5,1.94-8.73,8.04-8.8,13.87-.07,5.83,2.45,11.39,5.49,16.37s6.67,9.61,9.21,14.86c1.53,3.16,2.66,6.52,4.52,9.5,1.86,2.98,4.64,5.62,8.1,6.24,5.03,.9,9.74-2.62,13.28-6.31,3.54-3.69,7-7.97,11.93-9.29,7.16-1.91,14.35,3.11,21.76,3.19,7.39,.08,14.33-5.25,16.81-12.21,2.48-6.96,.7-15.09-3.93-20.85-4.72-5.87-11.8-9.19-18.28-13.03-4.31-2.56-9.13-5.69-11.74-10.11-1.49-2.54-1.67-5.7-3.38-8.09-5.25-7.32-17.15-5.72-22.22,.81Z" style="fill: #e2c4a6; stroke: #3a3632; stroke-miterlimit: 10; stroke-width: 7.57px;"/>
    <path d="M1026.65,1657.62c-1.67,4.39-1.15,9.76-4.29,13.27-3.02,3.38-8.25,3.64-11.9,6.33-4.37,3.23-5.59,9.54-4.06,14.75,1.53,5.21,5.28,9.48,9.35,13.08s8.56,6.75,12.25,10.73c2.22,2.4,4.15,5.09,6.61,7.23s5.67,3.74,8.91,3.35c4.73-.57,7.96-4.99,10.11-9.23s4.06-9,8.1-11.52c5.85-3.65,13.63-1.14,20.25-3.09,6.6-1.94,11.34-8.57,11.65-15.45s-3.48-13.64-9.18-17.5c-5.8-3.94-13.01-4.97-19.83-6.63-4.54-1.11-9.68-2.58-13.21-5.81-2.02-1.85-3.04-4.62-5.22-6.29-6.67-5.09-16.83-.43-19.57,6.77Z" style="fill: #e2c4a6; stroke: #3a3632; stroke-miterlimit: 10; stroke-width: 7.57px;"/>
    <path d="M1394.66,1618.71c.07,5.24,2.8,10.59,.99,15.5-1.74,4.73-7.06,7.16-9.73,11.44-3.21,5.13-1.88,12.17,1.84,16.95s9.36,7.66,15.05,9.73c5.69,2.07,11.63,3.49,17.09,6.1,3.29,1.57,6.38,3.57,9.82,4.79s7.41,1.56,10.61-.18c4.67-2.52,6.21-8.43,6.69-13.71,.49-5.28,.52-10.99,3.67-15.26,4.57-6.18,13.66-6.76,19.72-11.49,6.04-4.72,8.24-13.53,5.74-20.78-2.49-7.25-9.2-12.7-16.68-14.38-7.63-1.71-15.52,.18-23.26,1.25-5.16,.71-11.09,1.29-16.06-.61-2.85-1.09-5.04-3.54-7.98-4.38-9-2.55-17.61,6.45-17.5,15.03Z" style="fill: #e2c4a6; stroke: #3a3632; stroke-miterlimit: 10; stroke-width: 7.57px;"/>
    <path d="M1025.54,1540.71c2.95,4.52,8.29,7.68,9.42,12.96,1.09,5.09-2.2,10.13-2.17,15.33,.04,6.24,5.08,11.65,10.95,13.76,5.87,2.11,12.38,1.51,18.48,.18s12.06-3.38,18.26-4.12c3.73-.44,7.53-.41,11.19-1.25s7.31-2.73,9.15-6.01c2.67-4.77,.76-10.77-1.73-15.64s-5.61-9.86-5.22-15.32c.57-7.91,8.17-13.43,10.84-20.89,2.66-7.45-.29-16.33-6.46-21.28-6.17-4.94-15.02-5.99-22.47-3.32-7.59,2.72-13.42,8.72-19.58,13.92-4.1,3.46-8.95,7.24-14.33,8.33-3.09,.62-6.35-.31-9.37,.59-9.25,2.75-11.79,15.34-6.96,22.75Z" style="fill: #e2c4a6; stroke: #3a3632; stroke-miterlimit: 10; stroke-width: 7.57px;"/>
    <g>
      <path d="M392.36,1277.92c-3.52,2.77-5.74,7.42-10.03,8.74-4.13,1.28-8.54-1.08-12.84-.67-5.16,.49-9.26,5.06-10.57,10.07s-.34,10.35,1.21,15.29,3.68,9.72,4.75,14.8c.64,3.05,.89,6.2,1.85,9.17s2.8,5.85,5.64,7.12c4.14,1.86,8.96-.17,12.81-2.58s7.75-5.37,12.29-5.44c6.58-.11,11.71,5.77,18.08,7.43,6.35,1.65,13.49-1.44,17.12-6.91,3.64-5.47,3.85-12.86,1.1-18.83-2.81-6.07-8.2-10.46-12.96-15.17-3.17-3.14-6.65-6.87-7.95-11.24-.74-2.51-.21-5.27-1.18-7.71-2.95-7.44-13.56-8.62-19.33-4.08Z" style="fill: #e2c4a6; stroke: #3a3632; stroke-miterlimit: 10; stroke-width: 7.57px;"/>
      <path d="M441.28,1204.29c.64,4.67,3.68,9.15,2.61,13.74-1.03,4.42-5.51,7.17-7.42,11.29-2.29,4.94-.33,11.08,3.52,14.93,3.85,3.85,9.21,5.8,14.52,7.02,5.31,1.22,10.78,1.82,15.94,3.55,3.11,1.04,6.1,2.48,9.3,3.18s6.79,.57,9.46-1.34c3.89-2.77,4.61-8.22,4.45-12.99s-.76-9.87,1.59-14.04c3.39-6.03,11.45-7.56,16.33-12.46,4.87-4.89,5.85-13,2.82-19.2-3.03-6.2-9.62-10.32-16.49-10.99-7-.68-13.84,1.89-20.64,3.7-4.53,1.21-9.76,2.39-14.41,1.24-2.67-.66-4.9-2.61-7.62-3.02-8.32-1.27-15.01,7.72-13.96,15.37Z" style="fill: #e2c4a6; stroke: #3a3632; stroke-miterlimit: 10; stroke-width: 7.57px;"/>
      <path d="M651.18,1263.26c-2.87,4.2-3.69,9.99-7.88,12.89-4.04,2.79-9.62,1.74-14.14,3.65-5.42,2.29-8.31,8.63-8.02,14.51s3.16,11.33,6.53,16.16,7.3,9.28,10.18,14.41c1.73,3.09,3.08,6.41,5.13,9.3s5.02,5.38,8.54,5.79c5.12,.6,9.65-3.23,13-7.16s6.56-8.45,11.46-10.08c7.09-2.36,14.65,2.26,22.12,1.89,7.45-.37,14.12-6.16,16.2-13.32,2.07-7.16-.21-15.25-5.22-20.77-5.11-5.62-12.45-8.54-19.2-12.02-4.5-2.32-9.54-5.18-12.44-9.47-1.66-2.46-2.03-5.64-3.9-7.95-5.73-7.06-17.62-4.72-22.33,2.17Z" style="fill: #e2c4a6; stroke: #3a3632; stroke-miterlimit: 10; stroke-width: 7.57px;"/>
      <path d="M944.09,1406.8c3.39,3.85,8.84,6.1,10.63,10.91,1.72,4.64-.69,9.83,.05,14.72,.89,5.87,6.36,10.26,12.18,11.45s11.85-.27,17.41-2.35,10.88-4.82,16.62-6.36c3.45-.92,7.03-1.41,10.36-2.7s6.51-3.57,7.79-6.9c1.86-4.86-.76-10.23-3.76-14.48s-6.62-8.52-7-13.7c-.54-7.52,5.86-13.75,7.35-21.14,1.49-7.37-2.5-15.33-8.98-19.14-6.48-3.81-14.95-3.59-21.59-.06-6.77,3.59-11.44,10.04-16.52,15.77-3.38,3.82-7.43,8.03-12.35,9.79-2.82,1.01-6.01,.58-8.74,1.83-8.32,3.84-9,16.04-3.44,22.36Z" style="fill: #e2c4a6; stroke: #3a3632; stroke-miterlimit: 10; stroke-width: 7.57px;"/>
      <path d="M1279.41,1340.85c-3.81,3.41-5.99,8.86-10.77,10.68-4.6,1.75-9.79-.6-14.65,.18-5.83,.94-10.16,6.42-11.29,12.22s.37,11.8,2.49,17.31,4.9,10.79,6.48,16.48c.95,3.43,1.46,6.99,2.78,10.29s3.61,6.44,6.94,7.69c4.85,1.81,10.18-.84,14.38-3.87,4.2-3.03,8.42-6.67,13.58-7.08,7.48-.61,13.74,5.71,21.1,7.13,7.35,1.42,15.24-2.62,18.97-9.11s3.45-14.91-.12-21.49c-3.64-6.7-10.09-11.3-15.84-16.31-3.83-3.34-8.06-7.33-9.86-12.21-1.03-2.8-.63-5.98-1.9-8.68-3.9-8.25-16.05-8.82-22.29-3.23Z" style="fill: #e2c4a6; stroke: #3a3632; stroke-miterlimit: 10; stroke-width: 7.57px;"/>
      <path d="M1473.66,1480.38c-.93,5.32,.82,11.27-1.95,15.91-2.67,4.47-8.52,5.91-12.05,9.74-4.23,4.6-4.23,11.98-1.37,17.54s8.03,9.55,13.4,12.73,11.13,5.75,16.17,9.44c3.03,2.22,5.79,4.84,9.04,6.72s7.21,2.99,10.79,1.84c5.21-1.67,7.9-7.36,9.4-12.63,1.5-5.26,2.62-11.04,6.63-14.77,5.81-5.4,15.14-4.25,22.18-7.9,7.03-3.63,10.93-12.15,9.78-19.98s-6.9-14.63-14.17-17.76c-7.41-3.18-15.77-2.77-23.82-3.16-5.36-.26-11.49-.8-16.17-3.68-2.69-1.65-4.44-4.55-7.26-5.96-8.64-4.3-19.09,3.19-20.61,11.91Z" style="fill: #e2c4a6; stroke: #3a3632; stroke-miterlimit: 10; stroke-width: 7.57px;"/>
      <path d="M1538.24,1244.46c.09,5.36,2.92,10.83,1.09,15.87-1.76,4.86-7.2,7.36-9.91,11.76-3.26,5.27-1.87,12.48,1.96,17.35,3.83,4.88,9.62,7.8,15.45,9.89s11.93,3.52,17.53,6.17c3.37,1.6,6.55,3.63,10.07,4.86s7.59,1.56,10.86-.23c4.77-2.61,6.32-8.66,6.79-14.07s.48-11.26,3.69-15.64c4.65-6.35,13.96-6.99,20.14-11.86,6.17-4.86,8.37-13.89,5.79-21.31s-9.48-12.97-17.15-14.65c-7.82-1.71-15.89,.26-23.82,1.39-5.28,.75-11.35,1.37-16.45-.55-2.93-1.1-5.18-3.61-8.19-4.45-9.23-2.57-18.01,6.69-17.85,15.48Z" style="fill: #e2c4a6; stroke: #3a3632; stroke-miterlimit: 10; stroke-width: 7.57px;"/>
      <path d="M1165.84,1011.31c-.49,5.33,1.72,11.07-.65,15.88-2.28,4.63-7.95,6.52-11.12,10.59-3.81,4.88-3.22,12.18,.05,17.44s8.7,8.79,14.26,11.51c5.56,2.71,11.46,4.79,16.73,8.03,3.17,1.95,6.11,4.32,9.47,5.92s7.37,2.38,10.81,.96c5.02-2.07,7.22-7.91,8.28-13.23s1.71-11.12,5.37-15.13c5.31-5.8,14.62-5.41,21.29-9.58,6.65-4.15,9.83-12.88,8.07-20.52-1.76-7.64-7.99-13.91-15.43-16.41-7.57-2.55-15.81-1.48-23.79-1.22-5.32,.17-11.42,.13-16.27-2.34-2.79-1.41-4.75-4.15-7.65-5.31-8.88-3.55-18.61,4.68-19.41,13.42Z" style="fill: #e2c4a6; stroke: #3a3632; stroke-miterlimit: 10; stroke-width: 7.57px;"/>
      <path d="M806.71,1189.06c3.51,3.71,9.01,5.74,10.97,10.46,1.88,4.55-.33,9.8,.58,14.64,1.1,5.8,6.7,9.97,12.53,10.94s11.77-.7,17.22-2.98c5.45-2.28,10.64-5.19,16.29-6.93,3.4-1.05,6.94-1.66,10.2-3.06s6.34-3.78,7.49-7.14c1.68-4.9-1.12-10.15-4.27-14.26-3.14-4.11-6.9-8.22-7.46-13.37-.81-7.45,5.32-13.88,6.54-21.28,1.21-7.38-3.04-15.15-9.63-18.7-6.58-3.55-14.99-3.03-21.47,.72-6.6,3.82-11.01,10.4-15.85,16.28-3.23,3.92-7.1,8.26-11.92,10.19-2.77,1.11-5.96,.79-8.62,2.14-8.14,4.13-8.36,16.28-2.61,22.35Z" style="fill: #e2c4a6; stroke: #3a3632; stroke-miterlimit: 10; stroke-width: 7.57px;"/>
      <path d="M711.69,896.6c2.48,3.96,7.05,6.77,7.95,11.35,.87,4.42-2.06,8.73-2.11,13.23-.06,5.4,4.22,10.15,9.26,12.06s10.68,1.49,15.97,.43,10.48-2.74,15.85-3.29c3.23-.33,6.52-.24,9.7-.91s6.36-2.25,8-5.06c2.38-4.09,.82-9.3-1.26-13.55s-4.7-8.61-4.28-13.33c.61-6.83,7.27-11.49,9.69-17.9,2.41-6.4,0-14.13-5.27-18.49s-12.9-5.41-19.38-3.21c-6.6,2.24-11.74,7.34-17.14,11.75-3.6,2.93-7.85,6.13-12.52,6.99-2.68,.49-5.48-.36-8.11,.37-8.04,2.24-10.42,13.09-6.36,19.57Z" style="fill: #e2c4a6; stroke: #3a3632; stroke-miterlimit: 10; stroke-width: 7.57px;"/>
      <path d="M521.04,976.69c.16,4.38,2.56,8.8,1.15,12.94-1.36,3.99-5.76,6.13-7.9,9.76-2.57,4.36-1.32,10.22,1.88,14.14s7.98,6.21,12.78,7.83,9.8,2.68,14.42,4.75c2.78,1.25,5.41,2.86,8.31,3.8s6.22,1.15,8.87-.37c3.85-2.21,5.02-7.18,5.32-11.6s.21-9.2,2.76-12.83c3.69-5.26,11.28-5.93,16.25-10.01,4.96-4.07,6.61-11.48,4.38-17.5s-7.95-10.43-14.24-11.68c-6.41-1.27-12.97,.47-19.43,1.52-4.3,.7-9.25,1.31-13.44-.18-2.41-.85-4.29-2.86-6.76-3.5-7.58-1.94-14.6,5.76-14.33,12.93Z" style="fill: #e2c4a6; stroke: #3a3632; stroke-miterlimit: 10; stroke-width: 7.57px;"/>
      <path d="M496.27,832.28c-3.45,3.4-5.26,8.66-9.7,10.6-4.27,1.87-9.3-.12-13.86,.84-5.48,1.15-9.32,6.55-10.12,12.09-.8,5.54,.89,11.15,3.16,16.26s5.13,9.99,6.89,15.3c1.06,3.2,1.71,6.54,3.1,9.61,1.39,3.07,3.71,5.93,6.92,6.96,4.67,1.49,9.6-1.27,13.43-4.33s7.66-6.7,12.53-7.33c7.05-.92,13.26,4.77,20.3,5.78,7.02,1,14.3-3.18,17.54-9.49,3.24-6.31,2.57-14.27-1.11-20.33-3.75-6.18-10.07-10.23-15.74-14.71-3.78-2.98-7.97-6.56-9.89-11.1-1.1-2.6-.87-5.63-2.2-8.13-4.07-7.63-15.59-7.61-21.24-2.03Z" style="fill: #e2c4a6; stroke: #3a3632; stroke-miterlimit: 10; stroke-width: 7.57px;"/>
      <path d="M207.44,1174.06c-2.08,4.26-2.05,9.71-5.52,12.94-3.34,3.12-8.63,2.91-12.53,5.28-4.69,2.84-6.49,9.08-5.43,14.46s4.44,10.01,8.2,14,7.98,7.56,11.33,11.9c2.02,2.61,3.7,5.49,5.99,7.87s5.35,4.28,8.65,4.18c4.8-.14,8.46-4.28,11-8.36s4.9-8.67,9.19-10.84c6.22-3.14,13.8,.1,20.63-1.25,6.81-1.35,12.18-7.58,13.12-14.46s-2.26-14.02-7.62-18.43c-5.47-4.49-12.62-6.18-19.32-8.48-4.46-1.53-9.49-3.48-12.74-7.04-1.86-2.05-2.63-4.92-4.67-6.79-6.24-5.73-16.87-1.97-20.28,5.02Z" style="fill: #e2c4a6; stroke: #3a3632; stroke-miterlimit: 10; stroke-width: 7.57px;"/>
      <path d="M96.03,1378.16c-3.14,4.05-4.31,9.83-8.69,12.49-4.22,2.57-9.77,1.18-14.43,2.83-5.59,1.98-8.86,8.18-8.93,14.11-.06,5.93,2.5,11.58,5.6,16.63s6.79,9.76,9.38,15.09c1.56,3.21,2.71,6.63,4.61,9.65s4.73,5.71,8.24,6.33c5.12,.91,9.9-2.68,13.49-6.43,3.59-3.75,7.1-8.11,12.12-9.45,7.27-1.95,14.59,3.15,22.12,3.21,7.51,.07,14.56-5.35,17.07-12.43s.7-15.34-4.02-21.19c-4.8-5.96-12.01-9.32-18.59-13.22-4.39-2.6-9.29-5.77-11.94-10.26-1.52-2.58-1.7-5.79-3.45-8.22-5.34-7.44-17.44-5.79-22.58,.85Z" style="fill: #e2c4a6; stroke: #3a3632; stroke-miterlimit: 10; stroke-width: 7.57px;"/>
      <path d="M897.4,759.94c2.29,4.54,6.96,8.04,7.48,13.1,.5,4.87-3.11,9.25-3.61,14.12-.61,5.85,3.55,11.42,8.83,14s11.43,2.69,17.27,2.07,11.63-1.92,17.51-1.97c3.54-.03,7.09,.4,10.6,0s7.12-1.8,9.18-4.68c2.99-4.19,1.82-10,0-14.81-1.83-4.82-4.23-9.81-3.3-14.88,1.35-7.34,9.03-11.72,12.3-18.43,3.26-6.69,1.42-15.31-3.85-20.58-5.27-5.26-13.44-7.16-20.68-5.43-7.38,1.76-13.46,6.78-19.76,11.01-4.19,2.82-9.12,5.85-14.27,6.32-2.95,.27-5.91-.94-8.83-.42-8.93,1.61-12.61,13.14-8.86,20.57Z" style="fill: #e2c4a6; stroke: #3a3632; stroke-miterlimit: 10; stroke-width: 7.57px;"/>
      <path d="M912.27,615.78c.82,4.37,3.89,8.45,3.09,12.82-.77,4.21-4.86,7.01-6.47,10.98-1.93,4.76,.2,10.45,4,13.91s8.94,5.04,14,5.94,10.23,1.22,15.18,2.61c2.98,.84,5.86,2.06,8.9,2.57s6.42,.22,8.85-1.69c3.53-2.79,3.96-7.95,3.6-12.44s-1.16-9.27,.85-13.29c2.92-5.84,10.44-7.64,14.82-12.48,4.37-4.83,4.92-12.51,1.78-18.21s-9.54-9.28-16.04-9.59c-6.62-.32-12.95,2.41-19.27,4.43-4.21,1.35-9.08,2.69-13.52,1.83-2.54-.5-4.73-2.23-7.31-2.5-7.89-.82-13.79,7.96-12.45,15.12Z" style="fill: #e2c4a6; stroke: #3a3632; stroke-miterlimit: 10; stroke-width: 7.57px;"/>
      <path d="M746.77,520.14c-3.11,3.68-4.44,9.05-8.67,11.37-4.07,2.24-9.23,.71-13.67,2.07-5.33,1.63-8.66,7.32-8.96,12.89s1.88,10.97,4.58,15.84,5.98,9.44,8.2,14.55c1.33,3.08,2.28,6.33,3.93,9.25s4.21,5.55,7.48,6.28c4.77,1.06,9.4-2.11,12.93-5.49s7-7.32,11.76-8.39c6.91-1.54,13.57,3.55,20.64,3.92,7.05,.37,13.89-4.43,16.54-10.98,2.65-6.54,1.28-14.38-2.91-20.06-4.27-5.79-10.9-9.24-16.92-13.17-4.01-2.62-8.49-5.8-10.8-10.12-1.33-2.48-1.36-5.51-2.91-7.86-4.72-7.2-16.14-6.15-21.24-.12Z" style="fill: #e2c4a6; stroke: #3a3632; stroke-miterlimit: 10; stroke-width: 7.57px;"/>
      <path d="M994.14,408.18c-3,4.24-3.92,10.12-8.24,13-4.16,2.78-9.83,1.62-14.46,3.49-5.56,2.25-8.6,8.66-8.4,14.65,.2,5.99,3.04,11.59,6.39,16.56s7.29,9.57,10.14,14.84c1.72,3.18,3.03,6.58,5.08,9.55s5.03,5.56,8.61,6.04c5.21,.7,9.88-3.14,13.35-7.09s6.82-8.5,11.83-10.09c7.26-2.29,14.89,2.54,22.5,2.28,7.59-.26,14.48-6.04,16.71-13.31,2.23-7.26,.03-15.54-4.99-21.24-5.12-5.81-12.54-8.9-19.37-12.55-4.55-2.43-9.64-5.43-12.52-9.85-1.65-2.54-1.97-5.78-3.85-8.16-5.73-7.28-17.88-5.09-22.78,1.85Z" style="fill: #e2c4a6; stroke: #3a3632; stroke-miterlimit: 10; stroke-width: 7.57px;"/>
      <path d="M1184.19,598.7c2.99,3.53,7.87,5.64,9.41,10.01,1.48,4.21-.78,8.85-.2,13.28,.71,5.31,5.57,9.36,10.8,10.52s10.69-.05,15.74-1.84,9.89-4.17,15.09-5.47c3.13-.78,6.36-1.16,9.39-2.26s5.92-3.11,7.13-6.1c1.76-4.35-.52-9.24-3.16-13.12-2.64-3.88-5.83-7.79-6.09-12.47-.37-6.79,5.51-12.3,6.97-18.94,1.46-6.62-2-13.86-7.79-17.4s-13.42-3.48-19.47-.41c-6.16,3.13-10.48,8.86-15.16,13.95-3.11,3.39-6.83,7.12-11.29,8.63-2.56,.86-5.43,.42-7.91,1.51-7.57,3.33-8.37,14.32-3.47,20.11Z" style="fill: #e2c4a6; stroke: #3a3632; stroke-miterlimit: 10; stroke-width: 7.57px;"/>
      <path d="M1320.75,675.37c1.82,5.11,6.3,9.43,6.18,14.85-.12,5.22-4.52,9.38-5.7,14.47-1.42,6.11,2.24,12.56,7.48,15.99s11.74,4.37,18,4.48,12.56-.49,18.79,.24c3.75,.44,7.45,1.36,11.22,1.4s7.78-.96,10.33-3.73c3.72-4.04,3.25-10.34,1.96-15.68-1.29-5.34-3.18-10.94-1.52-16.18,2.4-7.59,11.11-11.21,15.46-17.87,4.34-6.65,3.53-16.02-1.34-22.29-4.87-6.27-13.27-9.36-21.16-8.49-8.04,.89-15.15,5.38-22.37,9.03-4.81,2.43-10.43,4.98-15.94,4.79-3.16-.11-6.13-1.78-9.29-1.61-9.67,.52-15.09,12.23-12.1,20.6Z" style="fill: #e2c4a6; stroke: #3a3632; stroke-miterlimit: 10; stroke-width: 7.57px;"/>
      <path d="M1310.12,905.49c-1.66,5.1-.79,11.19-4.16,15.35-3.25,4.01-9.21,4.6-13.21,7.86-4.8,3.92-5.85,11.17-3.83,17.03s6.53,10.52,11.36,14.4,10.12,7.22,14.54,11.56c2.66,2.61,5,5.57,7.93,7.88s6.66,3.96,10.34,3.34c5.36-.9,8.8-6.11,11.02-11.07s4.14-10.48,8.6-13.57c6.47-4.48,15.47-2.03,22.91-4.62,7.42-2.57,12.45-10.39,12.44-18.24s-4.71-15.35-11.41-19.45c-6.82-4.17-15.1-4.96-22.95-6.48-5.23-1.01-11.17-2.42-15.36-5.9-2.4-2-3.71-5.1-6.29-6.88-7.88-5.44-19.2,.43-21.93,8.78Z" style="fill: #e2c4a6; stroke: #3a3632; stroke-miterlimit: 10; stroke-width: 7.57px;"/>
      <path d="M1586.06,929.98c-3.03,3.16-4.54,7.96-8.5,9.83-3.82,1.8-8.41,.13-12.51,1.11-4.92,1.18-8.26,6.16-8.85,11.19-.58,5.03,1.09,10.06,3.27,14.63s4.89,8.9,6.62,13.66c1.04,2.87,1.71,5.87,3.05,8.61s3.51,5.27,6.43,6.12c4.26,1.23,8.65-1.39,12.04-4.25,3.39-2.87,6.76-6.25,11.14-6.95,6.35-1.01,12.11,3.98,18.5,4.71,6.37,.73,12.85-3.24,15.62-9.03,2.77-5.79,1.96-12.97-1.52-18.36-3.55-5.49-9.37-9-14.61-12.9-3.49-2.6-7.37-5.73-9.23-9.79-1.06-2.32-.93-5.07-2.19-7.29-3.87-6.8-14.29-6.48-19.26-1.3Z" style="fill: #e2c4a6; stroke: #3a3632; stroke-miterlimit: 10; stroke-width: 7.57px;"/>
      <path d="M1717.32,1150.73c1.25,5,5.09,9.5,4.47,14.62-.6,4.93-5.14,8.45-6.72,13.15-1.9,5.64,.96,12.08,5.6,15.81s10.7,5.21,16.61,5.9c5.92,.69,11.93,.7,17.75,1.96,3.5,.76,6.92,1.97,10.48,2.36s7.44-.19,10.12-2.58c3.89-3.47,4.03-9.48,3.3-14.64s-1.99-10.64,.06-15.44c2.97-6.96,11.54-9.57,16.27-15.47,4.72-5.89,4.82-14.82,.79-21.2s-11.69-10.08-19.23-9.98c-7.69,.1-14.82,3.69-21.99,6.47-4.77,1.85-10.32,3.75-15.52,3.06-2.98-.4-5.63-2.25-8.63-2.38-9.19-.4-15.4,10.17-13.35,18.36Z" style="fill: #e2c4a6; stroke: #3a3632; stroke-miterlimit: 10; stroke-width: 7.57px;"/>
      <path d="M1759.79,1281.82c.7,4.83,3.88,9.44,2.81,14.2-1.03,4.59-5.65,7.47-7.6,11.75-2.34,5.13-.26,11.48,3.76,15.44,4.02,3.96,9.58,5.94,15.09,7.16s11.17,1.8,16.54,3.55c3.23,1.05,6.33,2.52,9.65,3.23s7.03,.54,9.78-1.46c4-2.9,4.71-8.54,4.52-13.48s-.86-10.22,1.54-14.55c3.47-6.27,11.8-7.91,16.82-13.02,5.01-5.1,5.96-13.51,2.78-19.9-3.19-6.4-10.04-10.62-17.16-11.25-7.25-.65-14.32,2.06-21.34,3.99-4.68,1.29-10.09,2.54-14.92,1.39-2.77-.66-5.09-2.66-7.91-3.07-8.62-1.26-15.49,8.11-14.34,16.02Z" style="fill: #e2c4a6; stroke: #3a3632; stroke-miterlimit: 10; stroke-width: 7.57px;"/>
      <path d="M1846.11,1397.05c3.05,4.25,8.36,7.08,9.68,12.14,1.28,4.88-1.7,9.9-1.44,14.94,.31,6.04,5.42,11.06,11.2,12.85s12.05,.93,17.9-.63c5.85-1.56,11.53-3.8,17.5-4.78,3.59-.59,7.27-.72,10.78-1.69,3.51-.97,6.96-2.96,8.6-6.21,2.38-4.74,.27-10.46-2.35-15.07s-5.86-9.31-5.72-14.61c.21-7.68,7.33-13.36,9.59-20.7,2.26-7.33-.99-15.8-7.18-20.32-6.19-4.52-14.8-5.15-21.9-2.25-7.23,2.96-12.62,9.03-18.35,14.33-3.82,3.53-8.35,7.4-13.52,8.69-2.96,.74-6.16-.02-9.05,.98-8.83,3.06-10.75,15.37-5.75,22.33Z" style="fill: #e2c4a6; stroke: #3a3632; stroke-miterlimit: 10; stroke-width: 7.57px;"/>
      <path d="M1605.88,1468.44c.67,4.93,3.87,9.67,2.73,14.52-1.1,4.67-5.84,7.57-7.87,11.92-2.43,5.22-.37,11.71,3.69,15.79s9.72,6.15,15.32,7.45c5.61,1.3,11.38,1.95,16.84,3.79,3.28,1.11,6.44,2.64,9.82,3.39s7.17,.61,10-1.39c4.11-2.92,4.89-8.67,4.74-13.72s-.77-10.44,1.71-14.83c3.6-6.36,12.12-7.96,17.29-13.12,5.16-5.15,6.22-13.72,3.03-20.28s-10.15-10.93-17.4-11.65c-7.4-.73-14.63,1.96-21.82,3.86-4.79,1.27-10.32,2.5-15.24,1.28-2.82-.7-5.17-2.77-8.04-3.21-8.79-1.37-15.88,8.12-14.79,16.21Z" style="fill: #e2c4a6; stroke: #3a3632; stroke-miterlimit: 10; stroke-width: 7.57px;"/>
      <path d="M592.07,1517.71c2.66,3.58,7.21,5.91,8.42,10.2,1.16,4.14-1.3,8.46-1.01,12.74,.35,5.14,4.77,9.34,9.72,10.78s10.28,.62,15.23-.79,9.76-3.39,14.83-4.31c3.05-.55,6.18-.72,9.16-1.59s5.88-2.62,7.23-5.41c1.96-4.07,.08-8.91-2.22-12.8s-5.12-7.84-5.07-12.36c.07-6.54,6.06-11.48,7.88-17.76,1.82-6.27-1.06-13.44-6.4-17.2-5.34-3.76-12.68-4.18-18.68-1.61-6.11,2.62-10.62,7.86-15.43,12.46-3.2,3.06-7.01,6.42-11.39,7.59-2.51,.67-5.25,.07-7.69,.96-7.48,2.73-8.94,13.23-4.58,19.1Z" style="fill: #e2c4a6; stroke: #3a3632; stroke-miterlimit: 10; stroke-width: 7.57px;"/>
      <path d="M267.37,1477.79c1.52,4.19,5.21,7.73,5.13,12.18-.08,4.29-3.68,7.72-4.63,11.91-1.14,5.02,1.89,10.31,6.21,13.11s9.66,3.54,14.81,3.62c5.15,.07,10.32-.45,15.44,.13,3.08,.35,6.12,1.09,9.22,1.11s6.38-.82,8.48-3.11c3.04-3.33,2.63-8.51,1.55-12.89s-2.65-8.98-1.31-13.29c1.94-6.24,9.09-9.25,12.64-14.74,3.54-5.48,2.84-13.17-1.19-18.3s-10.94-7.64-17.42-6.9c-6.6,.76-12.42,4.48-18.34,7.5-3.94,2.01-8.55,4.13-13.08,4-2.6-.08-5.04-1.44-7.64-1.29-7.94,.47-12.35,10.1-9.87,16.97Z" style="fill: #e2c4a6; stroke: #3a3632; stroke-miterlimit: 10; stroke-width: 7.57px;"/>
      <path d="M606.27,1384c-2.51,3.99-3.06,9.38-6.84,12.21-3.64,2.73-8.84,1.95-12.96,3.88-4.94,2.31-7.38,8.28-6.91,13.72,.47,5.43,3.33,10.37,6.61,14.72s7.09,8.33,9.94,12.98c1.71,2.8,3.08,5.82,5.08,8.42s4.84,4.8,8.11,5.06c4.76,.38,8.82-3.34,11.77-7.09s5.77-8.06,10.25-9.74c6.48-2.44,13.64,1.57,20.54,.96,6.88-.61,12.85-6.2,14.52-12.9,1.67-6.7-.74-14.11-5.57-19.04-4.93-5.02-11.83-7.46-18.2-10.44-4.25-1.99-9.02-4.45-11.85-8.32-1.62-2.22-2.08-5.15-3.89-7.22-5.56-6.33-16.48-3.74-20.59,2.8Z" style="fill: #e2c4a6; stroke: #3a3632; stroke-miterlimit: 10; stroke-width: 7.57px;"/>
      <path d="M800.54,1505.01c-.35,4.75,1.7,9.82-.32,14.13-1.95,4.15-6.97,5.93-9.73,9.6-3.31,4.4-2.67,10.89,.32,15.51,2.99,4.62,7.88,7.68,12.87,10.01s10.27,4.08,15.01,6.88c2.85,1.69,5.5,3.74,8.52,5.11s6.59,1.99,9.63,.68c4.43-1.92,6.29-7.15,7.15-11.9s1.34-9.92,4.54-13.54c4.63-5.24,12.92-5.05,18.79-8.86,5.85-3.8,8.54-11.62,6.85-18.39-1.69-6.77-7.33-12.24-13.99-14.35-6.78-2.15-14.09-1.06-21.19-.7-4.73,.24-10.15,.29-14.51-1.82-2.5-1.21-4.29-3.61-6.89-4.6-7.96-3.02-16.48,4.46-17.05,12.25Z" style="fill: #e2c4a6; stroke: #3a3632; stroke-miterlimit: 10; stroke-width: 7.57px;"/>
      <path d="M1399.46,1110.89c-7.17-3.07-14.61-4.37-21.42-8.33s-13.52-8.12-21.52-6.05c-5.35,1.38-10.11,5.57-11.32,10.96-1.35,6.07,1.75,12.68-.39,18.51-2.86,7.79-13.65,10.52-16.15,18.43-1.55,4.9,.77,10.36,4.46,13.93,3.69,3.57,8.54,5.65,13.28,7.63,3.19,1.34,6.44,2.68,9.89,3.03s7.17-.44,9.63-2.87c3.03-2.99,3.57-7.73,6.19-11.08,4.06-5.17,11.67-5.56,18.21-4.92s13.68,1.7,19.24-1.8c3.83-2.41,6.23-6.75,6.79-11.23,.56-4.49-.58-9.08-2.68-13.08-3.06-5.82-8.16-10.55-14.21-13.13Z" style="fill: #e2c4a6; stroke: #3a3632; stroke-miterlimit: 10; stroke-width: 7.57px;"/>
      <path d="M1276.02,1247.19c-5.56-4.99-11.91-8.46-16.87-14.15s-9.77-11.52-17.66-12.11c-5.28-.39-10.89,1.94-13.64,6.47-3.09,5.09-2.31,12.04-6.05,16.68-4.99,6.18-15.62,5.35-20.32,11.75-2.91,3.97-2.48,9.63-.23,14.01,2.25,4.38,6.01,7.75,9.7,11.01,2.48,2.19,5.02,4.42,8.04,5.79s6.64,1.81,9.62,.36c3.67-1.78,5.62-5.92,9.03-8.15,5.27-3.44,12.3-1.45,18.04,1.13,5.74,2.58,11.89,5.75,18.01,4.29,4.21-1.01,7.72-4.2,9.61-8.1s2.26-8.42,1.59-12.69c-.98-6.22-4.16-12.08-8.85-16.29Z" style="fill: #e2c4a6; stroke: #3a3632; stroke-miterlimit: 10; stroke-width: 7.57px;"/>
      <path d="M696.11,1075.13c-7.26,4.25-13.17,9.87-20.98,13.24-7.76,3.34-15.72,6.52-19.07,14.79-2.24,5.53-1.66,12.35,2.25,16.86,4.4,5.07,12.12,6.62,15.81,12.23,4.92,7.48,.36,18.6,5.62,25.85,3.25,4.49,9.48,5.98,14.95,5.07,5.47-.91,10.38-3.79,15.15-6.62,3.21-1.91,6.47-3.87,8.98-6.63s4.22-6.5,3.7-10.2c-.65-4.55-4.42-8.06-5.64-12.49-1.88-6.84,2.67-13.69,7.42-18.96,4.75-5.27,10.26-10.78,10.8-17.85,.37-4.87-1.85-9.73-5.38-13.1s-8.25-5.32-13.07-6.07c-7.02-1.09-14.39,.31-20.52,3.9Z" style="fill: #e2c4a6; stroke: #3a3632; stroke-miterlimit: 10; stroke-width: 7.57px;"/>
      <path d="M357.9,945.16c-7.02,3.91-12.77,9.17-20.29,12.22-7.47,3.04-15.14,5.92-18.49,13.74-2.24,5.23-1.83,11.76,1.81,16.13,4.1,4.93,11.44,6.55,14.85,11.98,4.55,7.24-.02,17.76,4.86,24.78,3.02,4.35,8.93,5.89,14.17,5.13,5.24-.76,9.98-3.41,14.59-6.03,3.1-1.76,6.25-3.57,8.7-6.15s4.16-6.12,3.73-9.66c-.53-4.35-4.06-7.78-5.14-12.03-1.66-6.57,2.82-13.02,7.45-17.96,4.64-4.94,10-10.09,10.65-16.83,.45-4.64-1.58-9.33-4.88-12.61-3.3-3.28-7.77-5.24-12.36-6.05-6.68-1.18-13.74,.02-19.66,3.32Z" style="fill: #e2c4a6; stroke: #3a3632; stroke-miterlimit: 10; stroke-width: 7.57px;"/>
      <path d="M635.07,788.8c-6.31,5.29-11.09,11.68-18.07,16.21s-14.1,8.87-15.97,17.39c-1.25,5.7,.42,12.19,4.93,15.89,5.08,4.17,12.78,4.4,17.25,9.2,5.97,6.41,3.4,17.88,9.66,24.01,3.87,3.8,10.13,4.21,15.25,2.44s9.39-5.35,13.52-8.87c2.78-2.37,5.6-4.79,7.58-7.87s3.01-6.96,1.89-10.44c-1.37-4.28-5.58-7.05-7.49-11.12-2.94-6.29,.33-13.65,4.05-19.51s8.13-12.08,7.49-18.99c-.44-4.75-3.38-9.08-7.34-11.75s-8.83-3.78-13.6-3.71c-6.95,.1-13.83,2.66-19.15,7.12Z" style="fill: #e2c4a6; stroke: #3a3632; stroke-miterlimit: 10; stroke-width: 7.57px;"/>
    </g>
    <path d="M1265.31,1504.36c-5.42,6.4-9.12,13.63-15.35,19.38-6.19,5.71-12.63,11.33-13.04,20.2-.28,5.94,2.52,12.16,7.68,15.11,5.81,3.31,13.59,2.21,18.91,6.27,7.1,5.41,6.49,17.36,13.83,22.44,4.54,3.15,10.89,2.49,15.73-.17s8.51-6.99,12.05-11.23c2.39-2.86,4.8-5.77,6.25-9.2s1.82-7.51,.11-10.81c-2.11-4.06-6.82-6.12-9.43-9.88-4.03-5.81-2.01-13.76,.71-20.28s6.08-13.52,4.25-20.35c-1.26-4.7-4.96-8.54-9.39-10.54-4.43-2-9.52-2.28-14.3-1.39-6.96,1.3-13.43,5.05-18,10.45Z" style="fill: #e2c4a6; stroke: #3a3632; stroke-miterlimit: 10; stroke-width: 7.57px;"/>
    <path d="M1106.38,792.23c-6.81,1.17-12.38,5.18-14.02,13.54-.59,2.99-.39,6.14-1.45,8.99-2.14,5.77-8.54,8.53-13.15,12.61-5.31,4.7-8.37,13.05-4.47,18.97,3,4.54,8.95,6.15,12.65,10.14,3.39,3.66,4.57,9.01,8.13,12.51,3.65,3.59,9.25,4.57,14.31,3.79,8.21-1.27,18.82-6.01,25.89-10.47,4.9-3.09,8.97-7.45,11.31-12.83,1.17-2.69,1.59-5.83,.49-8.55-.84-2.06-2.53-3.9-2.49-6.13,.04-2.03,1.5-3.69,2.56-5.42,6.3-10.26-3.03-23.09-10.97-29.33-6.9-5.42-19.1-9.5-28.8-7.83Z" style="fill: #e2c4a6; stroke: #3a3632; stroke-miterlimit: 10; stroke-width: 7.57px;"/>
    <path d="M924.34,942.23c-5.96,3.64-9.71,9.49-8.14,17.96,.56,3.03,1.92,5.92,1.99,9,.14,6.23-4.85,11.2-7.67,16.76-3.24,6.4-3.01,15.4,2.87,19.5,4.51,3.15,10.71,2.44,15.68,4.82,4.55,2.18,7.66,6.77,12.31,8.73,4.77,2.01,10.4,.86,14.87-1.77,7.25-4.26,15.46-12.67,20.45-19.5,3.46-4.73,5.66-10.35,5.86-16.28,.1-2.96-.68-6.08-2.73-8.22-1.56-1.63-3.84-2.72-4.63-4.83-.72-1.92,.03-4.03,.39-6.06,2.11-12-11.46-20.59-21.25-23.5-8.51-2.53-21.5-1.82-30,3.37Z" style="fill: #e2c4a6; stroke: #3a3632; stroke-miterlimit: 10; stroke-width: 7.57px;"/>
    <path d="M402.18,1109.06c-4.09-5.8-10.27-9.21-18.75-7.05-3.03,.77-5.87,2.34-8.99,2.61-6.31,.55-11.68-4.17-17.5-6.65-6.7-2.85-15.81-2.02-19.58,4.22-2.89,4.78-1.76,11.02-3.84,16.21-1.91,4.76-6.35,8.21-8.03,13.06-1.72,4.97-.17,10.6,2.79,14.95,4.8,7.06,13.88,14.82,21.13,19.42,5.03,3.19,10.87,5.05,16.9,4.85,3.01-.1,6.12-1.09,8.15-3.32,1.55-1.69,2.5-4.07,4.59-5.01,1.9-.86,4.09-.24,6.16-.01,12.3,1.33,20.1-12.99,22.4-23.11,2-8.79,.4-21.92-5.43-30.18Z" style="fill: #e2c4a6; stroke: #3a3632; stroke-miterlimit: 10; stroke-width: 7.57px;"/>
    <path d="M389.88,1461.48c-5.18,4.08-8.04,9.98-5.62,17.75,.87,2.78,2.46,5.34,2.87,8.21,.82,5.83-3.29,11.04-5.31,16.57-2.32,6.36-1.1,14.77,4.87,17.96,4.58,2.45,10.32,1.09,15.23,2.76,4.51,1.54,7.94,5.49,12.52,6.81,4.7,1.35,9.85-.36,13.74-3.32,6.32-4.8,13.08-13.61,16.99-20.57,2.71-4.82,4.15-10.34,3.67-15.92-.24-2.79-1.32-5.62-3.48-7.4-1.64-1.35-3.9-2.12-4.88-4.01-.89-1.72-.42-3.79-.31-5.72,.63-11.48-13.05-18.02-22.55-19.65-8.26-1.42-20.36,.7-27.75,6.52Z" style="fill: #e2c4a6; stroke: #3a3632; stroke-miterlimit: 10; stroke-width: 7.57px;"/>
    <path d="M1490.67,1074.67c-6.61-.04-12.55,2.79-15.51,10.4-1.06,2.72-1.41,5.72-2.89,8.23-3,5.08-9.49,6.59-14.53,9.67-5.8,3.54-10.1,10.89-7.42,17.13,2.06,4.78,7.4,7.31,10.21,11.7,2.58,4.03,2.79,9.27,5.55,13.17,2.83,4,7.95,5.88,12.85,5.99,7.96,.19,18.76-2.49,26.18-5.49,5.14-2.08,9.72-5.51,12.84-10.18,1.56-2.34,2.49-5.23,1.91-7.98-.44-2.09-1.73-4.1-1.31-6.2,.38-1.91,2.04-3.23,3.33-4.68,7.68-8.6,1.05-22.28-5.38-29.51-5.58-6.28-16.4-12.19-25.82-12.25Z" style="fill: #e2c4a6; stroke: #3a3632; stroke-miterlimit: 10; stroke-width: 7.57px;"/>
    <path d="M1471.85,797.38c-5.29,2.63-8.88,7.29-8.17,14.54,.25,2.59,1.18,5.13,1.02,7.73-.34,5.26-4.91,9.09-7.68,13.57-3.2,5.16-3.66,12.76,1,16.65,3.57,2.98,8.85,2.84,12.86,5.21,3.68,2.17,5.96,6.26,9.74,8.26,3.87,2.04,8.71,1.48,12.66-.4,6.42-3.06,13.96-9.55,18.66-14.94,3.26-3.73,5.53-8.31,6.13-13.29,.3-2.49-.13-5.17-1.7-7.13-1.19-1.49-3.03-2.57-3.55-4.41-.47-1.67,.32-3.4,.77-5.07,2.65-9.96-8.15-18.19-16.19-21.35-6.98-2.75-17.99-3.1-25.53,.65Z" style="fill: #e2c4a6; stroke: #3a3632; stroke-miterlimit: 10; stroke-width: 7.57px;"/>
    <path d="M1135.45,740.41c-5.57,2.14-9.61,6.47-9.6,13.83,0,2.63,.7,5.27,.28,7.86-.85,5.25-5.8,8.66-9.02,12.9-3.7,4.88-4.9,12.47-.59,16.82,3.3,3.34,8.62,3.7,12.42,6.46,3.49,2.53,5.39,6.86,8.99,9.23,3.69,2.43,8.6,2.32,12.76,.81,6.74-2.46,14.93-8.26,20.18-13.22,3.63-3.44,6.35-7.82,7.43-12.77,.54-2.47,.37-5.21-1.02-7.33-1.06-1.61-2.8-2.88-3.14-4.77-.31-1.72,.65-3.38,1.26-5.03,3.62-9.75-6.45-19.05-14.22-23-6.75-3.43-17.78-4.84-25.71-1.79Z" style="fill: #fffce4; stroke: #3a3632; stroke-miterlimit: 10; stroke-width: 7.57px;"/>
    <path d="M1044.25,614.57c-6.66,1.29-12.05,5.33-13.5,13.57-.52,2.94-.27,6.04-1.25,8.86-1.99,5.71-8.22,8.54-12.66,12.64-5.12,4.72-7.96,12.98-4.01,18.71,3.03,4.4,8.91,5.86,12.62,9.71,3.4,3.53,4.66,8.76,8.23,12.12,3.65,3.45,9.17,4.31,14.12,3.44,8.04-1.41,18.36-6.27,25.22-10.78,4.75-3.13,8.66-7.49,10.86-12.82,1.1-2.66,1.45-5.76,.31-8.4-.86-2.01-2.56-3.78-2.57-5.97,0-1.99,1.4-3.66,2.41-5.37,5.99-10.19-3.43-22.61-11.34-28.58-6.88-5.19-18.94-8.95-28.43-7.12Z" style="fill: #fffce4; stroke: #3a3632; stroke-miterlimit: 10; stroke-width: 7.57px;"/>
    <path d="M1329.84,762.44c-4.7,3.38-7.43,8.44-5.6,15.34,.65,2.47,1.95,4.77,2.2,7.31,.5,5.14-3.31,9.55-5.29,14.32-2.28,5.49-1.53,12.91,3.59,15.93,3.92,2.32,9,1.35,13.25,3.01,3.9,1.52,6.75,5.11,10.71,6.45,4.06,1.37,8.65,.06,12.17-2.38,5.72-3.97,11.98-11.43,15.68-17.38,2.56-4.12,4.03-8.91,3.83-13.81-.1-2.45-.94-4.98-2.77-6.62-1.39-1.25-3.34-2.01-4.12-3.7-.72-1.54-.22-3.34-.06-5.03,.99-10.04-10.75-16.29-19.01-18.09-7.18-1.56-17.88-.16-24.57,4.65Z" style="fill: #fffce4; stroke: #3a3632; stroke-miterlimit: 10; stroke-width: 7.57px;"/>
    <path d="M1027.05,925.27c-4.85,3.65-7.6,9.02-5.54,16.21,.74,2.57,2.15,4.96,2.47,7.62,.64,5.38-3.26,10.09-5.23,15.14-2.27,5.8-1.32,13.57,4.11,16.63,4.16,2.35,9.47,1.22,13.96,2.86,4.12,1.51,7.19,5.21,11.37,6.52,4.29,1.34,9.07-.13,12.71-2.77,5.91-4.29,12.31-12.25,16.06-18.57,2.6-4.38,4.03-9.43,3.71-14.57-.16-2.57-1.09-5.2-3.05-6.88-1.48-1.28-3.54-2.03-4.41-3.79-.78-1.6-.31-3.49-.17-5.27,.82-10.55-11.63-16.85-20.34-18.55-7.57-1.48-18.75,.23-25.66,5.42Z" style="fill: #fffce4; stroke: #3a3632; stroke-miterlimit: 10; stroke-width: 7.57px;"/>
    <path d="M802.92,964.2c-4.24-4.25-9.88-6.21-16.65-3.19-2.42,1.08-4.56,2.8-7.12,3.47-5.18,1.37-10.34-1.8-15.55-3.03-6-1.42-13.47,.58-15.72,6.33-1.73,4.4,.11,9.45-.87,14.07-.91,4.25-4.12,7.76-4.82,12.05-.72,4.39,1.38,8.87,4.47,12.07,5.02,5.2,13.7,10.37,20.41,13.17,4.65,1.94,9.79,2.65,14.79,1.62,2.5-.51,4.95-1.79,6.32-3.93,1.05-1.63,1.5-3.75,3.11-4.84,1.46-.99,3.38-.78,5.14-.89,10.45-.65,14.9-13.72,15.36-22.49,.4-7.62-2.81-18.34-8.86-24.4Z" style="fill: #fffce4; stroke: #3a3632; stroke-miterlimit: 10; stroke-width: 7.57px;"/>
    <path d="M529.73,1063.64c-5.72,3.71-9.21,9.51-7.46,17.73,.63,2.94,2.03,5.72,2.17,8.72,.3,6.07-4.43,11.05-7.03,16.54-2.99,6.32-2.53,15.09,3.31,18.94,4.48,2.95,10.51,2.1,15.41,4.28,4.5,2.01,7.64,6.4,12.23,8.19,4.7,1.84,10.16,.56,14.45-2.12,6.95-4.34,14.74-12.76,19.42-19.55,3.25-4.7,5.25-10.24,5.28-16.03,.02-2.89-.82-5.91-2.88-7.94-1.56-1.55-3.81-2.55-4.64-4.59-.75-1.85-.07-3.93,.22-5.91,1.74-11.75-11.71-19.77-21.33-22.35-8.36-2.24-21.01-1.2-29.16,4.08Z" style="fill: #fffce4; stroke: #3a3632; stroke-miterlimit: 10; stroke-width: 7.57px;"/>
    <path d="M423.63,999.07c-5.93,1.31-10.65,5.05-11.76,12.46-.39,2.65-.1,5.4-.91,7.95-1.65,5.16-7.15,7.83-11.03,11.6-4.47,4.34-6.82,11.8-3.15,16.83,2.81,3.86,8.11,5.03,11.51,8.38,3.12,3.08,4.38,7.72,7.64,10.65,3.35,3,8.3,3.64,12.71,2.75,7.16-1.45,16.28-6.04,22.3-10.24,4.18-2.91,7.57-6.91,9.41-11.72,.92-2.41,1.16-5.18,.08-7.52-.82-1.78-2.38-3.32-2.44-5.28-.05-1.78,1.17-3.3,2.03-4.86,5.12-9.26-3.6-20.14-10.82-25.3-6.27-4.48-17.15-7.56-25.59-5.7Z" style="fill: #fffce4; stroke: #3a3632; stroke-miterlimit: 10; stroke-width: 7.57px;"/>
    <path d="M259.28,1254.39c-6.29,1.76-11.15,6.07-11.89,14.09-.26,2.87,.22,5.81-.5,8.6-1.46,5.64-7.21,8.84-11.16,13.13-4.54,4.93-6.62,13.09-2.37,18.28,3.26,3.98,9.02,4.92,12.88,8.32,3.54,3.12,5.17,8.04,8.85,10.99,3.78,3.02,9.14,3.41,13.83,2.19,7.6-1.99,17.13-7.47,23.36-12.34,4.31-3.38,7.73-7.88,9.41-13.16,.84-2.64,.94-5.64-.36-8.09-.99-1.86-2.76-3.42-2.94-5.52-.16-1.91,1.06-3.62,1.89-5.35,4.94-10.26-5.07-21.43-13.14-26.54-7.01-4.44-18.88-7.1-27.85-4.59Z" style="fill: #fffce4; stroke: #3a3632; stroke-miterlimit: 10; stroke-width: 7.57px;"/>
    <path d="M224.24,1338.44c-6.32-1.79-12.75-.63-17.59,5.86-1.73,2.32-2.86,5.11-4.94,7.12-4.21,4.07-10.83,3.81-16.46,5.42-6.48,1.86-12.54,7.76-11.62,14.44,.71,5.12,5.16,8.95,6.69,13.89,1.41,4.54,.22,9.61,1.84,14.07,1.66,4.58,6.06,7.72,10.72,9.13,7.57,2.28,18.62,2.57,26.52,1.65,5.47-.64,10.76-2.71,14.97-6.36,2.11-1.83,3.76-4.35,3.93-7.14,.13-2.12-.57-4.38,.38-6.28,.86-1.73,2.81-2.55,4.43-3.6,9.62-6.21,6.88-21.06,2.63-29.67-3.69-7.48-12.49-15.99-21.5-18.54Z" style="fill: #fffce4; stroke: #3a3632; stroke-miterlimit: 10; stroke-width: 7.57px;"/>
    <path d="M344.46,1379.67c-4.68-3.34-10.31-4.3-16.23-.38-2.11,1.4-3.87,3.36-6.18,4.4-4.68,2.11-10.05-.07-15.16-.41-5.89-.39-12.63,2.68-13.85,8.45-.93,4.43,1.6,8.9,1.39,13.42-.19,4.15-2.66,7.98-2.65,12.13,.01,4.26,2.7,8.16,6.12,10.69,5.56,4.12,14.57,7.63,21.35,9.21,4.7,1.1,9.66,.96,14.22-.8,2.28-.88,4.39-2.47,5.35-4.71,.73-1.71,.83-3.78,2.17-5.06,1.22-1.16,3.07-1.27,4.71-1.65,9.76-2.27,11.91-15.31,10.96-23.66-.82-7.26-5.55-16.87-12.21-21.64Z" style="fill: #fffce4; stroke: #3a3632; stroke-miterlimit: 10; stroke-width: 7.57px;"/>
    <path d="M550.28,1306.51c-6.51-1.89-13.16-.75-18.2,5.92-1.8,2.38-2.99,5.25-5.15,7.31-4.38,4.17-11.21,3.85-17.03,5.47-6.71,1.87-13.01,7.92-12.11,14.82,.69,5.29,5.26,9.28,6.8,14.39,1.42,4.69,.16,9.92,1.79,14.54,1.68,4.74,6.19,8.02,10.99,9.5,7.8,2.41,19.2,2.8,27.36,1.91,5.65-.62,11.13-2.71,15.51-6.45,2.19-1.87,3.92-4.46,4.11-7.34,.15-2.18-.56-4.53,.44-6.48,.91-1.77,2.92-2.62,4.6-3.68,9.98-6.34,7.26-21.68,2.95-30.61-3.75-7.75-12.77-16.61-22.05-19.3Z" style="fill: #fffce4; stroke: #3a3632; stroke-miterlimit: 10; stroke-width: 7.57px;"/>
    <path d="M524.08,1488.03c-6.99-.32-13.38,2.43-16.82,10.35-1.23,2.83-1.73,5.99-3.4,8.58-3.38,5.25-10.31,6.58-15.76,9.62-6.28,3.5-11.13,11.1-8.55,17.8,1.98,5.14,7.53,8.03,10.31,12.79,2.56,4.36,2.56,9.91,5.33,14.15,2.83,4.34,8.16,6.54,13.33,6.87,8.41,.53,19.94-1.85,27.91-4.72,5.52-1.99,10.5-5.42,13.99-10.23,1.74-2.41,2.85-5.43,2.34-8.36-.38-2.23-1.66-4.41-1.13-6.61,.48-2,2.29-3.33,3.72-4.81,8.47-8.78,2.03-23.51-4.47-31.42-5.65-6.87-16.84-13.56-26.8-14.01Z" style="fill: #fffce4; stroke: #3a3632; stroke-miterlimit: 10; stroke-width: 7.57px;"/>
    <path d="M481.26,1384.96c-3.9-5.32-9.69-8.38-17.54-6.23-2.8,.77-5.42,2.27-8.31,2.58-5.85,.62-10.92-3.68-16.37-5.88-6.28-2.54-14.72-1.61-18.11,4.25-2.61,4.49-1.45,10.27-3.29,15.12-1.69,4.46-5.76,7.74-7.24,12.27-1.52,4.64,.02,9.85,2.84,13.84,4.58,6.48,13.14,13.54,19.96,17.69,4.72,2.88,10.19,4.5,15.78,4.22,2.8-.14,5.66-1.12,7.52-3.22,1.41-1.6,2.26-3.82,4.18-4.74,1.75-.83,3.8-.29,5.73-.11,11.45,1.03,18.45-12.41,20.42-21.84,1.71-8.2,0-20.37-5.55-27.95Z" style="fill: #fffce4; stroke: #3a3632; stroke-miterlimit: 10; stroke-width: 7.57px;"/>
    <path d="M803.8,1301.66c-5.56-3.8-12.18-4.78-19.01-.04-2.44,1.69-4.44,4.03-7.12,5.31-5.42,2.59-11.77,.17-17.77-.1-6.91-.31-14.72,3.45-16,10.25-.98,5.21,2.09,10.38,1.97,15.68-.11,4.87-2.92,9.41-2.8,14.28,.12,4.99,3.37,9.48,7.44,12.37,6.61,4.69,17.26,8.57,25.23,10.25,5.53,1.17,11.34,.88,16.63-1.3,2.64-1.09,5.08-3,6.15-5.65,.81-2.02,.87-4.45,2.41-5.98,1.4-1.39,3.56-1.57,5.48-2.06,11.38-2.9,13.56-18.22,12.24-27.98-1.15-8.48-6.92-19.62-14.84-25.03Z" style="fill: #fffce4; stroke: #3a3632; stroke-miterlimit: 10; stroke-width: 7.57px;"/>
    <path d="M716.63,1438.48c-6.52-1.28-12.9,.41-17.25,7.35-1.55,2.48-2.46,5.38-4.39,7.58-3.91,4.45-10.6,4.73-16.15,6.82-6.38,2.4-12.01,8.85-10.53,15.51,1.13,5.11,5.94,8.6,7.88,13.45,1.79,4.46,1.01,9.66,3.01,14.03,2.05,4.48,6.74,7.29,11.55,8.32,7.82,1.68,18.98,1.06,26.86-.51,5.46-1.09,10.62-3.62,14.57-7.64,1.97-2.01,3.43-4.7,3.37-7.52-.04-2.14-.94-4.37-.14-6.36,.73-1.81,2.62-2.8,4.17-3.99,9.19-7.05,5.21-21.79,.22-30.12-4.33-7.24-13.9-15.1-23.19-16.92Z" style="fill: #fffce4; stroke: #3a3632; stroke-miterlimit: 10; stroke-width: 7.57px;"/>
    <path d="M984.17,1539.85c-4.79-3.17-10.45-3.92-16.21,.21-2.06,1.47-3.74,3.49-6.01,4.62-4.59,2.27-10.03,.3-15.15,.14-5.89-.18-12.51,3.13-13.52,8.94-.77,4.46,1.92,8.83,1.88,13.35-.03,4.15-2.37,8.06-2.2,12.21,.17,4.25,2.99,8.04,6.5,10.45,5.7,3.91,14.83,7.09,21.65,8.42,4.73,.92,9.68,.6,14.16-1.32,2.24-.96,4.29-2.63,5.17-4.9,.67-1.73,.69-3.8,1.98-5.13,1.18-1.21,3.02-1.38,4.64-1.82,9.66-2.62,11.33-15.71,10.08-24.02-1.09-7.22-6.15-16.64-12.98-21.15Z" style="fill: #fffce4; stroke: #3a3632; stroke-miterlimit: 10; stroke-width: 7.57px;"/>
    <path d="M915.59,1458.96c-5.61,4.26-8.77,10.51-6.33,18.85,.87,2.98,2.53,5.74,2.91,8.82,.77,6.24-3.72,11.73-5.97,17.6-2.59,6.75-1.44,15.75,4.88,19.27,4.85,2.7,11,1.35,16.22,3.23,4.79,1.72,8.37,6.01,13.24,7.5,4.99,1.53,10.52-.21,14.73-3.29,6.84-5.01,14.21-14.29,18.52-21.65,2.99-5.1,4.62-10.97,4.21-16.93-.2-2.98-1.3-6.03-3.58-7.97-1.73-1.47-4.13-2.34-5.14-4.37-.92-1.85-.38-4.05-.23-6.11,.88-12.25-13.6-19.48-23.72-21.4-8.79-1.67-21.75,.38-29.75,6.45Z" style="fill: #fffce4; stroke: #3a3632; stroke-miterlimit: 10; stroke-width: 7.57px;"/>
    <path d="M1200.35,1415.55c-6.52-2.48-13.43-1.86-19.16,4.56-2.05,2.3-3.5,5.14-5.89,7.07-4.84,3.92-11.81,3.02-17.92,4.2-7.03,1.36-14,7.04-13.64,14.2,.27,5.49,4.62,9.95,5.78,15.32,1.06,4.93-.66,10.19,.64,15.06,1.33,5,5.69,8.74,10.49,10.66,7.8,3.12,19.46,4.46,27.9,4.22,5.85-.16,11.64-1.86,16.44-5.33,2.4-1.74,4.39-4.25,4.82-7.18,.33-2.23-.2-4.69,.98-6.61,1.08-1.74,3.21-2.44,5.02-3.4,10.76-5.68,9.24-21.64,5.55-31.15-3.21-8.26-11.72-18.09-21.02-21.62Z" style="fill: #fffce4; stroke: #3a3632; stroke-miterlimit: 10; stroke-width: 7.57px;"/>
    <path d="M1174.37,1501.34c-6.25-1.03-12.29,.77-16.22,7.52-1.41,2.41-2.19,5.2-3.96,7.36-3.6,4.36-9.96,4.82-15.19,6.98-6.01,2.48-11.18,8.79-9.58,15.1,1.23,4.83,5.91,8.02,7.91,12.59,1.84,4.2,1.25,9.18,3.29,13.29,2.08,4.21,6.64,6.75,11.26,7.59,7.5,1.37,18.12,.45,25.59-1.28,5.18-1.2,10.02-3.76,13.66-7.72,1.82-1.98,3.13-4.58,2.99-7.26-.11-2.04-1.02-4.14-.32-6.06,.64-1.75,2.41-2.75,3.85-3.93,8.55-6.99,4.32-20.92-.68-28.72-4.35-6.77-13.7-13.98-22.6-15.44Z" style="fill: #fffce4; stroke: #3a3632; stroke-miterlimit: 10; stroke-width: 7.57px;"/>
    <path d="M1358.47,1457.25c-6.03,2.56-10.3,7.47-10,15.55,.11,2.89,.97,5.75,.61,8.62-.73,5.8-6.03,9.73-9.4,14.5-3.88,5.49-4.89,13.87,0,18.48,3.75,3.54,9.6,3.73,13.88,6.61,3.93,2.65,6.18,7.32,10.23,9.78,4.15,2.52,9.53,2.21,14.03,.39,7.31-2.96,16.07-9.64,21.64-15.29,3.85-3.92,6.67-8.83,7.66-14.3,.5-2.74,.2-5.73-1.41-8-1.22-1.72-3.19-3.05-3.63-5.12-.41-1.88,.58-3.74,1.19-5.56,3.59-10.84-7.82-20.66-16.5-24.7-7.55-3.51-19.7-4.62-28.29-.97Z" style="fill: #fffce4; stroke: #3a3632; stroke-miterlimit: 10; stroke-width: 7.57px;"/>
    <path d="M1410.44,1343.88c-6.11-.37-11.74,1.95-14.86,8.83-1.11,2.46-1.59,5.22-3.09,7.47-3.03,4.55-9.11,5.62-13.92,8.21-5.54,2.98-9.89,9.56-7.72,15.46,1.66,4.53,6.48,7.13,8.85,11.33,2.18,3.85,2.11,8.71,4.47,12.45,2.42,3.84,7.05,5.83,11.58,6.19,7.35,.57,17.47-1.35,24.48-3.76,4.86-1.67,9.26-4.6,12.38-8.77,1.56-2.08,2.56-4.71,2.16-7.28-.3-1.95-1.39-3.88-.9-5.8,.44-1.74,2.05-2.88,3.32-4.16,7.53-7.57,2.09-20.55-3.49-27.55-4.85-6.09-14.55-12.09-23.26-12.62Z" style="fill: #fffce4; stroke: #3a3632; stroke-miterlimit: 10; stroke-width: 7.57px;"/>
    <path d="M1587.91,1361.74c-3.8-4.45-9.14-6.78-15.94-4.35-2.43,.87-4.64,2.37-7.18,2.83-5.14,.94-9.91-2.53-14.88-4.12-5.72-1.83-13.14-.45-15.76,4.96-2.01,4.15-.6,9.19-1.91,13.61-1.2,4.06-4.59,7.23-5.59,11.34-1.03,4.21,.67,8.72,3.43,12.07,4.48,5.43,12.53,11.11,18.84,14.34,4.37,2.23,9.32,3.31,14.25,2.69,2.47-.31,4.94-1.37,6.44-3.35,1.14-1.51,1.74-3.53,3.39-4.47,1.49-.85,3.34-.51,5.06-.48,10.2,.15,15.52-12.21,16.63-20.69,.97-7.37-1.35-18.03-6.77-24.38Z" style="fill: #fffce4; stroke: #3a3632; stroke-miterlimit: 10; stroke-width: 7.57px;"/>
    <path d="M1762.56,1384.65c-7.1,.53-13.22,4.1-15.73,12.51-.9,3.01-1.01,6.26-2.38,9.09-2.77,5.72-9.61,7.91-14.74,11.65-5.91,4.3-9.88,12.57-6.46,19.03,2.63,4.95,8.58,7.19,11.98,11.66,3.12,4.1,3.8,9.7,7.11,13.64,3.39,4.04,9.04,5.61,14.31,5.31,8.56-.49,19.92-4.31,27.61-8.18,5.34-2.68,9.95-6.76,12.88-12.05,1.47-2.64,2.21-5.83,1.35-8.73-.66-2.2-2.21-4.25-1.95-6.53,.24-2.08,1.91-3.64,3.17-5.31,7.48-9.9-.83-24-8.36-31.19-6.54-6.25-18.66-11.64-28.79-10.88Z" style="fill: #fffce4; stroke: #3a3632; stroke-miterlimit: 10; stroke-width: 7.57px;"/>
    <path d="M1698.75,1311.53c-5.47,1.85-9.56,5.88-9.84,13.01-.1,2.54,.47,5.13-.04,7.62-1.03,5.05-5.96,8.15-9.24,12.12-3.78,4.57-5.23,11.87-1.24,16.26,3.06,3.36,8.2,3.92,11.77,6.75,3.28,2.59,4.94,6.86,8.34,9.29,3.48,2.49,8.24,2.59,12.32,1.29,6.62-2.11,14.78-7.4,20.05-12,3.65-3.19,6.45-7.32,7.69-12.07,.62-2.37,.56-5.03-.7-7.13-.96-1.6-2.6-2.89-2.85-4.74-.23-1.68,.76-3.25,1.42-4.81,3.89-9.29-5.49-18.7-12.86-22.83-6.4-3.59-17.02-5.39-24.82-2.75Z" style="fill: #fffce4; stroke: #3a3632; stroke-miterlimit: 10; stroke-width: 7.57px;"/>
    <path d="M1653.27,1096.32c-4.73-5.07-11.16-7.54-19.08-4.33-2.83,1.15-5.37,3.05-8.35,3.73-6.03,1.37-11.86-2.48-17.82-4.11-6.87-1.87-15.57,.15-18.38,6.68-2.16,5.01-.24,10.9-1.56,16.2-1.21,4.86-5.05,8.79-6.03,13.71-1.01,5.04,1.24,10.28,4.68,14.1,5.59,6.2,15.4,12.5,23.03,15.99,5.29,2.42,11.19,3.44,16.99,2.45,2.9-.5,5.77-1.87,7.45-4.29,1.27-1.84,1.88-4.27,3.77-5.46,1.72-1.08,3.93-.77,5.96-.83,12.08-.35,17.72-15.24,18.6-25.34,.76-8.77-2.53-21.26-9.27-28.49Z" style="fill: #fffce4; stroke: #3a3632; stroke-miterlimit: 10; stroke-width: 7.57px;"/>
    <path d="M1642.55,944.9c-6.1,2.51-10.47,7.41-10.26,15.55,.07,2.91,.91,5.81,.52,8.69-.8,5.83-6.19,9.73-9.64,14.5-3.97,5.49-5.09,13.92-.21,18.62,3.74,3.61,9.63,3.87,13.91,6.82,3.93,2.71,6.14,7.45,10.19,9.97,4.15,2.59,9.58,2.34,14.13,.56,7.39-2.9,16.3-9.53,21.97-15.15,3.93-3.9,6.82-8.82,7.88-14.32,.53-2.75,.27-5.77-1.33-8.08-1.21-1.75-3.17-3.11-3.6-5.19-.39-1.9,.63-3.76,1.26-5.59,3.74-10.88-7.64-20.9-16.34-25.07-7.56-3.62-19.79-4.88-28.49-1.3Z" style="fill: #fffce4; stroke: #3a3632; stroke-miterlimit: 10; stroke-width: 7.57px;"/>
    <path d="M1458.31,944.16c-5.8,1.46-10.34,5.28-11.21,12.61-.31,2.62,.06,5.32-.66,7.86-1.47,5.12-6.81,7.92-10.52,11.75-4.27,4.41-6.37,11.81-2.61,16.66,2.88,3.72,8.13,4.72,11.58,7.92,3.17,2.94,4.54,7.47,7.84,10.26,3.38,2.86,8.28,3.34,12.6,2.33,7-1.64,15.85-6.42,21.66-10.73,4.03-2.99,7.26-7.02,8.92-11.81,.83-2.4,.99-5.14-.14-7.41-.86-1.73-2.44-3.2-2.55-5.12-.1-1.75,1.05-3.29,1.86-4.85,4.77-9.27-4.13-19.73-11.39-24.59-6.31-4.23-17.11-6.95-25.37-4.86Z" style="fill: #fffce4; stroke: #3a3632; stroke-miterlimit: 10; stroke-width: 7.57px;"/>
    <path d="M1385.42,989.1c-5.68-1.93-11.6-1.18-16.32,4.51-1.69,2.04-2.85,4.52-4.84,6.26-4.03,3.52-10.06,2.96-15.27,4.17-6,1.39-11.81,6.49-11.28,12.62,.4,4.71,4.28,8.41,5.44,12.99,1.07,4.2-.25,8.77,1.01,12.92,1.3,4.25,5.16,7.33,9.34,8.83,6.8,2.44,16.86,3.22,24.11,2.76,5.02-.32,9.94-1.96,13.96-5.09,2.01-1.57,3.64-3.79,3.92-6.32,.22-1.92-.32-4.03,.64-5.71,.87-1.53,2.68-2.2,4.21-3.07,9.07-5.21,7.27-18.88,3.81-26.94-3.01-7-10.63-15.18-18.73-17.93Z" style="fill: #fffce4; stroke: #3a3632; stroke-miterlimit: 10; stroke-width: 7.57px;"/>
    <path d="M957.96,1055.34c-6.92,.03-13.09,3.06-16.11,11.04-1.08,2.85-1.41,6-2.93,8.64-3.08,5.35-9.86,7-15.09,10.27-6.02,3.76-10.44,11.5-7.57,17.99,2.2,4.98,7.82,7.56,10.81,12.12,2.74,4.18,3.01,9.66,5.95,13.71,3.01,4.15,8.37,6.06,13.5,6.13,8.33,.11,19.6-2.8,27.32-6.03,5.36-2.23,10.11-5.87,13.31-10.79,1.6-2.46,2.54-5.5,1.91-8.36-.48-2.18-1.85-4.27-1.44-6.47,.37-2,2.1-3.4,3.44-4.93,7.94-9.08,.85-23.31-5.95-30.8-5.91-6.51-17.28-12.57-27.14-12.53Z" style="fill: #fffce4; stroke: #3a3632; stroke-miterlimit: 10; stroke-width: 7.57px;"/>
    <path d="M1122.63,1084.91c-5.64,2.85-9.44,7.85-8.64,15.6,.29,2.77,1.3,5.48,1.14,8.26-.33,5.63-5.19,9.75-8.13,14.55-3.38,5.53-3.83,13.66,1.17,17.79,3.84,3.17,9.48,2.98,13.78,5.48,3.95,2.3,6.41,6.66,10.46,8.77,4.15,2.16,9.32,1.53,13.53-.51,6.84-3.31,14.86-10.3,19.85-16.09,3.46-4.01,5.86-8.92,6.46-14.25,.3-2.67-.17-5.53-1.86-7.61-1.29-1.58-3.26-2.73-3.82-4.69-.51-1.78,.32-3.63,.79-5.43,2.77-10.66-8.83-19.39-17.45-22.73-7.49-2.9-19.25-3.2-27.29,.86Z" style="fill: #fffce4; stroke: #3a3632; stroke-miterlimit: 10; stroke-width: 7.57px;"/>
    <path d="M1068.77,1146.62c-5.47-2.57-11.48-2.49-16.84,2.69-1.92,1.85-3.36,4.21-5.55,5.72-4.43,3.07-10.4,1.84-15.75,2.46-6.16,.71-12.55,5.17-12.71,11.37-.12,4.76,3.34,8.9,3.99,13.61,.6,4.33-1.24,8.75-.44,13.05,.82,4.4,4.34,7.92,8.36,9.89,6.53,3.2,16.51,5.12,23.82,5.47,5.06,.24,10.17-.85,14.54-3.53,2.19-1.34,4.07-3.39,4.63-5.89,.43-1.9,.14-4.07,1.28-5.64,1.04-1.44,2.93-1.9,4.56-2.61,9.66-4.2,9.4-18.08,6.83-26.53-2.23-7.35-8.94-16.38-16.73-20.04Z" style="fill: #fffce4; stroke: #3a3632; stroke-miterlimit: 10; stroke-width: 7.57px;"/>
    <path d="M1131.12,1298.91c-6.03,3.44-9.93,9.13-8.62,17.6,.47,3.02,1.73,5.94,1.7,9-.05,6.19-5.15,10.98-8.11,16.42-3.41,6.26-3.45,15.2,2.27,19.46,4.39,3.26,10.57,2.75,15.42,5.25,4.46,2.3,7.4,6.95,11.96,9.04,4.68,2.14,10.31,1.16,14.82-1.31,7.33-4.01,15.73-12.12,20.89-18.75,3.58-4.6,5.93-10.11,6.3-16,.19-2.94-.49-6.06-2.46-8.25-1.5-1.66-3.73-2.82-4.45-4.94-.66-1.93,.15-4.01,.57-6,2.45-11.85-10.77-20.79-20.4-23.97-8.37-2.77-21.3-2.45-29.9,2.46Z" style="fill: #fffce4; stroke: #3a3632; stroke-miterlimit: 10; stroke-width: 7.57px;"/>
    <path d="M966.91,1230.98c-4.66-4.25-10.66-6.03-17.61-2.53-2.48,1.25-4.65,3.15-7.3,3.98-5.36,1.68-10.93-1.39-16.45-2.42-6.36-1.2-14.1,1.27-16.17,7.39-1.59,4.7,.58,9.9-.23,14.79-.74,4.49-3.94,8.34-4.47,12.86-.54,4.64,1.88,9.23,5.27,12.44,5.51,5.21,14.87,10.21,22.04,12.81,4.97,1.81,10.39,2.3,15.58,.98,2.59-.66,5.1-2.12,6.44-4.43,1.02-1.76,1.39-4.01,3.02-5.23,1.48-1.11,3.5-.99,5.34-1.19,10.92-1.19,14.95-15.11,15.01-24.32,.05-8.01-3.84-19.09-10.47-25.14Z" style="fill: #fffce4; stroke: #3a3632; stroke-miterlimit: 10; stroke-width: 7.57px;"/>
    <path d="M743.14,1153.16c-6.25-.82-12.19,1.16-15.88,8-1.32,2.44-2.01,5.24-3.7,7.44-3.43,4.45-9.75,5.11-14.87,7.42-5.9,2.66-10.83,9.1-9.03,15.31,1.38,4.76,6.13,7.78,8.27,12.26,1.96,4.11,1.54,9.09,3.69,13.1,2.21,4.11,6.82,6.49,11.43,7.18,7.5,1.12,18.03-.14,25.39-2.1,5.11-1.36,9.84-4.06,13.33-8.11,1.75-2.02,2.97-4.65,2.74-7.31-.17-2.03-1.15-4.08-.51-6.01,.58-1.76,2.31-2.81,3.7-4.03,8.27-7.23,3.62-20.93-1.6-28.52-4.54-6.59-14.06-13.45-22.96-14.62Z" style="fill: #fffce4; stroke: #3a3632; stroke-miterlimit: 10; stroke-width: 7.57px;"/>
    <path d="M556.54,1180.54c-6.94,1.16-12.64,5.21-14.36,13.73-.61,3.04-.43,6.25-1.53,9.16-2.22,5.87-8.75,8.64-13.47,12.78-5.43,4.76-8.6,13.26-4.65,19.3,3.03,4.64,9.09,6.31,12.83,10.4,3.44,3.75,4.61,9.2,8.22,12.79,3.7,3.67,9.4,4.71,14.56,3.94,8.38-1.25,19.21-6.03,26.44-10.53,5.01-3.12,9.18-7.55,11.6-13.01,1.21-2.73,1.65-5.94,.54-8.71-.84-2.11-2.56-3.99-2.51-6.26,.05-2.07,1.55-3.76,2.64-5.51,6.48-10.42-2.97-23.55-11.02-29.95-7-5.56-19.41-9.78-29.3-8.13Z" style="fill: #fffce4; stroke: #3a3632; stroke-miterlimit: 10; stroke-width: 7.57px;"/>
    <path d="M889.13,830.34c-6.85,.29-12.85,3.53-15.53,11.56-.96,2.87-1.17,6-2.57,8.67-2.85,5.42-9.5,7.31-14.56,10.75-5.82,3.96-9.91,11.79-6.81,18.12,2.38,4.85,8.04,7.19,11.17,11.6,2.87,4.04,3.36,9.46,6.42,13.36,3.14,4,8.53,5.68,13.61,5.55,8.25-.21,19.31-3.53,26.84-7.02,5.22-2.42,9.79-6.2,12.78-11.2,1.49-2.5,2.31-5.54,1.57-8.36-.56-2.14-2-4.16-1.68-6.35,.29-1.99,1.95-3.45,3.21-5.02,7.51-9.3-.05-23.13-7.07-30.29-6.1-6.22-17.61-11.79-27.37-11.37Z" style="fill: #fffce4; stroke: #3a3632; stroke-miterlimit: 10; stroke-width: 7.57px;"/>
    <path d="M808.4,689.25c-5.28-4.62-12.01-6.45-19.66-2.4-2.73,1.45-5.1,3.62-8.03,4.61-5.93,2-12.2-1.28-18.37-2.31-7.11-1.18-15.66,1.75-17.83,8.62-1.66,5.27,.88,11,.09,16.47-.72,5.02-4.19,9.37-4.67,14.42-.5,5.18,2.31,10.23,6.16,13.72,6.26,5.67,16.79,11.01,24.84,13.74,5.57,1.89,11.63,2.31,17.37,.72,2.87-.8,5.62-2.48,7.06-5.09,1.09-1.98,1.46-4.49,3.24-5.89,1.62-1.27,3.88-1.18,5.92-1.45,12.13-1.59,16.29-17.17,16.13-27.43-.13-8.91-4.72-21.16-12.25-27.74Z" style="fill: #fffce4; stroke: #3a3632; stroke-miterlimit: 10; stroke-width: 7.57px;"/>
    <path d="M871.26,428.15c-6.03-.22-11.51,2.2-14.42,9.05-1.04,2.45-1.44,5.18-2.86,7.42-2.87,4.55-8.83,5.75-13.51,8.41-5.38,3.06-9.5,9.64-7.23,15.4,1.74,4.42,6.54,6.86,8.98,10.94,2.24,3.74,2.28,8.52,4.7,12.15,2.47,3.72,7.08,5.57,11.54,5.82,7.25,.39,17.17-1.75,24.01-4.28,4.74-1.76,9.01-4.75,11.98-8.92,1.48-2.09,2.41-4.7,1.96-7.22-.35-1.92-1.46-3.79-1.03-5.68,.4-1.73,1.95-2.89,3.17-4.17,7.23-7.63,1.57-20.28-4.09-27.04-4.92-5.88-14.61-11.56-23.2-11.87Z" style="fill: #fffce4; stroke: #3a3632; stroke-miterlimit: 10; stroke-width: 7.57px;"/>
    <path d="M917.57,310.15c-4.67,2.55-7.73,6.86-6.85,13.36,.32,2.32,1.24,4.57,1.18,6.92-.13,4.74-4.1,8.34-6.45,12.46-2.7,4.75-2.86,11.6,1.46,14.94,3.31,2.56,8.06,2.25,11.74,4.24,3.38,1.83,5.57,5.43,9.04,7.09,3.55,1.71,7.88,1.03,11.37-.79,5.67-2.97,12.22-9.06,16.27-14.07,2.8-3.47,4.69-7.66,5.06-12.16,.18-2.25-.29-4.65-1.77-6.35-1.13-1.3-2.82-2.21-3.34-3.85-.48-1.49,.18-3.07,.52-4.59,2.04-9.04-7.95-16.08-15.29-18.65-6.38-2.24-16.28-2.17-22.93,1.46Z" style="fill: #fffce4; stroke: #3a3632; stroke-miterlimit: 10; stroke-width: 7.57px;"/>
    <path d="M1171.32,344.16c-6.21-3.56-13.31-4.05-20.14,1.54-2.44,2-4.37,4.64-7.11,6.22-5.53,3.19-12.45,1.16-18.83,1.37-7.34,.24-15.31,4.88-16.11,12.19-.61,5.6,3.08,10.83,3.39,16.45,.28,5.17-2.31,10.21-1.78,15.36,.54,5.28,4.36,9.77,8.91,12.49,7.4,4.41,19,7.65,27.59,8.77,5.95,.78,12.09-.01,17.51-2.76,2.71-1.37,5.13-3.6,6.04-6.5,.7-2.2,.56-4.79,2.06-6.54,1.37-1.59,3.64-1.96,5.63-2.63,11.81-4.02,12.85-20.43,10.64-30.66-1.92-8.89-8.96-20.21-17.81-25.29Z" style="fill: #fffce4; stroke: #3a3632; stroke-miterlimit: 10; stroke-width: 7.57px;"/>
    <path d="M1155.87,510.52c-5.32-4.5-12.04-6.22-19.57-2.06-2.69,1.48-5.01,3.68-7.9,4.71-5.86,2.09-12.13-1.08-18.29-1.99-7.08-1.06-15.53,1.99-17.57,8.85-1.57,5.26,1.05,10.92,.36,16.36-.64,5-4.01,9.38-4.4,14.4-.41,5.15,2.46,10.12,6.35,13.53,6.31,5.53,16.86,10.66,24.89,13.24,5.57,1.79,11.59,2.11,17.26,.43,2.84-.84,5.55-2.55,6.93-5.17,1.05-1.99,1.37-4.49,3.12-5.9,1.59-1.29,3.83-1.24,5.86-1.53,12.02-1.77,15.9-17.32,15.58-27.51-.28-8.85-5.04-20.94-12.62-27.36Z" style="fill: #fffce4; stroke: #3a3632; stroke-miterlimit: 10; stroke-width: 7.57px;"/>
    <path d="M1213.87,441.48c-6.76,1.11-12.31,5.04-14.01,13.31-.61,2.96-.44,6.08-1.51,8.9-2.17,5.71-8.54,8.38-13.14,12.4-5.3,4.62-8.41,12.87-4.58,18.77,2.93,4.52,8.83,6.17,12.46,10.16,3.33,3.66,4.46,8.97,7.96,12.47,3.59,3.59,9.13,4.61,14.15,3.88,8.15-1.19,18.71-5.81,25.76-10.16,4.88-3.02,8.96-7.31,11.32-12.63,1.18-2.66,1.63-5.77,.55-8.47-.81-2.05-2.48-3.89-2.42-6.09,.05-2.01,1.52-3.65,2.59-5.36,6.33-10.12-2.81-22.92-10.63-29.17-6.79-5.43-18.86-9.58-28.49-8Z" style="fill: #fffce4; stroke: #3a3632; stroke-miterlimit: 10; stroke-width: 7.57px;"/>
    <path d="M680.27,1746.74c-5.73,2.78-9.64,7.75-8.96,15.57,.24,2.79,1.22,5.54,1.01,8.33-.43,5.66-5.39,9.73-8.43,14.52-3.5,5.52-4.08,13.7,.89,17.94,3.81,3.25,9.5,3.16,13.79,5.75,3.94,2.38,6.35,6.81,10.39,9,4.15,2.25,9.36,1.69,13.64-.29,6.95-3.22,15.13-10.13,20.26-15.88,3.55-3.98,6.04-8.89,6.75-14.25,.35-2.68-.08-5.57-1.75-7.7-1.27-1.61-3.24-2.81-3.77-4.79-.49-1.81,.39-3.66,.89-5.46,2.97-10.69-8.58-19.68-17.2-23.18-7.49-3.04-19.34-3.54-27.5,.42Z" style="fill: #fffce4; stroke: #3a3632; stroke-miterlimit: 10; stroke-width: 7.57px;"/>
    <path d="M1261.23,1681.13c-6.47-1.84-13.06-.66-18.03,5.99-1.77,2.38-2.93,5.23-5.07,7.29-4.32,4.17-11.1,3.89-16.87,5.54-6.64,1.89-12.86,7.94-11.92,14.78,.72,5.25,5.28,9.18,6.84,14.24,1.43,4.65,.22,9.84,1.87,14.42,1.69,4.69,6.2,7.92,10.97,9.36,7.75,2.34,19.07,2.65,27.16,1.72,5.61-.65,11.03-2.77,15.35-6.5,2.16-1.87,3.86-4.45,4.03-7.31,.13-2.17-.58-4.49,.39-6.43,.89-1.77,2.88-2.61,4.54-3.68,9.86-6.35,7.07-21.57,2.73-30.4-3.77-7.67-12.78-16.4-22-19.01Z" style="fill: #fffce4; stroke: #3a3632; stroke-miterlimit: 10; stroke-width: 7.57px;"/>
    <path d="M1856.41,1485.93c-5.53,3.71-8.86,9.43-7.02,17.44,.66,2.86,2.07,5.56,2.26,8.49,.38,5.93-4.16,10.87-6.61,16.28-2.82,6.23-2.24,14.79,3.53,18.46,4.42,2.82,10.3,1.89,15.13,3.95,4.43,1.89,7.57,6.13,12.08,7.81,4.62,1.72,9.94,.39,14.09-2.29,6.73-4.35,14.21-12.7,18.68-19.4,3.1-4.65,4.97-10.09,4.91-15.75-.03-2.83-.89-5.76-2.93-7.72-1.55-1.49-3.76-2.44-4.61-4.41-.77-1.8-.13-3.84,.12-5.78,1.51-11.51-11.75-19.14-21.2-21.51-8.21-2.06-20.55-.85-28.43,4.44Z" style="fill: #fffce4; stroke: #3a3632; stroke-miterlimit: 10; stroke-width: 7.57px;"/>
    <path d="M1703.3,1608.44c-5.95,1.09-10.79,4.65-12.15,11.99-.49,2.62-.29,5.38-1.19,7.89-1.83,5.08-7.4,7.54-11.4,11.16-4.6,4.17-7.21,11.51-3.74,16.65,2.67,3.95,7.9,5.3,11.17,8.76,3,3.18,4.09,7.85,7.23,10.88,3.23,3.11,8.14,3.92,12.56,3.19,7.18-1.19,16.43-5.44,22.58-9.4,4.26-2.75,7.79-6.61,9.79-11.34,1-2.36,1.34-5.12,.35-7.49-.75-1.8-2.25-3.39-2.24-5.34,.01-1.78,1.28-3.25,2.19-4.77,5.43-9.04-2.87-20.19-9.87-25.58-6.09-4.69-16.81-8.14-25.29-6.59Z" style="fill: #fffce4; stroke: #3a3632; stroke-miterlimit: 10; stroke-width: 7.57px;"/>
    <path d="M114.97,1492.84c-6.95-.17-13.24,2.7-16.5,10.64-1.16,2.84-1.59,5.99-3.19,8.6-3.25,5.29-10.1,6.76-15.45,9.89-6.16,3.61-10.82,11.26-8.12,17.87,2.07,5.07,7.65,7.82,10.52,12.49,2.63,4.28,2.76,9.79,5.59,13.95,2.9,4.26,8.24,6.33,13.39,6.54,8.36,.35,19.77-2.26,27.63-5.28,5.45-2.09,10.32-5.61,13.68-10.46,1.68-2.43,2.71-5.45,2.15-8.35-.43-2.2-1.74-4.35-1.27-6.54,.43-2,2.2-3.36,3.59-4.86,8.23-8.9,1.52-23.41-5.11-31.12-5.75-6.71-17.01-13.12-26.92-13.36Z" style="fill: #fffce4; stroke: #3a3632; stroke-miterlimit: 10; stroke-width: 7.57px;"/>
    <path d="M1236.82,755.92c-5.92,2.38-10.17,7.08-10.03,14.95,.05,2.81,.84,5.62,.43,8.4-.82,5.63-6.05,9.36-9.42,13.94-3.88,5.28-5.03,13.41-.35,17.99,3.59,3.52,9.28,3.81,13.39,6.7,3.77,2.65,5.88,7.25,9.77,9.72,3.99,2.53,9.24,2.34,13.65,.65,7.17-2.74,15.83-9.08,21.35-14.48,3.83-3.74,6.66-8.47,7.73-13.78,.53-2.65,.3-5.58-1.22-7.82-1.16-1.7-3.04-3.03-3.44-5.05-.36-1.84,.64-3.63,1.26-5.39,3.7-10.49-7.22-20.26-15.6-24.36-7.28-3.56-19.09-4.87-27.52-1.47Z" style="fill: #fffce4; stroke: #3a3632; stroke-miterlimit: 10; stroke-width: 7.57px;"/>
    <path d="M1226.78,631.66c-6.5-1.16-12.81,.62-17.01,7.59-1.5,2.49-2.35,5.39-4.24,7.6-3.81,4.49-10.45,4.88-15.92,7.04-6.3,2.49-11.77,9-10.19,15.58,1.21,5.05,6.04,8.44,8.06,13.23,1.85,4.4,1.17,9.58,3.23,13.88,2.11,4.41,6.82,7.12,11.61,8.07,7.79,1.53,18.87,.73,26.67-.96,5.41-1.18,10.49-3.77,14.34-7.84,1.93-2.03,3.33-4.72,3.22-7.52-.08-2.13-1.01-4.33-.24-6.32,.69-1.81,2.55-2.83,4.07-4.04,9-7.16,4.8-21.73-.29-29.92-4.43-7.12-14.06-14.76-23.32-16.41Z" style="fill: #fffce4; stroke: #3a3632; stroke-miterlimit: 10; stroke-width: 7.57px;"/>
    <path d="M852.49,566c-5.12-.14-9.76,1.95-12.18,7.79-.86,2.09-1.19,4.41-2.38,6.33-2.41,3.88-7.46,4.95-11.41,7.24-4.55,2.64-8,8.26-6.03,13.14,1.51,3.74,5.61,5.78,7.71,9.23,1.93,3.16,2,7.22,4.08,10.29,2.13,3.14,6.05,4.68,9.85,4.85,6.16,.28,14.57-1.61,20.36-3.81,4.02-1.53,7.62-4.1,10.11-7.67,1.25-1.78,2.01-4.01,1.61-6.14-.31-1.62-1.27-3.21-.91-4.82,.32-1.47,1.63-2.47,2.66-3.57,6.09-6.53,1.18-17.23-3.67-22.93-4.22-4.95-12.49-9.71-19.79-9.91Z" style="fill: #fffce4; stroke: #3a3632; stroke-miterlimit: 10; stroke-width: 7.57px;"/>
    <path d="M783.54,415.12c-5.75,1.55-10.23,5.44-10.97,12.75-.27,2.61,.15,5.31-.53,7.84-1.38,5.13-6.66,8-10.3,11.88-4.19,4.46-6.16,11.88-2.33,16.65,2.94,3.66,8.18,4.57,11.67,7.71,3.2,2.88,4.64,7.38,7.98,10.1,3.42,2.79,8.31,3.2,12.59,2.12,6.96-1.75,15.7-6.66,21.42-11.05,3.97-3.04,7.12-7.12,8.7-11.92,.79-2.4,.9-5.14-.26-7.39-.88-1.71-2.49-3.15-2.63-5.07-.13-1.75,1-3.29,1.77-4.86,4.6-9.31-4.44-19.6-11.75-24.33-6.36-4.11-17.16-6.65-25.37-4.44Z" style="fill: #fffce4; stroke: #3a3632; stroke-miterlimit: 10; stroke-width: 7.57px;"/>
    <path d="M696.14,657.7c4.42-5.44,6.01-12.22,1.69-19.72-1.54-2.68-3.8-4.96-4.89-7.85-2.21-5.85,.84-12.22,1.64-18.42,.92-7.14-2.3-15.57-9.24-17.49-5.32-1.47-10.95,1.27-16.44,.68-5.04-.54-9.51-3.84-14.57-4.14-5.19-.31-10.13,2.67-13.47,6.64-5.43,6.45-10.39,17.16-12.83,25.29-1.69,5.63-1.89,11.69-.1,17.36,.9,2.84,2.67,5.53,5.33,6.87,2.02,1.02,4.54,1.29,6,3.02,1.33,1.58,1.32,3.83,1.66,5.86,2.02,12.05,17.73,15.64,27.96,15.12,8.89-.45,20.95-5.47,27.25-13.23Z" style="fill: #fffce4; stroke: #3a3632; stroke-miterlimit: 10; stroke-width: 7.57px;"/>
    <path d="M577.59,724.96c-5.07-3.99-11.33-5.36-18.17-1.28-2.44,1.46-4.51,3.56-7.15,4.61-5.35,2.12-11.26-.6-16.98-1.25-6.58-.75-14.3,2.34-15.97,8.75-1.28,4.92,1.33,10.06,.86,15.12-.43,4.64-3.4,8.8-3.61,13.46-.21,4.78,2.6,9.28,6.31,12.31,6.02,4.91,15.94,9.32,23.45,11.45,5.21,1.48,10.78,1.58,15.98-.16,2.6-.87,5.05-2.54,6.24-5,.91-1.87,1.12-4.2,2.7-5.56,1.43-1.24,3.5-1.27,5.37-1.61,11.06-2.03,14.15-16.53,13.52-25.95-.54-8.18-5.33-19.2-12.56-24.89Z" style="fill: #fffce4; stroke: #3a3632; stroke-miterlimit: 10; stroke-width: 7.57px;"/>
    <path d="M975.68,520.93c-4.44,1.48-7.78,4.73-8.03,10.5-.09,2.06,.36,4.16-.06,6.18-.85,4.09-4.86,6.58-7.54,9.79-3.08,3.69-4.29,9.6-1.08,13.17,2.47,2.74,6.63,3.22,9.51,5.52,2.64,2.11,3.98,5.58,6.72,7.56,2.81,2.04,6.67,2.13,9.98,1.1,5.38-1.68,12.01-5.94,16.31-9.64,2.97-2.57,5.26-5.91,6.29-9.75,.51-1.92,.48-4.07-.54-5.78-.77-1.3-2.09-2.36-2.29-3.86-.18-1.36,.63-2.63,1.17-3.9,3.19-7.52-4.37-15.18-10.32-18.56-5.17-2.94-13.77-4.44-20.1-2.33Z" style="fill: #fffce4; stroke: #3a3632; stroke-miterlimit: 10; stroke-width: 7.57px;"/>
    <path d="M1049.91,309.74c-6.73,1.74-11.99,6.22-12.95,14.74-.34,3.05,.11,6.19-.72,9.14-1.68,5.97-7.87,9.26-12.15,13.74-4.94,5.16-7.33,13.79-2.92,19.4,3.38,4.31,9.49,5.43,13.53,9.13,3.7,3.4,5.33,8.66,9.19,11.88,3.96,3.3,9.66,3.83,14.67,2.63,8.14-1.95,18.39-7.58,25.12-12.64,4.66-3.5,8.39-8.22,10.3-13.81,.95-2.79,1.12-5.98-.21-8.62-1.01-2-2.86-3.7-3.01-5.94-.13-2.04,1.2-3.83,2.13-5.65,5.48-10.81-4.94-22.92-13.42-28.53-7.37-4.87-19.95-7.96-29.54-5.48Z" style="fill: #fffce4; stroke: #3a3632; stroke-miterlimit: 10; stroke-width: 7.57px;"/>
    <path d="M1328.88,553.85c-5.84-3.96-12.79-4.96-19.93,.03-2.55,1.78-4.64,4.24-7.45,5.59-5.68,2.73-12.33,.22-18.63-.04-7.24-.3-15.42,3.67-16.74,10.8-1.01,5.47,2.23,10.88,2.12,16.44-.1,5.1-3.02,9.87-2.88,14.98,.14,5.23,3.57,9.93,7.84,12.94,6.95,4.89,18.12,8.92,26.49,10.66,5.8,1.2,11.89,.88,17.43-1.42,2.77-1.15,5.31-3.17,6.42-5.95,.85-2.12,.9-4.67,2.51-6.28,1.47-1.47,3.73-1.66,5.73-2.18,11.92-3.08,14.15-19.15,12.73-29.38-1.23-8.88-7.32-20.54-15.65-26.19Z" style="fill: #fffce4; stroke: #3a3632; stroke-miterlimit: 10; stroke-width: 7.57px;"/>
    <path d="M1488.86,715.34c-4.9-3.93-11-5.32-17.69-1.4-2.39,1.4-4.42,3.43-7.01,4.43-5.23,2.02-10.96-.68-16.53-1.37-6.41-.78-13.95,2.16-15.63,8.39-1.29,4.78,1.21,9.81,.71,14.74-.46,4.52-3.39,8.55-3.63,13.09-.25,4.65,2.46,9.07,6.04,12.04,5.82,4.83,15.45,9.21,22.75,11.35,5.06,1.48,10.49,1.63,15.57-.02,2.54-.82,4.94-2.43,6.13-4.82,.9-1.82,1.13-4.08,2.68-5.39,1.41-1.2,3.43-1.2,5.24-1.52,10.8-1.88,13.92-15.99,13.4-25.16-.46-7.97-5.03-18.75-12.02-24.36Z" style="fill: #fffce4; stroke: #3a3632; stroke-miterlimit: 10; stroke-width: 7.57px;"/>
  </g>
</svg>