<svg xmlns="http://www.w3.org/2000/svg" viewBox="0 0 2000 2000"><g id="Layer_1" data-name="Layer 1"><path d="M337.6,924c11.13,3.64,25,5,33,10.91,9.22,6.72,9.87,15.4,26.1,17.48,13.15,1.69,34-4.31,36.59,7,.8,3.52-.34,7.19.3,10.73.86,4.74,5,9.09,11.29,11.77,11.58,5,20.95-.64,29.34,6.3,5.89,4.86-.41,21.4,10.45,28.25s37.67,2.38,46.16,8.46-10,52,26.46,64.58c16.73,5.79,36.25,6.34,53.13,11.91,35.26,11.64,48.89,56.18,90.55,55.13,14.07-.36,28.6-3.54,41.91-.47,11.19,2.58,19.93,9.3,31.32,11.4,16.43,3,33.06-4.14,48.67-9.5s30-14.32,54.57-9.77,17.51,34,37.63,45.75a119.37,119.37,0,0,0,46.28,15.17c20.1,5.16,40.67,9.32,62,9.69,29.55.52,61.42-7.54,78.46-25.62,7.88-8.36,13.06-19,25.38-23.62,13.93-5.22,31-.34,45.86-3.69,14.44-3.24,24-13.44,30.43-23.48,4.46-6.9,8.21-14.22,13.55-20.73l.22,0c19.87,5.61,40.23,10.22,61.54,11.06,29.49,1.17,61.65-6.2,79.41-23.92,8.2-8.19,13.81-18.72,26.3-23.07,14.13-4.92,30.93.33,46-2.69,14.55-2.92,24.46-12.92,31.34-22.82s12.31-20.71,23.18-28.5c14.59-10.47,35.89-13.39,54.32-19.7,49.47-16.94,76.92-63,59.66-100.23" style="fill:#006838;stroke:#3a3632;stroke-linecap:round;stroke-miterlimit:10;stroke-width:20px"/><path d="M1585.89,973.9s-316.3,244.66-354.46,403.38,23.21,357.34,10.9,536.19c-74,98.9-384.81,98.9-470.22,0-25-155.51,34.58-308.39,2.81-451.6C737,1290.76,408,1049.15,414,1070.48l42.53-25.81,200.16,130L546.94,949.89l43.65-7.44S813.51,1312.1,837.3,1277.32c29.32-42.85-86.83-336.62-86.83-336.62h49.2s59.23,178.23,85.2,174.79,0-199.93,0-199.93l65.5-5.53s-11,266.08,39,254.21,29-248.68,29-248.68l65.43-5.53s7.7,190.07,29,190.07,47.37-179.41,47.37-179.41l42.76-5.13S1111,1245,1159.62,1287.71c32.5,28.6,301.48-323.1,301.48-323.1Z" style="fill:#82c14c;stroke:#3a3632;stroke-linecap:round;stroke-linejoin:round;stroke-width:20px"/><path d="M1912.91,783.74c2.35-12.14,16.14-21.58,16.59-33.86.7-19.18-29.75-29.06-36.67-47.38-3.34-8.86-.66-18.4-.57-27.68.17-19.12-11.64-38-30.58-49-13.6-7.87-31-12.2-40.37-23.52-10.74-12.95-10.35-28.09-30.65-34-16.45-4.76-43.81,2.74-45.44-17.31-.51-6.22,1.45-12.43,1.14-18.66-.42-8.33-5.1-16.47-12.67-22-14-10.22-26.67-1.79-36.34-15-6.78-9.26,3.55-37.07-9.27-50.47s-47.46-9.36-57.37-21.1,20-88.78-24.45-115.72c-20.42-12.37-45.12-16-65.74-28-43.1-25.1-54.11-104.28-107.12-108.24-17.9-1.33-36.79,2.16-53.24-5-13.84-6-24-18.91-38.14-24.14-20.42-7.53-42.54,2.58-63.1,9.72s-40.09,20.66-70.64,9.35-17.4-61.5-41.27-84.61c-15.79-15.29-35.49-27.16-56.6-32.75-24.78-11.75-50.28-21.82-77.32-25.45-37.43-5-79,4.54-103.19,33.54C918.72,65.86,910.64,83.6,894.36,89.9c-18.42,7.12-39.32-3.71-58.72,0-18.78,3.62-32.29,20-41.93,36.51-6.63,11.35-12.43,23.53-20.13,34.07l-.27-.09c-24.42-12.48-49.61-23.31-76.53-27.74-37.26-6.13-79.11,2.18-104.14,30.45-11.57,13.07-20.18,30.56-36.64,36.36-18.63,6.58-39.2-4.87-58.7-1.72-18.88,3.05-32.87,19-43,35.24s-18.55,34.22-33.44,46.22c-20,16.13-47.44,18.24-71.72,26.62-65.17,22.5-106.52,98.69-89.86,165.59,4.55,18.26,12.86,36.2,11.45,55-1.15,15.19-8.61,29.28-10.49,44.4-1.45,11.65,10.37,21.09-2.76,43.83s-32,3.65-51.94,12.67c-31.5,14.24-56.88,40.63-81.48,66.45-12.29,12.91-24.77,26.08-33,42.41s-11.68,36.58-5,53.73C90,800,97.2,808.48,100,819c8.76,33.15-28.45,61.28-29.49,95.77-.94,31.15,27.78,56,27.95,87.14.08,15.34-6.92,30.14-5.78,45.44,1.68,22.62,31.45,73.52,52.38,78.8,13,3.27,27.18-1.1,39.61,4.19,21.53,9.17,31.66,44.44,54.72,42.88,14.29-1,24.75-16.83,39-18.45,15.36-1.75,27.39,13.11,40.37,22.25a61.35,61.35,0,0,0,46.52,10.27c10.72-2,20.76-7,31.08-10.72,27.55-10,59.41-6.75,85.53-20.06,15.39-7.83,28.13-23.4,27.34-40.65-.38-8.34-3.81-16.77-1.54-24.8,6.32-22.31,48.82-6.26,62.25-25.16,11.59-16.3-2.31-40.65,6.84-58.43,11.41-22.2,45.57-15.62,66.74-28.84,9-5.65,9.24-21.9,26.29-18.5,7.22,1.44,11.07,16.76,13.82,23.7,10.86,27.43,32.93,23.14,60.75,24.8,11.55.68,26-19.73,29-7.78,1,4,.36,8.14.7,12.22,1.27,15.15,15.78,25.61,29.9,27.64s28.29-2,42.44-3.78,39.87-10.77,50.5-.63c10.32,9.84,23,22.14,36.66,25.08,49.75,10.68,58-12.94,78.3-34.63,15.81-16.88,30.66-15.87,53.79-8.49,9.84,3.14,19.33,7.92,29.53,9.2,17.93,2.25,35.44-6.62,50.63-17,7.85-5.39,15.62-11.38,24.66-13.85,14.66-4,38,21.16,44,29.81s.15,29.29,4.45,37.27c6,11.18,21.13,9.24,34.29,14.83,14.85,6.32,34.15,6,45.61,16.09,11,9.69,10.14,25.05,17.81,36.76,5.55,8.49,15.81,14.77,27.25,16.7,13.25,2.23,26.8-1.16,40-3.49,38.64-6.82,77.74,2.23,113.56-14.38,15.19-7,25.72-17.9,42.35-23.44a48.9,48.9,0,0,1,12.61-2.76c11.18-.64,21.46,4.76,32.43,6.66,14.14,2.44,29.05-1.11,41.34-7.38s22.35-15.08,31.91-24c8.4-7.85,17.48-16.36,29.9-18.45,5.32-.89,10.83-.5,16.24,0,17.38,1.46,34.85,3.53,52.25,2.2s35.1-6.48,46.74-17.24c11.44-10.58,16.14-25.62,29.16-34.87,11.37-8.09,27.62-10.61,38.09-19.49,12.58-10.68,13.32-27.39,11.4-42.22-3.24-24.83-15.29-45.14-4.08-69.92,5.93-13.11,15.81-25.68,25.73-37,5.75-6.54,12.19-11.86,14.7-18.82a18.77,18.77,0,0,0,.66-10.35C1916.94,803.21,1911,793.6,1912.91,783.74Z" style="fill:#009444;stroke:#3a3632;stroke-linecap:round;stroke-miterlimit:10;stroke-width:20px"/><path d="M799.67,531c-47.17-50.22-69.46-7.84-116-4.34-20.31,1.53-49.28-20-76.47-13.59-18.62,4.41-31.67,25.77-47.09,37.42-27.2,20.55-62.56-10.79-97.8,10.73s-53,68.66-59.44,75.17c-6.93,7-34.71,11.9-44.13,13.41-57.31,9.23-54.9,64.13-56.52,116.65" style="fill:#009444;stroke:#3a3632;stroke-linecap:round;stroke-miterlimit:10;stroke-width:20px"/><path d="M1247.38,304.66c-25.07-64.17-61.55-33.15-106-47.23-19.42-6.15-38.27-37-65.9-41.1-18.93-2.85-39,12.11-57.65,17.18-32.89,8.94-54-33.32-94.75-26.48s-74.75,44-83.17,47.63c-9,3.9-36.64-1.9-46-4-56.62-12.79-74.83,39.06-95.9,87.19" style="fill:#009444;stroke:#3a3632;stroke-linecap:round;stroke-miterlimit:10;stroke-width:20px"/></g><g id="Isolation_Mode" data-name="Isolation Mode"><path d="M1693,777.93c-2.94-48.18.59-66.83-26.08-109.15-18-28.55-50.22-20.06-74.18-41.24-22.93-20.26-31.65-62.42-63.69-64.06-11.87-.6-24.15,1-35.35-3.2-17.92-6.81-28.48-26.89-45.16-36.68-40.19-23.6-92.48,21.5-134.54,2-15.08-7-26.55-21.64-42.28-26.78-34.49-11.25-66.9,27.3-103,27.59-19.91.16-40.78-17.78-65.42,2.61" style="fill:#009444;stroke:#3a3632;stroke-linecap:round;stroke-miterlimit:10;stroke-width:20px"/></g></svg>