<?xml version="1.0" encoding="UTF-8" standalone="no"?>
<svg
   xmlns:dc="http://purl.org/dc/elements/1.1/"
   xmlns:cc="http://creativecommons.org/ns#"
   xmlns:rdf="http://www.w3.org/1999/02/22-rdf-syntax-ns#"
   xmlns:svg="http://www.w3.org/2000/svg"
   xmlns="http://www.w3.org/2000/svg"
   xmlns:sodipodi="http://sodipodi.sourceforge.net/DTD/sodipodi-0.dtd"
   xmlns:inkscape="http://www.inkscape.org/namespaces/inkscape"
   id="Layer_1"
   data-name="Layer 1"
   viewBox="0 0 250 250"
   version="1.1"
   sodipodi:docname="cajun_spice_mix.svg"
   width="250"
   height="250"
   inkscape:export-filename="/Users/marc-andrelanglais/Google Drive File Stream/Shared drives/Autonome Team Drive/03 - Application &amp; Web Site/Application/Assets/Pictograms/Ingredients/In Production/png/cajun_spice_mix.png"
   inkscape:export-xdpi="94.199997"
   inkscape:export-ydpi="94.199997"
   inkscape:version="1.0beta1 (32d4812, 2019-09-19)">
  <metadata
     id="metadata16539">
    <rdf:RDF>
      <cc:Work
         rdf:about="">
        <dc:format>image/svg+xml</dc:format>
        <dc:type
           rdf:resource="http://purl.org/dc/dcmitype/StillImage" />
        <dc:title>cercle</dc:title>
      </cc:Work>
    </rdf:RDF>
  </metadata>
  <sodipodi:namedview
     pagecolor="#ffffff"
     bordercolor="#666666"
     borderopacity="1"
     objecttolerance="10"
     gridtolerance="10"
     guidetolerance="10"
     inkscape:pageopacity="0"
     inkscape:pageshadow="2"
     inkscape:window-width="1600"
     inkscape:window-height="907"
     id="namedview16537"
     showgrid="false"
     fit-margin-top="0"
     fit-margin-left="0"
     fit-margin-right="0"
     fit-margin-bottom="0"
     inkscape:zoom="1.4"
     inkscape:cx="90"
     inkscape:cy="155.93898"
     inkscape:window-x="0"
     inkscape:window-y="23"
     inkscape:window-maximized="0"
     inkscape:current-layer="layer2"
     inkscape:document-rotation="0" />
  <defs
     id="defs16502">
    <style
       id="style16497">.cls-1,.cls-4{fill:none;}.cls-2{clip-path:url(#clip-path);}.cls-3{fill:#f1b6d3;}.cls-4{stroke:#231f20;stroke-miterlimit:10;stroke-width:10.58px;}</style>
    <clipPath
       id="clip-path">
      <circle
         class="cls-1"
         cx="54"
         cy="52.470001"
         r="31.34"
         id="circle16499"
         style="fill:none" />
    </clipPath>
  </defs>
  <title
     id="title16504">cercle</title>
  <g
     inkscape:groupmode="layer"
     id="layer1"
     inkscape:label="Outer Circle"
     transform="translate(7.3953934,-0.10460663)">
    <circle
       r="125"
       cy="125.10461"
       cx="117.60461"
       id="path864"
       style="fill:#000000;fill-opacity:1;stroke-width:19.3232"
       inkscape:export-filename="/Users/marc-andrelanglais/workspace/OpenOrganix/Dev/JOCR/Cuistogo_Android/app/src/main/assets/svg/vegetable_oil.png"
       inkscape:export-xdpi="94.199997"
       inkscape:export-ydpi="94.199997" />
  </g>
  <g
     inkscape:groupmode="layer"
     id="layer2"
     inkscape:label="Inner Circle"
     transform="translate(7.3953934,-0.10460663)">
    <path
       id="circle897"
       style="fill:#ffffff;fill-opacity:1;stroke-width:17.7129"
       d="M 232.18792,125.1046 A 114.58333,114.58333 0 0 1 117.60463,239.68796 114.58333,114.58333 0 0 1 3.0212962,125.1046 114.58333,114.58333 0 0 1 117.60463,10.521265 114.58333,114.58333 0 0 1 232.18792,125.1046"
       inkscape:connector-curvature="0"
       inkscape:export-filename="/Users/marc-andrelanglais/workspace/OpenOrganix/Dev/JOCR/Cuistogo_Android/app/src/main/assets/svg/vegetable_oil.png"
       inkscape:export-xdpi="94.199997"
       inkscape:export-ydpi="94.199997" />
    <path
       transform="translate(-7.3953934,0.10460663)"
       d="M 93.488281 198.07812 L 72.361328 226.77734 A 114.58333 114.58333 0 0 0 81.511719 231.00781 L 93.488281 214.75 L 111.16406 238.74414 A 114.58333 114.58333 0 0 0 124.03906 239.58008 L 93.488281 198.07812 z M 156.51172 198.07812 L 125.96094 239.57812 A 114.58333 114.58333 0 0 0 138.83594 238.74414 L 156.51172 214.75 L 168.49023 231.00977 A 114.58333 114.58333 0 0 0 177.63867 226.77734 L 156.51172 198.07812 z "
       style="fill:#ee3f3f;fill-opacity:1;stroke-width:17.7129"
       id="path2274" />
    <path
       transform="translate(-7.3953934,0.10460663)"
       d="M 30.466797 146.67773 L 17.410156 164.41602 A 114.58333 114.58333 0 0 0 21.896484 174.98438 L 30.466797 163.34961 L 61.976562 206.125 L 93.488281 163.34961 L 125 206.125 L 156.51172 163.34961 L 188.02344 206.125 L 219.5332 163.34961 L 228.10547 174.98633 A 114.58333 114.58333 0 0 0 232.58984 164.41602 L 219.5332 146.67773 L 188.02344 189.48242 L 156.51172 146.67773 L 125 189.48242 L 93.488281 146.67773 L 61.976562 189.48242 L 30.466797 146.67773 z "
       style="fill:#ee3f3f;fill-opacity:1;stroke-width:17.7129"
       id="path2276" />
    <path
       transform="translate(-7.3953934,0.10460663)"
       d="M 30.466797 95.275391 L 10.445312 122.47656 A 114.58333 114.58333 0 0 0 10.416016 125 A 114.58333 114.58333 0 0 0 11.173828 138.13867 L 30.466797 111.94922 L 61.976562 154.72461 L 93.488281 111.94922 L 125 154.72461 L 156.51172 111.94922 L 188.02344 154.72461 L 219.5332 111.94922 L 238.82617 138.14062 A 114.58333 114.58333 0 0 0 239.58398 125 A 114.58333 114.58333 0 0 0 239.55469 122.47852 L 219.5332 95.275391 L 188.02344 138.08203 L 156.51172 95.275391 L 125 138.08203 L 93.488281 95.275391 L 61.976562 138.08203 L 30.466797 95.275391 z "
       style="fill:#ee3f3f;fill-opacity:1;stroke-width:17.7129"
       id="path2278" />
    <path
       transform="translate(-7.3953934,0.10460663)"
       d="M 93.488281 43.875 L 61.976562 86.681641 L 36.558594 52.150391 A 114.58333 114.58333 0 0 0 28.501953 63.214844 L 30.466797 60.548828 L 61.976562 103.32227 L 93.488281 60.548828 L 125 103.32227 L 156.51172 60.548828 L 188.02344 103.32227 L 219.5332 60.548828 L 221.50195 63.220703 A 114.58333 114.58333 0 0 0 213.44141 52.150391 L 188.02344 86.681641 L 156.51172 43.875 L 125 86.681641 L 93.488281 43.875 z "
       style="fill:#ee3f3f;fill-opacity:1;stroke-width:17.7129"
       id="path2280" />
    <path
       transform="translate(-7.3953934,0.10460663)"
       d="M 107.66797 11.736328 A 114.58333 114.58333 0 0 0 96.984375 13.894531 L 125 51.921875 L 153.01562 13.894531 A 114.58333 114.58333 0 0 0 142.33203 11.736328 L 125 35.28125 L 107.66797 11.736328 z M 88.042969 16.539062 A 114.58333 114.58333 0 0 0 69.878906 24.546875 L 61.976562 35.28125 L 59.046875 31.300781 A 114.58333 114.58333 0 0 0 51.224609 37.328125 L 61.976562 51.921875 L 88.042969 16.539062 z M 161.95898 16.541016 L 188.02344 51.921875 L 198.77539 37.326172 A 114.58333 114.58333 0 0 0 190.95312 31.300781 L 188.02344 35.28125 L 180.12109 24.546875 A 114.58333 114.58333 0 0 0 161.95898 16.541016 z "
       style="fill:#ee3f3f;fill-opacity:1;stroke-width:17.7129"
       id="path2282" />
  </g>
  <g
     inkscape:groupmode="layer"
     id="layer3"
     inkscape:label="Pattern"
     transform="translate(7.3953934,-0.10460663)" />
</svg>
