<svg id="Layer_1" data-name="Layer 1" xmlns="http://www.w3.org/2000/svg" viewBox="0 0 1144.63 2000"><path d="M980.22,617.37,715.54,383.08v-57.5H429.09v57.5L164.41,617.37a116,116,0,0,0-19.55,64.47V1834a116,116,0,0,0,116,116H883.73a116,116,0,0,0,116-116V681.84A116,116,0,0,0,980.22,617.37Z" style="fill:#fff;stroke:#3a3632;stroke-linecap:round;stroke-linejoin:round;stroke-width:20px"/><path d="M798.32,477.5h-452L176.5,627.81a99.87,99.87,0,0,0-15.81,54V1834A100.32,100.32,0,0,0,260.9,1934.17H883.73A100.32,100.32,0,0,0,983.94,1834V681.83a99.87,99.87,0,0,0-15.81-54Z" style="fill:#f7d672;isolation:isolate;opacity:0.990000009536743"/><rect x="387.05" y="50" width="370.53" height="275.58" style="fill:#f6d11e;stroke:#3a3632;stroke-linecap:round;stroke-linejoin:round;stroke-width:20px"/><line x1="448.8" y1="95.75" x2="448.8" y2="280.71" style="fill:none;stroke:#3a3632;stroke-linecap:round;stroke-linejoin:round;stroke-width:20px"/><line x1="510.56" y1="95.75" x2="510.56" y2="280.71" style="fill:none;stroke:#3a3632;stroke-linecap:round;stroke-linejoin:round;stroke-width:20px"/><line x1="572.31" y1="95.75" x2="572.31" y2="280.71" style="fill:none;stroke:#3a3632;stroke-linecap:round;stroke-linejoin:round;stroke-width:20px"/><line x1="634.07" y1="95.75" x2="634.07" y2="280.71" style="fill:none;stroke:#3a3632;stroke-linecap:round;stroke-linejoin:round;stroke-width:20px"/><line x1="695.83" y1="95.75" x2="695.83" y2="280.71" style="fill:none;stroke:#3a3632;stroke-linecap:round;stroke-linejoin:round;stroke-width:20px"/><line x1="292.59" y1="1032.73" x2="852.04" y2="1032.73" style="fill:none;stroke:#3a3632;stroke-linecap:round;stroke-linejoin:round;stroke-width:10px"/><line x1="292.59" y1="1186.63" x2="852.04" y2="1186.63" style="fill:none;stroke:#3a3632;stroke-linecap:round;stroke-linejoin:round;stroke-width:10px"/><line x1="292.59" y1="1340.53" x2="852.04" y2="1340.53" style="fill:none;stroke:#3a3632;stroke-linecap:round;stroke-linejoin:round;stroke-width:10px"/><line x1="292.59" y1="1494.43" x2="852.04" y2="1494.43" style="fill:none;stroke:#3a3632;stroke-linecap:round;stroke-linejoin:round;stroke-width:10px"/><line x1="292.59" y1="1648.32" x2="852.04" y2="1648.32" style="fill:none;stroke:#3a3632;stroke-linecap:round;stroke-linejoin:round;stroke-width:10px"/><line x1="292.59" y1="1802.22" x2="852.04" y2="1802.22" style="fill:none;stroke:#3a3632;stroke-linecap:round;stroke-linejoin:round;stroke-width:10px"/><line x1="292.59" y1="878.83" x2="852.04" y2="878.83" style="fill:none;stroke:#3a3632;stroke-linecap:round;stroke-linejoin:round;stroke-width:10px"/><line x1="292.59" y1="724.94" x2="852.04" y2="724.94" style="fill:none;stroke:#3a3632;stroke-linecap:round;stroke-linejoin:round;stroke-width:10px"/><rect x="226.59" y="1129.87" width="691.46" height="568.22" style="fill:#fff"/><path d="M721.65,1300.87c-10.22,48.94-75.6,125.72-133.46,113.71-57.33-11.91-78.92-105.32-65.06-152.74,13.35-45.67,66.35-73.4,119.22-63.37C695.66,1208.59,731.49,1253.77,721.65,1300.87Z" style="fill:#f8e724"/><path d="M443.07,1520.13c16.33-52.5,88.38-127,145.69-115.78,57.83,11.31,86,106.9,73.89,161.24-12.57,56.69-74.88,93.34-138.09,79.71C462,1631.81,426,1574.86,443.07,1520.13Z" style="fill:#f8e724"/><path d="M724.25,1538.56c-60.84-13.13-150.43-79.84-137-133.28,12.9-51.36,117.14-72.72,173.87-61.38,57.24,11.45,97.84,62.63,89.94,116.13C842.82,1515.75,785.67,1551.81,724.25,1538.56Z" style="fill:#f8e724"/><path d="M473.09,1300.57c54.63,10.92,137.39,69.68,124.54,121-13.37,53.47-123.95,77-182.36,64.41-57.88-12.49-89.15-65.66-71-117C361.71,1319.68,418.93,1289.74,473.09,1300.57Z" style="fill:#f8e724"/><path d="M607.57,1442.54,563,1332.37a11.92,11.92,0,1,1,22.1-8.94,12.78,12.78,0,0,1,.62,2l24.35,116.3a1.33,1.33,0,0,1-2.54.78Z" style="fill:#726328"/><path d="M607.54,1441.89l13.09-121.4a11.92,11.92,0,0,1,23.7,2.55,12,12,0,0,1-.4,2l-33.79,117.35a1.33,1.33,0,0,1-2.6-.52Z" style="fill:#726328"/><path d="M608,1443.17l-102.6-71.33a11.92,11.92,0,0,1,13.6-19.57,13,13,0,0,1,1.55,1.28l89.15,87.58a1.33,1.33,0,0,1-1.7,2Z" style="fill:#726328"/><path d="M608.63,1443.46l-105.77-5.81a11.93,11.93,0,0,1,1.31-23.83,12.8,12.8,0,0,1,2.35.36L609,1440.84a1.33,1.33,0,0,1-.41,2.62Z" style="fill:#726328"/></svg>