<svg id="Layer_1" data-name="Layer 1" xmlns="http://www.w3.org/2000/svg" viewBox="0 0 1099.71 2000"><g id="layer3"><path id="path9054" d="M364.19,462.05s-122.8-81-279.94-76.35c26.69-42.85,61.53-97.81,169.31-118.75,0,0-31.89-172.36,30.47-252.18,50,162.35,137.34,236,137.34,236C463.1,211.57,556,134,644.3,172.72c-123.81,93-152.2,247.35-152.2,247.35Z" style="fill:#286331"/></g><path id="path863" d="M973.13,1963.92C859,2003.28-100.14,657.37,210.35,481.71,291.5,435.81,413.46,426,413.46,426s107.9-70.2,195.37-85.91c352.83-63.36,481.82,1583.35,364.3,1623.88Z" style="fill:#ea650a;stroke:#3a3632;stroke-linecap:round;stroke-linejoin:round;stroke-width:20px;isolation:isolate;opacity:0.986000001430512"/><path id="path863-2" data-name="path863" d="M927.26,1837.42c-104,35.88-978.4-1191.08-695.35-1351.2,74-41.85,185.15-50.84,185.15-50.84s98.37-64,178.1-78.32c321.65-57.76,439.24,1443.41,332.1,1480.36Z" style="fill:#f37820;isolation:isolate;opacity:0.986000001430512"/><g id="rect9044" style="isolation:isolate;opacity:0.990000009536743"><line x1="567.86" y1="754.25" x2="830.51" y2="658.65" style="fill:#231b1b"/><path d="M567.86,754.25c40.62-23.23,84.14-41,127.91-57.19,43.94-15.75,88.68-30.14,134.74-38.41-40.6,23.27-84.12,41-127.9,57.19-44,15.71-88.7,30.09-134.75,38.41Z" style="fill:#3a3632"/></g><g id="rect9044-2" data-name="rect9044" style="isolation:isolate;opacity:0.990000009536743"><line x1="253.96" y1="689.2" x2="516.61" y2="593.6" style="fill:#231b1b"/><path d="M254,689.2c40.62-23.23,84.14-41,127.91-57.19,43.94-15.75,88.69-30.14,134.74-38.41-40.59,23.27-84.12,41-127.9,57.19C344.75,666.5,300,680.88,254,689.2Z" style="fill:#3a3632"/></g><g id="path9047" style="isolation:isolate;opacity:0.990000009536743"><line x1="436.83" y1="1069.37" x2="699.47" y2="973.77" style="fill:#231b1b"/><path d="M436.83,1069.37c40.61-23.23,84.13-41,127.9-57.19,43.94-15.74,88.69-30.13,134.74-38.41-40.59,23.27-84.12,41-127.9,57.2-44,15.7-88.7,30.09-134.74,38.4Z" style="fill:#3a3632"/></g><g id="path9049" style="isolation:isolate;opacity:0.990000009536743"><line x1="693.24" y1="1261.69" x2="857.03" y2="1202.08" style="fill:#231b1b"/><path d="M693.24,1261.69c23.92-17,51.12-29,78.48-39.2,24-8.68,48.75-15.78,74.12-19.31,3.69-.49,7.4-.91,11.19-1.1-3,2.29-6.14,4.35-9.28,6.34-21.7,13.61-45.24,24.09-69.19,32.86-27.52,9.77-56,18.1-85.32,20.41Z" style="fill:#3a3632"/></g><g id="path9051" style="isolation:isolate;opacity:0.990000009536743"><line x1="714.91" y1="1600.26" x2="864.75" y2="1545.72" style="fill:#231b1b"/><path d="M714.91,1600.26c34.59-25.69,87-45,129.43-52.34a161.57,161.57,0,0,1,20.42-2.2,160.66,160.66,0,0,1-17.06,11.44c-37.17,21.63-89.75,40.55-132.79,43.1Z" style="fill:#3a3632"/></g></svg>