<svg id="Layer_1" data-name="Layer 1" xmlns="http://www.w3.org/2000/svg" xmlns:xlink="http://www.w3.org/1999/xlink" viewBox="0 0 1210.15 2000"><defs><linearGradient id="linear-gradient" x1="2013.78" y1="7406.2" x2="2007.86" y2="6172.49" gradientTransform="matrix(1.1, -0.4, -0.4, -1.1, 1281.35, 9468.02)" gradientUnits="userSpaceOnUse"><stop offset="0" stop-color="#63bb46"/><stop offset="1" stop-color="#fff"/></linearGradient></defs><g id="layer2"><path id="path1094" d="M514.74,219.7a89.22,89.22,0,0,0-42.23-37.32,80.16,80.16,0,0,0-74.34,6l-4.79,3-3.81-3.79C368.21,168.25,291,109.8,202.71,167.25c-34.65,22.51-54.33,50.78-58.37,84.55v27c-20.39-4.29-58.72,14.85-75.13,28.3C39,335.29,24.53,366.54,26.41,400.5a109,109,0,0,0,3,19.43s5,25.66,17.77,42.15A213,213,0,0,0,77.57,500l4.17,4.15-3,5c-18.19,29.93-17.92,59.25.68,82.47s53.78,36.72,91.46,34.53l9.42-.55-1.67,9.29a67.58,67.58,0,0,0-1.18,12.37c.7,22.57,13.91,43.36,38.15,60.07,36.69,25.28,82.12,28.65,126,31.92,36.33,2.71,70.58,5.25,98.33,19.32,61.18,31,103.88,179.81,103.88,179.81,38.34,115.14,288.54,952.39,386.32,1027.11,57.11,38.34,210.45-13.41,242.59-91.88,25.83-88.68-341.62-938.74-383.28-1052-25-69.79-41.73-144.31-14.58-207.3,12.32-28.57,37-52.44,63.2-77.77,31.63-30.61,64.39-62.26,76.41-105.17,7.94-28.35,4.77-52.78-9.13-70.57a66.9,66.9,0,0,0-8.82-8.75L889.26,346l7.59-5.61C927.21,318,945.6,285.09,945,255.34s-19.12-52.45-52.25-63.8l-5.54-1.92.55-5.85a213.26,213.26,0,0,0-.9-48.57c-2.83-15.83-9.13-41.65-23.45-60.61-20.29-27.3-51.4-42.06-92.66-44.39-105.18-6-143.14,83.08-152.07,110.48l-1.43,5.18-5.66-.25a80.19,80.19,0,0,0-67.49,31.75A89.27,89.27,0,0,0,526,230.72c.92,17.62,1,21.11,2.35,30.31Z" style="fill:url(#linear-gradient)"/><path id="path984" d="M528.39,261c-4.19-28.12-3.73-61.08,15.75-83.67,20.5-23.77,46.83-32.65,73.15-31.5C649.35,58,716.79,19.33,770.79,30.2,864.71,49.11,896.26,114,887.25,189.62c32.14,12.28,56.1,38.5,57.79,65.72,2.63,42.49-27.21,69.56-55.78,90.67,24.3,19.58,33,58.21,25.18,85.39-23,80.09-109.15,115.23-139.61,182.94-27.16,63,9.76,189.54,14.58,207.3,58,213.5,409.11,963.28,383.28,1052-32.14,78.47-185.48,130.22-242.59,91.88C712.35,1690.08,576.89,813.28,439.9,758.56c-73.2-29.24-168.29-6.26-224.34-51.24-31.91-25.61-41.49-47.25-35.3-81.73-36.47,1.33-83.43-7.71-100.88-34C58,559.44,66.49,529.33,81.74,504.13,52.93,469.08,26.92,441.06,26.41,400.5c-1.07-84.86,61.7-130.87,117.93-121.7m929.18,1510C1001,1602.32,681.54,730.08,680.83,728.11,652,643.41,636.9,573.36,648.1,486.35c10.9-84.72-10.3-180.81-57.46-215.14-20.86-15.19-39.43-10.55-64.14-3.63-1.64-36.39-20.68-73.85-54-85.2-29.71-10.13-56.84-5.08-79.13,9-78.84-52.51-129.1-73-190.67-24.13-77.29,61.31-64,136.55-21.88,196.21-21.79,26.62-37.57,56.65-17.51,85.75,24.16,35,58.11,46.85,93.45,51-11.36,29.06.3,66.9,20.57,86.61,59.72,58.1,152.29,45.34,212,89.42C544.57,717,572.28,793.42,597,860.06c40.16,108.13,318.43,876.72,352,969.84" style="fill:none;stroke:#3a3632;stroke-width:20px"/><path id="path1059" d="M394.29,476.56,484,459.62,494.26,392M326.89,364.5l65.34-9.38c.91-14.34,7.11-46,6.81-70.9m-106.08,1S415.52,342.41,507.2,495.35" style="fill:none;stroke:#3a3632;stroke-linecap:round;stroke-width:20px"/><path id="path1062" d="M775.76,409.61l-101,28.69-24.7-33.87m137.4-144.76-72,23.95c-8.31-14.28-31-43.69-43.46-69.42m109.66-53.48S684.94,282.53,669.28,487" style="fill:none;stroke:#3a3632;stroke-linecap:round;stroke-width:20px"/></g></svg>