<svg id="Layer_1" data-name="Layer 1" xmlns="http://www.w3.org/2000/svg" xmlns:xlink="http://www.w3.org/1999/xlink" viewBox="0 0 1182.07 2000"><defs><linearGradient id="linear-gradient" x1="133.78" y1="11402.84" x2="1275.13" y2="10361.88" gradientTransform="matrix(0.91, 0.42, 0.42, -0.91, -4551.7, 10741.34)" gradientUnits="userSpaceOnUse"><stop offset="0" stop-color="#63bb46"/><stop offset="1" stop-color="#fff"/></linearGradient></defs><g id="layer2"><path id="path984" d="M1154.91,1886.21C1056.88,1761.22,647,694,646.22,691.74,624.94,633,620,620.28,610.67,556.66c-9.87-67.29-1.14-125-.18-186.85,1.06-68.58-12.55-161.59-67.32-200.08-24.62-16.21-45-12.06-73.28-4.15-1.56-43.18-23-83.4-61.67-97.34-33.73-12.17-65-5.8-90.42,10.28C233.54,20.45,151.65,15.06,100,51,10.21,113.26,18.89,193.78,75,275.12c-24.46,30.79-37,71.77-20,98,27.58,40,66.45,53.53,106.76,58.25-16.38,36.18-3.3,74,23.5,99,69.73,64.8,174,51.8,242.26,102.16,63.06,46.53,94.72,133.89,123,210C596.37,966,925,1849.12,914.65,1971.75c128.16,36,240.26-85.54,240.26-85.54Z" style="stroke:#3a3632;stroke-width:20px;fill:url(#linear-gradient)"/><path id="path1059" d="M318.85,404.35,421.34,385l11.72-77.21M241.84,276.31l74.65-10.72c1-16.38,8.13-52.59,7.78-81m-121.2,1.19s140,65.3,244.78,240" style="fill:none;stroke:#3a3632;stroke-linecap:round;stroke-width:20px"/></g></svg>