<?xml version="1.0" encoding="UTF-8" standalone="no"?>
<svg
   xmlns:dc="http://purl.org/dc/elements/1.1/"
   xmlns:cc="http://creativecommons.org/ns#"
   xmlns:rdf="http://www.w3.org/1999/02/22-rdf-syntax-ns#"
   xmlns:svg="http://www.w3.org/2000/svg"
   xmlns="http://www.w3.org/2000/svg"
   xmlns:sodipodi="http://sodipodi.sourceforge.net/DTD/sodipodi-0.dtd"
   xmlns:inkscape="http://www.inkscape.org/namespaces/inkscape"
   inkscape:version="1.0beta1 (32d4812, 2019-09-19)"
   sodipodi:docname="celery_branch.svg"
   version="1.1"
   viewBox="0 0 1924.0221 1658.9216"
   height="1658.9216"
   width="1924.0221"
   data-name="Layer 1"
   id="Layer_1">
  <metadata
     id="metadata846">
    <rdf:RDF>
      <cc:Work
         rdf:about="">
        <dc:format>image/svg+xml</dc:format>
        <dc:type
           rdf:resource="http://purl.org/dc/dcmitype/StillImage" />
        <dc:title></dc:title>
      </cc:Work>
    </rdf:RDF>
  </metadata>
  <sodipodi:namedview
     inkscape:current-layer="Layer_1"
     inkscape:window-maximized="0"
     inkscape:window-y="23"
     inkscape:window-x="0"
     inkscape:cy="388.34162"
     inkscape:cx="362.00214"
     inkscape:zoom="0.35"
     fit-margin-bottom="12"
     fit-margin-right="12"
     fit-margin-left="12"
     lock-margins="true"
     fit-margin-top="12"
     showgrid="false"
     id="namedview844"
     inkscape:window-height="907"
     inkscape:window-width="1600"
     inkscape:pageshadow="2"
     inkscape:pageopacity="0"
     guidetolerance="10"
     gridtolerance="10"
     objecttolerance="10"
     borderopacity="1"
     inkscape:document-rotation="0"
     bordercolor="#666666"
     pagecolor="#ffffff" />
  <defs
     id="defs838">
    <linearGradient
       gradientUnits="userSpaceOnUse"
       gradientTransform="matrix(1,0,0,-1,52.43,10010.04)"
       y2="8303.6904"
       x2="1730.48"
       y1="9429.6699"
       x1="495.92001"
       id="linear-gradient">
      <stop
         id="stop833"
         stop-color="#64bc46"
         offset="0" />
      <stop
         id="stop835"
         stop-color="#fff"
         offset="1" />
    </linearGradient>
  </defs>
  <g
     transform="translate(-37.997862,-171.65838)"
     id="layer2">
    <path
       inkscape:connector-curvature="0"
       style="fill:url(#linear-gradient);stroke:#010101;stroke-width:24"
       d="M 1950,1624.88 C 1796.76,1547.16 907.1,688.29 905.28,686.46 857.55,638.55 846.91,628.39 808.68,570.28 768.25,508.83 750.44,448.28 723.09,387.19 692.78,319.47 636.92,234.51 565.64,221.82 c -31.55,-4.64 -49.68,8.77 -73.74,29.43 -21.27,-41.61 -60.68,-71.23 -105,-67.23 -38.63,3.49 -66.33,24 -83.94,51.41 C 193.86,217 111.11,249.17 76.84,308 c -59.5,102.11 -14.18,177.07 78,231.19 -9.9,41.36 -3.42,87.24 25.17,105.18 45.31,26.58 89.62,22.1 131.29,8.3 0.48,43 30.61,74.09 68.28,86.26 98,31.66 194.25,-28.75 284.19,-10.58 83.09,16.78 154.06,87.95 216.6,149.67 101.45,100.12 827.26,815.64 873.22,940.56 142.07,-23.32 196.43,-193.69 196.43,-193.69 z"
       id="path984" />
    <path
       inkscape:connector-curvature="0"
       style="fill:none;stroke:#010101;stroke-width:25.1901;stroke-linecap:round"
       d="m 453,554.37 91.62,-65.83 -23.81,-81.05 M 319,464.06 387.29,419.42 c -6.47,-16.53 -16.08,-55.27 -29.4,-83 M 239.56,393 c 0,0 167.13,0 349.69,123.41"
       id="path1059" />
  </g>
</svg>
