<svg id="Layer_1" data-name="Layer 1" xmlns="http://www.w3.org/2000/svg" viewBox="0 0 2000 1446.75"><path d="M1644,1076.05l-729.7,79a19.55,19.55,0,0,1-2.16.12H561.23a20,20,0,0,1-20-20V101.75a20,20,0,0,1,16.4-19.68L891.86,20.83a20.22,20.22,0,0,1,6.54-.11l746.33,110.46A20,20,0,0,1,1661.8,151v905.2A20,20,0,0,1,1644,1076.05Z" style="fill:#ffdf4c;stroke:#3a3632;stroke-miterlimit:10;stroke-width:20px"/><path d="M1618.32,1052.37l-676.45,75.77A21.26,21.26,0,0,1,918.24,1107V76.76a21.27,21.27,0,0,1,24.35-21L1619,155a21.27,21.27,0,0,1,18.18,21v855.16A21.28,21.28,0,0,1,1618.32,1052.37Z" style="fill:#ffc731"/><path d="M1011.1,493.34l-13.17,12.22c-68,63.16-136,144.08-221.31,184.2-63.43,29.84-150.26,30.12-194.91,91.33-13.89,19-21.56,42.55-38.07,59.37-19.48,19.85-44.81,30.27-63.22,51.47-23.48,27-9.68,28.76-5.64,59.14,5.08,38.24-65.82,46.18-89.87,48.49-33.5,3.22-68.39.18-99.74,12.39s-57.7,47.56-44.78,78.63c8.74,21,33.5,36.66,30.88,59.31-2.59,22-44.1,39.39-40.44,59.71,4.35,24.08,55.26,38.45,73.4,51.6,33.47,24.24,71.22,40.68,110.34,53.5,24.67,8.1,49.86,15,75.64,18.06,41.32,5,83.11.15,124.44-4.64,71.25-8.27,142.92-16.51,214.78-14.46,70.89,2,136,22,206.87,22.87,55,.69,112.89,1.67,166.58-12.14,55.83-14.36,109.76-25.92,168.08-26.55,18-.2,36,.39,53.75-2.54,15.83-2.62,31-8,46.55-12.13,92.26-24.63,192.19-5.06,284-31.27,16.86-4.82,35.22-13,41-29.59,6.18-17.85-5.27-36.94-18.45-50.47-18.69-19.17-34.58-38-54.52-55.29-31.17-27-62.07-54.32-93.11-81.48L1388.78,823.85,1018,499.38Z" style="fill:#ffc731"/><path d="M379.13,1175.82c-6.95,1.9-13.52.38-16.86-6.17-8.65-16.43,1.63-45.76,15.37-51.23,79.6-32.46,164.37-18.54,220,52.07,7.51,9.44.41,25.09-4.53,37.4-3,7-8.63,13-13.48,10.33-52.77-29.14-106.19-58.71-169.92-43.42C397.51,1177.74,387.05,1175.54,379.13,1175.82Z" style="fill:#ffdf4c;stroke:#3a3632;stroke-miterlimit:10;stroke-width:10px"/><path d="M696.63,1227.09c-7.88,7-17.66,10.55-26.67,7.19-23-8.2-30-42.29-15.6-57.57,82.7-89.25,204.81-140.78,328.14-119.47,16.57,2.79,18.15,22.2,20.25,37,.92,8.55-2.31,18.19-10.62,19.45-90.38,13.7-181.94,27.52-255.65,89.38C722.33,1214.92,706.92,1220.86,696.63,1227.09Z" style="fill:#ffdf4c;stroke:#3a3632;stroke-miterlimit:10;stroke-width:10px"/><path d="M1456.26,778.3c10.46-1,20.48,1.89,25.78,9.91,13.75,20.19-.71,51.84-21.33,55.7-119.42,23.35-248.43-7-335.5-96.91-11.74-12-1.58-28.63,5.44-41.81,4.29-7.44,12.59-13.33,20-9.45,81.09,42.21,163.2,85,259.2,78.49C1428.32,773,1444.26,777.27,1456.26,778.3Z" style="fill:#ffdf4c;stroke:#3a3632;stroke-miterlimit:10;stroke-width:10px"/><path d="M525.23,1049.1c-10.4,1.5-20.55-.86-26.25-8.6-14.74-19.48-1.88-51.81,18.52-56.7,118.1-29.29,248.47-5.43,339.92,80,12.33,11.43,3,28.52-3.34,42-3.91,7.65-11.91,14-19.55,10.44-83.09-38.1-167.24-76.74-262.79-65.43C553.39,1053,537.26,1049.54,525.23,1049.1Z" style="fill:#ffdf4c;stroke:#3a3632;stroke-miterlimit:10;stroke-width:10px"/><path d="M567,907c7.71-5,16.64-6.88,24-2.82,18.87,10,20.56,40.44,6.16,51.83-83,66.72-195.29,95.76-299.35,61.57-14-4.54-12.88-21.54-12.81-34.61.29-7.51,4.32-15.45,11.68-15.48,80-.33,161-.61,232.74-44.76C543.22,914.27,557.31,911.1,567,907Z" style="fill:#ffdf4c;stroke:#3a3632;stroke-miterlimit:10;stroke-width:10px"/><path d="M185.35,1125.86c-10.48.66-20.41-2.51-25.46-10.68-13.13-20.6,2.28-51.79,23-55C303,1040.44,431,1074.69,515.3,1167.21c11.37,12.37.7,28.67-6.71,41.62-4.52,7.31-13,13-20.32,8.84-79.77-44.65-160.54-89.93-256.7-86.33C213.11,1132,197.31,1127.26,185.35,1125.86Z" style="fill:#ffdf4c;stroke:#3a3632;stroke-miterlimit:10;stroke-width:10px"/><path d="M431.87,1137.78c-6.94,1.9-13.52.37-16.85-6.17-8.66-16.43,1.62-45.77,15.36-51.23,79.61-32.46,164.38-18.54,220,52.07,7.51,9.44.41,25.09-4.53,37.4-3,7-8.63,13-13.49,10.33-52.76-29.14-106.19-58.71-169.91-43.42C450.26,1139.7,439.79,1137.5,431.87,1137.78Z" style="fill:#ffdf4c;stroke:#3a3632;stroke-miterlimit:10;stroke-width:10px"/><path d="M256.45,1206.43c-6,4-12.68,4.7-17.94-.43-13.47-12.78-13.15-43.87-1.89-53.45,65-56.3,149.72-70.33,225.1-21.32,10.14,6.52,8.44,23.63,7.72,36.87-.61,7.59-4,15.09-9.46,14.11-59.33-10.66-119.42-21.51-174.86,13.43C274.48,1202.35,263.87,1203.62,256.45,1206.43Z" style="fill:#ffdf4c;stroke:#3a3632;stroke-miterlimit:10;stroke-width:10px"/><path d="M392.39,1124.87c3.5-6.3,9.18-9.94,16.19-7.75,17.81,5.27,31.63,33.12,25.94,46.76C402.18,1243.54,333,1294.5,243.61,1285c-12-1.22-18.25-17.23-23.61-29.36-2.9-7-3.28-15.26,2-16.87,57.71-17.42,116.18-35,149.73-91.31C378.19,1136.69,387.07,1130.74,392.39,1124.87Z" style="fill:#ffdf4c;stroke:#3a3632;stroke-miterlimit:10;stroke-width:10px"/><path d="M436.22,905c-5.6-3.89-12.17-5.42-17.71-2.45-14.18,7.34-16.05,30.29-5.62,39.1,60.09,51.52,142.65,74.95,220.4,50.48,10.46-3.24,10-16.11,10.2-26-.07-5.68-2.89-11.74-8.34-11.86-59.23-1.3-119.22-2.58-171.42-36.9C453.7,910.75,443.33,908.17,436.22,905Z" style="fill:#ffdf4c;stroke:#3a3632;stroke-miterlimit:10;stroke-width:10px"/><path d="M1224.33,989.62c10.4-1.49,20.55.86,26.24,8.61,14.74,19.47,1.88,51.8-18.52,56.7-118.1,29.28-248.47,5.42-339.92-80-12.33-11.42-3-28.52,3.34-42,3.92-7.65,11.91-13.94,19.55-10.44,83.1,38.1,167.24,76.75,262.8,65.44C1196.16,985.7,1212.3,989.19,1224.33,989.62Z" style="fill:#ffdf4c;stroke:#3a3632;stroke-miterlimit:10;stroke-width:10px"/><path d="M1417.59,1219.49c-7.7,5-16.63,6.87-24,2.82-18.87-10-20.56-40.44-6.16-51.83,83-66.73,195.28-95.76,299.35-61.57,14,4.53,12.88,21.54,12.81,34.6-.29,7.52-4.32,15.46-11.68,15.49-80,.33-161,.61-232.74,44.76C1441.4,1212.23,1427.31,1215.4,1417.59,1219.49Z" style="fill:#ffdf4c;stroke:#3a3632;stroke-miterlimit:10;stroke-width:10px"/><path d="M1410.71,963.79c6.94-1.9,13.52-.37,16.85,6.17,8.66,16.43-1.62,45.77-15.36,51.23-79.61,32.46-164.38,18.54-220-52.07-7.51-9.44-.41-25.09,4.53-37.4,3-7,8.63-13,13.49-10.33,52.76,29.14,106.19,58.71,169.91,43.42C1392.32,961.87,1402.79,964.07,1410.71,963.79Z" style="fill:#ffdf4c;stroke:#3a3632;stroke-miterlimit:10;stroke-width:10px"/><path d="M1794.42,978.52c6-4,12.68-4.69,17.94.43,13.47,12.78,13.15,43.87,1.89,53.45-65,56.3-149.72,70.33-225.1,21.32-10.14-6.52-8.44-23.63-7.72-36.87.61-7.59,4-15.09,9.46-14.11,59.33,10.66,119.42,21.52,174.86-13.43C1776.39,982.6,1787,981.33,1794.42,978.52Z" style="fill:#ffdf4c;stroke:#3a3632;stroke-miterlimit:10;stroke-width:10px"/><path d="M1301.81,1161c5.61,3.89,12.18,5.42,17.72,2.45,14.18-7.34,16-30.3,5.62-39.1-60.1-51.53-142.66-75-220.41-50.48-10.45,3.24-10,16.11-10.19,26,.06,5.69,2.89,11.74,8.33,11.86,59.23,1.31,119.23,2.59,171.43,36.9C1284.33,1155.21,1294.7,1157.79,1301.81,1161Z" style="fill:#ffdf4c;stroke:#3a3632;stroke-miterlimit:10;stroke-width:10px"/><path d="M910,953.93c-3.51-5.85-8.87-9.95-15.14-9.52-15.94.85-27.1,21-21.22,33.32,33.56,71.7,99.15,127,180.08,136.74,10.86,1.35,15.73-10.57,20-19.48,2.28-5.21,2.2-11.89-2.71-14.24-53.45-25.58-107.59-51.44-141-104.21C923.5,966.41,915.11,959.79,910,953.93Z" style="fill:#ffdf4c;stroke:#3a3632;stroke-miterlimit:10;stroke-width:10px"/><path d="M1185.41,958.15c-10.47,4.07-21.61,4.07-29.41-2.61-20.06-16.72-14.49-53.49,5.57-63.52,115.9-59.07,257.43-65.75,373.32,1.11,15.6,8.92,10,29,6.69,44.58-2.23,8.91-9,17.4-17.83,15.6-95.75-19.58-192.71-39.47-289.49-4.58C1215.69,955.42,1198,955.69,1185.41,958.15Z" style="fill:#ffdf4c;stroke:#3a3632;stroke-miterlimit:10;stroke-width:10px"/><path d="M1345.6,878.76c-10.47-3.72-21.61-3.72-29.41,2.4-20.06,15.29-14.49,49,5.57,58.13,115.89,54.05,257.42,60.17,373.32-1,15.6-8.16,10-26.52,6.69-40.8-2.23-8.16-9-15.92-17.83-14.27-95.75,17.91-192.72,36.12-289.49,4.19C1375.88,881.26,1358.23,881,1345.6,878.76Z" style="fill:#ffdf4c;stroke:#3a3632;stroke-miterlimit:10;stroke-width:10px"/><path d="M1324.26,823.87c10.39-1.49,20.55.87,26.24,8.61,14.74,19.48,1.88,51.8-18.52,56.7-118.1,29.29-248.47,5.43-339.92-80-12.33-11.43-3-28.53,3.34-42,3.92-7.65,11.91-13.94,19.55-10.44,83.09,38.1,167.24,76.75,262.79,65.44C1296.09,820,1312.22,823.44,1324.26,823.87Z" style="fill:#ffdf4c;stroke:#3a3632;stroke-miterlimit:10;stroke-width:10px"/><path d="M1464.26,1077.51c-7.71,5-16.64,6.88-24,2.82-18.87-10-20.56-40.44-6.16-51.83,83-66.72,195.29-95.76,299.35-61.57,14,4.54,12.88,21.54,12.81,34.61-.29,7.51-4.32,15.45-11.68,15.48-80,.33-161,.61-232.74,44.76C1488.06,1070.26,1474,1073.43,1464.26,1077.51Z" style="fill:#ffdf4c;stroke:#3a3632;stroke-miterlimit:10;stroke-width:10px"/><path d="M1949,1105.08c10.48-.65,20.41,2.52,25.46,10.69,13.13,20.6-2.28,51.79-23,55-120.07,19.71-248.1-14.54-332.4-107.06-11.37-12.38-.71-28.67,6.71-41.63,4.52-7.31,13-12.94,20.32-8.83,79.77,44.65,160.54,89.92,256.7,86.32C1921.24,1098.91,1937.05,1103.69,1949,1105.08Z" style="fill:#ffdf4c;stroke:#3a3632;stroke-miterlimit:10;stroke-width:10px"/><path d="M1345.57,841.32c5.61,3.89,12.18,5.42,17.72,2.45,14.18-7.34,16-30.3,5.62-39.1-60.1-51.53-142.66-75-220.4-50.48-10.46,3.24-10,16.11-10.2,26,.07,5.69,2.89,11.74,8.34,11.86,59.23,1.31,119.22,2.59,171.42,36.91C1328.09,835.53,1338.47,838.11,1345.57,841.32Z" style="fill:#ffdf4c;stroke:#3a3632;stroke-miterlimit:10;stroke-width:10px"/><path d="M1009.88,788.19c-3.5-5.86-8.86-10-15.13-9.53-15.94.85-27.1,21-21.22,33.32,33.55,71.7,99.15,127,180.08,136.74,10.86,1.35,15.72-10.57,20-19.48,2.29-5.21,2.21-11.89-2.71-14.24-53.44-25.57-107.59-51.44-141-104.21C1023.43,800.67,1015,794,1009.88,788.19Z" style="fill:#ffdf4c;stroke:#3a3632;stroke-miterlimit:10;stroke-width:10px"/><path d="M1013.63,821.19c10.46-4.07,21.61-4.07,29.41,2.62,20.06,16.71,14.49,53.49-5.57,63.52-115.9,59.06-257.43,65.75-373.33-1.12-15.6-8.91-10-29-6.68-44.57,2.23-8.92,9-17.4,17.83-15.6C771,845.61,868,865.51,964.77,830.62,983.35,823.92,1001,823.65,1013.63,821.19Z" style="fill:#ffdf4c;stroke:#3a3632;stroke-miterlimit:10;stroke-width:10px"/><path d="M740.63,915.8c10.72,2.89,21.83,2,29.13-4.71,18.78-16.83,10.57-50-10.15-57.51-119.81-44.72-261.38-39.64-372.08,30.53-14.9,9.36-7.9,27.22-3.44,41.19,2.87,8,10.26,15.17,18.91,12.83,94-25.43,189.25-51.25,288.24-27.06C710.25,915.71,727.86,914.56,740.63,915.8Z" style="fill:#ffdf4c;stroke:#3a3632;stroke-miterlimit:10;stroke-width:10px"/><path d="M718.18,946.2c-10.4,1.5-20.55-.86-26.24-8.6-14.74-19.48-1.88-51.81,18.52-56.7,118.1-29.29,248.47-5.43,339.92,80,12.33,11.42,3,28.52-3.34,42-3.92,7.65-11.91,13.95-19.55,10.44-83.1-38.1-167.24-76.75-262.8-65.44C746.35,950.13,730.21,946.64,718.18,946.2Z" style="fill:#ffdf4c;stroke:#3a3632;stroke-miterlimit:10;stroke-width:10px"/><path d="M811.06,1359.33c-10.39,1.5-20.55-.86-26.24-8.61-14.74-19.47-1.88-51.8,18.52-56.69,118.1-29.29,248.47-5.43,339.92,80,12.33,11.42,3,28.52-3.34,42-3.92,7.65-11.91,13.94-19.55,10.44-83.1-38.1-167.24-76.75-262.8-65.44C839.23,1363.25,823.09,1359.77,811.06,1359.33Z" style="fill:#ffdf4c;stroke:#3a3632;stroke-miterlimit:10;stroke-width:10px"/><path d="M427.09,844.08c-10.49.65-20.42-2.51-25.47-10.69-13.13-20.59,2.29-51.79,23-55C544.7,758.65,672.74,792.9,757,885.42c11.37,12.38.71,28.67-6.7,41.63-4.52,7.31-13,12.94-20.33,8.84C650.23,891.24,569.46,846,473.31,849.56,454.85,850.25,439,845.48,427.09,844.08Z" style="fill:#ffdf4c;stroke:#3a3632;stroke-miterlimit:10;stroke-width:10px"/><path d="M652.73,999.92c-7,1.9-13.52.37-16.85-6.17-8.66-16.43,1.62-45.77,15.36-51.23,79.6-32.46,164.37-18.54,220,52.07,7.51,9.43.41,25.09-4.53,37.4-3,7-8.63,13-13.48,10.33-52.77-29.15-106.19-58.72-169.92-43.42C671.11,1001.84,660.65,999.64,652.73,999.92Z" style="fill:#ffdf4c;stroke:#3a3632;stroke-miterlimit:10;stroke-width:10px"/><path d="M234,1052.79c-6,4-12.69,4.69-17.94-.44-13.47-12.78-13.16-43.86-1.9-53.45,65-56.3,149.72-70.32,225.11-21.32,10.14,6.52,8.44,23.63,7.71,36.88-.6,7.58-4,15.09-9.45,14.11-59.33-10.67-119.42-21.52-174.86,13.42C252.07,1048.7,241.45,1050,234,1052.79Z" style="fill:#ffdf4c;stroke:#3a3632;stroke-miterlimit:10;stroke-width:10px"/><path d="M840.8,844.51c6.82,0,13.08-2.56,15.91-8.16,7.4-14.15-4.25-34-17.84-35.25-78.78-7.71-159.84,20.49-209.46,85.15-6.7,8.66,1.07,18.92,6.56,27.13,3.32,4.62,9.1,8,13.63,4.93,49.26-32.92,99.12-66.31,161.57-68.16C823.15,849.79,833.13,846,840.8,844.51Z" style="fill:#ffdf4c;stroke:#3a3632;stroke-miterlimit:10;stroke-width:10px"/><path d="M387.27,1191.38c10.47-4.07,21.61-4.07,29.41,2.61,20.06,16.72,14.49,53.49-5.57,63.52-115.9,59.07-257.43,65.75-373.32-1.11-15.6-8.92-10-29-6.69-44.58,2.23-8.91,9-17.4,17.83-15.6,95.75,19.58,192.71,39.47,289.49,4.58C357,1194.11,374.64,1193.84,387.27,1191.38Z" style="fill:#ffdf4c;stroke:#3a3632;stroke-miterlimit:10;stroke-width:10px"/><path d="M450.45,1199.07c8.5-7.34,19-11.07,28.59-7.38,24.5,9,31.56,45.55,16,61.72-89.44,94.46-220.56,148.14-352.15,123.94-17.69-3.18-19.16-23.94-21.23-39.76-.88-9.15,2.68-19.42,11.58-20.68,96.77-13.6,194.8-27.33,274.31-92.6C422.83,1211.78,439.37,1205.62,450.45,1199.07Z" style="fill:#ffdf4c;stroke:#3a3632;stroke-miterlimit:10;stroke-width:10px"/><path d="M631.55,1350.85c-10.4,1.5-20.55-.86-26.25-8.61-14.74-19.47-1.88-51.8,18.52-56.69,118.1-29.29,248.47-5.43,339.92,80,12.33,11.42,3,28.52-3.34,42-3.91,7.65-11.91,13.94-19.55,10.44-83.09-38.1-167.24-76.75-262.79-65.44C659.71,1354.77,643.58,1351.29,631.55,1350.85Z" style="fill:#ffdf4c;stroke:#3a3632;stroke-miterlimit:10;stroke-width:10px"/><path d="M431.87,1370.29c-6.94,1.9-13.52.37-16.85-6.17-8.66-16.43,1.62-45.77,15.36-51.23,79.61-32.46,164.38-18.54,220,52.07,7.51,9.43.41,25.09-4.53,37.4-3,7-8.63,13-13.49,10.33-52.76-29.15-106.19-58.72-169.91-43.42C450.26,1372.21,439.79,1370,431.87,1370.29Z" style="fill:#ffdf4c;stroke:#3a3632;stroke-miterlimit:10;stroke-width:10px"/><path d="M449.52,1143.86c-5.61-3.89-12.18-5.42-17.72-2.45-14.18,7.34-16.05,30.3-5.62,39.1,60.1,51.53,142.66,75,220.41,50.48,10.45-3.24,10-16.11,10.19-26-.07-5.68-2.89-11.74-8.33-11.86-59.23-1.3-119.23-2.58-171.43-36.9C467,1149.65,456.63,1147.07,449.52,1143.86Z" style="fill:#ffdf4c;stroke:#3a3632;stroke-miterlimit:10;stroke-width:10px"/><path d="M151.52,1149c-5.61-3.89-12.18-5.42-17.72-2.45-14.18,7.34-16.05,30.3-5.62,39.1,60.1,51.53,142.66,74.95,220.4,50.48,10.46-3.24,10-16.11,10.2-26-.07-5.68-2.89-11.74-8.33-11.85-59.24-1.31-119.23-2.59-171.43-36.91C169,1154.81,158.62,1152.23,151.52,1149Z" style="fill:#ffdf4c;stroke:#3a3632;stroke-miterlimit:10;stroke-width:10px"/><path d="M945.92,1386.54c3.5,5.85,8.86,10,15.13,9.52,16-.85,27.1-21,21.22-33.32-33.55-71.69-99.15-127-180.07-136.74-10.87-1.35-15.73,10.58-20,19.49-2.28,5.2-2.2,11.88,2.71,14.23,53.44,25.58,107.59,51.44,141,104.21C932.37,1374.06,940.76,1380.68,945.92,1386.54Z" style="fill:#ffdf4c;stroke:#3a3632;stroke-miterlimit:10;stroke-width:10px"/><path d="M1139.59,1380.54c-10.46,4.07-21.61,4.07-29.41-2.62-20.06-16.72-14.48-53.49,5.57-63.52,115.9-59.06,257.43-65.75,373.33,1.11,15.6,8.92,10,29,6.68,44.58-2.22,8.91-9,17.4-17.83,15.6-95.74-19.58-192.71-39.47-289.48-4.58C1169.87,1377.81,1152.23,1378.08,1139.59,1380.54Z" style="fill:#ffdf4c;stroke:#3a3632;stroke-miterlimit:10;stroke-width:10px"/><path d="M1461,1211.8c-10.47-3.72-21.61-3.72-29.41,2.4-20.06,15.3-14.49,49,5.57,58.13,115.9,54.06,257.43,60.18,373.32-1,15.6-8.16,10-26.51,6.69-40.79-2.23-8.16-9-15.93-17.83-14.28-95.75,17.92-192.71,36.12-289.49,4.19C1491.32,1214.3,1473.67,1214.05,1461,1211.8Z" style="fill:#ffdf4c;stroke:#3a3632;stroke-miterlimit:10;stroke-width:10px"/><path d="M1173.49,1349c10.4-1.49,20.56.86,26.25,8.61,14.74,19.47,1.88,51.8-18.52,56.7-118.1,29.28-248.47,5.42-339.92-80-12.33-11.42-3-28.52,3.34-42,3.92-7.65,11.91-13.94,19.55-10.44,83.09,38.1,167.24,76.75,262.79,65.44C1145.33,1345,1161.46,1348.52,1173.49,1349Z" style="fill:#ffdf4c;stroke:#3a3632;stroke-miterlimit:10;stroke-width:10px"/><path d="M1643.19,1200.37c-9.18.41-17.82-2.51-22.12-9.74-11.16-18.23,2.81-45.28,21-47.8,105.37-15.38,216.87,16.57,289.2,98.83,9.76,11,.17,25.1-6.51,36.32-4.07,6.33-11.57,11.12-17.92,7.42-69.11-40.31-139.08-81.18-223.28-79.51C1667.39,1206.2,1653.63,1201.78,1643.19,1200.37Z" style="fill:#ffdf4c;stroke:#3a3632;stroke-miterlimit:10;stroke-width:10px"/><path d="M1424,1202.69c7-1.9,13.52-.37,16.85,6.17,8.66,16.43-1.62,45.77-15.36,51.23-79.6,32.46-164.37,18.54-220-52.07-7.51-9.44-.41-25.09,4.52-37.4,3-7,8.64-13,13.49-10.33,52.77,29.15,106.19,58.71,169.91,43.42C1405.62,1200.77,1416.08,1203,1424,1202.69Z" style="fill:#ffdf4c;stroke:#3a3632;stroke-miterlimit:10;stroke-width:10px"/><path d="M1301.81,1388.8c5.61,3.89,12.18,5.42,17.72,2.45,14.18-7.34,16-30.3,5.62-39.1-60.1-51.53-142.66-75-220.41-50.48-10.45,3.24-10,16.11-10.19,26,.06,5.69,2.89,11.74,8.33,11.86,59.23,1.31,119.23,2.59,171.43,36.9C1284.33,1383,1294.7,1385.58,1301.81,1388.8Z" style="fill:#ffdf4c;stroke:#3a3632;stroke-miterlimit:10;stroke-width:10px"/><path d="M1263.57,1180.44c8.08-4.76,17.27-6.26,24.6-1.79,18.78,11.08,19.13,42.16,3.94,53.12-87.63,64.28-203.43,88.81-308,49.25-14.07-5.26-12.17-22.55-11.51-35.86.64-7.65,5.11-15.56,12.61-15.26,81.58,3.28,164.21,6.65,239.32-35.12C1239,1186.76,1253.48,1184.17,1263.57,1180.44Z" style="fill:#ffdf4c;stroke:#3a3632;stroke-miterlimit:10;stroke-width:10px"/><path d="M1253.11,1213.2c-9.18-.51-17.48-4.29-21-11.91-9.29-19.25,7.32-44.78,25.66-45.46,106.38-4.77,214.13,38.18,277.86,127.26,8.61,11.93-2.34,25-10.11,35.49-4.68,5.89-12.62,9.91-18.58,5.59-64.72-47-130.26-94.68-214.2-101.45C1276.6,1221.42,1263.36,1215.64,1253.11,1213.2Z" style="fill:#ffdf4c;stroke:#3a3632;stroke-miterlimit:10;stroke-width:10px"/><path d="M1593.51,1267.17c6.18,2.87,12.92,3.25,17.87-.62,12.71-9.66,10.63-32.6-1.15-39.48-68-40.49-153.38-49.46-225.79-12-9.75,5-7.08,17.59-5.6,27.35,1,5.59,4.85,11.07,10.24,10.26,58.58-8.85,117.91-17.84,175.21,7C1575.29,1264.45,1586,1265.21,1593.51,1267.17Z" style="fill:#ffdf4c;stroke:#3a3632;stroke-miterlimit:10;stroke-width:10px"/><path d="M950.85,1201.46c-8.22,1.37-16.21-.49-20.62-6.89-11.43-16.09-.92-43.2,15.24-47.51,93.57-25.74,196.23-7.27,267.5,63,9.6,9.4,2,23.77-3.11,35.11-3.17,6.43-9.55,11.77-15.54,8.93-65.19-30.88-131.2-62.2-206.77-51.71C973.05,1204.43,960.34,1201.69,950.85,1201.46Z" style="fill:#ffdf4c;stroke:#3a3632;stroke-miterlimit:10;stroke-width:10px"/><path d="M545.1,1210.94c-7,1.89-13.53.37-16.86-6.17-8.65-16.43,1.62-45.77,15.37-51.23,79.6-32.47,164.37-18.54,220,52.06,7.51,9.44.41,25.09-4.53,37.41-3,7-8.63,13-13.48,10.32-52.77-29.14-106.19-58.71-169.92-43.41C563.48,1212.85,553,1210.66,545.1,1210.94Z" style="fill:#ffdf4c;stroke:#3a3632;stroke-miterlimit:10;stroke-width:10px"/><path d="M885.56,816.31c3.51,5.85,8.87,10,15.14,9.53,15.94-.85,27.09-21,21.21-33.32-33.55-71.7-99.14-127-180.07-136.75-10.86-1.35-15.73,10.58-20,19.49-2.28,5.21-2.2,11.89,2.71,14.24,53.45,25.57,107.59,51.44,141,104.2C872,803.83,880.41,810.45,885.56,816.31Z" style="fill:#ffdf4c;stroke:#3a3632;stroke-miterlimit:10;stroke-width:10px"/><path d="M642.34,668c-10.39,1.5-20.55-.86-26.24-8.6-14.74-19.48-1.88-51.81,18.52-56.7,118.1-29.29,248.47-5.43,339.92,80,12.33,11.42,3,28.52-3.34,42-3.92,7.65-11.91,14-19.55,10.44-83.09-38.1-167.24-76.74-262.79-65.43C670.51,672,654.38,668.48,642.34,668Z" style="fill:#ffdf4c;stroke:#3a3632;stroke-miterlimit:10;stroke-width:10px"/><path d="M1324.26,684.29c10.39-1.49,20.55.87,26.24,8.61,14.74,19.48,1.88,51.8-18.52,56.7-118.1,29.29-248.47,5.43-339.92-80-12.33-11.43-3-28.53,3.34-42,3.92-7.66,11.91-13.95,19.55-10.45,83.09,38.11,167.24,76.75,262.79,65.44C1296.09,680.37,1312.22,683.86,1324.26,684.29Z" style="fill:#ffdf4c;stroke:#3a3632;stroke-miterlimit:10;stroke-width:10px"/><path d="M1217.42,660.68c-3.51-5.85-8.87-9.95-15.14-9.52-15.94.85-27.1,21-21.22,33.32,33.55,71.7,99.15,127,180.08,136.74,10.86,1.35,15.72-10.57,20-19.48,2.29-5.21,2.21-11.89-2.71-14.24-53.44-25.58-107.59-51.44-141-104.21C1231,673.16,1222.57,666.54,1217.42,660.68Z" style="fill:#ffdf4c;stroke:#3a3632;stroke-miterlimit:10;stroke-width:10px"/><path d="M591.86,822.23c-7.9,6.93-17.7,10.49-26.69,7.1-23-8.28-29.83-42.4-15.4-57.62,83-89,205.3-140.07,328.56-118.32,16.56,2.85,18.08,22.27,20.12,37.05.89,8.55-2.37,18.19-10.69,19.42-90.43,13.38-182,26.88-256,88.48C617.61,810.16,602.18,816,591.86,822.23Z" style="fill:#ffdf4c;stroke:#3a3632;stroke-miterlimit:10;stroke-width:10px"/><path d="M1034,449.88c-3.51-5.86-8.87-10-15.14-9.53-15.94.85-27.1,21-21.22,33.32,33.56,71.7,99.15,127,180.08,136.74,10.86,1.35,15.73-10.57,20-19.48,2.28-5.21,2.2-11.89-2.71-14.24-53.45-25.57-107.59-51.44-141-104.21C1047.52,462.35,1039.13,455.73,1034,449.88Z" style="fill:#ffdf4c;stroke:#3a3632;stroke-miterlimit:10;stroke-width:10px"/><path d="M1090.39,548.61c8.15-7.73,18.46-12,28.21-8.73,24.9,7.86,33.69,44,18.93,60.89-84.85,98.6-213.28,158.45-345.87,140.52-17.82-2.33-20.27-23-23.09-38.71-1.32-9.1,1.76-19.53,10.58-21.2,96-18.19,193.29-36.55,269.61-105.52C1063.41,562.62,1079.64,555.68,1090.39,548.61Z" style="fill:#ffdf4c;stroke:#3a3632;stroke-miterlimit:10;stroke-width:10px"/><path d="M742.27,607.89c-10.4,1.5-20.55-.86-26.24-8.61-14.74-19.47-1.88-51.8,18.52-56.69,118.1-29.29,248.47-5.43,339.92,80,12.33,11.42,3,28.52-3.34,42-3.92,7.65-11.91,13.94-19.55,10.44-83.1-38.1-167.24-76.75-262.8-65.44C770.44,611.81,754.3,608.33,742.27,607.89Z" style="fill:#ffdf4c;stroke:#3a3632;stroke-miterlimit:10;stroke-width:10px"/><path d="M931,630.21c-10.4,1.5-20.55-.86-26.25-8.61-14.74-19.47-1.88-51.8,18.52-56.69,118.1-29.29,248.47-5.43,339.92,80,12.33,11.42,3,28.52-3.34,42-3.91,7.65-11.91,13.94-19.54,10.44-83.1-38.1-167.24-76.75-262.8-65.44C959.13,634.13,943,630.64,931,630.21Z" style="fill:#ffdf4c;stroke:#3a3632;stroke-miterlimit:10;stroke-width:10px"/><path d="M1056.64,643.58c3.51,5.85,8.87,9.95,15.14,9.52,15.94-.85,27.1-21,21.22-33.32-33.56-71.69-99.15-127-180.08-136.74-10.86-1.35-15.73,10.58-20,19.49-2.28,5.2-2.2,11.88,2.71,14.23,53.45,25.58,107.59,51.44,141,104.21C1043.1,631.1,1051.49,637.72,1056.64,643.58Z" style="fill:#ffdf4c;stroke:#3a3632;stroke-miterlimit:10;stroke-width:10px"/><path d="M1009,518c6.8.52,13.24-1.49,16.52-6.85,8.51-13.5-1.49-34.25-14.94-36.56-77.91-14-161,7.53-215.65,68-7.38,8.09-.45,18.95,4.36,27.57,2.93,4.87,8.43,8.67,13.19,6,51.74-28.85,104.14-58.1,166.53-54.92C991,521.86,1001.23,518.84,1009,518Z" style="fill:#ffdf4c;stroke:#3a3632;stroke-miterlimit:10;stroke-width:10px"/></svg>