<svg id="Layer_1" data-name="Layer 1" xmlns="http://www.w3.org/2000/svg" viewBox="0 0 1656.29 2000"><path d="M1449.55,362.94l-.65-.36a70.94,70.94,0,0,1-36.63-62.09v-121H244V300.11a70.94,70.94,0,0,1-36.75,62.16h0a308.2,308.2,0,0,0-159.64,270V1855.73a120.83,120.83,0,0,0,120.83,120.83H1487.83a120.83,120.83,0,0,0,120.83-120.83V632.67A308.19,308.19,0,0,0,1449.55,362.94Z" style="fill:#ffdf4c;stroke:#3a3632;stroke-width:20px"/><rect x="194.36" y="31.36" width="1267.57" height="243.2" style="fill:#3c54a3"/><rect x="194.36" y="31.36" width="1267.57" height="243.2" style="fill:none;stroke:#3a3632;stroke-linecap:round;stroke-linejoin:round;stroke-width:20px"/><line x1="264.78" y1="78.17" x2="264.78" y2="227.75" style="fill:none;stroke:#3a3632;stroke-linecap:round;stroke-linejoin:round;stroke-width:20px"/><line x1="335.2" y1="78.17" x2="335.2" y2="227.75" style="fill:none;stroke:#3a3632;stroke-linecap:round;stroke-linejoin:round;stroke-width:20px"/><line x1="405.62" y1="78.17" x2="405.62" y2="227.75" style="fill:none;stroke:#3a3632;stroke-linecap:round;stroke-linejoin:round;stroke-width:20px"/><line x1="476.04" y1="78.17" x2="476.04" y2="227.75" style="fill:none;stroke:#3a3632;stroke-linecap:round;stroke-linejoin:round;stroke-width:20px"/><line x1="546.46" y1="78.17" x2="546.46" y2="227.75" style="fill:none;stroke:#3a3632;stroke-linecap:round;stroke-linejoin:round;stroke-width:20px"/><line x1="616.88" y1="78.17" x2="616.88" y2="227.75" style="fill:none;stroke:#3a3632;stroke-linecap:round;stroke-linejoin:round;stroke-width:20px"/><line x1="687.3" y1="78.17" x2="687.3" y2="227.75" style="fill:none;stroke:#3a3632;stroke-linecap:round;stroke-linejoin:round;stroke-width:20px"/><line x1="757.72" y1="78.17" x2="757.72" y2="227.75" style="fill:none;stroke:#3a3632;stroke-linecap:round;stroke-linejoin:round;stroke-width:20px"/><line x1="828.15" y1="78.17" x2="828.15" y2="227.75" style="fill:none;stroke:#3a3632;stroke-linecap:round;stroke-linejoin:round;stroke-width:20px"/><line x1="898.57" y1="78.17" x2="898.57" y2="227.75" style="fill:none;stroke:#3a3632;stroke-linecap:round;stroke-linejoin:round;stroke-width:20px"/><line x1="968.99" y1="78.17" x2="968.99" y2="227.75" style="fill:none;stroke:#3a3632;stroke-linecap:round;stroke-linejoin:round;stroke-width:20px"/><line x1="1039.41" y1="78.17" x2="1039.41" y2="227.75" style="fill:none;stroke:#3a3632;stroke-linecap:round;stroke-linejoin:round;stroke-width:20px"/><line x1="1109.83" y1="78.17" x2="1109.83" y2="227.75" style="fill:none;stroke:#3a3632;stroke-linecap:round;stroke-linejoin:round;stroke-width:20px"/><line x1="1180.25" y1="78.17" x2="1180.25" y2="227.75" style="fill:none;stroke:#3a3632;stroke-linecap:round;stroke-linejoin:round;stroke-width:20px"/><line x1="1250.67" y1="78.17" x2="1250.67" y2="227.75" style="fill:none;stroke:#3a3632;stroke-linecap:round;stroke-linejoin:round;stroke-width:20px"/><line x1="1321.09" y1="78.17" x2="1321.09" y2="227.75" style="fill:none;stroke:#3a3632;stroke-linecap:round;stroke-linejoin:round;stroke-width:20px"/><line x1="1391.51" y1="78.17" x2="1391.51" y2="227.75" style="fill:none;stroke:#3a3632;stroke-linecap:round;stroke-linejoin:round;stroke-width:20px"/><rect x="231.91" y="827.75" width="1192.47" height="730.29" style="fill:#3c54a3"/><polygon points="1156.19 1448.26 731.15 1498.61 500.1 1474.3 500.1 928.72 719.93 888.43 1156.19 958.92 1156.19 1448.26" style="fill:#ffdf4c;stroke:#3a3632;stroke-miterlimit:10;stroke-width:20px"/><path d="M1129.18,1434.75,749,1481.82a13.21,13.21,0,0,1-14.68-13.13V923.55a13.21,13.21,0,0,1,15.13-13.07l380.21,61.69a13.2,13.2,0,0,1,11.29,13.07v436.38A13.21,13.21,0,0,1,1129.18,1434.75Z" style="fill:#ffc731"/></svg>