<svg id="Layer_1" data-name="Layer 1" xmlns="http://www.w3.org/2000/svg" viewBox="0 0 2000 2000"><g id="layer3"><path id="path904" d="M1100.59,456.66s82.84,165.67,90.73,323.46M743.43,355.91c252.46-31.56,345.33-29.43,522.84,10m-651-142.17c18.24-65.14,157-90.57,196.41-51.12C807.7,74,913.78,53.44,984.22,50.35c83.31-3.64,208.08,19.73,216,126.23,67.06-51.28,177.59-13.7,196.25,51.28,17.46,60.8-130.17,138.07-130.17,138.07l-7.89,102.56s-193.63-39.76-513.15-4.26l-1.8-108.32s-144.74-73.05-128.2-132.15Zm130,240.47c291.91-31.56,513.15,4.26,513.15,4.26,280.07,224.85,418.13,1396.42,418.13,1396.42-295.85,90.73-895.44,134.12-1353,0,0,0,141.67-1238.95,421.74-1400.68Zm154.18-11.52S820.52,575,824.46,614.44" style="fill:#fff;stroke:#3a3632;stroke-linecap:round;stroke-linejoin:round;stroke-width:20px"/><path id="path837" d="M831,1562.81c27.65-63.81,41.47-148.89-3.19-196.74-22.34-23.93-65.94-45.73-149.42-16C545,1397.44,495,1479.86,476.36,1540.48c-20.2,66.46-8,122.29-7.44,124.42l1.59,6.91,4.26,5.85c33,45.73,57.42,65.94,85.07,69.66a45.91,45.91,0,0,0,8.51.53c25,0,43.6-15.42,58.49-27.65,17.55-14.36,33.5-27.65,63.81-27.65,62.21,0,113.26-67,140.38-129.74Z" style="fill:#fffdf2;stroke:#3a3632;stroke-width:20px"/><path id="path839" d="M1390.46,1329.46c3.72-31.9-7.44-79.74-83.46-124.92-121.72-71.76-217.4-57.41-275.88-32.43-63.78,27.11-98.87,72.3-99.93,74.42l-4.25,5.85-1.6,6.91c-14.35,54.75-13.82,86.11,1.07,109.5,15.94,25,42.52,30.3,63.78,34,21.8,4.25,43.06,8,62.2,30.83,22.85,27.64,61.13,37.74,102.06,37.74,29.23,0,60.06-5.31,87.7-13.29,66.45-19.66,140.34-63.78,148.31-128.63Z" style="fill:#fffdf2;stroke:#3a3632;stroke-width:20px"/><path id="path841" d="M1155.07,1643.35l-3.28-6.58c-20.27-42.72-37.8-63.53-61.35-71.2-25.74-8.22-47.11,3.28-63,12-15.34,8.76-27.94,15.33-48.2,11.5-52.59-9.86-105.17,37.25-136.94,84.35C810,1721.67,785.89,1789.6,816,1836.7c12.6,19.72,37.79,41.08,88.19,41.08a270.93,270.93,0,0,0,34.5-2.74c177.47-28.48,219.1-159.39,216.36-224.57Z" style="fill:#fffdf2;stroke:#3a3632;stroke-width:20px"/><path id="path843" d="M713,1244.91a267.33,267.33,0,0,0,33.74-2.67c173.53-27.86,214.24-155.86,211.56-219.6l-.53-7-3.22-6.43c-19.82-41.77-37-62.12-60-69.62-25.18-8-46.07,3.21-61.6,11.78-15,8.57-27.31,15-47.13,11.25C734.46,953,683.05,999.08,652,1045.14c-31.6,47.13-55.16,113.54-25.7,159.6,13.39,19.29,38,40.17,86.76,40.17Z" style="fill:#fffdf2;stroke:#3a3632;stroke-width:20px"/><path id="path845" d="M1407.64,1499.55c-172.36,49.64-196.9,184.36-186,248.17l1.09,7.09,3.81,6c25.09,39.82,45.28,58.36,69.27,62.73a82.27,82.27,0,0,0,11.46,1.09c21.27,0,37.09-12,49.63-20.73,14.18-10.36,25.64-18.54,46.36-17.45,52.91,3.27,99.27-49.64,124.91-100.36,26.18-51.27,41.45-121.63,6-164.72-18.55-20.73-55.09-42.54-126.54-21.82Z" style="fill:#fffdf2;stroke:#3a3632;stroke-width:20px"/></g></svg>