<?xml version="1.0" encoding="UTF-8" standalone="no"?>
<svg
   xmlns:dc="http://purl.org/dc/elements/1.1/"
   xmlns:cc="http://creativecommons.org/ns#"
   xmlns:rdf="http://www.w3.org/1999/02/22-rdf-syntax-ns#"
   xmlns:svg="http://www.w3.org/2000/svg"
   xmlns="http://www.w3.org/2000/svg"
   xmlns:sodipodi="http://sodipodi.sourceforge.net/DTD/sodipodi-0.dtd"
   xmlns:inkscape="http://www.inkscape.org/namespaces/inkscape"
   inkscape:version="1.0beta1 (32d4812, 2019-09-19)"
   sodipodi:docname="cheese_curds.svg"
   version="1.1"
   viewBox="0 0 1377 1923.9821"
   height="1923.9821"
   width="1377"
   data-name="Layer 1"
   id="Layer_1">
  <metadata
     id="metadata845">
    <rdf:RDF>
      <cc:Work
         rdf:about="">
        <dc:format>image/svg+xml</dc:format>
        <dc:type
           rdf:resource="http://purl.org/dc/dcmitype/StillImage" />
        <dc:title />
      </cc:Work>
    </rdf:RDF>
  </metadata>
  <defs
     id="defs843" />
  <sodipodi:namedview
     inkscape:current-layer="Layer_1"
     inkscape:window-maximized="0"
     inkscape:window-y="23"
     inkscape:window-x="0"
     inkscape:cy="883.24881"
     inkscape:cx="400"
     inkscape:zoom="0.35"
     fit-margin-bottom="12"
     fit-margin-right="12"
     fit-margin-left="12"
     lock-margins="true"
     fit-margin-top="12"
     showgrid="false"
     id="namedview841"
     inkscape:window-height="1035"
     inkscape:window-width="1600"
     inkscape:pageshadow="2"
     inkscape:pageopacity="0"
     guidetolerance="10"
     gridtolerance="10"
     objecttolerance="10"
     borderopacity="1"
     inkscape:document-rotation="0"
     bordercolor="#666666"
     pagecolor="#ffffff" />
  <g
     style="stroke:#0d120d;stroke-opacity:1"
     id="g856">
    <path
       style="fill:none;stroke:#0d120d;stroke-width:24;stroke-linecap:butt;stroke-linejoin:round;stroke-miterlimit:4;stroke-dasharray:none;stroke-opacity:1"
       d="m 12,1826.8923 c 0,0 127.45429,-1209.25141 421.74,-1400.67998 l -1.83,-108.3 c 0,0 -144.74321,-73.04956 -128.2,-132.15 18.23708,-65.15178 133.56286,-91.14 196.42,-51.14 0,-182.857143 402.82571,-144.6114286 388.54,3.96 234.2857,-88.571429 251.7943,123.63571 66.08,189.35 l -7.88,102.54 C 1249.7271,727.61518 1365,1826.8923 1365,1826.8923 c -740,191.4286 -1353,0 -1353,0 z"
       id="path844"
       inkscape:connector-curvature="0"
       sodipodi:nodetypes="cccscccccc" />
    <path
       style="fill:none;stroke:#0d120d;stroke-width:24;stroke-linecap:butt;stroke-linejoin:miter;stroke-miterlimit:4;stroke-dasharray:none;stroke-opacity:1"
       d="m 431.88,317.91232 c 0,0 288.55429,-58.57143 522.84,10 l -7.85,102.56 c -200,-37.14286 -513.16,-4.24 -513.16,-4.24 z"
       id="path846"
       inkscape:connector-curvature="0"
       sodipodi:nodetypes="ccccc" />
    <path
       style="fill:none;stroke:#0d120d;stroke-width:24;stroke-linecap:round;stroke-linejoin:miter;stroke-miterlimit:4;stroke-dasharray:none;stroke-opacity:1"
       d="m 587.9,414.69232 c 0,0 -89.27571,153.17857 -74.99,161.75"
       id="path848"
       inkscape:connector-curvature="0"
       sodipodi:nodetypes="cc" />
    <path
       style="fill:none;stroke:#0d120d;stroke-width:24;stroke-linecap:round;stroke-linejoin:miter;stroke-miterlimit:4;stroke-dasharray:none;stroke-opacity:1"
       d="m 789.04,418.66232 c 0,0 110.73,246.31714 90.73,323.46"
       id="path850"
       inkscape:connector-curvature="0"
       sodipodi:nodetypes="cc" />
  </g>
  <path
     id="path837"
     d="m 519.45,1524.8123 c 27.65,-63.81 41.47,-148.89 -3.19,-196.74 -22.34,-23.93 -65.94,-45.73 -149.42,-16 -133.39,47.37 -183.39,129.79 -202.03,190.41 -20.2,66.46 -8,122.29 -7.44,124.42 l 1.59,6.91 4.26,5.85 c 33,45.73 57.42,65.94 85.07,69.66 a 45.91,45.91 0 0 0 8.51,0.53 c 25,0 43.6,-15.42 58.49,-27.65 17.55,-14.36 33.5,-27.65 63.81,-27.65 62.21,0 113.26,-67 140.38,-129.74 z"
     style="opacity:1;fill:#fffef3;stroke:#010101;stroke-width:23.4303;stop-opacity:1" />
  <path
     id="path839"
     d="m 1078.91,1291.4623 c 3.72,-31.9 -7.44,-79.74 -83.46,-124.92 -121.72,-71.76 -217.4,-57.41 -275.88,-32.43 -63.78,27.11 -98.87,72.3 -99.93,74.42 l -4.25,5.85 -1.6,6.91 c -14.35,54.75 -13.82,86.11 1.07,109.5 15.94,25 42.52,30.3 63.78,34 21.8,4.25 43.06,8 62.2,30.83 22.85,27.64 61.13,37.74 102.06,37.74 29.23,0 60.06,-5.31 87.7,-13.29 66.45,-19.66 140.34,-63.78 148.31,-128.63 z"
     style="opacity:1;fill:#fffef3;stroke:#010101;stroke-width:23.4303;stop-opacity:1" />
  <path
     id="path841"
     d="m 843.52,1605.3523 -3.28,-6.58 c -20.27,-42.72 -37.8,-63.53 -61.35,-71.2 -25.74,-8.22 -47.11,3.28 -63,12 -15.34,8.76 -27.94,15.33 -48.2,11.5 -52.59,-9.86 -105.17,37.25 -136.94,84.35 -32.3,48.25 -56.41,116.18 -26.3,163.28 12.6,19.72 37.79,41.08 88.19,41.08 a 270.93,270.93 0 0 0 34.5,-2.74 c 177.47,-28.48 219.1,-159.39 216.36,-224.57 z"
     style="opacity:1;fill:#fffef3;stroke:#010101;stroke-width:23.4303;stop-opacity:1" />
  <path
     id="path843"
     d="m 401.45,1206.9123 a 267.33,267.33 0 0 0 33.74,-2.67 c 173.53,-27.86 214.24,-155.86 211.56,-219.59998 l -0.53,-7 -3.22,-6.43 c -19.82,-41.77 -37,-62.12 -60,-69.62 -25.18,-8 -46.07,3.21 -61.6,11.78 -15,8.57 -27.31,15 -47.13,11.25 -51.36,-9.62 -102.77,36.46 -133.82,82.51998 -31.6,47.13 -55.16,113.54 -25.7,159.6 13.39,19.29 38,40.17 86.76,40.17 z"
     style="opacity:1;fill:#fffef3;stroke:#010101;stroke-width:23.4303;stop-opacity:1" />
  <path
     id="path845"
     d="m 1096.09,1461.5523 c -172.36,49.64 -196.9,184.36 -186,248.17 l 1.09,7.09 3.81,6 c 25.09,39.82 45.28,58.36 69.27,62.73 a 82.27,82.27 0 0 0 11.46,1.09 c 21.27,0 37.09,-12 49.63,-20.73 14.18,-10.36 25.64,-18.54 46.36,-17.45 52.91,3.27 99.27,-49.64 124.91,-100.36 26.18,-51.27 41.45,-121.63 6,-164.72 -18.55,-20.73 -55.09,-42.54 -126.54,-21.82 z"
     style="opacity:1;fill:#fffef3;stroke:#010101;stroke-width:23.4303;stop-opacity:1" />
</svg>
