<svg id="Layer_1" data-name="Layer 1" xmlns="http://www.w3.org/2000/svg" xmlns:xlink="http://www.w3.org/1999/xlink" viewBox="0 0 2000 2000"><defs><clipPath id="clip-path"><path id="path900" d="M2340.55-510.38V-1522.55c0,76,300.07,160.36,670.23,160.36s668.67-84.18,668.67-160.36V-510.38c0,76.19-298.51,194.71-668.67,194.71s-670.23-118.72-670.23-194.71Z" style="fill:none"/></clipPath></defs><g style="clip-path:url(#clip-path)"><ellipse cx="2930.72" cy="-308.91" rx="1010.3" ry="959.78" transform="translate(917.39 1843.08) rotate(-40.89)" style="fill:#ecdaba;stroke:#3a3632;stroke-linecap:round;stroke-linejoin:round;stroke-width:20px;isolation:isolate;opacity:0.991999983787537"/><path d="M1976.26-53.08c9.78-70.46-58.56-148.58-19.21-207.3,15.62-23.32,44.33-34.51,62.07-56.23,39.3-48.13,10.08-121.26,20.79-182.89,19.23-110.75,155.86-153.85,216.27-247.9,35.28-54.92,42.38-124.51,76.65-180.07,30.81-49.95,83.46-85.59,141.45-95.74,16.93-3,34.46-3.91,50.38-10.25,23.54-9.38,40.78-29.32,59.38-46.46,61.09-56.32,145.63-86.35,229.28-81.46,32.64,1.91,65.07,8.88,97.72,8.23,94.68-1.91,187-67.23,277.45-37.44,51.39,16.92,88.75,61.17,134.27,90.75,49.47,32.14,107.78,46.44,162.46,68.22s109.65,54.91,134.24,108.54c20.13,43.91,16.9,95.32,36.21,139.59,35.1,80.49,137.6,123.06,155.68,208.76,8.27,39.21-3.55,79.16-6.47,118.93-4,53.9,8.55,107.86,22.71,160.33,13.57,50.27,28.34,105.84,5.38,151.91-11.78,23.62-32.15,41.46-48.94,61.76-49.52,59.85-66.86,139.39-91.69,213.32s-64.25,150.58-135.93,180.75c-38,16-81.62,17.13-118.25,36-55.21,28.47-82.91,90.13-121.92,138.44-74.36,92.1-201.25,138.1-318.69,115.53-34.4-6.61-68.49-19-95.9-41.17-17.92-14.51-32.81-33-52.74-44.55-42.71-24.72-95.38-11.57-143.94-6.29-87.76,9.55-176.86-9.51-261.16-37.85-65.88-22.14-131.63-51.12-181.3-100.2-44.21-43.69-72.8-100.38-109.85-150.29-41-55.25-92.43-102.19-133.13-157.68S1965,14.08,1976.26-53.08" style="fill:#c93c27;stroke:#3a3632;stroke-miterlimit:10;stroke-width:8px"/></g><g id="layer1"><path id="path60" d="M1835.08,1310.39c98.06-233.21,96.36-504.9-41.43-740-76.28-130.17-186-241-317.05-316.21-237-136-517.87-135.08-775.12-66.14C431,260.5,227.25,451.81,138.64,718.49c-169.43,509.9,154.56,1022,670.54,1124a976.57,976.57,0,0,0,319.65,9.9c98.45-13.32,194.87-42.37,283.63-87.11C1607.09,1667.12,1754.65,1501.7,1835.08,1310.39Z" style="fill:#c93c27;stroke:#3a3632;stroke-width:20px"/><path id="path924" d="M528.24,703.88c-23.15-29-156,116.73-249.43,311-54,95.27,149.14,255,159.43,84.06C451.09,905.63,572.81,758.25,528.24,703.88Z" style="fill:#fff"/></g><g id="layer2"><path id="path920" d="M1118.79,578.54s-317-323.78-371-512.65C741,133.34,754.53,376.18,876,551.56c0,0-553.12,27-627.32,107.92,0,0,519.4,80.95,647.56,13.5,0,0-60.71,451.94,27,600.34,0,0,249.58-391.24,222.6-499.16,0,0,600.34,168.63,762.23,121.41-47.22-80.94-478.92-263.07-634.07-256.32,173.86-76.53,290-303.55,290-303.55s-377.74,209.11-445.19,242.84Z" style="fill:#07a44a"/></g></svg>