<svg id="Layer_1" data-name="Layer 1" xmlns="http://www.w3.org/2000/svg" xmlns:xlink="http://www.w3.org/1999/xlink" viewBox="0 0 2000 2000"><defs><clipPath id="clip-path"><path id="path900" d="M330.55-510.38V-1522.55c0,76,300.07,160.36,670.23,160.36s668.67-84.18,668.67-160.36V-510.38c0,76.19-298.51,194.71-668.67,194.71S330.55-434.39,330.55-510.38Z" style="fill:none"/></clipPath></defs><g style="clip-path:url(#clip-path)"><ellipse cx="920.72" cy="-308.91" rx="1010.3" ry="959.78" transform="translate(426.89 527.32) rotate(-40.89)" style="fill:#ecdaba;stroke:#3a3632;stroke-linecap:round;stroke-linejoin:round;stroke-width:20px;isolation:isolate;opacity:0.991999983787537"/><path d="M-33.74-53.08C-24-123.54-92.3-201.66-52.95-260.38c15.62-23.32,44.33-34.51,62.07-56.23C48.42-364.74,19.2-437.87,29.91-499.5,49.14-610.25,185.77-653.35,246.18-747.4c35.28-54.92,42.38-124.51,76.65-180.07,30.81-49.95,83.46-85.59,141.45-95.74,16.93-3,34.46-3.91,50.38-10.25,23.54-9.38,40.78-29.32,59.38-46.46,61.09-56.32,145.63-86.35,229.28-81.46,32.64,1.91,65.07,8.88,97.72,8.23,94.68-1.91,187-67.23,277.45-37.44,51.39,16.92,88.75,61.17,134.27,90.75,49.47,32.14,107.78,46.44,162.46,68.22s109.65,54.91,134.24,108.54c20.13,43.91,16.9,95.32,36.21,139.59,35.1,80.49,137.6,123.06,155.68,208.76,8.27,39.21-3.55,79.16-6.47,118.93-4,53.9,8.55,107.86,22.71,160.33,13.57,50.27,28.34,105.84,5.38,151.91-11.78,23.62-32.15,41.46-48.94,61.76-49.52,59.85-66.86,139.39-91.69,213.32s-64.25,150.58-135.93,180.75c-38,16-81.62,17.13-118.25,36-55.21,28.47-82.91,90.13-121.92,138.44-74.36,92.1-201.25,138.1-318.69,115.53-34.4-6.61-68.49-19-95.9-41.17-17.92-14.51-32.81-33-52.74-44.55C796.2,491.83,743.53,505,695,510.26c-87.76,9.55-176.86-9.51-261.16-37.85-65.88-22.14-131.63-51.12-181.3-100.2-44.21-43.69-72.8-100.38-109.85-150.29-41-55.25-92.43-102.19-133.13-157.68S-45,14.08-33.74-53.08" style="fill:#c93c27;stroke:#3a3632;stroke-miterlimit:10;stroke-width:8px"/><path d="M1098.09,575.42c-62.33-16.46-140,36.53-188.59-5.25-19.27-16.58-26.22-43.63-43.83-61.94-39-40.6-108-22.25-162.28-38.58-97.55-29.34-121.48-156.94-199.53-221.51-45.57-37.7-107.4-51.65-153.67-88.52C308.6,126.48,282.26,75.24,279.43,22c-.83-15.54.22-31.42-3.75-46.43-5.88-22.2-22-39.88-35.35-58.47-44-61.08-61.86-140.4-48.36-215.12,5.26-29.16,15.06-57.58,18-87,8.57-85.39-40.16-175.52-3.53-253.68,20.81-44.4,64.67-73.2,96.23-110.94,34.29-41,53.49-91.91,79-138.73s61.32-92.69,112.24-109c41.69-13.34,87.59-4.85,129.51-17.41,76.23-22.83,125.67-110.42,204.73-117.38,36.17-3.18,70.83,11.8,106.29,18.75,48.06,9.41,98,4,146.71-3,46.7-6.74,98.3-14,137.25,11.66,20,13.16,33.81,33.43,50.24,50.75,48.47,51,118.14,75.29,181.95,105.66s128.49,74.16,147.84,141.93c10.27,35.94,6.55,75.29,19.57,110.3,19.62,52.76,72.08,84.38,111.3,124.72,74.78,76.91,102.38,196.06,69.31,299.27-9.68,30.23-24.54,59.55-47.46,81.79-15,14.55-33.26,25.94-45.81,42.61C1678.49-112,1684.6-63.22,1684.08-19c-.95,80-27.78,158.08-62.43,230.84-27.08,56.87-60.3,112.87-109.85,152.22-44.11,35-98.21,54.59-147.14,82.5-54.16,30.89-102,72-156.32,102.64s-51,43.58-110.25,26.18" style="fill:#fffef0;stroke:#3a3632;stroke-miterlimit:10;stroke-width:8px"/></g><g id="layer1"><path id="path60" d="M1810.78,633.57c36.76-87.43,36.12-189.28-15.54-277.43-28.59-48.8-69.74-90.36-118.85-118.54-88.85-51-194.15-50.64-290.58-24.8C1284.4,240,1208,311.7,1174.8,411.67c-63.51,191.16,58,383.13,251.38,421.36A366.36,366.36,0,0,0,1546,836.74a336.89,336.89,0,0,0,106.33-32.66C1725.3,767.3,1780.62,705.29,1810.78,633.57Z" style="fill:#c93c27;stroke:#3a3632;stroke-width:20px"/><path id="path924" d="M1320.86,406.2c-8.68-10.86-58.5,43.76-93.51,116.6-20.24,35.71,55.91,95.59,59.77,31.51C1291.94,481.83,1337.57,426.58,1320.86,406.2Z" style="fill:#fff"/></g><g id="layer2"><path id="path920" d="M1542.25,359.21S1423.39,237.83,1403.16,167c-2.52,25.29,2.53,116.33,48,182.07,0,0-207.36,10.12-235.17,40.46,0,0,194.71,30.35,242.76,5.06,0,0-22.76,169.43,10.11,225.06,0,0,93.57-146.67,83.45-187.13,0,0,225.06,63.22,285.75,45.52-17.7-30.35-179.54-98.62-237.7-96.09,65.17-28.69,108.73-113.8,108.73-113.8s-141.61,78.39-166.89,91Z" style="fill:#07a44a"/></g><g id="layer1-2" data-name="layer1"><path id="path60-2" data-name="path60" d="M1108.87,623.77c36.76-87.43,36.12-189.29-15.53-277.43-28.6-48.81-69.74-90.37-118.86-118.55-88.85-51-194.14-50.64-290.58-24.79-101.41,27.18-177.79,98.9-211,198.87C409.38,593,530.84,785,724.27,823.22a366.14,366.14,0,0,0,119.84,3.72,337.09,337.09,0,0,0,106.32-32.66C1023.4,757.5,1078.71,695.49,1108.87,623.77Z" style="fill:#c93c27;stroke:#3a3632;stroke-width:20px"/><path id="path924-2" data-name="path924" d="M619,396.39c-8.67-10.85-58.49,43.76-93.51,116.6-20.24,35.72,55.92,95.59,59.77,31.52C590,472,635.66,416.78,619,396.39Z" style="fill:#fff"/></g><g id="layer2-2" data-name="layer2"><path id="path920-2" data-name="path920" d="M787.87,227.73s-149.21-81.21-189.31-143c5,24.92,36.51,110.48,99.3,160,0,0-195.28,70.46-213,107.62,0,0,195.06-28.06,233.58-66.32,0,0,27.9,168.65,75.64,212.21,0,0,46.46-167.65,24.93-203.37,0,0,233.71-5.53,286.54-40.24C1079.76,230.81,905,213,850.14,232.44c53.91-46.53,70.61-140.67,70.61-140.67s-112.41,116.46-132.88,136Z" style="fill:#07a44a"/></g><path id="path60-3" data-name="path60" d="M122.52,803.64C85.76,716.21,86.4,614.36,138.05,526.21c28.6-48.8,69.74-90.36,118.86-118.54,88.85-51,194.15-50.64,290.58-24.79,101.41,27.17,177.79,98.89,211,198.87,63.51,191.15-58,383.13-251.38,421.35a366.08,366.08,0,0,1-119.83,3.71A336.56,336.56,0,0,1,281,974.15C208,937.37,152.68,875.36,122.52,803.64Z" style="fill:#c93c27;stroke:#3a3632;stroke-width:20px"/><path id="path924-3" data-name="path924" d="M258.22,576.27c-8.67-10.86-58.49,43.76-93.51,116.6-20.24,35.72,55.92,95.59,59.77,31.51C229.3,651.9,274.93,596.65,258.22,576.27Z" style="fill:#fff"/><g id="layer2-3" data-name="layer2"><path id="path920-3" data-name="path920" d="M326,483.69S444.82,362.31,465.05,291.5c2.53,25.29-2.53,116.32-48.05,182.07,0,0,207.36,10.12,235.18,40.46,0,0-194.72,30.35-242.76,5.06,0,0,22.75,169.43-10.12,225.06,0,0-93.56-146.67-83.45-187.13,0,0-225.06,63.22-285.75,45.52,17.7-30.35,179.54-98.62,237.7-96.09-65.17-28.69-108.73-113.8-108.73-113.8S300.68,471,326,483.69Z" style="fill:#07a44a"/></g><path id="path60-4" data-name="path60" d="M1255.89,635.66c-49-80.94-131.58-140.14-233-150.14-56.16-5.54-113.82,3.3-165.37,26.42-93.23,41.81-154.7,127-190.39,220-37.52,97.78-24.43,201.47,36.78,286.9,117,163.34,343.18,177.88,487.45,44.18a365.42,365.42,0,0,0,73.26-94.53,336.26,336.26,0,0,0,36-105C1313.71,783.05,1296.09,702,1255.89,635.66Z" style="fill:#c93c27;stroke:#3a3632;stroke-width:20px"/><g id="layer2-4" data-name="layer2"><path id="path920-4" data-name="path920" d="M801.08,649s-167.65,24.75-236.66-.44c18.93,16.87,95.37,66.17,175.12,68,0,0-113.42,173.28-105.24,213.52,0,0,138.66-139.35,146.42-192.95,0,0,123.39,117.71,187.57,123.8,0,0-63.51-161.51-102.1-177.07,0,0,183-144.57,204.29-203.93-34.87-3.5-184.87,87.08-216.93,135.5,15.06-69.42-28.08-154.48-28.08-154.48S805.7,621.14,801.08,649Z" style="fill:#07a44a"/></g><path id="path60-5" data-name="path60" d="M1508,1367.08c83.8-42.57,148.56-120,166-219.75,9.64-55.22,5.15-113-14-165.78-34.53-95.46-114.37-162.66-203.86-204.89-94.1-44.41-197.8-39.1-287,15.23-170.48,103.87-201.6,326.85-79.81,479.66a363.14,363.14,0,0,0,88.25,79.58A334,334,0,0,0,1279,1394.54C1357.73,1413.46,1439.29,1402,1508,1367.08Z" style="fill:#c93c27;stroke:#3a3632;stroke-width:20px"/><path id="path924-4" data-name="path924" d="M1161.16,883.81c-8.6-10.76-58,43.37-92.68,115.56-20.06,35.39,55.42,94.73,59.24,31.23C1132.49,958.76,1177.72,904,1161.16,883.81Z" style="fill:#fff"/><g id="layer2-5" data-name="layer2"><path id="path920-5" data-name="path920" d="M1480.71,987.59s-12.12-167.93,17.93-234.43c-18.11,17.5-72.6,89.59-80.29,168.46,0,0-163.29-125.17-203.77-120,0,0,127.81,147.67,180.35,159.33,0,0-125.74,113.54-136.52,176.67,0,0,164.71-51,183-88.06,0,0,129.7,192,186.93,217.47,6.06-34.29-72.6-189.59-118.2-224.93,67.66,20,155.12-16.41,155.12-16.41s-157.3-31.43-184.53-38.06Z" style="fill:#07a44a"/></g><path id="path60-6" data-name="path60" d="M763.77,1497.62c83.81-42.57,148.57-120,166-219.75,9.64-55.23,5.15-113-14-165.79-34.54-95.45-114.38-162.66-203.86-204.88-94.1-44.41-197.8-39.1-287,15.23-170.48,103.87-201.6,326.85-79.81,479.66a362.73,362.73,0,0,0,88.25,79.57,333.74,333.74,0,0,0,101.33,43.42C613.47,1544,695,1532.54,763.77,1497.62Z" style="fill:#c93c27;stroke:#3a3632;stroke-width:20px"/><path id="path924-5" data-name="path924" d="M416.89,1014.34c-8.59-10.75-58,43.37-92.67,115.56-20.06,35.4,55.41,94.74,59.24,31.24C388.23,1089.3,433.45,1034.55,416.89,1014.34Z" style="fill:#fff"/><g id="layer2-6" data-name="layer2"><path id="path920-6" data-name="path920" d="M674.67,1101.5s52.5,160,39.48,231.78c13.32-21.37,48.69-104.52,37-182.91,0,0,188.78,81.82,226.8,67,0,0-159.82-112.26-213.61-110.82,0,0,94.44-140.66,89.58-204.52,0,0-147.42,89.42-156.15,129.82,0,0-172.4-154.78-234.11-165.62,2.45,34.73,116.43,166.31,169.25,189.54-70.51-3-146.51,53.54-146.51,53.54s160.23-7.67,188.25-7.84Z" style="fill:#07a44a"/></g><path id="path60-7" data-name="path60" d="M1343.57,1625.66c69.41-64.3,110.78-157.11,100.14-258.47-5.88-56.12-26.15-110.82-59.17-156.65-59.74-82.9-155.55-126-253.81-142.2-103.33-17.06-202.26,16.65-273.62,93.8C720.68,1309.67,752,1534.12,912,1648.5a365.6,365.6,0,0,0,107.35,52.73,336.06,336.06,0,0,0,110.06,14.11C1210.84,1712,1286.64,1678.4,1343.57,1625.66Z" style="fill:#c93c27;stroke:#3a3632;stroke-width:20px"/><g id="layer2-7" data-name="layer2"><path id="path920-7" data-name="path920" d="M1239,1182.84s-58-159.23-47.22-231.89c-12.72,21.93-45.61,106.73-31.33,185.21,0,0-192.57-76.2-230.34-60.08,0,0,164.42,107.75,218.49,104.56,0,0-90.45,144.57-83.49,208.66,0,0,145.41-94.73,152.88-135.66,0,0,178.45,150.12,240.89,159-3.59-34.86-122.52-163.54-176.41-185.2,71,.78,145.66-58.61,145.66-58.61s-160.95,12.91-189.13,14Z" style="fill:#07a44a"/></g><path id="path60-8" data-name="path60" d="M1846.75,1795.25c69.4-64.3,110.77-157.11,100.14-258.47-5.89-56.12-26.16-110.82-59.18-156.65-59.74-82.9-155.54-126-253.81-142.2-103.33-17.06-202.26,16.65-273.61,93.8-136.44,147.53-105.13,372,54.88,486.36a365.35,365.35,0,0,0,107.35,52.73,336,336,0,0,0,110.06,14.11C1714,1881.56,1789.82,1848,1846.75,1795.25Z" style="fill:#c93c27;stroke:#3a3632;stroke-width:20px"/><g id="layer2-8" data-name="layer2"><path id="path920-8" data-name="path920" d="M1742.12,1352.43s-58-159.23-47.22-231.89c-12.71,21.93-45.61,106.73-31.33,185.21,0,0-192.57-76.2-230.34-60.08,0,0,164.42,107.75,218.49,104.56,0,0-90.45,144.57-83.49,208.66,0,0,145.41-94.73,152.88-135.66,0,0,178.46,150.12,240.89,159-3.59-34.86-122.52-163.54-176.4-185.2,71,.78,145.66-58.61,145.66-58.61s-161,12.91-189.14,14Z" style="fill:#07a44a"/></g><path id="path60-9" data-name="path60" d="M874.77,1880.47c69.41-64.3,110.78-157.1,100.14-258.46-5.88-56.12-26.15-110.83-59.17-156.66-59.74-82.9-155.55-126-253.81-142.19-103.33-17.07-202.26,16.64-273.62,93.8-136.43,147.53-105.13,372,54.88,486.36A365.26,365.26,0,0,0,550.55,1956a336,336,0,0,0,110.05,14.11C742,1966.78,817.84,1933.22,874.77,1880.47Z" style="fill:#c93c27;stroke:#3a3632;stroke-width:20px"/><g id="layer2-9" data-name="layer2"><path id="path920-9" data-name="path920" d="M770.15,1437.66s-58-159.23-47.22-231.9c-12.72,21.94-45.61,106.73-31.33,185.22,0,0-192.57-76.21-230.34-60.09,0,0,164.42,107.76,218.49,104.57,0,0-90.45,144.57-83.49,208.65,0,0,145.41-94.73,152.88-135.66,0,0,178.46,150.13,240.89,159-3.59-34.86-122.52-163.54-176.41-185.19,71,.77,145.66-58.62,145.66-58.62s-160.95,12.91-189.13,14Z" style="fill:#07a44a"/></g></svg>