<svg id="Layer_1" data-name="Layer 1" xmlns="http://www.w3.org/2000/svg" xmlns:xlink="http://www.w3.org/1999/xlink" viewBox="0 0 1541.33 2000"><defs><clipPath id="clip-path"><ellipse cx="966.81" cy="576.33" rx="210.24" ry="247.86" style="fill:#3a3632"/></clipPath></defs><path d="M1027.39,166.39V66.79c0-9.3,45.52-16.85,101.68-16.85s101.69,7.55,101.69,16.85v99.6" style="fill:#fff;stroke:#3a3632;stroke-linecap:round;stroke-linejoin:round;stroke-width:20px"/><line x1="1073.38" y1="68.8" x2="1073.38" y2="166.39" style="fill:#fff;stroke:#3a3632;stroke-linecap:round;stroke-linejoin:round;stroke-width:10px"/><line x1="1111.13" y1="68.8" x2="1111.13" y2="166.39" style="fill:#fff;stroke:#3a3632;stroke-linecap:round;stroke-linejoin:round;stroke-width:10px"/><line x1="1148.89" y1="68.8" x2="1148.89" y2="166.39" style="fill:#fff;stroke:#3a3632;stroke-linecap:round;stroke-linejoin:round;stroke-width:10px"/><line x1="1186.64" y1="68.8" x2="1186.64" y2="166.39" style="fill:#fff;stroke:#3a3632;stroke-linecap:round;stroke-linejoin:round;stroke-width:10px"/><g id="layer2"><path id="rect867" d="M45.65,236.07l338.76-60.69V1949.94L51.15,1814Z" style="fill:#fff;stroke:#3a3632;stroke-linecap:round;stroke-linejoin:round;stroke-width:20px"/><path id="rect865" d="M384.41,175.38h1111.9V1949.94H384.41Z" style="fill:#fff;stroke:#3a3632;stroke-linecap:round;stroke-linejoin:round;stroke-width:20px"/></g><polygon points="215.03 493.63 45.65 236.07 384.41 175.38 215.03 493.63" style="fill:#fff;stroke:#3a3632;stroke-linecap:round;stroke-linejoin:round;stroke-width:20px"/><g id="layer2-2" data-name="layer2"><g id="g1522"><path id="path862" d="M1380.21,1372.78c-2.53,251.17-200.13,424.28-424.68,424.28s-435.92-182.73-437.47-430.6c-5-158.67,199.19-224.74,423.74-224.74S1375.88,1238.26,1380.21,1372.78Z" style="fill:#fff;stroke:#3a3632;stroke-linecap:round;stroke-linejoin:round;stroke-width:20px"/><path id="path857" d="M516.62,1375c-1.72-165.3,204.06-236.75,428.61-236.75S1379,1216.6,1380.71,1375" style="fill:#fff;stroke:#3a3632;stroke-linecap:round;stroke-linejoin:round;stroke-width:20px"/><path id="path887" d="M1301.88,1432.8c77.48,66.31-91.91,164.7-351.94,164.7s-433.4-101.88-379.76-171.68c91.38-94.24,273-113.09,382.07-113.09s254.28,31.07,349.63,120.07Z" style="fill:#e5cc9b"/><path id="path887-2" data-name="path887" d="M1209.52,1476.5c57.67,41.74-68.42,103.67-262,103.67S625,1516,664.88,1472.11c68-59.31,203.22-71.18,284.39-71.18s189.27,19.55,260.25,75.57Z" style="fill:#ceb77b"/><path id="path889" d="M753.52,1758.64c37.74,85.78,344.82,87.5,382.57,1.72" style="fill:none;stroke:#3a3632;stroke-linecap:round;stroke-linejoin:round;stroke-width:20px"/><path id="path857-2" data-name="path857" d="M1380.71,1375c1.34,124.11-207.49,226.45-432,226.45s-430.76-102.34-432-226.45" style="fill:none;stroke:#3a3632;stroke-linecap:round;stroke-linejoin:round;stroke-width:20px"/></g></g><path d="M840.54,952.22a89.3,89.3,0,0,1-2.73,32.72c-2.86,10.65-7.74,19.19-10.7,27.95a73.53,73.53,0,0,0-4.63,26.86c0,9.52.92,18.92,3.47,26.56,2.38,7.82,6.67,14.4,11.37,23.38a95.45,95.45,0,0,1,10.83,33.85,128.43,128.43,0,0,1-.91,38c-2.21,13-7.52,24.08-11.79,32.38s-7.5,14.85-8.92,22.71c-1.54,7.68-1.69,17.3-1,25.68s2.89,15.65,6.64,23.7,9,17.53,11.75,29.8a113.35,113.35,0,0,1,2.24,36.46c-.94,12-4.32,24-9.07,33s-9.94,15.72-13.64,24-6.16,18.25-7.06,29a89.57,89.57,0,0,1,2.7-32.73c2.86-10.66,7.73-19.21,10.69-28a73.49,73.49,0,0,0,4.64-26.85c0-9.51-.91-18.93-3.44-26.56-2.38-7.81-6.63-14.43-11.32-23.38a96.18,96.18,0,0,1-10.88-33.8,129.49,129.49,0,0,1,.85-38c2.18-13,7.45-24.17,11.76-32.47s7.55-14.86,9-22.71c1.56-7.67,1.7-17.27,1-25.67s-2.85-15.68-6.6-23.71-9-17.49-11.77-29.73a113,113,0,0,1-2.28-36.45c.94-12,4.29-24,9.05-33s9.94-15.73,13.64-24.06S839.65,963,840.54,952.22Z" style="fill:#3a3632"/><path d="M963.2,952.22a89.3,89.3,0,0,1-2.72,32.72c-2.86,10.65-7.74,19.19-10.7,27.95a73.53,73.53,0,0,0-4.63,26.86c0,9.52.92,18.92,3.47,26.56,2.38,7.82,6.67,14.4,11.36,23.38a95.65,95.65,0,0,1,10.84,33.85,128.43,128.43,0,0,1-.91,38c-2.21,13-7.52,24.08-11.79,32.38s-7.5,14.85-8.92,22.71c-1.54,7.68-1.69,17.3-1,25.68s2.89,15.65,6.64,23.7,9,17.53,11.75,29.8a113.63,113.63,0,0,1,2.24,36.46c-.94,12-4.32,24-9.07,33s-9.94,15.72-13.64,24-6.17,18.25-7.06,29a89.57,89.57,0,0,1,2.7-32.73c2.86-10.66,7.73-19.21,10.69-28a73.7,73.7,0,0,0,4.64-26.85c0-9.51-.91-18.93-3.44-26.56-2.38-7.81-6.63-14.43-11.32-23.38a96,96,0,0,1-10.88-33.8,129.49,129.49,0,0,1,.85-38c2.18-13,7.45-24.17,11.76-32.47s7.55-14.86,9-22.71c1.56-7.67,1.7-17.27,1-25.67s-2.85-15.68-6.61-23.71-9-17.49-11.76-29.73a112.74,112.74,0,0,1-2.28-36.45c.94-12,4.29-24,9-33s9.94-15.73,13.64-24.06S962.32,963,963.2,952.22Z" style="fill:#3a3632"/><path d="M1085.87,952.22a89.3,89.3,0,0,1-2.72,32.72c-2.86,10.65-7.74,19.19-10.7,27.95a73.54,73.54,0,0,0-4.64,26.86c0,9.52.93,18.92,3.48,26.56,2.38,7.82,6.67,14.4,11.36,23.38a95.65,95.65,0,0,1,10.84,33.85,128.76,128.76,0,0,1-.91,38c-2.21,13-7.52,24.08-11.79,32.38s-7.5,14.85-8.92,22.71c-1.55,7.68-1.69,17.3-1,25.68s2.89,15.65,6.64,23.7,9,17.53,11.75,29.8a113.63,113.63,0,0,1,2.24,36.46c-1,12-4.33,24-9.07,33s-9.94,15.72-13.64,24-6.17,18.25-7.06,29a89.36,89.36,0,0,1,2.7-32.73c2.86-10.66,7.73-19.21,10.69-28a73.7,73.7,0,0,0,4.64-26.85c0-9.51-.91-18.93-3.44-26.56-2.39-7.81-6.63-14.43-11.32-23.38a96,96,0,0,1-10.88-33.8,129.49,129.49,0,0,1,.85-38c2.18-13,7.44-24.17,11.76-32.47s7.55-14.86,9-22.71c1.57-7.67,1.71-17.27,1-25.67a65.46,65.46,0,0,0-6.61-23.71c-3.7-7.94-9-17.49-11.76-29.73a112.74,112.74,0,0,1-2.28-36.45c.93-12,4.29-24,9-33s9.94-15.73,13.65-24.06S1085,963,1085.87,952.22Z" style="fill:#3a3632"/><ellipse cx="966.81" cy="576.33" rx="210.24" ry="247.86" style="fill:#3a3632"/><g style="clip-path:url(#clip-path)"><path d="M971.1,769.76l.66-.45.8-1Z"/><path d="M1140.06,516.62c-20,18.69-47.42,29.77-74.54,32-11.56.93-22.89-3.52-33.85-6.86a372,372,0,0,0-46.81-11.24c-12.27-2.07-16.4-11.09-20.74-21.91a166.18,166.18,0,0,0-17.84-33.07c-5.36-7.7-12.41-15.57-21.52-17.83a19.63,19.63,0,0,0-4.88-7.21,67.42,67.42,0,0,0-15.78-12.17c-1.47-.82-3-1.58-4.51-2.27s-3.13-1.32-4.71-1.91a9.73,9.73,0,0,0,5.85-8.38c.07-2.23-1-6.35-3.33-7.36-.75-.33-5.37.13-5.36.84,0-3.22-2.16-6.36-6.5-7.25a9.68,9.68,0,0,0-9.47,3.46,12,12,0,0,0-8.67-1.79,7.83,7.83,0,0,0-6.13,5.95c-2.6-2.15-5.91-1.43-8,.1s-3.1,5.58-2.64,8.76c-3.05.88-7.62,5.95-8.22,9.9a33.48,33.48,0,0,0,.86,12.07,67.72,67.72,0,0,0-14.78,13.13c6.61,3.35,14.32,3.54,21.73,3.66-1.08,4.22-2,8.81-1.65,13.15a18.76,18.76,0,0,0,5.05,11.77c3.6,3.58,8.86,5.07,13.94,5.19-5.47-.13-10.24,26.66-10.89,30.72-2.71,17.08-4.15,32.15-.64,49.43,2.89,14.21,7.34,28.21,14.51,40.82,8.66,15.22,21.52,28.26,37.72,35.31,3.12,1.36,8.58,2.65,11,5.13,3.1,3.16,3.21,9,4.16,13.07A41.76,41.76,0,0,0,939,695.15a46.11,46.11,0,0,0,13.18,6.76c4.52,1.53,9.33,2.05,11,7.32,1.1,3.51.42,7.31-.44,10.88A114.57,114.57,0,0,1,952,748.2a20.18,20.18,0,0,1-5,6.57c-3.53,2.72-8.28,3.05-12.71,3.57a99.31,99.31,0,0,0-28.78,7.88,63.77,63.77,0,0,1,19,2.3,68.67,68.67,0,0,0-24.28,10l13.76-2c6.78-1,13.61-2,20.45-1.53a65,65,0,0,0-17.83,11.26c10.64-2.13,21.61-5.42,32.38-6.09a277.26,277.26,0,0,1,35,0c-4.72-6.18-12.47-9.11-18.62-13.87a2,2,0,0,1-.83-1c-.34-1.29,1.79-1.8,2.88-1s1.85,2.09,3.16,2.36a2.83,2.83,0,0,0,3-2,5.54,5.54,0,0,0-.37-3.87c-1-2.34-2.74-4.27-4.15-6.38s-2.53-4.67-2-7.15c1-4.36,2.52-6.87,4.31-11a152.72,152.72,0,0,0,8.86-26.77,19,19,0,0,0,13-3.52c1.37-1,2.68-2.17,4.32-2.53,3-.66,5.94,1.8,6.94,4.69s.54,6,.07,9.07l-2.79,18.11a6.92,6.92,0,0,1-.94,3c-.87,1.26-2.45,1.78-3.93,2.2-9.11,2.57-18.79,4.19-26.67,9.39l-1,1.25,11.24,1.15a77.51,77.51,0,0,0-7.56,5.41q4.92-.39,9.86-.42a22.31,22.31,0,0,0-6.9,6.81,192.21,192.21,0,0,1,26.91-5.19,81.22,81.22,0,0,1,14.19-.7c7.55.41,15.21,2.73,22.23-.08a53.29,53.29,0,0,1-13.74-5.27c-3.46-1.91-9.41-4.44-10.21-8.52a1.07,1.07,0,0,1,0-.75c.21-.37.75-.34,1.18-.3a3.52,3.52,0,0,0,2.76-.66,3.06,3.06,0,0,0,.55-3.3,12.84,12.84,0,0,0-1.88-3c-6.31-8.69-4.08-20-1.94-29.69,1.63-7.38,4.13-15.15,9.41-21.08,5.94-6.68,10.22-6.76,18.07-9.79,4.85-1.87,9.45-4.61,12.67-8.79,3.4-4.42,4.93-10,7.07-15.11s5.18-10,10.56-12.16c4.73-1.87,8.79-4.18,10-9.74,0-.12,8.17-2.38,9.08-2.84a23.71,23.71,0,0,0,7.78-6.21c4.72-5.85,5.53-12.79,5.32-20,.08,2.87,15.44-4.62,16.84-5.67a18.48,18.48,0,0,0,6.88-16.62c-.24-2.52-1.34-5.34-3.76-6.1,6.09-1.23,11.15-5.72,14.23-11.11s4.38-11.61,5.05-17.78C1146.19,534.13,1145.74,524.2,1140.06,516.62Z" style="fill:#fff"/></g></svg>