<?xml version="1.0" encoding="UTF-8"?>
<svg id="Isolation_Mode" data-name="Isolation Mode" xmlns="http://www.w3.org/2000/svg" width="1417.21" height="2000" xmlns:xlink="http://www.w3.org/1999/xlink" viewBox="0 0 1417.21 2000">
  <defs>
    <clipPath id="clippath">
      <ellipse cx="708.6" cy="674.33" rx="210.24" ry="247.86" style="fill: #3a3632; stroke-width: 0px;"/>
    </clipPath>
  </defs>
  <path d="m1287.79,1925.67H129.92c-30.29,0-54.85-24.56-54.85-54.85V509.66c0-34.04,4.97-67.9,14.76-100.5l15.25-50.8v-40.83h1207.62v40.83l15.25,50.92c9.74,32.52,14.68,66.29,14.68,100.24v1361.31c0,30.29-24.56,54.85-54.85,54.85Z" style="fill: #fff; stroke: #3a3632; stroke-linecap: round; stroke-linejoin: round; stroke-width: 20px;"/>
  <g>
    <g id="layer2">
      <g id="g1522">
        <path id="path862" d="m1140.15,1360.72c-2.53,251.17-200.13,424.29-424.68,424.29s-435.92-182.73-437.47-430.61c-4.98-158.66,199.19-224.74,423.74-224.74s434.07,96.54,438.41,231.06Z" style="fill: #fff; stroke: #3a3632; stroke-linecap: round; stroke-linejoin: round; stroke-width: 20px;"/>
        <path id="path857" d="m276.56,1362.97c-1.72-165.29,204.06-236.75,428.61-236.75s433.76,78.32,435.48,236.75" style="fill: #fff; stroke: #3a3632; stroke-linecap: round; stroke-linejoin: round; stroke-width: 20px;"/>
        <path id="path887" d="m1061.83,1420.73c77.48,66.31-91.92,164.71-351.95,164.71s-433.4-101.88-379.76-171.69c91.38-94.23,273.02-113.09,382.06-113.09s254.28,31.07,349.64,120.07h0Z" style="fill: #e5cc9b; stroke-width: 0px;"/>
        <path id="path887-2" data-name="path887" d="m969.46,1464.44c57.67,41.74-68.42,103.67-261.97,103.67s-322.6-64.13-282.67-108.06c68.02-59.31,203.22-71.18,284.39-71.18s189.28,19.56,260.25,75.57h0Z" style="fill: #ceb77b; stroke-width: 0px;"/>
        <path id="path889" d="m513.46,1746.58c37.74,85.78,344.83,87.49,382.57,1.72" style="fill: none; stroke: #3a3632; stroke-linecap: round; stroke-linejoin: round; stroke-width: 20px;"/>
        <path id="path857-2" data-name="path857" d="m1140.65,1362.97c1.34,124.11-207.49,226.45-432.05,226.45s-430.76-102.34-432.05-226.45" style="fill: none; stroke: #3a3632; stroke-linecap: round; stroke-linejoin: round; stroke-width: 20px;"/>
      </g>
    </g>
    <g>
      <path d="m600.48,940.16c1.01,10.66.33,22.21-2.72,32.72-2.87,10.65-7.74,19.19-10.7,27.95-3.19,8.58-4.73,17.37-4.63,26.87.02,9.52.92,18.92,3.47,26.56,2.38,7.82,6.67,14.4,11.37,23.38,4.79,8.77,9.39,21.01,10.83,33.85,1.53,12.67,1.33,25.03-.91,37.96-2.2,13.03-7.52,24.08-11.79,32.39-4.37,8.25-7.5,14.85-8.92,22.71-1.54,7.68-1.69,17.3-.97,25.68.66,8.49,2.89,15.65,6.64,23.7,3.71,7.96,8.97,17.53,11.75,29.8,2.89,12.16,3.33,24.68,2.25,36.46-.95,11.96-4.33,23.97-9.07,32.98-4.72,9.06-9.94,15.72-13.64,24.06-3.8,8.19-6.17,18.24-7.06,29-1.02-10.66-.34-22.21,2.7-32.73,2.86-10.66,7.73-19.21,10.69-27.97,3.19-8.58,4.73-17.36,4.64-26.85,0-9.51-.91-18.93-3.44-26.57-2.38-7.81-6.63-14.43-11.32-23.37-4.78-8.76-9.41-20.96-10.88-33.8-1.52-12.69-1.37-25.02.85-37.96,2.18-13.03,7.44-24.17,11.76-32.47,4.4-8.26,7.55-14.86,8.99-22.71,1.57-7.67,1.71-17.27,1.03-25.67-.65-8.5-2.85-15.67-6.6-23.7-3.7-7.94-8.95-17.49-11.76-29.74-2.9-12.14-3.38-24.68-2.28-36.45.94-11.95,4.29-23.97,9.05-32.98,4.72-9.07,9.94-15.73,13.64-24.06,3.8-8.19,6.17-18.25,7.06-29.01Z" style="fill: #3a3632; stroke-width: 0px;"/>
      <path d="m723.15,940.16c1.01,10.66.33,22.21-2.72,32.72-2.87,10.65-7.74,19.19-10.7,27.95-3.19,8.58-4.73,17.37-4.63,26.87.02,9.52.92,18.92,3.47,26.56,2.38,7.82,6.67,14.4,11.37,23.38,4.79,8.77,9.39,21.01,10.83,33.85,1.53,12.67,1.33,25.03-.91,37.96-2.2,13.03-7.52,24.08-11.79,32.39-4.37,8.25-7.5,14.85-8.92,22.71-1.54,7.68-1.69,17.3-.97,25.68.66,8.49,2.89,15.65,6.64,23.7,3.71,7.96,8.97,17.53,11.75,29.8,2.89,12.16,3.33,24.68,2.24,36.46-.95,11.96-4.33,23.97-9.07,32.98-4.72,9.06-9.94,15.72-13.64,24.06-3.8,8.19-6.17,18.24-7.06,29-1.02-10.66-.34-22.21,2.7-32.73,2.86-10.66,7.73-19.21,10.69-27.97,3.19-8.58,4.73-17.36,4.64-26.85,0-9.51-.91-18.93-3.44-26.57-2.38-7.81-6.63-14.43-11.32-23.37-4.78-8.76-9.41-20.96-10.88-33.8-1.52-12.69-1.37-25.02.85-37.96,2.18-13.03,7.44-24.17,11.76-32.47,4.4-8.26,7.55-14.86,8.99-22.71,1.57-7.67,1.71-17.27,1.03-25.67-.65-8.5-2.85-15.67-6.6-23.7-3.7-7.94-8.95-17.49-11.76-29.74-2.9-12.14-3.38-24.68-2.28-36.45.94-11.95,4.29-23.97,9.05-32.98,4.72-9.07,9.94-15.73,13.64-24.06,3.81-8.19,6.17-18.25,7.06-29.01Z" style="fill: #3a3632; stroke-width: 0px;"/>
      <path d="m845.81,940.16c1.01,10.66.33,22.21-2.72,32.72-2.87,10.65-7.74,19.19-10.7,27.95-3.19,8.58-4.73,17.37-4.63,26.87.02,9.52.92,18.92,3.47,26.56,2.38,7.82,6.67,14.4,11.37,23.38,4.79,8.77,9.39,21.01,10.83,33.85,1.53,12.67,1.33,25.03-.91,37.96-2.2,13.03-7.52,24.08-11.79,32.39-4.37,8.25-7.5,14.85-8.92,22.71-1.54,7.68-1.69,17.3-.97,25.68.66,8.49,2.89,15.65,6.64,23.7,3.71,7.96,8.97,17.53,11.75,29.8,2.89,12.16,3.33,24.68,2.24,36.46-.95,11.96-4.33,23.97-9.07,32.98-4.72,9.06-9.94,15.72-13.64,24.06-3.8,8.19-6.17,18.24-7.06,29-1.02-10.66-.34-22.21,2.7-32.73,2.86-10.66,7.73-19.21,10.69-27.97,3.19-8.58,4.73-17.36,4.64-26.85,0-9.51-.91-18.93-3.44-26.57-2.38-7.81-6.63-14.43-11.32-23.37-4.78-8.76-9.41-20.96-10.88-33.8-1.52-12.69-1.37-25.02.85-37.96,2.18-13.03,7.44-24.17,11.76-32.47,4.4-8.26,7.55-14.86,8.99-22.71,1.57-7.67,1.71-17.27,1.03-25.67-.65-8.5-2.85-15.67-6.6-23.7-3.7-7.94-8.95-17.49-11.76-29.74-2.9-12.14-3.38-24.68-2.28-36.45.94-11.95,4.29-23.97,9.05-32.98,4.72-9.07,9.94-15.73,13.64-24.06,3.81-8.19,6.17-18.25,7.06-29.01Z" style="fill: #3a3632; stroke-width: 0px;"/>
    </g>
  </g>
  <g>
    <ellipse cx="708.6" cy="674.33" rx="210.24" ry="247.86" style="fill: #3a3632;"/>
    <g style="clip-path: url(#clippath);">
      <g>
        <path d="m712.89,867.77c.22-.16.44-.3.66-.45.21-.27.44-.57.8-1.04-.49.5-.98.99-1.47,1.49Z" style="stroke-width: 0px;"/>
        <path d="m881.85,614.62c-19.95,18.69-47.41,29.77-74.53,31.96-11.56.93-22.89-3.52-33.85-6.86-15.33-4.68-31-8.58-46.81-11.24-12.28-2.07-16.4-11.09-20.74-21.91-4.67-11.65-10.67-22.77-17.84-33.07-5.36-7.7-12.41-15.58-21.52-17.83-.91-2.78-2.85-5.1-4.88-7.21-4.63-4.8-9.94-8.94-15.78-12.18-1.47-.82-2.98-1.57-4.51-2.27-1.54-.7-3.13-1.32-4.72-1.9,3.29-1.4,5.73-4.77,5.85-8.38.08-2.23-1.01-6.35-3.33-7.36-.74-.32-5.36.13-5.35.84-.05-3.21-2.17-6.35-6.51-7.25-3.14-.65-7.24.43-9.47,3.46-2.58-1.58-5.71-2.43-8.67-1.79-2.95.64-5.62,2.97-6.13,5.95-2.6-2.15-5.91-1.43-8.02.09-2.11,1.53-3.09,5.59-2.63,8.76-3.05.88-7.62,5.95-8.23,9.9-.61,3.95,0,8.17.87,12.07-5.53,3.62-10.53,8.06-14.78,13.13,6.61,3.35,14.32,3.54,21.73,3.66-1.08,4.22-2.01,8.81-1.65,13.16.37,4.34,1.96,8.69,5.05,11.77,3.6,3.58,8.86,5.07,13.93,5.19-5.47-.13-10.24,26.66-10.88,30.71-2.71,17.08-4.15,32.15-.64,49.43,2.89,14.21,7.34,28.22,14.51,40.82,8.66,15.23,21.51,28.26,37.71,35.31,3.12,1.36,8.59,2.66,11.02,5.13,3.1,3.15,3.21,9.02,4.17,13.07,2.2,9.33,7.99,17.61,15.6,23.36,4.02,3.03,8.43,5.15,13.18,6.76,4.52,1.53,9.33,2.05,10.99,7.33,1.1,3.51.43,7.3-.43,10.88-2.35,9.78-5.99,19.26-10.81,28.09-1.32,2.43-2.79,4.87-4.98,6.56-3.53,2.73-8.28,3.05-12.71,3.57-9.92,1.16-19.66,3.83-28.79,7.88,6.41-.2,12.86.58,19.04,2.3-8.63,1.73-16.93,5.14-24.28,9.99,4.59-.66,9.18-1.32,13.76-1.98,6.78-.98,13.61-1.96,20.44-1.53-6.5,2.75-12.55,6.57-17.82,11.27,10.64-2.13,21.6-5.42,32.38-6.1,11.63-.73,23.31-.73,34.94,0-4.72-6.19-12.47-9.12-18.62-13.87-.35-.27-.71-.57-.82-1-.34-1.29,1.79-1.8,2.88-1.04,1.09.76,1.85,2.09,3.16,2.36,1.3.27,2.61-.74,3.03-1.99.43-1.25.14-2.64-.37-3.87-.98-2.35-2.74-4.27-4.15-6.38-1.42-2.11-2.53-4.67-1.97-7.15.98-4.36,2.52-6.86,4.31-10.96,3.77-8.63,6.74-17.6,8.86-26.77,4.55.52,9.24-.87,12.97-3.52,1.37-.97,2.68-2.16,4.32-2.53,2.98-.66,5.94,1.8,6.94,4.69,1,2.89.54,6.05.07,9.07-.93,6.03-1.86,12.07-2.8,18.1-.16,1.03-.33,2.11-.93,2.96-.88,1.26-2.46,1.78-3.93,2.2-9.12,2.57-18.79,4.19-26.68,9.39-.29.35-.52.64-1.01,1.25,3.74.38,7.49.76,11.23,1.15-2.62,1.65-5.15,3.46-7.55,5.41,3.28-.26,6.57-.4,9.85-.42-2.76,1.73-5.14,4.07-6.9,6.81,8.83-2.37,17.83-4.1,26.9-5.2,4.71-.57,9.46-.96,14.2-.7,7.54.41,15.21,2.74,22.22-.07-4.79-1.11-9.43-2.9-13.74-5.27-3.46-1.91-9.41-4.43-10.21-8.52-.05-.25-.09-.53.03-.75.22-.37.75-.35,1.18-.3.97.1,2.05,0,2.77-.66.88-.8.95-2.19.55-3.3-.4-1.11-1.19-2.03-1.89-2.99-6.3-8.69-4.07-20-1.93-29.69,1.63-7.38,4.13-15.15,9.41-21.08,5.94-6.68,10.22-6.76,18.07-9.79,4.86-1.88,9.46-4.61,12.67-8.79,3.4-4.42,4.93-9.95,7.07-15.11,2.2-5.29,5.18-10.03,10.56-12.16,4.73-1.88,8.79-4.18,10.02-9.74.03-.12,8.17-2.38,9.08-2.84,2.99-1.52,5.67-3.59,7.78-6.2,4.72-5.86,5.53-12.79,5.33-20.05.08,2.87,15.44-4.62,16.84-5.67,5.06-3.8,7.5-10.27,6.88-16.62-.25-2.52-1.34-5.34-3.76-6.1,6.08-1.23,11.15-5.73,14.23-11.11,3.08-5.39,4.38-11.61,5.05-17.78,1.03-9.42.58-19.35-5.1-26.93Z" style="fill: #fff; stroke-width: 0px;"/>
      </g>
    </g>
  </g>
  <g>
    <rect x="75.07" y="74.33" width="1267.57" height="243.2" style="fill: #ffd836; stroke: #3a3632; stroke-linecap: round; stroke-linejoin: round; stroke-width: 20px;"/>
    <line x1="145.49" y1="121.14" x2="145.49" y2="270.72" style="fill: #ffd836; stroke: #3a3632; stroke-linecap: round; stroke-linejoin: round; stroke-width: 20px;"/>
    <line x1="215.91" y1="121.14" x2="215.91" y2="270.72" style="fill: #ffd836; stroke: #3a3632; stroke-linecap: round; stroke-linejoin: round; stroke-width: 20px;"/>
    <line x1="286.33" y1="121.14" x2="286.33" y2="270.72" style="fill: #ffd836; stroke: #3a3632; stroke-linecap: round; stroke-linejoin: round; stroke-width: 20px;"/>
    <line x1="356.75" y1="121.14" x2="356.75" y2="270.72" style="fill: #ffd836; stroke: #3a3632; stroke-linecap: round; stroke-linejoin: round; stroke-width: 20px;"/>
    <line x1="427.17" y1="121.14" x2="427.17" y2="270.72" style="fill: #ffd836; stroke: #3a3632; stroke-linecap: round; stroke-linejoin: round; stroke-width: 20px;"/>
    <line x1="497.59" y1="121.14" x2="497.59" y2="270.72" style="fill: #ffd836; stroke: #3a3632; stroke-linecap: round; stroke-linejoin: round; stroke-width: 20px;"/>
    <line x1="568.01" y1="121.14" x2="568.01" y2="270.72" style="fill: #ffd836; stroke: #3a3632; stroke-linecap: round; stroke-linejoin: round; stroke-width: 20px;"/>
    <line x1="638.43" y1="121.14" x2="638.43" y2="270.72" style="fill: #ffd836; stroke: #3a3632; stroke-linecap: round; stroke-linejoin: round; stroke-width: 20px;"/>
    <line x1="708.86" y1="121.14" x2="708.86" y2="270.72" style="fill: #ffd836; stroke: #3a3632; stroke-linecap: round; stroke-linejoin: round; stroke-width: 20px;"/>
    <line x1="779.28" y1="121.14" x2="779.28" y2="270.72" style="fill: #ffd836; stroke: #3a3632; stroke-linecap: round; stroke-linejoin: round; stroke-width: 20px;"/>
    <line x1="849.7" y1="121.14" x2="849.7" y2="270.72" style="fill: #ffd836; stroke: #3a3632; stroke-linecap: round; stroke-linejoin: round; stroke-width: 20px;"/>
    <line x1="920.12" y1="121.14" x2="920.12" y2="270.72" style="fill: #ffd836; stroke: #3a3632; stroke-linecap: round; stroke-linejoin: round; stroke-width: 20px;"/>
    <line x1="990.54" y1="121.14" x2="990.54" y2="270.72" style="fill: #ffd836; stroke: #3a3632; stroke-linecap: round; stroke-linejoin: round; stroke-width: 20px;"/>
    <line x1="1060.96" y1="121.14" x2="1060.96" y2="270.72" style="fill: #ffd836; stroke: #3a3632; stroke-linecap: round; stroke-linejoin: round; stroke-width: 20px;"/>
    <line x1="1131.38" y1="121.14" x2="1131.38" y2="270.72" style="fill: #ffd836; stroke: #3a3632; stroke-linecap: round; stroke-linejoin: round; stroke-width: 20px;"/>
    <line x1="1201.8" y1="121.14" x2="1201.8" y2="270.72" style="fill: #ffd836; stroke: #3a3632; stroke-linecap: round; stroke-linejoin: round; stroke-width: 20px;"/>
    <line x1="1272.22" y1="121.14" x2="1272.22" y2="270.72" style="fill: #ffd836; stroke: #3a3632; stroke-linecap: round; stroke-linejoin: round; stroke-width: 20px;"/>
  </g>
</svg>