<?xml version="1.0" encoding="UTF-8" standalone="no"?>
<svg
   xmlns:dc="http://purl.org/dc/elements/1.1/"
   xmlns:cc="http://creativecommons.org/ns#"
   xmlns:rdf="http://www.w3.org/1999/02/22-rdf-syntax-ns#"
   xmlns:svg="http://www.w3.org/2000/svg"
   xmlns="http://www.w3.org/2000/svg"
   xmlns:sodipodi="http://sodipodi.sourceforge.net/DTD/sodipodi-0.dtd"
   xmlns:inkscape="http://www.inkscape.org/namespaces/inkscape"
   inkscape:version="1.0beta1 (32d4812, 2019-09-19)"
   sodipodi:docname="chili_pepper_flakes.svg"
   version="1.1"
   viewBox="0 0 1969.66 1876"
   height="1876"
   width="1969.66"
   data-name="Layer 1"
   id="Layer_1">
  <metadata
     id="metadata878">
    <rdf:RDF>
      <cc:Work
         rdf:about="">
        <dc:format>image/svg+xml</dc:format>
        <dc:type
           rdf:resource="http://purl.org/dc/dcmitype/StillImage" />
        <dc:title></dc:title>
      </cc:Work>
    </rdf:RDF>
  </metadata>
  <defs
     id="defs876" />
  <sodipodi:namedview
     inkscape:current-layer="Layer_1"
     inkscape:window-maximized="0"
     inkscape:window-y="23"
     inkscape:window-x="0"
     inkscape:cy="498"
     inkscape:cx="384.83"
     inkscape:zoom="0.35"
     fit-margin-bottom="28"
     fit-margin-right="28"
     fit-margin-left="28"
     lock-margins="true"
     fit-margin-top="28"
     showgrid="false"
     id="namedview874"
     inkscape:window-height="907"
     inkscape:window-width="1600"
     inkscape:pageshadow="2"
     inkscape:pageopacity="0"
     guidetolerance="10"
     gridtolerance="10"
     objecttolerance="10"
     borderopacity="1"
     inkscape:document-rotation="0"
     bordercolor="#666666"
     pagecolor="#ffffff" />
  <polygon
     transform="translate(-15.17,-62)"
     id="polygon833"
     style="fill:#ffffff;stroke:#231f20;stroke-width:54.9997;stroke-linecap:round;stroke-linejoin:round;stroke-miterlimit:4;stroke-dasharray:none"
     points="1956.83,785.18 1478.41,1251.52 1591.35,1910 1000,1599.11 408.65,1910 521.59,1251.52 43.17,785.18 704.32,689.11 1000,90 1295.68,689.11 " />
  <path
     inkscape:connector-curvature="0"
     id="path835"
     style="fill:#ef3f3f"
     d="m 932.97,338.69 a 94.81,94.81 0 0 0 103.72,0 L 984.83,233.61 Z" />
  <path
     inkscape:connector-curvature="0"
     id="path837"
     style="fill:#ef3f3f"
     d="M 822.61,614.8 A 94.79,94.79 0 0 0 880.52,445 l -82.26,166.64 a 94.89,94.89 0 0 0 24.35,3.16 z" />
  <path
     inkscape:connector-curvature="0"
     id="path839"
     style="fill:#ef3f3f"
     d="m 1052.25,520 a 94.87,94.87 0 0 0 119.15,91.63 L 1089.14,445 a 94.63,94.63 0 0 0 -36.89,75 z" />
  <path
     inkscape:connector-curvature="0"
     id="path841"
     style="fill:#ef3f3f"
     d="M 311.28,872.23 A 94.87,94.87 0 0 0 427.83,757.05 l -186.6,27.11 a 95.12,95.12 0 0 0 3.84,23.53 z" />
  <path
     inkscape:connector-curvature="0"
     id="path843"
     style="fill:#ef3f3f"
     d="m 660.39,875.48 a 94.79,94.79 0 0 0 66.9,-162 l -150.16,21.86 a 94.82,94.82 0 0 0 83.26,140.14 z" />
  <circle
     id="circle845"
     style="fill:#ef3f3f"
     r="94.790001"
     cy="780.69"
     cx="984.83002" />
  <path
     inkscape:connector-curvature="0"
     id="path847"
     style="fill:#ef3f3f"
     d="m 1214.47,780.69 a 94.8,94.8 0 1 0 178.06,-45.35 l -150.16,-21.82 a 94.53,94.53 0 0 0 -27.9,67.17 z" />
  <path
     inkscape:connector-curvature="0"
     id="path849"
     style="fill:#ef3f3f"
     d="m 1633.7,875.48 a 94.74,94.74 0 0 0 24.68,-3.25 l 66.21,-64.54 a 95.12,95.12 0 0 0 3.84,-23.53 l -186.55,-27.11 a 94.88,94.88 0 0 0 91.82,118.43 z" />
  <path
     inkscape:connector-curvature="0"
     id="path851"
     style="fill:#ef3f3f"
     d="M 592.97,1041.36 A 94.79,94.79 0 0 0 424.11,982.21 l 135.1,131.68 a 94.59,94.59 0 0 0 33.76,-72.53 z" />
  <circle
     id="circle853"
     style="fill:#ef3f3f"
     transform="rotate(-45)"
     r="94.790001"
     cy="1318.0305"
     cx="-154.67972" />
  <circle
     id="circle855"
     style="fill:#ef3f3f"
     transform="rotate(-45)"
     r="94.790001"
     cy="1547.4371"
     cx="74.73217" />
  <path
     inkscape:connector-curvature="0"
     id="path857"
     style="fill:#ef3f3f"
     d="m 1471.48,946.57 a 94.79,94.79 0 0 0 -61,167.32 l 135.1,-131.68 a 94.61,94.61 0 0 0 -74.1,-35.64 z" />
  <path
     inkscape:connector-curvature="0"
     id="path859"
     style="fill:#ef3f3f"
     d="m 660.39,1396.83 a 94.8,94.8 0 1 0 -70,-158.73 l -17.31,101 a 94.82,94.82 0 0 0 87.31,57.73 z" />
  <circle
     id="circle861"
     style="fill:#ef3f3f"
     transform="rotate(-45)"
     r="94.790001"
     cy="1617.057"
     cx="-224.2988" />
  <path
     inkscape:connector-curvature="0"
     id="path863"
     style="fill:#ef3f3f"
     d="m 1309.27,1396.83 a 94.82,94.82 0 0 0 87.29,-57.78 l -17.31,-101 a 94.79,94.79 0 1 0 -70,158.73 z" />
  <path
     inkscape:connector-curvature="0"
     id="path865"
     style="fill:#ef3f3f"
     d="m 592.97,1562.72 a 94.71,94.71 0 0 0 -44.45,-80.33 l -29.69,172.85 a 94.82,94.82 0 0 0 74.14,-92.52 z" />
  <path
     inkscape:connector-curvature="0"
     id="path867"
     style="fill:#ef3f3f"
     d="m 822.61,1467.92 a 94.79,94.79 0 0 0 -94.79,94.8 q 0,3.32 0.23,6.58 l 153.59,-80.75 a 94.38,94.38 0 0 0 -59.03,-20.63 z" />
  <path
     inkscape:connector-curvature="0"
     id="path869"
     style="fill:#ef3f3f"
     d="m 1241.83,1562.72 a 94.78,94.78 0 0 0 -153.82,-74.17 l 153.59,80.75 q 0.23,-3.3 0.23,-6.58 z" />
  <path
     inkscape:connector-curvature="0"
     id="path871"
     style="fill:#ef3f3f"
     d="m 1421.14,1482.39 a 94.81,94.81 0 0 0 29.69,172.85 z" />
</svg>
