<?xml version="1.0" encoding="UTF-8" standalone="no"?>
<svg
   xmlns:dc="http://purl.org/dc/elements/1.1/"
   xmlns:cc="http://creativecommons.org/ns#"
   xmlns:rdf="http://www.w3.org/1999/02/22-rdf-syntax-ns#"
   xmlns:svg="http://www.w3.org/2000/svg"
   xmlns="http://www.w3.org/2000/svg"
   xmlns:sodipodi="http://sodipodi.sourceforge.net/DTD/sodipodi-0.dtd"
   xmlns:inkscape="http://www.inkscape.org/namespaces/inkscape"
   inkscape:version="1.0beta1 (32d4812, 2019-09-19)"
   sodipodi:docname="chili_powder.svg"
   version="1.1"
   viewBox="0 0 1264.4713 1966"
   height="1966"
   width="1264.4713"
   data-name="Layer 1"
   id="Layer_1">
  <metadata
     id="metadata860">
    <rdf:RDF>
      <cc:Work
         rdf:about="">
        <dc:format>image/svg+xml</dc:format>
        <dc:type
           rdf:resource="http://purl.org/dc/dcmitype/StillImage" />
        <dc:title></dc:title>
      </cc:Work>
    </rdf:RDF>
  </metadata>
  <defs
     id="defs858" />
  <sodipodi:namedview
     inkscape:current-layer="Layer_1"
     inkscape:window-maximized="0"
     inkscape:window-y="23"
     inkscape:window-x="0"
     inkscape:cy="543"
     inkscape:cx="32.180641"
     inkscape:zoom="0.35"
     fit-margin-bottom="28"
     fit-margin-right="28"
     fit-margin-left="28"
     lock-margins="true"
     fit-margin-top="28"
     showgrid="false"
     id="namedview856"
     inkscape:window-height="907"
     inkscape:window-width="1600"
     inkscape:pageshadow="2"
     inkscape:pageopacity="0"
     guidetolerance="10"
     gridtolerance="10"
     objecttolerance="10"
     borderopacity="1"
     inkscape:document-rotation="0"
     bordercolor="#666666"
     pagecolor="#ffffff" />
  <path
     inkscape:connector-curvature="0"
     id="path833"
     style="fill:#ffffff;stroke:#231f20;stroke-width:55;stroke-linecap:round;stroke-linejoin:round"
     d="m 1235.1806,1723.26 a 149,149 0 0 1 -117,165.37 c -108.72,23 -298.27996,49.37 -485.93996,49.37 -187.66,0 -377.23,-26.35 -485.95,-49.37 A 149,149 0 0 1 29.290641,1723.26 L 177.87064,676.34 h 908.61996 z" />
  <path
     inkscape:connector-curvature="0"
     id="path835"
     style="fill:#ffffff;stroke:#231f20;stroke-width:54.9997;stroke-linecap:round;stroke-linejoin:round;stroke-miterlimit:4;stroke-dasharray:none"
     d="m 631.35064,28 c -233.17,0 -452.71,97.36 -505.25,295.56 l 26.37,205.07 V 676.34 H 1110.2306 V 528.63 l 26.37,-205.07 C 1084.0606,125.36 864.52064,28 631.35064,28 Z" />
  <line
     id="line837"
     style="fill:#fff5eb;stroke:#231f20;stroke-width:55;stroke-linecap:round;stroke-linejoin:round"
     y2="323.56"
     x2="1136.6007"
     y1="323.56"
     x1="126.10065" />
  <circle
     id="circle839"
     style="fill:#fff5eb"
     r="31.200001"
     cy="114.45"
     cx="628.18066" />
  <circle
     id="circle841"
     style="fill:#fff5eb"
     r="31.200001"
     cy="139.39999"
     cx="425.14066" />
  <circle
     id="circle843"
     style="fill:#fff5eb"
     r="31.200001"
     cy="139.39999"
     cx="831.21069" />
  <circle
     id="circle845"
     style="fill:#231f20"
     r="31.200001"
     cy="114.45"
     cx="628.18066" />
  <circle
     id="circle847"
     style="fill:#231f20"
     r="31.200001"
     cy="139.39999"
     cx="425.14066" />
  <circle
     id="circle849"
     style="fill:#231f20"
     r="31.200001"
     cy="139.39999"
     cx="831.21069" />
  <line
     id="line851"
     style="fill:none;stroke:#231f20;stroke-width:55;stroke-linecap:round;stroke-linejoin:round"
     y2="528.63"
     x2="1110.2307"
     y1="528.63"
     x1="152.47061" />
  <path
     inkscape:connector-curvature="0"
     id="path853"
     style="fill:#ef3f3f"
     d="m 632.18064,1854.06 c -180.11,0 -365,-25.62 -468.56,-47.56 -33.16,-7 -55.64,-38.71 -51.2,-72.17 l 138.32,-974 h 762.87996 l 138.42,974.77 c 4.35,32.71 -18.14,64.41 -51.3,71.44 -103.55996,21.9 -288.44996,47.52 -468.55996,47.52 z" />
</svg>
