<svg id="Layer_1" data-name="Layer 1" xmlns="http://www.w3.org/2000/svg" viewBox="0 0 2000 1289.45"><path id="path10661" d="M803.43,180.31c-13.74-31.78-55.75-38.31-79.56-12.7-42.75,46.42-95.33,103.2-103.3,109.25C557.49,325.29,751.33,479,879.73,355.49c22-21.29,19-56.64-4.86-75.07C852.4,263.59,826.54,233.78,803.43,180.31Z" style="fill:#513e2d;stroke:#3a3632;stroke-miterlimit:10;stroke-width:20px"/><path id="path10661-2" data-name="path10661" d="M481.44,277.09c-16.36-30.51-58.77-33.48-80.35-6C362.41,321,314.79,382,307.35,388.68c-58.78,53.57,147.31,190.47,264.86,56.55,20.09-23.07,14.14-58-11.16-74.4C537.24,356,509,328.42,481.44,277.09Z" style="fill:#513e2d;stroke:#3a3632;stroke-miterlimit:10;stroke-width:20px"/><path id="path10661-3" data-name="path10661" d="M669.41,424.93c-16.37-30.51-58.77-33.48-80.35-6-38.69,49.85-86.3,110.86-93.74,117.56C436.54,590.09,642.63,727,760.18,593.07c20.09-23.07,14.14-58-11.16-74.4C725.21,503.79,696.94,476.26,669.41,424.93Z" style="fill:#513e2d;stroke:#3a3632;stroke-miterlimit:10;stroke-width:20px"/><path id="path10661-4" data-name="path10661" d="M1509,329.86c-13.74-31.77-55.75-38.31-79.56-12.69-42.75,46.41-95.33,103.2-103.3,109.24C1263,474.85,1456.87,628.6,1585.27,505c22-21.29,19-56.63-4.86-75.07C1557.94,413.14,1532.09,383.33,1509,329.86Z" style="fill:#513e2d;stroke:#3a3632;stroke-miterlimit:10;stroke-width:20px"/><path id="path10661-5" data-name="path10661" d="M1157.39,51.69c-16.36-30.5-58.77-33.48-80.35-5.95-38.68,49.85-86.3,110.86-93.74,117.55-58.78,53.57,147.31,190.46,264.86,56.55,20.09-23.07,14.14-58-11.16-74.4C1213.19,130.56,1184.92,103,1157.39,51.69Z" style="fill:#513e2d;stroke:#3a3632;stroke-miterlimit:10;stroke-width:20px"/><path id="path10661-6" data-name="path10661" d="M971,428.23c-13.75-31.78-55.75-38.31-79.57-12.69C848.73,462,796.15,518.73,788.17,524.78,725.09,573.21,918.93,727,1047.33,603.41c22-21.29,19-56.63-4.86-75.07C1020,511.51,994.15,481.7,971,428.23Z" style="fill:#513e2d;stroke:#3a3632;stroke-miterlimit:10;stroke-width:20px"/><path id="path10661-7" data-name="path10661" d="M1198.41,372.68c-13.74-31.77-55.75-38.31-79.56-12.69-42.75,46.41-95.33,103.2-103.3,109.24-63.08,48.44,130.76,202.19,259.16,78.63,22-21.29,19-56.63-4.86-75.07C1247.38,456,1221.52,426.15,1198.41,372.68Z" style="fill:#513e2d;stroke:#3a3632;stroke-miterlimit:10;stroke-width:20px"/><path id="path10661-8" data-name="path10661" d="M1636.28,434.3c-13.74-31.77-55.75-38.3-79.57-12.69-42.74,46.42-95.32,103.2-103.3,109.25-63.07,48.43,130.76,202.18,259.17,78.63,22-21.29,19-56.64-4.86-75.08C1685.24,517.58,1659.39,487.77,1636.28,434.3Z" style="fill:#513e2d;stroke:#3a3632;stroke-miterlimit:10;stroke-width:20px"/><path id="path10661-9" data-name="path10661" d="M1392.51,460.25c-16.37-30.5-58.77-33.48-80.35-5.95-38.69,49.85-86.3,110.86-93.74,117.55-58.78,53.57,147.31,190.46,264.86,56.55,20.09-23.07,14.13-58-11.16-74.4C1448.31,539.12,1420,511.59,1392.51,460.25Z" style="fill:#513e2d;stroke:#3a3632;stroke-miterlimit:10;stroke-width:20px"/><path id="path10661-10" data-name="path10661" d="M217.65,530.38c-19.84-28.37-62.3-26.36-80.5,3.51-32.57,54-72.71,120.21-79.31,127.74C5.75,721.72,226.47,833.5,327.51,686.72c17.24-25.26,7.23-59.29-19.81-72.58C282.31,602.16,251,578.13,217.65,530.38Z" style="fill:#513e2d;stroke:#3a3632;stroke-miterlimit:10;stroke-width:20px"/><path id="path10661-11" data-name="path10661" d="M1101.64,561.65c-19.84-28.37-62.3-26.36-80.5,3.51-32.57,54-72.7,120.21-79.31,127.73C889.74,753,1110.46,864.77,1211.5,718c17.24-25.26,7.23-59.29-19.81-72.58C1166.3,633.42,1135,609.4,1101.64,561.65Z" style="fill:#513e2d;stroke:#3a3632;stroke-miterlimit:10;stroke-width:20px"/><path id="path10661-12" data-name="path10661" d="M1859.45,633c-13.6-31.84-55.58-38.55-79.51-13-43,46.22-95.77,102.78-103.78,108.79C1612.88,776.9,1806,931.5,1935,808.51c22-21.19,19.22-56.55-4.53-75.09C1908.05,716.49,1882.33,686.57,1859.45,633Z" style="fill:#513e2d;stroke:#3a3632;stroke-miterlimit:10;stroke-width:20px"/><path id="path10661-13" data-name="path10661" d="M854,634c-13.61-31.84-55.59-38.55-79.51-13-43,46.22-95.78,102.78-103.78,108.79C607.39,777.91,800.55,932.5,929.5,809.51c22-21.19,19.21-56.55-4.54-75.09C902.57,717.49,876.84,687.57,854,634Z" style="fill:#513e2d;stroke:#3a3632;stroke-miterlimit:10;stroke-width:20px"/><path id="path10661-14" data-name="path10661" d="M539,582.55c-20-28.24-62.48-25.93-80.47,4.06-32.21,54.26-71.89,120.7-78.44,128.27-51.68,60.44,169.79,170.72,269.83,23.26,17.07-25.38,6.83-59.34-20.3-72.44C604.16,653.89,572.69,630.08,539,582.55Z" style="fill:#513e2d;stroke:#3a3632;stroke-miterlimit:10;stroke-width:20px"/><path id="path10661-15" data-name="path10661" d="M1371.83,607.33c-20-28.23-62.48-25.93-80.47,4.06-32.21,54.26-71.89,120.71-78.44,128.27-51.68,60.44,169.79,170.73,269.82,23.26,17.08-25.37,6.84-59.33-20.29-72.44C1437,678.67,1405.51,654.86,1371.83,607.33Z" style="fill:#513e2d;stroke:#3a3632;stroke-miterlimit:10;stroke-width:20px"/><path id="path10661-16" data-name="path10661" d="M1232.6,798.5c-20-28.24-62.48-25.93-80.47,4.06-32.21,54.26-71.89,120.7-78.44,128.27-51.68,60.44,169.79,170.72,269.82,23.26,17.08-25.38,6.84-59.34-20.29-72.44C1297.75,869.83,1266.28,846,1232.6,798.5Z" style="fill:#513e2d;stroke:#3a3632;stroke-miterlimit:10;stroke-width:20px"/><path id="path10661-17" data-name="path10661" d="M703.37,799.1c-15.39-31-57.68-35.34-80.12-8.52-40.26,48.59-89.79,108-97.44,114.51-60.46,51.66,141.16,195.06,262.92,65,20.81-22.41,16-57.55-8.78-74.72C756.63,879.7,729.25,851.28,703.37,799.1Z" style="fill:#513e2d;stroke:#3a3632;stroke-miterlimit:10;stroke-width:20px"/><path id="path10661-18" data-name="path10661" d="M939.69,1038.56c-15.39-31-57.68-35.34-80.12-8.52-40.26,48.59-89.8,108-97.45,114.5-60.45,51.67,141.16,195.07,262.93,65,20.81-22.41,16-57.55-8.79-74.72C992.94,1119.16,965.56,1090.74,939.69,1038.56Z" style="fill:#513e2d;stroke:#3a3632;stroke-miterlimit:10;stroke-width:20px"/></svg>