<?xml version="1.0" encoding="UTF-8"?>
<svg xmlns="http://www.w3.org/2000/svg" width="1645.62" height="2000" viewBox="0 0 1645.62 2000">
  <g id="Layer_1" data-name="Layer 1">
    <g>
      <path d="M1444.21,362.94l-.65-.36c-22.6-12.49-36.62-36.27-36.62-62.09v-121.03H238.68v120.65c0,25.87-14.08,49.69-36.75,62.15h0c-98.47,54.17-159.64,157.64-159.64,270.02V1855.73c0,66.73,54.09,120.83,120.83,120.83H1482.5c66.73,0,120.83-54.1,120.83-120.83V632.67c0-112.17-60.94-215.48-159.11-269.73Z" style="fill: #ceb77b; stroke: #3a3632; stroke-width: 20px;"/>
      <g>
        <rect x="189.02" y="31.36" width="1267.57" height="243.2" style="fill: #5a9451; stroke: #3a3632; stroke-linecap: round; stroke-linejoin: round; stroke-width: 20px;"/>
        <line x1="259.44" y1="78.17" x2="259.44" y2="227.75" style="fill: none; stroke: #3a3632; stroke-linecap: round; stroke-linejoin: round; stroke-width: 20px;"/>
        <line x1="329.86" y1="78.17" x2="329.86" y2="227.75" style="fill: none; stroke: #3a3632; stroke-linecap: round; stroke-linejoin: round; stroke-width: 20px;"/>
        <line x1="400.28" y1="78.17" x2="400.28" y2="227.75" style="fill: none; stroke: #3a3632; stroke-linecap: round; stroke-linejoin: round; stroke-width: 20px;"/>
        <line x1="470.71" y1="78.17" x2="470.71" y2="227.75" style="fill: none; stroke: #3a3632; stroke-linecap: round; stroke-linejoin: round; stroke-width: 20px;"/>
        <line x1="541.13" y1="78.17" x2="541.13" y2="227.75" style="fill: none; stroke: #3a3632; stroke-linecap: round; stroke-linejoin: round; stroke-width: 20px;"/>
        <line x1="611.55" y1="78.17" x2="611.55" y2="227.75" style="fill: none; stroke: #3a3632; stroke-linecap: round; stroke-linejoin: round; stroke-width: 20px;"/>
        <line x1="681.97" y1="78.17" x2="681.97" y2="227.75" style="fill: none; stroke: #3a3632; stroke-linecap: round; stroke-linejoin: round; stroke-width: 20px;"/>
        <line x1="752.39" y1="78.17" x2="752.39" y2="227.75" style="fill: none; stroke: #3a3632; stroke-linecap: round; stroke-linejoin: round; stroke-width: 20px;"/>
        <line x1="822.81" y1="78.17" x2="822.81" y2="227.75" style="fill: none; stroke: #3a3632; stroke-linecap: round; stroke-linejoin: round; stroke-width: 20px;"/>
        <line x1="893.23" y1="78.17" x2="893.23" y2="227.75" style="fill: none; stroke: #3a3632; stroke-linecap: round; stroke-linejoin: round; stroke-width: 20px;"/>
        <line x1="963.65" y1="78.17" x2="963.65" y2="227.75" style="fill: none; stroke: #3a3632; stroke-linecap: round; stroke-linejoin: round; stroke-width: 20px;"/>
        <line x1="1034.07" y1="78.17" x2="1034.07" y2="227.75" style="fill: none; stroke: #3a3632; stroke-linecap: round; stroke-linejoin: round; stroke-width: 20px;"/>
        <line x1="1104.49" y1="78.17" x2="1104.49" y2="227.75" style="fill: none; stroke: #3a3632; stroke-linecap: round; stroke-linejoin: round; stroke-width: 20px;"/>
        <line x1="1174.91" y1="78.17" x2="1174.91" y2="227.75" style="fill: none; stroke: #3a3632; stroke-linecap: round; stroke-linejoin: round; stroke-width: 20px;"/>
        <line x1="1245.33" y1="78.17" x2="1245.33" y2="227.75" style="fill: none; stroke: #3a3632; stroke-linecap: round; stroke-linejoin: round; stroke-width: 20px;"/>
        <line x1="1315.75" y1="78.17" x2="1315.75" y2="227.75" style="fill: none; stroke: #3a3632; stroke-linecap: round; stroke-linejoin: round; stroke-width: 20px;"/>
        <line x1="1386.18" y1="78.17" x2="1386.18" y2="227.75" style="fill: none; stroke: #3a3632; stroke-linecap: round; stroke-linejoin: round; stroke-width: 20px;"/>
      </g>
      <g>
        <g>
          <path d="M298.03,490.28c2-.95,4.23-2.21,4.63-4.38,.25-1.34-.28-2.7-.81-3.96-2.33-5.59-4.87-11.46-9.74-15.07-4.03-2.98-9.21-4.05-13.35-6.89-2.26-1.56-4.21-3.64-6.74-4.7-4.77-1.99-10.19,.14-14.77,2.53-3.18,1.67-6.64,3.98-7.07,7.54-.75,6.19,8.97,26.07,14.42,29.83,9.54,6.57,24.51-.58,33.43-4.9Z" style="fill: #bca060;"/>
          <path d="M1524.66,676.59c2-.95,4.23-2.21,4.63-4.38,.25-1.34-.28-2.7-.81-3.96-2.33-5.59-4.87-11.46-9.74-15.07-4.03-2.98-9.21-4.05-13.35-6.89-2.26-1.56-4.21-3.64-6.74-4.7-4.77-1.99-10.19,.14-14.77,2.53-3.18,1.67-6.64,3.98-7.07,7.54-.75,6.19,8.97,26.07,14.42,29.83,9.54,6.57,24.51-.58,33.43-4.9Z" style="fill: #bca060;"/>
          <path d="M410.07,567.88c2.21-.06,4.76-.3,6.01-2.12,.78-1.13,.84-2.58,.87-3.95,.15-6.06,.21-12.45-2.77-17.73-2.47-4.37-6.77-7.44-9.39-11.72-1.44-2.34-2.36-5.04-4.25-7.04-3.55-3.76-9.37-4.02-14.52-3.69-3.58,.23-7.68,.93-9.53,4.01-3.21,5.35-2.41,27.46,1.05,33.11,6.05,9.89,22.63,9.44,32.53,9.12Z" style="fill: #bca060;"/>
          <path d="M777.91,465.11c2.21-.06,4.76-.3,6.01-2.12,.78-1.13,.84-2.58,.87-3.95,.15-6.06,.21-12.45-2.77-17.73-2.47-4.37-6.77-7.44-9.39-11.72-1.44-2.34-2.36-5.04-4.25-7.04-3.55-3.76-9.37-4.02-14.52-3.69-3.58,.23-7.68,.93-9.53,4.01-3.21,5.35-2.41,27.46,1.05,33.11,6.05,9.89,22.63,9.44,32.53,9.12Z" style="fill: #bca060;"/>
          <path d="M1470.93,505.65c2.21-.06,4.76-.3,6.01-2.12,.78-1.13,.84-2.58,.87-3.95,.15-6.06,.21-12.45-2.77-17.73-2.47-4.37-6.77-7.44-9.39-11.72-1.44-2.34-2.36-5.04-4.25-7.04-3.55-3.76-9.37-4.02-14.52-3.69-3.58,.23-7.68,.93-9.53,4.01-3.21,5.35-2.41,27.46,1.05,33.11,6.05,9.89,22.63,9.44,32.53,9.12Z" style="fill: #bca060;"/>
          <path d="M1249.33,663.91c2.21-.06,4.76-.3,6.01-2.12,.78-1.13,.84-2.58,.87-3.95,.15-6.06,.21-12.45-2.77-17.73-2.47-4.37-6.77-7.44-9.39-11.72-1.44-2.34-2.36-5.04-4.25-7.04-3.55-3.76-9.37-4.02-14.52-3.69-3.58,.23-7.68,.93-9.53,4.01-3.21,5.35-2.41,27.46,1.05,33.11,6.05,9.89,22.63,9.44,32.53,9.12Z" style="fill: #bca060;"/>
          <path d="M548.8,668.76c2.21-.06,4.76-.3,6.01-2.12,.78-1.13,.84-2.58,.87-3.95,.15-6.06,.21-12.45-2.77-17.73-2.47-4.37-6.77-7.44-9.39-11.72-1.44-2.34-2.36-5.04-4.25-7.04-3.55-3.76-9.37-4.02-14.52-3.69-3.58,.23-7.68,.93-9.53,4.01-3.21,5.35-2.41,27.46,1.05,33.11,6.05,9.89,22.63,9.44,32.53,9.12Z" style="fill: #bca060;"/>
          <path d="M621.24,457.26c.26-2.56,.37-5.54-1.55-7.26-1.18-1.06-2.85-1.35-4.43-1.59-6.97-1.07-14.34-2.1-20.88,.56-5.41,2.2-9.6,6.71-14.93,9.09-2.92,1.31-6.17,1.98-8.76,3.86-4.87,3.53-6.04,10.21-6.42,16.21-.27,4.17-.07,9,3.21,11.59,5.7,4.5,31.34,6.87,38.38,3.72,12.31-5.51,14.26-24.71,15.37-36.19Z" style="fill: #bca060;"/>
          <path d="M217.47,626.97c.26-2.56,.37-5.54-1.55-7.26-1.18-1.06-2.85-1.35-4.43-1.59-6.97-1.07-14.34-2.1-20.88,.56-5.41,2.2-9.6,6.71-14.93,9.09-2.92,1.31-6.17,1.98-8.76,3.86-4.87,3.53-6.04,10.21-6.42,16.21-.27,4.17-.07,9,3.21,11.59,5.7,4.5,31.34,6.87,38.38,3.72,12.31-5.51,14.26-24.71,15.37-36.19Z" style="fill: #bca060;"/>
          <path d="M683.3,541.57c-2.1,1.45-4.4,3.29-4.47,5.83-.04,1.58,.82,3.02,1.65,4.36,3.68,5.93,7.65,12.15,13.85,15.35,5.14,2.65,11.22,2.91,16.45,5.39,2.86,1.36,5.45,3.37,8.53,4.11,5.79,1.39,11.57-2.03,16.33-5.59,3.31-2.48,6.82-5.74,6.66-9.88-.28-7.19-14.99-28.01-21.88-31.28-12.06-5.72-27.77,5.16-37.13,11.71Z" style="fill: #bca060;"/>
          <path d="M897.81,632.35c.03-2.55-.14-5.49-2.18-7.02-1.26-.94-2.94-1.07-4.51-1.17-6.97-.43-14.33-.77-20.53,2.44-5.13,2.66-8.86,7.48-13.9,10.31-2.76,1.55-5.9,2.5-8.28,4.59-4.48,3.92-5.03,10.61-4.87,16.56,.11,4.14,.75,8.88,4.21,11.14,6.03,3.92,31.52,3.95,38.17,.21,11.64-6.54,11.83-25.65,11.89-37.07Z" style="fill: #bca060;"/>
          <path d="M886.86,493.31c.14,2.47,.5,5.32,2.58,6.66,1.29,.83,2.92,.85,4.45,.84,6.79-.04,13.96-.19,19.76-3.71,4.81-2.92,8.11-7.84,12.81-10.92,2.58-1.69,5.56-2.82,7.74-5,4.09-4.1,4.18-10.63,3.64-16.39-.38-4.01-1.31-8.57-4.82-10.53-6.1-3.41-30.84-1.76-37.05,2.31-10.86,7.11-9.79,25.67-9.1,36.75Z" style="fill: #bca060;"/>
          <path d="M999.34,539.01c-2.69,1.1-5.71,2.59-6.4,5.41-.43,1.75,.18,3.56,.77,5.26,2.65,7.51,5.56,15.4,11.68,20.48,5.07,4.21,11.79,5.98,17.01,10.02,2.86,2.21,5.25,5.09,8.5,6.66,6.11,2.96,13.38,.57,19.56-2.25,4.3-1.95,9-4.73,9.83-9.38,1.44-8.07-9.86-34.86-16.74-40.19-12.04-9.32-32.2-1.03-44.22,3.99Z" style="fill: #bca060;"/>
          <path d="M1238.99,455.27c-.99-2.2-2.3-4.66-4.66-5.16-1.46-.31-2.95,.24-4.34,.79-6.15,2.4-12.61,5.03-16.65,10.25-3.35,4.32-4.63,9.94-7.83,14.37-1.75,2.43-4.07,4.49-5.29,7.23-2.29,5.15-.1,11.11,2.4,16.15,1.74,3.51,4.17,7.33,8.04,7.89,6.73,.97,28.62-9.13,32.85-14.99,7.39-10.24-.04-26.72-4.52-36.54Z" style="fill: #bca060;"/>
          <path d="M1367.68,574.89c2.58,.02,5.57-.17,7.11-2.25,.95-1.29,1.08-2.98,1.17-4.58,.4-7.07,.72-14.54-2.57-20.82-2.72-5.2-7.63-8.95-10.53-14.05-1.59-2.79-2.57-5.98-4.7-8.38-4-4.52-10.79-5.05-16.83-4.86-4.2,.13-9.01,.8-11.28,4.33-3.95,6.13-3.86,31.99-.04,38.73,6.69,11.78,26.08,11.88,37.66,11.89Z" style="fill: #bca060;"/>
        </g>
        <g>
          <path d="M298.03,1715.32c2-.95,4.23-2.21,4.63-4.38,.25-1.34-.28-2.7-.81-3.96-2.33-5.59-4.87-11.46-9.74-15.07-4.03-2.98-9.21-4.05-13.35-6.89-2.26-1.56-4.21-3.64-6.74-4.7-4.77-1.99-10.19,.14-14.77,2.53-3.18,1.67-6.64,3.98-7.07,7.54-.75,6.19,8.97,26.07,14.42,29.83,9.54,6.57,24.51-.58,33.43-4.9Z" style="fill: #bca060;"/>
          <path d="M1524.66,1901.62c2-.95,4.23-2.21,4.63-4.38,.25-1.34-.28-2.7-.81-3.96-2.33-5.59-4.87-11.46-9.74-15.07-4.03-2.98-9.21-4.05-13.35-6.89-2.26-1.56-4.21-3.64-6.74-4.7-4.77-1.99-10.19,.14-14.77,2.53-3.18,1.67-6.64,3.98-7.07,7.54-.75,6.19,8.97,26.07,14.42,29.83,9.54,6.57,24.51-.58,33.43-4.9Z" style="fill: #bca060;"/>
          <path d="M410.07,1792.92c2.21-.06,4.76-.3,6.01-2.12,.78-1.13,.84-2.58,.87-3.95,.15-6.06,.21-12.45-2.77-17.73-2.47-4.37-6.77-7.44-9.39-11.72-1.44-2.34-2.36-5.04-4.25-7.04-3.55-3.76-9.37-4.02-14.52-3.69-3.58,.23-7.68,.93-9.53,4.01-3.21,5.35-2.41,27.46,1.05,33.11,6.05,9.89,22.63,9.44,32.53,9.12Z" style="fill: #bca060;"/>
          <path d="M777.91,1690.15c2.21-.06,4.76-.3,6.01-2.12,.78-1.13,.84-2.58,.87-3.95,.15-6.06,.21-12.45-2.77-17.73-2.47-4.37-6.77-7.44-9.39-11.72-1.44-2.34-2.36-5.04-4.25-7.04-3.55-3.76-9.37-4.02-14.52-3.69-3.58,.23-7.68,.93-9.53,4.01-3.21,5.35-2.41,27.46,1.05,33.11,6.05,9.89,22.63,9.44,32.53,9.12Z" style="fill: #bca060;"/>
          <path d="M1470.93,1730.69c2.21-.06,4.76-.3,6.01-2.12,.78-1.13,.84-2.58,.87-3.95,.15-6.06,.21-12.45-2.77-17.73-2.47-4.37-6.77-7.44-9.39-11.72-1.44-2.34-2.36-5.04-4.25-7.04-3.55-3.76-9.37-4.02-14.52-3.69-3.58,.23-7.68,.93-9.53,4.01-3.21,5.35-2.41,27.46,1.05,33.11,6.05,9.89,22.63,9.44,32.53,9.12Z" style="fill: #bca060;"/>
          <path d="M1249.33,1888.95c2.21-.06,4.76-.3,6.01-2.12,.78-1.13,.84-2.58,.87-3.95,.15-6.06,.21-12.45-2.77-17.73-2.47-4.37-6.77-7.44-9.39-11.72-1.44-2.34-2.36-5.04-4.25-7.04-3.55-3.76-9.37-4.02-14.52-3.69-3.58,.23-7.68,.93-9.53,4.01-3.21,5.35-2.41,27.46,1.05,33.11,6.05,9.89,22.63,9.44,32.53,9.12Z" style="fill: #bca060;"/>
          <path d="M548.8,1893.8c2.21-.06,4.76-.3,6.01-2.12,.78-1.13,.84-2.58,.87-3.95,.15-6.06,.21-12.45-2.77-17.73-2.47-4.37-6.77-7.44-9.39-11.72-1.44-2.34-2.36-5.04-4.25-7.04-3.55-3.76-9.37-4.02-14.52-3.69-3.58,.23-7.68,.93-9.53,4.01-3.21,5.35-2.41,27.46,1.05,33.11,6.05,9.89,22.63,9.44,32.53,9.12Z" style="fill: #bca060;"/>
          <path d="M621.24,1682.29c.26-2.56,.37-5.54-1.55-7.26-1.18-1.06-2.85-1.35-4.43-1.59-6.97-1.07-14.34-2.1-20.88,.56-5.41,2.2-9.6,6.71-14.93,9.09-2.92,1.31-6.17,1.98-8.76,3.86-4.87,3.53-6.04,10.21-6.42,16.21-.27,4.17-.07,9,3.21,11.59,5.7,4.5,31.34,6.87,38.38,3.72,12.31-5.51,14.26-24.71,15.37-36.19Z" style="fill: #bca060;"/>
          <path d="M217.47,1852.01c.26-2.56,.37-5.54-1.55-7.26-1.18-1.06-2.85-1.35-4.43-1.59-6.97-1.07-14.34-2.1-20.88,.56-5.41,2.2-9.6,6.71-14.93,9.09-2.92,1.31-6.17,1.98-8.76,3.86-4.87,3.53-6.04,10.21-6.42,16.21-.27,4.17-.07,9,3.21,11.59,5.7,4.5,31.34,6.87,38.38,3.72,12.31-5.51,14.26-24.71,15.37-36.19Z" style="fill: #bca060;"/>
          <path d="M683.3,1766.6c-2.1,1.45-4.4,3.29-4.47,5.83-.04,1.58,.82,3.02,1.65,4.36,3.68,5.93,7.65,12.15,13.85,15.35,5.14,2.65,11.22,2.91,16.45,5.39,2.86,1.36,5.45,3.37,8.53,4.11,5.79,1.39,11.57-2.03,16.33-5.59,3.31-2.48,6.82-5.74,6.66-9.88-.28-7.19-14.99-28.01-21.88-31.28-12.06-5.72-27.77,5.16-37.13,11.71Z" style="fill: #bca060;"/>
          <path d="M897.81,1857.39c.03-2.55-.14-5.49-2.18-7.02-1.26-.94-2.94-1.07-4.51-1.17-6.97-.43-14.33-.77-20.53,2.44-5.13,2.66-8.86,7.48-13.9,10.31-2.76,1.55-5.9,2.5-8.28,4.59-4.48,3.92-5.03,10.61-4.87,16.56,.11,4.14,.75,8.88,4.21,11.14,6.03,3.92,31.52,3.95,38.17,.21,11.64-6.54,11.83-25.65,11.89-37.07Z" style="fill: #bca060;"/>
          <path d="M886.86,1718.35c.14,2.47,.5,5.32,2.58,6.66,1.29,.83,2.92,.85,4.45,.84,6.79-.04,13.96-.19,19.76-3.71,4.81-2.92,8.11-7.84,12.81-10.92,2.58-1.69,5.56-2.82,7.74-5,4.09-4.1,4.18-10.63,3.64-16.39-.38-4.01-1.31-8.57-4.82-10.53-6.1-3.41-30.84-1.76-37.05,2.31-10.86,7.11-9.79,25.67-9.1,36.75Z" style="fill: #bca060;"/>
          <path d="M999.34,1764.04c-2.69,1.1-5.71,2.59-6.4,5.41-.43,1.75,.18,3.56,.77,5.26,2.65,7.51,5.56,15.4,11.68,20.48,5.07,4.21,11.79,5.98,17.01,10.02,2.86,2.21,5.25,5.09,8.5,6.66,6.11,2.96,13.38,.57,19.56-2.25,4.3-1.95,9-4.73,9.83-9.38,1.44-8.07-9.86-34.86-16.74-40.19-12.04-9.32-32.2-1.03-44.22,3.99Z" style="fill: #bca060;"/>
          <path d="M1238.99,1680.3c-.99-2.2-2.3-4.66-4.66-5.16-1.46-.31-2.95,.24-4.34,.79-6.15,2.4-12.61,5.03-16.65,10.25-3.35,4.32-4.63,9.94-7.83,14.37-1.75,2.43-4.07,4.49-5.29,7.23-2.29,5.15-.1,11.11,2.4,16.15,1.74,3.51,4.17,7.33,8.04,7.89,6.73,.97,28.62-9.13,32.85-14.99,7.39-10.24-.04-26.72-4.52-36.54Z" style="fill: #bca060;"/>
          <path d="M1367.68,1799.92c2.58,.02,5.57-.17,7.11-2.25,.95-1.29,1.08-2.98,1.17-4.58,.4-7.07,.72-14.54-2.57-20.82-2.72-5.2-7.63-8.95-10.53-14.05-1.59-2.79-2.57-5.98-4.7-8.38-4-4.52-10.79-5.05-16.83-4.86-4.2,.13-9.01,.8-11.28,4.33-3.95,6.13-3.86,31.99-.04,38.73,6.69,11.78,26.08,11.88,37.66,11.89Z" style="fill: #bca060;"/>
        </g>
        <g>
          <path d="M1391.76,685.07c-2,.95-4.23,2.21-4.63,4.38-.25,1.34,.28,2.7,.81,3.96,2.33,5.59,4.87,11.46,9.74,15.07,4.03,2.98,9.21,4.05,13.35,6.89,2.26,1.56,4.21,3.64,6.74,4.7,4.77,1.99,10.19-.14,14.77-2.53,3.18-1.67,6.64-3.98,7.07-7.54,.75-6.19-8.97-26.07-14.42-29.83-9.54-6.57-24.51,.58-33.43,4.9Z" style="fill: #e5cc9b;"/>
          <path d="M165.13,498.76c-2,.95-4.23,2.21-4.63,4.38-.25,1.34,.28,2.7,.81,3.96,2.33,5.59,4.87,11.46,9.74,15.07,4.03,2.98,9.21,4.05,13.35,6.89,2.26,1.56,4.21,3.64,6.74,4.7,4.77,1.99,10.19-.14,14.77-2.53,3.18-1.67,6.64-3.98,7.07-7.54,.75-6.19-8.97-26.07-14.42-29.83-9.54-6.57-24.51,.58-33.43,4.9Z" style="fill: #e5cc9b;"/>
          <path d="M1279.72,607.47c-2.21,.06-4.76,.3-6.01,2.12-.78,1.13-.84,2.58-.87,3.95-.15,6.06-.21,12.45,2.77,17.73,2.47,4.37,6.77,7.44,9.39,11.72,1.44,2.34,2.36,5.04,4.25,7.04,3.55,3.76,9.37,4.02,14.52,3.69,3.58-.23,7.68-.93,9.53-4.01,3.21-5.35,2.41-27.46-1.05-33.11-6.05-9.89-22.63-9.44-32.53-9.12Z" style="fill: #e5cc9b;"/>
          <path d="M911.88,710.24c-2.21,.06-4.76,.3-6.01,2.12-.78,1.13-.84,2.58-.87,3.95-.15,6.06-.21,12.45,2.77,17.73,2.47,4.37,6.77,7.44,9.39,11.72,1.44,2.34,2.36,5.04,4.25,7.04,3.55,3.76,9.37,4.02,14.52,3.69,3.58-.23,7.68-.93,9.53-4.01,3.21-5.35,2.41-27.46-1.05-33.11-6.05-9.89-22.63-9.44-32.53-9.12Z" style="fill: #e5cc9b;"/>
          <path d="M218.86,669.69c-2.21,.06-4.76,.3-6.01,2.12-.78,1.13-.84,2.58-.87,3.95-.15,6.06-.21,12.45,2.77,17.73,2.47,4.37,6.77,7.44,9.39,11.72,1.44,2.34,2.36,5.04,4.25,7.04,3.55,3.76,9.37,4.02,14.52,3.69,3.58-.23,7.68-.93,9.53-4.01,3.21-5.35,2.41-27.46-1.05-33.11-6.05-9.89-22.63-9.44-32.53-9.12Z" style="fill: #e5cc9b;"/>
          <path d="M440.46,511.44c-2.21,.06-4.76,.3-6.01,2.12-.78,1.13-.84,2.58-.87,3.95-.15,6.06-.21,12.45,2.77,17.73,2.47,4.37,6.77,7.44,9.39,11.72,1.44,2.34,2.36,5.04,4.25,7.04,3.55,3.76,9.37,4.02,14.52,3.69,3.58-.23,7.68-.93,9.53-4.01,3.21-5.35,2.41-27.46-1.05-33.11-6.05-9.89-22.63-9.44-32.53-9.12Z" style="fill: #e5cc9b;"/>
          <path d="M1140.99,506.58c-2.21,.06-4.76,.3-6.01,2.12-.78,1.13-.84,2.58-.87,3.95-.15,6.06-.21,12.45,2.77,17.73,2.47,4.37,6.77,7.44,9.39,11.72,1.44,2.34,2.36,5.04,4.25,7.04,3.55,3.76,9.37,4.02,14.52,3.69,3.58-.23,7.68-.93,9.53-4.01,3.21-5.35,2.41-27.46-1.05-33.11-6.05-9.89-22.63-9.44-32.53-9.12Z" style="fill: #e5cc9b;"/>
          <path d="M1068.55,718.09c-.26,2.56-.37,5.54,1.55,7.26,1.18,1.06,2.85,1.35,4.43,1.59,6.97,1.07,14.34,2.1,20.88-.56,5.41-2.2,9.6-6.71,14.93-9.09,2.92-1.31,6.17-1.98,8.76-3.86,4.87-3.53,6.04-10.21,6.42-16.21,.27-4.17,.07-9-3.21-11.59-5.7-4.5-31.34-6.87-38.38-3.72-12.31,5.51-14.26,24.71-15.37,36.19Z" style="fill: #e5cc9b;"/>
          <path d="M1472.32,548.38c-.26,2.56-.37,5.54,1.55,7.26,1.18,1.06,2.85,1.35,4.43,1.59,6.97,1.07,14.34,2.1,20.88-.56,5.41-2.2,9.6-6.71,14.93-9.09,2.92-1.31,6.17-1.98,8.76-3.86,4.87-3.53,6.04-10.21,6.42-16.21,.27-4.17,.07-9-3.21-11.59-5.7-4.5-31.34-6.87-38.38-3.72-12.31,5.51-14.26,24.71-15.37,36.19Z" style="fill: #e5cc9b;"/>
          <path d="M1006.49,633.78c2.1-1.45,4.4-3.29,4.47-5.83,.04-1.58-.82-3.02-1.65-4.36-3.68-5.93-7.65-12.15-13.85-15.35-5.14-2.65-11.22-2.91-16.45-5.39-2.86-1.36-5.45-3.37-8.53-4.11-5.79-1.39-11.57,2.03-16.33,5.59-3.31,2.48-6.82,5.74-6.66,9.88,.28,7.19,14.99,28.01,21.88,31.28,12.06,5.72,27.77-5.16,37.13-11.71Z" style="fill: #e5cc9b;"/>
          <path d="M791.98,542.99c-.03,2.55,.14,5.49,2.18,7.02,1.26,.94,2.94,1.07,4.51,1.17,6.97,.43,14.33,.77,20.53-2.44,5.13-2.66,8.86-7.48,13.9-10.31,2.76-1.55,5.9-2.5,8.28-4.59,4.48-3.92,5.03-10.61,4.87-16.56-.11-4.14-.75-8.88-4.21-11.14-6.03-3.92-31.52-3.95-38.17-.21-11.64,6.54-11.83,25.65-11.89,37.07Z" style="fill: #e5cc9b;"/>
          <path d="M802.93,682.03c-.14-2.47-.5-5.32-2.58-6.66-1.29-.83-2.92-.85-4.45-.84-6.79,.04-13.96,.19-19.76,3.71-4.81,2.92-8.11,7.84-12.81,10.92-2.58,1.69-5.56,2.82-7.74,5-4.09,4.1-4.18,10.63-3.64,16.39,.38,4.01,1.31,8.57,4.82,10.53,6.1,3.41,30.84,1.76,37.05-2.31,10.86-7.11,9.79-25.67,9.1-36.75Z" style="fill: #e5cc9b;"/>
          <path d="M690.45,636.34c2.69-1.1,5.71-2.59,6.4-5.41,.43-1.75-.18-3.56-.77-5.26-2.65-7.51-5.56-15.4-11.68-20.48-5.07-4.21-11.79-5.98-17.01-10.02-2.86-2.21-5.25-5.09-8.5-6.66-6.11-2.96-13.38-.57-19.56,2.25-4.3,1.95-9,4.73-9.83,9.38-1.44,8.07,9.86,34.86,16.74,40.19,12.04,9.32,32.2,1.03,44.22-3.99Z" style="fill: #e5cc9b;"/>
          <path d="M450.8,720.08c.99,2.2,2.3,4.66,4.66,5.16,1.46,.31,2.95-.24,4.34-.79,6.15-2.4,12.61-5.03,16.65-10.25,3.35-4.32,4.63-9.94,7.83-14.37,1.75-2.43,4.07-4.49,5.29-7.23,2.29-5.15,.1-11.11-2.4-16.15-1.74-3.51-4.17-7.33-8.04-7.89-6.73-.97-28.62,9.13-32.85,14.99-7.39,10.24,.04,26.72,4.52,36.54Z" style="fill: #e5cc9b;"/>
          <path d="M322.1,600.46c-2.58-.02-5.57,.17-7.11,2.25-.95,1.29-1.08,2.98-1.17,4.58-.4,7.07-.72,14.54,2.57,20.82,2.72,5.2,7.63,8.95,10.53,14.05,1.59,2.79,2.57,5.98,4.7,8.38,4,4.52,10.79,5.05,16.83,4.86,4.2-.13,9.01-.8,11.28-4.33,3.95-6.13,3.86-31.99,.04-38.73-6.69-11.78-26.08-11.88-37.66-11.89Z" style="fill: #e5cc9b;"/>
        </g>
        <g>
          <path d="M1309.01,376.73c2.12-.06,4.56-.28,5.76-2.03,.74-1.08,.8-2.47,.83-3.78,.14-5.8,.2-11.93-2.66-16.98-2.37-4.18-6.49-7.13-8.99-11.23-1.37-2.24-2.26-4.83-4.07-6.74-3.4-3.6-8.97-3.85-13.91-3.54-3.43,.22-7.36,.89-9.13,3.84-3.07,5.13-2.31,26.3,1,31.72,5.79,9.47,21.67,9.04,31.16,8.73Z" style="fill: #bca060;"/>
          <path d="M638.04,381.38c2.12-.06,4.56-.28,5.76-2.03,.74-1.08,.8-2.47,.83-3.78,.14-5.8,.2-11.93-2.66-16.98-2.37-4.18-6.49-7.13-8.99-11.23-1.37-2.24-2.26-4.83-4.07-6.74-3.4-3.6-8.97-3.85-13.91-3.54-3.43,.22-7.36,.89-9.13,3.84-3.07,5.13-2.31,26.3,1,31.72,5.79,9.47,21.67,9.04,31.16,8.73Z" style="fill: #bca060;"/>
          <path d="M320.7,341.35c.25-2.45,.35-5.3-1.48-6.95-1.13-1.02-2.73-1.29-4.24-1.53-6.68-1.03-13.74-2.01-19.99,.54-5.18,2.11-9.2,6.42-14.3,8.71-2.8,1.25-5.91,1.89-8.39,3.69-4.66,3.38-5.78,9.78-6.15,15.53-.26,4-.06,8.62,3.08,11.11,5.46,4.31,30.02,6.58,36.76,3.57,11.79-5.27,13.66-23.67,14.72-34.66Z" style="fill: #bca060;"/>
          <path d="M972.33,346.5c.03-2.44-.13-5.26-2.09-6.72-1.21-.9-2.81-1.03-4.32-1.12-6.67-.41-13.73-.74-19.66,2.33-4.92,2.55-8.49,7.16-13.31,9.88-2.64,1.49-5.65,2.4-7.93,4.4-4.29,3.76-4.82,10.17-4.66,15.87,.11,3.96,.71,8.51,4.04,10.67,5.77,3.76,30.19,3.78,36.56,.2,11.15-6.26,11.33-24.57,11.39-35.51Z" style="fill: #bca060;"/>
          <path d="M1129.2,312.71c-2.57,1.06-5.47,2.48-6.13,5.18-.41,1.67,.17,3.41,.74,5.04,2.54,7.19,5.32,14.75,11.19,19.62,4.86,4.03,11.29,5.73,16.29,9.59,2.74,2.12,5.03,4.87,8.14,6.38,5.85,2.84,12.82,.54,18.74-2.15,4.11-1.87,8.62-4.53,9.41-8.98,1.38-7.73-9.44-33.39-16.04-38.49-11.53-8.93-30.84-.99-42.35,3.82Z" style="fill: #bca060;"/>
        </g>
        <g>
          <path d="M1338.12,322.67c-2.12,.06-4.56,.28-5.76,2.03-.74,1.08-.8,2.47-.83,3.78-.14,5.8-.2,11.93,2.66,16.98,2.37,4.18,6.49,7.13,8.99,11.23,1.37,2.24,2.26,4.83,4.07,6.74,3.4,3.6,8.97,3.85,13.91,3.54,3.43-.22,7.36-.89,9.13-3.84,3.07-5.13,2.31-26.3-1-31.72-5.79-9.47-21.67-9.04-31.16-8.73Z" style="fill: #e5cc9b;"/>
          <path d="M985.8,421.1c-2.12,.06-4.56,.28-5.76,2.03-.74,1.08-.8,2.47-.83,3.78-.14,5.8-.2,11.93,2.66,16.98,2.37,4.18,6.49,7.13,8.99,11.23,1.37,2.24,2.26,4.83,4.07,6.74,3.4,3.6,8.97,3.85,13.91,3.54,3.43-.22,7.36-.89,9.13-3.84,3.07-5.13,2.31-26.3-1-31.72-5.79-9.47-21.67-9.04-31.16-8.73Z" style="fill: #e5cc9b;"/>
          <path d="M322.03,382.27c-2.12,.06-4.56,.28-5.76,2.03-.74,1.08-.8,2.47-.83,3.78-.14,5.8-.2,11.93,2.66,16.98,2.37,4.18,6.49,7.13,8.99,11.23,1.37,2.24,2.26,4.83,4.07,6.74,3.4,3.6,8.97,3.85,13.91,3.54,3.43-.22,7.36-.89,9.13-3.84,3.07-5.13,2.31-26.3-1-31.72-5.79-9.47-21.67-9.04-31.16-8.73Z" style="fill: #e5cc9b;"/>
          <path d="M1135.86,428.62c-.25,2.45-.35,5.3,1.48,6.95,1.13,1.02,2.73,1.29,4.24,1.53,6.68,1.03,13.74,2.01,19.99-.54,5.18-2.11,9.2-6.42,14.3-8.71,2.8-1.25,5.91-1.89,8.39-3.69,4.66-3.38,5.78-9.78,6.15-15.53,.26-4,.06-8.62-3.08-11.11-5.46-4.31-30.02-6.58-36.76-3.57-11.79,5.27-13.66,23.67-14.72,34.66Z" style="fill: #e5cc9b;"/>
          <path d="M1076.42,347.87c2.01-1.39,4.22-3.15,4.28-5.59,.04-1.51-.78-2.89-1.58-4.17-3.52-5.68-7.32-11.63-13.26-14.7-4.92-2.54-10.75-2.79-15.75-5.16-2.74-1.3-5.22-3.23-8.17-3.94-5.54-1.33-11.08,1.94-15.65,5.36-3.17,2.37-6.53,5.5-6.38,9.46,.27,6.88,14.35,26.83,20.96,29.96,11.55,5.48,26.6-4.94,35.56-11.22Z" style="fill: #e5cc9b;"/>
          <path d="M881.44,394.09c-.14-2.37-.48-5.1-2.47-6.38-1.23-.8-2.8-.81-4.26-.8-6.5,.04-13.37,.18-18.93,3.56-4.6,2.79-7.76,7.51-12.27,10.46-2.47,1.62-5.33,2.7-7.41,4.79-3.91,3.93-4.01,10.18-3.48,15.7,.36,3.84,1.25,8.21,4.62,10.09,5.85,3.27,29.54,1.68,35.49-2.21,10.41-6.81,9.38-24.58,8.71-35.2Z" style="fill: #e5cc9b;"/>
          <path d="M773.71,350.32c2.57-1.06,5.47-2.48,6.13-5.18,.41-1.67-.17-3.41-.74-5.04-2.54-7.19-5.32-14.75-11.19-19.62-4.86-4.03-11.29-5.73-16.29-9.59-2.74-2.12-5.03-4.87-8.14-6.38-5.85-2.84-12.82-.54-18.74,2.15-4.11,1.87-8.62,4.53-9.41,8.98-1.38,7.73,9.44,33.39,16.04,38.49,11.53,8.93,30.84,.99,42.35-3.82Z" style="fill: #e5cc9b;"/>
          <path d="M544.18,430.53c.95,2.1,2.2,4.46,4.46,4.94,1.4,.29,2.82-.23,4.15-.75,5.89-2.3,12.08-4.82,15.95-9.82,3.21-4.14,4.44-9.52,7.5-13.77,1.68-2.33,3.9-4.3,5.06-6.93,2.19-4.93,.1-10.64-2.3-15.47-1.66-3.36-3.99-7.02-7.7-7.56-6.45-.93-27.41,8.75-31.46,14.35-7.08,9.81,.03,25.59,4.33,35Z" style="fill: #e5cc9b;"/>
          <path d="M420.92,315.95c-2.48-.01-5.34,.16-6.81,2.15-.91,1.23-1.03,2.86-1.12,4.39-.38,6.77-.69,13.93,2.46,19.94,2.61,4.98,7.31,8.58,10.08,13.46,1.52,2.67,2.46,5.72,4.5,8.03,3.83,4.33,10.33,4.84,16.12,4.66,4.02-.13,8.63-.76,10.81-4.14,3.79-5.87,3.7-30.64,.03-37.09-6.41-11.28-24.98-11.38-36.07-11.39Z" style="fill: #e5cc9b;"/>
        </g>
        <g>
          <path d="M1350.2,1863.14c-2,.95-4.23,2.21-4.63,4.38-.25,1.34,.28,2.7,.81,3.96,2.33,5.59,4.87,11.46,9.74,15.07,4.03,2.98,9.21,4.05,13.35,6.89,2.26,1.56,4.21,3.64,6.74,4.7,4.77,1.99,10.19-.14,14.77-2.53,3.18-1.67,6.64-3.98,7.07-7.54,.75-6.19-8.97-26.07-14.42-29.83-9.54-6.57-24.51,.58-33.43,4.9Z" style="fill: #e5cc9b;"/>
          <path d="M123.56,1676.83c-2,.95-4.23,2.21-4.63,4.38-.25,1.34,.28,2.7,.81,3.96,2.33,5.59,4.87,11.46,9.74,15.07,4.03,2.98,9.21,4.05,13.35,6.89,2.26,1.56,4.21,3.64,6.74,4.7,4.77,1.99,10.19-.14,14.77-2.53,3.18-1.67,6.64-3.98,7.07-7.54,.75-6.19-8.97-26.07-14.42-29.83-9.54-6.57-24.51,.58-33.43,4.9Z" style="fill: #e5cc9b;"/>
          <path d="M1238.16,1785.54c-2.21,.06-4.76,.3-6.01,2.12-.78,1.13-.84,2.58-.87,3.95-.15,6.06-.21,12.45,2.77,17.73,2.47,4.37,6.77,7.44,9.39,11.72,1.44,2.34,2.36,5.04,4.25,7.04,3.55,3.76,9.37,4.02,14.52,3.69,3.58-.23,7.68-.93,9.53-4.01,3.21-5.35,2.41-27.46-1.05-33.11-6.05-9.89-22.63-9.44-32.53-9.12Z" style="fill: #e5cc9b;"/>
          <path d="M870.31,1888.31c-2.21,.06-4.76,.3-6.01,2.12-.78,1.13-.84,2.58-.87,3.95-.15,6.06-.21,12.45,2.77,17.73,2.47,4.37,6.77,7.44,9.39,11.72,1.44,2.34,2.36,5.04,4.25,7.04,3.55,3.76,9.37,4.02,14.52,3.69,3.58-.23,7.68-.93,9.53-4.01,3.21-5.35,2.41-27.46-1.05-33.11-6.05-9.89-22.63-9.44-32.53-9.12Z" style="fill: #e5cc9b;"/>
          <path d="M177.3,1847.76c-2.21,.06-4.76,.3-6.01,2.12-.78,1.13-.84,2.58-.87,3.95-.15,6.06-.21,12.45,2.77,17.73,2.47,4.37,6.77,7.44,9.39,11.72,1.44,2.34,2.36,5.04,4.25,7.04,3.55,3.76,9.37,4.02,14.52,3.69,3.58-.23,7.68-.93,9.53-4.01,3.21-5.35,2.41-27.46-1.05-33.11-6.05-9.89-22.63-9.44-32.53-9.12Z" style="fill: #e5cc9b;"/>
          <path d="M398.89,1689.51c-2.21,.06-4.76,.3-6.01,2.12-.78,1.13-.84,2.58-.87,3.95-.15,6.06-.21,12.45,2.77,17.73,2.47,4.37,6.77,7.44,9.39,11.72,1.44,2.34,2.36,5.04,4.25,7.04,3.55,3.76,9.37,4.02,14.52,3.69,3.58-.23,7.68-.93,9.53-4.01,3.21-5.35,2.41-27.46-1.05-33.11-6.05-9.89-22.63-9.44-32.53-9.12Z" style="fill: #e5cc9b;"/>
          <path d="M1099.42,1684.65c-2.21,.06-4.76,.3-6.01,2.12-.78,1.13-.84,2.58-.87,3.95-.15,6.06-.21,12.45,2.77,17.73,2.47,4.37,6.77,7.44,9.39,11.72,1.44,2.34,2.36,5.04,4.25,7.04,3.55,3.76,9.37,4.02,14.52,3.69,3.58-.23,7.68-.93,9.53-4.01,3.21-5.35,2.41-27.46-1.05-33.11-6.05-9.89-22.63-9.44-32.53-9.12Z" style="fill: #e5cc9b;"/>
          <path d="M1026.99,1896.16c-.26,2.56-.37,5.54,1.55,7.26,1.18,1.06,2.85,1.35,4.43,1.59,6.97,1.07,14.34,2.1,20.88-.56,5.41-2.2,9.6-6.71,14.93-9.09,2.92-1.31,6.17-1.98,8.76-3.86,4.87-3.53,6.04-10.21,6.42-16.21,.27-4.17,.07-9-3.21-11.59-5.7-4.5-31.34-6.87-38.38-3.72-12.31,5.51-14.26,24.71-15.37,36.19Z" style="fill: #e5cc9b;"/>
          <path d="M1430.75,1726.45c-.26,2.56-.37,5.54,1.55,7.26,1.18,1.06,2.85,1.35,4.43,1.59,6.97,1.07,14.34,2.1,20.88-.56,5.41-2.2,9.6-6.71,14.93-9.09,2.92-1.31,6.17-1.98,8.76-3.86,4.87-3.53,6.04-10.21,6.42-16.21,.27-4.17,.07-9-3.21-11.59-5.7-4.5-31.34-6.87-38.38-3.72-12.31,5.51-14.26,24.71-15.37,36.19Z" style="fill: #e5cc9b;"/>
          <path d="M964.93,1811.85c2.1-1.45,4.4-3.29,4.47-5.83,.04-1.58-.82-3.02-1.65-4.36-3.68-5.93-7.65-12.15-13.85-15.35-5.14-2.65-11.22-2.91-16.45-5.39-2.86-1.36-5.45-3.37-8.53-4.11-5.79-1.39-11.57,2.03-16.33,5.59-3.31,2.48-6.82,5.74-6.66,9.88,.28,7.19,14.99,28.01,21.88,31.28,12.06,5.72,27.77-5.16,37.13-11.71Z" style="fill: #e5cc9b;"/>
          <path d="M750.41,1721.07c-.03,2.55,.14,5.49,2.18,7.02,1.26,.94,2.94,1.07,4.51,1.17,6.97,.43,14.33,.77,20.53-2.44,5.13-2.66,8.86-7.48,13.9-10.31,2.76-1.55,5.9-2.5,8.28-4.59,4.48-3.92,5.03-10.61,4.87-16.56-.11-4.14-.75-8.88-4.21-11.14-6.03-3.92-31.52-3.95-38.17-.21-11.64,6.54-11.83,25.65-11.89,37.07Z" style="fill: #e5cc9b;"/>
          <path d="M761.36,1860.11c-.14-2.47-.5-5.32-2.58-6.66-1.29-.83-2.92-.85-4.45-.84-6.79,.04-13.96,.19-19.76,3.71-4.81,2.92-8.11,7.84-12.81,10.92-2.58,1.69-5.56,2.82-7.74,5-4.09,4.1-4.18,10.63-3.64,16.39,.38,4.01,1.31,8.57,4.82,10.53,6.1,3.41,30.84,1.76,37.05-2.31,10.86-7.11,9.79-25.67,9.1-36.75Z" style="fill: #e5cc9b;"/>
          <path d="M648.88,1814.41c2.69-1.1,5.71-2.59,6.4-5.41,.43-1.75-.18-3.56-.77-5.26-2.65-7.51-5.56-15.4-11.68-20.48-5.07-4.21-11.79-5.98-17.01-10.02-2.86-2.21-5.25-5.09-8.5-6.66-6.11-2.96-13.38-.57-19.56,2.25-4.3,1.95-9,4.73-9.83,9.38-1.44,8.07,9.86,34.86,16.74,40.19,12.04,9.32,32.2,1.03,44.22-3.99Z" style="fill: #e5cc9b;"/>
          <path d="M409.24,1898.15c.99,2.2,2.3,4.66,4.66,5.16,1.46,.31,2.95-.24,4.34-.79,6.15-2.4,12.61-5.03,16.65-10.25,3.35-4.32,4.63-9.94,7.83-14.37,1.75-2.43,4.07-4.49,5.29-7.23,2.29-5.15,.1-11.11-2.4-16.15-1.74-3.51-4.17-7.33-8.04-7.89-6.73-.97-28.62,9.13-32.85,14.99-7.39,10.24,.04,26.72,4.52,36.54Z" style="fill: #e5cc9b;"/>
          <path d="M280.54,1778.53c-2.58-.02-5.57,.17-7.11,2.25-.95,1.29-1.08,2.98-1.17,4.58-.4,7.07-.72,14.54,2.57,20.82,2.72,5.2,7.63,8.95,10.53,14.05,1.59,2.79,2.57,5.98,4.7,8.38,4,4.52,10.79,5.05,16.83,4.86,4.2-.13,9.01-.8,11.28-4.33,3.95-6.13,3.86-31.99,.04-38.73-6.69-11.78-26.08-11.88-37.66-11.89Z" style="fill: #e5cc9b;"/>
        </g>
      </g>
      <rect x="55.62" y="723.06" width="1534.38" height="939.68" style="fill: #5a9451;"/>
      <rect x="186.42" y="767.82" width="1272.79" height="850.16" style="fill: #f9fafb;"/>
      <g>
        <path d="M752.26,958.89c.24,50.15-38.5,92.11-80.28,119.85-60.62,40.25-133.98,63.99-181.94,118.72-37.44,42.72-55.02,103.06-43,158.58,12.02,55.52,54.61,104.2,109.08,120.33,10.02,2.97,20.51,4.95,29.56,10.18,15.84,9.17,24.61,26.59,36.39,40.59,20.08,23.86,50.78,38.43,81.96,38.89,23.23,.34,46.29-6.71,69.43-4.64,18.84,1.69,37.73,9.37,56.12,4.95,7.54-1.81,14.5-5.59,22.06-7.29,23.19-5.2,46.13,9.77,69.88,10.63,46.34,1.67,77.05-47.57,119.61-66.01,13.95-6.04,29.1-8.67,43.57-13.32,80.7-25.92,130.42-117.2,120.37-201.36-10.05-84.16-71.79-156.91-148.4-193.19-34.83-16.5-72.46-26.33-107.69-41.96-42.82-19-63.22-58.93-65.35-104.28-1.31-27.85,3.69-80.73,19.24-136.8-8.83,0-51.69-5.26-94.09-5.26-46.43,0-92.31,5.26-92.31,5.26,0,0,35.6,102.98,35.81,146.12Z" style="fill: #ece9d9; stroke: #3a3632; stroke-linejoin: round; stroke-width: 20px;"/>
        <path d="M738.17,1113.91c-7.75-.86-15.65-.53-23.46,0-10.2,.69-21.45,1.43-29.57-4.78-2.37-1.81-4.35-4.15-6.93-5.66-13.63-7.96-33.5,10.67-44.87,16.84-15.31,8.3-30.79,16.28-46.01,24.76-30.49,16.99-60.37,36.16-83.56,62.62-20.05,22.88-34.14,50.95-40.7,80.64-4.77,21.61-15.74,52.61,11.01,64.42,14.7,6.49,31.55,4.18,47.6,4.81,41.07,1.61,79.23,23.01,120.23,25.85,23.93,1.65,48.18-3.09,71.84,.82,22.13,3.65,42.52,14.67,64.64,18.38,43.23,7.26,85.75-14,129.3-18.97,56.54-6.45,114.42,14.7,170.07,2.87,23.89-5.08,46.13-16.04,69.71-22.41,10.89-2.94,22.38-5.05,31.57-11.59,16.96-12.07,12.5-39.06,10.35-57.05-5.64-47.19-28.52-90.94-60.67-125.52-16.26-17.49-34.92-32.76-55.22-45.34-9.56-5.93-19.43-11.2-29.75-15.64-11.01-4.74-21.42-12.13-33.12-15.65-10.99-3.31-23.64-3.04-33.12,3.45-7.01,4.8-11.59,12.44-18.28,17.67-19.94,15.63-49.42,5.02-73.87,11.66-18.19,4.94-33.12,19.44-51.8,22.01-31.68,4.35-57.24-26.32-88.5-33.08-2.29-.49-4.59-.86-6.91-1.11Z" style="fill: #f7f5e9;"/>
        <path d="M1021.2,1463.84c42.24-57.64,43.24-145.76,13.43-209.8-31.66-68.02-103.59-102.75-140.17-167.1" style="fill: none; stroke: #3a3632; stroke-linecap: round; stroke-miterlimit: 10; stroke-width: 10px;"/>
        <path d="M819.13,987.1c0,126.97-51.37,205.75-66.72,285.87-27.53,143.71,29.22,211.5,52.3,242.45" style="fill: none; stroke: #3a3632; stroke-linecap: round; stroke-miterlimit: 10; stroke-width: 10px;"/>
        <path d="M589.79,1437.27c-30.76-53.35-31.97-119.72-10.44-176.61,13.38-35.34,36.8-65.96,64.06-91.76,25.85-24.47,60.48-44.97,77.05-77.67" style="fill: none; stroke: #3a3632; stroke-linecap: round; stroke-miterlimit: 10; stroke-width: 10px;"/>
      </g>
    </g>
  </g>
  <g id="Isolation_Mode" data-name="Isolation Mode"/>
</svg>