<svg id="Layer_1" data-name="Layer 1" xmlns="http://www.w3.org/2000/svg" width="2000" height="2000" viewBox="0 0 2000 2000"><polygon points="1000 90 1295.68 689.11 1956.83 785.18 1478.41 1251.52 1591.35 1910 1000 1599.11 408.65 1910 521.59 1251.52 43.17 785.18 704.32 689.11 1000 90" style="fill:#fff;stroke:#231f20;stroke-linecap:round;stroke-linejoin:round;stroke-width:55px"/><polygon points="1128.4 555.77 1000 295.61 936.34 424.6 1128.4 555.77" style="fill:#f89e1f"/><polygon points="1677.23 930.64 1761.27 848.72 1502.18 811.07 1677.23 930.64" style="fill:#f89e1f"/><polygon points="1626.46 980.12 1345.66 788.33 1235.25 772.28 1191.05 682.73 905.28 487.54 814.89 670.7 1478.74 1124.12 1626.46 980.12" style="fill:#f89e1f"/><polygon points="1380.63 1219.74 1427.97 1173.6 783.82 733.64 764.75 772.28 531.49 806.18 1412.96 1408.24 1380.63 1219.74" style="fill:#f89e1f"/><polygon points="1470.49 1743.65 1429.31 1503.57 429.88 820.95 238.73 848.72 535.43 1137.93 1261.08 1633.56 1470.49 1743.65" style="fill:#f89e1f"/><polygon points="964.34 1515.04 610.2 1273.16 572.61 1492.37 761.74 1621.56 964.34 1515.04" style="fill:#f89e1f"/><polygon points="559.68 1567.71 529.51 1743.65 692.12 1658.16 559.68 1567.71" style="fill:#f89e1f"/></svg>