<svg id="Layer_1" data-name="Layer 1" xmlns="http://www.w3.org/2000/svg" xmlns:xlink="http://www.w3.org/1999/xlink" width="250" height="250" viewBox="0 0 250 250"><defs><style>.cls-1,.cls-4{fill:none;}.cls-2{clip-path:url(#clip-path);}.cls-3{fill:#f79d1f;}.cls-4{stroke:#231f20;stroke-miterlimit:10;stroke-width:5px;}</style><clipPath id="clip-path"><polygon class="cls-1" points="124.99 60 49.95 190 200.05 190 124.99 60"/></clipPath></defs><g class="cls-2"><circle class="cls-3" cx="50.7" cy="60.24" r="11.18"/><circle class="cls-3" cx="86.54" cy="60.24" r="11.18"/><circle class="cls-3" cx="122.88" cy="60.24" r="11.18"/><circle class="cls-3" cx="159.23" cy="60.24" r="11.18"/><circle class="cls-3" cx="195.56" cy="60.24" r="11.18"/><circle class="cls-3" cx="50.7" cy="96.62" r="11.18"/><circle class="cls-3" cx="86.54" cy="96.62" r="11.18"/><circle class="cls-3" cx="122.88" cy="96.62" r="11.18"/><circle class="cls-3" cx="159.23" cy="96.62" r="11.18"/><circle class="cls-3" cx="195.56" cy="96.62" r="11.18"/><circle class="cls-3" cx="50.7" cy="132.99" r="11.18"/><circle class="cls-3" cx="86.54" cy="132.99" r="11.18"/><circle class="cls-3" cx="122.88" cy="132.99" r="11.18"/><circle class="cls-3" cx="159.23" cy="132.99" r="11.18"/><circle class="cls-3" cx="195.56" cy="132.99" r="11.18"/><circle class="cls-3" cx="50.7" cy="169.36" r="11.18"/><circle class="cls-3" cx="86.54" cy="169.36" r="11.18"/><circle class="cls-3" cx="122.88" cy="169.36" r="11.18"/><circle class="cls-3" cx="159.23" cy="169.36" r="11.18"/><circle class="cls-3" cx="195.56" cy="169.36" r="11.18"/><circle class="cls-3" cx="50.7" cy="205.74" r="11.18"/><circle class="cls-3" cx="86.54" cy="205.74" r="11.18"/><circle class="cls-3" cx="122.88" cy="205.74" r="11.18"/><circle class="cls-3" cx="159.23" cy="205.74" r="11.18"/><circle class="cls-3" cx="195.56" cy="205.74" r="11.18"/></g><polygon class="cls-4" points="124.99 60 49.95 190 200.05 190 124.99 60"/></svg>