<svg id="Layer_1" data-name="Layer 1" xmlns="http://www.w3.org/2000/svg" viewBox="0 0 2000 2000"><g id="layer1"><g id="g894"><path id="rect874" d="M583.3,51.7l855.15-.19a28.71,28.71,0,0,1,28.73,28.72V198.57H554.52l.07-118.16A28.71,28.71,0,0,1,583.3,51.7Z" style="fill:#fff;stroke:#3a3632;stroke-linecap:round;stroke-linejoin:round;stroke-width:20px"/><path id="rect876" d="M554.52,198.57h912.66l188.43,301.17-939.41-.2Z" style="fill:#fff;stroke:#3a3632;stroke-linecap:round;stroke-linejoin:round;stroke-width:20px"/><path id="path879" d="M554.52,198.57,344.39,582.72l371.81-83Z" style="fill:#929497;stroke:#3a3632;stroke-linecap:round;stroke-linejoin:round;stroke-width:20px"/><polygon id="rect882" points="344.39 582.72 716.2 499.54 716.2 1951.5 344.39 1868.32 344.39 582.72" style="fill:#d0d2d3;stroke:#3a3632;stroke-linecap:round;stroke-linejoin:round;stroke-width:20px"/><rect id="rect887" x="716.2" y="499.74" width="939.4" height="1451.76" style="fill:#fff;stroke:#3a3632;stroke-linecap:round;stroke-linejoin:round;stroke-width:20px"/></g></g><path d="M600.49,125l52.7,41s-.92-41-22.06-41c21.14,0,22.06-41,22.06-41Z"/><polygon points="652.23 125.04 667.96 137.27 667.96 112.81 652.23 125.04"/><path d="M1607.23,906.49c26,722.49-833.86,99.2-833.86,709V554.71H1607.8Z" style="fill:#7fd2ab"/><path d="M1461.7,1249.32c110.93-42.94,154.21-162.37,122.21-271.18-7.67-26.08-28.7-55.18-55.13-48.87-21.23,5.07-30.72,31.47-26.71,52.91s12.68,31,22.32,50.6C1549.41,1083.57,1580.84,1175,1461.7,1249.32Z" style="fill:#fff"/><path d="M1312,1294.66c133.33,1.89,251.32-75,233.45-168.6-4.14-21.69-8.65-42.7-35.49-46.59-21.55-3.12-38.52,13.58-41.26,31s2.53,27.43,5.66,45.26C1482.51,1202,1519.17,1260.49,1312,1294.66Z" style="fill:#fff"/><path id="path839" d="M1518.16,1759.69c41.65-41.66,21.62-130.79-25.58-176.66s-196.12-85.77-196.12-85.77L880.16,1081a28.85,28.85,0,0,0-40.8,40.8l416.33,416.33c23.69,66.48,37.14,146.92,85.92,196C1397.19,1789.91,1476.5,1801.34,1518.16,1759.69Z" style="fill:#3a3632"/><path d="M997.43,808.88q12.39,16.47,12.4,40.88,0,33.68-24.79,53.65t-67,20a145.35,145.35,0,0,1-46.25-7.4q-22.2-7.4-37.74-20.72-8.52-7.39-8.51-17.39A21.37,21.37,0,0,1,830.19,864q4.62-5.73,10.92-5.74a16.55,16.55,0,0,1,6.66,1.3q3,1.3,8.14,4.25a159.26,159.26,0,0,0,29.6,15.91,82.9,82.9,0,0,0,30.71,5.55q24.42,0,36.26-9.8t11.84-29.79q0-19.61-12.4-29t-38.29-9.44H892.54q-8.52,0-13.14-5.73a21.25,21.25,0,0,1,0-26.46q4.62-5.55,13.14-5.55h14.8q50.68,0,50.69-38.11Q958,713.6,947.3,704t-29.6-9.62q-27,0-57.72,21.46a91.29,91.29,0,0,1-8.14,4.26,16.38,16.38,0,0,1-6.66,1.29c-4.2,0-7.84-1.9-10.92-5.73a21.36,21.36,0,0,1-4.62-13.88,20.06,20.06,0,0,1,2-9.43,30.13,30.13,0,0,1,6.48-8q15.54-12.95,37.18-20.53a133,133,0,0,1,44.22-7.59q38.48,0,61.23,18.87t22.76,50.32q-.37,21.46-11.29,37.56t-30.52,23.49Q985,792.42,997.43,808.88Z" style="fill:#fff"/><path d="M1200.56,764.11a74.09,74.09,0,0,1,29,29.41Q1240,812.39,1240,836.81q0,25.53-11.65,45.14a79.59,79.59,0,0,1-32.93,30.53q-21.29,10.92-49,10.91a137.23,137.23,0,0,1-44.95-7.58q-22-7.57-37.56-20.54-8.5-7.39-8.51-17.39A21.38,21.38,0,0,1,1060,864q4.62-5.73,10.91-5.74a19.28,19.28,0,0,1,7,1.3,42.55,42.55,0,0,1,7.77,4.25,141.07,141.07,0,0,0,28.86,15.91,80.85,80.85,0,0,0,30,5.55q24.42,0,37.37-12.21t13-34.78q0-21.82-13.13-34.59t-36.08-12.77A75.56,75.56,0,0,0,1119.9,795q-11.3,4.08-23.13,13.69a25.26,25.26,0,0,1-14.43,4.81,18.67,18.67,0,0,1-12.58-4.44,14.81,14.81,0,0,1-5.18-11.84V681.78q0-10.35,5.92-16.28t16.65-5.92h123.21q22.2,0,22.2,18.5t-22.2,18.5H1111.2v70.3q18.87-13.32,46.25-13.32Q1181.87,753.56,1200.56,764.11Z" style="fill:#fff"/><path d="M1274.17,724.1Q1264,712.24,1264,689.37q0-22.65,10.13-34.51T1302.43,643q18.12,0,28.37,11.87T1341,689.37q0,22.86-10.24,34.73T1302.43,736Q1284.31,736,1274.17,724.1Zm40.23-12.41q3.78-6.78,3.78-22.32,0-15.11-3.88-22a12.76,12.76,0,0,0-11.87-6.91,12.53,12.53,0,0,0-11.75,6.8q-3.78,6.79-3.78,22.11,0,15.52,3.78,22.32a12.53,12.53,0,0,0,11.75,6.8Q1310.64,718.49,1314.4,711.69Zm7.23,87.69a10.64,10.64,0,0,1-5.61,1.73,9.78,9.78,0,0,1-9.71-9.93,14.36,14.36,0,0,1,2.16-7.33L1387,648.17a13.86,13.86,0,0,1,4.75-5.18,10.57,10.57,0,0,1,5.6-1.72,9.75,9.75,0,0,1,9.71,9.92,14.33,14.33,0,0,1-2.16,7.33L1326.38,794.2A13.87,13.87,0,0,1,1321.63,799.38Zm61-12.51q-10.14-11.86-10.14-35,0-22.63,10.24-34.4t28.15-11.76q18.12,0,28.26,11.87t10.14,34.51q0,22.86-10.14,34.73t-28.26,11.86Q1392.81,798.73,1382.68,786.87Zm40.12-12.4q3.89-6.79,3.88-22.33,0-15.09-3.88-22a13.65,13.65,0,0,0-23.73,0q-3.88,6.9-3.88,22,0,15.52,3.88,22.33a13.76,13.76,0,0,0,23.73,0Z" style="fill:#fff"/><polygon points="368.98 566.49 625.71 370.17 692.36 494.32 368.98 566.49" style="fill:#e6e7e8"/></svg>