<svg id="Layer_1" data-name="Layer 1" xmlns="http://www.w3.org/2000/svg" viewBox="0 0 1202 2000"><polygon points="463.59 1976.84 431.9 1977.13 448.14 1034.4 469.01 1034.28 463.59 1976.84" style="fill:#39b54a;stroke:#3a3632;stroke-linecap:round;stroke-linejoin:round;stroke-width:10px"/><polygon points="532.18 1972.03 500.55 1972.32 493.36 1032.31 514.2 1032.19 532.18 1972.03" style="fill:#39b54a;stroke:#3a3632;stroke-linecap:round;stroke-linejoin:round;stroke-width:10px"/><polygon points="592.88 1948.22 561.52 1948.5 533.69 1021.94 554.41 1021.82 592.88 1948.22" style="fill:#39b54a;stroke:#3a3632;stroke-linecap:round;stroke-linejoin:round;stroke-width:10px"/><polygon points="628.41 1960.49 596.9 1959.96 586.79 1027.02 607.58 1027.25 628.41 1960.49" style="fill:#39b54a;stroke:#3a3632;stroke-linecap:round;stroke-linejoin:round;stroke-width:10px"/><polygon points="709.63 1972.23 678.02 1972.52 610.28 1032.4 631.12 1032.28 709.63 1972.23" style="fill:#39b54a;stroke:#3a3632;stroke-linecap:round;stroke-linejoin:round;stroke-width:10px"/><polygon points="791.54 1983.48 759.91 1984.6 633.9 1038.07 654.76 1037.59 791.54 1983.48" style="fill:#39b54a;stroke:#3a3632;stroke-linecap:round;stroke-linejoin:round;stroke-width:10px"/><polygon points="414.8 1934.32 383.66 1933.41 460.25 1015.64 480.89 1016.04 414.8 1934.32" style="fill:#39b54a;stroke:#3a3632;stroke-linecap:round;stroke-linejoin:round;stroke-width:10px"/><polygon points="482.56 1932.23 451.42 1931.32 505.09 1014.72 525.73 1015.12 482.56 1932.23" style="fill:#39b54a;stroke:#3a3632;stroke-linecap:round;stroke-linejoin:round;stroke-width:10px"/><polygon points="543.89 1911.38 512.97 1910.48 545.69 1005.56 566.23 1005.95 543.89 1911.38" style="fill:#39b54a;stroke:#3a3632;stroke-linecap:round;stroke-linejoin:round;stroke-width:10px"/><polygon points="580.31 1929 549.18 1928.09 569.83 1013.31 590.46 1013.7 580.31 1929" style="fill:#39b54a;stroke:#3a3632;stroke-linecap:round;stroke-linejoin:round;stroke-width:10px"/><polygon points="514.69 1937.93 483.48 1937.02 526.38 1017.22 547.05 1017.62 514.69 1937.93" style="fill:#39b54a;stroke:#3a3632;stroke-linecap:round;stroke-linejoin:round;stroke-width:10px"/><polygon points="437.99 1947.62 406.69 1946.7 475.73 1021.46 496.43 1021.86 437.99 1947.62" style="fill:#39b54a;stroke:#3a3632;stroke-linecap:round;stroke-linejoin:round;stroke-width:10px"/><polygon points="578.15 1924.62 547.1 1922.93 597.99 1011.86 618.61 1012.6 578.15 1924.62" style="fill:#39b54a;stroke:#3a3632;stroke-linecap:round;stroke-linejoin:round;stroke-width:10px"/><polygon points="657.63 1939.09 626.36 1938.17 620.95 1017.73 641.65 1018.13 657.63 1939.09" style="fill:#39b54a;stroke:#3a3632;stroke-linecap:round;stroke-linejoin:round;stroke-width:10px"/><polygon points="738 1953.12 706.58 1953.01 644.03 1023.88 664.78 1023.93 738 1953.12" style="fill:#39b54a;stroke:#3a3632;stroke-linecap:round;stroke-linejoin:round;stroke-width:10px"/><path d="M1173.94,478.24a12.74,12.74,0,0,0-6.36-3.76,17.75,17.75,0,0,0,2.33-1.78c6.36-5.8,7.31-15.1,2.13-20.78-4.31-4.73-11.51-5.44-17.46-2.22,3.76-5.63,3.71-12.86-.6-17.59-5.18-5.68-14.53-5.59-20.88.2a17.5,17.5,0,0,0-2,2.16,12.81,12.81,0,0,0-3.16-6.68c-5.18-5.69-14.53-5.6-20.88.2l-.14.13a12.59,12.59,0,0,0-13.48-1.57,15.48,15.48,0,0,0-7.65.93,13.45,13.45,0,0,0-8.93-9.26c-7.37-2.18-15.32,2.74-17.76,11a17.29,17.29,0,0,0-.58,2.88,12.7,12.7,0,0,0-6.17-4.09,13.5,13.5,0,0,0-12.62,3c12.58-23,22.59-40.5,27-48a18.28,18.28,0,0,0-10.88-30.2,18.66,18.66,0,0,0-4.21-.15,18.27,18.27,0,0,0-22-27,19.35,19.35,0,0,0,.86-3.35,18.29,18.29,0,0,0-34.74-10.33,18.29,18.29,0,0,0-11.22-14.8,18.25,18.25,0,0,0,6.22-31,18.28,18.28,0,0,0-3-36.41,18.29,18.29,0,0,0-15.65-32.69,18.72,18.72,0,0,0-3.17,1.37,18.27,18.27,0,0,0-30.12-17.55A18.25,18.25,0,0,0,915,164.94a18.15,18.15,0,0,0-8.43,5.7c-7.13,5.74-24.46,19.57-47.28,37a12.89,12.89,0,0,0-3.3-7.95,12.74,12.74,0,0,0-6.36-3.76,17,17,0,0,0,2.33-1.79c6.36-5.79,7.31-15.09,2.13-20.77a12.56,12.56,0,0,0-3.67-2.77l.18-.14a16.91,16.91,0,0,0,6.48-5.81c4.72-7.18,3.35-16.42-3.08-20.65a12.63,12.63,0,0,0-2.89-1.4,17,17,0,0,0,4.58-4.68c4.73-7.18,3.35-16.43-3.07-20.66a12.8,12.8,0,0,0-7.1-2.07,16.59,16.59,0,0,0,1.82-2.3c4.73-7.18,3.35-16.43-3.07-20.66-5.34-3.51-12.49-2.43-17.47,2.17,2.26-6.39.42-13.38-4.92-16.9-6.42-4.23-15.46-1.83-20.19,5.35a16.64,16.64,0,0,0-1.39,2.59,12.79,12.79,0,0,0-4.71-5.7c-6.43-4.23-15.46-1.83-20.19,5.35a17.31,17.31,0,0,0-2.49,6.06,12.56,12.56,0,0,0-2.42-2.1c-5.25-3.45-12.24-2.48-17.2,1.9a18.17,18.17,0,0,0-19.64-16.89,18,18,0,0,0,2.79-7.22A18.27,18.27,0,0,0,711.57,47a18.28,18.28,0,0,0-33.88-13.68,18.28,18.28,0,0,0-36.43,2.77,18.26,18.26,0,0,0-29.19,19,18.24,18.24,0,0,0-25,14.13,18.1,18.1,0,0,0,.77,8.66,11.53,11.53,0,0,0-1.55-.59c-7.37-2.18-15.32,2.74-17.76,11a18.41,18.41,0,0,0-.59,2.88,12.74,12.74,0,0,0-6.16-4.09c-7.37-2.17-15.32,2.74-17.76,11a17,17,0,0,0-.62,6.52,12.3,12.3,0,0,0-2.93-1.31,13.06,13.06,0,0,0-9.7,1,13.72,13.72,0,0,0-14.3-.71,12.69,12.69,0,0,0-5,5.42,17.93,17.93,0,0,0-1.25-2.67c-4.3-7.44-13.18-10.36-19.84-6.52a12.69,12.69,0,0,0-3.6,3.14c-.32-10.14-.5-17.9-.58-22.49A18.25,18.25,0,0,0,457.59,62.4a18.26,18.26,0,0,0-25.23-17.57,18.16,18.16,0,0,0-7.62,5.89,17.68,17.68,0,0,0-1-3.31,18.28,18.28,0,0,0-35.06,9.15,18.29,18.29,0,0,0-31.35,18.18A19,19,0,0,0,359,77.8a18.26,18.26,0,0,0-15.11,31.41,18.07,18.07,0,0,0-4.06,1.13,17.17,17.17,0,0,0-2.56,1.32,12.45,12.45,0,0,0-2.65,1.49,12.9,12.9,0,0,0-4.39,5.95,17.1,17.1,0,0,0-1.53-2.5c-5.12-6.91-14.28-8.81-20.45-4.23-5.15,3.81-6.59,10.89-4,17.15-5.23-4.32-12.42-5-17.57-1.2-6.18,4.58-7,13.89-1.92,20.8a17.92,17.92,0,0,0,1.95,2.2,12.7,12.7,0,0,0-7,2.46c-6.18,4.57-7,13.88-1.93,20.79a17,17,0,0,0,4.84,4.42,12.94,12.94,0,0,0-2.81,1.56c-6.18,4.57-7,13.88-1.93,20.79a17.1,17.1,0,0,0,3.61,3.6c-7.13-2.94-15.15-.68-18.56,5.53-3.09,5.61-1.44,12.65,3.54,17.25a15.44,15.44,0,0,0-11.26,1.16c-12.28-8.6-21.49-15.22-26.32-18.72a18.28,18.28,0,0,0-29.12,3c-5.57-1.15-11.21.66-14.44,4.9a18,18,0,0,0-5.63,1,14.41,14.41,0,0,0-1.45-.94c-7.46-4.27-16.6-2.33-20.43,4.34a12.85,12.85,0,0,0-1.63,7.21,17.51,17.51,0,0,0-2.41-1.68c-7.46-4.27-16.6-2.33-20.43,4.34-3.18,5.55-1.66,12.62,3.24,17.3-6.52-1.86-13.39.41-16.57,6-3.82,6.67-.87,15.54,6.59,19.81a17.25,17.25,0,0,0,2.66,1.24,12.73,12.73,0,0,0-5.39,5.05c-3.83,6.67-.88,15.54,6.58,19.82a17,17,0,0,0,6.2,2.11,12.66,12.66,0,0,0-1.95,2.55c-3.82,6.67-.87,15.54,6.58,19.82a17.41,17.41,0,0,0,3.92,1.63A18.25,18.25,0,0,0,166,341.1,18.92,18.92,0,0,0,164.5,345a18.31,18.31,0,0,0,11.27,21.76c-.31.57-.61,1.15-.91,1.73C139,362,110.64,356,100,353.66a18.28,18.28,0,0,0-25.42,19.6,18.61,18.61,0,0,0,1.15,4.06,18.26,18.26,0,0,0-18.95,29.26,17.48,17.48,0,0,0-3.45.21,18.28,18.28,0,0,0,.8,36.22,18.28,18.28,0,0,0,13.78,33.84,18.27,18.27,0,0,0,27.08,22,17.55,17.55,0,0,0,.16,4.21,18.25,18.25,0,0,0,30.13,10.86l2.71-1.55q-1.44,9.7-2.48,19.55c-23,4.73-40.68,8-48.63,9.44A18.06,18.06,0,0,0,66.9,544a18.3,18.3,0,0,0-6,25.16,18.12,18.12,0,0,0,2.62,3.3,18.27,18.27,0,0,0-6.31,34.29,17.78,17.78,0,0,0-3.1,1.52,18.28,18.28,0,0,0,14.61,33.16,18.28,18.28,0,0,0,22.94,28.05,19.17,19.17,0,0,0,2.76-2.08,17.52,17.52,0,0,0,.38,3.45A12.81,12.81,0,0,0,90,675.69a12.66,12.66,0,0,0-1.16,3,17.14,17.14,0,0,0-5-4.2c-7.53-4.14-16.64-2-20.35,4.7a12.8,12.8,0,0,0-1.5,7.24,18.24,18.24,0,0,0-2.44-1.64c-7.54-4.14-16.65-2-20.35,4.7-3.08,5.61-1.44,12.65,3.54,17.24-6.55-1.74-13.37.64-16.46,6.25-3.7,6.74-.6,15.56,6.93,19.7a18.23,18.23,0,0,0,2.69,1.19A12.68,12.68,0,0,0,30.6,739c-3.71,6.74-.61,15.56,6.93,19.7a17,17,0,0,0,6.24,2,12.39,12.39,0,0,0-1.91,2.59c-3.7,6.73-.6,15.55,6.93,19.69a16.78,16.78,0,0,0,8.33,2.11c14.93,2.6,71.63,12.73,128.89,26.58q10,17,21.48,33.05a18.18,18.18,0,0,0-.31,7.26,18.68,18.68,0,0,0,1.15,4,18.26,18.26,0,0,0-19,29.26,19.15,19.15,0,0,0-3.45.21,18.28,18.28,0,0,0,.8,36.23,18.28,18.28,0,0,0,10.44,34.7,19,19,0,0,0,3.34-.87,18.27,18.27,0,0,0,27.08,22,17.66,17.66,0,0,0,.16,4.22,18.27,18.27,0,0,0,30.13,10.86c7.2-4.15,23.71-13.6,45.55-25.56-2.42,5.31-1.82,11.42,2.07,15.52,4.41,4.64,11.62,5.21,17.51,1.86A15.23,15.23,0,0,0,321.06,997c-3.31,1.83-6,3.3-7.9,4.34a16.79,16.79,0,0,0-7.29,4.75c-5.77,6.37-5.83,15.72-.13,20.88a12,12,0,0,0,2.64,1.82,17.06,17.06,0,0,0-5.24,3.93c-5.78,6.37-5.84,15.72-.14,20.88a12.84,12.84,0,0,0,6.7,3.14,17.5,17.5,0,0,0-2.16,2c-5.77,6.38-5.83,15.73-.13,20.89,4.74,4.29,12,4.32,17.6.54-3.21,6-2.48,13.16,2.27,17.45,5.7,5.16,15,4.18,20.76-2.19a17,17,0,0,0,1.78-2.34,12.77,12.77,0,0,0,3.78,6.35c5.7,5.16,15,4.18,20.77-2.19a17.14,17.14,0,0,0,3.39-5.61,12.69,12.69,0,0,0,2.07,2.46c5.7,5.16,15,4.17,20.77-2.2a16.81,16.81,0,0,0,4-7.62c1.26-2.94,3.28-7.62,5.93-13.66a18.17,18.17,0,0,0,17.44,8.74,18.27,18.27,0,0,0,22.6,26.55,17.87,17.87,0,0,0-.79,3.36,18.29,18.29,0,0,0,34.94,9.62,18.28,18.28,0,0,0,36.36-3.51,18.26,18.26,0,0,0,28.8-19.64A18.27,18.27,0,0,0,573,1071.06c-.22-.91-.47-2-.74-3.12.13.06.25.15.39.21,7,3.24,15.56-.45,19.18-8.25a17,17,0,0,0,1.57-6.36,13.3,13.3,0,0,0,2.71,1.73c7,3.24,15.56-.46,19.18-8.26a16.84,16.84,0,0,0,1.54-8.56c.06-.64.13-1.38.22-2.17a12.86,12.86,0,0,0,2.62-1.2c.25-.15.48-.33.71-.5l2.07-.2a17.35,17.35,0,0,0,2,4.84c4.45,7.35,13.39,10.09,20,6.11a12.75,12.75,0,0,0,4.92-5.51,17.83,17.83,0,0,0,1.3,2.63c.26.43.53.83.82,1.22-2.16,19.91-4,35-5,42.16a18.27,18.27,0,0,0,21.7,23.65,18.45,18.45,0,0,0,3.94-1.5,18.27,18.27,0,0,0,30.77,16.39,18.48,18.48,0,0,0,.51,3.42,18.28,18.28,0,0,0,36-3.89,18.28,18.28,0,0,0,33.68-13.37,17.47,17.47,0,0,0-1.15-3.26,18.27,18.27,0,0,0,19.57-28.85,18.84,18.84,0,0,0,4.19-.52,18.27,18.27,0,0,0,8.24-31c-5.38-7.71-18.55-26.75-35-51.7q13.6-6.22,26.72-13.3c4.28,3.29,8.47,6.53,12.53,9.7a17.07,17.07,0,0,0,12.09,9.5c22.48,17.79,39.79,32.17,46.42,37.72a16.75,16.75,0,0,0,7,5c8,3.08,16.77-.24,19.52-7.41a12.49,12.49,0,0,0,.74-3.13,17.06,17.06,0,0,0,5.56,3.47c8,3.08,16.77-.24,19.52-7.42a12.66,12.66,0,0,0,.5-7.37,17.57,17.57,0,0,0,2.65,1.29c8,3.08,16.76-.25,19.52-7.42,2.29-6-.3-12.73-5.86-16.61,6.73.84,13.17-2.45,15.46-8.42,2.75-7.18-1.52-15.49-9.55-18.57a17.35,17.35,0,0,0-2.82-.82,12.76,12.76,0,0,0,4.56-5.81c2.75-7.18-1.52-15.5-9.55-18.58a17.09,17.09,0,0,0-6.45-1.13,12.81,12.81,0,0,0,1.54-2.82c2.52-6.58-.87-14.1-7.63-17.69,7.09-2.61,10.6-11.09,7.85-19.12a16.94,16.94,0,0,0-3.27-5.68,12.76,12.76,0,0,0,3.15-.63,13.58,13.58,0,0,0,8.69-10.21c8.08.41,14.33.76,18.25,1a18.26,18.26,0,0,0,22.66-14.2c3.39,4.52,6.08,8.13,7.89,10.59a18.26,18.26,0,0,0,33.85-1.77,18.27,18.27,0,0,0,33.55-9.49,17.92,17.92,0,0,0,2.73,2.12A18.28,18.28,0,0,0,1080,850.27a18.28,18.28,0,0,0,15-33,19.06,19.06,0,0,0-3.09-1.56,18.27,18.27,0,0,0-5.86-34.36,18.26,18.26,0,0,0-6.51-30.21,12.67,12.67,0,0,0,3-4.54c2.75-7.18-1.52-15.49-9.55-18.57a17.11,17.11,0,0,0-6.45-1.14,12.2,12.2,0,0,0,1.54-2.82c2.75-7.17-1.52-15.49-9.55-18.57a16.79,16.79,0,0,0-3.73-1,13.49,13.49,0,0,0,5.12-11.93,12.52,12.52,0,0,0-.78-3.12,16.86,16.86,0,0,0,6.53.51c8.54-1,14.75-8,13.87-15.6a12.09,12.09,0,0,0-1-3.56c7.25.36,12.9.69,16.54.9a18.27,18.27,0,0,0,22.11-23.26,17.88,17.88,0,0,0-1.76-3.84,18.26,18.26,0,0,0,14.24-31.82,18.28,18.28,0,0,0-3-36.41,18.25,18.25,0,0,0-2.38-31.86c16.29-7.41,28.71-12.84,34.47-15.33a16.79,16.79,0,0,0,7.6-4c6.36-5.79,7.31-15.09,2.13-20.77a12.69,12.69,0,0,0-2.46-2.07,17,17,0,0,0,5.6-3.41C1178.17,493.22,1179.12,483.92,1173.94,478.24Z" style="fill:#39b54a;stroke:#3a3632;stroke-width:10px"/><path d="M580.16,388.47c8.09-85.4,69.12-245.2,80.19-273.65A18.28,18.28,0,0,0,645,86.64a18.69,18.69,0,0,0-4.19.5,18.27,18.27,0,0,0-25.93-23.3,18.49,18.49,0,0,0,.34-3.44,18.29,18.29,0,0,0-35.91-4.88,18.29,18.29,0,0,0-35.91,4.88,17.68,17.68,0,0,0,.34,3.44,18.27,18.27,0,0,0-25.93,23.3,18.69,18.69,0,0,0-4.19-.5,18.28,18.28,0,0,0-15.45,28.07C509,143,570,304.79,578.34,388.46Z" style="fill:#39b54a;stroke:#3a3632;stroke-width:10px"/><path d="M579.28,387.6c-40.77-60.48-89.84-195.53-98.46-219.67a16.79,16.79,0,0,0-3.54-7.94c-5.39-6.7-14.62-8.22-20.61-3.4a12.43,12.43,0,0,0-2.21,2.32,17.05,17.05,0,0,0-3.06-5.79c-5.39-6.7-14.61-8.22-20.6-3.4a12.71,12.71,0,0,0-4.14,6.12A17.36,17.36,0,0,0,425,153.4c-5.39-6.7-14.62-8.22-20.6-3.4-5,4-6.15,11.15-3.29,17.29-5.39-4.1-12.61-4.5-17.6-.49-6,4.82-6.47,14.16-1.08,20.86a17,17,0,0,0,2,2.12,12.78,12.78,0,0,0-6.87,2.74c-6,4.82-6.47,14.15-1.08,20.85a17.11,17.11,0,0,0,5,4.23,12.14,12.14,0,0,0-2.75,1.66c-6,4.82-6.48,14.16-1.09,20.86a16.9,16.9,0,0,0,6.9,5.12c21.54,13.58,144,91.71,193.59,143.22Z" style="fill:#39b54a;stroke:#3a3632;stroke-width:10px"/><path d="M579.28,387.6c40.77-60.48,89.84-195.53,98.45-219.67a16.81,16.81,0,0,1,3.55-7.94c5.39-6.7,14.61-8.22,20.6-3.4a12.17,12.17,0,0,1,2.22,2.32,17,17,0,0,1,3-5.79c5.39-6.7,14.62-8.22,20.61-3.4a12.77,12.77,0,0,1,4.14,6.12,17.36,17.36,0,0,1,1.64-2.44c5.39-6.7,14.61-8.22,20.6-3.4,5,4,6.14,11.15,3.29,17.29,5.39-4.1,12.61-4.5,17.6-.49,6,4.82,6.47,14.16,1.08,20.86a17.77,17.77,0,0,1-2,2.12,12.72,12.72,0,0,1,6.86,2.74c6,4.82,6.48,14.15,1.09,20.85a17.11,17.11,0,0,1-5,4.23,12.36,12.36,0,0,1,2.75,1.66c6,4.82,6.47,14.16,1.08,20.86a16.83,16.83,0,0,1-6.9,5.12c-21.53,13.58-144,91.71-193.59,143.22Z" style="fill:#39b54a;stroke:#3a3632;stroke-width:10px"/><path d="M428,567.22c-42.2-74.69-83.52-240.68-90.71-270.35a18.27,18.27,0,0,0-28.73-14.31,18.39,18.39,0,0,0-3.15,2.8,18.1,18.1,0,0,0-3-7.14,18.26,18.26,0,0,0-31.62,2.86,18.26,18.26,0,0,0-27.16-7.56,18.27,18.27,0,0,0-6.78,21.07,18.29,18.29,0,0,0-26.67,24.54,17.86,17.86,0,0,0,2.24,2.63,18.26,18.26,0,0,0-7.94,33.94,18.64,18.64,0,0,0-3.73,2,18.27,18.27,0,0,0,3.38,31.85c25.1,17,167.68,114.82,222.34,178.71Z" style="fill:#39b54a;stroke:#3a3632;stroke-width:10px"/><path d="M426.77,567c-68-26.3-185.52-109-206.39-123.9a16.81,16.81,0,0,0-7.45-4.49c-8.25-2.41-16.69,1.61-18.85,9a12.5,12.5,0,0,0-.48,3.18,16.91,16.91,0,0,0-5.83-3c-8.25-2.41-16.68,1.61-18.84,9a12.73,12.73,0,0,0,.1,7.39,17.68,17.68,0,0,0-2.74-1.06c-8.25-2.41-16.69,1.61-18.85,9-1.79,6.14,1.34,12.66,7.2,16.07-6.77-.28-12.92,3.52-14.72,9.66-2.16,7.38,2.79,15.32,11,17.73a17.29,17.29,0,0,0,2.88.58,12.74,12.74,0,0,0-4.07,6.17c-2.16,7.38,2.79,15.32,11,17.73a17,17,0,0,0,6.52.6,12.76,12.76,0,0,0-1.3,2.94c-2.16,7.38,2.78,15.32,11,17.73a16.76,16.76,0,0,0,8.59.25c25.43-1.18,170.6-7.12,240.71,6.79Z" style="fill:#39b54a;stroke:#3a3632;stroke-width:10px"/><path d="M426.77,567c-1.14-72.92-38.12-211.78-44.86-236.51a16.94,16.94,0,0,1-1.63-8.54c.59-8.58,7.29-15.1,15-14.57a12.33,12.33,0,0,1,3.15.64,17,17,0,0,1-.81-6.5c.59-8.58,7.29-15.1,15-14.57a12.73,12.73,0,0,1,6.9,2.65,16.91,16.91,0,0,1-.06-2.94c.6-8.58,7.29-15.1,15-14.57,6.39.44,11.42,5.63,12.59,12.3,2.07-6.45,7.77-10.9,14.15-10.46,7.67.53,13.41,7.91,12.82,16.49a18.09,18.09,0,0,1-.45,2.9,12.75,12.75,0,0,1,7.19-1.68c7.67.53,13.41,7.91,12.82,16.49a17.09,17.09,0,0,1-1.69,6.33,12.62,12.62,0,0,1,3.2-.21c7.67.53,13.41,7.91,12.82,16.49a16.9,16.9,0,0,1-2.73,8.15c-9.91,23.45-65.71,157.6-76.91,228.2Z" style="fill:#39b54a;stroke:#3a3632;stroke-width:10px"/><path d="M848.58,459.41c56.48-64.57,199.4-158.57,225-175.18a18.28,18.28,0,0,0,4-31.85,17.84,17.84,0,0,0-3.69-2,18.27,18.27,0,0,0-7.42-34.07,19,19,0,0,0,2.28-2.59,18.28,18.28,0,0,0-26.28-25,18.28,18.28,0,0,0-32-17,18,18,0,0,0-1.74,3,18.27,18.27,0,0,0-34.66,3.75,18.26,18.26,0,0,0-32,10.9c-7.72,29.31-52.76,196.25-94.92,269Z" style="fill:#39b54a;stroke:#3a3632;stroke-width:10px"/><path d="M848.37,458.18c2.27-72.89,41.38-211.16,48.5-235.79a16.8,16.8,0,0,0,1.77-8.51c-.46-8.58-7.06-15.21-14.73-14.8a12.71,12.71,0,0,0-3.16.59,17.12,17.12,0,0,0,.91-6.49c-.46-8.58-7.06-15.21-14.73-14.8a12.74,12.74,0,0,0-6.94,2.55,16.88,16.88,0,0,0,.09-2.94c-.45-8.58-7.05-15.21-14.73-14.8-6.39.34-11.5,5.46-12.77,12.11-2-6.48-7.6-11-14-10.68-7.67.41-13.52,7.7-13.06,16.29a16.32,16.32,0,0,0,.41,2.91,12.75,12.75,0,0,0-7.18-1.79c-7.67.41-13.52,7.7-13.07,16.28a17.23,17.23,0,0,0,1.6,6.36,13.1,13.1,0,0,0-3.2-.26c-7.68.42-13.53,7.71-13.07,16.29a16.8,16.8,0,0,0,2.6,8.19c9.54,23.61,63.27,158.6,73.38,229.36Z" style="fill:#39b54a;stroke:#3a3632;stroke-width:10px"/><path d="M848.37,458.18c68.43-25.24,187.18-106.15,208.28-120.7a16.82,16.82,0,0,1,7.52-4.37c8.29-2.28,16.66,1.87,18.7,9.28a12.08,12.08,0,0,1,.44,3.19,17,17,0,0,1,5.87-2.92c8.29-2.29,16.66,1.87,18.7,9.28a12.73,12.73,0,0,1-.21,7.39,16.71,16.71,0,0,1,2.75-1c8.29-2.29,16.67,1.87,18.71,9.28,1.7,6.17-1.53,12.64-7.44,16,6.77-.18,12.86,3.71,14.56,9.88,2,7.42-3,15.28-11.31,17.56a16.29,16.29,0,0,1-2.89.53,12.78,12.78,0,0,1,4,6.24c2,7.41-3,15.27-11.31,17.55a17,17,0,0,1-6.54.5,12.57,12.57,0,0,1,1.26,3c2,7.41-3,15.27-11.31,17.56a16.82,16.82,0,0,1-8.59.12c-25.41-1.57-170.47-9.76-240.79,3.07Z" style="fill:#39b54a;stroke:#3a3632;stroke-width:10px"/><path d="M822,764.1c85.65-4.85,252.81,31.44,282.6,38.1a18.28,18.28,0,0,0,25.54-19.44,18.81,18.81,0,0,0-1.12-4.07,18.27,18.27,0,0,0,19.13-29.14,18.28,18.28,0,0,0,2.88-36.42,18.28,18.28,0,0,0-10.23-34.76,17.78,17.78,0,0,0-3.36.85,18.26,18.26,0,0,0-26.93-22.13,18.27,18.27,0,0,0-30.21-15.27c-26.34,15-177.1,99.68-258.57,120.48Z" style="fill:#39b54a;stroke:#3a3632;stroke-width:10px"/><path d="M822.73,763.09c53.65-49.4,179.79-118.23,202.36-130.38a16.88,16.88,0,0,0,7.31-4.7c5.81-6.34,5.93-15.69.27-20.88a12.4,12.4,0,0,0-2.64-1.84,17.15,17.15,0,0,0,5.27-3.89c5.81-6.34,5.93-15.69.26-20.88a12.7,12.7,0,0,0-6.67-3.18,16.82,16.82,0,0,0,2.16-2c5.81-6.33,5.93-15.68.27-20.88-4.72-4.32-11.95-4.39-17.6-.64,3.25-6,2.55-13.15-2.16-17.48-5.67-5.19-15-4.27-20.78,2.07a17,17,0,0,0-1.79,2.33,12.87,12.87,0,0,0-3.74-6.38c-5.67-5.19-15-4.27-20.78,2.07A16.91,16.91,0,0,0,961,542a12.35,12.35,0,0,0-2.06-2.47c-5.66-5.2-15-4.27-20.78,2.06a16.83,16.83,0,0,0-4,7.6c-10.18,23.33-69,156.19-112.47,212.93Z" style="fill:#39b54a;stroke:#3a3632;stroke-width:10px"/><path d="M822.73,763.09c65.92,31.21,206.82,59.4,232,64.29a16.81,16.81,0,0,1,8.39,2.31c7.43,4.32,10.32,13.21,6.46,19.85a12.66,12.66,0,0,1-2,2.55,16.94,16.94,0,0,1,6.19,2.14c7.43,4.32,10.33,13.21,6.46,19.86a12.75,12.75,0,0,1-5.43,5,17.37,17.37,0,0,1,2.66,1.25c7.44,4.32,10.33,13.21,6.46,19.86-3.21,5.53-10.09,7.75-16.6,5.85,4.87,4.71,6.35,11.79,3.13,17.32-3.86,6.65-13,8.53-20.45,4.21a16.74,16.74,0,0,1-2.41-1.69,12.67,12.67,0,0,1-1.67,7.2c-3.86,6.65-13,8.53-20.45,4.21a16.92,16.92,0,0,1-4.93-4.31,12.56,12.56,0,0,1-1.24,3c-3.86,6.64-13,8.53-20.45,4.21a16.88,16.88,0,0,1-6.1-6.06C976.1,914.88,880.42,805.54,822,764.3Z" style="fill:#39b54a;stroke:#3a3632;stroke-width:10px"/><path d="M553.62,736.81c-10.72-85.11,14-254.37,18.62-284.55a18.27,18.27,0,0,0-21.15-24.14,17.72,17.72,0,0,0-4,1.4,18.27,18.27,0,0,0-30.39-17.09,17.57,17.57,0,0,0-.42-3.43,18.28,18.28,0,0,0-36.11,3.06,18.28,18.28,0,0,0-34,12.59,18.54,18.54,0,0,0,1.08,3.28,18.27,18.27,0,0,0-20.23,28.4,18.26,18.26,0,0,0-13.15,31.18C430.68,512.76,525.5,657.35,551.85,737.2Z" style="fill:#39b54a;stroke:#3a3632;stroke-width:10px"/><path d="M552.57,736.15c-53-50.14-130.3-171.25-144-192.93a16.75,16.75,0,0,0-5.19-7c-6.72-5.36-16.05-4.83-20.85,1.17a12.77,12.77,0,0,0-1.65,2.76,17,17,0,0,0-4.25-5c-6.72-5.36-16.05-4.84-20.85,1.17a12.73,12.73,0,0,0-2.7,6.88,18,18,0,0,0-2.14-2c-6.72-5.36-16.05-4.83-20.84,1.17-4,5-3.57,12.23.56,17.6-6.16-2.83-13.29-1.64-17.28,3.36-4.8,6-3.24,15.23,3.48,20.59a18.28,18.28,0,0,0,2.45,1.63,12.83,12.83,0,0,0-6.11,4.16c-4.79,6-3.23,15.23,3.49,20.59a17,17,0,0,0,5.81,3,12.47,12.47,0,0,0-2.32,2.22c-4.79,6-3.23,15.23,3.49,20.59a16.77,16.77,0,0,0,7.85,3.49c24,8.56,160.56,58.12,220.15,97.59Z" style="fill:#39b54a;stroke:#3a3632;stroke-width:10px"/><path d="M552.57,736.15c26.61-67.91,45.06-210.41,48.21-235.85a16.84,16.84,0,0,1,1.73-8.52c3.8-7.71,12.47-11.21,19.37-7.81a13,13,0,0,1,2.67,1.79,17.1,17.1,0,0,1,1.71-6.32c3.81-7.71,12.48-11.21,19.37-7.81A12.68,12.68,0,0,1,651,476.7a16.52,16.52,0,0,1,1.07-2.74c3.8-7.71,12.47-11.21,19.36-7.81,5.74,2.83,8.43,9.54,7,16.16,4.37-5.18,11.33-7.14,17.07-4.31,6.89,3.4,9.4,12.41,5.6,20.12a16.59,16.59,0,0,1-1.52,2.51,12.8,12.8,0,0,1,7.3,1.18c6.9,3.4,9.4,12.4,5.6,20.11a17,17,0,0,1-4,5.22,12.26,12.26,0,0,1,3,1c6.9,3.39,9.41,12.4,5.61,20.11a16.8,16.8,0,0,1-5.62,6.5c-18.06,18-120.58,120.91-157.72,182Z" style="fill:#39b54a;stroke:#3a3632;stroke-width:10px"/><path d="M393.24,849.27C320.87,803.21,206.34,676.15,186,653.35a18.23,18.23,0,0,0-33.54,4.84A18.26,18.26,0,0,0,120,670.67a19.74,19.74,0,0,0-2.91-1.86,18.28,18.28,0,0,0-20.69,29.75A18.28,18.28,0,0,0,87.58,734a18,18,0,0,0-6.5,7.11,18.29,18.29,0,0,0,8,24.61,18.07,18.07,0,0,0,7.48,2,18,18,0,0,0-2.35,3.5,18.27,18.27,0,0,0,18,26.53c30.14,3.2,202,22.46,280.26,53.14Z" style="fill:#39b54a;stroke:#3a3632;stroke-width:10px"/><path d="M392.06,849.66c-72.4,8.79-215-9-240.41-12.28a16.8,16.8,0,0,0-8.69-.45c-8.41,1.75-14,9.27-12.4,16.8a13,13,0,0,0,1.07,3,17.07,17.07,0,0,0-6.56.08c-8.41,1.75-14,9.28-12.4,16.8a12.75,12.75,0,0,0,3.57,6.48,16.38,16.38,0,0,0-2.92.35c-8.42,1.75-14,9.27-12.4,16.8,1.3,6.26,7.13,10.54,13.9,10.79-6.11,2.94-9.74,9.18-8.44,15.45C108,931,116,935.72,124.46,934a18,18,0,0,0,2.81-.85,12.71,12.71,0,0,0-.68,7.36c1.56,7.53,9.66,12.21,18.07,10.46a17.1,17.1,0,0,0,6-2.54,12.41,12.41,0,0,0,.24,3.2c1.56,7.53,9.66,12.21,18.07,10.46a16.86,16.86,0,0,0,7.7-3.82c21.89-13,147.21-86.52,215.63-107.22Z" style="fill:#39b54a;stroke:#3a3632;stroke-width:10px"/><path d="M392.06,849.66c-35.3-63.82-133.24-169-150.82-187.62a16.85,16.85,0,0,1-5.45-6.77c-3.52-7.85-.67-16.76,6.34-19.9a12.41,12.41,0,0,1,3.09-.91,17,17,0,0,1-3.78-5.36c-3.51-7.85-.67-16.75,6.35-19.89a12.75,12.75,0,0,1,7.34-.91,16.8,16.8,0,0,1-1.43-2.57c-3.51-7.84-.67-16.75,6.34-19.89,5.85-2.62,12.73-.4,16.9,4.94-1.2-6.67,1.73-13.28,7.57-15.89,7-3.14,15.56.67,19.07,8.52a16.94,16.94,0,0,1,1,2.78,12.73,12.73,0,0,1,5.56-4.87c7-3.14,15.56.67,19.07,8.52a17,17,0,0,1,1.48,6.38,12.69,12.69,0,0,1,2.74-1.69c7-3.14,15.55.68,19.06,8.53a16.85,16.85,0,0,1,1.42,8.47c2.29,25.36,16.14,170,39.45,237.56Z" style="fill:#39b54a;stroke:#3a3632;stroke-width:10px"/><path d="M477.75,1311.57a247.12,247.12,0,0,0-1.37-52.09c-6.51-46.7-32.54-68.74-32.54-68.74,8.71-38.53,43.19-110.24,49.48-122.81a9.21,9.21,0,0,0,1.8-4.4c.63-4.7-2.27-9-6.48-9.54a6.56,6.56,0,0,0-1.77,0,9.54,9.54,0,0,0,1.16-3.43c.63-4.71-2.27-9-6.48-9.55a7,7,0,0,0-4,.67,9.17,9.17,0,0,0,.35-1.59c.64-4.7-2.26-9-6.47-9.54a7.86,7.86,0,0,0-8.18,5.26,7.89,7.89,0,0,0-6.5-7.24c-4.21-.56-8.14,2.8-8.77,7.51a9.83,9.83,0,0,0-.08,1.62,7,7,0,0,0-3.71-1.71c-4.21-.57-8.13,2.79-8.76,7.5a9.42,9.42,0,0,0,.21,3.61,7,7,0,0,0-1.71-.46c-4.21-.57-8.14,2.79-8.77,7.5a9.21,9.21,0,0,0,.6,4.76c2.8,13.75,17.9,89.53,16.26,130.1-20.32-43.25-36.8-133.78-39.67-150.23a10.1,10.1,0,0,0-15.33-8.92,10.45,10.45,0,0,0-1.84,1.44,10.09,10.09,0,0,0-18.92-3.6,9.71,9.71,0,0,0-.83-1.72,10.1,10.1,0,0,0-18.37,8,10.1,10.1,0,0,0-15.57,12.58,9.66,9.66,0,0,0,1.14,1.53,10.09,10.09,0,0,0-5.59,18.43,10.65,10.65,0,0,0-2.13,1,10.1,10.1,0,0,0,.73,17.69c13.09,10.16,86.25,67.52,114.79,104.75-36.69-17.4-96.89-65.78-107.76-74.64a9.14,9.14,0,0,0-3.94-2.74c-4.47-1.63-9.26.29-10.72,4.28a7.64,7.64,0,0,0-.38,1.74,9.38,9.38,0,0,0-3.1-1.87c-4.46-1.62-9.26.3-10.71,4.29a7,7,0,0,0-.21,4.08,9,9,0,0,0-1.47-.69c-4.46-1.62-9.26.3-10.71,4.29a7.86,7.86,0,0,0,3.39,9.11,7.89,7.89,0,0,0-8.46,4.81c-1.45,4,1,8.54,5.45,10.16a10.19,10.19,0,0,0,1.57.43,7,7,0,0,0-2.46,3.25c-1.45,4,1,8.55,5.45,10.17a9.39,9.39,0,0,0,3.58.57,6.73,6.73,0,0,0-.83,1.57c-1.45,4,1,8.54,5.46,10.17a9.31,9.31,0,0,0,4.72.45c14.06.25,93.49,3,131.67,13.2,0,0,28.54,37.09,34.26,68.48S477.75,1311.57,477.75,1311.57Z" style="fill:#39b54a;stroke:#3a3632;stroke-width:10px"/><path d="M430.3,1762.35a247,247,0,0,0-1.37-52.08c-6.51-46.71-32.54-68.75-32.54-68.75,8.71-38.53,43.19-110.24,49.49-122.81a9.3,9.3,0,0,0,1.79-4.4c.64-4.7-2.26-9-6.47-9.54a6.63,6.63,0,0,0-1.78,0,9.54,9.54,0,0,0,1.16-3.43c.63-4.71-2.27-9-6.48-9.55a7,7,0,0,0-4,.67,10.21,10.21,0,0,0,.36-1.59c.63-4.7-2.27-9-6.48-9.54a7.87,7.87,0,0,0-8.18,5.26,7.88,7.88,0,0,0-6.5-7.23c-4.21-.57-8.14,2.79-8.77,7.5a9.81,9.81,0,0,0-.07,1.62,7.11,7.11,0,0,0-3.71-1.71c-4.21-.57-8.14,2.79-8.77,7.5a9.42,9.42,0,0,0,.21,3.61,7,7,0,0,0-1.71-.46c-4.21-.57-8.14,2.79-8.77,7.5a9.26,9.26,0,0,0,.6,4.77c2.8,13.74,17.9,89.52,16.27,130.09-20.33-43.25-36.81-133.78-39.68-150.23a10.1,10.1,0,0,0-15.33-8.92,10.45,10.45,0,0,0-1.84,1.44,10.09,10.09,0,0,0-18.92-3.6,10.81,10.81,0,0,0-.82-1.72,10.1,10.1,0,0,0-18.37,8A10.1,10.1,0,0,0,284,1497.29a10.31,10.31,0,0,0,1.14,1.53,10.09,10.09,0,0,0-8.53,15.33,9.93,9.93,0,0,0,2.94,3.1,10.32,10.32,0,0,0-2.12,1,10.1,10.1,0,0,0,.72,17.69c13.09,10.16,86.25,67.52,114.8,104.75-36.7-17.4-96.9-65.78-107.76-74.64a9.23,9.23,0,0,0-3.95-2.74c-4.46-1.63-9.26.29-10.71,4.28a6.7,6.7,0,0,0-.38,1.74,9.42,9.42,0,0,0-3.11-1.87c-4.46-1.62-9.26.3-10.71,4.29a7,7,0,0,0-.21,4.08,9,9,0,0,0-1.47-.69c-4.46-1.62-9.26.3-10.71,4.29a7.86,7.86,0,0,0,3.39,9.11,7.89,7.89,0,0,0-8.46,4.81c-1.45,4,1,8.54,5.46,10.16a10.07,10.07,0,0,0,1.56.43,7,7,0,0,0-2.46,3.25c-1.45,4,1,8.55,5.45,10.17a9.42,9.42,0,0,0,3.58.57,6.69,6.69,0,0,0-.82,1.57c-1.46,4,1,8.55,5.45,10.17a9.34,9.34,0,0,0,4.73.45c14.06.25,93.49,3,131.66,13.2,0,0,28.54,37.09,34.26,68.48S430.3,1762.35,430.3,1762.35Z" style="fill:#39b54a;stroke:#3a3632;stroke-width:10px"/><path d="M698.59,1494.41a246.33,246.33,0,0,1,1.37-52.09c6.51-46.7,32.53-68.74,32.53-68.74-8.7-38.53-43.18-110.24-49.48-122.81a9.41,9.41,0,0,1-1.8-4.4c-.63-4.71,2.27-9,6.48-9.55a7.07,7.07,0,0,1,1.78,0,9.41,9.41,0,0,1-1.16-3.43c-.63-4.7,2.27-9,6.48-9.54a7,7,0,0,1,4,.67,10.2,10.2,0,0,1-.35-1.59c-.63-4.71,2.27-9,6.48-9.55a7.88,7.88,0,0,1,8.18,5.27,7.87,7.87,0,0,1,6.5-7.24c4.21-.56,8.13,2.8,8.76,7.5a9,9,0,0,1,.08,1.63,7,7,0,0,1,3.71-1.71c4.21-.57,8.14,2.79,8.77,7.5a9.24,9.24,0,0,1-.22,3.61,7.05,7.05,0,0,1,1.72-.47c4.21-.56,8.13,2.8,8.76,7.5a9.35,9.35,0,0,1-.59,4.77c-2.81,13.75-17.9,89.53-16.27,130.09,20.32-43.24,36.8-133.77,39.68-150.22a9.91,9.91,0,0,1,1.45-5.5,10.1,10.1,0,0,1,13.88-3.42,9.61,9.61,0,0,1,1.83,1.44,10.1,10.1,0,0,1,15.26-7.46,10,10,0,0,1,3.66,3.86,9.71,9.71,0,0,1,.83-1.72,10.1,10.1,0,0,1,18.37,8,10.1,10.1,0,0,1,15.58,12.58,10.86,10.86,0,0,1-1.14,1.53,10.09,10.09,0,0,1,5.59,18.43,9.81,9.81,0,0,1,2.12,1,10.08,10.08,0,0,1-.73,17.68c-13.08,10.17-86.24,67.52-114.79,104.76,36.7-17.4,96.89-65.79,107.76-74.64a9.23,9.23,0,0,1,3.95-2.74c4.46-1.63,9.26.29,10.71,4.28a6.61,6.61,0,0,1,.38,1.74,9.31,9.31,0,0,1,3.1-1.87c4.47-1.62,9.26.29,10.72,4.29a7.08,7.08,0,0,1,.2,4.07,10,10,0,0,1,1.48-.68c4.46-1.63,9.25.29,10.71,4.29a7.87,7.87,0,0,1-3.4,9.11,7.88,7.88,0,0,1,8.46,4.8c1.46,4-1,8.55-5.45,10.17a8.89,8.89,0,0,1-1.57.42,7,7,0,0,1,2.46,3.26c1.46,4-1,8.55-5.45,10.17a9.32,9.32,0,0,1-3.57.56,7.39,7.39,0,0,1,.82,1.58c1.45,4-1,8.54-5.45,10.17a9.22,9.22,0,0,1-4.73.44c-14.06.26-93.49,3-131.66,13.21,0,0-28.54,37.08-34.26,68.48S698.59,1494.41,698.59,1494.41Z" style="fill:#39b54a;stroke:#3a3632;stroke-width:10px"/><path d="M660.25,903.87a457.46,457.46,0,0,1,2.54-96.65c12.08-86.67,60.38-127.57,60.38-127.57C707,608.15,643,475.08,631.34,451.75a17.33,17.33,0,0,1-3.34-8.16c-1.17-8.73,4.21-16.66,12-17.71a12.94,12.94,0,0,1,3.29,0,17.36,17.36,0,0,1-2.15-6.36c-1.17-8.74,4.21-16.67,12-17.72a13.1,13.1,0,0,1,7.48,1.24,17.46,17.46,0,0,1-.66-2.94c-1.17-8.73,4.21-16.66,12-17.71,6.5-.88,12.63,3.3,15.18,9.76.75-6.9,5.56-12.55,12.06-13.42,7.81-1.05,15.1,5.18,16.27,13.92a17,17,0,0,1,.14,3,13,13,0,0,1,6.89-3.17c7.81-1.05,15.09,5.18,16.27,13.92a17.57,17.57,0,0,1-.4,6.7,12.86,12.86,0,0,1,3.18-.86c7.81-1.05,15.09,5.18,16.27,13.92a17.24,17.24,0,0,1-1.11,8.84c-5.21,25.51-33.22,166.14-30.19,241.41,37.72-80.24,68.3-248.25,73.63-278.77a18.74,18.74,0,0,1,28.45-16.55,19,19,0,0,1,3.4,2.66,18.73,18.73,0,0,1,35.12-6.67,19.1,19.1,0,0,1,1.53-3.2,18.75,18.75,0,0,1,34.09,14.78,18.74,18.74,0,0,1,26.79,26.18A18.72,18.72,0,0,1,940,449a18.74,18.74,0,0,1,2.59,34.61C918.28,502.5,782.52,608.94,729.55,678c68.09-32.3,179.8-122.08,200-138.52a17.17,17.17,0,0,1,7.33-5.08c8.28-3,17.18.54,19.88,7.95a13.08,13.08,0,0,1,.7,3.22,17.36,17.36,0,0,1,5.76-3.46c8.28-3,17.18.54,19.88,8a13,13,0,0,1,.38,7.57,17.58,17.58,0,0,1,2.74-1.27c8.28-3,17.18.54,19.88,8,2.24,6.17-.53,13-6.3,16.92,6.91-.74,13.45,2.74,15.7,8.91,2.69,7.41-1.84,15.85-10.12,18.87a18.45,18.45,0,0,1-2.91.78,13.1,13.1,0,0,1,4.57,6c2.69,7.4-1.84,15.85-10.12,18.87a17.6,17.6,0,0,1-6.64,1,12.89,12.89,0,0,1,1.53,2.92c2.7,7.41-1.83,15.86-10.12,18.87a17.19,17.19,0,0,1-8.77.83c-26.09.48-173.49,5.64-244.33,24.5,0,0-53,68.83-63.58,127.09S660.25,903.87,660.25,903.87Z" style="fill:#39b54a;stroke:#3a3632;stroke-width:10px"/><path d="M554.13,1153.22a458.35,458.35,0,0,0-2.54-96.66C539.51,969.89,491.21,929,491.21,929c16.16-71.51,80.14-204.57,91.82-227.91a17.23,17.23,0,0,0,3.34-8.15c1.17-8.74-4.21-16.67-12-17.72a13,13,0,0,0-3.3,0,17.6,17.6,0,0,0,2.16-6.37c1.17-8.73-4.21-16.66-12-17.71a13.07,13.07,0,0,0-7.47,1.24,18.5,18.5,0,0,0,.66-2.94c1.17-8.74-4.21-16.67-12-17.72-6.5-.87-12.62,3.31-15.17,9.77-.76-6.91-5.56-12.55-12.07-13.42C507.29,627,500,633.25,498.83,642a19.19,19.19,0,0,0-.14,3,13.18,13.18,0,0,0-6.88-3.17c-7.81-1.05-15.1,5.19-16.27,13.92a17.41,17.41,0,0,0,.4,6.71,13.12,13.12,0,0,0-3.18-.87c-7.81-1.05-15.1,5.19-16.27,13.92a17.29,17.29,0,0,0,1.11,8.85c5.2,25.51,33.21,166.14,30.18,241.41C450.07,845.51,419.49,677.51,414.15,647a18.73,18.73,0,0,0-28.44-16.55,18.33,18.33,0,0,0-3.41,2.66,18.73,18.73,0,0,0-35.11-6.68A18.75,18.75,0,0,0,311.56,638a18.74,18.74,0,0,0-26.78,26.18,18.73,18.73,0,0,0-10.38,34.2,19.26,19.26,0,0,0-3.94,1.78A18.73,18.73,0,0,0,271.81,733c24.29,18.86,160.05,125.3,213,194.39-68.1-32.29-179.8-122.08-200-138.51a17.24,17.24,0,0,0-7.32-5.09c-8.29-3-17.19.55-19.88,8A12.47,12.47,0,0,0,257,795a17.45,17.45,0,0,0-5.76-3.47c-8.28-3-17.18.55-19.87,8a13.07,13.07,0,0,0-.39,7.57,18.91,18.91,0,0,0-2.73-1.27c-8.28-3-17.18.55-19.88,8-2.24,6.16.53,13,6.3,16.91-6.91-.74-13.46,2.75-15.7,8.91-2.7,7.41,1.83,15.86,10.12,18.87a17.22,17.22,0,0,0,2.91.79,13,13,0,0,0-4.57,6c-2.7,7.41,1.83,15.86,10.11,18.87a17.45,17.45,0,0,0,6.64,1,12.87,12.87,0,0,0-1.53,2.92c-2.69,7.41,1.84,15.85,10.12,18.87a17.31,17.31,0,0,0,8.77.83c26.1.48,173.5,5.63,244.33,24.5,0,0,53,68.82,63.58,127.09S554.13,1153.22,554.13,1153.22Z" style="fill:#39b54a;stroke:#3a3632;stroke-width:10px"/><path d="M617.3,1250.76a457.46,457.46,0,0,1,2.54-96.65c12.07-86.67,60.38-127.57,60.38-127.57C664.06,955,600.07,822,588.39,798.64a17.23,17.23,0,0,1-3.34-8.15c-1.17-8.74,4.21-16.67,12-17.72a12.5,12.5,0,0,1,3.29,0,17.47,17.47,0,0,1-2.15-6.37c-1.17-8.74,4.21-16.67,12-17.72a13.12,13.12,0,0,1,7.48,1.25,17.8,17.8,0,0,1-.66-2.95c-1.17-8.73,4.21-16.66,12-17.71,6.5-.88,12.63,3.3,15.18,9.77.75-6.91,5.56-12.56,12.06-13.43,7.81-1.05,15.1,5.18,16.27,13.92a17,17,0,0,1,.14,3,13,13,0,0,1,6.89-3.17c7.81-1,15.09,5.18,16.26,13.92a17.44,17.44,0,0,1-.39,6.71,12.46,12.46,0,0,1,3.18-.87c7.81-1,15.09,5.18,16.27,13.92a17.24,17.24,0,0,1-1.11,8.84c-5.21,25.51-33.22,166.14-30.19,241.42,37.71-80.25,68.29-248.25,73.63-278.77a18.69,18.69,0,0,1,31.85-13.89A18.73,18.73,0,0,1,824.24,724a19.1,19.1,0,0,1,1.53-3.2,18.75,18.75,0,0,1,34.09,14.78,18.75,18.75,0,0,1,28.91,23.34,18.41,18.41,0,0,1-2.12,2.84A18.74,18.74,0,0,1,897,795.94a18.24,18.24,0,0,1,3.94,1.78,18.74,18.74,0,0,1-1.35,32.82c-24.29,18.85-160,125.29-213,194.39,68.1-32.3,179.81-122.08,200-138.52a17.35,17.35,0,0,1,7.33-5.08c8.28-3,17.18.55,19.88,7.95a13.08,13.08,0,0,1,.7,3.22,17.36,17.36,0,0,1,5.76-3.46c8.28-3,17.18.54,19.88,8a13.07,13.07,0,0,1,.38,7.57,17.58,17.58,0,0,1,2.74-1.27c8.28-3,17.18.54,19.87,8,2.25,6.17-.52,13-6.29,16.92,6.91-.74,13.45,2.74,15.69,8.91,2.7,7.41-1.83,15.86-10.11,18.87a18.45,18.45,0,0,1-2.91.78,13.17,13.17,0,0,1,4.57,6c2.69,7.41-1.84,15.85-10.12,18.87a17.4,17.4,0,0,1-6.64,1,12.75,12.75,0,0,1,1.53,2.93c2.7,7.4-1.83,15.85-10.12,18.87a17.3,17.3,0,0,1-8.77.82c-26.09.48-173.49,5.64-244.33,24.5,0,0-53,68.83-63.58,127.09S617.3,1250.76,617.3,1250.76Z" style="fill:#39b54a;stroke:#3a3632;stroke-width:10px"/></svg>