<svg id="Layer_1" data-name="Layer 1" xmlns="http://www.w3.org/2000/svg" width="2000" height="2000" viewBox="0 0 2000 2000"><circle cx="1000" cy="1000" r="941.5" style="fill:#fff;stroke:#231f20;stroke-linecap:round;stroke-linejoin:round;stroke-width:55px"/><rect x="850.56" y="1149.44" width="298.89" height="298.89" style="fill:none"/><rect x="551.67" y="850.56" width="298.89" height="298.89" style="fill:none"/><rect x="1149.44" y="850.56" width="298.89" height="298.89" style="fill:none"/><rect x="850.56" y="551.67" width="298.89" height="298.89" style="fill:none"/><path d="M630,252.78h220.6V179.51A827.21,827.21,0,0,0,630,252.78Z" style="fill:#2d9e48"/><path d="M1149.44,179.51v73.27H1370A827.21,827.21,0,0,0,1149.44,179.51Z" style="fill:#2d9e48"/><path d="M179.53,850.56h73.25V630A827,827,0,0,0,179.53,850.56Z" style="fill:#2d9e48"/><path d="M297.15,551.67H551.67V297.14A840.4,840.4,0,0,0,297.15,551.67Z" style="fill:#2d9e48"/><rect x="551.67" y="551.67" width="298.89" height="298.89" style="fill:#2d9e48"/><rect x="850.56" y="252.78" width="298.89" height="298.89" style="fill:#2d9e48"/><rect x="1149.44" y="551.67" width="298.89" height="298.89" style="fill:#2d9e48"/><path d="M1448.33,297.14V551.67h254.52A840.4,840.4,0,0,0,1448.33,297.14Z" style="fill:#2d9e48"/><path d="M252.78,1370V1149.44H179.53A827,827,0,0,0,252.78,1370Z" style="fill:#2d9e48"/><rect x="252.78" y="850.56" width="298.89" height="298.89" style="fill:#2d9e48"/><rect x="551.67" y="1149.44" width="298.89" height="298.89" style="fill:#2d9e48"/><rect x="850.56" y="850.56" width="298.89" height="298.89" style="fill:#2d9e48"/><rect x="1149.44" y="1149.44" width="298.89" height="298.89" style="fill:#2d9e48"/><rect x="1448.33" y="850.56" width="298.89" height="298.89" style="fill:#2d9e48"/><path d="M551.67,1702.86V1448.33H297.15A840.4,840.4,0,0,0,551.67,1702.86Z" style="fill:#2d9e48"/><rect x="850.56" y="1448.33" width="298.89" height="298.89" style="fill:#2d9e48"/><path d="M1702.85,1448.33H1448.33v254.53A840.4,840.4,0,0,0,1702.85,1448.33Z" style="fill:#2d9e48"/><path d="M850.56,1820.49v-73.27H630A827.21,827.21,0,0,0,850.56,1820.49Z" style="fill:#2d9e48"/><path d="M1370,1747.22h-220.6v73.27A827.21,827.21,0,0,0,1370,1747.22Z" style="fill:#2d9e48"/><path d="M1747.22,630V850.56h73.25A827,827,0,0,0,1747.22,630Z" style="fill:#2d9e48"/><path d="M1820.47,1149.44h-73.25V1370A827,827,0,0,0,1820.47,1149.44Z" style="fill:#2d9e48"/></svg>