<svg id="Layer_1" data-name="Layer 1" xmlns="http://www.w3.org/2000/svg" xmlns:xlink="http://www.w3.org/1999/xlink" viewBox="0 0 1430 2000"><defs><clipPath id="clip-path"><path id="path900" d="M45.55,1501.54V489.36c0,76,300.07,160.37,670.23,160.37s668.67-84.18,668.67-160.37V1501.54c0,76.19-298.51,194.71-668.67,194.71S45.55,1577.53,45.55,1501.54Z" style="fill:none"/></clipPath></defs><path id="path900-2" data-name="path900" d="M45.55,1760.45V228.93c479.13,186.06,882.14,177.72,1338.9,0V1760.45h0c0,76.18-298.51,194.7-668.67,194.7S45.55,1836.44,45.55,1760.45Z" style="fill:#929497;stroke:#3a3632;stroke-linecap:round;stroke-linejoin:round;stroke-width:20px"/><path id="path900-3" data-name="path900" d="M45.55,1501.54V489.36c0,76,300.07,160.37,670.23,160.37s668.67-84.18,668.67-160.37V1501.54c0,76.19-298.51,194.71-668.67,194.71S45.55,1577.53,45.55,1501.54Z" style="fill:#fff;stroke:#3a3632;stroke-linecap:round;stroke-linejoin:round;stroke-width:20px"/><path id="path900-4" data-name="path900" d="M1384.45,228.93c0,76.18-298.51,160.36-668.67,160.36S45.55,304.92,45.55,228.93,344,55.15,714.12,55.15,1384.45,152.74,1384.45,228.93Z" style="fill:#d0d2d3;stroke:#3a3632;stroke-linecap:round;stroke-linejoin:round;stroke-width:20px"/><g style="clip-path:url(#clip-path)"><path d="M115,1089.27c6-48-23.11-86.92-65.41-87.59-41.82-.65-64.92,36.23-70.08,82.43s11,67.78,51.88,70.2C72.72,1156.76,108.92,1137.23,115,1089.27Z" style="fill:#ffc935;stroke:#3a3632;stroke-miterlimit:10;stroke-width:10px"/><path d="M179.41,1078.47c6.55-49-23.12-88.19-66.06-88.31-42.45-.11-66.08,37.53-71.72,84.44s10.36,68.72,51.89,70.86C135.52,1147.63,172.88,1127.41,179.41,1078.47Z" style="fill:#ffc935;stroke:#3a3632;stroke-miterlimit:10;stroke-width:10px"/><path d="M246.41,1066.94c7.05-50.08-23.58-89.6-67.74-89.23-43.66.36-68.1,38.8-74.26,86.54s10,69.82,52.73,71.7C200.37,1137.85,239.37,1116.92,246.41,1066.94Z" style="fill:#ffc935;stroke:#3a3632;stroke-miterlimit:10;stroke-width:10px"/><path d="M316.69,1054.77c7.54-51.14-24.5-91.1-70.41-90.34-45.38.75-70.88,40-77.56,88.66s9.84,71.05,54.35,72.69C268.1,1127.44,309.17,1105.81,316.69,1054.77Z" style="fill:#ffc935;stroke:#3a3632;stroke-miterlimit:10;stroke-width:10px"/><path d="M391,1042.1c7.95-52.17-25.91-92.66-74-91.62-47.57,1-74.32,41.06-81.53,90.67s9.93,72.39,56.75,73.83C339.49,1116.44,383,1094.16,391,1042.1Z" style="fill:#ffc935;stroke:#3a3632;stroke-miterlimit:10;stroke-width:10px"/><path d="M469.7,1029.15c8.22-53.11-27.84-94.22-78.56-93.08-50.13,1.13-78.28,41.88-86,92.46s10.29,73.79,59.89,75.11C415.22,1105,461.5,1082.15,469.7,1029.15Z" style="fill:#ffc935;stroke:#3a3632;stroke-miterlimit:10;stroke-width:10px"/><path d="M553.18,1016.25c8.27-53.9-30.24-95.74-83.81-94.72-52.93,1-82.52,42.34-90.64,93.86s11,75.18,63.7,76.5C495.8,1093.22,544.93,1070.05,553.18,1016.25Z" style="fill:#ffc935;stroke:#3a3632;stroke-miterlimit:10;stroke-width:10px"/><path d="M641.26,1003.82c8-54.5-33-97.18-89.5-96.57C496,907.86,465,949.58,456.62,1002s12,76.53,68,78C581.44,1081.46,633.26,1058.21,641.26,1003.82Z" style="fill:#ffc935;stroke:#3a3632;stroke-miterlimit:10;stroke-width:10px"/><path d="M733.27,992.36c7.45-54.88-36.07-98.52-95.18-98.64-58.41-.12-90.57,41.76-99,94.85s13.34,77.77,72.69,79.65C671.85,1070.11,725.85,1047.11,733.27,992.36Z" style="fill:#ffc935;stroke:#3a3632;stroke-miterlimit:10;stroke-width:10px"/><path d="M828,982.29c6.56-55-39-99.73-100.24-100.89-60.53-1.14-93.48,40.63-101.66,94.26s15,78.85,77.18,81.4C766.14,1059.63,821.44,1037.21,828,982.29Z" style="fill:#ffc935;stroke:#3a3632;stroke-miterlimit:10;stroke-width:10px"/><path d="M923.78,973.9c5.51-55-41.4-100.78-104.06-103.18-61.9-2.38-95.13,39-102.72,93s17,79.76,81,83.21C862.77,1050.42,918.28,1028.8,923.78,973.9Z" style="fill:#ffc935;stroke:#3a3632;stroke-miterlimit:10;stroke-width:10px"/><path d="M1019.05,967.16c4.48-54.88-43.07-101.57-106.25-105.29-62.4-3.67-95.35,37.22-102,91.33s19,80.47,83.63,85C959.85,1042.68,1014.58,1021.92,1019.05,967.16Z" style="fill:#ffc935;stroke:#3a3632;stroke-miterlimit:10;stroke-width:10px"/><path d="M1112.58,961.83c3.62-54.64-43.93-102.06-106.82-107-62.11-4.86-94.28,35.44-99.9,89.56s20.69,81,84.87,86.42C1055.71,1036.34,1109,1016.35,1112.58,961.83Z" style="fill:#ffc935;stroke:#3a3632;stroke-miterlimit:10;stroke-width:10px"/><path d="M1203.73,957.52c3-54.36-44.08-102.26-106.09-108.14-61.25-5.8-92.34,34-96.87,88s21.92,81.26,84.78,87.47C1149.2,1031.13,1200.74,1011.77,1203.73,957.52Z" style="fill:#ffc935;stroke:#3a3632;stroke-miterlimit:10;stroke-width:10px"/><path d="M1292.43,953.78c2.68-54.1-43.67-102.23-104.56-108.73-60.12-6.42-90,33-93.62,86.83s22.6,81.31,83.72,88C1239.86,1026.71,1289.76,1007.76,1292.43,953.78Z" style="fill:#ffc935;stroke:#3a3632;stroke-miterlimit:10;stroke-width:10px"/><path d="M1379.22,950.11c2.7-53.93-42.94-102.07-102.79-108.8-59.08-6.65-88,32.52-90.88,86.21s22.8,81.17,82.17,88.13C1327.85,1022.69,1376.53,1003.92,1379.22,950.11Z" style="fill:#ffc935;stroke:#3a3632;stroke-miterlimit:10;stroke-width:10px"/><path d="M1465.14,946c3.11-53.93-42.11-101.9-101.34-108.45-58.48-6.47-86.7,32.73-89.24,86.26s22.58,80.92,80.58,87.85C1413.88,1018.67,1462,999.81,1465.14,946Z" style="fill:#ffc935;stroke:#3a3632;stroke-miterlimit:10;stroke-width:10px"/><path d="M111.83,1224.18c4.78-48.44-24.75-89.29-66.28-91.42-41.07-2.11-63.32,34.43-67.78,80.73s11.88,68.54,52.6,72.71C71.55,1290.43,107.05,1272.52,111.83,1224.18Z" style="fill:#ffc935;stroke:#3a3632;stroke-miterlimit:10;stroke-width:10px"/><path d="M175.52,1216.38c5.12-49.65-25.13-91.19-67.41-93C66.3,1121.58,43.65,1159,39,1206.14s11.65,69.82,53,74C133.81,1284.36,170.41,1265.93,175.52,1216.38Z" style="fill:#ffc935;stroke:#3a3632;stroke-miterlimit:10;stroke-width:10px"/><path d="M241.81,1208.09c5.51-51-25.88-93.29-69.51-94.81-43.13-1.49-66.5,36.81-71.5,85s11.61,71.3,54.22,75.47C198.11,1278,236.31,1259,241.81,1208.09Z" style="fill:#ffc935;stroke:#3a3632;stroke-miterlimit:10;stroke-width:10px"/><path d="M311.53,1199.31c5.94-52.36-27-95.55-72.55-96.8-45-1.24-69.39,38.06-74.75,87.43s11.73,73,56.15,77.13C265.32,1271.27,305.59,1251.57,311.53,1199.31Z" style="fill:#ffc935;stroke:#3a3632;stroke-miterlimit:10;stroke-width:10px"/><path d="M385.43,1190.07c6.39-53.81-28.53-97.93-76.5-99-47.41-1-73.06,39.31-78.83,90s12,74.81,58.82,78.93C336.25,1264.15,379.05,1243.77,385.43,1190.07Z" style="fill:#ffc935;stroke:#3a3632;stroke-miterlimit:10;stroke-width:10px"/><path d="M464.14,1180.44c6.81-55.23-30.43-100.34-81.28-101.28-50.26-.93-77.4,40.46-83.62,92.44s12.51,76.76,62.17,80.87C411.66,1256.62,457.34,1235.55,464.14,1180.44Z" style="fill:#ffc935;stroke:#3a3632;stroke-miterlimit:10;stroke-width:10px"/><path d="M548.07,1170.55c7.14-56.55-32.7-102.68-86.76-103.66-53.43-1-82.23,41.42-88.9,94.77s13.19,78.78,66.15,82.89C492.15,1248.7,540.94,1227,548.07,1170.55Z" style="fill:#ffc935;stroke:#3a3632;stroke-miterlimit:10;stroke-width:10px"/><path d="M637.2,1160.64c7.3-57.67-35.22-104.86-92.63-106.08-56.73-1.2-87.24,42-94.32,96.76s14.09,80.8,70.61,84.94C578,1240.45,629.91,1218.19,637.2,1160.64Z" style="fill:#ffc935;stroke:#3a3632;stroke-miterlimit:10;stroke-width:10px"/><path d="M730.93,1151c7.2-58.49-37.81-106.73-98.39-108.46-59.85-1.7-92,42.21-99.35,98.17s15.21,82.73,75.25,87C669.2,1232,723.73,1209.38,730.93,1151Z" style="fill:#ffc935;stroke:#3a3632;stroke-miterlimit:10;stroke-width:10px"/><path d="M827.9,1142c6.81-58.93-40.16-108.17-103.32-110.69-62.4-2.49-95.78,41.79-103.29,98.82s16.53,84.42,79.64,88.86C764.81,1223.52,821.1,1200.84,827.9,1142Z" style="fill:#ffc935;stroke:#3a3632;stroke-miterlimit:10;stroke-width:10px"/><path d="M926.12,1134c6.19-59-41.88-109.08-106.65-112.63-64-3.5-98.08,40.81-105.43,98.62s18,85.78,83.15,90.53C863.18,1215.31,919.93,1192.84,926.12,1134Z" style="fill:#ffc935;stroke:#3a3632;stroke-miterlimit:10;stroke-width:10px"/><path d="M1023.55,1126.89c5.53-58.71-42.75-109.39-107.94-114-64.39-4.58-98.5,39.45-105.38,97.69s19.34,86.67,85.17,91.83C962.05,1207.58,1018,1185.48,1023.55,1126.89Z" style="fill:#ffc935;stroke:#3a3632;stroke-miterlimit:10;stroke-width:10px"/><path d="M1118.73,1120.68c4.9-58.19-42.83-109.15-107.37-114.79-63.75-5.58-97.18,38-103.36,96.31s20.4,87.06,85.5,92.59C1059.42,1200.39,1113.84,1178.75,1118.73,1120.68Z" style="fill:#ffc935;stroke:#3a3632;stroke-miterlimit:10;stroke-width:10px"/><path d="M1210.91,1115.15c4.4-57.53-42.34-108.47-105.49-114.88-62.37-6.34-94.66,36.61-100.06,94.74s21,87,84.42,92.79C1154,1193.71,1206.52,1172.55,1210.91,1115.15Z" style="fill:#ffc935;stroke:#3a3632;stroke-miterlimit:10;stroke-width:10px"/><path d="M1300,1110.06c4.08-56.81-41.52-107.49-103-114.4-60.66-6.82-91.62,35.53-96.31,93.22s21.13,86.43,82.47,92.47C1245.35,1187.46,1296,1166.74,1300,1110.06Z" style="fill:#ffc935;stroke:#3a3632;stroke-miterlimit:10;stroke-width:10px"/><path d="M1386.57,1105.15c4-56.13-40.61-106.38-100.4-113.49-59-7-88.74,34.81-92.86,91.91s21,85.61,80.21,91.74C1333.53,1181.51,1382.61,1161.15,1386.57,1105.15Z" style="fill:#ffc935;stroke:#3a3632;stroke-miterlimit:10;stroke-width:10px"/><path d="M1471.61,1100.13c4.11-55.58-39.81-105.29-98.42-112.3-57.85-6.91-86.57,34.5-90.33,90.95s20.56,84.66,78.12,90.76C1419.28,1175.72,1467.51,1155.57,1471.61,1100.13Z" style="fill:#ffc935;stroke:#3a3632;stroke-miterlimit:10;stroke-width:10px"/><path d="M113.6,1365.5c3.36-48.06-27.2-90.7-68.47-94.73-40.81-4-62.22,31.8-65.84,77.86s13.2,68.81,54.25,74.76C75,1429.4,110.24,1413.47,113.6,1365.5Z" style="fill:#ffc935;stroke:#3a3632;stroke-miterlimit:10;stroke-width:10px"/><path d="M177.1,1361.23c3.48-49.27-28-92.91-70.07-96.91-41.61-4-63.21,32.61-66.78,79.56s13.39,70.18,55.06,76.42C137.46,1426.61,173.63,1410.4,177.1,1361.23Z" style="fill:#ffc935;stroke:#3a3632;stroke-miterlimit:10;stroke-width:10px"/><path d="M243.17,1356.84c3.69-50.61-29.11-95.36-72.59-99.32-43-3.91-65.14,33.55-68.75,81.55s13.71,71.79,56.61,78.28C201.82,1423.92,239.48,1407.35,243.17,1356.84Z" style="fill:#ffc935;stroke:#3a3632;stroke-miterlimit:10;stroke-width:10px"/><path d="M312.63,1352.24c4-52.06-30.5-98-75.95-101.91-44.94-3.87-68,34.62-71.73,83.82s14.15,73.59,58.84,80.3C269,1421.24,308.63,1404.21,312.63,1352.24Z" style="fill:#ffc935;stroke:#3a3632;stroke-miterlimit:10;stroke-width:10px"/><path d="M386.28,1347.37c4.41-53.61-32.16-100.79-80.14-104.66-47.44-3.82-71.65,35.79-75.64,86.32s14.7,75.59,61.72,82.47C339.79,1418.45,381.88,1400.87,386.28,1347.37Z" style="fill:#ffc935;stroke:#3a3632;stroke-miterlimit:10;stroke-width:10px"/><path d="M464.77,1342.14c4.91-55.19-34-103.64-85-107.48-50.42-3.8-76.12,37-80.43,89s15.37,77.73,65.22,84.71C415,1415.44,459.88,1397.21,464.77,1342.14Z" style="fill:#ffc935;stroke:#3a3632;stroke-miterlimit:10;stroke-width:10px"/><path d="M548.57,1336.48c5.47-56.73-36-106.43-90.45-110.28-53.79-3.8-81.21,38.26-85.92,91.8s16.11,80,69.19,87C495.09,1412.05,543.12,1393.08,548.57,1336.48Z" style="fill:#ffc935;stroke:#3a3632;stroke-miterlimit:10;stroke-width:10px"/><path d="M637.74,1330.33c6-58.14-38-109-96-112.92-57.35-3.87-86.68,39.43-91.86,94.55s16.91,82.23,73.46,89.15C580.53,1408.11,631.71,1388.35,637.74,1330.33Z" style="fill:#ffc935;stroke:#3a3632;stroke-miterlimit:10;stroke-width:10px"/><path d="M731.76,1323.67c6.59-59.29-39.7-111.18-101.23-115.25-60.8-4-92.07,40.43-97.78,97.1s17.72,84.43,77.71,91.14C671.18,1403.44,725.18,1382.84,731.76,1323.67Z" style="fill:#ffc935;stroke:#3a3632;stroke-miterlimit:10;stroke-width:10px"/><path d="M829.29,1316.54c7-60.06-40.83-112.71-105.28-117.07-63.66-4.31-96.72,41.1-102.94,99.2s18.45,86.42,81.44,92.78C766.25,1397.88,822.31,1376.47,829.29,1316.54Z" style="fill:#ffc935;stroke:#3a3632;stroke-miterlimit:10;stroke-width:10px"/><path d="M928.22,1309c7.17-60.33-41.16-113.4-107.37-118.19-65.42-4.74-99.81,41.32-106.47,100.61s19,88,84,93.9C864.2,1391.31,921.07,1369.24,928.22,1309Z" style="fill:#ffc935;stroke:#3a3632;stroke-miterlimit:10;stroke-width:10px"/><path d="M1026.37,1301.34c7.11-60.17-40.75-113.29-107.27-118.57-65.7-5.21-100.66,41.09-107.6,101.18s19.27,89,84.9,94.42C962.84,1383.84,1019.27,1361.37,1026.37,1301.34Z" style="fill:#ffc935;stroke:#3a3632;stroke-miterlimit:10;stroke-width:10px"/><path d="M1122.16,1293.63c6.89-59.65-39.84-112.51-105.38-118.23-64.72-5.65-99.39,40.52-106.38,100.92s19.19,89.34,84.08,94.34C1060.19,1375.73,1115.28,1353.15,1122.16,1293.63Z" style="fill:#ffc935;stroke:#3a3632;stroke-miterlimit:10;stroke-width:10px"/><path d="M1214.78,1286c6.6-58.91-38.7-111.29-102.43-117.35-62.94-6-96.68,39.77-103.51,100s18.83,89,82.05,93.78C1154.9,1367.29,1208.19,1344.82,1214.78,1286Z" style="fill:#ffc935;stroke:#3a3632;stroke-miterlimit:10;stroke-width:10px"/><path d="M1304.11,1278.63c6.31-58.07-37.55-109.81-99.14-116.07-60.83-6.19-93.31,39-99.86,98.69s18.33,88.29,79.42,92.87C1246.4,1358.76,1297.81,1336.57,1304.11,1278.63Z" style="fill:#ffc935;stroke:#3a3632;stroke-miterlimit:10;stroke-width:10px"/><path d="M1390.67,1271.43c6.08-57.22-36.61-108.25-96.18-114.6-58.82-6.26-90,38.19-96.2,97.19s17.77,87.22,76.74,91.75C1334.75,1350.35,1384.6,1328.51,1390.67,1271.43Z" style="fill:#ffc935;stroke:#3a3632;stroke-miterlimit:10;stroke-width:10px"/><path d="M1475.45,1264.4c6-56.46-36-106.78-94.08-113.07-57.29-6.2-87.32,37.55-93.21,95.71s17.26,86,74.49,90.53C1420.62,1342.17,1469.5,1320.72,1475.45,1264.4Z" style="fill:#ffc935;stroke:#3a3632;stroke-miterlimit:10;stroke-width:10px"/><path d="M127.84,1512.74c2.15-47-29.94-90.84-71.59-96.88-41.18-6-62,28.7-64.89,74.21s14.52,68.58,56.44,76C90.2,1573.62,125.69,1559.63,127.84,1512.74Z" style="fill:#ffc935;stroke:#3a3632;stroke-miterlimit:10;stroke-width:10px"/><path d="M192.09,1511.93c2.06-47.93-31.17-92.92-73.69-99.24-42-6.24-62.85,29-65.41,75.21s15.12,69.78,57.66,77.76C153.68,1573.72,190,1559.77,192.09,1511.93Z" style="fill:#ffc935;stroke:#3a3632;stroke-miterlimit:10;stroke-width:10px"/><path d="M258.83,1511.35c2.11-49-32.61-95.18-76.59-101.73-43.48-6.48-64.66,29.46-67,76.53s15.8,71.18,59.54,79.62C219,1574.3,256.72,1560.27,258.83,1511.35Z" style="fill:#ffc935;stroke:#3a3632;stroke-miterlimit:10;stroke-width:10px"/><path d="M328.87,1510.86c2.32-50.18-34.23-97.58-80.23-104.33-45.49-6.67-67.39,30.11-69.67,78.19s16.55,72.75,62,81.56C287,1575.19,326.56,1561,328.87,1510.86Z" style="fill:#ffc935;stroke:#3a3632;stroke-miterlimit:10;stroke-width:10px"/><path d="M402.93,1510.28c2.69-51.43-35.94-100-84.51-106.94-48-6.8-71,30.93-73.31,80.14s17.33,74.46,65,83.54C358.39,1576.2,400.24,1561.6,402.93,1510.28Z" style="fill:#ffc935;stroke:#3a3632;stroke-miterlimit:10;stroke-width:10px"/><path d="M481.61,1509.39c3.26-52.7-37.65-102.5-89.25-109.46-51-6.88-75.37,31.94-77.9,82.38s18.12,76.27,68.46,85.47C433.85,1577.1,478.35,1562,481.61,1509.39Z" style="fill:#ffc935;stroke:#3a3632;stroke-miterlimit:10;stroke-width:10px"/><path d="M565.26,1507.91c4-53.94-39.17-104.8-94.18-111.74-54.36-6.87-80.42,33.12-83.3,84.87s18.84,78.13,72.15,87.28C513.87,1577.57,561.24,1561.75,565.26,1507.91Z" style="fill:#ffc935;stroke:#3a3632;stroke-miterlimit:10;stroke-width:10px"/><path d="M653.86,1505.54c5-55.11-40.31-106.8-98.87-113.62-57.87-6.75-85.89,34.48-89.3,87.58s19.46,80,75.87,88.81C598.64,1577.27,648.88,1560.54,653.86,1505.54Z" style="fill:#ffc935;stroke:#3a3632;stroke-miterlimit:10;stroke-width:10px"/><path d="M746.81,1502C752.88,1445.83,706,1393.6,644.09,1387c-61.21-6.5-91.34,36-95.45,90.42s19.83,81.66,79.21,90C687.94,1575.8,740.76,1558,746.81,1502Z" style="fill:#ffc935;stroke:#3a3632;stroke-miterlimit:10;stroke-width:10px"/><path d="M842.86,1496.89c7.14-56.93-40.37-109.34-105.07-115.55-63.92-6.13-96.12,37.57-101.11,93.26s19.87,83.14,81.72,90.61C781,1572.77,835.73,1553.7,842.86,1496.89Z" style="fill:#ffc935;stroke:#3a3632;stroke-miterlimit:10;stroke-width:10px"/><path d="M940.18,1490.32c8-57.47-39.16-109.77-105.41-115.51-65.46-5.68-99.45,39.11-105.43,95.89s19.45,84.29,82.9,90.72C876.48,1567.93,932.16,1547.66,940.18,1490.32Z" style="fill:#ffc935;stroke:#3a3632;stroke-miterlimit:10;stroke-width:10px"/><path d="M1036.91,1482.44c8.61-57.68-37.47-109.64-103.82-115-65.54-5.25-100.68,40.37-107.66,98s18.57,85,82.53,90.39C972.7,1561.28,1028.32,1540,1036.91,1482.44Z" style="fill:#ffc935;stroke:#3a3632;stroke-miterlimit:10;stroke-width:10px"/><path d="M1131.63,1473.63c8.85-57.59-35.68-109.05-100.87-114.05-64.39-4.93-99.82,41.16-107.63,99.34s17.4,85.41,80.77,89.77C1068.06,1553.1,1122.8,1531.11,1131.63,1473.63Z" style="fill:#ffc935;stroke:#3a3632;stroke-miterlimit:10;stroke-width:10px"/><path d="M1223.55,1464.3c8.84-57.27-34-108.15-97.3-112.94-62.48-4.72-97.45,41.43-105.78,99.81s16.17,85.36,78.15,89C1161.38,1543.82,1214.74,1521.45,1223.55,1464.3Z" style="fill:#ffc935;stroke:#3a3632;stroke-miterlimit:10;stroke-width:10px"/><path d="M1312.57,1454.81c8.64-56.8-32.78-107.06-93.84-111.75-60.29-4.62-94.32,41.27-102.86,99.52s15.07,85,75.26,88.14C1252.09,1533.92,1304,1511.49,1312.57,1454.81Z" style="fill:#ffc935;stroke:#3a3632;stroke-miterlimit:10;stroke-width:10px"/><path d="M1399.14,1445.47c8.34-56.26-32-106-91.05-110.61-58.27-4.6-91.14,40.8-99.64,98.66s14.21,84.34,72.62,87.32C1340.23,1523.86,1390.82,1501.61,1399.14,1445.47Z" style="fill:#ffc935;stroke:#3a3632;stroke-miterlimit:10;stroke-width:10px"/><path d="M1484.25,1436.52c8-55.76-32-105-89.44-109.66-56.77-4.63-88.53,40.16-96.83,97.46s13.67,83.58,70.69,86.63C1426.42,1514,1476.26,1492.14,1484.25,1436.52Z" style="fill:#ffc935;stroke:#3a3632;stroke-miterlimit:10;stroke-width:10px"/><path d="M145,1654.68c1.57-45.49-32-89.63-74.48-97.29-42-7.58-62.77,25.88-65.47,70.72s15.26,68,58.43,76.22C107.17,1712.69,143.48,1700.07,145,1654.68Z" style="fill:#ffc935;stroke:#3a3632;stroke-miterlimit:10;stroke-width:10px"/><path d="M210.53,1656.35c1.33-46-33.47-91.15-76.83-99.31-42.87-8.08-63.4,25.59-65.5,70.78s16.21,68.72,59.87,77.68C172.22,1714.57,209.22,1702.29,210.53,1656.35Z" style="fill:#ffc935;stroke:#3a3632;stroke-miterlimit:10;stroke-width:10px"/><path d="M278.29,1658.52c1.27-46.67-35.06-92.77-79.85-101.36-44.28-8.5-65,25.53-66.67,71.21s17.15,69.64,61.87,79.18C238.86,1717.2,277,1705.09,278.29,1658.52Z" style="fill:#ffc935;stroke:#3a3632;stroke-miterlimit:10;stroke-width:10px"/><path d="M349,1661c1.43-47.37-36.66-94.42-83.41-103.35-46.21-8.83-67.49,25.69-68.92,72s18.07,70.68,64.34,80.65C307.84,1720.32,347.63,1708.22,349,1661Z" style="fill:#ffc935;stroke:#3a3632;stroke-miterlimit:10;stroke-width:10px"/><path d="M423.42,1663.36c1.81-48.11-38.2-96-87.39-105.18-48.62-9-70.82,26.1-72.17,73.1s18.93,71.8,67.17,82C379.82,1723.67,421.61,1711.38,423.42,1663.36Z" style="fill:#ffc935;stroke:#3a3632;stroke-miterlimit:10;stroke-width:10px"/><path d="M501.86,1665.43c2.46-48.89-39.5-97.52-91.52-106.73-51.43-9.11-74.9,26.76-76.38,74.55s19.7,72.94,70.24,83.24C455.33,1726.91,499.41,1714.22,501.86,1665.43Z" style="fill:#ffc935;stroke:#3a3632;stroke-miterlimit:10;stroke-width:10px"/><path d="M584.6,1666.76c3.37-49.67-40.39-98.8-95.52-107.89-54.49-9-79.57,27.75-81.4,76.37S428,1709.32,481,1719.42C534.7,1729.65,581.24,1716.32,584.6,1666.76Z" style="fill:#ffc935;stroke:#3a3632;stroke-miterlimit:10;stroke-width:10px"/><path d="M671.5,1666.9c4.52-50.45-40.67-99.81-99-108.52-57.61-8.6-84.58,29.09-87,78.57s20.59,75.13,76.21,84.77C618,1731.47,667,1717.24,671.5,1666.9Z" style="fill:#ffc935;stroke:#3a3632;stroke-miterlimit:10;stroke-width:10px"/><path d="M762,1665.44c5.84-51.21-40.16-100.51-101.35-108.57-60.47-8-89.53,30.78-92.81,81.14s20.52,76.06,78.5,84.92C705,1731.9,756.14,1716.53,762,1665.44Z" style="fill:#ffc935;stroke:#3a3632;stroke-miterlimit:10;stroke-width:10px"/><path d="M855,1662.06c7.19-51.92-38.84-101-102.28-108.09-62.69-7.07-93.88,32.81-98.26,84s20,76.85,79.91,84.67C795,1730.56,847.8,1713.87,855,1662.06Z" style="fill:#ffc935;stroke:#3a3632;stroke-miterlimit:10;stroke-width:10px"/><path d="M949.17,1656.68c8.4-52.58-36.87-101.19-101.56-107.27-63.91-6-97,35-102.68,87s19,77.48,80.14,84.06C887,1727.18,940.78,1709.14,949.17,1656.68Z" style="fill:#ffc935;stroke:#3a3632;stroke-miterlimit:10;stroke-width:10px"/><path d="M1043.15,1649.45c9.33-53.12-34.6-101.28-99.37-106.3-64-5-98.54,37.18-105.53,89.95s17.54,78,79.15,83.28C979.78,1721.75,1033.83,1702.45,1043.15,1649.45Z" style="fill:#ffc935;stroke:#3a3632;stroke-miterlimit:10;stroke-width:10px"/><path d="M1135.79,1640.76c9.92-53.51-32.41-101.25-96.22-105.39-63-4.09-98.36,39-106.57,92.41s15.88,78.37,77.17,82.5C1072.23,1714.47,1125.9,1694.16,1135.79,1640.76Z" style="fill:#ffc935;stroke:#3a3632;stroke-miterlimit:10;stroke-width:10px"/><path d="M1226.45,1631.12c10.14-53.75-30.62-101.16-92.8-104.68-61.4-3.47-96.82,40.25-106,94.19s14.25,78.65,74.63,81.87C1163.46,1705.77,1216.32,1684.75,1226.45,1631.12Z" style="fill:#ffc935;stroke:#3a3632;stroke-miterlimit:10;stroke-width:10px"/><path d="M1315,1621c10.08-53.87-29.42-101-89.72-104.22-59.55-3.13-94.49,40.9-104.23,95.19s12.87,78.84,72,81.48C1253,1696.17,1304.94,1674.8,1315,1621Z" style="fill:#ffc935;stroke:#3a3632;stroke-miterlimit:10;stroke-width:10px"/><path d="M1401.87,1611c9.78-53.92-29-101-87.57-104.1-57.84-3-92,41-102,95.47s11.88,78.95,69.87,81.37C1340.94,1686.24,1392.11,1664.85,1401.87,1611Z" style="fill:#ffc935;stroke:#3a3632;stroke-miterlimit:10;stroke-width:10px"/><path d="M1488,1601.59c9.32-54-29.48-101.17-86.86-104.4-56.65-3.19-89.92,40.67-99.85,95.15s11.37,79,68.57,81.6C1427.82,1676.56,1478.72,1655.45,1488,1601.59Z" style="fill:#ffc935;stroke:#3a3632;stroke-miterlimit:10;stroke-width:10px"/><path d="M438.1,766.6c43.34,45.63,32.43,144.09,24.08,152S354.93,932.4,311.59,886.77s-45.74-96-6.36-133.38S394.76,721,438.1,766.6Z" style="fill:#ffc935;stroke:#3a3632;stroke-miterlimit:10;stroke-width:10px"/><path d="M453.37,909.35c-1.83,1.35-13.09,3.72-31.33,3.22-11.59-.32-33.94-2.14-54.19-10.71-21.07-22.64-18.4-50.61,7.22-74.94s53.68-25.57,75.21-3.36c7.52,20.67,8.19,43.08,7.91,54.67C457.75,896.48,454.8,907.6,453.37,909.35Z" style="fill:#fff6dd"/><path d="M493.84,1089.4c-22.56,58.75-116.14,91.24-126.9,87.11s-58.54-90.91-36-149.66,67-82.57,117.69-63.1S516.4,1030.65,493.84,1089.4Z" style="fill:#ffc935;stroke:#3a3632;stroke-miterlimit:10;stroke-width:10px"/><path d="M371.53,1164.56c-2-1.07-9-10.21-16.38-26.9-4.69-10.6-12.66-31.56-13.63-53.53,11.38-28.76,37.78-38.37,70.77-25.71s46.16,37.48,35.37,66.46c-15.43,15.68-35.38,25.92-46,30.65C385,1163,373.73,1165.11,371.53,1164.56Z" style="fill:#fff6dd"/><path d="M298.25,1244.5c-61.2,14.66-141-44.09-143.65-55.3s41.79-99.72,103-114.39,106,8.47,118.64,61.29S359.45,1229.83,298.25,1244.5Z" style="fill:#ffc935;stroke:#3a3632;stroke-miterlimit:10;stroke-width:10px"/><path d="M167,1186.22c-.25-2.25,3.34-13.19,12.91-28.72,6.08-9.87,18.85-28.31,36.41-41.55,30.15-6.9,53,9.42,61.25,43.78s-4.76,59.27-34.76,66.78c-21.65-3.84-41.39-14.49-51.28-20.53C176,1196.47,167.84,1188.35,167,1186.22Z" style="fill:#fff6dd"/><path d="M680.3,1227.8c-42.93,46-141.87,41.07-150.29,33.21s-20.22-106.23,22.72-152.24,93-51.45,132.75-14.4S723.24,1181.79,680.3,1227.8Z" style="fill:#ffc935;stroke:#3a3632;stroke-miterlimit:10;stroke-width:10px"/><path d="M538.74,1251.65c-1.46-1.74-4.51-12.84-5.1-31.08-.38-11.58.09-34,7.42-54.74,21.32-22.39,49.41-21.41,75.24,2.69s28.75,52,7.89,74.87c-20.18,8.75-42.51,10.77-54.1,11.2C551.85,1255.25,540.57,1253,538.74,1251.65Z" style="fill:#fff6dd"/><path d="M532.65,903.71c60.64,16.83,101.94,106.87,98.86,118s-84.88,67-145.52,50.16-88.6-58.77-74.08-111.1S472,886.88,532.65,903.71Z" style="fill:#ffc935;stroke:#3a3632;stroke-miterlimit:10;stroke-width:10px"/><path d="M619.18,1018.26c-.87,2.09-9.31,9.92-25.21,18.88-10.1,5.68-30.2,15.62-52,18.69-29.71-8.57-41.81-33.93-32.36-68s32.88-49.54,62.76-41.58c17.08,13.86,29.19,32.73,34.92,42.81C616.32,1005,619.51,1016,619.18,1018.26Z" style="fill:#fff6dd"/><path d="M794.31,776.74c1.85,62.9-71.95,129-83.47,129.32s-89.09-61.29-90.94-124.19,30-102,84.23-103.61S792.46,713.83,794.31,776.74Z" style="fill:#ffc935;stroke:#3a3632;stroke-miterlimit:10;stroke-width:10px"/><path d="M710.46,893.27c-2.25-.22-12.23-6-25.48-18.5-8.42-8-23.86-24.24-33.23-44.13-.6-30.92,20-50,55.37-51s57,16.77,58.27,47.67c-8.19,20.41-22.64,37.56-30.58,46C722.32,886.6,712.7,892.92,710.46,893.27Z" style="fill:#fff6dd"/><path d="M764.77,1027.71c-55.5,29.68-147.53-7-153-17.12S627,903.54,682.47,873.85s104.68-18.64,130.29,29.26S820.26,998,764.77,1027.71Z" style="fill:#ffc935;stroke:#3a3632;stroke-miterlimit:10;stroke-width:10px"/><path d="M623.08,1004.56c-.81-2.12-.11-13.61,5.22-31.06,3.38-11.09,11.06-32.16,24.7-49.41,27.42-14.31,53.68-4.31,70.34,26.84s10.4,58.55-16.72,73.41c-21.92,1.77-43.71-3.53-54.81-6.88C634.34,1012.2,624.39,1006.41,623.08,1004.56Z" style="fill:#fff6dd"/><path d="M951,936.79c44.1,44.9,34.84,143.53,26.62,151.6s-107,15.56-151.1-29.33-47.35-95.2-8.6-133.26S906.92,891.89,951,936.79Z" style="fill:#ffc935;stroke:#3a3632;stroke-miterlimit:10;stroke-width:10px"/><path d="M968.67,1079.26c-1.8,1.38-13,3.94-31.27,3.74-11.59-.12-34-1.57-54.36-9.8-21.45-22.28-19.24-50.29,6-75.05s53.25-26.46,75.15-4.62c7.86,20.54,8.91,42.94,8.82,54.54C972.84,1066.32,970.08,1077.49,968.67,1079.26Z" style="fill:#fff6dd"/><path d="M1200.19,1079c-58.22,23.9-146.07-21.88-150.44-32.54s26-105,84.17-128.87,106-7.93,126.65,42.31S1258.4,1055.08,1200.19,1079Z" style="fill:#ffc935;stroke:#3a3632;stroke-miterlimit:10;stroke-width:10px"/><path d="M1061.58,1041.58c-.59-2.19,1.27-13.55,8.34-30.37,4.49-10.69,14.27-30.87,29.58-46.65,28.73-11.46,53.84,1.15,67.26,33.84s4.41,59.3-24.08,71.33c-22-.47-43.12-8-53.83-12.4C1072,1050.33,1062.7,1043.55,1061.58,1041.58Z" style="fill:#fff6dd"/><path d="M1059.83,829.55c-31.44,54.52-128.95,72-138.93,66.27s-43.66-98.92-12.22-153.44,79-71.11,126.08-44S1091.27,775,1059.83,829.55Z" style="fill:#ffc935;stroke:#3a3632;stroke-miterlimit:10;stroke-width:10px"/><path d="M927.29,884.74c-1.81-1.37-7.28-11.49-12-29.13-3-11.2-7.59-33.15-5.12-55,15.72-26.63,43.3-32,73.9-14.36s39.76,44.21,24.58,71.16c-17.68,13.07-39,20.08-50.17,23.11C940.88,885.28,929.38,885.62,927.29,884.74Z" style="fill:#fff6dd"/></g><path id="path900-5" data-name="path900" d="M45.55,1501.54V489.36c0,76,300.07,160.37,670.23,160.37s668.67-84.18,668.67-160.37V1501.54c0,76.19-298.51,194.71-668.67,194.71S45.55,1577.53,45.55,1501.54Z" style="fill:none;stroke:#3a3632;stroke-linecap:round;stroke-linejoin:round;stroke-width:10px"/></svg>