<?xml version="1.0" encoding="UTF-8" standalone="no"?>
<svg
   xmlns:dc="http://purl.org/dc/elements/1.1/"
   xmlns:cc="http://creativecommons.org/ns#"
   xmlns:rdf="http://www.w3.org/1999/02/22-rdf-syntax-ns#"
   xmlns:svg="http://www.w3.org/2000/svg"
   xmlns="http://www.w3.org/2000/svg"
   xmlns:sodipodi="http://sodipodi.sourceforge.net/DTD/sodipodi-0.dtd"
   xmlns:inkscape="http://www.inkscape.org/namespaces/inkscape"
   inkscape:version="1.0beta1 (32d4812, 2019-09-19)"
   sodipodi:docname="crushed_tomato_can_796ml.svg"
   version="1.1"
   viewBox="0 0 1362.9 1924"
   height="1924"
   width="1362.9"
   data-name="Layer 1"
   id="Layer_1">
  <metadata
     id="metadata860">
    <rdf:RDF>
      <cc:Work
         rdf:about="">
        <dc:format>image/svg+xml</dc:format>
        <dc:type
           rdf:resource="http://purl.org/dc/dcmitype/StillImage" />
        <dc:title></dc:title>
      </cc:Work>
    </rdf:RDF>
  </metadata>
  <defs
     id="defs858" />
  <sodipodi:namedview
     inkscape:current-layer="Layer_1"
     inkscape:window-maximized="0"
     inkscape:window-y="23"
     inkscape:window-x="0"
     inkscape:cy="516.85"
     inkscape:cx="81.45"
     inkscape:zoom="0.35"
     fit-margin-bottom="12"
     fit-margin-right="12"
     fit-margin-left="12"
     lock-margins="true"
     fit-margin-top="12"
     showgrid="false"
     id="namedview856"
     inkscape:window-height="907"
     inkscape:window-width="1600"
     inkscape:pageshadow="2"
     inkscape:pageopacity="0"
     guidetolerance="10"
     gridtolerance="10"
     objecttolerance="10"
     borderopacity="1"
     inkscape:document-rotation="0"
     bordercolor="#666666"
     pagecolor="#ffffff" />
  <path
     inkscape:connector-curvature="0"
     style="fill:#939598;stroke:#010101;stroke-width:24;stroke-linecap:round;stroke-linejoin:round"
     d="M 12,1717.3 V 185.78 c 479.13,186.06 882.14,177.72 1338.9,0 v 1531.52 0 c 0,76.18 -298.51,194.7 -668.67,194.7 C 312.07,1912 12,1793.29 12,1717.3 Z"
     id="path900" />
  <path
     inkscape:connector-curvature="0"
     style="fill:#ffffff;stroke:#231f20;stroke-width:24;stroke-linecap:round;stroke-linejoin:round"
     d="M 12,1458.39 V 446.21 c 0,76 300.07,160.37 670.23,160.37 370.16,0 668.67,-84.18 668.67,-160.37 v 1012.18 c 0,76.19 -298.51,194.71 -668.67,194.71 C 312.07,1653.1 12,1534.38 12,1458.39 Z"
     data-name="path900"
     id="path900-2" />
  <path
     inkscape:connector-curvature="0"
     style="fill:#d1d3d4;stroke:#010101;stroke-width:24;stroke-linecap:round;stroke-linejoin:round"
     d="m 1350.9,185.78 c 0,76.18 -298.51,160.36 -668.67,160.36 C 312.07,346.14 12,261.77 12,185.78 12,109.79 310.45,12 680.57,12 c 370.12,0 670.33,97.59 670.33,173.78 z"
     data-name="path900"
     id="path900-3" />
  <g
     transform="translate(-318.55,-43.15)"
     id="layer1">
    <path
       inkscape:connector-curvature="0"
       style="fill:#ca3d27;stroke:#010101;stroke-width:17.1689"
       d="m 1216.67,1217.92 c 26.53,-53.63 24.49,-93.63 24.49,-110.67 0,-202 -107.24,-309.29 -287.26,-292 -55.26,5.7 -64.91,27.92 -89,42.16 -16.73,-12 -73.73,-37.14 -109.22,-42.16 -190.55,-16.28 -296.83,91.92 -296.83,292 0,179.06 146.5,324.61 391.63,324.61 57.45,0 106.72,-2.4 155.12,-22 97.58,-39.59 163.4,-95.48 211.07,-191.94 z"
       id="path60" />
    <path
       inkscape:connector-curvature="0"
       style="fill:#ffffff"
       d="M 659.81,907.06 C 649.75,895.51 592,953.62 551.4,1031.12 c -23.47,38 64.82,101.7 69.29,33.53 5.59,-77.12 58.49,-135.9 39.12,-157.59 z"
       id="path924" />
    <path
       inkscape:connector-curvature="0"
       style="fill:#0da54a"
       d="m 861,837.77 c 0,0 -52.53,-53.65 -61.47,-84.95 -1.12,11.18 1.12,51.42 21.24,80.47 0,0 -91.65,4.48 -103.94,17.89 0,0 86.05,13.41 107.29,2.23 0,0 -10.06,74.88 4.47,99.47 0,0 41.35,-64.82 36.88,-82.7 0,0 99.47,27.94 126.29,20.11 -7.82,-13.41 -79.35,-43.58 -105,-42.47 28.8,-12.68 48,-50.29 48,-50.29 0,0 -62.6,34.65 -73.76,40.24 z"
       id="path920" />
  </g>
  <g
     transform="translate(-318.55,-43.15)"
     id="g1522">
    <path
       inkscape:connector-curvature="0"
       style="fill:#ffffff;stroke:#050507;stroke-width:17.1689;stroke-linecap:round;stroke-linejoin:round"
       d="m 1514.07,1234.48 c -1.59,158.7 -126.45,268.08 -268.33,268.08 -141.88,0 -275.43,-115.46 -276.4,-272.07 -3.15,-100.25 125.85,-142 267.73,-142 141.88,0 274.27,61 277,145.99 z"
       id="path862" />
    <path
       inkscape:connector-curvature="0"
       style="fill:#ffffff;stroke:#040607;stroke-width:17.1689;stroke-linecap:round;stroke-linejoin:round"
       d="m 1514.39,1235.91 c 0.85,78.41 -131.1,143.08 -273,143.08 -141.9,0 -272.17,-64.67 -273,-143.08 -1.09,-104.44 128.93,-149.59 270.81,-149.59 141.88,0 274.11,49.48 275.19,149.59 z"
       id="path857" />
    <path
       inkscape:connector-curvature="0"
       style="fill:#ca3d27;stroke:#050605;stroke-width:17.1689;stroke-linecap:round;stroke-linejoin:round"
       d="m 1433.44,1282.48 c 42.28,41.19 -50.15,96.82 -192,96.82 -141.85,0 -236.48,-57.8 -207.21,-101.16 49.86,-58.53 149,-70.24 208.47,-70.24 59.47,0 138.74,19.3 190.77,74.58 z"
       id="path887" />
    <path
       inkscape:connector-curvature="0"
       style="fill:none;stroke:#010101;stroke-width:17.1689;stroke-linecap:round;stroke-linejoin:round"
       d="m 1118.11,1478.28 c 23.84,54.2 217.87,55.28 241.72,1.09"
       id="path889" />
  </g>
  <path
     inkscape:connector-curvature="0"
     style="fill:none;stroke:#010101;stroke-width:8.59795;stroke-linecap:round"
     d="m 825.61,1218.56 c -27.58,-20.63 -47.49,7.09 -47.49,7.09"
     id="path856" />
  <path
     inkscape:connector-curvature="0"
     style="fill:none;stroke:#010101;stroke-width:8.59795;stroke-linecap:round"
     d="m 950.26,1284.68 c -27.57,-20.63 -47.49,7.09 -47.49,7.09"
     id="path858" />
  <path
     inkscape:connector-curvature="0"
     style="fill:none;stroke:#010101;stroke-width:8.59795;stroke-linecap:round"
     d="m 862.45,1285.22 c -27.57,-20.63 -47.49,7.09 -47.49,7.09"
     id="path860" />
  <path
     inkscape:connector-curvature="0"
     style="fill:none;stroke:#010101;stroke-width:8.59795;stroke-linecap:round"
     d="m 1049.45,1234.85 c -27.57,-20.63 -47.49,7.08 -47.49,7.08"
     id="path863" />
  <path
     inkscape:connector-curvature="0"
     style="fill:none;stroke:#010101;stroke-width:8.59795;stroke-linecap:round"
     d="m 958.39,1244.58 c -27.57,-20.64 -47.49,7.08 -47.49,7.08"
     id="path865" />
  <path
     inkscape:connector-curvature="0"
     style="fill:none;stroke:#010101;stroke-width:8.59795;stroke-linecap:round"
     d="m 882.51,1243.49 c -27.57,-20.63 -47.48,7.09 -47.48,7.09"
     id="path867" />
  <path
     inkscape:connector-curvature="0"
     style="fill:none;stroke:#010101;stroke-width:8.59795;stroke-linecap:round"
     d="m 810.45,1258.67 c -27.57,-20.64 -47.49,7.08 -47.49,7.08"
     id="path869" />
  <path
     inkscape:connector-curvature="0"
     style="fill:none;stroke:#010101;stroke-width:8.59795;stroke-linecap:round"
     d="m 984.45,1207.72 c -27.57,-20.63 -47.48,7.09 -47.48,7.09"
     id="path871" />
  <path
     inkscape:connector-curvature="0"
     style="fill:none;stroke:#010101;stroke-width:8.59795;stroke-linecap:round"
     d="m 902.57,1203.39 c -27.58,-20.64 -47.49,7.08 -47.49,7.08"
     id="path873" />
  <path
     inkscape:connector-curvature="0"
     style="fill:none;stroke:#010101;stroke-width:8.59795;stroke-linecap:round"
     d="m 1033.18,1277.64 c -27.57,-20.64 -47.49,7.08 -47.49,7.08"
     id="path877" />
</svg>
