<svg id="Layer_1" data-name="Layer 1" xmlns="http://www.w3.org/2000/svg" viewBox="0 0 2000 2000"><path id="path900" d="M330.55,1760.45V228.93c479.13,186.06,882.14,177.72,1338.9,0V1760.45h0c0,76.18-298.51,194.7-668.67,194.7s-670.23-118.71-670.23-194.7Z" style="fill:#929497;stroke:#3a3632;stroke-linecap:round;stroke-linejoin:round;stroke-width:20px"/><path id="path900-2" data-name="path900" d="M330.55,1501.54V489.36c0,76,300.07,160.37,670.23,160.37s668.67-84.18,668.67-160.37V1501.54c0,76.19-298.51,194.71-668.67,194.71s-670.23-118.72-670.23-194.71Z" style="fill:#fff;stroke:#3a3632;stroke-linecap:round;stroke-linejoin:round;stroke-width:20px"/><path id="path900-3" data-name="path900" d="M1669.45,228.93c0,76.18-298.51,160.36-668.67,160.36S330.55,304.92,330.55,228.93,629,55.15,999.12,55.15,1669.45,152.74,1669.45,228.93Z" style="fill:#d0d2d3;stroke:#3a3632;stroke-linecap:round;stroke-linejoin:round;stroke-width:20px"/><g id="layer1"><path id="path60" d="M1216.67,1217.92c26.53-53.63,24.49-93.63,24.49-110.67,0-202-107.24-309.29-287.26-292-55.26,5.7-64.91,27.92-89,42.16-16.73-12-73.73-37.14-109.22-42.16-190.55-16.28-296.83,91.92-296.83,292,0,179.06,146.5,324.61,391.63,324.61,57.45,0,106.72-2.4,155.12-22C1103.18,1370.27,1169,1314.38,1216.67,1217.92Z" style="fill:#c93c27;stroke:#3a3632;stroke-width:20px"/><path id="path924" d="M659.81,907.06C649.75,895.51,592,953.62,551.4,1031.12c-23.47,38,64.82,101.7,69.29,33.53,5.59-77.12,58.49-135.9,39.12-157.59Z" style="fill:#fff"/><path id="path920" d="M861,837.77s-52.53-53.65-61.47-84.95c-1.12,11.18,1.12,51.42,21.24,80.47,0,0-91.65,4.48-103.94,17.89,0,0,86.05,13.41,107.29,2.23,0,0-10.06,74.88,4.47,99.47,0,0,41.35-64.82,36.88-82.7,0,0,99.47,27.94,126.29,20.11-7.82-13.41-79.35-43.58-105-42.47,28.8-12.68,48-50.29,48-50.29S872.16,832.18,861,837.77Z" style="fill:#07a44a"/></g><g id="g1522"><path id="path862" d="M1514.07,1234.48c-1.59,158.7-126.45,268.08-268.33,268.08s-275.43-115.46-276.4-272.07c-3.15-100.25,125.85-142,267.73-142S1511.34,1149.49,1514.07,1234.48Z" style="fill:#fff;stroke:#3a3632;stroke-linecap:round;stroke-linejoin:round;stroke-width:20px"/><path id="path857" d="M1514.39,1235.91c.85,78.41-131.1,143.08-273,143.08s-272.17-64.67-273-143.08c-1.09-104.44,128.93-149.59,270.81-149.59S1513.31,1135.8,1514.39,1235.91Z" style="fill:#fff;stroke:#3a3632;stroke-linecap:round;stroke-linejoin:round;stroke-width:20px"/><path id="path887" d="M1433.44,1282.48c42.28,41.19-50.15,96.82-192,96.82s-236.48-57.8-207.21-101.16c49.86-58.53,149-70.24,208.47-70.24s138.74,19.3,190.77,74.58Z" style="fill:#c93c27;stroke:#3a3632;stroke-linecap:round;stroke-linejoin:round;stroke-width:17.1689430775067px"/><path id="path889" d="M1118.11,1478.28c23.84,54.2,217.87,55.28,241.72,1.09" style="fill:none;stroke:#3a3632;stroke-linecap:round;stroke-linejoin:round;stroke-width:20px"/></g><path id="path856" d="M1144.16,1261.71c-27.58-20.63-47.49,7.09-47.49,7.09" style="fill:none;stroke:#3a3632;stroke-linecap:round;stroke-width:10px"/><path id="path858" d="M1268.81,1327.83c-27.57-20.63-47.49,7.09-47.49,7.09" style="fill:none;stroke:#3a3632;stroke-linecap:round;stroke-width:10px"/><path id="path860" d="M1181,1328.37c-27.57-20.63-47.49,7.09-47.49,7.09" style="fill:none;stroke:#3a3632;stroke-linecap:round;stroke-width:10px"/><path id="path863" d="M1368,1278c-27.57-20.63-47.49,7.08-47.49,7.08" style="fill:none;stroke:#3a3632;stroke-linecap:round;stroke-width:10px"/><path id="path865" d="M1276.94,1287.73c-27.57-20.64-47.49,7.08-47.49,7.08" style="fill:none;stroke:#3a3632;stroke-linecap:round;stroke-width:10px"/><path id="path867" d="M1201.06,1286.64c-27.57-20.63-47.48,7.09-47.48,7.09" style="fill:none;stroke:#3a3632;stroke-linecap:round;stroke-width:10px"/><path id="path869" d="M1129,1301.82c-27.57-20.64-47.49,7.08-47.49,7.08" style="fill:none;stroke:#3a3632;stroke-linecap:round;stroke-width:10px"/><path id="path871" d="M1303,1250.87c-27.57-20.63-47.48,7.09-47.48,7.09" style="fill:none;stroke:#3a3632;stroke-linecap:round;stroke-width:10px"/><path id="path873" d="M1221.12,1246.54c-27.58-20.64-47.49,7.08-47.49,7.08" style="fill:none;stroke:#3a3632;stroke-linecap:round;stroke-width:10px"/><path id="path877" d="M1351.73,1320.79c-27.57-20.64-47.49,7.08-47.49,7.08" style="fill:none;stroke:#3a3632;stroke-linecap:round;stroke-width:10px"/></svg>