<svg id="Layer_1" data-name="Layer 1" xmlns="http://www.w3.org/2000/svg" viewBox="0 0 2000 2000"><path id="path900" d="M330.55,1760.45V228.93c479.13,186.06,882.14,177.72,1338.9,0V1760.45h0c0,76.18-298.51,194.7-668.67,194.7s-670.23-118.71-670.23-194.7Z" style="fill:#a6a8ab;stroke:#3a3632;stroke-linecap:round;stroke-linejoin:round;stroke-width:20px"/><path id="path900-2" data-name="path900" d="M330.55,1501.54V489.36c0,76,300.07,160.37,670.23,160.37s668.67-84.18,668.67-160.37V1501.54c0,76.19-298.51,194.71-668.67,194.71s-670.23-118.72-670.23-194.71Z" style="fill:#fff;stroke:#3a3632;stroke-linecap:round;stroke-linejoin:round;stroke-width:20px"/><path id="path900-3" data-name="path900" d="M1669.45,228.93c0,76.18-298.51,160.36-668.67,160.36S330.55,304.92,330.55,228.93,629,55.15,999.12,55.15,1669.45,152.74,1669.45,228.93Z" style="fill:#d0d2d3;stroke:#3a3632;stroke-linecap:round;stroke-linejoin:round;stroke-width:20px"/><g id="layer1"><path id="path60" d="M1216.67,1217.92c26.53-53.63,24.49-93.63,24.49-110.67,0-202-107.24-309.29-287.26-292-55.26,5.7-64.91,27.92-89,42.16-16.73-12-73.73-37.14-109.22-42.16-190.55-16.28-296.83,91.92-296.83,292,0,179.06,146.5,324.61,391.63,324.61,57.45,0,106.72-2.4,155.12-22C1103.18,1370.27,1169,1314.38,1216.67,1217.92Z" style="fill:#c93c27;stroke:#3a3632;stroke-width:20px"/><path id="path924" d="M659.81,907.06C649.75,895.51,592,953.62,551.4,1031.12c-23.47,38,64.82,101.7,69.29,33.53,5.59-77.12,58.49-135.9,39.12-157.59Z" style="fill:#fff"/><path id="path920" d="M861,837.77s-52.53-53.65-61.47-84.95c-1.12,11.18,1.12,51.42,21.24,80.47,0,0-91.65,4.48-103.94,17.89,0,0,86.05,13.41,107.29,2.23,0,0-10.06,74.88,4.47,99.47,0,0,41.35-64.82,36.88-82.7,0,0,99.47,27.94,126.29,20.11-7.82-13.41-79.35-43.58-105-42.47,28.8-12.68,48-50.29,48-50.29S872.16,832.18,861,837.77Z" style="fill:#07a44a"/></g><g id="layer2"><g id="g990"><path id="path984" d="M1199.51,1169.53h117.06v117.06H1199.51Z" style="fill:#c93c27;stroke:#3a3632;stroke-linecap:round;stroke-linejoin:round;stroke-width:10px"/><path id="path986" d="M1316.57,1169.53l62.85-35.82v117.06l-62.85,35.82Z" style="fill:#c93c27;stroke:#3a3632;stroke-linecap:round;stroke-linejoin:round;stroke-width:10px"/><path id="path988" d="M1262.36,1133.71h117.06l-62.85,35.82H1199.51Z" style="fill:#c93c27;stroke:#3a3632;stroke-linecap:round;stroke-linejoin:round;stroke-width:10px"/></g><g id="g982"><path id="rect957" d="M1262.36,1267.94h117.06V1385H1262.36Z" style="fill:#c93c27;stroke:#3a3632;stroke-linecap:round;stroke-linejoin:round;stroke-width:10px"/><path id="path975" d="M1379.42,1267.94l62.85-35.82v117.07L1379.42,1385Z" style="fill:#c93c27;stroke:#3a3632;stroke-linecap:round;stroke-linejoin:round;stroke-width:10px"/><path id="path977" d="M1325.21,1232.12h117.06l-62.85,35.82H1262.36Z" style="fill:#c93c27;stroke:#3a3632;stroke-linecap:round;stroke-linejoin:round;stroke-width:10px"/></g><g id="g998"><path id="path992" d="M1036.76,1322.42h117.06v117.06H1036.76Z" style="fill:#c93c27;stroke:#3a3632;stroke-linecap:round;stroke-linejoin:round;stroke-width:10px"/><path id="path994" d="M1153.82,1322.42l62.85-35.83v117.07l-62.85,35.82Z" style="fill:#c93c27;stroke:#3a3632;stroke-linecap:round;stroke-linejoin:round;stroke-width:10px"/><path id="path996" d="M1099.61,1286.59h117.06l-62.85,35.83H1036.76Z" style="fill:#c93c27;stroke:#3a3632;stroke-linecap:round;stroke-linejoin:round;stroke-width:10px"/></g></g></svg>