<?xml version="1.0" encoding="UTF-8" standalone="no"?>
<svg
   xmlns:dc="http://purl.org/dc/elements/1.1/"
   xmlns:cc="http://creativecommons.org/ns#"
   xmlns:rdf="http://www.w3.org/1999/02/22-rdf-syntax-ns#"
   xmlns:svg="http://www.w3.org/2000/svg"
   xmlns="http://www.w3.org/2000/svg"
   xmlns:sodipodi="http://sodipodi.sourceforge.net/DTD/sodipodi-0.dtd"
   xmlns:inkscape="http://www.inkscape.org/namespaces/inkscape"
   inkscape:version="1.0beta1 (32d4812, 2019-09-19)"
   sodipodi:docname="diced_tomato_can_796ml.svg"
   version="1.1"
   viewBox="0 0 1165.9907 1923.9963"
   height="1923.9963"
   width="1165.9907"
   data-name="Layer 1"
   id="Layer_1">
  <metadata
     id="metadata864">
    <rdf:RDF>
      <cc:Work
         rdf:about="">
        <dc:format>image/svg+xml</dc:format>
        <dc:type
           rdf:resource="http://purl.org/dc/dcmitype/StillImage" />
        <dc:title></dc:title>
      </cc:Work>
    </rdf:RDF>
  </metadata>
  <defs
     id="defs862" />
  <sodipodi:namedview
     inkscape:current-layer="Layer_1"
     inkscape:window-maximized="0"
     inkscape:window-y="23"
     inkscape:window-x="0"
     inkscape:cy="522.83635"
     inkscape:cx="-14"
     inkscape:zoom="0.35"
     fit-margin-bottom="12"
     fit-margin-right="12"
     fit-margin-left="12"
     lock-margins="true"
     fit-margin-top="12"
     showgrid="false"
     id="namedview860"
     inkscape:window-height="907"
     inkscape:window-width="1600"
     inkscape:pageshadow="2"
     inkscape:pageopacity="0"
     guidetolerance="10"
     gridtolerance="10"
     objecttolerance="10"
     borderopacity="1"
     inkscape:document-rotation="0"
     bordercolor="#666666"
     pagecolor="#ffffff" />
  <path
     inkscape:connector-curvature="0"
     style="fill:#9ca0aa"
     d="M 12,1750.6764 V 481.75635 c 397,154.16 730.88,147.25 1109.33,0 v 1268.92005 0 c 0,63.12 -247.33,161.32 -554,161.32 -306.67,0 -555.33,-98.36 -555.33,-161.32 z"
     id="path900" />
  <path
     inkscape:connector-curvature="0"
     style="fill:#939598"
     d="M 12,1750.6764 V 481.75635 c 397,154.16 730.88,147.25 1109.33,0 v 1268.92005 0 c 0,63.12 -247.33,161.32 -554,161.32 -306.67,0 -555.33,-98.36 -555.33,-161.32 z"
     data-name="path900"
     id="path900-2" />
  <path
     inkscape:connector-curvature="0"
     style="fill:#ffffff"
     d="M 12,1536.1664 V 697.54635 c 0,63 248.62,132.86 555.31,132.86 306.69,0 554,-69.74 554,-132.86 v 838.62005 c 0,63.12 -247.33,161.32 -554,161.32 -306.67,0 -555.31,-98.36 -555.31,-161.32 z"
     data-name="path900"
     id="path900-3" />
  <path
     inkscape:connector-curvature="0"
     style="fill:none;stroke:#010101;stroke-width:24;stroke-linecap:round;stroke-linejoin:round"
     d="M 12,1750.6764 V 481.75635 c 397,154.16 730.88,147.25 1109.33,0 v 1268.92005 0 c 0,63.12 -247.33,161.32 -554,161.32 -306.67,0 -555.33,-98.36 -555.33,-161.32 z"
     data-name="path900"
     id="path900-4" />
  <path
     inkscape:connector-curvature="0"
     style="fill:#939598"
     d="m 1121.3,481.75635 c 0,63.12 -247.33,132.87 -554,132.87 -306.67,0 -555.3,-69.9 -555.3,-132.87 0,-62.97 247.22,-143.92 553.9,-143.92 306.68,0 555.4,80.8 555.4,143.92 z"
     data-name="path900"
     id="path900-5" />
  <path
     inkscape:connector-curvature="0"
     id="path838"
     style="fill:#ca3d27;stroke:#040607;stroke-width:15.7058;stroke-linecap:round;stroke-linejoin:round"
     d="m 36.14,516.77635 c 69.44,51.32 280.94,97.85 531.14,97.85 250.2,0 460.72,-46.4 529.91,-97.79 -69.39,-54.12 -281,-108 -531.29,-108 -250.04,0.07 -460.52,53.92 -529.76,107.94 z" />
  <path
     inkscape:connector-curvature="0"
     style="fill:none;stroke:#010101;stroke-width:24;stroke-linecap:round;stroke-linejoin:round"
     d="m 1121.3,481.75635 c 0,63.12 -247.33,132.87 -554,132.87 -306.67,0 -555.3,-69.9 -555.3,-132.87 0,-62.97 247.22,-143.92 553.9,-143.92 306.68,0 555.4,80.8 555.4,143.92 z"
     data-name="path900"
     id="path900-6" />
  <g
     transform="translate(-414,-37.163649)"
     id="layer1">
    <path
       inkscape:connector-curvature="0"
       style="fill:#ca3d27;stroke:#010101;stroke-width:15.7058"
       d="m 1230,1375.41 c 24.69,-49.92 22.8,-87.14 22.8,-103 0,-188.06 -99.83,-287.89 -267.39,-271.84 -51.43,5.3 -60.41,26 -82.83,39.24 -15.57,-11.2 -68.63,-34.57 -101.66,-39.24 -177.36,-15.15 -276.29,85.56 -276.29,271.84 0,166.66 136.36,302.14 364.53,302.14 53.47,0 99.33,-2.24 144.38,-20.5 90.8,-36.83 152.03,-88.85 196.46,-178.64 z"
       id="path60" />
    <path
       inkscape:connector-curvature="0"
       style="fill:#ffffff"
       d="m 711.64,1086.07 c -9.36,-10.75 -63.12,43.33 -100.91,115.47 -21.84,35.37 60.34,94.67 64.5,31.21 5.2,-71.78 54.44,-126.5 36.41,-146.68 z"
       id="path924" />
    <path
       inkscape:connector-curvature="0"
       style="fill:#0da54a"
       d="m 898.89,1021.57 c 0,0 -48.89,-49.93 -57.21,-79.06 -1,10.4 1,47.85 19.76,74.9 0,0 -85.3,4.16 -96.74,16.64 0,0 80.1,12.49 99.86,2.08 0,0 -9.36,69.7 4.16,92.59 0,0 38.5,-60.34 34.33,-77 0,0 92.59,26 117.56,18.72 -7.29,-12.48 -73.86,-40.57 -97.79,-39.53 26.81,-11.8 44.73,-46.81 44.73,-46.81 0,0 -58.25,32.27 -68.66,37.47 z"
       id="path920" />
  </g>
  <g
     transform="translate(-414,-37.163649)"
     id="layer2">
    <g
       id="g990">
      <path
         inkscape:connector-curvature="0"
         style="fill:#ca3d27;stroke:#050507;stroke-width:7.85292;stroke-linecap:round;stroke-linejoin:round"
         d="m 1214,1330.37 h 109 v 109 h -109 z"
         id="path984" />
      <path
         inkscape:connector-curvature="0"
         style="fill:#ca3d27;stroke:#050507;stroke-width:7.85292;stroke-linecap:round;stroke-linejoin:round"
         d="m 1323,1330.37 58.5,-33.34 v 109 l -58.5,33.34 z"
         id="path986" />
      <path
         inkscape:connector-curvature="0"
         style="fill:#ca3d27;stroke:#050507;stroke-width:7.85292;stroke-linecap:round;stroke-linejoin:round"
         d="m 1272.49,1297 h 109 l -58.5,33.34 H 1214 Z"
         id="path988" />
    </g>
    <g
       id="g982">
      <path
         inkscape:connector-curvature="0"
         style="fill:#ca3d27;stroke:#050507;stroke-width:7.85292;stroke-linecap:round;stroke-linejoin:round"
         d="m 1272.49,1422 h 109 v 109 h -109 z"
         id="rect957" />
      <path
         inkscape:connector-curvature="0"
         style="fill:#ca3d27;stroke:#050507;stroke-width:7.85292;stroke-linecap:round;stroke-linejoin:round"
         d="m 1381.46,1422 58.5,-33.35 v 109 l -58.5,33.34 z"
         id="path975" />
      <path
         inkscape:connector-curvature="0"
         style="fill:#ca3d27;stroke:#050507;stroke-width:7.85292;stroke-linecap:round;stroke-linejoin:round"
         d="m 1331,1388.63 h 109 l -58.5,33.35 h -109 z"
         id="path977" />
    </g>
    <g
       id="g998">
      <path
         inkscape:connector-curvature="0"
         style="fill:#ca3d27;stroke:#050507;stroke-width:7.85292;stroke-linecap:round;stroke-linejoin:round"
         d="m 1062.5,1472.68 h 109 v 109 h -109 z"
         id="path992" />
      <path
         inkscape:connector-curvature="0"
         style="fill:#ca3d27;stroke:#050507;stroke-width:7.85292;stroke-linecap:round;stroke-linejoin:round"
         d="m 1171.47,1472.68 58.5,-33.34 v 109 l -58.5,33.34 z"
         id="path994" />
      <path
         inkscape:connector-curvature="0"
         style="fill:#ca3d27;stroke:#050507;stroke-width:7.85292;stroke-linecap:round;stroke-linejoin:round"
         d="m 1121,1439.34 h 109 l -58.5,33.34 h -109 z"
         id="path996" />
    </g>
  </g>
  <path
     inkscape:connector-curvature="0"
     style="fill:#6d6e71;stroke:#010101;stroke-width:24;stroke-linecap:round;stroke-linejoin:round"
     d="m 1153.53,392.09635 c 11.65,-31.52 -199,-149 -476.13,-251.42 C 400.27,38.256351 162.67,-9.9236488 151.05,21.516351 c -11.62,31.44 196.86,154.479999 474,256.939999 277.14,102.46 516.83,145.16 528.48,113.64 z"
     data-name="path900"
     id="path900-7" />
</svg>
