<svg id="Layer_1" data-name="Layer 1" xmlns="http://www.w3.org/2000/svg" xmlns:xlink="http://www.w3.org/1999/xlink" viewBox="0 0 2000 2000"><defs><clipPath id="clip-path"><path d="M2098.37,810l51.83,603.68c91.3,81.93,446.52,143,870.8,143s779.5-61.09,870.8-143L3943.63,810c-132,79-495.22,135.81-922.63,135.81S2230.38,889.07,2098.37,810Z" style="fill:none"/></clipPath></defs><path d="M602.59,530.74a298.81,298.81,0,0,1-21.24,35.84c-57.52,81.6-170.46,118.13-212.22,208.15-18.46,39.8-20,84.92-38.6,124.65-37.14,79.23-137.77,129.42-145.34,214.9-4.52,51,27.61,96.62,29,147.48,1.09,40.86-17.63,80.47-30.72,120.1s-20,85.52,2.49,118.4c7.89,11.57,19,20.84,25,33.57,7.09,15.06,6.06,32.89,7.68,49.74a148.08,148.08,0,0,0,22.47,65.11,145.89,145.89,0,0,0,21.68,26.58c8.18,7.89,18.55,13.29,26.38,21.27,10.59,10.78,24.69,19.79,33,32.7,2.31,3.6,3.66,7.76,6,11.35,7.51,11.59,20.76,20,32.76,26.4,26.38,14.17,57,20.2,87.38,22,47.19,2.87,95.36-3.06,142.07,2.93,58.53,7.49,118.11,33.25,174.85,11.52,43.68-16.74,74.05-57.91,114.1-82.73,73.09-45.29,170.39-31.81,239.65-83,35.94-26.57,59.33-67.31,94.46-95,41.36-32.57,94.21-43.63,144.2-57.5,59.25-16.43,121.35-41.12,157.79-91.68,33.16-46,40-106.91,77.06-149.93a345.74,345.74,0,0,1,58.89-54c27.71-20.22,54.71-41.82,77.87-67.31,32.41-35.67,57.23-80.31,60-127,4.72-80.91-56-155.91-33.82-235,16.64-59.32,77.77-108,73.12-168.11-2.55-33.11-25.25-60-33.4-91.83-8.43-32.89-1.11-68,2.16-101.75,1.6-16.54,2.47-33.29,0-49.52-1.17-7.61-2.4-15.55-4-23-2.94-13.7-14-23.83-22.55-34.13-13.2-15.84-27.11-33.14-45-44.09-7-4.29-14-8-20.41-13.21-16.67-13.7-33.43-23.93-54.94-29.27-42.66-10.6-90.12-4.38-132.93,9.18-71.36,22.6-142.3,60.81-215.14,54.6-93.21-7.95-174.17-88.1-266.51-63.55C955.15,227,909.08,318.44,832.54,352.91c-47,21.16-102.37,19.26-145,48.68C644.35,431.35,626.91,483.46,602.59,530.74Z" style="fill:#c93c27;stroke:#3a3632;stroke-linejoin:round;stroke-width:20px"/><path d="M724.21,671.38a295.39,295.39,0,0,1-18.62,30.19c-49.71,69.42-141.42,107.18-179,182.09C510,916.78,506.68,952.85,490,985.93c-33.35,66-115.89,113.66-126,182.34-6,41,17.41,74.85,16.07,115.27-.82,24.89-8.07,56.64-25.47,75.44-6.33,6.84-9.74,13.87-9.93,23.2-.35,17,10.17,34.43,26,40.41,25.12,9.48,54.64-2.88,75.7-21.1s36.66-41.91,56.41-61.56c56.54-56.27,141.42-74.57,199.88-128.84,31.14-28.89,49.28-67.33,76.75-98.57,8.5-9.66,14.93-21.6,21-32.9,12.3-23.09,22.37-47.61,38.43-68.49,31.29-40.7,80-61.61,122.61-87.78,41-25.17,87.16-63.91,103.77-110.63,6.7-18.85,8-39.11,15-57.86,29.61-79,132.41-94.56,198.75-129,17.4-9,36.38-19.91,50.29-33.87,8.06-8.09,14.92-17.9,22.28-26.64,29.35-34.88,59.31-69.32,91.59-101.55,17.23-17.21,35.1-34.53,47.89-55.44,8.32-13.59,24.23-45.46,10.67-59.58-20.77-21.63-62.3,10.95-81.27,21.26-2.15,1.17-4.28,2.35-6.5,3.36-37.93,17.34-78.11,35.49-119.93,36-73.88.81-134.57-56.83-209.3-30.19-65.12,23.2-106.17,99.6-168.78,132.94C877.42,532.54,833.38,535.28,798,562,762.2,589,745.83,631.86,724.21,671.38Z" style="fill:#8e0617;stroke:#3a3632;stroke-linejoin:round;stroke-width:20px"/><path d="M1157.81,966.7c-10.27,19-21.74,37.07-38.07,51-26.71,22.86-63.13,31.78-90.06,54.39-32.77,27.52-46.64,70.73-66.53,108.62-26.84,51.12-67.23,94.87-115.49,126.46-21.74,14.24-49.86,22-69.46,38.78-6.59,5.64-11.79,12.74-18.21,18.59-11.13,10.15-24,18.54-35.86,27.76-20.77,16.08-41,33-59,52.19-21.49,23-39.48,48.89-57.39,74.73l-55.86,80.59c-6.27,9.05-14.77,22.69-5.36,32.6,8.8,9.28,15.33.74,24.18-2.67,12.7-4.89,29.95-3.5,43.47-4.34,15.22-1,30.51-1.52,45.74-.42,45.28,3.27,90.58,20.69,135.75,1.31,34.77-14.93,60.24-48.28,92.54-69.33,58.94-38.42,134.17-32.2,190.39-75.06,29.16-22.24,49.18-55,77.77-78,33.66-27.14,75.32-38,114.89-51,46.88-15.38,96.36-37.3,127-78.21,27.85-37.23,35.83-84.89,66.61-120a318.17,318.17,0,0,1,48.26-44.58c22.48-16.94,44.47-34.92,63.63-55.75,26.82-29.16,48.11-65,52.28-101.42,7.22-63.13-36.82-118.79-16.07-181.25,15.56-46.86,65.33-87.38,64.34-133.93-.54-25.64-17-45.55-22-70-4.38-21.54-1.37-45.87,5.32-66.59,2-6.25,3.38-9-.14-15.33-6.93-12.55-24.32-18.38-37.84-15.86-18.78,3.51-33.5,17.77-46.45,31.82-34.82,37.78-63.45,80.5-100.06,116.54-14.58,14.35-24,30.44-32.23,49.13-23.46,53.28-58.8,100.29-105.18,135.79a320.21,320.21,0,0,1-42.2,27.37c-29.24,15.84-61.48,27.68-85.41,50.77C1187,904.77,1173.83,937,1157.81,966.7Z" style="fill:#8e0617;stroke:#3a3632;stroke-linejoin:round;stroke-width:20px"/><path d="M882,1367.12c.46,10.16,11.17,16.05,19.59,21.76,16.21,11,28.22,28.94,29.59,48.49s-9.13,40.08-26.95,48.25-41.78,1.49-50.9-15.85c-8.54-16.25-3.29-36.13,3.38-53.23a372.41,372.41,0,0,1,20.26-43.49" style="fill:#ca7a4c;stroke:#3a3632;stroke-linecap:round;stroke-linejoin:round;stroke-width:10px"/><path d="M713.94,1480c.37,8.45,9.28,13.35,16.28,18.1,13.48,9.15,23.47,24.06,24.6,40.31s-7.59,33.33-22.4,40.12-34.74,1.25-42.33-13.18c-7.1-13.51-2.73-30,2.81-44.26a312.37,312.37,0,0,1,16.85-36.16" style="fill:#ca7a4c;stroke:#3a3632;stroke-linecap:round;stroke-linejoin:round;stroke-width:10px"/><path d="M1078.56,1183.67c5.43,8.6,17.67,8.39,27.8,9.18,19.54,1.5,38.87,11.11,49.76,27.4s12,39.33.55,55.26-35.52,22-52.05,11.51c-15.48-9.87-20.79-29.73-23.49-47.89a375.2,375.2,0,0,1-4-47.81" style="fill:#ca7a4c;stroke:#3a3632;stroke-linecap:round;stroke-linejoin:round;stroke-width:10px"/><path d="M1315.72,929.61c8.65,5.34,19.55-.2,29-3.94,18.23-7.22,39.81-7.06,56.74,2.81s28,30.1,24.73,49.42-22.27,35.39-41.74,33.17c-18.24-2.08-31.72-17.61-42.11-32.75a374.71,374.71,0,0,1-24.56-41.21" style="fill:#ca7a4c;stroke:#3a3632;stroke-linecap:round;stroke-linejoin:round;stroke-width:10px"/><path d="M1462.61,724.32c9.15,1.71,16.63-6.63,23.47-13,13.19-12.18,31.68-19.18,49.4-16.34s33.87,16.46,37.46,34-7.33,37.59-24.69,42.13c-16.27,4.26-32.92-4.55-46.8-14.05a342.66,342.66,0,0,1-34.6-27.09" style="fill:#ca7a4c;stroke:#3a3632;stroke-linecap:round;stroke-linejoin:round;stroke-width:10px"/><path d="M1262.54,1098.43c7.36,7,19.18,3.84,29.2,2.13,19.32-3.3,40.4,1.31,54.93,14.47s21.18,35.23,14,53.46-29.1,30-47.69,23.83c-17.42-5.8-27.4-23.77-34.44-40.73a372.49,372.49,0,0,1-15.51-45.4" style="fill:#ca7a4c;stroke:#3a3632;stroke-linecap:round;stroke-linejoin:round;stroke-width:10px"/><path d="M636.13,1116.7c-10.15-.63-15.84-11.46-21.4-20-10.7-16.41-28.41-28.75-47.93-30.48s-40.24,8.4-48.74,26.06S515.8,1134,533,1143.48c16.09,8.84,36.06,4,53.29-2.4a373.63,373.63,0,0,0,43.85-19.45" style="fill:#ca7a4c;stroke:#3a3632;stroke-linecap:round;stroke-linejoin:round;stroke-width:10px"/><path d="M520.21,1282.63c-8.44-.53-13.17-9.53-17.79-16.61-8.9-13.65-23.63-23.91-39.86-25.34s-33.46,7-40.52,21.66-1.89,34.71,12.4,42.56c13.37,7.35,30,3.29,44.3-2a311.25,311.25,0,0,0,36.46-16.18" style="fill:#ca7a4c;stroke:#3a3632;stroke-linecap:round;stroke-linejoin:round;stroke-width:10px"/><path d="M823.17,923.53c-8.5-5.59-8.07-17.82-8.66-28C813.36,876,804.11,856.5,788,845.31s-39.09-12.69-55.24-1.57-22.69,35.11-12.46,51.83c9.58,15.66,29.34,21.33,47.45,24.37a372.59,372.59,0,0,0,47.72,4.88" style="fill:#ca7a4c;stroke:#3a3632;stroke-linecap:round;stroke-linejoin:round;stroke-width:10px"/><path d="M1081.55,691.09c-5.18-8.74.57-19.54,4.48-28.93,7.55-18.08,7.79-39.66-1.76-56.77s-29.58-28.55-49-25.64-35.79,21.62-33.93,41.13c1.74,18.27,17,32,32,42.7a372.57,372.57,0,0,0,40.76,25.31" style="fill:#ca7a4c;stroke:#3a3632;stroke-linecap:round;stroke-linejoin:round;stroke-width:10px"/><path d="M1289.51,548c-1.53-9.18,7-16.51,13.39-23.23,12.43-13,19.76-31.32,17.26-49.09s-15.84-34.16-33.35-38.08-37.72,6.63-42.58,23.91c-4.55,16.19,4,33,13.19,47.05a340.54,340.54,0,0,0,26.45,35.09" style="fill:#ca7a4c;stroke:#3a3632;stroke-linecap:round;stroke-linejoin:round;stroke-width:10px"/><path d="M911.79,741.15c-6.88-7.49-3.49-19.24-1.6-29.23,3.65-19.25-.57-40.42-13.45-55.19s-34.83-21.82-53.2-15S813,670.3,818.84,689c5.48,17.52,23.26,27.83,40.09,35.19A374,374,0,0,0,904,740.53" style="fill:#ca7a4c;stroke:#3a3632;stroke-linecap:round;stroke-linejoin:round;stroke-width:10px"/><path d="M1811.94,323.33c-3.52-4.14-8.23-7.25-11.17-11.8-6.78-10.48-2.35-25.12-8.18-36.14-7.08-13.37-25-15.31-38.21-22.77-19.65-11.15-28.35-34.94-45.41-49.74a62.36,62.36,0,0,0-31.91-14.54c-12.41-1.76-28.38,3.33-29.61,15.81-1,10.51,9.35,19.39,9,29.95-.12,3.64-1.52,7.15-1.59,10.79-.2,9.86,9.14,17.21,18.27,20.93s19.41,5.79,26.5,12.65c10.21,9.89,12.1,28.16,25.36,33.3,4,1.57,8.52,1.56,12.61,3,7.78,2.64,12.75,9.65,17.82,15.66,5.4,6.41,11.22,11,19.73,12.27,5.53.83,10.24-1,15.63-1.57,6.48-.67,14.12,3,20.26.24C1818.66,337.86,1816.24,328.39,1811.94,323.33Z" style="fill:#ca7a4c;stroke:#3a3632;stroke-linejoin:round;stroke-width:20px"/><g style="clip-path:url(#clip-path)"><path d="M3347.62,1357.74c-35.92,109-274,133.48-443.32,77.69-49.17-16.2-98.39-40.58-137.19-76.38a242.38,242.38,0,0,1-49.87-63.82c-13.81-25.93-19.56-55.2-33.44-81.1-6.57-12.27-16.1-22.19-51.83-33.49l-1085-322.77c-27.49-7.68-56.4-56.53-43.06-103.62l2.42-7.34c17.27-45.8,69.56-67.89,96.23-57.72l1064.37,385.5c35.44,12.17,49,9.85,61.58,3.89,26.55-12.57,48.58-32.69,75.1-45.33a242.43,242.43,0,0,1,78-21.68c52.48-5.72,106.55,3.94,155.73,20.15,169.3,55.79,346.2,217,310.28,326" style="fill:#d0d2d3;stroke:#3a3632;stroke-miterlimit:10;stroke-width:20px"/></g></svg>