<svg id="Layer_1" data-name="Layer 1" xmlns="http://www.w3.org/2000/svg" width="2000" height="2000" viewBox="0 0 2000 2000"><path d="M1306.72,267.17l27.63,70,71.94-22c286-87.6,531.51,220.25,382.47,479.6L1751.27,860l62.08,42.51c246.8,169,159.18,552.88-136.5,598.05l-74.38,11.37,5.47,75c21.76,298.32-333,469.17-552.68,266.16L1000,1802l-55.26,51.07c-219.67,203-574.44,32.16-552.68-266.16l5.47-75-74.38-11.37c-295.68-45.17-383.3-429-136.5-598L248.73,860l-37.49-65.23c-149-259.35,96.47-567.2,382.47-479.6l71.94,22,27.63-70C803.12-11.06,1196.88-11.06,1306.72,267.17Z" style="fill:#fff;stroke:#231f20;stroke-linecap:round;stroke-linejoin:round;stroke-width:55"/><path d="M1728.65,1372.89v-398l-59.78-40.93v458.79A226.19,226.19,0,0,0,1728.65,1372.89Z" style="fill:#ef3f3f"/><path d="M1668.87,787.38l26.6-46.27c40.6-70.68,40.84-151.09.6-220.6a232.86,232.86,0,0,0-27.2-37.75Z" style="fill:#ef3f3f"/><path d="M1495.73,407.74A235.08,235.08,0,0,0,1437.8,418l-1.85.56V1768.91q4.14-4,8.06-8.22a211.36,211.36,0,0,0,51.72-97.12v-136l-7.82-107.11,7.82-1.19Z" style="fill:#ef3f3f"/><path d="M1203,298V1820.66a209.74,209.74,0,0,0,59.78,12.78V449l-56.18-142.33C1205.47,303.73,1204.27,300.87,1203,298Z" style="fill:#ef3f3f"/><path d="M970.11,1683.11l29.91-27.64,29.87,27.62v-1515a222.15,222.15,0,0,0-59.78,0Z" style="fill:#ef3f3f"/><path d="M737.19,449V1833.43A209.07,209.07,0,0,0,797,1820.65V298q-1.86,4.25-3.61,8.65Z" style="fill:#ef3f3f"/><path d="M564.05,418.56,562.2,418a235.08,235.08,0,0,0-57.93-10.26V1419.31l7.8,1.19-7.8,106.94v136.19A211.48,211.48,0,0,0,556,1760.72q3.91,4.21,8.06,8.22Z" style="fill:#ef3f3f"/><path d="M331.13,787.38V482.78A233,233,0,0,0,304,520.51c-40.24,69.52-40,149.92.59,220.6Z" style="fill:#ef3f3f"/><path d="M271.35,1372.9a226.56,226.56,0,0,0,59.78,19.83V933.92l-59.78,40.94Z" style="fill:#ef3f3f"/></svg>
