<svg id="Layer_1" data-name="Layer 1" xmlns="http://www.w3.org/2000/svg" width="2000" height="2000" viewBox="0 0 2000 2000"><path d="M1306.72,267.17l27.63,70,71.94-22c286-87.6,531.51,220.25,382.47,479.6L1751.27,860l62.08,42.51c246.8,169,159.18,552.88-136.5,598.05l-74.38,11.37,5.47,75c21.76,298.32-333,469.17-552.68,266.16L1000,1802l-55.26,51.07c-219.67,203-574.44,32.16-552.68-266.16l5.47-75-74.38-11.37c-295.68-45.17-383.3-429-136.5-598L248.73,860l-37.49-65.23c-149-259.35,96.47-567.2,382.47-479.6l71.94,22,27.63-70C803.12-11.06,1196.88-11.06,1306.72,267.17Z" style="fill:#fff;stroke:#231f20;stroke-linecap:round;stroke-linejoin:round;stroke-width:55"/><path d="M793.36,306.66,782.6,333.91A112.16,112.16,0,0,0,912.48,183.59C864.2,203.62,818.79,242.25,793.36,306.66Z" style="fill:#712877"/><path d="M1087.52,183.6a112.15,112.15,0,0,0,129.86,150.31l-10.75-27.25C1181.2,242.26,1135.79,203.62,1087.52,183.6Z" style="fill:#712877"/><path d="M344.85,533a111.59,111.59,0,0,0-12.54-51.55A232.84,232.84,0,0,0,304,520.51c-21.34,36.87-31.3,76.8-29.89,116.71A112.13,112.13,0,0,0,344.85,533Z" style="fill:#712877"/><path d="M504.29,533a112.09,112.09,0,1,0,197.89-72.12l-116.55-35.7A112.15,112.15,0,0,0,504.29,533Z" style="fill:#712877"/><circle cx="1000" cy="532.99" r="112.09" transform="translate(-83.99 863.22) rotate(-45)" style="fill:#712877"/><path d="M1297.83,460.86a112.07,112.07,0,1,0,116.54-35.69Z" style="fill:#712877"/><path d="M1655.15,533A112.12,112.12,0,0,0,1726,637.22c1.41-39.91-8.54-79.85-29.88-116.71a232.47,232.47,0,0,0-28.38-39.08A111.63,111.63,0,0,0,1655.15,533Z" style="fill:#712877"/><path d="M424.57,953.3a112.09,112.09,0,1,0-95.88-170.17l62.86,109.4-44,30.13A111.7,111.7,0,0,0,424.57,953.3Z" style="fill:#712877"/><circle cx="808.19" cy="841.22" r="112.09" transform="translate(-358.12 817.86) rotate(-45)" style="fill:#712877"/><circle cx="1191.81" cy="841.22" r="112.09" transform="translate(-245.76 1089.12) rotate(-45)" style="fill:#712877"/><path d="M1575.43,953.3a111.69,111.69,0,0,0,77-30.63l-44-30.14,62.89-109.39a112.09,112.09,0,1,0-95.88,170.16Z" style="fill:#712877"/><path d="M232.76,1037.36a111.86,111.86,0,0,0-41.44,7.91c-41.6,57.39-47.06,125.63-34.95,178.71q1.09,4.82,2.45,9.7a112.09,112.09,0,1,0,73.94-196.32Z" style="fill:#712877"/><circle cx="616.38" cy="1149.45" r="112.09" transform="translate(-632.25 772.51) rotate(-45)" style="fill:#712877"/><circle cx="1000" cy="1149.45" r="112.09" transform="translate(-519.89 1043.77) rotate(-45)" style="fill:#712877"/><circle cx="1383.62" cy="1149.45" r="112.09" transform="translate(-407.53 1315.03) rotate(-45)" style="fill:#712877"/><path d="M1808.67,1045.27a112.1,112.1,0,1,0,32.51,188.41q1.35-4.89,2.45-9.72C1855.75,1170.89,1850.28,1102.65,1808.67,1045.27Z" style="fill:#712877"/><path d="M503.56,1537.19A112.09,112.09,0,1,0,333,1393.07q3.18.57,6.43,1.08l172.67,26.35Z" style="fill:#712877"/><circle cx="808.19" cy="1457.67" r="112.09" transform="translate(-794.02 998.42) rotate(-45)" style="fill:#712877"/><circle cx="1191.81" cy="1457.67" r="112.09" transform="translate(-681.66 1269.68) rotate(-45)" style="fill:#712877"/><path d="M1660.58,1394.15q3.26-.51,6.45-1.09a112.09,112.09,0,1,0-170.6,144.12l-8.52-116.68Z" style="fill:#712877"/><path d="M728.47,1765.9a112.1,112.1,0,0,0-208.39-57.37A215.07,215.07,0,0,0,556,1760.72c38.66,41.6,93.74,68,150,72.48A111.6,111.6,0,0,0,728.47,1765.9Z" style="fill:#712877"/><path d="M1111.86,1758.88a112.08,112.08,0,0,0-223.72,0L1000,1655.47Z" style="fill:#712877"/><path d="M1383.62,1653.82A112.09,112.09,0,0,0,1294,1833.2c56.29-4.53,111.36-30.92,150-72.51a215,215,0,0,0,35.9-52.18A112,112,0,0,0,1383.62,1653.82Z" style="fill:#712877"/></svg>
