<?xml version="1.0" encoding="UTF-8" standalone="no"?>
<svg
   xmlns:dc="http://purl.org/dc/elements/1.1/"
   xmlns:cc="http://creativecommons.org/ns#"
   xmlns:rdf="http://www.w3.org/1999/02/22-rdf-syntax-ns#"
   xmlns:svg="http://www.w3.org/2000/svg"
   xmlns="http://www.w3.org/2000/svg"
   xmlns:sodipodi="http://sodipodi.sourceforge.net/DTD/sodipodi-0.dtd"
   xmlns:inkscape="http://www.inkscape.org/namespaces/inkscape"
   inkscape:export-ydpi="94.199997"
   inkscape:export-xdpi="94.199997"
   inkscape:export-filename="/Users/marc-andrelanglais/Google Drive File Stream/Shared drives/Autonome Team Drive/03 - Application &amp; Web Site/Application/Assets/Pictograms/Ingredients/In Production/png/ground_mustard.png"
   width="250.00002"
   height="250.00002"
   viewBox="0 0 66.145836 66.145839"
   version="1.1"
   id="svg1223"
   inkscape:version="1.0beta1 (32d4812, 2019-09-19)"
   sodipodi:docname="ground_mustard.svg">
  <defs
     id="defs1217" />
  <sodipodi:namedview
     id="base"
     pagecolor="#ffffff"
     bordercolor="#666666"
     borderopacity="1.0"
     inkscape:pageopacity="0.0"
     inkscape:pageshadow="2"
     inkscape:zoom="1.979899"
     inkscape:cx="125.00001"
     inkscape:cy="125.00002"
     inkscape:document-units="mm"
     inkscape:current-layer="layer2"
     inkscape:document-rotation="0"
     showgrid="false"
     inkscape:window-width="1600"
     inkscape:window-height="907"
     inkscape:window-x="118"
     inkscape:window-y="60"
     inkscape:window-maximized="0"
     units=""
     fit-margin-top="0"
     fit-margin-left="0"
     fit-margin-right="0"
     fit-margin-bottom="0" />
  <metadata
     id="metadata1220">
    <rdf:RDF>
      <cc:Work
         rdf:about="">
        <dc:format>image/svg+xml</dc:format>
        <dc:type
           rdf:resource="http://purl.org/dc/dcmitype/StillImage" />
        <dc:title></dc:title>
      </cc:Work>
    </rdf:RDF>
  </metadata>
  <g
     sodipodi:insensitive="true"
     inkscape:label="Outer"
     inkscape:groupmode="layer"
     id="layer1"
     transform="translate(-72.760414,-83.0214)">
    <rect
       y="83.0214"
       x="72.760414"
       height="66.145836"
       width="66.145836"
       id="rect1786"
       style="opacity:0.99;fill:#000000;stroke:none;stroke-width:0.723469;stroke-linecap:round;stroke-linejoin:round" />
  </g>
  <g
     inkscape:groupmode="layer"
     id="layer2"
     inkscape:label="Inner"
     transform="translate(-72.760414,-83.0214)">
    <rect
       style="opacity:0.99;fill:#fff39a;fill-opacity:1;stroke:none;stroke-width:0.663181;stroke-linecap:round;stroke-linejoin:round"
       id="rect1788"
       width="60.63377"
       height="60.63377"
       x="75.516449"
       y="85.777435" />
  </g>
  <g
     inkscape:groupmode="layer"
     id="layer3"
     inkscape:label="Pattern"
     transform="translate(-72.760414,-83.0214)">
    <g
       id="g1953"
       transform="translate(-29.446426,1.8874628)"
       style="fill:#ff0000;fill-opacity:0">
      <path
         d="m 147.11564,121.51538 a 4.5273516,4.5273516 0 0 1 -4.52735,4.52735 4.5273516,4.5273516 0 0 1 -4.52735,-4.52735 4.5273516,4.5273516 0 0 1 4.52735,-4.52735 4.5273516,4.5273516 0 0 1 4.52735,4.52735"
         style="display:inline;opacity:1;fill:#ff0000;fill-opacity:0;stroke:none;stroke-width:3.30729;stroke-miterlimit:10;stroke-dasharray:none;stop-opacity:1"
         id="circle1084"
         inkscape:connector-curvature="0"
         inkscape:export-filename="/Users/marc-andrelanglais/workspace/OpenOrganix/Dev/JOCR/Cuistogo_Android/app/src/main/assets/svg/choco_chips.png"
         inkscape:export-xdpi="94.199997"
         inkscape:export-ydpi="94.199997" />
      <path
         d="m 161.73269,121.51538 a 4.5273516,4.5273516 0 0 1 -4.52735,4.52735 4.5273516,4.5273516 0 0 1 -4.52735,-4.52735 4.5273516,4.5273516 0 0 1 4.52735,-4.52735 4.5273516,4.5273516 0 0 1 4.52735,4.52735"
         style="display:inline;opacity:1;fill:#ff0000;fill-opacity:0;stroke:none;stroke-width:3.30729;stroke-miterlimit:10;stroke-dasharray:none;stop-opacity:1"
         id="circle931"
         inkscape:connector-curvature="0"
         inkscape:export-filename="/Users/marc-andrelanglais/workspace/OpenOrganix/Dev/JOCR/Cuistogo_Android/app/src/main/assets/svg/choco_chips.png"
         inkscape:export-xdpi="94.199997"
         inkscape:export-ydpi="94.199997" />
      <path
         d="m 142.58829,140.65979 a 4.5273516,4.5273516 0 0 1 -4.52735,-4.52736 4.5273516,4.5273516 0 0 1 4.52735,-4.52735 4.5273516,4.5273516 0 0 1 4.52735,4.52735 4.5273516,4.5273516 0 0 1 -4.52735,4.52736"
         style="display:inline;opacity:1;fill:#ff0000;fill-opacity:0;stroke:none;stroke-width:3.30729;stroke-miterlimit:10;stroke-dasharray:none;stop-opacity:1"
         id="circle948"
         inkscape:connector-curvature="0"
         inkscape:export-filename="/Users/marc-andrelanglais/workspace/OpenOrganix/Dev/JOCR/Cuistogo_Android/app/src/main/assets/svg/choco_chips.png"
         inkscape:export-xdpi="94.199997"
         inkscape:export-ydpi="94.199997" />
      <path
         d="m 157.20534,140.65979 a 4.5273516,4.5273516 0 0 1 -4.52735,-4.52736 4.5273516,4.5273516 0 0 1 4.52735,-4.52735 4.5273516,4.5273516 0 0 1 4.52735,4.52735 4.5273516,4.5273516 0 0 1 -4.52735,4.52736"
         style="display:inline;opacity:1;fill:#ff0000;fill-opacity:0;stroke:none;stroke-width:3.30729;stroke-miterlimit:10;stroke-dasharray:none;stop-opacity:1"
         id="circle968"
         inkscape:connector-curvature="0"
         inkscape:export-filename="/Users/marc-andrelanglais/workspace/OpenOrganix/Dev/JOCR/Cuistogo_Android/app/src/main/assets/svg/choco_chips.png"
         inkscape:export-xdpi="94.199997"
         inkscape:export-ydpi="94.199997" />
      <path
         d="m 132.4986,121.51538 a 4.5273516,4.5273516 0 0 1 -4.52736,4.52735 4.5273516,4.5273516 0 0 1 -4.52735,-4.52735 4.5273516,4.5273516 0 0 1 4.52735,-4.52735 4.5273516,4.5273516 0 0 1 4.52736,4.52735"
         style="display:inline;opacity:1;fill:#ff0000;fill-opacity:0;stroke:none;stroke-width:3.30729;stroke-miterlimit:10;stroke-dasharray:none;stop-opacity:1"
         id="circle933"
         inkscape:connector-curvature="0"
         inkscape:export-filename="/Users/marc-andrelanglais/workspace/OpenOrganix/Dev/JOCR/Cuistogo_Android/app/src/main/assets/svg/choco_chips.png"
         inkscape:export-xdpi="94.199997"
         inkscape:export-ydpi="94.199997" />
      <path
         d="m 127.97124,140.65979 a 4.5273516,4.5273516 0 0 1 -4.52735,-4.52736 4.5273516,4.5273516 0 0 1 4.52735,-4.52735 4.5273516,4.5273516 0 0 1 4.52736,4.52735 4.5273516,4.5273516 0 0 1 -4.52736,4.52736"
         style="display:inline;opacity:1;fill:#ff0000;fill-opacity:0;stroke:none;stroke-width:3.30729;stroke-miterlimit:10;stroke-dasharray:none;stop-opacity:1"
         id="circle958"
         inkscape:connector-curvature="0"
         inkscape:export-filename="/Users/marc-andrelanglais/workspace/OpenOrganix/Dev/JOCR/Cuistogo_Android/app/src/main/assets/svg/choco_chips.png"
         inkscape:export-xdpi="94.199997"
         inkscape:export-ydpi="94.199997" />
      <path
         inkscape:export-ydpi="94.199997"
         inkscape:export-xdpi="94.199997"
         inkscape:export-filename="/Users/marc-andrelanglais/workspace/OpenOrganix/Dev/JOCR/Cuistogo_Android/app/src/main/assets/svg/choco_chips.png"
         inkscape:connector-curvature="0"
         id="path1847"
         style="display:inline;opacity:1;fill:#ff0000;fill-opacity:0;stroke:none;stroke-width:3.30729;stroke-miterlimit:10;stroke-dasharray:none;stop-opacity:1"
         d="m 142.58829,102.37097 a 4.5273516,4.5273516 0 0 1 4.52735,4.52736 4.5273516,4.5273516 0 0 1 -4.52735,4.52735 4.5273516,4.5273516 0 0 1 -4.52735,-4.52735 4.5273516,4.5273516 0 0 1 4.52735,-4.52736" />
      <path
         d="m 142.58829,102.37097 a 4.5273516,4.5273516 0 0 1 4.52735,4.52736 4.5273516,4.5273516 0 0 1 -4.52735,4.52735 4.5273516,4.5273516 0 0 1 -4.52735,-4.52735 4.5273516,4.5273516 0 0 1 4.52735,-4.52736"
         style="display:inline;opacity:1;fill:#ff0000;fill-opacity:0;stroke:none;stroke-width:3.30729;stroke-miterlimit:10;stroke-dasharray:none;stop-opacity:1"
         id="path1857"
         inkscape:connector-curvature="0"
         inkscape:export-filename="/Users/marc-andrelanglais/workspace/OpenOrganix/Dev/JOCR/Cuistogo_Android/app/src/main/assets/svg/choco_chips.png"
         inkscape:export-xdpi="94.199997"
         inkscape:export-ydpi="94.199997" />
      <path
         inkscape:export-ydpi="94.199997"
         inkscape:export-xdpi="94.199997"
         inkscape:export-filename="/Users/marc-andrelanglais/workspace/OpenOrganix/Dev/JOCR/Cuistogo_Android/app/src/main/assets/svg/choco_chips.png"
         inkscape:connector-curvature="0"
         id="path1862"
         style="display:inline;opacity:1;fill:#ff0000;fill-opacity:0;stroke:none;stroke-width:3.30729;stroke-miterlimit:10;stroke-dasharray:none;stop-opacity:1"
         d="m 152.67798,106.89833 a 4.5273516,4.5273516 0 0 1 4.52736,-4.52735 4.5273516,4.5273516 0 0 1 4.52735,4.52735 4.5273516,4.5273516 0 0 1 -4.52735,4.52735 4.5273516,4.5273516 0 0 1 -4.52736,-4.52735" />
      <path
         inkscape:export-ydpi="94.199997"
         inkscape:export-xdpi="94.199997"
         inkscape:export-filename="/Users/marc-andrelanglais/workspace/OpenOrganix/Dev/JOCR/Cuistogo_Android/app/src/main/assets/svg/choco_chips.png"
         inkscape:connector-curvature="0"
         id="path1864"
         style="display:inline;opacity:1;fill:#ff0000;fill-opacity:0;stroke:none;stroke-width:3.30729;stroke-miterlimit:10;stroke-dasharray:none;stop-opacity:1"
         d="m 123.44389,106.89832 a 4.5273516,4.5273516 0 0 1 4.52735,-4.52734 4.5273516,4.5273516 0 0 1 4.52735,4.52734 4.5273516,4.5273516 0 0 1 -4.52735,4.52736 4.5273516,4.5273516 0 0 1 -4.52735,-4.52736" />
      <path
         inkscape:export-ydpi="94.199997"
         inkscape:export-xdpi="94.199997"
         inkscape:export-filename="/Users/marc-andrelanglais/workspace/OpenOrganix/Dev/JOCR/Cuistogo_Android/app/src/main/assets/svg/choco_chips.png"
         inkscape:connector-curvature="0"
         id="path1889"
         style="display:inline;opacity:1;fill:#ff0000;fill-opacity:0;stroke:none;stroke-width:3.30729;stroke-miterlimit:10;stroke-dasharray:none;stop-opacity:1"
         d="m 108.82683,121.51538 a 4.5273516,4.5273516 0 0 1 4.52736,-4.52735 4.5273516,4.5273516 0 0 1 4.52735,4.52735 4.5273516,4.5273516 0 0 1 -4.52735,4.52736 4.5273516,4.5273516 0 0 1 -4.52736,-4.52736" />
      <path
         d="m 108.82683,106.89833 a 4.5273516,4.5273516 0 0 1 4.52736,-4.52735 4.5273516,4.5273516 0 0 1 4.52735,4.52735 4.5273516,4.5273516 0 0 1 -4.52735,4.52736 4.5273516,4.5273516 0 0 1 -4.52736,-4.52736"
         style="display:inline;opacity:1;fill:#ff0000;fill-opacity:0;stroke:none;stroke-width:3.30729;stroke-miterlimit:10;stroke-dasharray:none;stop-opacity:1"
         id="path1901"
         inkscape:connector-curvature="0"
         inkscape:export-filename="/Users/marc-andrelanglais/workspace/OpenOrganix/Dev/JOCR/Cuistogo_Android/app/src/main/assets/svg/choco_chips.png"
         inkscape:export-xdpi="94.199997"
         inkscape:export-ydpi="94.199997" />
      <path
         d="m 108.82683,136.13243 a 4.5273516,4.5273516 0 0 1 4.52736,-4.52735 4.5273516,4.5273516 0 0 1 4.52735,4.52735 4.5273516,4.5273516 0 0 1 -4.52735,4.52736 4.5273516,4.5273516 0 0 1 -4.52736,-4.52736"
         style="display:inline;opacity:1;fill:#ff0000;fill-opacity:0;stroke:none;stroke-width:3.30729;stroke-miterlimit:10;stroke-dasharray:none;stop-opacity:1"
         id="path1903"
         inkscape:connector-curvature="0"
         inkscape:export-filename="/Users/marc-andrelanglais/workspace/OpenOrganix/Dev/JOCR/Cuistogo_Android/app/src/main/assets/svg/choco_chips.png"
         inkscape:export-xdpi="94.199997"
         inkscape:export-ydpi="94.199997" />
      <path
         d="m 147.11565,106.89833 a 4.5273516,4.5273516 0 0 1 -4.52736,4.52735 4.5273516,4.5273516 0 0 1 -4.52735,-4.52735 4.5273516,4.5273516 0 0 1 4.52735,-4.52735 4.5273516,4.5273516 0 0 1 4.52736,4.52735"
         style="display:inline;opacity:1;fill:#ff0000;fill-opacity:0;stroke:none;stroke-width:3.30729;stroke-miterlimit:10;stroke-dasharray:none;stop-opacity:1"
         id="path1911"
         inkscape:connector-curvature="0"
         inkscape:export-filename="/Users/marc-andrelanglais/workspace/OpenOrganix/Dev/JOCR/Cuistogo_Android/app/src/main/assets/svg/choco_chips.png"
         inkscape:export-xdpi="94.199997"
         inkscape:export-ydpi="94.199997" />
      <path
         d="m 142.5883,87.75393 a 4.5273516,4.5273516 0 0 1 4.52734,4.52735 4.5273516,4.5273516 0 0 1 -4.52734,4.52735 4.5273516,4.5273516 0 0 1 -4.52736,-4.52735 4.5273516,4.5273516 0 0 1 4.52736,-4.52735"
         style="display:inline;opacity:1;fill:#ff0000;fill-opacity:0;stroke:none;stroke-width:3.30729;stroke-miterlimit:10;stroke-dasharray:none;stop-opacity:1"
         id="path1917"
         inkscape:connector-curvature="0"
         inkscape:export-filename="/Users/marc-andrelanglais/workspace/OpenOrganix/Dev/JOCR/Cuistogo_Android/app/src/main/assets/svg/choco_chips.png"
         inkscape:export-xdpi="94.199997"
         inkscape:export-ydpi="94.199997" />
      <path
         d="m 152.67798,92.28128 a 4.5273516,4.5273516 0 0 1 4.52736,-4.52735 4.5273516,4.5273516 0 0 1 4.52735,4.52735 4.5273516,4.5273516 0 0 1 -4.52735,4.52735 4.5273516,4.5273516 0 0 1 -4.52736,-4.52735"
         style="display:inline;opacity:1;fill:#ff0000;fill-opacity:0;stroke:none;stroke-width:3.30729;stroke-miterlimit:10;stroke-dasharray:none;stop-opacity:1"
         id="path1929"
         inkscape:connector-curvature="0"
         inkscape:export-filename="/Users/marc-andrelanglais/workspace/OpenOrganix/Dev/JOCR/Cuistogo_Android/app/src/main/assets/svg/choco_chips.png"
         inkscape:export-xdpi="94.199997"
         inkscape:export-ydpi="94.199997" />
      <path
         d="m 123.44389,92.28127 a 4.5273516,4.5273516 0 0 1 4.52735,-4.52734 4.5273516,4.5273516 0 0 1 4.52735,4.52734 4.5273516,4.5273516 0 0 1 -4.52735,4.52736 4.5273516,4.5273516 0 0 1 -4.52735,-4.52736"
         style="display:inline;opacity:1;fill:#ff0000;fill-opacity:0;stroke:none;stroke-width:3.30729;stroke-miterlimit:10;stroke-dasharray:none;stop-opacity:1"
         id="path1931"
         inkscape:connector-curvature="0"
         inkscape:export-filename="/Users/marc-andrelanglais/workspace/OpenOrganix/Dev/JOCR/Cuistogo_Android/app/src/main/assets/svg/choco_chips.png"
         inkscape:export-xdpi="94.199997"
         inkscape:export-ydpi="94.199997" />
      <path
         inkscape:export-ydpi="94.199997"
         inkscape:export-xdpi="94.199997"
         inkscape:export-filename="/Users/marc-andrelanglais/workspace/OpenOrganix/Dev/JOCR/Cuistogo_Android/app/src/main/assets/svg/choco_chips.png"
         inkscape:connector-curvature="0"
         id="path1933"
         style="display:inline;opacity:1;fill:#ff0000;fill-opacity:0;stroke:none;stroke-width:3.30729;stroke-miterlimit:10;stroke-dasharray:none;stop-opacity:1"
         d="m 108.82683,92.281275 a 4.5273516,4.5273516 0 0 1 4.52736,-4.52735 4.5273516,4.5273516 0 0 1 4.52735,4.52735 4.5273516,4.5273516 0 0 1 -4.52735,4.52736 4.5273516,4.5273516 0 0 1 -4.52736,-4.52736" />
    </g>
  </g>
</svg>
