<svg id="Layer_1" data-name="Layer 1" xmlns="http://www.w3.org/2000/svg" viewBox="0 0 2000 2000"><path d="M1829.53,804.51c-13.67,13.84-36.62,44.64-36.62,95.79v992.92a56.78,56.78,0,0,1-56.77,56.78H263.83a56.77,56.77,0,0,1-56.77-56.78V895.81c0-56.71-31.14-89.57-42.11-101.14-56.61-60.24-84.18-131.91-84.18-219.09C80.77,290.71,501.74,50,1000,50c152.6,0,297.81,22.78,426,62.3,272.44,96.09,459.42,251.15,489,417.21,2.43,15.24,4.22,30.57,4.22,46.1C1919.2,668.14,1889.77,743.08,1829.53,804.51Z" style="fill:#716558;stroke:#3a3632;stroke-miterlimit:10;stroke-width:20px"/><path d="M263.83,1930a36.81,36.81,0,0,1-36.77-36.78V895.81c0-64.71-35.83-102.49-47.6-114.91-52.93-56.32-78.69-123.5-78.69-205.32,0-65.1,23.39-129.11,69.52-190.26,45.39-60.16,110.39-114.66,193.18-162C447,175.56,543.74,137.93,651,111.48,762.55,84,880,70,1000,70c144.35,0,289.49,21.19,419.75,61.29,132.32,46.71,246.06,108.48,328.92,178.64,41.07,34.76,74.4,71.39,99.07,108.85s40.72,75.92,47.53,114.06c2.73,17.16,3.94,30.36,3.94,42.77,0,87-27.5,157.3-84,214.9-15.78,16-42.34,51.55-42.34,109.79v992.92a36.82,36.82,0,0,1-36.77,36.78Z" style="fill:#fee3cd"/><circle cx="511.26" cy="709.69" r="57.89" style="fill:#edcab0"/><circle cx="1008.48" cy="557.41" r="49.42" style="fill:#edcab0"/><circle cx="1416.97" cy="998.89" r="40.94" style="fill:#edcab0"/><circle cx="896.71" cy="1349.28" r="18.91" style="fill:#edcab0"/><circle cx="1089.23" cy="1093.13" r="31.34" style="fill:#edcab0"/><circle cx="453.85" cy="1666.57" r="37.01" style="fill:#edcab0"/><circle cx="1206.19" cy="1661.88" r="41.69" style="fill:#edcab0"/><circle cx="1534.1" cy="1400.5" r="32.31" style="fill:#edcab0"/><circle cx="1419.34" cy="411.58" r="20.61" style="fill:#edcab0"/><circle cx="561.13" cy="317.89" r="28.11" style="fill:#edcab0"/></svg>