<svg id="Layer_1" data-name="Layer 1" xmlns="http://www.w3.org/2000/svg" viewBox="0 0 610.32 2000"><polygon points="423.68 541.39 423.68 385.9 186.64 385.9 186.64 541.39 86.99 825 86.99 1954.31 523.33 1954.31 523.33 825 423.68 541.39" style="fill:#21160d"/><rect x="186.64" y="258.7" width="237.03" height="127.21" style="fill:#fff"/><polygon points="423.68 541.39 423.68 258.69 186.64 258.69 186.64 541.39 86.99 825 86.99 1954.31 523.33 1954.31 523.33 825 423.68 541.39" style="fill:none;stroke:#3a3632;stroke-linecap:round;stroke-linejoin:round;stroke-width:20px"/><rect x="186.64" y="54.31" width="237.03" height="164.92" style="fill:#e51e26;stroke:#3a3632;stroke-linecap:round;stroke-linejoin:round;stroke-width:20px"/><line x1="186.64" y1="155.15" x2="423.68" y2="118.24" style="fill:none;stroke:#3a3632;stroke-linecap:round;stroke-linejoin:round;stroke-width:20px"/><line x1="186.64" y1="192.48" x2="423.68" y2="155.57" style="fill:none;stroke:#3a3632;stroke-linecap:round;stroke-linejoin:round;stroke-width:20px"/><line x1="186.64" y1="117.82" x2="423.68" y2="80.91" style="fill:none;stroke:#3a3632;stroke-linecap:round;stroke-linejoin:round;stroke-width:20px"/><rect x="141.21" y="1063.12" width="327.91" height="538.83" style="fill:#e51e26"/></svg>