<?xml version="1.0" encoding="UTF-8"?>
<svg id="Isolation_Mode" data-name="Isolation Mode" xmlns="http://www.w3.org/2000/svg" width="2000" height="2000" viewBox="0 0 2000 2000">
  <g>
    <g>
      <line x1="955.54" y1="453.05" x2="922.92" y2="445.03" style="fill: #fff6dd;"/>
      <g>
        <path d="m920.99,452.88l52.27,12.86c23.88-28.18,38.64-53.26,47.98-78.57,19.49-52.84,6.18-88.86-58.31-104.72-64.49-15.87-93,9.87-100.25,65.71-3.47,26.75-2.03,55.82,6.05,91.87,0,0,52.27,12.86,52.27,12.86Z" style="fill: #ffd836; stroke: #3a3632; stroke-miterlimit: 10; stroke-width: 10px;"/>
        <path d="m922.92,445.03l37.06,9.12s15.7-21.4,23.85-31.43c7.28-27.32-9.99-49.51-41.11-58.14-31.58-6.79-57.17,4.85-63.4,32.43,2.56,12.67,6.54,38.91,6.54,38.91,0,0,37.06,9.12,37.06,9.12Z" style="fill: #fff6dd;"/>
      </g>
      <line x1="889.56" y1="436.82" x2="922.18" y2="444.84" style="fill: #fff6dd;"/>
    </g>
    <g>
      <line x1="914.16" y1="451.32" x2="894.41" y2="478.5" style="fill: #fff6dd;"/>
      <g>
        <path d="m900.95,483.25l31.64-43.54c-17.08-32.75-34.73-55.89-54.64-74.1-41.56-38-79.95-39.27-118.99,14.46-39.04,53.73-25.98,89.84,23,117.64,23.46,13.32,50.92,22.96,87.35,29.09,0,0,31.64-43.54,31.64-43.54Z" style="fill: #ffd836; stroke: #3a3632; stroke-miterlimit: 10; stroke-width: 10px;"/>
        <path d="m894.41,478.5l22.44-30.88s-13.88-22.62-20.1-33.95c-22.55-17.06-49.62-9.44-69.36,16.12-18.21,26.67-17.09,54.77,6.09,70.95,12.7,2.42,38.5,8.64,38.5,8.64,0,0,22.44-30.88,22.44-30.88Z" style="fill: #fff6dd;"/>
      </g>
      <line x1="874.21" y1="506.29" x2="893.96" y2="479.12" style="fill: #fff6dd;"/>
    </g>
    <g>
      <line x1="739.46" y1="591.59" x2="707.06" y2="600.49" style="fill: #fff6dd;"/>
      <g>
        <path d="m709.2,608.29l51.9-14.26c7.11-36.25,7.77-65.35,3.58-91.99-8.74-55.63-37.93-80.59-101.97-63-64.05,17.59-76.39,53.96-55.48,106.25,10.01,25.05,25.44,49.73,50.07,77.26,0,0,51.9-14.26,51.9-14.26Z" style="fill: #ffd836; stroke: #3a3632; stroke-miterlimit: 10; stroke-width: 10px;"/>
        <path d="m707.06,600.49l36.8-10.11s3.28-26.34,5.49-39.07c-6.96-27.4-32.86-38.35-64.24-30.72-30.88,9.47-47.55,32.11-39.54,59.22,8.41,9.82,24.68,30.78,24.68,30.78,0,0,36.8-10.11,36.8-10.11Z" style="fill: #fff6dd;"/>
      </g>
      <line x1="673.93" y1="609.59" x2="706.32" y2="600.69" style="fill: #fff6dd;"/>
    </g>
    <g>
      <line x1="721.72" y1="604.46" x2="718.62" y2="571.01" style="fill: #fff6dd;"/>
      <g>
        <path d="m710.57,571.75l4.96,53.6c34.45,13.34,62.98,19.07,89.95,19.61,56.31,1.12,85.98-23.25,79.86-89.39-6.12-66.13-39.77-84.64-94.92-73.2-26.41,5.48-53.41,16.36-84.82,35.79,0,0,4.96,53.6,4.96,53.6Z" style="fill: #ffd836; stroke: #3a3632; stroke-miterlimit: 10; stroke-width: 10px;"/>
        <path d="m718.62,571.01l3.52,38.01s25.36,7.83,37.51,12.24c28.2-2.06,43.51-25.65,41.48-57.88-3.92-32.06-23.3-52.43-51.4-49.28-11.14,6.56-34.62,18.92-34.62,18.92,0,0,3.52,38.01,3.52,38.01Z" style="fill: #fff6dd;"/>
      </g>
      <line x1="715.46" y1="536.79" x2="718.55" y2="570.24" style="fill: #fff6dd;"/>
    </g>
    <g>
      <line x1="863.66" y1="438.26" x2="878.62" y2="408.18" style="fill: #fff6dd;"/>
      <g>
        <path d="m871.38,404.58l-23.97,48.19c22.28,29.46,43.53,49.35,66.19,63.99,47.3,30.57,85.36,25.45,114.94-34.02,29.58-59.47,10.7-92.91-42.22-112.18-25.35-9.23-54.03-14.18-90.97-14.18,0,0-23.97,48.19-23.97,48.19Z" style="fill: #ffd836; stroke: #3a3632; stroke-miterlimit: 10; stroke-width: 10px;"/>
        <path d="m878.62,408.18l-17,34.17s17.45,20,25.46,30.14c25.07,13.08,50.49,1.07,65.72-27.41,13.53-29.33,7.76-56.85-17.79-68.95-12.92-.27-39.4-2.12-39.4-2.12,0,0-17,34.17-17,34.17Z" style="fill: #fff6dd;"/>
      </g>
      <line x1="893.92" y1="377.41" x2="878.96" y2="407.49" style="fill: #fff6dd;"/>
    </g>
    <g>
      <line x1="981.1" y1="645.83" x2="949.17" y2="635.38" style="fill: #fff6dd;"/>
      <g>
        <path d="m946.65,643.06l51.15,16.75c25.93-26.31,42.53-50.21,53.74-74.75,23.4-51.22,12.83-88.14-50.29-108.81-63.12-20.66-93.48,2.86-104.9,58-5.47,26.42-6.22,55.51-.86,92.06,0,0,51.15,16.75,51.15,16.75Z" style="fill: #ffd836; stroke: #3a3632; stroke-miterlimit: 10; stroke-width: 10px;"/>
        <path d="m949.17,635.38l36.27,11.87s17.26-20.16,26.14-29.56c9.31-26.7-6.25-50.12-36.63-61.06-30.98-9.14-57.37.55-65.65,27.58,1.6,12.83,3.6,39.29,3.6,39.29,0,0,36.27,11.87,36.27,11.87Z" style="fill: #fff6dd;"/>
      </g>
      <line x1="916.51" y1="624.69" x2="948.44" y2="635.14" style="fill: #fff6dd;"/>
    </g>
    <g>
      <line x1="1080.23" y1="479.93" x2="1113.65" y2="476.42" style="fill: #fff6dd;"/>
      <g>
        <path d="m1112.8,468.38l-53.53,5.62c-12.92,34.61-18.31,63.21-18.51,90.18-.43,56.31,24.3,85.69,90.35,78.76,66.05-6.93,84.15-40.8,72.04-95.8-5.8-26.34-17-53.21-36.82-84.38,0,0-53.53,5.62-53.53,5.62Z" style="fill: #ffd836; stroke: #3a3632; stroke-miterlimit: 10; stroke-width: 10px;"/>
        <path d="m1113.65,476.42l-37.96,3.98s-7.52,25.45-11.78,37.66c2.41,28.17,26.18,43.19,58.38,40.77,32.01-4.31,52.14-23.94,48.65-52-6.7-11.05-19.34-34.39-19.34-34.39,0,0-37.96,3.98-37.96,3.98Z" style="fill: #fff6dd;"/>
      </g>
      <line x1="1147.82" y1="472.84" x2="1114.41" y2="476.34" style="fill: #fff6dd;"/>
    </g>
    <g>
      <line x1="1146.55" y1="693.37" x2="1117.59" y2="676.35" style="fill: #fff6dd;"/>
      <g>
        <path d="m1113.49,683.32l46.4,27.27c30.94-20.17,52.26-39.99,68.45-61.57,33.79-45.05,31.34-83.38-25.93-117.03-57.26-33.65-91.94-17.14-114.85,34.3-10.98,24.64-17.91,52.91-20.48,89.76,0,0,46.4,27.27,46.4,27.27Z" style="fill: #ffd836; stroke: #3a3632; stroke-miterlimit: 10; stroke-width: 10px;"/>
        <path d="m1117.59,676.35l32.91,19.34s21.16-16.01,31.84-23.3c14.79-24.1,4.59-50.3-22.77-67.47-28.31-15.54-56.17-11.7-70.02,12.94-1.17,12.87-4.86,39.15-4.86,39.15,0,0,32.91,19.34,32.91,19.34Z" style="fill: #fff6dd;"/>
      </g>
      <line x1="1087.97" y1="658.94" x2="1116.93" y2="675.96" style="fill: #fff6dd;"/>
    </g>
    <g>
      <line x1="1130.69" y1="630.11" x2="1143.55" y2="661.14" style="fill: #fff6dd;"/>
      <g>
        <path d="m1151.03,658.05l-20.61-49.72c-36.85-2.54-65.8.44-91.72,7.91-54.11,15.61-75.24,47.68-49.8,109.03,25.44,61.35,63.06,69.06,112.34,41.81,23.61-13.06,46.17-31.44,70.41-59.31,0,0-20.61-49.72-20.61-49.72Z" style="fill: #ffd836; stroke: #3a3632; stroke-miterlimit: 10; stroke-width: 10px;"/>
        <path d="m1143.55,661.14l-14.62-35.26s-26.54.03-39.45-.58c-26.32,10.32-33.96,37.39-22.47,67.57,13.24,29.46,37.79,43.18,63.69,31.85,8.69-9.57,27.47-28.32,27.47-28.32,0,0-14.62-35.26-14.62-35.26Z" style="fill: #fff6dd;"/>
      </g>
      <line x1="1156.71" y1="692.89" x2="1143.85" y2="661.85" style="fill: #fff6dd;"/>
    </g>
    <g>
      <line x1="902.29" y1="796.57" x2="869.42" y2="789.6" style="fill: #fff6dd;"/>
      <g>
        <path d="m867.75,797.51l52.65,11.17c22.96-28.93,36.91-54.48,45.43-80.08,17.78-53.44,3.32-89.01-61.66-102.79-64.97-13.78-92.63,12.85-98.08,68.91-2.61,26.85-.24,55.86,9,91.62,0,0,52.65,11.17,52.65,11.17Z" style="fill: #ffd836; stroke: #3a3632; stroke-miterlimit: 10; stroke-width: 10px;"/>
        <path d="m869.42,789.6l37.34,7.92s15-21.89,22.82-32.19c6.4-27.54-11.58-49.16-42.96-56.79-31.78-5.77-56.99,6.69-62.32,34.45,2.96,12.58,7.79,38.68,7.79,38.68,0,0,37.34,7.92,37.34,7.92Z" style="fill: #fff6dd;"/>
      </g>
      <line x1="835.81" y1="782.47" x2="868.67" y2="789.44" style="fill: #fff6dd;"/>
    </g>
    <g>
      <line x1="737.8" y1="842.2" x2="715.14" y2="817.4" style="fill: #fff6dd;"/>
      <g>
        <path d="m709.17,822.85l36.31,39.74c35.52-10.15,61.73-22.81,83.56-38.66,45.57-33.09,54.52-70.44,9.72-119.47-44.8-49.03-82.8-43.48-119.86-1.08-17.75,20.31-32.71,45.28-46.03,79.73,0,0,36.31,39.74,36.31,39.74Z" style="fill: #ffd836; stroke: #3a3632; stroke-miterlimit: 10; stroke-width: 10px;"/>
        <path d="m715.14,817.4l25.74,28.18s24.94-9.06,37.29-12.88c21.24-18.66,19.21-46.71-1.87-71.19-22.48-23.19-50.23-27.74-70.73-8.27-4.92,11.96-16.19,35.98-16.19,35.98,0,0,25.74,28.18,25.74,28.18Z" style="fill: #fff6dd;"/>
      </g>
      <line x1="691.96" y1="792.03" x2="714.62" y2="816.83" style="fill: #fff6dd;"/>
    </g>
    <g>
      <line x1="644.19" y1="684.69" x2="661.07" y2="655.64" style="fill: #fff6dd;"/>
      <g>
        <path d="m654.07,651.57l-27.04,46.54c20.33,30.84,40.25,52.06,61.91,68.14,45.22,33.56,83.53,30.92,116.9-26.51,33.36-57.43,16.68-92.02-34.87-114.68-24.7-10.85-53-17.65-89.86-20.03,0,0-27.04,46.54-27.04,46.54Z" style="fill: #ffd836; stroke: #3a3632; stroke-miterlimit: 10; stroke-width: 10px;"/>
        <path d="m661.07,655.64l-19.17,33s16.12,21.08,23.46,31.72c24.17,14.67,50.32,4.33,67.36-23.1,15.4-28.39,11.42-56.23-13.29-69.96-12.88-1.11-39.18-4.67-39.18-4.67,0,0-19.17,33-19.17,33Z" style="fill: #fff6dd;"/>
      </g>
      <line x1="678.33" y1="625.93" x2="661.45" y2="654.98" style="fill: #fff6dd;"/>
    </g>
    <g>
      <line x1="586.14" y1="598.71" x2="602.95" y2="627.8" style="fill: #fff6dd;"/>
      <g>
        <path d="m609.95,623.76l-26.93-46.61c-36.87,2.29-65.19,9.02-89.91,19.81-51.61,22.54-68.37,57.09-35.15,114.6,33.23,57.51,71.53,60.25,116.83,26.79,21.7-16.02,41.67-37.2,62.07-67.99,0,0-26.93-46.61-26.93-46.61Z" style="fill: #ffd836; stroke: #3a3632; stroke-miterlimit: 10; stroke-width: 10px;"/>
        <path d="m602.95,627.8l-19.09-33.05s-26.31,3.49-39.19,4.57c-24.75,13.67-28.79,41.5-13.46,69.93,16.97,27.48,43.1,37.88,67.3,23.27,7.37-10.62,23.54-31.67,23.54-31.67,0,0-19.09-33.05-19.09-33.05Z" style="fill: #fff6dd;"/>
      </g>
      <line x1="620.13" y1="657.55" x2="603.33" y2="628.47" style="fill: #fff6dd;"/>
    </g>
    <g>
      <line x1="632.29" y1="804.48" x2="617.53" y2="834.66" style="fill: #fff6dd;"/>
      <g>
        <path d="m624.8,838.21l23.65-48.35c-22.48-29.31-43.86-49.06-66.62-63.55-47.5-30.25-85.53-24.88-114.71,34.79-29.18,59.66-10.07,92.98,42.97,111.9,25.41,9.06,54.12,13.82,91.06,13.56,0,0,23.65-48.35,23.65-48.35Z" style="fill: #ffd836; stroke: #3a3632; stroke-miterlimit: 10; stroke-width: 10px;"/>
        <path d="m617.53,834.66l16.77-34.29s-17.58-19.88-25.66-29.97c-25.15-12.91-50.5-.73-65.54,27.85-13.33,29.42-7.38,56.9,18.25,68.83,12.93.19,39.41,1.86,39.41,1.86,0,0,16.77-34.29,16.77-34.29Z" style="fill: #fff6dd;"/>
      </g>
      <line x1="602.44" y1="865.53" x2="617.19" y2="835.35" style="fill: #fff6dd;"/>
    </g>
    <g>
      <line x1="806.24" y1="902.96" x2="786.61" y2="930.22" style="fill: #fff6dd;"/>
      <g>
        <path d="m793.17,934.95l31.46-43.68c-17.21-32.68-34.97-55.75-54.95-73.86-41.73-37.82-80.11-38.93-118.93,14.96-38.82,53.89-25.6,89.95,23.5,117.54,23.52,13.22,51.02,22.74,87.47,28.72,0,0,31.46-43.68,31.46-43.68Z" style="fill: #ffd836; stroke: #3a3632; stroke-miterlimit: 10; stroke-width: 10px;"/>
        <path d="m786.61,930.22l22.31-30.97s-13.98-22.56-20.25-33.86c-22.62-16.96-49.65-9.23-69.29,16.41-18.1,26.75-16.86,54.84,6.39,70.92,12.71,2.36,38.53,8.47,38.53,8.47,0,0,22.31-30.97,22.31-30.97Z" style="fill: #fff6dd;"/>
      </g>
      <line x1="766.53" y1="958.1" x2="786.16" y2="930.84" style="fill: #fff6dd;"/>
    </g>
    <g>
      <line x1="848.54" y1="888.2" x2="838.17" y2="856.24" style="fill: #fff6dd;"/>
      <g>
        <path d="m830.48,858.74l16.61,51.2c36.53,5.45,65.63,4.78,92.06-.61,55.18-11.27,78.78-41.56,58.29-104.74-20.49-63.18-57.38-73.85-108.67-50.58-24.57,11.14-48.52,27.68-74.9,53.54,0,0,16.61,51.2,16.61,51.2Z" style="fill: #ffd836; stroke: #3a3632; stroke-miterlimit: 10; stroke-width: 10px;"/>
        <path d="m838.17,856.24l11.78,36.31s26.46,2.07,39.28,3.71c27.06-8.2,36.82-34.58,27.76-65.58-10.86-30.42-34.24-46.04-60.96-36.8-9.42,8.85-29.63,26.06-29.63,26.06,0,0,11.78,36.31,11.78,36.31Z" style="fill: #fff6dd;"/>
      </g>
      <line x1="827.57" y1="823.56" x2="837.94" y2="855.51" style="fill: #fff6dd;"/>
    </g>
    <g>
      <line x1="988.07" y1="832.75" x2="1016.85" y2="815.41" style="fill: #fff6dd;"/>
      <g>
        <path d="m1012.67,808.48l-46.11,27.77c2.96,36.82,10.21,65.01,21.45,89.53,23.47,51.19,58.33,67.32,115.22,33.05,56.89-34.27,58.93-72.62,24.65-117.3-16.42-21.4-37.95-40.99-69.11-60.82,0,0-46.11,27.77-46.11,27.77Z" style="fill: #ffd836; stroke: #3a3632; stroke-miterlimit: 10; stroke-width: 10px;"/>
        <path d="m1016.85,815.41l-32.69,19.69s3.97,26.24,5.29,39.1c14.12,24.49,42.02,28.03,70.16,12.18,27.16-17.47,37.08-43.78,22.03-67.72-10.75-7.17-32.09-22.95-32.09-22.95,0,0-32.69,19.69-32.69,19.69Z" style="fill: #fff6dd;"/>
      </g>
      <line x1="1046.28" y1="797.68" x2="1017.5" y2="815.02" style="fill: #fff6dd;"/>
    </g>
    <g>
      <line x1="1180.66" y1="697.45" x2="1210.51" y2="712.87" style="fill: #fff6dd;"/>
      <g>
        <path d="m1214.22,705.68l-47.82-24.7c-29.8,21.83-50,42.78-64.99,65.21-31.28,46.83-26.74,84.96,32.27,115.44,59.01,30.47,92.73,12.1,112.81-40.52,9.62-25.2,15-53.81,15.55-90.74,0,0-47.82-24.7-47.82-24.7Z" style="fill: #ffd836; stroke: #3a3632; stroke-miterlimit: 10; stroke-width: 10px;"/>
        <path d="m1210.51,712.87l-33.91-17.51s-20.26,17.14-30.52,25c-13.45,24.87-1.83,50.47,26.42,66.13,29.12,13.97,56.73,8.62,69.21-16.75.47-12.92,2.72-39.36,2.72-39.36,0,0-33.91-17.51-33.91-17.51Z" style="fill: #fff6dd;"/>
      </g>
      <line x1="1241.04" y1="728.63" x2="1211.19" y2="713.22" style="fill: #fff6dd;"/>
    </g>
    <g>
      <line x1="1383.38" y1="794.57" x2="1381.51" y2="828.11" style="fill: #fff6dd;"/>
      <g>
        <path d="m1389.58,828.56l3.01-53.74c-32.1-18.28-59.47-28.17-86.07-32.68-55.52-9.42-88.47,10.3-92.18,76.61-3.71,66.31,26.83,89.59,83.06,86.42,26.93-1.52,55.24-8.29,89.18-22.87,0,0,3.01-53.74,3.01-53.74Z" style="fill: #ffd836; stroke: #3a3632; stroke-miterlimit: 10; stroke-width: 10px;"/>
        <path d="m1381.51,828.11l2.13-38.11s-23.92-11.49-35.29-17.64c-28.19-2.12-46.82,18.94-49.57,51.12-.85,32.29,15.3,55.3,43.56,56.33,11.98-4.85,37.04-13.6,37.04-13.6,0,0,2.13-38.11,2.13-38.11Z" style="fill: #fff6dd;"/>
      </g>
      <line x1="1379.59" y1="862.42" x2="1381.46" y2="828.88" style="fill: #fff6dd;"/>
    </g>
    <g>
      <line x1="1206.36" y1="753.88" x2="1191.05" y2="723.98" style="fill: #fff6dd;"/>
      <g>
        <path d="m1183.85,727.67l24.54,47.9c36.94-.43,65.56-5.72,90.79-15.25,52.68-19.9,71.17-53.56,40.88-112.68-30.28-59.11-68.4-63.78-115.33-32.65-22.48,14.91-43.5,35.05-65.42,64.77,0,0,24.54,47.9,24.54,47.9Z" style="fill: #ffd836; stroke: #3a3632; stroke-miterlimit: 10; stroke-width: 10px;"/>
        <path d="m1191.05,723.98l17.4,33.97s26.45-2.16,39.37-2.59c25.41-12.4,30.85-39.99,16.97-69.16-15.56-28.3-41.13-40-66.04-26.63-7.9,10.24-25.1,30.44-25.1,30.44,0,0,17.4,33.97,17.4,33.97Z" style="fill: #fff6dd;"/>
      </g>
      <line x1="1175.38" y1="693.4" x2="1190.7" y2="723.3" style="fill: #fff6dd;"/>
    </g>
    <g>
      <line x1="874.93" y1="625.85" x2="907.62" y2="618.12" style="fill: #fff6dd;"/>
      <g>
        <path d="m905.76,610.25l-52.38,12.39c-8.41,35.97-10.11,65.03-6.88,91.81,6.74,55.91,35.01,81.9,99.65,66.62,64.64-15.28,78.27-51.18,59.26-104.19-9.11-25.39-23.64-50.61-47.27-79,0,0-52.38,12.39-52.38,12.39Z" style="fill: #ffd836; stroke: #3a3632; stroke-miterlimit: 10; stroke-width: 10px;"/>
        <path d="m907.62,618.12l-37.14,8.78s-4.22,26.2-6.89,38.85c5.97,27.63,31.46,39.51,63.1,33,31.2-8.35,48.67-30.38,41.64-57.77-8.05-10.11-23.56-31.65-23.56-31.65,0,0-37.14,8.78-37.14,8.78Z" style="fill: #fff6dd;"/>
      </g>
      <line x1="941.06" y1="610.22" x2="908.37" y2="617.95" style="fill: #fff6dd;"/>
    </g>
    <g>
      <line x1="858.97" y1="850.94" x2="892.55" y2="852.03" style="fill: #fff6dd;"/>
      <g>
        <path d="m892.81,843.94l-53.8-1.75c-17.53,32.52-26.77,60.12-30.66,86.81-8.12,55.73,12.37,88.21,78.75,90.37,66.38,2.16,88.94-28.92,84.45-85.06-2.15-26.89-9.58-55.03-24.95-88.62,0,0-53.8-1.75-53.8-1.75Z" style="fill: #ffd836; stroke: #3a3632; stroke-miterlimit: 10; stroke-width: 10px;"/>
        <path d="m892.55,852.03l-38.15-1.24s-10.93,24.18-16.81,35.69c-1.46,28.23,20.03,46.36,52.27,48.36,32.3.1,54.93-16.59,55.3-44.86-5.13-11.87-14.46-36.71-14.46-36.71,0,0-38.15-1.24-38.15-1.24Z" style="fill: #fff6dd;"/>
      </g>
      <line x1="926.89" y1="853.15" x2="893.31" y2="852.05" style="fill: #fff6dd;"/>
    </g>
    <g>
      <line x1="607.9" y1="941.16" x2="640.7" y2="933.88" style="fill: #fff6dd;"/>
      <g>
        <path d="m638.95,925.98l-52.55,11.66c-8.9,35.85-11.01,64.88-8.15,91.7,5.97,56,33.88,82.38,98.72,67.99,64.84-14.39,78.97-50.1,60.69-103.36-8.76-25.52-22.94-50.93-46.17-79.65,0,0-52.55,11.66-52.55,11.66Z" style="fill: #ffd836; stroke: #3a3632; stroke-miterlimit: 10; stroke-width: 10px;"/>
        <path d="m640.7,933.88l-37.26,8.27s-4.58,26.14-7.43,38.75c5.59,27.71,30.92,39.94,62.64,33.87,31.31-7.92,49.09-29.71,42.43-57.19-7.91-10.22-23.12-31.97-23.12-31.97,0,0-37.26,8.27-37.26,8.27Z" style="fill: #fff6dd;"/>
      </g>
      <line x1="674.24" y1="926.43" x2="641.45" y2="933.71" style="fill: #fff6dd;"/>
    </g>
    <g>
      <line x1="649.86" y1="989.07" x2="623.58" y2="1009.99" style="fill: #fff6dd;"/>
      <g>
        <path d="m628.62,1016.32l42.11-33.52c-7.72-36.12-18.56-63.13-32.89-85.99-29.92-47.71-66.57-59.18-118.53-17.81-51.96,41.37-49,79.65-9.22,119.51,19.06,19.09,42.95,35.71,76.42,51.33,0,0,42.11-33.52,42.11-33.52Z" style="fill: #ffd836; stroke: #3a3632; stroke-miterlimit: 10; stroke-width: 10px;"/>
        <path d="m623.58,1009.99l29.86-23.77s-7.35-25.5-10.32-38.08c-17.18-22.45-45.3-22.33-71.15-2.97-24.67,20.85-31.09,48.23-13.05,70,11.59,5.72,34.8,18.59,34.8,18.59,0,0,29.86-23.77,29.86-23.77Z" style="fill: #fff6dd;"/>
      </g>
      <line x1="596.7" y1="1031.39" x2="622.98" y2="1010.47" style="fill: #fff6dd;"/>
    </g>
    <g>
      <line x1="516.97" y1="995.86" x2="495.78" y2="1021.92" style="fill: #fff6dd;"/>
      <g>
        <path d="m502.05,1027.02l33.96-41.76c-15.27-33.63-31.65-57.7-50.54-76.95-39.44-40.2-77.7-43.55-119.6,7.98-41.9,51.53-30.81,88.3,16.58,118.71,22.7,14.57,49.6,25.69,85.64,33.78,0,0,33.96-41.76,33.96-41.76Z" style="fill: #ffd836; stroke: #3a3632; stroke-miterlimit: 10; stroke-width: 10px;"/>
        <path d="m495.78,1021.92l24.08-29.61s-12.64-23.34-18.23-34.99c-21.59-18.26-49.03-12.12-70.13,12.33-19.63,25.65-20.04,53.76,2.24,71.17,12.55,3.1,37.97,10.71,37.97,10.71,0,0,24.08-29.61,24.08-29.61Z" style="fill: #fff6dd;"/>
      </g>
      <line x1="474.1" y1="1048.58" x2="495.29" y2="1022.52" style="fill: #fff6dd;"/>
    </g>
    <g>
      <line x1="610.14" y1="1144.03" x2="586.44" y2="1167.85" style="fill: #fff6dd;"/>
      <g>
        <path d="m592.18,1173.55l37.96-38.16c-11.84-34.99-25.73-60.57-42.6-81.61-35.23-43.94-72.96-51.1-119.8-4.01-46.84,47.09-39.48,84.78,4.64,119.78,21.13,16.76,46.79,30.52,81.84,42.17,0,0,37.96-38.16,37.96-38.16Z" style="fill: #ffd836; stroke: #3a3632; stroke-miterlimit: 10; stroke-width: 10px;"/>
        <path d="m586.44,1167.85l26.92-27.06s-10.24-24.48-14.65-36.64c-19.66-20.32-47.57-16.96-71.01,5.26-22.09,23.56-25.31,51.49-4.89,71.04,12.18,4.34,36.71,14.45,36.71,14.45,0,0,26.92-27.06,26.92-27.06Z" style="fill: #fff6dd;"/>
      </g>
      <line x1="562.21" y1="1192.21" x2="585.9" y2="1168.39" style="fill: #fff6dd;"/>
    </g>
    <g>
      <line x1="305.89" y1="1089.84" x2="337.91" y2="1079.7" style="fill: #fff6dd;"/>
      <g>
        <path d="m335.47,1071.99l-51.31,16.24c-5.71,36.49-5.25,65.6-.04,92.06,10.88,55.26,41,79.07,104.32,59.03,63.32-20.04,74.25-56.86,51.35-108.31-10.97-24.64-27.34-48.71-53.01-75.27,0,0-51.31,16.24-51.31,16.24Z" style="fill: #ffd836; stroke: #3a3632; stroke-miterlimit: 10; stroke-width: 10px;"/>
        <path d="m337.91,1079.7l-36.39,11.52s-2.26,26.44-3.98,39.25c8.01,27.11,34.31,37.06,65.38,28.22,30.49-10.65,46.28-33.92,37.23-60.7-8.78-9.49-25.85-29.81-25.85-29.81,0,0-36.39,11.52-36.39,11.52Z" style="fill: #fff6dd;"/>
      </g>
      <line x1="370.67" y1="1069.33" x2="338.64" y2="1079.47" style="fill: #fff6dd;"/>
    </g>
    <g>
      <line x1="653.73" y1="1137.78" x2="678.86" y2="1160.08" style="fill: #fff6dd;"/>
      <g>
        <path d="m684.23,1154.03l-40.25-35.74c-34.26,13.8-59.01,29.12-79.07,47.16-41.87,37.66-46.88,75.74,2.79,119.83,49.67,44.1,86.88,34.61,119.32-11.42,15.54-22.05,27.82-48.44,37.46-84.1,0,0-40.25-35.74-40.25-35.74Z" style="fill: #ffd836; stroke: #3a3632; stroke-miterlimit: 10; stroke-width: 10px;"/>
        <path d="m678.86,1160.08l-28.54-25.34s-23.86,11.61-35.75,16.7c-19.17,20.78-14.23,48.46,9.28,70.6,24.77,20.72,52.84,22.35,71.2.85,3.64-12.4,12.35-37.47,12.35-37.47,0,0-28.54-25.34-28.54-25.34Z" style="fill: #fff6dd;"/>
      </g>
      <line x1="704.55" y1="1182.89" x2="679.43" y2="1160.59" style="fill: #fff6dd;"/>
    </g>
    <g>
      <line x1="335.49" y1="1244.03" x2="348.41" y2="1213.02" style="fill: #fff6dd;"/>
      <g>
        <path d="m340.95,1209.91l-20.7,49.69c24.2,27.91,46.73,46.33,70.32,59.43,49.24,27.34,86.87,19.69,112.41-41.62,25.54-61.31,4.47-93.41-49.62-109.11-25.91-7.52-54.86-10.54-91.71-8.07,0,0-20.7,49.69-20.7,49.69Z" style="fill: #ffd836; stroke: #3a3632; stroke-miterlimit: 10; stroke-width: 10px;"/>
        <path d="m348.41,1213.02l-14.68,35.23s18.74,18.79,27.42,28.37c25.88,11.37,50.45-2.31,63.74-31.74,11.54-30.17,3.94-57.24-22.36-67.61-12.91.59-39.45.51-39.45.51,0,0-14.68,35.23-14.68,35.23Z" style="fill: #fff6dd;"/>
      </g>
      <line x1="361.62" y1="1181.3" x2="348.71" y2="1212.31" style="fill: #fff6dd;"/>
    </g>
    <g>
      <line x1="698.93" y1="1071.81" x2="702.82" y2="1038.44" style="fill: #fff6dd;"/>
      <g>
        <path d="m694.79,1037.51l-6.23,53.46c30.94,20.17,57.68,31.68,83.95,37.79,54.86,12.74,88.93-4.97,96.62-70.94,7.68-65.97-21.41-91.04-77.73-91.25-26.98-.1-55.64,4.96-90.39,17.48,0,0-6.23,53.46-6.23,53.46Z" style="fill: #ffd836; stroke: #3a3632; stroke-miterlimit: 10; stroke-width: 10px;"/>
        <path d="m702.82,1038.44l-4.42,37.91s23.19,12.9,34.17,19.73c28.01,3.81,47.87-16.1,52.55-48.06,2.79-32.18-11.96-56.12-40.1-58.85-12.25,4.12-37.79,11.35-37.79,11.35,0,0-4.42,37.91-4.42,37.91Z" style="fill: #fff6dd;"/>
      </g>
      <line x1="706.8" y1="1004.31" x2="702.91" y2="1037.68" style="fill: #fff6dd;"/>
    </g>
    <g>
      <line x1="823.4" y1="1180.91" x2="805.76" y2="1209.5" style="fill: #fff6dd;"/>
      <g>
        <path d="m812.64,1213.75l28.27-45.8c-19.5-31.37-38.85-53.12-60.07-69.76-44.31-34.76-82.68-33.13-117.56,23.39-34.88,56.52-19.13,91.54,31.81,115.57,24.4,11.51,52.51,19.05,89.29,22.42,0,0,28.27-45.8,28.27-45.8Z" style="fill: #ffd836; stroke: #3a3632; stroke-miterlimit: 10; stroke-width: 10px;"/>
        <path d="m805.76,1209.5l20.04-32.48s-15.55-21.51-22.61-32.34c-23.77-15.31-50.19-5.67-67.95,21.3-16.15,27.97-12.91,55.9,11.43,70.29,12.84,1.45,39.04,5.71,39.04,5.71,0,0,20.04-32.48,20.04-32.48Z" style="fill: #fff6dd;"/>
      </g>
      <line x1="787.71" y1="1238.74" x2="805.36" y2="1210.15" style="fill: #fff6dd;"/>
    </g>
    <g>
      <line x1="928.57" y1="1258.08" x2="897.24" y2="1245.97" style="fill: #fff6dd;"/>
      <g>
        <path d="m894.32,1253.52l50.21,19.4c27.27-24.91,45.11-47.92,57.59-71.83,26.06-49.93,17.43-87.35-44.52-111.29-61.95-23.94-93.5-2.05-107.79,52.43-6.85,26.09-9.12,55.11-5.69,91.89,0,0,50.21,19.4,50.21,19.4Z" style="fill: #ffd836; stroke: #3a3632; stroke-miterlimit: 10; stroke-width: 10px;"/>
        <path d="m897.24,1245.97l35.6,13.76s18.3-19.22,27.65-28.14c10.7-26.17-3.61-50.38-33.38-62.9-30.46-10.75-57.32-2.46-67.01,24.1.92,12.89,1.54,39.43,1.54,39.43,0,0,35.6,13.76,35.6,13.76Z" style="fill: #fff6dd;"/>
      </g>
      <line x1="865.19" y1="1233.59" x2="896.52" y2="1245.7" style="fill: #fff6dd;"/>
    </g>
    <g>
      <line x1="950.33" y1="979.48" x2="974.14" y2="1003.17" style="fill: #fff6dd;"/>
      <g>
        <path d="m979.85,997.44l-38.16-37.96c-34.99,11.84-60.57,25.73-81.61,42.6-43.94,35.23-51.09,72.96-4.01,119.8,47.09,46.84,84.78,39.48,119.78-4.64,16.76-21.14,30.52-46.79,42.17-81.84,0,0-38.16-37.96-38.16-37.96Z" style="fill: #ffd836; stroke: #3a3632; stroke-miterlimit: 10; stroke-width: 10px;"/>
        <path d="m974.14,1003.17l-27.06-26.92s-24.48,10.24-36.64,14.65c-20.32,19.66-16.95,47.57,5.26,71.01,23.56,22.09,51.49,25.31,71.04,4.88,4.34-12.18,14.45-36.71,14.45-36.71,0,0-27.06-26.92-27.06-26.92Z" style="fill: #fff6dd;"/>
      </g>
      <line x1="998.51" y1="1027.4" x2="974.69" y2="1003.71" style="fill: #fff6dd;"/>
    </g>
    <g>
      <line x1="1128.81" y1="958.41" x2="1150.6" y2="983.98" style="fill: #fff6dd;"/>
      <g>
        <path d="m1156.76,978.74l-34.91-40.97c-35.85,8.92-62.48,20.66-84.84,35.75-46.68,31.5-56.92,68.51-13.84,119.06,43.08,50.55,81.25,46.32,119.75,5.22,18.44-19.68,34.26-44.12,48.75-78.1,0,0-34.91-40.97-34.91-40.97Z" style="fill: #ffd836; stroke: #3a3632; stroke-miterlimit: 10; stroke-width: 10px;"/>
        <path d="m1150.6,983.98l-24.76-29.05s-25.24,8.19-37.72,11.58c-21.87,17.92-20.81,46.02-.59,71.21,21.66,23.96,49.24,29.46,70.4,10.71,5.33-11.78,17.42-35.4,17.42-35.4,0,0-24.76-29.05-24.76-29.05Z" style="fill: #fff6dd;"/>
      </g>
      <line x1="1172.89" y1="1010.14" x2="1151.1" y2="984.57" style="fill: #fff6dd;"/>
    </g>
    <g>
      <line x1="977.41" y1="1160.21" x2="1000.83" y2="1136.13" style="fill: #fff6dd;"/>
      <g>
        <path d="m995.03,1130.49l-37.52,38.6c12.24,34.85,26.42,60.27,43.54,81.12,35.73,43.53,73.54,50.25,119.84,2.63,46.29-47.63,38.5-85.23-6.02-119.71-21.33-16.52-47.14-29.97-82.32-41.22,0,0-37.52,38.6-37.52,38.6Z" style="fill: #ffd836; stroke: #3a3632; stroke-miterlimit: 10; stroke-width: 10px;"/>
        <path d="m1000.83,1136.13l-26.6,27.37s10.52,24.36,15.07,36.46c19.89,20.09,47.77,16.41,70.95-6.08,21.82-23.81,24.72-51.78,4.07-71.09-12.23-4.2-36.88-14.03-36.88-14.03,0,0-26.6,27.37-26.6,27.37Z" style="fill: #fff6dd;"/>
      </g>
      <line x1="1024.78" y1="1111.49" x2="1001.36" y2="1135.58" style="fill: #fff6dd;"/>
    </g>
    <g>
      <line x1="956.92" y1="1422.12" x2="926.13" y2="1408.7" style="fill: #fff6dd;"/>
      <g>
        <path d="m922.9,1416.11l49.34,21.5c28.3-23.74,47.09-45.97,60.57-69.34,28.14-48.78,21.1-86.54-39.78-113.07-60.89-26.54-93.33-5.99-109.91,47.83-7.94,25.78-11.44,54.68-9.56,91.57,0,0,49.34,21.5,49.34,21.5Z" style="fill: #ffd836; stroke: #3a3632; stroke-miterlimit: 10; stroke-width: 10px;"/>
        <path d="m926.13,1408.7l34.99,15.25s19.09-18.44,28.81-26.95c11.79-25.7-1.48-50.48-30.7-64.25-29.97-12.03-57.17-4.88-67.96,21.25.38,12.92-.13,39.45-.13,39.45,0,0,34.99,15.25,34.99,15.25Z" style="fill: #fff6dd;"/>
      </g>
      <line x1="894.63" y1="1394.97" x2="925.42" y2="1408.39" style="fill: #fff6dd;"/>
    </g>
    <g>
      <line x1="939.03" y1="1201.43" x2="944.55" y2="1234.57" style="fill: #fff6dd;"/>
      <g>
        <path d="m952.53,1233.24l-8.84-53.09c-35.32-10.8-64.2-14.45-91.14-13.03-56.24,2.97-84.07,29.43-73.16,94.95,10.91,65.52,45.81,81.53,99.98,66.12,25.95-7.38,52.08-20.19,82-41.86,0,0-8.84-53.09-8.84-53.09Z" style="fill: #ffd836; stroke: #3a3632; stroke-miterlimit: 10; stroke-width: 10px;"/>
        <path d="m944.55,1234.57l-6.27-37.65s-25.86-5.97-38.3-9.48c-27.97,4.11-41.53,28.74-37.17,60.74,6.24,31.69,27.05,50.6,54.84,45.42,10.63-7.36,33.16-21.38,33.16-21.38,0,0-6.27-37.65-6.27-37.65Z" style="fill: #fff6dd;"/>
      </g>
      <line x1="950.19" y1="1268.47" x2="944.67" y2="1235.33" style="fill: #fff6dd;"/>
    </g>
    <g>
      <line x1="700.93" y1="1259.59" x2="729.99" y2="1242.74" style="fill: #fff6dd;"/>
      <g>
        <path d="m725.93,1235.74l-46.56,27c2.35,36.86,9.13,65.17,19.96,89.87,22.62,51.57,57.2,68.28,114.65,34.96,57.46-33.32,60.13-71.63,26.6-116.88-16.06-21.67-37.26-41.61-68.09-61.96,0,0-46.56,27-46.56,27Z" style="fill: #ffd836; stroke: #3a3632; stroke-miterlimit: 10; stroke-width: 10px;"/>
        <path d="m729.99,1242.74l-33.02,19.15s3.54,26.3,4.64,39.18c13.71,24.73,41.54,28.72,69.95,13.35,27.45-17.02,37.81-43.16,23.16-67.34-10.63-7.35-31.7-23.48-31.7-23.48,0,0-33.02,19.15-33.02,19.15Z" style="fill: #fff6dd;"/>
      </g>
      <line x1="759.71" y1="1225.5" x2="730.65" y2="1242.35" style="fill: #fff6dd;"/>
    </g>
    <g>
      <line x1="621.37" y1="1462.54" x2="587.79" y2="1463.31" style="fill: #fff6dd;"/>
      <g>
        <path d="m587.97,1471.4l53.81-1.23c15.7-33.44,23.4-61.51,25.8-88.38,5.02-56.09-17.24-87.39-83.64-85.87-66.4,1.52-87.2,33.81-79.61,89.61,3.63,26.73,12.61,54.42,29.83,87.1,0,0,53.81-1.23,53.81-1.23Z" style="fill: #ffd836; stroke: #3a3632; stroke-miterlimit: 10; stroke-width: 10px;"/>
        <path d="m587.79,1463.31l38.16-.88s9.57-24.75,14.81-36.57c-.1-28.27-22.57-45.18-54.87-45.39-32.25,1.69-53.92,19.61-52.73,47.86,5.78,11.56,16.47,35.85,16.47,35.85,0,0,38.16-.88,38.16-.88Z" style="fill: #fff6dd;"/>
      </g>
      <line x1="553.43" y1="1464.1" x2="587.02" y2="1463.33" style="fill: #fff6dd;"/>
    </g>
    <g>
      <line x1="437.25" y1="1298.32" x2="456.24" y2="1270.61" style="fill: #fff6dd;"/>
      <g>
        <path d="m449.57,1266.04l-30.43,44.4c17.97,32.27,36.26,54.92,56.66,72.56,42.59,36.84,81,37.06,118.55-17.73,37.55-54.78,23.5-90.52-26.23-116.96-23.82-12.66-51.53-21.55-88.12-26.67,0,0-30.43,44.4-30.43,44.4Z" style="fill: #ffd836; stroke: #3a3632; stroke-miterlimit: 10; stroke-width: 10px;"/>
        <path d="m456.24,1270.61l-21.58,31.48s14.5,22.23,21.03,33.38c23.01,16.43,49.86,8.07,68.89-18.02,17.47-27.17,15.58-55.22-8.04-70.75-12.76-2.07-38.72-7.57-38.72-7.57,0,0-21.58,31.48-21.58,31.48Z" style="fill: #fff6dd;"/>
      </g>
      <line x1="475.67" y1="1242.27" x2="456.68" y2="1269.98" style="fill: #fff6dd;"/>
    </g>
    <g>
      <line x1="1141.49" y1="1321.34" x2="1136.87" y2="1354.61" style="fill: #fff6dd;"/>
      <g>
        <path d="m1144.88,1355.72l7.4-53.31c-30.49-20.85-56.97-32.94-83.1-39.62-54.56-13.94-89.02,3.02-98.15,68.8-9.13,65.79,19.4,91.49,75.7,92.93,26.97.69,55.73-3.73,90.75-15.49,0,0,7.4-53.31,7.4-53.31Z" style="fill: #ffd836; stroke: #3a3632; stroke-miterlimit: 10; stroke-width: 10px;"/>
        <path d="m1136.87,1354.61l5.25-37.81s-22.9-13.41-33.73-20.48c-27.92-4.43-48.21,15.04-53.59,46.89-3.5,32.11,10.72,56.37,38.8,59.71,12.34-3.85,38.03-10.52,38.03-10.52,0,0,5.25-37.81,5.25-37.81Z" style="fill: #fff6dd;"/>
      </g>
      <line x1="1132.15" y1="1388.65" x2="1136.77" y2="1355.37" style="fill: #fff6dd;"/>
    </g>
    <g>
      <line x1="864.77" y1="1460.51" x2="843.37" y2="1486.41" style="fill: #fff6dd;"/>
      <g>
        <path d="m849.61,1491.56l34.29-41.49c-15.01-33.75-31.19-57.95-49.93-77.35-39.12-40.51-77.35-44.17-119.66,7.03-42.31,51.2-31.51,88.05,15.64,118.84,22.59,14.75,49.4,26.08,85.37,34.46,0,0,34.29-41.49,34.29-41.49Z" style="fill: #ffd836; stroke: #3a3632; stroke-miterlimit: 10; stroke-width: 10px;"/>
        <path d="m843.37,1486.41l24.31-29.42s-12.45-23.44-17.95-35.13c-21.44-18.43-48.93-12.51-70.23,11.77-19.83,25.49-20.47,53.6,1.67,71.19,12.52,3.2,37.89,11.01,37.89,11.01,0,0,24.31-29.42,24.31-29.42Z" style="fill: #fff6dd;"/>
      </g>
      <line x1="821.49" y1="1512.9" x2="842.89" y2="1487" style="fill: #fff6dd;"/>
    </g>
    <g>
      <line x1="436.75" y1="1427.26" x2="412.11" y2="1450.1" style="fill: #fff6dd;"/>
      <g>
        <path d="m417.61,1456.03l39.48-36.59c-10.41-35.44-23.24-61.57-39.25-83.28-33.41-45.33-70.82-54.02-119.54-8.87-48.72,45.15-42.89,83.1-.23,119.87,20.44,17.61,45.51,32.39,80.06,45.46,0,0,39.48-36.59,39.48-36.59Z" style="fill: #ffd836; stroke: #3a3632; stroke-miterlimit: 10; stroke-width: 10px;"/>
        <path d="m412.11,1450.1l28-25.94s-9.24-24.88-13.14-37.2c-18.81-21.1-46.85-18.88-71.17,2.37-23.03,22.64-27.38,50.42-7.77,70.78,11.99,4.83,36.1,15.93,36.1,15.93,0,0,28-25.94,28-25.94Z" style="fill: #fff6dd;"/>
      </g>
      <line x1="386.91" y1="1473.45" x2="411.55" y2="1450.62" style="fill: #fff6dd;"/>
    </g>
    <g>
      <line x1="174.34" y1="1325.38" x2="174.29" y2="1291.79" style="fill: #fff6dd;"/>
      <g>
        <path d="m166.2,1291.8l.09,53.82c33.1,16.4,60.99,24.7,87.81,27.68,55.97,6.21,87.74-15.37,87.63-81.79-.11-66.42-31.94-87.9-87.89-81.5-26.8,3.06-54.67,11.45-87.71,27.96,0,0,.09,53.82.09,53.82Z" style="fill: #ffd836; stroke: #3a3632; stroke-miterlimit: 10; stroke-width: 10px;"/>
        <path d="m174.29,1291.79l.06,38.17s24.54,10.1,36.25,15.59c28.27.5,45.65-21.6,46.55-53.89-1-32.28-18.46-54.33-46.72-53.74-11.68,5.53-36.19,15.7-36.19,15.7,0,0,.06,38.17.06,38.17Z" style="fill: #fff6dd;"/>
      </g>
      <line x1="174.23" y1="1257.43" x2="174.29" y2="1291.02" style="fill: #fff6dd;"/>
    </g>
    <g>
      <line x1="359.84" y1="1531.95" x2="375.6" y2="1502.28" style="fill: #fff6dd;"/>
      <g>
        <path d="m368.46,1498.48l-25.25,47.53c21.48,30.05,42.2,50.5,64.45,65.74,46.46,31.82,84.65,27.73,115.81-30.93,31.16-58.65,13.18-92.59-39.2-113.27-25.09-9.91-53.63-15.63-90.55-16.6,0,0-25.25,47.53-25.25,47.53Z" style="fill: #ffd836; stroke: #3a3632; stroke-miterlimit: 10; stroke-width: 10px;"/>
        <path d="m375.6,1502.28l-17.91,33.71s16.91,20.46,24.65,30.81c24.71,13.74,50.45,2.42,66.43-25.64,14.31-28.96,9.28-56.62-15.94-69.4-12.91-.62-39.33-3.18-39.33-3.18,0,0-17.91,33.71-17.91,33.71Z" style="fill: #fff6dd;"/>
      </g>
      <line x1="391.72" y1="1471.93" x2="375.96" y2="1501.6" style="fill: #fff6dd;"/>
    </g>
    <g>
      <line x1="552.35" y1="1389.32" x2="577.84" y2="1411.2" style="fill: #fff6dd;"/>
      <g>
        <path d="m583.11,1405.06l-40.85-35.05c-34.03,14.38-58.52,30.11-78.27,48.48-41.23,38.36-45.6,76.52,4.8,119.77,50.4,43.25,87.45,33.15,119.11-13.43,15.17-22.31,27-48.9,36.04-84.72,0,0-40.85-35.05-40.85-35.05Z" style="fill: #ffd836; stroke: #3a3632; stroke-miterlimit: 10; stroke-width: 10px;"/>
        <path d="m577.84,1411.2l-28.96-24.86s-23.66,12.01-35.46,17.3c-18.82,21.1-13.42,48.69,10.46,70.44,25.12,20.3,53.21,21.46,71.21-.35,3.43-12.46,11.72-37.68,11.72-37.68,0,0-28.96-24.86-28.96-24.86Z" style="fill: #fff6dd;"/>
      </g>
      <line x1="603.92" y1="1433.57" x2="578.43" y2="1411.7" style="fill: #fff6dd;"/>
    </g>
    <g>
      <line x1="701.62" y1="1442.08" x2="734.13" y2="1450.58" style="fill: #fff6dd;"/>
      <g>
        <path d="m736.17,1442.76l-52.07-13.62c-24.29,27.83-39.42,52.69-49.13,77.86-20.27,52.54-7.48,88.76,56.77,105.57,64.25,16.81,93.13-8.5,101.2-64.24,3.86-26.7,2.85-55.79-4.7-91.94,0,0-52.07-13.62-52.07-13.62Z" style="fill: #ffd836; stroke: #3a3632; stroke-miterlimit: 10; stroke-width: 10px;"/>
        <path d="m734.13,1450.58l-36.92-9.66s-16.01,21.16-24.3,31.08c-7.68,27.21,9.26,49.65,40.26,58.74,31.47,7.25,57.24-4.01,63.87-31.5-2.37-12.71-5.97-39-5.97-39,0,0-36.92-9.66-36.92-9.66Z" style="fill: #fff6dd;"/>
      </g>
      <line x1="767.37" y1="1459.28" x2="734.87" y2="1450.77" style="fill: #fff6dd;"/>
    </g>
    <g>
      <line x1="816.15" y1="1614.27" x2="825.3" y2="1581.94" style="fill: #fff6dd;"/>
      <g>
        <path d="m817.52,1579.74l-14.67,51.79c27.33,24.85,51.89,40.47,76.86,50.68,52.13,21.32,88.59,9.27,106.69-54.64,18.1-63.9-6.63-93.29-62.19-102.47-26.61-4.4-55.72-3.97-92.02,2.85,0,0-14.67,51.79-14.67,51.79Z" style="fill: #ffd836; stroke: #3a3632; stroke-miterlimit: 10; stroke-width: 10px;"/>
        <path d="m825.3,1581.94l-10.4,36.72s20.84,16.44,30.59,24.92c27.05,8.23,49.82-8.26,59.54-39.07,7.88-31.32-2.86-57.31-30.21-64.49-12.75,2.11-39.11,5.18-39.11,5.18,0,0-10.4,36.72-10.4,36.72Z" style="fill: #fff6dd;"/>
      </g>
      <line x1="834.67" y1="1548.88" x2="825.51" y2="1581.21" style="fill: #fff6dd;"/>
    </g>
    <g>
      <line x1="977.92" y1="1434.36" x2="981.24" y2="1467.79" style="fill: #fff6dd;"/>
      <g>
        <path d="m989.29,1466.99l-5.32-53.56c-34.53-13.11-63.11-18.66-90.08-19.01-56.31-.75-85.83,23.82-79.26,89.92,6.56,66.09,40.33,84.38,95.4,72.57,26.38-5.65,53.3-16.71,84.58-36.35,0,0-5.32-53.56-5.32-53.56Z" style="fill: #ffd836; stroke: #3a3632; stroke-miterlimit: 10; stroke-width: 10px;"/>
        <path d="m981.24,1467.79l-3.77-37.98s-25.41-7.66-37.59-11.99c-28.18,2.25-43.34,25.94-41.09,58.16,4.13,32.03,23.65,52.28,51.73,48.94,11.09-6.64,34.5-19.15,34.5-19.15,0,0-3.77-37.98-3.77-37.98Z" style="fill: #fff6dd;"/>
      </g>
      <line x1="984.64" y1="1501.98" x2="981.32" y2="1468.55" style="fill: #fff6dd;"/>
    </g>
    <g>
      <line x1="1140.97" y1="1471.47" x2="1137.1" y2="1504.84" style="fill: #fff6dd;"/>
      <g>
        <path d="m1145.13,1505.77l6.2-53.47c-30.95-20.16-57.69-31.66-83.97-37.75-54.86-12.71-88.93,5.01-96.58,70.99-7.65,65.97,21.45,91.03,77.77,91.21,26.98.09,55.64-4.98,90.38-17.52,0,0,6.2-53.47,6.2-53.47Z" style="fill: #ffd836; stroke: #3a3632; stroke-miterlimit: 10; stroke-width: 10px;"/>
        <path d="m1137.1,1504.84l4.4-37.91s-23.2-12.89-34.18-19.71c-28.02-3.8-47.86,16.12-52.53,48.08-2.78,32.18,11.98,56.11,40.12,58.83,12.25-4.13,37.78-11.37,37.78-11.37,0,0,4.4-37.91,4.4-37.91Z" style="fill: #fff6dd;"/>
      </g>
      <line x1="1133.14" y1="1538.97" x2="1137.01" y2="1505.6" style="fill: #fff6dd;"/>
    </g>
    <g>
      <line x1="1220.42" y1="1556.27" x2="1207.15" y2="1587.13" style="fill: #fff6dd;"/>
      <g>
        <path d="m1214.58,1590.33l21.26-49.45c-23.88-28.18-46.2-46.86-69.63-60.23-48.92-27.9-86.64-20.68-112.88,40.33-26.24,61.02-5.53,93.36,48.37,109.67,25.82,7.82,54.73,11.17,91.61,9.11,0,0,21.26-49.45,21.26-49.45Z" style="fill: #ffd836; stroke: #3a3632; stroke-miterlimit: 10; stroke-width: 10px;"/>
        <path d="m1207.15,1587.13l15.08-35.06s-18.53-19-27.09-28.68c-25.75-11.67-50.48,1.73-64.1,31.01-11.88,30.03-4.6,57.19,21.58,67.86,12.92-.44,39.45-.06,39.45-.06,0,0,15.08-35.06,15.08-35.06Z" style="fill: #fff6dd;"/>
      </g>
      <line x1="1193.58" y1="1618.7" x2="1206.85" y2="1587.84" style="fill: #fff6dd;"/>
    </g>
    <g>
      <line x1="1200.89" y1="895.39" x2="1233.34" y2="886.7" style="fill: #fff6dd;"/>
      <g>
        <path d="m1231.25,878.89l-51.99,13.93c-7.34,36.2-8.18,65.3-4.16,91.97,8.39,55.69,37.42,80.83,101.57,63.64,64.15-17.19,76.72-53.48,56.15-105.9-9.85-25.11-25.13-49.89-49.58-77.57,0,0-51.99,13.93-51.99,13.93Z" style="fill: #ffd836; stroke: #3a3632; stroke-miterlimit: 10; stroke-width: 10px;"/>
        <path d="m1233.34,886.7l-36.87,9.88s-3.44,26.31-5.74,39.04c6.79,27.45,32.62,38.56,64.05,31.12,30.94-9.27,47.75-31.81,39.91-58.97-8.35-9.87-24.49-30.94-24.49-30.94,0,0-36.87,9.88-36.87,9.88Z" style="fill: #fff6dd;"/>
      </g>
      <line x1="1266.53" y1="877.81" x2="1234.08" y2="886.5" style="fill: #fff6dd;"/>
    </g>
    <g>
      <line x1="1070.35" y1="925.63" x2="1090.85" y2="899.02" style="fill: #fff6dd;"/>
      <g>
        <path d="m1084.45,894.08l-32.86,42.63c16.14,33.22,33.14,56.85,52.53,75.61,40.47,39.16,78.8,41.52,119.35-11.09,40.55-52.6,28.51-89.07-19.67-118.24-23.07-13.97-50.25-24.39-86.49-31.54,0,0-32.86,42.63-32.86,42.63Z" style="fill: #ffd836; stroke: #3a3632; stroke-miterlimit: 10; stroke-width: 10px;"/>
        <path d="m1090.85,899.02l-23.3,30.23s13.24,23,19.14,34.5c22.06,17.69,49.33,10.84,69.79-14.15,18.96-26.15,18.64-54.27-4.09-71.09-12.63-2.77-38.24-9.72-38.24-9.72,0,0-23.3,30.23-23.3,30.23Z" style="fill: #fff6dd;"/>
      </g>
      <line x1="1111.83" y1="871.81" x2="1091.32" y2="898.41" style="fill: #fff6dd;"/>
    </g>
    <g>
      <line x1="1195.06" y1="1397.08" x2="1161.51" y2="1395.21" style="fill: #fff6dd;"/>
      <g>
        <path d="m1161.06,1403.28l53.74,3c18.28-32.1,28.16-59.48,32.67-86.07,9.42-55.52-10.31-88.47-76.62-92.18-66.31-3.7-89.59,26.84-86.41,83.07,1.52,26.93,8.29,55.24,22.88,89.18,0,0,53.74,3,53.74,3Z" style="fill: #ffd836; stroke: #3a3632; stroke-miterlimit: 10; stroke-width: 10px;"/>
        <path d="m1161.51,1395.21l38.11,2.13s11.49-23.92,17.64-35.29c2.12-28.19-18.95-46.82-51.13-49.57-32.29-.85-55.3,15.31-56.33,43.56,4.85,11.98,13.6,37.04,13.6,37.04,0,0,38.11,2.13,38.11,2.13Z" style="fill: #fff6dd;"/>
      </g>
      <line x1="1127.21" y1="1393.29" x2="1160.75" y2="1395.16" style="fill: #fff6dd;"/>
    </g>
    <g>
      <line x1="1387.23" y1="1242.52" x2="1408.71" y2="1216.7" style="fill: #fff6dd;"/>
      <g>
        <path d="m1402.5,1211.53l-34.43,41.37c14.89,33.8,30.99,58.05,49.67,77.52,38.99,40.64,77.2,44.43,119.68-6.63,42.48-51.05,31.81-87.94-15.24-118.89-22.54-14.82-49.31-26.25-85.26-34.75,0,0-34.43,41.37-34.43,41.37Z" style="fill: #ffd836; stroke: #3a3632; stroke-miterlimit: 10; stroke-width: 10px;"/>
        <path d="m1408.71,1216.7l-24.41,29.34s12.37,23.48,17.84,35.19c21.38,18.5,48.89,12.67,70.27-11.54,19.92-25.42,20.65-53.53-1.43-71.2-12.51-3.24-37.85-11.14-37.85-11.14,0,0-24.41,29.34-24.41,29.34Z" style="fill: #fff6dd;"/>
      </g>
      <line x1="1430.69" y1="1190.29" x2="1409.2" y2="1216.11" style="fill: #fff6dd;"/>
    </g>
    <g>
      <line x1="1479.33" y1="1133.96" x2="1471.35" y2="1166.59" style="fill: #fff6dd;"/>
      <g>
        <path d="m1479.2,1168.51l12.79-52.28c-28.21-23.85-53.32-38.57-78.64-47.88-52.86-19.42-88.87-6.06-104.65,58.45-15.78,64.51,9.99,92.99,65.85,100.16,26.76,3.44,55.82,1.96,91.86-6.17,0,0,12.79-52.28,12.79-52.28Z" style="fill: #ffd836; stroke: #3a3632; stroke-miterlimit: 10; stroke-width: 10px;"/>
        <path d="m1471.35,1166.59l9.07-37.07s-21.42-15.67-31.47-23.8c-27.33-7.25-49.49,10.06-58.09,41.19-6.75,31.58,4.93,57.17,32.51,63.35,12.67-2.57,38.9-6.59,38.9-6.59,0,0,9.07-37.07,9.07-37.07Z" style="fill: #fff6dd;"/>
      </g>
      <line x1="1463.18" y1="1199.97" x2="1471.17" y2="1167.34" style="fill: #fff6dd;"/>
    </g>
    <g>
      <line x1="1289.02" y1="1121.25" x2="1319.5" y2="1135.39" style="fill: #fff6dd;"/>
      <g>
        <path d="m1322.9,1128.05l-48.82-22.66c-28.85,23.07-48.15,44.85-62.18,67.9-29.28,48.11-23.13,86.02,37.12,113.97,60.25,27.96,93.16,8.18,111-45.24,8.54-25.59,12.72-54.39,11.71-91.32,0,0-48.82-22.66-48.82-22.66Z" style="fill: #ffd836; stroke: #3a3632; stroke-miterlimit: 10; stroke-width: 10px;"/>
        <path d="m1319.5,1135.39l-34.62-16.07s-19.52,17.98-29.44,26.27c-12.39,25.41.3,50.5,29.18,64.96,29.68,12.73,57.04,6.22,68.44-19.65-.08-12.93,1.06-39.44,1.06-39.44,0,0-34.62-16.07-34.62-16.07Z" style="fill: #fff6dd;"/>
      </g>
      <line x1="1350.66" y1="1149.85" x2="1320.19" y2="1135.71" style="fill: #fff6dd;"/>
    </g>
    <g>
      <line x1="1139.58" y1="1069.42" x2="1168.19" y2="1051.81" style="fill: #fff6dd;"/>
      <g>
        <path d="m1163.95,1044.92l-45.84,28.22c3.32,36.79,10.84,64.91,22.32,89.32,23.97,50.96,58.97,66.75,115.53,31.93,56.56-34.82,58.23-73.19,23.52-117.54-16.62-21.24-38.35-40.62-69.7-60.15,0,0-45.84,28.22-45.84,28.22Z" style="fill: #ffd836; stroke: #3a3632; stroke-miterlimit: 10; stroke-width: 10px;"/>
        <path d="m1168.19,1051.81l-32.5,20.01s4.23,26.2,5.67,39.05c14.36,24.36,42.28,27.62,70.27,11.5,26.99-17.73,36.66-44.14,21.38-67.93-10.82-7.07-32.31-22.64-32.31-22.64,0,0-32.5,20.01-32.5,20.01Z" style="fill: #fff6dd;"/>
      </g>
      <line x1="1197.45" y1="1033.8" x2="1168.84" y2="1051.41" style="fill: #fff6dd;"/>
    </g>
    <g>
      <line x1="1104.17" y1="1140.05" x2="1137.77" y2="1139.96" style="fill: #fff6dd;"/>
      <g>
        <path d="m1137.74,1131.87l-53.82.15c-16.37,33.11-24.63,61.02-27.58,87.84-6.15,55.98,15.47,87.72,81.88,87.54,66.42-.18,87.86-32.04,81.41-87.98-3.09-26.8-11.51-54.66-28.06-87.68,0,0-53.82.15-53.82.15Z" style="fill: #ffd836; stroke: #3a3632; stroke-miterlimit: 10; stroke-width: 10px;"/>
        <path d="m1137.77,1139.96l-38.17.1s-10.07,24.55-15.55,36.26c-.47,28.27,21.65,45.63,53.94,46.49,32.28-1.04,54.31-18.52,53.69-46.78-5.54-11.68-15.74-36.18-15.74-36.18,0,0-38.17.1-38.17.1Z" style="fill: #fff6dd;"/>
      </g>
      <line x1="1172.13" y1="1139.87" x2="1138.53" y2="1139.96" style="fill: #fff6dd;"/>
    </g>
    <g>
      <line x1="1453.88" y1="1070.12" x2="1422.94" y2="1057.04" style="fill: #fff6dd;"/>
      <g>
        <path d="m1419.79,1064.49l49.58,20.96c28.04-24.05,46.57-46.49,59.79-70,27.6-49.09,20.14-86.76-41.03-112.62-61.18-25.86-93.39-4.95-109.37,49.05-7.65,25.87-10.83,54.8-8.54,91.67,0,0,49.58,20.96,49.58,20.96Z" style="fill: #ffd836; stroke: #3a3632; stroke-miterlimit: 10; stroke-width: 10px;"/>
        <path d="m1422.94,1057.04l35.16,14.86s18.88-18.65,28.51-27.27c11.51-25.82-2.04-50.46-31.41-63.91-30.11-11.69-57.22-4.24-67.72,22.01.52,12.92.31,39.45.31,39.45,0,0,35.16,14.86,35.16,14.86Z" style="fill: #fff6dd;"/>
      </g>
      <line x1="1391.29" y1="1043.67" x2="1422.23" y2="1056.75" style="fill: #fff6dd;"/>
    </g>
    <g>
      <line x1="1243.71" y1="1033.48" x2="1258.94" y2="1003.54" style="fill: #fff6dd;"/>
      <g>
        <path d="m1251.73,999.87l-24.4,47.98c22.01,29.66,43.09,49.74,65.61,64.58,47.02,30.99,85.13,26.21,115.24-32.99,30.11-59.2,11.53-92.81-41.21-112.56-25.26-9.46-53.9-14.67-90.84-14.99,0,0-24.4,47.98-24.4,47.98Z" style="fill: #ffd836; stroke: #3a3632; stroke-miterlimit: 10; stroke-width: 10px;"/>
        <path d="m1258.94,1003.54l-17.3,34.02s17.27,20.15,25.19,30.37c24.95,13.3,50.48,1.52,65.96-26.82,13.79-29.21,8.27-56.78-17.17-69.11-12.92-.39-39.38-2.47-39.38-2.47,0,0-17.3,34.02-17.3,34.02Z" style="fill: #fff6dd;"/>
      </g>
      <line x1="1274.52" y1="972.91" x2="1259.29" y2="1002.86" style="fill: #fff6dd;"/>
    </g>
    <g>
      <line x1="1388.39" y1="854.2" x2="1410.32" y2="879.66" style="fill: #fff6dd;"/>
      <g>
        <path d="m1416.44,874.38l-35.13-40.78c-35.8,9.11-62.37,21-84.65,36.21-46.51,31.75-56.55,68.82-13.2,119.14,43.35,50.32,81.5,45.88,119.78,4.57,18.34-19.78,34.02-44.31,48.33-78.36,0,0-35.13-40.78-35.13-40.78Z" style="fill: #ffd836; stroke: #3a3632; stroke-miterlimit: 10; stroke-width: 10px;"/>
        <path d="m1410.32,879.66l-24.91-28.92s-25.2,8.33-37.65,11.79c-21.77,18.04-20.56,46.13-.21,71.21,21.79,23.84,49.4,29.19,70.46,10.33,5.26-11.81,17.23-35.49,17.23-35.49,0,0-24.91-28.92-24.91-28.92Z" style="fill: #fff6dd;"/>
      </g>
      <line x1="1432.74" y1="905.69" x2="1410.82" y2="880.24" style="fill: #fff6dd;"/>
    </g>
    <g>
      <line x1="1396.74" y1="1257.87" x2="1425.83" y2="1274.68" style="fill: #fff6dd;"/>
      <g>
        <path d="m1429.88,1267.68l-46.6-26.94c-30.8,20.39-51.97,40.36-68,62.06-33.46,45.3-30.74,83.6,26.77,116.84,57.5,33.24,92.06,16.48,114.6-35.12,10.8-24.72,17.53-53.04,19.83-89.9,0,0-46.6-26.94-46.6-26.94Z" style="fill: #ffd836; stroke: #3a3632; stroke-miterlimit: 10; stroke-width: 10px;"/>
        <path d="m1425.83,1274.68l-33.04-19.1s-21.05,16.16-31.67,23.53c-14.62,24.2-4.22,50.33,23.25,67.31,28.43,15.33,56.25,11.3,69.93-13.45,1.08-12.88,4.58-39.19,4.58-39.19,0,0-33.04-19.1-33.04-19.1Z" style="fill: #fff6dd;"/>
      </g>
      <line x1="1455.58" y1="1291.87" x2="1426.49" y2="1275.06" style="fill: #fff6dd;"/>
    </g>
    <g>
      <line x1="1278.58" y1="1477.25" x2="1245.05" y2="1475.18" style="fill: #fff6dd;"/>
      <g>
        <path d="m1244.55,1483.25l53.72,3.32c18.47-31.99,28.51-59.31,33.17-85.88,9.74-55.47-9.79-88.53-76.08-92.62-66.29-4.09-89.74,26.32-86.9,82.56,1.36,26.94,7.97,55.29,22.36,89.31,0,0,53.72,3.32,53.72,3.32Z" style="fill: #ffd836; stroke: #3a3632; stroke-miterlimit: 10; stroke-width: 10px;"/>
        <path d="m1245.05,1475.18l38.1,2.35s11.63-23.86,17.85-35.19c2.29-28.18-18.67-46.93-50.84-49.86-32.28-1.04-55.39,14.99-56.58,43.23,4.78,12.01,13.38,37.12,13.38,37.12,0,0,38.1,2.35,38.1,2.35Z" style="fill: #fff6dd;"/>
      </g>
      <line x1="1210.75" y1="1473.06" x2="1244.28" y2="1475.13" style="fill: #fff6dd;"/>
    </g>
    <g>
      <line x1="1128.15" y1="1465.03" x2="1144.91" y2="1435.91" style="fill: #fff6dd;"/>
      <g>
        <path d="m1137.9,1431.88l-26.85,46.65c20.45,30.76,40.46,51.9,62.18,67.89,45.36,33.38,83.66,30.58,116.79-26.98,33.13-57.56,16.31-92.09-35.33-114.54-24.74-10.75-53.07-17.44-89.94-19.67,0,0-26.85,46.65-26.85,46.65Z" style="fill: #ffd836; stroke: #3a3632; stroke-miterlimit: 10; stroke-width: 10px;"/>
        <path d="m1144.91,1435.91l-19.04,33.08s16.2,21.02,23.59,31.63c24.23,14.57,50.34,4.13,67.26-23.38,15.28-28.45,11.19-56.27-13.58-69.9-12.88-1.06-39.2-4.51-39.2-4.51,0,0-19.04,33.08-19.04,33.08Z" style="fill: #fff6dd;"/>
      </g>
      <line x1="1162.05" y1="1406.13" x2="1145.29" y2="1435.25" style="fill: #fff6dd;"/>
    </g>
    <g>
      <line x1="1367.11" y1="1558.66" x2="1348.89" y2="1586.88" style="fill: #fff6dd;"/>
      <g>
        <path d="m1355.68,1591.26l29.2-45.22c-18.85-31.77-37.75-53.9-58.63-70.98-43.59-35.65-81.99-34.81-118.01,20.98-36.03,55.8-21,91.13,29.44,116.19,24.16,12,52.11,20.12,88.82,24.24,0,0,29.2-45.22,29.2-45.22Z" style="fill: #ffd836; stroke: #3a3632; stroke-miterlimit: 10; stroke-width: 10px;"/>
        <path d="m1348.89,1586.88l20.7-32.06s-15.11-21.82-21.94-32.79c-23.45-15.79-50.06-6.7-68.37,19.91-16.71,27.64-14.05,55.63,9.99,70.51,12.81,1.71,38.92,6.51,38.92,6.51,0,0,20.7-32.06,20.7-32.06Z" style="fill: #fff6dd;"/>
      </g>
      <line x1="1330.25" y1="1615.74" x2="1348.47" y2="1587.52" style="fill: #fff6dd;"/>
    </g>
    <g>
      <line x1="1283.58" y1="1587.66" x2="1298.05" y2="1557.34" style="fill: #fff6dd;"/>
      <g>
        <path d="m1290.75,1553.86l-23.18,48.58c22.76,29.1,44.33,48.63,67.22,62.9,47.79,29.79,85.76,24.05,114.37-35.89,28.61-59.94,9.18-93.07-44.04-111.48-25.49-8.82-54.25-13.3-91.19-12.69,0,0-23.18,48.58-23.18,48.58Z" style="fill: #ffd836; stroke: #3a3632; stroke-miterlimit: 10; stroke-width: 10px;"/>
        <path d="m1298.05,1557.34l-16.44,34.45s17.77,19.71,25.95,29.72c25.28,12.67,50.5.25,65.27-28.48,13.05-29.54,6.83-56.97-18.91-68.65-12.93-.06-39.43-1.48-39.43-1.48,0,0-16.44,34.45-16.44,34.45Z" style="fill: #fff6dd;"/>
      </g>
      <line x1="1312.85" y1="1526.33" x2="1298.38" y2="1556.65" style="fill: #fff6dd;"/>
    </g>
    <g>
      <line x1="1494.93" y1="1512.7" x2="1463.04" y2="1523.28" style="fill: #fff6dd;"/>
      <g>
        <path d="m1465.59,1530.95l51.09-16.95c5.21-36.57,4.35-65.66-1.23-92.06-11.64-55.1-42.08-78.5-105.12-57.59-63.04,20.91-73.46,57.87-49.86,109,11.31,24.49,28,48.33,54.04,74.54,0,0,51.09-16.95,51.09-16.95Z" style="fill: #ffd836; stroke: #3a3632; stroke-miterlimit: 10; stroke-width: 10px;"/>
        <path d="m1463.04,1523.28l36.23-12.02s1.9-26.47,3.45-39.3c-8.38-27-34.82-36.58-65.76-27.32-30.34,11.07-45.81,34.55-36.39,61.21,8.91,9.36,26.25,29.45,26.25,29.45,0,0,36.23-12.02,36.23-12.02Z" style="fill: #fff6dd;"/>
      </g>
      <line x1="1430.43" y1="1534.1" x2="1462.31" y2="1523.52" style="fill: #fff6dd;"/>
    </g>
    <g>
      <line x1="1563.97" y1="1465.75" x2="1595.22" y2="1478.09" style="fill: #fff6dd;"/>
      <g>
        <path d="m1598.19,1470.56l-50.06-19.77c-27.45,24.71-45.45,47.59-58.11,71.41-26.42,49.74-18.07,87.22,43.7,111.61,61.78,24.39,93.48,2.73,108.17-51.64,7.04-26.04,9.52-55.04,6.36-91.84,0,0-50.06-19.77-50.06-19.77Z" style="fill: #ffd836; stroke: #3a3632; stroke-miterlimit: 10; stroke-width: 10px;"/>
        <path d="m1595.22,1478.09l-35.5-14.02s-18.44,19.09-27.86,27.94c-10.89,26.09,3.24,50.4,32.92,63.14,30.38,10.97,57.3,2.88,67.18-23.61-.83-12.9-1.25-39.44-1.25-39.44,0,0-35.5-14.02-35.5-14.02Z" style="fill: #fff6dd;"/>
      </g>
      <line x1="1627.18" y1="1490.71" x2="1595.93" y2="1478.37" style="fill: #fff6dd;"/>
    </g>
    <g>
      <line x1="1645.46" y1="1361.83" x2="1665.1" y2="1389.09" style="fill: #fff6dd;"/>
      <g>
        <path d="m1671.66,1384.36l-31.46-43.67c-36.45,5.97-63.95,15.51-87.47,28.72-49.09,27.59-62.31,63.65-23.49,117.54,38.82,53.89,77.21,52.78,118.93,14.95,19.98-18.12,37.74-41.19,54.95-73.87,0,0-31.46-43.67-31.46-43.67Z" style="fill: #ffd836; stroke: #3a3632; stroke-miterlimit: 10; stroke-width: 10px;"/>
        <path d="m1665.1,1389.09l-22.31-30.97s-25.83,6.11-38.53,8.48c-23.25,16.08-24.49,44.17-6.39,70.92,19.64,25.64,46.68,33.37,69.29,16.4,6.27-11.31,20.24-33.87,20.24-33.87,0,0-22.31-30.97-22.31-30.97Z" style="fill: #fff6dd;"/>
      </g>
      <line x1="1685.18" y1="1416.97" x2="1665.55" y2="1389.71" style="fill: #fff6dd;"/>
    </g>
    <g>
      <line x1="1690.71" y1="1136.94" x2="1696.46" y2="1170.03" style="fill: #fff6dd;"/>
      <g>
        <path d="m1704.42,1168.65l-9.2-53.03c-35.4-10.56-64.3-14.01-91.22-12.4-56.22,3.36-83.86,30.01-72.51,95.45,11.36,65.44,46.37,81.22,100.43,65.44,25.89-7.56,51.94-20.55,81.71-42.42,0,0-9.2-53.03-9.2-53.03Z" style="fill: #ffd836; stroke: #3a3632; stroke-miterlimit: 10; stroke-width: 10px;"/>
        <path d="m1696.46,1170.03l-6.53-37.61s-25.9-5.79-38.36-9.22c-27.94,4.3-41.33,29.02-36.75,60.99,6.46,31.65,27.39,50.42,55.15,45.05,10.58-7.43,33.01-21.61,33.01-21.61,0,0-6.53-37.61-6.53-37.61Z" style="fill: #fff6dd;"/>
      </g>
      <line x1="1702.33" y1="1203.89" x2="1696.59" y2="1170.79" style="fill: #fff6dd;"/>
    </g>
    <g>
      <line x1="1651.52" y1="1336.62" x2="1667.05" y2="1306.83" style="fill: #fff6dd;"/>
      <g>
        <path d="m1659.88,1303.09l-24.88,47.73c21.72,29.88,42.59,50.17,64.96,65.23,46.71,31.46,84.86,27.06,115.56-31.84,30.7-58.9,12.45-92.69-40.09-112.96-25.17-9.71-53.75-15.2-90.68-15.89,0,0-24.88,47.73-24.88,47.73Z" style="fill: #ffd836; stroke: #3a3632; stroke-miterlimit: 10; stroke-width: 10px;"/>
        <path d="m1667.05,1306.83l-17.64,33.85s17.07,20.32,24.89,30.62c24.81,13.55,50.46,2.03,66.23-26.16,14.08-29.07,8.84-56.69-16.48-69.28-12.92-.52-39.35-2.87-39.35-2.87,0,0-17.64,33.85-17.64,33.85Z" style="fill: #fff6dd;"/>
      </g>
      <line x1="1682.93" y1="1276.36" x2="1667.41" y2="1306.15" style="fill: #fff6dd;"/>
    </g>
    <g>
      <line x1="1817.18" y1="1485.15" x2="1813.01" y2="1518.49" style="fill: #fff6dd;"/>
      <g>
        <path d="m1821.04,1519.49l6.69-53.41c-30.77-20.44-57.4-32.18-83.63-38.51-54.75-13.21-88.97,4.21-97.22,70.11-8.25,65.9,20.63,91.22,76.94,91.91,26.97.33,55.68-4.48,90.54-16.7,0,0,6.69-53.41,6.69-53.41Z" style="fill: #ffd836; stroke: #3a3632; stroke-miterlimit: 10; stroke-width: 10px;"/>
        <path d="m1813.01,1518.49l4.74-37.87s-23.08-13.1-34-20.02c-27.98-4.05-48.01,15.69-52.96,47.6-3.07,32.15,11.48,56.22,39.59,59.19,12.29-4.01,37.88-11.02,37.88-11.02,0,0,4.74-37.87,4.74-37.87Z" style="fill: #fff6dd;"/>
      </g>
      <line x1="1808.74" y1="1552.58" x2="1812.92" y2="1519.25" style="fill: #fff6dd;"/>
    </g>
    <g>
      <line x1="1451.36" y1="1061.85" x2="1483.68" y2="1071" style="fill: #fff6dd;"/>
      <g>
        <path d="m1485.88,1063.22l-51.79-14.67c-24.85,27.33-40.48,51.88-50.69,76.85-21.32,52.12-9.28,88.59,54.62,106.7,63.9,18.11,93.29-6.61,102.48-62.18,4.4-26.61,3.98-55.72-2.84-92.02,0,0-51.79-14.67-51.79-14.67Z" style="fill: #ffd836; stroke: #3a3632; stroke-miterlimit: 10; stroke-width: 10px;"/>
        <path d="m1483.68,1071l-36.72-10.41s-16.44,20.83-24.93,30.58c-8.23,27.05,8.26,49.83,39.06,59.54,31.32,7.89,57.31-2.85,64.49-30.2-2.11-12.75-5.18-39.11-5.18-39.11,0,0-36.72-10.41-36.72-10.41Z" style="fill: #fff6dd;"/>
      </g>
      <line x1="1516.74" y1="1080.37" x2="1484.42" y2="1071.21" style="fill: #fff6dd;"/>
    </g>
    <g>
      <line x1="1492.91" y1="873.39" x2="1520.51" y2="854.22" style="fill: #fff6dd;"/>
      <g>
        <path d="m1515.89,847.58l-44.21,30.71c5.35,36.55,14.4,64.21,27.22,87.95,26.75,49.56,62.57,63.39,117.12,25.5,54.55-37.89,54.09-76.29,16.99-118.66-17.77-20.29-40.53-38.44-72.91-56.21,0,0-44.21,30.71-44.21,30.71Z" style="fill: #ffd836; stroke: #3a3632; stroke-miterlimit: 10; stroke-width: 10px;"/>
        <path d="m1520.51,854.22l-31.35,21.77s5.67,25.93,7.81,38.67c15.68,23.53,43.75,25.24,70.8,7.6,25.97-19.2,34.17-46.1,17.59-69-11.2-6.46-33.51-20.82-33.51-20.82,0,0-31.35,21.77-31.35,21.77Z" style="fill: #fff6dd;"/>
      </g>
      <line x1="1548.73" y1="834.62" x2="1521.13" y2="853.79" style="fill: #fff6dd;"/>
    </g>
    <g>
      <line x1="1429.91" y1="908.29" x2="1408.52" y2="882.38" style="fill: #fff6dd;"/>
      <g>
        <path d="m1402.28,887.53l34.27,41.51c35.98-8.36,62.79-19.68,85.39-34.42,47.17-30.77,57.98-67.62,15.7-118.83-42.29-51.22-80.52-47.58-119.66-7.08-18.75,19.4-34.94,43.58-49.96,77.33,0,0,34.27,41.51,34.27,41.51Z" style="fill: #ffd836; stroke: #3a3632; stroke-miterlimit: 10; stroke-width: 10px;"/>
        <path d="m1408.52,882.38l24.3,29.43s25.37-7.8,37.89-11c22.14-17.58,21.52-45.69,1.7-71.19-21.29-24.29-48.77-30.22-70.22-11.8-5.51,11.69-17.97,35.13-17.97,35.13,0,0,24.3,29.43,24.3,29.43Z" style="fill: #fff6dd;"/>
      </g>
      <line x1="1386.64" y1="855.89" x2="1408.03" y2="881.79" style="fill: #fff6dd;"/>
    </g>
    <g>
      <line x1="1407.71" y1="909.52" x2="1378.52" y2="892.89" style="fill: #fff6dd;"/>
      <g>
        <path d="m1374.52,899.91l46.77,26.64c30.67-20.59,51.72-40.69,67.61-62.49,33.18-45.51,30.21-83.79-27.5-116.67-57.71-32.87-92.16-15.9-114.38,35.84-10.64,24.79-17.2,53.15-19.27,90.03,0,0,46.77,26.64,46.77,26.64Z" style="fill: #ffd836; stroke: #3a3632; stroke-miterlimit: 10; stroke-width: 10px;"/>
        <path d="m1378.52,892.89l33.16,18.89s20.95-16.29,31.52-23.73c14.46-24.29,3.91-50.35-23.67-67.16-28.52-15.15-56.32-10.94-69.84,13.89-1,12.89-4.33,39.22-4.33,39.22,0,0,33.16,18.89,33.16,18.89Z" style="fill: #fff6dd;"/>
      </g>
      <line x1="1348.66" y1="875.88" x2="1377.86" y2="892.51" style="fill: #fff6dd;"/>
    </g>
    <g>
      <line x1="1357.87" y1="643.05" x2="1391.35" y2="640.26" style="fill: #fff6dd;"/>
      <g>
        <path d="m1390.68,632.2l-53.64,4.46c-13.66,34.32-19.66,62.8-20.45,89.76-1.65,56.29,22.45,86.2,88.64,80.69,66.19-5.5,85.01-38.98,74.09-94.23-5.23-26.46-15.85-53.56-35-85.15,0,0-53.64,4.46-53.64,4.46Z" style="fill: #ffd836; stroke: #3a3632; stroke-miterlimit: 10; stroke-width: 10px;"/>
        <path d="m1391.35,640.26l-38.04,3.16s-8.07,25.28-12.59,37.39c1.8,28.22,25.24,43.75,57.49,42.02,32.09-3.62,52.65-22.81,49.76-50.94-6.46-11.2-18.59-34.8-18.59-34.8,0,0-38.04,3.16-38.04,3.16Z" style="fill: #fff6dd;"/>
      </g>
      <line x1="1425.6" y1="637.41" x2="1392.12" y2="640.2" style="fill: #fff6dd;"/>
    </g>
    <g>
      <line x1="1207.39" y1="570.11" x2="1176.22" y2="557.57" style="fill: #fff6dd;"/>
      <g>
        <path d="m1173.2,565.08l49.93,20.09c27.61-24.54,45.76-47.29,58.57-71.03,26.74-49.56,18.63-87.1-42.99-111.89-61.62-24.79-93.46-3.33-108.5,50.95-7.2,26-9.87,54.98-6.95,91.8,0,0,49.93,20.09,49.93,20.09Z" style="fill: #ffd836; stroke: #3a3632; stroke-miterlimit: 10; stroke-width: 10px;"/>
        <path d="m1176.22,557.57l35.41,14.25s18.56-18.97,28.03-27.76c11.06-26.02-2.92-50.42-32.52-63.35-30.3-11.17-57.29-3.25-67.33,23.18.75,12.9,1,39.44,1,39.44,0,0,35.41,14.25,35.41,14.25Z" style="fill: #fff6dd;"/>
      </g>
      <line x1="1144.34" y1="544.75" x2="1175.51" y2="557.29" style="fill: #fff6dd;"/>
    </g>
    <g>
      <line x1="1097.52" y1="321.27" x2="1127.91" y2="335.58" style="fill: #fff6dd;"/>
      <g>
        <path d="m1131.36,328.27l-48.69-22.94c-28.98,22.9-48.41,44.57-62.57,67.54-29.55,47.94-23.63,85.88,36.46,114.19,60.08,28.3,93.11,8.71,111.26-44.6,8.69-25.54,13.03-54.32,12.23-91.25,0,0-48.69-22.94-48.69-22.94Z" style="fill: #ffd836; stroke: #3a3632; stroke-miterlimit: 10; stroke-width: 10px;"/>
        <path d="m1127.91,335.58l-34.53-16.27s-19.62,17.87-29.59,26.1c-12.54,25.34,0,50.51,28.81,65.12,29.61,12.9,57,6.55,68.56-19.26,0-12.93,1.28-39.43,1.28-39.43,0,0-34.53-16.27-34.53-16.27Z" style="fill: #fff6dd;"/>
      </g>
      <line x1="1159" y1="350.23" x2="1128.6" y2="335.91" style="fill: #fff6dd;"/>
    </g>
    <g>
      <line x1="1351.52" y1="545" x2="1361.81" y2="576.98" style="fill: #fff6dd;"/>
      <g>
        <path d="m1369.51,574.5l-16.47-51.24c-36.52-5.55-65.62-4.95-92.06.38-55.21,11.13-78.89,41.36-58.56,104.59,20.33,63.23,57.19,74,108.54,50.87,24.6-11.08,48.59-27.55,75.03-53.35,0,0-16.47-51.24-16.47-51.24Z" style="fill: #ffd836; stroke: #3a3632; stroke-miterlimit: 10; stroke-width: 10px;"/>
        <path d="m1361.81,576.98l-11.68-36.34s-26.45-2.14-39.27-3.81c-27.08,8.13-36.9,34.48-27.93,65.5,10.79,30.44,34.12,46.13,60.87,36.96,9.45-8.82,29.69-25.98,29.69-25.98,0,0-11.68-36.34-11.68-36.34Z" style="fill: #fff6dd;"/>
      </g>
      <line x1="1372.32" y1="609.69" x2="1362.04" y2="577.71" style="fill: #fff6dd;"/>
    </g>
    <g>
      <line x1="1263.36" y1="865.78" x2="1245.9" y2="837.08" style="fill: #fff6dd;"/>
      <g>
        <path d="m1238.99,841.28l27.98,45.98c36.81-3.13,64.96-10.5,89.43-21.86,51.08-23.71,67.05-58.63,32.52-115.37-34.53-56.74-72.89-58.6-117.41-24.12-21.33,16.52-40.81,38.14-60.51,69.39,0,0,27.98,45.98,27.98,45.98Z" style="fill: #ffd836; stroke: #3a3632; stroke-miterlimit: 10; stroke-width: 10px;"/>
        <path d="m1245.9,837.08l19.84,32.6s26.22-4.09,39.07-5.47c24.43-14.23,27.83-42.14,11.86-70.21-17.6-27.08-43.95-36.88-67.82-21.72-7.12,10.79-22.81,32.2-22.81,32.2,0,0,19.84,32.6,19.84,32.6Z" style="fill: #fff6dd;"/>
      </g>
      <line x1="1228.03" y1="807.73" x2="1245.5" y2="836.42" style="fill: #fff6dd;"/>
    </g>
    <g>
      <line x1="405.01" y1="1144.8" x2="372.26" y2="1137.34" style="fill: #fff6dd;"/>
      <g>
        <path d="m370.46,1145.23l52.48,11.96c23.39-28.59,37.72-53.92,46.62-79.39,18.58-53.16,4.65-88.95-60.11-103.71-64.76-14.76-92.82,11.46-99.1,67.43-3.01,26.81-1.07,55.85,7.63,91.75,0,0,52.48,11.96,52.48,11.96Z" style="fill: #ffd836; stroke: #3a3632; stroke-miterlimit: 10; stroke-width: 10px;"/>
        <path d="m372.26,1137.34l37.21,8.48s15.33-21.66,23.3-31.84c6.81-27.44-10.84-49.33-42.11-57.43-31.69-6.25-57.08,5.83-62.83,33.52,2.77,12.63,7.21,38.79,7.21,38.79,0,0,37.21,8.48,37.21,8.48Z" style="fill: #fff6dd;"/>
      </g>
      <line x1="338.76" y1="1129.71" x2="371.51" y2="1137.17" style="fill: #fff6dd;"/>
    </g>
    <g>
      <line x1="609.54" y1="793.66" x2="613.17" y2="827.06" style="fill: #fff6dd;"/>
      <g>
        <path d="m621.21,826.19l-5.81-53.51c-34.65-12.8-63.27-18.08-90.25-18.19-56.32-.23-85.61,24.61-78.44,90.64,7.17,66.03,41.1,84.01,96.06,71.7,26.32-5.89,53.15-17.2,84.25-37.13,0,0-5.81-53.51-5.81-53.51Z" style="fill: #ffd836; stroke: #3a3632; stroke-miterlimit: 10; stroke-width: 10px;"/>
        <path d="m613.17,827.06l-4.12-37.94s-25.48-7.43-37.7-11.65c-28.16,2.51-43.1,26.33-40.56,58.53,4.43,31.99,24.13,52.06,52.17,48.47,11.03-6.74,34.32-19.46,34.32-19.46,0,0-4.12-37.94-4.12-37.94Z" style="fill: #fff6dd;"/>
      </g>
      <line x1="616.87" y1="861.22" x2="613.25" y2="827.82" style="fill: #fff6dd;"/>
    </g>
    <g>
      <line x1="756.29" y1="768.52" x2="741.52" y2="798.69" style="fill: #fff6dd;"/>
      <g>
        <path d="m748.78,802.25l23.67-48.34c-22.46-29.32-43.84-49.08-66.59-63.57-47.49-30.27-85.52-24.91-114.72,34.74-29.2,59.65-10.11,92.97,42.92,111.92,25.4,9.07,54.12,13.84,91.05,13.6,0,0,23.67-48.34,23.67-48.34Z" style="fill: #ffd836; stroke: #3a3632; stroke-miterlimit: 10; stroke-width: 10px;"/>
        <path d="m741.52,798.69l16.78-34.28s-17.57-19.89-25.65-29.98c-25.15-12.92-50.5-.75-65.55,27.83-13.34,29.41-7.4,56.9,18.23,68.84,12.93.19,39.41,1.87,39.41,1.87,0,0,16.78-34.28,16.78-34.28Z" style="fill: #fff6dd;"/>
      </g>
      <line x1="726.41" y1="829.55" x2="741.18" y2="799.38" style="fill: #fff6dd;"/>
    </g>
    <g>
      <line x1="218.11" y1="1404.97" x2="251.69" y2="1404.02" style="fill: #fff6dd;"/>
      <g>
        <path d="m251.46,1395.93l-53.8,1.53c-15.51,33.52-23.05,61.64-25.31,88.52-4.71,56.12,17.72,87.29,84.11,85.4,66.39-1.89,87.01-34.29,79.11-90.05-3.78-26.71-12.91-54.35-30.31-86.93,0,0-53.8,1.53-53.8,1.53Z" style="fill: #ffd836; stroke: #3a3632; stroke-miterlimit: 10; stroke-width: 10px;"/>
        <path d="m251.69,1404.02l-38.15,1.09s-9.43,24.81-14.61,36.65c.26,28.27,22.82,45.05,55.12,45.08,32.24-1.87,53.81-19.91,52.46-48.15-5.84-11.53-16.67-35.76-16.67-35.76,0,0-38.15,1.09-38.15,1.09Z" style="fill: #fff6dd;"/>
      </g>
      <line x1="286.04" y1="1403.04" x2="252.46" y2="1404" style="fill: #fff6dd;"/>
    </g>
    <g>
      <line x1="155.22" y1="1689.6" x2="123.05" y2="1679.93" style="fill: #fff6dd;"/>
      <g>
        <path d="m120.72,1687.68l51.55,15.49c25.28-26.93,41.3-51.23,51.91-76.04,22.15-51.78,10.68-88.43-52.92-107.55-63.61-19.12-93.38,5.13-103.45,60.54-4.82,26.54-4.86,55.65,1.38,92.05,0,0,51.55,15.49,51.55,15.49Z" style="fill: #ffd836; stroke: #3a3632; stroke-miterlimit: 10; stroke-width: 10px;"/>
        <path d="m123.05,1679.93l36.55,10.99s16.77-20.57,25.41-30.18c8.66-26.91-7.47-49.95-38.11-60.15-31.19-8.38-57.34,1.94-64.96,29.17,1.91,12.78,4.56,39.19,4.56,39.19,0,0,36.55,10.99,36.55,10.99Z" style="fill: #fff6dd;"/>
      </g>
      <line x1="90.14" y1="1670.04" x2="122.31" y2="1679.71" style="fill: #fff6dd;"/>
    </g>
    <g>
      <line x1="527.31" y1="1704.96" x2="504.54" y2="1729.66" style="fill: #fff6dd;"/>
      <g>
        <path d="m510.48,1735.14l36.48-39.57c-13.16-34.52-28.01-59.55-45.67-79.94-36.87-42.57-74.85-48.29-119.86.54-45.02,48.83-36.23,86.22,9.18,119.51,21.76,15.95,47.91,28.72,83.38,39.03,0,0,36.48-39.57,36.48-39.57Z" style="fill: #ffd836; stroke: #3a3632; stroke-miterlimit: 10; stroke-width: 10px;"/>
        <path d="m504.54,1729.66l25.87-28.06s-11.16-24.08-16.03-36.05c-20.41-19.56-48.18-15.14-70.76,7.95-21.18,24.38-23.34,52.42-2.19,71.18,12.33,3.88,37.24,13.05,37.24,13.05,0,0,25.87-28.06,25.87-28.06Z" style="fill: #fff6dd;"/>
      </g>
      <line x1="481.25" y1="1754.92" x2="504.02" y2="1730.22" style="fill: #fff6dd;"/>
    </g>
    <g>
      <line x1="799.77" y1="1738.24" x2="783.03" y2="1767.36" style="fill: #fff6dd;"/>
      <g>
        <path d="m790.04,1771.39l26.82-46.66c-20.47-30.75-40.49-51.88-62.22-67.86-45.38-33.36-83.67-30.54-116.77,27.05-33.1,57.58-16.26,92.1,35.4,114.52,24.75,10.74,53.08,17.41,89.95,19.62,0,0,26.82-46.66,26.82-46.66Z" style="fill: #ffd836; stroke: #3a3632; stroke-miterlimit: 10; stroke-width: 10px;"/>
        <path d="m783.03,1767.36l19.02-33.09s-16.21-21.01-23.61-31.61c-24.24-14.56-50.34-4.1-67.25,23.41-15.27,28.46-11.16,56.28,13.61,69.9,12.88,1.05,39.2,4.49,39.2,4.49,0,0,19.02-33.09,19.02-33.09Z" style="fill: #fff6dd;"/>
      </g>
      <line x1="765.91" y1="1797.15" x2="782.65" y2="1768.03" style="fill: #fff6dd;"/>
    </g>
    <g>
      <line x1="1189.76" y1="1722.3" x2="1184.76" y2="1755.52" style="fill: #fff6dd;"/>
      <g>
        <path d="m1192.76,1756.72l8.01-53.22c-30.25-21.2-56.58-33.6-82.64-40.57-54.4-14.57-89.05,1.99-98.94,67.67-9.89,65.68,18.35,91.7,74.63,93.8,26.96,1,55.77-3.09,90.92-14.44,0,0,8.01-53.22,8.01-53.22Z" style="fill: #ffd836; stroke: #3a3632; stroke-miterlimit: 10; stroke-width: 10px;"/>
        <path d="m1184.76,1755.52l5.68-37.74s-22.74-13.67-33.49-20.86c-27.87-4.75-48.38,14.49-54.13,46.27-3.87,32.06,10.07,56.49,38.11,60.16,12.38-3.71,38.15-10.08,38.15-10.08,0,0,5.68-37.74,5.68-37.74Z" style="fill: #fff6dd;"/>
      </g>
      <line x1="1179.64" y1="1789.5" x2="1184.65" y2="1756.28" style="fill: #fff6dd;"/>
    </g>
    <g>
      <line x1="1910.76" y1="1591.43" x2="1921.48" y2="1623.26" style="fill: #fff6dd;"/>
      <g>
        <path d="m1929.15,1620.68l-17.18-51.01c-36.59-5.04-65.68-4.04-92.05,1.66-55.05,11.89-78.31,42.45-57.1,105.39,21.21,62.94,58.21,73.19,109.23,49.35,24.44-11.42,48.2-28.23,74.28-54.38,0,0-17.18-51.01-17.18-51.01Z" style="fill: #ffd836; stroke: #3a3632; stroke-miterlimit: 10; stroke-width: 10px;"/>
        <path d="m1921.48,1623.26l-12.19-36.17s-26.48-1.77-39.32-3.26c-26.96,8.51-36.42,34.99-27.01,65.89,11.21,30.29,34.76,45.65,61.38,36.11,9.32-8.95,29.33-26.39,29.33-26.39,0,0-12.19-36.17-12.19-36.17Z" style="fill: #fff6dd;"/>
      </g>
      <line x1="1932.45" y1="1655.83" x2="1921.73" y2="1623.99" style="fill: #fff6dd;"/>
    </g>
    <g>
      <line x1="1599.89" y1="1338.09" x2="1590.36" y2="1370.3" style="fill: #fff6dd;"/>
      <g>
        <path d="m1598.11,1372.6l15.26-51.61c-27.04-25.16-51.42-41.07-76.27-51.57-51.88-21.92-88.48-10.29-107.31,53.4-18.84,63.69,5.55,93.36,61,103.18,26.56,4.71,55.67,4.62,92.05-1.79,0,0,15.26-51.61,15.26-51.61Z" style="fill: #ffd836; stroke: #3a3632; stroke-miterlimit: 10; stroke-width: 10px;"/>
        <path d="m1590.36,1370.3l10.82-36.6s-20.65-16.68-30.3-25.28c-26.95-8.54-49.92,7.69-59.98,38.38-8.24,31.23,2.2,57.33,29.46,64.83,12.78-1.97,39.17-4.73,39.17-4.73,0,0,10.82-36.6,10.82-36.6Z" style="fill: #fff6dd;"/>
      </g>
      <line x1="1580.61" y1="1403.25" x2="1590.14" y2="1371.04" style="fill: #fff6dd;"/>
    </g>
    <g>
      <line x1="1681.29" y1="1264.64" x2="1676.97" y2="1297.96" style="fill: #fff6dd;"/>
      <g>
        <path d="m1684.99,1299l6.92-53.38c-30.68-20.58-57.26-32.43-83.45-38.88-54.69-13.45-88.99,3.81-97.53,69.68-8.54,65.87,20.22,91.31,76.53,92.25,26.97.45,55.7-4.23,90.61-16.3,0,0,6.92-53.38,6.92-53.38Z" style="fill: #ffd836; stroke: #3a3632; stroke-miterlimit: 10; stroke-width: 10px;"/>
        <path d="m1676.97,1297.96l4.91-37.85s-23.02-13.21-33.91-20.17c-27.96-4.18-48.08,15.47-53.17,47.37-3.21,32.14,11.23,56.27,39.33,59.36,12.31-3.96,37.93-10.86,37.93-10.86,0,0,4.91-37.85,4.91-37.85Z" style="fill: #fff6dd;"/>
      </g>
      <line x1="1672.55" y1="1332.03" x2="1676.87" y2="1298.72" style="fill: #fff6dd;"/>
    </g>
    <g>
      <line x1="1414.03" y1="1524.8" x2="1387.84" y2="1545.84" style="fill: #fff6dd;"/>
      <g>
        <path d="m1392.9,1552.14l41.97-33.7c-7.87-36.09-18.82-63.06-33.25-85.85-30.12-47.59-66.82-58.9-118.61-17.32-51.79,41.58-48.67,79.86-8.72,119.55,19.14,19.01,43.1,35.54,76.64,51.02,0,0,41.97-33.7,41.97-33.7Z" style="fill: #ffd836; stroke: #3a3632; stroke-miterlimit: 10; stroke-width: 10px;"/>
        <path d="m1387.84,1545.84l29.76-23.9s-7.45-25.47-10.48-38.04c-17.27-22.38-45.39-22.15-71.16-2.68-24.58,20.95-30.89,48.35-12.77,70.06,11.62,5.67,34.88,18.45,34.88,18.45,0,0,29.76-23.9,29.76-23.9Z" style="fill: #fff6dd;"/>
      </g>
      <line x1="1361.04" y1="1567.35" x2="1387.24" y2="1546.32" style="fill: #fff6dd;"/>
    </g>
    <g>
      <line x1="1489.3" y1="975.65" x2="1522.89" y2="976.04" style="fill: #fff6dd;"/>
      <g>
        <path d="m1522.99,967.95l-53.82-.63c-16.85,32.87-25.51,60.66-28.85,87.43-6.96,55.88,14.19,87.93,80.61,88.71,66.41.78,88.32-30.76,82.67-86.79-2.7-26.84-10.72-54.82-26.79-88.08,0,0-53.82-.63-53.82-.63Z" style="fill: #ffd836; stroke: #3a3632; stroke-miterlimit: 10; stroke-width: 10px;"/>
        <path d="m1522.89,976.04l-38.17-.45s-10.42,24.41-16.07,36.03c-.88,28.26,20.99,45.94,53.26,47.27,32.29-.57,54.57-17.73,54.36-46-5.37-11.76-15.22-36.4-15.22-36.4,0,0-38.17-.45-38.17-.45Z" style="fill: #fff6dd;"/>
      </g>
      <line x1="1557.25" y1="976.45" x2="1523.66" y2="976.05" style="fill: #fff6dd;"/>
    </g>
    <g>
      <line x1="930.89" y1="1034.86" x2="919.23" y2="1003.35" style="fill: #fff6dd;"/>
      <g>
        <path d="m911.65,1006.16l18.67,50.48c36.73,3.96,65.77,2.11,91.96-4.36,54.67-13.5,77.03-44.73,53.98-107.02-23.04-62.29-60.34-71.45-110.64-46.12-24.09,12.13-47.35,29.63-72.66,56.54,0,0,18.67,50.48,18.67,50.48Z" style="fill: #ffd836; stroke: #3a3632; stroke-miterlimit: 10; stroke-width: 10px;"/>
        <path d="m919.23,1003.35l13.24,35.8s26.52,1,39.4,2.11c26.7-9.3,35.38-36.04,25.07-66.65-12.09-29.95-36.09-44.61-62.41-34.29-9.06,9.22-28.54,27.24-28.54,27.24,0,0,13.24,35.8,13.24,35.8Z" style="fill: #fff6dd;"/>
      </g>
      <line x1="907.31" y1="971.13" x2="918.97" y2="1002.63" style="fill: #fff6dd;"/>
    </g>
    <g>
      <line x1="1013.44" y1="857.28" x2="998.55" y2="827.17" style="fill: #fff6dd;"/>
      <g>
        <path d="m991.3,830.76l23.87,48.24c36.94.09,65.63-4.8,91-13.98,52.96-19.16,71.91-52.56,42.46-112.09-29.45-59.53-67.5-64.73-114.86-34.27-22.69,14.59-43.98,34.43-66.33,63.85,0,0,23.87,48.24,23.87,48.24Z" style="fill: #ffd836; stroke: #3a3632; stroke-miterlimit: 10; stroke-width: 10px;"/>
        <path d="m998.55,827.17l16.92,34.21s26.48-1.79,39.4-2.04c25.58-12.05,31.4-39.56,17.94-68.91-15.17-28.51-40.57-40.58-65.66-27.55-8.04,10.12-25.53,30.08-25.53,30.08,0,0,16.92,34.21,16.92,34.21Z" style="fill: #fff6dd;"/>
      </g>
      <line x1="983.31" y1="796.38" x2="998.21" y2="826.49" style="fill: #fff6dd;"/>
    </g>
    <g>
      <line x1="856.11" y1="798.67" x2="880.57" y2="821.7" style="fill: #fff6dd;"/>
      <g>
        <path d="m886.11,815.81l-39.19-36.89c-34.65,12.8-59.84,27.38-80.41,44.83-42.95,36.43-49.07,74.34-.71,119.86,48.36,45.53,85.83,37.13,119.6-7.94,16.18-21.59,29.22-47.61,39.9-82.97,0,0-39.19-36.89-39.19-36.89Z" style="fill: #ffd836; stroke: #3a3632; stroke-miterlimit: 10; stroke-width: 10px;"/>
        <path d="m880.57,821.7l-27.79-26.16s-24.19,10.91-36.22,15.65c-19.77,20.21-15.64,48.02,7.21,70.84,24.16,21.44,52.17,23.88,71.15,2.93,4-12.29,13.44-37.1,13.44-37.1,0,0-27.79-26.16-27.79-26.16Z" style="fill: #fff6dd;"/>
      </g>
      <line x1="905.59" y1="845.25" x2="881.13" y2="822.22" style="fill: #fff6dd;"/>
    </g>
    <g>
      <line x1="728.15" y1="654.64" x2="712.65" y2="684.45" style="fill: #fff6dd;"/>
      <g>
        <path d="m719.83,688.18l24.82-47.76c-21.75-29.85-42.65-50.12-65.04-65.16-46.75-31.4-84.89-26.96-115.52,31.97-30.63,58.93-12.34,92.7,40.22,112.92,25.18,9.68,53.77,15.14,90.7,15.79,0,0,24.82-47.76,24.82-47.76Z" style="fill: #ffd836; stroke: #3a3632; stroke-miterlimit: 10; stroke-width: 10px;"/>
        <path d="m712.65,684.45l17.6-33.87s-17.09-20.3-24.92-30.59c-24.83-13.52-50.47-1.97-66.2,26.24-14.04,29.08-8.77,56.7,16.56,69.26,12.92.5,39.35,2.82,39.35,2.82,0,0,17.6-33.87,17.6-33.87Z" style="fill: #fff6dd;"/>
      </g>
      <line x1="696.81" y1="714.94" x2="712.3" y2="685.13" style="fill: #fff6dd;"/>
    </g>
    <g>
      <line x1="1625.24" y1="1155.17" x2="1597.07" y2="1136.87" style="fill: #fff6dd;"/>
      <g>
        <path d="m1592.66,1143.65l45.13,29.33c31.82-18.76,54.01-37.6,71.14-58.43,35.78-43.49,35.05-81.89-20.65-118.07-55.69-36.19-91.07-21.25-116.28,29.11-12.07,24.12-20.27,52.05-24.49,88.75,0,0,45.13,29.33,45.13,29.33Z" style="fill: #ffd836; stroke: #3a3632; stroke-miterlimit: 10; stroke-width: 10px;"/>
        <path d="m1597.07,1136.87l32.01,20.8s21.86-15.04,32.85-21.85c15.86-23.41,6.84-50.04-19.71-68.43-27.59-16.79-55.59-14.21-70.53,9.79-1.75,12.81-6.62,38.9-6.62,38.9,0,0,32.01,20.8,32.01,20.8Z" style="fill: #fff6dd;"/>
      </g>
      <line x1="1568.26" y1="1118.15" x2="1596.43" y2="1136.45" style="fill: #fff6dd;"/>
    </g>
  </g>
  <g>
    <g>
      <line x1="272.34" y1="618.92" x2="270.75" y2="474.83" style="fill: none; stroke: #91d9f2; stroke-linecap: round; stroke-miterlimit: 10; stroke-width: 13px;"/>
      <polyline points="241.71 597.68 271.77 566.96 302.49 597.01" style="fill: none; stroke: #91d9f2; stroke-linecap: round; stroke-miterlimit: 10; stroke-width: 13px;"/>
    </g>
    <g>
      <line x1="162.59" y1="557.15" x2="286.58" y2="483.74" style="fill: none; stroke: #91d9f2; stroke-linecap: round; stroke-miterlimit: 10; stroke-width: 13px;"/>
      <polyline points="165.67 520.01 207.3 530.68 196.64 572.31" style="fill: none; stroke: #91d9f2; stroke-linecap: round; stroke-miterlimit: 10; stroke-width: 13px;"/>
    </g>
    <g>
      <line x1="161.2" y1="431.22" x2="286.77" y2="501.89" style="fill: none; stroke: #91d9f2; stroke-linecap: round; stroke-miterlimit: 10; stroke-width: 13px;"/>
      <polyline points="194.91 415.32 206.49 456.71 165.1 468.29" style="fill: none; stroke: #91d9f2; stroke-linecap: round; stroke-miterlimit: 10; stroke-width: 13px;"/>
    </g>
    <g>
      <line x1="269.57" y1="367.06" x2="271.15" y2="511.14" style="fill: none; stroke: #91d9f2; stroke-linecap: round; stroke-miterlimit: 10; stroke-width: 13px;"/>
      <polyline points="300.19 388.3 270.14 419.02 239.42 388.97" style="fill: none; stroke: #91d9f2; stroke-linecap: round; stroke-miterlimit: 10; stroke-width: 13px;"/>
    </g>
    <g>
      <line x1="379.32" y1="428.82" x2="255.33" y2="502.24" style="fill: none; stroke: #91d9f2; stroke-linecap: round; stroke-miterlimit: 10; stroke-width: 13px;"/>
      <polyline points="376.23 465.96 334.6 455.3 345.27 413.67" style="fill: none; stroke: #91d9f2; stroke-linecap: round; stroke-miterlimit: 10; stroke-width: 13px;"/>
    </g>
    <g>
      <line x1="380.7" y1="554.75" x2="255.13" y2="484.08" style="fill: none; stroke: #91d9f2; stroke-linecap: round; stroke-miterlimit: 10; stroke-width: 13px;"/>
      <polyline points="347 570.65 335.42 529.27 376.8 517.69" style="fill: none; stroke: #91d9f2; stroke-linecap: round; stroke-miterlimit: 10; stroke-width: 13px;"/>
    </g>
  </g>
</svg>