<svg id="Layer_1" data-name="Layer 1" xmlns="http://www.w3.org/2000/svg" width="2000" height="2000" viewBox="0 0 2000 2000"><path d="M1603,1740.26a149,149,0,0,1-117,165.37c-108.72,23-298.28,49.37-485.94,49.37s-377.23-26.35-485.95-49.37a149,149,0,0,1-117-165.37L545.69,693.34h908.62Z" style="fill:#fff;stroke:#231f20;stroke-linecap:round;stroke-linejoin:round;stroke-width:55px"/><path d="M999.17,45C766,45,546.46,142.36,493.92,340.56l26.37,205.07V693.34h957.76V545.63l26.37-205.07C1451.88,142.36,1232.34,45,999.17,45Z" style="fill:#fff;stroke:#231f20;stroke-linecap:round;stroke-linejoin:round;stroke-width:55px"/><line x1="493.92" y1="340.56" x2="1504.42" y2="340.56" style="fill:#fff5eb;stroke:#231f20;stroke-linecap:round;stroke-linejoin:round;stroke-width:55px"/><circle cx="996" cy="131.45" r="31.2" style="fill:#fff5eb"/><circle cx="792.96" cy="156.4" r="31.2" style="fill:#fff5eb"/><circle cx="1199.03" cy="156.4" r="31.2" style="fill:#fff5eb"/><circle cx="996" cy="131.45" r="31.2" style="fill:#231f20"/><circle cx="792.96" cy="156.4" r="31.2" style="fill:#231f20"/><circle cx="1199.03" cy="156.4" r="31.2" style="fill:#231f20"/><line x1="520.29" y1="545.63" x2="1478.05" y2="545.63" style="fill:none;stroke:#231f20;stroke-linecap:round;stroke-linejoin:round;stroke-width:55px"/><polygon points="1269.63 799.24 1293.15 777.29 1246.12 777.29 1269.63 799.24" style="fill:#ef3f3f"/><polygon points="730.37 799.24 753.88 777.29 706.85 777.29 730.37 799.24" style="fill:#ef3f3f"/><polygon points="1092.12 777.29 907.88 777.29 730.37 942.98 610.84 831.4 594.84 944.07 730.37 1070.58 1000 818.9 1269.63 1070.58 1405.09 944.14 1389.09 831.47 1269.63 942.98 1092.12 777.29" style="fill:#ef3f3f"/><polygon points="1000 962.64 730.37 1214.33 576.81 1070.99 560.81 1183.66 730.37 1341.93 1000 1090.24 1269.63 1341.93 1439.11 1183.73 1423.12 1071.06 1269.63 1214.33 1000 962.64" style="fill:#ef3f3f"/><polygon points="1000 1233.99 730.37 1485.67 542.79 1310.58 526.79 1423.25 730.37 1613.28 1000 1361.59 1269.63 1613.28 1473.13 1423.32 1457.14 1310.65 1269.63 1485.67 1000 1233.99" style="fill:#ef3f3f"/><path d="M1000,1505.33,730.37,1757l-221.6-206.85-16,112.67,200.81,187.44c21,2.71,42.93,5.26,65.44,7.6l241-224.94,241,224.93c22.52-2.33,44.41-4.89,65.46-7.6l200.73-187.36-16-112.67L1269.63,1757Z" style="fill:#ef3f3f"/><path d="M1000,1776.68l-98.55,92c32.65,1.53,65.66,2.39,98.52,2.39s65.91-.86,98.58-2.39Z" style="fill:#ef3f3f"/></svg>