<svg id="Layer_1" data-name="Layer 1" xmlns="http://www.w3.org/2000/svg" viewBox="0 0 2000 2000"><path d="M234.65,1153.93c125.88-6.23,252.27-9.73,378.25-9.7,80.17.1,163.78,2.61,244,4,116.67,1.82,233.14,1.4,349.43-4.64,145.06-6.77,289.83-25.64,435.66-31.78a455.53,455.53,0,0,1,55.87,2.39c18.79,1.75,37.53,4.1,56,8.34,18.12,3.94,37.3,9.33,55.45,12.68,13.74,2.69,27.42,4.24,41.16,5.87,40.91,4.89,81.74,11.14,122.2,17.36-45.18-5.55-90.95-5.48-136.29-2.45a262,262,0,0,0-27.17,3.47c-22.62,4.16-44.84,11.92-67.14,17.94-39.42,10.24-79.31,18.58-119.69,23.24-162.64,21.3-325.3,55.59-489.82,67.13-101.4,7.82-203.34,9.81-304.7,8.47a3262.56,3262.56,0,0,1-329.1-20.07c-55.37-6.31-111-11-165.49-24.66-37.28-9.48-74.33-11.52-107.7-31.45.83-6.66,8-40.42,9.13-46.14Z" style="fill:#518737;stroke:#3a3632;stroke-linecap:round;stroke-linejoin:round;stroke-width:20px"/><path d="M229.49,1175.66c-1.36,1.11-2.82,1-4.37,1.23l-4.31.33c-15.42,1.26-44.3,3.57-60,4.86-11.23,1-22.35,4-33.65,3.44-7.65-.15-15.49-.76-23.13-1.61l-11.12-1.15a1.1,1.1,0,0,1-.68-1.83,35.94,35.94,0,0,1,9.55-7.32,78.68,78.68,0,0,1,41.32-9c11.66,1.1,23.23,1.73,34.86,2.75,14.31,1.38,28.85,3.31,43,5.82l4.28.74c1.52.37,3,.44,4.22,1.71Z" style="fill:#3a3632"/><line x1="215.13" y1="1153.23" x2="206.8" y2="1195.26" style="fill:#009444;stroke:#3a3632;stroke-linecap:round;stroke-linejoin:round;stroke-width:20px"/><path d="M282.52,950.89c25.19-7.7,50.72-13.11,76.36-18.59,41.4-8.57,84.66-15.59,126.45-21.79,190.48-31.23,384.38-60.28,578.29-57.21,42.38.87,85.28,3.32,127.41,8,122.31,13,242.94,49.82,360.33,79.63,28,7.32,58.67,13.76,86.58,21,12.32,3.23,24.46,6.92,36.65,10.73,16.37,4.88,32.83,10,48.94,15.86,18.39,6.66,36.94,13.4,56.21,17.08,14.79,2.72,29.86,3.81,44.86,4.59,34.31,1.61,69,.13,103-6.07-33.77,7.17-68,13-102.69,16.84-21.78,2.39-44,3.62-65.64,7.48-17.87,2.88-35.7,6.52-53.75,8.3-13.43,1.45-26.93,1.72-40.41,1.84a419.7,419.7,0,0,1-66.47-4.52c-114.8-17.48-228.86-45.12-342.74-58.46-74.05-8.53-149.44-10.38-223.87-8.05-110,3.18-220.47,16.3-330.16,26.12-69.11,6.09-138.73,10.2-208.39,11.6-39.14.93-79.8.42-118.79-3.67-31.12-3.37-62.15-8.24-92.26-17.09-15.88-4.82-17.24-28.15.07-33.6Z" style="fill:#518737;stroke:#3a3632;stroke-linecap:round;stroke-linejoin:round;stroke-width:20px"/><path d="M273.45,966c-1.57,1-3.2.78-4.88.85l-4.77-.08-9.53-.17c-17.55-.33-39.38-1.55-57-2.83-9.46-.77-19.1-.35-28.53-1.71a125.69,125.69,0,0,1-27.7-7.83c-6.16-2.56-12.24-5.46-17.61-9.69a1.08,1.08,0,0,1-.17-1.53,1.05,1.05,0,0,1,.69-.4c3.35-.71,6.53-1.1,9.87-1.52a167.29,167.29,0,0,1,28.66-.65c12.67.51,24.73,4.89,37,7.49,17.26,3.65,38.51,8.33,55.55,12.56l9.24,2.29L269,964c1.6.5,3.23.69,4.5,2.07Z" style="fill:#3a3632"/><line x1="259.09" y1="943.6" x2="250.76" y2="985.64" style="fill:#009444;stroke:#3a3632;stroke-linecap:round;stroke-linejoin:round;stroke-width:20px"/><path d="M272.39,669.46c-1.4,1.09-2.88,1-4.45,1.18l-4.38.29c-20.18,1.52-40.59,3.32-60.57,5.89-11.18,1.49-22.06,5.18-33.27,5.84-3,.24-17.88,1.33-20.6,1.59s-5.63.59-8.46,1c-1.6.21-3,.61-4.67.84a1.08,1.08,0,0,1-1.11-1.56c5.91-11.65,19.23-17.91,31.05-21.51s24.11-2.34,36.13-2.18c5.95.09,11.89.3,17.8.67a399.4,399.4,0,0,1,43.91,5.4l4.35.79c1.54.39,3,.46,4.27,1.76Z" style="fill:#3a3632"/><line x1="258.02" y1="647.04" x2="249.7" y2="689.07" style="fill:#009444;stroke:#3a3632;stroke-linecap:round;stroke-linejoin:round;stroke-width:20px"/><path d="M276,660.37c26-9.29,53.07-15,80.4-18.45,26.89-3.57,53.91-4.74,81-4.58C575.1,640.29,710.5,665.41,847,675.8c83.36,6.38,171.54,8.42,255.17,12.21,172.4,7.81,345.34,19.18,517.65,30.34a448.57,448.57,0,0,1,51.67,8c8.61,1.77,17.23,3.5,25.8,5.57,17.33,4.14,34.5,10.15,51.51,15.66,25.11,8.69,51.37,12.46,77.44,15.15,34.42,3.89,68.9,7.25,103.48,8.48-34.61-.14-69.19,1.85-103.73,4.36-17.31,1.42-34.6,2.27-52,5.77S1739.19,790.26,1722,795c-25.6,7.08-51.8,11.09-78,14.52-17.26,2.07-34.55,2.69-51.89,3-198.7,4.16-397.77,10.29-596.45,8.71-57-.55-115.21-2.11-172-6.44-83.94-6.09-167.38-21.12-248.71-39.84-42.08-9.54-83-19.46-124.66-28.49q-27.8-6.07-55.44-12.87c-22.64-5.39-45.32-11.53-67.81-17.64-17.18-5-34.11-9.48-51.09-15.8-18.11-6.85-18.39-32.88.19-39.75Z" style="fill:#518737;stroke:#3a3632;stroke-linecap:round;stroke-linejoin:round;stroke-width:20px"/><path d="M378,460.57c-1.58.79-3,.39-4.59.26l-4.35-.6c-20.08-2.56-40.43-4.89-60.52-6.4-11.25-.78-22.65.66-33.77-.95-5.69-.71-19.11-2.53-24.68-3-2.13-.2-4.36-.35-6.52-.35-.81,0-1.65,0-2.53-.07a1.08,1.08,0,0,1-.77-1.75c8.13-10.22,22.43-13.68,34.74-14.83s24.08,2.54,35.83,5.12q8.72,1.92,17.3,4.23a398.75,398.75,0,0,1,41.94,14.11l4.1,1.64c1.43.69,2.87,1.07,3.82,2.59Z" style="fill:#3a3632"/><line x1="368.46" y1="435.72" x2="351.86" y2="475.22" style="fill:#009444;stroke:#3a3632;stroke-linecap:round;stroke-linejoin:round;stroke-width:20px"/><path d="M397.39,451.26c55.64,13.61,111.22,22.37,168,28.28,87.38,7.76,175,3.59,263,5.51,240.09,3.39,481.74,14,721.76,21.79,22.78,1.28,45.4,5,67.84,9.17,15.21,3,30.34,7.46,45.34,11.56,22.19,6.53,45.18,8.81,68,10.19,30.18,2.18,60.36,3.64,90.5,3.51-30.12,1.13-60.2,4-90.29,7.26-22.74,2.25-45.63,5.39-67.62,12.6-14.89,4.58-29.91,9.61-45.06,13-22.37,4.76-45,9.2-67.76,11-211,11.63-422.77,20.66-634.13,18.77-107.29-1.42-215.15-.44-321.39-20.35-78.88-15.2-163.27-40.31-216.76-104.24-10.35-13.43,2-32.42,18.61-28Z" style="fill:#518737;stroke:#3a3632;stroke-linecap:round;stroke-linejoin:round;stroke-width:20px"/><path d="M341.73,1409c-1.08,1.4-2.58,1.67-4.06,2.21l-4.24,1.24a396.51,396.51,0,0,1-43.09,10c-5.84,1-11.71,1.84-17.62,2.56-11.94,1.45-24,4.11-36.15,1.68s-26-7.12-33.17-18a1.08,1.08,0,0,1,.93-1.67c1.65,0,3.13.29,4.74.33,2.85.1,5.68.16,8.52.08,2.63,0,17.68-.54,20.65-.62,11.22-.54,22.43,2,33.71,2.27,20.13.42,40.61,0,60.84-.58l4.39-.17c1.58,0,3-.24,4.55.69Z" style="fill:#3a3632"/><line x1="329.84" y1="1432.77" x2="317.07" y2="1391.95" style="fill:#009444;stroke:#3a3632;stroke-linecap:round;stroke-linejoin:round;stroke-width:20px"/><path d="M360.12,1420.08C416.8,1411.86,473,1408.45,530,1408c87.72.6,174.53,13.09,262.36,19.56,239.32,19.49,480.88,32,720.55,47.07,22.8.9,45.68-.66,68.41-2.65,15.42-1.52,30.91-4.52,46.24-7.16,22.7-4.38,45.8-4.46,68.62-3.66,30.25.71,60.43,2.14,90.42,5.14-29.87-4-59.55-9.73-89.19-15.81-22.43-4.4-44.91-9.7-66.12-19-14.38-6-28.85-12.38-43.61-17.18-21.82-6.85-43.88-13.41-66.42-17.33-209-31.64-418.88-60.76-629.47-79-106.93-8.8-214.21-20-321.86-10.38-80,7.58-166.35,24.49-225.68,82.9-11.58,12.34-1.07,32.39,15.87,29.56Z" style="fill:#518737;stroke:#3a3632;stroke-linecap:round;stroke-linejoin:round;stroke-width:20px"/><path d="M303.66,356.43c-1.18,1.32-2.66,1.48-4.17,1.95l-4.26,1.06c-19.59,5.09-39.36,10.48-58.56,16.55-10.73,3.46-20.79,9-31.71,11.66-2.88.76-17.35,4.48-20,5.23s-5.43,1.58-8.14,2.48c-1.54.5-2.89,1.14-4.45,1.65a1.08,1.08,0,0,1-1.37-1.33c3.75-12.51,15.74-21,26.74-26.68s23.31-6.59,35.16-8.56c5.88-1,11.76-1.82,17.64-2.5a397.69,397.69,0,0,1,44.18-2.49h4.41c1.59.11,3.07-.08,4.52,1Z" style="fill:#3a3632"/><line x1="285.54" y1="336.91" x2="289.1" y2="379.75" style="fill:#009444;stroke:#3a3632;stroke-linecap:round;stroke-linejoin:round;stroke-width:20px"/><path d="M310.32,339.19c85.36-34,177.44-41.11,267.73-52,104.33-11.29,210.3-14.71,315.21-16.88,187.71-4.34,376.06,1.64,563.6,9.38a427.31,427.31,0,0,1,45,3.47c11.29,1.56,22.54,3.64,33.75,5.75,19.06,3.31,37.66,9.14,56.17,14.84,21.91,7.07,44.71,10,67.35,12,29.94,3.14,59.87,5.75,89.82,6.68-30,.07-60,1.81-90,4.09-22.66,1.6-45.48,4.09-67.5,10.76-14.88,4.18-29.89,8.82-45,12-11.19,2.26-22.43,4.19-33.68,6-18.57,3.05-37.33,4.23-56.08,4.92-171.65,6.64-343.68,17.4-515.2,24.42C792.45,391.18,642.74,398,493.42,392.9c-45.31-.65-90.49-3.24-135.38-10.5-15.14-2.53-30.31-5.36-45.58-9.67a17.79,17.79,0,0,1-2.14-33.54Z" style="fill:#518737;stroke:#3a3632;stroke-linecap:round;stroke-linejoin:round;stroke-width:20px"/><path d="M213.44,1491.16c-1.39,1.09-2.88,1-4.45,1.18l-4.38.29c-20.18,1.53-40.59,3.33-60.57,5.89-11.17,1.49-22.06,5.19-33.27,5.85-3,.23-17.88,1.32-20.6,1.59s-5.63.58-8.46,1c-1.6.22-3,.61-4.67.84a1.08,1.08,0,0,1-1.11-1.56c5.92-11.64,19.23-17.91,31.06-21.5s24.1-2.35,36.12-2.18q8.94.12,17.8.67a395.08,395.08,0,0,1,43.92,5.4l4.34.78c1.54.39,3,.47,4.27,1.76Z" style="fill:#3a3632"/><line x1="199.08" y1="1468.74" x2="190.75" y2="1510.77" style="fill:#009444;stroke:#3a3632;stroke-linecap:round;stroke-linejoin:round;stroke-width:20px"/><path d="M222.53,1474.28c108.77-27.73,222-15.82,332.51-9.55,125.58,8.39,250.11,25.87,375.39,35,61.13,4.5,123.17,7.39,184.45,7.45,24.09.12,54.31-.45,78.49-1.43,135-3.17,268-38.27,407.16-39.07,13.87-.29,27.94-.34,41.77.5,23,1.38,45.91,5,68.67,8.71,22.78,4,45.77,11.19,68.49,15.62,22.59,4.76,45.75,4.71,68.51,4.48q27.32-.27,54.59-2c18.17-1.24,36.32-2.88,54.31-5.55-17.92,3.07-35.78,6.71-53.68,10.28-33.1,7.29-75.7,14.12-107.68,23.36-18.13,5.47-36,13-54,19.41a359.73,359.73,0,0,1-40.8,12c-26.66,6.56-53.48,11.89-80.75,14.51-13,1.36-26.74,2.72-39.55,4.34-101.45,11.54-200.28,44-306.21,60.24-22.94,3.56-47.6,7-70.68,9.35-112.43,12.18-225.68,10.91-338.2,2.66-146.73-10-291.7-34.34-435.06-65.52-25.18-5.26-54.71-11.38-79.64-17.95-37.88-9.72-75.46-21.19-111.88-35.55-6.83-2.76-13.55-5.52-20.24-8.78-18.53-9.07-16.59-36.83,4-42.54Z" style="fill:#518737;stroke:#3a3632;stroke-linecap:round;stroke-linejoin:round;stroke-width:20px"/><path d="M371.76,1712.06c-1.35,1.24-2.92,1.25-4.53,1.57l-4.57.6a496.9,496.9,0,0,1-64.4,4.47c-6.18,0-12.42.34-18.7.33a77.38,77.38,0,0,1-36.94-9.58c-5.81-3.42-12.53-8-14.36-15a1.1,1.1,0,0,1,1.63-1.16,27.72,27.72,0,0,0,8.4,2c8.61.88,17.2,1,25.89,1.6,11.84.52,23.37,4.21,35.13,5.83,17.28,2.33,36.77,4.52,54.19,6.47l9.11,1,4.56.47c1.63.26,3.16.21,4.59,1.38Z" style="fill:#3a3632"/><line x1="357.4" y1="1689.63" x2="349.07" y2="1731.66" style="fill:#009444;stroke:#3a3632;stroke-linecap:round;stroke-linejoin:round;stroke-width:20px"/><path d="M374.63,1697.7c15.68-1.08,31.1-.81,46.68-.79,22.71.31,45.55.87,68.21,2,37.11,1.57,75.25,4.38,112.45,5.5,166.41,3.88,335.88,9.68,502.1,16.69,145,6,290.72,13.27,436,17.53a493.4,493.4,0,0,1,69,5.89c7.68,1.17,15.36,2.31,23,3.71,15.44,2.82,30.84,7,46.12,10.86,22.65,6.13,46,8.25,69.18,9.48,30.73,2,61.45,3.24,92.14,3-38.33,1.53-76.71,5.33-114.92,9.57a286.63,286.63,0,0,0-45.92,9.38c-15.18,4.31-30.49,9-45.92,12.15-11.47,2.31-23,4.29-34.52,6.15-25.86,4.48-54.4,5-80.69,6.24-207.55,9-415.62,14.31-623.34,8-85.17-2.46-170.35-5.59-255.06-17-30.61-4-62.74-9.25-93.08-15.16-46.48-8.75-93.11-21-136.54-40.51a346.47,346.47,0,0,1-42.85-22.23c-13.48-8.54-8.26-29.65,8-30.47Z" style="fill:#518737;stroke:#3a3632;stroke-linecap:round;stroke-linejoin:round;stroke-width:20px"/><path d="M399,1053.63c-1.28,1.31-2.85,1.4-4.44,1.81l-4.53.83a496.33,496.33,0,0,1-64.09,7.75c-6.18.31-12.39,1-18.66,1.29a77.53,77.53,0,0,1-37.38-7.68c-6-3.12-12.93-7.37-15.11-14.25a1.1,1.1,0,0,1,1.57-1.24,28.05,28.05,0,0,0,8.49,1.59c8.64.43,17.22.08,25.94.27,11.84-.09,23.56,3,35.38,4,17.38,1.44,36.95,2.63,54.46,3.69l9.14.54,4.58.24c1.64.17,3.17,0,4.65,1.13Z" style="fill:#3a3632"/><line x1="383.51" y1="1031.97" x2="377.35" y2="1074.37" style="fill:#009444;stroke:#3a3632;stroke-linecap:round;stroke-linejoin:round;stroke-width:20px"/><path d="M401.14,1039.15c15.6-1.88,31-2.4,46.58-3.18,22.69-.85,45.53-1.46,68.22-1.49,37.14-.32,75.37.54,112.58-.25,166.39-4.63,335.93-7.5,502.29-9,145.15-1.45,291-1.61,436.31-4.78a493.75,493.75,0,0,1,69.17,2.36c7.73.78,15.46,1.52,23.18,2.53,15.57,2,31.16,5.44,46.62,8.48,22.94,5,46.36,5.89,69.58,5.94,30.78.43,61.53.1,92.17-1.69-38.2,3.48-76.34,9.24-114.29,15.43a285,285,0,0,0-45.37,11.72c-15,5.08-30,10.55-45.25,14.47-11.33,2.89-22.73,5.47-34.16,7.91-25.59,5.79-54.06,7.79-80.26,10.36-206.82,19.63-414.35,35.53-622.11,39.83-85.19,1.9-170.42,3.13-255.6-3.94-30.77-2.4-63.13-6-93.73-10.38-46.87-6.37-94.07-16.25-138.44-33.48a345.92,345.92,0,0,1-43.92-20c-13.91-7.83-9.78-29.18,6.43-30.83Z" style="fill:#518737;stroke:#3a3632;stroke-linecap:round;stroke-linejoin:round;stroke-width:20px"/><path d="M231.48,840.57c125,16.06,250.73,29.42,376.33,39.23C687.75,886,771.3,890,851.37,894.88c116.46,7.3,232.54,16.82,348,31.92,144.09,18.09,286.94,48.21,431.85,65.73a454.9,454.9,0,0,0,55.88,2c18.87-.27,37.74-1.15,56.44-3.94,18.37-2.51,37.91-6.38,56.27-8.31,13.91-1.61,27.67-2.08,41.49-2.63,41.18-1.68,82.37-4.72,123.19-7.76-45.48,2-91.11-1.64-136.07-8.21a264.66,264.66,0,0,1-26.81-5.58c-22.23-5.91-43.78-15.39-65.53-23.13-38.5-13.29-77.62-24.72-117.51-32.52-160.48-33.94-320-80.84-483.08-105.2C1035,781.51,933.53,771.56,832.38,765a3263.49,3263.49,0,0,0-329.66-5.71c-55.69,2-111.55,2.3-166.91,11.66-37.91,6.53-75,5.68-109.83,22.94.31,6.7,4.78,40.92,5.5,46.7Z" style="fill:#629e42;stroke:#3a3632;stroke-linecap:round;stroke-linejoin:round;stroke-width:20px"/><path d="M228,818.52c-1.31,1.17-2.8,1.11-4.34,1.37l-4.32.41c-14.35,1.39-29,2.18-43.36,2.43-11.67.11-23.26-.16-35,0a78.75,78.75,0,0,1-40.48-12.17,36,36,0,0,1-9-8.05,1.09,1.09,0,0,1,.18-1.53,1.14,1.14,0,0,1,.75-.24c4.65-.11,8.74-.21,13.22-.35,7-.16,14.11-.14,21,.27,11.31.35,22.16,4.2,33.28,6.07,15.63,2.53,44.05,7,59.44,9.52l4.27.67c1.53.33,3,.36,4.26,1.58Z" style="fill:#3a3632"/><line x1="211.96" y1="839.75" x2="206.94" y2="797.2" style="fill:#009444;stroke:#3a3632;stroke-linecap:round;stroke-linejoin:round;stroke-width:20px"/><path d="M175.45,999.42c24.51,9.64,49.54,17,74.67,24.49,40.61,11.79,83.18,22.16,124.36,31.61,187.46,46,378.5,90.13,572.05,102.22,42.32,2.44,85.29,3.35,127.66,2,123-3.41,246.08-30.69,365.45-51.24,28.49-5.1,59.56-9.13,87.95-14.12,12.53-2.27,24.93-5,37.37-7.84,16.7-3.59,33.51-7.44,50-12,18.85-5.2,37.88-10.47,57.37-12.63,15-1.56,30.07-1.47,45.08-1.08,34.33,1.09,68.82,5.27,102.24,14.11-33.11-9.79-66.76-18.27-101.07-24.81-21.52-4.09-43.62-7.06-64.85-12.59-17.59-4.27-35.08-9.29-52.93-12.48-13.28-2.49-26.72-3.82-40.15-5a421,421,0,0,0-66.62-.69c-115.81,8.46-231.69,27.1-346.26,31.51-74.48,2.72-149.79-1.33-223.82-9.47-109.45-11.76-218.52-33.48-327.1-51.83-68.43-11.48-137.52-21-206.85-27.85-38.95-4-79.52-6.66-118.71-5.63-31.29.94-62.6,3.36-93.32,9.83-16.21,3.57-19.38,26.72-2.55,33.51Z" style="fill:#629e42;stroke:#3a3632;stroke-linecap:round;stroke-linejoin:round;stroke-width:20px"/><path d="M167.59,983.61c-1.37,1.27-3,1.34-4.65,1.71l-4.7.79-9.39,1.56c-17.29,2.88-38.9,5.9-56.37,8.18-12.47,1.64-24.84,5.06-37.51,4.58a182.09,182.09,0,0,1-19-1.36,137.53,137.53,0,0,1-19.28-3.82,1.08,1.08,0,0,1-.79-1.37,1,1,0,0,1,.43-.59,53.71,53.71,0,0,1,9-4.83,122.86,122.86,0,0,1,37.5-9.1c9.51-.62,19.09.56,28.58.52l19,.2c14.81.38,32.85,1,47.54,2l4.76.29c1.68.21,3.29.09,4.8,1.23Z" style="fill:#3a3632"/><line x1="151.52" y1="1004.85" x2="146.5" y2="962.29" style="fill:#009444;stroke:#3a3632;stroke-linecap:round;stroke-linejoin:round;stroke-width:20px"/><path d="M285.82,1265.49c-1.31,1.17-2.84,1.16-4.39,1.42l-4.4.44a397.69,397.69,0,0,1-44.2,2q-8.88-.13-17.8-.72c-12-.77-24.39-.38-35.84-5s-24.29-11.79-29.29-23.86a1.08,1.08,0,0,1,.58-1.41,1,1,0,0,1,.65-.06c.86.19,1.66.44,2.46.64,2.07.59,4.25,1.07,6.36,1.46,5.38,1.09,18.91,3,24.54,4,11.13,1.53,21.69,6.07,32.72,8.43,19.71,4.12,39.92,7.5,59.92,10.6l4.35.63c1.55.32,3,.33,4.34,1.53Z" style="fill:#3a3632"/><line x1="269.75" y1="1286.72" x2="264.73" y2="1244.17" style="fill:#009444;stroke:#3a3632;stroke-linecap:round;stroke-linejoin:round;stroke-width:20px"/><path d="M288.73,1274.83c25.19,11.3,51.73,19.08,78.71,24.67,26.53,5.67,53.38,8.94,80.4,10.9,137.49,7.81,274.44-6.64,411.33-6.34,83.61.15,171.68,5,255.34,7.77,172.49,5.68,345.78,7.86,518.44,10.19a447,447,0,0,0,52.14-3.91c8.72-1.09,17.45-2.15,26.15-3.54,17.6-2.78,35.19-7.43,52.58-11.59,25.71-6.7,52.19-8.41,78.39-9,34.61-1.19,69.25-1.84,103.83-.37-34.52-2.56-68.84-7.25-103.08-12.45-17.14-2.77-34.32-5-51.33-9.81-17.19-4.72-34.06-11.63-50.88-17.67-25-9.06-50.77-15.11-76.65-20.57-17-3.42-34.24-5.39-51.49-7.06-197.78-19.67-395.76-41.33-593.95-55.28-56.89-3.91-115-6.91-172-7-84.16-.5-168.52,8-251.06,20.28-42.7,6.22-84.28,12.92-126.51,18.66q-28.17,3.88-56.27,8.5c-23,3.61-46.09,8-69,12.29-17.53,3.69-34.75,6.78-52.18,11.75-18.58,5.42-20.89,31.35-2.91,39.65Z" style="fill:#629e42;stroke:#3a3632;stroke-linecap:round;stroke-linejoin:round;stroke-width:20px"/><path d="M374.81,1482c-1.05,1.42-2.55,1.72-4,2.28l-4.21,1.32a397.28,397.28,0,0,1-42.92,10.78c-5.81,1.11-11.67,2.05-17.57,2.87-11.91,1.65-24,4.53-36.12,2.31s-26.17-6.68-33.48-17.5a1.08,1.08,0,0,1,.91-1.68c1.64,0,3.13.23,4.74.25,2.86.05,5.68.07,8.52-.06,2.63-.06,17.67-.84,20.64-1,11.2-.73,22.46,1.59,33.74,1.69,20.14.07,40.61-.67,60.83-1.65l4.38-.26c1.58,0,3-.29,4.56.62Z" style="fill:#3a3632"/><line x1="363.33" y1="1506.02" x2="349.87" y2="1465.34" style="fill:#009444;stroke:#3a3632;stroke-linecap:round;stroke-linejoin:round;stroke-width:20px"/><path d="M305.11,1443.8c56.53-9.22,112.63-13.61,169.65-15.07,87.72-.91,174.73,10.1,262.66,15.06,239.62,15.38,481.36,23.71,721.25,34.67,22.82.51,45.66-1.44,68.35-3.84,15.4-1.79,30.84-5.06,46.12-8,22.62-4.78,45.72-5.26,68.55-4.85,30.26.18,60.46,1.09,90.49,3.58-29.93-3.48-59.7-8.71-89.44-14.3-22.5-4-45.07-8.94-66.43-17.85-14.48-5.72-29.06-11.91-43.9-16.46-21.94-6.48-44.1-12.68-66.7-16.21-209.47-28.09-419.86-53.64-630.73-68.27-107.07-7-214.52-16.37-322-4.82-79.82,9-165.91,27.43-224.24,87-11.37,12.57-.52,32.48,16.37,29.35Z" style="fill:#629e42;stroke:#3a3632;stroke-linecap:round;stroke-linejoin:round;stroke-width:20px"/><path d="M292.53,1580c-1.5.93-3,.65-4.57.63l-4.41-.35a397.26,397.26,0,0,1-43.84-5.93q-8.72-1.71-17.39-3.87c-11.67-2.89-23.93-4.7-34.39-11.29s-21.8-15.92-24.57-28.68a1.08,1.08,0,0,1,.81-1.29,1.13,1.13,0,0,1,.66.06c.81.34,1.55.73,2.3,1.06,1.93,1,4,1.81,6,2.57,5.1,2,18.07,6.36,23.45,8.25,10.68,3.49,20.27,9.82,30.7,14.11,18.67,7.55,38,14.47,57.09,21.07l4.16,1.4c1.47.58,2.92.85,4,2.26Z" style="fill:#3a3632"/><line x1="272.95" y1="1598.05" x2="279.84" y2="1555.61" style="fill:#009444;stroke:#3a3632;stroke-linecap:round;stroke-linejoin:round;stroke-width:20px"/><path d="M297.83,1597.71c82.45,40.55,173.68,54.85,262.85,72.76,103.12,19.41,208.5,31.1,312.93,41.46,186.79,19,375,27.75,562.6,34.68a425.55,425.55,0,0,0,45.18.06c11.38-.67,22.75-1.87,34.1-3.1,19.26-1.81,38.25-6.17,57.15-10.4,22.39-5.34,45.36-6.48,68.08-6.74,30.1-.8,60.14-1.06,90.08.35-29.88-2.4-59.65-6.48-89.36-11.09-22.47-3.37-45-7.64-66.45-16-14.52-5.33-29.11-11.13-43.9-15.43-11-3.14-22-5.94-33.11-8.6-18.28-4.5-36.88-7.15-55.53-9.29-170.6-20-341.27-44.21-511.71-64.6-148.2-18.21-296.91-36.68-446.17-43.29-45.23-2.89-90.47-3.84-135.79-.11-15.3,1.34-30.64,3-46.2,6.08a17.78,17.78,0,0,0-4.75,33.27Z" style="fill:#629e42;stroke:#3a3632;stroke-linecap:round;stroke-linejoin:round;stroke-width:20px"/><path d="M245.57,587.42c-1.32,1.17-2.84,1.17-4.4,1.42l-4.39.44a397.77,397.77,0,0,1-44.21,2q-8.88-.13-17.79-.72c-12-.77-24.39-.37-35.85-5s-24.29-11.79-29.28-23.86a1.08,1.08,0,0,1,.58-1.41,1.12,1.12,0,0,1,.65-.06c.86.19,1.66.44,2.45.64,2.07.59,4.26,1.07,6.37,1.46,5.38,1.09,18.91,3,24.54,4,11.13,1.53,21.69,6.07,32.72,8.43,19.71,4.12,39.92,7.51,59.92,10.6l4.34.63c1.55.32,3,.33,4.35,1.53Z" style="fill:#3a3632"/><line x1="229.5" y1="608.65" x2="224.48" y2="566.1" style="fill:#009444;stroke:#3a3632;stroke-linecap:round;stroke-linejoin:round;stroke-width:20px"/><path d="M253.31,605c106.27,36.14,220.1,33.12,330.75,35.5,125.85,1.45,251.36-6.25,377-5.59,61.3.3,123.37,2.27,184.47,7,24,1.77,54.11,4.69,78.14,7.56,134.36,13.71,264.18,59.09,402.86,70.77,13.81,1.37,27.83,2.52,41.69,2.76,23.09.42,46.15-1.35,69.13-3.32,23-2.17,46.51-7.58,69.51-10.21,22.89-3,46-1.13,68.64.88q27.22,2.4,54.28,6.29c18,2.65,36,5.7,53.71,9.77-17.64-4.46-35.15-9.48-52.72-14.43-32.43-9.86-74.36-20-105.53-31.72-17.65-6.86-34.89-15.81-52.26-23.56a360.34,360.34,0,0,0-39.74-15.19c-26.07-8.62-52.38-16-79.37-20.77-12.85-2.37-26.45-4.8-39.08-7.42-100.25-19.43-196.24-59.49-300.58-84-22.59-5.34-46.9-10.65-69.73-14.84-111.13-20.93-224.14-28.51-337-29.08C760.43,483.85,614,496.81,468.64,516.7c-25.51,3.28-55.43,7.07-80.8,11.67-38.52,6.72-76.88,15.22-114.31,26.7-7,2.21-13.94,4.44-20.86,7.16-19.19,7.61-19.43,35.43.64,42.73Z" style="fill:#629e42;stroke:#3a3632;stroke-linecap:round;stroke-linejoin:round;stroke-width:20px"/><path d="M394.56,350.41c-1.58.93-3.11.65-4.75.66l-4.58-.23-9.15-.39c-17.56-.72-37.09-1.52-54.55-1.85-11.87-.19-23.84,1.71-35.61.42-8.69-.7-17.19-1.92-25.83-2.36a28,28,0,0,0-8.61.71,1.09,1.09,0,0,1-1.43-1.39c2.86-6.62,10.21-10.15,16.47-12.64a77.45,77.45,0,0,1,38-3.85c6.21.94,12.32,2.24,18.43,3.17a497.65,497.65,0,0,1,63,14.21l4.42,1.29c1.55.57,3.08.81,4.25,2.25Z" style="fill:#3a3632"/><line x1="376.95" y1="370.39" x2="375.11" y2="327.58" style="fill:#009444;stroke:#3a3632;stroke-linecap:round;stroke-linejoin:round;stroke-width:20px"/><path d="M395.21,365c15.33,3.45,30.61,5.54,46,7.89,22.48,3.15,45.15,6.07,67.71,8.4,36.92,4.09,75.05,7.12,112,11.67,165.06,21.49,333.44,41.53,498.79,59.89C1264,469,1409.07,484,1553.28,501.89a494.18,494.18,0,0,0,69.06,4.66c7.77,0,15.53.06,23.31-.16,15.7-.44,31.56-2.25,47.24-3.71,23.32-2.62,46.72-1.16,69.82,1.15,30.67,2.69,61.23,6.14,91.53,11-37.65-7.34-75-16.94-112.13-26.94a284.71,284.71,0,0,1-43.95-16.26c-14.36-6.57-28.78-13.54-43.55-19-11-4-22.07-7.74-33.18-11.34-24.88-8.35-53-13.23-78.8-18.44C1338.87,382.38,1134,345.51,927.76,320.17c-84.55-10.53-169.22-20.4-254.68-22-30.85-.73-63.41-.4-94.3.82-47.27,1.58-95.23,6.63-141.12,19.27a345.77,345.77,0,0,0-45.72,15.46c-14.63,6.38-12.69,28,3.27,31.32Z" style="fill:#629e42;stroke:#3a3632;stroke-linecap:round;stroke-linejoin:round;stroke-width:20px"/></svg>