<?xml version="1.0" encoding="UTF-8" standalone="no"?>
<svg
   xmlns:dc="http://purl.org/dc/elements/1.1/"
   xmlns:cc="http://creativecommons.org/ns#"
   xmlns:rdf="http://www.w3.org/1999/02/22-rdf-syntax-ns#"
   xmlns:svg="http://www.w3.org/2000/svg"
   xmlns="http://www.w3.org/2000/svg"
   xmlns:sodipodi="http://sodipodi.sourceforge.net/DTD/sodipodi-0.dtd"
   xmlns:inkscape="http://www.inkscape.org/namespaces/inkscape"
   width="250.00002"
   height="250.00002"
   viewBox="0 0 66.145836 66.145839"
   version="1.1"
   id="svg1223"
   inkscape:version="1.0beta1 (32d4812, 2019-09-19)"
   sodipodi:docname="ground_celery_seeds.svg"
   inkscape:export-filename="/Users/marc-andrelanglais/Google Drive File Stream/Shared drives/Autonome Team Drive/03 - Application &amp; Web Site/Application/Assets/Pictograms/Ingredients/In Production/png/ground_celery_seeds.png"
   inkscape:export-xdpi="94.199997"
   inkscape:export-ydpi="94.199997">
  <defs
     id="defs1217" />
  <sodipodi:namedview
     id="base"
     pagecolor="#ffffff"
     bordercolor="#666666"
     borderopacity="1.0"
     inkscape:pageopacity="0.0"
     inkscape:pageshadow="2"
     inkscape:zoom="0.35"
     inkscape:cx="400"
     inkscape:cy="560"
     inkscape:document-units="mm"
     inkscape:current-layer="layer3"
     inkscape:document-rotation="0"
     showgrid="false"
     inkscape:window-width="1600"
     inkscape:window-height="907"
     inkscape:window-x="0"
     inkscape:window-y="23"
     inkscape:window-maximized="0"
     units="px"
     fit-margin-top="0"
     fit-margin-left="0"
     fit-margin-right="0"
     fit-margin-bottom="0" />
  <metadata
     id="metadata1220">
    <rdf:RDF>
      <cc:Work
         rdf:about="">
        <dc:format>image/svg+xml</dc:format>
        <dc:type
           rdf:resource="http://purl.org/dc/dcmitype/StillImage" />
        <dc:title></dc:title>
      </cc:Work>
    </rdf:RDF>
  </metadata>
  <g
     inkscape:label="Outer"
     inkscape:groupmode="layer"
     id="layer1"
     transform="translate(-72.760414,-83.0214)">
    <rect
       y="83.0214"
       x="72.760414"
       height="66.145836"
       width="66.145836"
       id="rect1786"
       style="opacity:0.99;fill:#000000;stroke:none;stroke-width:0.723469;stroke-linecap:round;stroke-linejoin:round" />
  </g>
  <g
     inkscape:groupmode="layer"
     id="layer2"
     inkscape:label="Inner"
     transform="translate(-72.760414,-83.0214)">
    <rect
       style="opacity:0.99;fill:#ffffff;fill-opacity:1;stroke:none;stroke-width:0.663181;stroke-linecap:round;stroke-linejoin:round"
       id="rect1788"
       width="60.63377"
       height="60.63377"
       x="75.516449"
       y="85.777435" />
  </g>
  <g
     inkscape:groupmode="layer"
     id="layer3"
     inkscape:label="Pattern"
     transform="translate(-72.760414,-83.0214)">
    <path
       inkscape:export-ydpi="94.199997"
       inkscape:export-xdpi="94.199997"
       inkscape:export-filename="/Users/marc-andrelanglais/workspace/OpenOrganix/Dev/JOCR/Cuistogo_Android/app/src/main/assets/svg/choco_chips.png"
       inkscape:connector-curvature="0"
       id="circle1084"
       style="display:inline;opacity:1;fill:#ee3f3f;fill-opacity:1;stroke:none;stroke-width:3.30729;stroke-miterlimit:10;stroke-dasharray:none;stop-opacity:1"
       d="m 117.66921,123.40284 a 4.5273516,4.5273516 0 0 1 -4.52735,4.52735 4.5273516,4.5273516 0 0 1 -4.52735,-4.52735 4.5273516,4.5273516 0 0 1 4.52735,-4.52735 4.5273516,4.5273516 0 0 1 4.52735,4.52735" />
    <path
       inkscape:export-ydpi="94.199997"
       inkscape:export-xdpi="94.199997"
       inkscape:export-filename="/Users/marc-andrelanglais/workspace/OpenOrganix/Dev/JOCR/Cuistogo_Android/app/src/main/assets/svg/choco_chips.png"
       inkscape:connector-curvature="0"
       id="circle931"
       style="display:inline;opacity:1;fill:#ee3f3f;fill-opacity:1;stroke:none;stroke-width:3.30729;stroke-miterlimit:10;stroke-dasharray:none;stop-opacity:1"
       d="m 132.28626,123.40284 a 4.5273516,4.5273516 0 0 1 -4.52735,4.52735 4.5273516,4.5273516 0 0 1 -4.52735,-4.52735 4.5273516,4.5273516 0 0 1 4.52735,-4.52735 4.5273516,4.5273516 0 0 1 4.52735,4.52735" />
    <path
       inkscape:export-ydpi="94.199997"
       inkscape:export-xdpi="94.199997"
       inkscape:export-filename="/Users/marc-andrelanglais/workspace/OpenOrganix/Dev/JOCR/Cuistogo_Android/app/src/main/assets/svg/choco_chips.png"
       inkscape:connector-curvature="0"
       id="circle948"
       style="display:inline;opacity:1;fill:#ee3f3f;fill-opacity:1;stroke:none;stroke-width:3.30729;stroke-miterlimit:10;stroke-dasharray:none;stop-opacity:1"
       d="m 113.14186,142.54725 a 4.5273516,4.5273516 0 0 1 -4.52735,-4.52736 4.5273516,4.5273516 0 0 1 4.52735,-4.52735 4.5273516,4.5273516 0 0 1 4.52735,4.52735 4.5273516,4.5273516 0 0 1 -4.52735,4.52736" />
    <path
       inkscape:export-ydpi="94.199997"
       inkscape:export-xdpi="94.199997"
       inkscape:export-filename="/Users/marc-andrelanglais/workspace/OpenOrganix/Dev/JOCR/Cuistogo_Android/app/src/main/assets/svg/choco_chips.png"
       inkscape:connector-curvature="0"
       id="circle968"
       style="display:inline;opacity:1;fill:#ee3f3f;fill-opacity:1;stroke:none;stroke-width:3.30729;stroke-miterlimit:10;stroke-dasharray:none;stop-opacity:1"
       d="m 127.75891,142.54725 a 4.5273516,4.5273516 0 0 1 -4.52735,-4.52736 4.5273516,4.5273516 0 0 1 4.52735,-4.52735 4.5273516,4.5273516 0 0 1 4.52735,4.52735 4.5273516,4.5273516 0 0 1 -4.52735,4.52736" />
    <path
       inkscape:export-ydpi="94.199997"
       inkscape:export-xdpi="94.199997"
       inkscape:export-filename="/Users/marc-andrelanglais/workspace/OpenOrganix/Dev/JOCR/Cuistogo_Android/app/src/main/assets/svg/choco_chips.png"
       inkscape:connector-curvature="0"
       id="circle933"
       style="display:inline;opacity:1;fill:#ee3f3f;fill-opacity:1;stroke:none;stroke-width:3.30729;stroke-miterlimit:10;stroke-dasharray:none;stop-opacity:1"
       d="m 103.05217,123.40284 a 4.5273516,4.5273516 0 0 1 -4.527356,4.52735 4.5273516,4.5273516 0 0 1 -4.52735,-4.52735 4.5273516,4.5273516 0 0 1 4.52735,-4.52735 4.5273516,4.5273516 0 0 1 4.527356,4.52735" />
    <path
       inkscape:export-ydpi="94.199997"
       inkscape:export-xdpi="94.199997"
       inkscape:export-filename="/Users/marc-andrelanglais/workspace/OpenOrganix/Dev/JOCR/Cuistogo_Android/app/src/main/assets/svg/choco_chips.png"
       inkscape:connector-curvature="0"
       id="circle958"
       style="display:inline;opacity:1;fill:#ee3f3f;fill-opacity:1;stroke:none;stroke-width:3.30729;stroke-miterlimit:10;stroke-dasharray:none;stop-opacity:1"
       d="m 98.524814,142.54725 a 4.5273516,4.5273516 0 0 1 -4.52735,-4.52736 4.5273516,4.5273516 0 0 1 4.52735,-4.52735 4.5273516,4.5273516 0 0 1 4.527356,4.52735 4.5273516,4.5273516 0 0 1 -4.527356,4.52736" />
    <path
       d="m 113.14186,104.25843 a 4.5273516,4.5273516 0 0 1 4.52735,4.52736 4.5273516,4.5273516 0 0 1 -4.52735,4.52735 4.5273516,4.5273516 0 0 1 -4.52735,-4.52735 4.5273516,4.5273516 0 0 1 4.52735,-4.52736"
       style="display:inline;opacity:1;fill:#ee3f3f;fill-opacity:1;stroke:none;stroke-width:3.30729;stroke-miterlimit:10;stroke-dasharray:none;stop-opacity:1"
       id="path1847"
       inkscape:connector-curvature="0"
       inkscape:export-filename="/Users/marc-andrelanglais/workspace/OpenOrganix/Dev/JOCR/Cuistogo_Android/app/src/main/assets/svg/choco_chips.png"
       inkscape:export-xdpi="94.199997"
       inkscape:export-ydpi="94.199997" />
    <path
       inkscape:export-ydpi="94.199997"
       inkscape:export-xdpi="94.199997"
       inkscape:export-filename="/Users/marc-andrelanglais/workspace/OpenOrganix/Dev/JOCR/Cuistogo_Android/app/src/main/assets/svg/choco_chips.png"
       inkscape:connector-curvature="0"
       id="path1857"
       style="display:inline;opacity:1;fill:#ee3f3f;fill-opacity:1;stroke:none;stroke-width:3.30729;stroke-miterlimit:10;stroke-dasharray:none;stop-opacity:1"
       d="m 113.14186,104.25843 a 4.5273516,4.5273516 0 0 1 4.52735,4.52736 4.5273516,4.5273516 0 0 1 -4.52735,4.52735 4.5273516,4.5273516 0 0 1 -4.52735,-4.52735 4.5273516,4.5273516 0 0 1 4.52735,-4.52736" />
    <path
       d="m 123.23155,108.78579 a 4.5273516,4.5273516 0 0 1 4.52736,-4.52735 4.5273516,4.5273516 0 0 1 4.52735,4.52735 4.5273516,4.5273516 0 0 1 -4.52735,4.52735 4.5273516,4.5273516 0 0 1 -4.52736,-4.52735"
       style="display:inline;opacity:1;fill:#ee3f3f;fill-opacity:1;stroke:none;stroke-width:3.30729;stroke-miterlimit:10;stroke-dasharray:none;stop-opacity:1"
       id="path1862"
       inkscape:connector-curvature="0"
       inkscape:export-filename="/Users/marc-andrelanglais/workspace/OpenOrganix/Dev/JOCR/Cuistogo_Android/app/src/main/assets/svg/choco_chips.png"
       inkscape:export-xdpi="94.199997"
       inkscape:export-ydpi="94.199997" />
    <path
       d="m 93.997464,108.78578 a 4.5273516,4.5273516 0 0 1 4.52735,-4.52734 4.5273516,4.5273516 0 0 1 4.527346,4.52734 4.5273516,4.5273516 0 0 1 -4.527346,4.52736 4.5273516,4.5273516 0 0 1 -4.52735,-4.52736"
       style="display:inline;opacity:1;fill:#ee3f3f;fill-opacity:1;stroke:none;stroke-width:3.30729;stroke-miterlimit:10;stroke-dasharray:none;stop-opacity:1"
       id="path1864"
       inkscape:connector-curvature="0"
       inkscape:export-filename="/Users/marc-andrelanglais/workspace/OpenOrganix/Dev/JOCR/Cuistogo_Android/app/src/main/assets/svg/choco_chips.png"
       inkscape:export-xdpi="94.199997"
       inkscape:export-ydpi="94.199997" />
    <path
       d="m 79.380404,123.40284 a 4.5273516,4.5273516 0 0 1 4.52736,-4.52735 4.5273516,4.5273516 0 0 1 4.52735,4.52735 4.5273516,4.5273516 0 0 1 -4.52735,4.52736 4.5273516,4.5273516 0 0 1 -4.52736,-4.52736"
       style="display:inline;opacity:1;fill:#ee3f3f;fill-opacity:1;stroke:none;stroke-width:3.30729;stroke-miterlimit:10;stroke-dasharray:none;stop-opacity:1"
       id="path1889"
       inkscape:connector-curvature="0"
       inkscape:export-filename="/Users/marc-andrelanglais/workspace/OpenOrganix/Dev/JOCR/Cuistogo_Android/app/src/main/assets/svg/choco_chips.png"
       inkscape:export-xdpi="94.199997"
       inkscape:export-ydpi="94.199997" />
    <path
       inkscape:export-ydpi="94.199997"
       inkscape:export-xdpi="94.199997"
       inkscape:export-filename="/Users/marc-andrelanglais/workspace/OpenOrganix/Dev/JOCR/Cuistogo_Android/app/src/main/assets/svg/choco_chips.png"
       inkscape:connector-curvature="0"
       id="path1901"
       style="display:inline;opacity:1;fill:#ee3f3f;fill-opacity:1;stroke:none;stroke-width:3.30729;stroke-miterlimit:10;stroke-dasharray:none;stop-opacity:1"
       d="m 79.380404,108.78579 a 4.5273516,4.5273516 0 0 1 4.52736,-4.52735 4.5273516,4.5273516 0 0 1 4.52735,4.52735 4.5273516,4.5273516 0 0 1 -4.52735,4.52736 4.5273516,4.5273516 0 0 1 -4.52736,-4.52736" />
    <path
       inkscape:export-ydpi="94.199997"
       inkscape:export-xdpi="94.199997"
       inkscape:export-filename="/Users/marc-andrelanglais/workspace/OpenOrganix/Dev/JOCR/Cuistogo_Android/app/src/main/assets/svg/choco_chips.png"
       inkscape:connector-curvature="0"
       id="path1903"
       style="display:inline;opacity:1;fill:#ee3f3f;fill-opacity:1;stroke:none;stroke-width:3.30729;stroke-miterlimit:10;stroke-dasharray:none;stop-opacity:1"
       d="m 79.380404,138.01989 a 4.5273516,4.5273516 0 0 1 4.52736,-4.52735 4.5273516,4.5273516 0 0 1 4.52735,4.52735 4.5273516,4.5273516 0 0 1 -4.52735,4.52736 4.5273516,4.5273516 0 0 1 -4.52736,-4.52736" />
    <path
       inkscape:export-ydpi="94.199997"
       inkscape:export-xdpi="94.199997"
       inkscape:export-filename="/Users/marc-andrelanglais/workspace/OpenOrganix/Dev/JOCR/Cuistogo_Android/app/src/main/assets/svg/choco_chips.png"
       inkscape:connector-curvature="0"
       id="path1911"
       style="display:inline;opacity:1;fill:#ee3f3f;fill-opacity:1;stroke:none;stroke-width:3.30729;stroke-miterlimit:10;stroke-dasharray:none;stop-opacity:1"
       d="m 117.66922,108.78579 a 4.5273516,4.5273516 0 0 1 -4.52736,4.52735 4.5273516,4.5273516 0 0 1 -4.52735,-4.52735 4.5273516,4.5273516 0 0 1 4.52735,-4.52735 4.5273516,4.5273516 0 0 1 4.52736,4.52735" />
    <path
       inkscape:export-ydpi="94.199997"
       inkscape:export-xdpi="94.199997"
       inkscape:export-filename="/Users/marc-andrelanglais/workspace/OpenOrganix/Dev/JOCR/Cuistogo_Android/app/src/main/assets/svg/choco_chips.png"
       inkscape:connector-curvature="0"
       id="path1917"
       style="display:inline;opacity:1;fill:#ee3f3f;fill-opacity:1;stroke:none;stroke-width:3.30729;stroke-miterlimit:10;stroke-dasharray:none;stop-opacity:1"
       d="m 113.14187,89.641393 a 4.5273516,4.5273516 0 0 1 4.52734,4.52735 4.5273516,4.5273516 0 0 1 -4.52734,4.52735 4.5273516,4.5273516 0 0 1 -4.52736,-4.52735 4.5273516,4.5273516 0 0 1 4.52736,-4.52735" />
    <path
       inkscape:export-ydpi="94.199997"
       inkscape:export-xdpi="94.199997"
       inkscape:export-filename="/Users/marc-andrelanglais/workspace/OpenOrganix/Dev/JOCR/Cuistogo_Android/app/src/main/assets/svg/choco_chips.png"
       inkscape:connector-curvature="0"
       id="path1929"
       style="display:inline;opacity:1;fill:#ee3f3f;fill-opacity:1;stroke:none;stroke-width:3.30729;stroke-miterlimit:10;stroke-dasharray:none;stop-opacity:1"
       d="m 123.23155,94.168743 a 4.5273516,4.5273516 0 0 1 4.52736,-4.52735 4.5273516,4.5273516 0 0 1 4.52735,4.52735 4.5273516,4.5273516 0 0 1 -4.52735,4.52735 4.5273516,4.5273516 0 0 1 -4.52736,-4.52735" />
    <path
       inkscape:export-ydpi="94.199997"
       inkscape:export-xdpi="94.199997"
       inkscape:export-filename="/Users/marc-andrelanglais/workspace/OpenOrganix/Dev/JOCR/Cuistogo_Android/app/src/main/assets/svg/choco_chips.png"
       inkscape:connector-curvature="0"
       id="path1931"
       style="display:inline;opacity:1;fill:#ee3f3f;fill-opacity:1;stroke:none;stroke-width:3.30729;stroke-miterlimit:10;stroke-dasharray:none;stop-opacity:1"
       d="m 93.997464,94.168733 a 4.5273516,4.5273516 0 0 1 4.52735,-4.52734 4.5273516,4.5273516 0 0 1 4.527346,4.52734 4.5273516,4.5273516 0 0 1 -4.527346,4.52736 4.5273516,4.5273516 0 0 1 -4.52735,-4.52736" />
    <path
       d="m 79.380404,94.168738 a 4.5273516,4.5273516 0 0 1 4.52736,-4.52735 4.5273516,4.5273516 0 0 1 4.52735,4.52735 4.5273516,4.5273516 0 0 1 -4.52735,4.52736 4.5273516,4.5273516 0 0 1 -4.52736,-4.52736"
       style="display:inline;opacity:1;fill:#ee3f3f;fill-opacity:1;stroke:none;stroke-width:3.30729;stroke-miterlimit:10;stroke-dasharray:none;stop-opacity:1"
       id="path1933"
       inkscape:connector-curvature="0"
       inkscape:export-filename="/Users/marc-andrelanglais/workspace/OpenOrganix/Dev/JOCR/Cuistogo_Android/app/src/main/assets/svg/choco_chips.png"
       inkscape:export-xdpi="94.199997"
       inkscape:export-ydpi="94.199997" />
  </g>
</svg>
