<?xml version="1.0" encoding="UTF-8" standalone="no"?>
<svg
   xmlns:dc="http://purl.org/dc/elements/1.1/"
   xmlns:cc="http://creativecommons.org/ns#"
   xmlns:rdf="http://www.w3.org/1999/02/22-rdf-syntax-ns#"
   xmlns:svg="http://www.w3.org/2000/svg"
   xmlns="http://www.w3.org/2000/svg"
   xmlns:sodipodi="http://sodipodi.sourceforge.net/DTD/sodipodi-0.dtd"
   xmlns:inkscape="http://www.inkscape.org/namespaces/inkscape"
   inkscape:version="1.0beta1 (32d4812, 2019-09-19)"
   sodipodi:docname="ground_cumin.svg"
   version="1.1"
   viewBox="0 0 1939 1939"
   height="1939"
   width="1939"
   data-name="Layer 1"
   id="Layer_1">
  <metadata
     id="metadata854">
    <rdf:RDF>
      <cc:Work
         rdf:about="">
        <dc:format>image/svg+xml</dc:format>
        <dc:type
           rdf:resource="http://purl.org/dc/dcmitype/StillImage" />
        <dc:title></dc:title>
      </cc:Work>
    </rdf:RDF>
  </metadata>
  <defs
     id="defs852" />
  <sodipodi:namedview
     inkscape:current-layer="Layer_1"
     inkscape:window-maximized="0"
     inkscape:window-y="23"
     inkscape:window-x="0"
     inkscape:cy="529.5"
     inkscape:cx="369.5"
     inkscape:zoom="0.35"
     fit-margin-bottom="28"
     fit-margin-right="28"
     fit-margin-left="28"
     lock-margins="true"
     fit-margin-top="28"
     showgrid="false"
     id="namedview850"
     inkscape:window-height="907"
     inkscape:window-width="1600"
     inkscape:pageshadow="2"
     inkscape:pageopacity="0"
     guidetolerance="10"
     gridtolerance="10"
     objecttolerance="10"
     borderopacity="1"
     inkscape:document-rotation="0"
     bordercolor="#666666"
     pagecolor="#ffffff" />
  <circle
     id="circle833"
     style="fill:#ffffff;stroke:#231f20;stroke-width:54.9997;stroke-linecap:round;stroke-linejoin:round;stroke-miterlimit:4;stroke-dasharray:none"
     r="941.5"
     cy="969.5"
     cx="969.5" />
  <path
     inkscape:connector-curvature="0"
     id="path835"
     style="fill:#ef3f3f"
     d="m 1638.37,1466.96 a 835.67,835.67 0 0 0 59.78,-92.23 V 564.27 a 835.67,835.67 0 0 0 -59.78,-92.23 z" />
  <path
     inkscape:connector-curvature="0"
     id="path837"
     style="fill:#ef3f3f"
     d="m 1465.23,299.34 q -29,-21.48 -59.78,-40.46 v 1421.24 q 30.79,-19 59.78,-40.46 z" />
  <path
     inkscape:connector-curvature="0"
     id="path839"
     style="fill:#ef3f3f"
     d="m 1232.31,178.03 q -29.43,-9.79 -59.78,-17.43 v 1617.8 q 30.35,-7.62 59.78,-17.43 z" />
  <path
     inkscape:connector-curvature="0"
     id="path841"
     style="fill:#ef3f3f"
     d="M 999.39,1802.87 V 136.13 q -14.88,-0.52 -29.89,-0.54 -15.01,-0.02 -29.89,0.54 v 1666.74 q 14.88,0.53 29.89,0.54 15.01,0.01 29.89,-0.54 z" />
  <path
     inkscape:connector-curvature="0"
     id="path843"
     style="fill:#ef3f3f"
     d="m 766.5,160.6 q -30.35,7.62 -59.78,17.43 v 1582.94 q 29.43,9.79 59.78,17.43 z" />
  <path
     inkscape:connector-curvature="0"
     id="path845"
     style="fill:#ef3f3f"
     d="m 473.77,1639.66 q 29,21.48 59.78,40.46 V 258.88 q -30.79,19 -59.78,40.46 z" />
  <path
     inkscape:connector-curvature="0"
     id="path847"
     style="fill:#ef3f3f"
     d="m 240.85,1374.73 a 835.67,835.67 0 0 0 59.78,92.23 V 472.04 a 835.67,835.67 0 0 0 -59.78,92.23 z" />
</svg>
