<svg id="Layer_1" data-name="Layer 1" xmlns="http://www.w3.org/2000/svg" width="2000" height="2000" viewBox="0 0 2000 2000"><circle cx="1000" cy="1000" r="941.5" style="fill:#fff;stroke:#231f20;stroke-linecap:round;stroke-linejoin:round;stroke-width:55"/><path d="M616.38,346.18a112.15,112.15,0,0,0,110-134,831.54,831.54,0,0,0-193.08,97A111.81,111.81,0,0,0,616.38,346.18Z" style="fill:#ef3f3f"/><path d="M907.19,171.23a112.09,112.09,0,1,0,185.62,0,840.48,840.48,0,0,0-185.62,0Z" style="fill:#ef3f3f"/><path d="M1271.53,234.1a112.09,112.09,0,0,0,195.22,75.18,831.54,831.54,0,0,0-193.08-97A112.48,112.48,0,0,0,1271.53,234.1Z" style="fill:#ef3f3f"/><path d="M313.52,527.06a112.09,112.09,0,1,0,111.05-96.82,111.63,111.63,0,0,0-39.6,7.21A839.13,839.13,0,0,0,313.52,527.06Z" style="fill:#ef3f3f"/><circle cx="808.19" cy="542.33" r="112.09" transform="translate(-146.77 730.32) rotate(-45)" style="fill:#ef3f3f"/><circle cx="1191.81" cy="542.33" r="112.09" style="fill:#ef3f3f"/><path d="M1575.43,430.24a112,112,0,1,0,111,96.82A839.13,839.13,0,0,0,1615,437.45,111.63,111.63,0,0,0,1575.43,430.24Z" style="fill:#ef3f3f"/><path d="M232.76,962.64a112.09,112.09,0,1,0-25.62-221.23,828.29,828.29,0,0,0-39,200.71A111.58,111.58,0,0,0,232.76,962.64Z" style="fill:#ef3f3f"/><circle cx="616.38" cy="850.55" r="112.09" transform="translate(-420.9 684.97) rotate(-45)" style="fill:#ef3f3f"/><circle cx="1000" cy="850.55" r="112.09" style="fill:#ef3f3f"/><circle cx="1383.62" cy="850.55" r="112.09" transform="translate(-196.18 1227.49) rotate(-45)" style="fill:#ef3f3f"/><path d="M1655.15,850.55a112.09,112.09,0,0,0,176.74,91.57,828.29,828.29,0,0,0-39-200.71,112.19,112.19,0,0,0-137.71,109.14Z" style="fill:#ef3f3f"/><circle cx="424.57" cy="1158.78" r="112.09" transform="translate(-695.03 639.62) rotate(-45)" style="fill:#ef3f3f"/><circle cx="808.19" cy="1158.78" r="112.09" transform="matrix(0.99, -0.16, 0.16, 0.99, -175.18, 144.42)" style="fill:#ef3f3f"/><circle cx="1191.81" cy="1158.78" r="112.09" style="fill:#ef3f3f"/><circle cx="1575.43" cy="1158.78" r="112.09" style="fill:#ef3f3f"/><path d="M344.85,1467a112.09,112.09,0,0,0-99-111.32,834.59,834.59,0,0,0,91.94,150.57A112,112,0,0,0,344.85,1467Z" style="fill:#ef3f3f"/><circle cx="616.38" cy="1467.01" r="112.09" transform="translate(-398.67 241.56) rotate(-16.85)" style="fill:#ef3f3f"/><circle cx="1000" cy="1467.01" r="112.09" transform="matrix(0.99, -0.16, 0.16, 0.99, -222.08, 179.12)" style="fill:#ef3f3f"/><circle cx="1383.62" cy="1467.01" r="112.09" transform="translate(-632.08 1408.04) rotate(-45)" style="fill:#ef3f3f"/><path d="M1655.15,1467a112,112,0,0,0,7.07,39.25,834.59,834.59,0,0,0,91.94-150.57A112.1,112.1,0,0,0,1655.15,1467Z" style="fill:#ef3f3f"/><path d="M920.28,1775.24a112.09,112.09,0,1,0-224.18,0c0,.45,0,.9,0,1.35a827.33,827.33,0,0,0,210.6,52.13A111.57,111.57,0,0,0,920.28,1775.24Z" style="fill:#ef3f3f"/><path d="M1303.9,1775.24a112.09,112.09,0,1,0-210.62,53.48,827.33,827.33,0,0,0,210.6-52.13C1303.88,1776.14,1303.9,1775.69,1303.9,1775.24Z" style="fill:#ef3f3f"/></svg>
