<svg id="Layer_1" data-name="Layer 1" xmlns="http://www.w3.org/2000/svg" viewBox="0 0 2000 2000"><path d="M1975.79,837.19h-.18a361.69,361.69,0,0,0-15.18-114.45C1876,438.6,1451.61,242.49,1000,242.49S124,438.6,39.57,722.74A361.69,361.69,0,0,0,24.39,837.19h-.18l.07,116.29q-.12,6.64,0,13.28v.71h0c6.32,302.82,402.6,572.14,975.7,572.14,576.76,0,974.43-273.77,975.77-578.94h0Z" style="fill:#e58c77;stroke:#3a3632;stroke-linecap:round;stroke-linejoin:round;stroke-width:20px"/><path d="M1943.19,728.57c100.61,338.57-312.14,671.07-943.19,671.07S-43.8,1067.14,56.81,728.57c82.93-279,499.69-471.63,943.19-471.63S1860.26,449.53,1943.19,728.57Z" style="fill:#f8c0c7"/><path d="M1932.84,962.16c-95.22,243-450.18,437.48-932.84,437.48-480.86,0-835-193.07-931.77-434.77" style="fill:none;stroke:#3a3632;stroke-linecap:round;stroke-linejoin:round;stroke-width:20px"/><path d="M522.47,390.36C489.15,405.09,455.05,425,440,458.15s-.16,81.31,35.69,87.73c25.09,4.5,48.52-11.75,72.41-20.62,23.31-8.65,48.6-10.4,73.47-10.47A581.7,581.7,0,0,1,737.24,526.1c22.83,4.57,49.32,14.29,54.56,37,4.46,19.28-13.09,40.31-32.86,39.38-1.23,25.63,32.24,38.73,57.48,34.1s49.19-18.87,74.74-16.43c20.52,2,38.33,14.41,55.07,26.44,26.88,19.32,55,40.1,68.19,70.46,2.12,4.87,3.79,10.55,1.53,15.34-2,4.19-6.43,6.56-10.72,8.3-26.66,10.86-56.53,8.6-85.24,10.74-68.54,5.1-134.89,37.52-180.08,89.31-2.95,3.38-5.9,7-7,11.37-1.4,5.65.59,11.61,3.39,16.71,11.86,21.62,37.35,32.62,61.92,34.77s49.1-3,73.61-5.7c35.43-3.93,73.49-2.23,103.41,17.16s47.5,61,30.46,92.34c-7.16,13.16-19.31,23-32.32,30.38-27.59,15.72-59.45,21.89-90.68,27.68-31.71,5.87-64.28,11.6-96,5.83-40.37-7.33-76.24-32.77-117.08-36.86-40.07-4-78.8,13-117,25.86-34.09,11.52-70.12,20.44-98.73,42.27s-47.73,61.48-33.16,94.38c13.89,31.39,51.27,44.21,85.1,50,49.31,8.53,101.88,10.16,144.57,36.27,14.66,9,27.77,20.66,43.56,27.47,18,7.77,38.12,8.62,57.71,9.37l147.1,5.58c8.32.32,16.81.61,24.81-1.71,25.4-7.37,36.6-40.43,27.2-65.16s-33.59-41.09-58.66-49.53-51.78-10.47-77.66-16-52.21-15.3-69.42-35.39c48.62-39.61,118.95-31.79,181-22.9s133.43,14,179.3-28.73c46.19-43.06,44.58-121.32,9.54-173.85s-95.24-83-155.85-100.71c-5.23-1.53-10.73-3.13-14.55-7-12.28-12.5,3.87-33.59,20.85-37.89s36.71-2,50.15-13.26c10.07-8.41,13.65-22.26,15-35.31,8-79.54-57.41-159.14-137-166.65-4.9-.46-9.94-.71-14.46-2.67-10.36-4.5-15.24-17.37-13.21-28.48s9.59-20.48,18.24-27.74c23.84-20,55.71-26.67,85.16-36.74s60.12-27,70.27-56.39c9.9-28.72-3.88-61.72-27-81.4S958.66,310,928.54,306a351.23,351.23,0,0,0-120,4.9c-27.94,6-55.26,15.53-83.73,18.22-36.92,3.48-77.73-4.44-109.93,17.65C585.82,366.76,555.17,375.91,522.47,390.36Z" style="fill:#fad0d9"/><path d="M1353.64,364.5a207.81,207.81,0,0,0-151.27,9C1190.46,379,1178.73,386,1171,396.7s-10.52,25.68-4,37.11c3.57,6.26,9.46,10.83,15.4,14.91a211.59,211.59,0,0,0,141.95,35.45c16.55-1.87,33-5.71,49.65-4.88a90.43,90.43,0,0,1,71.29,42.26c9.78,15.92,13.65,38.18,1.44,52.32-7,8.16-17.85,11.82-26.8,17.83s-16.63,17.17-12.37,27.07c1.69,3.92,5,6.91,8.48,9.38,28.43,20.16,67.15,11.47,101.84,14.86a140.74,140.74,0,0,1,66.45,24.52c23.27,16.25,42.25,47.33,28.48,72.15-6.37,11.5-18.8,19.4-22.67,32-5.56,18,10.19,36.94,28.36,41.93s37.4,0,55.58-4.95l84.2-23c7.46-2,15.1-4.09,22.82-3.51,15.89,1.2,28.56,13,42.43,20.89s34.41,10.42,43.26-2.84c3.58-5.36,4.27-12.13,4.31-18.58.35-49.74-34.59-97.71-82-112.64-13.25-4.17-27.77-6.25-38.53-15-8.47-6.93-13.44-17.15-18.16-27l-23.6-49.46c-2.18-4.55-4.51-9.3-8.59-12.27s-9.62-3.77-14.8-4.18a202.53,202.53,0,0,0-79.42,9.52c-25.33,8.36-55,21.22-76.47,5.37-16.22-12-17.93-39.09-3.34-53,16.1-15.38,46.81-16,53.19-37.31,3.71-12.41-3.66-25.31-11.84-35.35-31.2-38.27-79.66-61.9-129-62.92-18.41-.38-37.32,2.15-54.9-3.32-13.17-4.11-24.66-12.46-37.7-17a69.55,69.55,0,0,0-49.52,1.76" style="fill:#fad0d9"/><path d="M223.9,679.35A144.93,144.93,0,0,0,130,738.06c-6.47,9.15-12,19.59-12.11,30.8-.3,31.07,38.65,49.23,44.9,79.67,6,29.3-20.06,55.15-25.87,84.49-2.44,12.33-1.19,25.21,2.47,37.23a96.8,96.8,0,0,0,60.79,62.44c23.23,7.79,50.46,7.15,69,23.23,9.7,8.43,15.85,20.71,26.62,27.73,13.25,8.64,32.37,6.83,43.76-4.15s13.91-30,5.77-43.57c-4.35-7.25-11.13-12.68-17.93-17.71-21.08-15.63-44-29.36-61.23-49.18s-27.9-47.93-19-72.61c10.44-28.91,42.81-42.91,72.56-50.65,20.5-5.34,44.16-8.69,61.3,3.76,14.16,10.27,19.69,28.31,27.26,44.08S429.52,925.49,447,924.2c9.92-.74,18.54-7.12,25.36-14.37a93.43,93.43,0,0,0,24.73-54.46c.78-8,.4-16.49-3.85-23.3-3.86-6.18-10.39-10.13-16.74-13.71a510.19,510.19,0,0,0-95.63-41.61c-19.89-6.33-44-15.7-46.37-36.45-2-18,14.68-33.37,15.76-51.51.31-5.23-.9-10.84-4.62-14.52-2.7-2.69-6.41-4.07-10-5.24-52.49-16.9-113.7-3-153.75,34.89" style="fill:#fad0d9"/><path d="M1470.87,911.35c-13.79-1.57-29.61-.87-38.92,9.43-8.56,9.48-8.54,24.06-4.9,36.31,6.69,22.52,23.18,40.52,36.2,60.07s23,44.19,14.74,66.18c-9.79,26-40.85,37.11-68.62,38.57s-56.36-3.34-82.94,4.78c-19.62,6-37.36,19.55-45.91,38.19s-6.71,42.3,6.63,57.87,38.3,20.69,55.56,9.62c10.51-6.74,17.12-18,26-26.77,24.36-23.95,67.51-25.08,93.09-2.43,9.21,8.16,17.43,19.43,29.67,20.75,7.47.8,14.71-2.45,21.52-5.61,27.37-12.72,57.67-28.74,65.8-57.81,2-7,2.65-14.88,7.42-20.43a25.15,25.15,0,0,1,9.64-6.44c24.73-10.26,54.82,1.21,78.95-10.39,9.31-4.47,16.77-12,23.49-19.86a224.31,224.31,0,0,0,39.85-67.92c3.63-9.84,6.59-20.56,3.88-30.69-3.41-12.81-14.9-21.55-25.67-29.27-19.43-13.94-39.62-28.23-63-33.06s-51.1,2.4-62.94,23.17C1602.65,944.13,1480.11,912.39,1470.87,911.35Z" style="fill:#fad0d9"/></svg>