<?xml version="1.0" encoding="UTF-8"?>
<svg id="Layer_1" data-name="Layer 1" xmlns="http://www.w3.org/2000/svg" width="2000" height="1666" viewBox="0 0 2000 1666">
  <path d="M1287.69,187.73c-120.15-4.99-239.05,13.65-358.72,12.56-90.6-.83-176.51-14.38-266.61,4.45-83.1,17.37-166.92,47.63-246.72,79.13-58.92,23.25-116.66,52.77-166.71,95.02-69.53,58.69-122.6,139.64-160.25,226.77-34.58,80.04-73.03,189.48-61.63,280.12,3.88,30.8,15.99,58.15,23.91,87.65,27.64,102.93,35.11,199.58,103.96,282.71,36.58,44.17,72.7,91.02,119.71,121.72,100.96,65.91,218.21,91.89,334.25,81.93,83.39-7.16,161.3-5.25,244.22,3.56,118.55,12.6,238.51,24.44,357.11,6.97,71.89-10.59,145.29-6.2,217.96-6.19,38.94,0,80.99-.31,118.01-13.24,105.71-36.92,195.27-84.2,266.76-182.59,43.12-59.34,93.52-98.84,124.17-170.03,53.01-123.11,45.62-270,7.38-397-8.97-29.79-19.85-58.82-32.39-86.8-9.99-22.29-17.97-42.94-32.46-62.35-19.97-26.77-44.68-48.24-64.53-75.49-21.1-28.96-40.25-59.71-63.15-87.01-39.82-47.48-90.5-83.45-145.76-104.03-46.43-17.29-86.78-42.36-132.17-60.92-50.25-20.55-103.51-30.97-156.78-35.17-9.84-.78-19.69-1.35-29.55-1.76Z" style="fill: #e58c77; stroke: #3a3632; stroke-linecap: round; stroke-linejoin: round; stroke-width: 20px;"/>
  <path d="M1280.59,196.06c-116.92-4.83-232.61,13.1-349.06,12.01-88.16-.82-171.76-13.89-259.42,4.23-80.86,16.71-162.41,45.84-240.06,76.16-57.33,22.38-113.51,50.8-162.21,91.48-67.65,56.51-119.28,134.48-155.89,218.39-33.64,77.08-71.03,182.49-59.92,269.8,3.78,29.67,15.57,56.01,23.28,84.43,26.92,99.15,34.2,192.25,101.21,272.33,35.6,42.55,70.75,87.69,116.51,117.27,98.25,63.51,212.34,88.56,325.26,78.99,81.15-6.88,156.95-5.02,237.64,3.49,115.36,12.17,232.09,23.59,347.49,6.79,69.95-10.18,141.38-5.94,212.09-5.91,37.89,.02,78.8-.28,114.83-12.72,102.86-35.54,189.99-81.06,259.54-175.81,41.95-57.15,90.98-95.19,120.79-163.74,51.56-118.57,44.34-260.06,7.11-382.39-8.73-28.7-19.33-56.66-31.53-83.62-9.72-21.48-17.5-41.36-31.6-60.07-19.44-25.79-43.48-46.48-62.8-72.73-20.54-27.9-39.18-57.52-61.46-83.82-38.76-45.75-88.08-80.4-141.86-100.24-45.18-16.67-84.45-40.82-128.62-58.71-48.9-19.8-100.73-29.85-152.56-33.91-9.57-.75-19.16-1.31-28.75-1.7Z" style="fill: #f8c0c7;"/>
  <g>
    <path d="M539.72,328.15c-34.03,16.78-68.87,39.48-84.3,77.26-15.43,37.77-.16,92.67,36.46,99.98,25.63,5.12,49.56-13.39,73.97-23.5,23.82-9.86,49.65-11.86,75.05-11.94,39.66-.12,79.33,4.2,118.22,12.88,23.33,5.21,50.39,16.29,55.75,42.15,4.55,21.97-13.38,45.94-33.57,44.87-1.26,29.22,32.93,44.14,58.72,38.87,25.79-5.27,50.25-21.5,76.35-18.72,20.97,2.23,39.16,16.42,56.26,30.13,27.46,22.02,56.17,45.71,69.66,80.31,2.16,5.54,3.88,12.02,1.56,17.48-2.02,4.77-6.57,7.47-10.95,9.46-27.24,12.38-57.75,9.8-87.08,12.24-70.02,5.81-137.8,42.77-183.96,101.78-3.02,3.86-6.03,7.99-7.13,12.96-1.43,6.44,.61,13.23,3.46,19.04,12.11,24.64,38.16,37.18,63.26,39.62,25.1,2.44,50.16-3.39,75.2-6.49,36.2-4.48,75.08-2.55,105.64,19.55,30.56,22.1,48.53,69.55,31.12,105.24-7.31,14.99-19.72,26.17-33.02,34.62-28.19,17.92-60.73,24.95-92.63,31.54-32.4,6.7-65.67,13.22-98.09,6.65-41.25-8.36-77.89-37.35-119.61-42.01-40.93-4.57-80.5,14.78-119.47,29.47-34.83,13.12-71.64,23.29-100.86,48.17-29.22,24.88-48.76,70.06-33.88,107.57,14.2,35.77,52.38,50.38,86.93,57.04,50.38,9.72,104.08,11.58,147.69,41.34,14.98,10.22,28.37,23.54,44.5,31.3,18.39,8.85,38.94,9.83,58.96,10.68l150.27,6.36c8.5,.36,17.17,.7,25.34-1.95,25.95-8.4,37.39-46.08,27.79-74.26-9.6-28.18-34.31-46.83-59.93-56.44-25.61-9.61-52.9-11.94-79.33-18.2-26.43-6.27-53.34-17.44-70.92-40.34,49.67-45.15,121.51-36.23,184.93-26.1,63.42,10.13,136.31,15.99,183.17-32.74,47.19-49.08,45.54-138.26,9.74-198.13-35.8-59.87-97.29-94.59-159.21-114.78-5.34-1.74-10.97-3.56-14.87-7.99-12.54-14.24,3.96-38.28,21.31-43.17,17.35-4.89,37.5-2.32,51.23-15.12,10.29-9.58,13.95-25.37,15.29-40.24,8.2-90.65-58.65-181.36-139.96-189.93-5.01-.53-10.16-.81-14.77-3.05-10.59-5.12-15.57-19.79-13.49-32.45,2.08-12.66,9.79-23.35,18.63-31.62,24.35-22.81,56.91-30.39,87-41.87,30.09-11.48,61.42-30.72,71.79-64.26,10.12-32.74-3.96-70.35-27.62-92.77-23.65-22.42-54.99-32.07-85.76-36.61-40.73-6-82.39-4.11-122.55,5.58-28.54,6.89-56.45,17.7-85.53,20.76-37.72,3.98-79.41-5.05-112.31,20.12-29.73,22.75-61.04,33.17-94.45,49.64Z" style="fill: #fad0d9;"/>
    <path d="M1388.83,298.67c-50.19-18.46-106.65-14.72-154.54,10.22-12.17,6.34-24.15,14.33-32.01,26.48-7.86,12.15-10.75,29.26-4.1,42.28,3.64,7.14,9.66,12.34,15.73,16.99,41.96,32.13,94.43,46.75,145.01,40.4,16.91-2.12,33.73-6.5,50.72-5.56,29.32,1.63,57.47,20.25,72.83,48.16,9.98,18.15,13.94,43.52,1.46,59.63-7.2,9.3-18.23,13.47-27.37,20.32-9.14,6.85-16.99,19.56-12.64,30.85,1.72,4.47,5.11,7.87,8.67,10.69,29.04,22.97,68.6,13.07,104.03,16.94,24.27,2.65,47.89,12.37,67.88,27.94,23.78,18.52,43.17,53.94,29.1,82.23-6.51,13.1-19.2,22.1-23.17,36.41-5.68,20.51,10.42,42.1,28.98,47.78,18.56,5.68,38.21,.01,56.77-5.64,28.67-8.73,57.35-17.46,86.02-26.19,7.62-2.32,15.43-4.66,23.31-4,16.23,1.37,29.18,14.85,43.35,23.81,14.16,8.95,35.15,11.87,44.19-3.23,3.66-6.12,4.36-13.82,4.41-21.18,.35-56.69-35.34-111.36-83.81-128.38-13.54-4.75-28.37-7.12-39.36-17.14-8.66-7.9-13.74-19.54-18.55-30.8l-24.12-56.37c-2.22-5.19-4.6-10.6-8.77-13.98-4.29-3.48-9.83-4.3-15.12-4.77-27.33-2.44-55.09,1.27-81.13,10.86-25.89,9.53-56.2,24.18-78.12,6.12-16.57-13.66-18.32-44.55-3.42-60.42,16.45-17.52,47.82-18.21,54.34-42.52,3.79-14.14-3.74-28.84-12.1-40.28-31.87-43.62-81.37-70.55-131.81-71.72-18.8-.43-38.12,2.45-56.08-3.79-13.46-4.68-25.19-14.2-38.52-19.34-16.31-6.29-34.72-5.56-50.59,2" style="fill: #fad0d9;"/>
    <path d="M234.71,657.49c-38.2,6.97-73.56,31.64-95.89,66.91-6.6,10.43-12.26,22.33-12.37,35.1-.31,35.41,39.48,56.11,45.87,90.8,6.16,33.4-20.5,62.85-26.43,96.3-2.49,14.04-1.22,28.73,2.53,42.42,9,32.89,32.87,60.24,62.09,71.17,23.73,8.87,51.56,8.14,70.44,26.47,9.91,9.61,16.19,23.61,27.19,31.61,13.53,9.84,33.07,7.78,44.7-4.73s14.21-34.2,5.9-49.66c-4.45-8.27-11.37-14.45-18.31-20.19-21.54-17.81-44.98-33.46-62.55-56.05-17.57-22.59-28.5-54.62-19.39-82.75,10.67-32.94,43.74-48.9,74.12-57.72,20.95-6.08,45.11-9.9,62.63,4.28,14.46,11.71,20.11,32.27,27.84,50.24,7.73,17.97,21.68,36.32,39.5,34.85,10.13-.84,18.94-8.12,25.9-16.37,14.21-16.85,23.25-39.04,25.27-62.06,.8-9.09,.4-18.8-3.93-26.55-3.95-7.05-10.61-11.55-17.1-15.63-31-19.47-63.79-35.39-97.69-47.42-20.33-7.21-44.98-17.89-47.37-41.54-2.08-20.57,15-38.04,16.1-58.7,.32-5.96-.92-12.35-4.72-16.55-2.77-3.06-6.56-4.63-10.26-5.96-53.62-19.26-116.15-3.44-157.07,39.76" style="fill: #fad0d9;"/>
    <path d="M1508.59,921.89c-14.09-1.78-30.25-.99-39.76,10.75-8.75,10.8-8.73,27.42-5.01,41.38,6.84,25.66,23.68,46.19,36.98,68.47,13.3,22.28,23.52,50.36,15.06,75.42-10.01,29.65-41.74,42.29-70.1,43.96-28.36,1.67-57.57-3.81-84.74,5.45-20.04,6.83-38.16,22.27-46.9,43.51-8.74,21.24-6.86,48.21,6.77,65.96,13.63,17.75,39.13,23.58,56.76,10.96,10.74-7.68,17.49-20.54,26.58-30.51,24.89-27.29,68.97-28.58,95.1-2.77,9.41,9.3,17.81,22.15,30.31,23.65,7.63,.91,15.02-2.78,21.98-6.39,27.96-14.5,58.92-32.76,67.23-65.89,2.01-8.03,2.71-16.96,7.58-23.28,2.6-3.37,6.16-5.64,9.85-7.35,25.26-11.68,56,1.38,80.65-11.83,9.51-5.1,17.14-13.69,24-22.63,17.52-22.85,31.38-49.2,40.71-77.41,3.71-11.21,6.73-23.43,3.97-34.98-3.49-14.6-15.23-24.55-26.23-33.36-19.85-15.89-40.47-32.16-64.39-37.67-23.92-5.51-52.2,2.74-64.3,26.41,12.51-24.48-112.67-60.65-122.11-61.85Z" style="fill: #fad0d9;"/>
  </g>
</svg>