<svg id="Layer_1" data-name="Layer 1" xmlns="http://www.w3.org/2000/svg" viewBox="0 0 1673 2000"><path d="M300.73,1980.5c-155.24,0-281.08-125.85-281.08-281.08V740.65c0-106.36,78.26-193.57,113.08-251.57s151-190.73,151-215.21V159.67H1389.28v114.2c0,24.48,116.17,157.21,151,215.21s113.08,145.21,113.08,251.57v958.77c0,155.23-125.84,281.08-281.08,281.08Z" style="fill:#785d42;stroke:#3a3632;stroke-miterlimit:10;stroke-width:20px"/><rect x="236.64" y="19.5" width="1199.72" height="230.18" style="fill:#fff"/><rect x="236.64" y="19.5" width="1199.72" height="230.18" style="fill:none;stroke:#3a3632;stroke-linecap:round;stroke-linejoin:round;stroke-width:20px"/><line x1="303.29" y1="63.8" x2="303.29" y2="205.38" style="fill:none;stroke:#3a3632;stroke-linecap:round;stroke-linejoin:round;stroke-width:20px"/><line x1="369.94" y1="63.8" x2="369.94" y2="205.38" style="fill:none;stroke:#3a3632;stroke-linecap:round;stroke-linejoin:round;stroke-width:20px"/><line x1="436.59" y1="63.8" x2="436.59" y2="205.38" style="fill:none;stroke:#3a3632;stroke-linecap:round;stroke-linejoin:round;stroke-width:20px"/><line x1="503.24" y1="63.8" x2="503.24" y2="205.38" style="fill:none;stroke:#3a3632;stroke-linecap:round;stroke-linejoin:round;stroke-width:20px"/><line x1="569.9" y1="63.8" x2="569.9" y2="205.38" style="fill:none;stroke:#3a3632;stroke-linecap:round;stroke-linejoin:round;stroke-width:20px"/><line x1="636.55" y1="63.8" x2="636.55" y2="205.38" style="fill:none;stroke:#3a3632;stroke-linecap:round;stroke-linejoin:round;stroke-width:20px"/><line x1="703.2" y1="63.8" x2="703.2" y2="205.38" style="fill:none;stroke:#3a3632;stroke-linecap:round;stroke-linejoin:round;stroke-width:20px"/><line x1="769.85" y1="63.8" x2="769.85" y2="205.38" style="fill:none;stroke:#3a3632;stroke-linecap:round;stroke-linejoin:round;stroke-width:20px"/><line x1="836.5" y1="63.8" x2="836.5" y2="205.38" style="fill:none;stroke:#3a3632;stroke-linecap:round;stroke-linejoin:round;stroke-width:20px"/><line x1="903.15" y1="63.8" x2="903.15" y2="205.38" style="fill:none;stroke:#3a3632;stroke-linecap:round;stroke-linejoin:round;stroke-width:20px"/><line x1="969.8" y1="63.8" x2="969.8" y2="205.38" style="fill:none;stroke:#3a3632;stroke-linecap:round;stroke-linejoin:round;stroke-width:20px"/><line x1="1036.45" y1="63.8" x2="1036.45" y2="205.38" style="fill:none;stroke:#3a3632;stroke-linecap:round;stroke-linejoin:round;stroke-width:20px"/><line x1="1103.11" y1="63.8" x2="1103.11" y2="205.38" style="fill:none;stroke:#3a3632;stroke-linecap:round;stroke-linejoin:round;stroke-width:20px"/><line x1="1169.76" y1="63.8" x2="1169.76" y2="205.38" style="fill:none;stroke:#3a3632;stroke-linecap:round;stroke-linejoin:round;stroke-width:20px"/><line x1="1236.41" y1="63.8" x2="1236.41" y2="205.38" style="fill:none;stroke:#3a3632;stroke-linecap:round;stroke-linejoin:round;stroke-width:20px"/><line x1="1303.06" y1="63.8" x2="1303.06" y2="205.38" style="fill:none;stroke:#3a3632;stroke-linecap:round;stroke-linejoin:round;stroke-width:20px"/><line x1="1369.71" y1="63.8" x2="1369.71" y2="205.38" style="fill:none;stroke:#3a3632;stroke-linecap:round;stroke-linejoin:round;stroke-width:20px"/><rect x="23.41" y="829.24" width="1626.18" height="856.57" style="fill:#fff;stroke:#3a3632;stroke-miterlimit:10;stroke-width:10px"/><path d="M251.72,743c0-143.29,255.72-259.45,571.17-259.45S1394.05,599.66,1394.05,743" style="fill:none;stroke:#3a3632;stroke-linecap:round;stroke-miterlimit:10;stroke-width:20px"/></svg>