<?xml version="1.0" encoding="UTF-8"?>
<svg xmlns="http://www.w3.org/2000/svg" width="2000" height="2000" viewBox="0 0 2000 2000">
  <g id="Layer_1" data-name="Layer 1">
    <g>
      <path d="M1819.09,464.91l107.68,1003.14c12,111.8-65.93,213.31-177.03,230.61l-1069.98,166.57c-37.23,5.8-75.32,1.5-110.32-12.44l-355.96-141.74c-79.48-31.65-131.92-108.23-132.7-193.77l-8.75-960.59c-.91-99.63,68.11-186.26,165.42-207.64l964.16-211.87c41.12-9.04,84.01-5.54,123.13,10.04l362.85,144.49c72.56,28.89,123.17,95.56,131.51,173.21Z" style="fill: #bfe4ed; stroke: #0c0d18; stroke-linecap: round; stroke-linejoin: round; stroke-width: 20px;"/>
      <path d="M1207.26,305.59l274.31,99.97c69.99,25.51,118.68,89.5,124.59,163.76l63.92,803.01c8.06,101.27-64.81,191.03-165.58,203.94l-851.25,109.1c-33.65,4.31-67.85-.45-99.04-13.78l-200.68-85.8c-70.08-29.96-115.54-98.83-115.54-175.05V632.83c0-90.21,63.31-168.03,151.63-186.39l713.71-148.37c34.67-7.21,70.67-4.6,103.94,7.52Z" style="fill: #e2ffff;"/>
      <polyline points="789.5 1303.38 789.5 741.99 1329.54 601.68" style="fill: none; stroke: #0c0d18; stroke-linecap: round; stroke-linejoin: round; stroke-width: 20px;"/>
      <line x1="789.5" y1="741.99" x2="337.76" y2="557.38" style="fill: #bfe4ed; stroke: #0c0d18; stroke-linecap: round; stroke-linejoin: round; stroke-width: 20px;"/>
      <path d="M397.89,419.91l386.4,160.32c5.94,2.46,12.56,2.74,18.67,.77l650.32-209c24.34-7.82,25.3-41.9,1.44-51.08l-298.52-114.93c-4.97-1.91-10.4-2.32-15.6-1.17L402.42,368.43c-25.85,5.73-28.98,41.33-4.52,51.48Z" style="fill: #fff;"/>
      <polygon points="1734.97 464.91 1758.11 704.32 1006.18 1739.51 789.5 1772.74 1734.97 464.91" style="fill: #fff;"/>
      <polygon points="1767.48 905.31 1797.45 1120.62 1367.88 1693.47 1143.11 1724.31 1767.48 905.31" style="fill: #fff;"/>
    </g>
  </g>
  <g id="Isolation_Mode" data-name="Isolation Mode"/>
</svg>