<?xml version="1.0" encoding="UTF-8"?>
<svg xmlns="http://www.w3.org/2000/svg" width="2000" height="2000" viewBox="0 0 2000 2000">
  <g id="Layer_1" data-name="Layer 1">
    <g>
      <g>
        <g>
          <path d="M1543.67,353.37l33.03,307.71c3.68,34.29-20.22,65.43-54.3,70.74l-328.22,51.1c-11.42,1.78-23.11,.46-33.84-3.82l-109.19-43.48c-24.38-9.71-40.47-33.2-40.71-59.44l-2.68-294.66c-.28-30.56,20.89-57.14,50.74-63.69l295.76-64.99c12.61-2.77,25.77-1.7,37.77,3.08l111.3,44.32c22.26,8.86,37.78,29.31,40.34,53.13Z" style="fill: #bfe4ed; stroke: #0c0d18; stroke-linecap: round; stroke-linejoin: round; stroke-width: 20px;"/>
          <path d="M1367.2,295.28l98.64,33.77c21.91,7.5,37.32,27.24,39.28,50.32l21.92,258.61c2.66,31.34-19.98,59.15-51.21,62.91l-296.89,35.74c-9.75,1.17-19.63-.13-28.74-3.79l-73.07-29.34c-22.13-8.89-36.64-30.34-36.64-54.19v-250.08c0-27.94,19.79-51.96,47.21-57.32l249.4-48.7c10.04-1.96,20.42-1.25,30.1,2.07Z" style="fill: #e2ffff;"/>
          <path d="M1106.3,349.64l137.86,58.72c1.86,.79,3.94,.88,5.86,.25l228.88-75.51c7.38-2.44,7.68-12.77,.45-15.62l-107.02-42.3c-1.56-.62-3.27-.75-4.9-.37l-259.72,59.09c-7.86,1.79-8.83,12.59-1.41,15.75Z" style="fill: #fff;"/>
          <polygon points="1515.81 352.22 1523.15 425.27 1284.67 741.11 1215.96 751.25 1515.81 352.22" style="fill: #fff;"/>
          <polygon points="1534.24 513.87 1542.49 571.56 1424.32 725.06 1362.49 733.32 1534.24 513.87" style="fill: #fff;"/>
          <g>
            <polyline points="1225.73 575.15 1225.73 456.51 1339.17 426.86" style="fill: none; stroke: #0c0d18; stroke-linecap: round; stroke-linejoin: round; stroke-width: 20px;"/>
            <line x1="1225.73" y1="456.51" x2="1130.84" y2="417.5" style="fill: #bfe4ed; stroke: #0c0d18; stroke-linecap: round; stroke-linejoin: round; stroke-width: 20px;"/>
          </g>
        </g>
        <g>
          <path d="M867.58,548.93l12.74,266.79c1.68,35.11-24.52,65.34-59.51,68.69l-287.41,27.45c-11.01,1.05-22.1-.87-32.11-5.56l-91.89-43.06c-22.74-10.65-36.77-34-35.52-59.08l12.92-257.63c1.46-29.21,23.19-53.39,52.08-57.97l263.41-41.72c12.21-1.93,24.71-.16,35.9,5.08l93.87,43.98c20.76,9.73,34.43,30.14,35.52,53.04Z" style="fill: #bfe4ed; stroke: #0c0d18; stroke-linecap: round; stroke-linejoin: round; stroke-width: 20px;"/>
          <path d="M692.65,488.66l76.59,27.91c20.82,7.59,35.3,26.62,37.06,48.71l18.01,226.29c2.4,30.12-19.28,56.82-49.25,60.66l-240.9,30.87c-10.01,1.28-20.18-.13-29.46-4.1l-55.56-23.75c-20.85-8.91-34.37-29.4-34.37-52.07v-219.36c0-26.83,18.83-49.98,45.1-55.44l201.86-41.96c10.31-2.14,21.02-1.37,30.92,2.24Z" style="fill: #e2ffff;"/>
          <path d="M477.86,528.01l108.11,44.86c1.69,.7,3.57,.83,5.33,.35l200.43-53.61c7.42-1.99,8.41-12.12,1.5-15.5l-77.53-37.92c-1.64-.8-3.51-1.04-5.3-.68l-231,46.68c-8.04,1.62-9.12,12.68-1.54,15.82Z" style="fill: #fff;"/>
          <polygon points="822.48 546.14 828.59 608.76 629.83 879.52 572.55 888.21 822.48 546.14" style="fill: #fff;"/>
          <polygon points="832.84 681.71 839.71 731.17 741.22 862.76 689.69 869.84 832.84 681.71" style="fill: #fff;"/>
          <g>
            <polyline points="557.61 751.75 569.4 622.35 682.84 592.7" style="fill: none; stroke: #0c0d18; stroke-linecap: round; stroke-linejoin: round; stroke-width: 20px;"/>
            <line x1="569.4" y1="622.35" x2="474.51" y2="570.94" style="fill: #bfe4ed; stroke: #0c0d18; stroke-linecap: round; stroke-linejoin: round; stroke-width: 20px;"/>
          </g>
        </g>
        <g>
          <path d="M1299.56,750.31l33.03,307.71c3.68,34.29-20.22,65.43-54.3,70.74l-328.22,51.1c-11.42,1.78-23.11,.46-33.84-3.82l-109.19-43.48c-24.38-9.71-40.47-33.2-40.71-59.44l-2.68-294.66c-.28-30.56,20.89-57.14,50.74-63.69l295.76-64.99c12.61-2.77,25.77-1.7,37.77,3.08l111.3,44.32c22.26,8.86,37.78,29.31,40.34,53.13Z" style="fill: #bfe4ed; stroke: #0c0d18; stroke-linecap: round; stroke-linejoin: round; stroke-width: 20px;"/>
          <path d="M1111.88,701.44l84.14,30.67c21.47,7.83,36.4,27.45,38.22,50.23l19.61,246.32c2.47,31.06-19.88,58.6-50.79,62.56l-261.12,33.47c-10.32,1.32-20.81-.14-30.38-4.23l-61.56-26.32c-21.5-9.19-35.44-30.32-35.44-53.7v-238.62c0-27.67,19.42-51.54,46.51-57.18l218.93-45.51c10.64-2.21,21.68-1.41,31.88,2.31Z" style="fill: #e2ffff;"/>
          <polyline points="983.74 1007.51 983.74 835.3 1149.39 792.26" style="fill: none; stroke: #0c0d18; stroke-linecap: round; stroke-linejoin: round; stroke-width: 20px;"/>
          <line x1="983.74" y1="835.3" x2="845.16" y2="778.67" style="fill: #bfe4ed; stroke: #0c0d18; stroke-linecap: round; stroke-linejoin: round; stroke-width: 20px;"/>
          <path d="M863.61,736.5l118.53,49.18c1.82,.76,3.85,.84,5.73,.24l199.49-64.11c7.47-2.4,7.76-12.85,.44-15.67l-91.57-35.26c-1.53-.59-3.19-.71-4.78-.36l-226.44,50.19c-7.93,1.76-8.89,12.68-1.39,15.79Z" style="fill: #fff;"/>
          <polygon points="1273.76 750.31 1280.86 823.75 1050.2 1141.29 983.74 1151.48 1273.76 750.31" style="fill: #fff;"/>
          <polygon points="1283.73 885.4 1292.92 951.44 1161.16 1127.17 1092.21 1136.63 1283.73 885.4" style="fill: #fff;"/>
        </g>
        <g>
          <path d="M1851.26,645.73l19.96,185.92c3.68,34.29-20.22,65.43-54.3,70.74l-206.77,32.19c-11.42,1.78-23.11,.46-33.84-3.82l-59.63-23.74c-24.38-9.71-40.47-33.2-40.71-59.44l-1.62-178.01c-.28-30.56,20.89-57.14,50.74-63.69l186.32-40.94c12.61-2.77,25.77-1.7,37.77,3.08l61.74,24.59c22.26,8.86,37.78,29.31,40.34,53.13Z" style="fill: #bfe4ed; stroke: #0c0d18; stroke-linecap: round; stroke-linejoin: round; stroke-width: 20px;"/>
          <path d="M1726.74,606.18l43.6,15.89c21.47,7.83,36.4,27.45,38.22,50.23l11.5,144.45c2.47,31.06-19.88,58.6-50.79,62.56l-161.38,20.68c-10.32,1.32-20.81-.14-30.38-4.23l-28.04-11.99c-21.5-9.19-35.44-30.32-35.44-53.7v-141.11c0-27.67,19.42-51.54,46.51-57.18l134.32-27.92c10.64-2.21,21.68-1.41,31.88,2.31Z" style="fill: #e2ffff;"/>
          <path d="M1566.81,636.42l74.77,31.02c1.82,.76,3.85,.84,5.73,.24l131.96-42.41c7.47-2.4,7.76-12.85,.44-15.67l-56.76-21.85c-1.53-.59-3.19-.71-4.78-.36l-149.97,33.24c-7.93,1.76-8.89,12.68-1.39,15.79Z" style="fill: #fff;"/>
          <polygon points="1819.88 654.5 1824.46 701.48 1675.36 904.6 1632.39 911.12 1819.88 654.5" style="fill: #fff;"/>
          <polygon points="1831.4 758.46 1836.56 795.56 1762.67 894.28 1724.01 899.59 1831.4 758.46" style="fill: #fff;"/>
          <g>
            <polyline points="1651.43 833.89 1651.43 715.25 1764.87 685.6" style="fill: none; stroke: #0c0d18; stroke-linecap: round; stroke-linejoin: round; stroke-width: 20px;"/>
            <line x1="1651.43" y1="715.25" x2="1556.54" y2="676.24" style="fill: #bfe4ed; stroke: #0c0d18; stroke-linecap: round; stroke-linejoin: round; stroke-width: 20px;"/>
          </g>
        </g>
        <g>
          <path d="M1846.28,888.15l23.44,218.33c3.68,34.29-20.22,65.43-54.3,70.74l-239.09,37.22c-11.42,1.78-23.11,.46-33.84-3.82l-72.82-29c-24.38-9.71-40.47-33.2-40.71-59.44l-1.9-209.05c-.28-30.56,20.89-57.14,50.74-63.69l215.44-47.34c12.61-2.77,25.77-1.7,37.77,3.08l74.93,29.84c22.26,8.86,37.78,29.31,40.34,53.13Z" style="fill: #bfe4ed; stroke: #0c0d18; stroke-linecap: round; stroke-linejoin: round; stroke-width: 20px;"/>
          <path d="M1710.24,846.85l55.91,20.38c21.47,7.83,36.4,27.45,38.22,50.23l13.96,175.39c2.47,31.06-19.88,58.6-50.79,62.56l-191.67,24.56c-10.32,1.32-20.81-.14-30.38-4.23l-38.22-16.34c-21.5-9.19-35.44-30.32-35.44-53.7v-170.72c0-27.67,19.42-51.54,46.51-57.18l160.01-33.27c10.64-2.21,21.68-1.41,31.88,2.31Z" style="fill: #e2ffff;"/>
          <path d="M1528.33,880.46l88.06,36.54c1.82,.76,3.85,.84,5.73,.24l152.47-49c7.47-2.4,7.76-12.85,.44-15.67l-67.34-25.92c-1.53-.59-3.19-.71-4.78-.36l-173.2,38.39c-7.93,1.76-8.89,12.68-1.39,15.79Z" style="fill: #fff;"/>
          <polygon points="1817.56 902.21 1822.75 955.32 1654.2 1184.92 1605.63 1192.29 1817.56 902.21" style="fill: #fff;"/>
          <g>
            <polyline points="1624.27 1102.04 1624.27 969.95 1750.57 936.94" style="fill: none; stroke: #0c0d18; stroke-linecap: round; stroke-linejoin: round; stroke-width: 20px;"/>
            <line x1="1624.27" y1="969.95" x2="1518.62" y2="926.52" style="fill: #bfe4ed; stroke: #0c0d18; stroke-linecap: round; stroke-linejoin: round; stroke-width: 20px;"/>
          </g>
        </g>
      </g>
      <g>
        <g>
          <path d="M622.19,954.52l12.74,266.79c1.68,35.11-24.52,65.34-59.51,68.69l-287.41,27.45c-11.01,1.05-22.1-.87-32.11-5.56l-91.89-43.06c-22.74-10.65-36.77-34-35.52-59.08l12.92-257.63c1.46-29.21,23.19-53.39,52.08-57.97l263.41-41.72c12.21-1.93,24.71-.16,35.9,5.08l93.87,43.98c20.76,9.73,34.43,30.14,35.52,53.04Z" style="fill: #bfe4ed; stroke: #0c0d18; stroke-linecap: round; stroke-linejoin: round; stroke-width: 20px;"/>
          <path d="M447.26,894.25l76.59,27.91c20.82,7.59,35.3,26.62,37.06,48.71l18.01,226.29c2.4,30.12-19.28,56.82-49.25,60.66l-240.9,30.87c-10.01,1.28-20.18-.13-29.46-4.1l-55.56-23.75c-20.85-8.91-34.37-29.4-34.37-52.07v-219.36c0-26.83,18.83-49.98,45.1-55.44l201.86-41.96c10.31-2.14,21.02-1.37,30.92,2.24Z" style="fill: #e2ffff;"/>
          <path d="M232.47,933.6l108.11,44.86c1.69,.7,3.57,.83,5.33,.35l200.43-53.61c7.42-1.99,8.41-12.12,1.5-15.5l-77.53-37.92c-1.64-.8-3.51-1.04-5.3-.68l-231,46.68c-8.04,1.62-9.12,12.68-1.54,15.82Z" style="fill: #fff;"/>
          <polygon points="577.09 951.73 583.2 1014.35 384.44 1285.11 327.16 1293.81 577.09 951.73" style="fill: #fff;"/>
          <polygon points="587.45 1087.3 594.32 1136.76 495.83 1268.35 444.3 1275.44 587.45 1087.3" style="fill: #fff;"/>
          <g>
            <polyline points="312.22 1157.34 324.01 1027.94 437.45 998.29" style="fill: none; stroke: #0c0d18; stroke-linecap: round; stroke-linejoin: round; stroke-width: 20px;"/>
            <line x1="324.01" y1="1027.94" x2="229.12" y2="976.53" style="fill: #bfe4ed; stroke: #0c0d18; stroke-linecap: round; stroke-linejoin: round; stroke-width: 20px;"/>
          </g>
        </g>
        <g>
          <path d="M1054.17,1155.9l33.03,307.71c3.68,34.29-20.22,65.43-54.3,70.74l-328.22,51.1c-11.42,1.78-23.11,.46-33.84-3.82l-109.19-43.48c-24.38-9.71-40.47-33.2-40.71-59.44l-2.68-294.66c-.28-30.56,20.89-57.14,50.74-63.69l295.76-64.99c12.61-2.77,25.77-1.7,37.77,3.08l111.3,44.32c22.26,8.86,37.78,29.31,40.34,53.13Z" style="fill: #bfe4ed; stroke: #0c0d18; stroke-linecap: round; stroke-linejoin: round; stroke-width: 20px;"/>
          <path d="M866.49,1107.03l84.14,30.67c21.47,7.83,36.4,27.45,38.22,50.23l19.61,246.32c2.47,31.06-19.88,58.6-50.79,62.56l-261.12,33.47c-10.32,1.32-20.81-.14-30.38-4.23l-61.56-26.32c-21.5-9.19-35.44-30.32-35.44-53.7v-238.62c0-27.67,19.42-51.54,46.51-57.18l218.93-45.51c10.64-2.21,21.68-1.41,31.88,2.31Z" style="fill: #e2ffff;"/>
          <polyline points="738.35 1413.1 738.35 1240.89 904 1197.85" style="fill: none; stroke: #0c0d18; stroke-linecap: round; stroke-linejoin: round; stroke-width: 20px;"/>
          <line x1="738.35" y1="1240.89" x2="599.77" y2="1184.26" style="fill: #bfe4ed; stroke: #0c0d18; stroke-linecap: round; stroke-linejoin: round; stroke-width: 20px;"/>
          <path d="M618.22,1142.1l118.53,49.18c1.82,.76,3.85,.84,5.73,.24l199.49-64.11c7.47-2.4,7.76-12.85,.44-15.67l-91.57-35.26c-1.53-.59-3.19-.71-4.78-.36l-226.44,50.19c-7.93,1.76-8.89,12.68-1.39,15.79Z" style="fill: #fff;"/>
          <polygon points="1028.37 1155.9 1035.47 1229.34 804.81 1546.88 738.35 1557.08 1028.37 1155.9" style="fill: #fff;"/>
          <polygon points="1038.34 1290.99 1047.53 1357.04 915.77 1532.76 846.82 1542.22 1038.34 1290.99" style="fill: #fff;"/>
        </g>
        <g>
          <path d="M1569.24,1137.24l19.96,185.92c3.68,34.29-20.22,65.43-54.3,70.74l-206.77,32.19c-11.42,1.78-23.11,.46-33.84-3.82l-59.63-23.74c-24.38-9.71-40.47-33.2-40.71-59.44l-1.62-178.01c-.28-30.56,20.89-57.14,50.74-63.69l186.32-40.94c12.61-2.77,25.77-1.7,37.77,3.08l61.74,24.59c22.26,8.86,37.78,29.31,40.34,53.13Z" style="fill: #bfe4ed; stroke: #0c0d18; stroke-linecap: round; stroke-linejoin: round; stroke-width: 20px;"/>
          <path d="M1444.72,1097.69l43.6,15.89c21.47,7.83,36.4,27.45,38.22,50.23l11.5,144.45c2.47,31.06-19.88,58.6-50.79,62.56l-161.38,20.68c-10.32,1.32-20.81-.14-30.38-4.23l-28.04-11.99c-21.5-9.19-35.44-30.32-35.44-53.7v-141.11c0-27.67,19.42-51.54,46.51-57.18l134.32-27.92c10.64-2.21,21.68-1.41,31.88,2.31Z" style="fill: #e2ffff;"/>
          <path d="M1284.8,1127.93l74.77,31.02c1.82,.76,3.85,.84,5.73,.24l131.96-42.41c7.47-2.4,7.76-12.85,.44-15.67l-56.76-21.85c-1.53-.59-3.19-.71-4.78-.36l-149.97,33.24c-7.93,1.76-8.89,12.68-1.39,15.79Z" style="fill: #fff;"/>
          <polygon points="1537.86 1146.01 1542.45 1192.99 1393.34 1396.11 1350.37 1402.63 1537.86 1146.01" style="fill: #fff;"/>
          <polygon points="1549.38 1249.97 1554.54 1287.07 1480.66 1385.79 1442 1391.1 1549.38 1249.97" style="fill: #fff;"/>
          <g>
            <polyline points="1369.42 1325.4 1369.42 1206.76 1482.85 1177.11" style="fill: none; stroke: #0c0d18; stroke-linecap: round; stroke-linejoin: round; stroke-width: 20px;"/>
            <line x1="1369.42" y1="1206.76" x2="1274.52" y2="1167.75" style="fill: #bfe4ed; stroke: #0c0d18; stroke-linecap: round; stroke-linejoin: round; stroke-width: 20px;"/>
          </g>
        </g>
        <g>
          <path d="M611.82,1411l23.44,218.33c3.68,34.29-20.22,65.43-54.3,70.74l-239.09,37.22c-11.42,1.78-23.11,.46-33.84-3.82l-72.82-29c-24.38-9.71-40.47-33.2-40.71-59.44l-1.9-209.05c-.28-30.56,20.89-57.14,50.74-63.69l215.44-47.34c12.61-2.77,25.77-1.7,37.77,3.08l74.93,29.84c22.26,8.86,37.78,29.31,40.34,53.13Z" style="fill: #bfe4ed; stroke: #0c0d18; stroke-linecap: round; stroke-linejoin: round; stroke-width: 20px;"/>
          <path d="M475.78,1369.7l55.91,20.38c21.47,7.83,36.4,27.45,38.22,50.23l13.96,175.39c2.47,31.06-19.88,58.6-50.79,62.56l-191.67,24.56c-10.32,1.32-20.81-.14-30.38-4.23l-38.22-16.34c-21.5-9.19-35.44-30.32-35.44-53.7v-170.72c0-27.67,19.42-51.54,46.51-57.18l160.01-33.27c10.64-2.21,21.68-1.41,31.88,2.31Z" style="fill: #e2ffff;"/>
          <path d="M293.87,1403.3l88.06,36.54c1.82,.76,3.85,.84,5.73,.24l152.47-49c7.47-2.4,7.76-12.85,.44-15.67l-67.34-25.92c-1.53-.59-3.19-.71-4.78-.36l-173.2,38.39c-7.93,1.76-8.89,12.68-1.39,15.79Z" style="fill: #fff;"/>
          <polygon points="583.1 1425.06 588.29 1478.16 419.74 1707.76 371.17 1715.13 583.1 1425.06" style="fill: #fff;"/>
          <g>
            <polyline points="389.81 1624.88 389.81 1492.8 516.1 1459.78" style="fill: none; stroke: #0c0d18; stroke-linecap: round; stroke-linejoin: round; stroke-width: 20px;"/>
            <line x1="389.81" y1="1492.8" x2="284.15" y2="1449.36" style="fill: #bfe4ed; stroke: #0c0d18; stroke-linecap: round; stroke-linejoin: round; stroke-width: 20px;"/>
          </g>
        </g>
        <g>
          <path d="M1799.19,1385.46l12.74,266.79c1.68,35.11-24.52,65.34-59.51,68.69l-287.41,27.45c-11.01,1.05-22.1-.87-32.11-5.56l-91.89-43.06c-22.74-10.65-36.77-34-35.52-59.08l12.92-257.63c1.46-29.21,23.19-53.39,52.08-57.97l263.41-41.72c12.21-1.93,24.71-.16,35.9,5.08l93.87,43.98c20.76,9.73,34.43,30.14,35.52,53.04Z" style="fill: #bfe4ed; stroke: #0c0d18; stroke-linecap: round; stroke-linejoin: round; stroke-width: 20px;"/>
          <path d="M1624.25,1325.18l76.59,27.91c20.82,7.59,35.3,26.62,37.06,48.71l18.01,226.29c2.4,30.12-19.28,56.82-49.25,60.66l-240.9,30.87c-10.01,1.28-20.18-.13-29.46-4.1l-55.56-23.75c-20.85-8.91-34.37-29.4-34.37-52.07v-219.36c0-26.83,18.83-49.98,45.1-55.44l201.86-41.96c10.31-2.14,21.02-1.37,30.92,2.24Z" style="fill: #e2ffff;"/>
          <path d="M1409.46,1364.53l108.11,44.86c1.69,.7,3.57,.83,5.33,.35l200.43-53.61c7.42-1.99,8.41-12.12,1.5-15.5l-77.53-37.92c-1.64-.8-3.51-1.04-5.3-.68l-231,46.68c-8.04,1.62-9.12,12.68-1.54,15.82Z" style="fill: #fff;"/>
          <polygon points="1754.08 1382.66 1760.2 1445.28 1561.43 1716.04 1504.16 1724.74 1754.08 1382.66" style="fill: #fff;"/>
          <polygon points="1764.44 1518.23 1771.32 1567.69 1672.83 1699.28 1621.29 1706.37 1764.44 1518.23" style="fill: #fff;"/>
          <g>
            <polyline points="1489.22 1588.27 1501 1458.87 1614.44 1429.22" style="fill: none; stroke: #0c0d18; stroke-linecap: round; stroke-linejoin: round; stroke-width: 20px;"/>
            <line x1="1501" y1="1458.87" x2="1406.11" y2="1407.46" style="fill: #bfe4ed; stroke: #0c0d18; stroke-linecap: round; stroke-linejoin: round; stroke-width: 20px;"/>
          </g>
        </g>
      </g>
    </g>
  </g>
  <g id="Isolation_Mode" data-name="Isolation Mode"/>
</svg>