<svg id="Layer_1" data-name="Layer 1" xmlns="http://www.w3.org/2000/svg" xmlns:xlink="http://www.w3.org/1999/xlink" width="2000" height="2000" viewBox="0 0 2000 2000"><defs><clipPath id="clip-path"><path d="M386.85,1838.15a77.64,77.64,0,0,1-77.55-77.55V537.78H1690.7V1760.6a77.64,77.64,0,0,1-77.54,77.55Z" style="fill:none"/></clipPath></defs><path d="M1799.32,1760.59V429.16H200.68V1760.59c0,102.82,83.35,186.17,186.17,186.17h1226.3C1716,1946.76,1799.32,1863.41,1799.32,1760.59Z" style="fill:#fff;stroke:#231f20;stroke-linecap:round;stroke-linejoin:round;stroke-width:55px"/><rect x="147.5" y="53.24" width="1705" height="375.92" style="fill:#fff;stroke:#231f20;stroke-linecap:round;stroke-linejoin:round;stroke-width:55px"/><g style="clip-path:url(#clip-path)"><circle cx="225.52" cy="565.69" r="113.14" style="fill:#231f20"/><circle cx="612.76" cy="565.69" r="113.14" style="fill:#231f20"/><circle cx="1000" cy="565.69" r="113.14" style="fill:#231f20"/><circle cx="1387.24" cy="565.69" r="113.14" style="fill:#231f20"/><circle cx="1774.48" cy="565.69" r="113.14" style="fill:#231f20"/><circle cx="31.9" cy="876.83" r="113.14" style="fill:#231f20"/><circle cx="419.14" cy="876.83" r="113.14" style="fill:#231f20"/><circle cx="806.38" cy="876.83" r="113.14" style="fill:#231f20"/><circle cx="1193.62" cy="876.83" r="113.14" style="fill:#231f20"/><circle cx="1580.86" cy="876.83" r="113.14" style="fill:#231f20"/><circle cx="1968.1" cy="876.83" r="113.14" style="fill:#231f20"/><circle cx="225.52" cy="1187.96" r="113.14" style="fill:#231f20"/><circle cx="612.76" cy="1187.96" r="113.14" style="fill:#231f20"/><circle cx="1000" cy="1187.96" r="113.14" style="fill:#231f20"/><circle cx="1387.24" cy="1187.96" r="113.14" style="fill:#231f20"/><circle cx="1774.48" cy="1187.96" r="113.14" style="fill:#231f20"/><circle cx="31.9" cy="1499.1" r="113.14" style="fill:#231f20"/><circle cx="419.14" cy="1499.1" r="113.14" style="fill:#231f20"/><circle cx="806.38" cy="1499.1" r="113.14" style="fill:#231f20"/><circle cx="1193.62" cy="1499.1" r="113.14" style="fill:#231f20"/><circle cx="1580.86" cy="1499.1" r="113.14" style="fill:#231f20"/><circle cx="1968.1" cy="1499.1" r="113.14" style="fill:#231f20"/><circle cx="225.52" cy="1810.24" r="113.14" style="fill:#231f20"/><circle cx="612.76" cy="1810.24" r="113.14" style="fill:#231f20"/><circle cx="1000" cy="1810.24" r="113.14" style="fill:#231f20"/><circle cx="1387.24" cy="1810.24" r="113.14" style="fill:#231f20"/><circle cx="1774.48" cy="1810.24" r="113.14" style="fill:#231f20"/></g></svg>