<svg id="Layer_1" data-name="Layer 1" xmlns="http://www.w3.org/2000/svg" width="2000" height="2000" viewBox="0 0 2000 2000"><path d="M1603,1740.26a149,149,0,0,1-117,165.37c-108.72,23-298.28,49.37-485.94,49.37s-377.23-26.35-485.95-49.37a149,149,0,0,1-117-165.37L545.69,693.34h908.62Z" style="fill:#fff;stroke:#231f20;stroke-linecap:round;stroke-linejoin:round;stroke-width:55"/><path d="M999.17,45C766,45,546.46,142.36,493.92,340.56l26.37,205.07V693.34h957.76V545.63l26.37-205.07C1451.88,142.36,1232.34,45,999.17,45Z" style="fill:#fff;stroke:#231f20;stroke-linecap:round;stroke-linejoin:round;stroke-width:55"/><line x1="493.92" y1="340.56" x2="1504.42" y2="340.56" style="fill:#fff5eb;stroke:#231f20;stroke-linecap:round;stroke-linejoin:round;stroke-width:55"/><circle cx="996" cy="131.45" r="31.2" style="fill:#fff5eb"/><circle cx="792.96" cy="156.4" r="31.2" style="fill:#fff5eb"/><circle cx="1199.03" cy="156.4" r="31.2" style="fill:#fff5eb"/><circle cx="996" cy="131.45" r="31.2" style="fill:#231f20"/><circle cx="792.96" cy="156.4" r="31.2" style="fill:#231f20"/><circle cx="1199.03" cy="156.4" r="31.2" style="fill:#231f20"/><line x1="520.29" y1="545.63" x2="1478.05" y2="545.63" style="fill:none;stroke:#231f20;stroke-linecap:round;stroke-linejoin:round;stroke-width:55"/><path d="M1000,1871.06c-180.11,0-365-25.62-468.56-47.56-33.16-7-55.64-38.71-51.2-72.17l138.32-974h762.88l138.42,974.77c4.35,32.71-18.14,64.41-51.3,71.44C1365,1845.44,1180.11,1871.06,1000,1871.06Z" style="fill:#2d9e48"/></svg>
