<svg id="Layer_1" data-name="Layer 1" xmlns="http://www.w3.org/2000/svg" viewBox="0 0 2000 2000"><g id="layer2"><path id="path852" d="M398.06,674.51c-66.33-70-218.47-56.49-289.12,9.13-63.54,59-80.24,189.94-27.4,258.69,207.13,269.42,595.51,439.44,940.42,432.16,340.65-7.19,734.11-156.09,910-465.64,38.65-68,12.19-191.28-48.7-240.43-68.69-55.45-212.65-60.29-270.86,6.09-131,149.34-378.55,282-599.55,283C787.23,958.63,567.42,853.23,398.06,674.51Z" style="fill:#c65027;stroke:#3a3632;stroke-width:20px"/><path id="path3043" d="M79.44,908.23c188.73,266.71,558.33,441.14,890,445.07,81.89,1,167.71-4.17,252-22.73,185.1-40.77,52.4-92.54,8.34-76.27,0,0-56,64.82-101.25-7.06-11.14-17.72-57-16.47-79.43-1.11-22.79,15.59,46.69,34.07,19.67,50-18.24,10.74-61.63,15.55-69.4,8.39-11.85-10.92-48.66-24.36-57.16-31.33-12.09-9.91-18.94-25.6-20.84-36.6s2.49-37.64-7.42-47c-14-13.28-47.14,16.17-55.22,34.23-10,22.42-3.45,42.54-12.59,46.73-19.7,9-48-14.07-53.3-21.85-12.77-18.8,1.39-44.74.09-71.12-.57-11.4-3.58-48.32-15-52.17s-18.11-13.28-30.37-15.44-20.32-4.77-32.78-5.14-30.78-12.3-39.19-27.24c-6-10.59-18.22-22.69-34.67-28.74-24.14-8.88-38.31-10.64-48.62-15-19.21-8.07-49.85,6-72.35,4.93-23.84-1.11-38.65,18.79-55.24,28.31-28.77,16.52-39.44-.41-55.44-15.9-19.39-18.77-11.25-69.28-38.45-92.93C349.74,940,313.33,912,287.48,923.67s-37.55-49.82-64.4-40.65-60.87-5.88-88.4-11.09c-38.32-7.27-82.38-2-55.24,36.3Z" style="fill:#a43f23"/><path id="path3045" d="M292.4,666C181.59,697.38,238,773.21,240.74,791.3c2.2,21.59,30.39,45.73,56,53.23,36.12,10.57,92.41,18.28,92.41,18.28,27.2.36,68.79,53.48,88.54,68.11s15.43,19.66,55.21,38.21c25,11.64,40-2.83,61.24,14.82,25.24,20.95,28.7,33.5,68.53,23.38,32.64-8.29,77.8,50,113.64,56.46s66,3.7,104.5,8.62c56.62,7.24,35,21.5,75.74,24.32s31.88-13.72,77.9-20.51c41.6-6.15,56.63,6.71,100.18,6.23s40.6-33.47,84.77-35.49,45.18,4.58,89.45,1.1,37.88,8.18,81.72,3.32,55.2-5.1,86.89-27.13c39.28-27.3,43.38-34.63,76-54.69,37.8-23.24,32.2-65,63.59-84.41,56.81-35.15,19.91-8.5,56.81-18.1s43.28-71.5,75.78-58.84c0,0,40.76-19,56.6-46.36,21.07-47.29-21.61-91.76-140.85-61.73-19.43,16.21-1.29,50.69-24.72,66.25s-37.28,29.24-64,43.76-26.11,52.21-55.52,65.31-60,45.07-91.43,56.34-92.56-4.87-125.32,4.2-48,49.84-81.39,56.32-59.8,19.48-93.24,23-92,2.75-124.79,2.87c-33.47.11-70.17-11.31-103.6,1.36-43.46,16.47-80.53-17.39-113.16-22.83s-46.87-28.06-78.77-36.1-67-47.35-97.93-57.89-57.77-26.4-87.58-39.32-60-45.24-88.46-60.43-45.34-31.5-72.24-48.85S317.52,685.43,292.4,666Z" style="fill:#d18a30"/><path id="path3047" d="M1444.48,1267.21c60.82-17.2,120.34-44.13,176.81-78.62s109.87-76.53,158.43-123.95a963.08,963.08,0,0,0,129.42-156.23c22.57-72.86-26.94-76.12-84-92-27.81-7.77-33.52,23.85-23.34,50.07-57.78,47.28-11.52,54.28-21.36,85.48-12.71,15.31-35.06,15.22-66.72,32.29-14.19,7.65-41-14-60.29-4.56-16.57,8.16,3.73,33,6.39,47.6,4.62,25.26-10.49,28.67-25.91,36.33-18.7,9.3-28.2,8.46-52.47,22.2-18.79,10.63-32.42,23.91-30.6,45.77s-17.56,31.13-54.52,47.51c-20.07,8.89-53.14,19.76-64,38.49-9.46,42.11-19.74,57.61,12.21,49.67Z" style="fill:#a43f23"/></g></svg>