<svg id="Layer_1" data-name="Layer 1" xmlns="http://www.w3.org/2000/svg" width="1146" height="2000" viewBox="0 0 1146 2000">
  <g>
    <g id="layer2">
      <path id="path863" d="M1059.56,1950.69c-81,83.82-365.79-28.15-633.34-332C104.34,1253-60.88,694.88,121.79,592.13,209.21,543,327.27,489.52,327.27,489.52s130.64-32.65,225.6-49.69c199.28-35.76,224,420.6,355,862.16C1028.56,1709.14,1140.57,1866.86,1059.56,1950.69Z" style="fill: #009b4e"/>
      <path id="path863-2" data-name="path863" d="M1059.56,1950.69c-81,83.82-365.79-28.15-633.34-332C104.34,1253-60.88,694.88,121.79,592.13,209.21,543,327.27,489.52,327.27,489.52s130.64-32.65,225.6-49.69c199.28-35.76,224,420.6,355,862.16C1028.56,1709.14,1140.57,1866.86,1059.56,1950.69Z" style="fill: none;stroke: #3a3632;stroke-linecap: round;stroke-linejoin: round;stroke-width: 22.1524369263235px;isolation: isolate;opacity: 0.986000001430512"/>
      <path id="path863-3" data-name="path863" d="M1059.56,1950.69c-81,83.82-365.79-28.15-633.34-332C104.34,1253-60.88,694.88,121.79,592.13,209.21,543,327.27,489.52,327.27,489.52s130.64-32.65,225.6-49.69c199.28-35.76,224,420.6,355,862.16C1028.56,1709.14,1140.57,1866.86,1059.56,1950.69Z" style="fill: none;stroke: #3a3632;stroke-linecap: round;stroke-width: 22.9263402394123px"/>
    </g>
    <g id="layer2-2" data-name="layer2">
      <path id="path863-4" data-name="path863" d="M791.79,1573.92c-13.14,39.07-258.4-53.86-427.18-262.52-203.07-251-323.07-677-202.21-752.54C220.24,522.72,298.12,483,298.12,483s80.34,1.81,142.51-11.88c110.47-24.73,143.67,264.31,221,572.16C732.86,1327.17,806.1,1531.4,791.79,1573.92Z" style="fill: #55ab54"/>
    </g>
    <circle cx="272.5" cy="802.76" r="104.7" style="fill: #fff"/>
    <circle cx="558.35" cy="871.41" r="68.63" style="fill: #6dcc6a"/>
    <path id="path915" d="M365.5,382.53c-40-57.17-40.44-255.46-54.73-305.07-13.82-48-38.7-65.39-100.64-54.18-59.21,10.88-94.69,33.39-103.27,76.92S236.09,366.74,232.94,434.45,83.62,547.62,81.53,598.57c20.74-1.79,67.61-6.91,129.93,13.56C283,558,453.85,500,512.87,507.73c0,0,37.84-51.57,81.62-83.32C556.34,379.71,405.46,439.7,365.5,382.53Z" style="fill: #1f8441"/>
  </g>
</svg>
