<?xml version="1.0" encoding="UTF-8"?>
<svg id="Layer_1" data-name="Layer 1" xmlns="http://www.w3.org/2000/svg" width="2000" height="2000" xmlns:xlink="http://www.w3.org/1999/xlink" viewBox="0 0 2000 2000">
  <defs>
    <radialGradient id="radial-gradient" cx="972.3" cy="1090.71" fx="972.3" fy="1090.71" r="712.44" gradientTransform="translate(56.09 114.09) scale(1.02 .94) skewX(-2.75)" gradientUnits="userSpaceOnUse">
      <stop offset="0" stop-color="#b2e57f"/>
      <stop offset="1" stop-color="#b1e57f"/>
    </radialGradient>
  </defs>
  <path d="M836.75,1887.37c-15.67-87.9-64.63-121.94-150.92-125.19-89.71-3.38-179.07-15.95-266.24-37.44-9.1-2.24-18.41-4.69-26.03-10.14-22.23-15.9-21.08-49.7-11.3-75.23s25.97-49.69,26.44-77.02c.69-39.53-31.04-71.16-60.4-97.64-40.36-36.4-80.73-72.81-121.09-109.21-41.43-37.37-85.84-80.64-89.24-136.33-5.14-84.35,84.15-143.85,107.72-225,26.67-91.82-32.83-203.38,23.76-280.44,30.66-41.75,86.14-57.33,122.63-94.09,40.25-40.55,51.89-100.36,67.69-155.26,15.8-54.91,43-113.79,96.46-133.95,23.23-8.76,48.69-8.95,73.03-13.83,123.74-24.8,190.44-158.54,295.21-228.89,17-11.42,36.07-21.45,56.55-21.59,31.57-.22,58.6,23.02,76.87,48.76,18.27,25.74,31.23,55.35,52.61,78.58,39.99,43.46,101.67,57.33,158.22,74.34,56.55,17.01,117.27,44.67,138.99,99.59,22.64,57.25-5.38,124.72,15.57,182.6,28.5,78.74,127.41,100.24,194.76,150.01,75.52,55.81,112.91,158.57,90.92,249.85-13.78,57.18-48.57,110.29-46.83,169.08,1.52,51.4,30.72,97.12,52.38,143.76,19.45,41.9,33.44,87.58,30.59,133.69-2.86,46.1-24.75,92.7-64.09,116.92-47.33,29.14-119.56,29.33-140.46,80.83-8.25,20.33-5.22,43.5-10.77,64.73-10.5,40.15-50.3,66.69-90.72,76.07-40.42,9.38-82.55,5.36-124.05,5.75-118.9,1.12-292.08-5-303.46,146.72h-174.79Z" style="fill: #82c14c; stroke: #3a3632; stroke-linecap: round; stroke-linejoin: round; stroke-width: 20px;"/>
  <path d="M850.97,1875.02c-11.06-112.62-130.76-264.74-251.54-283.38-35.97-5.55-79.41-8.22-96.08-37.63-13.22-23.32-2.42-52.39-1.79-79.23,1.28-54.28-39.81-99.45-83.38-134.1-30.69-24.41-65.97-49.64-72.62-87.06-6.51-36.68,16.68-72.74,33.58-107.56,21.03-43.34,33.23-89.98,35.73-136.64,1.98-36.99-.71-77.78,24.98-107.34,18.84-21.68,48.74-31.9,73.02-48.36,96.75-65.61,85.35-211.91,179.49-280.74,52.9-38.68,128.67-43.83,176.65-87.66,28.21-25.77,45.47-63.8,81.68-78.3,39.13-15.66,82.51,3.56,114.56,27.04,72.9,53.37,123.9,130.56,204.19,174.42,33.47,18.28,71.91,30.72,98.5,56.73,43.35,42.4,45.21,110.77,85.84,155.43,37.3,41,106.22,61.93,115.85,115.5,6.43,35.75-17.49,70.66-30.38,105.77-18.18,49.49-14.06,104.68,11.16,149.53,16.26,28.91,40.57,53.24,56.85,82.14,41.8,74.2,14.22,183.37-69.92,222.86-49.15,23.07-109.2,21.1-154.52,50.34-47.62,30.73-70.45,90.86-123.98,110.97-37.3,14.01-78.36,4.07-118.01,5.55-94.43,3.52-130.61,124.84-135.39,211.72h-154.47Z" style="fill: url(#radial-gradient); opacity: .5;"/>
  <g>
    <path d="M1555.7,1261.16c-51.06,.73-90.51,37.39-126.19,70.11-31.97,29.52-63.25,61.38-102.39,82.51-24.2,13.64-54.61,20.33-81.06,22.65-25.78,2.69-48.65,3.06-72.39,8.63-51.86,12.25-92.64,50.86-124.72,92.03-41.19,50.9-71.3,110.02-100.26,168.68l-62.22-32.07c16.55-30.36,33.43-60.6,51.81-90.09,23.82-37.39,48.84-74.76,79.81-106.98,32.47-33.67,71.55-63.28,116.9-77.46,18.06-5.85,37.94-8.74,56.59-9.54,33.5-1.75,65.77,1.99,96.9-5.47,29.86-7.36,57.53-25.22,83.21-43.4,54-37.11,112.7-94.81,184.43-85.9l-.43,6.31h0Z" style="fill: #82c14c;"/>
    <path d="M1444.34,811.55c-33.16,93.99-149.06,111.74-207.05,182.71-8.49,10.46-15.89,21.99-23.26,33.64-7.98,12.62-15.9,25.33-25.15,37.55-33.88,46.8-90.49,70.65-138.96,98.07-19.93,11.84-39.22,26.21-55.91,41.95-16.24,15.5-33.37,35.64-37.22,56.32l-58.74-12.21c2.22-9.91,5.74-18.98,9.89-27.23,32.52-61.64,103.47-103.43,164.32-131.16,38.71-17.97,68.2-35.5,93.73-70.47,13.07-16.87,26.61-36.46,42.29-52.49,26.82-27.87,61.87-45.92,96.26-61.52,32.47-14.84,65.47-28.07,93.89-49.83,11.04-8.58,21.09-18.42,29.49-29.65,4.2-5.65,8.03-11.62,11.46-17.88l4.95,2.21h0Z" style="fill: #82c14c;"/>
    <path d="M1295.34,555.14c11.9,85.31-48.04,158.8-62.65,239.37-8.82,47.69,4.75,96.44-.57,145.87-2.85,23.85-6.92,46.45-14.22,69.94-7.05,22.45-18.95,44.26-34.28,62.38-10.74,12.74-23.08,24.18-36.18,34.36l-29.84-40.12c31.3-21.9,52.05-49.19,61.37-86.63,2.79-10.91,4.61-22.12,6.96-33.38,3.61-16.25,4.93-32.04,5.15-49.18,.23-55.81-2.17-92.99,20.99-146.5,23.22-55.4,61.32-102.38,74.65-161.05,2.56-11.34,3.95-22.98,4.12-34.75l4.5-.3h0Z" style="fill: #82c14c;"/>
    <path d="M377.47,984.45c14.67,58.95,95.86,140.3,149.17,168.34,24.58,11.36,48.47,21.49,71.97,36.42,16.16,10.29,31.44,22.54,44.2,37.22,13.04,14.78,23.51,32.42,30.83,50.68,8.12,19.2,13.15,39.04,24.01,55.85,9.56,14.29,24.12,20.48,40.49,27.24,7.51,3.06,15.39,5.98,23.55,8.96,29.91,10.79,64.97,23.78,90.05,46.43,11.67,10.17,21.98,21.7,31.31,34.11,18.29,24.08,29.93,53.52,37.09,82.45,4.62,18.4,8.11,36.27,11.22,53.92l-65.68,10.19c-3.38-24.83-6.82-48.62-14-71.8-5.92-19.46-15.55-36.7-28.74-52.03-27.06-31.69-69.57-43.8-107.14-61.85-19.07-8.91-38.31-20.15-51.86-37.02-21.65-26.18-25.62-61.44-37.05-91.59-9.76-25.39-27.69-46.47-49.13-63.17-18.62-14.87-43.58-29.11-64.61-41.76-23.56-14.76-43.32-33.87-61.99-53.75-29.87-33.07-57.27-69.54-72.99-111.59-3.04-8.45-5.39-17.21-6.59-26.18l5.9-1.09h0Z" style="fill: #82c14c;"/>
    <path d="M583.78,540.6c-5.35,41.38,12.61,81.01,33.58,115.64,7.3,11.9,15.15,23.75,22.5,35.82,26.3,43.11,39.01,77.13,36.97,128.52-.09,20.12-.83,36.46,6.71,53.04,4.43,9.29,10.91,15.8,19.62,21.59,16.37,10.51,35.57,16.26,53.8,24.77,21.11,9.87,40.88,21.68,58.97,36.13,17.75,14.54,34.52,30.21,49.53,47.61,20.03,23.16,37.17,49.08,50.48,77.27l-54.85,24.31c-11.92-29.15-29.97-56.62-51.43-80.19-12.81-14.47-27.86-26.83-43.22-38.4-15.95-12.1-31.97-21.05-50.21-29.48-42.07-19.17-74.34-43.04-79.83-92.5-3.35-29.03,4.76-56.61,2.67-85.08-1.87-25.98-11.56-50.98-22.75-74.98-5.89-12.79-12.23-25.27-18.23-38.2-15.06-32.79-26.89-68.99-23.62-105.57,.69-7.26,2.02-14.45,4-21.4l5.3,1.12h0Z" style="fill: #82c14c;"/>
    <path d="M794.63,320.23c12.2,25.38,13.39,54.59,18.33,81.7,3.06,16.77,7.46,32.43,17.42,46.05,10.09,13.82,23.3,24.64,36.39,36.66,6.95,6.39,13.81,12.9,20.49,19.6,19.86,20.22,39.19,41.29,55.78,64.34,4.91,6.7,12.51,16.55,16.96,23.53,19.6,30.51,30.81,64.65,35.92,100.13,.69,5.08,1.25,10.18,1.58,15.61l-49.95,2.3c-.58-16.17-3.46-32.73-7.91-48.34-5.15-17.93-12.51-34.7-22.52-49.9-4.76-7.47-9.68-15.13-14.98-22.19-2.46-3.3-9.16-12.87-11.61-16.4-20.98-29.99-44.13-56.97-68.03-84.95-21.58-26.29-29.68-50.66-29.73-84.57-.3-23.2,2.57-45.8-.07-68.73-.53-4.46-1.29-8.9-2.31-13.31l4.25-1.53h0Z" style="fill: #82c14c;"/>
    <path d="M393.22,1255.96c47.83,27.93,101.79,40.56,154.97,53.56,38.27,9.1,78.3,18.12,116.13,29.14,6.83,1.93,16.44,5.49,23.2,7.81,5.37,1.78,12.19,4.19,17.51,6.14,17.74,6.63,34.97,13.95,52.26,23.3l-25.4,43.07c-18.2-11.68-39.58-21.41-60.1-29.63-22-7.99-43.65-16.15-65.96-23.83-37.14-13.13-76.21-26.6-112.18-42.55-31.39-14.05-62.4-30.01-89.4-51.54-4.45-3.52-9.59-8.03-13.76-11.89l2.73-3.6h0Z" style="fill: #82c14c;"/>
  </g>
  <g>
    <path d="M856.42,1388.77c-5.37-203.41-.22-396.99,62-586.63,41.84-127.52,47.27-289.59,50.1-424.09,2.42-115.14-.81-173.11,22.23-242.35,26.08,102.25,23.41,266.67,27.48,400.43,1.9,62.59,13.3,137.6,2.8,199.28-11.02,64.69-33.63,126.72-46.72,191-32.31,158.62-5.58,322.7,1.45,484.63,6.44,148.18,24.26,463.99,24.26,463.99h-153.2s14.67-294.69,9.61-486.25Z" style="fill: #c3ef95;"/>
    <path d="M1555.73,1260.91c-31.6,.52-60.88,14.07-86.7,31.58-54.82,37.06-100.1,89.13-164.73,111.05-16.92,5.62-34.65,8.67-52.05,10.53-31.84,3.51-61.48,3.11-91.52,11.68-56.47,15.87-100.06,59.06-136.78,104.06-28.77,36.85-53.25,77.07-76.34,117.91l-60.07-35.94c17.69-27.95,35.75-55.77,55.45-82.6,30.78-41.28,64.03-81.66,106.63-111.79,29.09-21.04,62.78-37.51,98.27-44.83,47.6-10.68,98.22,.28,144.79-9.77,14.19-3.18,28.04-8.48,41.37-14.85,71.09-32.88,137.15-103.27,222.05-93.33l-.37,6.31h0Z" style="fill: #c3ef95;"/>
    <path d="M1444.28,811.68c-39.02,90.83-162.6,99.33-218.93,174.96-12.16,15.51-24.19,34.2-37.96,49.91-34.68,40.76-86.71,60.42-132.96,83-21.18,10.3-41.78,23.52-59.94,38.15-13.53,11.22-25.67,22.73-33.65,37.22-2.2,4.1-3.58,7.96-4.22,11.22l-58.37-13.9c2.58-10.08,6.66-18.95,11.3-26.72,34.21-55.07,106.53-90.85,164.41-113.68,26.45-10.95,51.87-21.89,73.25-40.6,17.7-15.56,30.44-33.42,47.3-51.25,9.98-10.82,21.82-21.31,34.07-29.63,23.65-16.31,50.67-27.63,77.03-37.91,38.14-15.04,76.44-27.15,107.77-53.27,10.2-8.53,19-18.63,26.07-29.97l4.82,2.47h0Z" style="fill: #c3ef95;"/>
    <path d="M1295.29,550.08c12.13,85.11-56.62,153.85-73.78,232.67-6.13,26.9-2.93,55.09-.95,82.67,1.39,20.49,2.2,40.88-.94,61.95-7.1,44.71-18.99,86.51-51.29,120.38-13.42,14.38-29.22,26.87-45.37,37.51l-26.63-42.32c37.86-22.4,63.24-50.7,72.84-94.54,2.12-9,4.54-19.56,6.67-28.78,3.56-16.68,3.81-34.97,3.68-52.63-.74-49.49,.33-82.46,23.14-128.1,30.28-63.16,87.05-115.25,88.14-188.46l4.5-.35h0Z" style="fill: #c3ef95;"/>
    <path d="M377.46,976.14c15.17,52.97,82.89,113.32,128.84,142.25,8.72,5.38,16.81,9.74,26.02,13.34l5.8,2.36c11.85,4.82,23.46,9.69,35.2,15.17,24.46,11.38,48.49,25.7,67.55,45.31,13.38,13.48,24.49,30.11,32.16,47.49,8.36,17.92,13.36,36.62,24.39,51.9,9.72,12.76,24.19,18.03,39.75,23.93,24.06,8.89,47.18,15.05,72.18,25.97,20.46,8.71,39.31,21.05,55.35,36.85,12.36,12.03,23.41,25.17,32.38,40.19,19.17,31.72,27.26,70.22,34.21,105.53l-65.53,11.1c-1.17-8.02-2.4-15.95-3.77-23.71-6.41-35.95-14.27-63.63-40.36-90.3-6.87-7.17-14.94-12.88-23.46-18.02-18.24-11.12-36.4-18.14-57.68-26.61-31.11-12.45-66.41-25.81-85.21-56.59-12.35-19.47-17.47-42.46-24.6-62.98-2.42-6.9-5.12-13.16-8.59-19.45-10.54-19.4-26.77-35.02-44.78-47.95-18.38-13.41-42.55-26.2-63.02-37.62-23.06-13.15-42.75-30.5-61.42-48.66-29.9-30.26-57.82-63.81-74.3-103.42-3.18-7.99-5.7-16.31-6.97-24.9l5.88-1.18h0Z" style="fill: #c3ef95;"/>
    <path d="M583.24,530.09c-6.3,39.75,14.77,76.93,37.23,108.18,25.22,34.18,53.63,69.18,60.02,113.27,3.19,20.28,.14,41.96,1.92,61.75,2.23,29.13,23.47,43.04,49.33,53.83,17.52,7.45,39.44,14.39,57.63,23.43,33.59,16.07,62.89,39.94,88.43,66.76,20.25,21.59,37.61,45.81,51.91,71.76l-53.25,27.64c-16.06-33.21-38.73-63.43-66.42-87.86-16.45-13.74-34.08-26.02-53.08-35.89-35.68-17.53-79.65-31.22-102.03-67.95-13.93-21.96-15.4-47.58-12.6-72.11,1.46-14.06,3.19-26.4,2.62-37.67-1.02-24.44-11.32-47.87-23.16-69.84-12.75-23.85-28.32-47.55-37.79-73.44-9.9-26.11-15.01-56.13-6.02-83.16l5.26,1.3h0Z" style="fill: #c3ef95;"/>
    <path d="M794.58,307.34c17.4,31.1,12.88,69.93,26.88,101.81,6.66,14.57,17.6,24.81,30.2,34.94,28.53,21.74,56.99,45.4,82.05,71.42,9.84,9.67,18.49,20.42,27.53,30.82,30.15,33.99,47.71,77.63,51.57,122.65l-49.93,2.67c-.12-3.45-.44-7.27-.92-11.07-3.39-26.78-13.29-53.49-29.07-75.23-3.51-4.77-7.81-10.5-11.43-15.2-2.51-3.31-9.62-11.58-12.42-14.91-7.91-9.84-16.73-20.38-25.08-29.75-11.56-12.94-23.38-25.67-35.64-37.98-12.92-13.1-27.14-25.93-37.73-42.05-11.47-16.78-16.28-37.37-16.7-57.09-.71-18.23,1.27-35.78,.4-53.65-.41-8.68-1.49-17.27-3.88-25.66l4.16-1.74h0Z" style="fill: #c3ef95;"/>
    <path d="M392.87,1255.52c42.93,15.24,87.89,21.65,132.74,27.98,46.79,6.6,95.27,12.35,141.75,21.14,13.13,3.09,26.91,5.92,40.03,9.13,15.35,3.76,30.76,8.09,46.34,13.52l-18.28,46.54c-15.98-7.01-33.86-12.85-51.14-17.87-6.84-2.02-14.59-4.17-21.55-5.69-39.58-10.09-81.74-20.42-121.31-31.14-39.06-10.83-78.04-22.99-114.92-40.01-8.7-4.11-17.54-8.57-25.82-13.46-3.36-1.92-6.62-4.07-9.89-6.11l2.04-4.03h0Z" style="fill: #c3ef95;"/>
  </g>
  <g>
    <path d="M1629.35,1127.34c-17.92-11.09-28.89-30.26-34.11-50.37-7.68-31.09-.74-65.46,18.25-91.34,8.34-11.6,19.45-20.45,30.14-28.94,6.36-5.24,12.21-11.15,17.73-17.76,3.01-3.52,5.84-7.37,9.07-11.59,6.96,14.58,6.28,31.68,1.11,46.8-3.91,11.46-10.26,21.28-15.3,31.55-4.01,8.17-7.51,16.54-10.6,25.09-7.69,22.14-12.16,44.43-14.54,68.23-.84,9.38-1.12,18.47-1.74,28.34h0Z" style="fill: #73aa39;"/>
    <path d="M1496.47,1604.06c-16.75-26.52-17.09-62.87,1.77-88.69,18.96-26.47,52.94-35.22,83.43-33.54,1.31-.02,2.65,.25,3.93,.09l3.83-.46c17.02-2.03,35.86-3.79,52.46-7.47,4.82-1.12,9.61-2.39,14.17-4.28,4.6-1.84,9.02-4.25,12.92-7.96-.64,2.62-1.79,5.17-3.23,7.58-10.57,16.37-29.59,25.79-46.44,33.88-7.04,3.26-14.92,6.46-22.14,9.29l-3.7,1.41c-1.24,.46-2.4,1.33-3.6,1.92-16.76,9.38-32.03,14.24-46.98,24.35-21.72,14.56-31.57,42.4-46.42,63.87h0Z" style="fill: #73aa39;"/>
    <path d="M441.37,1591.43c-5.63-30.04-6.23-63.11-21.91-89.42-7.81-12.69-16.51-24.39-27.37-34.5-12.96-12.44-28.93-22.72-42.46-35.98-3.79-3.76-7.48-7.79-10.59-12.53,5.62-.65,10.84-.97,16.02-1.18,44.89-2.55,84.04,14.76,104.89,56.17,4.06,8.13,7.33,16.81,8.97,25.75,6.06,32.63-4.97,67.69-27.54,91.69h0Z" style="fill: #73aa39;"/>
    <path d="M1388.32,500.66c7.52,29.63,10.21,62.59,27.53,87.86,8.6,12.17,18.02,23.3,29.5,32.69,13.72,11.59,30.31,20.84,44.65,33.22,4.02,3.51,7.96,7.3,11.37,11.83-5.57,1.01-10.76,1.66-15.91,2.19-44.64,5.39-84.8-9.41-108.24-49.42-4.57-7.86-8.38-16.31-10.58-25.13-8.12-32.18,.67-67.87,21.69-93.25h0Z" style="fill: #73aa39;"/>
    <path d="M257.62,1037.2c1.65-10.34,4.48-20.91,6.58-30.93,5.79-25.9,7.44-49.65,5.76-75.72-.73-12.26-2.2-27.44-3.3-40.19-.05-.53-.05-1.28-.21-1.91-1.13-5.15-1.51-10.5-1.65-15.59-.19-17.49,2-34.76,7.57-51.34,1.38-3.8,2.92-7.61,5.15-10.99,1.05,5.23,2.58,10.04,4.07,14.88,4.5,13.81,9.42,28.41,14.66,41.47,1.62,4.07,3.31,7.79,5.61,11.35,8.71,14.32,14.48,29.89,17.19,46.74,4.6,28.81-1.86,60.24-20.4,83.15-10.67,13.3-24.78,23.84-41.03,29.08h0Z" style="fill: #73aa39;"/>
    <path d="M427.91,627.92c5.42-20.26,16.96-40.84,22.96-60.03,4.33-12.81,6.7-27.4,9.13-40.63,2.93-16.23,7.34-32.64,13.28-47.89,1.71-4.41,3.66-9.08,5.6-13.4,7.15-17.2,16.48-32.97,29.43-46.7,8.28-8.36,18.76-17.29,31.08-17.93-3.66,4.31-5.84,9-7.75,14.13-3.51,9.68-5.63,19.7-7.59,29.77-2.11,11.17-4.04,22.5-5.29,33.72-1.92,16.98-4.93,33.96-8.25,50.52-1.99,9.67-4.45,19.84-7.88,29.25-12.36,34.41-40.66,57.85-74.72,69.2h0Z" style="fill: #73aa39;"/>
  </g>
</svg>