<svg id="Layer_1" data-name="Layer 1" xmlns="http://www.w3.org/2000/svg" viewBox="0 0 1247.75 2000"><path d="M791.92,840.26V568.19H420.57V840.26l-5.14,2.67C200.74,954.62,60.13,1188.81,92.07,1428.7l45.55,342.12A207.09,207.09,0,0,0,342.9,1950.58H845.14a207.09,207.09,0,0,0,205.28-179.76L1097,1421.3c31.46-236.23-95.57-467.37-305-581Z" style="fill:#62bd6c;stroke:#3a3632;stroke-linejoin:round;stroke-width:20px"/><rect x="369.79" y="445.88" width="463.46" height="318.98" style="fill:#f6d11e;stroke:#3a3632;stroke-linecap:round;stroke-linejoin:round;stroke-width:20px"/><path d="M782.61,220.79h463.46a0,0,0,0,1,0,0v54.6a47.27,47.27,0,0,1-47.27,47.27H829.88a47.27,47.27,0,0,1-47.27-47.27v-54.6a0,0,0,0,1,0,0Z" transform="translate(226.25 965.72) rotate(-56.36)" style="fill:#f6d11e;stroke:#3a3632;stroke-linecap:round;stroke-linejoin:round;stroke-width:20px"/><rect x="544.3" y="393.35" width="114.46" height="43.1" style="fill:#f6d11e;stroke:#3a3632;stroke-linecap:round;stroke-linejoin:round;stroke-width:20px"/><line x1="447.04" y1="498.84" x2="447.04" y2="712.93" style="fill:none;stroke:#3a3632;stroke-linecap:round;stroke-linejoin:round;stroke-width:10px"/><line x1="524.28" y1="498.84" x2="524.28" y2="712.93" style="fill:none;stroke:#3a3632;stroke-linecap:round;stroke-linejoin:round;stroke-width:10px"/><line x1="601.52" y1="498.84" x2="601.52" y2="712.93" style="fill:none;stroke:#3a3632;stroke-linecap:round;stroke-linejoin:round;stroke-width:10px"/><line x1="678.77" y1="498.84" x2="678.77" y2="712.93" style="fill:none;stroke:#3a3632;stroke-linecap:round;stroke-linejoin:round;stroke-width:10px"/><line x1="756.01" y1="498.84" x2="756.01" y2="712.93" style="fill:none;stroke:#3a3632;stroke-linecap:round;stroke-linejoin:round;stroke-width:10px"/><path d="M344.56,1685.77c-36.52-36.51,4.4-113.66-5.94-144.56-42.94-128.34-13.43-228.2,66.32-308s179.62-109.26,308-66.32c30.9,10.34,108.05-30.58,144.56,5.94s-4.4,113.67,5.94,144.56c42.94,128.34,13.44,228.2-66.32,308s-179.62,109.26-308,66.32C458.23,1681.37,381.07,1722.29,344.56,1685.77Z" style="fill:#62bd6c;stroke:#fff;stroke-miterlimit:10;stroke-width:20px"/></svg>