<svg id="Layer_1" data-name="Layer 1" xmlns="http://www.w3.org/2000/svg" viewBox="0 0 2000 2000"><path d="M105.07,983.22l1449.11,464.56a77.45,77.45,0,0,0,92.78-38.85l244.72-484.88a52.47,52.47,0,0,0-32.91-74.22L731.15,539.49a82.32,82.32,0,0,0-66.32,10.07L96,914.09C68.6,931.67,74,973.27,105.07,983.22Z" style="fill:#ead39a;stroke:#3a3632;stroke-linecap:round;stroke-linejoin:round;stroke-width:20px"/><path d="M849.32,584.74c4.46-19.33,6.23-26.06,3.72-38-17.84-84.68-140.76-72.46-177.18-15.22" style="fill:#ead39a;stroke:#3a3632;stroke-linecap:round;stroke-linejoin:round;stroke-width:10px"/><path d="M994.76,622.35c4.46-19.32,2.85-25.37.34-37.27-17.84-84.68-154.61-78-192.56-.34" style="fill:#ead39a;stroke:#3a3632;stroke-linecap:round;stroke-linejoin:round;stroke-width:10px"/><path d="M1133.61,658.47c4.46-19.33,2.86-25.37.35-37.27-17.84-84.68-154.62-78-192.57-.34" style="fill:#ead39a;stroke:#3a3632;stroke-linecap:round;stroke-linejoin:round;stroke-width:10px"/><path d="M1272.47,694.59c4.46-19.33,2.85-25.37.34-37.28-17.84-84.67-154.61-78-192.56-.33" style="fill:#ead39a;stroke:#3a3632;stroke-linecap:round;stroke-linejoin:round;stroke-width:10px"/><path d="M1411.32,730.71c4.46-19.33,2.86-25.37.35-37.28-17.84-84.67-154.62-78-192.57-.33" style="fill:#ead39a;stroke:#3a3632;stroke-linecap:round;stroke-linejoin:round;stroke-width:10px"/><path d="M1545.36,771.55c4.46-19.33,2.86-25.37.35-37.28-17.84-84.67-154.62-78-192.57-.33" style="fill:#ead39a;stroke:#3a3632;stroke-linecap:round;stroke-linejoin:round;stroke-width:10px"/><path d="M1692.24,808.47c4.46-19.32,2.86-25.37.35-37.27-17.84-84.68-154.62-78-192.57-.34" style="fill:#ead39a;stroke:#3a3632;stroke-linecap:round;stroke-linejoin:round;stroke-width:10px"/><path d="M1814.45,857.63c4.46-19.33,4.25-32,1.74-43.91-17.84-84.67-140.75-72.45-177.18-15.21" style="fill:#ead39a;stroke:#3a3632;stroke-linecap:round;stroke-linejoin:round;stroke-width:10px"/><path d="M1750.91,835.12c42.91-33.3,146.42-57.59,179.13,7.57,39.46,78.62-52.2,103-70.1,102.38" style="fill:#ead39a;stroke:#3a3632;stroke-linecap:round;stroke-linejoin:round;stroke-width:20px"/><path d="M1799.31,1053c88.51,11.3,115.57-48.75,122.13-84.25s-7.7-78-58.44-68.12" style="fill:#ead39a;stroke:#3a3632;stroke-linecap:round;stroke-linejoin:round;stroke-width:20px"/><path d="M1751.45,1152.21c88.51,11.3,115.57-48.75,122.14-84.25s-15.17-82.51-65.91-72.61" style="fill:#ead39a;stroke:#3a3632;stroke-linecap:round;stroke-linejoin:round;stroke-width:20px"/><path d="M1700.45,1255.34c88.51,11.31,115.57-48.75,122.14-84.24s-16.71-78-67.45-68.13" style="fill:#ead39a;stroke:#3a3632;stroke-linecap:round;stroke-linejoin:round;stroke-width:20px"/><path d="M751.69,554.66c-7.09-24.74-29-44.07-54.1-49.95-28.37-6.66-117.16-.8-103.11,80" style="fill:#ead39a;stroke:#3a3632;stroke-linecap:round;stroke-linejoin:round;stroke-width:20px"/><path d="M659.17,571c-7.18-6.31-16.68-9.19-25.91-11.67-22.75-6.11-46.49-10.88-69.75-7.18s-46.13,17.39-55.11,39.16c-10.29,24.93-10.85,47.89,13.46,59.57" style="fill:#ead39a;stroke:#3a3632;stroke-linecap:round;stroke-linejoin:round;stroke-width:20px"/><path d="M561.64,642.5c-7.18-6.31-16.68-9.19-25.91-11.67C513,624.72,489.24,620,466,623.65S419.85,641,410.87,662.81c-10.28,24.93-10.85,47.89,13.46,59.57" style="fill:#ead39a;stroke:#3a3632;stroke-linecap:round;stroke-linejoin:round;stroke-width:20px"/><path d="M461.51,714c-7.18-6.31-16.68-9.19-25.91-11.67-22.74-6.11-46.49-10.88-69.75-7.18s-46.13,17.39-55.11,39.16c-10.28,24.93-10.85,47.89,13.46,59.57" style="fill:#ead39a;stroke:#3a3632;stroke-linecap:round;stroke-linejoin:round;stroke-width:20px"/><path d="M371.79,785.54c-7.18-6.31-16.68-9.19-25.91-11.67-22.75-6.11-46.49-10.88-69.75-7.18S230,784.08,221,805.85c-10.29,24.93-10.85,47.89,13.46,59.57" style="fill:#ead39a;stroke:#3a3632;stroke-linecap:round;stroke-linejoin:round;stroke-width:20px"/><path d="M1644.94,1368.58c88.51,11.31,115.57-48.75,122.14-84.24s-15.71-78-66.45-68.13" style="fill:#ead39a;stroke:#3a3632;stroke-linecap:round;stroke-linejoin:round;stroke-width:20px"/><path d="M282.06,845.77c-7.18-6.31-16.68-9.19-25.91-11.67-22.74-6.11-46.49-10.88-69.75-7.18s-46.13,17.39-55.11,39.16c-10.28,24.93-3,56.86,21.26,68.54" style="fill:#ead39a;stroke:#3a3632;stroke-linecap:round;stroke-linejoin:round;stroke-width:20px"/><path d="M140.49,885.6c-62.19,7.33-84.8,46.66-79.57,73.12,4.57,23.1,24.34,41,46.43,49.14s46.31,8.11,69.81,6.55c9.54-.64,19.41-1.61,27.69-6.4" style="fill:#ead39a;stroke:#3a3632;stroke-linecap:round;stroke-linejoin:round;stroke-width:20px"/><path d="M219.22,947.73c-29,10.33-46.72,45.1-38,74.63,7.57,25.79,31.88,44.07,57.83,51.07s82.4,6.75,122.71-18" style="fill:#ead39a;stroke:#3a3632;stroke-linecap:round;stroke-linejoin:round;stroke-width:20px"/><path d="M366.16,994c-29,10.33-46.72,45.1-38,74.63,7.57,25.79,31.88,44.07,57.84,51.07s82.39,6.75,122.7-18" style="fill:#ead39a;stroke:#3a3632;stroke-linecap:round;stroke-linejoin:round;stroke-width:20px"/><path d="M513.1,1040.29c-29,10.33-46.72,45.1-38,74.63C482.63,1140.71,507,1159,532.9,1166s82.39,6.76,122.7-18" style="fill:#ead39a;stroke:#3a3632;stroke-linecap:round;stroke-linejoin:round;stroke-width:20px"/><path d="M660,1086.57c-29,10.33-46.72,45.1-38,74.63,7.57,25.79,31.89,44.06,57.84,51.06s82.39,6.76,122.7-18" style="fill:#ead39a;stroke:#3a3632;stroke-linecap:round;stroke-linejoin:round;stroke-width:20px"/><path d="M807,1132.85c-29,10.33-46.72,45.1-38,74.63,7.57,25.79,31.89,44.06,57.84,51.06s82.39,6.76,122.7-18" style="fill:#ead39a;stroke:#3a3632;stroke-linecap:round;stroke-linejoin:round;stroke-width:20px"/><path d="M953.92,1179.13c-29,10.33-46.71,45.1-38,74.63,7.57,25.79,31.89,44.06,57.84,51.06s82.39,6.76,122.7-18" style="fill:#ead39a;stroke:#3a3632;stroke-linecap:round;stroke-linejoin:round;stroke-width:20px"/><path d="M1100.86,1225.41c-29,10.33-46.71,45.09-38,74.63,7.58,25.79,31.89,44.06,57.84,51.06s82.39,6.75,122.7-17.95" style="fill:#ead39a;stroke:#3a3632;stroke-linecap:round;stroke-linejoin:round;stroke-width:20px"/><path d="M1247.8,1271.69c-29,10.33-46.71,45.09-38,74.63,7.58,25.78,31.89,44.06,57.84,51.06s82.39,6.75,122.7-18" style="fill:#ead39a;stroke:#3a3632;stroke-linecap:round;stroke-linejoin:round;stroke-width:20px"/><path d="M1394.74,1318c-29,10.34-46.71,45.1-38,74.63,7.58,25.79,31.89,44.07,57.84,51.07s82.39,6.75,122.7-18" style="fill:#ead39a;stroke:#3a3632;stroke-linecap:round;stroke-linejoin:round;stroke-width:20px"/><path d="M1502.14,1415.35c17.92,79.71,130.54,69.53,158.73,38.41,35.08-38.73,39.51-102.75,5.89-138.44" style="fill:#ead39a;stroke:#3a3632;stroke-linecap:round;stroke-linejoin:round;stroke-width:20px"/><polygon points="1820.37 762.94 773.97 462.37 242.62 829.29 211.14 912.53 1574.74 1356.81 1851.86 843.53 1820.37 762.94" style="fill:#785d42;stroke:#3a3632;stroke-linecap:round;stroke-linejoin:round;stroke-width:20px"/><polygon points="242.62 829.29 1553.89 1256.52 1820.37 762.94 773.97 462.37 242.62 829.29" style="fill:#88715c;stroke:#3a3632;stroke-linecap:round;stroke-linejoin:round;stroke-width:20px"/><polygon points="352.22 812.17 1525.94 1191.28 1750.91 786.31 793.81 511.6 352.22 812.17" style="fill:#493727;stroke:#3a3632;stroke-linecap:round;stroke-linejoin:round;stroke-width:20px"/><polygon points="1521.94 1182.28 1723.82 817.47 792.97 551.7 403.13 820.91 1521.94 1182.28" style="fill:#785d42"/></svg>