<?xml version="1.0" encoding="UTF-8" standalone="no"?>
<svg
   xmlns:dc="http://purl.org/dc/elements/1.1/"
   xmlns:cc="http://creativecommons.org/ns#"
   xmlns:rdf="http://www.w3.org/1999/02/22-rdf-syntax-ns#"
   xmlns:svg="http://www.w3.org/2000/svg"
   xmlns="http://www.w3.org/2000/svg"
   xmlns:sodipodi="http://sodipodi.sourceforge.net/DTD/sodipodi-0.dtd"
   xmlns:inkscape="http://www.inkscape.org/namespaces/inkscape"
   inkscape:version="1.0beta1 (32d4812, 2019-09-19)"
   sodipodi:docname="milk_chocolat_chip.svg"
   version="1.1"
   viewBox="0 0 1923.9825 1259.8124"
   height="1259.8124"
   width="1923.9825"
   data-name="Layer 1"
   id="Layer_1">
  <metadata
     id="metadata856">
    <rdf:RDF>
      <cc:Work
         rdf:about="">
        <dc:format>image/svg+xml</dc:format>
        <dc:type
           rdf:resource="http://purl.org/dc/dcmitype/StillImage" />
        <dc:title></dc:title>
      </cc:Work>
    </rdf:RDF>
  </metadata>
  <defs
     id="defs854" />
  <sodipodi:namedview
     inkscape:current-layer="Layer_1"
     inkscape:window-maximized="0"
     inkscape:window-y="23"
     inkscape:window-x="0"
     inkscape:cy="688.59473"
     inkscape:cx="897.4825"
     inkscape:zoom="0.175"
     fit-margin-bottom="12"
     fit-margin-right="12"
     fit-margin-left="12"
     lock-margins="true"
     fit-margin-top="12"
     showgrid="false"
     id="namedview852"
     inkscape:window-height="907"
     inkscape:window-width="1600"
     inkscape:pageshadow="2"
     inkscape:pageopacity="0"
     guidetolerance="10"
     gridtolerance="10"
     objecttolerance="10"
     borderopacity="1"
     inkscape:document-rotation="0"
     bordercolor="#666666"
     pagecolor="#ffffff" />
  <path
     inkscape:connector-curvature="0"
     style="fill:#60381a;stroke:#231f20;stroke-width:24;stroke-miterlimit:10"
     d="m 765.43198,165.48616 c -13.74,-31.77 -55.75,-38.31 -79.56,-12.69 -42.75,46.41 -95.33,103.2 -103.3,109.24 -63.08,48.44 130.76,202.19 259.16,78.63 22,-21.29 19,-56.63 -4.86,-75.07 -22.47,-16.83 -48.33,-46.64 -71.44,-100.11 z"
     id="path10661" />
  <path
     inkscape:connector-curvature="0"
     style="fill:#60381a;stroke:#231f20;stroke-width:24;stroke-miterlimit:10"
     d="m 443.44198,262.26616 c -16.36,-30.5 -58.77,-33.48 -80.35,-6 -38.68,49.9 -86.3,110.9 -93.74,117.6 -58.78,53.57 147.31,190.46 264.86,56.54 20.09,-23.06 14.14,-58 -11.16,-74.4 -23.81,-14.84 -52.05,-42.41 -79.61,-93.74 z"
     data-name="path10661"
     id="path10661-2" />
  <path
     inkscape:connector-curvature="0"
     style="fill:#60381a;stroke:#231f20;stroke-width:24;stroke-miterlimit:10"
     d="m 631.41198,410.10616 c -16.37,-30.5 -58.77,-33.48 -80.35,-6 -38.69,49.85 -86.3,110.85 -93.74,117.55 -58.78,53.57 147.31,190.46 264.86,56.54 20.09,-23.06 14.14,-58 -11.16,-74.4 -23.81,-14.83 -52.08,-42.35 -79.61,-93.69 z"
     data-name="path10661"
     id="path10661-3" />
  <path
     inkscape:connector-curvature="0"
     style="fill:#60381a;stroke:#231f20;stroke-width:24;stroke-miterlimit:10"
     d="m 1471.002,315.03616 c -13.74,-31.77 -55.75,-38.3 -79.56,-12.69 -42.75,46.42 -95.33,103.2 -103.3,109.25 -63.08,48.43 130.76,202.18 259.16,78.63 22,-21.29 19,-56.64 -4.86,-75.08 -22.5,-16.83 -48.35,-46.64 -71.44,-100.11 z"
     data-name="path10661"
     id="path10661-4" />
  <path
     inkscape:connector-curvature="0"
     style="fill:#60381a;stroke:#231f20;stroke-width:24;stroke-miterlimit:10"
     d="m 1119.392,36.87616 c -16.36,-30.51 -58.77,-33.48 -80.35,-6 -38.68,49.85 -86.30002,110.86 -93.74002,117.56 -58.78,53.56 147.31002,190.46 264.86002,56.54 20.09,-23.06 14.14,-58 -11.16,-74.4 -23.81,-14.84 -52.08,-42.41 -79.61,-93.7 z"
     data-name="path10661"
     id="path10661-5" />
  <path
     inkscape:connector-curvature="0"
     style="fill:#60381a;stroke:#231f20;stroke-width:24;stroke-miterlimit:10"
     d="m 933.00198,413.40616 c -13.75,-31.77 -55.75,-38.31 -79.57,-12.69 -42.74,46.41 -95.32,103.2 -103.3,109.24 -63.08,48.44 130.76,202.19 259.16002,78.64 22,-21.3 19,-56.64 -4.86,-75.08 -22.43002,-16.83 -48.28002,-46.64 -71.43002,-100.11 z"
     data-name="path10661"
     id="path10661-6" />
  <path
     inkscape:connector-curvature="0"
     style="fill:#60381a;stroke:#231f20;stroke-width:24;stroke-miterlimit:10"
     d="m 1160.412,357.85616 c -13.74,-31.77 -55.75,-38.3 -79.56,-12.69 -42.75,46.42 -95.33002,103.2 -103.30002,109.25 -63.08,48.43 130.76002,202.18 259.16002,78.63 22,-21.29 19,-56.64 -4.86,-75.08 -22.47,-16.8 -48.33,-46.64 -71.44,-100.11 z"
     data-name="path10661"
     id="path10661-7" />
  <path
     inkscape:connector-curvature="0"
     style="fill:#60381a;stroke:#231f20;stroke-width:24;stroke-miterlimit:10"
     d="m 1598.282,419.48616 c -13.74,-31.78 -55.75,-38.31 -79.57,-12.7 -42.74,46.42 -95.32,103.2 -103.3,109.25 -63.07,48.43 130.76,202.18 259.17,78.63 22,-21.29 19,-56.64 -4.86,-75.07 -22.48,-16.83 -48.33,-46.64 -71.44,-100.11 z"
     data-name="path10661"
     id="path10661-8" />
  <path
     inkscape:connector-curvature="0"
     style="fill:#60381a;stroke:#231f20;stroke-width:24;stroke-miterlimit:10"
     d="m 1354.512,445.43616 c -16.37,-30.51 -58.77,-33.48 -80.35,-6 -38.69,49.85 -86.3,110.86 -93.74,117.56 -58.78,53.56 147.31,190.46 264.86,56.54 20.09,-23.06 14.13,-58 -11.16,-74.4 -23.81,-14.84 -52.12,-42.37 -79.61,-93.7 z"
     data-name="path10661"
     id="path10661-9" />
  <path
     inkscape:connector-curvature="0"
     style="fill:#60381a;stroke:#231f20;stroke-width:24;stroke-miterlimit:10"
     d="m 179.65198,515.55616 c -19.84,-28.37 -62.3,-26.35 -80.5,3.52 -32.57,54 -72.71,120.21 -79.31,127.73 -52.09,60.09 168.63,171.87 269.67,25.09 17.24,-25.26 7.23,-59.29 -19.81,-72.58 -25.39,-11.98 -56.7,-36 -90.05,-83.76 z"
     data-name="path10661"
     id="path10661-10" />
  <path
     inkscape:connector-curvature="0"
     style="fill:#60381a;stroke:#231f20;stroke-width:24;stroke-miterlimit:10"
     d="m 1063.642,546.82616 c -19.84,-28.37 -62.3,-26.35 -80.50002,3.52 -32.57,54 -72.7,120.21 -79.31,127.73 -52.09,60.09 168.63002,171.87 269.67002,25.09 17.24,-25.26 7.23,-59.29 -19.81,-72.58 -25.39,-11.98 -56.69,-36 -90.05,-83.76 z"
     data-name="path10661"
     id="path10661-11" />
  <path
     inkscape:connector-curvature="0"
     style="fill:#60381a;stroke:#231f20;stroke-width:24;stroke-miterlimit:10;stroke-dasharray:none"
     d="m 1821.452,618.16616 c -13.6,-31.83 -55.58,-38.55 -79.51,-13 -43,46.23 -95.77,102.78 -103.78,108.79 -63.28,48.16 129.88,202.76 258.82,79.77 22,-21.2 19.22,-56.56 -4.53,-75.1 -22.4,-16.96 -48.12,-46.88 -71,-100.46 z"
     data-name="path10661"
     id="path10661-12" />
  <path
     inkscape:connector-curvature="0"
     style="fill:#60381a;stroke:#231f20;stroke-width:24;stroke-miterlimit:10"
     d="m 816.00198,619.16616 c -13.61,-31.83 -55.59,-38.55 -79.51,-13 -43,46.23 -95.78,102.78 -103.78,108.79 -63.29,48.16 129.87,202.76 258.82,79.77 22,-21.2 19.21,-56.56 -4.54,-75.1 -22.42,-16.96 -48.15,-46.88 -70.99,-100.46 z"
     data-name="path10661"
     id="path10661-13" />
  <path
     inkscape:connector-curvature="0"
     style="fill:#60381a;stroke:#231f20;stroke-width:24;stroke-miterlimit:10"
     d="m 501.00198,567.73616 c -20,-28.24 -62.48,-25.94 -80.47,4 -32.21,54.26 -71.89,120.71 -78.44,128.27 -51.68,60.45 169.79,170.73 269.83,23.26 17.07,-25.37 6.83,-59.33 -20.3,-72.44 -25.46,-11.76 -56.93,-35.57 -90.62,-83.09 z"
     data-name="path10661"
     id="path10661-14" />
  <path
     inkscape:connector-curvature="0"
     style="fill:#60381a;stroke:#231f20;stroke-width:24;stroke-miterlimit:10"
     d="m 1333.832,592.51616 c -20,-28.24 -62.48,-25.93 -80.47,4.06 -32.21,54.26 -71.89,120.7 -78.44,128.27 -51.68,60.44 169.79,170.72 269.82,23.26 17.08,-25.38 6.84,-59.34 -20.29,-72.44 -25.45,-11.82 -56.94,-35.63 -90.62,-83.15 z"
     data-name="path10661"
     id="path10661-15" />
  <path
     inkscape:connector-curvature="0"
     style="fill:#60381a;stroke:#231f20;stroke-width:24;stroke-miterlimit:10"
     d="m 1194.602,783.67616 c -20,-28.24 -62.48,-25.93 -80.47,4.06 -32.21,54.26 -71.89,120.7 -78.44,128.27 -51.68002,60.44 169.79,170.72004 269.82,23.26 17.08,-25.38 6.84,-59.33 -20.29,-72.44 -25.47,-11.81 -56.94,-35.66 -90.62,-83.15 z"
     data-name="path10661"
     id="path10661-16" />
  <path
     inkscape:connector-curvature="0"
     style="fill:#60381a;stroke:#231f20;stroke-width:24;stroke-miterlimit:10"
     d="m 665.37198,784.27616 c -15.39,-31 -57.68,-35.34 -80.12,-8.51 -40.26,48.59 -89.79,108 -97.44,114.5 -60.46,51.67 141.16,195.06004 262.92,65 20.81,-22.41 16,-57.55 -8.78,-74.72 -23.32,-15.67 -50.7,-44.08 -76.58,-96.27 z"
     data-name="path10661"
     id="path10661-17" />
  <path
     inkscape:connector-curvature="0"
     style="fill:#60381a;stroke:#231f20;stroke-width:24;stroke-miterlimit:10"
     d="m 901.69198,1023.7362 c -15.39,-31.00004 -57.68,-35.34004 -80.12,-8.51 -40.26,48.59 -89.8,108 -97.45,114.5 -60.45,51.66 141.16,195.06 262.93,65 20.81002,-22.41 16.00002,-57.55 -8.79,-74.72 -23.32,-15.67 -50.7,-44.08 -76.57,-96.27 z"
     data-name="path10661"
     id="path10661-18" />
</svg>
