<svg id="Layer_1" data-name="Layer 1" xmlns="http://www.w3.org/2000/svg" viewBox="0 0 2000 2000"><path id="path10661" d="M803.43,608.32c-13.74-31.77-55.75-38.31-79.56-12.69-42.75,46.41-95.33,103.2-103.3,109.24-63.08,48.44,130.76,202.19,259.16,78.63,22-21.29,19-56.63-4.86-75.07C852.4,691.6,826.54,661.79,803.43,608.32Z" style="fill:#60381a;stroke:#3a3632;stroke-miterlimit:10;stroke-width:20px"/><path id="path10661-2" data-name="path10661" d="M481.44,705.1c-16.36-30.5-58.77-33.48-80.35-6C362.41,749,314.79,810,307.35,816.7c-58.78,53.57,147.31,190.46,264.86,56.54,20.09-23.06,14.14-58-11.16-74.4C537.24,784,509,756.43,481.44,705.1Z" style="fill:#60381a;stroke:#3a3632;stroke-miterlimit:10;stroke-width:20px"/><path id="path10661-3" data-name="path10661" d="M669.41,852.94c-16.37-30.5-58.77-33.48-80.35-6-38.69,49.85-86.3,110.85-93.74,117.55-58.78,53.57,147.31,190.46,264.86,56.54,20.09-23.06,14.14-58-11.16-74.4C725.21,931.8,696.94,904.28,669.41,852.94Z" style="fill:#60381a;stroke:#3a3632;stroke-miterlimit:10;stroke-width:20px"/><path id="path10661-4" data-name="path10661" d="M1509,757.87c-13.74-31.77-55.75-38.3-79.56-12.69-42.75,46.42-95.33,103.2-103.3,109.25-63.08,48.43,130.76,202.18,259.16,78.63,22-21.29,19-56.64-4.86-75.08C1557.94,841.15,1532.09,811.34,1509,757.87Z" style="fill:#60381a;stroke:#3a3632;stroke-miterlimit:10;stroke-width:20px"/><path id="path10661-5" data-name="path10661" d="M1157.39,479.71c-16.36-30.51-58.77-33.48-80.35-6-38.68,49.85-86.3,110.86-93.74,117.56-58.78,53.56,147.31,190.46,264.86,56.54,20.09-23.06,14.14-58-11.16-74.4C1213.19,558.57,1184.92,531,1157.39,479.71Z" style="fill:#60381a;stroke:#3a3632;stroke-miterlimit:10;stroke-width:20px"/><path id="path10661-6" data-name="path10661" d="M971,856.24c-13.75-31.77-55.75-38.31-79.57-12.69-42.74,46.41-95.32,103.2-103.3,109.24-63.08,48.44,130.76,202.19,259.16,78.64,22-21.3,19-56.64-4.86-75.08C1020,939.52,994.15,909.71,971,856.24Z" style="fill:#60381a;stroke:#3a3632;stroke-miterlimit:10;stroke-width:20px"/><path id="path10661-7" data-name="path10661" d="M1198.41,800.69c-13.74-31.77-55.75-38.3-79.56-12.69-42.75,46.42-95.33,103.2-103.3,109.25-63.08,48.43,130.76,202.18,259.16,78.63,22-21.29,19-56.64-4.86-75.08C1247.38,884,1221.52,854.16,1198.41,800.69Z" style="fill:#60381a;stroke:#3a3632;stroke-miterlimit:10;stroke-width:20px"/><path id="path10661-8" data-name="path10661" d="M1636.28,862.32c-13.74-31.78-55.75-38.31-79.57-12.7-42.74,46.42-95.32,103.2-103.3,109.25-63.07,48.43,130.76,202.18,259.17,78.63,22-21.29,19-56.64-4.86-75.07C1685.24,945.6,1659.39,915.79,1636.28,862.32Z" style="fill:#60381a;stroke:#3a3632;stroke-miterlimit:10;stroke-width:20px"/><path id="path10661-9" data-name="path10661" d="M1392.51,888.27c-16.37-30.51-58.77-33.48-80.35-6-38.69,49.85-86.3,110.86-93.74,117.56-58.78,53.56,147.31,190.46,264.86,56.54,20.09-23.06,14.13-58-11.16-74.4C1448.31,967.13,1420,939.6,1392.51,888.27Z" style="fill:#60381a;stroke:#3a3632;stroke-miterlimit:10;stroke-width:20px"/><path id="path10661-10" data-name="path10661" d="M217.65,958.39c-19.84-28.37-62.3-26.35-80.5,3.52-32.57,54-72.71,120.21-79.31,127.73-52.09,60.09,168.63,171.87,269.67,25.09,17.24-25.26,7.23-59.29-19.81-72.58C282.31,1030.17,251,1006.15,217.65,958.39Z" style="fill:#60381a;stroke:#3a3632;stroke-miterlimit:10;stroke-width:20px"/><path id="path10661-11" data-name="path10661" d="M1101.64,989.66c-19.84-28.37-62.3-26.35-80.5,3.52-32.57,54-72.7,120.21-79.31,127.73C889.74,1181,1110.46,1292.78,1211.5,1146c17.24-25.26,7.23-59.29-19.81-72.58C1166.3,1061.44,1135,1037.42,1101.64,989.66Z" style="fill:#60381a;stroke:#3a3632;stroke-miterlimit:10;stroke-width:20px"/><path id="path10661-12" data-name="path10661" d="M1859.45,1061c-13.6-31.83-55.58-38.55-79.51-13-43,46.23-95.77,102.78-103.78,108.79-63.28,48.16,129.88,202.76,258.82,79.77,22-21.2,19.22-56.56-4.53-75.1C1908.05,1144.5,1882.33,1114.58,1859.45,1061Z" style="fill:#60381a;stroke:#3a3632;stroke-miterlimit:10;stroke-width:20px"/><path id="path10661-13" data-name="path10661" d="M854,1062c-13.61-31.83-55.59-38.55-79.51-13-43,46.23-95.78,102.78-103.78,108.79-63.29,48.16,129.87,202.76,258.82,79.77,22-21.2,19.21-56.56-4.54-75.1C902.57,1145.5,876.84,1115.58,854,1062Z" style="fill:#60381a;stroke:#3a3632;stroke-miterlimit:10;stroke-width:20px"/><path id="path10661-14" data-name="path10661" d="M539,1010.57c-20-28.24-62.48-25.94-80.47,4-32.21,54.26-71.89,120.71-78.44,128.27-51.68,60.45,169.79,170.73,269.83,23.26,17.07-25.37,6.83-59.33-20.3-72.44C604.16,1081.9,572.69,1058.09,539,1010.57Z" style="fill:#60381a;stroke:#3a3632;stroke-miterlimit:10;stroke-width:20px"/><path id="path10661-15" data-name="path10661" d="M1371.83,1035.35c-20-28.24-62.48-25.93-80.47,4.06-32.21,54.26-71.89,120.7-78.44,128.27-51.68,60.44,169.79,170.72,269.82,23.26,17.08-25.38,6.84-59.34-20.29-72.44C1437,1106.68,1405.51,1082.87,1371.83,1035.35Z" style="fill:#60381a;stroke:#3a3632;stroke-miterlimit:10;stroke-width:20px"/><path id="path10661-16" data-name="path10661" d="M1232.6,1226.51c-20-28.24-62.48-25.93-80.47,4.06-32.21,54.26-71.89,120.7-78.44,128.27-51.68,60.44,169.79,170.72,269.82,23.26,17.08-25.38,6.84-59.33-20.29-72.44C1297.75,1297.85,1266.28,1274,1232.6,1226.51Z" style="fill:#60381a;stroke:#3a3632;stroke-miterlimit:10;stroke-width:20px"/><path id="path10661-17" data-name="path10661" d="M703.37,1227.11c-15.39-31-57.68-35.34-80.12-8.51-40.26,48.59-89.79,108-97.44,114.5-60.46,51.67,141.16,195.06,262.92,65,20.81-22.41,16-57.55-8.78-74.72C756.63,1307.71,729.25,1279.3,703.37,1227.11Z" style="fill:#60381a;stroke:#3a3632;stroke-miterlimit:10;stroke-width:20px"/><path id="path10661-18" data-name="path10661" d="M939.69,1466.57c-15.39-31-57.68-35.34-80.12-8.51-40.26,48.59-89.8,108-97.45,114.5-60.45,51.66,141.16,195.06,262.93,65,20.81-22.41,16-57.55-8.79-74.72C992.94,1547.17,965.56,1518.76,939.69,1466.57Z" style="fill:#60381a;stroke:#3a3632;stroke-miterlimit:10;stroke-width:20px"/></svg>