<svg id="Layer_1" data-name="Layer 1" xmlns="http://www.w3.org/2000/svg" viewBox="0 0 1541.33 1541.33"><path d="M58.78,1385.28a100.82,100.82,0,0,0,135.09,0l26-23.45a100.83,100.83,0,0,1,135.1,0l26,23.45a100.82,100.82,0,0,0,135.09,0l26-23.45a100.83,100.83,0,0,1,135.1,0l26,23.45a100.82,100.82,0,0,0,135.09,0l26-23.45a100.83,100.83,0,0,1,135.1,0l26,23.45a100.82,100.82,0,0,0,135.09,0l26-23.45a100.83,100.83,0,0,1,135.1,0l26,23.45a100.82,100.82,0,0,0,135.09,0" style="fill:none;stroke:#a02021;stroke-linecap:round;stroke-width:77.9623284339905px"/><path d="M58.78,1270a100.82,100.82,0,0,0,135.09,0l26-23.45a100.83,100.83,0,0,1,135.1,0L381,1270A100.82,100.82,0,0,0,516,1270l26-23.45a100.83,100.83,0,0,1,135.1,0l26,23.45a100.82,100.82,0,0,0,135.09,0l26-23.45a100.83,100.83,0,0,1,135.1,0l26,23.45a100.82,100.82,0,0,0,135.09,0l26-23.45a100.83,100.83,0,0,1,135.1,0l26,23.45a100.82,100.82,0,0,0,135.09,0" style="fill:none;stroke:#a02021;stroke-linecap:round;stroke-width:77.9623284339905px"/><path d="M58.78,1154.7a100.84,100.84,0,0,0,135.09,0l26-23.46a100.85,100.85,0,0,1,135.1,0l26,23.46a100.84,100.84,0,0,0,135.09,0l26-23.46a100.85,100.85,0,0,1,135.1,0l26,23.46a100.84,100.84,0,0,0,135.09,0l26-23.46a100.85,100.85,0,0,1,135.1,0l26,23.46a100.84,100.84,0,0,0,135.09,0l26-23.46a100.85,100.85,0,0,1,135.1,0l26,23.46a100.84,100.84,0,0,0,135.09,0" style="fill:none;stroke:#a02021;stroke-linecap:round;stroke-width:77.9623284339905px"/><path d="M58.78,924.11a100.82,100.82,0,0,0,135.09,0l26-23.45a100.83,100.83,0,0,1,135.1,0l26,23.45a100.82,100.82,0,0,0,135.09,0l26-23.45a100.83,100.83,0,0,1,135.1,0l26,23.45a100.82,100.82,0,0,0,135.09,0l26-23.45a100.83,100.83,0,0,1,135.1,0l26,23.45a100.82,100.82,0,0,0,135.09,0l26-23.45a100.83,100.83,0,0,1,135.1,0l26,23.45a100.82,100.82,0,0,0,135.09,0" style="fill:none;stroke:#a02021;stroke-linecap:round;stroke-width:77.9623284339905px"/><path d="M58.78,1039.4a100.82,100.82,0,0,0,135.09,0l26-23.45a100.83,100.83,0,0,1,135.1,0l26,23.45a100.82,100.82,0,0,0,135.09,0L542,1016a100.83,100.83,0,0,1,135.1,0l26,23.45a100.82,100.82,0,0,0,135.09,0l26-23.45a100.83,100.83,0,0,1,135.1,0l26,23.45a100.82,100.82,0,0,0,135.09,0l26-23.45a100.83,100.83,0,0,1,135.1,0l26,23.45a100.82,100.82,0,0,0,135.09,0" style="fill:none;stroke:#a02021;stroke-linecap:round;stroke-width:77.9623284339905px"/><path d="M58.78,808.82a100.82,100.82,0,0,0,135.09,0l26-23.45a100.83,100.83,0,0,1,135.1,0l26,23.45a100.82,100.82,0,0,0,135.09,0l26-23.45a100.83,100.83,0,0,1,135.1,0l26,23.45a100.82,100.82,0,0,0,135.09,0l26-23.45a100.83,100.83,0,0,1,135.1,0l26,23.45a100.82,100.82,0,0,0,135.09,0l26-23.45a100.83,100.83,0,0,1,135.1,0l26,23.45a100.82,100.82,0,0,0,135.09,0" style="fill:none;stroke:#a02021;stroke-linecap:round;stroke-width:77.9623284339905px"/><path d="M58.78,693.53a100.82,100.82,0,0,0,135.09,0l26-23.45a100.83,100.83,0,0,1,135.1,0l26,23.45a100.82,100.82,0,0,0,135.09,0l26-23.45a100.83,100.83,0,0,1,135.1,0l26,23.45a100.82,100.82,0,0,0,135.09,0l26-23.45a100.83,100.83,0,0,1,135.1,0l26,23.45a100.82,100.82,0,0,0,135.09,0l26-23.45a100.83,100.83,0,0,1,135.1,0l26,23.45a100.82,100.82,0,0,0,135.09,0" style="fill:none;stroke:#a02021;stroke-linecap:round;stroke-width:77.9623284339905px"/><path d="M58.78,578.24a100.84,100.84,0,0,0,135.09,0l26-23.46a100.85,100.85,0,0,1,135.1,0l26,23.46a100.84,100.84,0,0,0,135.09,0l26-23.46a100.85,100.85,0,0,1,135.1,0l26,23.46a100.84,100.84,0,0,0,135.09,0l26-23.46a100.85,100.85,0,0,1,135.1,0l26,23.46a100.84,100.84,0,0,0,135.09,0l26-23.46a100.85,100.85,0,0,1,135.1,0l26,23.46a100.84,100.84,0,0,0,135.09,0" style="fill:none;stroke:#a02021;stroke-linecap:round;stroke-width:77.9623284339905px"/><path d="M58.78,463a100.84,100.84,0,0,0,135.09,0l26-23.46a100.85,100.85,0,0,1,135.1,0L381,463A100.84,100.84,0,0,0,516,463l26-23.46a100.85,100.85,0,0,1,135.1,0l26,23.46a100.84,100.84,0,0,0,135.09,0l26-23.46a100.85,100.85,0,0,1,135.1,0l26,23.46a100.84,100.84,0,0,0,135.09,0l26-23.46a100.85,100.85,0,0,1,135.1,0l26,23.46a100.84,100.84,0,0,0,135.09,0" style="fill:none;stroke:#a02021;stroke-linecap:round;stroke-width:77.9623284339905px"/><path d="M58.78,347.65a100.82,100.82,0,0,0,135.09,0l26-23.45a100.83,100.83,0,0,1,135.1,0l26,23.45a100.82,100.82,0,0,0,135.09,0l26-23.45a100.83,100.83,0,0,1,135.1,0l26,23.45a100.82,100.82,0,0,0,135.09,0l26-23.45a100.83,100.83,0,0,1,135.1,0l26,23.45a100.82,100.82,0,0,0,135.09,0l26-23.45a100.83,100.83,0,0,1,135.1,0l26,23.45a100.82,100.82,0,0,0,135.09,0" style="fill:none;stroke:#a02021;stroke-linecap:round;stroke-width:77.9623284339905px"/><path d="M58.78,232.36a100.82,100.82,0,0,0,135.09,0l26-23.45a100.83,100.83,0,0,1,135.1,0l26,23.45a100.82,100.82,0,0,0,135.09,0l26-23.45a100.83,100.83,0,0,1,135.1,0l26,23.45a100.82,100.82,0,0,0,135.09,0l26-23.45a100.83,100.83,0,0,1,135.1,0l26,23.45a100.82,100.82,0,0,0,135.09,0l26-23.45a100.83,100.83,0,0,1,135.1,0l26,23.45a100.82,100.82,0,0,0,135.09,0" style="fill:none;stroke:#a02021;stroke-linecap:round;stroke-width:77.9623284339905px"/><path d="M58.78,1332.42a100.82,100.82,0,0,0,135.09,0l26-23.45a100.83,100.83,0,0,1,135.1,0l26,23.45a100.82,100.82,0,0,0,135.09,0L542,1309a100.83,100.83,0,0,1,135.1,0l26,23.45a100.82,100.82,0,0,0,135.09,0l26-23.45a100.83,100.83,0,0,1,135.1,0l26,23.45a100.82,100.82,0,0,0,135.09,0l26-23.45a100.83,100.83,0,0,1,135.1,0l26,23.45a100.82,100.82,0,0,0,135.09,0" style="fill:none;stroke:#dd576a;stroke-linecap:round;stroke-width:52.8558158874512px"/><path d="M58.78,1217.13a100.82,100.82,0,0,0,135.09,0l26-23.45a100.83,100.83,0,0,1,135.1,0l26,23.45a100.82,100.82,0,0,0,135.09,0l26-23.45a100.83,100.83,0,0,1,135.1,0l26,23.45a100.82,100.82,0,0,0,135.09,0l26-23.45a100.83,100.83,0,0,1,135.1,0l26,23.45a100.82,100.82,0,0,0,135.09,0l26-23.45a100.83,100.83,0,0,1,135.1,0l26,23.45a100.82,100.82,0,0,0,135.09,0" style="fill:none;stroke:#dd576a;stroke-linecap:round;stroke-width:52.8558158874512px"/><path d="M58.78,1101.84a100.82,100.82,0,0,0,135.09,0l26-23.45a100.83,100.83,0,0,1,135.1,0l26,23.45a100.82,100.82,0,0,0,135.09,0l26-23.45a100.83,100.83,0,0,1,135.1,0l26,23.45a100.82,100.82,0,0,0,135.09,0l26-23.45a100.83,100.83,0,0,1,135.1,0l26,23.45a100.82,100.82,0,0,0,135.09,0l26-23.45a100.83,100.83,0,0,1,135.1,0l26,23.45a100.82,100.82,0,0,0,135.09,0" style="fill:none;stroke:#dd576a;stroke-linecap:round;stroke-width:52.8558158874512px"/><path d="M58.78,871.26a100.84,100.84,0,0,0,135.09,0l26-23.46a100.85,100.85,0,0,1,135.1,0l26,23.46a100.84,100.84,0,0,0,135.09,0l26-23.46a100.85,100.85,0,0,1,135.1,0l26,23.46a100.84,100.84,0,0,0,135.09,0l26-23.46a100.85,100.85,0,0,1,135.1,0l26,23.46a100.84,100.84,0,0,0,135.09,0l26-23.46a100.85,100.85,0,0,1,135.1,0l26,23.46a100.84,100.84,0,0,0,135.09,0" style="fill:none;stroke:#dd576a;stroke-linecap:round;stroke-width:52.8558158874512px"/><path d="M58.78,986.55a100.82,100.82,0,0,0,135.09,0l26-23.45a100.83,100.83,0,0,1,135.1,0l26,23.45a100.82,100.82,0,0,0,135.09,0l26-23.45a100.83,100.83,0,0,1,135.1,0l26,23.45a100.82,100.82,0,0,0,135.09,0l26-23.45a100.83,100.83,0,0,1,135.1,0l26,23.45a100.82,100.82,0,0,0,135.09,0l26-23.45a100.83,100.83,0,0,1,135.1,0l26,23.45a100.82,100.82,0,0,0,135.09,0" style="fill:none;stroke:#dd576a;stroke-linecap:round;stroke-width:52.8558158874512px"/><path d="M58.78,756a100.82,100.82,0,0,0,135.09,0l26-23.45a100.85,100.85,0,0,1,135.1,0L381,756A100.82,100.82,0,0,0,516,756l26-23.45a100.85,100.85,0,0,1,135.1,0l26,23.45a100.82,100.82,0,0,0,135.09,0l26-23.45a100.85,100.85,0,0,1,135.1,0l26,23.45a100.82,100.82,0,0,0,135.09,0l26-23.45a100.85,100.85,0,0,1,135.1,0l26,23.45a100.82,100.82,0,0,0,135.09,0" style="fill:none;stroke:#dd576a;stroke-linecap:round;stroke-width:52.8558158874512px"/><path d="M58.78,640.67a100.82,100.82,0,0,0,135.09,0l26-23.45a100.83,100.83,0,0,1,135.1,0l26,23.45a100.82,100.82,0,0,0,135.09,0l26-23.45a100.83,100.83,0,0,1,135.1,0l26,23.45a100.82,100.82,0,0,0,135.09,0l26-23.45a100.83,100.83,0,0,1,135.1,0l26,23.45a100.82,100.82,0,0,0,135.09,0l26-23.45a100.83,100.83,0,0,1,135.1,0l26,23.45a100.82,100.82,0,0,0,135.09,0" style="fill:none;stroke:#dd576a;stroke-linecap:round;stroke-width:52.8558158874512px"/><path d="M58.78,525.38a100.82,100.82,0,0,0,135.09,0l26-23.45a100.83,100.83,0,0,1,135.1,0l26,23.45a100.82,100.82,0,0,0,135.09,0l26-23.45a100.83,100.83,0,0,1,135.1,0l26,23.45a100.82,100.82,0,0,0,135.09,0l26-23.45a100.83,100.83,0,0,1,135.1,0l26,23.45a100.82,100.82,0,0,0,135.09,0l26-23.45a100.83,100.83,0,0,1,135.1,0l26,23.45a100.82,100.82,0,0,0,135.09,0" style="fill:none;stroke:#dd576a;stroke-linecap:round;stroke-width:52.8558158874512px"/><path d="M58.78,410.09a100.82,100.82,0,0,0,135.09,0l26-23.45a100.83,100.83,0,0,1,135.1,0l26,23.45a100.82,100.82,0,0,0,135.09,0l26-23.45a100.83,100.83,0,0,1,135.1,0l26,23.45a100.82,100.82,0,0,0,135.09,0l26-23.45a100.83,100.83,0,0,1,135.1,0l26,23.45a100.82,100.82,0,0,0,135.09,0l26-23.45a100.83,100.83,0,0,1,135.1,0l26,23.45a100.82,100.82,0,0,0,135.09,0" style="fill:none;stroke:#dd576a;stroke-linecap:round;stroke-width:52.8558158874512px"/><path d="M58.78,294.8a100.84,100.84,0,0,0,135.09,0l26-23.45a100.83,100.83,0,0,1,135.1,0l26,23.45a100.84,100.84,0,0,0,135.09,0l26-23.45a100.83,100.83,0,0,1,135.1,0l26,23.45a100.84,100.84,0,0,0,135.09,0l26-23.45a100.83,100.83,0,0,1,135.1,0l26,23.45a100.84,100.84,0,0,0,135.09,0l26-23.45a100.83,100.83,0,0,1,135.1,0l26,23.45a100.84,100.84,0,0,0,135.09,0" style="fill:none;stroke:#dd576a;stroke-linecap:round;stroke-width:52.8558158874512px"/><path d="M58.78,179.51a100.84,100.84,0,0,0,135.09,0l26-23.46a100.85,100.85,0,0,1,135.1,0l26,23.46a100.84,100.84,0,0,0,135.09,0l26-23.46a100.85,100.85,0,0,1,135.1,0l26,23.46a100.84,100.84,0,0,0,135.09,0l26-23.46a100.85,100.85,0,0,1,135.1,0l26,23.46a100.84,100.84,0,0,0,135.09,0l26-23.46a100.85,100.85,0,0,1,135.1,0l26,23.46a100.84,100.84,0,0,0,135.09,0" style="fill:none;stroke:#dd576a;stroke-linecap:round;stroke-width:52.8558158874512px"/></svg>