<svg id="Layer_1" data-name="Layer 1" xmlns="http://www.w3.org/2000/svg" viewBox="0 0 2000 2000"><g id="layer2"><g id="g901"><g id="g1133"><path id="ellipse872" d="M713.85,1028c0,28-49.5,50.8-110.58,50.8h0c-61.07,0-110.58-22.75-110.58-50.8h0c0-28,49.51-50.8,110.58-50.8h0c61.08,0,110.58,22.74,110.58,50.8h0" style="fill:#fbf4e8;stroke:#3a3632;stroke-linecap:round;stroke-linejoin:round;stroke-width:20px"/><path id="rect876" d="M713.85,1029.16V876.47l-221-1.13V1028" style="fill:#fbf4e8;stroke:#3a3632;stroke-linecap:round;stroke-linejoin:round;stroke-width:20px"/><path id="path870" d="M713.85,872.52c0,28.05-49.5,50.79-110.58,50.79s-110.58-22.74-110.58-50.79,49.51-50.8,110.58-50.8S713.85,844.46,713.85,872.52Z" style="fill:#fbf4e8;stroke:#3a3632;stroke-linecap:round;stroke-linejoin:round;stroke-width:20px"/></g><g id="g1141"><path id="path1135" d="M713.85,1028c0,28-49.5,50.8-110.58,50.8h0c-61.07,0-110.58-22.75-110.58-50.8h0c0-28,49.51-50.8,110.58-50.8h0c61.08,0,110.58,22.74,110.58,50.8h0" style="fill:#fbf4e8;stroke:#3a3632;stroke-linecap:round;stroke-linejoin:round;stroke-width:20px"/><path id="path1137" d="M713.85,1029.16V876.47l-221-1.13V1028" style="fill:#fbf4e8;stroke:#3a3632;stroke-linecap:round;stroke-linejoin:round;stroke-width:20px"/><path id="path1139" d="M713.85,872.52c0,28.05-49.5,50.79-110.58,50.79s-110.58-22.74-110.58-50.79,49.51-50.8,110.58-50.8S713.85,844.46,713.85,872.52Z" style="fill:#fbf4e8;stroke:#3a3632;stroke-linecap:round;stroke-linejoin:round;stroke-width:20px"/></g><g id="g1149"><path id="path1143" d="M713.85,1028c0,28-49.5,50.8-110.58,50.8h0c-61.07,0-110.58-22.75-110.58-50.8h0c0-28,49.51-50.8,110.58-50.8h0c61.08,0,110.58,22.74,110.58,50.8h0" style="fill:#fbf4e8;stroke:#3a3632;stroke-linecap:round;stroke-linejoin:round;stroke-width:20px"/><path id="path1145" d="M713.85,1029.16V876.47l-221-1.13V1028" style="fill:#fbf4e8;stroke:#3a3632;stroke-linecap:round;stroke-linejoin:round;stroke-width:20px"/><path id="path1147" d="M713.85,872.52c0,28.05-49.5,50.79-110.58,50.79s-110.58-22.74-110.58-50.79,49.51-50.8,110.58-50.8S713.85,844.46,713.85,872.52Z" style="fill:#fbf4e8;stroke:#3a3632;stroke-linecap:round;stroke-linejoin:round;stroke-width:20px"/></g><g id="g1157"><path id="path1151" d="M713.85,1028c0,28-49.5,50.8-110.58,50.8h0c-61.07,0-110.58-22.75-110.58-50.8h0c0-28,49.51-50.8,110.58-50.8h0c61.08,0,110.58,22.74,110.58,50.8h0" style="fill:#fbf4e8;stroke:#3a3632;stroke-linecap:round;stroke-linejoin:round;stroke-width:20px"/><path id="path1153" d="M713.85,1029.16V876.47l-221-1.13V1028" style="fill:#fbf4e8;stroke:#3a3632;stroke-linecap:round;stroke-linejoin:round;stroke-width:20px"/><path id="path1155" d="M713.85,872.52c0,28.05-49.5,50.79-110.58,50.79s-110.58-22.74-110.58-50.79,49.51-50.8,110.58-50.8S713.85,844.46,713.85,872.52Z" style="fill:#fbf4e8;stroke:#3a3632;stroke-linecap:round;stroke-linejoin:round;stroke-width:20px"/></g><g id="g1165"><path id="path1159" d="M255.93,967c28.06-.1,51,49.33,51.17,110.4h0c.2,61.08-22.37,110.66-50.43,110.75h0c-28.05.1-51-49.33-51.17-110.4h0c-.2-61.08,22.38-110.66,50.43-110.75h0" style="fill:#fbf4e8;stroke:#3a3632;stroke-linecap:round;stroke-linejoin:round;stroke-width:20px"/><path id="path1161" d="M257.07,967l-152.68.51-.4,221,152.68-.51" style="fill:#fbf4e8;stroke:#3a3632;stroke-linecap:round;stroke-linejoin:round;stroke-width:20px"/><path id="path1163" d="M100.43,967.52c28-.1,51,49.33,51.17,110.41s-22.38,110.65-50.43,110.75-51-49.34-51.17-110.41S72.37,967.61,100.43,967.52Z" style="fill:#fbf4e8;stroke:#3a3632;stroke-linecap:round;stroke-linejoin:round;stroke-width:20px"/></g><g id="g1173"><path id="path1167" d="M1151.81,1201.93c-27.81,3.7-56.89-42.38-64.94-102.92h0c-8.06-60.54,8-112.61,35.77-116.31h0c27.81-3.7,56.88,42.37,64.94,102.91h0c8.05,60.54-8,112.62-35.77,116.32h0" style="fill:#fbf4e8;stroke:#3a3632;stroke-linecap:round;stroke-linejoin:round;stroke-width:20px"/><path id="path1169" d="M1150.68,1202.08,1302,1181.94l-28-219.27-151.35,20.14" style="fill:#fbf4e8;stroke:#3a3632;stroke-linecap:round;stroke-linejoin:round;stroke-width:20px"/><path id="path1171" d="M1306,1181.42c-27.81,3.7-56.88-42.38-64.94-102.92s8-112.61,35.77-116.31,56.89,42.37,64.94,102.91S1333.76,1177.72,1306,1181.42Z" style="fill:#fbf4e8;stroke:#3a3632;stroke-linecap:round;stroke-linejoin:round;stroke-width:20px"/></g><g id="g1181"><path id="path1175" d="M535.48,899.78c8.74,26.66-31.22,63.69-89.25,82.72h0c-58,19-112.16,12.83-120.9-13.82h0C316.59,942,356.55,905,414.58,886h0c58-19,112.16-12.84,120.9,13.82h0" style="fill:#fbf4e8;stroke:#3a3632;stroke-linecap:round;stroke-linejoin:round;stroke-width:20px"/><path id="path1177" d="M535.84,900.86,488.28,755.78,277.87,823.55l47.57,145.09" style="fill:#fbf4e8;stroke:#3a3632;stroke-linecap:round;stroke-linejoin:round;stroke-width:20px"/><path id="path1179" d="M487,752c8.74,26.66-31.22,63.7-89.25,82.72s-112.16,12.84-120.9-13.82,31.22-63.69,89.25-82.72S478.3,725.36,487,752Z" style="fill:#fbf4e8;stroke:#3a3632;stroke-linecap:round;stroke-linejoin:round;stroke-width:20px"/></g><g id="g1189"><path id="path1183" d="M1027.92,1010.62c-14.74,23.87-68.81,17.22-120.78-14.87h0c-52-32.08-82.14-77.45-67.4-101.32h0c14.74-23.87,68.81-17.21,120.78,14.87h0c52,32.09,82.14,77.45,67.4,101.32h0" style="fill:#fbf4e8;stroke:#3a3632;stroke-linecap:round;stroke-linejoin:round;stroke-width:20px"/><path id="path1185" d="M1027.32,1011.59l80.22-129.91L920.05,764.58,839.83,894.49" style="fill:#fbf4e8;stroke:#3a3632;stroke-linecap:round;stroke-linejoin:round;stroke-width:20px"/><path id="path1187" d="M1109.62,878.31c-14.74,23.87-68.82,17.21-120.78-14.87S906.7,786,921.44,762.12s68.81-17.21,120.77,14.87S1124.36,854.44,1109.62,878.31Z" style="fill:#fbf4e8;stroke:#3a3632;stroke-linecap:round;stroke-linejoin:round;stroke-width:20px"/></g><g id="g1197"><g id="g1266"><path id="path1191" d="M377.35,987.47c0,28.06-49.51,50.8-110.58,50.8h0c-61.07,0-110.58-22.74-110.58-50.8h0c0-28.05,49.51-50.8,110.58-50.8h0c61.07,0,110.58,22.75,110.58,50.8h0" style="fill:#fbf4e8;stroke:#3a3632;stroke-linecap:round;stroke-linejoin:round;stroke-width:20px"/><path id="path1193" d="M377.35,988.61V835.93l-221-1.14V987.47" style="fill:#fbf4e8;stroke:#3a3632;stroke-linecap:round;stroke-linejoin:round;stroke-width:20px"/><path id="path1195" d="M377.35,832c0,28-49.51,50.8-110.58,50.8S156.19,860,156.19,832s49.51-50.8,110.58-50.8S377.35,803.91,377.35,832Z" style="fill:#fbf4e8;stroke:#3a3632;stroke-linecap:round;stroke-linejoin:round;stroke-width:20px"/></g></g><g id="g1205"><path id="path1199" d="M481.2,1153.4c0,28.06-49.51,50.8-110.58,50.8h0c-61.07,0-110.58-22.74-110.58-50.8h0c0-28.05,49.51-50.8,110.58-50.8h0c61.08,0,110.59,22.75,110.59,50.8h0" style="fill:#fbf4e8;stroke:#3a3632;stroke-linecap:round;stroke-linejoin:round;stroke-width:20px"/><path id="path1201" d="M481.2,1154.54V1001.86l-221-1.14V1153.4" style="fill:#fbf4e8;stroke:#3a3632;stroke-linecap:round;stroke-linejoin:round;stroke-width:20px"/><path id="path1203" d="M481.2,997.9c0,28.05-49.51,50.8-110.59,50.8S260,1026,260,997.9s49.51-50.8,110.58-50.8S481.2,969.84,481.2,997.9Z" style="fill:#fbf4e8;stroke:#3a3632;stroke-linecap:round;stroke-linejoin:round;stroke-width:20px"/></g><g id="g1221"><path id="path1215" d="M1108.33,1180.94c0,28.06-49.51,50.8-110.58,50.8h0c-61.07,0-110.58-22.74-110.58-50.8h0c0-28,49.51-50.8,110.58-50.8h0c61.07,0,110.58,22.75,110.58,50.8h0" style="fill:#fbf4e8;stroke:#3a3632;stroke-linecap:round;stroke-linejoin:round;stroke-width:20px"/><path id="path1217" d="M1108.33,1182.08V1029.4l-221-1.14v152.68" style="fill:#fbf4e8;stroke:#3a3632;stroke-linecap:round;stroke-linejoin:round;stroke-width:20px"/><path id="path1219" d="M1108.33,1025.44c0,28-49.51,50.8-110.58,50.8s-110.58-22.75-110.58-50.8,49.51-50.8,110.58-50.8S1108.33,997.38,1108.33,1025.44Z" style="fill:#fbf4e8;stroke:#3a3632;stroke-linecap:round;stroke-linejoin:round;stroke-width:20px"/></g><g id="g1237"><path id="path1231" d="M713.85,1028c0,28-49.5,50.8-110.58,50.8h0c-61.07,0-110.58-22.75-110.58-50.8h0c0-28,49.51-50.8,110.58-50.8h0c61.08,0,110.58,22.74,110.58,50.8h0" style="fill:#fbf4e8;stroke:#3a3632;stroke-linecap:round;stroke-linejoin:round;stroke-width:20px"/><path id="path1233" d="M713.85,1029.16V876.47l-221-1.13V1028" style="fill:#fbf4e8;stroke:#3a3632;stroke-linecap:round;stroke-linejoin:round;stroke-width:20px"/><path id="path1235" d="M713.85,872.52c0,28.05-49.5,50.79-110.58,50.79s-110.58-22.74-110.58-50.79,49.51-50.8,110.58-50.8S713.85,844.46,713.85,872.52Z" style="fill:#fbf4e8;stroke:#3a3632;stroke-linecap:round;stroke-linejoin:round;stroke-width:20px"/></g><g id="g1261"><path id="path1255" d="M851,1062.32c-10.31,26.09-64.71,29-121.51,6.6h0c-56.8-22.44-94.48-61.78-84.17-87.88h0C655.6,955,710,952,766.8,974.44h0c56.8,22.44,94.48,61.79,84.17,87.88h0" style="fill:#fbf4e8;stroke:#3a3632;stroke-linecap:round;stroke-linejoin:round;stroke-width:20px"/><path id="path1257" d="M850.55,1063.38l56.11-142L701.5,839.08l-56.11,142" style="fill:#fbf4e8;stroke:#3a3632;stroke-linecap:round;stroke-linejoin:round;stroke-width:20px"/><path id="path1259" d="M908.12,917.7c-10.31,26.09-64.71,29-121.51,6.6s-94.49-61.79-84.18-87.88,64.72-29,121.51-6.61S918.43,891.6,908.12,917.7Z" style="fill:#fbf4e8;stroke:#3a3632;stroke-linecap:round;stroke-linejoin:round;stroke-width:20px"/></g><g id="g1245"><path id="path1239" d="M713.85,1028c0,28-49.5,50.8-110.58,50.8h0c-61.07,0-110.58-22.75-110.58-50.8h0c0-28,49.51-50.8,110.58-50.8h0c61.08,0,110.58,22.74,110.58,50.8h0" style="fill:#fbf4e8;stroke:#3a3632;stroke-linecap:round;stroke-linejoin:round;stroke-width:20px"/><path id="path1241" d="M713.85,1029.16V876.47l-221-1.13V1028" style="fill:#fbf4e8;stroke:#3a3632;stroke-linecap:round;stroke-linejoin:round;stroke-width:20px"/><path id="path1243" d="M713.85,872.52c0,28.05-49.5,50.79-110.58,50.79s-110.58-22.74-110.58-50.79,49.51-50.8,110.58-50.8S713.85,844.46,713.85,872.52Z" style="fill:#fbf4e8;stroke:#3a3632;stroke-linecap:round;stroke-linejoin:round;stroke-width:20px"/></g><g id="g1253"><path id="path1247" d="M713.85,1028c0,28-49.5,50.8-110.58,50.8h0c-61.07,0-110.58-22.75-110.58-50.8h0c0-28,49.51-50.8,110.58-50.8h0c61.08,0,110.58,22.74,110.58,50.8h0" style="fill:#fbf4e8;stroke:#3a3632;stroke-linecap:round;stroke-linejoin:round;stroke-width:20px"/><path id="path1249" d="M713.85,1029.16V876.47l-221-1.13V1028" style="fill:#fbf4e8;stroke:#3a3632;stroke-linecap:round;stroke-linejoin:round;stroke-width:20px"/><path id="path1251" d="M713.85,872.52c0,28.05-49.5,50.79-110.58,50.79s-110.58-22.74-110.58-50.79,49.51-50.8,110.58-50.8S713.85,844.46,713.85,872.52Z" style="fill:#fbf4e8;stroke:#3a3632;stroke-linecap:round;stroke-linejoin:round;stroke-width:20px"/></g><g id="g1229"><path id="path1223" d="M886.85,1179.89c10.65,25.95-26.51,65.79-83,89h0c-56.5,23.19-110.93,21-121.59-5h0c-10.65-25.95,26.52-65.79,83-89h0c56.5-23.19,110.94-20.94,121.59,5h0" style="fill:#fbf4e8;stroke:#3a3632;stroke-linecap:round;stroke-linejoin:round;stroke-width:20px"/><path id="path1225" d="M887.28,1180.94l-58-141.25-204.93,82.88,58,141.25" style="fill:#fbf4e8;stroke:#3a3632;stroke-linecap:round;stroke-linejoin:round;stroke-width:20px"/><path id="path1227" d="M827.81,1036c10.65,26-26.52,65.79-83,89s-110.94,21-121.59-5,26.51-65.79,83-89S817.15,1010.08,827.81,1036Z" style="fill:#fbf4e8;stroke:#3a3632;stroke-linecap:round;stroke-linejoin:round;stroke-width:20px"/></g><g id="g1213"><path id="path1207" d="M596.24,1244.63c-14,24.29-68.28,19.22-121.16-11.32h0c-52.88-30.55-84.38-75-70.35-99.3h0c14-24.29,68.28-19.22,121.16,11.32h0c52.89,30.55,84.38,75,70.35,99.3h0" style="fill:#fbf4e8;stroke:#3a3632;stroke-linecap:round;stroke-linejoin:round;stroke-width:20px"/><path id="path1209" d="M595.67,1245.61,672,1113.4,481.2,1001.86l-76.37,132.21" style="fill:#fbf4e8;stroke:#3a3632;stroke-linecap:round;stroke-linejoin:round;stroke-width:20px"/><path id="path1211" d="M674,1110c-14,24.3-68.28,19.23-121.16-11.32s-84.38-75-70.35-99.29,68.28-19.23,121.16,11.32S688.05,1085.68,674,1110Z" style="fill:#fbf4e8;stroke:#3a3632;stroke-linecap:round;stroke-linejoin:round;stroke-width:20px"/></g><g id="g1274"><path id="path1268" d="M1592.79,946.06c-12.78,25-67.21,22.66-121.58-5.16h0c-54.36-27.83-88.07-70.64-75.28-95.61h0c12.78-25,67.21-22.66,121.58,5.17h0c54.36,27.83,88.07,70.63,75.28,95.6h0" style="fill:#fbf4e8;stroke:#3a3632;stroke-linecap:round;stroke-linejoin:round;stroke-width:20px"/><path id="path1270" d="M1592.28,947.08l69.57-135.91L1465.6,709.43,1396,845.34" style="fill:#fbf4e8;stroke:#3a3632;stroke-linecap:round;stroke-linejoin:round;stroke-width:20px"/><path id="path1272" d="M1663.65,807.64c-12.78,25-67.22,22.66-121.58-5.17s-88.07-70.63-75.29-95.6S1534,684.21,1588.36,712,1676.43,782.67,1663.65,807.64Z" style="fill:#fbf4e8;stroke:#3a3632;stroke-linecap:round;stroke-linejoin:round;stroke-width:20px"/></g><g id="g1282"><path id="path1276" d="M1359.3,953.56c6.82,27.21-35.66,61.32-94.9,76.18h0c-59.23,14.86-112.79,4.85-119.62-22.36h0c-6.82-27.21,35.66-61.32,94.9-76.18h0c59.24-14.86,112.79-4.85,119.62,22.36h0" style="fill:#fbf4e8;stroke:#3a3632;stroke-linecap:round;stroke-linejoin:round;stroke-width:20px"/><path id="path1278" d="M1359.57,954.67l-37.15-148.1-214.68,52.69,37.15,148.09" style="fill:#fbf4e8;stroke:#3a3632;stroke-linecap:round;stroke-linejoin:round;stroke-width:20px"/><path id="path1280" d="M1321.46,802.73c6.82,27.22-35.66,61.32-94.9,76.18s-112.79,4.85-119.62-22.36,35.66-61.32,94.9-76.18S1314.63,775.52,1321.46,802.73Z" style="fill:#fbf4e8;stroke:#3a3632;stroke-linecap:round;stroke-linejoin:round;stroke-width:20px"/></g><g id="g1290"><path id="path1284" d="M1502.84,1067.46c-7.73,27-61.59,35.19-120.3,18.36h0c-58.7-16.83-100-52.34-92.3-79.3h0c7.73-27,61.59-35.19,120.3-18.36h0c58.71,16.83,100,52.34,92.3,79.3h0" style="fill:#fbf4e8;stroke:#3a3632;stroke-linecap:round;stroke-linejoin:round;stroke-width:20px"/><path id="path1286" d="M1502.53,1068.56l42.07-146.77-212.17-62-42.08,146.77" style="fill:#fbf4e8;stroke:#3a3632;stroke-linecap:round;stroke-linejoin:round;stroke-width:20px"/><path id="path1288" d="M1545.69,918c-7.73,27-61.59,35.19-120.29,18.36s-100-52.34-92.3-79.31,61.59-35.18,120.29-18.35S1553.42,891,1545.69,918Z" style="fill:#fbf4e8;stroke:#3a3632;stroke-linecap:round;stroke-linejoin:round;stroke-width:20px"/></g><g id="g1298"><path id="path1292" d="M1690,1210.44c0,28-49.51,50.8-110.58,50.8h0c-61.07,0-110.58-22.75-110.58-50.8h0c0-28,49.51-50.8,110.58-50.8h0c61.07,0,110.58,22.74,110.58,50.8h0" style="fill:#fbf4e8;stroke:#3a3632;stroke-linecap:round;stroke-linejoin:round;stroke-width:20px"/><path id="path1294" d="M1690,1211.58V1058.89l-221-1.13v152.68" style="fill:#fbf4e8;stroke:#3a3632;stroke-linecap:round;stroke-linejoin:round;stroke-width:20px"/><path id="path1296" d="M1690,1054.94c0,28-49.51,50.79-110.58,50.79s-110.58-22.74-110.58-50.79,49.51-50.8,110.58-50.8S1690,1026.88,1690,1054.94Z" style="fill:#fbf4e8;stroke:#3a3632;stroke-linecap:round;stroke-linejoin:round;stroke-width:20px"/></g><g id="g1306"><path id="path1300" d="M1817.64,1030c0,28-49.51,50.79-110.58,50.79h0c-61.08,0-110.58-22.74-110.58-50.79h0c0-28.06,49.5-50.8,110.58-50.8h0c61.07,0,110.58,22.74,110.58,50.8h0" style="fill:#fbf4e8;stroke:#3a3632;stroke-linecap:round;stroke-linejoin:round;stroke-width:20px"/><path id="path1302" d="M1817.64,1031.08V878.4l-221.05-1.14V1030" style="fill:#fbf4e8;stroke:#3a3632;stroke-linecap:round;stroke-linejoin:round;stroke-width:20px"/><path id="path1304" d="M1817.64,874.44c0,28.06-49.51,50.8-110.58,50.8s-110.58-22.74-110.58-50.8,49.5-50.8,110.58-50.8S1817.64,846.39,1817.64,874.44Z" style="fill:#fbf4e8;stroke:#3a3632;stroke-linecap:round;stroke-linejoin:round;stroke-width:20px"/></g><g id="g1314"><g id="g1335"><path id="path1308" d="M1748.88,1256.09c-28,1.33-53.08-47-56-108h0c-2.89-61,17.49-111.54,45.51-112.86h0c28-1.33,53.08,47,56,108h0c2.88,61-17.49,111.54-45.52,112.86h0" style="fill:#fbf4e8;stroke:#3a3632;stroke-linecap:round;stroke-linejoin:round;stroke-width:20px"/><path id="path1310" d="M1747.75,1256.15l152.51-7.22L1891,1028.07l-152.51,7.22" style="fill:#fbf4e8;stroke:#3a3632;stroke-linecap:round;stroke-linejoin:round;stroke-width:20px"/><path id="path1312" d="M1904.21,1248.74c-28,1.33-53.08-47-56-108s17.49-111.53,45.51-112.86,53.08,47.05,56,108.06S1932.24,1247.42,1904.21,1248.74Z" style="fill:#fbf4e8;stroke:#3a3632;stroke-linecap:round;stroke-linejoin:round;stroke-width:20px"/></g></g><g id="g1322"><path id="path1316" d="M1720.78,964.11c23,16.08,13.25,69.69-21.75,119.73h0c-35,50.05-82,77.59-105,61.51h0c-23-16.08-13.26-69.68,21.74-119.73h0c35-50,82-77.59,105-61.51h0" style="fill:#fbf4e8;stroke:#3a3632;stroke-linecap:round;stroke-linejoin:round;stroke-width:20px"/><path id="path1318" d="M1721.71,964.77l-125.12-87.51L1469,1057.76l125.12,87.5" style="fill:#fbf4e8;stroke:#3a3632;stroke-linecap:round;stroke-linejoin:round;stroke-width:20px"/><path id="path1320" d="M1593.34,875c23,16.08,13.26,69.69-21.74,119.74s-82,77.58-105,61.5-13.26-69.68,21.74-119.73S1570.35,858.92,1593.34,875Z" style="fill:#fbf4e8;stroke:#3a3632;stroke-linecap:round;stroke-linejoin:round;stroke-width:20px"/></g><g id="g1330"><path id="path1324" d="M1536.54,1259.65c0,28-49.51,50.8-110.58,50.8h0c-61.08,0-110.58-22.75-110.58-50.8h0c0-28.06,49.5-50.8,110.58-50.8h0c61.07,0,110.58,22.74,110.58,50.8h0" style="fill:#fbf4e8;stroke:#3a3632;stroke-linecap:round;stroke-linejoin:round;stroke-width:20px"/><path id="path1326" d="M1536.54,1260.79V1108.1l-221-1.13v152.68" style="fill:#fbf4e8;stroke:#3a3632;stroke-linecap:round;stroke-linejoin:round;stroke-width:20px"/><path id="path1328" d="M1536.54,1104.15c0,28-49.51,50.79-110.58,50.79s-110.58-22.74-110.58-50.79,49.5-50.8,110.58-50.8S1536.54,1076.09,1536.54,1104.15Z" style="fill:#fbf4e8;stroke:#3a3632;stroke-linecap:round;stroke-linejoin:round;stroke-width:20px"/></g></g></g></svg>