<svg id="Layer_1" data-name="Layer 1" xmlns="http://www.w3.org/2000/svg" xmlns:xlink="http://www.w3.org/1999/xlink" viewBox="0 0 2000 1146.9"><defs><clipPath id="clip-path"><path id="path900" d="M2340.55,1073.07V60.9c0,76,300.07,160.36,670.23,160.36s668.67-84.18,668.67-160.36V1073.07c0,76.19-298.51,194.71-668.67,194.71s-670.23-118.71-670.23-194.71Z" style="fill:none"/></clipPath></defs><ellipse cx="1000" cy="573.45" rx="980.11" ry="545.13" style="fill:#ecdaba;stroke:#3a3632;stroke-linecap:round;stroke-linejoin:round;stroke-width:20px;isolation:isolate;opacity:0.991999983787537"/><path d="M999.4,1038.42c-26.6,2.51-53.1,8-79.65,5.47-33.49-3.18-65.37-19-99-18.15-12.57.31-24.91,2.93-37.31,4.76a148.24,148.24,0,0,1-18.7,1.75,129.5,129.5,0,0,1-17-1q-16.1-1.8-32.17-3.89c-10.1-1.31-20.43-3.6-30.61-4-6.85-.26-12.25.65-18.85-2-19.93-7.89-39.37-17.41-59-26.08-11.19-5-22.53-9.94-34.59-12-13.85-2.39-28-.85-42.1-.68A215.14,215.14,0,0,1,420.92,954c-20.15-11.63-39.63-27-62.83-28.76-11.61-.89-23.65,1.75-34.75-1.79-23.89-7.6-33.42-40-57.65-46.5-14.16-3.78-30.54,2.41-43.23-4.94-11.33-6.56-14.75-21-21.87-32-9.11-14.09-24.46-22.57-38-32.42-8.1-5.88-15.86-12.78-21.19-21.34a49.14,49.14,0,0,1-5.51-13.42c-1.6-5.85-4.86-10.8-6.56-16.8-2.77-9.75-3.92-20-8.14-29.25-7.14-15.59-21.91-25.95-34.69-37.39-7.66-6.85-14.88-14.78-19.3-24.16a38,38,0,0,1-3.86-14.34c-.09-2,.51-3.95.47-5.86-.13-6.18-3.29-12.76-4.8-18.76q-2.72-10.71-4.79-21.58-2.11-11-3.59-22.17-1.5-11.32-2.37-22.73-.36-4.86-.62-9.73Q47,561.36,47,572.9c0,356.11,426.68,517.47,953,517.47s953-177.13,953-517.47q0-11.53-.66-22.82a366.24,366.24,0,0,1-38,143.24,382.3,382.3,0,0,1-24.7,42.16c-4.61,6.85-9.64,13.38-14.45,20.09-3.16,4.39-5.13,9.44-9.58,12.7-13.57,10-29.3,16.84-42.81,27.25a269.87,269.87,0,0,0-36.87,34.33c-9.9,11.12-19,23.15-30.58,32.49-31.89,25.66-77,26.89-112.87,46.69-24.88,13.75-45,36.32-72,45.11-29.4,9.55-62.77,1.27-91.43,12.89-13.38,5.42-24.61,14.73-36.4,22.84a21.48,21.48,0,0,1-4.91,2.89c-.83.29-1.7.48-2.52.83-2.53,1.07-4.78,2.77-7.29,3.92a54.49,54.49,0,0,1-8,2.88,83.11,83.11,0,0,1-21.93,2.71c-13.55,0-27.09-2-40.63-1.38a105.31,105.31,0,0,0-41.1,10.4c-9.41,4.56-18.25,10.57-28.36,13.21-7.62,2-15.61,2-23.49,1.9l-62.15-.38c-16.26-.1-33.13-.08-47.88,6.75-2,1-3.91,2.39-6.18,2.57a29.72,29.72,0,0,0-4,.8c-3,.72-6.12,1.32-9.21,1.83a170.46,170.46,0,0,1-18.6,2,323.16,323.16,0,0,1-37.73-.59c-12.69-.79-25.35-1.9-38-2.52-9-.43-18.09-.62-27.13-.24C1008.84,1037.62,1004.12,1038,999.4,1038.42Z" style="fill:#cfb5a0;isolation:isolate;opacity:0.991999983787537"/><path d="M994.17,855c28-20.34,57.5-41.3,91.76-46.19,31.38-4.48,62.8,5.09,93.74,12s64.89,10.77,93-3.87c23.73-12.36,40.8-36.79,66.58-43.93,17.29-4.78,35.63-.9,53.56-.52s38.32-4.42,47.08-20.08" style="fill:none;stroke:#3a3632;stroke-linecap:round;stroke-linejoin:round;stroke-width:10px"/><path d="M285.69,513.13c15.17-34.25-4.12-80,20.05-108.59,30.35-35.92,98.14-8.85,130.28-43.18,14.19-15.16,17.13-38.77,32.56-52.68,17.54-15.81,44.25-13.55,67.73-11.09s50.88,2.68,66.23-15.27" style="fill:none;stroke:#3a3632;stroke-linecap:round;stroke-linejoin:round;stroke-width:10px"/><path d="M1161.94,281.46c17.28,17.67,41.47,32.78,65.48,26.93,8.83-2.15,16.73-7,25.1-10.5,11.17-4.72,23.15-7.14,35.18-8.34,4.52-.46,8.91-.32,13.18-1.85a43.78,43.78,0,0,1,14.26-2.76c17.22-.44,32.2,6.07,46.76,14.64,15.06,8.85,27,12.67,45.58,9.8" style="fill:none;stroke:#3a3632;stroke-linecap:round;stroke-linejoin:round;stroke-width:10px"/><path d="M375.76,706.54c-.32,4.71.61,9.55-.63,14.11-2,7.53-9.62,12.45-17.28,13.93s-15.55.25-23.32-.49c-18.16-1.72-40.56,2-47.23,18.95-5.93,15.11,5.38,32.59,20.24,39.12s31.88,4.94,48,2.87,32.84-4.47,48.25.65c14.61,4.85,26.26,15.91,39.95,23,21.38,11.06,46.4,11.84,70.47,12.39,10.58.24,21.71.35,31-4.68s15.71-17.1,10.84-26.5c-3.16-6.08-9.84-9.27-15.38-13.31s-10.6-10.83-8.21-17.26c16.16-.33,23.57-23,15.83-37.16-6.56-12-19.14-18.9-31.25-24.23-15.37-6.78-31.13-12.7-46.64-19.18-10.61-4.43-21-10.76-32.14-13.69s-24.14-1.06-35.13,2.15C390.58,680.85,375.76,692.06,375.76,706.54Z" style="fill:#864b37"/><path d="M1726.79,508.28c-.62.47-1.23.94-1.83,1.43-7.88,6.38-13.48,15.18-22.1,20.7-2.95,1.89-6.12,4-9.49,5-10.79,3.39-23.4,2.66-28.38,15.34-4.51,11.47,4.08,24.75,15.36,29.7s24.21,3.75,36.43,2.18,24.94-3.39,36.64.49c11.1,3.69,19.95,12.08,30.33,17.46,16.24,8.39,35.25,9,53.52,9.4,8,.18,16.49.27,23.56-3.55,7.86-4.25,11.22-12.87,8-21.09-3.09-7.75-10.59-13.21-10.25-22.33.11-2.73,1.35-3.87,2.88-5.94a21,21,0,0,0,1.75-22.2c-5-9.13-14.54-14.35-23.73-18.4-11.68-5.14-23.65-9.64-35.42-14.56-14.87-6.21-27.68-13.64-44.48-11.43-5.21.69-9.58,3.19-14,5.93C1739.37,500.32,1732.68,503.87,1726.79,508.28Z" style="fill:#864b37"/><path d="M970.57,193.74a36.37,36.37,0,0,1,14.6-11.09c12.07-5.07,25.59-4.85,38.64-5.84,3.92-.3,7.92-.74,11.45-2.48,9-4.44,11.85-15.71,10-24.89-1.07-5.41-3.93-10.22-5.45-15.49-1-3.39-1.31-7.06-2.69-10.32-10.09-23.82-44.22-15.63-62.56-9.71-13.68,4.42-27.88,9.23-42.14,7.28-13.52-1.86-25.47-9.6-38.54-13.54-20.43-6.16-42.36-2.77-63.42.66-9.08,1.49-30.71,4.93-35.86,15.74-4.51,9.49-2.33,22.29,4.82,29.86,1.86,2,4,3.69,5.43,6,3.14,5.32,1.26,12,1.25,18.21,0,21.79,23.77,33.66,41.89,37.92,14.5,3.4,29.19,6,43.75,9.13,10,2.13,20,6,30.23,6.7s21.21-3,30.27-7.58c4.07-2.06,11.53-6.39,13-11,.42-1.3-.48-4-.4-5.45a24.35,24.35,0,0,1,3.24-10.43A30.07,30.07,0,0,1,970.57,193.74Z" style="fill:#864b37"/><g style="clip-path:url(#clip-path)"><ellipse cx="2930.72" cy="1274.54" rx="1010.3" ry="959.78" transform="translate(-119.14 2229.49) rotate(-40.89)" style="fill:#ecdaba;stroke:#3a3632;stroke-linecap:round;stroke-linejoin:round;stroke-width:20px;isolation:isolate;opacity:0.991999983787537"/><path d="M1976.26,1530.37c9.78-70.46-58.56-148.58-19.21-207.3,15.62-23.32,44.33-34.5,62.07-56.23,39.3-48.13,10.08-121.26,20.79-182.89,19.23-110.75,155.86-153.85,216.27-247.9,35.28-54.92,42.38-124.51,76.65-180.07,30.81-50,83.46-85.59,141.45-95.74,16.93-3,34.46-3.91,50.38-10.25,23.54-9.38,40.78-29.32,59.38-46.46,61.09-56.32,145.63-86.35,229.28-81.45C2846,424,2878.39,431,2911,430.3c94.68-1.91,187-67.23,277.45-37.44,51.39,16.92,88.75,61.17,134.27,90.75,49.47,32.14,107.78,46.44,162.46,68.22s109.65,54.91,134.24,108.54c20.13,43.92,16.9,95.32,36.21,139.59,35.1,80.49,137.6,123.07,155.68,208.77,8.27,39.2-3.55,79.15-6.47,118.92-4,53.9,8.55,107.86,22.71,160.33,13.57,50.28,28.34,105.85,5.38,151.91-11.78,23.62-32.15,41.46-48.94,61.76-49.52,59.85-66.86,139.39-91.69,213.32s-64.25,150.58-135.93,180.75c-38,16-81.62,17.13-118.25,36-55.21,28.48-82.91,90.13-121.92,138.44-74.36,92.1-201.25,138.1-318.69,115.53-34.4-6.61-68.49-19-95.9-41.17-17.92-14.51-32.81-33-52.74-44.55-42.71-24.72-95.38-11.57-143.94-6.29-87.76,9.55-176.86-9.51-261.16-37.85-65.88-22.14-131.63-51.12-181.3-100.2-44.21-43.69-72.8-100.37-109.85-150.29-41-55.25-92.43-102.19-133.13-157.68s-54.5-50.16-43.27-117.32" style="fill:#c93c27;stroke:#3a3632;stroke-miterlimit:10;stroke-width:8px"/></g></svg>