<?xml version="1.0" encoding="UTF-8" standalone="no"?>
<svg
   xmlns:dc="http://purl.org/dc/elements/1.1/"
   xmlns:cc="http://creativecommons.org/ns#"
   xmlns:rdf="http://www.w3.org/1999/02/22-rdf-syntax-ns#"
   xmlns:svg="http://www.w3.org/2000/svg"
   xmlns="http://www.w3.org/2000/svg"
   xmlns:sodipodi="http://sodipodi.sourceforge.net/DTD/sodipodi-0.dtd"
   xmlns:inkscape="http://www.inkscape.org/namespaces/inkscape"
   inkscape:version="1.0beta1 (32d4812, 2019-09-19)"
   sodipodi:docname="oat.svg"
   version="1.1"
   viewBox="0 0 1761 1949.52"
   height="1949.52"
   width="1761"
   data-name="Layer 1"
   id="Layer_1">
  <metadata
     id="metadata858">
    <rdf:RDF>
      <cc:Work
         rdf:about="">
        <dc:format>image/svg+xml</dc:format>
        <dc:type
           rdf:resource="http://purl.org/dc/dcmitype/StillImage" />
        <dc:title></dc:title>
      </cc:Work>
    </rdf:RDF>
  </metadata>
  <defs
     id="defs856" />
  <sodipodi:namedview
     inkscape:current-layer="Layer_1"
     inkscape:window-maximized="0"
     inkscape:window-y="23"
     inkscape:window-x="0"
     inkscape:cy="534.76"
     inkscape:cx="280.5"
     inkscape:zoom="0.35"
     fit-margin-bottom="28"
     fit-margin-right="28"
     fit-margin-left="28"
     lock-margins="true"
     fit-margin-top="28"
     showgrid="false"
     id="namedview854"
     inkscape:window-height="907"
     inkscape:window-width="1661"
     inkscape:pageshadow="2"
     inkscape:pageopacity="0"
     guidetolerance="10"
     gridtolerance="10"
     objecttolerance="10"
     borderopacity="1"
     inkscape:document-rotation="0"
     bordercolor="#666666"
     pagecolor="#ffffff" />
  <path
     inkscape:connector-curvature="0"
     id="path833"
     style="fill:#ffffff;stroke:#231f20;stroke-width:55;stroke-linecap:round;stroke-linejoin:round"
     d="M 1679.82,1735.35 V 403.92 H 81.18 v 1331.43 c 0,102.82 83.35,186.17 186.17,186.17 h 1226.3 c 102.85,0 186.17,-83.35 186.17,-186.17 z" />
  <rect
     id="rect835"
     style="fill:#ffffff;stroke:#231f20;stroke-width:54.9997;stroke-linecap:round;stroke-linejoin:round;stroke-miterlimit:4;stroke-dasharray:none"
     height="375.92001"
     width="1705"
     y="28"
     x="28" />
  <polygon
     transform="translate(-119.5,-25.240002)"
     id="polygon837"
     style="fill:#f89d1e"
     points="1190.69,537.78 1348.84,685.4 1506.99,537.78 " />
  <polygon
     transform="translate(-119.5,-25.240002)"
     id="polygon839"
     style="fill:#f89d1e"
     points="493.01,537.78 651.16,685.4 809.31,537.78 " />
  <polygon
     transform="translate(-119.5,-25.240002)"
     id="polygon841"
     style="fill:#f89d1e"
     points="309.3,552.27 309.3,717.36 651.16,1036.46 1000,710.84 1348.84,1036.46 1690.7,717.36 1690.7,552.27 1348.84,871.37 1000,545.75 651.16,871.37 " />
  <polygon
     transform="translate(-119.5,-25.240002)"
     id="polygon843"
     style="fill:#f89d1e"
     points="309.3,903.33 309.3,1068.42 651.16,1387.52 1000,1061.89 1348.84,1387.52 1690.7,1068.42 1690.7,903.33 1348.84,1222.43 1000,896.81 651.16,1222.43 " />
  <polygon
     transform="translate(-119.5,-25.240002)"
     id="polygon845"
     style="fill:#f89d1e"
     points="309.3,1254.39 309.3,1419.48 651.16,1738.58 1000,1412.95 1348.84,1738.58 1690.7,1419.48 1690.7,1254.39 1348.84,1573.48 1000,1247.86 651.16,1573.48 " />
  <path
     inkscape:connector-curvature="0"
     id="path847"
     style="fill:#f89d1e"
     d="m 1493.66,1812.91 c 1.79,0 3.56,-0.09 5.32,-0.21 l 71.47,-66.71 a 77.66,77.66 0 0 0 0.75,-10.63 V 1580.2 l -249.3,232.71 z" />
  <path
     inkscape:connector-curvature="0"
     id="path849"
     style="fill:#f89d1e"
     d="M 439.1,1812.91 189.8,1580.2 v 155.16 a 77.66,77.66 0 0 0 0.75,10.63 l 71.47,66.71 c 1.76,0.12 3.54,0.21 5.33,0.21 z" />
  <polygon
     transform="translate(-119.5,-25.240002)"
     id="polygon851"
     style="fill:#f89d1e"
     points="920.58,1838.15 1000,1764.01 1079.42,1838.15 1256.28,1838.15 1000,1598.92 743.72,1838.15 " />
</svg>
