<?xml version="1.0" encoding="UTF-8" standalone="no"?>
<svg
   xmlns:dc="http://purl.org/dc/elements/1.1/"
   xmlns:cc="http://creativecommons.org/ns#"
   xmlns:rdf="http://www.w3.org/1999/02/22-rdf-syntax-ns#"
   xmlns:svg="http://www.w3.org/2000/svg"
   xmlns="http://www.w3.org/2000/svg"
   xmlns:sodipodi="http://sodipodi.sourceforge.net/DTD/sodipodi-0.dtd"
   xmlns:inkscape="http://www.inkscape.org/namespaces/inkscape"
   inkscape:version="1.0beta1 (32d4812, 2019-09-19)"
   sodipodi:docname="oregano.svg"
   version="1.1"
   viewBox="0 0 1970.1523 1939.0137"
   height="1939.0137"
   width="1970.1523"
   data-name="Layer 1"
   id="Layer_1">
  <metadata
     id="metadata842">
    <rdf:RDF>
      <cc:Work
         rdf:about="">
        <dc:format>image/svg+xml</dc:format>
        <dc:type
           rdf:resource="http://purl.org/dc/dcmitype/StillImage" />
        <dc:title></dc:title>
      </cc:Work>
    </rdf:RDF>
  </metadata>
  <defs
     id="defs840" />
  <sodipodi:namedview
     inkscape:current-layer="Layer_1"
     inkscape:window-maximized="0"
     inkscape:window-y="23"
     inkscape:window-x="0"
     inkscape:cy="529.5025"
     inkscape:cx="385.07615"
     inkscape:zoom="0.35"
     fit-margin-bottom="28"
     fit-margin-right="28"
     fit-margin-left="28"
     lock-margins="true"
     fit-margin-top="28"
     showgrid="false"
     id="namedview838"
     inkscape:window-height="907"
     inkscape:window-width="1600"
     inkscape:pageshadow="2"
     inkscape:pageopacity="0"
     guidetolerance="10"
     gridtolerance="10"
     objecttolerance="10"
     borderopacity="1"
     inkscape:document-rotation="0"
     bordercolor="#666666"
     pagecolor="#ffffff" />
  <path
     inkscape:connector-curvature="0"
     id="path833"
     style="fill:#ffffff;stroke:#231f20;stroke-width:55;stroke-linecap:round;stroke-linejoin:round"
     d="m 1291.7961,236.6725 27.63,70 71.94,-22 c 286,-87.6 531.51,220.25 382.47,479.6 l -37.49,65.23 62.08,42.51 c 246.8,169 159.18,552.88 -136.5,598.05 l -74.38,11.37 5.47,75 c 21.76,298.32 -333,469.17 -552.68,266.16 l -55.25995,-51.09 -55.26,51.07 c -219.67,203 -574.44,32.16 -552.68,-266.16 l 5.47,-75 -74.38,-11.37 c -295.68,-45.17 -383.3,-429 -136.5,-598 l 62.08,-42.54 -37.49,-65.23 c -149,-259.35 96.47,-567.2 382.47,-479.6 l 71.94,22 27.63,-70 c 109.84,-278.23 503.59995,-278.23 613.43995,0 z" />
  <path
     inkscape:connector-curvature="0"
     id="path835"
     style="fill:#328ecd"
     d="m 708.30615,1803.4025 c -62.12,0 -124.64,-27.35 -167.24,-73.17 -29.07,-31.26 -62.49,-85.44 -56.62,-166 l 12.71,-174.22 -172.68,-26.36 c -110.14,-16.84 -166.77,-99 -183,-170.17 -16.23,-71.17 -0.87,-169.79 91.09,-232.74 l 144.1,-98.7 -87,-151.42 c -40.66,-70.68 -40.88,-151.12 -0.59,-220.61 40.34,-69.71 113.25,-113 190.26,-113 a 232,232 0 0 1 68,10.51 l 167,51.15 64.15,-162.49 c 40.86,-103.68 133.52,-140.57 206.59,-140.57 73.06995,0 165.71995,36.89 206.62995,140.56 l 64.14,162.49 167,-51.15 a 232,232 0 0 1 68,-10.51 c 77,0 149.94,43.3 190.27,113 40.24,69.52 40,149.93 -0.59,220.61 l -87.06,151.42 144.13,98.7 c 92,63 107.34,161.49 91.09,232.73 -16.25,71.24 -72.89,153.34 -183.06,170.18 l -172.66,26.36 12.71,174.22 c 5.87,80.53 -27.54,134.71 -56.61,166 -42.62,45.82 -105.15,73.2 -167.28,73.2 -54.76,0 -106.09,-20.69 -148.45,-59.83 l -128.25995,-118.61 -128.29,118.59 c -42.35,39.14 -93.7,59.83 -148.45,59.83 z" />
</svg>
