<?xml version="1.0" encoding="UTF-8"?>
<svg id="Isolation_Mode" data-name="Isolation Mode" xmlns="http://www.w3.org/2000/svg" width="2000" height="2000" viewBox="0 0 2000 2000">
  <g>
    <g>
      <path d="m1786.64,1375.92c0-158.19-211.7-286.43-472.85-286.43s-472.85,128.24-472.85,286.43v59.54c0,158.19,211.7,286.43,472.85,286.43s472.85-128.24,472.85-286.43v-59.54Z" style="fill: #3a3632; stroke: #3a3632; stroke-miterlimit: 10; stroke-width: 20px;"/>
      <ellipse cx="1313.79" cy="1375.92" rx="437.41" ry="264.96" style="fill: #544e49;"/>
    </g>
    <path d="m1786.64,1288.61c0-158.19-211.7-286.43-472.85-286.43s-472.85,128.24-472.85,286.43v59.54c0,158.19,211.7,286.43,472.85,286.43s472.85-128.24,472.85-286.43v-59.54Z" style="fill: #f9f5f2; stroke: #3a3632; stroke-miterlimit: 10; stroke-width: 20px;"/>
    <g>
      <path d="m1786.64,1168.67c0-158.19-211.7-286.43-472.85-286.43s-472.85,128.24-472.85,286.43v59.54c0,158.19,211.7,286.43,472.85,286.43s472.85-128.24,472.85-286.43v-59.54Z" style="fill: #3a3632; stroke: #3a3632; stroke-miterlimit: 10; stroke-width: 20px;"/>
      <ellipse cx="1313.79" cy="1168.67" rx="437.41" ry="264.96" style="fill: #544e49;"/>
    </g>
  </g>
  <g>
    <g>
      <path d="m1943.83,1046.73c0-158.19-211.7-286.43-472.85-286.43s-472.85,128.24-472.85,286.43v59.54c0,158.19,211.7,286.43,472.85,286.43s472.85-128.24,472.85-286.43v-59.54Z" style="fill: #3a3632; stroke: #3a3632; stroke-miterlimit: 10; stroke-width: 20px;"/>
      <ellipse cx="1470.98" cy="1046.73" rx="437.41" ry="264.96" style="fill: #544e49;"/>
    </g>
    <path d="m1943.83,959.43c0-158.19-211.7-286.43-472.85-286.43s-472.85,128.24-472.85,286.43v59.54c0,158.19,211.7,286.43,472.85,286.43s472.85-128.24,472.85-286.43v-59.54Z" style="fill: #f9f5f2; stroke: #3a3632; stroke-miterlimit: 10; stroke-width: 20px;"/>
    <g>
      <path d="m1943.83,839.49c0-158.19-211.7-286.43-472.85-286.43s-472.85,128.24-472.85,286.43v59.54c0,158.19,211.7,286.43,472.85,286.43s472.85-128.24,472.85-286.43v-59.54Z" style="fill: #3a3632; stroke: #3a3632; stroke-miterlimit: 10; stroke-width: 20px;"/>
      <ellipse cx="1470.98" cy="839.49" rx="437.41" ry="264.96" style="fill: #544e49;"/>
    </g>
  </g>
  <g>
    <g>
      <path d="m1865.46,716.85c0-158.19-211.7-286.43-472.85-286.43s-472.85,128.24-472.85,286.43v59.54c0,158.19,211.7,286.43,472.85,286.43s472.85-128.24,472.85-286.43v-59.54Z" style="fill: #3a3632; stroke: #3a3632; stroke-miterlimit: 10; stroke-width: 20px;"/>
      <ellipse cx="1392.61" cy="716.85" rx="437.41" ry="264.96" style="fill: #544e49;"/>
    </g>
    <path d="m1865.46,629.55c0-158.19-211.7-286.43-472.85-286.43s-472.85,128.24-472.85,286.43v59.54c0,158.19,211.7,286.43,472.85,286.43s472.85-128.24,472.85-286.43v-59.54Z" style="fill: #f9f5f2; stroke: #3a3632; stroke-miterlimit: 10; stroke-width: 20px;"/>
    <g>
      <path d="m1865.46,509.61c0-158.19-211.7-286.43-472.85-286.43s-472.85,128.24-472.85,286.43v59.54c0,158.19,211.7,286.43,472.85,286.43s472.85-128.24,472.85-286.43v-59.54Z" style="fill: #3a3632; stroke: #3a3632; stroke-miterlimit: 10; stroke-width: 20px;"/>
      <ellipse cx="1392.61" cy="509.61" rx="437.41" ry="264.96" style="fill: #544e49;"/>
    </g>
  </g>
  <g>
    <g>
      <path d="m1017.22,1193.23c-67.4-143.11-313.57-168.93-549.83-57.66-236.26,111.27-373.14,317.49-305.74,460.61,4.28,9.1,21.09,44.77,25.37,53.87,67.4,143.11,313.57,168.93,549.83,57.66,236.26-111.27,373.14-317.49,305.74-460.61-4.28-9.1-21.09-44.77-25.37-53.87Z" style="fill: #3a3632; stroke: #3a3632; stroke-miterlimit: 10; stroke-width: 20px;"/>
      <ellipse cx="589.44" cy="1394.7" rx="437.41" ry="264.96" transform="translate(-538.07 384.08) rotate(-25.22)" style="fill: #544e49;"/>
    </g>
    <path d="m980.02,1114.25c-67.4-143.11-313.57-168.93-549.83-57.66-236.26,111.27-373.14,317.49-305.74,460.61,4.28,9.1,21.09,44.77,25.37,53.87,67.4,143.11,313.57,168.93,549.83,57.66,236.26-111.27,373.14-317.49,305.74-460.61-4.28-9.1-21.09-44.77-25.37-53.87Z" style="fill: #f9f5f2; stroke: #3a3632; stroke-miterlimit: 10; stroke-width: 20px;"/>
    <g>
      <path d="m928.92,1005.74c-67.4-143.11-313.57-168.93-549.83-57.66-236.26,111.27-373.14,317.49-305.74,460.61,4.28,9.1,21.09,44.77,25.37,53.87,67.4,143.11,313.57,168.93,549.83,57.66,236.26-111.27,373.14-317.49,305.74-460.61-4.28-9.1-21.09-44.77-25.37-53.87Z" style="fill: #3a3632; stroke: #3a3632; stroke-miterlimit: 10; stroke-width: 20px;"/>
      <ellipse cx="501.14" cy="1207.21" rx="437.41" ry="264.96" transform="translate(-466.6 328.59) rotate(-25.22)" style="fill: #544e49;"/>
    </g>
  </g>
</svg>