<svg id="Layer_1" data-name="Layer 1" xmlns="http://www.w3.org/2000/svg" viewBox="0 0 2000 2000"><path d="M1958.78,1263l-471.17,77.17a20,20,0,0,1-12.78-2.16l-202.3-109.83a20,20,0,0,1-10.46-17.58V334.81a20,20,0,0,1,22-19.9l664.27,65.65a20,20,0,0,1,18,19.69l9.21,842.78A20,20,0,0,1,1958.78,1263Z" style="fill:#ffeec4;stroke:#3a3632;stroke-miterlimit:10;stroke-width:20px"/><path d="M1932.25,1240.42l-422.71,73.82c-12.61,1.38-23.64-8.23-23.64-20.59V493.92c0-12.64,11.52-22.33,24.36-20.5l413.12-46.25a20.9,20.9,0,0,1,18.18,20.5l9.59,772.16A20.92,20.92,0,0,1,1932.25,1240.42Z" style="fill:#ead39a"/><path d="M1296.84,1190.85,1446,1299.05c9.22,1.33,17.29-8,17.29-19.92V505.27c0-12.23-8.43-21.61-17.82-19.84l-142.16-81.52c-7.64,1.44-13.3,9.88-13.3,19.83l-7,747.19C1283,1181.14,1289,1189.71,1296.84,1190.85Z" style="fill:#fffce4"/><polyline points="1278.64 320.8 1485.9 421.66 1948.55 383.77" style="fill:none;stroke:#3a3632;stroke-linecap:round;stroke-miterlimit:10;stroke-width:20px"/><path d="M68.36,1359.52c-14.58-2.74-25.12,3.19-24.8,21,.27,44.86,69.22,154.9,99.74,164.71,73.2,24.3,338.4-119.47,351.85-201.23,4.49-26.54-45.2-102.41-66.33-132.52-12.38-17-28.58-30.76-34.84-22.39C388,1197.08,83.14,1357.81,68.36,1359.52Z" style="fill:#ffeec4;stroke:#3a3632;stroke-miterlimit:10;stroke-width:20px"/><path d="M486.54,1368c-7.37-12.89-105.19,147.83-92.88,177.44C422.6,1617,704,1725.74,774.94,1683c23.13-13.78,48.7-100.8,57.94-136.4,5-20.47,4.9-41.71-5.53-41C817.41,1506.18,497.42,1378.17,486.54,1368Z" style="fill:#ead39a;stroke:#3a3632;stroke-miterlimit:10;stroke-width:20px"/><path d="M1004.67,1174.86c-11.36-9.55-47.66,175.07-25.88,198.6,51.85,57.1,353.47,62,405.32-2.61,16.94-20.92,10.89-111.41,7.26-148-2.42-20.92-9.8-40.83-19.36-36.6C1362.9,1190.25,1018.38,1180.63,1004.67,1174.86Z" style="fill:#ead39a;stroke:#3a3632;stroke-miterlimit:10;stroke-width:20px"/><path d="M1131,1641.73c7.67,15.06,127.79-162.4,115.42-196.75-29-82.93-343.08-222.17-426.19-177.43-27.06,14.4-60.94,112-73.4,152-6.76,23-7.87,47.17,4,47C762.16,1466.35,1119.15,1629.58,1131,1641.73Z" style="fill:#ead39a;stroke:#3a3632;stroke-miterlimit:10;stroke-width:20px"/><path d="M946.8,1332.51c7.67,15.07,127.8-162.39,115.42-196.75-29-82.92-343.08-222.16-426.18-177.42-27.06,14.4-60.94,112-73.41,152-6.76,23-7.87,47.17,4,47C578,1157.14,935,1320.37,946.8,1332.51Z" style="fill:#ead39a;stroke:#3a3632;stroke-miterlimit:10;stroke-width:20px"/><path d="M943.2,1004c16.48,3.75-77.29-214.61-77.29-214.61S475.62,910.78,456.8,1003.26c-6.25,30,47,118.5,69.78,153.68,13.35,19.92,31.21,36.24,38.68,27C572.39,1175.1,926.3,1005.3,943.2,1004Z" style="fill:#ead39a;stroke:#3a3632;stroke-miterlimit:10;stroke-width:20px"/><path d="M715.4,1507.72c7.67,15.07,127.8-162.39,115.42-196.75-20.47-58.55-351.6-217.58-426.18-177.42-27.06,14.4-60.94,112-73.41,152-6.76,23-7.87,46.73,4,47C439.21,1334.8,635.75,1423.82,715.4,1507.72Z" style="fill:#ead39a;stroke:#3a3632;stroke-miterlimit:10;stroke-width:20px"/><path d="M93.51,1106.46c-14.59-2.74-25.13,3.2-24.81,21,.28,44.86,69.22,154.9,99.75,164.71,73.2,24.29,338.4-119.47,351.84-201.24,4.49-26.54-45.2-102.41-66.33-132.52-12.37-17-28.58-30.76-34.83-22.39C413.17,944,108.29,1104.76,93.51,1106.46Z" style="fill:#ead39a;stroke:#3a3632;stroke-miterlimit:10;stroke-width:20px"/><path d="M606.31,1008.78c-7.36-12.88-105.19,147.84-92.87,177.45,28.93,71.49,332.67,201.82,403.65,159.06,23.12-13.78,45.64-73.46,54.87-109.06,5-20.47-14.41-90.58-24.84-89.91C937.19,1147,617.19,1018.94,606.31,1008.78Z" style="fill:#ffeec4;stroke:#3a3632;stroke-miterlimit:10;stroke-width:20px"/><path d="M628.28,1051.82c15.41,4.51-29.13-194.18-61-208-76.25-34-377.14,92.68-400.31,179.31-7.66,28.11,37.79,115.1,57.34,149.77,11.52,19.66,27.51,36.16,35.14,27.81C266.75,1192.77,612.18,1052.09,628.28,1051.82Z" style="fill:#fffce4;stroke:#3a3632;stroke-miterlimit:10;stroke-width:20px"/><path d="M1131.63,1634.68c12.13,8.56,32.8-178.45,9.13-200.07-56.46-52.55-357.43-32.15-403.67,36.61-15.13,22.27-1.51,111.93,5.18,148.1,4.17,20.64,12.13,32.73,22.36,34.86C848.55,1671.62,1117.48,1630.08,1131.63,1634.68Z" style="fill:#ffeec4;stroke:#3a3632;stroke-miterlimit:10;stroke-width:20px"/><path d="M1362.13,1571.21c12.65,7.77,21.26-180.19-3.76-200.24-59.72-48.81-358.75-9.09-400.48,62.5-13.66,23.19,5.7,111.8,14.7,147.46,5.49,20.33,15.73,38.93,24.56,33.34C1005.56,1609,1347.72,1567.53,1362.13,1571.21Z" style="fill:#ead39a;stroke:#3a3632;stroke-miterlimit:10;stroke-width:20px"/><path d="M1293.46,1120.54c-9.81-13.77-102.39,179.5-85.07,211.65,40.93,77.72,372.16,169,447.73,112.47,24.64-18.25,43.72-119.76,50.13-161.16,3.29-23.76.82-47.82-10.93-45.88C1684.14,1239.47,1306.94,1130.8,1293.46,1120.54Z" style="fill:#ead39a;stroke:#3a3632;stroke-miterlimit:10;stroke-width:20px"/><path d="M1381.64,1338.13c-9.81-13.76-102.39,179.5-85.07,211.65,40.93,77.73,372.16,169,447.73,112.48,24.64-18.25,43.72-119.77,50.14-161.17,3.28-23.75.81-47.81-10.94-45.88C1772.32,1457.06,1395.12,1348.4,1381.64,1338.13Z" style="fill:#ead39a;stroke:#3a3632;stroke-miterlimit:10;stroke-width:20px"/><path d="M1402.09,1828.6c9.19,11.65,82.18-161.77,65.63-189.23-39.19-66.43-358.86-150.42-422.74-97.64-20.83,17-34.27,79.4-38.14,116-1.88,21,27.64,87.44,37.85,85.25C1054.43,1740.86,1389.83,1820.17,1402.09,1828.6Z" style="fill:#ffeec4;stroke:#3a3632;stroke-miterlimit:10;stroke-width:20px"/><path d="M1106.11,1299.33c-13.26-6.68-6.06,181.34,20.55,199.22,63.6,43.63,358.26-21,393.82-95.88,11.67-24.26-15.06-110.92-27-145.71-7.17-19.8-16.84-30.57-27.27-31.16C1380.62,1221,1120.78,1301.79,1106.11,1299.33Z" style="fill:#ffeec4;stroke:#3a3632;stroke-miterlimit:10;stroke-width:20px"/><path d="M670.9,1583.44c12.12,8.56,53.49-152.52,29.82-174.14-56.46-52.55-378.12-58.08-424.37,10.68-15.12,22.27-1.5,111.93,5.19,148.11,4.17,20.64,29.27,30.45,39.52,32.5C443.3,1625.05,656.75,1578.84,670.9,1583.44Z" style="fill:#fffce4;stroke:#3a3632;stroke-miterlimit:10;stroke-width:20px"/><path d="M1026.34,831.05c-3.14-14.5-144.84,109.28-142,141.22,6,76.89,241.57,265.39,322.14,246,26.19-6.17,76.79-81.44,96.33-112.61,10.89-18,17.23-38.28,7.09-40.79C1300.22,1062.48,1033.65,844,1026.34,831.05Z" style="fill:#ffeec4;stroke:#3a3632;stroke-miterlimit:10;stroke-width:20px"/><path d="M568.67,707.19C557.91,697,475.1,889,495.43,913.79,543.76,973.9,880,987,935.66,925.6c18.17-19.86,17.56-110.55,16.13-147.31-1.16-21-7.33-41.34-17.12-37.7C925.34,744.06,582,713.78,568.67,707.19Z" style="fill:#ffeec4;stroke:#3a3632;stroke-miterlimit:10;stroke-width:20px"/></svg>