<svg id="Layer_1" data-name="Layer 1" xmlns="http://www.w3.org/2000/svg" viewBox="0 0 2000 2000"><path d="M1958.78,1263l-471.17,77.17a20,20,0,0,1-12.78-2.16l-202.3-109.83a20,20,0,0,1-10.46-17.58V334.81a20,20,0,0,1,22-19.9l664.27,65.65a20,20,0,0,1,18,19.69l9.21,842.78A20,20,0,0,1,1958.78,1263Z" style="fill:#ffeec4;stroke:#3a3632;stroke-miterlimit:10;stroke-width:20px"/><path d="M1932.25,1240.42l-422.71,73.82c-12.61,1.38-23.64-8.23-23.64-20.59V493.92c0-12.64,11.52-22.33,24.36-20.5l413.12-46.25a20.9,20.9,0,0,1,18.18,20.5l9.59,772.16A20.92,20.92,0,0,1,1932.25,1240.42Z" style="fill:#ead39a"/><path d="M1296.84,1190.85,1446,1299.05c9.22,1.33,17.29-8,17.29-19.92V505.27c0-12.23-8.43-21.61-17.82-19.84l-142.16-81.52c-7.64,1.44-13.3,9.88-13.3,19.83l-7,747.19C1283,1181.14,1289,1189.71,1296.84,1190.85Z" style="fill:#fffce4"/><polyline points="1278.64 320.8 1485.9 421.66 1948.55 383.77" style="fill:none;stroke:#3a3632;stroke-linecap:round;stroke-miterlimit:10;stroke-width:20px"/><path d="M1011.19,804.88l-14.38,13.34c-74.3,69-148.52,157.33-241.64,201.13-69.27,32.58-164.07,32.89-212.83,99.73-15.16,20.79-23.54,46.45-41.57,64.82-21.27,21.67-48.92,33-69,56.2-25.63,29.53-10.57,31.41-6.16,64.58,4.66,37.27-55.49,48.8-80.73,56.86-26.66,8.53-53.77,17.27-76.71,33.3-37.33,26.08-54.16,65.71-60,109.36-4.38,33-31.72,45.45-31.48,79.73.06,8.33.17,16.9,3.41,24.57,10.74,25.47,55.83,33.52,77.9,47.35,31.66,19.84,66.42,34.26,101.84,45.88,26.93,8.83,54.44,16.33,82.59,19.71,45.11,5.42,90.74.17,135.87-5.07,77.8-9,156.05-18,234.52-15.79,77.41,2.21,148.44,24,225.88,25,60,.75,123.26,1.82,181.88-13.26,61-15.68,119.85-28.29,183.54-29,19.6-.21,39.34.43,58.69-2.77,17.28-2.86,33.9-8.73,50.83-13.25,42.06-11.23,91.08-18.26,134.69-15.45,41.1,2.65,74.08-8.95,113.32-23,14.36-5.14,29.27-11,39.09-22.67,18.44-21.94,12.11-54.84,3.3-82.11-9.31-28.81-21.24-58.45-44.7-77.58-26.22-21.39-61.81-25.79-94.67-33.86s-68.2-24-79.85-55.73c-7.7-21-3.67-45.93-15.91-64.62-5.54-8.47-13.86-14.66-22-20.67-45-33.15-81.61-69.29-123.33-105.81L1018.73,811.48Z" style="fill:#ffeec4"/><path d="M684.8,1175c-3.67,1-7.15.2-8.91-3.26-4.57-8.68.86-24.19,8.12-27.07,42.07-17.16,86.86-9.8,116.28,27.51,4,5,.21,13.26-2.4,19.77-1.59,3.69-4.56,6.87-7.12,5.45-27.89-15.4-56.12-31-89.79-22.94C694.51,1176,689,1174.83,684.8,1175Z" style="fill:#fffce4;stroke:#3a3632;stroke-miterlimit:10;stroke-width:10px"/><path d="M852.58,1202.07c-4.16,3.67-9.33,5.57-14.09,3.8-12.16-4.33-15.84-22.35-8.25-30.42,43.71-47.17,108.23-74.4,173.41-63.14,8.76,1.48,9.59,11.74,10.7,19.55.49,4.51-1.22,9.61-5.61,10.27-47.76,7.25-96.15,14.55-135.1,47.24C866.16,1195.64,858,1198.78,852.58,1202.07Z" style="fill:#fffce4;stroke:#3a3632;stroke-miterlimit:10;stroke-width:10px"/><path d="M1254,964.91c5.52-.51,10.82,1,13.62,5.24,7.26,10.67-.38,27.39-11.27,29.43-63.11,12.34-131.29-3.69-177.3-51.21-6.2-6.36-.83-15.13,2.88-22.1,2.27-3.93,6.65-7,10.59-5,42.85,22.3,86.24,44.92,137,41.48C1239.24,962.1,1247.67,964.36,1254,964.91Z" style="fill:#fffce4;stroke:#3a3632;stroke-miterlimit:10;stroke-width:10px"/><path d="M762,1108c-5.49.79-10.86-.45-13.86-4.54-7.79-10.3-1-27.38,9.78-30,62.41-15.47,131.31-2.87,179.63,42.29,6.52,6,1.59,15.07-1.76,22.21-2.07,4-6.3,7.37-10.33,5.52-43.92-20.13-88.38-40.56-138.88-34.58C776.89,1110.09,768.36,1108.24,762,1108Z" style="fill:#fffce4;stroke:#3a3632;stroke-miterlimit:10;stroke-width:10px"/><path d="M652.1,1555.81c-5.49.79-10.86-.46-13.87-4.55-7.79-10.29-1-27.38,9.79-30,62.41-15.48,131.3-2.87,179.63,42.28,6.51,6,1.59,15.08-1.77,22.22-2.07,4-6.29,7.36-10.33,5.51-43.91-20.13-88.37-40.55-138.87-34.58C667,1557.88,658.46,1556,652.1,1555.81Z" style="fill:#fffce4;stroke:#3a3632;stroke-miterlimit:10;stroke-width:10px"/><path d="M770.18,1059.63c4.08-2.65,8.79-3.63,12.69-1.49,10,5.31,10.86,21.37,3.26,27.39-43.86,35.26-103.2,50.6-158.19,32.54-7.4-2.4-6.81-11.39-6.78-18.29.16-4,2.29-8.17,6.17-8.18,42.28-.18,85.1-.33,123-23.66C757.6,1063.46,765.05,1061.79,770.18,1059.63Z" style="fill:#fffce4;stroke:#3a3632;stroke-miterlimit:10;stroke-width:10px"/><path d="M537.77,1140.85c-5.54.35-10.79-1.32-13.46-5.64-6.94-10.89,1.21-27.37,12.16-29.08,63.45-10.42,131.11,7.68,175.66,56.57,6,6.54.37,15.15-3.55,22-2.38,3.86-6.86,6.84-10.74,4.67-42.15-23.6-84.83-47.52-135.65-45.62C552.44,1144.11,544.09,1141.59,537.77,1140.85Z" style="fill:#fffce4;stroke:#3a3632;stroke-miterlimit:10;stroke-width:10px"/><path d="M328,1379.35c-3.68,1-7.15.2-8.91-3.26-4.57-8.68.86-24.18,8.12-27.07,42.06-17.16,86.86-9.8,116.28,27.51,4,5,.21,13.26-2.4,19.77-1.59,3.69-4.56,6.87-7.12,5.46-27.89-15.4-56.12-31-89.8-23C337.71,1380.37,332.18,1379.2,328,1379.35Z" style="fill:#fffce4;stroke:#3a3632;stroke-miterlimit:10;stroke-width:10px"/><path d="M625.23,1347.25c-3.16,2.13-6.71,2.48-9.49-.23-7.11-6.75-7-23.18-1-28.24,34.34-29.76,79.12-37.17,119-11.27,5.36,3.45,4.46,12.48,4.08,19.48-.32,4-2.12,8-5,7.46-31.35-5.63-63.11-11.37-92.4,7.1C634.75,1345.09,629.14,1345.77,625.23,1347.25Z" style="fill:#fffce4;stroke:#3a3632;stroke-miterlimit:10;stroke-width:10px"/><path d="M691.81,1148.05c1.85-3.33,4.85-5.25,8.55-4.1,9.41,2.79,16.72,17.51,13.71,24.72-17.09,42.09-53.64,69-100.89,64-6.34-.64-9.64-9.1-12.47-15.51-1.54-3.72-1.74-8.07,1.07-8.91,30.49-9.21,61.39-18.51,79.12-48.26C684.3,1154.3,689,1151.15,691.81,1148.05Z" style="fill:#fffce4;stroke:#3a3632;stroke-miterlimit:10;stroke-width:10px"/><path d="M1648,1579.67c-3-2.06-6.44-2.86-9.37-1.29-7.49,3.87-8.47,16-3,20.66,31.75,27.23,75.38,39.61,116.47,26.68,5.52-1.72,5.27-8.52,5.38-13.74,0-3-1.52-6.2-4.4-6.26-31.3-.69-63-1.37-90.59-19.51C1657.25,1582.73,1651.76,1581.37,1648,1579.67Z" style="fill:#fffce4;stroke:#3a3632;stroke-miterlimit:10;stroke-width:10px"/><path d="M1306.58,1762.92c-3.46-1-7-.68-9.29,1.73-5.89,6-3,17.87,3.71,20.54,38.74,15.79,84,13.73,118.94-11.53,4.69-3.37,2.3-9.75.76-14.73-1-2.84-3.41-5.41-6.16-4.56-29.91,9.25-60.2,18.64-92.11,10.16C1316.31,1762.9,1310.68,1763.34,1306.58,1762.92Z" style="fill:#fffce4;stroke:#3a3632;stroke-miterlimit:10;stroke-width:10px"/><path d="M1360.43,1650.2c-3-2.06-6.43-2.86-9.36-1.3-7.49,3.88-8.48,16-3,20.67,31.76,27.23,75.39,39.61,116.47,26.67,5.53-1.71,5.28-8.51,5.39-13.73,0-3-1.53-6.2-4.4-6.27-31.31-.68-63-1.36-90.59-19.5C1369.67,1653.26,1364.19,1651.9,1360.43,1650.2Z" style="fill:#fffce4;stroke:#3a3632;stroke-miterlimit:10;stroke-width:10px"/><path d="M1131.44,1076.58c5.5-.79,10.86.46,13.87,4.55,7.79,10.29,1,27.37-9.79,30-62.41,15.48-131.3,2.87-179.63-42.29-6.51-6-1.59-15.07,1.77-22.21,2.07-4,6.29-7.37,10.33-5.52,43.91,20.14,88.38,40.56,138.87,34.58C1116.56,1074.51,1125.09,1076.35,1131.44,1076.58Z" style="fill:#fffce4;stroke:#3a3632;stroke-miterlimit:10;stroke-width:10px"/><path d="M1233.57,1198.05c-4.07,2.65-8.79,3.64-12.68,1.49-10-5.3-10.87-21.37-3.26-27.39,43.86-35.26,103.2-50.6,158.19-32.53,7.4,2.39,6.81,11.38,6.77,18.28-.15,4-2.28,8.17-6.17,8.19-42.27.17-85.09.32-123,23.65C1246.16,1194.22,1238.71,1195.89,1233.57,1198.05Z" style="fill:#fffce4;stroke:#3a3632;stroke-miterlimit:10;stroke-width:10px"/><path d="M1229.93,1062.93c3.68-1,7.15-.2,8.91,3.26,4.57,8.68-.86,24.19-8.12,27.07-42.07,17.16-86.86,9.8-116.28-27.51-4-5-.21-13.26,2.4-19.77,1.59-3.69,4.56-6.87,7.12-5.46,27.89,15.41,56.12,31,89.8,23C1220.22,1061.92,1225.75,1063.08,1229.93,1062.93Z" style="fill:#fffce4;stroke:#3a3632;stroke-miterlimit:10;stroke-width:10px"/><path d="M1454.63,1256.9c3.67-1,7.14-.2,8.9,3.26,4.58,8.68-.85,24.18-8.12,27.07-42.06,17.15-86.86,9.8-116.27-27.52-4-5-.22-13.26,2.39-19.76,1.59-3.7,4.56-6.88,7.13-5.46,27.88,15.4,56.11,31,89.79,22.94C1444.91,1255.88,1450.44,1257,1454.63,1256.9Z" style="fill:#fffce4;stroke:#3a3632;stroke-miterlimit:10;stroke-width:10px"/><path d="M1432.7,1070.71c3.16-2.13,6.71-2.48,9.49.23,7.12,6.76,7,23.18,1,28.25-34.34,29.75-79.12,37.16-119,11.27-5.36-3.45-4.46-12.49-4.08-19.49.32-4,2.12-8,5-7.46,31.35,5.64,63.11,11.37,92.41-7.09C1423.18,1072.87,1428.79,1072.2,1432.7,1070.71Z" style="fill:#fffce4;stroke:#3a3632;stroke-miterlimit:10;stroke-width:10px"/><path d="M1765.37,1486.77c3,2,6.44,2.86,9.36,1.29,7.5-3.88,8.48-16,3-20.66-31.76-27.23-75.38-39.61-116.47-26.68-5.52,1.72-5.27,8.52-5.39,13.73,0,3,1.53,6.21,4.41,6.27,31.3.69,63,1.37,90.59,19.5C1756.13,1483.7,1761.61,1485.07,1765.37,1486.77Z" style="fill:#fffce4;stroke:#3a3632;stroke-miterlimit:10;stroke-width:10px"/><path d="M1118.74,1666.47c3,2.06,6.44,2.86,9.37,1.3,7.49-3.88,8.48-16,3-20.67-31.76-27.23-75.39-39.61-116.48-26.67-5.52,1.71-5.27,8.51-5.38,13.73,0,3,1.52,6.2,4.4,6.27,31.3.68,63,1.36,90.59,19.5C1109.51,1663.41,1115,1664.77,1118.74,1666.47Z" style="fill:#fffce4;stroke:#3a3632;stroke-miterlimit:10;stroke-width:10px"/><path d="M179,1575.36c-1.85-3.09-4.68-5.26-8-5-8.42.46-14.32,11.11-11.21,17.61,17.73,37.89,52.4,67.14,95.16,72.27,5.74.71,8.31-5.59,10.56-10.3,1.21-2.75,1.17-6.28-1.43-7.53-28.24-13.51-56.85-27.18-74.53-55.06C186.18,1582,181.75,1578.45,179,1575.36Z" style="fill:#fffce4;stroke:#3a3632;stroke-miterlimit:10;stroke-width:10px"/><path d="M1117.46,1068.59c-5.53,2.15-11.42,2.15-15.54-1.39-10.6-8.83-7.66-28.26,2.94-33.56,61.25-31.22,136-34.75,197.28.59,8.25,4.71,5.3,15.31,3.53,23.55-1.17,4.71-4.77,9.2-9.42,8.25-50.59-10.35-101.84-20.86-153-2.42C1133.46,1067.14,1124.13,1067.29,1117.46,1068.59Z" style="fill:#fffce4;stroke:#3a3632;stroke-miterlimit:10;stroke-width:10px"/><path d="M1184.25,989c5.49-.79,10.86.46,13.87,4.55,7.79,10.29,1,27.38-9.79,30-62.41,15.48-131.3,2.87-179.63-42.29-6.52-6-1.59-15.07,1.77-22.21,2.07-4,6.29-7.37,10.33-5.51,43.91,20.13,88.37,40.55,138.87,34.58C1169.36,986.92,1177.89,988.76,1184.25,989Z" style="fill:#fffce4;stroke:#3a3632;stroke-miterlimit:10;stroke-width:10px"/><path d="M1328.31,1530c5.49-.79,10.86.46,13.87,4.55,7.78,10.29,1,27.37-9.79,30-62.41,15.48-131.31,2.87-179.63-42.29-6.52-6-1.59-15.07,1.76-22.21,2.07-4,6.3-7.37,10.33-5.52,43.92,20.14,88.38,40.56,138.88,34.58C1313.42,1528,1322,1529.81,1328.31,1530Z" style="fill:#fffce4;stroke:#3a3632;stroke-miterlimit:10;stroke-width:10px"/><path d="M1723.06,1525.79c5.5-.79,10.86.46,13.87,4.55,7.79,10.29,1,27.38-9.78,30-62.41,15.48-131.31,2.87-179.64-42.28-6.51-6-1.58-15.08,1.77-22.21,2.07-4,6.29-7.37,10.33-5.52,43.91,20.13,88.38,40.56,138.88,34.58C1708.18,1523.72,1716.71,1525.56,1723.06,1525.79Z" style="fill:#fffce4;stroke:#3a3632;stroke-miterlimit:10;stroke-width:10px"/><path d="M1258.23,1123c-4.07,2.64-8.79,3.63-12.68,1.49-10-5.31-10.87-21.37-3.26-27.39,43.86-35.26,103.2-50.61,158.19-32.54,7.4,2.4,6.81,11.38,6.77,18.29-.15,4-2.28,8.16-6.17,8.18-42.28.17-85.1.32-123,23.65C1270.81,1119.19,1263.36,1120.87,1258.23,1123Z" style="fill:#fffce4;stroke:#3a3632;stroke-miterlimit:10;stroke-width:10px"/><path d="M1514.4,1137.6c5.54-.35,10.79,1.32,13.46,5.64,6.93,10.89-1.21,27.37-12.17,29.08-63.45,10.42-131.11-7.68-175.65-56.57-6-6.54-.37-15.15,3.54-22,2.39-3.86,6.87-6.84,10.74-4.67,42.16,23.6,84.84,47.52,135.65,45.62C1499.73,1134.34,1508.08,1136.86,1514.4,1137.6Z" style="fill:#fffce4;stroke:#3a3632;stroke-miterlimit:10;stroke-width:10px"/><path d="M1575.89,1281.78c4.86,2.67,8.4,6.89,8.35,12,0,12.91-15.67,22.48-25.84,18.06-59.17-25.15-106.65-76.64-118.12-141.78-1.58-8.74,7.79-13,14.76-16.69,4.09-2,9.46-2.1,11.57,1.8,23,42.49,46.25,85.54,90.19,111.12C1565.24,1271.17,1571,1277.77,1575.89,1281.78Z" style="fill:#fffce4;stroke:#3a3632;stroke-miterlimit:10;stroke-width:10px"/><path d="M1055,1430.57c4.86,2.67,8.4,6.89,8.35,12,0,12.91-15.67,22.48-25.84,18.06-59.17-25.15-106.65-76.64-118.12-141.78-1.58-8.74,7.79-13,14.76-16.69,4.09-2,9.46-2.1,11.57,1.8,23,42.49,46.25,85.54,90.19,111.12C1044.34,1420,1050.05,1426.57,1055,1430.57Z" style="fill:#fffce4;stroke:#3a3632;stroke-miterlimit:10;stroke-width:10px"/><path d="M1888.16,1575.13c5.55-.05,10.7,1.91,13.14,6.36,6.34,11.25-2.69,27.27-13.72,28.38-63.92,7-130.5-14.77-172.34-66-5.64-6.85.45-15.15,4.73-21.77,2.6-3.73,7.23-6.46,11-4.08,40.82,25.84,82.14,52,133,52.89C1873.69,1571.08,1881.89,1574.05,1888.16,1575.13Z" style="fill:#fffce4;stroke:#3a3632;stroke-miterlimit:10;stroke-width:10px"/><path d="M457.85,1268.33c2.46-3.17,5.88-5.21,9.49-4.59,9.22,1.44,14.25,13.74,9.94,20.5-24.71,39.36-66.89,67.36-114.69,68.1-6.42.13-8.39-7-10.22-12.44-.95-3.14-.42-7,2.61-8.05,32.95-11.56,66.33-23.23,89.61-51.68C449.06,1274.71,454.42,1271.4,457.85,1268.33Z" style="fill:#fffce4;stroke:#3a3632;stroke-miterlimit:10;stroke-width:10px"/><path d="M252.39,1469.78c-1.65,3.65-4.49,6.44-8.15,6.69-9.3.76-17.08-10-14.48-17.59,14.77-44.07,49.19-81.19,95.48-93.15,6.21-1.63,9.81,4.88,12.86,9.7,1.66,2.83,2,6.69-.64,8.44-29.32,19-59,38.16-75,71.28C259.43,1461.5,255,1466,252.39,1469.78Z" style="fill:#fffce4;stroke:#3a3632;stroke-miterlimit:10;stroke-width:10px"/><path d="M543.29,1118.58c1.6-3.68,4.41-6.5,8.07-6.79,9.29-.87,17.2,9.81,14.69,17.42-14.25,44.24-48.21,81.77-94.35,94.29-6.19,1.7-9.87-4.76-13-9.54-1.7-2.81-2.13-6.67.54-8.45,29.09-19.32,58.56-38.87,74.1-72.18C536.35,1126.94,540.73,1122.4,543.29,1118.58Z" style="fill:#fffce4;stroke:#3a3632;stroke-miterlimit:10;stroke-width:10px"/><path d="M468.33,1594.85c3,2.05,6.43,2.86,9.36,1.29,7.49-3.88,8.48-16,3-20.66-31.76-27.23-75.39-39.61-116.47-26.68-5.53,1.71-5.28,8.52-5.39,13.73,0,3,1.52,6.21,4.4,6.27,31.3.69,63,1.37,90.59,19.5C459.09,1591.78,464.57,1593.15,468.33,1594.85Z" style="fill:#fffce4;stroke:#3a3632;stroke-miterlimit:10;stroke-width:10px"/><path d="M436.53,1825.92c3,2,6.43,2.86,9.36,1.29,7.49-3.88,8.48-16,3-20.66-31.76-27.23-75.39-39.61-116.47-26.68-5.53,1.71-5.28,8.52-5.39,13.73,0,3,1.52,6.21,4.4,6.27,31.3.69,63,1.37,90.59,19.5C427.29,1822.85,432.77,1824.22,436.53,1825.92Z" style="fill:#fffce4;stroke:#3a3632;stroke-miterlimit:10;stroke-width:10px"/><path d="M1329.86,1506.66c3,2.06,6.44,2.86,9.36,1.3,7.5-3.88,8.48-16,3-20.67-31.76-27.23-75.38-39.61-116.47-26.67-5.52,1.71-5.27,8.51-5.39,13.73,0,3,1.53,6.2,4.41,6.27,31.3.69,63,1.36,90.59,19.5C1320.62,1503.6,1326.1,1505,1329.86,1506.66Z" style="fill:#fffce4;stroke:#3a3632;stroke-miterlimit:10;stroke-width:10px"/><path d="M1029.25,1112.07c-1.85-3.1-4.69-5.26-8-5-8.42.45-14.32,11.1-11.21,17.61,17.73,37.89,52.39,67.13,95.16,72.26,5.74.71,8.31-5.59,10.56-10.3,1.21-2.75,1.17-6.28-1.43-7.52-28.24-13.51-56.86-27.18-74.53-55.07C1036.41,1118.66,1032,1115.16,1029.25,1112.07Z" style="fill:#fffce4;stroke:#3a3632;stroke-miterlimit:10;stroke-width:10px"/><path d="M358.07,1590.94c-1.86-3.09-4.69-5.26-8-5-8.43.45-14.32,11.1-11.22,17.6,17.74,37.89,52.4,67.14,95.16,72.27,5.74.71,8.32-5.59,10.57-10.3,1.2-2.75,1.16-6.28-1.44-7.52-28.24-13.52-56.85-27.19-74.52-55.07C365.22,1597.54,360.79,1594,358.07,1590.94Z" style="fill:#fffce4;stroke:#3a3632;stroke-miterlimit:10;stroke-width:10px"/><path d="M1058.19,1362.18c-1.86-3.09-4.69-5.26-8-5-8.43.45-14.32,11.1-11.21,17.6,17.73,37.89,52.39,67.14,95.16,72.27,5.74.71,8.31-5.59,10.56-10.3,1.2-2.75,1.16-6.28-1.43-7.52-28.25-13.52-56.86-27.19-74.53-55.07C1065.34,1368.78,1060.91,1365.28,1058.19,1362.18Z" style="fill:#fffce4;stroke:#3a3632;stroke-miterlimit:10;stroke-width:10px"/><path d="M1249.4,1280.4c-1.85-3.09-4.68-5.26-8-5-8.42.45-14.31,11.1-11.21,17.6,17.73,37.89,52.4,67.14,95.16,72.27,5.74.71,8.31-5.59,10.57-10.3,1.2-2.75,1.16-6.28-1.44-7.53-28.24-13.51-56.85-27.18-74.53-55.06C1256.56,1287,1252.13,1283.5,1249.4,1280.4Z" style="fill:#fffce4;stroke:#3a3632;stroke-miterlimit:10;stroke-width:10px"/><path d="M834.43,1429.9c5.53-2.15,11.42-2.15,15.54,1.39,10.6,8.83,7.66,28.26-2.94,33.56-61.25,31.22-136,34.75-197.28-.59-8.25-4.71-5.3-15.31-3.53-23.55,1.17-4.71,4.77-9.2,9.42-8.25,50.59,10.35,101.84,20.86,153,2.42C818.43,1431.35,827.76,1431.2,834.43,1429.9Z" style="fill:#fffce4;stroke:#3a3632;stroke-miterlimit:10;stroke-width:10px"/><path d="M875.83,1037.57c5.67,1.53,11.54,1.06,15.4-2.49,9.92-8.89,5.58-26.39-5.37-30.39-63.31-23.63-138.12-21-196.62,16.13-7.88,4.95-4.18,14.39-1.82,21.77,1.52,4.21,5.42,8,10,6.78,49.69-13.44,100-27.08,152.33-14.3C859.78,1037.52,869.08,1036.91,875.83,1037.57Z" style="fill:#fffce4;stroke:#3a3632;stroke-miterlimit:10;stroke-width:10px"/><path d="M1405.14,1650.47c-5.49.79-10.86-.45-13.86-4.54-7.79-10.3-1-27.38,9.78-30,62.41-15.47,131.31-2.87,179.63,42.29,6.52,6,1.59,15.07-1.76,22.21-2.07,4-6.3,7.37-10.33,5.52-43.92-20.13-88.38-40.56-138.88-34.58C1420,1652.55,1411.5,1650.7,1405.14,1650.47Z" style="fill:#fffce4;stroke:#3a3632;stroke-miterlimit:10;stroke-width:10px"/><path d="M432.62,1298.41c-5.5.78-10.86-.46-13.87-4.55-7.79-10.3-1-27.38,9.79-30,62.41-15.47,131.3-2.86,179.63,42.29,6.51,6,1.59,15.07-1.77,22.21-2.07,4-6.29,7.37-10.33,5.52-43.91-20.13-88.37-40.56-138.87-34.58C447.5,1300.48,439,1298.63,432.62,1298.41Z" style="fill:#fffce4;stroke:#3a3632;stroke-miterlimit:10;stroke-width:10px"/><path d="M913.05,1272c-5.49.79-10.86-.45-13.86-4.54-7.79-10.3-1-27.38,9.78-30,62.41-15.47,131.31-2.87,179.63,42.29,6.52,6,1.59,15.07-1.76,22.21-2.07,4-6.3,7.37-10.33,5.52-43.92-20.14-88.38-40.56-138.88-34.58C927.94,1274,919.41,1272.18,913.05,1272Z" style="fill:#fffce4;stroke:#3a3632;stroke-miterlimit:10;stroke-width:10px"/><path d="M740.85,1248.49c-5.54.34-10.79-1.33-13.46-5.65-6.94-10.88,1.21-27.37,12.16-29.08,63.45-10.41,131.11,7.69,175.66,56.58,6,6.54.37,15.15-3.55,22-2.39,3.87-6.86,6.84-10.74,4.67-42.15-23.59-84.83-47.52-135.65-45.61C755.52,1251.75,747.17,1249.23,740.85,1248.49Z" style="fill:#fffce4;stroke:#3a3632;stroke-miterlimit:10;stroke-width:10px"/><path d="M534.33,1602.48c-3.67,1-7.14.2-8.9-3.26-4.58-8.68.86-24.19,8.12-27.07,42.06-17.16,86.86-9.8,116.27,27.51,4,5,.22,13.26-2.39,19.77-1.59,3.69-4.56,6.87-7.13,5.46-27.88-15.41-56.11-31-89.79-23C544.05,1603.49,538.52,1602.33,534.33,1602.48Z" style="fill:#fffce4;stroke:#3a3632;stroke-miterlimit:10;stroke-width:10px"/><path d="M411.74,1667.16c-3.5,1.82-7.24,1.83-9.87-1.13-6.76-7.4-4.95-23.74,1.77-28.21,38.79-26.37,86.28-29.51,125.28,0,5.24,3.94,3.41,12.85,2.31,19.79-.73,4-3,7.73-6,6.94-32.16-8.57-64.73-17.29-97.15-1.68C421.9,1665.91,416,1666.05,411.74,1667.16Z" style="fill:#fffce4;stroke:#3a3632;stroke-miterlimit:10;stroke-width:10px"/><path d="M231,1592.53c-3.67,1-7.15.2-8.91-3.26-4.57-8.68.86-24.19,8.12-27.07,42.07-17.16,86.86-9.8,116.28,27.51,4,5,.21,13.26-2.39,19.77-1.6,3.69-4.57,6.87-7.13,5.46-27.88-15.41-56.12-31-89.79-23C240.73,1593.54,235.2,1592.38,231,1592.53Z" style="fill:#fffce4;stroke:#3a3632;stroke-miterlimit:10;stroke-width:10px"/><path d="M614.79,1734.48c-3.07,2.25-6.6,2.75-9.49.15-7.38-6.46-7.87-22.88-2.13-28.18,33.11-31.1,77.57-40.31,118.41-16,5.49,3.23,5,12.3,4.85,19.31-.16,4-1.79,8-4.69,7.65-31.55-4.37-63.51-8.83-92,10.79C624.22,1731.94,618.64,1732.84,614.79,1734.48Z" style="fill:#fffce4;stroke:#3a3632;stroke-miterlimit:10;stroke-width:10px"/><path d="M586.06,1098c-3.15,2.13-6.7,2.48-9.48-.23-7.12-6.75-7-23.18-1-28.24,34.33-29.75,79.12-37.17,119-11.27,5.36,3.45,4.46,12.49,4.07,19.49-.32,4-2.11,8-5,7.45-31.35-5.63-63.11-11.37-92.41,7.1C595.59,1095.88,590,1096.56,586.06,1098Z" style="fill:#fffce4;stroke:#3a3632;stroke-miterlimit:10;stroke-width:10px"/><path d="M1000.21,1009.3c3.6,0,6.91-1.35,8.41-4.31,3.91-7.48-2.25-18-9.43-18.63-41.63-4.07-84.47,10.83-110.69,45-3.54,4.58.57,10,3.47,14.34,1.75,2.44,4.81,4.2,7.2,2.6,26-17.4,52.38-35,85.38-36C990.89,1012.1,996.16,1010.07,1000.21,1009.3Z" style="fill:#fffce4;stroke:#3a3632;stroke-miterlimit:10;stroke-width:10px"/><path d="M662.29,1182.93c5.53-2.15,11.42-2.15,15.54,1.38,10.6,8.84,7.66,28.27-2.94,33.57-61.25,31.21-136,34.74-197.28-.59-8.25-4.71-5.3-15.31-3.54-23.56,1.18-4.71,4.77-9.19,9.43-8.24,50.59,10.35,101.83,20.86,153,2.42C646.29,1184.37,655.62,1184.23,662.29,1182.93Z" style="fill:#fffce4;stroke:#3a3632;stroke-miterlimit:10;stroke-width:10px"/><path d="M660.59,1363.29c4.49-3.88,10-5.85,15.11-3.9,12.94,4.77,16.67,24.07,8.46,32.61-47.26,49.92-116.55,78.29-186.09,65.5-9.35-1.68-10.12-12.65-11.22-21-.47-4.84,1.42-10.27,6.12-10.93,51.14-7.19,102.94-14.44,145-48.93C646,1370,654.73,1366.75,660.59,1363.29Z" style="fill:#fffce4;stroke:#3a3632;stroke-miterlimit:10;stroke-width:10px"/><path d="M408.9,1453.16c-5.49.79-10.86-.46-13.86-4.55-7.79-10.29-1-27.38,9.78-30,62.41-15.48,131.31-2.87,179.63,42.28,6.52,6,1.59,15.08-1.76,22.21-2.07,4-6.3,7.37-10.33,5.52-43.92-20.13-88.38-40.55-138.88-34.58C423.79,1455.23,415.26,1453.39,408.9,1453.16Z" style="fill:#fffce4;stroke:#3a3632;stroke-miterlimit:10;stroke-width:10px"/><path d="M964.64,1467.25c-3.79,4-8.75,6.44-13.66,5.13-12.52-3.14-17.92-20.71-11.13-29.48,39-51.16,100.56-84.48,166.52-79.54,8.86.63,10.68,10.76,12.53,18.42.92,4.45-.29,9.69-4.59,10.77-46.85,11.81-94.3,23.74-129.93,60C977.55,1459.54,969.74,1463.44,964.64,1467.25Z" style="fill:#fffce4;stroke:#3a3632;stroke-miterlimit:10;stroke-width:10px"/><path d="M796.28,1708.89c-5.49.79-10.86-.46-13.87-4.55-7.79-10.29-1-27.38,9.79-30,62.41-15.48,131.3-2.87,179.63,42.28,6.52,6,1.59,15.08-1.77,22.21-2.07,4.05-6.29,7.37-10.33,5.52-43.91-20.13-88.37-40.55-138.87-34.58C811.17,1711,802.64,1709.12,796.28,1708.89Z" style="fill:#fffce4;stroke:#3a3632;stroke-miterlimit:10;stroke-width:10px"/><path d="M713.85,1592.53c-3.68,1-7.15.2-8.91-3.26-4.57-8.68.86-24.19,8.12-27.07,42.06-17.16,86.86-9.8,116.28,27.51,4,5,.21,13.26-2.4,19.77-1.59,3.69-4.56,6.87-7.12,5.46-27.89-15.41-56.12-31-89.8-23C723.56,1593.54,718,1592.38,713.85,1592.53Z" style="fill:#fffce4;stroke:#3a3632;stroke-miterlimit:10;stroke-width:10px"/><path d="M615.64,1802.84c-3.67,1-7.15.19-8.91-3.26-4.57-8.69.86-24.19,8.12-27.07,42.07-17.16,86.86-9.8,116.28,27.51,4,5,.22,13.26-2.39,19.77-1.59,3.69-4.57,6.87-7.13,5.45-27.88-15.4-56.12-31-89.79-22.94C625.35,1803.85,619.83,1802.69,615.64,1802.84Z" style="fill:#fffce4;stroke:#3a3632;stroke-miterlimit:10;stroke-width:10px"/><path d="M722,1158.09c-3-2.06-6.44-2.87-9.37-1.3-7.49,3.88-8.48,16-3,20.66,31.76,27.23,75.39,39.61,116.48,26.68,5.52-1.71,5.27-8.51,5.38-13.73,0-3-1.52-6.2-4.4-6.27-31.3-.69-63-1.36-90.59-19.5C731.23,1161.15,725.75,1159.79,722,1158.09Z" style="fill:#fffce4;stroke:#3a3632;stroke-miterlimit:10;stroke-width:10px"/><path d="M480.21,1353.18c-3.53-.75-7-.15-9.13,2.43-5.41,6.48-1.61,18.05,5.27,20.2,39.83,12.8,84.84,7.31,117.71-20.54,4.43-3.72,1.56-9.89-.36-14.75-1.19-2.75-3.81-5.12-6.49-4.07-29.12,11.5-58.61,23.16-91.07,17.13C489.91,1352.42,484.33,1353.29,480.21,1353.18Z" style="fill:#fffce4;stroke:#3a3632;stroke-miterlimit:10;stroke-width:10px"/><path d="M419.84,1509.44c-3.53-.75-7-.15-9.14,2.43-5.4,6.48-1.61,18.05,5.27,20.2,39.83,12.8,84.85,7.3,117.71-20.54,4.43-3.72,1.57-9.89-.35-14.75-1.2-2.75-3.81-5.12-6.49-4.07-29.12,11.5-58.61,23.16-91.07,17.13C429.54,1508.68,424,1509.55,419.84,1509.44Z" style="fill:#fffce4;stroke:#3a3632;stroke-miterlimit:10;stroke-width:10px"/><path d="M514.61,1690.8c-3.53-.75-7-.14-9.13,2.44-5.41,6.48-1.62,18,5.27,20.19,39.82,12.8,84.84,7.31,117.71-20.53,4.42-3.73,1.56-9.9-.36-14.75-1.2-2.76-3.81-5.13-6.49-4.07-29.12,11.49-58.61,23.15-91.07,17.12C524.31,1690.05,518.73,1690.91,514.61,1690.8Z" style="fill:#fffce4;stroke:#3a3632;stroke-miterlimit:10;stroke-width:10px"/><path d="M133.24,1765.47c-3.53-.75-7-.14-9.13,2.44-5.41,6.47-1.62,18,5.27,20.19,39.82,12.8,84.84,7.31,117.71-20.54,4.42-3.72,1.56-9.89-.36-14.74-1.2-2.76-3.81-5.13-6.49-4.07-29.12,11.49-58.61,23.15-91.07,17.12C142.94,1764.72,137.36,1765.58,133.24,1765.47Z" style="fill:#fffce4;stroke:#3a3632;stroke-miterlimit:10;stroke-width:10px"/><path d="M207.88,1467.72c-3-2.06-6.44-2.87-9.36-1.3-7.5,3.88-8.48,16-3,20.66,31.76,27.23,75.38,39.61,116.47,26.68,5.52-1.71,5.27-8.51,5.39-13.73,0-3-1.53-6.21-4.41-6.27-31.3-.69-63-1.37-90.59-19.5C217.12,1470.78,211.64,1469.41,207.88,1467.72Z" style="fill:#fffce4;stroke:#3a3632;stroke-miterlimit:10;stroke-width:10px"/><path d="M871,1606.32c-3-2-6.44-2.86-9.36-1.29-7.49,3.88-8.48,16-3,20.66,31.76,27.23,75.39,39.61,116.47,26.68,5.53-1.71,5.27-8.52,5.39-13.73,0-3-1.53-6.21-4.41-6.27-31.3-.69-63-1.37-90.59-19.5C880.23,1609.39,874.75,1608,871,1606.32Z" style="fill:#fffce4;stroke:#3a3632;stroke-miterlimit:10;stroke-width:10px"/><path d="M888.52,1811.14c-3.52-.77-7-.18-9.14,2.39-5.44,6.45-1.7,18,5.17,20.22,39.77,13,84.81,7.7,117.81-20,4.44-3.7,1.6-9.88-.29-14.74-1.19-2.77-3.79-5.15-6.47-4.11-29.18,11.36-58.72,22.89-91.15,16.71C898.23,1810.43,892.64,1811.27,888.52,1811.14Z" style="fill:#fffce4;stroke:#3a3632;stroke-miterlimit:10;stroke-width:10px"/><path d="M447.73,1216.13c-3-2.06-6.44-2.87-9.37-1.3-7.49,3.88-8.48,16-3,20.66,31.75,27.23,75.38,39.61,116.47,26.68,5.52-1.71,5.27-8.51,5.38-13.73,0-3-1.52-6.21-4.4-6.27-31.3-.69-63-1.37-90.59-19.5C457,1219.19,451.48,1217.82,447.73,1216.13Z" style="fill:#fffce4;stroke:#3a3632;stroke-miterlimit:10;stroke-width:10px"/><path d="M361.29,1441.06c-3-2-6.43-2.86-9.36-1.29-7.49,3.87-8.48,16-3,20.66,31.76,27.23,75.39,39.61,116.47,26.68,5.53-1.72,5.28-8.52,5.39-13.74,0-3-1.53-6.2-4.4-6.26-31.3-.69-63-1.37-90.59-19.5C370.53,1444.12,365.05,1442.76,361.29,1441.06Z" style="fill:#fffce4;stroke:#3a3632;stroke-miterlimit:10;stroke-width:10px"/><path d="M49.44,1629.86c-3-2-6.43-2.86-9.36-1.29-7.49,3.88-8.48,16-3,20.66,31.76,27.23,75.39,39.61,116.47,26.68,5.53-1.71,5.28-8.51,5.39-13.73,0-3-1.52-6.21-4.4-6.27-31.3-.69-63-1.37-90.59-19.5C58.68,1632.93,53.2,1631.56,49.44,1629.86Z" style="fill:#fffce4;stroke:#3a3632;stroke-miterlimit:10;stroke-width:10px"/><path d="M984.32,1286.33c1.85,3.09,4.68,5.26,8,5,8.42-.46,14.32-11.11,11.21-17.61-17.73-37.89-52.4-67.14-95.16-72.27-5.74-.71-8.31,5.59-10.56,10.3-1.21,2.75-1.17,6.28,1.43,7.53,28.24,13.51,56.85,27.18,74.53,55.06C977.16,1279.74,981.59,1283.24,984.32,1286.33Z" style="fill:#fffce4;stroke:#3a3632;stroke-miterlimit:10;stroke-width:10px"/><path d="M1339.09,1541.75c-5.53,2.15-11.42,2.15-15.54-1.39-10.61-8.83-7.66-28.26,2.94-33.56,61.25-31.21,136-34.75,197.28.59,8.25,4.71,5.3,15.31,3.53,23.55-1.17,4.71-4.77,9.2-9.42,8.25-50.6-10.35-101.84-20.86-153-2.42C1355.09,1540.31,1345.76,1540.45,1339.09,1541.75Z" style="fill:#fffce4;stroke:#3a3632;stroke-miterlimit:10;stroke-width:10px"/><path d="M1256.53,1194c-5.53-2-11.42-2-15.54,1.27-10.6,8.08-7.66,25.87,2.94,30.72,61.25,28.56,136,31.8,197.29-.54,8.24-4.31,5.3-14,3.53-21.56-1.18-4.31-4.77-8.41-9.42-7.54-50.6,9.46-101.84,19.09-153,2.21C1272.53,1195.31,1263.21,1195.18,1256.53,1194Z" style="fill:#fffce4;stroke:#3a3632;stroke-miterlimit:10;stroke-width:10px"/><path d="M1388.07,1306.13c-5.53-2-11.42-2-15.54,1.27-10.6,8.08-7.66,25.87,2.94,30.72,61.25,28.57,136,31.8,197.29-.54,8.24-4.31,5.3-14,3.53-21.56-1.18-4.31-4.77-8.41-9.42-7.54-50.6,9.47-101.84,19.09-153,2.21C1404.07,1307.45,1394.75,1307.32,1388.07,1306.13Z" style="fill:#fffce4;stroke:#3a3632;stroke-miterlimit:10;stroke-width:10px"/><path d="M945.9,1424.78c5.5-.79,10.86.46,13.87,4.55,7.79,10.29,1,27.38-9.78,30-62.41,15.48-131.31,2.87-179.63-42.29-6.52-6-1.59-15.07,1.76-22.21,2.07-4,6.29-7.37,10.33-5.52,43.91,20.14,88.38,40.56,138.88,34.58C931,1422.71,939.55,1424.55,945.9,1424.78Z" style="fill:#fffce4;stroke:#3a3632;stroke-miterlimit:10;stroke-width:10px"/><path d="M496.15,1694.51c5.5-.79,10.86.46,13.87,4.55,7.79,10.29,1,27.37-9.79,30-62.41,15.48-131.3,2.87-179.63-42.29-6.51-6-1.59-15.07,1.77-22.21,2.07-4,6.29-7.37,10.33-5.52,43.91,20.14,88.38,40.56,138.87,34.58C481.27,1692.44,489.79,1694.28,496.15,1694.51Z" style="fill:#fffce4;stroke:#3a3632;stroke-miterlimit:10;stroke-width:10px"/><path d="M1304.29,1368.78c5.49-.79,10.86.45,13.87,4.54,7.79,10.3,1,27.38-9.79,30-62.41,15.47-131.3,2.87-179.63-42.29-6.52-6-1.59-15.07,1.76-22.21,2.07-4,6.3-7.37,10.33-5.52,43.92,20.13,88.38,40.56,138.88,34.58C1289.4,1366.7,1297.93,1368.55,1304.29,1368.78Z" style="fill:#fffce4;stroke:#3a3632;stroke-miterlimit:10;stroke-width:10px"/><path d="M1548.59,1482.57c-4.86.22-9.42-1.33-11.69-5.15-5.9-9.63,1.48-23.93,11.09-25.25,55.68-8.14,114.6,8.75,152.82,52.22,5.16,5.81.1,13.26-3.44,19.19-2.15,3.35-6.11,5.88-9.47,3.92-36.52-21.3-73.49-42.89-118-42C1561.37,1485.65,1554.1,1483.32,1548.59,1482.57Z" style="fill:#fffce4;stroke:#3a3632;stroke-miterlimit:10;stroke-width:10px"/><path d="M1527.77,1385c-4.85.21-9.42-1.33-11.69-5.15-5.9-9.63,1.48-23.93,11.09-25.26,55.68-8.13,114.61,8.75,152.83,52.22,5.15,5.82.09,13.27-3.44,19.2-2.15,3.34-6.12,5.88-9.47,3.92-36.52-21.3-73.5-42.9-118-42C1540.56,1388.1,1533.29,1385.76,1527.77,1385Z" style="fill:#fffce4;stroke:#3a3632;stroke-miterlimit:10;stroke-width:10px"/><path d="M1237,1189.18c3.67-1,7.15-.2,8.91,3.26,4.57,8.68-.86,24.18-8.12,27.07-42.07,17.15-86.87,9.8-116.28-27.52-4-5-.22-13.26,2.39-19.76,1.59-3.7,4.57-6.88,7.13-5.46,27.88,15.4,56.12,31,89.79,22.94C1227.24,1188.16,1232.77,1189.32,1237,1189.18Z" style="fill:#fffce4;stroke:#3a3632;stroke-miterlimit:10;stroke-width:10px"/><path d="M1172.39,1287.53c3,2,6.43,2.86,9.36,1.29,7.49-3.88,8.48-16,3-20.66-31.76-27.23-75.39-39.61-116.47-26.68-5.53,1.71-5.27,8.51-5.39,13.73,0,3,1.53,6.21,4.4,6.27,31.31.69,63,1.37,90.6,19.5C1163.15,1284.46,1168.63,1285.83,1172.39,1287.53Z" style="fill:#fffce4;stroke:#3a3632;stroke-miterlimit:10;stroke-width:10px"/><path d="M734.58,1510.17c3,2.06,6.43,2.86,9.36,1.29,7.49-3.87,8.48-16,3-20.66-31.76-27.23-75.39-39.61-116.47-26.68-5.53,1.72-5.28,8.52-5.39,13.74,0,3,1.53,6.2,4.4,6.26,31.31.69,63,1.37,90.59,19.51C725.34,1507.11,730.82,1508.47,734.58,1510.17Z" style="fill:#fffce4;stroke:#3a3632;stroke-miterlimit:10;stroke-width:10px"/><path d="M1152.18,1177.42c4.27-2.52,9.12-3.31,13-1,9.93,5.86,10.11,22.28,2.08,28.07-46.31,34-107.5,46.93-162.75,26-7.43-2.78-6.43-11.92-6.08-19,.34-4,2.7-8.23,6.66-8.07,43.11,1.74,86.78,3.52,126.47-18.56C1139.18,1180.76,1146.85,1179.39,1152.18,1177.42Z" style="fill:#fffce4;stroke:#3a3632;stroke-miterlimit:10;stroke-width:10px"/><path d="M1145.26,1666.46c4.28-2.52,9.13-3.31,13-1,9.92,5.86,10.11,22.28,2.08,28.08-46.31,34-107.5,46.93-162.75,26-7.44-2.78-6.43-11.91-6.08-18.95.34-4,2.7-8.22,6.66-8.06,43.11,1.73,86.78,3.51,126.47-18.56C1132.26,1669.8,1139.94,1668.43,1145.26,1666.46Z" style="fill:#fffce4;stroke:#3a3632;stroke-miterlimit:10;stroke-width:10px"/><path d="M1303.83,1676.05c4.27-2.51,9.13-3.31,13-1,9.93,5.86,10.11,22.28,2.08,28.08-46.3,34-107.5,46.93-162.75,26-7.43-2.78-6.43-11.91-6.08-19,.34-4,2.7-8.22,6.66-8.06,43.12,1.73,86.78,3.51,126.47-18.56C1290.83,1679.39,1298.5,1678,1303.83,1676.05Z" style="fill:#fffce4;stroke:#3a3632;stroke-miterlimit:10;stroke-width:10px"/><path d="M1708.9,1611.49c4.27-2.51,9.13-3.31,13-1,9.93,5.86,10.11,22.28,2.08,28.08-46.3,34-107.5,46.93-162.75,26-7.43-2.78-6.43-11.91-6.08-19,.34-4,2.7-8.22,6.67-8.06,43.11,1.73,86.77,3.51,126.46-18.56C1695.9,1614.83,1703.57,1613.46,1708.9,1611.49Z" style="fill:#fffce4;stroke:#3a3632;stroke-miterlimit:10;stroke-width:10px"/><path d="M1313.41,1397.79c-4.85-.27-9.24-2.26-11.12-6.29-4.91-10.18,3.87-23.66,13.56-24,56.22-2.52,113.16,20.17,146.84,67.25,4.55,6.3-1.24,13.2-5.35,18.75-2.47,3.11-6.67,5.24-9.81,3-34.21-24.84-68.84-50-113.19-53.61C1325.82,1402.14,1318.82,1399.08,1313.41,1397.79Z" style="fill:#fffce4;stroke:#3a3632;stroke-miterlimit:10;stroke-width:10px"/><path d="M1303.55,1542.71c-4-2.78-6.68-6.78-6.16-11.19,1.16-11.24,15.71-18.11,24.16-13.32,49.16,27.37,85.7,76.58,89.65,134.33.56,7.75-8,10.59-14.39,13.15-3.74,1.35-8.43,1-9.91-2.64-16.06-39.11-32.31-78.72-68.18-105.06C1311.83,1552.93,1307.48,1546.65,1303.55,1542.71Z" style="fill:#fffce4;stroke:#3a3632;stroke-miterlimit:10;stroke-width:10px"/><path d="M1195.57,1352.2c3.27,1.52,6.83,1.72,9.44-.32,6.72-5.11,5.62-17.23-.61-20.87-35.94-21.4-81.05-26.13-119.31-6.36-5.15,2.63-3.74,9.29-3,14.45.54,3,2.56,5.85,5.41,5.42,31-4.67,62.31-9.43,92.59,3.72C1185.94,1350.76,1191.58,1351.17,1195.57,1352.2Z" style="fill:#fffce4;stroke:#3a3632;stroke-miterlimit:10;stroke-width:10px"/><path d="M1648.19,1754.78c3.27,1.52,6.83,1.72,9.45-.32,6.71-5.1,5.61-17.23-.61-20.87-36-21.39-81-26.13-119.32-6.36-5.15,2.63-3.74,9.29-3,14.45.55,3,2.56,5.85,5.41,5.42,31-4.67,62.31-9.43,92.59,3.72C1638.56,1753.35,1644.2,1753.75,1648.19,1754.78Z" style="fill:#fffce4;stroke:#3a3632;stroke-miterlimit:10;stroke-width:10px"/><path d="M738.26,1316.08c-4.35.72-8.57-.26-10.9-3.64-6-8.5-.48-22.83,8.06-25.11,49.44-13.6,103.69-3.84,141.35,33.31,5.08,5,1.09,12.55-1.64,18.55-1.68,3.39-5,6.22-8.21,4.72-34.45-16.32-69.33-32.87-109.27-27.33C750,1317.65,743.27,1316.2,738.26,1316.08Z" style="fill:#fffce4;stroke:#3a3632;stroke-miterlimit:10;stroke-width:10px"/><path d="M921.45,1508.56c-3.68,1-7.15.2-8.91-3.26-4.57-8.68.86-24.18,8.12-27.07,42.07-17.15,86.86-9.8,116.28,27.52,4,5,.21,13.26-2.4,19.76-1.59,3.7-4.56,6.87-7.12,5.46-27.89-15.4-56.12-31-89.79-22.94C931.16,1509.58,925.63,1508.42,921.45,1508.56Z" style="fill:#fffce4;stroke:#3a3632;stroke-miterlimit:10;stroke-width:10px"/><path d="M1410,1473.78c-3.67,1-7.14.2-8.9-3.26-4.58-8.68.85-24.19,8.12-27.07,42.06-17.16,86.86-9.8,116.27,27.51,4,5,.22,13.26-2.39,19.77-1.59,3.69-4.56,6.87-7.13,5.46-27.88-15.41-56.11-31-89.79-23C1419.71,1474.79,1414.18,1473.63,1410,1473.78Z" style="fill:#fffce4;stroke:#3a3632;stroke-miterlimit:10;stroke-width:10px"/><path d="M1598.84,1535.91c2.72-2.66,6.15-3.65,9.37-1.48,8.22,5.36,11,21.54,6.08,27.6-28.4,35.45-71.12,50.82-115,32.54-5.9-2.43-6.64-11.48-7.53-18.44-.41-4,.64-8.22,3.57-8.23,31.86-.11,64.12-.2,89.61-23.65C1589.86,1539.75,1595.26,1538.08,1598.84,1535.91Z" style="fill:#fffce4;stroke:#3a3632;stroke-miterlimit:10;stroke-width:10px"/><path d="M1825.83,1674.63c2.72-2.67,6.15-3.65,9.37-1.49,8.22,5.36,11,21.55,6.07,27.6-28.4,35.46-71.11,50.83-115,32.54-5.89-2.43-6.64-11.48-7.52-18.43-.41-4,.64-8.23,3.57-8.24,31.85-.11,64.12-.19,89.61-23.64C1816.85,1678.47,1822.24,1676.79,1825.83,1674.63Z" style="fill:#fffce4;stroke:#3a3632;stroke-miterlimit:10;stroke-width:10px"/><path d="M1109.09,1522.09c2.72-2.66,6.14-3.64,9.36-1.48,8.22,5.36,11,21.55,6.08,27.6-28.4,35.46-71.12,50.83-115,32.54-5.89-2.43-6.64-11.48-7.53-18.43-.4-4,.65-8.23,3.57-8.24,31.86-.11,64.13-.2,89.61-23.64C1100.11,1525.94,1105.5,1524.26,1109.09,1522.09Z" style="fill:#fffce4;stroke:#3a3632;stroke-miterlimit:10;stroke-width:10px"/><path d="M1194.82,1625c-3.67,1-7.15.19-8.91-3.26-4.57-8.69.86-24.19,8.12-27.08,42.07-17.15,86.86-9.79,116.28,27.52,4,5,.21,13.26-2.4,19.76-1.59,3.7-4.56,6.88-7.12,5.46-27.89-15.4-56.12-31-89.79-22.94C1204.53,1626.05,1199,1624.89,1194.82,1625Z" style="fill:#fffce4;stroke:#3a3632;stroke-miterlimit:10;stroke-width:10px"/><path d="M609.56,1396.93c-3.67,1-7.14.2-8.9-3.26-4.58-8.68.86-24.18,8.12-27.07,42.06-17.15,86.86-9.8,116.27,27.52,4,5,.22,13.25-2.39,19.76-1.59,3.7-4.56,6.87-7.13,5.46-27.88-15.4-56.11-31-89.79-22.95C619.28,1398,613.75,1396.78,609.56,1396.93Z" style="fill:#fffce4;stroke:#3a3632;stroke-miterlimit:10;stroke-width:10px"/><path d="M952.42,985c1.85,3.1,4.69,5.26,8,5,8.43-.45,14.32-11.1,11.21-17.61-17.73-37.89-52.39-67.13-95.16-72.26-5.74-.71-8.31,5.59-10.56,10.3-1.21,2.75-1.16,6.28,1.43,7.52,28.24,13.51,56.86,27.18,74.53,55.07C945.26,978.4,949.7,981.9,952.42,985Z" style="fill:#fffce4;stroke:#3a3632;stroke-miterlimit:10;stroke-width:10px"/><path d="M739.77,1670.78c1.85,3.09,4.69,5.26,8,5,8.43-.45,14.32-11.1,11.21-17.61-17.73-37.89-52.39-67.14-95.16-72.26-5.74-.72-8.31,5.58-10.56,10.29-1.21,2.76-1.16,6.28,1.43,7.53,28.24,13.51,56.86,27.18,74.53,55.06C732.61,1664.19,737.05,1667.69,739.77,1670.78Z" style="fill:#fffce4;stroke:#3a3632;stroke-miterlimit:10;stroke-width:10px"/><path d="M823.9,906.64c-5.5.79-10.86-.45-13.87-4.54-7.79-10.3-1-27.38,9.78-30,62.41-15.47,131.31-2.87,179.63,42.29,6.52,6,1.59,15.07-1.76,22.21-2.07,4-6.29,7.37-10.33,5.52C943.44,922,899,901.59,848.47,907.57,838.78,908.72,830.25,906.87,823.9,906.64Z" style="fill:#fffce4;stroke:#3a3632;stroke-miterlimit:10;stroke-width:10px"/><path d="M957.53,1513.15c5.5-.79,10.86.45,13.87,4.54,7.79,10.3,1,27.38-9.78,30-62.41,15.47-131.31,2.87-179.63-42.29-6.52-6-1.59-15.07,1.76-22.21,2.07-4.05,6.29-7.37,10.33-5.52,43.91,20.13,88.38,40.56,138.88,34.58C942.65,1511.07,951.18,1512.92,957.53,1513.15Z" style="fill:#fffce4;stroke:#3a3632;stroke-miterlimit:10;stroke-width:10px"/><path d="M1127.79,902.76c-1.85-3.1-4.69-5.26-8-5-8.42.45-14.32,11.1-11.21,17.61,17.73,37.89,52.39,67.13,95.16,72.26,5.74.71,8.31-5.59,10.56-10.3,1.21-2.75,1.17-6.28-1.43-7.52-28.24-13.51-56.86-27.18-74.53-55.07C1135,909.35,1130.51,905.85,1127.79,902.76Z" style="fill:#fffce4;stroke:#3a3632;stroke-miterlimit:10;stroke-width:10px"/><path d="M797.22,988.13c-4.18,3.65-9.36,5.54-14.11,3.75C771,987.5,767.35,969.47,775,961.42c43.87-47,108.5-74,173.63-62.52,8.75,1.51,9.55,11.77,10.63,19.58.47,4.52-1.25,9.61-5.64,10.26-47.79,7.07-96.2,14.21-135.27,46.76C810.82,981.74,802.67,984.85,797.22,988.13Z" style="fill:#fffce4;stroke:#3a3632;stroke-miterlimit:10;stroke-width:10px"/><path d="M1030.85,791.35c-1.85-3.09-4.68-5.26-8-5-8.42.45-14.32,11.1-11.21,17.61,17.73,37.89,52.39,67.13,95.16,72.26,5.74.71,8.31-5.59,10.56-10.3,1.21-2.75,1.17-6.28-1.43-7.52-28.24-13.52-56.85-27.19-74.53-55.07C1038,798,1033.58,794.45,1030.85,791.35Z" style="fill:#fffce4;stroke:#3a3632;stroke-miterlimit:10;stroke-width:10px"/><path d="M1219.43,1386.43c4.3-4.09,9.75-6.32,14.9-4.62,13.16,4.16,17.81,23.26,10,32.18-44.84,52.1-112.71,83.73-182.78,74.26-9.41-1.24-10.71-12.16-12.2-20.46-.7-4.81.93-10.32,5.59-11.2,50.75-9.61,102.15-19.32,142.48-55.77C1205.17,1393.83,1213.74,1390.16,1219.43,1386.43Z" style="fill:#fffce4;stroke:#3a3632;stroke-miterlimit:10;stroke-width:10px"/><path d="M876.7,874.86c-5.49.79-10.86-.46-13.87-4.55-7.79-10.29-1-27.38,9.79-30,62.41-15.48,131.3-2.87,179.63,42.28,6.52,6,1.59,15.08-1.77,22.21-2.07,4-6.29,7.37-10.33,5.52-43.91-20.13-88.37-40.55-138.87-34.58C891.59,876.93,883.06,875.09,876.7,874.86Z" style="fill:#fffce4;stroke:#3a3632;stroke-miterlimit:10;stroke-width:10px"/><path d="M976.42,886.65c-5.5.79-10.86-.46-13.87-4.55-7.79-10.29-1-27.37,9.79-30,62.41-15.48,131.3-2.87,179.63,42.29,6.51,6,1.58,15.07-1.77,22.21-2.07,4-6.29,7.37-10.33,5.52C1096,902,1051.49,881.6,1001,887.58,991.3,888.72,982.77,886.88,976.42,886.65Z" style="fill:#fffce4;stroke:#3a3632;stroke-miterlimit:10;stroke-width:10px"/><path d="M1042.83,893.71c1.85,3.1,4.69,5.26,8,5,8.42-.45,14.32-11.1,11.21-17.61-17.73-37.89-52.39-67.13-95.16-72.26-5.74-.71-8.31,5.59-10.56,10.3-1.21,2.75-1.17,6.28,1.43,7.52,28.24,13.51,56.86,27.18,74.53,55.07C1035.67,887.12,1040.11,890.62,1042.83,893.71Z" style="fill:#fffce4;stroke:#3a3632;stroke-miterlimit:10;stroke-width:10px"/><path d="M1017.65,827.36c3.59.28,7-.79,8.73-3.62,4.5-7.14-.79-18.1-7.9-19.32-41.17-7.42-85.06,4-114,35.92-3.89,4.28-.24,10,2.31,14.57,1.55,2.58,4.45,4.58,7,3.18,27.34-15.24,55-30.7,88-29C1008.13,829.39,1013.55,827.8,1017.65,827.36Z" style="fill:#fffce4;stroke:#3a3632;stroke-miterlimit:10;stroke-width:10px"/></svg>