<svg id="Layer_1" data-name="Layer 1" xmlns="http://www.w3.org/2000/svg" xmlns:xlink="http://www.w3.org/1999/xlink" viewBox="0 0 1424.81 2000"><defs><clipPath id="clip-path"><path id="path900" d="M43,1499.62V487.45c0,76,300.07,160.36,670.23,160.36s668.68-84.18,668.68-160.36V1499.62c0,76.19-298.52,194.71-668.68,194.71S43,1575.61,43,1499.62Z" style="fill:none"/></clipPath></defs><path id="path900-2" data-name="path900" d="M43,1755.3V223.77c479.13,186.06,882.14,177.73,1338.91,0V1755.3h0c0,76.18-298.52,194.7-668.68,194.7S43,1831.29,43,1755.3Z" style="fill:#929497;stroke:#3a3632;stroke-linecap:round;stroke-linejoin:round;stroke-width:20px"/><path id="path900-3" data-name="path900" d="M43,1496.39V484.21c0,76,300.07,160.37,670.23,160.37s668.68-84.18,668.68-160.37V1496.39c0,76.18-298.52,194.7-668.68,194.7S43,1572.38,43,1496.39Z" style="fill:#fff;stroke:#3a3632;stroke-width:20px"/><path id="path900-4" data-name="path900" d="M1381.86,223.77c0,76.19-298.52,160.37-668.68,160.37S43,299.76,43,223.77,341.36,50,711.52,50,1381.86,147.59,1381.86,223.77Z" style="fill:#d0d2d3;stroke:#3a3632;stroke-linecap:round;stroke-linejoin:round;stroke-width:20px"/><g style="clip-path:url(#clip-path)"><ellipse cx="633.12" cy="1701.09" rx="1010.3" ry="959.78" transform="translate(-959.04 829.56) rotate(-40.89)" style="fill:#ecdaba;stroke:#3a3632;stroke-linecap:round;stroke-linejoin:round;stroke-width:20px;isolation:isolate;opacity:0.991999983787537"/><path d="M-321.34,1956.92c9.79-70.46-58.55-148.58-19.21-207.3,15.63-23.32,44.33-34.51,62.07-56.23,39.31-48.13,10.09-121.26,20.79-182.89,19.24-110.75,155.87-153.85,216.28-247.9C-6.14,1207.68,1,1138.09,35.24,1082.53c30.8-50,83.46-85.59,141.44-95.74,16.93-3,34.46-3.91,50.38-10.25,23.54-9.38,40.78-29.32,59.38-46.46,61.09-56.32,145.63-86.35,229.28-81.46,32.64,1.91,65.08,8.88,97.72,8.23,94.68-1.91,187-67.23,277.46-37.44,51.39,16.92,88.75,61.17,134.27,90.75,49.47,32.14,107.78,46.44,162.45,68.22s109.66,54.91,134.24,108.54c20.14,43.91,16.9,95.32,36.21,139.59,35.1,80.49,137.61,123.06,155.68,208.76,8.27,39.21-3.55,79.16-6.47,118.93-4,53.9,8.56,107.86,22.71,160.33,13.57,50.27,28.34,105.84,5.38,151.91-11.77,23.62-32.15,41.46-48.94,61.76-49.52,59.85-66.85,139.39-91.68,213.32s-64.26,150.58-135.94,180.75c-38,16-81.62,17.13-118.25,36-55.21,28.47-82.91,90.13-121.92,138.44-74.36,92.1-201.24,138.1-318.69,115.53-34.4-6.61-68.49-19-95.89-41.17-17.93-14.51-32.82-33-52.75-44.55-42.7-24.72-95.37-11.57-143.93-6.29-87.76,9.55-176.86-9.51-261.16-37.85-65.89-22.14-131.64-51.12-181.3-100.2-44.22-43.69-72.8-100.38-109.85-150.29-41-55.25-92.44-102.19-133.14-157.68s-54.5-50.16-43.27-117.32" style="fill:#c93c27;stroke:#3a3632;stroke-miterlimit:10;stroke-width:8px"/><path d="M810.49,2585.42c-62.32-16.46-140,36.53-188.58-5.25-19.28-16.58-26.23-43.63-43.84-61.94-39-40.6-108-22.25-162.28-38.58-97.55-29.34-121.48-156.94-199.52-221.51-45.58-37.7-107.41-51.65-153.67-88.52C21,2136.48-5.34,2085.24-8.17,2032c-.82-15.54.23-31.42-3.75-46.43-5.88-22.2-21.94-39.88-35.34-58.47-44-61.08-61.86-140.4-48.37-215.12,5.27-29.16,15.06-57.58,18-87,8.56-85.39-40.17-175.52-3.54-253.68,20.81-44.4,64.68-73.2,96.23-110.94,34.3-41,53.49-91.91,79-138.73s61.32-92.69,112.23-109c41.7-13.34,87.59-4.85,129.52-17.41,76.23-22.83,125.66-110.42,204.73-117.38,36.17-3.18,70.82,11.8,106.28,18.75,48.07,9.41,98,4,146.71-3,46.71-6.74,98.31-14,137.25,11.66,20,13.16,33.81,33.43,50.25,50.75,48.46,51,118.13,75.29,181.95,105.66s128.48,74.16,147.84,141.93c10.26,35.94,6.54,75.29,19.56,110.3,19.62,52.76,72.08,84.38,111.31,124.72,74.78,76.91,102.37,196.06,69.31,299.27-9.69,30.23-24.54,59.55-47.47,81.79-15,14.55-33.26,25.94-45.8,42.61-26.88,35.74-20.78,84.55-21.3,128.81-1,80-27.78,158.08-62.43,230.84-27.08,56.87-60.3,112.87-109.84,152.22-44.11,35-98.22,54.59-147.14,82.5-54.17,30.89-102,72.05-156.32,102.64s-51.06,43.58-110.26,26.18" style="fill:#fffef0;stroke:#3a3632;stroke-miterlimit:10;stroke-width:8px"/><circle cx="514.21" cy="1184.64" r="148.02" style="fill:#b81e4f;stroke:#3a3632;stroke-miterlimit:10;stroke-width:8px"/><circle cx="1064.11" cy="1373.02" r="142.81" style="fill:#b81e4f;stroke:#3a3632;stroke-miterlimit:10;stroke-width:8px"/><circle cx="475.01" cy="1611.1" r="142.81" style="fill:#b81e4f;stroke:#3a3632;stroke-miterlimit:10;stroke-width:8px"/></g><path id="path900-5" data-name="path900" d="M43,1496.39V484.21c0,76,300.07,160.37,670.23,160.37s668.68-84.18,668.68-160.37V1496.39c0,76.18-298.52,194.7-668.68,194.7S43,1572.38,43,1496.39Z" style="fill:none;stroke:#3a3632;stroke-linecap:round;stroke-linejoin:round;stroke-width:10px"/></svg>