<svg id="Layer_1" data-name="Layer 1" xmlns="http://www.w3.org/2000/svg" viewBox="0 0 2000 1146.78"><path d="M774.69,264.26a79,79,0,0,0-89-41.78,78.86,78.86,0,0,0-141.36-55.29c-.25-.52-.43-1.06-.69-1.59A79,79,0,0,0,402,235.65c.26.52.58,1,.85,1.51a78.86,78.86,0,0,0-41.83,145.9,78.92,78.92,0,0,0,56.18,139.79c.72,1.75,1.42,3.51,2.27,5.23a78.95,78.95,0,0,0,143.14-3.41,78.76,78.76,0,0,0,113.26-56,78.95,78.95,0,0,0,89.57-111.71c-.86-1.72-1.83-3.34-2.79-5A79,79,0,0,0,774.69,264.26Z" style="fill:#be1e2d;stroke:#3a3632;stroke-miterlimit:10;stroke-width:20px"/><path d="M1054.32,255.29a79,79,0,0,0-70-69,78.86,78.86,0,0,0-114.88-99.2c-.06-.57,0-1.14-.12-1.72a79,79,0,1,0-156.83,18.9c.07.58.21,1.13.29,1.71a78.86,78.86,0,0,0-88,123.65,78.92,78.92,0,0,0,6.44,150.52c.09,1.89.16,3.78.39,5.68a78.95,78.95,0,0,0,136.11,44.45,78.78,78.78,0,0,0,125.46-15.12,78.94,78.94,0,0,0,121.64-75.51c-.23-1.91-.6-3.77-1-5.62A79,79,0,0,0,1054.32,255.29Z" style="fill:#be1e2d;stroke:#3a3632;stroke-miterlimit:10;stroke-width:20px"/><path d="M982,106.82a79,79,0,0,0,6.75,98.1,78.86,78.86,0,0,0,20.38,150.41c-.34.47-.73.9-1.06,1.38a79,79,0,0,0,130,89.7c.33-.48.59-1,.91-1.47a78.86,78.86,0,0,0,147.84-34.35,78.93,78.93,0,0,0,94.87-117c1.18-1.48,2.37-2.94,3.47-4.52a78.95,78.95,0,0,0-72.54-123.45,78.79,78.79,0,0,0-104-71.76,78.94,78.94,0,0,0-141.15-24c-1.09,1.58-2,3.22-3,4.85A79,79,0,0,0,982,106.82Z" style="fill:#be1e2d;stroke:#3a3632;stroke-miterlimit:10;stroke-width:20px"/><path d="M1323.61,239.22a78.63,78.63,0,0,0-52.38-13.58,78.76,78.76,0,0,0-104-71.76,78.65,78.65,0,0,0-31.29-44.15" style="fill:#be1e2d;stroke:#3a3632;stroke-linecap:round;stroke-miterlimit:10;stroke-width:20px"/><path d="M490.56,498.39a79,79,0,0,0,92.95,32.07,78.86,78.86,0,0,0,146.43,39.95c.31.5.55,1,.86,1.51a79,79,0,1,0,133.34-84.7c-.31-.49-.68-.93-1-1.41a78.86,78.86,0,0,0,26.08-149.52,78.92,78.92,0,0,0-70.72-133c-.9-1.67-1.78-3.34-2.81-5a78.95,78.95,0,0,0-142,18.61,78.77,78.77,0,0,0-106.67,67.75,78.95,78.95,0,0,0-77.18,120.59c1,1.63,2.17,3.14,3.3,4.66A79,79,0,0,0,490.56,498.39Z" style="fill:#be1e2d;stroke:#3a3632;stroke-miterlimit:10;stroke-width:20px"/><path d="M745.79,235.57a78.62,78.62,0,0,0-32.95,42.93,78.77,78.77,0,0,0-106.67,67.75,78.58,78.58,0,0,0-52.85,11.58" style="fill:#be1e2d;stroke:#3a3632;stroke-linecap:round;stroke-miterlimit:10;stroke-width:20px"/><path d="M1740.16,279.84a70.77,70.77,0,0,0-47.79,74.06,70.7,70.7,0,0,0-66.08,118.94c-.49.16-1,.26-1.49.42A70.8,70.8,0,1,0,1670,607.45c.5-.17,1-.39,1.45-.57a70.7,70.7,0,0,0,124.6,54.66A70.74,70.74,0,0,0,1927,628.4c1.64-.43,3.29-.84,4.92-1.39a70.76,70.76,0,0,0,14.15-127.56,70.61,70.61,0,0,0-36.19-107.34,70.77,70.77,0,0,0-88.49-93c-1.63.55-3.19,1.22-4.75,1.88A70.79,70.79,0,0,0,1740.16,279.84Z" style="fill:#be1e2d;stroke:#3a3632;stroke-miterlimit:10;stroke-width:20px"/><path d="M1914.41,558.2a70.54,70.54,0,0,0-30.33-37.86A70.61,70.61,0,0,0,1847.89,413a70.43,70.43,0,0,0,1.22-48.49" style="fill:#be1e2d;stroke:#3a3632;stroke-linecap:round;stroke-miterlimit:10;stroke-width:20px"/><path d="M582.62,473.13a79,79,0,0,0-89-41.78,78.86,78.86,0,0,0-141.36-55.28c-.24-.53-.43-1.07-.69-1.59a79,79,0,1,0-141.59,70c.26.52.58,1,.85,1.51A78.87,78.87,0,0,0,169,591.94a78.92,78.92,0,0,0,56.19,139.78c.71,1.75,1.41,3.51,2.26,5.23a78.94,78.94,0,0,0,143.14-3.4,78.79,78.79,0,0,0,113.27-56,79,79,0,0,0,89.56-111.71c-.85-1.73-1.83-3.35-2.78-5A79,79,0,0,0,582.62,473.13Z" style="fill:#be1e2d;stroke:#3a3632;stroke-miterlimit:10;stroke-width:20px"/><path d="M1735.48,396.21a79,79,0,0,0-61.26-76.92A78.86,78.86,0,0,0,1572,207.06c0-.58.08-1.15.08-1.73a79,79,0,1,0-158,0c0,.58.07,1.15.08,1.73a78.86,78.86,0,0,0-102.18,112.23,78.92,78.92,0,0,0-11.62,150.21c-.14,1.88-.29,3.77-.29,5.69A79,79,0,0,0,1430,535.61a78.77,78.77,0,0,0,126.36,0,79,79,0,0,0,129.81-60.42c0-1.92-.15-3.81-.29-5.69A79,79,0,0,0,1735.48,396.21Z" style="fill:#be1e2d;stroke:#3a3632;stroke-miterlimit:10;stroke-width:20px"/><path d="M1611.46,590.76a79,79,0,0,0-47.17-86.28,78.86,78.86,0,0,0-81.44-128.08c.11-.57.28-1.12.38-1.69a79,79,0,1,0-155.63-27.07c-.1.57-.12,1.14-.21,1.71a78.87,78.87,0,0,0-119.91,93.06,78.92,78.92,0,0,0-37.19,146c-.46,1.84-.93,3.67-1.26,5.56a78.95,78.95,0,0,0,117.53,81.77,78.78,78.78,0,0,0,124.5,21.66,78.95,78.95,0,0,0,138.24-37.27c.33-1.9.5-3.78.69-5.66A79,79,0,0,0,1611.46,590.76Z" style="fill:#be1e2d;stroke:#3a3632;stroke-miterlimit:10;stroke-width:20px"/><path d="M1229.44,585.68a79,79,0,0,0-70.19-68.85,78.87,78.87,0,0,0-115.13-98.92c-.06-.57-.06-1.14-.13-1.72a79,79,0,1,0-156.78,19.29c.07.58.21,1.13.3,1.71a78.87,78.87,0,0,0-87.72,123.87,78.92,78.92,0,0,0,6.81,150.5c.1,1.89.18,3.78.41,5.68a78.95,78.95,0,0,0,136.22,44.11,78.77,78.77,0,0,0,125.42-15.43,78.95,78.95,0,0,0,121.46-75.82c-.24-1.91-.62-3.76-1-5.61A79,79,0,0,0,1229.44,585.68Z" style="fill:#be1e2d;stroke:#3a3632;stroke-miterlimit:10;stroke-width:20px"/><path d="M876.29,741.71A79,79,0,0,0,815,664.79,78.86,78.86,0,0,0,712.84,552.56c0-.58.09-1.14.09-1.73a79,79,0,0,0-158,0c0,.59.08,1.15.09,1.73A78.86,78.86,0,0,0,452.86,664.79,78.92,78.92,0,0,0,441.24,815c-.13,1.88-.29,3.77-.29,5.69a78.95,78.95,0,0,0,129.81,60.42,78.78,78.78,0,0,0,126.37,0,78.95,78.95,0,0,0,129.81-60.42c0-1.92-.15-3.81-.29-5.69A79,79,0,0,0,876.29,741.71Z" style="fill:#be1e2d;stroke:#3a3632;stroke-miterlimit:10;stroke-width:20px"/><path d="M1937.54,773.74a79,79,0,0,0-61.26-76.92,78.86,78.86,0,0,0-102.19-112.23c0-.58.09-1.15.09-1.73a79,79,0,0,0-158,0c0,.58.07,1.15.09,1.73a78.86,78.86,0,0,0-102.19,112.23A78.92,78.92,0,0,0,1502.49,847c-.14,1.89-.29,3.78-.29,5.7A78.95,78.95,0,0,0,1632,913.13a78.76,78.76,0,0,0,126.37,0,78.94,78.94,0,0,0,129.8-60.41c0-1.92-.15-3.81-.28-5.7A79,79,0,0,0,1937.54,773.74Z" style="fill:#be1e2d;stroke:#3a3632;stroke-miterlimit:10;stroke-width:20px"/><path d="M1483.9,804.53a79,79,0,0,0-61.26-76.92,78.86,78.86,0,0,0-102.18-112.23c0-.58.08-1.15.08-1.73a79,79,0,0,0-158,0c0,.58.07,1.15.08,1.73a78.86,78.86,0,0,0-102.18,112.23,78.92,78.92,0,0,0-11.62,150.2c-.14,1.89-.29,3.78-.29,5.7a78.95,78.95,0,0,0,129.81,60.41,78.75,78.75,0,0,0,126.36,0,78.95,78.95,0,0,0,129.81-60.41c0-1.92-.15-3.81-.29-5.7A78.94,78.94,0,0,0,1483.9,804.53Z" style="fill:#be1e2d;stroke:#3a3632;stroke-miterlimit:10;stroke-width:20px"/><path d="M1691.89,779.25a79,79,0,0,0-94.7-26.46,78.86,78.86,0,0,0-148.56-31.11c-.33-.48-.6-1-1-1.45a79,79,0,1,0-128,92.52c.34.48.73.89,1.08,1.35a78.87,78.87,0,0,0-17.08,150.82,78.92,78.92,0,0,0,78.56,128.55c1,1.61,2,3.23,3.1,4.78a78.95,78.95,0,0,0,140.6-27.06,78.78,78.78,0,0,0,102.42-74,78.94,78.94,0,0,0,69.82-125c-1.12-1.56-2.35-3-3.57-4.45A79,79,0,0,0,1691.89,779.25Z" style="fill:#be1e2d;stroke:#3a3632;stroke-miterlimit:10;stroke-width:20px"/><path d="M1452.85,1056.87a78.6,78.6,0,0,0,30.32-44.82,78.77,78.77,0,0,0,102.42-74,78.66,78.66,0,0,0,52.07-14.72" style="fill:#be1e2d;stroke:#3a3632;stroke-linecap:round;stroke-miterlimit:10;stroke-width:20px"/><path d="M490.11,752.49a79,79,0,0,0-79.44-58,78.86,78.86,0,0,0-128.25-81.18c-.14-.56-.22-1.12-.37-1.69a79,79,0,0,0-152.33,41.82c.15.57.37,1.09.54,1.65A78.86,78.86,0,0,0,61.43,790.42,78.92,78.92,0,0,0,90,938.34c.37,1.85.72,3.71,1.23,5.57A78.95,78.95,0,0,0,232.39,967.8a78.78,78.78,0,0,0,121.86-33.45,78.95,78.95,0,0,0,109.18-92.63c-.51-1.85-1.15-3.63-1.78-5.41A79,79,0,0,0,490.11,752.49Z" style="fill:#be1e2d;stroke:#3a3632;stroke-miterlimit:10;stroke-width:20px"/><path d="M169,928.8a78.57,78.57,0,0,0,44.09-31.36A78.78,78.78,0,0,0,334.93,864a78.62,78.62,0,0,0,53.93,4.45" style="fill:#be1e2d;stroke:#3a3632;stroke-linecap:round;stroke-miterlimit:10;stroke-width:20px"/><path d="M784.82,1086.7A79,79,0,0,0,875,1047.38a78.87,78.87,0,0,0,134.81-69.75c.56.17,1.08.38,1.65.54a79,79,0,0,0,40.78-152.62c-.56-.15-1.13-.22-1.69-.36a78.87,78.87,0,0,0-82-127.7,78.92,78.92,0,0,0-142.11-50c-1.79-.62-3.57-1.26-5.42-1.75A79,79,0,0,0,729,755.55a78.77,78.77,0,0,0-32.62,122.08,78.94,78.94,0,0,0,24.85,141c1.86.5,3.72.84,5.58,1.2A78.94,78.94,0,0,0,784.82,1086.7Z" style="fill:#be1e2d;stroke:#3a3632;stroke-miterlimit:10;stroke-width:20px"/><path d="M794.71,720.49a78.65,78.65,0,0,0,4.81,53.9A78.76,78.76,0,0,0,766.9,896.47a78.57,78.57,0,0,0-31.06,44.3" style="fill:#be1e2d;stroke:#3a3632;stroke-linecap:round;stroke-miterlimit:10;stroke-width:20px"/></svg>