<svg id="Layer_1" data-name="Layer 1" xmlns="http://www.w3.org/2000/svg" viewBox="0 0 2000 2000"><g id="layer2"><path id="path863" d="M1006.43,47.69C937.35,246,841.87,325.72,720,367.57c-265.27,91.09-544.8,287.93-544.8,657,0,365.14,335.3,717.26,831.24,724.11,495.94-6.85,831.23-359,831.23-724.11,0-369-279.52-565.87-544.8-657C1171,325.72,1075.51,246,1006.43,47.69Z" style="fill:#cc6469;stroke:#3a3632;stroke-linecap:round;stroke-linejoin:round;stroke-opacity:0.983806014060974;stroke-width:20px;isolation:isolate;opacity:0.990000009536743"/><path id="rect874" d="M1008.41,1750.06l-2-1702.85" style="fill:#c32026;fill-opacity:0.643724977970123;stroke:#3a3632;stroke-linecap:round;stroke-linejoin:round;stroke-opacity:0.983806014060974;stroke-width:20px;isolation:isolate;opacity:0.990000009536743"/><path id="path877" d="M911.25,1742.13c-1002.6-608-67.41-1435.19-67.41-1435.19" style="fill:none;stroke:#3a3632;stroke-linecap:round;stroke-linejoin:round;stroke-opacity:0.983806014060974;stroke-width:20px;isolation:isolate;opacity:0.990000009536743"/><path id="path879" d="M980.65,1746.1c-523.3-615.89-85.26-1494.67-85.26-1494.67" style="fill:none;stroke:#3a3632;stroke-linecap:round;stroke-linejoin:round;stroke-opacity:0.983806014060974;stroke-width:20px;isolation:isolate;opacity:0.990000009536743"/><path id="path887" d="M1105.56,1744.94C2108.17,1137,1173,309.75,1173,309.75" style="fill:none;stroke:#3a3632;stroke-linecap:round;stroke-linejoin:round;stroke-opacity:0.983806014060974;stroke-width:20px;isolation:isolate;opacity:0.990000009536743"/><path id="path889" d="M1036.17,1748.9c523.29-615.88,85.25-1494.67,85.25-1494.67" style="fill:none;stroke:#3a3632;stroke-linecap:round;stroke-linejoin:round;stroke-opacity:0.983806014060974;stroke-width:20px;isolation:isolate;opacity:0.990000009536743"/><g id="g908"><path id="path899" d="M1008.41,1750.06l-2,197.15" style="fill:#c32026;fill-opacity:0.643724977970123;stroke:#3a3632;stroke-linecap:round;stroke-linejoin:round;stroke-opacity:0.983806014060974;stroke-width:20px;isolation:isolate;opacity:0.990000009536743"/><path id="path901" d="M980.65,1746.1l-97.3,171.47" style="fill:#c32026;fill-opacity:0.643724977970123;stroke:#3a3632;stroke-linecap:round;stroke-linejoin:round;stroke-opacity:0.983806014060974;stroke-width:20px;isolation:isolate;opacity:0.990000009536743"/><path id="path903" d="M980.65,1746.1l-181.39,77.25" style="fill:#c32026;fill-opacity:0.643724977970123;stroke:#3a3632;stroke-linecap:round;stroke-linejoin:round;stroke-opacity:0.983806014060974;stroke-width:20px;isolation:isolate;opacity:0.990000009536743"/></g><path id="path912" d="M1036.17,1746.1l97.3,171.47" style="fill:#c32026;fill-opacity:0.643724977970123;stroke:#3a3632;stroke-linecap:round;stroke-linejoin:round;stroke-opacity:0.983806014060974;stroke-width:20px;isolation:isolate;opacity:0.990000009536743"/><path id="path914" d="M1036.17,1746.1l181.38,77.25" style="fill:#c32026;fill-opacity:0.643724977970123;stroke:#3a3632;stroke-linecap:round;stroke-linejoin:round;stroke-opacity:0.983806014060974;stroke-width:20px;isolation:isolate;opacity:0.990000009536743"/></g></svg>