<svg id="Layer_1" data-name="Layer 1" xmlns="http://www.w3.org/2000/svg" viewBox="0 0 2000 2000"><g id="layer2"><path id="path873" d="M1155.23,189.83H51.18L190.44,411.19H1294.49Z" style="fill:#fff;stroke:#3a3632;stroke-linecap:round;stroke-linejoin:round;stroke-width:20px"/><path id="rect867" d="M190.44,411.19,465,362V1800.32L194.9,1690.11Z" style="fill:#fff;stroke:#3a3632;stroke-linecap:round;stroke-linejoin:round;stroke-width:20px"/><path id="path871" d="M563.57,91.36h1104L1569.06,362H465Z" style="fill:#fff;stroke:#3a3632;stroke-linecap:round;stroke-linejoin:round;stroke-width:20px"/><path id="rect865" d="M465,362H1569.06V1800.32H465Z" style="fill:#fff;stroke:#3a3632;stroke-linecap:round;stroke-linejoin:round;stroke-width:20px"/></g><g id="layer3"><g id="g990"><path id="rect874" d="M752.43,660.19l312.55-.07V710.5H752.4Z" style="fill:#fff;stroke:#3a3632;stroke-linecap:round;stroke-linejoin:round;stroke-width:10px"/><path id="rect876" d="M752.4,710.5H1065l64.54,111.69-321.75-.07Z" style="fill:#fff;stroke:#3a3632;stroke-linecap:round;stroke-linejoin:round;stroke-width:10px"/><path id="path879" d="M752.4,710.5l-72,111.62,127.34.07Z" style="fill:#fff;stroke:#3a3632;stroke-linecap:round;stroke-linejoin:round;stroke-width:10px"/><rect id="rect882" x="680.43" y="822.12" width="127.34" height="497.3" style="fill:#fff;stroke:#3a3632;stroke-linecap:round;stroke-linejoin:round;stroke-width:10px"/><rect id="rect887" x="807.77" y="822.19" width="321.75" height="497.23" style="fill:#fff;stroke:#3a3632;stroke-linecap:round;stroke-linejoin:round;stroke-width:10px"/><g id="g901"><circle id="path924" cx="889.9" cy="981.55" r="4.32" style="fill:none;stroke:#3a3632;stroke-linecap:round;stroke-miterlimit:1.57153034210205;stroke-width:2.98394120415169px"/><circle id="circle926" cx="916.32" cy="981.55" r="4.32" style="fill:none;stroke:#3a3632;stroke-linecap:round;stroke-miterlimit:1.57153034210205;stroke-width:2.98394120415169px"/><path id="path948" d="M1034.49,987.29c55,0,49.94,35.57,49.94,35.57l4.63,18.66h-7.39l2.76-18.66M927.49,987.29s81.82.75,106.4,0c15.88-.49,28.68,12.79,28.68,28.67v30.31l-.12,39.86-7.62,48.7-16.92.11.5-45.38s-11.55-2.1-21-14.61H954.66l-6.39,59.88H933.83L928.58,1075h-7a28.69,28.69,0,0,1-28.68-28.68l-.07-11.68m138.25,52.11a29.87,29.87,0,0,0,7.35,2.86l-.5,45.38h-19.78l.08-40.83c4.16-1.44,8.65-4.42,12.85-7.41Zm-27.73,8.72-.16,11.65a2.88,2.88,0,0,1-5.75,0v-13Zm-18.46-9.9,0,8a2.88,2.88,0,0,1-5.76,0l0-16.06C980.47,1079.37,984.17,1084.66,984.87,1085.52ZM978.1,1075c20.81,38.29,53,11.75,53,11.75m-122.75-14.23,6,62.38,19.54,0M884.14,1010h38.55c6,0,7.26,4.8,7.26,10.77v2.66c0,6-1.29,10.77-7.26,10.77H884.14c-6,0-7.26-4.8-7.26-10.77v-2.66C876.88,1014.83,878.18,1010,884.14,1010Zm48.19-74.31c-.22,24.57-28.11,22.86-28.11,22.86m-30.44-22.86c.22,24.57,28.06,22.86,28.06,22.86m-12.15,0h27.45c6.87,0,13.29,5.59,12.4,12.4L926,997.63c-.9,6.81-1.88,12.4-1.88,12.4H882.68s-1-5.59-1.88-12.4L877.29,971C876.4,964.19,882.82,958.6,889.69,958.6Zm75.2,11s-8.16,11.8-18.22,11.8-17-11.8-17-11.8,6.9-11.8,17-11.8S964.89,969.59,964.89,969.59Zm-87.72.16s-7.22,11.64-17.28,11.64-18.21-11.8-18.21-11.8,8.15-11.8,18.21-11.8S877.17,969.75,877.17,969.75Z" style="fill:none;stroke:#3a3632;stroke-linecap:round;stroke-linejoin:round;stroke-width:10px"/></g></g><path id="path862" d="M1352.17,1198.45c-1.27,126.37-100.69,213.47-213.67,213.47S919.17,1320,918.39,1195.27c-2.5-79.83,100.22-113.07,213.2-113.07s218.4,48.57,220.58,116.25Z" style="fill:#5bc6d1;stroke:#3a3632;stroke-linecap:round;stroke-linejoin:round;stroke-width:10px"/><path id="path857" d="M1352.42,1199.58c.68,62.45-104.4,113.94-217.38,113.94S918.32,1262,917.67,1199.58c-.86-83.16,102.67-119.11,215.65-119.11s218.24,39.4,219.1,119.11Z" style="fill:#dcf0f5;stroke:#3a3632;stroke-linecap:round;stroke-linejoin:round;stroke-width:10px"/><path id="path887" d="M1288,1236.67c33.66,32.8-39.94,77.1-152.92,77.1s-188.3-46-165-80.55c39.71-46.61,118.63-55.94,166-55.94s110.48,15.37,151.91,59.39Z" style="fill:#fff;stroke:#3a3632;stroke-linecap:round;stroke-linejoin:round;stroke-width:10px"/><path id="path889" d="M1036.86,1392.59c19,43.16,173.49,44,192.48.86" style="fill:none;stroke:#3a3632;stroke-linecap:round;stroke-linejoin:round;stroke-width:10px"/><path id="path911" d="M1202.37,1225.64c54.75-59.1,96.7-96.9,157.47-183.11,11-11.59,23.2-8.54,26.25-4.88,3.05,1.83,14,12.21-.61,26.86-31.13,28.07-168.46,175.77-168.46,175.77s-8.54-3.66-14.65-14.64Z" style="fill:#fff;stroke:#3a3632;stroke-width:10px"/><path id="path1013-8" d="M1087.64,1236c8.21-2.67,19.8-3.47,26.55,1,2.71,1.77,3.31,8.26.36,9.65-9.13,4.31-23.35,2.59-31.83-2.33-2.92-1.7-4.11-5.34,4.92-8.27Z" style="fill:#faea74;stroke:#3a3632;stroke-width:5px"/><path id="path1015-7" d="M1154.54,1244.07c-8.25,2.53-19.85,3.13-26.53-1.41-2.68-1.81-3.17-8.31-.19-9.65,9.19-4.15,23.39-2.19,31.78,2.87,2.9,1.75,4,5.41-5.06,8.19Z" style="fill:#faea74;stroke:#3a3632;stroke-width:5px"/><path id="path1019-5" d="M1172.79,1264c-8.26,2.53-19.86,3.13-26.54-1.41-2.67-1.81-3.16-8.31-.19-9.66,9.2-4.15,23.39-2.19,31.79,2.88,2.89,1.75,4,5.41-5.06,8.19Z" style="fill:#faea74;stroke:#3a3632;stroke-width:5px"/><path id="path1021-9" d="M1122.68,1259.48c3.9-7.7,11.51-16.47,19.41-18.14,3.16-.67,8.18,3.49,7.09,6.56-3.39,9.51-14.65,18.38-24.11,20.91-3.27.87-6.68-.86-2.4-9.33Z" style="fill:#faea74;stroke:#3a3632;stroke-width:5px"/><path id="path1023-5" d="M1172.79,1264c-8.53-1.34-19.23-5.87-23.25-12.87-1.62-2.8.79-8.86,4-8.77,10.08.29,22,8.26,27.33,16.48C1182.76,1261.71,1182.16,1265.49,1172.79,1264Z" style="fill:#faea74;stroke:#3a3632;stroke-width:5px"/><path id="path1025-3" d="M1145.41,1225.74c8.64-.08,19.93,2.64,25,8.89,2,2.5.67,8.87-2.57,9.31-10,1.37-23.05-4.54-29.65-11.78C1136,1229.66,1135.92,1225.83,1145.41,1225.74Z" style="fill:#faea74;stroke:#3a3632;stroke-width:5px"/><path id="path1033-2" d="M1210.28,1253.24c-8.36-2.18-18.54-7.76-21.84-15.13-1.32-2.95,1.67-8.74,4.91-8.32,10,1.3,21.05,10.43,25.53,19.14C1220.43,1251.94,1219.46,1255.64,1210.28,1253.24Z" style="fill:#faea74;stroke:#3a3632;stroke-width:5px"/><path id="path1035-7" d="M1197.69,1251.92c8-3.26,19.49-4.9,26.55-1,2.83,1.57,3.9,8,1.06,9.6-8.79,5-23.1,4.28-31.91,0-3.05-1.48-4.49-5,4.3-8.61Z" style="fill:#faea74;stroke:#3a3632;stroke-width:5px"/><path id="path1039-3" d="M1217,1240.28c8.11-3,19.66-4.2,26.57,0,2.77,1.67,3.61,8.13.72,9.64-9,4.64-23.24,3.46-31.89-1.15-3-1.58-4.31-5.18,4.6-8.45Z" style="fill:#faea74;stroke:#3a3632;stroke-width:5px"/><path id="path1045-9" d="M1262.51,1251.44c-8.26,2.53-19.85,3.14-26.54-1.4-2.67-1.81-3.16-8.31-.18-9.66,9.19-4.15,23.39-2.19,31.78,2.88,2.89,1.74,4,5.4-5.06,8.18Z" style="fill:#faea74;stroke:#3a3632;stroke-width:5px"/><path id="path1047-7" d="M1248.07,1261.16c3.82-7.74,11.34-16.59,19.22-18.35,3.15-.7,8.22,3.4,7.16,6.49-3.29,9.54-14.45,18.53-23.89,21.16-3.26.91-6.69-.78-2.49-9.3Z" style="fill:#faea74;stroke:#3a3632;stroke-width:5px"/><path id="path1029-7" d="M1197.69,1251.92c-8.26,2.53-19.85,3.13-26.54-1.41-2.67-1.81-3.16-8.31-.18-9.65,9.19-4.15,23.39-2.19,31.78,2.87C1205.64,1245.48,1206.76,1249.14,1197.69,1251.92Z" style="fill:#faea74;stroke:#3a3632;stroke-width:5px"/><path id="path1259-9" d="M1272.21,1250.37c-8.2,2.7-19.78,3.55-26.56-.85-2.71-1.76-3.33-8.25-.39-9.65,9.11-4.34,23.34-2.68,31.84,2.21,2.93,1.69,4.12,5.32-4.89,8.29Z" style="fill:#faea74;stroke:#3a3632;stroke-width:5px"/><path id="path1261-5" d="M1205.28,1242.51c8.24-2.56,19.84-3.21,26.54,1.3,2.68,1.8,3.19,8.3.22,9.66-9.18,4.18-23.38,2.28-31.79-2.76-2.9-1.73-4-5.39,5-8.2Z" style="fill:#faea74;stroke:#3a3632;stroke-width:5px"/><path id="path1263-3" d="M1207.71,1205.84c7.78,3.73,16.73,11.14,18.58,19,.73,3.14-3.31,8.26-6.4,7.23-9.58-3.17-18.7-14.22-21.45-23.63C1197.49,1205.2,1199.14,1201.74,1207.71,1205.84Z" style="fill:#faea74;stroke:#3a3632;stroke-width:5px"/><path id="path1265-3" d="M1187,1222.62c8.25-2.56,19.85-3.21,26.55,1.3,2.68,1.81,3.19,8.3.22,9.66-9.18,4.18-23.38,2.28-31.79-2.75-2.9-1.74-4-5.39,5-8.21Z" style="fill:#faea74;stroke:#3a3632;stroke-width:5px"/><path id="path1267-3" d="M1237.08,1227c-3.87,7.72-11.45,16.52-19.34,18.22-3.16.68-8.2-3.46-7.11-6.54,3.35-9.52,14.57-18.43,24-21,3.26-.88,6.68.84,2.42,9.32Z" style="fill:#faea74;stroke:#3a3632;stroke-width:5px"/><path id="path1269-8" d="M1209.83,1263.19c8.53,1.3,19.25,5.79,23.3,12.77,1.62,2.8-.76,8.87-4,8.78-10.09-.24-22-8.17-27.39-16.37-1.85-2.83-1.27-6.61,8.11-5.18Z" style="fill:#faea74;stroke:#3a3632;stroke-width:5px"/><path id="path1271-5" d="M1214.48,1260.8c-8.64.11-19.94-2.56-25.08-8.79-2.06-2.49-.71-8.87,2.53-9.32,10-1.41,23.06,4.45,29.7,11.66,2.29,2.49,2.34,6.32-7.15,6.45Z" style="fill:#faea74;stroke:#3a3632;stroke-width:5px"/><path id="path1273-8" d="M1157.5,1203.58c6.33,5.86,12.68,15.59,12.12,23.64-.23,3.23-5.6,6.92-8.26,5-8.21-5.86-13.65-19.12-13.48-28.92.06-3.38,2.65-6.19,9.62.26Z" style="fill:#faea74;stroke:#3a3632;stroke-width:5px"/><path id="path1275-9" d="M1192.4,1215c-3.58,7.86-10.81,17-18.63,19-3.13.8-8.33-3.14-7.36-6.25,3-9.64,13.85-19,23.2-21.91,3.23-1,6.71.57,2.79,9.21Z" style="fill:#faea74;stroke:#3a3632;stroke-width:5px"/><path id="path1277-6" d="M1149.5,1233.55c8.37,2.15,18.57,7.69,21.9,15,1.34,3-1.64,8.75-4.88,8.34-10-1.26-21.09-10.34-25.6-19C1139.36,1234.89,1140.31,1231.18,1149.5,1233.55Z" style="fill:#faea74;stroke:#3a3632;stroke-width:5px"/><path id="path1279-0" d="M1162.1,1234.82c-8,3.29-19.48,5-26.55,1.08-2.83-1.55-3.93-8-1.09-9.59,8.77-5,23.08-4.37,31.91-.11,3.05,1.47,4.5,5-4.27,8.62Z" style="fill:#faea74;stroke:#3a3632;stroke-width:5px"/><path id="path1281-4" d="M1118.42,1209.55c8.24-2.56,19.84-3.21,26.54,1.3,2.68,1.8,3.19,8.3.22,9.66-9.18,4.18-23.38,2.28-31.79-2.75-2.9-1.74-4-5.4,5-8.21Z" style="fill:#faea74;stroke:#3a3632;stroke-width:5px"/><path id="path1283-2" d="M1142.81,1246.53c-8.09,3-19.64,4.28-26.57.15-2.78-1.66-3.64-8.12-.75-9.63,8.94-4.68,23.22-3.55,31.89,1,3,1.58,4.33,5.17-4.57,8.47Z" style="fill:#faea74;stroke:#3a3632;stroke-width:5px"/><path id="path1285-3" d="M1112.84,1200.58c-2.82,8.16-9.17,17.89-16.77,20.61-3,1.09-8.58-2.34-7.92-5.54,2.07-9.87,12-20.19,21.06-24,3.12-1.31,6.73-.05,3.63,8.91Z" style="fill:#faea74;stroke:#3a3632;stroke-width:5px"/><path id="path1287-3" d="M1032.4,1238.26c-8.54,1.25-20.1.09-26-5.4-2.37-2.2-1.87-8.7,1.27-9.58,9.72-2.71,23.46,1.37,31,7.65C1041.24,1233.09,1041.79,1236.88,1032.4,1238.26Z" style="fill:#faea74;stroke:#3a3632;stroke-width:5px"/><path id="path1289-7" d="M1097.28,1235.55c8.25-2.56,19.84-3.21,26.54,1.3,2.68,1.8,3.2,8.3.23,9.66-9.18,4.18-23.39,2.28-31.8-2.75-2.9-1.74-4-5.4,5-8.21Z" style="fill:#faea74;stroke:#3a3632;stroke-width:5px"/><path id="path1291-0" d="M1111.68,1225.77c-3.79,7.76-11.27,16.64-19.14,18.43-3.16.71-8.24-3.37-7.19-6.46,3.25-9.55,14.38-18.58,23.81-21.25,3.25-.93,6.69.75,2.52,9.28Z" style="fill:#faea74;stroke:#3a3632;stroke-width:5px"/><path id="path1293-0" d="M1093.33,1226.87c-7.66,4-18.95,6.68-26.35,3.43-3-1.3-4.62-7.6-1.94-9.46,8.3-5.75,22.61-6.4,31.78-2.94,3.17,1.19,4.93,4.59-3.49,9Z" style="fill:#faea74;stroke:#3a3632;stroke-width:5px"/><path id="path1295-1" d="M1040.16,1203.18c8.42,1.93,18.77,7.2,22.29,14.46,1.41,2.91-1.41,8.79-4.66,8.47-10-1-21.36-9.79-26.1-18.37-1.63-3-.78-6.69,8.47-4.56Z" style="fill:#faea74;stroke:#3a3632;stroke-width:5px"/><path id="path1297-0" d="M1071.19,1255.62c-7.87-3.57-17-10.8-19-18.62-.8-3.13,3.13-8.33,6.25-7.36,9.64,3,19,13.84,21.92,23.19,1,3.23-.57,6.71-9.21,2.79Z" style="fill:#faea74;stroke:#3a3632;stroke-width:5px"/><path id="path1299-3" d="M1077.94,1213.15c-4.2,7.55-12.14,16-20.1,17.38-3.19.54-8-3.8-6.83-6.83,3.75-9.37,15.34-17.79,24.9-20,3.3-.74,6.64,1.12,2,9.41Z" style="fill:#faea74;stroke:#3a3632;stroke-width:5px"/><path id="path1301-0" d="M1032.4,1238.26c6.45-5.75,16.74-11.14,24.7-9.8,3.19.53,6.34,6.23,4.2,8.69-6.62,7.61-20.34,11.76-30.08,10.66-3.36-.38-5.9-3.24,1.18-9.55Z" style="fill:#faea74;stroke:#3a3632;stroke-width:5px"/><path id="path1303-0" d="M1083.29,1281.44c8.6-.79,20.08,1,25.69,6.79,2.25,2.32,1.41,8.79-1.78,9.49-9.85,2.19-23.35-2.62-30.53-9.29-2.48-2.3-2.83-6.11,6.62-7Z" style="fill:#faea74;stroke:#3a3632;stroke-width:5px"/><path id="path1305-3" d="M1016,1245.24c7.86-3.59,19.28-5.7,26.49-2.09,2.89,1.45,4.23,7.83,1.46,9.55-8.58,5.33-22.9,5.25-31.89,1.33-3.1-1.36-4.69-4.84,3.94-8.79Z" style="fill:#faea74;stroke:#3a3632;stroke-width:5px"/><path id="path1307-8" d="M1066.35,1227.55c8.52-1.42,20.1-.49,26.12,4.89,2.41,2.15,2,8.66-1.09,9.6-9.66,2.9-23.47-.91-31.12-7C1057.62,1232.89,1057,1229.11,1066.35,1227.55Z" style="fill:#faea74;stroke:#3a3632;stroke-width:5px"/><path id="path1309-3" d="M1162.1,1234.82c8.24-2.56,19.84-3.21,26.54,1.3,2.68,1.81,3.19,8.31.23,9.66-9.19,4.19-23.39,2.28-31.8-2.75-2.9-1.74-4-5.39,5-8.21Z" style="fill:#faea74;stroke:#3a3632;stroke-width:5px"/><path id="path1331-6" d="M996.65,1256.39c8-3.26,19.49-4.9,26.55-1,2.83,1.57,3.9,8,1,9.6-8.78,5-23.1,4.28-31.91,0-3-1.48-4.48-5,4.31-8.61Z" style="fill:#faea74;stroke:#3a3632;stroke-width:5px"/><path id="path1335-0" d="M1036.69,1271.51c8.11-3,19.66-4.2,26.58,0,2.77,1.67,3.61,8.13.71,9.63-9,4.65-23.24,3.46-31.89-1.14-3-1.59-4.3-5.18,4.6-8.45Z" style="fill:#faea74;stroke:#3a3632;stroke-width:5px"/><path id="path1341-4" d="M1061.47,1255.91c-8.26,2.53-19.86,3.14-26.54-1.4-2.67-1.81-3.16-8.31-.19-9.66,9.2-4.15,23.39-2.19,31.79,2.88,2.89,1.74,4,5.4-5.06,8.18Z" style="fill:#faea74;stroke:#3a3632;stroke-width:5px"/><path id="path1349-0" d="M1122.68,1259.48c7.84,3.6,16.91,10.87,18.88,18.7.79,3.13-3.17,8.31-6.28,7.34-9.63-3-18.93-13.92-21.83-23.28-1-3.23.6-6.71,9.23-2.76Z" style="fill:#faea74;stroke:#3a3632;stroke-width:5px"/><path id="path1353-9" d="M1126.36,1253.46c-6.47,5.72-16.78,11.07-24.74,9.7-3.18-.54-6.32-6.26-4.17-8.71,6.66-7.59,20.39-11.68,30.12-10.54,3.36.39,5.9,3.26-1.21,9.55Z" style="fill:#faea74;stroke:#3a3632;stroke-width:5px"/><path id="path1357-2" d="M1191.15,1287.1c-7.87,3.56-19.3,5.64-26.5,2-2.88-1.46-4.2-7.85-1.42-9.56,8.6-5.29,22.92-5.15,31.89-1.2,3.1,1.37,4.67,4.86-4,8.77Z" style="fill:#faea74;stroke:#3a3632;stroke-width:5px"/><path id="path1359-4" d="M1092.37,1264c-8.53,1.39-20.1.41-26.1-5-2.41-2.16-2-8.66,1.12-9.59,9.67-2.87,23.47,1,31.1,7.16C1101.12,1258.73,1101.73,1262.51,1092.37,1264Z" style="fill:#faea74;stroke:#3a3632;stroke-width:5px"/></g><g id="layer4"><path id="path1013" d="M1411.67,1762.23c15.59-5.19,37.63-6.87,50.55,1.45,5.17,3.34,6.4,15.68.8,18.37-17.31,8.32-44.4,5.24-60.6-4-5.59-3.2-7.89-10.11,9.25-15.81Z" style="fill:#faea74;stroke:#3a3632;stroke-width:5px"/><path id="path1015" d="M1539.09,1776.79c-15.67,4.93-37.74,6.23-50.51-2.32-5.11-3.41-6.13-15.78-.49-18.37,17.45-8,44.49-4.48,60.52,5,5.54,3.29,7.72,10.24-9.52,15.65Z" style="fill:#faea74;stroke:#3a3632;stroke-width:5px"/><path id="path1017" d="M1534.69,1846.59c-14.84-7-31.91-21.09-35.47-36-1.43-6,6.23-15.75,12.13-13.81,18.25,6,35.68,27,41,44.84C1554.14,1847.75,1551,1854.33,1534.69,1846.59Z" style="fill:#faea74;stroke:#3a3632;stroke-width:5px"/><path id="path1019" d="M1574.08,1814.53c-15.67,4.92-37.74,6.22-50.51-2.32-5.11-3.42-6.13-15.78-.49-18.38,17.45-8,44.48-4.48,60.52,5.05,5.54,3.29,7.71,10.24-9.52,15.65Z" style="fill:#faea74;stroke:#3a3632;stroke-width:5px"/><path id="path1021" d="M1478.66,1806.55c7.32-14.71,21.69-31.5,36.7-34.78,6-1.31,15.62,6.53,13.58,12.39-6.32,18.13-27.62,35.16-45.61,40.1C1477.12,1826,1470.61,1822.72,1478.66,1806.55Z" style="fill:#faea74;stroke:#3a3632;stroke-width:5px"/><path id="path1023" d="M1574.08,1814.53c-16.25-2.43-36.66-10.9-44.42-24.17-3.1-5.31,1.39-16.87,7.6-16.74,19.2.41,42,15.42,52.22,31,3.54,5.38,2.47,12.58-15.4,9.92Z" style="fill:#faea74;stroke:#3a3632;stroke-width:5px"/><path id="path1025" d="M1521.48,1742c16.43-.27,38,4.75,47.77,16.57,3.94,4.73,1.4,16.87-4.75,17.76-19,2.74-43.92-8.34-56.59-22-4.38-4.72-4.49-12,13.57-12.3Z" style="fill:#faea74;stroke:#3a3632;stroke-width:5px"/><path id="path1027" d="M1630.26,1850.59c-12.09-11.12-24.24-29.59-23.21-44.93.41-6.13,10.61-13.19,15.68-9.59,15.66,11.11,26.09,36.3,25.84,55-.09,6.44-5,11.8-18.31-.43Z" style="fill:#faea74;stroke:#3a3632;stroke-width:5px"/><path id="path1031" d="M1563.77,1829c6.76-15,20.46-32.32,35.34-36.17,6-1.55,15.86,5.92,14,11.86-5.61,18.36-26.24,36.19-44,41.83-6.14,1.94-12.78-1-5.36-17.52Z" style="fill:#faea74;stroke:#3a3632;stroke-width:5px"/><path id="path1033" d="M1645.29,1793.51c-15.93-4-35.39-14.53-41.77-28.51-2.55-5.59,3.07-16.65,9.24-15.89,19.06,2.34,40.21,19.55,48.85,36.08,3,5.71,1.18,12.77-16.32,8.32Z" style="fill:#faea74;stroke:#3a3632;stroke-width:5px"/><path id="path1035" d="M1621.31,1791.15c15.18-6.3,37-9.58,50.52-2.21,5.4,2.94,7.52,15.17,2.14,18.26-16.66,9.55-43.91,8.45-60.73.39-5.81-2.78-8.6-9.5,8.07-16.44Z" style="fill:#faea74;stroke:#3a3632;stroke-width:5px"/><path id="path1037" d="M1704.59,1839c-15.67,4.92-37.74,6.22-50.51-2.32-5.11-3.42-6.13-15.78-.49-18.38,17.45-8,44.48-4.48,60.52,5,5.54,3.28,7.71,10.23-9.52,15.65Z" style="fill:#faea74;stroke:#3a3632;stroke-width:5px"/><path id="path1039" d="M1658,1768.76c15.39-5.77,37.35-8.27,50.57-.43,5.29,3.13,7,15.42,1.48,18.32-17,9-44.17,6.89-60.7-1.75-5.71-3-8.26-9.8,8.65-16.14Z" style="fill:#faea74;stroke:#3a3632;stroke-width:5px"/><path id="path1041" d="M1638,1825.05c5.32-15.54,17.35-34.09,31.8-39.32,5.78-2.09,16.34,4.42,15.09,10.5-3.88,18.81-22.75,38.49-39.93,45.76-5.92,2.51-12.81.15-7-16.94Z" style="fill:#faea74;stroke:#3a3632;stroke-width:5px"/><path id="path1043" d="M1689,1797.87c16.25-2.43,38.25-.3,49.54,10.12,4.52,4.17,3.61,16.54-2.36,18.23-18.48,5.22-44.64-2.46-59-14.36-5-4.11-6-11.31,11.83-14Z" style="fill:#faea74;stroke:#3a3632;stroke-width:5px"/><path id="path1045" d="M1744.66,1789.39c-15.68,4.92-37.74,6.22-50.51-2.32-5.12-3.42-6.13-15.78-.49-18.38,17.45-8,44.48-4.48,60.52,5,5.53,3.29,7.71,10.24-9.52,15.65Z" style="fill:#faea74;stroke:#3a3632;stroke-width:5px"/><path id="path1047" d="M1717.31,1808.08c7.17-14.79,21.35-31.74,36.33-35.18,6-1.38,15.69,6.36,13.71,12.25-6.13,18.2-27.24,35.45-45.17,40.59-6.19,1.77-12.74-1.41-4.87-17.66Z" style="fill:#faea74;stroke:#3a3632;stroke-width:5px"/><path id="path1049" d="M1752.23,1805.88c14.55-7.63,36-12.83,50.12-6.69,5.64,2.45,8.84,14.44,3.75,18-15.75,11-43,12.31-60.46,5.79-6-2.26-9.41-8.71,6.59-17.1Z" style="fill:#faea74;stroke:#3a3632;stroke-width:5px"/><path id="path1051" d="M1853.56,1850.65c-16-3.62-35.76-13.59-42.51-27.4-2.7-5.52,2.64-16.72,8.82-16.13,19.12,1.84,40.71,18.49,49.78,34.79C1872.78,1847.53,1871.17,1854.63,1853.56,1850.65Z" style="fill:#faea74;stroke:#3a3632;stroke-width:5px"/><path id="path1053" d="M1794.2,1751c15,6.74,32.33,20.44,36.19,35.32,1.55,6-5.91,15.86-11.85,14.05-18.37-5.61-36.21-26.23-41.85-44-2-6.14,1-12.78,17.51-5.36Z" style="fill:#faea74;stroke:#3a3632;stroke-width:5px"/><path id="path1055" d="M1781.61,1831.9c7.94-14.39,23-30.56,38.15-33.2,6-1,15.33,7.19,13,13-7.09,17.85-29.1,33.95-47.27,38.13-6.28,1.44-12.65-2.08-3.92-17.89Z" style="fill:#faea74;stroke:#3a3632;stroke-width:5px"/><path id="path1057" d="M1868.12,1783.85c-12.23,11-31.78,21.28-46.95,18.8-6.06-1-12.11-11.83-8.05-16.53,12.57-14.53,38.65-22.49,57.19-20.46C1876.7,1766.36,1881.56,1771.79,1868.12,1783.85Z" style="fill:#faea74;stroke:#3a3632;stroke-width:5px"/><path id="path1059" d="M1884.74,1824.8c-16.36,1.56-38.21-1.75-48.93-12.76-4.3-4.4-2.72-16.71,3.33-18.08,18.74-4.22,44.45,4.86,58.16,17.51,4.73,4.36,5.42,11.61-12.56,13.33Z" style="fill:#faea74;stroke:#3a3632;stroke-width:5px"/><path id="path1061" d="M1899.34,1770.45c-14.92,6.88-36.64,11-50.4,4.13-5.51-2.74-8.09-14.87-2.82-18.16,16.28-10.18,43.55-10.11,60.67-2.71C1912.69,1756.27,1915.74,1762.88,1899.34,1770.45Z" style="fill:#faea74;stroke:#3a3632;stroke-width:5px"/><path id="path1063" d="M1803.57,1804.42c-16.2,2.76-38.24,1-49.73-9.14-4.6-4.08-3.94-16.47,2-18.27,18.38-5.59,44.69,1.59,59.28,13.2,5,4,6.26,11.19-11.55,14.21Z" style="fill:#faea74;stroke:#3a3632;stroke-width:5px"/><path id="path1029" d="M1621.31,1791.15c-15.67,4.93-37.74,6.23-50.51-2.31-5.11-3.42-6.13-15.79-.49-18.38,17.45-8,44.49-4.48,60.52,5,5.54,3.29,7.71,10.24-9.52,15.65Z" style="fill:#faea74;stroke:#3a3632;stroke-width:5px"/><path id="path1259" d="M1763.11,1787.22c-15.57,5.25-37.61,7-50.56-1.27-5.18-3.31-6.45-15.65-.87-18.36,17.28-8.38,44.39-5.41,60.62,3.78,5.6,3.17,7.92,10.07-9.19,15.85Z" style="fill:#faea74;stroke:#3a3632;stroke-width:5px"/><path id="path1261" d="M1635.63,1773.14c15.66-5,37.72-6.37,50.52,2.12,5.13,3.4,6.19,15.76.56,18.38-17.42,8.09-44.47,4.65-60.54-4.81-5.55-3.27-7.75-10.21,9.46-15.69Z" style="fill:#faea74;stroke:#3a3632;stroke-width:5px"/><path id="path1263" d="M1639.76,1703.33c14.87,7,32,21,35.61,35.9,1.45,6-6.17,15.77-12.08,13.86-18.27-5.91-35.78-26.81-41.13-44.68-1.85-6.17,1.25-12.76,17.6-5.08Z" style="fill:#faea74;stroke:#3a3632;stroke-width:5px"/><path id="path1265" d="M1600.49,1735.54c15.66-5,37.72-6.37,50.53,2.12,5.12,3.4,6.19,15.76.56,18.38-17.42,8.09-44.47,4.65-60.54-4.81-5.55-3.27-7.76-10.21,9.45-15.69Z" style="fill:#faea74;stroke:#3a3632;stroke-width:5px"/><path id="path1267" d="M1696,1743.15c-7.27,14.74-21.57,31.59-36.57,34.93-6,1.33-15.65-6.47-13.63-12.35,6.26-18.15,27.49-35.26,45.46-40.27,6.2-1.74,12.73,1.49,4.74,17.69Z" style="fill:#faea74;stroke:#3a3632;stroke-width:5px"/><path id="path1269" d="M1600.49,1735.54c16.27,2.36,36.71,10.76,44.52,24,3.12,5.3-1.33,16.88-7.53,16.77-19.21-.34-42-15.26-52.35-30.8-3.56-5.36-2.51-12.57,15.36-10Z" style="fill:#faea74;stroke:#3a3632;stroke-width:5px"/><path id="path1271" d="M1653.38,1807.82c-16.43.34-38-4.6-47.84-16.38-4-4.71-1.46-16.87,4.68-17.78,19-2.81,44,8.17,56.68,21.81C1671.29,1800.18,1671.44,1807.46,1653.38,1807.82Z" style="fill:#faea74;stroke:#3a3632;stroke-width:5px"/><path id="path1273" d="M1544.18,1699.7c12.14,11.07,24.35,29.5,23.38,44.83-.38,6.14-10.56,13.24-15.64,9.66-15.7-11-26.23-36.2-26.05-54.86.06-6.43,5-11.81,18.31.37Z" style="fill:#faea74;stroke:#3a3632;stroke-width:5px"/><path id="path1275" d="M1610.75,1721.05c-6.7,15-20.34,32.4-35.2,36.31-6,1.56-15.88-5.86-14.09-11.81,5.55-18.38,26.11-36.29,43.87-42,6.13-2,12.78,1,5.42,17.5Z" style="fill:#faea74;stroke:#3a3632;stroke-width:5px"/><path id="path1277" d="M1529.37,1756.83c15.94,4,35.44,14.4,41.88,28.35,2.57,5.58-3,16.66-9.18,15.93-19.07-2.27-40.28-19.4-49-35.89C1510.08,1759.52,1511.85,1752.46,1529.37,1756.83Z" style="fill:#faea74;stroke:#3a3632;stroke-width:5px"/><path id="path1279" d="M1553.35,1759.1c-15.15,6.37-37,9.72-50.51,2.41-5.41-2.93-7.58-15.14-2.2-18.25,16.62-9.62,43.87-8.62,60.73-.64,5.82,2.76,8.63,9.48-8,16.47Z" style="fill:#faea74;stroke:#3a3632;stroke-width:5px"/><path id="path1281" d="M1469.89,1711.58c15.66-5,37.72-6.37,50.52,2.12,5.13,3.4,6.2,15.76.56,18.38-17.41,8.08-44.46,4.65-60.54-4.82-5.54-3.26-7.75-10.2,9.46-15.68Z" style="fill:#faea74;stroke:#3a3632;stroke-width:5px"/><path id="path1283" d="M1516.81,1781.64c-15.37,5.83-37.32,8.41-50.57.62-5.3-3.11-7-15.39-1.56-18.31,17-9,44.15-7.07,60.72,1.51,5.71,3,8.29,9.77-8.59,16.18Z" style="fill:#faea74;stroke:#3a3632;stroke-width:5px"/><path id="path1285" d="M1536.58,1725.26c-5.26,15.57-17.22,34.16-31.65,39.44-5.77,2.12-16.36-4.35-15.13-10.43,3.8-18.83,22.6-38.58,39.75-45.92,5.92-2.53,12.81-.2,7,16.91Z" style="fill:#faea74;stroke:#3a3632;stroke-width:5px"/><path id="path1287" d="M1485.69,1752.64c-16.25,2.5-38.25.45-49.59-9.92-4.54-4.15-3.68-16.53,2.29-18.24,18.46-5.3,44.66,2.29,59.07,14.13,5,4.08,6.08,11.28-11.77,14Z" style="fill:#faea74;stroke:#3a3632;stroke-width:5px"/><path id="path1289" d="M1430,1761.34c15.66-5,37.72-6.37,50.53,2.12,5.12,3.4,6.19,15.76.56,18.38-17.42,8.09-44.47,4.65-60.54-4.81-5.55-3.27-7.76-10.21,9.45-15.69Z" style="fill:#faea74;stroke:#3a3632;stroke-width:5px"/><path id="path1291" d="M1457.29,1742.54c-7.11,14.82-21.23,31.83-36.19,35.32-6,1.4-15.72-6.3-13.76-12.19,6.06-18.22,27.11-35.56,45-40.77,6.18-1.79,12.74,1.36,4.93,17.64Z" style="fill:#faea74;stroke:#3a3632;stroke-width:5px"/><path id="path1293" d="M1422.38,1744.87c-14.52,7.69-36,13-50.09,6.89-5.65-2.43-8.9-14.4-3.82-18,15.7-11.06,42.93-12.48,60.43-6,6,2.22,9.44,8.66-6.52,17.11Z" style="fill:#faea74;stroke:#3a3632;stroke-width:5px"/><path id="path1295" d="M1320.88,1700.5c16,3.56,35.81,13.45,42.61,27.23,2.72,5.52-2.57,16.74-8.75,16.17-19.13-1.76-40.78-18.33-49.92-34.6-3.15-5.61-1.57-12.72,16.06-8.8Z" style="fill:#faea74;stroke:#3a3632;stroke-width:5px"/><path id="path1297" d="M1380.62,1799.88c-15-6.69-32.41-20.32-36.33-35.18-1.56-5.94,5.86-15.89,11.8-14.09,18.39,5.53,36.31,26.09,42,43.84,2,6.13-1,12.78-17.49,5.43Z" style="fill:#faea74;stroke:#3a3632;stroke-width:5px"/><path id="path1299" d="M1392.9,1719c-7.88,14.41-22.89,30.64-38,33.34-6.05,1.08-15.36-7.13-13.09-12.91,7-17.88,29-34.06,47.13-38.31,6.27-1.47,12.65,2,4,17.88Z" style="fill:#faea74;stroke:#3a3632;stroke-width:5px"/><path id="path1301" d="M1306.58,1767.36c12.19-11,31.7-21.41,46.87-19,6.07,1,12.16,11.78,8.11,16.49-12.5,14.58-38.55,22.65-57.1,20.68-6.4-.68-11.28-6.08,2.12-18.19Z" style="fill:#faea74;stroke:#3a3632;stroke-width:5px"/><path id="path1303" d="M1289.8,1726.47c16.35-1.62,38.22,1.6,49,12.57,4.31,4.39,2.79,16.7-3.27,18.09-18.71,4.29-44.46-4.68-58.22-17.28-4.75-4.35-5.46-11.6,12.51-13.38Z" style="fill:#faea74;stroke:#3a3632;stroke-width:5px"/><path id="path1305" d="M1275.41,1780.88c14.9-6.94,36.6-11.12,50.38-4.33,5.52,2.72,8.15,14.84,2.9,18.15-16.25,10.24-43.51,10.28-60.66,2.94-5.92-2.53-9-9.14,7.38-16.76Z" style="fill:#faea74;stroke:#3a3632;stroke-width:5px"/><path id="path1307" d="M1371.05,1746.53c16.19-2.81,38.23-1.19,49.77,9,4.61,4.06,4,16.45-1.94,18.28-18.35,5.65-44.69-1.42-59.33-13C1354.5,1756.8,1353.25,1749.63,1371.05,1746.53Z" style="fill:#faea74;stroke:#3a3632;stroke-width:5px"/><path id="path1309" d="M1553.35,1759.1c15.66-5,37.72-6.37,50.53,2.12,5.12,3.4,6.19,15.76.56,18.37-17.42,8.09-44.47,4.66-60.54-4.81-5.55-3.26-7.76-10.2,9.45-15.68Z" style="fill:#faea74;stroke:#3a3632;stroke-width:5px"/><path id="path1311" d="M1029.14,1773.42c15.59-5.19,37.63-6.87,50.54,1.45,5.17,3.33,6.4,15.68.8,18.37-17.3,8.32-44.4,5.24-60.59-4-5.59-3.2-7.89-10.11,9.25-15.81Z" style="fill:#faea74;stroke:#3a3632;stroke-width:5px"/><path id="path1313" d="M1156.56,1788c-15.68,4.93-37.74,6.23-50.52-2.32-5.11-3.41-6.13-15.78-.48-18.37,17.44-8,44.48-4.49,60.52,5,5.53,3.29,7.71,10.24-9.52,15.65Z" style="fill:#faea74;stroke:#3a3632;stroke-width:5px"/><path id="path1315" d="M1152.16,1857.77c-14.85-7-31.91-21.09-35.47-36-1.43-6,6.23-15.75,12.13-13.81,18.25,6,35.67,27,41,44.84C1171.6,1858.94,1168.48,1865.52,1152.16,1857.77Z" style="fill:#faea74;stroke:#3a3632;stroke-width:5px"/><path id="path1317" d="M1191.55,1825.72c-15.68,4.92-37.74,6.22-50.52-2.32-5.11-3.42-6.13-15.78-.49-18.38,17.45-8,44.49-4.48,60.53,5,5.53,3.29,7.71,10.24-9.52,15.65Z" style="fill:#faea74;stroke:#3a3632;stroke-width:5px"/><path id="path1319" d="M1096.12,1817.74c7.33-14.71,21.69-31.5,36.71-34.78,6-1.32,15.62,6.53,13.57,12.39-6.32,18.13-27.62,35.16-45.6,40.1-6.21,1.71-12.73-1.54-4.68-17.71Z" style="fill:#faea74;stroke:#3a3632;stroke-width:5px"/><path id="path1321" d="M1191.55,1825.72c-16.25-2.43-36.67-10.9-44.42-24.17-3.1-5.31,1.39-16.87,7.59-16.74,19.2.41,42,15.42,52.23,31,3.54,5.38,2.46,12.58-15.4,9.92Z" style="fill:#faea74;stroke:#3a3632;stroke-width:5px"/><path id="path1323" d="M1138.94,1753.23c16.43-.27,38,4.75,47.78,16.57,3.93,4.73,1.4,16.87-4.75,17.76-19,2.74-43.93-8.34-56.6-22-4.37-4.72-4.49-12,13.57-12.3Z" style="fill:#faea74;stroke:#3a3632;stroke-width:5px"/><path id="path1325" d="M1247.72,1861.78c-12.09-11.13-24.23-29.59-23.21-44.93.41-6.13,10.62-13.19,15.68-9.59,15.66,11.11,26.1,36.3,25.85,55-.09,6.44-5,11.8-18.32-.43Z" style="fill:#faea74;stroke:#3a3632;stroke-width:5px"/><path id="path1327" d="M1181.24,1840.17c6.75-15,20.46-32.32,35.33-36.17,6-1.55,15.87,5.92,14,11.86-5.62,18.36-26.25,36.19-44,41.83-6.13,1.94-12.77-1-5.35-17.52Z" style="fill:#faea74;stroke:#3a3632;stroke-width:5px"/><path id="path1329" d="M1262.75,1804.7c-15.92-4-35.38-14.53-41.76-28.51-2.56-5.59,3.07-16.65,9.23-15.89,19.06,2.34,40.21,19.55,48.85,36.08C1282.06,1802.09,1280.26,1809.14,1262.75,1804.7Z" style="fill:#faea74;stroke:#3a3632;stroke-width:5px"/><path id="path1331" d="M1238.78,1802.34c15.17-6.31,37-9.58,50.52-2.21,5.4,2.94,7.52,15.17,2.13,18.26-16.66,9.55-43.9,8.45-60.73.39-5.8-2.78-8.6-9.5,8.08-16.44Z" style="fill:#faea74;stroke:#3a3632;stroke-width:5px"/><path id="path1333" d="M1322.06,1850.18c-15.68,4.93-37.74,6.23-50.52-2.31-5.11-3.42-6.13-15.78-.48-18.38,17.44-8,44.48-4.48,60.52,5,5.53,3.29,7.71,10.24-9.52,15.65Z" style="fill:#faea74;stroke:#3a3632;stroke-width:5px"/><path id="path1335" d="M1275.41,1780c15.39-5.77,37.35-8.27,50.57-.44,5.29,3.14,7,15.43,1.49,18.33-17,9-44.18,6.89-60.71-1.75-5.7-3-8.26-9.8,8.66-16.14Z" style="fill:#faea74;stroke:#3a3632;stroke-width:5px"/><path id="path1337" d="M1255.42,1836.24c5.32-15.54,17.35-34.09,31.8-39.32,5.78-2.09,16.35,4.42,15.09,10.5-3.87,18.81-22.74,38.49-39.92,45.76-5.93,2.51-12.82.15-7-16.94Z" style="fill:#faea74;stroke:#3a3632;stroke-width:5px"/><path id="path1339" d="M1306.42,1809.06c16.25-2.43,38.25-.3,49.55,10.12,4.52,4.17,3.61,16.54-2.37,18.23-18.48,5.22-44.64-2.46-59-14.36C1289.64,1818.94,1288.56,1811.74,1306.42,1809.06Z" style="fill:#faea74;stroke:#3a3632;stroke-width:5px"/><path id="path1341" d="M1362.13,1800.58c-15.68,4.92-37.74,6.22-50.52-2.32-5.11-3.42-6.13-15.78-.49-18.38,17.45-8,44.49-4.48,60.53,5,5.53,3.29,7.71,10.24-9.52,15.65Z" style="fill:#faea74;stroke:#3a3632;stroke-width:5px"/><path id="path1343" d="M1334.78,1819.27c7.16-14.79,21.35-31.74,36.33-35.18,6-1.38,15.69,6.36,13.71,12.25-6.13,18.2-27.25,35.45-45.18,40.59-6.19,1.77-12.74-1.41-4.86-17.66Z" style="fill:#faea74;stroke:#3a3632;stroke-width:5px"/><path id="path1345" d="M1369.69,1817.07c14.56-7.63,36-12.83,50.13-6.69,5.64,2.45,8.84,14.44,3.74,18-15.74,11-43,12.32-60.45,5.8-6-2.26-9.41-8.71,6.58-17.1Z" style="fill:#faea74;stroke:#3a3632;stroke-width:5px"/><path id="path1347" d="M1471,1861.84c-16-3.62-35.75-13.59-42.5-27.4-2.7-5.52,2.63-16.72,8.82-16.13,19.11,1.84,40.7,18.49,49.78,34.79,3.13,5.62,1.52,12.72-16.1,8.74Z" style="fill:#faea74;stroke:#3a3632;stroke-width:5px"/><path id="path1349" d="M1411.67,1762.23c15,6.74,32.33,20.44,36.19,35.32,1.54,6-5.92,15.86-11.86,14-18.36-5.61-36.2-26.23-41.84-44-2-6.14,1-12.78,17.51-5.36Z" style="fill:#faea74;stroke:#3a3632;stroke-width:5px"/><path id="path1351" d="M1399.07,1843.09c8-14.39,23-30.56,38.15-33.2,6.06-1.06,15.33,7.19,13,13-7.08,17.85-29.09,34-47.27,38.13-6.27,1.44-12.65-2.08-3.92-17.89Z" style="fill:#faea74;stroke:#3a3632;stroke-width:5px"/><path id="path1353" d="M1485.59,1795c-12.24,11-31.79,21.28-46.95,18.79-6.07-1-12.11-11.83-8.05-16.52,12.56-14.53,38.64-22.5,57.18-20.46C1494.17,1777.55,1499,1783,1485.59,1795Z" style="fill:#faea74;stroke:#3a3632;stroke-width:5px"/><path id="path1355" d="M1502.2,1836c-16.35,1.56-38.21-1.75-48.93-12.76-4.29-4.4-2.72-16.71,3.34-18.08,18.73-4.22,44.45,4.86,58.15,17.51,4.74,4.36,5.42,11.61-12.56,13.33Z" style="fill:#faea74;stroke:#3a3632;stroke-width:5px"/><path id="path1357" d="M1516.81,1781.64c-14.93,6.88-36.65,11-50.4,4.13-5.51-2.74-8.1-14.87-2.83-18.16,16.28-10.18,43.55-10.11,60.67-2.71C1530.16,1767.46,1533.21,1774.07,1516.81,1781.64Z" style="fill:#faea74;stroke:#3a3632;stroke-width:5px"/><path id="path1359" d="M1421,1815.61c-16.2,2.76-38.24,1.05-49.74-9.14-4.6-4.08-3.93-16.47,2-18.28,18.38-5.58,44.68,1.6,59.28,13.21,5,4,6.25,11.19-11.55,14.21Z" style="fill:#faea74;stroke:#3a3632;stroke-width:5px"/><path id="path1361" d="M1238.78,1802.34c-15.68,4.93-37.74,6.23-50.52-2.31-5.11-3.42-6.13-15.79-.48-18.38,17.44-8,44.48-4.48,60.52,5,5.53,3.29,7.71,10.24-9.52,15.65Z" style="fill:#faea74;stroke:#3a3632;stroke-width:5px"/><path id="path1363" d="M1460.21,1825.15c15.36-5.85,37.31-8.46,50.57-.69,5.3,3.11,7.06,15.39,1.58,18.31-16.94,9-44.14,7.12-60.72-1.43-5.72-3-8.3-9.76,8.57-16.19Z" style="fill:#faea74;stroke:#3a3632;stroke-width:5px"/><path id="path1365" d="M1588.14,1834.28c-15.45,5.59-37.44,7.83-50.57-.16-5.25-3.2-6.79-15.51-1.26-18.34,17.09-8.76,44.25-6.37,60.68,2.46,5.67,3,8.14,9.9-8.85,16Z" style="fill:#faea74;stroke:#3a3632;stroke-width:5px"/><path id="path1367" d="M1586.71,1904.2c-15.13-6.41-32.78-19.71-37-34.5-1.68-5.91,5.56-16,11.54-14.31,18.48,5.2,36.78,25.41,42.82,43.06,2.09,6.09-.75,12.79-17.39,5.75Z" style="fill:#faea74;stroke:#3a3632;stroke-width:5px"/><path id="path1369" d="M1624.7,1870.5c-15.45,5.59-37.44,7.82-50.56-.17-5.26-3.2-6.8-15.51-1.27-18.34,17.09-8.75,44.25-6.37,60.68,2.47,5.67,3,8.14,9.9-8.85,16Z" style="fill:#faea74;stroke:#3a3632;stroke-width:5px"/><path id="path1371" d="M1529,1866.59c6.69-15,20.33-32.4,35.19-36.32,5.94-1.56,15.88,5.86,14.09,11.81-5.54,18.38-26.1,36.3-43.86,42-6.13,2-12.78-1-5.42-17.49Z" style="fill:#faea74;stroke:#3a3632;stroke-width:5px"/><path id="path1373" d="M1624.7,1870.5c-16.34-1.73-37.09-9.33-45.4-22.26-3.33-5.17.67-16.92,6.87-17,19.2-.4,42.59,13.62,53.5,28.75C1643.44,1865.16,1642.66,1872.4,1624.7,1870.5Z" style="fill:#faea74;stroke:#3a3632;stroke-width:5px"/><path id="path1375" d="M1569.06,1800.32c16.41-1,38.13,3.13,48.44,14.52,4.13,4.56,2.11,16.8-4,17.94-18.87,3.54-44.24-6.46-57.48-19.6-4.57-4.53-5-11.8,13-12.86Z" style="fill:#faea74;stroke:#3a3632;stroke-width:5px"/><path id="path1377" d="M1682.36,1904.14c-12.55-10.6-25.47-28.54-25.1-43.9.15-6.15,10-13.63,15.26-10.25,16.12,10.43,27.61,35.16,28.15,53.81.19,6.43-4.51,12-18.31.34Z" style="fill:#faea74;stroke:#3a3632;stroke-width:5px"/><path id="path1379" d="M1615,1885.38c6.11-15.26,19.07-33.16,33.76-37.65,5.89-1.79,16.1,5.25,14.54,11.26-4.83,18.58-24.68,37.28-42.21,43.66-6,2.21-12.81-.5-6.09-17.27Z" style="fill:#faea74;stroke:#3a3632;stroke-width:5px"/><path id="path1381" d="M1695,1846.47c-16.08-3.36-36-13-42.94-26.7-2.79-5.48,2.36-16.77,8.55-16.27,19.15,1.52,41,17.82,50.34,34C1714.12,1843,1712.63,1850.17,1695,1846.47Z" style="fill:#faea74;stroke:#3a3632;stroke-width:5px"/><path id="path1383" d="M1670.9,1845.14c14.89-7,36.59-11.15,50.38-4.36,5.52,2.71,8.16,14.83,2.9,18.15-16.23,10.25-43.5,10.31-60.65,3-5.92-2.53-9-9.13,7.37-16.77Z" style="fill:#faea74;stroke:#3a3632;stroke-width:5px"/><path id="path1385" d="M1756.14,1889.4c-15.46,5.58-37.45,7.82-50.57-.17-5.26-3.2-6.8-15.51-1.27-18.34,17.09-8.76,44.25-6.37,60.68,2.47,5.67,3.05,8.14,9.9-8.84,16Z" style="fill:#faea74;stroke:#3a3632;stroke-width:5px"/><path id="path1387" d="M1706.55,1821.2c15.13-6.41,37-9.84,50.5-2.58,5.42,2.91,7.63,15.12,2.26,18.25-16.58,9.67-43.84,8.76-60.72.83-5.83-2.74-8.67-9.44,8-16.5Z" style="fill:#faea74;stroke:#3a3632;stroke-width:5px"/><path id="path1389" d="M1689,1878.3c4.65-15.76,15.88-34.8,30.1-40.63,5.68-2.34,16.51,3.71,15.52,9.84-3.07,19-21.09,39.42-37.94,47.42C1690.83,1897.69,1683.85,1895.62,1689,1878.3Z" style="fill:#faea74;stroke:#3a3632;stroke-width:5px"/><path id="path1391" d="M1738.76,1849c16.14-3.13,38.21-1.93,49.94,8,4.69,4,4.31,16.37-1.59,18.31-18.24,6-44.71-.56-59.57-11.84-5.13-3.89-6.51-11,11.22-14.47Z" style="fill:#faea74;stroke:#3a3632;stroke-width:5px"/><path id="path1393" d="M1794.06,1838.13c-15.45,5.59-37.44,7.83-50.57-.17-5.25-3.19-6.79-15.5-1.27-18.34,17.09-8.75,44.26-6.36,60.68,2.47,5.67,3.05,8.15,9.9-8.84,16Z" style="fill:#faea74;stroke:#3a3632;stroke-width:5px"/><path id="path1395" d="M1767.53,1858c6.53-15.08,20-32.62,34.8-36.69,5.93-1.63,16,5.69,14.22,11.65-5.35,18.44-25.72,36.58-43.41,42.47-6.11,2-12.79-.86-5.61-17.43Z" style="fill:#faea74;stroke:#3a3632;stroke-width:5px"/><path id="path1397" d="M1802.32,1854.29c14.22-8.24,35.46-14.35,49.79-8.82,5.74,2.21,9.45,14,4.51,17.82-15.26,11.66-42.42,14.14-60.15,8.36-6.12-2-9.77-8.3,5.85-17.36Z" style="fill:#faea74;stroke:#3a3632;stroke-width:5px"/><path id="path1399" d="M1905.46,1894.71c-16.17-2.94-36.3-12.06-43.63-25.57-2.93-5.4,1.92-16.82,8.12-16.49,19.18,1,41.46,16.74,51.22,32.64C1924.54,1890.78,1923.23,1897.94,1905.46,1894.71Z" style="fill:#faea74;stroke:#3a3632;stroke-width:5px"/><path id="path1401" d="M1841.93,1797.71c15.25,6.1,33.17,19.06,37.66,33.75,1.79,5.88-5.24,16.1-11.25,14.54-18.59-4.82-37.29-24.67-43.68-42.19C1822.45,1797.76,1825.16,1791,1841.93,1797.71Z" style="fill:#faea74;stroke:#3a3632;stroke-width:5px"/><path id="path1403" d="M1832.78,1879c7.32-14.71,21.69-31.51,36.7-34.79,6-1.31,15.62,6.53,13.58,12.4-6.32,18.13-27.62,35.16-45.61,40.1-6.2,1.71-12.72-1.54-4.67-17.71Z" style="fill:#faea74;stroke:#3a3632;stroke-width:5px"/><path id="path1405" d="M1917.17,1827.35c-11.76,11.48-30.85,22.62-46.1,20.78-6.11-.74-12.61-11.31-8.75-16.17,11.94-15,37.65-24.12,56.26-22.87C1925,1809.52,1930.09,1814.73,1917.17,1827.35Z" style="fill:#faea74;stroke:#3a3632;stroke-width:5px"/><path id="path1407" d="M1935.52,1867.56c-16.28,2.25-38.26-.13-49.44-10.67-4.47-4.22-3.42-16.58,2.57-18.2,18.54-5,44.61,3,58.85,15,4.91,4.17,5.91,11.38-12,13.86Z" style="fill:#faea74;stroke:#3a3632;stroke-width:5px"/><path id="path1409" d="M1947.21,1798.63c-7.6,14.57-22.27,31.1-37.34,34.1-6,1.2-15.5-6.81-13.35-12.64,6.66-18,28.27-34.64,46.34-39.26C1949.1,1779.24,1955.56,1782.61,1947.21,1798.63Z" style="fill:#faea74;stroke:#3a3632;stroke-width:5px"/><path id="path1411" d="M1853.56,1850.65c-16.07,3.44-38.16,2.67-50.08-7-4.77-3.88-4.63-16.29,1.23-18.34,18.12-6.36,44.71-.31,59.78,10.67,5.21,3.79,6.73,10.91-10.93,14.69Z" style="fill:#faea74;stroke:#3a3632;stroke-width:5px"/><path id="path1413" d="M1670.9,1845.14c-15.46,5.59-37.45,7.82-50.57-.17-5.25-3.2-6.8-15.51-1.27-18.34,17.09-8.75,44.26-6.37,60.68,2.47,5.67,3.05,8.14,9.9-8.84,16Z" style="fill:#faea74;stroke:#3a3632;stroke-width:5px"/></g></svg>