<svg id="Layer_1" data-name="Layer 1" xmlns="http://www.w3.org/2000/svg" viewBox="0 0 2000 2000"><path d="M602.92,1271.14c6,1.13,11.69,2.64,17.38,4.25l4.25,1.23,4.21,1.3c2.81.85,5.59,1.77,8.35,2.7,11.07,3.74,21.89,7.92,32.53,12.41a618.83,618.83,0,0,1,61.84,30.46,515.9,515.9,0,0,1,57.91,37.38c9.25,6.94,18.28,14.25,27,22.1,4.36,3.93,8.66,8,12.84,12.22a172.67,172.67,0,0,1,12.17,13.41,16.33,16.33,0,0,1-15,26.41,170.28,170.28,0,0,1-17.74-3.6c-5.79-1.42-11.46-3.05-17.06-4.79-11.21-3.5-22.12-7.52-32.81-11.92A516.82,516.82,0,0,1,697.05,1384a623.61,623.61,0,0,1-57.8-37.58c-9.29-6.85-18.42-14-27.29-21.61q-3.33-2.85-6.59-5.8l-3.27-3-3.23-3c-4.29-4.06-8.52-8.22-12.54-12.76a17.73,17.73,0,0,1,16.59-29.17Z" style="fill:#fcfaeb;stroke:#3a3632;stroke-miterlimit:10;stroke-width:10px"/><path d="M1513.24,911.34c-5.25,3.37-10.62,6.31-16,9.13l-4,2.1-4.07,2c-2.71,1.35-5.44,2.64-8.17,3.9-10.93,5-22,9.59-33.12,13.78a641.92,641.92,0,0,1-67.85,21,533,533,0,0,1-69.8,13.08c-11.83,1.36-23.78,2.29-35.87,2.61-6,.15-12.12.18-18.26,0a176.87,176.87,0,0,1-18.6-1.4,16.84,16.84,0,0,1-7.49-30.41,176.4,176.4,0,0,1,15.83-9.88c5.33-3,10.73-5.84,16.16-8.51,10.86-5.33,21.87-10,33-14.33a533,533,0,0,1,67.9-20.81,642.39,642.39,0,0,1,69.86-12.85c11.81-1.46,23.71-2.57,35.73-3.17,3-.15,6-.28,9-.34l4.53-.11,4.56,0c6.09,0,12.2.12,18.42.66a18.27,18.27,0,0,1,8.26,33.58Z" style="fill:#fcfaeb;stroke:#3a3632;stroke-miterlimit:10;stroke-width:10px"/><path d="M860.52,527.51c4.06,4.83,7.7,9.82,11.23,14.86l2.63,3.78,2.53,3.82c1.71,2.54,3.35,5.1,5,7.68,6.48,10.3,12.46,20.79,18.1,31.41a648.6,648.6,0,0,1,29.88,65.26A538.69,538.69,0,0,1,952,722.57c2.9,11.69,5.38,23.53,7.27,35.61.94,6,1.76,12.13,2.33,18.31a178.84,178.84,0,0,1,1,18.82,17,17,0,0,1-29.5,11.44,179.29,179.29,0,0,1-12-14.57c-3.74-5-7.24-10-10.62-15.1-6.75-10.19-12.9-20.61-18.64-31.19a538.27,538.27,0,0,1-29.66-65.35,645,645,0,0,1-21.93-68.34c-3-11.65-5.66-23.43-7.82-35.4-.54-3-1-6-1.51-9l-.7-4.53-.61-4.56c-.79-6.1-1.46-12.24-1.72-18.55a18.45,18.45,0,0,1,32.57-12.63Z" style="fill:#fcfaeb;stroke:#3a3632;stroke-miterlimit:10;stroke-width:10px"/><path d="M981.88,930.71c-5.4,3.18-10.9,5.93-16.42,8.56l-4.15,2-4.16,1.85c-2.77,1.26-5.56,2.44-8.35,3.6-11.16,4.65-22.44,8.78-33.78,12.56a643.73,643.73,0,0,1-68.92,18.5,534.33,534.33,0,0,1-70.59,10.44c-11.93.92-24,1.39-36.11,1.24-6.07-.07-12.18-.28-18.33-.74a174.66,174.66,0,0,1-18.62-2.13,16.91,16.91,0,0,1-6.34-30.81,179.87,179.87,0,0,1,16.26-9.31c5.48-2.85,11-5.45,16.56-7.92,11.1-4.93,22.34-9.24,33.66-13.12a535.85,535.85,0,0,1,69-18.27,641.33,641.33,0,0,1,70.63-10.21c11.92-1,23.9-1.67,36-1.81,3,0,6-.05,9.09,0l4.56.06,4.57.16c6.11.23,12.25.58,18.47,1.37a18.35,18.35,0,0,1,7,34Z" style="fill:#fcfaeb;stroke:#3a3632;stroke-miterlimit:10;stroke-width:10px"/><path d="M247.79,1328.34c6.32,0,12.49.4,18.62.93l4.59.42,4.56.5q4.57.49,9.09,1.13c12.07,1.64,24,3.8,35.74,6.29a650.85,650.85,0,0,1,69.28,19,539,539,0,0,1,66.63,26.87c10.83,5.28,21.51,11,32,17.31,5.24,3.16,10.44,6.44,15.55,10a176.24,176.24,0,0,1,15.09,11.33,17,17,0,0,1-10.18,30,179.35,179.35,0,0,1-18.87-.2c-6.2-.31-12.33-.87-18.41-1.55-12.16-1.37-24.11-3.34-35.92-5.74a540.56,540.56,0,0,1-69.21-19.24,650.14,650.14,0,0,1-66.55-27.09c-10.86-5.19-21.61-10.72-32.18-16.76-2.65-1.51-5.28-3-7.9-4.64l-3.92-2.38-3.9-2.46c-5.19-3.32-10.34-6.74-15.34-10.59a18.48,18.48,0,0,1,11.24-33.12Z" style="fill:#fcfaeb;stroke:#3a3632;stroke-miterlimit:10;stroke-width:10px"/><path d="M584.08,914.7c-2.15,5.58-4.64,10.89-7.2,16.13l-1.94,3.91-2,3.86c-1.33,2.58-2.71,5.12-4.11,7.64-5.59,10.1-11.57,19.87-17.81,29.42a614.46,614.46,0,0,1-40.54,54.71A510.91,510.91,0,0,1,463.91,1080c-8.38,7.76-17.09,15.24-26.26,22.34-4.58,3.54-9.27,7-14.14,10.32a170.33,170.33,0,0,1-15.18,9.45,16.13,16.13,0,0,1-23-19.27,169.55,169.55,0,0,1,6.64-16.61c2.4-5.37,5-10.59,7.67-15.73,5.38-10.27,11.22-20.16,17.39-29.77a509.77,509.77,0,0,1,40.71-54.56,613,613,0,0,1,46.73-49.52c8.31-7.82,16.87-15.42,25.83-22.7,2.24-1.82,4.5-3.62,6.81-5.38l3.44-2.66,3.51-2.6c4.71-3.44,9.5-6.82,14.62-9.92a17.51,17.51,0,0,1,25.41,21.28Z" style="fill:#fcfaeb;stroke:#3a3632;stroke-miterlimit:10;stroke-width:10px"/><path d="M1013.57,1057.56c-4.3,4.9-8.83,9.39-13.42,13.77l-3.45,3.27-3.51,3.18c-2.33,2.14-4.69,4.21-7.07,6.26-9.5,8.21-19.28,15.94-29.24,23.35a669.64,669.64,0,0,1-62,40.63,556.49,556.49,0,0,1-66.23,33.21c-11.48,4.77-23.18,9.14-35.22,12.94-6,1.9-12.1,3.68-18.32,5.22a186.36,186.36,0,0,1-19.06,3.95A17.57,17.57,0,0,1,739.81,1175a185.16,185.16,0,0,1,13-14.46c4.47-4.59,9.08-9,13.75-13.19,9.36-8.47,19-16.37,28.95-23.87a556.51,556.51,0,0,1,62.1-40.41,669.38,669.38,0,0,1,66.35-33c11.43-4.86,23-9.4,34.92-13.46,3-1,6-2,9-2.94l4.52-1.42,4.56-1.34c6.11-1.75,12.27-3.39,18.66-4.63a19,19,0,0,1,18,31.28Z" style="fill:#fcfaeb;stroke:#3a3632;stroke-miterlimit:10;stroke-width:10px"/><path d="M968.64,1065.94c4.1,5,7.77,10.12,11.32,15.31l2.65,3.89,2.55,3.93c1.72,2.62,3.37,5.26,5,7.91,6.52,10.59,12.52,21.38,18.17,32.3a660.47,660.47,0,0,1,29.87,67,550.49,550.49,0,0,1,21.94,70c2.84,12,5.25,24.11,7,36.48.9,6.18,1.67,12.41,2.2,18.74a184.79,184.79,0,0,1,.82,19.25,17.39,17.39,0,0,1-30.28,11.39,185.09,185.09,0,0,1-12.07-15c-3.77-5.1-7.3-10.29-10.7-15.54-6.79-10.49-13-21.21-18.73-32.09a551.31,551.31,0,0,1-29.64-67.12,662.83,662.83,0,0,1-21.71-70.1c-2.94-11.94-5.53-24-7.61-36.27-.52-3.06-1-6.14-1.45-9.24l-.67-4.64-.58-4.67c-.74-6.24-1.37-12.53-1.57-19a18.88,18.88,0,0,1,33.44-12.57Z" style="fill:#fcfaeb;stroke:#3a3632;stroke-miterlimit:10;stroke-width:10px"/><path d="M1018.9,900.3c6,.29,11.82,1,17.61,1.77l4.34.61,4.3.7c2.87.45,5.72,1,8.57,1.49,11.36,2.14,22.54,4.74,33.59,7.67a615.65,615.65,0,0,1,64.82,21.32A511,511,0,0,1,1214,962.5c10,5.53,19.89,11.45,29.53,17.94,4.82,3.24,9.59,6.6,14.27,10.19a170.52,170.52,0,0,1,13.78,11.47,16.17,16.17,0,0,1-11.08,28,169.17,169.17,0,0,1-17.89-1.08c-5.87-.59-11.65-1.41-17.38-2.34-11.47-1.88-22.72-4.32-33.8-7.15A513.29,513.29,0,0,1,1126.73,998a617.77,617.77,0,0,1-61.83-28.85c-10.06-5.44-20-11.19-29.73-17.42-2.44-1.56-4.86-3.14-7.27-4.78l-3.61-2.43-3.58-2.53c-4.76-3.39-9.48-6.88-14.05-10.77a17.55,17.55,0,0,1,12.24-30.88Z" style="fill:#fcfaeb;stroke:#3a3632;stroke-miterlimit:10;stroke-width:10px"/><path d="M1040.88,583.35c4.42,4,8.47,8.17,12.42,12.41l3,3.19,2.87,3.24c1.93,2.15,3.8,4.33,5.64,6.52,7.4,8.77,14.35,17.78,21,27a610.8,610.8,0,0,1,36.43,57.05,508,508,0,0,1,29.62,60.84c4.23,10.53,8.1,21.27,11.44,32.31,1.66,5.51,3.22,11.09,4.57,16.79a169.84,169.84,0,0,1,3.39,17.45,16,16,0,0,1-26,14.54,171.59,171.59,0,0,1-13.07-12c-4.14-4.14-8.07-8.39-11.89-12.71-7.63-8.64-14.74-17.56-21.49-26.7A507.9,507.9,0,0,1,1062.49,726a608.37,608.37,0,0,1-29.42-60.95c-4.32-10.49-8.35-21.14-11.92-32-.9-2.72-1.78-5.46-2.59-8.22l-1.25-4.14-1.17-4.19c-1.53-5.59-3-11.24-4-17.09a17.39,17.39,0,0,1,14-20.24A17.58,17.58,0,0,1,1040.88,583.35Z" style="fill:#fcfaeb;stroke:#3a3632;stroke-miterlimit:10;stroke-width:10px"/><path d="M1204.54,501c-4.89,4.07-10,7.72-15,11.26l-3.84,2.63-3.87,2.54c-2.57,1.71-5.17,3.36-7.78,5-10.42,6.49-21,12.47-31.8,18.11a655.28,655.28,0,0,1-66,29.84,544.57,544.57,0,0,1-69,22c-11.81,2.87-23.78,5.31-36,7.15-6.11.92-12.26,1.72-18.5,2.27a182.71,182.71,0,0,1-19,.91,17.17,17.17,0,0,1-11.4-29.84,180.3,180.3,0,0,1,14.78-12c5-3.76,10.13-7.27,15.29-10.65,10.32-6.76,20.88-12.93,31.59-18.66A541.49,541.49,0,0,1,1050,501.93a650.74,650.74,0,0,1,69.11-21.8c11.77-3,23.68-5.59,35.78-7.71,3-.53,6-1,9.11-1.48l4.58-.68,4.61-.6c6.16-.76,12.37-1.41,18.73-1.64a18.63,18.63,0,0,1,12.59,33Z" style="fill:#fcfaeb;stroke:#3a3632;stroke-miterlimit:10;stroke-width:10px"/><path d="M819.06,245.47c.28,6.06.16,12-.08,17.9l-.2,4.42-.28,4.4q-.27,4.4-.68,8.76c-1,11.64-2.59,23.14-4.46,34.55a620.9,620.9,0,0,1-15.19,67.28,516.28,516.28,0,0,1-22.83,65.08c-4.59,10.62-9.59,21.11-15.19,31.44-2.8,5.17-5.72,10.3-8.88,15.35a172.12,172.12,0,0,1-10.2,15,16.34,16.34,0,0,1-29.21-8.44,170.09,170.09,0,0,1-.64-18.1c0-6,.29-11.86.67-17.72.78-11.72,2.15-23.28,3.93-34.71a516.09,516.09,0,0,1,15.4-67.22,621,621,0,0,1,23-65c4.49-10.64,9.32-21.19,14.65-31.6,1.33-2.6,2.68-5.2,4.1-7.77l2.11-3.88,2.19-3.84c2.95-5.12,6-10.21,9.48-15.18a17.74,17.74,0,0,1,32.26,9.32Z" style="fill:#fcfaeb;stroke:#3a3632;stroke-miterlimit:10;stroke-width:10px"/><path d="M601.67,595.17c6.44.6,12.69,1.62,18.9,2.75l4.64.87,4.6,1c3.07.62,6.12,1.31,9.15,2,12.15,2.85,24.06,6.2,35.83,9.88a663.57,663.57,0,0,1,68.8,26.09,552.06,552.06,0,0,1,65.32,33.84c10.54,6.43,20.88,13.29,31,20.74,5,3.73,10,7.58,14.89,11.67A184.45,184.45,0,0,1,869,717a17.44,17.44,0,0,1-13.28,29.59,183.78,183.78,0,0,1-19.22-2c-6.3-.91-12.49-2.07-18.62-3.36-12.26-2.57-24.26-5.74-36.07-9.33a552,552,0,0,1-68.7-26.31,663.87,663.87,0,0,1-65.23-34.06c-10.57-6.34-21-13-31.19-20.19-2.55-1.8-5.09-3.62-7.6-5.5l-3.77-2.8-3.74-2.89c-5-3.88-9.88-7.87-14.61-12.28a18.92,18.92,0,0,1,14.66-32.68Z" style="fill:#fcfaeb;stroke:#3a3632;stroke-miterlimit:10;stroke-width:10px"/><path d="M757.18,731.35c-1.42,6.2-3.22,12.15-5.12,18l-1.44,4.41-1.53,4.36c-1,2.91-2.06,5.79-3.15,8.65-4.33,11.46-9.13,22.63-14.23,33.62a652.53,652.53,0,0,1-34.28,63.64,540.93,540.93,0,0,1-41.37,59.26c-7.62,9.43-15.63,18.61-24.19,27.46-4.28,4.43-8.67,8.78-13.28,13A183.5,183.5,0,0,1,604.07,976,17.13,17.13,0,0,1,577,959.29a182,182,0,0,1,4.45-18.45c1.71-6,3.63-11.9,5.68-17.7,4.08-11.62,8.71-22.89,13.73-33.93a542.3,542.3,0,0,1,34.48-63.52,649.27,649.27,0,0,1,41.57-59.13c7.53-9.48,15.38-18.77,23.69-27.78,2.07-2.25,4.17-4.49,6.32-6.69l3.22-3.31,3.29-3.27c4.43-4.34,9-8.61,13.85-12.65a18.59,18.59,0,0,1,29.94,18.49Z" style="fill:#fcfaeb;stroke:#3a3632;stroke-miterlimit:10;stroke-width:10px"/><path d="M729.18,998.22c-3.26,5.23-6.78,10.12-10.39,14.93l-2.71,3.58-2.78,3.51q-2.76,3.53-5.62,6.94c-7.59,9.13-15.51,17.85-23.66,26.31a632.49,632.49,0,0,1-51.5,47.5,525.47,525.47,0,0,1-56.62,41.24c-10,6.23-20.21,12.12-30.84,17.53-5.32,2.7-10.72,5.31-16.28,7.71a174.06,174.06,0,0,1-17.17,6.64,16.6,16.6,0,0,1-19.55-23.91,175.83,175.83,0,0,1,9.9-15.51c3.46-5,7.08-9.75,10.79-14.43,7.41-9.35,15.21-18.22,23.3-26.75a524.61,524.61,0,0,1,51.65-47.32,630.87,630.87,0,0,1,56.77-41.06c9.9-6.31,20-12.35,30.47-18,2.62-1.4,5.25-2.79,7.92-4.13l4-2,4-2c5.42-2.58,10.91-5.07,16.68-7.22a18,18,0,0,1,21.6,26.39Z" style="fill:#fcfaeb;stroke:#3a3632;stroke-miterlimit:10;stroke-width:10px"/><path d="M1296.3,1268c1.55,6.38,2.64,12.73,3.6,19.06l.7,4.74.6,4.74c.42,3.16.77,6.31,1.08,9.46,1.29,12.6,2,25.16,2.36,37.67a676.07,676.07,0,0,1-2.32,74.71,559.7,559.7,0,0,1-10.91,73.93c-2.7,12.24-5.86,24.44-9.69,36.58-1.92,6.07-4,12.13-6.29,18.16a186.72,186.72,0,0,1-7.78,18,17.71,17.71,0,0,1-32.81-3,184.21,184.21,0,0,1-4.41-19.13c-1.2-6.35-2.13-12.68-2.93-19-1.58-12.63-2.5-25.2-3-37.73a561.51,561.51,0,0,1,2.57-74.68,673.35,673.35,0,0,1,11.15-73.91c2.59-12.25,5.56-24.47,9.09-36.64.88-3,1.79-6.08,2.76-9.11l1.45-4.55,1.54-4.55c2.08-6,4.29-12.09,7-18.09a19.22,19.22,0,0,1,36.23,3.28Z" style="fill:#fcfaeb;stroke:#3a3632;stroke-miterlimit:10;stroke-width:10px"/><path d="M1098.71,1621.8c6.25.19,12.34.8,18.39,1.52l4.53.56,4.5.64c3,.42,6,.9,8.95,1.4,11.89,2,23.59,4.52,35.16,7.37a643.42,643.42,0,0,1,67.94,21,533.94,533.94,0,0,1,65.06,28.7c10.55,5.57,20.94,11.56,31.1,18.14,5.09,3.29,10.12,6.71,15.07,10.36a179.22,179.22,0,0,1,14.57,11.69,16.85,16.85,0,0,1-11,29.35,179.11,179.11,0,0,1-18.66-.79c-6.13-.51-12.17-1.25-18.16-2.12-12-1.74-23.75-4.08-35.36-6.82a534.54,534.54,0,0,1-67.86-21.24,643.48,643.48,0,0,1-65-28.91c-10.59-5.48-21-11.29-31.31-17.6-2.57-1.58-5.13-3.18-7.66-4.84l-3.81-2.48-3.78-2.56c-5-3.44-10-7-14.84-11a18.29,18.29,0,0,1,12.17-32.41Z" style="fill:#fcfaeb;stroke:#3a3632;stroke-miterlimit:10;stroke-width:10px"/><path d="M934.8,1658.58c-2.93,5.44-6.15,10.57-9.45,15.61l-2.49,3.76-2.56,3.7q-2.53,3.7-5.18,7.3c-7,9.63-14.4,18.88-22,27.87a634.52,634.52,0,0,1-48.55,50.86,524.52,524.52,0,0,1-54.07,44.93c-9.58,6.88-19.46,13.44-29.76,19.54-5.16,3-10.4,6-15.81,8.76a175.93,175.93,0,0,1-16.77,7.74A16.66,16.66,0,0,1,707,1826,172.73,172.73,0,0,1,716,1809.8c3.15-5.21,6.47-10.22,9.88-15.15,6.83-9.83,14.08-19.22,21.62-28.28a528.27,528.27,0,0,1,48.71-50.7,634.76,634.76,0,0,1,54.23-44.76c9.51-7,19.26-13.64,29.37-20,2.53-1.58,5.07-3.13,7.66-4.64l3.87-2.29,3.93-2.21c5.27-2.93,10.61-5.77,16.25-8.3a18.08,18.08,0,0,1,23.89,9.12A18.27,18.27,0,0,1,934.8,1658.58Z" style="fill:#fcfaeb;stroke:#3a3632;stroke-miterlimit:10;stroke-width:10px"/><path d="M668.47,1388.09c-2.19,5.53-4.71,10.78-7.31,16l-2,3.87-2,3.82c-1.34,2.55-2.74,5.06-4.15,7.55-5.66,10-11.69,19.63-18,29.06a611,611,0,0,1-40.83,54,507.51,507.51,0,0,1-46.77,48.89c-8.4,7.63-17.13,15-26.31,21.94-4.6,3.48-9.28,6.88-14.16,10.12a170.31,170.31,0,0,1-15.18,9.25,16,16,0,0,1-22.68-19.38,170.88,170.88,0,0,1,6.76-16.44c2.44-5.32,5.07-10.48,7.79-15.56,5.44-10.16,11.34-19.93,17.57-29.42a506.18,506.18,0,0,1,41-53.82,611.31,611.31,0,0,1,46.94-48.75c8.33-7.69,16.92-15.16,25.9-22.3,2.24-1.79,4.5-3.56,6.81-5.28l3.45-2.61,3.52-2.55c4.71-3.38,9.5-6.68,14.62-9.72a17.4,17.4,0,0,1,25,21.4Z" style="fill:#fcfaeb;stroke:#3a3632;stroke-miterlimit:10;stroke-width:10px"/><path d="M503.13,1644.13c-.37,6.29-1.16,12.4-2.05,18.47l-.69,4.55-.78,4.51c-.51,3-1.08,6-1.67,9-2.37,11.91-5.23,23.61-8.42,35.18a648.06,648.06,0,0,1-23.1,67.81,537.53,537.53,0,0,1-30.76,64.67c-5.91,10.46-12.24,20.75-19.15,30.8-3.47,5-7.05,10-10.87,14.87a178,178,0,0,1-12.19,14.34,17,17,0,0,1-29.23-11.94,179.6,179.6,0,0,1,1.34-18.77c.68-6.16,1.6-12.22,2.65-18.23,2.1-12,4.78-23.79,7.88-35.4a537.62,537.62,0,0,1,23.32-67.71,646.92,646.92,0,0,1,31-64.59c5.82-10.5,12-20.86,18.62-31q2.49-3.81,5.09-7.57l2.6-3.77,2.69-3.73c3.61-5,7.33-9.88,11.47-14.62a18.42,18.42,0,0,1,32.28,13.18Z" style="fill:#fcfaeb;stroke:#3a3632;stroke-miterlimit:10;stroke-width:10px"/><path d="M983.77,1336.8c2.68,5.44,4.92,11,7.05,16.46l1.58,4.14,1.49,4.16c1,2.76,2,5.54,2.86,8.31,3.67,11.11,6.82,22.29,9.64,33.51a624.19,624.19,0,0,1,12.81,67.84,519.42,519.42,0,0,1,4.91,68.84c0,11.58-.42,23.22-1.45,34.93-.52,5.85-1.16,11.73-2,17.63a173.8,173.8,0,0,1-3.42,17.81,16.37,16.37,0,0,1-30.19,3.86,173.91,173.91,0,0,1-7.79-16.37c-2.35-5.49-4.45-11-6.42-16.55-3.95-11.07-7.29-22.23-10.2-33.43A517.9,517.9,0,0,1,950,1480.07a622,622,0,0,1-4.69-68.88c-.1-11.56.14-23.17.89-34.85.19-2.92.4-5.84.68-8.77l.39-4.39.49-4.41c.67-5.87,1.46-11.76,2.67-17.71a17.75,17.75,0,0,1,33.33-4.26Z" style="fill:#fcfaeb;stroke:#3a3632;stroke-miterlimit:10;stroke-width:10px"/><path d="M1412.5,1218.58c-5.5,3.54-11.12,6.63-16.76,9.6l-4.23,2.21-4.27,2.11c-2.83,1.42-5.69,2.77-8.55,4.1-11.44,5.31-23,10.08-34.67,14.49a670.11,670.11,0,0,1-71,22.18,557.43,557.43,0,0,1-73.11,13.84c-12.4,1.45-24.91,2.45-37.58,2.8-6.33.18-12.7.22-19.13,0a185.58,185.58,0,0,1-19.49-1.43,17.64,17.64,0,0,1-7.9-31.85,187.29,187.29,0,0,1,16.56-10.38c5.58-3.2,11.23-6.14,16.91-8.94,11.37-5.61,22.9-10.58,34.53-15.09a559.47,559.47,0,0,1,71.11-21.94,672.5,672.5,0,0,1,73.17-13.6c12.37-1.55,24.83-2.74,37.43-3.39,3.15-.17,6.3-.3,9.48-.37l4.75-.13,4.77,0c6.38,0,12.79.1,19.3.66a19.14,19.14,0,0,1,17.44,20.7A19.33,19.33,0,0,1,1412.5,1218.58Z" style="fill:#fcfaeb;stroke:#3a3632;stroke-miterlimit:10;stroke-width:10px"/><path d="M1423.39,1247.71c6.22,1.47,12.19,3.32,18.1,5.28l4.42,1.49,4.37,1.57c2.92,1,5.8,2.12,8.67,3.24,11.48,4.45,22.67,9.36,33.67,14.57a654.14,654.14,0,0,1,63.68,35,545.14,545.14,0,0,1,59.23,42.05c9.41,7.74,18.58,15.87,27.4,24.54,4.42,4.33,8.76,8.78,13,13.46a179.64,179.64,0,0,1,12.18,14.68,17.21,17.21,0,0,1-17,27.11,180.07,180.07,0,0,1-18.51-4.62c-6-1.76-11.93-3.74-17.75-5.84-11.63-4.2-22.93-9-34-14.08a546.54,546.54,0,0,1-63.56-35.16,654,654,0,0,1-59.09-42.27c-9.47-7.65-18.74-15.61-27.73-24-2.24-2.1-4.48-4.23-6.67-6.41l-3.31-3.26-3.25-3.34c-4.33-4.48-8.58-9.06-12.6-14a18.67,18.67,0,0,1,18.82-29.93Z" style="fill:#fcfaeb;stroke:#3a3632;stroke-miterlimit:10;stroke-width:10px"/><path d="M1704,1018.14c-3.77,5-7.78,9.55-11.85,14.05l-3.07,3.35-3.12,3.28q-3.12,3.29-6.31,6.46c-8.5,8.48-17.29,16.52-26.29,24.27a639.75,639.75,0,0,1-56.29,43,532.1,532.1,0,0,1-60.87,36.22c-10.62,5.34-21.48,10.32-32.69,14.77-5.61,2.22-11.29,4.34-17.12,6.24a176.33,176.33,0,0,1-17.9,5.07,16.79,16.79,0,0,1-17.45-25.9,177.52,177.52,0,0,1,11.42-14.68c4-4.69,8-9.16,12.21-13.52,8.34-8.72,17-16.92,26-24.75a532.43,532.43,0,0,1,56.43-42.82,639.17,639.17,0,0,1,61-36c10.56-5.42,21.32-10.55,32.37-15.24,2.76-1.18,5.54-2.33,8.35-3.43l4.21-1.66,4.26-1.59c5.7-2.08,11.47-4.08,17.48-5.7a18.22,18.22,0,0,1,19.27,28.6Z" style="fill:#fcfaeb;stroke:#3a3632;stroke-miterlimit:10;stroke-width:10px"/><path d="M1614.93,621.31c-5,3.27-10.15,6.14-15.3,8.89l-3.87,2-3.89,2c-2.59,1.32-5.2,2.57-7.81,3.8-10.46,4.93-21,9.37-31.7,13.48a617.94,617.94,0,0,1-65,20.7,512.5,512.5,0,0,1-66.92,13.08c-11.35,1.4-22.81,2.38-34.42,2.78-5.8.19-11.64.26-17.53.1a170.46,170.46,0,0,1-17.87-1.21,16.17,16.17,0,0,1-7.41-29.14,169.45,169.45,0,0,1,15.12-9.6c5.1-3,10.26-5.69,15.45-8.29,10.38-5.2,20.92-9.81,31.56-14a511.56,511.56,0,0,1,65-20.49,614.42,614.42,0,0,1,67-12.86c11.33-1.49,22.74-2.65,34.28-3.31,2.88-.17,5.77-.31,8.68-.39l4.35-.14,4.38-.06c5.84,0,11.71,0,17.69.5a17.54,17.54,0,0,1,8.18,32.17Z" style="fill:#fcfaeb;stroke:#3a3632;stroke-miterlimit:10;stroke-width:10px"/><path d="M1280.89,500.84c4.78,4,9.19,8.15,13.49,12.4l3.21,3.2,3.13,3.24q3.15,3.24,6.17,6.56c8.08,8.82,15.72,17.91,23.06,27.19a638,638,0,0,1,40.44,57.88,528.75,528.75,0,0,1,33.5,62.15c4.87,10.79,9.36,21.82,13.32,33.17,2,5.68,3.85,11.43,5.49,17.31a177.12,177.12,0,0,1,4.3,18,16.73,16.73,0,0,1-26.53,16.28,176.55,176.55,0,0,1-14.14-12c-4.5-4.13-8.78-8.39-12.95-12.73-8.33-8.67-16.13-17.66-23.55-26.89a530.13,530.13,0,0,1-40.24-58,635.71,635.71,0,0,1-33.3-62.27c-5-10.74-9.61-21.67-13.81-32.87-1.06-2.8-2.09-5.62-3.06-8.47l-1.48-4.26-1.4-4.31c-1.84-5.76-3.58-11.58-4.94-17.64a18.15,18.15,0,0,1,29.29-18Z" style="fill:#fcfaeb;stroke:#3a3632;stroke-miterlimit:10;stroke-width:10px"/><path d="M1358.8,130.77c4.67,4.06,9,8.34,13.16,12.68l3.13,3.26,3.05,3.31q3.06,3.31,6,6.69c7.86,9,15.26,18.23,22.36,27.65a638,638,0,0,1,39,58.66,529.08,529.08,0,0,1,32,62.75c4.61,10.88,8.83,22,12.51,33.39,1.84,5.71,3.57,11.49,5.08,17.39a178.23,178.23,0,0,1,3.86,18.09A16.7,16.7,0,0,1,1472,390.26,178.39,178.39,0,0,1,1458.21,378c-4.39-4.23-8.55-8.58-12.61-13-8.1-8.84-15.67-18-22.86-27.37A529.18,529.18,0,0,1,1384,278.82,634.47,634.47,0,0,1,1352.21,216c-4.69-10.83-9.07-21.84-13-33.11-1-2.81-2-5.65-2.85-8.51l-1.38-4.28-1.29-4.33c-1.7-5.79-3.3-11.64-4.52-17.71a18.11,18.11,0,0,1,29.63-17.25Z" style="fill:#fcfaeb;stroke:#3a3632;stroke-miterlimit:10;stroke-width:10px"/><path d="M988.53,89.68c5.17,3.54,10,7.35,14.7,11.23l3.52,2.93,3.45,3c2.31,2,4.56,4,6.79,6,8.94,8.13,17.46,16.58,25.68,25.25a641.12,641.12,0,0,1,46,54.52A534.23,534.23,0,0,1,1128,252.06c5.88,10.41,11.41,21.09,16.43,32.15,2.5,5.53,4.91,11.14,7.1,16.9a180.28,180.28,0,0,1,6,17.75,16.9,16.9,0,0,1-25.2,18.8A178.81,178.81,0,0,1,1117,326.89c-4.9-3.74-9.59-7.64-14.18-11.62-9.17-8-17.83-16.3-26.14-24.9a535.3,535.3,0,0,1-45.77-54.66,642.81,642.81,0,0,1-39.18-59.59c-6-10.35-11.64-20.92-16.89-31.8q-2-4.08-3.85-8.23l-1.87-4.16-1.81-4.2c-2.37-5.63-4.65-11.33-6.58-17.29a18.34,18.34,0,0,1,27.82-20.76Z" style="fill:#fcfaeb;stroke:#3a3632;stroke-miterlimit:10;stroke-width:10px"/><path d="M816.4,314.2c6.37,0,12.6.39,18.79.91l4.64.42,4.61.5c3.07.32,6.13.71,9.17,1.12,12.19,1.64,24.2,3.8,36.09,6.3a655.72,655.72,0,0,1,70,19.09,543.78,543.78,0,0,1,67.3,27c11,5.32,21.74,11.07,32.33,17.43,5.3,3.18,10.55,6.49,15.72,10a181.74,181.74,0,0,1,15.25,11.42,17.19,17.19,0,0,1-10.23,30.29,182.9,182.9,0,0,1-19-.16c-6.27-.31-12.45-.86-18.59-1.54-12.27-1.36-24.35-3.34-36.27-5.74A544.51,544.51,0,0,1,936.23,412,655.59,655.59,0,0,1,869,384.73c-11-5.22-21.84-10.78-32.52-16.86-2.68-1.52-5.34-3.06-8-4.67l-4-2.39-3.94-2.48c-5.24-3.34-10.44-6.79-15.5-10.67a18.66,18.66,0,0,1,11.3-33.46Z" style="fill:#fcfaeb;stroke:#3a3632;stroke-miterlimit:10;stroke-width:10px"/><path d="M462.05,304.47c2.7,5.66,5,11.36,7.1,17.09l1.58,4.29,1.49,4.31c1,2.87,1.95,5.74,2.87,8.62,3.67,11.52,6.8,23.1,9.58,34.72a644.28,644.28,0,0,1,12.49,70.22,534.05,534.05,0,0,1,4.31,71.17c-.12,12-.69,24-1.88,36.06-.6,6-1.33,12.11-2.32,18.2a177.07,177.07,0,0,1-3.72,18.35,16.9,16.9,0,0,1-31.23,3.66,177.31,177.31,0,0,1-7.86-17c-2.37-5.7-4.48-11.42-6.46-17.16-3.95-11.49-7.28-23-10.16-34.65a534.2,534.2,0,0,1-12.25-70.25,642,642,0,0,1-4.08-71.2c0-11.95.4-23.94,1.3-36,.23-3,.48-6,.8-9l.45-4.53.55-4.55c.76-6.06,1.64-12.14,3-18.26a18.34,18.34,0,0,1,34.48-4Z" style="fill:#fcfaeb;stroke:#3a3632;stroke-miterlimit:10;stroke-width:10px"/><path d="M349.33,556.7c-4,4.55-8.15,8.73-12.39,12.81l-3.19,3-3.23,3q-3.22,3-6.53,5.83c-8.78,7.65-17.81,14.85-27,21.75A619.3,619.3,0,0,1,239.69,641a515,515,0,0,1-61.25,31c-10.62,4.47-21.45,8.57-32.59,12.13-5.57,1.79-11.21,3.46-17,4.92a173.22,173.22,0,0,1-17.64,3.73,16.27,16.27,0,0,1-15.18-26.2,173.46,173.46,0,0,1,12-13.46c4.13-4.27,8.38-8.32,12.7-12.27,8.64-7.89,17.58-15.25,26.74-22.24A515.52,515.52,0,0,1,204.9,581a619.43,619.43,0,0,1,61.37-30.84c10.57-4.56,21.31-8.81,32.31-12.62,2.75-1,5.51-1.89,8.3-2.76l4.19-1.33,4.22-1.26c5.65-1.65,11.36-3.19,17.28-4.37a17.67,17.67,0,0,1,20.77,13.87A17.86,17.86,0,0,1,349.33,556.7Z" style="fill:#fcfaeb;stroke:#3a3632;stroke-miterlimit:10;stroke-width:10px"/><path d="M227.77,831.9c1.63,5.74,2.84,11.45,3.94,17.17l.8,4.28.72,4.28c.49,2.85.91,5.7,1.31,8.55,1.61,11.39,2.71,22.76,3.47,34.11a613.05,613.05,0,0,1,.54,67.9,511.24,511.24,0,0,1-7.29,67.5c-2,11.2-4.46,22.39-7.51,33.54-1.52,5.58-3.17,11.15-5.07,16.71a169.34,169.34,0,0,1-6.42,16.64,16.09,16.09,0,0,1-29.89-1.54,169.38,169.38,0,0,1-4.68-17.21c-1.31-5.73-2.38-11.44-3.33-17.14-1.88-11.41-3.16-22.79-4-34.14a511.11,511.11,0,0,1-.31-67.89,612.93,612.93,0,0,1,7.51-67.48c1.92-11.21,4.19-22.41,7-33.58.69-2.79,1.41-5.58,2.19-8.37l1.15-4.18,1.23-4.18c1.68-5.57,3.47-11.13,5.69-16.68a17.46,17.46,0,0,1,33,1.71Z" style="fill:#fcfaeb;stroke:#3a3632;stroke-miterlimit:10;stroke-width:10px"/><path d="M505.53,1053.55c-4.9,4.24-10,8-15.1,11.75l-3.85,2.75-3.88,2.66c-2.59,1.79-5.2,3.52-7.82,5.22-10.48,6.8-21.16,13.09-32,19a665.89,665.89,0,0,1-66.59,31.64,554.26,554.26,0,0,1-69.78,23.74c-12,3.15-24.09,5.87-36.47,8-6.19,1.06-12.43,2-18.77,2.67a184.83,184.83,0,0,1-19.32,1.3,17.47,17.47,0,0,1-12.18-30.13,184,184,0,0,1,14.8-12.49c5-3.92,10.17-7.59,15.35-11.13,10.37-7.08,21-13.55,31.77-19.6a552.16,552.16,0,0,1,66.68-31.41A665.78,665.78,0,0,1,418.25,1034c11.92-3.25,24-6.15,36.24-8.54,3.07-.6,6.14-1.17,9.25-1.68l4.64-.78,4.68-.7c6.25-.9,12.55-1.68,19-2a19,19,0,0,1,13.45,33.27Z" style="fill:#fcfaeb;stroke:#3a3632;stroke-miterlimit:10;stroke-width:10px"/><path d="M436,1177.35c4.86,4.19,9.33,8.61,13.69,13.09l3.25,3.38,3.17,3.42c2.13,2.27,4.2,4.58,6.24,6.9,8.18,9.28,15.89,18.85,23.29,28.59a658.37,658.37,0,0,1,40.62,60.67,548.13,548.13,0,0,1,33.37,64.93c4.81,11.26,9.23,22.75,13.09,34.57,1.93,5.92,3.74,11.89,5.32,18a181.82,181.82,0,0,1,4.07,18.74,17.3,17.3,0,0,1-27.76,16.29A184,184,0,0,1,540,1433.25c-4.57-4.37-8.9-8.87-13.13-13.43-8.43-9.14-16.31-18.6-23.79-28.29a546.13,546.13,0,0,1-40.42-60.79,659.3,659.3,0,0,1-33.16-65.06c-4.9-11.2-9.49-22.6-13.6-34.27-1-2.91-2-5.84-3-8.81l-1.44-4.44-1.36-4.48c-1.78-6-3.46-12-4.75-18.34a18.78,18.78,0,0,1,30.66-18Z" style="fill:#fcfaeb;stroke:#3a3632;stroke-miterlimit:10;stroke-width:10px"/><path d="M610.53,638.28c5.78,1.56,11.32,3.48,16.8,5.48l4.1,1.53,4.05,1.59c2.71,1.06,5.38,2.16,8,3.29,10.63,4.51,21,9.44,31.13,14.65a612.84,612.84,0,0,1,58.65,34.63,509.9,509.9,0,0,1,54.27,41.14c8.6,7.53,17,15.41,25,23.8,4,4.19,7.94,8.49,11.74,13a171.22,171.22,0,0,1,11,14.12,16.14,16.14,0,0,1-16.77,24.9,167.73,167.73,0,0,1-17.22-4.87c-5.6-1.83-11.06-3.86-16.45-6-10.78-4.28-21.23-9.06-31.44-14.19a510.85,510.85,0,0,1-58.53-34.82,613,613,0,0,1-54.14-41.33c-8.65-7.45-17.11-15.18-25.28-23.33-2-2-4.07-4.1-6.06-6.21l-3-3.15-3-3.22c-3.92-4.32-7.78-8.74-11.4-13.51a17.52,17.52,0,0,1,18.52-27.5Z" style="fill:#fcfaeb;stroke:#3a3632;stroke-miterlimit:10;stroke-width:10px"/><path d="M1173.41,1345.21c-2.89,5.61-6.08,10.89-9.36,16.08l-2.48,3.88L1159,1369c-1.68,2.55-3.41,5.06-5.16,7.54-7,9.94-14.35,19.49-22,28.79a644.36,644.36,0,0,1-48.62,52.7,538.41,538.41,0,0,1-54.35,46.74c-9.65,7.18-19.61,14-30,20.43-5.2,3.19-10.5,6.3-16,9.21a179.48,179.48,0,0,1-17,8.18,17,17,0,0,1-21.92-22.77,179.71,179.71,0,0,1,8.82-16.64c3.12-5.36,6.42-10.53,9.82-15.6,6.78-10.15,14-19.85,21.55-29.21a537.35,537.35,0,0,1,48.78-52.53,646,646,0,0,1,54.52-46.57c9.58-7.26,19.41-14.25,29.61-20.85q3.81-2.49,7.73-4.87l3.9-2.39,4-2.33c5.32-3.08,10.72-6.07,16.42-8.74a18.44,18.44,0,0,1,24.21,25.14Z" style="fill:#fcfaeb;stroke:#3a3632;stroke-miterlimit:10;stroke-width:10px"/><path d="M1500.08,915.91c-3.59,5.28-7.46,10.21-11.39,15l-3,3.6-3,3.52c-2,2.37-4,4.68-6.12,7-8.25,9.15-16.82,17.87-25.62,26.29a656.22,656.22,0,0,1-55.38,47.11,544.61,544.61,0,0,1-60.42,40.4c-10.59,6.05-21.45,11.73-32.7,16.89-5.63,2.58-11.34,5.06-17.2,7.32a180.28,180.28,0,0,1-18.08,6.16,17.23,17.23,0,0,1-19.28-25.6,182.86,182.86,0,0,1,10.92-15.66c3.79-5,7.75-9.82,11.78-14.51,8.08-9.39,16.54-18.26,25.27-26.77a544.65,544.65,0,0,1,55.52-46.91A656.15,656.15,0,0,1,1412,919.54c10.53-6.13,21.27-12,32.35-17.37,2.76-1.35,5.55-2.68,8.37-3.95l4.23-1.94,4.28-1.85c5.73-2.45,11.52-4.8,17.6-6.79a18.7,18.7,0,0,1,21.29,28.27Z" style="fill:#fcfaeb;stroke:#3a3632;stroke-miterlimit:10;stroke-width:10px"/><path d="M1177.46,779.26c-.46,6.15-1.33,12.14-2.3,18.08l-.75,4.44-.83,4.41c-.54,2.95-1.15,5.87-1.78,8.78-2.5,11.64-5.49,23.07-8.8,34.36a636.16,636.16,0,0,1-23.71,66.13,526.62,526.62,0,0,1-31.17,62.95c-6,10.16-12.33,20.16-19.27,29.9-3.47,4.87-7.06,9.69-10.88,14.42a180.13,180.13,0,0,1-12.17,13.86,16.65,16.65,0,0,1-28.48-12.16,174.39,174.39,0,0,1,1.6-18.38c.76-6,1.76-12,2.88-17.84,2.25-11.75,5.06-23.25,8.28-34.59a527.15,527.15,0,0,1,23.93-66,632.46,632.46,0,0,1,31.38-62.85c5.87-10.2,12.06-20.27,18.74-30.13,1.66-2.46,3.35-4.92,5.11-7.35l2.61-3.65,2.69-3.61c3.62-4.81,7.34-9.58,11.47-14.17a18.07,18.07,0,0,1,31.45,13.44Z" style="fill:#fcfaeb;stroke:#3a3632;stroke-miterlimit:10;stroke-width:10px"/><path d="M586.1,326.72c6.32,0,12.49.41,18.62.93l4.59.42,4.56.51c3,.32,6.07.71,9.09,1.12,12.07,1.65,24,3.8,35.73,6.3A648,648,0,0,1,728,355a540.61,540.61,0,0,1,66.63,26.87c10.83,5.29,21.51,11,32,17.31,5.24,3.16,10.44,6.45,15.55,10a178.36,178.36,0,0,1,15.09,11.33,17,17,0,0,1-10.18,30,179.37,179.37,0,0,1-18.87-.19c-6.2-.32-12.33-.87-18.41-1.56-12.16-1.37-24.11-3.34-35.92-5.74a537.31,537.31,0,0,1-69.21-19.24,647.88,647.88,0,0,1-66.55-27.09c-10.86-5.19-21.61-10.72-32.18-16.76q-4-2.25-7.9-4.64l-3.92-2.37-3.9-2.47c-5.19-3.31-10.34-6.74-15.34-10.59a18.48,18.48,0,0,1,11.24-33.12Z" style="fill:#fcfaeb;stroke:#3a3632;stroke-miterlimit:10;stroke-width:10px"/><path d="M1182.87,447.54c-2.15,5.58-4.63,10.89-7.2,16.13l-1.94,3.92-2,3.85c-1.33,2.58-2.71,5.12-4.11,7.65-5.58,10.09-11.56,19.86-17.8,29.41a615,615,0,0,1-40.54,54.71,511,511,0,0,1-46.56,49.66c-8.38,7.76-17.09,15.24-26.26,22.34-4.59,3.55-9.27,7-14.14,10.32a169.47,169.47,0,0,1-15.18,9.45,16.14,16.14,0,0,1-23-19.27,170.87,170.87,0,0,1,6.64-16.6c2.4-5.38,5-10.6,7.68-15.74,5.38-10.27,11.21-20.16,17.38-29.77A511.11,511.11,0,0,1,1056.52,519a614.91,614.91,0,0,1,46.74-49.52c8.3-7.82,16.87-15.42,25.83-22.69,2.24-1.82,4.49-3.63,6.8-5.39l3.45-2.65,3.51-2.6c4.7-3.45,9.5-6.83,14.61-9.93a17.51,17.51,0,0,1,25.41,21.28Z" style="fill:#fcfaeb;stroke:#3a3632;stroke-miterlimit:10;stroke-width:10px"/><path d="M1067.48,860.17c-4.3,4.89-8.83,9.38-13.43,13.77l-3.45,3.27-3.51,3.18c-2.32,2.14-4.69,4.21-7.06,6.26-9.51,8.21-19.29,15.94-29.25,23.35a668.2,668.2,0,0,1-62,40.62,554.23,554.23,0,0,1-66.23,33.21c-11.47,4.78-23.18,9.15-35.22,12.95-6,1.89-12.1,3.67-18.32,5.22a183.16,183.16,0,0,1-19.06,3.94,17.56,17.56,0,0,1-16.26-28.33,187.36,187.36,0,0,1,13-14.47c4.47-4.58,9.08-8.94,13.76-13.18,9.35-8.47,19-16.37,28.94-23.87a556.51,556.51,0,0,1,62.1-40.41,669.38,669.38,0,0,1,66.35-33c11.43-4.86,23-9.41,34.92-13.46,3-1,6-2,9-3l4.52-1.41,4.57-1.34c6.1-1.75,12.26-3.39,18.66-4.64a19.06,19.06,0,0,1,18,31.29Z" style="fill:#fcfaeb;stroke:#3a3632;stroke-miterlimit:10;stroke-width:10px"/><path d="M788.9,889.49c4.1,5,7.77,10.12,11.33,15.31l2.64,3.9,2.56,3.93q2.57,3.92,5,7.9c6.52,10.59,12.52,21.38,18.18,32.3a661.38,661.38,0,0,1,29.86,67,550.49,550.49,0,0,1,21.94,70c2.84,12,5.25,24.11,7.06,36.48.89,6.19,1.67,12.42,2.19,18.74a185.08,185.08,0,0,1,.83,19.26,17.39,17.39,0,0,1-30.28,11.39,184.24,184.24,0,0,1-12.07-15c-3.78-5.1-7.3-10.3-10.7-15.54-6.8-10.49-13-21.21-18.73-32.09A549.59,549.59,0,0,1,789.06,1046a661.23,661.23,0,0,1-21.71-70.1c-2.94-11.94-5.54-24-7.62-36.27-.52-3.07-1-6.14-1.45-9.24l-.66-4.64L757,921c-.75-6.24-1.37-12.53-1.57-19a18.87,18.87,0,0,1,33.43-12.58Z" style="fill:#fcfaeb;stroke:#3a3632;stroke-miterlimit:10;stroke-width:10px"/><path d="M929.15,1129.66c6,.29,11.83,1,17.62,1.77l4.33.61,4.31.7c2.87.45,5.72,1,8.56,1.49,11.37,2.14,22.55,4.74,33.6,7.67a615.48,615.48,0,0,1,64.81,21.32,511.12,511.12,0,0,1,61.92,28.64c10,5.53,19.88,11.45,29.52,17.94,4.82,3.24,9.6,6.6,14.28,10.19a174.05,174.05,0,0,1,13.78,11.47,16.17,16.17,0,0,1-11.08,28,171.71,171.71,0,0,1-17.89-1.08c-5.87-.59-11.65-1.41-17.39-2.34-11.46-1.88-22.71-4.32-33.8-7.15a512.61,512.61,0,0,1-64.73-21.53,617.77,617.77,0,0,1-61.83-28.85c-10.06-5.44-20-11.19-29.73-17.42-2.44-1.56-4.87-3.14-7.27-4.78l-3.61-2.43-3.58-2.53c-4.76-3.39-9.48-6.88-14.05-10.77a17.55,17.55,0,0,1,12.23-30.88Z" style="fill:#fcfaeb;stroke:#3a3632;stroke-miterlimit:10;stroke-width:10px"/><path d="M1258.48,1053.22c4.43,4,8.48,8.16,12.43,12.4l2.95,3.2,2.87,3.23q2.88,3.23,5.64,6.52c7.4,8.77,14.35,17.79,21,27a610.65,610.65,0,0,1,36.43,57,507.35,507.35,0,0,1,29.62,60.85c4.23,10.53,8.1,21.27,11.44,32.3,1.66,5.52,3.22,11.09,4.57,16.79a169.84,169.84,0,0,1,3.39,17.45,16,16,0,0,1-26,14.54,169.56,169.56,0,0,1-13.07-12c-4.14-4.14-8.07-8.39-11.89-12.71-7.63-8.63-14.75-17.56-21.49-26.69a509.41,509.41,0,0,1-36.24-57.15,610.65,610.65,0,0,1-29.41-61c-4.32-10.48-8.35-21.14-11.93-32-.89-2.73-1.77-5.46-2.58-8.23l-1.25-4.14-1.17-4.18c-1.53-5.6-3-11.24-4-17.1a17.4,17.4,0,0,1,28.76-16Z" style="fill:#fcfaeb;stroke:#3a3632;stroke-miterlimit:10;stroke-width:10px"/><path d="M1625.12,1136c-4.9,4.07-9.95,7.72-15.06,11.26l-3.83,2.63-3.87,2.55q-3.85,2.55-7.78,5c-10.43,6.49-21,12.47-31.8,18.11a653.06,653.06,0,0,1-66,29.84,544.57,544.57,0,0,1-69,22c-11.81,2.87-23.78,5.31-36,7.15-6.11.92-12.26,1.72-18.5,2.27a180,180,0,0,1-19,.91,17.17,17.17,0,0,1-11.4-29.84,180.3,180.3,0,0,1,14.78-12c5-3.76,10.13-7.27,15.29-10.65,10.32-6.76,20.88-12.92,31.59-18.66a543,543,0,0,1,66.13-29.61,653,653,0,0,1,69.11-21.8c11.77-3,23.68-5.59,35.78-7.71,3-.53,6-1,9.11-1.48l4.58-.68,4.61-.6c6.16-.76,12.37-1.41,18.73-1.64a18.63,18.63,0,0,1,12.59,33Z" style="fill:#fcfaeb;stroke:#3a3632;stroke-miterlimit:10;stroke-width:10px"/><path d="M1735.88,766.13c.29,6.06.16,12-.08,17.9l-.19,4.42-.29,4.4q-.27,4.39-.68,8.76c-1,11.64-2.59,23.14-4.46,34.55A623.24,623.24,0,0,1,1715,903.44a519.46,519.46,0,0,1-22.83,65.08c-4.6,10.61-9.6,21.11-15.2,31.44-2.79,5.17-5.72,10.29-8.88,15.35a172.12,172.12,0,0,1-10.2,15,16.34,16.34,0,0,1-29.21-8.44,172.87,172.87,0,0,1-.64-18.1c0-6,.29-11.86.67-17.72.78-11.73,2.15-23.28,3.93-34.71a517.72,517.72,0,0,1,15.4-67.22,623.26,623.26,0,0,1,23-65c4.5-10.65,9.33-21.2,14.65-31.6,1.33-2.6,2.69-5.2,4.1-7.78l2.11-3.87,2.19-3.84c2.95-5.12,6-10.21,9.48-15.18a17.74,17.74,0,0,1,32.26,9.32Z" style="fill:#fcfaeb;stroke:#3a3632;stroke-miterlimit:10;stroke-width:10px"/><path d="M1263.28,744.86c6.44.6,12.69,1.62,18.89,2.75l4.64.87,4.61,1c3.07.62,6.12,1.31,9.15,2,12.14,2.85,24.06,6.2,35.82,9.88a662.87,662.87,0,0,1,68.81,26.09,552.06,552.06,0,0,1,65.32,33.84c10.53,6.43,20.87,13.29,31,20.74,5,3.73,10,7.58,14.89,11.68a182.19,182.19,0,0,1,14.28,13,17.43,17.43,0,0,1-13.28,29.59,187.11,187.11,0,0,1-19.22-2c-6.29-.92-12.48-2.08-18.61-3.37-12.27-2.57-24.26-5.74-36.07-9.33a549.87,549.87,0,0,1-68.7-26.31,661.63,661.63,0,0,1-65.23-34.06c-10.57-6.34-21-13-31.19-20.19-2.55-1.79-5.09-3.61-7.6-5.5l-3.78-2.8-3.73-2.89c-5-3.88-9.89-7.87-14.62-12.28a18.92,18.92,0,0,1,14.67-32.68Z" style="fill:#fcfaeb;stroke:#3a3632;stroke-miterlimit:10;stroke-width:10px"/><path d="M1314.92,627.72c-1.41,6.2-3.21,12.15-5.11,18l-1.44,4.4-1.53,4.36c-1,2.92-2.07,5.8-3.15,8.66-4.34,11.46-9.13,22.63-14.24,33.61a651.45,651.45,0,0,1-34.27,63.65,541.89,541.89,0,0,1-41.37,59.26c-7.62,9.42-15.63,18.61-24.19,27.46-4.28,4.43-8.67,8.78-13.29,13a181.55,181.55,0,0,1-14.51,12.24,17.14,17.14,0,0,1-27.11-16.75,182.14,182.14,0,0,1,4.45-18.46c1.7-6,3.63-11.89,5.67-17.7,4.09-11.61,8.72-22.88,13.74-33.92A542.24,542.24,0,0,1,1193,722.06a651.35,651.35,0,0,1,41.58-59.13c7.53-9.48,15.38-18.77,23.68-27.78,2.08-2.25,4.18-4.49,6.33-6.69l3.22-3.31,3.29-3.27c4.42-4.34,8.94-8.61,13.85-12.65a18.59,18.59,0,0,1,29.93,18.49Z" style="fill:#fcfaeb;stroke:#3a3632;stroke-miterlimit:10;stroke-width:10px"/><path d="M1122.17,583.31c-3.25,5.23-6.78,10.12-10.38,14.92l-2.72,3.59-2.77,3.51c-1.84,2.35-3.72,4.65-5.62,6.93-7.59,9.14-15.52,17.86-23.66,26.31a632.61,632.61,0,0,1-51.51,47.51,525.84,525.84,0,0,1-56.62,41.24c-10,6.23-20.2,12.12-30.84,17.53-5.32,2.7-10.72,5.3-16.28,7.71a173.83,173.83,0,0,1-17.16,6.63,16.6,16.6,0,0,1-19.56-23.9A172.21,172.21,0,0,1,895,719.78c3.46-5,7.08-9.75,10.78-14.43C913.15,696,921,687.13,929,678.6a525.64,525.64,0,0,1,51.65-47.32,632.4,632.4,0,0,1,56.77-41.07c9.9-6.3,20-12.34,30.48-18,2.61-1.41,5.24-2.8,7.91-4.13l4-2,4.05-2c5.43-2.58,10.92-5.07,16.69-7.22a18,18,0,0,1,21.59,26.4Z" style="fill:#fcfaeb;stroke:#3a3632;stroke-miterlimit:10;stroke-width:10px"/><path d="M620.3,1121.87c1.55,6.38,2.64,12.73,3.6,19.06l.7,4.74.6,4.74c.42,3.16.76,6.31,1.08,9.46,1.28,12.6,2,25.16,2.35,37.67a673.63,673.63,0,0,1-2.31,74.71,559.7,559.7,0,0,1-10.91,73.93c-2.7,12.24-5.87,24.44-9.7,36.58-1.91,6.07-4,12.13-6.29,18.16a189.14,189.14,0,0,1-7.77,18,17.72,17.72,0,0,1-32.82-3,189.49,189.49,0,0,1-4.41-19.13c-1.2-6.35-2.13-12.68-2.92-19-1.58-12.63-2.51-25.2-3-37.73a559.83,559.83,0,0,1,2.56-74.68,673.38,673.38,0,0,1,11.16-73.91c2.59-12.25,5.56-24.47,9.08-36.64.88-3,1.79-6.08,2.77-9.11l1.44-4.55,1.54-4.55c2.09-6,4.3-12.09,7-18.09a19.22,19.22,0,0,1,36.24,3.28Z" style="fill:#fcfaeb;stroke:#3a3632;stroke-miterlimit:10;stroke-width:10px"/><path d="M37.78,1015.81c6.25.19,12.34.8,18.39,1.51l4.53.56,4.5.65c3,.41,6,.89,9,1.4,11.89,2,23.58,4.52,35.16,7.36a641.13,641.13,0,0,1,67.94,21A533,533,0,0,1,242.31,1077c10.55,5.57,20.94,11.56,31.1,18.14,5.09,3.3,10.12,6.71,15.07,10.37a177.1,177.1,0,0,1,14.57,11.69,16.85,16.85,0,0,1-11,29.34,176.4,176.4,0,0,1-18.66-.79c-6.13-.5-12.17-1.25-18.16-2.12-12-1.74-23.75-4.07-35.36-6.82A534.5,534.5,0,0,1,152,1115.58a640.34,640.34,0,0,1-65-28.92c-10.59-5.48-21-11.29-31.31-17.6q-3.86-2.36-7.66-4.84l-3.81-2.47-3.78-2.57c-5-3.44-10-7-14.84-11a18.29,18.29,0,0,1,12.17-32.41Z" style="fill:#fcfaeb;stroke:#3a3632;stroke-miterlimit:10;stroke-width:10px"/><path d="M429.56,706.51c-2.92,5.45-6.14,10.57-9.44,15.61l-2.49,3.76-2.56,3.7c-1.69,2.47-3.43,4.9-5.18,7.3-7,9.64-14.4,18.88-22,27.87a636.34,636.34,0,0,1-48.55,50.87,527.09,527.09,0,0,1-54.07,44.93c-9.58,6.87-19.46,13.43-29.76,19.53-5.16,3-10.4,6-15.82,8.76a175.8,175.8,0,0,1-16.76,7.75,16.67,16.67,0,0,1-21.12-22.7,177.76,177.76,0,0,1,8.93-16.16c3.15-5.2,6.47-10.22,9.88-15.14,6.83-9.84,14.07-19.23,21.62-28.29a529.34,529.34,0,0,1,48.7-50.7,636.21,636.21,0,0,1,54.23-44.75c9.52-7,19.27-13.65,29.38-20,2.52-1.58,5.07-3.14,7.66-4.65l3.87-2.28,3.93-2.22c5.26-2.93,10.61-5.77,16.25-8.3a18.08,18.08,0,0,1,23.31,25.06Z" style="fill:#fcfaeb;stroke:#3a3632;stroke-miterlimit:10;stroke-width:10px"/><path d="M704.76,477.59c-2.2,5.53-4.72,10.78-7.32,16l-2,3.87-2,3.81c-1.34,2.55-2.74,5.06-4.15,7.56-5.66,10-11.69,19.62-18,29.05a608,608,0,0,1-40.83,54,506.46,506.46,0,0,1-46.77,48.9c-8.4,7.62-17.13,15-26.31,21.94-4.59,3.48-9.28,6.88-14.16,10.12A170.24,170.24,0,0,1,528,682a16,16,0,0,1-22.68-19.38,170.88,170.88,0,0,1,6.76-16.44c2.44-5.32,5.07-10.48,7.79-15.56,5.44-10.16,11.34-19.92,17.57-29.42a507.28,507.28,0,0,1,41-53.82,611.11,611.11,0,0,1,46.93-48.75c8.33-7.69,16.92-15.16,25.9-22.3,2.24-1.78,4.5-3.55,6.81-5.28l3.45-2.61,3.52-2.55c4.71-3.38,9.51-6.68,14.62-9.71a17.4,17.4,0,0,1,25,21.39Z" style="fill:#fcfaeb;stroke:#3a3632;stroke-miterlimit:10;stroke-width:10px"/><path d="M403,275.66c-.37,6.29-1.16,12.4-2,18.48l-.69,4.54-.78,4.51c-.51,3-1.08,6-1.67,9-2.37,11.91-5.23,23.62-8.42,35.18a648.06,648.06,0,0,1-23.1,67.81,538.39,538.39,0,0,1-30.76,64.68c-5.91,10.45-12.24,20.74-19.15,30.79-3.46,5-7,10-10.87,14.87a178,178,0,0,1-12.19,14.34,17,17,0,0,1-29.23-11.94,179.8,179.8,0,0,1,1.34-18.77c.68-6.16,1.6-12.21,2.65-18.22,2.1-12,4.78-23.8,7.88-35.4a537.77,537.77,0,0,1,23.32-67.72,645.86,645.86,0,0,1,31-64.59c5.81-10.5,12-20.86,18.61-31q2.49-3.81,5.09-7.57l2.6-3.77,2.69-3.73c3.61-5,7.33-9.87,11.47-14.62A18.42,18.42,0,0,1,403,275.66Z" style="fill:#fcfaeb;stroke:#3a3632;stroke-miterlimit:10;stroke-width:10px"/><path d="M560.44,844.46c2.67,5.44,4.91,10.95,7,16.46l1.57,4.14,1.49,4.16c1,2.76,2,5.54,2.86,8.31,3.67,11.11,6.83,22.29,9.64,33.51a624.19,624.19,0,0,1,12.81,67.84,517.73,517.73,0,0,1,4.91,68.84c0,11.58-.42,23.22-1.45,34.93-.52,5.85-1.16,11.73-2.05,17.63a173.8,173.8,0,0,1-3.42,17.81,16.36,16.36,0,0,1-30.18,3.86,171.45,171.45,0,0,1-7.79-16.37c-2.35-5.49-4.45-11-6.43-16.55-4-11.07-7.29-22.23-10.2-33.43a517.9,517.9,0,0,1-12.58-67.87A619.53,619.53,0,0,1,522,918.85c-.11-11.56.13-23.17.89-34.85.18-2.92.39-5.84.67-8.77l.39-4.39.49-4.41c.67-5.87,1.46-11.76,2.67-17.71a17.76,17.76,0,0,1,33.34-4.26Z" style="fill:#fcfaeb;stroke:#3a3632;stroke-miterlimit:10;stroke-width:10px"/><path d="M912.8,1270.66c-5.5,3.54-11.11,6.63-16.75,9.61l-4.24,2.2-4.26,2.11c-2.83,1.42-5.69,2.78-8.55,4.1-11.44,5.31-23,10.09-34.68,14.5a672.21,672.21,0,0,1-71,22.17,556.41,556.41,0,0,1-73.11,13.84c-12.4,1.45-24.91,2.45-37.58,2.81-6.33.17-12.7.22-19.13,0a188.75,188.75,0,0,1-19.5-1.44,17.64,17.64,0,0,1-7.9-31.84,186.55,186.55,0,0,1,16.56-10.39c5.59-3.2,11.24-6.14,16.92-8.94,11.37-5.61,22.89-10.57,34.53-15.09a558.17,558.17,0,0,1,71.1-21.93,670.31,670.31,0,0,1,73.18-13.61c12.37-1.55,24.83-2.74,37.43-3.39,3.14-.16,6.3-.3,9.47-.37l4.76-.12,4.77,0c6.38,0,12.78.1,19.3.66a19.14,19.14,0,0,1,8.72,35.16Z" style="fill:#fcfaeb;stroke:#3a3632;stroke-miterlimit:10;stroke-width:10px"/><path d="M518.69,1454.3c6.21,1.47,12.18,3.33,18.09,5.28l4.42,1.49,4.37,1.57c2.92,1,5.8,2.12,8.67,3.24,11.48,4.45,22.67,9.36,33.67,14.58a655.39,655.39,0,0,1,63.69,35,543.74,543.74,0,0,1,59.22,42.06c9.41,7.74,18.58,15.86,27.41,24.53,4.41,4.34,8.75,8.79,12.95,13.46a179.81,179.81,0,0,1,12.18,14.69,17.22,17.22,0,0,1-17.05,27.11,183.36,183.36,0,0,1-18.51-4.62c-6-1.77-11.92-3.75-17.74-5.85-11.64-4.2-22.93-9-34-14.08a544.12,544.12,0,0,1-63.55-35.16,657.48,657.48,0,0,1-59.1-42.26c-9.47-7.65-18.74-15.61-27.72-24q-3.37-3.15-6.68-6.41l-3.3-3.26-3.26-3.34c-4.32-4.47-8.58-9-12.6-14a18.68,18.68,0,0,1,18.83-29.93Z" style="fill:#fcfaeb;stroke:#3a3632;stroke-miterlimit:10;stroke-width:10px"/><path d="M1007.94,1553.23c-3.76,5-7.77,9.55-11.85,14l-3.07,3.35-3.12,3.28q-3.12,3.28-6.31,6.45c-8.5,8.49-17.29,16.53-26.28,24.28a641.38,641.38,0,0,1-56.3,43,532.1,532.1,0,0,1-60.87,36.22c-10.62,5.34-21.48,10.32-32.69,14.77-5.61,2.22-11.29,4.34-17.12,6.24a176.33,176.33,0,0,1-17.9,5.07,16.79,16.79,0,0,1-17.45-25.9,177.52,177.52,0,0,1,11.42-14.68c4-4.69,8.05-9.16,12.22-13.52,8.33-8.72,17-16.92,26-24.76A532.78,532.78,0,0,1,861,1588.28a637.78,637.78,0,0,1,61-36c10.56-5.42,21.32-10.55,32.37-15.24,2.76-1.18,5.54-2.33,8.36-3.43l4.21-1.66,4.26-1.59c5.69-2.09,11.46-4.08,17.47-5.7a18.22,18.22,0,0,1,19.27,28.6Z" style="fill:#fcfaeb;stroke:#3a3632;stroke-miterlimit:10;stroke-width:10px"/><path d="M1469.18,1554.52c-5,3.27-10.15,6.14-15.3,8.89l-3.87,2-3.9,2c-2.59,1.32-5.2,2.57-7.81,3.8-10.45,4.94-21,9.37-31.69,13.48a615,615,0,0,1-65,20.7,510.2,510.2,0,0,1-66.92,13.08c-11.35,1.4-22.81,2.38-34.41,2.78-5.81.19-11.64.27-17.54.1a170.64,170.64,0,0,1-17.87-1.21,16.17,16.17,0,0,1-7.41-29.14,170.9,170.9,0,0,1,15.12-9.6c5.1-3,10.26-5.69,15.45-8.29,10.39-5.2,20.92-9.81,31.56-14a512.07,512.07,0,0,1,65-20.49,617.28,617.28,0,0,1,67-12.86c11.33-1.49,22.74-2.65,34.28-3.31,2.89-.17,5.78-.31,8.68-.39l4.36-.14,4.37-.06c5.85,0,11.72,0,17.69.5a17.54,17.54,0,0,1,16.09,18.88A17.72,17.72,0,0,1,1469.18,1554.52Z" style="fill:#fcfaeb;stroke:#3a3632;stroke-miterlimit:10;stroke-width:10px"/><path d="M1300.91,1305.29c4.78,4,9.18,8.15,13.49,12.4l3.21,3.2,3.13,3.24c2.1,2.16,4.14,4.35,6.16,6.56,8.09,8.82,15.73,17.91,23.06,27.19a638.06,638.06,0,0,1,40.45,57.88,531.72,531.72,0,0,1,33.5,62.15c4.87,10.79,9.36,21.82,13.32,33.17,2,5.68,3.84,11.43,5.49,17.31a177.12,177.12,0,0,1,4.3,18,16.73,16.73,0,0,1-26.53,16.28,174.81,174.81,0,0,1-14.14-12c-4.5-4.13-8.78-8.39-12.95-12.73-8.33-8.67-16.13-17.66-23.55-26.89a530.22,530.22,0,0,1-40.25-58,638.86,638.86,0,0,1-33.3-62.27c-5-10.74-9.61-21.67-13.81-32.87-1-2.8-2.08-5.62-3-8.47l-1.48-4.26-1.4-4.31c-1.84-5.76-3.58-11.58-5-17.64a18.17,18.17,0,0,1,29.3-18Z" style="fill:#fcfaeb;stroke:#3a3632;stroke-miterlimit:10;stroke-width:10px"/><path d="M1661.9,1421.56c4.67,4,9,8.33,13.16,12.67l3.13,3.27,3,3.31c2,2.2,4,4.43,6,6.68,7.86,9,15.26,18.23,22.36,27.66a635.33,635.33,0,0,1,39,58.66,528.18,528.18,0,0,1,32,62.74c4.61,10.88,8.83,22,12.51,33.4,1.84,5.71,3.57,11.48,5.07,17.38a173.51,173.51,0,0,1,3.86,18.09,16.69,16.69,0,0,1-26.83,15.62,176.56,176.56,0,0,1-13.82-12.29c-4.39-4.23-8.56-8.58-12.61-13-8.11-8.84-15.67-18-22.86-27.37a528.81,528.81,0,0,1-38.78-58.78,636.57,636.57,0,0,1-31.75-62.86c-4.69-10.83-9.08-21.84-13-33.11-1-2.81-1.94-5.64-2.84-8.51l-1.38-4.28-1.29-4.33c-1.7-5.79-3.3-11.64-4.52-17.71a18.11,18.11,0,0,1,29.63-17.24Z" style="fill:#fcfaeb;stroke:#3a3632;stroke-miterlimit:10;stroke-width:10px"/><path d="M1734.47,1080c5.17,3.54,10,7.36,14.7,11.24l3.52,2.92,3.45,3c2.31,2,4.56,4,6.79,6,8.94,8.13,17.46,16.58,25.68,25.25a639.28,639.28,0,0,1,46,54.52,534.23,534.23,0,0,1,39.37,59.44c5.88,10.41,11.41,21.09,16.43,32.15,2.5,5.53,4.91,11.14,7.1,16.91a178.53,178.53,0,0,1,6,17.75,16.91,16.91,0,0,1-25.2,18.8,181.16,181.16,0,0,1-15.32-10.78c-4.9-3.74-9.59-7.64-14.18-11.62-9.17-8-17.83-16.3-26.14-24.9a534.22,534.22,0,0,1-45.77-54.66,644,644,0,0,1-39.18-59.58c-6-10.36-11.64-20.92-16.89-31.81q-2-4.08-3.85-8.23l-1.87-4.15-1.81-4.21c-2.37-5.63-4.65-11.33-6.58-17.29a18.34,18.34,0,0,1,27.82-20.76Z" style="fill:#fcfaeb;stroke:#3a3632;stroke-miterlimit:10;stroke-width:10px"/><path d="M1525.14,1010.6c6.37,0,12.6.39,18.8.91l4.63.41,4.61.51c3.07.32,6.13.7,9.17,1.12,12.19,1.64,24.2,3.79,36.09,6.3a653.32,653.32,0,0,1,70,19.08,544.61,544.61,0,0,1,67.31,27c10.94,5.31,21.73,11.06,32.32,17.42,5.3,3.18,10.55,6.49,15.72,10.05a179.45,179.45,0,0,1,15.25,11.41,17.19,17.19,0,0,1-10.23,30.3,180.16,180.16,0,0,1-19-.17c-6.26-.3-12.45-.86-18.59-1.54-12.27-1.36-24.34-3.33-36.27-5.74a542.89,542.89,0,0,1-69.91-19.31,653.26,653.26,0,0,1-67.22-27.24c-11-5.22-21.84-10.79-32.52-16.87-2.67-1.51-5.34-3.06-8-4.67l-4-2.39-3.94-2.48c-5.24-3.34-10.44-6.79-15.5-10.67a18.65,18.65,0,0,1,11.3-33.45Z" style="fill:#fcfaeb;stroke:#3a3632;stroke-miterlimit:10;stroke-width:10px"/><path d="M1643.7,440.08c2.7,5.66,5,11.37,7.1,17.09l1.58,4.29,1.49,4.31c1,2.87,2,5.74,2.87,8.62,3.67,11.52,6.8,23.1,9.58,34.72a644.28,644.28,0,0,1,12.49,70.22,534.05,534.05,0,0,1,4.31,71.17c-.12,12-.69,24-1.88,36.07-.6,6-1.33,12.1-2.32,18.19a177.07,177.07,0,0,1-3.72,18.35,16.9,16.9,0,0,1-31.23,3.66,177.31,177.31,0,0,1-7.86-17c-2.37-5.69-4.48-11.42-6.46-17.16-4-11.49-7.28-23-10.16-34.65a534.2,534.2,0,0,1-12.25-70.25,641.84,641.84,0,0,1-4.08-71.2c0-11.95.4-23.94,1.3-36,.23-3,.48-6,.8-9.06l.45-4.53.55-4.55c.76-6.06,1.64-12.13,3-18.26a18.34,18.34,0,0,1,34.48-4Z" style="fill:#fcfaeb;stroke:#3a3632;stroke-miterlimit:10;stroke-width:10px"/><path d="M1634.62,273.11c-4,4.55-8.15,8.73-12.38,12.81l-3.19,3-3.24,3q-3.22,3-6.53,5.84c-8.77,7.64-17.8,14.85-27,21.75a620.65,620.65,0,0,1-57.28,37.9,515.1,515.1,0,0,1-61.26,31c-10.62,4.47-21.45,8.56-32.59,12.13-5.57,1.79-11.2,3.46-17,4.92a172.85,172.85,0,0,1-17.65,3.73,16.28,16.28,0,0,1-15.18-26.2,169.74,169.74,0,0,1,12-13.46c4.12-4.27,8.38-8.32,12.7-12.27,8.63-7.89,17.57-15.25,26.73-22.24a516.57,516.57,0,0,1,57.4-37.7,620.37,620.37,0,0,1,61.36-30.84c10.57-4.56,21.31-8.81,32.31-12.62,2.75-1,5.52-1.89,8.31-2.76l4.18-1.34,4.23-1.25c5.64-1.65,11.35-3.2,17.27-4.37a17.66,17.66,0,0,1,16.76,28.93Z" style="fill:#fcfaeb;stroke:#3a3632;stroke-miterlimit:10;stroke-width:10px"/><path d="M1181.3,133.3c1.64,5.74,2.85,11.46,4,17.17l.8,4.28.71,4.28c.49,2.85.92,5.7,1.32,8.55,1.61,11.4,2.71,22.77,3.47,34.12a612.86,612.86,0,0,1,.53,67.89,507.89,507.89,0,0,1-7.29,67.5c-2,11.21-4.46,22.39-7.5,33.55-1.53,5.57-3.18,11.14-5.07,16.7A171.9,171.9,0,0,1,1165.8,404a16.1,16.1,0,0,1-29.9-1.54,171.94,171.94,0,0,1-4.67-17.21c-1.32-5.72-2.39-11.43-3.33-17.14-1.88-11.41-3.16-22.78-4-34.14a507.74,507.74,0,0,1-.31-67.89,610.78,610.78,0,0,1,7.51-67.48c1.92-11.21,4.18-22.41,7-33.58.69-2.79,1.41-5.58,2.19-8.37l1.15-4.18,1.24-4.18c1.68-5.57,3.47-11.13,5.69-16.67a17.45,17.45,0,0,1,33,1.7Z" style="fill:#fcfaeb;stroke:#3a3632;stroke-miterlimit:10;stroke-width:10px"/><path d="M1156.43,371.86c-4.9,4.24-10,8.05-15.09,11.75l-3.85,2.75L1133.6,389q-3.87,2.67-7.81,5.21c-10.48,6.8-21.17,13.09-32,19a662.65,662.65,0,0,1-66.59,31.64,553.76,553.76,0,0,1-69.78,23.75c-12,3.15-24.09,5.86-36.46,8-6.19,1.05-12.43,2-18.77,2.66a185,185,0,0,1-19.32,1.3,17.47,17.47,0,0,1-12.18-30.13A184.36,184.36,0,0,1,885.49,438c5-3.91,10.16-7.58,15.34-11.13,10.37-7.08,21-13.55,31.77-19.6a555.35,555.35,0,0,1,66.69-31.41,665,665,0,0,1,69.87-23.52c11.92-3.24,24-6.15,36.24-8.53,3.06-.61,6.14-1.18,9.24-1.69l4.64-.78,4.68-.7c6.26-.9,12.55-1.68,19-2a19,19,0,0,1,13.45,33.27Z" style="fill:#fcfaeb;stroke:#3a3632;stroke-miterlimit:10;stroke-width:10px"/><path d="M722.74,380.41c4.86,4.19,9.33,8.61,13.7,13.09l3.25,3.37,3.17,3.42c2.13,2.28,4.2,4.58,6.24,6.91,8.18,9.28,15.89,18.84,23.28,28.59A657.79,657.79,0,0,1,813,496.46a546.57,546.57,0,0,1,33.36,64.93c4.81,11.26,9.23,22.75,13.09,34.57,1.93,5.91,3.74,11.89,5.33,18a185.67,185.67,0,0,1,4.07,18.74A17.3,17.3,0,0,1,841.1,649a182.14,182.14,0,0,1-14.38-12.69c-4.56-4.36-8.9-8.86-13.12-13.42-8.44-9.14-16.31-18.6-23.8-28.29a548.93,548.93,0,0,1-40.42-60.79,660.34,660.34,0,0,1-33.15-65.06c-4.9-11.21-9.49-22.6-13.6-34.27-1-2.92-2-5.85-3-8.81l-1.44-4.44-1.36-4.48c-1.78-6-3.46-12.06-4.75-18.34a18.78,18.78,0,0,1,30.65-18Z" style="fill:#fcfaeb;stroke:#3a3632;stroke-miterlimit:10;stroke-width:10px"/><path d="M720.59,1405.29c5.78,1.57,11.32,3.48,16.8,5.49l4.1,1.52,4,1.6c2.7,1,5.38,2.16,8,3.29,10.63,4.5,21,9.43,31.13,14.64a614.93,614.93,0,0,1,58.65,34.63,511.33,511.33,0,0,1,54.27,41.15c8.59,7.53,17,15.41,25,23.79,4,4.19,7.94,8.49,11.74,13a171.22,171.22,0,0,1,11,14.12,16.15,16.15,0,0,1-16.77,24.91,172.19,172.19,0,0,1-17.22-4.87c-5.6-1.83-11.06-3.86-16.45-6-10.79-4.28-21.23-9-31.44-14.19a512.23,512.23,0,0,1-58.53-34.81,614.91,614.91,0,0,1-54.14-41.33c-8.65-7.45-17.11-15.18-25.28-23.34-2-2-4.07-4.09-6.06-6.2l-3-3.15-2.95-3.23c-3.92-4.32-7.78-8.74-11.4-13.5a17.52,17.52,0,0,1,18.52-27.51Z" style="fill:#fcfaeb;stroke:#3a3632;stroke-miterlimit:10;stroke-width:10px"/><path d="M1021.23,469.45c-2.88,5.6-6.08,10.88-9.36,16.07l-2.47,3.88-2.54,3.81c-1.69,2.56-3.42,5.06-5.16,7.54-7,9.94-14.36,19.5-22,28.79a646,646,0,0,1-48.61,52.7A536.16,536.16,0,0,1,876.76,629c-9.64,7.18-19.6,14-30,20.43-5.2,3.2-10.49,6.3-16,9.21a175.92,175.92,0,0,1-17,8.18A17,17,0,0,1,791.9,644a179.59,179.59,0,0,1,8.83-16.63c3.12-5.36,6.42-10.54,9.81-15.61,6.79-10.15,14-19.84,21.56-29.21a537.27,537.27,0,0,1,48.78-52.53,645.84,645.84,0,0,1,54.51-46.57c9.58-7.25,19.41-14.25,29.61-20.85,2.55-1.65,5.12-3.29,7.73-4.87l3.91-2.39,4-2.33C985.92,450,991.32,447,997,444.3a18.44,18.44,0,0,1,24.2,25.15Z" style="fill:#fcfaeb;stroke:#3a3632;stroke-miterlimit:10;stroke-width:10px"/><path d="M770.9,959.4c-3.59,5.29-7.46,10.21-11.39,15l-3,3.6-3,3.53q-3,3.54-6.12,6.95c-8.25,9.15-16.82,17.87-25.62,26.3a656.1,656.1,0,0,1-55.38,47.1,543.68,543.68,0,0,1-60.42,40.4c-10.59,6-21.45,11.73-32.7,16.9-5.63,2.58-11.34,5-17.2,7.32A182.84,182.84,0,0,1,538,1132.7a17.23,17.23,0,0,1-19.28-25.6,183,183,0,0,1,10.92-15.67c3.79-5,7.75-9.81,11.78-14.51,8.08-9.39,16.54-18.26,25.27-26.76a544.75,544.75,0,0,1,55.52-46.92A656.15,656.15,0,0,1,682.78,963c10.53-6.13,21.27-12,32.35-17.36,2.76-1.36,5.55-2.69,8.37-4l4.23-1.93,4.28-1.86c5.73-2.45,11.52-4.8,17.6-6.79a18.7,18.7,0,0,1,23.59,11.94A18.89,18.89,0,0,1,770.9,959.4Z" style="fill:#fcfaeb;stroke:#3a3632;stroke-miterlimit:10;stroke-width:10px"/><path d="M991.12,966.63c-.46,6.15-1.33,12.14-2.3,18.08l-.75,4.44-.83,4.41c-.55,3-1.15,5.87-1.78,8.78-2.5,11.64-5.49,23.07-8.8,34.36a633.91,633.91,0,0,1-23.72,66.13,528.06,528.06,0,0,1-31.16,63c-6,10.16-12.33,20.16-19.27,29.9-3.47,4.87-7.06,9.69-10.88,14.42A178.16,178.16,0,0,1,879.45,1224,16.65,16.65,0,0,1,851,1211.8a179.88,179.88,0,0,1,1.6-18.38c.77-6,1.77-12,2.89-17.84,2.24-11.75,5.06-23.25,8.28-34.59a527.15,527.15,0,0,1,23.93-66A634.55,634.55,0,0,1,919,1012.1c5.87-10.2,12.07-20.27,18.74-30.13,1.67-2.46,3.36-4.92,5.12-7.35l2.6-3.65,2.7-3.61c3.62-4.81,7.34-9.58,11.47-14.17a18.07,18.07,0,0,1,31.45,13.44Z" style="fill:#fcfaeb;stroke:#3a3632;stroke-miterlimit:10;stroke-width:10px"/><path d="M1239.73,1488.22c6.31,0,12.48.4,18.62.93l4.59.42,4.56.5c3,.33,6.07.71,9.09,1.13,12.06,1.64,24,3.8,35.73,6.3a648,648,0,0,1,69.29,19,538.91,538.91,0,0,1,66.62,26.87c10.83,5.28,21.52,11,32,17.31,5.24,3.16,10.44,6.44,15.55,10a177.83,177.83,0,0,1,15.09,11.33,17,17,0,0,1-10.18,30,179.32,179.32,0,0,1-18.87-.2c-6.21-.31-12.33-.87-18.41-1.55-12.16-1.37-24.11-3.34-35.92-5.74a540.7,540.7,0,0,1-69.22-19.24,650.9,650.9,0,0,1-66.54-27.09c-10.87-5.19-21.61-10.72-32.19-16.76-2.64-1.51-5.28-3-7.89-4.64l-3.93-2.38-3.9-2.46c-5.18-3.31-10.33-6.74-15.34-10.59a18.48,18.48,0,0,1,11.25-33.12Z" style="fill:#fcfaeb;stroke:#3a3632;stroke-miterlimit:10;stroke-width:10px"/><path d="M1085.49,1350.21c-2.15,5.58-4.63,10.89-7.2,16.13l-1.94,3.91-2,3.86c-1.33,2.58-2.71,5.12-4.11,7.64-5.59,10.1-11.56,19.87-17.81,29.42a614.72,614.72,0,0,1-40.53,54.7,510,510,0,0,1-46.57,49.67c-8.38,7.75-17.08,15.24-26.25,22.33-4.59,3.55-9.27,7-14.14,10.33a170.51,170.51,0,0,1-15.19,9.45,16.13,16.13,0,0,1-23-19.27,169.55,169.55,0,0,1,6.64-16.61c2.4-5.37,5-10.59,7.68-15.73,5.37-10.28,11.21-20.16,17.38-29.77a510.89,510.89,0,0,1,40.71-54.57,614.55,614.55,0,0,1,46.73-49.51c8.31-7.82,16.88-15.42,25.84-22.7q3.35-2.73,6.8-5.38l3.44-2.66,3.51-2.6c4.71-3.45,9.5-6.82,14.62-9.92a17.51,17.51,0,0,1,25.41,21.28Z" style="fill:#fcfaeb;stroke:#3a3632;stroke-miterlimit:10;stroke-width:10px"/><path d="M1230,993.21c-4.31,4.89-8.84,9.38-13.43,13.76l-3.45,3.27-3.51,3.18c-2.33,2.14-4.69,4.22-7.06,6.27-9.51,8.21-19.29,15.94-29.25,23.34a668.3,668.3,0,0,1-62,40.63,556.49,556.49,0,0,1-66.23,33.21c-11.48,4.77-23.18,9.14-35.22,12.94-6,1.9-12.1,3.68-18.32,5.22a185.8,185.8,0,0,1-19.06,4,17.57,17.57,0,0,1-16.26-28.34,187.2,187.2,0,0,1,13-14.46c4.47-4.59,9.08-9,13.76-13.18,9.35-8.48,19-16.38,28.94-23.87a555.18,555.18,0,0,1,62.1-40.42,669.38,669.38,0,0,1,66.35-33c11.43-4.86,23-9.4,34.92-13.46,3-1,6-2,9-2.94l4.52-1.42,4.57-1.33c6.1-1.75,12.26-3.4,18.65-4.64A19.05,19.05,0,0,1,1234.41,977,19.27,19.27,0,0,1,1230,993.21Z" style="fill:#fcfaeb;stroke:#3a3632;stroke-miterlimit:10;stroke-width:10px"/><path d="M1152.38,782c4.1,5,7.77,10.12,11.32,15.31l2.65,3.9,2.55,3.93c1.72,2.61,3.37,5.25,5,7.9,6.52,10.59,12.52,21.38,18.17,32.3a661.46,661.46,0,0,1,29.87,67,550.49,550.49,0,0,1,21.94,70c2.84,12,5.25,24.11,7,36.48.9,6.19,1.67,12.42,2.19,18.74a182.37,182.37,0,0,1,.83,19.26,17.39,17.39,0,0,1-30.28,11.39,186.4,186.4,0,0,1-12.07-15c-3.77-5.1-7.3-10.3-10.7-15.54-6.79-10.49-13-21.21-18.73-32.09a552.68,552.68,0,0,1-29.64-67.12,663.56,663.56,0,0,1-21.71-70.1c-2.94-11.94-5.53-24-7.61-36.27-.52-3.07-1-6.14-1.45-9.24l-.67-4.64-.58-4.68c-.74-6.24-1.37-12.53-1.57-19A18.88,18.88,0,0,1,1152.38,782Z" style="fill:#fcfaeb;stroke:#3a3632;stroke-miterlimit:10;stroke-width:10px"/><path d="M824.23,723.82c6,.29,11.83,1,17.62,1.77l4.33.61,4.31.7c2.87.45,5.72,1,8.56,1.49,11.37,2.14,22.54,4.75,33.59,7.67a615.65,615.65,0,0,1,64.82,21.32A511.83,511.83,0,0,1,1019.38,786c10,5.53,19.88,11.45,29.52,17.94,4.82,3.24,9.6,6.6,14.28,10.2A169.9,169.9,0,0,1,1077,825.62a16.17,16.17,0,0,1-11.07,28A169,169,0,0,1,1048,852.5c-5.87-.59-11.65-1.41-17.39-2.34-11.47-1.88-22.71-4.32-33.8-7.15a512.61,512.61,0,0,1-64.73-21.53,615.56,615.56,0,0,1-61.83-28.85c-10.06-5.44-20-11.19-29.73-17.42-2.44-1.55-4.87-3.13-7.27-4.77L829.63,768l-3.58-2.52c-4.77-3.4-9.49-6.89-14-10.78a17.55,17.55,0,0,1,12.23-30.88Z" style="fill:#fcfaeb;stroke:#3a3632;stroke-miterlimit:10;stroke-width:10px"/><path d="M636,710.53c4.42,4,8.47,8.17,12.43,12.41l2.94,3.19,2.87,3.24c1.93,2.15,3.8,4.33,5.64,6.52,7.4,8.77,14.35,17.78,21,27a608.6,608.6,0,0,1,36.43,57,507.31,507.31,0,0,1,29.62,60.85c4.23,10.53,8.1,21.27,11.44,32.3,1.67,5.52,3.23,11.1,4.57,16.8a169.32,169.32,0,0,1,3.4,17.45,16,16,0,0,1-26.06,14.54,173.5,173.5,0,0,1-13.07-12.05c-4.14-4.14-8.07-8.4-11.89-12.71-7.63-8.64-14.74-17.56-21.48-26.7a506.57,506.57,0,0,1-36.24-57.15,608.37,608.37,0,0,1-29.42-61c-4.32-10.49-8.34-21.14-11.92-32-.9-2.72-1.77-5.46-2.59-8.23l-1.25-4.14-1.17-4.18c-1.53-5.59-3-11.24-4-17.09a17.4,17.4,0,0,1,14-20.25A17.59,17.59,0,0,1,636,710.53Z" style="fill:#fcfaeb;stroke:#3a3632;stroke-miterlimit:10;stroke-width:10px"/><path d="M654.83,829c-4.89,4.07-10,7.72-15.05,11.26l-3.84,2.63-3.87,2.54c-2.57,1.71-5.17,3.36-7.78,5-10.42,6.49-21,12.47-31.8,18.11a655.28,655.28,0,0,1-66,29.84,544.57,544.57,0,0,1-69,22c-11.81,2.87-23.78,5.31-36,7.15-6.11.92-12.25,1.72-18.5,2.27a182.71,182.71,0,0,1-19,.91,17.17,17.17,0,0,1-11.4-29.84,180.3,180.3,0,0,1,14.78-12c5-3.76,10.13-7.27,15.29-10.65,10.32-6.76,20.88-12.93,31.59-18.66A541.49,541.49,0,0,1,500.32,830a650.74,650.74,0,0,1,69.11-21.8c11.77-3,23.68-5.59,35.78-7.71,3-.53,6-1,9.11-1.48l4.58-.68,4.61-.6c6.16-.76,12.37-1.41,18.73-1.64A18.63,18.63,0,0,1,654.83,829Z" style="fill:#fcfaeb;stroke:#3a3632;stroke-miterlimit:10;stroke-width:10px"/><path d="M404.82,1036c.29,6,.17,12-.07,17.89l-.2,4.42-.28,4.4c-.18,2.94-.42,5.85-.68,8.76-1,11.65-2.59,23.15-4.46,34.55a621.08,621.08,0,0,1-15.19,67.29,516.14,516.14,0,0,1-22.83,65.07c-4.59,10.62-9.59,21.12-15.19,31.45-2.8,5.16-5.72,10.29-8.88,15.35a173.65,173.65,0,0,1-10.2,15,16.35,16.35,0,0,1-29.21-8.44,173.1,173.1,0,0,1-.65-18.11c0-6,.29-11.86.68-17.72.78-11.72,2.14-23.27,3.93-34.7A515.71,515.71,0,0,1,317,1154,621.13,621.13,0,0,1,340,1089c4.49-10.64,9.32-21.19,14.65-31.6,1.33-2.6,2.68-5.19,4.1-7.77l2.1-3.87,2.19-3.85c3-5.12,6-10.21,9.49-15.18a17.73,17.73,0,0,1,32.25,9.33Z" style="fill:#fcfaeb;stroke:#3a3632;stroke-miterlimit:10;stroke-width:10px"/><path d="M523.8,1124.11c6.44.6,12.69,1.62,18.89,2.75l4.64.87,4.61,1c3.07.62,6.12,1.31,9.15,2,12.14,2.85,24.06,6.2,35.82,9.88a662.87,662.87,0,0,1,68.81,26.09A552.06,552.06,0,0,1,731,1200.52c10.53,6.43,20.87,13.29,31,20.74,5,3.73,10,7.58,14.89,11.68a184.12,184.12,0,0,1,14.29,13,17.44,17.44,0,0,1-13.29,29.59,186.62,186.62,0,0,1-19.21-2c-6.3-.92-12.49-2.08-18.62-3.37-12.27-2.57-24.26-5.74-36.07-9.33a552,552,0,0,1-68.7-26.31,662.75,662.75,0,0,1-65.23-34.06c-10.57-6.34-21-13-31.19-20.19-2.55-1.8-5.09-3.61-7.6-5.5l-3.77-2.8-3.74-2.89c-5-3.88-9.88-7.87-14.61-12.28a18.92,18.92,0,0,1,14.66-32.68Z" style="fill:#fcfaeb;stroke:#3a3632;stroke-miterlimit:10;stroke-width:10px"/><path d="M912.89,1148.18c-1.42,6.19-3.22,12.15-5.12,18l-1.44,4.41L904.8,1175c-1,2.91-2.06,5.79-3.15,8.65-4.33,11.46-9.13,22.63-14.23,33.62a652.53,652.53,0,0,1-34.28,63.64,540,540,0,0,1-41.37,59.26c-7.62,9.43-15.63,18.61-24.19,27.47-4.28,4.42-8.67,8.77-13.28,13a181.39,181.39,0,0,1-14.52,12.24,17.13,17.13,0,0,1-27.11-16.75,182,182,0,0,1,4.45-18.45c1.71-6,3.63-11.9,5.68-17.7,4.08-11.61,8.71-22.89,13.73-33.93A542.3,542.3,0,0,1,791,1242.51a649.27,649.27,0,0,1,41.57-59.13c7.53-9.48,15.38-18.77,23.69-27.77q3.11-3.39,6.32-6.7l3.22-3.31,3.29-3.27c4.42-4.33,8.95-8.61,13.85-12.65a18.59,18.59,0,0,1,29.94,18.5Z" style="fill:#fcfaeb;stroke:#3a3632;stroke-miterlimit:10;stroke-width:10px"/><path d="M1049.36,1278.52c-3.25,5.23-6.78,10.12-10.38,14.93l-2.72,3.58-2.77,3.51q-2.76,3.53-5.62,6.94c-7.59,9.13-15.52,17.85-23.66,26.31a632.62,632.62,0,0,1-51.51,47.5,524.85,524.85,0,0,1-56.62,41.24c-10,6.23-20.2,12.12-30.84,17.53-5.32,2.7-10.72,5.31-16.28,7.71a173.87,173.87,0,0,1-17.16,6.64,16.61,16.61,0,0,1-19.56-23.91,175.91,175.91,0,0,1,9.91-15.51c3.46-5,7.08-9.75,10.78-14.43,7.42-9.35,15.22-18.22,23.3-26.75a526.89,526.89,0,0,1,51.65-47.32,630.33,630.33,0,0,1,56.77-41.06c9.9-6.31,20-12.35,30.48-18q3.92-2.12,7.91-4.13l4-2,4.05-2c5.42-2.57,10.91-5.06,16.68-7.22a18,18,0,0,1,21.59,26.4Z" style="fill:#fcfaeb;stroke:#3a3632;stroke-miterlimit:10;stroke-width:10px"/><path d="M1424,516.92c1.55,6.38,2.64,12.72,3.6,19.05l.7,4.75.6,4.74c.42,3.16.77,6.31,1.08,9.46,1.29,12.6,2,25.15,2.36,37.67A676.07,676.07,0,0,1,1430,667.3a559.7,559.7,0,0,1-10.91,73.93c-2.7,12.24-5.86,24.44-9.69,36.58-1.92,6.07-4,12.13-6.3,18.16a184.17,184.17,0,0,1-7.77,18,17.71,17.71,0,0,1-32.81-3,184.21,184.21,0,0,1-4.41-19.13c-1.2-6.35-2.13-12.68-2.93-19-1.58-12.63-2.5-25.2-3-37.73a561.72,561.72,0,0,1,2.57-74.69,671.14,671.14,0,0,1,11.15-73.9c2.59-12.25,5.56-24.47,9.09-36.64.88-3,1.79-6.08,2.76-9.11l1.45-4.55,1.54-4.55c2.08-6.05,4.29-12.09,7-18.1a19.22,19.22,0,0,1,36.23,3.29Z" style="fill:#fcfaeb;stroke:#3a3632;stroke-miterlimit:10;stroke-width:10px"/><path d="M1710.26,732.64c6.24.19,12.34.8,18.39,1.51l4.53.56,4.49.65c3,.41,6,.89,9,1.4,11.88,2,23.58,4.52,35.15,7.36a640.42,640.42,0,0,1,67.94,21,532.33,532.33,0,0,1,65.06,28.69c10.55,5.57,20.94,11.56,31.11,18.14,5.08,3.3,10.12,6.71,15.06,10.37A175.43,175.43,0,0,1,1975.52,834a16.85,16.85,0,0,1-11,29.34,176.28,176.28,0,0,1-18.66-.79c-6.13-.5-12.17-1.25-18.17-2.12-12-1.74-23.75-4.07-35.35-6.82a532.53,532.53,0,0,1-67.87-21.23,641.33,641.33,0,0,1-65-28.92c-10.58-5.48-21-11.29-31.31-17.6q-3.86-2.35-7.66-4.84l-3.81-2.47-3.78-2.56c-5-3.45-10-7-14.84-11a18.29,18.29,0,0,1,12.18-32.41Z" style="fill:#fcfaeb;stroke:#3a3632;stroke-miterlimit:10;stroke-width:10px"/><path d="M1833.3,1024.28c-2.93,5.44-6.15,10.57-9.45,15.61l-2.49,3.76-2.55,3.69q-2.55,3.72-5.19,7.31c-7,9.63-14.39,18.88-22,27.86a632.85,632.85,0,0,1-48.54,50.87,528,528,0,0,1-54.07,44.93c-9.58,6.88-19.46,13.44-29.77,19.53-5.15,3.05-10.4,6-15.81,8.77a174.8,174.8,0,0,1-16.77,7.74,16.66,16.66,0,0,1-21.11-22.69,176.55,176.55,0,0,1,8.92-16.17c3.15-5.2,6.48-10.21,9.89-15.14,6.82-9.84,14.07-19.22,21.62-28.28a527,527,0,0,1,48.7-50.7,634.76,634.76,0,0,1,54.23-44.76c9.51-6.95,19.26-13.64,29.37-19.95,2.53-1.58,5.07-3.14,7.66-4.65l3.87-2.28,3.93-2.21c5.27-2.93,10.61-5.78,16.25-8.3a18.09,18.09,0,0,1,23.32,25.06Z" style="fill:#fcfaeb;stroke:#3a3632;stroke-miterlimit:10;stroke-width:10px"/><path d="M1557.63,1267.67c-2.19,5.53-4.71,10.78-7.31,16l-2,3.87-2,3.82c-1.35,2.55-2.74,5.06-4.15,7.55-5.66,10-11.7,19.63-18,29.06a611.44,611.44,0,0,1-40.83,54,506.4,506.4,0,0,1-46.77,48.89c-8.4,7.63-17.13,15-26.31,22-4.6,3.48-9.28,6.87-14.16,10.11a170.31,170.31,0,0,1-15.18,9.25,16,16,0,0,1-22.68-19.38,170.88,170.88,0,0,1,6.76-16.44c2.44-5.32,5.07-10.48,7.79-15.56,5.44-10.16,11.34-19.93,17.56-29.42a507.6,507.6,0,0,1,41-53.82,613,613,0,0,1,46.94-48.75c8.33-7.69,16.92-15.16,25.9-22.3,2.24-1.79,4.5-3.55,6.81-5.28l3.45-2.61L1518,1256c4.71-3.38,9.5-6.68,14.62-9.72a17.4,17.4,0,0,1,25,21.4Z" style="fill:#fcfaeb;stroke:#3a3632;stroke-miterlimit:10;stroke-width:10px"/><path d="M1578.2,1492.49c-.37,6.28-1.16,12.4-2,18.47l-.7,4.54-.77,4.51c-.51,3-1.08,6-1.67,9-2.37,11.9-5.23,23.61-8.42,35.18a647.89,647.89,0,0,1-23.1,67.8,537.66,537.66,0,0,1-30.76,64.68c-5.91,10.46-12.24,20.75-19.15,30.8-3.47,5-7,10-10.87,14.87a176.19,176.19,0,0,1-12.19,14.33,17,17,0,0,1-29.23-11.94,179.41,179.41,0,0,1,1.34-18.76c.68-6.16,1.6-12.22,2.65-18.23,2.1-12,4.78-23.79,7.88-35.4a538.32,538.32,0,0,1,23.32-67.72,647.81,647.81,0,0,1,31-64.58c5.82-10.5,12-20.86,18.62-31q2.49-3.81,5.09-7.58l2.6-3.76,2.69-3.73c3.61-5,7.33-9.88,11.47-14.63a18.42,18.42,0,0,1,32.28,13.19Z" style="fill:#fcfaeb;stroke:#3a3632;stroke-miterlimit:10;stroke-width:10px"/><path d="M1452.48,805.27c2.68,5.45,4.92,11,7,16.47l1.58,4.14,1.49,4.15q1.5,4.15,2.86,8.32c3.67,11.11,6.82,22.29,9.64,33.51a624,624,0,0,1,12.81,67.83,517.88,517.88,0,0,1,4.91,68.85c0,11.58-.42,23.21-1.45,34.92-.52,5.86-1.16,11.73-2,17.64a173.1,173.1,0,0,1-3.42,17.8,16.36,16.36,0,0,1-30.19,3.86,171.57,171.57,0,0,1-7.79-16.37c-2.34-5.49-4.45-11-6.42-16.54-4-11.08-7.29-22.23-10.2-33.44a517.76,517.76,0,0,1-12.58-67.86,622.11,622.11,0,0,1-4.69-68.88c-.1-11.57.14-23.18.89-34.85.19-2.92.4-5.84.68-8.77l.39-4.4.49-4.4c.67-5.88,1.46-11.77,2.67-17.71a17.75,17.75,0,0,1,33.33-4.27Z" style="fill:#fcfaeb;stroke:#3a3632;stroke-miterlimit:10;stroke-width:10px"/><path d="M1362.65,645c-5.5,3.54-11.11,6.63-16.75,9.6l-4.24,2.21-4.26,2.11c-2.84,1.42-5.69,2.77-8.55,4.1-11.44,5.31-23,10.09-34.68,14.5a672.21,672.21,0,0,1-71,22.17A558.06,558.06,0,0,1,1150,713.54c-12.4,1.45-24.91,2.45-37.58,2.81-6.33.17-12.7.21-19.13,0a188.75,188.75,0,0,1-19.5-1.44,17.64,17.64,0,0,1-7.9-31.85,188.76,188.76,0,0,1,16.56-10.38c5.59-3.2,11.24-6.14,16.92-8.94,11.37-5.61,22.89-10.58,34.53-15.09a559.83,559.83,0,0,1,71.1-21.94,673,673,0,0,1,73.17-13.6c12.38-1.55,24.84-2.74,37.44-3.39,3.14-.16,6.3-.3,9.47-.37l4.76-.13,4.77,0c6.38,0,12.78.1,19.3.66a19.14,19.14,0,0,1,8.72,35.16Z" style="fill:#fcfaeb;stroke:#3a3632;stroke-miterlimit:10;stroke-width:10px"/><path d="M1205.2,300.05c6.21,1.47,12.18,3.33,18.09,5.28l4.42,1.49,4.37,1.57c2.92,1,5.8,2.12,8.67,3.24,11.48,4.45,22.67,9.36,33.67,14.58a653.26,653.26,0,0,1,63.69,35,544.71,544.71,0,0,1,59.22,42.06c9.41,7.73,18.58,15.86,27.41,24.53,4.41,4.34,8.75,8.79,13,13.46a181.36,181.36,0,0,1,12.18,14.68,17.21,17.21,0,0,1-17,27.11,177.52,177.52,0,0,1-18.51-4.62c-6-1.76-11.92-3.74-17.74-5.84-11.64-4.2-22.94-8.95-34-14.08A546.54,546.54,0,0,1,1299,423.31a657.34,657.34,0,0,1-59.09-42.26c-9.47-7.66-18.74-15.62-27.72-24q-3.37-3.15-6.68-6.41l-3.3-3.26L1199,344c-4.32-4.48-8.58-9.05-12.6-14a18.68,18.68,0,0,1,18.83-29.93Z" style="fill:#fcfaeb;stroke:#3a3632;stroke-miterlimit:10;stroke-width:10px"/><path d="M1187,285.73c-3.76,5-7.77,9.56-11.85,14l-3.07,3.36-3.12,3.27c-2.08,2.2-4.19,4.34-6.31,6.46-8.5,8.48-17.29,16.53-26.28,24.28a639.32,639.32,0,0,1-56.3,43,532.17,532.17,0,0,1-60.87,36.23c-10.62,5.34-21.48,10.31-32.69,14.76-5.61,2.23-11.29,4.34-17.12,6.25a176.33,176.33,0,0,1-17.9,5.07,16.79,16.79,0,0,1-17.45-25.9,177.69,177.69,0,0,1,11.42-14.69c3.95-4.68,8-9.15,12.22-13.52,8.33-8.72,17-16.92,25.95-24.75a531.43,531.43,0,0,1,56.44-42.81,637.78,637.78,0,0,1,61-36c10.56-5.43,21.32-10.56,32.37-15.25,2.76-1.17,5.54-2.32,8.36-3.42l4.21-1.66,4.26-1.59c5.69-2.09,11.46-4.08,17.47-5.71a18.22,18.22,0,0,1,19.27,28.6Z" style="fill:#fcfaeb;stroke:#3a3632;stroke-miterlimit:10;stroke-width:10px"/><path d="M752.22,430.82c-5,3.27-10.15,6.13-15.3,8.89l-3.87,2-3.89,1.95c-2.59,1.32-5.2,2.58-7.81,3.81-10.46,4.93-21,9.37-31.7,13.47a615.09,615.09,0,0,1-65,20.71,512,512,0,0,1-66.91,13.08c-11.35,1.39-22.81,2.38-34.42,2.77-5.8.2-11.64.27-17.53.11a170.5,170.5,0,0,1-17.87-1.22,16.16,16.16,0,0,1-7.41-29.13,170.75,170.75,0,0,1,15.11-9.6c5.1-3,10.27-5.69,15.46-8.29,10.38-5.2,20.92-9.81,31.55-14a512.21,512.21,0,0,1,65-20.49,614.42,614.42,0,0,1,67-12.86c11.33-1.49,22.74-2.65,34.28-3.31,2.88-.17,5.77-.31,8.68-.4l4.35-.14,4.38-.05c5.84,0,11.71,0,17.69.5a17.54,17.54,0,0,1,8.18,32.17Z" style="fill:#fcfaeb;stroke:#3a3632;stroke-miterlimit:10;stroke-width:10px"/><path d="M549,459.84c4.78,4,9.18,8.15,13.49,12.4l3.21,3.19,3.13,3.25c2.1,2.16,4.14,4.35,6.16,6.56,8.09,8.82,15.73,17.91,23.06,27.19a638.06,638.06,0,0,1,40.45,57.88A532.39,532.39,0,0,1,672,632.45c4.87,10.8,9.36,21.83,13.32,33.18,2,5.68,3.84,11.43,5.49,17.31a174.49,174.49,0,0,1,4.29,18,16.73,16.73,0,0,1-26.52,16.28,176.72,176.72,0,0,1-14.15-12c-4.49-4.13-8.77-8.39-12.94-12.73-8.33-8.67-16.13-17.66-23.55-26.89a529.38,529.38,0,0,1-40.25-58,638.7,638.7,0,0,1-33.3-62.26c-5-10.74-9.61-21.67-13.81-32.87-1.05-2.8-2.08-5.62-3.05-8.47L526,499.77l-1.4-4.31c-1.84-5.76-3.58-11.58-4.95-17.64a18.16,18.16,0,0,1,29.3-18Z" style="fill:#fcfaeb;stroke:#3a3632;stroke-miterlimit:10;stroke-width:10px"/><path d="M183.09,384.09c4.67,4.06,9,8.34,13.16,12.67l3.13,3.27,3,3.31c2.05,2.2,4,4.43,6,6.68,7.86,9,15.26,18.23,22.36,27.66a635.33,635.33,0,0,1,39,58.66,527.55,527.55,0,0,1,31.95,62.75c4.61,10.87,8.83,22,12.51,33.39,1.84,5.71,3.57,11.48,5.08,17.38A178.82,178.82,0,0,1,323.16,628a16.7,16.7,0,0,1-26.84,15.62,178.39,178.39,0,0,1-13.82-12.29c-4.39-4.23-8.55-8.58-12.61-13-8.11-8.84-15.67-18-22.86-27.37a528.81,528.81,0,0,1-38.78-58.78,636.57,636.57,0,0,1-31.75-62.86c-4.69-10.83-9.07-21.83-13-33.1-1-2.82-1.95-5.65-2.85-8.52l-1.38-4.28L158,419c-1.7-5.79-3.3-11.64-4.52-17.71a18.11,18.11,0,0,1,29.63-17.24Z" style="fill:#fcfaeb;stroke:#3a3632;stroke-miterlimit:10;stroke-width:10px"/><path d="M121.15,744.75c5.17,3.55,10,7.36,14.7,11.24l3.52,2.92,3.44,3c2.31,2,4.57,4,6.8,6,8.94,8.13,17.45,16.59,25.68,25.25a644.26,644.26,0,0,1,46,54.52,535.16,535.16,0,0,1,39.37,59.44c5.88,10.42,11.41,21.1,16.42,32.15,2.51,5.54,4.91,11.14,7.11,16.91a176,176,0,0,1,6,17.75,16.9,16.9,0,0,1-25.19,18.8A177.91,177.91,0,0,1,249.6,982c-4.9-3.75-9.59-7.65-14.18-11.63-9.17-8-17.84-16.29-26.14-24.9a535.61,535.61,0,0,1-45.78-54.66,642.56,642.56,0,0,1-39.17-59.58c-6-10.35-11.65-20.92-16.9-31.81-1.31-2.72-2.6-5.45-3.84-8.23L101.71,787l-1.8-4.21c-2.37-5.63-4.66-11.32-6.58-17.29a18.34,18.34,0,0,1,27.82-20.76Z" style="fill:#fcfaeb;stroke:#3a3632;stroke-miterlimit:10;stroke-width:10px"/><path d="M224.64,917.89c6.38,0,12.61.39,18.8.91l4.64.41,4.6.51c3.08.32,6.13.71,9.18,1.12,12.18,1.64,24.19,3.8,36.08,6.3a652.68,652.68,0,0,1,70,19.08,544.61,544.61,0,0,1,67.31,27c10.94,5.32,21.74,11.07,32.33,17.42,5.29,3.19,10.54,6.49,15.71,10.05a183.52,183.52,0,0,1,15.26,11.42,17.19,17.19,0,0,1-10.23,30.29,180.13,180.13,0,0,1-19.05-.17c-6.27-.3-12.45-.85-18.59-1.53-12.28-1.37-24.35-3.34-36.28-5.74a544.36,544.36,0,0,1-69.9-19.31,655.76,655.76,0,0,1-67.23-27.25c-11-5.22-21.83-10.78-32.52-16.86-2.67-1.52-5.33-3.06-8-4.67l-4-2.4L228.85,962c-5.24-3.33-10.45-6.79-15.5-10.67a18.65,18.65,0,0,1,11.29-33.45Z" style="fill:#fcfaeb;stroke:#3a3632;stroke-miterlimit:10;stroke-width:10px"/><path d="M426.22,1323.93c2.7,5.66,5,11.37,7.1,17.09l1.58,4.3,1.5,4.3q1.5,4.31,2.86,8.63c3.67,11.51,6.8,23.09,9.59,34.71a642.27,642.27,0,0,1,12.48,70.22,534.2,534.2,0,0,1,4.31,71.18c-.12,12-.68,24-1.88,36.06-.6,6-1.33,12.1-2.31,18.19a180.53,180.53,0,0,1-3.73,18.36,16.9,16.9,0,0,1-31.23,3.65,179.78,179.78,0,0,1-7.86-17c-2.37-5.69-4.48-11.42-6.46-17.16-3.95-11.48-7.28-23-10.16-34.65a534.2,534.2,0,0,1-12.25-70.25,641.7,641.7,0,0,1-4.08-71.2c0-11.95.4-23.94,1.3-36,.23-3,.48-6,.8-9l.45-4.54.55-4.54c.76-6.06,1.64-12.14,3-18.27a18.34,18.34,0,0,1,34.48-4Z" style="fill:#fcfaeb;stroke:#3a3632;stroke-miterlimit:10;stroke-width:10px"/><path d="M715.26,1650.91c-4,4.55-8.15,8.73-12.38,12.81l-3.19,3-3.24,3c-2.15,2-4.33,3.92-6.53,5.83-8.77,7.65-17.8,14.85-27,21.75a619.3,619.3,0,0,1-57.28,37.9,515.1,515.1,0,0,1-61.26,31c-10.62,4.47-21.45,8.57-32.59,12.14-5.57,1.78-11.2,3.45-17,4.91a172.85,172.85,0,0,1-17.65,3.73,16.28,16.28,0,0,1-15.18-26.2,171.52,171.52,0,0,1,12-13.46c4.12-4.27,8.38-8.32,12.7-12.27,8.63-7.89,17.57-15.25,26.73-22.24a516.57,516.57,0,0,1,57.4-37.7,619.43,619.43,0,0,1,61.37-30.84c10.56-4.56,21.31-8.81,32.3-12.62,2.75-1,5.52-1.89,8.31-2.76l4.18-1.33,4.23-1.26c5.65-1.64,11.35-3.19,17.27-4.37a17.66,17.66,0,0,1,16.76,28.93Z" style="fill:#fcfaeb;stroke:#3a3632;stroke-miterlimit:10;stroke-width:10px"/><path d="M967.43,1589.75c1.64,5.74,2.85,11.46,4,17.17l.8,4.28.71,4.28c.49,2.85.92,5.7,1.32,8.55,1.61,11.4,2.71,22.76,3.47,34.11a610.61,610.61,0,0,1,.53,67.9,507.89,507.89,0,0,1-7.29,67.5c-2,11.2-4.46,22.39-7.5,33.55-1.53,5.57-3.18,11.14-5.07,16.7a171.9,171.9,0,0,1-6.42,16.64,16.1,16.1,0,0,1-29.9-1.54,171.94,171.94,0,0,1-4.67-17.21C916,1836,915,1830.25,914,1824.54c-1.88-11.41-3.16-22.79-4-34.14a509.42,509.42,0,0,1-.31-67.89,610.78,610.78,0,0,1,7.51-67.48c1.92-11.21,4.18-22.41,6.95-33.58.69-2.79,1.41-5.58,2.19-8.37l1.15-4.18,1.24-4.18c1.68-5.57,3.47-11.13,5.69-16.67a17.45,17.45,0,0,1,33,1.7Z" style="fill:#fcfaeb;stroke:#3a3632;stroke-miterlimit:10;stroke-width:10px"/><path d="M1212.49,1526.43c-4.9,4.24-10,8-15.09,11.75l-3.85,2.75-3.89,2.66c-2.58,1.79-5.19,3.52-7.81,5.22-10.48,6.8-21.17,13.09-32,19a664.84,664.84,0,0,1-66.59,31.64,553.76,553.76,0,0,1-69.78,23.75c-12,3.14-24.09,5.86-36.46,8-6.19,1.06-12.43,2-18.77,2.67a185,185,0,0,1-19.32,1.3,17.47,17.47,0,0,1-12.18-30.13,182.31,182.31,0,0,1,14.8-12.49c5-3.92,10.16-7.58,15.34-11.13,10.37-7.08,21-13.55,31.77-19.6a553.82,553.82,0,0,1,66.69-31.41,665,665,0,0,1,69.87-23.52c11.92-3.25,24-6.15,36.24-8.54,3.06-.6,6.14-1.17,9.24-1.68l4.64-.78,4.68-.7c6.26-.9,12.55-1.68,19-2a19,19,0,0,1,13.45,33.27Z" style="fill:#fcfaeb;stroke:#3a3632;stroke-miterlimit:10;stroke-width:10px"/><path d="M1231.69,1299.86c4.86,4.19,9.33,8.61,13.7,13.09l3.25,3.37,3.17,3.42c2.13,2.28,4.2,4.59,6.24,6.91,8.18,9.28,15.89,18.84,23.28,28.59a657.79,657.79,0,0,1,40.63,60.67,546.57,546.57,0,0,1,33.36,64.93c4.82,11.26,9.23,22.75,13.09,34.57,1.93,5.91,3.74,11.89,5.33,18a185.67,185.67,0,0,1,4.07,18.74,17.3,17.3,0,0,1-27.76,16.29,182.14,182.14,0,0,1-14.38-12.69c-4.56-4.36-8.9-8.86-13.12-13.42-8.44-9.14-16.31-18.6-23.8-28.29a548.93,548.93,0,0,1-40.42-60.79,659.23,659.23,0,0,1-33.15-65.06c-4.9-11.21-9.49-22.6-13.6-34.27-1-2.92-2-5.85-3-8.81l-1.44-4.44-1.36-4.48c-1.78-6-3.46-12.06-4.75-18.34a18.78,18.78,0,0,1,30.65-18Z" style="fill:#fcfaeb;stroke:#3a3632;stroke-miterlimit:10;stroke-width:10px"/></svg>