<svg id="Layer_1" data-name="Layer 1" xmlns="http://www.w3.org/2000/svg" viewBox="0 0 1146 2000"><g id="layer2"><path id="path863" d="M1105,1960.32c-17.83,52.84-469.12-114.66-716.74-403.14-297.92-347.07-448-879.41-276.51-979.06,82.06-47.69,192.77-99.69,192.77-99.69s122.32-32.22,211.16-49.24c186.47-35.73,206.06,400.39,325,821.53C950.34,1639.05,1124.44,1902.79,1105,1960.32Z" style="fill:#b51521"/><path id="path863-2" data-name="path863" d="M1105,1960.32c-17.83,52.84-469.12-114.66-716.74-403.14-297.92-347.07-448-879.41-276.51-979.06,82.06-47.69,192.77-99.69,192.77-99.69s122.32-32.22,211.16-49.24c186.47-35.73,206.06,400.39,325,821.53C950.34,1639.05,1124.44,1902.79,1105,1960.32Z" style="fill:none;stroke:#3a3632;stroke-linecap:round;stroke-linejoin:round;stroke-width:22.1524369263235px;isolation:isolate;opacity:0.986000001430512"/><path id="path863-3" data-name="path863" d="M1105,1960.32c-17.83,52.84-469.12-114.66-716.74-403.14-297.92-347.07-448-879.41-276.51-979.06,82.06-47.69,192.77-99.69,192.77-99.69s122.32-32.22,211.16-49.24c186.47-35.73,206.06,400.39,325,821.53C950.34,1639.05,1124.44,1902.79,1105,1960.32Z" style="fill:none;stroke:#3a3632;stroke-width:22.9263402394123px"/></g><g id="layer2-2" data-name="layer2"><path id="path863-4" data-name="path863" d="M868.71,1735.35c-15,44.46-296.4-62-490.46-300.16C144.78,1148.7,6.08,663.11,144.45,577.42c66.22-41,155.41-86,155.41-86s92.11,2.27,163.35-13.17c126.6-27.88,165.42,301.46,254.84,652.34C800.5,1454.11,885,1687,868.71,1735.35Z" style="fill:#d12027"/></g><circle cx="257.1" cy="780.3" r="100.36" style="fill:#fff"/><circle cx="531.09" cy="846.09" r="65.78" style="fill:#e81f2d"/><path id="path915" d="M346.24,377.49c-38.3-54.8-38.76-244.86-52.46-292.41-13.25-46-37.09-62.68-96.47-51.94-56.75,10.44-90.76,32-99,73.73S222.19,362.36,219.18,427.26,76.05,535.73,74.05,584.57c19.87-1.72,64.81-6.62,124.54,13,68.58-51.88,232.34-107.45,288.9-100.07,0,0,36.27-49.44,78.24-79.86C529.16,374.79,384.54,432.29,346.24,377.49Z" style="fill:#1f8441"/></svg>