<svg id="Layer_1" data-name="Layer 1" xmlns="http://www.w3.org/2000/svg" xmlns:xlink="http://www.w3.org/1999/xlink" viewBox="0 0 2000 1429.18"><defs><clipPath id="clip-path"><path d="M88.37,524.63l51.83,603.68c91.3,81.93,446.52,143,870.8,143s779.5-61.09,870.8-143l51.83-603.68c-132,79-495.22,135.81-922.63,135.81S220.38,603.66,88.37,524.63Z" style="fill:none"/></clipPath></defs><path d="M136.47,1212.94c0,98.53,386.62,178.4,863.53,178.4s863.53-79.87,863.53-178.4l68-792.36V317.85c0-106.29-417.07-192.46-931.56-192.46S68.44,211.56,68.44,317.85V420.58Z" style="fill:#fff;stroke:#3a3632;stroke-miterlimit:10;stroke-width:20px"/><path d="M24.21,353.86c0,111.34,436.88,201.6,975.79,201.6s975.79-90.26,975.79-201.6V239.44c0-111.34-436.88-201.6-975.79-201.6S24.21,128.1,24.21,239.44Z" style="fill:#219e5f;stroke:#3a3632;stroke-miterlimit:10;stroke-width:20px"/><ellipse cx="1000" cy="239.44" rx="975.79" ry="201.59" style="fill:#29b473;stroke:#3a3632;stroke-miterlimit:10;stroke-width:20px"/><ellipse cx="1000" cy="230.2" rx="875.12" ry="143.86" style="fill:#29b473;stroke:#3a3632;stroke-miterlimit:10;stroke-width:20px"/><path d="M77.37,524.63l51.83,603.68c91.3,81.93,446.52,143,870.8,143s779.5-61.09,870.8-143l51.83-603.68c-132,79-495.22,135.81-922.63,135.81S209.38,603.66,77.37,524.63Z" style="fill:#219e5f;stroke:#3a3632;stroke-miterlimit:10;stroke-width:20px"/><g style="clip-path:url(#clip-path)"><path d="M1337.62,1072.33c-35.92,109-274,133.48-443.32,77.69-49.17-16.2-98.39-40.58-137.19-76.38a242.22,242.22,0,0,1-49.87-63.82c-13.81-25.93-19.56-55.2-33.44-81.1-6.57-12.27-16.1-22.19-51.83-33.49l-1085-322.77c-27.49-7.68-56.4-56.52-43.06-103.62l2.42-7.34c17.27-45.8,69.56-67.89,96.23-57.72L656.89,789.29c35.44,12.16,49,9.84,61.58,3.88,26.55-12.57,48.58-32.69,75.1-45.33a242.43,242.43,0,0,1,78-21.68c52.48-5.72,106.55,3.94,155.73,20.15,169.3,55.79,346.2,217,310.28,326" style="fill:#d0d2d3;stroke:#3a3632;stroke-miterlimit:10;stroke-width:20px"/><path d="M1328.81,994.24l2.22-2.77c62.17-78.58,67.75-177.48,39.32-280.08-38.67,59.09-124.5,80.69-162.7,76.32C1092.82,774.55,950,704.53,853.56,798.66c-53.18,51.88-91.48,167.74-40.8,239.68,74.14,105.24,219.86,105.46,322.86,80.2C1218.55,1098.21,1271.7,1064.79,1328.81,994.24Z" style="fill:#fff;stroke:#3a3632;stroke-miterlimit:10;stroke-width:20px"/></g></svg>