<svg id="Layer_1" data-name="Layer 1" xmlns="http://www.w3.org/2000/svg" viewBox="0 0 1613.13 2000"><rect x="645.44" y="136.44" width="38.59" height="1931.02" transform="translate(-461.93 480.02) rotate(-30)" style="fill:#f9f1c0;stroke:#3a3632;stroke-linecap:round;stroke-linejoin:round;stroke-width:10px"/><rect x="715.04" y="89.71" width="38.59" height="1931.02" transform="translate(-429.24 508.56) rotate(-30)" style="fill:#f9f1c0;stroke:#3a3632;stroke-linecap:round;stroke-linejoin:round;stroke-width:10px"/><rect x="764.32" y="24.58" width="38.59" height="1931.02" transform="translate(-390.07 524.47) rotate(-30)" style="fill:#f9f1c0;stroke:#3a3632;stroke-linecap:round;stroke-linejoin:round;stroke-width:10px"/><rect x="834.01" y="4.08" width="38.59" height="1931.02" transform="translate(-358.13 521.64) rotate(-28.36)" style="fill:#f9f1c0;stroke:#3a3632;stroke-linecap:round;stroke-linejoin:round;stroke-width:10px"/><rect x="903.7" y="-16.41" width="38.59" height="1931.02" transform="translate(-350.9 588.67) rotate(-30)" style="fill:#f9f1c0;stroke:#3a3632;stroke-linecap:round;stroke-linejoin:round;stroke-width:10px"/><rect x="973.39" y="-36.91" width="38.59" height="1931.02" transform="translate(-339.62 658.99) rotate(-31.65)" style="fill:#f9f1c0;stroke:#3a3632;stroke-linecap:round;stroke-linejoin:round;stroke-width:10px"/><rect x="599.31" y="95.16" width="38.59" height="1931.02" transform="translate(-420.42 406.36) rotate(-27.55)" style="fill:#f9f1c0;stroke:#3a3632;stroke-linecap:round;stroke-linejoin:round;stroke-width:10px"/><rect x="670.85" y="51.46" width="38.59" height="1931.02" transform="translate(-392.1 434.49) rotate(-27.55)" style="fill:#f9f1c0;stroke:#3a3632;stroke-linecap:round;stroke-linejoin:round;stroke-width:10px"/><rect x="722.87" y="-11.51" width="38.59" height="1931.02" transform="translate(-357.08 451.41) rotate(-27.55)" style="fill:#f9f1c0;stroke:#3a3632;stroke-linecap:round;stroke-linejoin:round;stroke-width:10px"/><rect x="774.11" y="-11.97" width="38.59" height="1931.02" transform="translate(-351.06 475.06) rotate(-27.55)" style="fill:#f9f1c0;stroke:#3a3632;stroke-linecap:round;stroke-linejoin:round;stroke-width:10px"/><rect x="709.38" y="38.84" width="38.59" height="1931.02" transform="translate(-381.89 450.88) rotate(-27.55)" style="fill:#f9f1c0;stroke:#3a3632;stroke-linecap:round;stroke-linejoin:round;stroke-width:10px"/><rect x="633.72" y="96.9" width="38.59" height="1931.02" transform="translate(-417.32 422.48) rotate(-27.55)" style="fill:#f9f1c0;stroke:#3a3632;stroke-linecap:round;stroke-linejoin:round;stroke-width:10px"/><rect x="793.37" y="-29" width="38.59" height="1931.02" transform="translate(-327.48 449.14) rotate(-25.9)" style="fill:#f9f1c0;stroke:#3a3632;stroke-linecap:round;stroke-linejoin:round;stroke-width:10px"/><rect x="863.87" y="-46.5" width="38.59" height="1931.02" transform="translate(-324.91 512.66) rotate(-27.55)" style="fill:#f9f1c0;stroke:#3a3632;stroke-linecap:round;stroke-linejoin:round;stroke-width:10px"/><rect x="934.37" y="-63.99" width="38.59" height="1931.02" transform="translate(-318.61 579.75) rotate(-29.2)" style="fill:#f9f1c0;stroke:#3a3632;stroke-linecap:round;stroke-linejoin:round;stroke-width:10px"/><rect x="774.11" y="-11.97" width="38.59" height="1931.02" transform="translate(-242.65 271.39) rotate(-16.88)" style="fill:#f9f1c0;stroke:#3a3632;stroke-linecap:round;stroke-linejoin:round;stroke-width:10px"/><rect x="924.34" y="42.48" width="38.59" height="1931.02" transform="translate(-157.07 174.36) rotate(-9.75)" style="fill:#f9f1c0;stroke:#3a3632;stroke-linecap:round;stroke-linejoin:round;stroke-width:10px"/><rect x="588.66" y="29.44" width="38.59" height="1931.02" transform="translate(-236.05 190.47) rotate(-14.95)" style="fill:#f9f1c0;stroke:#3a3632;stroke-linecap:round;stroke-linejoin:round;stroke-width:10px"/><rect x="594.76" y="179.99" width="38.59" height="1931.02" transform="translate(-529.62 528.05) rotate(-33.44)" style="fill:#f9f1c0;stroke:#3a3632;stroke-linecap:round;stroke-linejoin:round;stroke-width:10px"/></svg>