<svg id="Layer_1" data-name="Layer 1" xmlns="http://www.w3.org/2000/svg" viewBox="0 0 902.8 2000"><path d="M749.74,873.35l-75.31-66.22c-47.65-41.9-76.19-94.56-99.4-153.62l-19-69.73a14.59,14.59,0,0,1-1-5.31v-29a14.53,14.53,0,0,1,5.83-11.64,14.53,14.53,0,0,0,5.82-11.63V508.8a14.52,14.52,0,0,0-14.52-14.52H352a14.52,14.52,0,0,0-14.52,14.52v17.36a14.53,14.53,0,0,0,5.82,11.63,14.53,14.53,0,0,1,5.83,11.64v29a14.4,14.4,0,0,1-1,5.31l-19,69.73c-23.21,59.06-51.75,111.72-99.4,153.62l-75.31,66.22a190,190,0,0,0-64.56,142.72v811.46A123.48,123.48,0,0,0,213.4,1951H690.82A123.48,123.48,0,0,0,814.3,1827.53V1016.07A190,190,0,0,0,749.74,873.35Z" style="fill:#c93c27;stroke:#3a3632;stroke-width:20px"/><polygon points="550.27 251.58 452.11 251.58 353.95 251.58 313.94 276.86 313.94 494.28 452.11 494.28 590.28 494.28 590.28 276.86 550.27 251.58" style="fill:#00a14b;stroke:#3a3632;stroke-linecap:round;stroke-linejoin:round;stroke-width:20px"/><polygon points="508.19 76.28 485.36 51.01 452.11 51.01 418.86 51.01 396.03 76.28 373.24 251.58 452.11 251.58 530.98 251.58 508.19 76.28" style="fill:#00a14b;stroke:#3a3632;stroke-linecap:round;stroke-linejoin:round;stroke-width:20px"/><rect x="154.21" y="1081.35" width="595.81" height="498.81" style="fill:#fff"/><path d="M666.54,1136.53c.41-2.48-3.78-2.66-5.86-3.27l-6.93-2-7.21-2.12c-3.1-.92-7.67-3.73-10.95-2.14a5.89,5.89,0,0,0-2.32,2.67A134.26,134.26,0,0,0,620,1164c-2,8.33-3.11,16.85-5.57,25s-6.42,16.21-12.92,21.78l2.14,1.8c5.82,5.55,9.42,7.61,17.46,7.39.68,0,1.91-3.47,2.13-4.15,2.86-8.83,7.34-17.35,11.44-25.7,4.22-8.59,8.6-17.11,12.83-25.71A105.26,105.26,0,0,1,656,1150a79.66,79.66,0,0,1,5.1-6.47c1.67-1.9,3.65-3.54,4.94-5.75A3.65,3.65,0,0,0,666.54,1136.53Z" style="fill:#00a14b"/><path d="M585,1194.59c-13.79-4.43-30.41-3.08-40.7,7.11-5,4.92-8,11.39-11,17.73l-40.68,86.68c-7.51,16-15.06,32.1-19.47,49.21-4.51,17.54-6,36.66-16.69,51.26-10.58,14.43-28.33,21.7-45.69,26s-35.46,6.43-51.8,13.72c-16,7.11-29.39,18.79-44.21,28s-32.48,16.29-49.54,12.49c-22.51-5-42.24-28-64.17-20.9,18.57,18,37.49,36.24,60.42,48.18s50.86,16.92,74.8,7.15c13.11-5.35,24.28-14.74,37.41-20,32.21-13,68.9.8,103.32-3.76,38.67-5.13,72.66-35.84,81.68-73.8,5.09-21.42,3.25-45.45,15.81-63.54,7.78-11.21,20-18.35,31.48-25.7,15.68-10,31-21.37,41.8-36.53s16.66-34.78,11.78-52.75c-4.71-17.35-17.68-26.16-33.77-31.25C611.24,1209.31,599.76,1199.34,585,1194.59Z" style="fill:#c93c27"/></svg>