<svg id="Layer_1" data-name="Layer 1" xmlns="http://www.w3.org/2000/svg" width="2000" height="2000" viewBox="0 0 2000 2000"><path d="M1603,1740.26a149,149,0,0,1-117,165.37c-108.72,23-298.28,49.37-485.94,49.37s-377.23-26.35-485.95-49.37a149,149,0,0,1-117-165.37L545.69,693.34h908.62Z" style="fill:#fff;stroke:#231f20;stroke-linecap:round;stroke-linejoin:round;stroke-width:55"/><path d="M999.17,45C766,45,546.46,142.36,493.92,340.56l26.37,205.07V693.34h957.76V545.63l26.37-205.07C1451.88,142.36,1232.34,45,999.17,45Z" style="fill:#fff;stroke:#231f20;stroke-linecap:round;stroke-linejoin:round;stroke-width:55"/><line x1="493.92" y1="340.56" x2="1504.42" y2="340.56" style="fill:#fff5eb;stroke:#231f20;stroke-linecap:round;stroke-linejoin:round;stroke-width:55"/><circle cx="996" cy="131.45" r="31.2" style="fill:#fff5eb"/><circle cx="792.96" cy="156.4" r="31.2" style="fill:#fff5eb"/><circle cx="1199.03" cy="156.4" r="31.2" style="fill:#fff5eb"/><circle cx="996" cy="131.45" r="31.2" style="fill:#231f20"/><circle cx="792.96" cy="156.4" r="31.2" style="fill:#231f20"/><circle cx="1199.03" cy="156.4" r="31.2" style="fill:#231f20"/><line x1="520.29" y1="545.63" x2="1478.05" y2="545.63" style="fill:none;stroke:#231f20;stroke-linecap:round;stroke-linejoin:round;stroke-width:55"/><path d="M700.69,936a87.46,87.46,0,0,0,50.75-158.68H649.94A87.46,87.46,0,0,0,700.69,936Z"/><path d="M912.55,848.51a87.45,87.45,0,1,0,138.2-71.22H949.25A87.33,87.33,0,0,0,912.55,848.51Z"/><path d="M1211.86,848.51a87.45,87.45,0,1,0,138.2-71.22h-101.5A87.33,87.33,0,0,0,1211.86,848.51Z"/><path d="M638.49,1089a87.45,87.45,0,0,0-52.83-80.32l-23.73,167.1A87.47,87.47,0,0,0,638.49,1089Z"/><circle cx="850.35" cy="1089" r="87.45" transform="translate(-227.45 224.5) rotate(-13.28)"/><circle cx="1149.66" cy="1089" r="87.45"/><path d="M1361.51,1089a87.47,87.47,0,0,0,76.47,86.77l-23.72-167.06A87.47,87.47,0,0,0,1361.51,1089Z"/><circle cx="700.69" cy="1329.49" r="87.45" transform="translate(-734.86 884.86) rotate(-45)"/><circle cx="1000" cy="1329.49" r="87.45" transform="translate(-647.2 1096.51) rotate(-45)"/><circle cx="1299.31" cy="1329.49" r="87.45" transform="translate(-559.53 1308.15) rotate(-45)"/><path d="M638.49,1570a87.49,87.49,0,0,0-121.07-80.76l-21.15,148.94A87.46,87.46,0,0,0,638.49,1570Z"/><circle cx="850.35" cy="1569.98" r="87.45" transform="translate(-861.08 1061.12) rotate(-45)"/><circle cx="1149.66" cy="1569.98" r="87.45"/><path d="M1482.49,1489.19a87.46,87.46,0,1,0,21.16,149Z"/><path d="M485.55,1786.66a86,86,0,0,0-3.87-10.87A65.32,65.32,0,0,0,485.55,1786.66Z"/><path d="M788.14,1810.47a87.45,87.45,0,1,0-170,29c46,7.36,98.74,14.36,155.09,19.89A87,87,0,0,0,788.14,1810.47Z"/><path d="M1064,1870A87.45,87.45,0,1,0,936,1870c21.3.67,42.68,1,64,1S1042.7,1870.69,1064,1870Z"/><path d="M1386.76,1810.47a87.45,87.45,0,1,0-160,48.83c56.36-5.53,109.13-12.53,155.11-19.9A87.42,87.42,0,0,0,1386.76,1810.47Z"/><path d="M1514.41,1786.81a65.12,65.12,0,0,0,4-11.22A85.85,85.85,0,0,0,1514.41,1786.81Z"/></svg>
