<svg id="Layer_1" data-name="Layer 1" xmlns="http://www.w3.org/2000/svg" viewBox="0 0 1038 2000"><path d="M905.17,877.37c68.55,188.36,111,359.93,82,557.45-13.54,91.93-33.32,189.23-58.6,278.13-19.11,67.22-47.78,193.52-110.41,216.32S635.61,1828.39,586,1779.3C497.1,1691.23,388.87,1634.24,310.79,1533c-47.51-61.62-86.27-129.07-124-197-32.86-59.23-49.48-99.73-73.49-165.68-31.66-87-57-194.53-62.33-284.92-6.64-113.53-16.65-223-1.5-335.3a1004.93,1004.93,0,0,1,65.71-245.8c15-36.61,6.46-207.25,71.7-231s233.17,172,283.35,205.44c106.89,71.35,165.6,181,255.09,273.44C810.84,640.49,863.75,763.58,905.17,877.37Z" style="fill:#c88463;stroke:#3a3632;stroke-miterlimit:10;stroke-width:20px"/><path d="M192.63,836c25.66-17.7,54.54-30.24,83.6-41.07C301.71,785.68,328,778,354.84,774c3.9-.58,7.83-1.08,11.84-1.34-3.25,2.37-6.58,4.51-9.93,6.57-23.21,14.17-48.24,25.18-73.68,34.5C253.85,824.07,223.67,833,192.63,836Z" style="fill:#3a3632"/><path d="M709.87,1067.38c36.07-26.25,90.29-46.19,134.14-54.05a172.57,172.57,0,0,1,21.09-2.45,169.81,169.81,0,0,1-17.72,11.68c-38.64,22.16-93,41.74-137.51,44.82Z" style="fill:#3a3632"/><path d="M455.14,1502.87c25.67-17.71,54.55-30.24,83.61-41.07,25.48-9.22,51.72-16.87,78.61-20.94,3.9-.57,7.82-1.07,11.83-1.34-3.24,2.37-6.57,4.51-9.92,6.58-23.22,14.17-48.24,25.17-73.68,34.49-29.23,10.38-59.41,19.34-90.45,22.28Z" style="fill:#3a3632"/><path d="M332.62,449.07c18.27-19.52,50.1-31.72,76.53-33.09a66,66,0,0,1,12.85.56,66.43,66.43,0,0,1-9.49,8.68c-21.12,15.94-53.34,27.06-79.89,23.85Z" style="fill:#3a3632"/><path d="M339.79,1108.57c18.27-19.52,50.1-31.72,76.52-33.08a66.13,66.13,0,0,1,12.86.55,65.85,65.85,0,0,1-9.49,8.68c-21.12,15.94-53.34,27.06-79.89,23.85Z" style="fill:#3a3632"/><path d="M716.69,1643.33c18.27-19.51,50.1-31.71,76.53-33.08a66.86,66.86,0,0,1,12.85.55,65.92,65.92,0,0,1-9.49,8.69c-21.12,15.93-53.34,27-79.89,23.84Z" style="fill:#3a3632"/></svg>