<svg id="Layer_1" data-name="Layer 1" xmlns="http://www.w3.org/2000/svg" width="2000" height="2000" viewBox="0 0 2000 2000"><path d="M1306.72,267.17l27.63,70,71.94-22c286-87.6,531.51,220.25,382.47,479.6L1751.27,860l62.08,42.51c246.8,169,159.18,552.88-136.5,598.05l-74.38,11.37,5.47,75c21.76,298.32-333,469.17-552.68,266.16L1000,1802l-55.26,51.07c-219.67,203-574.44,32.16-552.68-266.16l5.47-75-74.38-11.37c-295.68-45.17-383.3-429-136.5-598L248.73,860l-37.49-65.23c-149-259.35,96.47-567.2,382.47-479.6l71.94,22,27.63-70C803.12-11.06,1196.88-11.06,1306.72,267.17Z" style="fill:#fff;stroke:#231f20;stroke-linecap:round;stroke-linejoin:round;stroke-width:55"/><rect x="850.56" y="611.44" width="298.89" height="298.89" style="fill:none"/><rect x="850.56" y="1209.22" width="298.89" height="298.89" style="fill:none"/><rect x="1149.44" y="910.33" width="298.89" height="298.89" style="fill:none"/><rect x="551.67" y="910.33" width="298.89" height="298.89" style="fill:none"/><path d="M793.36,306.66l-2.33,5.9h59.53V222.63C827.35,243.65,807.34,271.26,793.36,306.66Z" style="fill:#2d9e48"/><path d="M1206.63,306.66c-14-35.39-34-63-57.19-84v89.92H1209Z" style="fill:#2d9e48"/><path d="M494.21,407.49c-77,0-149.93,43.3-190.26,113a219.34,219.34,0,0,0-29.21,90.93H551.67V415A228.86,228.86,0,0,0,494.21,407.49Z" style="fill:#2d9e48"/><rect x="551.67" y="611.44" width="298.89" height="298.89" style="fill:#2d9e48"/><rect x="850.56" y="312.56" width="298.89" height="298.89" style="fill:#2d9e48"/><rect x="1149.44" y="611.44" width="298.89" height="298.89" style="fill:#2d9e48"/><path d="M1696.07,520.51c-40.34-69.72-113.25-113-190.28-113a228.86,228.86,0,0,0-57.46,7.54V611.44h277A219.34,219.34,0,0,0,1696.07,520.51Z" style="fill:#2d9e48"/><path d="M156.37,1224c11.27,49.37,41.95,104,96.41,138.44v-153.2H153.53C154.33,1214.25,155.27,1219.18,156.37,1224Z" style="fill:#2d9e48"/><polygon points="365.56 910.33 252.78 987.58 252.78 1209.22 551.67 1209.22 551.67 910.33 365.56 910.33" style="fill:#2d9e48"/><rect x="551.67" y="1209.22" width="298.89" height="298.89" style="fill:#2d9e48"/><rect x="850.56" y="910.33" width="298.89" height="298.89" style="fill:#2d9e48"/><rect x="1149.44" y="1209.22" width="298.89" height="298.89" style="fill:#2d9e48"/><polygon points="1634.42 910.33 1448.33 910.33 1448.33 1209.22 1747.22 1209.22 1747.22 987.58 1634.42 910.33" style="fill:#2d9e48"/><path d="M499.36,1594.73c-5.58,76.59,24.36,129.33,52.31,161.21V1508.11h-46Z" style="fill:#2d9e48"/><path d="M850.56,1791.52a242.1,242.1,0,0,0,21.14-17.46L1000,1655.47l128.26,118.59a244.29,244.29,0,0,0,21.16,17.47V1508.11H850.56Z" style="fill:#2d9e48"/><path d="M1500.63,1594.73l-6.32-86.62h-46v247.8C1476.28,1724,1506.2,1671.29,1500.63,1594.73Z" style="fill:#2d9e48"/><path d="M616.74,1807c32.83,17.32,69.73,26.9,106.48,26.9h0A210.63,210.63,0,0,0,826.48,1807Z" style="fill:#2d9e48"/><path d="M1173.51,1807a210.63,210.63,0,0,0,103.23,26.9c36.75,0,73.64-9.59,106.47-26.9Z" style="fill:#2d9e48"/><path d="M1747.22,1209.22v153.19c54.46-34.47,85.14-89.07,96.41-138.45q1.65-7.18,2.84-14.74Z" style="fill:#2d9e48"/></svg>
