<svg id="Layer_1" data-name="Layer 1" xmlns="http://www.w3.org/2000/svg" viewBox="0 0 2000 2000"><path d="M1292.6,352l-33.18-56.41c-15.35-26.35-55.33-24.92-81.28-13.56l-7.49,3.45h0c-4.27,1.56-8.31,4.78-11.67,9.82L959.65,594.45c-13.08,19.63-6,52.79,13.07,60.85l268.43,113.76,13.74.59,229.26-67.07Z" style="fill:#8f5423"/><path d="M1241.17,768.53,972.74,654.78c-19-8.07-26.14-41.23-13.06-60.86L1159,294.78c14.07-21.11,40-10.11,44.92,19L1273,726.71C1277.55,753.81,1260.2,776.6,1241.17,768.53Z" style="fill:none;stroke:#3a3632;stroke-miterlimit:10;stroke-width:20px"/><path d="M1254.92,769.12l229.23-66.54-224.71-407.5c-15.35-26.35-62.84-20.95-88.79-9.59" style="fill:none;stroke:#3a3632;stroke-linejoin:round;stroke-width:20px"/><path d="M692.34,382.55l-33.17-56.41c-15.35-26.35-55.33-24.92-81.29-13.56L570.4,316h0c-4.27,1.56-8.31,4.78-11.68,9.82L359.4,625c-13.08,19.63-6,52.79,13.07,60.85L640.89,799.6l13.75.59L883.9,733.12Z" style="fill:#8f5423"/><path d="M640.92,799.07,372.49,685.32c-19-8.07-26.15-41.23-13.07-60.86L558.75,325.32c14.07-21.11,40-10.11,44.91,19l69.1,412.89C677.3,784.35,660,807.14,640.92,799.07Z" style="fill:none;stroke:#3a3632;stroke-miterlimit:10;stroke-width:20px"/><path d="M654.66,799.66,883.9,733.12,659.19,325.62c-15.35-26.35-62.84-20.95-88.8-9.59" style="fill:none;stroke:#3a3632;stroke-linejoin:round;stroke-width:20px"/><path d="M1043.33,592.05l-50.52-80c-23.39-37.35-80.07-35.33-116.23-19.23l-10.43,4.9h0c-6,2.23-11.51,6.78-16,13.93l-264.92,424c-17.39,27.83-5.27,74.83,22.23,86.26l388,161.25,19.55.84L1336.53,1089Z" style="fill:#8f5423"/><path d="M995.51,1182.47l-388-161.24c-27.5-11.44-39.62-58.44-22.23-86.27l264.92-424c18.71-29.93,56.24-14.33,64.93,27l123.1,585.27C1046.28,1161.6,1023,1193.91,995.51,1182.47Z" style="fill:none;stroke:#3a3632;stroke-miterlimit:10;stroke-width:20px"/><path d="M1015.06,1183.31,1336.53,1089,992.81,511.35c-23.39-37.35-90.5-29.7-126.66-13.6" style="fill:none;stroke:#3a3632;stroke-linejoin:round;stroke-width:20px"/><path d="M1683.3,712.87l-47.1-80.09c-21.8-37.41-78.57-35.39-115.42-19.26l-10.63,4.9h0c-6.07,2.23-11.8,6.79-16.58,14l-283,424.76c-18.57,27.87-8.46,75,18.56,86.41l381.14,161.52,19.52.84,325.52-95.23Z" style="fill:#8f5423"/><path d="M1610.28,1304.3l-381.14-161.52c-27-11.45-37.13-58.54-18.56-86.41l283-424.75c20-30,56.85-14.36,63.77,27l98.12,586.28C1661.94,1283.4,1637.3,1315.76,1610.28,1304.3Z" style="fill:none;stroke:#3a3632;stroke-miterlimit:10;stroke-width:20px"/><path d="M1629.8,1305.15l325.49-94.49L1636.23,632c-21.8-37.41-89.23-29.74-126.08-13.62" style="fill:none;stroke:#3a3632;stroke-linejoin:round;stroke-width:20px"/><path d="M487.62,950.71l-57.26-75.28c-26.54-35.18-82.84-28.26-117.47-9.09l-10,5.78h0c-5.75,2.73-10.88,7.74-14.71,15.25L61,1332.76c-14.91,29.23,1.24,75,29.63,84l400.54,127,19.55-.86,312-122.56Z" style="fill:#8f5423"/><path d="M491.12,1543.06,90.59,1416c-28.4-9-44.54-54.78-29.63-84L288.15,886.63c16-31.44,54.79-19.15,67,21.26L528.52,1480.3C539.89,1517.86,519.52,1552.06,491.12,1543.06Z" style="fill:none;stroke:#3a3632;stroke-miterlimit:10;stroke-width:20px"/><path d="M510.67,1542.2l312.09-121.82L430.29,874.68c-26.53-35.18-92.73-21.74-127.36-2.56" style="fill:none;stroke:#3a3632;stroke-linejoin:round;stroke-width:20px"/><path d="M1229.18,1064.28l-63.26-82.95c-29.31-38.77-92.31-28.9-131.22-6l-11.19,6.9h0c-6.46,3.3-12.24,9.15-16.6,17.77l-258.43,511.4c-17,33.56.62,84.68,32.28,93.82l446.48,128.87,21.87-1.68,350-149.84Z" style="fill:#8f5423"/><path d="M1227.18,1733.26,780.69,1604.39c-31.65-9.13-49.24-60.26-32.28-93.82l258.43-511.39c18.25-36.11,61.44-23.64,74.71,21.56L1269.61,1661C1282,1703,1258.83,1742.4,1227.18,1733.26Z" style="fill:none;stroke:#3a3632;stroke-miterlimit:10;stroke-width:20px"/><path d="M1249,1731.58l350.1-149L1165.86,980.49c-29.31-38.77-103.45-21.17-142.35,1.75" style="fill:none;stroke:#3a3632;stroke-linejoin:round;stroke-width:20px"/></svg>