<?xml version="1.0" encoding="UTF-8" standalone="no"?>
<svg
   xmlns:dc="http://purl.org/dc/elements/1.1/"
   xmlns:cc="http://creativecommons.org/ns#"
   xmlns:rdf="http://www.w3.org/1999/02/22-rdf-syntax-ns#"
   xmlns:svg="http://www.w3.org/2000/svg"
   xmlns="http://www.w3.org/2000/svg"
   xmlns:xlink="http://www.w3.org/1999/xlink"
   xmlns:sodipodi="http://sodipodi.sourceforge.net/DTD/sodipodi-0.dtd"
   xmlns:inkscape="http://www.inkscape.org/namespaces/inkscape"
   inkscape:version="1.0beta1 (32d4812, 2019-09-19)"
   sodipodi:docname="tomato_paste.svg"
   id="svg903"
   version="1.1"
   width="927.95593"
   height="1514.693">
  <metadata
     id="metadata907">
    <rdf:RDF>
      <cc:Work
         rdf:about="">
        <dc:format>image/svg+xml</dc:format>
        <dc:type
           rdf:resource="http://purl.org/dc/dcmitype/StillImage" />
        <dc:title></dc:title>
      </cc:Work>
    </rdf:RDF>
  </metadata>
  <sodipodi:namedview
     inkscape:current-layer="svg903"
     inkscape:window-maximized="0"
     inkscape:window-y="25"
     inkscape:window-x="0"
     inkscape:cy="920.89913"
     inkscape:cx="-595.345"
     inkscape:zoom="0.35"
     showguides="false"
     fit-margin-bottom="10"
     fit-margin-right="10"
     fit-margin-left="10"
     lock-margins="true"
     fit-margin-top="10"
     showgrid="false"
     id="namedview905"
     inkscape:window-height="907"
     inkscape:window-width="1600"
     inkscape:pageshadow="2"
     inkscape:pageopacity="0"
     guidetolerance="10"
     gridtolerance="10"
     objecttolerance="10"
     borderopacity="1"
     inkscape:document-rotation="0"
     bordercolor="#666666"
     pagecolor="#ffffff" />
  <style
     id="style833"><![CDATA[.B{fill:#fff}.C{stroke-width:15.531}.D{stroke-width:24}.E{stroke-linejoin:round}.F{stroke:#010101}.G{fill:#ca3d27}.H{stroke-linecap:round}]]></style>
  <use
     transform="translate(-1009.925,-406.62698)"
     height="100%"
     width="100%"
     y="0"
     x="0"
     id="use835"
     fill="#9ca0aa"
     xlink:href="#B" />
  <use
     transform="translate(-1009.925,-406.62698)"
     height="100%"
     width="100%"
     y="0"
     x="0"
     id="use837"
     fill="#939598"
     xlink:href="#B" />
  <path
     inkscape:connector-curvature="0"
     id="path839"
     class="B"
     d="M 22,1201.773 V 552.65302 c 0,48.74 192.45,102.85 429.84,102.85 237.39,0 428.83,-54 428.83,-102.85 V 1201.783 c 0,48.86 -191.44,124.87 -428.83,124.87 -237.39,0 -429.84,-76.13 -429.84,-124.87 z" />
  <use
     transform="translate(-1009.925,-406.62698)"
     height="100%"
     width="100%"
     y="0"
     x="0"
     id="use841"
     class="D E F"
     fill="none"
     xlink:href="#B" />
  <use
     transform="translate(-1009.925,-406.62698)"
     height="100%"
     width="100%"
     y="0"
     x="0"
     id="use843"
     fill="#939598"
     xlink:href="#C" />
  <g
     transform="translate(-1009.925,-406.62698)"
     id="g853"
     class="E">
    <path
       inkscape:connector-curvature="0"
       id="path845"
       class="C G"
       stroke="#040607"
       d="m 1050.635,819.36 c 53.75,39.73 217.46,75.74 411.13,75.74 193.67,0 356.62,-35.9 410.17,-75.66 -53.7,-41.9 -217.5,-83.58 -411.24,-83.58 -193.54,0 -356.46,41.7 -410.06,83.5 z" />
    <g
       id="g851"
       class="D F">
      <use
         height="100%"
         width="100%"
         y="0"
         x="0"
         id="use847"
         fill="none"
         xlink:href="#C" />
      <path
         inkscape:connector-curvature="0"
         id="path849"
         fill="#6d6e71"
         d="m 1915.545,722.85 c 9,-24.4 -154,-115.3 -368.54,-194.6 -214.54,-79.3 -398.43,-116.57 -407.42,-92.24 -8.99,24.33 152.37,119.58 366.9,198.9 214.53,79.32 400.04,112.36 409.06,87.96 z" />
    </g>
  </g>
  <path
     inkscape:connector-curvature="0"
     id="path855"
     class="C F G"
     d="m 619.29,1022.643 c 18.78,-37.99998 17.34,-66.29998 17.34,-78.36998 0,-143.06 -75.94,-219 -203.4,-206.8 -39.13,4 -46,19.77 -63,29.85 -11.85,-8.52 -52.2,-26.3 -77.33,-29.85 -134.93,-11.53 -210.2,65.1 -210.2,206.8 0,126.79998 103.74,229.84998 277.3,229.84998 40.68,0 75.57,-1.7 109.84,-15.6 69.03,-28.02 115.65,-67.6 149.43,-135.9 z" />
  <path
     inkscape:connector-curvature="0"
     id="path859"
     fill="#0da54a"
     d="m 367.43,753.47302 c 0,0 -37.2,-38 -43.53,-60.15 -0.8,7.92 0.8,36.4 15,57 0,0 -64.9,3.17 -73.6,12.66 0,0 60.94,9.5 76,1.6 0,0 -7.12,53 3.17,70.43 0,0 29.28,-45.9 26.12,-58.56 0,0 70.43,19.78 89.42,14.24 -5.54,-9.5 -56.2,-30.86 -74.4,-30.07 20.4,-9 34,-35.6 34,-35.6 l -52.2,28.47 z" />
  <g
     transform="translate(-1009.925,-406.62698)"
     id="g865"
     class="B C E">
    <path
       inkscape:connector-curvature="0"
       id="path861"
       stroke="#050507"
       d="m 1839.815,1440.95 c -1.13,112.38 -89.53,189.83 -190,189.83 -100.47,0 -195,-81.76 -195.72,-192.65 -2.22,-71 89.12,-100.55 189.58,-100.55 100.46,0 194.2,43.23 196.14,103.37 z" />
    <path
       inkscape:connector-curvature="0"
       id="path863"
       stroke="#040607"
       d="m 1840.025,1442 c 0.6,55.53 -92.83,101.32 -193.3,101.32 -100.47,0 -192.7,-45.8 -193.3,-101.32 -0.77,-74 91.3,-105.92 191.76,-105.92 100.46,0 194.06,35.04 194.83,105.92 z" />
  </g>
  <path
     inkscape:connector-curvature="0"
     id="path867"
     class="C E G"
     stroke="#050605"
     d="m 772.78,1068.323 c 29.17,28.4 -35.5,68.56 -136,68.56 -100.5,0 -167.44,-40.93 -146.72,-71.63 17.66,-20.72 47.68,-36.2 75.86,-36.57 82.48,-1.12 20.77,-55.25998 41.82,-54.61998 25.12,0.77 29.6,34.71998 54.43,42.65998 41.34,8.5 71.23,18.24 110.6,51.6 z" />
  <g
     transform="translate(-1009.925,-406.62698)"
     id="g873"
     class="F H C"
     fill="none">
    <path
       inkscape:connector-curvature="0"
       id="path869"
       class="E"
       d="m 1559.425,1613.63 c 16.88,38.37 154.27,39.14 171.16,0.76" />
    <path
       inkscape:connector-curvature="0"
       id="path871"
       d="m 1571.175,1475.05 c 39.05,38.7 85.37,20.82 85.37,20.82" />
  </g>
  <defs
     id="defs901">
    <path
       inkscape:connector-curvature="0"
       d="m 1031.925,1774.45 v -982.2 c 307.28,119.32 565.74,114 858.67,0 v 982.2 c 0,48.86 -191.44,124.87 -428.83,124.87 -237.39,0 -429.84,-76.13 -429.84,-124.87 z"
       id="B" />
    <path
       inkscape:connector-curvature="0"
       d="m 1890.595,792.26 c 0,48.85 -191.44,102.84 -428.83,102.84 -237.39,0 -429.84,-54.15 -429.84,-102.84 0,-48.69 191.38,-111.45 428.77,-111.45 237.39,0 429.9,62.6 429.9,111.45 z"
       id="C" />
  </defs>
</svg>
