<svg id="Layer_1" data-name="Layer 1" xmlns="http://www.w3.org/2000/svg" viewBox="0 0 2000 1390"><path id="path900" d="M24.21,1084.14V275.35c698.38,271.2,1285.8,259,1951.58,0v808.79h0c0,111-435.12,283.8-974.66,283.8s-976.92-173-976.92-283.8Z" style="fill:#929497;stroke:#3a3632;stroke-linecap:round;stroke-linejoin:round;stroke-width:20px"/><path id="path900-2" data-name="path900" d="M1975.79,275.35c0,111-435.12,233.75-974.66,233.75S24.21,386.12,24.21,275.35s435-253.29,974.5-253.29S1975.79,164.31,1975.79,275.35Z" style="fill:#d0d2d3;stroke:#3a3632;stroke-linecap:round;stroke-linejoin:round;stroke-width:20px"/><path id="path900-3" data-name="path900" d="M1975.79,334.35c0,111-435.12,233.75-974.66,233.75S24.21,445.12,24.21,334.35" style="fill:none;stroke:#3a3632;stroke-linecap:round;stroke-linejoin:round;stroke-width:20px"/><path id="path900-4" data-name="path900" d="M24.21,391.35c0,110.77,437.39,233.75,976.92,233.75s974.66-122.7,974.66-233.75v629.79c0,111-435.12,283.8-974.66,283.8s-976.92-173-976.92-283.8Z" style="fill:#47bac9;stroke:#3a3632;stroke-linecap:round;stroke-linejoin:round;stroke-width:20px"/><path id="path900-5" data-name="path900" d="M42.36,291.68C166.33,179.5,546.7,67.4,998.67,67.4c453,0,835.92,112.41,959.6,225" style="fill:none;stroke:#3a3632;stroke-linecap:round;stroke-linejoin:round;stroke-width:20px"/><path d="M1508.15,975c-125.5-25.17-242.28-81.12-361.24-128.37S901.65,759.94,774.08,770.5C643.16,781.34,518,847.73,434.44,948.9c99.93,16.21,147.14,41.66,147.14,41.66s-51.73,11.4-128.85,21.15c146.15,91,329.61,120.54,500.42,95.84C1141.32,1080.35,1318.21,983.27,1508.15,975Z" style="fill:#fff"/><path d="M785,781.74s31-85.23,96.31-117.42c23,67.4,164,145.34,164,145.34Z" style="fill:#fff"/><path d="M1061.66,824.44s93.32-82.93,170-81.55c-100.23,92.47-51.87,123.3-51.87,123.3Z" style="fill:#fff"/><path d="M1112,1059.94s82.08,87.43,154.24,91.1c-87.92-97.23-40.34-124.28-40.34-124.28Z" style="fill:#fff"/><path d="M727.52,1094.93s-1.66,31.38,11.61,59.61c20.36,43.31,56.45,66.91,98.63,92.91-26.32-72.81,24.25-103.27,14.81-150.37C820.18,1115.51,727.52,1094.93,727.52,1094.93Z" style="fill:#fff"/><path d="M1452,970.47c12.47,59.45,62.59,151.72,104.43,180.57-17.15-31.1-35.12-114.41-34.52-174.25S1556.74,825.71,1596,779.6C1518.71,835.39,1480.86,899.36,1452,970.47Z" style="fill:#fff"/></svg>