<svg id="Layer_1" data-name="Layer 1" xmlns="http://www.w3.org/2000/svg" xmlns:xlink="http://www.w3.org/1999/xlink" viewBox="0 0 1784 2000"><defs><linearGradient id="linear-gradient" x1="892" y1="1982.07" x2="892" y2="196.86" gradientUnits="userSpaceOnUse"><stop offset="0.51" stop-color="#fffce4"/><stop offset="0.65" stop-color="#d3b8c3"/><stop offset="0.9" stop-color="#803785"/><stop offset="1" stop-color="#3a3421"/></linearGradient></defs><path d="M951,33.15,750.5,36.24c-6.34,83.24,41.25,169.56,41.25,169.56h200.5S939.07,122.72,951,33.15Z" style="fill:#6dbe45;stroke:#3a3632;stroke-miterlimit:10;stroke-width:20px"/><path d="M876.26,24.9l147.2,8.25C1043.32,119,993.17,205.8,993.17,205.8H846S885,114.47,876.26,24.9Z" style="fill:#6dbe45;stroke:#3a3632;stroke-miterlimit:10;stroke-width:20px"/><path id="path863" d="M930.78,1974.66c10.16-99.81,37.93-256.32,74.11-303.44s123.53-81.85,182.49-102.1c273.57-93.93,561.83-348.49,561.83-729,0-376.55-345.77-636.55-857.21-643.61C380.56,203.52,34.79,405.94,34.79,840.07c0,380.56,273.16,585.82,477.17,681.67,84.34,39.63,217.51,88.33,275,157s65.63,225.52,75.43,296.31Z" style="stroke:#3a3632;stroke-miterlimit:10;stroke-width:20px;fill:url(#linear-gradient)"/><path d="M182.44,611.85c66.24-8,133.09-9.72,199.73-10,66.64.24,133.49,2,199.73,10-66.24,8-133.09,9.76-199.73,10-66.64-.28-133.49-2-199.73-10Z" style="fill:#3a3632"/><path d="M1036.78,1288.35c58.35-7.95,117.38-9.72,176.19-10,58.8.24,117.83,2,176.18,10-58.35,8-117.38,9.76-176.18,10-58.81-.28-117.84-2-176.19-10Z" style="fill:#3a3632"/><path d="M914.71,846.6c73.48-8,147.51-9.72,221.34-10,73.84.24,147.87,2,221.35,10-73.48,8-147.51,9.75-221.35,10-73.83-.29-147.86-2-221.34-10Z" style="fill:#3a3632"/><path d="M307.7,1064.27c75.47-8,151.46-9.71,227.28-10,75.81.24,151.81,2,227.27,10-75.46,8-151.46,9.76-227.27,10-75.82-.28-151.81-2-227.28-10Z" style="fill:#3a3632"/><path d="M1028.11,398.44c21.74-4.18,43.81-6.24,65.83-7.83,60.35-3.72,121.07-3.14,181,5.05,5.48.79,11,1.67,16.46,2.78-5.49,1.12-11,2-16.46,2.79-60,8.19-120.7,8.76-181,5-22-1.59-44.09-3.65-65.83-7.84Z" style="fill:#3a3632"/></svg>