<svg id="Layer_1" data-name="Layer 1" xmlns="http://www.w3.org/2000/svg" viewBox="0 0 1155.56 2000"><path d="M727.41,412.8v-142H429.85v142L295.78,486.56A279.38,279.38,0,0,0,151.05,731.35V1840.46A109.54,109.54,0,0,0,260.59,1950H896.67a109.54,109.54,0,0,0,109.54-109.54V731.7A279.39,279.39,0,0,0,862,487.17Z" style="fill:#72451d;stroke:#3a3632;stroke-linecap:round;stroke-linejoin:round;stroke-width:20px"/><path d="M854,501.56A263,263,0,0,1,989.76,731.69V1840.46a93.2,93.2,0,0,1-93.09,93.09H260.59a93.07,93.07,0,0,1-93.09-93.09V731.35A263,263,0,0,1,303.7,501Z" style="fill:#21160d"/><rect x="386.18" y="50" width="384.9" height="220.47" style="fill:#3b2314;stroke:#3a3632;stroke-linecap:round;stroke-linejoin:round;stroke-width:20px"/><line x1="386.18" y1="184.8" x2="771.08" y2="135.46" style="fill:none;stroke:#3a3632;stroke-linecap:round;stroke-linejoin:round;stroke-width:20px"/><line x1="386.18" y1="234.71" x2="771.08" y2="185.37" style="fill:none;stroke:#3a3632;stroke-linecap:round;stroke-linejoin:round;stroke-width:20px"/><line x1="386.18" y1="134.9" x2="771.08" y2="85.56" style="fill:none;stroke:#3a3632;stroke-linecap:round;stroke-linejoin:round;stroke-width:20px"/><rect x="235.95" y="982.95" width="685.37" height="573.8" style="fill:#fff"/><path d="M722.11,1217.18c-29.18-11-56.38-12.93-84-3.53.63-21.71-4.57-51-28.43-79.5-7.85-9.37-24.5-32.16-31.1-41.16-8.07,10-22.52,32.2-30.1,41.72-19.39,24.34-29.65,49.58-29.26,78.7-20.45-7.29-49.85-11.35-84.27,2.5-11.34,4.56-38.16,13.35-48.76,16.85,7.06,10.77,23.66,31.37,30.37,41.53,17.15,26,38,43.53,65.8,52.16-13.26,17.19-26.22,43.9-23.7,80.93.83,12.2.9,40.42,1,51.58,12.43-3.38,37.15-12.79,48.88-16,30-8.29,53.14-22.66,70-46.46,12.24,17.93,33.64,38.52,69.64,47.57,11.85,3,38.71,11.65,49.34,15,.62-12.87-.68-39.28-.14-51.45,1.4-31.09-5.11-57.54-22.54-80.89,20.84-6.1,47-20.08,66.77-51.51,6.5-10.35,23-33.22,29.57-42.27C759,1228.39,733.51,1221.47,722.11,1217.18Zm-143.52,78.13h0v0Z" style="fill:#fffce8;stroke:#3a3632;stroke-miterlimit:10;stroke-width:10px"/><path d="M586.37,1250.79l4.86-2.56a16.63,16.63,0,0,1,24.13,17.53l-.93,5.42a16.59,16.59,0,0,0,4.78,14.71l3.94,3.84a16.63,16.63,0,0,1-9.22,28.36l-5.44.79A16.66,16.66,0,0,0,596,1328l-2.43,4.93a16.63,16.63,0,0,1-29.82,0l-2.43-4.93a16.66,16.66,0,0,0-12.52-9.1l-5.44-.79a16.63,16.63,0,0,1-9.22-28.36l3.94-3.84a16.59,16.59,0,0,0,4.78-14.71l-.93-5.42A16.63,16.63,0,0,1,566,1248.23l4.86,2.56A16.62,16.62,0,0,0,586.37,1250.79Z" style="fill:#fffce8;stroke:#3a3632;stroke-miterlimit:10;stroke-width:10px"/></svg>