<svg id="Layer_1" data-name="Layer 1" xmlns="http://www.w3.org/2000/svg" viewBox="0 0 1144.63 2000"><path d="M980.22,617.37,715.54,383.08v-57.5H429.09v57.5L164.41,617.37a116,116,0,0,0-19.55,64.47V1834a116,116,0,0,0,116,116H883.73a116,116,0,0,0,116-116V681.84A116,116,0,0,0,980.22,617.37Z" style="fill:#fff;stroke:#3a3632;stroke-linecap:round;stroke-linejoin:round;stroke-width:20px"/><path d="M798.32,477.5h-452L176.5,627.81a99.87,99.87,0,0,0-15.81,54V1834A100.32,100.32,0,0,0,260.9,1934.17H883.73A100.32,100.32,0,0,0,983.94,1834V681.83a99.87,99.87,0,0,0-15.81-54Z" style="fill:#f7d672;isolation:isolate;opacity:0.990000009536743"/><rect x="387.05" y="50" width="370.53" height="275.58" style="fill:#f6d11e;stroke:#3a3632;stroke-linecap:round;stroke-linejoin:round;stroke-width:20px"/><line x1="448.8" y1="95.75" x2="448.8" y2="280.71" style="fill:none;stroke:#3a3632;stroke-linecap:round;stroke-linejoin:round;stroke-width:20px"/><line x1="510.56" y1="95.75" x2="510.56" y2="280.71" style="fill:none;stroke:#3a3632;stroke-linecap:round;stroke-linejoin:round;stroke-width:20px"/><line x1="572.31" y1="95.75" x2="572.31" y2="280.71" style="fill:none;stroke:#3a3632;stroke-linecap:round;stroke-linejoin:round;stroke-width:20px"/><line x1="634.07" y1="95.75" x2="634.07" y2="280.71" style="fill:none;stroke:#3a3632;stroke-linecap:round;stroke-linejoin:round;stroke-width:20px"/><line x1="695.83" y1="95.75" x2="695.83" y2="280.71" style="fill:none;stroke:#3a3632;stroke-linecap:round;stroke-linejoin:round;stroke-width:20px"/><line x1="292.59" y1="1032.73" x2="852.04" y2="1032.73" style="fill:none;stroke:#3a3632;stroke-linecap:round;stroke-linejoin:round;stroke-width:10px"/><line x1="292.59" y1="1186.63" x2="852.04" y2="1186.63" style="fill:none;stroke:#3a3632;stroke-linecap:round;stroke-linejoin:round;stroke-width:10px"/><line x1="292.59" y1="1340.53" x2="852.04" y2="1340.53" style="fill:none;stroke:#3a3632;stroke-linecap:round;stroke-linejoin:round;stroke-width:10px"/><line x1="292.59" y1="1494.43" x2="852.04" y2="1494.43" style="fill:none;stroke:#3a3632;stroke-linecap:round;stroke-linejoin:round;stroke-width:10px"/><line x1="292.59" y1="1648.32" x2="852.04" y2="1648.32" style="fill:none;stroke:#3a3632;stroke-linecap:round;stroke-linejoin:round;stroke-width:10px"/><line x1="292.59" y1="1802.22" x2="852.04" y2="1802.22" style="fill:none;stroke:#3a3632;stroke-linecap:round;stroke-linejoin:round;stroke-width:10px"/><line x1="292.59" y1="878.83" x2="852.04" y2="878.83" style="fill:none;stroke:#3a3632;stroke-linecap:round;stroke-linejoin:round;stroke-width:10px"/><line x1="292.59" y1="724.94" x2="852.04" y2="724.94" style="fill:none;stroke:#3a3632;stroke-linecap:round;stroke-linejoin:round;stroke-width:10px"/><rect x="226.59" y="1129.87" width="691.46" height="568.22" style="fill:#fff"/><path d="M664.73,1530.26c77.08-77.08,65.32-205.78,95.79-267.51-41,2.5-213.69-4.54-290.77,72.54S447.83,1503,470.84,1526,587.65,1607.34,664.73,1530.26Z" style="fill:#87c440"/><path d="M761.27,1263.85c-31.68,22.68-62.94,45.91-93.48,70s-60.38,49-89.2,75c-57.64,52-111.29,108.22-158.15,169.46h0a11.88,11.88,0,0,1-18.87-14.43c.1-.13.23-.3.34-.42,50.69-60.4,107.64-114.9,168.07-164.62,30.22-24.87,61.33-48.57,93-71.34s64.06-44.62,96.76-65.87a1.32,1.32,0,0,1,1.83.39A1.34,1.34,0,0,1,761.27,1263.85Z" style="fill:#548f40"/><path d="M526.16,1436.5A223.18,223.18,0,0,1,658.22,1414a.89.89,0,0,1-.15,1.77,214.39,214.39,0,0,0-124,34.39,7.93,7.93,0,0,1-8.69-13.27,7.38,7.38,0,0,1,.72-.41Z" style="fill:#548f40"/><path d="M468,1494.71a385.81,385.81,0,0,1,140.79-10.21.89.89,0,0,1-.11,1.77,377,377,0,0,0-135.92,23.54,7.93,7.93,0,0,1-5.53-14.86q.38-.14.75-.24Z" style="fill:#548f40"/><path d="M484.11,1473c6.41-10.19,10.89-21.9,14.47-34.11s6.35-25,9.65-37.7,7.35-25.51,13.27-37.46a103.47,103.47,0,0,1,10.45-17,76.4,76.4,0,0,1,13.92-14.14A.89.89,0,0,1,547,1334c-9.48,8.79-16.09,20-20.68,31.92s-7.4,24.46-9.5,37.15-3.7,25.71-6.29,38.8-6.25,26.36-12.63,38.93l0,.06a7.92,7.92,0,1,1-14.13-7.17A6.54,6.54,0,0,1,484.11,1473Z" style="fill:#548f40"/><path d="M553.63,1414.91A229.3,229.3,0,0,1,626,1299.6a.89.89,0,0,1,1.22,1.28,220.49,220.49,0,0,0-58.1,117.31,7.93,7.93,0,0,1-15.67-2.44,7.1,7.1,0,0,1,.17-.8Z" style="fill:#548f40"/></svg>