<svg id="Layer_1" data-name="Layer 1" xmlns="http://www.w3.org/2000/svg" xmlns:xlink="http://www.w3.org/1999/xlink" viewBox="0 0 1410.09 2000"><defs><clipPath id="clip-path"><path id="path900" d="M37,1491.54V479.36c0,76,300.07,160.37,670.23,160.37s668.68-84.18,668.68-160.37V1491.54c0,76.19-298.52,194.71-668.68,194.71S37,1567.53,37,1491.54Z" style="fill:none"/></clipPath><linearGradient id="linear-gradient" x1="-2113.83" y1="-1484.38" x2="-2117.56" y2="-2260.91" gradientTransform="matrix(0.83, -0.82, -0.82, -0.83, 928.18, -1886.62)" gradientUnits="userSpaceOnUse"><stop offset="0" stop-color="#63bb46"/><stop offset="1" stop-color="#fff"/></linearGradient></defs><path id="path900-2" data-name="path900" d="M37,1760.45V228.93c479.13,186.06,882.14,177.72,1338.91,0V1760.45h0c0,76.18-298.52,194.7-668.68,194.7S37,1836.44,37,1760.45Z" style="fill:#929497;stroke:#3a3632;stroke-linecap:round;stroke-linejoin:round;stroke-width:20px"/><path id="path900-3" data-name="path900" d="M37,1501.54V489.36c0,76,300.07,160.37,670.23,160.37s668.68-84.18,668.68-160.37V1501.54c0,76.19-298.52,194.71-668.68,194.71S37,1577.53,37,1501.54Z" style="fill:#fff;stroke:#3a3632;stroke-linecap:round;stroke-linejoin:round;stroke-width:20px"/><path id="path900-4" data-name="path900" d="M1375.86,228.93c0,76.18-298.52,160.36-668.68,160.36S37,304.92,37,228.93,335.36,55.15,705.52,55.15,1375.86,152.74,1375.86,228.93Z" style="fill:#d0d2d3;stroke:#3a3632;stroke-linecap:round;stroke-linejoin:round;stroke-width:20px"/><g style="clip-path:url(#clip-path)"><path id="path915" d="M1121.7,844a18,18,0,0,0-8.54-22.71c-3.2-1.68-115.06,6.54-192.35,32.46-2.82-30.82,46-112.35,47.85-135.79,1.82-22.68-18.45-35.7-46.65-40.88-27-4.88-55.39-2.41-66,14.76s.31,137.42,0,162.72c-80-24.54-179.39-34.8-182.44-33.12a18.14,18.14,0,0,0-8.08,23.32c18.36,31.2,69,54.39,69,54.39,134.13,24.38,175.33,31,302,10.09C1036.49,909.21,1090.5,877,1121.7,844Z" style="fill:#1f8441;stroke:#3a3632;stroke-width:10px"/><path id="path881" d="M717.91,895.12C685.52,896.6,669.72,912,656.43,922c-87.82,66-87.81,159.76-80.19,234.3,16.1,129.57,79.54,318.73,178.51,323.32,13.64-.38,27.72-1.52,39.33-4,24.84,22.56,55.79,34,92.07,34.3a11.08,11.08,0,0,0,2.29-.16h2.89c36.28-.3,67.38-11.89,92.38-34.6a186.79,186.79,0,0,0,39.94,4.27c126.6-20.66,167.13-211.48,179.11-323.32,7.78-74.55,10.19-163.35-74.52-235.07-11.19-9.47-29.51-22.37-57.81-22.28-24.93.07-87.44,10.09-87.44,10.09H795.26s-45-15.24-77.35-13.76Z" style="fill:#d12027;stroke:#3a3632;stroke-width:10px"/><path id="rect908" d="M713.92,1201.2c-5.15-33.22-10.95-63.06-11.27-98.84s2.25-70.35,8.69-98.83c8.88-39.25,38.47-90,78.57-105.6,58-22.54,154.57-19,195.79,0,38.93,17.93,76.81,74.32,83.72,155.43m-6,121.87c-8.53,145.9-32.74,335.81-173.89,337.44-77.53.9-149.94-85-161.8-202.4" style="fill:#d12027;stroke:#3a3632;stroke-linecap:round;stroke-linejoin:round;stroke-width:10px"/><path d="M858.55,1179.79c0,100.87,2.4,182-19.59,182s-39.81-125.52-39.81-226.39S797.21,974.23,839,974.23,858.55,1078.92,858.55,1179.79Z" style="fill:#fff"/><path d="M635.85,1127.55c0,79.81,5.5,125.84-6.7,125.84s-25.66-73-25.66-152.77,20.09-126.39,43.25-126.39S635.85,1047.73,635.85,1127.55Z" style="fill:#fff"/><path id="path1094" d="M300.81,919.57a56.21,56.21,0,0,0-34-10.05A50.45,50.45,0,0,0,226,932.7l-1.93,3-3.18-1.15c-17.33-5.35-76.91-18.16-112,38.11-13.78,22.06-17.48,43.42-10.8,63.76l7.18,15.4c-12.77,3-29.55,24.09-35.34,36.13-9.73,24.11-9.67,45.79.44,64.66a67.53,67.53,0,0,0,6.87,10.29s9.69,13.3,21.35,19.32A135,135,0,0,0,126,1195.76l3.48,1.25-.39,3.67c-2.42,21.91,5.53,38.57,22.32,46.86s40.45,6.65,61.36-4.63l5.23-2.82,1.52,5.75a41.93,41.93,0,0,0,2.61,7.37c6.41,12.68,19.47,21,37.75,24.12,27.65,4.66,54.46-5.51,80.37-15.32,21.45-8.12,41.66-15.77,61.24-15.13,43.15,1.43,107.09,74.94,107.09,74.94,52.5,55.48,417.94,466.54,493.6,483.16,42.77,6.68,116.49-63.63,113.95-116.94-8.86-57.46-444.6-444.64-498.48-498.15-32.84-33.15-62.2-71.22-63.47-114.38-.57-19.57,7.17-39.76,15.37-61.17,9.9-25.88,20.17-52.65,15.61-80.32-3-18.29-11.32-31.38-24-37.84a42.46,42.46,0,0,0-7.36-2.64L548.07,892l2.83-5.22c11.35-20.86,13.1-44.51,4.86-61.34S530.9,800.61,509,802.94l-3.67.39-1.24-3.49a133.68,133.68,0,0,0-13.43-27.47c-5.83-8.28-16.29-21.33-29.5-28.34-18.84-10.17-40.51-10.32-64.67-.67-61.59,24.56-59.55,85.47-57.36,103.47l.57,3.34-3.3,1.37a50.43,50.43,0,0,0-30.05,36.06,56.15,56.15,0,0,0,3.86,35.26c5.21,9.8,6.16,11.78,9.41,16.66Z" style="fill:url(#linear-gradient)"/><path id="path984" d="M319.6,939.52c-9.87-14.92-18.38-33.85-13.27-51.92,5.37-19,18-31.08,33.35-37.43-5.1-58.67,23.1-98.65,56.79-106.81,58.61-14.2,93.87,14.43,108.84,60,21.61-1.55,42.25,7,50.45,22.11,12.81,23.54,3,46.92-7.69,66.56,19.06,4.71,34.29,24.44,37.07,42,8.2,51.8-31.61,94.76-31,141.49,1.27,43.16,56,105.53,63.47,114.38,89.88,106.36,489.62,440.69,498.48,498.15,2.54,53.31-71.18,123.62-113.95,116.94-197.48-99.18-508-563.33-600.69-558.1-49.54,2.79-97.67,41.2-141.61,30.45-25-6.13-36.24-15.92-41.88-37.24-20.45,10.46-49.65,17.8-66.59,7.45-20.74-12.67-23.92-32.1-21.93-50.53-25.75-12.33-48-21.39-59.12-44.4-23.19-48.12.38-91.06,34.9-100.79M1037,1666.07C946,1579,531.73,1166.35,530.8,1165.42c-39-40.65-66.22-76.59-83-129.2-16.32-51.24-54-100.41-90-107.45-15.94-3.12-25.3,4.46-37.55,15-10.62-20.32-31.44-36.63-53.46-34.24-19.65,2.12-33.78,12.22-42.75,26.18-59-9-93.06-7.28-115.19,37-27.78,55.53-.17,94.91,39.71,117.75-5.35,21-6.36,42.31,12.83,53.57,23.09,13.56,45.61,11.27,66.86,4.23,1.26,19.6,18,38.08,34.78,43.93,49.52,17.26,98.94-14.64,144.74-5.39,42.32,8.55,78.47,44.8,110.32,76.23,51.68,51,414.87,415.43,458.8,459.62" style="fill:none;stroke:#3a3632;stroke-width:10px"/><path id="path1059" d="M300.43,1098.14l46.67-33.53L335,1023.33m-102.8,28.82L267,1029.41c-3.29-8.42-8.19-28.15-15-42.25M191.74,1016s85.12,0,178.1,62.86" style="fill:none;stroke:#3a3632;stroke-linecap:round;stroke-width:10px"/><path id="path1062" d="M500.23,958.47l-50,43.24L427.16,989M467,869.83l-34.72,32.82c-8.54-5.93-29.3-16.68-43.26-28m48.33-59.68s-22.76,95.21,22.69,216" style="fill:none;stroke:#3a3632;stroke-linecap:round;stroke-width:10px"/><g id="layer1"><path id="path60" d="M1326,1446.22c23.72-48,21.9-83.75,21.9-99,0-180.73-95.93-276.66-257-261.24-49.43,5.1-58.06,25-79.6,37.71-15-10.76-66-33.22-97.7-37.71-170.44-14.56-265.52,82.22-265.52,261.24,0,160.16,131.05,290.35,350.32,290.35,51.39,0,95.46-2.14,138.75-19.7,87.28-35.39,146.13-85.38,188.8-171.66Z" style="fill:#c93c27;stroke:#3a3632;stroke-width:10px"/><path id="path924" d="M827.89,1168.16c-9-10.33-60.66,41.64-97,111-21,34,58,91,62,30C797.9,1240.14,845.22,1187.56,827.89,1168.16Z" style="fill:#fff"/></g><g id="layer2"><path id="path920" d="M1007.84,1106.17s-47-48-55-76c-1,10,1,46,19,72,0,0-82,4-93,16,0,0,77,12,96,2,0,0-9,67,4,89,0,0,37-58,33-74,0,0,89,25,113,18-7-12-71-39-94-38,25.76-11.34,43-45,43-45s-56,31-66,36Z" style="fill:#07a44a"/></g><g id="layer3"><path id="path9054" d="M207.52,1435.79s-63.51,15.87-109.3,68.77c-6-21.65-13.53-49.61,12-91.24,0,0-66.09-41.43-73.48-85.9,68.25,32.5,118.69,26,118.69,26-.28-25.47,2.25-79.25,41.53-96.56-6.77,68.59,35.25,124.34,35.25,124.34Z" style="fill:#286331;stroke:#3a3632;stroke-linecap:round;stroke-linejoin:round;stroke-width:10px"/></g><g id="layer2-2" data-name="layer2"><path id="path863" d="M883.06,1688.32c-21.45,49.25-751.31-41.55-715.41-196.19,9.38-40.41,42.87-83.35,42.87-83.35s9.47-56.5,30.65-89.89c85.45-134.72,664,318.71,641.89,369.43Z" style="fill:#f37820;stroke:#3a3632;stroke-linecap:round;stroke-linejoin:round;stroke-width:10px;isolation:isolate;opacity:0.986000001430512"/><path id="rect9044" d="M352.33,1436.77l47.74-114.86" style="fill:#231b1b;stroke:#3a3632;stroke-linecap:round;stroke-linejoin:round;stroke-width:10px;isolation:isolate;opacity:0.990000009536743"/><path id="path9047" d="M411.19,1636.28l47.74-114.86" style="fill:#231b1b;stroke:#3a3632;stroke-linecap:round;stroke-linejoin:round;stroke-width:10px;isolation:isolate;opacity:0.990000009536743"/><path id="path9049" d="M573.63,1556.67l41.93-100.88" style="fill:#231b1b;stroke:#3a3632;stroke-linecap:round;stroke-linejoin:round;stroke-width:10px;isolation:isolate;opacity:0.990000009536743"/><path id="path9051" d="M661.39,1691.62l33.22-79.92" style="fill:#231b1b;stroke:#3a3632;stroke-linecap:round;stroke-linejoin:round;stroke-width:10px;isolation:isolate;opacity:0.990000009536743"/></g><g id="layer2-3" data-name="layer2"><path id="path865" d="M992.26,1518.34l-30-62.24L627.75,1592.68l14.64,78.57,111.67-23.34,473.09-3.8,3.43-73.22Z" style="fill:#1a7d3e;stroke:#3a3632;stroke-linecap:round;stroke-linejoin:round;stroke-width:10px;isolation:isolate;opacity:0.998000025749207"/><path id="path867" d="M627.75,1592.68l-270.33,49.77c-60.85,11.2-46.05,101.64,17.17,87.72l267.8-58.92Z" style="fill:#f2f8f0;stroke:#3a3632;stroke-linecap:round;stroke-linejoin:round;stroke-width:10px;isolation:isolate;opacity:0.998000025749207"/><path id="path869" d="M872.67,1546.79l421.94-91,18,91.76L1033.87,1600" style="fill:#1a7d3e;stroke:#3a3632;stroke-linecap:round;stroke-linejoin:round;stroke-width:10px;isolation:isolate;opacity:0.998000025749207"/><path id="path871" d="M318,1681.58,292.8,1676" style="fill:none;stroke:#3a3632;stroke-linecap:round;stroke-linejoin:round;stroke-width:10px;isolation:isolate;opacity:0.998000025749207"/><path id="path873" d="M316.75,1695.43l-31.06,7.13" style="fill:none;stroke:#3a3632;stroke-linecap:round;stroke-linejoin:round;stroke-width:10px;isolation:isolate;opacity:0.998000025749207"/><path id="path875" d="M322.75,1707.35,302.12,1725" style="fill:none;stroke:#3a3632;stroke-linecap:round;stroke-linejoin:round;stroke-width:10px;isolation:isolate;opacity:0.998000025749207"/></g></g></svg>