<svg id="Layer_1" data-name="Layer 1" xmlns="http://www.w3.org/2000/svg" viewBox="0 0 964.58 2000"><path d="M657.46,291.74a585.24,585.24,0,0,1,254.93,294L919,602.54a390.33,390.33,0,0,1,27.16,143V1824.07A125.93,125.93,0,0,1,820.23,1950H144.35A125.93,125.93,0,0,1,18.42,1824.07V812.83A390.18,390.18,0,0,1,109,562.93l253.21-303.6A34.93,34.93,0,0,0,370.27,237V165.5H583.46v63.79a34.94,34.94,0,0,0,17.66,30.37ZM827.3,615.3,817,574.16A235.71,235.71,0,0,0,683.16,415.53h0c-36.15-15.89-76.7,10.59-76.7,50.07v116a101.7,101.7,0,0,0,101.7,101.7h66.07A54.7,54.7,0,0,0,827.3,615.3Z" style="fill:#fff;stroke:#3a3632;stroke-linecap:round;stroke-linejoin:round;stroke-width:20px"/><rect x="348.08" y="25.14" width="268.41" height="150.77" style="fill:#3c54a3;stroke:#3a3632;stroke-linecap:round;stroke-linejoin:round;stroke-width:20px"/><line x1="392.82" y1="58.28" x2="392.82" y2="143.41" style="fill:none;stroke:#3a3632;stroke-linecap:round;stroke-linejoin:round;stroke-width:20px"/><line x1="437.55" y1="58.28" x2="437.55" y2="143.41" style="fill:none;stroke:#3a3632;stroke-linecap:round;stroke-linejoin:round;stroke-width:20px"/><line x1="482.29" y1="58.28" x2="482.29" y2="143.41" style="fill:none;stroke:#3a3632;stroke-linecap:round;stroke-linejoin:round;stroke-width:20px"/><line x1="527.03" y1="58.28" x2="527.03" y2="143.41" style="fill:none;stroke:#3a3632;stroke-linecap:round;stroke-linejoin:round;stroke-width:20px"/><line x1="571.76" y1="58.28" x2="571.76" y2="143.41" style="fill:none;stroke:#3a3632;stroke-linecap:round;stroke-linejoin:round;stroke-width:20px"/><rect x="109.09" y="952" width="747.47" height="687.68" style="fill:#3c54a3;stroke:#3a3632;stroke-linecap:round;stroke-linejoin:round;stroke-width:20px"/></svg>