<svg id="Layer_1" data-name="Layer 1" xmlns="http://www.w3.org/2000/svg" viewBox="0 0 2000 1760.72"><polygon points="1979.1 538.47 1417.74 24.17 582.26 24.17 20.9 538.47 20.9 1053.22 408.82 1738.55 1591.18 1738.55 1979.1 1053.22 1979.1 538.47" style="fill:#ead39a;stroke:#3a3632;stroke-miterlimit:10;stroke-width:20px"/><polygon points="1417.74 24.17 582.26 24.17 20.9 538.47 408.82 1227.66 1591.18 1227.66 1979.1 538.47 1417.74 24.17" style="fill:#f9f1c0;stroke:#3a3632;stroke-miterlimit:10;stroke-width:20px"/><path d="M1557.06,1415.65a7651.78,7651.78,0,0,1-796.42,0,7651.78,7651.78,0,0,1,796.42,0Z" style="fill:#3a3632"/><path d="M494.05,1560.53c98.76-8,197.93-9.72,297-10,99,.24,198.2,2,297,10-98.76,8-197.93,9.75-297,10-99-.28-198.21-2-297-10Z" style="fill:#3a3632"/><path d="M1749.86,1190.05c18.47-47.92,42.68-93.42,68.06-138,25.82-44.27,53.1-88,85.37-127.95-18.43,47.93-42.65,93.43-68.06,137.94-25.85,44.25-53.13,88-85.37,128Z" style="fill:#3a3632"/><path d="M351.91,1415.65c-47.72-67.41-90.27-138.32-131.47-209.82-40.75-71.76-80.28-144.41-114.12-219.74,47.75,67.37,90.31,138.3,131.47,209.81,40.72,71.78,80.24,144.43,114.12,219.75Z" style="fill:#3a3632"/><path d="M1594.91,570.27c42.45,250.21-221.29,480.85-594.91,480.85S362.64,820.48,405.09,570.27C442.25,351.32,706.8,192.93,1000,192.93S1557.75,351.32,1594.91,570.27Z" style="fill:#ead39a;stroke:#3a3632;stroke-miterlimit:10;stroke-width:20px"/><path d="M512.75,488.94c77.9-95.5,205.4-152.62,325.85-168.86A511.83,511.83,0,0,1,891.78,316c-14.63,4.07-36.38,9.48-51.23,13.68-100.89,27.81-198.9,68.06-285.16,127.89-7.35,4.86-14.22,10.29-21.47,15.31-7,5.16-14.09,10.92-21.17,16Z" style="fill:#3a3632"/><path d="M1045,386.05c127.49-13.61,273.26,20.73,379.21,93.55a409.51,409.51,0,0,1,32.61,24.93c-4.13-2-8.16-4.07-12.23-6.09-8-4.22-16.25-8.2-24.32-12.07-4.07-1.93-8-4.07-12.2-5.82-93.46-43.66-193.69-71.3-295.72-85.81-7.83-1.31-18.93-2.66-26.82-3.66-13.43-1.94-27-3.12-40.53-5Z" style="fill:#3a3632"/><path d="M718.1,514.61c75.47-43.92,177.25-62.74,263.83-53.89,6,.72,12.07,1.53,18.07,2.58-6,1.18-12,2.13-18,3-64.82,9.68-129.4,19.43-193.47,33.33-23.49,4.86-46.89,10.45-70.48,15Z" style="fill:#3a3632"/><path d="M1000,551.49c-233,0-447.86,100-544.94,251,92.18,144.39,293.72,248.67,544.94,248.67s452.76-104.28,544.94-248.67C1447.86,651.51,1233,551.49,1000,551.49Z" style="fill:none;stroke:#3a3632;stroke-miterlimit:10;stroke-width:20px"/></svg>