<svg id="Layer_1" data-name="Layer 1" xmlns="http://www.w3.org/2000/svg" viewBox="0 0 2000 2000"><path id="path839" d="M1000,1955.05c291.36,0,655.41-187.24,566.39-670.62C1475.65,791.68,1000,526.85,1000,55.05c0,471.8-475.65,736.63-566.39,1229.38C344.59,1767.81,708.64,1955.05,1000,1955.05Z" style="fill:#daf0f9;stroke:#3a3632;stroke-linecap:round;stroke-linejoin:round;stroke-width:20px"/><path id="path843" d="M1033.54,1623.45c-26.92,0-96-4-156.86-41.72-73.7-45.6-111.06-123.27-111.06-230.88,0-39.51-29-69.34-67.34-69.34s-67.4,29.83-67.4,69.34c0,204.55,124.51,411.21,402.66,411.21,38.38,0,67.39-29.82,67.39-69.33S1071.76,1623.45,1033.54,1623.45Z" style="fill:#fff"/></svg>