<svg id="Layer_1" data-name="Layer 1" xmlns="http://www.w3.org/2000/svg" viewBox="0 0 1902.65 2000"><path d="M1579.22,973.9s-358.31,244.66-396.46,403.38,23.2,357.34,10.89,536.19c-74,98.9-384.8,98.9-470.21,0-25-155.51,30.21-417.3,0-560.85s-393.94-388-393.94-388h171s224,226.78,253.35,183.94-30.83-233-30.83-233H876.56s2.69,267.52,52.71,255.66,40.44-255.66,40.44-255.66h184.57s-61.93,183.27-36.06,242.58,336.2-193.53,336.2-193.53Z" style="fill:#fffce4;stroke:#3a3632;stroke-miterlimit:10;stroke-width:20px"/><path d="M1180.85,229.12c2.82-22.85-3.33-45.87-11.31-67.47-11.5-31.17-27.33-61.43-51.21-84.54-15.79-15.29-35.48-27.16-56.59-32.75-24.78-11.75-50.28-21.82-77.33-25.45-37.42-5-79,4.54-103.18,33.54C870.05,65.86,862,83.6,845.69,89.9c-18.43,7.12-39.33-3.71-58.72,0-18.78,3.62-32.3,20-41.94,36.51s-17.52,34.76-32,47.2c-19.5,16.71-46.87,19.65-70.89,28.75-64.47,24.43-103.53,101.82-84.89,168.19,5.09,18.12,13.94,35.8,13.09,54.61-.69,15.22-7.74,29.52-9.16,44.69a61.17,61.17,0,0,0,77.37,64.65c6.56-1.83,13.08-4.79,19.86-4.22,6.3.54,11.91,4.06,17.15,7.59,43.12,29.07,81.26,66.27,128.62,87.74s109.58,22.92,145.37-14.8c16.43-17.32,25.28-40.67,41.4-58.27,40.07-43.72,111.16-39.88,160.08-73.41a122,122,0,0,0,51.5-85.78c1.22-10.8.87-22.15-3.88-31.93-4.12-8.48-11.2-15.09-16.79-22.69a75.52,75.52,0,0,1-14.48-48.7C1168.53,269.24,1178.3,249.8,1180.85,229.12Z" style="fill:#fffce4;stroke:#3a3632;stroke-miterlimit:10;stroke-width:20px"/><path d="M838.18,348.65c3.5-22.76-2-45.95-9.29-67.78-10.57-31.5-25.49-62.22-48.66-86-15.33-15.75-34.66-28.21-55.59-34.43C700.22,147.93,675,137.1,648.1,132.67c-37.26-6.13-79.1,2.18-104.14,30.45-11.57,13.07-20.18,30.56-36.64,36.36-18.62,6.58-39.19-4.87-58.69-1.72-18.88,3.05-32.88,19-43,35.24s-18.55,34.22-33.43,46.22c-20,16.13-47.44,18.24-71.72,26.62C235.3,328.34,194,404.53,210.6,471.43c4.55,18.26,12.86,36.2,11.45,55-1.14,15.19-8.61,29.28-10.49,44.4A61.18,61.18,0,0,0,287,637.73c6.62-1.63,13.21-4.4,20-3.62,6.28.72,11.78,4.4,16.92,8.09,42.22,30.35,79.24,68.66,125.94,91.54s108.85,26.18,145.75-10.46c16.94-16.82,26.48-39.9,43.12-57C680,623.77,751,629.73,800.87,597.67a122,122,0,0,0,54-84.2c1.53-10.76,1.52-22.12-2.94-32-3.86-8.6-10.74-15.42-16.1-23.18a75.56,75.56,0,0,1-13-49.12C824.67,388.38,835,369.25,838.18,348.65Z" style="fill:#fffce4;stroke:#3a3632;stroke-miterlimit:10;stroke-width:20px"/><path d="M693.38,871.14c10.74-26.09,11.81-55.67,10.42-84.24-2-41.23-9-83-27.11-119.19-12-24-29.36-45.29-50.38-59.69C603.39,585,579.11,563.61,551,549.36c-38.91-19.73-87.23-23.69-123.21,1.84-16.63,11.8-31.36,29.88-51.14,31.36-22.38,1.67-41.41-18.87-63.7-21.58-26.4-3.21-47.56,19.64-69.48,32-27.93,15.71-57.85,21.36-86.61,34.35-31.5,14.24-56.88,40.63-81.47,66.45-12.29,12.91-24.77,26.08-33,42.41s-11.68,36.58-5,53.73C41.34,800,48.53,808.48,51.32,819c8.77,33.15-28.45,61.28-29.49,95.77-.93,31.15,27.78,56,28,87.14.09,15.35-6.92,30.14-5.78,45.44,1.68,22.62,31.45,73.52,52.39,78.8,13,3.27,27.18-1.1,39.6,4.19,21.53,9.17,31.67,44.44,54.73,42.88,14.28-1,24.75-16.83,39-18.45,15.36-1.75,27.39,13.11,40.38,22.25a61.34,61.34,0,0,0,46.52,10.27c10.71-2,20.75-7,31.08-10.72,74.23-26.92,155.16,5.4,229.22-19.71,37.31-12.64,69.06-43.69,84.72-82.85,4.94-12.37,8.38-26,6.52-39.33-1.62-11.58-7.07-22-10.58-33.1a102.27,102.27,0,0,1,.67-63.14C666.53,914.23,683.66,894.75,693.38,871.14Z" style="fill:#fffce4;stroke:#3a3632;stroke-miterlimit:10;stroke-width:20px"/><path d="M1135.93,167c-21.51,2.83-42.71,8-64.06,21.68-28,17.87-54.2,39.78-71.7,68-11.58,18.68-19,40.44-20,62.26-6.21,26.71-10.62,53.78-8.41,81,3.07,37.64,21.25,76.23,54.74,93.69,15.48,8.06,34.53,12.19,44.14,26.75,10.89,16.49,4.75,39.21,12.53,57.37,7.52,17.58,26.4,27.3,44.59,33.21s37.69,9.72,52.94,21.26c20.48,15.5,29.17,41.62,43.18,63.15,37.59,57.79,121.52,79.49,182.4,47.15,16.63-8.84,32-21.24,50.57-24.41,15-2.56,30.49,1.27,45.62-.56a61.18,61.18,0,0,0,46.71-89.36c-3.19-6-7.47-11.76-8.36-18.51-.81-6.27,1.43-12.5,3.77-18.37C1563.86,543,1592.08,497.83,1603,447s-.93-112-45.41-138.89c-20.41-12.37-45.11-16-65.74-28-43.09-25.1-54.1-104.28-107.11-108.24-17.9-1.33-36.79,2.16-53.25-5-13.84-6-24-18.91-38.14-24.14-20.41-7.53-42.54,2.58-63.1,9.72C1197.32,163.79,1166.31,163,1135.93,167Z" style="fill:#fffce4;stroke:#3a3632;stroke-miterlimit:10;stroke-width:20px"/><path d="M1869.58,823.41a18.77,18.77,0,0,0,.66-10.35c-2-9.85-7.92-19.46-6-29.32,2.35-12.14,16.15-21.58,16.6-33.86.69-19.18-29.75-29.06-36.67-47.38-3.35-8.86-.66-18.4-.58-27.68.18-19.12-11.63-38-30.57-49-13.61-7.87-31-12.2-40.38-23.52-10.74-12.95-10.34-28.09-30.64-34-16.46-4.76-43.82,2.74-45.45-17.31-.5-6.22,1.46-12.43,1.14-18.66-.41-8.33-5.1-16.47-12.66-22-14-10.22-36.75-11.66-46.41-24.87-6.78-9.26-5.64-22.77-16.48-28.85-4.34-2.43-9.8-3.06-15-3.08-20.19-.08-41.24,7.63-59.86,1.17-25.45-8.84-33.26-40.07-60.19-45.09-15.45-2.88-30.69,4.35-44.58,10.63s-30.86,11.91-45,6c-6.7-2.77-11.77-7.81-18.59-10.4-9.67-3.66-21.13-1.72-30.87,1.81-14.06,5.11-29,15.95-44.74,16.33-13.11.32-24.36-7.12-36.57-11.06a71.13,71.13,0,0,0-41.89-.29c-27.11,8.35-43.64,31.93-70.08,41.65-9.14,3.36-19.15,4.92-28.2,8.45s-17.52,9.8-18.77,18c-.68,4.43.82,8.88,2.8,13,7.87,16.47,23.87,32.55,18.43,49.68-4.42,13.91-21.31,22.06-32.7,32.93-11.21,10.69-17.41,25-16.08,39.15,1.17,12.56,8,24.21,12.64,36.2,15,38.45-23.72,71-25,109.7-.64,19.53,3.39,39.77-4.62,58.14-8.85,20.31-30.8,36-36.45,57.31-5.13,19.36,2.48,41.51,21.57,54,4.18,2.74,8.84,5.1,12.15,8.57,10.46,10.94,3.92,28.58,14.43,39.49,6.9,7.16,18.9,9.06,29.84,10.47l39.08,5.05c4.07.52,8.34,1.12,11.57,3.23s4.9,5.42,6.32,8.61c5.1,11.49,8.55,23.49,14.56,34.67s15.09,21.81,28.25,27.4c14.86,6.32,34.16,6,45.61,16.09,11,9.69,10.15,25.05,17.81,36.76,5.56,8.49,15.81,14.77,27.26,16.7,13.25,2.23,26.8-1.16,40-3.49,38.65-6.82,77.74,2.23,113.57-14.38,15.19-7,25.71-17.9,42.34-23.44a49.08,49.08,0,0,1,12.61-2.76c11.19-.63,21.47,4.76,32.44,6.66,14.13,2.44,29-1.1,41.33-7.38s22.35-15.08,31.92-24c8.39-7.85,17.48-16.36,29.89-18.45,5.33-.89,10.83-.5,16.24,0,17.38,1.46,34.86,3.53,52.26,2.2s35.09-6.48,46.74-17.24c11.44-10.58,16.14-25.62,29.15-34.87,11.37-8.09,27.63-10.61,38.09-19.49,12.59-10.68,13.33-27.39,11.4-42.22-3.23-24.83-15.28-45.15-4.07-69.92,5.93-13.11,15.8-25.68,25.72-37C1860.63,835.69,1867.06,830.37,1869.58,823.41Z" style="fill:#fffce4;stroke:#3a3632;stroke-miterlimit:10;stroke-width:20px"/><path d="M1480.72,681.37c.8-1,1.58-2.1,2.32-3.17,18.46-26.48,13.06-60.13,11.09-90.47-2.94-45.09-13.24-90.74-39.9-130.35-18-26.72-41.84-41.43-65.79-61.25-22.93-19-40-35.77-72.09-37.3-11.86-.57-24.15,1-35.34-3-17.93-6.38-28.49-25.17-45.16-34.33-40.2-22.09-92.48,20.12-134.54,1.83-15.08-6.56-26.56-20.26-42.29-25.06-34.48-10.54-66.9,25.55-103,25.82-19.9.15-38.55-10.76-58.46-11.23C851,311.75,818.5,365.92,772,369.19c-20.31,1.43-42-7.08-60.37,1.75-17,8.2-24.73,28.52-40.16,39.42-27.19,19.24-65.3,2.72-97.79,10.05-23,5.19-42.59,23.5-49.3,46.12-2.52,8.51-3.68,18.14-10.14,24.24-6.94,6.54-17.46,6.7-26.89,8.12-57.31,8.63-72.14,64.45-73.76,113.6-.85,25.58,4.52,52.09-6.15,76.16-8.63,19.47-26.94,35.21-36.72,54.32-12.69,24.78-9.39,54.57,8.53,77.11,16.68,21,43.79,34.2,70.17,36.26,31.49,2.47,50.72,8.35,73.25,33.34,19.21,21.3,36.58,46.73,63.53,56.54,10.69,3.89,23.27,5.64,30.16,14.68,4.27,5.61,5.39,12.94,8.13,19.43,10.86,25.67,43.41,33,71.24,34.51,11.55.65,26,3.07,29,14.25,1,3.7.36,7.62.7,11.43,1.27,14.19,15.78,24,29.9,25.88s28.29-1.87,42.43-3.54,29.88-.72,40.5,8.77c10.33,9.21,14.31,25.18,26.81,31.1,7.2,3.4,15.63,2.58,23.44,1a146.81,146.81,0,0,0,74.93-39.94c15.8-15.8,30.45-25.36,53.58-18.45,9.84,2.94,19.32,7.42,29.52,8.62,17.94,2.1,35.44-6.19,50.63-16,7.85-5,15.62-10.65,24.67-13,23.66-6.06,47.08,11.84,71.51,11.86,20.7,0,39.34-12.85,53.49-28,4.29-4.58,8.38-9.46,13.69-12.79,11.36-7.14,25.82-5.84,39.23-5.3a269.83,269.83,0,0,0,66.78-5.63c5.34-1.13,10.92-2.57,14.85-6.36,6.7-6.45,6.37-17.22,10.66-25.48,8.1-15.59,29.61-18.08,42.26-30.27,8.28-8,12.13-19.68,12.82-31.15.66-11,0-24.84-5-34.71-4.64-9.11-13.81-15.27-17.88-24.75-5.74-13.39.91-28.75,9-40.9S1451,767.49,1452.36,753c.79-8.73-1.67-17.54-.68-26.25C1453.76,708.61,1469.54,696,1480.72,681.37Z" style="fill:#fffce4;stroke:#3a3632;stroke-miterlimit:10;stroke-width:20px"/></svg>