<svg id="Layer_1" data-name="Layer 1" xmlns="http://www.w3.org/2000/svg" viewBox="0 0 1508 2000"><path d="M1463.15,1012.38c0,123-9.58,229.05-62.09,341.53-37.37,80.06-83.61,156.2-113.64,239.57-29.72,82.5-76,145.85-142.86,204.52C1026,1901.94,892.07,1949.23,736.43,1943.67c-142.95-5.11-288.07-61-382.43-171.4-67.09-78.53-166.15-164.81-197.63-266-14.78-47.49-14.38-97.85-25.91-146-11.43-47.72-32.11-93.06-49.19-138.91-26.38-70.89-36.42-134.17-36.42-209,0-109,4.3-224.21,44.25-326.36,40.68-104,104.82-196.81,168.22-288Q307.45,326,357.57,253.91c46.33-66.61,95.92-136.07,169.15-171,97.74-46.65,204.56-22.07,305.29-6,62.4,10,107.92,28.54,165,56.61,20.28,10,40.7,20,58.71,33.69,46.09,34.93,72,89.44,104.06,137.54,45.88,68.75,106.34,126.34,158.43,190.52C1433.77,637.72,1463.15,833.22,1463.15,1012.38Z" style="fill:#fff9bd;stroke:#3a3632;stroke-miterlimit:10;stroke-width:20px"/><path d="M370.63,483.76c6.59,35.83,44,60.64,78.31,54.12,15.32-2.92,28.6-10.76,45-13,22.92-3.15,46.89-.85,67.78-12.82,65.79-37.7-24.84-91.87-65.07-95.06-39.68-3.13-134.31,8.51-126.45,64.24C370.34,482.07,370.47,482.92,370.63,483.76Z" style="fill:#e2d3a5"/><path d="M1202.06,1075.73a57.89,57.89,0,0,0-2.65-8.18c-20.59-51-106.76-18.17-144.92-9.58-15.77,3.55-32,7.74-44.76,17.63-60,46.37,37.22,87.59,77.5,85.22C1128.66,1158.38,1215.53,1131.1,1202.06,1075.73Z" style="fill:#e2d3a5"/><path d="M685.59,926.83c-.41-1.11-.87-2.23-1.39-3.37C658.34,866.65,585,895,539.82,905.13c-15.77,3.55-32,7.73-44.76,17.62-60,46.37,37.22,87.59,77.5,85.22C608.12,1005.88,704.84,979.08,685.59,926.83Z" style="fill:#e2d3a5"/><path d="M909.87,1731c.41-8.71-4.88-18-13.35-20.09a30.13,30.13,0,0,0-9.76-.23c-20.59,1.82-76.26-1.23-89.48,15.94a27.49,27.49,0,0,0-2.57,28.77c6.49,12.53,21.32,17.85,34.87,21.84C858.12,1785.57,908.27,1764.77,909.87,1731Z" style="fill:#e2d3a5"/><path d="M584,1500.54c8.32-11.83,9.18-29.58-.84-40-3.76-3.91-8.65-6.51-13.47-9-43.28-22.39-104.49-52.13-152.8-41.74-10.57,2.27-21.36,5.26-29.74,12.08-32.85,26.76,13.45,69.49,37.44,82.81C463.09,1526,554.34,1542.75,584,1500.54Z" style="fill:#e2d3a5"/><path d="M955.64,472.41c-3.13,2.14-6.29,4.34-9.51,6.59-1.27.88-2.65,2-2.79,3.49s.93,2.72,1.94,3.77c27.75,28.9,78.84,31.14,116.33,36,11.21,1.44,22.85,2.56,33.63-.88,50.51-16.12-3.51-66.46-30.55-74.54C1019,433.15,989.67,449.11,955.64,472.41Z" style="fill:#e2d3a5"/></svg>