<svg id="Layer_1" data-name="Layer 1" xmlns="http://www.w3.org/2000/svg" viewBox="0 0 2000 624.42"><path d="M68.45,232.1,120,553.63A72.89,72.89,0,0,0,188.62,602H1817.57a72.9,72.9,0,0,0,68.68-48.39l51.49-321.53" style="fill:#fff;stroke:#231f20;stroke-linecap:round;stroke-linejoin:round;stroke-width:24.274681858775548px"/><path d="M1966.42,224.59,1652.31,33.33a38,38,0,0,0-20.74-6.17H374.63a38,38,0,0,0-20.74,6.17L39.77,224.59a38,38,0,0,0-17.21,31.79V265a38,38,0,0,0,38,37.95H1945.68a38,38,0,0,0,38-37.95v-8.66A38,38,0,0,0,1966.42,224.59Z" style="fill:#fff;stroke:#231f20;stroke-linecap:round;stroke-linejoin:round;stroke-width:24.274681858775548px"/><line x1="120.74" y1="235.83" x2="1885.46" y2="235.83" style="fill:#fff;stroke:#231f20;stroke-linecap:round;stroke-linejoin:round;stroke-width:24.274681858775548px"/><line x1="382.37" y1="83.68" x2="411.02" y2="232.1" style="fill:#fff;stroke:#231f20;stroke-linecap:round;stroke-linejoin:round;stroke-width:24.274681858775548px"/><line x1="1623.82" y1="83.68" x2="1595.18" y2="232.1" style="fill:#fff;stroke:#231f20;stroke-linecap:round;stroke-linejoin:round;stroke-width:24.274681858775548px"/></svg>