<svg id="Layer_1" data-name="Layer 1" xmlns="http://www.w3.org/2000/svg" viewBox="0 0 2000 1024"><path d="M1000,998.18c389.83,0,666.48-78,770.24-236.82,122.59-292.12,156.71-272.54,156.71-272.54,0-225.72-415-408.71-926.95-408.71S73.05,263.1,73.05,488.82c0,0,34.11-19.58,165.25,272.54C342.06,920.18,610.17,998.18,1000,998.18Z" style="fill:#fff;stroke:#231f20;stroke-miterlimit:10;stroke-width:24px"/><ellipse cx="1000" cy="427.89" rx="976.16" ry="402.07" style="fill:#fff;stroke:#231f20;stroke-miterlimit:10;stroke-width:24px"/><path d="M1861.87,403.84c0,178.79-385.87,323.73-861.87,323.73S138.13,582.63,138.13,403.84" style="fill:#fff;stroke:#231f20;stroke-linecap:round;stroke-miterlimit:10;stroke-width:24px"/><path d="M1861.87,403.84C1861.87,225.05,1476,80.11,1000,80.11S138.13,225.05,138.13,403.84" style="fill:#fff;stroke:#231f20;stroke-linecap:round;stroke-miterlimit:10;stroke-width:24px"/><path d="M1628.52,403.53c-165.22-69.32-386-111.66-628.52-111.66-253.23,0-482.73,46.16-650,121" style="fill:#fff;stroke:#231f20;stroke-linecap:round;stroke-miterlimit:10;stroke-width:12px"/></svg>