<?xml version="1.0" encoding="UTF-8" standalone="no"?>
<svg
   xmlns:dc="http://purl.org/dc/elements/1.1/"
   xmlns:cc="http://creativecommons.org/ns#"
   xmlns:rdf="http://www.w3.org/1999/02/22-rdf-syntax-ns#"
   xmlns:svg="http://www.w3.org/2000/svg"
   xmlns="http://www.w3.org/2000/svg"
   xmlns:sodipodi="http://sodipodi.sourceforge.net/DTD/sodipodi-0.dtd"
   xmlns:inkscape="http://www.inkscape.org/namespaces/inkscape"
   inkscape:version="1.0beta1 (32d4812, 2019-09-19)"
   height="1489.95"
   width="1869.49"
   sodipodi:docname="autonome_tool_kit.svg"
   version="1.1"
   viewBox="0 0 1869.49 1489.95"
   data-name="Layer 1"
   id="Layer_1">
  <metadata
     id="metadata943">
    <rdf:RDF>
      <cc:Work
         rdf:about="">
        <dc:format>image/svg+xml</dc:format>
        <dc:type
           rdf:resource="http://purl.org/dc/dcmitype/StillImage" />
        <dc:title></dc:title>
      </cc:Work>
    </rdf:RDF>
  </metadata>
  <defs
     id="defs941" />
  <sodipodi:namedview
     inkscape:current-layer="Layer_1"
     inkscape:window-maximized="0"
     inkscape:window-y="25"
     inkscape:window-x="0"
     inkscape:cy="758"
     inkscape:cx="25.558824"
     inkscape:zoom="0.136"
     fit-margin-bottom="12"
     fit-margin-right="12"
     fit-margin-left="12"
     lock-margins="true"
     fit-margin-top="12"
     showgrid="false"
     id="namedview939"
     inkscape:window-height="480"
     inkscape:window-width="870"
     inkscape:pageshadow="2"
     inkscape:pageopacity="0"
     guidetolerance="10"
     gridtolerance="10"
     objecttolerance="10"
     borderopacity="1"
     inkscape:document-rotation="0"
     bordercolor="#666666"
     pagecolor="#ffffff" />
  <polygon
     transform="translate(-59,-242)"
     id="polygon850"
     style="fill:#ffffff;stroke:#010101;stroke-width:24px;stroke-miterlimit:15.1181"
     points="523.92,492.62 1916.49,307.43 1916.49,1474.76 523.92,1719.95 " />
  <ellipse
     id="ellipse852"
     style="fill:#f79b6f"
     transform="rotate(-46.9)"
     ry="125.72"
     rx="143.59"
     cy="1124.67"
     cx="-18.187878" />
  <path
     inkscape:connector-curvature="0"
     id="path854"
     style="fill:#ffffff"
     d="m 784.07,806.24 v 83 c 0,8.92 -7.3,17.19 -16.21,18.37 v 0 c -8.92,1.19 -16.21,-5.14 -16.21,-14.05 v -83 a 4.1,4.1 0 0 1 3.47,-3.94 l 25.48,-3.38 a 3,3 0 0 1 3.47,3 z" />
  <path
     inkscape:connector-curvature="0"
     id="path856"
     style="fill:#f79b6f"
     d="m 767.86,909.86 c -10.17,1.36 -18.44,-5.81 -18.44,-16 v -83 a 6.72,6.72 0 0 1 5.7,-6.45 L 780.6,801 a 4.88,4.88 0 0 1 5.69,4.94 v 83 c 0,10.2 -8.29,19.57 -18.43,20.92 z m -12.74,-101 a 1.47,1.47 0 0 0 -1.25,1.41 v 83 a 12,12 0 0 0 14,12.13 16.52,16.52 0 0 0 14,-15.85 v -83 a 1.06,1.06 0 0 0 -1.25,-1.08 z" />
  <path
     inkscape:connector-curvature="0"
     id="path858"
     style="fill:#ffffff"
     d="M 756.42,804.49 V 787 c -10,-14.58 -22.36,-40.59 -22.36,-64.76 0,-36.46 15.13,-53.16 33.8,-55.64 18.67,-2.48 33.8,10.19 33.8,46.65 0,24.17 -12.35,53.46 -22.36,70.7 v 17.48" />
  <path
     inkscape:connector-curvature="0"
     id="path860"
     style="fill:#f79b6f"
     d="m 779.3,803.67 a 1.9,1.9 0 0 1 -2.22,-1.93 v -17.47 a 2.48,2.48 0 0 1 0.34,-1.23 c 10.16,-17.49 22,-46.18 22,-69.47 0,-31.1 -11.51,-47.4 -31.58,-44.73 -20.07,2.67 -31.58,22 -31.58,53.13 0,23.29 11.86,48.82 22,63.61 a 2,2 0 0 1 0.34,1.14 v 17.48 a 2.62,2.62 0 0 1 -2.23,2.51 1.9,1.9 0 0 1 -2.22,-1.92 V 788 c -10.39,-15.32 -22.36,-41.42 -22.36,-65.39 0,-48.17 25.2,-56.72 36,-58.16 10.8,-1.44 36,0.41 36,48.58 0,24 -12,53.25 -22.36,71.33 v 16.84 a 2.61,2.61 0 0 1 -2.13,2.47 z" />
  <path
     inkscape:connector-curvature="0"
     id="path862"
     style="fill:#ffffff"
     d="m 767.86,666.62 c -7.3,1 -13.21,16.44 -13.21,52.9 0,24.17 5.48,51.09 9.39,66.48 v 17.48" />
  <path
     inkscape:connector-curvature="0"
     id="path864"
     style="fill:#f79b6f"
     d="m 764,805.7 a 1.91,1.91 0 0 1 -2.22,-1.93 v -17.21 c -2.88,-11.36 -9.39,-40 -9.39,-66.74 0,-34.92 5.34,-54.08 15.43,-55.42 a 1.9,1.9 0 0 1 2.22,1.92 2.62,2.62 0 0 1 -2.22,2.52 c -5.07,0.67 -11,14.27 -11,50.39 0,26.41 6.52,54.92 9.32,66 a 2.33,2.33 0 0 1 0.07,0.53 v 17.47 A 2.62,2.62 0 0 1 764,805.7 Z" />
  <path
     inkscape:connector-curvature="0"
     id="path866"
     style="fill:#ffffff"
     d="M 771.67,802.46 V 785 c 3.91,-16.43 9.39,-44.81 9.39,-69 0,-36.46 -5.91,-50.36 -13.2,-49.39" />
  <path
     inkscape:connector-curvature="0"
     id="path868"
     style="fill:#f79b6f"
     d="m 771.67,804.68 a 1.89,1.89 0 0 1 -2.22,-1.92 v -17.48 a 2.48,2.48 0 0 1 0.06,-0.54 c 2.81,-11.78 9.33,-42 9.33,-68.43 0,-36.12 -5.92,-48.14 -11,-47.47 a 1.91,1.91 0 0 1 -2.23,-1.93 2.62,2.62 0 0 1 2.23,-2.51 c 10.09,-1.34 15.42,16.4 15.42,51.32 0,26.69 -6.51,57.11 -9.39,69.24 v 17.21 a 2.61,2.61 0 0 1 -2.2,2.51 z" />
  <path
     inkscape:connector-curvature="0"
     id="path870"
     style="fill:#ffffff"
     d="m 863.76,794.17 4.8,-124.65 c 0,-9 -7.33,-15.32 -16.29,-14.13 v 0 c -9,1.2 -16.3,9.51 -16.3,18.47 l 4.8,123.37" />
  <path
     inkscape:connector-curvature="0"
     id="path872"
     style="fill:#f79b6f"
     d="m 840.77,799.43 a 1.88,1.88 0 0 1 -2.2,-1.82 l -4.8,-123.37 c 0,-10.29 8.3,-19.69 18.5,-21 10.2,-1.31 18.49,5.84 18.49,16 L 866,794 a 2.63,2.63 0 0 1 -2.28,2.42 1.88,1.88 0 0 1 -2.12,-2 l 4.8,-124.65 c 0,-7.69 -6.32,-13.17 -14.09,-12.13 a 16.62,16.62 0 0 0 -14.1,16 l 4.8,123.28 a 2.59,2.59 0 0 1 -2.11,2.57 z" />
  <path
     inkscape:connector-curvature="0"
     id="path874"
     style="fill:#ffffff"
     d="m 828.93,899.52 22.41,-3 c 16.29,-2.17 29.5,-17.13 29.5,-33.42 v -63.71 a 6.43,6.43 0 0 0 -7.51,-6.51 l -42.13,5.6 a 8.84,8.84 0 0 0 -7.5,8.5 v 88 a 4.48,4.48 0 0 0 5.23,4.54 z" />
  <path
     inkscape:connector-curvature="0"
     id="path876"
     style="fill:#f79b6f"
     d="m 851.34,898.74 -22.41,3 a 6.36,6.36 0 0 1 -7.43,-6.44 v -88 a 11.44,11.44 0 0 1 9.7,-11 l 42.13,-5.6 a 8.32,8.32 0 0 1 9.71,8.41 v 63.72 c -0.04,17.48 -14.22,33.59 -31.7,35.91 z m -20.14,-98 a 6.26,6.26 0 0 0 -5.3,6 v 88 a 2.59,2.59 0 0 0 3,2.62 l 22.41,-3 c 15,-2 27.3,-15.88 27.3,-30.93 V 799.7 a 4.55,4.55 0 0 0 -5.31,-4.6 z" />
  <path
     inkscape:connector-curvature="0"
     id="path878"
     style="fill:#ffffff"
     d="m 864.81,827.2 v 32.66 c 0,9.65 -7.82,18.51 -17.47,19.8 l -7,0.93" />
  <path
     inkscape:connector-curvature="0"
     id="path880"
     style="fill:#f79b6f"
     d="m 864.81,825 a 2.59,2.59 0 0 0 -2.2,2.49 v 32.67 a 18,18 0 0 1 -15.27,17.29 l -7,0.94 a 2.59,2.59 0 0 0 -2.2,2.49 1.88,1.88 0 0 0 2.2,1.91 l 7,-0.93 c 10.84,-1.44 19.67,-11.44 19.67,-22.29 v -32.66 a 1.89,1.89 0 0 0 -2.2,-1.91 z" />
  <path
     inkscape:connector-curvature="0"
     id="path882"
     style="fill:#f79b6f"
     d="m 1306.4,791.3 a 6,6 0 0 1 -0.72,2.64 10.58,10.58 0 0 1 -2.17,2.88 13.58,13.58 0 0 1 -3.68,2.46 16.65,16.65 0 0 1 -5,1.41 q -5.91,0.8 -9.23,-2.22 -3.32,-3.02 -3.32,-8.8 a 16.55,16.55 0 0 1 1.52,-7.14 13.26,13.26 0 0 1 4.39,-5.25 15.31,15.31 0 0 1 6.87,-2.56 13.17,13.17 0 0 1 4.55,0.12 10,10 0 0 1 3.5,1.41 7.3,7.3 0 0 1 2.2,2.15 4.28,4.28 0 0 1 0.76,2.31 2.92,2.92 0 0 1 -0.85,2.06 3.42,3.42 0 0 1 -2.07,1.07 1.89,1.89 0 0 1 -1.32,-0.24 5,5 0 0 1 -1.18,-1.16 8,8 0 0 0 -2.44,-2.34 5.14,5.14 0 0 0 -3.24,-0.46 6.46,6.46 0 0 0 -4.56,2.82 10.59,10.59 0 0 0 -1.73,6.27 10.84,10.84 0 0 0 0.45,3.24 6.25,6.25 0 0 0 1.28,2.4 4.52,4.52 0 0 0 2,1.35 5.91,5.91 0 0 0 2.61,0.2 6.59,6.59 0 0 0 3.29,-1.33 9.5,9.5 0 0 0 2.42,-3 7.19,7.19 0 0 1 1.26,-1.85 2.73,2.73 0 0 1 1.66,-0.83 2.2,2.2 0 0 1 1.94,0.63 2.51,2.51 0 0 1 0.81,1.76 z" />
  <path
     inkscape:connector-curvature="0"
     id="path884"
     style="fill:#f79b6f"
     d="m 1328.53,792.66 v -0.82 a 17.37,17.37 0 0 1 -2.41,2.75 10.36,10.36 0 0 1 -2.76,1.83 12.06,12.06 0 0 1 -3.41,0.93 8.2,8.2 0 0 1 -4.15,-0.41 5.72,5.72 0 0 1 -2.84,-2.26 10.8,10.8 0 0 1 -1.19,-5.68 v -12.64 a 4.58,4.58 0 0 1 0.87,-3 3.37,3.37 0 0 1 2.29,-1.25 2.72,2.72 0 0 1 2.33,0.64 3.63,3.63 0 0 1 0.89,2.74 v 10.21 a 15.07,15.07 0 0 0 0.38,3.68 3.75,3.75 0 0 0 1.34,2.18 3.49,3.49 0 0 0 2.63,0.5 6,6 0 0 0 3,-1.36 6.74,6.74 0 0 0 2.08,-2.78 21.29,21.29 0 0 0 0.53,-6 v -7.76 a 4.55,4.55 0 0 1 0.89,-3 3.51,3.51 0 0 1 2.32,-1.27 2.66,2.66 0 0 1 2.29,0.64 3.74,3.74 0 0 1 0.86,2.75 v 18.49 a 4.41,4.41 0 0 1 -0.83,2.84 3.23,3.23 0 0 1 -2.14,1.2 2.5,2.5 0 0 1 -2.16,-0.66 3.4,3.4 0 0 1 -0.81,-2.49 z" />
  <path
     inkscape:connector-curvature="0"
     id="path886"
     style="fill:#f79b6f"
     d="m 1344.09,765.28 a 3,3 0 0 1 -2.28,-0.51 2.54,2.54 0 0 1 -0.94,-2.19 3.26,3.26 0 0 1 1,-2.36 3.71,3.71 0 0 1 2.25,-1.18 3,3 0 0 1 2.2,0.5 2.49,2.49 0 0 1 1,2.19 3.36,3.36 0 0 1 -0.94,2.43 3.71,3.71 0 0 1 -2.29,1.12 z m 3.16,6.17 v 18.44 a 4.65,4.65 0 0 1 -0.91,3 3.56,3.56 0 0 1 -2.32,1.29 2.58,2.58 0 0 1 -2.28,-0.7 3.84,3.84 0 0 1 -0.87,-2.76 v -18.25 a 4.61,4.61 0 0 1 0.87,-3 3.41,3.41 0 0 1 2.28,-1.26 2.71,2.71 0 0 1 2.32,0.65 3.31,3.31 0 0 1 0.91,2.59 z" />
  <path
     inkscape:connector-curvature="0"
     id="path888"
     style="fill:#f79b6f"
     d="m 1374.38,781.82 a 8.63,8.63 0 0 1 -1.29,4.69 9.5,9.5 0 0 1 -3.8,3.36 18.5,18.5 0 0 1 -6.11,1.78 14.33,14.33 0 0 1 -5.88,-0.27 7.15,7.15 0 0 1 -3.63,-2.15 4.65,4.65 0 0 1 -1.17,-3 2.81,2.81 0 0 1 0.75,-1.9 3,3 0 0 1 1.9,-1 2,2 0 0 1 1.54,0.29 4.43,4.43 0 0 1 1,1.24 5.74,5.74 0 0 0 2.34,2.24 6.66,6.66 0 0 0 3.73,0.34 6,6 0 0 0 3.14,-1.27 2.82,2.82 0 0 0 1.23,-2.11 2.28,2.28 0 0 0 -1.27,-2.29 14.31,14.31 0 0 0 -4.2,-0.91 32,32 0 0 1 -5.36,-1 7.37,7.37 0 0 1 -3.31,-1.93 4.84,4.84 0 0 1 -1.24,-3.46 7.17,7.17 0 0 1 1.15,-3.77 9.43,9.43 0 0 1 3.38,-3.17 14.09,14.09 0 0 1 5.38,-1.73 17.22,17.22 0 0 1 4.45,-0.08 9.85,9.85 0 0 1 3.3,0.94 5.61,5.61 0 0 1 2,1.65 3.32,3.32 0 0 1 0.69,2 2.72,2.72 0 0 1 -0.74,1.9 3.35,3.35 0 0 1 -2.09,1 2.38,2.38 0 0 1 -1.67,-0.34 8.78,8.78 0 0 1 -1.58,-1.47 4.66,4.66 0 0 0 -1.7,-1.27 5.06,5.06 0 0 0 -2.67,-0.21 5.82,5.82 0 0 0 -2.87,1.12 2.53,2.53 0 0 0 -1.15,2 1.68,1.68 0 0 0 0.85,1.53 5.87,5.87 0 0 0 2.26,0.76 q 1.42,0.24 3.93,0.51 a 19,19 0 0 1 4.85,1.08 6.75,6.75 0 0 1 2.85,2 4.73,4.73 0 0 1 1.01,2.9 z" />
  <path
     inkscape:connector-curvature="0"
     id="path890"
     style="fill:#f79b6f"
     d="m 1383,760.11 a 3.08,3.08 0 0 1 -2.28,-0.52 2.53,2.53 0 0 1 -0.94,-2.19 3.28,3.28 0 0 1 1,-2.36 3.69,3.69 0 0 1 2.25,-1.17 3,3 0 0 1 2.2,0.5 2.47,2.47 0 0 1 1,2.19 3.32,3.32 0 0 1 -0.94,2.42 3.72,3.72 0 0 1 -2.29,1.13 z m 3.16,6.17 v 18.44 a 4.62,4.62 0 0 1 -0.91,3 3.48,3.48 0 0 1 -2.32,1.29 2.55,2.55 0 0 1 -2.28,-0.7 3.81,3.81 0 0 1 -0.87,-2.76 V 767.3 a 4.61,4.61 0 0 1 0.87,-3 3.49,3.49 0 0 1 2.28,-1.26 2.77,2.77 0 0 1 2.32,0.65 3.33,3.33 0 0 1 0.91,2.59 z" />
  <path
     inkscape:connector-curvature="0"
     id="path892"
     style="fill:#f79b6f"
     d="m 1398.54,764.54 v 0.77 a 13.57,13.57 0 0 1 3.68,-3.75 10.88,10.88 0 0 1 4.59,-1.65 8.45,8.45 0 0 1 4.51,0.5 5.71,5.71 0 0 1 3,2.71 6.5,6.5 0 0 1 0.82,2.41 26.45,26.45 0 0 1 0.19,3.44 v 11.87 a 4.71,4.71 0 0 1 -0.88,3 3.36,3.36 0 0 1 -2.28,1.29 2.62,2.62 0 0 1 -2.31,-0.7 3.76,3.76 0 0 1 -0.89,-2.75 v -10.64 a 9.82,9.82 0 0 0 -0.88,-4.71 c -0.58,-1 -1.75,-1.44 -3.49,-1.2 a 5.92,5.92 0 0 0 -3.11,1.43 7,7 0 0 0 -2,3.06 20.35,20.35 0 0 0 -0.47,5.39 v 8 a 4.64,4.64 0 0 1 -0.9,3 3.51,3.51 0 0 1 -2.33,1.27 2.52,2.52 0 0 1 -2.26,-0.7 3.72,3.72 0 0 1 -0.89,-2.76 v -18.43 a 4.45,4.45 0 0 1 0.79,-2.83 3.19,3.19 0 0 1 2.18,-1.19 2.75,2.75 0 0 1 1.52,0.19 2.38,2.38 0 0 1 1.08,1 3.89,3.89 0 0 1 0.33,1.98 z" />
  <path
     inkscape:connector-curvature="0"
     id="path894"
     style="fill:#f79b6f"
     d="m 1439.46,770.1 -12.48,1.66 a 7.8,7.8 0 0 0 0.88,3.72 5,5 0 0 0 2.26,2.2 5.63,5.63 0 0 0 3.12,0.42 8.39,8.39 0 0 0 2.1,-0.54 8.26,8.26 0 0 0 1.83,-1.09 17.77,17.77 0 0 0 1.64,-1.44 c 0.49,-0.51 1.14,-1.18 1.94,-2 a 2.36,2.36 0 0 1 1.4,-0.6 2.11,2.11 0 0 1 1.59,0.32 1.71,1.71 0 0 1 0.6,1.44 4.62,4.62 0 0 1 -0.67,2.11 10,10 0 0 1 -2.05,2.49 13.73,13.73 0 0 1 -3.43,2.22 16.18,16.18 0 0 1 -4.76,1.34 q -6.15,0.81 -9.56,-2.24 -3.41,-3.05 -3.41,-9.05 a 16.9,16.9 0 0 1 0.84,-5.36 13.65,13.65 0 0 1 2.46,-4.48 13,13 0 0 1 4,-3.18 15.83,15.83 0 0 1 5.23,-1.62 11.56,11.56 0 0 1 6.42,0.73 8.55,8.55 0 0 1 4,3.54 9.83,9.83 0 0 1 1.33,4.92 3.63,3.63 0 0 1 -1.38,3.3 9.38,9.38 0 0 1 -3.9,1.19 z m -12.48,-2 11.57,-1.54 a 6.85,6.85 0 0 0 -1.77,-4.66 4.7,4.7 0 0 0 -4,-1.09 5.92,5.92 0 0 0 -3.91,2.17 9.33,9.33 0 0 0 -1.87,5.16 z" />
  <path
     inkscape:connector-curvature="0"
     id="path896"
     style="fill:#f79b6f"
     d="m 1462.74,766 a 3.62,3.62 0 0 1 0.47,-1.81 4.42,4.42 0 0 1 1.28,-1.44 3.72,3.72 0 0 1 1.73,-0.69 3.07,3.07 0 0 1 2.51,0.68 2.91,2.91 0 0 1 1,2.33 4,4 0 0 1 -5.27,3.79 2.72,2.72 0 0 1 -1.72,-2.86 z" />
  <path
     inkscape:connector-curvature="0"
     id="path898"
     style="fill:#f79b6f"
     d="m 1504.89,769.88 -5.63,-8.5 -3.46,3.73 v 5.07 a 4.37,4.37 0 0 1 -1,3 3.5,3.5 0 0 1 -2.23,1.29 2.55,2.55 0 0 1 -2.31,-0.67 3.91,3.91 0 0 1 -0.84,-2.79 v -27.2 a 6,6 0 0 1 0.81,-3.35 3.23,3.23 0 0 1 2.34,-1.42 2.59,2.59 0 0 1 2.34,0.7 4,4 0 0 1 0.86,2.85 V 758 l 7.18,-8.48 a 21.36,21.36 0 0 1 2,-2.19 3.21,3.21 0 0 1 1.7,-0.74 2.49,2.49 0 0 1 2,0.5 2.19,2.19 0 0 1 0.8,1.8 q 0,1.4 -2.6,4.08 l -3.39,3.56 6.55,9.41 c 0.48,0.7 0.83,1.23 1,1.6 a 2.22,2.22 0 0 1 0.31,1.1 3.77,3.77 0 0 1 -0.83,2.5 3.3,3.3 0 0 1 -2.18,1.17 2.23,2.23 0 0 1 -1.8,-0.39 12.7,12.7 0 0 1 -1.62,-2.04 z" />
  <path
     inkscape:connector-curvature="0"
     id="path900"
     style="fill:#f79b6f"
     d="m 1518.47,742.09 a 3,3 0 0 1 -2.28,-0.51 2.53,2.53 0 0 1 -1,-2.19 3.3,3.3 0 0 1 1,-2.36 3.81,3.81 0 0 1 2.26,-1.18 3.05,3.05 0 0 1 2.2,0.5 2.51,2.51 0 0 1 0.95,2.19 3.35,3.35 0 0 1 -0.93,2.43 3.71,3.71 0 0 1 -2.2,1.12 z m 3.15,6.17 v 18.44 a 4.59,4.59 0 0 1 -0.91,3 3.54,3.54 0 0 1 -2.31,1.29 2.56,2.56 0 0 1 -2.28,-0.7 3.82,3.82 0 0 1 -0.88,-2.76 V 749.3 a 4.61,4.61 0 0 1 0.88,-3 3.37,3.37 0 0 1 2.28,-1.26 2.68,2.68 0 0 1 2.31,0.65 3.29,3.29 0 0 1 0.91,2.57 z" />
  <path
     inkscape:connector-curvature="0"
     id="path902"
     style="fill:#f79b6f"
     d="m 1528.56,744.28 0.71,-0.1 v -3.83 c 0,-1 0,-1.84 0.08,-2.43 a 3.94,3.94 0 0 1 0.45,-1.57 3.51,3.51 0 0 1 1.08,-1.2 3.42,3.42 0 0 1 1.56,-0.62 2.8,2.8 0 0 1 2.2,0.62 2.31,2.31 0 0 1 0.83,1.37 12.77,12.77 0 0 1 0.18,2.47 v 4.35 L 1538,743 a 2.76,2.76 0 0 1 2.07,0.36 1.88,1.88 0 0 1 0.71,1.56 2.15,2.15 0 0 1 -1,1.93 7.35,7.35 0 0 1 -2.91,0.9 l -1.19,0.16 v 11.73 a 18.93,18.93 0 0 0 0.1,2.29 2,2 0 0 0 0.56,1.23 1.71,1.71 0 0 0 1.48,0.31 8.24,8.24 0 0 0 1.52,-0.4 8.54,8.54 0 0 1 1.5,-0.4 1.72,1.72 0 0 1 1.39,0.43 1.85,1.85 0 0 1 0.62,1.45 3,3 0 0 1 -1.68,2.59 12.61,12.61 0 0 1 -4.84,1.46 7.9,7.9 0 0 1 -4.53,-0.4 3.91,3.91 0 0 1 -2,-2.52 18.56,18.56 0 0 1 -0.47,-4.68 v -12.21 l -0.85,0.11 a 2.78,2.78 0 0 1 -2.1,-0.37 1.89,1.89 0 0 1 -0.72,-1.57 2.37,2.37 0 0 1 0.76,-1.75 3.79,3.79 0 0 1 2.14,-0.93 z" />
  <path
     inkscape:connector-curvature="0"
     id="path904"
     style="fill:#f79b6f"
     d="m 1568,756.51 a 6,6 0 0 1 -0.71,2.64 10.54,10.54 0 0 1 -2.17,2.87 13.38,13.38 0 0 1 -3.68,2.47 17.25,17.25 0 0 1 -5,1.41 q -5.91,0.78 -9.23,-2.22 -3.32,-3 -3.32,-8.8 a 16.38,16.38 0 0 1 1.52,-7.14 13.12,13.12 0 0 1 4.39,-5.25 15.19,15.19 0 0 1 6.87,-2.56 13.18,13.18 0 0 1 4.55,0.12 10.3,10.3 0 0 1 3.5,1.4 7.41,7.41 0 0 1 2.2,2.15 4.39,4.39 0 0 1 0.76,2.32 2.91,2.91 0 0 1 -0.86,2.05 3.32,3.32 0 0 1 -2.06,1.07 1.94,1.94 0 0 1 -1.32,-0.23 5.48,5.48 0 0 1 -1.18,-1.16 7.86,7.86 0 0 0 -2.45,-2.34 5,5 0 0 0 -3.23,-0.46 6.44,6.44 0 0 0 -4.56,2.81 10.63,10.63 0 0 0 -1.73,6.27 10.91,10.91 0 0 0 0.45,3.25 6.25,6.25 0 0 0 1.28,2.4 4.53,4.53 0 0 0 2,1.34 5.82,5.82 0 0 0 2.62,0.2 6.63,6.63 0 0 0 3.28,-1.32 9.35,9.35 0 0 0 2.42,-3 7.45,7.45 0 0 1 1.26,-1.85 2.78,2.78 0 0 1 1.66,-0.83 2.16,2.16 0 0 1 1.94,0.63 2.46,2.46 0 0 1 0.8,1.76 z" />
  <path
     inkscape:connector-curvature="0"
     id="path906"
     style="fill:#f79b6f"
     d="m 1578.64,731.45 v 9.46 a 16.39,16.39 0 0 1 2.38,-2.53 10,10 0 0 1 2.56,-1.57 11.32,11.32 0 0 1 3,-0.81 8.31,8.31 0 0 1 4.31,0.46 6,6 0 0 1 3,2.59 6.61,6.61 0 0 1 0.91,2.44 20.3,20.3 0 0 1 0.23,3.23 v 12.22 a 4.76,4.76 0 0 1 -0.87,3 3.47,3.47 0 0 1 -2.33,1.29 c -2.1,0.28 -3.15,-0.88 -3.15,-3.46 V 747 a 9.17,9.17 0 0 0 -0.91,-4.58 c -0.61,-1 -1.77,-1.42 -3.46,-1.19 a 5.88,5.88 0 0 0 -3.08,1.38 7,7 0 0 0 -2,2.92 17.8,17.8 0 0 0 -0.52,5.14 v 8.44 a 4.79,4.79 0 0 1 -0.85,3 3.49,3.49 0 0 1 -2.37,1.31 c -2.1,0.27 -3.16,-0.88 -3.16,-3.46 V 732.3 a 4.86,4.86 0 0 1 0.83,-3 3.37,3.37 0 0 1 2.33,-1.28 2.65,2.65 0 0 1 2.37,0.66 3.87,3.87 0 0 1 0.78,2.77 z" />
  <path
     inkscape:connector-curvature="0"
     id="path908"
     style="fill:#f79b6f"
     d="m 1619.12,746.21 -12.48,1.66 a 7.8,7.8 0 0 0 0.88,3.72 4.92,4.92 0 0 0 2.26,2.19 5.54,5.54 0 0 0 3.12,0.43 8,8 0 0 0 2.1,-0.55 7.85,7.85 0 0 0 1.83,-1.08 17.77,17.77 0 0 0 1.64,-1.44 l 1.94,-2 a 2.36,2.36 0 0 1 1.4,-0.61 2.16,2.16 0 0 1 1.59,0.33 1.68,1.68 0 0 1 0.6,1.44 4.65,4.65 0 0 1 -0.67,2.11 10,10 0 0 1 -2,2.49 13.73,13.73 0 0 1 -3.43,2.22 16.18,16.18 0 0 1 -4.76,1.34 q -6.15,0.81 -9.56,-2.24 -3.41,-3.05 -3.41,-9.06 a 16.84,16.84 0 0 1 0.84,-5.35 13.81,13.81 0 0 1 2.45,-4.48 13,13 0 0 1 4,-3.18 15.83,15.83 0 0 1 5.23,-1.62 11.56,11.56 0 0 1 6.42,0.73 8.55,8.55 0 0 1 4,3.54 9.83,9.83 0 0 1 1.33,4.92 3.64,3.64 0 0 1 -1.44,3.28 9.38,9.38 0 0 1 -3.88,1.21 z m -12.48,-2 11.57,-1.54 a 6.85,6.85 0 0 0 -1.77,-4.66 4.7,4.7 0 0 0 -4,-1.09 5.88,5.88 0 0 0 -3.91,2.17 9.33,9.33 0 0 0 -1.89,5.16 z" />
  <path
     inkscape:connector-curvature="0"
     id="path910"
     style="fill:#f79b6f"
     d="m 1635.55,733 v 0.77 a 13.57,13.57 0 0 1 3.68,-3.75 10.88,10.88 0 0 1 4.59,-1.65 8.56,8.56 0 0 1 4.51,0.5 5.71,5.71 0 0 1 3,2.71 6.67,6.67 0 0 1 0.82,2.42 26.43,26.43 0 0 1 0.18,3.43 v 11.87 a 4.76,4.76 0 0 1 -0.87,3 3.39,3.39 0 0 1 -2.28,1.28 2.59,2.59 0 0 1 -2.31,-0.7 3.71,3.71 0 0 1 -0.89,-2.75 v -10.6 a 9.75,9.75 0 0 0 -0.88,-4.7 c -0.58,-1 -1.75,-1.44 -3.49,-1.21 a 5.88,5.88 0 0 0 -3.11,1.43 7,7 0 0 0 -2.06,3.06 20.85,20.85 0 0 0 -0.47,5.39 v 8 a 4.69,4.69 0 0 1 -0.89,3 3.56,3.56 0 0 1 -2.33,1.28 2.58,2.58 0 0 1 -2.27,-0.71 3.75,3.75 0 0 1 -0.88,-2.75 v -18.41 a 4.45,4.45 0 0 1 0.79,-2.83 3.17,3.17 0 0 1 2.17,-1.19 2.73,2.73 0 0 1 1.52,0.2 2.32,2.32 0 0 1 1.09,1 4,4 0 0 1 0.38,1.91 z" />
  <path
     inkscape:connector-curvature="0"
     id="path912"
     style="fill:#f79b6f"
     d="m 1047.84,760.31 -4.66,-11.64 -39.71,5.33 -4.67,13.14 q -2.73,7.7 -4.66,10.52 -1.93,2.82 -6.33,3.4 a 8.22,8.22 0 0 1 -6.6,-1.85 7.24,7.24 0 0 1 -2.86,-5.82 14.89,14.89 0 0 1 0.66,-4.22 c 0.45,-1.47 1.18,-3.55 2.2,-6.22 l 25,-66.75 c 0.71,-1.91 1.56,-4.22 2.56,-6.9 a 39,39 0 0 1 3.2,-6.79 15.59,15.59 0 0 1 4.47,-4.69 15.21,15.21 0 0 1 6.83,-2.48 13,13 0 0 1 6.89,0.65 11.07,11.07 0 0 1 4.47,3.44 24.08,24.08 0 0 1 2.86,4.91 q 1.17,2.69 3,7.17 L 1066,751.1 q 3,6.79 3,10.06 a 9.93,9.93 0 0 1 -2.83,6.61 10.8,10.8 0 0 1 -6.83,3.74 8.57,8.57 0 0 1 -4,-0.3 6.72,6.72 0 0 1 -2.79,-1.9 17.37,17.37 0 0 1 -2.44,-4.07 c -0.9,-1.86 -1.65,-3.51 -2.27,-4.93 z m -39.18,-21.91 29.19,-3.88 -14.73,-38.36 z" />
  <path
     inkscape:connector-curvature="0"
     id="path914"
     style="fill:#f79b6f"
     d="m 1130.42,751.79 v -2.33 a 50,50 0 0 1 -6.87,7.84 30.11,30.11 0 0 1 -7.86,5.21 34.22,34.22 0 0 1 -9.73,2.66 23.61,23.61 0 0 1 -11.82,-1.16 16.51,16.51 0 0 1 -8.1,-6.45 q -3.39,-5.35 -3.4,-16.21 v -36 c 0,-3.65 0.83,-6.48 2.47,-8.49 a 9.74,9.74 0 0 1 6.53,-3.57 7.72,7.72 0 0 1 6.66,1.84 q 2.54,2.4 2.53,7.8 V 732 a 43.17,43.17 0 0 0 1.07,10.49 10.8,10.8 0 0 0 3.83,6.22 c 1.84,1.38 4.34,1.85 7.5,1.43 a 17.3,17.3 0 0 0 8.66,-3.88 19.29,19.29 0 0 0 5.93,-7.92 q 1.53,-4.07 1.53,-17.12 v -22.13 q 0,-5.39 2.53,-8.46 a 9.93,9.93 0 0 1 6.6,-3.61 7.49,7.49 0 0 1 6.53,1.83 q 2.46,2.37 2.46,7.83 v 52.71 c 0,3.46 -0.78,6.17 -2.36,8.11 a 9.15,9.15 0 0 1 -6.1,3.41 7,7 0 0 1 -6.16,-1.88 q -2.43,-2.38 -2.43,-7.24 z" />
  <path
     inkscape:connector-curvature="0"
     id="path916"
     style="fill:#f79b6f"
     d="m 1167.55,684.75 2,-0.26 v -10.93 q 0,-4.39 0.23,-6.93 a 11.5,11.5 0 0 1 1.3,-4.47 9.93,9.93 0 0 1 3.07,-3.44 9.81,9.81 0 0 1 4.46,-1.76 8.06,8.06 0 0 1 6.27,1.77 6.5,6.5 0 0 1 2.36,3.92 37.53,37.53 0 0 1 0.5,7 v 12.39 l 6.66,-0.89 c 2.58,-0.34 4.54,0 5.9,1.05 a 5.27,5.27 0 0 1 2,4.43 6.09,6.09 0 0 1 -2.9,5.51 20.52,20.52 0 0 1 -8.29,2.57 l -3.4,0.45 v 33.45 a 53.11,53.11 0 0 0 0.3,6.52 5.76,5.76 0 0 0 1.6,3.52 q 1.29,1.26 4.23,0.87 a 24,24 0 0 0 4.33,-1.14 23.6,23.6 0 0 1 4.26,-1.13 4.84,4.84 0 0 1 4,1.24 5.17,5.17 0 0 1 1.77,4.13 q 0,4.4 -4.8,7.36 -4.8,2.96 -13.79,4.17 -8.53,1.14 -12.93,-1.15 a 11.06,11.06 0 0 1 -5.76,-7.16 51.52,51.52 0 0 1 -1.37,-13.34 v -34.89 l -2.4,0.32 c -2.62,0.35 -4.62,0 -6,-1.07 a 5.3,5.3 0 0 1 -2.06,-4.45 6.76,6.76 0 0 1 2.17,-5 10.79,10.79 0 0 1 6.29,-2.66 z" />
  <path
     inkscape:connector-curvature="0"
     id="path918"
     style="fill:#f79b6f"
     d="m 1283.91,704.66 a 46.08,46.08 0 0 1 -2.53,15.33 39.65,39.65 0 0 1 -7.33,12.77 39,39 0 0 1 -11.46,9.08 44.29,44.29 0 0 1 -15,4.63 37.73,37.73 0 0 1 -14.86,-0.69 27.24,27.24 0 0 1 -18.73,-16.86 40.28,40.28 0 0 1 -2.5,-14.63 46.46,46.46 0 0 1 2.53,-15.46 39,39 0 0 1 7.27,-12.69 38.5,38.5 0 0 1 11.46,-9 44.22,44.22 0 0 1 14.86,-4.61 38.71,38.71 0 0 1 15,0.67 26.8,26.8 0 0 1 18.79,16.8 40.35,40.35 0 0 1 2.5,14.66 z m -18.26,2.43 q 0,-11.13 -4.9,-16.68 -4.9,-5.55 -13.15,-4.41 a 18.45,18.45 0 0 0 -9.4,4 21,21 0 0 0 -6.26,9 35.43,35.43 0 0 0 -2.2,12.88 30.8,30.8 0 0 0 2.16,12.12 13.92,13.92 0 0 0 15.7,8.91 18.51,18.51 0 0 0 13.15,-8 q 4.91,-6.82 4.9,-17.82 z" />
  <path
     inkscape:connector-curvature="0"
     id="path920"
     style="fill:#f79b6f"
     d="m 1315.71,673.51 v 2.2 a 38.79,38.79 0 0 1 10.5,-10.69 31.12,31.12 0 0 1 13.09,-4.71 24.45,24.45 0 0 1 12.86,1.43 16.43,16.43 0 0 1 8.46,7.73 18.62,18.62 0 0 1 2.33,6.89 72.19,72.19 0 0 1 0.53,9.79 V 720 q 0,5.46 -2.49,8.59 a 9.62,9.62 0 0 1 -6.5,3.66 7.45,7.45 0 0 1 -6.6,-2 q -2.54,-2.53 -2.53,-7.86 v -30.3 q 0,-9 -2.5,-13.43 -2.5,-4.43 -10,-3.44 a 16.88,16.88 0 0 0 -8.86,4.08 20,20 0 0 0 -5.86,8.74 q -1.34,4.25 -1.34,15.37 v 22.79 c 0,3.69 -0.85,6.56 -2.56,8.63 a 10,10 0 0 1 -6.63,3.65 7.28,7.28 0 0 1 -6.46,-2 q -2.54,-2.54 -2.54,-7.86 v -52.57 q 0,-5.2 2.27,-8.07 a 9.11,9.11 0 0 1 6.2,-3.39 7.86,7.86 0 0 1 4.33,0.56 6.72,6.72 0 0 1 3.1,3 11.1,11.1 0 0 1 1.2,5.36 z" />
  <path
     inkscape:connector-curvature="0"
     id="path922"
     style="fill:#f79b6f"
     d="m 1450.66,682.48 a 46.08,46.08 0 0 1 -2.53,15.33 38.94,38.94 0 0 1 -18.79,21.86 44.5,44.5 0 0 1 -15,4.62 37.73,37.73 0 0 1 -14.86,-0.69 27.24,27.24 0 0 1 -18.76,-16.86 40.23,40.23 0 0 1 -2.5,-14.62 46.31,46.31 0 0 1 2.54,-15.47 39,39 0 0 1 7.24,-12.65 38.5,38.5 0 0 1 11.46,-9 44.52,44.52 0 0 1 14.86,-4.61 38.7,38.7 0 0 1 15,0.68 26.8,26.8 0 0 1 18.82,16.82 40.29,40.29 0 0 1 2.52,14.59 z m -18.26,2.43 q 0,-11.13 -4.89,-16.67 -4.89,-5.54 -13.16,-4.45 a 18.46,18.46 0 0 0 -9.4,4 21,21 0 0 0 -6.26,9 35.48,35.48 0 0 0 -2.2,12.89 30.84,30.84 0 0 0 2.16,12.17 13.92,13.92 0 0 0 15.7,8.91 18.62,18.62 0 0 0 13.16,-8 q 4.89,-6.85 4.89,-17.85 z" />
  <path
     inkscape:connector-curvature="0"
     id="path924"
     style="fill:#ffffff"
     d="m 1529.15,673.38 v 24.19 q 0,5.73 -2.6,8.94 a 10.23,10.23 0 0 1 -6.86,3.78 7.63,7.63 0 0 1 -6.7,-2 q -2.57,-2.52 -2.56,-8.25 v -29 a 91.48,91.48 0 0 0 -0.47,-10.6 10.09,10.09 0 0 0 -2.53,-5.89 q -2.07,-2.16 -6.53,-1.56 -8.93,1.18 -11.76,7.69 -2.83,6.51 -2.83,18 v 24.58 q 0,5.67 -2.57,8.91 a 10,10 0 0 1 -6.74,3.83 7.73,7.73 0 0 1 -6.76,-2 q -2.64,-2.55 -2.64,-8.22 v -52 c 0,-3.42 0.79,-6.13 2.37,-8.11 a 9.2,9.2 0 0 1 6.23,-3.5 7.57,7.57 0 0 1 6.23,1.67 c 1.66,1.45 2.5,3.63 2.5,6.57 v 1.73 a 38.52,38.52 0 0 1 10.07,-9.74 29.84,29.84 0 0 1 12,-4.26 22.51,22.51 0 0 1 11.79,1.17 17.54,17.54 0 0 1 8.13,7.18 38.42,38.42 0 0 1 9.86,-9.61 28.18,28.18 0 0 1 11.66,-4.25 25,25 0 0 1 12.86,1.22 15.41,15.41 0 0 1 8.06,7.33 q 2.34,4.62 2.33,15.21 v 35.51 c 0,3.82 -0.86,6.81 -2.6,9 a 10.16,10.16 0 0 1 -6.86,3.77 7.72,7.72 0 0 1 -6.76,-2 c -1.76,-1.69 -2.63,-4.43 -2.63,-8.21 v -30.63 a 69,69 0 0 0 -0.5,-9.33 9.23,9.23 0 0 0 -2.7,-5.57 c -1.47,-1.4 -3.69,-1.91 -6.66,-1.51 a 13.83,13.83 0 0 0 -6.83,3 17.49,17.49 0 0 0 -5,6.4 q -2.01,4.9 -2,16.56 z" />
  <path
     inkscape:connector-curvature="0"
     id="path926"
     style="fill:#f79b6f"
     d="m 1562.26,706.84 a 9.66,9.66 0 0 1 -8.41,-2.5 c -2.12,-2.06 -3.2,-5.3 -3.2,-9.63 v -30.58 a 66.25,66.25 0 0 0 -0.48,-9 7.33,7.33 0 0 0 -2.14,-4.46 c -1,-1 -2.68,-1.32 -5,-1 a 11.23,11.23 0 0 0 -5.61,2.51 14.8,14.8 0 0 0 -4.26,5.43 c -1.16,2.82 -1.77,8.07 -1.77,15.51 v 24.18 c 0,4.37 -1.07,7.91 -3.17,10.51 a 12.83,12.83 0 0 1 -8.51,4.73 9.51,9.51 0 0 1 -8.35,-2.5 c -2.08,-2 -3.14,-5.29 -3.14,-9.66 v -29 a 89.35,89.35 0 0 0 -0.45,-10.33 8.13,8.13 0 0 0 -2,-4.8 c -0.94,-1 -2.52,-1.31 -4.83,-1 -5.06,0.67 -8.24,2.68 -9.74,6.14 -1.75,4 -2.63,9.72 -2.63,17 V 703 c 0,4.31 -1,7.83 -3.13,10.45 a 12.52,12.52 0 0 1 -8.42,4.77 9.69,9.69 0 0 1 -8.41,-2.51 c -2.13,-2.06 -3.21,-5.3 -3.21,-9.63 V 654 a 15.17,15.17 0 0 1 2.93,-9.66 11.71,11.71 0 0 1 7.89,-4.46 9.5,9.5 0 0 1 7.78,2.12 8.83,8.83 0 0 1 2.76,4.66 37.19,37.19 0 0 1 7.31,-6.12 32.27,32.27 0 0 1 13,-4.62 24.67,24.67 0 0 1 12.87,1.3 18.77,18.77 0 0 1 7.31,5.57 38.74,38.74 0 0 1 8.59,-7.75 30.57,30.57 0 0 1 12.67,-4.63 27.11,27.11 0 0 1 13.92,1.35 17.27,17.27 0 0 1 9,8.18 c 1.72,3.42 2.56,8.69 2.56,16.16 v 35.51 c 0,4.37 -1.07,7.91 -3.18,10.51 a 12.75,12.75 0 0 1 -8.55,4.72 z M 1543,645.2 c 3.61,-0.48 6.4,0.19 8.3,2 a 11.22,11.22 0 0 1 3.26,6.69 71.9,71.9 0 0 1 0.52,9.63 v 30.59 c 0,3.19 0.69,5.47 2.05,6.79 a 5.8,5.8 0 0 0 5.12,1.49 7.69,7.69 0 0 0 5.22,-2.83 c 1.34,-1.66 2,-4.14 2,-7.37 v -35.5 c 0,-6.7 -0.71,-11.51 -2.12,-14.3 a 13.47,13.47 0 0 0 -7.11,-6.44 23.05,23.05 0 0 0 -11.8,-1.1 25.78,25.78 0 0 0 -10.65,3.87 35.84,35.84 0 0 0 -9.15,8.95 l -2,2.75 -1.6,-2.56 a 15.94,15.94 0 0 0 -7.29,-6.47 20.56,20.56 0 0 0 -10.71,-1 27.13,27.13 0 0 0 -11,3.9 35.88,35.88 0 0 0 -9.41,9 l -3.92,5.22 v -7.86 c 0,-2.34 -0.61,-4 -1.85,-5.08 a 5.6,5.6 0 0 0 -4.66,-1.22 6.66,6.66 0 0 0 -4.57,2.52 10.39,10.39 0 0 0 -1.81,6.56 v 52 c 0,3.19 0.7,5.47 2.06,6.79 a 5.8,5.8 0 0 0 5.12,1.49 7.44,7.44 0 0 0 5.1,-2.82 c 1.33,-1.69 2,-4.16 2,-7.36 V 679 c 0,-8 1,-14.23 3,-18.92 2.27,-5.23 6.91,-8.34 13.78,-9.25 3.64,-0.49 6.41,0.23 8.22,2.12 a 11.93,11.93 0 0 1 3,7 91.42,91.42 0 0 1 0.49,10.87 v 29 c 0,3.24 0.67,5.54 2,6.85 a 5.67,5.67 0 0 0 5,1.45 7.67,7.67 0 0 0 5.21,-2.83 c 1.35,-1.65 2,-4.13 2,-7.37 v -24.24 c 0,-8.16 0.71,-13.87 2.18,-17.44 a 20.44,20.44 0 0 1 5.84,-7.47 16.32,16.32 0 0 1 8.18,-3.57 z" />
  <path
     inkscape:connector-curvature="0"
     id="path928"
     style="fill:#ffffff"
     d="m 1638.79,661.93 -35.58,4.73 a 22,22 0 0 0 2.5,10.6 14.1,14.1 0 0 0 6.46,6.27 15.83,15.83 0 0 0 8.89,1.21 23.12,23.12 0 0 0 6,-1.56 22.59,22.59 0 0 0 5.23,-3.09 46.73,46.73 0 0 0 4.66,-4.12 c 1.42,-1.43 3.27,-3.36 5.53,-5.8 a 6.8,6.8 0 0 1 4,-1.73 6,6 0 0 1 4.53,0.93 4.82,4.82 0 0 1 1.73,4.1 13.19,13.19 0 0 1 -1.93,6 27.88,27.88 0 0 1 -5.83,7.11 39.2,39.2 0 0 1 -9.79,6.33 45.8,45.8 0 0 1 -13.56,3.8 q -17.53,2.34 -27.26,-6.37 -9.73,-8.71 -9.72,-25.82 a 48.08,48.08 0 0 1 2.4,-15.28 39.23,39.23 0 0 1 7,-12.76 36.64,36.64 0 0 1 11.33,-9.06 44.35,44.35 0 0 1 14.92,-4.62 q 10.66,-1.43 18.29,2.06 A 24.45,24.45 0 0 1 1650,635 a 27.79,27.79 0 0 1 3.8,14 q 0,6.87 -3.93,9.42 -3.93,2.55 -11.08,3.51 z m -35.58,-5.59 33,-4.39 q -0.68,-9.24 -5,-13.29 -4.32,-4.05 -11.49,-3.1 a 16.87,16.87 0 0 0 -11.17,6.18 q -4.4,5.26 -5.34,14.6 z" />
  <path
     inkscape:connector-curvature="0"
     id="path930"
     style="fill:#f79b6f"
     d="m 1621.6,699 c -12.25,1.63 -22,-0.66 -28.85,-6.83 -6.85,-6.17 -10.35,-15.33 -10.35,-27.29 a 50.55,50.55 0 0 1 2.52,-16 41.81,41.81 0 0 1 7.47,-13.61 39.51,39.51 0 0 1 12.14,-9.73 47.19,47.19 0 0 1 15.73,-4.87 c 7.48,-1 14,-0.25 19.42,2.22 a 26.24,26.24 0 0 1 12.26,10.87 29.81,29.81 0 0 1 4.06,15 c 0,5.45 -1.73,9.33 -5.13,11.55 -3,1.93 -6.92,3.2 -12.08,3.88 l -33.25,4.42 a 18.91,18.91 0 0 0 2.14,7.41 12.41,12.41 0 0 0 5.63,5.49 13.64,13.64 0 0 0 7.75,1 21.24,21.24 0 0 0 5.36,-1.39 20,20 0 0 0 4.63,-2.75 45,45 0 0 0 4.41,-3.89 c 1.39,-1.4 3.23,-3.33 5.47,-5.73 a 9.27,9.27 0 0 1 5.52,-2.54 7.92,7.92 0 0 1 6,1.29 6.66,6.66 0 0 1 2.48,5.67 15.46,15.46 0 0 1 -2.23,7.18 30.61,30.61 0 0 1 -6.39,7.81 42,42 0 0 1 -10.44,6.77 48.09,48.09 0 0 1 -14.27,4.07 z m -1.34,-74 a 42.19,42.19 0 0 0 -14.11,4.36 34,34 0 0 0 -10.51,8.4 36.73,36.73 0 0 0 -6.53,11.91 46,46 0 0 0 -2.27,14.53 c 0,10.77 3.06,19 9.1,24.36 6.04,5.36 14.65,7.37 25.66,5.91 a 43.36,43.36 0 0 0 12.84,-3.59 36.76,36.76 0 0 0 9.15,-5.9 25.21,25.21 0 0 0 5.27,-6.4 11,11 0 0 0 1.63,-4.85 2.83,2.83 0 0 0 -1,-2.54 4.08,4.08 0 0 0 -3.06,-0.57 4.41,4.41 0 0 0 -2.55,1 c -2.2,2.36 -4.08,4.34 -5.51,5.78 a 51.9,51.9 0 0 1 -4.93,4.35 25.14,25.14 0 0 1 -5.83,3.44 26,26 0 0 1 -6.57,1.73 17.92,17.92 0 0 1 -10,-1.38 16,16 0 0 1 -7.3,-7.05 A 24.08,24.08 0 0 1 1601,667 v -2.24 l 37.83,-5 c 4.37,-0.58 7.75,-1.63 10,-3.12 1.81,-1.18 2.73,-3.63 2.73,-7.28 a 25.84,25.84 0 0 0 -3.54,-13 22.67,22.67 0 0 0 -10.59,-9.35 c -4.72,-2.22 -10.5,-2.86 -17.17,-2.01 z m 18.31,28.81 -37.82,5 0.25,-2.47 c 0.67,-6.69 2.64,-12.06 5.88,-16 a 19.4,19.4 0 0 1 12.79,-7.1 c 5.36,-0.72 9.77,0.49 13.1,3.58 3.33,3.09 5.15,7.93 5.64,14.58 z m -32.82,-0.07 28,-3.72 c -0.62,-4.41 -2,-7.65 -4.19,-9.66 -2.49,-2.32 -5.72,-3.17 -9.87,-2.62 a 14.25,14.25 0 0 0 -9.54,5.26 22.26,22.26 0 0 0 -4.4,10.78 z" />
  <path
     inkscape:connector-curvature="0"
     id="path932"
     style="fill:#f79b6f"
     d="m 1642.87,603.66 -44.69,6 a 5.13,5.13 0 0 1 -6,-5.19 7.06,7.06 0 0 1 6,-6.78 l 44.69,-5.94 a 5.12,5.12 0 0 1 6,5.19 7,7 0 0 1 -6,6.72 z" />
  <polygon
     transform="translate(-59,-242)"
     id="polygon934"
     style="fill:#ffffff;stroke:#010101;stroke-width:24.3175px;stroke-miterlimit:15.1181"
     points="523.92,492.53 71,412.53 71,1639.87 523.92,1719.87 " />
  <polyline
     transform="translate(-59,-242)"
     id="polyline936"
     style="fill:#ffffff;stroke:#010101;stroke-width:24px;stroke-miterlimit:15.1181"
     points="71 412.53 1468.37 254 1916.49 307.43" />
</svg>
