<svg id="Layer_1" data-name="Layer 1" xmlns="http://www.w3.org/2000/svg" viewBox="0 0 2000 1100"><path d="M1000.75,1073C1446.56,1073,1970,835.8,1970,297c0-126.92-433.95-243.58-969.25-243.58h-1.5C464,53.39,30,170.05,30,297c0,538.83,523.44,776,969.25,776" style="fill:#fff;stroke:#231f20;stroke-miterlimit:10;stroke-width:24px"/><path d="M92.72,299.59V529.71L353,859.45H1641l266.28-352.64V299.59c0,60.82-405.85,150.94-906.48,150.94h-1.6C498.57,450.53,92.72,360.41,92.72,299.59Z" style="fill:#fff"/><path d="M1101.94,856.82q0,20.83-23.58,20.83H929q-10.21,0-16.11-6.1A20.85,20.85,0,0,1,907,856.43q0-11.79,9-21.22l89.6-96.28q16.5-18.07,24.17-33.21t7.66-30.06q0-18.46-10.61-28.29t-30.26-9.83a83.1,83.1,0,0,0-31.24,6.09,156.12,156.12,0,0,0-30.45,16.71,48.73,48.73,0,0,1-7.86,4.51,19,19,0,0,1-7.86,1.77q-6.69,0-11.59-6.28a23.51,23.51,0,0,1-4.92-14.94,22.57,22.57,0,0,1,2.16-10.21,26.45,26.45,0,0,1,6.88-8.26,136.62,136.62,0,0,1,40.48-21.81,140.72,140.72,0,0,1,46.37-8q40.47,0,64.64,20.43t24.17,55a101.58,101.58,0,0,1-10.22,45q-10.23,21-34.58,47l-68,72.31h103.74Q1101.94,836.78,1101.94,856.82Z" style="fill:#231f20"/><path d="M1907.28,289.59c0,60.82-405.85,150.94-906.48,150.94h-1.6c-500.63,0-906.48-90.12-906.48-150.94" style="fill:none;stroke:#231f20;stroke-linecap:round;stroke-miterlimit:10;stroke-width:24px"/></svg>