<?xml version="1.0" encoding="UTF-8" standalone="no"?>
<svg
   xmlns:dc="http://purl.org/dc/elements/1.1/"
   xmlns:cc="http://creativecommons.org/ns#"
   xmlns:rdf="http://www.w3.org/1999/02/22-rdf-syntax-ns#"
   xmlns:svg="http://www.w3.org/2000/svg"
   xmlns="http://www.w3.org/2000/svg"
   xmlns:sodipodi="http://sodipodi.sourceforge.net/DTD/sodipodi-0.dtd"
   xmlns:inkscape="http://www.inkscape.org/namespaces/inkscape"
   inkscape:export-ydpi="94.199997"
   inkscape:export-xdpi="94.199997"
   inkscape:export-filename="/Volumes/GoogleDrive/Shared drives/Autonome Team Drive/03 - Application &amp; Web Site/Application/Assets/Pictograms/Tools/png/bowl2_sticker.png"
   id="Layer_1"
   data-name="Layer 1"
   width="254"
   height="135.39912"
   viewBox="0 0 253.99999 135.39913"
   version="1.1"
   sodipodi:docname="bowl2_sticker.svg"
   inkscape:version="1.0beta1 (32d4812, 2019-09-19)">
  <metadata
     id="metadata884">
    <rdf:RDF>
      <cc:Work
         rdf:about="">
        <dc:format>image/svg+xml</dc:format>
        <dc:type
           rdf:resource="http://purl.org/dc/dcmitype/StillImage" />
        <dc:title />
      </cc:Work>
    </rdf:RDF>
  </metadata>
  <sodipodi:namedview
     pagecolor="#ffffff"
     bordercolor="#666666"
     inkscape:document-rotation="0"
     borderopacity="1"
     objecttolerance="10"
     gridtolerance="10"
     guidetolerance="10"
     inkscape:pageopacity="0"
     inkscape:pageshadow="2"
     inkscape:window-width="1600"
     inkscape:window-height="907"
     id="namedview882"
     showgrid="false"
     inkscape:zoom="2.8"
     inkscape:cx="69.956789"
     inkscape:cy="60.069248"
     inkscape:window-x="0"
     inkscape:window-y="23"
     inkscape:window-maximized="0"
     inkscape:current-layer="layer2"
     fit-margin-top="2"
     fit-margin-left="2"
     fit-margin-bottom="2"
     fit-margin-right="2" />
  <defs
     id="defs835">
    <style
       id="style833">.cls-1,.cls-3,.cls-5{fill:#231f20;}.cls-1,.cls-2,.cls-3,.cls-6,.cls-8,.cls-9{stroke:#231f20;}.cls-1,.cls-2,.cls-3,.cls-6,.cls-8{stroke-miterlimit:10;}.cls-1,.cls-2{stroke-width:4px;}.cls-2,.cls-4{fill:#fff;}.cls-3{stroke-width:3px;}.cls-5{font-size:37.35px;font-family:ArialRoundedMTBold, Arial Rounded MT Bold;}.cls-6,.cls-8,.cls-9{fill:none;stroke-width:2px;}.cls-6{stroke-linecap:round;}.cls-7{fill:#915524;}.cls-9{stroke-linejoin:round;}</style>
  </defs>
  <path
     class="cls-2"
     d="M 127.0949,133.39913 C 184.55152,133.39913 252,102.82701 252,33.399132 252,17.035249 196.07538,2 127.0949,2 h -0.1898 C 57.92462,2 2,17.035249 2,33.399132 2,102.82701 69.462039,133.39913 126.9051,133.39913"
     id="path845"
     inkscape:connector-curvature="0" />
  <path
     class="cls-6"
     d="m 243.86551,32.463666 c 0,7.849783 -52.30477,19.454989 -116.81128,19.454989 h -0.20336 c -64.520067,0 -116.82484,-11.605206 -116.82484,-19.454989"
     id="path849"
     inkscape:connector-curvature="0" />
  <g
     inkscape:groupmode="layer"
     id="layer2"
     inkscape:label="number">
    <g
       aria-label="2"
       id="text847"
       style="font-size:133.333px;font-family:ArialRoundedMTBold, 'Arial Rounded MT Bold';fill:#231f20;stroke:#fffffc;stroke-width:2;stroke-miterlimit:4;stroke-dasharray:none;stroke-opacity:1"
       class="cls-5">
      <path
         d="m 116.49743,96.221088 h 33.98429 q 5.07811,0 7.74738,2.083328 2.66926,2.083324 2.66926,5.664044 0,3.1901 -2.14843,5.40364 -2.08333,2.21353 -6.38019,2.21353 h -47.91655 q -4.882798,0 -7.617166,-2.66926 -2.734368,-2.73437 -2.734368,-6.38019 0,-2.34375 1.757808,-6.184884 1.757808,-3.90624 3.841136,-6.119776 8.65883,-8.984352 15.62496,-15.364544 6.96613,-6.445296 9.96091,-8.46352 5.33853,-3.776032 8.85415,-7.552064 3.58072,-3.841136 5.40363,-7.81248 1.88801,-4.036448 1.88801,-7.877584 0,-4.166656 -2.01822,-7.421856 -1.95312,-3.320304 -5.40363,-5.143216 -3.38541,-1.822912 -7.42186,-1.822912 -8.52862,0 -13.41142,7.48696 -0.65104,0.97656 -2.21354,5.338528 -1.49739,4.361968 -3.45051,6.705712 -1.88802,2.343744 -5.59894,2.343744 -3.255204,0 -5.403636,-2.148432 -2.148432,-2.148432 -2.148432,-5.85936 0,-4.492176 2.018224,-9.374976 2.018224,-4.8828 5.989564,-8.854144 4.03645,-3.971344 10.15623,-6.380192 6.18488,-2.473952 14.45309,-2.473952 9.96091,0 16.99214,3.124992 4.55728,2.083328 8.00779,5.729152 3.45051,3.645824 5.33853,8.46352 1.95312,4.752592 1.95312,9.895808 0,8.072896 -4.03645,14.713504 -3.97134,6.575504 -8.138,10.351536 -4.16665,3.710928 -13.99736,11.71872 -9.7656,8.007792 -13.41142,12.434864 -1.5625,1.757808 -3.1901,4.23176 z"
         style="stroke:#fffffc;stroke-width:2;stroke-miterlimit:4;stroke-dasharray:none;stroke-opacity:1"
         id="path1011"
         inkscape:connector-curvature="0" />
    </g>
  </g>
</svg>
