<?xml version="1.0" encoding="UTF-8" standalone="no"?>
<svg
   xmlns:dc="http://purl.org/dc/elements/1.1/"
   xmlns:cc="http://creativecommons.org/ns#"
   xmlns:rdf="http://www.w3.org/1999/02/22-rdf-syntax-ns#"
   xmlns:svg="http://www.w3.org/2000/svg"
   xmlns="http://www.w3.org/2000/svg"
   xmlns:sodipodi="http://sodipodi.sourceforge.net/DTD/sodipodi-0.dtd"
   xmlns:inkscape="http://www.inkscape.org/namespaces/inkscape"
   inkscape:version="1.0beta1 (32d4812, 2019-09-19)"
   height="768.59308"
   width="1928.9614"
   sodipodi:docname="can_opener.svg"
   version="1.1"
   viewBox="0 0 1928.9614 768.59309"
   data-name="Layer 1"
   id="Layer_1">
  <metadata
     id="metadata6156">
    <rdf:RDF>
      <cc:Work
         rdf:about="">
        <dc:format>image/svg+xml</dc:format>
        <dc:type
           rdf:resource="http://purl.org/dc/dcmitype/StillImage" />
        <dc:title></dc:title>
      </cc:Work>
    </rdf:RDF>
  </metadata>
  <defs
     id="defs6154" />
  <sodipodi:namedview
     inkscape:current-layer="Layer_1"
     inkscape:window-maximized="0"
     inkscape:window-y="25"
     inkscape:window-x="0"
     inkscape:cy="381.37789"
     inkscape:cx="-712.41237"
     inkscape:zoom="0.2425"
     fit-margin-bottom="12"
     fit-margin-right="12"
     fit-margin-left="17"
     lock-margins="false"
     fit-margin-top="12"
     showgrid="false"
     id="namedview6152"
     inkscape:window-height="480"
     inkscape:window-width="1657"
     inkscape:pageshadow="2"
     inkscape:pageopacity="0"
     guidetolerance="10"
     gridtolerance="10"
     objecttolerance="10"
     borderopacity="1"
     inkscape:document-rotation="0"
     bordercolor="#666666"
     pagecolor="#ffffff" />
  <path
     inkscape:connector-curvature="0"
     id="path6135"
     style="fill:#ffffff;stroke:#231f20;stroke-width:24px;stroke-linecap:round;stroke-miterlimit:10"
     d="m 942.52,113.5729 h 928.81 c 128.31,544.1 -184.82,530.65 -322.78,505.34 -97.66,-70.24 -180.77,-100.79 -263.54,-74.4 -97.67,31.13 -115.38,127.37 -3.69,192.57 9.22,5.38 5.38,19.57 -5.3,19.51 -55.49,-0.33 -156.06,-18.43 -198.73,-137.68 H 942.52 v -179.25 0 a 39.2,39.2 0 0 0 39.2,-39.21 v -68.5 a 39.21,39.21 0 0 0 -39.2,-39.21 v 0 z" />
  <path
     inkscape:connector-curvature="0"
     id="path6137"
     style="fill:#231f20;stroke:#231f20;stroke-width:33.7542px;stroke-linecap:round;stroke-miterlimit:10"
     d="m 106.61,113.5729 h 835.9 v 179.17 H 106.61 A 89.61,89.61 0 0 1 17,203.1429 v 0 a 89.61,89.61 0 0 1 89.61,-89.57 z" />
  <path
     inkscape:connector-curvature="0"
     id="path6139"
     style="fill:#231f20;stroke:#231f20;stroke-width:33.754;stroke-linecap:round;stroke-miterlimit:10;stroke-dasharray:none"
     d="m 106.61,439.6629 h 835.9 v 179.21 H 106.61 A 89.61,89.61 0 0 1 17,529.2729 v 0 a 89.61,89.61 0 0 1 89.61,-89.61 z" />
  <line
     id="line6141"
     style="fill:#ffffff;stroke:#231f20;stroke-width:24px;stroke-linecap:round;stroke-miterlimit:10"
     y2="367.33292"
     x2="1439.33"
     y1="367.33292"
     x1="981.71997" />
  <line
     id="line6143"
     style="fill:#ffffff;stroke:#231f20;stroke-width:24px;stroke-linecap:round;stroke-miterlimit:10"
     y2="113.53291"
     x2="1127.92"
     y1="367.33292"
     x1="1127.92" />
  <rect
     id="rect6145"
     style="fill:#ffffff;stroke:#231f20;stroke-width:24px;stroke-linecap:round;stroke-miterlimit:10"
     transform="rotate(42.92)"
     rx="27.120001"
     height="159.66"
     width="885.69"
     y="-870.74536"
     x="937.57684" />
  <circle
     id="circle6147"
     style="fill:#ffffff;stroke:#231f20;stroke-width:24px;stroke-linecap:round;stroke-miterlimit:10"
     r="77.349998"
     cy="359.87289"
     cx="1548.55" />
  <circle
     id="circle6149"
     style="fill:#ffffff;stroke:#231f20;stroke-width:24px;stroke-linecap:round;stroke-miterlimit:10"
     r="54.700001"
     cy="240.43288"
     cx="1724.54" />
</svg>
