<?xml version="1.0" encoding="UTF-8" standalone="no"?>
<svg
   xmlns:dc="http://purl.org/dc/elements/1.1/"
   xmlns:cc="http://creativecommons.org/ns#"
   xmlns:rdf="http://www.w3.org/1999/02/22-rdf-syntax-ns#"
   xmlns:svg="http://www.w3.org/2000/svg"
   xmlns="http://www.w3.org/2000/svg"
   xmlns:sodipodi="http://sodipodi.sourceforge.net/DTD/sodipodi-0.dtd"
   xmlns:inkscape="http://www.inkscape.org/namespaces/inkscape"
   inkscape:version="1.0beta1 (32d4812, 2019-09-19)"
   height="1769.86"
   width="1924"
   sodipodi:docname="coffee_mug.svg"
   version="1.1"
   viewBox="0 0 1924 1769.86"
   data-name="Layer 1"
   id="Layer_1">
  <metadata
     id="metadata6728">
    <rdf:RDF>
      <cc:Work
         rdf:about="">
        <dc:format>image/svg+xml</dc:format>
        <dc:type
           rdf:resource="http://purl.org/dc/dcmitype/StillImage" />
        <dc:title></dc:title>
      </cc:Work>
    </rdf:RDF>
  </metadata>
  <defs
     id="defs6726" />
  <sodipodi:namedview
     inkscape:current-layer="Layer_1"
     inkscape:window-maximized="0"
     inkscape:window-y="25"
     inkscape:window-x="0"
     inkscape:cy="884.93498"
     inkscape:cx="138.40963"
     inkscape:zoom="0.15116738"
     fit-margin-bottom="12"
     fit-margin-right="12"
     fit-margin-left="12"
     lock-margins="true"
     fit-margin-top="12"
     showgrid="false"
     id="namedview6724"
     inkscape:window-height="480"
     inkscape:window-width="870"
     inkscape:pageshadow="2"
     inkscape:pageopacity="0"
     guidetolerance="10"
     gridtolerance="10"
     objecttolerance="10"
     borderopacity="1"
     inkscape:document-rotation="0"
     bordercolor="#666666"
     pagecolor="#ffffff" />
  <path
     inkscape:connector-curvature="0"
     id="path6719"
     style="fill:#ffffff;stroke:#231f20;stroke-width:24px;stroke-miterlimit:10"
     d="m 1912,795.54 c 0,-58.95 -14.45,-124.8 -53.65,-179.35 -79,-109.9 -226.25,-161.41 -380.21,-133.16 l -23.57,4.32 V 291.79 C 1454.57,137.27 1131.64,12 733.29,12 334.94,12 12,137.27 12,291.79 v 1186.29 c 0,154.52 322.93,279.78 721.29,279.78 398.36,0 721.28,-125.26 721.28,-279.78 v -131 C 1571.78,1299.93 1912,1132.76 1912,795.54 Z m -457.43,349.43 V 668.9 c 16,-6.09 38.61,-13 69.75,-19.26 82.22,-16.54 177.78,14.6 210.54,55.29 31,38.5 35.65,82.56 35.65,108.72 0,174.32 -196.51,286.99 -315.94,331.32 z" />
  <path
     inkscape:connector-curvature="0"
     id="path6721"
     style="fill:none;stroke:#231f20;stroke-width:24px;stroke-linecap:round;stroke-miterlimit:10"
     d="m 104.83,284.46 c 72.64,108.32 326.47,188.29 628.46,188.29 301.99,0 555.81,-80 628.45,-188.29" />
</svg>
