<?xml version="1.0" encoding="UTF-8" standalone="no"?>
<svg
   xmlns:dc="http://purl.org/dc/elements/1.1/"
   xmlns:cc="http://creativecommons.org/ns#"
   xmlns:rdf="http://www.w3.org/1999/02/22-rdf-syntax-ns#"
   xmlns:svg="http://www.w3.org/2000/svg"
   xmlns="http://www.w3.org/2000/svg"
   xmlns:sodipodi="http://sodipodi.sourceforge.net/DTD/sodipodi-0.dtd"
   xmlns:inkscape="http://www.inkscape.org/namespaces/inkscape"
   inkscape:version="1.0beta1 (32d4812, 2019-09-19)"
   height="644.43005"
   width="1963.9927"
   sodipodi:docname="cookie_sheet.svg"
   version="1.1"
   viewBox="0 0 1963.9927 644.43004"
   data-name="Layer 1"
   id="Layer_1">
  <metadata
     id="metadata7870">
    <rdf:RDF>
      <cc:Work
         rdf:about="">
        <dc:format>image/svg+xml</dc:format>
        <dc:type
           rdf:resource="http://purl.org/dc/dcmitype/StillImage" />
        <dc:title></dc:title>
      </cc:Work>
    </rdf:RDF>
  </metadata>
  <defs
     id="defs7868" />
  <sodipodi:namedview
     inkscape:current-layer="Layer_1"
     inkscape:window-maximized="0"
     inkscape:window-y="25"
     inkscape:window-x="0"
     inkscape:cy="322.22501"
     inkscape:cx="467.8364"
     inkscape:zoom="0.2425"
     fit-margin-bottom="12"
     fit-margin-right="12"
     fit-margin-left="12"
     lock-margins="true"
     fit-margin-top="12"
     showgrid="false"
     id="namedview7866"
     inkscape:window-height="480"
     inkscape:window-width="870"
     inkscape:pageshadow="2"
     inkscape:pageopacity="0"
     guidetolerance="10"
     gridtolerance="10"
     objecttolerance="10"
     borderopacity="1"
     inkscape:document-rotation="0"
     bordercolor="#666666"
     pagecolor="#ffffff" />
  <path
     inkscape:connector-curvature="0"
     id="path7859"
     style="fill:#f1f2f2;stroke:#231f20;stroke-width:15.5808px;stroke-miterlimit:10"
     d="m 1940.2385,582.66 -64.3,41.93 a 48.78,48.78 0 0 1 -26.58,7.84 H 114.35846 a 48.73,48.73 0 0 1 -26.199996,-7.6 l -60.37,-38.51" />
  <path
     inkscape:connector-curvature="0"
     id="path7861"
     style="fill:#f1f2f2;stroke:#231f20;stroke-width:24px;stroke-miterlimit:10"
     d="M 1879.7285,602.46 H 84.238464 c -54.49,0 -84.45999993,-30.49 -67.5,-66.93 L 243.12846,49.11 c 9.64,-20.71 49.25,-37.11 88.71,-37.11 H 1632.0885 c 39.46,0 79.07,16.4 88.71,37.11 l 226.44,486.42 c 17,36.44 -13,66.93 -67.51,66.93 z" />
  <path
     inkscape:connector-curvature="0"
     id="path7863"
     style="fill:none;stroke:#231f20;stroke-width:7.7904px;stroke-linecap:round;stroke-linejoin:round"
     d="M 63.428464,553.52 275.48846,84.59 c 7.87,-17.42 41,-31.26 74.1,-31.26 H 1614.3185 c 33.12,0 66.23,13.84 74.09,31.26 l 209.83,462.45" />
</svg>
