<?xml version="1.0" encoding="UTF-8" standalone="no"?>
<svg
   xmlns:dc="http://purl.org/dc/elements/1.1/"
   xmlns:cc="http://creativecommons.org/ns#"
   xmlns:rdf="http://www.w3.org/1999/02/22-rdf-syntax-ns#"
   xmlns:svg="http://www.w3.org/2000/svg"
   xmlns="http://www.w3.org/2000/svg"
   xmlns:sodipodi="http://sodipodi.sourceforge.net/DTD/sodipodi-0.dtd"
   xmlns:inkscape="http://www.inkscape.org/namespaces/inkscape"
   inkscape:version="1.0beta1 (32d4812, 2019-09-19)"
   height="483.72177"
   width="1900.02"
   sodipodi:docname="dirty_measuring_cup.svg"
   version="1.1"
   viewBox="0 0 1900.02 483.72177"
   data-name="Layer 1"
   id="Layer_1">
  <metadata
     id="metadata9016">
    <rdf:RDF>
      <cc:Work
         rdf:about="">
        <dc:format>image/svg+xml</dc:format>
        <dc:type
           rdf:resource="http://purl.org/dc/dcmitype/StillImage" />
        <dc:title></dc:title>
      </cc:Work>
    </rdf:RDF>
  </metadata>
  <defs
     id="defs9014" />
  <sodipodi:namedview
     inkscape:current-layer="Layer_1"
     inkscape:window-maximized="0"
     inkscape:window-y="25"
     inkscape:window-x="0"
     inkscape:cy="241.24186"
     inkscape:cx="436.59794"
     inkscape:zoom="0.2425"
     fit-margin-bottom="0"
     fit-margin-right="0"
     fit-margin-left="0"
     fit-margin-top="0"
     showgrid="false"
     id="namedview9012"
     inkscape:window-height="480"
     inkscape:window-width="870"
     inkscape:pageshadow="2"
     inkscape:pageopacity="0"
     guidetolerance="10"
     gridtolerance="10"
     objecttolerance="10"
     borderopacity="1"
     inkscape:document-rotation="0"
     bordercolor="#666666"
     pagecolor="#ffffff" />
  <g
     transform="translate(-50,-40.758138)"
     id="layer2">
    <path
       inkscape:connector-curvature="0"
       style="fill:#383850;stroke:#383850;stroke-width:2.51894px;stroke-miterlimit:11.3386"
       d="m 50,43.38 c 0,0 9.18,118.46 124.15,259.09 0,0 82.77,109.75 223.11,170.93 0,0 105.23,48.58 246.49,50.38 0,0 153.47,4.43 237.5,-9 26.72,-5.09 104,-37.73 144.16,-85.09 0,0 61.79,-59.38 105,-170.93 25.18,-81 26.15,-94.83 26.15,-94.83 3.29,-25.94 23.39,-32.75 32.38,-32.75 0,0 28.79,-9 77.37,-1.8 0,0 140,12.65 205.12,27.88 0,0 116.86,16.81 187.12,58.19 0,0 60.68,31.15 131.34,117.61 0,0 50.38,54 93.56,181.72 0,0 37.79,9 66.57,-7.2 C 1905,378 1849.22,306.07 1849.22,306.07 c -75.57,-108 -165.53,-147.54 -165.53,-147.54 -90,-52.18 -215.91,-70.17 -215.91,-70.17 -149.34,-19.79 -203.32,-21.59 -203.32,-21.59 -91.76,-7.2 -118.75,-9 -118.75,-9 C 389.94,32.88 415.26,42.34 50,43.38 Z"
       id="path1047" />
    <path
       inkscape:connector-curvature="0"
       style="fill:#ffffff;stroke:#ffffff;stroke-width:4.149px;stroke-miterlimit:11.3386"
       d="m 174.47,57.21 c 0,0 24.87,24.85 30.6,57.19 14.14,79.86 42.14,110.38 71.2,102.51 44.23,-12 56.62,-112.41 116.31,-120.83 30.42,-4.29 54.42,19.66 58.71,75.85 4.33,56.81 47,128.91 88.21,130.74 130.79,5.8 98.4,-166.27 188.79,-172.26 97.8,-6.48 51.76,155.11 173.11,155.82 109.37,0.63 84.7,-74.06 153,-214 -346.94,-12.14 -577.32,-16.5 -879.95,-15 z"
       id="path1063" />
  </g>
</svg>
