<svg id="Layer_1" data-name="Layer 1" xmlns="http://www.w3.org/2000/svg" width="2000" height="2000" viewBox="0 0 2000 2000"><path d="M1246.31,1724.43l-5-603.26,2.5-1.26c261.85-100.23,434.75-355.82,431.62-635.84L1673.54,288a54.93,54.93,0,0,0-16.29-38.84,51.92,51.92,0,0,0-39.46-15.66l-108.38.62-1.25-129c0-30.7-25.06-55.13-55.75-55.13L552.84,57.47A55,55,0,0,0,514,73.75a51.94,51.94,0,0,0-15.66,39.47l1.25,129.05-120.9,1.25a55,55,0,0,0-38.84,16.29,51.92,51.92,0,0,0-15.66,39.46l1.87,196.08c1.88,290.67,189.19,546.26,465.45,636.46l3.13.63,5,595.12c1.26,123.41,102.11,223,226.15,222.39C1147.33,1949.32,1246.93,1847.84,1246.31,1724.43Zm142.2-1190.24-1.25,5c-55.76,213.62-275,342-488.63,286.28A425.26,425.26,0,0,1,810.93,791a404.93,404.93,0,0,1-196.7-245.56l-1.26-5Zm11.28-188.56.62,77.68L611.1,429.57l-.63-77.67Zm-1.26-184.17.63,73.92-789.32,6.26-.62-73.92ZM1102.85,1805.24c-21.3,21.3-49.49,33.83-80.18,33.83a115.33,115.33,0,0,1-54.5-13.78c-35.08-18.8-59.52-56.38-59.52-99l-5-634a55.23,55.23,0,0,0-42-55.13C613,974,438.2,750.94,435.69,494.72l-1.25-141,53.25-.62.62,89C490.82,724,722,951.4,1003.87,948.89c255.59-1.88,471.71-194.82,503-448.53v-1.25a52.81,52.81,0,0,0,4.38-21.93L1510,344.38l53.25-.63,1.25,141c3.13,246.82-159.74,470.46-395.91,543.13a55.83,55.83,0,0,0-38.84,53.24l5,642.73C1135.43,1755.12,1124.15,1783.31,1102.85,1805.24Z" style="fill:#383850"/></svg>