<?xml version="1.0" encoding="UTF-8" standalone="no"?>
<svg
   xmlns:dc="http://purl.org/dc/elements/1.1/"
   xmlns:cc="http://creativecommons.org/ns#"
   xmlns:rdf="http://www.w3.org/1999/02/22-rdf-syntax-ns#"
   xmlns:svg="http://www.w3.org/2000/svg"
   xmlns="http://www.w3.org/2000/svg"
   xmlns:sodipodi="http://sodipodi.sourceforge.net/DTD/sodipodi-0.dtd"
   xmlns:inkscape="http://www.inkscape.org/namespaces/inkscape"
   inkscape:version="1.0beta1 (32d4812, 2019-09-19)"
   height="1964.0034"
   width="740.79181"
   sodipodi:docname="fork_and _buttering_knife.svg"
   version="1.1"
   viewBox="0 0 740.79181 1964.0034"
   data-name="Layer 1"
   id="Layer_1">
  <metadata
     id="metadata10158">
    <rdf:RDF>
      <cc:Work
         rdf:about="">
        <dc:format>image/svg+xml</dc:format>
        <dc:type
           rdf:resource="http://purl.org/dc/dcmitype/StillImage" />
        <dc:title></dc:title>
      </cc:Work>
    </rdf:RDF>
  </metadata>
  <defs
     id="defs10156" />
  <sodipodi:namedview
     inkscape:current-layer="Layer_1"
     inkscape:window-maximized="0"
     inkscape:window-y="25"
     inkscape:window-x="0"
     inkscape:cy="982"
     inkscape:cx="-538.35118"
     inkscape:zoom="0.136"
     fit-margin-bottom="12"
     fit-margin-right="12"
     fit-margin-left="12"
     lock-margins="true"
     fit-margin-top="12"
     showgrid="false"
     id="namedview10154"
     inkscape:window-height="480"
     inkscape:window-width="870"
     inkscape:pageshadow="2"
     inkscape:pageopacity="0"
     guidetolerance="10"
     gridtolerance="10"
     objecttolerance="10"
     borderopacity="1"
     inkscape:document-rotation="0"
     bordercolor="#666666"
     pagecolor="#ffffff" />
  <path
     inkscape:connector-curvature="0"
     id="path10149"
     style="fill:#d1d3d4;stroke:#231f20;stroke-width:24px;stroke-miterlimit:10"
     d="M 319.84,30.37 A 19.48,19.48 0 0 0 300.39,12 v 0 a 19.47,19.47 0 0 0 -19.47,19.76 l -0.29,325.53 a 17.79,17.79 0 0 1 -17.79,17.79 v 0 A 17.79,17.79 0 0 1 245.09,357.55 L 239.82,30.91 A 19.47,19.47 0 0 0 220.36,12 h -0.05 a 19.47,19.47 0 0 0 -19.47,19.2 l -5.51,326.35 a 17.78,17.78 0 0 1 -17.78,17.53 h -0.26 A 17.78,17.78 0 0 1 159.51,357.55 L 154,31.2 A 19.47,19.47 0 0 0 134.53,12 h -0.05 a 19.47,19.47 0 0 0 -19.46,18.91 l -5.23,326.64 a 17.79,17.79 0 0 1 -17.789999,17.53 v 0 a 17.79,17.79 0 0 1 -17.79,-17.79 l -0.29,-325.53 A 19.47,19.47 0 0 0 54.450001,12 v 0 a 19.48,19.48 0 0 0 -19.45,18.37 l -23,519.06 a 139.33,139.33 0 0 0 36.57,94.11 L 106.79,707.15 a 56.92,56.92 0 0 1 14.91,39.94 L 88.700001,1858.17 c -1.31,48.93 35.999999,91.68 84.939999,93.75 a 88.91,88.91 0 0 0 92.73,-91.2 L 233.19,747.09 a 56.92,56.92 0 0 1 14.9,-39.94 l 58.22,-63.61 a 139.33,139.33 0 0 0 36.57,-94.11 z" />
  <path
     inkscape:connector-curvature="0"
     id="path10151"
     style="fill:#d1d3d4;stroke:#231f20;stroke-width:24px;stroke-miterlimit:10"
     d="m 705.53,1079.23 v 0 V 58.59 C 705.55,37.18 689.66,12 670.09,12 496.52,12 480.85,583.65 480.85,703.88 c 0,89.16 17.19,126.64 37.25,163 20.06,36.36 56.89,105.12 56.89,212.35 v 0 l -23.17,779.32 c -1.3,48.73 35.89,91.31 84.59,93.37 a 88.54,88.54 0 0 0 92.35,-90.83 z" />
</svg>
