<?xml version="1.0" encoding="UTF-8" standalone="no"?>
<svg
   xmlns:dc="http://purl.org/dc/elements/1.1/"
   xmlns:cc="http://creativecommons.org/ns#"
   xmlns:rdf="http://www.w3.org/1999/02/22-rdf-syntax-ns#"
   xmlns:svg="http://www.w3.org/2000/svg"
   xmlns="http://www.w3.org/2000/svg"
   xmlns:sodipodi="http://sodipodi.sourceforge.net/DTD/sodipodi-0.dtd"
   xmlns:inkscape="http://www.inkscape.org/namespaces/inkscape"
   inkscape:version="1.0beta1 (32d4812, 2019-09-19)"
   height="651.99268"
   width="1976.634"
   sodipodi:docname="frypan.svg"
   version="1.1"
   viewBox="0 0 1976.634 651.99269"
   data-name="Layer 1"
   id="Layer_1">
  <metadata
     id="metadata11306">
    <rdf:RDF>
      <cc:Work
         rdf:about="">
        <dc:format>image/svg+xml</dc:format>
        <dc:type
           rdf:resource="http://purl.org/dc/dcmitype/StillImage" />
        <dc:title></dc:title>
      </cc:Work>
    </rdf:RDF>
  </metadata>
  <defs
     id="defs11304" />
  <sodipodi:namedview
     inkscape:current-layer="Layer_1"
     inkscape:window-maximized="0"
     inkscape:window-y="25"
     inkscape:window-x="0"
     inkscape:cy="333.94768"
     inkscape:cx="468.91196"
     inkscape:zoom="0.2425"
     fit-margin-left="0"
     fit-margin-top="0"
     fit-margin-bottom="12"
     fit-margin-right="12"
     showgrid="false"
     id="namedview11302"
     inkscape:window-height="480"
     inkscape:window-width="870"
     inkscape:pageshadow="2"
     inkscape:pageopacity="0"
     guidetolerance="10"
     gridtolerance="10"
     objecttolerance="10"
     borderopacity="1"
     inkscape:document-rotation="0"
     bordercolor="#666666"
     pagecolor="#ffffff" />
  <path
     inkscape:connector-curvature="0"
     id="path11291"
     style="fill:#231f20"
     d="m 562.31402,276.51268 c -7.51,11.5 -2.16,3.16 -3.88,5.72 l -0.14,-0.06 -0.28,-0.1 -0.58,-0.2 -1.14,-0.4 -2.28,-0.81 -4.56,-1.6 -9.14,-3.16 -18.13,-6.27 c -12.14,-4 -24,-8.25 -36.17,-12 -24,-7.9 -48.2,-15 -72.17,-22.14 q -18,-5.31 -36.13,-10.1 c -12,-3.39 -24,-6.71 -36.05,-9.81 -24.09,-6.16 -48.35,-12.37 -71.35,-17.73 l -74.2,-17.43 c -24.84,-5.44 -49.93,-10.1 -74.5,-16.28 -24.570001,-6.18 -48.430001,-14.39 -71.240001,-25.72 -11.48,-5.45 -22.63,-11.89 -33.72,-18.52 -5.76,-2.7 -10.5200004,-8.35 -13.4700004,-19.43 a 84.12,84.12 0 0 1 -1.94,-9.129997 l -1.16999999,-11.46 v -0.34 a 84.21,84.21 0 0 1 19.08000039,-57 l 0.17,-0.21 7.84,-8.44 a 82.24,82.24 0 0 1 7.08,-6.1300001 c 9.07,-7.02999995 16.31,-8.66999995 22.58,-7.33999995 12.94,1.38999995 25.83,2.99999995 38.39,5.54999995 25.250001,4.7200001 49.460001,12.5700001 73.000001,22.4500001 23.54,9.88 46.49,21.25 69.72,31.85 l 70,30.7 c 24.65,11.729997 47.48,24.349997 70.14,37.709997 11.34,6.64 22.6,13.39 33.73,20.36 11.13,6.97 22.05,14.34 32.9,21.73 21.78,14.64 42.8,30.54 63.2,47 10.14,8.35 20.21,16.72 29.87,25.64 4.87,4.37 9.65,8.88 14.38,13.41 l 7,7 3.46,3.49 1.73,1.74 0.86,0.87 0.43,0.44 0.22,0.21 0.1,0.11 c -1.64,2.57 3.8,-5.72 -3.64,5.83 z" />
  <path
     inkscape:connector-curvature="0"
     id="path11293"
     style="fill:#ffffff;stroke:#231f20;stroke-width:24px;stroke-miterlimit:10"
     d="m 1155.384,122.64268 h 1.37 c 446.18,0 807.88,70.93 807.88,176.72 -20,81.95 -77.18,197 -146.23,249.72 -55.35,37.9 -376.7,90.91 -661.61,90.91 h -4 c -284.89998,0 -606.24998,-53 -661.60998,-90.91 -69.07,-52.66 -126.27,-167.77 -146.25,-249.72 0,-105.79 361.7,-176.72 807.87998,-176.72 h 1.24" />
  <path
     inkscape:connector-curvature="0"
     id="path11295"
     style="fill:none;stroke:#231f20;stroke-width:24px;stroke-linecap:round;stroke-miterlimit:10"
     d="m 1909.654,293.21268 c 0,50.69 -338.27,125.81 -755.56,125.81 h -1.33 c -417.27998,0 -755.54998,-75.12 -755.54998,-125.81" />
  <circle
     id="circle11297"
     style="fill:#231f20"
     r="16"
     cy="250.78267"
     cx="586.38403" />
  <circle
     id="circle11299"
     style="fill:#231f20"
     r="16"
     cy="289.20267"
     cx="485.37402" />
</svg>
