<?xml version="1.0" encoding="UTF-8" standalone="no"?>
<svg
   xmlns:dc="http://purl.org/dc/elements/1.1/"
   xmlns:cc="http://creativecommons.org/ns#"
   xmlns:rdf="http://www.w3.org/1999/02/22-rdf-syntax-ns#"
   xmlns:svg="http://www.w3.org/2000/svg"
   xmlns="http://www.w3.org/2000/svg"
   xmlns:sodipodi="http://sodipodi.sourceforge.net/DTD/sodipodi-0.dtd"
   xmlns:inkscape="http://www.inkscape.org/namespaces/inkscape"
   inkscape:version="1.0beta1 (32d4812, 2019-09-19)"
   height="1982.0247"
   width="1793.338"
   sodipodi:docname="knife.svg"
   version="1.1"
   viewBox="0 0 1793.338 1982.0247"
   data-name="Layer 1"
   id="Layer_1">
  <metadata
     id="metadata12450">
    <rdf:RDF>
      <cc:Work
         rdf:about="">
        <dc:format>image/svg+xml</dc:format>
        <dc:type
           rdf:resource="http://purl.org/dc/dcmitype/StillImage" />
        <dc:title></dc:title>
      </cc:Work>
    </rdf:RDF>
  </metadata>
  <defs
     id="defs12448" />
  <sodipodi:namedview
     inkscape:current-layer="Layer_1"
     inkscape:window-maximized="0"
     inkscape:window-y="25"
     inkscape:window-x="0"
     inkscape:cy="984.99946"
     inkscape:cx="923.49827"
     inkscape:zoom="0.136"
     fit-margin-right="0"
     fit-margin-top="0"
     fit-margin-bottom="12"
     fit-margin-left="12"
     showgrid="false"
     id="namedview12446"
     inkscape:window-height="480"
     inkscape:window-width="870"
     inkscape:pageshadow="2"
     inkscape:pageopacity="0"
     guidetolerance="10"
     gridtolerance="10"
     objecttolerance="10"
     borderopacity="1"
     inkscape:document-rotation="0"
     bordercolor="#666666"
     pagecolor="#ffffff" />
  <path
     inkscape:connector-curvature="0"
     id="path12441"
     style="fill:#d1d3d4;stroke:#231f20;stroke-width:24px;stroke-miterlimit:10"
     d="m 1417.425,839.08946 c 0,0 -286.53,339.90004 -587.55999,615.80004 -350.86,321.56 -734.529998,576.83 -815.999998,502 C -40.284988,1907.1695 1102.715,575.58946 1102.715,575.58946 Z" />
  <path
     inkscape:connector-curvature="0"
     id="path12443"
     style="fill:#231f20"
     d="m 1783.945,165.80946 -475.78,410.83 a 60.77,60.77 0 0 0 -17,67.86 v 0 a 60.75,60.75 0 0 1 -14,65.15 l -6.57,6.47 -170.8,-143 40.88,-48.82 16.2,-19.35 412.58,-492.83 c 12.93,-15.4399996 37.4,-16.2299996 54.66,-1.78 l 153.58,99.58 c 18.07,15.13 20.93,40.76 6.25,55.89 z" />
</svg>
