<svg id="Layer_1" data-name="Layer 1" xmlns="http://www.w3.org/2000/svg" xmlns:xlink="http://www.w3.org/1999/xlink" viewBox="0 0 2000 636.47"><defs><linearGradient id="linear-gradient" x1="537.77" y1="88.12" x2="549.22" y2="294.25" gradientUnits="userSpaceOnUse"><stop offset="0" stop-color="#e0e1e2"/><stop offset="1" stop-color="#8d9092"/></linearGradient></defs><path d="M154.64,220.79,1914.57,334.9l-8.24,155.63L825.06,472.32s-54.9,139.05-282.65,139.05S242.69,444.92,242.69,444.92L116,326.47Z" style="fill:#e0e1e2;stroke:#231f20;stroke-miterlimit:10;stroke-width:12.36734558900397px"/><path d="M1860.58,393.8,880.19,352.9s13.58-31.08,10.31-57.26l970.08,63.8Z" style="fill:#8d9092"/><path d="M248.65,309s67.65,142,286.86,142S875,368.28,854.92,282.89" style="fill:#8d9092;stroke:#231f20;stroke-miterlimit:10;stroke-width:12.36734558900397px"/><path d="M27.36,228.66C35.83,213.72,128.88,92.59,128.88,92.59H271.79S370.73,34,535.62,34s338,58.63,338,58.63L1973,34l4.08,131.59L879.16,253.93s-75.59,130.3-338,130.3S216.82,276,216.82,276h-66s-1.32,55-61.78,55S19.24,278.51,27.36,228.66Z" style="fill:#e0e1e2;stroke:#231f20;stroke-miterlimit:10;stroke-width:12.36734558900397px"/><circle cx="85.45" cy="274.4" r="30.5" style="fill:none;stroke:#231f20;stroke-miterlimit:10;stroke-width:10.306121324169974px"/><path d="M286.69,180.61C293.11,140.07,354.24,77.9,538.37,77.9s247,48.53,260.31,86.87S744.74,303.43,560.36,303.43C304.77,303.43,280.27,221.14,286.69,180.61Z" style="stroke:#231f20;stroke-miterlimit:10;stroke-width:12.36734558900397px;fill:url(#linear-gradient)"/><path d="M219.57,217.58s68.73,125.8,318.23,125.8S878.13,211.93,879.16,164.77" style="fill:none;stroke:#231f20;stroke-linecap:round;stroke-miterlimit:10;stroke-width:12.36734558900397px"/></svg>