<?xml version="1.0" encoding="UTF-8" standalone="no"?>
<svg
   xmlns:dc="http://purl.org/dc/elements/1.1/"
   xmlns:cc="http://creativecommons.org/ns#"
   xmlns:rdf="http://www.w3.org/1999/02/22-rdf-syntax-ns#"
   xmlns:svg="http://www.w3.org/2000/svg"
   xmlns="http://www.w3.org/2000/svg"
   xmlns:sodipodi="http://sodipodi.sourceforge.net/DTD/sodipodi-0.dtd"
   xmlns:inkscape="http://www.inkscape.org/namespaces/inkscape"
   inkscape:version="1.0beta1 (32d4812, 2019-09-19)"
   height="501.53964"
   width="1969.92"
   sodipodi:docname="measuring_cup.svg"
   version="1.1"
   viewBox="0 0 1969.92 501.53964"
   data-name="Layer 1"
   id="Layer_1">
  <metadata
     id="metadata13596">
    <rdf:RDF>
      <cc:Work
         rdf:about="">
        <dc:format>image/svg+xml</dc:format>
        <dc:type
           rdf:resource="http://purl.org/dc/dcmitype/StillImage" />
        <dc:title></dc:title>
      </cc:Work>
    </rdf:RDF>
  </metadata>
  <defs
     id="defs13594" />
  <sodipodi:namedview
     inkscape:current-layer="Layer_1"
     inkscape:window-maximized="0"
     inkscape:window-y="25"
     inkscape:window-x="0"
     inkscape:cy="250.15189"
     inkscape:cx="471.59794"
     inkscape:zoom="0.2425"
     fit-margin-bottom="0"
     fit-margin-right="0"
     fit-margin-left="0"
     fit-margin-top="0"
     showgrid="false"
     id="namedview13592"
     inkscape:window-height="480"
     inkscape:window-width="870"
     inkscape:pageshadow="2"
     inkscape:pageopacity="0"
     guidetolerance="10"
     gridtolerance="10"
     objecttolerance="10"
     borderopacity="1"
     inkscape:document-rotation="0"
     bordercolor="#666666"
     pagecolor="#ffffff" />
  <g
     transform="translate(-15,-47.848108)"
     id="layer2">
    <path
       inkscape:connector-curvature="0"
       style="fill:#383850;stroke:#383850;stroke-width:2.51894px;stroke-miterlimit:11.3386"
       d="m 15,50.56 c 0,0 9.49,122.83 128.7,268.64 0,0 85.81,113.8 231.32,177.23 0,0 109.11,50.37 255.58,52.23 0,0 159.12,4.6 246.25,-9.33 27.7,-5.27 107.82,-39.12 149.47,-88.22 0,0 64.07,-61.57 108.84,-177.23 26.12,-83.95 27.12,-98.32 27.12,-98.32 3.41,-26.89 24.25,-34 33.57,-34 0,0 29.85,-9.33 80.22,-1.86 0,0 145.19,13.11 212.67,28.9 0,0 121.17,17.43 194,60.34 0,0 62.92,32.3 136.18,121.94 0,0 52.24,56 97,188.41 0,0 39.18,9.33 69,-7.46 C 1938.29,397.51 1880.45,322.89 1880.45,322.89 1802.15,211 1708.88,170 1708.88,170 1615.6,115.86 1485,97.2 1485,97.2 1330.16,76.68 1274.2,74.82 1274.2,74.82 1179.06,67.35 1151.07,65.49 1151.07,65.49 367.47,39.68 393.72,49.49 15,50.56 Z"
       id="path1047" />
  </g>
</svg>
