<?xml version="1.0" encoding="UTF-8" standalone="no"?>
<svg
   xmlns:dc="http://purl.org/dc/elements/1.1/"
   xmlns:cc="http://creativecommons.org/ns#"
   xmlns:rdf="http://www.w3.org/1999/02/22-rdf-syntax-ns#"
   xmlns:svg="http://www.w3.org/2000/svg"
   xmlns="http://www.w3.org/2000/svg"
   xmlns:sodipodi="http://sodipodi.sourceforge.net/DTD/sodipodi-0.dtd"
   xmlns:inkscape="http://www.inkscape.org/namespaces/inkscape"
   inkscape:version="1.0beta1 (32d4812, 2019-09-19)"
   height="1969.02"
   width="1798.61"
   sodipodi:docname="mixer.svg"
   version="1.1"
   viewBox="0 0 1798.61 1969.02"
   data-name="Layer 1"
   id="Layer_1">
  <metadata
     id="metadata15906">
    <rdf:RDF>
      <cc:Work
         rdf:about="">
        <dc:format>image/svg+xml</dc:format>
        <dc:type
           rdf:resource="http://purl.org/dc/dcmitype/StillImage" />
        <dc:title></dc:title>
      </cc:Work>
    </rdf:RDF>
  </metadata>
  <defs
     id="defs15904" />
  <sodipodi:namedview
     fit-margin-bottom="12"
     fit-margin-right="12"
     fit-margin-left="12"
     lock-margins="true"
     fit-margin-top="12"
     inkscape:current-layer="Layer_1"
     inkscape:window-maximized="0"
     inkscape:window-y="25"
     inkscape:window-x="0"
     inkscape:cy="984.51"
     inkscape:cx="-15.521176"
     inkscape:zoom="0.136"
     showgrid="false"
     id="namedview15902"
     inkscape:window-height="480"
     inkscape:window-width="870"
     inkscape:pageshadow="2"
     inkscape:pageopacity="0"
     guidetolerance="10"
     gridtolerance="10"
     objecttolerance="10"
     borderopacity="1"
     inkscape:document-rotation="0"
     bordercolor="#666666"
     pagecolor="#ffffff" />
  <rect
     id="rect15885"
     style="fill:none;stroke:#231f20;stroke-width:24px;stroke-miterlimit:10"
     rx="54.849998"
     height="636.27002"
     width="344.41"
     y="1320.75"
     x="136.81999" />
  <rect
     id="rect15887"
     style="fill:#ffffff;stroke:#231f20;stroke-width:24px;stroke-miterlimit:10"
     height="91.75"
     width="218.8"
     y="12"
     x="673.69" />
  <rect
     id="rect15889"
     style="fill:#ffffff;stroke:#231f20;stroke-width:24px;stroke-miterlimit:10"
     height="91.75"
     width="218.8"
     y="12"
     x="341.44" />
  <path
     inkscape:connector-curvature="0"
     id="path15891"
     style="fill:#ffffff;stroke:#231f20;stroke-width:24px;stroke-miterlimit:10"
     d="M 1708.92,999.21 H 89.73 A 77.74,77.74 0 0 1 12,921.51 v -677 a 140.8,140.8 0 0 1 140.8,-140.8 h 1493 a 140.8,140.8 0 0 1 140.81,140.8 v 677 a 77.73,77.73 0 0 1 -77.69,77.7 z m -653.95,-476.7 h 495.88 a 77.73,77.73 0 0 0 77.73,-77.73 V 339.51 a 77.73,77.73 0 0 0 -77.73,-77.73 h -495.88 a 77.73,77.73 0 0 0 -77.73,77.73 v 105.3 a 77.73,77.73 0 0 0 77.73,77.7 z" />
  <line
     id="line15893"
     style="fill:none;stroke:#231f20;stroke-width:24px;stroke-linecap:round;stroke-miterlimit:10"
     y2="261.77002"
     x2="669.29999"
     y1="261.77002"
     x1="205.89" />
  <line
     id="line15895"
     style="fill:none;stroke:#231f20;stroke-width:24px;stroke-linecap:round;stroke-miterlimit:10"
     y2="385.5"
     x2="669.29999"
     y1="385.5"
     x1="205.89" />
  <line
     id="line15897"
     style="fill:none;stroke:#231f20;stroke-width:24px;stroke-linecap:round;stroke-miterlimit:10"
     y2="509.22998"
     x2="669.29999"
     y1="509.22998"
     x1="205.89" />
  <line
     id="line15899"
     style="fill:#fbb040;stroke:#231f20;stroke-width:24px;stroke-miterlimit:10"
     y2="1957.02"
     x2="309.02002"
     y1="999.21002"
     x1="309.02002" />
</svg>
