<?xml version="1.0" encoding="UTF-8" standalone="no"?>
<svg
   xmlns:dc="http://purl.org/dc/elements/1.1/"
   xmlns:cc="http://creativecommons.org/ns#"
   xmlns:rdf="http://www.w3.org/1999/02/22-rdf-syntax-ns#"
   xmlns:svg="http://www.w3.org/2000/svg"
   xmlns="http://www.w3.org/2000/svg"
   xmlns:sodipodi="http://sodipodi.sourceforge.net/DTD/sodipodi-0.dtd"
   xmlns:inkscape="http://www.inkscape.org/namespaces/inkscape"
   inkscape:version="1.0beta1 (32d4812, 2019-09-19)"
   sodipodi:docname="plaque_biscuits.svg"
   version="1.1"
   viewBox="0 0 1924.0128 631.66003"
   height="631.66003"
   width="1924.0128"
   data-name="Layer 1"
   id="Layer_1">
  <metadata
     id="metadata18885">
    <rdf:RDF>
      <cc:Work
         rdf:about="">
        <dc:format>image/svg+xml</dc:format>
        <dc:type
           rdf:resource="http://purl.org/dc/dcmitype/StillImage" />
        <dc:title></dc:title>
      </cc:Work>
    </rdf:RDF>
  </metadata>
  <defs
     id="defs18883" />
  <sodipodi:namedview
     inkscape:current-layer="Layer_1"
     inkscape:window-maximized="0"
     inkscape:window-y="25"
     inkscape:window-x="0"
     inkscape:cy="315.83"
     inkscape:cx="46.559613"
     inkscape:zoom="0.136"
     fit-margin-bottom="12"
     fit-margin-right="12"
     fit-margin-left="12"
     lock-margins="true"
     fit-margin-top="12"
     showgrid="false"
     id="namedview18881"
     inkscape:window-height="480"
     inkscape:window-width="870"
     inkscape:pageshadow="2"
     inkscape:pageopacity="0"
     guidetolerance="10"
     gridtolerance="10"
     objecttolerance="10"
     borderopacity="1"
     inkscape:document-rotation="0"
     bordercolor="#666666"
     pagecolor="#ffffff" />
  <path
     inkscape:connector-curvature="0"
     id="path18874"
     style="fill:#f1f2f2;stroke:#231f20;stroke-width:15.7845px;stroke-miterlimit:10"
     d="m 1900.5508,570.9 -63,41.08 a 47.71,47.71 0 0 1 -26,7.68 H 112.25079 a 47.7,47.7 0 0 1 -25.660001,-7.44 l -59.09,-37.74" />
  <path
     inkscape:connector-curvature="0"
     id="path18876"
     style="fill:#f1f2f2;stroke:#231f20;stroke-width:24px;stroke-miterlimit:10"
     d="M 1841.2508,590.29 H 82.750789 c -53.37,0 -82.71999985,-29.86 -66.11,-65.56 L 238.39079,48.34 c 9.45,-20.28 48.25,-36.34 86.89,-36.34 H 1598.7208 c 38.64,0 77.44,16.06 86.89,36.34 l 221.75,476.39 c 16.64,35.7 -12.74,65.56 -66.11,65.56 z" />
  <path
     inkscape:connector-curvature="0"
     id="path18878"
     style="fill:none;stroke:#231f20;stroke-width:7.89225px;stroke-linecap:round;stroke-linejoin:round"
     d="M 62.400789,542.36 270.09079,83.09 c 7.71,-17.06 40.13,-30.61 72.57,-30.61 H 1581.3208 c 32.44,0 64.86,13.55 72.56,30.61 l 205.54,452.92" />
</svg>
