<?xml version="1.0" encoding="UTF-8" standalone="no"?>
<svg
   xmlns:dc="http://purl.org/dc/elements/1.1/"
   xmlns:cc="http://creativecommons.org/ns#"
   xmlns:rdf="http://www.w3.org/1999/02/22-rdf-syntax-ns#"
   xmlns:svg="http://www.w3.org/2000/svg"
   xmlns="http://www.w3.org/2000/svg"
   xmlns:sodipodi="http://sodipodi.sourceforge.net/DTD/sodipodi-0.dtd"
   xmlns:inkscape="http://www.inkscape.org/namespaces/inkscape"
   inkscape:version="1.0beta1 (32d4812, 2019-09-19)"
   height="1681.2605"
   width="1935.725"
   sodipodi:docname="pot_big.svg"
   version="1.1"
   viewBox="0 0 1935.725 1681.2604"
   data-name="Layer 1"
   id="Layer_1">
  <metadata
     id="metadata19458">
    <rdf:RDF>
      <cc:Work
         rdf:about="">
        <dc:format>image/svg+xml</dc:format>
        <dc:type
           rdf:resource="http://purl.org/dc/dcmitype/StillImage" />
        <dc:title></dc:title>
      </cc:Work>
    </rdf:RDF>
  </metadata>
  <defs
     id="defs19456" />
  <sodipodi:namedview
     inkscape:current-layer="Layer_1"
     inkscape:window-maximized="0"
     inkscape:window-y="25"
     inkscape:window-x="0"
     inkscape:cy="840.63003"
     inkscape:cx="181.24285"
     inkscape:zoom="0.15827204"
     fit-margin-bottom="12"
     fit-margin-right="12"
     fit-margin-left="12"
     lock-margins="true"
     fit-margin-top="12"
     showgrid="false"
     id="namedview19454"
     inkscape:window-height="480"
     inkscape:window-width="870"
     inkscape:pageshadow="2"
     inkscape:pageopacity="0"
     guidetolerance="10"
     gridtolerance="10"
     objecttolerance="10"
     borderopacity="1"
     inkscape:document-rotation="0"
     bordercolor="#666666"
     pagecolor="#ffffff" />
  <g
     transform="translate(-32.136825,-18.65)"
     id="layer3">
    <path
       inkscape:connector-curvature="0"
       style="fill:#ffffff;stroke:#231f20;stroke-width:24;stroke-linecap:round;stroke-linejoin:round"
       d="m 320.8,634.27 -212.86,23.65 c -83.19,9.24 -83.77,136.8 -9.1,163.73 l 222,80.05 z m 1358.4,0 212.86,23.65 c 83.19,9.24 83.77,136.8 9.09,163.73 l -222,80.05 z m 0,-204.17 v 1062.37 a 195,195 0 0 1 -195.43,195.44 H 516.23 A 195,195 0 0 1 320.8,1492.47 V 430.1 Z"
       id="path916" />
  </g>
  <g
     transform="translate(-32.136825,-18.65)"
     id="g864">
    <path
       inkscape:connector-curvature="0"
       style="opacity:0.99;isolation:isolate;fill:#ffffff;fill-opacity:0.995951;stroke:#231f20;stroke-width:24;stroke-linecap:round;stroke-linejoin:round"
       d="m 998.42,185.69 c -249.18,0.4 -489.75,94.78 -677.15,243.52 H 1679.2 C 1491.33,280.1 1250.02,185.69 1000.2,185.69 Z"
       id="path1510" />
    <path
       inkscape:connector-curvature="0"
       style="opacity:0.99;isolation:isolate;fill:none;stroke:#231f20;stroke-width:24;stroke-linecap:round;stroke-linejoin:round"
       d="m 1162.59,197.36 c 11.3,-81.2 -52.22,-155.31 -141.87,-165.55 a 181.79,181.79 0 0 0 -20.48,-1.16 h -1.17 C 908.72,31.22 836,98 836.6,179.85 a 136.81,136.81 0 0 0 1.28,17.5"
       id="path1507" />
  </g>
</svg>
