<?xml version="1.0" encoding="UTF-8" standalone="no"?>
<svg
   xmlns:dc="http://purl.org/dc/elements/1.1/"
   xmlns:cc="http://creativecommons.org/ns#"
   xmlns:rdf="http://www.w3.org/1999/02/22-rdf-syntax-ns#"
   xmlns:svg="http://www.w3.org/2000/svg"
   xmlns="http://www.w3.org/2000/svg"
   xmlns:xlink="http://www.w3.org/1999/xlink"
   xmlns:sodipodi="http://sodipodi.sourceforge.net/DTD/sodipodi-0.dtd"
   xmlns:inkscape="http://www.inkscape.org/namespaces/inkscape"
   width="269.11807mm"
   height="196.88959mm"
   viewBox="0 0 269.11807 196.88959"
   version="1.1"
   id="svg8"
   inkscape:version="1.0beta1 (32d4812, 2019-09-19)"
   sodipodi:docname="quarter_cup.svg">
  <defs
     id="defs2">
    <linearGradient
       inkscape:collect="always"
       id="linearGradient1071">
      <stop
         style="stop-color:#d8d7d6;stop-opacity:1"
         offset="0"
         id="stop1067" />
      <stop
         style="stop-color:#b8b7b6;stop-opacity:1"
         offset="1"
         id="stop1069" />
    </linearGradient>
    <linearGradient
       inkscape:collect="always"
       id="linearGradient1063">
      <stop
         style="stop-color:#c8c7c6;stop-opacity:1;"
         offset="0"
         id="stop1059" />
      <stop
         style="stop-color:#b8b7b6;stop-opacity:1"
         offset="1"
         id="stop1061" />
    </linearGradient>
    <linearGradient
       inkscape:collect="always"
       id="linearGradient1055">
      <stop
         style="stop-color:#c8c7c6;stop-opacity:1;"
         offset="0"
         id="stop1051" />
      <stop
         style="stop-color:#b8b7b6;stop-opacity:1"
         offset="1"
         id="stop1053" />
    </linearGradient>
    <linearGradient
       inkscape:collect="always"
       xlink:href="#linearGradient1055"
       id="linearGradient1057"
       x1="-32.439346"
       y1="196.23473"
       x2="137.43138"
       y2="196.23473"
       gradientUnits="userSpaceOnUse" />
    <linearGradient
       inkscape:collect="always"
       xlink:href="#linearGradient1063"
       id="linearGradient1065"
       x1="-32.439346"
       y1="196.23473"
       x2="137.43138"
       y2="196.23473"
       gradientUnits="userSpaceOnUse" />
    <radialGradient
       inkscape:collect="always"
       xlink:href="#linearGradient1071"
       id="radialGradient1073"
       cx="163.87262"
       cy="119.78553"
       fx="163.87262"
       fy="119.78553"
       r="56.201569"
       gradientTransform="matrix(1,0,0,0.67914173,0,31.112659)"
       gradientUnits="userSpaceOnUse" />
    <radialGradient
       inkscape:collect="always"
       xlink:href="#linearGradient1071"
       id="radialGradient1081"
       cx="163.87262"
       cy="119.78553"
       fx="163.87262"
       fy="119.78553"
       r="56.201569"
       gradientTransform="matrix(1,0,0,0.67914173,0,31.112659)"
       gradientUnits="userSpaceOnUse" />
  </defs>
  <sodipodi:namedview
     id="base"
     pagecolor="#ffffff"
     bordercolor="#666666"
     borderopacity="1.0"
     inkscape:pageopacity="0.0"
     inkscape:pageshadow="2"
     inkscape:zoom="0.7"
     inkscape:cx="435.27282"
     inkscape:cy="295.42424"
     inkscape:document-units="mm"
     inkscape:current-layer="layer2"
     inkscape:document-rotation="0"
     showgrid="false"
     fit-margin-top="0"
     fit-margin-left="0"
     fit-margin-right="0"
     fit-margin-bottom="0"
     inkscape:window-width="1920"
     inkscape:window-height="1035"
     inkscape:window-x="0"
     inkscape:window-y="23"
     inkscape:window-maximized="0" />
  <metadata
     id="metadata5">
    <rdf:RDF>
      <cc:Work
         rdf:about="">
        <dc:format>image/svg+xml</dc:format>
        <dc:type
           rdf:resource="http://purl.org/dc/dcmitype/StillImage" />
        <dc:title />
      </cc:Work>
    </rdf:RDF>
  </metadata>
  <g
     inkscape:groupmode="layer"
     id="layer2"
     inkscape:label="Outline"
     style="display:inline"
     transform="translate(46.873,-57.551)">
    <path
       inkscape:export-ydpi="96.099998"
       inkscape:export-xdpi="96.099998"
       d="m 189.5906,57.552363 c -2.26424,-0.0135 -4.419,0.0735 -6.22029,0.25063 -8.12648,0.75596 -27.87427,4.88911 -27.87427,4.88911 -9.35491,2.17336 -18.68184,4.97792 -25.01295,8.19071 -8.032,4.25223 -14.92895,9.64578 -19.08668,14.087 -3.02382,3.68527 -5.26597,9.48508 -6.47661,13.78727 -0.85044,3.401787 -4.83766,7.999437 -7.766967,9.889317 -5.95313,3.96875 -20.84679,12.02717 -20.84679,12.02717 l -31.27096,17.1049 c -18.23735,10.48884 -26.79371,16.13841 -33.408293,20.57963 -5.764139,3.96875 -15.083171,10.52634 -20.847307,14.96756 -7.276042,5.66964 -11.408384,9.36502 -14.432194,12.29434 -5.480654,5.85863 -16.03623,17.37258 -16.03623,17.37258 -5.480656,6.14211 -7.184059,8.81962 -7.184059,8.81962 0.277921,12.43984 5.312992,29.93444 14.400154,42.49612 8.018087,-9.6217 14.967368,-16.571 18.174602,-19.51096 5.34539,-4.81085 26.192199,-22.45083 26.192199,-22.45083 18.708868,-14.96709 24.588838,-19.24299 39.021388,-29.39923 17.29424,-11.88678 59.601017,-36.34869 59.601007,-36.34869 6.54926,-3.95763 12.8292,-7.21662 12.8292,-7.21662 2.1678,-1.09872 3.20128,-2.01124 6.41407,-2.6727 3.3073,-0.85045 5.95268,-0.1103 9.35447,0.26768 4.91369,0.75595 10.81219,0.91232 13.36353,0.53434 4.06324,-0.189 13.84367,-2.11918 17.90691,-4.00906 4.06324,-1.6064 9.6917,-4.08148 14.69988,-7.48327 5.19717,-3.30728 16.8488,-15.02366 19.77812,-18.70893 3.49628,-4.25223 9.94543,-11.846377 13.63071,-16.571077 3.30727,-4.63021 3.83638,-9.83462 3.74187,-13.89786 -0.28347,-4.63021 -3.92814,-8.81726 -5.53454,-10.42366 -3.1183,-2.92931 -8.35519,-5.70419 -13.17439,-7.21609 -3.44312,-1.1044 -8.95426,-1.61934 -13.93558,-1.649 z M 41.948973,156.74321 c 1.81495,0.0289 3.22785,1.024 3.74757,2.06344 2.07887,4.44122 -0.18913,7.55938 -1.51205,8.40982 0,0 -16.40635,10.45075 -20.816302,13.25707 -4.744035,3.14042 -11.926792,7.80549 -19.343521,13.48497 -5.479026,4.27631 -12.753713,10.18596 -17.89865,14.86318 0,0 -7.141112,6.52974 -8.702828,7.70909 -1.47948,0.96786 -3.581486,-0.32747 -4.770768,-1.97301 -1.141672,-2.00458 -0.472249,-5.19673 0.945162,-7.37009 2.362351,-3.49628 19.087503,-18.9936 26.74152,-24.85223 7.181546,-5.38616 20.127452,-13.79606 20.127452,-13.79606 l 18.804025,-11.15023 c 0.94494,-0.47247 1.85341,-0.6591 2.67839,-0.64595 z"
       style="fill:#d8d7d6;fill-opacity:1;stroke:#d8d7d6;stroke-width:0.264583px;stroke-linecap:butt;stroke-linejoin:miter;stroke-opacity:1"
       id="path966"
       inkscape:connector-curvature="0" />
  </g>
  <g
     inkscape:groupmode="layer"
     id="layer3"
     inkscape:label="InnerCup"
     style="display:inline"
     transform="translate(46.873,-57.551)">
    <path
       inkscape:export-ydpi="96.099998"
       inkscape:export-xdpi="96.099998"
       style="fill:url(#radialGradient1081);fill-opacity:1;stroke:url(#radialGradient1073);stroke-width:0.264583px;stroke-linecap:butt;stroke-linejoin:miter;stroke-opacity:1"
       d="m 115.05953,86.060787 c -4.14268,5.078121 -6.1472,8.28536 -6.41447,15.100733 -0.4009,6.5481 0.53455,9.48806 4.00905,15.10072 2.80633,4.00904 7.61718,10.95805 15.23436,14.29892 12.42803,5.07812 16.57071,4.67722 27.79603,4.14268 8.28536,-0.26727 19.24341,-4.27631 29.39965,-11.75986 10.82442,-7.61718 25.53092,-24.810386 31.5378,-32.339611 3.20724,-4.142677 3.94223,-7.683998 4.07586,-14.566188 -0.0763,-2.471969 -2.33861,-6.280835 -6.21402,-9.621704 -2.27179,-2.405426 -8.41898,-4.944486 -12.82893,-6.147199 -4.00904,-1.202713 -12.2944,-1.870887 -19.64431,-0.801809 0,0 -24.05426,4.810851 -29.93419,6.147199 -5.21176,1.069078 -20.04521,6.013564 -24.9897,9.621703 -3.87541,2.672695 -8.41899,6.815373 -12.02713,10.824416 z"
       id="path969"
       inkscape:connector-curvature="0"
       sodipodi:nodetypes="cccccccccccccc" />
  </g>
  <g
     inkscape:groupmode="layer"
     id="layer5"
     inkscape:label="CupSide"
     style="display:inline"
     transform="translate(46.873,-57.551)">
    <path
       inkscape:export-ydpi="96.099998"
       inkscape:export-xdpi="96.099998"
       style="fill:#b8b7b6;fill-opacity:1;stroke:#b8b7b6;stroke-width:0.264583px;stroke-linecap:butt;stroke-linejoin:miter;stroke-opacity:1"
       d="m 122.84226,143.63095 c 0,0 7.84301,6.99256 16.06399,9.07143 7.46503,2.07887 12.75669,2.07887 18.33184,1.41741 7.18155,-0.37798 17.29241,-5.66964 21.26116,-8.88244 4.7247,-3.40179 10.11087,-8.78795 17.85938,-18.42634 6.61458,-8.31548 12.75669,-19.18229 12.75669,-19.18229 l 9.82739,-17.197919 c -9.4494,11.811759 -17.95388,22.773059 -29.00968,32.033479 -4.7247,4.15774 -11.0558,7.93751 -17.95387,10.58334 -5.57515,2.36235 -12.47019,4.2182 -19.36826,4.59618 -7.18155,0.56696 -12.09825,-0.43844 -15.78352,-0.91091 -4.53571,-0.47247 -7.37054,-0.0945 -10.86682,1.32291 z"
       id="path975"
       inkscape:connector-curvature="0"
       sodipodi:nodetypes="ccccccccccccc" />
  </g>
  <g
     inkscape:groupmode="layer"
     id="layer4"
     inkscape:label="Side"
     style="display:inline"
     transform="translate(46.873,-57.551)">
    <path
       inkscape:export-ydpi="96.099998"
       inkscape:export-xdpi="96.099998"
       style="fill:url(#linearGradient1057);fill-opacity:1;stroke:url(#linearGradient1065);stroke-width:0.264583px;stroke-linecap:butt;stroke-linejoin:miter;stroke-opacity:1"
       d="m -32.339613,254.44059 12.828938,-5.61266 C -17.5263,245.23716 -5.3453905,232.79176 -5.3453905,232.79176 6.1828833,221.35798 23.252448,208.7375 23.252448,208.7375 c 0,0 17.428071,-13.07117 39.82316,-27.52876 L 118.4004,146.4637 c 6.99256,-4.34673 8.315,-4.54358 9.35443,-4.54358 2.26786,-0.28348 9.62171,1.33634 9.62171,1.33634 l -11.41598,-5.20066 -10.48884,5.85863 -44.22321,26.17485 c 0,0 -8.882438,5.29167 -26.741813,17.4814 l -23.906995,17.85938 c 0,0 -23.7180052,19.56026 -33.261904,28.34821 -4.063244,3.59077 -6.99256,6.23661 -11.717262,11.52828 z"
       id="path972"
       inkscape:connector-curvature="0"
       sodipodi:nodetypes="cccccccccccccccc" />
  </g>
  <g
     inkscape:groupmode="layer"
     id="layer8"
     inkscape:label="InnerSide"
     style="display:inline"
     transform="translate(46.873,-57.551)">
    <path
       inkscape:export-ydpi="96.099998"
       inkscape:export-xdpi="96.099998"
       sodipodi:nodetypes="cccccccccccccccccc"
       inkscape:connector-curvature="0"
       id="path982"
       d="m -21.240828,215.66086 c 0,0 -0.657619,0.75043 -1.744301,-0.24176 -1.002261,-1.20271 0.40762,-2.80494 1.069078,-3.60814 2.551339,-3.1183 4.822892,-5.46003 6.949008,-7.34991 3.590775,-3.26004 15.52374723,-13.3512 18.6420502,-15.90254 4.866444,-3.9215 13.1848988,-9.76992 20.9806588,-14.96709 6.992559,-4.58296 17.639786,-10.7576 17.639786,-10.7576 1.88988,-1.03943 3.51365,-0.21668 3.60814,0.0668 1.08668,1.18118 0.13363,2.40542 -0.73499,3.74177 1.40316,-0.86863 2.18827,-5.2911 0.65147,-7.86357 0,0 -2.34037,-3.46228 -6.416227,-1.25731 l -18.35632,10.94165 c -9.153981,5.64607 -21.71564777,14.85017 -21.71564777,14.85017 l -11.55940823,9.97249 c -7.383321,6.68174 -12.327807,11.60952 -14.232102,14.31562 -1.038283,1.57004 -1.422847,3.65003 -1.356029,5.0532 0.218562,3.37156 3.524524,4.34038 4.115112,4.38763 1.020774,0.11694 2.459722,-1.38141 2.459722,-1.38141 z"
       style="fill:#c8c7c6;fill-opacity:1;stroke:#c8c7c6;stroke-width:0.264583px;stroke-linecap:butt;stroke-linejoin:miter;stroke-opacity:1" />
  </g>
  <g
     inkscape:groupmode="layer"
     id="layer9"
     inkscape:label="InnerBottom"
     transform="translate(46.873,-57.551)">
    <path
       inkscape:export-ydpi="96.099998"
       inkscape:export-xdpi="96.099998"
       style="fill:#b8b7b6;fill-opacity:1;stroke:#b8b7b6;stroke-width:0.264583px;stroke-linecap:butt;stroke-linejoin:miter;stroke-opacity:1"
       d="m 135.10475,133.56794 c -0.13364,-2.53906 0.60135,-5.21175 2.13815,-7.68399 2.47224,-3.40769 9.08716,-6.41448 12.16076,-7.08265 3.0736,-0.80181 10.08943,-1.00226 13.96484,-0.86862 5.21175,0.26727 8.25015,3.26184 8.88671,5.87993 1.01478,4.83785 0.53453,6.34765 0.53453,6.34765 -2.93996,1.60362 -10.69078,3.60814 -13.89801,4.00904 -3.54132,0.46772 -11.35895,1.13589 -15.50163,0.93544 -2.6727,-0.13363 -8.28535,-1.5368 -8.28535,-1.5368 z"
       id="path1040"
       inkscape:connector-curvature="0"
       sodipodi:nodetypes="ccccccccc" />
  </g>
</svg>
