<?xml version="1.0" encoding="UTF-8"?>
<svg id="Layer_1" data-name="Layer 1" xmlns="http://www.w3.org/2000/svg" width="2000" height="956.17" viewBox="0 0 2000 956.17">
  <path d="m1203.71,914.01L51.92,627.59c-27.95-6.95-35.32-43.23-12.29-60.54L722.96,53.54c20.95-15.75,47.89-21.22,73.32-14.89l1151.8,286.42c27.95,6.95,35.32,43.23,12.29,60.54l-683.34,513.51c-20.95,15.75-47.89,21.22-73.32,14.89Z" style="fill: #fff; stroke: #3a3632; stroke-linecap: round; stroke-linejoin: round; stroke-width: 20px;"/>
  <path d="m1180.17,870.79L124.36,608.24c-17.61-4.38-22.25-27.23-7.74-38.13L746.51,96.76c20.95-15.75,47.89-21.22,73.32-14.89l1055.8,262.55c17.61,4.38,22.25,27.23,7.74,38.13l-629.89,473.35c-20.95,15.75-47.89,21.22-73.32,14.89Z" style="fill: none; stroke: #262262; stroke-linecap: round; stroke-linejoin: round; stroke-width: 10px;"/>
  <g>
    <g id="layer2">
      <path id="path1047" d="m768.71,308.52s-62.31,33.76-79.14,79.97c0,0-15.95,35.48,13.19,63.09,0,0,20.63,21.41,76.84,33.64,0,0,59.95,13.93,99.91,17.42,13.07.9,58.95-1.17,96.45-10.17,0,0,51.64-10.32,119.24-35.79,46.58-18.99,53.2-22.53,53.2-22.53,12.99-6.48,24.17-6.58,27.8-5.83,0,0,15.67.05,32.04,5.97,0,0,50.84,14.95,70.26,24.33,0,0,39.61,14.11,49.36,30.73,0,0,10.49,13.17.13,41.57,0,0-3.94,18.25-43.95,55.13,0,0,11.21,5.49,30.11,3.67,40.1-37.49,49.95-60.88,49.95-60.88,18.04-34.41-.47-52.21-.47-52.21-12.85-21.08-55.6-36.25-55.6-36.25-51.38-17.58-72.36-22.55-72.36-22.55-33.8-9.51-43.89-12.23-43.89-12.23-293.88-69.39-423.09-97.09-423.09-97.09Z" style="fill: #383850; stroke: #3a3632; stroke-miterlimit: 11.34; stroke-width: 2.52px;"/>
    </g>
    <path d="m792.57,321.41c-15.47,10.93-27.96,27.18-28.6,41.43s13.23,24.36,30.47,19.24c6.62-1.97,13.03-5.78,19.6-8.45s14.09-4.1,18.19-1.12c4.41,3.2,3.27,10.01,2.94,15.9-.54,9.62,1.8,18.6,7.8,24.88,6,6.28,15.83,9.66,27.17,8.21,10.56-1.35,21.51-6.59,32.11-11.51,10.61-4.92,21.78-9.76,32.06-10.16s19.16,5.16,17.37,14.4c-1.05,5.42-5.48,11.2-5.77,16.46-.47,8.4,9.47,11.35,18.76,11.82,40.8,2.08,91.83-20.73,124.18-55.51l-296.29-65.58Z" style="fill: #fff;"/>
  </g>
</svg>