<svg id="Layer_1" data-name="Layer 1" xmlns="http://www.w3.org/2000/svg" viewBox="0 0 600 2000"><path d="M298.22,1980h0A83.21,83.21,0,0,1,215,1895.1s40.8-1066.37,23.76-1161.38C212.72,697.14,67.61,595.14,67.61,333.32,67.61,140.89,176.76,20,298.12,20h0c121.36,0,230.51,120.89,230.51,313.32,0,261.82-145.1,363.82-171.18,400.4-17,95,23.76,1161.38,23.76,1161.38A83.2,83.2,0,0,1,298,1980h.21ZM298,1799.45h0a25,25,0,0,0-24.91,24.91v58.36A25,25,0,0,0,298,1907.63h0a25,25,0,0,0,24.91-24.91v-58.36A25,25,0,0,0,298,1799.45ZM194.12,316.57h0a25,25,0,0,0-24.91,24.91v58.36a25,25,0,0,0,24.91,24.91h0A25,25,0,0,0,219,399.84V341.48A25,25,0,0,0,194.12,316.57Zm103.85,0h0a25,25,0,0,0-24.91,24.91v58.36A25,25,0,0,0,298,424.75h0a25,25,0,0,0,24.91-24.91V341.48A25,25,0,0,0,298,316.57Zm103.86,0h0a25,25,0,0,0-24.91,24.91v58.36a25,25,0,0,0,24.91,24.91h0a25,25,0,0,0,24.91-24.91V341.48A25,25,0,0,0,401.83,316.57ZM246.05,157.8h0a25,25,0,0,0-24.92,24.91v58.36A25,25,0,0,0,246.05,266h0A25,25,0,0,0,271,241.07V182.71A25,25,0,0,0,246.05,157.8Zm103.85,0h0A25,25,0,0,0,325,182.71v58.36A25,25,0,0,0,349.9,266h0a25,25,0,0,0,24.91-24.91V182.71A25,25,0,0,0,349.9,157.8ZM246.05,475.35h0a25,25,0,0,0-24.92,24.91v58.36a25,25,0,0,0,24.92,24.91h0A25,25,0,0,0,271,558.62V500.26A25,25,0,0,0,246.05,475.35Zm103.85,0h0A25,25,0,0,0,325,500.26v58.36a25,25,0,0,0,24.91,24.91h0a25,25,0,0,0,24.91-24.91V500.26A25,25,0,0,0,349.9,475.35Z" style="fill:#cfd1d2"/><path d="M298.22,1980h0A83.21,83.21,0,0,1,215,1895.1s40.8-1066.37,23.76-1161.38C212.72,697.14,67.61,595.14,67.61,333.32,67.61,140.89,176.76,20,298.12,20h0c121.36,0,230.51,120.89,230.51,313.32,0,261.82-145.1,363.82-171.18,400.4-17,95,23.76,1161.38,23.76,1161.38A83.2,83.2,0,0,1,298,1980h.21ZM298,1799.45h0a25,25,0,0,0-24.91,24.91v58.36A25,25,0,0,0,298,1907.63h0a25,25,0,0,0,24.91-24.91v-58.36A25,25,0,0,0,298,1799.45ZM194.12,316.57h0a25,25,0,0,0-24.91,24.91v58.36a25,25,0,0,0,24.91,24.91h0A25,25,0,0,0,219,399.84V341.48A25,25,0,0,0,194.12,316.57Zm103.85,0h0a25,25,0,0,0-24.91,24.91v58.36A25,25,0,0,0,298,424.75h0a25,25,0,0,0,24.91-24.91V341.48A25,25,0,0,0,298,316.57Zm103.86,0h0a25,25,0,0,0-24.91,24.91v58.36a25,25,0,0,0,24.91,24.91h0a25,25,0,0,0,24.91-24.91V341.48A25,25,0,0,0,401.83,316.57ZM246.05,157.8h0a25,25,0,0,0-24.92,24.91v58.36A25,25,0,0,0,246.05,266h0A25,25,0,0,0,271,241.07V182.71A25,25,0,0,0,246.05,157.8Zm103.85,0h0A25,25,0,0,0,325,182.71v58.36A25,25,0,0,0,349.9,266h0a25,25,0,0,0,24.91-24.91V182.71A25,25,0,0,0,349.9,157.8ZM246.05,475.35h0a25,25,0,0,0-24.92,24.91v58.36a25,25,0,0,0,24.92,24.91h0A25,25,0,0,0,271,558.62V500.26A25,25,0,0,0,246.05,475.35Zm103.85,0h0A25,25,0,0,0,325,500.26v58.36a25,25,0,0,0,24.91,24.91h0a25,25,0,0,0,24.91-24.91V500.26A25,25,0,0,0,349.9,475.35Z" style="fill:#d0d2d3;stroke:#231f20;stroke-miterlimit:10;stroke-width:24px"/><path d="M298.22,1980h0A83.21,83.21,0,0,1,215,1895.1s40.8-1066.37,23.76-1161.38C212.72,697.14,67.61,595.14,67.61,333.32,67.61,140.89,176.76,20,298.12,20h0c121.36,0,230.51,120.89,230.51,313.32,0,261.82-145.1,363.82-171.18,400.4-17,95,23.76,1161.38,23.76,1161.38A83.2,83.2,0,0,1,298,1980h.21ZM298,1799.45h0a25,25,0,0,0-24.91,24.91v58.36A25,25,0,0,0,298,1907.63h0a25,25,0,0,0,24.91-24.91v-58.36A25,25,0,0,0,298,1799.45ZM194.12,316.57h0a25,25,0,0,0-24.91,24.91v58.36a25,25,0,0,0,24.91,24.91h0A25,25,0,0,0,219,399.84V341.48A25,25,0,0,0,194.12,316.57Zm103.85,0h0a25,25,0,0,0-24.91,24.91v58.36A25,25,0,0,0,298,424.75h0a25,25,0,0,0,24.91-24.91V341.48A25,25,0,0,0,298,316.57Zm103.86,0h0a25,25,0,0,0-24.91,24.91v58.36a25,25,0,0,0,24.91,24.91h0a25,25,0,0,0,24.91-24.91V341.48A25,25,0,0,0,401.83,316.57ZM246.05,157.8h0a25,25,0,0,0-24.92,24.91v58.36A25,25,0,0,0,246.05,266h0A25,25,0,0,0,271,241.07V182.71A25,25,0,0,0,246.05,157.8Zm103.85,0h0A25,25,0,0,0,325,182.71v58.36A25,25,0,0,0,349.9,266h0a25,25,0,0,0,24.91-24.91V182.71A25,25,0,0,0,349.9,157.8ZM246.05,475.35h0a25,25,0,0,0-24.92,24.91v58.36a25,25,0,0,0,24.92,24.91h0A25,25,0,0,0,271,558.62V500.26A25,25,0,0,0,246.05,475.35Zm103.85,0h0A25,25,0,0,0,325,500.26v58.36a25,25,0,0,0,24.91,24.91h0a25,25,0,0,0,24.91-24.91V500.26A25,25,0,0,0,349.9,475.35Z" style="fill:none;stroke:#3a3632;stroke-miterlimit:10;stroke-width:20px"/></svg>