<?xml version="1.0" encoding="UTF-8" standalone="no"?>
<svg
   xmlns:dc="http://purl.org/dc/elements/1.1/"
   xmlns:cc="http://creativecommons.org/ns#"
   xmlns:rdf="http://www.w3.org/1999/02/22-rdf-syntax-ns#"
   xmlns:svg="http://www.w3.org/2000/svg"
   xmlns="http://www.w3.org/2000/svg"
   xmlns:sodipodi="http://sodipodi.sourceforge.net/DTD/sodipodi-0.dtd"
   xmlns:inkscape="http://www.inkscape.org/namespaces/inkscape"
   inkscape:version="1.0beta1 (32d4812, 2019-09-19)"
   height="1782.5803"
   width="1979.1204"
   sodipodi:docname="slow_cooker.svg"
   version="1.1"
   viewBox="0 0 1979.1204 1782.5803"
   data-name="Layer 1"
   id="Layer_1">
  <metadata
     id="metadata21762">
    <rdf:RDF>
      <cc:Work
         rdf:about="">
        <dc:format>image/svg+xml</dc:format>
        <dc:type
           rdf:resource="http://purl.org/dc/dcmitype/StillImage" />
        <dc:title></dc:title>
      </cc:Work>
    </rdf:RDF>
  </metadata>
  <defs
     id="defs21760" />
  <sodipodi:namedview
     inkscape:current-layer="Layer_1"
     inkscape:window-maximized="0"
     inkscape:window-y="25"
     inkscape:window-x="0"
     inkscape:cy="891.27001"
     inkscape:cx="160.17048"
     inkscape:zoom="0.15011038"
     fit-margin-bottom="12"
     fit-margin-right="12"
     fit-margin-left="12"
     lock-margins="true"
     fit-margin-top="12"
     showgrid="false"
     id="namedview21758"
     inkscape:window-height="480"
     inkscape:window-width="870"
     inkscape:pageshadow="2"
     inkscape:pageopacity="0"
     guidetolerance="10"
     gridtolerance="10"
     objecttolerance="10"
     borderopacity="1"
     inkscape:document-rotation="0"
     bordercolor="#666666"
     pagecolor="#ffffff" />
  <path
     inkscape:connector-curvature="0"
     style="opacity:0.99;isolation:isolate;fill:#ffffff;stroke:#231f20;stroke-width:24px;stroke-linecap:round;stroke-linejoin:round"
     d="M 1817.9702,549.27001 V 1630.27 a 140,140 0 0 1 -139.69,140.31 H 301.45018 a 140,140 0 0 1 -140.3,-139.69 V 549.27001 Z"
     id="rect1518" />
  <path
     inkscape:connector-curvature="0"
     style="opacity:0.99;isolation:isolate;fill:none;stroke:#231f20;stroke-width:24px;stroke-linecap:round;stroke-linejoin:round"
     d="m 101.31018,548.91001 a 89.11,89.11 0 0 0 -89.309998,88.92 v 82.44 a 89.12,89.12 0 0 0 88.919998,89.3 h 60.22 v -260.3 h 48.77 c -2.39,-0.18 -4.81,-0.36 -7.25,-0.36 z"
     id="rect1552" />
  <path
     inkscape:connector-curvature="0"
     style="opacity:0.99;isolation:isolate;fill:none;stroke:#231f20;stroke-width:24px;stroke-linecap:round;stroke-linejoin:round"
     d="m 1877.8102,548.93001 a 89.1,89.1 0 0 1 89.31,88.91 v 82.43 a 89.11,89.11 0 0 1 -88.94,89.29 h -60.21 v -260.29 h -48.76 c 2.39,-0.18 4.81,-0.37 7.25,-0.37 z"
     id="path1558" />
  <g
     transform="translate(-10.439818,-14.729993)"
     id="g864">
    <path
       inkscape:connector-curvature="0"
       style="opacity:0.99;isolation:isolate;fill:#ffffff;fill-opacity:0.995951;stroke:#231f20;stroke-width:24px;stroke-linecap:round;stroke-linejoin:round"
       d="m 997.78,235.58 c -304,0.54 -597.54,127.69 -826.19,328.06 H 1828.41 C 1599.18,362.77 1304.77,235.58 1000,235.58 Z"
       id="path1510" />
    <path
       inkscape:connector-curvature="0"
       style="opacity:0.99;isolation:isolate;fill:none;stroke:#231f20;stroke-width:24px;stroke-linecap:round;stroke-linejoin:round"
       d="M 1198.09,251.3 C 1211.87,141.92 1134.38,42.07 1025,28.3 a 199,199 0 0 0 -25,-1.57 h -1.42 c -110.24,0.77 -199,90.75 -198.23,201 a 201.91,201.91 0 0 0 1.56,23.57"
       id="path1507" />
  </g>
  <circle
     id="circle21753"
     style="fill:#ffffff;stroke:#231f20;stroke-width:24px;stroke-miterlimit:10"
     r="208.88"
     cy="1008.15"
     cx="989.56018" />
  <line
     id="line21755"
     style="fill:none;stroke:#231f20;stroke-width:24px;stroke-linecap:round;stroke-miterlimit:10"
     y2="866.65002"
     x2="989.56018"
     y1="1008.15"
     x1="989.56018" />
</svg>
