<?xml version="1.0" encoding="UTF-8" standalone="no"?>
<svg
   xmlns:dc="http://purl.org/dc/elements/1.1/"
   xmlns:cc="http://creativecommons.org/ns#"
   xmlns:rdf="http://www.w3.org/1999/02/22-rdf-syntax-ns#"
   xmlns:svg="http://www.w3.org/2000/svg"
   xmlns="http://www.w3.org/2000/svg"
   xmlns:sodipodi="http://sodipodi.sourceforge.net/DTD/sodipodi-0.dtd"
   xmlns:inkscape="http://www.inkscape.org/namespaces/inkscape"
   inkscape:version="1.0beta1 (32d4812, 2019-09-19)"
   height="1952"
   width="483.91"
   sodipodi:docname="spatula_1.svg"
   version="1.1"
   viewBox="0 0 483.91 1952"
   data-name="Layer 1"
   id="Layer_1">
  <metadata
     id="metadata22336">
    <rdf:RDF>
      <cc:Work
         rdf:about="">
        <dc:format>image/svg+xml</dc:format>
        <dc:type
           rdf:resource="http://purl.org/dc/dcmitype/StillImage" />
        <dc:title></dc:title>
      </cc:Work>
    </rdf:RDF>
  </metadata>
  <defs
     id="defs22334" />
  <sodipodi:namedview
     inkscape:current-layer="Layer_1"
     inkscape:window-maximized="0"
     inkscape:window-y="25"
     inkscape:window-x="0"
     inkscape:cy="982"
     inkscape:cx="-673.48618"
     inkscape:zoom="0.136"
     fit-margin-right="12"
     fit-margin-left="12"
     fit-margin-bottom="0"
     lock-margins="false"
     fit-margin-top="12"
     showgrid="false"
     id="namedview22332"
     inkscape:window-height="480"
     inkscape:window-width="870"
     inkscape:pageshadow="2"
     inkscape:pageopacity="0"
     guidetolerance="10"
     gridtolerance="10"
     objecttolerance="10"
     borderopacity="1"
     inkscape:document-rotation="0"
     bordercolor="#666666"
     pagecolor="#ffffff" />
  <path
     inkscape:connector-curvature="0"
     id="path22325"
     style="fill:#231f20"
     d="m 165.78,822.68 -38.7,998.14 c 0,72.18 42.73,131.18 114.87,131.18 v 0 c 72.14,0 114.83,-59 114.83,-131.18 L 318.13,822.68" />
  <path
     inkscape:connector-curvature="0"
     id="path22327"
     style="fill:#ffffff;stroke:#231f20;stroke-width:23.7292px;stroke-linecap:round;stroke-linejoin:round"
     d="m 161.65,12 h 283.74 a 26.52,26.52 0 0 1 26.52,26.52 V 784.6 a 38.08,38.08 0 0 1 -38.08,38.08 H 50.08 A 38.08,38.08 0 0 1 12,784.6 v -623 A 149.65,149.65 0 0 1 161.65,12 Z" />
  <path
     inkscape:connector-curvature="0"
     id="path22329"
     style="fill:#ffffff;stroke:#231f20;stroke-width:23.7292px;stroke-linecap:round;stroke-linejoin:round"
     d="M 141.02,555.69 V 292.79 A 140.61,140.61 0 0 1 281.63,152.18 h 56.59" />
</svg>
