<?xml version="1.0" encoding="UTF-8" standalone="no"?>
<svg
   xmlns:dc="http://purl.org/dc/elements/1.1/"
   xmlns:cc="http://creativecommons.org/ns#"
   xmlns:rdf="http://www.w3.org/1999/02/22-rdf-syntax-ns#"
   xmlns:svg="http://www.w3.org/2000/svg"
   xmlns="http://www.w3.org/2000/svg"
   xmlns:sodipodi="http://sodipodi.sourceforge.net/DTD/sodipodi-0.dtd"
   xmlns:inkscape="http://www.inkscape.org/namespaces/inkscape"
   inkscape:version="1.0beta1 (32d4812, 2019-09-19)"
   height="1964"
   width="449.07999"
   sodipodi:docname="spoon.svg"
   version="1.1"
   viewBox="0 0 449.07999 1964"
   data-name="Layer 1"
   id="Layer_1">
  <metadata
     id="metadata23484">
    <rdf:RDF>
      <cc:Work
         rdf:about="">
        <dc:format>image/svg+xml</dc:format>
        <dc:type
           rdf:resource="http://purl.org/dc/dcmitype/StillImage" />
        <dc:title></dc:title>
      </cc:Work>
    </rdf:RDF>
  </metadata>
  <defs
     id="defs23482" />
  <sodipodi:namedview
     inkscape:current-layer="Layer_1"
     inkscape:window-maximized="0"
     inkscape:window-y="25"
     inkscape:window-x="0"
     inkscape:cy="982"
     inkscape:cx="-690.89118"
     inkscape:zoom="0.136"
     fit-margin-bottom="12"
     fit-margin-right="12"
     fit-margin-left="12"
     lock-margins="true"
     fit-margin-top="12"
     showgrid="false"
     id="namedview23480"
     inkscape:window-height="480"
     inkscape:window-width="870"
     inkscape:pageshadow="2"
     inkscape:pageopacity="0"
     guidetolerance="10"
     gridtolerance="10"
     objecttolerance="10"
     borderopacity="1"
     inkscape:document-rotation="0"
     bordercolor="#666666"
     pagecolor="#ffffff" />
  <path
     inkscape:connector-curvature="0"
     id="path23477"
     style="fill:#d1d3d4;stroke:#231f20;stroke-width:24px;stroke-miterlimit:10"
     d="m 224.55,12 c 114.76,0 212.53,218.47 212.53,396.73 0,51.78 -7.74,106.15 -29.6,154.21 a 242.34,242.34 0 0 1 -45,67.33 c -20.3,21.24 -46.31,35.86 -66.56,57.14 -9.6,10.09 -16,22.24 -15.58,59.71 l 33,1131.55 c 1.31,28.51 -36,71.26 -84.94,73.33 h -7.72 c -48.91,-2.07 -86.25,-44.82 -84.94,-73.33 l 33,-1131.55 c 0.46,-37.47 -6,-49.62 -15.58,-59.71 -20.25,-21.28 -46.26,-35.9 -66.56,-57.14 a 242.34,242.34 0 0 1 -45,-67.33 C 19.74,514.88 12,460.51 12,408.73 12.02,230.47 109.79,12 224.55,12" />
</svg>
