<?xml version="1.0" encoding="UTF-8"?>
<svg xmlns="http://www.w3.org/2000/svg" width="2000" height="2000" viewBox="0 0 2000 2000">
  <g id="Layer_1" data-name="Layer 1">
    <g id="layer2">
      <path id="path839" d="M1728.1,978.74c-40.8,82.83-183.19,98.07-275.07,51.17-91.88-46.9-226.23-247.78-226.23-247.78L398.95,374.35c-22.4-11.03-31.62-38.14-20.58-60.54,11.04-22.4,38.14-31.62,60.54-20.58l827.91,407.8c110.61,1.61,236.77-19,334.14,28.64,110.97,54.3,167.94,166.23,127.14,249.07h0Z" style="fill: #3a3632;"/>
    </g>
  </g>
  <g id="Isolation_Mode" data-name="Isolation Mode">
    <g>
      <g>
        <path d="M1712.32,1295.66s15.03-41.86-70.72-105.78c-105.09-78.34-420.69-101.89-537.98-44.72l-685.27,235.68c-16.65,3.98-31.58,9.04-44.29,15.23-68.03,33.16-63.04,95.31-63.04,95.31l34.81,336.02,626.59,148.54h0l693.38-386,46.51-294.27" style="fill: #ddb9a2; isolation: isolate; opacity: .99; stroke: #3a3632; stroke-linecap: round; stroke-linejoin: round; stroke-width: 20.11px;"/>
        <g id="layer3">
          <g id="g877">
            <path id="rect866" d="M982.1,1576.6l730.23-280.94-46.51,294.27-693.38,386,9.67-399.34Z" style="fill: #d6b196; isolation: isolate; opacity: .99; stroke: #3a3632; stroke-linecap: round; stroke-linejoin: round; stroke-width: 20.11px;"/>
          </g>
        </g>
        <path d="M1087.41,1138.27c145.79-75.21,443.35-34.43,550.98,45.81,34.35,25.61,74.29,61.63,74.94,107.54,.13,9.42-2.16,19.17-8.22,26.47-8.2,9.86-21.92,13.69-34.88,14.03-12.96,.34-25.82-2.23-38.77-2.6-19.72-.57-36.74,7.19-50.86,20.47-12.7,11.94-24.3,26.06-40.68,32.32-21.02,8.03-46.22,1.54-66.04,12.1-22.14,11.8-31.34,41.79-55.41,49.06-16.76,5.06-34.77-2.98-52.24-1.42-31.63,2.82-51.23,34.53-78.51,50.51-25.13,14.72-55.85,15.48-84.91,18.82-17.97,2.07-36.45,5.65-52.56,14.08s-23.54,24.04-38.79,31.79c-23.5,11.94-53.43-.19-78,9.45-13.67,5.37-24.12,16.94-37.87,22.1-25.17,9.44-54.31-6.09-68.78-28.41-9.18-14.15-11.79-29.99-22.93-42.65-11.12-12.64-24.67-24.63-42.06-27.36-18.38-2.88-36.57,5.26-55.11,6.92-26.46,2.36-53.8-9.62-69.69-30.54-8.14-10.72-14.74-24.54-27.84-28.16-16.02-4.42-32.02,9.25-48.6,7.86-10.86-.91-20.03-8.13-27.76-15.68-7.73-7.56-15.07-15.98-24.95-20.49-21.57-9.83-34.98,13.88-56.01,10.87-15.68-2.25-27.47-17.3-43.29-18.25-19.47-1.16-32.15,18.68-50.45,19.29-23.11,.77-37.61-19.97-63.7-10.66-11.28,4.03-20.68,11.82-30.77,18.2-10.1,6.38-22.01,11.57-33.81,9.39-9.63-1.78-18.53-10.28-18.86-20.18-.36-10.94,10.29-19.39,18.65-24.86,22.71-14.85,49.27-22.93,75.82-29.07,27.86-6.44,55.87-11.41,82.84-20.69,59.91-20.6,119.81-41.21,179.72-61.81,115.28-39.65,230.56-79.29,345.84-118.94,23.6-8.12,51.38-13.85,73.6-25.31Z" style="fill: #c54941; isolation: isolate; opacity: .99; stroke: #3a3632; stroke-linecap: round; stroke-linejoin: round; stroke-width: 20.6px;"/>
      </g>
      <g>
        <path d="M552.83,1567.25l2.55,1.83c5.73,4.1,13.77,2.72,17.75-3.04l5.72-8.28c5.59-8.09,18.09-6.86,21.93,2.16h0c3.84,9.02,16.34,10.26,21.93,2.16h0c5.59-8.09,18.09-6.86,21.93,2.16l3.93,9.23c2.74,6.42,10.34,9.34,16.78,6.44l2.87-1.29" style="fill: none; stroke: #3a3632; stroke-linecap: round; stroke-miterlimit: 10; stroke-width: 8.31px;"/>
        <path d="M610.52,1694.05l2.55,1.83c5.73,4.1,13.77,2.72,17.75-3.04l5.72-8.28c5.59-8.09,18.09-6.86,21.93,2.16h0c3.84,9.02,16.34,10.26,21.93,2.16h0c5.59-8.09,18.09-6.86,21.93,2.16l3.93,9.23c2.74,6.42,10.34,9.34,16.78,6.44l2.87-1.29" style="fill: none; stroke: #3a3632; stroke-linecap: round; stroke-miterlimit: 10; stroke-width: 8.31px;"/>
        <path d="M754.15,1816.69l2.34,2.08c5.26,4.67,13.4,4.13,17.98-1.18l6.58-7.64c6.43-7.47,18.72-4.95,21.58,4.42h0c2.85,9.37,15.15,11.89,21.58,4.42h0c6.43-7.47,18.72-4.95,21.58,4.42l2.92,9.58c2.03,6.67,9.28,10.36,16,8.14l2.99-.99" style="fill: none; stroke: #3a3632; stroke-linecap: round; stroke-miterlimit: 10; stroke-width: 8.31px;"/>
        <path d="M1057.5,1812.58l3.05,.81c6.84,1.81,13.85-2.3,15.47-9.08l2.33-9.74c2.28-9.52,14.39-12.76,21.27-5.69h0c6.87,7.07,18.99,3.83,21.27-5.69h0c2.28-9.52,14.39-12.76,21.27-5.69l7.03,7.24c4.89,5.03,13.06,5.09,18.02,.12l2.21-2.21" style="fill: none; stroke: #3a3632; stroke-linecap: round; stroke-miterlimit: 10; stroke-width: 8.31px;"/>
        <path d="M1486.24,1480.97l3.12,.44c7.01,1,13.47-3.91,14.25-10.83l1.13-9.94c1.1-9.72,12.74-14.36,20.42-8.15h0c7.68,6.22,19.32,1.57,20.42-8.15h0c1.1-9.72,12.74-14.36,20.42-8.15l7.86,6.36c5.47,4.42,13.58,3.52,17.9-2l1.92-2.46" style="fill: none; stroke: #3a3632; stroke-linecap: round; stroke-miterlimit: 10; stroke-width: 8.31px;"/>
        <path d="M1406.99,1660.52l3.12,.44c7.01,1,13.47-3.91,14.25-10.83l1.13-9.94c1.1-9.72,12.74-14.36,20.42-8.15h0c7.68,6.22,19.32,1.57,20.42-8.15h0c1.1-9.72,12.74-14.36,20.42-8.15l7.86,6.36c5.47,4.42,13.58,3.52,17.9-2l1.92-2.46" style="fill: none; stroke: #3a3632; stroke-linecap: round; stroke-miterlimit: 10; stroke-width: 8.31px;"/>
        <path d="M1148.56,1655.55l2.73,1.56c6.12,3.51,13.98,1.33,17.34-4.79l4.83-8.81c4.73-8.61,17.28-8.63,22.04-.04h0c4.76,8.59,17.32,8.57,22.04-.04h0c4.73-8.61,17.28-8.63,22.04-.04l4.87,8.79c3.39,6.12,11.25,8.26,17.36,4.73l2.72-1.57" style="fill: none; stroke: #3a3632; stroke-linecap: round; stroke-miterlimit: 10; stroke-width: 8.31px;"/>
        <path d="M1319.4,1586.26l3.06,.75c6.87,1.69,13.8-2.54,15.3-9.35l2.15-9.78c2.1-9.56,14.16-13.01,21.16-6.06h0c7,6.95,19.06,3.5,21.16-6.06h0c2.1-9.56,14.16-13.01,21.16-6.06l7.16,7.11c4.98,4.95,13.15,4.86,18.01-.2l2.17-2.25" style="fill: none; stroke: #3a3632; stroke-linecap: round; stroke-miterlimit: 10; stroke-width: 8.31px;"/>
        <path d="M755.58,1621.66l2.12,2.29c4.77,5.15,12.93,5.4,18.01,.55l7.3-6.97c7.14-6.82,19.12-3.13,21.03,6.47h0c1.91,9.6,13.9,13.29,21.03,6.47h0c7.14-6.82,19.12-3.13,21.03,6.47l1.95,9.82c1.36,6.83,8.21,11.2,15.11,9.64l3.08-.7" style="fill: none; stroke: #3a3632; stroke-linecap: round; stroke-miterlimit: 10; stroke-width: 8.31px;"/>
        <path d="M479.66,1753l2.42,1.99c5.44,4.46,13.56,3.6,17.91-1.89l6.26-7.89c6.12-7.72,18.5-5.68,21.74,3.57h0c3.24,9.25,15.62,11.28,21.74,3.57h0c6.12-7.72,18.5-5.68,21.74,3.57l3.31,9.46c2.3,6.58,9.7,9.98,16.32,7.51l2.95-1.1" style="fill: none; stroke: #3a3632; stroke-linecap: round; stroke-miterlimit: 10; stroke-width: 8.31px;"/>
        <path d="M398.5,1667.38l2.83,1.37c6.35,3.08,14.04,.39,16.97-5.95l4.21-9.11c4.11-8.91,16.64-9.78,21.99-1.53h0c5.35,8.25,17.87,7.38,21.99-1.53h0c4.11-8.91,16.64-9.78,21.99-1.53l5.47,8.44c3.81,5.87,11.8,7.48,17.65,3.55l2.6-1.75" style="fill: none; stroke: #3a3632; stroke-linecap: round; stroke-miterlimit: 10; stroke-width: 8.31px;"/>
        <path d="M385.83,1516.55l2.96,1.08c6.64,2.42,14-1.04,16.25-7.64l3.23-9.49c3.16-9.28,15.53-11.41,21.71-3.75h0c6.18,7.66,18.55,5.53,21.71-3.75h0c3.16-9.28,15.53-11.41,21.71-3.75l6.32,7.84c4.4,5.46,12.52,6.25,17.93,1.74l2.41-2.01" style="fill: none; stroke: #3a3632; stroke-linecap: round; stroke-miterlimit: 10; stroke-width: 8.31px;"/>
      </g>
    </g>
  </g>
</svg>