<?xml version="1.0" encoding="UTF-8" standalone="no"?>
<svg
   xmlns:dc="http://purl.org/dc/elements/1.1/"
   xmlns:cc="http://creativecommons.org/ns#"
   xmlns:rdf="http://www.w3.org/1999/02/22-rdf-syntax-ns#"
   xmlns:svg="http://www.w3.org/2000/svg"
   xmlns="http://www.w3.org/2000/svg"
   xmlns:sodipodi="http://sodipodi.sourceforge.net/DTD/sodipodi-0.dtd"
   xmlns:inkscape="http://www.inkscape.org/namespaces/inkscape"
   inkscape:version="1.0beta1 (32d4812, 2019-09-19)"
   height="811.54999"
   width="1924"
   sodipodi:docname="strainer.svg"
   version="1.1"
   viewBox="0 0 1924 811.55002"
   data-name="Layer 1"
   id="Layer_1">
  <metadata
     id="metadata24804">
    <rdf:RDF>
      <cc:Work
         rdf:about="">
        <dc:format>image/svg+xml</dc:format>
        <dc:type
           rdf:resource="http://purl.org/dc/dcmitype/StillImage" />
        <dc:title></dc:title>
      </cc:Work>
    </rdf:RDF>
  </metadata>
  <defs
     id="defs24802" />
  <sodipodi:namedview
     inkscape:current-layer="Layer_1"
     inkscape:window-maximized="0"
     inkscape:window-y="25"
     inkscape:window-x="0"
     inkscape:cy="398.77999"
     inkscape:cx="448.59794"
     inkscape:zoom="0.2425"
     fit-margin-bottom="12"
     fit-margin-right="12"
     fit-margin-left="12"
     lock-margins="true"
     fit-margin-top="12"
     showgrid="false"
     id="namedview24800"
     inkscape:window-height="480"
     inkscape:window-width="870"
     inkscape:pageshadow="2"
     inkscape:pageopacity="0"
     guidetolerance="10"
     gridtolerance="10"
     objecttolerance="10"
     borderopacity="1"
     inkscape:document-rotation="0"
     bordercolor="#666666"
     pagecolor="#ffffff" />
  <path
     inkscape:connector-curvature="0"
     id="path24639"
     style="fill:#ffffff;stroke:#231f20;stroke-width:24px;stroke-miterlimit:10"
     d="m 1315.47,197.57 h 534.68 a 61.85,61.85 0 0 1 61.85,61.85 v 0 a 61.85,61.85 0 0 1 -61.85,61.85 h -534.68" />
  <path
     inkscape:connector-curvature="0"
     id="path24641"
     style="fill:#ffffff;stroke:#231f20;stroke-width:24px;stroke-miterlimit:10"
     d="M 674.65,799.55 C 369.86,799.55 12,637.38 12,269 12,127 308.68,12 674.65,12 c 365.97,0 662.65,115.08 662.65,257 0.01,368.38 -357.86,530.55 -662.65,530.55 z" />
  <ellipse
     id="ellipse24643"
     style="fill:#939598"
     ry="18.09"
     rx="18.16"
     cy="569.08997"
     cx="674.65002" />
  <ellipse
     id="ellipse24645"
     style="fill:#939598"
     ry="18.09"
     rx="18.16"
     cy="641.13995"
     cx="674.65002" />
  <ellipse
     id="ellipse24647"
     style="fill:#939598"
     ry="18.09"
     rx="18.16"
     cy="713.17999"
     cx="674.65002" />
  <path
     inkscape:connector-curvature="0"
     id="path24649"
     style="fill:#939598"
     d="m 779.35,693.73 c 8.41,6 10.89,18.6 5.1,27.85 -5.79,9.25 -17.24,11.26 -25.22,4.66 a 21.75,21.75 0 0 1 -4.7,-27.54 17.05,17.05 0 0 1 24.82,-4.97 z" />
  <path
     inkscape:connector-curvature="0"
     id="path24651"
     style="fill:#939598"
     d="m 814.92,625.83 c 8.88,5.05 12.44,17.34 7.53,27.14 -4.91,9.8 -16,13.09 -24.66,7.42 -8.66,-5.67 -11.72,-17.62 -7.15,-26.9 4.57,-9.28 15.36,-12.77 24.28,-7.66 z" />
  <path
     inkscape:connector-curvature="0"
     id="path24653"
     style="fill:#939598"
     d="m 843.47,553.99 c 9.57,3.63 14.42,15.39 10.59,26 -3.83,10.61 -14.64,15.22 -23.78,10.59 -9.14,-4.63 -13.48,-16.12 -9.89,-25.71 a 17.73,17.73 0 0 1 23.08,-10.88 z" />
  <path
     inkscape:connector-curvature="0"
     id="path24655"
     style="fill:#939598"
     d="m 900.56,681.44 c 7.11,7 7.72,18.12 0.91,24.53 -6.81,6.41 -17.8,5.39 -24.43,-2.27 -6.5,-7.5 -6.78,-18.34 -0.52,-24.12 6.26,-5.78 16.84,-5.2 24.04,1.86 z" />
  <path
     inkscape:connector-curvature="0"
     id="path24657"
     style="fill:#939598"
     d="m 943.29,633.17 c 7.93,6.22 9.55,17 3.68,24.18 -5.87,7.18 -17.06,7.26 -24.5,0.63 -7.44,-6.63 -8.84,-17.25 -3.36,-23.92 5.48,-6.67 16.33,-7.05 24.18,-0.89 z" />
  <path
     inkscape:connector-curvature="0"
     id="path24659"
     style="fill:#939598"
     d="m 980.3,580.37 c 8.58,5.19 11.68,15.95 6.44,23.66 -5,7.83 -16.09,9.2 -24.27,3.37 -8.18,-5.83 -10.67,-16.17 -6,-23.38 4.8,-7.09 15.25,-8.85 23.83,-3.65 z" />
  <path
     inkscape:connector-curvature="0"
     id="path24661"
     style="fill:#939598"
     d="m 1009.34,522.88 c 9.42,3.42 14.09,13.45 10.38,22.39 -4.11,8.62 -14.73,11.79 -23.61,7.16 -8.88,-4.63 -13.14,-14.5 -9.53,-22 3.12,-7.61 13.33,-10.97 22.76,-7.55 z" />
  <path
     inkscape:connector-curvature="0"
     id="path24663"
     style="fill:#939598"
     d="m 1058.38,634.53 c 6.58,7.56 5.89,18.77 -1.58,25 -7.57,6 -18.65,4.45 -24.77,-3.53 -6.12,-7.98 -5.27,-19 1.86,-24.64 6.95,-5.81 17.9,-4.39 24.49,3.17 z" />
  <path
     inkscape:connector-curvature="0"
     id="path24665"
     style="fill:#939598"
     d="m 1106.36,586.87 c 7.62,6.45 8.62,17.83 1.91,25.06 a 17.34,17.34 0 0 1 -25.1,-0.23 c -6.92,-7.12 -7.61,-18.19 -1.4,-24.59 6.05,-6.53 16.9,-6.75 24.59,-0.24 z" />
  <path
     inkscape:connector-curvature="0"
     id="path24667"
     style="fill:#939598"
     d="m 1145.58,531.83 c 8.72,5 11.91,16.06 6.37,24.33 -5.25,8.47 -16.71,10.09 -24.8,4.2 -8.09,-5.89 -10.33,-16.39 -5.7,-23.9 4.93,-7.29 15.42,-9.58 24.13,-4.63 z" />
  <path
     inkscape:connector-curvature="0"
     id="path24669"
     style="fill:#939598"
     d="m 1173.69,470.38 c 9.4,3.19 14.73,13.51 11,22.7 a 17.29,17.29 0 0 1 -23.47,8.88 c -9.08,-4.25 -13.67,-14.3 -10.23,-22.42 3.44,-8.12 13.11,-12.43 22.7,-9.16 z" />
  <path
     inkscape:connector-curvature="0"
     id="path24671"
     style="fill:#939598"
     d="m 568.44,693.73 a 17,17 0 0 1 24.81,5 21.74,21.74 0 0 1 -4.7,27.54 c -8,6.6 -19.57,4.69 -25.22,-4.66 -5.65,-9.35 -3.33,-21.86 5.11,-27.88 z" />
  <path
     inkscape:connector-curvature="0"
     id="path24673"
     style="fill:#939598"
     d="m 532.87,625.83 c 9,-5.11 19.64,-1.58 24.27,7.66 4.63,9.24 1.47,21.26 -7.15,26.9 -8.62,5.64 -19.81,2.42 -24.65,-7.42 -4.84,-9.84 -1.34,-22.09 7.53,-27.14 z" />
  <path
     inkscape:connector-curvature="0"
     id="path24675"
     style="fill:#939598"
     d="m 504.31,553.99 a 17.73,17.73 0 0 1 23.08,10.91 c 3.59,9.59 -0.77,21.11 -9.88,25.71 -9.11,4.6 -19.85,-0.06 -23.78,-10.59 -3.93,-10.53 1.01,-22.4 10.58,-26.03 z" />
  <path
     inkscape:connector-curvature="0"
     id="path24677"
     style="fill:#939598"
     d="m 447.23,681.44 c 7.19,-7.06 17.81,-7.7 24,-1.86 6.19,5.84 6,16.62 -0.52,24.12 -6.63,7.66 -17.54,8.63 -24.42,2.27 -6.88,-6.36 -6.18,-17.55 0.94,-24.53 z" />
  <path
     inkscape:connector-curvature="0"
     id="path24679"
     style="fill:#939598"
     d="m 404.5,633.17 c 7.85,-6.15 18.72,-5.78 24.18,0.89 5.46,6.67 4.16,17.2 -3.37,23.92 -7.53,6.72 -18.61,6.52 -24.5,-0.63 -5.89,-7.15 -4.25,-17.97 3.69,-24.18 z" />
  <path
     inkscape:connector-curvature="0"
     id="path24681"
     style="fill:#939598"
     d="m 367.48,580.37 c 8.59,-5.18 19,-3.44 23.86,3.65 4.64,7.21 2.13,17.57 -6,23.38 -8.13,5.81 -19.21,4.46 -24.27,-3.37 -5.26,-7.71 -2.17,-18.47 6.41,-23.66 z" />
  <path
     inkscape:connector-curvature="0"
     id="path24683"
     style="fill:#939598"
     d="m 338.44,522.88 c 9.43,-3.42 19.64,-0.06 22.76,7.53 3.61,7.52 -0.63,17.38 -9.53,22 -8.9,4.62 -19.49,1.46 -23.6,-7.16 -3.72,-8.92 0.93,-18.95 10.37,-22.37 z" />
  <path
     inkscape:connector-curvature="0"
     id="path24685"
     style="fill:#939598"
     d="m 289.4,634.53 c 6.59,-7.56 17.55,-9 24.49,-3.18 7.14,5.65 7.95,16.71 1.86,24.64 -6.09,7.93 -17.19,9.54 -24.77,3.53 -7.46,-6.22 -8.16,-17.43 -1.58,-24.99 z" />
  <path
     inkscape:connector-curvature="0"
     id="path24687"
     style="fill:#939598"
     d="m 241.42,586.87 c 7.69,-6.51 18.55,-6.29 24.6,0.24 6.21,6.4 5.51,17.47 -1.4,24.59 a 17.34,17.34 0 0 1 -25.1,0.23 c -6.72,-7.23 -5.71,-18.61 1.9,-25.06 z" />
  <path
     inkscape:connector-curvature="0"
     id="path24689"
     style="fill:#939598"
     d="m 202.2,531.83 c 8.72,-4.95 19.2,-2.69 24.13,4.63 4.63,7.51 2.42,18 -5.7,23.9 -8.12,5.9 -19.54,4.27 -24.8,-4.2 -5.54,-8.27 -2.35,-19.38 6.37,-24.33 z" />
  <path
     inkscape:connector-curvature="0"
     id="path24691"
     style="fill:#939598"
     d="m 174.09,470.38 c 9.59,-3.27 19.38,1 22.75,9.16 3.37,8.16 -1.14,18.17 -10.22,22.42 a 17.29,17.29 0 0 1 -23.47,-8.88 c -3.79,-9.19 1.55,-19.51 10.94,-22.7 z" />
  <path
     inkscape:connector-curvature="0"
     id="path24693"
     style="fill:#939598"
     d="m 674.65,101.48 a 11.78,11.78 0 1 1 12.1,-11.78 11.95,11.95 0 0 1 -12.1,11.78 z" />
  <path
     inkscape:connector-curvature="0"
     id="path24695"
     style="fill:#939598"
     d="m 674.65,148.41 a 11.78,11.78 0 1 1 12.1,-11.78 11.94,11.94 0 0 1 -12.1,11.78 z" />
  <path
     inkscape:connector-curvature="0"
     id="path24697"
     style="fill:#939598"
     d="m 674.65,195.34 a 11.78,11.78 0 1 1 12.1,-11.78 11.94,11.94 0 0 1 -12.1,11.78 z" />
  <path
     inkscape:connector-curvature="0"
     id="path24699"
     style="fill:#939598"
     d="m 674.65,242.28 a 11.79,11.79 0 1 1 12.1,-11.79 12,12 0 0 1 -12.1,11.79 z" />
  <path
     inkscape:connector-curvature="0"
     id="path24701"
     style="fill:#939598"
     d="m 674.65,289.17 a 11.79,11.79 0 1 1 12.1,-11.78 11.95,11.95 0 0 1 -12.1,11.78 z" />
  <path
     inkscape:connector-curvature="0"
     id="path24703"
     style="fill:#939598"
     d="m 674.65,336.17 a 11.78,11.78 0 1 1 12.1,-11.78 11.95,11.95 0 0 1 -12.1,11.78 z" />
  <path
     inkscape:connector-curvature="0"
     id="path24705"
     style="fill:#939598"
     d="m 674.65,383.07 a 11.78,11.78 0 1 1 12.1,-11.78 11.94,11.94 0 0 1 -12.1,11.78 z" />
  <path
     inkscape:connector-curvature="0"
     id="path24707"
     style="fill:#939598"
     d="m 674.65,430 a 11.78,11.78 0 1 1 12.1,-11.78 11.94,11.94 0 0 1 -12.1,11.78 z" />
  <path
     inkscape:connector-curvature="0"
     id="path24709"
     style="fill:#939598"
     d="m 761.55,410.38 c 6.24,2.56 8.91,9.86 6.06,16.36 -3.11,6.48 -10.5,9.18 -16.46,6 a 12.33,12.33 0 0 1 10.4,-22.33 z" />
  <path
     inkscape:connector-curvature="0"
     id="path24711"
     style="fill:#939598"
     d="m 778.35,364.31 a 12.32,12.32 0 1 1 -15.35,7.76 12.18,12.18 0 0 1 15.35,-7.76 z" />
  <path
     inkscape:connector-curvature="0"
     id="path24713"
     style="fill:#939598"
     d="m 792.58,317.36 a 12.32,12.32 0 1 1 -15,8.44 12.16,12.16 0 0 1 15,-8.44 z" />
  <path
     inkscape:connector-curvature="0"
     id="path24715"
     style="fill:#939598"
     d="m 805.3,269.98 a 12.32,12.32 0 1 1 -14.8,8.85 12.18,12.18 0 0 1 14.8,-8.85 z" />
  <path
     inkscape:connector-curvature="0"
     id="path24717"
     style="fill:#939598"
     d="m 817,222.34 a 12.32,12.32 0 1 1 -14.63,9.14 12.17,12.17 0 0 1 14.63,-9.14 z" />
  <path
     inkscape:connector-curvature="0"
     id="path24719"
     style="fill:#939598"
     d="m 828,174.51 a 12.32,12.32 0 1 1 -14.5,9.36 12.19,12.19 0 0 1 14.5,-9.36 z" />
  <path
     inkscape:connector-curvature="0"
     id="path24721"
     style="fill:#939598"
     d="m 838.3,126.55 a 12.32,12.32 0 1 1 -14.38,9.54 12.21,12.21 0 0 1 14.38,-9.54 z" />
  <path
     inkscape:connector-curvature="0"
     id="path24723"
     style="fill:#939598"
     d="m 848.11,78.49 a 12.31,12.31 0 1 1 -14.28,9.68 12.19,12.19 0 0 1 14.28,-9.68 z" />
  <path
     inkscape:connector-curvature="0"
     id="path24725"
     style="fill:#939598"
     d="m 884.07,406.96 a 11.67,11.67 0 1 1 -14.66,18.11 c -4.85,-4.55 -5.6,-11.73 -1.86,-16.44 3.74,-4.71 11.05,-5.61 16.52,-1.67 z" />
  <path
     inkscape:connector-curvature="0"
     id="path24727"
     style="fill:#939598"
     d="m 909,367.82 a 11.67,11.67 0 1 1 -12,20 c -5.59,-3.57 -7.52,-10.8 -4.28,-16.15 A 12,12 0 0 1 909,367.82 Z" />
  <path
     inkscape:connector-curvature="0"
     id="path24729"
     style="fill:#939598"
     d="m 930.68,326.78 a 11.66,11.66 0 1 1 -10.59,20.76 12,12 0 0 1 -5.43,-15.83 c 2.84,-5.66 10.03,-7.86 16.02,-4.93 z" />
  <path
     inkscape:connector-curvature="0"
     id="path24731"
     style="fill:#939598"
     d="m 950.23,284.67 a 11.67,11.67 0 1 1 -9.61,21.24 11.66,11.66 0 1 1 9.61,-21.24 z" />
  <path
     inkscape:connector-curvature="0"
     id="path24733"
     style="fill:#939598"
     d="m 968.18,241.86 a 11.66,11.66 0 1 1 -8.83,21.57 11.66,11.66 0 1 1 8.83,-21.57 z" />
  <path
     inkscape:connector-curvature="0"
     id="path24735"
     style="fill:#939598"
     d="m 984.72,198.48 a 11.66,11.66 0 1 1 -8.12,21.85 c -6.23,-2.39 -9.49,-9.17 -7.25,-15.13 a 11.93,11.93 0 0 1 15.37,-6.72 z" />
  <path
     inkscape:connector-curvature="0"
     id="path24737"
     style="fill:#939598"
     d="m 999.8,154.57 a 11.66,11.66 0 1 1 -15.12,7.25 c 1.99,-6.04 8.77,-9.28 15.12,-7.25 z" />
  <path
     inkscape:connector-curvature="0"
     id="path24739"
     style="fill:#939598"
     d="m 1012.88,110.03 a 11.67,11.67 0 1 1 -6.24,22.46 c -6.42,-1.91 -10.14,-8.38 -8.44,-14.45 1.7,-6.07 8.22,-9.65 14.68,-8.01 z" />
  <path
     inkscape:connector-curvature="0"
     id="path24741"
     style="fill:#939598"
     d="m 1042.64,364.71 a 11.72,11.72 0 1 1 -16.61,-2.26 c 4.97,-3.95 12.4,-2.93 16.61,2.26 z" />
  <path
     inkscape:connector-curvature="0"
     id="path24743"
     style="fill:#939598"
     d="m 1077.77,333.99 a 11.73,11.73 0 1 1 -17.29,15.82 c -4.37,-5.06 -4.11,-12.56 0.6,-16.75 a 12,12 0 0 1 16.69,0.93 z" />
  <path
     inkscape:connector-curvature="0"
     id="path24745"
     style="fill:#939598"
     d="m 1109.77,300.04 a 11.72,11.72 0 1 1 -15.6,17.48 12.2,12.2 0 0 1 -1.16,-16.71 c 4.15,-4.64 11.68,-4.99 16.76,-0.77 z" />
  <path
     inkscape:connector-curvature="0"
     id="path24747"
     style="fill:#939598"
     d="m 1137.36,262.42 a 11.73,11.73 0 1 1 -13.27,19.31 c -5.36,-4 -6.75,-11.33 -3.1,-16.36 3.46,-5.2 10.7,-6.54 16.37,-2.95 z" />
  <path
     inkscape:connector-curvature="0"
     id="path24749"
     style="fill:#939598"
     d="m 1159.94,221.6 a 11.76,11.76 0 0 1 5.59,16 c -2.87,6.1 -10.46,8.11 -16.26,4.87 a 12.22,12.22 0 0 1 -5.31,-15.85 c 2.75,-5.57 9.9,-7.81 15.98,-5.02 z" />
  <path
     inkscape:connector-curvature="0"
     id="path24751"
     style="fill:#939598"
     d="m 1177,178.17 a 11.73,11.73 0 1 1 -7.82,22.1 c -6.15,-2.45 -9.55,-9.22 -7.46,-15.08 2.09,-5.86 8.95,-9.02 15.28,-7.02 z" />
  <path
     inkscape:connector-curvature="0"
     id="path24753"
     style="fill:#939598"
     d="m 586.24,410.38 a 12.33,12.33 0 0 1 10.39,22.33 c -6,3.21 -13.34,0.51 -16.46,-6 -2.85,-6.47 -0.17,-13.77 6.07,-16.33 z" />
  <path
     inkscape:connector-curvature="0"
     id="path24755"
     style="fill:#939598"
     d="m 569.43,364.31 a 12.31,12.31 0 1 1 -7.55,15.6 12.24,12.24 0 0 1 7.55,-15.6 z" />
  <path
     inkscape:connector-curvature="0"
     id="path24757"
     style="fill:#939598"
     d="m 555.2,317.36 a 12.32,12.32 0 1 1 -8.2,15.22 12.26,12.26 0 0 1 8.2,-15.22 z" />
  <path
     inkscape:connector-curvature="0"
     id="path24759"
     style="fill:#939598"
     d="m 542.48,269.98 a 12.31,12.31 0 1 1 -8.61,15 12.25,12.25 0 0 1 8.61,-15 z" />
  <path
     inkscape:connector-curvature="0"
     id="path24761"
     style="fill:#939598"
     d="m 530.77,222.34 a 12.32,12.32 0 1 1 -8.9,14.81 12.23,12.23 0 0 1 8.9,-14.81 z" />
  <path
     inkscape:connector-curvature="0"
     id="path24763"
     style="fill:#939598"
     d="m 519.82,174.51 a 12.32,12.32 0 1 1 -9.12,14.66 12.24,12.24 0 0 1 9.12,-14.66 z" />
  <path
     inkscape:connector-curvature="0"
     id="path24765"
     style="fill:#939598"
     d="m 509.48,126.55 a 12.32,12.32 0 1 1 -9.29,14.62 12.25,12.25 0 0 1 9.29,-14.62 z" />
  <path
     inkscape:connector-curvature="0"
     id="path24767"
     style="fill:#939598"
     d="m 499.67,78.49 a 12.31,12.31 0 1 1 -9.45,14.46 12.23,12.23 0 0 1 9.45,-14.46 z" />
  <path
     inkscape:connector-curvature="0"
     id="path24769"
     style="fill:#939598"
     d="m 463.72,406.96 c 5.46,-3.94 12.73,-3 16.51,1.67 3.78,4.67 3,11.89 -1.86,16.44 a 11.67,11.67 0 1 1 -14.65,-18.11 z" />
  <path
     inkscape:connector-curvature="0"
     id="path24771"
     style="fill:#939598"
     d="m 438.79,367.82 a 12,12 0 0 1 16.26,3.84 c 3.24,5.35 1.31,12.58 -4.28,16.15 a 11.67,11.67 0 1 1 -12,-20 z" />
  <path
     inkscape:connector-curvature="0"
     id="path24773"
     style="fill:#939598"
     d="m 417.11,326.78 c 6,-2.93 13.17,-0.73 16,4.93 a 12,12 0 0 1 -5.43,15.83 11.66,11.66 0 1 1 -10.58,-20.76 z" />
  <path
     inkscape:connector-curvature="0"
     id="path24775"
     style="fill:#939598"
     d="m 397.56,284.67 a 11.66,11.66 0 1 1 9.6,21.24 11.66,11.66 0 1 1 -9.6,-21.24 z" />
  <path
     inkscape:connector-curvature="0"
     id="path24777"
     style="fill:#939598"
     d="m 379.61,241.86 a 11.66,11.66 0 1 1 8.82,21.57 11.66,11.66 0 1 1 -8.82,-21.57 z" />
  <path
     inkscape:connector-curvature="0"
     id="path24779"
     style="fill:#939598"
     d="m 363.07,198.48 a 11.92,11.92 0 0 1 15.36,6.69 c 2.24,6 -1,12.74 -7.24,15.13 a 11.67,11.67 0 1 1 -8.12,-21.85 z" />
  <path
     inkscape:connector-curvature="0"
     id="path24781"
     style="fill:#939598"
     d="m 348,154.57 c 6.35,-2 13.13,1.21 15.12,7.25 A 12.11,12.11 0 1 1 348,154.57 Z" />
  <path
     inkscape:connector-curvature="0"
     id="path24783"
     style="fill:#939598"
     d="m 334.9,110.03 c 6.46,-1.64 13,1.94 14.68,8 1.68,6.06 -2,12.54 -8.44,14.45 a 11.67,11.67 0 1 1 -6.24,-22.46 z" />
  <path
     inkscape:connector-curvature="0"
     id="path24785"
     style="fill:#939598"
     d="m 305.14,364.71 c 4.21,-5.19 11.65,-6.21 16.61,-2.26 a 12.11,12.11 0 1 1 -16.61,2.26 z" />
  <path
     inkscape:connector-curvature="0"
     id="path24787"
     style="fill:#939598"
     d="m 270,333.99 a 12,12 0 0 1 16.7,-0.93 c 4.7,4.19 5,11.69 0.6,16.75 A 11.73,11.73 0 1 1 270,333.99 Z" />
  <path
     inkscape:connector-curvature="0"
     id="path24789"
     style="fill:#939598"
     d="m 238,300.04 c 5.09,-4.22 12.62,-3.9 16.76,0.77 A 12.2,12.2 0 0 1 253.6,317.52 11.72,11.72 0 1 1 238,300.04 Z" />
  <path
     inkscape:connector-curvature="0"
     id="path24791"
     style="fill:#939598"
     d="m 210.42,262.42 c 5.67,-3.59 12.91,-2.21 16.37,2.95 3.65,5 2.26,12.36 -3.1,16.36 a 11.73,11.73 0 1 1 -13.27,-19.31 z" />
  <path
     inkscape:connector-curvature="0"
     id="path24793"
     style="fill:#939598"
     d="m 187.85,221.6 c 6.07,-2.79 13.23,-0.55 16,5 a 12.23,12.23 0 0 1 -5.32,15.85 c -5.8,3.24 -13.39,1.23 -16.26,-4.87 a 11.75,11.75 0 0 1 5.58,-15.98 z" />
  <path
     inkscape:connector-curvature="0"
     id="path24795"
     style="fill:#939598"
     d="m 170.83,178.17 c 6.28,-2 13.22,1.15 15.28,7 2.06,5.85 -1.31,12.63 -7.46,15.08 a 11.73,11.73 0 1 1 -7.82,-22.1 z" />
  <path
     inkscape:connector-curvature="0"
     id="path24797"
     style="fill:none;stroke:#231f20;stroke-width:24px;stroke-miterlimit:10"
     d="m 1337.3,263.95 c 0,122 -296.68,221 -662.65,221 C 308.68,484.95 12,385.99 12,263.95" />
</svg>
