<?xml version="1.0" encoding="UTF-8" standalone="no"?>
<svg
   xmlns:dc="http://purl.org/dc/elements/1.1/"
   xmlns:cc="http://creativecommons.org/ns#"
   xmlns:rdf="http://www.w3.org/1999/02/22-rdf-syntax-ns#"
   xmlns:svg="http://www.w3.org/2000/svg"
   xmlns="http://www.w3.org/2000/svg"
   xmlns:xlink="http://www.w3.org/1999/xlink"
   xmlns:sodipodi="http://sodipodi.sourceforge.net/DTD/sodipodi-0.dtd"
   xmlns:inkscape="http://www.inkscape.org/namespaces/inkscape"
   width="284.21085mm"
   height="209.83041mm"
   viewBox="0 0 284.21084 209.83041"
   version="1.1"
   id="svg8"
   inkscape:version="1.0beta1 (32d4812, 2019-09-19)"
   sodipodi:docname="third_cup.svg">
  <defs
     id="defs2">
    <linearGradient
       id="linearGradient1267"
       inkscape:collect="always">
      <stop
         id="stop1263"
         offset="0"
         style="stop-color:#e37157;stop-opacity:1" />
      <stop
         id="stop1265"
         offset="1"
         style="stop-color:#e37157;stop-opacity:1" />
    </linearGradient>
    <linearGradient
       inkscape:collect="always"
       id="linearGradient1259">
      <stop
         style="stop-color:#d36147;stop-opacity:1;"
         offset="0"
         id="stop1255" />
      <stop
         style="stop-color:#e37157;stop-opacity:1"
         offset="1"
         id="stop1257" />
    </linearGradient>
    <linearGradient
       inkscape:collect="always"
       id="linearGradient1235">
      <stop
         style="stop-color:#e37157;stop-opacity:1"
         offset="0"
         id="stop1231" />
      <stop
         style="stop-color:#d36147;stop-opacity:1"
         offset="1"
         id="stop1233" />
    </linearGradient>
    <linearGradient
       inkscape:collect="always"
       xlink:href="#linearGradient1235"
       id="linearGradient1237"
       x1="-26.700586"
       y1="203.98541"
       x2="137.39178"
       y2="203.98541"
       gradientUnits="userSpaceOnUse" />
    <linearGradient
       inkscape:collect="always"
       xlink:href="#linearGradient1235"
       id="linearGradient1245"
       x1="-26.700586"
       y1="203.98541"
       x2="137.39178"
       y2="203.98541"
       gradientUnits="userSpaceOnUse" />
    <radialGradient
       inkscape:collect="always"
       xlink:href="#linearGradient1267"
       id="radialGradient1253"
       cx="165.06656"
       cy="124.19889"
       fx="165.06656"
       fy="124.19889"
       r="65.268158"
       gradientTransform="matrix(1,0,0,0.61589753,0,37.333261)"
       gradientUnits="userSpaceOnUse" />
    <radialGradient
       inkscape:collect="always"
       xlink:href="#linearGradient1259"
       id="radialGradient1261"
       cx="165.06656"
       cy="124.19889"
       fx="165.06656"
       fy="124.19889"
       r="65.268158"
       gradientTransform="matrix(1,0,0,0.61589753,0,37.333261)"
       gradientUnits="userSpaceOnUse" />
  </defs>
  <sodipodi:namedview
     id="base"
     pagecolor="#ffffff"
     bordercolor="#666666"
     borderopacity="1.0"
     inkscape:pageopacity="0.0"
     inkscape:pageshadow="2"
     inkscape:zoom="0.7"
     inkscape:cx="511.93357"
     inkscape:cy="495.21713"
     inkscape:document-units="mm"
     inkscape:current-layer="layer2"
     inkscape:document-rotation="0"
     showgrid="false"
     fit-margin-top="0"
     fit-margin-left="0"
     fit-margin-right="0"
     fit-margin-bottom="0"
     inkscape:window-width="1920"
     inkscape:window-height="1035"
     inkscape:window-x="0"
     inkscape:window-y="23"
     inkscape:window-maximized="0" />
  <metadata
     id="metadata5">
    <rdf:RDF>
      <cc:Work
         rdf:about="">
        <dc:format>image/svg+xml</dc:format>
        <dc:type
           rdf:resource="http://purl.org/dc/dcmitype/StillImage" />
        <dc:title />
      </cc:Work>
    </rdf:RDF>
  </metadata>
  <g
     inkscape:groupmode="layer"
     id="layer2"
     inkscape:label="Outline"
     style="display:inline"
     transform="translate(49.278426,-55.703222)">
    <path
       inkscape:export-ydpi="96.099998"
       inkscape:export-xdpi="96.099998"
       d="m 197.60869,55.948746 c -4.26876,-0.147135 -8.56168,-0.46104 -14.50565,-0.01664 -8.12648,0.75596 -27.87427,4.488206 -27.87427,4.488206 -8.5531,1.638821 -21.08727,4.443381 -27.41838,7.522536 -4.29023,1.980439 -14.3944,6.705815 -19.75485,12.750653 -3.02382,3.68527 -7.93866,9.752349 -9.149304,14.054539 -0.85044,3.401787 -3.768582,8.40034 -6.697889,10.29022 -5.95313,3.96875 -18.441365,10.15628 -18.441365,10.15628 l -30.870055,17.37217 c -18.23735,10.48884 -24.922824,16.53932 -31.537407,20.98054 -5.7641385,3.96875 -15.0831705,11.59542 -20.8473065,16.03664 -6.0733295,5.00146 -12.2101925,11.50317 -15.2340025,14.43249 -5.480654,5.85863 -13.363535,16.57077 -13.363535,16.57077 -4.812482,6.54302 -11.193102,16.57044 -11.193102,16.57044 0.277921,12.43984 11.99473,36.52169 22.68551,48.28156 7.356629,-10.18867 14.967368,-19.91187 19.110045,-24.45545 4.9444857,-6.28083 22.096768,-22.70189 22.096768,-22.70189 13.190464,-11.8636 24.541591,-20.63469 37.236889,-30.39002 17.29424,-11.88678 52.518374,-34.61144 57.195584,-37.81868 4.94564,-3.28945 11.09195,-7.61752 11.09195,-7.61752 2.1678,-1.09872 5.33943,-2.67941 8.55222,-3.34087 4.37638,-0.71682 6.62086,0.0233 10.28992,0.53495 4.91369,0.75595 10.879,1.38003 13.76443,1.33614 6.06776,-0.189 13.71003,-1.31737 18.84235,-2.40544 4.39733,-1.00504 13.70075,-3.81421 18.70893,-7.216 5.19717,-3.30728 18.54413,-11.79743 23.65352,-16.57077 6.40938,-6.22989 12.21722,-13.04909 15.9025,-17.773793 4.77725,-6.634731 5.16324,-12.262974 5.06873,-16.326214 -0.28347,-4.63021 -2.83057,-10.434308 -6.51584,-14.119577 -3.1183,-2.92931 -8.70075,-5.593483 -13.51995,-7.105383 -3.44312,-1.1044 -12.29512,-3.490227 -17.27644,-3.519887 z M 42.617147,155.80777 c 1.81495,0.0289 4.163293,1.95944 4.683013,2.99888 2.07887,4.44122 -2.460921,7.29211 -3.783841,8.14255 0,0 -15.501941,10.2928 -20.100881,13.66608 -5.338914,4.016 -9.765707,7.60839 -16.8517075,13.47686 -5.3372849,4.65429 -12.753713,11.38868 -17.8986495,16.0659 0,0 -9.546538,10.67242 -11.108254,11.85177 -1.47948,0.96786 -4.784199,2.34522 -5.973481,0.69968 -1.141672,-2.00458 -3.01131,-6.80035 0.143353,-11.11186 2.362351,-3.49628 20.95839,-23.40355 28.612407,-29.26218 7.181546,-5.38616 20.127452,-13.79606 20.127452,-13.79606 l 18.002216,-12.08567 c 1.653646,-0.99219 4.148373,-0.64595 4.148373,-0.64595 z"
       style="fill:#f38167;fill-opacity:1;stroke:#f38167;stroke-width:0.264583px;stroke-linecap:butt;stroke-linejoin:miter;stroke-opacity:1"
       id="path966"
       inkscape:connector-curvature="0"
       sodipodi:nodetypes="cccccccccccccccccccccccccccccccccccccccccccc" />
  </g>
  <g
     inkscape:groupmode="layer"
     id="layer3"
     inkscape:label="InnerCup"
     style="display:inline"
     transform="translate(49.278426,-55.703222)">
    <path
       inkscape:export-ydpi="96.099998"
       inkscape:export-xdpi="96.099998"
       style="fill:url(#radialGradient1261);fill-opacity:1;stroke:url(#radialGradient1253);stroke-width:0.264583px;stroke-linecap:butt;stroke-linejoin:miter;stroke-opacity:1"
       d="m 110.33483,84.926858 c -4.14268,5.078121 -7.47012,11.30917 -7.73739,18.124542 -0.4009,4.40994 5.14855,13.54853 8.48941,17.2903 3.20724,3.60814 8.75111,8.8009 15.96739,12.67631 5.21175,3.0736 20.61774,4.67722 31.84306,4.14268 11.8935,-0.53454 25.19965,-4.80529 30.34459,-8.54707 10.82442,-7.61718 28.17675,-21.03062 34.18363,-28.55985 6.21402,-7.683994 10.51489,-14.308075 9.17854,-22.125708 -0.74447,-4.74376 -3.03528,-8.781569 -7.17795,-11.921986 -5.54584,-4.209495 -14.34247,-6.368613 -20.75694,-7.97223 -4.27631,-0.935444 -11.97734,-1.41463 -23.60356,-0.07828 0,0 -24.24325,4.054899 -30.12318,5.391247 -5.21176,1.069078 -20.94429,5.312965 -26.69059,9.054739 -3.87541,2.672695 -10.30887,8.516265 -13.91701,12.525308 z"
       id="path969"
       inkscape:connector-curvature="0"
       sodipodi:nodetypes="ccccccccccccccc" />
  </g>
  <g
     inkscape:groupmode="layer"
     id="layer5"
     inkscape:label="CupSide"
     style="display:inline"
     transform="translate(49.278426,-55.703222)">
    <path
       inkscape:export-ydpi="96.099998"
       inkscape:export-xdpi="96.099998"
       style="fill:#d36147;fill-opacity:1;stroke:#e37157;stroke-width:0.264583px;stroke-linecap:butt;stroke-linejoin:miter;stroke-opacity:1"
       d="m 117.89778,148.97634 c 3.27405,3.34087 9.31298,8.99709 15.39581,10.60823 6.20476,1.64079 10.68016,2.44448 14.64371,2.67177 3.96355,0.22729 7.41525,-0.055 10.23623,-0.2521 8.117,-0.64525 20.09874,-6.47145 24.06749,-9.68425 4.72471,-3.40178 13.58538,-9.99066 21.33389,-19.62905 6.61458,-8.31548 15.29575,-20.11773 15.29575,-20.11773 l 9.01412,-13.11633 c -5.49835,6.91182 -11.0826,12.82121 -14.84026,16.12147 -2.99663,2.63185 -12.18808,9.17132 -21.70832,15.10447 -4.52426,3.08866 -9.51901,5.06436 -15.81572,6.84156 -8.11421,2.49599 -19.4192,3.48322 -22.24141,3.46029 -9.38652,-0.0344 -17.10955,-2.17569 -21.19572,-2.18044 -5.13707,0.0621 -8.38193,1.96668 -11.94503,3.65136 z"
       id="path975"
       inkscape:connector-curvature="0"
       sodipodi:nodetypes="ccscccccscccccc" />
  </g>
  <g
     inkscape:groupmode="layer"
     id="layer4"
     inkscape:label="Side"
     style="display:inline"
     transform="translate(49.278426,-55.703222)">
    <path
       inkscape:export-ydpi="96.099998"
       inkscape:export-xdpi="96.099998"
       style="fill:url(#linearGradient1245);fill-opacity:1;stroke:url(#linearGradient1237);stroke-width:0.264583px;stroke-linecap:butt;stroke-linejoin:miter;stroke-opacity:1"
       d="m -26.592916,265.53364 11.85419,-6.5476 C -12.754351,255.39527 0.84396963,238.27241 0.84396963,238.27241 11.616291,226.27167 18.811228,220.12403 26.843222,213.03698 c 18.709821,-15.59152 34.10627,-25.68613 42.51624,-31.96998 19.229539,-13.22917 42.231628,-27.83886 42.231628,-27.83886 4.15282,-2.80993 6.30669,-4.2518 6.30669,-4.2518 4.87374,-4.02525 19.47876,-5.71988 19.47876,-5.71988 l -17.23822,-0.80087 -9.30254,6.37827 -38.358847,25.22417 c 0,0 -14.504834,9.21317 -25.513391,17.57589 -12.189732,9.16593 -23.387277,18.70983 -23.387277,18.70983 0,0 -12.024367,9.52027 -29.6475072,28.9388 -3.3819483,3.69289 -12.8748858,15.5395 -20.5216738,26.25109 z"
       id="path972"
       inkscape:connector-curvature="0"
       sodipodi:nodetypes="ccccccccccccccc" />
  </g>
  <g
     inkscape:groupmode="layer"
     id="layer8"
     inkscape:label="InnerSide"
     style="display:inline"
     transform="translate(49.278426,-55.703222)">
    <path
       inkscape:export-ydpi="96.099998"
       inkscape:export-xdpi="96.099998"
       sodipodi:nodetypes="cccccccccccccccccc"
       inkscape:connector-curvature="0"
       id="path982"
       d="m -20.626617,220.29107 c 0,0 -2.169523,1.41189 -3.256205,0.4197 -1.002261,-1.20271 2.344748,-5.26179 3.006206,-6.06499 2.551339,-3.1183 5.787978,-6.9585 8.047729,-9.21588 3.5239578,-3.46049 12.58378265,-12.74984 16.9716159,-16.43708 4.866444,-3.9215 12.6503601,-10.23764 20.4461201,-15.43481 6.992559,-4.58296 17.77342,-11.79327 17.77342,-11.79327 1.221707,-0.87238 3.680694,-0.58417 4.343132,-0.16706 1.186906,0.78028 0.267264,1.43657 0.100227,2.43883 1.202708,-2.07134 1.520096,-4.08839 -0.05011,-5.99268 -3.274051,-3.50791 -7.618943,-2.12593 -8.220296,-1.65822 L 20.91389,168.19589 c -8.953529,5.81311 -16.8379786,11.24203 -21.64883015,14.98381 -3.17382565,2.53906 -6.18060895,5.36209 -11.12509485,10.44021 -6.982417,7.01582 -14.996272,15.95065 -16.900567,18.65675 -1.81479,2.73935 -1.133929,6.23661 -1.133929,6.23661 0.340732,2.48742 1.288889,4.99942 2.910313,4.9546 1.026849,0.0352 3.99525,-0.24749 6.357601,-3.1768 z"
       style="fill:#e37157;fill-opacity:1;stroke:#e37157;stroke-width:0.264583px;stroke-linecap:butt;stroke-linejoin:miter;stroke-opacity:1" />
  </g>
  <g
     inkscape:groupmode="layer"
     id="layer9"
     inkscape:label="InnerBottom"
     transform="translate(49.278426,-55.703222)"
     style="display:inline">
    <path
       inkscape:export-ydpi="96.099998"
       inkscape:export-xdpi="96.099998"
       style="fill:#d36147;fill-opacity:1;stroke:#d36147;stroke-width:0.264583px;stroke-linecap:butt;stroke-linejoin:miter;stroke-opacity:1"
       d="m 126.36314,132.61767 c -0.12819,-1.35841 6.78908,-6.94506 7.80616,-7.66916 6.44099,-4.0219 14.56619,-4.81087 17.63979,-5.47904 3.59331,-0.61282 12.62849,-0.73499 16.5039,-0.60135 5.1645,0.26727 9.95497,4.31749 10.59153,6.41586 1.29827,3.32595 1.01511,7.74607 1.01511,7.74607 -5.16057,1.65087 -11.6327,3.49743 -19.61188,4.04007 -4.91148,0.27874 -9.83731,0.46911 -21.68125,-0.91251 -4.2791,-0.55886 -8.34186,-1.31933 -12.26336,-3.53994 z"
       id="path1040"
       inkscape:connector-curvature="0"
       sodipodi:nodetypes="ccccccccc" />
  </g>
</svg>
