<svg id="Layer_1" data-name="Layer 1" xmlns="http://www.w3.org/2000/svg" viewBox="0 0 2000 701.99"><path d="M822.8,204.15,776,258.46a41.6,41.6,0,0,1-58.68,4.33l-22.8-19.66a41.61,41.61,0,0,0-58.68,4.34l-19.66,22.79a41.62,41.62,0,0,1-58.69,4.34l-22.79-19.66A41.62,41.62,0,0,0,476,259.27l-19.66,22.8a41.6,41.6,0,0,1-58.68,4.33l-22.79-19.66a41.62,41.62,0,0,0-58.69,4.34l-19.66,22.79a41.63,41.63,0,0,1-58.69,4.34L215,278.55a41.62,41.62,0,0,0-58.69,4.33L136.6,305.75A41.61,41.61,0,0,1,78,310.16L44.47,281.39a65.82,65.82,0,0,1-22.78-45.11h0A65.84,65.84,0,0,1,82,165.8l751.69-60.89L1955.31,56,1966,200.07l-258.18,19.07-1.67-22.66A57,57,0,0,0,1645,143.82Z" style="fill:#d1d3d4;stroke:#231f20;stroke-miterlimit:10;stroke-width:24px"/><path d="M851.69,392.93l-60.57-38.39a41.6,41.6,0,0,0-57.42,12.88l-16.12,25.42a41.61,41.61,0,0,1-57.42,12.87L634.74,389.6a41.61,41.61,0,0,0-57.42,12.87L561.21,427.9a41.61,41.61,0,0,1-57.42,12.87l-25.43-16.11a41.61,41.61,0,0,0-57.42,12.87L404.83,463a41.6,41.6,0,0,1-57.42,12.88L322,459.72a41.61,41.61,0,0,0-57.42,12.87L248.45,498A41.61,41.61,0,0,1,191,510.89l-25.51-16.17a41.61,41.61,0,0,0-57.37,12.79L84.42,544.75a65.88,65.88,0,0,0-8.72,49.79h0a65.83,65.83,0,0,0,78.19,49.94l737-159.74L1978.49,206.23l-31.6-140.95-252.61,56.63,5,22.17a57,57,0,0,1-43.17,68.11Z" style="fill:#d1d3d4;stroke:#231f20;stroke-miterlimit:10;stroke-width:24px"/></svg>