<?xml version="1.0" encoding="UTF-8" standalone="no"?>
<svg
   xmlns:dc="http://purl.org/dc/elements/1.1/"
   xmlns:cc="http://creativecommons.org/ns#"
   xmlns:rdf="http://www.w3.org/1999/02/22-rdf-syntax-ns#"
   xmlns:svg="http://www.w3.org/2000/svg"
   xmlns="http://www.w3.org/2000/svg"
   xmlns:sodipodi="http://sodipodi.sourceforge.net/DTD/sodipodi-0.dtd"
   xmlns:inkscape="http://www.inkscape.org/namespaces/inkscape"
   inkscape:version="1.0beta1 (32d4812, 2019-09-19)"
   height="1951.96"
   width="482.44"
   sodipodi:docname="whip.svg"
   version="1.1"
   viewBox="0 0 482.44 1951.96"
   data-name="Layer 1"
   id="Layer_1">
  <metadata
     id="metadata25380">
    <rdf:RDF>
      <cc:Work
         rdf:about="">
        <dc:format>image/svg+xml</dc:format>
        <dc:type
           rdf:resource="http://purl.org/dc/dcmitype/StillImage" />
        <dc:title></dc:title>
      </cc:Work>
    </rdf:RDF>
  </metadata>
  <defs
     id="defs25378" />
  <sodipodi:namedview
     inkscape:current-layer="Layer_1"
     inkscape:window-maximized="0"
     inkscape:window-y="25"
     inkscape:window-x="0"
     inkscape:cy="45.623377"
     inkscape:cx="-674.22118"
     inkscape:zoom="0.38466609"
     fit-margin-right="12"
     fit-margin-left="12"
     fit-margin-bottom="0"
     lock-margins="false"
     fit-margin-top="12"
     showgrid="false"
     id="namedview25376"
     inkscape:window-height="480"
     inkscape:window-width="1448"
     inkscape:pageshadow="2"
     inkscape:pageopacity="0"
     guidetolerance="10"
     gridtolerance="10"
     objecttolerance="10"
     borderopacity="1"
     inkscape:document-rotation="0"
     bordercolor="#666666"
     pagecolor="#ffffff" />
  <path
     inkscape:connector-curvature="0"
     id="path25367"
     style="fill:#ffffff;stroke:#231f20;stroke-width:24px;stroke-linecap:round;stroke-linejoin:round"
     d="m 171.75,1187.14 v -144.1 A 338.29,338.29 0 0 0 141.92,903.44 C 79.76,766.26 12,558.35 12,409.17 12,114.5 114.63,12 241.22,12 c 126.59,0 229.22,102.5 229.22,397.17 0,149.18 -67.76,357.09 -129.92,494.27 a 338.29,338.29 0 0 0 -29.83,139.6 v 144.1" />
  <path
     inkscape:connector-curvature="0"
     id="path25369"
     style="fill:#ffffff;stroke:#231f20;stroke-width:24px;stroke-linecap:round;stroke-linejoin:round"
     d="m 241.22,12 c -49.45,0 -89.54,102.47 -89.54,397.17 0,173.46 32.84,385.32 60,524 a 340.17,340.17 0 0 1 6.34,65.48 v 188.48" />
  <path
     inkscape:connector-curvature="0"
     id="path25371"
     style="fill:#ffffff;stroke:#231f20;stroke-width:24px;stroke-linecap:round;stroke-linejoin:round"
     d="M 264.38,1187.14 V 998.66 a 339.38,339.38 0 0 1 6.34,-65.48 c 27.2,-138.69 60,-350.55 60,-524 C 330.76,114.5 290.67,12 241.22,12" />
  <path
     inkscape:connector-curvature="0"
     id="path25373"
     style="fill:#231f20"
     d="m 356.02,1149.86 v 671.1 c 0,72.07 -42.73,131 -114.8,131 v 0 c -72.07,0 -114.8,-59 -114.8,-131 v -671.1 a 28.05,28.05 0 0 1 28.05,-28 h 173.5 a 28.05,28.05 0 0 1 28.05,28 z" />
</svg>
