<svg id="Layer_1" data-name="Layer 1" xmlns="http://www.w3.org/2000/svg" viewBox="0 0 461.64 2000"><path d="M275.2,1244.21l165-119.58V92.71a80.49,80.49,0,0,0-80.49-80.49H102A80.49,80.49,0,0,0,21.47,92.71V1124.63l169.65,119.58" style="fill:none;stroke:#010101;stroke-linejoin:round;stroke-width:14.278440945097941px"/><rect x="21.47" y="116.62" width="418.7" height="957.26" style="fill:#e6e7e7;stroke:#010101;stroke-linejoin:round;stroke-width:14.278440945097941px"/><path d="M370.62,963.21a74,74,0,0,1,.81-22.64A45.68,45.68,0,0,1,375,929.48a21.1,21.1,0,0,1,3.46-5.14,11.41,11.41,0,0,1,2.73-2.11,7.48,7.48,0,0,1,7.37,0,11.64,11.64,0,0,1,2.73,2.1,21.39,21.39,0,0,1,3.47,5.15,46.19,46.19,0,0,1,3.57,11.08,73.7,73.7,0,0,1,.8,22.65,143.47,143.47,0,0,0-4.06-21.86,51.22,51.22,0,0,0-3.92-10,17.87,17.87,0,0,0-2.89-4.05,4.15,4.15,0,0,0-6.77,0,17.87,17.87,0,0,0-2.89,4.05,50.36,50.36,0,0,0-3.92,10A143.47,143.47,0,0,0,370.62,963.21Z" style="fill:#010101"/><circle cx="384.88" cy="964.32" r="14.26" style="fill:#010101"/><path d="M319.27,963.21a74,74,0,0,1,.81-22.64,45.68,45.68,0,0,1,3.57-11.09,20.82,20.82,0,0,1,3.46-5.14,11.41,11.41,0,0,1,2.73-2.11,7.48,7.48,0,0,1,7.37,0,11.64,11.64,0,0,1,2.73,2.1,21.06,21.06,0,0,1,3.46,5.15A45.31,45.31,0,0,1,347,940.56a73.7,73.7,0,0,1,.81,22.65,143.47,143.47,0,0,0-4.06-21.86,51.22,51.22,0,0,0-3.92-10,18.18,18.18,0,0,0-2.89-4.05,4.15,4.15,0,0,0-6.77,0,17.87,17.87,0,0,0-2.89,4.05,50.38,50.38,0,0,0-3.93,10A144.69,144.69,0,0,0,319.27,963.21Z" style="fill:#010101"/><circle cx="333.52" cy="964.32" r="14.26" style="fill:#010101"/><path d="M267.92,963.21a74,74,0,0,1,.81-22.64,45.68,45.68,0,0,1,3.57-11.09,20.82,20.82,0,0,1,3.46-5.14,11.41,11.41,0,0,1,2.73-2.11,7.48,7.48,0,0,1,7.37,0,11.85,11.85,0,0,1,2.73,2.1,21.06,21.06,0,0,1,3.46,5.15,45.31,45.31,0,0,1,3.57,11.08,73.7,73.7,0,0,1,.81,22.65,144.7,144.7,0,0,0-4.06-21.86,51.22,51.22,0,0,0-3.92-10,18.51,18.51,0,0,0-2.89-4.05,4.15,4.15,0,0,0-6.77,0,18.21,18.21,0,0,0-2.9,4.05,51,51,0,0,0-3.92,10A142.25,142.25,0,0,0,267.92,963.21Z" style="fill:#010101"/><circle cx="282.17" cy="964.32" r="14.26" style="fill:#010101"/><path d="M216.57,963.21a73.64,73.64,0,0,1,.81-22.64A45.25,45.25,0,0,1,221,929.48a20.55,20.55,0,0,1,3.46-5.14,11.41,11.41,0,0,1,2.73-2.11,7.47,7.47,0,0,1,7.36,0,11.7,11.7,0,0,1,2.74,2.1,21.06,21.06,0,0,1,3.46,5.15,45.31,45.31,0,0,1,3.57,11.08,73.7,73.7,0,0,1,.81,22.65A144.7,144.7,0,0,0,241,941.35a51.86,51.86,0,0,0-3.92-10,18.51,18.51,0,0,0-2.89-4.05,4.15,4.15,0,0,0-6.77,0,18.21,18.21,0,0,0-2.9,4.05,51,51,0,0,0-3.92,10A142.25,142.25,0,0,0,216.57,963.21Z" style="fill:#010101"/><circle cx="230.82" cy="964.32" r="14.26" style="fill:#010101"/><path d="M165.21,963.21a74,74,0,0,1,.82-22.64,45.65,45.65,0,0,1,3.56-11.09,20.87,20.87,0,0,1,3.47-5.14,11.41,11.41,0,0,1,2.73-2.11,7.47,7.47,0,0,1,7.36,0,11.64,11.64,0,0,1,2.73,2.1,21.11,21.11,0,0,1,3.47,5.15,45.31,45.31,0,0,1,3.57,11.08,73.7,73.7,0,0,1,.81,22.65,144.72,144.72,0,0,0-4.07-21.86,50.6,50.6,0,0,0-3.92-10,17.87,17.87,0,0,0-2.89-4.05,4.15,4.15,0,0,0-6.77,0,18.51,18.51,0,0,0-2.89,4.05,51,51,0,0,0-3.92,10A143.47,143.47,0,0,0,165.21,963.21Z" style="fill:#010101"/><circle cx="179.47" cy="964.32" r="14.26" style="fill:#010101"/><path d="M113.86,963.21a74,74,0,0,1,.81-22.64,45.68,45.68,0,0,1,3.57-11.09,20.87,20.87,0,0,1,3.47-5.14,11.22,11.22,0,0,1,2.73-2.11,7.47,7.47,0,0,1,7.36,0,11.64,11.64,0,0,1,2.73,2.1,21.39,21.39,0,0,1,3.47,5.15,46.19,46.19,0,0,1,3.57,11.08,73.7,73.7,0,0,1,.8,22.65,143.47,143.47,0,0,0-4.06-21.86,50.6,50.6,0,0,0-3.92-10,17.87,17.87,0,0,0-2.89-4.05,4.15,4.15,0,0,0-6.77,0,18.51,18.51,0,0,0-2.89,4.05,51,51,0,0,0-3.92,10A143.47,143.47,0,0,0,113.86,963.21Z" style="fill:#010101"/><circle cx="128.12" cy="964.32" r="14.26" style="fill:#010101"/><path d="M62.51,963.21a74,74,0,0,1,.81-22.64,45.68,45.68,0,0,1,3.57-11.09,21.1,21.1,0,0,1,3.46-5.14,11.41,11.41,0,0,1,2.73-2.11,7.48,7.48,0,0,1,7.37,0,11.64,11.64,0,0,1,2.73,2.1,21.39,21.39,0,0,1,3.47,5.15,46.19,46.19,0,0,1,3.57,11.08,73.7,73.7,0,0,1,.8,22.65A143.47,143.47,0,0,0,87,941.35a50.6,50.6,0,0,0-3.92-10,17.87,17.87,0,0,0-2.89-4.05,5.06,5.06,0,0,0-3.38-1.75,5.06,5.06,0,0,0-3.39,1.75,17.87,17.87,0,0,0-2.89,4.05,50.36,50.36,0,0,0-3.92,10A143.47,143.47,0,0,0,62.51,963.21Z" style="fill:#010101"/><circle cx="76.77" cy="964.32" r="14.26" style="fill:#010101"/><path d="M340.84,892.06a74,74,0,0,1,.81-22.64,45.82,45.82,0,0,1,3.57-11.09,20.87,20.87,0,0,1,3.47-5.14,11.18,11.18,0,0,1,2.73-2.1,7.67,7.67,0,0,1,3.68-1,7.78,7.78,0,0,1,3.68,1,11.67,11.67,0,0,1,2.73,2.11,21.15,21.15,0,0,1,3.47,5.14,46.12,46.12,0,0,1,3.57,11.09,73.63,73.63,0,0,1,.8,22.64,143.7,143.7,0,0,0-4.06-21.86,50.84,50.84,0,0,0-3.92-10,18.09,18.09,0,0,0-2.89-4.05,4.15,4.15,0,0,0-6.77,0,18.75,18.75,0,0,0-2.89,4.05,51.47,51.47,0,0,0-3.92,10A143.7,143.7,0,0,0,340.84,892.06Z" style="fill:#010101"/><circle cx="355.1" cy="893.17" r="14.26" style="fill:#010101"/><path d="M289.86,892.06a74,74,0,0,1,.81-22.64,45.82,45.82,0,0,1,3.57-11.09,20.87,20.87,0,0,1,3.47-5.14,11.38,11.38,0,0,1,2.73-2.1,7.67,7.67,0,0,1,3.68-1,7.78,7.78,0,0,1,3.68,1,11.67,11.67,0,0,1,2.73,2.11,21.15,21.15,0,0,1,3.47,5.14,46.12,46.12,0,0,1,3.57,11.09,73.63,73.63,0,0,1,.8,22.64,143.7,143.7,0,0,0-4.06-21.86,50.84,50.84,0,0,0-3.92-10,18.09,18.09,0,0,0-2.89-4.05,4.15,4.15,0,0,0-6.77,0,18.75,18.75,0,0,0-2.89,4.05,51.47,51.47,0,0,0-3.92,10A143.7,143.7,0,0,0,289.86,892.06Z" style="fill:#010101"/><circle cx="304.12" cy="893.17" r="14.26" style="fill:#010101"/><path d="M238.88,892.06a74,74,0,0,1,.81-22.64,45.82,45.82,0,0,1,3.57-11.09,20.87,20.87,0,0,1,3.47-5.14,11.38,11.38,0,0,1,2.73-2.1,7.67,7.67,0,0,1,3.68-1,7.78,7.78,0,0,1,3.68,1,11.67,11.67,0,0,1,2.73,2.11,21.15,21.15,0,0,1,3.47,5.14,46.12,46.12,0,0,1,3.57,11.09,73.63,73.63,0,0,1,.8,22.64,143.7,143.7,0,0,0-4.06-21.86,50.84,50.84,0,0,0-3.92-10,18.09,18.09,0,0,0-2.89-4.05,4.15,4.15,0,0,0-6.77,0,18.75,18.75,0,0,0-2.89,4.05,51.47,51.47,0,0,0-3.92,10A143.7,143.7,0,0,0,238.88,892.06Z" style="fill:#010101"/><circle cx="253.14" cy="893.17" r="14.26" style="fill:#010101"/><path d="M187.9,892.06a74,74,0,0,1,.81-22.64,45.82,45.82,0,0,1,3.57-11.09,20.87,20.87,0,0,1,3.47-5.14,11.38,11.38,0,0,1,2.73-2.1,7.67,7.67,0,0,1,3.68-1,7.78,7.78,0,0,1,3.68,1,11.67,11.67,0,0,1,2.73,2.11,21.15,21.15,0,0,1,3.47,5.14,46.12,46.12,0,0,1,3.57,11.09,73.63,73.63,0,0,1,.8,22.64,143.7,143.7,0,0,0-4.06-21.86,50.84,50.84,0,0,0-3.92-10,18.09,18.09,0,0,0-2.89-4.05,4.15,4.15,0,0,0-6.77,0,18.75,18.75,0,0,0-2.89,4.05,51.47,51.47,0,0,0-3.92,10A143.7,143.7,0,0,0,187.9,892.06Z" style="fill:#010101"/><circle cx="202.16" cy="893.17" r="14.26" style="fill:#010101"/><path d="M136.92,892.06a74,74,0,0,1,.81-22.64,45.82,45.82,0,0,1,3.57-11.09,20.87,20.87,0,0,1,3.47-5.14,11.38,11.38,0,0,1,2.73-2.1,7.67,7.67,0,0,1,3.68-1,7.78,7.78,0,0,1,3.68,1,11.67,11.67,0,0,1,2.73,2.11,20.87,20.87,0,0,1,3.47,5.14,46.12,46.12,0,0,1,3.57,11.09,73.63,73.63,0,0,1,.8,22.64,143.7,143.7,0,0,0-4.06-21.86,50.84,50.84,0,0,0-3.92-10,18.09,18.09,0,0,0-2.89-4.05,4.15,4.15,0,0,0-6.77,0,18.75,18.75,0,0,0-2.89,4.05,51.47,51.47,0,0,0-3.92,10A143.7,143.7,0,0,0,136.92,892.06Z" style="fill:#010101"/><circle cx="151.18" cy="893.17" r="14.26" style="fill:#010101"/><path d="M85.94,892.06a74,74,0,0,1,.81-22.64,45.82,45.82,0,0,1,3.57-11.09,20.87,20.87,0,0,1,3.47-5.14,11.38,11.38,0,0,1,2.73-2.1,7.67,7.67,0,0,1,3.68-1,7.78,7.78,0,0,1,3.68,1,11.67,11.67,0,0,1,2.73,2.11,20.87,20.87,0,0,1,3.47,5.14,46.12,46.12,0,0,1,3.57,11.09,73.63,73.63,0,0,1,.8,22.64,143.7,143.7,0,0,0-4.06-21.86,50.84,50.84,0,0,0-3.92-10,18.09,18.09,0,0,0-2.89-4.05,4.15,4.15,0,0,0-6.77,0,18.75,18.75,0,0,0-2.89,4.05,51.47,51.47,0,0,0-3.92,10A143.7,143.7,0,0,0,85.94,892.06Z" style="fill:#010101"/><circle cx="100.2" cy="893.17" r="14.26" style="fill:#010101"/><path d="M370.62,820.91a74,74,0,0,1,.81-22.64A45.82,45.82,0,0,1,375,787.18a21.1,21.1,0,0,1,3.46-5.14,11.64,11.64,0,0,1,2.73-2.1,7.42,7.42,0,0,1,7.37,0,11.64,11.64,0,0,1,2.73,2.1,21.15,21.15,0,0,1,3.47,5.14,46.26,46.26,0,0,1,3.57,11.09,73.63,73.63,0,0,1,.8,22.64,143.57,143.57,0,0,0-4.06-21.85,51,51,0,0,0-3.92-10,18.16,18.16,0,0,0-2.89-4.06,4.15,4.15,0,0,0-6.77,0,18.09,18.09,0,0,0-2.89,4,50.69,50.69,0,0,0-3.92,10A143.34,143.34,0,0,0,370.62,820.91Z" style="fill:#010101"/><circle cx="384.88" cy="822.03" r="14.26" style="fill:#010101"/><path d="M319.27,820.91a74,74,0,0,1,.81-22.64,45.82,45.82,0,0,1,3.57-11.09,20.82,20.82,0,0,1,3.46-5.14,11.64,11.64,0,0,1,2.73-2.1,7.42,7.42,0,0,1,7.37,0,11.64,11.64,0,0,1,2.73,2.1,20.82,20.82,0,0,1,3.46,5.14A45.39,45.39,0,0,1,347,798.27a73.64,73.64,0,0,1,.81,22.64,143.57,143.57,0,0,0-4.06-21.85,51,51,0,0,0-3.92-10,18.48,18.48,0,0,0-2.89-4.06,4.15,4.15,0,0,0-6.77,0,18.09,18.09,0,0,0-2.89,4,50.71,50.71,0,0,0-3.93,10A144.56,144.56,0,0,0,319.27,820.91Z" style="fill:#010101"/><circle cx="333.52" cy="822.03" r="14.26" style="fill:#010101"/><path d="M267.92,820.91a74,74,0,0,1,.81-22.64,45.82,45.82,0,0,1,3.57-11.09,20.82,20.82,0,0,1,3.46-5.14,11.64,11.64,0,0,1,2.73-2.1,7.42,7.42,0,0,1,7.37,0,11.85,11.85,0,0,1,2.73,2.1,20.82,20.82,0,0,1,3.46,5.14,45.39,45.39,0,0,1,3.57,11.09,73.64,73.64,0,0,1,.81,22.64,144.81,144.81,0,0,0-4.06-21.85,51,51,0,0,0-3.92-10,18.82,18.82,0,0,0-2.89-4.06,4.15,4.15,0,0,0-6.77,0,18.45,18.45,0,0,0-2.9,4,51.31,51.31,0,0,0-3.92,10A142.12,142.12,0,0,0,267.92,820.91Z" style="fill:#010101"/><circle cx="282.17" cy="822.03" r="14.26" style="fill:#010101"/><path d="M216.57,820.91a73.64,73.64,0,0,1,.81-22.64A45.39,45.39,0,0,1,221,787.18a20.55,20.55,0,0,1,3.46-5.14,11.64,11.64,0,0,1,2.73-2.1,7.4,7.4,0,0,1,7.36,0,11.7,11.7,0,0,1,2.74,2.1,20.82,20.82,0,0,1,3.46,5.14,45.39,45.39,0,0,1,3.57,11.09,73.64,73.64,0,0,1,.81,22.64A144.81,144.81,0,0,0,241,799.06a51.6,51.6,0,0,0-3.92-10,18.82,18.82,0,0,0-2.89-4.06,4.15,4.15,0,0,0-6.77,0,18.45,18.45,0,0,0-2.9,4,51.31,51.31,0,0,0-3.92,10A142.12,142.12,0,0,0,216.57,820.91Z" style="fill:#010101"/><circle cx="230.82" cy="822.03" r="14.26" style="fill:#010101"/><path d="M165.21,820.91a74,74,0,0,1,.82-22.64,45.79,45.79,0,0,1,3.56-11.09,20.87,20.87,0,0,1,3.47-5.14,11.64,11.64,0,0,1,2.73-2.1,7.4,7.4,0,0,1,7.36,0,11.64,11.64,0,0,1,2.73,2.1,20.87,20.87,0,0,1,3.47,5.14,45.39,45.39,0,0,1,3.57,11.09,73.64,73.64,0,0,1,.81,22.64,144.82,144.82,0,0,0-4.07-21.85,50.36,50.36,0,0,0-3.92-10,18.16,18.16,0,0,0-2.89-4.06,4.15,4.15,0,0,0-6.77,0,18.75,18.75,0,0,0-2.89,4,51.31,51.31,0,0,0-3.92,10A143.34,143.34,0,0,0,165.21,820.91Z" style="fill:#010101"/><circle cx="179.47" cy="822.03" r="14.26" style="fill:#010101"/><path d="M113.86,820.91a74,74,0,0,1,.81-22.64,45.82,45.82,0,0,1,3.57-11.09,20.87,20.87,0,0,1,3.47-5.14,11.44,11.44,0,0,1,2.73-2.1,7.4,7.4,0,0,1,7.36,0,11.64,11.64,0,0,1,2.73,2.1,21.15,21.15,0,0,1,3.47,5.14,46.26,46.26,0,0,1,3.57,11.09,73.63,73.63,0,0,1,.8,22.64,143.57,143.57,0,0,0-4.06-21.85,50.36,50.36,0,0,0-3.92-10A18.16,18.16,0,0,0,131.5,785a4.15,4.15,0,0,0-6.77,0,18.75,18.75,0,0,0-2.89,4,51.31,51.31,0,0,0-3.92,10A143.34,143.34,0,0,0,113.86,820.91Z" style="fill:#010101"/><circle cx="128.12" cy="822.03" r="14.26" style="fill:#010101"/><path d="M62.51,820.91a74,74,0,0,1,.81-22.64,45.82,45.82,0,0,1,3.57-11.09A21.1,21.1,0,0,1,70.35,782a11.64,11.64,0,0,1,2.73-2.1,7.42,7.42,0,0,1,7.37,0,11.64,11.64,0,0,1,2.73,2.1,21.15,21.15,0,0,1,3.47,5.14,46.26,46.26,0,0,1,3.57,11.09,73.63,73.63,0,0,1,.8,22.64A143.57,143.57,0,0,0,87,799.06a50.36,50.36,0,0,0-3.92-10A18.16,18.16,0,0,0,80.15,785a5.1,5.1,0,0,0-3.38-1.75A5.1,5.1,0,0,0,73.38,785a18.09,18.09,0,0,0-2.89,4,50.69,50.69,0,0,0-3.92,10A143.34,143.34,0,0,0,62.51,820.91Z" style="fill:#010101"/><circle cx="76.77" cy="822.03" r="14.26" style="fill:#010101"/><path d="M340.84,749.77a74,74,0,0,1,.81-22.65A45.75,45.75,0,0,1,345.22,716a21.11,21.11,0,0,1,3.47-5.15,11.44,11.44,0,0,1,2.73-2.1,7.78,7.78,0,0,1,3.68-1,7.67,7.67,0,0,1,3.68,1,11.64,11.64,0,0,1,2.73,2.1A21.34,21.34,0,0,1,365,716a46.26,46.26,0,0,1,3.57,11.09,73.7,73.7,0,0,1,.8,22.65,143.47,143.47,0,0,0-4.06-21.86,50.36,50.36,0,0,0-3.92-10,17.87,17.87,0,0,0-2.89-4,5,5,0,0,0-3.38-1.75,5.1,5.1,0,0,0-3.39,1.74,18.82,18.82,0,0,0-2.89,4.06,51,51,0,0,0-3.92,10A143.47,143.47,0,0,0,340.84,749.77Z" style="fill:#010101"/><circle cx="355.1" cy="750.88" r="14.26" style="fill:#010101"/><path d="M289.86,749.77a74,74,0,0,1,.81-22.65A45.75,45.75,0,0,1,294.24,716a21.11,21.11,0,0,1,3.47-5.15,11.64,11.64,0,0,1,2.73-2.1,7.78,7.78,0,0,1,3.68-1,7.67,7.67,0,0,1,3.68,1,11.64,11.64,0,0,1,2.73,2.1A21.34,21.34,0,0,1,314,716a46.26,46.26,0,0,1,3.57,11.09,73.7,73.7,0,0,1,.8,22.65,143.47,143.47,0,0,0-4.06-21.86,50.36,50.36,0,0,0-3.92-10,17.87,17.87,0,0,0-2.89-4,5,5,0,0,0-3.38-1.75,5.1,5.1,0,0,0-3.39,1.74,18.82,18.82,0,0,0-2.89,4.06,51,51,0,0,0-3.92,10A143.47,143.47,0,0,0,289.86,749.77Z" style="fill:#010101"/><circle cx="304.12" cy="750.88" r="14.26" style="fill:#010101"/><path d="M238.88,749.77a74,74,0,0,1,.81-22.65A45.75,45.75,0,0,1,243.26,716a21.11,21.11,0,0,1,3.47-5.15,11.64,11.64,0,0,1,2.73-2.1,7.78,7.78,0,0,1,3.68-1,7.67,7.67,0,0,1,3.68,1,11.64,11.64,0,0,1,2.73,2.1A21.34,21.34,0,0,1,263,716a46.26,46.26,0,0,1,3.57,11.09,73.7,73.7,0,0,1,.8,22.65,143.47,143.47,0,0,0-4.06-21.86,50.36,50.36,0,0,0-3.92-10,17.87,17.87,0,0,0-2.89-4,5,5,0,0,0-3.38-1.75,5.1,5.1,0,0,0-3.39,1.74,18.82,18.82,0,0,0-2.89,4.06,51,51,0,0,0-3.92,10A143.47,143.47,0,0,0,238.88,749.77Z" style="fill:#010101"/><circle cx="253.14" cy="750.88" r="14.26" style="fill:#010101"/><path d="M187.9,749.77a74,74,0,0,1,.81-22.65A45.75,45.75,0,0,1,192.28,716a21.11,21.11,0,0,1,3.47-5.15,11.64,11.64,0,0,1,2.73-2.1,7.78,7.78,0,0,1,3.68-1,7.67,7.67,0,0,1,3.68,1,11.64,11.64,0,0,1,2.73,2.1A21.34,21.34,0,0,1,212,716a46.26,46.26,0,0,1,3.57,11.09,73.7,73.7,0,0,1,.8,22.65,143.47,143.47,0,0,0-4.06-21.86,50.36,50.36,0,0,0-3.92-10,17.87,17.87,0,0,0-2.89-4,5,5,0,0,0-3.38-1.75,5.1,5.1,0,0,0-3.39,1.74,18.82,18.82,0,0,0-2.89,4.06,51,51,0,0,0-3.92,10A143.47,143.47,0,0,0,187.9,749.77Z" style="fill:#010101"/><circle cx="202.16" cy="750.88" r="14.26" style="fill:#010101"/><path d="M136.92,749.77a74,74,0,0,1,.81-22.65A45.75,45.75,0,0,1,141.3,716a21.11,21.11,0,0,1,3.47-5.15,11.64,11.64,0,0,1,2.73-2.1,7.78,7.78,0,0,1,3.68-1,7.67,7.67,0,0,1,3.68,1,11.64,11.64,0,0,1,2.73,2.1,21.06,21.06,0,0,1,3.47,5.14,46.26,46.26,0,0,1,3.57,11.09,73.7,73.7,0,0,1,.8,22.65,143.47,143.47,0,0,0-4.06-21.86,50.36,50.36,0,0,0-3.92-10,17.87,17.87,0,0,0-2.89-4,5,5,0,0,0-3.38-1.75,5.1,5.1,0,0,0-3.39,1.74,18.82,18.82,0,0,0-2.89,4.06,51,51,0,0,0-3.92,10A143.47,143.47,0,0,0,136.92,749.77Z" style="fill:#010101"/><circle cx="151.18" cy="750.88" r="14.26" style="fill:#010101"/><path d="M85.94,749.77a74,74,0,0,1,.81-22.65A45.75,45.75,0,0,1,90.32,716a21.11,21.11,0,0,1,3.47-5.15,11.64,11.64,0,0,1,2.73-2.1,7.78,7.78,0,0,1,3.68-1,7.67,7.67,0,0,1,3.68,1,11.64,11.64,0,0,1,2.73,2.1,21.06,21.06,0,0,1,3.47,5.14,46.26,46.26,0,0,1,3.57,11.09,73.7,73.7,0,0,1,.8,22.65,143.47,143.47,0,0,0-4.06-21.86,50.36,50.36,0,0,0-3.92-10,17.87,17.87,0,0,0-2.89-4,5,5,0,0,0-3.38-1.75,5.1,5.1,0,0,0-3.39,1.74,18.82,18.82,0,0,0-2.89,4.06,51,51,0,0,0-3.92,10A143.47,143.47,0,0,0,85.94,749.77Z" style="fill:#010101"/><circle cx="100.2" cy="750.88" r="14.26" style="fill:#010101"/><path d="M370.62,678.62a74,74,0,0,1,.81-22.64A45.68,45.68,0,0,1,375,644.89a21.1,21.1,0,0,1,3.46-5.14,11.67,11.67,0,0,1,2.73-2.11,7.48,7.48,0,0,1,7.37,0,11.64,11.64,0,0,1,2.73,2.1,21.39,21.39,0,0,1,3.47,5.15A46.19,46.19,0,0,1,398.33,656a73.71,73.71,0,0,1,.8,22.65,143.47,143.47,0,0,0-4.06-21.86,51.22,51.22,0,0,0-3.92-10,17.87,17.87,0,0,0-2.89-4,4.15,4.15,0,0,0-6.77,0,17.87,17.87,0,0,0-2.89,4,50.36,50.36,0,0,0-3.92,10A143.47,143.47,0,0,0,370.62,678.62Z" style="fill:#010101"/><circle cx="384.88" cy="679.73" r="14.26" style="fill:#010101"/><path d="M319.27,678.62a74,74,0,0,1,.81-22.64,45.68,45.68,0,0,1,3.57-11.09,20.82,20.82,0,0,1,3.46-5.14,11.67,11.67,0,0,1,2.73-2.11,7.48,7.48,0,0,1,7.37,0,11.64,11.64,0,0,1,2.73,2.1,21.06,21.06,0,0,1,3.46,5.15A45.31,45.31,0,0,1,347,656a73.71,73.71,0,0,1,.81,22.65,143.47,143.47,0,0,0-4.06-21.86,51.22,51.22,0,0,0-3.92-10,18.18,18.18,0,0,0-2.89-4,4.15,4.15,0,0,0-6.77,0,17.87,17.87,0,0,0-2.89,4,50.38,50.38,0,0,0-3.93,10A144.69,144.69,0,0,0,319.27,678.62Z" style="fill:#010101"/><circle cx="333.52" cy="679.73" r="14.26" style="fill:#010101"/><path d="M267.92,678.62a74,74,0,0,1,.81-22.64,45.68,45.68,0,0,1,3.57-11.09,20.82,20.82,0,0,1,3.46-5.14,11.67,11.67,0,0,1,2.73-2.11,7.48,7.48,0,0,1,7.37,0,11.85,11.85,0,0,1,2.73,2.1,21.06,21.06,0,0,1,3.46,5.15A45.31,45.31,0,0,1,295.62,656a73.71,73.71,0,0,1,.81,22.65,144.7,144.7,0,0,0-4.06-21.86,51.22,51.22,0,0,0-3.92-10,18.51,18.51,0,0,0-2.89-4,4.15,4.15,0,0,0-6.77,0,18.21,18.21,0,0,0-2.9,4,51,51,0,0,0-3.92,10A142.25,142.25,0,0,0,267.92,678.62Z" style="fill:#010101"/><circle cx="282.17" cy="679.73" r="14.26" style="fill:#010101"/><path d="M216.57,678.62a73.64,73.64,0,0,1,.81-22.64A45.25,45.25,0,0,1,221,644.89a20.55,20.55,0,0,1,3.46-5.14,11.67,11.67,0,0,1,2.73-2.11,7.47,7.47,0,0,1,7.36,0,11.7,11.7,0,0,1,2.74,2.1,21.06,21.06,0,0,1,3.46,5.15A45.31,45.31,0,0,1,244.27,656a73.71,73.71,0,0,1,.81,22.65A144.7,144.7,0,0,0,241,656.76a51.86,51.86,0,0,0-3.92-10,18.51,18.51,0,0,0-2.89-4,4.15,4.15,0,0,0-6.77,0,18.21,18.21,0,0,0-2.9,4,51,51,0,0,0-3.92,10A142.25,142.25,0,0,0,216.57,678.62Z" style="fill:#010101"/><circle cx="230.82" cy="679.73" r="14.26" style="fill:#010101"/><path d="M165.21,678.62A74,74,0,0,1,166,656a45.65,45.65,0,0,1,3.56-11.09,20.87,20.87,0,0,1,3.47-5.14,11.67,11.67,0,0,1,2.73-2.11,7.47,7.47,0,0,1,7.36,0,11.64,11.64,0,0,1,2.73,2.1,21.11,21.11,0,0,1,3.47,5.15A45.31,45.31,0,0,1,192.92,656a73.71,73.71,0,0,1,.81,22.65,144.72,144.72,0,0,0-4.07-21.86,50.6,50.6,0,0,0-3.92-10,17.87,17.87,0,0,0-2.89-4,4.15,4.15,0,0,0-6.77,0,18.51,18.51,0,0,0-2.89,4,51,51,0,0,0-3.92,10A143.47,143.47,0,0,0,165.21,678.62Z" style="fill:#010101"/><circle cx="179.47" cy="679.73" r="14.26" style="fill:#010101"/><path d="M113.86,678.62a74,74,0,0,1,.81-22.64,45.68,45.68,0,0,1,3.57-11.09,20.87,20.87,0,0,1,3.47-5.14,11.47,11.47,0,0,1,2.73-2.11,7.47,7.47,0,0,1,7.36,0,11.64,11.64,0,0,1,2.73,2.1,21.39,21.39,0,0,1,3.47,5.15A46.19,46.19,0,0,1,141.57,656a73.71,73.71,0,0,1,.8,22.65,143.47,143.47,0,0,0-4.06-21.86,50.6,50.6,0,0,0-3.92-10,17.87,17.87,0,0,0-2.89-4,4.15,4.15,0,0,0-6.77,0,18.51,18.51,0,0,0-2.89,4,51,51,0,0,0-3.92,10A143.47,143.47,0,0,0,113.86,678.62Z" style="fill:#010101"/><circle cx="128.12" cy="679.73" r="14.26" style="fill:#010101"/><path d="M62.51,678.62A74,74,0,0,1,63.32,656a45.68,45.68,0,0,1,3.57-11.09,21.1,21.1,0,0,1,3.46-5.14,11.67,11.67,0,0,1,2.73-2.11,7.48,7.48,0,0,1,7.37,0,11.64,11.64,0,0,1,2.73,2.1,21.39,21.39,0,0,1,3.47,5.15A46.19,46.19,0,0,1,90.22,656a73.71,73.71,0,0,1,.8,22.65A143.47,143.47,0,0,0,87,656.76a50.6,50.6,0,0,0-3.92-10,17.87,17.87,0,0,0-2.89-4A5.06,5.06,0,0,0,76.77,641a5.06,5.06,0,0,0-3.39,1.75,17.87,17.87,0,0,0-2.89,4,50.36,50.36,0,0,0-3.92,10A143.47,143.47,0,0,0,62.51,678.62Z" style="fill:#010101"/><circle cx="76.77" cy="679.73" r="14.26" style="fill:#010101"/><path d="M340.84,607.47a74,74,0,0,1,.81-22.64,45.82,45.82,0,0,1,3.57-11.09,20.87,20.87,0,0,1,3.47-5.14,11.18,11.18,0,0,1,2.73-2.1,7.43,7.43,0,0,1,7.36,0,11.67,11.67,0,0,1,2.73,2.11,21.15,21.15,0,0,1,3.47,5.14,46.12,46.12,0,0,1,3.57,11.09,73.63,73.63,0,0,1,.8,22.64,143.7,143.7,0,0,0-4.06-21.86,50.84,50.84,0,0,0-3.92-10,18.09,18.09,0,0,0-2.89-4.05,4.15,4.15,0,0,0-6.77,0,18.75,18.75,0,0,0-2.89,4.05,51.47,51.47,0,0,0-3.92,10A143.7,143.7,0,0,0,340.84,607.47Z" style="fill:#010101"/><circle cx="355.1" cy="608.58" r="14.26" style="fill:#010101"/><path d="M289.86,607.47a74,74,0,0,1,.81-22.64,45.82,45.82,0,0,1,3.57-11.09,20.87,20.87,0,0,1,3.47-5.14,11.38,11.38,0,0,1,2.73-2.1,7.43,7.43,0,0,1,7.36,0,11.67,11.67,0,0,1,2.73,2.11,21.15,21.15,0,0,1,3.47,5.14,46.12,46.12,0,0,1,3.57,11.09,73.63,73.63,0,0,1,.8,22.64,143.7,143.7,0,0,0-4.06-21.86,50.84,50.84,0,0,0-3.92-10,18.09,18.09,0,0,0-2.89-4.05,4.15,4.15,0,0,0-6.77,0,18.75,18.75,0,0,0-2.89,4.05,51.47,51.47,0,0,0-3.92,10A143.7,143.7,0,0,0,289.86,607.47Z" style="fill:#010101"/><circle cx="304.12" cy="608.58" r="14.26" style="fill:#010101"/><path d="M238.88,607.47a74,74,0,0,1,.81-22.64,45.82,45.82,0,0,1,3.57-11.09,20.87,20.87,0,0,1,3.47-5.14,11.38,11.38,0,0,1,2.73-2.1,7.43,7.43,0,0,1,7.36,0,11.67,11.67,0,0,1,2.73,2.11,21.15,21.15,0,0,1,3.47,5.14,46.12,46.12,0,0,1,3.57,11.09,73.63,73.63,0,0,1,.8,22.64,143.7,143.7,0,0,0-4.06-21.86,50.84,50.84,0,0,0-3.92-10,18.09,18.09,0,0,0-2.89-4.05,4.15,4.15,0,0,0-6.77,0,18.75,18.75,0,0,0-2.89,4.05,51.47,51.47,0,0,0-3.92,10A143.7,143.7,0,0,0,238.88,607.47Z" style="fill:#010101"/><circle cx="253.14" cy="608.58" r="14.26" style="fill:#010101"/><path d="M187.9,607.47a74,74,0,0,1,.81-22.64,45.82,45.82,0,0,1,3.57-11.09,20.87,20.87,0,0,1,3.47-5.14,11.38,11.38,0,0,1,2.73-2.1,7.43,7.43,0,0,1,7.36,0,11.67,11.67,0,0,1,2.73,2.11,21.15,21.15,0,0,1,3.47,5.14,46.12,46.12,0,0,1,3.57,11.09,73.63,73.63,0,0,1,.8,22.64,143.7,143.7,0,0,0-4.06-21.86,50.84,50.84,0,0,0-3.92-10,18.09,18.09,0,0,0-2.89-4.05,4.15,4.15,0,0,0-6.77,0,18.75,18.75,0,0,0-2.89,4.05,51.47,51.47,0,0,0-3.92,10A143.7,143.7,0,0,0,187.9,607.47Z" style="fill:#010101"/><circle cx="202.16" cy="608.58" r="14.26" style="fill:#010101"/><path d="M136.92,607.47a74,74,0,0,1,.81-22.64,45.82,45.82,0,0,1,3.57-11.09,20.87,20.87,0,0,1,3.47-5.14,11.38,11.38,0,0,1,2.73-2.1,7.43,7.43,0,0,1,7.36,0,11.67,11.67,0,0,1,2.73,2.11,20.87,20.87,0,0,1,3.47,5.14,46.12,46.12,0,0,1,3.57,11.09,73.63,73.63,0,0,1,.8,22.64,143.7,143.7,0,0,0-4.06-21.86,50.84,50.84,0,0,0-3.92-10,18.09,18.09,0,0,0-2.89-4.05,4.15,4.15,0,0,0-6.77,0,18.75,18.75,0,0,0-2.89,4.05,51.47,51.47,0,0,0-3.92,10A143.7,143.7,0,0,0,136.92,607.47Z" style="fill:#010101"/><circle cx="151.18" cy="608.58" r="14.26" style="fill:#010101"/><path d="M85.94,607.47a74,74,0,0,1,.81-22.64,45.82,45.82,0,0,1,3.57-11.09,20.87,20.87,0,0,1,3.47-5.14,11.38,11.38,0,0,1,2.73-2.1,7.43,7.43,0,0,1,7.36,0,11.67,11.67,0,0,1,2.73,2.11,20.87,20.87,0,0,1,3.47,5.14,46.12,46.12,0,0,1,3.57,11.09,73.63,73.63,0,0,1,.8,22.64,143.7,143.7,0,0,0-4.06-21.86,50.84,50.84,0,0,0-3.92-10,18.09,18.09,0,0,0-2.89-4.05,4.15,4.15,0,0,0-6.77,0,18.75,18.75,0,0,0-2.89,4.05,51.47,51.47,0,0,0-3.92,10A143.7,143.7,0,0,0,85.94,607.47Z" style="fill:#010101"/><circle cx="100.2" cy="608.58" r="14.26" style="fill:#010101"/><path d="M370.62,536.32a74,74,0,0,1,.81-22.64A46,46,0,0,1,375,502.59a21.1,21.1,0,0,1,3.46-5.14,11.64,11.64,0,0,1,2.73-2.1,7.42,7.42,0,0,1,7.37,0,11.64,11.64,0,0,1,2.73,2.1,21.15,21.15,0,0,1,3.47,5.14,46.26,46.26,0,0,1,3.57,11.09,73.63,73.63,0,0,1,.8,22.64,143.57,143.57,0,0,0-4.06-21.85,51,51,0,0,0-3.92-10,18.16,18.16,0,0,0-2.89-4.06,4.15,4.15,0,0,0-6.77,0,18.09,18.09,0,0,0-2.89,4,50.69,50.69,0,0,0-3.92,10A143.34,143.34,0,0,0,370.62,536.32Z" style="fill:#010101"/><circle cx="384.88" cy="537.44" r="14.26" style="fill:#010101"/><path d="M319.27,536.32a74,74,0,0,1,.81-22.64,46,46,0,0,1,3.57-11.09,20.82,20.82,0,0,1,3.46-5.14,11.64,11.64,0,0,1,2.73-2.1,7.42,7.42,0,0,1,7.37,0,11.64,11.64,0,0,1,2.73,2.1,20.82,20.82,0,0,1,3.46,5.14A45.39,45.39,0,0,1,347,513.68a73.64,73.64,0,0,1,.81,22.64,143.57,143.57,0,0,0-4.06-21.85,51,51,0,0,0-3.92-10,18.48,18.48,0,0,0-2.89-4.06,4.15,4.15,0,0,0-6.77,0,18.09,18.09,0,0,0-2.89,4,50.71,50.71,0,0,0-3.93,10A144.56,144.56,0,0,0,319.27,536.32Z" style="fill:#010101"/><circle cx="333.52" cy="537.44" r="14.26" style="fill:#010101"/><path d="M267.92,536.32a74,74,0,0,1,.81-22.64,46,46,0,0,1,3.57-11.09,20.82,20.82,0,0,1,3.46-5.14,11.64,11.64,0,0,1,2.73-2.1,7.42,7.42,0,0,1,7.37,0,11.85,11.85,0,0,1,2.73,2.1,20.82,20.82,0,0,1,3.46,5.14,45.39,45.39,0,0,1,3.57,11.09,73.64,73.64,0,0,1,.81,22.64,144.81,144.81,0,0,0-4.06-21.85,51,51,0,0,0-3.92-10,18.82,18.82,0,0,0-2.89-4.06,4.15,4.15,0,0,0-6.77,0,18.45,18.45,0,0,0-2.9,4,51.31,51.31,0,0,0-3.92,10A142.12,142.12,0,0,0,267.92,536.32Z" style="fill:#010101"/><circle cx="282.17" cy="537.44" r="14.26" style="fill:#010101"/><path d="M216.57,536.32a73.64,73.64,0,0,1,.81-22.64A45.52,45.52,0,0,1,221,502.59a20.55,20.55,0,0,1,3.46-5.14,11.64,11.64,0,0,1,2.73-2.1,7.4,7.4,0,0,1,7.36,0,11.7,11.7,0,0,1,2.74,2.1,20.82,20.82,0,0,1,3.46,5.14,45.39,45.39,0,0,1,3.57,11.09,73.64,73.64,0,0,1,.81,22.64A144.81,144.81,0,0,0,241,514.47a51.6,51.6,0,0,0-3.92-10,18.82,18.82,0,0,0-2.89-4.06,4.15,4.15,0,0,0-6.77,0,18.45,18.45,0,0,0-2.9,4,51.31,51.31,0,0,0-3.92,10A142.12,142.12,0,0,0,216.57,536.32Z" style="fill:#010101"/><circle cx="230.82" cy="537.44" r="14.26" style="fill:#010101"/><path d="M165.21,536.32a74,74,0,0,1,.82-22.64,45.93,45.93,0,0,1,3.56-11.09,20.87,20.87,0,0,1,3.47-5.14,11.64,11.64,0,0,1,2.73-2.1,7.4,7.4,0,0,1,7.36,0,11.64,11.64,0,0,1,2.73,2.1,20.87,20.87,0,0,1,3.47,5.14,45.39,45.39,0,0,1,3.57,11.09,73.64,73.64,0,0,1,.81,22.64,144.82,144.82,0,0,0-4.07-21.85,50.36,50.36,0,0,0-3.92-10,18.16,18.16,0,0,0-2.89-4.06,4.15,4.15,0,0,0-6.77,0,18.75,18.75,0,0,0-2.89,4,51.31,51.31,0,0,0-3.92,10A143.34,143.34,0,0,0,165.21,536.32Z" style="fill:#010101"/><circle cx="179.47" cy="537.44" r="14.26" style="fill:#010101"/><path d="M113.86,536.32a74,74,0,0,1,.81-22.64,46,46,0,0,1,3.57-11.09,20.87,20.87,0,0,1,3.47-5.14,11.44,11.44,0,0,1,2.73-2.1,7.4,7.4,0,0,1,7.36,0,11.64,11.64,0,0,1,2.73,2.1,21.15,21.15,0,0,1,3.47,5.14,46.26,46.26,0,0,1,3.57,11.09,73.63,73.63,0,0,1,.8,22.64,143.57,143.57,0,0,0-4.06-21.85,50.36,50.36,0,0,0-3.92-10,18.16,18.16,0,0,0-2.89-4.06,4.15,4.15,0,0,0-6.77,0,18.75,18.75,0,0,0-2.89,4,51.31,51.31,0,0,0-3.92,10A143.34,143.34,0,0,0,113.86,536.32Z" style="fill:#010101"/><circle cx="128.12" cy="537.44" r="14.26" style="fill:#010101"/><path d="M62.51,536.32a74,74,0,0,1,.81-22.64,46,46,0,0,1,3.57-11.09,21.1,21.1,0,0,1,3.46-5.14,11.64,11.64,0,0,1,2.73-2.1,7.42,7.42,0,0,1,7.37,0,11.64,11.64,0,0,1,2.73,2.1,21.15,21.15,0,0,1,3.47,5.14,46.26,46.26,0,0,1,3.57,11.09,73.63,73.63,0,0,1,.8,22.64A143.57,143.57,0,0,0,87,514.47a50.36,50.36,0,0,0-3.92-10,18.16,18.16,0,0,0-2.89-4.06,5.1,5.1,0,0,0-3.38-1.75,5.1,5.1,0,0,0-3.39,1.75,18.09,18.09,0,0,0-2.89,4,50.69,50.69,0,0,0-3.92,10A143.34,143.34,0,0,0,62.51,536.32Z" style="fill:#010101"/><circle cx="76.77" cy="537.44" r="14.26" style="fill:#010101"/><path d="M340.84,465.18a74,74,0,0,1,.81-22.65,45.75,45.75,0,0,1,3.57-11.08,21.11,21.11,0,0,1,3.47-5.15,11.44,11.44,0,0,1,2.73-2.1,7.78,7.78,0,0,1,3.68-1,7.67,7.67,0,0,1,3.68,1,11.64,11.64,0,0,1,2.73,2.1,21.34,21.34,0,0,1,3.47,5.14,46.4,46.4,0,0,1,3.57,11.09,73.7,73.7,0,0,1,.8,22.65,143.47,143.47,0,0,0-4.06-21.86,50.6,50.6,0,0,0-3.92-10,17.87,17.87,0,0,0-2.89-4.05,5,5,0,0,0-3.38-1.75,5.1,5.1,0,0,0-3.39,1.74,18.82,18.82,0,0,0-2.89,4.06,51,51,0,0,0-3.92,10A143.47,143.47,0,0,0,340.84,465.18Z" style="fill:#010101"/><circle cx="355.1" cy="466.29" r="14.26" style="fill:#010101"/><path d="M289.86,465.18a74,74,0,0,1,.81-22.65,45.75,45.75,0,0,1,3.57-11.08,21.11,21.11,0,0,1,3.47-5.15,11.64,11.64,0,0,1,2.73-2.1,7.78,7.78,0,0,1,3.68-1,7.67,7.67,0,0,1,3.68,1,11.64,11.64,0,0,1,2.73,2.1,21.34,21.34,0,0,1,3.47,5.14,46.4,46.4,0,0,1,3.57,11.09,73.7,73.7,0,0,1,.8,22.65,143.47,143.47,0,0,0-4.06-21.86,50.6,50.6,0,0,0-3.92-10,17.87,17.87,0,0,0-2.89-4.05,5,5,0,0,0-3.38-1.75,5.1,5.1,0,0,0-3.39,1.74,18.82,18.82,0,0,0-2.89,4.06,51,51,0,0,0-3.92,10A143.47,143.47,0,0,0,289.86,465.18Z" style="fill:#010101"/><circle cx="304.12" cy="466.29" r="14.26" style="fill:#010101"/><path d="M238.88,465.18a74,74,0,0,1,.81-22.65,45.75,45.75,0,0,1,3.57-11.08,21.11,21.11,0,0,1,3.47-5.15,11.64,11.64,0,0,1,2.73-2.1,7.78,7.78,0,0,1,3.68-1,7.67,7.67,0,0,1,3.68,1,11.64,11.64,0,0,1,2.73,2.1,21.34,21.34,0,0,1,3.47,5.14,46.4,46.4,0,0,1,3.57,11.09,73.7,73.7,0,0,1,.8,22.65,143.47,143.47,0,0,0-4.06-21.86,50.6,50.6,0,0,0-3.92-10,17.87,17.87,0,0,0-2.89-4.05,5,5,0,0,0-3.38-1.75,5.1,5.1,0,0,0-3.39,1.74,18.82,18.82,0,0,0-2.89,4.06,51,51,0,0,0-3.92,10A143.47,143.47,0,0,0,238.88,465.18Z" style="fill:#010101"/><circle cx="253.14" cy="466.29" r="14.26" style="fill:#010101"/><path d="M187.9,465.18a74,74,0,0,1,.81-22.65,45.75,45.75,0,0,1,3.57-11.08,21.11,21.11,0,0,1,3.47-5.15,11.64,11.64,0,0,1,2.73-2.1,7.78,7.78,0,0,1,3.68-1,7.67,7.67,0,0,1,3.68,1,11.64,11.64,0,0,1,2.73,2.1,21.34,21.34,0,0,1,3.47,5.14,46.4,46.4,0,0,1,3.57,11.09,73.7,73.7,0,0,1,.8,22.65,143.47,143.47,0,0,0-4.06-21.86,50.6,50.6,0,0,0-3.92-10,17.87,17.87,0,0,0-2.89-4.05,5,5,0,0,0-3.38-1.75,5.1,5.1,0,0,0-3.39,1.74,18.82,18.82,0,0,0-2.89,4.06,51,51,0,0,0-3.92,10A143.47,143.47,0,0,0,187.9,465.18Z" style="fill:#010101"/><circle cx="202.16" cy="466.29" r="14.26" style="fill:#010101"/><path d="M136.92,465.18a74,74,0,0,1,.81-22.65,45.75,45.75,0,0,1,3.57-11.08,21.11,21.11,0,0,1,3.47-5.15,11.64,11.64,0,0,1,2.73-2.1,7.78,7.78,0,0,1,3.68-1,7.67,7.67,0,0,1,3.68,1,11.64,11.64,0,0,1,2.73,2.1,21.06,21.06,0,0,1,3.47,5.14,46.4,46.4,0,0,1,3.57,11.09,73.7,73.7,0,0,1,.8,22.65,143.47,143.47,0,0,0-4.06-21.86,50.6,50.6,0,0,0-3.92-10,17.87,17.87,0,0,0-2.89-4.05,5,5,0,0,0-3.38-1.75,5.1,5.1,0,0,0-3.39,1.74,18.82,18.82,0,0,0-2.89,4.06,51,51,0,0,0-3.92,10A143.47,143.47,0,0,0,136.92,465.18Z" style="fill:#010101"/><circle cx="151.18" cy="466.29" r="14.26" style="fill:#010101"/><path d="M85.94,465.18a74,74,0,0,1,.81-22.65,45.75,45.75,0,0,1,3.57-11.08,21.11,21.11,0,0,1,3.47-5.15,11.64,11.64,0,0,1,2.73-2.1,7.78,7.78,0,0,1,3.68-1,7.67,7.67,0,0,1,3.68,1,11.64,11.64,0,0,1,2.73,2.1,21.06,21.06,0,0,1,3.47,5.14,46.4,46.4,0,0,1,3.57,11.09,73.7,73.7,0,0,1,.8,22.65,143.47,143.47,0,0,0-4.06-21.86,50.6,50.6,0,0,0-3.92-10,17.87,17.87,0,0,0-2.89-4.05,5,5,0,0,0-3.38-1.75,5.1,5.1,0,0,0-3.39,1.74,18.82,18.82,0,0,0-2.89,4.06,51,51,0,0,0-3.92,10A143.47,143.47,0,0,0,85.94,465.18Z" style="fill:#010101"/><circle cx="100.2" cy="466.29" r="14.26" style="fill:#010101"/><path d="M370.62,394a74,74,0,0,1,.81-22.64A45.68,45.68,0,0,1,375,360.3a21.1,21.1,0,0,1,3.46-5.14,11.67,11.67,0,0,1,2.73-2.11,7.48,7.48,0,0,1,7.37,0,11.64,11.64,0,0,1,2.73,2.1,21.39,21.39,0,0,1,3.47,5.15,46.19,46.19,0,0,1,3.57,11.08,73.71,73.71,0,0,1,.8,22.65,143.47,143.47,0,0,0-4.06-21.86,51.22,51.22,0,0,0-3.92-10,18.09,18.09,0,0,0-2.89-4.05,4.15,4.15,0,0,0-6.77,0,18.09,18.09,0,0,0-2.89,4.05,50.6,50.6,0,0,0-3.92,10A143.47,143.47,0,0,0,370.62,394Z" style="fill:#010101"/><circle cx="384.88" cy="395.14" r="14.26" style="fill:#010101"/><path d="M319.27,394a74,74,0,0,1,.81-22.64,45.68,45.68,0,0,1,3.57-11.09,20.82,20.82,0,0,1,3.46-5.14,11.67,11.67,0,0,1,2.73-2.11,7.48,7.48,0,0,1,7.37,0,11.64,11.64,0,0,1,2.73,2.1,21.06,21.06,0,0,1,3.46,5.15A45.31,45.31,0,0,1,347,371.38a73.71,73.71,0,0,1,.81,22.65,143.47,143.47,0,0,0-4.06-21.86,51.22,51.22,0,0,0-3.92-10,18.42,18.42,0,0,0-2.89-4.05,4.15,4.15,0,0,0-6.77,0,18.09,18.09,0,0,0-2.89,4.05,50.62,50.62,0,0,0-3.93,10A144.69,144.69,0,0,0,319.27,394Z" style="fill:#010101"/><circle cx="333.52" cy="395.14" r="14.26" style="fill:#010101"/><path d="M267.92,394a74,74,0,0,1,.81-22.64,45.68,45.68,0,0,1,3.57-11.09,20.82,20.82,0,0,1,3.46-5.14,11.67,11.67,0,0,1,2.73-2.11,7.48,7.48,0,0,1,7.37,0,11.85,11.85,0,0,1,2.73,2.1,21.06,21.06,0,0,1,3.46,5.15,45.31,45.31,0,0,1,3.57,11.08,73.71,73.71,0,0,1,.81,22.65,144.7,144.7,0,0,0-4.06-21.86,51.22,51.22,0,0,0-3.92-10,18.75,18.75,0,0,0-2.89-4.05,4.15,4.15,0,0,0-6.77,0,18.45,18.45,0,0,0-2.9,4.05,51.22,51.22,0,0,0-3.92,10A142.25,142.25,0,0,0,267.92,394Z" style="fill:#010101"/><circle cx="282.17" cy="395.14" r="14.26" style="fill:#010101"/><path d="M216.57,394a73.64,73.64,0,0,1,.81-22.64A45.25,45.25,0,0,1,221,360.3a20.55,20.55,0,0,1,3.46-5.14,11.67,11.67,0,0,1,2.73-2.11,7.47,7.47,0,0,1,7.36,0,11.7,11.7,0,0,1,2.74,2.1,21.06,21.06,0,0,1,3.46,5.15,45.31,45.31,0,0,1,3.57,11.08,73.71,73.71,0,0,1,.81,22.65A144.7,144.7,0,0,0,241,372.17a51.86,51.86,0,0,0-3.92-10,18.75,18.75,0,0,0-2.89-4.05,4.15,4.15,0,0,0-6.77,0,18.45,18.45,0,0,0-2.9,4.05,51.22,51.22,0,0,0-3.92,10A142.25,142.25,0,0,0,216.57,394Z" style="fill:#010101"/><circle cx="230.82" cy="395.14" r="14.26" style="fill:#010101"/><path d="M165.21,394a74,74,0,0,1,.82-22.64,45.65,45.65,0,0,1,3.56-11.09,20.87,20.87,0,0,1,3.47-5.14,11.67,11.67,0,0,1,2.73-2.11,7.47,7.47,0,0,1,7.36,0,11.64,11.64,0,0,1,2.73,2.1,21.11,21.11,0,0,1,3.47,5.15,45.31,45.31,0,0,1,3.57,11.08,73.71,73.71,0,0,1,.81,22.65,144.72,144.72,0,0,0-4.07-21.86,50.6,50.6,0,0,0-3.92-10,18.09,18.09,0,0,0-2.89-4.05,4.15,4.15,0,0,0-6.77,0,18.75,18.75,0,0,0-2.89,4.05,51.22,51.22,0,0,0-3.92,10A143.47,143.47,0,0,0,165.21,394Z" style="fill:#010101"/><circle cx="179.47" cy="395.14" r="14.26" style="fill:#010101"/><path d="M113.86,394a74,74,0,0,1,.81-22.64,45.68,45.68,0,0,1,3.57-11.09,20.87,20.87,0,0,1,3.47-5.14,11.47,11.47,0,0,1,2.73-2.11,7.47,7.47,0,0,1,7.36,0,11.64,11.64,0,0,1,2.73,2.1A21.39,21.39,0,0,1,138,360.3a46.19,46.19,0,0,1,3.57,11.08,73.71,73.71,0,0,1,.8,22.65,143.47,143.47,0,0,0-4.06-21.86,50.6,50.6,0,0,0-3.92-10,18.09,18.09,0,0,0-2.89-4.05,4.15,4.15,0,0,0-6.77,0,18.75,18.75,0,0,0-2.89,4.05,51.22,51.22,0,0,0-3.92,10A143.47,143.47,0,0,0,113.86,394Z" style="fill:#010101"/><circle cx="128.12" cy="395.14" r="14.26" style="fill:#010101"/><path d="M62.51,394a74,74,0,0,1,.81-22.64,45.68,45.68,0,0,1,3.57-11.09,21.1,21.1,0,0,1,3.46-5.14,11.67,11.67,0,0,1,2.73-2.11,7.48,7.48,0,0,1,7.37,0,11.64,11.64,0,0,1,2.73,2.1,21.39,21.39,0,0,1,3.47,5.15,46.19,46.19,0,0,1,3.57,11.08A73.71,73.71,0,0,1,91,394,143.47,143.47,0,0,0,87,372.17a50.6,50.6,0,0,0-3.92-10,18.09,18.09,0,0,0-2.89-4.05,5.06,5.06,0,0,0-3.38-1.75,5.06,5.06,0,0,0-3.39,1.75,18.09,18.09,0,0,0-2.89,4.05,50.6,50.6,0,0,0-3.92,10A143.47,143.47,0,0,0,62.51,394Z" style="fill:#010101"/><circle cx="76.77" cy="395.14" r="14.26" style="fill:#010101"/><path d="M340.84,322.88a74,74,0,0,1,.81-22.64,45.82,45.82,0,0,1,3.57-11.09,20.87,20.87,0,0,1,3.47-5.14,11.18,11.18,0,0,1,2.73-2.1,7.43,7.43,0,0,1,7.36,0,11.67,11.67,0,0,1,2.73,2.11,21.15,21.15,0,0,1,3.47,5.14,46.12,46.12,0,0,1,3.57,11.09,73.63,73.63,0,0,1,.8,22.64A143.7,143.7,0,0,0,365.29,301a50.84,50.84,0,0,0-3.92-10,18.09,18.09,0,0,0-2.89-4,4.15,4.15,0,0,0-6.77,0,18.75,18.75,0,0,0-2.89,4,51.47,51.47,0,0,0-3.92,10A143.7,143.7,0,0,0,340.84,322.88Z" style="fill:#010101"/><circle cx="355.1" cy="323.99" r="14.26" style="fill:#010101"/><path d="M289.86,322.88a74,74,0,0,1,.81-22.64,45.82,45.82,0,0,1,3.57-11.09,20.87,20.87,0,0,1,3.47-5.14,11.38,11.38,0,0,1,2.73-2.1,7.43,7.43,0,0,1,7.36,0,11.67,11.67,0,0,1,2.73,2.11,21.15,21.15,0,0,1,3.47,5.14,46.12,46.12,0,0,1,3.57,11.09,73.63,73.63,0,0,1,.8,22.64A143.7,143.7,0,0,0,314.31,301a50.84,50.84,0,0,0-3.92-10,18.09,18.09,0,0,0-2.89-4,4.15,4.15,0,0,0-6.77,0,18.75,18.75,0,0,0-2.89,4,51.47,51.47,0,0,0-3.92,10A143.7,143.7,0,0,0,289.86,322.88Z" style="fill:#010101"/><circle cx="304.12" cy="323.99" r="14.26" style="fill:#010101"/><path d="M238.88,322.88a74,74,0,0,1,.81-22.64,45.82,45.82,0,0,1,3.57-11.09,20.87,20.87,0,0,1,3.47-5.14,11.38,11.38,0,0,1,2.73-2.1,7.43,7.43,0,0,1,7.36,0,11.67,11.67,0,0,1,2.73,2.11,21.15,21.15,0,0,1,3.47,5.14,46.12,46.12,0,0,1,3.57,11.09,73.63,73.63,0,0,1,.8,22.64A143.7,143.7,0,0,0,263.33,301a50.84,50.84,0,0,0-3.92-10,18.09,18.09,0,0,0-2.89-4,4.15,4.15,0,0,0-6.77,0,18.75,18.75,0,0,0-2.89,4,51.47,51.47,0,0,0-3.92,10A143.7,143.7,0,0,0,238.88,322.88Z" style="fill:#010101"/><circle cx="253.14" cy="323.99" r="14.26" style="fill:#010101"/><path d="M187.9,322.88a74,74,0,0,1,.81-22.64,45.82,45.82,0,0,1,3.57-11.09,20.87,20.87,0,0,1,3.47-5.14,11.38,11.38,0,0,1,2.73-2.1,7.43,7.43,0,0,1,7.36,0,11.67,11.67,0,0,1,2.73,2.11,21.15,21.15,0,0,1,3.47,5.14,46.12,46.12,0,0,1,3.57,11.09,73.63,73.63,0,0,1,.8,22.64A143.7,143.7,0,0,0,212.35,301a50.84,50.84,0,0,0-3.92-10,18.09,18.09,0,0,0-2.89-4,4.15,4.15,0,0,0-6.77,0,18.75,18.75,0,0,0-2.89,4A51.47,51.47,0,0,0,192,301,143.7,143.7,0,0,0,187.9,322.88Z" style="fill:#010101"/><circle cx="202.16" cy="323.99" r="14.26" style="fill:#010101"/><path d="M136.92,322.88a74,74,0,0,1,.81-22.64,45.82,45.82,0,0,1,3.57-11.09,20.87,20.87,0,0,1,3.47-5.14,11.38,11.38,0,0,1,2.73-2.1,7.43,7.43,0,0,1,7.36,0,11.67,11.67,0,0,1,2.73,2.11,20.87,20.87,0,0,1,3.47,5.14,46.12,46.12,0,0,1,3.57,11.09,73.63,73.63,0,0,1,.8,22.64A143.7,143.7,0,0,0,161.37,301a50.84,50.84,0,0,0-3.92-10,18.09,18.09,0,0,0-2.89-4,4.15,4.15,0,0,0-6.77,0,18.75,18.75,0,0,0-2.89,4A51.47,51.47,0,0,0,141,301,143.7,143.7,0,0,0,136.92,322.88Z" style="fill:#010101"/><circle cx="151.18" cy="323.99" r="14.26" style="fill:#010101"/><path d="M85.94,322.88a74,74,0,0,1,.81-22.64,45.82,45.82,0,0,1,3.57-11.09A20.87,20.87,0,0,1,93.79,284a11.38,11.38,0,0,1,2.73-2.1,7.43,7.43,0,0,1,7.36,0,11.67,11.67,0,0,1,2.73,2.11,20.87,20.87,0,0,1,3.47,5.14,46.12,46.12,0,0,1,3.57,11.09,73.63,73.63,0,0,1,.8,22.64A143.7,143.7,0,0,0,110.39,301a50.84,50.84,0,0,0-3.92-10,18.09,18.09,0,0,0-2.89-4,4.15,4.15,0,0,0-6.77,0,18.75,18.75,0,0,0-2.89,4A51.47,51.47,0,0,0,90,301,143.7,143.7,0,0,0,85.94,322.88Z" style="fill:#010101"/><circle cx="100.2" cy="323.99" r="14.26" style="fill:#010101"/><path d="M370.62,251.73a74,74,0,0,1,.81-22.64A46,46,0,0,1,375,218a21.1,21.1,0,0,1,3.46-5.14,11.64,11.64,0,0,1,2.73-2.1,7.42,7.42,0,0,1,7.37,0,11.64,11.64,0,0,1,2.73,2.1,21.15,21.15,0,0,1,3.47,5.14,46.26,46.26,0,0,1,3.57,11.09,73.63,73.63,0,0,1,.8,22.64,143.57,143.57,0,0,0-4.06-21.85,51,51,0,0,0-3.92-10,18.16,18.16,0,0,0-2.89-4.06,4.15,4.15,0,0,0-6.77,0,18.09,18.09,0,0,0-2.89,4.05,50.69,50.69,0,0,0-3.92,10A143.57,143.57,0,0,0,370.62,251.73Z" style="fill:#010101"/><circle cx="384.88" cy="252.85" r="14.26" style="fill:#010101"/><path d="M319.27,251.73a74,74,0,0,1,.81-22.64A46,46,0,0,1,323.65,218a20.82,20.82,0,0,1,3.46-5.14,11.64,11.64,0,0,1,2.73-2.1,7.42,7.42,0,0,1,7.37,0,11.64,11.64,0,0,1,2.73,2.1A20.82,20.82,0,0,1,343.4,218,45.39,45.39,0,0,1,347,229.09a73.64,73.64,0,0,1,.81,22.64,143.57,143.57,0,0,0-4.06-21.85,51,51,0,0,0-3.92-10,18.48,18.48,0,0,0-2.89-4.06,4.15,4.15,0,0,0-6.77,0,18.09,18.09,0,0,0-2.89,4.05,50.71,50.71,0,0,0-3.93,10A144.79,144.79,0,0,0,319.27,251.73Z" style="fill:#010101"/><circle cx="333.52" cy="252.85" r="14.26" style="fill:#010101"/><path d="M267.92,251.73a74,74,0,0,1,.81-22.64A46,46,0,0,1,272.3,218a20.82,20.82,0,0,1,3.46-5.14,11.64,11.64,0,0,1,2.73-2.1,7.42,7.42,0,0,1,7.37,0,11.85,11.85,0,0,1,2.73,2.1,20.82,20.82,0,0,1,3.46,5.14,45.39,45.39,0,0,1,3.57,11.09,73.64,73.64,0,0,1,.81,22.64,144.81,144.81,0,0,0-4.06-21.85,51,51,0,0,0-3.92-10,18.82,18.82,0,0,0-2.89-4.06,4.15,4.15,0,0,0-6.77,0,18.45,18.45,0,0,0-2.9,4.05,51.31,51.31,0,0,0-3.92,10A142.34,142.34,0,0,0,267.92,251.73Z" style="fill:#010101"/><circle cx="282.17" cy="252.85" r="14.26" style="fill:#010101"/><path d="M216.57,251.73a73.64,73.64,0,0,1,.81-22.64A45.52,45.52,0,0,1,221,218a20.55,20.55,0,0,1,3.46-5.14,11.64,11.64,0,0,1,2.73-2.1,7.4,7.4,0,0,1,7.36,0,11.7,11.7,0,0,1,2.74,2.1A20.82,20.82,0,0,1,240.7,218a45.39,45.39,0,0,1,3.57,11.09,73.64,73.64,0,0,1,.81,22.64A144.81,144.81,0,0,0,241,229.88a51.6,51.6,0,0,0-3.92-10,18.82,18.82,0,0,0-2.89-4.06,4.15,4.15,0,0,0-6.77,0,18.45,18.45,0,0,0-2.9,4.05,51.31,51.31,0,0,0-3.92,10A142.34,142.34,0,0,0,216.57,251.73Z" style="fill:#010101"/><circle cx="230.82" cy="252.85" r="14.26" style="fill:#010101"/><path d="M165.21,251.73a74,74,0,0,1,.82-22.64A45.93,45.93,0,0,1,169.59,218a20.87,20.87,0,0,1,3.47-5.14,11.64,11.64,0,0,1,2.73-2.1,7.4,7.4,0,0,1,7.36,0,11.64,11.64,0,0,1,2.73,2.1,20.87,20.87,0,0,1,3.47,5.14,45.39,45.39,0,0,1,3.57,11.09,73.64,73.64,0,0,1,.81,22.64,144.82,144.82,0,0,0-4.07-21.85,50.36,50.36,0,0,0-3.92-10,18.16,18.16,0,0,0-2.89-4.06,4.15,4.15,0,0,0-6.77,0,18.75,18.75,0,0,0-2.89,4.05,51.31,51.31,0,0,0-3.92,10A143.57,143.57,0,0,0,165.21,251.73Z" style="fill:#010101"/><circle cx="179.47" cy="252.85" r="14.26" style="fill:#010101"/><path d="M113.86,251.73a74,74,0,0,1,.81-22.64A46,46,0,0,1,118.24,218a20.87,20.87,0,0,1,3.47-5.14,11.44,11.44,0,0,1,2.73-2.1,7.4,7.4,0,0,1,7.36,0,11.64,11.64,0,0,1,2.73,2.1A21.15,21.15,0,0,1,138,218a46.26,46.26,0,0,1,3.57,11.09,73.63,73.63,0,0,1,.8,22.64,143.57,143.57,0,0,0-4.06-21.85,50.36,50.36,0,0,0-3.92-10,18.16,18.16,0,0,0-2.89-4.06,4.15,4.15,0,0,0-6.77,0,18.75,18.75,0,0,0-2.89,4.05,51.31,51.31,0,0,0-3.92,10A143.57,143.57,0,0,0,113.86,251.73Z" style="fill:#010101"/><circle cx="128.12" cy="252.85" r="14.26" style="fill:#010101"/><path d="M62.51,251.73a74,74,0,0,1,.81-22.64A46,46,0,0,1,66.89,218a21.1,21.1,0,0,1,3.46-5.14,11.64,11.64,0,0,1,2.73-2.1,7.42,7.42,0,0,1,7.37,0,11.64,11.64,0,0,1,2.73,2.1A21.15,21.15,0,0,1,86.65,218a46.26,46.26,0,0,1,3.57,11.09,73.63,73.63,0,0,1,.8,22.64A143.57,143.57,0,0,0,87,229.88a50.36,50.36,0,0,0-3.92-10,18.16,18.16,0,0,0-2.89-4.06,5.1,5.1,0,0,0-3.38-1.75,5.1,5.1,0,0,0-3.39,1.75,18.09,18.09,0,0,0-2.89,4.05,50.69,50.69,0,0,0-3.92,10A143.57,143.57,0,0,0,62.51,251.73Z" style="fill:#010101"/><circle cx="76.77" cy="252.85" r="14.26" style="fill:#010101"/><path d="M139.65,1232.07H322a0,0,0,0,1,0,0v679.09a76.62,76.62,0,0,1-76.62,76.62h-29.1a76.62,76.62,0,0,1-76.62-76.62V1232.07A0,0,0,0,1,139.65,1232.07Z" style="fill:#010101"/></svg>